<svg width="800" height="800" viewBox="0 0 800 800" fill="none" xmlns="http://www.w3.org/2000/svg">
<g clip-path="url(#clip0_42_58100)">
<path d="M194.26 273.092C189.296 274.325 201.536 294.395 199.131 308.268C196.726 322.141 152.979 403.593 146.351 435.224C142.189 455.14 134.913 535.265 215.07 549.755L482.669 339.406C482.669 339.406 482.977 289.37 416.078 274.911C349.178 260.452 278.948 271.304 260.266 240.567C260.266 240.567 253.113 229.098 249.722 252.621C247.564 267.45 248.211 271.304 248.211 271.304C248.211 271.304 221.081 251.11 216.858 250.525C212.634 249.908 209.613 255.642 215.039 273.739C220.465 291.836 216.549 286.41 216.549 286.41C216.549 286.41 201.474 271.335 194.26 273.153V273.092Z" fill="#00A73C"/>
<path d="M169.257 377.974C147.553 461.768 247.626 502.124 319.335 455.725L215.07 549.755C215.07 549.755 181.311 551.574 156 511.773C118.419 452.735 169.257 377.974 169.257 377.974Z" fill="#009334"/>
<path d="M372.67 337.279C375.568 326.026 327.474 455.109 342.519 473.792C357.594 492.474 362.527 458.531 365.425 436.735C369.032 409.605 362.712 375.846 372.67 337.279Z" fill="#73B1A7"/>
<path d="M655.067 518.401C664.1 479.217 622.511 393.018 622.511 393.018C622.511 393.018 617.702 335.768 598.403 329.14C579.104 322.511 549.569 344.801 549.569 344.801C491.702 326.704 432.047 352.046 432.047 352.046C421.195 345.418 397.087 326.735 379.606 330.342C362.126 333.949 346.742 409.604 344.954 431.894C344.954 431.894 300.652 475.579 234.8 530.302C148.077 602.319 184.024 709.451 230.731 717.313C250.955 720.704 271.118 722.739 287.981 720.334C304.845 717.93 314.495 692.002 314.495 692.002C332.345 697.15 350.596 699.401 368.014 699.894C374.396 708.403 381.98 716.511 391.044 723.941C391.044 723.941 461.027 743.795 466.237 697.243C466.638 693.636 466.915 690.121 467.1 686.699C467.316 686.638 467.501 686.607 467.594 686.607C471.817 685.99 518.832 666.722 518.832 666.722C544.143 713.12 580.306 719.163 580.306 719.163C630.928 720.982 633.302 693.667 633.302 693.667C639.961 643.939 608.638 573.925 608.638 573.925C608.638 573.925 646.003 557.647 655.036 518.463L655.067 518.401Z" fill="#85CBBF"/>
<path d="M623.066 394.683C622.881 375.044 616.407 353.155 609.532 337.278C612.245 348.13 612.461 367.676 608.361 374.859L623.066 394.683Z" fill="#73B1A7"/>
<path d="M372.67 337.279C375.044 328.122 343.721 411.639 339.96 453.29C339.22 461.429 338.881 470.092 340.792 474.47C345.632 485.476 357.872 480.543 362.743 454.338C369.001 420.641 369.402 349.919 372.67 337.279Z" fill="#73B1A7"/>
<path d="M368.076 699.987C345.725 670.174 338.727 635.43 338.11 606.296C321.832 614.404 303.92 611.814 303.92 611.814C312.367 622.666 317.485 670.884 317.485 670.884C298.802 706.307 211.401 701.035 182.483 651.584C182.483 651.584 187.601 710.438 235.664 720.149C316.344 736.427 312.059 693.019 312.059 693.019C328.923 697.643 348.13 699.771 368.045 699.956L368.076 699.987Z" fill="#73B1A7"/>
<path d="M595.351 581.663C541.122 613.941 472.804 613.14 414.074 586.195C431.246 596.8 446.136 607.313 450.699 614.25C462.106 631.607 468.765 656.024 467.069 686.822C487.448 681.242 505.452 674.306 518.801 666.691C557.184 722.677 584.715 720.303 584.715 720.303L594.148 719.841C564.984 657.534 565.384 607.899 595.32 581.663H595.351Z" fill="#73B1A7"/>
<path d="M550.432 462.847C548.952 454.708 563.781 428.75 570.841 429.983C580.337 431.679 585.979 470.462 578.549 475.95C574.387 479.002 551.48 468.705 550.432 462.847Z" fill="#408A7A"/>
<path d="M490.901 423.91C491.517 419.162 497.621 413.582 502.03 414.722C506.223 416.295 511.217 428.688 510.755 433.775C510.354 438.03 505.853 442.469 503.171 442.13C499.379 441.667 490.376 428.102 490.901 423.91Z" fill="#408A7A"/>
<path d="M541.399 413.212C532.058 413.859 513.622 403.593 512.389 393.049C510.94 380.533 559.835 359.538 567.234 366.135C573.462 371.654 553.454 412.164 541.368 413.243L541.399 413.212Z" fill="#408A7A"/>
<path d="M262.239 506.995C256.597 517.076 252.127 530.641 256.165 536.345C260.697 542.726 289.769 548.122 298.032 545.378C306.078 542.696 336.383 491.149 328.954 485.26C323.065 480.605 297.97 479.187 290.879 482.393L262.239 507.026V506.995Z" fill="#408A7A"/>
<path d="M236.959 642.86H236.897C227.617 642.736 200.919 627.013 200.549 618.042C200.302 612.092 214.33 597.047 220.496 595.259C225.829 593.718 254.316 598.589 257.522 604.847C261.992 613.603 248.489 641.102 236.959 642.89V642.86Z" fill="#408A7A"/>
<path d="M589 653.126C588.414 645.449 598.804 628.092 602.688 625.379C606.388 622.79 609.378 624.177 611.629 629.85C614.897 638.019 618.473 656.455 615.328 663.793C610.334 675.446 590.11 667.646 589 653.126Z" fill="#408A7A"/>
<path d="M567.851 556.199C552.714 560.392 434.421 544.021 406.736 539.058L423.199 549.879C423.199 549.879 471.447 583.884 503.664 585.703C523.087 586.782 564.922 573.432 584.468 560.607C582.711 559.251 578.888 554.318 577.13 553.023C573.893 554.102 570.749 555.397 567.851 556.199Z" fill="#EE869A"/>
<path d="M577.685 554.472C579.474 555.736 582.711 558.048 584.468 559.436C597.355 550.989 610.272 544.422 610.272 544.422C610.272 544.422 591.405 549.94 577.655 554.472H577.685Z" fill="#933000"/>
<path d="M399.923 539.428C397.672 538.133 395.083 532.83 408.925 539.12C450.73 569.579 483.162 581.633 511.68 581.695C541.338 581.757 572.969 568.038 619.059 537.547C626.735 531.659 637.741 529.1 629.232 534.711C579.134 571.491 543.927 587.429 511.587 587.522C479.185 587.614 444.687 573.309 399.892 539.428H399.923Z" fill="#0E141B"/>
<path d="M602.318 543.436C602.318 543.436 607.96 550.28 609.995 550.033C612.029 549.817 619.028 539.366 619.028 539.366L602.287 543.436H602.318Z" fill="white"/>
<path d="M405.965 537.146C406.86 540.538 413.426 553.579 417.28 553.579C421.134 553.579 428.286 541.833 428.286 541.833L405.996 537.146H405.965Z" fill="white"/>
<path d="M404.147 540.074C403.561 537.577 408.432 539.335 408.802 540.074C412.409 547.319 415.461 550.587 417.403 550.741C418.883 550.865 421.534 549.046 424.062 543.188C424.216 542.818 429.365 543.497 429.118 543.959C424.926 552.684 420.332 555.15 417.403 555.15C413.919 555.15 408.678 550.31 404.177 540.044L404.147 540.074Z" fill="#0E141B"/>
<path d="M601.547 546.179C599.389 542.51 603.675 540.106 605.709 544.329C606.943 546.827 608.885 548.615 609.748 548.553C610.95 548.491 613.293 545.809 615.821 539.643C617.517 535.574 621.186 536.807 620.23 539.582C617.764 546.857 613.509 551.821 609.995 552.283C607.374 552.622 603.736 549.971 601.547 546.21V546.179Z" fill="#0E141B"/>
<path d="M580.892 561.101C579.042 559.436 577.346 557.093 572.105 556.291C569.269 555.86 571.427 552.53 574.448 552.777C578.271 553.085 582.834 555.952 584.345 558.85C585.454 560.916 582.557 562.642 580.861 561.131L580.892 561.101Z" fill="#0E141B"/>
<path d="M369.833 524.599C366.997 517.138 371.467 516.028 373.379 522.934C376.924 535.913 511.926 558.573 564.213 552.931C589.339 550.125 639.868 527.466 643.321 517.384C645.14 512.113 648.531 509.893 647.175 518.957C645.51 530.086 597.478 552.253 566.772 558.233C523.734 566.588 377.047 543.559 369.833 524.629V524.599Z" fill="#0E141B"/>
<path d="M313.909 695.301C309.716 694.407 311.473 689.474 315.728 690.553C385.957 708.218 509.892 680.842 556.228 640.486C567.943 630.281 570.41 635.214 559.681 644.155C500.92 693.143 388.115 711.332 313.94 695.301H313.909Z" fill="#0E141B"/>
<path d="M557.461 348.378C523.272 338.851 473.235 339.16 435.963 353.341C432.294 354.729 430.012 350.967 433.681 349.333C470.368 333.179 518.832 331.699 558.695 343.599C573.369 347.977 572.352 352.54 557.431 348.378H557.461Z" fill="#0E141B"/>
<path d="M345.848 548.245C338.017 568.747 320.691 665.366 391.198 723.233C391.198 723.233 461.027 743.796 466.237 697.244C470.214 661.482 463.37 633.55 450.73 614.251C438.059 594.952 345.848 548.245 345.848 548.245Z" fill="#85CBBF"/>
<path d="M417.218 727.272C432.91 727.395 434.452 722.123 434.452 722.123C373.595 704.397 347.513 651.956 337.401 629.45C341.409 659.571 355.436 693.884 391.198 723.233C393.356 724.251 395.391 724.806 397.395 725.176C402.235 726.008 409.357 726.964 417.218 727.272Z" fill="#73B1A7"/>
<path d="M387.098 680.349C378.034 674.893 351.49 641.658 355.251 630.375C358.272 622.945 393.418 591.622 396.408 606.02C399.645 621.65 398.751 658.954 394.435 676.002C393.079 681.336 391.291 682.877 387.067 680.349H387.098Z" fill="#408A7A"/>
<path d="M390.088 724.343C345.786 693.175 327.289 621.496 336.075 581.387C338.85 568.716 342.426 571.83 340.669 582.127C333.177 625.936 351.613 687.779 392.339 719.965C401.68 727.334 449.651 725.73 456.218 714.94C471.046 690.554 464.634 642.799 453.042 622.051C445.736 608.949 449.404 606.081 457.173 620.602C470.152 644.772 476.534 695.055 460.564 718.177C450.329 733.006 403.129 733.499 390.119 724.343H390.088Z" fill="#0E141B"/>
<path d="M384.262 680.38C375.722 673.937 351.675 644.711 353.463 630.899C354.789 620.695 384.632 595.229 394.867 600.008C402.728 603.708 400.755 661.112 395.453 677.821C393.079 685.344 390.859 685.344 384.262 680.38ZM390.428 677.236C394.312 674.029 398.875 614.405 393.295 605.372C389.873 599.823 361.417 622.791 359.136 631.485C356.854 640.179 386.235 680.689 390.397 677.267L390.428 677.236Z" fill="#0E141B"/>
<path d="M421.01 724.619C421.01 719.841 417.434 715.525 412.255 715.648C407.784 715.741 404.301 719.563 403.407 723.725C403.098 725.082 403.098 726.5 403.407 727.826C403.438 728.011 403.499 728.227 403.592 728.442C404.702 731.741 408.987 738.277 411.761 738.154C413.735 738.061 417.527 733.776 419.592 729.675C420.363 728.165 420.887 726.685 421.01 725.452C421.01 725.174 421.01 724.897 421.01 724.619Z" fill="white"/>
<path d="M433.804 716.203C428.656 717.005 426.621 726.469 426.806 727.487C426.96 728.258 427.269 729.121 427.639 729.984C429.889 735.194 435.562 737.907 437.535 736.643C440.217 734.917 442.498 732.358 443.238 726.963C443.331 726.346 443.392 725.73 443.423 725.113C443.423 724.681 438.028 715.525 433.804 716.172V716.203Z" fill="white"/>
<path d="M457.112 710.007C455.539 708.527 447.986 714.816 447.955 720.088C447.955 721.136 448.14 722.123 448.572 722.955C448.757 723.263 448.973 723.572 449.25 723.849C449.836 724.466 450.576 725.052 451.47 725.576C455.2 727.765 461.058 728.936 463.586 728.289C464.48 728.073 465.035 727.086 464.942 726.007C464.634 722.554 462.846 717.714 460.472 713.984C459.455 712.412 458.252 711.086 457.142 710.038L457.112 710.007Z" fill="white"/>
<path d="M410.189 717.683C411.607 713.244 404.362 723.233 404.732 727.857C405.441 736.459 414.259 736.89 414.259 736.89C414.259 736.89 407.014 727.611 410.189 717.683Z" fill="#DCDDDD"/>
<path d="M430.722 717.899C430.352 714.539 427.608 726.5 427.608 726.5C427.608 726.5 428.409 736.458 437.566 737.352C437.566 737.352 431.924 728.998 430.752 717.899H430.722Z" fill="#DCDDDD"/>
<path d="M451.562 713.861C451.346 721.66 460.379 728.104 460.379 728.104C460.379 728.104 447.955 726.531 448.633 719.965C449.312 713.398 451.562 713.861 451.562 713.861Z" fill="#DCDDDD"/>
<path d="M412.131 739.203C406.736 739.449 402.112 730.324 402.112 726.563C402.112 719.873 407.075 714.046 412.532 714.046C418.976 714.046 422.613 720.643 422.613 726.008C422.613 732.852 415.369 739.049 412.131 739.203ZM405.996 726.717C406.243 729.553 409.943 735.226 412.162 735.041C414.629 734.856 418.821 729.861 418.821 726.162C418.821 722.678 416.232 717.9 412.347 718.023C408.463 718.146 405.719 723.387 405.996 726.717Z" fill="#0E141B"/>
<path d="M437.566 739.265C433.373 740.189 426.128 732.174 425.08 727.765C423.816 722.463 427.115 715.372 432.232 714.015C437.566 712.628 444.841 718.116 445.489 724.59C445.92 729.06 442.128 738.247 437.566 739.265ZM433.311 718.331C430.506 718.948 428.224 723.357 428.964 726.624C429.858 730.478 435.007 735.658 436.887 735.257C439.323 734.763 441.728 728.659 441.173 724.158C440.741 720.859 436.456 717.653 433.311 718.331Z" fill="#0E141B"/>
<path d="M445.705 722.123C443.701 717.714 451.285 708.096 457.482 708.805C463.062 709.452 467.902 727.148 465.435 729.399C463.062 731.557 448.818 728.936 445.735 722.123H445.705ZM456.094 712.473C453.135 712.473 448.88 717.807 449.928 720.89C450.976 723.88 460.133 727.457 461.983 726.223C463.956 724.929 459.886 712.443 456.063 712.443L456.094 712.473Z" fill="#0E141B"/>
<path d="M366.905 559.436C356.947 548.245 359.999 546.734 370.419 556.353C401.372 584.932 457.297 601.148 509.984 601.148C566.094 601.148 653.557 555.428 653.557 511.989C653.557 468.551 632.346 412.133 614.557 387.284C602.164 369.989 606.511 367.461 618.997 383.893C636.2 406.522 660 468.396 660 512.051C660 557.833 571.489 607.406 510.107 607.406C459.393 607.406 392.031 587.737 366.935 559.436H366.905Z" fill="#0E141B"/>
<path d="M338.079 465.991C338.079 434.484 362.034 334.627 376.338 327.876C384.046 324.238 417.712 330.404 438.768 353.433C448.294 363.854 445.273 367.152 435.5 357.965C415.43 339.067 386.913 329.849 379.236 333.857C370.358 338.481 345.417 421.936 343.351 466.269C342.796 478.354 338.079 477.861 338.079 465.991Z" fill="#0E141B"/>
<path d="M620.415 390.49C620.723 375.107 609.101 334.073 599.389 330.589C595.258 329.109 577.716 331.884 553.084 343.784C547.442 346.497 540.443 344.431 545.191 341.41C565.199 328.616 595.474 322.912 601.27 325.718C613.263 331.483 627.537 374.829 626.18 396.595C625.903 401.065 620.384 393.697 620.446 390.49H620.415Z" fill="#0E141B"/>
<path d="M546.733 463.186C544.883 454.4 563.226 426.499 571.982 427.825C582.926 429.521 587.89 473.206 581.508 477.275C576.36 480.574 548.027 469.476 546.702 463.186H546.733ZM552.899 461.367C554.717 465.868 573.4 472.805 577.315 471.88C582.248 470.709 577.593 432.758 571.18 433.004C566.587 433.189 551.295 457.39 552.899 461.398V461.367Z" fill="#0E141B"/>
<path d="M488.033 423.417C488.804 417.775 496.45 411.146 501.968 412.503C507.24 414.353 513.499 429.12 512.882 435.163C512.358 440.249 506.747 445.49 503.386 445.121C498.639 444.566 487.324 428.442 488.003 423.447L488.033 423.417ZM493.552 424.126C493.244 426.715 501.321 438.955 503.386 439.109C504.99 439.109 507.209 435.872 507.579 434.022C508.103 431.371 502.492 418.391 501.259 417.96C498.762 417.127 493.984 420.981 493.583 424.126H493.552Z" fill="#0E141B"/>
<path d="M541.307 415.647C530.547 416.387 510.446 404.919 509.059 392.741C507.548 379.453 564.398 355.869 571.335 362.035C578.487 368.416 555.18 414.414 541.307 415.647ZM514.917 391.754C514.053 400.633 533.137 412.071 541.029 409.605C548.305 407.354 569.947 369.465 566.464 367.337C560.359 363.607 515.657 384.17 514.917 391.754Z" fill="#0E141B"/>
<path d="M178.753 640.024C178.753 588.015 193.52 559.498 269.915 496.421C295.843 475.025 317.547 457.545 342.95 425.667C346.927 420.673 350.565 423.848 344.214 433.59C328.368 457.853 298.247 477.923 273.245 499.75C199.501 564.029 184.949 585.117 184.949 640.332C184.949 699.062 219.016 720.951 263.441 720.951C302.009 720.951 313.354 706.646 314.371 668.418C315.049 642.984 303.55 613.387 290.478 598.836C280.521 587.768 283.973 586.072 293.592 595.876C309.223 611.815 319.859 640.394 319.612 668.418C319.242 709.082 304.383 726.1 265.229 725.483C209.705 724.589 178.722 697.983 178.722 640.055L178.753 640.024Z" fill="#0E141B"/>
<path d="M570.41 719.132C552.066 710.746 528.944 688.858 517.106 669.528C514.485 665.242 518.986 662.283 522.316 667.616C531.996 683.123 554.471 704.519 572.044 714.6C585.454 722.307 626.612 711.24 629.109 700.11C634.042 665.92 623.652 603.768 607.374 576.638C605.093 572.877 609.933 572.723 610.765 573.925C629.356 600.994 639.437 665.766 633.703 701.035C631.113 711.271 595.597 730.631 570.41 719.101V719.132Z" fill="#0E141B"/>
<path d="M300.498 546.735C291.958 550.157 259.063 544.268 254.316 537.547C250.4 532.029 254.1 519.512 259.31 509.308C259.772 508.414 269.175 500.46 267.202 504.067C264.705 508.599 258.015 528.607 259.495 533.509C260.697 537.424 289.523 545.255 298.063 541.031C306.294 536.962 327.289 493.43 325.192 488.313C323.281 483.627 296.182 484.12 288.197 486.186C286.255 486.679 292.513 480.143 293.623 479.866C303.735 477.368 327.443 477.584 330.927 483.781C336.969 494.633 309.531 543.158 300.498 546.765V546.735Z" fill="#0E141B"/>
<path d="M238.747 645.172C230.978 646.313 199.439 627.137 199.1 617.734C198.853 611.136 213.775 594.828 220.927 592.824C228.08 590.82 255.703 596.122 259.063 603.059C263.379 612 248.304 643.754 238.747 645.141V645.172ZM221.636 597.448C216.549 599.02 204.218 614.096 204.341 617.549C204.557 623.53 231.81 640.486 237.421 640.054C245.498 639.469 257.707 611.66 253.606 605.155C249.938 599.329 225.767 596.184 221.636 597.448Z" fill="#0E141B"/>
<path d="M585.979 654.575C586.071 645.665 599.359 621.526 606.388 620.971C615.914 620.2 621.371 656.795 616.901 666.845C612.338 677.142 585.824 668.757 585.979 654.575ZM591.25 653.28C590.757 662.93 606.973 670.915 612.153 664.81C617.024 659.076 612.276 625.503 606.665 626.12C601.887 626.613 591.651 645.295 591.25 653.311V653.28Z" fill="#0E141B"/>
<path d="M479.833 338.481C473.174 310.858 459.362 294.765 440.834 285.732C408.709 270.071 338.819 271.15 294.024 263.288C282.555 261.284 274.139 257.893 268.374 252.776C261.437 246.641 257.645 238.872 256.042 239.056C254.377 239.241 251.51 249.662 252.127 272.506C252.188 274.51 246.238 275.096 246.454 269.115C247.163 247.905 251.109 234.37 255.21 234C259.618 233.631 263.873 242.509 271.703 248.768C276.79 252.806 284.929 256.013 296.274 258.14C341.686 266.587 408.709 263.381 441.851 279.166C464.726 290.079 481.251 311.66 485.135 337.834C485.505 340.239 480.419 341.04 479.802 338.481H479.833Z" fill="#0E141B"/>
<path d="M250.924 513.346C214.885 497.499 195.061 460.473 195.154 422.029C195.308 358.212 231.964 341.317 213.836 276.175C209.705 261.315 208.256 249.507 211.709 247.627C214.792 245.962 223.332 250.525 235.972 260.945C254.1 275.897 269.73 281.477 294.764 286.842C339.189 296.368 389.225 284.067 415.677 337.926C417.681 341.965 411.33 341.379 409.11 337.464C382.905 291.127 330.927 300.777 290.232 291.343C267.449 286.071 247.78 276.637 233.29 264.367C222.9 255.581 216.365 251.542 214.731 252.59C213.405 253.423 214.268 260.914 218.646 274.541C238.993 337.834 202.368 363.36 201.628 422.06C201.258 451.964 222.006 493.923 255.21 509.677C260.759 512.297 255.795 515.473 250.893 513.315L250.924 513.346Z" fill="#0E141B"/>
<path d="M141.665 442.623C147.183 408.125 168.425 372.055 182.421 341.749C197.312 309.533 197.281 299.513 193.427 289.401C189.666 279.474 188.988 273.801 191.023 271.581C193.982 268.314 202.738 272.445 215.964 281.416C220.773 284.684 222.592 292.669 218.461 289.463C203.108 277.624 195.832 275.219 194.876 275.867C194.013 276.453 196.079 281.57 198.792 287.921C203.046 297.787 203.478 311.136 188.001 344.031C174.837 371.993 155.692 405.628 148.756 444.658C140.277 492.228 165.003 540.414 215.933 547.351C221.975 548.183 217.259 553.054 211.586 552.468C160.964 547.258 132.632 499.226 141.665 442.623Z" fill="#0E141B"/>
<path d="M537.946 529.963C537.391 530.919 539.334 533.447 541.245 535.019C543.033 536.499 545.222 537.732 546.794 535.82C548.305 534.002 545.962 532.398 543.65 531.227C541.276 530.025 538.378 529.254 537.946 529.963Z" fill="#0E141B"/>
<path d="M584.869 525.215C585.824 526.11 583.851 529.501 582.402 531.104C580.768 532.861 578.179 534.464 576.976 533.046C575.774 531.566 578.333 529.038 579.72 527.774C581.015 526.603 584.067 524.476 584.869 525.246V525.215Z" fill="#0E141B"/>
<path d="M631.729 692.526C627.783 693.482 626.519 705.228 627.259 707.17C629.078 710.623 642.304 710.962 643.29 708.064C644.369 704.92 635.676 691.571 631.729 692.526Z" fill="white"/>
<path d="M602.996 714.477C601.362 709.667 598.865 706.893 595.196 706.893C590.726 707.386 586.441 711.733 585.578 716.881C585.485 717.405 585.393 717.93 585.393 718.454C585.393 719.533 586.533 720.889 588.229 722.276C592.638 725.853 600.777 729.429 602.195 728.042C603.798 726.438 604.168 722.739 603.983 719.625C603.89 718.238 603.705 716.943 603.459 716.049C603.305 715.494 603.151 715.001 602.966 714.507L602.996 714.477Z" fill="white"/>
<path d="M617.979 701.406C613.478 701.93 609.101 712.319 610.519 715.834C611.906 719.256 625.009 722.37 627.506 719.749C629.602 717.529 620.847 701.066 617.979 701.406Z" fill="white"/>
<path d="M591.25 709.791C592.761 706.245 584.93 716.111 586.287 718.608C587.643 721.105 600.068 727.887 600.068 727.887C600.068 727.887 586.965 719.749 591.25 709.791Z" fill="#DCDDDD"/>
<path d="M612.276 704.92C610.426 710.007 602.164 718.331 618.997 720.427H623.683C616.346 715.926 612.461 713.491 612.245 704.92" fill="#DCDDDD"/>
<path d="M630.373 694.53C630.589 689.967 625.409 704.025 627.197 707.478C628.461 709.914 642.92 710.993 639.622 709.051C636.354 707.139 629.972 702.453 630.342 694.53H630.373Z" fill="#DCDDDD"/>
<path d="M241.49 721.321C246.207 724.281 252.836 725.791 256.566 724.404C257.029 724.219 257.337 723.849 257.583 723.263C257.953 722.369 258.046 721.043 257.923 719.502C257.553 714.138 254.593 706.06 251.017 704.118C247.564 702.238 243.186 704.457 239.826 707.848C236.619 711.116 235.602 713.521 236.434 715.864C236.558 716.234 236.712 716.573 236.928 716.943C237.883 718.577 239.517 720.057 241.49 721.321Z" fill="white"/>
<path d="M284.528 725.144C286.286 723.695 283.912 703.81 277.068 704.58C268.682 705.505 264.212 715.71 266.678 717.93C268.836 719.872 280.459 728.566 284.528 725.175V725.144Z" fill="white"/>
<path d="M289.985 715.155C290.201 715.71 290.633 716.296 291.188 716.882C292.174 717.899 293.561 718.855 294.887 719.656C296.059 720.365 297.138 720.951 297.847 721.29C299.542 722.123 305.061 723.572 305.893 722.462C308.082 719.564 307.743 714.754 306.14 710.716C305.585 709.359 304.907 708.064 304.105 706.985C302.625 705.012 300.806 703.656 298.926 703.656C294.116 703.594 289.338 709.113 289.739 713.891C289.769 714.292 289.831 714.693 289.924 715.063C289.924 715.063 289.954 715.124 289.985 715.155Z" fill="white"/>
<path d="M242.693 706.615C243.587 713.614 254.686 724.589 250.955 724.25C247.718 723.941 236.835 719.964 236.589 714.97C236.373 710.006 242.693 706.615 242.693 706.615Z" fill="#DCDDDD"/>
<path d="M273.43 704.796C273.43 709.082 277.283 720.859 279.318 725.021C279.318 725.021 271.95 723.109 267.788 720.15C266.647 719.348 266.247 712.843 266.986 711.671L273.43 704.766V704.796Z" fill="#DCDDDD"/>
<path d="M296.49 704.796C296.274 707.725 298.063 717.898 301.7 720.858C304.444 723.109 296.675 719.687 292.76 717.128C291.619 716.388 290.571 712.503 291.28 711.363L296.49 704.796Z" fill="#DCDDDD"/>
<path d="M234.338 715.802C233.598 709.174 243.124 700.573 250.246 701.343C256.042 701.96 261.961 724.804 257.861 726.747C252.404 729.275 234.862 720.643 234.338 715.802ZM239.394 713.86C238.408 716.974 253.514 724.65 255.055 722.461C256.566 718.978 251.448 705.937 248.705 705.814C244.913 705.629 240.72 709.729 239.394 713.86Z" fill="#0E141B"/>
<path d="M263.719 716.666C263.719 710.253 271.549 700.85 278.085 701.96C284.189 703.008 289.43 723.263 286.347 726.377C283.203 729.522 263.78 722.246 263.749 716.666H263.719ZM268.744 715.987C269.854 720.119 281.353 724.034 282.833 722.893C285.176 721.074 280.521 706.369 276.852 706.461C272.104 706.585 267.942 713.151 268.713 715.987H268.744Z" fill="#0E141B"/>
<path d="M289.369 715.063C287.95 709.976 293.284 702.207 299.881 702.3C306.417 702.392 312.121 721.167 307.805 723.664C305.184 725.175 291.188 721.537 289.369 715.063ZM292.914 713.892C293.561 717.098 303.519 722.092 305.893 720.612C307.342 719.718 303.211 705.999 299.604 705.845C295.596 705.66 292.39 710.901 292.883 713.892H292.914Z" fill="#0E141B"/>
<path d="M583.142 718.269C582.741 711.826 589.771 705.198 596.8 705.598C605.154 706.061 607.59 726.778 603.181 729.46C599.359 731.773 583.481 723.603 583.142 718.3V718.269ZM587.212 717.283C587.551 721.198 599.019 727.302 601.517 726.038C603.027 725.268 601.301 710.716 597.447 709.822C592.36 708.65 586.873 713.152 587.212 717.283Z" fill="#0E141B"/>
<path d="M607.652 716.943C605.524 711.671 612.368 699.74 617.794 699.124C623.837 698.415 632.315 717.529 629.386 720.643C626.519 723.664 609.532 721.568 607.682 716.943H607.652ZM611.197 715.001C611.999 718.546 624.793 720.365 626.519 718.3C628.091 716.388 620.384 702.823 617.918 703.162C614.65 703.656 610.426 711.579 611.197 715.001Z" fill="#0E141B"/>
<path d="M624.855 708.342C622.327 704.026 626.858 691.17 631.729 690.461C637.31 689.659 645.88 705.105 644.462 709.082C643.136 712.874 627.29 712.442 624.855 708.311V708.342ZM628.523 706.184C629.417 708.188 639.899 709.359 640.824 707.047C641.903 704.396 635.46 694.314 632.685 694.438C630.034 694.561 627.228 703.286 628.492 706.184H628.523Z" fill="#0E141B"/>
<path d="M413.365 447.894C382.227 511.65 398.073 516.644 435.068 522.563C500.211 533.045 478.045 491.148 471.509 475.918C455.539 438.553 429.488 414.845 413.334 447.894H413.365Z" fill="white"/>
<path d="M611.197 423.323C600.376 425.05 591.22 504.775 606.388 510.663C614.311 513.746 634.196 505.854 636.909 495.742C642.736 473.884 626.18 420.919 611.228 423.323H611.197Z" fill="white"/>
<path d="M433.034 432.881C433.034 432.881 455.848 438.307 458.561 464.296C461.274 490.285 459.485 518.124 453.165 521.978C446.845 525.832 400.262 519.912 398.443 506.132C396.624 492.351 403.314 462.23 409.295 452.55C416.972 440.126 433.034 432.881 433.034 432.881Z" fill="#C7000D"/>
<path d="M619.798 442.591C616.654 437.72 612.43 433.188 606.973 429.181C606.573 430.383 600.9 455.571 600.407 465.313C600.253 468.427 600.561 504.25 603.212 507.518C605.833 510.725 609.07 511.834 612.06 511.927C616.993 512.081 621.278 509.553 621.278 509.553C621.278 509.553 635.09 472.342 619.798 442.622V442.591Z" fill="#C7000D"/>
<path d="M615.729 460.565C614.65 445.582 609.81 435.408 605 434.114C604.538 433.99 599.79 464.45 600.037 474.654C601.085 481.375 605.432 486.986 609.101 486.616C613.201 486.185 617.024 478.2 615.729 460.596V460.565Z" fill="white"/>
<path d="M475.794 444.657C472.773 438.615 469.967 434.699 466.299 430.907C462.476 426.93 463.216 425.019 468.58 428.595C473.698 432.017 478.291 437.628 480.419 443.054C483.224 450.238 479.432 451.964 475.794 444.657Z" fill="#0E141B"/>
<path d="M589.431 439.724C589.863 433.99 591.99 427.516 593.532 424.525C595.844 420.086 598.865 419.069 596.769 425.604C595.104 430.722 594.179 435.532 593.316 440.372C592.329 445.859 589.031 445.52 589.462 439.724H589.431Z" fill="#0E141B"/>
<path d="M604.106 512.174C589.185 503.418 596.337 424.865 611.074 420.302C626.519 415.524 648.686 473.02 638.697 497.807C633.795 510.047 610.734 516.058 604.106 512.174ZM606.172 507.796C610.21 511.434 630.188 504.374 633.672 496.297C641.965 477.09 623.96 424.433 612.677 426.715C601.609 428.965 595.906 498.547 606.172 507.796Z" fill="#0E141B"/>
<path d="M619.613 507.026C629.109 486.092 623.714 440.403 608.207 430.168C605.062 428.102 609.07 425.451 610.18 426.037C629.109 435.717 634.967 486.308 625.409 505.083C624.515 506.871 616.5 513.901 619.613 507.056V507.026Z" fill="#0E141B"/>
<path d="M395.853 508.845C387.838 486.524 409.881 432.758 432.14 429.952C455.046 427.085 492.781 492.813 480.48 517.415C472.095 534.217 401.279 523.889 395.853 508.814V508.845ZM400.478 505.238C404.671 517.662 466.946 526.726 474.468 515.535C487.386 496.328 448.942 431.525 430.937 436.488C412.44 441.606 395.514 490.563 400.478 505.238Z" fill="#0E141B"/>
<path d="M450.298 521.268C461.952 498.023 459.455 454.152 442.591 438.769C431.924 429.057 446.629 434.699 452.765 443.516C465.374 461.644 467.378 499.071 457.42 521.731C454.768 527.742 449.065 523.735 450.298 521.268Z" fill="#0E141B"/>
<path d="M436.178 466.578C436.178 480.697 431.523 492.104 425.758 492.104C419.993 492.104 416.108 481.345 416.108 467.256C416.108 453.167 421.103 441.267 426.837 441.267C432.571 441.267 436.178 452.489 436.178 466.578Z" fill="white"/>
</g>
<defs>
<clipPath id="clip0_42_58100">
<rect width="520" height="505.356" fill="white" transform="translate(140 234)"/>
</clipPath>
</defs>
</svg>
