<svg width="800" height="800" viewBox="0 0 800 800" fill="none" xmlns="http://www.w3.org/2000/svg">
<g clip-path="url(#clip0_42_67523)">
<path d="M639.629 568.774C598.636 659.83 506.457 722.817 400 722.817C254.594 722.817 136.708 604.932 136.708 459.525C136.708 441.792 138.464 424.461 141.803 407.707C141.803 407.707 202.805 528.097 348.183 568.4C493.561 608.703 580.643 593.589 639.629 568.746V568.774Z" fill="#EFEFEF"/>
<path d="M639.629 568.773C641.385 567.996 663.292 521.446 663.292 459.552C663.263 314.145 545.407 196.26 400 196.26C272.326 196.26 165.869 287.143 141.803 407.734C141.803 407.734 182.653 507.973 328.75 561.23C474.848 614.488 589.193 591.429 639.629 568.773Z" fill="#E60044"/>
<path d="M365.167 494.933C360.734 498.388 360.993 510.882 363.584 514.336C367.902 520.094 429.277 534.113 445.571 536.042C476.835 539.727 480.836 541.944 493.071 520.698C502.197 504.865 521.369 457.365 521.369 457.365C474.359 459.294 383.649 480.539 365.138 494.933H365.167Z" fill="white"/>
<path d="M289.398 466.78C291.442 468.593 285.483 481.461 278.804 479.907C272.557 478.467 231.563 464.073 227.245 443.922C222.927 423.771 217.17 391.615 221.977 364.756C232.686 388.247 243.712 426.218 289.398 466.78Z" fill="white"/>
<path d="M283.41 695.813C283.41 695.813 461.894 787.934 600.075 631.041C616.858 611.983 629.755 591.314 639.543 570.068C616.973 578.244 595.181 585.383 570.856 587.139C501.42 671.43 392.372 715.216 283.41 695.842V695.813Z" fill="#C9CACA"/>
<path d="M644.696 356.119C649.158 447.98 619.881 527.636 570.855 587.111C595.181 585.384 616.973 578.216 639.543 570.04C678.061 486.354 667.266 393.744 644.696 356.09V356.119Z" fill="#C7003A"/>
<path d="M253.355 422.906C252.808 426.246 252.549 430.305 252.463 434.709C252.262 446.109 253.586 455.292 257.443 455.436C261.301 455.552 262.942 446.282 263.143 434.911C263.143 434.853 263.143 434.796 263.143 434.738C259.89 431.283 256.637 427.512 253.355 422.906Z" fill="#0E141B"/>
<path d="M255.256 430.621C255.14 431.456 255.083 432.32 255.054 433.241C254.968 437.991 256.206 441.935 258.134 441.906C259.43 441.906 260.437 440.207 261.013 437.674C259.084 435.515 257.184 433.183 255.256 430.621Z" fill="white"/>
<path d="M435.582 482.065C432.271 492.975 431.091 502.216 435.063 503.483C439.036 504.749 443.268 496.314 446.578 485.433C449.889 474.522 451.271 467.584 447.183 466.404C443.095 465.224 438.892 471.154 435.582 482.065Z" fill="#0E141B"/>
<path d="M439.727 475.731C438.345 480.28 438.518 484.425 440.562 485.001C442.577 485.577 445.024 482.323 446.406 477.775C447.788 473.227 447.557 469.11 445.6 468.505C443.642 467.901 441.138 471.183 439.756 475.731H439.727Z" fill="white"/>
<path d="M130 459.553C130 608.414 251.11 727.106 400 727.106C548.89 727.106 670 608.443 670 459.553C670 310.663 548.861 192 400 192C251.139 192 130 310.663 130 459.553ZM140.479 459.553C140.479 316.449 256.896 200.032 400 200.032C543.104 200.032 659.521 316.449 659.521 459.553C659.521 602.657 543.104 719.074 400 719.074C256.896 719.074 140.479 602.657 140.479 459.553Z" fill="#0E141B"/>
<path d="M139.068 406.613C181.616 493.609 262.625 544.477 342.108 571.365C451.501 608.357 573.849 604.24 641.471 570.444C642.68 569.839 641.298 563.016 640.089 563.621C568.811 599.26 446.434 598.252 343.691 563.477C259.257 534.919 183.372 481.95 144.682 402.841C144.077 401.632 138.463 405.404 139.068 406.613Z" fill="#0E141B"/>
<path d="M354.775 448.182C350.6 458.085 349.075 469.37 348.758 479.676C348.384 492.083 351.435 492.314 353.594 480.367C355.379 470.55 357.049 459.496 359.755 449.852C362.864 438.855 359.208 437.617 354.746 448.182H354.775Z" fill="#0E141B"/>
<path d="M393.35 384.072C383.044 389.657 372.45 397.775 368.362 401.662C362.029 407.65 356.789 418.647 353.133 433.443C349.765 447.031 352.097 448.183 357.279 435.257C364.044 418.416 368.708 410.557 372.652 406.728C376.826 402.669 387.362 393.63 395.336 388.247C408.982 379.035 407.657 376.329 393.379 384.044L393.35 384.072Z" fill="#0E141B"/>
<path d="M533.863 453.393C462.527 456.819 412.696 470.32 365.11 490.788C351.205 496.776 352.472 501.583 366.52 496.315C421.217 475.761 478.764 462.979 533.777 459.122C550.589 457.941 550.56 452.587 533.834 453.393H533.863Z" fill="#0E141B"/>
<path d="M516.533 457.395C516.389 457.855 504.759 498.964 489.472 523.549C480.203 538.49 484.377 540.735 494.251 525.852C511.783 499.425 524.968 459.525 525.601 457.654C526.033 456.358 516.965 456.099 516.562 457.395H516.533Z" fill="#0E141B"/>
<path d="M365.916 517.618C391.191 529.651 431.696 538.489 468.314 540.072C483.082 540.705 483.773 535.351 469.293 534.401C430.573 531.925 392.775 523.893 368.248 513.731C356.128 508.722 354.055 511.975 365.916 517.618Z" fill="#0E141B"/>
<path d="M214.117 350.333C225.892 397.459 261.761 449.708 290.319 470.378C297.17 475.329 297.516 476.251 298.206 464.937C298.984 452.76 301.431 441.993 304.425 431.342C308.743 415.998 304.194 416.458 299.559 429.269C295.155 441.446 293.025 453.94 293.399 465.282C263.344 442.137 232.254 391.471 218.983 348.088C214.492 333.435 210.864 337.379 214.089 350.304L214.117 350.333Z" fill="#0E141B"/>
<path d="M219.357 360.35C215.673 387.727 215.298 425.209 227.85 450.83C233.06 461.51 257.645 474.724 271.434 479.704C282.374 483.677 283.209 481.345 272.672 475.962C259.171 469.053 237.58 457.451 233.463 449.074C222.87 427.454 222.351 388.39 224.77 370.512C224.942 369.159 219.559 358.997 219.386 360.35H219.357Z" fill="#0E141B"/>
</g>
<defs>
<clipPath id="clip0_42_67523">
<rect width="540" height="535.106" fill="white" transform="translate(130 192)"/>
</clipPath>
</defs>
</svg>
