<svg width="800" height="800" viewBox="0 0 800 800" fill="none" xmlns="http://www.w3.org/2000/svg">
<g clip-path="url(#clip0_42_67544)">
<path d="M697.379 329.371C702.208 350.884 704.072 377.225 704.072 400.169C704.072 568.107 567.937 704.242 400 704.242C232.063 704.242 107.883 579.729 96.6935 421.981C96.6935 421.981 231.13 503.669 436.498 467.038C641.866 430.407 697.346 329.404 697.346 329.404L697.379 329.371Z" fill="#E60044"/>
<path d="M695.148 329.372C664.711 193.603 544.96 96.0977 400 96.0977C232.063 96.0977 95.9276 232.233 95.9276 400.17C95.9276 407.496 96.194 414.756 96.6935 421.982C96.6935 421.982 215.612 502.538 433.168 468.138C625.981 437.634 690.585 340.062 695.148 329.372Z" fill="#EFEFEF"/>
<path d="M293.869 520.852C293.869 520.852 347.151 602.44 464.271 587.454C581.391 572.469 595.811 454.25 595.811 454.25C543.095 488.117 445.389 528.079 293.869 520.852Z" fill="white"/>
<path d="M301.662 533.041C382.817 551.456 537.334 529.278 592.614 472.932L595.811 454.783C545.293 490.315 410.423 536.438 294.435 519.72L301.662 533.041Z" fill="#DCDDDD"/>
<path d="M136.821 247.217C105.319 299.4 91.8649 359.808 95.6279 419.284C116.474 429.307 137.188 438.532 156.902 449.355C136.422 386.948 129.861 318.082 136.788 247.25L136.821 247.217Z" fill="#C9CACA"/>
<path d="M426.541 703.442C284.445 662.481 195.698 567.54 156.935 449.321C137.221 438.498 116.508 429.274 95.6612 419.25C104.919 565.475 218.642 705.906 426.574 703.408L426.541 703.442Z" fill="#C7003A"/>
<path d="M90 400.169C90 571.104 229.065 707.339 400 707.339C570.935 707.339 710 571.104 710 400.169C710 229.235 570.935 93 400 93C229.065 93 90 229.235 90 400.169ZM101.789 400.169C101.789 235.729 235.559 101.958 400 101.958C564.441 101.958 698.211 235.729 698.211 400.169C698.211 564.61 564.441 698.381 400 698.381C235.559 698.381 101.789 564.61 101.789 400.169Z" fill="#0E141B"/>
<path d="M693.483 327.973C641.866 397.606 545.093 448.79 424.476 465.873C294.336 484.289 158.567 460.045 99.2577 414.856C98.0256 413.923 94.5956 421.716 95.8277 422.648C158.234 470.235 296.767 492.98 425.276 474.798C547.391 457.514 643.598 408.029 696.113 337.164C697.046 335.899 694.415 326.741 693.483 327.973Z" fill="#0E141B"/>
<path d="M613.127 267.497C599.307 239.991 577.928 217.912 563.342 219.211C547.557 220.609 523.614 261.969 512.591 310.922C508.994 326.907 515.155 325.541 519.817 309.357C534.004 259.971 555.549 230.3 563.841 229.567C574.997 228.568 593.812 246.051 608.731 273.325C616.79 288.077 621.319 283.748 613.127 267.497Z" fill="#0E141B"/>
<path d="M435.199 274.324C436.398 292.04 436.698 311.954 435.566 318.314C434.433 324.642 431.536 332.567 428.273 340.493C422.911 353.614 425.276 357.11 434.433 342.658C438.796 335.798 443.391 324.342 443.957 319.313C444.823 311.321 444.057 288.41 441.793 273.857C438.896 255.176 434.167 259.305 435.199 274.324Z" fill="#0E141B"/>
<path d="M410.124 314.751C361.87 272.059 300.929 241.789 279.383 246.617C256.339 251.812 230.664 295.936 217.743 327.605C211.549 342.791 216.244 345.954 225.436 328.571C241.52 298.201 264.764 261.836 280.616 258.273C300.829 253.744 359.373 281.084 406.96 320.945C424.376 335.531 427.374 330.036 410.124 314.751Z" fill="#0E141B"/>
<path d="M320.61 390.679C321.576 403.1 323.108 413.091 329.002 412.624C334.896 412.158 334.863 402.035 333.897 389.647C332.932 377.225 331.1 367.268 325.505 367.701C319.911 368.134 319.644 378.291 320.61 390.679Z" fill="#0E141B"/>
<path d="M525.312 364.971C526.245 376.759 527.577 386.284 532.472 385.884C537.367 385.518 537.234 375.894 536.335 364.105C535.436 352.316 533.804 342.826 529.175 343.192C524.546 343.558 524.413 353.182 525.312 364.971Z" fill="#0E141B"/>
<path d="M598.641 448.189C526.511 500.672 399.267 525.514 288.042 516.223C261.268 513.992 259.769 521.784 286.044 524.082C392.041 533.34 521.815 512.96 602.038 454.583C619.554 441.829 616.124 435.435 598.641 448.156V448.189Z" fill="#0E141B"/>
<path d="M591.748 457.748C584.122 498.075 555.45 555.953 486.117 578.764C422.112 599.844 335.929 573.169 299.431 520.753C298.532 519.455 285.544 520.354 286.443 521.653C319.411 568.973 403.497 610.766 487.449 585.557C559.113 564.045 595.011 505.768 601.339 452.52C601.538 450.954 592.081 456.183 591.781 457.748H591.748Z" fill="#0E141B"/>
<path d="M403.73 561.313C405.928 573.668 408.625 587.788 408.625 587.788C408.991 589.319 417.083 590.285 416.717 588.753C416.717 588.753 412.455 571.603 409.624 558.849C406.46 544.663 401.066 546.095 403.763 561.313H403.73Z" fill="#0E141B"/>
<path d="M462.24 571.138C463.805 579.23 466.003 587.788 466.003 587.788C466.369 589.32 472.996 588.321 472.63 586.822C472.63 586.822 470.432 578.231 467.701 569.672C463.705 556.985 459.775 558.317 462.24 571.138Z" fill="#0E141B"/>
</g>
<defs>
<clipPath id="clip0_42_67544">
<rect width="620" height="614.339" fill="white" transform="translate(90 93)"/>
</clipPath>
</defs>
</svg>
