<svg width="800" height="800" viewBox="0 0 800 800" fill="none" xmlns="http://www.w3.org/2000/svg">
<g clip-path="url(#clip0_42_67563)">
<path d="M460.613 322.229C457 322.91 453.78 323.302 450.662 323.302C447.111 327.245 443.106 332.53 440.546 337.217C435.117 342.749 426.9 349.046 420.335 354.187C418.911 357.428 417.569 360.194 415.855 362.775C413.378 359.534 411.664 356.003 409.951 351.606C398.121 349.314 382.762 343.121 374.462 338.166C371.324 335.503 365.296 330.053 360.816 325.573C360.919 323.281 360.899 321.093 361.105 319.173C358.009 319.421 354.767 319.049 351.856 317.811C341.513 327.803 333.049 341.284 327.434 358.377C334.246 369.071 339.614 381.231 342.793 394.63C346.592 410.588 347.397 425.39 345.808 438.747C360.878 425.452 379.52 417.194 400.97 416.761C422.565 416.327 443.23 425.184 460.468 439.986C466.166 423.801 474.094 408.193 483.673 394.341C484.127 365.273 475.126 338.331 460.634 322.249L460.613 322.229Z" fill="#FADBDA"/>
<path d="M361.085 319.192C360.899 321.092 360.899 323.301 360.796 325.592C365.276 330.072 371.283 335.522 374.442 338.185C382.741 343.14 398.101 349.354 409.93 351.625C411.644 356.002 413.357 359.532 415.835 362.794C417.548 360.213 418.89 357.447 420.314 354.206C426.9 349.045 435.096 342.769 440.526 337.236C443.106 332.57 447.091 327.264 450.642 323.321C453.78 323.321 457 322.929 460.592 322.248C456.484 317.685 451.963 313.948 447.07 311.327C447.338 312.669 447.545 314.919 447.504 316.426C446.616 318.098 445.997 319.399 444.593 320.596C437.615 322.475 427.251 322.413 419.324 322.062C417.445 321.484 414.74 320.245 413.378 319.461C406.565 312.049 401.135 305.567 396.367 299.188C389.12 302.718 382.431 307.383 376.713 312.07C374.05 309.881 372.13 308.065 369.941 304.824C363.459 308.147 357.369 312.503 351.815 317.871C354.726 319.11 357.947 319.481 361.064 319.234L361.085 319.192Z" fill="#D8BEBD"/>
<path d="M506.63 542.28C506.63 614 468.458 666.665 403.427 666.665C338.396 666.665 303.465 614.496 303.465 542.095C303.465 479.293 341.369 417.978 400.95 416.76C456.856 415.604 506.63 476.733 506.63 542.28Z" fill="#FADBDA"/>
<path d="M342.752 394.628C357.74 457.698 326.36 502.662 283.233 512.902C233.851 524.628 190.683 496.696 176.397 436.599C162.007 376.069 190.435 321.236 234.78 310.687C274.377 301.273 328.92 336.39 342.752 394.628Z" fill="#FADBDA"/>
<path d="M506.155 531.441C535.615 504.582 573.622 494.57 605.271 506.833C608.76 508.175 612.104 509.929 615.304 512.035C655.912 441.327 636.816 366.18 595.692 347.538C539.104 321.897 482.765 376.564 460.448 439.964C485.387 461.373 503.141 495.21 506.155 531.441Z" fill="#FADBDA"/>
<path d="M564.786 456.316C556.632 452.662 546.309 451.279 533.014 452.208C551.636 457.906 571.331 467.093 584.75 475.784C579.816 466.804 573.54 460.239 564.786 456.316Z" fill="#EE869A"/>
<path d="M374.029 337.815C374.153 337.919 374.318 338.063 374.442 338.166C382.741 343.121 398.101 349.335 409.93 351.606C411.644 355.983 413.357 359.513 415.835 362.775C417.548 360.194 418.89 357.428 420.314 354.187C426.735 349.149 434.683 343.038 440.133 337.609C424.443 325.057 391.763 325.016 374.029 337.815Z" fill="#FFE100"/>
<path d="M183.849 415.129C185.749 424.77 193.573 442.875 197.103 443.846C201.976 445.167 222.641 441.761 228.483 436.125C214.466 427.247 195.679 418.948 183.849 415.15V415.129Z" fill="white"/>
<path d="M249.376 431.252C264.054 432.305 290.232 424.439 292.771 420.29C296.301 414.571 293.824 390.912 286.082 381.932C273.757 387.857 255.755 412.362 249.355 431.252H249.376Z" fill="white"/>
<path d="M387.262 402.948C378.653 406.458 367.319 408.46 363.583 407.077C359.061 405.384 353.652 390.479 351.753 382.221C365.441 385.916 378.509 390.85 391.866 395.826C395.706 397.25 396.139 399.315 387.242 402.948H387.262Z" fill="white"/>
<path d="M420.872 397.665C417.218 401.216 415.979 405.861 429.894 407.43C437.512 408.297 451.901 408.4 453.924 407.76C455.968 407.12 462.616 386.95 462.409 374.377C459.932 373.841 457.496 374.398 454.585 375.781C441.29 381.995 428.077 390.707 420.892 397.665H420.872Z" fill="white"/>
<path d="M331.687 504.914C331.17 514.328 333.194 540.671 337.219 544.862C340.894 548.66 361.787 551.179 374.69 551.179C384.847 551.179 389.657 547.896 385.26 544.49C370.912 533.404 354.705 520.625 331.687 504.935V504.914Z" fill="white"/>
<path d="M412.057 544.077C406.999 549.073 408.32 553.099 420.232 552.025C440.01 550.25 461.872 544.387 465.444 539.143C468.995 533.92 471.823 512.346 471.513 497.275C467.735 497.585 462.863 499.711 459.271 502.726C445.356 514.349 419.282 536.955 412.077 544.056L412.057 544.077Z" fill="white"/>
<path d="M518.109 398.635C522.527 409.866 530.413 417.339 541.52 416.947C552.627 416.554 562.516 411.62 564.663 400.637C560.017 402.351 553.06 400.059 541.231 399.873C534.748 399.77 524.715 399.316 518.088 398.635H518.109Z" fill="white"/>
<path d="M596.001 417.998C594.474 427.722 596.868 439.551 602.876 444.712C608.884 449.874 619 449.874 627.774 444.712C627.774 442.049 624.883 438.085 621.477 435.938C612.703 430.406 605.064 424.976 596.001 417.998Z" fill="white"/>
<path d="M563.527 464.615C566.5 463.624 569.968 462.468 575.233 463.789C568.255 455.759 554.485 450.969 534.996 451.877C547.011 456.915 556.425 460.961 563.527 464.615Z" fill="#CF7487"/>
<path d="M303.899 536.851C334.866 647.197 468.933 644.265 506.651 536.107C510.573 607.373 469.738 672.28 395.561 666.851C331.914 662.185 299.976 605.164 303.899 536.851Z" fill="#D8BEBD"/>
<path d="M466.91 424.439C483.446 477.992 582.727 500.639 633.244 469.28C629.982 479.499 622.674 499.607 615.82 512.386C588.528 494.301 543.46 497.088 506.011 531.565C503.967 500.288 485.696 459.432 460.117 439.572C461.934 434.328 464.102 429.869 466.91 424.439Z" fill="#D8BEBD"/>
<path d="M477.5 404.126C465.382 413.581 450.58 419.981 434.848 423.491C443.437 427.124 452.871 433.07 460.138 439.553C464.845 427.599 468.768 418.392 477.5 404.105V404.126Z" fill="#D8BEBD"/>
<path d="M345.023 439.511C346.055 431.212 346.654 421.343 345.498 411.971C353.673 416.719 362.261 420.229 372.109 422.727C363.376 425.927 352.6 431.852 345.023 439.511Z" fill="#D8BEBD"/>
<path d="M175.509 432.802C216.799 504.418 308.957 489.41 346.159 415.006C346.448 423.635 347.026 432.533 346.159 438.871C331.212 451.526 315.687 473.947 308.503 502.684C253.03 535.158 186.554 502.292 175.509 432.802Z" fill="#D8BEBD"/>
<path d="M383.381 332.632C393.538 344.11 421.532 345.803 435.653 334.345L439.948 337.318C434.559 342.19 424.753 350.861 420.542 353.69C418.89 357.901 417.651 360.275 415.876 362.505C413.171 359.346 410.942 355.197 409.889 351.852C398.245 349.354 382.596 343.161 374.566 338.227C376.61 336.389 380.078 333.995 383.381 332.611V332.632Z" fill="#DDC300"/>
<path d="M365.131 529.377C365.709 532.887 364.636 536.376 363.087 536.376C360.94 536.376 359.846 530.802 361.849 526.982C362.943 527.705 363.934 528.345 365.131 529.377Z" fill="#0E141B"/>
<path d="M433.3 531.483C433.3 534.89 432.226 536.355 431.091 536.355C429.955 536.355 429.047 534.704 429.047 531.525C429.047 528.965 430.079 527.086 431.256 527.086C432.371 527.086 433.3 528.717 433.3 531.483Z" fill="#0E141B"/>
<path d="M217.893 433.916C219.276 436.29 219.544 438.375 218.863 438.747C217.996 439.222 216.509 438.355 215.147 436.001C214.053 434.102 213.722 431.707 214.466 431.274C215.085 430.923 216.551 431.583 217.893 433.916Z" fill="#0E141B"/>
<path d="M286.929 411.476C287.465 414.676 287.053 416.967 285.917 417.153C285.071 417.297 283.522 415.666 282.986 412.467C282.449 409.246 282.986 406.81 283.956 406.645C284.906 406.48 286.392 408.379 286.929 411.476Z" fill="#0E141B"/>
<path d="M549.22 403.238C548.869 405.529 547.775 406.603 546.516 406.417C545.401 406.252 544.699 404.58 545.009 402.618C545.298 400.657 546.247 399.295 547.651 399.501C548.745 399.666 549.509 401.297 549.2 403.238H549.22Z" fill="#0E141B"/>
<path d="M612.992 433.379C612.352 435.67 611.32 436.702 610.411 436.455C609.503 436.207 609.193 434.204 609.73 432.264C610.329 430.117 611.361 429.043 612.269 429.291C613.178 429.539 613.529 431.417 612.971 433.379H612.992Z" fill="#0E141B"/>
<path d="M375.928 396.033C375.928 398.221 375.247 399.46 374.318 399.46C373.471 399.46 372.604 398.18 372.604 395.992C372.604 393.617 373.244 392.565 374.132 392.482C374.999 392.399 375.928 393.824 375.928 396.012V396.033Z" fill="#0E141B"/>
<path d="M442.425 391.119C442.425 393.762 441.475 394.939 440.505 394.939C439.7 394.939 438.75 393.576 438.75 391.14C438.75 388.147 439.679 386.743 440.567 386.784C441.723 386.825 442.425 388.787 442.425 391.119Z" fill="#0E141B"/>
<path d="M403.427 669.555C333.049 669.555 300.719 614.764 300.719 542.135C300.719 476.609 340.873 415.769 400.826 414.53C457.847 413.436 509.252 474.194 509.252 542.156C509.252 621.06 465.815 669.534 403.406 669.534L403.427 669.555ZM401.053 418.989C340.832 420.228 306.025 484.805 306.025 542.156C306.025 617.984 341.451 663.836 403.551 663.836C465.65 663.836 503.575 617.447 503.575 542.548C503.575 475.556 453.222 417.937 401.053 418.989Z" fill="#0E141B"/>
<path d="M347.48 460.898C358.194 457.203 366.741 449.936 372.893 439.242C375.02 432.532 378.571 424.584 381.564 419.258L386.787 418.246C382.927 424.914 378.922 433.317 376.692 440.068C376.465 440.77 376.279 441.162 375.99 441.657C369.384 452.867 359.701 460.981 348.553 464.408C345.209 472.273 341.513 480.036 336.29 487.571C332.285 493.331 330.221 492.299 333.999 486.105C338.871 478.137 341.72 471.53 345.064 462.942C345.56 461.683 345.952 461.414 347.459 460.898H347.48Z" fill="#0E141B"/>
<path d="M375.391 437.9C378.013 441.348 380.986 445.456 382.72 448.45C384.909 450.04 387.056 451.072 389.141 451.959C390.689 452.62 390.916 452.785 391.082 454.643C391.474 458.937 392.671 464.346 394.591 467.608C398.101 473.575 396.511 474.38 392.465 469.095C389.678 465.461 388.088 459.681 387.716 455.263C385.218 454.148 383.071 453.054 381.028 451.753C379.975 451.092 379.809 450.741 379.19 449.73C377.704 447.273 376.011 444.796 373.699 441.947L375.391 437.9Z" fill="#0E141B"/>
<path d="M390.648 541.949C390.648 540.339 390.565 538.852 390.462 537.077C390.256 533.712 392.981 533.567 393.167 536.953C393.27 538.873 393.105 540.855 392.898 542.156C392.258 545.872 390.648 545.624 390.648 541.949Z" fill="#0E141B"/>
<path d="M385.487 545.996C366.225 532.68 347.81 518.848 332.863 508.278C330.262 506.441 329.065 505.698 326.732 505.161C322.293 504.108 322.355 501.94 326.918 502.229C329.498 502.395 331.583 503.158 334.577 505.12C350.535 515.587 368.826 529.666 387.035 543.932C391.061 547.07 389.327 548.659 385.487 546.017V545.996Z" fill="#0E141B"/>
<path d="M335.32 546.367C332.925 543.271 330.881 527.828 330.262 515.38C330.014 510.219 332.574 509.991 333.132 515.132C334.659 529.232 337.508 541.578 338.954 543.457C341.348 546.533 362.427 549.216 374.38 549.671C380.057 549.877 380.078 551.797 374.462 552.272C362.138 553.304 338.726 550.785 335.32 546.367Z" fill="#0E141B"/>
<path d="M411.602 542.878C429.935 525.124 444.448 512.056 459.044 501.197C463.4 497.976 467.529 496.077 472.071 495.974C477.046 495.85 477.211 498.182 472.319 498.946C468.417 499.545 465.444 500.598 461.129 504.066C446.74 515.586 431.277 528.386 413.398 544.778C409.125 548.7 407.184 547.193 411.623 542.899L411.602 542.878Z" fill="#0E141B"/>
<path d="M420.686 552.83C415.257 552.83 415.257 550.786 420.665 550.228C437.099 548.556 455.927 543.767 463.152 538.585C465.919 536.603 468.375 523.679 469.779 508.031C470.378 501.342 472.897 501.61 472.711 508.32C472.195 525.868 470.089 539.39 465.981 542.342C458.28 547.875 437.945 552.582 420.727 552.83C420.727 552.83 420.707 552.83 420.686 552.83Z" fill="#0E141B"/>
<path d="M404.666 602.666C387.613 599.775 369.652 592.735 354.375 583.714C350.927 581.67 349.751 579.915 349.4 576.818C348.884 572.38 351.464 571.74 352.806 575.993C353.405 577.892 353.921 578.738 356.605 580.328C371.634 589.205 388.728 595.811 405.223 599.858C413.089 601.778 412.8 604.049 404.686 602.686L404.666 602.666Z" fill="#0E141B"/>
<path d="M342.36 441.926C344.507 427.805 343.867 412.053 339.862 395.227C326.236 337.897 272.808 303.441 235.234 312.793C193.47 323.177 164.65 375.904 178.915 435.918C193.243 496.18 236.184 521.16 282.449 510.177C292.606 507.762 301.855 503.509 309.927 497.687L307.966 505.718C300.637 510.177 292.523 513.542 283.77 515.607C233.459 527.56 188.288 498.451 173.713 437.157C159.427 377.06 187.669 319.502 234.326 308.54C275.285 298.919 331.253 334.717 345.353 393.988C348.946 409.08 349.937 423.387 348.698 436.558L342.36 441.946V441.926Z" fill="#0E141B"/>
<path d="M225.8 436.496C215.353 430.199 197.805 422.086 182.219 416.429C175.984 414.158 177.099 410.855 183.375 413.023C198.796 418.37 216.922 427.041 226.316 433.296C225.82 430.901 225.201 428.94 224.189 426.814C222.084 422.458 223.88 421.405 226.44 425.513C228.05 428.094 229.165 431.583 229.598 434.617C230.073 437.962 228.607 438.189 225.82 436.496H225.8Z" fill="#0E141B"/>
<path d="M195.638 445.911C192.83 444.59 188.453 434.494 186.203 427.31C184.51 421.901 187.049 421.075 189.031 426.381C191.529 433.132 196.071 440.915 197.661 441.699C199.106 442.422 211.782 441.596 220.597 438.747C224.747 437.405 225.511 439.305 221.567 441.163C212.257 445.539 198.239 447.129 195.658 445.932L195.638 445.911Z" fill="#0E141B"/>
<path d="M249.417 427.846C256.271 409.431 271.796 386.391 286.062 380.033C291.532 377.597 293.019 380.611 287.651 383.212C274.088 389.756 259.141 411.289 251.853 428.754C250.016 433.152 247.704 432.45 249.417 427.846Z" fill="#0E141B"/>
<path d="M265.912 428.363C276.235 425.659 288.89 420.952 290.934 418.681C291.987 417.525 292.544 415.543 292.73 412.529C293.06 406.934 295.558 407.079 295.868 412.673C296.116 417.071 295.579 420.043 294.32 421.798C292.565 424.276 277.948 428.59 266.428 430.903C260.008 432.183 259.616 430.015 265.912 428.363Z" fill="#0E141B"/>
<path d="M287.486 381.252C290.356 384.679 292.214 389.056 293.494 394.754C295.001 401.504 292.668 402.165 290.748 395.662C289.22 390.501 286.846 385.959 284.245 382.965L287.507 381.252H287.486Z" fill="#0E141B"/>
<path d="M265.438 401.524C262.609 392.11 263.208 378.154 265.272 369.69C263.992 363.6 262.568 358.129 260.792 352.493C260.421 351.275 260.441 350.862 260.854 349.747C263.167 343.389 268.121 334.243 272.003 328.277C270.434 326.439 268.452 325.139 266.573 324.891C263.848 324.54 262.031 323.797 259.595 322.187C254.434 318.78 255.384 317.17 260.896 319.936C262.981 320.989 264.694 321.485 267.068 321.856C269.505 322.249 272.601 323.859 274.872 326.316C276.111 327.657 276.173 328.091 275.12 329.743C271.301 335.668 266.738 344.462 264.281 351.172C266.078 356.87 267.502 362.361 268.803 368.451C268.988 369.36 268.988 370.103 268.803 370.888C267.048 378.444 266.511 389.034 268.596 397.602L265.417 401.504L265.438 401.524Z" fill="#0E141B"/>
<path d="M277.226 388.023C275.141 386.826 273.179 385.236 271.59 383.089C270.268 382.263 268.555 381.499 265.603 380.653L265.995 377.061C268.988 377.907 271.321 378.815 272.952 379.703C273.592 380.054 274.232 380.632 274.831 381.355C276.276 383.089 277.928 384.389 280.178 385.546L277.205 388.023H277.226Z" fill="#0E141B"/>
<path d="M240.375 471.841C246.424 464.863 257.221 463.645 271.775 468.517C277.081 470.293 276.338 472.646 270.908 471.201C257.448 467.588 248.013 468.806 242.604 474.215C239.549 477.27 237.299 475.371 240.354 471.861L240.375 471.841Z" fill="#0E141B"/>
<path d="M612.992 510.529C654.715 437.674 632.047 366.491 594.701 349.562C543.047 326.13 486.171 374.047 462.492 441.741L458.177 438.128C481.918 370.97 540.343 320.061 596.538 345.516C640.553 365.458 658.039 443.495 617.678 513.688L612.992 510.508V510.529Z" fill="#0E141B"/>
<path d="M557.23 402.392C543.564 401.133 528.823 402 517.882 400.142C511.853 399.11 512.266 396.157 518.336 396.818C528.534 397.933 543.192 397.85 557.623 399.461C561.772 399.935 564.807 399.667 568.069 398.676C572.177 397.417 572.879 399.048 568.998 400.864C565.86 402.33 561.483 402.784 557.23 402.392Z" fill="#0E141B"/>
<path d="M541.21 418.949C531.858 419.032 522.94 414.036 519.657 405.22C518.026 400.864 520.276 399.977 522.465 404.085C526.181 411.042 532.994 415.027 541.251 414.965C550.769 414.882 556.136 412.095 561.401 405.778C563.981 402.702 565.633 403.734 563.568 407.223C558.799 415.213 551.677 418.887 541.21 418.97V418.949Z" fill="#0E141B"/>
<path d="M626.948 446.675C626.308 443.021 625.399 441.101 621.91 438.52C615.717 433.937 604.548 427.021 595.692 419.713C592.099 416.761 590.386 412.921 591.356 409.122C592.203 405.819 594.102 406.314 593.606 409.7C593.173 412.632 594.474 415.212 597.364 417.421C606.406 424.399 617.286 430.634 623.83 435.774C627.753 438.851 629.487 442.112 629.838 446.427C630.21 450.804 627.691 450.948 626.948 446.675Z" fill="#0E141B"/>
<path d="M603.144 447.459C597.612 443.64 594.35 436.043 594.412 425.576C594.432 421.24 596.703 421.178 597.013 425.514C597.673 434.907 600.233 441.059 605.044 444.404C609.647 447.583 615.16 447.769 622.179 445.58C626.225 444.321 627.319 446.571 623.438 448.264C615.923 451.526 608.409 451.113 603.144 447.48V447.459Z" fill="#0E141B"/>
<path d="M625.585 377.143C625.668 381.85 626.039 386.97 626.37 390.604C626.452 391.595 626.452 392.132 626.246 393.164C625.626 396.157 624.367 401.917 623.81 404.642C624.305 408.606 624.491 411.971 624.759 415.192C624.863 416.286 624.759 416.823 624.347 417.669C623.356 419.796 622.406 421.715 621.188 423.863C620.858 424.461 620.63 424.812 620.135 425.287C618.463 426.856 615.655 428.776 613.074 430.221L610.184 428.322C613.343 426.443 616.274 424.399 617.947 422.706C619.371 420.229 620.238 418.288 621.374 415.811C621.085 412.652 620.672 409.576 620.176 405.757C620.032 404.704 620.032 404.415 620.238 403.424C620.919 400.08 622.179 393.824 622.612 391.615C622.179 386.826 621.498 376.565 621.642 370.971L625.585 377.164V377.143Z" fill="#0E141B"/>
<path d="M621.229 420.372C623.335 427.247 625.296 434.473 626.452 440.501L622.509 436.847C621.498 432.532 620.259 428.403 618.834 423.675L621.229 420.352V420.372Z" fill="#0E141B"/>
<path d="M597.612 504.253C604.424 493.663 609.647 478.138 610.742 470.644C611.485 465.441 611.609 457.39 611.216 448.533L614.396 448.678C614.932 458.195 614.912 466.04 614.189 471.077C613.095 478.633 608.14 494.488 601.348 505.368L597.632 504.253H597.612Z" fill="#0E141B"/>
<path d="M584.605 478.612C579.754 469.383 572.446 461.786 563.961 457.967C555.145 454.003 543.976 452.991 529.298 454.003C522.774 454.457 522.547 451.897 529.05 451.092C544.348 449.193 556.26 450.535 565.509 454.684C574.799 458.854 581.756 465.977 587.207 477.187C590.262 483.484 587.785 484.619 584.626 478.612H584.605Z" fill="#0E141B"/>
<path d="M585.844 478.24C570.071 468.186 546.991 457.781 528.906 452.579L537.04 452.021C552.523 456.625 569.535 464.532 583.429 473.203L585.865 478.22L585.844 478.24Z" fill="#0E141B"/>
<path d="M480.907 397.19C482.022 361.949 469.057 328.154 449.031 314.9C449.093 315.498 449.114 315.911 449.135 316.324C449.155 317.067 449.031 317.625 448.68 318.265C447.999 319.524 447.194 320.887 446.12 321.94C445.666 322.394 445.233 322.559 444.469 322.745C438.936 324.087 430.947 324.541 419.964 324.252C419.034 324.231 418.787 324.128 417.92 323.818C416.413 323.261 414.142 322.518 412.841 321.857C411.995 321.423 411.768 321.238 411.148 320.556C404.872 313.723 400.475 308.211 395.809 301.77C389.698 304.722 384.702 308.087 378.942 312.629C377.084 314.095 376.3 314.156 374.524 312.753C372.666 311.266 371.159 309.718 369.343 307.509C350.37 317.171 336.827 336.329 329.147 361.247L325.555 355.487C333.627 331.56 348.677 313.64 367.443 303.318C370.065 301.873 370.87 301.832 372.336 304.247C373.451 306.084 374.71 307.695 376.733 309.511C382.411 304.949 388.171 300.923 393.703 297.971C396.243 296.608 396.965 296.443 398.885 298.983C403.324 304.846 408.423 310.977 414.678 317.418C416.02 318.162 417.961 319.318 419.613 319.854C430.492 320.494 438.09 320.185 443.478 318.802C444.448 317.914 444.882 317.026 445.604 315.684C445.604 315.044 445.522 313.826 445.377 312.587C444.944 308.376 444.84 306.91 449.3 309.553C471.864 322.889 486.357 355.776 486.274 391.574L480.907 397.19Z" fill="#0E141B"/>
<path d="M461.976 324.127C458.032 324.912 455.018 325.222 451.818 325.345C448.453 328.69 445.914 332.385 442.797 337.237C442.301 338.001 441.868 338.641 441.393 339.115C436.273 344.153 428.263 350.449 421.842 355.342C420.727 357.84 419.365 360.441 418.023 362.671C416.124 365.788 415.153 365.21 413.46 362.774C411.664 360.194 409.93 357.076 408.402 353.257C396.346 350.8 381.255 344.586 373.306 339.838C370.003 337.051 364.202 331.807 359.908 327.575C358.772 326.46 358.71 326.13 358.793 324.788C358.855 323.818 358.958 322.393 359 321.175C355.82 321.216 352.785 320.618 350.205 319.379L353.074 316.262C354.994 317.005 357.451 317.315 359.908 317.273C362.819 317.232 363.128 317.686 362.963 320.019C362.839 321.774 362.798 323.673 362.757 325.015C367.051 329.268 372.646 333.872 375.866 336.617C383.319 341.056 397.667 347.146 409.331 349.644C411.024 350.016 411.437 350.243 411.995 351.791C412.882 354.331 414.183 357.386 415.752 359.512C416.722 357.84 417.238 356.436 418.002 354.578C418.642 353.051 418.869 352.762 419.963 351.895C426.116 347.064 434.167 340.705 438.771 336.039C442.095 330.548 445.212 326.502 448.371 322.641C449.382 321.402 449.919 321.237 451.736 321.175C453.924 321.093 456.133 320.824 458.899 320.329L461.976 324.107V324.127Z" fill="#0E141B"/>
<path d="M372.584 336.348C391.226 322.764 425.249 323.156 441.455 336.08L438.791 339.094C423.514 327.368 393.249 327.285 375.763 339.094L372.563 336.348H372.584Z" fill="#0E141B"/>
<path d="M391.515 397.087C375.371 391.409 362.344 387.322 349.503 383.606C343.433 381.851 344.404 378.609 350.494 380.178C363.046 383.399 377.353 388.395 392.423 394.671C398.679 397.272 397.378 399.172 391.494 397.107L391.515 397.087Z" fill="#0E141B"/>
<path d="M361.993 408.935C359.825 407.366 356.708 400.656 354.623 393.947C353.013 388.765 355.428 387.898 357.41 392.956C359.743 398.881 362.199 403.794 364.388 405.074C365.833 405.921 376.775 404.93 385.425 402.205C391.185 400.388 391.866 402.246 386.333 404.641C377.951 408.274 364.346 410.649 362.014 408.935H361.993Z" fill="#0E141B"/>
<path d="M421.058 395.58C431.979 385.237 446.141 377.082 455.947 373.221C458.631 372.168 461.563 372.086 464.143 373.221C468.603 375.203 467.901 377.392 463.173 376.112C461.067 375.534 458.9 375.802 457.165 376.545C447.793 380.509 434.064 388.251 422.833 397.479C418.229 401.257 416.475 399.915 421.078 395.58H421.058Z" fill="#0E141B"/>
<path d="M431.917 408.606C426.921 407.863 427.107 405.778 432.165 406.026C443.189 406.542 452.293 406.232 453.036 405.819C454.358 405.076 457.929 393.907 459.189 385.959C460.221 379.476 463.07 379.848 462.265 386.351C461.047 396.24 457.475 409.515 455.328 410.382C453.573 411.084 441.434 410.01 431.917 408.586V408.606Z" fill="#0E141B"/>
<path d="M331.418 561.046C358.525 622.795 348.223 686.504 289.262 711.381C236.803 733.512 171.277 712.228 150.756 641.168C131.143 573.227 147.659 512.531 191.385 493.311C238.475 472.625 305.715 502.498 331.418 561.025V561.046Z" fill="#FADBDA"/>
<path d="M605.271 506.833C556.735 488.046 493.252 521.573 468.623 587.946C443.499 655.64 466.91 715.386 525.355 734.586C580.084 752.567 639.686 724.222 654.013 649.88C666.462 585.304 643.794 521.759 605.271 506.833Z" fill="#FADBDA"/>
<path d="M207.488 660.925C205.217 663.114 206.889 673.188 212.195 678.267C216.509 682.396 224.107 682.128 226.729 678.37C228.71 675.521 228.277 669.307 222.62 664.249C217.727 659.873 209.697 658.82 207.488 660.946V660.925Z" fill="#EE869A"/>
<path d="M590.014 690.695C585.989 689.56 578.185 691.975 571.702 695.175C580.125 695.526 591.356 696.641 599.408 698.086C597.137 694.411 594.019 691.81 590.014 690.695Z" fill="#EE869A"/>
<path d="M146.544 623.745C155.793 624.798 166.343 624.117 173.155 623.456C177.161 623.085 181.579 622.94 177.45 619.265C168.861 611.627 152.18 598.084 142.911 591.787C142.539 601.8 144.253 614.868 146.544 623.745Z" fill="white"/>
<path d="M203.503 612.493C200.324 616.168 200.861 618.171 210.461 616.209C227.245 612.782 250.16 606.775 252.328 604.855C255.673 601.903 256.333 576.53 253.195 559.746C238.125 574.425 215.993 598.083 203.503 612.493Z" fill="white"/>
<path d="M536.957 589.783C533.902 599.796 533.592 619.904 534.769 629.132C535.76 636.874 539.228 640.962 547.651 642.448C559.811 644.595 569.246 644.719 576.409 644.595C594.866 644.285 594.597 638.278 589.994 633.715C575.398 619.264 550.459 595.378 536.957 589.783Z" fill="white"/>
<path d="M657.667 620.834C647.076 625.706 633.41 633.345 623.892 640.57C620.321 643.295 621.043 646.062 630.334 648.436C637.064 650.15 645.92 651.719 648.212 651.45C651.99 650.975 652.878 649.881 654.942 645.009C656.511 637.845 657.812 628.411 657.667 620.834Z" fill="white"/>
<path d="M208.479 673.231C213.805 669.329 222.517 670.052 227.534 677.339C230.197 666.686 214.135 656.281 207.962 660.741C206.125 662.083 205.403 668.111 208.479 673.231Z" fill="#CF7487"/>
<path d="M152.428 648.829C196.938 713.013 333.627 700.502 338.602 582.518C360.403 646.041 331.212 699.8 283.811 712.972C213.144 732.584 172.99 697.406 152.428 648.849V648.829Z" fill="#D8BEBD"/>
<path d="M475.581 572.793C466.992 676.368 557.003 743.773 637.539 693.709C611.196 740.408 553.184 751.783 511.399 729.239C447.875 694.969 448.453 623.93 475.581 572.793Z" fill="#D8BEBD"/>
<path d="M161.677 607.6C162.792 610.759 162.523 612.72 161.532 613.071C160.48 613.443 158.745 612.204 157.672 609.169C156.578 606.073 157.424 603.636 158.209 603.451C158.973 603.285 160.562 604.462 161.677 607.6Z" fill="#0E141B"/>
<path d="M241.448 579.648C241.448 583.426 240.375 586.233 238.909 586.233C237.629 586.233 236.473 584.066 236.473 579.73C236.473 575.787 237.877 573.723 238.95 573.723C240.292 573.723 241.448 575.87 241.448 579.668V579.648Z" fill="#0E141B"/>
<path d="M560.74 606.154C560.926 611.852 559.501 615.341 557.375 615.156C554.794 614.949 554.588 606.65 556.508 602.748C557.664 603.656 559.563 605.143 560.74 606.134V606.154Z" fill="#0E141B"/>
<path d="M636.609 632.25C635.144 636.544 635.557 639.414 637.126 639.765C639.335 640.301 641.894 633.571 640.883 629.752C639.417 630.619 637.972 631.383 636.63 632.25H636.609Z" fill="#0E141B"/>
<path d="M148.155 642.078C128.418 573.661 145.264 511.128 190.476 491.268C240.106 469.467 308.626 502.519 333.834 559.953C361.58 623.126 351.32 688.136 290.149 713.942C235.234 737.105 168.717 713.385 148.134 642.078H148.155ZM192.231 495.355C149.889 513.936 134.013 573.847 153.192 640.323C172.309 706.551 234.037 731.469 288.085 708.678C343.372 685.349 356.522 625.686 328.569 562.017C302.619 502.891 236.411 475.929 192.211 495.335L192.231 495.355Z" fill="#0E141B"/>
<path d="M227.451 586.006C227.369 580.555 225.552 575.332 222.517 571.905C221.815 571.121 221.526 570.811 221.051 569.779C216.22 559.683 210.977 553.758 207.715 544.262C206.786 540.195 206.868 537.222 208.499 532.825C210.584 528.469 212.876 525.558 217.418 519.591C215.746 512.407 216.2 504.046 218.471 497.15C218.76 496.283 219.503 495.272 220.37 494.384C221.98 492.733 223.054 489.987 223.405 486.684L227.554 486.787C226.956 491.514 225.015 496.139 222.29 498.203C220.081 504.459 219.689 511.705 221.051 518.373C221.443 520.314 221.423 520.706 220.308 522.131C216.014 527.56 213.681 530.409 211.864 534.146C210.378 538.192 210.502 539.947 211.266 543.312C214.28 552.623 219.585 558.445 224.437 568.788C227.843 572.07 230.032 577.252 230.63 582.744L227.492 586.026L227.451 586.006Z" fill="#0E141B"/>
<path d="M241.262 608.922C242.976 611.998 244.545 614.248 246.692 617.015C250.511 621.928 248.674 622.94 244.628 618.604C242.212 616.024 239.921 613.01 237.877 609.83L241.242 608.943L241.262 608.922Z" fill="#0E141B"/>
<path d="M142.643 589.104C154.451 597.898 164.753 606.342 177.45 617.469C182.838 622.197 180.98 623.766 175.777 619.451C163.391 609.211 153.254 601.697 142.787 594.038L142.643 589.104Z" fill="#0E141B"/>
<path d="M153.522 622.505C159.633 622.712 163.287 622.712 170.183 622.216C176.066 621.803 176.273 624.054 170.451 624.797C164.113 625.602 159.963 625.974 153.481 625.746C147.288 625.54 147.329 622.278 153.522 622.485V622.505Z" fill="#0E141B"/>
<path d="M202.326 612.101C217.789 593.439 238.021 570.771 255.817 555.308C261.329 550.518 263.497 553.016 258.15 557.992C241.283 573.64 221.01 594.925 204.308 613.774C199.973 618.666 197.95 617.366 202.326 612.101Z" fill="#0E141B"/>
<path d="M211.018 614.619C226.192 611.439 249.747 604.833 250.986 603.45C252.411 601.86 253.257 586.191 253.113 574.981C253.03 568.024 255.59 567.962 256.189 574.878C257.118 585.53 256.684 605.205 254.31 607.104C252.142 608.818 227.988 614.805 211.451 617.179C206.394 617.901 206.125 615.651 211.018 614.619Z" fill="#0E141B"/>
<path d="M210.708 679.755C205.134 674.408 202.698 663.032 206.208 659.688C209.47 656.55 218.718 658.243 223.838 662.846C229.846 668.235 231.167 675.089 228.132 679.445C224.52 684.647 215.188 684.049 210.708 679.775V679.755ZM208.685 662.145C207.323 663.445 208.417 671.868 213.516 676.782C217.17 680.291 223.26 680.25 225.325 677.277C226.687 675.316 226.749 670.671 221.361 665.819C216.324 661.319 209.924 660.968 208.706 662.145H208.685Z" fill="#0E141B"/>
<path d="M524.385 737.373C466.352 718.297 439.659 658.097 466.043 586.997C491.332 518.848 556.652 485.776 606.014 504.872C647.489 520.934 668.733 587.74 656.614 650.583C642.101 725.833 581.88 756.242 524.405 737.373H524.385ZM470.997 588.896C445.935 656.446 471.121 713.879 525.974 731.902C582.458 750.462 637.745 718.752 651.081 649.592C664.521 579.936 638.529 522.152 604.239 508.877C558.614 491.205 495.771 522.152 470.997 588.896Z" fill="#0E141B"/>
<path d="M587.743 633.715C576.265 621.679 555.311 602.789 541.128 593.706C536.338 590.65 534.893 590.299 531.714 590.568C525.995 591.022 525.747 588.482 531.425 587.595C535.099 587.017 538.588 587.884 542.862 590.526C557.685 599.734 578.495 619.14 589.663 631.981C594.185 637.183 592.265 638.463 587.723 633.715H587.743Z" fill="#0E141B"/>
<path d="M538.815 590.424C535.966 600.664 534.748 617.902 535.904 628.225C536.565 634.129 534.335 634.398 533.324 628.596C531.61 618.48 532.395 600.747 535.533 589.186L538.795 590.424H538.815Z" fill="#0E141B"/>
<path d="M574.551 646.042C565.096 646.351 555.806 645.918 548.188 644.06C542.325 642.635 542.903 639.662 548.828 640.798C556.239 642.222 564.559 643.193 574.551 643.44C581.199 643.606 581.199 646.042 574.551 646.042Z" fill="#0E141B"/>
<path d="M657.234 623.518C646.56 628.308 632.542 635.864 625.379 641.397C620.981 644.782 619.247 643.523 623.583 639.518C630.416 633.221 646.54 624.158 657.337 619.451L657.234 623.539V623.518Z" fill="#0E141B"/>
<path d="M654.674 647.939C653.063 650.726 650.978 652.811 649.636 653.369C647.407 654.298 638.653 652.44 631.18 649.839C625.957 648.022 626.39 646.205 631.82 647.32C639.397 648.889 646.725 649.632 648.336 649.034C649.512 648.6 653.27 644.265 655.52 637.947L654.653 647.919L654.674 647.939Z" fill="#0E141B"/>
<path d="M598.788 699.696C596.27 695.897 593.421 693.316 589.601 692.264C586.174 691.314 578.515 693.482 571.042 697.033C566.004 699.427 564.952 697.156 569.844 694.473C577.689 690.158 585.741 687.722 590.489 689.043C594.99 690.302 598.644 693.544 601.121 698.127C603.908 703.288 601.906 704.382 598.768 699.696H598.788Z" fill="#0E141B"/>
<path d="M600.481 699.923C592.182 698.354 579.775 696.909 569.968 696.496L574.655 693.957C582.892 694.205 591.212 695.134 598.541 696.682L600.481 699.944V699.923Z" fill="#0E141B"/>
<path d="M504.111 724.987C503.348 717.968 500.912 706.159 498.001 698.232C492.963 687.951 490.445 671.104 491.993 658.16C487.905 652.297 484.933 646.455 483.405 641.706C481.898 640.571 480.04 639.704 478.822 639.497C477.831 639.312 477.108 639.064 476.138 638.259C472.153 634.852 469.304 630.125 467.715 624.963C465.692 618.44 467.715 617.8 470.192 624.158C472.071 628.989 474.961 633.015 478.884 636.215C480.535 636.628 482.909 637.309 485.098 638.61C486.109 639.208 486.274 639.518 486.687 640.695C488.153 645.051 491.209 650.811 494.863 656.116C495.523 657.087 495.585 657.5 495.441 658.821C494.14 671.043 496.679 687.104 501.428 696.766C505.102 706.779 507.58 717.947 508.509 727.176L504.111 724.967V724.987Z" fill="#0E141B"/>
<path d="M487.183 646.64C490.135 638.176 493.686 630.228 496.411 624.53C496.844 618.109 501.469 610.801 506.341 608.757C511.812 606.466 512.473 608.035 507.394 611.131C504.297 613.01 500.457 618.254 499.879 624.447C499.776 625.459 499.735 625.769 499.26 626.78C496.328 632.912 492.282 641.851 489.412 650.645L487.203 646.62L487.183 646.64Z" fill="#0E141B"/>
<path d="M500.106 698.375C498.868 705.538 496.184 712.578 492.22 716.542L489.371 714.003C492.901 710.7 496.06 703.164 497.939 692.697L500.106 698.375Z" fill="#0E141B"/>
<path d="M210.048 533.836C206.868 528.819 202.038 522.543 199.395 519.096C197.764 516.969 191.199 512.159 186.265 509.166C185.191 508.505 184.675 508.03 184.304 506.895C183.127 503.323 183.499 498.719 184.159 495.375L188.66 493.021C187.607 497.295 186.802 502.312 188.061 505.532C192.789 508.464 200.056 514.1 202.182 516.722C205.258 520.52 208.52 524.938 211.699 529.707L210.048 533.816V533.836Z" fill="#0E141B"/>
</g>
<defs>
<clipPath id="clip0_42_67563">
<rect width="520" height="445.823" fill="white" transform="translate(140 297)"/>
</clipPath>
</defs>
</svg>
