<svg width="800" height="800" viewBox="0 0 800 800" fill="none" xmlns="http://www.w3.org/2000/svg">
<g clip-path="url(#clip0_42_67665)">
<path d="M348.549 349.602C326.008 315.584 265.983 308.201 242.28 362.162C222.653 356.867 224.267 372.793 233.225 378.601C243.796 385.452 284.213 393.976 299.509 395.748C298.604 408.564 294.765 418.033 289.45 424.727C272.913 445.575 249.387 437.444 244.17 432.916C240.351 429.589 236.492 434.924 240.902 440.771C263.227 470.38 319.865 466.443 337.958 439.177C333.115 429.825 330.378 418.506 330.378 405.158C330.378 384.034 337.288 364.407 348.569 349.583L348.549 349.602Z" fill="#FFF9B1"/>
<path d="M571.52 394.902C569.61 382.854 565.456 372.401 559.865 363.483C555.79 367.676 540.297 364.467 540.317 353.462C545.435 355.49 550.593 356.277 554.491 355.883C534.371 330.724 496.868 317.219 474.662 329.188C461.038 336.531 454.64 344.288 451.53 352.734C471.433 380.866 471.039 412.581 462.653 433.35C476.237 455.793 513.385 465.007 537.127 454.868C556.558 446.58 576.048 423.271 571.52 394.902Z" fill="#FFF9B1"/>
<path d="M398.947 322.613C360.892 322.613 330.378 364.113 330.378 405.199C330.378 446.285 357.073 472.055 398.671 472.055C452.455 472.055 467.811 433.174 467.811 404.903C467.811 359.368 431.981 322.613 398.947 322.613Z" fill="#FFF9B1"/>
<path d="M547.561 348.244C603.59 338.381 687.396 387.185 744.113 438.901C695.664 344.248 618.866 276.27 500.057 312.71C493.876 316.884 488.206 321.372 483.127 326.117C501.278 322.022 528.013 329.306 547.561 348.264V348.244Z" fill="#00A73C"/>
<path d="M238.225 381.102C239.308 385.905 241.769 394.764 243.166 394.863C245.037 394.981 251.12 385.807 251.258 385.472C246.237 384.035 241.71 382.539 238.205 381.102H238.225Z" fill="white"/>
<path d="M486.336 264.341C518.917 211.227 622.804 134.842 702.397 126.318C651.467 107.045 570.004 118.562 504.369 172.956C518.917 140.138 574.69 85.7832 618.965 59.4622C543.978 58.8913 443.596 136.28 416.015 276.98C414.952 234.752 438.419 150.631 460.094 99.0914C437.572 114.23 407.274 176.165 402.923 238.374C387.115 154.372 314.334 62.6711 265.786 54.1074C286.713 77.5542 349.986 173.074 364.731 228.118C316.342 146.28 208.262 76.3337 119.869 113.935C195.269 121.83 289.489 184.059 333.489 264.499C259.979 187.465 138.709 148.111 72.9949 203.47C133.079 195.517 269.409 248.808 320.673 302.927C187.059 248.612 85.7518 297.946 42.1459 377.579C127.468 335.745 203.242 317.613 268.72 332.083C294.391 316.747 328.98 320.113 348.549 349.624C361.089 333.146 379.024 322.614 398.927 322.614C418.83 322.614 438.458 334.268 451.51 352.734C457.455 336.552 476.788 327.535 483.107 326.118C531.733 280.76 646.566 251.86 757.224 307.475C696.018 234.673 571.205 211.542 486.316 264.341H486.336Z" fill="#00A73C"/>
<path d="M248.993 363.285C251.001 363.639 253.364 363.166 253.226 360.371C253.108 357.851 251.946 352.496 249.958 349.012C247.438 352.358 245.214 356.02 243.304 359.938C245.292 361.513 247.852 363.088 248.993 363.285Z" fill="white"/>
<path d="M529.41 690.104C541.675 674.237 531.182 582.025 505.865 574.603C484.151 568.244 441.903 622.087 450.861 641.301C457.771 656.007 463.145 666.657 463.086 685.222C446.51 695.813 451.353 711.917 462.515 720.914C468.008 725.343 478.186 728.71 489.899 730.816C489.328 724.91 500.491 714.791 506.869 716.819C510.649 718.02 514.862 726.072 516.89 733.435C525.768 733.612 534.194 733.061 541.006 731.761C540.317 731.19 539.765 730.6 539.411 730.029C538.072 727.824 544.845 712.37 551.026 712.606C551.853 712.645 552.818 713.216 553.841 714.181C549.786 702.645 541.242 694.081 529.41 690.085V690.104Z" fill="#C18A64"/>
<path d="M352.014 683.155C350.183 675.143 347.289 664.118 347.939 655.535C348.392 649.727 353.175 635.395 353.175 634.253C353.175 620.67 337.702 600.53 319.432 586.494C308.408 578.028 297.383 570.39 290.119 574.189C277.874 580.627 262.617 650.456 280.807 678.056C280.886 678.174 280.965 678.273 281.043 678.371C272.184 681.58 262.912 691.345 259.979 700.637C260.176 700.538 260.353 700.401 260.53 700.341C264.585 698.806 275.039 714.496 273.307 718.985C280.906 720.678 288.032 721.957 294.745 722.804C297.383 716.248 302.049 709.653 307.995 708.315C314.845 706.759 323.98 718.906 322.858 723.71C322.838 723.828 322.779 723.946 322.72 724.084C333.587 723.532 343.253 721.682 352.132 718.709C366.07 714.063 365.676 689.278 352.014 683.135V683.155Z" fill="#C18A64"/>
<path d="M227.279 327.594C160.344 340.41 115.38 402.915 100.064 453.766C141.504 407.915 189.874 381.279 227.653 372.853C223.991 365.884 229.642 358.758 242.28 362.183C247.222 350.962 254.427 340.646 268.739 332.082C255.352 329.129 241.434 327.712 227.279 327.594Z" fill="#00A73C"/>
<path d="M245.292 433.842C255.254 441.106 276.634 440.87 289.43 424.746C273.74 419.411 254.092 426.912 245.292 433.842Z" fill="#EE869A"/>
<path d="M296.301 395.316C294.194 399.332 288.505 407.522 285.237 407.069C282.599 406.715 280.433 397.58 279.449 392.245C270.373 390.375 260.057 387.993 251.277 385.473C251.12 385.807 250.923 386.181 250.706 386.575C257.734 398.013 258.227 419.373 250.588 430.319C260.569 424.669 276.161 420.22 289.43 424.728C294.745 418.015 298.604 408.565 299.49 395.749C298.584 395.651 297.501 395.493 296.281 395.316H296.301Z" fill="#933000"/>
<path d="M285.237 407.068C288.505 407.521 294.194 399.331 296.301 395.315C292.068 394.685 286.083 393.603 279.449 392.244C280.433 397.599 282.599 406.714 285.237 407.068Z" fill="white"/>
<path d="M540.317 353.461C540.317 364.466 555.79 367.694 559.865 363.481C558.192 360.804 556.381 358.284 554.471 355.882C550.573 356.256 545.435 355.469 540.297 353.461H540.317Z" fill="white"/>
<path d="M503.404 392.5C521.496 410.238 559.452 400.966 560.436 380.57C550.987 390.315 521.299 400.572 503.404 392.5Z" fill="#EE869A"/>
<path d="M515.393 357.734C508.838 362.695 493.462 370.098 481.316 369.468C491.277 383.78 518.287 375.63 515.393 357.734Z" fill="white"/>
<path d="M462.653 433.35C452.278 459.08 427.335 472.054 398.651 472.054C372.153 472.054 349.277 461.108 337.938 439.197C330.595 450.26 317.601 457.367 303.171 460.202C279.508 493.67 282.343 551.45 290.119 574.188C295.001 571.629 309.176 578.617 319.432 586.492C337.702 600.509 353.175 620.668 353.175 634.252C353.175 635.394 352.348 637.599 351.325 640.591C375.205 653.072 420.425 656.577 450.86 641.319C450.86 641.28 450.821 641.241 450.801 641.201C441.923 622.263 483.914 569.522 505.373 574.464C516.673 549.954 512.46 490.579 492.596 455.851C480.548 452.013 469.523 444.709 462.653 433.35Z" fill="#C18A64"/>
<path d="M506.869 716.839C500.49 714.811 489.328 724.91 489.899 730.836C490.312 735.285 513.346 748.968 516.929 745.463C521.437 741.014 514.645 719.319 506.869 716.859V716.839Z" fill="white"/>
<path d="M551.026 712.624C544.844 712.368 538.072 727.842 539.411 730.047C541.616 733.65 561.48 740.382 563.035 738.552C566.756 734.22 557.7 712.9 551.006 712.644L551.026 712.624Z" fill="white"/>
<path d="M259.959 700.656C254.86 703.511 245.726 720.146 248.403 724.871C249.978 727.666 271.869 722.607 273.307 718.984C274.822 715.086 265.412 697.605 259.979 700.636L259.959 700.656Z" fill="white"/>
<path d="M307.994 708.333C294.942 711.306 291.064 735.718 293.643 737.037C297.639 739.064 320.574 729.339 322.74 724.102C324.295 720.342 317.031 706.286 307.994 708.333Z" fill="white"/>
<path d="M419.047 359.131C419.244 377.558 424.835 388.503 436.036 391.181C443.734 393.031 452.042 390.708 454.64 378.365C444.521 374.959 426.587 366.336 419.598 359.741C419.401 359.544 419.224 359.328 419.047 359.111V359.131Z" fill="white"/>
<path d="M429.225 426.007C431.567 426.007 436.784 415.947 438.714 412.246C433.615 413.211 427.965 410.691 422.649 409.49C423.575 416.755 426.37 426.027 429.225 426.007Z" fill="white"/>
<path d="M369.614 387.519C376.091 383.602 379.201 373.601 378 357.596C376.839 358.816 375.5 360.037 374.023 361.198C369.417 364.742 352.033 375.55 344.297 378.227C349.258 390.748 360.243 393.189 369.633 387.519H369.614Z" fill="white"/>
<path d="M366.227 434.354C373.295 445.772 384.733 452.8 399.36 452.288C414.381 451.776 424.598 445.221 430.977 436.421C421.173 424.333 381.78 417.541 366.208 434.354H366.227Z" fill="#EE869A"/>
<path d="M368.649 424.294C371.799 424.215 374.024 414.194 375.303 408.623C369.24 410.926 358.589 410.73 358.609 410.887C362.153 417.246 366.405 424.372 368.649 424.313V424.294Z" fill="white"/>
<path d="M429.225 426.008C426.37 426.008 423.575 416.755 422.649 409.491C408.337 406.794 389.241 407.01 375.323 408.625C374.043 414.196 371.818 424.216 368.669 424.295C366.424 424.354 362.172 417.228 358.628 410.869C359.554 419.748 362.172 427.78 366.247 434.335C381.819 417.543 421.212 424.315 431.016 436.402C436.292 429.118 438.93 420.299 439.442 412.05C439.206 412.109 438.97 412.168 438.733 412.208C436.804 415.909 431.587 425.969 429.244 425.969L429.225 426.008Z" fill="#933000"/>
<path d="M280.905 365.491C277.815 368.227 277.224 371.908 280.039 371.554C293.938 369.763 311.695 374.015 317.365 374.566C320.062 375.235 321.027 369.408 319.728 365.845C315.396 354.013 293.485 354.328 280.905 365.491Z" fill="white"/>
<path d="M264.428 438.311C255.018 438.823 246.946 435.377 244.151 432.936C240.331 429.609 236.473 434.944 240.883 440.791C263.207 470.4 319.846 466.463 337.938 439.197C335.044 433.586 332.898 427.247 331.658 420.219C315.869 437.051 286.91 445.477 264.428 438.311Z" fill="#DED799"/>
<path d="M541.36 434.117C516.063 440.87 485.017 437.484 466.728 419.057C465.783 424.195 464.385 428.999 462.653 433.33C476.237 455.772 513.385 464.986 537.127 454.847C552.011 448.488 566.913 433.33 571.048 413.84C563.763 423.329 553.31 430.534 541.38 434.117H541.36Z" fill="#DED799"/>
<path d="M331.382 418.152C336.619 450.655 361.759 472.054 398.651 472.054C443.753 472.054 461.826 444.71 466.492 419.235C440.82 468.944 357.565 477.901 331.382 418.152Z" fill="#DED799"/>
<path d="M547.561 348.245C603.59 338.382 687.396 387.185 744.113 438.902C676.155 352.655 584.631 324.779 528.446 334.327C535.178 337.929 541.695 342.556 547.561 348.245Z" fill="#009334"/>
<path d="M244.643 383.366C243.186 382.854 239.445 381.613 238.225 381.102C239.308 385.905 242.182 394.666 243.599 394.744C243.461 390.571 243.461 385.807 244.643 383.366Z" fill="#DCDDDD"/>
<path d="M486.336 264.341C518.917 211.227 622.804 134.842 702.397 126.318C629.025 119.743 477.3 199.907 415.365 311.038C437.375 226.405 507.243 170.593 504.369 172.956C518.917 140.138 574.69 85.7832 618.965 59.4622C541.97 92.2208 452.179 186.5 415.031 283.516C413.968 241.288 438.438 150.631 460.094 99.0914C441.45 126.712 412.964 201.305 404.361 251.525C405.05 259.439 405.739 254.97 405.325 268.968C389.517 184.965 324.551 101.237 265.786 54.1074C279.626 69.6205 338.095 149.233 362.389 220.381C378.748 255.443 390.068 282.492 389.497 303.97C349.966 198.371 212.731 108.009 119.869 113.935C195.269 121.83 320.023 202.328 350.518 302.848C282.756 236.78 187.315 187.642 72.9949 203.47C133.079 195.517 283.878 250.895 329.788 312.298C199.068 276.96 158.711 295.308 42.1459 377.559C127.468 335.725 203.242 317.594 268.72 332.063C294.391 316.727 328.98 320.094 348.549 349.604C361.089 333.126 379.024 322.594 398.927 322.594C418.83 322.594 438.458 334.248 451.51 352.715C457.455 336.532 476.788 327.516 483.107 326.098C531.733 280.74 646.566 251.84 757.224 307.455C660.287 236.012 528.524 256.309 434.265 315.822C455.94 282.099 490.844 261.506 486.316 264.321L486.336 264.341Z" fill="#009334"/>
<path d="M519.606 696.698C510.491 697.19 524.429 669.176 511.003 672.267C494.171 676.145 458.361 637.166 470.409 593.146C452.868 612.42 447.494 634.114 450.86 641.32C457.77 656.026 463.145 666.676 463.086 685.241C446.51 695.832 451.353 711.936 462.515 720.933C468.007 725.362 478.185 728.728 489.899 730.835C489.328 724.929 500.49 714.81 506.869 716.838C510.649 718.039 514.862 726.09 516.889 733.453C525.768 733.63 534.194 733.079 541.006 731.78C540.317 731.209 539.765 730.618 539.411 730.047C538.072 727.843 542.305 716.306 545.061 716.306C545.888 716.306 532.324 696.009 519.606 696.698Z" fill="#9A6C4D"/>
<path d="M352.014 683.154C350.183 675.141 347.289 664.117 347.939 655.533C348.391 649.726 353.175 635.394 353.175 634.252C353.175 627.775 349.632 619.822 343.982 611.73C333.469 640.965 304.569 681.559 275.57 666.262C276.85 670.692 280.138 678.468 282.028 680.516C274.114 686.028 268.818 696.206 266.987 704.632C270.806 709.258 274.35 716.227 273.287 718.983C280.886 720.676 288.012 721.956 294.726 722.803C297.364 716.247 302.029 709.652 307.975 708.313C314.826 706.758 323.96 718.905 322.838 723.708C322.818 723.826 322.759 723.944 322.7 724.082C333.567 723.531 343.233 721.68 352.112 718.708C366.05 714.062 365.657 689.276 351.994 683.134L352.014 683.154Z" fill="#9A6C4D"/>
<path d="M100.064 453.764C141.504 407.914 189.874 381.278 227.653 372.852C223.991 365.883 229.642 358.757 242.28 362.182C244.84 356.355 248.009 350.764 252.478 345.547C210.545 359.997 142.193 384.763 100.064 453.764Z" fill="#009334"/>
<path d="M289.43 424.748C281.516 422.05 272.578 422.641 264.546 424.748C269.015 427.012 272.499 430.791 274.271 435.93C279.783 433.784 285.099 430.181 289.43 424.748Z" fill="#CF7487"/>
<path d="M285.394 393.425C283.504 393.071 281.496 392.677 279.449 392.244C280.433 397.599 283.13 406.793 285.768 407.147C285.552 403.091 284.764 397.166 285.394 393.425Z" fill="#DCDDDD"/>
<path d="M510.964 545.899C449.069 626.811 337.977 634.351 283.642 537.67C284.587 543.477 288.761 570.212 290.119 574.189C295.001 571.629 309.176 578.618 319.432 586.493C337.702 600.51 353.175 620.669 353.175 634.253C353.175 635.394 352.349 637.599 351.325 640.592C375.205 653.073 420.425 656.577 450.861 641.32C450.861 641.281 450.821 641.241 450.801 641.202C441.923 622.263 483.914 569.523 505.373 574.464C506.672 571.629 509.153 563.282 511.2 555.408L510.944 545.919L510.964 545.899Z" fill="#9A6C4D"/>
<path d="M493.679 722.922C491.277 725.54 489.682 728.513 489.899 730.836C490.273 734.891 509.31 746.526 515.472 746.014C506.613 740.778 497.321 730.659 493.679 722.922Z" fill="#DCDDDD"/>
<path d="M539.411 730.048C541.616 733.651 561.48 740.384 563.035 738.553C563.448 738.08 563.704 737.371 563.822 736.525C555.574 733.375 548.053 728.316 541.576 721.977C539.785 725.599 538.82 729.083 539.411 730.048Z" fill="#DCDDDD"/>
<path d="M269.861 708.273C264.566 715.065 256.711 720.794 247.911 722.664C247.911 723.55 248.048 724.318 248.383 724.889C249.958 727.684 271.85 722.625 273.287 719.003C273.976 717.192 272.342 712.506 269.861 708.273Z" fill="#DCDDDD"/>
<path d="M319.314 714.043C315.141 724.674 303.919 731.013 292.875 734.379C292.914 735.836 293.151 736.82 293.623 737.037C297.619 739.065 320.554 729.339 322.72 724.103C323.507 722.233 322.07 717.764 319.314 714.043Z" fill="#DCDDDD"/>
<path d="M428.969 411.498C426.429 410.849 425.15 410.061 422.649 409.49C423.575 416.755 426.37 426.027 429.225 426.007C428.418 420.357 428.319 415.436 428.969 411.498Z" fill="#DCDDDD"/>
<path d="M430.977 436.42C424.697 428.664 406.231 423.112 389.674 424.549C391.151 425.081 392.529 425.672 393.71 426.262C401.25 431.282 409.578 440.338 411.566 450.319C420.149 447.662 426.508 442.602 430.997 436.44L430.977 436.42Z" fill="#CF7487"/>
<path d="M365.558 410.395C362.034 410.67 358.609 410.788 358.609 410.867C362.152 417.226 367.074 423.841 369.318 423.781C367.803 420.691 365.972 415.415 365.558 410.395Z" fill="#DCDDDD"/>
<path d="M236.492 361.16C223.125 360.314 225.271 373.464 233.224 378.622C236.197 380.551 241.572 382.619 248.068 384.627C238.796 378.209 227.87 372.618 236.492 361.16Z" fill="#DED799"/>
<path d="M462.653 433.35C452.278 459.08 427.335 472.054 398.651 472.054C372.153 472.054 349.277 461.108 337.938 439.197C330.595 450.261 317.601 457.367 303.171 460.202C299.096 465.951 295.867 472.447 293.249 479.338C314.885 474.515 333.351 454.119 335.654 451.245C353.963 501.052 434.52 498.847 465.291 448.312C470.803 460.931 486.296 468.648 500.353 472.546C498.108 466.561 495.529 460.931 492.616 455.832C480.568 451.993 469.543 444.689 462.672 433.33L462.653 433.35Z" fill="#9A6C4D"/>
<path d="M490.332 729.162C478.835 727.095 468.854 723.886 463.578 719.634C449.64 708.393 451.668 694.75 463.736 686.855C463.342 685.674 463.243 684.414 463.322 683.154C444.994 694.021 447.593 712.094 460.664 722.626C466.531 727.37 477.851 730.757 490.588 732.804C490.352 731.603 490.254 730.402 490.352 729.182L490.332 729.162Z" fill="#0E141B"/>
<path d="M540.1 730.244C533.505 731.445 525.296 731.898 516.653 731.721C517.264 732.803 517.775 733.945 518.15 735.126C525.749 735.205 535.159 734.733 542.62 733.177C541.596 732.39 540.71 731.465 540.12 730.264L540.1 730.244Z" fill="#0E141B"/>
<path d="M551.381 712.449C552.837 712.547 554.215 712.98 555.554 713.63C551.636 701.621 543.526 692.723 531.3 688.529C530.611 689.514 528.682 690.478 527.796 691.305C527.855 691.325 527.894 691.364 527.934 691.384C538.939 694.809 547.069 702.251 551.381 712.468V712.449Z" fill="#0E141B"/>
<path d="M488.501 732.312C486.395 726.308 498.305 712.35 507.381 715.244C514.626 717.547 520.394 733.572 519.705 742.136C519.193 748.494 517.598 748.534 512.086 747.431C503.601 745.758 490.175 737.135 488.482 732.312H488.501ZM491.651 731.21C493.305 735.954 513.602 746.388 515.748 744.242C518.189 741.84 512.362 720.342 506.357 718.433C501.042 716.74 490.116 726.819 491.651 731.21Z" fill="#0E141B"/>
<path d="M537.974 730.913C536.064 727.803 542.817 710.951 550.869 710.951C550.947 710.951 551.006 710.951 551.085 710.951C556.775 711.187 564.63 726.543 565.24 735.028C565.614 740.284 564.078 741.013 559.57 740.717C552.522 740.245 540.572 735.146 537.974 730.913ZM540.907 729.279C543.703 733.492 559.117 738.394 561.834 737.351C563.33 734.93 555.515 714.475 550.947 714.298C550.928 714.298 550.888 714.298 550.869 714.298C545.455 714.298 540.651 726.937 540.907 729.279Z" fill="#0E141B"/>
<path d="M261.79 700.518C264.782 691.994 273.444 682.82 281.792 679.906C281.299 678.863 280.788 677.839 280.099 676.953C269.861 680.851 259.211 691.187 257.104 701.345C258.719 700.557 260.038 700.931 261.79 700.518Z" fill="#0E141B"/>
<path d="M294.647 721.148C287.698 720.243 280.394 718.924 272.716 717.191C272.204 718.215 271.692 719.239 271.18 720.263C278.996 722.054 286.438 723.432 293.525 724.377C293.84 723.275 294.233 722.211 294.667 721.168L294.647 721.148Z" fill="#0E141B"/>
<path d="M352.742 681.658C352.801 682.82 352.565 683.981 352.171 685.103C364.102 691.521 363.727 713.098 351.6 717.134C342.682 720.106 333.154 721.819 322.858 722.37C322.228 723.551 321.992 724.989 321.244 726.111C333.449 725.422 343.726 724.24 353.589 720.953C369.496 715.657 368.039 686.895 352.723 681.658H352.742Z" fill="#0E141B"/>
<path d="M246.592 719.476C248.679 711.542 254.919 700.695 259.939 698.785C265.511 696.679 277.165 714.279 274.822 719.752C273.72 722.331 259.152 728.433 251.297 727.981C245.489 727.646 244.84 726.13 246.592 719.476ZM261.101 701.916C255.825 703.943 246.985 722.153 249.407 724.476C251.041 726.051 270.157 721.11 271.751 718.393C272.854 715.795 263.68 701.266 261.101 701.916Z" fill="#0E141B"/>
<path d="M290.965 732.41C291.556 723.492 297.718 708.944 307.62 706.68C317.267 704.475 325.712 718.826 324.492 724.083C323.114 730.067 306.557 737.194 297.679 739.084C291.084 740.501 290.552 738.729 290.965 732.39V732.41ZM308.349 709.967C299.411 710.282 292.166 733.552 294.411 735.56C298.702 737.568 319.846 727.902 320.732 724.043C321.972 718.669 314.747 709.731 308.349 709.967Z" fill="#0E141B"/>
<path d="M291.123 572.004C283.859 549.482 282.54 491.78 304.786 460.774C303.486 460.794 302.187 460.676 300.927 460.459C279.331 492.351 279.291 551.175 287.383 574.583C288.426 573.382 289.666 572.437 291.123 572.004Z" fill="#0E141B"/>
<path d="M450.723 639.488C450.585 639.547 450.467 639.626 450.329 639.705C433.753 648.15 384.379 655.749 352.998 639.567C352.998 639.567 352.959 639.567 352.959 639.547C352.545 640.807 352.034 642.047 351.62 643.307C380.067 657.442 425.504 656.123 451.865 642.697C451.983 642.638 452.101 642.559 452.239 642.5C451.727 641.516 451.235 640.512 450.742 639.508L450.723 639.488Z" fill="#0E141B"/>
<path d="M503.975 575.075C505.294 575.744 506.672 576.315 508.089 576.768C518.169 546.057 515.157 492.233 494.269 455.34C492.872 455.183 491.454 454.986 490.076 454.77C512.263 491.839 513.621 544.029 503.995 575.075H503.975Z" fill="#0E141B"/>
<path d="M507.617 500.56C462.948 491.937 346.994 491.032 288.918 496.958C287.993 497.056 288.327 500.383 289.253 500.285C347.643 494.339 465.586 495.087 509.034 503.907C508.838 502.745 507.775 501.741 507.597 500.56H507.617Z" fill="#0E141B"/>
<path d="M510.609 551.569C446.451 565.625 349.829 560.093 285.886 550.958C284.961 550.82 285.276 553.478 286.201 553.616C349.021 562.593 444.147 569.09 509.704 555.211C510.039 554.01 510.373 552.809 510.609 551.588V551.569Z" fill="#0E141B"/>
<path d="M461.905 687.8C461.59 687.485 461.412 687.052 461.432 686.599C461.846 665.121 455.073 656.341 448.833 642.029C443.557 630.768 453.144 611.987 463.854 598.718C474.642 585.351 493.246 569.956 505.786 572.83C527.776 577.89 543.545 652.089 531.871 689.375C527.481 703.038 480.568 706.759 461.924 687.82L461.905 687.8ZM464.779 685.95C481.335 701.935 522.146 699.711 528.701 688.214C540.198 651.104 521.516 579.878 505.018 576.098C496.041 574.011 481.178 583.658 467.988 599.998C455.093 615.983 448.655 632.638 452.337 640.513C457.948 652.916 465.015 666.145 464.799 685.969L464.779 685.95Z" fill="#0E141B"/>
<path d="M531.989 645.277C516.141 651.518 471.945 658.33 455.782 650.081C454.955 649.667 456.57 652.955 456.333 653.841C467.338 658.743 509.212 657.837 531.832 648.9C531.891 647.699 531.95 646.478 531.989 645.277Z" fill="#0E141B"/>
<path d="M279.39 678.98C264.644 656.596 270.038 604.722 281.339 581.61C285.217 573.676 287.008 572.416 291.497 572.023C310.357 570.389 354.849 609.25 354.849 634.252C354.849 635.492 354.396 637.244 353.372 639.764C346.718 656.439 349.966 672.287 354.278 682.937C348.411 697.938 299.293 709.199 279.39 678.98ZM291.773 575.35C291.123 575.409 288.721 576.117 285.276 583.185C275.767 602.616 267.184 654.332 282.205 677.13C288.839 687.209 301.183 693.489 316.046 694.355C330.122 695.182 343.47 690.871 350.34 683.311C344.69 661.124 345.182 650.75 350.518 637.52C357.231 620.826 311.774 573.735 291.773 575.369V575.35Z" fill="#0E141B"/>
<path d="M398.652 473.728C356.148 473.728 327.957 447.387 327.957 405.75C327.957 360.077 360.853 320.939 398.927 320.939C437.001 320.939 470.232 361.356 470.232 405.75C470.232 447.564 441.667 473.728 398.652 473.728ZM398.947 324.286C362.684 324.286 332.052 361.336 332.052 405.179C332.052 436.697 349.553 470.361 398.671 470.361C439.659 470.361 466.137 444.67 466.137 404.883C466.137 361.947 434.737 324.267 398.947 324.267V324.286Z" fill="#0E141B"/>
<path d="M227.004 371.278C185.957 380.471 140.717 408.348 104.001 447.032C122.507 393.937 170.208 336.117 235.882 327.908C230.646 327.534 225.389 327.475 220.133 327.455C155.6 343.48 113.963 401.733 98.4497 453.272C97.2094 457.387 98.2331 458.273 101.304 454.887C138.729 413.486 186.095 383.582 228.697 374.349C228.027 373.404 227.476 372.36 227.004 371.278Z" fill="#0E141B"/>
<path d="M321.913 305.209C322.051 305.268 322.188 305.268 322.346 305.288C322.09 305.071 319.452 301.941 318.783 300.327C200.052 253.118 92.898 282.53 41.1418 375.923C39.2125 379.427 39.5078 380.727 43.6617 378.679C104.572 348.913 192.414 317.1 266.554 333.479C267.46 333.676 271.417 330.664 270.511 330.467C193.162 312.611 107.446 344.306 46.2406 373.718C95.6147 289.361 200.919 255.283 321.893 305.209H321.913Z" fill="#0E141B"/>
<path d="M335.418 268.985C335.733 269.32 333.784 264.162 332.74 261.347C255.628 182.089 136.878 147.479 71.9317 202.189C68.8212 204.807 68.9787 205.673 73.231 205.122C142.41 195.928 290.198 263.729 325.122 310.032C327.72 313.477 332.288 314.166 329.413 310.446C286.319 254.791 146.269 196.814 78.5071 201.244C143.217 152.696 261.435 188.821 335.438 268.985H335.418Z" fill="#0E141B"/>
<path d="M352.801 316.489C326.165 211.973 209.423 124.978 119.711 115.587C115.833 115.193 116.01 113.756 119.239 112.378C234.898 63.2009 383.158 193.96 390.836 299.401C391.367 306.429 388.848 308.89 388.336 301.862C380.619 196.125 236.709 72.7686 126.602 113.067C216.57 126.021 331.461 213.509 355.439 316.214C356.483 320.683 353.923 320.801 352.821 316.47L352.801 316.489Z" fill="#0E141B"/>
<path d="M265.944 52.178C262.4 51.5677 262.105 52.5127 264.526 55.2294C284.666 77.7903 345.124 168.723 361.838 224.102C363.629 226.07 367.094 232.134 367.566 232.783C356.05 180.929 294.627 86.4328 270.314 56.8634C324.689 71.9237 402.49 180.712 404.302 266.743C404.42 272.373 406.585 271.172 406.585 265.542C406.861 173.664 319.826 61.667 265.944 52.178Z" fill="#0E141B"/>
<path d="M459.149 97.6723C438.655 111.433 407.707 166.871 401.644 232.9C402.49 235.774 403.593 238.57 404.242 241.483C404.282 241.641 404.302 241.798 404.341 241.956C407.471 181.892 434.914 124.171 456.058 104.445C433.93 159.213 412.432 240.361 414.42 279.518C414.46 280.404 417.629 275.384 417.649 273.258C417.944 231.069 439.915 151.397 461.649 99.6804C463.263 95.8415 462.436 95.4674 459.168 97.633L459.149 97.6723Z" fill="#0E141B"/>
<path d="M616.957 57.7676C535.73 58.5944 440.19 140.491 414.44 276.959C412.708 286.133 415.444 288.83 417.157 279.774C440.151 157.992 525.867 65.3469 612.823 61.2521C567.13 90.0537 514.35 143.562 501.967 174.273C501.829 174.608 506.771 171.714 507.066 171.123C522.599 139.526 574.473 88.3213 618.414 61.7443C623.276 58.811 622.745 57.7479 616.957 57.807V57.7676Z" fill="#0E141B"/>
<path d="M702.968 124.742C614.575 91.2747 459.109 151.26 415.582 308.615C414.223 313.557 416.251 315.545 417.688 310.801C464.897 154.331 609.574 98.9328 695.113 125.569C623.059 136.613 520.787 203.863 484.387 264.301C484.052 264.872 486.887 265.128 488.107 264.675C522.303 209.493 627.095 136.042 702.574 127.971C707.85 127.4 707.121 126.297 702.987 124.742H702.968Z" fill="#0E141B"/>
<path d="M757.539 305.229C681.864 216.816 511.259 200.043 435.997 310.919C432.887 315.506 433.202 319.285 436.332 314.698C507.991 209.119 671.824 217.466 750.491 302.335C651.704 256.347 534.273 272.589 479.072 327.751C480.843 327.436 485.391 326.333 485.883 325.9C537.383 279.42 650.936 256.465 755.472 308.438C760.788 311.076 761.378 309.678 757.539 305.209V305.229Z" fill="#0E141B"/>
<path d="M745.255 437.484C684.758 319.777 600.873 280.109 499.723 311.056C497.872 312.631 494.998 316.076 495.47 315.919C598.707 281.979 680.289 323.754 738.325 431.519C681.627 382.007 600.459 336.57 546.223 346.827C547.601 347.673 548.959 348.54 550.199 349.563C605.342 341.63 687.277 389.567 742.4 439.649C744.959 441.972 747.499 441.894 745.235 437.504L745.255 437.484Z" fill="#0E141B"/>
<path d="M349.947 348.657C321.834 306.193 262.203 314.737 240.863 361.591C240.489 362.438 243.166 363.56 243.462 362.93C264.487 316.725 322.897 312.276 347.899 351.63C348.608 350.646 349.297 349.681 349.966 348.677L349.947 348.657Z" fill="#0E141B"/>
<path d="M337.111 437.385C320.18 464.592 264.585 469.455 242.221 439.787C238.993 435.495 241.178 432.582 243.068 434.196C255.864 445.319 297.777 444.354 301.183 395.866C301.242 394.98 300.592 394.193 299.706 394.094C287.697 392.696 244.505 383.936 234.13 377.203C229.366 374.112 227.141 369.683 228.716 366.434C230.252 363.304 235.587 361.493 244.091 364.466C247.615 365.686 248.501 364.781 245.174 363.068C234.622 357.674 227.752 360.824 225.724 364.958C223.735 369.033 224.995 375.254 232.319 379.998C242.851 386.83 283.406 395.256 297.718 397.205C295.651 439.452 256.592 442.523 244.603 432.109C239.327 427.522 234.937 435.298 240.587 442.425C264.329 472.349 319.688 469.533 339.276 440.24C338.45 439.373 337.721 438.409 337.131 437.365L337.111 437.385Z" fill="#0E141B"/>
<path d="M573.174 394.627C564.137 337.811 502.499 312.278 473.854 327.692C461.944 334.11 454.345 342.3 450.447 351.257C451.313 352.163 452.435 351.966 453.223 352.95C456.629 343.973 463.578 337.043 475.449 330.645C503.64 315.467 561.618 343.284 569.866 395.158C574.119 421.853 555.83 445.064 536.458 453.313C517.126 461.561 478.796 457.88 465.035 433.528C464.582 432.721 461.668 434.374 462.121 435.181C478.5 464.199 520.197 463.904 537.777 456.404C558.822 447.426 577.741 423.31 573.174 394.627Z" fill="#0E141B"/>
<path d="M342.663 377.087C349.336 375.65 374.693 360.235 379.831 352.537C382.272 348.895 384.792 350.273 381.741 354.723C374.496 365.334 351.128 378.957 342.682 380.355C339.001 380.965 339.001 377.874 342.643 377.087H342.663Z" fill="#0E141B"/>
<path d="M456.511 380.729C443.34 376.929 417.57 364.782 414.834 354.545C413.928 351.12 415.838 350.451 417.314 353.679C420.701 361.062 442.691 373.523 458.007 377.658C462.062 378.76 459.877 381.693 456.511 380.709V380.729Z" fill="#0E141B"/>
<path d="M317.936 365.432C317.365 363.109 315.751 361.376 313.113 360.254C305.455 357.006 291.202 359.762 281.693 366.259C277.756 368.956 277.795 365.944 282.323 362.853C292.757 355.746 306.183 353.659 314.412 357.163C317.72 358.561 320.161 361.829 320.614 364.802C321.224 368.719 318.783 368.897 317.917 365.412L317.936 365.432Z" fill="#0E141B"/>
<path d="M315.475 375.589C305.711 374.014 293.229 372.833 281.87 372.951C277.795 372.991 278.13 371.416 282.441 371.002C293.446 369.979 306.636 371.002 315.81 373.522C319.846 374.625 319.334 376.219 315.475 375.589Z" fill="#0E141B"/>
<path d="M248.482 430.418C256.396 420.594 256.75 398.112 249.151 386.674C248.639 385.906 251.435 384.056 251.947 384.823C259.073 395.572 258.699 419.177 253.462 428.902C252.754 430.221 247.911 431.146 248.482 430.418Z" fill="#0E141B"/>
<path d="M430.82 413.289C413.732 407.304 380.599 408.485 365.302 411.911C357.251 413.722 348.628 409.548 348.116 401.91C347.86 398.189 349.474 397.067 350.026 400.748C350.931 406.969 357.881 411.143 364.161 409.411C380.067 405.02 414.677 404.41 432.316 410.572C439.403 413.053 444.462 409.411 445.112 404.784C445.624 401.182 448.085 401.93 447.573 405.532C446.53 412.836 438.202 415.868 430.8 413.289H430.82Z" fill="#0E141B"/>
<path d="M437.749 412.699C435.072 459.612 364.869 467.861 360.204 410.454C359.062 410.316 358.57 410.238 357.428 410.061C360.873 471.266 437.611 465.085 440.722 412.265C439.62 412.521 438.871 412.758 437.749 412.699Z" fill="#0E141B"/>
<path d="M364.731 433.508C365.519 434.335 366.208 435.241 366.818 436.186C380.461 420.102 416.606 422.385 429.441 437.15C430.17 436.304 430.898 435.457 431.627 434.591C418.909 420.929 379.693 416.912 364.751 433.508H364.731Z" fill="#0E141B"/>
<path d="M502.105 393.78C497.813 391.417 497.518 388.7 501.987 390.748C522.107 400.04 550.81 388.937 559.216 379.33C562.484 375.589 563.134 378.483 559.866 382.223C547.857 395.965 518.071 402.579 502.125 393.76L502.105 393.78Z" fill="#0E141B"/>
<path d="M501.731 393.524C501.101 392.834 505.215 392.972 506.337 393.799C525.138 408.052 559.295 397.106 559.039 380.924C559.039 379.999 561.637 378.129 561.677 379.034C562.7 402.264 519.272 412.561 501.731 393.524Z" fill="#0E141B"/>
<path d="M244.741 432.623C255.077 424.197 273.897 418.586 289.548 423.862C290.434 424.157 288.8 426.303 287.914 426.008C272.46 420.811 254.899 428.666 246.848 435.221C246.533 435.477 244.013 433.213 244.741 432.623Z" fill="#0E141B"/>
<path d="M249.643 385.019C248.364 387.736 245.056 392.047 243.639 393.012C242.851 391.614 241.493 387.46 240.331 382.322C239.17 381.928 238.008 381.535 236.847 381.102C236.768 381.357 236.748 381.613 236.808 381.909C238.658 390.512 241.631 396.3 243.225 396.536C244.958 396.812 251.769 388.484 252.911 385.964C251.809 385.748 250.726 385.413 249.663 385.019H249.643Z" fill="#0E141B"/>
<path d="M294.293 395.571C291.773 400.021 287.068 405.631 285.571 405.434C284.39 404.844 282.54 399.292 281.299 393.032C280.098 392.776 278.898 392.54 277.736 392.225C278.878 398.8 282.126 407.954 285.04 408.742C286.713 409.195 292.974 404.706 297.482 396.674C296.419 396.319 295.375 395.945 294.312 395.571H294.293Z" fill="#0E141B"/>
<path d="M251.395 348.127C250.332 348.954 249.919 350.096 249.309 351.316C250.391 353.895 251.454 357.301 251.573 359.427C251.769 363.109 253.699 362.695 254.014 358.522C254.25 355.549 253.029 351.119 251.395 348.147V348.127Z" fill="#0E141B"/>
<path d="M248.186 361.908C246.198 361.022 245.824 360.569 243.461 358.521C243.461 358.521 242.713 359.801 242.221 360.884C243.934 362.616 247.458 363.837 248.993 364.27C251.257 364.92 250.234 362.833 248.167 361.908H248.186Z" fill="#0E141B"/>
<path d="M379.575 356.533C378.65 357.852 377.626 359.073 376.465 360.175C377.134 373.68 374.496 382.618 368.728 386.103C360.577 391.024 350.892 389.863 345.97 378.011C345.084 378.759 344.159 379.429 343.214 380.078C347.88 390.493 359.711 394.784 369.909 388.622C377.291 384.154 380.973 373.287 379.555 356.533H379.575Z" fill="#0E141B"/>
<path d="M453.006 378.129C450.841 388.248 444.836 391.575 436.43 389.567C426.508 387.185 421.232 377.499 420.74 360.746C419.519 359.978 418.338 359.112 417.354 358.088C417.354 376.593 423.24 389.311 435.466 392.225C443.478 394.134 453.321 392.087 456.215 379.054C455.152 378.739 454.069 378.444 452.987 378.129H453.006Z" fill="#0E141B"/>
<path d="M373.59 408.663C371.543 417.542 369.87 422.247 368.728 422.621C366.995 422.109 362.546 414.471 360.144 410.159C358.845 410.12 357.565 410.1 356.266 410.08C362.979 422.207 366.385 426.145 368.925 425.928C371.464 425.731 374.791 418.408 376.858 409.411C376.996 408.84 373.669 408.328 373.59 408.663Z" fill="#0E141B"/>
<path d="M436.312 413.212C431.863 421.578 429.953 423.783 429.166 424.276C427.886 423.488 425.543 417.681 424.48 410.534C423.319 410.318 422.177 410.141 421.015 409.904C421.567 413.743 424.913 427.484 428.418 427.642C432.197 427.819 436.509 419.905 439.363 414.57C438.34 414.137 437.316 413.664 436.312 413.192V413.212Z" fill="#0E141B"/>
<path d="M479.682 367.834C491.218 368.306 508.483 362.026 514.685 357.4C517.953 354.959 518.622 356.475 515.689 359.172C506.928 367.204 491.789 371.062 482.005 370.669C477.949 370.511 475.744 367.676 479.682 367.834Z" fill="#0E141B"/>
<path d="M540.73 351.827C545.042 353.107 549.195 354.367 552.798 354.328C553.467 354.328 556.066 357.359 555.16 357.517C552.975 357.911 545.297 356.887 540.395 354.623C536.753 352.93 536.714 350.627 540.73 351.827Z" fill="#0E141B"/>
<path d="M540.75 359.073C539.667 356.868 540.75 355.293 541.616 357.026C544.608 363.01 555.771 365.648 557.936 362.361C558.448 361.593 561.322 363.483 560.732 364.211C556.44 369.448 544.136 365.924 540.75 359.073Z" fill="#0E141B"/>
<path d="M487.891 374.016C497.774 379.016 514.763 373.386 513.956 359.546C513.936 359.152 516.338 357.617 516.456 358.542C518.858 377.52 495.923 382.146 486.729 376.043C482.221 373.051 483.245 371.673 487.891 374.016Z" fill="#0E141B"/>
<path d="M433.064 374.703C432.001 374.703 431.174 373.187 431.174 371.238C431.174 369.289 432.001 367.773 433.064 367.773C434.127 367.773 434.954 369.289 434.954 371.238C434.954 373.187 434.127 374.703 433.064 374.703Z" fill="#0E141B"/>
<path d="M504.605 369.21C503.699 369.466 502.597 368.364 502.105 366.671C501.613 364.977 504.881 364.033 505.353 365.726C505.845 367.419 505.511 368.954 504.605 369.21Z" fill="#0E141B"/>
<path d="M549.845 359.585C549.372 359.782 548.427 359.585 548.034 358.621C547.581 357.518 547.896 356.75 548.467 356.514C548.92 356.337 550.002 356.632 550.376 357.833C550.691 358.837 550.317 359.388 549.845 359.585Z" fill="#0E141B"/>
<path d="M367.015 372.795C365.952 372.795 365.125 371.279 365.125 369.33C365.125 367.381 365.952 365.865 367.015 365.865C368.078 365.865 368.905 367.381 368.905 369.33C368.905 371.279 368.078 372.795 367.015 372.795Z" fill="#0E141B"/>
<path d="M291.95 366.81C290.906 366.672 290.257 365.058 290.493 363.128C290.729 361.199 291.733 359.782 292.777 359.919C293.82 360.057 294.47 361.672 294.234 363.601C293.997 365.53 292.993 366.948 291.95 366.81Z" fill="#0E141B"/>
<path d="M349.061 650.217C325.968 655.1 293.741 649.45 273.208 636.732C273.09 636.653 273.484 639.469 273.72 640.925C296.655 654.076 332.209 657.049 349.179 653.604C349.12 652.481 349.081 651.34 349.061 650.217Z" fill="#0E141B"/>
<path d="M250.332 352.143C249.131 353.049 247.478 357.006 248.423 357.577C249.21 358.049 251.317 355.864 251.632 354.821C251.966 353.777 250.765 351.828 250.313 352.143H250.332Z" fill="#0E141B"/>
</g>
<defs>
<clipPath id="clip0_42_67665">
<rect width="720" height="695.963" fill="white" transform="translate(40 52)"/>
</clipPath>
</defs>
</svg>
