<svg width="800" height="800" viewBox="0 0 800 800" fill="none" xmlns="http://www.w3.org/2000/svg">
<g clip-path="url(#clip0_42_67926)">
<path d="M568.835 310.675C569.846 312.041 571.979 312.621 574.243 312.19C579.987 311.124 592.599 310.02 599.916 310.843C605.061 322.987 623.474 324.578 634.458 320.854C642.934 317.972 667.559 304.462 673.173 297.595C682.641 286.013 671.807 266.87 661.553 261.818C645.816 254.071 627.141 252.181 612.64 255.624C608.991 251.658 596.248 242.638 586.069 242.545C583.225 238.559 574.131 229.634 568.274 226.209C558.375 152.073 501.772 122.433 445.991 122.377C363.809 122.302 325.992 184.987 330.071 237.493C331.381 254.296 343.282 305.361 357.559 324.503C353.798 323.942 350.991 324.278 347.96 324.615L325.075 405.881C327.863 413.89 345.116 416.547 359.655 412.898C384.804 406.592 432.949 422.535 449.584 453.503C451.025 463.121 455.216 490.085 461.953 498C465.04 501.63 469.007 503.052 474.714 501.293C484.051 498.411 513.13 497.363 523.365 500.17C528.417 501.555 538.503 498.075 537.68 486.08C534.723 442.818 540.561 345.554 568.835 310.694V310.675Z" fill="#A3623C"/>
<path d="M330.071 237.492C325.655 240.467 318.114 247.915 313.679 254.782C304.23 256.522 287.876 270.687 280.185 278.153C272.494 285.619 264.317 292.299 255.972 294.788C247.626 297.277 244.614 304.088 246.691 310.094C248.787 316.101 252.566 325.644 255.579 331.463C266.451 313.406 301.33 306.782 315.625 313.219C320.715 311.479 325.318 309.439 328.537 307.606C333.551 304.743 341.747 303.077 347.772 304.256C337.687 284.178 330.632 253.079 330.071 237.492Z" fill="#A3623C"/>
<path d="M218.792 351.392C213.122 349.951 206.704 334.383 209.286 327.852C200.847 320.91 185.391 310.282 180.601 307.943C170.59 303.04 160.111 304.238 155.62 309.421C150.156 307.045 141.231 306.427 135.037 309.702C128.843 312.976 116.344 316.925 110.637 318.066C104.948 319.208 100.888 326.954 103.189 332.381C105.491 337.807 114.51 342.541 128.338 335.225C134.775 331.801 140.464 332.006 145.048 334.383C151.129 337.564 161.776 344.076 165.893 347.912C169.168 350.962 170.889 354.068 171.245 356.968C171.75 361.047 172.124 368.308 167.689 371.844C162.001 376.372 151.279 389.003 150.605 394.804C149.539 404.085 161.627 413.029 169.86 403.112C176.484 395.14 185.578 384.643 193.418 381.2C201.259 377.757 215.779 368.569 218.792 351.373V351.392Z" fill="#A3623C"/>
<path d="M324.85 449.686L288.998 473.487C284.021 484.003 275.806 501.443 272.345 508.029C264.766 522.494 266.694 538.081 277.547 539.765C286.266 541.112 319.611 540.083 330.595 537.295C341.56 534.507 347.735 526.535 346.593 515.327C345.452 504.118 343.375 482.993 343.861 475.396C344.685 462.634 338.547 451.052 324.85 449.704V449.686Z" fill="#A3623C"/>
<path d="M486.278 658.304L440.097 652.84C435.849 656.189 427.803 662.888 424.566 665.919L420.88 692.977C428.121 700.274 435.438 707.722 439.498 712.83C445.449 720.334 458.154 725.536 466.462 721.905L515.3 695.989C518.893 690.619 513.56 681.862 509.256 677.858C502.333 671.421 495.129 665.414 486.278 658.304Z" fill="#A3623C"/>
<path d="M336.059 458.574C331.736 458.723 329.023 464.674 329.566 470.044C330.109 475.414 333.832 481.477 337.706 481.327C341.56 481.196 344.648 476.051 343.824 469.052C342.982 462.054 339.577 458.443 336.078 458.574H336.059Z" fill="#FDD23F"/>
<path d="M427.71 666.331C423.032 665.022 416.539 670.354 415.079 675.743C412.965 683.602 414.237 690.994 420.244 692.678C426.194 694.343 431.77 687.794 432.612 680.459C433.455 673.124 431.19 667.304 427.71 666.331Z" fill="#FDD23F"/>
<path d="M607.381 282.289C597.969 284.815 577.742 286.948 570.032 286.068C567.469 285.769 565.186 286.237 566.833 289.38C568.479 292.524 571.249 302.423 569.284 307.849C568.592 309.795 569.134 313.388 573.793 312.284C584.197 309.87 599.036 309.683 608.336 311.928C612.471 312.939 619.918 310.356 619.993 298.325C620.068 286.293 616.775 279.762 607.381 282.27V282.289Z" fill="#DED685"/>
<path d="M246.429 309.476C239.674 313.293 216.022 324.745 210.67 327.046C205.319 329.348 212.186 353.58 220.925 350.661C229.644 347.76 247.103 339.677 251.481 337.076C252.791 334.999 254.232 332.809 255.616 331.444C253.24 326.971 247.683 314.434 246.448 309.457L246.429 309.476Z" fill="#DED685"/>
<path d="M324.644 403.429C334.58 410.577 358.232 399.873 365.118 373.602C369.31 357.603 367.457 336.646 350.616 327.739C345.134 319.431 332.204 312.208 318.582 314.21C290.533 303.47 243.435 319.786 246.092 363.048C239.73 371.787 240.123 391.809 250.152 397.123C243.865 403.185 251.181 430.467 260.668 433.948C260.275 441.638 265.402 454.138 276.031 457.581C276.948 464.56 282.412 472.7 289.616 473.449C296.82 474.197 318.731 466.563 322.287 458.254C325.823 449.946 326.048 437.597 319.835 431.815C322.418 424.704 324.364 414.132 322.754 406.516L324.644 403.447V403.429Z" fill="#DED685"/>
<path d="M529.896 499.758C527.444 501.086 525.124 500.207 521.943 499.739C509.088 497.868 485.604 497.961 476.267 500.918C473.498 501.797 470.71 502.359 468.034 502.153C467.211 509.675 465.62 517.366 465.283 521.295C464.965 525.206 465.676 527.826 468.053 529.004C464.086 535.703 462.196 548.259 465.47 552.806C462.233 558.382 459.183 568.936 462.009 573.838C456.807 581.211 455.179 587.816 456.489 594.01C453.588 600.203 449.734 610.177 453.963 614.705C446.235 616.539 443.578 629.6 446.908 635.718C441.856 638.544 438.469 643.821 439.087 648.33C439.723 652.84 443.858 659.033 449.996 661.204C458.061 664.029 476.342 663.786 485.193 659.146C492.846 655.123 494.811 644.606 493.071 639.367C498.272 636.673 500.462 628.028 500.013 619.776C504.765 617.587 509.331 609.933 509.088 598.856C514.29 595.862 517.321 588.882 515.899 575.672C519.248 573.202 523.01 565.118 522.448 553.91C526.864 550.785 529.896 539.745 527.145 528.312C531.58 525.973 535.547 514.428 529.858 499.814L529.896 499.758Z" fill="#DED685"/>
<path d="M482.966 708.863C473.779 695.84 455.665 714.234 465.845 720.783C470.616 723.852 484.444 733.919 489.104 738.484C490.919 731.262 489.534 718.182 482.966 708.845V708.863Z" fill="#DDDCD6"/>
<path d="M484.201 710.715C485.174 712.268 486.896 716.272 487.644 718.499C491.199 719.959 504.971 726.19 509.331 729.277C510.323 724.337 509.2 708.114 500.237 702.987C492.172 698.365 484.65 704.128 484.22 710.715H484.201Z" fill="#DDDCD6"/>
<path d="M502.352 704.485C503.923 706.337 506.655 710.903 507.591 713.616C514.121 717.04 523.29 720.203 526.995 720.989C526.041 715.282 523.066 704.242 518.369 698.516C513.672 692.771 504.185 695.204 502.37 704.504L502.352 704.485Z" fill="#DDDCD6"/>
<path d="M370.938 193.707C364.763 204.747 365.38 224.638 371.48 238.335C382.24 242.096 403.235 245.595 413.32 243.687C411.692 225.087 386.693 199.339 370.938 193.707Z" fill="#0E141B"/>
<path d="M507.853 193.406C482.255 201.864 455.011 221.586 446.833 245.743C464.965 247.502 499.47 243.161 505.289 237.941C513.148 230.886 512.849 203.66 507.834 193.406H507.853Z" fill="#0E141B"/>
<path d="M390.754 206.861C382.521 215.581 386.937 234.274 393.598 237.062C400.259 239.869 404.582 229.989 405.443 224.581C402.449 219.548 396.087 211.577 390.754 206.861Z" fill="white"/>
<path d="M462.794 221.363C463.206 229.652 466.2 241.366 474.265 240.842C486.858 240.019 489.159 220.072 484.538 204.541C476.304 209.874 466.743 217.359 462.794 221.363Z" fill="white"/>
<path d="M448.966 451.332C422.863 417.707 381.416 408.051 361.189 412.374C342.065 416.472 328.967 414.469 324.195 405.282L325.412 403.991C334.786 410.166 359.392 398.246 366.746 369.299C395.525 377.326 418.578 400.81 428.102 419.522C437.496 425.378 445.018 439.001 448.966 451.351V451.332Z" fill="#824B2C"/>
<path d="M452.858 472.683C453.962 484.789 459.052 493.734 460.848 496.578C463.842 501.312 465.508 502.996 473.236 501.256C483.92 498.842 512.418 497.27 522.579 499.946C531.617 502.322 537.848 494.987 537.417 482.956C535.378 426.446 540.337 371.451 564.793 314.23C561.836 316.869 553.847 321.173 550.31 322.464C550.123 326.262 546.437 329.368 542.638 329.294C540.954 329.256 536.763 330.248 534.255 330.79C525.517 374.165 523.309 458.948 525.854 483.068C526.471 488.85 523.533 491.095 518.762 490.309C506.936 488.363 483.696 490.029 470.504 492.499C462.495 493.996 458.341 490.515 452.858 472.72V472.683Z" fill="#824B2C"/>
<path d="M504.616 134.783C529.278 153.701 551.003 197.842 552.556 217.995C556.148 219.511 562.791 222.074 567.132 225.349C567.75 177.577 525.872 141.332 504.616 134.783Z" fill="#824B2C"/>
<path d="M565.56 286.929C566.234 286.087 569.134 285.638 570.238 285.788C574.654 286.405 588.632 285.601 596.734 284.833C596.379 279.07 600.551 273.775 604.518 271.604C593.572 262.473 569.901 259.31 557.963 261.425C551.302 262.604 545.744 268.573 545.37 275.609C547.84 278.958 558.637 286.443 565.56 286.929Z" fill="#824B2C"/>
<path d="M619.75 299.915C633.559 301.918 659.793 293.946 665.5 287.809C671.357 281.522 671.544 273.55 667.372 266.047C678.168 275.496 679.684 293.722 670.628 300.103C663.629 305.042 644.712 316.943 635.936 320.237C621.528 325.626 605.548 322.576 600.177 310.918C601.899 311.161 606.595 311.311 608.485 311.704C613.949 312.864 619.432 307.924 619.769 299.915H619.75Z" fill="#824B2C"/>
<path d="M334.543 266.195C323.784 270.649 309.02 280.996 301.03 288.855C293.04 296.714 264.299 313.031 249.891 318.308C251.369 322.387 253.614 328.244 255.579 330.826C267.798 315.033 293.714 306.819 315.476 313.218C321.015 311.31 325.337 309.906 329.005 307.436C332.653 304.966 341.953 302.908 347.623 304.274C343.244 295.536 335.46 274.129 334.543 266.195Z" fill="#824B2C"/>
<path d="M570.014 299.69C578.921 298.642 607.774 296.77 619.937 296.789C620.498 307.848 616.195 312.919 606.427 311.478C600.458 310.599 584.702 309.176 574.149 312.32C570.594 313.387 568.199 311.553 569.172 308.278C569.864 305.921 570.332 302.627 570.014 299.671V299.69Z" fill="#B5AF6C"/>
<path d="M516.423 290.541C515.712 288.071 511.689 286.817 508.863 288.314C502.894 291.495 493.276 293.086 487.101 290.653C485.923 292.412 479.037 296.753 476.567 297.127C475.163 297.333 474.583 298.924 475.107 299.841C478.438 305.492 478.494 313.126 476.061 314.66C472.581 316.868 466.967 317.598 463.749 314.099C463.974 320.33 471.552 325.046 477.315 321.921C484.538 317.972 486.297 311.816 482.218 301.936C485.754 300.402 489.235 297.314 490.376 294.302L491.63 294.264C497.618 300.29 500.799 309.421 501.528 313.407C503.081 321.939 498.16 336.928 484.912 341.306C489.029 347.088 494.511 352.196 501.341 346.807C505.682 343.383 515.169 336.329 519.267 333.054C523.777 332.736 528.586 331.931 532.141 330.715C535.678 329.499 539.439 329.443 542.695 329.293C545.969 329.125 551.807 326.58 549.955 318.683C546.437 320.686 538.503 321.116 535.378 321.228C532.253 321.341 526.191 321.715 522.804 322.931C519.417 324.147 512.98 320.199 514.589 315.577C516.984 308.635 519.043 296.379 516.498 290.541H516.423Z" fill="#824B2C"/>
<path d="M545.782 312.882C551.227 312.377 565.504 306.089 569.546 301.262C569.827 304.536 569.658 308.746 568.629 310.505C563.783 314.585 556.186 320.31 550.16 321.62C549.898 318.664 548.85 315.576 545.782 312.882Z" fill="#824B2C"/>
<path d="M541.067 298.698C540.262 302.16 538.316 304.574 535.565 306.071L534.948 302.029C536.95 301.486 539.57 300.308 541.067 298.68V298.698Z" fill="#824B2C"/>
<path d="M430.984 686.035C436.411 693.801 446.103 703.119 450.463 706.862C454.804 710.604 459.202 711.221 464.179 710.585C462.401 713.467 463.243 719.511 466.761 721.569C461.915 725.798 447.469 721.494 442.043 715.432C437.159 709.986 424.678 696.869 420.786 692.959C424.847 693.277 429.113 690.32 430.984 686.035Z" fill="#824B2C"/>
<path d="M444.476 658.248C440.06 661.224 434.465 666.407 431.639 670.112C430.629 668.11 427.429 665.583 424.473 666.313C428.552 662.421 436.729 655.573 440.696 653.084C441.369 654.469 442.848 656.751 444.476 658.248Z" fill="#824B2C"/>
<path d="M104.144 323.96C106.09 330.434 117.41 332.68 123.511 329.031C130.453 324.877 138.761 323.792 144.823 327.478C150.886 331.164 166.099 341.849 169.972 349.97C162.768 344.768 149.352 336.198 144.43 333.877C139.509 331.557 133.409 331.145 127.627 335.262C117.822 342.242 99.1664 339.641 104.125 323.941L104.144 323.96Z" fill="#824B2C"/>
<path d="M160.148 306.502C163.086 310.3 172.779 319.301 178.71 323.623C171.899 320.742 159.755 312.92 155.414 309.477C156.163 308.673 158.296 307.194 160.148 306.502Z" fill="#824B2C"/>
<path d="M156.256 383.781C154.628 392.201 164.808 395.139 170.346 389.881C177.363 383.22 183.8 378.729 191.566 375.043C197.067 372.423 213.721 362.73 215.18 349.875C215.966 350.549 217.276 351.204 218.342 351.278C218.586 362.393 204.664 376.67 193.549 380.955C186.85 383.538 175.024 396.374 170.552 402.268C166.08 408.163 158.614 408.78 153.992 403.915C149.37 399.05 148.697 392.987 156.256 383.762V383.781Z" fill="#824B2C"/>
<path d="M127.384 335.637C124.109 342.841 124.727 352.833 130.92 354.592C137.114 356.351 142.016 350.906 144.056 347.725C146.096 344.544 150.624 340.408 153.786 339.604C141.343 330.117 134.457 330.547 127.384 335.637Z" fill="#824B2C"/>
<path d="M320.94 460.332C327.171 464.561 334.824 499.309 334.057 516.804C333.739 524.102 325.767 527.021 320.416 527.901C315.064 528.799 288.793 529.36 280.166 527.863C273.692 526.759 270.867 518.526 272.139 508.889C268.041 516.374 263.924 536.489 277.135 539.446C290.346 542.402 325.973 539.708 335.067 536.265C344.142 532.822 347.192 522.25 346.219 512.145C345.246 502.041 343.188 480.279 343.918 474.478C341.934 484.227 331.587 483.909 329.921 471.54C328.48 460.744 334.599 455.186 340.419 459.92C336.994 455.673 331.474 450.096 324.626 450.34C324.457 454.4 323.634 457.563 320.921 460.294L320.94 460.332Z" fill="#824B2C"/>
<path d="M211.063 342.279C222.01 338.462 245.475 327.16 251.556 322.875C252.735 325.326 254.587 329.312 255.579 330.846C253.483 333.26 252.304 335.337 251.762 337.227C245.026 340.595 222.309 351.392 218.324 351.298C215.741 351.242 212.748 346.115 211.063 342.279Z" fill="#B5AF6C"/>
<path d="M466.986 510.648C471.907 511.658 478.887 510.255 482.629 508.908C489.945 506.269 508.133 505.165 516.816 507.523C523.009 509.207 529.446 508.552 531.898 506.381C531.823 504.304 530.85 502.115 530.026 499.926C526.958 500.936 522.916 500.244 519.323 499.271C513.036 497.568 483.209 498.541 476.398 500.974C473.61 501.965 469.493 502.845 467.716 502.471C467.248 505.745 467.473 507.972 466.967 510.648H466.986Z" fill="#B5AF6C"/>
<path d="M465.788 535.311C468.969 536.976 472.525 536.995 476.641 536.396C484.126 535.329 511.24 534.581 517.19 534.937C520.315 535.124 525.03 534.806 527.949 533.514C528.398 533.346 527.313 528.2 527.313 528.2C524.525 529.042 518.144 528.069 514.252 527.938C503.717 527.583 483.752 528.481 476.959 529.585C474.602 529.959 470.017 530.128 468.053 529.173C466.799 531.587 466.163 533.982 465.751 535.33L465.788 535.311Z" fill="#B5AF6C"/>
<path d="M462.514 559.43C465.395 561.114 468.202 561.525 470.578 561.207C480.009 559.972 507.478 559.018 511.595 560.029C514.739 560.796 519.173 560.646 522.111 559.954C522.654 558.606 522.86 556.08 522.654 554.303C520.726 554.378 518.088 554.34 514.626 553.704C507.31 552.338 479.018 552.619 474.171 553.835C471.383 554.527 466.761 554.097 465.545 553.105C463.973 554.789 462.869 557.203 462.514 559.43Z" fill="#B5AF6C"/>
<path d="M459.82 598.875C452.091 596.348 457.686 578.291 462.196 573.707C471.477 580.462 505.888 581.772 516.049 575.223C516.273 577.169 516.704 580.78 516.61 582.427C506.955 586.394 479.093 588.171 469.306 585.252C461.447 582.913 457.761 589.874 459.801 598.856L459.82 598.875Z" fill="#B5AF6C"/>
<path d="M458.94 617.773C456.32 616.613 453.813 614.817 452.914 613.077C451.23 609.783 452.709 598.65 456.488 595.469C459.314 604.488 499.601 603.44 509.088 598.257C509.125 599.417 509.293 601.681 508.844 603.421C503.006 607.295 477.857 610.7 468.09 607.931C457.836 605.031 454.486 611.187 458.921 617.773H458.94Z" fill="#B5AF6C"/>
<path d="M456.713 640.285C451.998 639.405 446.234 637.197 445.954 633.773C445.149 624.211 448.124 616.147 454.505 614.631C466.088 624.286 491.554 623.126 500.087 619.533C500.274 621.517 500.349 623.388 499.937 625.39C489.945 629.301 470.485 630.948 461.297 626.737C453.045 622.976 448.424 633.212 456.713 640.285Z" fill="#B5AF6C"/>
<path d="M494.099 645.375C485.511 650.726 461.297 650.895 453.569 647.658C446.477 644.682 442.286 652.972 450.426 660.999C434.783 655.46 438.431 639.331 446.59 635.869C453.981 642.736 479.373 645.805 493.182 639.462C494.062 641.183 494.137 643.167 494.099 645.393V645.375Z" fill="#B5AF6C"/>
<path d="M365.848 347.013C366.11 354.254 361.226 361.365 357.278 363.741C354.303 375.998 343.113 396.674 326.31 397.909C325.3 399.313 324.514 402.325 325.412 403.991C340.437 413.253 375.242 384.717 365.848 346.994V347.013Z" fill="#B5AF6C"/>
<path d="M357.091 346.357C355.313 353.3 349.775 359.736 343.057 363.872C342.589 372.479 337.799 391.21 329.117 397.142C350.373 393.886 360.328 362.618 357.091 346.357Z" fill="#B5AF6C"/>
<path d="M340.119 343.084C337.855 349.558 322.212 357.155 314.69 356.014C323.597 364.902 331.736 385.429 326.31 397.91C341.167 393.288 347.323 365.295 340.138 343.084H340.119Z" fill="#B5AF6C"/>
<path d="M319.48 363.479C320.247 371.712 304.735 383.051 289.822 384.829C307.055 386.55 319.125 392.351 324.738 401.351C328.743 395.438 330.745 377.269 319.48 363.479Z" fill="#B5AF6C"/>
<path d="M248.712 413.459C252.959 421.468 262.128 424.63 270.792 423.058C283.853 420.701 316.842 407.266 323.746 399.369C325.206 400.716 326.01 402.981 324.083 404.665C303.968 422.235 268.022 436.494 260.219 433.799C255.13 432.04 250.283 418.549 248.693 413.459H248.712Z" fill="#B5AF6C"/>
<path d="M261.38 433.835C260.762 444.202 266.975 456.608 278.445 456.851C289.186 458.516 314.653 444.22 319.312 433.592C321.782 427.96 324.645 416.134 322.811 405.318C309.862 416.676 281.888 432.881 261.38 433.835Z" fill="#B5AF6C"/>
<path d="M276.574 457.376C276.78 463.14 282.15 472.215 289.111 473.413C296.053 474.61 318.545 466.639 322.268 458.106C325.505 450.678 325.356 438.103 319.761 431.404C316.542 442.444 290.72 458.013 276.574 457.395V457.376Z" fill="#B5AF6C"/>
<path d="M330.745 464.131C336.209 463.121 341.747 468.491 343.6 474.273C343.6 477.061 341.691 481.402 337.35 481.327C332.672 481.271 327.901 471.56 330.764 464.112L330.745 464.131Z" fill="#DAB636"/>
<path d="M413.694 682.76C417.53 689.478 430.236 682.779 431.845 671.178C434.539 681.076 429.618 691.536 423.874 692.528C418.129 693.52 413.769 689.459 413.694 682.76Z" fill="#DAB636"/>
<path d="M467.416 707.441C475.388 713.018 487.139 729.914 488.729 738.129C482.18 732.983 469.886 723.646 466.743 721.588C462.551 718.874 460.848 710.267 467.416 707.441Z" fill="#B5B5B0"/>
<path d="M486.615 704.354C493.725 708.283 505.214 720.408 509.387 728.81C505.14 726.77 492.752 720.259 487.925 718.537C486.839 715.992 485.024 712.474 484.164 711.015C484.388 709.219 485.174 705.907 486.615 704.354Z" fill="#B5B5B0"/>
<path d="M504.728 698.722C510.435 702.296 523.683 716.741 527.332 721.195C523.402 720.035 511.015 715.712 507.759 713.935C506.543 710.791 504.204 706.6 501.958 704.784C502.389 702.782 503.306 700.649 504.728 698.703V698.722Z" fill="#B5B5B0"/>
<path d="M387.984 212.157C392.475 215.731 400.559 223.403 404.058 229.372L405.686 224.825C403.684 221.026 394.852 209.893 391.24 207.086C389.762 208.078 388.695 209.837 387.984 212.157Z" fill="#DCDDDD"/>
<path d="M463.094 226.733C467.285 222.729 479.018 214.215 486.128 209.874C485.81 207.666 485.043 205.813 484.407 204.092C478.568 207.572 466.518 217.377 462.458 221.849C462.626 223.01 462.925 225.105 463.094 226.733Z" fill="#DCDDDD"/>
<path d="M565.149 224.487C563.689 178.194 524.75 128.813 452.597 124.734C408.156 122.227 369.946 140.022 349.026 173.067C324.027 212.568 328.088 265.897 360.179 324.877L355.968 324.371C323.41 264.512 319.125 210.921 345.34 170.354C367.869 135.512 404.395 117.53 452.877 120.281C531.112 124.697 569.265 178.868 570.033 227.294L565.167 224.487H565.149Z" fill="#0E141B"/>
<path d="M583.823 242.562C578.172 234.647 563.727 223.457 552.574 219.397C549.487 218.274 550.011 216.59 553.21 217.376C565.691 220.426 583.767 234.928 588.482 242.375L583.823 242.562Z" fill="#0E141B"/>
<path d="M602.404 311.123C606.614 319.562 615.689 322.051 630.434 319.973C639.304 318.72 660.467 305.341 669.243 298.567C679.852 290.39 674.07 271.734 661.122 263.707C650.007 256.821 626.374 252.891 612.845 257.307C611.947 257.588 611.423 257.438 610.899 256.783C604.294 248.906 589.1 241.889 578.209 244.246C575.552 244.827 575.047 243.049 577.629 242.207C588.987 238.446 605.454 245.369 612.864 253.677C627.291 249.392 653.356 254.669 662.881 260.601C677.869 269.957 684.923 291.195 671.357 301.636C663.161 307.942 640.857 321.938 630.902 323.641C617.261 325.98 603.976 324.988 598.231 310.692L602.423 311.123H602.404Z" fill="#0E141B"/>
<path d="M594.47 284.814C594.919 276.974 599.055 271.678 606.109 269.19C613.425 266.607 625.813 264.175 633.372 263.969C636.46 263.894 636.516 265.653 633.541 266.084C624.409 267.375 614.324 269.807 607.213 272.464C602.198 274.336 598.755 278.471 598.606 284.159L594.489 284.814H594.47Z" fill="#0E141B"/>
<path d="M607.232 313.22C596.117 311.087 580.586 311.798 573.419 313.594C568.723 314.773 566.047 311.779 567.899 307.7C569.228 304.762 567.656 294.021 565.205 289.306C563.652 286.312 564.905 284.216 569.639 284.703C576.058 285.339 594.695 284.759 607.887 280.568C614.174 278.565 621.322 282.738 621.827 294.826C622.313 306.933 617.111 315.091 607.232 313.201V313.22ZM607.737 310.245C616.082 311.854 618.683 304.687 618.29 294.976C617.972 286.817 614.211 281.765 608.56 283.562C596.94 287.248 576.787 287.959 569.995 287.285C568.367 287.135 567.525 287.772 567.862 288.427C570.463 293.423 572.315 304.631 570.556 308.448C569.733 310.245 570.856 311.704 573.457 311.049C579.519 309.515 598.025 308.392 607.737 310.245Z" fill="#0E141B"/>
<path d="M577.592 311.291C581.989 305.584 579.182 291.326 573.756 286.498L576.563 286.404C581.989 292.055 584.309 305.359 580.23 311.123L577.611 311.31L577.592 311.291Z" fill="#0E141B"/>
<path d="M589.175 310.3C593.984 303.582 591.214 290.353 585.919 286.03L588.482 285.656C594.133 291.064 596.547 303.695 591.514 310.506L589.175 310.281V310.3Z" fill="#0E141B"/>
<path d="M601.113 310.862C607.175 305.885 607.924 291.495 598.905 284.534L601.281 283.805C609.365 289.961 610.862 304.257 603.826 311.143L601.113 310.862Z" fill="#0E141B"/>
<path d="M553.042 251.657C555.531 248.083 560.957 245.969 566.122 246.1C569.153 246.174 569.265 247.784 566.271 248.214C561.799 248.869 557.645 250.759 554.446 253.229C552.78 254.52 551.639 253.64 553.023 251.657H553.042Z" fill="#0E141B"/>
<path d="M556.523 275.665C557.327 277.461 558.282 279.127 559.255 279.632C561.631 280.904 560.845 282.326 558.712 281.69C556.916 281.148 555.681 279.819 554.315 277.499C553.211 275.628 552.425 274.43 551.283 273.719C549.131 272.39 550.086 271.137 552.387 271.904C554.034 272.447 555.643 273.663 556.523 275.665Z" fill="#0E141B"/>
<path d="M566.178 289.212C558.599 287.397 551.788 283.823 546.68 279.238C535.396 269.078 521.494 263.67 512.456 265.822C502.913 268.086 481.338 275.178 477.165 277.779C474.115 279.669 471.177 282.625 469.755 284.627C468.221 286.779 464.665 290.073 461.522 292.973C457.33 296.828 458.996 301.655 461.129 305.023C463.318 308.485 464.722 312.882 466.031 316.7C467.379 320.629 474.134 322.051 478.905 318.814C485.043 314.66 483.714 308.148 479.953 301.506C478.606 299.129 479.672 298.119 481.544 300.102C487.868 306.82 489.085 315.876 481.151 321.696C474.527 326.561 465.358 324.821 462.944 317.822C461.672 314.117 460.081 309.626 458.004 306.371C455.684 302.722 453.663 294.863 459.183 290.522C462.944 287.584 465.451 284.758 466.855 282.756C468.632 280.23 472.356 277.255 475.799 275.122C480.496 272.221 502.782 264.868 511.838 262.697C521.643 260.358 536.575 266.234 548.551 276.993C553.379 281.334 559.722 284.384 566.963 286.106L566.178 289.212Z" fill="#0E141B"/>
<path d="M492.284 292.169C491.517 297.183 487.12 302.161 482.535 303.321L480.702 300.495C483.995 300.065 488.523 296.079 489.197 291.738L492.284 292.187V292.169Z" fill="#0E141B"/>
<path d="M487.906 292.281C485.062 290.971 485.529 289.568 488.58 290.26C494.1 291.551 500.985 290.653 507.572 287.846C510.304 286.686 510.94 288.033 508.508 289.755C503.006 293.628 493.145 294.676 487.906 292.281Z" fill="#0E141B"/>
<path d="M524.338 332.567C519.361 334.213 508.564 342.372 501.678 348.36C498.123 351.447 494.249 351.784 490.638 350.062C485.679 347.686 481.432 340.538 481.638 335.112C481.769 331.35 486.914 325.232 496.514 317.485C499.208 315.314 499.938 314.585 498.946 310.468C497.861 305.865 494.923 299.428 489.497 295.031L491.312 292.074C497.15 296.808 501.135 305.023 502.314 309.925C503.643 315.52 502.501 316.774 498.89 319.712C486.97 329.348 485.23 333.371 485.174 335.13C485.006 339.715 488 344.879 492.172 346.881C494.156 347.817 496.794 348.229 499.9 345.515C502.876 342.933 511.876 335.673 518.594 332.23L524.338 332.585V332.567Z" fill="#0E141B"/>
<path d="M520.483 334.194C517.377 334.194 514.758 333.577 513.71 330.714C512.961 328.637 510.622 326.541 508.751 325.306C506.244 323.641 506.73 318.832 506.992 316.849C507.31 314.322 510.042 307.755 512.662 303.488C515.506 298.848 516.909 295.573 515.824 291.457C515.188 289.005 516.741 288.369 517.789 290.652C519.885 295.236 518.013 300.588 515.3 305.041C512.699 309.326 510.248 315.146 510.005 317.167C509.687 319.786 510.061 322.107 510.884 322.743C513.635 324.932 515.731 326.878 516.704 329.329C517.246 330.658 518.35 331.126 520.483 331.032C523.833 330.882 529.428 330.284 532.964 329.067C535.846 328.057 540.187 327.627 542.807 327.608C548.757 327.627 550.647 320.123 545.688 315.595C543.012 313.144 539.195 311.722 535.097 312.208L535.415 308.952C539.944 308.559 544.996 310.112 547.99 312.863C554.67 318.963 553.36 330.658 542.844 330.826C540.093 330.845 536.482 331.294 534.106 332.043C530.326 333.24 524.039 334.157 520.521 334.176L520.483 334.194Z" fill="#0E141B"/>
<path d="M533.619 312.153C534.705 308.691 534.087 302.31 532.646 297.857C531.823 295.293 533.432 294.694 534.63 297.108C536.95 301.805 537.755 309.102 535.453 313.182C534.274 315.277 532.815 314.641 533.601 312.153H533.619Z" fill="#0E141B"/>
<path d="M534.461 300.683C536.033 300.383 538.185 299.504 539.551 298.568C541.59 297.165 542.675 298.306 540.973 300.14C539.326 301.918 537.118 303.209 535.06 303.602L534.461 300.701V300.683Z" fill="#0E141B"/>
<path d="M415.341 243.666C410.963 221.942 389.126 197.336 366.896 191.049C364.295 190.319 363.696 192.153 366.223 193.069C367.27 193.444 368.3 193.893 369.347 194.342C363.322 204.24 364.576 223.607 368.805 234.909C370.208 238.708 371.181 239.887 373.726 240.729C386.693 245.07 405.312 246.623 413.975 245.332C415.21 245.145 415.566 244.789 415.341 243.666ZM372.379 237.51C367.963 227.05 365.774 205.438 371.518 195.352C390.324 204.465 408.006 224.842 411.749 242.488C401.083 243.573 383.381 241.028 372.379 237.51Z" fill="#0E141B"/>
<path d="M508.882 192.807C516.329 208.226 512.961 232.514 506.674 239.045C500.649 245.313 456.507 249.355 446.272 247.409C444.85 247.128 444.644 246.585 445.037 245.425C453.083 221.811 480.084 200.386 510.529 191.03C514.028 189.963 514.645 191.928 511.184 193.051C483.733 201.901 458.079 223.214 448.761 244.658C462.757 246.473 500.237 240.542 504.204 236.668C509.425 231.579 512.437 206.392 506.45 193.668L508.882 192.789V192.807Z" fill="#0E141B"/>
<path d="M395.694 238.782C386.544 239.325 379.901 217.207 390.043 206.467L391.615 207.889C383.138 217.282 389.238 236.406 395.619 235.901C400.914 235.583 404.095 229.108 404.395 222.821L406.191 225.852C405.48 231.878 402.131 238.408 395.694 238.782Z" fill="#0E141B"/>
<path d="M473.703 242.32C467.192 242.47 462.626 234.91 461.747 223.459L463.805 221.513C464.61 232.478 469.007 239.401 473.947 239.345C484.313 239.382 488.542 221.026 483.49 205.477L485.305 204.316C491.704 221.045 487.232 242.021 473.722 242.339L473.703 242.32Z" fill="#0E141B"/>
<path d="M474.433 216.535C473.703 216.535 473.179 217.489 473.236 218.986C473.292 220.296 473.909 221.587 474.564 221.569C475.256 221.55 475.874 220.371 475.818 218.949C475.78 217.658 475.256 216.535 474.452 216.535H474.433Z" fill="#0E141B"/>
<path d="M397.004 222.858C397.696 222.858 398.22 221.773 398.164 220.519C398.089 218.742 397.546 217.9 396.835 217.993C396.068 218.087 395.638 219.247 395.675 220.445C395.731 221.792 396.218 222.858 397.004 222.858Z" fill="#0E141B"/>
<path d="M331.007 239.101C324.27 244.078 319.536 248.569 315.494 255.025C311.434 261.499 306.082 266.458 301.442 269.489C298.878 271.173 297.494 269.976 300.132 267.824C303.893 264.736 309.076 258.823 312.65 253.36C317.235 246.324 323.297 239.7 330.95 234.273L331.007 239.12V239.101Z" fill="#0E141B"/>
<path d="M254.494 332.643C250.358 324.615 247.814 318.74 245.662 312.602C242.106 302.423 247.776 295.238 257.282 292.487C262.951 290.84 272.906 283.992 278.202 278.154C286.229 269.284 307.018 253.192 314.372 252.668L312.463 256.747C304.96 258.693 287.894 272.334 280.728 280.268C275.133 286.443 264.486 293.722 258.386 295.481C251.219 297.558 245.793 303.358 248.674 311.592C250.695 317.355 252.978 322.819 256.664 330.023L254.512 332.643H254.494Z" fill="#0E141B"/>
<path d="M264.804 301.224C265.777 298.024 267.929 294.825 270.343 292.298C272.401 290.147 273.954 291.232 272.064 293.533C269.987 296.078 268.303 298.792 266.694 302.16C265.609 304.461 263.999 303.844 264.785 301.224H264.804Z" fill="#0E141B"/>
<path d="M345.733 299.652C338.042 302.497 325.655 303.189 318.376 301.131C315.756 300.382 316.13 298.679 318.825 299.054C327.582 300.307 337.294 299.185 344.404 296.396L345.733 299.652Z" fill="#0E141B"/>
<path d="M311.34 311.984C316.205 311.816 323.746 308.186 328.031 305.94C331.474 304.144 338.005 301.449 346.818 302.104L348.09 305.791C340.044 304.818 333.514 306.745 329.622 308.915C325.973 310.955 321.108 313.2 316.542 314.304L311.34 311.984Z" fill="#0E141B"/>
<path d="M251.369 338.462C243.791 342.523 231.254 348.941 220.139 352.627C212.13 355.284 202.082 329.106 209.66 325.832C218.137 322.164 237.747 313.37 246.392 308.205L247.009 310.825C237.56 316.363 218.417 325.364 210.914 328.601C206.835 330.36 214.918 351.28 219.315 349.745C230.917 345.591 245.606 338.818 252.885 334.776L251.388 338.462H251.369Z" fill="#0E141B"/>
<path d="M228.971 347.481C222.609 343.514 217.463 330.49 218.604 323.717L220.85 322.818C219.446 328.787 225.172 343.027 231.085 346.489L228.971 347.481Z" fill="#0E141B"/>
<path d="M239.244 342.896C232.227 339.191 227.811 325.662 229.233 318.683L231.572 317.504C229.57 322.612 234.528 338.349 241.396 341.829L239.244 342.896Z" fill="#0E141B"/>
<path d="M248.431 338.555C242.649 334.588 237.353 320.798 238.813 314.005L241.096 312.789C239.636 319.338 244.894 333.784 250.489 337.489L248.431 338.555Z" fill="#0E141B"/>
<path d="M153.749 308.821C160.354 301.542 171.75 301.86 180.956 306.445C186.57 309.233 204.252 321.601 210.689 326.972L208.762 329.498C202.55 324.315 185.222 312.077 179.833 309.382C172.442 305.715 162.469 304.517 156.855 310.73L153.749 308.821Z" fill="#0E141B"/>
<path d="M219.933 351.054C220.476 362.337 209.735 375.716 193.942 382.565C187.075 385.54 178.43 395.569 170.795 404.589C163.629 413.046 149.932 409.005 149.108 396.131C148.659 389.264 158.895 376.989 166.305 370.963C168.4 369.261 169.598 367.202 169.953 364.395C170.253 362.038 169.879 359.175 169.523 356.536C169.13 353.468 168.494 352.308 165.799 349.95C161.589 346.245 149.745 338.274 143.289 335.111C140.164 333.577 135.393 332.323 129.199 336.402C119.899 342.54 106.932 341.792 102.722 334.849C99.054 328.805 101.131 319.749 108.934 317.111C114.155 315.333 131.631 309.644 135.486 307.848C142.859 304.424 153.206 305.509 159.101 310.299C164.49 314.697 173.228 320.123 178.43 322.668C181.106 323.996 180.114 325.774 177.382 324.52C172.199 322.144 162.076 316.493 157.342 312.695C152.009 308.428 143.27 307.904 136.571 311.01C132.604 312.863 114.529 318.607 110.038 320.161C104.967 321.901 103.021 328.431 105.753 332.959C109.177 338.629 119.338 339.322 127.646 333.839C135.037 328.955 141.549 330.695 144.524 332.155C151.223 335.448 163.46 343.532 167.858 347.405C170.889 350.081 172.274 352.588 172.741 356.125C173.097 358.819 173.546 362.187 173.209 364.826C172.685 368.793 171.75 370.57 168.569 373.153C160.616 379.608 152.158 390.517 152.514 395.906C153.094 404.907 162.787 409.042 168.569 402.194C176.353 393.006 185.353 383.126 192.576 379.889C206.198 373.77 217.5 360.597 216.845 350.661L219.914 351.073L219.933 351.054Z" fill="#0E141B"/>
<path d="M155.47 340.538C151.485 342.166 147.256 345.665 144.543 350.081C140.033 357.454 131.089 358.707 126.785 354.516C123.286 351.11 122.238 342.821 125.831 336.515L130.602 334.494C125.924 340.388 125.999 348.696 129.161 351.765C132.417 354.928 138.667 353.674 142.091 348.116C144.599 344.056 148.678 340.295 152.476 338.461L155.47 340.538Z" fill="#0E141B"/>
<path d="M569.658 311.272C565.935 315.557 556.373 322.144 549.768 324.128L549.824 320.797C556.317 318.682 566.009 311.927 568.966 307.904L569.677 311.272H569.658Z" fill="#0E141B"/>
<path d="M345.938 322.743C354.546 321.19 367.532 324.54 374.848 331.107C377 333.035 375.616 334.288 373.557 332.791C366.166 327.402 356.174 324.951 348.951 325.962L345.957 322.743H345.938Z" fill="#0E141B"/>
<path d="M325.767 397.798C352.506 379.984 344.797 313.856 304.043 312.864C266.188 311.929 247.215 335.674 247.626 360.561L245.025 364.921C241.62 333.204 265.346 308.561 304.174 309.571C346.912 310.675 356.866 374.913 330.221 397.685L325.748 397.798H325.767Z" fill="#0E141B"/>
<path d="M249.441 398.882C232.152 386.607 236.324 342.204 288.587 343.963C325.056 345.179 337.219 388.273 325.543 402.063L323.821 399.144C332.41 386.776 319.91 348.398 288.493 347.368C239.636 345.797 236.736 385.728 251.144 396.469L249.441 398.864V398.882Z" fill="#0E141B"/>
<path d="M261.118 435.65C255.298 435.501 248.15 420.831 246.522 409.884C245.138 400.472 247.383 394.84 258.142 388.964C273.243 380.694 308.945 380.319 324.832 398.077C328.293 401.969 324.701 405.711 323.204 407.059C306.793 421.86 273.617 435.95 261.136 435.65H261.118ZM259.695 391.846C250.732 397.048 248.618 400.884 249.89 409.454C251.537 420.625 257.843 432.263 261.342 432.394C276.779 432.975 310.835 414.225 321.201 404.869C323.784 402.549 323.971 401.613 322.418 399.873C307.224 382.864 272.644 384.342 259.695 391.846Z" fill="#0E141B"/>
<path d="M326.759 396.824C341.148 394.673 355.126 374.913 356.174 355.827C357.484 331.913 342.458 313.837 320.023 315.615L316.28 313.238C342.945 308.953 361.095 328.919 359.598 356.089C358.513 376.073 345.957 396.693 325.861 399.968L326.74 396.843L326.759 396.824Z" fill="#0E141B"/>
<path d="M325.299 402.064C331.063 407.565 346.818 402.176 357.11 386.945C369.927 367.971 367.813 339.94 351.215 329.256L349.101 325.289C370.564 334.926 375.129 366.343 359.879 388.91C347.249 407.621 330.052 410.428 323.541 404.235L325.299 402.064Z" fill="#0E141B"/>
<path d="M323.615 405.432C326.329 415.873 323.335 433.294 316.056 440.61C305.708 450.995 285.106 460.426 276.256 458.873C265.216 456.927 258.797 444.09 258.91 433.93H261.866C261.773 443.248 267.686 453.764 276.948 455.542C286.379 457.376 307.018 445.082 313.885 438.009C319.274 432.452 322.867 416.771 320.977 406.947L323.615 405.45V405.432Z" fill="#0E141B"/>
<path d="M277.977 457.338C277.173 462.596 283.759 470.679 289.504 471.764C298.223 473.392 319.312 464.036 321.726 455.859C324.008 448.057 323.11 434.939 318.881 433.087L320.079 430.523C326.216 433.237 327.433 448.805 324.907 456.645C321.407 467.536 297.512 476.742 288.624 475.151C281.027 473.785 274.104 463.344 275.058 456.982L277.958 457.338H277.977Z" fill="#0E141B"/>
<path d="M324.251 448.899C335.198 447.851 346.593 460.014 345.415 474.272C344.76 482.206 346.612 503.407 347.473 510.891C349.419 528.106 345.059 536.209 328.967 539.67C320.341 541.542 281.027 543.75 273.879 540.494C264.448 536.19 262.446 520.809 271.372 505.914C275.507 499.009 283.31 482.3 287.67 472.888L290.645 473.655C286.266 483.104 278.987 499.459 274.44 507.598C267.704 519.611 268.116 533.608 275.47 536.957C281.177 539.558 322.511 537.575 328.462 536.34C341.092 533.701 345.751 525.955 344.067 511.097C343.207 503.556 341.822 482.262 342.496 474.179C343.581 461.268 332.99 451.369 324.289 452.192L324.251 448.955V448.899Z" fill="#0E141B"/>
<path d="M337.575 482.656C332.579 482.956 328.556 476.313 328.2 470.007C327.695 461.156 331.643 457.62 335.573 457.133C340.999 456.46 344.592 463.439 345.153 469.071C346.051 478.109 342.496 482.357 337.575 482.656ZM336.19 459.884C332.635 460.015 330.745 463.795 331.082 469.82C331.381 474.984 334.487 480.149 337.481 480.037C341.093 479.906 342.926 475.826 342.271 469.352C341.785 464.524 339.446 459.772 336.19 459.884Z" fill="#0E141B"/>
<path d="M450.145 460.201C437.084 428.522 390.361 408.631 357.783 414.956C340.4 418.324 326.197 415.367 322.511 405.544L325.449 403.598C327.732 410.727 340.381 414.563 357.334 411.27C387.722 405.357 431.995 420.401 448.405 448.824L450.145 460.239V460.201Z" fill="#0E141B"/>
<path d="M569.359 311.197C557.627 332.529 549.543 357.472 545.015 382.77C538.409 419.708 538.597 457.169 539.551 483.515C540.037 497.137 531.449 504.098 523.702 502.264C510.847 499.214 488.056 499.832 473.891 503.593C467.847 505.202 464.591 504.585 461.017 500.225C455.871 493.938 450.351 478.313 449.229 465.627C447.806 449.366 438.993 428.315 426.681 420.007C424.66 418.641 425.446 417.2 427.691 418.136C441.332 423.862 452.26 448.094 453.719 464.916C454.936 478.781 460.456 493.563 463.936 497.399C466.312 500.019 468.52 500.749 473.067 499.645C489.796 495.584 511.371 495.734 524.057 498.578C530.999 500.131 535.883 493.227 535.528 483.646C533.937 439.355 534.33 368.362 562.679 314.809L569.34 311.197H569.359Z" fill="#0E141B"/>
<path d="M531.018 498.822C534.966 506.176 535.022 517.16 532.047 524.738C530.251 529.323 526.883 530.894 521.98 530.333C510.921 529.079 483.752 530.707 472.712 531.998C467.117 532.635 462.139 527.994 463.749 520.098C464.535 516.224 465.919 507.767 466.481 501.685L469.456 502.097C468.894 508.272 468.09 516.411 467.267 520.435C466.144 526.029 468.894 528.649 472.749 528.2C483.883 526.909 510.977 525.318 522.186 526.591C524.525 526.853 527.968 526.46 529.034 523.297C531.299 516.599 531.86 506.663 528.398 500.188L531.018 498.841V498.822Z" fill="#0E141B"/>
<path d="M528.791 527.508C530.382 533.908 529.502 545.621 527.014 551.085C525.012 555.501 522.429 557.073 516.853 555.838C508.283 553.929 482.592 554.154 470.916 556.25C466.892 556.961 463.094 556.306 462.439 548.222C461.971 542.216 464.048 533.103 466.818 528.294L469.419 529.791C466.443 534.824 465.433 542.272 465.882 547.923C466.2 551.834 467.211 553.05 470.466 552.47C482.573 550.299 508.676 550.187 517.62 552.17C520.783 552.881 522.935 552.133 524.113 549.532C526.396 544.499 527.145 534.02 525.667 528.107L528.773 527.471L528.791 527.508Z" fill="#0E141B"/>
<path d="M524.001 553.368C524.319 559.917 523.309 566.017 521.213 570.826C519.548 574.606 517.695 577.02 513.242 578.536C504.204 581.642 480.44 582.259 466.369 578.236C461.878 576.964 459.763 574.644 459.352 569.629C459.034 565.737 460.699 557.036 464.591 551.74L466.949 553.611C463.618 557.971 462.57 565.643 462.795 569.255C462.982 572.323 463.674 573.745 467.51 574.849C480.103 578.442 502.258 578.685 512.157 575.28C515.113 574.269 517.04 572.473 518.332 569.498C520.24 565.157 521.344 559.917 521.232 554.154L524.02 553.349L524.001 553.368Z" fill="#0E141B"/>
<path d="M517.246 574.848C518.163 580.836 517.807 587.18 515.899 592.681C514.888 595.581 512.531 598.556 508.302 600.746C501.36 604.338 474.508 604.451 462.626 601.737C457.293 600.502 454.449 597.377 454.224 590.978C454.037 585.888 457.873 577.131 460.998 571.742L462.813 574.418C459.875 579.676 457.518 586.674 457.667 590.959C457.836 595.525 459.464 597.527 463.374 598.425C476.566 601.457 501.042 600.689 506.992 597.621C510.397 595.862 511.988 594.234 513.017 591.259C514.813 586.094 515.337 580.986 514.57 575.634L517.227 574.83L517.246 574.848Z" fill="#0E141B"/>
<path d="M510.996 597.135C510.977 603.685 508.882 610.907 505.963 616.371C504.297 619.477 502.52 620.544 498.515 621.816C489.945 624.548 466.162 625.465 454.468 617.12C451.474 614.987 450.37 612.442 450.557 608.213C450.744 603.759 453.176 597.023 455.684 592.869L457.162 596.293C455.141 600.017 454.093 604.508 453.944 608.25C453.794 611.974 454.337 612.835 456.563 614.407C466.237 621.311 486.315 622.209 497.692 618.579C500.929 617.55 502.295 616.446 503.53 614.425C506 610.421 507.89 604.115 508.115 598.876L511.015 597.135H510.996Z" fill="#0E141B"/>
<path d="M501.734 619.326C501.64 625.763 500.686 630.946 497.917 636.429C496.551 639.124 494.511 640.92 491.143 642.061C481.806 645.242 462.982 646.047 449.135 639.853C445.355 638.151 444.176 634.764 443.821 631.302C443.521 628.42 444.513 623.649 446.852 618.821C447.956 616.557 450.426 614.368 453.008 613.488L454.804 615.752C452.26 616.463 450.576 618.222 449.603 620.225C447.582 624.36 447.02 628.476 447.207 630.946C447.413 633.809 448.742 635.924 450.763 636.822C460.586 641.219 477.539 643.147 490.189 638.843C492.733 637.982 494.156 636.579 495.129 634.857C498.197 629.487 498.796 625.745 498.927 620L501.734 619.308V619.326Z" fill="#0E141B"/>
<path d="M494.025 638.863C497.786 641.426 494.586 655.741 486.503 660.251C478.943 664.48 454.374 667.062 444.532 660.138C440.004 656.957 437.253 651.493 437.44 646.965C437.627 642.568 441.725 636.168 446.441 634.26L447.507 636.973C444.158 638.451 440.827 643.372 440.677 646.965C440.509 650.782 442.96 654.749 446.908 657.537C455.422 663.525 477.222 661.635 485.043 657.257C491.368 653.72 494.268 642.699 491.779 640.322L494.044 638.863H494.025Z" fill="#0E141B"/>
<path d="M415.173 691.088C410.345 685.474 411.692 671.983 421.254 666.145C425.314 663.656 430.46 663.993 432.949 670.28C435.344 676.306 434.371 687.757 427.448 692.323C422.133 695.822 418.073 694.475 415.173 691.088ZM422.601 668.559C415.154 673.349 413.638 685.138 416.969 689.273C419.42 692.304 423.013 692.491 426.156 690.115C431.414 686.129 432.088 676.119 430.367 671.066C429.263 667.81 425.988 666.388 422.62 668.559H422.601Z" fill="#0E141B"/>
<path d="M421.797 666.761C427.111 661.279 434.727 654.823 439.835 651.137L441.257 654.187C436.729 657.443 430.872 661.952 426.812 665.844L421.797 666.761Z" fill="#0E141B"/>
<path d="M467.978 722.598C461.915 726.359 448.087 726.041 437.833 713.56C433.323 708.077 424.547 698.628 418.26 692.49L422.489 692.696C428.683 698.796 435.887 706.094 440.434 711.333C448.012 720.09 457.929 723.477 465.601 720.483L467.959 722.598H467.978Z" fill="#0E141B"/>
<path d="M488.205 739.439C483.864 735.509 470.635 725.742 465.526 722.317C462.121 720.034 460.605 716.872 461.896 712.381C464.572 702.969 476.753 700.013 483.228 706.936C489.515 713.635 493.183 731.224 490.301 739.027C489.833 740.281 489.066 740.243 488.205 739.457V739.439ZM464.871 713.223C464.067 716.067 464.722 718.219 467.379 719.997C472.094 723.178 487.775 736.37 488.317 736.089C489.796 735.191 487.438 716.124 480.87 709.125C474.995 702.876 466.481 707.572 464.871 713.205V713.223Z" fill="#0E141B"/>
<path d="M487.139 716.143C491.948 718.202 508.002 727.539 508.489 727.258C509.499 726.603 507.722 711.765 500.724 705.608C495.372 700.912 484.875 702.315 486.502 713.243L483.303 709.688C483.359 700.219 495.166 696.496 502.838 703.232C508.807 708.471 512.25 722.281 510.94 729.634C510.734 730.813 510.154 731.113 508.994 730.458C502.501 726.772 493.351 722.187 488.168 719.848L487.12 716.143H487.139Z" fill="#0E141B"/>
<path d="M507.048 711.353C512.961 714.702 525.049 720.279 525.535 719.549C526.078 718.913 520.577 704.617 517.639 700.145C512.755 692.716 503.493 698.966 503.942 706.263L501.098 703.887C501.322 695.448 513.99 688.936 520.184 698.311C523.683 703.644 527.556 715.993 528.529 721.214C528.773 722.505 528.267 722.936 527.032 722.636C521.419 721.27 514.421 718.651 508.04 715.151L507.048 711.353Z" fill="#0E141B"/>
<path d="M513.017 695.129C515.618 692.585 513.841 685.306 509.481 680.871C503.455 674.696 493.314 665.808 484.407 659.652L487.139 657.762C496.046 663.955 506.431 671.927 512.325 678.214C517.714 683.958 519.623 692.547 516.498 696.551L512.999 695.129H513.017Z" fill="#0E141B"/>
<path d="M292.104 538.042C291.73 527.9 271.952 528.742 271.709 539.932C271.596 544.835 272.85 555.594 276.143 562.985C281.757 558.756 288.531 550.86 291.674 546.145C291.599 543.843 291.506 541.242 292.104 538.061V538.042Z" fill="#DDDCD6"/>
<path d="M314.521 540.4C315.476 526.366 291.805 526.871 291.749 540.363C291.712 547.567 293.62 560.178 298.298 566.222C303.332 561.863 313.867 550.093 314.521 540.419V540.4Z" fill="#DDDCD6"/>
<path d="M316.505 539.333C316.748 546.106 321.351 557.614 324.345 560.964C329.528 556.884 337.631 545.639 339.034 536.788C341.242 522.941 316.075 527.507 316.505 539.333Z" fill="#DDDCD6"/>
<path d="M282.599 530.875C284.583 536.994 281.551 554.433 276.274 562.479C282.187 558.101 288.961 549.493 291.487 545.994C291.768 543.075 291.656 540.306 292.067 537.761C291.562 534.112 286.641 531.006 282.58 530.894L282.599 530.875Z" fill="#B5B5B0"/>
<path d="M304.342 530.221C304.997 537.669 301.629 556.624 298.167 565.868C307.149 558.963 314.204 547.586 314.69 539.97C315.177 532.373 309.02 530.053 304.342 530.221Z" fill="#B5B5B0"/>
<path d="M327.302 528.762C328.78 534.787 329.098 550.711 324.401 560.741C329.323 557.148 339.408 542.497 338.884 534.675C338.604 530.39 335.441 526.966 327.283 528.762H327.302Z" fill="#B5B5B0"/>
<path d="M323.485 562.031C319.667 558.252 315.345 546.388 315.046 539.727C314.709 532.148 321.277 527.096 329.903 526.797C337.07 526.535 341.28 530.689 340.307 537.107C338.922 546.22 331.288 557.41 325.206 562.144C324.533 562.668 324.065 562.649 323.485 562.069V562.031ZM330.034 529.884C324.046 530.109 318.096 533.571 318.189 539.652C318.283 545.92 323.616 559.112 324.551 559.243C325.936 559.337 336.059 545.191 337.331 536.77C337.968 532.579 335.872 529.679 330.034 529.903V529.884Z" fill="#0E141B"/>
<path d="M297.269 567.196C292.385 561.527 289.373 547.062 290.14 539.503C290.851 532.299 297.119 528.687 303.781 528.5C310.255 528.313 316.973 532.523 315.981 540.494C314.821 549.794 307.374 560.572 299.178 567.402C298.523 567.945 297.868 567.889 297.269 567.178V567.196ZM303.837 531.662C298.785 531.775 294.013 534.394 293.302 539.914C292.367 547.287 297.269 564.053 298.429 564.296C300.113 564.333 311.808 548.091 312.894 540.12C313.586 534.937 309.282 531.531 303.837 531.662Z" fill="#0E141B"/>
<path d="M291.674 547.587C288.456 552.938 282.524 559.899 276.667 564.221C275.938 564.764 275.32 564.67 274.871 563.847C272.401 559.356 269.987 547.643 270.174 539.971C270.343 533.234 275.619 529.586 281.401 529.324C286.472 529.137 291.412 531.288 292.909 536.135L290.757 539.933C290.233 534.694 286.136 532.28 281.476 532.392C277.042 532.505 273.43 535.106 273.299 540.083C273.131 546.707 275.975 560.853 276.518 561.022C277.229 561.227 288.924 547.568 291.412 542.778L291.656 547.605L291.674 547.587Z" fill="#0E141B"/>
</g>
<defs>
<clipPath id="clip0_42_67926">
<rect width="577.561" height="620" fill="white" transform="translate(101 120)"/>
</clipPath>
</defs>
</svg>
