<svg width="800" height="800" viewBox="0 0 800 800" fill="none" xmlns="http://www.w3.org/2000/svg">
<g clip-path="url(#clip0_42_68056)">
<path d="M278.309 220.144C278.309 228.561 284.971 375.493 371.866 375.493C440.132 375.493 484.844 262.591 484.844 230.732L476.011 210.877L449.984 240.905L468.084 182.208C468.084 182.208 457.496 172.507 452.192 168.09C446.889 163.674 431.884 158.389 431.884 158.389L408.934 198.571C408.934 198.571 401.875 150.896 400.988 146.914C400.12 142.95 395.684 123.077 395.684 123.077C395.684 123.077 380.68 122.189 377.15 122.189C373.621 122.189 359.504 125.285 359.504 125.285L347.594 212.217C347.594 212.217 331.703 157.936 329.494 157.936C327.286 157.936 306.11 177.338 303.468 184.85C300.825 192.362 306.11 226.768 306.11 226.768C306.11 226.768 292.88 205.158 290.671 205.592C288.463 206.026 278.309 220.163 278.309 220.163V220.144Z" fill="#BF9D5A"/>
<path d="M313.603 279.294C313.603 279.294 312.433 287.523 312.433 293.695C312.433 299.867 318.02 315.456 318.02 315.456C318.02 315.456 338.611 321.93 340.083 321.043C341.555 320.156 344.783 310.738 344.783 307.812C344.783 304.887 342.725 297.224 342.725 297.224L313.603 279.275V279.294Z" fill="white"/>
<path d="M386.871 298.695C386.871 298.695 388.343 316.946 390.702 318.701C393.042 320.475 418.352 316.946 420.409 313.114C422.466 309.283 426.298 293.995 426.6 287.22C426.883 280.444 425.713 271.328 425.713 271.328C425.713 271.328 413.067 278.104 405.707 283.086C398.346 288.088 386.871 298.676 386.871 298.676V298.695Z" fill="white"/>
<path d="M285.802 273.102C285.802 273.102 252.264 271.781 235.938 271.781C219.612 271.781 195.341 274.858 194.019 278.84C192.698 282.803 228.011 324.741 252.282 346.37C276.554 367.999 290.237 378.134 290.237 378.134C290.237 378.134 306.563 380.796 308.337 382.551C310.092 384.306 317.604 388.723 317.604 388.723C317.604 388.723 323.342 378.134 324.663 374.605C325.984 371.076 329.079 360.053 329.079 360.053C329.079 360.053 316.717 351.655 310.092 340.632C303.487 329.591 294.201 304.433 291.993 296.921C289.784 289.428 285.821 273.102 285.821 273.102H285.802Z" fill="#BF9D5A"/>
<path d="M356.559 439.909C356.559 439.909 373.923 444.628 386.568 444.628C399.214 444.628 419.805 437.569 423.636 434.625C427.468 431.681 431.884 426.377 431.884 426.377C431.884 426.377 436.584 428.151 438.358 427.566C440.132 426.981 452.475 419.035 452.475 419.035C452.475 419.035 471.311 429.642 475.124 432.568C478.936 435.512 488.958 445.213 488.958 446.685C488.958 448.157 479.54 456.99 479.54 456.99C479.54 456.99 484.24 461.69 483.957 462.879C483.673 464.049 469.254 474.052 462.176 477.298C455.118 480.526 436.886 490.831 435.999 490.831C435.112 490.831 432.469 486.433 432.469 486.433C432.469 486.433 412.765 494.077 411.576 492.907C410.406 491.718 406.291 476.43 406.291 476.43C406.291 476.43 393.061 478.487 390.117 478.487C387.172 478.487 380.397 477.317 380.397 477.317C380.397 477.317 369.809 496.738 368.638 497.304C367.468 497.908 348.047 489.66 348.047 489.66C348.047 489.66 343.631 495.53 342.159 495.851C340.687 496.153 331.873 492.322 331.873 492.322C331.873 492.322 344.216 478.204 344.216 467.314C344.216 456.424 343.914 447.308 343.914 447.308C343.914 447.308 350.388 450.252 351.86 448.78C353.332 447.308 356.578 439.947 356.578 439.947L356.559 439.909Z" fill="#C6A8BF"/>
<path d="M356.56 438.739C356.56 438.739 373.036 444.929 385.097 444.929C397.157 444.929 428.638 436.096 432.167 427.282C432.167 427.282 395.383 414.92 378.925 414.92C362.467 414.92 355.087 419.921 355.087 419.921C355.087 419.921 356.862 427.584 356.862 430.226C356.862 432.869 356.578 438.757 356.578 438.757L356.56 438.739Z" fill="#31363B"/>
<path d="M414.823 492.001C414.823 492.001 433.942 553.189 434.829 555.851C435.716 558.493 437.188 562.607 437.188 566.439C437.188 570.27 438.075 577.329 439.83 581.16C441.604 584.991 449.097 609.905 450.871 614.925C452.646 619.927 461.309 649.728 461.611 651.785C461.913 653.843 464.253 664.129 464.253 664.129C464.253 664.129 473.369 650.615 474.86 650.313C476.332 650.011 492.224 649.728 492.224 649.728C492.224 649.728 484.58 584.406 481.636 575.29C478.691 566.174 473.69 554.982 473.69 554.982C473.69 554.982 469.273 525.558 468.103 512.026C466.933 498.493 463.687 475.826 463.687 475.826C463.687 475.826 437.207 491.416 436.037 490.831C434.867 490.246 431.922 484.961 431.922 484.961L414.861 492.02L414.823 492.001Z" fill="#BF9D5A"/>
<path d="M418.201 504.362C416.616 499.285 414.823 492 414.823 492L431.885 484.941C431.885 484.941 434.829 490.226 435.999 490.811C437.169 491.396 463.649 475.807 463.649 475.807C463.649 475.807 466.235 486.414 467.178 493.755C458.345 494.19 448.833 495.303 444.228 496.832C436.282 499.493 428.789 497.719 428.789 497.719C427.015 497.719 419.749 502.135 418.201 504.344V504.362Z" fill="#A6884D"/>
<path d="M356.56 494.643C356.56 494.643 344.499 517.31 340.668 522.01C336.837 526.728 321.832 545.828 321.832 545.828C321.832 545.828 324.191 553.472 324.191 560.248C324.191 567.023 318.02 618.209 316.246 625.569C314.49 632.93 314.188 634.1 314.188 634.1C314.188 634.1 307.413 637.63 303.015 637.63C298.618 637.63 292.427 629.986 292.427 629.986C292.427 629.986 291.54 595.579 291.257 589.087C290.974 582.613 291.842 562.324 291.842 562.324C291.842 562.324 286.84 553.491 286.84 545.847C286.84 538.203 293.012 528.785 294.786 523.803C296.56 518.782 304.789 502.324 304.789 502.324C304.789 502.324 316.264 501.437 318.039 500.55C319.794 499.682 330.684 492.623 330.684 492.623C330.684 492.623 339.215 495.851 340.687 495.851C342.159 495.851 348.048 489.66 348.048 489.66L356.579 494.662L356.56 494.643Z" fill="#BF9D5A"/>
<path d="M330.08 289.277V298.676C330.08 303.395 336.251 313.681 338.308 313.681C340.366 313.681 344.499 308.698 344.499 306.924C344.499 305.15 342.725 297.223 342.725 297.223L330.08 289.277Z" fill="#0E141B"/>
<path d="M400.988 286.937C400.988 286.937 400.686 296.034 400.686 299.884C400.686 303.735 405.102 312.53 408.047 312.53C410.991 312.53 417.748 302.244 417.748 290.164C417.748 278.085 415.691 278.123 415.691 278.123L400.988 286.937Z" fill="#0E141B"/>
<path d="M341.272 300.602C341.914 304.207 341.272 307.34 339.838 307.586C338.403 307.85 336.705 305.151 336.063 301.565C335.421 297.96 336.063 294.827 337.497 294.563C338.932 294.299 340.63 296.997 341.272 300.602Z" fill="white"/>
<path d="M412.633 294.582C412.633 299.036 411.105 302.622 409.236 302.622C407.368 302.622 405.839 299.017 405.839 294.582C405.839 290.147 407.349 286.561 409.236 286.561C411.123 286.561 412.633 290.147 412.633 294.582Z" fill="white"/>
<path d="M265.947 358.715L262.417 381.665L288.01 377.683L265.947 358.715Z" fill="#BF9D5A"/>
<path d="M265.947 358.715L262.417 381.665L288.01 377.683L265.947 358.715Z" fill="#BF9D5A"/>
<path d="M264.475 359.582V367.83L277.422 377.248L286.255 376.663L264.475 359.582Z" fill="#A6884D"/>
<path d="M353.332 503.759C352.162 502.588 345.084 503.759 343.329 502.89C341.555 502.003 310.376 491.415 304.789 490.528L323.021 475.807L328.325 492.283L342.14 495.813L348.029 489.622L358.032 494.039L353.332 503.74V503.759Z" fill="#A6884D"/>
<path d="M473.01 273.896C472.595 273.991 471.783 278.369 472.84 278.086C510.625 267.668 597.274 275.519 600.634 281.899C600.841 282.352 459.553 285.617 460.421 400.784C453.117 400.652 435.376 378.645 427.449 351.939C427.128 350.863 421.862 354.392 422.183 355.468C429.902 381.495 452.739 411.957 463.365 411.957C471.953 411.957 578.325 329.573 600.275 295.488C604.597 288.787 605.899 283.786 604.276 280.238C599.199 269.046 508.417 264.799 473.029 273.877L473.01 273.896Z" fill="#0E141B"/>
<path d="M329.193 362.244C329.193 362.244 326.249 372.549 324.493 375.776C322.719 379.004 318.907 389.007 318.907 389.007L329.193 404.313C329.193 404.313 333.609 399.01 338.309 399.01C343.008 399.01 349.199 404.313 350.388 407.258C351.558 410.183 355.692 420.79 355.692 420.79C355.692 420.79 371.564 415.203 376.585 415.203C381.605 415.203 403.064 417.865 409.236 419.62C415.408 421.394 434.244 427.868 436.603 427.868C447.814 427.868 466.027 406.673 474.86 386.685C474.86 386.685 447.21 398.746 439.547 383.439C431.903 368.133 426.015 352.26 426.015 352.26C426.015 352.26 402.196 375.512 370.998 375.512C345.405 375.512 329.212 362.282 329.212 362.282L329.193 362.244Z" fill="#C6A8BF"/>
<path d="M379.812 384.307C399.554 384.307 417.39 375.984 430.11 362.621C427.562 356.469 425.996 352.26 425.996 352.26C425.996 352.26 402.177 375.512 370.979 375.512C345.386 375.512 329.193 362.282 329.193 362.282C329.193 362.282 329.193 362.301 329.193 362.319C341.951 375.89 359.9 384.326 379.812 384.326V384.307Z" fill="#A38A9D"/>
<path d="M426.146 351.221C426.146 351.221 430.544 372.397 439.811 384.759C449.078 397.121 457.911 402.859 460.553 402.425C463.195 401.991 492.318 314.153 499.395 307.094C506.454 300.035 604.427 282.822 602.219 280.614C600.011 278.406 569.568 270.46 521.006 270.913C472.462 271.347 472.462 276.651 472.462 276.651C472.462 276.651 460.553 304.452 452.173 319.022C443.793 333.593 426.146 351.239 426.146 351.239V351.221Z" fill="#BF9D5A"/>
<path d="M426.146 351.221C426.146 351.221 427.222 356.487 429.487 363.3C439.66 352.863 446.7 339.274 449.002 324.043C440 337.349 426.146 351.221 426.146 351.221Z" fill="#A6884D"/>
<path d="M331.042 405.068C331.042 405.068 331.042 398.877 336.346 398.877C341.649 398.877 351.351 400.859 354.88 416.316C358.409 431.755 355.54 448.307 351.124 448.534C346.708 448.76 343.405 446.325 343.405 446.325C343.405 446.325 341.197 431.547 338.781 424.489C336.346 417.43 331.061 405.086 331.061 405.086L331.042 405.068Z" fill="#E83921"/>
<path d="M351.124 448.535C354.955 448.346 357.617 435.833 355.937 422.451C355.427 433.266 347.368 437.569 343.027 436.984L342.423 440.438C343.027 443.835 343.386 446.326 343.386 446.326C343.386 446.326 346.689 448.761 351.105 448.535H351.124Z" fill="#C9301A"/>
<path d="M363.033 121.794C360.221 122.586 358.617 123.662 357.994 125.153C356.087 129.74 348.538 174.357 346.273 201.176C336.119 163.221 331.646 156.012 330.514 155.634C329.476 155.295 328.494 155.748 327.852 156.125C322.757 159.088 301.863 181.472 301.222 184.662C301.165 184.983 301.127 185.681 301.127 186.681C301.127 192.4 301.127 204.366 302.562 216.634C292.427 200.271 292.143 203.422 291.351 203.215C290.105 202.894 288.954 203.63 287.501 204.913C285.085 207.027 275.629 217.37 275.95 220.994C285.651 332.254 317.642 377.306 373.376 377.306C447.191 377.306 483.504 264.29 486.693 228.657C486.769 227.939 480.427 212.387 477.879 208.556C477.521 208.028 476.954 207.688 476.332 207.669C475.709 207.631 475.105 207.877 474.69 208.348C474.69 208.348 463.384 220.371 455.703 229.411C460.195 215.766 470.103 183.19 470.103 183.19C470.16 182.982 470.198 182.775 470.198 182.567C470.198 182.076 470.009 181.586 469.65 181.189C468.858 180.34 449.946 160.39 432.356 155.993C431.488 155.766 430.601 156.144 430.148 156.918C429.449 158.088 418.842 173.262 409.349 190.588C408.915 187.191 399.27 123.379 397.119 121.832C393.74 119.416 371.432 119.397 363.014 121.794H363.033ZM394.609 125.059C396.855 129.551 401.781 168.563 404.159 187.493C404.159 187.493 405.518 198.081 405.744 199.855C401.932 206.99 398.968 214.029 397.119 218.597C395.835 221.786 397.591 223.353 399.648 219.578C409.934 200.723 424.372 173.791 432.79 160.277C446.945 164.524 462.271 179.377 465.913 183.077C465.177 185.285 447.587 242.038 447.587 242.038C446.7 244.794 448.059 244.907 449.493 243.227C449.493 243.227 472.538 217.03 475.822 213.161C477.993 217.597 481.843 226.58 483.334 230.431C468.839 312.418 421.277 373.267 373.357 373.267C346.5 373.267 327.173 362.509 312.546 339.407C297.202 315.155 286.821 277.426 279.932 220.673C280.461 218.427 287.689 209.839 290.483 207.575C292.823 210.519 299.995 220.786 305.959 230.148C307.356 232.337 308.299 231.223 307.941 229.166C305.695 216.483 305.091 192.136 305.091 186.436C305.091 186.002 305.091 185.738 305.129 185.549C306.978 182.152 324.059 163.712 329.079 160.051C332.005 166.77 341.46 198.629 346.688 218.691C347.613 222.221 349.35 222.032 349.35 218.351C349.35 199.346 359.806 131.363 361.674 126.72C363.882 123.908 390.305 123.209 394.609 125.04V125.059Z" fill="#0E141B"/>
<path d="M432.979 332.744C421.051 344.804 407.236 349.881 393.099 349.881C384.889 349.881 368.563 341.954 357.994 341.954C347.425 341.954 338.535 348.787 331.514 348.787C326.173 348.787 318.907 347.239 314.773 343.559C312.773 341.747 314.49 346.012 316.831 347.824C320.662 350.768 326.607 352.052 331.514 352.052C339.422 352.052 345.16 346.503 357.994 346.503C370.092 346.503 383.549 353.901 393.099 353.901C406.33 353.901 424.524 348.069 435.565 334.745C439.434 330.045 437.188 328.479 432.979 332.744Z" fill="#0E141B"/>
<path d="M310.055 279.332C318.227 283.315 337.459 296.205 341.083 298.999C341.951 299.659 343.216 299.508 343.895 298.621C344.575 297.753 344.405 296.489 343.518 295.809C340.234 293.28 321.341 280.823 310.961 276.633C307.922 275.407 307.054 277.86 310.055 279.332Z" fill="#0E141B"/>
<path d="M315.811 315.248C324.078 320.382 332.307 323.024 340.705 322.628C341.8 322.571 342.649 321.646 342.612 320.533C342.555 319.438 341.611 318.57 340.517 318.627C332.929 318.985 324.512 317.494 316.925 312.814C314.509 311.304 313.395 313.738 315.811 315.248Z" fill="#0E141B"/>
<path d="M312.055 278.331C309.47 286.711 310.074 301.47 316.264 313.927C316.585 314.588 320.945 316.248 320.454 315.248C314.566 303.452 313.452 287.372 315.887 279.52C316.208 278.463 312.395 277.274 312.055 278.312V278.331Z" fill="#0E141B"/>
<path d="M340.423 298.111C342.952 304.717 342.31 313.777 338.875 319.646C338.309 320.59 341.763 322.609 342.329 321.685C346.387 314.739 347.142 304.472 344.16 296.696C343.763 295.658 340.026 297.092 340.423 298.13V298.111Z" fill="#0E141B"/>
<path d="M328.551 288.58C325.022 298.847 330.816 316.645 338.592 316.645C341.178 316.645 343.329 315.456 344.65 312.021C344.952 311.266 345.556 307.888 344.518 307.51C343.48 307.133 342.329 307.661 341.951 308.718C341.536 309.851 339.988 311.549 338.592 311.549C337.648 311.549 336.478 310.662 335.364 309.115C332.213 304.698 330.25 295.903 332.326 289.882C332.684 288.844 328.891 287.523 328.551 288.561V288.58Z" fill="#0E141B"/>
<path d="M428.374 267.818C415.181 273.084 395.987 286.031 382.907 300.753C380.699 303.244 382.247 305.679 384.379 303.546C397.459 290.504 417.125 276.632 429.865 271.536C436.32 268.969 434.829 265.251 428.374 267.818Z" fill="#0E141B"/>
<path d="M424.221 271.292C425.316 277.256 423.787 302.565 419.22 310.398C416.162 315.645 401.139 317.098 391.815 316.796C390.532 315.098 388.928 307.775 388.928 297.998C388.928 296.885 384.927 298.791 384.945 299.546C385.04 304.34 385.7 317.495 389.758 320.401C390.079 320.646 390.438 320.76 390.834 320.779C393.514 320.892 417.276 321.666 422.674 312.399C428.072 303.132 429.223 276.407 428.147 270.537C427.977 269.65 424.014 270.197 424.203 271.273L424.221 271.292Z" fill="#0E141B"/>
<path d="M415.54 275.5C414.521 275.877 413.992 277.047 414.389 278.085C415.068 279.822 415.955 282.426 415.955 284.899C415.955 302.451 411.18 310.605 407.953 310.605C407.764 310.605 407.217 310.605 406.443 309.774C404.065 307.207 401.932 298.997 402.857 287.05C402.932 285.956 402.121 284.993 401.026 284.899C399.931 284.804 398.969 285.635 398.874 286.73C397.968 298.356 399.78 308.453 403.498 312.492C405.122 314.247 406.82 314.625 407.953 314.625C415.125 314.625 419.956 302.678 419.956 284.899C419.956 281.766 418.899 278.689 418.126 276.632C417.729 275.613 416.578 275.084 415.54 275.5Z" fill="#0E141B"/>
<path d="M287.576 375.606C254.151 374.794 231.503 394.932 230.653 433.812C229.747 474.881 257.643 504.456 302.581 504.305C329.174 504.211 345.745 484.431 346.349 461.103C347.557 414.467 321.907 376.474 287.576 375.606Z" fill="#0E141B"/>
<path d="M336.988 426.962C331.929 409.617 324.172 396.877 313.886 388.932C327.098 409.957 337.346 444.439 333.609 471.183C332.307 480.431 329.495 488.037 325.21 493.907C343.027 482.866 346.859 460.84 336.988 426.962Z" fill="#E83921"/>
<path d="M329.646 470.617C333.76 441.249 320.398 402.2 305.223 383.628C294.277 378.608 281.292 378.287 267.495 382.741C244.299 390.234 232.409 425.905 242.016 459.085C249.206 483.923 275.554 500.23 302.147 500.286C316.661 500.343 326.494 493.303 329.665 470.598L329.646 470.617Z" fill="#E83921"/>
<path d="M313.886 388.932C315.981 392.272 318.001 395.99 319.907 399.935C322.134 400.784 324.248 401.671 326.248 402.634C322.643 397.104 318.529 392.518 313.867 388.932H313.886Z" fill="#F4A583"/>
<path d="M267.476 382.74C249.961 388.384 238.882 410.145 238.656 434.737C251.811 393.121 281.82 381.646 314.566 398.104C311.621 392.555 308.469 387.61 305.204 383.609C294.258 378.588 281.273 378.267 267.476 382.722V382.74Z" fill="#F4A583"/>
<path d="M325.21 493.906C335.836 487.3 341.442 476.787 342.178 462.217C340.083 465.444 337.176 468.502 333.609 471.144C333.609 471.144 333.609 471.163 333.609 471.182C332.307 480.43 329.495 488.036 325.21 493.906Z" fill="#C9301A"/>
<path d="M302.128 500.304C315.868 500.36 325.399 494.019 329.061 474.107C321.681 478.297 312.301 480.958 301.694 480.958C282.273 480.958 251.603 472.069 241.204 456.102C241.449 457.102 241.713 458.102 241.996 459.084C249.187 483.921 275.535 500.228 302.128 500.285V500.304Z" fill="#C9301A"/>
<path d="M338.441 396.5C334.458 396.519 330.929 398.727 329.061 402.181C328.645 402.936 331.627 406.767 331.929 405.691C332.798 402.577 336.402 401.709 339.517 401.671C343.763 401.634 349.727 404.616 353.049 415.808C358.485 434.077 353.823 442.759 350.407 444.93C348.312 446.251 346.198 445.76 344.575 444.307C343.763 443.571 343.612 448.629 343.971 448.874C347.028 450.762 350.161 450.951 352.804 449.29C358.334 445.798 364.354 433.851 358.636 414.638C353.653 397.897 341.215 396.481 338.441 396.519V396.5Z" fill="#0E141B"/>
<path d="M193.567 276.5C192.264 277.745 192 279.01 192 279.84C192 286.748 231.219 336.424 283.896 377.549C284.594 378.097 291.389 376.36 290.879 375.964C235.447 333.158 197.039 285.257 196.02 279.821C196.02 279.746 196.077 279.633 196.322 279.387C200.663 275.254 226.463 271.913 285.84 274.877C286.935 274.933 286.463 269.63 285.349 269.573C254.623 268.044 202.456 268.044 193.548 276.5H193.567Z" fill="#0E141B"/>
<path d="M327.154 360.506C327.154 360.506 320.435 381.739 316.321 387.93C315.698 388.836 319.038 391.063 319.642 390.138C324.078 383.494 331.854 364.3 331.854 364.3C332.193 363.243 327.494 359.449 327.154 360.506Z" fill="#0E141B"/>
<path d="M473.01 273.896C472.595 273.991 471.783 278.369 472.84 278.086C510.625 267.668 597.274 275.519 600.634 281.899C600.841 282.352 465.139 285.485 460.534 394.027C460.289 399.765 458.175 401.822 451.569 395.216C443.34 387.006 432.998 370.624 427.449 351.939C427.128 350.863 421.862 354.392 422.183 355.468C426.618 370.416 437.641 391.422 448.965 402.464C457.798 411.07 464.913 403.558 465.762 399.595C482.711 320.514 505.038 303.811 596.953 286.315C604.786 284.824 605.918 283.786 604.295 280.238C599.218 269.046 508.436 264.799 473.048 273.877L473.01 273.896Z" fill="#0E141B"/>
<path d="M466.952 392.48C462.196 406.748 443.964 425.226 436.188 425.226C429.808 425.226 394.968 412.901 377.075 412.901C369.847 412.901 361.75 415.846 357.503 417.186C356.258 417.582 356.333 421.64 357.503 421.3C362.109 420.036 370.809 416.903 377.075 416.903C394.345 416.903 427.449 429.227 436.188 429.227C448.437 429.227 469.858 405.635 474.01 393.141C474.369 392.103 467.31 391.423 466.952 392.48Z" fill="#0E141B"/>
<path d="M428.355 425.206C416.012 441.664 384.21 447.666 356.578 435.209C355.559 434.756 353.917 440.494 354.936 440.947C379.85 452.158 421.504 445.382 434.527 427.999C435.206 427.131 429.035 424.319 428.355 425.206Z" fill="#0E141B"/>
<path d="M362.712 464.953C359.069 470.917 344.084 491.414 341.177 493.792C339.63 493.717 334.704 491.622 333.024 490.886C333.024 490.886 328.947 493.509 329.966 493.943L331.438 494.566C336.912 496.925 341.404 498.85 343.329 498.473C347.141 497.718 363.127 470.275 365.128 465.953C367.619 460.65 365.751 459.97 362.712 464.953Z" fill="#0E141B"/>
<path d="M378.264 476.109C373.734 484.829 368.997 494.643 367.355 495.36C365.789 495.851 354.993 490.434 349.029 486.811C348.085 486.226 345.726 491.397 346.688 491.831C346.858 491.907 367.449 500.739 370.677 499.928C371.602 499.701 372.659 497.172 381.567 477.279C382.02 476.26 378.774 475.109 378.264 476.109Z" fill="#0E141B"/>
<path d="M375.943 476.108C383.115 480.506 398.837 481.487 406.575 478.751C407.613 478.392 406.405 473.863 405.329 474.127C393.967 476.958 383.323 476.316 377.528 474.127C372.885 472.353 371.696 473.523 375.943 476.108Z" fill="#0E141B"/>
<path d="M402.309 459.557C402.309 459.557 405.895 493.416 408.934 494.643C409.708 494.964 413.256 495.889 432.904 487.339C433.923 486.905 434.376 485.735 433.942 484.716C433.489 483.696 432.318 483.225 431.299 483.678C423.825 486.924 414.974 490.34 412.218 490.85C410.916 487.867 404.631 459.01 404.631 459.01C403.423 455.386 401.63 456.084 402.309 459.576V459.557Z" fill="#0E141B"/>
<path d="M469.084 450.988C469.707 451.592 480.956 460.5 482.05 462.368C477.464 466.521 442.604 485.545 435.904 488.508C434.036 485.64 429.034 474.334 427.807 471.126C426.165 466.823 424.297 467.615 425.392 471.9C425.429 472.107 429.884 493.151 434.243 493.151C438.603 493.151 485.032 467.389 486.165 463.463C486.976 460.632 477.238 453.026 470.726 449.383C467.593 447.647 466.97 448.949 469.084 450.988ZM435.225 488.792C435.225 488.792 435.017 488.867 434.979 488.886C435.263 488.81 435.187 488.773 435.225 488.792Z" fill="#0E141B"/>
<path d="M450.871 417.619C450.701 417.921 450.626 418.261 450.626 418.6C450.626 419.299 451.003 419.978 451.645 420.337C471.557 431.491 485.542 443.589 487.392 446.269C486.467 447.93 481.937 452.29 478.106 455.177C477.578 455.574 477.294 456.159 477.294 456.782C477.294 457.197 477.427 457.612 477.691 457.971C478.351 458.858 479.597 459.047 480.503 458.367C480.616 458.273 492.771 448.836 492.771 444.91C492.771 440.682 470.33 426.206 453.589 416.845C452.627 416.298 451.4 416.637 450.871 417.619Z" fill="#0E141B"/>
<path d="M355.578 493.264C344.14 517.026 320.114 543.921 319.869 544.204C319.284 544.845 319.02 545.223 319.944 546.959C321.888 550.564 325.002 572.59 311.999 637.515C310.923 642.894 306.318 643.328 303.656 643.121C299.013 642.762 294.522 639.874 294.408 637.213C294.106 629.928 293.276 562.926 293.276 562.247C293.276 561.926 293.181 561.605 293.03 561.303C290.294 556.302 289.199 552.621 289.199 547.299C289.199 535.692 300.353 512.137 306.28 502.21C306.846 501.266 300.051 502.304 299.768 502.87C290.067 521.971 285.217 536.994 285.217 547.507C285.217 553.225 286.462 557.472 289.294 562.738C289.369 568.173 290.124 630.211 290.426 637.364C290.652 642.781 297.315 646.631 303.354 647.103C309.922 647.631 314.754 644.253 315.943 638.308C327.815 578.893 328.173 552.206 324.87 546.053C329.419 540.844 349.991 517.592 360.391 495.963C360.523 495.698 356.069 492.282 355.578 493.283V493.264Z" fill="#0E141B"/>
<path d="M461.931 476.013C466.461 502.342 470.991 555.283 470.991 555.849C471.01 556.415 477.464 564.965 480.711 581.328C482.428 590.029 485.108 612.394 487.335 630.343L490.242 653.294C490.865 657.823 488.411 661.145 482.938 663.202C475.445 666.014 466.801 664.637 465.838 663.259C460.12 636.326 447.776 604.713 441.491 578.856C440.585 575.93 438.773 562.492 438.773 562.492C438.641 561.662 420.617 503.644 417.163 491.471C416.861 490.414 411.501 492.735 411.558 492.905C415.03 505.135 432.998 563.021 433.187 563.946C433.187 563.946 434.225 576.044 436.263 582.631C444.379 611.564 451.853 621.473 461.931 664.259C463.045 669.015 473.067 669.449 479.484 668.26C488.921 666.505 494.319 661.485 494.319 654.652C494.319 654.03 494.281 653.407 494.186 652.765L491.28 629.89C489.053 611.885 486.278 589.482 484.618 580.649C482.39 568.702 478.351 556.943 475.973 554.716C475.766 547.62 473.199 498.813 468.915 473.956C468.726 472.861 461.705 474.956 461.894 476.07L461.931 476.013Z" fill="#0E141B"/>
<path d="M473.784 649.047C472.274 649.802 470.443 652.237 466.876 657.257C466.329 658.031 465.687 658.937 465.064 659.768C464.46 657.144 463.724 654.238 463.668 654.049C463.46 653.218 460.044 651.086 459.516 651.746C455.986 656.163 452.079 668.091 452.759 671.45C453.117 673.281 466.065 691.268 466.593 692.985C466.99 694.288 467.914 713.595 469.821 716.766C476.596 728.071 499.396 740 516.231 740C523.158 740 529.839 725.958 529.839 710.255C529.839 700.572 519.27 689.135 513.815 682.284L510.833 678.377L510.191 677.377C507.625 673.394 503.321 666.732 502.812 663.448L502.623 662.127C501.038 651.52 501.472 647.462 499.245 646.726C497.093 646.009 476.86 647.481 473.784 649.028V649.047Z" fill="#0E141B"/>
<path d="M496.225 651.483C497.244 653.143 498.319 660.297 498.678 662.731L498.886 664.071C499.471 667.903 502.981 673.584 506.85 679.567L507.492 680.567L510.719 684.795C515.513 690.796 524.422 701.988 524.422 710.255C524.422 725.92 519.194 733.791 516.268 733.791C501.188 733.791 480.522 724.071 474.576 714.143C473.067 711.595 472.274 704.763 471.708 699.78C471.311 696.402 470.99 693.458 470.462 691.816C469.82 689.702 467.367 685.889 463.686 680.34C461.346 676.811 458.137 671.961 457.892 670.771C457.892 670.715 457.892 670.658 457.892 670.583C457.892 669.205 459.364 665.091 461.214 660.693C461.572 662.165 461.874 663.505 461.969 664.09C462.12 665.015 462.761 665.694 463.611 665.902C465.423 666.317 466.423 664.883 470.198 659.579C471.877 657.201 474.69 653.219 475.633 652.615C477.709 651.728 493.318 651.067 496.262 651.483H496.225Z" fill="#C6A8BF"/>
<path d="M457.873 670.772C458.119 671.961 461.327 676.811 463.667 680.341C467.348 685.89 469.801 689.702 470.443 691.816C470.953 693.477 471.292 696.402 471.689 699.781C472.255 704.763 473.048 711.614 474.558 714.144C480.522 724.071 501.169 733.791 516.249 733.791C517.835 733.791 520.062 731.488 521.798 726.94C520.1 728.601 517.835 730.281 515.721 730.281C507.983 730.281 484.806 720.825 478.653 712.634C476.898 710.274 473.35 685.569 472.179 683.21C471.066 680.964 461.478 670.791 458.987 666.242C458.288 668.224 457.835 669.809 457.835 670.564C457.835 670.64 457.835 670.696 457.835 670.753L457.873 670.772Z" fill="#A38A9D"/>
<path d="M278.366 645.066C277.762 646.896 276.761 649.086 276.422 649.558C275.912 650.086 245.469 669.243 242.713 674.112C238.089 682.303 241.204 696.685 246.545 700.573C252.849 705.197 269.457 704.027 278.309 698.818C281.102 697.176 296.711 682.775 299.316 681.171C304.657 677.925 308.733 676.943 315.962 673.81C321.851 671.243 328.909 664.656 328.909 650.218C328.909 642.555 317.774 632.137 316.642 630.967C315.943 630.25 314.792 630.174 313.999 630.759C313.943 630.816 307.979 635.289 302.6 635.289C298.561 635.289 294.956 630.061 293.899 628.06C293.597 627.494 293.031 627.098 292.389 627.004C285.896 626.116 282.14 633.515 278.366 645.066Z" fill="#0E141B"/>
<path d="M250.508 696.345C248.111 694.57 246.488 689.418 246.488 684.303C246.488 681.34 247.036 678.396 248.3 676.15C250.81 671.714 263.909 662.957 271.741 657.71C276.913 654.237 278.781 652.973 279.479 652.161C280.159 651.35 280.801 649.764 282.084 646.556C283.707 642.479 287.803 632.269 291.087 631.174C292.672 633.722 296.805 639.308 302.581 639.308C307.545 639.308 312.508 636.553 314.905 635.005C318.114 638.553 323.663 645.707 323.663 650.217C323.663 660.069 320.133 666.619 313.169 669.619C305.827 672.828 302.694 674.432 297.221 677.754C294.352 679.528 290.256 682.944 285.896 686.568C281.801 689.984 277.573 693.514 275.063 694.986C267.665 699.327 255.491 699.987 250.489 696.326L250.508 696.345Z" fill="#C6A8BF"/>
<path d="M275.082 695.005C277.592 693.514 281.82 690.003 285.915 686.587C290.256 682.963 294.352 679.547 297.239 677.773C302.694 674.451 305.827 672.847 313.188 669.638C318.302 667.43 321.53 663.316 322.908 657.408C315.301 662.863 298.089 671.79 295.673 673.243C292.729 674.998 279.196 685.587 275.667 689.116C272.477 692.306 263.078 696.911 253.49 697.779C259.379 699.666 268.891 698.647 275.082 695.005Z" fill="#A38A9D"/>
<path d="M436.282 324.78C436.282 389.536 476.709 438.022 532.688 438.022C579.74 438.022 608.089 413.788 608.089 372.455C608.089 319.061 568.284 259.553 507.926 259.553C471.745 259.553 436.282 278.936 436.282 324.78Z" fill="#0E141B"/>
<path d="M433.941 379.23C433.941 397.235 445.36 416.675 463.951 416.675C473.161 416.675 485.07 403.124 485.07 387.534C485.07 362.678 468.518 346.805 452.173 350.089C442.038 352.127 433.96 362.376 433.96 379.23H433.941Z" fill="#0E141B"/>
<path d="M439.415 378.721C439.415 364.924 444.869 356.034 452.155 354.902C467.178 352.562 478.653 365.528 478.653 387.855C478.653 398.047 470.368 409.919 462.762 409.919C449.946 409.919 439.396 398.066 439.396 378.721H439.415Z" fill="#E83921"/>
<path d="M462.78 409.9C468.707 409.9 475.029 402.653 477.54 394.632C474.218 399.558 467.574 400.633 461.459 400.633C454.155 400.633 445.039 393.16 439.49 376.268C439.452 377.06 439.434 377.872 439.434 378.702C439.434 398.048 449.984 409.9 462.799 409.9H462.78Z" fill="#C9301A"/>
<path d="M478.804 391.329C515.777 426.887 541.615 429.662 581.741 421.244C583.307 420.923 586.648 415.223 585.346 415.525C547.768 424.188 518.665 422.301 481.144 386.932C480.182 386.026 478.483 391.027 478.804 391.329Z" fill="#0E141B"/>
<path d="M483.881 396.066C482.296 401.785 479.276 406.824 475.747 410.505C491.072 423.999 510.625 431.738 532.688 431.738C549.977 431.738 564.113 428.642 574.928 422.603C544.824 428.114 512.192 421.697 483.881 396.066Z" fill="#C9301A"/>
<path d="M452.154 350.089C468.499 346.805 485.051 362.678 485.051 387.535C485.051 388.497 485.013 389.46 484.919 390.422C526.498 427.66 600.86 437.814 600.86 372.436C600.86 321.345 565.34 266.215 507.945 266.215C475.614 266.215 440.887 282.937 440.887 324.78C440.887 335.028 441.963 344.767 443.963 353.959C446.417 351.996 449.191 350.693 452.154 350.089Z" fill="#E83921"/>
<path d="M511.021 277.803C533.462 277.803 560.546 286.523 576.551 300.999C560.47 280.389 537.029 266.215 507.945 266.215C475.614 266.215 440.887 282.937 440.887 324.78C440.887 335.028 441.963 344.767 443.963 353.959C445.549 352.694 447.304 351.713 449.116 351.014C445.624 308.247 476.671 277.822 511.021 277.822V277.803Z" fill="#F4A583"/>
<path d="M600.86 372.436C600.86 368.774 600.652 365.113 600.294 361.451C598.765 381.495 585.421 397.689 570.888 404.596C553.638 412.788 508.964 404.955 488.014 393.046C530.084 428.094 600.86 436.21 600.86 372.417V372.436Z" fill="#C9301A"/>
<path d="M258.888 382.551L265.249 381.928C266.325 378.38 267.703 360.035 267.703 360.035L262.55 357.619C262.55 357.619 259.757 379.531 258.87 382.532L258.888 382.551Z" fill="#0E141B"/>
<path d="M522.799 300.169C522.799 315.777 510.154 328.404 494.564 328.404C478.974 328.404 466.31 315.758 466.31 300.169C466.31 284.579 478.955 271.934 494.564 271.934C510.172 271.934 522.799 284.579 522.799 300.169Z" fill="#F4A583"/>
<path d="M300.014 398.331C301.354 405.012 294.295 412.071 284.254 414.09C274.214 416.091 265.003 412.297 263.663 405.616C262.323 398.916 269.382 391.857 279.404 389.856C289.445 387.856 298.674 391.649 299.995 398.349L300.014 398.331Z" fill="#F4A583"/>
</g>
<defs>
<clipPath id="clip0_42_68056">
<rect width="416.108" height="620" fill="white" transform="translate(192 120)"/>
</clipPath>
</defs>
</svg>
