<svg width="800" height="800" viewBox="0 0 800 800" fill="none" xmlns="http://www.w3.org/2000/svg">
<g clip-path="url(#clip0_42_68136)">
<path d="M239.701 397.443C213.095 397.513 198.347 382.835 199.736 364.396C201.799 337.103 251.614 320.264 304.124 351.318C312.347 356.173 276.845 397.345 239.701 397.443Z" fill="#F19DB5"/>
<path d="M284.717 614.976C277.968 617.629 265.072 620.674 255.488 621.558C245.791 622.456 240.866 623.564 233.499 625.908C220.027 630.188 215.242 629.556 208.942 624.519C197.561 615.425 183.725 602.544 171.91 586.855L172.864 558.678C178.463 556.25 182.448 554.005 188.426 549.529C193.281 545.88 194.432 544.21 197.519 536.338C210.471 503.221 224.644 481.415 259.894 477.261C286.85 474.09 305.401 606.824 284.731 614.976H284.717Z" fill="#F19DB5"/>
<path d="M256.133 499.277C241.806 503.824 234.285 495.334 239.322 482.564C233.709 485.006 228.826 488.149 224.49 491.952C223.283 507.865 236.067 518.811 255.137 512.103C258.715 510.84 257.887 498.73 256.133 499.277Z" fill="#FEEBBE"/>
<path d="M673.686 611.076C643.81 592.034 640.12 569.455 655.752 519.205C697.583 384.745 579.289 301.504 503.373 370.053C451.284 417.09 476.332 665.592 518.317 652.163C541.415 644.768 562.562 628.644 579.724 606.824C600.239 628.925 648.946 631.746 671.441 624.028C679.972 621.109 680.085 615.173 673.686 611.076Z" fill="#F19DB5"/>
<path d="M406.66 673.028C307.31 682.248 228.096 589.394 259.88 464.617L324.64 343.291C320.781 319.59 329.145 305.039 345.071 303.846C349.871 303.481 352.102 302.246 355.231 298.514C377.459 271.978 430.46 267.165 468.277 291.175C500.047 311.339 514.29 346.294 504.509 384.365L508.803 487.265C516.661 505.466 521.839 530.093 521.629 556.151L406.674 673.014L406.66 673.028Z" fill="#F19DB5"/>
<path d="M185.816 570.128C193.66 586.883 192.986 597.688 188.861 600.031C184.721 602.375 177.228 596.79 167.77 580.835C160.01 567.757 158.144 555.548 162.073 553.163C166.212 550.665 178.336 554.173 185.802 570.128H185.816Z" fill="#EFEFEF"/>
<path d="M489.312 410.144C484.906 404.208 481.566 395.003 482.843 392.463C483.966 390.218 491.291 388.225 499.023 389.853C502.404 390.554 491.389 412.95 489.312 410.144Z" fill="#EFEFEF"/>
<path d="M533.725 374.01C514.697 367.513 498.658 376.761 487.881 406.229C483.376 418.535 478.605 429.186 474.55 435.29C468.656 436.736 463.31 439.262 461.093 442.461C449.347 459.398 465.232 501.763 494.981 495.49C565.705 480.587 571.894 387.046 533.725 374.01Z" fill="#F19DB5"/>
<path d="M523.355 414.999C523.776 425.987 517.686 431.726 510.656 431.993C503.008 432.287 496.637 427.011 496.272 417.525C495.935 408.895 501.562 401.023 509.351 400.714C517.251 400.406 523.032 406.566 523.355 414.999Z" fill="#FCD7A1"/>
<path d="M293.6 445.631C296.392 484.445 325.987 506.392 361.574 506.392C397.16 506.392 440.128 479.996 444.239 437.043C406.646 454.976 346.46 448.999 330.576 414.38C325.72 403.786 292.491 430.153 293.6 445.631Z" fill="#FEEBBE"/>
<path d="M263.599 464.675C246.661 534.15 290.302 572.992 347.078 575.041C393.189 576.711 454.076 541.615 447.916 474.203C426.18 514.673 384.798 533.589 347.261 532.466C311.197 531.386 281.953 504.71 282.641 453.098C282.767 443.766 265.17 458.22 263.599 464.675Z" fill="#FEEBBE"/>
<path d="M399.251 626.344C339.95 644.151 293.165 629.29 268.538 593.086C259.459 573.778 253.958 551.648 252.948 527.414C269.829 599.205 334.982 624.393 409.621 591.487C413.747 589.662 408.541 623.551 399.251 626.344Z" fill="#FEEBBE"/>
<path d="M406.66 673.028C375.76 676.059 347.26 668.987 323.11 654.449C347.611 663.206 374.764 660.876 401.033 646.746C405.566 644.304 415.908 672.116 406.66 673.028Z" fill="#FEEBBE"/>
<path d="M416.693 707.071C382.987 659.655 385.218 592.706 432.34 562.522C469.007 539.032 507.708 529.489 517.209 542.919C543.239 579.74 543.435 622.231 518.149 662.055C510.683 673.814 503.022 686.893 496.861 697.908C488.54 712.783 475.883 717.455 460.264 720.136L416.707 707.071H416.693Z" fill="#F19DB5"/>
<path d="M408.765 712.419C408.961 704.519 420.707 697.292 437.026 698.345C457.023 699.65 466.832 713.219 465.905 718.509C465.33 721.821 455.451 725.385 436.03 724.361C415.641 723.294 408.639 717.681 408.765 712.405V712.419Z" fill="#EFEFEF"/>
<path d="M460.826 632.012C459.928 643.406 449.712 649.272 439.847 648.5C430.291 647.756 422.868 639.519 423.724 628.616C424.411 619.762 432.859 611.51 443.734 612.366C454.511 613.208 461.542 622.933 460.84 632.012H460.826ZM446.765 597.45C429.281 596.075 409.649 608.676 407.965 630.188C406.323 651.096 420.103 666.069 438.767 667.542C454.539 668.777 475.462 658.73 477.202 636.502C478.745 616.801 465.064 598.895 446.765 597.45Z" fill="#FEEBBE"/>
<path d="M528.519 562.776C566.743 561.597 619.029 527.975 622.06 457.447C631.167 548.519 580.383 627.887 525.417 649.174C539.857 621.165 540.545 588.609 528.533 562.776H528.519Z" fill="#D1889E"/>
<path d="M621.934 496.583C617.738 538.162 605.333 573.608 579.724 606.823C600.239 628.924 648.946 631.745 671.44 624.027C679.972 621.108 680.084 615.172 673.686 611.075C644.4 592.397 639.727 568.528 655.752 519.204C669.855 472.405 666.262 428.582 648.455 399.801C660.705 441.912 649.704 481.218 621.934 496.583Z" fill="#D1889E"/>
<path d="M495.402 389.6C498.139 385.363 502.376 380.269 506.235 377.771C507.723 371.793 508.228 356.862 506.726 348.766C505.52 366.461 498.293 380.17 488.456 389.853C490.645 389.558 493.143 389.544 495.402 389.6Z" fill="#D1889E"/>
<path d="M330.702 414.999C346.882 450.108 408.386 454.135 444.239 437.03C442.906 450.936 437.335 463.102 429.253 473.206C434.781 471.76 440.437 470.048 446.218 468.056C449.544 466.919 451.199 467.621 452.322 471.494C456.027 484.263 469.793 499.559 492.217 496.051C503.33 509.634 509.968 522.446 515.469 540.871C517.237 543.298 519.636 546.119 521.446 549.094C522.106 536.773 517.054 507.543 510.248 490.929C547.701 477.486 567.291 426.239 550.676 389.066C560.387 449.013 491.852 478.51 474.115 436.693C478.717 429.101 483.334 419.756 487.867 406.256C485.762 404.25 482.913 398.777 482.534 395.044C461.457 411.041 434.739 412.599 418.546 401.962C386.706 381.04 356.803 385.53 330.688 415.041L330.702 414.999Z" fill="#D1889E"/>
<path d="M333.101 418.984C325.524 425.762 318.522 432.708 312.039 438.405C334.35 475.437 375.171 487.407 429.266 473.206C437.335 463.103 442.92 450.936 444.253 437.03C408.4 454.122 352.031 449.477 333.101 418.984Z" fill="#DBCBA6"/>
<path d="M523.355 414.998C523.214 411.294 522.022 408.038 520.057 405.568C523.018 423.825 508.326 432.651 497.493 423.53C499.738 429.185 504.818 432.216 510.655 431.992C517.686 431.725 523.776 425.986 523.355 414.998Z" fill="#D9BA8D"/>
<path d="M483.081 392.027C484.822 395.395 487.628 399.002 489.803 400.615C488.807 402.608 488.119 404.474 487.558 406.593C484.695 404.222 482.085 395.76 483.081 392.027Z" fill="#C9CACA"/>
<path d="M209.04 387.704C213.797 391.914 220.28 395.001 228.292 396.475C244.767 391.465 262.462 381.193 280.971 363.653C239.715 340.204 200.129 361.884 209.04 387.704Z" fill="#D1889E"/>
<path d="M240.74 391.747C248.528 388.211 256.54 383.482 264.763 377.364C262.223 375.553 258.926 374.319 255.39 373.912C245.693 372.817 238.312 379.3 237.737 383.524C237.4 386.022 238.228 389.249 240.74 391.747Z" fill="#D9BA8D"/>
<path d="M254.519 545.164C234.088 556.882 209.615 551.886 196.635 538.541C194.165 544.575 192.79 546.273 188.426 549.543C183.711 553.079 180.217 555.226 176.204 557.162C179.628 559.983 183.051 564.193 185.83 570.128C193.674 586.883 193.001 597.688 188.875 600.032C186.854 601.168 184.034 600.411 180.596 597.506C190.166 608.423 200.269 617.586 208.956 624.518C215.256 629.556 220.041 630.202 233.513 625.908C240.88 623.564 245.791 622.456 255.502 621.558C263.879 620.772 274.768 618.372 281.883 616.001C267.906 596.299 258.28 572.303 254.533 545.15L254.519 545.164Z" fill="#D1889E"/>
<path d="M188.861 600.032C195.232 597.24 192.369 577.313 181.367 562.649C150.819 534.64 177.396 605.07 188.861 600.032Z" fill="#C9CACA"/>
<path d="M465.905 718.522C466.467 715.336 463.085 709.134 455.942 704.419C426.404 696.729 409.874 709.906 417.227 721.062C421.521 722.704 427.625 723.924 436.03 724.373C455.451 725.398 465.33 721.834 465.905 718.522Z" fill="#C9CACA"/>
<path d="M469.217 655.544C461.289 664.412 448.954 668.341 438.752 667.541C422.741 666.293 410.337 655.081 408.162 638.719C402.801 633.33 398.437 626.777 395.42 619.045C390.452 646.689 397.23 677.729 414.336 703.591C419.345 699.999 427.372 697.711 437.012 698.343C457.009 699.648 466.818 713.217 465.891 718.508C465.863 718.69 465.793 718.872 465.695 719.069C478.815 716.192 489.494 711.014 496.833 697.908C502.993 686.892 510.655 673.814 518.121 662.055C526.807 648.359 532.49 634.368 535.156 620.378C514.907 640.557 491.36 652.092 469.217 655.53V655.544Z" fill="#D1889E"/>
<path d="M438.753 667.542C448.94 668.341 461.289 664.412 469.217 655.544C445.194 659.276 422.854 653.453 408.176 638.719C410.351 655.081 422.756 666.279 438.767 667.542H438.753Z" fill="#DBCBA6"/>
<path d="M394.578 649.946C393.722 642.481 393.596 635.044 394.255 627.761C337.353 643.267 292.505 628.28 268.566 593.143C280.957 619.468 299.971 640.516 323.223 654.493C345.689 662.491 370.386 661.144 394.578 649.946Z" fill="#D1889E"/>
<path d="M399.742 673.506C397.202 665.746 395.476 657.845 394.578 649.959C370.386 661.143 345.689 662.504 323.223 654.506C345.52 667.907 371.719 674.797 399.742 673.52V673.506Z" fill="#DBCBA6"/>
<path d="M394.255 627.759C394.831 621.304 396.009 614.99 397.82 608.9C351.133 633.906 289.853 620.968 260.062 570.857C262.391 578.645 265.24 586.069 268.566 593.141C292.519 628.279 337.353 643.265 394.255 627.759Z" fill="#DBCBA6"/>
<path d="M364.352 319.732C364.071 321.514 364.17 323.057 364.577 325.064C364.885 326.565 365.741 326.004 365.755 324.994C365.797 322.917 365.854 321.935 366.134 320.04C366.387 318.328 364.619 318.006 364.338 319.732H364.352Z" fill="#0E141B"/>
<path d="M389.035 331.252C391.182 330.971 390.93 328.993 388.74 329.147C386.551 329.302 384.573 329.877 382.664 331.28C381.289 332.291 381.822 332.838 383.17 332.403C385.653 331.603 386.93 331.533 389.035 331.252Z" fill="#0E141B"/>
<path d="M504.509 378.43C511.076 343.11 496.918 310.989 466.902 292.144C429.183 268.457 377.024 274.378 355.989 299.749C352.817 303.566 350.137 305.082 344.959 305.503C330.87 306.625 323.419 319.507 325.468 339.167L322.521 339.546C320.304 318.763 327.601 304.17 344.833 302.78C349.099 302.444 350.656 301.616 353.898 297.715C375.943 271.137 429.589 264.836 468.824 289.477C499.654 308.842 513.687 341.314 507.681 376.114L504.495 378.416L504.509 378.43Z" fill="#0E141B"/>
<path d="M473.413 436.805C468.908 437.955 464.656 440.004 461.766 443.063C459.268 445.701 458.089 444.873 460.419 441.828C463.057 438.376 468.291 435.696 475.307 433.914L473.413 436.805Z" fill="#0E141B"/>
<path d="M494.827 494.493C564.26 479.366 567.866 386.246 533.374 375.469C514.458 369.562 499.555 378.935 489.34 406.818C483.081 423.91 476.977 435.669 472.024 440.019C468.866 442.798 467.786 441.577 470.719 438.56C474.928 434.224 480.598 423.082 486.309 405.625C496.581 374.235 515.019 366.573 534.244 372.607C574.096 385.124 567.866 483.843 495.149 496.472C490.49 497.286 490.238 495.49 494.841 494.493H494.827Z" fill="#0E141B"/>
<path d="M524.702 415.11C525.179 427.571 517.784 432.903 510.726 433.184C502.474 433.493 495.234 427.866 494.841 417.51C494.462 407.617 501.085 399.871 509.294 399.562C516.998 399.239 524.323 404.88 524.702 415.11ZM509.35 401.891C503.779 402.102 497.367 407.925 497.731 417.355C498.082 426.364 503.246 431.107 510.599 430.84C516.619 430.616 522.33 426.041 521.909 415.04C521.587 406.733 515.96 401.653 509.35 401.891Z" fill="#0E141B"/>
<path d="M486.73 408.768C482.829 403.057 480.486 394.61 481.819 391.957C482.997 389.6 489.34 387.832 496.398 388.225L495.065 390.68C489.565 390.33 484.471 391.705 483.853 393.066C483.138 394.61 485.046 401.135 487.965 405.836L486.744 408.782L486.73 408.768Z" fill="#0E141B"/>
<path d="M298.02 349.859C246.633 321.864 202.95 340.78 201.154 364.453C200.115 378.107 209.405 391.929 231.057 395.577L225.135 397.598C206.514 393.795 196.846 380.057 198.039 364.271C200.115 336.753 248.991 318.44 301.304 347.726L298.006 349.859H298.02Z" fill="#0E141B"/>
<path d="M239.701 392.14C237.077 389.839 236.207 386.092 236.571 383.454C237.273 378.206 245.636 371.624 255.515 372.733C259.444 373.182 262.995 374.613 265.703 376.634L263.752 378.177C261.339 376.522 258.645 375.525 255.235 375.132C245.973 374.08 239.392 380.465 238.943 383.776C238.62 386.176 239.532 388.954 242.142 391.144L239.701 392.14Z" fill="#0E141B"/>
<path d="M295.354 451.37C300.448 486.157 329.635 504.736 361.602 504.736C393.568 504.736 437.153 480.179 442.752 439.148C407.025 455.664 349.941 450.963 332.049 420.05L333.887 418.113C351.568 447.189 405.79 452.647 441.882 436.706C444.983 435.345 445.628 435.907 445.236 439.218C440.184 481.835 397.02 507.936 361.574 507.936C326.127 507.936 298.034 487.645 293.039 452.956L295.368 451.37H295.354Z" fill="#0E141B"/>
<path d="M263.43 471.016C250.59 538.147 296.252 571.601 347.134 573.439C392.347 575.039 450.386 540.603 447.046 478.06C427.428 513.24 388.881 535.341 347.218 534.078C307.885 532.899 282.43 504.147 281.448 460.786L283.777 459.383C285.04 504.904 313.288 529.896 347.345 530.907C387.885 532.085 426.067 510.531 445.755 475.534C447.649 472.152 448.912 472.11 449.263 476.685C454.231 541.179 396.346 578.477 346.938 576.709C287.271 574.548 248.71 534.513 260.708 472.237L263.416 471.03L263.43 471.016Z" fill="#0E141B"/>
<path d="M399.938 675.106C303.338 680.004 230.622 591.613 256.063 474.118L259.388 472.715C234.551 589.55 306.832 674.334 399.012 672.117L399.952 675.106H399.938Z" fill="#0E141B"/>
<path d="M403.475 595.681C331.221 624.041 269.632 598.754 252.892 532.675L253.79 525.336C269.45 592.875 328.99 622.413 405.229 591.668L403.475 595.695V595.681Z" fill="#0E141B"/>
<path d="M268.65 590.631C293.263 627.789 339.248 641.148 394.76 626.077L394.339 629.305C340.23 643.758 295.592 631.985 270.404 598.068L268.65 590.631Z" fill="#0E141B"/>
<path d="M320.795 651.868C342.602 660.75 370.975 659.445 394.494 648.5L394.775 651.475C370.54 662.855 344.777 663.318 325.355 656.905L320.795 651.868Z" fill="#0E141B"/>
<path d="M256.905 479.281C224.798 485.02 211.285 506.686 198.796 537.011C195.218 545.697 194.53 546.623 189.114 550.763C184.511 554.285 181.396 556.109 177.382 558.27L174.856 556.179C179.487 553.85 183.037 551.829 187.71 548.335C192.074 545.079 193.085 543.424 196.088 535.706C209.671 500.765 223.367 482.115 257.606 476.109L256.905 479.281Z" fill="#0E141B"/>
<path d="M184.427 599.723C190.433 606.711 200.718 616.267 209.727 623.354C215.523 627.914 220.154 628.588 233.049 624.49C241.02 621.95 245.637 620.982 255.305 620C263.682 619.144 273.463 617.32 281.013 614.415L282.991 617.544C275.007 620.337 264.693 622.526 255.572 623.269C246.142 624.041 241.357 624.967 233.891 627.339C219.971 631.773 215.509 631.703 207.917 625.557C199.049 618.372 188.075 608.844 177.003 595.92L184.385 599.723H184.427Z" fill="#0E141B"/>
<path d="M187.163 569.596C195.933 588.329 193.786 598.643 189.464 601.085C185.156 603.527 177.074 599.485 166.437 581.552C158.017 567.351 156.642 554.988 161.357 552.126C166.367 549.094 179.557 553.332 187.163 569.596ZM184.525 570.817C177.284 555.367 165.974 552.294 162.788 554.216C160.178 555.802 160.712 565.877 169.117 580.05C179.431 597.451 185.633 600.412 188.187 598.966C191.583 597.044 192.13 587.038 184.525 570.803V570.817Z" fill="#0E141B"/>
<path d="M253.86 501.059C240.978 503.95 233.541 495.741 237.638 483.912L240.445 482.789C235.954 494.324 241.694 501.48 253.986 498.632L253.86 501.059Z" fill="#0E141B"/>
<path d="M253.046 514.166C235.659 519.077 222.637 509.311 223.072 493.566L225.752 491.756C224.882 506.266 235.463 516.776 253.116 511.429L253.06 514.166H253.046Z" fill="#0E141B"/>
<path d="M462.173 632.124C461.177 644.893 449.684 650.394 439.707 649.622C427.26 648.64 421.45 638.34 422.208 628.616C422.994 618.667 432.045 610.275 443.832 611.187C454.96 612.057 463.001 621.445 462.159 632.138L462.173 632.124ZM425.225 628.854C424.453 638.691 430.291 646.591 439.945 647.335C448.196 647.98 458.482 643.266 459.366 631.899C460.138 622.133 452.729 614.316 443.65 613.601C434.908 612.913 426.025 618.652 425.225 628.854Z" fill="#0E141B"/>
<path d="M478.605 636.573C476.767 660.008 454.904 669.985 438.626 668.708C418.854 667.15 404.653 651.855 406.365 630.09C408.105 607.863 428.34 594.798 446.849 596.23C463.688 597.549 480.443 613.167 478.605 636.559V636.573ZM475.672 636.349C477.272 616.016 462.748 599.934 446.639 598.671C430.08 597.366 411.052 610.094 409.467 630.343C407.811 651.378 422.292 665.031 438.837 666.322C452.827 667.445 473.946 658.254 475.672 636.349Z" fill="#0E141B"/>
<path d="M413.171 704.378C395.869 679.246 388.46 647.237 393.68 618.892C398.156 594.629 412.02 574.479 431.708 561.793C435.272 559.492 436.241 560.853 432.803 563.337C413.704 577.089 401.791 595.766 397.398 619.593C392.347 647.013 399.279 677.267 415.388 702.848L413.171 704.364V704.378Z" fill="#0E141B"/>
<path d="M465.877 717.709C475.49 715.337 487.993 711.029 495.682 697.095C502.825 684.157 509.505 672.089 516.338 661.256C539.969 623.873 542.102 581.944 516.338 543.593C513.897 539.959 515.37 538.724 518.022 542.19C545.077 577.468 546.578 621.726 519.594 663.038C512.129 674.475 505.589 685.21 497.942 698.723C489.129 714.313 478.03 718.144 464.628 720.656L465.877 717.695V717.709Z" fill="#0E141B"/>
<path d="M407.474 712.447C407.685 703.817 419.682 695.734 437.139 696.885C457.753 698.232 468.249 712.714 467.211 718.748C466.271 724.178 452.589 726.76 435.988 725.904C415.838 724.838 407.306 719.225 407.474 712.461V712.447ZM410.028 712.489C409.944 715.983 414.785 721.779 436.157 722.901C456.602 723.982 464.306 720.376 464.671 718.229C465.316 714.538 456.883 701.039 436.971 699.748C419.809 698.639 410.182 706.582 410.042 712.489H410.028Z" fill="#0E141B"/>
<path d="M519.861 547.002C519.117 529.784 515.44 508.511 508.719 491.461L511.75 490.24C518.878 507.851 523.313 530.514 523.271 552.054L519.861 547.002Z" fill="#0E141B"/>
<path d="M525.993 647.321C586.165 620.421 627.252 539.565 621.19 456.058C620.853 451.343 622.523 451.188 623.084 455.889C633.103 540.127 589.336 626.96 524.534 652.064L525.979 647.335L525.993 647.321Z" fill="#0E141B"/>
<path d="M580.931 605.097C600.604 626.258 647.038 630.243 670.879 622.609C677.853 620.378 678.443 615.677 672.83 612.225C641.804 593.155 638.141 569.58 653.83 519.119C676.464 446.36 652.174 388.56 611.662 362.432C579.036 341.397 539.226 342.562 507.189 368.971L507.414 364.565C538.861 338.871 580.608 337.37 613.921 358.853C656.79 386.498 680.674 445.378 657.422 520.115C641.523 571.208 646.659 591.934 674.373 609.896C682.245 615.004 682.26 621.753 671.679 625.444C647.529 633.877 599.467 630.65 578.11 608.506L580.916 605.125L580.931 605.097Z" fill="#0E141B"/>
<path d="M244.64 343.095C245.201 345.761 249.327 347.038 253.411 347.024C257.48 347.024 261.493 345.705 261.83 343.179C262.293 339.629 255.824 331.041 253.06 331.041C249.888 331.041 244.051 340.204 244.654 343.081L244.64 343.095Z" fill="#EFEFEF"/>
<path d="M252.555 330.972C254.814 335.856 255.431 344.556 253.411 347.04C256.512 346.885 261.802 345.622 261.83 343.195C261.886 338.76 255.445 330.369 252.555 330.972Z" fill="#C9CACA"/>
<path d="M253.228 348.273C248.401 348.273 244.009 346.575 243.335 343.376C242.522 339.489 249.271 329.975 253.046 329.975C256.147 329.975 263.641 339.082 263.065 343.446C262.644 346.729 257.957 348.259 253.228 348.273ZM253.355 345.803C257.663 345.803 260.385 344.428 260.596 342.899C261.017 339.657 255.039 332.164 253.074 332.164C250.618 332.164 245.356 340.317 245.875 342.772C246.226 344.442 249.019 345.817 253.355 345.803Z" fill="#0E141B"/>
<path d="M365.306 394.329C379.872 391.185 392.768 393.585 409.874 402.664C425.141 410.775 438.795 404.348 435.637 387.355C431.217 363.513 414.532 347.783 396.922 348.007C370.639 348.358 359.89 343.447 353.645 332.768C349.043 324.896 345.057 323.128 341.465 323.899C334.884 325.303 333.382 334.031 336.287 341.286C343.766 359.949 356.087 396.307 365.292 394.315L365.306 394.329Z" fill="#933000"/>
<path d="M371.663 355.697C364.97 356.16 360.507 354.378 355.343 349.522C339.43 334.564 314.663 331.687 280.971 363.625C223.564 418.071 173.818 402.495 144.841 376.886C108.707 344.962 82.5506 347.319 68.8408 368.663C55.9589 388.701 60.9966 425.074 93.2995 458.668C130.654 497.51 231.31 518.053 327.657 424.119C345.745 406.495 361.518 396.63 375.634 393.037C386.341 392.729 396.908 395.732 409.888 402.636C419.725 407.87 428.888 407.042 433.322 401.274C427.639 365.856 405.917 353.311 371.677 355.669L371.663 355.697Z" fill="#FADCE2"/>
<path d="M348.201 344.471C354.978 351.361 350.404 354.35 357.153 358.518C365.713 363.808 374.413 353.073 405.65 359.949C394.845 355.922 384.152 354.94 371.663 355.683C365.138 356.076 360.058 354.252 355.343 349.509C353.87 348.022 351.063 345.875 348.201 344.443V344.471Z" fill="#D8BEC4"/>
<path d="M433.308 401.302C432.284 394.96 430.74 389.347 428.719 384.421C423.906 391.438 410.828 391.508 396.809 384.983C373.277 374.051 345.787 389.445 321.118 413.118C235.225 495.517 65.6412 471.156 71.1279 365.449C70.3281 366.474 69.5563 367.554 68.8266 368.691C55.9447 388.729 60.9824 425.102 93.2853 458.695C130.64 497.538 231.295 518.081 327.643 424.147C345.731 406.522 361.503 396.658 375.62 393.065C386.327 392.757 396.894 395.76 409.874 402.664C419.71 407.898 428.874 407.07 433.308 401.302Z" fill="#D8BEC4"/>
<path d="M368.562 292.873C367.145 290.516 362.149 290.586 356.241 294.473C350.264 298.402 349.66 303.945 350.979 305.334C352.256 306.681 354.824 306.527 361.518 302.107C368.955 297.195 369.741 294.852 368.562 292.887V292.873Z" fill="#0E141B"/>
<path d="M365.012 297.054C363.454 298.093 361.84 298.205 361.111 297.11C360.465 296.156 360.606 294.613 362.205 293.532C363.959 292.353 365.882 292.508 366.443 293.279C367.018 294.079 367.103 295.637 365.012 297.054Z" fill="white"/>
<path d="M469.863 340.037C467.996 348.232 461.752 350.519 456.756 349.382C451.831 348.26 447.902 342.941 449.614 335.42C451.326 327.913 457.556 324.054 462.678 325.218C467.856 326.397 471.504 332.866 469.877 340.023L469.863 340.037Z" fill="#0E141B"/>
<path d="M464.629 331.743C464.039 334.311 461.542 335.096 459.661 334.675C457.43 334.17 456.265 332.037 456.785 329.708C457.29 327.519 459.338 326.087 461.864 326.663C464.194 327.196 465.12 329.582 464.629 331.743Z" fill="white"/>
<path d="M379.016 392.026C388.628 391.774 397.847 394.665 410.477 401.498C425.169 409.441 437.012 402.972 434.164 387.578C429.645 363.204 411.361 349.171 396.851 349.325C370.26 349.676 360.072 346.196 352.579 333.37C348.677 326.691 344.917 324.628 341.787 325.302C337.03 326.326 335.136 332.234 336.974 339.306L334.392 339.04C332.736 332.374 333.789 324.193 341.128 322.622C345.717 321.639 349.856 323.772 354.782 332.206C360.493 341.986 371.059 346.94 396.893 346.631C415.402 346.337 432.41 361.744 437.111 387.101C440.52 405.484 425.885 412.64 409.326 403.842C395.546 396.517 383.324 393.247 371.929 394.314L379.03 392.026H379.016Z" fill="#0E141B"/>
<path d="M432.284 402.3C427.611 375.708 414.111 361.254 390.635 357.522C378.904 355.655 369.488 358.743 362.458 355.978C357.041 353.845 352.972 347.516 344.384 343.545C329.664 336.725 308.671 339.364 281.869 364.777C222.736 420.865 172.948 404.124 143.564 378.164C110.938 349.327 84.543 348.106 70.6087 369.786C58.9617 387.916 61.8524 423.068 94.7868 457.307C132.436 496.458 233.442 513.788 326.562 423.012C354.249 396.013 378.286 385.643 399.77 392.238C404.485 393.684 404.092 395.311 399.307 394.076C378.665 388.772 355.764 398.707 328.513 425.271C230.692 520.622 130.135 500.05 91.5874 459.959C56.5481 423.503 54.4993 386.751 66.9462 367.401C81.7646 344.345 109.633 343.377 146.006 375.525C174.871 401.037 223.97 415.532 279.96 362.433C306.398 337.371 328.387 332.74 345.282 341.019C354.277 345.44 359.09 352.442 363.384 353.691C371.312 356.02 376.139 352.989 390.635 354.813C415.669 357.971 429.884 372.27 434.304 399.816L432.298 402.286L432.284 402.3Z" fill="#0E141B"/>
<path d="M162.802 417.314C160.038 414.873 161.189 413.455 164.135 415.673C190.882 435.669 238.031 428.386 277.659 396.195C304.938 374.024 321.384 364.65 339.023 360.132C343.373 359.023 343.724 360.609 339.416 361.9C323.7 366.629 305.233 377.336 279.357 398.37C235.28 434.182 186.658 438.279 162.802 417.314Z" fill="#0E141B"/>
</g>
<defs>
<clipPath id="clip0_42_68136">
<rect width="620" height="452.059" fill="white" transform="translate(60 274)"/>
</clipPath>
</defs>
</svg>
