<svg width="800" height="800" viewBox="0 0 800 800" fill="none" xmlns="http://www.w3.org/2000/svg">
<g clip-path="url(#clip0_42_68214)">
<path d="M540.391 401.135C540.391 401.135 520.194 422.871 520.764 424.025C521.333 425.18 540.391 414.404 540.391 414.404C540.391 414.404 536.158 421.716 537.127 422.671C538.097 423.625 553.291 416.713 553.291 416.713C555.985 427.874 565.606 439.804 583.493 439.604C601.781 439.419 607.738 426.335 607.738 426.335C607.738 426.335 628.905 433.647 642.374 420.177C650.179 412.372 649.471 395.239 645.268 387.665C645.268 387.665 660.847 378.429 657.398 357.648C653.95 336.866 631.814 335.527 631.814 335.527C631.814 335.527 624.302 318.594 611.618 318.409C598.933 318.224 591.421 327.06 591.421 327.06C591.421 327.06 574.673 317.054 558.324 325.136C541.976 333.218 542.931 355.339 542.931 355.339C542.931 355.339 528.692 363.42 527.352 377.844C525.921 393.207 535.48 398.087 540.437 401.12L540.391 401.135Z" fill="#E7D35B"/>
<path d="M529.8 367.977C529.8 367.977 533.833 390.236 559.572 380.368C562.142 394.977 591.498 405.63 604.183 381.569C611.972 390.852 634.801 390.775 635.493 375.427C649.409 376.874 655.598 369.793 656.783 359.525C656.783 359.525 659.862 378.383 645.238 387.681C645.238 387.681 653.704 405.953 643.19 418.268C632.676 430.583 615.605 429.551 607.723 426.35C607.723 426.35 598.81 442.636 578.029 439.311C557.247 435.986 553.276 416.728 553.276 416.728L537.112 422.686L540.376 414.419L519.779 424.687L541.068 401.596C541.068 401.596 520.287 394.669 529.785 367.992L529.8 367.977Z" fill="#C2B14C"/>
<path d="M523.227 418.484C514.621 427.859 515.668 428.09 527.137 422.548C531.031 420.67 535.418 418.546 537.866 417.376C537.389 418.269 536.65 419.608 535.926 420.947C534.064 424.349 533.725 425.103 539.19 423.395C543.438 422.071 551.151 418.869 552.475 418.346C557.231 434.201 569.084 440.913 581.892 441.775C593.884 442.591 604.752 435.864 608.908 426.52C613.203 418.346 611.587 417.13 606.968 425.011C600.811 435.525 590.081 438.527 582.046 438.08C571.255 437.48 558.909 430.999 554.707 417.853C553.721 414.759 553.891 414.559 550.951 415.96C548.549 417.099 545.086 418.684 542.269 419.808C537.681 421.625 537.989 421.609 540.083 417.761C543.254 411.973 543.639 411.711 536.819 415.175C533.817 416.699 530.338 418.453 527.337 419.947C523.565 421.825 523.18 421.963 525.92 419.115C532.586 412.188 542.7 401.859 542.7 401.859L539.59 400.012C539.59 400.012 528.476 412.804 523.242 418.484H523.227Z" fill="#0E141B"/>
<path d="M631.214 336.82C650.179 339.606 654.751 351.829 655.797 358.879C657.337 369.301 653.088 380.831 646.361 385.341C643.913 386.988 643.836 387.096 644.775 390.236C648.331 402.151 645.945 413.112 640.588 418.961C633.661 426.55 621.731 428.921 607.846 425.442L607.015 427.612C621.87 431.322 635.801 430.352 643.39 422.04C649.363 415.498 651.78 401.197 646.761 388.066C656.244 381.601 661.324 369.486 659.692 358.479C657.737 345.271 646.73 336.82 631.66 334.604L631.214 336.789V336.82Z" fill="#0E141B"/>
<path d="M587.988 329.893C585.156 335.373 586.664 335.712 590.097 330.817C596.224 322.058 605.06 318.332 613.926 320.564C622.07 322.627 628.027 329.077 630.567 336.713C632.907 343.747 633.984 342.116 632.676 336.097C630.86 327.753 623.578 318.763 614.573 316.501C604.598 314.007 593.053 320.133 588.003 329.893H587.988Z" fill="#0E141B"/>
<path d="M557.262 322.781C547.487 328.245 542.546 340.437 541.653 354.753C528.907 361.527 523.719 374.396 524.705 383.37C525.69 392.299 532.571 399.103 540.576 402.12C545.64 404.029 546.117 402.643 541.361 400.18C533.987 396.363 529.754 390.39 528.953 383.047C528.014 374.488 531.693 363.543 541.869 357.586C543.685 356.524 544.039 356.385 544.424 352.721C545.686 340.422 550.951 331.124 559.417 326.383C568.33 321.395 579.891 322.057 591.144 328.215L592.16 326.213C580.107 319.625 566.991 317.362 557.278 322.796L557.262 322.781Z" fill="#0E141B"/>
<path d="M471.442 353.322C471.442 353.322 475.676 347.426 482.095 348.965C485.835 349.858 487.652 355.708 487.221 358.325C487.221 358.325 494.148 361.911 489.53 369.87C484.912 377.829 477.477 374.488 472.212 368.977C472.212 368.977 463.745 370.393 460.928 364.867C458.111 359.356 463.237 349.473 471.442 353.322Z" fill="#E7D35B"/>
<path d="M462.452 354.723C461.605 359.726 468.887 362.312 474.167 360.942C476.553 365.498 486.128 369.116 490.515 362.897C490.515 362.897 493.44 373.749 483.68 373.872C473.92 373.996 472.473 368.361 472.473 368.361C472.473 368.361 453.308 369.362 462.452 354.723Z" fill="#C2B14C"/>
<path d="M484.65 350.459C485.404 352.306 484.157 356.54 482.218 357.047L487.821 358.387C487.821 358.387 487.575 351.675 484.65 350.459Z" fill="#C2B14C"/>
<path d="M471.119 352.831L472.505 353.416C475.106 348.551 485.605 346.658 486.959 357.895L488.499 358.48C488.622 344.626 475.368 344.872 471.119 352.815V352.831Z" fill="#0E141B"/>
<path d="M458.974 360.403C458.974 367.715 464.993 370.101 472.289 369.47C477.415 375.597 484.404 377.259 489.268 372.857C493.686 368.87 494.287 358.002 485.605 356.647C480.432 355.847 480.155 357.756 485.405 358.387C490.423 358.987 491.377 367.146 487.606 370.563C483.557 374.227 478.339 372.734 474.721 369.024C473.028 367.284 472.797 367.377 470.657 367.346C466.039 367.284 461.575 364.714 461.575 360.388C461.575 355.031 468.071 351.336 472.536 354.615C476.23 357.325 476.938 355.77 473.921 353.168C467.887 347.981 458.974 353.014 458.974 360.388V360.403Z" fill="#0E141B"/>
<path d="M239.136 374.905C239.136 374.905 244.939 393.423 244.046 393.87C243.153 394.316 231.993 382.94 231.993 382.94C231.993 382.94 233.101 390.745 231.993 391.191C230.884 391.638 222.403 382.047 222.403 382.047C222.403 382.047 204.777 393.208 190.722 383.833C181.009 377.352 184.011 363.051 185.15 361.297C185.15 361.297 150.776 364.529 143.202 333.188C138.291 312.883 159.273 293.072 166.185 290.562C166.185 290.562 163.275 267.133 180.239 256.204C197.203 245.274 218.616 261.561 218.616 261.561C218.616 261.561 240.028 255.757 249.188 267.81C258.331 279.864 251.866 300.168 251.866 300.168C251.866 300.168 276.188 307.526 275.295 327.169C274.403 346.811 254.991 353.046 254.991 353.046C254.991 353.046 258.562 364.868 253.652 370.225C248.741 375.582 239.151 374.905 239.151 374.905H239.136Z" fill="#E7D35B"/>
<path d="M149.836 305.633C147.789 323.336 159.196 332.449 181.902 329C191.907 348.997 223.465 351.814 240.136 332.064C262.164 337.036 272.463 321.027 269.122 311.021C269.122 311.021 280.406 318.363 275.095 332.895C269.784 347.427 254.96 353.03 254.96 353.03C254.96 353.03 257.315 367.469 252.959 371.056C248.603 374.643 239.12 374.905 239.12 374.905C239.12 374.905 245.37 393.069 244.031 393.87C242.691 394.67 231.977 382.94 231.977 382.94C231.977 382.94 233.07 390.806 231.977 391.191C230.884 391.591 222.387 382.047 222.387 382.047C222.387 382.047 205.5 393.9 192.923 385.434C180.347 376.967 185.119 361.297 185.119 361.297C185.119 361.297 151.099 360.804 144.941 339.253C138.784 317.701 149.821 305.648 149.821 305.648L149.836 305.633Z" fill="#C2B14C"/>
<path d="M180.578 252.602C169.802 257.943 163.629 272.029 164.245 286.868C164.291 287.946 164.291 289.054 164.353 290.178C145.665 300.43 137.414 320.072 140.708 334.835C144.372 351.322 160.351 361.435 183.657 362.852C181.332 369.994 181.979 380.431 189.121 386.004C196.434 391.715 208.61 391.823 221.294 383.664C222.064 384.372 226.59 388.544 229.484 390.991C232.378 393.439 233.979 395.101 233.548 390.345C233.363 388.205 232.994 385.958 232.901 384.972C233.933 385.973 235.118 387.651 237.058 389.683C245.386 398.365 247.094 399.812 243.708 386.789C242.137 380.754 240.814 376.968 240.46 375.69C246.325 375.659 251.328 374.52 254.206 371.103C257.824 366.777 257.916 360.312 256.115 353.631C272.525 347.489 277.651 334.235 277.112 325.06C276.419 313.161 267.229 303.924 253.637 300.061C257.285 288.608 259.486 274.892 250.327 265.24C243.769 258.328 230.192 256.635 218.77 260.206C207.671 250.862 191.908 246.998 180.578 252.602ZM222.634 380.385C209.965 388.575 198.619 387.62 192.139 383.033C186.612 379.123 183.888 372.103 185.92 364.022C186.951 360.573 187.043 360.512 183.58 360.281C162.69 358.895 148.836 349.474 145.449 334.265C142.047 318.995 150.375 301.631 164.953 293.041C166.939 291.871 167.37 291.302 167.309 287.684C167.062 272.675 172.435 261.746 182.625 256.696C192.647 251.724 205.808 253.756 215.984 261.669C217.908 263.162 218.985 263.193 221.202 262.669C232.378 259.991 241.229 261.715 246.894 267.672C252.959 274.061 254.591 285.052 251.405 296.951C250.219 301.384 250.096 301.723 253.744 302.878C265.521 306.618 272.802 314.823 273.402 325.199C274.033 335.959 267.306 345.826 256.115 350.829C253.544 351.984 253.267 352.153 253.852 355.555C254.868 361.559 254.098 366.146 251.528 369.209C248.603 372.704 243.892 373.535 239.998 373.535C237.088 373.535 236.827 373.704 237.904 376.737C239.043 379.969 240.629 384.526 241.645 388.128C242.846 392.392 242.214 391.823 239.259 388.959C237.535 387.281 235.056 384.48 233.44 382.925C230.392 379.969 230.392 380.154 230.915 384.064C231.208 386.281 231.485 387.066 231.577 388.128C231.777 390.252 231.978 390.483 229.73 388.405C227.714 386.543 225.297 383.233 224.019 381.894C227.729 379.215 226.513 377.891 222.618 380.416L222.634 380.385Z" fill="#0E141B"/>
<path d="M168.571 436.233C168.571 436.233 178.577 423.657 189.352 428.029C200.128 432.4 199.866 440.344 199.096 447.271C199.096 447.271 212.443 460.355 204.992 472.409C201.329 478.335 190.384 481.583 182.933 478.181C182.933 478.181 174.59 487.679 165.353 482.03C159.334 478.351 159.458 471.639 160.227 468.437C160.227 468.437 144.572 464.973 147.912 449.195C151.253 433.416 168.571 436.233 168.571 436.233Z" fill="#E7D35B"/>
<path d="M150.344 442.637C149.698 447.024 151.037 456.445 164.707 455.598C166.893 464.711 182.025 468.421 189.46 460.34C192.385 465.45 205.238 468.421 205.746 456.999C205.746 456.999 209.487 468.021 202.668 474.702C195.864 481.367 182.918 478.165 182.918 478.165C182.918 478.165 174.066 486.894 164.06 481.629C157.595 478.227 160.227 468.406 160.212 468.421C160.212 468.421 149.098 467.821 147.774 455.845C146.619 445.454 150.344 442.637 150.344 442.637Z" fill="#C2B14C"/>
<path d="M168.694 435.202C158.626 432.539 145.295 438.958 145.295 452.412C145.295 460.232 150.098 467.175 159.458 469.33C155.363 481.26 169.587 491.389 182.81 479.336C190.584 481.475 201.298 481.814 206.501 474.086C210.75 467.775 209.78 455.86 200.297 447.902C201.929 439.451 199.943 428.305 188.721 425.873C182.271 424.472 173.343 428.29 168.709 435.217L168.694 435.202ZM169.079 438.542C173.312 430.707 181.594 428.321 187.905 429.691C195.433 431.323 198.85 437.865 198.157 444.946C197.788 448.779 197.603 448.748 199.82 450.888C206.639 457.461 206.793 466.189 203.222 471.516C199.466 477.104 192.554 478.889 185.242 477.658C182.779 477.242 182.425 477.104 180.532 478.381C170.141 485.37 159.565 480.536 161.443 470.561C161.905 468.144 162.121 467.667 159.473 467.036C153.423 465.589 148.836 459.986 149.236 451.596C149.59 444.192 155.794 434.986 167.308 437.218C163.922 443.145 165.985 444.269 169.079 438.527V438.542Z" fill="#0E141B"/>
<path d="M565.929 533.537C565.929 533.537 568.192 522.746 573.949 521.268C578.336 520.144 582.708 521.022 587.603 527.149C587.603 527.149 597.486 527.518 598.871 536.908C600.257 546.298 589.358 550.301 589.358 550.301C589.358 550.301 587.234 560.691 579.09 561.061C570.947 561.43 566.822 553.795 566.822 553.795C566.822 553.795 553.167 551.286 554.553 543.035C555.923 534.768 565.944 533.522 565.944 533.522L565.929 533.537Z" fill="#E7D35B"/>
<path d="M555.199 541.141C556.031 547.284 575.427 553.81 582.6 539.879C586.726 541.511 597.178 540.68 596.439 530.797C596.439 530.797 605.475 541.742 589.343 550.316C589.343 550.316 588.912 559.783 580.091 560.938C571.286 562.092 566.806 553.826 566.806 553.826C561.342 554.149 553.876 548.115 555.199 541.141Z" fill="#C2B14C"/>
<path d="M574.149 519.575C568.931 520.945 565.59 526.025 565.113 532.844C557.755 533.599 553.476 538.802 553.568 544.297C553.629 547.884 556.908 553.78 566.452 554.873C569.054 560.168 575.396 563.093 580.461 562.216C584.925 561.446 589.404 557.505 590.02 550.84C597.933 547.561 601.042 541.157 600.319 536.031C599.518 530.397 594.346 526.81 587.819 526.225C583.386 520.36 578.213 518.528 574.165 519.59L574.149 519.575ZM574.811 522.469C578.521 521.499 582.539 523.1 585.541 526.656C586.864 528.226 586.849 528.165 589.158 528.565C593.715 529.35 596.701 532.075 597.271 536.077C597.871 540.326 595.47 545.914 589.882 548.5C588.111 549.316 588.004 549.346 587.742 551.317C587.172 555.535 584.355 558.46 580.03 559.214C575.535 559.999 570.547 557.505 568.962 554.842C568.007 553.256 567.592 552.964 566.114 552.764C559.371 551.825 556.446 547.499 556.631 543.697C556.862 538.709 561.203 534.476 567.545 534.599C572.856 534.707 570.624 532.875 567.176 532.891C568.13 527.41 570.87 523.516 574.827 522.484L574.811 522.469Z" fill="#0E141B"/>
<path d="M230.207 651.084C230.207 651.084 241.799 636.983 257.854 643.264C273.91 649.545 272.94 667.432 272.94 667.432C272.94 667.432 291.382 678.331 289.134 692.986C286.902 707.656 272.093 712.674 261.626 712.536C261.626 712.536 258.27 725.528 244.031 727.345C229.791 729.161 224.896 722.603 222.11 718.539C222.11 718.539 206.747 716.446 205.346 708.764C203.945 701.083 209.256 695.911 212.042 693.54C212.042 693.54 195.14 679.994 204.222 662.676C210.842 650.053 225.358 649.437 230.207 651.084Z" fill="#E7D35B"/>
<path d="M202.76 669.402C202.76 669.402 200.944 682.641 223.527 682.641C228.114 698.219 251.497 703.145 260.902 690.384C274.357 696.88 286.364 694.586 287.395 681.61C287.395 681.61 296.354 709.211 261.626 712.551C261.626 712.551 260.656 726.02 240.398 728.099C229.053 729.269 221.879 719.894 222.095 718.57C222.095 718.57 207.933 719.54 205.608 707.594C204.3 700.867 209.672 694.125 212.043 693.57C212.043 693.57 197.819 683.965 202.745 669.433L202.76 669.402Z" fill="#C2B14C"/>
<path d="M229.114 650.452L231.161 651.606C237.719 644.002 249.541 640.908 259.424 645.402C267.737 649.189 272.216 657.24 271.785 665.722C271.616 668.077 272.247 668.724 274.064 669.863C284.608 676.421 289.103 685.611 286.44 694.955C283.577 704.992 272.925 711.95 261.672 711.442L261.549 713.628C275.48 714.259 286.933 706.916 290.089 695.879C293.414 684.241 286.671 673.527 274.248 666.969C275.203 658.256 272.001 647.204 260.502 641.954C250.634 637.459 238.319 639.768 229.099 650.467L229.114 650.452Z" fill="#0E141B"/>
<path d="M204.346 709.533C206.347 715.275 213.197 718.892 221.602 719.724C227.021 729.052 238.582 732.254 247.448 729.576C258.224 726.312 262.519 717.538 262.78 710.395C262.981 704.776 261.41 704.022 260.61 710.241C259.809 716.445 256.069 722.695 246.694 725.542C238.966 727.882 228.776 726.805 223.927 719.185C222.849 717.491 222.757 717.522 220.771 717.276C213.844 716.398 208.841 713.243 207.255 708.686C206.055 705.269 206.285 699.342 212.443 694.832L211.058 693.262C204.992 697.11 202.545 704.376 204.346 709.548V709.533Z" fill="#0E141B"/>
<path d="M228.991 649.899C217.523 648.144 205.454 653.409 201.036 663.923C197.249 672.959 199.851 686.998 214.383 697.127C219.432 700.637 220.679 699.113 215.845 695.387C203.022 685.505 201.498 673.898 205.039 665.447C209.38 655.087 220.001 651.669 228.591 651.993C236.349 652.932 236.58 651.054 228.991 649.899Z" fill="#0E141B"/>
<path d="M184.488 598.838C184.488 598.838 188.244 588.616 194.709 590.664C201.159 592.711 198.896 602.501 198.896 602.501C198.896 602.501 203.514 609.598 200.405 612.615C197.28 615.632 193.524 615.309 188.151 611.538C188.151 611.538 179.115 614.447 178.038 607.766C176.96 601.101 184.488 598.838 184.488 598.838Z" fill="#E7D35B"/>
<path d="M179.793 601.854C179.731 605.995 184.519 607.55 187.567 604.517C189.46 607.519 194.494 605.949 194.248 601.992C196.434 602.808 199.297 601.023 199.112 596.805C198.943 598.344 198.758 601.223 199.235 602.762C199.866 604.794 201.236 605.471 201.313 607.103C201.467 610.551 199.358 613.784 196.264 614.431C193.478 615.015 188.721 613.091 187.967 611.906C187.967 611.906 179.731 612.876 178.438 609.381C177.145 605.887 179.793 601.869 179.793 601.869V601.854Z" fill="#C2B14C"/>
<path d="M183.857 598.238C179.993 599.485 176.668 602.409 176.668 606.119C176.668 612.385 183.103 613.939 187.905 612.6C192.739 616.079 198.019 616.31 200.698 613.724C203.438 611.092 202.637 605.303 199.866 602.286C201.544 596.252 199.666 590.017 194.725 588.709C189.753 587.401 185.581 591.557 183.872 598.238H183.857ZM186.166 611.076C182.518 611.523 179.793 609.429 179.377 606.689C179.008 604.257 180.809 601.701 183.38 600.685C185.396 599.885 185.335 599.762 186.027 597.868C187.382 594.143 190.122 591.203 193.786 592.065C197.603 592.973 198.897 596.852 198.158 600.578C197.727 602.717 197.573 603.01 198.927 604.565C200.528 606.412 200.467 610.306 198.635 611.877C196.526 613.693 192.431 613.262 189.907 611.584C188.09 610.645 187.905 610.861 186.151 611.076H186.166Z" fill="#0E141B"/>
<path d="M516.654 644.911C524.674 633.689 541.884 638.06 544.794 650.16C544.794 650.16 566.222 655.702 566.668 671.157C567.114 686.612 555.292 692.585 555.292 692.585C555.292 692.585 548.149 712.705 534.295 713.736C520.441 714.752 509.804 704.407 507.91 696.972C507.91 696.972 486.19 696.68 483.85 682.24C481.51 667.801 497.412 661.089 497.412 661.089C497.412 661.089 494.641 651.176 500.183 645.927C505.724 640.677 516.654 644.911 516.654 644.911Z" fill="#E7D35B"/>
<path d="M483.388 676.068C485.743 683.133 499.244 685.889 510.712 680.162C517.47 691.6 542.715 692.708 544.578 674.975C555.03 675.467 566.191 672.25 561.511 658.857C561.511 658.857 575.581 677.407 555.292 692.585C555.292 692.585 551.12 712.951 531.74 713.228C512.344 713.505 507.91 696.972 507.91 696.972C507.91 696.972 480.386 696.849 483.388 676.083V676.068Z" fill="#C2B14C"/>
<path d="M512.682 648.974C511.035 653.176 512.236 653.069 514.222 649.744C518.593 642.432 523.935 639.168 532.017 640.307C537.235 641.046 541.345 644.587 543.193 649.867C543.839 651.729 544.84 652.068 545.856 652.361C556.462 655.455 563.312 661.92 564.698 670.248C565.806 676.898 562.435 685.288 555.769 690.429C554.168 691.661 554.045 691.692 553.337 693.985C550.12 704.515 542.438 711.134 532.463 711.827C522.396 712.519 512.744 706.516 508.911 696.941L506.54 697.203C511.343 709.21 521.272 716.753 532.632 715.967C541.576 715.352 552.152 707.917 555.985 693.308C563.189 688.382 569.916 680.901 568.792 670.233C567.869 661.504 559.171 653.13 545.671 650.021C543.608 643.463 538.574 638.168 532.155 637.259C521.949 635.828 515.191 642.539 512.682 648.959V648.974Z" fill="#0E141B"/>
<path d="M499.397 644.171C494.748 648.25 494.856 655.07 495.887 660.458C485.081 665.399 479.647 674.481 481.494 682.394C483.264 689.983 492.408 698.188 509.311 698.018C514.452 697.972 514.221 695.817 509.049 695.832C493.855 695.909 486.666 688.382 485.127 681.793C483.372 674.25 487.944 666.677 496.565 662.659C498.273 661.858 498.396 661.643 498.012 659.011C497.411 654.777 498.243 649.543 501.629 646.572C504.877 643.725 509.896 643.524 516.161 645.972L516.838 644.032C508.633 640.446 502.199 641.693 499.397 644.156V644.171Z" fill="#0E141B"/>
<path d="M527.906 531.49C527.106 528.411 518.439 522.238 513.051 518.636C513.436 514.387 513.636 510.093 513.636 505.736C513.636 447.625 458.942 361.297 368.166 361.297C333.468 361.297 301.619 373.366 276.619 393.485C271.154 391.238 264.581 388.744 262.457 388.744C258.609 388.744 238.858 407.986 238.089 410.803C237.581 412.635 241.645 422.733 244.554 429.568C232.193 449.303 224.496 472.224 222.987 496.808C218.954 500.287 213.536 505.259 213.212 507.014C212.704 509.831 213.72 536.262 218.339 539.849C220.817 541.773 224.896 543.697 228.16 545.067C233.455 563.694 242.43 580.781 254.237 595.528C253.652 600.731 252.882 608.936 253.744 610.66C255.022 613.231 268.63 628.871 273.248 629.64C276.604 630.194 286.21 628.994 291.197 628.301C306.529 637.814 323.77 644.572 342.227 647.882C343.597 652.269 345.799 658.75 347.138 659.92C352.972 665.03 377.217 666.524 380.496 663.26C381.928 661.844 387.439 654.07 391.472 648.328C440.916 640.431 482.033 607.781 501.506 563.586C508.926 562.17 521.302 559.66 522.657 558.583C524.612 557.028 529.092 535.954 527.922 531.475L527.906 531.49Z" fill="#8D93C8"/>
<path d="M510.573 486.355C502.445 572.36 422.721 649.975 285.563 624.591C312.302 645.28 392.565 673.789 465.162 614.508C514.791 573.992 518.639 504.012 510.573 486.355Z" fill="#7A7FAE"/>
<path d="M342.258 647.896C342.258 647.896 344.829 659.18 348.416 660.719C353.542 665.076 374.077 667.293 380.481 663.29C386.638 659.442 389.717 648.928 389.717 648.928L342.258 647.896Z" fill="#7A7FAE"/>
<path d="M277.096 618.648C277.096 618.648 271.447 622.759 259.394 618.91C259.394 618.91 270.169 629.947 274.526 630.194C278.882 630.455 284.532 630.194 290.689 628.393L277.096 618.648Z" fill="#7A7FAE"/>
<path d="M507.109 542.865C507.109 542.865 522.719 553.472 526.844 546.698C526.844 546.698 524.489 558.182 521.841 559.367C519.193 560.553 500.937 564.971 500.937 564.971L507.125 542.881L507.109 542.865Z" fill="#7A7FAE"/>
<path d="M225.266 526.965C225.266 526.965 214.952 530.198 214.075 522.547C214.075 522.547 214.66 536.093 217.615 538.741C220.555 541.389 227.929 545.514 227.929 545.514L225.281 526.965H225.266Z" fill="#7A7FAE"/>
<path d="M240.598 407.662C240.598 407.662 248.557 416.344 255.068 417.545L245.185 431.045C245.185 431.045 237.704 412.711 238.197 410.787C238.674 408.863 240.613 407.646 240.613 407.646L240.598 407.662Z" fill="#7A7FAE"/>
<path d="M439.1 553.703C440.609 545.852 443.102 541.526 449.291 540.741C456.249 539.848 461.898 541.326 464.192 534.307C464.192 534.307 460.528 551.625 458.219 552.779C455.91 553.934 439.1 553.703 439.1 553.703Z" fill="#7A7FAE"/>
<path d="M256.377 534.875C260.24 535.337 259.409 525.793 252.143 523.515C242.846 520.605 238.597 518.943 238.32 514.879C238.32 514.879 239.444 530.442 242.137 532.181C244.831 533.921 256.377 534.875 256.377 534.875Z" fill="#7A7FAE"/>
<path d="M323.524 530.381C307.099 528.734 285.271 534.337 282.854 549.623C281.314 559.367 292.352 567.972 294.014 569.127C295.677 570.281 301.065 579.779 303.251 580.025C305.436 580.287 306.837 577.455 308.638 577.593C310.439 577.716 314.673 585.29 316.982 585.29C319.291 585.29 322.631 579.641 323.647 579.517C324.679 579.394 329.158 584.644 331.082 584.52C333.007 584.397 335.316 579.394 338.902 577.978C349.355 573.868 356.621 570.481 357.883 561.553C359.93 547.237 344.721 532.505 323.509 530.381H323.524ZM340.457 559.382C339.303 566.048 326.218 568.619 316.982 566.818C307.745 565.017 298.248 560.537 299.402 552.317C300.572 544.05 315.119 542.726 320.692 543.589C329.543 544.959 341.889 551.039 340.442 559.367L340.457 559.382Z" fill="white"/>
<path d="M300.957 600.424C300.957 600.424 272.602 577.98 271.97 577.595C271.339 577.21 264.397 574.008 263.766 566.819C263.119 559.63 267.614 554.381 270.046 554.504C272.478 554.627 277.62 560.277 280.175 568.097C280.175 568.097 312.24 594.651 316.735 595.544C321.23 596.437 360.223 579.119 361.762 577.071C363.301 575.024 371.645 563.725 377.156 567.189C382.667 570.652 381.127 579.503 379.342 582.967C376.386 588.647 373.292 590.202 369.721 590.787C366.642 591.295 336.624 605.026 333.422 605.673C333.422 605.673 350.74 616.833 352.156 617.095C353.573 617.357 362.932 617.603 363.963 620.682C366.395 627.963 358.776 634.182 352.156 634.413C348.431 634.536 344.813 633.566 343.921 629.856L315.596 611.584L293.783 617.357C293.783 617.357 289.812 619.158 288.78 619.019C287.749 618.896 279.159 615.556 278.651 610.291C278.143 605.026 279.421 604.01 282.238 603.872C285.055 603.749 289.935 603.487 291.982 603.364C294.03 603.241 300.957 600.408 300.957 600.408V600.424Z" fill="white"/>
<path d="M264.905 444.176C264.905 444.176 276.188 423.902 291.197 426.596C306.206 429.29 306.329 445.961 305.821 454.182C305.821 454.182 277.605 453.674 264.905 444.176Z" fill="white"/>
<path d="M347.769 456.491C347.769 456.491 351.741 432.245 373.815 430.706C395.874 429.167 410.252 443.529 413.716 452.38C413.716 452.38 389.979 460.462 347.784 456.491H347.769Z" fill="white"/>
<path d="M265.551 466.252C265.551 466.252 266.321 483.447 270.939 484.463C273.202 484.971 277.959 477.89 279.529 472.917L265.551 466.252Z" fill="white"/>
<path d="M384.083 483.185C384.083 483.185 388.701 497.932 392.55 498.193C396.398 498.455 404.357 478.828 404.357 478.828L384.083 483.185Z" fill="white"/>
<path d="M273.494 483.493C273.494 483.493 288.888 510.817 325.648 514.28C362.408 517.744 382.99 501.195 389.347 495.038L383.959 482.538C354.019 487.28 297.062 483.293 278.897 472.348C278.897 472.348 276.404 480.229 273.51 483.508L273.494 483.493Z" fill="#EE869A"/>
<path d="M278.636 473.178L273.356 484.23L275.911 488.063C291.074 484.061 369.613 490.465 385.807 498.778L389.332 495.745L384.329 482.676C384.329 482.676 331.483 490.881 278.621 473.178H278.636Z" fill="#CF7487"/>
<path d="M265.382 469.977C265.382 469.977 268.491 475.257 277.327 477.581L279.652 473.086L265.69 466.098L265.382 469.977Z" fill="#DCDDDD"/>
<path d="M385.361 487.032C385.361 487.032 395.628 487.54 402.802 482.922L404.557 478.658L384.853 482.076L385.361 487.032Z" fill="#DCDDDD"/>
<path d="M352.141 634.428C356.359 634.29 360.977 631.704 363.147 627.963C356.682 628.717 350.016 629.194 343.151 629.379L343.921 629.872C344.813 633.597 348.431 634.567 352.156 634.428H352.141Z" fill="#DCDDDD"/>
<path d="M273.125 396.394C264.197 404.183 266.028 406.693 274.988 398.888C301.649 375.69 335.208 362.974 370.075 362.974C453.94 362.974 522.349 448.04 509.773 531.259C508.603 539.032 511.127 539.279 512.62 531.428C527.491 452.982 460.42 359.711 370.075 359.711C335.608 359.711 302.604 370.671 273.109 396.41L273.125 396.394Z" fill="#0E141B"/>
<path d="M250.434 420.794C232.331 443.469 222.125 471.178 221.864 500.441C221.741 514.003 224.296 513.865 224.927 500.241C226.22 472.317 235.749 445.67 252.697 422.641C258.732 414.436 256.777 412.836 250.434 420.794Z" fill="#0E141B"/>
<path d="M224.173 532.074C235.364 598.344 285.778 641.785 348.893 650.175C359.314 651.56 359.453 648.943 349.001 647.327C280.16 636.736 237.042 585.844 227.252 531.966C225.266 521.052 222.341 521.222 224.173 532.059V532.074Z" fill="#0E141B"/>
<path d="M502.614 557.182C482.264 607.335 437.145 642.386 382.99 647.712C370.044 648.99 369.828 652.023 382.605 650.807C436.822 645.711 484.912 614.277 505.247 558.229C508.587 549.008 506.309 548.13 502.63 557.167L502.614 557.182Z" fill="#0E141B"/>
<path d="M236.519 411.388C236.78 416.807 243.923 431.908 244.215 432.493C244.539 433.139 247.279 430.646 246.955 429.999C245.016 426.166 239.936 415.329 239.782 411.296C239.659 407.755 258.116 391.299 262.534 391.299C266.952 391.299 277.512 395.579 277.62 395.625C278.282 395.902 280.483 393.131 279.821 392.854C279.375 392.669 267.675 387.943 262.672 387.943C254.329 387.943 236.334 407.555 236.519 411.388Z" fill="#0E141B"/>
<path d="M511.758 519.606C518.593 524.779 526.028 531.028 526.629 532.522C528.106 536.231 524.166 555.535 520.764 557.706C517.654 559.676 506.263 561.693 501.629 562.493C500.921 562.616 499.69 566.449 500.413 566.326C502.168 566.018 517.916 563.894 522.026 561.277C526.721 558.291 531.401 536.093 528.999 530.074C527.86 527.226 516.715 518.698 513.313 516.127C512.867 515.789 511.173 519.175 511.758 519.606Z" fill="#0E141B"/>
<path d="M452.554 518.45C459.928 521.699 463.16 524.469 463.884 525.67C464.577 527.933 459.666 548.884 457.403 550.5C456.018 551.362 451.4 551.578 443.133 551.285C438.838 551.131 439.085 552.979 438.099 557.027C437.114 561.076 438.669 561.137 440.485 556.334C440.839 555.411 441.255 554.302 441.486 553.702C446.043 554.102 455.54 555.534 458.28 553.825C462.683 551.07 469.302 526.963 467.809 523.5C467.27 522.237 459.851 518.281 453.847 516.249C445.319 513.355 444.565 514.941 452.539 518.45H452.554Z" fill="#0E141B"/>
<path d="M339.364 646.973C339.487 647.373 342.674 657.271 346.045 660.965C351.571 667.046 377.648 668.339 381.281 665.922C384.329 663.89 392.596 649.743 393.427 648.266C393.781 647.634 389.686 647.173 389.332 647.804C386.3 653.145 381.143 661.412 379.219 662.69C376.217 664.691 353.296 664.367 348.801 659.426C345.83 656.163 343.936 647.496 343.905 647.404C343.705 646.711 339.18 646.28 339.38 646.973H339.364Z" fill="#0E141B"/>
<path d="M253.006 594.22C252.775 595.405 250.358 608.059 252.051 612.462C253.698 616.741 267.599 630.842 273.202 631.827C278.821 632.812 292.244 630.211 292.752 630.118C293.46 629.98 291.244 626.839 290.52 626.978C290.397 626.993 278.929 629.287 273.772 628.379C269.554 627.64 256.854 614.555 255.376 610.707C254.175 607.582 255.838 599.469 256.438 596.452C256.577 595.744 253.129 593.497 252.99 594.205L253.006 594.22Z" fill="#0E141B"/>
<path d="M223.311 492.989C222.972 493.282 212.92 501.456 211.227 506.536C208.995 513.232 212.504 536.292 215.583 540.14C218.308 543.542 229.268 548.237 229.653 548.407C230.315 548.715 229.961 544.666 229.299 544.358C226.882 543.234 220.294 540.34 218.354 537.923C216.076 535.076 213.628 511.816 215.091 507.398C216.307 503.734 222.464 498.408 224.635 496.514C225.173 496.037 223.865 492.497 223.326 492.974L223.311 492.989Z" fill="#0E141B"/>
<path d="M247.002 500.425C239.705 502.611 237.442 503.673 236.996 505.043C234.994 511.016 238.012 532.444 241.491 533.937C243.292 534.707 247.771 534.938 251.835 535.184C259.378 535.63 259.363 533.722 252.405 532.875C247.171 532.275 244.092 531.49 242.46 530.828C240.829 530.166 239.135 508.676 240.044 507.198C240.936 505.72 243.43 504.489 248.002 502.765C253.267 500.779 252.42 498.793 247.002 500.425Z" fill="#0E141B"/>
<path d="M248.88 490.897C248.834 491.913 248.711 492.621 248.942 494.73C249.419 499.302 250.866 499.64 251.004 495.007C251.066 493.052 250.989 491.543 250.897 490.466C250.558 486.309 249.065 486.848 248.895 490.897H248.88Z" fill="#0E141B"/>
<path d="M413.116 449.18C406.82 437.573 392.781 427.398 375.016 428.43C362.286 429.184 351.387 437.358 347.092 453.06C345.737 458.032 346.153 457.693 350.386 458.186C366.211 460.048 392.996 458.848 411.484 454.399C415.055 453.537 415.317 453.213 413.116 449.165V449.18ZM375.17 432.155C394.612 431.016 406.604 441.53 411.684 451.705C394.751 455.507 364.41 457.739 348.955 455.538C352.018 442.161 361.716 432.955 375.17 432.155Z" fill="#0E141B"/>
<path d="M265.874 440.189C263.365 444.16 263.057 444.422 266.798 446.608C273.31 450.41 286.979 454.828 302.157 455.259C307.083 455.398 307.037 455.259 307.145 451.395C307.576 436.879 302.358 426.981 292.767 424.734C283.546 422.578 272.601 429.536 265.859 440.189H265.874ZM292.182 428.151C300.988 430.214 305.837 441.466 304.559 452.873C292.259 453.073 272.648 448.147 266.752 443.575C272.663 432.908 283.623 426.15 292.182 428.166V428.151Z" fill="#0E141B"/>
<path d="M346.907 422.795C344.844 423.841 342.751 425.612 341.612 427.936C339.795 431.631 340.781 432.693 342.874 429.614C344.675 426.966 346.091 425.412 348.169 424.119C351.248 422.225 350.848 420.778 346.892 422.795H346.907Z" fill="#0E141B"/>
<path d="M337.671 439.774C339.01 440.359 340.442 434.956 339.318 434.402C338.194 433.847 336.332 439.189 337.671 439.774Z" fill="#0E141B"/>
<path d="M308.007 428.797C308.807 430.475 309.254 431.599 309.931 433.892C310.778 436.725 312.117 436.663 311.855 433.523C311.671 431.291 310.886 429.09 309.746 427.75C307.576 425.195 306.852 426.411 308.007 428.813V428.797Z" fill="#0E141B"/>
<path d="M256.607 455.768C255.868 455.86 255.93 458.138 257.177 460.124C263.673 470.438 288.241 481.136 326.464 484.985C363.024 488.664 402.294 484.461 417.456 474.071C421.628 471.207 422.998 467.236 422.213 466.897C421.52 466.589 420.104 468.514 417.687 470.33C404.51 480.244 364.456 485.524 326.726 481.721C293.06 478.335 270.585 469.391 260.625 460.155C257.593 457.338 257.716 455.644 256.607 455.783V455.768Z" fill="#0E141B"/>
<path d="M263.935 465.512C264.874 475.872 267.137 484 270.431 485.37C273.248 486.54 277.728 480.044 280.499 473.501C280.776 472.839 278.051 471.008 277.836 471.7C276.173 476.98 272.648 484.354 270.97 483.307C269.307 482.26 267.322 474.825 266.767 466.343C266.721 465.62 263.873 464.773 263.95 465.497L263.935 465.512Z" fill="#0E141B"/>
<path d="M403.033 477.873C399.169 486.263 394.166 496.931 392.288 496.777C390.394 496.623 387.577 488.48 385.253 481.891C385.007 481.214 382.097 482.353 382.282 483.046C384.468 490.866 389.317 498.963 392.288 499.209C394.72 499.409 400.754 492.159 406.019 478.551C406.281 477.873 403.34 477.211 403.048 477.873H403.033Z" fill="#0E141B"/>
<path d="M271.478 484.324C277.974 496.162 296.539 511.663 321.015 515.835C345.876 520.068 374.2 512.002 390.825 497.07C391.364 496.593 389.178 494.207 388.64 494.684C372.569 509.123 345.568 515.835 321.446 511.725C297.832 507.707 280.406 493.93 274.203 482.615C273.849 481.984 271.124 483.677 271.478 484.308V484.324Z" fill="#0E141B"/>
<path d="M375.57 439.652C376.208 439.652 376.725 438.273 376.725 436.573C376.725 434.873 376.208 433.494 375.57 433.494C374.932 433.494 374.416 434.873 374.416 436.573C374.416 438.273 374.932 439.652 375.57 439.652Z" fill="#0E141B"/>
<path d="M289.858 431.585C289.75 432.939 290.089 434.078 290.597 434.109C291.105 434.14 291.597 433.078 291.705 431.723C291.813 430.369 291.474 429.229 290.966 429.199C290.458 429.153 289.966 430.23 289.858 431.585Z" fill="#0E141B"/>
<path d="M297.694 551.824C296.339 559.844 305.914 566.679 317.521 568.218C331.252 570.035 341.165 566.371 342.212 559.259C343.105 553.21 337.178 545.266 322.785 542.819C307.961 540.31 298.679 545.928 297.678 551.809L297.694 551.824ZM317.875 565.848C307.238 564.447 299.218 558.536 300.28 552.271C300.926 548.407 308.3 543.65 322.37 545.636C332.514 547.067 340.103 553.471 338.995 558.828C337.825 564.509 329.743 567.403 317.875 565.848Z" fill="#0E141B"/>
<path d="M280.668 548.316C279.159 557.044 284.871 563.694 293.322 570.19C296.985 572.992 299.987 580.92 303.589 581.228C305.452 581.382 306.376 580.289 307.007 579.565C308.654 577.626 309.778 579.504 311.794 582.013C313.749 584.445 315.596 586.754 317.705 586.6C319.814 586.446 321.246 583.968 322.277 582.413C323.647 580.35 323.986 580.874 325.541 582.413C329.697 586.539 331.806 586.831 334.993 583.044C336.132 581.69 337.671 579.334 342.566 577.595C347.477 575.871 357.991 572.761 359.9 561.862C362.178 548.855 346.646 531.013 323.493 528.735C301.757 526.595 282.731 536.37 280.668 548.316ZM294.368 567.943C286.533 561.924 283.254 554.843 284.347 548.531C286.025 538.849 302.281 529.489 323.247 531.552C346.215 533.815 358.314 550.856 356.467 561.401C354.82 570.76 345.66 573.808 341.75 575.101L340.58 575.501C336.27 577.179 334.715 579.581 333.238 581.335C331.467 583.429 329.897 583.537 327.296 580.966C324.14 577.841 322.631 577.456 319.937 581.489C318.152 584.183 316.458 584.414 313.226 580.381C309.577 575.825 307.546 575.578 305.437 578.072C302.62 581.382 298.017 570.76 294.353 567.943H294.368Z" fill="#0E141B"/>
<path d="M268.907 553.348C265.089 553.964 261.949 560.245 262.457 566.187C262.965 572.083 265.151 575.392 271.816 580.149C274.51 582.058 285.517 590.247 299.217 600.438C295.954 601.331 292.875 602.547 289.904 602.747C284.408 603.132 280.037 600.792 277.866 605.395C274.187 613.215 286.071 622.22 292.305 619.449C296.385 617.633 306.929 614.908 312.348 613.446C314.78 612.784 316.058 612.645 318.875 614.646C332.037 623.975 341.396 627.731 342.997 631.749C344.321 635.074 352.11 638.553 360.7 632.195C365.564 628.593 367.642 622.651 364.948 619.572C362.516 616.771 355.42 616.678 352.402 616.309C350.925 615.939 344.783 611.66 335.546 606.103C346.614 602.177 355.912 598.529 363.778 594.604C367.935 592.526 370.69 593.388 375.416 590.74C379.049 588.708 383.051 581.211 382.436 573.807C381.45 561.984 370.521 562.585 362.532 574.576C361.577 576.008 360.115 577.209 356.174 579.179C348.754 582.889 334.884 588.154 321.276 593.003C317.351 594.404 316.905 594.311 313.472 592.033C310.316 589.924 282.453 569.358 281.114 566.141C277.42 557.274 273.279 552.656 268.907 553.364V553.348ZM290.427 604.84C292.49 604.779 296.6 603.501 300.541 602.393C303.235 601.639 303.543 600.669 301.034 598.806C286.225 587.815 273.802 578.148 273.032 577.378L270.816 575.654C267.167 573.099 265.228 570.697 264.905 566.541C264.489 561.153 267.506 556.643 269.338 556.35C272.309 555.873 275.526 559.583 278.651 567.08C280.729 572.052 312.548 594.527 313.379 595.096C316.597 597.313 317.921 596.867 320.999 595.774C334.915 590.848 349.724 584.859 357.344 581.057C360.407 579.518 362.793 577.455 363.778 576.085C371.06 566.033 377.51 566.479 379.111 571.375C380.558 575.762 379.88 583.982 374.123 587.738C371.937 589.154 370.629 589.416 368.966 589.739C367.381 590.047 365.579 590.401 362.855 591.817C355.143 595.82 345.06 600.022 333.638 604.025C330.728 605.041 330.159 605.841 333.976 608.15C340.611 612.153 350.078 617.725 352.449 618.31C352.449 618.31 361.962 618.495 362.993 621.62C364.04 624.76 361.731 629.039 357.328 631.518C351.864 634.597 346.815 633.55 345.876 631.164C345.183 629.409 344.167 627.87 337.301 624.052C333.545 621.958 327.218 617.74 318.444 611.506C315.627 609.505 315.427 609.797 312.625 610.629C310.809 611.167 296.739 614.785 291.228 617.248C285.855 619.634 277.512 612.26 280.221 606.488C281.453 603.871 284.039 605.01 290.397 604.825L290.427 604.84Z" fill="#0E141B"/>
<path d="M342.566 377.152C342.566 377.152 354.45 344.825 356.097 343.625C367.027 335.681 393.596 341.331 396.844 349.043C399.707 355.816 404.218 382.417 404.218 382.417L342.566 377.152Z" fill="#8D93C8"/>
<path d="M457.588 415.498C457.588 415.498 492.624 411.434 495.472 411.896C509.542 414.113 515.468 440.621 512.313 445.87C504.2 459.401 487.652 471.285 487.652 471.285L457.588 415.498Z" fill="#8D93C8"/>
<path d="M439.685 601.793C428.971 609.213 430.218 619.049 430.218 619.049C430.218 619.049 450.83 636.675 454.709 636.675C464.761 636.675 477.908 626.053 477.908 617.879C477.908 613.6 467.163 574.623 467.163 574.623C467.163 574.623 450.368 594.358 439.67 601.778L439.685 601.793Z" fill="#8D93C8"/>
<path d="M429.294 618.356C423.506 613.83 433.235 595.604 441.609 603.808C449.906 611.936 460.343 626.637 471.165 628.408C471.165 628.408 463.176 638.029 455.618 636.997C448.075 635.966 429.31 618.356 429.31 618.356H429.294Z" fill="#7A7FAE"/>
<path d="M405.634 602.485C402.509 599.807 404.249 589.062 412.438 593.711C419.242 597.559 428.586 605.826 432.311 604.163C432.311 604.163 423.583 611.213 420.381 611.09C417.179 610.967 405.634 602.501 405.634 602.501V602.485Z" fill="#7A7FAE"/>
<path d="M470.842 594.327C472.797 601.054 476.553 615.216 476.106 617.771C474.382 627.639 461.328 635.767 454.878 634.551C450.491 633.735 438.623 624.037 434.836 621.143C429.186 616.848 428.17 618.249 433.327 623.467C437.068 627.239 449.367 637.937 454.401 638.876C461.667 640.231 478.446 628.809 480.216 618.664C480.801 615.324 475.799 599.545 473.489 593.218C470.441 584.86 468.41 585.999 470.842 594.342V594.327Z" fill="#0E141B"/>
<path d="M431.465 586.691C434.759 592.294 436.591 596.297 436.437 597.59C436.006 599.853 423.368 609.166 420.72 609.166C419.011 609.166 414.424 607.303 409.898 603.917C403.756 599.314 402.386 600.961 408.743 606.149C412.192 608.966 417.379 613.338 420.073 613.338C423.829 613.338 439.562 602.3 440.131 597.528C440.408 595.127 436.344 589.416 433.774 585.675C428.971 578.656 427.278 579.625 431.449 586.691H431.465Z" fill="#0E141B"/>
<path d="M380.989 353.323C377.571 353.169 376.447 353.477 376.17 356.91C375.724 362.436 376.678 368.625 378.218 373.582C380.742 381.709 388.116 383.88 392.98 383.603C397.845 383.326 401.385 382.51 404.079 381.586C403.309 375.552 398.014 355.786 395.828 349.629C393.227 352.6 385.961 353.554 380.989 353.339V353.323Z" fill="#7A7FAE"/>
<path d="M354.265 343.301C353.126 345.302 345.845 364.005 342.735 372.641C340.488 378.875 343.059 379.091 345.491 373.38C349.339 364.282 355.774 348.981 357.421 345.902C361.608 338.067 391.226 340.53 395.074 350.151C396.013 352.491 399.538 367.007 401.77 376.459C403.618 384.294 405.819 384.202 404.403 375.304C403.156 367.469 399.677 350.797 398.599 348.088C394.289 337.297 359.884 333.51 354.281 343.301H354.265Z" fill="#0E141B"/>
<path d="M500.121 438.141C498.304 435.648 497.196 434.909 494.194 437.91C489.776 442.328 485.451 445.869 479.909 448.994C474.244 452.18 474.706 455.059 476.107 458.338C477.969 462.725 482.357 468.098 488.237 471.007C497.288 464.08 506.402 453.32 511.789 445.038C508.003 446.423 503.384 442.636 500.121 438.157V438.141Z" fill="#7A7FAE"/>
<path d="M464.561 412.603C454.509 414.343 454.832 416.683 464.9 415.42C474.398 414.22 491.993 413.034 495.887 413.819C506.417 415.928 514.437 437.049 510.404 444.607C508.095 449.918 499.135 460.216 492.208 465.881C485.066 471.731 486.959 473.793 494.209 467.79C501.906 461.586 512.389 450.287 514.283 445.746C518.993 436.941 508.233 412.326 496.395 409.94C490.376 408.724 474.906 410.833 464.561 412.619V412.603Z" fill="#0E141B"/>
</g>
<defs>
<clipPath id="clip0_42_68214">
<rect width="520" height="480.484" fill="white" transform="translate(140 250)"/>
</clipPath>
</defs>
</svg>
