<svg width="800" height="800" viewBox="0 0 800 800" fill="none" xmlns="http://www.w3.org/2000/svg">
<g clip-path="url(#clip0_42_59257)">
<path d="M699.532 600.226C693.26 598.665 695.993 606.693 674.788 607.523C670.982 607.669 644.53 605.57 644.53 605.57C617.2 588.489 611.344 593.858 611.344 593.858C604.316 583.365 572.106 555.888 551.364 547.592C543.873 525.069 527.841 517.748 508.515 514.405C474.913 508.622 444.167 505.499 442.703 495.128C441.727 488.1 469.862 416.774 471.814 406.037C473.767 395.3 470.033 385.32 464.177 383.368C458.32 381.416 447.12 381.367 439.287 386.296C412.933 402.889 296.781 436.93 282.139 438.882C273.33 440.053 242.975 450.717 184.776 424.729C156.812 412.26 113.133 391.616 105.471 395.593C93.2698 401.938 87.9991 419.214 96.198 447.813C118.184 524.337 207.031 597.884 237.24 655.716C241.511 663.891 291.046 670.357 312.52 666.453C334.457 693.661 462.566 708.814 480.111 702.787C484.528 708.375 512.151 715.452 529.354 716.842C553.267 720.747 573.765 713.914 579.621 715.866C584.136 718.429 602.632 719.429 615.248 714.89C634.281 708.058 648.556 695.076 648.556 695.076C658.463 692.904 708.78 650.689 706.681 609.255C704.827 604.887 702.826 601.056 699.532 600.226Z" fill="#72BF44"/>
<path d="M459.784 411.21C457.271 415.505 418.375 482.488 415.373 496.128C410.981 516.138 429.038 539.075 448.559 537.123C468.081 535.171 473.498 527.192 464.518 526.582C453.318 525.825 440.458 513.21 442.215 499.545C445.631 473.191 468.545 421.069 470.033 416.579C472.961 407.794 464.665 402.914 459.784 411.21Z" fill="#5CA038"/>
<path d="M701.752 639.685C702.069 639.221 702.338 638.758 702.582 638.27C702.289 638.758 702.021 639.221 701.752 639.685Z" fill="#5CA038"/>
<path d="M319.743 471.727C319.743 491.419 304.199 508.207 282.628 508.207C261.056 508.207 245.732 490.833 245.732 472.068C245.732 452.376 261.178 436.759 282.75 436.759C306.517 436.759 319.767 455.646 319.767 471.727H319.743Z" fill="#061922"/>
<path d="M311.007 458.55C300.246 461.502 267.986 466.236 250.686 469.262C250.686 469.531 250.881 470.604 250.881 470.873C250.661 490.687 265.888 503.034 282.506 503.034C300.172 503.034 314.521 489.32 314.521 472.41C314.521 467.408 313.252 462.698 311.031 458.55H311.007Z" fill="white"/>
<path d="M282.506 441.786C263.228 441.786 251.369 455.549 251.003 468.848C265.864 467.579 300.246 461.503 311.007 458.526C305.712 448.594 294.95 441.762 282.506 441.762V441.786Z" fill="#72BF44"/>
<path d="M312.617 460.184C299.538 462.405 259.69 469.628 249.807 471.653C245.952 472.458 246.562 467.968 250.686 467.114C254.053 466.407 308.225 456.939 311.617 456.158C314.984 455.377 316.204 459.574 312.617 460.184Z" fill="#061922"/>
<path d="M295.878 473.215C295.878 480.707 290.314 486.783 283.482 486.783C276.649 486.783 271.085 480.707 271.085 473.215C271.085 465.724 276.625 462.234 283.482 462.234C290.338 462.234 295.878 465.724 295.878 473.215Z" fill="#061922"/>
<path d="M663.075 659.743C653.315 672.431 625.594 682.143 623.789 682.436C591.334 687.561 558.075 682.07 542.287 672.309C489.115 686.072 373.622 637.268 369.132 580.949C349.61 659.035 273.965 597.42 273.965 597.42C275.185 646.224 238.582 636.463 238.582 636.463L259.934 647.444C253.223 658.425 233.702 653.544 233.702 653.544C233.702 653.544 237.362 659.645 264.814 665.135C292.266 670.626 314.838 663.915 314.838 663.915C317.473 677.946 385.798 707.228 481.185 703.715C486.504 712.646 561.662 722.553 579.597 715.867C600.509 722.04 638.698 710.815 650.094 692.612C650.094 692.612 685.623 682.436 703.192 632.291C690.674 651.324 669.517 660.109 663.051 659.743H663.075Z" fill="#5CA038"/>
<path d="M178.334 540.393C174.381 544.517 180.921 580.363 188.681 587.757C196.489 595.199 226.821 605.619 230.408 603.252C233.995 600.885 233.678 559.792 227.821 553.326C222.258 547.177 182.287 536.245 178.31 540.369L178.334 540.393ZM223.38 557.499C226.308 560.744 228.48 597.713 227.138 598.884C225.82 600.031 196.904 589.855 191.536 584.731C185.728 579.192 179.408 546.298 181.531 543.907C183.678 541.515 218.548 552.203 223.356 557.499H223.38Z" fill="#061922"/>
<path d="M276.747 506.524C263.155 554.937 267.01 601.984 279.553 633.047C279.992 634.121 283.823 632.559 283.408 631.485C272.428 604.278 270.793 543.127 280.749 507.647C281.066 506.548 277.064 505.426 276.747 506.524Z" fill="#061922"/>
<path d="M364.666 559.183C331.089 552.863 263.423 545.176 225.991 552.423C224.869 552.643 225.649 556.718 226.772 556.498C264.643 549.178 362.934 563.819 364.617 565.747C367.253 568.724 365.179 646.712 365.179 644.076C365.179 645.223 369.327 645.199 369.327 644.052C370.938 624.653 373.134 580.315 371.548 566.43C370.962 561.257 370.059 560.207 364.642 559.183H364.666Z" fill="#061922"/>
<path d="M189.218 589.952C211.594 626.189 253.858 658.277 311.544 667.086C312.666 667.257 316.082 664.109 314.935 663.939C260.422 655.593 211.033 618.478 192.048 587.756C191.438 586.78 188.608 588.952 189.218 589.928V589.952Z" fill="#061922"/>
<path d="M261.252 639.88C259.836 644.467 263.521 651.788 272.379 656.571C273.379 657.108 276.21 654.887 275.209 654.35C269.573 651.3 266.108 645.712 267.328 641.808C268.719 637.342 275.624 633.096 287.532 634.341C287.459 634.341 367.009 646.102 367.009 646.102C368.131 646.273 368.741 640.783 367.619 640.612L288.069 630.217C273.672 628.704 263.228 633.633 261.3 639.88H261.252Z" fill="#061922"/>
<path d="M365.447 645.808C367.228 646.955 410.102 673.309 428.672 679.776C437.432 682.826 497.973 688.146 510.833 695.588C511.833 696.174 513.224 693.246 512.224 692.684C491.946 681.191 435.822 677.921 429.941 675.798C411.957 669.307 368.839 640.513 368.4 640.22C367.448 639.61 364.495 645.174 365.472 645.784L365.447 645.808Z" fill="#061922"/>
<path d="M313.374 667.21C313.52 668.357 317.644 667.82 317.498 666.697C316.009 654.692 349.391 643.808 369.937 646.615C371.084 646.761 368.693 642.149 367.546 642.003C351.074 639.758 310.885 647.322 313.374 667.21Z" fill="#061922"/>
<path d="M315.814 668.137C336.58 679.117 381.333 691.294 416.276 700.322C417.374 700.615 418.423 697.98 417.325 697.687C382.602 688.707 336.311 674.091 315.863 663.305C314.862 662.768 314.813 667.624 315.838 668.161L315.814 668.137Z" fill="#061922"/>
<path d="M309.591 664.233C278.796 666.502 245.22 659.962 240.534 654.106C233.556 645.394 223.112 626.215 183.874 578.265C154.225 542.053 105.422 491.126 99.3215 440.566C96.1492 414.212 98.3942 405.354 105.422 399.815C118.428 389.591 208.251 453.572 261.447 444.055C341.607 429.707 377.428 416.311 446.559 388.883C462.42 382.587 469.765 391.006 469.765 398.302C469.765 413.114 448.315 458.867 440.458 492.859C434.895 516.968 442.191 524.581 456.685 527.753C472.473 531.219 473.352 527.851 461.248 523.922C444.484 518.505 442.288 506.329 446.9 491.297C454.953 464.943 470.448 424.827 475.572 407.014C481.209 387.443 464.738 372.558 443.826 381.831C396.95 402.67 336.092 426.096 258.348 439.907C227.943 445.324 140.341 402.841 118.013 392.836C103.86 386.492 94.0751 393.227 90.6588 411.772C88.6335 422.777 91.8301 440.273 93.5139 449.765C102.518 500.838 164.474 564.039 177.48 579.144C200.174 605.497 217.353 629.094 232.726 656.936C238.778 667.893 294.267 672.285 312.08 668.21C319.743 666.453 315.423 663.842 309.616 664.257L309.591 664.233Z" fill="#061922"/>
<path d="M645.238 695.978C676.155 677.555 695.652 649.664 702.655 627.824C708.023 611.06 700.142 602.446 697.677 603.91C684.085 611.987 664.222 613.207 641.943 605.106C637.063 603.325 636.453 599.908 638.674 600.665C648.312 603.935 680.205 610.962 693.773 598.64C701.801 591.343 715.1 607.815 707.95 630.167C699.776 655.691 672.47 687.95 646.531 698.711C641.114 700.956 639.576 699.394 645.238 696.003V695.978Z" fill="#061922"/>
<path d="M317.278 665.599C337.556 686.56 376.282 690.342 436.749 699.737C506.88 710.62 557.416 671.968 558.929 606.23C560.32 544.884 534.405 521.458 499.242 515.26C474.669 510.941 460.76 507.866 443.216 499.569C439.824 497.983 439.14 491.907 444.558 494.958C456.026 501.4 484.772 507.793 501.78 510.331C561.052 519.115 566.274 576.24 565.298 607.474C564.077 646.712 537.528 703.812 470.423 706.594C459.418 707.058 449.487 705.813 435.895 704.154C365.35 695.613 338.727 690.66 310.104 667.551C305.98 664.233 309.665 662.158 317.302 665.648L317.278 665.599Z" fill="#061922"/>
<path d="M483.966 704.397C533.966 719.136 586.942 720.82 610.904 696.174C633.793 672.602 634.843 615.965 597.776 581.949C583.623 568.943 575.424 564.282 554.244 550.91C548.46 547.25 549.168 542.296 552.291 544.2C577.206 559.329 591.895 570.749 599.533 576.678C627.522 598.445 648.703 663.549 615.541 699.785C584.38 733.826 503.317 717.574 478.525 705.227C468.862 700.395 477.817 702.591 483.991 704.422L483.966 704.397Z" fill="#061922"/>
<path d="M610.172 592.979C638.625 598.713 651.485 613.744 656.511 626.238C665.54 648.59 660.025 679.995 640.992 697.32C624.96 711.962 603.755 717.94 583.013 714.89L569.836 717.061C592.774 722.43 622.08 719.184 642.505 703.616C661.27 689.317 674.325 652.836 660.904 623.53C653.681 607.766 637.063 592.32 608.001 589.123L610.148 592.979H610.172Z" fill="#061922"/>
<path d="M629.889 633.632C640.723 642.954 654.413 638.61 658.561 629.069C660.22 625.214 662.465 628.654 660.342 632.534C654.413 643.32 638.698 646.614 629.401 637.439L629.889 633.657V633.632Z" fill="#061922"/>
<path d="M626.692 636.853C616.102 654.764 561.71 644.784 559.832 597.005C559.636 592.198 562.979 593.101 563.199 596.639C565.322 630.826 610.343 654.325 627.01 631.9C631.06 626.434 628.254 634.218 626.692 636.878V636.853Z" fill="#061922"/>
<path d="M537.919 680.996C558.27 691.44 588.333 696.736 614.882 691.318C620.226 690.22 620.25 694.32 614.931 695.515C585.893 702.104 558.636 696.809 535.454 683.412C531.159 680.923 531.477 677.678 537.919 680.996Z" fill="#061922"/>
<path d="M620.153 689.732C630.816 687.512 645.043 681.851 661.172 666.819C663.466 664.696 664.808 666.356 662.295 669.381C651.167 682.876 630.67 691.855 618.054 694.296L620.153 689.708V689.732Z" fill="#061922"/>
</g>
<defs>
<clipPath id="clip0_42_59257">
<rect width="620" height="341.112" fill="white" transform="translate(90 379)"/>
</clipPath>
</defs>
</svg>
