<svg width="800" height="800" viewBox="0 0 800 800" fill="none" xmlns="http://www.w3.org/2000/svg">
<g clip-path="url(#clip0_42_68452)">
<path d="M658.132 431.243C658.402 411.941 667.756 385.16 673.559 370.327C676.046 363.984 679.182 356.18 674.929 349.386C672.171 344.97 668.783 344.484 662.8 346.899C649.842 352.143 624.485 362.614 614.572 360.956C611.815 357.658 609.851 355.838 600.245 354.9C575.158 352.413 556.144 344.97 542.646 326.515C529.147 308.043 521.974 281.316 519.487 271.674C517 262.032 512.873 256.517 502.114 250.732C491.373 244.947 473.26 240.243 460.501 245.488C455.815 247.416 450.3 256.229 445.056 264.231C439.811 272.233 422.185 302.816 403.154 304.745C383.311 296.743 365.542 267.889 357.125 256.229C353.539 251.273 346.384 244.1 336.183 242.73C325.983 241.361 306.411 244.1 300.067 249.903C293.723 255.688 293.435 262.771 289.866 275.26C278.296 315.774 243.009 372.562 191.195 384.961L180.453 381.375C179.624 372.562 176.326 362.902 170.253 360.704C164.197 358.505 157.854 360.974 149.581 366.489C141.309 372.004 121.557 382.619 105.751 411.959C101.895 419.132 98.5786 427.674 106.31 449.715C109.608 469.828 111.825 482.245 110.167 489.689C108.509 497.132 104.382 505.404 101.066 509.261C97.7496 513.117 92.9196 517.803 93.0638 526.075C93.6225 556.677 96.3258 592.199 107.68 622.819C110.437 630.262 116.781 639.453 132.208 636.876C140.48 635.506 150.681 633.578 157.295 633.29C152.339 639.345 148.752 643.76 144.896 648.446L144.337 673.533L156.736 678.489L189.266 681.517C202.495 682.905 223.436 677.66 234.754 671.316C241.639 677.931 246.325 681.787 253.768 683.445C261.211 685.103 282.153 686.761 294.552 686.203C306.411 689.501 316.323 687.032 321.838 684.004C327.352 680.976 333.138 674.632 334.796 670.776C336.454 666.919 341.68 660.575 344.726 657.547C346.384 667.189 355.467 678.778 368.425 681.535C367.326 691.736 366.226 705.793 364.298 713.777C356.026 722.878 349.141 744.09 358.783 751.263L386.069 762.004C394.611 763.103 410.038 762.004 418.04 760.634L449.183 752.092C460.212 747.965 469.584 736.935 471.512 732.52C473.441 728.104 473.999 721.49 473.711 717.904C473.441 714.317 472.053 712.119 470.124 711.83L470.395 703.558C475.081 704.928 479.929 702.08 485.011 696.385C498.509 681.229 524.155 660.287 540.681 650.915C547.566 655.331 561.353 664.702 565.21 667.171C573.752 666.901 584.782 668.559 593.054 661.386C590.026 668.829 586.44 679.859 588.638 693.087L613.725 701.9C623.097 702.729 638.524 703.27 646.255 702.729L672.712 701.071C682.642 699.413 698.069 690.33 701.097 686.185C704.125 682.058 703.025 671.298 701.656 663.315C714.884 637.957 704.972 566.842 675.199 516.956C678.786 513.658 682.913 508.972 679.885 504.557C676.857 500.141 664.17 479.758 654.528 480.299C660.601 471.756 669.955 458.528 669.955 452.184C669.955 445.841 664.17 437.586 658.096 431.243H658.132Z" fill="#88B2D1"/>
<path d="M221.292 586.918C220.625 599.425 226.014 613.843 233.006 619.7C239.999 625.558 249.442 630.406 261.607 627.468C254.957 617.448 243.585 601.894 221.292 586.918Z" fill="white"/>
<path d="M231.366 594.83C229.492 602.201 230.934 612.474 237.584 616.511C244.234 620.566 250.308 618.385 253.335 615.357C247.694 608.851 239.602 600.615 231.366 594.83Z" fill="#E60044"/>
<path d="M145.508 649.149C139.994 648.122 118.745 664.756 123.359 672.47C126.909 678.399 147.707 673.425 150.158 670.74C152.609 668.054 151.42 650.266 145.49 649.149H145.508Z" fill="#C7DDDC"/>
<path d="M171.118 660.936C164.882 662.504 150.951 682.293 155.781 688.366C160.611 694.458 186.707 685.645 189.284 681.5C191.844 677.372 182.436 658.071 171.136 660.918L171.118 660.936Z" fill="#C7DDDC"/>
<path d="M247.1 658.449C242.035 652.141 237.079 645.617 227.726 642.229C228.176 648.987 233.925 664.864 237.296 666C240.666 667.117 244.054 662.287 247.1 658.449Z" fill="white"/>
<path d="M377.833 731.025C362.928 728.682 353.755 760.689 360.712 771.124C363.721 775.629 385.835 768.024 389.998 754.147C391.349 749.641 385.492 732.214 377.833 731.025Z" fill="#C7DDDC"/>
<path d="M435.792 733.728C429.809 733.115 417.77 746.199 418.365 758.959C418.815 768.42 429.791 777.846 432.332 777.576C436.693 777.125 447.795 764.51 449.453 754.453C451.111 744.397 440.135 734.178 435.792 733.728Z" fill="#C7DDDC"/>
<path d="M607.418 675.01C593.613 670.126 581.141 705.144 589.179 711.505C594.586 715.777 611.022 704.405 613.617 700.8C616.212 697.196 614.735 677.606 607.418 675.01Z" fill="#C7DDDC"/>
<path d="M662.169 679.733C656.979 679.643 645.823 694.169 646.742 702.819C647.409 709.235 654.167 715.435 657.321 715.543C660.475 715.651 671.288 705.973 672.532 700.675C673.775 695.376 668.026 679.841 662.169 679.733Z" fill="#C7DDDC"/>
<path d="M138.318 400.912C131.848 407.22 123.936 416.591 118.763 430.973C121.989 435.335 127.648 443.102 129.433 441.967C131.217 440.831 133.794 412.392 138.318 400.912Z" fill="#0E141B"/>
<path d="M384.411 420.663C385.708 415.167 385.492 395.342 382.573 390.927C379.671 386.511 369.002 382.637 360.91 381.771C368.353 393.089 379.437 410.859 384.411 420.681V420.663Z" fill="#0E141B"/>
<path d="M115.321 464.477C134.046 488.068 153.835 518.255 156.61 542.891C162.503 547.757 171.19 555.723 174.308 558.859C177.426 561.977 180.544 563.022 183.679 563.725C176.038 551.92 165.639 523.824 159.385 514.452C153.132 505.081 143.418 490.519 135.452 483.22C127.468 475.939 122.26 471.073 115.339 464.477H115.321Z" fill="#769BB6"/>
<path d="M237.187 665.765C233.961 664.99 228.573 651.473 228.032 642.697C215.705 635.884 199.377 631.18 179.642 631.487C181.246 635.488 183.643 637.614 190.582 640.552C197.521 643.49 219.381 656.015 231.655 668.829C243.928 681.643 251.389 687.5 293.795 686.437C276.187 680.309 255.606 668.613 247.388 658.43C243.171 663.765 239.476 666.54 237.187 665.765Z" fill="#769BB6"/>
<path d="M334.724 567.184C336.075 589.117 321.513 652.483 291.164 643.472C297.327 650.987 312.989 655.222 324.199 650.987C329.749 648.878 335.318 641.832 336.67 632.064C338.022 622.296 342.221 580.106 334.724 567.184Z" fill="#769BB6"/>
<path d="M327.064 680.419C327.965 674.111 329.984 667.136 332.471 664.649C334.94 662.18 337.427 657.44 338.328 652.268C339.229 647.096 343.284 629.073 345.987 622.766C348.691 616.458 362.658 594.615 378.193 581.314C366.262 597.3 364.118 611.79 358.603 620.278C355.683 624.784 351.178 634.462 349.376 642.356C347.573 650.249 345.104 656.539 341.049 661.495C336.994 666.451 331.137 677.715 327.082 680.419H327.064Z" fill="#769BB6"/>
<path d="M189.266 681.572C201.269 682.473 221.184 677.499 234.989 671.605C221.85 660.288 211.668 650.772 196.277 643.545C189.483 652.826 164.81 663.009 151.456 663.694C151.221 667.55 151.456 672.074 144.445 673.876C148.969 675.462 152.825 676.814 156.214 678.184C160.215 671.353 167.009 661.675 171.731 661.099C176.453 660.522 189.861 667.641 189.266 681.59V681.572Z" fill="#769BB6"/>
<path d="M222.698 390.169C198.548 418.356 222.698 502.88 262.509 564.588C213.993 503.241 189.897 438 180.327 381.393C183.031 382.6 195.322 389.358 222.698 390.169Z" fill="#769BB6"/>
<path d="M404.109 611.033C396.9 618.242 390.592 629.506 390.142 636.264C380.23 644.969 373.922 656.539 367.758 681.176C358.747 679.968 349.736 671.57 344.329 657.44C347.627 653.241 349.358 643.383 350.637 638.517C352.439 631.615 376.175 613.286 404.109 611.033Z" fill="#769BB6"/>
<path d="M415.517 619.286C444.947 603.967 490.904 625.9 470.178 676.957C468.683 658.34 462.663 640.012 456.355 634.01C450.048 628.009 438.333 619.286 415.499 619.286H415.517Z" fill="#769BB6"/>
<path d="M449.669 751.714C458.104 747.443 466.628 741.279 471.404 732.538C473.206 729.24 472.9 723.491 473.513 717.526C473.819 714.516 471.71 711.218 467.205 712.714C462.699 714.21 453.238 715.562 442.424 712.858C432.062 726.825 405.929 738.846 388.502 743.947C390.304 750.561 390.899 756.256 386.105 761.374C392.611 763.14 406.74 762.6 418.833 760.978C417.085 754.544 423.663 736.287 435.053 733.602C440.983 732.214 446.696 742.415 449.687 751.696L449.669 751.714Z" fill="#769BB6"/>
<path d="M515.63 582.863C515.847 590.523 519.902 603.355 524.642 607.193C529.381 611.032 545.89 613.177 553.027 612.149C557.748 611.483 558.433 602.021 555.496 596.164C546.268 596.614 523.74 597.281 515.63 582.881V582.863Z" fill="#769BB6"/>
<path d="M519.92 370.274C518.172 381.664 503.574 401.813 485.461 398.587C477.586 410.265 446.93 421.06 426.493 414.645C445.182 424.863 456.86 428.071 465.024 430.702C488.958 433.91 525.759 427.494 557.28 400.335C552.017 391.288 536.554 378.438 519.902 370.256L519.92 370.274Z" fill="#769BB6"/>
<path d="M385.276 484.517C402.902 515.371 544.322 491.276 604.768 437.371C584.349 468.405 578.132 514.488 576.365 532.186C575.59 539.881 573.284 545.649 560.992 544.495C548.683 543.342 539.852 542.963 529.85 544.874C534.77 538.187 540.177 531.88 537.78 525.572C535.383 519.264 529.886 507.351 520.659 498.845C516.748 495.24 512.945 493.997 504.745 499.151C491.823 507.261 470.809 520.183 461.185 525.59C443.758 528.293 418.239 531.303 398.414 522.58C398.414 519.57 397.819 515.966 395.116 511.767C392.413 507.568 385.096 494.52 385.294 484.517H385.276Z" fill="#769BB6"/>
<path d="M672.478 701.271C683.273 698.657 693.906 693.611 700.574 685.988C704.774 681.176 702.971 671.264 701.476 662.865C697.565 666.47 688.86 648.754 678.047 645.744C669.036 667.677 638.091 685.393 614.969 691.106C615.275 693.809 614.969 698.315 613.473 701.613C625.89 702.478 637.677 703.109 646.814 703.343C644.633 696.981 655.267 679.932 662.277 679.464C667.936 679.085 673.055 694.638 672.496 701.289L672.478 701.271Z" fill="#769BB6"/>
<path d="M408.272 359.875C405.299 364.921 403.695 368.706 401.964 373.518C409.191 378.095 413.084 380.51 416.292 383.484C414.454 375.915 411.588 368.58 408.272 359.875Z" fill="#769BB6"/>
<path d="M520.659 370.887C547.692 379.303 585.232 370.58 610.463 356.469C617.366 360.668 618.88 371.788 620.069 403.633C616.465 396.73 609.256 385.611 606.553 384.403C603.849 383.196 587.737 381.069 584.025 382.295C579.519 383.79 569.012 391.918 558.199 400.623C549.188 388.314 533.274 376.6 520.659 370.887Z" fill="#769BB6"/>
<path d="M446.353 626.406C454.427 647.15 456.59 692.944 446.894 713.958C454.427 715.039 464.141 714.499 470.052 711.795C471.945 693.737 473.008 637.995 446.353 626.406Z" fill="#769BB6"/>
<path d="M675.938 517.154C687.058 551.396 698.159 607.265 682.841 648.41C688.247 652.321 692.753 656.826 695.456 660.431C698.159 664.035 702.431 663.459 703.872 658.935C714.091 626.801 701.764 564.913 675.938 517.154Z" fill="#769BB6"/>
<path d="M620.376 404.678C639.299 401.218 663.322 384.709 676.244 360.523C670.531 375.986 659.718 403.633 657.916 430.666C652.816 424.953 646.796 418.645 643.192 418.951C639.587 419.258 624.863 422.556 619.456 421.655C622.754 419.258 625.169 417.149 620.358 404.678H620.376Z" fill="#769BB6"/>
<path d="M587.035 474.82C621.277 476.929 655.213 467.016 669.63 450.184C669.63 455.284 664.53 466.998 654.311 480.821C633.586 482.029 608.95 487.129 579.213 507.26C581.015 497.654 583.412 482.93 587.016 474.82H587.035Z" fill="#769BB6"/>
<path d="M569.607 623.198C569.913 634.318 565.408 637.922 560.902 640.013C556.883 641.887 550.99 644.518 541.384 650.826C546.485 654.431 558.505 662.847 565.119 667.046C568.418 667.641 576.834 667.046 580.132 667.046C583.43 667.046 587.341 665.839 591.54 662.541C618.087 641.671 645.913 633.399 664.53 634.913C670.549 635.399 672.334 632.804 673.541 629.812C674.749 626.821 674.749 619.305 675.938 611.195C670.838 605.789 661.827 593.173 656.114 581.152C655.519 603.68 624.881 631.308 569.607 623.198Z" fill="#769BB6"/>
<path d="M138.083 401.505C139.417 397.036 142.336 389.268 140.174 387.935C137.489 386.295 118.872 401.704 114.384 417.455C113.789 419.546 115.736 426.106 118.403 429.981C122.873 420.285 131.523 405.831 138.083 401.505Z" fill="#0E141B"/>
<path d="M470.197 678.166C493.625 662.847 537.78 643.022 567.21 635.219C538.375 651.132 514.045 666.758 483.407 697.395C480.703 700.099 475.892 705.812 470.485 703.108C470.791 694.998 470.791 686.582 470.178 678.184L470.197 678.166Z" fill="#769BB6"/>
<path d="M384.915 485.363C382.843 502.394 382.014 534.167 384.285 558.245C388.43 546.819 394.449 532.293 396.738 527.103C399.027 521.912 397.801 515.316 395.08 511.748C392.377 508.197 386.772 497.618 384.897 485.363H384.915Z" fill="#769BB6"/>
<path d="M145.184 648.734C144.878 656.538 138.281 667.964 125.053 673.371C134.064 676.074 146.373 673.965 149.978 670.667C153.582 667.369 150.573 652.952 145.166 648.734H145.184Z" fill="#A7BBBA"/>
<path d="M172.74 660.611C177.912 670.56 174.722 683.301 161.062 689.393C169.947 690.186 186.797 686.203 188.924 681.571C191.051 676.921 185.337 661.152 172.74 660.611Z" fill="#A7BBBA"/>
<path d="M237.998 647.672C239.656 654.737 239.35 660.287 237.548 666C240.395 665.406 243.261 663.297 246.703 657.584C243.693 653.673 241.152 650.682 237.998 647.672Z" fill="#DCDDDD"/>
<path d="M377.04 730.771C380.752 742.792 380.608 761.391 362.73 771.412C370.462 772.403 386.195 764.689 389.493 755.822C392.791 746.955 383.059 731.348 377.04 730.771Z" fill="#A7BBBA"/>
<path d="M435.035 733.601C438.856 745.225 441.992 765.392 431.971 777.142C438.982 773.988 447.993 764.256 449.435 754.543C450.859 744.811 438.838 732.79 435.035 733.619V733.601Z" fill="#A7BBBA"/>
<path d="M605.669 674.363C608.265 685.014 608.391 699.072 590.729 711.669C597.884 711.02 610.626 706.082 613.743 700.622C616.861 695.161 613.491 675.012 605.687 674.363H605.669Z" fill="#A7BBBA"/>
<path d="M661.574 679.301C665.341 691.268 667.558 703.487 656.889 715.057C662.602 713.633 670.928 706.082 672.352 700.891C673.775 695.701 668.189 679.823 661.556 679.319L661.574 679.301Z" fill="#A7BBBA"/>
<path d="M435.197 527.895C442.532 521.083 458.086 512.162 470.665 519.515C466.124 522.489 460.699 525.462 458.086 526.508C450.931 527.373 439.036 528.256 435.197 527.913V527.895Z" fill="#0E141B"/>
<path d="M520.803 563.49C517.883 570.465 516.081 577.908 516.081 582.179C518.55 588.938 524.642 593.209 534.77 594.795C536.572 586.018 532.517 572.501 520.803 563.49Z" fill="#0E141B"/>
<path d="M388.25 366.759C393.224 369.012 398.865 371.463 401.964 373.518C403.803 368.201 405.407 364.507 407.317 360.83C398.811 363.227 393.53 364.831 388.232 366.759H388.25Z" fill="#769BB6"/>
<path d="M359.756 601.588C359.756 601.588 346.618 617.087 343.464 629.973C343.464 629.973 357.396 623.413 359.756 601.588Z" fill="#DCDDDD"/>
<path d="M243.315 605.681C244.09 610.781 242.612 615.214 240.702 615.214C238.016 615.214 237.061 606.438 239.368 602.076C240.684 603.103 242.143 604.473 243.315 605.681Z" fill="#0E141B"/>
<path d="M239.999 602.688C239.855 605.517 237.98 606.562 236.358 606.562C232.826 606.562 231.33 600.615 235.313 598.561C236.647 599.39 239.098 601.498 239.999 602.688Z" fill="white"/>
<path d="M260.364 626.333C253.245 628.46 244.414 626.117 239.206 623.053C227.329 616.043 222.247 601.3 222.391 589.514L220.228 588.234C219.508 605.878 225.797 618.8 238.143 626.099C243.711 629.397 253.317 631.343 261.553 629.253L260.364 626.333Z" fill="#0E141B"/>
<path d="M183.643 562.517C179.57 560.642 176.182 558.281 174.002 555.902C165.621 546.747 144.445 530.527 121.989 519.93C117.952 518.02 117.232 519.678 121.16 521.804C144.589 534.438 166.45 552.911 171.857 559.669C174.254 562.679 180.562 565.977 185.824 568.23L183.643 562.517Z" fill="#0E141B"/>
<path d="M384.086 391.198C381.383 385.287 368.407 381.322 364.244 380.673C359.829 379.988 358.207 381.43 361.865 386.062C367.542 393.252 377.887 410.464 381.437 418.429C383.87 423.89 386.141 422.935 386.375 417.6C386.736 409.635 386.177 395.758 384.086 391.162V391.198ZM364.028 383.358C369.236 384.169 379.599 387.864 381.653 392.351C383.329 396.046 384.014 407.039 384.014 414.879C384.014 415.636 384.014 416.375 384.014 417.06C384.014 417.33 383.978 417.51 383.942 417.673C383.816 417.51 383.672 417.294 383.528 416.934C379.815 407.959 370.299 392.315 363.938 384.674C363.271 383.881 363.541 383.286 364.046 383.358H364.028Z" fill="#0E141B"/>
<path d="M289.254 684.617C255.678 684.13 246.973 680.85 240.702 674.795C224.734 659.386 205.522 644.121 189.158 638.39C183.445 636.389 182.31 634.191 181.661 631.578L177.714 631.523C178.669 635.344 181.823 641.039 187.626 642.751C197.971 645.797 217.183 655.962 238.539 679.246C246.289 687.699 260.094 688.528 298.229 688.528L289.254 684.635V684.617Z" fill="#0E141B"/>
<path d="M172.073 659.549C164.179 660.468 148.32 682.347 152.609 690.529C155.637 696.296 186.311 689.934 190.78 682.653C194.475 676.634 184.617 658.071 172.055 659.531L172.073 659.549ZM157.079 687.195C154.556 682.365 166.306 663.694 172.235 663.009C182.31 661.838 189.014 678.256 187.194 681.193C184.418 685.699 158.701 690.331 157.061 687.195H157.079Z" fill="#0E141B"/>
<path d="M465.979 522.111C443.091 530.833 408.903 525.985 397.189 520.633C397.189 520.633 398.901 525.156 399.982 525.535C412.94 530.076 440.244 532.978 459.221 525.877L465.979 522.129V522.111Z" fill="#0E141B"/>
<path d="M435.972 731.745C430.385 731.15 418.851 741.531 416.725 755.12C415.301 764.239 425.592 780.747 432.152 780.441C439.505 780.099 449.579 764.131 451.111 755.733C452.373 748.794 444.353 732.628 435.972 731.745ZM420.383 755.588C421.807 746.469 430.458 735.169 435.666 735.71C441.487 736.323 448.732 749.857 447.579 755.426C446.173 762.185 437.234 774.728 432.458 774.998C427.808 775.251 419.176 763.338 420.383 755.588Z" fill="#0E141B"/>
<path d="M662.728 677.57C657.591 676.597 644.111 692.6 644.706 701.305C645.282 709.559 652.906 718.03 657.321 718.03C662.169 718.03 673.235 706.045 674.136 700.854C675.343 694.042 669.198 678.813 662.728 677.57ZM648.31 700.999C647.877 694.745 659.033 680.832 662.421 681.481C666.873 682.328 671.649 694.943 670.676 700.26C669.919 704.567 659.195 713.326 657.303 713.326C655.212 713.326 648.797 708.37 648.292 701.017L648.31 700.999Z" fill="#0E141B"/>
<path d="M699.835 663.044C700.971 672.325 701.367 681.355 699.241 684.671C695.636 690.294 683.309 696.007 672.82 699.827L671.757 703.486C684.733 699.665 698.7 694.186 702.755 687.861C705.567 683.499 704.503 669.568 703.512 661.494L699.854 663.026L699.835 663.044Z" fill="#0E141B"/>
<path d="M251.912 615.087C247.82 619.088 238.485 619.629 233.673 610.419C231.348 605.968 230.898 600.597 232.52 596.092L230.321 594.83C228.591 600.219 229.204 606.454 231.871 611.356C237.079 620.962 247.604 621.881 253.443 616.853L251.93 615.087H251.912Z" fill="#0E141B"/>
<path d="M325.568 565.167C314.611 571.474 289.236 598.544 282.261 611.934C275.575 624.766 282.027 643.329 298.175 650.448C301.076 651.727 301.851 650.267 299.148 648.645C286.244 640.914 280.513 625.451 286.694 613.574C293.543 600.418 316.323 574.989 326.776 568.555C331.407 565.707 334.633 566.392 335.733 572.934C339.301 594.272 337.481 617.737 334.147 633.399C332.291 642.121 329.948 649.312 315.151 651.493C312.376 651.907 312.358 653.439 315.151 653.529C332.345 654.124 336.742 643.239 338.652 634.282C342.023 618.386 342.563 594.002 338.959 572.43C337.301 562.553 333.156 560.805 325.586 565.167H325.568Z" fill="#0E141B"/>
<path d="M217.669 489.021C202.242 454.527 189.194 422.952 181.769 373.355C178.849 353.909 167.045 353.17 157.89 357.369C138.011 366.47 111.266 390.908 102.111 416.969C97.1909 430.99 100.219 454.653 120.566 473.018C139.741 490.337 156.34 509.17 164.432 527.859C172.758 547.089 181.877 571.869 190.312 575.113C241.927 594.902 260.328 618.367 271.321 653.762C274.151 662.846 280.369 665.297 292.029 668.847C294.102 669.478 295.615 671.01 296.408 673.262C297.346 675.93 298.859 680.165 299.184 682.778C299.472 685.157 301.184 684.941 301.202 682.526C301.256 678.507 300.608 674.47 299.598 671.586C298.589 668.739 296.426 666.991 293.741 666.18C281.504 662.449 277.431 659.367 275.034 651.636C263.698 615.159 237.584 587.963 193.267 570.68C186.527 568.049 174.939 543.557 167.73 526.652C159.638 507.656 143.256 487.85 123.882 470.296C105.535 453.698 101.678 431.747 106.4 418.356C115.357 392.855 139.958 372.382 159.476 363.461C168.361 359.388 175.443 363.19 177.264 375.391C184.743 425.277 198.584 455.59 213.957 490.283C233.961 535.411 265.843 577.366 292.66 601.57L295.075 597.839C274.133 580.052 238.107 534.708 217.669 489.021Z" fill="#0E141B"/>
<path d="M345.086 659.241C345.789 658.394 348.078 654.032 349.141 649.635C351.124 641.363 354.692 627.414 360.315 619.43C362.099 616.907 360.766 615.753 358.765 618.096C351.881 626.152 348.258 639.759 346.24 648.211C345.519 651.221 342.942 656.556 342.509 657.114C340.256 660.07 336.868 663.837 334.778 668.018C332.345 672.902 325.875 678.164 320.017 682.526C316.557 685.103 309.799 685.409 304.392 685.535C285.181 685.932 255.642 665.296 251.533 660.16C244.234 651.023 239.368 646.175 232.159 642.444C198.386 624.927 169.712 628.495 130.334 635.379C121.845 636.857 115.177 633.685 112.005 627.125C105.499 613.609 93.9649 577.258 95.2985 524.435C95.4247 519.425 98.0019 515.982 100.435 513.207C106.292 506.539 109.77 499.672 111.915 488.066C113.141 481.488 110.581 464.943 108.094 452.256L102.147 439.1C104.598 451.607 109.031 481.199 107.878 487.399C105.787 498.627 99.732 506.106 95.0823 511.279C92.5231 514.126 90.2703 518.866 90.1262 524.561C88.7925 577.78 99.3355 616.168 105.697 629.955C109.302 637.758 118.655 643.291 128.081 641.633C167.045 634.803 197.322 628.387 230.501 645.598C237.422 649.184 241.296 653.78 248.523 662.863C253.786 669.478 284.171 691.338 304.392 690.563C312.196 690.257 318.287 689.356 322.414 686.508C326.776 683.499 334.129 678.092 337.427 670.883C339.265 666.864 342.761 662.016 345.086 659.259V659.241Z" fill="#0E141B"/>
<path d="M245.964 656.088C243.838 659.422 240.359 665.009 237.854 664.54C234.881 663.981 230.645 653.384 228.951 642.697L224.86 641.039C225.617 650.483 232.123 666.559 237.241 667.37C240.774 667.928 245.171 663.531 247.839 658.863L245.946 656.106L245.964 656.088Z" fill="#0E141B"/>
<path d="M334.886 367.173C344.293 366.885 351.755 376.13 349.754 391.845C348.042 405.218 346.15 418.843 350.709 455.139C355.377 492.157 355.449 570.914 339.68 596.452L340.13 601.444C361.216 573.888 360.315 499.744 354.602 454.401C350.061 418.356 351.845 406.101 353.647 392.296C355.792 375.932 349.7 365.461 339.662 363.875L334.886 367.173Z" fill="#0E141B"/>
<path d="M400.955 426.575C402.902 434.108 399.405 439.569 396.107 448.67C384.158 481.741 383.87 527.085 387.312 556.623C388.916 570.338 384.861 576.051 379.329 581.584C362.694 598.218 348.799 617.286 345.339 630.965L340.419 654.502C338.977 660.143 336.165 662.63 333.786 665.225C330.795 668.487 328.83 674.578 328.308 678.165L325.514 679.877C326.181 673.912 328.091 667.478 331.48 663.801C333.804 661.278 335.444 658.539 336.76 653.348L342.041 630.19C345.591 616.205 358.963 595.497 375.85 578.61C380.969 573.492 383.131 569.275 382.266 556.281C380.536 530.004 379.761 480.515 391.836 447.084C395.35 437.352 395.963 431.116 394.846 426.178C389.042 400.1 365.974 362.704 350.439 361.677C346.78 361.425 338.346 367.354 333.913 372.706C325.478 382.871 310.88 389.81 293.921 391.468C281.071 392.711 218.462 399.181 180.616 384.547L180.471 379.176C214.083 393.756 280.675 389.215 293.651 387.953C310.069 386.349 321.531 379.897 329.587 370.165C337.445 360.686 345.879 355.243 351.971 355.639C363.811 356.432 390.394 385.917 400.919 426.611L400.955 426.575Z" fill="#0E141B"/>
<path d="M399.964 520.94C393.62 513.803 385.114 504.702 386.537 482.625L384.735 491.943C384.321 511.244 391.205 514.759 397.567 525.356C402.487 533.52 415.247 584.378 416.22 603.013C416.436 607.231 415.553 609.015 411.228 609.069C398.216 609.213 368.569 612.745 351.827 633.345L349.556 640.572C358.999 625.793 381.041 614.097 412.165 613.755C417.77 613.701 421.663 609.898 421.356 603.842C420.744 592.236 408.308 530.384 399.946 520.958L399.964 520.94Z" fill="#0E141B"/>
<path d="M397.152 522.328C394.323 527.122 386.195 547.487 384.537 553.489L384.14 564.77C386.844 554.552 396.648 529.393 399.189 524.599C398.27 523.626 397.855 523.247 397.152 522.346V522.328Z" fill="#0E141B"/>
<path d="M343.879 632.209C353.755 625.919 360.261 613.97 361.559 600.201L359.144 602.31C357.053 613.177 349.682 624.711 344.636 628.911L343.879 632.209Z" fill="#0E141B"/>
<path d="M141.724 393.108C143.977 384.8 140.156 384.097 133.488 389.179C125.414 395.361 113.086 411.419 112.96 418.069C112.834 425.512 118.439 434.793 125.504 441.858C128.784 445.138 131.397 444.147 132.046 439.767C134.533 422.646 137.795 407.616 141.724 393.108ZM139.147 393.072C134.911 407.526 131.001 422.124 128.838 438.65C128.694 439.749 127.991 439.803 127.144 438.956C120.53 432.342 115.916 423.818 115.916 418.231C115.916 412.644 128.045 397.091 136.263 390.549C138.876 388.476 140.282 389.197 139.147 393.072Z" fill="#0E141B"/>
<path d="M139.111 398.082C131.001 405.003 121.809 418.754 117.736 429.206L119.773 431.802C123.485 422.25 131.163 409.184 137.939 402.263L139.111 398.082Z" fill="#0E141B"/>
<path d="M145.328 647.474C137.362 646.429 116.403 665.064 120.025 673.372C122.818 679.752 149.167 677.012 152.177 671.407C155.601 665.046 152.447 648.411 145.328 647.474ZM125.215 671.299C122.746 665.658 138.696 650.303 144.355 651.042C147.923 651.511 150.951 664.271 148.59 668.974C146.337 673.498 126.369 673.948 125.215 671.299Z" fill="#0E141B"/>
<path d="M157.403 676.994C155.042 675.931 151.023 674.183 147.148 672.957L140.931 674.507C145.436 675.57 153.312 678.868 156.25 680.202L157.403 676.994Z" fill="#0E141B"/>
<path d="M146.464 649.743C150.248 644.589 156.051 637.398 160.485 633.451L154.087 633.577C149.437 637.903 145.959 643.958 142.571 648.59L146.464 649.761V649.743Z" fill="#0E141B"/>
<path d="M234.015 669.299C225.347 675.805 201.305 679.572 189.447 679.824L188.527 683.699C200.602 683.446 227.762 680.364 236.809 673.57L234.033 669.299H234.015Z" fill="#0E141B"/>
<path d="M366.713 711.199C367.74 706.658 369.29 696.007 369.867 685.824C372.462 640.444 413.409 614.871 440.91 616.583C462.988 617.952 478.811 640.841 473.098 665.801C472.269 669.478 474.143 670.199 475.297 666.594C483.767 640.498 466.286 613.609 441.199 612.113C404.668 609.933 368.335 641.183 365.812 685.518C365.235 695.538 362.442 713.831 360.405 719.454L366.713 711.199Z" fill="#0E141B"/>
<path d="M472.287 712.408C474.612 686.96 470.845 656.737 464.177 642.121C457.653 627.811 440.37 618.025 418.076 618.025L413.571 620.801C434.981 620.53 454.193 629.289 460.645 643.473C467.187 657.836 470.106 687.177 467.854 712.408H472.287Z" fill="#0E141B"/>
<path d="M360.099 750.255C351.232 740.036 358.639 726.718 365.199 716.013C372.372 704.316 400.162 698.892 416.418 706.245C437.468 715.779 456.283 718.554 468.376 714.048C470.755 713.165 471.837 713.922 471.837 716.608C471.837 721.942 471.782 728.935 468.935 733.026C465.637 737.766 457.563 745.858 448.678 749.931L449.309 754.31C459.672 749.498 469.133 741.514 472.648 736.468C475.856 731.854 475.099 721.78 475.081 716.121C475.063 711.778 472.035 709.092 467.403 710.804C455.815 715.13 438.333 712.246 417.77 702.929C399.045 694.44 370.714 700.352 361.901 713.742C354.097 725.601 343.32 742.451 358.747 755.337L360.099 750.237V750.255Z" fill="#0E141B"/>
<path d="M418.509 757.895C407.605 760.273 396.305 761.247 386.519 760.273L383.726 763.626C393.602 765.031 406.758 764.166 419.212 762.094L418.509 757.913V757.895Z" fill="#0E141B"/>
<path d="M376.535 729.149C370.732 729.96 362.135 737.854 358.188 748.703C355.305 756.615 354.854 773.682 361.396 775.088C371.309 777.233 387.529 766.455 391.349 757.408C395.26 748.181 385.384 727.906 376.517 729.131L376.535 729.149ZM376.229 733.006C381.906 731.781 390.286 748.83 387.222 756.056C384.086 763.446 370.263 771.556 362.874 769.916C358.945 769.05 359.648 756.183 361.865 750.091C365.037 741.35 372.102 733.889 376.229 733.006Z" fill="#0E141B"/>
<path d="M368.317 679.354C356.639 677.065 346.618 664.702 346.366 654.682L343.482 658.034C344.618 668.667 355.467 682.093 367.686 684.472L368.335 679.354H368.317Z" fill="#0E141B"/>
<path d="M563.155 599.463C560.992 596.759 557.784 594.092 553.099 594.2C547.44 594.326 519.451 596.904 516.297 578.467L516.153 585.333C521.56 597.642 545.529 598.237 553.189 597.805C555.892 597.66 557.857 599.012 559.839 601.571C565.48 608.852 567.733 623.883 567.228 628.424C566.886 631.596 565.985 635.111 561.443 637.309C534.211 650.574 504.763 672.615 480.866 697.954C478.234 700.729 473.711 703.397 471.746 701.865L471.53 705.037C474.125 706.298 478.991 707.163 482.686 702.712C506.457 673.948 537.185 654.394 563.696 641.779C569.733 638.913 571.68 634.786 572.256 629.47C572.851 624.117 569.643 607.573 563.173 599.463H563.155Z" fill="#0E141B"/>
<path d="M552.198 611.214C539.834 611.484 529.976 608.492 525.777 605.771C521.758 603.176 518.784 594.435 517.667 583.55C516.64 573.493 526.894 551.326 536.59 537.737C538.302 535.34 541.637 531.177 540.411 526.473C537.113 513.93 527.579 500.9 520.983 494.898C517.126 491.384 512.927 491.961 509.719 493.24C504.583 495.295 496.13 501.819 488.093 506.721C469.782 517.913 445.434 535.034 420.816 537.268C412.742 538.007 407.677 537.557 404.145 536.295C404.451 537.665 404.776 538.999 405.172 540.242C409.137 541.414 414.292 541.81 421.266 541.143C446.353 538.746 471.134 521.805 489.895 510.235C497.843 505.351 504.655 500.81 509.647 498.809C512.206 497.782 515.576 496.646 518.316 499.152C525.849 506.018 533.202 514.506 535.707 527.05C536.338 530.204 535.617 533.069 533.454 536.205C522.641 551.83 513.792 572.989 514.531 583.513C515.288 594.327 518.802 606.42 524.299 609.97C528.751 612.854 539.762 614.44 552.27 613.214C555.225 612.926 555.189 611.105 552.216 611.178L552.198 611.214Z" fill="#0E141B"/>
<path d="M472.035 518.885C461.366 510.847 443.902 517.605 432.494 527.968L436.693 528.419C446.425 520.273 461.672 514.56 469.404 520.579L472.035 518.867V518.885Z" fill="#0E141B"/>
<path d="M470.935 432.162C505.79 435.911 535.491 418.501 544.07 412.932C551.945 407.832 560.794 400.191 568.345 394.46C575.446 389.089 582.295 384.475 584.007 383.935C587.323 382.907 600.028 384.529 604.588 386.043C608.553 387.359 617.943 402.083 620.808 414.122C621.331 416.303 621.709 417.672 619.15 419.835C581.628 451.464 577.14 508.991 574.707 533.573C573.806 542.656 568.363 543.125 563.011 542.818C554.901 542.368 539.113 541.07 530.895 543.089L529.345 546.441C537.329 544.098 557.064 547.504 565.444 548.117C569.499 548.423 577.158 547.468 578.51 535.736C582.709 499.042 586.548 452.924 623.241 421.998C626.809 418.988 625.998 415.78 625.44 413.527C621.98 399.56 612.248 383.412 607.345 381.79C602.822 380.276 586.944 377.23 582.961 378.456C580.997 379.069 575.446 383.214 566.435 390.026C558.902 395.721 549.765 404.516 541.961 409.58C529.111 417.906 494.725 433.766 459.654 428.558L470.917 432.162H470.935Z" fill="#0E141B"/>
<path d="M394.629 419.096C402.974 413.473 412.796 410.662 425.051 416.393C466.394 435.695 490.255 440.687 502.997 440.272C530.319 439.389 550.179 429.387 585.755 404.354C593.775 398.713 603.146 394.262 617.059 400.101L615.005 395.974C601.11 390.874 591.612 395.974 583.827 401.471C548.629 426.251 530.03 435.19 503.159 436.055C490.652 436.47 467.601 432.361 426.619 413.239C412.67 406.733 402.956 410.031 392.611 416.159L394.629 419.078V419.096Z" fill="#0E141B"/>
<path d="M397.207 437.533C401.712 431.37 411.03 424.197 418.563 420.178C421.014 418.862 420.131 417.24 417.59 418.376C409.354 422.088 402.289 426.305 397.189 431.55V437.533H397.207Z" fill="#0E141B"/>
<path d="M536.608 595.335C537.906 582.233 532.391 569.293 521.001 562.408L519.992 565.238C529.76 572.122 534.356 582.016 533.923 594.74L536.59 595.335H536.608Z" fill="#0E141B"/>
<path d="M579.519 508.757C615.257 482.932 652.329 481.634 657.772 482.625C663.124 483.598 672.46 495.727 678.641 507.027C679.2 508.054 679.633 509.857 677.47 512.037C659.52 529.988 650.869 551.2 650.869 564.32C650.869 577.44 659.448 594.976 673.992 611.322C673.92 618.459 671.955 627.92 670.982 630.101C670.081 632.137 669.342 632.804 666.476 632.804C631.748 632.804 607.922 647.582 589.125 662.397C586.8 664.235 583.214 665.244 581.015 665.244C581.015 665.244 567.3 666.019 565.84 665.388C564.381 664.758 545.457 652.268 542.195 649.547L538.897 651.944C542.285 654.773 561.894 669.263 565.462 670.2C569.012 671.137 581.952 669.425 581.952 669.425C585.16 669.425 588.566 667.641 590.693 665.965C620.538 642.428 639.425 636.264 668.621 636.264C672.135 636.264 674.532 635.435 675.83 632.516C676.965 629.957 679.795 612.079 677.488 609.61C665.665 596.904 654.023 576.755 654.023 564.176C654.023 551.596 664.638 530.997 682.084 513.569C684.409 511.244 684.787 508.217 683.435 505.766C676.965 493.961 665.683 478.985 658.691 477.705C653.194 476.714 615.528 478.588 580.042 504.036L579.555 508.757H579.519Z" fill="#0E141B"/>
<path d="M674.406 518.111C692.464 548.694 714.974 618.819 701.62 658.864C701.097 660.432 699.601 661.099 698.286 660.234C696.087 658.756 689.599 650.97 684.066 647.51C679.452 644.645 670.603 640.391 660.835 647.312C654.942 651.493 642.705 660.234 638.164 661.549C630.774 663.712 612.049 659.819 605.958 652.16L603.146 654.268C611.364 663.28 631.315 668.308 639.299 665.983C644.219 664.541 656.276 654.971 662.133 650.43C670.603 643.852 678.191 648.087 682.714 650.574C688.301 653.656 693.672 661.784 697.132 664.181C700.52 666.542 703.638 664.775 704.485 662.234C718.308 620.747 705.008 563.959 677.488 515.047L674.406 518.111Z" fill="#0E141B"/>
<path d="M606.859 672.903C599.344 671.407 592.063 680.274 588.53 688.078C584.656 696.602 582.691 710.984 587.719 714.336C593.126 717.94 612.194 707.271 615.257 701.144C618.411 694.836 615.041 674.543 606.841 672.903H606.859ZM590.495 709.704C587.233 707.307 587.611 699.053 591.666 690.114C595.144 682.455 600.966 675.192 606.156 676.219C612.248 677.444 614.392 695.503 612.194 699.9C610.319 703.631 593.36 711.795 590.495 709.686V709.704Z" fill="#0E141B"/>
<path d="M589.377 691.213C588.098 685.338 589.882 669.911 596.496 658.791L591.035 662.54C584.872 674.398 585.395 690.132 587.647 695.574L589.395 691.195L589.377 691.213Z" fill="#0E141B"/>
<path d="M611.725 703.197C622.142 704.621 637.695 705.216 646.994 704.729L646.237 700.981C637.298 701.449 624.178 701.305 614.032 700.025L611.725 703.215V703.197Z" fill="#0E141B"/>
<path d="M617.726 424.088C628.125 424.088 638.578 421.691 641.786 420.628C643.354 420.105 645.066 420.574 646.526 421.727C655.717 428.972 667.666 444.363 668.044 451.446C668.297 456.348 660.403 468.495 651.644 480.425L657.303 480.245C665.972 468.17 673.577 456.69 673.415 451.446C673.145 442.687 656.961 423.8 648.184 416.879C646.183 415.311 644.039 414.68 641.804 415.419C639.461 416.194 631.279 420.267 621.385 420.448L617.744 424.088H617.726Z" fill="#0E141B"/>
<path d="M640.651 419.24C632.108 428.36 614.536 440.164 602.642 442.327L600.389 445.517C615.852 444.165 637.208 429.044 645.751 419.078L640.651 419.222V419.24Z" fill="#0E141B"/>
<path d="M666.098 347.998C667.378 347.511 670.549 346.736 672.171 349.458C675.794 355.477 675.343 359.622 673.163 365.606C668.351 378.852 656.708 408.426 656.564 428.251L659.934 432.882C658.979 414.139 673.145 379.645 678.245 366.056C680.642 359.64 679.561 351.476 675.56 344.772C673.956 342.087 670.531 340.176 665.521 342.105C651.23 347.565 623.998 361.028 613.473 359.929L615.275 362.776C626.341 363.443 652.023 353.387 666.098 347.998Z" fill="#0E141B"/>
<path d="M249.533 391.343C273.79 371.05 285.072 346.053 292.281 329.328C297.832 316.442 301.238 304.944 304.23 292.923C308.375 276.307 311.583 263.98 321.045 256.879C326.037 253.148 336.688 248.408 345.681 249.814C349.988 250.481 351.412 252.554 353.737 255.816C378.716 291.121 393.602 314.784 428.583 307.846C442.298 305.124 456.175 286.543 466.88 271.945C471.674 265.421 476.198 259.33 479.946 255.671C485.515 250.229 489.12 248.787 496.166 250.715C498.978 251.472 506.908 255.239 510.891 258.681C514.675 261.961 515.685 264.34 517.054 269.494C535.131 338.177 559.659 353.226 603.759 357.01C609.04 357.461 612.482 360.218 613.689 363.841C616.158 371.266 617.402 384.314 618.411 401.669L621.763 408.247C621.385 390.261 621.295 369.031 618.573 360.831C617.168 356.632 613.815 352.721 605.796 352.018C554.721 347.639 535.905 327.994 522.425 267.728C521.235 262.394 519.902 259.078 515.667 255.419C511.413 251.724 498.978 245.867 495.95 245.038C490.363 243.506 483.335 244.444 476.414 252.68C472.936 256.825 467.745 262.916 462.897 269.494C452.409 283.786 441.109 301.466 428.169 304.043C394.017 310.819 379.995 283.389 358.188 252.265C355.557 248.517 351.196 245.525 346.33 244.75C336.742 243.236 323.676 248.462 318.395 252.409C308.339 259.943 303.563 275.478 299.292 292.473C296.553 303.358 293.363 315.631 287.884 328.373C280.639 345.206 269.015 370.797 244.198 391.036L249.587 391.343H249.533Z" fill="#0E141B"/>
<path d="M404.56 305.249C420.185 304.492 434.188 284.668 444.911 267.979C451.507 257.706 457.725 249.128 462.988 247.326C475.026 243.198 486.867 245.307 493.481 248.173L501.591 248.569C496.491 243.307 474.864 236.08 460.32 241.847C453.868 244.406 446.642 254.823 439.559 265.852C428.529 283.028 415.824 304.78 399.766 302.852L404.578 305.249H404.56Z" fill="#0E141B"/>
<path d="M194.006 385.611C242.9 372.401 268.708 328.805 283.613 297.482C287.992 288.291 290.677 279.424 293.038 271.584C296.408 260.447 299.04 251.58 304.807 249.147C320.594 242.479 336.147 242.839 346.042 248.138L354.386 250.589C350.115 240.1 321.928 234.639 301.797 243.29C294.21 246.552 291.488 253.58 287.884 266.809C285.757 274.63 283.432 284.705 279.125 293.752C264.04 325.417 237.44 371.752 187.158 383.646L194.006 385.593V385.611Z" fill="#0E141B"/>
<path d="M371.255 373.121C376.715 370.508 384.068 368.67 386.988 368.94C392.088 369.391 406.506 377.645 414.129 383.844C417.644 386.71 418.779 384.908 417.626 381.375C415.481 374.851 413.228 368.309 411.102 363.137C410.291 361.173 410.849 360.488 412.561 360.091C425.249 357.136 443.884 355.153 459.185 356.721C460.735 356.883 462.231 357.64 462.789 360.217C466.736 378.582 482.686 409.076 516.514 424.755L519.776 423.061C489.48 408.535 470.395 378.222 466.844 358.415C466.304 355.46 463.997 351.855 460.879 351.531C444.533 349.873 421.446 352.36 408.849 355.586C406.236 356.252 405.262 359.136 407.047 362.795C408.813 366.435 411.462 372.761 414.021 379.771C405.893 372.563 390.664 363.948 387.673 363.588C384.753 363.227 377.923 366.507 369.47 370.778L371.273 373.139L371.255 373.121Z" fill="#0E141B"/>
<path d="M386.844 365.624C394.053 362.921 401.262 360.001 408.615 358.361L409.209 362.182C403.659 363.083 395.242 365.642 389.691 367.733L386.844 365.624Z" fill="#0E141B"/>
<path d="M403.352 374.636C404.397 370.437 407.029 365.373 409.354 361.714L407.101 358.254C404.632 362.147 401.334 369.446 400.793 372.978L403.352 374.636Z" fill="#0E141B"/>
<path d="M558.794 400.029C547.836 380.511 503.718 353.243 463.276 354.919L464.123 359.155C503.826 357.515 544.971 383.791 555.442 401.903L558.794 400.029Z" fill="#0E141B"/>
</g>
<defs>
<clipPath id="clip0_42_68452">
<rect width="620" height="541.459" fill="white" transform="translate(90 239)"/>
</clipPath>
</defs>
</svg>
