<svg width="800" height="800" viewBox="0 0 800 800" fill="none" xmlns="http://www.w3.org/2000/svg">
<g clip-path="url(#clip0_42_68555)">
<path d="M233.649 130.918C220.405 132.506 203.43 137.1 188.89 148.911C192.931 149.585 196.005 150.862 197.093 152.399C198.18 153.936 199.061 162.242 197.317 167.699C193.155 180.685 182.449 177.542 176.094 173.087C177.251 186.47 186.455 206.622 196.816 219.141C207.177 231.661 220.698 234.683 231.784 234.251C242.871 233.819 262.297 243.455 280.705 259.583C278.409 277.145 281.569 302.461 298.975 323.614C298.682 327.068 298.544 331.247 298.682 334.113C291.205 336.565 280.118 341.884 278.685 344.612C277.252 347.341 279.98 360.585 284.435 375.833C280.55 383.172 273.349 397.419 270.483 404.188C262.418 406.346 246.013 411.095 243.855 416.276C241.696 421.456 246.445 435.133 251.919 451.814C251.056 454.542 250.192 457.564 249.035 461.743C218.091 468.512 160.985 450.398 147.584 386.488C141.247 356.268 146.721 336.116 151.902 315.982C157.082 295.847 178.719 215.67 139.814 171.222C133.77 164.314 131.801 170.376 131.18 176.696C128.296 206.052 108.437 252.383 83.3983 299.007C58.3594 345.631 31.9389 428.346 77.7862 520.041C93.7593 551.987 142.11 607.677 206.003 629.694C207.16 644.372 207.73 653.3 205.14 663.074C202.549 672.865 196.505 697.904 195.348 707.971C199.096 703.291 204.19 698.715 208.161 698.543C213.342 698.335 228.02 718.401 221.544 730.696C229.091 733.286 245.72 735.22 254.786 733.718C251.332 726.603 263.472 703.775 270.966 702.203C275.059 701.34 283.693 716.018 286.076 726.811C296.212 717.313 302.481 715.379 302.049 704.586C310.251 700.701 314.776 696.608 314.137 689.908C313.498 683.208 313.498 672.64 313.498 667.891C318.022 666.821 326.656 662.935 332.925 657.755C373.712 671.777 441.058 665.301 479.705 637.033C487.251 645.235 498.044 652.143 513.153 656.891C512.946 662.072 510.563 669.186 506.902 673.504C503.241 677.821 499.356 689.684 511.219 691.411C523.083 693.138 567.842 699.51 588.27 696.591C592.795 695.952 596.473 695.089 598.407 690.772C600.341 686.455 603.587 680.635 605.953 676.75C608.319 672.865 613.068 670.706 616.314 671.794C617.609 669.428 621.494 665.111 623.221 663.16C624.948 661.209 624.516 658.843 621.719 657.34C618.921 655.838 607.697 649.138 601.429 644.614C623.221 621.526 632.943 597.126 623.014 570.153C613.085 543.18 597.768 522.234 563.663 493.741C565.822 479.288 566.892 463.522 565.597 449.275C575.095 449.068 585.024 438.275 582.641 414.739C585.663 414.307 591.051 411.078 593.865 405.241C608.319 409.558 629.749 417.657 642.424 435.668C649.106 445.165 664.009 463.073 690.118 461.346C716.228 459.619 742.562 450.985 738.038 419.039C728.54 423.563 720.338 427.016 717.972 425.721C715.606 424.426 709.77 418.175 710.633 411.268C711.497 404.361 714.933 400.562 719.906 401.131C721.84 401.339 729.404 402.426 733.496 403.497C718.179 362.485 645.428 336.583 604.848 331.834C601.619 324.288 596.438 315.429 586.509 312.407C587.372 308.314 588.011 303.479 587.683 299.421C611.893 276.455 620.13 237.774 602.914 191.598C606.402 179.113 611.617 153.401 612.653 148.911C613.344 145.907 612.204 143.316 610.615 141.883C609.027 140.45 607.732 139.431 605.003 142.746C602.275 146.062 594.504 156.699 587.597 165.333L584.713 161.31C579.74 154.921 573.351 151.622 574.059 147.15C584.713 140.536 617.661 133.163 622.548 128.707C627.435 124.252 625.432 122.404 618.956 121.403C612.48 120.401 603.069 119.417 592.415 119.279C595.143 104.601 600.444 83.3436 604.123 75.5384C606.419 70.6514 604.261 66.9042 598.942 66.7661C593.624 66.6279 581.242 69.9262 573.04 74.9685C564.837 80.0108 550.297 101.164 538.641 116.119C534.462 116.119 524.257 116.844 518.489 117.12C508.698 114.53 492.725 113.235 472.435 116.119C464.664 97.9871 461.78 92.9448 457.463 86.331C453.146 79.7173 437.605 56.6814 430.128 50.0677C422.651 43.4539 415.726 42.9877 409.699 42.5905C405.382 42.297 402.827 42.3142 404.087 49.2043C407.679 68.9246 416.451 113.39 417.176 139.431C414.293 142.591 407.541 149.498 404.087 153.815C397.612 148.928 387.285 135.321 377.615 115.963C375.595 111.94 373.298 110.783 369.119 110.921C364.94 111.059 361.348 110.783 361.918 116.671C362.488 122.577 363.507 130.78 360.191 134.078C356.876 137.393 345.755 140.864 333.995 139.396C330.542 138.965 326.449 138.55 326.794 143.575C326.933 145.596 326.794 148.894 327.088 152.935C337.155 160.844 348.898 169.616 349.83 177.974C350.262 181.859 344.943 187.195 340.195 190.631C337.604 192.496 336.016 194.655 339.331 198.264C342.647 201.856 347.102 207.9 351.125 213.805C348.967 214.099 345.651 214.807 345.375 216.396L338.174 216.102C317.021 178.682 278.668 132.351 249.968 131.919C255.839 139.914 262.401 146.908 259.327 153.263C256.271 159.6 250.365 164.625 244.235 164.194C238.105 163.762 228.486 157.407 228.711 150.638C228.901 144.732 231.18 136.34 233.563 130.918H233.649Z" fill="#88B2D1"/>
<path d="M458.551 211.629C453.543 215.566 447.897 220.591 443.217 227.688C440.42 231.936 442.803 238.775 451.35 242.971C463.766 249.066 476.873 254.661 486.526 259.721C488.771 260.895 490.066 260.256 489.099 257.044C485.041 243.696 473.609 222.007 458.534 211.646L458.551 211.629Z" fill="white"/>
<path d="M470.259 223.717C466.771 227.309 461.901 238.378 469.672 249.464L472.297 250.534C477.443 248.497 480.551 242.764 479.394 236.254C476.579 231.695 473.765 227.309 470.259 223.717Z" fill="#E60044"/>
<path d="M448.933 275.246C446.049 279.425 440.161 286.332 435.844 290.356C450.522 317.415 502.741 355.008 543.338 347.635C549.676 346.478 558.88 342.161 563.767 338.275C566.927 330.073 569.672 318.555 566.789 311.803C539.885 317.847 467.928 287.921 448.933 275.246Z" fill="#EE869A"/>
<path d="M626.502 206.035C629.127 201.597 629.352 197.228 621.753 198.834C608.232 201.718 553.164 213.322 540.161 222.578C532.684 227.896 524.913 246.183 539.729 264.022C554.545 281.86 574.559 280.288 583.332 269.496C592.104 258.703 618.162 220.143 626.502 206.035Z" fill="#DCD5CB"/>
<path d="M566.288 449.223C561.332 449.223 558.431 446.356 555.288 440.813C546.222 424.84 525.535 396.106 497.439 394.413C476.078 393.118 454.01 408.59 430.749 435.633C422.771 444.906 412.186 450.311 396.437 442.747C380.671 435.201 363.835 425.479 353.474 418.14C347.499 430.504 332.786 466.128 328.642 492.549C346.1 509.316 357.135 531.627 360.588 552.988C364.042 574.366 364.267 587.006 356.219 603.083C389.772 626.291 458.862 635.806 499.615 613.651C520.751 602.168 567.41 554.594 566.305 449.223H566.288Z" fill="#DCD5CB"/>
<path d="M239.123 121.852C236.81 122.059 227.709 142.435 228.814 150.638C229.92 158.84 239.711 165.454 246.756 164.021C253.802 162.587 263.593 154.661 260.001 146.614C256.409 138.567 242.301 121.575 239.141 121.869L239.123 121.852Z" fill="#C7DDDC"/>
<path d="M158.688 147.892C156.633 151.708 176.388 179.977 188.044 176.678C199.7 173.363 201.133 155.956 196.678 151.778C192.223 147.599 160.708 144.145 158.688 147.892Z" fill="#C7DDDC"/>
<path d="M426.225 260.654C426.709 271.222 428.884 290.891 432.286 292.134C434.894 293.084 443.234 282.965 448.933 275.246C443.58 272.638 432.286 265.282 426.242 260.654H426.225Z" fill="white"/>
<path d="M208.179 698.526C200.063 697.265 174.04 736.827 182.846 746.272C185.627 749.242 219.887 735.566 223.064 729.229C226.224 722.891 217.055 699.907 208.179 698.526Z" fill="#C7DDDC"/>
<path d="M271.001 702.202C264.871 701.788 253.284 720.178 254.579 731.023C255.563 739.346 266.856 755.198 271.225 755.578C275.577 755.976 286.283 736.566 286.076 727.258C285.886 717.951 275.542 702.513 271.001 702.202Z" fill="#C7DDDC"/>
<path d="M590.377 696.556C592.76 696.366 595.92 695.969 598.096 691.203C600.272 686.454 603.846 680.497 606.817 676.335C609.787 672.174 613.223 670.948 616.366 671.759C617.713 669.203 622.272 663.85 624.845 661.277C632.374 664.247 650.091 674.678 660.504 684.054C662.489 685.833 665.46 688.613 654.96 690.599C657.343 692.377 659.036 694.07 653.769 694.968C637.33 697.748 608.008 698.922 590.377 696.556Z" fill="#C7DDDC"/>
<path d="M718.041 401.477C716.073 401.546 708.129 404.706 710.202 414.394C712.274 424.081 717.817 427.759 722.427 425.687C727.038 423.615 750.316 413.237 749.849 410.698C749.383 408.16 730.25 401.011 718.041 401.477Z" fill="#C7DDDC"/>
<path d="M411.34 51.9333C424.913 72.6207 438.486 97.0552 442.664 111.25C446.843 125.462 449.554 142.16 445.79 157.822C451.437 152.814 457.412 147.185 457.705 143.835C458.741 131.713 454.856 113.305 448.104 96.4163C442.682 82.8435 424.74 58.5816 420.734 54.0055C419.266 52.3305 415.726 51.916 411.34 51.916V51.9333Z" fill="#769BB6"/>
<path d="M564.06 277.248C560.52 283.793 556.359 288.611 551.679 290.925C529.955 301.666 499.581 296.105 477.719 290.061C502.464 302.719 551.972 316.257 566.081 311.94C580.189 307.623 614.863 285.399 611.617 229.484C603.846 241.572 587.234 266.611 582.054 270.704C576.873 274.796 571.347 278.388 564.078 277.248H564.06Z" fill="#769BB6"/>
<path d="M562.955 151.432C574.18 166.11 580.448 188.766 578.358 208.97C587.217 206.38 599.305 203.565 606.851 201.838C602.327 185.226 581.933 156.595 572.004 147.098L562.938 151.415L562.955 151.432Z" fill="#769BB6"/>
<path d="M580.655 304.826C581.173 326.014 559.329 345.994 538.02 348.498C520.441 350.57 465.666 337.895 435.947 290.355C444.996 314.911 468.515 340.485 493.312 352.884C515.277 358.824 542.337 363.348 566.702 346.426C576.01 339.967 587.372 322.388 588.149 299.145C586.854 300.44 582.468 303.531 580.655 304.826Z" fill="#769BB6"/>
<path d="M426.605 261.483C421.908 268.908 418.472 288.093 419.542 301.303C416.469 286.832 412.669 275.418 408.87 266.732C413.947 262.035 417.729 259.134 420.82 256.596C422.806 258.409 424.257 259.859 426.605 261.483Z" fill="#769BB6"/>
<path d="M579.792 331.885C578.065 351.743 605.694 370.738 608.284 361.241C606.558 385.416 594.47 410.455 582.762 414.962C582.192 397.124 576.269 358.754 566.702 346.425C572.401 341.279 576.045 341.382 579.792 331.885Z" fill="#769BB6"/>
<path d="M371.796 138.395C377.839 150.776 386.767 172.068 383.59 180.408L390.497 183.292C392.224 180.995 393.087 178.112 392.224 174.658C391.36 171.204 384.16 148.462 371.796 138.395Z" fill="#769BB6"/>
<path d="M299.2 342.523C307.834 347.41 332.079 350.794 350.797 353.954C337.553 347.617 307.92 330.936 298.699 323.441C298.699 326.032 298.63 336.755 299.2 342.523Z" fill="#769BB6"/>
<path d="M597.733 398.852C616.072 401.822 634.636 409.592 648.019 419.953C659.243 428.639 675.596 428.691 682.123 415.636C689.462 438.517 714.07 442.402 724.655 424.754C730.129 422.457 734.153 420.73 737.9 418.71C739.92 432.818 735.879 453.54 710.564 457.564C685.232 461.587 662.783 464.765 643.218 436.842C636.276 426.947 632.736 422.682 622.203 416.983C615.295 413.236 603.777 408.349 593.71 405.759L597.733 398.852Z" fill="#769BB6"/>
<path d="M396.834 442.885C406.626 444.042 416.71 439.173 421.873 434.545C430.214 427.068 441.369 414.03 449.503 405.189C459.294 394.534 476.769 379.58 504.191 380.72C524.913 381.583 560.883 398.851 568.947 448.066C566.063 448.636 561.746 452.089 556.566 442.592C551.385 433.094 525.483 392.22 494.694 394.241C463.904 396.261 447.344 418.554 431.665 434.821C424.187 442.592 412.669 452.659 396.852 442.885H396.834Z" fill="#769BB6"/>
<path d="M67.667 334.371C57.0815 425.91 100.891 544.042 202.359 572.759C202.152 587.351 204.311 614.549 206.038 628.363C101.979 592.549 16.9328 472.103 67.667 334.371Z" fill="#769BB6"/>
<path d="M223.582 721.492C235.963 705.95 222.615 664.852 207.039 651.124C208.783 627.76 194.485 562.917 209.767 531.541C210.061 580.756 226.88 607.59 228.193 619.316C228.486 621.906 235.618 637.05 237.984 646.651C247.775 686.368 276.63 683.277 285.765 658.445C294.969 633.407 308.87 623.356 339.59 603.481C349.381 597.143 361.176 578.442 360.019 551.969C363.766 568.668 366.632 591.117 350.815 610.681C334.98 630.246 322.892 644.355 315.121 655.285C313.964 664.783 313.394 678.891 314.258 688.389C315.121 697.886 307.057 703.36 301.876 705.087C302.17 711.994 296.989 718.902 286.335 726.379C283.745 716.881 275.974 701.91 270.793 702.203C265.613 702.497 252.368 720.335 254.682 733.856C244.891 734.426 229.488 732.941 222.166 731.559C224.566 729.383 224.186 724.945 223.599 721.492H223.582Z" fill="#769BB6"/>
<path d="M355.615 604.205C355.408 626.654 349.796 656.01 313.74 667.873C313.74 665.283 313.74 660.102 314.603 656.01C329.281 636.376 346.325 617.381 355.615 604.205Z" fill="#769BB6"/>
<path d="M356.047 602.685C389.927 625.566 460.52 636.997 499.149 613.685C490.083 648.653 398.13 679.512 333.166 657.926C342.871 648.429 355.183 635.046 356.047 602.668V602.685Z" fill="#769BB6"/>
<path d="M571.969 657.427C582.106 655.373 589.341 653.87 593.693 650.296C629.006 621.302 630.249 598.387 627.297 586.161C607.006 593.069 570.588 571.449 553.009 540.953L535.205 575.282C552.508 591.912 557.067 618.142 558.5 625.447C540.282 629.608 517.263 613.825 515.485 601.979C510.356 608.437 506.194 609.802 499.874 613.842C498.147 621.907 486.923 633.994 480.016 637.155C488.27 650.209 513.879 657.03 513.136 656.806C513.43 663.454 509.665 670.672 505.055 676.146C500.427 681.638 504.485 690.013 510.252 691.17C527.762 694.675 571.745 697.818 585.611 696.937C595.989 696.281 597.163 693.19 599.477 687.405C565.511 683.157 551.213 661.624 571.986 657.427H571.969Z" fill="#769BB6"/>
<path d="M177.994 174.399C191.014 196.641 202.256 217.76 216.865 221.576C231.474 225.392 248.362 217.604 265.613 231.004C283.468 244.888 303.327 261.863 320.008 255.525C334.513 250.017 343.337 236.841 331.871 206.743C346.187 227.326 350.832 238.862 351.367 247.755C351.937 257.252 349.64 269.91 332.666 277.111C315.691 284.312 302.446 281.134 293.519 272.224C284.591 263.296 260.657 241.383 243.734 236.53C237.69 234.803 229.626 234.51 223.582 234.51C217.538 234.51 188.182 227.603 175.231 172.914L177.994 174.382V174.399Z" fill="#769BB6"/>
<path d="M604.416 68.2676C595.886 76.7981 586.302 98.0553 579.757 117.119L593.554 117.655C597.25 102.01 600.945 82.4621 603.553 77.6615C605.262 74.536 606.402 71.1168 604.416 68.2676Z" fill="#769BB6"/>
<path d="M589.289 139.775C588.426 143.868 585.283 157.821 584.851 162.138C582.917 159.116 574.611 149.273 572.021 147.114C575.906 144.749 584.972 141.934 589.289 139.775Z" fill="#769BB6"/>
<path d="M565.183 478.252C544.547 545.771 435.688 593.932 362.384 565.094C364.042 575.559 363.904 590.668 356.064 602.687C391.671 624.773 455.288 638.018 498.458 613.842C541.629 589.667 563.732 523.408 565.2 478.252H565.183Z" fill="#B4AFA7"/>
<path d="M336.396 461.605C360.347 491.963 403.552 517.071 441.732 526.292C478.427 535.151 526.778 533.424 560.658 509.68L559.363 517.883C526.985 536.671 481.017 541.627 440.868 531.697C400.72 521.768 362.73 500.183 334.03 468.875L336.396 461.605Z" fill="#B4AFA7"/>
<path d="M434.825 431.299C454.251 447.911 477.564 453.316 499.788 455.474C522.012 457.633 541.007 453.022 556.549 442.592L560.002 447.479C539.712 461.069 512.739 462.589 497.629 461.069C482.52 459.549 455.547 455.25 430.076 436.462L434.825 431.281V431.299Z" fill="#B4AFA7"/>
<path d="M628.454 200.129C609.32 220.281 561.073 283.5 532.839 241.78C529.61 258.184 550.556 286.487 577.081 274.365C587.01 269.841 627.797 205.724 628.454 200.111V200.129Z" fill="#B4AFA7"/>
<path d="M601.256 203.254C598.234 209.73 597.699 216.309 600.289 219.434C602.879 222.56 607.835 225.478 616.59 221.593L612.93 227.101C605.694 228.396 601.481 228.051 596.525 222.456C592.311 217.707 594.591 209.298 596.093 204.549L601.273 203.254H601.256Z" fill="#B4AFA7"/>
<path d="M580.206 208.658C575.457 216.325 573.092 227.55 578.807 235.096C584.523 242.642 593.382 244.922 603.743 240.915L600.082 247.063C591.448 247.823 581.121 246.959 574.508 237.79C569.223 230.451 570.95 216.74 574.179 209.953L580.223 208.658H580.206Z" fill="#B4AFA7"/>
<path d="M559.052 214.807C552.577 226.135 549.555 239.31 558.085 250.638C566.616 261.966 582.693 262.726 592.622 257.442L587.873 264.349C575.578 266.404 563.922 264.885 554.304 253.988C544.685 243.092 547.189 227.982 551.385 217.086L559.052 214.824V214.807Z" fill="#B4AFA7"/>
<path d="M208.835 698.957C215.95 717.089 203.879 738.881 182.069 743.198C182.501 745.357 182.777 746.946 188.977 745.564C196.747 743.837 219.697 734.944 223.081 729.384C226.103 724.428 219.852 702.411 208.835 698.957Z" fill="#A7BBBA"/>
<path d="M269.913 702.203C272.935 711.269 274.005 720.335 274.005 728.313C274.005 736.29 274.213 744.286 270.12 755.51C273.574 755.717 283.986 743.181 285.661 728.313C286.957 716.881 273.574 700.908 269.913 702.203Z" fill="#A7BBBA"/>
<path d="M609.459 673.486C610.961 685.781 633.202 693.345 655.219 694.847C641.629 696.781 616.798 700.891 593.054 695.918C595.644 694.623 597.371 693.328 599.098 689.235C600.824 685.142 604.71 677.803 609.459 673.486Z" fill="#A7BBBA"/>
<path d="M623.791 662.418C626.537 670.517 635.292 678.132 643.995 683.865C633.859 678.685 620.683 672.434 615.934 671.777C618.524 667.46 621.425 664.369 623.791 662.418Z" fill="#A7BBBA"/>
<path d="M183.969 197.677C179.652 203.773 171 216.241 172.019 218.52C173.038 220.817 190.323 221.818 199.476 221.818C193.121 215.965 189.046 208.349 183.969 197.66V197.677Z" fill="#A7BBBA"/>
<path d="M158.792 147.582C168.462 158.513 186.766 168.425 198.457 157.252C197.956 164.626 195.452 176.593 186.766 177.093C177.873 177.594 158.792 159.808 158.792 147.599V147.582Z" fill="#A7BBBA"/>
<path d="M239.4 122.404C246.255 138.93 250.59 157.994 235.843 161.051C244.736 166.646 259.483 163.71 260.502 149.36C260.761 145.803 246.514 125.202 239.4 122.404Z" fill="#A7BBBA"/>
<path d="M749.245 409.057C739.057 413.841 718.059 418.244 711.514 407.676C709.873 413.081 714.156 426.326 720.563 426.17C725.467 426.049 742.821 416.897 747.466 413.098C748.848 411.958 750.109 410.335 749.228 409.075L749.245 409.057Z" fill="#A7BBBA"/>
<path d="M671.521 459.119C676.425 465.664 682.831 473.451 684.852 473.572C686.855 473.693 691.016 468.047 694.401 461.122C685.974 461.502 677.806 461.122 671.521 459.102V459.119Z" fill="#A7BBBA"/>
<path d="M716.919 456.354C725.605 459.618 736.657 463.641 738.176 461.88C739.679 460.119 738.936 447.167 736.415 438.861C731.631 447.029 725.605 452.814 716.919 456.337V456.354Z" fill="#A7BBBA"/>
<path d="M566.72 311.716C568.446 320.782 568.878 327.689 563.49 338.258C572.988 330.28 580.811 319.729 580.672 304.826C576.234 308.038 571.693 310.197 566.737 311.716H566.72Z" fill="#933000"/>
<path d="M566.651 329.778C547.655 315.963 497.008 316.101 468.222 324.304C459.156 318.398 444.616 305.879 436.137 290.061C440.748 285.45 444.478 280.995 448.657 275.383C482.468 294.378 545.79 318.26 566.806 312.078C568.239 315.963 568.533 323.164 566.668 329.778H566.651Z" fill="#CF7487"/>
<path d="M435.446 267.216C433.789 273.968 431.906 283.949 432.321 292.065C429.195 290.2 426.812 272.31 426.398 260.758C429.092 263.158 431.906 264.816 435.446 267.199V267.216Z" fill="#DCDDDD"/>
<path d="M533.375 162.519C547.414 157.252 626.191 128.897 625.863 124.477C625.863 124.477 534.031 136.651 517.056 143.679C503.414 149.326 523.134 166.369 533.375 162.536V162.519Z" fill="#769BB6"/>
<path d="M242.491 422.837C247.671 425.721 256.996 426.498 264.94 417.656L251.695 451.623L242.491 422.837Z" fill="#769BB6"/>
<path d="M278.184 352.038C278.184 352.038 290.272 357.219 300.633 349.154L284.522 376.214L278.184 352.038Z" fill="#769BB6"/>
<path d="M600.324 204.29C597.371 207.899 596.473 216.24 598.718 219.883C601.256 224.028 608.595 226.566 615.52 222.75L616.521 219.935C609.355 223.872 603.346 223.095 600.686 218.744C598.666 215.463 599.547 206.5 603.639 203.254L600.341 204.29H600.324Z" fill="#0E141B"/>
<path d="M613.551 225.495C604.278 228.949 598.769 223.993 597.198 221.541C594.832 217.88 594.297 209.712 597.802 204.117L595.212 204.549C591.879 210.576 592.708 218.83 595.195 222.698C597.751 226.652 604.071 230.572 612.584 228.189L613.551 225.495Z" fill="#0E141B"/>
<path d="M474.732 237.463C474.732 241.176 473.713 244.198 472.469 244.198C471.226 244.198 470.19 241.193 470.19 237.463C470.19 233.733 471.209 230.729 472.469 230.729C473.73 230.729 474.732 233.733 474.732 237.463Z" fill="#0E141B"/>
<path d="M475.664 232.472C473.972 232.299 472.452 233.68 472.452 235.528C472.452 236.979 473.626 238.153 475.077 238.153C476.268 238.153 477.477 236.979 477.805 235.891C477.443 234.665 476.717 233.87 475.664 232.472Z" fill="white"/>
<path d="M490.014 224.165C494.487 236.46 496.507 247.426 494.538 255.628C493.485 260.083 497.129 260.739 498.199 256.284C500.254 247.702 497.336 234.664 491.879 223.578C490.428 220.643 488.892 221.092 490.014 224.165Z" fill="#0E141B"/>
<path d="M578.963 292.358C577.201 294.033 575.008 297.038 573.92 300.319C573.092 302.823 576.217 304.066 577.046 301.579C578.099 298.419 579.308 295.656 580.655 293.36C581.898 291.236 580.741 290.683 578.963 292.375V292.358Z" fill="#0E141B"/>
<path d="M238.83 118.363C234.996 118.985 227.208 141.261 227.053 149.929C226.915 158.564 237.293 167.301 248.172 165.039C258.205 162.95 263.869 153.107 261.071 146.165C258.637 140.104 242.75 117.724 238.83 118.363ZM239.279 123.803C241.576 123.423 256.219 142.297 258.032 147.201C259.241 150.482 256.651 159.444 247.43 161.81C238.934 163.986 230.541 156.733 230.541 149.947C230.541 144.835 237.12 124.148 239.262 123.803H239.279Z" fill="#0E141B"/>
<path d="M220.267 167.958C226.898 186.901 236.102 196.105 253.508 197.694C256.737 197.988 256.927 195.432 253.75 194.897C237.966 192.22 229.643 185.848 222.08 167.233C221.147 164.953 219.455 165.644 220.267 167.975V167.958Z" fill="#0E141B"/>
<path d="M156.391 146.924C153.128 152.951 170.482 175.089 182.846 178.68C189.408 180.58 195.383 175.883 198.336 169.269C200.598 164.192 201.617 152.191 197.386 149.618C191.48 146.026 159.292 141.554 156.391 146.924ZM160.294 148.962C161.986 145.594 191.29 150.326 194.83 152.985C197.662 155.109 196.834 163.156 194.658 168.043C192.085 173.828 189.08 176.09 183.33 174.761C173.746 172.55 159.241 151.086 160.294 148.962Z" fill="#0E141B"/>
<path d="M487.631 381.255C463.853 385.641 452.974 397.28 441.853 410.369C434.963 418.485 428.936 428.242 418.99 435.961C416.209 438.119 417.246 439.691 420.06 437.601C429.8 430.349 437.139 421.991 444.115 413.771C455.529 400.354 466.374 388.231 488.063 383.189C491.102 382.481 490.687 380.72 487.614 381.289L487.631 381.255Z" fill="#0E141B"/>
<path d="M499.615 379.823C496.541 379.943 496.628 381.636 499.701 381.774C533.565 383.311 555.081 405.276 566.53 438.707C567.825 442.506 569.482 441.936 568.377 438.068C559.519 407.141 537.761 378.424 499.615 379.823Z" fill="#0E141B"/>
<path d="M680.189 406.934C681.105 427.328 684.558 431.04 701.119 436.79C703.07 437.464 703.709 435.858 701.844 434.977C687.356 428.07 684.42 420.904 683.039 406.865C682.572 402.029 679.965 402.064 680.172 406.934H680.189Z" fill="#0E141B"/>
<path d="M354.372 620.99C416.175 649.483 465.631 640.037 486.698 626.326C490.031 624.151 488.874 622.994 485.662 624.669C461.953 637.119 415.95 644.631 354.804 616.432L354.372 620.973V620.99Z" fill="#0E141B"/>
<path d="M306.781 665.077C303.068 671.207 301.773 676.388 300.806 685.833C300.547 688.355 302.17 688.734 302.722 686.248C303.983 680.498 306.038 672.278 308.594 665.785C309.751 662.849 308.404 662.366 306.781 665.06V665.077Z" fill="#0E141B"/>
<path d="M292.223 645.787C293.208 643.611 291.895 642.921 290.497 644.855C288.286 647.911 285.161 653.765 284.211 657.115C282.829 661.933 285.506 662.866 286.887 658.048C287.785 654.922 290.617 649.31 292.223 645.787Z" fill="#0E141B"/>
<path d="M228.624 616.207C228.348 613.254 226.552 613.479 226.69 616.449C226.811 619.367 226.328 623.201 228.037 625.895C229.902 628.813 234.72 639.209 236.343 646.185C238.001 653.369 240.833 653.127 239.383 645.926C237.863 638.362 233.218 628.571 230.973 624.513C229.661 622.13 228.832 618.348 228.642 616.207H228.624Z" fill="#0E141B"/>
<path d="M207.505 696.728C194.744 697.212 171.864 741.142 180.377 748.637C184.245 752.038 219.161 737.602 224.446 730.988C229.091 725.186 219.524 696.262 207.488 696.728H207.505ZM206.935 700.424C215.311 699.957 224.117 724.858 220.888 728.899C217.296 733.389 185.419 746.875 183.623 744.51C177.614 736.635 201.444 700.717 206.953 700.406L206.935 700.424Z" fill="#0E141B"/>
<path d="M271.847 699.975C263.662 699.198 251.401 721.232 252.403 731.144C253.249 739.519 266.286 760.604 271.381 759.982C277.269 759.274 288.632 735.565 287.889 727.138C287.112 718.176 277.908 700.545 271.83 699.975H271.847ZM256.409 730.695C255.563 722.217 266.442 703.653 271.536 704.448C274.662 704.948 284.194 721.975 284.194 728.226C284.194 737.499 273.505 753.697 271.07 753.697C268.669 753.887 257.272 739.381 256.409 730.695Z" fill="#0E141B"/>
<path d="M628.782 205.413C632.684 199.093 631.13 193.792 621.581 195.916C600.444 200.63 546.153 214.186 538.296 221.697C528.039 231.506 527.728 250.587 537.778 264.523C547.275 277.681 572.004 284.433 584.195 271.482C593.192 261.915 617.661 223.372 628.782 205.396V205.413ZM625.328 204.671C614.242 222.025 590.429 259.29 581.553 268.719C571.261 279.65 551.161 276.593 541.163 262.744C529.973 247.237 532.477 232.283 540.869 224.322C549.365 216.258 602.758 204.481 621.65 200.216C626.64 199.093 628.039 200.44 625.328 204.688V204.671Z" fill="#0E141B"/>
<path d="M579.239 208.658C574.715 214.374 572.246 225.477 576.493 233.904C580.741 242.331 592.829 247.408 603.294 241.571L605.78 238.342C594.038 244.749 583.85 241.865 578.479 232.765C574.335 225.736 577.201 213.269 582.468 208.002L579.239 208.641V208.658Z" fill="#0E141B"/>
<path d="M575.785 209.402C572.004 216.638 570.933 226.343 574.058 234.338C577.322 242.661 588.408 248.688 600.6 245.338L599.201 247.928C590.671 249.983 577.288 247.496 571.9 235.08C568.895 228.173 569.413 218.572 572.867 210.369L575.785 209.402Z" fill="#0E141B"/>
<path d="M557.654 215.342C550.85 223.752 549.123 240.588 556.151 250.207C563.145 259.773 576.338 265.316 591.016 259.048L594.142 255.059C584.368 261.569 567.29 261.431 558.103 249.084C551.524 240.243 553.337 219.072 561.539 214.047L557.654 215.342Z" fill="#0E141B"/>
<path d="M553.44 216.74C546.965 228.828 547.535 243.61 554.839 252.468C562.506 261.741 572.971 266.283 588.616 262.501L586.889 265.419C576.096 267.353 562.42 265.955 552.853 254.057C545.911 245.423 544.236 230.883 550.902 218.053L553.423 216.758L553.44 216.74Z" fill="#0E141B"/>
<path d="M544.599 300.941C546.688 302.409 549.417 305.362 550.539 306.674C552.439 308.884 554.856 306.605 552.974 304.395C551.61 302.806 547.828 300.112 545.721 299.335C543.839 298.644 542.958 299.801 544.599 300.941Z" fill="#0E141B"/>
<path d="M378.668 179.856C385.506 182.792 403.794 190.528 416.779 193.239C420.751 194.068 421.096 192.462 417.194 191.322C403.103 187.212 386.042 179.165 379.255 176.247C377.684 175.574 374.973 175.781 373.332 176.592C371.07 177.715 368.704 181.376 370.552 183.897C372.987 187.23 381.673 196.744 384.298 199.905C385.61 201.476 385.938 204.118 381.811 205.482C378.34 206.639 356.513 209.955 346.86 211.854C342.042 212.804 341.611 218.675 345.824 221.473C357.48 229.226 365.009 236.531 366.511 242.246C369.689 254.351 357.895 264.695 353.457 269.634C349.606 273.916 350.918 277.543 353.647 279.977C362.332 287.748 371.312 294.88 374.886 297.557C377.218 299.301 380.136 298.403 382.191 296.33C392.466 286.056 416.071 262.571 421.977 259.566C466.944 296.762 550.004 320.644 568.084 314.22C599.167 303.169 618.352 269.392 612.55 228.173L609.942 232.265C611.6 260.309 601.17 295.778 566.702 309.558C549.192 316.569 467.876 291.72 421.597 255.025C421.304 254.8 420.924 254.749 420.596 254.904C414.569 257.581 391.533 281.618 380.585 293.101C379.255 294.5 377.857 294.569 376.337 293.412C372.814 290.77 366.097 285.054 357.463 277.318C355.235 275.332 355.598 273.226 357.825 270.773C363.576 264.436 373.125 254.8 369.671 241.676C368.031 235.425 361.175 226.463 348.95 218.347C346.946 217.017 347.706 215.843 349.122 215.567C359.431 213.512 380.689 209.281 384.28 208.09C390.342 206.069 390.342 202.063 388.114 199.386C385.506 196.261 376.907 186.194 374.489 182.878C373.574 181.617 374.196 180.512 375.163 180.029C376.026 179.597 377.408 179.321 378.651 179.856H378.668Z" fill="#0E141B"/>
<path d="M568.567 147.979C582.382 157.476 599.823 183.948 605.245 202.823L608.474 201.959C602.948 182.74 586.699 157.476 574.11 147.115L568.55 147.979H568.567Z" fill="#0E141B"/>
<path d="M541.18 161.153C573.679 149.394 607.697 137.945 622.841 130.295C629.317 127.014 630.353 120.469 620.251 119.295C587.718 115.531 541.801 112.094 498.924 117.983C493.174 118.777 493.347 120.832 499.132 120.418C544.737 117.119 586.129 119.779 620.925 122.697C623.549 122.921 625.328 124.907 621.805 126.651C604.796 135.027 575.423 143.246 540.109 158.546C531.268 162.379 532.114 164.434 541.197 161.153H541.18Z" fill="#0E141B"/>
<path d="M545.635 157.563C544.34 163.158 545.445 165.886 546.55 167.976C547.966 170.618 548.761 170.238 548.346 167.181C547.863 163.607 547.845 160.999 549.987 155.404L545.618 157.563H545.635Z" fill="#0E141B"/>
<path d="M604.261 194.429C606.92 182.67 614.829 151.967 615.502 147.96C616.038 144.749 613.482 140.708 610.702 138.394C609.061 137.03 606.886 136.909 605.245 138.998C600.324 145.215 590.964 158.667 586.405 164.02L588.668 167.145C593.261 161.758 602.05 148.876 606.955 142.625C607.473 141.951 608.198 141.658 609.044 142.366C611.617 144.507 611.41 145.992 611.064 148.081C610.408 152.036 604.433 179.371 601.774 191.097L604.278 194.429H604.261Z" fill="#0E141B"/>
<path d="M587.079 140.64C586.285 145.181 584.04 155.836 583.487 159.255L586.371 162.708C587.148 157.804 590.239 145.319 591.448 138.844L587.079 140.64Z" fill="#0E141B"/>
<path d="M594.625 119.245C598.631 100.992 604.71 82.7053 607.283 74.6411C610.115 65.7825 604.192 63.434 597.906 64.2456C592.691 64.919 577.063 68.6145 570.691 72.6552C565.39 76.0053 548.174 101.01 535.844 116.655L540.904 115.981C552.629 101.079 568.965 79.5798 573.972 76.4197C579.982 72.6207 593.036 68.9253 597.906 69.1325C603.138 69.3397 603.415 70.7039 602.465 73.5014C599.978 80.9095 594.263 100.837 590.602 119.038L594.625 119.262V119.245Z" fill="#0E141B"/>
<path d="M473.143 117.777C486.56 115.342 503.086 115.428 519.439 117.915L529.265 117.017C510.27 113.218 492.242 109.989 471.416 113.235L473.143 117.777Z" fill="#0E141B"/>
<path d="M480.845 133.663C473.816 114.806 465.873 94.4466 460.641 86.5895C444.668 62.6385 432.873 47.0452 426.467 43.039C422.547 40.5869 408.853 39.8962 406.712 40.017C403.241 40.2243 398.786 43.298 399.96 48.3921C407.213 80.0967 414.258 114.219 416.641 144.335C417.159 150.966 419.715 150.862 419.577 144.248C418.99 115.946 412.808 81.2709 405.538 49.4628C404.726 45.9055 406.211 45.0594 408.508 44.9385C412.048 44.7313 420.872 45.4565 423.825 47.3042C429.99 51.1551 440.92 64.2789 456.738 87.9883C461.867 95.6899 471.053 116.723 478.548 134.423C479.929 137.686 482.071 136.978 480.845 133.663Z" fill="#0E141B"/>
<path d="M424.895 56.3706C421.839 51.8982 417.85 50.6203 412.307 50.8448C409.976 50.9484 409.855 52.5198 412.151 52.7961C416.106 53.2796 419.093 53.6941 421.632 57.3895C430.646 70.5997 443.718 90.8726 446.325 96.7956C449.382 103.703 457.809 131.263 455.961 142.263C455.357 145.837 451.454 150.863 446.015 156.302C444.011 158.305 445.134 159.393 447.396 157.684C455.098 151.899 458.638 146.925 459.259 143.126C461.193 131.574 453.595 102.615 450.401 95.3451C447.707 89.2494 433.944 69.6327 424.878 56.3534L424.895 56.3706Z" fill="#0E141B"/>
<path d="M416.987 136.547C412.842 140.605 406.954 147.668 402.429 152.814L404.726 155.214C409.06 150.431 414.31 144.715 417.436 141.676L416.969 136.547H416.987Z" fill="#0E141B"/>
<path d="M353.232 212.786C350.4 208.21 344.615 200.664 339.987 196.243C338.865 195.172 339.003 194.275 340.419 193.221C343.925 190.596 351.643 184.121 351.643 178.543C351.643 172.033 340.713 159.617 328.746 151.967C328.694 149.757 328.556 144.974 328.556 143.679C328.556 142.038 329.868 141.088 331.958 141.365C346.031 143.247 356.962 138.826 360.416 136.08C364.854 132.575 364.733 125.271 363.731 115.065C363.628 113.943 364.56 113.269 366.045 113.269C367.91 113.269 369.672 113.148 371.934 113.2C373.367 113.235 374.403 113.614 375.059 114.927C383.452 131.712 396.679 154.091 414.085 162.794C416.538 164.021 417.228 162.605 414.966 161.05C402.585 152.503 389.841 138.049 378.668 112.198C377.77 110.126 375.871 108.866 373.626 108.883C361.78 109.038 358.723 110.247 359 113.148C359.915 122.404 361.763 131.038 358.102 133.922C354.337 136.892 343.786 138.602 331.336 136.944C327.744 136.46 325.119 137.186 324.999 140.691C324.86 144.87 323.652 152.244 325.43 155.076C326.984 157.545 345.893 164.953 348.604 178.526C349.347 182.29 341.921 187.384 336.655 191.339C334.375 193.048 333.685 195.95 336.085 198.246C340.54 202.494 347.188 209.557 349.899 213.926L353.215 212.769L353.232 212.786Z" fill="#0E141B"/>
<path d="M337.691 213.373C340.713 214.098 344.028 214.098 346.031 214.375L345.893 218.122C344.028 218.26 342.146 218.554 340.419 218.26L337.691 213.373Z" fill="#0E141B"/>
<path d="M407.765 268.442C413.706 281.738 419.698 302.097 420.613 328.95C420.803 334.285 422.91 334.216 423.065 328.88C423.756 303.185 416.831 278.405 411.323 265.402L407.783 268.442H407.765Z" fill="#0E141B"/>
<path d="M421.183 313.512C424.446 318.175 427.451 323.942 429.644 329.831C431.095 333.768 433.115 333.336 432.01 329.295C430.041 322.06 425.724 314.548 420.837 307.555L421.183 313.495V313.512Z" fill="#0E141B"/>
<path d="M447.413 274.037C439.815 284.518 433.961 290.994 432.545 290.528C431.786 290.148 430.542 287.799 428.246 262.881L423.669 259.859C426.087 286.867 428.954 292.617 431.613 293.532C435.619 294.931 447.206 280.443 450.418 275.988L447.396 274.019L447.413 274.037Z" fill="#0E141B"/>
<path d="M563.49 338.863C570.38 329.607 570.45 318.521 568.516 310.957L565.511 311.803C567.687 320.299 567.462 332.784 557.93 342.713L563.49 338.863Z" fill="#0E141B"/>
<path d="M434.825 291.513C452.853 326.498 504.899 354.058 538.572 350.656C562.713 348.204 581.881 329.071 582.382 303.566L579.446 305.327C577.201 328.363 560.814 344.181 538.141 346.477C505.107 349.827 455.149 321.87 437.121 289.492L434.825 291.513Z" fill="#0E141B"/>
<path d="M587.234 299.196C582.831 335.286 564.906 354.402 532.079 356.302C484.575 359.047 435.36 321.247 420.699 307.191L421.459 312.043C438.727 327.947 485.887 363.278 532.149 360.602C566.184 358.633 589.738 336.305 590.032 297.037L587.234 299.178V299.196Z" fill="#0E141B"/>
<path d="M392.327 183.604C393.433 180.893 394.261 178.458 394.054 176.386C393.813 174.003 387.026 150.863 373.574 138.465C371.467 136.513 370.138 137.946 372.244 139.898C383.538 150.414 390.756 174.089 390.981 176.299C391.136 177.905 390.428 180.098 389.444 182.568L392.327 183.621V183.604Z" fill="#0E141B"/>
<path d="M477.943 234.39C479.273 244.094 474.593 250.225 471.951 249.603C465.804 248.17 464.768 230.711 471.243 224.685L470.294 223.338C461.211 231.92 464.595 250.674 471.71 251.744C474.973 252.228 480.275 246.495 480.067 237.895L477.943 234.39Z" fill="#0E141B"/>
<path d="M453.44 209.039C469.154 219.883 480.741 236.599 488.028 258.685C479.273 254.471 460.416 245.337 449.9 241.123C445.496 239.344 444.788 240.864 449.106 242.919C459.95 248.065 478.928 257.977 487.182 261.741C490.653 263.33 492.121 261.949 491.188 258.789C484.229 235.079 471.226 217.673 454.545 207.433C451.523 205.568 450.694 207.156 453.44 209.039Z" fill="#0E141B"/>
<path d="M456.755 210.092C450.97 214.72 446.74 219.883 443.338 225.236C439.09 231.902 440.316 233.214 444.875 226.98C448.743 221.696 454.182 216.395 459.95 212.319L456.755 210.092Z" fill="#0E141B"/>
<path d="M556.29 441.159C521.978 466.215 458.327 452.038 434.738 429.555L433.288 431.8C457.343 454.732 522.651 469.116 557.688 443.507L556.29 441.159Z" fill="#0E141B"/>
<path d="M559.07 446.909C518.299 472.898 458.603 457.063 430.663 435.685C430.387 435.477 428.936 437.878 429.333 438.188C461.798 462.848 522.358 473.986 561.021 448.86L559.053 446.909H559.07Z" fill="#0E141B"/>
<path d="M336.292 463.313C370.276 505.033 427.399 527.948 467.013 531.644C496.8 534.424 538.296 529.036 560.555 510.835L561.246 506.76C539.85 525.617 497.267 532.024 467.203 529.209C427.658 525.513 370.569 502.029 337.052 460.084L336.309 463.313H336.292Z" fill="#0E141B"/>
<path d="M334.168 472.155C367.064 505.603 404.674 526.429 445.859 534.856C487.251 543.317 528.384 538.275 559.173 520.022L559.553 516.016C529.04 534.631 487.735 540.451 446.239 531.972C405.089 523.562 367.617 502.236 334.807 468.58L334.151 472.172L334.168 472.155Z" fill="#0E141B"/>
<path d="M530.163 583.001C478.686 611.355 396.178 592.429 362.229 565.301L362.384 568.806C399.2 597.368 477.719 612.339 527.555 587.352L530.163 583.001Z" fill="#0E141B"/>
<path d="M522.703 592.964C477.667 611.614 407.903 603.014 362.781 573.209L362.902 576.473C407.506 605.311 475.025 613.876 520.251 596.763L522.72 592.947L522.703 592.964Z" fill="#0E141B"/>
<path d="M234.237 128.654C226.518 129.121 203.845 133.334 186.369 147.857L191.463 149.204C203.361 139.982 224.204 134.111 232.596 133.61L234.237 128.672V128.654ZM172.14 170.668C172.054 175.365 173.297 180.01 174.972 184.742C178.46 194.602 188.096 213.925 195.452 221.834C200.805 227.601 212.53 237.928 230.196 236.944C244.943 236.132 271.657 250.706 290.842 272.223C301.583 284.276 322.028 288.576 342.629 274.847C356.099 265.868 354.873 242.124 347.568 229.242C337.069 210.73 317.625 172.274 283.175 143.816C271.916 134.508 259.448 130.398 248.172 129.051L252.006 134.336C261.21 136.011 271.001 139.896 280.377 147.649C314.534 175.883 335.049 214.046 344.374 230.796C351.367 243.35 351.989 263.07 340.488 270.72C320.146 284.293 302.256 279.579 293.001 269.218C273.142 246.942 246.152 231.539 230.628 232.402C213.756 233.334 203.655 223.647 198.543 218.121C191.394 210.419 183.554 193.289 180.118 183.585C178.892 180.114 177.89 177.005 177.493 173.949L172.14 170.685V170.668Z" fill="#0E141B"/>
<path d="M173.66 217.863C173.003 216.827 176.941 210.886 184.573 200.128L182.846 195.949C171.622 211.491 168.047 217.535 168.911 219.831C169.947 222.611 189.943 224.131 200.684 223.578L196.799 219.831C185.851 220.228 174.368 219.002 173.642 217.863H173.66Z" fill="#0E141B"/>
<path d="M737.226 404.292C723.377 369.255 673.299 340.192 603.777 329.244L604.52 333.147C660.02 342.333 714.916 366.785 731.113 402.841L737.226 404.292Z" fill="#0E141B"/>
<path d="M735.828 419.711C739.264 444.992 723.412 454.748 696.111 458.392C664.527 462.605 651.8 445.838 639.453 428.639C632.598 419.107 610.236 407.744 594.556 403.6L592.536 406.622C607.887 410.68 630.025 423.268 636.708 432.42C649.918 450.466 663.698 468.217 696.421 463.728C724.137 459.929 745.878 448.652 740.853 417.846L735.793 419.711H735.828Z" fill="#0E141B"/>
<path d="M708.457 413.097C708.751 418.657 714.588 429.588 721.046 427.775C728.247 425.755 751.559 414.53 751.559 410.645C751.559 406.76 729.11 399.852 720.614 399.282C712.636 398.747 708.043 405.344 708.457 413.097ZM747.535 410.8C747.691 412.216 725.605 423.648 720.77 424.252C717.143 424.701 712.93 417.397 712.705 413.097C712.377 406.777 715.52 402.753 720.027 402.961C729.369 403.392 747.363 409.333 747.535 410.8Z" fill="#0E141B"/>
<path d="M735.448 440.45C736.449 446.494 738.349 459.791 737.175 460.74C736.207 461.535 725.95 458.15 718.749 455.128L714.432 457.149C723.498 461.327 737.572 465.472 739.471 463.331C741.699 460.809 740.179 447.461 737.883 434.838L735.43 440.45H735.448Z" fill="#0E141B"/>
<path d="M692.087 460.689C689.428 467.216 686.285 472.103 685.076 472.103C683.643 472.103 677.098 463.918 673.593 459.825L668.171 458.357C674.784 467.423 682.676 475.436 685.076 475.436C686.043 475.436 691.172 472.984 696.301 460.706H692.087V460.689Z" fill="#0E141B"/>
<path d="M586.077 314.099C594.867 318.019 600.583 322.509 603.915 336.116C607.749 351.779 607.404 378.061 593.261 402.461C590.567 407.123 588.201 411.061 582.33 413.392L582.468 416.707C588.65 414.773 594.314 410.629 597.612 404.948C612.083 380.081 612.273 351.123 608.353 335.098C604.796 320.609 596.335 314.134 587.079 310.059L586.077 314.082V314.099Z" fill="#0E141B"/>
<path d="M297.456 322.596C294.865 334.494 295.125 350.501 303.016 366.025C314.31 388.232 341.231 421.595 396.213 445.839C414.845 454.059 423.894 446.288 440.299 428.226C466.84 399.008 493.45 388.819 516.573 401.943C538.02 414.135 549.883 436.601 555.996 447.825C557.861 451.261 562.783 453.282 566.789 452.712C572.746 451.883 581.657 443.733 583.539 435.271C588.685 412.235 579.999 363.504 568.222 344.975L565.494 347.065C576.994 365.3 583.798 411.355 578.738 433.976C577.029 441.609 571.641 446.116 566.357 446.858C564.095 447.169 561.487 447.532 559.588 444.061C553.371 432.664 539.885 411.441 518.006 399.025C498.251 387.801 469.327 389.51 437.19 425.929C422.806 442.23 415.018 448.999 398.285 441.626C343.838 417.606 319.628 386.557 308.49 364.644C300.806 349.517 300.495 337.705 300.253 325.428L297.456 322.63V322.596Z" fill="#0E141B"/>
<path d="M278.219 258.064C274.368 289.216 288.632 319.263 296.178 326.17C301.048 330.626 332.165 348.464 351.764 355.682C355.65 357.115 356.34 355.164 352.593 353.42C331.319 343.491 304.242 325.911 300.063 321.974C295.47 317.674 279.082 291.979 282.398 261.276L278.219 258.064Z" fill="#0E141B"/>
<path d="M248.086 476.507C256.167 434.856 283.088 378.941 301.566 352.003L299.77 346.701C272.382 388.162 251.142 432.818 243.32 479.149L248.103 476.507H248.086Z" fill="#0E141B"/>
<path d="M286.093 373.641C282.432 364.454 278.685 347.894 280.274 345.614C282.829 341.953 293.484 338.413 299.165 336.341L298.975 332.283C291.533 334.563 278.685 339.432 275.767 343.611C272.762 347.911 281.465 373.054 283.676 378.493L286.076 373.658L286.093 373.641Z" fill="#0E141B"/>
<path d="M253.076 448.999C249.191 437.999 244.01 420.507 245.167 417.087C246.238 413.91 260.657 408.937 269.619 406.157L272.244 401.062C258.792 405.397 241.696 410.75 239.987 415.741C238.139 421.145 244.77 438.966 251.228 455.302L253.076 448.999Z" fill="#0E141B"/>
<path d="M330.075 493.688C338.226 456.441 346.48 435.252 354.752 418.934L350.625 417.432C342.733 433.111 333.926 454.23 325.724 491.392L330.075 493.688Z" fill="#0E141B"/>
<path d="M563.715 448.412C564.561 473.331 563.404 557.427 507.144 605.381C483.158 625.844 416.676 636.567 356.962 601.806L355.391 604.535C419.266 641.713 487.078 629.384 510.65 609.284C567.566 560.76 569.396 475.299 568.101 448.326L563.715 448.412Z" fill="#0E141B"/>
<path d="M497.629 614.376C497.37 620.247 488.115 629.693 474.024 638.465C451.212 652.66 402.533 673.33 333.944 656.424L329.626 661.138C398.924 678.199 452.093 658.859 475.405 642.955C489.841 633.112 501.877 622.026 501.446 612.684L497.629 614.376Z" fill="#0E141B"/>
<path d="M206.02 626.949C157.427 610.32 113.013 573.435 85.3842 527.19C29.2106 433.199 63.8162 342.627 81.5507 307.624C100.667 269.893 129.539 212.684 132.941 176.299C133.545 169.737 136.239 168.909 139.952 173.536C170.776 212.062 161.157 275.834 148.292 322.769C136.257 366.751 144.39 409.041 171.052 437.136C191.981 459.171 222.235 469.583 248.587 464.144L249.588 457.064C223.703 462.728 195.02 455.544 174.368 433.769C148.172 406.174 142.128 366.216 153.991 322.924C166.959 275.54 174.834 211.25 143.492 172.086C136.308 163.106 129.781 164.747 128.848 174.78C125.481 210.801 96.0906 268.339 77.0609 305.915C59.171 341.211 22.8213 435.064 79.4958 529.884C107.522 576.767 156.702 616.398 206.038 633.028V626.949H206.02Z" fill="#0E141B"/>
<path d="M148.396 599.025C137.811 563.538 143.198 524.409 166.113 497.263C183.036 477.197 209.094 465.386 232.579 464.332L222.442 462.605C199.786 465.835 179.427 473.674 163.523 492.531C140.729 519.539 133.321 559.774 143.026 595.139L148.413 599.025H148.396Z" fill="#0E141B"/>
<path d="M85.5742 531.454C79.9792 499.646 88.3543 467.734 110.199 451.554C130.403 436.582 160.484 434.545 188.752 450.518L179.254 441.884C156.374 431.523 127.173 432.766 107.816 447.099C86.2994 463.037 76.6465 492.739 80.8945 523.683L85.5914 531.454H85.5742Z" fill="#0E141B"/>
<path d="M146.876 383.172C133.062 370.877 112.409 363.331 94.4328 368.374C74.6952 373.917 59.4646 389.648 52.5573 415.119L53.2998 424.409C59.6545 397.419 75.0578 378.631 95.5897 372.863C113.48 367.838 133.977 376.11 148.172 390.511L146.876 383.172Z" fill="#0E141B"/>
<path d="M149.76 324.754C146.876 313.668 136.239 300.82 121.838 296.503C109.767 292.894 92.0498 295.968 80.2556 306.329L78.2352 312.079C91.0482 298.834 108.558 296.831 121.026 300.578C135.635 304.947 145.789 317.553 148.172 330.28L149.76 324.736V324.754Z" fill="#0E141B"/>
<path d="M162.245 252.088C158.826 242.09 150.658 233.87 141.886 231.228C132.647 228.448 120.076 232.264 112.53 238.429L109.871 245.008C117.21 236.288 131.18 232.316 141.161 235.251C151.349 238.273 159.051 247.633 161.226 258.529L162.245 252.071V252.088Z" fill="#0E141B"/>
<path d="M196.419 708.575C197.921 698.3 206.953 669.151 208.3 657.495C209.284 648.947 208.524 634.563 206.901 618.02C205.122 600.13 202.877 580.012 204.311 564.488C206.918 536.272 219.282 500.147 236.982 486.781C249.053 477.663 268.134 462.467 289.789 470.946C330.783 486.988 354.804 518.123 360.157 563.331C361.987 578.838 362.298 590.771 351.609 605.293C346.497 612.235 319.628 643.283 311.08 657.72C308.818 661.536 310.01 663.28 312.686 659.809C321.303 648.654 349.848 616.034 354.976 609.058C366.097 593.948 367.824 578.027 366.201 562.053C361.521 515.792 332.925 482.602 291.222 466.266C268.531 457.391 245.806 473.657 233.39 483.017C215.052 496.866 200.477 534.821 197.766 564.177C196.315 579.874 200.546 600.303 202.308 618.279C203.862 634.01 204.76 648.844 203.482 657.098C202.152 665.715 190.392 703.826 190.617 713.358L196.419 708.557V708.575Z" fill="#0E141B"/>
<path d="M301.963 707.557C305.416 706.055 312.255 702.048 314.983 697.956C316.14 696.212 316.813 693.518 316.813 691.031C316.813 684.918 313.895 658.342 318.022 651.521L313.601 656.944C310.873 665.751 312.272 683.364 312.272 689.598C312.272 691.67 311.736 693.656 310.787 695.072C308.266 698.854 305.192 700.84 302.084 702.204L301.963 707.557Z" fill="#0E141B"/>
<path d="M286.283 730.04C290.652 726.224 298.077 719.593 301.116 715.587C303.741 712.116 303.672 704.034 302.463 696.92C301.928 693.777 300.46 693.863 300.512 697.058C300.633 704.155 300.857 709.681 298.561 712.426C295.884 715.638 290.065 721.216 285.8 725.067L286.283 730.057V730.04Z" fill="#0E141B"/>
<path d="M254.492 731.99C246.566 732.784 231.871 732.595 221.527 729.59L218.54 732.284C232.89 736.981 243.372 737.464 255.736 735.634L254.475 731.99H254.492Z" fill="#0E141B"/>
<path d="M354.147 605.811C353.664 630.971 342.284 655.388 313.446 666.526L313.584 670.325C342.906 660.586 357.601 642.23 358.171 600.82L354.165 605.828L354.147 605.811Z" fill="#0E141B"/>
<path d="M563.042 496.278C600.151 524.857 622.824 558.841 624.983 591.254C626.485 613.841 605.746 640.123 594.003 649.171C591.897 650.795 592.795 652.09 595.109 650.777C611.755 641.366 632.391 612.718 630.819 590.822C628.436 557.857 605.556 523.476 564.112 491.322L563.042 496.278Z" fill="#0E141B"/>
<path d="M476.959 638.949C489.979 652.228 516.124 664.817 541.94 659.964C545.203 659.343 544.996 657.789 541.681 658.03C515.899 659.844 493.951 648.498 481.259 635.564L476.959 638.966V638.949Z" fill="#0E141B"/>
<path d="M535.24 578.062C545.79 587.404 558.034 614.808 559.052 636.014C559.208 639.329 560.883 639.329 561.004 636.014C561.781 615.845 549.279 583.587 537.364 573.986L535.24 578.062Z" fill="#0E141B"/>
<path d="M587.511 697.886C616.141 701.909 660.901 698.576 661.85 694C662.852 689.113 628.678 674.711 619.889 670.982C616.884 669.704 611.496 668.443 607.369 672.57C603.95 675.972 597.526 687.542 596.127 690.892C594.97 693.655 592.777 694.397 589.842 694.674C569.223 696.539 540.955 694.605 510.27 689.217C504.537 688.215 504.278 680.479 506.937 677.043C511.185 671.5 516.054 663.573 515.277 657.184L511.254 656.891C511.789 661.415 508.077 668.27 502.309 675.799C497.56 681.981 500.738 692.083 507.196 693.206C538.054 698.611 569.759 700.7 590.55 698.818C593.382 698.559 597.405 697.851 599.046 693.931C600.358 690.806 606.022 679.063 609.234 675.834C611.824 673.244 614.708 672.812 618.852 674.418C634.67 680.496 655.496 691.185 655.444 692.878C655.409 694.363 620.476 698.507 596.162 694.898L587.528 697.92L587.511 697.886Z" fill="#0E141B"/>
<path d="M617.989 672.744C618.749 670.205 622.306 666.165 624.361 664.11C626.848 661.623 626.537 658.1 622.531 655.907C619.094 654.025 609.027 646.928 603.38 642.576L599.737 645.546C605.504 650.002 615.986 656.08 619.837 658.169C622.962 659.862 622.375 661.14 621.132 662.383C619.008 664.507 615.14 668.634 614.225 671.656L618.006 672.727L617.989 672.744Z" fill="#0E141B"/>
<path d="M656.394 691.496C659.726 691.392 665.114 689.959 665.822 688.198C667.946 682.879 640.921 666.612 624.171 659.48L623.169 662.209C641.18 670.342 661.315 684.606 660.676 687.351C660.383 688.077 656.255 689.113 653.303 689.113L656.428 691.496H656.394Z" fill="#0E141B"/>
</g>
<defs>
<clipPath id="clip0_42_68555">
<rect width="702.559" height="720" fill="white" transform="translate(49 40)"/>
</clipPath>
</defs>
</svg>
