<svg width="800" height="800" viewBox="0 0 800 800" fill="none" xmlns="http://www.w3.org/2000/svg">
<g clip-path="url(#clip0_42_68697)">
<path d="M339.216 685.095C307.483 707.93 211.645 715.747 208.209 702.467C205.063 690.268 225.041 670.367 259.979 657.473C280.324 667.587 311.478 680.269 339.216 685.114V685.095Z" fill="#F19CA7"/>
<path d="M535.118 671.814C561.505 691.175 573.82 712.389 568.415 722.696C561.312 736.247 483.291 723.835 450.824 689.554C469.702 687.276 507.4 681.234 535.118 671.814Z" fill="#F19CA7"/>
<path d="M259.979 657.473C251.351 660.658 243.649 664.267 236.97 668.089C258.203 671.583 279.378 686.639 282.988 704.475C305.282 700.479 327.017 693.916 339.235 685.114C311.498 680.288 280.324 667.587 259.998 657.473H259.979Z" fill="#D18891"/>
<path d="M535.118 671.814C507.419 681.234 469.702 687.257 450.824 689.554C462.251 701.618 479.334 710.979 496.976 717.446C510.913 705.517 537.106 693.877 558.61 693.607C552.877 686.523 544.982 679.053 535.138 671.814H535.118Z" fill="#D18891"/>
<path d="M134.859 231.716C109.129 229.323 114.785 249.301 128.586 258.74C138.488 265.535 155.108 269.414 176.997 268.044C148.294 275.861 120.228 281.17 107.179 283.447C87.4134 286.902 90.0579 298.445 107.507 307.904C120.498 314.949 148.043 314.563 167.384 310.876C145.534 323.886 125.304 334.001 116.194 336.53C93.8219 342.745 96.7366 361.816 126.173 363.553C152.56 365.097 176.688 355.504 205.642 327.515C228.902 280.32 256.35 244.495 280.845 214.363C224.636 235.345 160.879 234.168 134.879 231.736L134.859 231.716Z" fill="#F7C8D6"/>
<path d="M228.767 250.227C195.682 258.971 159.374 263.545 131.443 260.515C141.557 266.19 156.034 269.085 176.63 268.139C186.88 265.746 213.595 257.137 228.747 250.227H228.767Z" fill="#D6AEBA"/>
<path d="M205.642 327.514C207.765 323.19 209.927 318.982 212.128 314.852C191.339 331.896 162.018 352.762 129.146 363.668C154.394 364.343 177.788 354.441 205.642 327.514Z" fill="#D6AEBA"/>
<path d="M129.802 313.133C142.117 314.04 156.15 313.017 167.403 310.875C188.559 298.289 211.24 283.021 226.913 269.297C190.76 292.518 157.154 308.307 129.802 313.133Z" fill="#D6AEBA"/>
<path d="M166.477 304.467C168.041 303.617 173.349 300.375 175.897 298.676C172.036 298.888 163.833 299.159 158.891 299.159C160.59 297.962 165.049 295.298 168.774 292.518C166.477 292.518 158.64 292.75 154.297 292.75C159.605 290.221 166.477 286.245 170.473 283.581C166.245 283.466 157.192 283.215 151.402 282.616C159.547 279.489 172.268 272.154 179.564 267.329C185.278 265.746 190.991 264.066 196.608 262.291C189.737 262.059 180.317 261.518 176.746 261.036C179.41 260.071 187.961 256.094 192.072 253.913C189.409 253.431 176.746 251.269 170.357 250.053C173.986 248.856 183.984 245.478 187.729 244.03C184.602 243.548 175.182 241.868 170.588 240.903C172.885 240.073 187.227 236.367 199.176 231.619C171.843 233.916 148.333 232.989 134.879 231.735C109.148 229.341 114.804 249.319 128.605 258.758C138.508 265.553 155.127 269.433 177.016 268.062C148.313 275.88 120.247 281.188 107.199 283.466C87.4328 286.921 90.0773 298.464 107.527 307.922C120.517 314.967 148.062 314.581 167.404 310.895C171.322 308.559 175.279 306.146 179.255 303.656C174.912 304.042 169.372 304.332 166.477 304.505V304.467Z" fill="#F19CA7"/>
<path d="M167.79 346.451C169.121 345.119 177.325 338.016 179.004 335.834C176.225 336.549 164.643 338.846 158.003 340.062C159.933 338.016 164.161 333.557 165.724 331.858C163.195 332.707 157.636 334.271 152.946 335.603C154.76 334.522 165.492 325.353 168.021 323.056C166.458 323.423 158.003 324.735 152.579 325.951C154.876 323.654 162.095 316.107 166.612 311.32C166.612 311.32 166.651 311.32 166.651 311.301C145.07 324.098 125.189 334.02 116.174 336.529C93.8026 342.745 96.7173 361.816 126.154 363.553C142.059 364.479 157.154 361.372 172.963 352.608C175.8 349.52 178.252 346.316 179.236 344.559C177.672 345.273 174.044 345.235 167.77 346.451H167.79Z" fill="#F19CA7"/>
<path d="M176.649 268.14C177.615 267.87 190.181 264.415 196.589 262.292C189.717 262.06 180.298 261.52 176.727 261.037C177.499 260.748 178.773 260.226 180.298 259.551C162.829 261.616 145.997 262.099 131.443 260.516C146.267 268.855 165.686 268.526 176.63 268.14H176.649Z" fill="#D18891"/>
<path d="M167.403 310.875C170.299 309.138 178.946 303.83 179.255 303.637C174.912 304.023 169.372 304.312 166.477 304.486C168.04 303.637 173.349 300.394 175.897 298.695C175.24 298.734 174.43 298.773 173.561 298.811C157.328 307.497 130.574 310.103 117.062 311.3C134.821 315.296 156.169 313.018 167.423 310.875H167.403Z" fill="#D18891"/>
<path d="M169.199 345.157C156.768 352.434 143.295 358.978 129.146 363.668C143.97 364.074 158.158 360.811 173.001 352.608C175.839 349.519 178.29 346.315 179.275 344.559C177.711 345.273 174.082 345.234 167.809 346.45C168.06 346.199 168.562 345.736 169.199 345.157Z" fill="#D18891"/>
<path d="M596.192 635.873C651.204 617.535 700.117 523.011 694.152 517.644C689.327 513.301 656.995 528.261 651.204 529.226C643.483 557.215 627.076 604.506 596.192 635.873Z" fill="#F7C8D6"/>
<path d="M624.489 596.92C616.788 610.876 607.464 624.445 596.192 635.873C640.163 621.222 680.255 557.871 691.508 530.307C676.645 549.725 650.509 576.092 624.47 596.92H624.489Z" fill="#D6AEBA"/>
<path d="M658.616 487.399C658.616 637.708 545.021 696.504 411.215 696.504C277.409 696.504 165.106 637.708 165.106 487.399C165.106 337.089 277.428 152.189 411.215 152.189C545.001 152.189 658.616 337.089 658.616 487.418V487.399Z" fill="#F7C8D6"/>
<path d="M199.484 608.85C242.742 670.502 322.23 696.522 411.215 696.522C508.481 696.522 595.072 665.445 635.106 590.725C538.651 675.637 305.919 682.489 199.465 608.869L199.484 608.85Z" fill="#D6AEBA"/>
<path d="M389.017 537.584L225.215 541.309C221.721 542.718 218.343 545.652 218.343 550.922C218.343 631.356 276.367 658.63 313.08 655.967C365.969 652.106 401.718 617.304 401.718 550.439C401.718 543.645 396.738 539.495 389.017 537.564V537.584Z" fill="#F19CA7"/>
<path d="M389.017 537.584L375.601 537.893C377.609 595.029 352.245 646.258 289.184 653.824C297.58 655.851 305.745 656.527 313.08 655.986C365.969 652.126 401.718 617.323 401.718 550.459C401.718 543.664 396.738 539.514 389.017 537.584Z" fill="#D18891"/>
<path d="M392.511 547.39C393.148 498.786 350.392 425.475 299.414 425.475C257.72 425.475 220.003 484.985 223.478 551.424C250.733 592.095 344.138 584.683 392.491 547.39H392.511Z" fill="white"/>
<path d="M354.233 454.217C370.332 487.186 378.072 524.864 375.1 558.586C381.354 555.227 387.202 551.502 392.53 547.41C392.916 518.186 377.609 480.005 354.253 454.236L354.233 454.217Z" fill="#DCDDDD"/>
<path d="M220.679 294.545C187.131 353.747 166.747 423.583 166.747 487.417C166.747 619.273 255.848 694.882 411.215 694.882C485.105 694.882 656.956 674.672 656.956 487.417C656.956 337.262 543.553 153.829 411.215 153.829C361.163 153.829 313.852 180.332 274.417 221.427C267.41 228.743 265.808 225.133 270.479 219.169C300.418 180.892 356.917 148 411.543 148C545.657 148 663.77 334.483 663.77 486.124C663.77 637.765 558.938 702.313 411.543 702.313C273.336 702.313 159.972 640.873 159.972 488.054C159.972 428.332 184.119 343.478 216.915 292.538C221.296 285.724 224.983 286.979 220.679 294.545Z" fill="#0E141B"/>
<path d="M183.907 265.805C160.821 268.314 140.998 265.245 129.512 257.389C117.892 249.436 110.133 231.06 134.705 233.357C147.599 234.554 213.189 239.283 274.958 218.204C276.251 216.66 282.215 210.734 282.215 210.734C219.328 234.206 148.333 230.056 135.11 228.821C106.6 226.157 108.26 248.49 125.691 260.419C135.168 266.905 151.749 272.483 168.33 269.955C171.534 269.202 183.907 265.785 183.907 265.785V265.805Z" fill="#0E141B"/>
<path d="M164.47 313.191C148.062 317.206 121.927 319.059 106.639 310.856C83.3792 298.367 85.5025 284.179 106.871 280.454C146.943 273.466 214.444 259.433 248.262 237.274C250.829 235.595 252.354 237.66 249.864 239.532C217.127 264.047 132.968 280.628 107.469 285.067C86.1588 288.773 96.3506 299.988 108.28 306.455C122.293 314.06 153.718 312.573 172.094 308.172L164.45 313.191H164.47Z" fill="#0E141B"/>
<path d="M197.998 336.74C174.912 361.525 147.406 368.281 125.941 366.601C92.7796 363.996 88.2821 341.354 115.557 333.787C133.392 328.826 202.862 290.51 234.905 259.317C237.337 256.943 240.001 258.507 237.646 261.093C208.692 292.788 137.658 332.281 116.638 338.111C95.6943 343.921 99.439 360.347 126.27 361.911C152.444 363.455 174.97 353.804 200.874 329.753L197.998 336.74Z" fill="#0E141B"/>
<path d="M299.665 422.811C253.57 423.043 217.86 488.595 220.93 549.649C221.045 552.004 221.779 552.834 223.825 555.594C251.042 592.385 339.969 589.779 392.317 550.691C394.615 548.993 395.387 546.792 395.445 544.418C396.487 502.589 354.755 422.522 299.665 422.811ZM391.005 546.464C342.671 583.313 252.374 589.547 225.582 551.425C222.204 486.761 260.326 427.116 299.414 427.116C355.102 427.116 393.109 512.298 391.005 546.464Z" fill="#0E141B"/>
<path d="M392.646 540.519C397.587 542.642 400.077 545.982 400.077 550.46C400.077 612.441 368.324 650.312 312.965 654.347C276.309 656.991 219.984 628.925 219.984 550.943C219.984 547.7 221.47 545.615 223.265 544.264L223.169 539.593C219.308 541.04 216.046 545.422 215.93 551.174C214.328 626.956 268.607 663.149 313.408 659.829C373.652 655.428 404.845 614.699 403.88 550.692C403.803 546.136 402.432 539.11 392.53 536.697C392.935 537.894 392.626 540.5 392.626 540.5L392.646 540.519Z" fill="#0E141B"/>
<path d="M337.537 690.076C309.876 713.239 206.877 719.802 202.901 704.399C199.446 691.022 226.875 663.709 251.003 657.918L256.504 660.562C224.23 673.399 207.148 691.794 209.792 702.063C212.244 711.521 291.5 708.085 330.26 688.551L337.537 690.095V690.076Z" fill="#0E141B"/>
<path d="M541.507 672.703C564.671 686.852 578.395 714.3 572.546 725.457C564.748 740.34 480.376 728.024 451.75 695.21L457.869 693.936C494.042 724.724 561.389 732.561 566.968 721.925C571.369 713.528 562.142 694.457 536.643 675L541.527 672.703H541.507Z" fill="#0E141B"/>
<path d="M655.277 529.747C667.611 529.226 690.118 516.235 692.936 518.725C695.658 524.979 655.798 604.506 606.21 629.87L595.227 640.563C659.253 621.261 705.406 521.447 698.167 513.803C692.222 507.53 669.059 523.454 656.339 523.126L655.258 529.766L655.277 529.747Z" fill="#0E141B"/>
<path d="M330.144 220.791C326.09 219.768 323.581 226.62 321.477 235.422C319.72 242.796 319.643 250.884 322.867 251.791C326.264 252.756 329.314 245.846 331.128 238.163C334.41 224.4 331.997 221.254 330.163 220.791H330.144Z" fill="#0E141B"/>
<path d="M406.814 226.349C402.934 225.171 399.653 232.989 398.031 241.52C396.641 248.855 397.085 256.905 400.135 257.831C403.764 258.931 406.891 252.561 408.763 244.242C410.752 235.421 410.25 227.372 406.833 226.329L406.814 226.349Z" fill="#0E141B"/>
<path d="M329.681 223.107C328.291 222.798 326.766 224.709 326.303 226.833C325.743 229.342 326.322 231.311 327.886 231.639C329.275 231.928 330.704 230.365 331.186 227.933C331.611 225.79 330.897 223.397 329.681 223.107Z" fill="white"/>
<path d="M405.791 228.587C404.42 228.337 402.992 230.17 402.529 232.39C402.065 234.591 402.548 237.235 404.189 237.563C405.713 237.872 407.258 235.884 407.566 233.587C407.875 231.29 407.2 228.858 405.791 228.587Z" fill="white"/>
<path d="M331.63 268.276C329.43 265.071 331.302 263.913 333.869 266.77C342.555 276.518 365.892 279.954 382.184 269.414C385.079 267.542 386.372 269.743 383.516 271.769C365.834 284.258 340.394 280.996 331.63 268.276Z" fill="#0E141B"/>
<path d="M345.74 284.314C348.867 285.569 356.125 286.515 360.217 285.646C363.364 284.99 364.058 287.113 361.009 288.233C355.951 290.105 347.979 289.391 344.061 286.669C341.185 284.681 342.575 283.041 345.76 284.314H345.74Z" fill="#0E141B"/>
<path d="M205.796 382.044C202.901 421.614 238.765 455.007 263.222 448.155C275.286 444.777 255.501 387.352 244.884 367.084L205.796 382.044Z" fill="#F7C8D6"/>
<path d="M410.404 386.387C373.247 404.242 343.849 455.22 352.014 464.562C360.796 474.6 406.061 459.737 446.597 438.504L410.404 386.387Z" fill="#F7C8D6"/>
<path d="M680.641 323.403C664.137 319.832 641.456 313.462 616.652 304.042C638.156 306.397 670.391 303.984 692.473 292.268C714.632 280.493 709.247 261.306 682.822 261.866C653.617 262.484 559.768 256.075 536.855 239.668C524.579 230.885 494.428 292.461 503.558 312.535C530.099 357.646 587.892 396.502 639.873 396.502C671.877 396.502 680.814 375.945 643 360.56C637.229 358.205 631.11 355.812 624.76 353.264C641.283 357.395 659.388 358.302 676.548 356.217C710.077 352.125 712.972 330.41 680.641 323.403Z" fill="#F7C8D6"/>
<path d="M510.411 315.334C507.786 311.454 505.103 311.917 503.694 312.4C530.312 357.317 587.892 396.444 639.7 396.521C586.444 387.063 533.323 349.229 510.392 315.334H510.411Z" fill="#D6AEBA"/>
<path d="M680.641 323.403C664.137 319.832 641.456 313.462 616.652 304.042C638.156 306.397 670.391 303.984 692.473 292.268C714.632 280.493 709.247 261.306 682.822 261.866C671.317 262.098 649.756 261.249 626.458 259.145C617.077 261.403 605.36 262.387 601.384 262.484C604.511 263.816 611.035 266.344 616.71 268.024C612.483 268.989 601.751 270.07 597.292 270.186C599.589 271.749 612.136 278.872 616.112 280.435C614.298 280.435 602.002 280.918 597.774 280.918C598.855 281.4 605.129 285.377 611.402 288.639C608.893 289.604 595.284 291.65 587.081 291.689C594.493 295.067 601.847 298.194 609.067 301.07C603.449 300.549 596.809 299.468 588.972 297.673C590.169 299.603 593.219 303.579 594.647 305.394C592.35 304.911 584.996 303.579 581.869 302.981C584.031 305.509 588.393 310.103 590.555 312.632C588.258 312.265 579.34 311.184 572.816 309.737C575.596 312.632 581.869 318.79 590.922 325.546C586.328 324.214 578.009 322.168 574.882 321.569C576.696 323.499 579.109 326.144 582.969 329.889C580.73 329.889 574.766 328.788 570.963 327.785C575.847 330.641 580.692 333.286 585.517 335.757C578.298 334 570.693 332.359 567.933 331.973C570.191 334.348 577.661 341.47 580.807 344.366C577.584 343.246 569.071 340.833 563.281 338.575C564.883 340.351 567.624 343.4 570.191 345.968C566.968 345.157 557.007 343.555 552.491 342.262C554.266 344.713 558.764 350.793 564.4 356.41C562.47 355.928 554.421 353.187 551.371 351.739C552.819 353.669 555.714 357.202 561.833 362.027C557.355 361.661 552.278 361.082 546.043 359.962C573.781 381.774 607.947 396.463 639.931 396.463C671.916 396.463 680.872 375.906 643.058 360.522C637.287 358.167 631.168 355.773 624.817 353.225C641.34 357.356 659.446 358.263 676.606 356.179C710.135 352.087 713.03 330.371 680.698 323.364L680.641 323.403Z" fill="#F19CA7"/>
<path d="M551.892 273.641C563.493 280.339 575.345 286.342 587.081 291.708C590.382 291.708 594.59 291.342 598.566 290.878C566.35 282.405 547.356 271.035 551.873 273.641H551.892Z" fill="#D6AEBA"/>
<path d="M570.925 327.824C574.708 328.828 580.672 329.928 582.931 329.928C581.425 328.461 580.132 327.168 579.012 326.01C559.883 315.007 544.576 303.503 534.423 295.666C531.914 293.736 525.37 289.084 523.575 291.265C543.631 311.204 564.96 325.295 585.479 335.796C580.672 333.325 575.808 330.681 570.925 327.824Z" fill="#D6AEBA"/>
<path d="M545.986 360.02C573.685 381.793 607.793 396.463 639.719 396.521C612.348 391.657 582.39 378.299 558.803 361.776C554.479 361.409 551.911 361.1 545.986 360.02Z" fill="#D18891"/>
<path d="M582.931 329.926C580.692 329.926 574.727 328.826 570.925 327.822C582.931 335.234 608.738 347.299 624.972 353.321C638.349 356.641 652.748 357.857 666.839 357.085C636.09 353.244 603.121 339.886 579.012 326.008C580.132 327.166 581.425 328.459 582.931 329.926Z" fill="#D18891"/>
<path d="M616.672 304.061C616.672 304.061 616.672 304.061 616.652 304.061C633.06 305.856 655.721 304.872 675.332 299.119C647.189 300.818 621.439 298.077 598.566 290.896C594.57 291.36 590.382 291.707 587.081 291.726C598.006 296.803 614.162 303.115 616.672 304.08V304.061Z" fill="#D18891"/>
<path d="M205.97 381.968C203.885 423.874 236.623 451.998 260.017 448.813C242.433 442.173 218.034 429.491 211.606 388.627C210.815 383.628 208.711 381.62 205.97 381.948V381.968Z" fill="#D6AEBA"/>
<path d="M429.861 438.813C414.515 447.345 370.312 467.497 350.894 464.196C351.126 465.122 351.492 465.894 352.014 466.493C360.333 476.009 406.698 461.995 446.596 438.504C443.411 435.01 436.019 435.396 429.861 438.813Z" fill="#D6AEBA"/>
<path d="M204.522 385.094C204.735 380.886 207.36 380.847 207.263 385.094C206.414 422.058 240.059 452.923 262.797 446.573C271.252 444.198 257.875 396.116 245.232 370.308C243.436 366.641 245.212 365.328 247.316 368.86C259.052 388.491 280.054 447.75 265.171 451.707C239.75 458.463 202.303 428.216 204.522 385.113V385.094Z" fill="#0E141B"/>
<path d="M349.118 467.13C339.139 454.584 369.714 404.725 407.181 386.388C411.08 384.477 412.354 387.16 408.551 389.148C373.227 407.756 346.57 455.858 353.23 463.482C360.391 471.647 400.367 460.452 443.103 438.466C446.77 436.574 448.102 439.2 444.57 441.4C412.489 461.34 358.731 479.233 349.099 467.13H349.118Z" fill="#0E141B"/>
<path d="M622.501 306.204C644.139 309.177 669.426 306.996 693.689 295.009C720.365 281.825 712.664 258.373 682.745 258.971C651.494 259.627 565.443 254.473 540.079 239.803C537.029 238.047 535.099 240.537 538.13 242.255C573.222 262.001 657.478 264.067 682.861 263.526C706.41 263.024 713.281 279.374 691.701 290.84C669.831 302.46 634.411 305.394 610.765 301.784C612.985 303.579 622.501 306.224 622.501 306.224V306.204Z" fill="#0E141B"/>
<path d="M639.951 400.227C586.869 401.192 530.563 363.07 503.867 315.624C501.995 312.304 504.389 310.856 506.357 314.06C534.752 360.31 591.656 394.881 639.854 394.881C670.97 394.881 677.958 376.582 642.364 362.085C613.004 350.137 558.687 331.201 524.27 294.044C522.128 291.727 523.884 289.546 526.201 291.785C567.875 332.263 628.697 351.334 645.066 358.051C686.567 375.095 677.244 400.362 639.912 400.189L639.951 400.227Z" fill="#0E141B"/>
<path d="M634.971 357.278C649.93 361.293 663.307 361.274 676.954 359.691C715.559 355.194 718.454 328.653 682.108 320.449C641.534 311.3 580.055 291.92 531.354 258.874C528.092 256.654 526.181 259.24 529.366 261.48C583.51 299.679 639.314 316.145 680.313 325.024C709.884 331.432 708.707 350.658 676.355 354.595C652.266 357.549 627.25 354.325 607.715 345.793C612.695 348.341 634.971 357.278 634.971 357.278Z" fill="#0E141B"/>
</g>
<defs>
<clipPath id="clip0_42_68697">
<rect width="620" height="583.73" fill="white" transform="translate(90 148)"/>
</clipPath>
</defs>
</svg>
