<svg width="800" height="800" viewBox="0 0 800 800" fill="none" xmlns="http://www.w3.org/2000/svg">
<g clip-path="url(#clip0_42_68758)">
<path d="M244.324 618.924C262.189 628.807 284.114 624.182 301.181 608.524C301.439 608.289 325.853 585.683 318.905 570.048C316.534 564.719 310.876 561.691 305.148 562.701L302.19 563.593C297.683 565.588 294.796 570.119 294.796 575.166C293.528 579.321 285.171 591.481 274.842 596.035C265.311 600.261 243.338 587.044 242.61 573.687C241.906 560.705 251.39 546.761 255.428 543.944C261.156 539.93 262.517 531.995 258.503 526.29C254.489 520.586 246.554 519.201 240.85 523.215C202.303 550.306 209.628 599.721 244.324 618.9V618.924Z" fill="#0E141B"/>
<path d="M219.839 574.955C218.642 552.701 232.539 532.183 242.305 525.305C246.883 522.089 253.221 523.192 256.437 527.77C259.653 532.348 258.55 538.686 253.972 541.902C249.489 545.071 239.347 559.743 240.098 573.852C240.638 583.735 246.249 591.529 257.259 597.609C261.672 600.05 265.968 600.848 270.428 600.074C272.213 599.768 274.044 599.182 275.875 598.36C287.73 593.102 296.087 579.885 297.284 575.753L297.331 575.565V575.378C297.237 571.246 299.561 567.513 303.2 565.894L305.571 565.166C310.149 564.368 314.679 566.786 316.581 571.035C321.698 582.585 305.524 601.06 299.467 606.623C283.246 621.483 264.278 624.652 247.423 615.333C225.755 603.36 220.473 586.74 219.839 574.908V574.955Z" fill="#4674AC"/>
<path d="M211.74 328.7C208.336 332.667 209.51 345.015 221.389 353.067C225.825 356.072 232.492 371.777 233.338 383.397C233.924 391.449 231.647 398.491 226.577 404.313C212.609 420.347 207.937 437.46 213.431 452.461C217.727 464.175 230.239 479.293 265.522 484.716C268.856 485.232 272.213 484.411 274.936 482.415C277.659 480.42 279.443 477.462 279.959 474.129C280.476 470.772 279.654 467.438 277.659 464.715C275.663 461.992 272.706 460.208 269.372 459.691C251.648 456.968 239.934 451.17 237.234 443.775C235.098 437.93 238.173 429.62 245.686 420.981C255.24 410.018 261.907 396.66 260.827 381.824C259.771 367.363 254.043 351.799 241.671 337.526C231.342 325.601 215.661 324.145 211.74 328.723V328.7Z" fill="#0E141B"/>
<path d="M265.898 482.204C231.835 476.969 219.863 462.65 215.801 451.593C210.637 437.484 215.144 421.286 228.478 405.98C234.018 399.619 236.507 391.966 235.873 383.209C234.957 370.486 228.29 354.288 223.689 350.461C217.82 345.579 214.393 340.766 214.088 336.916C213.947 335.202 214.393 333.77 215.496 332.503C216.741 331.047 218.665 330.742 220.074 330.742C225.145 330.742 231.765 334.428 236.53 339.921C248.526 353.771 255.123 367.833 256.132 381.73C257.165 395.863 252.892 408.868 243.807 419.291C235.662 428.634 232.398 437.86 234.887 444.621C237.915 452.907 250.357 459.293 269.02 462.157C271.696 462.579 274.044 463.988 275.663 466.194C277.26 468.378 277.917 471.054 277.518 473.73C277.095 476.406 275.663 478.754 273.48 480.373C271.297 481.97 268.621 482.627 265.945 482.228L265.898 482.204Z" fill="#4674AC"/>
<path d="M236.507 339.921C231.741 334.428 225.121 330.719 220.051 330.742C218.642 330.742 216.717 331.047 215.473 332.503C214.393 333.771 213.924 335.226 214.064 336.916C214.393 340.743 217.797 345.555 223.666 350.461C227.516 353.678 232.821 365.556 234.981 376.824C240.38 369.758 243.761 360.204 243.972 349.64C241.765 346.377 239.277 343.137 236.483 339.921H236.507Z" fill="#5186C5"/>
<path d="M278.058 353.349C237.61 377.811 244.042 426.874 277.494 448.495C283.363 452.297 291.227 450.607 295.03 444.738C298.833 438.87 297.143 431.005 291.274 427.202C287.143 424.526 277.682 411.333 277.893 398.328C278.034 389.36 282.941 382.083 292.894 376.05C303.927 369.383 323.694 377.059 329.469 394.572C329.703 399.572 332.685 403.962 337.239 405.77L340.244 406.568C346.019 407.342 351.559 404.103 353.718 398.704C360.057 382.811 334.774 361.143 334.516 360.932C316.862 345.955 295.57 342.786 278.105 353.349H278.058Z" fill="#0E141B"/>
<path d="M280.499 356.188C296.979 346.211 316.064 348.653 332.826 362.879C339.117 368.207 355.996 386.049 351.301 397.763C349.563 402.082 345.15 404.688 340.525 404.054L338.131 403.42C334.422 401.941 331.98 398.303 331.887 394.171V393.983L331.816 393.795C330.478 389.711 321.581 376.799 309.538 372.034C307.66 371.283 305.806 370.79 304.021 370.555C299.538 369.945 295.265 370.931 290.946 373.536C280.171 380.039 274.865 388.021 274.724 397.951C274.513 412.083 285.218 426.379 289.819 429.36C294.514 432.389 295.875 438.68 292.824 443.375C289.795 448.07 283.504 449.432 278.809 446.38C268.785 439.901 254.113 419.923 254.442 397.645C254.63 385.814 259.278 369.006 280.452 356.188H280.499Z" fill="#4674AC"/>
<path d="M174.485 475.584C209.839 484.951 213.736 514.342 214.299 525.868C214.909 538.123 215.661 553.358 229.746 567.373C243.056 580.613 262.447 582.162 278.598 572.514C297.425 561.269 312.778 532.582 301.979 496.172C299.984 489.458 292.918 485.632 286.227 487.627C282.988 488.59 280.311 490.749 278.692 493.731C277.072 496.712 276.72 500.14 277.682 503.379C284.326 525.775 276.649 544.156 265.616 550.752C259.465 554.414 253.808 553.734 248.761 548.71C241.648 541.62 241.296 534.953 240.756 523.92L240.685 522.488C239.699 501.994 238.948 475.796 187.138 452.367C174.814 446.804 152.348 448.212 148.921 455.091C146.573 459.786 149.038 468.824 174.532 475.584H174.485Z" fill="#0E141B"/>
<path d="M232.633 564.884C219.229 551.55 218.525 536.854 217.938 525.046C217.351 513.003 212.069 483.659 176.034 471.241L172.912 470.255C167.114 468.471 155.048 464.785 153.029 460.067C152.606 459.104 152.653 458.165 153.169 457.156C155.517 452.437 174.626 452.085 185.119 456.569C235.967 478.236 237.164 502.862 238.103 522.652L238.173 524.084C238.713 534.929 239.112 542.77 246.93 550.564C252.728 556.339 259.817 557.207 266.884 552.982C278.762 545.892 287.096 526.361 280.077 502.721C279.302 500.115 279.584 497.369 280.875 494.998C282.166 492.627 284.302 490.89 286.908 490.115C292.26 488.519 297.918 491.594 299.514 496.946C309.937 532.065 295.289 559.649 277.283 570.4C262.188 579.415 245.075 577.325 232.633 564.954V564.884Z" fill="#4674AC"/>
<path d="M219.839 477.579C212.139 470.443 201.082 463.353 185.119 456.545C174.626 452.085 155.517 452.437 153.169 457.132C152.653 458.165 152.606 459.081 153.029 460.043C155.048 464.762 167.114 468.471 172.912 470.231L176.034 471.217C188.922 475.654 197.866 482.274 204.087 489.481C210.637 486.758 216.083 482.603 219.863 477.532L219.839 477.579Z" fill="#5186C5"/>
<path d="M172.912 470.255L176.035 471.241C188.922 475.677 197.866 482.297 204.087 489.504C205.825 488.777 207.491 487.955 209.064 487.039C192.796 470.513 168.757 464.855 153.052 460.043C155.071 464.761 167.137 468.471 172.936 470.231L172.912 470.255Z" fill="#4674AC"/>
<path d="M202.28 461.64C173.804 508.192 212.398 574.744 289.819 519.272C295.5 515.211 296.815 507.276 292.753 501.595C288.669 495.914 280.734 494.599 275.053 498.661C254.066 513.685 236.835 515.399 228.455 512.3C224.159 510.704 221.506 507.699 220.379 503.074C218.196 494.2 221.154 484.623 226.436 476.007C231.037 468.472 249.629 458.988 249.629 458.988C259.419 454.011 269.302 447.719 267.799 441.405C267.353 439.48 265.874 437.789 263.574 436.475C257.752 433.212 247.282 432.719 239.206 435.348C228.337 438.869 212.046 445.748 202.327 461.617L202.28 461.64Z" fill="#0E141B"/>
<path d="M220.52 533.708C209.064 529.483 201.153 520.515 198.195 508.496C194.58 493.754 197.327 477.391 205.754 463.611C215.074 448.399 229.488 441.146 239.934 437.765C247.399 435.347 257.001 435.746 262.259 438.704C263.433 439.361 264.912 440.465 265.264 441.991C266.297 446.357 256.226 451.475 248.151 455.606L244.183 457.649L242.869 458.329C235.92 461.945 228.032 466.076 223.055 474.199C217.421 483.401 215.543 494.129 217.891 503.66C219.229 509.177 222.398 512.768 227.563 514.67C236.53 517.98 254.724 516.337 276.532 500.702C281.086 497.439 287.425 498.496 290.688 503.05C293.951 507.604 292.894 513.942 288.34 517.205C264.372 534.366 239.019 540.54 220.52 533.708Z" fill="#4674AC"/>
<path d="M279.232 486.594L278.433 488.331C269.043 508.99 244.113 563.922 283.903 587.82C308.223 602.445 325.337 592.444 339.07 584.416C347.427 579.533 354.611 575.331 363.202 576.27C366.231 576.598 369.212 575.73 371.583 573.828C373.954 571.927 375.457 569.204 375.785 566.175C376.114 563.147 375.245 560.166 373.32 557.795C371.419 555.424 368.696 553.921 365.667 553.593C349.61 551.855 337.38 558.992 327.567 564.72C315.196 571.95 308.388 575.918 295.641 568.265C275.828 556.363 287.143 524.342 299.209 497.769L300.007 495.984C302.589 490.256 300.054 483.496 294.326 480.89C288.598 478.284 281.814 480.843 279.208 486.571L279.232 486.594Z" fill="#0E141B"/>
<path d="M280.757 489.364L281.556 487.627C283.574 483.167 288.856 481.172 293.317 483.19C297.777 485.209 299.749 490.468 297.73 494.928L296.932 496.689C284.42 524.202 272.846 557.466 294.373 570.401C308.411 578.829 316.534 574.063 328.858 566.88C338.366 561.34 350.174 554.438 365.409 556.081C367.757 556.339 369.869 557.49 371.372 559.344C372.851 561.199 373.532 563.499 373.273 565.87C373.015 568.218 371.865 570.354 370.01 571.833C368.156 573.312 365.855 573.993 363.484 573.734C354.071 572.702 346.535 577.115 337.802 582.209C324.633 589.909 308.247 599.487 285.218 585.636C247.376 562.889 271.626 509.483 280.757 489.364Z" fill="#4674AC"/>
<path d="M267.564 506.384C273.551 506.196 279.678 499.929 278.95 492.557C278.081 483.59 273.598 480.327 265.123 481.172C249.559 482.674 230.121 464.551 228.76 449.034C227.633 436.358 250.615 425.747 280.992 434.926C284.232 435.912 287.659 435.559 290.641 433.963C293.622 432.367 295.805 429.691 296.791 426.451C297.777 423.212 297.425 419.784 295.829 416.803C294.232 413.821 291.556 411.638 288.317 410.652C169.555 374.806 177.701 509.084 267.564 506.408V506.384Z" fill="#0E141B"/>
<path d="M226.741 490.421C214.323 480.115 206.435 465.514 205.097 450.396C204.017 438.071 208.618 427.038 218.102 419.338C233.408 406.896 259.395 404.549 287.612 413.07C290.195 413.845 292.331 415.605 293.622 417.976C294.913 420.371 295.171 423.118 294.397 425.7C293.622 428.282 291.861 430.418 289.49 431.709C287.096 432.977 284.349 433.259 281.767 432.484C256.108 424.737 238.338 429.033 230.92 435.066C226.647 438.541 224.839 442.954 225.332 448.612C226.201 458.377 231.436 467.932 239.723 474.834C247.493 481.289 256.86 484.529 265.405 483.707C268.104 483.449 270.734 484.247 272.823 485.984C274.912 487.698 276.203 490.139 276.462 492.839C276.72 495.539 275.922 498.168 274.208 500.257C272.494 502.346 270.053 503.638 267.353 503.896C253.479 505.234 238.666 500.328 226.764 490.445L226.741 490.421Z" fill="#5186C5"/>
<path d="M226.741 490.42C238.643 500.304 253.432 505.21 267.33 503.872C270.029 503.614 272.471 502.322 274.184 500.233C275.405 498.754 276.133 496.994 276.391 495.116C237.845 500.257 210.426 467.955 205.073 449.996C205.073 450.137 205.073 450.254 205.097 450.395C206.435 465.513 214.322 480.115 226.741 490.42Z" fill="#4674AC"/>
<path d="M268.316 467.531C268.316 537.253 328.694 593.969 402.923 593.969C477.151 593.969 537.53 537.253 537.53 467.531C537.53 397.81 477.151 341.094 402.923 341.094C328.694 341.094 268.316 397.81 268.316 467.531Z" fill="#0E141B"/>
<path d="M273.691 467.531C273.691 400.79 331.675 346.469 402.923 346.469C474.17 346.469 532.154 400.767 532.154 467.531C532.154 534.294 474.17 588.592 402.923 588.592C331.675 588.592 273.691 534.294 273.691 467.531Z" fill="#0E141B"/>
<path d="M289.866 468.635C289.866 492.251 306.909 511.454 327.849 511.454C348.789 511.454 365.832 492.251 365.832 468.635C365.832 445.019 348.789 425.816 327.849 425.816C306.909 425.816 289.866 445.019 289.866 468.635Z" fill="#0E141B"/>
<path d="M298.763 468.634C298.763 448 313.388 431.191 331.37 431.191C349.352 431.191 363.977 448 363.977 468.634C363.977 489.269 349.352 506.077 331.37 506.077C313.388 506.077 298.763 489.269 298.763 468.634Z" fill="white"/>
<path d="M382.757 465.302C382.757 491.172 402.289 512.205 426.327 512.205C450.366 512.205 469.897 491.172 469.897 465.302C469.897 439.432 450.343 418.398 426.327 418.398C402.312 418.398 382.757 439.432 382.757 465.302Z" fill="#0E141B"/>
<path d="M383.438 465.301C383.438 442.413 400.575 423.773 421.632 423.773C442.69 423.773 459.827 442.413 459.827 465.301C459.827 488.189 442.69 506.829 421.632 506.829C400.575 506.829 383.438 488.189 383.438 465.301Z" fill="white"/>
<path d="M425.459 466.569C425.459 470.889 421.961 474.386 417.642 474.386C413.322 474.386 409.848 470.889 409.848 466.569C409.848 462.25 413.346 458.775 417.642 458.775C421.938 458.775 425.459 462.273 425.459 466.569Z" fill="#0E141B"/>
<path d="M339.821 471.616C339.821 475.935 336.488 479.41 332.403 479.41C328.318 479.41 324.985 475.912 324.985 471.616C324.985 467.32 328.295 463.822 332.403 463.822C336.511 463.822 339.821 467.32 339.821 471.616Z" fill="#0E141B"/>
<path d="M186.716 505.163C177.02 515.61 172.325 537.653 177.419 543.217C180.753 546.855 187.655 545.024 196.106 533.733C204.815 522.112 222.727 512.018 237.774 513.943C246.671 515.07 253.362 520.774 258.245 531.338C259.465 533.991 260.076 536.55 260.076 539.085C260.076 540.4 259.911 541.691 259.583 542.982C259.207 544.531 258.573 546.128 257.705 547.724C255.099 552.607 249.582 556.292 244.089 558.922C236.976 562.326 263.738 581.88 269.56 576.387C286.391 560.495 291.016 539.461 282.471 520.939C262.963 478.683 212.398 477.533 186.716 505.187V505.163Z" fill="#0E141B"/>
<path d="M179.814 540.281C176.387 536.525 179.767 520.538 189.439 510.115C215.52 482.039 261.93 484.856 278.926 521.736C287.002 539.225 282.448 557.911 266.438 573.006C260.78 578.334 240.544 563.639 247.188 560.094C252.493 557.254 257.423 553.521 259.911 548.873C260.874 547.089 261.555 545.305 262.001 543.544C263.104 539.154 262.611 534.811 260.498 530.21C255.216 518.778 247.869 512.627 238.056 511.36C224.323 509.622 207.257 517.768 202.468 521.454C199.087 524.06 196.035 528.121 193.101 532.065C189.556 536.807 185.894 541.69 182.866 541.854C181.833 541.901 180.823 541.384 179.814 540.258V540.281Z" fill="#5186C5"/>
<path d="M282.471 520.915C280.64 516.924 278.433 513.356 275.945 510.164C262.752 506.783 243.995 504.389 234.042 504.389C216.177 504.389 201.505 518.333 193.805 531.197C196.528 527.559 199.369 523.897 202.491 521.502C207.303 517.817 224.37 509.647 238.079 511.408C247.916 512.652 255.263 518.826 260.522 530.258C262.635 534.836 263.128 539.202 262.024 543.592C261.578 545.329 260.874 547.137 259.935 548.921C257.447 553.569 252.517 557.302 247.211 560.142C244.559 561.574 246.202 564.767 249.488 567.748L269.513 569.955C282.988 555.447 289.983 537.254 282.448 520.939L282.471 520.915Z" fill="#4674AC"/>
<path d="M443.723 332.878L442.784 333.089C435.905 334.592 431.539 341.376 433.042 348.184C434.544 355.015 441.281 359.358 448.066 357.879L449.216 357.621C468.982 353.255 504.899 349.686 523.445 374.875C551.638 413.163 591.711 419.337 617.486 412.037C628.966 408.773 643.708 398.679 641.689 391.425C641.337 390.181 640.539 389.195 639.271 388.491C633.356 385.157 618.496 388.139 615.538 388.96C604.927 391.942 568.846 393.773 543.868 359.851C523.82 332.62 488.255 323.042 443.746 332.878H443.723Z" fill="#0E141B"/>
<path d="M435.506 347.644C434.919 345.015 435.436 342.292 436.915 339.991C438.394 337.714 440.671 336.118 443.324 335.555L444.263 335.343C487.739 325.718 522.388 334.968 541.802 361.354C567.625 396.426 604.998 395.487 616.031 392.388C622.228 390.651 633.825 388.35 638.004 390.698C638.661 391.073 639.06 391.52 639.225 392.106C640.586 397.013 627.816 405.346 616.782 408.492C591.805 415.582 552.906 410.628 525.487 373.373C506.096 347.034 469.029 350.649 448.653 355.156L447.502 355.415C442.079 356.588 436.704 353.114 435.506 347.668V347.644Z" fill="#4674AC"/>
<path d="M542.154 632.703C570.395 629.862 578.494 610.965 584.691 596.316C588.682 586.879 592.485 579.837 598.87 574.296C600.655 572.747 603.143 571.127 605.772 569.39C611.805 565.423 618.05 561.338 618.519 556.549C618.707 554.601 617.932 552.723 616.172 551.009C611.406 546.314 597.321 546.995 586.968 554.859C573.447 565.141 567.179 577.16 563.235 586.504C557.648 599.697 554.596 606.364 539.807 607.843C516.801 610.167 506.683 578.334 500.462 549.812L500.04 547.91C498.702 541.76 492.598 537.863 486.448 539.224C480.297 540.586 476.4 546.69 477.738 552.817L478.137 554.671C482.997 576.855 495.932 637.327 542.131 632.656L542.154 632.703Z" fill="#0E141B"/>
<path d="M480.649 554.178L480.25 552.324C479.194 547.535 482.222 542.793 487.011 541.736C491.8 540.68 496.542 543.732 497.575 548.497L497.997 550.399C504.453 579.931 515.087 613.524 540.065 610.988C556.333 609.345 560.019 600.659 565.582 587.513C569.409 578.452 575.489 566.808 588.518 556.901C598.354 549.436 610.819 549.295 614.411 552.84C615.608 554.014 616.125 555.141 616.007 556.315C615.655 559.906 609.669 563.827 604.387 567.278C601.687 569.038 599.152 570.728 597.227 572.372C590.513 578.193 586.053 584.602 581.898 594.415C575.959 608.453 568.564 625.919 541.826 628.618C497.88 633.055 485.368 575.729 480.649 554.155V554.178Z" fill="#4674AC"/>
<path d="M514.031 475.161C513.773 476.217 513.655 477.297 513.655 478.33C513.655 483.988 517.294 488.941 522.881 490.303L527.036 491.312C550.981 496.711 577.015 507.839 588.706 549.319C589.011 550.423 589.152 551.737 589.152 553.216C589.152 556.503 588.518 560.54 587.884 564.484C587.25 568.381 586.687 571.996 586.687 574.931C586.687 577.607 587.156 579.72 588.518 581.011C596.523 588.64 616.759 566.151 611.453 542.629C601.429 498.284 578.752 477.016 532.67 466.593L529.806 465.912C522.881 464.268 515.674 468.494 514.078 475.161H514.031Z" fill="#0E141B"/>
<path d="M590.232 579.157C588.354 577.396 589.434 570.729 590.373 564.86C591.335 558.898 592.321 552.747 591.147 548.615C579.104 505.867 552.272 494.411 527.623 488.824L523.492 487.815C518.163 486.523 515.158 481.312 516.496 475.725C517.764 470.396 523.585 467.015 529.173 468.354L532.06 469.034C577.015 479.176 596.382 498.097 606.148 541.268C607.65 547.982 605.655 564.532 599.81 573.687C597.697 576.974 595.349 578.922 592.814 579.462C590.983 579.861 590.396 579.298 590.208 579.11L590.232 579.157Z" fill="#4674AC"/>
<path d="M224.652 547.02C180.776 546.903 163.264 571.81 165.776 583.43C166.269 585.731 167.231 587.116 168.71 587.726C171.715 588.923 175.8 586.177 180.964 582.702C211.153 562.373 253.878 573.97 278.34 609.887C282.33 615.004 315.102 626.202 320.924 621.695C321.651 621.131 322.05 620.333 322.074 619.418C322.074 619.394 322.074 619.347 322.074 619.324C322.074 615.38 315.243 609.182 305.641 600.872C302.167 597.867 298.857 595.027 297.754 593.571L295.946 591.224C274.044 562.208 253.057 547.09 224.652 547.02Z" fill="#0E141B"/>
<path d="M169.673 585.377C169.039 585.119 168.569 584.297 168.288 582.912C167.724 580.377 168.546 577.419 170.659 574.156C179.626 560.399 198.172 550.728 227.234 551.268C253.972 551.761 273.128 565.188 293.951 592.772L295.782 595.143C297.049 596.786 300.289 599.58 304.022 602.819C309.867 607.866 319.656 616.341 319.586 619.369C319.586 619.557 319.515 619.628 319.421 619.721C315.243 622.961 283.809 612.726 280.405 608.359C260.193 573.522 220.051 553.404 179.603 580.635C175.424 583.452 171.457 586.128 169.696 585.424L169.673 585.377Z" fill="#4674AC"/>
<path d="M303.998 602.796C300.265 599.556 297.026 596.786 295.758 595.119C295.758 595.119 293.951 592.772 293.927 592.748C273.105 565.165 253.972 551.737 227.21 551.244C198.148 550.704 179.603 560.376 170.635 574.133C168.499 577.396 167.701 580.354 168.264 582.889C168.569 584.274 169.039 585.119 169.649 585.354C186.504 566.949 206.458 553.451 245.779 565.188C278.48 574.954 295.336 606.622 300.101 616.998C308.74 619.604 317.332 621.271 319.374 619.675C319.374 619.675 319.539 619.51 319.539 619.322C319.609 616.271 309.82 607.82 303.975 602.772L303.998 602.796Z" fill="#5186C5"/>
<path d="M273.081 491.57C237.023 499.341 211.975 538.826 235.615 572.842C247.916 590.565 270.921 587.654 289.608 586.528C304.796 585.612 319.985 583.546 327.802 591.81C329.187 593.265 331.253 596.786 333.248 600.167C342.075 615.167 357.944 645.286 397.594 635.192C418.205 629.957 426.633 614.721 429.591 604.698C436.14 582.49 423.98 556.785 419.215 551.667C414.637 546.714 406.96 546.432 401.749 551.01C398.979 553.451 397.547 556.949 397.547 560.47C397.547 563.146 398.486 565.799 400.153 568.1L400.035 568.194C402.125 571.222 406.092 581.762 406.092 590.988C406.092 593.735 405.74 596.364 404.871 598.664C403.721 601.74 401.115 606.106 391.913 608.454C371.724 613.595 364.752 603.759 355.08 587.302C352.24 582.466 349.563 577.936 346.23 574.391C330.29 557.512 307.355 558.897 288.927 560.001C272.964 560.963 262.987 561.151 259.09 555.54C251.507 544.624 259.254 523.262 282.471 518.238L273.081 491.547V491.57Z" fill="#0E141B"/>
<path d="M429.097 603.572C426.327 612.962 417.008 625.639 397.547 630.592C359.728 640.217 343.929 613.338 335.431 598.924C333.365 595.403 331.229 591.787 329.633 590.097C321.017 580.965 306.087 581.881 290.312 582.82C272.259 583.9 250.826 585.895 239.324 569.345C220.356 542.067 237.258 504.037 271.86 495.656C272.658 500.774 276.555 510.68 278.785 515.775C269.161 518.357 258.01 525.259 254.348 534.531C253.174 537.513 252.587 540.517 252.587 543.499C252.587 556.786 255.921 566.27 288.786 564.274C306.674 563.195 329.21 560.166 344.352 576.176C347.498 579.51 350.103 583.923 352.85 588.618C362.874 605.661 371.067 616.413 392.5 610.967C402.852 608.337 405.857 603.22 407.219 599.605C408.228 596.928 417.501 562.913 425.928 556.457C430.318 553.077 440.178 554.884 443.816 558.805C448.347 563.687 435.318 582.35 429.05 603.595L429.097 603.572Z" fill="#4674AC"/>
<path d="M275.804 508.38C274.067 503.826 272.377 498.825 271.884 495.633C240.263 503.309 223.454 535.682 235.215 562.021C241.319 530.893 263.174 515.375 275.804 508.38Z" fill="#5186C5"/>
<path d="M634.576 502.04C648.215 496.266 657.465 488.495 654.554 482.087C651.878 476.171 633.473 477.673 621.688 483.565C569.292 509.834 568.165 532.91 567.155 553.263C566.592 564.32 566.263 570.964 559.15 578.053C554.103 583.077 548.446 583.758 542.295 580.096C531.262 573.523 523.585 555.141 530.229 532.723C532.224 526.009 528.374 518.943 521.684 516.971C514.993 514.975 507.904 518.825 505.932 525.516C495.11 561.949 509.852 590.589 528.679 601.834C544.83 611.482 563.751 609.275 577.038 596.035C591.124 582.021 591.875 566.785 592.485 554.531C593.471 534.695 613.777 510.867 634.6 502.064L634.576 502.04Z" fill="#0E141B"/>
<path d="M633.473 499.741C610.139 511.032 591.124 530.399 589.95 554.367C587.931 595.214 556.967 614.581 530.628 598.853C512.599 588.101 497.927 561.316 508.35 526.197C509.946 520.845 515.604 517.77 520.956 519.366C526.309 520.962 529.384 526.62 527.788 531.972C520.768 555.612 529.102 575.143 540.981 582.233C548.047 586.435 555.136 585.59 560.935 579.815C568.752 572.044 569.151 564.204 569.691 553.358C570.653 533.686 571.757 511.408 622.815 485.796C627.675 483.355 643.333 480.068 649.272 482.181C650.234 482.533 650.845 482.979 651.103 483.519C653.967 489.811 639.624 496.759 633.497 499.741H633.473Z" fill="#4674AC"/>
<path d="M588.354 466.688C586.029 468.002 584.574 469.692 584.128 471.617C582.626 477.932 592.767 483.073 602.556 488.074L606.5 490.092L607.838 490.797C626.055 500.304 634.224 516.643 630.21 532.958C626.29 548.921 596.781 543.17 576.851 528.874C571.17 524.812 563.235 526.103 559.15 531.784C555.089 537.465 556.404 545.4 562.085 549.485C607.838 582.256 649.272 575.448 657.958 540.001C666.432 505.492 648.521 477.205 612.744 465.584C604.669 462.955 594.199 463.448 588.377 466.711L588.354 466.688Z" fill="#0E141B"/>
<path d="M624.318 544.883C629.459 542.981 632.628 539.39 633.99 533.873C636.337 524.342 634.436 513.614 628.825 504.412C623.848 496.289 615.961 492.181 609.012 488.542L607.674 487.862L603.706 485.819C595.608 481.688 585.56 476.57 586.593 472.204C586.945 470.678 588.424 469.574 589.598 468.917C594.856 465.959 604.458 465.56 611.923 467.978C622.369 471.382 636.783 478.612 646.103 493.824C654.53 507.604 657.3 523.966 653.662 538.709C650.727 550.728 642.793 559.672 631.337 563.921C612.838 570.753 587.485 564.602 563.517 547.418C558.963 544.155 557.93 537.817 561.169 533.263C564.432 528.708 570.771 527.676 575.325 530.915C597.11 546.526 615.327 548.193 624.294 544.883H624.318Z" fill="#5186C5"/>
<path d="M563.54 547.396C587.508 564.556 612.862 570.73 631.36 563.899C642.816 559.65 650.727 550.706 653.685 538.686C654.108 536.949 654.436 535.165 654.695 533.404C647.089 550.964 616.759 574.087 560.653 534.226C558.164 538.663 559.315 544.367 563.564 547.396H563.54Z" fill="#4674AC"/>
<path d="M594.34 357.011C581.968 371.284 575.184 385.862 574.128 400.299C573.048 415.135 578.518 429.197 588.072 440.16C595.584 448.799 598.683 457.086 596.523 462.954C593.823 470.349 582.109 476.147 564.385 478.871C561.029 479.387 558.094 481.171 556.099 483.894C554.103 486.617 553.282 489.974 553.798 493.331C554.315 496.688 556.099 499.623 558.822 501.618C561.545 503.614 564.902 504.435 568.235 503.919C603.519 498.496 616.031 483.378 620.327 471.664C625.82 456.663 622.487 439.667 608.519 423.61C603.448 417.788 600.796 410.839 601.382 402.787C602.228 391.05 608.613 377.458 612.885 371.565L616.219 367.34C621.618 360.743 627.37 352.316 623.426 347.738C622.205 346.306 620.21 345.555 617.698 345.531C610.96 345.531 600.138 350.297 594.34 356.987V357.011Z" fill="#0E141B"/>
<path d="M560.324 499.576C558.141 497.979 556.709 495.608 556.31 492.932C555.887 490.256 556.545 487.58 558.165 485.397C559.761 483.213 562.132 481.781 564.808 481.382C583.471 478.518 595.913 472.11 598.941 463.846C601.406 457.109 598.166 447.883 590.02 438.517C580.935 428.07 576.663 415.088 577.696 400.956C578.705 387.059 585.302 372.997 597.298 359.147C602.58 353.043 611.758 348.09 617.745 348.113C618.965 348.113 620.632 348.348 621.548 349.428C621.947 349.897 622.135 350.484 622.135 351.165C622.135 354.827 616.947 361.166 613.331 365.579L609.904 369.922C605.467 376.072 598.824 390.204 597.932 402.435C597.861 403.327 597.838 404.219 597.838 405.088C597.838 412.741 600.35 419.502 605.326 425.206C615.068 436.38 620.092 448.024 620.092 458.987C620.092 463.048 619.411 466.992 618.003 470.818C613.942 481.899 601.969 496.195 567.907 501.43C565.231 501.853 562.554 501.172 560.371 499.576H560.324Z" fill="#5186C5"/>
<path d="M545.276 429.714C542.037 430.699 539.361 432.883 537.764 435.864C536.168 438.845 535.816 442.273 536.802 445.512C538.821 452.203 545.91 456.006 552.601 453.987C577.32 446.522 594.175 450.466 601.124 456.1C604.669 458.987 606.195 462.696 605.796 467.438C604.997 476.547 600.068 485.467 592.297 491.923C585.043 497.956 576.358 500.984 568.493 500.21C565.113 499.881 561.826 500.89 559.221 503.027C556.615 505.186 554.995 508.215 554.667 511.595C554.338 514.976 555.347 518.262 557.507 520.868C559.667 523.474 564.057 526.314 567.437 526.643C581.992 528.051 596.875 522.887 609.293 512.558C660.681 469.88 628.426 404.572 545.3 429.667L545.276 429.714Z" fill="#0E141B"/>
<path d="M539.22 444.784C538.445 442.202 538.703 439.455 539.995 437.06C541.286 434.666 543.422 432.929 546.004 432.131C574.222 423.609 600.209 425.957 615.514 438.399C624.975 446.098 629.6 457.132 628.52 469.456C627.182 484.574 619.294 499.176 606.876 509.482C594.974 519.365 580.184 524.271 566.287 522.933C563.587 522.675 561.146 521.384 559.432 519.294C557.718 517.205 556.897 514.576 557.179 511.876C557.437 509.176 558.728 506.735 560.817 505.021C562.906 503.308 565.536 502.486 568.235 502.768C576.78 503.589 586.123 500.373 593.894 493.894C602.181 487.016 607.439 477.461 608.308 467.672C608.801 462.038 606.969 457.601 602.72 454.127C595.302 448.094 577.532 443.798 551.873 451.545C546.521 453.165 540.84 450.113 539.243 444.76L539.22 444.784Z" fill="#4674AC"/>
<path d="M628.52 469.456C629.6 457.132 624.998 446.098 615.514 438.399C600.209 425.957 574.221 423.609 546.004 432.131C543.422 432.905 541.286 434.666 539.995 437.06C538.727 439.455 538.445 442.178 539.22 444.784C539.29 445.042 539.431 445.253 539.502 445.488C621.994 431.685 636.337 467.179 610.866 505.843C620.961 495.866 627.299 482.884 628.496 469.48L628.52 469.456Z" fill="#5186C5"/>
<path d="M562.296 411.05C558.916 411.308 555.84 412.858 553.634 415.44C551.638 417.764 550.582 420.651 550.582 423.68C550.582 424.008 550.582 424.337 550.629 424.666C550.887 428.046 552.436 431.121 555.019 433.328C559.174 436.896 565.723 447.624 566.592 459.338C566.662 460.16 566.686 460.982 566.686 461.78C566.686 468.822 563.752 474.104 559.197 479.339C549.033 491.007 542.765 503.378 542.765 514.951C542.765 533.356 561.686 556.315 597.157 560.329C608.847 561.644 626.571 559.437 627.792 551.526C628.989 543.662 608.566 534.905 603.425 534.107C585.701 531.384 573.189 527.065 570.489 519.693C568.353 513.848 571.428 505.538 578.94 496.899C588.494 485.936 592.955 472.297 591.875 457.484C590.49 438.446 580.349 421.637 571.522 414.055C568.963 411.848 565.676 410.792 562.296 411.05Z" fill="#0E141B"/>
<path d="M597.274 556.503C570.841 553.498 555.066 544.038 549.032 527.535C543.868 513.426 548.375 497.228 561.709 481.922C567.249 475.561 569.738 467.908 569.104 459.151C568.188 446.709 561.146 435.23 556.662 431.38C554.596 429.619 553.352 427.155 553.141 424.455C552.929 421.755 553.798 419.126 555.559 417.084C557.319 415.018 559.784 413.774 562.484 413.562C565.183 413.351 567.813 414.22 569.855 415.98C578.306 423.211 588.001 439.338 589.339 457.672C590.372 471.805 586.1 484.81 577.015 495.256C568.869 504.599 565.606 513.825 568.094 520.586C571.123 528.873 583.565 535.258 602.227 538.122C608.894 539.155 626.008 546.385 625.28 551.151C624.576 555.682 611.782 558.146 597.298 556.503H597.274Z" fill="#4674AC"/>
<path d="M625.257 551.15C625.984 546.385 608.871 539.131 602.204 538.121C592.25 536.595 584.081 534.037 578.142 530.75C580.888 542.934 593.87 551.737 604.974 556.995C616.007 557.16 624.67 554.859 625.257 551.15Z" fill="#5186C5"/>
<path d="M523.069 250.691C518.28 251.677 518.773 255.762 519.289 260.082C521.966 282.148 506.401 300.647 480.414 303.98C442.784 308.793 432.22 320.624 427.219 329.216L427.079 329.451L429.191 330.836L429.684 330.132C429.872 329.873 429.966 329.873 430.06 329.873C432.337 330.038 436.75 340.578 440.6 348.255L441.657 350.344L442.83 348.325C445.507 343.724 463.958 333.864 483.724 331.329C510.909 327.855 525.369 315.014 532.13 305.506C547.835 283.463 540.206 259.894 527.975 251.865C526.261 250.738 524.595 250.339 523.045 250.668L523.069 250.691Z" fill="#0E141B"/>
<path d="M480.743 307.806C495.791 305.881 506.871 300.459 512.787 292.148C517.529 285.481 520.416 278.673 521.872 270.762C522.177 269.072 522.294 267.452 522.294 265.95C522.294 263.673 522.036 261.584 521.825 259.776C521.637 258.203 521.52 257.006 521.52 256.09C521.52 254.165 522.06 253.508 523.609 253.179C524.501 252.992 525.51 253.273 526.637 254.024C531.168 256.982 535.933 266.349 536.943 271.208C537.436 273.579 537.671 276.044 537.671 278.533C537.671 287.218 534.736 296.303 529.29 303.933C522.811 313.018 509.571 324.568 483.302 327.925C465.743 330.178 448.629 337.596 443.183 343.324C440.694 338.535 435.389 329.31 431.234 327.713C436.727 320.225 448.253 311.961 480.72 307.806H480.743Z" fill="#4674AC"/>
<path d="M534.83 293.533C536.685 288.627 537.671 283.533 537.671 278.533C537.671 276.044 537.436 273.579 536.943 271.208C535.933 266.349 531.168 256.982 526.637 254.024C525.51 253.273 524.477 252.992 523.609 253.179C522.06 253.508 521.52 254.165 521.52 256.09C521.52 257.006 521.637 258.203 521.825 259.776C522.036 261.584 522.294 263.673 522.294 265.95C522.294 267.476 522.177 269.096 521.872 270.762C520.44 278.697 517.552 285.481 512.787 292.148C509.054 297.407 503.232 301.491 495.673 304.262C504.43 319.896 524.501 305.717 534.83 293.51V293.533Z" fill="#5186C5"/>
<path d="M502.904 419.477H502.622L502.716 422.013H503.584C503.913 422.013 503.96 422.106 504.007 422.2C505.157 424.172 501.425 433.539 497.293 441.074L496.166 443.14L498.514 442.952C503.819 442.53 520.674 451.732 534.008 466.569C552.342 486.945 568.681 492.861 580.348 493.025C612.556 493.471 630.186 464.338 620.327 454.948C614.927 449.831 603.354 457.319 598.636 462.273C596.429 464.597 589.175 466.334 582.109 466.24C572.625 466.099 562.507 460.348 552.859 449.619C527.506 421.402 512.857 418.679 502.951 419.477H502.904Z" fill="#0E141B"/>
<path d="M506.66 423.235C506.66 422.718 506.472 422.366 506.378 421.943C515.651 422.178 529.008 426.944 550.934 451.311C561.075 462.579 571.827 468.636 582.039 468.776C588.847 468.87 597.345 467.274 600.42 464.011C604.739 459.48 614.881 453.283 618.543 456.757C619.364 457.532 619.787 458.753 619.834 460.419C619.951 465.443 616.266 473.307 613.026 476.711C605.514 484.599 593.823 489.223 581.757 489.036C570.606 488.871 553.587 484.552 535.863 464.856C524.031 451.686 508.186 441.85 500.368 440.63C502.646 436.31 506.683 427.976 506.683 423.211L506.66 423.235Z" fill="#4674AC"/>
<path d="M512.012 388.092C509.031 394.407 511.754 401.99 518.092 404.971C524.407 407.952 531.99 405.229 534.971 398.891C537.06 394.431 549.15 382.716 562.085 381.167C570.982 380.111 588.307 392.107 588.307 404.032C588.307 420.864 563.54 436.85 562.366 441.592L561.991 444.668C561.991 450.489 565.935 455.537 571.592 456.969C590.725 461.758 637.417 414.69 606.946 376.871C578.987 342.151 530.205 349.522 512.036 388.139L512.012 388.092Z" fill="#0E141B"/>
<path d="M519.172 402.669C514.125 400.298 511.942 394.242 514.313 389.171C519.407 378.372 537.225 361.141 559.362 358.489C571.123 357.08 588.401 359.451 603.918 378.724C616.007 393.725 616.125 412.951 604.293 431.497C599.857 438.445 584.457 457.554 572.179 454.479C567.648 453.352 564.503 449.314 564.503 444.643L564.808 442.178C565.77 438.305 569.034 435.394 573.142 434.76H573.329L573.494 434.642C577.367 432.764 588.964 422.248 592.086 409.665C592.579 407.716 592.814 405.791 592.814 404.007C592.814 399.477 591.265 395.368 588.119 391.448C580.231 381.635 571.592 377.457 561.756 378.631C547.718 380.321 534.994 392.833 532.67 397.786C530.299 402.857 524.243 405.017 519.172 402.646V402.669Z" fill="#5186C5"/>
<path d="M541.098 364.146C527.811 370.79 517.904 381.565 514.313 389.171C511.942 394.218 514.125 400.275 519.172 402.669C524.243 405.04 530.276 402.881 532.67 397.81C535.018 392.833 547.718 380.321 561.756 378.654C571.592 377.48 580.231 381.659 588.119 391.472C591.288 395.392 592.814 399.5 592.814 404.031C592.814 387.622 587.25 372.128 541.098 364.17V364.146Z" fill="#4674AC"/>
<path d="M573.47 434.643L573.306 434.736H573.118C569.033 435.394 565.747 438.305 564.784 442.178L564.479 444.643C564.479 449.291 567.648 453.352 572.156 454.479C584.41 457.554 599.833 438.422 604.27 431.497C609.552 423.234 612.439 414.806 612.956 406.707C608.448 429.22 587.649 429.314 583.635 425.44C579.668 430.253 575.489 433.657 573.47 434.666V434.643Z" fill="#4674AC"/>
<path d="M536.332 529.623C530.229 532.745 527.811 540.75 531.051 547.089L532.389 549.741C553.681 592.701 579.996 610.988 625.679 608.453C646.971 607.279 656.502 595.612 655.657 587.982C655.117 583.1 647.276 580.893 624.717 582.841C579.433 586.738 567.226 563.333 556.92 542.182L555.113 538.473L553.141 534.67C550.019 528.614 542.647 526.407 536.332 529.647V529.623Z" fill="#0E141B"/>
<path d="M534.666 548.591L533.304 545.938C530.698 540.821 532.6 534.365 537.483 531.877C542.6 529.247 548.375 530.938 550.887 535.821L552.836 539.6L554.643 543.262C564.785 564.061 577.391 589.931 624.388 585.917L626.431 585.729C640.469 584.508 652.605 583.475 653.145 588.241C653.357 590.213 652.418 592.631 650.563 594.837C648.427 597.349 641.83 603.288 626.595 604.133C582.086 606.598 555.465 590.494 534.689 548.591H534.666Z" fill="#5186C5"/>
<path d="M552.836 539.6L550.887 535.821C548.375 530.938 542.624 529.247 537.483 531.877C532.6 534.365 530.698 540.821 533.304 545.938C533.304 545.938 534.642 548.591 534.666 548.591C555.441 590.494 582.062 606.598 626.571 604.133C641.83 603.288 648.427 597.349 650.54 594.837C650.821 594.509 651.033 594.18 651.267 593.851C642.182 599.274 630.327 600.424 618.449 600.424C605.631 600.424 571.287 587.09 563.235 559.319C559.878 554.014 557.179 548.474 554.643 543.262L552.836 539.6Z" fill="#4674AC"/>
<path d="M256.648 295.388C244.864 300.106 235.215 311.421 237.68 318.346C240.521 326.281 249.136 327.431 260.757 323.3C301.909 308.628 326.534 329.192 341.77 347.596L344.563 350.86C348.976 356.048 356.676 356.494 362.076 351.916C367.287 347.479 368.672 338.277 364.071 332.831L362.146 330.553C330.008 291.702 296.134 279.612 256.672 295.388H256.648Z" fill="#0E141B"/>
<path d="M242.07 317.501C240.357 312.689 245.685 304.613 257.259 299.965C295.547 284.636 327.99 295.153 359.329 333.042L361.254 335.319C362.968 337.338 363.813 339.85 363.813 342.338C363.813 345.225 362.663 348.066 360.409 349.967C356.019 353.7 350.033 353.371 346.465 349.193L343.695 345.953C328.013 326.985 302.19 303.486 259.559 318.698C253.268 320.928 243.69 322.032 242.07 317.501Z" fill="#4674AC"/>
<path d="M257.259 299.943C245.662 304.591 240.333 312.667 242.07 317.479C243.69 322.033 253.268 320.93 259.559 318.676C284.232 309.873 303.247 314.028 317.942 322.761C323.013 317.197 325.994 310.554 326.159 303.418C304.82 290.929 282.283 289.919 257.282 299.92L257.259 299.943Z" fill="#5186C5"/>
<path d="M259.559 318.7C284.232 309.896 303.247 314.051 317.942 322.784C319.116 321.517 320.149 320.155 321.088 318.77C320.055 313.817 317.168 309.38 310.947 306.985C293.669 300.318 264.043 308.887 242.751 318.582C245.474 321.798 253.878 320.718 259.583 318.7H259.559Z" fill="#4674AC"/>
<path d="M165.377 585.964C148.146 577.772 141.737 580.87 140.282 588.124C135.07 613.97 200.472 642.047 232.868 580.495C248.643 550.493 281.391 553.217 300.054 557.912C303.341 558.733 306.956 556.855 309.867 555.095C312.778 553.357 314.82 550.587 315.642 547.301C315.9 546.268 316.041 545.235 316.041 544.202C316.041 541.948 315.43 539.695 314.233 537.699C312.496 534.788 309.726 532.746 306.439 531.924C278.856 520.586 229.652 524.272 208.806 566.996C196.2 590.988 180.471 593.148 165.377 585.964Z" fill="#0E141B"/>
<path d="M211.928 567.841C235.826 522.417 285.547 529.295 305.829 534.366C308.458 535.023 310.665 536.666 312.074 538.99C313.459 541.314 313.881 544.037 313.224 546.667C312.567 549.296 310.923 551.503 308.599 552.888C306.275 554.273 303.552 554.695 300.923 554.038C281.509 549.178 246.484 545.751 229.91 577.278C199.721 634.675 139.484 609.839 143.686 588.946C144.132 586.762 145.047 585.354 146.503 584.65C150.846 582.513 159.414 586.739 164.532 589.274L168.546 591.152C179.626 595.495 196.2 597.796 211.952 567.841H211.928Z" fill="#5186C5"/>
<path d="M229.887 577.28C246.46 545.752 281.509 549.18 300.899 554.039C303.529 554.696 306.252 554.297 308.576 552.889C308.787 552.771 308.951 552.607 309.139 552.466C265.146 537.724 244.653 547.536 219.37 583.97C203.923 606.248 175.049 612.375 149.719 602.797C165.353 616.859 206.552 621.577 229.863 577.256L229.887 577.28Z" fill="#4674AC"/>
<path d="M472.034 544.882C468.935 546.267 466.564 548.756 465.343 551.925C464.123 555.094 464.216 558.521 465.601 561.62C468.442 568.005 475.954 570.893 482.339 568.052C485.931 566.456 502.293 566.198 517.646 572.982C524.736 576.104 533.844 581.785 536.919 591.034C549.032 627.398 569.714 637.422 589.293 637.422C620.937 637.422 627.252 627.28 622.416 620.472C619.693 616.646 611.242 616.223 602.298 615.777C582.555 614.791 568.634 606.035 560.958 583.006C556.192 568.709 544.76 557.23 527.858 549.788C509.031 541.478 484.499 539.342 472.01 544.906L472.034 544.882Z" fill="#0E141B"/>
<path d="M526.872 552.089C543.093 559.249 554.056 570.212 558.587 583.805C567.273 609.886 579.245 617.163 602.204 618.29C609.763 618.665 618.355 619.088 620.374 621.928C623.496 626.365 611.289 633.924 588.354 633.924C574.503 633.924 550.042 622.28 539.361 590.213C535.98 580.095 526.262 573.992 518.703 570.658C502.739 563.616 485.884 563.71 481.33 565.752C476.212 568.029 470.226 565.705 467.949 560.611C467.362 559.296 467.081 557.888 467.081 556.503C467.081 555.259 467.315 554.038 467.761 552.864C468.724 550.329 470.625 548.333 473.114 547.23C485.039 541.925 508.679 544.084 526.919 552.113L526.872 552.089Z" fill="#4674AC"/>
<path d="M298.082 546.855C291.697 549.695 288.81 557.207 291.65 563.593C294.491 569.978 294.303 572.865 300.946 570.706C311.698 567.184 328.342 568.17 343.695 574.955C350.784 578.077 359.893 583.758 362.968 593.007C374.072 626.342 399.636 639.77 414.214 639.77C420.2 639.77 435.342 635.521 436.891 628.314C437.478 625.52 436.962 623.079 435.342 621.013C430.905 615.403 419.449 614.581 414.731 614.487C411.773 614.417 395.035 609.064 387.03 584.979C382.264 570.682 370.832 559.203 353.93 551.761C335.126 543.451 310.595 541.315 298.082 546.878V546.855Z" fill="#0E141B"/>
<path d="M352.92 554.062C369.142 561.222 380.105 572.185 384.635 585.777C393.133 611.248 411.444 616.952 414.707 617.023C421.726 617.164 430.295 618.713 433.393 622.586C434.544 624.042 434.896 625.732 434.45 627.774C433.37 632.798 420.858 635.897 414.402 635.897C400.552 635.897 376.09 624.253 365.409 592.186C362.029 582.068 352.545 575.026 344.986 571.669C329.023 564.626 309.374 564.039 300.571 567.56C295.383 569.626 296.251 567.654 293.974 562.56C293.387 561.222 293.105 559.837 293.105 558.452C293.105 554.555 295.359 550.846 299.139 549.156C311.064 543.85 334.704 546.01 352.944 554.039L352.92 554.062Z" fill="#4674AC"/>
<path d="M454.545 390.087C451.681 391.895 449.685 394.689 448.911 397.999C448.699 398.938 448.582 399.9 448.582 400.863C448.582 403.21 449.239 405.534 450.53 407.577C454.24 413.492 462.08 415.3 467.996 411.591C471.33 409.502 487.504 406.943 503.655 411.473C511.12 413.563 520.909 417.906 525.276 426.615C540.981 458.048 568.141 466.405 582.579 464.34C588.518 463.495 600.913 459.011 601.429 451.64C601.617 448.799 600.772 446.452 598.871 444.644C593.682 439.714 584.245 439.996 579.55 440.559C576.616 440.911 559.291 437.953 547.953 415.253C541.215 401.778 529.102 390.886 511.331 385.885C491.542 380.322 466.118 382.787 454.521 390.064L454.545 390.087Z" fill="#0E141B"/>
<path d="M452.667 406.215C451.235 403.914 450.765 401.215 451.375 398.562C451.986 395.933 453.582 393.679 455.883 392.247C466.94 385.322 490.65 384.101 509.829 389.5C526.895 394.289 539.29 403.609 545.699 416.427C557.695 440.442 576.639 443.517 579.855 443.118C586.828 442.273 595.537 442.601 599.129 446.005C600.467 447.273 601.054 448.916 600.913 450.982C600.561 456.123 588.588 460.936 582.203 461.851C568.493 463.8 542.624 455.724 527.529 425.488C522.764 415.934 512.27 411.262 504.336 409.032C487.551 404.313 470.883 406.778 466.634 409.431C461.892 412.389 455.624 410.957 452.667 406.215Z" fill="#4674AC"/>
<path d="M508.937 345.907C505.838 355.156 496.706 360.79 489.617 363.912C474.241 370.65 457.878 370.344 454.287 368.748C447.901 365.908 440.389 368.748 437.549 375.133C434.685 381.519 437.549 389.031 443.934 391.895C467.245 405.815 520.51 391.073 532.976 354.006C540.582 331.399 547.695 328.065 557.554 323.441L559.667 322.455C563.54 320.6 568.376 320.201 573.071 319.826C602.838 317.384 589.457 295.106 559.479 299.379C541.967 301.891 520.135 312.619 508.937 345.93V345.907Z" fill="#0E141B"/>
<path d="M490.65 366.213C498.209 362.903 507.951 356.823 511.355 346.705C522.13 314.661 546.732 304.825 560.465 303.135C583.917 300.271 595.607 315.412 572.883 317.267C567.977 317.666 562.906 318.088 558.587 320.131L556.498 321.117C546.45 325.812 538.539 329.521 530.581 353.16C526.003 366.753 515.017 377.669 498.796 384.782C480.532 392.787 456.892 394.876 444.99 389.524C441.234 387.833 439.004 384.124 439.004 380.251C439.004 378.866 439.286 377.457 439.896 376.119C442.173 371.025 448.206 368.725 453.301 371.002C457.855 373.044 474.71 373.185 490.697 366.189L490.65 366.213Z" fill="#4674AC"/>
<path d="M584.715 312.735C587.344 307.829 576.733 301.162 560.465 303.158C548.023 304.683 526.708 312.97 514.806 338.276C516.543 337.337 518.233 336.328 519.876 335.178C547.577 315.834 565.066 311.397 584.715 312.735Z" fill="#5186C5"/>
<path d="M491.683 224.375C472.597 226.371 451.775 242.381 443.864 276.772C441.68 286.28 434.38 292.782 427.642 296.562C412.994 304.778 396.678 306.069 392.946 304.825C386.326 302.595 379.119 306.187 376.912 312.83C374.705 319.45 378.274 326.657 384.917 328.864C397.899 333.207 423.111 329.756 441.047 319.708C457.151 310.694 467.785 297.595 471.165 282.923C476.682 258.954 487.598 246.724 507.247 243.907C519.618 242.123 521.308 238.32 520.299 234.939C518.796 229.963 512.435 222.216 491.706 224.375H491.683Z" fill="#0E141B"/>
<path d="M428.863 298.768C436.07 294.73 445.155 287.734 447.549 277.335C455.132 244.47 475.579 230.901 492.176 229.164C506.801 227.638 516.144 230.009 517.834 235.666C518.092 236.558 517.904 237.028 517.717 237.31C516.496 239.235 511.19 239.986 506.049 240.737C500.908 241.465 495.603 242.239 492.105 244.282C484.687 248.601 473.466 255.151 467.292 281.913C464.076 295.88 454.193 307.829 438.746 316.492C421.351 326.234 398.04 330.624 385.668 326.469C381.419 325.06 378.743 321.093 378.743 316.844C378.743 315.787 378.907 314.708 379.26 313.628C381.044 308.322 386.795 305.458 392.101 307.219C396.843 308.792 413.627 307.289 428.839 298.768H428.863Z" fill="#5186C5"/>
<path d="M462.339 279.401C450.601 309.332 427.713 307.571 417.149 307.571C410.224 307.571 410.857 318.652 412.125 326.281C421.14 324.403 430.6 321.023 438.769 316.445C454.216 307.783 464.099 295.834 467.315 281.866C473.137 256.536 483.513 249.329 490.884 244.963C479.781 249.494 469.945 259.964 462.339 279.378V279.401Z" fill="#4674AC"/>
<path d="M308.505 327.221C316.534 342.526 325.501 353.748 302.003 390.181L299.444 393.538C295.899 397.928 291.016 403.961 291.908 409.736C292.331 412.459 293.997 414.83 296.861 416.732C298.012 417.506 299.491 417.718 301.251 417.342C308.27 415.887 318.717 405.393 321.44 401.168C353.179 351.916 345.103 331.47 335.619 313.441C330.478 303.651 326.205 299.708 328.741 289.965C334.257 268.744 368.32 284.824 375.198 312.337C376.889 319.122 383.79 323.253 390.575 321.563C393.861 320.741 396.631 318.699 398.368 315.788C400.106 312.877 400.669 309.45 399.8 306.187C374.494 212.333 266.062 246.301 308.529 327.244L308.505 327.221Z" fill="#0E141B"/>
<path d="M298.27 414.619C295.993 413.093 294.725 411.379 294.42 409.36C293.716 404.689 298.153 399.172 301.416 395.134L304.139 391.566C328.436 353.888 321.159 340.061 312.754 324.051C307.261 313.581 300.406 300.552 305.148 282.265C309.562 265.269 323.224 254.776 340.831 254.846C361.818 254.94 388.462 271.232 397.336 306.773C398.697 312.196 395.387 317.713 389.964 319.074C384.542 320.436 379.025 317.126 377.663 311.703C371.677 287.782 354.564 275.199 340.737 275.129C332.521 275.082 326.84 279.425 324.797 287.359C322.027 298.04 325.666 304.989 330.736 314.591C339.892 332.009 350.291 351.775 319.327 399.782C316.557 404.102 306.557 413.656 300.759 414.853C299.702 415.065 298.857 414.994 298.294 414.619H298.27Z" fill="#5186C5"/>
<path d="M340.737 275.152C354.564 275.222 371.677 287.805 377.663 311.726C379.025 317.149 384.542 320.459 389.964 319.097C391.326 318.769 392.547 318.158 393.603 317.36C380.316 294.378 362.357 269.424 339.704 269.424C321.863 269.424 320.806 282.993 323.835 294.542C323.835 292.312 324.116 289.941 324.774 287.359C326.839 279.424 332.497 275.081 340.713 275.128L340.737 275.152Z" fill="#4674AC"/>
<path d="M312.754 324.051C321.159 340.061 328.436 353.888 304.139 391.565L301.416 395.134C298.153 399.171 293.692 404.688 294.42 409.36C294.725 411.379 295.993 413.116 298.27 414.618C298.834 414.994 299.679 415.088 300.735 414.853C306.533 413.656 316.534 404.101 319.304 399.782C329.915 383.302 335.666 370.179 338.272 359.31C331.018 335.107 311.205 314.144 304.28 302.289C305.806 310.787 309.515 317.877 312.754 324.051Z" fill="#4674AC"/>
<path d="M479.757 339.264C456.376 360.039 422.102 350.086 403.674 341.681L402.594 341.188C399.542 339.803 396.115 339.686 392.969 340.883C389.8 342.081 387.288 344.452 385.88 347.55C384.495 350.602 384.377 354.053 385.574 357.222C386.772 360.415 389.166 362.95 392.265 364.359L393.133 364.758C438.112 385.228 470.203 384.735 496.683 361.189C528.163 333.207 562.296 340.602 572.038 345.696C602.885 361.87 615.467 339.193 586.123 323.699C557.061 308.347 513.538 309.168 479.71 339.24L479.757 339.264Z" fill="#0E141B"/>
<path d="M584.621 327.009C610.866 340.859 596.429 354.099 574.104 342.385C563.939 337.056 527.6 328.37 495.039 357.315C470.555 379.077 434.755 380.908 394.213 362.456L393.321 362.057C390.833 360.93 388.931 358.888 387.945 356.329C386.983 353.794 387.077 351.047 388.18 348.606C389.307 346.118 391.326 344.216 393.861 343.254C396.373 342.315 399.096 342.408 401.538 343.512L402.617 344.005C421.609 352.644 457.103 363.888 481.541 342.15C517.552 310.13 562.906 315.553 584.597 327.009H584.621Z" fill="#5186C5"/>
<path d="M447.244 354.71C430.389 354.968 413.698 349.052 402.641 344.005L401.561 343.512C399.12 342.409 396.396 342.315 393.885 343.254C391.349 344.217 389.33 346.118 388.204 348.606C387.1 351.048 387.006 353.794 387.969 356.33C388.931 358.889 390.833 360.931 393.345 362.058L394.237 362.457C434.755 380.908 470.555 379.077 495.063 357.316C527.623 328.371 563.963 337.057 574.127 342.385C581.898 346.447 588.706 347.503 593.166 346.564C581.381 340.672 562.39 332.221 543.351 332.221C511.073 332.221 477.926 371.753 447.267 354.71H447.244Z" fill="#4674AC"/>
<path d="M368.062 331.187C363.109 345.906 365.691 360.93 375.081 371.4C377.006 373.537 394.19 392.223 406.679 388.889C408.956 388.279 410.411 387.129 410.998 385.462C412.454 381.26 407.899 375.133 402.641 368.043C399.237 363.489 395.739 358.771 394.19 354.85C391.373 347.714 391.42 341.211 392.054 339.31C393.979 333.605 398.275 328.91 402.265 328.159C406.773 327.314 411.421 331.516 414.519 335.202C417.782 339.075 417.665 349.944 417.571 359.522C417.336 381.495 417.031 411.52 449.944 425.041C469.686 433.14 489.875 432.882 505.345 424.361C516.378 418.28 523.632 408.632 525.276 397.904C527.412 383.96 528.726 369.241 522.459 365.813C520.51 364.757 518.538 364.616 516.59 365.414C510.04 368.114 505.369 381.448 502.434 391.26C496.565 410.862 441.023 415.158 442.924 359.827C445.483 285.904 382.875 287.124 368.062 331.164V331.187Z" fill="#0E141B"/>
<path d="M376.982 369.71C368.226 359.921 365.785 345.836 370.48 331.986C375.175 318.112 385.762 308.064 398.063 305.74C425.271 300.623 440.976 324.521 440.413 359.804C439.474 419.853 496.589 416.332 504.876 391.988C506.683 386.683 511.378 370.297 517.576 367.762C518.796 367.269 519.994 367.363 521.261 368.044C526.825 371.072 523.797 390.979 522.787 397.529C521.261 407.459 514.477 416.45 504.124 422.154C489.358 430.323 469.944 430.511 450.906 422.717C419.59 409.877 419.895 380.814 420.106 359.616C420.2 349.076 420.318 338.207 416.444 333.605C412.923 329.403 407.5 324.614 401.796 325.694C396.913 326.61 391.913 331.892 389.659 338.512C388.767 341.141 388.861 348.231 391.819 355.79C393.486 360.015 397.101 364.874 400.599 369.57C404.824 375.251 409.613 381.683 408.604 384.617C408.486 384.922 408.181 385.861 406.021 386.425C397.054 388.819 383.086 376.518 376.959 369.687L376.982 369.71Z" fill="#5186C5"/>
<path d="M370.48 332.009C365.785 345.836 368.226 359.944 376.982 369.734C383.109 376.565 397.077 388.866 406.045 386.471C408.181 385.908 408.51 384.969 408.627 384.664C409.66 381.729 404.848 375.297 400.622 369.616C397.124 364.921 393.509 360.062 391.842 355.836C388.861 348.277 388.79 341.188 389.683 338.558C391.936 331.938 396.913 326.657 401.819 325.741C407.547 324.661 412.946 329.45 416.468 333.652C420.341 338.253 420.224 349.122 420.13 359.663C419.919 380.861 419.613 409.923 450.929 422.764C469.968 430.581 489.358 430.37 504.148 422.201C514.477 416.496 521.285 407.529 522.811 397.575C523.116 395.58 523.609 392.364 523.984 388.749C515.557 411.966 499.476 420.276 477.621 420.276C397.218 420.276 448.277 318.745 405.434 318.745C399.472 318.745 390.152 317.783 384.565 311.914C378.344 316.656 373.344 323.628 370.48 332.009Z" fill="#4674AC"/>
<path d="M395.857 317.454C395.857 324.426 396.819 331.14 397.993 337.126C400.387 349.568 411.045 361.822 417.618 365.109L419.426 366.001L418.933 344.967V339.99C413.416 322.83 420.928 293.11 442.901 293.11C476.447 293.11 462.01 339.615 483.49 356.869C495.626 366.635 510.275 370.977 523.609 374.851C538.962 379.311 548.422 381.025 550.206 387.621C552.131 394.781 550.512 401.8 545.652 407.364C539.713 414.125 530.065 417.365 519.829 416.026C516.472 415.58 513.139 416.472 510.463 418.538C507.787 420.604 506.049 423.585 505.603 426.942C504.688 433.868 509.594 440.253 516.519 441.168C535.182 443.633 553.563 438.117 565.09 424.947C575.583 412.975 580.184 396.401 576.029 381.025C570.395 360.202 550.206 353.887 532.224 348.652C517.599 344.403 502.293 340.788 497.716 330.365C496.918 328.534 496.143 324.543 495.415 320.67C492.152 303.557 486.988 270.339 446.258 266.489C418.98 263.907 395.927 278.908 395.927 317.454H395.857Z" fill="#0E141B"/>
<path d="M400.481 336.658C399.355 330.813 398.416 324.286 398.416 317.502C398.416 306.938 400.716 295.764 408.205 285.458C413.98 277.547 425.036 268.509 445.037 270.387C483.865 274.049 489.734 304.661 492.88 321.117C493.655 325.132 494.429 329.263 495.368 331.376C500.415 342.879 514.759 347.057 529.971 351.471C547.319 356.518 566.968 362.222 572.226 381.683C576.147 396.238 572.719 411.074 562.813 422.413C551.85 434.949 534.666 441.029 516.825 438.681C511.284 437.954 507.364 432.836 508.092 427.296C508.444 424.62 509.829 422.225 511.965 420.582C514.125 418.939 516.778 418.211 519.454 418.563C530.534 420.018 541.028 416.474 547.53 409.056C552.977 402.811 554.784 394.97 552.624 386.989C550.488 379.101 540.511 375.674 524.29 370.955C507.082 365.955 485.65 359.734 476.776 339.545C474.921 335.343 473.959 330.296 472.949 324.944C469.24 305.553 465.602 291.75 443.558 289.684C421.046 287.548 410.083 316.164 417.29 343.231C417.29 343.325 417.008 357.88 416.937 361.729C411.374 357.903 402.641 347.926 400.458 336.658H400.481Z" fill="#5186C5"/>
<path d="M516.331 363.326C486.189 356.635 477.01 333.982 474.663 317.549C469.123 278.838 440.694 280.951 428.018 294.027C432.267 290.764 437.502 289.097 443.558 289.684C465.601 291.773 469.24 305.553 472.949 324.944C473.959 330.296 474.945 335.343 476.776 339.545C485.626 359.734 507.059 365.955 524.29 370.955C537.318 374.735 546.309 377.693 550.441 382.81C543.821 372.857 527.881 365.908 516.331 363.349V363.326Z" fill="#4674AC"/>
<path d="M416.961 361.73C417.031 357.88 417.313 343.325 417.313 343.231C414.942 334.311 414.543 325.226 415.881 317.127C408.745 329.099 402.453 329.804 398.932 326.141C399.307 329.804 399.871 333.348 400.505 336.658C402.664 347.926 411.397 357.88 416.984 361.73H416.961Z" fill="#4674AC"/>
<path d="M301.345 531.033C271.579 545.048 262.142 585.942 295.101 615.826C300.289 620.521 308.317 620.122 313.013 614.934C317.708 609.746 317.308 601.717 312.12 597.022C304.468 590.074 300.688 580.637 302.003 571.716C303.106 564.392 307.402 558.617 314.116 555.471C320.313 552.56 328.858 557.701 342.192 566.528C357.615 576.716 376.771 589.393 399.002 582.749C403.697 581.341 408.533 579.158 413.134 576.012C430.647 563.993 440.694 561.598 455.601 576.129C462.409 582.773 462.479 587.843 461.939 591.083C460.179 601.647 445.483 615.873 441.375 617.821C426.515 628.972 419.003 635.522 418.839 637.376C418.745 638.503 419.191 639.489 420.13 640.24C425.13 644.254 446.211 640.381 450.836 638.949C457.526 636.883 480.907 620.709 486.33 598.22C488.795 588.055 488.513 572.843 473.301 557.983C444.004 529.414 415.811 545.377 400.646 553.945C397.124 555.941 393.65 557.889 391.748 558.452C380.856 561.692 368.86 553.781 356.183 545.4C340.549 535.048 320.853 521.855 301.322 531.033H301.345Z" fill="#0E141B"/>
<path d="M296.815 613.924C283.481 601.858 277.002 584.815 279.466 568.336C281.697 553.452 290.782 541.222 304.421 534.813C322.661 526.244 339.727 537.513 354.775 547.466C367.992 556.199 380.457 564.439 392.5 560.87C394.659 560.213 398.275 558.194 401.749 556.222C416.491 547.889 443.629 532.536 471.541 559.767C485.908 573.782 486.189 588.078 483.889 597.586C478.701 619.113 456.446 634.536 450.108 636.508C443.887 638.433 425.248 641.062 421.726 638.245C421.374 637.963 421.374 637.752 421.374 637.564C422.079 636.109 432.783 627.423 442.69 619.958C447.127 617.868 462.479 603.243 464.451 591.482C465.085 587.679 465.038 581.74 457.385 574.298C438.23 555.612 431.75 562.561 411.89 573.782C407.172 576.458 402.711 578.993 398.275 580.308C377.17 586.599 358.555 574.298 343.601 564.415C329.516 555.096 319.515 549.062 312.121 552.56C304.608 556.082 299.82 562.537 298.599 570.73C297.143 580.472 302.12 591.388 310.43 598.9C314.562 602.656 314.891 609.089 311.135 613.22C307.379 617.352 300.946 617.681 296.815 613.924Z" fill="#5186C5"/>
<path d="M343.601 564.438C358.555 574.321 377.17 586.622 398.275 580.331C402.688 579.016 407.172 576.481 411.89 573.804C431.75 562.583 438.229 555.635 457.385 574.321C465.038 581.786 465.085 587.702 464.451 591.505C462.503 603.266 447.15 617.891 442.69 619.98C432.783 627.422 422.079 636.131 421.374 637.587C421.374 637.774 421.374 637.986 421.726 638.267C425.248 641.084 443.887 638.455 450.108 636.53C456.446 634.582 478.701 619.135 483.889 597.608C486.189 588.101 485.908 573.804 471.541 559.79C443.605 532.535 416.491 547.888 401.749 556.245C398.275 558.217 394.659 560.259 392.5 560.893C380.457 564.485 368.015 556.245 354.775 547.489C352.827 546.198 350.855 544.906 348.836 543.615C346.254 544.437 343.929 545.47 342.028 546.667C335.572 550.775 320.313 546.667 309.75 553.71V553.85C310.524 553.381 311.299 552.958 312.121 552.559C319.515 549.085 329.492 555.095 343.601 564.414V564.438Z" fill="#4674AC"/>
<path d="M278.997 576.949C279.466 590.588 285.805 603.946 296.815 613.946C300.664 617.421 306.439 617.374 310.242 614.04C289.514 599.838 280.851 583.898 278.997 576.949Z" fill="#4674AC"/>
<path d="M445.108 518.472C425.999 523.426 415.177 535.093 405.857 546.596C397.782 556.573 391.115 566.503 379.354 569.648C369.259 572.348 360.104 570.541 356.137 565.493C351.653 559.812 355.972 549.788 358.954 544.295C360.573 541.314 359.869 538.004 358.907 534.764C357.944 531.525 355.784 528.848 352.803 527.229C349.822 525.609 346.394 525.257 343.155 526.219C339.915 527.182 336.042 529.647 334.422 532.628C320.548 558.146 328.342 575.165 334.14 582.513C344.587 595.776 365.55 599.603 385.927 594.133C405.646 588.851 416.797 576.879 426.281 565.212C434.121 555.54 440.46 545.868 451.493 543.028C467.409 538.896 492.105 559.249 485.955 576.996C483.654 583.593 487.175 590.823 493.772 593.124C500.368 595.424 507.622 591.903 509.899 585.306C526.543 537.323 481.119 509.153 445.108 518.496V518.472Z" fill="#0E141B"/>
<path d="M379.987 572.113C392.547 568.733 399.753 559.859 408.087 549.577C417.172 538.379 427.431 525.703 445.741 520.961C462.855 516.524 485.673 523.919 498.795 538.145C510.416 550.727 513.491 567.183 507.481 584.508C506.589 587.067 504.758 589.133 502.317 590.307C499.875 591.48 497.129 591.645 494.57 590.776C489.288 588.945 486.471 583.147 488.302 577.865C491.894 567.536 490.438 559.038 483.865 551.925C475.156 542.487 459.451 538.379 450.812 540.633C438.981 543.708 431.961 552.371 423.839 562.394C414.613 573.78 404.143 586.691 385.222 591.762C365.832 596.974 346.934 592.278 337.121 579.813C331.722 572.958 324.633 557.864 337.802 533.614C339.093 531.243 341.23 529.506 343.835 528.731C346.441 527.956 349.164 528.261 351.559 529.553C353.93 530.844 355.667 532.98 356.442 535.586C357.216 538.191 356.911 540.915 355.62 543.309C352.357 549.342 347.662 560.446 353.038 567.277C357.615 573.076 368.93 575.142 379.964 572.184L379.987 572.113Z" fill="#4674AC"/>
<path d="M353.061 567.207C347.686 560.376 352.381 549.272 355.644 543.239C356.935 540.868 357.216 538.121 356.465 535.516C355.691 532.91 353.953 530.774 351.582 529.483C349.211 528.191 346.465 527.91 343.859 528.661C341.253 529.436 339.117 531.173 337.826 533.544C324.656 557.794 331.746 572.912 337.145 579.743C346.559 591.692 364.329 596.481 382.898 592.255C377.499 586.692 373.508 580.236 371.231 573.405C363.414 573.663 356.418 571.433 353.085 567.184L353.061 567.207Z" fill="#5186C5"/>
<path d="M382.875 592.257C377.476 586.693 373.485 580.237 371.208 573.406C363.602 573.664 356.817 571.551 353.366 567.514C358.437 576.927 356.371 586.247 353.578 591.13C362.193 594.158 372.405 594.628 382.875 592.257Z" fill="#4674AC"/>
<path d="M553.352 456.968C575.301 471.194 587.18 475.843 589.386 472.744C598.002 460.607 574.996 443.376 566.85 437.695C531.731 413.258 505.603 419.549 492.692 432.766C479.1 446.686 478.067 470.279 489.077 485.35L500.298 499.975C516.731 520.845 522.459 530.728 516.097 546.409C516.097 546.409 508.444 567.466 510.251 571.88C510.697 572.96 511.472 573.781 512.505 574.18C518.914 576.786 534.008 571.481 542.037 556.363C556.568 528.991 538.68 507.581 522.576 487.181L520.275 484.27L509.594 470.349C505.838 465.208 506.894 456.499 511.918 451.381C520.041 443.071 536.356 445.865 553.446 456.945L553.352 456.968Z" fill="#0E141B"/>
<path d="M554.784 454.879C536.426 443.423 518.89 439.573 509.876 448.799C504.054 454.762 503.021 465.795 507.458 471.899L518.163 485.867L520.487 488.801C536.098 508.544 552.249 528.967 538.492 554.86C531.238 568.499 518.773 574.04 513.374 571.856C512.974 571.692 512.716 571.41 512.528 570.941C512.317 570.424 512.223 569.791 512.223 569.063C512.223 564.344 516.05 555.612 518.256 550.611L519.641 547.372C521.379 543.052 522.224 539.179 522.224 535.446C522.224 524.436 514.97 514.6 502.246 498.449L491.072 483.848C486.659 477.791 484.499 470.373 484.499 462.884C484.499 452.978 488.255 442.907 495.509 435.465C501.566 429.291 524.454 411.333 565.395 439.785C582.156 451.452 592.039 463.26 586.945 470.584C586.382 471.406 571.193 465.114 554.807 454.879H554.784Z" fill="#4674AC"/>
<path d="M485.626 485.209C458.23 493.824 452.15 521.713 448.065 541.549C446.094 551.174 444.051 561.104 440.413 565.283C433.534 573.194 425.13 575.847 415.411 573.123C405.082 570.236 395.622 556.926 394.072 552.512C389.753 540.305 386.114 540.446 380.551 541.69L378.368 542.136C370.785 543.451 370.503 556.972 371.536 562.935C374.142 577.936 390.457 594.275 409.261 599.51C428.37 604.838 446.751 598.078 460.014 582.819C468.019 573.616 471.283 561.362 473.912 548.568C478.067 528.403 481.189 516.032 493.467 512.182C510.862 506.712 523.398 512.769 530.628 518.45C542.037 527.394 547.46 540.047 546.474 555.353C546.075 561.55 543.774 566.104 539.619 568.898C534.149 572.583 526.027 573.006 517.317 570.119C512.81 568.616 504.899 569.579 499.594 572.231C497.199 573.429 495.673 575.001 495.016 576.903C494.406 578.757 494.664 580.87 495.791 583.124C498.373 588.265 505.979 594.768 510.65 596.317C541.732 606.67 571.357 593.289 573.635 557.982C577.414 499.341 526.684 472.274 485.602 485.209H485.626Z" fill="#0E141B"/>
<path d="M442.76 567.888C446.845 563.193 448.934 552.934 450.976 543.004C454.92 523.778 460.32 497.462 486.307 489.293C507.27 482.696 527.787 486.1 544.126 498.917C561.38 512.439 571.193 534.952 569.714 557.653C568.869 570.893 562.859 581.902 552.835 588.64C541.45 596.293 526.05 597.725 510.58 592.56C506.472 591.199 500.321 586.527 498.068 581.996C497.246 580.353 497.035 578.898 497.434 577.7C497.856 576.456 498.96 575.376 500.72 574.484C505.392 572.16 513.045 571.996 516.989 573.31C526.449 576.456 535.393 575.916 541.497 571.808C546.333 568.568 549.009 563.357 549.455 556.338C550.488 540.234 543.657 524.341 531.59 514.881C523.89 508.824 510.815 502.838 492.387 508.636C478.795 512.909 475.179 526.008 470.836 547.065C468.278 559.577 465.625 572.489 458.042 581.175C445.436 595.659 427.83 601.082 409.707 596.035C391.795 591.034 376.442 576.644 373.978 562.512C372.945 556.573 373.649 545.516 378.743 544.647L381.067 544.178C385.598 543.168 387.851 542.652 391.631 553.357C393.133 557.653 403.439 573.24 415.13 576.503C425.858 579.484 435.131 576.597 442.713 567.888H442.76Z" fill="#5186C5"/>
<path d="M510.58 592.56C526.05 597.725 541.45 596.293 552.836 588.64C561.991 582.49 567.719 572.771 569.315 561.08C556.85 593.687 520.205 592.443 497.434 580.306C497.575 580.846 497.763 581.41 498.068 582.02C500.322 586.551 506.472 591.222 510.58 592.584V592.56Z" fill="#4674AC"/>
<path d="M448.723 553.334C447.22 559.437 445.413 564.836 442.76 567.865C435.178 576.574 425.905 579.485 415.177 576.48C403.463 573.217 393.18 557.629 391.678 553.334C388.227 543.568 386.02 543.122 382.241 543.896C379.189 546.244 376.443 548.967 374.048 551.995C373.438 555.54 373.508 559.625 374.001 562.489C376.466 576.597 391.819 591.011 409.73 596.012C427.736 601.035 445.249 595.706 457.831 581.433C457.831 581.293 457.831 581.175 457.831 581.034C457.831 570.658 454.427 561.08 448.723 553.31V553.334Z" fill="#4674AC"/>
<path d="M372.828 332.338C363.015 337.62 378.274 364.898 354.446 376.8C344.751 381.636 339.798 383.937 325.314 371.8C315.149 364.147 303.458 363.56 298.998 368.772C294.162 374.429 303.059 388.397 308.106 392.787L308.599 393.233C332.567 414.22 356.724 406.356 368.414 399.337C395.951 382.81 401.561 349.898 389.871 334.615C385.833 329.333 378.931 329.052 372.804 332.338H372.828Z" fill="#0E141B"/>
<path d="M374.283 334.428C378.884 331.33 384.682 331.987 387.875 336.165C392.101 341.682 393.462 350.485 391.584 360.321C388.744 375.252 379.494 388.398 366.184 396.379C355.057 403.046 333.013 411.263 310.266 391.332L309.749 390.886C305.031 386.778 297.66 374.219 300.899 370.439C304.397 366.355 313.341 368.209 322.191 374.876C322.191 374.876 340.432 387.811 355.737 379.008C381.185 364.336 367.545 338.959 374.259 334.452L374.283 334.428Z" fill="#4674AC"/>
<path d="M305.946 590.753C301.533 595.26 297.754 608.688 304.327 617.796C305.148 618.923 306.228 619.557 307.449 619.651C310.829 619.909 314.609 616.059 318.247 612.327C318.247 612.327 321.323 609.322 321.557 609.11C321.91 608.97 323.858 608.148 323.858 608.148C326.182 606.739 342.38 607.092 353.46 620.754C363.484 633.126 359.846 642.469 354.939 649.981L353.883 651.671C347.732 662.798 347.052 673.973 352.873 677.611C370.621 688.691 404.801 638.595 374.33 604.415C353.859 581.457 321.064 575.33 305.923 590.753H305.946Z" fill="#0E141B"/>
<path d="M307.66 617.116C307.355 617.116 306.885 616.975 306.392 616.294C300.641 608.36 304.679 597.327 308.529 593.383C313.412 588.406 321.933 585.847 331.934 586.317C347.122 587.021 361.418 594.345 371.208 606.364C379.377 616.435 390.622 637.117 374.072 662.423L373.719 662.987C370.316 668.245 358.907 677.307 354.705 674.63C352.662 673.339 351.653 670.781 351.653 667.447C351.653 663.409 353.155 658.245 356.09 652.916L357.099 651.296C359.846 647.094 362.381 642.023 362.381 636.108C362.381 631.084 360.55 625.426 355.432 619.135C343.765 604.745 326.346 603.641 322.708 605.871C322.896 605.778 320.36 606.834 320.36 606.834L320.126 606.928L316.416 610.52C313.623 613.36 309.82 617.257 307.613 617.093L307.66 617.116Z" fill="#5186C5"/>
<path d="M362.686 645.755C372.921 625.027 346.606 598.664 329.117 598.664C317.966 598.664 309.163 606.294 309.163 615.684L309.773 616.411C311.862 615.191 314.421 612.608 316.44 610.543L320.149 606.951L320.384 606.857C320.384 606.857 322.896 605.801 322.731 605.894C326.37 603.641 343.789 604.768 355.456 619.158C360.573 625.449 362.404 631.107 362.404 636.131C362.404 642.07 359.869 647.117 357.123 651.319C357.123 651.319 356.184 652.821 356.137 652.915C358.578 651.718 360.879 649.511 362.733 645.755H362.686Z" fill="#4674AC"/>
<path d="M278.645 361.283C284.349 373.654 288.316 385.932 280.992 395.322C275.053 402.928 284.842 406.755 287.471 407.506C293.88 409.36 306.345 398.703 307.942 393.139C312.425 377.622 308.411 364.898 304.467 354.24C299.42 340.601 296.228 332.784 305.336 321.375C322.449 300.013 378.203 339.85 378.203 339.85C398.932 356.94 407.618 358.818 408.768 351.494C410.082 343.207 396.608 323.652 387.452 317.103C304.585 257.804 258.174 306.093 278.621 361.283H278.645Z" fill="#0E141B"/>
<path d="M384.706 319.85C393.791 326.094 407.313 344.569 406.28 351.096C406.115 352.082 405.646 352.621 404.73 352.903C401.279 353.936 387.054 342.198 380.973 337.198L375.222 332.597C374.682 332.221 321.323 295.741 302.472 319.263C292.049 332.292 295.218 340.86 300.007 353.795C303.834 364.124 308.576 376.965 304.327 391.661C302.918 396.497 292.66 406.38 288.176 405.065C286.274 404.525 284.889 403.258 284.138 401.426C282.73 397.976 297.12 386.496 285.03 364.242L283.363 359.946C278.058 345.649 271.461 327.855 289.091 307.572C316.064 276.515 369.071 309.122 384.683 319.85H384.706Z" fill="#5186C5"/>
<path d="M302.496 319.263C321.323 295.74 374.706 332.221 375.245 332.596L380.997 337.198C383.133 338.958 386.279 341.541 389.612 344.123C354 310.506 321.534 301.421 303.904 310.53C289.044 318.206 291.415 336.047 299.82 353.208C295.148 340.578 292.237 332.08 302.496 319.263Z" fill="#4674AC"/>
<path d="M562.108 445.794C575.536 450.724 581.288 454.221 582.086 469.058C583.283 491.242 538.422 500.139 522.013 503.989C486.612 512.299 480.203 531.314 481.706 537.042C482.715 540.892 506.918 533.098 524.548 528.239C586.17 511.219 609.293 499.435 608.237 467.79C607.298 439.69 587.321 431.169 572.907 424.267L572.461 424.056L567.836 421.967C560.559 418.75 553.681 415.722 552.296 408.985C551.404 404.642 551.943 400.205 552.436 396.308C553.258 389.688 554.009 383.444 546.497 381.706C543.492 381.026 538.938 383.326 535.44 387.317C523.351 401.097 522.224 431.145 562.132 445.817L562.108 445.794Z" fill="#0E141B"/>
<path d="M539.619 520.023C518.562 525.446 487.434 535.634 485.485 534.624L485.321 534.483C486.025 521.22 504.148 511.971 523.092 507.51L524.759 507.111C541.732 503.144 587.274 493.214 585.959 468.917C585.091 452.578 576.569 448.494 563.705 442.32L560.254 440.7C550.793 436.334 539.032 430.911 534.337 418.234C528.234 401.825 534.407 392.247 537.342 388.914C540.769 385.017 544.431 383.772 545.934 384.101C551.005 385.275 550.817 388.773 549.925 395.933C549.432 400.041 548.845 404.689 549.831 409.431C551.474 417.436 559.291 420.887 566.827 424.22L571.381 426.286L571.827 426.497C585.63 433.117 602.791 441.334 603.683 467.884C604.81 501.595 567.954 512.652 539.619 519.976V520.023Z" fill="#5186C5"/>
<path d="M550.16 393.914C550.77 388.162 550.488 385.204 545.934 384.148C544.432 383.796 540.769 385.063 537.342 388.96C535.887 390.627 533.61 393.843 532.459 398.656C535.488 393.045 545.793 390.674 550.16 393.914Z" fill="#4674AC"/>
<path d="M560.254 440.724L563.705 442.344C576.569 448.518 585.091 452.579 585.959 468.941C585.959 440.771 548.634 433.118 535.84 421.615C541.239 431.921 551.685 436.78 560.254 440.724Z" fill="#4674AC"/>
<path d="M485.485 534.625C487.434 535.634 518.585 525.469 539.619 520.023C563.376 513.896 593.119 505.116 601.429 482.557C591.546 497.37 577.367 504.177 547.436 513.567C530.44 518.896 503.42 524.014 485.344 534.179C485.344 534.273 485.297 534.366 485.297 534.484L485.462 534.625H485.485Z" fill="#4674AC"/>
<path d="M244.347 443.565L245.286 445.231C248.338 450.748 255.287 452.744 260.803 449.692C266.297 446.64 268.316 439.691 265.264 434.198L264.325 432.508C250.169 406.99 236.342 375.956 255.146 362.505C267.236 353.866 274.325 358.608 287.237 364.829C296.368 369.219 309.045 374.125 325.971 372.904C338.953 371.965 349.962 361.847 350.455 355.18C350.643 352.739 349.868 350.931 348.554 349.476C343.812 344.241 324.468 349.1 322.097 349.124C313.623 349.194 305.101 346.283 296.275 341.048C248.455 312.714 187.115 359.594 244.371 443.541L244.347 443.565Z" fill="#0E141B"/>
<path d="M247.493 444.034L246.578 442.367C235.873 423.047 207.444 371.73 243.338 346.048C265.194 330.414 282.283 338.653 296.016 345.273C305.641 349.898 313.177 351.776 322.074 351.706C324.609 351.706 327.638 351.26 330.83 350.814C337.075 349.922 344.164 348.936 346.793 351.377C347.662 352.175 348.014 353.372 347.897 355.039C347.545 360.086 338.084 368.209 325.76 369.101C309.421 370.275 297.167 365.533 288.317 361.26C275.452 355.063 266.978 350.978 253.667 360.485C233.244 375.11 247.446 407.318 262.095 433.775L263.034 435.465C265.405 439.738 263.832 445.137 259.559 447.508C255.263 449.879 249.864 448.306 247.493 444.034Z" fill="#5186C5"/>
<path d="M253.667 360.462C266.978 350.931 275.476 355.04 288.317 361.237C297.167 365.51 309.421 370.252 325.76 369.078C332.168 368.608 337.779 366.19 341.77 363.256C328.483 365.65 310.923 365.416 302.12 361.566C292.73 357.458 278.645 348.654 270.429 348.654C262.87 348.654 246.953 361.049 244.395 373.984C245.756 368.655 248.667 364.031 253.644 360.462H253.667Z" fill="#4674AC"/>
<path d="M229.699 405.041C234.371 420.3 242.047 434.197 246.578 442.367L247.493 444.033C249.864 448.329 255.287 449.879 259.559 447.508C263.832 445.137 265.405 439.737 263.034 435.465L262.095 433.775C257.728 425.91 253.432 417.53 250.052 409.243C250.263 416.239 236.648 416.896 229.699 405.041Z" fill="#4674AC"/>
<path d="M352.662 340.507C352.662 349.569 346.089 381.612 309.186 386.213C225.802 396.613 233.197 476.006 268.879 477.931L270.006 477.978L270.17 476.851C271.18 470.349 271.015 461.898 270.898 455.113C270.827 450.935 270.757 447.319 270.968 444.995C272.236 430.511 281.438 420.323 318.952 412.811C355.972 405.416 375.057 382.598 375.057 340.601C375.057 334.497 369.963 317.83 362.263 317.83C354.564 317.83 352.639 335.037 352.639 340.484L352.662 340.507Z" fill="#0E141B"/>
<path d="M313.834 389.454C352.709 384.947 355.197 350.039 355.197 340.508C355.197 334.264 357.334 322.01 362.287 322.01C367.592 322.01 372.546 334.804 372.546 340.626C372.546 377.341 352.592 402.389 317.825 409.361C278.762 417.178 271.133 429.08 270.992 445.02C270.992 446.288 271.438 448.706 271.438 450.49C271.438 452.274 271.156 471.946 270.663 475.82C240.732 473.355 235.544 398.539 313.858 389.478L313.834 389.454Z" fill="#5186C5"/>
<path d="M270.968 444.996C271.109 429.056 278.739 417.154 317.801 409.337C334.14 406.074 347.145 398.773 356.395 388.186C330.971 408.069 253.479 396.191 268.269 452.32C269.208 455.888 270.194 458.893 271.203 461.475C271.32 456.17 271.391 451.287 271.391 450.465C271.391 448.658 270.945 446.24 270.945 444.996H270.968Z" fill="#4674AC"/>
<path d="M400.716 669.983C398.228 684.913 399.542 695.665 408.346 697.261C413.698 698.247 423.675 687.942 426.234 672.612C435.905 614.816 416.092 600.05 400.247 587.233C383.344 573.547 383.72 556.715 394.847 551.997C406.679 546.973 424.097 552.208 438.276 570.777C442.525 576.34 451.493 577.655 457.057 573.406C459.756 571.364 461.893 567.655 462.339 564.321C462.785 560.964 461.165 555.87 459.122 553.17C436.093 522.958 403.533 519.413 383.344 528.005C354.235 540.376 345.103 576.458 383.415 607.469C396.866 618.361 407.876 627.211 400.716 669.96V669.983Z" fill="#0E141B"/>
<path d="M408.439 693.904C403.416 692.988 402.688 683.364 405.059 668.292C411.726 625.873 399.754 616.177 385.927 604.98C376.724 597.538 365.268 588.265 362.428 569.626C359.775 552.278 368.156 537.23 384.354 530.352C403.674 522.159 434.591 526.572 456.798 555.705C458.442 557.865 459.146 560.518 458.794 563.217C458.442 565.893 457.057 568.288 454.897 569.931C450.46 573.335 444.075 572.466 440.694 568.03C425.741 548.428 405.035 543.639 392.312 549.038C384.753 552.254 381.255 558.475 382.499 566.574C384.166 577.467 390.27 582.42 398.721 589.228C414.026 601.623 431.375 615.637 421.938 671.978C419.848 684.467 412.242 694.608 408.486 693.927L408.439 693.904Z" fill="#5186C5"/>
<path d="M402.289 541.949C381.936 541.949 373.719 564.063 386.631 577.561C384.565 574.533 383.11 571.059 382.429 566.551C381.185 558.452 384.682 552.231 392.241 549.015C404.965 543.616 425.67 548.381 440.624 568.007C443.464 571.739 448.418 572.913 452.573 571.176C438.37 554.696 419.989 541.949 402.265 541.949H402.289Z" fill="#4674AC"/>
<path d="M420.67 633.196C420.67 675.733 447.08 709.585 477.644 709.585C508.209 709.585 534.149 676.813 534.149 634.276C534.149 591.739 508.209 556.057 477.644 556.057C447.08 556.057 420.67 590.659 420.67 633.196Z" fill="#0E141B"/>
<path d="M427.666 633.924C427.666 594.392 450.084 562.23 477.644 562.23C505.204 562.23 527.623 594.392 527.623 633.924C527.623 673.456 505.204 705.617 477.644 705.617C450.084 705.617 427.666 673.456 427.666 633.924Z" fill="#CA4851"/>
<path d="M488.56 584.579C502.739 584.579 515.533 594.227 524.689 609.768C517.764 582.091 499.289 562.23 477.621 562.23C450.061 562.23 427.642 594.392 427.642 633.924C427.642 650.732 431.703 666.202 438.488 678.433C438.229 674.982 438.065 671.484 438.065 667.916C438.065 621.881 460.672 584.579 488.537 584.579H488.56Z" fill="#EA545E"/>
<path d="M306.04 617.843C290.547 609.416 268.316 600.049 248.456 603.688C234.324 606.293 221.506 615.308 216.788 628.266C209.182 649.065 218.173 678.644 239.723 704.889C273.668 746.206 322.285 746.206 335.971 710.758L343.413 689.584C352.498 665.803 359.447 649.816 362.686 645.732C362.874 645.497 363.015 645.239 363.109 644.957C365.245 638.525 362.24 629.276 357.099 622.045C344.962 604.885 325.384 603.711 320.642 605.495C315.9 607.279 307.543 616.975 306.04 617.843Z" fill="#0E141B"/>
<path d="M354.446 624.417C347.192 614.792 333.131 607.538 323.06 609.322C318.318 610.801 315.055 616.717 311.51 619.98C314.773 622.632 318.529 630.121 306.181 622.046C292.049 612.82 267.776 605.519 248.761 609.017C239.723 610.684 231.342 615.519 226.248 622.539C249.911 598.664 318.787 642.14 334.516 702.824L338.46 690.57C348.085 665.334 354.54 648.502 358.343 643.173C358.766 641.859 359.423 630.99 354.47 624.417H354.446Z" fill="#EA545E"/>
<path d="M338.436 690.57C348.061 665.334 354.517 648.502 358.32 643.173C358.742 641.858 359.4 630.989 354.446 624.416C347.193 614.791 333.131 607.538 323.06 609.322C322.004 609.65 321.018 610.237 320.079 610.918C333.906 613.688 350.972 630.919 348.272 643.83C345.338 657.915 335.361 666.719 334.187 671.414C333.131 675.616 333.624 686.743 332.215 695.358C333.06 697.8 333.835 700.288 334.492 702.824L338.436 690.57Z" fill="#CA4851"/>
<path d="M266.156 625.708C301.463 642 335.948 694.843 330.947 710.102C327.262 721.393 318.13 729.163 305.946 731.464C285.945 735.22 263.01 724.069 244.582 701.627C229.088 682.753 220.708 662.916 220.708 646.108C220.708 641.507 221.365 637.164 222.633 633.103C232.164 620.567 248.784 617.703 266.156 625.708Z" fill="#CA4851"/>
<path d="M300.383 652.093C290.077 641.013 278.175 631.247 266.18 625.707C248.808 617.679 232.187 620.543 222.656 633.102C221.389 637.163 220.731 641.529 220.731 646.107C220.731 659.887 226.366 675.686 236.929 691.32C208.383 625.496 255.757 615.683 300.406 652.093H300.383Z" fill="#EA545E"/>
<path d="M285.147 528.708C274.419 510.562 268.316 489.715 268.316 467.531C268.316 455.395 270.147 443.657 273.551 432.53L281.931 424.924C276.602 438.187 273.668 452.531 273.668 467.508C273.668 489.95 280.218 510.984 291.627 529.013L285.124 528.684L285.147 528.708Z" fill="#0E141B"/>
</g>
<defs>
<clipPath id="clip0_42_68758">
<rect width="520" height="512.652" fill="white" transform="translate(140 224)"/>
</clipPath>
</defs>
</svg>
