<svg width="800" height="800" viewBox="0 0 800 800" fill="none" xmlns="http://www.w3.org/2000/svg">
<g clip-path="url(#clip0_42_68916)">
<path d="M749.304 220.337C746.826 212.36 741.508 206.727 737.091 203.272C737.873 200.192 738.143 196.888 737.602 193.463C736.085 183.728 724.849 176.338 713.943 175.677C712.335 175.572 710.638 175.782 708.985 176.202C697.268 174.43 683.613 179.447 677.53 184.63C677.53 184.63 664.806 180.273 653.464 185.141C637.827 191.84 631.217 220.021 622.294 234.533C608.339 257.201 598.695 274.145 598.695 274.145C598.695 274.145 588.074 275.362 575.936 276.474C576.387 274.566 576.387 272.733 575.501 271.351C572.902 267.265 527.896 258.643 508.668 266.379C506.115 267.4 513.971 257.201 511.868 252.048C510.486 248.638 510.816 249.104 506.49 244.041C536.023 229.771 578.746 210.603 578.205 206.937C576.853 197.684 518.297 189.106 487.262 190.518C480.923 177.795 450.549 146.579 415.127 142.704C371.894 137.972 347.649 150.485 330.569 165.357C316.508 158.236 244.463 159.678 242.796 164.936C239.836 174.295 287.876 213.307 304.385 226.586C305.137 229.846 305.497 232.054 306.504 234.352C306.894 235.239 302.643 245.138 302.643 245.138C292.368 243.696 264.833 243.17 262.655 244.853C261.949 245.393 256.811 251.012 256.811 251.012C251.118 249.449 238.409 246.295 233.662 243.531C215.681 221.629 177.06 178.771 152.784 165.672C144.823 161.376 126.541 147.886 109.266 147.901C99.1862 147.901 88.5356 150.29 81.0547 155.698C71.7411 158.432 64.7109 171.936 63.1035 178.02C62.8332 179.042 62.1872 180.303 61.361 181.655C53.8951 184.945 47.5409 189.752 44.3863 201.214C39.9247 208.485 40.2552 243.29 53.6848 250.621C58.5669 253.28 56.7343 239.79 59.303 239.67C64.5306 249.029 86.6579 263.72 91.6001 265.808C96.5423 267.896 168.993 328.915 189.468 336.231C203.153 341.128 250.998 355.113 277.301 370.946C263.165 400.044 250.832 442.736 247.032 464.022C240.047 466.936 233.707 477.016 231.214 486.074C214.104 497.626 179.854 523.734 167.19 558.33C163.69 560.298 149.96 568.169 148.413 571.399C146.625 575.094 148.954 613.025 153.115 623.705C155.383 629.519 167.055 636.354 172.087 636.293C173.139 639.493 174.221 642.543 175.302 645.397C175.302 645.397 156.825 655.431 156.825 660.133C156.825 663.648 174.01 667.599 182.603 669.342C179.058 673.202 174.987 699.611 182.558 703.697C189.753 707.587 232.551 688.87 236.126 680.383C236.276 680.413 245.424 680.924 249.781 680.924C257.307 687.909 281.612 698.018 286.149 696.261C290.115 694.729 285.217 672.241 285.232 668.951L290.385 660.734C333.182 694.113 370.993 706.16 421.752 704.087C437.029 703.456 450.173 701.954 461.59 699.671C462.791 701.744 463.948 703.351 464.94 704.268C466.006 705.244 467.764 705.665 469.912 705.71C476.281 719.996 479.601 723.105 485.264 730.045C485.324 730.12 466.772 749.709 470.047 755.432C472.06 758.947 503.155 757.22 507.151 751.061C509.329 752.788 512.709 754.02 516.194 755.222C519.139 762.628 547.815 780.128 558.917 777.875C567.028 776.223 582.155 755.688 582.621 746.479C583.643 746.524 586.016 742.634 586.016 742.634C588.66 745.022 613.611 744.286 614.738 741.447C616.21 737.736 599.521 722.369 599.521 722.369C601.729 717.442 607.287 704.328 610.847 685.956C616.39 684.499 621.453 678.31 623.631 667.434C624.562 662.792 629.174 628.407 627.417 625.493C626.59 624.126 624.577 622.533 622.655 621.196C655.853 591.964 682.066 557.699 694.73 520.91C709.616 477.662 708.91 406.218 697.148 420.173C687.474 431.635 668.847 451.96 646.284 470.226C643.265 464.488 637.541 455.835 632.704 456.992C626.019 458.584 619.981 487.501 619.981 487.501C620.191 487.892 620.612 487.922 620.461 488.568C620.311 489.229 610.652 494.577 605.154 497.281C602.315 487.922 595.675 475.003 588.84 475.018C586.211 475.018 579.722 483.716 576.853 488.703C575.606 490.881 575.17 486.645 576.087 484.542C579.572 476.46 585.295 463.301 585.746 461.213C587.398 453.552 585.611 437.974 583.057 434.549C578.16 427.97 564.234 418.536 562.357 417.289C561.185 413.338 559.953 409.583 558.706 406.053C560.794 402.703 565.361 394.951 567.855 387.561C603.577 375.108 643.971 374.462 660.089 363.09C682.246 347.437 715.655 297.024 715.655 297.024C715.655 297.024 734.433 271.922 744.047 255.353C752.264 251.642 758.197 244.101 758.212 235.809C758.212 229.095 753.555 223.897 749.379 220.322L749.304 220.337Z" fill="#BF794E"/>
<path d="M584.935 742.649C587.578 745.037 612.53 744.301 613.656 741.462C615.129 737.752 599.341 722.805 599.341 722.805C598.65 725.028 589.591 737.857 584.935 742.634V742.649Z" fill="#DCDDDD"/>
<path d="M515.128 755.223C514.317 748.313 540.425 741.478 549.017 740.666C567.629 738.909 580.007 743.22 581.555 746.48C584.679 754.291 566.232 776.719 558.902 777.876C546.028 779.889 517.171 760.33 515.143 755.223H515.128Z" fill="white"/>
<path d="M507.121 751.061C503.125 757.205 472.015 758.947 470.017 755.432C466.757 749.709 485.309 730.135 485.234 730.045C494.713 734.101 506.025 745.758 507.121 751.061Z" fill="white"/>
<path d="M249.766 680.924C250.127 667.69 278.413 660.269 285.203 668.951C285.203 668.951 290.085 694.729 286.119 696.261C281.582 698.019 257.277 687.909 249.751 680.924H249.766Z" fill="#DCDDDD"/>
<path d="M236.096 680.384C232.506 688.871 190.249 707.844 183.054 703.968C175.468 699.867 179.013 677.53 181.416 672.197C181.747 671.461 183.82 669.598 182.723 669.373C174.191 667.645 156.795 663.68 156.795 660.134C156.795 655.448 175.272 645.383 175.272 645.383L185.818 667.15C185.818 667.15 195.101 663.139 205.557 664.791C213.623 666.068 237.899 671.205 236.081 680.384H236.096Z" fill="white"/>
<path d="M487.262 190.504C480.923 177.78 450.549 146.565 415.127 142.689C373.516 138.138 349.496 149.554 332.522 163.675C307.81 184.24 300.48 202.521 304.836 228.96C306.203 237.267 318.1 253.671 320.834 261.497C324.89 273.109 326.978 294.726 328.12 297.385C329.247 300.044 337.584 305.827 348.189 307.254C358.795 308.681 371.548 308.967 374.177 306.608C374.177 306.608 405.919 277.586 410.936 272.869C415.938 268.137 437.389 249.435 449.362 245.499C449.362 245.499 454.214 218.985 458.691 209.221C458.691 209.221 466.382 189.678 487.277 190.519L487.262 190.504Z" fill="#595649"/>
<path d="M330.569 165.358C316.508 158.238 244.463 159.68 242.796 164.937C239.836 174.296 287.876 213.308 304.385 226.587C304.385 226.587 300.33 208.636 309.223 191.481C318.116 174.326 330.584 165.358 330.584 165.358H330.569Z" fill="#F1E890"/>
<path d="M487.262 190.504C518.297 189.107 576.853 197.669 578.205 206.923C578.745 210.603 535.212 230.147 506.49 244.027C506.49 244.027 464.504 264.321 456.602 262.158C456.602 262.158 449.527 260.972 450.158 239.971C450.158 239.971 455.01 204.7 468.965 196.107C476.867 191.24 481.373 190.384 487.262 190.504Z" fill="#F1E890"/>
<path d="M479.947 518.027C475.71 518.898 471.264 523.66 467.088 526.635C461.74 453.809 415.998 372.765 352.666 364.834C306.549 359.05 274.357 399.174 251.854 446.989L248.384 462.837C212.962 491.168 218.655 567.134 253.912 619.275C286.72 667.781 345.846 707.183 421.722 704.089C440.694 703.307 446.718 702.316 461.875 699.612C461.875 699.612 448.446 671.836 451.225 663.139C454.004 654.441 457.834 656.394 457.834 656.394C457.023 625.719 473.382 582.231 490.747 553.208C491.048 532.418 483.732 517.261 479.947 518.042V518.027Z" fill="#F1E890"/>
<path d="M82.0313 154.813C75.1813 156.42 65.2818 166.68 62.2925 178.006C61.256 181.957 60.8504 186.524 60.9705 191.12C59.3332 191.06 57.7258 191.03 57.2301 191.03C52.8136 191.03 47.6161 194.966 44.2962 200.84C40.8262 206.954 40.706 222.651 44.0408 235.09C46.6396 244.794 51.4166 251.073 54.1806 251.238C56.3288 251.373 56.6442 247.498 57.7859 240.738C58.2666 237.869 58.7323 235.165 59.4533 233.422C60.8954 229.967 62.9384 226.302 64.7561 223.072C66.1531 220.593 67.475 218.22 68.151 216.583C68.136 216.553 70.9751 217.063 71.5159 216.658C73.1984 215.351 75.8272 210.048 75.8272 210.048C78.426 204.85 83.9541 198.616 89.8126 192.022C97.0532 183.865 105.27 174.611 105.045 169.579C104.759 163.315 88.9564 153.19 82.0463 154.798L82.0313 154.813Z" fill="white"/>
<path d="M125.039 192.743C123.522 191.962 121.584 191.557 119.301 191.557C109.506 191.557 95.581 198.722 87.7846 205.647C82.542 210.304 79.8681 214.435 80.6041 216.763C81.2501 217.169 83.8338 217.289 85.5614 217.364C88.07 217.484 90.9242 217.605 93.4629 218.296C95.5509 218.866 98.1948 219.798 101.244 220.864C108.47 223.403 117.468 226.558 123.942 226.558C125.775 226.558 127.277 226.302 128.434 225.777C131.528 224.395 133.571 219.603 133.752 213.278C133.977 205.422 131.063 195.838 125.054 192.728L125.039 192.743Z" fill="white"/>
<path d="M651.918 212.617C648.237 208.967 664.025 188.462 677.785 186.764C686.002 185.758 698.41 210.259 695.346 232.566C694.835 236.262 687.519 226.557 674.721 221.21C662.102 215.937 654.351 215.021 651.918 212.617Z" fill="white"/>
<path d="M697.388 188.687C699.086 193.69 701.61 197.806 706.056 203.919C710.022 209.342 717.608 224.995 719.29 225.055C722.25 225.145 740.336 211.07 737.602 193.479C736.085 183.745 724.849 176.354 713.943 175.693C705.621 175.183 695.27 182.483 697.373 188.702L697.388 188.687Z" fill="white"/>
<path d="M744.332 217.709C746.766 216.372 758.498 227.083 758.423 237.328C758.303 253.897 726.696 263.676 726.651 257.592C726.606 251.974 729.791 246.807 732.224 237.193C734.838 226.933 741.884 219.061 744.332 217.709Z" fill="#DCDDDD"/>
<path d="M433.769 317.364L447.469 312.361C447.469 312.361 442.782 328.239 441.641 328.795C440.499 329.351 433.769 317.364 433.769 317.364Z" fill="white"/>
<path d="M298.873 297.82C298.873 297.82 301.652 313.158 303.139 313.413C304.626 313.668 306.489 306.443 306.489 306.443L298.873 297.82Z" fill="white"/>
<path d="M416.058 268.467C416.058 268.467 388.268 292.111 387.547 295.221C386.135 301.305 428.301 293.869 434.926 281.611C437.705 276.458 435.978 253.099 435.136 252.649C433.409 251.717 416.058 268.467 416.058 268.467Z" fill="white"/>
<path d="M435.136 252.649C433.409 251.717 416.058 268.467 416.058 268.467C416.058 268.467 388.403 292.156 387.547 295.221C387.081 296.888 392.219 297.895 396.335 297.249C404.477 288.536 422.773 270.51 435.857 260.731C435.737 256.239 435.437 252.814 435.136 252.649Z" fill="#DCDDDD"/>
<path d="M310.274 242.615C310.274 242.615 305.933 257.366 306.489 261.182C307.044 264.997 307.72 269.744 311.296 273.635C314.871 277.526 318.461 281.972 326.077 284.09C326.753 284.285 322.787 266.229 320.309 261.167C317.83 256.104 310.274 242.6 310.274 242.6V242.615Z" fill="white"/>
<path d="M308.396 249.585C312.377 255.684 320.099 267.837 325.056 277.436C323.824 271.818 321.796 264.202 320.324 261.182C317.845 256.12 310.289 242.615 310.289 242.615C310.289 242.615 309.358 245.8 308.411 249.585H308.396Z" fill="#DCDDDD"/>
<path d="M317.184 253.775C317.184 253.775 315.382 261.331 315.231 266.334C315.096 271.321 316.764 279.553 319.002 281.281C321.24 283.008 325.341 279.808 325.386 277.405C325.446 274.986 322.397 264.636 321.24 262.353C320.068 260.07 317.184 253.79 317.184 253.79V253.775Z" fill="#D93439"/>
<path d="M397.792 284.63C397.957 286.703 400.436 295.882 407.917 295.176C415.397 294.47 417.035 282.197 417.245 280.229C417.455 278.261 416.885 269.834 416.058 268.467C415.247 267.1 397.792 284.63 397.792 284.63Z" fill="#D93439"/>
<path d="M316.959 254.768C316.659 256.09 316.148 258.583 315.742 261.227C318.972 266.485 322.397 272.328 325.041 277.451C323.809 271.832 321.781 264.216 320.309 261.197C319.543 259.635 318.311 257.291 316.959 254.783V254.768Z" fill="#B7282E"/>
<path d="M401.112 292.277C405.573 287.71 411.266 282.122 417.215 276.624C417.05 273.439 416.614 269.383 416.058 268.467C416.058 268.467 405.964 277.104 397.792 284.63C397.882 285.862 398.813 289.603 401.112 292.277Z" fill="#B7282E"/>
<path d="M487.262 190.504C483.642 183.218 467.614 167.626 463.197 164.141C463.197 186.388 459.802 206.608 443.188 231.934C436.999 241.368 409.644 261.453 399.97 270.856C393.195 277.451 381.042 291.932 370.542 300.059C362.641 306.188 328.03 299.203 326.543 290.58C326.603 292.473 326.858 296.439 328.06 297.821C329.652 299.653 337.584 305.812 348.175 307.254C358.78 308.681 370.752 309.463 373.366 307.104C373.366 307.104 404.627 278.848 409.629 274.131C414.631 269.399 437.645 249.63 449.332 245.499C449.332 245.499 454.184 218.986 458.661 209.221C458.661 209.221 466.352 189.678 487.247 190.519L487.262 190.504Z" fill="#3F3A2E"/>
<path d="M450.158 239.985C450.158 239.985 449.753 257.636 454.965 261.241C460.178 264.846 497.207 248.833 519.74 237.461C519.74 237.461 576.943 210.963 578.22 206.922C551.151 218.293 453.208 259.168 450.158 239.97V239.985Z" fill="#CAC379"/>
<path d="M105.03 169.594C106.652 176.549 120.472 184.045 104.053 195.507C90.7891 201.245 78.2909 211.565 80.5892 216.778C81.1601 218.069 87.4843 218.024 91.7355 218.37C93.1626 218.49 105.42 222.306 108.154 223.237C103.558 227.473 106.923 242.255 109.942 245.59C110.318 246.01 109.822 246.776 109.296 246.596C96.1669 241.879 89.6174 230.673 89.6174 230.673C72.7929 247.347 85.216 262.144 77.9904 257.201C69.8486 251.643 60.6401 244.478 58.3718 239.16C58.8075 233.106 64.9214 222.741 68.1361 216.597C68.1361 216.597 68.5867 217.439 71.501 216.672C74.4152 215.906 74.941 210.258 77.9604 206.442C81.806 201.56 103.062 179.628 105.03 169.609V169.594Z" fill="#985E3B"/>
<path d="M62.5629 201.169C62.5629 201.169 51.9875 237.567 48.1569 239.235C44.3263 240.902 45.3177 239.235 45.3177 239.235C45.3177 239.235 50.4703 252.033 54.9318 251.252C59.3933 250.471 57.9962 240.497 58.7173 236.966C59.4383 233.436 68.136 216.612 68.136 216.612C68.136 216.612 69.9987 217.798 71.8164 216.416C73.634 215.034 76.1427 209.702 77.1792 207.974C80.469 202.551 102.476 180.724 104.639 170.705C104.699 170.404 104.369 170.119 104.174 170.374C95.7162 181.4 84.8704 185.847 76.1727 197.249C71.7863 203.002 70.5996 205.646 68.3163 205.766C65.8226 205.901 62.5479 201.199 62.5479 201.199L62.5629 201.169Z" fill="#DCDDDD"/>
<path d="M80.4689 214.254C82.602 215.215 89.0614 214.389 92.3963 214.78C95.626 215.155 127.427 222.591 133.061 216.627C133.241 216.432 133.466 216.252 133.376 216.898C132.97 220.097 130.792 225.445 127.217 226.196C117.798 228.194 101.064 220.803 91.7203 218.355C89.1966 217.694 77.9452 219.722 80.4539 214.254H80.4689Z" fill="#DCDDDD"/>
<path d="M189.468 336.231C207.014 332.971 280.741 351.613 285.864 357.757L276.896 371.788C276.896 371.788 253.867 358.178 235.075 351.839C225.13 348.489 189.468 336.231 189.468 336.231Z" fill="#985E3B"/>
<path d="M571.115 286.72C571.115 286.72 571.926 285.863 571.67 285.172C571.55 284.842 564.505 283.85 557.129 282.949C560.494 282.063 565.782 279.87 566.488 276.76C567.194 273.651 547.049 263.631 531.652 263.27C517.982 262.955 507.737 267.101 507.737 267.101C510.171 262.865 512.83 256.15 512.184 253.371C511.102 248.699 506.475 244.027 506.475 244.027C498.093 248.624 462.551 263.616 456.588 262.159C465.691 264.382 479.917 309.808 474.223 323.043C445.967 342.887 382.845 357.863 355.19 352.921C372.059 366.516 472.135 350.923 501.188 334.67C495.374 327.459 484.288 314.871 486.211 311.055C489.17 305.197 519.815 295.132 534.476 294.726C535.768 297.52 537.27 301.005 537.976 302.463C539.989 306.533 546.839 325.326 545.532 328.721C543.129 334.985 514.827 346.672 514.827 346.672C517.111 348.129 523.946 347.123 527.882 346.176C531.817 345.23 551.12 333.303 552.262 328.781C553.404 324.259 545.502 304.31 545.502 304.31C545.502 304.31 544.931 297.46 547.125 294.125C549.318 290.791 568.155 288.132 571.1 286.705L571.115 286.72Z" fill="#985E3B"/>
<path d="M576.177 276.444L583.372 275.768C581.314 276.414 571.82 288.762 571.73 286.388C571.64 284.015 576.177 276.459 576.177 276.459V276.444Z" fill="#985E3B"/>
<path d="M259.966 251.508C259.23 252.935 282.709 261.257 283.28 264.322C283.851 267.401 284.136 270.435 284.136 270.435C284.136 270.435 290.22 267.762 290.716 264.397C291.061 261.978 290.986 256.826 289.273 255.399C282.904 250.081 261.137 249.209 259.966 251.493V251.508Z" fill="#985E3B"/>
<path d="M284.422 321.735C283.535 322.396 308.216 315.651 308.216 314.119C308.216 312.587 306.233 309.297 306.233 309.297C306.233 309.297 304.055 313.383 303.229 313.428C302.403 313.473 301.817 309.808 301.817 309.808C296.95 314.059 287.711 320.128 284.437 321.735H284.422Z" fill="#985E3B"/>
<path d="M670.47 225.16C676.493 230.537 684.169 241.248 686.828 241.248C689.487 241.248 695.211 233.932 693.333 232.896C691.05 231.649 680.038 223.657 674.736 221.209C673.294 220.548 654.021 214.088 652.488 213.082C653.345 216.327 664.446 219.767 670.47 225.16Z" fill="#985E3B"/>
<path d="M232.596 574.944C232.596 574.944 223.372 586.466 215.501 603.846C206.082 624.621 211.084 665.195 211.084 665.195C219.557 666.247 236.201 672.526 236.096 680.383L249.766 680.833C249.766 680.833 249.06 672.706 263.03 667.404C277.001 662.101 284.331 668.335 285.188 668.846C286.029 669.371 290.535 661.981 290.355 660.719C290.355 660.719 272.629 643.684 261.813 630.104C250.998 616.524 236.171 588.554 232.596 574.944Z" fill="#985E3B"/>
<path d="M651.617 212.18C651.617 212.18 670.8 215.259 676.899 217.588C682.998 219.916 691.545 227.502 692.792 225.985C694.024 224.483 694.955 215.004 694.655 213.502C694.655 213.502 698.425 231.032 694.715 233.376C693.378 234.217 679.092 223.236 676.238 221.719C673.624 220.322 652.924 214.884 651.632 212.18H651.617Z" fill="#DCDDDD"/>
<path d="M699.732 194.154C717.428 223.026 717.278 223.191 719.29 225.054C720.703 226.361 732.435 216.581 736.055 206.532C739.675 196.482 737.046 189.572 734.493 186.237C731.939 182.902 724.683 178.471 724.683 178.471C728.814 185.005 729.52 208.094 724.323 211.955C719.501 215.545 699.732 194.154 699.732 194.154Z" fill="#DCDDDD"/>
<path d="M148.398 571.415C146.16 570.574 149.164 618.224 153.611 624.788C158.057 631.353 167.341 636.13 172.072 636.325C165.388 619.801 162.203 593.047 162.534 582.471C162.654 578.385 163.044 575.591 163.675 572.302C163.675 572.302 162.023 573.804 159.544 573.804C158.147 573.804 148.398 571.43 148.398 571.43V571.415Z" fill="#985E3B"/>
<path d="M208.516 665.286C208.516 665.286 216.943 669.222 216.207 675.952C215.471 682.682 187.876 703.442 183.669 703.427C194.711 703.457 206.863 700.122 218.776 692.972C219.962 692.266 238.244 684.019 236.186 678.521C234.789 674.78 220.548 666.098 208.516 665.271V665.286Z" fill="#DCDDDD"/>
<path d="M479.947 518.027C475.936 518.763 471.264 523.661 467.088 526.635C464.219 487.518 449.692 446.042 427.054 414.797C450.113 466.457 451.225 522.925 436.954 542.528C435.917 543.955 429.338 545.803 422.262 547.395C430.479 621.213 330.764 667.03 253.912 619.275C286.705 667.781 345.846 707.183 421.722 704.089C440.694 703.308 446.718 702.316 461.875 699.612C461.875 699.612 448.16 671.747 451.225 663.139C453.328 657.22 457.804 654.441 457.804 654.441C456.993 623.767 473.382 582.231 490.747 553.209C491.003 535.633 484.829 517.156 479.947 518.042V518.027Z" fill="#CAC379"/>
<path d="M591.739 542.513C591.739 542.513 615.684 578.656 617.096 618.569C617.096 618.569 618.283 617.427 620.446 619.32C622.609 621.213 627.176 623.872 627.371 625.494C628.648 636.851 624.021 674.721 618.839 679.994C615.234 683.659 610.802 685.957 610.802 685.957C611.373 688.451 601.489 717.774 599.34 723.212C597.313 728.319 582.937 747.427 582.576 746.481C581.585 743.882 570.724 740.412 560.899 740.562C567.118 738.023 583.012 701.625 583.868 692.597C583.868 692.597 575.501 687.354 573.082 681.976L582.531 683.584C582.531 683.584 577.634 648.988 578.73 649.048C586.377 649.409 602.63 644.617 606.236 643.055C607.918 642.319 597.207 636.776 597.207 636.776C602.45 621.754 603.712 567.795 591.739 542.498V542.513Z" fill="#985E3B"/>
<path d="M560.915 740.575C562.176 744.526 566.818 769.177 558.887 777.875C565.677 777.62 582.681 756.589 582.591 746.479C582.126 743.76 564.28 739.539 560.915 740.56V740.575Z" fill="#DCDDDD"/>
<path d="M469.882 705.695C470.843 705.515 471.895 710.878 473.052 710.878C485.174 710.878 494.713 700.979 495.825 698.831C495.825 698.831 491.138 671.866 490.762 673.083C490.086 675.276 487.578 679.587 484.904 679.963C485.97 684.319 491.874 699.191 488.674 701.369C484.183 704.434 469.386 705.786 469.867 705.711L469.882 705.695Z" fill="#985E3B"/>
<path d="M502.735 742.273C502.735 742.273 508.894 748.928 508.308 751.362C507.452 754.922 491.799 757.416 486.857 757.896C481.915 758.377 471.955 758.212 471.054 756.034C483.206 756.379 505.439 749.664 502.735 742.288V742.273Z" fill="#DCDDDD"/>
<path d="M435.121 542.513C422.818 546.764 379.811 548.912 379.781 547.906C379.705 544.165 379.405 539.854 379.405 539.854C379.405 539.854 387.712 539.659 393.751 535.723C399.79 531.787 410.861 520.746 410.936 513.115C411.026 505.499 406.084 504.447 406.084 504.447C406.084 504.447 409.344 512.649 401.067 521.557C392.79 530.45 387.397 531.502 383.912 532.538C380.427 533.56 370.362 532.403 370.362 532.403C370.362 532.403 374.192 549.077 373.306 553.314C387.231 553.899 423.284 547.966 435.106 542.513H435.121Z" fill="#CAC379"/>
<path d="M274.447 498.107C274.447 498.107 276.97 509.118 280.14 513.129C283.31 517.14 296.183 523.765 296.183 523.765L300.269 517.335C300.269 517.335 285.653 513.685 282.153 509.389C278.653 505.093 274.447 498.107 274.447 498.107Z" fill="#CAC379"/>
<path d="M387.487 465.885C387.727 470.406 381.192 478.969 381.238 480.171C381.583 490.761 375.875 502.809 372.345 507.015C372.345 507.015 361.799 499.324 359.576 499.759C359.576 499.759 372.074 487.006 373.336 476.25C375.8 476.911 383.671 471.398 387.502 465.885H387.487Z" fill="#CAC379"/>
<path d="M248.85 498.859C255.114 507.482 280.997 529.925 292.143 533.109L290.37 538.427C290.37 538.427 275.003 532.493 264.442 520.701C253.882 508.909 248.85 498.859 248.85 498.859Z" fill="#CAC379"/>
<path d="M156.795 660.134C159.544 662.673 184.286 663.95 184.286 663.95L185.833 667.134C185.833 667.134 185.517 669.838 182.873 669.388C174.777 668.006 158.207 664.671 156.795 660.119V660.134Z" fill="#DCDDDD"/>
<path d="M630.181 492.986C628.528 490.958 633.365 460.914 635.258 459.878C637.812 458.481 641.823 462.822 643.821 465.541C645.548 467.884 647.456 472.075 648.492 474.028C650.355 477.033 654.952 480.728 653.435 485.745C651.917 490.748 631.848 495.014 630.196 492.986H630.181Z" fill="#985E3B"/>
<path d="M612.155 493.495C610.622 494.442 608.024 495.809 606.641 496.515C605.845 496.92 604.869 496.515 604.583 495.674C601.519 486.51 595.24 475.018 588.78 475.033C586.317 475.033 579.106 482.559 575.877 489.469C575.832 488.703 575.786 488.012 575.696 487.457C577.093 482.439 584.469 468.424 585.731 460.973C587.008 453.522 585.04 439.041 583.493 435.421C581.585 430.959 566.413 419.347 563.664 418.236L559.353 404.851C562.537 400.239 566.218 392.818 568.08 387.456C573.068 383.55 645.128 373.771 659.984 363.09C690.314 341.263 740.892 260.085 743.942 255.368C743.942 255.368 729.641 261.557 727.252 258.763C724.864 255.984 732.916 234.758 732.916 234.758C735.244 226.781 742.079 218.594 744.302 217.708C746.526 216.822 749.635 220.067 749.635 220.067C747.682 210.588 737.062 203.287 737.062 203.287C736.476 206.382 733.712 211.294 731.579 214.554C729.446 217.813 721.634 226.691 719.261 225.054C716.902 223.416 709.902 208.064 707.258 206.517C706.582 206.126 714.349 226.541 714.949 229.005C716.512 235.344 725.885 229.095 726.621 231.964C729.701 244.057 714.394 269.323 706.267 277.255C692.897 290.294 658.257 352.62 649.604 353.897C602.646 360.852 535.873 382.303 530.871 408.066C530.586 409.568 537.015 414.285 543.249 426.588C550.249 440.408 561.906 478.143 565.542 501.442L569.537 508.307C569.537 508.307 594.143 545.216 598.004 554.334C598.004 554.334 618.359 593.691 616.992 620.19L621.528 621.031C622.324 621.182 622.79 621.046 623.121 620.746C656.064 591.618 682.066 557.534 694.655 520.94C700.919 502.734 704.434 479.51 705.501 459.771C705.591 458.194 698.651 503.124 672.513 514.301C648.267 524.666 621.032 488.027 612.109 493.51L612.155 493.495Z" fill="#985E3B"/>
<path d="M232.01 241.533C232.01 241.533 231.995 253.701 227.789 261.317C227.549 261.753 228.059 262.188 228.45 261.903C233.002 258.463 243.607 249.9 240.828 246.445C240.828 246.445 234.954 244.312 233.647 243.516C232.341 242.72 232.01 241.533 232.01 241.533Z" fill="#985E3B"/>
<path d="M393.195 500.916C389.319 506.46 379.12 510.065 375.95 508.983C372.765 507.902 363.061 500.15 359.606 499.745C363.962 494.923 372.375 484.227 372.69 479.255C373.772 462.145 367.973 445.951 349.196 440.904C330.419 435.872 313.354 447.153 308.246 464.533C305.888 472.585 306.774 482.214 309.839 490.657C309.793 490.657 298.181 492.504 294.711 488.794C291.241 485.068 285.939 467.958 274.702 474.959C264.833 479.075 272.569 498.152 281.102 508.322C285.818 513.94 299.969 517.486 299.969 517.486C294.336 525.387 291.377 535.527 290.025 538.892C299.053 546.508 357.623 554.079 373.276 553.869C374.027 551.15 372.465 537.645 370.377 532.417C374.282 533.063 384.137 534.085 390.777 529.759C401.277 522.894 406.85 516.735 406.85 508.082C406.85 499.429 397.071 495.373 393.195 500.916Z" fill="#B6AED2"/>
<path d="M372.795 476.04C372.931 460.252 366.787 445.62 349.196 440.903C331.17 436.066 314.691 446.341 308.922 462.46C308.907 462.505 310.485 466.576 311.296 468.108C311.296 468.108 317.41 465.299 320.129 471.698C322.848 478.083 321.616 490.656 321.616 490.656C321.616 490.656 324.83 496.725 330.013 498.422C335.196 500.12 342.286 496.259 342.286 496.259C342.286 496.259 345.741 484.647 351.87 480.952C359.591 476.31 365.314 482.499 365.314 482.499C366.997 483.34 372.795 476.31 372.795 476.04Z" fill="#505125"/>
<path d="M368.77 455.85C366.952 458.328 370.347 474.447 372.795 476.039C376.641 478.548 391.663 463.451 390.371 459.786C388.779 455.249 370.061 454.077 368.755 455.85H368.77Z" fill="#FFFCDB"/>
<path d="M324.44 444.178C324.44 444.178 308.547 435.721 305.708 437.313C302.868 438.905 308.006 458.749 309.463 461.048C310.92 463.346 324.44 444.178 324.44 444.178Z" fill="#FFFCDB"/>
<path d="M290.025 538.891C290.025 538.891 310.56 510.394 327.174 514.39C350.323 519.948 355.806 551.644 355.806 551.644C351.975 554.664 299.053 545.11 290.025 538.891Z" fill="#FFFCDB"/>
<path d="M346.222 494.561C347.153 498.286 353.612 497.024 357.969 494.11C362.325 491.196 363.692 486.028 362.671 483.595C361.649 481.161 356.467 478.788 353.402 480.41C347.979 483.279 345.29 490.835 346.222 494.561Z" fill="#0E141B"/>
<path d="M312.302 471.443C310.139 473.786 309.884 478.428 312.122 482.995C314.36 487.561 316.554 488.868 318.597 488.403C320.639 487.952 322.457 479.75 320.91 474.102C319.828 470.136 316.058 467.357 312.302 471.428V471.443Z" fill="#0E141B"/>
<path d="M284.151 468.965C283.791 468.529 279.434 470.978 278.157 473.486C278.007 472.194 277.752 471.203 277.466 471.008C276.58 470.437 269.91 476.926 270.646 480.156C271.383 483.386 274.732 483.806 276.851 481.553C277.782 480.562 278.278 476.971 278.278 476.971C279.014 478.429 281.688 478.038 283.145 477.647C284.602 477.272 284.512 469.385 284.151 468.965Z" fill="white"/>
<path d="M397.957 511.957C399.715 513.158 401.232 508.682 401.067 507.225C400.901 505.768 395.268 503.8 393.36 504.686C393.225 507.315 396.2 510.755 397.957 511.957Z" fill="white"/>
<path d="M396.185 497.867C396.65 496.155 402.629 498.183 403.38 499.925C404.131 501.668 402.238 505.528 400.601 505.513C398.964 505.513 396.2 497.867 396.2 497.867H396.185Z" fill="white"/>
<path d="M321.496 478.007C321.496 480.08 321.045 481.763 319.378 481.763C317.71 481.763 315.953 480.381 315.517 478.188C315.111 476.16 316.839 474.252 318.491 474.252C320.144 474.252 321.496 475.934 321.496 478.007Z" fill="white"/>
<path d="M355.986 486.916C355.52 488.929 352.876 489.815 351.134 489.59C349.556 489.38 348.58 487.622 349.496 485.669C350.368 483.791 351.765 482.214 353.507 482.439C355.25 482.665 356.467 484.903 356.001 486.916H355.986Z" fill="white"/>
<path d="M327.91 510.891C338.531 512.964 351.99 505.859 359.967 499.805C359.967 499.805 364.143 500.811 365.991 502.899C367.838 504.987 356.061 512.964 345.726 513.985C334.535 515.082 327.895 510.891 327.895 510.891H327.91Z" fill="#9B95B4"/>
<path d="M355.325 552.727C354.934 552.381 354.724 548.431 355.1 548.446C357.263 548.506 366.171 546.688 366.757 544.36C367.538 541.22 367.613 534.175 365.915 531.381C371.534 531.471 379.691 530.074 383.296 528.407C392.73 524.02 398.588 512.168 398.588 512.168C399.399 512.168 400.316 511.492 400.886 508.307C401.202 506.535 400.391 505.844 400.391 505.844C400.391 505.844 402.509 505.153 403.185 502.719C403.861 500.286 403.575 500.541 403.575 500.541C403.575 500.541 406.67 502.704 406.865 508.653C407.196 518.552 394.487 529.293 386.21 531.832C379.12 534.01 370.407 532.402 370.407 532.402C370.407 532.402 373.937 548.761 373.081 552.712C372.51 553.478 355.941 553.238 355.34 552.712L355.325 552.727Z" fill="#9B95B4"/>
<path d="M292.999 535.091C303.094 543.849 336.337 549.001 355.085 548.445C355.866 548.415 356.557 552.336 354.153 552.216C344.705 551.765 322.112 548.265 318.461 547.469C312.317 546.117 293.029 542.181 290.19 538.441C289.89 538.05 292.233 534.265 292.984 535.106L292.999 535.091Z" fill="#DDDABE"/>
<path d="M342.271 496.26C342.271 496.26 342.797 494.487 343.803 492.114C343.788 492.114 338.23 494.562 331.515 493.931C324.785 493.3 321.856 486.09 321.856 486.09C321.781 488.779 321.601 490.672 321.601 490.672C321.601 490.672 324.816 496.74 329.998 498.438C335.181 500.135 342.271 496.275 342.271 496.275V496.26Z" fill="#3D3F18"/>
<path d="M372.66 476.251C370.918 475.499 369.415 467.312 369.415 467.312C368.965 471.939 365.75 476.341 361.739 480.111C363.963 481.073 365.299 482.5 365.299 482.5C366.847 483.266 371.849 477.422 372.66 476.251Z" fill="#3D3F18"/>
<path d="M369.431 467.311C369.431 467.311 372.465 469.91 376.055 468.918C379.645 467.927 390.086 462.053 390.446 460.461C389.184 465.884 377.858 476.775 373.667 476.309C371.729 476.099 369.716 470.315 369.416 467.311H369.431Z" fill="#DDDABE"/>
<path d="M345.726 508.066C345.726 508.066 359.411 497.43 360.538 491.842C360.538 491.842 362.926 488.718 363.001 485.458C363.076 482.198 359.967 480.816 359.967 480.816L361.739 480.095C361.739 480.095 365.089 482.574 366.156 482.438C367.222 482.303 372.841 476.865 372.645 476.234C372.645 476.234 371.984 484.797 365.51 492.894C359.126 500.885 351.449 506.458 345.711 508.051L345.726 508.066Z" fill="#9B95B4"/>
<path d="M299.849 517.44C299.849 517.44 306.083 511.521 305.392 511.641C303.394 511.987 288.583 507.646 284.977 505.422C279.344 501.937 272.704 482.769 272.704 482.769L270.316 480.576C268.453 489.875 274.853 500.871 281.102 508.307C285.563 513.624 298.497 517.094 299.849 517.44Z" fill="#9B95B4"/>
<path d="M573.473 514.211C577.123 482.154 565.977 422.938 552.427 394.156C551.691 392.593 555.522 391.286 556.288 392.924C570.949 424.56 580.894 482.529 575.726 517.185C575.591 518.056 573.278 515.983 573.473 514.211Z" fill="#0E141B"/>
<path d="M237.899 592.64C218.746 548.776 216.898 500.346 237.433 471.053C240.032 467.343 243.832 464.188 247.468 461.92C248.084 461.544 248.564 464.684 248.084 464.999C244.613 467.238 241.444 470.152 239.07 473.907C221.239 502.163 222.111 547.875 240.918 590.943C265.644 647.576 326.122 705.635 421.662 701.745C436.383 701.144 448.671 699.732 460.223 697.448C460.854 697.328 462.506 700.122 461.95 700.227C450.128 702.601 436.864 704.403 421.767 705.019C348.971 708.009 274.898 677.364 237.899 592.625V592.64Z" fill="#0E141B"/>
<path d="M242.901 482.005C248.79 425.718 274.612 356.797 304.07 334.64C307.811 331.831 309.358 333.904 305.633 336.713C275.754 359.186 250.637 434.686 245.92 491.123C245.86 491.799 242.706 483.868 242.901 482.005Z" fill="#0E141B"/>
<path d="M515.218 347.527C509.329 347.527 484.588 319.481 484.588 312.646C484.588 296.242 496.921 266.364 515.534 262.728C531.397 259.634 573.819 264.591 577.259 269.999C578.866 272.523 574.99 288.1 569.612 288.611C563.453 289.197 546.103 290.729 543.189 290.985C541.431 291.135 540.32 295.476 539.689 299.187C540.26 304.294 547.891 324.904 547.365 328.089C546.178 335.404 519.965 347.527 515.218 347.527ZM516.029 265.928C498.243 269.398 487.187 299.217 487.187 312C487.187 318.309 511.417 344.297 515.233 344.297C519.845 344.297 542.558 333.376 544.105 328.104C545.082 324.799 536.038 301.425 536.429 299.051C536.729 297.234 538.412 288.145 542.979 287.755C545.863 287.515 562.973 285.997 569.237 285.396C572.241 283.609 575.441 273.649 574.419 272.057C570.724 267.31 531.382 262.939 516.029 265.928Z" fill="#0E141B"/>
<path d="M748.027 218.625C745.519 212.481 741.012 207.509 736.821 204.94C736.055 204.475 737.136 199.893 737.888 200.344C743.04 203.498 750.852 213.037 752.008 222.08C752.038 222.336 748.133 218.881 748.027 218.625Z" fill="#0E141B"/>
<path d="M747.757 253.385C738.534 269.489 718.645 296.288 717.248 297.82C715.25 300.824 682.953 350.036 661.081 365.479C652.053 371.863 635.829 375.318 617.082 378.833C589.531 384.001 554.951 388.673 531.892 408.742C528.062 412.077 526.064 410.379 530.195 406.789C553.794 386.254 588.465 379.75 616.315 374.522C634.762 371.067 650.686 368.078 659.248 362.024C680.955 346.701 714.138 296.799 714.484 296.303C714.514 296.243 714.559 296.198 714.604 296.153C714.829 295.912 732.66 271.246 741.974 255.894C742.109 255.684 747.877 253.16 747.742 253.385H747.757Z" fill="#0E141B"/>
<path d="M705.38 177.165C703.127 177.074 700.739 177.195 698.245 177.555C689.577 178.802 682.021 182.497 678.371 185.607C678.025 185.907 677.545 185.997 677.109 185.847C676.989 185.802 664.701 181.716 653.975 186.328C639.419 192.577 635.063 216.252 623.391 235.209C609.616 257.592 599.911 274.612 599.821 274.792C599.611 275.152 599.25 275.393 598.845 275.438C598.725 275.438 587.669 276.715 575.351 277.826C575.005 277.856 575.561 274.807 576.147 274.747C586.422 273.815 595.33 272.569 597.974 271.472C599.776 268.317 608.714 252.62 621.107 232.505C633.425 212.481 635.709 189.738 652.473 182.557C662.733 178.156 674.33 181.641 677.229 182.497C682.096 178.607 690.088 175.092 697.854 173.965C702.361 173.319 711.284 174.355 713.928 175.677C714.168 175.798 705.636 177.18 705.365 177.165H705.38Z" fill="#0E141B"/>
<path d="M694.309 235.78C690.974 235.78 680.384 225.535 675.532 222.951C667.856 218.85 653.915 216.447 650.986 213.548C649.965 212.526 649.829 210.814 650.58 208.455C653.945 197.94 666.278 187.635 677.094 185.862C690.989 183.564 700.273 222.906 696.562 234.023C696.067 235.51 695.601 235.795 694.294 235.795L694.309 235.78ZM678.206 188.792C671.16 188.792 655.718 200.944 653.074 209.236C652.398 211.339 653.029 211.955 653.93 212.451C658.392 214.93 671.957 218.084 676.764 220.653C681.075 222.951 689.682 229.606 693.303 231.724C693.859 232.055 694.174 232.025 694.384 231.334C696.998 222.756 687.579 188.777 678.206 188.777V188.792Z" fill="#0E141B"/>
<path d="M717.653 226.362C713.057 216.102 700.228 201.125 696.157 189.107C695.361 186.764 695.962 184.135 697.84 181.687C701.295 177.165 709.121 173.845 714.904 174.191C728.77 175.032 737.618 184.15 738.955 192.773C741.193 207.209 729.596 223.778 720.372 226.827C719.411 227.143 718.014 227.158 717.653 226.362ZM699.898 183.264C698.951 184.496 697.975 186.358 698.621 188.281C702.316 199.202 712.877 209.102 718.915 223.297C719.111 223.733 719.561 223.718 719.967 223.553C721.724 222.772 725.825 219.812 729.656 214.99C733.472 210.183 737.723 202.582 736.341 193.674C735.019 185.142 724.939 177.661 713.883 176.985C710.308 176.759 703.262 178.878 699.913 183.279L699.898 183.264Z" fill="#0E141B"/>
<path d="M726.802 260.672C725.795 260.341 725.284 259.8 725.029 259.275C724.098 257.352 726.847 249.826 728.003 246.491C728.95 243.742 730.031 240.617 730.978 236.787C733.501 226.632 740.532 218.13 743.596 216.417C744.558 215.876 745.849 216.102 747.532 217.093C752.519 220.037 760.015 229.006 760 237.253C759.985 250.802 735.755 263.571 726.802 260.672ZM728.905 257.787C739.645 259.41 757.101 248.143 757.116 237.102C757.116 231.064 752.699 224.874 748.914 221.404C746.706 219.391 745.219 218.746 744.768 218.731C742.545 220.067 735.92 227.563 733.486 237.403C732.51 241.338 731.413 244.523 730.452 247.317C729.31 250.652 727.733 254.993 727.838 256.766C727.883 257.412 728.048 257.637 728.92 257.772L728.905 257.787Z" fill="#0E141B"/>
<path d="M250.037 682.921C245.004 683.161 240.227 683.086 236.141 682.891C235.42 682.861 235.631 679.255 236.352 679.285C240.453 679.481 244.659 679.601 248.865 679.526C249.766 679.511 250.998 682.891 250.052 682.936L250.037 682.921Z" fill="#0E141B"/>
<path d="M286.104 671.264C288.087 669.311 290.31 666.472 291.437 662.537C291.602 661.981 288.823 658.661 288.673 659.352C287.441 664.595 285.443 666.608 284.226 667.914C283.49 668.696 285.428 671.955 286.119 671.264H286.104Z" fill="#0E141B"/>
<path d="M183.459 668.216C176.744 657.325 159.995 621.077 160.145 581.63C160.311 537.36 208.876 499.64 231.785 483.957C232.806 483.266 231.95 487.037 231.244 487.518C209.072 503.08 164.246 539.734 164.096 581.63C163.961 620.131 180.38 656.364 186.389 666.594C186.944 667.54 184.195 669.418 183.459 668.216Z" fill="#0E141B"/>
<path d="M621.799 489.44C616.226 492.925 610.773 495.974 605.44 498.588C604.133 499.219 603.983 495.974 604.569 495.674C609.826 493.09 615.144 490.491 620.236 487.307C620.747 486.991 622.249 489.154 621.784 489.44H621.799Z" fill="#0E141B"/>
<path d="M647.591 470.813C671.852 451.014 691.125 429.293 698.095 421.016C700.003 418.747 700.529 418.958 701.775 421.917C706.597 433.364 705.681 484.994 693.468 520.491C681.526 555.206 656.62 589.697 621.153 620.762C620.717 621.152 624.052 623 624.848 622.294C660.09 591.169 683.944 556.108 695.917 521.332C707.634 487.277 710.548 433.424 704.254 419.573C701.715 413.985 699.552 414.241 696.112 418.312C690.239 425.282 670.605 448.355 645.819 468.575C645.083 469.176 647.366 470.978 647.576 470.813H647.591Z" fill="#0E141B"/>
<path d="M595.615 279.51C596.156 277.317 596.862 275.259 597.643 273.366C597.779 273.02 602.931 269.37 602.586 270.001C600.648 273.606 599.401 276.806 598.349 280.351C595.66 289.454 593.227 289.154 595.63 279.51H595.615Z" fill="#0E141B"/>
<path d="M533.229 289.544C533.605 287.501 536.083 280.426 541.011 280.426C545.382 280.426 554.065 281.402 559.968 282.559C562.282 283.01 562.582 283.941 560.028 283.671C554.17 283.07 545.337 282.424 541.116 282.424C538.742 282.424 536.159 286.239 534.551 289.799C533.5 292.128 532.899 291.437 533.244 289.529L533.229 289.544Z" fill="#0E141B"/>
<path d="M489.32 557.76C489.936 539.418 485.865 526.199 482.245 520.701C480.788 518.478 477.829 519.89 476.281 521.167C425.222 563.243 353.943 557.835 315.262 549.799C270.001 540.395 242.09 506.205 241.429 478.475C241.294 472.962 243.232 472.511 243.367 478.009C243.787 495.855 266.576 535.663 315.802 545.893C354.138 553.87 424.861 560.599 475.125 518.778C476.567 517.577 481.419 514.197 484.273 518.523C488.134 524.367 492.355 537.12 492.099 553.344C492.069 555.101 489.29 559.563 489.35 557.76H489.32Z" fill="#0E141B"/>
<path d="M450.429 668.217C429.173 681.18 403.605 683.494 380.877 682.908C327.219 681.541 288.012 661.382 257.638 624.157C255.489 621.528 248.97 608.324 248.97 608.324C281.372 652.353 327.67 677.921 380.937 679.288C411.507 680.069 433.769 675.682 450.083 665.347C451.39 664.521 451.631 667.465 450.414 668.217H450.429Z" fill="#0E141B"/>
<path d="M181.627 705.86C173.575 702.195 174.927 673.277 183.324 666.097C187.29 662.702 195.913 662.326 202.973 662.612C214.51 663.078 238.124 672.211 238.785 679.391C239.641 688.555 190.58 709.946 181.627 705.86ZM182.723 701.864C190.73 705.484 235.51 684.258 235.045 679.241C234.684 675.335 214.209 666.382 202.582 665.706C195.687 665.316 189.348 666.202 185.502 669.056C178.292 674.434 178.322 699.866 182.723 701.849V701.864Z" fill="#0E141B"/>
<path d="M246.927 680.263C246.927 674.239 259.876 665.391 270.226 664.205C278.398 663.273 284.887 665.707 286.375 670.243C286.885 671.821 293.029 696.201 287.606 698.455C279.329 701.91 246.927 687.038 246.927 680.263ZM250.667 679.617C251.223 683.297 279.119 697.809 285.623 695.06C287.757 693.843 285.684 676.387 283.911 671.04C282.829 667.75 277.316 665.992 270.511 666.773C260.477 667.915 250.667 675.711 250.652 679.602L250.667 679.617Z" fill="#0E141B"/>
<path d="M181.401 671.235C169.609 668.877 154.167 664.836 154.167 660.479C154.167 655.402 170.165 646.043 174.657 643.595C175.288 643.249 176.519 646.178 175.903 646.524C167.341 651.181 158.102 657.715 158.102 660.134C158.643 661.997 169.85 665.527 183.459 668.216C184.811 668.486 183.204 671.596 181.416 671.235H181.401Z" fill="#0E141B"/>
<path d="M468.064 705.966C472.856 716.692 480.322 727.312 484.333 730.872C485.354 731.789 488.148 730.647 487.067 729.821C483.326 726.982 476.702 715.941 472.06 705.696C471.91 705.38 467.914 705.621 468.064 705.966Z" fill="#0E141B"/>
<path d="M457.113 654.44C455.431 617.381 476.101 571.684 495.584 545.35C501.548 537.359 503.606 538.876 497.673 546.898C476.176 575.95 458.255 625.718 460.974 661.47C461.079 662.867 457.173 655.581 457.128 654.455L457.113 654.44Z" fill="#0E141B"/>
<path d="M506.58 752.187C509.585 753.825 512.905 755.282 516.555 756.484C517.531 756.799 516.735 753.78 515.864 753.464C512.394 752.217 509.254 750.73 506.415 749.078C505.829 748.732 505.92 751.812 506.58 752.187Z" fill="#0E141B"/>
<path d="M615.219 627.191C615.805 576.657 588.269 539.237 566.202 505.168C562.822 499.94 565.256 498.558 568.651 503.786C590.222 537.074 618.088 576.762 618.899 618.478C618.944 620.671 615.189 629.609 615.219 627.191Z" fill="#0E141B"/>
<path d="M613.927 684.59C608.203 714.063 597.733 732.795 582.937 747.442C582.441 747.922 581.284 745.489 581.84 744.903C595.495 730.632 603.171 717.894 609.315 686.828C609.525 685.792 614.137 683.493 613.912 684.605L613.927 684.59Z" fill="#0E141B"/>
<path d="M514.752 755.011C512.995 747.681 536.504 740.635 551.06 739.238C564.37 737.961 581.57 740.425 584.048 746.013C587.158 752.998 568.621 778.536 559.337 780.413C549.333 782.441 516.615 762.808 514.752 755.011ZM551.316 741.822C536.219 743.279 518.463 751.211 518.448 754.275C518.448 760.69 550.79 778.19 558.827 776.538C563.874 775.516 582.561 753.389 581.014 747.035C578.971 742.453 560.419 740.936 551.301 741.822H551.316Z" fill="#0E141B"/>
<path d="M468.034 757.326C463.828 751.017 483.071 729.295 484.723 729.385C494.563 729.971 510.516 748.583 509.209 752.774C507.857 757.115 471.895 763.079 468.049 757.311L468.034 757.326ZM505.168 750.025C504.252 745.549 493.361 735.093 486.06 732.194C485.55 731.999 484.979 732.089 484.588 732.48C477.198 740.021 469.191 752.113 471.339 755.268C473.352 758.197 498.574 755.884 504.462 751.783C505.033 751.392 505.304 750.701 505.153 750.025H505.168Z" fill="#0E141B"/>
<path d="M584.514 745.157C583.808 745.037 586.197 742.153 586.828 742.243C598.815 744.046 612.38 742.408 613.326 740.846C614.168 739.239 606.792 730.466 599.191 724.202C598.875 723.931 599.702 721.092 600.272 721.528C607.423 726.891 619.591 738.457 617.337 742.739C614.934 747.32 592.957 746.524 584.514 745.157Z" fill="#0E141B"/>
<path d="M470.363 706.972C467.659 706.972 465.405 706.477 464.039 705.215C458.435 700.077 448.025 673.594 449.708 662.883C450.789 656.048 457.444 653.224 457.729 653.104C458.961 652.593 459.442 653.329 459.517 654.185C460.268 662.538 463.062 669.087 490.838 671.22C491.393 671.265 491.859 671.656 491.994 672.197C498.529 698.019 497.372 698.981 496.681 699.552C495.434 700.573 480.022 706.957 470.348 706.957L470.363 706.972ZM457.158 656.379C455.431 657.505 452.832 659.743 452.276 663.289C450.729 673.158 460.629 698.575 465.796 703.292C470.002 707.138 489.726 700.137 494.293 697.944C494.578 697.809 494.743 697.524 494.713 697.223C494.488 694.069 492.265 683.944 489.876 674.39C489.771 673.999 489.441 673.714 489.035 673.684C468.77 671.926 458.766 667.63 457.158 656.379Z" fill="#0E141B"/>
<path d="M572.061 682.366C570.98 682.051 570.484 681.39 570.349 680.503C570.123 679.121 564.806 647.966 565.467 642.393C565.587 641.446 566.097 640.605 567.374 640.455C598.845 636.609 617.217 633.304 617.112 618.583C617.112 617.667 617.788 616.75 619.035 617.441C619.801 617.877 626.606 621.723 628.483 624.832C630.737 628.558 625.539 666.353 625.209 668.035C623.676 675.726 620.387 685.551 613.401 687.248C605.5 690.763 581.75 685.205 572.061 682.366ZM572.632 678.37C572.782 679.302 573.458 680.053 574.375 680.293C581.63 682.246 604.133 687.819 612.095 684.154C616.661 682.036 620.236 677.649 622.324 667.179C623.511 661.23 627.537 629.023 626.245 626.139C625.269 624.532 621.964 622.248 619.59 620.776C618.013 635.408 599.266 639.103 569.132 642.843C568.516 642.918 568.035 643.459 568.065 644.09C568.366 650.97 571.115 669.027 572.632 678.385V678.37Z" fill="#0E141B"/>
<path d="M242.48 659.172C237.523 659.172 233.197 655.281 230.883 651.286C228.961 647.981 227.098 618.598 229.787 615.113C233.107 610.817 241.264 605.334 245.124 602.87C245.65 602.539 247.062 604.718 246.461 605.108C242.706 607.527 234.864 612.799 231.845 616.705C229.486 619.905 231.469 646.914 233.137 649.994C234.999 653.193 238.439 656.588 242.495 656.588C246.551 656.588 266.26 646.148 271.202 642.092C271.758 641.641 273.32 643.82 272.764 644.27C267.702 648.431 247.603 659.187 242.495 659.187L242.48 659.172Z" fill="#0E141B"/>
<path d="M172.343 638.157C166.56 638.157 154.287 630.33 151.898 624.186C147.872 613.851 145.063 575.365 147.227 570.844C149.089 566.968 164.637 557.369 167.671 555.702C168.302 555.356 167.566 559.607 167.01 559.923C160.235 563.753 150.636 569.732 149.555 571.97C148.158 574.855 150.006 612.199 154.302 623.255C156.39 628.603 167.626 635.017 171.998 635.017C172.028 635.017 172.043 635.017 172.073 635.017C172.779 635.017 172.809 637.601 172.088 637.616C172.058 637.616 172.358 638.172 172.328 638.172L172.343 638.157Z" fill="#0E141B"/>
<path d="M575.501 488.989C580.443 478.384 584.86 472.029 588.901 472.375C592.025 472.645 595.555 475.95 598.695 480.156C604.779 488.313 608.639 501.863 607.678 506.565C606.341 513.114 587.128 522.293 581.089 524.531C580.368 524.801 579.046 522.518 579.827 522.278C584.875 520.76 604.103 511.041 605.124 506.054C605.875 502.389 602.12 489.92 596.261 482.064C593.618 478.519 590.989 476.536 588.66 476.326C586.362 476.085 581.63 480.997 576.117 493.691C575.726 494.577 575.066 489.905 575.486 488.989H575.501Z" fill="#0E141B"/>
<path d="M619.5 488.644C618.809 487.322 625.344 456.437 632.359 454.379C638.848 452.456 649.919 471.985 649.649 475.154C649.319 479.015 634.597 494.112 630.782 494.427C626.891 494.758 620.792 491.138 619.5 488.659V488.644ZM621.889 487.863C622.97 489.711 627.522 492.069 630.571 491.844C632.749 491.183 646.239 479.075 647.035 475.019C645.984 471.639 637.992 457.068 632.96 458.27C627.912 459.471 622.504 481.659 621.889 487.863Z" fill="#0E141B"/>
<path d="M612.725 587.607C611.794 587.607 611.208 584.873 611.899 585.069C615.084 586 632.705 582.44 635.739 580.832C638.788 579.21 655.673 557.564 656.034 554.8C656.334 551.66 651.797 536.503 649.739 535.106C647.531 533.874 625.073 536.398 621.198 537.915C619.08 538.741 607.528 549.527 600.032 556.797C599.671 557.143 597.328 555.01 598.064 554.319C603.382 549.166 617.292 536.668 620.251 535.511C623 534.43 647.696 530.614 651.197 532.973C654.561 535.241 658.948 551.645 658.617 555.07C658.242 558.961 640.321 581.373 636.956 583.146C634.177 584.618 618.824 587.637 612.74 587.637L612.725 587.607Z" fill="#0E141B"/>
<path d="M483.191 680.338C474.359 680.338 460.118 677.799 457.083 670.784C456.002 668.29 457.609 667.434 458.691 669.928C460.854 674.93 473.622 678.836 483.597 678.836C487.037 678.836 486.631 680.338 483.206 680.338H483.191Z" fill="#0E141B"/>
<path d="M579.873 649.918C576.267 649.918 575.997 648.311 579.602 648.311C591.695 648.311 617.983 639.433 620.853 631.622C622.174 628.001 623.511 628.722 622.174 632.343C620.011 638.231 610.532 642.483 604.419 644.781C595.631 648.071 586.002 649.918 579.873 649.918Z" fill="#0E141B"/>
<path d="M238.59 647.95C238.169 645.096 237.914 622.368 239.101 619.98C240.302 617.576 248.354 612.454 249.451 611.778C250.067 611.402 250.983 614.136 250.983 614.136C250.983 614.136 241.654 620.025 241.008 621.301C240.107 623.405 239.942 645.186 240.182 647.635C240.422 650.083 238.995 650.805 238.575 647.95H238.59Z" fill="#0E141B"/>
<path d="M557.911 404.746C559.939 401.426 563.634 395.012 565.992 388.732C566.503 387.35 569.553 386.254 569.237 387.275C566.563 395.658 561.155 404.52 559.278 407.495C558.917 408.051 557.039 406.203 557.926 404.746H557.911Z" fill="#0E141B"/>
<path d="M575.066 483.881C577.364 480.892 583.523 465.164 584.424 460.958C586.032 453.492 584.244 438.425 581.961 435.33C578.04 430.058 567.9 422.742 563.484 419.677C562.207 418.791 563.424 416.493 564.235 417.049C568.276 419.813 580.278 427.819 584.725 433.798C587.624 437.689 589.306 453.747 587.654 461.513C586.978 464.653 579.136 485.969 575.892 489.484C575.381 490.04 574.6 484.512 575.081 483.896L575.066 483.881Z" fill="#0E141B"/>
<path d="M407.421 288.206C406.099 288.206 405.213 286.553 405.213 282.693C405.213 279.583 406.204 277.18 407.526 277.18C408.848 277.18 409.674 278.952 409.644 282.708C409.614 286.704 408.743 288.206 407.421 288.206Z" fill="#0E141B"/>
<path d="M320.835 275.078C319.738 275.078 319.002 273.485 319.002 269.745C319.002 266.741 319.813 264.412 320.91 264.412C322.006 264.412 322.697 266.125 322.667 269.76C322.637 273.621 321.931 275.078 320.82 275.078H320.835Z" fill="#0E141B"/>
<path d="M410.666 280.785C411.988 280.785 412.483 279.238 412.348 278.202C412.213 277.165 411.176 276.384 410.275 276.519C409.374 276.654 408.728 277.691 408.728 278.592C408.728 279.493 409.374 280.8 410.666 280.8V280.785Z" fill="white"/>
<path d="M319.348 266.424C320.624 266.755 321.481 265.358 321.616 264.321C321.751 263.285 320.925 262.278 320.024 262.188C319.122 262.098 318.236 262.939 318.011 263.811C317.785 264.697 318.101 266.109 319.348 266.424Z" fill="white"/>
<path d="M309.178 464.804C304.175 481.854 314.21 505.378 327.91 509.449C334.52 511.402 345.486 508.638 355.355 501.758C363.211 496.275 371.894 482.86 371.819 475.259C371.819 474.493 374.703 475.905 374.598 476.716C373.712 483.731 367.192 495.854 356.467 503.35C345.185 511.236 333.874 513.46 327.294 511.507C312.512 507.12 301.486 482.394 306.999 463.587C307.42 462.145 307.916 460.748 308.487 459.396C308.682 458.945 310.409 461.274 310.199 461.829C309.944 462.52 309.433 463.948 309.178 464.819V464.804ZM323.914 443.322C331.034 437.96 341.565 437.674 350.623 440.108C359.666 442.526 366.096 447.679 369.431 455.295C369.701 455.926 367.958 457.879 367.688 457.218C363.932 448.445 356.482 444.404 349.962 442.346C343.217 440.213 331.816 440.213 324.455 445.29C323.824 445.726 323.298 443.788 323.914 443.337V443.322Z" fill="#0E141B"/>
<path d="M373.531 477.783C367.778 475.98 366.336 455.205 367.838 454.679C372.825 452.936 390.281 455.295 391.693 459.306C393.135 463.377 378.383 479.3 373.516 477.783H373.531ZM369.28 456.887C368.484 459.546 371.999 474.358 373.321 475.214C375.935 476.941 390.641 463.467 389.455 460.102C388.418 457.188 374.688 455.52 369.28 456.887Z" fill="#0E141B"/>
<path d="M309.809 462.22H309.779C309.298 462.22 308.892 461.98 308.637 461.575C307.225 459.351 300.931 438.861 305.227 436.473C306.008 436.037 309.718 435.256 324.891 443.323C325.131 443.458 325.386 444.51 325.236 444.75C320.624 451.284 312.513 462.22 309.809 462.22ZM306.173 438.17C304.566 439.658 308.276 456.467 310.064 460.147C311.987 459.051 317.95 451.6 322.998 444.525C317.905 441.881 308.442 436.894 306.173 438.17Z" fill="#0E141B"/>
<path d="M329.818 499.024C324.335 497.221 321.06 492.159 320.745 491.122C320.684 490.942 320.609 490.762 320.639 490.567C320.639 490.446 321.826 478.159 319.227 472.075C316.869 466.532 311.551 469.22 310.98 469.025C309.508 468.529 308.592 462.025 308.487 461.139C308.427 460.598 310.44 461.124 310.485 461.409C310.62 462.446 311.025 465.014 311.791 466.892C315.577 465.78 319.483 467.703 321.015 471.309C323.494 477.137 322.532 487.607 322.292 490.191C322.277 490.371 322.322 490.537 322.412 490.687C323.313 492.099 326.378 496.215 330.298 497.492C334.219 498.784 339.717 496.711 341.445 495.899C341.595 495.839 341.685 495.719 341.73 495.569C342.556 493.015 345.741 483.491 351.344 480.111C356.286 477.137 361.529 477.588 365.795 481.629C366.636 481.629 369.416 479.03 371.969 475.455C372.285 475.019 373.366 476.837 373.291 476.957C371.323 479.661 367.718 483.431 365.75 483.521C363.918 483.611 360.462 476.897 352.336 481.764C346.597 485.219 343.217 496.395 343.172 496.515C343.097 496.756 342.932 496.966 342.707 497.086C339.672 498.724 333.438 500.181 329.788 498.994L329.818 499.024Z" fill="#0E141B"/>
<path d="M271.172 481.328C269.955 489.8 275.033 499.565 281.853 507.691C286.299 512.994 300.074 516.509 300.225 516.539C300.75 516.674 299.834 518.447 299.744 518.432C299.158 518.282 285.218 514.737 280.366 508.953C273.11 500.301 266.891 489.139 269.129 479.931C269.339 479.06 269.985 478.263 270.376 477.557C270.616 477.122 271.232 481.012 271.172 481.343V481.328Z" fill="#0E141B"/>
<path d="M284.061 474.869C286.72 476.837 292.083 487.428 293.99 489.471C297.701 493.452 308.742 491.829 309.989 491.634C310.514 491.544 310.214 489.636 309.688 489.711C306.594 490.207 297.971 490.868 295.417 488.134C293.239 485.79 288.567 476.267 284.737 473.427C284.632 473.352 283.565 474.494 284.061 474.869Z" fill="#0E141B"/>
<path d="M403.755 502.147C405.002 503.604 405.858 505.602 405.858 508.081C405.858 520.053 390.07 530.238 383.551 531.485C376.461 532.852 368.995 531.17 368.905 531.14C364.698 530.103 364.248 532.071 368.469 533.032C372.45 533.964 378.383 534.489 383.881 533.423C395.523 531.14 407.811 518.446 407.811 508.081C407.811 504.175 406.024 501.231 403.725 499.443C403.575 499.323 403.65 502.012 403.755 502.147Z" fill="#0E141B"/>
<path d="M396.29 499.669C395.373 500.015 394.592 500.615 393.976 501.472C389.86 507.36 379.21 511.131 375.619 509.899C375.184 509.749 362.34 501.051 359.471 500.706C358.93 500.645 360.222 498.858 360.507 498.948C363.317 499.774 375.214 507.706 376.25 508.051C378.984 508.968 388.674 505.663 392.384 500.345C393.285 499.068 394.502 498.182 395.899 497.731C396.049 497.686 396.425 499.594 396.29 499.654V499.669Z" fill="#0E141B"/>
<path d="M289.078 536.909C291.407 530.359 297.22 515.878 306.354 509.584C309.042 507.721 310.274 508.758 307.465 511.191C299.549 518.026 293.75 531.456 291.482 537.81C291.272 538.396 288.868 537.51 289.093 536.909H289.078Z" fill="#0E141B"/>
<path d="M371.609 552.891C372.285 549.661 370.242 536.893 368.499 532.611C368.139 531.725 370.933 531.41 371.489 532.732C373.381 537.313 374.718 549.932 374.298 552.621C374.208 553.161 371.504 553.447 371.624 552.906L371.609 552.891Z" fill="#0E141B"/>
<path d="M354.859 551.811C354.799 551.495 349.196 520.67 326.949 515.322C311.897 511.702 298.497 528.812 290.821 539.448C290.505 539.883 288.928 538.741 289.244 538.306C297.265 527.175 311.386 509.584 327.414 513.415C350.608 518.988 355.956 546.958 356.797 551.826C356.887 552.351 354.949 552.261 354.859 551.78V551.811Z" fill="#0E141B"/>
<path d="M346.297 496.589C343.563 493.885 346.808 485.278 350.894 481.267C351.509 480.666 356.001 478.323 357.954 478.864C360.778 479.645 362.836 481.748 363.557 483.46C364.699 486.164 363.302 491.752 358.374 495.057C354.288 497.791 348.175 498.437 346.297 496.589ZM347.634 495.177C349.166 496.755 354.093 495.568 357.278 493.435C361.138 490.851 362.626 486.314 361.754 484.211C360.913 482.183 356.827 479.51 353.988 481.177C348.851 484.211 345.606 493.059 347.649 495.162L347.634 495.177Z" fill="#0E141B"/>
<path d="M311.251 483.431C308.366 477.558 310.034 466.877 317.184 468.605C319.317 469.115 322.592 479.375 322.247 482.079C321.691 486.421 320.504 488.989 318.807 489.365C316.253 489.936 313.399 487.803 311.251 483.431ZM312.993 482.575C314.781 486.225 316.598 487.863 318.386 487.472C319.558 487.052 321.481 479.856 319.978 474.388C319.423 472.375 318.146 470.858 316.734 470.512C312.693 469.521 310.229 476.957 313.008 482.59L312.993 482.575Z" fill="#0E141B"/>
<path d="M272.749 483.807C271.217 483.387 270.106 482.14 269.7 480.382C268.769 476.296 276.43 468.68 278.247 469.777C280.14 470.918 279.284 480.382 277.571 482.23C276.34 483.552 274.597 484.303 272.764 483.807H272.749ZM271.593 479.947C271.833 480.998 272.419 481.704 273.245 481.929C274.192 482.185 275.288 481.794 276.129 480.908C277.511 479.436 277.436 474.824 277.061 472.706C277.016 472.451 276.715 472.345 276.52 472.496C274.627 473.968 271.142 478.024 271.593 479.962V479.947Z" fill="#0E141B"/>
<path d="M278.262 478.383C277.917 478.143 278.503 476.205 278.788 476.445C279.284 476.851 280.951 477.196 282.769 476.746C283.28 475.995 283.475 472.69 283.415 470.707C283.415 470.437 283.13 470.286 282.904 470.422C281.597 471.233 279.524 472.99 278.803 474.402C278.563 474.883 277.767 472.284 278.052 471.909C279.539 470.061 283.175 467.102 284.527 467.718C285.278 468.063 285.263 478.098 283.4 478.578C281.567 479.059 279.029 478.864 278.277 478.368L278.262 478.383Z" fill="#0E141B"/>
<path d="M398.558 513.129C396.125 513.129 391.363 505.888 392.549 504.146C393.991 502.013 401.863 505.588 402.028 507.12C402.178 508.517 400.841 513.129 398.543 513.129H398.558ZM398.513 511.146L398.573 511.176C399.174 511.056 400.226 508.427 400.105 507.316C399.76 506.64 396.2 505.288 394.382 505.408C394.758 507.436 396.951 510.065 398.498 511.131L398.513 511.146Z" fill="#0E141B"/>
<path d="M400.601 506.489C398.303 506.474 394.307 498.407 395.629 496.935C397.206 495.163 403.575 497.882 404.281 499.534C405.573 502.538 402.539 506.489 400.616 506.489H400.601ZM397.356 498.197C398.528 501.292 400 504.101 400.676 504.536C401.848 504.176 403.034 501.562 402.494 500.315C402.163 499.549 399.369 498.077 397.356 498.212V498.197Z" fill="#0E141B"/>
<path d="M474.584 190.714C452.141 197.204 439.688 258.208 455.551 264.051C461.425 266.244 488.764 253.761 516.42 240.872C573.188 214.404 580.864 208.47 580.653 206.743C579.527 197.774 507.767 181.145 474.584 190.729V190.714ZM456.347 260.311C444.72 255.834 455.641 199.397 474.899 193.839C495.84 187.785 557.655 194.019 575.336 205.871C576.883 206.908 576.042 207.043 574.84 207.794C571.085 210.122 542.453 224.604 514.182 237.943C487.488 250.546 461.109 262.158 456.347 260.311ZM488.058 190.369C475.876 167.52 446.718 144.732 414.06 141.037C377.407 136.891 351.72 145.213 326.528 165.838C311.656 178.021 297.265 204.204 302.418 226.707C304.881 237.507 323.043 260.311 325.687 290.835C326.032 294.816 326.287 297.685 328.12 299.773C335.316 307.9 365.359 314.45 374.913 307.555C388.944 297.43 428.602 256.105 449.212 246.491C449.467 246.445 449.407 243.426 449.137 243.501C432.012 247.873 390.386 290.309 373.652 305.286C367.943 310.394 337.494 306.413 330.088 298.046C328.811 296.604 328.601 294.215 328.285 290.61C325.506 258.508 307.36 235.9 305.467 225.189C301.727 204.099 314.706 179.853 328.841 168.286C355.445 146.475 380.487 140.256 412.994 143.936C443.053 147.346 471.624 168.992 485.114 190.864C486.015 192.322 488.779 191.706 488.058 190.384V190.369Z" fill="#0E141B"/>
<path d="M499.956 274.731C499.34 270.089 497.823 260.4 495.419 250.035C495.089 248.638 497.792 247.301 498.108 248.623C500.361 258.402 501.758 267.115 502.449 271.997C502.554 272.763 500.046 275.302 499.971 274.731H499.956Z" fill="#0E141B"/>
<path d="M348.114 341.594C330.013 338.86 321.3 326.707 311.491 314.72C308.682 311.28 304.881 307.254 302.358 304.73C291.782 294.14 289.634 275.408 297.145 256.735C297.145 256.735 303.139 240.437 305.873 231.799C306.038 231.288 308.186 235.089 308.036 235.6C305.272 244.297 303.695 247.933 299.729 257.787L299.609 258.102C292.563 275.588 294.396 292.668 304.386 302.657C306.969 305.241 309.658 308.531 312.497 312.001C321.315 322.772 332.296 336.186 348.4 338.635C361.244 340.573 379.886 336.592 403.831 326.798C416.629 321.57 451.285 310.829 459.442 305.497C462.251 303.664 464.82 300.975 466.487 298.166C468.109 295.432 469.837 296.108 468.44 299.037C467.659 300.674 465.255 304.4 460.058 307.69C445.276 317.033 429.578 318.806 404.807 328.946C379.27 339.386 363.767 343.953 348.099 341.579L348.114 341.594Z" fill="#0E141B"/>
<path d="M354.949 355.114C330.344 351.764 311.912 327.834 305.182 311.445C305.107 311.265 307.03 306.683 307.24 307.465C311.566 323.688 332.567 348.775 355.205 351.854C385.639 356 454.079 339.732 477.498 319.091C480.893 316.087 481.629 318.1 478.324 321.24C454.064 344.283 385.819 359.305 354.934 355.099L354.949 355.114Z" fill="#0E141B"/>
<path d="M331.125 163.524C316.629 155.863 243.126 157.29 239.611 163.389C236.066 169.548 263.12 196.918 303.95 229.59C305.362 230.296 306.519 227.112 304.28 225.324C252.62 183.924 241.895 167.956 243.472 165.252C246.146 160.685 312.272 159.273 327.955 166.183C328.21 166.303 331.56 163.749 331.125 163.524Z" fill="#0E141B"/>
<path d="M276.73 373.651C256.766 360.868 230.117 351.93 210.003 345.335C199.157 341.775 188.416 338.831 182.918 336.082C159.319 324.304 121.614 290.235 99.9824 273.996C79.132 258.343 65.1316 253.882 58.2967 242.48C58.0863 242.135 58.4619 236.516 58.7473 236.967C67.0995 250.998 78.7264 253.611 103.558 272.434C126.767 290.024 164.847 322.322 185.021 332.386C190.384 335.06 199.683 338.11 210.454 341.655C230.673 348.294 258.358 357.368 278.533 370.287C278.983 370.572 276.895 373.757 276.73 373.651Z" fill="#0E141B"/>
<path d="M259.23 252.935C259.14 252.935 259.065 252.935 258.974 252.905C235.645 246.716 232.821 245.139 232.13 244.193C217.859 224.86 175.873 179.929 149.75 165.072C140.271 159.679 125.4 149.705 109.251 148.864C96.5125 148.203 90.6689 150.711 83.3082 155.293C81.4154 156.465 77.1342 156.9 78.1106 155.789C84.1945 148.774 97.0232 143.215 109.446 144.282C125.505 145.664 142.6 156.254 151.357 161.227C177.736 176.189 220.083 222.291 234.444 241.759C235.33 242.961 239.085 244.794 258.809 250.036C259.335 250.171 259.68 252.935 259.245 252.935H259.23Z" fill="#0E141B"/>
<path d="M388.448 295.222C391.137 297.896 427.505 292.773 433.769 279.96C435.692 276.024 434.37 259.845 434.16 253.491C434.145 252.95 436.849 251.733 436.909 252.274C437.645 259.139 438.847 276.309 436.278 281.567C429.969 294.486 391.708 300.765 385.97 297.43C385.925 297.4 388.088 294.846 388.463 295.237L388.448 295.222Z" fill="#0E141B"/>
<path d="M326.438 285.096C321.661 285.096 316.268 280.545 313.579 277.871C308.096 272.418 305.257 264.982 305.257 261.452C305.257 255.578 309.568 240.301 309.763 239.865C309.989 239.37 311.701 242.795 311.476 243.29C311.431 243.395 307.705 255.894 307.705 261.347C307.705 264.306 309.869 270.931 314.856 275.888C319.062 280.079 323.178 282.467 326.167 282.482C326.167 282.482 326.182 282.482 326.197 282.482C326.738 282.482 326.468 285.111 326.453 285.111L326.438 285.096Z" fill="#0E141B"/>
<path d="M282.304 323.943C275.333 323.943 255.399 295.762 257.908 290.669C261.348 283.669 283.37 269.428 286.525 266.875L285.248 261.437C282.499 258.703 265.87 254.211 259.065 252.919C258.464 252.799 256.992 251.718 256.811 251.012C256.391 249.239 258.539 246.159 262.054 243.441C264.653 241.428 293.465 242.284 303.545 243.531C303.83 243.561 303.049 246.22 302.613 246.174C291.166 244.792 265.344 244.342 263.241 245.649C260.101 248.082 259.786 249.134 259.906 249.81C263.676 250.576 285.458 255.623 286.99 258.898C287.937 260.896 288.883 266.169 289.214 267.716C289.349 268.377 288.868 268.813 288.222 269.323C288.012 269.488 264.488 284.375 260.972 291.541C259.005 295.536 278.503 321.63 282.829 320.458C288.387 318.971 300.735 308.26 300.841 308.215C301.336 308.005 302.568 311.129 301.832 311.865C299.278 314.419 286.525 323.943 282.319 323.943H282.304Z" fill="#0E141B"/>
<path d="M402.974 295.462C400.195 294.2 397.732 290.204 397.176 286.824C397.101 286.374 398.873 284.721 399.009 285.247C400 289.273 402.283 295.417 408.668 293.629C413.49 292.277 417.951 281.146 414.661 269.774C414.601 269.564 416.81 268.047 416.975 268.558C419.228 275.693 418.672 284.301 415.608 289.964C414.857 291.361 413.97 292.502 412.994 293.389C412.018 294.275 403.47 295.672 402.974 295.447V295.462Z" fill="#0E141B"/>
<path d="M321.075 282.302C320.324 282.302 317.365 280.364 316.809 279.253C315.922 277.495 315.307 275.257 314.961 273.71C313.91 269.083 313.534 256.975 316.178 253.37C316.493 252.934 317.89 255.894 317.815 256.014C315.892 258.838 315.953 269.323 316.854 273.274C317.785 277.33 318.972 279.568 319.738 279.989C322.202 281.311 324.154 278.922 324.2 276.323C324.215 275.467 325.762 278.366 325.296 279.343C324.335 281.401 323.133 282.287 321.06 282.287L321.075 282.302Z" fill="#0E141B"/>
<path d="M440.619 329.336C438.126 326.812 434.821 322.726 431.892 318.174C431.606 317.724 434.49 316.957 434.761 317.423C437.029 321.374 439.087 324.619 441.13 326.556C441.31 326.722 441.581 326.692 441.701 326.481C443.428 323.222 445.231 317.829 445.967 313.232C446.087 312.706 449.437 311.67 449.302 312.196C448.145 316.657 444.871 326.752 443.128 329.08C442.422 330.012 441.476 330.222 440.604 329.351L440.619 329.336Z" fill="#0E141B"/>
<path d="M302.688 314.961C301.907 314.03 299.654 307.18 297.956 296.214C297.866 295.688 300.33 298.677 300.48 299.594C301.366 304.776 302.583 309.553 303.379 311.506C303.484 311.747 303.785 311.792 303.95 311.596C304.686 310.695 305.813 308.937 306.444 306.654C306.579 306.128 308.712 308.322 308.622 308.622C307.946 310.89 305.137 314.27 304.055 315.202C303.499 315.682 302.944 315.277 302.703 314.976L302.688 314.961Z" fill="#0E141B"/>
<path d="M465.33 527.791C462.792 492.324 451.45 456.467 432.943 427.31C410.891 392.549 383.371 371.278 352.531 367.417C314.06 362.595 279.329 390.506 251.554 449.482C251.328 449.963 252.139 442.857 252.635 441.821C280.516 384.182 314.06 359.02 352.771 363.872C384.197 367.808 413.174 390.04 435.557 425.297C454.064 454.454 465.691 489.711 468.395 525.192C468.485 526.469 465.375 528.723 465.315 527.806L465.33 527.791Z" fill="#0E141B"/>
<path d="M68.8272 218.774C61.3012 213.802 56.9599 191.945 60.7304 177.599C63.1639 168.361 72.3724 155.412 81.6559 153.234C91.8558 150.845 106.367 163.509 106.637 169.517C107.088 179.282 83.2482 198.78 77.2545 210.783C75.9926 213.321 74.836 217.047 72.6878 218.714C71.2457 219.841 70.0289 219.585 68.8122 218.774H68.8272ZM81.9413 156.448C72.8981 158.566 65.7026 171.921 64.0352 178.26C60.0694 193.297 65.4172 212.059 69.7135 214.899C70.4946 215.409 70.9603 215.199 71.3208 214.929C73.1235 213.532 74.16 211.444 75.3767 209.01C79.7481 200.267 104.715 176.427 103.498 169.833C102.266 163.178 89.272 154.751 81.9263 156.463L81.9413 156.448Z" fill="#0E141B"/>
<path d="M69.8336 216.702C68.4816 220.443 63.5995 227.653 60.9406 234.068C59.2882 238.064 59.1981 249.871 56.3289 252.935C55.4576 253.882 54.6464 253.987 53.4898 253.356C49.0282 250.922 44.5968 243.532 42.4487 235.525C38.9335 222.381 39.249 206.412 42.8693 200.058C47.7364 191.481 55.9684 187.199 61.4063 190.609C62.0072 190.985 62.4278 194.65 61.7818 194.215C57.1851 191.15 49.9746 192.728 45.1826 201.726C41.968 207.779 41.4272 221.735 44.9874 235.029C46.9552 242.375 49.8845 247.693 53.7752 249.931C54.1808 250.171 54.4962 250.231 54.7816 249.766C57.4706 245.409 56.8547 237.688 58.7925 233.121C61.3011 227.218 66.1983 217.934 67.7005 214.224C67.9408 213.623 70.0439 216.087 69.8186 216.702H69.8336Z" fill="#0E141B"/>
<path d="M337.839 331.035C336.698 328.466 336.202 327.64 335.331 326.017C334.444 324.35 335.226 324.034 336.412 325.146C337.599 326.258 339.011 328.331 339.507 329.668C340.078 331.245 338.59 332.687 337.854 331.035H337.839Z" fill="#0E141B"/>
<path d="M350.954 331.965C353.282 330.298 354.979 329.637 356.557 329.111C358.465 328.48 358.93 329.156 357.293 330.298C355.415 331.59 354.439 332.145 352.275 333.963C350.458 335.48 348.625 333.633 350.954 331.965Z" fill="#0E141B"/>
<path d="M504.087 269.519C507.858 264.141 512.049 256.841 510.486 252.98C509.78 251.238 508.218 248.774 505.875 245.68C505.289 244.898 507.392 243.351 507.993 244.162C510.306 247.242 512.184 250.396 512.935 252.229C514.422 255.879 511.853 262.234 508.939 267.431C507.813 269.444 503.291 270.646 504.102 269.504L504.087 269.519Z" fill="#0E141B"/>
<path d="M43.4251 202.476C44.6569 189.377 54.7667 181.566 62.3377 178.381C62.8334 178.171 62.3377 182.257 62.1124 182.347C54.9619 185.441 49.4639 189.572 46.2342 198.51C45.9037 199.442 43.365 203.017 43.4251 202.476Z" fill="#0E141B"/>
<path d="M93.0275 219.872C87.5295 218.369 79.2524 219.842 78.4262 217.618C77.1794 214.268 81.1602 209.356 86.7033 204.444C96.6177 195.641 116.281 186.403 125.79 191.315C137.327 197.279 138.484 223.086 129.095 227.277C120.698 231.033 101.515 222.17 93.0425 219.872H93.0275ZM93.6134 217.528C101.71 219.736 121.644 228.194 127.773 224.709C133.887 221.224 135.494 199.502 124.243 193.688C116.942 189.918 97.474 198.06 88.6411 205.901C84.3298 209.732 80.8748 213.427 81.1752 215.906C81.3855 217.603 89.6926 216.477 93.6134 217.543V217.528Z" fill="#0E141B"/>
<path d="M629.445 483.581C629.52 479.81 632.374 464.233 632.494 463.572C632.825 461.724 634.432 462.009 634.086 463.857C634.056 464.022 632.239 480.216 631.788 483.821C631.428 486.705 629.385 486.089 629.445 483.566V483.581Z" fill="#0E141B"/>
<path d="M109.446 247.333C106.262 245.064 99.9524 236.757 98.5403 233.858C96.8729 230.433 96.6626 220.984 96.6626 220.143C96.6626 219.302 100.028 220.413 100.012 221.27C99.9975 222.111 99.697 229.742 101.094 232.596C102.491 235.48 107.959 242.751 110.978 246.026C112.421 247.588 111.159 248.549 109.461 247.348L109.446 247.333Z" fill="#0E141B"/>
</g>
<defs>
<clipPath id="clip0_42_68916">
<rect width="720" height="640.564" fill="white" transform="translate(40 140)"/>
</clipPath>
</defs>
</svg>
