<svg width="800" height="800" viewBox="0 0 800 800" fill="none" xmlns="http://www.w3.org/2000/svg">
<g clip-path="url(#clip0_42_69096)">
<path d="M499.214 364.071C465.261 397.718 438.369 460.067 439.032 478.981C439.286 486.067 443.314 486.271 458.353 486.96C533.575 490.452 570.459 466.848 584.708 430.524C595.694 402.536 593.349 372.763 582.541 356.705C575.404 346.075 563.704 339.371 548.792 338.709C534.314 338.071 516.114 347.35 499.214 364.071Z" fill="#0E141B"/>
<path d="M503.012 367.638C519.326 351.477 534.518 343.576 548.181 344.187C562.149 344.799 572.6 350.126 579.202 359.966C589.5 375.311 589.806 400.852 579.992 428.33C569.567 457.542 532.173 487.544 458.481 484.128C443.11 483.415 442.014 483.083 441.861 478.877C441.198 460.448 469.518 400.826 502.987 367.638H503.012Z" fill="#FFFBC7"/>
<path d="M473.112 405.619C454.326 434.933 441.428 466.388 441.886 478.878C442.039 483.084 443.135 483.415 458.506 484.129C467.708 484.562 476.349 484.46 484.455 483.925C496.206 457.007 495.875 423.845 473.137 405.619H473.112Z" fill="#DDD9AC"/>
<path d="M442.065 476.33L444.512 477.732C476.833 421.628 575.71 374.777 585.676 371.438L585.141 369.322C543.898 386.554 474.794 419.461 442.039 476.305L442.065 476.33Z" fill="#0E141B"/>
<path d="M449.125 483.441L450.706 485.786C496.869 454.408 564.469 426.98 581.19 429.759L581.522 426.42C556.822 425.629 495.824 449.361 449.125 483.441Z" fill="#0E141B"/>
<path d="M316.729 460.092C333.069 460.933 361.439 456.345 372.196 450.609C381.526 465.725 409.157 491.649 431.41 505.745C459.551 523.562 502.426 584.458 486.902 633.374C469.161 608.011 417.033 608.011 398.706 655.347C340.41 633.705 318.922 557.592 318.973 506.076C318.973 495.854 318.692 474.188 316.729 460.092Z" fill="#FFFBC7"/>
<path d="M396.08 437.814C412.318 451.911 434.163 463.942 451.827 471.971C490.369 489.483 539.871 529.554 552.514 592.718C571.912 689.734 524.067 731.385 473.8 735.463C422.82 739.593 394.398 712.522 393.812 679.079C393.327 650.913 415.657 618.846 448.718 616.96C465.924 615.965 480.963 623.485 487.157 634.471C495.441 607.401 487.539 552.826 444.461 517.216C420.551 497.462 389.02 477.401 372.12 450.636C378.492 448.087 387.745 442.53 396.029 437.814H396.08Z" fill="#00B9EF"/>
<path d="M555.088 657.896C543.745 708.418 510.888 732.455 473.826 735.463C422.845 739.593 394.424 712.522 393.837 679.079C393.837 678.442 393.837 677.804 393.837 677.167C409.769 701.638 442.396 714.587 469.263 712.191C496.13 709.795 527.788 693.965 555.088 657.896Z" fill="#00A2D0"/>
<path d="M483.053 631.846C498.322 645.228 497.149 660.879 493.682 669.112C486.035 687.261 468.345 688.357 457.002 684.228C468.065 684.228 477.598 677.55 483.741 666.589C488.049 658.865 489.782 646.044 483.053 631.846Z" fill="#00A2D0"/>
<path d="M444.512 517.216C448.157 520.224 451.547 523.411 454.708 526.673C474.998 526.801 493.632 518.618 498.322 502.101C483.028 488.718 466.637 478.675 451.853 471.971C434.188 463.942 412.343 451.911 396.106 437.814C387.822 442.53 378.569 448.087 372.196 450.636C389.071 477.401 420.628 497.462 444.537 517.216H444.512Z" fill="#00A2D0"/>
<path d="M414.357 514.564C425.802 522.517 440.485 526.545 454.402 526.672C446.577 517.547 438.522 510.256 431.384 505.745C409.132 491.649 381.526 465.725 372.171 450.609C361.414 456.345 333.043 460.933 316.704 460.092C318.004 469.447 318.565 482.141 318.794 492.592C331.82 501.335 347.7 502.202 364.6 498.403C376.963 495.625 396.871 502.456 414.306 514.539L414.357 514.564Z" fill="#DDD9AC"/>
<path d="M140.949 273.274C141.102 275.39 142.937 278.831 144.467 280.105C164.043 296.419 199.041 326.039 203.731 333.38C193.153 339.447 161.214 342.505 145.486 343.984L135.749 345.003C124.661 345.564 126.241 362.617 135.622 363.968C140.643 364.682 152.929 367.766 162.743 369.678C178.726 372.762 208.269 378.09 212.679 382.627C203.935 394.301 172.302 413.445 161.469 419.562C158.716 421.117 157.212 423.692 157.212 426.547C157.212 427.872 157.518 429.223 158.18 430.599C160.347 435.137 165.955 438.476 171.588 436.233C182.116 432.027 230.802 425.807 247.575 429.682C248.747 429.962 251.067 430.013 253.131 427.413C263.557 414.362 260.141 343.576 244.363 310.719C238.5 298.535 232.459 292.162 224.404 292.162C210.996 292.162 183.926 278.398 168.428 270.139L154.204 262.568C145.971 257.929 140.567 267.998 140.924 273.299L140.949 273.274Z" fill="#0E141B"/>
<path d="M161.596 428.968C161.01 427.744 160.016 424.711 163.33 422.85C171.741 418.084 207.657 396.035 216.349 383.035L216.859 382.27L216.553 381.403C214.641 375.693 197.69 371.538 160.424 364.376C150.686 362.489 142.249 360.884 137.508 359.584C134.424 358.742 133.226 355.556 133.379 352.956C133.506 351.197 134.322 349.056 136.259 348.776L145.843 347.782C170.747 345.411 198.098 342.327 207.249 335.674L208.192 334.986L208.014 333.838C206.765 325.936 147.908 276.817 147.296 276.307C145.971 275.211 146.277 271.668 147.908 269.017C148.775 267.615 150.635 265.448 153.312 266.621L163.89 272.076C180.79 281.074 209.084 296.138 223.435 296.138C229.91 296.138 235.824 301.593 240.998 312.35C256.624 344.876 258.816 414.336 250.226 425.068C249.308 426.215 248.696 426.062 248.441 426.011C231.184 422.035 181.045 428.433 170.212 432.74C166.643 434.168 163.024 431.95 161.596 428.968Z" fill="#00B9EF"/>
<path d="M215.125 377.81C217.216 360.707 137.89 358.336 133.378 353.824C133.506 356.22 134.78 358.82 137.508 359.56C142.274 360.86 150.686 362.465 160.424 364.352C197.69 371.514 214.641 375.695 216.553 381.379L216.859 382.246L216.349 383.01C215.457 384.361 214.259 385.789 212.857 387.293C216.706 384.54 218.847 381.507 215.151 377.81H215.125Z" fill="#00A2D0"/>
<path d="M215.125 330.679C220.071 321.758 147.398 273.785 149.361 267.26C148.723 267.795 148.239 268.458 147.882 268.993C146.225 271.644 145.945 275.187 147.271 276.283C147.857 276.768 206.739 325.913 207.988 333.815V333.866C212.857 332.999 216.272 331.826 215.125 330.679Z" fill="#00A2D0"/>
<path d="M197.894 342.633C197.894 413.318 250.276 462.565 321.751 462.692C396.361 462.82 447.443 410.182 447.443 341.741C447.443 273.3 388.892 220 321.955 220C255.018 220 197.894 275.696 197.894 342.633Z" fill="#0E141B"/>
<path d="M205.363 342.072C205.363 277.862 257.592 225.658 321.777 225.658C385.961 225.658 438.19 277.888 438.19 342.072C438.19 373.603 426.669 402.586 405.741 423.743C384.406 445.307 354.583 457.16 321.751 457.16C253.208 457.16 205.337 409.825 205.337 342.072H205.363Z" fill="#00B9EF"/>
<path d="M251.398 436.284C270.439 449.616 294.451 457.161 321.776 457.161C354.608 457.161 384.431 445.282 405.767 423.743C409.972 419.486 405.231 407.378 408.647 402.51C405.665 403.325 363.045 436.718 304.137 426.725C286.651 423.769 276.098 426.241 251.398 436.259V436.284Z" fill="#00A2D0"/>
<path d="M221.83 309.446C214.004 317.501 209.951 334.401 210.486 351.454C211.2 374.726 222.849 395.144 235.416 395.144C247.983 395.144 256.139 378.907 256.139 352.346C256.139 325.785 245.561 303.762 232.918 303.762C229.247 303.762 225.092 306.132 221.83 309.472V309.446Z" fill="#0E141B"/>
<path d="M213.519 351.325C213.035 335.164 217.394 319.895 224.633 312.452C227.284 309.699 230.216 308.246 233.045 308.246C243.623 308.246 252.57 328.001 252.57 351.35C252.57 374.699 245.663 391.803 235.365 391.803C225.067 391.803 214.157 372.125 213.519 351.299V351.325Z" fill="white"/>
<path d="M223.614 354.665C223.614 371.667 231.439 384.999 240.539 384.999C249.639 384.999 255.884 372.534 255.884 355.353C255.884 338.173 249.282 324.357 240.539 324.357C230.369 324.357 223.614 335.471 223.614 354.691V354.665Z" fill="#0E141B"/>
<path d="M227.743 355.379C227.743 340.467 232.892 327.875 240.182 327.875C247.473 327.875 252.775 340.518 252.775 356.042C252.775 371.565 247.371 382.857 240.182 382.857C232.994 382.857 227.743 370.265 227.743 355.353V355.379Z" fill="#E60021"/>
<path d="M246.988 358.87C247.498 364.656 246.249 369.423 244.236 369.525C242.222 369.627 240.157 365.013 239.647 359.227C239.137 353.441 240.361 348.674 242.4 348.572C244.439 348.47 246.479 353.084 246.988 358.87Z" fill="#0E141B"/>
<path d="M304.876 359.584C304.876 391.37 319.61 408.142 339.9 406.333C358.788 404.65 372.196 383.621 371.559 354.027C370.896 324.305 356.01 302.333 337.784 301.772C321.445 301.262 304.876 316.837 304.876 359.609V359.584Z" fill="#0E141B"/>
<path d="M308.343 359.201C306.661 340.441 311.274 322.776 320.4 313.115C325.319 307.915 331.131 305.366 337.708 305.57C354.021 306.08 366.308 326.472 366.919 354.027C367.531 381.48 356.57 400.929 339.619 402.433C321.343 404.064 311.121 389.917 308.368 359.176L308.343 359.201Z" fill="white"/>
<path d="M324.147 327.518C319.712 327.875 315.888 329.965 312.753 333.687C306.89 340.671 304.112 353.06 305.361 366.824C307.222 387.599 318.794 404.83 330.622 404.473C334.777 404.346 338.626 402.409 341.761 398.84C348.134 391.626 351.447 377.862 350.198 363.765C348.236 342.048 337.071 326.473 324.173 327.518H324.147Z" fill="#0E141B"/>
<path d="M314.716 337.05C317.214 334.093 320.196 332.462 323.637 332.181C334.317 331.315 343.672 345.029 345.38 364.121C346.527 376.815 343.647 389.076 338.039 395.397C335.541 398.227 332.635 399.705 329.449 399.807C319.814 400.113 309.923 384.564 308.292 366.542C307.17 354.154 309.566 343.142 314.69 337.05H314.716Z" fill="#E60021"/>
<path d="M317.672 366.926C317.953 373.681 320.018 379.085 322.235 379.008C324.478 378.932 326.059 373.426 325.778 366.671C325.498 359.942 323.433 354.512 321.19 354.589C318.947 354.665 317.367 360.197 317.647 366.951L317.672 366.926Z" fill="#0E141B"/>
<path d="M257.312 358.693C247.574 371.336 228.839 392.875 176.992 392.875C167.025 386.222 154.076 382.807 143.651 387.319C131.874 392.417 126.368 407.864 137.686 436.464C148.978 465.038 174.927 472.073 192.286 455.403C197.155 451.248 257.057 424.585 285.912 434.475C314.766 444.366 267.074 346.075 257.337 358.693H257.312Z" fill="#00B9EF"/>
<path d="M208.651 434.805C200.112 437.66 195.268 446.021 191.674 455.911C191.878 455.733 192.082 455.554 192.261 455.376C197.129 451.221 257.031 424.558 285.886 434.448C295.165 437.634 320.757 433.378 311.733 430.064C302.71 426.75 287.033 421.525 277.066 421.04C267.1 420.556 217.215 431.976 208.651 434.805Z" fill="#00A2D0"/>
<path d="M177.476 390.962C168.275 384.997 154.561 380.537 142.912 385.584C135.876 388.617 120.506 400.852 135.29 438.246C141.331 453.54 153.949 464.17 166.414 466.897C176.635 469.115 187.239 464.705 195.422 456.854C199.322 450.482 260.982 428.331 285.631 435.34C288.767 436.233 294.578 434.856 286.116 432.588C255.553 424.456 198.735 447.678 193.637 452.037C186.322 459.072 174.8 463.737 165.853 461.799C154.637 459.352 145.537 449.564 139.42 435.774C128.918 411.991 132.435 394.76 144.11 389.79C154.637 385.329 166.388 389.484 173.831 394.378C181.275 399.272 181.045 400.75 184.104 400.75C185.175 400.75 180.918 395.448 180.918 395.448C226.545 394.735 254.431 368.25 258.892 359.737C263.353 351.223 258.28 355.403 255.757 357.646C247.778 364.682 232.051 390.809 177.476 390.988V390.962Z" fill="#0E141B"/>
<path d="M416.829 288.901C424.323 291.577 420.143 292.877 435.437 285.587C450.731 278.271 515.196 241.056 519.172 240.393C523.174 239.73 534.467 249.034 527.151 255.687C519.835 262.34 444.741 322.828 445.404 329.456C443.416 334.783 444.053 340.926 454.045 342.736C461.361 344.062 535.129 360.681 541.12 361.344C547.11 362.007 551.086 375.313 539.794 376.638C528.502 377.963 453.382 376.638 444.741 379.952C436.1 383.265 441.427 387.93 443.416 390.581C445.404 393.232 505.892 451.069 509.869 453.72C513.845 456.371 510.531 469.014 501.89 465.013C486.214 457.773 422.845 413.905 406.837 418.493C370.233 428.995 389.937 279.316 416.804 288.875L416.829 288.901Z" fill="#00B9EF"/>
<path d="M436.61 318.902C433.806 326.983 438.318 330.959 444.588 335.139C444.333 333.279 444.69 331.316 445.404 329.43C444.741 322.777 519.835 262.314 527.151 255.661C530.363 252.755 529.98 249.339 528.222 246.459C513.157 256.681 439.414 310.822 436.61 318.902Z" fill="#00A2D0"/>
<path d="M434.265 373.095C430.696 379.646 434.188 383.572 440 387.777C440.331 386.401 441.682 381.124 444.741 379.952C453.382 376.638 528.477 377.964 539.794 376.638C544.739 376.052 546.753 373.197 546.957 370.087C533.116 371.158 440 362.619 434.265 373.095Z" fill="#00A2D0"/>
<path d="M396.31 410.106C355.729 429.147 401.968 419.894 406.863 418.492C422.87 413.904 486.239 457.798 501.915 465.012C505.943 466.872 508.798 465.114 510.327 462.412C501.788 466.133 419.608 399.17 396.335 410.08L396.31 410.106Z" fill="#00A2D0"/>
<path d="M518.867 238.532C516.904 239.628 441.708 280.489 434.622 283.879C423.049 289.411 423.151 288.111 417.925 286.122C412.7 284.134 411.808 288.289 416.447 290.736C421.112 293.183 424.043 293.081 436.253 287.269C443.441 283.828 517.184 242.814 519.529 242.228C526.208 239.552 529.853 250.487 525.876 254.26C525.876 254.26 447.545 318.316 444.461 328.028C444.053 326.575 443.135 325.658 442.294 325.862C440.127 326.397 442.345 335.293 443.9 338.02C445.582 341.003 449.125 343.246 453.994 344.138C456.849 344.648 537.271 362.236 540.89 363.205C546.32 364.658 544.127 374.216 539.539 374.752C535.333 375.236 448.412 375.542 443.186 377.607C438.955 379.263 438.139 381.558 437.578 383.699C436.788 386.681 439.592 388.873 441.147 390.785C441.147 390.785 504.949 451.222 508.824 455.301C511.347 457.952 505.969 464.834 502.68 463.33C498.169 461.24 419.684 413.14 406.429 416.683C401.28 418.06 401.892 420.66 407.245 420.354C422.157 419.512 496.435 464.605 501.1 466.746C506.351 469.167 510.812 467.128 512.622 463.891C514.686 460.22 515.655 455.556 511.016 451.554C507.141 448.214 443.671 387.573 443.671 387.573C442.727 386.426 442.625 382.807 445.404 381.736C450.425 379.799 535.588 379.034 539.998 378.524C546.524 377.76 548.843 373.401 548.843 369.552C548.843 365.065 548.384 360.324 542.776 359.203C539.31 358.514 456.671 339.805 453.739 339.269C450.018 338.581 446.373 335.599 446.729 331.138C454.045 318.469 528.425 257.114 528.425 257.114C530.414 255.305 535.206 249.977 531.841 243.528C529.496 239.016 525.112 235.091 518.892 238.583L518.867 238.532Z" fill="#0E141B"/>
<path d="M178.496 418.594C185.506 433.964 184.41 450.711 174.902 455.045C165.394 459.403 151.069 449.692 144.059 434.347C137.049 419.002 137.483 400.241 146.99 395.907C156.498 391.549 171.486 403.249 178.496 418.594Z" fill="#0E141B"/>
<path d="M397.355 436.285C414.561 451.248 439.21 463.636 457.053 472.277C522.945 504.242 566.227 563.456 560.186 642.093C556.388 691.493 526.004 738.217 467.223 739.924C418.69 741.326 392.282 715.071 390.676 678.748C389.122 643.342 420.092 617.011 444.359 614.36C478.414 610.638 498.169 635.568 498.169 658.33C498.169 681.093 483.92 688.918 467.453 689.581C448.921 690.32 433.016 673.522 437.4 654.532C438.267 650.785 441.147 650.352 440.586 655.169C438.776 670.617 451.522 685.707 467.784 684.05C485.245 682.266 492.433 672.019 492.433 658.764C492.433 635.338 470.894 616.017 444.639 619.891C420.653 623.434 395.392 649.715 397.278 678.519C399.827 717.748 432.965 734.597 466.943 732.481C521.212 729.091 550.322 683.948 552.769 642.424C557.127 567.993 521.645 510.513 454.733 476.101C443.569 470.366 405.333 452.217 394.525 438.834L397.38 436.285H397.355Z" fill="#0E141B"/>
<path d="M318.973 459.863C323.102 475.463 322.49 497.129 321.827 514.666C320.4 553.666 345.482 628.098 398.604 652.314L397.024 658.049C346.043 639.9 316.424 572.045 316.424 514.361C316.424 499.398 317.061 475.182 313.875 459.557L318.973 459.863Z" fill="#0E141B"/>
<path d="M373.777 449.973C384.177 467.382 411.043 488.208 432.71 503.808C474.183 533.682 503.063 584.102 489.349 637.555L485.271 632.202C493.886 586.014 470.232 539.877 430.161 508.269C413.592 495.218 383.004 475.03 369.953 451.451L373.777 449.973Z" fill="#0E141B"/>
<path d="M319.508 471.562C332.355 481.121 370.055 475.513 378.39 460.219L380.71 462.666C370.794 479.285 334.649 484.562 319.916 475.232L319.508 471.536V471.562Z" fill="#0E141B"/>
<path d="M318.973 506.101C344.794 517.444 388.51 511.556 402.606 482.191L405.614 484.511C390.83 514.36 347.19 521.829 318.973 509.389V506.101Z" fill="#0E141B"/>
<path d="M438.777 512.271C413.567 554.279 352.543 561.595 322.643 548.289L321.853 543.828C359.604 558.638 415.631 544.618 435.922 509.799L438.777 512.271Z" fill="#0E141B"/>
<path d="M336.917 589.021C377.268 608.98 444.512 577.755 465.159 541.074L467.402 544.898C442.294 587.976 375.892 611.223 339.161 594.604L336.917 589.021Z" fill="#0E141B"/>
<path d="M408.825 637.581C394.908 640.207 381.347 640.207 369.774 637.046L364.421 630.75C379.384 636.307 397.304 635.746 414.968 631.081L408.851 637.581H408.825Z" fill="#0E141B"/>
<path d="M487.208 588.41C479.739 599.728 469.39 609.541 457.614 617.443L448.769 616.959C464.649 607.732 478.133 595.726 486.086 582.93L487.208 588.41Z" fill="#0E141B"/>
</g>
<defs>
<clipPath id="clip0_42_69096">
<rect width="463.871" height="520" fill="white" transform="translate(128 220)"/>
</clipPath>
</defs>
</svg>
