<svg width="800" height="800" viewBox="0 0 800 800" fill="none" xmlns="http://www.w3.org/2000/svg">
<g clip-path="url(#clip0_42_69144)">
<path d="M620.049 287.294C622.369 275.833 622.032 257.115 618.324 257.789C614.616 258.463 604.881 283.645 596.275 292.985C588.007 295.721 572.144 300.004 564.549 302.978C569.506 276.547 587.868 229.137 595.621 209.784C598.258 203.181 596.235 197.173 587.352 205.818C574.801 218.053 547.358 251.424 529.849 281.167C532.824 256.381 539.01 219.163 541.746 205.481C543.075 198.878 541.092 196.895 535.144 199.533C529.195 202.17 512.678 210.101 481.943 235.561C470.046 235.561 473.04 194.1 478.315 133.444C478.969 125.85 476.847 120.436 470.383 128.487C455.512 146.987 419.483 199.87 401.638 233.241C398.326 233.896 394.043 228.938 390.395 222.673C386.746 216.407 372.549 189.955 369.238 185.335C365.926 180.715 361.267 178.713 359.661 188.31C356.032 209.784 352.721 238.218 349.746 272.918C339.832 253.744 324.961 214.761 315.701 181.707C313.381 173.438 307.769 167.49 306.441 182.044C305.112 196.578 311.735 258.721 328.589 306.31C318.021 300.698 308.106 298.041 304.141 297.724C300.175 297.387 298.192 299.052 302.495 304.327C306.798 309.621 336.203 346.958 339.515 359.847C333.229 359.192 325.635 359.192 322.006 359.847C318.377 360.501 318.695 362.662 323.156 364.883C327.618 367.104 337.274 372.577 341.24 376.027C338.266 378.505 332.198 380.706 325.813 380.706C278.978 332.622 231.905 243.691 215.09 205.997C207.912 189.896 203.907 200.821 205.176 210.2C208.388 233.995 221.277 300.42 247.054 341.565C212.85 335.378 137.144 307.975 109.245 296.197C98.1018 291.478 95.9603 297.684 101.076 305.12C131.553 349.496 182.869 389.55 242.85 425.083C233.095 437.476 187.311 459.287 160.066 470.193C155.109 472.176 151.679 477.886 159.412 480.107C193.775 490.021 285.66 486.71 353.077 470.193C345.027 475.943 341.795 477.767 338.841 481.475C337.056 483.716 337.948 485.58 338.88 488.594C321.907 499.44 264.999 549.943 274.299 631.26C281.893 697.686 337.75 740.972 401.201 738.989C466.398 736.947 497.826 696.516 502.327 653.072C506.293 614.743 492.81 590.433 468.619 571.12C478.811 566.024 488.408 562.475 493.523 549.031C498.48 547.048 506.967 546.473 505.738 530.987C505.183 524.067 505.083 511.496 503.418 504.556C508.375 500.59 508.712 497.953 508.038 493.65C507.384 489.347 506.392 483.736 505.064 477.787C543.729 508.858 574.047 524.305 604.206 535.627C612.138 538.601 614.775 534.973 610.492 528.35C606.189 521.747 592.983 498.131 585.052 481.098C582.732 476.141 582.018 472.433 588.026 468.547C628.695 442.155 662.899 418.103 695.18 367.342C698.075 362.801 699.641 353.819 689.489 358.498C676.601 364.447 623.48 383.344 604.226 388.162C601.252 388.896 593.975 390.224 595.303 379.973C598.278 379.318 601.748 375.511 597.524 372.795C602.898 356.853 610.829 329.251 614.616 312.318C624.035 305.616 646.184 292.073 645.846 288.444C645.509 284.815 638.252 285.47 620.069 287.294H620.049Z" fill="#00B9EF"/>
<path d="M416.767 422.584C410.858 451.395 398.723 479.829 383.098 499.975C351.432 540.802 353.593 566.916 373.382 585.694C401.796 576.117 422.299 587.023 468.559 571.16C478.553 567.154 489.042 559.917 493.682 548.02C500.959 545.7 505.163 542.388 504.925 536.777C504.588 529.5 504.707 511.198 503.398 504.575C507.026 501.938 509.009 500.272 508.018 493.67C507.026 487.067 503.715 468.884 499.749 456.987C502.387 455.341 502.724 451.375 500.086 444.752C497.449 438.15 489.181 423.278 475.638 406.424C461.103 413.701 442.504 421.87 416.767 422.584Z" fill="#FFFBC7"/>
<path d="M214.06 204.013C208.686 193.425 204.899 199.552 205.137 205.996C206.604 243.948 227.682 309.105 247.015 341.584C221.495 338.114 136.47 306.884 109.206 296.216C98.4391 292.013 97.3089 297.961 101.037 304.386C131.493 357.189 209.598 405.511 242.811 425.102C225.957 444.693 174.164 464.263 159.035 470.708C149.339 474.852 156.814 479.135 162.505 480.622C187.41 487.126 229.427 485.579 253.241 483.398C261.311 480.265 268.588 474.555 271.979 470.391C256.631 475.328 240.094 475.824 223.181 474.773C235.137 470.43 238.607 468.031 243.842 464.779C241.502 464.779 238.568 464.819 236.228 464.561C242.474 461.963 253.459 455.499 261.014 449.769C254.252 450.8 250.901 450.205 241.007 448.896C250.782 445.426 262.342 439.934 269.897 434.977C255.065 424.051 226.948 400.098 208.488 383.442C224.886 388.637 245.706 392.028 261.846 393.852C257.94 390.462 255.045 387.983 250.881 382.252C259.566 382.748 263.77 382.986 268.727 381.757C257.821 374.579 242.97 364.665 227.087 349.04C245.686 352.51 257.147 355.068 272.514 355.325C265.753 345.689 260.558 335.973 255.343 323.996C263.413 332.324 269.917 337.361 279.018 344.122C270.174 328.517 262.877 307.697 257.682 286.877C240.848 258.264 222.011 219.599 214.079 203.974L214.06 204.013Z" fill="#FFFBC7"/>
<path d="M537.682 500.589C546.783 504.238 558.541 507.609 568.694 509.691C563.697 504.198 555.745 495.771 548.706 487.958C557.689 490.715 561.198 490.516 573.69 495.196C571.688 492.202 569.447 488.692 567.107 484.707C568.674 484.964 570.498 484.707 571.787 484.449C569.189 481.851 565.025 476.636 563.459 473.781C570.756 470.39 578.291 465.969 585.33 462.598C581.939 462.598 578.31 462.082 574.662 461.824C583.763 457.918 596.394 449.907 611.761 440.806C602.343 442.531 599.111 442.531 591.179 442.789C600.023 437.058 613.486 425.439 633.731 411.341C619.931 418.102 600.935 420.521 585.191 420.779C593.182 413.542 595.938 410.786 603.017 404.322C590.783 408.486 574.92 410.568 557.986 412.392C566.433 400.911 573.076 391.79 580.749 380.21C586.817 379.794 591.278 379.536 594.748 379.298C593.023 385.484 595.165 390.977 604.167 388.221C622.013 382.768 675.133 364.545 688.438 359.231C694.625 356.753 702.021 357.129 695.121 367.401C674.558 398.135 635.853 440.647 589.295 468.031C585.092 470.509 581.86 474.475 584.338 479.69C586.817 484.905 602.68 516.472 609.62 528.032C612.594 532.989 611.722 538.62 602.442 534.972C587.332 529.023 553.981 513.914 537.682 500.649V500.589Z" fill="#FFFBC7"/>
<path d="M576.843 379.973C568.555 386.179 557.986 392.96 548.35 399.087C552.395 393.872 556.816 387.408 561.218 380.369C565.501 380.25 571.569 380.449 576.823 379.992L576.843 379.973Z" fill="#FFFBC7"/>
<path d="M587.134 330.64C583.743 339.384 578.33 350.548 572.144 361.771C578.152 363.892 592.27 369.603 597.484 372.815C602.184 357.19 612.594 323.997 614.577 312.338C603.671 319.774 598.099 323.422 587.134 330.64Z" fill="#FFFBC7"/>
<path d="M620.049 287.293C621.279 277.379 622.766 258.819 618.324 257.788C615.112 257.034 603.711 285.786 596.275 292.984C604.206 290.763 613.625 288.522 620.069 287.273L620.049 287.293Z" fill="#FFFBC7"/>
<path d="M291.648 398.016C288.337 409.893 285.383 437.554 287.088 441.044C289.408 445.763 308.106 452.604 311.338 448.995C315.145 444.712 300.076 398.412 291.668 398.016H291.648Z" fill="#0E141B"/>
<path d="M478.473 318.008C470.76 330.421 464.197 343.567 459.874 346.204C455.552 348.841 429.794 357.487 420.396 362.563C434.87 368.015 462.511 372.893 472.842 365.002C483.173 357.11 483.748 339.819 478.473 318.008Z" fill="white"/>
<path d="M579.917 379.24C572.996 389.669 566.889 398.295 559.731 407.932C555.805 413.206 554.893 414.416 562.765 413.523C574.305 412.195 586.579 410.47 597.088 407.694C593.876 410.807 590.683 413.741 587.273 416.577C580.135 422.525 581.979 422.625 592.309 422.307C598.119 422.129 613.704 419.63 623.738 416.795C612.297 425.401 601.926 433.391 594.153 438.785C586.896 443.821 587.848 444.971 594.471 444.456C601.093 443.94 603.85 443.068 606.546 442.473C596.315 448.501 584.933 455.005 577.755 458.534C569.963 462.361 570.716 463.154 577.041 463.372C578.965 463.432 581.78 463.67 581.78 463.67C581.78 463.67 569.526 469.142 565.581 471.006C561.079 473.128 561.635 473.683 564.113 476.995C566.592 480.306 570.22 484.272 570.22 484.272C570.22 484.272 566.473 482.983 565.699 483.875C564.926 484.767 570.141 491.668 570.141 491.668C570.141 491.668 570.855 492.639 571.311 493.234C568.396 492.183 560.147 489.903 553.108 487.761C545.157 485.362 544.027 485.858 550.749 493.036C555.567 498.191 561.159 503.763 565.957 508.244C556.876 505.845 544.384 502.613 537.364 499.817C536.492 499.48 536.254 501.84 537.126 502.197C544.483 505.131 554.714 508.086 564.966 510.227C574.246 512.17 570.756 509.811 565.858 505.23C561.317 500.313 556.598 494.979 551.74 489.784C554.576 490.835 563.003 493.214 568.416 494.86C576.367 497.299 577.735 498.013 572.54 491.231C570.399 488.416 568.733 485.937 568.733 485.937C570.32 486.274 573.195 486.77 573.849 486.274C574.84 485.521 567.762 477.332 565.898 474.496C568.416 473.207 577.894 468.607 582.574 465.97C588.483 462.658 591.794 460.676 582.772 461.112C581.305 461.191 579.56 461.231 578.568 461.171C585.746 457.523 597.782 450.96 607.26 445.368C619.118 438.388 614.676 439.36 607.439 440.312C603.77 440.788 599.329 440.966 595.423 441.68C605.257 434.859 633.811 410.608 633.017 410.985C622.865 415.962 595.502 419.194 589.355 419.333C592.27 416.954 594.491 413.959 597.227 411.382C608.133 401.111 605.753 402.32 594.372 405.096C584.279 407.575 572.6 409.082 561.654 410.311C568.832 400.536 575.158 391.751 582.177 381.183C582.375 380.905 580.452 378.546 579.936 379.319L579.917 379.24ZM566.83 486.373C566.83 486.373 567.008 486.373 567.107 486.393C567.008 486.393 566.929 486.393 566.83 486.373Z" fill="#FFFBC7"/>
<path d="M575.832 379.199C569.705 383.779 562.408 388.082 554.992 392.841C557.471 389.292 560.029 385.425 562.646 381.261C562.824 380.983 560.703 378.901 560.346 379.476C557.491 384.017 554.457 388.28 551.621 392.028C544.999 400.852 546.506 400.752 556.182 395.518C565.045 390.719 571.47 386.099 577.835 381.32C578.588 380.765 576.566 378.624 575.812 379.179L575.832 379.199Z" fill="#FFFBC7"/>
<path d="M584.894 331.551C581.642 339.958 577.022 349.416 570.677 360.937C570.22 361.75 572.62 363.376 573.076 362.563C579.5 350.904 585.409 339.78 588.721 331.234C589.058 330.361 585.231 330.678 584.913 331.551H584.894Z" fill="#FFFBC7"/>
<path d="M415.677 422.247C409.708 451.356 397.851 479.631 380.639 500.63C348.378 539.97 353.217 567.194 372.232 586.924C372.886 587.598 375.226 585.119 374.552 584.485C352.979 564.022 356.131 537.511 384.427 501.026C399.952 481 413.694 453.696 418.413 422.941C418.552 422.029 415.855 421.355 415.677 422.267V422.247Z" fill="#FFFBC7"/>
<path d="M256.017 287.333C259.566 301.49 265.792 321.735 275.35 339.779C269.659 335.298 263.274 329.984 258.238 325.007C253.221 320.05 252.13 321.557 255.164 327.962C259.269 336.646 263.71 345.331 269.223 353.481C257.841 353.025 246.221 351.28 232.797 348.583C224.271 346.878 222.685 347.136 229.189 353.243C241.641 364.922 254.034 374.737 265.475 381.162C262.005 381.201 258.475 381.657 254.926 381.201C249.116 380.468 248.303 380.963 251.516 385.028C253.399 387.408 255.124 389.847 256.889 391.591C244.358 390.005 225.124 387.546 209.003 382.431C208.25 382.193 207.556 384.394 207.932 384.731C225.163 400.653 251.873 423.515 266.922 434.857C260.895 438.446 252.547 442.392 244.556 445.783C236.803 449.055 235.97 450.006 244.417 450.938C248.997 451.454 252.606 451.751 256.532 451.672C249.513 456.51 241.225 461.388 236.446 463.371C230.953 465.651 235.911 465.354 240.352 465.869C240.352 465.869 234.919 469.082 227.305 471.957C216.062 476.2 221.594 476.22 227.741 476.24C240.154 476.319 254.371 476.398 266.288 473.563C262.699 476.597 257.742 480.205 250.782 482.605C250.108 482.843 251.654 485.341 252.527 485.004C259.923 482.01 265.118 478.46 269.044 475.129C276.163 469.082 275.31 469.042 266.645 470.707C257.96 472.373 240.65 474.019 228.395 473.979C234.384 471.877 238.29 469.379 242.553 467.158C247.094 464.759 246.876 463.668 241.443 463.668C241.443 463.668 253.776 457.125 258.813 453.615C265.554 448.936 264.622 448.499 256.215 449.075C252.567 449.332 248.522 448.797 244.913 448.44C251.952 445.981 261.688 441.143 267.438 437.871C271.979 435.294 271.899 434.976 266.883 431.189C252.963 420.621 230.319 401.545 215.15 387.17C230.24 391.235 244.695 393.416 255.561 394.764C264.464 395.855 264.503 394.605 259.467 390.203C257.405 388.379 255.224 385.762 253.38 383.462C256.691 383.878 261.053 384.096 264.027 383.938C272.732 383.462 273.387 382.589 264.305 377.176C253.558 370.771 241.006 360.778 229.883 350.408C242.216 353.54 255.323 356.118 266.387 356.792C275.35 357.328 276.202 358.081 270.095 348.901C265.832 342.516 261.569 335.496 258.376 329.112C261.965 332.443 266.764 336.805 270.967 340.136C280.703 347.889 282.131 347.255 276.46 335.834C268.211 319.197 262.144 300.281 258.694 286.5C258.475 285.588 255.957 287.174 255.977 287.313L256.017 287.333ZM262.6 451.236C262.6 451.236 262.421 451.236 262.342 451.236C262.421 451.236 262.52 451.236 262.6 451.236Z" fill="#FFFBC7"/>
<path d="M372.053 413.898L366.283 418.3C369.198 421.394 379.846 428.116 392.16 434.818C397.216 435.531 403.819 435.789 412.702 435.274C413.832 431.09 414.843 426.866 415.716 422.643C399.139 423.912 383.792 421.969 372.073 413.898H372.053Z" fill="#00A2D0"/>
<path d="M475.539 406.482C462.016 414.315 431.698 423.932 415.696 422.663C414.824 426.886 413.812 431.11 412.682 435.293C434.712 434.024 465.287 428.096 480.992 413.403C480.734 413.046 475.519 406.502 475.519 406.502L475.539 406.482Z" fill="#DDD9AC"/>
<path d="M382.622 406.721C403.006 414.871 465.962 407.633 486.326 389.966C490.014 389.113 501.395 386.674 507.364 385.861C495.705 393.456 487.02 400.475 475.519 406.463C453.152 418.103 401.935 434.084 372.034 413.879C374.552 411.857 378.716 409.675 382.602 406.701L382.622 406.721Z" fill="#00A2D0"/>
<path d="M417.263 580.697C433.443 579.805 454.342 575.106 467.29 571.576C530.841 615.715 498.778 695.148 463.463 719.279C407.626 757.429 320.757 733.695 292.521 683.39C308.701 704.586 353.712 705.459 366.957 695.445C399.694 710.892 448.929 697.785 457.951 655.372C462.908 632.073 457.891 599.733 417.282 580.697H417.263Z" fill="#00A2D0"/>
<path d="M338.979 671.472C397.672 707.263 472.426 670.144 434.395 591.662C457.931 606.296 474.29 653.884 440.839 684.856C405.802 717.296 355.576 699.232 338.979 671.472Z" fill="#00A2D0"/>
<path d="M360.275 633.799C372.51 653.211 420.891 666.199 418.909 626.621C426.225 634.215 425.809 653.568 408.538 661.559C391.287 669.55 365.887 656.523 360.275 633.779V633.799Z" fill="#00A2D0"/>
<path d="M287.663 441.957C290.974 446.062 302.039 450.127 308.721 450.642C315.403 451.158 323.097 449.651 327.062 446.676C336.461 439.637 356.052 419.908 375.385 411.223C359.284 422.129 340.447 442.949 331.762 453.616C328.629 457.463 324.088 459.069 318.873 459.803C313.658 460.537 294.226 458.474 285.918 453.359C273.585 445.784 282.25 418.52 287.306 405.691C288.218 404.422 289.467 403.351 290.736 404.065C289.111 410.747 284.55 438.13 287.643 441.957H287.663Z" fill="#00A2D0"/>
<path d="M480.913 330.42C474.905 343.011 464.931 354.294 455.73 356.931C446.53 359.568 434.117 362.007 426.225 364.823L420.217 362.76C431.678 356.376 452.359 351.478 457.812 347.532C463.265 343.586 473.973 323.282 478.117 317.65C479.049 320.843 480.179 325.542 480.932 330.44L480.913 330.42Z" fill="#DCDDDD"/>
<path d="M505.202 475.17C498.48 522.699 424.46 572.984 375.365 584.366C440.561 578.655 477.145 578.417 494.336 548.02C500.622 544.709 506.233 543.063 506.233 536.123C506.233 529.183 504.707 509.216 503.378 504.596C510.199 501.106 509.981 494.939 505.202 475.19V475.17Z" fill="#DDD9AC"/>
<path d="M460.886 345.648C464.137 354.571 461.104 368.114 454.421 368.114C448.195 368.114 445.082 360.262 445.261 353.719C445.261 353.719 454.56 350.506 455.611 350.07C456.642 349.634 460.886 345.648 460.886 345.648Z" fill="#0E141B"/>
<path d="M454.897 350.369C455.968 354.91 454.243 358.34 452.577 358.34C450.912 358.34 449.306 355.108 449.663 352.392L454.897 350.369Z" fill="white"/>
<path d="M342.489 375.372C337.234 370.475 327.439 364.645 322.462 362.384C321.411 361.909 321.709 361.274 322.581 361.175C325.456 360.858 333.229 361.472 338.464 361.73C341.696 361.889 341.537 360.144 340.427 357.487C333.388 340.633 318.02 321.637 303.05 301.868C301.939 300.4 302.653 299.647 303.863 299.766C312.746 300.658 324.306 305.695 331.345 311.742L329.343 306.488C321.808 300.48 313.519 296.871 304.973 295.582C296.943 294.372 292.739 295.582 299.917 305.06C314.332 324.096 330.77 342.496 337.968 358.815C331.781 357.844 327.181 357.725 323.473 357.844C314.749 358.102 314.174 362.741 322.244 366.271C326.923 368.333 334.26 372.676 339.792 377.058L342.489 375.392V375.372Z" fill="#0E141B"/>
<path d="M483.55 234.747C481.051 234.589 476.63 230.702 475.876 223.683C473.992 205.738 476.828 160.886 480.675 131.896C482.499 118.135 477.641 115.974 468.163 127.177C446.014 153.371 391.981 237.008 380.917 275.574C377.13 288.78 375.801 303.652 376.515 327.367C376.693 333.176 378.855 333.355 379.013 327.525C379.608 304.901 381.095 289.772 384.942 276.467C395.987 238.217 450.892 155.473 472.961 129.398C475.281 126.642 476.431 127.534 476.015 130.608C472.148 159.736 470.066 206.095 471.97 224.159C472.485 228.997 474.468 234.906 480.397 237.543L483.53 234.727L483.55 234.747Z" fill="#0E141B"/>
<path d="M352.582 346.721C353.553 350.25 355.536 349.893 354.803 346.304C353.177 338.512 350.48 325.385 349.945 320.369C347.466 297.348 356.191 226.203 362.278 187.953C362.913 183.968 364.578 183.333 367.334 187.596C373.442 197.094 386.846 222.693 392.18 229.811C395.015 233.579 397.831 235.086 401.102 234.828L402.946 231.457C400.389 232.25 398.088 231.061 394.956 226.56C388.71 217.597 378.24 196.242 372.549 186.546C364.34 172.547 359.76 173.816 357.321 189.064C351.214 227.452 343.282 297.209 346.514 320.388C347.585 328.122 350.817 340.336 352.582 346.741V346.721Z" fill="#0E141B"/>
<path d="M349.627 271.431C340.209 251.365 325.516 209.963 317.584 180.973C312.825 163.564 305.152 166.122 304.081 182.421C303.169 196.241 312.687 280.116 336.521 329.231C338.583 333.495 340.367 332.801 338.603 328.399C317.981 276.646 307.293 205.957 309.018 180.021C309.276 176.214 311.576 175.818 312.528 179.724C320.38 211.45 338.722 258.047 349.132 277.875L349.627 271.431Z" fill="#0E141B"/>
<path d="M332.535 456.729C345.979 441.937 359.363 423.318 381.631 409.081C386.291 406.107 385.021 404.362 380.144 406.96C356.567 419.57 341.319 439.815 328.926 453.477C326.606 456.035 322.72 457.8 318.834 457.8C304.617 457.8 290.836 453.874 286.216 450.225C281.913 446.835 280.406 444.198 280.406 440.172C280.406 432.122 283.063 403.906 285.839 396.887C288.456 390.244 291.649 388.995 297.696 388.737C327.261 387.468 352.8 374.738 365.014 359.748C367.215 357.051 365.609 355.762 363.091 358.181C350.084 370.693 327.162 383.701 295.872 383.185C289.329 383.086 284.173 386.179 281.159 393.833C278.264 401.229 276.718 432.499 276.718 440.906C276.718 444.673 277.888 449.313 282.984 452.605C288.357 456.075 302.138 462.678 319.171 462.341C325.516 462.222 328.57 461.111 332.555 456.729H332.535Z" fill="#0E141B"/>
<path d="M290.618 398.175C286.81 406.602 284.134 435.889 284.907 440.41C285.621 444.474 292.898 448.5 298.926 450.403C301.424 451.196 310.347 453.259 313.262 450.542C316.177 447.845 304.438 407.712 296.388 399.404C293.136 396.053 288.536 396.588 287.465 399.067C286.374 401.565 287.326 402.378 289.091 400.296C290.201 398.988 291.986 398.651 294.583 401.625C301.761 409.893 310.426 445.862 309.356 447.429C308.959 448.004 305.667 448.5 299.719 446.616C293.017 444.494 288.694 441.956 288.278 439.597C287.584 435.571 289.21 408.446 292.838 398.75L290.618 398.175Z" fill="#0E141B"/>
<path d="M349.627 371.148C346.019 356.951 348.914 346.422 351.729 338.688L350.936 333.414C346.455 340.671 341.161 357.248 346.316 373.388L349.608 371.148H349.627Z" fill="#0E141B"/>
<path d="M505.361 386.596C498.956 389.174 492.294 393.497 488.031 396.689C453.767 422.387 392.298 427.284 374.056 412.968L370.031 416.002C392.695 433.154 453.767 427.146 491.501 398.85C496.497 395.103 507.364 387.112 516.286 385.129L505.361 386.596Z" fill="#0E141B"/>
<path d="M468.519 256.063C449.187 273.413 410.6 313.328 407.209 319.514C403.482 326.335 400.765 335.714 400.111 355.047C399.952 359.727 402.272 359.866 402.708 355.206C404.235 339.244 408.28 328.556 411.849 321.993C415.081 316.084 454.045 274.424 470.582 257.748C473.635 254.675 471.732 253.168 468.519 256.063Z" fill="#0E141B"/>
<path d="M530.821 281.681C534.628 257.391 539.585 230.127 544.542 207.483C547.358 194.594 543.848 190.946 530.325 198.897C513.788 208.633 497.271 219.717 477.284 237.721C473.259 241.35 475.023 242.956 479.326 239.645C498.937 224.496 517.12 210.299 535.58 201.792C539.446 200.007 540.656 200.741 539.466 205.718C535.302 223.147 529.671 263.499 527.014 286.797L530.821 281.681Z" fill="#0E141B"/>
<path d="M566.175 301.847C571.132 279.203 586.004 239.546 597.405 211.469C603.175 197.232 596.791 195.427 585.568 205.183C562.606 225.17 523.544 281.543 495.843 347.116C494.079 351.28 495.843 352.212 497.767 348.107C527.093 285.072 565.045 229.076 591.001 206.829C593.202 204.945 594.193 205.639 593.122 208.157C581.126 236.453 565.719 280.333 562.21 303.334L566.175 301.847Z" fill="#0E141B"/>
<path d="M563.003 356.675C561.734 356.239 560.564 354.989 562.229 353.046C569.883 344.123 597.286 326.734 618.761 311.466C629.052 304.149 638.312 298.954 644.082 294.492C655.563 285.629 648.166 283.745 636.15 284.4C616.917 285.431 582.732 292.767 562.249 302.265C556.321 305.021 557.133 307.44 563.28 305.14C583.109 297.705 622.052 289.079 640.751 289.079C641.861 289.079 642.139 289.714 641.187 290.447C635.437 294.869 626.236 300.937 615.965 308.234C594.411 323.561 566.334 342.359 558.502 351.499C556.023 354.394 556.202 358.737 559.89 360.085C571.41 364.289 584.338 368.433 593.757 373.311C596.791 374.877 596.116 376.781 593.321 376.88C568.019 377.753 522.572 379.299 488.765 387.647C482.875 389.094 483.49 392.089 489.518 390.82C521.045 384.137 567.365 383.047 591.516 381.718C606.864 380.885 607.875 376.127 595.244 368.988C589.553 365.776 574.384 360.561 562.983 356.675H563.003Z" fill="#0E141B"/>
<path d="M484.779 306.785C474.627 318.523 464.931 336.408 463.463 338.51C459.22 344.598 455.393 347.83 448.037 349.971C440.264 352.232 427.554 357.01 415.161 363.792C411.076 366.032 412.425 367.976 416.648 365.993C430.191 359.667 442.167 355.94 449.861 353.719C457.792 351.419 462.254 348.762 467.37 340.989C468.857 338.728 478.93 318.186 486.504 308.232C488.923 305.04 487.416 303.731 484.799 306.765L484.779 306.785Z" fill="#0E141B"/>
<path d="M477.105 320.189C480.456 334.704 482.142 354.671 473.734 361.532C462.67 370.574 437.071 366.053 422.576 362.008L418.452 363.356C439.986 371.744 465.545 372.616 476.391 363.792C488.824 353.64 482.003 324.988 479.366 315.906L477.125 320.209L477.105 320.189Z" fill="#0E141B"/>
<path d="M533.537 382.471C519.717 397.937 500.899 413.741 486.444 421.375L488.665 424.587C506.332 415.248 527.608 396.51 539.466 382.947L533.517 382.451L533.537 382.471Z" fill="#0E141B"/>
<path d="M599.031 374.064C604.663 356.615 612.257 332.067 617.63 309.859L611.94 313.885C606.943 334.288 600.459 356.159 595.68 372.22L599.011 374.064H599.031Z" fill="#0E141B"/>
<path d="M593.162 380.845C591.199 387.23 595.542 393.02 601.748 391.394C629.151 384.216 676.184 366.648 690.362 360.819C693.931 359.351 696.092 360.858 693.396 365.161C668.193 405.671 625.879 444.872 586.48 467.397C581.166 470.431 579.659 474.674 582.177 480.286C589.058 495.593 599.924 516.632 608.014 529.778C610.135 533.248 608.966 534.378 604.663 532.812C578.132 523.195 546.803 508.165 503.676 473.822L504.846 479.81C544.205 511.873 573.036 527.339 599.507 536.956C618.682 543.916 618.206 536.004 612.396 526.546C604.365 513.499 593.341 494.82 586.163 479.275C584.16 474.952 585.33 472.513 589.93 469.876C629.627 447.192 672.1 409.954 697.5 369.147C709.298 350.19 701.01 350.627 686.436 356.615C672.318 362.425 627.961 379.894 600.618 387.052C596.573 388.103 595.958 383.701 597.068 380.35L593.142 380.845H593.162Z" fill="#0E141B"/>
<path d="M622.27 287.889C623.896 278.351 624.65 270.182 624.015 264.491C622.726 252.891 616.5 252.871 610.968 263.004C606.011 272.046 600.32 282.991 593.122 294.392L599.229 293.242C605.634 284.319 611.622 272.422 616.758 263.242C618.066 260.882 618.8 261.576 619.078 263.4C619.99 269.071 619.197 277.994 617.353 288.583L622.25 287.889H622.27Z" fill="#0E141B"/>
<path d="M501.574 465.394C537.107 465.216 608.153 438.09 656.733 395.439C660.103 392.484 658.021 390.779 654.532 393.615C603.176 435.155 534.509 461.646 500.325 461.052L501.554 465.394H501.574Z" fill="#0E141B"/>
<path d="M328.133 381.421C283.321 332.881 245.19 265.82 217.192 204.947C210.352 190.075 201.865 193.188 202.737 207.485C205.256 248.332 223.795 307.302 246.856 345.035C250.544 351.063 253.142 349.636 249.81 343.41C227.801 302.345 212.275 255.014 207.437 205.363C207.001 200.902 209.717 199.989 211.918 204.847C239.837 266.574 279.732 335.141 324.267 383.324L328.133 381.441V381.421Z" fill="#0E141B"/>
<path d="M364.717 419.868C372.906 425.896 380.342 430.635 389.205 434.859C394.261 437.278 395.273 435.156 390.494 432.241C382.384 427.324 375.999 423.814 367.612 417.33L364.717 419.868Z" fill="#0E141B"/>
<path d="M245.944 339.621C231.548 338.233 146.662 308.688 111.605 294.352C96.6942 288.264 92.0543 295.343 99.4702 307.895C122.015 346.065 181.323 394.149 255.62 433.687C260.696 436.384 261.727 433.905 256.75 431.07C182.492 388.557 125.069 340.652 103.138 302.878C100.224 297.842 102.286 295.998 107.263 298.04C141.309 311.96 234.126 344.062 247.669 343.229L245.944 339.601V339.621Z" fill="#0E141B"/>
<path d="M241.383 424.17C228.495 438.724 185.784 456.272 158.757 468.031C143.946 474.475 147.534 479.452 161.375 483.299C208.547 496.386 320.38 484.845 376.158 465.314C380.342 463.847 379.648 461.527 375.405 462.737C316.137 479.888 206.981 490.556 160.145 477.568C156.794 476.636 156.556 474.991 159.095 473.841C191.375 459.187 232.421 441.877 244.992 426.113L241.403 424.17H241.383Z" fill="#0E141B"/>
<path d="M279.87 419.946C226.611 395.954 170.377 357.982 130.284 322.746C127.052 319.911 125.108 321.755 128.122 324.848C160.939 358.418 219.016 396.747 279.176 425.577L279.87 419.946Z" fill="#0E141B"/>
<path d="M335.608 449.432C344.65 452.704 353.573 455.658 362.298 458.236C366.957 459.604 367.81 457.066 363.249 455.341C354.961 452.188 346.673 448.916 338.424 445.506L335.608 449.412V449.432Z" fill="#0E141B"/>
<path d="M337.988 486.215C301.345 514.986 266.565 558.51 269.837 624.142C272.712 681.844 319.567 743.729 406.674 739.822C472.009 736.888 508.811 689.458 506.67 631.995C505.678 605.166 486.643 580.916 468.361 570.387L463.642 572.231C477.621 578.616 499.174 602.866 500.543 631.697C503.12 685.869 467.449 732.724 406.079 735.46C327.102 739.009 278.998 681.903 276.182 623.766C273.049 559.065 307.254 516.334 339.971 489.586L338.008 486.235L337.988 486.215Z" fill="#0E141B"/>
<path d="M409.529 580.935C439.431 589.204 456.464 613.415 457.237 637.784C458.387 673.733 430.012 698.598 398.703 699.253C360.533 700.046 335.232 674.844 335.014 645.874C334.776 615.219 352.76 591.921 376.654 586.725C383.812 585.179 392.715 584.862 403.164 584.247C433.205 582.482 482.796 580.38 499.333 547.465L491.045 550.677C473.318 577.961 423.588 578.298 402.431 579.547C391.882 580.162 382.166 581.253 374.829 582.839C348.12 588.649 329.382 613.553 329.382 645.894C329.382 675.3 356.429 704.15 398.703 703.337C428.704 702.762 464.514 680.812 463.285 637.784C462.531 611.769 441.235 586.23 416.945 580.281L409.549 580.935H409.529Z" fill="#0E141B"/>
<path d="M372.093 585.575C357.123 596.183 350.123 623.764 361.445 643.95C375.603 669.172 403.304 669.112 413.634 661.439C426.265 652.02 430.806 635.245 421.129 623.606C410.422 610.737 392.556 617.598 389.642 625.192C388.412 628.404 390.673 629.951 392.358 626.977C395.491 621.425 409.926 617.558 417.144 625.985C423.687 633.619 424.322 647.222 411.394 657.493C398.882 667.427 376.793 660.328 365.431 640.837C354.585 622.218 364.618 593.387 381.016 583.592L372.093 585.594V585.575Z" fill="#0E141B"/>
<path d="M445.459 468.666C457.059 470.57 472.109 468.012 478.89 464.76C479.425 462.202 479.842 457.324 479.921 455.679C480.04 453.438 481.012 453.2 482.281 454.429C483.728 455.837 485.215 457.959 486.96 460.299C492.889 458.018 496.141 456.412 498.282 455.361C500.543 454.231 500.563 451.872 499.532 448.6C496.538 439.221 485.87 421.117 473.596 407.832L477.661 405.215C490.331 418.936 501.336 438.685 504.172 448.6C505.758 454.132 504.528 456.967 501.098 458.673C498.778 459.823 493.96 462.301 486.643 465.038C486.147 465.216 485.414 465.038 485.176 464.344C484.422 462.083 483.014 459.149 482.182 457.979C482.102 459.287 481.032 467.239 481.032 467.239C481.012 467.635 480.794 467.952 480.437 468.151C473.536 471.779 456.048 474.555 443.694 472.295C443.199 472.196 442.822 471.799 442.782 471.304C442.604 469.459 442.009 464.264 441.87 462.381C440.542 465.058 439.154 468.071 438.004 470.768C437.805 471.224 437.329 471.502 436.834 471.442C425.254 470.074 411.136 466.009 404.89 457.84C404.711 457.622 404.632 457.344 404.652 457.067C404.83 454.727 406.992 449.71 408.697 446.835C410.838 443.286 412.207 444.575 410.62 447.985C409.629 450.146 408.657 453.914 408.38 455.956C413.813 462.579 425.393 465.831 436.16 467.239C438.202 463.788 439.114 461.964 441.216 458.673C442.445 456.749 443.397 456.789 443.932 459.486C444.488 462.381 444.825 465.038 445.459 468.686V468.666Z" fill="#0E141B"/>
<path d="M392.635 478.897C394.123 476.994 395.134 476.795 395.233 479.512C395.352 482.863 395.61 485.956 395.471 491.647C404.77 499.321 415.696 503.782 426.939 506.895C428.664 502.929 430.528 498.964 431.777 496.604C432.927 494.403 434.117 493.987 434.494 497.1C434.95 500.867 435.287 503.505 435.981 508.62C450.475 514.45 469.808 512.903 478.116 507.748C478.989 503.405 479.723 499.697 480.833 496.723C481.646 494.542 482.915 494.8 483.926 496.723C485.037 498.825 487.019 502.791 488.507 507.014C495.823 505.626 501.95 503.227 503.854 501.542C505.5 500.094 506.293 498.964 506.114 497.179C505.123 486.214 500.463 466.187 497.291 457.443L501.118 455.4C504.35 464.264 510.001 486.155 511.012 497.259C511.29 500.352 509.406 502.335 506.947 504.496C504.449 506.677 495.526 510.246 487.654 511.515C487.099 511.614 486.544 511.258 486.405 510.722C485.076 506.062 483.668 501.978 482.399 499.519C481.428 502.85 480.992 506.32 480.674 509.612C480.575 510.524 480.397 511.158 479.762 511.515C470.78 516.552 451.903 519.308 434.176 512.745C433.78 512.606 433.502 512.249 433.443 511.852C432.927 508.263 432.749 504.397 432.451 501.462C430.905 504.833 429.398 508.303 428.485 510.663C428.287 511.198 427.712 511.495 427.157 511.337C414.982 508.105 404.949 503.703 392.338 494.443C392.041 494.225 391.882 493.888 391.882 493.531C391.882 493.491 391.882 493.471 391.882 493.432C392.457 489.605 392.913 485.679 392.953 482.962C391.267 485.798 388.392 490.259 388.392 490.259C388.114 490.735 387.48 491.032 387.004 490.755C382.443 488.276 378.478 483.22 375.246 477.152C374.076 474.951 375.424 474.138 376.852 476.161C379.905 480.464 383.415 484.092 387.381 486.571C388.61 484.588 391.228 480.622 392.576 478.877L392.635 478.897Z" fill="#0E141B"/>
<path d="M352.641 493.472C354.565 492.916 355.299 493.63 354.367 495.454C353.058 498.052 352.007 501.026 350.203 504.536C354.426 512.547 362.139 518.713 368.286 523.928C373.838 521.569 375.9 519.645 379.39 517.881C382.047 516.532 382.087 517.107 381.671 519.249C380.877 523.294 380.441 525.812 379.529 531.186C389.899 541.417 409.173 548.08 420.495 550.201C422.359 547.108 425.551 543.717 427.038 541.239C428.367 539.018 429.755 538.939 430.072 541.576C430.449 544.55 431.361 550.578 431.718 553.433C449.385 556.289 463.86 554.028 473.992 551.49C475.539 548.179 477.125 543.856 477.998 540.783C478.533 538.919 479.881 539.018 480.595 540.783C481.507 543.063 482.32 545.125 483.451 549.21C491.58 547.128 496.795 545.284 500.404 543.122C501.594 542.409 503.002 541.159 503.24 537.749C503.656 532.098 503.081 516.314 501.415 506.777L505.103 504.695C507.126 517.068 509.029 532.712 508.534 538.661C508.256 542.032 506.749 544.907 504.37 546.335C500.404 548.714 491.66 552.085 482.638 554.345C481.666 554.583 481.071 553.969 480.972 553.255C480.635 550.439 479.822 545.998 479.227 544.114C478.612 547.247 477.105 552.7 476.174 554.742C476.015 555.079 475.757 555.357 475.4 555.456C465.01 558.093 445.34 561.087 429.16 556.526C428.704 556.408 428.367 556.011 428.347 555.555C428.228 553.195 427.911 548.337 427.673 544.986C427.058 546.473 424.441 551.45 423.231 554.028C423.013 554.484 422.537 554.722 422.041 554.643C410.858 552.819 385.795 544.074 376.931 533.625C375.702 532.177 375.048 531.344 375.623 529.242C376.614 525.713 377.645 523.948 378.359 521.549C377.05 522.778 374.869 524.702 370.804 527.26C368.346 528.826 366.918 528.231 364.697 526.328C360.692 522.858 351.531 514.649 345.761 505.369C345.523 504.992 345.523 504.377 345.801 503.822C346.673 502.097 348.815 499.4 350.817 496.942C348.934 497.913 345.523 499.579 343.798 500.332C342.985 500.669 342.231 500.531 341.914 499.936C340.368 497.14 336.957 491.251 335.668 488.277C333.229 482.725 333.249 482.487 336.442 479.473C337.175 478.779 345.543 473.227 347.585 472.334L354.525 471.006C350.401 472.909 342.192 480.801 340.328 482.427C339.079 483.498 340.011 485.441 340.744 487.126C342.251 490.636 342.925 493.095 344.234 495.712C346.257 494.979 349.628 494.324 352.602 493.452L352.641 493.472Z" fill="#0E141B"/>
<path d="M475.539 299.389C463.681 299.23 457.832 302.978 448.532 312.357C443.06 317.889 416.549 343.052 412.881 353.858C410.957 359.509 412.345 360.461 414.844 355.365C419.146 346.581 444.547 322.509 448.889 317.889C457.316 308.966 463.761 303.533 475.499 302.205C482.697 301.372 482.717 299.468 475.519 299.369L475.539 299.389Z" fill="#0E141B"/>
</g>
<defs>
<clipPath id="clip0_42_69144">
<rect width="607.151" height="620" fill="white" transform="translate(96 120)"/>
</clipPath>
</defs>
</svg>
