<svg width="800" height="800" viewBox="0 0 800 800" fill="none" xmlns="http://www.w3.org/2000/svg">
<g clip-path="url(#clip0_42_69203)">
<path d="M331.844 279.401C318.673 285.919 310.58 296.911 312.825 314.623C315.523 335.97 305.033 338.551 294.527 343.343C282.731 348.722 266.209 354.519 263.913 372.365C261.148 393.729 271.806 399.628 279.999 403.046C268.639 400.901 256.876 398.119 253.943 393.227C252.016 390.009 251.932 380.994 251.413 376.102C250.324 365.813 247.324 356.279 229.328 356.932C197.374 358.088 197.307 373.974 196.452 383.726C196.184 386.792 195.949 389.44 194.86 390.73C191.794 394.366 188.744 394.483 184.119 394.651C178.272 394.885 167.581 393.729 156.79 402.359C147.071 410.134 138.928 429.135 140.117 443.63C140.855 452.695 147.088 459.096 155.299 463.721C174.133 474.311 172.842 478.064 168.586 490.447L166.207 497.719C159.99 518.464 163.375 540.113 176.361 552.848C186.13 562.432 200.524 565.649 210.544 562.432C222.089 558.729 226.748 550.2 230.568 544.335C234.053 539.007 236.55 535.17 242.683 534.55C248.548 533.963 252.318 537.164 256.607 542.408C272.643 562.013 284.222 571.397 351.683 545.559L362.927 541.252C418.256 520.005 429.784 515.581 451.099 525.451C463.448 531.165 470.62 541.738 477.557 551.943C487.141 566.052 493.526 582.59 514.387 577.848C519.263 576.742 536.606 561.712 544.348 563.488C550.648 564.929 553.162 571.632 558.155 581.602C563.567 592.409 575.313 599.162 586.909 598.274C599.191 597.319 618.997 583.26 612.714 549.982C611.021 541.051 609.061 533.209 612.596 527.127C620.673 513.236 643.596 529.087 654.956 501.791C660.318 488.905 663.837 469.82 652.342 455.728C647.584 449.897 639.758 444.216 635.201 440.161C623.588 429.856 616.584 423.639 624.678 407.888C629.939 397.667 630.442 385.77 624.007 375.699C614.423 360.719 592.924 351.972 572.23 352.861C553.882 353.648 544.398 361.524 536.07 370.706C525.229 382.637 511.472 355.29 495.218 375.8C497.48 368.578 499.173 361.272 499.173 354.57C499.173 345.806 497.866 336.908 490.241 331.949C475.513 322.381 466.581 328.011 459.343 332.284C453.511 335.736 446.491 339.824 436.47 335.702C420.485 329.134 433.136 305.691 411.47 291.097C405.454 287.042 399.037 291.968 395.216 294.431C389.871 297.866 385.95 300.447 373.265 287.377C362.139 275.932 345.131 272.832 331.844 279.401Z" fill="#0E141B"/>
<path d="M302.218 408.089C300.492 405.207 296.119 403.916 290.573 402.291C278.625 398.772 265.991 390.696 270.147 371.945C273.615 356.345 284.758 352.357 296.236 347.129C308.385 341.6 319.846 336.372 317.349 319.716C315.121 304.886 322.845 289.923 336.133 283.354C347.896 277.523 360.329 280.053 370.266 290.275C384.19 304.601 391.329 301.904 398.584 297.245C402.522 294.715 404.75 293.509 408.571 295.804C417.066 300.898 419.379 309.394 421.607 317.588C423.97 326.301 426.416 335.316 436.403 339.053C448.417 343.56 455.338 339.455 461.454 335.835C468.156 331.864 473.954 328.446 486.521 336.606C497.614 343.811 497.815 359.076 487.208 386.104L486.069 394.432C491.113 387.093 501.435 373.772 507.685 372.833C511.053 372.331 514.521 373.571 518.308 376.587C529.032 385.166 534.981 379.05 541.264 372.582C547.716 365.946 555.742 357.686 572.431 356.982C591.701 356.161 608.977 363.986 617.774 377.76C623.387 386.523 625.566 397.113 621.008 405.961C611.44 424.577 621.175 433.223 632.469 443.244C636.926 447.198 641.953 451.672 646.511 457.252C656.9 470.003 656.85 488.72 651.169 500.115C641.534 519.468 619.031 508.627 609.262 524.663C604.603 532.32 607.067 541.453 608.709 550.953C612.362 571.983 597.18 590.75 586.523 591.571C576.57 592.342 566.985 587.667 562.327 578.333C556.697 567.09 551.955 560.287 546.107 558.645C539.823 556.885 533.523 561.292 528.01 564.761C524.24 567.14 520.352 569.587 516.18 570.542C498.083 574.647 490.56 563.588 481.042 549.579C474.122 539.392 466.28 527.863 452.891 521.663C429.985 511.04 416.832 516.1 361.485 537.347L350.242 541.654C285.361 566.487 270.515 550.886 259.657 539.509C254.798 534.415 250.575 530.762 242.683 531.55C234.573 532.354 230.786 536.459 227.133 542.022C223.296 547.887 219.341 553.953 209.204 557.22C200.608 559.985 188.51 555.947 179.796 547.401C172.826 540.564 162.336 525.199 170.228 498.875L172.558 491.753C177.3 477.946 173.496 469.015 157.376 460.05C150.305 456.112 146.418 450.147 145.798 442.406C144.742 429.453 153.455 413.953 162.118 407.016C171.82 399.241 178.456 398.99 184.32 398.772C189.197 398.588 193.821 398.404 198.077 393.377C200.021 391.081 200.323 387.663 200.641 384.06C201.445 374.777 202.468 363.198 230.736 362.176C244.861 361.657 245.766 370.152 246.905 380.91C247.458 386.037 248.011 391.332 250.424 395.337C254.898 402.794 270.632 405.592 285.864 408.307C291.159 409.245 296.152 410.133 299.973 411.138L304.916 412.445L302.285 408.072L302.218 408.089Z" fill="white"/>
<path d="M533.037 540.968C550.631 531.367 523.335 517.627 532.719 506.366C542.102 495.106 565.612 523.692 581.044 513.773C595.974 504.171 594.382 485.505 582.636 475.903C570.89 466.302 611.49 462.431 602.375 446.027C597.046 436.425 578.916 428.952 583.708 423.623C591.852 414.575 583.708 385.754 562.914 393.227C542.119 400.701 571.979 433.225 542.639 421.495C513.298 409.766 509.042 430.024 510.098 442.307C511.12 453.969 479.484 464.995 480.757 444.435C482.349 418.831 460.482 437.498 466.883 415.631C473.284 393.764 425.277 393.227 446.608 378.834C467.939 364.44 434.225 342.389 420.468 360.167C407.666 376.706 392.2 367.104 391.128 353.23C389.117 327.09 374.438 308.658 355.923 324.426C330.855 345.757 370.316 364.423 362.29 375.466C356.174 383.861 325.962 371.21 326.968 394.166C327.973 417.122 354.096 412.698 334.575 435.37C319.645 452.713 283.166 408.107 258.401 441.955C251.044 452.009 240.17 444.954 238.36 425.081C236.55 405.208 218.135 397.986 208.366 408.828C198.614 419.669 197.173 429.421 198.966 438.101C200.775 446.764 222.09 449.663 206.188 466.285C190.286 482.907 193.855 490.481 208.517 493.916C223.179 497.351 257.278 481.45 256.306 502.228C255.334 523.005 264.55 551.944 307.027 553.938C349.505 555.932 332.313 548.542 350.158 541.706L361.402 537.399C416.748 516.135 429.902 511.092 452.808 521.715C459.477 524.798 484.444 588.473 493.509 556.485C502.574 524.48 515.376 550.62 532.97 541.019L533.037 540.968Z" fill="#F5B090"/>
<path d="M579.436 441.769C565.193 428.364 575.163 468.965 557.032 454.035C537.394 437.865 546.895 480.175 531.965 473.774C503.831 461.726 504.233 487.112 491.431 471.109C478.629 455.107 485.365 488.888 474.541 485.604C463.699 482.319 458.907 474.31 463.163 468.445C473.15 454.722 462.091 458.844 463.163 436.977C464.236 415.11 441.933 418.679 446.089 412.445C460.633 395.823 424.758 398.571 428.494 386.842C432.231 375.112 422.63 372.967 416.229 377.24C409.828 381.513 382.632 359.646 385.296 367.103C387.542 373.403 403.326 388.919 394.311 395.337C385.296 401.772 407.7 400.699 405.555 412.429C403.427 424.158 394.948 418.427 385.849 423.169C376.751 427.895 396.49 438.954 385.816 437.496C362.34 434.296 362.876 482.839 355.42 456.699C347.947 430.559 321.354 445.539 310.379 448.187C299.42 450.834 288.746 443.897 276.481 441.769C266.326 440.01 261.132 465.261 245.012 452.443C228.893 439.624 233.283 463.117 246.085 471.646C258.887 480.175 259.49 464.457 282.362 474.846C307.983 486.676 271.688 496.177 281.29 513.788C290.891 531.382 339.284 545.893 350.209 541.704L361.452 537.398C416.798 516.134 429.952 511.09 452.858 521.714C453.914 522.2 455.439 524.227 457.282 527.143C474.44 521.244 506.713 535.018 514.002 520.943C521.291 506.867 521.308 494.652 542.086 496.73C550.397 498.808 580.81 516.536 574.09 496.73C564.489 468.462 597.549 458.86 579.419 441.786L579.436 441.769Z" fill="#ED6D46"/>
<path d="M384.794 402.676C379.415 394.834 383.051 387.311 379.365 383.071C375.678 378.832 368.222 381.496 365.541 388.433C362.877 395.371 366.127 409.362 370.903 410.904C375.678 412.445 390.156 410.535 384.777 402.676H384.794Z" fill="#ED6D46"/>
<path d="M545.102 404.938C541.097 401.487 543.812 398.169 541.064 396.292C538.316 394.415 532.769 395.605 530.792 398.655C528.798 401.704 531.228 407.888 534.78 408.558C538.332 409.228 549.107 408.39 545.102 404.938Z" fill="#F5B090"/>
<path d="M222.944 434.28C218.939 430.828 221.654 427.51 218.906 425.634C216.158 423.757 210.611 424.93 208.634 427.996C206.64 431.046 209.07 437.229 212.622 437.899C216.175 438.57 226.949 437.732 222.944 434.28Z" fill="#ED6D46"/>
<path d="M387.977 370.823C404.466 380.19 421.993 388.585 437.308 408.19C461.454 439.122 450.093 479.287 440.676 491.854L442.72 493.228C455.606 476.036 466.481 440.613 443.139 410.703C427.321 390.445 406.862 376.771 390.022 367.22C363.345 352.073 353.107 345.269 359.357 313.6C361.251 304.032 359.24 301.636 356.861 309.428C346.019 344.851 361.402 355.742 387.977 370.84V370.823Z" fill="#0E141B"/>
<path d="M291.829 407.789C310.161 411.961 324.755 423.204 334.29 437.917C338.613 444.586 343.539 447.267 337.909 435.872C332.262 424.461 313.311 407.068 296.42 404.873L291.829 407.789Z" fill="#0E141B"/>
<path d="M481.026 419.116C481.461 430.192 481.981 437.883 474.424 448.255C466.883 458.644 470.854 457.488 477.389 451.154C486.89 441.955 485.634 430.41 485.164 418.931C484.695 407.169 484.796 393.596 496.475 380.258L490.292 382.486C479.987 393.445 480.506 406.482 481.009 419.099L481.026 419.116Z" fill="#0E141B"/>
<path d="M196.821 649.901C187.923 668.602 182.025 686.447 191.341 696.199C195.547 700.606 202.283 701.26 212.103 697.104C223.966 692.094 229.68 695.177 236.265 698.662C241.879 701.645 248.414 705.767 255.904 703.723C261.232 702.265 263.561 697.305 266.242 693.837C269.141 690.1 271.638 686.866 276.514 686.464C280.402 686.145 286.97 685.576 290.103 681.822C300.962 668.836 301.347 636.48 300.124 623.577C298.398 605.48 296.622 586.78 280.334 583.731C261.97 580.296 210.276 621.583 196.804 649.885L196.821 649.901Z" fill="#0E141B"/>
<path d="M195.765 692.178C190.604 686.765 193.067 670.947 202.233 650.89C215.035 622.857 264.567 585.021 279.58 587.836C291.896 590.148 293.991 603.034 295.985 623.996C297.325 638.021 293.186 666.591 283.92 677.667C281.524 680.532 278.91 682.107 276.179 682.342C269.493 682.895 266.024 687.369 262.975 691.306C260.461 694.54 258.082 697.607 254.094 698.696C248.196 700.305 243.571 697.858 238.226 695.01C231.439 691.407 223.731 687.318 212.471 691.843C206.874 694.088 199.435 695.981 195.798 692.178H195.765Z" fill="white"/>
<path d="M295.985 623.995C293.991 603.05 291.897 590.147 279.581 587.835C270.448 586.126 248.514 599.481 229.865 616.522C226.094 634.552 229.663 660.156 245.984 651.811C262.305 643.466 258.417 656.989 266.762 662.2C275.107 667.411 282.664 669.455 289.768 666.908C294.879 653.52 296.99 634.602 295.985 623.995Z" fill="#F5B090"/>
<path d="M212.186 402.493C211.801 419.032 217.833 437.162 228.339 446.127C247.123 462.146 278.307 457.471 303.358 453.717L314.819 452.075C346.019 447.802 354.196 457.437 366.177 481.399L369.897 479.539C360.899 461.543 347.259 443.731 314.283 447.953L302.738 449.612C278.525 453.231 248.38 457.756 231.037 442.96C221.352 434.699 215.504 414.122 215.135 403.616C214.767 393.11 212.572 385.955 212.186 402.493Z" fill="#0E141B"/>
<path d="M566.868 416.1C575.263 441.352 584.094 469.101 548.168 487.399C524.81 499.296 481.897 482.807 471.608 510.908L474.39 511.997C491.9 484.483 526.787 506.384 552.743 489.074C587.763 465.733 578.883 439.107 570.806 414.793C566.081 400.584 562.579 384.112 566.919 376.12C571.258 368.127 567.957 365.329 563.065 375.516C558.172 385.704 561.858 401.036 566.868 416.1Z" fill="#0E141B"/>
<path d="M336.1 488.739C274.453 528.955 259.707 587.451 260.579 626.627C261.232 655.867 273.632 680.13 291.645 692.312C321.304 712.37 368.004 710.51 396.171 697.272C440.81 700.925 468.173 683.398 482.802 666.524C505.808 639.965 516.029 599.063 507.551 562.585C498.837 525.134 482.282 501.659 445.184 481.836C422.361 470.14 372.427 465.046 336.1 488.739Z" fill="#0E141B"/>
<path d="M292.885 687.117C276.28 675.438 265.371 654.342 264.751 626.526C263.897 588.389 282.681 530.311 338.463 492.174C372.88 468.631 421.356 474.295 443.307 485.538C474.105 501.306 493.224 526.826 501.753 563.522C509.93 598.727 501.267 636.479 479.115 662.05C465.074 678.27 442.168 694.205 404.583 693.585C404.583 693.585 410.8 689.899 412.073 687.871C413.347 685.844 410.364 686.48 403.058 689.647C368.523 704.628 322.578 707.979 292.902 687.117H292.885Z" fill="white"/>
<path d="M502.172 565.668C504.401 602.599 465.425 653.89 440.274 668.167C421.674 678.723 417.167 672.238 410.113 676.763C384.408 693.217 342.417 700.791 312.356 696.803C340.423 706.17 375.36 701.646 403.008 689.648C410.314 686.481 413.296 685.845 412.023 687.872C410.749 689.9 404.533 693.586 404.533 693.586C442.134 694.206 465.023 678.271 479.065 662.051C500.764 637 509.494 600.253 502.138 565.668H502.172Z" fill="#DCDDDD"/>
<path d="M313.965 516.873C309.089 526.642 316.612 536.562 313.194 546.264C309.776 555.966 276.179 564.193 291.444 577.548C306.709 590.903 294.041 612.653 309.759 617.613C331.509 624.483 318.539 596.617 352.89 594.338C374.489 592.897 350.98 576.023 370.065 566.858C393.457 555.631 343.339 551.492 363.195 540.148C379.214 530.982 391.681 533.797 392.2 521.833C393.34 495.509 421.205 540.148 425.78 509.618C430.354 479.088 460.382 510.556 458.136 500.854C456.344 493.079 450.831 489.393 443.274 485.522C421.34 474.279 372.847 468.632 338.429 492.158C335.513 494.152 338.329 491.638 335.664 498.609C330.738 511.528 320.818 503.133 313.948 516.873H313.965Z" fill="#F5B090"/>
<path d="M320.835 536.345C326.13 543.667 312.657 563.122 328.459 560.776C354.029 556.955 339.317 530.765 356.324 528.335C393.725 522.99 359.374 499.33 387.625 499.33C409.66 499.33 422.73 491.706 417.418 477.564C398.936 474.464 376.298 475.05 355.855 483.043C347.125 491.186 340.305 496.28 342.216 508.881C344.126 521.482 310.261 521.717 320.851 536.362L320.835 536.345Z" fill="#ED6D46"/>
<path d="M364.2 442.274C353.007 445.944 344.142 462.298 346.338 474.262C353.861 515.047 329.095 492.141 323.515 510.69C320.751 519.856 322.795 532.105 331.207 544.119C333 546.666 334.491 548.425 335.815 545.46C337.49 541.689 363.245 493.146 393.54 480.746C405.404 475.887 420.484 474.48 431.443 479.222L432.75 477.613C431.309 466.453 423.836 452.864 415.927 449.68C412.626 448.356 409.057 450.133 406.644 452.06C398.835 458.31 394.378 460.605 391.278 460.002C388.714 459.499 385.464 454.958 382.313 449.312C378.141 441.805 371.288 439.961 364.217 442.291L364.2 442.274Z" fill="#0E141B"/>
<path d="M326.264 518.615C326.264 516.236 326.616 514.074 327.353 512.248C328.559 509.282 330.704 507.522 333.737 507.02L335.346 506.768C344.059 505.445 351.314 502.73 351.314 485.454C351.314 482.12 351.046 478.249 350.46 473.725C350.359 473.004 350.326 472.267 350.326 471.513C350.326 461.711 358.017 449.864 366.73 447.015C371.958 445.289 376.265 447.384 379.499 453.232C383.336 460.152 386.52 463.286 390.457 464.073C395.668 465.095 401.5 461.476 409.224 455.293C410.464 454.304 411.989 454.204 413.916 454.991C419.144 457.103 425.646 465.43 427.941 474.831C416.983 471.044 405.555 471.329 393.892 476.104C364.753 488.035 341.294 524.161 333.569 540.298C328.978 533.042 326.264 525.05 326.264 518.615Z" fill="white"/>
<path d="M480.12 616.305C495.52 615.82 554.385 622.271 582.133 670.847C589.372 683.515 586.657 693.468 580.323 694.373C583.943 712.47 578.212 735.075 559.512 735.091C546.14 735.091 541.583 724.585 530.674 724.585C522.112 724.585 523.134 745.212 500.697 741.408C473.803 736.867 498.888 704.31 479.886 650.036C473.485 647.254 469.145 644.087 466.447 640.82L480.104 616.305H480.12Z" fill="white"/>
<path d="M515.594 709.471C537.411 709.421 527.055 684.638 527.893 679.125C528.748 673.612 532.987 662.57 545.722 664.262C557.3 665.804 560.367 659.168 559.73 645.16C530.272 620.696 486.454 617.127 480.121 616.289C473.787 615.451 462.107 639.63 465.928 643.25C469.748 646.852 473.502 647.255 479.903 650.019C485.265 665.335 487.108 678.907 487.611 690.62C498.821 690.151 493.76 709.504 515.594 709.454V709.471Z" fill="#F5B090"/>
<path d="M497.396 660.122C495.654 657.693 493.743 650.471 497.765 645.176C501.803 639.864 519.481 644.656 518.174 637.267C516.867 629.894 514.538 625.638 518.576 623.979C499.91 618.181 483.773 616.79 480.121 616.304C473.787 615.467 462.107 639.646 465.928 643.265C469.748 646.868 473.502 647.27 479.903 650.035C482.634 657.86 484.46 665.216 485.65 672.12C493.073 671.064 502.406 667.11 497.396 660.139V660.122Z" fill="#ED6D46"/>
<path d="M583.943 669.809C556.781 626.175 494.246 613.507 480.053 614.228C472.513 614.613 474.775 617.713 480.12 617.596C485.466 617.479 554.234 626.209 580.34 671.87C585.015 680.047 585.015 686.381 583.44 689.598C582.904 690.687 582.921 691.86 581.061 692.112C581.061 692.112 579.787 687.906 575.883 683.063C571.979 678.22 571.191 680.617 573.772 684.571C583.39 699.384 579.201 719.592 572.8 726.144C564.371 734.807 548.989 730.4 544.649 727.652C540.628 725.105 536.455 722.474 530.691 722.474C526.418 722.474 524.139 725.926 521.726 729.579C518.04 735.159 515.225 740.856 502.406 738.694C490.392 736.667 488.85 729.78 489.537 711.432C490.107 696.451 490.945 676.712 482.533 651.729C481.913 650.774 479.031 648.076 477.959 648.897C483.756 666.39 485.683 685.727 485.683 698.345C485.683 703.02 485.047 718.335 485.047 721.184C485.047 733.483 487.342 741.777 500.412 743.989C515.895 746.603 521.927 738.259 525.178 731.874C527.507 727.3 531.143 722.34 542.42 731.171C546.543 734.405 551.888 737.153 559.512 737.136C566.147 737.136 571.861 734.438 576.017 729.378C580.809 723.513 583.44 714.498 583.44 704.779C583.44 701.847 583.541 699.384 583.038 696.401C586.506 695.898 589.104 694.022 589.489 686.146C589.707 681.622 587.16 674.987 583.943 669.792V669.809Z" fill="#0E141B"/>
<path d="M286.065 507.488C287.155 513.068 305.302 589.008 306.24 591.253C312.524 606.334 354.415 591.253 340.591 566.689C335.966 558.478 293.22 509.566 289.668 505.712C286.116 501.858 284.993 501.909 286.065 507.488Z" fill="#0E141B"/>
<path d="M291.695 514.342C308.351 533.394 333.804 563.053 336.954 568.716C337.742 570.14 338.161 572.587 338.228 575.419C338.479 587.885 320.449 595.945 310.948 591.253C307.932 587.701 299.135 550.452 291.695 514.342Z" fill="#FBD8B5"/>
<path d="M300.911 659.1C293.002 660.458 288.327 670.327 288.327 670.327C289.885 675.404 293.622 680.448 298.197 683.096C309.775 689.815 320.114 689.362 327.654 688.541C335.982 687.637 342.836 680.515 343.841 675.689C343.841 675.689 334.876 660.19 321.924 661.781C315.137 662.619 312.373 661.631 309.222 660.592C306.809 659.787 303.76 658.598 300.911 659.084V659.1Z" fill="#0E141B"/>
<path d="M292.281 668.015C293.907 665.568 295.767 662.804 301.514 661.664C303.81 661.195 305.569 661.781 307.798 662.519C310.982 663.574 314.953 664.898 322.208 663.859C329.078 662.871 335.881 670.176 340.992 675.89C339.786 679.593 333.284 685.24 325.878 686.045C318.656 686.815 305.938 685.71 299.001 680.716C297.225 679.443 292.784 676.711 290.673 670.579C291.31 669.925 291.729 668.853 292.281 668.032V668.015Z" fill="#FADCE2"/>
<path d="M310.915 671.115C308.15 671.416 305.636 672.874 305.1 673.41C304.547 673.947 304.463 674.047 305.284 674.717C309.055 677.767 316.142 679.677 324.303 676.644C325.978 676.024 325.61 675.823 324.554 674.902C320.097 670.964 313.344 670.847 310.915 671.115Z" fill="#0E141B"/>
<path d="M311.133 673.175C312.607 673.007 317.282 672.857 321.488 675.37C315.305 677.314 310.278 675.571 307.832 673.996C308.586 673.661 309.608 673.326 311.133 673.158V673.175Z" fill="#EE869A"/>
<path d="M472.212 648.31C480.372 651.192 490.342 655.867 505.456 673.679C510.383 679.477 516.197 681.186 509.076 671.635C495.017 652.817 483.706 649.248 473.25 644.372C462.225 639.228 461.94 644.674 472.212 648.293V648.31Z" fill="#0E141B"/>
<path d="M343.824 634.537C343.824 643.987 347.36 652.399 353.761 658.213C360.011 663.894 368.657 667.278 377.538 666.424C400.729 664.212 410.984 648.143 410.833 632.459C410.649 612.535 395.048 595.059 377.069 595.059C358.034 595.059 343.824 615.903 343.824 634.537Z" fill="#0E141B"/>
<path d="M355.855 655.917C350.108 650.689 346.941 643.098 346.941 634.553C346.941 617.394 359.827 598.191 377.069 598.191C393.406 598.191 407.247 614.73 407.247 632.994C407.247 644.288 398.165 660.592 376.918 662.62C368.909 663.39 361.435 661.011 355.839 655.934L355.855 655.917Z" fill="white"/>
<path d="M350.577 638.96C350.577 651.712 360.212 662.687 371.104 662.687C381.995 662.687 390.843 652.164 390.843 639.412C390.843 626.661 383.369 615.099 370.316 615.836C359.441 616.439 350.577 626.208 350.577 638.96Z" fill="#0E141B"/>
<path d="M352.655 638.96C352.655 627.365 360.581 617.914 370.316 617.914C380.051 617.914 387.977 627.348 387.977 638.96C387.977 650.572 380.051 660.006 370.316 660.006C360.581 660.006 352.655 650.572 352.655 638.96Z" fill="#85CBBF"/>
<path d="M374.991 637.653C374.991 643.383 371.623 648.042 367.451 648.042C363.279 648.042 359.911 643.383 359.911 637.653C359.911 631.922 363.279 627.264 367.451 627.264C371.623 627.264 374.991 631.922 374.991 637.653Z" fill="#0E141B"/>
<path d="M384.542 628.555C384.542 632.341 381.828 635.408 378.476 635.408C375.125 635.408 372.411 632.341 372.411 628.555C372.411 624.768 375.125 621.701 378.476 621.701C381.828 621.701 384.542 624.768 384.542 628.555Z" fill="white"/>
<path d="M343.824 634.536C343.824 638.725 344.545 642.78 345.986 646.6L347.075 649.516L348.751 646.902C359.91 629.475 381.375 619.204 406.192 619.422H408.571L407.633 617.243C401.868 603.771 388.078 593.332 375.276 593.332C356.241 593.332 343.808 615.903 343.808 634.553L343.824 634.536Z" fill="#0E141B"/>
<path d="M346.941 634.535C346.941 617.377 359.827 598.174 377.069 598.174C387.944 598.174 397.73 605.245 403.293 616.354C379.767 616.79 359.827 626.459 348.081 642.578C347.393 639.981 346.924 637.317 346.924 634.535H346.941Z" fill="#F5B090"/>
<path d="M251.865 611.68C252.452 633.396 260.763 642.746 272.191 642.947C275.19 642.998 278.541 641.205 281.122 638.725C286.467 633.58 289.802 623.711 289.802 612.97C289.802 596.8 280.887 582.055 271.102 582.055C261.316 582.055 251.463 596.18 251.882 611.663L251.865 611.68Z" fill="#0E141B"/>
<path d="M272.71 639.227C259.623 638.707 254.982 624.062 254.982 611.679C254.982 596.749 263.645 585.188 271.085 585.188C278.139 585.188 286.668 597.587 286.668 612.986C286.668 622.755 283.635 631.988 278.96 636.495C276.983 638.389 274.872 639.311 272.71 639.227Z" fill="white"/>
<path d="M263.26 617.813C263.26 630.045 269.292 639.227 276.279 639.227C283.267 639.227 288.746 629.643 288.746 617.411C288.746 605.178 283.267 595.594 276.279 595.594C269.292 595.594 263.26 605.597 263.26 617.829V617.813Z" fill="#0E141B"/>
<path d="M265.89 617.393C265.89 606.686 270.649 597.654 276.279 597.654C281.909 597.654 286.668 606.703 286.668 617.393C286.668 628.084 281.909 637.132 276.279 637.132C270.649 637.132 265.89 628.084 265.89 617.393Z" fill="#85CBBF"/>
<path d="M278.876 629.877C282.319 629.877 285.11 625.338 285.11 619.739C285.11 614.14 282.319 609.602 278.876 609.602C275.434 609.602 272.643 614.14 272.643 619.739C272.643 625.338 275.434 629.877 278.876 629.877Z" fill="#0E141B"/>
<path d="M277.117 610.858C277.117 614.009 274.788 616.572 271.923 616.572C269.057 616.572 266.728 614.009 266.728 610.858C266.728 607.708 269.057 605.145 271.923 605.145C274.788 605.145 277.117 607.708 277.117 610.858Z" fill="white"/>
<path d="M256.942 592.359L256.088 593.817L257.613 594.554C269.627 600.352 278.659 610.54 285.244 625.738L287.02 629.843L288.176 625.537C289.249 621.549 289.802 617.326 289.802 612.986C289.802 596.816 283.233 580.848 273.447 580.848C268.37 580.848 260.746 585.908 256.959 592.343L256.942 592.359Z" fill="#0E141B"/>
<path d="M271.085 585.188C278.139 585.188 286.668 597.587 286.668 612.986C286.668 615.449 286.417 617.829 286.048 620.192C279.664 607.306 271.286 598.257 260.545 592.611C263.645 588.003 267.465 585.188 271.068 585.188H271.085Z" fill="#F5B090"/>
</g>
<defs>
<clipPath id="clip0_42_69203">
<rect width="520" height="468.508" fill="white" transform="translate(140 276)"/>
</clipPath>
</defs>
</svg>
