<svg width="800" height="800" viewBox="0 0 800 800" fill="none" xmlns="http://www.w3.org/2000/svg">
<g clip-path="url(#clip0_42_69263)">
<path d="M613.451 481.784C590.642 473.612 585.831 465.594 587.366 455.955C589.584 442.136 597.381 429.255 605.672 424.189C607.924 422.807 622.8 421.34 626.707 420.486C630.887 419.582 639.127 416.87 642.914 415.658C637.08 396.602 630.204 381.163 616.761 365.621C603.317 350.079 577.522 330.938 577.522 330.938C553.741 316.863 525.489 311.882 501.315 313.315C494.184 313.741 482.719 315.379 476.015 317.29C407.365 341.208 376.213 383.534 355.178 443.825C351.288 454.948 348.234 470.217 346.937 481.92C344.566 503.296 345.846 533.066 352.056 553.863C355.451 565.242 410.043 595.285 431.095 603.627C446.159 609.598 466.819 613.744 485.398 613.863C529.191 614.153 579.194 596.121 609.374 561.42C623.585 545.06 640.952 524.826 649.192 474.499C636.721 480.316 623.892 482.193 613.451 481.801V481.784Z" fill="#ED6D46"/>
<path d="M363.094 512.491C357.634 509.574 353.369 497.461 345.095 496.693C344.037 498.741 342.417 499.901 339.892 499.423C335.115 498.519 330.116 490.842 327.83 486.952C294.375 429.869 239.117 360.553 162.33 345.984C129.711 339.791 95.8975 352.313 81.294 376.198C66.5711 400.269 71.8427 432.633 93.8502 460.935C110.484 482.329 134.556 497.546 156.239 510.649C181.011 525.61 204.417 539.753 212.964 563.518C217.007 574.795 212.913 596.751 210.781 619.561C209.006 638.463 208 656.342 209.723 670.212C211.463 684.27 220.147 696.69 233.471 701.125C247.528 705.8 265.237 703.718 276.257 692.237C284.31 683.843 291.56 667.261 298.589 651.224C302.974 641.227 308.245 631.776 313.312 622.103C315.359 618.196 318.413 609.768 323.702 607.55C328.274 611.713 328.683 618.025 328.461 621.437C328.035 628.347 323.633 634.13 319.539 639.555C298.862 666.988 285.487 717.981 317.048 743.52C325.919 750.702 342.144 752.732 354.478 748.501C367.393 744.083 377.765 731.953 381.092 717.725C385.118 700.596 378.874 680.551 374.848 664.906C372.852 657.161 369.32 648.085 371.112 639.965C372.255 634.778 377.202 628.466 381.928 625.412C389.844 620.277 395.695 612.293 404.413 608.966C414.615 605.077 429.048 606.305 439.728 605.861C471.664 616.592 505.222 616.899 538.097 605.776C485.449 600.044 455.611 565.053 443.481 554.732C430.925 544.052 369.406 515.801 363.128 512.457L363.094 512.491Z" fill="white"/>
<path d="M432.63 659.123C457.555 652.418 438.09 610.468 435.548 594.67C433.859 584.195 433.773 571.297 436.793 560.993C438.96 553.606 444.709 545.775 448.855 539.361C451.772 534.857 454.143 532.793 450.936 528.135C443.873 517.865 429.781 511.348 417.669 510.256C404.276 509.045 394.416 512.082 383.156 518.991C370.259 526.89 345.129 522.284 329.928 520.236C322.575 519.247 312.749 518.377 309.132 526.48C304.952 535.846 306.505 553.845 319.112 565.565C323.872 569.984 332.078 573.976 337.827 575.955C345.641 578.65 352.482 579.572 356.133 588.426C357.753 592.35 358.112 596.802 358.623 602.569C359.255 609.597 360.074 618.673 362.786 623.365C368.177 632.663 381.552 637.832 390.236 643.325C401.223 650.286 418.675 662.893 432.647 659.123H432.63Z" fill="white"/>
<path d="M231.901 293.012C219.242 290.658 206.498 293.183 200.562 299.512C194.539 305.927 190.291 315.412 197.269 332.268C201.415 342.248 208.614 350.266 214.312 355.964C218.867 360.519 223.252 366.849 224.292 371.352C270.781 401.327 305.396 447.509 329.502 488.624C335.132 498.229 339.909 499.167 342.4 498.195C342.894 497.99 345.334 498.314 345.726 498.195C345.931 492.087 347.125 484.205 347.808 478.234C335.32 433.059 335.166 389.078 348.934 348.714C342.314 331.449 330.577 314.866 316.622 317.732C307.699 319.558 305.737 323.806 304.56 329.384C303.571 334.042 303.673 340.559 296.661 341.02C291.032 341.395 284.924 334.417 277.11 325.631C266.908 314.167 254.472 298.915 236.866 294.155C235.33 293.746 233.419 293.302 231.901 293.029V293.012Z" fill="white"/>
<path d="M339.141 399.859C329.912 406.206 333.631 420.434 324.418 428.196C316.536 435.481 299.647 435.037 290.298 431.813C305.584 450.477 318.635 470.062 329.502 488.623C335.132 498.228 339.909 499.167 342.4 498.194C342.894 497.989 345.334 498.314 345.726 498.194C345.931 492.087 347.125 484.205 347.808 478.234C340.625 452.285 337.725 425.569 339.141 399.876V399.859Z" fill="#DCDDDD"/>
<path d="M680.924 553.777C682.255 551.815 683.636 548.659 683.381 546.424C683.091 543.899 670.449 539.088 662.584 535.608C653.048 531.394 642.794 526.242 637.642 521.465C626.093 545.468 606.985 566.504 584.415 582.591C584.056 590.081 588.219 602.876 593.201 609.086C597.244 614.136 602.26 617.019 607.326 617.206C612.496 617.411 616.761 614.238 620.889 611.184C624.881 608.233 629.47 605.025 633.804 605.503C638.018 605.964 647.059 610.536 653.525 614.306C658.336 617.121 664.563 617.36 670.62 614.972C677.324 612.327 684.728 606.407 686.588 600.215C691.228 584.775 685.001 571.059 679.218 560.976C677.751 558.417 679.44 555.943 680.941 553.76L680.924 553.777Z" fill="white"/>
<path d="M453.017 610.877C449.673 610.007 441.689 607.414 438.465 606.305C438.755 607.482 440.256 611.372 440.546 612.549C444.317 628.056 448.002 640.476 443.873 648.733C440.905 654.687 437.663 658.492 432.221 659.959C425.158 661.853 415.502 658.594 407.688 654.977C411.851 670.366 433.603 716.633 470.896 712.777C482.958 711.532 494.064 705.032 497.101 696.979C500.257 688.569 497.476 675.006 488.758 664.429C485.636 660.641 485.5 655.028 485.397 649.603C485.329 646.601 485.653 643.393 485.056 641.261C482.48 632.134 472.875 626.965 465.096 622.137C458.988 618.349 454.041 615.125 453.034 610.911L453.017 610.877Z" fill="white"/>
<path d="M364.117 624.815C357.105 615.005 361.899 599.139 355.536 586.856C349.343 574.897 334.927 580.663 315.086 561.692C305.6 552.616 302.717 523.921 314.165 521.055C323.309 518.769 336.735 522.096 346.937 523.392C346.255 521.345 345.709 505.036 346.118 496.915C345.931 496.881 345.743 496.83 345.555 496.813C344.498 498.86 342.877 500.02 340.352 499.542C335.575 498.638 330.577 490.961 328.29 487.071C320.92 474.498 312.493 461.345 303.024 448.311C301.83 456.141 313.687 483.164 308.091 487.003C301.813 491.302 289.786 472.843 287.022 481.22C280.369 501.351 285.435 511.928 291.969 526.207C294.511 531.769 287.329 539.838 287.585 545.997C288.216 561.095 294.716 563.501 309.712 575.716C314.864 579.913 300.96 593.987 306.402 597.723C312.39 601.852 315.393 607.448 317.679 614.203C316.945 612.02 321.006 609.734 323.292 607.567C327.796 609.051 329.212 615.739 328.239 621.71C327.13 628.551 324.077 634.249 319.982 639.691C319.556 640.254 319.146 640.851 318.72 641.431C321.04 638.207 334.603 638.139 338.237 638.565C343.849 639.231 348.797 641.841 353.181 645.321C362.291 652.538 368.587 662.552 376.69 670.724C374.796 660.778 369.269 650.439 371.538 640.101C371.964 638.19 372.903 636.126 374.165 634.13C368.399 629.404 366.71 628.466 364.117 624.832V624.815Z" fill="#DCDDDD"/>
<path d="M321.466 456.209C321.893 457.386 327.745 461.651 329.212 459.979C331.464 457.403 332.76 446.672 330.252 442.185C329.212 440.309 324.623 433.996 322.507 436.112C319.573 439.046 320.409 453.274 321.466 456.192V456.209Z" fill="#3F3B3A"/>
<path d="M616.317 554.221C611.336 548.403 605.041 545.349 593.627 550.86C582.743 556.114 570.221 566.077 563.431 566.077C556.641 566.077 544.562 558.298 542.259 551.047C539.888 543.558 539.325 528.084 541.167 522.42C542.583 518.104 549.988 514.812 558.159 502.119C572.268 480.231 573.855 457.814 576.021 455.323C578.956 451.979 586.752 454.367 588.219 454.367C586.019 459.417 587.349 463.58 590.693 468.51C596.647 474.908 602.686 477.689 613.485 481.425C623.875 482.261 646.701 477.143 649.192 474.243C642.539 506.264 634.998 532.588 616.283 554.203L616.317 554.221Z" fill="white"/>
<path d="M415.195 543.217C428.314 525.389 353.744 582.865 357.395 591.719C359.016 595.643 359.664 602.723 359.835 611.424C359.903 614.495 360.278 627.153 374.899 634.011C375.342 612.533 398.766 565.566 415.195 543.217Z" fill="#DCDDDD"/>
<path d="M486.848 240.978C486.762 235.263 486.677 229.411 486.268 227.688C485.09 227.415 477.465 228.285 466.137 232.499C423.469 248.331 374.285 282.315 351.492 341.718C336.531 380.701 333.187 432.939 347.825 475.316C359.05 385.495 430.617 316.282 502.099 313.961C487.547 298.983 487.172 262.474 486.865 240.978H486.848Z" fill="white"/>
<path d="M584.415 582.607C584.056 590.097 588.219 602.892 593.201 609.102C597.244 614.152 602.26 617.035 607.326 617.222C612.496 617.427 616.761 614.254 620.889 611.2C624.881 608.249 629.47 605.042 633.804 605.519C638.018 605.98 647.059 610.552 653.525 614.322C658.336 617.137 664.563 617.376 670.62 614.988C677.324 612.343 684.728 606.423 686.588 600.231C687.799 596.204 688.26 592.298 688.191 588.544C660.503 588.476 633.36 580.526 609.049 561.572C601.526 569.249 593.252 576.295 584.432 582.59L584.415 582.607Z" fill="#DCDDDD"/>
<path d="M485.398 646.311C485.432 644.401 485.415 642.592 485.04 641.244C482.463 632.117 472.859 626.948 465.079 622.12C458.972 618.333 454.024 615.108 453.018 610.894C449.674 610.024 441.69 607.431 438.465 606.322C438.755 607.499 440.257 611.389 440.547 612.566C442.799 621.864 445.016 630.019 445.545 636.86C459.296 636.587 473.2 639.777 485.398 646.328V646.311Z" fill="#DCDDDD"/>
<path d="M503.839 370.244C481.576 370.244 463.458 388.618 463.458 411.223C463.458 433.827 481.576 452.201 503.839 452.201C526.103 452.201 544.221 433.827 544.221 411.223C544.221 388.618 526.103 370.244 503.839 370.244Z" fill="white"/>
<path d="M515.645 472.52C489.185 473.663 479.222 470.763 465.215 459.759C462.281 457.456 460.814 455.989 461.445 460.39C462.076 464.792 463.646 479.054 473.592 482.364C483.009 485.503 510.834 480.265 515.645 472.52Z" fill="#595857"/>
<path d="M515.031 481.936C501.213 491.984 478.198 497.836 476.322 498.04C476.953 500.548 483.76 507.458 491.591 504.745C502.475 500.975 512.097 490.09 515.031 481.936Z" fill="#595857"/>
<path d="M408.098 446.571C404.959 446.776 404.328 456.415 404.123 459.963C403.782 465.917 406.443 471.342 409.992 471.052C412.5 470.847 413.762 463.102 413.967 458.905C414.172 454.845 411.869 446.315 408.115 446.554L408.098 446.571Z" fill="#595857"/>
<path d="M380.887 445.957C378.754 446.213 377.338 452.235 378.789 455.801C379.624 457.814 382.798 463.495 384.026 461.038C386.329 456.432 384.452 445.548 380.887 445.974V445.957Z" fill="#595857"/>
<path d="M393.239 469.176C389.554 469.176 385.698 475.317 385.698 483.199C385.698 491.081 387.865 497.854 392.608 497.018C395.951 496.421 400.558 492.122 399.926 483.626C399.5 477.979 396.583 469.193 393.222 469.193L393.239 469.176Z" fill="#595857"/>
<path d="M357.873 485.297C352.806 485.809 354.734 496.386 359.136 498.485C361.592 499.662 359.972 485.092 357.873 485.297Z" fill="#595857"/>
<path d="M405.368 528.613C403.389 525.064 381.723 532.503 380.256 538.03C377.731 547.499 382.678 555.585 393.853 551.013C402.008 547.669 406.409 530.507 405.368 528.613Z" fill="#595857"/>
<path d="M417.72 554.766C415.178 556.677 411.647 573.174 411.851 574.027C412.056 574.863 413.762 577.899 415.826 577.797C419.597 577.592 426.489 573.191 425.039 561.897C424.425 557.222 419.392 553.52 417.72 554.783V554.766Z" fill="#595857"/>
<path d="M397.418 602.261C401.086 602.022 400.438 584.075 396.156 584.689C390.526 585.491 391.567 602.654 397.418 602.261Z" fill="#595857"/>
<path d="M456.43 643.497C452.233 646.209 460.183 663.986 463.748 665.88C467.467 667.859 473.268 663.832 470.453 657.93C468.133 653.05 459.995 641.194 456.43 643.497Z" fill="#595857"/>
<path d="M329.417 678.231C327.25 670.298 332.965 647.744 339.465 648.307C346.579 648.938 347.978 661.154 346.784 665.674C345.743 669.649 340.898 680.38 338.629 682.206C335.49 684.714 330.048 680.534 329.417 678.231Z" fill="#595857"/>
<path d="M355.144 689.114C352.277 689.831 350.128 692.39 350.742 694.556C351.578 697.491 354.086 700.63 355.553 699.999C357.02 699.367 355.98 688.91 355.127 689.114H355.144Z" fill="#595857"/>
<path d="M294.887 623.195C293.01 619.22 287.261 616.849 284.429 618.794C277.741 623.4 266.857 642.234 273.34 649.98C275.899 653.05 295.552 624.577 294.887 623.195Z" fill="#595857"/>
<path d="M283.576 592.64C282.109 586.788 293.829 579.879 295.927 579.879C298.026 579.879 302.001 582.387 301.796 584.059C301.591 585.731 284.019 594.38 283.593 592.64H283.576Z" fill="#595857"/>
<path d="M250.513 504.541C241.301 491.149 250.837 479.599 256.587 484.24C262.029 488.641 274.722 498.724 277.724 501.402C282.109 505.292 279.43 518.616 271.241 514.999C266.021 512.696 253.567 508.96 250.53 504.541H250.513Z" fill="#595857"/>
<path d="M221.853 442.817C214.312 443.244 200.613 426.303 199.248 421.885C196.774 413.832 199.794 409.84 208.665 410.795C214.517 411.427 232.737 422.925 233.573 434.014C233.897 438.245 225.401 442.613 221.853 442.8V442.817Z" fill="#595857"/>
<path d="M299.271 471.906C303.877 469.807 285.248 447.629 281.699 450.137C277.008 453.447 290.707 475.795 299.271 471.906Z" fill="#595857"/>
<path d="M297.19 419.172C292.413 417.483 283.781 402.88 281.699 390.92C280.863 386.11 285.555 373.963 290.69 381.93C292.993 385.478 305.959 394.486 306.181 416.255C306.181 417.517 300.738 420.435 297.19 419.189V419.172Z" fill="#595857"/>
<path d="M641.737 547.021C639.297 550.689 652.723 576.842 658.063 576.211C663.113 575.614 666.849 567.732 655.555 550.16C651.069 543.182 645.439 541.476 641.737 547.021Z" fill="#595857"/>
<path d="M619.439 570.871C621.725 570.871 626.349 583.734 623.841 584.366C621.333 584.997 616.727 579.606 616.3 578.088C615.362 574.641 617.239 570.871 619.439 570.871Z" fill="#3F3B3A"/>
<path d="M353.693 448.26C355.28 446.281 356.491 445.718 357.412 446.145C361.388 447.987 360.807 479.293 363.725 479.293C366.847 479.293 373.364 418.9 381.246 418.9C385.937 418.9 391.14 442.46 395.15 442.238C397.419 442.101 397.555 429.579 402.4 416.665C407.075 404.194 414.172 397.387 416.27 398.018C419.75 399.042 415.059 423.148 429.099 469.091C437.373 496.165 463.987 531.667 466.751 529.228C468.423 527.743 436.674 485.093 436.674 417.791C436.674 371.251 451.124 342.402 478.915 317.75C425.755 327.116 366.54 388.396 353.727 448.26H353.693Z" fill="#595857"/>
<path d="M593.627 550.859C582.743 556.114 570.221 566.077 563.431 566.077C560.002 566.077 555.43 564.217 551.369 561.471C537.226 571.263 518.801 578.906 499.899 584.536C495.207 585.935 490.038 587.01 484.698 587.846C498.926 596.256 516.601 603.456 538.062 605.793C536.988 606.151 535.93 606.475 534.855 606.816C563.243 598.628 590.284 583.359 609.374 561.385C611.489 558.946 613.673 556.438 615.891 553.742C610.96 548.249 604.716 545.502 593.644 550.859H593.627Z" fill="#CD5E3C"/>
<path d="M602.686 526.753C592.655 529.943 576.038 541.254 558.33 556.182C556.163 558.007 553.809 559.782 551.369 561.471C555.429 564.217 560.002 566.077 563.431 566.077C570.221 566.077 582.743 556.114 593.627 550.859C604.699 545.502 610.96 548.249 615.874 553.742C619.337 549.528 622.885 544.888 626.348 539.48C628.14 525.013 617.58 521.993 602.686 526.753Z" fill="#DCDDDD"/>
<path d="M484.698 587.863C464.755 590.968 442.559 590.627 435.497 590.473C436.196 593.971 437.527 600.471 438.755 605.93C439.062 605.93 439.386 605.93 439.693 605.896C451.226 609.769 462.98 612.259 474.837 613.368C478.403 613.658 481.934 613.812 485.398 613.846C501.468 613.948 518.392 611.577 534.855 606.834C535.93 606.493 536.987 606.186 538.062 605.811C516.601 603.473 498.926 596.274 484.698 587.863Z" fill="#DCDDDD"/>
<path d="M563.414 598.219C522.384 617.821 476.39 621.591 439.079 608.131C438.943 606.868 438.721 605.35 438.363 603.985C475.076 617.821 520.132 612.925 561.042 593.476C655.146 548.745 661.902 443.637 627.15 384.421C599.12 336.619 546.319 307.668 489.645 317.034C403.918 331.211 345.948 423.284 347.773 510.939C347.961 519.793 344.515 518.343 344.344 509.489C342.433 418.422 400.506 328.225 487.939 312.871C547.513 302.413 603.59 332.661 630.835 381.657C669.698 443.006 658.592 552.737 563.379 598.219H563.414Z" fill="#0E141B"/>
<path d="M471.562 228.15C439.165 237.721 376.093 270.818 348.678 341.174C332.197 383.483 332.88 430.996 346.357 479.003C346.613 479.907 348.217 473.748 347.671 471.599C336.275 426.509 337.913 381.709 353.557 342.044C380.819 272.985 445.528 240.348 472.278 231.801C478.642 229.771 483.504 229.464 484.51 229.788C485.517 230.112 485.108 236.919 485.193 242.635C485.517 264.813 486.029 300.673 499.762 313.298C501.042 314.475 506.33 313.554 505.477 313.127C489.509 305.348 488.929 264.506 488.605 242.566C488.417 229.805 488.861 228.099 487.359 226.752C485.858 225.404 479.495 225.779 471.562 228.116V228.15Z" fill="#0E141B"/>
<path d="M636.056 521.498C640.372 527.06 651.546 532.007 662.397 536.818C670.261 540.298 681.009 545.058 681.299 547.566C681.555 549.784 680.173 551.814 678.843 553.759C677.358 555.942 675.652 558.416 677.12 560.975C682.92 571.058 688.72 583.119 684.08 598.559C680.412 610.791 663.369 618.212 653.099 612.224C646.633 608.454 637.591 603.882 633.377 603.421C629.044 602.943 625.274 605.724 621.282 608.692C617.153 611.746 612.888 614.919 607.719 614.715C602.669 614.527 597.653 611.644 593.593 606.594C587.895 599.497 585.046 589.278 586.513 581.157C586.684 580.236 582.879 582.283 582.777 583.188C581.89 591.871 583.988 602.107 589.789 609.307C594.463 615.141 600.383 618.468 606.439 618.707C612.803 618.946 617.784 615.261 622.169 612.019C625.751 609.358 629.982 606.492 632.985 606.833C635.919 607.157 644.432 611.32 652.314 615.926C663.966 622.733 683.278 616.045 688.379 599.019C693.19 583.017 686.025 570 680.293 560.02C679.917 559.372 680.668 557.444 681.879 555.704C683.415 553.469 687.168 549.767 686.503 546.321C685.547 541.441 675.362 538.029 663.181 533.099C652.229 528.663 641.276 524.057 638.598 518.888C638.171 518.052 635.629 520.969 636.039 521.498H636.056Z" fill="#0E141B"/>
<path d="M377.935 519.093C374.609 520.901 363.178 522.061 351.526 521.498C338.492 520.867 325.919 518.12 321.569 518.069C314.369 517.984 309.064 519.792 306.249 526.07C301.574 536.545 304.952 555.465 318.686 568.226C323.974 573.122 330.321 575.545 336.411 577.66C344.156 580.339 351.68 582.471 354.734 589.892C356.15 593.338 356.61 598.525 357.105 604.035C357.77 611.439 358.197 619.082 361.285 624.422C364.799 630.495 371.606 635.818 379.505 640.493L389.843 646.703C400.677 653.817 418.982 665.452 432.613 661.784C438.038 660.317 443.344 656.069 445.528 650.37C449.213 640.731 446.057 628.329 441.826 612.087C438.738 600.179 435.923 587.777 436.111 576.722C436.349 561.862 443.464 550.876 448.667 542.857C452.932 536.272 456.003 531.529 452.847 527.862C432.937 504.813 411.22 500.992 377.918 519.11L377.935 519.093ZM351.219 524.569C364.134 525.166 375.581 524.245 379.556 522.078C408.32 506.434 432.118 509.129 450.27 530.062C451.755 531.785 449.127 535.829 445.801 540.964C440.376 549.34 432.937 560.788 432.699 576.636C432.511 588.118 435.565 600.691 438.516 612.855C441.962 627.1 445.238 640.544 441.672 647.675C439.113 652.793 435.684 655.864 431.163 657.075C418.999 660.351 401.751 649.006 391.447 642.233C391.396 642.199 381.177 635.903 381.177 635.903C373.415 631.314 367.819 627.988 364.748 622.682C362.035 617.99 361.387 610.74 360.773 603.711C360.261 597.945 359.783 592.502 358.163 588.579C354.512 579.724 346.442 576.944 338.629 574.248C332.88 572.269 326.926 570.205 322.183 565.803C309.575 554.083 306.351 537.398 310.531 528.032C312.817 522.897 316.638 521.447 321.279 521.464C327.693 521.498 340.233 524.074 351.253 524.586L351.219 524.569Z" fill="#0E141B"/>
<path d="M83.7676 367.31C65.5474 388.806 62.6301 428.351 92.1442 464.911C109.563 486.492 133.379 500.516 155.301 513.84C180.703 529.279 201.96 540.385 210.081 563.007C213.868 573.567 211.224 593.971 209.109 616.388C207.317 635.479 204.861 655.9 206.618 670.128C208.511 685.516 219.891 701.041 234.665 705.323C250.94 710.049 268.853 705.545 279.123 692.733C286.766 683.179 295.211 665.641 302.172 649.246C311.742 626.676 321.057 604.992 332.453 603.883C340.762 603.081 338.544 599.584 330.662 601.051C318.157 603.371 308.347 625.55 298.555 647.881C291.526 663.918 283.337 680.807 275.745 689.611C265.595 701.382 249.609 704.214 236.183 699.761C222.859 695.326 213.493 683.844 211.77 669.77C210.064 655.9 211.889 636.366 213.664 617.463C215.796 594.654 217.826 573.124 213.766 561.847C205.236 538.082 181.829 523.939 157.041 508.978C135.358 495.875 112.94 482.33 96.3239 460.936C69.2665 426.099 71.8426 390.819 88.3227 370.517C115.568 337.011 174.186 343.221 218.372 369.903C266.84 399.161 303.997 448.738 328.717 490.911C335.831 503.058 341.427 500.823 344.447 499.629L345.556 499.202C345.931 498.127 349.923 493.76 343.184 496.456C340.711 497.445 337.06 498.929 331.669 489.188C305.106 441.112 268.512 396.074 220.027 365.707C175.637 337.898 113.503 332.269 83.7676 367.327V367.31Z" fill="#0E141B"/>
<path d="M322.542 609.119C324.998 610.348 326.192 612.361 326.875 615.295C328.274 621.232 324.794 629.779 318.908 637.61C307.563 652.657 297.531 671.474 295.279 695.205C292.516 724.139 309.593 752.305 339.38 754.148C360.739 755.478 377.782 741.796 383.293 718.27C387.507 700.323 381.791 683.229 376.878 665.145C373.432 652.486 369.457 639.913 375.428 635.392C376.179 634.829 373.876 632.099 373.125 632.662C366.369 637.798 369.542 650.115 373.551 665.725C377.578 681.369 382.815 700.289 378.806 717.417C373.62 739.51 358.078 749.797 339.687 749.149C318.822 748.416 297.48 728.472 299.937 695.205C301.455 674.75 310.872 653.527 321.962 638.821C328.461 630.189 331.259 621.266 329.639 614.34C328.717 610.382 327.148 608.335 323.753 606.629C322.917 606.202 321.723 608.71 322.576 609.137L322.542 609.119Z" fill="#0E141B"/>
<path d="M450.697 609.597C450.305 614.767 456.02 619.083 463.356 622.87C471.34 626.999 480.825 633.72 483.401 642.848C485.193 649.194 481.712 658.662 487.496 665.657C496.231 676.234 499.165 686.266 496.009 694.676C492.972 702.729 484.34 708.836 473.472 710.593C431.794 717.383 410.282 660.095 407.978 653.544C407.671 652.657 404.055 652.128 404.362 653.032C410.452 670.263 431.044 722.365 474.598 715.285C486.882 713.289 496.691 705.782 499.933 695.649C502.509 687.613 501.98 678.435 489.662 663.269C485.415 658.031 489.082 647.573 487.359 641.517C484.391 631.127 472.517 624.303 463.799 619.56C457.794 616.302 453.444 613.095 453.683 610.007C453.751 609.068 450.782 608.693 450.714 609.631L450.697 609.597Z" fill="#0E141B"/>
<path d="M197.576 298.404C182 315.515 195.136 342.112 213.817 359.206C217.98 363.011 220.658 366.048 221.801 369.289C222.125 370.193 226.049 373.162 226.117 372.223C226.459 366.542 221.955 361.561 216.24 356.323C201.005 342.351 187.749 317.631 201.329 301.867C210.354 291.392 230.263 291.154 247.596 300.707C258.003 306.439 268.273 317.256 277.332 328.003C284.907 336.994 290.792 343.136 296.405 342.76C303.417 342.3 304.543 337.011 305.515 332.354C306.693 326.792 309.269 320.992 316.724 319.712C331.447 317.187 345.061 340.526 346.937 348.97C347.142 349.892 349.616 347.162 349.411 346.241C347.347 336.96 334.262 312.052 316.076 314.731C306.897 316.078 303.229 325.496 301.933 331.654C300.875 336.653 300.414 339.075 296.166 339.348C292.208 339.604 285.93 332.593 279.584 324.898C271.293 314.833 261.944 303.181 249.251 296.237C230.229 285.848 208.648 286.24 197.576 298.404Z" fill="#0E141B"/>
<path d="M266.396 469.227L280.164 479.668C314.881 506.077 323.906 516.313 345.999 513.908C346.937 513.805 347.535 512.85 347.364 511.912C347.193 510.991 346.306 510.376 345.368 510.547C330.116 513.379 316.093 502.716 282.228 476.956L268.461 466.498C260.903 460.765 258.856 463.495 266.396 469.227Z" fill="#0E141B"/>
<path d="M453.001 267.235C454.451 279.058 465.233 306.61 478.591 317.136C479.956 318.211 483.282 316.232 482.549 315.754C469.122 306.849 457.982 275.629 456.276 266.246C454.724 257.682 451.567 255.413 453.018 267.235H453.001Z" fill="#0E141B"/>
<path d="M406.852 334.587C409.497 338.597 415.57 343.783 420.603 346.803C421.848 347.553 424.493 344.653 423.588 344.585H423.691C421.61 344.158 412.772 336.771 409.992 333.274C405.436 327.525 402.622 328.156 406.852 334.57V334.587Z" fill="#0E141B"/>
<path d="M360.125 372.632C366.403 376.556 382.781 383.227 385.886 383.227C386.005 383.227 386.619 383.073 386.705 382.988C387.319 382.339 387.234 379.78 386.432 379.712C384.043 379.525 371.948 375.259 362.002 369.766C352.994 364.785 351.39 367.173 360.125 372.615V372.632Z" fill="#0E141B"/>
<path d="M461.906 412.416C461.906 435.874 480.621 453.77 504.01 453.77C527.4 453.77 545.705 435.942 545.705 411.7C545.705 387.457 527.007 367.906 504.01 367.906C481.013 367.906 461.906 387.747 461.906 412.416ZM465.557 411.7C465.557 388.822 482.549 371.148 504.01 371.148C525.472 371.148 542.464 389.334 542.464 411.7C542.464 434.066 526.291 450.273 504.01 450.273C481.73 450.273 465.557 433.69 465.557 411.7Z" fill="#0E141B"/>
<path d="M473.114 411.324C473.114 429.237 486.882 443.807 503.805 443.807C520.729 443.807 534.497 429.237 534.497 411.324C534.497 393.411 520.729 378.842 503.805 378.842C486.882 378.842 473.114 393.411 473.114 411.324Z" fill="#0E141B"/>
<path d="M500.649 399.808C500.888 406.308 505.955 409.925 511.755 409.925C517.556 409.925 522.282 405.029 522.282 399.023C522.282 393.018 517.59 388.088 511.329 388.088C505.529 388.088 500.393 392.899 500.649 399.825V399.808Z" fill="white"/>
<path d="M442.611 520.766C429.048 521.994 416.764 531.668 400.711 562.802C396.105 571.742 397.418 575.256 402.007 566.59C421.848 529.04 433.449 525.304 444.555 524.588C445.494 524.519 443.003 520.715 442.611 520.766Z" fill="#0E141B"/>
<path d="M435.548 562.323C432.545 567.458 427.308 583.324 425.823 594.328C424.663 602.943 426.983 607.26 428.161 598.644C429.184 591.138 431.675 584.007 434.098 576.142C435.718 570.87 436.042 561.504 435.565 562.306L435.548 562.323Z" fill="#0E141B"/>
<path d="M644.62 432.632C646.565 437.46 648.083 446.639 648.68 451.347C650.813 449.88 652.502 447.662 653.747 444.694C654.617 442.63 655.18 440.343 655.556 437.989C655.504 437.972 655.419 437.972 655.385 437.921C652.434 434.97 646.974 433.042 644.62 432.615V432.632Z" fill="white"/>
<path d="M602.635 457.591C605.074 460.321 611.472 464.825 613.502 464.927C624.267 465.422 638.922 463.75 644.722 459.502C644.33 457.796 641.737 453.497 638.751 450.545C634.128 445.99 625.751 441.981 620.889 441.811C621.537 448.413 622.237 457.25 620.292 458.427C618.774 459.348 618.45 458.751 611.608 452.456C610.141 451.108 607.838 449.061 606.985 448.379C605.501 450.75 603.198 456.141 602.635 457.608V457.591Z" fill="#EE869A"/>
<path d="M619.985 458.735C620.241 456.688 620.429 453.413 620.429 449.864C620.429 445.667 620.173 441.215 619.491 438.246C616.505 439.44 614.1 440.686 612.769 441.88C610.96 443.501 609.203 445.599 607.617 447.783C608.657 448.567 610.278 450.035 613.059 452.594C615.072 454.453 618.075 457.2 619.985 458.718V458.735Z" fill="white"/>
<path d="M628.344 421.1C628.157 421.151 627.986 421.219 627.816 421.27C618.04 424.222 606.132 420.4 599.393 430.09C594.224 437.528 587.485 449.351 587.485 458.683C587.485 459.536 588.543 463.972 588.68 464.637C590.181 471.871 600.519 477.688 612.513 480.912C622.066 483.489 649.226 479.104 654.208 469.397C656.886 464.176 657.074 454.128 654.6 448.754C652.177 449.931 650.386 451.45 648.1 452.371C647.008 456.994 644.859 460.048 641.89 461.464C634.162 465.132 621.111 465.951 612.905 464.245C607.122 463.05 605.04 460.218 603.368 458.291C603.078 455.51 607.804 447.423 610.517 443.602C615.686 439.627 623.124 435.549 632.9 433.639C642.794 431.711 647.025 432.683 656.187 436.846C655.555 436.556 657.62 426.473 654.344 420.212C649.311 410.573 639.246 417.602 628.344 421.117V421.1Z" fill="#EE869A"/>
<path d="M647.196 453.258C647.196 451.159 645.166 435.515 643.494 432.666C637.967 433.161 626.895 435.515 619.661 438.125C619.798 438.739 620.634 440.855 620.753 441.657C627.048 441.554 634.35 444.233 640.184 450.306C642.317 452.524 644.518 455.441 645.729 458.273C646.258 457.25 647.111 454.503 647.179 453.241L647.196 453.258Z" fill="#933000"/>
<path d="M640.765 415.129C629.795 418.763 626.127 419.445 616.607 420.741C611.165 421.475 606.508 421.577 604.358 422.891C592.331 430.244 584.244 454.589 586.121 463.597C587.895 472.127 598.541 479.616 611.353 482.704C620.736 484.956 649.875 480.35 653.85 473.56C656.358 469.278 658.575 462.675 658.575 457.677C658.575 453.923 656.869 450.017 654.907 447.594C656.341 444.575 658.115 441.214 658.115 432.905C658.115 426.235 657.415 421.39 656.153 419.155C654.873 416.92 650.984 414.378 646.872 413.781C645.49 413.576 644.33 413.934 640.765 415.112V415.129ZM612.189 479.565C600.196 476.341 590.761 469.039 589.26 461.788C589.124 461.123 589.055 460.355 589.055 459.502C589.055 450.443 596.732 432.086 606.423 426.167C607.992 425.211 612.394 424.614 617.034 423.983C623.892 423.045 632.473 421.39 641.805 418.234C643.716 417.585 645.217 416.749 646.872 416.971C649.056 417.244 651.956 419.104 653.014 420.98C654.072 422.857 654.327 426.934 654.327 432.82C654.327 436.795 653.901 441.094 652.621 444.66C651.427 448.004 649.619 450.221 647.247 451.279C646.65 451.552 647.759 454.623 648.578 454.265C650.335 453.48 651.803 452.235 653.048 450.614C654.02 452.337 654.464 454.623 654.464 457.114C654.464 461.498 653.099 466.548 650.881 470.335C647.998 475.266 620.497 481.817 612.138 479.565H612.189Z" fill="#0E141B"/>
<path d="M611.268 440.753C606.423 445.086 601.748 453.241 600.793 456.721C600.656 457.216 600.759 457.727 601.066 458.137C603.727 461.702 610.261 465.985 613.639 466.138C640.287 467.366 648.544 463.477 649.175 452.644C649.175 452.644 649.175 452.609 649.175 452.575C649.175 451.313 647.845 439.797 646.019 434.492C647.725 434.85 651.683 436.47 653.833 438.944C654.43 439.627 656.886 437.494 656.306 436.812C653.423 433.485 648.254 430.892 646.087 430.653C639.587 429.919 616.897 435.72 611.302 440.736L611.268 440.753ZM613.451 443.192C617.58 439.49 634.435 435.157 642.488 434.492C644.023 436.965 645.917 450.665 645.917 452.507C645.371 461.992 628.072 463.204 613.656 462.521C611.626 462.436 606.678 459.536 604.239 456.806C605.416 453.65 609.34 446.877 613.468 443.192H613.451Z" fill="#0E141B"/>
<path d="M618.62 439.099C620.326 444.046 619.729 453.771 619.32 456.91C617.767 455.664 609.254 447.885 608.487 447.509C607.702 447.117 606.235 449.983 607.002 450.427C607.531 450.734 616.812 458.684 618.177 459.673C619.951 460.953 621.606 461.192 622.237 458.036C623.312 452.679 622.851 441.385 621.691 438.058C621.401 437.205 618.552 438.945 618.603 439.133L618.62 439.099Z" fill="#0E141B"/>
<path d="M621.572 440.974C620.667 441.025 620.531 443.448 621.435 443.397C631.142 442.885 642.283 454.537 642.573 459.433C642.624 460.337 645.916 457.983 645.746 457.352C644.057 450.698 632.746 440.377 621.572 440.974Z" fill="#0E141B"/>
<path d="M577.659 337.027C568.907 346.649 573.258 362.003 582.624 369.646C591.836 377.153 606.61 378.808 613.827 371.949C619.61 366.456 644.774 306.131 652.741 283.697C638.513 292.347 587.093 326.638 577.642 337.027H577.659Z" fill="#FFFCDB"/>
<path d="M651.99 282.35C646.224 285.011 587.724 323.073 576.499 335.407C567.508 345.285 568.753 360.52 581.156 370.38C592.672 379.542 607.292 380.907 615.396 373.23C622.459 366.542 648.817 303.3 654.327 284.397C655.18 281.497 655.095 280.9 651.99 282.333V282.35ZM584.005 367.668C572.984 358.677 571.688 346.377 579.484 337.796C588.918 327.423 635.424 296.288 649.653 287.639C641.685 310.09 617.562 365.075 611.779 370.568C605.296 376.727 594.224 375.993 584.005 367.668Z" fill="#0E141B"/>
</g>
<defs>
<clipPath id="clip0_42_69263">
<rect width="620" height="528.216" fill="white" transform="translate(70 226)"/>
</clipPath>
</defs>
</svg>
