<svg width="800" height="800" viewBox="0 0 800 800" fill="none" xmlns="http://www.w3.org/2000/svg">
<g clip-path="url(#clip0_42_59286)">
<path d="M507.83 510.845C507.83 510.845 607.899 437.863 657.934 436.089C707.968 434.315 746.813 533.792 734.464 576.185C722.092 618.555 702.669 631.519 655.592 619.147C608.514 606.774 513.153 547.348 501.963 527.334C499.172 522.342 506.671 510.608 507.854 510.845H507.83Z" fill="white"/>
<path d="M443.081 548.531C455.454 559.72 534.397 673.156 512.538 709.233C498.983 731.588 431.915 713.089 373.624 665.089C336.53 634.524 300.193 584.134 325.956 560.903C343.817 544.793 433.264 539.659 443.081 548.554V548.531Z" fill="white"/>
<path d="M637.707 613.185C644.166 615.717 650.198 617.727 655.592 619.147C702.693 631.519 722.115 618.555 734.464 576.186C746.813 533.816 707.968 434.339 657.934 436.089C649.181 436.397 638.251 438.881 627.227 442.784C627.227 442.784 713.741 457.664 713.291 559.815C713.173 588.346 686.393 613.067 637.684 613.185H637.707Z" fill="#2E3B42"/>
<path d="M516.276 687.705C516.655 695.133 515.543 704.264 512.538 709.232C498.983 731.588 431.915 713.088 373.624 665.088C336.53 634.524 300.193 584.134 325.956 560.903C326.926 560.028 328.085 559.2 329.433 558.396C329.433 558.396 319.261 600.481 399.245 662.392C463.095 711.811 504.731 712.615 516.276 687.705Z" fill="#2E3B42"/>
<path d="M647.052 433.25C614.476 440.915 504.637 497.384 500.994 512.217C496.83 529.132 496.806 527.546 508.824 538.358C576.507 599.251 681.733 646.115 715.326 619.667C774.847 572.826 716.792 416.832 647.075 433.25H647.052ZM676.576 617.751C631.296 609.281 580.126 587.895 515.874 537.317C502.673 526.931 504.329 520.142 514.809 511.483C563.33 471.456 626.068 443.138 650.742 439.897C672.317 437.059 722.612 464.335 730.774 549.855C734.086 584.654 720.341 625.912 676.576 617.751Z" fill="#061922"/>
<path d="M461.108 565.516C454.2 555.226 445.565 540.7 423.233 540.7C381.455 540.7 328.558 549.832 322.029 559.626C279.351 623.618 459.523 755.34 512.041 715.052C539.625 693.879 490.49 609.234 461.108 565.493V565.516ZM470.5 592.58C495.884 636.345 522.616 693.619 507.121 708.499C487.462 727.425 420.205 699.628 381.833 667.123C333.597 626.22 310.721 584.158 329.693 561.826C339.866 549.855 405.561 542.356 434.376 549.406C446.583 552.387 454.981 565.824 470.5 592.58Z" fill="#061922"/>
<path d="M716.651 562.559C722.115 503.559 675.819 447.634 628.765 441.979C627.629 442.334 622.425 445.126 622.449 445.126C648.235 444.582 705.272 481.747 709.199 547.632C712.227 598.163 670.945 615.693 629.025 604.952C632.077 606.017 635.72 610.252 638.299 611.789C685.116 621.063 713.859 592.935 716.674 562.535L716.651 562.559Z" fill="#061922"/>
<path d="M513.035 685.457C507.712 720.351 436.741 688.627 394.159 655.436C365.723 633.269 325.553 584.914 332.059 555.935C330.924 556.502 327.28 560.24 326.145 560.666C323.661 587.138 356.331 633.861 391.769 662.296C412.256 678.762 500.686 732.203 514.218 693.145C512.964 691.134 513.248 684.132 513.035 685.457Z" fill="#061922"/>
<path d="M704.112 513.329C685.755 513.447 552.14 516.192 521.764 515.766V519.906C555.972 520 681.236 516.949 707.519 519.172C707.401 517.611 704.396 514.867 704.112 513.329Z" fill="#061922"/>
<path d="M698.742 593.763C679.154 587.186 554.955 543.09 520.747 531.332V532.113C613.908 569.372 675.203 591.776 693.206 597.832C694.224 596.933 697.843 594.946 698.742 593.739V593.763Z" fill="#061922"/>
<path d="M711.896 556.219C689.871 552.269 555.476 527.074 520.724 520.474V525.063C552.873 530.197 692.733 557.449 712.392 561.589C712.889 559.862 712.156 557.946 711.896 556.219Z" fill="#061922"/>
<path d="M374.192 644.27C388.978 629.556 425.954 606.041 450.368 586.666C449.114 585.199 448.404 584.466 446.819 583.117C432.483 595.821 387.109 626.338 370.123 638.664C371.282 640.746 372.583 642.662 374.216 644.247L374.192 644.27Z" fill="#061922"/>
<path d="M421.956 678.36C429.431 661.09 456.164 610.937 464.514 594.093C464.893 593.313 465.319 592.721 465.745 592.295C462.456 592.177 460.209 591.018 458.529 589.291C446.772 611.197 429.786 650.988 416.041 674.243C417.343 675.615 419.85 677.413 421.956 678.383V678.36Z" fill="#061922"/>
<path d="M468.418 699.651C469.861 684.251 472.25 644.412 474.332 618.626C472.582 615.716 472.321 612.617 470.571 610.086C468.134 636.653 465.082 679.85 463.095 695.511C464.751 696.458 466.786 698.681 468.418 699.651Z" fill="#061922"/>
<path d="M506.127 525.087C534.161 545.195 622.236 576.777 645.656 569.869C663.801 564.499 673.973 539.778 656.444 524.85C639.387 510.325 509.368 512.548 511.024 512.194C516.915 510.963 500.568 521.112 506.151 525.087H506.127Z" fill="#061922"/>
<path d="M510.48 527.357C517.743 530.858 617.197 567.811 638.488 565.942C664.203 563.694 664.439 536.063 652.067 528.422C627.464 513.234 514.644 516.783 511.403 517.469C506.695 518.439 505.536 524.992 510.48 527.357Z" fill="white"/>
<path d="M456.187 576.848C446.441 581.438 433.832 590.144 424.771 599.748C412.517 612.736 412.588 636.44 427.965 646.045C444.998 656.691 469.766 649.783 473.481 630.621C475.965 617.799 474.001 598.234 474.001 590.238C474.001 582.739 464.491 572.945 456.164 576.848H456.187Z" fill="#061922"/>
<path d="M461.77 579.237C447.884 583.732 420.347 603.367 421.317 623.949C422.334 645.619 448.357 650.823 461.51 640.438C471.635 632.465 471.091 609.305 470.027 591.468C469.672 585.483 468.773 576.966 461.77 579.237Z" fill="white"/>
<path d="M466.312 477.275C440.361 436.893 407.714 327.74 416.633 212.909C421.956 144.304 457.441 47.9014 512.444 44.9442C567.446 41.9871 645.514 140.164 671.537 184.52C697.559 228.877 749.013 326.462 720.034 378.508C672.436 464.004 544.712 521.443 523.089 522.224C502.011 522.981 471.233 486.88 466.312 477.275Z" fill="white"/>
<path d="M361.039 456.126C338.565 426.555 259.929 371.411 212.024 347.162C164.118 322.914 41.6934 272.051 29.8649 302.806C18.0365 333.56 38.7363 403.939 96.1045 476.093C153.473 548.247 206.701 576.635 252.24 589.055C297.78 601.475 427.302 570.129 452.142 558.892L361.039 456.126Z" fill="white"/>
<path d="M706.833 400.177C709.885 395.659 717.431 383.192 720.034 378.484C749.013 326.439 697.559 228.854 671.537 184.497C645.514 140.14 567.446 41.9871 512.444 44.9443C501.041 45.5593 490.466 50.1961 480.838 57.7663C480.838 57.7663 504.968 51.2607 497.871 88.7097C497.871 88.7097 517.577 72.552 513.65 105.27C513.65 105.27 520.747 85.9418 546.368 92.2582C571.988 98.5746 555.05 138.389 555.05 138.389C555.05 138.389 575.939 109.599 597.23 131.694C618.521 153.79 604.729 177.825 604.729 177.825C604.729 177.825 621.289 158.119 645.348 197.934C669.408 237.749 654.811 248.394 654.811 248.394C654.811 248.394 670.969 230.652 688.712 272.832C706.454 315.012 686.748 336.706 686.748 336.706C686.748 336.706 696.613 319.744 710.405 341.437C724.197 363.131 706.857 400.177 706.857 400.177H706.833Z" fill="#2E3B42"/>
<path d="M101.214 302.805C71.312 295.117 34.7856 290.007 29.8413 302.805C18.0128 333.56 38.7127 403.939 96.0808 476.093C153.449 548.247 206.677 576.635 252.217 589.055C262.318 591.799 276.536 592.414 292.812 591.562C292.812 591.562 256.546 581.556 238.023 571.312C219.499 561.069 211.219 554.35 226.596 552.387C187.562 546.07 161.847 519.764 174.551 511.768C143.016 501.122 122.269 472.852 133.932 464.454C105.946 461.686 71.241 423.054 93.313 410.823C68.0473 405.098 60.5244 384.73 64.1439 372.191C65.9892 365.757 71.7142 363.036 77.5574 361.948C53.1198 359.984 57.0468 339.474 70.0582 341.059C70.0582 341.059 46.8034 331.596 52.7176 313.073C58.6319 294.549 101.214 302.829 101.214 302.829V302.805Z" fill="#2E3B42"/>
<path d="M497.658 43.5013C454.792 61.3387 396.241 144.564 412.564 300.842C423.612 406.518 445.542 439.756 460.8 473.159C465.153 482.693 485.356 508.266 505.725 518.936C505.962 514.819 507.996 508.314 510.338 502.801C543.269 425.088 599.809 323.529 658.123 251.612C667.917 239.523 678.184 258.33 685.707 278.557C694.744 302.9 693.372 324.381 682.111 337.652C620.769 409.901 570.309 458.752 516.867 516.168C514.596 518.628 512.727 520.331 511.213 521.443C516.607 523.501 521.883 524.329 526.803 523.312C554.245 517.634 718.661 448.13 730.561 353.313C744.518 242.409 581.309 8.70192 497.658 43.5013ZM442.656 412.834C406.768 319.791 404.757 111.397 487.107 61.8118C497.634 61.9301 497.871 81.5654 491.034 101.721C489.07 107.47 487.178 112.982 486.09 116.507C472.653 159.657 440.432 327.787 448.664 410.8C449.634 420.617 447.576 425.585 442.656 412.858V412.834ZM458.955 441.625C449.682 371.931 460.564 263.677 474.711 189.891C481.571 154.121 491.815 116.625 498.297 99.8996C505.323 81.731 513.153 86.628 510.291 102.951C502.863 129.518 497.327 152.749 486.752 192.777L491.791 194.386C499.006 170.232 503.478 150.005 507.641 134.297C513.532 112.012 518.665 92.4003 539.649 94.2219C553.441 95.4047 564.749 109.788 551.809 136C533.214 173.733 482.092 337.108 474.64 445.906C473.078 468.83 460.706 455.133 458.908 441.601L458.955 441.625ZM479.915 475.549C475.941 423.716 516.915 220.172 556.304 147.332C568.534 124.739 579.038 125.97 584.952 127.862C600.14 132.735 610.786 159.373 599.974 180.996C572.745 235.43 521.67 324.097 490.324 475.407C485.664 497.904 480.956 489.128 479.915 475.525V475.549ZM648.637 248.82C595.692 327.409 562.171 367.673 506.34 495.491C497.138 516.57 498.107 493.623 499.196 480.02C506.127 394.5 565.033 261.973 609.153 181.421C613.435 173.615 624.507 177.778 637.187 193.061C656.94 216.883 656.515 237.063 648.613 248.797L648.637 248.82ZM648.022 454.66C624.625 473.017 564.371 508.006 528.246 519.716C520.771 522.153 521.646 520.544 522.45 519.622C532.457 508.266 677.664 357.548 691.598 337.983C698.482 328.331 710.949 341.248 712.487 356.601C715.988 391.661 687.742 423.551 648.022 454.66ZM717.053 376.166C719.655 353.313 716.083 327.527 693.538 327.858C707.921 295.495 685.755 242.764 661.719 239.523C664.936 207.917 626.636 162.425 612.252 167.227C616.724 139.667 583.959 103.377 563.827 126.774C569.339 96.0435 541.447 73.0252 515.874 97.865C516.11 89.6561 514.147 85.1139 509.486 83.8838C506.624 83.1268 504.116 83.458 501.845 84.6881C503.407 73.8532 501.396 58.0267 492.572 57.2933C536.976 29.4727 600.637 91.2884 650.955 163.963C706.573 244.349 734.701 319.2 717.076 376.166H717.053Z" fill="#061922"/>
<path d="M365.628 465.187L359.903 459.178C361.701 461.401 362.979 463.081 363.83 464.335C364.445 464.619 365.037 464.903 365.628 465.187Z" fill="#061922"/>
<path d="M271.237 552.529C249.567 552.008 213.68 548.98 199.438 541.032C163.574 521.018 177.319 515.979 180.631 516.121C266.151 519.953 366.338 530.954 431.253 533.934L426.545 529.014C331.113 519.859 270.314 516.31 180.725 508.621C166.531 507.391 151.604 497.952 143.3 488.655C136.25 480.754 128.018 468.097 141.691 468.996C259.314 476.685 308.615 484.137 412.706 508.219L407.17 502.4C264.282 466.488 197.072 469.327 131.448 460.598C108.785 457.57 71.6905 411.06 100.032 415.484C163.432 425.231 298.017 458.729 394.443 495.374L381.597 481.913C249.851 442.122 191.229 422.723 91.1838 407.322C76.4928 405.051 65.1375 387.167 66.6042 375.385C67.6925 366.514 74.1271 364.385 82.4544 366.207C127.024 375.977 249.662 415.65 323.685 446.64C246.681 408.765 122.34 366.159 73.6067 357.785C55.7693 354.733 62.2513 343.827 69.1828 344.395C80.3253 345.317 102.941 349.552 161.8 370.938L172.446 369.755C132.82 354.378 96.7905 343.638 81.2952 340.515C61.1868 336.47 53.8531 325.138 55.2016 316.598C56.7866 306.709 69.7979 303.658 79.9231 304.959C169.678 316.527 315.144 405.075 358.271 457.191C350.275 446.262 358.082 451.49 354.604 442.808C296.03 385.392 152.597 299.305 57.3307 290.646C19.2903 287.216 17.516 307.111 21.4431 335.523C35.519 437.509 163.692 580.349 257.232 594.969C300.879 601.783 387.653 590.924 431.631 565.422C403.787 573.465 344.574 587.967 301.305 587.092C291.156 586.879 265.559 584.158 243.511 571.904C212.639 554.753 221.96 554.753 246.09 556.598C298.135 560.549 400.191 556.787 441.686 552.458C444.903 552.127 446.772 552.553 447.86 553.333C448.191 553.026 448.546 552.694 448.854 552.387L441.969 545.172C408.779 551.583 372.607 555.036 271.261 552.529H271.237ZM267.83 587.068C103.296 563.553 -39.2371 266.138 66.0601 301.079C42.1902 302.143 43.657 328.426 62.4879 339.569C55.3435 343.117 53.5692 357.028 67.1247 362.587C62.5825 364.669 58.5372 373.256 60.5954 382.175C64.1439 397.457 74.1035 408.529 88.0848 412.692C88.1084 412.692 88.1321 412.716 88.1557 412.74C70.5549 422.699 104.219 462.136 128.278 465.66C118.531 470.203 143.016 505.83 168.164 512.572C160.286 523.076 192.104 547.845 216.495 552.718C203.696 560.099 249.638 581.39 267.807 587.092L267.83 587.068Z" fill="#061922"/>
<path d="M484.647 476.093C484.647 476.093 462.172 464.264 448.57 423.456C434.967 382.648 432.01 321.731 432.601 282.106C433.193 242.48 445.613 189.844 488.787 191.026C531.961 192.209 529.003 270.277 526.046 290.977C523.089 311.677 506.529 476.093 484.647 476.093Z" fill="white"/>
<path d="M388.245 497.976C386.305 503.559 239.797 466.63 206.086 461.307C172.375 455.984 114.415 440.016 120.921 401.573C127.426 363.131 193.666 364.905 226.786 380.282C325.128 425.94 389.546 494.238 388.245 497.976Z" fill="white"/>
<path d="M525.455 293.934C530.778 265.546 529.784 192.138 488.787 191.026C445.613 189.844 433.193 242.48 432.601 282.106C432.601 283.833 432.554 285.607 432.554 287.429C432.554 287.429 445.613 234.792 483.464 235.383C521.315 235.975 525.455 293.934 525.455 293.934Z" fill="#2E3B42"/>
<path d="M226.786 380.282C193.666 364.905 127.426 363.131 120.921 401.573C114.415 440.016 172.375 455.984 206.086 461.307C206.086 461.307 156.998 447.704 158.772 410.445C160.546 373.185 226.786 380.282 226.786 380.282Z" fill="#2E3B42"/>
<path d="M491.484 186.815C458.6 181.397 434.47 220.763 431.442 246.359C425.339 297.671 432.436 408.859 453.987 436.041C454.602 436.798 455.146 437.65 455.714 438.501C442.443 414.253 434.991 323.505 439.249 287.736C442.537 260.152 460.99 235.998 487.604 240.374C511.261 244.254 523.87 271.152 519.044 312.883C516.725 332.849 501.987 457.947 489.875 470.107C478.307 481.723 469.104 458.326 459.003 443.517C470.429 461.756 487.485 489.317 494.417 471.881C509.723 433.297 527.324 313.143 530.234 288.209C536.29 236.069 521.078 191.688 491.507 186.815H491.484ZM435.44 271.152C437.38 177.778 527.679 159.893 524.674 274.795C509.699 215.653 460.256 218.089 435.44 271.152Z" fill="#061922"/>
<path d="M182.05 365.993C152.55 363.249 118.176 374.202 116.899 407.937C116 431.5 149.333 456.316 206.299 465.66C265.134 475.312 320.041 487.259 386.588 504.552C402.486 508.692 396.359 498.733 371.637 474.342C336.223 439.401 243.842 371.766 182.05 366.017V365.993ZM208.57 377.988C139.799 378.413 144.223 431.784 178.573 451.206C96.3884 431.784 110.488 356.602 208.57 377.988ZM364.256 492.322C311.004 478.482 285.455 471.811 238.401 464.099C197.9 457.451 161.705 438.691 162.581 415.791C163.48 392.087 186.569 381.252 216.542 386.622C269.794 396.18 329.126 443.494 369.082 481.037C389.333 500.058 376.96 495.61 364.256 492.322Z" fill="#061922"/>
<path d="M574.188 535.803C566.855 526.718 545.138 517.894 523.018 512.903C533.072 484.514 536.834 440.796 508.919 417.518C482.872 395.801 434.991 383.215 389.64 409.072C340.86 436.893 323.188 504.457 358.792 546.093C382.33 573.607 414.291 577.202 452.733 570.105C453.916 596.128 461.889 623.428 481.713 634.571C514.525 652.976 545.776 648.244 571.61 627.473C596.591 607.389 597.987 565.256 574.212 535.803H574.188Z" fill="#726D9F"/>
<path d="M589.92 569.609C594.155 591.846 587.886 614.368 571.586 627.474C545.753 648.244 514.502 652.976 481.69 634.571C461.865 623.428 453.893 596.128 452.71 570.105C452.71 570.105 452.852 570.413 465.532 564.972C483.204 557.378 491.744 551.913 483.582 570.839C463.852 616.71 568.085 642.78 589.92 569.585V569.609Z" fill="#5B5781"/>
<path d="M527.489 510.513C538.868 484.94 537.212 459.958 530.541 442.5C511.781 393.435 436.102 368.619 376.605 414.253C331.917 448.508 324.702 512.027 357.94 550.872C381.266 578.149 423.754 582.525 457.867 571.359C469.53 567.905 471.209 561.234 460.895 564.688C427.964 575.736 386.707 571.241 364.966 546.638C336.578 514.535 333.691 457.12 380.816 418.985C424.321 383.759 492.548 391.708 517.837 434.078C532.268 458.231 532.883 487.164 519.919 513.116C511.19 530.575 518.926 529.77 527.513 510.466L527.489 510.513Z" fill="#061922"/>
<path d="M591.694 560.572C584.314 534.407 556.871 514.677 524.225 510.939C523.894 512.643 521.741 514.062 521.315 515.789C546.178 521.372 572.39 527.594 583.982 561.305C593.871 590.072 581.9 614.557 568.108 625.652C522.427 662.368 459.428 642.07 456.282 569.751C454.792 572.187 452 568.97 450.628 571.501C453.561 653.828 527.206 666.555 572.083 630.242C593.09 613.232 598.602 585.033 591.718 560.595L591.694 560.572Z" fill="#061922"/>
<path d="M346.348 462.869C359.596 458.398 379.042 478.033 385.926 501.477C394.75 531.45 389.167 553.499 376.865 558.869C361.559 565.564 338.446 547.868 331.444 521.775C322.502 488.442 334.519 466.867 346.348 462.845V462.869Z" fill="#061922"/>
<path d="M336.649 515.363C330.734 490.145 338.446 470.652 347.412 467.505C356.662 464.264 372.749 477.346 380.509 503.7C387.913 528.871 384.483 551.275 374.618 555.58C367.142 558.845 344.976 550.825 336.649 515.363Z" fill="#D71920"/>
<path d="M336.649 515.364C330.734 490.145 338.446 470.652 347.412 467.506C352.097 465.873 362.695 474.153 363.949 500.909C365.463 532.87 343.698 545.455 336.625 515.34L336.649 515.364Z" fill="#E2694D"/>
<path d="M498.793 418.441C478.165 399.302 441.969 394.808 428.603 408.6C414.456 423.196 424.037 455.133 444.501 473.065C469.766 495.184 501.396 495.16 513.201 481.984C525.431 468.31 517.814 436.089 498.793 418.441Z" fill="#061922"/>
<path d="M491.365 419.884C467.495 400.887 442.064 402.094 432.033 411.793C421.364 422.107 427.373 448.722 445.589 466.157C473.48 492.842 499.55 487.708 507.452 480.919C518.263 471.574 517.128 440.347 491.365 419.884Z" fill="#D71920"/>
<path d="M481.027 454.991C494.724 440.158 487.485 414.396 471.399 408.481C454.508 402.236 439.273 404.815 432.033 411.817C425.197 418.441 425.22 431.783 430.922 445.102C439.249 464.501 467.377 469.824 481.051 454.991H481.027Z" fill="#E2694D"/>
<path d="M403.219 518.439C402.462 520.899 413.889 536.868 418.667 536.395C422.949 535.969 427.255 516.144 425.267 515.056C423.28 513.968 404.071 515.671 403.219 518.439Z" fill="#061922"/>
<path d="M410.506 523.666C410.269 524.471 416.396 533.626 418.241 533.058C420.063 532.491 421.317 520.899 420.158 520.284C418.999 519.668 411.002 522.058 410.506 523.666Z" fill="white"/>
<path d="M436.173 511.815C436.363 513.163 454.531 518.841 456.85 516.049C459.192 513.258 451.976 495.586 449.895 495.468C447.813 495.349 435.819 509.189 436.173 511.815Z" fill="#061922"/>
<path d="M442.395 509.094C442.513 509.946 453.277 514.772 454.295 513.66C455.312 512.548 451.054 502.068 449.729 501.973C448.428 501.902 442.159 507.438 442.372 509.094H442.395Z" fill="white"/>
<path d="M401.469 521.396C397.684 516.404 399.978 503.085 416.373 492.463C431.229 482.858 448.026 485.153 451.811 490.996C457.63 500.033 448.972 512.524 437.262 520.781C426.048 528.658 408.731 530.977 401.469 521.396Z" fill="#061922"/>
<path d="M449.611 610.511C441.402 599.629 445.21 587.185 452.686 581.839C455.69 579.71 461.226 575.83 463.426 577.226C464.491 577.912 464.254 586.665 464.964 587.161C466.147 587.989 474.758 585.576 475.775 586.807C477.053 588.392 475.278 598.091 475.728 598.753C476.579 600.031 485.545 600.859 486.444 602.633C487.343 604.407 483.771 610.18 479.679 613.752C469.269 622.789 454.484 616.969 449.611 610.487V610.511Z" fill="#061922"/>
<path d="M453.703 607.814C448.593 601.592 448.617 592.342 451.929 588.273C454.791 584.725 457.796 583.069 459.807 583.116C461.132 583.14 461.321 590.947 462.054 591.443C463 592.106 471.422 590.119 472.203 590.852C472.96 591.562 470.949 600.457 471.848 601.592C472.747 602.728 480.412 602.988 480.98 604.147C481.548 605.306 479.395 609.352 473.977 612.498C468.654 615.574 459.073 614.367 453.703 607.838V607.814Z" fill="#56C5D0"/>
<path d="M525.171 528.54C515.637 528.848 505.015 542.876 506.056 545.834C506.837 548.034 516.181 549.429 516.513 550.518C516.844 551.606 510.314 558.064 511.095 560.241C511.876 562.441 520.818 563.505 521.244 564.617C521.67 565.729 517.364 571.218 518.287 573.583C519.233 575.925 531.487 578.196 536.858 576.115C543.742 573.465 552.022 563.292 549.372 548.743C546.723 534.194 534.681 528.209 525.147 528.54H525.171Z" fill="#061922"/>
<path d="M543.955 547.536C540.595 534.052 529.406 532.703 524.485 533.531C515.921 534.951 511.308 542.994 511.71 543.988C512.302 545.455 520.652 547.536 521.22 549.098C521.788 550.659 516.181 557.567 517.199 559.081C518.216 560.619 526.023 561.281 526.78 562.393C527.537 563.505 522.285 569.94 523.326 571.596C523.87 572.471 530.636 573.441 534.681 572.424C542.843 570.365 546.959 559.412 544.002 547.536H543.955Z" fill="#56C5D0"/>
<path d="M446.701 493.74C443.034 489.033 430.33 488.418 418.715 495.491C404.355 504.197 402.723 515.126 406.2 520.165C409.275 524.636 422.381 525.488 434.423 518.225C444.998 511.838 451.385 499.797 446.677 493.74H446.701Z" fill="#56C5D0"/>
<path d="M448.239 498.165C443.957 507.841 423.659 521.136 408.329 521.964C413.345 524.685 424.25 524.33 434.423 518.202C442.797 513.14 448.546 504.529 448.239 498.165Z" fill="#47A5AE"/>
<path d="M492.785 624.422C453.561 614.983 415.119 618.981 412.564 634.216C409.275 653.923 447.15 671.878 478.851 679.283C507.665 686.025 562.407 686.806 566.05 668.093C569.078 652.598 528.294 632.962 492.785 624.422Z" fill="#061922"/>
<path d="M559.119 580.491C551.028 540.936 553.417 504.173 570.64 497.336C587.2 490.783 611.921 521.064 620.698 569.277C632.81 635.659 620.769 657.683 607.379 660.924C594.344 664.071 570.687 637.054 559.119 580.491Z" fill="#061922"/>
<path d="M572.556 503.038C558.882 506.894 559.828 546.614 565.695 577.794C573.928 621.536 594.651 658.039 606.788 655.176C619.468 652.195 624.152 623.641 614.263 569.774C608.041 535.921 586.23 499.206 572.58 503.038H572.556Z" fill="#56C5D0"/>
<path d="M596.473 540.913C589.447 541.623 584.006 562.252 588.051 594.685C593.895 641.645 611.637 659.032 616.653 643.324C618.048 638.971 618.971 633.459 619.373 626.764C620.177 612.83 618.663 593.834 614.24 569.775C611.14 552.86 603.641 540.203 596.473 540.913Z" fill="#47A5AE"/>
<path d="M418.62 635.116C421.932 624.967 453.68 620.803 493.684 631.449C541.755 644.247 560.538 658.205 559.994 667.053C559.355 677.343 521.835 680.655 482.896 672.494C446.038 664.781 414.74 647.062 418.62 635.116Z" fill="#56C5D0"/>
<path d="M442.513 648.67C443.152 640.39 468.867 639.278 500.899 646.328C533.782 653.567 566.5 673.037 540.477 676.207C525.81 678.005 504.566 677.011 482.896 672.469C465.863 668.897 441.733 658.724 442.49 648.647L442.513 648.67Z" fill="#47A5AE"/>
<path d="M236.651 280.805C218.624 273.826 181.293 262.849 180.536 283.099C179.779 303.326 221.77 302.995 237.029 295.354C292.718 311.843 333.242 369.376 363.026 439.235C368.444 451.963 370.005 447.894 366.456 434.267C354.746 389.248 308.804 308.649 236.651 280.781V280.805Z" fill="#2E3B42"/>
<path d="M335.418 204.085C317.983 177.021 297.922 164.104 288.175 174.797C280.984 182.699 280.014 203.635 327.777 217.451C349.542 228.901 394.963 358.328 401.847 410.255C403.574 423.361 408.116 426.294 406.815 410.634C403.976 376.378 382.543 277.161 335.418 204.085Z" fill="#2E3B42"/>
<path d="M407.052 401.573C397.376 328.781 373.222 263.724 337.145 203.565C320.183 175.294 296.55 162.52 286.496 174.017C275.235 186.863 288.814 211.703 327.493 219.084C358.697 258.543 389.049 351.468 400.191 409.215C404.52 431.618 410.056 424.142 407.075 401.573H407.052ZM404.97 418.89C393.236 348.227 365.486 263.606 329.93 214.754C292.812 206.9 282.663 184.379 288.932 176.998C299.01 165.122 321.91 188.803 334.851 208.887C377.504 275.032 405.112 375.669 404.97 418.89Z" fill="#061922"/>
<path d="M242.186 281.254C211.432 269.071 182.594 264.245 178.241 280.024C173.794 296.182 200.834 311.038 236.863 297.199C274.052 309.24 320.183 342.691 360.708 437.982C367 452.791 371.921 449.503 367.805 435.001C347.365 363.202 292.954 301.363 242.163 281.254H242.186ZM366.811 444.274C356.686 416.832 313.914 315.746 236.225 292.751C209.705 305.668 178.833 292.349 182.878 280.663C186.924 268.976 210.983 275.411 235.42 283.833C295.58 304.58 352.144 378.579 366.788 444.251L366.811 444.274Z" fill="#061922"/>
<path d="M347.271 607.862C355.976 601.475 400.759 580.16 422.571 573.063C424.061 572.566 429.171 575.996 427.941 576.351C409.11 581.485 359.288 605.946 350.441 612.428C350.015 612.735 346.23 608.643 347.271 607.886V607.862Z" fill="#061922"/>
<path d="M603.239 487.164C626.044 481.983 660.252 478.175 683.696 477.56C684.453 477.56 687.292 482.551 685.991 482.575C660.016 482.953 610.431 489.53 595.574 493.244C595.385 493.291 600.684 487.756 603.239 487.188V487.164Z" fill="#061922"/>
</g>
<defs>
<clipPath id="clip0_42_59286">
<rect width="720" height="682.598" fill="white" transform="translate(20 40)"/>
</clipPath>
</defs>
</svg>
