<svg width="800" height="800" viewBox="0 0 800 800" fill="none" xmlns="http://www.w3.org/2000/svg">
<g clip-path="url(#clip0_42_69357)">
<path d="M441.132 212.211L437.655 215.687C405.746 245.179 324.886 344.365 318.33 352.243C284.606 362.596 176.938 394.884 172.668 397.207C163.883 402.006 167.265 410.81 169.891 415.288C173.329 421.182 250.052 476.405 262.88 486.494C260.972 500.115 240.662 629.605 233.88 688.607C233.88 688.758 236.657 701.133 245.008 694.86C279.543 668.978 364.088 591.329 370.832 585.038C371.796 584.868 377.256 584.188 379.164 583.847C403.8 618.024 478.709 724.371 482.865 726.864C486.172 728.848 492.897 731.474 497.469 728.943C499.944 727.582 503.61 721.461 503.723 718.514C505.801 665.331 493.162 544.721 492.293 536.219C492.746 535.256 499.283 524.147 500.039 522.522C515.72 518.687 612.318 493.635 623.37 489.706C633.099 486.229 637.653 472.608 626.846 466.751C619.969 463.01 498.811 392.824 485.662 385.381C483.451 370.172 462.027 224.869 460.629 219.844C457.644 209.132 444.57 208.111 441.151 212.192L441.132 212.211Z" fill="#0E141B"/>
<path d="M448.235 218.823C451.258 219.729 453.771 221.675 454.186 223.432C455.169 227.438 470.585 332.858 478.595 388.044L478.747 389.139L479.71 389.687C526.979 416.458 617.645 468.073 622.519 471.908C622.595 471.983 622.897 472.569 622.803 473.967C622.557 477.368 620.366 481.751 618.098 483.338C610.39 488.779 526.469 510.014 494.786 517.722L493.728 517.987L486.663 533.12L486.738 533.743C486.87 534.915 499.075 651.973 497.601 717.304C497.564 718.664 497.072 719.552 495.996 720.138C493.237 721.649 487.872 720.723 485.605 719.363C481.58 715.887 420.973 632.589 381.261 577.461L380.43 576.29L368.395 578.481L367.904 578.934C367.054 579.728 282.358 658.775 246.727 685.64C245.933 686.244 244.667 685.942 244.157 685.791C242.608 685.319 241.493 684.299 241.304 683.864C248.446 621.67 267.338 487.154 267.527 485.813L267.716 484.528L266.696 483.716C231.461 455.944 178.127 413.586 175.558 410.677C174.708 409.657 174.33 408.523 174.33 407.39C174.33 405.406 175.464 403.46 177.088 402.1C181.377 399.511 265.109 373.288 320.294 356.342L320.937 356.153L321.371 355.624C322.259 354.566 409.675 249.447 442.529 219.087C443.531 218.161 445.76 218.048 448.235 218.785V218.823Z" fill="#965E0E"/>
<path d="M621.897 477.785C622.388 476.519 622.728 475.197 622.803 474.007C622.898 472.609 622.596 472.023 622.52 471.947C617.627 468.112 526.961 416.498 479.711 389.727L478.747 389.179L478.615 388.291L355.397 433.784C355.397 433.784 474.119 438.602 621.878 477.804L621.897 477.785Z" fill="#BD771B"/>
<path d="M444.608 218.388C443.72 218.464 442.983 218.709 442.53 219.144C409.676 249.504 322.26 354.623 321.372 355.681L320.937 356.21L320.295 356.398C265.091 373.364 181.359 399.568 177.089 402.156C176.484 402.666 175.993 403.252 175.559 403.894C216.65 405.803 303.121 410.299 335.277 415.495C335.277 415.495 368.547 330.875 444.627 218.369L444.608 218.388Z" fill="#BD771B"/>
<path d="M478.652 388.461L478.595 388.045C470.585 332.86 455.169 227.439 454.186 223.434C453.752 221.677 450.313 219.24 447.29 218.333C446.006 217.936 360.422 349.259 328.191 420.899C377.123 413.494 432.044 405.275 478.652 388.461Z" fill="#774800"/>
<path d="M405.292 439.98C390.367 442.399 386.381 474.327 367.488 487.552C413.87 559.911 488.647 720.649 490.611 720.857C492.576 721.064 494.617 720.932 495.977 720.177C497.054 719.572 497.545 718.703 497.583 717.343C499.056 652.031 486.852 534.953 486.719 533.782L486.644 533.159L493.71 518.026L494.768 517.761C526.451 510.034 610.372 488.818 618.08 483.377C619.799 482.168 621.48 479.371 622.293 476.594C549.953 460.347 434.293 435.295 405.273 439.98H405.292Z" fill="#774800"/>
<path d="M301.364 476.217C276.804 536.673 244.818 678.33 242.362 684.942C242.835 685.282 243.439 685.622 244.157 685.83C244.667 685.981 245.933 686.284 246.726 685.679C282.358 658.814 367.053 579.767 367.904 578.974L368.395 578.52L371.966 577.878C344.855 545.968 322.297 511.093 301.364 476.217Z" fill="#774800"/>
<path d="M317.687 415.931C271.004 409.016 173.423 403.499 174.481 406.352C174.406 406.711 174.33 407.07 174.33 407.448C174.33 408.581 174.708 409.715 175.558 410.735C178.127 413.645 231.48 456.002 266.696 483.774L267.716 484.586L267.641 485.191C285.437 468.509 306.786 438.999 317.687 415.968V415.931Z" fill="#774800"/>
<path d="M439.167 399.757L442.001 405.066L481.411 389.12L480.277 386.324L439.167 399.757Z" fill="#0E141B"/>
<path d="M367.224 341.342L371.985 343.628C388.913 308.96 444.098 222.073 448.16 217.501L445.893 215.498C429.437 233.994 376.632 322.052 367.205 341.361L367.224 341.342Z" fill="#0E141B"/>
<path d="M429.588 440.168C464.86 444.154 614.49 475.346 622.708 478.69L623.842 475.894C615.567 472.531 464.464 439.016 429.097 435.029L429.588 440.168Z" fill="#0E141B"/>
<path d="M171.289 403.14L171.421 406.162C185.118 405.577 264.751 409.828 299.74 413.871L301.894 407.957C266.81 403.914 185.062 402.554 171.289 403.158V403.14Z" fill="#0E141B"/>
<path d="M391.048 524.108C405.709 556.339 484.245 716.095 490.536 723.576L492.841 721.63C487.155 714.867 411.433 555.866 395.714 521.293L391.048 524.089V524.108Z" fill="#0E141B"/>
<path d="M240.096 686.812L243.119 686.944C243.515 677.592 277.711 557.322 288.65 523.825L283.605 522.238C272.629 555.848 240.492 677.365 240.096 686.831V686.812Z" fill="#0E141B"/>
<path d="M251.185 436.202C248.54 488.421 273.441 533.915 329.061 546.61C331.309 547.121 342.663 560.289 349.332 567.619C361.745 581.26 364.012 585.132 367.413 585.699C374.554 586.89 380.316 589.005 383.849 585.945C389.592 580.919 390.424 568.072 390.159 559.061C389.914 550.975 389.687 543.361 394.051 541.434C405.273 536.503 416.401 530.608 423.202 521.767C430.627 512.131 458.909 524.846 475.176 532.271C488.495 538.354 493.105 543.569 494.692 541.188C496.487 538.506 503.231 527.85 505.121 523.108C505.215 522.844 502.514 516.93 475.61 490.84C465.144 480.694 455.452 468.622 454.073 466.071C455.339 460.101 456.491 440.812 456.491 438.828C456.491 410.962 445.704 385.797 427.434 365.563C409.505 345.725 386.777 334.182 360.838 332.878C304.859 330.045 254.189 376.69 251.185 436.221V436.202Z" fill="#0E141B"/>
<path d="M369.755 581.486C367.242 581.032 356.795 569.564 349.899 561.988C339.603 550.691 333.104 543.889 329.967 542.945C282.358 528.567 252.413 486.815 254.945 436.39C257.854 378.957 304.047 334.427 357.947 337.148C382.886 338.413 406.123 349.617 423.372 368.717C442.284 389.631 451.881 417.177 450.408 446.271C450.105 452.411 449.274 458.533 447.989 464.484C447.952 464.635 447.933 464.805 447.933 464.975C447.933 466.751 450.634 470.076 472.871 493.446C483.319 504.423 496.128 517.893 497.809 520.84C496.014 525.072 492.349 531.685 490.554 534.556C488.514 534.197 482.298 531.382 476.725 528.832C457.115 519.877 427.453 506.369 418.215 518.365C411.791 526.697 403.157 533.291 392.521 537.976C385.814 540.923 386.078 549.784 386.362 559.173C386.607 567.316 386.872 575.742 382.47 579.577C379.863 581.845 375.706 582.487 369.755 581.486Z" fill="#FFE100"/>
<path d="M338.054 549.387C341.228 552.542 345.157 556.774 349.899 561.988C356.814 569.564 367.243 581.032 369.756 581.485C375.707 582.487 379.863 581.844 382.47 579.577C386.872 575.742 386.608 567.316 386.362 559.173C386.324 557.643 386.268 556.131 386.268 554.658C369.926 555.621 353.697 554.488 338.054 549.387Z" fill="#FABE00"/>
<path d="M357.947 337.148C343.022 336.392 328.702 339.283 315.722 345.026C307.561 357.571 301.326 371.079 297.888 385.985C311.982 360.933 339.055 344.969 367.28 338.092C364.201 337.62 361.083 337.299 357.947 337.148Z" fill="#FABE00"/>
<path d="M448.103 417.29C445.685 406.011 441.547 395.299 435.728 385.475C407.692 385.947 379.825 390.708 356.455 406.785C397.887 396.376 427.642 405.312 448.103 417.29Z" fill="#FABE00"/>
<path d="M472.871 493.428C457.284 477.048 451.295 470.53 449.123 467.47C422.73 464.523 395.6 459.308 369.698 457.797C408.617 469.624 411.583 508.316 404.593 531.232C409.864 527.567 414.455 523.279 418.233 518.367C427.472 506.351 457.133 519.878 476.744 528.833C482.317 531.384 488.514 534.199 490.573 534.558C492.368 531.686 496.033 525.073 497.828 520.841C496.146 517.894 483.337 504.405 472.89 493.447L472.871 493.428Z" fill="#FABE00"/>
<path d="M301.175 529.608C305.501 532.442 310.092 534.974 314.91 537.203C304.765 516.591 301.666 492.087 301.666 469.133C291.294 494.619 295.035 510.904 301.175 529.608Z" fill="#FABE00"/>
<path d="M284.247 340.718C277.881 346.008 278.863 374.649 279.751 378.22C279.959 379.014 280.469 379.637 281.244 379.977C283.718 381.073 288.442 378.995 300.552 372.571C303.726 370.89 307.334 368.963 308.317 368.717C310.546 368.15 311.528 365.827 313.021 362.294C315.25 356.985 318.632 348.974 328.078 341.172C329.722 339.811 329.627 338.432 329.42 337.714C328.569 334.767 321.693 332.443 310.149 330.951L305.766 330.327C299.758 329.137 288.215 337.393 284.266 340.699L284.247 340.718Z" fill="#0E141B"/>
<path d="M283.152 372.911C283.152 364.522 284.644 347.784 288.234 344.799C294.279 339.754 303.31 334.578 306.579 335.239L311.226 335.9C314.532 336.316 322.732 337.393 325.244 338.64C315.401 346.915 311.717 355.605 309.507 360.838C308.77 362.595 307.844 364.787 307.334 365.089C305.955 365.448 303.31 366.827 298.757 369.246C294.204 371.664 286.118 375.953 283.284 376.406C283.189 375.556 283.133 374.46 283.133 372.911H283.152Z" fill="#FFE100"/>
<path d="M261.973 423.788C257.685 424.487 238.622 435.596 236.317 443.342C234.674 448.859 232.236 462.613 235.656 467.6C237.526 470.34 252.055 481.864 256.589 479.805C257.099 479.578 258.705 478.634 258.063 476.026C257.137 472.323 259.725 466.75 261.822 462.273C263.56 458.532 264.826 455.811 264.505 453.771C264.335 452.77 264.675 448.708 264.977 445.118C266.111 431.459 266.167 426.301 264.184 424.45C263.579 423.883 262.786 423.637 261.973 423.769V423.788Z" fill="#0E141B"/>
<path d="M238.773 465.447C238.036 464.37 237.715 462.141 237.715 459.402C237.715 454.848 238.603 448.897 239.944 444.42C241.588 438.903 257.155 429.419 261.69 427.832C261.897 428.626 262.011 429.797 262.011 431.403C262.011 435.408 261.538 441.132 261.236 444.798C260.915 448.595 260.707 451.221 260.707 452.903C260.707 453.507 260.745 453.979 260.802 454.357C260.802 454.395 260.802 454.452 260.802 454.489C260.802 455.547 259.441 458.476 258.421 460.648C256.475 464.843 254.114 469.887 254.114 474.346C254.114 474.95 254.227 475.517 254.321 476.084C250.826 475.064 240.775 468.319 238.792 465.428L238.773 465.447Z" fill="#FFE100"/>
<path d="M373.968 430.817C371.474 432.82 370.643 440.679 369.812 456.436L369.396 462.576C369.075 464.56 371.285 465.41 374.516 466.902C387.533 472.948 407.71 479.353 432.252 485.53C476.102 496.601 476.725 492.407 477.632 491.104C480.39 487.08 484.906 467.091 482.657 459.61C482.109 457.758 478.898 451.883 427.208 439.565C401.684 433.481 377.992 430.515 376.084 430.213L373.968 430.799V430.817Z" fill="#0E141B"/>
<path d="M373.137 462.916C373.137 463.01 373.137 463.105 373.118 463.199C373.118 463.199 373.118 462.935 373.137 462.916Z" fill="#0E141B"/>
<path d="M373.572 456.661C373.856 451.126 374.63 436.862 376.198 434.104C387.288 436.125 474.1 454.999 479.05 460.874C479.352 461.951 479.484 463.368 479.484 465.012C479.484 472.72 476.631 485.114 474.742 488.514C466.429 489.459 381.28 467.354 373.194 462.178C373.289 460.742 373.591 456.642 373.591 456.642L373.572 456.661Z" fill="#FFE100"/>
<path d="M272.44 474.062C264.354 483.905 254.605 512.47 258.157 519.876L259.971 523.825C264.24 533.347 267.849 540.715 272.119 541.735C276.842 542.85 296.906 535.274 300.363 531.061C301.497 529.682 301.232 528.51 300.987 527.925C295.999 516.872 296.112 508.257 296.188 502.552C296.244 498.641 296.263 496.034 294.469 494.598C293.675 493.975 291.2 490.744 289.028 487.891C280.715 477.028 277.276 473.155 274.575 473.117C273.743 473.117 273.007 473.438 272.478 474.081L272.44 474.062Z" fill="#0E141B"/>
<path d="M272.968 538.032C270.191 537.371 265.77 527.547 263.409 522.257L261.557 518.214C261.274 517.609 261.142 516.683 261.142 515.512C261.142 507.143 268.019 486.096 274.858 477.16C277.2 478.672 282.83 486.021 286.004 490.139C289.159 494.258 290.992 496.638 292.088 497.507H292.069C292.352 497.848 292.409 499.283 292.409 500.814C292.409 501.362 292.409 501.928 292.409 502.457C292.409 503.175 292.409 503.95 292.409 504.762C292.409 510.411 292.938 518.724 297.302 528.718C294.997 531.628 276.388 538.769 273.006 537.975L272.968 538.032Z" fill="#FFE100"/>
<path d="M352.355 375.104C352.223 375.519 351.978 377.05 351.978 379.203C351.978 384.304 353.017 392.863 357.343 397.926C359.875 400.892 364.617 403.896 372.741 401.308C389.536 395.961 422.428 396.509 438.222 396.792L444.608 396.868C446.856 396.868 449.426 394.903 452.467 390.879C458.343 383.076 466.183 366.715 464.54 360.953C462.632 354.265 450.181 341.55 445.307 338.887C424.393 327.419 356.587 361.331 352.355 375.123V375.104Z" fill="#0E141B"/>
<path d="M443.909 342.38C447.745 343.911 459.231 356.078 460.913 361.972C461.876 365.316 456.001 379.901 449.464 388.573C446.101 393.013 444.646 393.069 444.627 393.069L438.298 392.994C422.296 392.729 388.989 392.163 371.607 397.698C367.149 399.115 363.729 398.699 361.179 396.432C356.55 392.333 355.775 383.34 355.775 378.9C355.775 377.785 355.832 377.03 355.87 376.652C360.858 367.564 423.222 334.106 443.928 342.399L443.909 342.38Z" fill="#FFE100"/>
<path d="M333.255 490.687C329.741 491.745 322.902 494.787 322.335 496.809C322.203 497.319 322.127 497.904 322.127 498.585C322.127 514.058 357.381 572.757 378.748 580.597C384.605 582.751 394.505 578.085 399.417 574.986C405.613 571.094 404.82 545.967 404.782 544.89C404.442 535.028 403.176 534.348 402.326 533.914C386.947 525.695 363.974 506.217 348.048 492.274C344.685 489.327 339.565 488.779 333.255 490.687Z" fill="#0E141B"/>
<path d="M345.554 495.108C361.48 509.051 384.397 528.472 400.116 536.993C400.739 538.372 401.079 542.736 401.079 547.97C401.079 557.662 399.946 570.206 397.433 571.793C391.69 575.402 383.623 578.349 380.071 577.064C359.157 569.394 325.887 510.524 325.887 498.849C325.887 498.622 325.925 498.452 325.962 498.263C328.116 496.62 340.094 490.328 345.592 495.127L345.554 495.108Z" fill="#FFE100"/>
<path d="M311.245 335.9L306.598 335.239C305.993 335.126 305.181 335.201 304.236 335.447C301.176 346.405 298.927 357.891 298.89 369.189C303.367 366.809 305.993 365.448 307.354 365.089C307.883 364.787 308.789 362.596 309.526 360.839C311.718 355.605 315.421 346.915 325.264 338.64C322.751 337.393 314.552 336.335 311.245 335.9Z" fill="#FABE00"/>
<path d="M260.689 452.921C260.689 451.485 260.84 449.35 261.085 446.365C251.715 450.389 244.12 456.492 238.188 464.03C238.339 464.597 238.546 465.088 238.773 465.447C240.757 468.337 250.808 475.101 254.303 476.102C254.208 475.535 254.095 474.95 254.095 474.364C254.095 469.905 256.438 464.861 258.403 460.667C259.423 458.494 260.783 455.547 260.783 454.508C260.783 454.451 260.783 454.413 260.783 454.376C260.726 453.998 260.689 453.526 260.689 452.921Z" fill="#FABE00"/>
<path d="M292.353 504.819C292.353 503.987 292.353 503.213 292.353 502.514C292.353 501.985 292.353 501.418 292.353 500.87C292.353 499.34 292.296 497.904 292.013 497.545C290.917 496.657 289.085 494.296 285.948 490.196C285.117 489.119 284.116 487.815 283.058 486.455C276.068 502.287 272.799 515.493 272.724 537.975C272.799 538.013 272.875 538.051 272.95 538.07C276.313 538.863 294.922 531.703 297.246 528.812C292.882 518.818 292.353 510.486 292.353 504.856V504.819Z" fill="#FABE00"/>
<path d="M292.051 497.527L292.07 497.546L292.051 497.527Z" fill="#FABE00"/>
<path d="M363.238 397.793C365.486 398.794 368.244 398.756 371.569 397.698C388.95 392.163 422.258 392.729 438.26 392.994L444.589 393.069C444.589 393.069 446.082 393.013 449.426 388.573C455.131 380.997 460.346 368.906 460.931 363.748C426.755 366.336 390.783 376.652 363.219 397.774L363.238 397.793Z" fill="#FABE00"/>
<path d="M398.888 569.261C400.381 564.784 401.061 555.527 401.061 547.988C401.061 542.736 400.721 538.391 400.097 537.012C386.004 529.379 362.69 508.597 347.255 495.24C356.323 522.313 377.086 551.446 398.869 569.28L398.888 569.261Z" fill="#FABE00"/>
<path d="M367.224 392.351L368.659 395.374C394.051 376.481 449.747 363.502 460.969 362.917L460.874 361.027C437.617 361.178 392.918 373.232 367.243 392.351H367.224Z" fill="#0E141B"/>
<path d="M341.247 491.538C344.119 501.551 371.702 552.731 399.058 570.981L400.098 569.413C373.138 551.427 347.614 500.512 344.78 490.631L341.247 491.557V491.538Z" fill="#0E141B"/>
<path d="M272.157 540.091L273.933 539.751C271.042 524.713 278.467 489.27 284.607 482.393L281.735 481.146C271.817 497.205 269.115 524.316 272.157 540.091Z" fill="#0E141B"/>
<path d="M297.322 369.208L300.571 369.019C298.758 359.327 304.425 339.83 306.881 334.049L305.219 333.35C302.612 339.471 295.414 359.006 297.322 369.208Z" fill="#0E141B"/>
<path d="M236.487 465.712L239.227 467.45C242.042 460.706 253.566 452.525 261.199 449.823L260.594 448.123C254.171 450.39 239.85 457.683 236.487 465.712Z" fill="#0E141B"/>
<path d="M252.923 429.93C251.903 450.296 260.103 471.116 272.987 485.361C284.077 497.641 298.832 505.973 314.513 506.766C349.672 508.542 381.865 477.653 383.868 438.224C385.852 398.795 358.703 365.128 321.749 362.616C286.628 360.235 254.945 390.501 252.942 429.911L252.923 429.93Z" fill="#0E141B"/>
<path d="M314.645 502.611C299.777 501.855 285.759 495.016 275.216 483.34C262.88 469.681 256.362 450.637 257.344 431.064C259.252 393.298 288.063 363.958 321.56 365.658C355.057 367.359 380.751 399.438 378.861 437.205C376.953 474.971 348.142 504.311 314.645 502.611Z" fill="#FFE100"/>
<path d="M251.034 427.853C249.315 461.803 276.52 492.257 308.468 493.882C323.299 494.638 338.054 489.027 349.049 479.089C361.027 468.264 368.301 456.192 369.491 435.693C370.681 415.195 364.295 402.253 353.376 390.181C343.438 379.185 329.325 372.195 314.589 371.439C282.075 369.796 252.716 394.318 251.015 427.834L251.034 427.853Z" fill="#0E141B"/>
<path d="M308.676 489.575C278.788 488.064 255.796 460.896 257.402 429.024C258.988 397.625 284.04 374.217 314.419 375.766C328.135 376.465 340.793 382.492 350.051 392.732C360.291 404.067 365.486 419.257 364.655 435.523C363.842 451.676 357.211 466.148 345.989 476.294C335.749 485.551 322.487 490.274 308.676 489.575Z" fill="#BB0132"/>
<path d="M363.464 419.522C340.377 419.144 292.938 469.757 303.48 489.028C305.18 489.292 306.918 489.481 308.675 489.557C322.486 490.256 335.749 485.532 345.988 476.275C357.211 466.13 363.842 451.639 364.654 435.505C364.938 430.007 364.503 424.66 363.464 419.522Z" fill="#D7083B"/>
<path d="M327.058 377.996C322.996 376.749 318.764 375.974 314.4 375.766C284.021 374.236 258.969 397.625 257.382 429.025C256.645 443.629 261.085 457.231 268.963 467.83C307.939 464.996 337.959 419.2 327.039 377.977L327.058 377.996Z" fill="#9A0025"/>
<path d="M302.687 422.581C296.093 435.881 282.642 442.645 272.686 437.695C262.71 432.745 259.99 417.952 266.583 404.651C273.177 391.351 286.628 384.588 296.585 389.537C306.56 394.487 309.299 409.28 302.687 422.581Z" fill="#EA998F"/>
<path d="M280.28 435.749C280.28 442.305 276.218 447.614 271.193 447.614C266.167 447.614 262.105 442.305 262.105 435.749C262.105 429.194 266.167 423.885 271.193 423.885C276.218 423.885 280.28 429.194 280.28 435.749Z" fill="white"/>
</g>
<defs>
<clipPath id="clip0_42_69357">
<rect width="466.081" height="520" fill="white" transform="translate(167 210)"/>
</clipPath>
</defs>
</svg>
