<svg width="800" height="800" viewBox="0 0 800 800" fill="none" xmlns="http://www.w3.org/2000/svg">
<g clip-path="url(#clip0_42_69418)">
<path d="M282.69 430.071C277.757 424.81 250.696 406.715 222.899 388.641C207.403 407.268 113.653 485.707 112.118 488.061C108.372 493.854 103.93 508.53 103.93 510.925C124.809 518.335 207.751 530.044 244.351 535.284C258.29 499.524 274.768 457.52 284.123 434.554C283.816 432.548 283.366 430.787 282.69 430.091V430.071Z" fill="#8D93C8"/>
<path d="M277.225 130.541C272.783 129.865 259.826 129.517 255.056 129.865C253.009 133.959 249.591 150.335 249.591 153.057C249.591 155.616 257.983 261.382 259.314 279.026C299.188 269.651 342.052 260.051 368.437 254.893C379.142 243.819 392.427 227.914 405.998 210.781C374.516 188.531 285.331 133.57 277.225 130.541Z" fill="#8D93C8"/>
<path d="M665.121 258.802C661.457 256.325 652.921 253.971 644.283 253.152C620.047 251.842 580.828 254.626 554.218 255.957C559.171 275.812 563.818 295.627 567.564 313.558C568.546 313.169 569.263 312.944 569.611 312.964C573.029 315.953 578.269 324.816 578.494 326.904C578.31 327.252 577.88 327.784 577.369 328.419C587.255 336.75 602.996 352.122 619.638 368.928C632.043 344.016 653.331 306.885 663.095 280.991C666.329 272.394 666.247 263.96 665.142 258.822L665.121 258.802Z" fill="#8D93C8"/>
<path d="M419.488 565.845C411.095 563.102 361.354 581.525 313.476 598.801C319.801 618.575 323.629 688.13 325.737 697.259C326.044 698.631 339.391 713.471 341.09 714.147C356.442 712.366 362.071 707.76 363.606 706.737C368.744 703.318 446.18 639.024 466.342 614.87C443.089 589.426 422.149 566.725 419.467 565.845H419.488Z" fill="#8D93C8"/>
<path d="M571.269 322.238C592.966 340.66 611.225 360.434 619.618 368.929C650.261 399.899 683.749 435.639 688.313 440.654C692.018 444.707 695.805 459.301 694.393 464.235C693.451 467.469 649.79 474.449 615.647 481.081C599.517 484.213 585.536 487.283 579.17 489.842C578.392 525.152 577.307 573.664 575.915 612.065C574.81 642.34 573.5 666.35 571.985 672.634C570.532 678.591 564.821 691.405 561.402 693.452C554.914 693.104 535.488 687.618 532.745 685.612C526.379 680.925 494.652 645.881 466.342 614.89C443.089 589.446 422.149 566.746 419.467 565.866C411.075 563.123 361.334 581.545 313.456 598.821C271.8 613.846 231.557 628.011 221.241 626.578C220.217 620.089 218.846 602.015 219.869 598.596C220.299 597.184 231.168 568.997 244.31 535.264C258.25 499.504 274.727 457.5 284.082 434.533C283.775 432.527 283.325 430.767 282.649 430.071C277.716 424.81 250.655 406.715 222.858 388.641C191.11 368.008 158.358 347.436 156.414 346.146C153.343 344.099 142.433 330.794 140.038 326.352C141.41 324.305 158.092 306.169 162.207 303.836C166.096 301.625 210.433 290.51 259.273 279.027C299.148 269.652 342.011 260.052 368.396 254.893C379.101 243.819 392.386 227.915 405.957 210.782C437.03 171.583 469.72 125.874 477.089 116.213C480.671 111.525 498.971 102.068 501.304 102.559C503.638 103.051 516.411 120.777 519.051 128.822C523.821 143.355 540.176 199.769 554.177 255.958C556.633 265.783 561.403 286.621 571.228 322.238H571.269Z" fill="#8D93C8"/>
<path d="M605.289 433.531C606.558 428.925 607.725 417.053 607.275 411.281C601.564 405.385 579.416 389.296 560.666 382.644C559.335 375.602 556.695 356.361 556.469 348.603C562.405 343.506 591.288 323.405 591.963 321.399C592.639 319.393 585.413 309.056 581.974 306.088C581.647 306.088 549.387 322.402 541.854 325.411C535.324 318.881 513.402 295.608 507.097 286.253C510.966 266.132 514.712 232.705 511.641 222.47C511.17 220.914 496.125 215.388 490.496 215.654C489.984 217.701 472.033 267.564 468.655 269.55C465.462 271.433 435.945 279.826 423.97 280.133C409.99 262.386 390.626 244.639 387.125 243.636C385.529 243.185 373.124 249.613 370.402 253.195C372.633 256.818 385.447 294.052 387.125 302.67C386.327 302.936 365.059 319.516 360.515 323.815C341.765 321.993 320.948 321.235 310.713 322.443C309.096 326.496 303.856 337.324 303.201 342.565C312.105 347.293 346.043 364.365 346.862 365.757C345.838 382.071 349.932 407.289 349.298 412.304C338.183 419.694 317.672 432.569 309.014 443.888C311.306 452.834 315.339 458.893 317.672 463.867C324.305 461.984 356.646 450.889 362.951 450.562C376.932 462.536 392.918 479.853 415.537 501.162C416.09 518.131 411.034 548.631 411.034 550.862C419.099 553.932 434.267 559.643 435.658 560.196C439.548 553.83 452.157 534.445 458.809 515.143C478.317 508.552 510.925 495.86 522.715 491.848C528.344 495.431 544.986 520.424 549.346 525.807C558.803 517.374 564.964 510.701 565.988 509.166C564.657 495.86 558.66 477.213 550.676 459.241C553.399 450.971 557.943 431.156 558.68 424.831C564.043 425.343 592.23 430.481 605.289 433.551V433.531Z" fill="#FFE100"/>
<path d="M575.936 612.065C586.355 614.296 627.048 625.718 651.386 627.663C659.82 608.872 630.958 524.538 615.647 481.102C599.517 484.233 585.536 487.304 579.17 489.863C578.392 525.172 577.307 573.685 575.915 612.086L575.936 612.065Z" fill="#8D93C8"/>
<path d="M545.518 426.775C547.217 425.567 545.518 370.381 544.065 365.284C542.612 360.188 525.499 325.185 523.636 322.995C512.132 314.397 469.187 299.905 466.997 299.414C464.746 298.922 410.113 322.995 409.396 324.448C408.946 325.348 386.552 375.99 386.552 380.35C386.552 384.71 399.428 437.48 400.656 439.671C401.863 441.861 484.519 471.275 495.204 473.691C497.353 474.182 543.819 428.003 545.518 426.775Z" fill="#BB0132"/>
<path d="M615.647 481.08C599.517 484.212 585.536 487.282 579.17 489.841C578.474 521.18 577.553 562.938 576.386 598.78C580.214 574.523 593.417 528.651 599.803 523.575C607.868 517.188 630.466 527.791 634.581 531.415C630.774 520.074 618.778 489.943 615.647 481.08Z" fill="#7A7FAE"/>
<path d="M281.216 428.678C232.028 443.682 136.866 483.188 121.861 492.604C118.832 494.508 110.48 502.409 104.237 508.877C104.032 509.798 103.91 510.535 103.91 510.904C124.789 518.314 207.731 530.022 244.33 535.262C258.27 499.502 274.748 457.499 284.102 434.532C283.795 432.526 281.81 429.21 281.196 428.678H281.216Z" fill="#7A7FAE"/>
<path d="M419.488 565.845C411.095 563.102 361.354 581.525 313.476 598.801C314.786 602.875 318.798 627.233 319.904 634.582C337.651 607.296 405.875 585.455 397.688 611.39C379.408 653.844 339.882 716.93 337.098 711.445C337.712 712.018 340.864 714.044 341.11 714.147C356.462 712.366 362.091 707.76 363.626 706.737C368.764 703.318 446.2 639.024 466.363 614.87C443.109 589.426 422.169 566.725 419.488 565.845Z" fill="#7A7FAE"/>
<path d="M521.548 492.338C509.758 496.35 478.419 507.895 458.912 514.486C456.333 520.606 451.584 535.795 448.882 541.485C476.516 523.063 508.919 510.433 534.178 504.988C530.678 501.365 523.882 493.832 521.569 492.358L521.548 492.338Z" fill="#7A7FAE"/>
<path d="M573.05 427.861C570.143 427.287 560.174 424.954 558.68 424.811C557.943 431.136 552.764 452.383 550.062 460.653C552.437 466.65 555.016 473.896 557.268 481.061C558.332 462.822 565.537 440.142 573.05 427.861Z" fill="#7A7FAE"/>
<path d="M412.016 537.372C412.507 528.304 415.783 508.714 415.537 501.161C389.582 475.206 372.06 457.295 362.951 450.561C359.43 450.745 333.7 459.362 325.41 461.164C356.421 471.501 397.708 511.764 412.037 537.351L412.016 537.372Z" fill="#7A7FAE"/>
<path d="M591.124 253.869C587.071 254.094 557.861 255.773 554.218 255.957C559.171 275.812 563.818 295.627 567.564 313.558C568.546 313.169 582.097 306.046 582.425 306.066C585.843 309.055 591.922 318.839 592.148 320.907C591.963 321.255 580.378 330.507 579.866 331.141C589.753 339.472 602.976 352.123 619.618 368.928C625.984 356.155 634.663 340.189 642.932 324.161C626.577 320.968 611.082 313.742 598.8 306.066C593.499 298.431 590.121 274.748 591.124 253.869Z" fill="#7A7FAE"/>
<path d="M248.199 158.645C263.428 213.666 298.452 247.687 317.734 265.7C309.28 267.112 258.065 278.309 258.065 278.309C258.065 278.309 251.74 175.9 248.22 158.665L248.199 158.645Z" fill="#7A7FAE"/>
<path d="M204.742 405.322C220.524 406.714 230.8 443.17 208.304 453.773C222.244 448.656 279.681 429.19 279.681 429.19L220.258 389.131L204.742 405.322Z" fill="#7A7FAE"/>
<path d="M549.673 525.09C545.58 519.297 526.645 495.921 521.528 492.339C496.617 500.26 457.049 516.902 457.049 516.902C458.073 514.18 465.237 479.709 465.237 478.01C473.773 480.057 492.666 486.873 498.295 487.385C501.018 484.99 520.136 468.615 520.812 467.264C524.005 467.898 538.927 490.845 542.345 498.07C545.764 505.316 563.49 490.64 560.768 482.104C560.768 482.104 567.584 505.644 566.233 508.039C564.882 510.434 556.674 522.368 549.694 525.09H549.673Z" fill="#DDC300"/>
<path d="M604.429 432.629C599.987 433.304 566.213 424.789 559.356 425.116C557.657 433.304 550.636 458.133 550.042 460.651C547.074 453.958 542.284 446.097 542.284 444.746C548.261 438.606 552.682 431.789 553.03 430.07C553.378 428.371 554.054 412.323 554.054 410.276C565.046 412.671 578.617 417.686 587.01 421.37C593.847 424.093 599.046 402.784 590.08 397.482C590.08 397.482 607.827 410.788 607.827 412.487C607.827 414.186 607.152 429.886 604.409 432.608L604.429 432.629Z" fill="#DDC300"/>
<path d="M345.49 444.235C360.761 435.187 369.419 430.971 377.914 429.783C377.566 431.482 362.378 451.952 360.72 450.847C351.754 452.668 327.273 460.242 316.321 463.169L307.622 443.723C307.622 443.723 320.415 431.441 325.021 428.883C320.702 431.974 331.551 451.686 345.49 444.235Z" fill="#DDC300"/>
<path d="M425.26 520.627C428.904 508.714 433.734 489.084 434.533 478.521C431.81 478.869 416.11 495.409 414.575 506.155C414.452 507.056 414.084 528.344 411.013 550.861L436.068 559.888C436.068 559.888 450.908 536.348 453.979 526.625C449.823 538.661 422.046 531.087 425.26 520.627Z" fill="#DDC300"/>
<path d="M346.514 364.917L302.75 342.666L309.914 321.951L325.021 321.439C325.021 321.439 313.517 339.35 343.443 347.538L376.195 360.065C376.195 360.065 358.775 362.481 346.514 364.917Z" fill="#DDC300"/>
<path d="M246.213 525.418C246.213 525.418 254.913 568.936 262.589 571.822C284.43 580.01 397.258 547.668 422.926 554.075C444.133 559.377 515.715 639.371 553.256 642.769C559.028 643.302 574.544 619.844 576.386 598.76C576.386 598.76 575.24 669.093 574.339 673.678C573.418 678.264 565.374 695.069 560.788 695.99C556.203 696.911 537.658 691.118 533.994 688.355C530.33 685.612 430.418 571.965 418.853 567.708C407.288 563.45 227.668 631.491 220.32 629.648C219.132 629.341 217.515 604.348 218.477 599.374L246.213 525.377V525.418Z" fill="#7A7FAE"/>
<path d="M137.725 326.535C137.725 326.535 157.683 310.671 307.622 328.07L302.75 342.644L346.514 364.895L349.584 411.463L326.065 427.388L308.645 445.237L152.566 345.981L137.725 326.535Z" fill="#7A7FAE"/>
<path d="M608.339 418.73C608.339 418.73 669.829 437.235 695.948 463.886L563.736 492.728C563.736 492.728 554.484 463.886 551.229 458.994L559.376 425.117L604.552 433.96L608.359 418.73H608.339Z" fill="#7A7FAE"/>
<path d="M523.309 323.67C511.805 315.073 469.249 299.761 467.059 299.291C464.807 298.799 410.174 322.871 409.458 324.325C409.232 324.796 402.989 338.879 397.094 352.818L387.596 381.557C399.632 377.095 427.143 370.565 427.143 370.565L443.764 404.32L389.52 396.132C389.52 396.132 400.205 440.469 400.39 440.776C400.84 441.574 410.461 445.545 425.178 450.969L502.921 424.236L499.052 359.798L452.382 407.717L442.659 404.32L518.13 330.629L528.917 352.307C528.917 352.307 523.493 323.854 523.329 323.67H523.309Z" fill="#9A0025"/>
<path d="M526.379 391.302L545.293 378.426C545.047 373.821 544.781 369.993 544.495 367.577L529.388 355.193L526.359 391.302H526.379Z" fill="#9A0025"/>
<path d="M524.762 403.85L514.261 413.88L523.636 447.798C531.435 440.265 538.804 433.08 542.693 429.334C539.889 423.992 530.903 409.602 524.742 403.85H524.762Z" fill="#9A0025"/>
<path d="M503.167 357.014L505.459 377.79L516.042 373.062L509.471 355.561L503.167 357.014Z" fill="#9A0025"/>
<path d="M385.406 383.155L389.848 369.174L409.294 325.513L465.933 299.926C465.933 299.926 493.219 307.438 506.196 314.93L483.004 318L471.071 313.231L442.761 327.212L426.038 370.198L385.447 383.155H385.406Z" fill="#DB9087"/>
<path d="M518.928 332.287L478.358 369.583L487.794 353.043L440.673 395.784L431.585 379.817L495.941 322.441L518.928 332.287Z" fill="#DB9087"/>
<path d="M472.852 115.148C472.852 115.148 391.895 228.446 363.933 255.405C363.258 256.06 369.665 256.142 371.343 254.361C400.39 223.759 445.832 161.757 468.307 131.094L478.522 117.256C481.776 112.978 498.111 104.647 500.956 104.319C503.515 105.977 515.019 121.964 517.455 129.354C523.923 149.066 551.598 244.965 565.783 313.313C565.988 314.254 570.532 311.798 570.348 310.856C557.042 241.895 530.166 148.206 523.698 128.432C521.303 121.125 506.073 100.819 502.348 100.021C498.827 99.2635 476.393 110.501 472.852 115.127V115.148Z" fill="#0E141B"/>
<path d="M554.218 251.924L556.101 257.594C580.234 256.263 624.612 253.827 644.181 254.892C651.898 255.629 659.799 257.717 663.525 259.948C663.832 261.647 664.057 263.632 664.057 265.884C664.057 270.203 663.361 275.3 661.437 280.376C654.682 298.328 618.512 367.31 618.512 367.31C618.512 367.31 621.726 371.65 622.156 370.79C622.156 370.79 660.946 299.577 667.782 281.42C671.958 270.326 670.709 258.372 669.174 256.611C667.639 254.851 653.229 249.365 644.447 248.526C624.612 247.441 578.433 250.593 554.218 251.944V251.924Z" fill="#0E141B"/>
<path d="M253.93 125.771C253.316 125.812 252.764 126.181 252.498 126.733C250.287 131.155 243.778 150.089 243.778 153.057C243.778 154.654 256.673 279.026 256.673 279.026L261.033 278.699C261.033 278.699 251.351 154.899 251.331 153.057C251.331 150.744 254.299 136.415 256.244 131.544C261.361 131.318 272.578 131.625 276.774 132.239C285.187 135.617 372.653 189.39 404.75 212.03C405.118 212.296 407.452 208.509 407.226 208.345C377.3 187.18 290.673 130.95 282.076 127.716C280.397 127.081 261.033 125.259 253.93 125.771Z" fill="#0E141B"/>
<path d="M371.077 251.413C323.629 259.908 169.821 295.279 161.47 299.987C156.885 302.587 136.927 323.67 135.555 325.717C135.208 326.249 135.167 326.945 135.474 327.498C137.909 332.022 149.659 348.049 153.118 350.342C197.803 379.102 240.38 403.215 277.532 429.927C280.172 431.811 281.646 433.694 281.646 440.879C281.646 442.741 286.436 436.068 285.392 431.995C285.044 430.623 284.573 429.477 283.959 428.842C274.707 418.997 157.417 344.672 157.417 344.672C154.858 342.973 145.258 331.387 142.188 326.454C145.565 322.381 159.689 307.274 163.107 305.33C170.047 301.4 314.336 267.011 371.548 256.019C371.548 256.019 371.773 253.051 371.077 251.393V251.413Z" fill="#0E141B"/>
<path d="M577.553 483.065C576.652 517.269 573.275 660.003 570.286 672.203C568.812 678.241 563.593 689.356 560.85 691.608C553.788 691.014 535.877 685.713 533.769 684.178C528.242 680.104 502.225 651.59 477.068 624.038C439.814 583.222 423.172 566.949 420.02 565.925C412.221 563.387 378.201 573.561 323.117 593.457C282.015 608.318 235.651 625.082 222.796 624.918C222.019 619.269 221.364 599.761 221.568 599.086C221.814 598.308 271.104 470.456 287.828 429.947C295.852 410.501 290.489 408.597 283.059 426.467C267.911 462.984 217.577 590.96 215.53 597.653C213.319 604.899 215.939 632.574 219.153 632.983C227.341 634.007 277.266 615.564 324.427 598.513C365.407 583.713 411.812 567.809 419.037 570.163C422.333 571.78 525.335 686.204 531.128 690.462C534.301 692.795 558.352 699.223 561.955 698.056C565.558 696.889 574.912 681.619 576.202 676.379C579.252 663.872 581.811 518.784 582.506 483.085C582.834 465.891 578.003 466.198 577.553 483.085V483.065Z" fill="#0E141B"/>
<path d="M577.471 332.308C604.307 354.395 679.307 433.366 687.044 441.82C691.568 446.794 693.164 461.675 692.755 463.436C689.5 465.646 664.63 470.211 642.584 474.264C616.691 479.033 590.019 483.353 579.334 487.324C578.065 487.794 578.474 494.979 578.699 494.693C583.1 489.145 618.123 483.721 644.529 479.402C685.632 472.667 697.688 469.474 700.022 466.015C701.803 463.374 695.989 441.656 691.343 436.559C683.605 428.085 609.117 352.041 582.138 329.831C581.401 329.217 577.062 331.96 577.471 332.308Z" fill="#0E141B"/>
<path d="M219.706 386.245C208.202 403.173 161.408 439.691 131.994 465.052C113.755 480.773 108.863 484.519 108.311 485.378C104.544 491.192 99.9795 510.74 99.9795 513.688C99.9795 514.425 100.45 515.08 101.146 515.325C129.537 525.089 204.169 531.885 241.997 538.927L244.801 533.625C207.506 528.303 127.777 516.881 105.834 509.717C106.673 505.664 110.317 494.037 113.551 489.022C114.349 488.101 124.379 479.463 136.006 469.433C165.093 444.358 212.582 403.439 224.004 389.991C224.761 389.111 220.156 385.59 219.706 386.245Z" fill="#0E141B"/>
<path d="M465.216 613.539C445.627 637.181 368.068 701.701 362.664 705.304C361.375 706.204 356.278 710.503 341.56 712.345C339.247 710.585 328.521 698.753 327.436 696.727C326.74 693.513 325.778 682.787 324.653 670.362C321.869 639.269 319.023 610.489 315.175 598.371C314.131 598.883 310.877 599.538 309.833 600.05C314.438 610.018 316.158 647.007 318.286 670.669C319.474 683.913 319.842 695.54 320.6 698.835C321.07 700.862 337.732 719.08 339.902 719.857C342.256 720.963 361.006 716.05 366.922 711.444C372.305 707.862 447.756 641.746 468.369 617.387C469.065 616.568 465.728 612.966 465.237 613.559L465.216 613.539Z" fill="#0E141B"/>
<path d="M657.179 622.749C659.595 596.303 637.487 532.991 619.208 481.06C618.819 479.954 613.722 480.875 614.091 481.919C624.878 512.501 651.182 588.033 651.182 617.898C651.182 621.153 650.793 623.732 650.097 625.779C631.469 624.08 578.044 610.734 575.731 610.263V614.971C577.88 615.442 623.896 628.399 646.944 632.349C653.986 633.557 656.258 632.779 657.179 622.749Z" fill="#0E141B"/>
<path d="M368.846 253.131C368.6 253.438 368.498 253.807 368.498 254.196C368.498 254.503 368.58 254.83 368.764 255.117C371.077 258.863 383.216 292.944 385.263 301.603C383.584 303.097 355.398 323.485 355.398 323.485C355.029 323.833 361.764 324.795 361.764 324.795C361.764 324.795 387.105 304.448 388.149 303.691C388.62 303.343 388.947 301.971 388.927 301.89C387.289 293.477 375.417 260.377 372.387 255.035C375.744 251.678 385.385 245.946 387.31 245.537C394.924 248.26 417.031 273.519 428.678 289.26C433.509 295.769 435.351 293.661 430.746 287.008C415.557 265.085 393.88 242.037 388.026 240.358C384.853 239.458 371.139 250.163 368.846 253.152V253.131Z" fill="#0E141B"/>
<path d="M370.975 256.551C383.543 265.906 400.103 295.566 403.808 303.222C407.124 310.079 407.001 305.801 404.258 298.657C402.232 293.417 387.535 262.406 372.039 252.253C371.384 251.823 369.726 255.589 370.975 256.531V256.551Z" fill="#0E141B"/>
<path d="M314.582 319.802C309.751 320.313 308.134 320.702 307.294 323.015C305.902 326.884 302.791 333.925 301.276 338.797C299.925 343.157 300.519 343.526 301.379 343.976C306.148 346.514 342.686 365.039 345.061 366.206C344.979 367.516 346.882 408.209 346.145 413.756C346.145 413.879 351.099 412.139 351.201 410.973C351.775 405.098 348.561 365.776 348.561 365.776C348.643 364.486 347.906 363.565 346.371 362.849C345.122 362.255 310.508 343.444 305.288 340.885C306.25 335.809 310.14 328.501 311.818 324.202C326.679 322.77 347.722 321.951 384.505 331.919C392.447 334.069 390.093 329.913 382.172 327.682C355.173 320.088 328.951 318.266 314.582 319.802Z" fill="#0E141B"/>
<path d="M369.481 355.399C349.564 346.986 322.012 340.435 303.221 339.842C302.627 339.842 303.446 343.363 305.207 343.403C325.082 343.895 348.766 351.202 371.016 359.288C379.818 362.481 379.183 359.492 369.46 355.399H369.481Z" fill="#0E141B"/>
<path d="M360.474 403.665C348.131 409.745 315.871 430.255 306.455 443.028C306.107 443.499 305.943 444.052 306.087 444.604C307.99 452.014 314.97 464.194 314.97 464.194C315.544 465.381 316.096 465.749 317.365 465.381C324.223 463.416 354.333 452.935 360.863 452.403C372.08 459.67 394.208 485.195 412.569 501.776C413.858 510.966 409.15 551.046 409.15 551.086C409.15 552.581 409.846 552.745 410.686 553.052L435.658 562.263C436.436 562.549 437.357 562.263 437.787 561.546C443.232 552.622 455.923 538.375 464.582 491.848C466.649 480.733 464.766 477.151 462.146 486.178C455.289 523.862 442.454 550.841 434.082 557.371C432.404 556.757 415.373 550.493 413.306 549.715C413.408 548.221 416.56 519.113 416.806 504.948C416.888 500.425 416.867 499.708 413.04 496.433C396.111 480.242 383.359 465.238 364.629 449.271C363.094 447.961 362.46 447.47 359.123 448.248C349.318 450.561 324.775 459.793 317.816 461.655C317.427 460.837 312.78 451.339 310.999 444.809C322.094 429.375 355.684 409.786 366.656 403.788C373.022 400.308 368.682 399.612 360.495 403.645L360.474 403.665Z" fill="#0E141B"/>
<path d="M368.703 431.113C347.599 440.345 326.945 451.808 316.28 462.022C315.769 462.514 320.088 464.765 321.91 462.718C330.998 452.524 372.612 432.198 375.908 430.806C382.765 427.879 375.54 428.145 368.703 431.134V431.113Z" fill="#0E141B"/>
<path d="M433.53 477.989C429.518 498.99 418.423 538.107 411.812 546.623C410.89 547.81 411.832 552.968 412.446 552.231C421.76 541.116 429.026 518.764 435.761 483.208C437.746 472.748 435.208 469.248 433.53 478.009V477.989Z" fill="#0E141B"/>
<path d="M544.699 452.505C554.279 468.45 562.467 492.666 563.613 508.12C559.949 513.606 555.425 518.744 550.267 523.534C545.047 517.27 528.406 493.403 523.002 489.964C522.551 489.677 521.999 489.616 521.507 489.78C516.308 491.56 469.72 508.386 458.85 512.112C457.95 512.419 457.172 517.741 458.073 517.393C471.378 512.276 516.349 495.736 521.753 493.935C527.116 497.722 544.126 521.446 548.793 527.218C549.489 528.078 550.84 528.18 551.639 527.464C555.671 523.861 561.177 516.943 564.719 512.624C567.502 509.205 568.894 509.082 567.523 502.655C564.207 487.098 559.437 472.217 548.179 452.239C545.088 446.732 542.038 446.814 544.679 452.505H544.699Z" fill="#0E141B"/>
<path d="M525.028 473.302C541.649 495.737 547.463 513.832 547.667 522.777C547.708 524.517 551.946 525.95 551.905 525.438C550.881 513.832 547.647 495.921 529.265 473.998C523.063 466.588 520.177 466.752 525.049 473.323L525.028 473.302Z" fill="#0E141B"/>
<path d="M553.256 381.313C575.178 388.456 598.882 403.276 606.046 412.979C606.313 415.19 604.962 426.898 603.918 431.36C589.507 427.983 563.92 423.582 558.864 423.091C557.923 423.009 557.083 423.684 556.961 424.626C556.306 430.276 551.884 448.759 549.059 458.073C548.67 459.342 551.454 464.582 551.782 463.682C554.259 456.763 558.537 434.697 559.847 426.571C566.622 427.574 594.665 433.346 604.798 435.741C605.698 435.946 606.62 435.413 606.865 434.513C608.237 429.58 609.936 418.628 609.465 412.672C609.424 412.262 609.219 411.935 608.974 411.607C601.83 401.516 578.535 386.655 553.03 377.014C552.13 376.666 552.601 381.006 553.235 381.354L553.256 381.313Z" fill="#0E141B"/>
<path d="M555.057 349.298C555.057 354.927 556.838 368.396 558.23 380.555C558.434 382.294 563.429 384.137 563.122 383.236C560.952 376.706 558.68 352.655 558.68 347.517C558.68 346.555 555.057 348.356 555.057 349.298Z" fill="#0E141B"/>
<path d="M541.301 323.546C534.71 326.555 537.31 328.95 543.369 326.514C551.393 322.83 579.375 308.296 582.24 307.355C585.249 310.364 589.65 318.122 590.387 320.251C587.255 324.508 559.704 343.586 553.911 348.355C549.018 352.388 551.311 353.473 556.817 349.931C561.587 346.861 589.65 326.985 592.598 323.116C593.212 322.318 594.215 321.233 593.724 319.903C591.943 314.929 587.153 308.092 583.591 305.042C582.65 304.223 581.729 304.121 580.705 304.51C579.641 304.899 549.428 319.841 541.301 323.546Z" fill="#0E141B"/>
<path d="M490.169 213.688C489.411 213.728 488.756 214.261 488.572 214.998C487.63 218.334 470.109 266.069 467.243 268.28C461.573 271.33 436.641 276.324 422.742 278.678C421.801 278.842 424.052 282.26 424.789 282.117C439.609 279.292 465.708 273.827 469.269 271.718C473.199 269.385 489.166 224.475 491.95 217.822C497.333 218.129 508.591 222.162 510.167 223.492C512.583 229.49 508.96 271.309 504.231 294.194C502.88 300.744 506.585 295.668 508.591 287.521C514.261 264.329 516.554 225.99 514.425 220.811C513.238 217.904 495.388 213.462 490.169 213.708V213.688Z" fill="#0E141B"/>
<path d="M488.981 220.401C488.941 235.282 483.557 262.916 477.314 284.614C475.287 291.655 478.829 289.67 481.449 280.827C488.47 257.021 493.362 230.861 492.502 215.591C492.441 214.629 488.981 218.375 488.961 220.401H488.981Z" fill="#0E141B"/>
<path d="M507.875 288.258C516.636 300.785 539.889 326.188 540.196 326.393C540.953 326.945 542.98 324.162 542.243 323.568C538.661 320.743 516.144 295.136 508.346 280.623C508.346 280.623 505.93 285.433 507.895 288.238L507.875 288.258Z" fill="#0E141B"/>
<path d="M607.5 421.228C634.171 429.232 663.074 441.145 680.473 452.628C690.544 459.26 686.287 452.751 673.596 444.973C654.846 433.489 631.326 423.521 607.418 416.356C606.497 416.09 606.579 420.941 607.5 421.228Z" fill="#0E141B"/>
<path d="M578.842 489.37C587.399 503.985 622.545 575.219 630.487 592.106C634.397 600.458 634.417 595.299 630.999 586.743C624.346 570.122 593.662 505.95 583.735 488.489C583.53 488.121 578.351 488.53 578.842 489.37Z" fill="#0E141B"/>
<path d="M643.444 615.708C645.02 620.252 645.675 624.285 645.757 627.683C645.757 628.358 650.199 627.928 650.199 627.928C650.199 627.928 649.442 623.609 647.64 618.471C644.59 609.731 640.394 606.967 643.444 615.708Z" fill="#0E141B"/>
<path d="M519.256 492.871C525.704 529.245 532.622 563.04 539.459 595.197C549.653 643.157 560.461 686.594 557.349 694.843C557.002 695.744 561.791 696.276 561.955 695.866C565.865 685.939 554.156 644.938 543.43 594.461C536.573 562.18 531.763 532.029 524.435 493.075C524.373 492.748 519.153 492.359 519.235 492.85L519.256 492.871Z" fill="#0E141B"/>
<path d="M416.601 567.461C407.533 592.168 368.416 666.001 353.842 688.333C346.371 699.776 354.62 694.74 364.404 678.344C381.824 649.155 412.426 592.127 421.187 569.201C421.596 568.116 416.827 566.827 416.601 567.461Z" fill="#0E141B"/>
<path d="M448.493 577.368C444.747 572.558 439.486 564.861 433.55 558.925C432.977 560.071 426.079 556.53 425.055 557.226C434.819 564.861 449.516 583.018 451.052 584.962C457.786 593.396 455.104 585.904 448.493 577.368Z" fill="#0E141B"/>
<path d="M231.803 605.658C229.797 607.91 228.405 610.059 226.481 613.969C223.615 619.843 225.478 620.273 228.814 615.299C231.189 611.737 232.683 609.588 234.3 607.5C237.125 603.816 237.534 599.231 231.803 605.678V605.658Z" fill="#0E141B"/>
<path d="M371.937 459.485C336.156 493.915 264.268 566.049 241.526 593.028C235.221 600.499 235.774 605.371 241.444 598.514C263.592 571.699 360.31 478.481 375.847 463.968C376.543 463.313 372.633 458.83 371.937 459.485Z" fill="#0E141B"/>
<path d="M111.934 497.722C111.934 497.722 108.556 501.202 105.445 504.907C103.418 507.301 104.36 511.846 104.872 511.17C108.024 506.974 115.577 498.459 115.577 498.459C121.002 492.482 117.399 491.765 111.954 497.742L111.934 497.722Z" fill="#0E141B"/>
<path d="M278.821 426.059C250.348 435.7 168.573 466.855 135.371 483.926C124.052 489.76 120.736 495.717 132.731 489.228C164.233 472.218 255.302 438.934 283.099 430.972C284.021 430.705 279.62 425.772 278.821 426.059Z" fill="#0E141B"/>
<path d="M158.973 319.618C146.138 321.051 140.673 325.984 153.18 323.835C174.304 320.212 230.186 321.665 306.578 331.347C307.54 331.47 309.505 325.759 308.564 325.656C263.183 321.071 198.131 315.278 158.973 319.618Z" fill="#0E141B"/>
<path d="M260.215 137.153C263.06 138.32 273.704 143.519 276.877 145.504C282.383 148.943 282.874 146.692 276.693 141.922C272.414 138.627 266.11 135.044 261.586 133.96C257.165 132.895 255.425 135.188 260.215 137.153Z" fill="#0E141B"/>
<path d="M287.071 154.1C305.166 168.409 358.284 227.606 374.025 246.725C374.639 247.462 378.426 243.306 377.812 242.57C364.077 225.907 315.073 173.014 293.764 155.615C286.252 149.495 280.479 148.901 287.05 154.1H287.071Z" fill="#0E141B"/>
<path d="M659.513 263.06L649.176 271.759C643.076 276.836 647.866 275.956 651.611 273.417C654.805 271.248 657.179 269.487 659.41 267.031C662.194 263.96 663.627 259.6 659.513 263.06Z" fill="#0E141B"/>
<path d="M631.633 283.652C615.872 294.132 586.989 310.528 586.989 310.528C586.171 311.02 588.463 316.342 589.282 315.851C589.282 315.851 614.48 299.025 629.709 288.769C637.856 283.304 640.149 277.982 631.613 283.632L631.633 283.652Z" fill="#0E141B"/>
<path d="M554.033 411.362C567.584 414.494 590.674 422.272 601.523 432.282C603.16 433.776 606.251 432.691 605.637 431.954C600.704 426.018 577.655 412.631 554.975 407.739C554.034 407.534 553.112 411.137 554.033 411.362Z" fill="#0E141B"/>
<path d="M407.185 323.936C406.96 324.406 384.198 374.864 384.198 379.817C384.198 383.666 397.074 438.872 398.691 441.778C399.08 442.474 399.878 443.907 443.294 459.464C463.804 466.813 490.455 475.942 496.248 477.273C497.783 477.621 510.843 464.274 535.631 439.67C540.933 434.409 545.764 429.374 546.337 428.924C546.972 428.473 547.749 427.921 547.749 415.148C547.749 410.972 547.667 405.486 547.463 398.26C547.094 384.587 546.316 368.559 545.477 365.652C544.065 360.699 526.993 325.409 524.721 322.748C524.639 322.646 524.557 322.564 524.455 322.503C512.89 313.865 469.269 298.656 466.588 298.062C463.845 297.448 408.311 321.664 407.165 323.956L407.185 323.936ZM466.69 301.665C470.375 302.627 511.048 316.526 522.285 324.775C524.332 327.579 540.851 361.272 542.284 366.328C543.328 369.972 544.372 398.977 544.372 415.455C544.372 421.145 544.249 425.26 543.962 426.385C542.919 427.327 540.073 430.049 533.482 436.456C522.06 447.551 498.582 470.333 494.897 472.524C482.534 469.494 406.735 442.352 401.822 439.179C400.41 435.372 388.026 385.344 388.026 380.923C388.169 376.911 408.639 330.22 410.563 326.065C414.698 323.158 462.596 302.32 466.69 301.644V301.665Z" fill="#0E141B"/>
<path d="M375.028 390.789C376.932 401.576 381.885 420.408 385.304 432.219C388.865 444.501 391.485 444.03 388.599 432.669C385.652 421.084 379.511 396.541 377.054 386.244C375.294 378.855 373.493 382.048 375.028 390.768V390.789Z" fill="#0E141B"/>
<path d="M453.262 293.58C443.314 297.428 403.89 313.742 399.059 318.123C397.053 319.924 381.824 358.243 378.958 365.243C374.987 374.926 375.642 378.057 379.449 370.873C383.809 362.664 400.042 323.261 402.007 321.255C406.796 316.915 448.043 298.8 459.874 293.948C465.155 291.778 462.31 290.08 453.283 293.58H453.262Z" fill="#0E141B"/>
<path d="M469.331 293.969C476.884 296.077 511.15 308.195 520.32 313.886C526.523 317.713 524.701 313.251 518.355 309.669C508.018 303.815 487.978 296.466 473.67 292.127C467.407 290.223 463.006 292.229 469.31 293.989L469.331 293.969Z" fill="#0E141B"/>
<path d="M532.52 326.434C535.631 331.838 548.957 359.062 550.513 364.917C552.314 386.532 552.662 397.32 552.56 416.991C552.519 423.869 553.747 427.308 554.832 419.632C556.838 405.405 554.259 364.753 553.788 363.709C547.156 348.5 541.997 336.853 536.716 327.744C532.459 320.396 528.569 319.597 532.52 326.434Z" fill="#0E141B"/>
<path d="M405.794 458.113C421.289 464.254 476.557 482.676 485.338 485.542C494.692 488.612 497.128 486.176 487.978 483.004C487.978 483.004 405.139 454.08 400.492 452.566C393.409 450.253 394.003 453.466 405.794 458.113Z" fill="#0E141B"/>
<path d="M545.969 438.852C543.553 441.677 510.925 473.671 504.641 479.259C499.83 483.537 502.143 486.137 506.954 481.859C512.644 476.803 542.12 448.248 546.746 442.25C550.84 436.969 550.595 433.469 545.989 438.832L545.969 438.852Z" fill="#0E141B"/>
<path d="M468.225 313.333C466.24 314.48 446.61 322.749 441.185 326.27C440.899 326.454 440.407 327.396 440.407 327.396C436.416 337.242 426.365 363.995 424.871 369.317C424.769 369.706 424.789 370.095 424.973 370.464C424.973 370.464 436.191 393.328 438.135 397.074C441.84 404.218 442.659 400.718 439.814 394.004C437.808 389.275 429.067 371.221 428.269 369.625C430.173 363.463 440.121 338.982 444.01 329.382C449.885 325.636 471.849 315.687 472.626 315.237C475.062 313.845 470.948 311.819 468.246 313.354L468.225 313.333Z" fill="#0E141B"/>
<path d="M425.935 368.17C425.935 368.17 403.194 376.051 397.913 378.139C392.632 380.227 390.523 382.888 396.603 381.332C400.901 380.247 426.979 372.469 426.979 372.469C427.839 372.162 426.795 367.863 425.935 368.17Z" fill="#0E141B"/>
<path d="M408.332 326.556L417.256 327.293C425.014 327.887 436.334 328.726 441.963 329.422C442.536 329.504 444.911 326.495 444.01 326.372C439.077 325.614 421.76 324.325 412.651 323.629C412.651 323.629 407.411 326.474 408.332 326.556Z" fill="#0E141B"/>
<path d="M510.454 326.74C503.72 323.547 481.633 314.868 472.319 312.329C470.968 309.525 469.924 306.721 469.331 305.779C467.366 302.647 465.974 303.896 466.711 306.352C467.959 310.487 469.556 315.584 469.658 315.604C478.89 317.856 506.176 327.211 512.194 330.281C517.782 333.126 516.104 329.421 510.454 326.74Z" fill="#0E141B"/>
<path d="M522.756 322.052L516.943 331.264C516.615 331.775 516.554 332.492 516.861 333.024C519.768 338.141 525.827 352.9 527.914 357.485C529.184 357.997 530.739 356.973 531.23 356.216C528.979 350.976 522.511 336.524 520.197 332.287C520.73 331.448 523.063 327.743 524.455 325.553C525.069 324.591 523.227 321.295 522.736 322.073L522.756 322.052Z" fill="#0E141B"/>
<path d="M442.209 403.461C439.957 407.063 418.157 427.185 410.993 432.855C406.162 436.662 410.235 436.949 415.066 433.121C421.535 428.024 439.957 412.836 444.747 406.981C451.154 409.09 489.596 422.907 492.768 423.889C500.137 426.161 497.476 423.418 490.517 420.102C486.689 418.28 450.212 404.689 444.112 402.744C443.396 402.519 442.618 402.806 442.209 403.44V403.461Z" fill="#0E141B"/>
<path d="M518.171 409.109C513.688 413.019 507.445 418.669 502.102 422.599C501.693 422.906 501.447 423.397 501.427 423.909C501.427 424.687 499.769 446.221 498.786 455.104C497.681 464.95 500.301 466.363 501.406 456.517C502.266 448.697 505.541 429.579 505.848 424.769C511.436 420.552 517.004 414.227 520.791 410.276C524.762 406.141 522.879 405.036 518.191 409.089L518.171 409.109Z" fill="#0E141B"/>
<path d="M543.778 366.062C529.388 353.821 528.221 352.225 527.341 356.871C527.485 365.305 525.028 388.292 523.309 401.843C523.063 403.787 523.554 404.79 524.557 406.162C527.771 410.604 532.602 417.297 542.182 430.172L545.068 428.371C535.14 414.411 529.9 408.475 526.563 403.439C527.198 394.597 530.371 371.036 530.637 360.024C534.833 363.033 538.927 365.428 543.86 369.665C544.556 370.258 544.577 366.779 543.758 366.083L543.778 366.062Z" fill="#0E141B"/>
<path d="M508.12 124.419C507.568 120.285 506.34 115.781 505.009 111.749C503.167 106.202 499.155 104.646 500.936 109.088C502.614 113.305 504.006 119.793 504.682 124.87C505.93 134.183 502.717 184.252 498.745 216.593C499.789 217.187 501.918 217.719 502.942 218.108C503.167 216.798 503.372 215.447 503.556 213.973C507.343 182.287 509.512 134.572 508.141 124.399L508.12 124.419Z" fill="#0E141B"/>
</g>
<defs>
<clipPath id="clip0_42_69418">
<rect width="600.349" height="620" fill="white" transform="translate(100 100)"/>
</clipPath>
</defs>
</svg>
