<svg width="800" height="800" viewBox="0 0 800 800" fill="none" xmlns="http://www.w3.org/2000/svg">
<g clip-path="url(#clip0_42_69656)">
<path d="M357.577 346.768C366.735 334.982 383.789 330.174 398.79 335.758C398.79 335.758 398.776 335.758 398.762 335.758C390.608 299.626 373.31 260.651 354.576 236.248C341.743 219.524 265.416 160.452 221.432 128.225C221.375 128.182 221.317 128.139 221.26 128.096C224.03 138.92 227.289 149.255 231.739 159.706L285.442 309.086C291.557 326.326 299.653 347.601 307.319 355.051C314.755 362.272 334.379 373.469 350.844 379.742C348.073 369.019 349.753 356.831 357.562 346.797L357.577 346.768Z" fill="#FFF2AD"/>
<path d="M536.04 244.144C539.93 227.177 541.265 214.472 542.285 187.786C519.431 208.501 502.98 232.057 494.324 251.379C498.085 259.878 501.2 269.122 502.205 277.391C520.752 292.464 529.25 313.724 524.929 332.3C524.111 335.802 524.57 338.401 526.537 341.386C526.508 341.343 526.494 341.315 526.465 341.272C558.994 315.748 589.355 238.46 609.998 165.866C610.17 165.263 610.342 164.717 610.5 164.215C581.058 187.571 555.391 218.119 536.026 244.159L536.04 244.144Z" fill="#FFF2AD"/>
<path d="M536.629 359.86C535.997 355.022 531.532 348.922 526.551 341.385C524.584 338.399 524.125 335.787 524.943 332.298C529.264 313.723 520.752 292.463 502.219 277.39C500.31 261.714 490.835 242.449 483.672 231.568C481.648 228.496 481.189 228.841 480.399 231.597C478.849 237.023 475.619 258.671 469.489 268.949C463.46 269.064 456.225 269.982 450.684 271.518C439.932 266.867 418.356 261.441 408.939 261.197C405.494 261.111 404.834 261.843 407.418 264.499C414.997 272.308 427.529 283.907 434.377 291.687C437.693 295.449 438.712 299.195 436.975 306.402C434.649 316.091 426.697 332.987 428.39 336.102C430.63 340.222 445.961 342.835 461.02 345.606C464.422 346.237 467.91 347.644 471.6 349.912C481.246 355.826 496.176 367.052 506.382 372.651C508.851 374.014 510.201 375.593 512.239 378.709C515.11 383.101 516.33 384.02 521.527 382.068C530.212 378.823 537.576 367.038 536.643 359.86H536.629Z" fill="#6DBB5A"/>
<path d="M480.141 308.742C478.232 313.939 475.504 326.471 479.021 330.218C482.538 333.964 495.63 340.912 504.086 344.185C499.449 333.404 487.879 315.92 480.127 308.742H480.141Z" fill="white"/>
<path d="M450.67 271.519C456.211 269.983 463.446 269.065 469.475 268.95C469.963 268.146 470.423 267.256 470.868 266.323C459.484 265.175 428.19 240.01 425.922 240.857C424.328 241.445 429.309 257.207 432.066 265.419C439.057 267.256 445.918 269.467 450.67 271.519Z" fill="#6DBB5A"/>
<path d="M502.205 277.377C506.512 280.879 510.244 284.712 513.431 288.775C514.881 282.473 516.575 264.543 514.852 263.323C513.172 262.132 508.048 267.73 501.774 274.434C501.947 275.424 502.09 276.415 502.219 277.377H502.205Z" fill="#6DBB5A"/>
<path d="M471.585 349.899C467.896 347.631 464.408 346.224 461.005 345.592C445.947 342.822 430.616 340.209 428.376 336.089C428.075 335.529 428.089 334.496 428.319 333.146C425.232 333.233 421.629 333.548 418.945 333.922C431.075 340.252 446.32 355.411 457.776 368.719C468.757 381.48 486.888 395.448 496.822 393.783C501.616 392.979 504.688 382.528 505.578 372.207C495.4 366.479 480.988 355.684 471.585 349.913V349.899Z" fill="#6DBB5A"/>
<path d="M458.766 345.204C472.016 374.732 487.864 386.547 496.506 384.81C497.87 380.144 499.19 374.287 500.224 368.703C490.879 362.631 480.198 355.511 472.131 350.07C467.738 347.113 464.881 345.965 458.766 345.189V345.204Z" fill="#EE869A"/>
<path d="M496.305 366.205C495.114 369.622 494.238 375.766 495.157 376.311C496.075 376.857 500.468 374.086 503.353 370.885C501.028 369.378 498.745 367.856 496.319 366.205H496.305Z" fill="white"/>
<path d="M610.012 165.85C589.37 238.445 559.008 315.733 526.479 341.256C526.508 341.299 526.523 341.328 526.551 341.371C528.59 344.458 530.528 347.285 532.164 349.898C566.143 321.461 600.107 244.546 613.457 166.209C614.879 157.855 612.51 157.036 609.998 165.836L610.012 165.85Z" fill="#6DBB5A"/>
<path d="M408.666 341.256C425.462 354.319 426.926 377.201 414.882 392.691C401.79 409.529 378.549 411.195 363.677 399.624C348.892 388.126 344.011 364.196 357.576 346.754C368.831 332.27 392.015 328.308 408.652 341.256H408.666Z" fill="#6DBB5A"/>
<path d="M398.776 335.73C404.202 337.74 410.418 342.075 414.265 346.597C405.925 299.138 385.942 251.824 365.73 226.889C350.7 208.356 273.785 151.926 225.767 123.89C216.365 118.392 212.589 121.694 221.461 128.197C265.445 160.424 341.771 219.496 354.605 236.22C373.339 260.624 390.622 299.598 398.79 335.73H398.776Z" fill="#6DBB5A"/>
<path d="M464.063 375.379C464.953 382.815 465.685 388.27 466.317 393.179C466.676 395.936 466.518 397.156 465.126 399.754C462.786 404.118 460.862 406.845 457.474 411.353C456.182 413.076 456.082 414.109 456.154 415.774C456.398 420.799 455.407 426.01 452.68 431.809C449.091 439.46 445.832 445.676 441.44 453.945C440.478 455.739 441.554 457.29 443.593 457.419C445.631 457.548 449.809 457.534 452.809 456.701C456.512 455.667 462.097 452.193 465.728 446.179C470.997 437.451 476.251 423.454 476.495 416.277C476.768 408.252 474.299 391.643 471.27 381.824C468.786 379.786 466.36 377.618 464.078 375.379H464.063Z" fill="#6DBB5A"/>
<path d="M437.607 409.688C435.812 407.176 434.98 403.832 434.98 400.602C434.98 397.544 434.98 394.328 434.822 390.797C434.721 388.414 434.233 387.337 433.429 386.074C430.659 381.681 429.022 377.763 427.386 373.327C425.276 367.613 425.276 363.149 427.386 357.766C428.376 355.239 428.951 352.526 429.123 349.598C426.926 349.712 424.515 350.114 423.409 350.588C422.433 351.019 421.027 352.942 419.936 355.77C425.06 367.829 423.18 382.012 414.882 392.692C403.657 407.133 384.952 410.406 370.482 403.745C368.989 409.746 368.343 414.842 368.343 421.287C368.343 426.039 370.755 429.326 378.392 430.503C383.057 431.221 385.454 433.016 388.555 437.078C391.656 441.141 395.489 445.447 400.039 449.165C404.59 452.883 416.849 453.773 422.763 448.203C428.678 442.634 434.362 437.078 439.085 426.785C441.554 421.417 440.061 413.148 437.592 409.674L437.607 409.688Z" fill="#6DBB5A"/>
<path d="M453.01 425.98C449.579 425.836 445.014 425.463 439.717 425.09C437.506 432.698 428.635 443.479 422.103 448.762C424.012 451.446 432.223 452.207 442.602 451.647C445.387 451.503 446.722 451.015 448.617 448.963C451.79 445.489 454.89 436.947 456.871 431.105C458.048 427.631 456.843 426.152 453.01 425.994V425.98Z" fill="#6DBB5A"/>
<path d="M464.063 375.379C464.953 382.815 465.685 388.27 466.317 393.179C466.676 395.936 466.518 397.156 465.126 399.754C462.786 404.118 460.862 406.846 457.474 411.353C456.182 413.076 456.082 414.109 456.154 415.774C456.312 419.134 455.91 422.579 454.819 426.211C454.287 426.096 453.713 425.995 453.01 425.967C449.579 425.823 445.014 425.45 439.717 425.077C439.717 425.077 439.717 425.077 439.717 425.091C441.253 419.808 439.832 412.789 437.607 409.673C435.812 407.161 434.98 403.817 434.98 400.587C434.98 397.529 434.98 394.313 434.822 390.782C434.721 388.399 434.233 387.322 433.429 386.059C430.659 381.667 429.022 377.748 427.386 373.312C425.276 367.598 425.434 363.191 427.386 357.751C428.979 353.315 429.352 347.013 428.233 339.721C443.019 350.76 453.986 365.991 464.063 375.35V375.379Z" fill="#FFF2AD"/>
<path d="M318.588 295.076C322.406 298.65 322.981 301.407 320.655 305.383C311.999 320.154 309.788 340.668 313.391 349.783C315.401 354.851 319.047 356.401 325.105 351.219C338.054 340.137 350.629 319.767 352.825 303.976C354.06 295.076 350.083 291.358 343.48 290.41C337.264 289.52 334.178 287.525 328.235 282.702C305.769 264.471 295.16 236.105 284.15 203.332C272.996 170.1 249.109 159.075 221.461 160.022C159.001 162.176 105.414 183.708 80.7657 222.711C118.807 188.503 165.461 172.468 224.073 174.866C246.554 175.784 260.737 185.733 268.819 208.356C283.418 249.269 294.184 272.237 318.588 295.076Z" fill="#6DBB5A"/>
<path d="M502.363 388.328C512.612 400.874 512.555 418.316 505.679 430.618C497.999 444.356 480.658 449.61 466.475 445.074C471.801 435.944 476.366 422.723 476.667 417.698C476.968 412.674 473.925 388.514 471.269 381.811C480.471 389.706 493.434 395.103 496.836 393.768C500.095 392.505 500.956 391.141 502.363 388.328Z" fill="#6DBB5A"/>
<path d="M382.813 431.363C365.027 448.604 355.639 471.314 353.371 494.253C349.767 530.543 363.95 567.407 390.809 584.203C393.005 585.581 395.144 586.169 398.245 584.476C426.151 569.159 441.224 543.391 444.038 510.819C445.588 492.918 443.363 471.213 437.334 451.374L382.813 431.363Z" fill="#6DBB5A"/>
<path d="M440.348 462.012C439.1 465.701 436.659 470.151 434.377 472.491C431.678 475.262 422.692 475.132 418.974 471.859C413.705 467.237 407.906 458.323 404.776 451.346C408.954 452.968 417.452 452.222 421.859 449.207C425.95 451.461 432.08 452.107 437.449 451.791C438.626 454.806 439.588 457.921 440.348 462.012Z" fill="#FFF2AD"/>
<path d="M287.136 667.722C287.38 650.022 292.706 619.172 300.055 608.148C307.405 597.123 319.435 579.437 327.33 565.8C333.13 555.78 325.866 535.941 317.282 529.194C307.233 521.299 289.892 525.017 285.169 531.879C270.125 553.713 259.803 567.824 248.018 576.078C234.036 585.883 195.277 608.851 184.511 628.948C175.223 646.289 188.229 688.479 220.399 694.264C254.994 700.48 287.007 678.718 287.15 667.707L287.136 667.722Z" fill="#6DBB5A"/>
<path d="M534.389 656.654C532.781 653.424 531.346 651.802 527.929 650.553C513.761 645.356 483.127 631.475 471.413 620.407C468.183 617.364 466.676 614.966 465.499 609.999C463.532 601.745 462.943 596.534 462.269 590.089C460.848 576.408 447.268 569.073 425.62 561.264C420.481 567.968 414.294 573.911 407.016 579.021C406.8 594.065 399.58 608.808 401.633 617.019C404.331 627.829 446.32 674.799 449.177 690.044C450.254 695.786 453.211 698.226 459.039 700.451C488.639 711.749 526.867 702.605 535.294 684.13C539.04 675.918 538.107 664.09 534.404 656.682L534.389 656.654Z" fill="#6DBB5A"/>
<path d="M452.134 456.859C451.043 457.103 449.866 457.261 448.689 457.362C451.459 466.118 449.263 477.057 443.693 483.416C444.655 493.006 444.784 502.337 444.052 510.82C442.774 525.578 438.956 538.928 432.582 550.556C452.507 561.753 481.591 551.015 485.625 519.434C489.056 492.561 477.629 466.865 452.134 456.874V456.859Z" fill="#6DBB5A"/>
<path d="M433.171 550.855C433.171 559.411 431.908 572.087 426.123 582.781C430.429 588.322 438.927 591.854 444.885 591.438C446.134 579.638 450.986 564.924 457.072 553.956C449.033 555.822 440.521 554.803 433.171 550.87V550.855Z" fill="#FFF2AD"/>
<path d="M320.641 305.398C322.966 301.421 322.392 298.651 318.574 295.091C294.17 272.252 283.403 249.283 268.804 208.371C260.737 185.747 246.554 175.799 224.059 174.88C165.447 172.483 118.793 188.518 80.7513 222.726C120.544 205.328 165.576 207.151 198.205 225.382C226.026 240.914 243.769 267.371 241.285 298.809C268.661 296.986 300.572 312.992 311.784 336.046C312.257 326.442 315.143 314.772 320.626 305.412L320.641 305.398Z" fill="#EFEFEF"/>
<path d="M362.271 361.052C364.754 383.245 399.092 399.998 421.529 378.364C419.907 394.414 397.642 412.989 375.664 405.524C353.342 397.931 347.255 378.723 350.672 360.736C352.538 362.933 355.825 364.21 362.271 361.052Z" fill="#5DA34E"/>
<path d="M535.437 658.692L537.074 666.343C548.802 674.095 557.257 683.397 561.693 694.968C560.544 685.493 559.137 675.459 556.338 672.172C553.539 668.884 542.6 661.176 535.437 658.678V658.692Z" fill="#EFEFEF"/>
<path d="M472.676 545.717C463.676 555.493 444.468 557.388 432.582 550.541C442.99 533.257 446.492 503.025 443.636 482.971C445.157 524.744 454.158 543.148 472.676 545.717Z" fill="#5DA34E"/>
<path d="M440.348 462.012C444.009 462.557 446.507 463.318 449.852 465.069C449.78 471.902 447.799 477.903 443.621 482.985C443.162 476.539 441.612 467.309 440.348 462.012Z" fill="#FFF2AD"/>
<path d="M464.164 375.838C454.359 365.546 440.478 347.846 428.032 339.477C429.223 344.86 429.582 352.281 427.429 357.062C425.275 361.842 423.309 369.565 433.889 386.605C440.707 397.615 453.986 405.022 463.776 402.324C466.073 398.577 466.748 396.18 466.432 393.423C465.599 386.131 464.752 380.26 464.164 375.838Z" fill="#DDD196"/>
<path d="M449.938 360.391C443.55 353.372 436.487 345.893 428.233 339.734C429.367 347.012 428.979 353.329 427.386 357.764C425.692 362.459 425.362 366.392 426.654 371.057C432.841 364.626 442.746 360.808 449.923 360.391H449.938Z" fill="#5DA34E"/>
<path d="M369.664 409.214C393.823 417.468 420.022 407.893 432.712 384.695C428.764 380.03 425.333 362.746 427.084 358.497C428.52 355.023 429.266 351.621 429.137 349.611C426.496 349.64 424.543 349.769 423.424 350.602C422.304 351.434 420.696 354.033 419.95 355.784C432.066 382.714 404.992 417.813 370.496 403.759C370.037 405.152 369.922 407.779 369.678 409.214H369.664Z" fill="#5DA34E"/>
<path d="M465.571 399.509C467.695 401.332 470.954 401.748 475.002 400.829C474.499 395.245 473.179 386.417 471.758 381.852C469.533 380.029 465.972 377.488 463.848 375.363C465.169 382.268 465.958 388.154 466.389 391.9C466.69 394.542 466.791 396.666 465.571 399.509Z" fill="#5DA34E"/>
<path d="M448.129 449.394C454.517 449.824 463.546 447.8 468.872 440.465C462.958 453.27 456.297 457.906 444.095 457.476C441.009 457.375 440.793 454.504 442.602 452.049C444.942 451.734 446.851 450.671 448.129 449.394Z" fill="#5DA34E"/>
<path d="M428.879 442.489C437.721 443.565 448.387 444.182 452.235 442.359C450.34 448.633 445.818 451.331 443.32 451.547C434.779 452.236 424.386 451.432 422.189 448.704C424.084 446.953 427.056 444.312 428.879 442.489Z" fill="#5DA34E"/>
<path d="M369.19 413.751C369.19 420.096 372.061 425.12 378.765 426.311C385.469 427.503 389.646 430.374 394.8 436.719C403.886 447.916 414.653 448.045 423.754 440.064C433.559 431.451 439.545 424.273 439.789 415.775C443.378 423.914 432.97 439.461 424.113 446.882C415.256 454.304 404.489 453.586 398.518 447.959C392.531 442.332 389.79 438.513 387.148 435.398C384.507 432.283 380.574 430.733 376.741 430.13C370.037 429.082 366.362 425.235 369.204 413.736L369.19 413.751Z" fill="#5DA34E"/>
<path d="M535.739 366.192C532.71 374.877 526.724 379.499 521.728 381.868C516.732 384.251 514.263 383.016 512.555 379.413C510.832 375.81 507.588 373.025 504.2 371.058C493.463 364.828 477.945 354.062 472.806 350.832C467.666 347.602 463.719 346.052 457.618 345.09C443.435 342.865 430.616 339.046 428.549 336.118C425.922 332.414 435.798 312.747 437.047 305.728C438.368 298.306 437.607 295.004 432.023 289.105C421.371 277.864 405.652 264.313 406.068 261.715C421.615 271.763 432.295 279.716 438.813 286.406C445.33 293.095 448.488 301.995 447.225 309.991C445.1 323.557 446.349 326.327 458.192 332.558C464.149 335.687 468.183 338.357 475.433 343.841C482.524 349.21 488.237 353.315 494.554 357.866C499.406 361.354 505.177 363.364 509.411 362.531C516.058 361.239 521.01 363.134 523.063 371.36C523.537 373.24 530.312 373.513 535.753 366.192H535.739Z" fill="#5DA34E"/>
<path d="M509.928 332.944C510.301 328.537 515.053 329.054 517.005 332.485C518.943 335.902 519.46 339.347 521.326 340.739C516 338.959 510.861 341.328 507.358 344.184C509.225 341.055 509.641 336.217 509.928 332.944Z" fill="#5DA34E"/>
<path d="M481.706 229.975C483.586 239.908 484.835 254.149 485.137 262.073C485.381 268.49 481.978 270.169 476.093 270.011C474.456 269.896 471.872 269.279 469.389 269.049C474.629 258.01 477.069 250.503 479.495 235.975C480.213 231.697 480.873 230.176 481.72 229.989L481.706 229.975Z" fill="#5DA34E"/>
<path d="M503.956 382.326C489.917 391.154 475.303 379.283 458.895 345.074C445.244 342.734 429.998 339.375 428.52 336.117C428.218 335.456 428.103 334.322 428.448 333.188C425.505 333.073 423.122 333.418 419.39 333.978C431.621 341.442 449.206 358.41 458.106 369.406C470.107 384.235 491.266 396.695 497.382 393.638C499.879 392.389 502.822 388.542 503.942 382.311L503.956 382.326Z" fill="#5DA34E"/>
<path d="M423.869 327.633L425.735 333.16L428.218 333.26L428.879 331.222L423.869 327.633Z" fill="#5DA34E"/>
<path d="M426.209 241.201C430.716 248.881 441.353 261.758 452.392 271.591C445.947 269.136 438.382 266.883 432.137 265.045C429.381 258.6 425.491 244.072 426.209 241.216V241.201Z" fill="#5DA34E"/>
<path d="M428.678 331.481C430.314 324.964 435.209 313.652 436.961 306.388C438.698 299.182 437.678 295.449 434.362 291.674C431.592 288.53 427.888 284.769 423.969 280.879C422.821 285.487 422.376 288.071 422.117 291.042C421.802 294.689 420.38 295.449 417.366 295.32C409.758 295.004 402.623 295.478 398.503 296.741C404.748 300.833 411.681 307.58 416.174 313.164C411.667 313.695 407.202 314.484 403.815 315.518C411.925 319.58 421.471 325.61 428.692 331.467L428.678 331.481Z" fill="#5DA34E"/>
<path d="M492.601 363.564C482.883 361.339 476.208 365.559 475.849 372.349C469.289 364.741 461.982 352.955 458.896 345.074C463.661 345.749 467.178 347.041 471.399 349.74C475.619 352.438 483.586 357.592 492.601 363.564Z" fill="#CF7487"/>
<path d="M479.036 313.939C486.285 321.561 496.865 333.605 503.985 344.056C498.214 331.151 487.878 316.035 480.5 309.273C480.012 310.135 479.509 311.857 479.021 313.939H479.036Z" fill="#DCDDDD"/>
<path d="M499.822 368.674C498.056 371.215 496.549 373.712 495.329 376.296C494.496 374.976 494.841 370.583 496.348 366.377L499.822 368.674Z" fill="#DCDDDD"/>
<path d="M608.964 169.152C588.078 243.655 561.965 309.804 526.465 341.399C526.465 341.399 529.437 345.462 529.566 345.706C577.986 299.942 600.409 213.811 613.213 159.893C612.567 159.893 611.089 161.601 608.964 169.166V169.152Z" fill="#5DA34E"/>
<path d="M606.768 167.056C597.294 199.097 562.109 288.946 526.48 291.501C531.877 278.897 539.084 228.798 540.045 220.716C533.011 242.306 513.014 256.46 496.061 255.7C498.573 261.743 500.956 268.26 502.105 274.175C507.631 267.198 513.373 262.978 514.378 263.365C515.369 263.753 514.019 282.73 513.488 287.64C523.479 301.392 528.446 317.427 525.245 330.26C524.255 334.208 524.226 338.184 526.48 341.4C568.153 305.856 594.911 216.022 610.099 164.889L606.783 167.056H606.768Z" fill="#DDD196"/>
<path d="M381.808 333.433C387.163 332.787 392.862 333.39 398.618 335.528C392.617 302.756 368.788 250.345 352.567 233.722C332.943 213.624 249.539 147.318 221.69 128.455L222.781 133.221C276.671 174.176 312.386 209.748 338.671 249.182C344.915 258.556 349.308 269.897 350.758 281.826C360.046 293.224 375.348 315.962 381.808 333.433Z" fill="#DDD196"/>
<path d="M81.8136 220.946C113.84 186.522 165.217 165.521 230.533 168.277C247.372 168.98 266.981 177.866 274.417 202.887C283.446 233.234 298.519 270.945 321.2 290.052C327.115 295.033 329.627 300.101 326.225 307.092C322.823 314.083 320.31 322.164 319.952 329.514C319.392 341.07 325.177 346.497 340.408 333.634C334.493 342.606 327.675 349.425 323.54 352.655C317.971 357.019 312.918 353.042 312.243 346.382C310.678 330.993 313.894 315.848 320.497 305.111C323.024 301.005 321.933 297.919 317.152 293.741C301.204 279.845 282.671 251.02 268.589 207.366C261.569 185.604 243.769 175.885 229.112 174.823C176.701 171.019 123.946 184.886 81.828 220.917L81.8136 220.946Z" fill="#5DA34E"/>
<path d="M85.5316 219.797C127.894 191.604 172.223 183.048 224.131 186.048C240.079 186.967 252.21 194.087 258.052 211.227C267.483 238.918 275.278 256.69 288.916 276.787C298.419 290.784 296.538 304.722 289.117 311.369C297.113 317.441 305.84 325.135 311.769 335.5C312.071 327.504 316.578 310.866 320.942 304.708C323.454 301.148 321.646 298.263 317.985 294.645C295.648 272.567 279.858 244.546 268.818 208.356C262.028 186.12 247.113 176.215 224.791 174.866C168.777 171.478 114.5 190.182 85.5316 219.797Z" fill="#C9CACA"/>
<path d="M442.789 518.944C451.804 516.69 451.99 503.311 444.684 498.129C444.827 505.421 444.153 514.652 442.789 518.944Z" fill="#DDD196"/>
<path d="M393.063 442.647C367.008 491.196 391.239 535.726 405.666 539.013C414.466 541.023 433.415 534.707 442.889 519.806C438.238 548.129 423.539 570.609 398.245 584.49C395.144 586.184 393.02 585.596 390.809 584.218C363.95 567.437 349.767 530.558 353.371 494.268C355.639 471.487 364.912 448.92 382.468 431.723C385.885 432.254 389.991 439.331 393.063 442.661V442.647Z" fill="#5DA34E"/>
<path d="M449.708 554.358C446.363 562.627 439.975 581.877 439.559 590.878C434.635 589.729 430.659 587.533 426.266 583.026C430.458 574.025 432.654 564.292 432.97 550.482C437.578 553.196 443.535 554.674 449.708 554.358Z" fill="#DDD196"/>
<path d="M292.332 573.465C280.245 591.926 272.565 619.014 268.991 641.638C265.904 661.161 252.54 675.171 225.767 671.252C196.54 666.96 186.434 640.346 190.784 620.076C188.214 623.062 186.047 626.034 184.496 628.933C175.208 646.274 188.214 688.464 220.384 694.249C254.98 700.465 286.992 678.703 287.136 667.692C287.38 649.992 292.705 619.143 300.055 608.118C306.142 598.988 316.722 582.954 324.344 570.508C317.167 574.197 305.266 574.743 297.902 572.015C294.859 570.895 293.782 571.254 292.347 573.451L292.332 573.465Z" fill="#5DA34E"/>
<path d="M515.01 660.789C503.052 657.918 481.031 648.113 465.011 638.065C447.641 627.169 439.229 614.149 439.573 591.468C428.735 590.836 421.931 579.955 420.725 567.035C416.677 571.428 412.112 575.433 407.001 579.007C406.786 594.052 399.565 608.794 401.618 617.006C404.317 627.815 446.306 674.785 449.162 690.03C450.239 695.772 453.196 698.213 459.024 700.438C484.132 710.027 515.412 704.902 529.494 691.853C532.322 676.063 525.245 663.244 515.01 660.789Z" fill="#5DA34E"/>
<path d="M300.328 245.336C312.056 267.931 330.173 289.564 345.202 290.756C356.112 291.617 353.04 302.297 351.303 311.456C346.466 336.821 339.317 364.986 312.544 359.259C320.885 365.675 339.432 376.011 350.586 379.298C344.355 363.048 358.237 334.984 381.808 333.434C365.86 289.966 334.867 260.308 300.328 245.336Z" fill="#DDD196"/>
<path d="M476.595 385.83C474.973 384.725 473.365 383.576 471.801 382.385C473.724 389.806 476.337 404.908 476.61 416.866C476.739 422.22 470.293 438.025 466.863 445.031C478.261 449.567 496.391 444.485 503.669 433.489C505.521 429.283 506.239 424.402 506.11 419.507C489.4 418.201 477.686 400.185 476.595 385.844V385.83Z" fill="#5DA34E"/>
<path d="M504.243 344.486C499.463 341.313 494.669 340.567 490.434 338.026C488.826 333.361 490.434 327.446 494.381 326.729C497.425 331.394 500.124 334.983 504.243 344.486Z" fill="#0F141B"/>
<path d="M496.118 333.949C495.458 335.184 494.166 335.557 493.175 335.083C492.228 334.638 491.51 333.274 492.099 332.097C492.759 330.805 494.223 330.231 495.314 330.848C496.42 331.466 496.736 332.758 496.104 333.935L496.118 333.949Z" fill="white"/>
<path d="M518.713 364.57C520.12 365.905 520.938 367.039 521.47 368.661C521.943 370.125 523.637 369.939 523.077 368.073C522.575 366.407 521.154 364.57 519.503 363.637C517.981 362.79 517.522 363.436 518.713 364.584V364.57Z" fill="#0F141B"/>
<path d="M503.282 344.803C496.65 330.189 486.486 315.776 473.48 303.316C469.777 299.77 470.94 298.464 474.729 301.909C487.979 313.925 498.745 328.768 505.177 344.056C507.244 348.966 505.435 349.568 503.282 344.817V344.803Z" fill="#0F141B"/>
<path d="M470.193 267.499C458.422 265.791 428.132 241.803 426.912 242.449C426.438 242.693 428.778 252.627 433.587 265.877L430.688 265.188C426.654 253.273 423.094 240.669 425.204 239.464C427.644 238.071 460.245 264.37 471.298 265.174L470.179 267.499H470.193Z" fill="#0F141B"/>
<path d="M414.653 313.336C410.806 308.642 405.494 303.144 399.565 298.823C396.321 296.469 396.407 295.981 400.097 295.163C404.303 294.23 410.576 293.77 417.395 294.057C420.223 294.172 420.581 293.655 420.826 290.827C421.098 287.641 421.615 284.626 422.807 280.133L424.974 281.798C423.912 285.817 423.51 287.928 423.309 291.1C423.065 295.263 421.687 296.713 417.28 296.555C409.614 296.268 404.561 296.598 401.058 297.201C406.413 300.876 412.93 307.106 417.538 312.92L414.638 313.308L414.653 313.336Z" fill="#0F141B"/>
<path d="M428.879 334.252C426.998 334.252 424.931 334.338 422.304 334.567C432.281 340.066 447.354 354.665 458.594 367.871C471.083 382.557 488.826 393.883 496.592 392.562C499.808 392.017 503.253 384.638 504.373 371.79L506.799 372.795C505.65 385.241 501.99 394.328 497.066 395.161C488.281 396.639 471.528 386.705 456.828 369.608C445.789 356.789 431.305 342.003 419.979 335.759C416.835 334.022 416.462 333.06 420.625 332.558C422.993 332.271 424.974 332.084 427.544 332.027C421.199 326.844 412.858 321.504 404.848 317.298C401.676 315.633 402.078 314.757 405.422 313.91C412.327 312.145 421.285 311.197 428.678 311.499C432.913 311.671 432.97 313.279 428.707 313.336C421.228 313.437 412.342 314.413 406.686 315.848C413.318 319.308 421.945 324.418 429.668 330.763L428.893 334.237L428.879 334.252Z" fill="#0F141B"/>
<path d="M504.416 371.632C500.095 375.321 496.247 378.077 494.597 377.086C493.147 376.211 493.979 370.928 495.343 365.832L497.209 367.038C496.204 370.555 495.415 375.206 495.745 375.45C496.061 375.665 499.549 373.397 502.592 370.397L504.43 371.632H504.416Z" fill="#0F141B"/>
<path d="M500.152 373.756C499.406 378.35 498.372 382.211 497.468 384.867L494.941 385.168C496.075 381.996 497.066 378.565 497.539 375.478L500.166 373.756H500.152Z" fill="#0F141B"/>
<path d="M459.857 345.347C477.457 378.909 490.132 385.814 497.97 383.747C501.545 382.8 501.918 384.293 498.329 385.57C489.084 388.843 474.471 379.957 456.785 344.744L459.857 345.347Z" fill="#0F141B"/>
<path d="M512.469 287.61C513.933 280.691 515.268 265.489 514.048 264.57C513.115 263.881 507.287 269.882 501.99 275.896L501.444 273.054C505.822 268.259 512.986 260.393 515.584 261.943C518.053 263.422 516 281.926 514.364 289.921L512.483 287.596L512.469 287.61Z" fill="#0F141B"/>
<path d="M493.448 249.527C502.75 228.597 519.345 206.677 539.198 188.92C542.486 185.977 543.548 186.293 543.447 190.915C542.959 211.917 541.007 230.42 538.122 241.704L533.887 246.843C538.351 228.77 539.815 211.371 540.993 190.771C522.23 208.644 505.578 230.966 495.099 253.145L493.463 249.527H493.448Z" fill="#0F141B"/>
<path d="M531.317 348.663C564.894 319.723 599.174 243.195 612.309 166.036C613.314 160.165 612.74 160.179 611.075 166.151C599.16 208.958 566.918 311.942 527.341 342.49L525.791 339.949C564.765 308.583 596.734 208.125 608.821 165.577C611.721 155.356 616.271 156.303 614.534 166.424C600.94 246.181 567.263 322.809 532.911 351.117L531.303 348.648L531.317 348.663Z" fill="#0F141B"/>
<path d="M610.314 165.736C579.78 190.47 548.113 227.564 515.24 276.271L515.369 270.96C546.476 223.674 580.039 186.666 610.96 162.248L610.314 165.751V165.736Z" fill="#0F141B"/>
<path d="M429.553 340.868C430.716 347.328 430.458 353.199 428.505 358.224C426.467 363.449 426.438 367.267 428.477 372.823C430.199 377.488 431.821 381.177 434.463 385.355C435.396 386.819 435.984 388.269 436.071 390.738C436.214 394.198 436.142 397.356 436.142 400.557C436.142 404.074 436.846 406.529 438.54 408.897C441.325 412.802 442.846 421.487 440.147 427.358C435.539 437.392 430.085 442.976 423.553 449.121C416.921 455.351 403.843 453.901 399.307 450.154C394.914 446.522 391.326 442.704 387.622 437.866C384.421 433.674 382.282 432.454 378.119 431.808C370.295 430.602 366.807 427.387 366.807 421.315C366.807 414.898 367.568 409.314 369.132 403.055L371.774 404.304C370.31 410.189 369.664 414.941 369.664 421.2C369.664 425.607 372.032 428.148 378.549 429.152C383.445 429.913 386.244 432.038 389.459 436.258C393.077 440.995 396.881 444.914 400.786 448.101C404.877 451.432 416.26 452.494 421.845 447.254C428.247 441.24 433.515 435.957 437.994 426.195C440.449 420.855 438.856 413.635 436.53 410.376C434.549 407.605 433.745 404.95 433.745 400.6C433.745 397.413 433.688 394.298 433.544 390.867C433.458 388.829 433.07 387.91 432.31 386.719C429.582 382.412 427.917 378.594 426.166 373.828C424.027 368.014 424.012 362.946 426.209 357.319C428.247 352.094 428.19 345.763 426.553 338.715L429.496 340.882L429.553 340.868Z" fill="#0F141B"/>
<path d="M424.543 333.175C423.883 331.237 423.094 329.227 422.189 327.16L425.548 329.356C426.094 330.648 426.582 331.912 427.013 333.146H424.529L424.543 333.175Z" fill="#0F141B"/>
<path d="M464.322 377.001C460.833 376.484 458.551 378.149 458.264 381.795C457.934 386.045 456.441 385.958 456.412 381.695C456.383 377.317 458.752 374.13 463.231 374.632L464.322 377.015V377.001Z" fill="#0F141B"/>
<path d="M423.051 447.987C424.314 449.695 429.783 451.145 442.559 450.456C445.014 450.327 446.019 449.968 447.741 448.073C450.785 444.728 453.713 436.718 455.723 430.775C456.584 428.249 456.111 427.258 452.924 427.115C450.153 427 443.421 426.584 439.372 426.282L439.975 423.885C444.009 424.186 450.354 424.646 453.096 424.76C457.402 424.947 459.398 427.23 457.962 431.464C455.91 437.551 452.766 446.178 449.507 449.738C447.311 452.15 445.603 452.624 442.645 452.782C431.563 453.385 423.122 452.538 420.983 449.581L423.051 447.973V447.987Z" fill="#0F141B"/>
<path d="M438.827 451.676C444.684 470.28 447.397 491.856 445.746 510.934C442.832 544.554 426.18 570.967 398.819 585.796C395.675 587.505 392.976 587.246 390.077 585.466C363.749 569.187 347.844 531.735 351.59 493.966C354.059 469.06 364.654 446.896 381.062 431.033L383.89 432.296C367.439 448.676 357.404 470.438 355.021 494.368C351.332 531.548 365.702 566.302 391.34 582.911C393.723 584.461 395.115 584.662 397.728 583.198C424.285 568.369 439.329 543.693 442.186 510.647C443.837 491.626 441.31 470.754 435.913 451.863L438.812 451.676H438.827Z" fill="#0F141B"/>
<path d="M433.257 549.335C452.45 560.058 480.17 549.593 484.06 519.089C487.749 490.105 473.739 466.061 450.21 457.419L453.828 456.213C476.681 465.429 491.037 489.79 487.118 519.562C482.581 553.972 451.172 562.671 431.807 551.761L433.271 549.335H433.257Z" fill="#0F141B"/>
<path d="M449.981 457.275C452.809 466.606 450.756 478.578 444.009 485.024L443.449 481.435C448.287 475.219 449.852 465.515 447.21 457.419L449.966 457.29L449.981 457.275Z" fill="#0F141B"/>
<path d="M449.866 466.547C447.024 464.825 444.153 463.892 440.98 463.676L440.42 461.078C443.751 461.164 446.923 461.997 449.866 463.619V466.533V466.547Z" fill="#0F141B"/>
<path d="M444.397 516.905C449.55 514.135 450.426 505.68 445.545 500.77L445.717 497.598C453.44 502.751 453.426 516.618 444.023 519.877L444.397 516.905Z" fill="#0F141B"/>
<path d="M440.88 464.035C439.487 467.667 437.334 471.213 435.238 473.366C431.965 476.725 421.916 476.266 418.27 473.05C412.585 468.055 406.312 458.279 403.24 450.943L406.24 451.632C409.255 458.121 414.509 466.174 419.706 470.739C423.596 474.156 431.491 473.61 433.544 471.486C436.085 468.873 439.2 462.858 440.061 458.968L440.88 464.035Z" fill="#0F141B"/>
<path d="M439.904 533.544C432.626 542.315 419.921 548.617 410.863 548.617C396.235 548.617 379.224 538.439 367.137 523.337L369.262 521.959C381.105 536.515 397.527 546.133 410.935 546.133C419.806 546.133 434.937 537.951 441.196 527.543L439.904 533.544Z" fill="#0F141B"/>
<path d="M419.275 354.261C420.352 351.764 421.615 349.897 422.807 349.381C423.984 348.864 426.926 348.448 429.281 348.318L429.108 350.902C427.013 351.031 424.845 351.405 423.869 351.821C423.079 352.166 421.658 354.362 420.567 357.491L419.275 354.261Z" fill="#0F141B"/>
<path d="M362.816 400.845C348.533 389.734 341.642 364.598 356.328 345.707C367.883 330.849 392.503 326.887 409.585 340.166C426.094 352.999 428.85 377.245 416.102 393.639C402.494 411.123 377.932 412.587 362.816 400.845ZM358.754 347.759C344.93 365.546 351.26 388.241 364.467 398.505C378.822 409.673 401.044 407.85 413.748 391.5C425.72 376.097 423.409 354.578 407.733 342.405C392.474 330.533 370.123 333.132 358.754 347.759Z" fill="#0F141B"/>
<path d="M329.024 281.538C335.34 286.692 338.369 288.213 343.738 288.989C352.05 290.18 355.567 295.032 354.275 304.334C352.136 319.723 339.877 340.552 325.88 352.424C319.478 357.865 314.511 356.558 312.071 350.357C308.683 341.773 309.846 320.872 319.248 304.808C321.043 301.75 321.272 299.726 317.425 296.123C293.108 273.37 282.284 250.761 267.369 208.959C260.076 188.531 247.559 177.42 224.002 176.458C170.399 174.262 125.367 187.584 87.9146 218.49C77.665 226.96 76.0716 225.84 84.0818 215.232C109.433 181.712 159.418 160.668 221.446 158.529C253.588 157.409 275.465 171.937 285.528 202.771C295.935 234.697 307.405 263.881 329.024 281.524V281.538ZM327.201 283.806C304.549 265.705 292.749 234.697 282.643 203.848C273.757 176.717 253.961 160.452 221.533 161.558C156.217 163.812 111.859 185.746 87.7567 215.131C120.558 187.426 165.189 170.989 224.16 173.401C248.219 174.377 262.086 184.77 270.283 207.753C284.825 248.507 295.031 271.002 319.464 293.869C323.957 298.075 324.373 301.851 321.775 306.272C313.262 320.814 311.41 341.055 314.554 349.008C316.636 354.262 319.679 354.089 324.445 349.969C337.12 338.988 349.222 318.532 351.275 303.803C352.208 297.056 350.442 293.008 343.25 291.989C336.905 291.085 333.503 288.831 327.215 283.806H327.201Z" fill="#0F141B"/>
<path d="M319.162 308.411C305.855 290.941 290.064 277.189 269.507 275.653C266.766 275.452 266.148 274.82 265.488 272.322C252.195 222.625 194.861 190.182 144.129 198.537C136.019 199.872 135.66 198.149 143.742 196.613C186.649 188.474 248.764 210.552 267.268 268.59C268.388 272.107 268.546 272.466 271.402 272.681C289.763 274.059 308.324 289.06 320.799 305.052L319.148 308.425L319.162 308.411Z" fill="#0F141B"/>
<path d="M311.597 339.117C300.759 315.058 271.345 299.726 243.41 300.243C239.835 300.315 239.548 300.128 239.778 297.042C241.816 269.322 225.681 242.722 197.2 226.816C163.968 208.255 120.73 207.624 81.0958 223.515L82.2729 220.385C120.687 204.609 165.662 205.212 198.952 223.802C228.236 240.167 245.018 268.044 242.907 297.214C270.211 295.879 301.232 312.187 312.042 333.432L311.583 339.131L311.597 339.117Z" fill="#0F141B"/>
<path d="M466.963 443.825C481.476 448.39 497.554 441.93 504.373 429.757C511.651 416.751 510.316 400.501 501.358 389.476L502.535 386.447C513.431 398.75 515.024 417.11 507 431.451C498.774 446.165 480.084 451.175 465.771 446.337L466.963 443.825Z" fill="#0F141B"/>
<path d="M399.608 296.238C390.191 268.805 377.774 243.985 364.582 227.721C349.911 209.633 273.355 153.447 225.251 124.909C216.867 119.928 214.642 121.808 222.107 127.292C268.445 161.242 342.848 218.534 355.682 235.444C374.315 260.02 392.445 299.755 400.384 336.433L397.096 335.213C388.957 299.583 371.96 261.24 353.37 237.037C340.91 220.802 266.895 163.137 220.772 129.173C210.824 121.852 215.116 116.382 226.356 122.943C275.494 151.639 351.246 206.935 366.764 225.984C380.042 242.277 392.718 267.614 402.365 295.808L399.608 296.253V296.238Z" fill="#0F141B"/>
<path d="M405.437 314.9C403.872 309.33 402.164 303.803 400.341 298.377L404.116 301.033C405.537 305.425 406.901 309.875 408.164 314.369L405.437 314.9Z" fill="#0F141B"/>
<path d="M409.327 318.589C412.011 328.565 414.279 338.686 416.016 348.691L412.399 344.658C410.691 335.384 408.509 326.039 405.968 316.809L409.327 318.589Z" fill="#0F141B"/>
<path d="M230.619 160.352C226.284 150.232 222.868 139.408 219.652 126.646L222.681 129.044C225.796 141.03 229.241 150.792 233.433 160.453L230.619 160.338V160.352Z" fill="#0F141B"/>
<path d="M380.358 333.993C363.434 292.578 337.81 264.284 301.003 247.058L299.639 243.584C338.384 260.494 366.19 290.296 383.416 333.577L380.373 333.993H380.358Z" fill="#0F141B"/>
<path d="M351.289 381.479C334.364 375.234 314.023 363.75 306.171 356.128C298.749 348.921 289.877 326.556 283.949 308.928L287.437 310.679C292.748 325.221 301.663 347.313 308.467 353.917C315.272 360.52 334.68 371.76 350.557 378.062L351.303 381.493L351.289 381.479Z" fill="#0F141B"/>
<path d="M425.161 581.562C431.075 570.394 431.707 557.503 431.692 550.34L434.535 551.46C434.506 559.872 433.2 573.035 427.127 583.988L425.161 581.562Z" fill="#0F141B"/>
<path d="M458.867 553.525C452.579 564.565 447.555 579.465 446.277 591.251L443.377 591.567C444.569 579.968 449.191 565.498 455.264 554.329L458.852 553.525H458.867Z" fill="#0F141B"/>
<path d="M423.625 580.614C421.744 576.551 423.309 575.719 425.333 579.724C427.917 584.82 434.535 589.787 440.291 591.079C443.32 591.754 446.679 591.466 447.942 589.686C450.512 586.055 451.876 587.332 448.775 591.481C446.78 594.151 444.138 594.639 439.688 593.72C433.357 592.414 426.524 586.902 423.639 580.628L423.625 580.614Z" fill="#0F141B"/>
<path d="M449.851 570.479C458.364 575.819 462.986 581.863 463.833 590.031C464.551 596.864 465.068 601.673 466.963 609.583C468.054 614.162 469.288 616.186 472.547 619.272C484.634 630.685 515.785 644.179 528.346 648.801C531.906 650.107 534.059 652.103 535.939 655.849C539.586 663.128 541.15 675.344 536.844 684.789C527.183 705.949 486.127 712.926 458.278 702.288C451.89 699.848 448.703 697.049 447.339 690.402C444.138 674.884 402.666 628.618 399.809 617.665C397.57 609.109 405.092 592.112 405.394 579.753L408.58 578.03C409.155 592.299 401.417 608.506 403.355 616.502C405.925 627.096 448.488 674.253 450.899 689.584C451.617 694.178 453.656 696.532 459.541 698.771C487.72 709.523 525.403 701.169 533.585 683.239C536.987 675.76 536.313 664.592 532.796 657.543C531.403 654.758 530.197 653.438 527.125 652.318C514.464 647.667 482.553 633.283 470.279 621.698C466.661 618.282 464.982 615.856 463.647 610.243C461.738 602.233 461.235 597.065 460.517 590.175C459.843 583.643 455.895 578.475 448.89 573.838L449.837 570.465L449.851 570.479Z" fill="#0F141B"/>
<path d="M431.75 565.397C429.539 564.521 427.214 563.66 424.773 562.77L426.668 559.928C428.606 560.631 430.458 561.335 432.238 562.024L431.75 565.383V565.397Z" fill="#0F141B"/>
<path d="M560.76 694.393C559.468 684.976 556.984 675.875 554.774 673.047C552.376 669.975 544.036 663.731 535.796 660.242L534.719 656.424C543.806 659.998 554.099 667.176 557.286 671.253C560.674 675.588 563.114 689.714 564.191 701.126L560.76 694.393Z" fill="#0F141B"/>
<path d="M301.304 608.995C293.825 620.192 289.145 651.156 288.93 667.794C288.758 680.039 255.784 702.476 220.025 696.045C186.937 690.102 172.869 646.663 182.731 628.073C193.382 608.004 232.916 584.476 246.999 574.7C259 566.374 269.264 551.99 283.82 530.86C288.93 523.438 307.348 519.275 318.243 527.831C326.928 534.649 335.441 554.948 328.622 566.705C321.775 578.548 308.597 598.085 301.304 609.009V608.995ZM298.72 607.129C306.013 596.219 318.904 576.753 325.722 564.968C331.278 555.378 323.698 536.702 316.076 530.716C305.955 522.763 290.323 527.17 286.361 532.912C271.704 554.187 261.253 568.958 248.994 577.37C234.897 587.046 196.526 610.186 185.989 629.824C177.175 646.261 190.224 687.144 220.743 692.628C255.21 698.815 285.097 676.737 285.227 667.464C285.456 650.639 291.083 618.541 298.72 607.114V607.129Z" fill="#0F141B"/>
<path d="M481.39 310.091C479.954 312.517 479.15 315.847 478.835 319.135C478.418 323.47 476.868 323.269 477.04 318.905C477.184 315.445 478.016 311.167 479.882 308.225L481.39 310.091Z" fill="#0F141B"/>
<path d="M507.387 341.989C508.866 338.989 509.612 336.922 509.828 333.735C510.028 330.807 511.665 330.878 511.55 333.807C511.421 337.281 510.158 340.224 508.55 342.693C506.669 345.564 505.98 344.846 507.387 342.004V341.989Z" fill="#0F141B"/>
<path d="M520.479 340.208C518.354 338.572 517.12 336.864 515.857 333.878C514.809 331.394 516.33 330.935 517.536 333.347C518.728 335.701 519.661 337.251 521.484 339.175C523.192 340.984 522.259 341.586 520.479 340.208Z" fill="#0F141B"/>
<path d="M504.674 345.749C495.171 341.571 487.778 337.94 482.711 334.509C479.021 332.011 477.945 330.561 477.327 328.164C476.48 324.833 477.629 324.647 478.892 327.834C479.567 329.542 480.5 330.647 483.644 332.772C488.553 336.088 495.501 339.476 503.913 343.165L504.66 345.763L504.674 345.749Z" fill="#0F141B"/>
<path d="M444.138 451.505C443.65 452.438 443.148 453.371 442.631 454.333C442.014 455.496 442.373 456.127 443.736 456.199C446.206 456.343 449.88 456.185 452.522 455.438C456.096 454.433 461.566 450.672 464.695 445.49C470.15 436.446 474.988 422.881 475.217 416.191C475.504 407.549 472.978 391.299 469.762 380.619L472.662 382.729C475.447 391.831 478.002 408.224 477.729 416.335C477.471 424.087 471.83 438.485 466.791 446.868C462.585 453.845 457.187 456.702 453.082 457.85C450.943 458.453 446.206 458.797 443.464 458.654C440.033 458.467 439.258 455.395 440.291 453.457C440.593 452.883 440.908 452.309 441.21 451.735L444.153 451.505H444.138Z" fill="#0F141B"/>
<path d="M453.656 425.909C454.704 422.506 455.149 419.219 454.991 415.817C454.876 413.491 455.221 412.314 456.512 410.592C460.044 405.883 461.838 403.328 464.078 399.179C465.413 396.681 465.441 395.676 465.111 393.121C464.508 388.485 463.446 380.876 462.628 373.914L465.413 376.613C466.13 382.498 466.963 388.743 467.494 392.877C467.882 395.906 467.738 397.457 466.173 400.371C463.891 404.62 462.082 407.261 458.508 412.027C457.374 413.534 457.245 414.109 457.316 415.745C457.489 419.262 457.058 422.865 456.024 426.497L453.67 425.894L453.656 425.909Z" fill="#0F141B"/>
<path d="M460.776 346.826C445.445 344.026 429.683 341.443 427.142 336.791C425.003 332.901 433.616 315.589 435.755 306.014C437.406 298.607 436.186 295.908 433.372 292.578C426.453 284.409 414.035 273.198 406.671 265.303C403.456 261.857 403.786 259.991 408.954 260.12C418.213 260.365 439.904 265.604 450.813 270.14C457.962 268.202 467.552 267.384 474.744 268.116C479.883 268.647 479.768 270.227 474.629 269.982C468.011 269.667 458.666 270.7 451.732 272.495C450.713 272.753 450.412 272.753 449.507 272.365C438.856 267.915 419.749 262.977 410.231 262.317C406.958 262.101 406.887 262.346 409.126 264.657C416.95 272.71 428.721 283.218 435.353 290.912C439.014 295.176 439.99 299.023 438.195 306.617C435.913 316.292 428.29 332.959 429.654 335.485C431.262 338.485 445.603 341.6 461.264 344.385C464.996 345.046 468.384 346.395 472.145 348.792C481.577 354.822 496.822 365.76 506.971 371.646C509.598 373.167 511.005 374.732 513.115 377.991C515.656 381.91 516.661 382.599 521.139 380.934C529.537 377.79 536.054 366.205 535.294 359.989C534.763 355.582 530.384 349.611 525.532 342.175C523.207 338.615 522.948 335.499 523.752 332.069C528.001 313.766 519.202 292.807 501.344 278.28C501.186 278.151 501.071 277.95 501.057 277.749C499.262 263.106 490.348 244 483.098 232.63C481.921 230.778 481.706 230.865 481.232 232.774C479.653 239.363 477.256 259.187 470.796 268.877L467.796 269.035C475.303 257.666 477.557 238.616 479.323 231.353C480.399 226.96 482.065 227.046 484.634 230.965C492.544 242.995 501.143 261.154 503.44 276.672C521.857 291.759 530.714 312.804 526.135 332.471C525.374 335.758 525.618 337.753 527.599 340.653C532.365 347.687 537.49 354.879 538.035 359.745C538.897 367.497 531.504 379.57 521.958 383.144C516.905 385.025 514.68 384.609 511.378 379.326C509.426 376.225 508.234 374.976 505.866 373.67C495.96 368.244 481.103 357.075 471.069 351.003C467.078 348.591 464.623 347.486 460.848 346.783L460.776 346.826Z" fill="#0F141B"/>
<path d="M444.425 500.957C441.066 502.321 437.836 501.402 432.999 498.445C425.606 493.923 420.395 492.875 407.604 496.277C396.278 499.292 387.866 498.775 382.569 494.784L382.727 491.641C387.263 495.875 396.134 496.78 407.03 493.88C420.868 490.205 425.85 491.296 434.176 496.392C438.827 499.235 441.999 499.737 444.54 498.344L444.425 500.971V500.957Z" fill="#0F141B"/>
<path d="M365.831 341.745C370.137 341.027 373.898 342.017 375.104 344.429C377.43 349.152 365.357 363.392 354.949 362.89L365.831 341.73V341.745Z" fill="#FFF2AD"/>
<path d="M343.107 320.571C340.939 315.647 337.623 314.355 335.082 315.977C330.129 319.135 330.488 328.724 333.245 334.151L343.107 320.571Z" fill="#FFF2AD"/>
<path d="M343.106 320.57C341.958 317.671 339.991 317.427 337.838 319.078C335.656 320.743 334.249 322.666 333.173 325.351C331.55 329.399 332.182 333.792 335.57 337.969C340.953 344.601 347.356 352.855 349.265 357.521C352.208 364.713 355.997 363.823 360.333 359.918C362.873 357.621 366.893 350.645 367.036 345.807C367.166 341.5 365.96 339.419 362.371 338.385C356.816 336.792 345.805 327.375 343.106 320.556V320.57Z" fill="#6DBB5A"/>
<path d="M589.111 456.398C587.977 440.22 584.173 434.478 573.493 433.43C542.629 430.387 520.135 444.512 510.861 457.647C505.291 465.542 509.612 477.199 529.695 476.309C522.159 473.624 520.508 470.237 525.748 464.294C533.643 455.322 550.754 449.493 563.789 450.484C571.899 451.101 575.632 453.384 576.235 462.212C576.579 467.179 579.335 475.907 588.193 480.874C623.607 500.727 646.058 510.761 682.147 525.102C700.263 532.308 707.441 548.601 693.344 586.14C671.697 643.805 645.254 681.961 599.677 726.462C653.867 689.139 685.449 653.251 709.853 592.6C727.624 548.415 718.896 521.901 687.602 510.058C649.202 495.53 629.464 487.448 598.241 469.504C591.308 465.514 589.571 463.26 589.083 456.413L589.111 456.398Z" fill="#6DBB5A"/>
<path d="M540.49 436.962C532.954 434.622 527.097 432.598 522.015 430.201C517.436 428.047 513.947 426.167 512.153 423.382C510.359 420.597 507.775 420.195 504.444 421.674C499.779 423.741 495.63 428.291 493.405 433.431C491.338 438.24 491.869 442.919 498.43 442.575C505.205 442.23 511.636 444.125 518.484 449.379C524.111 444.47 531.547 439.991 540.505 436.962H540.49Z" fill="#6DBB5A"/>
<path d="M319.062 434.694C316.564 426.583 316.779 417.841 318.645 410.563C326.77 423.037 348.36 432.182 360.692 441.154C391.34 463.447 388.383 510.862 367.596 522.978C340.235 538.941 303.271 523.696 295.907 465.199C293.294 444.441 283.461 420.683 272.264 406.701C284.997 409.515 305.123 420.884 319.363 430.918" fill="#6DBB5A"/>
<path d="M345.691 515.758C338.312 511.666 331.551 504.991 326.096 495.531C319.334 514.667 306.056 539.228 292.418 550.971C295.792 563.718 294.5 565.039 308.353 565.082C313.98 550.397 331.508 527.5 345.691 515.758Z" fill="#FFF2AD"/>
<path d="M494.195 680.398C490.161 680.857 484.433 690.246 482.237 698.701C481.519 701.457 482.194 703.782 484.634 706.596C493.247 716.53 502.219 727.411 510.23 738.651C511.105 727.555 510.804 715.855 508.32 706.237C503.813 688.781 497.927 679.967 494.209 680.398H494.195Z" fill="#EFEFEF"/>
<path d="M530.269 664.19C528.173 664.65 523.092 680.627 522.216 687.962C521.828 691.207 522.216 692.915 525.977 694.58C540.002 700.81 558.19 712.237 567.923 723.793C567.406 709.897 561.564 690.288 553.252 680.153C544.94 670.018 532.609 663.659 530.269 664.176V664.19Z" fill="#EFEFEF"/>
<path d="M192.033 676.924C196.339 674.742 199.081 671.426 200.172 666.631C202.569 656.109 199.095 641.265 193.468 640.677C188.702 640.174 164.399 667.105 159.848 695.944C170.974 687.934 181.381 682.307 192.033 676.924Z" fill="#EFEFEF"/>
<path d="M212.962 674.297C210.694 677.67 210.048 679.694 209.489 686.499C208.412 699.777 205.785 715.094 203.746 725.975C218.346 715.453 232.816 701.328 237.955 690.331C243.094 679.335 240.108 658.147 234.122 656.597C229.614 655.42 219.997 663.803 212.948 674.297H212.962Z" fill="#EFEFEF"/>
<path d="M269.063 659.468C265.359 659.597 260.062 671.339 255.31 682.68C253.76 686.384 253.688 688.551 253.875 692.255C254.478 704.098 254.348 711.879 252.798 727.066C263.579 716.917 276.958 700.61 277.92 685.192C278.709 672.574 272.981 659.339 269.063 659.468Z" fill="#EFEFEF"/>
<path d="M693.373 586.141C707.47 548.602 700.292 532.295 682.176 525.103C646.087 510.747 623.635 500.727 588.221 480.874C579.364 475.907 576.593 467.179 576.263 462.213C575.66 453.398 571.928 451.102 563.817 450.484C550.783 449.494 533.671 455.322 525.776 464.294C520.536 470.251 522.187 473.625 529.724 476.309C558.377 480.2 568.282 500.483 549.95 536.414C601.615 531.993 624.956 568.584 628.545 608.047C632.033 646.547 620.104 692.828 599.705 726.463C645.283 681.962 671.725 643.806 693.373 586.141Z" fill="#EFEFEF"/>
<path d="M507.689 420.856C505.162 417.095 497.195 417.655 493.563 424.603C490.391 430.66 490.706 437.479 492.788 440.192C490.276 434.981 499.492 421.086 507.689 420.856Z" fill="#DDD196"/>
<path d="M338.197 319.25C335.455 324.59 335.714 329.27 339.633 333.964C344.413 339.706 349.796 346.166 352.552 351.434C355.308 356.703 361.165 356.344 366.19 349.166C364.869 354.664 361.524 358.741 358.294 361.612C355.064 364.483 352.193 362.689 350.04 358.497C347.887 354.305 341.298 344.759 337.006 339.835C328.852 330.504 333.847 320.973 338.197 319.264V319.25Z" fill="#5DA34E"/>
<path d="M502.076 423.654C498.387 428.736 499.678 434.22 505.478 435.196C512.397 436.344 518.857 438.426 527.054 442.919C524.341 444.642 521.8 446.608 518.8 449.264C512.627 444.656 505.736 441.857 499.248 442.517C492.788 443.177 491.152 439.56 492.845 434.966C494.669 430.028 498.042 426.31 502.076 423.669V423.654Z" fill="#5DA34E"/>
<path d="M682.621 517.366C656.423 507.145 622.559 492.488 598.7 479.612C588.02 473.855 583.082 469.491 582.221 460.907C580.197 440.68 561.348 441.412 543.433 445.805C536.098 447.6 530.427 446.724 528.245 442.432C520.508 446.867 514.594 452.337 510.847 457.648C505.277 465.543 509.598 477.2 529.681 476.31C522.144 473.625 520.494 470.238 525.733 464.295C533.629 455.323 550.74 449.494 563.774 450.485C571.885 451.102 575.617 453.385 576.22 462.213C576.565 467.18 579.321 475.908 588.178 480.875C623.592 500.728 646.044 510.762 682.133 525.103C700.249 532.309 707.427 548.603 693.33 586.141C672.127 642.6 646.331 680.354 602.49 723.678L602.734 724.195C651.341 685.666 684.832 635.423 704.383 577.098C714.288 547.54 707.829 527.228 682.592 517.38L682.621 517.366Z" fill="#5DA34E"/>
<path d="M273.139 406.73C291.973 422.866 306.673 442.231 314.396 470.223C325.421 510.217 366.692 508.48 383.689 486.89C383.258 515.184 368.041 529.84 344.485 528.907C316.348 527.802 299.768 497.871 295.706 465.285C293.208 445.274 285.083 424.229 273.154 406.745L273.139 406.73Z" fill="#5DA34E"/>
<path d="M319.047 411.123C319.837 418.114 320.698 424.918 322.478 432.972L317.798 429.67C316.219 423.009 317.138 415.616 319.047 411.123Z" fill="#5DA34E"/>
<path d="M589.901 482.066C607.428 491.928 651.384 513.174 678.429 523.696C701.34 532.625 704.441 548.689 698.411 570.709C686.296 614.952 649.604 680.168 602.246 722.501C641.364 675.129 673.649 624.541 689.21 566.044C693.803 548.746 690.129 538.654 672.457 531.118C642.067 518.141 616.587 506.111 593.619 494.268C580.383 487.435 572.086 479.741 568.382 474.645C561.621 465.357 541.107 471.3 545.888 480.86C539.902 478.463 532.25 476.554 527.226 475.836C521.958 472.936 520.895 467.797 527.398 462.5C537.562 454.217 549.347 449.437 564.549 450.485C573.435 451.102 575.373 453.284 576.206 463.577C576.751 470.209 581.833 477.516 589.901 482.052V482.066Z" fill="#C9CACA"/>
<path d="M323.842 521.959C314.913 535.166 304.462 551.832 297.902 562.857C300.228 565.154 302.797 566.216 308.97 564.35C313.678 553.368 322.564 539.3 333.948 527.012C329.799 525.419 325.478 523.897 323.828 521.959H323.842Z" fill="#DDD196"/>
<path d="M200.316 654.701C187.956 663.171 167.83 680.828 160.595 695.484C168.117 690.316 182.099 681.761 188.946 678.344C200.402 672.616 201.837 666.472 200.316 654.701Z" fill="#C9CACA"/>
<path d="M234.021 656.596C224.877 684.588 219.135 699.661 203.703 725.859C206.388 711.863 208.584 693.747 209.618 684.229C210.694 674.367 225.222 657.672 234.021 656.596Z" fill="#C9CACA"/>
<path d="M269.005 659.754C268.359 681.76 261.024 710.212 253.171 726.419C253.947 717.921 254.392 698.771 254.205 692.053C254.076 687.675 253.947 685.364 255.755 681.373C261.54 668.554 265.847 659.754 269.005 659.754Z" fill="#C9CACA"/>
<path d="M487.39 686.613C496.104 699.992 505.062 717.908 509.727 737.258C502.564 728.416 490.017 712.41 485.237 707.041C481.534 702.878 481.089 700.322 482.61 696.045C483.931 692.341 485.481 689.24 487.39 686.613Z" fill="#C9CACA"/>
<path d="M525.13 675.631C543.648 684.947 558.937 700.709 567.176 722.213C556.066 711.82 539.801 701.169 526.207 694.623C522.977 693.072 521.67 691.034 522.029 687.574C522.388 684.115 523.824 679.09 525.13 675.631Z" fill="#C9CACA"/>
<path d="M318.172 517.28C312.788 527.86 299.409 546.895 292.849 552.451L291.959 549.407C298.175 543.952 311.841 523.568 316.09 515.084L318.172 517.28Z" fill="#0F141B"/>
<path d="M335.556 527.501C324.818 539.129 314.712 553.714 310.549 564.322L307.391 564.351C311.439 553.383 321.732 538.368 332.685 526.381C333.675 525.29 336.474 526.525 335.57 527.501H335.556Z" fill="#0F141B"/>
<path d="M292.978 548.029C293.897 560.705 299.811 567.552 311.482 562.987C314.152 561.939 314.612 563.834 311.798 565.097C300.185 570.351 290.782 564.738 290.969 548.632C291.012 545.23 292.734 544.785 292.964 548.015L292.978 548.029Z" fill="#0F141B"/>
<path d="M316.521 429.009C315.516 423.87 315.774 418.443 317.081 412.084C317.798 408.581 318.66 408.711 320.827 411.567C329.053 422.449 349.624 431.334 361.553 439.976C393.421 463.045 389.876 511.609 368.257 524.227C340.594 540.362 301.993 525.949 294.371 465.37C291.959 446.249 283.432 424.458 272.881 409.759C269.68 405.294 270.11 404.605 275.766 406.27C288.686 410.103 307.276 420.898 319.851 430.085C324.158 433.229 323.325 434.636 318.861 431.693C304.749 422.42 287.423 412.429 275.522 408.883C286.059 422.822 294.945 445.546 297.385 465.04C304.448 521.183 339.417 537.649 366.764 521.7C386.445 510.216 389.746 464.193 359.672 442.302C347.083 433.129 326.454 423.97 319.219 413.347C318.186 418.199 318.014 424.128 319.191 430.545L316.506 428.994L316.521 429.009Z" fill="#0F141B"/>
<path d="M517.608 450.298C511.277 445.489 505.22 443.623 498.358 443.968C491.353 444.298 489.3 439.417 492.099 432.929C494.568 427.201 499.076 422.536 503.913 420.397C507.732 418.703 511.12 419.464 513.158 422.622C514.909 425.32 518.283 427.115 522.46 429.082C527.614 431.508 533.858 433.661 542.471 436.302L538.839 437.738C531.274 435.383 526.336 433.589 521.527 431.321C517.12 429.239 513.101 427.388 511.12 424.33C509.684 422.105 508.091 421.617 504.947 423.009C500.554 424.947 496.319 429.785 494.539 433.934C492.429 438.829 493.161 441.513 498.401 441.24C505.779 440.881 512.742 443.351 519.474 448.561L517.594 450.313L517.608 450.298Z" fill="#0F141B"/>
<path d="M492.357 442.115C489.816 439.646 488.596 431.377 492.429 424.056C496.448 416.376 506.497 415.343 509.138 420.955L506.339 421.185C503.597 418.027 497.209 419.994 494.525 425.133C491.84 430.272 491.697 435.612 493.061 438.684L492.357 442.115Z" fill="#0F141B"/>
<path d="M607.199 716.587C649.331 673.349 672.156 638.28 691.937 585.567C703.953 553.57 702.058 534.707 681.659 526.596C646.503 512.629 623.391 502.408 587.532 482.296C577.756 476.813 575 467.41 574.655 462.228C574.11 454.203 571.425 452.509 563.745 451.935C550.725 450.959 534.36 456.687 526.896 465.171C522.905 469.707 523.924 472.205 527.972 474.243C532.437 476.482 532.006 477.645 527.527 477.66C508.593 477.746 503.325 465.946 509.756 456.83C520.824 441.126 545.356 429.153 573.708 431.953C584.747 433.044 589.398 439.03 590.604 456.299C591.049 462.73 592.169 464.324 599.002 468.257C630.009 486.072 649.776 494.096 688.018 508.566C716.987 519.534 730.969 544.311 711.345 593.118C689.095 648.414 661.562 683.542 610.084 720.865C594.81 731.933 594.021 730.153 607.227 716.601L607.199 716.587ZM563.975 449.064C572.861 449.739 577.038 452.839 577.67 462.113C578 466.979 580.943 475.104 588.939 479.598C624.726 499.666 647.608 509.7 682.692 523.654C703.522 531.936 707.943 551.732 694.837 586.644C674.711 640.232 651.025 675.876 611.979 716.156C657.14 683.053 686.195 647.496 708.546 591.955C727.653 544.469 714.317 521.816 687.128 511.523C648.8 497.01 628.573 488.57 597.466 470.697C590.26 466.549 588.121 463.592 587.618 456.443C586.628 442.331 583.613 435.987 573.306 434.967C542.887 431.967 520.766 446.035 511.981 458.495C506.368 466.463 513.029 474.171 524.297 475.033C521.656 473.827 519.13 469.807 524.742 463.419C532.724 454.347 550.61 448.088 563.975 449.093V449.064Z" fill="#0F141B"/>
<path d="M598.772 726.032C619.989 688.593 630.138 645.47 626.75 608.204C622.989 566.718 598.499 535.036 552.864 537.72C548.041 538.007 547.826 537.146 549.663 533.356C558.994 514.135 559.138 500.641 554.788 492.329C551.07 485.223 543.993 479.84 527.212 477.5L528.518 474.744C544.108 476.495 553.137 482.496 557.645 491.109C562.899 501.158 561.722 516.302 552.592 534.677C597.222 531.72 625.947 560.961 630.21 607.975C633.54 644.623 622.788 689.828 602.792 724.18L598.787 726.017L598.772 726.032Z" fill="#0F141B"/>
<path d="M348.002 358.096C345.891 352.928 339.934 345.434 334.622 338.831C331.249 334.639 330.33 329.443 332.153 324.749C333.345 321.691 334.838 319.652 337.034 318.016C339.747 315.992 342.748 316.379 344.226 320.097C346.566 325.997 356.729 335.429 362.73 337.137C367.051 338.372 368.659 341.157 368.515 345.879C368.343 351.693 363.821 358.584 361.18 360.981C355.366 366.249 350.944 365.288 348.016 358.11L348.002 358.096ZM338.427 320.112C336.704 321.289 334.981 324.002 334.221 325.926C332.641 329.888 333.388 333.333 336.546 337.238C341.771 343.697 348.131 351.708 350.485 356.904C352.954 362.345 355.036 362.876 359.385 358.928C361.739 356.804 365.486 350.215 365.615 345.808C365.73 341.688 364.668 340.482 361.869 339.678C356.371 338.099 344.815 328.194 342.044 321.174C341.197 319.05 340.034 319.006 338.427 320.112Z" fill="#0F141B"/>
<path d="M357.734 361.383C367.467 359.272 375.363 348.09 373.884 345.075C372.951 343.195 370.568 342.419 366.706 342.893L366.06 340.41C370.913 339.721 374.745 340.97 376.195 343.912C379.325 350.243 365.228 364.799 354.548 364.297L357.734 361.383Z" fill="#0F141B"/>
<path d="M332.326 335.027C329.383 329.213 328.909 318.432 334.379 314.987C337.149 313.25 341.929 314.226 344.197 320.083L340.623 318.274C339.173 316.408 337.063 315.891 335.513 316.896C332.57 318.791 331.766 324.605 332.713 328.969L332.311 335.027H332.326Z" fill="#0F141B"/>
<path d="M507.387 737.144C500.497 727.885 492.917 718.525 483.385 707.529C480.586 704.299 479.782 701.729 480.644 698.385C482.811 690.073 488.97 679.421 494.066 678.833C499.32 678.273 505.435 689.269 509.713 705.792C512.34 715.941 512.44 726.822 511.751 736.282C511.392 741.249 510.201 740.948 507.373 737.158L507.387 737.144ZM494.295 682.135C491.381 682.465 485.883 690.389 483.644 698.959C483.041 701.256 483.529 703.179 485.754 705.749C495.487 716.96 502.55 725.904 509.167 735.048C509.555 726.636 509.253 716.587 506.684 706.625C501.746 687.532 496.42 681.862 494.295 682.135Z" fill="#0F141B"/>
<path d="M564.664 722.2C554.199 711.462 538.121 701.686 525.374 696.03C520.752 693.978 520.235 691.595 520.666 688.035C521.513 680.972 526.68 663.329 529.925 662.597C532.509 662.009 545.974 668.942 554.372 679.178C562.497 689.083 568.081 707.529 569.042 721.152C569.387 725.932 568.397 726.062 564.664 722.214V722.2ZM530.843 665.741C529.752 665.971 524.757 678.603 523.623 688.078C523.264 691.078 523.666 692.04 526.623 693.346C539.787 699.203 556.726 709.668 566.344 720.104C565.08 707.859 559.898 690.891 551.945 681.187C543.648 671.081 532.322 665.411 530.843 665.727V665.741Z" fill="#0F141B"/>
<path d="M159.274 692.8C162.504 668.885 186.664 638.322 193.684 639.011C199.885 639.614 204.436 654.616 201.608 667.004C200.344 672.545 197.301 675.947 192.564 678.345C181.74 683.814 172.768 688.594 162.719 695.499C158.815 698.183 158.628 697.538 159.26 692.815L159.274 692.8ZM161.829 692.929C171.074 686.427 180.261 681.201 191.286 675.617C195.133 673.665 197.559 670.894 198.636 666.2C201.263 654.659 196.583 642.658 193.31 642.299C189.363 641.954 166.179 668.77 161.829 692.929Z" fill="#0F141B"/>
<path d="M202.928 722.315C205.57 707.73 207.149 696.045 207.938 686.398C208.512 679.293 209.044 677.297 211.599 673.493C219.221 662.138 229.543 653.784 234.653 655.104C241.644 656.927 244.687 679.652 239.405 690.949C234.955 700.481 222.724 713.63 207.694 724.827C202.254 728.875 201.808 728.473 202.928 722.315ZM214.211 675.015C212.087 678.173 211.47 679.881 210.91 686.7C210.106 696.677 208.354 708.735 205.555 723.119C219.666 712.625 231.997 699.246 236.476 689.657C241.257 679.436 238.615 659.569 233.792 658.32C230.117 657.344 220.987 664.909 214.211 675.015Z" fill="#0F141B"/>
<path d="M269.048 657.831C273.628 657.76 280.274 671.153 279.384 685.279C278.48 699.835 266.594 715.295 256.531 725.358C252.009 729.894 251.19 729.349 251.736 723.363C252.985 709.883 252.841 702.777 252.325 692.427C252.124 688.365 252.396 685.479 253.875 681.962C260.292 666.646 265.23 657.875 269.048 657.803V657.831ZM269.091 661.119C266.163 661.219 259.933 675.316 256.66 683.154C255.167 686.7 255.109 688.58 255.296 692.255C255.842 703.007 255.684 711.19 254.463 723.549C262.201 715.984 275.35 700.308 276.298 685.164C277.145 671.498 271.388 661.119 269.091 661.119Z" fill="#0F141B"/>
<path d="M635.722 667.736C648.513 641.638 657.872 616.23 661.318 582.093C666.141 534.262 627.798 510.059 580.756 511.509C577.541 511.609 576.536 510.777 576.048 507.159C572.761 482.64 561.406 461.28 537.074 456.012C536.413 455.868 541.222 453.657 542.486 454.074C560.903 460.203 576.651 479.123 578.46 505.523C578.646 508.307 578.833 508.465 580.297 508.422C631.057 506.872 669.357 532.797 664.361 582.337C661.074 614.966 651.212 640.777 637.675 668.482C633.828 676.363 631.933 675.488 635.737 667.722L635.722 667.736Z" fill="#0F141B"/>
</g>
<defs>
<clipPath id="clip0_42_69656">
<rect width="641.447" height="620" fill="white" transform="translate(79 120)"/>
</clipPath>
</defs>
</svg>
