<svg width="800" height="800" viewBox="0 0 800 800" fill="none" xmlns="http://www.w3.org/2000/svg">
<g clip-path="url(#clip0_42_69955)">
<path d="M425.509 598.198C413.869 596.274 448.85 600.514 458.596 599.231C483.486 595.961 499.24 586.246 532.891 557.101C553.479 539.266 581.029 525.421 611.801 523.434C659.078 520.383 689.1 545.023 681.982 562.029C674.848 579.081 660.314 575.483 637.051 564.751C614.007 554.113 576.429 557.867 545.532 583.289C502.932 618.333 486.255 625.873 458.534 627.672C443.265 628.658 401.854 621.899 415.199 624.653C431.047 627.922 437.023 606.005 425.509 598.198Z" fill="#FFE100"/>
<path d="M619.498 523.606C626.538 523.293 642.668 525.092 648.19 527.376C658.359 531.929 665.633 541.503 660.127 553.486C656.028 562.404 646.297 566.377 636.363 564.156C636.363 564.156 625.709 561.011 615.321 559.509C624.301 559.025 630.621 553.565 632.843 545.101C635.143 536.309 631.498 527.689 619.498 523.606Z" fill="#515557"/>
<path d="M562.365 538.938C569.108 534.276 586.238 528.018 592.637 527.689C601.32 529.363 606.514 537.17 606.201 543.787C605.825 551.876 602.055 557.883 593.701 560.84C587.756 562.936 581.295 563.703 573.348 567.019C577.994 561.387 579.449 552.314 576.539 547.26C573.848 542.567 568.451 539.047 562.365 538.953V538.938Z" fill="#515557"/>
<path d="M537.506 553.597L516.324 571.009C521.674 568.49 530.106 569.648 534.33 575.217C538.883 581.225 537.24 589.532 532.453 595.101C540.025 586.857 548.191 580.677 554.574 576.594C557.5 571.666 559.549 564.219 554.48 558.634C549.85 553.55 543.811 551.72 537.49 553.613L537.506 553.597Z" fill="#515557"/>
<path d="M495.548 585.917C501.274 582.428 509.659 582.788 514.65 588.952C518.905 594.193 518.404 603.61 512.632 609.54C512.632 609.54 495.908 620.35 485.692 622.118C491.934 618.238 495.392 608.726 492.857 602.5C490.87 597.619 484.284 593.473 476.791 594.396C486.115 592.049 489.353 590.313 495.548 585.917Z" fill="#515557"/>
<path d="M419.814 596.523C427.965 598.416 431.766 606.051 430.139 613.623C428.121 622.978 419.266 624.042 413.259 624.136C421.816 625.403 444.423 628.438 452.636 627.218C460.114 626.107 466.512 620.882 467.107 613.623C467.56 608.085 460.255 599.433 452.511 599.512C447.943 599.465 427.808 598.354 419.814 596.508V596.523Z" fill="#515557"/>
<path d="M466.371 617.942C466.199 619.913 462.758 624.59 457.548 626.593C467.983 626.327 483.267 622.025 487.46 619.678C489.666 617.769 490.902 615.97 491.84 611.527C485.786 614.156 474.835 617.394 466.371 617.942Z" fill="#DDC300"/>
<path d="M517.466 597.682C521.079 595.601 532.907 586.637 537.35 581.787C537.396 585.182 535.425 592.112 532.265 594.991L512.866 609.352C515.573 605.41 516.918 601.828 517.466 597.697V597.682Z" fill="#DDC300"/>
<path d="M557.203 565.063C562.318 561.262 571.548 556.256 578.448 553.314C578.526 557.413 576.539 563.671 572.018 567.535C567.966 569.24 559.221 573.683 555.278 576.593C557.124 572.088 557.609 568.802 557.203 565.063Z" fill="#DDC300"/>
<path d="M605.325 547.165C604.808 552.343 601.57 556.896 596.376 559.68C605.637 559.227 612.583 559.446 619.639 560.025C625.443 558.085 629.964 553.501 631.92 548.166C623.879 546.68 612.505 546.148 605.34 547.149L605.325 547.165Z" fill="#DDC300"/>
<path d="M658.186 555.943C654.119 562.311 647.798 565.768 639.022 564.548C646.437 567.223 652.46 570.727 657.122 572.276C669.341 576.328 679.775 571.04 681.011 562.921C679.353 564.235 673.909 563.531 669.2 561.215C665.508 559.401 660.736 557.023 658.202 555.959L658.186 555.943Z" fill="#DDC300"/>
<path d="M466.825 617.754C460.161 618.755 439.713 618.27 429.31 616.346C427.495 619.49 421.769 623.495 417.89 624.7C424.585 625.529 452.151 627.938 456.046 627.344C462.257 625.498 464.995 621.524 466.825 617.769V617.754Z" fill="#38393A"/>
<path d="M492.294 611.417C499.193 609.226 509.831 603.219 516.746 598.213C516.605 603.266 514.337 607.396 510.958 610.228C505.357 614.937 494.719 619.411 487.335 621.93C489.306 619.004 491.559 615.766 492.279 611.401L492.294 611.417Z" fill="#38393A"/>
<path d="M537.663 581.428C542.465 576.484 550.741 569.163 556.78 565.643C557.453 568.521 555.841 574.341 554.089 577.329C549.834 580.599 540.353 588.327 535.77 592.785C537.647 589.046 538.054 584.744 537.663 581.443V581.428Z" fill="#38393A"/>
<path d="M579.245 553.095C579.245 553.095 593.607 546.978 604.761 547.259C604.761 547.259 605.074 555.926 594.89 560.338C594.89 560.338 581.967 562.341 573.66 567.159C573.66 567.159 578.698 559.759 579.245 553.095Z" fill="#38393A"/>
<path d="M632.452 548.277C639.914 549.06 652.946 553.08 657.858 555.849C655.308 561.747 644.748 566.159 639.038 564.547C635.08 563.421 626.773 561.09 621.094 560.355C626.835 557.617 631.544 552.877 632.467 548.277H632.452Z" fill="#38393A"/>
<path d="M411.914 625.215C399.07 622.446 384.943 617.096 371.176 609.696C370.487 609.337 373.632 607.256 374.305 607.631C397.646 620.194 412.571 624.089 443.687 625.794C477.229 627.625 505.764 616.283 536.192 588.999C555.794 571.43 578.823 560.323 599.332 558.508C616.025 557.038 633.375 560.511 652.335 569.115C663.678 574.262 674.269 572.619 678.712 563.076C682.998 553.877 678.508 543.771 665.305 535.589C653.806 528.471 631.341 522.542 610.643 524.998C578.573 528.8 551.164 542.019 521.768 567.848C493.436 592.738 471.315 601.968 442.858 600.795C422.865 599.966 407.111 596.446 393.312 589.703C392.624 589.359 393.844 586.856 394.533 587.184C407.987 593.755 423.381 597.181 442.968 597.994C470.627 599.136 492.2 590.094 519.922 565.736C552.212 537.373 576.101 526.265 610.33 522.213C631.669 519.679 654.901 525.827 666.806 533.211C684.015 543.881 687.254 556.052 683.092 565.094C678.493 575.091 665.946 578.376 651.193 571.681C632.671 563.28 615.79 559.885 599.583 561.308C579.652 563.061 557.719 574.168 538.554 591.33C507.516 619.13 478.699 631.066 443.828 629.001C430.515 628.219 421.66 627.202 411.882 625.215H411.914Z" fill="#0E141B"/>
<path d="M411.945 622.32C421.848 623.932 427.573 618.628 428.747 612.84C430.123 606.113 426.431 600.309 419.157 598.056C418.422 597.821 419.266 595.349 420.002 595.6C428.653 598.291 433.158 605.268 431.5 613.403C430.045 620.506 424.632 626.138 411.804 624.589C411.773 624.589 411.225 622.195 411.945 622.32Z" fill="#0E141B"/>
<path d="M635.049 565.47C633.594 565.157 634.298 562.513 635.08 562.669C640.211 563.702 645.405 563.592 650.615 560.855C655.527 558.289 658.233 553.846 659.782 547.87C660.69 544.334 660.001 540.627 657.748 537.138C654.15 531.553 647.189 527.47 638.615 525.937C637.896 525.827 638.256 523.371 639.022 523.512C648.331 525.139 655.417 529.863 660.111 535.62C663.146 539.344 663.834 544.663 662.895 548.949C661.487 555.504 658.014 561.011 651.835 563.608C646.907 565.673 640.853 566.721 635.049 565.47Z" fill="#0E141B"/>
<path d="M612.333 560.62C611.645 560.464 611.926 558.461 612.708 558.524C617.652 558.946 622.408 557.147 626.006 553.909C629.589 550.702 631.685 546.181 631.795 541.534C631.904 536.497 629.51 531.553 625.396 528.299C621.626 525.327 614.57 523.59 608.923 525.061C608.156 525.264 607.577 522.605 608.359 522.526C615.9 521.869 621.563 522.01 626.757 526.093C631.56 529.879 634.767 535.589 634.642 541.519C634.532 546.947 632.389 552.219 628.243 555.958C624.051 559.713 618.262 561.559 612.521 561.074C612.458 561.074 612.396 560.605 612.333 560.589V560.62Z" fill="#0E141B"/>
<path d="M593.841 559.369C601.46 556.631 606.138 548.199 604.213 541.096C602.586 535.104 597.126 529.065 588.553 529.097C587.881 529.097 587.896 526.734 588.663 526.734C598.722 526.703 605.481 533.508 607.186 540.58C609.219 548.981 603.76 558.399 594.655 561.668C594.404 561.762 593.09 559.634 593.826 559.369H593.841Z" fill="#0E141B"/>
<path d="M566.542 570.273C565.776 570.414 566.542 568.74 567.262 568.427C575.929 564.61 578.103 556.302 576.429 549.935C575.428 546.118 572.471 542.958 568.67 541.393C565.869 540.236 561.395 539.532 555.967 542.739C555.294 543.13 554.027 541.19 554.699 540.799C559.706 537.842 564.946 536.841 569.734 538.812C574.333 540.705 577.947 544.773 579.151 549.419C581.451 558.227 576.195 568.442 566.527 570.288L566.542 570.273Z" fill="#0E141B"/>
<path d="M451.494 626.232C459.488 626.999 465.589 621.039 466.184 615.219C466.935 607.882 461.741 601.624 453.856 600.701C453.089 600.607 453.418 598.057 454.2 598.151C463.54 599.246 469.876 606.724 468.968 615.501C468.233 622.65 461.005 629.502 451.353 628.579C451.306 628.579 450.774 626.154 451.494 626.217V626.232Z" fill="#0E141B"/>
<path d="M481.75 621.976C488.977 619.677 493.17 612.136 491.089 605.19C488.93 597.947 480.764 595.397 476.259 596.554C475.508 596.742 475.273 594.239 476.024 594.051C481.734 592.581 491.074 595.365 493.765 604.392C496.268 612.793 491.261 621.882 482.579 624.651C482.344 624.73 480.999 622.227 481.734 621.992L481.75 621.976Z" fill="#0E141B"/>
<path d="M506.405 611.228C513.148 607.521 516.433 600.497 514.337 594.192C513.242 590.907 510.301 587.903 506.812 586.542C504.246 585.541 500.132 584.915 495.063 587.715C494.39 588.091 493.06 585.932 493.733 585.556C499.741 582.24 504.7 582.709 507.829 583.945C512.053 585.603 515.635 589.279 516.981 593.331C519.515 600.966 515.854 609.023 507.891 613.403C507.578 613.575 505.701 611.635 506.389 611.26L506.405 611.228Z" fill="#0E141B"/>
<path d="M527.916 596.352C532.062 593.364 534.784 589.312 535.394 585.339C535.895 582.116 535.081 578.956 533.032 576.203C531.107 573.606 527.791 571.728 524.365 571.29C520.814 570.836 516.59 572.025 513.523 574.482C512.929 574.967 511.881 572.636 512.491 572.151C517.137 568.427 521.705 568.114 524.725 568.505C528.964 569.069 532.891 571.306 535.284 574.529C537.788 577.908 538.789 581.788 538.163 585.777C537.443 590.423 534.455 594.851 529.746 598.23C529.418 598.464 527.29 596.806 527.916 596.352Z" fill="#0E141B"/>
<path d="M546.94 580.425C552.04 577.093 555.169 572.822 555.795 568.566C556.264 565.375 555.31 562.246 553.041 559.524C550.82 556.864 547.847 555.316 544.484 555.05C540.056 554.706 534.988 556.473 530.592 560.322C530.013 560.838 528.355 558.883 528.949 558.382C533.924 554.033 539.525 551.858 544.703 552.265C548.849 552.594 552.462 554.487 555.184 557.741C557.985 561.104 559.158 564.984 558.564 568.989C557.813 574.058 554.215 578.939 548.442 582.725C548.113 582.944 546.283 580.879 546.94 580.456V580.425Z" fill="#0E141B"/>
<path d="M447.52 355.445C456.234 342.773 469.532 330.523 484.894 323.593C490.855 320.902 495.767 320.746 504.418 319.056C509.315 318.102 516.23 315.207 521.424 310.937C527.056 306.306 530.826 299.407 538.507 296.012C538.507 296.012 540.4 281.197 543.076 273.046L552.212 282.401L556.78 256.322L574.505 280.289C574.505 280.289 578.635 270.261 579.527 266.022C579.527 266.022 589.899 283.966 594.342 303.13C618.059 318.352 647.548 378.051 651.631 411.123C659.532 425.547 665.571 443.522 667.417 449.733C672.251 465.987 671.797 481.663 669.873 487.42C666.415 497.792 660.909 505.349 654.135 511.982C648.518 524.044 628.869 534.666 615.29 535.354C597.502 536.277 593.591 528.596 595.281 519.022C592.042 517.457 590.009 512.967 590.384 507.382C584.001 506.631 582.077 503.096 581.561 500.436C579.621 504.128 575.006 507.476 571.423 508.024C564.383 509.088 560.456 504.207 552.008 489.642C547.644 482.117 534.174 478.159 531.389 465.143C529.027 454.02 541.011 442.38 551.836 438.047C554.512 436.983 557.14 434.01 558.986 431.241C554.027 422.825 546.392 401.58 544.468 385.826C543.42 377.237 542.778 368.07 543.076 354.271C519.969 367.882 505.733 377.096 490.573 389.064C488.539 396.793 483.565 406.179 477.072 412.609L447.489 355.429L447.52 355.445Z" fill="#FFE100"/>
<path d="M325.557 587.607C315.388 575.045 305.908 555.395 303.577 545.18C284.96 560.98 266.124 583.79 261.9 592.598C257.567 601.624 257.238 608.68 258.865 614.578C260.821 621.618 265.89 628.877 275.605 634.055C275.605 634.055 275.964 642.613 293.079 644.349C310.179 646.086 316.139 632.553 316.139 632.553C317.594 627.907 313.761 621.727 304.672 612.528C303.311 610.792 303.983 608.039 305.329 606.146C308.896 601.061 316.702 594.678 325.573 587.638L325.557 587.607Z" fill="#FFE100"/>
<path d="M334.38 629.126C342.875 628.532 353.873 632.536 357.503 641C352.856 641.422 344.064 645.287 339.653 647.993C340.982 640.374 339.809 632.975 334.38 629.11V629.126Z" fill="white"/>
<path d="M232.88 666.031C235.195 654.861 230.189 647.617 226.904 647.664C222.477 647.727 220.787 653.14 210.133 654.61C201.216 655.44 190.812 657.379 189.545 658.928C185.384 663.997 183.913 670.599 183.945 676.184C186.15 673.071 188.278 671.85 192.533 672.038C198.572 672.304 203.171 674.651 210.962 674.26C218.769 673.869 228.766 669.926 232.896 666.031H232.88Z" fill="white"/>
<path d="M188.122 661.525C187.637 663.684 188.747 664.529 189.843 665.186C192.158 666.562 194.176 666.578 197.477 664.982C201.106 663.215 205.862 663.778 211.776 665.624C218.816 667.814 227.389 663.919 231.816 660.242C232.348 661.854 232.317 664.497 231.754 666.453C226.935 670.114 218.456 673.837 212.527 674.322C202.561 675.151 199.73 672.413 194.551 672.038C190.609 671.741 186.698 674.369 184.085 676.278C183.569 671.616 184.085 664.857 188.122 661.525Z" fill="#DCDDDD"/>
<path d="M340.31 638.247C346.239 636.87 354.28 638.044 357.503 641.016C354.108 640.891 343.313 644.724 340.497 646.961L340.325 638.263L340.31 638.247Z" fill="#DCDDDD"/>
<path d="M239.701 663.496C231.753 666.391 227.545 671.021 220.943 673.024C212.308 675.636 207.755 674.432 204.11 677.342C199.291 681.19 194.098 690.796 197.821 700.401C198.697 696.741 204.97 693.987 209.679 693.08C225.136 690.076 231.738 695.286 240.264 693.08C247.226 691.281 249.697 684.71 247.883 675.543C246.631 669.222 243.565 662.104 239.701 663.512V663.496Z" fill="white"/>
<path d="M199.745 682.911C198.478 684.288 200.981 686.181 202.843 686.337C205.987 686.588 208.537 683.959 212.808 683.818C218.597 683.615 223.634 686.9 233.709 684.632C239.904 683.24 245.693 680.627 247.429 677.357C249.322 684.147 247.82 690.78 241.969 692.877C233.068 696.068 225.496 690.921 215.468 692.47C206.77 693.815 200.621 693.534 197.743 700.026C195.975 697.46 196.084 686.932 199.761 682.927L199.745 682.911Z" fill="#DCDDDD"/>
<path d="M277.216 632.568C265.89 639.405 252.873 643.848 246.068 643.128C233.13 641.767 228.359 642.299 226.043 646.773C229.657 646.617 233.553 657.177 232.645 666.282C236.588 664.044 239.951 663.121 242.501 663.904C247.695 665.499 252.326 684.836 245.176 691.813C259.241 697.711 279.031 696.678 290.295 691.281C309.396 682.129 309.443 673.384 316.796 662.464C331.783 660.118 338.98 654.517 339.715 645.099C340.466 635.384 334.881 626.295 329.155 625.763C321.474 625.043 315.216 624.151 312.869 622.18C309.553 620.287 287.604 624.167 277.247 632.568H277.216Z" fill="#FFE100"/>
<path d="M264.216 622.931C275.057 631.692 292.031 629.783 299.775 620.381C299.916 622.665 299.071 626.498 296.38 628.97C299.947 628.406 301.965 627.562 305.047 625.278C304.844 628.156 303.764 632.052 301.715 633.725C304.656 632.865 306.831 631.77 307.941 631.113C307.91 635.102 302.513 639.451 293.236 639.498C281.284 639.545 271.115 633.491 264.216 622.931Z" fill="#515557"/>
<path d="M287.698 627.876C290.514 632.225 294.675 635.964 301.089 638.357C303.999 637.591 307.331 634.18 308.458 630.989C307.128 631.63 305.016 632.115 303.764 632.319C305.016 630.254 305.845 627.422 305.595 625.638C303.279 627.391 300.62 628.142 298.383 628.314C299.415 626.108 300.244 623.073 300.557 621.07C296.928 624.966 291.922 626.906 287.698 627.86V627.876Z" fill="#38393A"/>
<path d="M307.394 616.485C304.546 614.092 302.685 611.495 302.857 609.508L309.897 602.452C306.08 601.623 300.495 599.229 297.663 596.93C294.034 600.731 291.249 604.22 289.184 607.458C287.917 608.851 284.835 611.072 282.003 612.543C280.47 613.341 279.078 614.404 277.81 615.578C275.87 617.377 274.947 618.847 273.977 621.382C273.727 622.367 275.088 623.588 277.889 623.118C280.861 622.618 283.552 623.478 286.399 625.84C286.759 626.45 287.134 627.045 287.604 627.624C292.516 626.372 298.993 622.305 300.401 618.597C300.573 622.508 298.805 626.92 296.709 628.75C299.665 627.827 303.248 626.763 305.376 625.058C305.329 627.467 303.717 631.754 301.684 633.318C304.202 632.677 306.408 632.082 308.364 630.424C307.034 636.4 304.64 637.167 299.509 637.84C306.471 640.343 312.337 639.091 316.123 633.897C318.673 630.424 316.624 623.572 307.362 616.469L307.394 616.485Z" fill="#DDC300"/>
<path d="M302.888 545.898C294.925 552.61 282.644 564.938 277.779 571.586C284.35 587.215 299.9 601.436 309.897 602.453L325.15 587.497C313.526 572.103 305.876 557.115 302.888 545.898Z" fill="#515557"/>
<path d="M298.101 597.008C302.043 592.612 313.589 580.926 318.204 576.232L325.494 587.168L309.412 602.499C306.283 601.608 300.26 598.526 298.101 596.992V597.008Z" fill="#38393A"/>
<path d="M283.114 638.591C269.394 634.211 262.025 626.655 257.895 616.314C255.424 610.119 253.577 596.195 272.022 574.371C279.782 565.173 291.859 552.72 301.543 544.366C302.122 543.865 303.405 548.058 302.81 548.558C293.251 556.819 282.254 567.363 274.588 576.436C257.097 597.15 258.255 609.649 260.492 615.266C264.09 624.277 269.973 632.068 284.193 636.495C284.929 636.73 283.286 638.654 283.114 638.591Z" fill="#0E141B"/>
<path d="M249.463 675.653C256.299 680.081 266.14 681.316 274.807 680.362C292.985 678.375 296.943 672.54 307.316 664.249C311.931 660.572 321.223 655.816 328.67 653.782C333.363 652.5 337.212 649.856 339.449 646.477C339.136 651.467 337.212 657.068 331.908 660.212C327.497 662.825 314.653 670.897 309.005 679.345C304.625 685.9 295.864 690.39 285.304 692.909C274.744 695.428 258.99 697.587 245.333 691.892C245.333 691.892 250.777 689.545 249.432 675.638L249.463 675.653Z" fill="#DDC300"/>
<path d="M268.299 698.712C261.165 698.712 251.278 697.398 241.437 694.582C240.733 694.379 244.895 690.827 245.802 691.125C264.278 697.21 279.093 696.616 295.41 686.854C301.95 682.943 307.832 678.75 312.181 674.229C316.577 669.661 323.116 664.827 327.685 661.948C333.207 658.491 335.601 655.299 337.541 649.167C339.418 643.237 338.651 636.589 335.554 631.848C333.504 628.704 330.782 626.592 324.102 626.029C319.784 625.669 316.593 625.278 315.153 624.793C313.558 624.261 313.558 621.789 314.496 622.149C317.422 623.26 322.178 623.917 326.198 624.167C330.109 624.417 334.568 625.591 337.603 629.955C340.779 634.539 342.562 642.502 340.45 649.167C338.729 656.128 336.68 659.758 329.844 663.747C325.62 666.219 319.722 671.006 315.153 675.48C309.224 681.3 304.187 685.43 297.178 689.795C286.149 696.678 281.424 698.446 268.33 698.697L268.299 698.712Z" fill="#0E141B"/>
<path d="M297.428 614.28C306.064 602.515 315.169 592.941 324.055 585.76C324.211 585.635 327.372 588.17 326.715 588.576C320.488 592.425 306.314 606.927 299.024 615.281C297.397 617.143 295.676 616.689 297.444 614.296L297.428 614.28Z" fill="#0E141B"/>
<path d="M315.06 632.161C315.247 630.237 314.872 628.36 313.918 626.389C313.307 625.137 309.443 619.38 305.298 616.048C302.575 613.857 300.495 612.59 302.654 608.71C303.029 608.038 306.174 606.943 305.829 607.631C304.813 609.665 305.626 612.7 308.724 615.75C311.555 618.519 314.778 621.742 316.436 625.184C317.625 627.624 317.797 630.018 317.297 632.427C316.593 635.853 314.747 635.54 315.06 632.177V632.161Z" fill="#0E141B"/>
<path d="M339.246 646.616C343.298 642.955 351.276 640.624 356.408 640.358C353.451 634.742 346.348 630.612 336.805 630.69C336.273 630.69 332.675 628.125 333.238 628.078C347.35 626.826 356.095 633.506 359.005 640.922C359.536 642.283 359.255 642.47 357.597 642.47C354.937 642.47 343.579 645.943 340.122 649.025C339.856 649.276 338.823 647.007 339.261 646.616H339.246Z" fill="#0E141B"/>
<path d="M182.943 676.31C182.02 668.237 185.759 657.489 188.294 656.66C193.112 655.096 200.934 654.048 207.974 653.641C212.214 653.391 216.61 651.998 221.147 648.995C224.041 647.07 226.356 646.523 227.702 646.71C231.268 647.461 233.459 652.139 234.131 656.207C234.648 659.32 234.382 662.715 233.834 665.953C233.725 666.641 230.142 669.019 230.252 668.331C230.752 665.39 231.253 659.961 230.862 657.27C230.126 652.186 228.312 650.731 226.763 650.152C225.824 650.043 224.792 650.199 222.648 651.388C219.222 653.297 215.577 655.55 208.115 656.035C202.076 656.441 194.52 657.568 190.562 659.023C187.668 660.086 184.82 669.629 184.946 673.525C187.668 670.975 189.889 670.318 193.644 670.771C195.24 670.975 198.541 671.522 199.636 671.82C204.016 672.962 209.711 674.088 213.997 674.088C214.826 674.088 210.665 675.997 209.883 675.95C206.425 675.778 202.389 675.011 198.587 673.947C197.586 673.666 194.473 673.102 193.957 673.04C189.921 672.508 187.715 673.071 185.04 676.748C183.569 678.766 183.193 678.249 182.974 676.325L182.943 676.31Z" fill="#0E141B"/>
<path d="M308.332 603.751C303.764 602.343 297.381 598.979 291.014 592.424C285.288 586.542 280.814 580.159 276.809 572.008C276.465 571.32 278.874 569.099 279.218 569.787C283.083 577.625 289.184 586.495 294.941 591.955C301.246 597.931 306.158 599.761 310.241 601.029C310.976 601.263 308.473 603.782 308.348 603.751H308.332Z" fill="#0E141B"/>
<path d="M273.133 620.865C274.306 617.079 276.762 613.763 278.999 612.871C280.892 612.12 282.128 614.154 280.126 615.374C279.093 616 276.043 618.456 274.478 621.569C273.759 623.024 272.617 622.508 273.117 620.881L273.133 620.865Z" fill="#0E141B"/>
<path d="M196.429 699.15C194.708 692.11 197.32 679.36 201.607 676.497C203.437 675.277 207.239 674.792 213.184 674.135C216.344 673.775 219.707 672.398 222.226 671.209C225.543 669.645 227.921 668.378 230.518 666.97C233.803 665.202 236.447 662.855 238.465 662.183C239.795 661.745 241.171 661.838 242.454 662.464C246.365 664.342 248.196 671.241 248.806 673.728C250.793 681.629 249.635 690.389 245.661 693.205C242.532 695.427 238.825 695.599 228.296 694.097C221.413 693.111 217.548 692.986 212.777 693.409C206.707 693.956 201.059 695.724 199.401 699.15C197.743 702.576 197.101 701.888 196.429 699.15ZM240.076 665.374C239.857 665.374 239.638 665.405 239.404 665.484C237.636 666.062 235.023 667.47 231.988 669.113C229.344 670.537 226.356 672.148 222.977 673.759C219.942 675.199 216.813 676.075 213.309 676.419C207.129 677.029 203.781 677.921 202.28 679.689C199.604 682.473 197.618 690.139 198.29 696.96C200.559 693.002 204.689 692.016 211.385 691.125C215.968 690.515 222.93 691.062 229.407 692.001C236.165 692.971 240.858 692.22 243.581 690.296C246.209 688.434 247.883 681.785 246.005 674.291C244.926 669.974 242.955 666.563 241.015 665.64C240.686 665.484 240.358 665.405 240.045 665.405L240.076 665.374Z" fill="#0E141B"/>
<path d="M307.722 629.611C306.846 630.393 305.689 631.066 304.687 631.363C305.673 629.408 306.361 626.999 306.471 624.761C306.549 623.322 305.876 622.853 304.734 623.995C303.608 625.137 301.668 626.216 299.368 627.014C300.604 624.652 301.543 621.648 301.918 619.411C302.122 618.222 301.778 617.549 301.324 617.377C300.964 617.158 300.432 617.362 299.791 618.191C297.616 621.069 293.47 624.292 290.091 625.34C279.75 628.516 266.265 626.842 259.366 612.653C259.037 611.964 257.395 613.983 257.723 614.671C265.201 630.081 277.576 632.099 291.155 627.922C294.065 627.03 296.615 625.403 298.68 623.479C298.007 625.278 297.162 626.999 296.271 628.078C295.269 629.267 295.019 630.221 297.272 629.721C299.869 629.142 302.263 628.188 304.093 627.061C303.561 629.361 302.497 631.582 301.277 632.74C300.119 633.835 300.385 634.946 302.231 634.461C303.733 634.054 305.235 633.444 306.486 632.724C306.174 633.256 305.782 633.773 305.329 634.258C300.385 638.638 292.641 639.279 284.178 636.51C283.442 636.276 281.894 638.216 282.629 638.466C286.728 639.843 290.811 640.468 295.223 640.265C300.98 639.999 304.953 637.433 306.925 635.055C308.332 633.507 308.99 631.88 309.256 630.393C309.506 628.923 309.083 628.422 307.738 629.627L307.722 629.611Z" fill="#0E141B"/>
<path d="M222.32 648.556C223.478 644.582 229.376 640.515 231.143 640.296C232.77 640.108 236.666 640.546 239.701 640.922C242.658 641.281 245.411 641.469 247.194 641.328C257.535 640.53 269.941 636.385 273.43 632.646C273.931 632.114 275.949 633.835 275.464 634.367C271.287 638.825 256.253 643.519 246.897 644.129C244.942 644.254 242.001 644.082 239.153 643.925C236.353 643.769 233.443 643.597 232.051 643.769C230.267 643.988 226.434 647.367 226.075 648.196C225.856 648.697 222.117 649.229 222.32 648.54V648.556Z" fill="#0E141B"/>
<path d="M273.446 634.587C273.164 633.867 276.215 633.898 276.528 634.587C278.608 639.296 283.865 642.863 291.092 643.175C294.409 643.316 294.127 644.834 291.171 644.881C281.909 645.006 276.246 641.564 273.43 634.587H273.446Z" fill="#0E141B"/>
<path d="M318.532 387.859C318.532 387.859 325.056 403.253 322.397 413.719C303.686 447.683 293.971 499.293 300.792 532.24C313.057 591.595 354.374 625.825 411.804 623.979C484.018 621.663 524.944 563.435 514.227 482.679C508.955 442.927 481.374 385.716 438.149 361.389L318.548 387.859H318.532Z" fill="#FFE100"/>
<path d="M322.976 411.592C326.089 403.973 330.641 397.184 334.02 393.789L319.018 387.672C322.053 394.806 323.742 403.926 322.991 411.576L322.976 411.592Z" fill="#DDC300"/>
<path d="M500.711 436.967C506.609 451.094 500.226 476.281 490.62 493.239C477.948 515.579 460.395 533.617 443.765 546.696C448.193 545.679 456.39 542.801 459.425 541.017C451.4 553.736 441.372 567.644 429.623 575.841C434.144 574.731 444.219 570.585 447.786 567.3C446.237 571.258 444.063 577.109 441.606 578.047C481.484 562.7 509.722 531.881 516.261 501.359C516.261 480.067 509.581 450.124 500.726 436.967H500.711Z" fill="#515557"/>
<path d="M516.245 501.359C514.587 515.814 504.919 532.866 488.743 548.558C495.97 528.032 496.831 503.33 495.329 484.431C499.835 471.4 504.731 452.455 501.993 438.688C509.503 451.531 515.15 480.505 516.245 501.359Z" fill="#38393A"/>
<path d="M492.873 562.059C496.346 565.798 500.007 569.771 501.696 571.711C516.386 547.087 517.356 529.346 516.981 503.611C510.52 524.606 498.927 538.31 489.838 547.275C489.838 547.306 489.822 547.337 489.806 547.368C488.039 552.469 489.196 558.116 492.873 562.074V562.059Z" fill="#DDC300"/>
<path d="M337.478 599.465C375.04 615.359 423.443 613.607 450.915 600.075C457.548 599.699 467.936 605.707 469.422 608.539C451.087 619.818 423.271 626.326 398.084 623.62C371.269 620.741 351.839 612.543 337.478 599.465Z" fill="#DDC300"/>
<path d="M462.773 375.423C454.419 380.382 448.036 389.127 444.203 402.519C434.613 436.076 418.046 447.137 395.815 456.304L402.699 435.81C402.699 435.81 419.282 422.841 423.193 410.591C429.247 391.615 442.717 376.502 459.816 368.18L462.773 375.407V375.423Z" fill="#DDC300"/>
<path d="M350.087 410.856C323.226 443.209 305.094 495.101 305.344 523.668L311.649 515.971C310.319 520.789 308.802 529.534 308.598 535.432C325.369 514.875 355.328 498.183 374.117 491.972C362.227 515.267 352.981 549.418 351.479 588.169L357.143 580.707C355.782 587.919 355.046 598.369 355.406 605.597C365.356 579.596 384.442 542.3 406.985 509.181C424.335 483.712 436.412 468.881 462.053 449.201L452.432 449.029L463.149 441.957C435.99 445.305 406.532 455.599 392.843 464.595C395.471 453.581 412.743 407.993 417.358 397.465C413.462 399.264 408.143 399.812 404.216 399.405C390.105 411.467 365.497 413.672 350.087 410.872V410.856Z" fill="#515557"/>
<path d="M342.938 441.519C352.246 457.445 374.007 461.122 395.816 456.303L403.825 435.434C398.115 444.116 385.85 449.67 372.803 449.467C360.913 449.294 351.777 448.215 342.938 441.504V441.519Z" fill="#38393A"/>
<path d="M463.164 440.627C444.829 443.146 414.307 450.592 394.642 462.138C397.036 455.004 401.948 441.769 405.093 433.853C409.348 423.402 414.37 410.715 418.547 399.435C418.797 398.763 414.667 398.45 414.401 399.123C409.958 410.214 406.954 418.334 400.571 436.043C400.571 436.043 400.54 436.074 400.54 436.09C397.489 444.413 392.718 457.914 391.138 464.75C390.59 467.144 391.591 467.3 393.516 466.143C412.977 454.41 438.556 447.776 456.5 444.116C454.31 445.649 452.213 447.291 450.758 448.699C450.305 449.137 450.179 449.841 450.445 450.42C450.711 450.999 451.306 451.328 451.9 451.218C453.418 450.936 455.311 450.702 457.235 450.561C441.763 461.606 423.96 481.756 404.232 510.557C390.215 531.02 370.425 566.032 356.517 599.073C357.018 592.439 357.596 587.652 358.441 580.956C358.864 577.671 358.285 577.061 356.079 579.721C354.953 581.082 353.56 582.865 352.262 584.633C354.968 551.655 362.649 521.242 375.666 491.815C376.964 488.858 376.354 488.843 373.96 489.813C353.654 498.042 324.9 515.673 309.584 531.646C310.194 526.608 311.101 522.056 312.619 516.752C313.636 513.185 312.901 513.107 310.851 515.078C309.302 516.564 307.675 518.379 305.908 520.788C307.19 504.237 312.509 484.728 321.708 462.732C324.728 455.536 329.421 446.384 335.428 436.465C341.123 427.47 347.553 418.615 353.951 411.184C354.421 410.637 350.103 409.542 349.602 410.058C343.313 416.66 336.336 427.001 330.015 438.562C325.604 446.478 322.209 453.815 319.581 459.713C308.896 483.633 304.187 506.208 303.983 523.417C303.952 526.452 305.063 525.888 305.72 524.95C306.596 523.714 308.458 521.336 309.74 519.787C308.614 523.87 307.707 529.721 307.519 534.9C307.425 537.7 308.176 537.277 309.068 536.245C322.569 520.648 349.931 503.673 370.925 494.584C358.003 524.793 351.386 555.519 349.743 589.592C349.602 592.486 350.525 592.017 351.636 590.343C352.512 589.013 354.202 586.103 355.422 584.461C354.577 590.844 354.108 598.791 354.264 605.612C354.327 607.927 355.641 608.209 356.47 606.144C370.347 571.398 391.545 533.961 406.407 512.294C427.777 481.099 446.8 460.214 462.914 450.201C465.214 448.778 465.073 447.542 462.257 447.479C460.505 447.448 458.424 447.526 456.39 447.698C458.909 445.821 461.788 443.975 463.993 442.723C466.293 441.425 466.199 440.22 463.164 440.627Z" fill="#0E141B"/>
<path d="M501.352 437.827C497.159 428.863 488.367 409.605 484.159 404.207C485.285 402.268 486.756 399.154 486.255 397.59C485.457 395.149 479.763 393.366 478.292 392.85C471.205 400.766 469.703 409.933 473.192 418.381C480.639 429.191 491.559 460.824 495.125 483.555C501.993 473.887 504.731 452.642 501.352 437.811V437.827Z" fill="#DDC300"/>
<path d="M558.751 260.014C563.804 267.194 570.75 279.178 572.549 285.217L574.505 280.304L558.751 260.014Z" fill="#DDC300"/>
<path d="M580.543 267.836C583.031 274.547 587.286 290.442 587.349 297.92L595.812 303.536C592.167 291.396 585.956 274.313 580.543 267.852V267.836Z" fill="#DDC300"/>
<path d="M560.378 453.175C566.557 454.348 571.532 450.046 571.908 443.913C574.88 445.603 582.077 443.96 591.526 433.369L568.372 463.531C567.762 456.366 565.447 453.941 560.394 453.19L560.378 453.175Z" fill="#DDC300"/>
<path d="M595.672 519.773C593.043 527.751 597.956 535.839 611.285 535.386C626.256 534.885 645.561 526.265 656.043 509.307C651.084 517.317 625.724 524.591 617.026 524.45C600.834 524.169 595.922 521.76 595.672 519.773Z" fill="#DDC300"/>
<path d="M600.459 507.178C602.759 510.995 608.422 515.125 614.617 515.704C626.976 516.846 642.589 513.905 659.954 505.551C659.954 505.551 650.318 519.975 614.21 523.98C595.375 526.076 589.571 513.279 590.384 507.412L600.443 507.162L600.459 507.178Z" fill="#DDC300"/>
<path d="M591.479 486.67C590.008 490.737 590.337 496.588 593.982 498.888C598.816 501.939 611.55 501.814 623.909 499.264C595.531 510.496 587.005 507.148 581.685 502.142C578.431 499.092 576.147 494.523 578.494 488.563C581.56 488.876 588.459 488.109 591.479 486.654V486.67Z" fill="#DDC300"/>
<path d="M568.357 464.391C570.875 479.706 584.501 486.246 606.763 477C592.371 490.767 580.058 490.72 572.236 484.118C565.603 478.517 562.584 470.179 568.372 464.406L568.357 464.391Z" fill="#DDC300"/>
<path d="M537.412 474.326C552.978 487.358 563.366 484.902 569.42 481.476C571.204 483.947 574.192 486.497 578.103 489.047C576.804 492.082 578.995 498.199 581.717 502.298C579.245 506.569 572.893 508.978 568.169 508.353C564.743 507.899 562.083 505.552 553.651 491.347C550.694 486.388 541.433 477.502 537.412 474.342V474.326Z" fill="#DDC300"/>
<path d="M543.279 340.863C539.024 344.837 525.523 355.553 521.799 357.9L530.263 362.609L543.373 355.162C543.029 349.108 543.029 345.744 543.279 340.863Z" fill="#DDC300"/>
<path d="M494.875 376.346C497.817 374.485 504.434 370.057 507.266 368.023C508.345 369.275 511.787 372.482 513.023 373.155L502.932 380.852C500.132 379.804 497.582 378.255 494.875 376.331V376.346Z" fill="#DDC300"/>
<path d="M635.252 362.546C631.122 356.539 624.629 353.738 615.712 352.69C606.028 351.564 598.018 352.424 588.601 357.837C593.106 357.274 598.535 357.79 601.945 359.23C596.798 359.683 590.29 361.889 586.254 364.549C593.607 363.328 598.879 364.157 603.604 366.473C594.718 367.537 583.203 371.745 576.742 378.675C587.787 374.217 605.794 373.998 619.999 378.848C633.249 383.384 645.343 394.195 651.647 409.542C651.647 409.542 643.794 376.313 635.252 362.546Z" fill="#515557"/>
<path d="M542.966 355.664C544.139 345.214 554.371 334.106 564.837 329.585C577.712 324.016 587.13 324.157 597.173 327.817L590.243 329.257C596.063 329.82 599.285 330.727 603.431 333.512C600.74 333.168 596.641 333.762 595.124 334.717C599.942 334.779 605.934 337.063 609.251 340.302C602.586 337.11 584.595 336.203 573.989 343.712C551.899 359.372 548.316 365.817 548.598 402.159C543.889 386.89 542.856 368.195 542.981 355.68L542.966 355.664Z" fill="#515557"/>
<path d="M597.424 305.272C591.917 300.563 581.873 298.733 571.423 301.862C560.394 305.147 552.415 312.938 549.568 319.571L558.266 313.877L555.419 322.81C562.052 315.692 570.171 312.14 580.528 311.186C592.871 310.044 603.275 314.19 610.925 320.604C610.925 320.604 603.29 309.966 597.439 305.241L597.424 305.272Z" fill="#515557"/>
<path d="M536.568 297.561C531.389 302.113 526.242 322.826 538.022 341.599L531.687 338.924L535.832 347.544C521.705 340.786 515.057 326.409 517.137 313.33C520.219 311.953 524.725 309.012 526.242 306.822C528.761 303.161 533.314 298.937 536.568 297.561Z" fill="#515557"/>
<path d="M499.85 332.525C495.501 340.972 497.676 364.548 513.508 373.059L531.327 361.748C518.013 358.917 509.925 347.152 507.797 331.617L504.356 342.38L499.835 332.525H499.85Z" fill="#515557"/>
<path d="M507.563 367.819C511.771 364.956 518.373 360.31 522.081 357.51L531.608 362.219L513.68 373.264L507.579 367.835L507.563 367.819Z" fill="#38393A"/>
<path d="M237.276 406.664C235.352 409.652 231.034 419.085 231.472 427.111C232.27 441.895 234.304 447.355 232.63 452.392C229.141 462.874 219.801 469.147 209.46 473.606C206.754 475.483 204.548 479.41 203.86 481.772C202.452 486.559 198.791 491.3 193.879 492.066C190.093 492.661 185.65 491.3 183.178 488.39C182.052 487.091 179.721 483.649 178.751 481.162C180.425 485.605 180.8 489.407 180.847 492.238C180.487 499.607 171.632 502.97 163.169 501.562C159.054 500.874 145.068 499.153 141.674 498.214C129.956 494.945 126.858 490.017 121.039 456.679C115.219 435.919 115.829 423.481 122.76 414.752C127.14 409.245 139.812 399.749 148.056 389.205C153.641 382.071 159.633 377.127 162.793 375.438C184.993 342.366 217.814 312.97 249.776 294.604C252.076 288.111 256.863 280.07 261.446 276.3L263.12 285.264C270.301 276.409 281.628 268.603 288.48 266.131C286.603 273.155 285.883 283.809 286.712 290.067C291.734 286.515 295.097 285.154 299.994 284.56C296.803 290.192 294.581 296.684 294.002 300.439C297.616 301.675 300.072 303.067 303.717 305.304C290.482 310.31 276.731 325.047 277.153 338.83C277.56 352.018 272.351 369.086 260.179 383.604C250.448 395.228 243.721 396.62 237.245 406.648L237.276 406.664Z" fill="#FFE100"/>
<path d="M122.635 461.451C128.141 461.029 134.211 456.195 134.9 447.074C142.409 466.254 153.501 476.704 168.707 470.306C174.636 466.176 177.875 460.888 179.001 449.765C180.268 437.218 178.845 430.788 174.793 420.979C177.171 423.076 181.88 422.372 183.96 420.291C184.649 424.186 187.981 426.079 190.249 425.375C189.311 434.136 193.707 443.554 201.059 445.212C201.059 445.212 180.472 452.628 179.674 476.517C179.908 482.571 181.52 486.936 180.957 493.538C180.487 499.123 170.475 503.519 162.528 502.22C153.36 500.718 144.74 499.013 137.356 496.01C129.002 492.474 126.733 488.438 122.635 461.451Z" fill="#DDC300"/>
<path d="M274.416 321.325C274.134 318.008 274.416 316.522 275.073 316.553C275.526 316.585 276.277 318.212 276.731 324.156L274.4 321.325H274.416Z" fill="#DDC300"/>
<path d="M299.681 285.123C296.067 286.828 290.983 292.21 287.666 298.202L293.408 299.719L299.665 285.123H299.681Z" fill="#DDC300"/>
<path d="M288.495 266.146C284.225 270.699 281.08 280.586 281.847 286.734C282.3 290.317 283.474 291.381 285.773 291.303C285.617 281.65 286.947 269.776 288.495 266.146Z" fill="#DDC300"/>
<path d="M261.087 277.426C261.274 280.054 261.259 285.029 261.134 287.595L263.668 284.998L261.071 277.426H261.087Z" fill="#DDC300"/>
<path d="M230.126 426.219C227.905 406.179 234.929 389.471 243.862 379.865C243.862 379.865 246.741 389.221 240.045 400.594L230.126 426.204V426.219Z" fill="#DDC300"/>
<path d="M262.808 358.62C267.157 352.269 270.082 345.526 272.022 337.094C276.011 344.587 275.996 352.175 274.51 359.95C272.257 367.819 268.314 371.167 262.385 380.46C266.124 371.621 266.437 364.143 262.808 358.62Z" fill="#DDC300"/>
<path d="M173.588 360.389C179.142 355.836 191.282 353.505 204.705 358.402C215.53 362.344 223.227 372.153 224.714 379.287C222.68 377.144 219.441 375.517 217.032 375.141C220.615 378.255 223.368 381.79 224.62 388.736C221.632 384.293 219.035 382.306 216.141 381.055C218.534 383.402 219.973 388.079 220.02 393.414C213.481 382.635 203.437 375.658 191.313 373.28C181.879 371.418 170.866 372.842 161.464 377.613L173.557 360.389H173.588Z" fill="#515557"/>
<path d="M206.817 335.858C219.629 329.538 236.713 330.836 252.545 343.242C264.857 352.879 267.783 372.888 261.556 381.617C261.556 381.617 249.917 394.931 240.139 399.781C247.226 388.219 245.098 371.996 237.104 359.841C229.829 348.811 212.198 342.116 198.76 344.306C202.514 342.022 207.818 341.38 211.494 341.537C208.037 340.958 204.955 340.52 202.233 339.988C205.143 338.455 209.586 336.812 215.405 337.36C213.184 336.499 209.273 335.858 206.817 335.827V335.858Z" fill="#515557"/>
<path d="M244.425 379.725C247.038 376.58 250.84 373.185 253.937 370.244C257.395 366.959 260.899 362.375 262.839 357.65C262.839 357.65 266.953 371.026 262.119 380.022C257.301 389.033 240.561 400.172 240.561 400.172C244.41 391.833 244.723 386.655 244.425 379.709V379.725Z" fill="#38393A"/>
<path d="M243.862 379.865C233.13 391.395 227.843 406.257 229.798 423.841C232.145 446.401 220.302 459.213 207.865 463.015C203.531 464.345 201.028 466.973 199.354 469.804C194.379 478.174 186.15 479.911 180.55 477.846C180.253 485.887 183.225 489.72 190.14 492.113C195.412 493.944 203.516 488.046 205.565 479.52C206.222 476.766 209.773 472.605 212.104 470.978C223.055 466.582 230.737 459.26 232.551 453.143C234.006 448.247 234.147 440.909 232.677 433.463C231.832 429.176 231.988 424.764 233.365 420.619L240.045 400.61C246.741 389.236 243.862 379.881 243.862 379.881V379.865Z" fill="#DDC300"/>
<path d="M278.483 326.002C277.764 315.755 275.683 315.536 275.996 326.299C276.59 347.278 272.288 359.825 265.217 370.729C260.242 378.395 251.121 389.048 243.909 396.041C233.302 406.335 229.391 417.208 230.58 433.071C231.128 437.374 231.065 443.444 230.627 447.198C229.595 456.147 225.934 461.012 213.575 468.037C209.507 470.352 206.191 474.044 204.501 477.767C201.388 484.666 197.758 489.094 195.584 489.766C193.988 490.251 187.934 489.094 186.291 487.952C180.503 483.978 178.344 473.747 185.728 460.934C189.623 454.176 194.77 448.293 200.981 445.712C205.847 443.678 205.158 441.832 200.308 443.85C193.534 446.666 187.511 452.236 183.303 459.542C175.059 473.872 177.155 484.479 184.195 490.189C186.901 492.379 194.395 493.333 196.319 492.755C199.933 491.659 204.798 484.307 207.051 478.925C208.287 475.984 211.463 473.137 215.28 470.962C229.626 462.811 232.504 458.728 233.881 448.747C234.397 445.008 234.773 439.157 233.443 431.851C233.162 418.522 236.306 408.291 247.273 397.715C254.328 392.193 262.62 381.43 266.891 374.984C277.607 358.839 280.001 346.918 278.468 326.002H278.483Z" fill="#0E141B"/>
<path d="M216.641 319.212C216.641 319.212 225.981 310.921 231.362 308.12C242.658 302.833 256.55 305.617 264.435 311.234C273.774 317.867 277.81 328.223 277.607 330.523C278.029 337.688 276.355 351.08 274.181 357.791C275.213 338.142 269.785 327.535 256.237 319.118C245.552 312.485 226.904 312.829 216.625 319.228L216.641 319.212Z" fill="#515557"/>
<path d="M271.474 338.58C273.461 333.418 274.572 326.362 274.087 321.043L277.372 327.801C278.467 332.729 277.325 345.026 274.713 356.837C274.854 347.998 274.275 343.336 271.474 338.58Z" fill="#38393A"/>
<path d="M299.212 303.035L304.859 305.601C298.555 307.854 287.557 314.909 283.114 323.295C283.427 316.333 289.888 307.4 299.212 303.035Z" fill="#515557"/>
<path d="M477.541 348.904C470.861 359.715 465.135 364.736 459.05 368.6C464.15 384.417 475.648 394.335 487.241 396.385L490.745 388.782L503.136 380.193C496.643 380.897 481.797 363.892 477.541 348.904Z" fill="#515557"/>
<path d="M478.292 392.867C481.922 386.953 488.07 380.038 495.016 375.908C496.315 377.567 498.849 379.553 502.338 380.789L490.041 389.472L487.335 396.7L478.292 392.867Z" fill="#38393A"/>
<path d="M478.433 349.203C479.043 355.805 474.209 366.005 462.773 375.423L459.191 368.117L478.418 349.203H478.433Z" fill="#38393A"/>
<path d="M280.626 324.437C282.05 316.693 289.215 305.429 298.883 301.737C299.572 301.471 300.526 303.958 299.838 304.224C293.189 306.758 286.415 314.315 282.973 323.373C282.77 323.905 280.501 325.156 280.626 324.437Z" fill="#0E141B"/>
<path d="M249.76 293.712C237.464 299.672 214.216 315.958 194.676 334.982C184.508 344.885 175.262 354.584 162.355 373.138C160.806 375.375 159.023 377.456 157.068 379.349C152.468 383.776 144.583 391.395 142.675 393.445C141.22 395.009 138.435 397.449 135.635 399.561C128.736 404.771 121.258 412.249 117.832 418.147C112.747 426.892 114.89 439.095 121.258 463.813C122.071 466.988 122.932 471.51 123.464 474.842C124.856 483.618 126.186 489.047 128.955 492.238C134.383 498.496 142.988 500.921 161.949 502.908C163.278 503.049 165.594 503.315 166.814 503.315C175.684 503.315 181.019 499.669 182.474 493.287C183.037 490.799 182.599 486.153 180.612 482.57C180.237 481.898 178.219 482.695 178.532 483.399C179.908 486.434 180.159 489.078 179.376 492.52C177.483 500.812 166.751 500.608 162.23 500.139C141.83 498.011 135.416 494.257 131.176 489.375C128.876 486.732 127.641 480.177 126.201 473.168C125.513 469.82 124.809 466.363 123.964 463.124C117.8 439.204 117.237 427.33 121.915 419.305C125.137 413.767 132.443 406.977 138.326 401.517C140.938 399.092 143.191 396.996 144.724 395.353C148.369 391.442 154.173 385.935 158.835 381.508C160.024 380.382 163.482 376.674 163.935 376.048C173.4 362.876 182.568 351.94 197.07 337.829C214.905 320.464 238.168 301.8 251.512 294.964C257.254 292.007 254.798 291.287 249.776 293.728L249.76 293.712Z" fill="#0E141B"/>
<path d="M247.429 296.153C250.761 288.331 255.329 280.665 260.774 275.346C261.619 274.517 262.103 274.47 262.542 275.816C263.23 277.975 263.965 280.963 264.434 284.201C264.544 284.968 261.947 286.704 261.916 285.938C261.822 283.075 261.509 280.556 261.055 277.928C257.582 282.277 255.032 286.031 251.778 293.666C251.559 294.198 247.132 296.873 247.429 296.169V296.153Z" fill="#0E141B"/>
<path d="M292.281 299.61C294.002 294.776 296.302 289.332 298.555 285.734C295.629 286.469 290.92 288.737 287.713 291.288C286.43 292.304 285.413 292.32 285.288 290.036C284.882 283.293 285.695 273.844 287.432 267.649C276.966 272.999 269.081 278.85 263.621 286.187C261.54 288.988 260.023 288.362 262.01 285.483C267.595 277.411 275.573 271.31 287.964 265.381C289.278 264.739 289.731 265.005 289.45 266.429C287.917 274.141 287.322 279.82 287.604 287.877C291.045 285.656 295.019 284.107 299.478 283.731C301.433 283.559 301.386 284.013 300.604 285.64C298.148 290.724 296.396 295.402 294.988 300.283C294.8 300.909 292.015 300.33 292.266 299.595L292.281 299.61Z" fill="#0E141B"/>
<path d="M151.17 481.069C143.144 476.798 140.156 471.119 137.184 457.978C135.275 449.514 131.63 441.473 129.737 437.703C128.047 434.324 130.034 433.87 131.896 437.155C134.164 441.16 137.512 447.7 140.172 458.322C142.205 466.426 145.475 473.403 152.343 477.518C159.883 482.055 172.493 479.599 180.018 469.68C180.487 469.07 180.894 472.136 180.518 472.809C174.98 482.806 160.697 486.138 151.17 481.053V481.069Z" fill="#0E141B"/>
<path d="M157.756 494.053C151.404 493.365 146.289 491.691 133.883 473.246C132.287 470.868 130.722 468.506 128.97 465.612C127.406 463.03 128.751 462.843 130.206 464.83C131.927 467.176 133.538 469.648 135.384 472.104C147.29 487.968 151.623 490.111 158.037 490.799C163.904 491.441 169.52 488.187 172.242 484.901C173.744 483.086 174.48 480.349 174.088 479.097C173.869 478.362 176.513 477.329 176.732 478.065C177.405 480.286 176.545 484.072 174.386 486.685C169.02 493.177 162.809 494.585 157.756 494.053Z" fill="#0E141B"/>
<path d="M140.484 489.719C151.858 499.262 158.992 500.92 164.718 499.512C171.648 497.823 175.794 491.596 175.903 482.351C175.919 480.692 174.949 478.33 174.667 478.048C174.057 477.767 176.576 474.888 177.327 475.123C178.829 475.577 179.11 479.128 179.079 481.787C178.938 492.207 173.494 500.295 165.672 501.969C158.804 503.439 153.047 503.33 139.014 491.284C137.043 489.594 133.429 485.792 131.067 482.992C129.314 480.911 129.972 480.16 131.692 481.772C134.195 484.118 137.105 486.887 140.484 489.719Z" fill="#0E141B"/>
<path d="M175.7 456.521C179.517 444.647 178.891 430.02 171.586 416.91C169.38 412.952 171.085 412.608 173.619 416.362C181.88 428.643 182.865 444.366 178.813 456.975C176.701 463.53 173.557 463.202 175.716 456.506L175.7 456.521Z" fill="#0E141B"/>
<path d="M188.184 454.708C189.842 446.056 187.417 439.845 184.351 437.671C182.755 436.529 180.8 435.966 178.672 436.529C177.921 436.717 177.202 434.026 177.953 433.822C180.878 433.04 183.632 433.478 185.916 435.105C189.827 437.906 191.391 442.302 191.986 451.235C192.033 452.001 188.059 455.443 188.184 454.708Z" fill="#0E141B"/>
<path d="M191.595 451.422C187.386 443.412 186.385 433.682 189.248 425.922C190.672 422.105 191.986 422.277 190.969 426.219C189.154 433.228 189.999 442.239 193.8 449.482C194.066 449.999 191.782 451.735 191.61 451.407L191.595 451.422Z" fill="#0E141B"/>
<path d="M178.61 434.418C183.632 429.568 184.774 422.591 181.629 416.239C180.393 413.767 181.426 413.314 183.084 415.519C187.073 420.807 187.12 430.538 182.02 435.482C181.754 435.747 178.062 434.95 178.61 434.418Z" fill="#0E141B"/>
<path d="M218.659 394.446C211.713 383.777 207.583 379.944 194.739 375.517C183.616 371.684 168.879 373.139 156.989 381.806C156.426 382.212 158.35 379.099 158.898 378.552C166.36 371.105 182.208 368.524 195.6 373.264C207.192 377.363 214.044 382.463 219.363 390.911C218.487 386.577 217.455 383.996 215.155 381.321C213.778 379.725 213.387 378.129 216.5 379.741C217.627 380.335 219.582 381.602 221.1 382.791C218.894 378.411 217.439 376.627 213.841 373.921C212.245 372.716 212.777 372.169 214.607 372.638C216.938 373.232 220.036 374.531 222.836 376.393C219.864 368.602 211.306 361.343 198.979 358.12C190.218 355.82 179.361 357.385 173.963 362.109C173.385 362.626 171.179 361.671 171.726 361.139C178.579 354.522 189.936 353.427 199.495 355.93C214.06 359.747 221.819 367.381 225.199 377.691C226.184 380.695 225.48 381.555 223.572 379.49C222.946 378.818 221.444 377.832 220.349 377.128C222.868 380.225 224.604 383.699 225.433 387.578C226.184 391.114 225.371 391.787 223.274 388.314C222.68 387.328 220.599 385.028 219.113 383.902C220.38 386.311 221.115 390.676 221.053 393.351C220.975 396.261 219.911 396.402 218.659 394.477V394.446Z" fill="#0E141B"/>
<path d="M235.852 406.929C246.068 394.273 243.487 366.27 232.426 356.57C221.585 347.043 213.106 344.336 199.057 345.416C195.756 345.682 196.194 344.555 199.057 343.366C200.95 342.584 203.14 341.786 205.659 341.379C200.496 340.66 200.434 339.799 202.483 338.892C203.688 338.344 207.286 337.015 209.022 336.717C204.955 336.717 205.158 335.669 207.818 334.355C217.893 329.349 236.134 330.381 248.681 339.08C258.787 346.088 265.186 356.007 266.062 366.864C266.687 374.592 264.122 379.364 259.397 383.916C258.85 384.448 256.284 383.463 256.847 382.931C260.962 378.957 263.136 373.857 262.589 366.958C261.775 356.93 256.065 347.981 246.491 340.91C236.463 333.526 221.632 331.821 211.447 334.652C213.278 334.84 215.75 335.325 216.594 335.622C219.504 336.655 219.285 337.484 216.219 337.875C213.841 338.188 208.537 338.751 206.269 339.533C208.991 339.737 212.402 340.222 213.81 340.629C215.765 341.207 216.078 342.256 213.7 342.412C212.073 342.521 207.599 342.881 205.675 343.304C216.422 343.366 225.324 346.745 234.147 354.396C246.538 365.128 249.4 390.534 242.407 399.201C242.126 399.545 235.336 407.524 235.821 406.929H235.852Z" fill="#0E141B"/>
<path d="M271.568 361.029C276.418 345.354 269.253 328.52 253.922 319.337C244.175 313.502 223.431 313.189 209.007 326.659C208.444 327.191 206.457 325.736 207.02 325.204C221.616 311.562 243.706 309.935 255.642 317.319C274.009 328.692 279.078 345.182 274.056 361.389C273.868 361.984 271.334 361.764 271.553 361.029H271.568Z" fill="#0E141B"/>
<path d="M276.215 327.362C272.742 317.115 261.196 308.573 252.686 307.259C240.843 305.429 231.691 308.042 221.804 315.739C221.194 316.224 220.349 316.161 219.879 315.551C219.41 314.941 219.52 314.065 220.13 313.58C230.705 305.366 239.842 302.785 252.529 304.678C261.478 306.008 273.696 313.877 277.654 325.548C277.904 326.283 276.418 327.941 276.23 327.347L276.215 327.362Z" fill="#0E141B"/>
<path d="M301.355 305.524C294.706 301.753 287.666 299.063 280.501 297.044C278.593 296.513 278.78 295.371 280.736 295.762C287.432 297.044 298.383 300.205 304.938 304.21C305.564 304.601 301.543 305.633 301.355 305.524Z" fill="#0E141B"/>
<path d="M477.588 410.888C482.767 405.209 485.051 398.216 486.552 393.585C487.554 390.535 488.32 388.032 489.478 387.14C503.98 375.923 526.101 362.782 542.747 353.786C543.435 353.426 544.28 355.601 543.592 355.961C527.04 364.909 506.765 379.02 492.341 390.159C491.872 390.535 490.557 393.523 489.947 395.4C487.882 401.736 483.549 408.338 479.153 412.186C476.196 414.768 474.694 414.048 477.588 410.872V410.888Z" fill="#0E141B"/>
<path d="M477.651 326.08C480.107 322.545 489.244 319.791 496.158 319.103C502.447 318.477 506.312 317.695 513.383 314.363C517.669 312.345 521.299 308.887 525.147 305.227C528.088 302.426 531.546 298.891 535.175 296.309C540.009 292.868 543.342 291.413 549.975 291.35C553.464 291.319 553.776 292.93 550.319 293.259C545.454 293.744 541.402 295.402 536.396 299.219C533.001 301.8 529.95 304.523 527.072 307.245C523.051 311.062 519.687 313.596 514.932 316.068C507.641 319.854 502.854 321.059 496.503 321.856C489.259 322.779 481.938 326.331 479.654 329.616C479.388 330.007 477.182 326.691 477.635 326.049L477.651 326.08Z" fill="#0E141B"/>
<path d="M536.38 296.623C537.177 290.146 539.634 278.46 541.73 272.734C542.324 271.107 543.138 271.248 544.28 272.358C547.331 275.3 550.475 278.757 552.79 281.604C553.275 282.199 552.008 285.281 551.555 284.639C548.801 280.697 545.25 276.598 543.435 274.705C542.121 280.384 540.948 287.893 540.353 294.339C540.291 295.058 536.27 297.389 536.364 296.623H536.38Z" fill="#0E141B"/>
<path d="M551.226 283.324C551.617 276.096 553.667 263.111 555.497 256.963C556.326 254.194 556.921 254.444 558.548 256.197C562.615 260.577 572.19 273.796 575.804 280.039C576.195 280.711 573.77 282.104 573.379 281.447C570.281 276.081 561.99 264.238 557.375 258.637C555.669 266.287 553.636 278.067 552.979 283.48C552.306 288.956 550.945 288.721 551.242 283.34L551.226 283.324Z" fill="#0E141B"/>
<path d="M593.059 302.457C589.242 288.111 586.191 279.303 579.855 268.712C579.136 272.31 577.337 277.348 574.849 282.542C572.675 287.11 571.235 286.687 573.175 281.947C575.256 276.863 576.836 271.637 578.166 266.475C578.979 263.315 579.777 264.144 580.919 266.084C587.474 277.301 593.028 290.692 596.72 303.849C596.923 304.6 593.231 303.067 593.075 302.457H593.059Z" fill="#0E141B"/>
<path d="M566.198 510.856C562.912 509.026 558.72 504.066 554.949 496.886C552.493 492.208 548.692 487.452 543.216 483.009C533.423 475.062 529.042 468.241 529.042 462.202C529.042 454.662 535.582 444.571 550.428 437.265C554.105 435.45 557.046 432.212 558.407 428.723C562.928 417.115 568.857 410.826 577.524 406.727C581.998 404.6 582.718 406.023 578.228 408.135C570.124 411.984 564.837 420.041 560.519 431.101C559.158 434.606 555.059 438 552.165 439.737C541.104 446.355 532.578 456.336 532.86 463.031C533.063 467.991 536.489 473.638 545.375 480.85C550.46 484.98 552.837 488.25 557.343 495.665C560.534 500.938 564.446 506.085 567.7 506.804C571.173 507.571 578.698 503.534 580.403 500.453C580.7 499.905 582.922 502.893 582.421 503.675C578.901 509.213 569.201 512.53 566.182 510.84L566.198 510.856Z" fill="#0E141B"/>
<path d="M584.157 490.282C579.073 490.282 573.707 487.169 570.735 484.462C561.661 476.218 562.49 469.585 566.088 463.656C569.108 458.712 577.258 448.606 584.329 440.064C588.444 435.089 592.324 430.396 594.311 427.564C596.219 424.826 596.923 422.261 596.673 415.893C596.563 413.296 597.893 413.469 598.331 415.878C599.098 419.992 599.192 425.64 597.173 428.503C595.124 431.428 590.618 436.826 586.473 441.847C579.495 450.28 571.595 459.838 569.154 464.735C565.713 471.618 567.027 476.312 573.472 481.85C578.244 485.949 586.176 489.578 594.811 483.727C609.094 474.043 625.208 464.985 636.988 458.008C642.589 454.676 643.809 456.35 638.208 459.682C626.475 466.644 610.628 476.406 596.391 486.058C591.948 489.078 588.35 490.282 584.157 490.282Z" fill="#0E141B"/>
<path d="M568.936 464.017C568.638 464.079 568.326 464.017 568.028 463.876C567.34 463.516 567.074 462.671 567.434 461.983C570.359 456.414 571.454 449.53 570.813 440.941C570.516 436.952 571.955 437.062 572.612 441.004C574.02 449.483 573.081 457.227 569.921 463.282C569.718 463.673 569.342 463.939 568.936 464.001V464.017Z" fill="#0E141B"/>
<path d="M568.732 462.826C567.997 462.826 567.387 462.263 567.34 461.512C567.184 459.009 563.194 454.738 559.471 453.956C555.92 453.205 556.764 451.641 560.331 452.407C564.993 453.393 569.906 457.413 570.14 461.356C570.187 462.122 569.608 462.795 568.826 462.842C568.795 462.842 568.764 462.842 568.732 462.842V462.826Z" fill="#0E141B"/>
<path d="M593.09 509.087C587.161 509.087 584.564 506.631 580.418 501.469C577.274 497.558 573.926 492.207 576.445 487.295C576.804 486.607 580.747 487.686 580.387 488.374C578.901 491.253 579.214 494.069 583.281 499.106C586.332 502.908 590.869 507.586 598.675 505.489C602.117 504.566 607.233 502.986 613.146 501.156C624.786 497.558 639.085 493.928 648.002 492.254C653.383 491.284 654.056 493.162 648.69 494.163C639.929 495.805 625.537 500.248 613.975 503.815C608.015 505.646 603.4 507.101 599.911 508.039C597.862 508.587 594.968 509.072 593.09 509.072V509.087Z" fill="#0E141B"/>
<path d="M612.505 537.074C606.044 537.074 599.912 535.447 596.392 531.505C593.247 527.969 592.825 521.414 594.577 518.458C594.968 517.785 597.377 519.209 596.986 519.881C595.938 521.665 596.517 526.029 598.895 528.689C604.229 534.649 614.508 535.041 628.932 530.207C638.35 527.062 650.505 517.034 656.231 507.851C656.638 507.194 659.642 506.255 659.313 506.959C654.448 517.237 640.9 529.471 629.464 533.414C621.407 536.198 615.884 537.09 612.521 537.09L612.505 537.074Z" fill="#0E141B"/>
<path d="M649.707 411.014C644.826 397.653 635.361 386.233 620.171 379.897C610.408 375.829 589.351 374.296 572.878 382.337C568.982 384.23 567.872 383.699 571.079 380.773C579.245 373.295 588.804 368.164 598.503 366.005C594.295 365.113 589.351 365.207 584.955 366.365C581.466 367.319 581.044 365.974 583.751 363.893C586.426 361.859 590.884 360.232 595.327 359.278C592.574 359.121 589.758 359.278 587.583 359.81C583.187 360.873 582.624 359.434 586.582 357.228C595.765 352.113 606.795 349.907 617.652 351.456C627.727 352.911 634.704 356.822 638.865 366.818C639.163 367.538 636.675 368.727 636.347 368.039C632.53 360.107 626.46 355.805 617.261 354.491C609.736 353.411 602.117 354.115 595.187 356.477C600.224 356.712 602.399 357.322 604.933 358.558C607.843 359.982 607.546 360.983 604.495 361.046C601.616 360.873 596.782 361.374 593.419 362.626C597.658 362.735 601.742 363.627 604.839 365.238C607.139 366.443 606.56 367.647 604.338 367.866C596.297 368.711 588.162 371.793 580.731 376.737C597.33 371.903 610.236 372.81 621.422 376.737C637.332 382.337 645.999 391.693 651.444 406.617C651.709 407.337 649.942 411.545 649.738 410.982L649.707 411.014Z" fill="#0E141B"/>
<path d="M546.924 396.151C546.627 385.169 547.565 374.515 550.491 366.787C555.45 353.708 564.368 345.511 577.509 340.395C588.178 336.233 598.848 336.452 606.732 339.096C602.79 336.687 598.629 335.498 592.809 335.702C591.025 335.764 590.509 334.888 592.543 334.121C595.015 333.183 597.565 332.713 600.396 332.698C596.626 330.946 592.762 330.21 588.053 330.304C586.238 330.304 585.487 329.632 587.74 328.724C589.93 327.848 592.324 327.441 594.968 327.488C588.335 324.844 576.554 325.267 565.306 330.852C555.137 335.905 546.83 343.821 543.686 357.979C543.717 358.433 542.716 352.848 542.841 352.425C545.141 344.775 551.054 334.951 564.367 328.662C579.261 321.606 593.544 323.436 599.16 328.02C600.475 329.1 600.146 329.757 598.519 329.459C597.095 329.24 595.766 329.131 594.498 329.131C598.003 329.757 601.163 331.008 604.417 333.011C606.107 334.043 606.247 334.747 603.916 334.513C601.757 334.278 600.224 334.2 598.363 334.419C603.556 335.217 606.826 337.063 609.564 339.628C610.847 340.833 610.487 341.646 608.703 341.052C601.961 338.815 590.212 338.111 579.073 342.929C565.963 348.577 557.374 355.632 553.01 368.555C550.507 375.923 548.911 388.689 549.38 403.864C549.38 404.318 546.94 396.542 546.924 396.12V396.151Z" fill="#0E141B"/>
<path d="M512.069 373.78C506.405 370.025 501.587 364.221 499.475 358.104C495.689 347.091 496.628 338.095 499.021 331.54C499.647 329.835 500.57 329.96 501.055 331.665C501.759 334.122 503.104 337.297 504.2 339.628C504.731 337.235 505.654 333.918 506.656 331.665C507.657 329.413 508.502 329.6 508.924 331.728C512.554 350.016 520.298 358.276 531.859 360.733C532.61 360.889 531.186 362.876 530.435 362.719C520.032 360.514 512.366 353.818 507.532 335.326C506.937 337.454 506.296 341.177 506.061 342.82C505.717 345.26 504.606 345.213 503.558 343.477C501.915 340.739 500.773 336.797 499.944 334.434C498.489 342.382 498.442 348.342 502.072 357.682C504.2 363.142 508.439 368.038 513.617 371.465C514.259 371.887 512.303 373.952 512.069 373.796V373.78Z" fill="#0E141B"/>
<path d="M487.491 398.028C479.873 398.028 467.639 390.597 457.814 369.806C457.485 369.102 460.505 367.428 460.755 368.163C465.026 380.303 478.089 394.633 487.163 394.633C487.163 394.633 488.32 398.028 487.538 398.044H487.491V398.028Z" fill="#0E141B"/>
<path d="M501.243 381.196C493.984 379.929 480.248 362.876 476.493 350.424C476.274 349.688 478.386 346.732 478.621 347.482C484.425 365.395 498.067 378.458 503.73 379.444C504.497 379.585 501.305 381.212 501.243 381.196Z" fill="#0E141B"/>
<path d="M534.33 347.67C519.828 341.381 514.775 326.613 515.839 313.55C515.901 312.783 518.733 312.83 518.639 313.597C517.341 324.798 522.143 338.862 532.531 344.166C531.436 341.897 530.685 339.957 530.341 338.377C529.809 335.937 530.544 335.765 532.641 337.376C533.235 337.83 534.377 338.69 535.034 339.206C528.276 326.237 527.854 309.388 534.377 297.42C534.753 296.748 537.084 297.17 536.708 297.843C529.919 310.28 531.233 330.07 539.775 342.601C540.948 344.322 539.696 344.4 538.288 343.962C537.96 343.868 536.129 343.274 534.33 342.132C534.768 343.618 535.379 345.057 536.051 346.09C537.616 348.515 536.724 348.702 534.33 347.67Z" fill="#0E141B"/>
<path d="M554.543 323.374C554.574 321.481 555.043 319.166 555.81 316.553C553.948 317.57 552.18 319.009 550.616 320.433C548.473 322.42 547.769 321.293 548.567 319.385C552.744 309.513 563.194 301.894 573.848 300.048C588.303 297.53 595.703 301.394 601.836 307.698C602.383 308.246 600.568 310.217 600.021 309.67C593.935 303.412 587.615 300.486 574.129 302.395C566.87 303.428 559.017 307.62 552.9 315.708C554.777 314.363 556.623 313.503 558.454 312.924C560.362 312.329 561.082 312.595 559.596 314.801C558.735 316.068 557.672 318.399 556.983 320.402C565.932 312.36 574.599 309.795 585.409 309.983C596.282 310.217 607.421 314.942 614.695 322.561C615.227 323.124 613.397 324.907 612.865 324.344C606.075 317.242 595.437 312.564 585.284 312.345C573.91 312.079 564.727 315.834 556.404 324.188C555.09 325.502 554.496 325.502 554.527 323.374H554.543Z" fill="#0E141B"/>
<path d="M517.122 490.424C517.028 489.626 514.337 489.954 514.415 490.752C515.98 505.301 510.645 521.9 496.346 538.905C482.297 555.613 466.105 566.064 445.502 574.684C446.879 572.431 448.114 570.147 449.21 568.066C450.946 564.75 450.79 563.764 447.301 566.111C443.28 568.833 438.79 571.352 435.192 572.76C446.566 561.918 455.499 550.858 461.021 541.095C462.382 538.671 461.631 538.06 459.269 539.437C456.343 541.127 453.105 542.347 449.835 543.395C471.503 524.888 487.569 505.301 496.643 485.871C505.31 467.332 506.656 449.592 501.712 435.543C501.477 434.855 498.552 433.087 498.802 433.775C511.005 468.537 482.376 513.984 443.593 545.57C441.2 547.525 441.09 548.918 444.438 547.916C448.662 546.68 452.401 545.538 456.046 543.896C449.163 554.424 438.18 566.674 429.873 574.277C427.104 576.811 428.403 577.625 431.14 576.796C436.037 575.278 439.932 573.823 444.235 571.398C443.171 573.245 442.013 575.122 440.777 576.843C438.697 579.753 439.839 580.065 442.326 579.111C465.527 570.084 484.347 559.196 499.397 540.814C514.681 522.15 518.78 505.88 517.122 490.455V490.424Z" fill="#0E141B"/>
<path d="M406.063 625.809C353.122 625.809 310.945 591.923 298.868 534.258C292.813 505.363 299.087 443.959 326.073 403.065C328.795 398.95 330.563 399.889 327.998 404.113C302.153 446.728 295.864 507.976 303.389 537.09C319.409 599.104 366.545 627.091 423.444 620.928C457.141 617.282 482.923 599.182 498.646 572.946C515.901 544.145 519.421 505.645 508.564 464.531C502.713 442.348 494.171 422.339 483.299 405.63C482.657 404.629 484.112 402.032 484.816 403.096C496.174 420.258 506.155 441.346 512.1 463.859C523.176 505.785 520.297 544.067 502.619 573.588C480.185 611.04 450.039 625.809 406.063 625.809Z" fill="#0E141B"/>
<path d="M551.257 715.764C554.543 715.342 558.329 718.283 562.099 726.293C563.444 729.109 564.993 731.44 567.355 732.316C571.235 733.755 575.005 736.79 575.756 738.386C578.995 745.269 582.734 769.455 579.088 777.465C576.914 771.739 562.177 759.286 554.527 756.251C549.036 754.093 545.062 752.888 541.37 753.185C533.72 741.921 544.546 718.815 551.273 715.748L551.257 715.764Z" fill="white"/>
<path d="M484.19 678.953C479.309 682.942 477.228 688.746 479.262 695.818C476.884 693.049 474.412 692.298 472.535 692.423C475.054 683.271 480.514 679.626 484.206 678.953H484.19Z" fill="white"/>
<path d="M503.542 672.899C489.353 673.853 479.638 679.642 478.417 689.341C477.651 695.442 482 701.137 491.308 707.786C492.92 709.679 493.498 714.732 494.202 717.564C499.209 737.604 515.197 748.195 539.806 751.684C533.736 740.357 543.998 715.811 550.225 715.811C554.589 715.264 557.484 718.972 561.833 726.575C564.351 730.986 566.98 732.707 570.891 734.084C574.02 735.179 575.615 738.402 576.116 740.467C577.149 736.618 579.573 736.102 582.53 735.633C577.321 736.431 575.803 733.865 575.318 732.394C572.455 723.461 576.851 710.696 587.552 705.783C588.725 705.048 590.65 705.408 593.325 706.894C590.618 696.913 585.456 693.346 571.532 689.998C558.86 687.307 552.618 681.973 548.285 678.813C541.511 673.869 515.526 672.07 503.511 672.883L503.542 672.899Z" fill="#FFE100"/>
<path d="M494.625 564.656C499.616 571.383 519.421 589.828 524.474 593.661C536.239 602.578 543.185 608.992 545.062 615.172C548.754 627.343 548.426 632.365 545.672 644.364C542.418 658.616 546.283 680.174 551.211 685.54C528.996 694.395 505.185 691.422 495.689 676.028C502.713 668.19 502.698 652.217 500.492 643.942C500.492 643.942 475.695 603.485 453.074 600.294C460.489 576.389 474.068 565.611 494.625 564.656Z" fill="#FFE100"/>
<path d="M494.688 635.853C493.045 621.585 498.614 610.681 511.802 604.783C521.095 600.622 529.7 599.151 538.148 604.783L509.237 580.394C503.01 577.562 491.434 578.579 483.283 586.495C475.821 593.723 473.38 604.251 475.617 612.058C482.094 619.52 489.056 625.966 494.688 635.853Z" fill="#515557"/>
<path d="M500.492 643.941C504.966 649.933 519.719 655.424 533.204 649.964C542.106 647.101 545.547 643.8 546.549 634.898C546.549 645.364 545.688 653.984 544.968 660.008C542.528 666.469 535.707 671.663 525.601 672.054C514.399 672.492 506.092 669.472 502.213 661.009L502.51 655.627L506.421 656.143L502.666 650.183L500.507 643.925L500.492 643.941Z" fill="#515557"/>
<path d="M512.554 652.03C501.728 650.387 498.098 643.926 492.185 634.399C492.185 634.399 478.59 616.924 471.847 611.292C464.604 605.238 460.865 603.314 453.434 601.624C448.24 600.435 449.679 598.292 454.904 599.277C463.399 600.889 467.607 603.267 473.615 607.882C480.827 613.435 494.578 632.349 494.578 632.349C500.226 640.547 503.057 647.086 513.007 650.325C513.743 650.559 512.726 652.093 512.538 652.061L512.554 652.03Z" fill="#0E141B"/>
<path d="M546.893 680.329C543.029 669.832 542.387 654.016 545.125 640.139C547.346 628.891 545.438 618.691 540.103 611.526C532.844 601.779 527.165 597.618 521.799 593.065C519.687 591.266 513.695 585.838 513.695 585.838C504.606 577.28 496.674 568.738 493.89 565.062C491.074 561.339 493.17 560.728 496.299 564.28C501.775 570.506 517.075 585.165 517.075 585.165C519.359 587.324 521.58 589.076 523.677 590.859C528.917 595.302 536.474 599.855 544.077 609.726C549.818 617.173 549.818 628.5 547.894 640.577C545.938 652.889 545.782 670.364 549.302 679.938C551.132 684.897 548.661 685.148 546.893 680.314V680.329Z" fill="#0E141B"/>
<path d="M494.594 674.745C498.192 671.82 499.616 668.816 500.116 662.042C500.46 657.458 500.195 651.56 498.614 643.19C498.474 642.424 502.479 644.145 502.619 644.911C504.059 652.561 503.808 657.239 503.198 663.2C502.51 669.833 501.368 672.086 496.346 676.184C491.512 680.111 489.494 678.906 494.61 674.761L494.594 674.745Z" fill="#0E141B"/>
<path d="M479.873 684.711C477.51 689.795 483.737 696.585 490.636 698.259C498.27 700.121 502.525 704.141 506.092 716.422C508.595 725.058 521.924 732.833 540.369 730.987C537.475 737.26 538.773 750.198 541.011 751.293C521.377 749.009 501.29 738.277 495.924 726.653C490.464 714.779 491.919 711.525 488.133 707.395C479.919 698.447 475.523 694.098 479.888 684.695L479.873 684.711Z" fill="#DDC300"/>
<path d="M473.161 692.281C474.569 689.215 476.806 686.728 479.309 685.82C477.839 688.84 477.714 692.97 478.918 695.661C476.712 693.267 474.209 692.062 473.161 692.266V692.281Z" fill="#DCDDDD"/>
<path d="M591.135 707.3C590.728 702.075 588.663 698.18 582.139 695.317C576.914 693.017 567.747 690.06 559.784 687.401C551.743 684.725 548.833 683.192 546.22 677.247C545.939 676.606 546.158 672.992 546.517 673.602C548.974 677.67 553.385 682.942 560.472 684.944C568.779 687.291 577.775 690.576 583.281 692.579C589.852 694.972 593.31 697.82 595.109 708.505C595.218 709.193 591.182 707.926 591.119 707.285L591.135 707.3Z" fill="#0E141B"/>
<path d="M538.272 749.823C532.875 748.493 525.382 746.303 520.751 744.613C515.682 742.705 512.193 740.655 508.032 737.495C501.008 732.286 498.192 726.873 497.253 724.182C492.419 710.337 490.135 706.394 483.877 701.169C478.636 696.413 478.918 692.862 479.669 688.7C480.967 681.395 487.053 676.795 496.533 675.325C498.583 674.996 499.13 671.789 498.489 671.977C497.691 672.211 496.815 672.383 495.845 672.54C485.316 674.182 478.652 680.143 477.166 688.528C476.165 694.145 476.556 698.071 481.515 702.499C488.383 708.756 490.229 712.464 494.813 726.403C497.003 733.068 503.37 740.186 512.71 745.505C519.859 749.572 534.268 753.922 541.792 755.079C541.839 755.079 538.961 749.995 538.272 749.823Z" fill="#0E141B"/>
<path d="M579.589 753.233C579.449 757.317 573.817 760.664 568.873 754.485C565.04 749.416 560.707 747.648 553.276 746.522C543.998 745.114 541.965 741.031 539.039 733.49C537.334 737.824 537.835 742.877 538.257 746.272C538.851 751.012 541.276 754.329 546.173 754.594C548.786 754.735 551.946 755.471 557.296 757.583C566.698 761.29 576.773 772.398 578.604 778.092C582.139 769.676 581.545 761.869 579.574 753.249L579.589 753.233Z" fill="#DCDDDD"/>
<path d="M478.683 696.789C477.948 695.255 475.382 693.816 472.707 693.425C471.972 693.316 471.769 693.065 471.909 692.252C472.598 688.654 475.711 680.221 483.815 677.577C484.487 677.358 484.487 680.503 483.799 680.644C478.621 681.614 474.553 688.262 473.959 691.548C477.682 692.518 478.151 692.58 479.028 694.395C479.34 695.036 478.918 697.274 478.683 696.804V696.789Z" fill="#0E141B"/>
<path d="M562.787 726.84C566.823 727.825 571.094 729.296 574.004 725.291C572.846 733.473 575.913 736.727 583.078 735.507C579.37 736.508 577.884 737.196 576.085 739.308C574.067 733.927 568.575 734.224 566.667 732.19C564.649 730.047 562.834 728.842 562.803 726.855L562.787 726.84Z" fill="#DDC300"/>
<path d="M577.227 778.186C574.161 769.613 562.756 760.602 556.06 758.286C553.808 757.504 547.738 756.253 545.297 755.94C541.84 755.502 539.775 754.751 538.351 750.636C537.131 747.085 536.787 741.375 537.538 736.431C538.977 727.014 544.922 718.722 548.958 715.296C551.179 713.419 552.494 713.685 554.261 714.435C557.641 715.89 560.378 720.803 562.428 724.151C565.697 729.47 567.888 731.128 569.155 731.644C574.255 733.709 577.18 735.665 578.119 737.98C583.454 751.106 582.969 770.004 579.996 778.03C579.058 780.564 578.103 780.72 577.196 778.186H577.227ZM540.729 735.336C540.072 738.168 539.853 744.989 541.136 749.041C541.84 751.262 544.265 752.326 546.611 752.639C549.005 752.952 554.934 754.516 557.719 755.58C567.246 759.225 575.397 767.391 578.463 774.854C581.31 763.527 578.15 743.049 575.037 738.622C574.302 737.573 572.534 736.04 567.669 733.647C564.321 732.004 562.381 728.828 560.316 725.48C556.029 718.472 553.62 717.987 552.181 717.877C549.615 717.69 543.044 725.449 540.745 735.336H540.729Z" fill="#0E141B"/>
<path d="M618.653 751.152C615.994 743.893 612.708 740.31 605.731 738.308C599.458 736.509 591.526 735.241 584.971 735.085C575.303 734.85 573.379 732.816 574.489 726.653C576.992 712.682 581.263 703.937 588.35 704.453C593.638 704.829 599.911 712.495 606.122 714.982C609.486 716.327 614.163 717.469 617.073 718.94C624.629 722.757 621.72 736.743 618.669 751.152H618.653Z" fill="white"/>
<path d="M621.344 729.39C620.781 735.163 617.746 736.758 610.987 733.457C602.258 729.139 596.579 728.514 587.615 728.326C581.686 728.201 577.415 725.307 576.492 719.002C571.892 732.597 573.723 735.272 586.332 735.491C596.782 735.679 607.311 737.415 613.444 741.952C615.258 743.282 616.995 745.91 618.731 750.181C621.047 742.312 621.641 737.212 621.344 729.405V729.39Z" fill="#DCDDDD"/>
<path d="M617.386 750.839C616.056 747.991 615.118 745.52 613.585 743.94C611.973 742.281 607.655 740.326 601.867 738.855C595.985 737.353 587.38 736.258 582.671 736.696C578.588 737.087 575.631 737.353 574.13 735.132C572.174 732.238 571.705 724.681 574.943 715.78C577.227 709.053 581.67 703.186 586.582 702.294C588.491 701.95 592.027 702.936 598.722 709.272C601.194 711.603 606.122 714.059 608.406 714.778C610.831 715.545 614.101 716.671 616.181 717.329C621.297 718.924 622.674 721.349 622.783 728.624C622.877 734.819 621.641 745.817 619.889 750.933C619.232 752.841 618.45 753.06 617.417 750.854L617.386 750.839ZM602.368 736.133C608.328 737.76 612.051 739.199 614.68 741.155C616.009 742.14 617.496 744.534 618.434 747.585C619.67 741.515 620.687 732.378 620.343 727.998C619.889 722.241 618.434 720.207 614.68 719.206C608.218 717.485 601.116 715.123 598.613 712.573C592.918 706.753 589.664 705.126 586.473 705.22C584.361 705.595 580.419 709.053 577.822 716.765C575.631 722.382 575.694 730.016 577.008 731.862C577.884 733.082 578.776 733.317 581.514 733.301C588.053 733.27 595.374 734.24 602.352 736.149L602.368 736.133Z" fill="#0E141B"/>
<path d="M474.115 610.385C472.003 601.592 475.226 589.39 485.927 582.757C498.192 575.153 508.548 576.561 512.929 581.317C513.445 581.881 511.818 583.914 511.255 583.398C506.296 578.767 497.816 578.986 487.585 584.853C477.776 590.469 474.459 603.689 476.368 611.605C476.556 612.356 474.272 611.057 474.115 610.385Z" fill="#0E141B"/>
<path d="M493.514 632.678C492.388 620.147 498.364 609.086 512.397 602.797C522.519 598.276 529.309 599.246 532.954 601.014C534.987 601.999 538.101 604.706 539.211 608.507C539.43 609.243 538.586 609.415 538.101 608.82C536.051 606.286 534.44 604.659 532.829 603.673C528.651 601.108 520.939 602.125 513.805 605.316C500.414 611.308 495.173 621.43 496.565 636.996C496.628 637.762 493.577 633.429 493.514 632.678Z" fill="#0E141B"/>
<path d="M500.273 646.663C499.725 646.132 501.665 644.113 502.228 644.661C507.97 650.246 519.468 652.452 529.59 649.902C540.322 647.195 546.689 641.642 546.236 634.304C546.189 633.538 548.285 633.397 548.332 634.164C548.864 642.878 542.575 649.698 530.278 652.624C518.78 655.362 507.187 653.422 500.273 646.679V646.663Z" fill="#0E141B"/>
<path d="M524.161 673.854C514.446 674.339 505.357 670.131 500.507 661.135C500.147 660.447 502.525 659.039 502.916 659.712C508.939 669.865 520.109 673.588 532.077 669.427C539.086 667.002 543.623 662.387 543.592 657.209C543.592 656.442 546.016 656.505 546.016 657.271C546.048 663.685 541.433 669.396 533.251 672.243C530.169 673.307 527.087 673.698 524.161 673.839V673.854Z" fill="#0E141B"/>
<path d="M529.246 637.903C528.761 636.621 527.15 634.649 525.789 633.679C523.677 632.178 525.288 629.893 527.416 631.395C529.011 632.522 530.388 635.04 530.826 637.152C531.42 639.921 530.185 640.375 529.23 637.903H529.246Z" fill="#0E141B"/>
<path d="M536.27 638.654C537.772 635.368 538.883 629.33 538.726 624.417C538.648 621.758 541.433 621.664 541.527 624.323C541.668 629.001 539.853 635.65 537.819 639.311C536.833 641.094 535.332 640.719 536.27 638.654Z" fill="#0E141B"/>
<path d="M507.046 654.862C506.295 653.735 504.043 648.917 503.683 647.915C503.464 647.305 501.759 649.386 501.978 649.996C502.306 650.919 503.949 653.532 504.825 654.564C504.324 654.439 503.198 653.892 502.697 653.579C502.322 652.75 501.008 654.955 501.227 655.566C501.555 656.489 502.165 657.365 503.026 658.397C502.51 658.256 501.649 657.787 501.242 657.38C500.789 656.927 500.507 659.555 501.07 659.899C501.461 660.134 502.854 660.462 504.23 660.572C506.123 660.713 506.202 660.165 505.185 658.616C504.919 658.225 504.356 657.443 503.855 656.457C504.434 656.567 505.263 656.676 506.014 656.755C507.891 656.958 508.063 656.442 507.046 654.893V654.862Z" fill="#0E141B"/>
<path d="M321.505 413.563C322.663 403.191 320.754 392.975 316.687 388.016C316.202 387.421 319.096 387.484 319.581 388.094C322.147 391.223 325.103 397.684 325.119 406.648C325.119 408.197 321.411 414.329 321.505 413.563Z" fill="#0E141B"/>
<path d="M307.613 377.361L302.669 401.36L317.547 390.534L307.613 377.361Z" fill="white"/>
<path d="M308.035 379.787C309.553 383.417 311.477 388.657 311.946 390.55C309.615 393.93 307.222 396.746 303.702 400.328L317.954 390.738L308.035 379.787Z" fill="#DCDDDD"/>
<path d="M301.449 401.845C302.278 396.354 304.155 387.17 306.08 378.832C306.987 374.89 309.24 377.314 308.364 381.022C306.909 387.217 305.485 393.944 304.531 399.029C307.472 396.964 310.929 394.023 315.388 390.377C316.968 389.079 318.955 390.956 317.218 392.349C312.682 395.962 308.301 399.78 303.217 403.19C302.028 403.988 301.152 403.863 301.449 401.845Z" fill="#0E141B"/>
<path d="M307.879 300.925C288.245 307.605 272.71 324.391 272.71 336.969C272.71 352.285 283.599 365.426 301.965 375.579C309.115 386.171 319.221 394.18 332.362 398.185C332.362 398.185 336.977 402.581 334.114 416.036C329.265 438.814 341.499 452.393 364.12 453.77C385.334 455.068 414.057 448.842 425.446 413.188C431.938 392.851 438.853 383.605 451.916 376.346C474.522 363.784 486.553 347.451 486.318 336.203C486.021 321.231 461.788 300.987 431.391 294.072C418.641 274.517 386.961 261.595 361.148 265.303C338.166 268.604 319.518 282.292 307.863 300.909L307.879 300.925Z" fill="#FFE100"/>
<path d="M274.525 345.541C280.955 356.914 291.468 364.455 299.243 367.662L303.686 376.313C286.884 369.211 276.966 355.287 274.51 345.525L274.525 345.541Z" fill="#DDC300"/>
<path d="M304.797 376.188C317.672 391.41 335.569 396.667 360.209 392.349C377.543 389.314 397.896 380.694 412.305 366.051C399.023 385.731 367.171 401.782 344.314 399.483C322.397 397.277 313.855 391.207 304.797 376.173V376.188Z" fill="#DDC300"/>
<path d="M321.114 288.111L322.96 297.999L326.887 289.817C325.51 304.726 329.358 330.695 339.183 344.055C351.182 327.253 375.978 303.521 390.293 295.746L388.212 301.988L400.571 296.684C378.763 321.23 353.638 355.022 339.746 380.475C327.7 363.58 322.225 347.701 320.05 335.936C316.358 315.88 317.171 297.451 321.082 288.096L321.114 288.111Z" fill="#515557"/>
<path d="M293.064 237.237C284.882 237.174 277.404 244.245 277.67 254.414C277.889 262.44 285.633 269.933 294.566 269.667C304.328 269.386 309.913 261.861 310.022 253.851C310.163 243.729 302.466 237.315 293.064 237.252V237.237Z" fill="#FFE100"/>
<path d="M307.472 247.045C308.724 253.303 306.846 261.438 300.683 264.723C295.285 267.602 288.808 268.227 283.177 264.989C287.635 270.605 297.648 270.167 302.153 267.414C309.928 262.658 311.289 253.49 307.472 247.061V247.045Z" fill="#DDC300"/>
<path d="M293.674 270.808C284.412 270.808 276.512 264.66 276.387 254.147C276.246 242.336 284.944 236.094 293.423 236.094C303.889 236.094 311.461 243.118 311.461 254.132C311.461 258.794 309.412 263.19 305.923 266.303C305.172 266.976 304.359 267.586 303.483 268.118C302.716 268.587 301.903 269.009 301.042 269.369C298.836 270.292 296.364 270.808 293.674 270.808ZM293.439 238.957C286.618 238.957 279.265 243.713 279.281 254.147C279.281 260.921 284.365 267.946 293.705 267.946C295.817 267.93 297.788 267.554 299.572 266.897C300.416 266.585 301.199 266.209 301.95 265.771C302.716 265.333 303.42 264.817 304.077 264.254C306.909 261.797 308.63 258.277 308.63 254.132C308.63 244.729 302.575 238.957 293.455 238.957H293.439Z" fill="#0E141B"/>
<path d="M300.104 267.994C306.236 276.786 312.416 285.062 314.137 291.366L323.023 282.778C318.063 279.367 310.132 271.795 304.625 264.849C299.603 258.889 295.864 261.877 300.104 267.994Z" fill="#FFE100"/>
<path d="M348.194 399.249C343.094 404.192 340.998 411.467 340.263 417.865C339.371 425.687 340.998 431.617 345.206 435.027C349.102 431.241 351.261 430.584 357.831 430.005C366.827 429.223 379.655 439.392 393.923 434.699C409.942 429.442 416.388 411.78 416.184 397.637L397.489 381.445C380.328 393.507 366.498 397.387 348.21 399.249H348.194Z" fill="#EE869A"/>
<path d="M341.843 411.389C352.684 408.103 364.23 408.479 374.023 411.154C385.49 414.283 395.8 421.198 402.855 429.708C410.036 423.247 415.48 410.763 416.184 397.637L397.489 381.445C383.503 392.631 363.526 399.687 347.349 399.108C344.674 401.548 342.093 408.197 341.843 411.389Z" fill="#CF7487"/>
<path d="M338.244 411.279C335.804 425.969 337.932 431.883 342.985 434.808L344.095 433.541C339.84 429.067 338.354 417.208 343.141 406.367C343.673 402.174 341.217 398.951 337.932 398.466L330.485 397.246C333.238 399.452 334.333 402.237 334.928 405.225C337.306 405.522 338.651 408.792 338.244 411.263V411.279Z" fill="#DDC300"/>
<path d="M428.935 373.685C425.461 372.794 421.144 372.246 418.249 372.278L417.89 367.396L428.935 373.685Z" fill="#DDC300"/>
<path d="M370.894 434.434C367.39 433.119 363.729 431.524 356.939 431.524C352.715 431.524 350.572 433.245 348.757 434.527C347.318 435.544 345.832 436.608 343.72 436.248C341.639 435.904 340.059 434.825 338.604 431.852C337.384 429.38 338.62 428.52 340.075 430.867C340.841 432.118 342.015 433.151 343.845 433.464C344.721 433.62 345.769 433.119 347.099 432.181C350.259 429.944 353.326 428.301 357.08 428.301C362.65 428.301 365.7 429.083 371.708 431.336C376.698 433.213 383.488 435.106 390.543 433.964C404.154 431.743 412.711 419.759 414.651 397.591C414.714 396.809 417.921 398.686 417.827 399.468C414.823 422.247 406.704 433.917 390.34 436.577C383.942 437.625 377.512 436.921 370.894 434.434Z" fill="#0E141B"/>
<path d="M416.31 380.662C416.466 376.47 416.184 371.808 415.559 367.834C415.434 367.052 418.265 366.614 418.39 367.396C419.047 371.526 419.188 378.003 419.032 382.367C419 383.165 416.278 381.46 416.31 380.662Z" fill="#0E141B"/>
<path d="M340.732 399.123H348.507L342.281 407.946L340.732 399.123Z" fill="#933000"/>
<path d="M345.456 435.982C345.175 435.982 344.878 435.888 344.627 435.716C337.947 430.96 338.291 420.964 339.871 413.533C340.356 411.264 341.185 408.088 341.201 406.586C341.248 402.503 339.997 400.61 337.634 398.905C336.993 398.436 338.682 397.513 339.339 397.951C343.501 400.767 344.001 403.02 343.595 407.463C343.438 409.121 342.703 411.78 342.312 413.986C341.279 419.884 340.982 429.615 346.27 433.385C346.911 433.839 347.068 434.746 346.598 435.388C346.317 435.779 345.879 435.982 345.425 435.982H345.456Z" fill="#0E141B"/>
<path d="M341.029 409.747C341.968 404.819 343.798 400.939 347.318 397.841C347.913 397.325 349.806 399.468 349.211 399.985C346.583 402.3 344.314 406.164 343.172 410.075C342.969 410.748 340.888 410.513 341.029 409.747Z" fill="#0E141B"/>
<path d="M304.39 379.098C280.892 365.191 270.16 349.218 271.365 335.451C272.648 320.792 288.871 305.476 307.003 298.906C307.738 298.64 307.816 301.581 307.081 301.862C286.9 309.184 274.994 324.343 273.665 335.529C272.617 344.337 280.705 361.092 301.887 374.061C302.56 374.468 304.625 379.239 304.39 379.098Z" fill="#0E141B"/>
<path d="M397.411 381.962L413.603 365.441L422.411 402.456L397.411 381.962Z" fill="white"/>
<path d="M400.446 382.571C402.887 381.007 408.112 378.441 411.037 377.111C413.494 382.086 418.422 394.508 420.972 400.86L413.697 365.941L397.49 381.429L400.446 382.571Z" fill="#DCDDDD"/>
<path d="M339.746 400.343C320.817 398.137 307.378 388.767 299.587 370.416C297.96 366.599 299.196 365.816 301.074 369.508C309.662 386.42 321.568 394.915 339.699 397.027C361.539 399.577 393.203 389.611 411.538 365.629C411.992 365.034 412.727 364.424 413.697 364.706C419.204 366.301 424.163 368.93 427.683 371.307C430.984 373.545 430.515 374.749 427.073 372.934C422.567 370.572 417.452 368.664 412.868 367.725C394.282 391.442 362.321 402.987 339.731 400.343H339.746Z" fill="#0E141B"/>
<path d="M421.66 403.769C412.805 396.573 405.312 391.113 397.192 383.009C396.629 382.446 398.897 380.678 399.445 381.242C405.578 387.39 411.616 391.754 420.189 398.81C418.421 388.031 415.293 375.922 412.711 367.412C412.477 366.661 415.559 366.52 415.793 367.271C418.969 377.753 421.832 392.255 423.209 402.815C423.428 404.473 422.88 404.739 421.66 403.754V403.769Z" fill="#0E141B"/>
<path d="M481.766 323.311C486.349 344.008 479.716 355.397 443.797 370.509C431.954 375.5 425.837 384.824 424.601 397.136C421.316 429.786 404.827 444.038 382.518 448.058C366.42 450.953 352.794 449.263 339.715 441.957C346.505 451.86 359.208 456.866 379.405 454.473C392.953 452.877 405.906 446.244 413.791 435.574C425.18 420.149 427.527 399.045 439.291 386.576C451.384 373.732 481.531 360.106 485.442 345.385C487.789 336.499 486.647 328.051 481.766 323.295V323.311Z" fill="#DDC300"/>
<path d="M362.869 455.584C351.323 454.239 342.077 449.201 337.149 442.521C332.221 435.825 330.5 426.486 333.723 410.466C334.615 406.023 332.863 400.344 327.387 397.246C326.699 396.855 328.686 394.822 329.374 395.197C336.164 399.03 336.93 405.741 335.929 411.17C333.52 424.155 334.787 434.104 339.699 440.769C344.205 446.87 351.683 450.453 362.556 451.72C390.23 454.927 412.07 443.569 422.207 417.647C433.534 388.642 439.729 382.869 452.354 374.875C473.098 361.702 484.769 348.186 484.362 337.172C483.721 319.932 461.647 301.597 432.83 295.652C432.048 295.496 431.156 292.461 431.923 292.617C467.873 300.033 487.992 320.527 488.602 336.828C489.181 352.316 469.438 367.945 453.887 377.3C441.043 385.028 433.002 397.168 424.883 418.71C415.997 442.239 395.471 459.386 362.9 455.6L362.869 455.584Z" fill="#0E141B"/>
<path d="M298.868 315.833C307.065 288.784 332.221 266.725 362.916 263.956C396.441 260.937 426.588 276.519 439.792 305.476C441.935 310.154 440.214 310.576 438.04 306.149C425.508 280.618 396.832 264.879 364.073 267.836C334.505 270.496 309.459 290.693 301.59 316.662C299.353 324.124 296.537 323.42 298.852 315.833H298.868Z" fill="#0E141B"/>
<path d="M307.769 348.295C307.644 358.714 308.458 365.425 309.662 369.102C312.932 372.669 318.83 375.61 326.277 377.738C320.175 363.877 313.714 353.239 307.769 348.295Z" fill="white"/>
<path d="M361.46 377.942C371.207 365.958 382.737 354.209 394.314 347.764C396.676 354.772 397.176 366.021 395.753 370.135C386.695 374.844 370.315 377.942 361.445 377.942H361.46Z" fill="white"/>
<path d="M362.556 377.957C369.298 367.209 385.021 352.503 394.298 348.201L395.44 353.067C386.883 358.198 372.271 369.524 362.556 377.941V377.957Z" fill="#DCDDDD"/>
<path d="M307.769 348.295C314.152 355.022 322.193 365.723 325.604 376.674C319.08 367.006 314.559 361.264 308.192 355.601L307.769 348.295Z" fill="#DCDDDD"/>
<path d="M360.678 376.423C366.999 367.615 383.723 353.191 396.504 344.962C401.354 341.864 402.292 343.648 397.552 346.871C382.236 357.305 372.552 367.161 363.573 377.158C360.788 380.24 358.426 379.551 360.678 376.423Z" fill="#0E141B"/>
<path d="M395.628 362.453C395.08 358.135 393.923 352.456 392.718 349.453C392.389 348.639 394.517 346.903 394.783 347.748C396.363 352.738 397.239 359.246 397.333 362.422C397.427 365.817 396.081 365.895 395.643 362.453H395.628Z" fill="#0E141B"/>
<path d="M361.179 376.815C364.417 376.815 370.472 376.471 373.444 376.174C377.277 375.783 377.261 376.956 373.694 377.551C371.911 377.848 366.842 378.865 360.694 379.162C360.272 379.178 360.256 376.831 361.195 376.831L361.179 376.815Z" fill="#0E141B"/>
<path d="M324.274 375.282C320.066 366.584 312.744 354.945 306.346 348.014C303.311 344.713 304.077 343.493 307.175 346.465C313.996 353.036 321.646 364.66 325.917 373.968C328.654 379.944 326.902 380.711 324.274 375.282Z" fill="#0E141B"/>
<path d="M307.597 362.593C307.05 358.447 306.956 352.956 307.253 347.919C307.3 347.011 308.911 348.623 308.864 349.515C308.552 355.35 308.552 359.12 308.771 362.75C308.99 366.567 308.067 366.098 307.597 362.578V362.593Z" fill="#0E141B"/>
<path d="M326.84 378.722C324.008 378.3 320.019 376.907 317.516 375.343C315.341 373.998 315.701 373.575 317.672 374.185C320.379 375.061 323.899 375.828 325.479 375.797C326.245 375.797 326.949 378.738 326.855 378.722H326.84Z" fill="#0E141B"/>
<path d="M334.067 394.478C333.442 393.852 332.675 392.46 332.253 390.598C332.018 389.597 332.863 389.299 333.301 390.238C333.848 391.427 334.896 392.71 335.616 393.57C336.743 394.916 335.147 395.573 334.052 394.478H334.067Z" fill="#0E141B"/>
<path d="M342.594 393.507C342.953 392.334 343.908 391.207 345.378 390.582C346.927 389.909 347.287 390.644 346.129 391.646C345.097 392.537 344.737 393.1 344.268 394.289C343.611 395.916 342.077 395.228 342.594 393.507Z" fill="#0E141B"/>
<path d="M450.446 264.66C450.446 264.66 420.972 285.623 407.909 291.662L419.845 304.616C419.845 304.616 443.327 279.632 455.264 270.824C464.494 275.048 472.254 274.359 478.042 269.791C484.597 264.613 485.786 250.596 477.526 243.431C469.876 236.782 461.741 237.501 454.748 242.398C448.787 246.575 445.784 256.056 450.446 264.66Z" fill="#FFE100"/>
<path d="M451.666 266.194C459.66 271.059 469.813 270.871 475.007 266.256C479.982 261.829 481.938 254.007 479.528 247.092C484.269 251.957 483.877 262.971 478.637 268.368C471.284 275.94 458.377 275.971 451.666 266.194Z" fill="#DDC300"/>
<path d="M452.198 268.963C440.762 277.035 425.633 290.255 418.343 300.502C416.341 303.318 419.235 305.946 421.832 302.77C424.851 299.063 448.928 274.673 454.701 270.825L452.198 268.947V268.963Z" fill="#DDC300"/>
<path d="M409.598 289.457C424.273 281.886 435.834 274.282 450.18 263.816C450.821 263.347 452.511 265.662 451.869 266.132C436.632 277.255 423.209 285.687 410.881 291.46C406.188 293.666 404.451 292.101 409.614 289.457H409.598Z" fill="#0E141B"/>
<path d="M420.768 301.332C427.198 293.713 445.408 276.207 453.825 268.87C454.419 268.353 456.297 270.528 455.686 271.044C446.456 278.929 425.571 299.345 422.677 302.693C418.813 307.151 417.577 305.118 420.768 301.332Z" fill="#0E141B"/>
<path d="M468.358 275.032C456.515 275.955 447.989 269.166 447.129 258.137C446.237 246.716 453.574 238.034 464.995 237.236C475.116 236.532 483.627 245.121 484.394 254.961C485.238 265.802 478.496 274.25 468.358 275.032ZM465.229 239.817C455.342 240.584 449.335 248.375 450.117 258.262C450.852 267.727 457.798 273.218 468.077 272.404C476.556 271.747 482.25 264.363 481.531 255.18C480.889 246.967 472.832 239.223 465.229 239.817Z" fill="#0E141B"/>
<path d="M348.007 299.468C331.971 277.801 332.331 224.861 350.165 179.633C353.044 192.43 357.737 241.271 356.83 270.996C361.273 229.554 377.559 183.857 391.607 163.77C397.99 197.577 384.395 264.863 364.042 287.751L348.007 299.468Z" fill="#FFE100"/>
<path d="M350.306 181.512C346.473 202.569 342.594 226.677 342.594 247.844C342.594 270.09 346.63 289.066 350.948 297.827C351.245 298.422 352.027 298.563 352.543 298.14C353.842 297.061 355.234 294.495 355.86 292.805C356.673 269.855 356.814 249.267 356.048 235.391C355.062 217.822 353.247 199.988 350.306 181.512Z" fill="#DDC300"/>
<path d="M391.576 164.709C373.616 213.566 365.872 244.292 359.583 285.202C358.785 290.411 360.819 291.115 364.949 286.203C372.521 277.16 383.472 249.235 389.339 222.343C392.937 205.838 393.344 177.506 391.576 164.709Z" fill="#DDC300"/>
<path d="M364.292 285.294C373.444 272.763 382.283 249.438 386.82 227.927C390.528 210.358 392.53 184.842 391.294 165.365C384.286 178.538 377.027 194.855 371.395 212.627C363.76 236.703 359.427 259.622 357.362 284.199C356.924 289.409 356.095 288.11 356.095 282.885C356.095 261.437 360.71 234.842 367.797 212.501C374.101 192.602 382.69 175.471 390.637 161.438C391.889 159.233 392.968 159.702 393.313 162.017C396.285 182.23 394.048 209.247 389.98 228.537C384.661 253.74 375.056 275.783 365.935 286.358C363.229 289.503 361.821 288.705 364.308 285.326L364.292 285.294Z" fill="#0E141B"/>
<path d="M346.473 298.655C338.088 287.282 333.676 269.525 334.599 244.401C335.428 221.685 340.231 200.925 348.898 178.366C349.743 176.16 350.854 176.176 351.386 178.522C354.092 190.49 356.783 212.611 357.706 237.423C358.504 259.263 357.847 275.22 357.127 291.208C356.908 296.105 354.812 295.964 355.031 291.068C355.672 276.518 355.656 261.218 354.843 237.486C354.123 216.522 352.262 194.558 349.884 183.059C341.858 205.978 338.197 226.91 337.619 243.665C336.664 271.121 341.373 286.859 348.069 297.607C349.79 300.376 348.257 301.08 346.473 298.686V298.655Z" fill="#0E141B"/>
<path d="M338.119 380.491C316.061 349.687 312.4 310.311 319.925 287.611C320.691 285.311 321.927 286.297 322.006 287.673C322.178 289.864 322.772 293.024 323.179 295.12C323.836 293.649 325.416 290.661 325.901 289.645C327.09 287.141 327.903 288.268 327.872 290.114C327.559 310.796 331.142 326.221 338.87 341.631C354.577 320.589 378.262 301.3 390.121 293.947C392.342 292.57 393.172 293.196 392.248 295.057C391.419 296.716 390.199 299 389.698 300.298C392.952 298.593 397.959 296.027 400.477 295.198C402.636 294.479 403.059 295.73 402.042 296.935C383.018 319.447 358.504 353.692 341.373 380.585C340.403 382.118 339.277 382.149 338.104 380.507L338.119 380.491ZM320.691 291.099C314.387 318.665 322.725 353.88 339.371 377.878C357.721 349.453 378.826 321.449 396.723 299.156C393.86 300.486 390.402 302.269 388.353 303.38C386.398 304.444 385.6 304.225 386.632 301.534C387.055 300.361 387.477 298.984 387.868 297.967C372.13 309.341 355.156 325.36 339.934 345.62C339.089 346.746 338.416 347.09 337.525 345.448C330.5 332.479 325.353 313.393 325.698 295.464C325.275 296.137 324.399 297.842 324.039 298.499C323.022 300.267 322.459 299.845 321.959 298.374C321.333 296.559 320.754 293.712 320.676 291.115L320.691 291.099Z" fill="#0E141B"/>
<path d="M372.959 365.238C373.116 369.869 373.882 371.731 374.649 371.7C375.478 371.668 376.119 369.118 375.76 363.549L372.959 365.238Z" fill="#0E141B"/>
<path d="M320.238 365.128C320.613 368.46 320.191 370.791 319.628 370.869C319.018 370.963 318.048 367.537 317.766 361.311L320.254 365.128H320.238Z" fill="#0E141B"/>
<path d="M312.854 292.477C311.884 288.503 306.612 279.211 298.852 268.041C296.615 264.818 298.07 263.942 300.479 267.055C310.882 280.525 315.419 287.705 316.139 290.725C316.327 291.491 312.994 293.071 312.854 292.477Z" fill="#0E141B"/>
<path d="M322.475 284.514C318.939 282.495 314.512 278.146 303.373 265.537C300.307 262.064 301.887 261.078 305 264.504C313.918 274.298 321.333 280.086 324.681 281.385C325.416 281.666 322.71 284.639 322.491 284.514H322.475Z" fill="#0E141B"/>
<path d="M652.617 410.857C648.033 392.209 644.075 376.455 635.283 358.01C619.858 325.658 606.591 309.857 592.73 300.157C586.175 295.558 584.767 297.185 591.213 301.957C604.776 312.032 616.525 328.521 632.373 359.981C638.161 371.48 645.765 393.382 649.707 411.029C672.907 454.598 672.157 483.931 663.177 497.338C654.744 509.979 637.223 519.866 621.938 522.166C610.768 523.84 599.145 521.744 594.952 516.456C593.309 514.375 592.386 510.495 592.245 507.617C592.214 506.866 589.742 506.224 589.461 507.366C588.913 509.525 590.681 516.644 592.026 518.333C595.797 523.073 605.965 525.717 613.631 525.717C615.962 525.717 620.217 525.279 622.361 524.951C639.022 522.401 658.155 511.841 665.899 499.591C675.129 487.905 676.6 456.476 652.648 410.872L652.617 410.857Z" fill="#0E141B"/>
<path d="M556.295 433.729C543.42 394.524 539.055 369.149 543.091 335.639C543.592 331.462 545 330.868 544.656 335.045C541.84 369.916 547.769 397.904 559.158 430.178C559.408 430.913 556.451 434.245 556.279 433.729H556.295Z" fill="#0E141B"/>
<path d="M575.303 738.309C575.303 735.681 576.758 734.883 579.949 734.163C580.669 734.007 582.311 736.557 581.592 736.713C580.888 736.87 579.558 737.527 578.995 738.106C578.744 738.371 577.524 739.811 577.571 740.781C577.602 741.516 575.303 739.013 575.303 738.309Z" fill="#0E141B"/>
</g>
<defs>
<clipPath id="clip0_42_69955">
<rect width="569.735" height="620" fill="white" transform="translate(115 160)"/>
</clipPath>
</defs>
</svg>
