<svg width="800" height="800" viewBox="0 0 800 800" fill="none" xmlns="http://www.w3.org/2000/svg">
<g clip-path="url(#clip0_42_70548)">
<path d="M461.279 629.081C455.985 638.013 435.453 637.225 428.819 627.846C428.438 629.186 426.245 640.483 425.942 644.962C434.244 651.373 457.732 654.604 464.458 646.315C466.139 643.859 463.42 635.202 461.279 629.081Z" fill="#005E97"/>
<path d="M388.176 404.018C388.268 317.425 442.415 308.913 461.804 277.268C408.471 299.231 363.073 358.909 348.754 367.316C323.362 382.252 296.906 383.986 285.477 422.304C280.275 439.762 285.779 462.855 285.438 470.303C284.453 491.229 274.285 522.717 266.614 538.06C264.696 541.895 264.052 545.679 265.721 551.866C271.461 573.199 271.461 603.136 261.78 626.978C259.402 632.837 258.811 638.656 262.331 642.873C266.64 648.035 300.663 649.914 302.147 638.827C302.699 634.715 298.364 625.586 297.549 619.175C295.303 601.612 296.157 581.908 306.6 560.286C309.622 554.033 324.229 541.186 332.347 533.16C340.019 524.45 350.882 525.107 358.58 522.375C368.077 527.419 378.402 530.546 388.662 531.583C386.14 547.544 398.908 578.755 399.775 590.276C402.389 625.047 384.787 652.961 384.393 659.95C383.933 668.147 385.26 672.416 389.056 675.634C399.985 684.882 416.996 686.459 426.349 678.275C428.07 676.777 424.037 649.494 427.505 633.152C430.606 618.532 438.619 607.878 443.111 591.747C447.196 577.1 456.208 568.023 458.966 553.744C454.159 539.124 445.213 526.224 435.269 512.878C416.668 487.906 388.123 459.65 388.189 404.005L388.176 404.018Z" fill="#D07100"/>
<path d="M301.28 641.166C295.382 650.65 266.154 647.445 262.331 642.874C261.399 646.985 259.941 656.64 260.978 658.795C266.666 671.681 297.786 673.1 304.183 658.44C304.958 655.695 303.159 649.218 301.293 641.179L301.28 641.166Z" fill="#005E97"/>
<path d="M423.552 680.442C412.701 687.654 391 681.926 386.258 671.785C384.222 681.178 383.578 691.581 385.089 694.905C391.04 710.3 421.542 711.719 427.388 705.125C430.159 702.09 426.232 688.021 423.539 680.442H423.552Z" fill="#005E97"/>
<path d="M455.551 596.503C455.683 586.716 459.124 573.042 461.581 564.214C460.95 560.628 460.07 557.147 458.967 553.758C456.208 568.037 447.184 577.101 443.111 591.761C440.721 600.339 433.391 611.478 428.819 627.846C435.453 637.225 455.985 638.013 461.279 629.08C461.344 628.975 461.41 628.883 461.463 628.778C463.381 625.218 455.354 611.005 455.551 596.516V596.503Z" fill="#D07100"/>
<path d="M672.376 306.444C669.959 304.303 667.792 305.564 668.79 308.73C674.202 326.069 673.611 337.143 668.501 345.984C661.973 357.268 645.92 362.85 632.075 365.241C639.089 374.804 641.559 393.734 640.928 402.403C697.598 392.643 709.722 339.508 672.39 306.444H672.376Z" fill="#BBD4EF"/>
<path d="M628.344 648.666C624.784 639.891 613.461 601.218 613.29 594.887C613.106 588.253 613.697 582.381 612.673 578.033C611.675 573.803 607.537 569.284 606.394 564.844C604.949 559.248 606.932 551.262 605.632 530.809C594.506 541.318 583.156 551.078 573.146 560.851C574.289 557.738 577.179 550.119 577.389 545.863C572.332 553.613 560.483 564.161 549.002 571.018C558.591 582.013 577.034 597.383 583.314 604.213C588.726 616.837 591.235 652.449 596.555 660.436C601.652 668.068 621.579 671.076 631.234 664.101C634.19 661.96 632.036 657.73 628.371 648.679L628.344 648.666Z" fill="#D07100"/>
<path d="M632.364 662.722C628.909 670.105 602.991 670.052 596.541 660.41C595.701 668.371 594.873 677.487 596.41 679.957C602.255 689.704 631.562 691.648 639.536 684.187C642.465 681.533 636.068 668.423 632.364 662.722Z" fill="#005E97"/>
<path d="M268.545 120.055C268.545 122.183 266.561 127.332 264.617 129.605C267.166 113.552 248.328 89.5393 224.815 91.1945C234.811 95.6082 237.728 107.05 237.531 118.202C235.205 112.83 230.004 107.286 224.092 105.526C229.465 115.746 231.278 124.876 227.495 135.463C223.015 147.995 234.522 161.394 242.759 164.048C243.048 161.854 243.297 159.581 243.508 157.217C243.902 152.842 250.68 153.328 250.351 157.571C250.181 159.818 249.97 161.985 249.734 164.113C264.276 161.026 279.54 140.902 268.545 120.041V120.055Z" fill="#005E97"/>
<path d="M302.292 382.895C292.387 375.631 281.116 369.194 269.202 362.508C240.066 346.18 219.56 333.201 212.546 306.496C206.95 285.176 211.889 264.421 225.787 234.47C244.191 194.786 248.565 181.65 250.365 157.571C250.693 153.276 243.915 152.789 243.521 157.216C240.893 186.09 235.994 195.14 219.994 229.649C206.923 257.826 199.239 282.956 206.293 310.226C213.662 338.732 233.472 351.001 268.19 370.482C281.038 377.68 294.187 385.063 304.223 392.826C304.932 392.143 305.668 391.473 306.417 390.83C304.893 388.15 303.527 385.496 302.292 382.869V382.895Z" fill="#49322A"/>
<path d="M160.093 168.448C161.288 170.3 163.022 175.502 163.075 175.752C191.83 174.977 216.907 179.745 236.506 191.857C237.189 189.794 237.846 187.679 238.463 185.486C217.419 172.849 190.661 167.384 160.106 168.448H160.093Z" fill="#49322A"/>
<path d="M162.93 175.003C160.815 166.937 150.793 157.979 137.486 160.251C117.768 163.601 101.979 177.985 107.85 204.651C106.786 214.057 110.228 221.242 111.318 223.292C116.731 210.444 132.862 198.911 137.67 196.954C133.952 202.431 132.1 212.218 138.563 216.474C138.379 211.101 139.614 203.666 148.244 201.236C164.914 196.559 164.086 179.391 162.93 174.99V175.003Z" fill="#005E97"/>
<path d="M464.287 276.256C465.574 278.515 466.375 280.709 466.848 282.443C468.162 280.788 471.892 276.44 475.754 272.381C472.116 273.432 467.886 274.864 464.287 276.256Z" fill="#D07100"/>
<path d="M476.148 162.998C475.281 166.886 474.48 168.935 472.707 171.641C472.392 148.889 453.252 131.392 438.238 130.945C448.549 148.101 439.42 155.497 441.009 167.359C437.975 162.236 436.963 158.177 436.425 153.566C433.088 159.057 433.942 170.262 437.226 177.185C431.262 173.769 425.758 173.914 423.972 174.991C434.257 179.72 433.417 186.367 439.63 194.931C446.067 203.812 455.984 208.514 464.891 204.731C484.884 196.258 485.278 175.818 476.135 162.984L476.148 162.998Z" fill="#005E97"/>
<path d="M454.527 205.387C450.297 216.894 442.245 226.799 430.921 233.406C398.856 252.086 358.817 243.6 323.953 276.125C283.639 313.734 288.749 359.881 306.417 390.856C306.811 390.514 307.192 390.173 307.599 389.831C309.188 388.505 310.778 387.336 312.354 386.258C285.018 340.505 310.108 300.059 324.978 284.217C356.846 250.26 402.849 257.117 431.657 240.776C446.396 232.421 456.182 220.979 461.082 205.755C459.019 206.03 456.799 205.912 454.527 205.387Z" fill="#49322A"/>
<path d="M293.425 344.446C282.758 309.005 292.689 264.263 276.492 228.546C269.018 212.06 258.207 199.121 244.663 189.531C244.02 191.738 243.337 193.906 242.614 196.007C254.016 204.506 263.238 215.882 269.845 230.595C288.052 271.212 265.511 321.353 299.862 377.26C295.29 365.726 293.412 354.718 293.425 344.459V344.446Z" fill="#49322A"/>
<path d="M613.146 351.632C599.904 344.709 588.66 348.886 576.654 349.477C570.703 349.779 551.537 346.6 542.644 348.623C536.299 350.068 522.73 354.298 517.882 363.48C533.252 364.518 527.932 424.156 513.035 422.252C513.364 433.102 516.569 441.969 524.201 449.851C527.918 453.686 534.092 461.397 537.639 470.829C541.935 482.257 543.682 501.725 550.184 502.553C546.834 496.024 551.537 486.33 560.575 486.33C565.764 486.33 574.026 492.385 582.696 492.385C588.568 492.385 595.491 487.131 599.629 486.697C604.213 486.211 608.574 492.753 607.734 498.1C610.44 490.336 611.018 469.896 617.034 460.254C623.891 449.286 633.927 433.522 634.177 415.789C634.4 399.605 629.553 360.196 613.133 351.618L613.146 351.632Z" fill="#D07100"/>
<path d="M629.172 361.222C627.635 359.935 624.088 359.133 621.29 358.766C630.144 372.204 634.728 397.964 634.807 414.213C637.526 411.717 639.72 406.647 640.311 405.044C643.346 396.939 637.92 368.539 629.159 361.222H629.172Z" fill="#BBD4EF"/>
<path d="M599.655 486.712C595.517 487.145 588.594 492.399 582.722 492.399C574.052 492.399 565.79 486.344 560.601 486.344C550.342 486.344 545.862 499.743 552.417 505.181C559.077 510.711 575.76 513.26 581.973 512.826C596.581 511.828 607.063 502.554 607.76 498.101C608.6 492.754 604.239 486.212 599.655 486.698V486.712Z" fill="#49322A"/>
<path d="M583.51 410.928C576.837 410.928 571.399 416.353 571.399 423.039C571.399 429.726 576.824 435.151 583.51 435.151C590.197 435.151 595.622 429.726 595.622 423.039C595.622 416.353 590.197 410.928 583.51 410.928Z" fill="#BBD4EF"/>
<path d="M576.141 391.88C576.141 394.823 578.532 397.213 581.474 397.213C584.417 397.213 586.808 394.823 586.808 391.88C586.808 388.938 584.417 386.547 581.474 386.547C578.532 386.547 576.141 388.938 576.141 391.88Z" fill="#BBD4EF"/>
<path d="M579.189 375.894C581.369 375.894 583.143 374.121 583.143 371.94C583.143 369.76 581.369 367.986 579.189 367.986C577.008 367.986 575.235 369.76 575.235 371.94C575.235 374.121 577.008 375.894 579.189 375.894Z" fill="#BBD4EF"/>
<path d="M519.761 363.808C514.743 362.298 506.178 366.843 503.537 371.782C505.679 371.953 507.794 372.11 509.869 372.255C521.311 376.458 513.573 413.437 504.628 413.437C503.432 413.489 502.25 413.489 501.068 413.489C503.656 419.322 511.235 422.461 513.823 422.317C527.813 421.542 531.964 367.473 519.761 363.808Z" fill="#BBD4EF"/>
<path d="M509.659 372.243H509.856C502.789 371.77 472.352 370.706 460.924 358.424C451.374 348.165 452.609 330.72 458.113 314.063C459.203 310.779 457.285 310.162 454.999 311.791C426.625 331.981 425.916 367.856 445.174 390.568C460.766 408.946 486.841 414.174 504.628 413.438C515.662 413.438 520.72 372.795 509.672 372.243H509.659Z" fill="#BBD4EF"/>
<path d="M658.452 397.412C653.172 399.606 647.326 401.313 640.929 402.417C640.587 407.08 640.246 408.486 634.216 414.029C634.282 430.16 631.917 436.505 617.073 460.268C611.044 469.91 610.466 490.363 607.773 498.114C607.773 498.166 607.773 498.219 607.76 498.271C606.683 504.367 594.243 512.012 582 512.839C575.786 513.26 559.104 510.724 552.444 505.194C542.013 499.112 541.974 482.272 537.679 470.843C534.132 461.411 527.958 453.714 524.24 449.865C516.608 441.983 513.403 433.116 513.074 422.266C508.661 421.714 503.905 419.717 501.042 413.478C476.425 413.451 455.604 402.824 445.213 390.568C425.969 367.882 426.665 332.06 454.96 311.856C456.944 310.438 459.374 310.359 458.126 314.168C452.648 330.785 451.44 348.191 460.977 358.424C469.62 367.711 487.144 370.417 503.577 371.77C505.613 367.961 511.498 363.048 517.935 363.481C522.795 354.299 536.365 350.069 542.697 348.624C551.603 346.601 570.755 349.78 576.706 349.478C588.712 348.874 599.957 344.71 613.198 351.633C616.272 353.235 618.978 356.033 621.33 359.619C628.16 360.526 629.592 361.813 632.114 365.242C637.395 364.335 642.663 363.048 647.549 361.274C635.7 334.332 616.39 310.976 591.616 295.239C567.406 279.857 540.49 270.819 516.464 258.826C516.162 261.243 515.951 265.446 515.886 268.192C507.741 263.633 499.308 256.711 495.078 252.586C491.124 258.379 488.668 267.89 487.669 271.029C486.04 268.822 484.385 266.405 483.374 265.223C481.298 266.773 478.513 269.505 475.781 272.369C471.919 276.441 468.188 280.776 466.875 282.431C466.402 280.684 463.696 275.167 463.328 274.628C454.895 298.668 387.637 315.272 387.532 403.126C387.467 458.771 416.681 487.894 435.282 512.866C452.162 535.539 460.543 551.328 462.356 569.496C466.205 565.87 469.016 558.054 470.264 551.788C473.968 561.758 487.525 590.921 492.674 594.94C492.464 588.609 492.569 579.886 493.094 575.84C496.93 582.422 505.587 603.124 507.741 610.651C513.797 607.091 519.669 596.201 521.626 587.571C523.202 591.643 526.184 597.83 528.352 600.247C528.641 592.799 530.611 584.983 533.633 577.574C545.77 575.184 567.484 561.049 577.415 545.824C577.205 550.08 574.315 557.699 573.172 560.813C612.226 526.58 638.42 498.771 651.319 470.594C661.868 447.54 663.155 424.17 658.479 397.399L658.452 397.412Z" fill="#49322A"/>
<path d="M538.598 443.705C536.982 441.432 533.357 431.409 534.907 422.332C541.777 427.363 548.161 432.407 551.826 438.279C554.073 441.879 555.504 447.527 556.056 453.136C552.273 451.757 541.094 447.212 538.598 443.705Z" fill="white"/>
<path d="M614.092 444.034C612.213 446.556 607.326 449.985 604.437 451.627C605.172 445.952 606.604 438.083 608.666 434.812C610.965 431.16 615.996 427.404 621.027 424.08C620.147 430.123 617.021 440.093 614.092 444.034Z" fill="white"/>
<path d="M461.279 629.081C455.985 638.013 435.453 637.225 428.819 627.846C428.438 629.186 426.245 640.483 425.942 644.962C434.244 651.373 457.732 654.604 464.458 646.315C466.139 643.859 463.42 635.202 461.279 629.081Z" fill="#004D7E"/>
<path d="M300.4 576.379C289.668 580.806 280.551 577.338 268.413 564.32C270.463 582.974 269.096 608.931 261.766 626.98C260.151 630.947 259.376 634.901 260.124 638.356C270.909 629.252 284.164 621.384 297.799 620.766C297.694 620.228 297.602 619.689 297.536 619.177C295.868 606.067 295.934 591.775 300.4 576.379Z" fill="#AA5B00"/>
<path d="M435.256 512.892C426.441 501.043 415.381 488.459 406.199 472.577C361.128 472.183 314.981 459.756 284.597 425.76C280.959 442.692 285.753 463.342 285.438 470.304C284.558 489.01 277.372 511.368 270.147 527.88C287.855 527.762 301.819 528.314 309.477 556.044C313.957 550.448 325.779 539.65 332.334 533.174C340.005 524.465 350.869 525.122 358.567 522.389C368.064 527.434 378.389 530.56 388.649 531.598C386.127 547.558 398.895 578.77 399.762 590.29C400.011 593.535 400.077 596.727 399.998 599.84C411.584 598.172 421.988 605.988 430.041 624.378C433.824 613.83 439.551 604.503 443.098 591.774C447.183 577.128 456.195 568.051 458.953 553.772C454.146 539.151 445.2 526.251 435.256 512.905V512.892Z" fill="#AA5B00"/>
<path d="M455.551 596.503C455.682 586.716 459.124 573.042 461.58 564.214C460.95 560.628 460.07 557.147 458.966 553.758C456.208 568.037 447.183 577.101 443.111 591.761C440.72 600.339 433.39 611.478 428.819 627.846C435.453 637.225 455.984 638.013 461.278 629.08C461.344 628.975 461.41 628.883 461.462 628.778C463.38 625.218 455.354 611.005 455.551 596.516V596.503Z" fill="#AA5B00"/>
<path d="M640.626 392.499C641.021 396.361 641.113 399.842 640.929 402.417C674.439 396.637 692.37 375.711 693.71 352.723C683.976 373.465 662.984 386.483 640.626 392.512V392.499Z" fill="#A2B8CF"/>
<path d="M615.799 607.051C614.341 601.297 613.342 596.726 613.29 594.887C613.106 588.253 613.697 582.381 612.672 578.033C611.674 573.803 607.536 569.284 606.393 564.844C604.948 559.248 606.932 551.262 605.631 530.809C594.505 541.318 583.155 551.078 573.146 560.851C574.289 557.738 577.178 550.119 577.389 545.863C572.331 553.613 560.482 564.161 549.001 571.018C558.591 582.013 577.034 597.383 583.313 604.213C585.809 610.033 588.528 629.619 590.354 640.259C595.122 619.438 602.991 607.865 615.812 607.064L615.799 607.051Z" fill="#AA5B00"/>
<path d="M226.22 138.603C223.921 145.04 228.532 159.49 242.758 164.061C243.047 161.867 243.297 159.595 243.507 157.23C243.901 152.856 250.679 153.342 250.351 157.585C250.18 159.831 249.97 161.999 249.734 164.127C258.075 162.353 269.819 152.16 272.643 135.24C263.316 150.531 231.777 155.076 226.22 138.603Z" fill="#004D7E"/>
<path d="M163.074 175.752C190.871 175.003 215.212 179.456 234.496 190.688C215.895 175.2 187.245 173.296 162.47 173.217C162.812 174.202 163.048 175.673 163.074 175.752Z" fill="#3B261E"/>
<path d="M138.563 216.488C138.379 211.115 139.614 203.68 148.244 201.25C164.914 196.573 164.52 181.874 162.93 175.004C161.459 194.931 136.054 198.702 135.279 206.938C135.226 207.463 134.504 214.728 138.563 216.488Z" fill="#004D7E"/>
<path d="M108.862 215.279C109.65 220.376 110.583 221.913 111.305 223.292C115.364 213.663 129.683 200.855 139.876 194.563C130.182 194.379 115.469 203.995 108.862 215.279Z" fill="#004D7E"/>
<path d="M476.989 164.521C477.751 197.927 452.477 202.918 439.643 194.945C446.08 203.825 455.998 208.528 464.904 204.744C481.758 197.598 486.106 181.769 476.989 164.521Z" fill="#004D7E"/>
<path d="M303.658 366.974C301.425 367.355 299.152 367.959 296.972 368.603C298.417 373.595 300.269 378.376 302.371 382.935C297.326 379.243 291.757 375.657 286.108 372.242C283.73 373.476 281.773 375.21 280.065 377.22C288.854 382.291 297.287 387.466 304.223 392.839C304.932 392.156 305.668 391.486 306.417 390.842C306.811 390.501 307.192 390.159 307.599 389.818C309.188 388.491 310.778 387.322 312.354 386.245C308.44 379.69 305.602 373.24 303.658 366.961V366.974Z" fill="#3B261E"/>
<path d="M454.526 205.387C453.686 207.659 452.7 209.879 451.558 212.02C453.252 213.873 454.342 216.263 455.052 218.93C457.535 214.897 459.544 210.51 461.068 205.755C459.006 206.03 456.786 205.912 454.513 205.387H454.526Z" fill="#3B261E"/>
<path d="M293.425 344.447C291.008 336.407 289.655 327.882 288.801 319.094C284.453 325.071 283.625 331.691 283.704 338.456C286.752 351.028 291.704 363.98 299.849 377.261C295.277 365.727 293.399 354.719 293.412 344.46L293.425 344.447Z" fill="#3B261E"/>
<path d="M633.336 396.335C634.282 402.785 634.781 408.985 634.807 414.2C637.526 411.704 639.72 406.634 640.311 405.031C641.375 402.207 641.402 396.913 640.613 390.896C638.59 393.327 636.134 395.205 633.336 396.322V396.335Z" fill="#A2B8CF"/>
<path d="M512.812 404.256C510.066 411.021 506.506 413.438 504.628 413.438C503.432 413.491 502.25 413.491 501.068 413.491C503.656 419.323 511.235 422.305 513.823 422.318C519.656 422.357 521.876 415.592 524.122 408.578C519.656 408.433 515.294 406.752 512.812 404.256Z" fill="#A2B8CF"/>
<path d="M433.18 366.107C435.046 374.961 439.105 383.421 445.173 390.567C460.766 408.944 486.841 414.173 504.628 413.437C508.017 413.437 510.841 409.588 512.812 404.255C481.442 406.278 447.315 395.033 433.18 366.107Z" fill="#A2B8CF"/>
<path d="M429.922 363.441C429.686 362.035 428.793 362.495 428.241 363.874C427.492 365.727 424.484 375.605 422.987 381.227C422.001 377.076 420.727 369.037 420.727 366.37C420.727 364.439 420.294 363.717 418.625 366.147C416.996 368.525 414.146 374.147 413.174 376.827C412.635 373.359 412.688 360.774 412.793 359.421C412.924 357.779 411.689 357.95 410.98 359.237C408.997 362.784 404.675 375.697 404.662 375.592C403.847 370.876 405.621 352.564 405.791 350.029C406.015 346.732 405.187 346.141 403.243 349.989C398.461 359.474 390.12 398.751 398.895 424.537C399.722 426.954 401.128 426.783 400.97 424.577C400.156 413.45 399.683 395.585 401.22 387.165C401.483 388.189 403.151 391.684 404.425 393.733C405.41 395.309 406.553 394.652 406.908 393.904C407.578 392.524 408.97 385.956 410.179 382.672C410.205 383.986 411.795 388.189 412.701 389.49C413.515 390.646 413.857 391.355 415.065 389.976C415.67 389.293 417.745 385.759 417.916 385.405C417.837 386.035 420.596 393.05 422.409 396.005C423.131 397.175 423.801 397.713 424.248 395.664C425.272 391.066 427.019 381.214 428.149 376.078C429.476 384.971 433.338 396.912 435.545 401.628C436.477 403.624 437.384 403.06 437.541 401.312C438.027 395.69 438.579 381.897 438.986 383.132C437.003 379.034 434.835 372.728 434.297 370.259C433.837 371.375 433.272 372.715 432.826 374.646C431.604 370.771 430.514 367.093 429.909 363.467L429.922 363.441Z" fill="#694B3A"/>
<path d="M630.38 345.55C632.561 348.834 635.175 353.773 637.802 360C637.368 355.113 637.014 352.657 636.239 349.031C635.818 347.048 636.134 346.089 637.329 347.783C639.654 351.067 642.163 356.19 644.028 362.391C644.028 362.391 633.887 364.387 632.127 364.532C630.078 360.946 628.436 360.354 627.07 359.855C626.964 356.939 626.675 351.987 626.57 350.752C626.478 349.648 627.162 349.648 627.726 350.476C628.659 351.842 629.815 354.075 630.446 355.875C630.288 353.721 629.605 349.044 629.237 346.89C628.922 345.025 629.618 344.394 630.393 345.55H630.38Z" fill="#694B3A"/>
<path d="M463.971 485.62C463.393 480.418 463.525 473.128 464.562 465.509C464.733 464.287 465.14 464.419 465.679 465.272C467.203 467.65 469.41 470.422 471.104 472.195C471.643 472.76 471.827 472.55 471.827 471.893C471.866 468.267 472.391 464.077 473.061 458.731C473.166 457.903 473.39 458.008 473.692 458.626C478.631 468.74 483.662 473.982 491.413 480.103C492.424 480.904 492.582 480.471 492.608 479.538C492.752 472.799 493.041 468.451 494.316 462.96C494.46 462.369 494.762 462.054 495.275 462.75C497.626 465.956 501.435 469.515 504.194 471.354C504.851 471.788 505.048 471.735 504.969 470.882C504.588 466.612 505.166 462.159 506.086 458.691C506.256 458.074 506.572 457.916 506.874 458.626C508.7 462.777 514.887 471.302 518.447 473.706C519.511 474.428 519.485 473.955 519.248 473.115C517.58 467.309 516.03 458.468 515.911 452.057C515.911 451.427 516.148 451.269 516.437 451.952C520.838 462.461 527.826 469.253 530.243 471.394C530.874 471.946 531.044 471.683 530.952 471.026C530.414 466.757 529.534 461.529 529.442 455.867C531.741 459.322 535.957 466.402 537.626 470.842C541.921 482.271 541.96 499.111 552.391 505.193C559.051 510.724 575.733 513.272 581.947 512.838C594.19 512.011 606.63 504.366 607.707 498.27C607.707 498.218 607.707 498.165 607.72 498.113C609.835 492.018 610.663 478.12 613.828 467.755C615.457 472.011 616.14 476.885 615.562 482.612C615.497 483.256 615.628 483.335 616.18 483.098C620.83 481.115 625.533 476.517 627.95 470.12C628.199 469.463 628.383 469.621 628.515 470.146C628.895 471.749 628.974 474.008 628.856 476.399C628.83 476.898 629.158 477.095 629.565 476.806C633.283 474.218 636.028 470.593 637.749 466.928C638.156 466.047 638.367 466.192 638.498 467.02C639.378 472.248 639.286 477.358 638.156 481.482C637.854 482.573 637.657 483.545 638.997 481.89C648.009 470.842 654.524 456.734 659.989 442.547C651.792 477.804 643.477 499.111 573.093 560.825C574.236 557.712 577.126 550.093 577.336 545.836C575.655 548.831 544.732 564.306 540.397 564.306C545.074 557.528 546.821 551.485 546.427 547.387C546.23 545.324 545.941 545.534 544.758 546.874C536.036 556.858 533.658 560.51 530.23 567.262C529.81 568.089 529.586 567.997 529.337 567.183C528.732 565.16 528.036 562.611 528.181 557.961C528.22 556.871 527.918 556.792 527.511 557.803C525.527 562.624 520.759 569.547 515.373 575.183C514.874 575.708 514.624 575.524 514.572 574.88C514.44 573.146 513.797 570.27 512.719 567.472C512.391 566.631 512.115 566.618 511.655 567.353C510.381 569.376 507.137 572.752 505.153 575.366C504.391 576.365 504.325 576.063 503.944 575.248C502.119 571.281 495.432 562.322 493.856 557.528C493.527 556.542 493.304 556.345 492.647 557.37C490.414 560.838 487.761 566.04 487.156 569.731C486.946 570.953 486.723 570.966 485.751 570.44C482.244 568.523 473.272 562.795 470.185 551.8C468.937 558.066 466.139 565.882 462.277 569.508C460.464 551.34 452.083 535.551 435.203 512.878C420.845 493.594 400.156 471.814 391.499 437.279C400.418 454.199 407.604 462.724 417.39 470.474C418.323 471.21 418.323 470.685 418.192 469.988C417.115 463.946 416.97 458.284 417.811 453.45C417.916 452.819 418.165 452.846 418.441 453.358C420.661 457.496 428.215 467.887 432.077 471.499C432.536 471.919 432.615 471.604 432.536 471.236C431.971 468.609 431.433 465.614 431.302 463.026C431.288 462.658 431.472 462.54 431.709 462.908C434.875 467.887 440.996 474.862 445.988 479.092C446.5 479.525 446.684 479.354 446.566 478.737C445.594 473.785 445.252 468.333 445.502 463.552C445.541 462.895 445.804 462.79 446.172 463.394C450.822 471.144 456.195 479.394 462.881 486.119C464.076 487.315 463.971 486.29 463.905 485.633L463.971 485.62Z" fill="#3B261E"/>
<path d="M627.004 369.05C627.319 371.887 628.003 376.183 630.288 378.613C631.326 379.717 637.237 378.337 637.369 376.827C637.5 375.316 635.779 371.191 634.768 369.549C633.572 367.618 626.807 367.277 627.004 369.05Z" fill="white"/>
<path d="M523.097 369.339C521.429 367.277 516.647 367.251 516.713 369.208C516.765 370.666 517.961 372.177 518.184 373.411C516.187 371.52 513.258 372.689 514.598 374.817C515.885 376.866 517.107 382.856 516.122 386.429C515.097 390.134 518.644 390.935 519.524 387.953C519.616 389.727 519.393 391.552 520.443 392.577C521.967 394.075 525.711 390.935 526.158 387.874C527.327 379.822 526.88 374.003 523.097 369.339Z" fill="white"/>
<path d="M576.443 433.076C577.954 434.061 579.714 434.731 581.618 434.955C588.252 435.716 594.269 430.948 595.044 424.327C595.49 420.452 594.032 416.787 591.431 414.252C592.758 423.749 586.295 432.446 576.443 433.076Z" fill="#A2B8CF"/>
<path d="M578.138 396.098C578.663 396.387 579.228 396.623 579.859 396.715C582.762 397.201 585.507 395.231 585.993 392.328C586.216 390.948 585.888 389.622 585.179 388.531C584.982 391.907 582.735 395.493 578.138 396.085V396.098Z" fill="#A2B8CF"/>
<path d="M577.455 375.514C581.303 375.987 582.473 374.056 582.459 371.875C582.459 370.837 582.039 369.905 581.382 369.195C581.619 371.691 579.898 374.568 577.455 375.501V375.514Z" fill="#A2B8CF"/>
<path d="M576.259 418.757C577.113 419.86 578.781 420.005 579.99 419.085C581.199 418.153 581.488 416.498 580.634 415.394C579.78 414.291 578.112 414.146 576.903 415.066C575.694 415.985 575.405 417.654 576.259 418.757Z" fill="white"/>
<path d="M578.072 391.251C578.545 391.698 579.399 391.567 579.99 390.949C580.568 390.332 580.66 389.465 580.187 389.018C579.714 388.572 578.86 388.703 578.269 389.32C577.691 389.938 577.599 390.805 578.072 391.251Z" fill="white"/>
<path d="M577.967 370.929C578.308 370.64 578.426 370.207 578.216 369.957C578.006 369.707 577.559 369.734 577.205 370.01C576.863 370.299 576.745 370.732 576.955 370.982C577.165 371.231 577.612 371.205 577.967 370.929Z" fill="white"/>
<path d="M506.572 379.638C505.902 379.494 501.725 378.811 499.781 378.403C504.497 377.852 501.58 376.026 497.889 375.592C488.93 374.528 479.275 372.466 470.618 369.077C469.541 368.656 468.976 369.234 469.883 370.193C470.461 370.784 471.17 371.126 471.866 371.52C468.963 370.666 467.82 370.272 464.93 369.589C463.183 369.169 462.658 370.482 464.878 371.717C473.259 376.354 489.101 380.715 502.697 381.74C509.199 382.226 508.95 380.164 506.572 379.638Z" fill="white"/>
<path d="M661.499 359.749C662.813 358.764 664.836 357.582 666.031 356.715C668.317 355.073 669.434 355.756 667.713 357.792C664.639 361.431 661.749 363.388 656.797 366.134C651.266 369.207 647.076 370.18 644.396 370.626C641.782 371.06 640.757 369.943 643.083 368.84C643.7 368.551 645.014 367.96 646.17 367.329C644.317 367.316 644.672 365.989 646.275 365.437C651.45 363.664 655.982 361.641 661.407 357.661C662.537 356.833 662.826 357.976 661.486 359.749H661.499Z" fill="white"/>
<path d="M452.582 321.248C449.351 334.791 449.81 347.901 453.357 353.681C454.579 355.664 453.41 359.343 450.428 353.247C447.617 347.494 446.934 331.021 452.096 320.512C452.516 319.671 452.832 320.157 452.582 321.248Z" fill="white"/>
<path d="M672.087 311.869C676.79 330.167 675.227 335.921 673.269 340.755C671.601 344.867 676.553 341.53 676.934 335.133C677.985 317.491 670.787 306.785 672.1 311.869H672.087Z" fill="white"/>
<path d="M552.456 490.021C548.581 494.395 548.043 501.554 552.404 505.18C559.064 510.71 575.747 513.259 581.96 512.825C596.567 511.827 607.05 502.553 607.746 498.1C607.97 496.694 607.825 495.21 607.418 493.791C592.719 502.33 564.056 503.262 552.456 490.008V490.021Z" fill="#3B261E"/>
<path d="M550.197 502.567C548.134 498.534 549.146 493.293 552.338 489.877C548.949 485.792 543.642 463.657 537.849 455.973C528.417 443.48 524.069 435.362 522.256 413.977C519.905 419.336 516.765 422.725 513.035 422.252C513.363 433.103 516.568 441.97 524.2 449.851C527.918 453.687 534.092 461.398 537.639 470.83C541.934 482.258 543.681 501.726 550.184 502.554L550.197 502.567Z" fill="#AA5B00"/>
<path d="M459.663 206.518C449.325 236.679 420.793 246.268 392.669 252.101C369.917 256.817 344.131 262.176 324.164 283.444C316.506 291.601 279.869 334.951 311.238 386.917C311.448 387.259 313.642 385.551 313.314 385.026C282.785 334.438 318.318 292.928 325.793 284.968C345.274 264.199 369.602 259.155 393.116 254.281C422.436 248.199 451.834 238.807 462.277 205.678C461.489 205.862 459.755 206.597 459.663 206.505V206.518Z" fill="#0E141B"/>
<path d="M453.358 205.756C449.325 217.04 441.798 225.775 430.356 232.435C417.457 239.949 403.375 242.997 388.465 246.215C366.646 250.931 344.117 255.437 323.218 274.944C315.954 281.722 274.404 324.244 300.637 381.951C301.727 382.765 302.909 383.475 304.118 384.092C275.284 325.623 319.408 281.893 324.702 276.941C345.155 257.854 367.408 253.046 388.925 248.396C404.018 245.138 418.258 242.064 431.46 234.366C443.506 227.352 451.387 218.104 455.565 206.137C454.816 206.032 454.067 205.927 453.331 205.756H453.358Z" fill="#0E141B"/>
<path d="M238.608 183.858C217.958 171.615 191.449 166.151 159.423 167.359C159.909 168.056 160.343 168.791 160.711 169.553C191.725 168.555 217.643 174.282 237.794 186.354C238.056 185.514 238.332 184.686 238.621 183.858H238.608Z" fill="#0E141B"/>
<path d="M288.157 291.864C287.579 269.861 286.62 248.186 277.504 228.101C269.819 211.169 258.929 197.836 244.992 188.01C244.808 188.89 244.545 189.744 244.243 190.598C257.721 200.226 268.23 213.06 275.468 229.021C284.387 248.699 284.978 271.214 285.556 292.994C286.042 311.516 286.542 330.668 292.335 347.404C292.492 347.864 293.806 343.515 294.003 342.412C288.906 326.504 288.63 310.334 288.144 291.864H288.157Z" fill="#0E141B"/>
<path d="M237.228 191.043C218.194 179.234 193.209 173.73 162.458 174.65C162.878 175.333 163.285 176.436 163.535 177.224C193.564 176.449 217.918 181.822 236.44 193.355C236.703 192.594 236.979 191.818 237.228 191.043Z" fill="#0E141B"/>
<path d="M300.913 377.354C281.655 345.105 280.959 316.179 280.197 288.357C279.645 267.904 279.12 248.594 270.844 230.124C264.302 215.543 254.949 203.852 242.943 194.998C242.719 195.799 242.483 196.601 242.22 197.402C253.636 205.927 262.555 217.093 268.808 231.044C276.9 249.093 276.978 268.455 277.517 288.672C278.24 315.457 279.868 347.601 299.428 380.362C299.638 380.717 301.228 377.88 300.913 377.341V377.354Z" fill="#0E141B"/>
<path d="M471.604 172.796C471.604 172.796 471.604 172.81 471.604 172.823C471.879 172.718 473.338 170.13 473.771 169.512C474.047 148.39 454.172 130.301 438.277 129.828C436.464 129.881 436.281 129.828 437.292 131.523C444.097 142.846 442.625 149.138 441.207 155.233C440.366 158.833 439.499 162.55 440.576 166.99C440.721 167.595 443.65 169.88 443.492 169.289C442.008 164.087 442.573 159.24 443.387 155.746C444.767 149.848 446.317 143.214 440.287 132.232C455.197 134.15 471.932 151.765 471.617 172.796H471.604Z" fill="#0E141B"/>
<path d="M443.755 169.565C439.394 163.234 438.146 158.702 437.542 153.447C437.305 151.398 436.964 150.544 435.479 153.001C431.696 159.227 432.984 170.524 436.504 177.408C437.305 177.697 439.158 177.946 438.96 177.592C436.057 172.521 434.547 163.746 435.979 157.756C436.832 161.802 438.356 165.769 442.336 170.235C444.123 172.232 445.279 171.785 443.768 169.579L443.755 169.565Z" fill="#0E141B"/>
<path d="M438.475 195.68C436.32 192.711 435.243 189.874 434.061 187.431C431.775 182.715 429.963 178.997 423.513 176.015C422.252 175.437 421.66 174.347 422.948 173.874C426.455 172.587 432.196 172.14 439.828 178.065C442.258 179.956 442.021 181.992 439.578 180.101C434.77 176.37 430.068 175.372 427.165 175.424C432.209 178.485 434.022 182.229 436.071 186.459C437.266 188.928 438.514 191.49 440.55 194.288C447.67 204.114 457.982 206.478 464.471 203.72C483.584 195.628 483.295 176.988 476.622 165.756C475.847 168.528 474.402 170.288 473.049 172.048C471.157 174.505 469.739 174.045 471.486 171.483C473.391 168.685 474.166 166.807 475.072 162.748C475.519 160.738 475.873 160.094 477.174 161.92C489.101 178.656 483.269 198.176 465.364 205.769C457.535 209.079 445.765 205.69 438.501 195.667L438.475 195.68Z" fill="#0E141B"/>
<path d="M242.93 162.932C239.146 161.645 234.614 157.888 231.58 153.29C229.334 149.901 225.958 143.123 228.559 135.846C231.895 126.506 231.265 117.928 226.404 107.642C231.606 110.217 235.153 115.287 236.48 119.662C236.598 120.043 236.9 120.306 237.268 120.397C237.452 119.202 237.675 117.994 237.793 116.785C235.271 110.966 230.135 106.158 224.421 104.463C222.345 103.846 222.214 104.332 223.107 106.053C228.835 116.93 229.215 125.468 225.839 134.952C223.672 141.021 224.828 147.931 229.11 154.381C232.526 159.53 238.017 163.734 242.522 165.139C242.68 164.404 242.825 163.668 242.943 162.932H242.93Z" fill="#0E141B"/>
<path d="M270.069 120.017C268.506 116.536 267.784 117.206 267.429 120.069C267.166 122.184 265.905 125.35 264.473 127.649C264.749 128.792 264.723 130.132 264.473 131.288C266.22 130.027 267.994 126.546 268.953 123.577C276.48 142.138 263.081 160.227 249.616 163.038C249.577 163.563 249.498 165.126 249.511 165.324C264.184 162.657 280.854 144.03 270.082 120.017H270.069Z" fill="#0E141B"/>
<path d="M262.608 132.771C267.442 120.542 252.585 93.6126 228.926 92.2858C239.173 99.7735 239.186 114.683 238.043 122.657C237.504 126.427 235.77 127.018 236.138 123.024C236.966 114.158 236.69 97.6585 224.355 92.2202C221.649 91.0248 221.229 90.3286 224.723 90.079C250.404 88.2793 270.726 114.88 265.156 131.602C264.053 134.913 261.465 135.648 262.608 132.771Z" fill="#0E141B"/>
<path d="M138.537 218.274C130.327 212.862 132.967 200.094 137.578 195.483C139.811 193.25 142.294 193.552 140.061 195.785C134.386 201.46 134.307 210.379 137.46 214.071C137.893 206.78 141.479 201.999 147.929 200.186C157.348 197.532 164.376 184.974 161.84 175.306C159.003 164.482 149.965 159.28 137.657 161.369C112.619 165.612 104.475 186.327 108.087 200.803C108.232 201.408 107.194 206.399 107.01 205.808C99.1284 179.996 115.417 161.933 136.369 158.373C149.742 156.101 160.895 162.84 163.995 174.715C166.898 185.815 159.988 200.002 148.796 202.472C142.859 203.785 139.128 208.37 139.391 216.645C139.443 218.077 139.588 218.971 138.511 218.248L138.537 218.274Z" fill="#0E141B"/>
<path d="M110.622 225.211C107.969 220.18 101.532 204.114 112.33 189.941C115.627 185.619 118.202 184.712 115.089 189.166C105.696 202.604 108.915 215.017 111.292 220.666C118.031 207.425 134.031 196.601 137.433 195.812C138.038 195.681 136.842 198.518 136.185 198.86C130.944 201.54 117.099 212.114 112.225 224.909C111.726 226.196 111.424 226.748 110.622 225.211Z" fill="#0E141B"/>
<path d="M305.615 392.513C295.422 384.5 281.878 376.894 268.742 369.525C234.404 350.281 214.634 338.011 207.383 309.966C200.434 283.076 207.803 258.603 221.018 230.137C231.041 208.528 241.616 190.637 244.65 157.337C244.939 154.184 249.511 154.381 249.274 157.508C246.542 193.868 232.933 216.463 224.789 234.013C209.892 266.117 206.161 286.531 211.482 306.8C218.536 333.676 238.713 346.694 268.676 363.496C282.89 371.469 294.266 377.761 304.88 386.234C307.231 388.1 307.586 386.234 305.313 384.277C294.252 374.727 283.612 368.973 269.307 360.96C239.843 344.435 220.48 332.258 213.649 306.235C208.473 286.531 212.165 266.551 226.811 234.958C235.442 216.358 249.314 194.157 251.376 158.388C251.718 152.516 242.982 151.045 242.43 157.14C239.343 191.084 228.795 207.583 218.772 229.218C205.36 258.13 197.886 283.549 205.005 311.069C212.48 339.995 232.815 351.936 267.691 371.482C280.735 378.799 293.333 386.352 303.382 394.26C303.842 393.669 305.155 393.078 305.655 392.526L305.615 392.513Z" fill="#0E141B"/>
<path d="M457.627 552.302C456.576 561.195 453.226 567.382 449.679 573.937C446.881 579.113 443.978 584.459 442.034 591.461C441.049 594.981 439.197 599.001 437.029 603.664C433.614 611.033 429.371 620.202 426.665 631.71C424.011 642.981 424.419 656.839 424.721 666.954C424.878 672.13 425.036 677.489 424.55 678.29C416.524 685.305 400.274 683.663 389.779 674.783C386.784 672.248 385.142 666.586 385.509 660.018C385.614 658.271 387.073 654.645 388.912 650.074C394.114 637.187 402.81 615.618 400.892 590.199C400.445 584.249 397.713 573.582 395.059 563.257C388.925 539.297 387.729 530.049 393.26 505.97C394.153 502.082 391.972 502.437 390.987 506.299C384.839 530.299 385.733 537.957 391.907 562.049C394.534 572.269 398.225 584.617 398.659 590.37C400.524 615.276 391.841 635.493 386.718 648.209C384.721 653.161 382.79 656.642 382.672 658.77C382.252 666.14 384.761 673.483 388.334 676.504C399.21 685.699 417.036 688.537 426.928 679.88C428.149 678.816 427.768 675.9 427.506 667.007C427.217 657.01 426.258 643.217 428.845 632.235C431.499 620.938 435.689 611.887 439.065 604.61C441.259 599.868 443.164 595.756 444.189 592.065C446.067 585.313 449.351 579.809 452.096 574.738C455.289 568.84 458.454 563.783 459.899 556.229C459.387 554.863 457.653 552.131 457.64 552.302H457.627Z" fill="#0E141B"/>
<path d="M388.977 530.494C356.479 527.289 323.1 504.261 318.633 462.265C318.292 459.007 316.295 459.427 316.571 462.685C320.223 505.877 355.02 530.205 388.452 533.515C388.544 532.78 388.925 531.243 388.991 530.494H388.977Z" fill="#0E141B"/>
<path d="M477.817 269.584C431.171 281.84 388.938 324.375 365.74 348.112C352.144 362.023 346.889 367.79 329.405 375.094C305.287 385.169 291.205 396.23 283.744 423.316C280.263 435.94 281.393 449.996 282.47 460.058C282.89 463.933 283.363 468.229 283.271 470.331C282.26 491.861 271.698 522.323 264.513 536.708C262.253 541.24 261.964 545.469 263.541 551.302C270.516 577.246 269.045 603.557 259.968 625.941C256.92 633.442 257.511 640.194 261.294 644.293C264.591 647.866 284.112 649.941 295.356 646.381C310.41 641.626 301.018 631.761 299.376 618.848C296.762 598.369 299.442 578.152 307.691 561.075C309.911 556.464 319.934 547.217 327.409 540.123C329.786 537.864 332.86 535.46 334.817 533.529C339.954 527.696 346.259 527.486 352.393 526.369C355.467 525.818 358.423 525.292 361.076 524.202C361.641 523.966 356.886 522.205 355.993 522.442C354.246 522.928 352.354 523.269 350.41 523.624C344.21 524.754 337.195 526.028 331.586 532.386C329.694 534.251 327.461 536.379 325.083 538.639C317.084 546.231 308.02 554.849 305.616 559.827C296.578 578.546 293.675 597.449 296.46 619.334C297.839 630.119 306.929 640.404 294.7 644.266C284.243 647.577 265.485 644.674 263.514 642.546C260.375 639.13 260.138 634.046 262.831 627.413C271.738 605.475 273.301 575.709 266.825 551.591C265.169 545.443 265.958 541.949 267.639 538.573C274.916 524.018 285.544 492.215 286.581 470.37C286.686 468.097 286.332 464.84 285.885 460.702C284.821 450.823 283.35 437.306 286.726 425.09C293.846 399.251 308.584 387.389 331.126 377.97C347.415 371.166 351.356 367.08 364.347 353.774C384.748 332.913 420.675 296.447 460.333 279.462C460.307 279.37 461.962 276.244 462.947 274.904C463.079 274.733 463.407 274.655 463.512 274.904C463.919 275.824 464.261 276.769 464.642 277.702C467.676 276.52 470.724 275.456 473.785 274.523C474.52 274.3 478.435 269.453 477.831 269.61L477.817 269.584Z" fill="#0E141B"/>
<path d="M461.042 618.231C459.164 612.057 456.563 604.359 456.668 596.517C456.76 589.542 459.033 581.437 462.579 568.406C462.461 567.026 461.778 563.65 461.436 562.311C461.121 562.429 454.54 588.832 454.435 596.491C454.33 604.675 456.813 612.872 458.638 618.862C459.913 623.078 461.121 627.059 460.491 628.241C455.433 637.633 434.205 634.77 429.266 626.494C429.214 626.402 428.596 628.11 428.307 629.016C436.149 639.013 458.126 639.091 463.223 629.62C464.3 627.61 462.711 623.709 461.056 618.231H461.042Z" fill="#0E141B"/>
<path d="M424.603 679.721C423.985 680.168 423.053 680.733 422.435 681.166C426.021 691.084 428.57 702.197 426.573 704.378C423.867 707.426 414.448 708.608 405.568 707.005C395.598 705.205 388.518 700.647 386.114 694.447C384.8 691.57 385.312 682.125 387.125 673.153C386.495 672.444 385.89 671.721 385.299 670.973C383.303 679.984 381.464 691.163 383.237 695.051C385.904 701.948 394.416 707.268 405.161 709.212C412.399 710.512 424.984 710.67 429.082 706.046C433.207 701.554 424.642 679.787 424.603 679.721Z" fill="#0E141B"/>
<path d="M302.253 641.259C301.977 640.116 300.23 642.231 300.374 642.848C301.78 648.746 303.632 655.958 303.106 658.06C299.914 665.232 290.601 667.807 282.916 667.833H282.837C273.025 667.833 264.46 663.932 261.977 658.31C261.228 656.733 262.319 649.495 263.343 645.16C263.475 644.582 261.767 642.389 261.596 642.98C261.163 644.517 257.813 655.801 259.311 658.901C262.608 666.388 273.813 670.066 282.851 670.066H282.929C296.854 670.04 304.827 662.369 305.878 658.612C306.601 655.998 303.881 648.037 302.266 641.259H302.253Z" fill="#0E141B"/>
<path d="M462.172 628.24C461.62 628.884 461.042 629.488 460.438 630.079C464.221 641.087 464.221 644.66 463.591 645.606C456.917 653.829 433.325 650.309 426.586 643.741C426.428 643.583 426.376 645.738 426.35 646.644C434.888 653.435 458.809 656.26 465.679 647.761C467.229 645.488 465.968 639.078 462.172 628.24Z" fill="#0E141B"/>
<path d="M629.382 647.617C625.862 638.96 614.578 601.062 614.407 594.849C614.354 592.707 614.604 590.304 614.63 588.32C614.722 580.451 614.039 576.103 610.768 570.573C609.52 568.458 607.904 566.054 607.366 563.992C606.052 558.882 608.693 539.335 607.97 528.734C607.326 529.72 605.33 531.546 604.607 532.465C605.12 541.384 603.517 558.159 605.303 565.095C605.908 567.46 607.274 569.785 608.601 572.031C611.701 577.286 612.226 581.594 612.147 588.622C612.121 590.632 612.108 592.707 612.161 594.901C612.331 601.364 623.563 639.853 627.293 649.062C629.054 653.383 633.494 661.015 630.538 663.157C625.98 666.454 607.681 670.631 597.947 660.424C595.057 657.403 592.864 644.569 590.735 632.142C589.199 623.183 587.622 613.975 585.665 607.564C584.575 604.005 583.97 603.216 581.356 600.76C574.092 593.929 555.57 577.062 550.197 570.074C549.541 570.429 547.899 571.952 547.977 572.057C556.135 581.975 571.78 595.23 579.32 602.363C582 604.898 582.46 605.436 583.471 608.891C585.258 615.052 586.571 623.88 588.069 632.668C590.355 646.001 591.865 657.823 595.215 661.344C604.673 671.248 626.164 669.843 632.522 665.245C637.185 661.882 631.589 653.147 629.343 647.603L629.382 647.617Z" fill="#0E141B"/>
<path d="M632.824 661.409C632.469 662.171 632.075 662.907 631.615 663.603C637.067 671.8 640.206 682.072 638.761 683.373C634.926 686.959 624.653 688.522 614.328 687.077C605.882 685.895 599.537 683.018 597.343 679.366C596.029 677.251 596.844 668.095 597.593 660.936C596.857 660.214 596.174 659.426 595.596 658.559C594.453 669.33 593.087 677.829 594.795 680.575C597.356 684.857 604.765 687.997 614.013 689.284C619.123 689.993 634.742 690.86 640.929 685.054C645.027 681.35 635.648 665.626 632.798 661.396L632.824 661.409Z" fill="#0E141B"/>
<path d="M590.972 296.198C615.379 311.699 634.44 334.516 646.236 360.973C647.431 360.631 648.627 360.29 649.783 359.882C638.341 334.017 619.596 310.806 594.099 294.622C578.493 284.717 559.997 276.967 543.774 269.887C534.487 265.841 525.502 262.136 516.924 257.854C515.768 257.276 515.439 257.683 515.321 258.721C514.94 261.755 514.888 265.946 514.888 268.179C514.888 268.796 517.121 268.796 517.121 268.179C517.121 266.379 517.16 263.253 517.384 260.573C525.594 264.619 534.277 268.402 542.684 272.067C558.828 279.108 575.524 286.399 590.985 296.211L590.972 296.198Z" fill="#0E141B"/>
<path d="M657.507 398.464C658.899 406.779 659.635 415.265 659.635 423.83C659.635 496.144 591.773 538.587 575.8 556.715C577.008 553.195 578.335 548.834 578.48 545.904C578.624 542.857 578.322 542.331 576.43 545.247C569.021 556.61 547.82 573.109 534.276 576.314C534.106 577.142 533.37 578.731 533.055 579.52C545.587 577.194 565.816 562.377 575.432 550.331C574.565 553.641 573.225 557.333 572.397 559.592C571.491 562.062 571.701 564.347 574.407 561.602C607.432 528.118 662.919 494.739 662.919 421.465C662.919 413.426 662.236 405.334 660.909 397.295C659.792 397.742 658.649 398.123 657.493 398.49L657.507 398.464Z" fill="#0E141B"/>
<path d="M522.586 270.635C512.825 266.352 500.99 256.592 495.617 251.351C494.803 250.563 494.382 250.931 493.922 251.614C490.454 256.697 487.302 265.039 486.29 268.743C486.185 269.137 488.353 272.303 488.589 271.37C489.64 267.219 492.28 259.049 495.249 254.346C501.279 260.533 513.298 269.242 521.443 271.83C523.873 272.605 524.937 271.673 522.599 270.648L522.586 270.635Z" fill="#0E141B"/>
<path d="M460.806 570.823C458.245 541.635 434.56 516.006 424.695 503.395C406.961 480.749 385.943 453.741 385.996 404.861C386.061 344.185 411.756 321.801 435.716 301.834C445.923 293.335 456.826 284.56 462.382 274.064C462.908 273.079 463.762 273.211 464.221 274.183C464.918 275.68 466.836 279.358 467.269 280.58C470.461 276.797 477.174 268.692 481.693 265.066C483.216 263.844 483.61 263.647 484.622 265.303C485.147 266.143 489.745 272.173 490.927 273.946C492.438 276.219 492.162 276.797 489.968 275.142C487.945 273.631 483.899 268.744 483.124 267.234C477.922 271.503 469.502 281.289 467.689 283.575C466.481 285.099 466.218 284.954 465.732 283.168C465.325 281.683 464.602 279.568 463.315 277.296C457.456 287.345 448.143 295.108 438.317 303.305C415.355 322.432 389.332 344.119 389.267 404.441C389.214 452.545 411.007 480.394 428.531 502.778C438.553 515.572 459.624 541.503 463.118 567.303C467.072 561.891 469.726 551.723 469.817 546.35C469.883 542.974 471.486 544.327 471.433 547.703C471.302 555.191 468.202 566.712 462.776 571.821C461.384 573.135 460.937 572.334 460.806 570.81V570.823Z" fill="#0E141B"/>
<path d="M521.127 583.446C520.523 591.433 514.664 604.096 508.333 608.891C505.548 600.169 497.627 581.45 494.027 575.289C492.806 573.187 492.254 573.45 491.952 575.709C491.492 579.322 491.361 586.218 491.453 591.998C485.423 583.919 473.693 558.514 470.855 550.264C470.803 550.094 470.198 554.613 469.857 555.795C474.1 566.672 485.331 590.067 492.267 596.149C493.673 597.371 494.133 596.99 494.067 595.229C493.922 590.592 493.62 584.195 493.844 579.755C497.706 587.519 503.538 601.929 505.206 610.1C506.008 614.04 506.454 614.527 509.765 611.768C516.293 606.303 522.165 592.97 522.782 584.799C523.163 579.65 521.495 578.323 521.114 583.473L521.127 583.446Z" fill="#0E141B"/>
<path d="M527.498 601.009C525.121 598.356 522.467 593.193 521.206 589.489C520.943 588.701 522.533 583.906 522.73 584.497C523.859 588.083 525.843 594.034 527.446 596.95C528.68 584.76 534.106 570.927 542.316 559.315C544.89 555.637 545.941 557.752 543.34 561.417C534.631 573.739 530.165 587.794 529.679 600.313C529.613 602.021 529.193 602.875 527.511 600.996L527.498 601.009Z" fill="#0E141B"/>
<path d="M614.184 350.109C599.563 342.713 590.342 347.692 576.614 348.375C574.421 348.493 550.198 345.13 541.856 347.022C539.938 347.456 523.071 351.58 516.53 362.378C516.464 362.47 518.224 363.771 518.92 364.02C523.86 355.915 536.313 351.213 542.907 349.715C551.669 347.718 570.69 350.897 576.733 350.595C592.168 349.82 599.997 346.011 612.647 352.618C626.453 359.83 633.402 393.944 633.087 415.79C632.798 436.571 618.295 455.816 615.563 460.61C611.241 468.19 609.678 479.237 608.417 488.183C608.115 490.324 607.826 492.334 607.537 494.068C607.235 495.802 608.561 499.533 608.706 499.06C609.468 496.695 610.177 493.227 610.795 488.827C611.964 480.564 613.343 469.057 617.455 461.819C622.394 453.11 635.727 436.309 636.016 415.291C636.318 393.721 629.579 357.873 614.197 350.109H614.184Z" fill="#0E141B"/>
<path d="M552.746 506.81C543.537 501.582 542.184 493.438 539.82 483.783C538.887 479.947 537.902 474.719 536.588 471.238C532.608 460.676 525.042 453.267 522.953 451.113C515.071 442.982 511.012 434.049 510.894 422.056C510.894 421.439 514.349 421.688 514.362 422.305C514.48 433.813 517.462 441.327 525.002 449.103C527.17 451.336 534.565 459.494 538.69 470.463C540.043 474.075 541.028 478.108 541.987 482.009C543.813 489.484 545.679 497.155 550.237 502.016C551.288 503.132 552.917 506.929 552.746 506.837V506.81Z" fill="#0E141B"/>
<path d="M640.745 401.313C693.342 392.539 709.959 341.951 672.443 307.994C670.091 305.866 669.421 306.93 670.17 309.466C679.707 341.61 669.106 360.696 632.377 366.529C631.76 366.621 631.379 363.324 631.983 363.232C661.487 358.818 678.735 345.748 667.661 309.032C665.98 303.436 670.104 302.937 673.323 305.761C714.176 341.623 696.232 395.507 640.942 404.729C640.876 404.729 640.128 401.405 640.732 401.3L640.745 401.313Z" fill="#0E141B"/>
<path d="M633.586 413.004C636.397 411.113 638.565 407.408 639.274 405.517C641.363 399.96 638.722 371.534 628.45 362.942C627.031 361.76 624.798 361.077 621.645 360.841C621.028 360.801 620.2 357.99 620.818 358.056C622.959 358.213 627.491 358.292 629.934 360.342C641.074 369.655 644.266 400.052 641.993 406.095C641.152 408.328 638.578 413.543 635.32 415.737C635.123 415.868 633.074 413.346 633.586 413.004Z" fill="#0E141B"/>
<path d="M520.365 361.603C514.585 359.869 504.838 365.57 502.316 371.311C502.263 371.429 503.774 371.836 504.549 371.849C506.874 367.304 514.861 363.495 519.445 364.874C524.621 366.424 527.17 380.362 525.239 396.585C523.531 411.021 518.92 420.913 513.758 421.202C511.63 421.32 504.378 418.706 502.171 413.084C501.462 413.294 500.753 413.478 500.03 413.636C500.03 413.714 500.03 413.78 500.07 413.859C502.421 420.677 510.395 423.764 513.758 423.987C521.035 424.486 525.528 413.084 527.445 396.861C529.258 381.557 527.59 363.784 520.352 361.616L520.365 361.603Z" fill="#0E141B"/>
<path d="M599.458 598.947C597.856 596.806 593.008 591.223 592.956 591.17C591.038 588.963 592.443 587.742 594.361 589.949C594.558 590.185 598.631 596.004 600.286 598.211C601.691 600.09 600.745 600.668 599.458 598.947Z" fill="#0E141B"/>
<path d="M410.337 625.062C409.522 622.815 409.181 620.595 408.879 618.362C408.406 614.907 409.89 613.607 410.035 616.457C410.127 618.349 411.138 622.382 412.189 625.101C413.201 627.702 411.388 627.939 410.35 625.062H410.337Z" fill="#0E141B"/>
<path d="M419.874 634.324C421.791 631.315 424.248 626.271 424.655 624.852C425.496 621.884 426.928 624.012 425.759 626.862C424.878 628.99 422.869 632.576 421.135 634.81C419.571 636.819 418.613 636.294 419.874 634.31V634.324Z" fill="#0E141B"/>
<path d="M429.082 610.309C429.226 606.986 430.277 602.992 430.816 600.181C431.263 597.869 432.983 597.002 432.602 598.907C432.077 601.587 431.066 606.894 430.606 610.887C430.304 613.488 428.951 613.041 429.069 610.309H429.082Z" fill="#0E141B"/>
<path d="M549.199 503.08C547.36 499.494 547.321 495.001 549.606 491.27C553.482 484.926 559.13 483.31 568.812 487.514C579.767 492.282 582.618 493.044 592.706 488.092C597.934 485.517 601.232 483.1 605.264 487.422C607.8 490.141 609.442 495.08 608.837 498.456C607.603 505.431 594.217 513.352 581.935 514.193C575.248 514.64 553.298 511.08 549.199 503.08ZM551.827 492.374C549.948 495.448 549.698 499.165 551.183 502.068C554.546 508.636 574.447 512.249 581.895 511.737C593.849 510.922 605.698 503.421 606.631 498.088C607.117 495.369 606.039 492.032 603.951 489.799C600.929 486.568 599.09 487.579 593.639 490.128C590.223 491.717 586.348 493.53 582.71 493.53C577.6 493.53 572.766 491.573 568.496 489.852C560.628 486.673 555.268 486.778 551.827 492.387V492.374Z" fill="#0E141B"/>
<path d="M570.664 504.328C574.026 506.088 574.499 505.182 572.122 503.133C570.467 501.701 566.329 499.455 561.823 499.389C559.393 499.363 559.17 501.412 560.706 501.543C564.529 501.872 568.339 503.106 570.677 504.328H570.664Z" fill="#0E141B"/>
<path d="M599.813 500.163C601.481 499.559 600.706 497.654 598.906 498.219C596.161 499.086 594.059 500.557 592.627 502.146C590.447 504.563 591.419 505.115 593.875 503.25C595.57 501.962 598.079 500.78 599.826 500.163H599.813Z" fill="#0E141B"/>
<path d="M583.288 436.769C575.997 436.769 570.178 430.661 570.178 423.37C570.178 416.08 575.774 409.984 583.064 409.984C590.355 409.984 596.621 416.08 596.621 423.37C596.621 430.661 590.565 436.769 583.274 436.769H583.288ZM583.051 412.257C576.995 412.257 572.411 417.314 572.411 423.37C572.411 429.426 577.337 434.365 583.406 434.365C589.475 434.365 594.269 429.492 594.269 423.436C594.269 417.38 589.107 412.257 583.051 412.257Z" fill="#0E141B"/>
<path d="M581.435 398.292C578.02 398.292 575.156 395.415 575.156 391.986C575.156 388.558 577.941 385.76 581.357 385.76C584.772 385.76 587.596 388.571 587.596 391.986C587.596 395.402 584.864 398.292 581.435 398.292ZM581.357 387.73C579.031 387.73 576.982 389.714 576.982 392.039C576.982 394.364 579.11 396.413 581.435 396.413C583.76 396.413 585.534 394.311 585.534 391.986C585.534 389.661 583.668 387.73 581.343 387.73H581.357Z" fill="#0E141B"/>
<path d="M579.032 376.75C576.496 376.75 574.552 374.648 574.618 372.113C574.684 369.485 576.785 367.856 579.071 367.817C581.436 367.778 583.524 369.722 583.537 372.034C583.564 374.569 581.567 376.75 579.032 376.75ZM579.084 369.42C577.521 369.42 576.247 370.694 576.247 372.257C576.247 373.82 577.521 375.094 579.084 375.094C580.647 375.094 581.922 373.82 581.922 372.257C581.922 370.694 580.647 369.42 579.084 369.42Z" fill="#0E141B"/>
<path d="M443.782 391.448C421.476 365.149 427.926 329.892 453.949 310.857C458.494 307.534 460.609 310.069 459.23 314.233C455.315 326.069 451.164 345.668 461.791 357.097C471 366.988 490.848 369.326 509.081 370.601C514.73 370.995 517.16 378.614 516.937 387.691C516.674 398.528 511.827 415.185 503.88 415.185C482.875 416.065 459.059 409.471 443.782 391.448ZM456.721 314.68C457.522 312.21 456.537 312.04 454.829 313.301C443.48 321.682 436.123 333.228 433.851 346.378C431.197 361.76 435.637 377.615 446.015 389.845C455.433 400.945 476.386 413.49 504.576 412.321C510.054 412.321 514.428 399.29 514.704 387.638C514.914 379.126 512.904 373.53 509.594 373.372C509.541 373.372 509.489 373.372 509.449 373.359C490.678 372.059 469.923 369.76 460.097 359.198C455 353.721 448.222 340.874 456.708 314.693L456.721 314.68Z" fill="#0E141B"/>
<path d="M555.806 454.593C555.399 447.894 554.033 442.876 551.498 438.804C547.11 431.776 540.266 426.232 531.334 420.058C529.153 418.561 531.321 418.075 533.593 419.441C543.248 425.26 549.094 430.003 553.692 437.359C556.437 441.759 557.409 446.475 557.593 453.621C557.646 455.657 555.925 456.603 555.82 454.593H555.806Z" fill="#0E141B"/>
<path d="M603.359 451.599C606.17 450.548 611.398 446.423 613.645 443.402C616.797 439.172 620.318 429.123 620.87 423.146C620.922 422.528 622.998 421.858 622.945 422.476C622.433 428.006 619.963 438.725 616.219 443.743C613.684 447.159 607.155 452.466 603.924 453.687C603.793 453.74 602.781 451.822 603.359 451.599Z" fill="#0E141B"/>
<path d="M602.703 452.584C603.031 445.91 604.555 437.91 607.156 433.786C610.085 429.136 614.827 425.457 621.684 421.95C624.456 420.531 626.137 421.123 623.445 422.699C617.165 426.364 612.016 430.935 609.31 435.231C606.906 439.04 605.225 447.342 604.686 453.464C604.489 455.723 602.584 454.869 602.703 452.584Z" fill="#0E141B"/>
<path d="M556.542 454.62C555.478 454.436 540.753 449.431 537.232 444.479C534.789 441.037 531.387 430.528 533.725 420.886C533.869 420.282 536.037 420.82 535.892 421.411C533.541 431.067 537.508 440.669 539.229 443.086C542.132 447.185 555.399 452.479 556.923 452.807C557.514 452.938 556.595 454.633 556.529 454.62H556.542Z" fill="#0E141B"/>
<path d="M546.808 442.246C545.836 442.246 545.035 440.131 545.035 437.53C545.035 434.929 545.836 432.814 546.808 432.814C547.78 432.814 548.581 434.929 548.581 437.53C548.581 440.131 547.78 442.246 546.808 442.246Z" fill="#0E141B"/>
<path d="M609.363 442.246C610.19 442.246 610.86 440.135 610.86 437.53C610.86 434.926 610.19 432.814 609.363 432.814C608.536 432.814 607.865 434.926 607.865 437.53C607.865 440.135 608.536 442.246 609.363 442.246Z" fill="#0E141B"/>
</g>
<defs>
<clipPath id="clip0_42_70548">
<rect width="590.614" height="620" fill="white" transform="translate(105 90)"/>
</clipPath>
</defs>
</svg>
