<svg width="800" height="800" viewBox="0 0 800 800" fill="none" xmlns="http://www.w3.org/2000/svg">
<g clip-path="url(#clip0_42_70668)">
<path d="M377.89 297.441C349.532 313.691 329.514 363.624 335.116 429.224C336.103 440.817 317.559 442.138 316.795 437.87C309.052 394.749 272.089 336.837 228.508 324.284C226.312 323.658 223.073 323.491 222.211 325.34C221.405 327.05 222.267 331.193 224.408 332.291C293.913 367.906 302.643 434.409 302.018 446.864C298.25 522.208 159.114 537.972 147.354 538.5C143.864 538.653 141.473 540.572 141.654 544.033C141.807 546.938 145.63 549.01 149.258 548.704C234.5 541.447 275.314 510.142 304.534 485.245C305.854 484.119 309.483 481.659 312.624 484.898C346.168 519.484 395.989 532.745 416.396 533.774C474.809 536.749 534.32 500.397 555.408 457.512C556.283 455.719 565.917 451.813 569.684 445.822C589.396 414.349 602.964 349.181 582.07 305.712C577.233 307.783 555.491 345.386 509.77 303.001C482.176 277.437 499.052 243.171 515.65 234.191C474.156 219.316 423.333 244.561 401.188 275.588C397.727 280.426 391.902 276.103 386.328 279.147C379.35 282.956 381.713 295.258 377.918 297.427L377.89 297.441Z" fill="#F15B40"/>
<path d="M242.882 262.396C239.004 267.623 314.195 331.596 312.527 338.463C312.041 340.478 276.009 349.097 276.009 352.545C276.009 355.992 324.871 375.718 335.13 382.946C341.247 333.639 360.722 309.034 375.166 299.915C378.683 297.691 382.617 288.446 378.474 284.999C374.332 281.538 336.534 226.67 331.196 225.724C330.182 225.544 328.291 226.294 328.5 229.228C329.473 243.045 335.158 282.163 332.336 285.541C328.875 289.698 246.538 257.461 242.882 262.41V262.396Z" fill="#F5F19A"/>
<path d="M543.731 249.676C546.845 245.005 541.632 234.107 533.361 231.785C525.062 229.45 506.128 237.235 497.565 254.861C490.073 270.319 496.787 313.357 547.623 322.963C562.97 325.855 581.222 309.59 583.822 300.513C586.421 291.435 577.191 284.234 572.784 285.263C568.378 286.306 559.3 279.758 555.408 275.352C551.516 270.945 540.131 255.084 543.745 249.676H543.731Z" fill="#F4858E"/>
<path d="M541.645 249.941C540.867 244.242 522.976 248.898 518.305 266.025C513.468 283.749 531.79 301.556 547.359 304.67C556.297 306.463 571.213 298.97 572.52 293.257C573.813 287.558 565.778 284.36 562.622 281.844C554.838 275.616 542.813 258.462 541.645 249.941Z" fill="#8D3103"/>
<path d="M572.256 291.171C572.172 287.793 547.275 269.485 525.437 286.681C520.961 290.198 533.096 301.277 545.552 303.612C551.932 304.808 572.52 301.013 572.27 291.171H572.256Z" fill="#F3859B"/>
<path d="M235.528 344.175C232.901 339.977 235.904 339.046 237.252 339.963C304.172 385.712 303.422 443.54 299.613 461.876C292.134 497.866 226.187 528.268 162.547 536.567C153.623 537.735 154.318 534.384 156.32 532.98C176.727 518.801 181.092 477.376 184.053 470.981C186.124 466.491 222.587 444.639 225.2 439.843C229.648 431.683 224.922 407.175 225.937 402.032C226.284 400.294 238.615 379.442 239.31 370.115C239.657 365.499 240.686 352.474 235.501 344.175H235.528Z" fill="white"/>
<path d="M591.078 336.613C589.215 332.387 642.971 286.18 646.349 284.887C649.727 283.594 649.602 286.486 648.239 287.917C638.745 298.038 617.004 368.197 620.632 402.171C621.021 405.799 619.77 403.561 617.629 402.171C612.444 398.807 596.625 399.321 592.468 400.1C588.312 400.878 589.09 398.543 589.618 395.429C590.133 392.315 594.956 345.427 591.064 336.613H591.078Z" fill="white"/>
<path d="M592.913 351.599C595.665 349.361 630.432 327.05 632.684 326.536C634.936 326.021 633.657 329.413 632.448 329.413C631.239 329.413 595.276 354.421 593.886 354.949C592.51 355.464 590.147 353.865 592.913 351.613V351.599Z" fill="#061922"/>
<path d="M592.982 373.535C594.887 373.006 619.951 369.072 623.412 369.072C624.343 369.072 624.455 370.907 622.369 371.074C619.951 371.269 600.239 376.315 593.497 375.884C591.578 375.759 589.868 374.396 592.968 373.535H592.982Z" fill="#061922"/>
<path d="M234.861 338.268C271.56 361.997 307.37 406.759 300.099 460.014C299.293 465.936 299.015 462.933 298.473 461.056C284.294 411.958 263.206 385.323 237.961 376.676C241.075 366.654 241.784 354.17 234.861 338.268Z" fill="#D1D3D4"/>
<path d="M310.567 481.797C308.023 479.003 311.61 477.655 315.752 479.198C319.909 480.755 373.623 523.278 424.153 512.908C505.072 496.31 550.709 439.774 564.207 421.619C574.675 407.537 586.63 376.677 588.673 390.495C591.426 409.066 571.519 449.616 557.048 455.677C537.072 485.495 502.083 515.925 486.222 522.931C437.624 544.408 377.293 526.559 363.808 520.859C350.324 515.146 320.923 493.196 310.553 481.783L310.567 481.797Z" fill="#C74A34"/>
<path d="M444.393 531.744C399.576 525.197 342.609 460.973 331.738 403.02C331.599 405.647 331.182 408.288 330.612 410.915C342.122 459.347 385.786 519.233 437.901 533.607C438.527 533.774 445.033 531.841 444.393 531.758V531.744Z" fill="#061922"/>
<path d="M587.297 314.914C595.387 310.368 647.419 272.89 649.504 270.486C650.922 268.845 657.386 266.51 658.29 267.803C660.055 270.319 649.796 283.789 648.49 284.276C640.802 287.153 594.65 328.078 593.121 333.138C591.05 340.047 583.613 316.985 587.283 314.914H587.297Z" fill="#F15B40"/>
<path d="M659.069 271.973C662.155 265.44 657.539 263.09 645.96 272.057C635.311 280.3 592.204 311.536 587.033 312.731C584.461 313.329 584.934 318.181 589.285 315.609C601.615 308.325 636.034 282.983 648.281 273.211C656.622 266.566 658.707 268.178 656.622 271.654C653.536 276.797 648.087 282.177 640.01 288.377C623.162 301.305 601.379 321.239 590.23 333.083C588.465 334.959 589.924 339.408 591.662 337.17C604.326 320.78 627.388 301.833 643.027 289.141C649.949 283.525 656.483 277.478 659.096 271.959L659.069 271.973Z" fill="#061922"/>
<path d="M648.976 283.956C638.217 295.313 615.613 367.849 619.242 401.059C613.542 398.404 595.916 396.749 589.173 399.46C588.409 399.766 587.811 402.115 589.243 401.726C595.109 400.127 613.167 400.697 620.395 405.507C620.771 406.021 621.494 405.632 621.841 404.895C622.133 404.27 622.064 403.352 622.064 403.213C621.118 359.689 640.413 301.791 653.16 279.549C653.716 278.576 651.186 281.634 648.99 283.956H648.976Z" fill="#061922"/>
<path d="M565.792 280.606C562.636 281.051 560.509 279.828 555.908 275.532C554.546 274.253 556.311 274.198 560.37 273.322C571.338 270.959 583.877 273.294 590.786 277.951C595.763 281.315 604.701 288.933 606.564 301.903C608.83 317.82 615.405 356.965 617.921 365.751C620.687 375.44 626.276 398.001 638.564 401.393C641.609 402.227 647.072 401.171 649.644 399.044C651.896 397.195 652.952 398.752 652.521 400.253C651.478 403.882 646.808 408.636 639.023 408.288C630.307 407.899 625.303 404.646 619.186 393.553C610.929 378.595 603.103 327.648 599.252 301.666C597.806 291.88 582.918 278.16 565.806 280.578L565.792 280.606Z" fill="#F5F19A"/>
<path d="M233.805 336.391C253.836 372.547 230.858 394.706 228.314 400.53C225.895 406.063 232.623 429.778 225.256 442.109C220.015 450.88 189.377 464.851 186.04 471.941C183.969 476.347 180.897 518.885 155.319 536.776C154.249 537.526 149.314 537.679 152.177 535.733C175.35 520.08 179.924 481.532 181.745 471.412C183.121 463.725 219.639 446.654 222.92 439.565C230.177 423.912 221.294 407.272 224.852 398.445C228.481 389.451 250.514 374.521 230.524 335.862C229.162 333.235 232.887 334.722 233.805 336.377V336.391Z" fill="#061922"/>
<path d="M570.435 285.401C571.561 286.569 575.189 289.766 573.034 294.631C569.184 303.347 551.891 305.877 547.609 305.363C530.636 303.333 516.623 286.902 515.762 275.128C515.011 264.716 523.574 246.923 536.85 246.7C540.172 246.645 543.008 248.911 543.786 251.107C544.398 252.858 543.397 253.623 542.813 252.594C540.742 248.966 537.823 249.411 536.46 249.411C525.409 249.411 517.694 265.759 518.75 274.572C520.822 291.782 538.768 302.819 549.416 302.652C557.84 302.527 568.475 298.26 570.81 293.769C572.617 290.266 570.226 286.916 569.642 286.179C568.544 284.817 569.114 284.039 570.421 285.401H570.435Z" fill="#061922"/>
<path d="M569.198 284.887C569.323 283.789 582.793 282.635 584.753 295.326C586.991 309.798 563.498 324.908 548.916 324.171C526.938 323.059 504.724 305.113 496.258 284.233C488.182 264.327 498.886 242.46 514.26 234.273C541.34 219.857 550.57 246.825 543.606 253.567C543.23 253.929 541.437 251.955 541.924 251.107C544.176 247.173 541.757 238.29 535.696 234.829C530.691 231.965 525.006 232.146 517.805 235.927C499.094 245.727 492.992 265.87 499.386 283.149C508.783 308.505 536.391 320.668 547.887 321.016C565 321.53 582.376 306.239 582.126 297.676C581.778 286.193 569.045 286.458 569.225 284.901L569.198 284.887Z" fill="#061922"/>
<path d="M398.728 276.269C384.215 274.823 381.087 280.216 379.378 286.124C357.191 363.095 468.776 466.603 538.282 461.418C557.701 459.972 566.932 451.048 569.99 447.211C584.419 429.084 608.969 360.565 582.432 303.028C582.195 302.514 580.166 305.878 580.471 306.517C599.321 345.983 590.425 413.292 567.641 444.931C562.303 452.34 548.735 457.929 535.237 457.873C471 457.623 375.026 376.496 380.128 299.289C380.851 288.39 386.495 275.991 395.433 281.37C398.464 283.191 401.063 276.505 398.728 276.269Z" fill="#061922"/>
<path d="M519.863 234.12C502.806 225.182 471.82 226.794 446.826 237.749C419.677 249.634 404.094 266.705 395.934 280.981C394.196 284.012 394.905 284.248 398.283 281.134C401.661 278.02 416.341 254.208 444.922 241.766C472.932 229.575 502.723 229.658 514.914 235.622C516.874 236.581 520.641 234.524 519.876 234.12H519.863Z" fill="#061922"/>
<path d="M311.137 337.781C301.906 341.173 289.632 344.884 280.248 347.817C272.603 350.208 272.088 353.35 277.621 355.991C290.73 362.261 323.05 377.594 332.961 383.766C335.394 385.281 338.786 383.585 334.935 380.263C331.099 376.94 283.612 355.991 279.776 354.407C277.704 353.545 277.357 351.585 281.486 350.403C289.326 348.137 306.549 343.021 313.264 340.714C316.016 339.769 312.86 337.141 311.137 337.781Z" fill="#061922"/>
<path d="M332.989 284.736C320.895 281.524 258.966 262.841 246.455 259.908C241.2 258.671 238.934 263.008 242.229 267.012C245.287 270.751 300.363 324.562 311.359 339.492C312.249 340.702 313.444 342.564 314.181 343.927C315.835 346.985 317.476 347.096 316.947 343.51C316.6 341.146 315.432 338.575 313.667 336.142C302.032 320.211 249.277 270.459 246.232 267.401C243.383 264.551 244.592 261.952 247.275 262.855C249.068 263.453 324.607 286.918 332.489 289.615C332.753 289.698 332.975 289.726 333.198 289.712V284.833C333.198 284.833 333.073 284.777 333.003 284.75L332.989 284.736Z" fill="#061922"/>
<path d="M380.212 283.831C376.917 280.231 338.522 230.548 335.311 226.058C332.906 222.694 325.872 223.5 326.247 228.282C326.303 229.061 332.878 257.475 330.585 290.337C330.265 294.994 332.809 294.994 333.698 292.575C337.535 282.08 330.612 234.093 329.542 229.283C329.194 227.712 331.766 226.1 333.865 229.061C340.899 239.028 374.887 285.18 377.904 288.196C381.393 291.685 384.507 288.516 380.212 283.831Z" fill="#061922"/>
<path d="M569.226 284.345C558.994 278.77 545.538 261.172 544.329 251.316C544.079 249.244 540.673 248.327 541.006 249.828C544.065 263.66 554.935 280.105 571.533 288.654C574.008 289.933 570.783 285.179 569.226 284.331V284.345Z" fill="#061922"/>
<path d="M299.849 463.545C294.303 437.022 247.664 396.014 233.457 388.368C231.678 387.409 230.761 389.105 232.012 389.897C268.433 413.376 294.525 449.755 297.764 463.504C298.167 465.214 300.475 466.492 299.849 463.531V463.545Z" fill="#061922"/>
<path d="M181.606 483.27C209.659 489.081 271.672 483.701 298.292 465.546C300.127 464.295 300.447 461.709 298.417 463.113C276.884 477.932 222.851 486.398 182.482 481.046C180.411 480.768 180.077 482.95 181.606 483.256V483.27Z" fill="#061922"/>
<path d="M355.092 347.972C352.02 341.814 351.909 328.121 355.885 321.907C356.496 320.962 358.776 317.236 359.124 317.932C359.471 318.627 352.854 332.82 356.747 344.775C357.08 345.817 355.69 349.195 355.092 347.972Z" fill="#061922"/>
<path d="M372.941 380.917C365.504 377.817 356.927 370.491 354.342 364.069C352.84 360.302 355.495 346.081 356.955 343.162C358.693 339.672 366.825 326.731 376.264 317.848C377.987 316.221 380.879 317.292 379.808 318.293C368.201 329.094 359.999 343.37 359.582 344.871C357.511 352.392 356.149 357.966 357.066 362.901C357.886 367.391 369.702 376.858 375.152 378.067C376.5 378.359 375.124 381.821 372.941 380.917Z" fill="#061922"/>
<path d="M429.978 409.233C426.294 415.211 414.728 430.683 410.224 431.308C404.066 432.156 387.982 428.264 380.017 421.425C375.958 417.936 368.34 396.347 370.286 388.062C372.024 380.653 386.384 362.581 391.485 358.772C392.472 358.049 394.28 360.371 393.181 361.205C387.218 365.737 373.928 385.004 373.205 387.923C371.384 395.318 380.559 417.241 382.783 419.284C385.897 422.134 402.231 427.972 409.112 427.847C410.85 427.819 425.321 411.374 427.267 406.968C427.823 405.703 430.339 408.622 429.978 409.22V409.233Z" fill="#061922"/>
<path d="M521.28 454.051C534.014 437.245 564.513 369.435 552.919 323.088C552.655 322.046 549.333 319.683 550.084 322.171C558.647 350.696 542.132 420.424 516.262 454.885C514.052 457.832 512.759 465.311 521.28 454.065V454.051Z" fill="#061922"/>
<path d="M585.698 408.51C577.024 419.006 549.75 418.714 540.686 416.253C539.463 415.92 540.492 411.972 541.395 412.889C542.299 413.793 569.531 417.685 585.351 406.147C586.324 405.452 587.199 406.689 585.698 408.524V408.51Z" fill="#061922"/>
<path d="M473.183 439.01C470.833 443.723 459.601 459.779 456.849 460.668C448.8 463.268 427.948 459.334 423.597 456.29C419.246 453.245 411.336 435.382 410.169 430.711C409.905 429.669 413.352 426.333 413.547 427.472C414.839 435.507 424.765 452.703 426.002 453.773C429.116 456.498 448.883 459.529 455.111 458.111C456.821 457.721 469.374 439.191 470.152 438.288C470.931 437.384 473.6 438.232 473.21 439.01H473.183Z" fill="#061922"/>
<path d="M520.127 455.344C517.666 460.89 499.762 484.022 496.273 486.204C492.783 488.387 473.377 489.096 469.374 487.177C462.368 483.799 453.971 461.558 453.346 460.32C452.053 457.721 456.654 458.43 457.169 460.237C457.683 462.058 464.898 480.88 470.597 484.244C472.488 485.356 493.117 485.134 495.452 483.327C497.788 481.52 514.844 458.055 515.373 456.762C515.887 455.469 521.169 453.022 520.141 455.358L520.127 455.344Z" fill="#061922"/>
<path d="M459.212 294.327C447.577 277.187 428.351 268.43 417.578 276.061C405.804 284.388 405.985 307.547 418.343 324.548C430.701 341.55 449.648 346.999 460.727 339.395C469.999 333.042 471.028 311.704 459.226 294.313L459.212 294.327Z" fill="white"/>
<path d="M461.13 292.395C448.953 274.184 428.921 266.08 416.98 274.643C403.941 283.984 403.482 307.894 416.438 325.938C429.394 343.982 449.259 349 461.52 340.479C471.793 333.347 473.475 310.869 461.13 292.395ZM459.56 338.31C448.925 345.608 430.353 339.784 418.496 323.436C406.638 307.088 407.263 284.624 418.551 276.617C428.894 269.277 447.744 277.896 458.906 294.369C470.222 311.092 468.456 332.194 459.56 338.31Z" fill="#061922"/>
<path d="M572.173 289.809C562.664 275.797 537.225 273.184 524.172 287.015C522.893 288.378 524.186 290.296 524.964 289.184C532.916 277.771 560.927 276.77 571.478 292.326C571.728 292.701 573.674 292.02 572.173 289.796V289.809Z" fill="#061922"/>
<path d="M650.186 397.598C645.849 400.531 641.206 401.448 635.979 398.877C620.674 391.356 610.498 325.367 608.413 305.127C605.229 274.086 575.842 266.718 554.671 273.405C552.961 273.947 554.351 275.351 556.937 274.837C572.214 271.778 599.725 274.322 605.438 302.333C608.121 315.484 613.806 387.728 634.477 400.878C638.87 403.672 644.695 403.186 648.726 400.503C651.52 398.64 652.354 399.446 650.255 402.213C644.57 409.692 630.363 408.913 623.857 398.168C608.552 372.881 602.394 312.967 601.295 304.668C598.696 285.221 575.356 274.851 561.093 280.286C559.828 280.772 563.47 282.288 565.097 281.968C577.636 279.507 595.109 287.987 598.64 304.043C598.835 304.919 598.988 305.822 599.085 306.754C602.268 334.417 609.719 382.348 621.647 400.114C630.196 412.847 646.961 412.277 652.452 402.588C655.496 397.222 652.952 395.735 650.172 397.612L650.186 397.598Z" fill="#061922"/>
<path d="M553.489 456.15C552.447 458.569 496.37 561.479 376.625 522.889C348.211 513.728 318.393 487.705 315.071 483.424C309.538 476.292 304.687 482.506 298.125 488.373C249.027 532.286 189.196 543.254 149.091 547.049C145.574 547.383 143.503 544.631 143.322 543.352C142.975 540.933 148.799 539.028 151.176 538.82C219.292 532.94 289.687 502.58 299.738 466.923C319.797 395.694 245.371 340.437 229.76 333.625C224.519 331.345 223.157 328.343 223.893 326.285C224.588 324.381 230.482 325.757 231.608 326.202C272.617 342.466 308.913 397.987 313.945 437.008C315.071 445.738 340.343 443.333 338.425 428.361C335.45 405.133 330.473 333.152 379.239 298.914C379.67 298.608 381.949 290.962 379.405 292.825C329.431 329.455 330.918 399.572 335.575 427.583C336.687 434.269 323.565 443.389 317.545 435.284C306.41 386.171 273.757 341.549 232.276 323.588C227.369 321.462 222.475 322.351 221.057 324.284C218.055 328.37 222.587 333.792 229.426 336.822C253.461 347.471 314.793 404.243 297.25 464.407C285.823 503.594 203.584 532.425 150.495 535.97C144.601 536.359 140.125 540.015 140.028 542.67C139.875 546.952 145.018 549.746 150.148 549.426C199.705 546.257 260.259 531.48 305.882 485.856C311.248 482.423 315.752 489.457 320.284 493.516C336.534 508.043 359.582 521.721 377 527.157C473.488 557.197 535.946 497.992 557.729 457.54C561.608 450.339 553.962 455.107 553.503 456.164L553.489 456.15Z" fill="#061922"/>
<path d="M434.927 307.671C436.08 309.284 437.971 309.909 439.139 309.075C440.306 308.241 440.306 306.253 439.139 304.641C437.985 303.028 436.094 302.402 434.927 303.237C433.759 304.071 433.759 306.058 434.927 307.671Z" fill="#061922"/>
<path d="M476.547 513.603C476.088 525.488 477.381 561.047 479.841 569.972C481.009 574.239 482.01 575.171 484.679 571.696C488.279 567.025 499.761 548.189 500.456 549.12C502.528 551.886 521.92 571.126 522.935 572.293C525.951 575.769 527.341 575.31 528.495 571.598C529.538 568.262 533.597 550.747 534.584 542.92C534.89 540.487 535.348 536.734 537.767 537.082C540.186 537.429 566.209 545.784 568.586 546.354C574.397 547.744 574.842 547.285 574.383 543.115C573.604 536.053 570.713 518.551 569.517 509.516C582.723 506.499 599.641 503.024 607.05 501.175C613.987 499.437 616.67 497.936 612.152 494.683C598.334 484.758 565.347 466.645 543.633 459.18C528.759 482.005 502.166 507.736 476.574 513.617L476.547 513.603Z" fill="#F5F19A"/>
<path d="M564.471 469.607C568.016 471.678 551.446 498.66 529.204 515.772C506.045 533.594 476.38 542.365 476.56 536.527C476.825 527.713 476.296 520.707 476.825 513.965C496.536 510.851 534.403 479.476 543.995 459.236C550.737 463.379 558.257 465.978 564.485 469.607H564.471Z" fill="#CAC881"/>
<path d="M492.63 304.919C484.095 309.924 478.437 321.392 477.826 335.001C477.311 346.678 484.581 369.754 490.809 399.572C498.413 436.021 499.47 449.324 496.509 465.45C494.382 477.043 486.917 484.967 474.878 483.007C463.952 481.241 461.005 475.945 459.573 477.238C456.348 480.143 470.847 494.767 489.085 487.83C498.622 484.202 502.959 477.502 504.613 467.215C505.85 459.458 507.88 439.01 504.279 422.412C496.245 385.323 486.5 339.324 488.807 330.344C491.56 319.64 493.52 316.11 499.567 312.843C505.642 309.562 502.486 299.136 492.602 304.933L492.63 304.919Z" fill="#F5F19A"/>
<path d="M612.611 493.46C599.766 483.201 561.955 463.879 550.278 458.485C548.986 457.887 541.284 457.915 540.826 459.041C533.945 476.223 501.43 505.512 476.95 511.476C474.323 512.115 473.711 512.977 473.697 514.771C473.641 528.032 475.49 558.962 478.813 571.682C480.425 577.896 481.092 577.826 486.125 571.932C491.171 566.01 494.91 560.144 499.803 550.927C507.894 559.741 515.595 567.651 522.573 573.517C527.772 577.896 528.509 576.853 529.899 571.585C532.429 562.007 535.376 549.607 537.517 537.972C550.209 542.531 558.341 545.325 570.129 547.994C575.384 549.19 575.815 548.926 575.509 544.352C574.953 535.873 572.993 521.082 570.671 510.684C586.463 507.667 600.865 504.414 611.791 501.231C617.296 499.618 617.699 497.505 612.625 493.446L612.611 493.46ZM574.022 506.611C567.279 507.973 566.821 508.181 568.419 516.467C570.157 525.447 572.743 543.685 571.992 544.297C570.616 545.423 551.919 539.167 541.562 536.109C535.654 534.357 535.293 534.482 533.931 539.626C531.262 549.704 527.314 571.626 526.229 571.765C524.686 571.974 509.326 556.293 502.57 549.704C499.915 547.119 498.858 547.077 496.815 550.205C493.687 554.973 482.663 571.932 481.787 571.765C480.411 571.501 477.395 525.377 477.701 515.41C477.701 515.132 477.728 514.882 477.742 514.632C504.933 507.612 535.835 480.31 543.814 459.736C543.828 459.736 543.842 459.75 543.856 459.764C556.478 464.879 609.011 493.46 613.112 497.505C602.31 500.216 587.408 503.9 574.008 506.611H574.022Z" fill="#061922"/>
<path d="M297.083 421.286C295.053 420.758 296.735 417.755 297.43 417.491C305.382 414.377 418.857 387.993 425.766 391.106C432.674 394.22 473.141 407.009 472.098 414.28C471.056 421.536 470.096 422.982 466.176 423.371C442.669 425.79 408.778 470.746 398.742 502.899C397.101 508.182 396.24 505.36 395.28 500.828C392.167 485.954 339.954 432.365 297.069 421.3L297.083 421.286Z" fill="white"/>
<path d="M293.037 418.617C292.301 418.853 313.361 426.735 313.722 426.693C346.015 422.759 400.604 402.742 453.443 429.46C458.072 426.916 462.478 424.358 467.233 423.454C472.418 422.44 472.223 419.173 472.265 417.463C472.362 413.362 470.958 409.664 465.189 406.801C452.192 400.351 427.392 389.855 425.182 390.078C407.486 391.954 315.099 411.402 293.051 418.631L293.037 418.617Z" fill="#D1D3D4"/>
<path d="M269.586 414.64C268.947 411.915 274.215 409.149 278.038 408.829C290.827 407.787 414.534 379.609 420.761 373.381C422.582 371.56 431.59 370.893 433.272 373.381C438.221 380.68 470.013 387.908 477.589 386.004C480.355 385.309 475.699 421.007 474.823 414.71C473.78 407.147 428.977 390.508 425.863 390.063C421.345 389.423 313.25 413 294.956 417.629C287.032 419.644 270.365 417.949 269.586 414.626V414.64Z" fill="#F15B40"/>
<path d="M476.713 385.781C466.468 384.752 441.613 378.483 435.524 373.632C430.589 369.698 424.515 368.891 419.719 372.228C408.25 380.221 300.447 403.491 278.97 407.147C270.601 408.565 267.46 412.11 267.626 413.82C268.238 419.825 285.017 420.353 296.346 418.449C332.725 412.332 418.343 389.104 426.961 391.661C435.246 394.122 461.394 405.382 466.524 409.691C472.64 414.835 472.418 420.798 466.343 422.369C437.498 429.778 405.387 473.289 397.324 505.095C396.601 507.972 399.284 509.14 400.16 505.387C405.54 482.616 437.86 433.003 467.094 424.857C478.256 421.743 473.739 411.679 469.207 407.745C462.965 402.31 434.732 391.647 428.393 388.408C423.653 385.99 332.517 408.079 295.985 415.307C284.683 417.545 272.784 416.961 270.851 414.139C270.087 413.027 274.869 410.984 278.038 410.428C305.674 405.576 396.99 386.56 424.932 374.396C428.671 372.77 431.02 375.23 433.648 377.065C440.974 382.153 464.87 388.547 474.962 388.506C480.689 388.492 482.649 386.365 476.7 385.767L476.713 385.781Z" fill="#061922"/>
<path d="M396.865 499.952C375.93 461.348 331.363 428.597 293.872 418.213C291.773 418.213 288.311 418.38 286.615 418.797C314.932 424.635 375.096 460.375 395.614 504.539C398.714 511.198 400.215 506.151 396.851 499.952H396.865Z" fill="#061922"/>
<path d="M326.345 434.227C354.23 414.877 433.731 400.253 470.027 412.458C473.85 413.751 474.531 416.684 470.458 415.669C420.928 403.45 355.162 418.644 328.652 435.701C328.263 435.951 325.01 435.159 326.359 434.227H326.345Z" fill="#061922"/>
<path d="M367.061 464.741C384.966 439.079 431.243 416.643 468.428 414.377C472.446 414.127 475.031 416.379 470.847 416.796C419.01 422.036 386.036 444.751 369.41 465.95C368.979 466.492 365.671 466.728 367.047 464.741H367.061Z" fill="#061922"/>
<path d="M506.504 429.668C501.638 398.321 489.336 353.087 490.629 332.082C491.032 325.521 493.743 316.832 499.053 314.442C504.057 312.19 505.267 307.199 502.695 304.071C500.429 301.333 497.246 301.305 491.129 304.558C480.231 310.355 473.614 328.412 477.993 350.042C482.844 374.022 504.836 445.946 493.548 471.163C488.015 483.521 472.752 484.953 461.978 476.153C458.795 473.554 456.599 477.78 458.253 480.421C465.662 492.209 484.095 495.323 497.037 484.911C506.698 477.14 510.313 454.217 506.504 429.668ZM495.063 482.548C486.597 489.234 470.041 490.903 460.839 480.449C459.379 478.795 460.171 477.168 461.784 478.392C475.407 488.748 489.836 485.217 495.48 474.027C509.228 446.794 487.265 380.667 481.051 350.237C477.158 331.178 481.218 311.731 493.798 305.809C497.718 303.96 499.192 304.03 500.568 305.531C502.333 307.463 501.736 310.035 497.843 312.148C493.103 314.706 489.002 321.628 487.418 331.86C484.623 349.987 499.901 402.38 503.821 432.073C506.865 455.163 503.334 476.028 495.063 482.576V482.548Z" fill="#061922"/>
</g>
<defs>
<clipPath id="clip0_42_70668">
<rect width="520" height="352.352" fill="white" transform="translate(140 224)"/>
</clipPath>
</defs>
</svg>
