<svg width="800" height="800" viewBox="0 0 800 800" fill="none" xmlns="http://www.w3.org/2000/svg">
<g clip-path="url(#clip0_42_59355)">
<path d="M534.284 506.026C524.204 496.214 529.525 481.349 526.557 471.429C524.632 465.013 518.108 459.585 512.44 454.104C506.799 448.596 506.745 446.056 515.328 445.762C546.075 444.666 563.855 452.045 574.335 462.259C591.072 478.541 588.452 502.417 577.651 511.24C567.517 519.502 548.374 519.769 534.284 506.053V506.026Z" fill="#0E141B"/>
<path d="M574.523 506.053C582.945 498.193 583.052 479.29 570.058 466.644C557.678 454.612 538.669 451.163 522.279 450.04C512.627 449.372 515.568 451.243 520.515 455.681C525.087 459.745 530.167 465.253 531.236 470.253C533.268 479.744 530.568 495.198 538.375 502.791C549.952 514.074 565.405 514.582 574.523 506.08V506.053Z" fill="#CBD4CD"/>
<path d="M574.523 506.053C580.431 500.546 582.249 489.584 578.319 479.156C575.191 499.53 552.251 504.69 534.177 495.492C535.059 498.273 536.369 500.786 538.401 502.765C549.978 514.047 565.432 514.555 574.549 506.053H574.523Z" fill="#A7AEA9"/>
<path d="M519.659 510.732C534.578 500.091 558.294 502.631 572.197 522.122C584.228 538.992 581.073 562.601 564.71 572.921C555.326 578.83 527.974 579.899 515.969 563.055C504.045 546.345 502.735 522.817 519.659 510.759V510.732Z" fill="#0E141B"/>
<path d="M518.884 558.858C529.552 573.803 548.882 578.295 562.09 568.884C575.298 559.473 577.33 539.714 566.689 524.768C556.021 509.823 536.69 505.331 523.482 514.742C510.275 524.154 508.243 543.912 518.884 558.858Z" fill="#E4C584"/>
<path d="M568.026 526.881C568.828 537.094 564.924 546.96 556.716 552.842C543.508 562.253 524.178 557.762 513.51 542.816C513.029 542.121 512.574 541.426 512.146 540.704C512.627 546.907 514.847 553.216 518.857 558.858C529.525 573.804 548.856 578.295 562.063 568.884C574.656 559.901 577.063 541.533 568.026 526.881Z" fill="#BFA66F"/>
<path d="M492.254 549.821C508.162 535.972 534.819 539.127 551.502 557.307C569.041 576.424 565.86 604.872 551.983 616.636C537.252 629.122 508.884 629.015 491.586 609.15C473.913 588.83 477.148 562.949 492.254 549.821Z" fill="#0E141B"/>
<path d="M495.516 606.262C509.686 622.571 532.84 625.619 547.224 613.107C561.609 600.594 561.796 577.226 547.599 560.944C533.428 544.661 510.274 541.586 495.89 554.099C481.506 566.612 481.319 589.98 495.516 606.262Z" fill="#E4C584"/>
<path d="M549.604 563.457C551.449 575.087 547.973 586.771 539.203 594.391C524.819 606.904 501.665 603.856 487.495 587.547C486.773 586.745 486.131 585.889 485.49 585.033C486.666 592.466 489.981 599.899 495.516 606.262C509.686 622.572 532.84 625.62 547.224 613.107C560.887 601.209 561.689 579.552 549.604 563.457Z" fill="#BFA66F"/>
<path d="M474.341 571.692C503.51 569.152 530.407 595.381 531.771 622.786C533.321 653.56 503.858 667.142 490.142 667.409C457.122 668.051 430.091 648.453 428.541 617.813C427.498 596.931 445.866 574.179 474.341 571.692Z" fill="#0E141B"/>
<path d="M454.235 649.656C473.084 666.687 500.569 667.035 515.622 650.378C530.675 633.748 527.6 606.423 508.751 589.392C489.901 572.36 462.416 572.013 447.39 588.67C432.337 605.3 435.412 632.625 454.261 649.656H454.235Z" fill="#E4C584"/>
<path d="M516.344 598.055C518.643 610.166 515.862 622.545 507.601 631.689C492.548 648.319 465.063 647.999 446.214 630.967C443.273 628.321 440.786 625.406 438.62 622.332C440.492 632.251 445.759 642.01 454.235 649.683C473.084 666.714 500.569 667.062 515.622 650.405C528.322 636.368 528.054 614.712 516.344 598.055Z" fill="#BFA66F"/>
<path d="M390.067 588.349C423.648 574.019 467.95 589.793 482.174 623.054C492.468 647.17 483.966 688.852 440.037 698.531C398.81 707.595 374.613 695.724 359.721 660.859C349.908 637.919 357.635 602.172 390.067 588.349Z" fill="#0E141B"/>
<path d="M401.403 690.349C432.15 702.702 465.892 690.697 476.8 663.559C487.709 636.422 471.613 604.418 440.866 592.066C410.119 579.713 376.377 591.718 365.469 618.856C354.56 645.993 370.656 677.997 401.403 690.349Z" fill="#E4C584"/>
<path d="M476.265 626.262C476.372 632.465 475.276 638.694 472.87 644.683C461.961 671.821 428.22 683.826 397.473 671.473C380.548 664.682 368.062 651.902 362.1 637.277C362.421 659.174 377.474 680.724 401.43 690.349C432.177 702.702 465.918 690.697 476.827 663.559C481.72 651.367 481.158 638.186 476.292 626.262H476.265Z" fill="#BFA66F"/>
<path d="M319.081 655.913C319.081 622.091 343.812 595.996 386.992 595.996C427.846 595.996 455.518 623.348 455.518 653.052C455.518 684.28 430.065 713.343 390.174 714.011C340.764 714.84 319.108 681.794 319.108 655.913H319.081Z" fill="#0E141B"/>
<path d="M386.965 709.306C421.081 709.306 448.754 684.895 448.754 654.763C448.754 624.631 421.108 600.221 386.965 600.221C352.823 600.221 325.177 624.631 325.177 654.763C325.177 684.895 352.849 709.306 386.965 709.306Z" fill="#E4C584"/>
<path d="M436.829 622.572C437.631 626.048 438.032 629.657 438.032 633.374C438.032 663.506 410.387 687.917 376.244 687.917C355.764 687.917 337.609 679.12 326.38 665.565C332.048 690.51 357.02 709.306 386.939 709.306C421.054 709.306 448.727 684.895 448.727 654.763C448.727 642.732 444.289 631.609 436.829 622.572Z" fill="#BFA66F"/>
<path d="M322.905 603.99C322.905 568.483 353.866 544.447 390.815 544.447C431.161 544.447 459.582 571.772 459.582 604.23C459.582 638.72 431.214 662.249 392.714 662.516C349.427 662.81 322.905 635.699 322.905 603.99Z" fill="#0E141B"/>
<path d="M390.816 657.784C424.931 657.784 452.604 633.373 452.604 603.241C452.604 573.109 424.958 548.698 390.816 548.698C356.673 548.698 329.027 573.109 329.027 603.241C329.027 633.373 356.7 657.784 390.816 657.784Z" fill="#E4C584"/>
<path d="M439.61 569.793C441.107 574.472 441.909 579.418 441.909 584.525C441.909 614.657 414.264 639.067 380.121 639.067C360.282 639.067 342.636 630.806 331.327 617.972C338.599 640.939 362.475 657.783 390.816 657.783C424.931 657.783 452.604 633.373 452.604 603.24C452.604 590.648 447.738 579.044 439.61 569.793Z" fill="#BFA66F"/>
<path d="M299.563 540.356C299.563 507.283 328.653 470.601 379.239 470.601C429.824 470.601 460.865 509.689 460.865 536.64C460.865 577.333 424.958 609.577 379.586 609.577C339.989 609.577 299.59 582.466 299.59 540.33L299.563 540.356Z" fill="#0E141B"/>
<path d="M379.559 604.444C419.638 604.444 452.123 575.755 452.123 540.356C452.123 504.957 419.638 476.269 379.559 476.269C339.481 476.269 306.996 504.957 306.996 540.356C306.996 575.755 339.481 604.444 379.559 604.444Z" fill="#E4C584"/>
<path d="M440.706 505.866C427.819 488.086 405.253 476.269 379.559 476.269C344.107 476.269 314.616 498.701 308.28 528.378C330.204 546.88 414.397 550.65 440.706 505.866Z" fill="#BFA66F"/>
<path d="M449.369 522.817C440.546 569.499 405.895 585.033 366.619 585.033C344.534 585.033 324.776 576.317 311.488 562.601C321.728 587.039 348.331 604.444 379.559 604.444C419.638 604.444 452.123 575.756 452.123 540.357C452.123 534.261 451.16 528.379 449.369 522.817Z" fill="#BFA66F"/>
<path d="M420.814 534.1C420.814 521.239 431.883 509.422 444.235 509.422C457.202 509.422 468.512 520.437 468.512 533.324C468.512 546.211 457.202 557.494 445.385 557.494C427.097 557.494 420.814 543.645 420.814 534.1Z" fill="#0E141B"/>
<path d="M444.262 553.751C454.582 553.751 462.951 544.714 462.951 533.592C462.951 522.47 454.582 513.433 444.262 513.433C433.942 513.433 425.573 522.47 425.573 533.592C425.573 544.714 433.942 553.751 444.262 553.751Z" fill="#E9538E"/>
<path d="M439.797 527.015C441.989 524.823 442.497 521.775 440.92 520.197C439.342 518.62 436.294 519.128 434.102 521.32C431.909 523.513 431.401 526.56 432.979 528.138C434.556 529.715 437.604 529.207 439.797 527.015Z" fill="#F4B4C9"/>
<path d="M456.293 518.139C457.149 520.438 457.603 522.925 457.603 525.545C457.603 536.694 449.235 545.704 438.915 545.704C434.343 545.704 430.145 543.913 426.883 540.972C429.61 548.431 436.348 553.725 444.262 553.725C454.582 553.725 462.951 544.688 462.951 533.566C462.951 527.363 460.357 521.828 456.293 518.139Z" fill="#CA477C"/>
<path d="M422.552 620.379C425.252 607.091 438.567 600.647 448.994 602.786C460.411 605.112 468.432 616.903 465.785 629.897C463.726 639.95 452.657 648.613 439.717 645.992C426.188 643.239 420.359 631.154 422.552 620.405V620.379Z" fill="#0E141B"/>
<path d="M440.385 642.302C449.475 644.147 458.486 637.703 460.491 627.891C462.496 618.079 456.748 608.614 447.631 606.742C438.54 604.871 429.53 611.341 427.525 621.153C425.519 630.966 431.268 640.43 440.385 642.302Z" fill="#E9538E"/>
<path d="M441.267 617.918C443.593 616.394 444.583 613.774 443.487 612.117C442.39 610.459 439.61 610.325 437.284 611.876C434.958 613.427 433.968 616.02 435.064 617.678C436.161 619.362 438.941 619.469 441.267 617.918Z" fill="#F4B4C9"/>
<path d="M457.389 613.078C457.71 615.244 457.684 617.543 457.229 619.842C455.224 629.655 446.214 636.125 437.123 634.254C433.086 633.425 429.717 631.099 427.364 627.917C428.434 635.002 433.433 640.884 440.385 642.301C449.475 644.146 458.486 637.703 460.491 627.89C461.614 622.436 460.304 617.089 457.389 613.078Z" fill="#CA477C"/>
<path d="M423.595 688.478C430.6 681.125 442.631 680.644 451.32 688.184C459.368 695.162 460.224 707.755 453.753 714.546C446.294 722.38 432.23 721.043 425.653 714.626C417.98 707.14 416.269 696.178 423.595 688.478Z" fill="#0E141B"/>
<path d="M428.514 711.658C434.797 717.112 444.422 716.818 449.957 710.963C455.518 705.134 454.93 695.963 448.647 690.509C442.364 685.055 432.765 685.349 427.204 691.204C421.643 697.033 422.231 706.203 428.514 711.658Z" fill="#E9538E"/>
<path d="M439.155 695.295C441.588 695.295 443.406 693.958 443.246 692.301C443.059 690.643 440.973 689.306 438.54 689.279C436.107 689.279 434.289 690.616 434.45 692.274C434.637 693.931 436.722 695.268 439.155 695.295Z" fill="#F4B4C9"/>
<path d="M453.62 699.358C452.978 701.016 452.042 702.566 450.732 703.93C445.171 709.759 435.573 710.08 429.29 704.625C426.509 702.219 424.825 699.064 424.317 695.775C422.258 701.149 423.728 707.459 428.541 711.657C434.824 717.111 444.449 716.817 449.984 710.962C453.085 707.727 454.262 703.449 453.62 699.358Z" fill="#CA477C"/>
<path d="M467.389 658.318C474.554 653.719 486.024 654.655 492.521 662.81C497.762 669.36 498.109 680.482 489.447 686.044C482.549 690.482 470.009 688.289 465.063 682.087C460.357 676.178 458.058 664.307 467.389 658.318Z" fill="#0E141B"/>
<path d="M489.019 664.439C487.843 662.969 486.425 661.792 484.848 660.91C487.923 666.364 486.532 672.915 481.212 676.364C476.8 679.198 470.972 679.064 466.373 676.444C466.721 677.059 467.095 677.674 467.549 678.262C472.121 683.984 480.624 685.535 486.559 681.711C492.495 677.888 493.591 670.188 489.019 664.466V664.439Z" fill="#CA477C"/>
<path d="M481.212 676.338C486.532 672.916 487.923 666.338 484.848 660.884C480.276 658.264 474.421 658.13 470.009 660.964C464.689 664.387 463.298 670.964 466.373 676.418C470.945 679.038 476.8 679.172 481.212 676.338Z" fill="#E9538E"/>
<path d="M476.934 665.589C478.779 664.413 479.527 662.568 478.645 661.472C477.736 660.375 475.517 660.456 473.699 661.632C471.854 662.808 471.105 664.653 471.988 665.75C472.87 666.846 475.089 666.792 476.934 665.616V665.589Z" fill="#F4B4C9"/>
<path d="M526.905 623.08C535.327 624.925 542.064 633.079 540.781 641.207C539.658 648.346 531.717 653.961 520.755 652.223C511.852 650.806 507.734 641.956 508.376 635.7C509.125 628.133 517.039 620.914 526.905 623.053V623.08Z" fill="#0E141B"/>
<path d="M533.829 631.342C532.787 630.032 531.503 628.962 530.086 628.16C532.867 633.053 531.61 638.988 526.798 642.063C522.841 644.603 517.573 644.496 513.456 642.143C513.777 642.705 514.098 643.24 514.526 643.774C518.643 648.908 526.29 650.325 531.637 646.876C536.984 643.453 537.974 636.502 533.856 631.342H533.829Z" fill="#CA477C"/>
<path d="M526.798 642.063C531.584 638.989 532.84 633.08 530.086 628.16C525.969 625.807 520.702 625.674 516.745 628.24C511.959 631.315 510.702 637.224 513.456 642.143C517.574 644.496 522.841 644.63 526.798 642.063Z" fill="#E9538E"/>
<path d="M522.921 632.384C524.579 631.315 525.247 629.657 524.445 628.668C523.643 627.678 521.638 627.732 519.98 628.801C518.322 629.871 517.654 631.529 518.456 632.518C519.258 633.507 521.263 633.454 522.921 632.384Z" fill="#F4B4C9"/>
<path d="M559.256 573.215C568.587 574.632 573.319 581.744 573.079 588.054C572.811 595.46 563.748 600.567 555.593 598.802C546.77 596.904 543.348 590.38 543.535 585.193C543.856 576.53 553.641 572.359 559.256 573.215Z" fill="#0E141B"/>
<path d="M566.261 579.899C565.245 578.776 564.015 577.894 562.705 577.252C565.459 581.503 564.683 586.877 560.539 589.925C557.117 592.438 552.385 592.625 548.561 590.754C548.882 591.235 549.203 591.716 549.604 592.144C553.588 596.529 560.539 597.358 565.138 593.989C569.737 590.62 570.245 584.31 566.261 579.926V579.899Z" fill="#CA477C"/>
<path d="M560.539 589.898C564.657 586.85 565.459 581.476 562.705 577.225C558.855 575.353 554.149 575.54 550.727 578.053C546.583 581.101 545.807 586.476 548.561 590.727C552.385 592.598 557.117 592.411 560.539 589.898Z" fill="#E9538E"/>
<path d="M556.529 581.449C557.946 580.407 558.481 578.883 557.705 578.027C556.93 577.198 555.139 577.359 553.722 578.401C552.304 579.444 551.77 580.968 552.545 581.824C553.32 582.652 555.112 582.492 556.529 581.449Z" fill="#F4B4C9"/>
<path d="M280.046 551.934C280.046 537.095 292.772 527.256 304.456 527.256C317.21 527.256 327.664 538.672 327.717 551.426C327.771 564.714 317.958 575.863 303.922 575.863C297.425 575.863 280.019 571.077 280.019 551.96L280.046 551.934Z" fill="#0E141B"/>
<path d="M303.948 571.452C314.269 571.452 322.637 562.415 322.637 551.292C322.637 540.17 314.269 531.133 303.948 531.133C293.628 531.133 285.26 540.17 285.26 551.292C285.26 562.415 293.628 571.452 303.948 571.452Z" fill="#E9538E"/>
<path d="M299.484 544.715C301.676 542.523 302.184 539.475 300.606 537.897C299.029 536.32 295.981 536.828 293.789 539.02C291.596 541.213 291.088 544.261 292.666 545.838C294.243 547.416 297.291 546.908 299.484 544.715Z" fill="#F4B4C9"/>
<path d="M315.98 535.865C316.809 538.165 317.29 540.651 317.29 543.271C317.29 554.42 308.921 563.431 298.601 563.431C294.029 563.431 289.831 561.639 286.57 558.698C289.297 566.158 296.034 571.452 303.948 571.452C314.269 571.452 322.637 562.415 322.637 551.292C322.637 545.089 320.044 539.555 315.98 535.865Z" fill="#CA477C"/>
<path d="M310.659 639.575C308.333 627.624 316.942 614.951 329.081 612.598C339.722 610.539 351.753 619.683 353.972 630.859C356.085 641.473 349.989 653.719 337.315 656.179C323.386 658.879 312.718 650.216 310.632 639.548L310.659 639.575Z" fill="#0E141B"/>
<path d="M336.112 652.515C345.23 650.75 351.085 641.339 349.16 631.5C347.262 621.661 338.305 615.11 329.188 616.875C320.07 618.64 314.215 628.051 316.14 637.89C318.038 647.729 326.995 654.28 336.112 652.515Z" fill="#E9538E"/>
<path d="M327.61 629.629C329.161 627.33 329.081 624.549 327.423 623.426C325.765 622.303 323.145 623.266 321.595 625.565C320.044 627.891 320.124 630.645 321.782 631.768C323.439 632.891 326.06 631.929 327.61 629.629Z" fill="#F4B4C9"/>
<path d="M340.631 618.986C341.781 620.885 342.609 622.997 343.064 625.296C344.962 635.135 339.134 644.546 330.017 646.311C325.979 647.086 321.969 646.231 318.573 644.199C322.263 650.322 329.134 653.851 336.112 652.487C345.23 650.723 351.085 641.311 349.16 631.472C348.09 625.991 344.855 621.553 340.631 618.986Z" fill="#CA477C"/>
<path d="M314.456 705.776C312.664 697.488 317.878 686.419 330.15 684.307C341.273 682.382 351.326 689.173 353.358 698.236C355.871 709.439 347.556 717.888 337.663 719.599C325.124 721.765 316.434 714.947 314.456 705.776Z" fill="#0E141B"/>
<path d="M336.701 715.909C344.909 714.492 350.176 706.952 348.465 699.092C346.754 691.205 338.706 685.991 330.498 687.408C322.29 688.825 317.023 696.338 318.734 704.225C320.445 712.086 328.493 717.326 336.701 715.909Z" fill="#E9538E"/>
<path d="M329.054 697.622C330.444 695.777 330.391 693.558 328.894 692.649C327.396 691.74 325.043 692.515 323.653 694.36C322.236 696.205 322.316 698.45 323.814 699.333C325.311 700.242 327.664 699.466 329.054 697.622Z" fill="#F4B4C9"/>
<path d="M340.791 689.092C341.807 690.589 342.583 692.3 342.984 694.145C344.695 702.032 339.428 709.545 331.22 710.962C327.583 711.604 323.974 710.909 320.926 709.278C324.241 714.171 330.418 717.005 336.701 715.909C344.909 714.492 350.176 706.952 348.465 699.091C347.502 694.706 344.588 691.151 340.791 689.092Z" fill="#CA477C"/>
<path d="M336.086 296.118C409.183 280.798 471.426 326.357 482.468 383.68C494.714 447.393 454.342 505.438 385.308 520.839C310.178 537.576 247.775 494.878 234.326 434.346C222.776 382.397 253.657 313.39 336.059 296.118H336.086Z" fill="#0E141B"/>
<path d="M378.998 516.32C443.593 503.887 486.693 445.628 475.25 386.139C463.806 326.677 402.178 288.524 337.583 300.957C272.987 313.362 229.915 371.648 241.331 431.11C252.774 490.572 314.402 528.726 378.998 516.293V516.32Z" fill="#E4C584"/>
<path d="M417.097 311.438C433.808 326.357 445.786 346.168 450.197 369.162C461.641 428.624 418.541 486.91 353.946 499.342C325.525 504.797 297.692 500.465 274.431 488.862C300.927 512.523 339.374 523.94 378.998 516.32C443.593 503.887 486.693 445.628 475.249 386.14C468.833 352.826 446.695 326.223 417.097 311.438Z" fill="#BFA66F"/>
<path d="M300.686 436.137C296.703 415.416 314.536 384.295 351.62 377.156C386.003 370.552 416.803 388.92 421.482 413.277C426.295 438.356 405.387 465.948 370.549 472.633C346.299 477.285 306.916 468.649 300.686 436.11V436.137Z" fill="#0E141B"/>
<path d="M369.293 467.606C399.024 461.884 419.45 438.142 414.905 414.56C410.36 390.979 382.581 376.488 352.85 382.209C323.118 387.931 302.692 411.673 307.21 435.255C311.755 458.836 339.535 473.327 369.266 467.606H369.293Z" fill="#E9538E"/>
<path d="M340.257 411.887C348.866 407.796 352.422 402.342 350.336 397.77C348.866 394.535 341.513 392.957 333.252 396.861C326.059 400.256 321.193 406.887 323.359 411.138C324.723 413.812 331.781 415.897 340.257 411.887Z" fill="#F4B4C9"/>
<path d="M389.586 385.632C394.478 390.739 397.927 396.915 399.264 403.946C403.809 427.528 383.383 451.27 353.625 456.992C340.364 459.532 327.503 458.061 316.916 453.543C328.492 465.628 348.384 471.59 369.266 467.579C398.997 461.858 419.424 438.116 414.878 414.534C412.365 401.46 402.713 391.22 389.532 385.632H389.586Z" fill="#CA477C"/>
<path d="M409.825 374.724C417.285 373.28 422.151 366.088 420.707 358.655C419.263 351.222 412.071 346.329 404.638 347.773C397.205 349.217 392.313 356.409 393.756 363.842C395.2 371.275 402.392 376.167 409.825 374.724Z" fill="#0E141B"/>
<path d="M404.023 362.05C406.884 361.489 408.756 358.735 408.194 355.874C407.633 353.013 404.879 351.142 402.018 351.703C399.157 352.265 397.286 355.018 397.847 357.879C398.409 360.74 401.162 362.612 404.023 362.05Z" fill="white"/>
<path d="M296.061 396.514C303.494 395.07 308.386 387.878 306.943 380.445C305.499 373.012 298.307 368.119 290.874 369.563C283.441 371.007 278.548 378.199 279.992 385.632C281.436 393.065 288.628 397.957 296.061 396.514Z" fill="#0E141B"/>
<path d="M290.259 384.215C293.12 383.654 294.991 380.9 294.43 378.039C293.869 375.178 291.115 373.307 288.254 373.868C285.393 374.43 283.521 377.183 284.083 380.044C284.644 382.905 287.398 384.777 290.259 384.215Z" fill="white"/>
<path d="M302.825 322.614C324.428 331.971 367.635 326.063 385.869 310.368C391.003 305.957 390.575 301.251 386.484 293.551C373.223 268.606 343.171 219.598 334.722 208.341C325.926 196.604 325.231 197.112 319.83 210.801C312.638 229.143 299.403 277.482 296.328 303.417C294.804 316.331 295.606 319.485 302.799 322.587L302.825 322.614Z" fill="#0E141B"/>
<path d="M302.852 308.363C304.75 290.744 313.547 248.152 324.268 213.609C326.166 207.486 326.246 205.909 331.166 213.181C345.229 233.982 365.416 269.595 378.998 294.3C383.596 302.668 383.115 305.877 375.121 310.823C358.33 321.223 329.856 324.459 313.306 320.154C303.253 317.534 302.05 315.636 302.825 308.39L302.852 308.363Z" fill="#CBD4CD"/>
<path d="M302.852 308.363C303.066 306.518 303.333 304.379 303.681 302.026C314.188 314.031 387.259 311.785 361.432 262.938C367.768 274.033 373.864 284.942 378.998 294.3C383.596 302.668 383.115 305.876 375.121 310.823C358.33 321.223 329.856 324.458 313.306 320.154C303.253 317.534 302.05 315.635 302.825 308.39L302.852 308.363Z" fill="#A7AEA9"/>
<path d="M575.004 533.192C583.399 534.475 587.65 540.865 587.436 546.533C587.196 553.191 579.041 557.79 571.688 556.212C563.748 554.501 560.673 548.646 560.833 543.967C561.127 536.16 569.924 532.416 574.977 533.165L575.004 533.192Z" fill="#0E141B"/>
<path d="M581.313 539.18C580.404 538.164 579.308 537.389 578.105 536.801C580.592 540.624 579.87 545.463 576.153 548.191C573.079 550.463 568.827 550.624 565.378 548.939C565.673 549.367 565.94 549.795 566.314 550.196C569.897 554.153 576.153 554.875 580.297 551.853C584.442 548.806 584.896 543.137 581.313 539.18Z" fill="#CA477C"/>
<path d="M576.18 548.191C579.896 545.464 580.618 540.624 578.132 536.801C574.683 535.117 570.432 535.277 567.357 537.55C563.641 540.277 562.919 545.116 565.405 548.939C568.854 550.624 573.105 550.463 576.18 548.191Z" fill="#E9538E"/>
<path d="M572.571 540.571C573.854 539.635 574.335 538.245 573.613 537.496C572.918 536.748 571.287 536.881 570.004 537.844C568.721 538.78 568.266 540.17 568.961 540.918C569.656 541.667 571.287 541.533 572.544 540.598L572.571 540.571Z" fill="#F4B4C9"/>
</g>
<defs>
<clipPath id="clip0_42_59355">
<rect width="355.463" height="520" fill="white" transform="translate(232 200)"/>
</clipPath>
</defs>
</svg>
