<svg width="800" height="800" viewBox="0 0 800 800" fill="none" xmlns="http://www.w3.org/2000/svg">
<g clip-path="url(#clip0_42_70724)">
<path d="M204.103 650.756L181.944 654.483C170.499 660.274 159.67 704.16 166.704 757.541L169.36 749.368C172.973 752.787 178.479 757.541 181.328 759.627C181.898 753.551 183.984 739.109 184.748 734.355C187.792 741.388 193.491 748.98 197.287 752.024C197.287 744.808 197.857 736.065 198.051 732.269L204.89 733.603L216.289 731.323L221.418 735.119C222.364 730.183 223.698 723.15 224.074 719.924C228.44 724.484 234.333 729.807 237.559 732.657C238.323 727.151 239.839 719.548 240.979 715.559C245.538 718.032 248.958 719.548 254.851 722.968C238.323 682.696 216.232 655.498 204.103 650.756Z" fill="#EFEFEF"/>
<path d="M434.384 193.205L448.632 298.36L527.57 295.225C532.79 283.735 542.286 269.68 561.481 270.056C571.364 270.25 574.111 268.437 578.58 263.98C587.323 255.238 596.237 245.662 599.668 240.237C601.948 236.623 602.894 233.021 597.958 231.494C593.022 229.978 575.696 224.563 563.761 202.426C553.308 183.048 539.63 174.123 531.651 170.886L478.076 168.412C466.677 171.456 446.923 179.811 434.384 193.205Z" fill="#00B9EF"/>
<path d="M498.036 141.247C493.476 136.882 485.691 126.805 482.647 122.245C479.604 117.686 475.432 117.116 472.958 119.02C470.485 120.923 469.208 123.351 472.388 128.515C478.464 138.398 485.588 158.3 473.904 180.004C471.248 184.939 475.454 189.909 479.797 185.327C486.637 178.111 507.109 168.73 532.586 171.135C538.285 153.615 547.746 129.233 558.872 112.442C560.775 109.57 559.35 107.29 557.492 106.298C555.634 105.307 554.688 105.649 552.933 107.86C547.37 114.836 538.251 125.95 527.57 133.644C527.855 115.839 532.723 93.6912 541.112 70.8136C542.685 66.539 543.403 61.8085 537.977 54.5702C535.834 51.7204 534.09 51.4925 532.711 54.4334C526.727 67.1089 506.117 123.773 498.036 141.259V141.247Z" fill="#EFEFEF"/>
<path d="M566.759 207.454C570.042 201.048 576.015 192.635 578.295 190.219C580.974 187.38 586.057 191.792 585.419 194.06C583.424 201.184 581.145 213.29 581.145 219.138C599.383 211.307 625.885 193.638 640.556 184.086C642.129 186.651 644.579 192.362 641.262 195.622C631.14 205.596 612.058 225.681 601.366 235.803C601.229 233.101 599.736 231.847 595.667 230.958C589.83 229.682 575.582 222.694 566.736 207.454H566.759Z" fill="#EFEFEF"/>
<path d="M599.246 240.646C600.249 244.921 601.799 248.067 616.914 242.778C619.764 241.786 620.767 243.211 621.04 246.049C621.325 248.899 621.166 251.293 618.328 253.174C612.343 257.163 600.796 266.852 591.54 277.248C590.685 271.549 588.975 265.279 584.131 258.44C590.263 251.885 593.82 247.611 599.234 240.635L599.246 240.646Z" fill="#EFEFEF"/>
<path d="M307.856 367.608C304.151 378.004 300.344 392.48 306.716 411.916C309.429 420.18 313.841 432.855 314.98 441.404C304.858 433.003 281.49 431.715 263.115 453.943C263.4 440.128 258.316 425.446 250.007 414.765C249.004 413.489 250.862 408.781 252.15 407.504C258.704 410.639 265.258 415.905 271.095 421.468C271.801 401.52 262.112 378.722 249.722 367.471C249.858 364.2 252.868 358.181 254.418 358.922C257.701 360.484 265.817 365.328 270.661 367.471C269.955 361.065 266.797 350.396 264.392 345.107C262.249 340.41 269.693 336.124 276.224 344.685C282.63 353.086 289.47 372.042 293.892 390.417C295.032 385.151 295.351 377.445 295.602 371.472C295.739 368.053 299.592 364.496 307.856 367.631V367.608Z" fill="#EFEFEF"/>
<path d="M222.592 495.001C220.802 482.109 214.875 452.711 207.021 445.792C204.536 443.603 202.621 443.227 200.273 444.401C198.688 445.199 198.369 446.852 199.087 449.063C201.766 457.294 206.827 471.588 205.836 481.995C202.165 480.308 195.713 475.84 193.137 474.152C191.256 474.255 189.683 476.58 188.771 479.51C188.281 481.094 188.942 482.029 190.265 483.682C195.428 490.134 200.854 494.853 198.198 502.832C197.104 506.104 193.684 508.862 189.763 506.503C188.771 505.91 185.067 507.414 187.586 509.877C192.351 514.539 197.207 519.794 198.495 531.5C201.675 520.386 208.811 507.996 220.722 505.91C220.722 502.239 221.019 498.17 222.603 495.001H222.592Z" fill="#EFEFEF"/>
<path d="M542.297 274.798C554.266 276.314 574.02 292.66 565.858 319.06C579.913 332.168 582.957 355.536 574.214 384.033L576.163 383.418C588.839 406.216 579.583 439.979 567.329 467.2C590.833 459.369 605.652 409.635 589.693 373.877C604.079 358.774 602.665 327.712 586.707 303.922C595.826 292.671 594.549 273.145 584.142 258.475C578.58 263.98 573.769 270.398 564.627 269.874C559.635 269.589 551.758 270.489 542.308 274.809L542.297 274.798Z" fill="#00B9EF"/>
<path d="M475.522 443.307C465.001 453.452 441.53 486.873 455.243 525.003C452.428 501.156 457.877 470.539 482.658 454.01C479.842 451.195 477.779 448.003 475.522 443.307Z" fill="#00B9EF"/>
<path d="M414.003 600.942C411.883 572.935 432.161 546.091 465.572 539.901C458.231 532.754 453.021 523.874 451.084 509.774C447.299 506.959 441.976 504.109 437.61 503.151C431.341 488.903 413.103 476.74 398.66 474.848C395.434 466.105 383.272 452.814 366.937 445.781L300.253 436.092C285.241 434.576 271.95 441.791 259.024 458.319C244.581 460.029 222.844 476.558 220.701 505.91C210.008 507.711 193.856 523.293 198.416 548.941C185.307 555.78 180.941 569.265 183.027 586.751C173.338 591.504 165.553 619.238 179.607 631.583C179.607 620.754 180.941 603.849 190.813 599.29C189.103 592.256 191.189 572.878 206.201 562.049L203.351 558.436C206.771 541.338 216.46 528.035 225.955 525.755L227.859 528.605C233.182 516.26 240.774 506.947 254.453 500.484C255.216 503.527 256.732 507.13 259.582 511.119C259.388 503.334 261.486 497.44 269.647 498.204C277.82 498.968 287.509 501.054 294.349 504.28L293.403 500.29C295.306 495.537 299.866 496.494 304.038 499.344C308.221 502.194 320.19 511.689 330.825 523.282C332.535 521.948 334.781 521.435 339.374 527.271C346.408 536.197 355.903 557.672 365.968 563.748C368.818 559.382 375.657 557.478 380.217 566.028C384.776 574.577 395.879 597.272 413.98 600.931L414.003 600.942Z" fill="#00B9EF"/>
<path d="M178.775 630.648C148.796 674.226 156.171 740.864 163.136 766.398C164.253 770.49 168.79 768.438 167.786 763.605C161.46 733.068 163.136 666.031 181.944 654.484C183.62 681.111 191.052 717.554 210.806 741.263C213.599 744.615 214.716 743.121 214.898 741.081C218.432 743.874 220.86 744.25 223.094 744.991C208.754 718.181 203.545 679.812 204.103 650.767C214.157 654.119 241.15 685.99 255.866 725.248C257.541 729.716 259.81 726.536 259.035 723.948C249.346 691.553 226.263 649.468 202.986 632.894C196.284 636.804 187.906 638.297 178.775 630.66V630.648Z" fill="#00B9EF"/>
<path d="M542.298 274.797L510.187 283.255L470.564 357.165C469.903 361.622 473.323 370.365 479.98 376.635C472.001 396.389 465.948 439.842 482.658 454.022C467.441 462.787 450.058 492.14 455.757 524.342C456.418 528.992 460.795 534.316 466.107 540.015C447.493 541.155 410.823 563.577 414.436 600.999C406.833 600.805 393.268 590.592 382.519 570.222C378.906 563.383 372.83 555.78 366.755 564.146C359.721 560.157 353.84 550.662 346.806 538.499C339.773 526.336 335.031 521.401 330.848 522.734C323.245 515.325 310.376 503.071 303.114 498.99C300.071 497.281 296.469 496.141 293.425 499.754L294.189 503.55C284.124 500.324 274.275 497.657 267.026 498.797C263.412 499.367 259.24 501.84 259.616 511.142C257.713 508.486 255.251 503.162 254.487 500.506C243.852 504.69 233.593 514.185 227.893 528.628L225.99 525.778C216.3 529.004 208.127 537.747 203.386 558.458L206.611 562.642C199.772 565.115 187.997 582.784 190.847 599.312C185.341 602.356 179.254 612.797 179.642 631.605C193.127 643.574 221.624 628.379 218.204 601.592C229.603 593.043 234.539 581.268 232.453 568.159C241.572 564.739 256.96 555.05 257.906 541.565C266.832 541.565 279.188 538.522 288.49 530.736C294.953 531.876 300.652 532.252 307.492 529.973C312.815 536.242 322.31 543.457 332.569 545.931C336.753 560.943 353.851 581.838 370.562 589.441C377.401 608.249 413.308 647.575 459.473 632.95C497.283 641.693 550.288 616.046 548.954 549.738C571.946 531.694 582.011 495.4 574.408 463.483L568.139 467.096C582.581 434.986 587.711 393.197 574.602 383.121C582.387 358.989 581.065 332.396 565.859 319.093C570.795 304.081 566.053 279.961 542.298 274.831V274.797Z" fill="#F1E890"/>
<path d="M417.434 538.442C412.02 534.316 395.913 526.051 390.932 531.466C385.95 536.88 391.217 559.393 407.745 572.217C408.315 562.106 412.168 546.148 417.434 538.453V538.442Z" fill="#F1E890"/>
<path d="M387.933 514.938C380.387 508.247 357.589 497.133 352.733 501.829C347.877 506.526 357.578 532.606 370.538 542.432C373.388 533.746 380.66 520.923 387.922 514.938H387.933Z" fill="#F1E890"/>
<path d="M350.602 484.868C344.902 478.599 323.381 466.63 317.26 476.182C311.139 485.734 324.384 502.969 335.213 505.819C338.063 498.558 343.478 490.146 350.602 484.879V484.868Z" fill="#F1E890"/>
<path d="M299.022 463.779C290.472 461.078 264.688 464.486 264.54 473.605C264.392 482.724 282.345 487.99 292.752 488.709C293.185 481.162 295.465 469.9 299.022 463.779Z" fill="#F1E890"/>
<path d="M253.575 471.338C246.302 473.469 229.079 489.462 234.06 496.7C235.633 498.98 247.454 495.846 252.298 493.281C251.443 484.31 250.725 478.325 253.575 471.338Z" fill="#F1E890"/>
<path d="M220.94 505.533C215.24 506.958 208.686 511.939 205.118 516.647C204.263 521.059 204.389 527.1 204.981 527.328C206.406 527.898 219.093 519.212 222.786 518.494C220.94 513.797 220.507 510.378 220.94 505.533Z" fill="#F1E890"/>
<path d="M198.279 548.599C193.822 551.278 187.04 556.453 183.825 566.883C184.361 569.288 185.866 571.294 186.23 571.34C187.655 571.522 196.843 558.22 201.482 556.704C199.966 554.47 198.803 551.438 198.268 548.588L198.279 548.599Z" fill="#F1E890"/>
<path d="M183.016 586.432C178.73 589.555 173.019 598.48 172.13 609.275C173.293 609.184 175.515 608.386 176.678 605.525C177.841 602.675 182.115 596.599 186.31 593.476C185.056 591.516 183.905 589.555 183.004 586.432H183.016Z" fill="#F1E890"/>
<path d="M438.294 514.368C433.29 517.366 428.035 522.439 423.954 527.956C433.016 531.239 444.996 528.765 453.397 520.353C452.634 517.218 451.311 512.567 451.209 510.094C448.644 510.47 443.515 511.234 438.294 514.368Z" fill="#F1E890"/>
<path d="M473.573 180.403C482.795 169.46 507.724 162.701 533.223 169.438L532.596 171.125C514.677 169.232 493.282 171.866 480.321 184.826C475.898 189.249 470.199 184.404 473.573 180.403Z" fill="#C9CACA"/>
<path d="M585.613 192.35C581.247 200.899 577.827 211.728 576.3 218.943L581.053 223.503C580.677 214.384 584.279 199.189 585.613 192.35Z" fill="#C9CACA"/>
<path d="M596.065 230.535C607.84 222.749 634.822 199.564 642.607 190.639C642.801 193.295 641.969 195.118 639.951 197.102C631.402 205.457 609.744 227.503 601.571 235.288C601.377 233.385 599.485 231.105 596.065 230.535Z" fill="#C9CACA"/>
<path d="M589.409 267.776C595.302 262.646 610.497 252.957 621.326 249.344C620.186 252.193 611.021 258.44 608.023 260.936C604.604 263.786 597.764 270.432 591.871 276.701C591.495 274.228 590.731 271.378 589.397 267.776H589.409Z" fill="#C9CACA"/>
<path d="M528.219 143.596C536.677 134.773 549.285 117.846 555.406 105.957C550.903 110.824 537.213 125.768 527.672 133.508C527.307 137.11 527.855 140.53 528.208 143.596H528.219Z" fill="white"/>
<path d="M502.105 145.762C510.928 125.597 528.22 68.5115 535.96 51.9375C527.319 60.0421 505.707 126.133 497.603 141.259C499.586 143.06 501.022 144.861 502.105 145.762Z" fill="white"/>
<path d="M252.286 361.622C259.08 365.874 266.569 370.285 270.809 375.05C271.322 373.865 271.151 369.784 270.809 367.743C265.372 365.361 259.08 361.451 254.498 358.738L252.286 361.634V361.622Z" fill="white"/>
<path d="M270.468 427.748C266.387 422.311 257.382 414.149 251.09 409.054C251.945 407.698 253.358 407.777 254.487 408.541C259.753 412.109 266.729 417.375 271.311 421.969L270.457 427.748H270.468Z" fill="white"/>
<path d="M191.77 475.168C194.995 478.906 200.444 483.5 204.855 486.726C205.71 484.344 205.87 482.987 205.87 481.973C202.473 480.616 196.363 476.695 194.824 475.339C193.468 474.153 192.442 474.484 191.77 475.168Z" fill="white"/>
<path d="M182.126 663.876C171.583 678.136 166.157 715.479 168.721 750.838L166.442 755.968C159.887 718.899 168.721 661.027 182.126 654.176V663.865V663.876Z" fill="#C9CACA"/>
<path d="M204.514 657.037C219.913 668.733 240.511 696.728 251.625 721.247L254.475 722.763C248.399 704.331 226.354 664.059 204.126 649.811L204.502 657.026L204.514 657.037Z" fill="#C9CACA"/>
<path d="M572.311 215.717C578.01 231.96 570.316 247.634 539.254 267.012C534.98 273.851 528.71 283.825 527.57 294.084C532.985 283.825 541.83 268.585 563.477 269.862C568.321 270.147 573.496 268.767 577.44 265.017C583.425 259.318 595.667 246.699 599.953 240.509C602.518 236.805 602.142 232.245 596.055 230.535C589.979 228.826 580.005 224.266 572.311 215.717Z" fill="#00A2D0"/>
<path d="M529.496 557.114C524.629 590.182 467.554 642.446 413.011 598.162C422.574 621.541 451.642 640.6 496.245 631.458C525.643 625.439 551.154 587.538 548.669 549.283C542.137 552.976 538.011 554.686 529.496 557.114Z" fill="#CAC379"/>
<path d="M527.068 295.43L528.288 300.15C532.585 291.555 539.265 281.41 549.125 277.101C547.073 276.189 544.873 275.471 542.548 274.992C537.134 278.56 531.491 284.715 527.068 295.43Z" fill="#CAC379"/>
<path d="M577.736 271.322C580.711 268.871 584.37 265.03 586.65 262.066L584.199 257.871C580.529 262.932 576.448 266.66 573.541 268.176C569.176 270.444 563.579 269.658 559.042 269.92C555.748 270.114 549.319 270.535 542.548 274.992C544.873 275.471 547.062 276.178 549.125 277.101C552.077 275.813 555.326 275.038 558.871 274.992C565.517 274.912 573.165 275.095 577.736 271.322Z" fill="#00A2D0"/>
<path d="M455.78 498.057C454.172 494.614 452.918 490.944 452.075 487.068C449.601 499.835 450.513 512.967 455.426 524.48C454.013 514.631 454.469 505.785 455.791 498.057H455.78Z" fill="#00A2D0"/>
<path d="M413.637 600.965C408.257 599.54 402.569 596.451 396.311 589.794C385.003 584.642 376.842 574.109 371.906 560.385C370.436 560.601 368.771 561.365 366.879 562.881C365.09 625.427 437.655 645.671 460.156 633.19C438.293 630.431 421.206 614.359 413.649 600.976L413.637 600.965Z" fill="#CAC379"/>
<path d="M368.532 548.246C367.529 553.364 367.005 558.232 366.868 562.871C368.76 561.355 370.425 560.591 371.895 560.375C370.527 556.556 369.399 552.509 368.532 548.246Z" fill="#00A2D0"/>
<path d="M396.3 589.783C402.558 596.44 408.246 599.54 413.626 600.954C412.076 598.207 410.913 595.574 410.206 593.191C405.134 592.872 400.506 591.698 396.3 589.771V589.783Z" fill="#00A2D0"/>
<path d="M346.807 537.918C351.959 548.234 360.143 559.519 366.584 564.853C366.641 559.576 367.325 554.309 368.852 549.419C354.626 543.754 336.479 526.177 334.37 506.104C332.661 510.492 331.156 515.986 330.518 522.176C336.171 522.438 342.908 530.11 346.807 537.929V537.918Z" fill="#00A2D0"/>
<path d="M370.55 589.032C368.077 581.987 366.492 573.404 366.572 564.855C360.132 559.532 351.947 548.235 346.795 537.919C342.885 530.111 336.148 522.428 330.506 522.166C328.488 541.715 335.054 568.24 370.55 589.021V589.032Z" fill="#CAC379"/>
<path d="M301.405 498.215C299.045 497.429 296.549 496.528 292.958 500.016C296.275 518.038 308.848 537.94 332.66 545.999C331.418 540.858 330.073 531.625 330.529 523.327C320.623 512.817 306.785 500.005 301.405 498.215Z" fill="#CAC379"/>
<path d="M301.405 498.215C306.785 500.005 320.623 512.817 330.529 523.327C330.814 518.289 331.748 513.604 333.8 510.378C316.702 506.103 297.609 490.43 295.044 475.326C292.023 481.767 291.237 490.635 292.958 500.016C296.549 496.528 299.045 497.429 301.405 498.215Z" fill="#00A2D0"/>
<path d="M265.498 499.173C261.11 501.441 259.571 503.493 259.548 510.994C268.188 524.604 284.021 534.84 307.868 530.337C303.798 525.596 296.902 515.485 294.189 503.698C283.714 500.404 270.548 496.574 265.498 499.184V499.173Z" fill="#CAC379"/>
<path d="M265.498 499.174C270.547 496.564 283.713 500.394 294.189 503.688C293.482 500.599 293.049 497.396 293.049 494.136C281.65 496.986 257.142 496.986 251.728 481.027C250.896 490.01 253.415 501.34 259.547 510.984C259.582 503.495 261.12 501.431 265.498 499.163V499.174Z" fill="#00A2D0"/>
<path d="M258.555 508.955C254.156 510.915 245.823 513.241 237.639 512.785C233.934 516.797 230.229 521.893 227.505 528.435C232.976 535.571 241.32 540.256 250.291 541.145C261.69 542.285 277.934 540.86 288.478 530.886C278.504 528.891 265.395 522.337 258.555 508.943V508.955Z" fill="#CAC379"/>
<path d="M221.225 505.818C220.313 514.584 222.878 522.392 227.505 528.445C230.23 521.902 233.934 516.807 237.639 512.794C231.518 512.464 225.488 510.583 221.225 505.83V505.818Z" fill="#00A2D0"/>
<path d="M237.001 536.973C229.99 544.621 217.075 549.363 206.702 547.038C205.312 550.48 204.001 554.436 203.021 558.767C207.979 565.447 215.616 569.197 223.892 569.665C237.571 570.428 255.433 554.846 257.712 542.022C252.013 542.022 241.275 539.834 237.001 536.984V536.973Z" fill="#CAC379"/>
<path d="M197.287 542.011C197.663 548.805 199.772 554.402 203.009 558.756C203.99 554.436 205.301 550.481 206.691 547.027C203.146 546.229 199.897 544.61 197.287 542V542.011Z" fill="#00A2D0"/>
<path d="M232.247 568.32C229.397 569.46 224.838 569.836 222.934 570.03C214.875 586.285 200.649 590.65 191.12 586.786C190.447 590.012 189.98 593.648 189.923 597.832C196.135 603.999 205.083 605.868 212.287 603.645C224.632 599.849 234.891 583.697 232.236 568.309L232.247 568.32Z" fill="#CAC379"/>
<path d="M182.468 578.008C182.468 586.865 185.5 593.442 189.923 597.842C189.98 593.647 190.436 590.011 191.12 586.796C187.176 585.201 184.029 582.191 182.468 578.019V578.008Z" fill="#00A2D0"/>
<path d="M218.979 600.521C215.206 603.348 208.743 606.175 200.251 604.158C198.746 610.268 189.855 616.229 181.021 616.115C180.074 620.88 179.47 626.454 179.71 632.017C183.688 635.049 189.387 636.645 197.15 635.277C210.886 632.849 220.449 612.65 218.968 600.521H218.979Z" fill="#CAC379"/>
<path d="M181.032 616.103C177.989 616.058 174.957 615.305 172.233 613.584C171.583 619.511 173.68 627.411 179.71 632.016C179.471 626.442 180.086 620.879 181.021 616.115L181.032 616.103Z" fill="#00A2D0"/>
<path d="M183.187 664.036C186.116 655.532 199.316 654.94 204.013 662.862C203.842 652.158 204.412 641.466 201.847 633.202C196.717 636.052 187.028 637.762 179.334 631.492C182.617 641.181 182.32 657.14 183.187 664.036Z" fill="#00A2D0"/>
<path d="M203.705 644.168C217.383 651.144 233.057 667.672 244.171 686.914C248.867 696.033 254.031 706.976 259.126 724.815C259.981 727.802 256.596 727.995 255.707 725.67C248.16 706.007 229.352 667.581 204.127 649.822L203.693 644.168H203.705Z" fill="#00A2D0"/>
<path d="M181.762 648.305C167.08 653.24 158.531 693.182 157.961 726.809C158.246 736.783 161.027 757.358 162.954 765.85C163.957 770.261 168.835 768.517 167.946 764.71C161.244 736.213 163.957 663.545 181.762 654.574V648.305Z" fill="#00A2D0"/>
<path d="M554.061 472.636C558.415 530.075 481.951 556.316 451.334 511.073C457.797 552.907 508.682 568.136 542.445 552.28C568.264 540.152 582.74 502.205 574.522 463.084C569.028 467.199 560.855 470.254 554.061 472.636Z" fill="#CAC379"/>
<path d="M572.766 385.55C586.092 449.646 507.53 481.312 473.049 433.608C474.246 461.262 525.484 488.608 568.344 466.163C580.244 438.27 589.09 400.859 575.491 383.51L572.766 385.55Z" fill="#CAC379"/>
<path d="M575.924 383.851C582.193 380.432 585.613 378.152 589.408 374.162C602.711 401.143 597.194 453.761 567.944 467.063C579.537 441.609 589.408 401.143 575.924 383.851Z" fill="#00A2D0"/>
<path d="M578.648 346.018C565.722 382.095 497.511 393.654 470.096 352.697C466.301 367.516 484.915 390.69 525.951 391.83C545.751 392.377 561.345 389.892 573.074 384.968C577.998 373.614 580.495 359.366 578.648 346.018Z" fill="#CAC379"/>
<path d="M597.776 361.43C599.588 356.802 600.261 348.002 599.338 338.415C588.588 335.725 582.262 321.363 580.45 309.713C578.911 310.91 577.361 312.038 575.742 313.178C581.647 325.466 582.045 336.58 578.66 346.018C580.507 359.366 578.01 373.615 573.086 384.968C585.67 379.691 593.786 371.598 597.776 361.441V361.43Z" fill="#00A2D0"/>
<path d="M586.707 303.91C585.157 305.631 583.082 308.105 580.506 310.077C580.996 320.256 590.491 336.671 599.291 338.551C598.596 327.871 594.196 313.257 586.707 303.91Z" fill="#CAC379"/>
<path d="M567.751 304.219C561.79 310.819 553.252 316.039 542.389 318.308L536.689 328.852C544.897 327.826 555.304 325.295 565.882 319.698C567.603 313.554 568.128 308.596 567.751 304.23V304.219Z" fill="#CAC379"/>
<path d="M586.707 303.91C592.543 297.789 597.103 276.131 584.29 258.463L574.886 267.297C580.392 278.65 577.599 293.321 567.762 304.218C568.138 308.584 567.614 313.542 565.893 319.686C572.948 315.948 580.084 310.852 586.707 303.91Z" fill="#00A2D0"/>
<path d="M185.751 592.451C180.759 596.441 176.917 602.562 175.15 606.267C174.672 607.27 173.543 608.284 172.813 608.398L172.779 610.256C174.307 610.005 176.518 608.535 177.054 607.122C178.331 603.702 182.89 597.432 187.028 594.298L185.751 592.451Z" fill="#0E141B"/>
<path d="M217.36 733.012C218.546 734.265 219.743 735.428 221.065 736.602C221.646 737.115 222.536 736.853 222.672 736.021C223.094 733.433 224.61 724.28 224.884 722.24C228.965 726.526 233.045 730.891 236.921 733.889C238.255 734.927 239.121 734.288 239.201 732.943C239.531 727.209 240.648 721.51 242.05 717.361C245.641 719.321 252.765 723.06 255.969 725.112L254.874 722.114C252.355 720.587 244.98 715.97 242.142 714.42C240.774 713.668 240.135 714.192 239.577 715.651C238.095 719.527 237.4 724.633 236.921 730.47C233.011 727.301 229.591 723.915 225.682 719.675C223.755 717.589 222.969 717.954 222.764 720.119C222.536 722.513 221.259 729.82 220.678 733.228C219.515 732.134 216.927 729.808 215.833 728.577L217.372 733.023L217.36 733.012Z" fill="#0E141B"/>
<path d="M535.55 53.9895C536.518 54.0123 539.106 58.5491 540.394 62.8237C541.192 65.491 541.226 66.3688 540.052 69.4693C527.992 101.295 524.436 126.658 527.263 143.619C527.673 146.104 529.451 145.922 529.189 143.414C526.362 116.592 537.009 86.2256 542.947 70.3698C544.201 67.0299 544.053 64.3284 543.084 61.6838C541.374 56.9875 537.396 49.8062 535.105 49.9999C531.822 50.2849 526.841 63.3708 515.442 93.1676C508.751 110.653 501.98 129.177 496.771 139.755L499.187 142.32C504.431 131.65 511.236 112.489 517.938 94.9572C525.017 76.434 534.068 53.9554 535.515 53.9782L535.55 53.9895Z" fill="#0E141B"/>
<path d="M534.033 172.207C540.872 150.834 549.513 127.945 559.772 113.696C561.596 111.166 561.185 108.076 559.772 106.435C557.583 103.87 554.483 103.927 552.716 106.298C545.5 115.987 537.396 123.682 527.285 132.368L527.502 136.334C537.156 127.66 547.518 117.264 554.426 108.008C555.486 106.595 556.99 106.868 558.016 108.065C558.7 108.863 558.871 110.174 557.332 112.374C546.298 128.059 538.422 149.352 531.48 169.562C512.512 167.567 489.213 171.933 478.486 184.529C477.586 185.578 476.241 185.942 475.158 184.859C474.246 183.948 473.881 183.309 474.394 182.386C485.998 161.492 481.29 139.925 473.231 127.067C471.362 124.081 471.886 121.482 473.391 120.251C475.409 118.598 478.6 119.384 480.561 122.074C486.374 130.042 492.974 138.694 500.577 145.533C502.709 147.448 503.986 146.263 501.991 144.211C493.396 135.377 487.605 126.919 482.476 120.08C479.444 116.033 474.953 115.634 471.647 118.176C468.717 120.433 468.147 124.673 470.598 128.344C478.862 140.689 482.647 161.287 471.453 181.44C470.211 183.685 472.012 186.284 472.878 187.139C475.728 189.966 479.239 188.689 480.948 186.569C490.102 175.262 514.484 170.725 533.019 172.868C533.475 172.925 533.908 172.651 534.044 172.218L534.033 172.207Z" fill="#0E141B"/>
<path d="M582.718 224.551C580.871 213.153 587.414 195.917 587.14 192.92C586.912 190.549 582.25 187.459 579.868 187.938C577.725 188.36 570.042 197.764 565.904 206.176L567.945 208.593C573.029 198.904 578.58 191.21 580.575 190.788C581.658 190.549 583.972 192.076 584.222 193.809C584.564 195.496 578.295 214.304 579.708 222.853L582.706 224.563L582.718 224.551Z" fill="#0E141B"/>
<path d="M597.741 243.017C598.619 245.992 601.594 248.055 605.652 247.44C609.938 246.801 615.603 244.715 617.906 243.883C618.955 243.507 619.502 243.792 619.616 245.069C619.764 246.653 619.912 249.856 618.761 250.768C614.178 254.404 601.343 263.147 591.164 275.242L591.871 280.12C602.13 266.692 615.74 256.525 620.607 253.048C623.594 250.916 623.218 243.712 621.462 241.512C620.676 240.521 618.567 240.578 615.9 241.467C612.765 242.515 608.855 244.009 605.777 244.51C603.52 244.875 600.853 242.846 601.275 239.859L597.718 243.028L597.741 243.017Z" fill="#0E141B"/>
<path d="M602.335 237.09C607.271 231.926 642.209 197.741 643.702 194.914C645.207 192.064 643.565 182.671 640.716 182.808C637.729 182.945 599.224 210.986 580.495 217.427L581.145 220.721C600.272 213.597 639.268 185.84 640.385 185.943C640.829 185.988 642.425 191.209 640.921 193.911C639.564 196.327 608.878 226.284 601.446 233.704L602.347 237.078L602.335 237.09Z" fill="#0E141B"/>
<path d="M535.458 330.471C556.922 328.191 583.333 313.749 590.412 301.21C597.035 289.48 594.402 268.723 585.283 257.039L582.718 259.319C590.834 269.92 593.057 289.731 587.414 300.07C582.159 309.702 557.994 324.589 537.51 327.484L535.458 330.471Z" fill="#0E141B"/>
<path d="M566.611 319.015C571.171 309.611 569.45 297.391 563.477 288.101C558.53 280.395 551.508 275.277 543.255 274.65L540.725 276.406C548.396 276.508 556.045 281.353 561.197 289.378C567.09 298.542 568.185 311.332 563.203 320.599L566.623 319.038L566.611 319.015Z" fill="#0E141B"/>
<path d="M469.15 355.775C467.725 362.899 471.806 370.605 476.936 376.054C487.833 387.635 507.382 393.277 529.952 393.277C562.336 393.277 585.488 384.363 595.291 369.59C605.504 354.202 602.096 321.213 587.631 303.066L585.704 305.426C598.79 322.673 601.503 352.914 592.532 367.596C583.652 382.118 561.607 390.485 529.929 390.485C507.884 390.485 489.475 384.363 479.409 373.694C474.645 368.644 471.567 362.044 472.137 357.2L469.15 355.775Z" fill="#0E141B"/>
<path d="M574.853 384.329C584.565 359.343 580.894 330.413 567.284 318.877L564.981 319.948C577.019 329.09 582.787 357.428 572.3 385.036L574.853 384.329Z" fill="#0E141B"/>
<path d="M597.764 337.354C590.742 334.926 582.193 319.72 581.566 309.746L579.72 310.932C580.575 320.678 589.124 336.818 598.049 339.292L597.764 337.354Z" fill="#0E141B"/>
<path d="M478.702 375.153C470.153 398.521 467.691 433.048 474.998 446.396C482.453 460.018 498.685 470.357 518.599 474.175C540.918 478.461 564.263 473.674 578.158 462.207C598.209 445.655 603.52 401.371 590.833 373.443L588.816 375.963C599.668 400.744 594.629 444.185 575.73 459.79C562.268 470.904 540.94 475.783 519.18 471.599C499.836 467.883 485.302 457.932 478.121 444.823C472 433.641 472.923 403.137 480.891 377.399L478.691 375.153H478.702Z" fill="#0E141B"/>
<path d="M568.777 466.721C584.063 438.497 588.258 396.971 576.916 383.133L574.853 384.341C585.83 397.758 580.86 440.891 565.289 468.02L568.777 466.732V466.721Z" fill="#0E141B"/>
<path d="M573.245 464.27C579.8 496.814 568.629 533.564 548.715 546.935C534.592 556.419 512.432 559.246 495.949 555.142C478.84 550.89 465.594 540.483 458.572 527.443C445.213 502.604 457.102 465.433 476.321 444.778L474.736 441.871C452.611 463.996 441.736 503.619 455.506 529.209C462.779 542.74 477.221 553.831 495.06 557.9C516.559 562.802 536.541 559.348 550.619 549.887C571.137 536.117 584.621 496.164 575.878 462.344L573.245 464.27Z" fill="#0E141B"/>
<path d="M458.07 528.16C449.51 495.628 467.486 464.52 483.764 454.557L481.951 452.562C466.152 462.229 449.214 490.452 454.195 522.119L458.07 528.16Z" fill="#0E141B"/>
<path d="M547.359 550.65C548.077 595.551 516.16 634.124 474.372 632.574C427.032 630.819 404.394 599.962 410.504 563.326C413.832 543.332 429.825 513.308 451.3 511.381L451.061 508.816C426.986 510.811 410.572 541.793 407.05 562.927C400.564 601.82 427.169 634.82 474.155 635.914C518.007 636.94 553.229 599.004 549.901 548.564L547.37 550.65H547.359Z" fill="#0E141B"/>
<path d="M416.294 604.842C412.875 588.598 419.19 574.623 425.174 566.359C435.194 552.532 452.144 542.296 466.734 541.145L464.318 538.922C448.565 541.475 432.845 551.005 422.712 564.991C417.218 572.56 411.472 584.175 413.011 598.413L416.283 604.83L416.294 604.842Z" fill="#0E141B"/>
<path d="M451.06 508.806C437.952 496.267 410.104 497.384 389.951 511.826C369.547 526.44 356.187 564.079 371.131 594.149C386.896 625.872 426.279 647.439 463.325 633.897L456.486 632.712C426.724 640.292 389.369 623.399 374.22 593.26C360.017 565.036 372.214 528.731 391.98 514.574C411.073 500.906 438.955 498.672 451.117 512.26L451.072 508.794L451.06 508.806Z" fill="#0E141B"/>
<path d="M366.88 565.64C367.963 563.474 369.627 562.061 371.679 561.776C374.7 561.342 377.994 564.5 381.106 570.519C390.692 589.042 403.037 600.726 415.04 603.917L413.456 599.688C402.855 596.782 392.094 585.303 383.317 568.911C378.381 559.69 374.232 558.481 371.405 558.926C369.695 559.199 367.815 560.579 366.891 561.776V565.64H366.88Z" fill="#0E141B"/>
<path d="M408.406 571.568C391.445 555.827 387.717 538.022 391.433 532.322C393.462 529.222 404.679 529.974 416.556 539.595L417.879 537.68C407.164 529.028 393.314 525.927 389.735 531.399C384.366 539.595 391.182 559.486 408.167 574.361L408.406 571.58V571.568Z" fill="#0E141B"/>
<path d="M370.55 588.234C340.536 569.722 333.446 547.95 332.215 532.881C330.813 515.6 336.923 498.433 349.314 487.98C361.67 477.55 379.703 473.504 396.391 476.08C407.79 477.847 423.418 483.33 435.9 502.389L439.513 503.152C427.738 481.871 408.93 474.45 396.915 472.592C379.692 469.936 360.234 475.225 347.467 486.008C334.609 496.86 327.348 515.133 328.796 533.029C330.072 548.805 338.2 573.917 371.678 592.018L370.538 588.234H370.55Z" fill="#0E141B"/>
<path d="M367.29 563.383C360.405 557.923 356.734 553.147 348.55 539.012C344.845 532.617 337.835 520.945 332.66 520.922C331.759 520.922 330.38 521.822 329.479 523.361L330.095 526.336C330.665 524.627 331.736 523.806 332.683 523.806C335.019 523.806 339.887 528.434 346.623 540.448C354.466 554.412 358.455 559.678 366.708 566.802L367.29 563.383Z" fill="#0E141B"/>
<path d="M388.651 514.083C375.679 503.402 356.632 496.38 351.935 501.373C347.763 505.807 354.318 532.184 369.843 543.72L370.96 541.429C357.464 531.42 350.066 506.195 353.349 502.707C356.552 499.31 373.662 505.066 386.782 515.61L388.651 514.083Z" fill="#0E141B"/>
<path d="M400.757 475.042C390.362 453.954 367.552 440.366 345.131 439.238C326.699 438.314 310.068 445.895 300.595 459.505C290.621 473.822 288.136 492.63 294.041 509.797C300.185 527.67 314.992 542.99 333.652 547.983L333.208 544.962C316.326 539.73 303.548 526.382 297.597 509.079C291.898 492.505 293.3 474.973 302.909 461.169C311.994 448.117 327.383 441.859 345.131 442.749C366.401 443.82 386.281 455.424 397.361 474.301L400.757 475.019V475.042Z" fill="#0E141B"/>
<path d="M294.496 502.822C294.758 500.964 295.203 499.733 296.844 498.969C298.053 498.411 300.914 498.251 306.955 502.788C317.419 510.653 323.689 516.922 330.38 525.323L330.961 522.098C324.111 514.073 318.844 508.795 308.437 500.679C302.772 496.256 298.474 495.23 295.613 496.553C294.53 497.054 293.767 498.114 293.596 499.756L294.508 502.822H294.496Z" fill="#0E141B"/>
<path d="M335.157 504.804C323.496 501.476 313.522 483.283 318.206 476.444C322.059 470.813 337.938 474.449 349.759 485.996L351.605 484.161C339.021 472.58 322.253 467.633 316.588 475.384C310.9 483.158 320.76 503.14 334.507 507.107L335.157 504.804Z" fill="#0E141B"/>
<path d="M307.183 528.823C295.066 531.718 283.508 529.598 273.807 523.306C263.594 516.672 256.447 506.105 253.768 491.742C251.112 477.482 256.185 463.2 266.957 452.097C276.953 441.793 290.051 435.979 300.971 437.678L300.925 434.965C288.558 433.027 274.993 438.977 264.574 449.715C253.358 461.273 248.091 477.277 250.873 492.176C253.654 507.074 260.858 518.541 272.029 526.144C282.026 532.938 295.864 534.637 308.825 531.513L307.183 528.834V528.823Z" fill="#0E141B"/>
<path d="M294.497 502.821C285.777 499.686 277.091 497.167 272.383 496.836C266.889 496.449 262.91 497.817 260.699 500.393C258.841 502.57 258.1 505.819 258.704 509.934L261.691 513.638C260.631 509.067 260.95 504.462 262.705 502.41C264.495 500.324 267.858 499.435 272.713 499.777C277.239 500.096 286.107 502.878 294.463 505.226L294.485 502.809L294.497 502.821Z" fill="#0E141B"/>
<path d="M292.582 487.512C279.997 486.566 265.384 480.32 265.384 473.697C265.384 466.572 287.943 461.272 299.125 465.17L300.219 463.176C287.749 458.833 263.446 464.327 263.446 473.697C263.446 481.687 277.661 488.629 292.479 489.86L292.582 487.512Z" fill="#0E141B"/>
<path d="M304.437 365.328C300.641 364.85 296.252 365.784 295.112 367.779C293.71 370.207 294.827 383.487 293.517 388.229L294.941 393.165C297.13 386.986 296.355 371.062 297.506 369.421C298.167 368.475 300.732 367.62 303.012 368.19L304.437 365.34V365.328Z" fill="#0E141B"/>
<path d="M262.363 342.621C261.884 345.379 271.391 365.225 270.057 373.557C269.602 376.419 271.243 376.806 271.95 373.991C274.332 364.461 264.825 346.041 265.327 343.134C265.544 341.857 268.519 340.33 272.052 342.324C278.994 346.223 291.191 379.736 296.081 403.411C296.651 406.204 298.258 405.851 297.791 403.035C294.178 381.377 282.596 344.901 273.192 339.68C268.085 336.842 262.99 338.985 262.363 342.621Z" fill="#0E141B"/>
<path d="M251.557 367.016C251.124 366.594 253.05 360.951 254.703 360.951C255.273 360.997 267.458 368.064 271.539 369.546L271.243 366.605C267.606 365.363 255.261 357.201 254.293 357.201C251.865 357.201 246.165 366.662 248.878 369.022C261.132 379.703 272.326 405.43 269.67 426.655C269.407 428.752 271.174 428.969 271.596 426.894C274.982 410.069 266.603 381.618 251.568 367.004L251.557 367.016Z" fill="#0E141B"/>
<path d="M264.084 452.518C264.552 445.896 264.255 431.054 251.318 414.332C251.249 414.241 251.226 413.99 251.226 413.671C251.226 411.836 252.15 409.385 252.777 409.146C254.464 409.453 266.672 418.687 270.901 423.839L271.562 420.989C267.527 416.076 254.76 405.794 252.435 406.125C249.528 406.524 247.659 413.819 248.855 415.392C260.608 430.655 262.648 445.28 261.645 455.402L264.073 452.53L264.084 452.518Z" fill="#0E141B"/>
<path d="M286.312 530.977C273.67 540.051 244.193 546.582 230.161 529.507C221.042 518.404 219.799 503.244 226.456 488.163C233.102 473.105 246.416 461.296 258.236 459.768L260.459 456.725C245.162 457.682 231.301 470.221 223.971 486.841C217.007 502.617 217.759 519.179 227.95 531.285C244.204 550.583 278.766 543.071 290.404 531.764L286.312 530.977Z" fill="#0E141B"/>
<path d="M228.633 529.894C232.919 516.284 246.439 505.535 255.387 501.956L254.429 499.402C245.447 502.674 231.13 513.206 226.639 527.466L228.633 529.883V529.894Z" fill="#0E141B"/>
<path d="M253.859 469.912C240.614 473.902 228.029 491.513 233.056 497.691C234.903 499.971 245.162 497.976 253.004 493.987L252.24 491.764C244.888 495.411 235.621 497.554 234.435 495.845C231.107 491.046 243.03 476.182 253.004 472.34L253.859 469.924V469.912Z" fill="#0E141B"/>
<path d="M256.14 541.578C255.433 550.412 245.881 560.83 234.197 565.8C228.497 568.228 220.039 570.348 210.943 564.284C201.037 557.684 197.139 546.376 199.613 533.416C202.223 519.692 209.484 509.592 221.157 507.05L220.951 504.109C207.558 507.096 199.419 518.939 196.729 533.028C194.141 546.593 198.61 559.337 208.983 566.37C217.395 572.07 226.822 572.252 235.633 568.502C247.91 563.281 259.286 552.258 259.434 541.429L256.151 541.566L256.14 541.578Z" fill="#0E141B"/>
<path d="M206.976 514.848C205.46 519.407 204.867 526.076 205.46 526.44C206.041 526.794 216.915 518.871 222.49 517.435L223.014 519.305C217.337 520.741 206.987 529.199 204.422 528.344C202.621 527.74 203.476 521.128 204.798 516.66L206.987 514.859L206.976 514.848Z" fill="#0E141B"/>
<path d="M204.274 559.85C205.972 544.975 216.858 528.332 226.445 527.101L225.111 524.936C215.103 526.851 205.072 541.897 202.45 557.548L204.274 559.839V559.85Z" fill="#0E141B"/>
<path d="M230.936 568.605C233.228 575.991 230.366 585.498 224.359 593.443C211.752 610.119 189.353 604.295 184.543 585.942C181.477 574.258 184.965 557.274 198.974 549.694L198.142 547.414C182.502 555.348 178.786 574.555 182.024 586.923C187.564 608.079 212.96 613.243 226.639 595.141C233 586.729 236.191 577.051 233.341 567.784L230.948 568.593L230.936 568.605Z" fill="#0E141B"/>
<path d="M191.724 598.903C189.604 585.327 199.191 566.507 207.272 563.384L205.699 561.537C197.241 564.809 188.031 582.192 189.308 596.874L191.713 598.914L191.724 598.903Z" fill="#0E141B"/>
<path d="M184.896 565.664C184.759 567.51 185.796 570.645 186.321 570.508C188.031 570.086 193.445 559.394 201.003 555.553L202.142 557.548C195.166 559.964 189.319 572.651 186.093 572.89C185.055 572.97 183.619 570.235 183.482 568.092L184.907 565.675L184.896 565.664Z" fill="#0E141B"/>
<path d="M183.186 584.893C172.346 592.427 168.402 610.791 172.494 623.364C177.51 638.752 196.911 641.978 209.404 629.348C216.585 622.087 221.373 611.68 219.948 600.566L217.6 601.603C218.432 610.7 214.967 620.149 207.66 627.365C195.304 639.562 179.003 635.082 174.991 622.589C170.967 610.05 174.751 594.08 183.882 587.389L183.175 584.893H183.186Z" fill="#0E141B"/>
<path d="M181.043 632.483C180.302 612.911 186.788 602.321 192.157 599.996L190.447 598.389C184.041 600.566 177.874 611.247 178.661 631.799L181.055 632.471L181.043 632.483Z" fill="#0E141B"/>
<path d="M182.285 652.101C167.752 655.874 156.729 717.348 166.76 764.653C167.296 767.184 164.845 767.993 164.298 765.679C157.367 735.985 152.5 669.336 180.336 632.346L177.771 630.352C149.502 667.911 154.164 735.883 161.95 766.283C163.546 772.496 170.157 770.296 169.074 764.289C159.67 712.332 172.779 659.328 182.468 656.09L182.274 652.101H182.285Z" fill="#0E141B"/>
<path d="M201.447 633.658C222.284 648.978 248.513 690.812 258.145 724.519C258.67 726.331 257.416 726.913 256.892 725.385C249.459 703.693 224.826 658.565 203.681 647.679L204.001 651.851C224.177 664.002 246.974 704.856 255.068 726.012C256.743 730.378 261.234 728.486 260.072 724.029C251.146 689.638 225.225 647.109 204.103 631.572L201.47 633.658H201.447Z" fill="#0E141B"/>
<path d="M213.94 737.786C214.054 738.641 214.191 740.283 213.997 741.218C213.86 741.901 213.359 742.494 212.595 741.616C188.019 713.199 184.064 665.096 183.893 654.005C183.802 647.849 183.46 638.479 180.61 631.492L175.617 627.787C178.41 633.133 180.769 641.819 180.462 654.141C180.2 664.583 184.577 713.86 210.954 743.475C213.405 746.222 217.77 744.489 215.673 737.775C214.932 735.404 213.61 735.393 213.917 737.775L213.94 737.786Z" fill="#0E141B"/>
<path d="M215.24 742.483C217.177 744.41 220.802 745.618 223.435 746.279C224.678 746.598 225.59 746.177 224.496 744.763C215.376 732.943 206.759 693.309 206.212 667.969C205.87 651.942 205.266 636.337 202.986 632.541L200.045 634.251C201.914 637.249 202.815 659.876 202.986 668.163C203.499 692.032 211.113 727.767 220.027 742.597C218.409 741.663 216.152 740.466 215.24 739.212V742.483Z" fill="#0E141B"/>
<path d="M204.468 732.771C202.393 731.836 199.475 730.913 198.062 730.639C197.48 730.525 197.024 730.582 196.91 731.46C196.386 735.495 196.375 743.349 196.489 750.154C192.681 746.153 189.216 741.559 185.967 733.922C185.09 731.87 183.881 731.654 183.482 734.013C182.206 741.48 181.328 751.078 180.416 757.381C176.677 754.896 172.494 751.055 170.317 748.365C169.53 747.396 169.04 747.726 168.675 748.593C167.661 750.964 166.954 753.38 166.532 755.888L167.558 762.465C167.684 759.228 169.063 754.543 170.134 751.613C172.824 754.6 177.418 758.954 181.225 761.2C181.773 761.53 182.559 761.337 182.673 760.504C183.46 754.999 184.121 746.096 185.34 738.71C188.726 744.671 191.838 749.117 196.375 753.562C197.446 754.68 198.597 754.531 198.597 753.004C198.597 747.703 198.632 737.752 199.133 733.466C201.025 733.991 204.753 735.324 206.599 736.407L204.468 732.759V732.771Z" fill="#0E141B"/>
<path d="M525.415 170.817C540.04 175.593 551.519 185.43 561.299 201.275C568.936 213.654 577.485 227.777 596.533 232.861C600.26 233.853 600.522 235.961 597.684 240.225C593.751 246.129 584.769 255.989 575.924 264.595C573.781 266.681 570.065 268.756 566.953 268.608C552.67 267.912 537.27 270.717 528.151 290.801L527.866 298.348C535.503 275.139 552.214 270.671 567.477 271.423C571.318 271.606 575.513 269.292 577.873 267.012C586.878 258.326 597.057 247.28 601.104 241.228C605.082 235.266 604.261 231.47 598.117 229.829C579.822 224.95 571.398 212.24 563.59 199.576C554.619 185.042 544.805 175.787 533.52 170.338L525.426 170.828L525.415 170.817Z" fill="#0E141B"/>
<path d="M478.532 166.656C461.616 170.84 445.213 179.571 432.104 192.498L435.524 193.489C447.231 182.66 462.038 174.715 477.552 170.577L478.532 166.656Z" fill="#0E141B"/>
<path d="M223.39 493.428C221.144 475.418 214.134 446.727 204.787 442.84C202.655 441.951 197.799 443.251 197.378 445.975C196.774 449.896 208.207 474.381 204.308 485.962C203.647 487.946 204.969 488.322 205.79 486.407C210.418 475.498 199.076 449.075 199.965 446.454C200.239 445.69 202.633 444.539 204.126 445.177C212.39 448.768 219.423 476.399 221.612 496.894L223.401 493.44L223.39 493.428Z" fill="#0E141B"/>
<path d="M199.168 529.974C198.085 520.718 194.528 514.141 187.826 508.851C187.199 508.361 188.909 507.21 189.593 507.609C193.218 509.684 197.64 508.236 198.963 504.258C202.884 492.471 189.923 482.919 189.661 481.198C189.433 479.67 191.143 476.251 192.75 475.316C194.449 475.612 201.767 482.645 205.905 483.033L206.235 480.833C202.622 480.639 194.745 472.671 192.568 472.899C190.949 473.07 186.504 478.656 187.29 481.756C187.906 484.184 200.741 492.916 197.162 503.585C196.067 506.845 192.42 506.72 190.322 505.523C188.966 504.748 186.401 506.184 185.535 507.472C184.839 508.509 185.045 509.695 186.048 510.493C192.978 515.953 196.808 522.507 197.481 532.675L199.179 529.985L199.168 529.974Z" fill="#0E141B"/>
<path d="M452.064 519.954C447.482 524.993 433.016 529.393 424.49 526.988C423.806 526.794 423.316 528.811 424 529.039C432.389 531.786 447.105 527.785 452.93 522.2C453.272 521.869 452.543 519.43 452.064 519.954Z" fill="#0E141B"/>
<path d="M447.88 347.567C440.095 345.481 428.878 344.911 421.663 346.804C413.877 356.687 404.758 376.247 402.091 392.023C414.436 373.979 432.674 355.353 447.88 347.567Z" fill="#00A2D0"/>
<path d="M401.715 396.959C414.094 375.301 437.257 353.164 451.494 348.32L446.102 347.18C432.515 352.799 415.188 369.898 403.163 389.504L401.715 396.959Z" fill="#0E141B"/>
<path d="M329.446 361.84C329.64 359.081 329.252 355.137 329.047 353.165C318.788 351.387 306.01 357.588 301.245 372.691C296.515 387.681 299.273 406.409 304.995 419.028C310.718 431.647 318.993 450.979 312.883 472.078C306.774 493.178 293.893 505.99 279.553 496.142C273.238 491.799 271.243 483.443 279.553 473.469C282.505 469.924 277.889 466.459 274.424 469.924C269.499 474.86 262.192 491.616 276.202 501.282C290.393 511.074 313.624 502.798 319.985 475.247C323.53 459.87 325.308 445.473 313.089 417.079C300.858 388.684 307.571 357.918 329.457 361.862L329.446 361.84Z" fill="#00B9EF"/>
<path d="M410.697 365.783C412.077 362.238 414.641 357.895 415.827 355.524C445.213 350.201 467.259 381.149 454.275 418.435C445.008 445.062 423.749 495.833 424.102 511.906C424.41 526.052 426.633 533.153 440.939 533.746C447.778 534.031 457.41 530.064 456.897 518.642C456.623 512.555 461.32 510.184 462.505 517.217C465.731 536.402 454.332 542.671 442.181 542.671C430.03 542.671 413.114 535.638 415.587 511.13C418.061 486.623 439.878 437.642 443.708 416.326C449.408 384.603 444.655 363.127 410.709 365.772L410.697 365.783Z" fill="#00B9EF"/>
<path d="M329.833 360.084C320.976 359.206 314.672 362.729 310.614 368.667C302.134 381.115 305.986 405.315 314.091 423.553C324.384 446.727 322.971 474.107 311.925 490.829C299.101 510.242 275.939 505.42 270.764 492.642C267.538 484.674 270.331 475.327 274.913 470.893C277.911 467.986 280.92 470.334 278.914 472.705C273.009 479.693 271.653 486.03 274.229 491.593C278.526 500.86 295.226 507.403 307.673 488.23C316.701 474.324 321.067 451.332 309.03 424.761C295.967 395.945 299.751 374.401 307.651 363.868C313.042 356.676 320.759 353.381 329.388 354.601V351.934C320.018 350.612 311.424 354.259 305.587 362.045C297.357 373.033 292.308 396.059 306.157 425.445C318.502 451.663 313.954 473.982 305.679 486.806C293.755 505.306 279.324 497.247 276.326 490.795C274.081 485.962 275.301 479.955 280.396 473.936C284.078 469.582 278.116 465.068 273.568 469.479C267.823 475.053 265.475 485.631 268.632 493.451C274.56 508.087 299.671 513.148 313.943 492.402C326.105 474.734 326.801 445.838 316.793 422.39C309.167 404.517 305.302 380.978 312.849 370.149C316.565 364.826 321.968 362.033 329.81 362.603L329.833 360.061V360.084Z" fill="#0E141B"/>
<path d="M410.161 367.175C422.985 366.32 432.423 368.428 438.259 375.553C452.086 392.412 440.368 426.449 431.101 452.096C418.87 485.974 408.736 516.021 417.855 531.843C424.9 544.085 448.518 548.417 458.698 538.112C463.474 533.279 465.343 525.38 463.451 516.648C461.992 509.934 455.027 510.789 455.666 517.127C456.19 522.325 455.061 526.121 452.052 529.005C445.315 535.434 431.466 532.926 427.544 526.155C419.531 512.351 432.64 481.164 443.64 453.111C455.586 422.653 469.378 390.28 448.632 365.488C440.938 356.289 429.391 352.527 416.146 354.237L415.188 357.36C427.476 355.548 438.909 359.024 446.159 367.676C464.397 389.471 454.708 415.973 440.619 452.427C429.596 480.947 416.807 513.16 425.276 527.774C429.79 535.571 446.079 538.261 453.694 530.988C457.113 527.728 458.606 522.963 458.037 517.218C457.649 513.411 460.328 513.16 461.16 517.503C462.664 525.334 461.103 532.048 456.794 536.414C447.333 545.989 426.131 540.689 420.09 530.202C411.426 515.155 421.925 486.316 434.065 452.917C446.9 417.626 454.32 390.44 440.938 373.752C434.578 365.818 424.33 362.911 410.856 364.416L410.161 367.197V367.175Z" fill="#0E141B"/>
<path d="M484.22 223.262C466.369 196.361 431.978 190.023 399.628 189.214C344.606 187.835 308.722 233.954 318.696 268.151C316.291 266.612 314.627 266.327 312.108 267.843C309.588 269.359 308.414 274.398 308.62 282.787L380.809 417.294C386.884 413.499 395.821 407.412 400.381 403.616C401.521 383.668 412.92 359.16 419.189 350.041C425.458 340.922 441.987 335.792 455.289 335.416C457.957 335.336 459.849 334.846 461.935 331.426C464.021 328.007 467.44 320.028 468.774 316.414C470.108 312.801 467.258 312.425 464.408 312.618C454.913 313.245 446.17 312.994 438.955 309.484C442.374 303.499 446.649 296.09 449.214 290.675C451.778 285.261 454.343 283.266 458.618 281.556C464.91 279.037 481.131 272.722 496.519 266.453C496.245 258.713 496.211 251.463 494.65 245.171C500.645 243.461 507.701 241.957 510.904 238.537C514.119 235.117 514.974 231.8 515.293 229.019C515.612 226.237 514.119 224.208 510.164 224.208C506.208 224.208 494.444 223.536 484.22 223.285V223.262Z" fill="#00B9EF"/>
<path d="M372.83 307.284C372.397 301.197 369.98 297.971 363.141 300.251C356.302 302.531 333.698 308.036 315.642 301.585L313.556 307.854C327.428 329.888 330.654 353.073 329.32 365.418C328.089 376.829 323.621 395.626 313.556 418.423C315.642 421.843 321.341 431.532 323.439 436.092C328.762 436.092 339.203 438.748 343.193 443.125C347.182 447.502 352.688 446.921 355.732 440.651C358.775 434.382 373.901 403.388 379.475 392.582C382.519 386.689 383.932 383.497 381.949 376.624C377.389 360.859 373.97 323.425 372.83 307.284Z" fill="#933000"/>
<path d="M377.595 354.646C365.09 355.159 343.934 360.927 331.965 387.43C319.996 413.932 325.764 428.044 336.661 431.464C339.579 432.376 353.76 430.609 363.585 424.203C368.077 415.437 375.987 400.048 379.407 393.209C382.827 386.37 383.682 382.312 381.755 376.111C379.829 369.91 378.552 362.478 377.595 354.658V354.646Z" fill="#EE869A"/>
<path d="M438.602 309.371C442.922 302.452 448.291 292.591 450.012 288.967C451.744 285.33 452.976 283.666 457.102 282.048C475.26 274.957 530.648 252.547 558.45 237.25C561.903 235.346 564.673 236.555 558.279 244.682C535.447 256.617 494.376 275.847 474.747 284.111C468.17 286.881 465.058 289.468 461.776 294.313C458.493 299.157 454.685 306.589 452.611 312.3C448.462 312.3 443.959 311.263 438.602 309.359V309.371Z" fill="#00B9EF"/>
<path d="M317.83 246.482C306.898 236.018 291.475 212.479 285.138 198.698C283.12 194.298 280.43 196.429 281.935 201.548C285.024 212.126 299.17 240.292 317.237 258.006C317.237 254.564 317.237 250.631 317.83 246.482Z" fill="#00B9EF"/>
<path d="M324.43 242.346C318.218 243.782 315.516 254.121 318.537 267.492C323.154 271.151 328.408 273.385 330.95 273.693C328.249 263.354 325.388 248.866 324.43 242.346Z" fill="white"/>
<path d="M362.776 262.236C364.053 264.937 369.137 273.532 371.69 274.968C374.232 276.404 386.703 276.325 389.986 274.968C395.4 272.745 402.878 257.152 405.42 240.281C396.027 244.259 375.349 254.598 362.776 262.236Z" fill="white"/>
<path d="M326.185 252.787C322.481 254.087 319.973 260.299 323.222 270.49C325.262 271.88 328.784 273.271 330.961 273.693C329.616 268.084 327.211 257.791 326.185 252.787Z" fill="#AB003F"/>
<path d="M374.015 275.219C372.351 266.692 372.898 254.085 379.852 253.059C386.805 252.045 387.546 267.524 383.75 276.051C381.801 276.051 377.07 275.777 374.015 275.219Z" fill="#AB003F"/>
<path d="M315.653 301.585C314.707 305.951 311.287 316.404 308.438 316.404C305.588 316.404 303.684 305.575 303.502 297.025C307.298 299.305 311.675 300.639 315.665 301.585H315.653Z" fill="white"/>
<path d="M355.925 301.973C356.689 308.243 358.581 320.212 361.43 320.405C364.28 320.599 368.464 305.963 370.173 300.263C366.754 297.414 359.721 301.78 355.925 301.973Z" fill="white"/>
<path d="M345.29 444.642C344.914 437.996 344.914 425.458 346.623 424.888C348.333 424.318 353.657 434.77 355.743 440.652C353.657 446.158 349.473 447.115 345.29 444.642Z" fill="white"/>
<path d="M551.622 248.488C535.287 256.547 486.717 278.251 476.8 283.004C466.883 287.757 463.577 290.448 461.092 294.996C458.607 299.544 455.689 305.015 452.6 312.299C455.301 312.356 460.476 312.835 464.398 312.596C468.319 312.356 470.599 313.177 468.524 317.725C466.461 322.273 462.939 329.295 461.502 331.78C460.055 334.265 458.413 334.938 454.059 335.496C444.552 336.739 430.908 338.391 422.849 346.45C444.552 343.555 475.762 351.819 498.298 381.593L505.947 368.781C500.578 359.479 499.54 345.835 503.462 340.876C507.394 335.918 517.311 331.78 533.429 333.022C535.914 330.127 540.451 323.516 542.115 318.557C532.403 311.524 526.921 302.485 527.855 293.958C529.303 280.724 543.768 259.443 551.622 248.488Z" fill="#EFEFEF"/>
<path d="M317.237 258.007C305.77 246.106 291.715 225.212 284.5 208.684C289.629 229.008 294.189 250.096 293.049 256.559C291.909 263.022 285.446 269.098 276.521 273.087L276.897 288.852C286.392 291.896 297.039 296.068 304.06 304.241L303.49 297.025C296.457 293.412 293.425 278.411 308.814 276.883C309.007 270.614 312.313 264.55 318.548 267.479C317.75 263.957 317.363 261.677 317.363 258.451" fill="#EFEFEF"/>
<path d="M344.526 226.923C336.741 208.491 329.958 176.539 327.234 161.573C325.718 153.217 322.606 149.649 318.685 150.55C316.211 151.12 315.504 155.497 315.641 158.335C316.587 177.144 321.717 237.364 330.836 272.894C333.879 274.034 340.525 274.228 344.708 271.378C348.892 268.529 350.602 268.152 352.881 268.529C379.669 251.624 448.575 218.305 477.699 206.975C484.539 204.319 483.205 197.092 476.753 198.425C470.301 199.759 406.274 215.717 383.088 223.503C394.487 189.682 421.469 130.978 431.158 110.46C430.588 108.944 429.448 106.47 428.502 105.524C427.556 104.578 425.173 104.122 423.748 106.288C410.07 127 375.075 182.262 364.28 200.135C357.635 211.158 349.655 223.697 344.526 226.923Z" fill="#00568B"/>
<path d="M358 359.593C357.624 341.902 359.904 327.163 373.879 322.41C374.54 328.782 376.728 347.796 377.583 354.646C371.588 354.737 364.839 355.877 358 359.593Z" fill="#6A1B00"/>
<path d="M308.62 282.776L308.814 276.883C300.835 277.829 297.039 282.776 297.221 287.142C297.415 291.508 302.522 298.051 311.846 300.82C325.901 305.004 343.124 305.46 361.055 300.627C365.991 299.293 372.841 297.583 373.218 306.326C373.981 323.994 377.207 357.815 381.573 374.72C383.089 380.567 384.001 383.155 381.197 388.774C377.401 396.377 363.095 425.205 356.689 438.93C354.033 444.629 349.861 448.698 345.29 444.629C340.161 440.069 329.206 434.119 321.729 436.456C312.61 439.306 306.534 434.94 309.76 428.283C314.775 417.956 321.159 398.84 324.955 385.161C316.212 400.743 308.426 415.562 304.63 421.444C300.835 427.337 298.361 437.026 302.544 443.295C306.728 449.565 313.465 450.682 317.557 449.759C323.45 448.425 334.929 452.449 342.828 458.878C351.001 465.523 359.812 464.566 362.776 456.222C370.185 435.327 381.356 415.151 392.22 397.894C395.445 392.764 399.253 387.634 394.499 374.15C389.746 360.665 385.528 331.016 386.326 306.52C386.702 294.927 381.391 283.152 365.432 286.378C347.752 289.957 324.59 294.733 308.631 282.765L308.62 282.776Z" fill="#F1E890"/>
<path d="M323.438 436.091C319.448 427.736 312.803 415.949 310.523 416.713C308.243 417.477 310.329 429.822 310.899 435.897C313.749 439.123 319.072 437.413 323.438 436.091Z" fill="white"/>
<path d="M308.426 316.404C307.89 322.16 307.013 328.19 298.726 334.345C301.233 338.369 304.756 343.259 307.89 347.283C312.666 346.656 320.577 345.277 327.861 343.51C326.231 333.206 320.201 317.76 313.92 307.467C312.917 310.351 310.968 315.036 308.426 316.404Z" fill="#EFEFEF"/>
<path d="M325.924 155.805C325.924 172.641 332.239 211.978 338.759 232.177L344.652 227.549C337.505 212.4 329.925 177.064 325.924 155.816V155.805Z" fill="#004370"/>
<path d="M327.394 255.523C330.448 265.839 339.271 268.084 348.436 262.67C375.394 246.734 434.27 217.439 478.657 205.652C444.152 221.428 392.401 242.893 353.486 268.346C350.328 268.551 346.327 270.66 342.543 272.347C338.758 274.034 333.914 273.818 330.756 273.396C329.594 267.241 328.75 262.259 327.394 255.511V255.523Z" fill="#004370"/>
<path d="M373.879 226.068C384.605 196.191 411.746 136.655 430.68 111.828C420.375 133.703 389.872 201.241 382.93 223.332L373.879 226.068Z" fill="#004370"/>
<path d="M470.108 210.018C471.055 213.426 472.046 217.074 472.913 222.534C476.754 222.751 481.12 222.751 483.593 222.933C479.41 216.287 475.238 212.104 472.194 209.061L470.108 210.007V210.018Z" fill="#00A2D0"/>
<path d="M494.422 244.785C488.152 246.688 472.957 250.108 470.29 254.474C476.559 255.42 484.858 255.659 486.442 257.894C488.722 261.119 487.582 266.819 482.646 269.669L483.41 271.755L496.519 266.055C496.895 259.98 495.949 250.473 494.433 244.773L494.422 244.785Z" fill="#00A2D0"/>
<path d="M480.937 270.238C471.054 271.948 458.333 274.422 449.59 281.067C440.847 287.713 430.018 301.391 438.761 309.188C443.127 301.779 447.687 294.564 449.59 290.004C451.494 285.444 453.09 283.575 457.193 282.025C462.699 279.939 475.238 274.992 481.325 272.142L480.949 270.238H480.937Z" fill="#00A2D0"/>
<path d="M422.985 345.859C416.442 352.06 403.037 376.829 400.564 403.799C395.058 408.165 386.315 414.434 380.422 417.284C385.928 407.401 390.818 401.132 393.531 396.002C397.144 389.163 397.714 384.227 395.434 376.43C407.403 348.697 421.709 332.18 461.388 330.516C460.83 332.556 459.701 334.3 456.008 334.961C449.887 336.078 432.036 337.252 422.974 345.847L422.985 345.859Z" fill="#00A2D0"/>
<path d="M450.536 288.1C450.536 292.078 457.969 294.608 464.021 290.573C459.462 297.413 454.526 307.102 452.429 312.425C447.869 312.425 442.933 311.479 438.75 309.199C442.933 301.79 447.299 294.38 450.525 288.111L450.536 288.1Z" fill="#00A2D0"/>
<path d="M487.355 261.541C484.197 264.322 479.752 265.987 476.047 266.739C472.342 267.491 447.858 269.703 437.667 294.187C444.153 283.985 455.187 275.767 468.638 273.236C478.464 271.378 485.508 271.572 487.366 261.552L487.355 261.541Z" fill="#00A2D0"/>
<path d="M464.979 253.527C472.582 245.354 490.352 240.122 499.973 237.808C504.612 236.691 511.098 234.468 514.621 229.84C513.139 235.585 512.398 239.483 504.054 241.888C495.71 244.294 473.63 249.252 470.302 254.473L464.979 253.527Z" fill="#00A2D0"/>
<path d="M545.705 256.684C529.861 265.165 486.112 287.245 479.136 291.952C473.698 295.611 467.304 304.343 465.172 312.539C462.459 312.755 456.668 312.938 452.439 312.413C455.483 304.343 463.177 291.234 467.167 287.951C471.156 284.668 524.868 262.452 551.234 248.488L545.705 256.684Z" fill="#C9CACA"/>
<path d="M518.735 315.458C506.573 315.651 480.173 317.931 465.73 324.007L469.344 314.124C487.206 307.285 506.197 310.704 518.735 315.458Z" fill="#C9CACA"/>
<path d="M456.019 334.973C471.43 342.051 490.238 358.204 500.691 376.636L498.605 382.711C487.97 364.279 455.483 343.191 422.996 345.859C429.265 339.783 441.565 336.819 456.03 334.973H456.019Z" fill="#C9CACA"/>
<path d="M288.17 222.808C292.422 235.301 302.453 254.657 311.504 267.834C312.598 266.876 315.755 266.329 319.05 268.381C317.955 265.497 316.986 260.835 317.534 257.814C310.808 252.73 294.884 229.807 286.643 213.746L288.147 222.808H288.17Z" fill="#C9CACA"/>
<path d="M276.908 286.367C283.223 286.23 290.632 286.367 298.053 289.114C298.737 291.451 300.664 295.156 303.547 296.797L303.958 304.48C298.327 298.575 288.717 291.577 277.045 289.24L276.908 286.356V286.367Z" fill="#C9CACA"/>
<path d="M303.297 341.675C312.04 339.02 317.739 335.782 324.191 329.9C325.901 335.406 326.665 338.45 327.611 343.385L307.856 347.751L303.297 341.675Z" fill="#C9CACA"/>
<path d="M385.938 305.004C383.282 328.372 385.061 359.696 388.788 373.591C390.874 381.377 392.128 387.395 388.218 392.969C381.573 402.464 366.56 430.962 359.151 448.824C356.803 454.478 350.978 457.179 345.096 452.813C339.214 448.448 330.278 443.888 322.492 444.64C314.707 445.404 304.63 446.156 301.028 436.285C299.694 441.791 305.462 451.286 315.653 450.157C322.492 449.394 330.597 449.838 341.3 458.137C348.903 464.03 358.946 467.085 363.722 453.771C367.335 443.706 377.173 420.007 392.025 398.862C396.961 391.829 398.91 387.452 393.735 373.215C389.176 360.676 386.132 326.479 385.95 305.015L385.938 305.004Z" fill="#CAC379"/>
<path d="M300.652 279.791C299.991 287.941 305.394 293.002 311.788 295.419C326.755 301.072 343.044 301.916 366.697 297.926C356.005 303.341 331.212 308.106 309.794 300.069C300.481 296.581 293.163 287.77 300.652 279.779V279.791Z" fill="#CAC379"/>
<path d="M331.851 389.333C351.365 376.555 371.04 384.284 373.229 405.143C379.954 392.525 384.183 385.549 382.143 376.715C380.626 370.16 379.11 362.249 377.936 354.852C360.45 354.852 340.092 365.282 331.851 389.333Z" fill="#CF7487"/>
<path d="M310.33 300.445C310.33 304.629 310.136 311.08 307.856 316.598C310.9 314.124 313.75 308.812 316.029 301.585L310.33 300.445Z" fill="#C9CACA"/>
<path d="M362.571 300.491C363.574 305.757 363.996 311.172 360.998 320.291C363.563 318.729 367.552 309.61 369.832 300.343C368.692 299.636 366.276 298.781 362.56 300.48L362.571 300.491Z" fill="#C9CACA"/>
<path d="M310.604 416.852C313.419 423.668 316.44 432.97 316.77 438.054C318.389 437.404 320.988 436.754 323.587 436.537C320.122 428.638 314.935 419.337 310.604 416.852Z" fill="#C9CACA"/>
<path d="M346.407 424.316C348.459 430.585 350.522 439.67 350.739 445.621C352.471 445.187 354.421 443.022 355.39 440.856C353.44 435.02 349.77 427.553 346.407 424.305V424.316Z" fill="#C9CACA"/>
<path d="M355.15 268.493C382.69 251.053 446.421 221.461 479.831 207.543C483.707 205.925 484.106 203.269 483.49 200.658C482.909 198.162 480.355 196.737 477.186 197.284C456.965 200.795 398.625 216.15 374.254 225.337C371.268 226.466 371.769 228.107 374.836 227.184C396.779 220.561 463.485 202.163 477.3 199.86C479.934 199.427 480.515 200.465 480.754 201.662C480.857 202.197 480.994 204.044 478.212 205.127C442.807 218.988 379.258 248.91 350.465 268.63L355.161 268.493H355.15Z" fill="#0E141B"/>
<path d="M324.51 270.718C323.564 268.62 322.743 264.266 322.903 261.074C323.154 256.253 325.194 254.155 326.494 254.155L326.118 251.682C323.279 252.423 321.205 255.079 320.931 260.949C320.783 264.049 321.341 267.458 322.174 269.726L324.51 270.718Z" fill="#0E141B"/>
<path d="M325.912 271.094C324.316 265.235 325.216 262.431 325.912 262.351C326.767 262.26 327.656 267.218 327.2 271.994L325.912 271.094Z" fill="#0E141B"/>
<path d="M377.982 275.196C376.911 270.01 378.016 264.196 379.202 264.162C380.387 264.139 381.39 271.526 380.319 275.265L377.982 275.196Z" fill="#0E141B"/>
<path d="M320.839 280.19C319.506 277.853 317.306 275.14 315.471 274.673C313.635 274.206 312.769 275.551 314.695 276.839C316.633 278.127 318.4 279.404 319.825 280.828C320.532 281.535 321.58 281.478 320.839 280.179V280.19Z" fill="#0E141B"/>
<path d="M356.906 277.305C359.174 276.884 358.194 274.262 355.048 275.037C351.89 275.801 349.155 277.636 346.681 280.087C345.712 281.044 346.305 281.671 347.616 280.896C350.636 279.118 353.828 277.887 356.917 277.317L356.906 277.305Z" fill="#0E141B"/>
<path d="M408.178 260.413C405.226 266.34 401.191 271.857 396.494 276.747C394.545 278.776 395.503 279.836 397.805 278.172C403.413 274.137 407.973 267.104 409.877 261.347C410.675 258.942 409.307 258.144 408.178 260.413Z" fill="#0E141B"/>
<path d="M420.636 348.446C444.358 341.96 479.979 358.636 497.077 382.996C497.944 384.227 499.061 384.478 499.927 382.859C502.207 378.584 504.35 374.458 507.473 369.329C507.633 369.078 507.61 368.747 507.473 368.474C502.253 357.553 500.645 348.081 504.897 341.538C507.952 336.83 519.009 334.026 533.782 334.664C534.101 334.676 534.409 334.528 534.603 334.266C538.626 328.805 541.886 324.155 543.938 318.877C544.086 318.489 543.972 318.056 543.665 317.783C534.728 310.214 529.621 306.566 528.812 295.156C528.345 288.693 539.082 267.194 554.026 247.463L549.216 249.481C534.261 269.588 525.643 287.952 526.133 295.361C527 307.489 531.422 311.844 540.097 319.151C538.205 323.858 536.415 326.206 532.824 331.119C520.65 330.652 507.04 333.251 502.48 340.09C497.636 347.363 498.536 356.778 503.985 368.417C501.489 372.725 500.201 375.005 498.354 378.995C480.788 355.228 446.637 339.999 423.828 345.231L420.625 348.434L420.636 348.446Z" fill="#0E141B"/>
<path d="M383.784 223.468C390.692 201.468 426.598 125.096 432.115 111.554C432.742 110.015 431.112 106.572 429.699 104.999C427.51 102.594 424.501 102.891 422.426 105.991C406.012 130.749 368.897 189.1 356.062 210.359C350.362 219.798 344.936 225.303 339.214 229.384C333.321 233.59 330.813 237.044 329.992 243.2C329.673 245.628 331.292 246.995 331.953 244.203C333.093 239.358 335.509 235.939 341.494 231.881C347.604 227.731 352.847 221.314 358.74 211.716C371.051 191.665 408.918 131.536 424.672 107.37C425.8 105.638 427.134 106.105 427.635 106.572C428.844 107.701 429.699 109.548 429.778 110.801C421.89 127.717 386.52 203.167 381.128 224.312L383.784 223.457V223.468Z" fill="#0E141B"/>
<path d="M332.364 273.567C324.202 241.457 317.659 185.534 317.659 154.734C317.659 153.662 317.979 152.158 319.392 152.032C321.239 151.861 324.487 154.13 325.137 158.621C327.565 175.583 335.248 208.947 343.33 228.553L345.746 226.707C338.77 209.813 331.783 179.971 327.645 157.891C326.596 152.306 323.017 148.829 318.959 149.205C318.161 149.274 314.536 149.878 314.536 154.187C314.536 185.101 321.216 240.431 329.412 272.69L332.341 273.59L332.364 273.567Z" fill="#0E141B"/>
<path d="M516.741 228.255C517.072 225.212 515.134 222.841 510.609 222.841C502.276 222.841 482.396 221.849 461.491 219.854C459.04 219.626 458.812 221.393 461.251 221.781C482.681 225.132 500.213 225.702 510.187 225.873C512.706 225.918 513.721 226.979 513.55 228.517C513.299 230.729 512.74 235.915 508.386 238.651C505.707 240.338 499.677 242.185 493.237 243.951C482.396 246.927 471.647 249.833 468.718 253.903L471.852 254.758C474.394 251.224 484.756 249.058 494.08 246.357C500.623 244.453 507.417 242.914 510.324 241.09C515.465 237.853 516.456 230.763 516.73 228.267L516.741 228.255Z" fill="#0E141B"/>
<path d="M379.247 419.758C385.893 415.575 398.067 408.222 401.384 405.281C401.578 405.11 401.715 404.905 401.76 404.654C404.952 384.091 409.739 367.186 419.816 351.513C428.89 337.401 456.806 337.321 459.758 336.113C461.935 335.224 465.833 327.94 470.678 316.404C472.114 312.985 470.769 310.739 466.78 311.047C451.79 312.198 439.308 310.614 437.462 305.803C435.763 301.369 437.861 292.922 449.043 283.325C459.746 274.137 477.848 274 483.969 270.296C487.457 268.187 490.045 263.65 489.099 259.182C488.494 256.355 486.636 255.375 483.399 254.953C475.876 253.984 461.297 251.932 454.628 250.781C447.971 249.629 446.444 244.318 448.177 239.405C448.94 237.227 447.527 236.464 446.455 238.504C442.785 245.492 446.091 252.149 454.047 253.619C461.262 254.953 475.078 256.628 482.635 257.609C484.505 257.848 485.542 258.532 485.861 260.082C486.534 263.24 483.593 267.457 482.111 268.301C477.426 270.98 458.31 271.572 446.911 281.546C437.154 290.084 432.56 300.001 435.079 306.624C437.291 312.415 449.282 315.469 465.628 314.216C467.304 314.09 467.783 315.025 467.144 316.461C461.251 329.764 458.743 332.579 457.831 332.955C454.606 334.323 427.533 334.836 417.411 350.373C407.152 366.126 401.772 382.404 398.523 403.07C393.051 407.516 385.825 412.645 381.459 415.689L379.225 419.769L379.247 419.758Z" fill="#0E141B"/>
<path d="M560.786 237.534C560.764 238.857 558.826 242.812 556.25 244.317C538.593 254.61 493.692 274.113 470.758 284.065C466.301 286.002 463.052 289 460.898 292.454C456.612 299.339 452.827 306.748 450.342 312.448L453.899 312.87C456.612 306.315 460.032 300 463.725 294.21C465.685 291.132 468.353 288.419 472.411 286.664C495.38 276.689 540.006 256.548 557.766 246.197C561.071 244.271 564.366 237.694 563.089 235.551C562.61 234.753 560.729 234.833 559.476 235.505C537.863 247.144 494.399 266.487 455.974 280.907C452.656 282.15 450.582 283.894 449.18 286.8C446.661 292.01 441.235 303.146 437.838 308.367L440.072 309.746C443.537 304.434 448.929 294.187 451.471 288.943C452.656 286.493 454.594 284.464 457.455 283.392C495.949 268.95 539.094 249.207 560.775 237.534H560.786Z" fill="#0E141B"/>
<path d="M469.082 315.411C481.119 311.136 501.306 310.863 517.31 315.81C519.955 316.631 520.457 314.978 517.88 313.963C502.389 307.831 480.401 307.705 467.816 312.185L469.082 315.422V315.411Z" fill="#0E141B"/>
<path d="M282.972 197.856C283.405 197.674 284.18 198.756 285.309 201.458C290.94 214.977 306.123 237.285 317.602 248.752L318.309 245.378C306.978 234.047 293.425 213.621 287.509 200.512C285.594 196.271 283.713 194.505 281.935 195.2C280.282 195.838 279.792 199.201 281.274 203.373C286.973 219.423 303.593 247.965 317.853 260.538L317.488 256.765C304.106 242.984 288.398 216.96 283.702 202.678C282.824 200.01 282.493 198.061 282.983 197.867L282.972 197.856Z" fill="#0E141B"/>
<path d="M307.263 315.879C307.765 324.713 299.615 331.564 296.959 333.707C296.571 334.015 296.48 334.562 296.753 334.984C300.344 340.649 303.901 345.847 306.83 349.198C307.058 349.449 307.389 349.574 307.731 349.517C317.921 347.716 321.489 346.679 328.385 345.106L327.815 341.834C321.113 343.544 318.252 344.262 308.574 345.961C305.987 342.94 303.889 339.669 300.732 334.71C307.104 329.284 310.603 322.696 309.794 315.605L307.263 315.89V315.879Z" fill="#0E141B"/>
<path d="M303.912 302.885C296.925 294.495 285.788 289.902 278.367 287.816C278.048 285.24 277.934 277.215 278.082 274.285C287.908 269.304 292.741 262.955 294.178 256.332C295.466 250.427 291.191 229.693 287.053 213.871L281.354 201.48C286.312 219.776 292.981 249.983 291.715 255.796C290.359 261.997 284.488 267.879 275.654 271.869C275.335 272.017 275.141 272.336 275.13 272.689C274.936 276.554 274.891 285.16 275.518 289.594C275.575 289.982 275.848 290.289 276.224 290.392C284.363 292.615 298.201 297.425 304.528 307.889L303.912 302.896V302.885Z" fill="#0E141B"/>
<path d="M324.122 241.309C322.23 241.696 320.019 242.984 318.833 245.253C315.869 250.941 315.129 258.726 317.602 267.378L320.076 268.119C317.374 259.262 318.468 250.941 321.193 246.609C322.253 244.911 323.29 244.386 324.897 244.136L324.134 241.309H324.122Z" fill="#0E141B"/>
<path d="M363.642 238.184C359.06 239.541 355.64 243.622 352.574 252.365C351.673 254.941 353.166 255.636 354.341 253.162C357.92 245.639 361.339 241.65 364.36 239.985C366.731 238.686 366.23 237.421 363.642 238.184Z" fill="#0E141B"/>
<path d="M337.881 273.475C336.65 271.503 335.886 268.825 335.897 266.704C335.909 264.151 334.29 263.923 333.971 266.465C333.64 269.087 333.982 271.093 335.316 273.943L337.881 273.464V273.475Z" fill="#0E141B"/>
<path d="M403.949 240.807C401.464 260.265 391.855 273.02 389.609 274.08C386.964 275.323 373.958 274.628 372.169 273.659C370.561 272.781 366.469 266.443 364.281 261.735L361.716 263.206C365.135 270.239 368.555 274.696 371.12 275.984C373.514 277.181 387.443 278.07 390.635 276.406C394.761 274.274 406.115 258.601 407.118 239.359L403.937 240.796L403.949 240.807Z" fill="#0E141B"/>
<path d="M384.707 275.755C388.97 266.534 387.933 252.103 380.296 252.365C373.502 252.593 370.219 263.011 373.114 275.277L375.018 275.185C372.385 264.015 376.021 254.12 380.376 253.938C385.471 253.721 386.36 268.517 382.712 275.573L384.707 275.767V275.755Z" fill="#0E141B"/>
<path d="M310.329 283.633C309.383 277.557 310.136 272.428 311.663 270.102C313.487 267.332 316.382 268.028 320.019 270.33C329.377 276.269 338.063 276.417 346.612 271.949C352.699 268.768 358.672 267.013 368.042 279.962C369.798 282.39 371.245 281.376 369.638 278.857C360.291 264.255 351.799 266.09 345.472 269.384C337.482 273.567 329.753 273.374 320.919 267.754C315.641 264.403 312.028 264.517 309.281 268.711C307.674 271.174 307.195 277.318 307.89 282.801L310.329 283.633Z" fill="#0E141B"/>
<path d="M328.374 373.877C321.432 389.813 310.717 408.747 306.283 415.905C300.093 425.913 297.643 434.075 299.307 440.413C301.587 449.099 309.931 452.154 319.54 450.957C326.391 450.102 339.488 457.933 345.757 462.641C352.494 467.69 361.978 464.168 364.85 455.095C370.47 437.358 381.664 416.053 392.345 401.383C400.506 390.178 398.603 381.754 396.334 375.166C388.72 353.006 387.648 319.881 387.648 303.216C387.648 286.55 376.546 281.957 364.805 284.886C359.926 286.106 349.781 288.648 335.76 289.035C322.013 289.423 310.649 284.373 308.232 281.341C306.693 279.403 305.075 280.703 306.716 282.549C311.139 287.531 322.709 292.045 335.92 291.669C350.146 291.27 360.325 288.773 365.272 287.542C376.717 284.681 384.377 291.019 384.65 303.637C385.152 326.675 386.075 355.844 392.915 375.735C395.126 382.176 396.676 388.821 389.358 399.525C381.55 410.958 367.655 436.663 361.989 453.658C359.573 460.919 352.642 464.294 346.316 459.563C340.343 455.095 327.804 447.4 319.517 448.426C310.797 449.509 304.288 446.146 302.521 439.638C300.96 433.858 302.977 426.746 308.87 417.227C312.917 410.685 319.859 397.701 326.322 383.396L328.374 373.877Z" fill="#0E141B"/>
<path d="M314.605 420.053C318.651 410.239 322.584 398.783 325.878 388.342C329.947 375.45 332.353 362.25 330.289 349.688C328.112 336.443 324.727 324.531 314.605 306.064L312.997 308.903C322.55 326.525 325.57 337.149 327.679 349.939C330.267 365.703 324.727 384.022 323.553 387.555C320.338 397.187 316.428 408.187 312.553 417.694L314.616 420.065L314.605 420.053Z" fill="#0E141B"/>
<path d="M309.543 424.727C309.167 425.559 308.802 426.38 308.437 427.167C304.835 434.906 311.15 441.7 320.269 438.702C329.001 435.841 337.801 440.834 343.067 445.393C347.342 449.098 353.657 448.995 356.746 441.974C361.146 431.977 371.838 410.615 381.254 393.107C385.232 385.697 385.38 382.962 383.248 375.438C378.404 358.34 375.269 326.708 374.414 306.19C374.061 297.8 368.019 296.695 362.445 298.644C352.654 302.052 338.793 303.238 332.945 302.919C312.575 301.79 299.865 295.749 299.318 287.393C298.988 282.309 302.248 278.491 308.472 278.24L308.437 275.561C300.595 275.424 295.511 280.691 295.899 287.667C296.469 297.926 310.922 304.56 332.66 305.757C338.633 306.087 352.825 305.244 362.901 301.733C366.994 300.308 371.074 301.152 371.496 307.341C372.875 327.78 376.135 358.944 380.114 375.712C381.767 382.677 382.086 384.979 378.267 392.092C368.829 409.646 358.593 430.119 354.295 440.252C352.346 444.835 348.881 445.713 344.207 441.962C339.602 438.28 328.693 433.265 319.745 435.909C314.342 437.505 310.603 434.872 310.592 430.848L309.566 424.704L309.543 424.727Z" fill="#0E141B"/>
<path d="M351.753 431.601C355.469 430.393 359.06 428.581 362.161 426.335L364.543 421.57C360.519 424.899 355.424 427.6 350.306 429.116L351.753 431.601Z" fill="#0E141B"/>
<path d="M344.777 430.29C339.761 430.906 335.122 430.165 331.907 427.52C324.909 421.752 324.361 404.745 334.586 385.059C344.423 366.137 359.014 357.2 377.936 355.707L377.788 353.621C356.484 354.51 342.075 365.237 332.067 384.147C320.828 405.395 321.922 423.496 329.821 429.743C333.731 432.843 339.203 433.778 344.914 433.106L344.777 430.279V430.29Z" fill="#0E141B"/>
<path d="M359.368 358.966C358.798 339.03 363.893 326.981 374.107 323.789L373.981 321.02C360.667 324.861 355.549 339.782 356.45 360.061L359.368 358.966Z" fill="#0E141B"/>
<path d="M302.351 295.578C301.94 303.546 304.733 317.213 307.936 317.943C310.33 318.479 314.251 311.217 317.044 302.11L314.559 301.175C313.111 305.837 309.452 315.036 308.552 315.047C307.537 315.07 305.018 305.153 305.018 297.425L302.339 295.59L302.351 295.578Z" fill="#0E141B"/>
<path d="M361.146 319.07C359.812 318.979 358.046 310.27 357.214 302.097L354.626 302.827C355.561 311.935 358.046 321.464 360.941 321.669C364.646 321.931 369.011 308.937 371.086 301.482L368.396 300.137C365.808 310.384 362.389 319.173 361.146 319.082V319.07Z" fill="#0E141B"/>
<path d="M393.644 371.562C396.881 358.602 408.018 335.473 419.064 325.887C421.457 323.812 420.295 322.456 417.798 324.416C404.986 334.516 395.479 355.798 392.025 367.356L393.644 371.574V371.562Z" fill="#0E141B"/>
<path d="M493.134 245.617C494.923 253.756 495.334 259.683 495.083 266.876L497.933 265.314C498.183 259.25 497.921 252.775 496.268 244.557L493.134 245.628V245.617Z" fill="#0E141B"/>
<path d="M469.938 209.631C473.711 212.982 478.054 217.906 481.929 223.127L486.147 223.264C482.157 217.633 477.541 212.207 473.437 208.365L469.938 209.631Z" fill="#0E141B"/>
<path d="M395.001 191.119C424.501 190.526 446.216 196.739 458.687 202.563L463.759 201.492C451.46 194.801 428.765 187.232 396.665 187.597L395.001 191.108V191.119Z" fill="#0E141B"/>
<path d="M339.694 212.97C347.707 205.173 356.906 199.246 366.481 195.621L369.103 191.152C358.274 194.709 347.627 201.149 338.554 209.619L339.694 212.97Z" fill="#0E141B"/>
<path d="M322.253 230.103C317.021 239.473 314.65 249.174 317.545 257.506L318.354 250.336C318.833 245.184 320.634 239.769 323.484 234.309L322.253 230.092V230.103Z" fill="#0E141B"/>
<path d="M324.521 436.422C322.527 431.35 314.034 415.129 310.535 416.338C309.042 416.85 307.97 425.286 309.68 435.066L312.393 436.844C310.82 428.853 310.546 418.116 311.037 417.933C311.823 417.648 317.739 426.562 321.991 436.491L324.533 436.411L324.521 436.422Z" fill="#0E141B"/>
<path d="M346.065 444.835C345.119 438.475 346.327 426.198 346.806 426.05C347.376 425.879 353.509 436.56 355.082 441.986L356.495 439.706C354.751 435.078 349.394 423.599 346.407 424.317C343.386 425.047 343.683 441.86 343.956 444.072L346.065 444.835Z" fill="#0E141B"/>
</g>
<defs>
<clipPath id="clip0_42_70724">
<rect width="488.272" height="720" fill="white" transform="translate(156 50)"/>
</clipPath>
</defs>
</svg>
