<svg width="800" height="800" viewBox="0 0 800 800" fill="none" xmlns="http://www.w3.org/2000/svg">
<g clip-path="url(#clip0_42_71016)">
<path d="M597.8 490.781C574.467 471.703 561.356 451.769 545.483 419.483C518.529 364.645 495.268 342.461 452.807 350.85C428.69 355.62 416.95 354.519 402.739 343.39C369.548 317.366 332.15 328.055 297.541 364.058C273.987 388.566 259.189 389.398 221.424 354.055C194.935 329.253 152.376 362.371 183.659 453.187C209.708 528.815 208.412 539.919 179.11 580.13C142.69 630.075 138.019 666.373 148.976 687.236C159.372 706.975 194.495 716 249.895 701.227C290.741 690.318 312.461 695.577 346.41 714.239C394.643 740.777 453.785 730.211 491.428 704.969C504.807 695.993 520.534 692.128 546.436 705.14C583.37 723.705 621.306 721.577 635.957 700.248C642.463 690.783 640.506 671.925 611.229 646.39C583.614 622.322 585.669 593.827 625.219 594.805C654.277 595.515 664.672 576.29 650.583 550.534C640.433 531.994 616.12 505.799 597.825 490.805L597.8 490.781Z" fill="#A59ACA"/>
<path d="M148.976 687.237C159.372 706.975 194.495 716.001 249.895 701.227C290.741 690.319 312.461 695.577 346.41 714.239C394.643 740.778 453.785 730.211 491.428 704.97C504.807 695.993 520.534 692.128 546.436 705.141C583.37 723.705 621.306 721.577 635.957 700.249C639.332 695.333 640.408 687.897 636.617 678.309C633.609 711.109 588.09 714.044 555.144 692.422C531.492 676.915 512.683 670.751 475.725 693.718C437.251 717.615 382.952 717.175 352.476 696.311C321.413 675.056 285.14 668.697 241.481 686.552C198.995 703.942 160.35 695.137 144.525 673.246C145.357 678.48 146.897 683.128 149.025 687.212L148.976 687.237Z" fill="#8F85AF"/>
<path d="M656.356 576.168C648.186 582.968 636.617 584.998 616.414 584.998C578.111 584.998 570.847 620.683 621.379 656.076C618.42 652.945 615.069 649.716 611.204 646.366C583.59 622.298 585.644 593.803 625.195 594.781C643.27 595.222 654.13 587.957 656.356 576.192V576.168Z" fill="#8F85AF"/>
<path d="M357.025 394.779C358.42 395.977 358.615 398.154 357.564 399.377C356.438 400.674 354.433 400.698 352.99 399.475C351.669 398.35 351.326 396.222 352.403 394.95C353.43 393.752 355.509 393.507 357.025 394.779Z" fill="#0E141B"/>
<path d="M459.264 410.751C460.512 411.999 460.634 414.078 459.411 415.301C458.286 416.426 456.182 416.426 454.837 415.105C453.663 413.907 453.419 411.608 454.568 410.482C455.669 409.406 457.821 409.308 459.264 410.776V410.751Z" fill="#0E141B"/>
<path d="M599.342 488.604C617.294 503.304 642.952 529.94 653.298 548.847C668.267 576.192 657.701 598.181 625.268 597.374C587.21 596.396 587.723 622.762 612.794 644.629C646.034 673.613 645.496 691.859 638.5 702.059C623.58 723.778 585.033 727.545 545.434 707.66C521.439 695.602 506.47 698.317 492.7 707.562C451.707 735.054 394.595 744.055 345.212 716.905C313.39 699.393 290.032 693.376 250.506 703.918C190.533 719.914 156.534 709.984 145.479 688.998C132.589 664.49 141.981 626.358 176.835 578.516C205.11 539.724 207.532 531.701 180.773 453.97C148.096 359.02 193.957 324.435 223.308 351.927C261.708 387.857 274.427 384.629 295.658 362.542C335.453 321.109 371.627 316.046 404.231 341.605C415.972 350.802 427.663 353.419 452.367 348.527C498.032 339.502 519.018 360.194 547.611 418.358C563.851 451.378 576.301 469.722 599.366 488.604H599.342ZM596.113 492.983C570.969 472.413 558.984 452.356 543.33 420.51C516.401 365.722 492.064 345.543 453.321 353.223C427.932 358.238 416.143 356.917 401.247 345.25C373.34 323.383 335.893 327.713 299.278 365.795C273.033 393.116 255.887 390.499 219.419 356.379C195.547 334.047 156.828 366.578 186.35 452.283C212.399 527.861 211.421 540.384 181.263 581.769C148.169 627.214 141.296 665.444 151.887 685.549C160.35 701.619 190.753 714.117 249.405 698.463C288.1 688.142 308.474 690.025 348 711.769C395.451 737.867 456.378 725.001 489.985 702.475C503.829 693.205 519.605 688.704 547.757 702.866C581.829 719.963 619.276 719.082 633.462 698.439C639.308 689.927 637.816 672.757 609.59 648.151C580.092 622.42 583.394 591.235 625.219 592.164C649.776 592.825 660.856 576.241 647.477 551.831C636.837 532.386 613.723 507.413 596.137 493.032L596.113 492.983Z" fill="#0E141B"/>
<path d="M345.603 416.181C333.129 409.993 326.941 420.535 338.119 427.359C368.497 445.924 428.715 453.824 464.841 445.263C475.921 442.646 473.353 431.273 458.873 433.645C429.913 438.415 375.541 431.053 345.603 416.181Z" fill="#EE869A"/>
<path d="M346.435 414.419C377.204 429.706 431.797 436.358 458.433 431.564C475.53 428.483 479.37 443.623 465.159 447.145C428.275 456.293 367.054 447.683 337.067 429.363C323.247 420.925 331.246 406.861 346.435 414.394V414.419ZM344.698 418.063C334.866 413.196 330.512 420.069 339.366 425.499C368.717 443.427 427.908 451.914 464.352 443.28C472.986 441.226 469.977 433.766 459.118 435.576C430.403 440.296 376.984 434.108 344.698 418.088V418.063Z" fill="#0E141B"/>
</g>
<defs>
<clipPath id="clip0_42_71016">
<rect width="520" height="407.293" fill="white" transform="translate(140 326)"/>
</clipPath>
</defs>
</svg>
