<svg width="800" height="800" viewBox="0 0 800 800" fill="none" xmlns="http://www.w3.org/2000/svg">
<g clip-path="url(#clip0_42_71026)">
<path d="M525.422 529.298C538.375 523.736 558.486 518.271 576.385 518.79C598.19 519.406 620.688 527.836 648.749 540.076C673.172 550.719 697.614 559.495 697.825 561.362C698.075 563.498 682.409 570.061 668.783 573.64C648.749 578.895 615.646 585.785 593.995 584.014C564.395 581.608 541.415 570.446 523.594 558.841C516.396 554.145 517.531 532.705 525.441 529.318L525.422 529.298Z" fill="#D48C00"/>
<path d="M528.29 552.893C535.411 558.84 569.225 574.313 590.319 576.392C615.338 578.855 669.342 566.153 677.078 562.92C679.58 561.881 680.177 561.804 677.386 560.88C657.275 554.298 607.351 530.183 578.155 529.413C562.162 528.99 538.432 534.61 528.04 539.479L535.064 540.345L527.828 545.252L535.064 550.083L528.29 552.874V552.893Z" fill="#36210D"/>
<path d="M448.747 468.904C455.618 467.634 467.146 463.419 471.707 460.994C471.707 465.093 471.515 469.077 471.438 470.752C478.232 470.463 487.431 469.27 490.491 468.981C487.508 472.792 486.873 474.37 485.199 476.602C492.069 476.044 506.58 475.582 508.909 475.582C505.657 480.144 500.634 487.765 499.806 490.556C504.271 490.748 511.334 491.306 513.932 491.576C511.334 493.808 510.025 495.117 509.198 496.137C514.587 496.137 519.417 496.233 520.919 495.944C518.128 498.446 515.722 500.871 513.663 502.449C518.128 503.931 531.042 507.473 535.603 508.127C530.58 510.918 524.902 514.266 522.593 515.479C527.481 517.577 531.157 518.231 532.928 518.693C529.021 521.387 526.5 522.446 524.825 523.273C525.711 527.353 526.346 533.608 526.038 541.46C525.711 549.313 524.748 560.379 521.227 567.769C517.705 575.14 511.45 585.726 508.39 589.748C505.349 593.751 502.135 599.852 501.172 602.412C500.21 604.971 500.287 611.226 499.248 613.805C497.169 618.944 493.147 622.62 485.141 625.988C470.322 632.204 446.688 634.437 425.806 625.507C398.651 613.901 373.111 590.96 369.84 567.769C367.242 549.428 373.939 529.182 382.831 514.516C391.491 500.236 406.041 483.627 417.319 477.796C426.942 472.83 431.311 470.867 435.756 470.425C440.568 469.943 444.032 469.77 448.805 468.904H448.747Z" fill="#D48C00"/>
<path d="M433.235 587.535C434.871 589.633 436.507 591.057 439.682 591.731C442.858 592.404 449.151 592.905 453 594.656C456.85 596.407 460.525 600.18 461.372 601.854C454.675 618.771 439.933 622.62 433.408 619.194C426.884 615.769 424.536 598.929 433.235 587.535Z" fill="#EE869A"/>
<path d="M449.709 610.592C449.825 605.299 448.555 600.045 444.167 592.462C442.434 592.193 440.856 591.962 439.682 591.731C436.507 591.057 434.871 589.633 433.235 587.535C431.349 589.999 430.002 592.731 429.097 595.522C437.2 597.832 446.226 603.509 449.709 610.611V610.592Z" fill="#CF7487"/>
<path d="M444.128 592.866C446.938 597.023 451.942 605.338 448.497 617.02C452.923 614.268 459.101 609.033 461.372 601.854C458.697 598.024 456.349 595.542 453.79 594.675C451.23 593.809 445.61 592.597 444.128 592.866Z" fill="#933000"/>
<path d="M456.965 674.699C457.177 681.07 457.947 694.003 459.313 696.832C461.661 701.701 472.227 714.268 478.77 716.616C484.313 717.117 490.799 719.715 491.858 725.008C492.858 730.069 491.588 735.631 483.871 736.305C480.406 738.576 474.671 738.845 471.842 737.286C463.778 740.481 460.526 737.71 455.348 735.304C450.191 732.898 431.772 723.333 426.538 717.386C421.303 711.439 417.126 701.836 415.491 694.484C413.855 687.113 424.959 677.798 433.928 674.43C442.916 671.062 456.715 667.54 456.946 674.68L456.965 674.699Z" fill="#D48C00"/>
<path d="M365.298 679.741C361.968 684.187 356.637 691.288 354.386 696.254C352.134 701.219 351.306 716.77 354.886 723.294C357.734 725.95 360.294 732.532 360.121 734.957C359.851 738.729 358.273 742.674 351.576 742.944C348.169 746.158 342.934 745.234 339.355 742.848C333.831 746.254 327.807 742.482 323.727 737.978C319.32 733.109 313.893 721.446 311.314 708.205C308.735 694.964 308.369 685.091 309.331 676.065C310.294 667.039 324.959 632.993 331.464 623.62C337.969 614.248 352.75 620.849 359.004 628.547C365.259 636.246 371.514 655.164 371.033 665.749C370.706 673.101 367.665 676.488 365.259 679.702L365.298 679.741Z" fill="#D48C00"/>
<path d="M322.072 642.039C316.01 633.436 304.385 623.005 297.052 618.174C299.227 614.364 307.657 602.662 309.293 599.121C313.642 605.645 321.726 614.903 332.676 615.23C332.003 619.945 331.656 622.139 331.656 623.486C327.615 629.375 322.919 639.094 322.053 642.02L322.072 642.039Z" fill="#AE7200"/>
<path d="M310.948 629.568C309.774 633.437 308.754 636.131 307.58 637.478C306.406 638.826 303.711 642.02 304.039 643.541C304.366 645.061 311.275 659.034 313.315 663.422C315.509 657.186 320.551 644.715 322.072 642.367C319.705 637.979 313.142 630.242 310.948 629.568Z" fill="#AE7200"/>
<path d="M309.254 599.064C307.484 603.145 298.631 615.924 290.22 624.007C281.791 632.09 262.583 645.408 258.888 647.602C255.847 651.644 253.499 655.839 252.653 658.226C251.806 660.593 251.806 662.768 252.479 665.308C253.153 667.829 254.539 671.14 253.326 673.565C251.286 677.645 246.648 679.916 241.028 677.953C235.1 679.916 230.751 678.723 229.173 677.356C224.823 679.916 219.896 676.471 218.414 675.489C214.604 672.949 210.832 660.786 211.313 657.418C212.198 651.009 221.205 624.758 224.573 619.58C227.941 614.403 245.012 601.066 250.189 589.634C254.673 579.742 257.291 571.582 258.965 565.808C260.64 560.034 264.97 548.968 267.626 545.831C255.193 545.561 234.446 539.903 219.511 528.991C200.882 515.384 184.157 487.42 181.982 455.857C179.403 418.443 199.13 378.682 218.299 361.072C246.032 335.61 278.73 324.89 300.324 328.354C295.647 331.972 288.219 337.727 284.851 342.211C288.488 341.922 290.451 342.211 291.163 342.211C286.679 347.119 281.829 355.279 280.501 362.111C278.827 370.81 278.961 379.779 284.139 389.017C289.335 398.274 302.095 411.592 311.063 418.597C320.032 425.603 337.411 438.497 342.184 458.686C346.957 478.875 344.147 495.83 335.602 509.572C311.217 561.208 314.316 587.363 309.254 599.064Z" fill="#D48C00"/>
<path d="M191.682 401.795C198.264 381.741 215.72 362.457 227.094 353.027C244.242 338.823 269.377 325.929 300.055 328.065C293.646 332.28 286.737 338.554 284.312 342.538C290.721 342.153 291.741 342.018 291.741 342.018C291.741 342.018 287.68 345.752 285.601 349.312C282.079 355.317 276.71 369.193 281.117 382.338C281.367 388.862 281.117 393.481 280.982 395.386C278.557 392.577 269.743 377.43 268.742 377.815C268.184 378.027 273.784 408.3 272.187 408.935C270.551 409.571 258.484 391.441 256.944 391.691C255.924 391.864 250.343 409.417 249.015 409.571C247.687 409.724 238.565 387.053 237.545 386.553C236.544 386.052 226.767 409.378 225.189 409.089C224.13 408.878 221.475 390.998 220.532 390.652C219.608 390.306 209.292 404.413 207.464 405.644C207.137 401.872 207.233 390.652 207.618 386.072C202.652 390.075 196.956 395.694 191.663 401.795H191.682Z" fill="#FFF2AD"/>
<path d="M457.235 674.681C457.504 678.915 456.888 692.002 459.717 696.602C450.999 698.449 438.855 700.836 436.026 706.494C433.197 712.152 445.283 724.373 455.887 730.416C462.546 734.208 471.284 735.593 473.459 733.053C474.055 733.168 474.306 733.053 475.037 733.168C475.999 734.131 481.061 735.093 484.929 730.994C485.41 731.821 486.969 732.071 487.816 731.725C489.106 731.167 490.106 730.031 490.761 728.819C490.703 732.071 490.049 735.497 484.14 735.94C478.828 739.751 474.363 738.153 471.958 737.249C464.49 740.501 460.275 738.095 454.405 735.439C448.536 732.784 428.443 721.544 423.632 714.327C418.82 707.11 417.127 702.779 415.452 695.562C413.778 688.345 424.113 678.607 432.408 675.123C440.703 671.64 456.773 667.521 457.215 674.681H457.235Z" fill="#AE7200"/>
<path d="M300.016 613.189C290.99 603.894 287.372 592.288 286.794 584.398C290.547 581.107 314.528 568.751 315.567 568.289C313.796 577.585 311.872 589.132 311.39 593.732C308.658 601.969 301.325 614.556 300.016 613.209V613.189Z" fill="#AE7200"/>
<path d="M309.485 674.757C307.946 686.497 309.639 689.307 309.87 690.577C312.892 686.997 317.511 684.707 325.902 685.785C333.581 686.766 341.279 689.634 346.187 695.735C350.132 699.738 350.786 707.205 351.922 714.827C350.863 693.214 365.067 680.896 365.067 680.896C367.011 677.721 369.955 673.795 370.937 666.385C371.918 658.976 366.318 635.034 355.405 625.238C346.187 616.962 338.277 618.098 333.985 621.042C331.752 622.582 328.943 628.452 327.538 630.704C326.845 631.82 313.623 657.205 309.485 674.776V674.757Z" fill="#AE7200"/>
<path d="M257.522 568.906C252.46 591.943 250.709 614.538 260.871 622.313C268.992 628.529 279.789 628.606 287.487 624.757C280.251 634.303 268.569 641.039 259.312 646.928C257.618 648.006 253.923 654.165 252.248 659.631C250.382 665.77 256.348 668.214 252.037 675.874C248.649 680.57 242.221 678.722 241.028 677.587C235.524 679.28 232.618 678.992 229.308 677.24C220.416 679.28 216.528 674.2 214.334 668.06C212.14 661.921 211.294 659.246 211.794 656.128C214.219 640.866 221.917 623.295 224.708 619.599C228.364 614.73 238.122 607.109 242.991 600.7C247.86 594.311 252.441 588.267 257.503 568.906H257.522Z" fill="#AE7200"/>
<path d="M474.344 629.221C480.118 635.476 487.739 651.681 479.194 667.424C478.232 662.612 476.076 658.398 475.576 657.57C473.536 671.157 465.472 678.586 457.292 682.955C457.177 680.434 456.927 676.7 456.696 675.257C453.693 678.991 450.807 683.552 449.96 685.726C449.113 687.901 447.669 690.904 446.957 692.462C444.301 690.422 442.877 687.42 441.915 681.993C436.873 686.689 433.139 689.807 431.445 691.385C429.752 692.963 427.115 695.715 426.037 696.928C425.556 694.522 425.441 691.385 425.441 690.422C417.742 695.6 411.488 698.121 402.942 699.814C394.397 701.508 384.062 701.623 379.251 698.255C372.149 700.411 367.222 701.508 364.085 701.739C366.241 693.925 366.376 677.566 363.373 668.54C361.814 671.908 360.005 675.161 359.158 676.72C356.868 672.389 352.057 656.511 351.576 650.853C349.536 655.299 348.208 658.07 347.842 661.669C337.507 651.835 328.769 627.104 333.061 614.845C323.034 614.325 313.392 608.955 309.139 597.466C299.747 594.887 296.687 593.366 294.762 592.962C297.168 591.75 300.536 589.344 303.192 588.632C297.168 587.593 288.488 585.341 284.562 582.204C288.738 578.913 295.397 573.524 298.785 568.943C293.492 569.675 290.759 570.31 289.316 570.387C293.011 565.672 294.82 562.054 296.745 558.82C298.669 555.587 304.558 540.652 307.695 537.284C310.832 533.916 312.391 532.473 314.316 530.779C310.717 529.701 306.983 526.564 304.578 524.64C309.274 524.043 312.16 523.081 314.566 521.638C316.972 520.194 319.127 518.982 322.014 517.057C329.616 511.995 339.22 505.76 351.595 506.703C364.105 507.665 373.131 509.821 380.579 517.403C375.171 527.989 371.071 539.421 369.744 549.525C368.416 559.629 367.954 570.233 376.691 584.937C388.393 604.664 407.638 619.252 430.098 627.277C448.112 633.705 466.473 631.588 474.363 629.202L474.344 629.221Z" fill="#FFF2AD"/>
<path d="M320.725 730.955C324.805 735.516 334.62 741.54 340.163 739.404C340.721 739.25 341.741 739.327 342.299 739.096C342.453 740.674 347.996 742.329 352.403 738.615C353.192 738.133 353.827 737.902 353.827 737.902C354.539 738.692 357.311 738.923 359.428 735.843C359.024 738.615 357.927 742.868 351.691 742.945C348.131 746.024 342.049 744.754 339.451 743.253C334.389 745.312 322.38 741.04 320.725 730.936V730.955Z" fill="#AE7200"/>
<path d="M186.659 412.881C181.944 434.321 178.21 464.806 191.624 494.54C208.734 532.474 249.208 546.581 267.741 545.869C271.225 538.729 279.808 528.009 291.375 522.543C270.378 524.006 245.301 516.115 225.458 502.123C197.129 482.165 186.986 447.966 186.659 412.881Z" fill="#AE7200"/>
<path d="M306.502 541.615C302.326 552.027 300.902 560.322 301.344 562.67C303.981 562.016 306.271 560.861 309.1 560.014C307.541 565.557 305.386 570.118 301.056 574.93C303.827 575.719 309.889 575.411 318.127 576.604C313.334 578.586 313.623 579.144 311.083 580.549C319.724 582.57 322.303 584.129 329.405 588.171C332.888 590.153 341.106 591.635 347.457 589.017C342.28 594.406 334.12 605.896 332.561 614.614C323.4 614.614 313.142 608.032 309.004 598.101C302.865 594.425 297.957 593.078 294.82 593.078C297.938 590.961 300.632 589.056 302.865 588.498C296.283 587.054 288.122 585.149 284.1 582.127C287.564 579.106 297.052 571.639 298.611 568.848C294.704 569.637 291.125 570.407 289.797 570.638C292.915 566.404 294.935 562.593 295.821 560.592C296.706 558.59 306.502 541.634 306.502 541.634V541.615Z" fill="#DDD196"/>
<path d="M338.296 602.528C334.043 618.214 339.335 629.569 343.877 633.514C345.821 629.242 347.765 626.509 350.883 623.006C350.883 627.663 356.791 643.098 361.064 649.315C362.623 644.657 363.065 642.964 364.239 640.231C369.455 647.948 378.135 663.326 378.962 678.934C388.258 676.278 393.897 672.814 397.958 669.831C398.304 673.353 397.438 676.682 397.072 678.972C407.273 679.646 427.789 674.488 443.589 660.881C442.223 667.233 446.245 672.025 447.881 674.411C451.288 671.698 456.734 671.005 459.448 666.694C456.272 674.854 452.635 680.358 451.749 682.283C450.864 684.207 448.324 689.173 447.361 692.29C443.628 689.885 442.666 685.189 441.953 682.186C438.22 685.805 433.177 690.481 431.137 692.04C429.097 693.599 427.654 695.408 426.326 696.967C425.248 694.08 425.479 692.04 425.729 690.116C420.187 693.599 398.785 706.475 379.058 698.045C370.629 700.816 367.396 701.163 364.74 701.528C365.702 697.314 365.933 677.837 363.296 668.695C361.141 671.582 360.294 674.238 359.813 676.509C356.079 672.063 352.711 656.416 351.749 650.412C349.593 653.068 348.496 659.669 348.265 661.959C337.93 653.895 323.612 621.428 338.334 602.471L338.296 602.528Z" fill="#DDD196"/>
<path d="M461.661 663.942C469.051 660.613 473.728 652.51 474.498 648.757C476.23 650.547 478.02 653.569 478.501 654.666C480.233 651.856 481.138 650.008 481.542 646.871C483.101 653.299 482.504 661.325 479.483 666.829C478.52 663.73 476.461 659.9 475.749 658.476C474.556 663.653 469.302 677.895 457.523 682.841C457.196 678.857 456.811 676.471 456.638 675.047C458.312 672.66 459.66 668.753 461.661 663.961V663.942Z" fill="#DDD196"/>
<path d="M324.093 524.312C321.052 526.064 315.74 528.72 314.412 530.413C310.428 528.931 302.865 525.64 308.638 524.563C312.41 526.718 318.319 525.775 324.073 524.312H324.093Z" fill="#DDD196"/>
<path d="M378.77 591.039C385.448 613.787 405.791 633.38 429.54 639.173C452.365 644.735 465.222 638.537 471.977 630.108C459.929 631.878 448.805 632.321 433.928 628.183C419.051 624.026 409.467 618.156 399.016 610.015C388.566 601.855 383.562 596.851 378.77 591.058V591.039Z" fill="#DDD196"/>
<path d="M470.533 459.513C459.448 465.306 449.786 467.692 439.721 468.52C428.385 469.443 410.179 476.564 393.955 495.387C374.998 517.404 365.048 543.462 367.184 565.095C369.628 589.633 394.551 614.595 425.979 627.297C444.09 634.61 468.782 635.399 485.603 627.97C493.339 624.545 499.113 620.137 501.038 614.922C501.673 613.19 501.769 606.916 502.443 604.414C503.136 601.912 505.156 597.524 509.968 590.249C520.033 575.025 525.999 563.285 526.712 548.409C526.942 543.308 524.902 542.789 524.287 548.12C522.593 562.554 518.359 571.619 507.254 588.42C502.25 596.003 500.018 599.968 498.998 603.567C497.997 607.166 497.554 611.323 497.015 612.747C495.418 617.058 490.799 621.08 483.986 624.102C470.822 629.914 447.438 632.455 427.192 624.275C396.899 612.035 374.17 587.574 371.918 564.787C370.61 551.603 375.325 523.524 396.668 497.773C412.931 478.162 431.869 471.714 440.491 471.022C450.441 470.213 460.006 467.634 470.302 463.15C470.245 465.402 470.148 470.155 470.148 470.155C470.148 471.868 471.111 471.888 471.842 471.868C478.193 471.657 483.717 471.156 487.797 470.637C486.372 472.465 484.929 474.178 483.351 475.64C481.349 477.527 482.023 478.72 484.621 478.47C492.762 477.681 501.153 477.45 505.984 477.392C502.808 481.761 499.825 486.688 498.189 489.959C497.208 491.903 498.536 492.327 499.652 492.327C504.56 492.327 508.159 492.596 510.738 492.865C510.584 492.981 508.486 494.636 508.486 494.636C505.83 496.772 505.811 497.407 509.41 497.581C511.95 497.696 514.818 497.581 517.089 497.484C515.491 499.024 514.125 500.179 513.009 500.949C511.065 502.277 511.507 503.104 513.336 503.816C517.32 505.375 525.961 507.839 531.812 509.167C528.039 511.418 524.652 513.208 522.612 514.17C519.822 515.498 519.879 516.345 522.843 517.288C524.633 517.866 526.942 518.443 528.598 519.04C526.615 520.271 524.633 521.676 523.055 522.658C519.206 525.044 519.648 526.391 523.959 524.91C526.134 524.159 529.579 522.716 533.64 520.117C535.622 518.847 535.334 518.193 532.812 517.423C531.619 517.057 528.829 516.518 525.845 515.845C528.367 514.478 532.735 512.669 536.488 510.379C539.202 508.705 539.683 506.722 535.661 506.183C531.966 505.683 521.708 504.374 515.857 502.431C518.109 501.083 521.111 498.966 523.17 496.811C525.037 494.867 523.267 494.424 521.015 494.636C519.475 494.79 514.818 495.079 511.931 495.156C512.681 494.578 515.722 493.193 515.722 493.193C517.666 491.711 517.647 490.671 515.145 490.209C513.528 489.921 507.966 489.767 501.134 489.613C503.213 485.879 508.101 480.452 511.18 476.102C512.123 474.755 511.912 473.62 509.679 473.62C506.946 473.62 496.707 474.428 487.469 475.121C488.932 473.446 491.415 471.406 492.762 469.366C494.186 467.211 493.878 466.364 491.107 466.845C487.758 467.442 480.695 469.02 472.92 469.347C472.977 467.038 473.651 462.688 473.459 460.764C473.285 458.839 472.881 458.3 470.476 459.551L470.533 459.513Z" fill="#0E141B"/>
<path d="M523.17 524.14C523.806 526.334 524.672 530.491 524.903 533.839C525.191 537.9 526.885 538.208 527.366 533.878C527.732 530.471 526.943 525.814 526.173 523.1C525.923 522.234 522.939 523.254 523.19 524.14H523.17Z" fill="#0E141B"/>
<path d="M525.576 527.816C524.729 528.124 525.884 530.491 526.731 530.183C539.587 525.545 556.908 520.291 576.789 520.734C594.957 521.138 617.205 528.99 634.276 536.246C651.347 543.521 684.199 557.05 693.168 560.245C696.228 561.323 695.804 561.689 693.476 562.882C678.368 570.638 621.477 584.803 590.299 581.666C564.741 579.087 542.628 568.848 524.999 557.82C524.229 557.339 523.074 559.956 523.844 560.457C542.474 572.716 563.991 583.205 590.068 585.611C624.672 588.806 678.349 574.179 694.958 565.788C701.771 562.343 701.751 559.822 694.246 557.147C685.373 553.99 652.444 540.018 635.546 532.858C618.648 525.699 596.323 517.192 577.617 516.788C557.178 516.346 538.682 523.082 525.557 527.816H525.576Z" fill="#0E141B"/>
<path d="M527.847 540.461C529.213 540.596 530.695 540.981 532.004 541.193C531.812 541.328 527.289 543.945 527.289 543.945C526.038 544.83 525.711 545.427 527.385 546.351C529.329 547.448 530.676 548.814 531.792 549.661C530.291 550.508 529.021 551.412 527.693 552.317C524.902 554.241 525.634 555.069 528.732 554.068C530.541 553.472 533.582 552.606 534.949 551.97C536.989 551.027 537.412 549.911 535.083 548.429C533.717 547.563 532.254 546.716 529.906 545.581C530.214 545.369 533.717 543.618 535.622 542.059C538.278 539.903 537.836 539.23 534.968 538.672C533.178 538.325 530.618 538.152 528.386 538.441C524.575 538.922 525.268 540.192 527.808 540.461H527.847Z" fill="#0E141B"/>
<path d="M528.078 538.554C527.25 538.939 529.868 540.575 530.695 540.19C541.377 535.167 562.797 530.702 578.117 531.049C593.61 531.395 612.336 537.496 628.56 543.52C644.765 549.563 665.531 558.743 675.866 561.611C662.24 566.23 616.204 576.776 590.473 574.352C567.166 572.158 536.816 558.262 530.195 552.373C529.521 551.776 527.289 553.508 527.963 554.105C534.814 560.206 565.222 574.39 590.107 577.604C614.992 580.818 663.703 568.482 676.482 564.113C682.448 562.073 683.199 561.746 675.866 558.974C663.934 554.451 644.495 546.407 629.618 540.441C612.99 533.782 594.476 527.854 578.329 527.353C562.566 526.892 539.067 533.358 528.059 538.535L528.078 538.554Z" fill="#0E141B"/>
<path d="M507.966 555.877C513.586 559.149 508.775 573.968 503.905 583.591C498.536 594.215 489.567 602.721 483.62 599.546C478.039 596.543 480.291 586.324 486.007 575.219C492.531 562.555 502.866 552.913 507.966 555.877Z" fill="#0E141B"/>
<path d="M504.175 547.659C499.922 548.39 496.727 550.892 494.995 553.259C493.397 555.434 494.61 556.646 496.438 554.857C498.132 553.201 501.365 551.181 504.733 549.737C507.293 548.64 506.985 547.178 504.156 547.659H504.175Z" fill="#0E141B"/>
<path d="M450.229 521.388C450.46 524.333 450.672 528.086 450.518 530.183C450.287 533.109 452.154 533.147 452.75 530.318C453.231 528.009 453.597 524.583 452.673 521.08C451.711 517.462 449.94 517.597 450.248 521.388H450.229Z" fill="#0E141B"/>
<path d="M439.278 518.521C446.669 522.524 443.474 539.614 438.374 550.546C432.638 562.844 422.573 571.427 413.085 566.192C405.829 562.17 404.771 550.122 411.43 537.266C418.57 523.505 431.503 514.306 439.278 518.521Z" fill="#0E141B"/>
<path d="M458.12 586.111C458.678 585.264 464.971 589.037 463.894 590.018C463.278 590.595 461.392 590.615 459.929 589.845C458.736 589.229 457.581 586.919 458.12 586.111Z" fill="#0E141B"/>
<path d="M430.83 583.493C430.983 585.437 431.445 588.189 433.312 589.825C435.987 592.154 439.913 593.309 446.419 594.309C451.211 595.041 454.733 596.446 457.215 598.967C459.236 601.026 460.41 603.105 462.392 604.356C464.51 605.703 467.281 605.684 469.167 605.241C472.477 604.471 471.707 602.739 468.667 603.047C467.262 603.182 465.53 602.835 464.182 601.95C462.662 600.949 461.642 599.602 459.14 597.139C456.215 594.232 452.385 592.462 446.823 591.615C440.876 590.71 437.373 589.479 435.121 587.516C433.89 586.438 433.312 584.783 433.043 583.185C432.427 579.548 430.522 579.663 430.849 583.513L430.83 583.493Z" fill="#0E141B"/>
<path d="M432.292 586.496C424.921 595.06 422.804 615.345 432.927 620.329C441.973 624.795 457.312 615.768 462.065 602.874C462.219 602.431 460.545 600.352 460.352 601.084C457.389 612.015 443.089 622.35 434.351 617.712C426.557 613.574 427.981 594.829 434.159 588.747C434.698 588.228 432.523 586.226 432.292 586.496Z" fill="#0E141B"/>
<path d="M441.472 593.021C448.093 597.178 450.729 611.574 447.034 617.405C446.63 618.04 448.439 617.655 448.843 617.02C453.462 609.745 449.555 596.543 444.994 592.79C444.398 592.289 440.837 592.617 441.472 593.001V593.021Z" fill="#0E141B"/>
<path d="M458.37 631.493C463.47 643.367 461.892 664.826 453.482 676.951C451.076 680.415 447.881 686.651 446.669 690.577C444.879 688.653 443.628 684.149 443.262 682.378C442.723 679.857 442.088 679.607 440.375 681.705C437.431 685.323 429.617 690.789 426.884 694.253C426.807 693.387 426.691 691.79 427.423 689.288C427.481 689.095 425.229 689.942 424.979 690.847C424.555 692.348 424.286 694.984 424.459 696.716C424.69 699.064 425.498 699.623 427.558 697.332C430.926 693.579 438.662 687.382 441.395 683.841C441.973 686.978 442.858 690.904 444.763 693.098C446.746 695.389 448.131 694.676 449.171 691.693C450.498 687.863 453.347 682.475 456.08 678.529C465.029 665.635 467.877 645.908 460.872 631.32C460.699 630.973 458.293 631.32 458.37 631.512V631.493Z" fill="#0E141B"/>
<path d="M472.939 630.011C482.504 640.192 481.927 657.551 479.406 663.71C478.963 662.536 478.212 660.573 476.962 657.917C475.46 654.722 474.652 654.973 474.152 658.379C472.131 671.909 461.603 678.779 457.485 680.993C457.235 681.127 457.6 684.765 458.37 684.284C464.144 680.666 473.247 673.545 475.961 661.266C476.5 662.517 477.385 665.038 477.885 667.232C478.463 669.734 479.252 669.946 480.926 666.924C487.162 655.781 485.449 640.211 475.999 629.183C475.691 628.837 472.65 629.684 472.939 630.011Z" fill="#0E141B"/>
<path d="M455.31 676.239C455.31 683.226 456.619 695.678 459.544 699.989C463.836 706.301 472.4 717.06 481.715 718.214C486.507 718.811 489.779 722.718 490.183 726.163C490.472 728.646 490.241 731.532 488.836 733.034C487.874 734.073 486.257 734.977 484.621 735.131C484.39 735.151 483.043 737.21 483.948 737.248C486.777 737.383 489.086 736.613 490.857 734.727C492.916 732.514 493.936 728.934 493.551 725.489C493.012 720.851 488.682 716.444 481.677 715.597C473.343 714.596 465.106 702.895 461.911 698.18C459.717 694.946 458.428 680.551 458.428 672.795C458.428 671.89 455.31 675.335 455.31 676.239Z" fill="#0E141B"/>
<path d="M482.6 726.202C484.968 728.935 484.178 734.343 481.195 735.574C477.673 737.056 474.498 736.768 473.324 736.306C472.477 735.978 470.822 737.942 471.63 738.326C473.728 739.346 478.212 740.155 482.581 738.326C487.527 736.248 487.951 729.377 484.178 725.008C482.004 722.506 480.406 723.68 482.581 726.182L482.6 726.202Z" fill="#0E141B"/>
<path d="M414.297 697.313C415.952 703.683 419.667 712.171 424.748 718.098C429.925 724.103 451.634 735.958 458.293 738.441C463.913 740.539 472.862 741.058 475.191 735.631C476.384 732.841 474.479 729.742 472.67 727.471C470.187 724.372 468.57 725.777 470.822 728.991C471.919 730.57 472.727 733.11 472.208 734.342C470.938 737.286 464.471 737.248 459.467 735.362C453.212 733.014 432.408 720.927 427.615 715.346C422.881 709.842 419.513 701.47 417.954 695.465C417.723 694.599 414.086 696.428 414.317 697.313H414.297Z" fill="#0E141B"/>
<path d="M363.797 677.49C361.564 680.185 354.058 691.116 352.307 698.699C350.556 706.32 350.151 719.985 354.02 724.738C356.483 727.76 358.774 732.668 357.965 736.344C357.503 738.441 355.79 741.809 352.576 741.867C352.345 741.867 350.556 744.1 351.46 744.215C357.272 744.927 360.833 740.347 361.564 736.998C362.68 731.917 358.928 726.259 356.118 722.795C353.635 719.754 353.5 707.956 355.444 699.488C357.041 692.56 362.257 686.651 365.298 682.417C365.298 682.417 364.624 678.048 363.777 677.509L363.797 677.49Z" fill="#0E141B"/>
<path d="M348.746 731.916C351.056 734.38 351.903 738.787 350.536 741.462C349.343 743.81 344.685 743.906 341.048 742.598C340.201 742.29 338.565 743.675 339.297 744.214C342.896 746.889 351.421 746.909 353.442 742.963C355.482 738.98 354.058 733.129 350.44 730.242C347.438 727.855 346.129 729.145 348.746 731.936V731.916Z" fill="#0E141B"/>
<path d="M331.387 620.176C325.19 629.049 311.102 658.052 307.869 674.892C306.329 682.898 308.023 697.814 308.831 705.358C309.601 712.46 315.952 730.397 319.224 735.15C322.784 740.347 326.21 742.521 330.579 744.369C336.468 746.852 342.203 745.004 342.703 739.923C343.011 736.863 341.356 733.957 338.758 731.532C335.813 728.78 334.582 730.223 336.987 733.303C338.681 735.458 339.643 737.595 339.451 739.596C339.181 742.425 336.41 743.272 331.849 741.347C327.826 739.654 325.594 738.076 322.457 733.514C319.705 729.511 313.527 710.939 312.892 704.915C312.103 697.255 310.678 682.898 312.026 675.951C314.855 661.208 326.114 635.053 332.561 624.353C333.08 623.467 331.887 619.426 331.368 620.176H331.387Z" fill="#0E141B"/>
<path d="M372.265 576.007C362.969 576.258 349.324 581.435 341.144 592.443C321.071 619.445 332.214 646.35 346.572 662.613C348.727 665.057 349.285 664.653 349.459 661.939C349.574 660.284 350.594 655.858 351.171 653.779C352.345 662.074 355.271 673.525 358.446 678.799C359.717 680.897 360.717 679.819 361.121 678.202C361.988 674.719 364.432 668.002 365.683 664.422C366.934 660.842 365.529 660.304 363.854 663.479C362.18 666.674 360.833 669.619 359.543 672.929C356.483 665.981 353.904 656.474 353.269 650.546C352.827 646.447 351.402 646.35 349.67 650.411C348.593 652.99 347.688 656.474 347.149 659.168C334.774 643.444 326.633 618.983 344.57 594.733C352.499 584.014 364.778 578.702 373.189 578.471C374.074 578.452 373.15 575.95 372.245 575.969L372.265 576.007Z" fill="#0E141B"/>
<path d="M361.699 670.907C363.181 677.894 364.74 692.001 363.162 699.41C362.449 702.817 361.872 703.51 366.703 702.74C373.112 701.739 383.37 698.102 388.45 694.368C391.972 691.77 390.798 690.615 387.007 692.694C380.945 696.023 371.36 699.391 365.933 700.084C367.53 693.81 366.934 677.297 364.72 666.712C364.528 665.826 361.487 670.022 361.68 670.907H361.699Z" fill="#0E141B"/>
<path d="M433.678 681.513C419.301 697.698 393.05 702.953 381.118 697.275C380.829 697.14 376.634 699.161 377.423 699.604C389.952 706.551 420.879 701.548 435.429 682.629C438.393 678.761 437.007 677.741 433.678 681.513Z" fill="#0E141B"/>
<path d="M381.58 516.557C371.36 505.644 351.402 502.604 339.489 506.318C329.943 509.301 324.227 514.189 319.108 517.577C313.546 521.272 308.369 522.465 305.54 522.85C302.845 523.216 301.864 524.024 304.154 526.43C306.406 528.797 311.025 531.106 313.738 531.915C314.604 532.165 315.74 530.048 315.124 529.798C312.969 528.893 310.197 527.161 308.253 525.641C311.833 524.717 314.932 523.524 320.417 519.944C325.632 516.537 332.753 512.072 340.567 509.532C350.729 506.222 371.976 509.628 379.924 519.232C380.502 519.925 381.888 516.865 381.599 516.537L381.58 516.557Z" fill="#0E141B"/>
<path d="M327.095 522.967C319.377 524.815 310.659 529.972 304.789 538.672C300.671 544.772 294.069 562.786 288.411 569.291C286.717 571.235 287.102 571.986 289.585 571.793C292.068 571.582 294.05 571.158 296.34 570.254C293.145 573.526 286.891 578.183 284.273 580.146C282.503 581.474 281.617 582.282 284.235 583.86C286.833 585.439 293.492 587.941 299.458 588.999C297.168 589.923 295.032 590.827 294.069 591.482C292.51 592.521 292.068 593.984 294.685 594.446C301.883 595.754 315.586 601.336 321.071 603.53C324.497 604.896 325.247 603.568 321.899 601.874C316.606 598.757 305.463 594.715 297.707 592.521C299.131 591.886 302.114 590.327 304.654 589.538C307.888 588.537 307.33 587.382 303.923 587.075C297.687 586.516 290.49 583.88 287.237 581.897C290.336 579.28 295.493 574.526 298.707 570.812C301.171 567.964 300.632 566.751 297.206 567.598C294.878 568.175 293.704 568.483 292.356 568.637C297.341 562.536 303.904 546.947 307.868 540.712C312.622 533.283 320.917 526.989 327.865 525.007C331.849 523.872 332.099 521.774 327.095 522.967Z" fill="#0E141B"/>
<path d="M307.984 598.063C312.488 609.515 322.88 616.135 333.273 616.559C334.178 616.597 334.312 613.325 333.408 613.287C324.208 612.921 314.393 606.955 310.64 598.063C310.294 597.236 307.657 597.217 307.984 598.063Z" fill="#0E141B"/>
<path d="M307.541 597.447C305.174 604.279 294.454 617.982 284.37 626.758C274.285 635.534 258.638 645.253 257.349 646.889C255.232 649.584 251.844 654.838 251.248 658.206C250.651 661.574 250.497 663.749 251.286 666.616C252.075 669.503 251.94 672.794 250.901 674.18C248.784 677.047 244.569 677.933 241.355 676.913C240.489 676.643 239.219 678.876 240.066 679.203C244.569 680.954 251.094 680.415 253.865 676.085C255.982 672.775 255.424 670.196 254.038 665.981C253.326 663.768 253.211 661.843 254.038 658.725C254.866 655.608 257.618 651.836 259.908 648.929C261.101 647.428 275.286 639.614 286.775 629.568C298.38 619.387 308.119 607.012 310.678 599.603C310.967 598.756 307.83 596.62 307.541 597.466V597.447Z" fill="#0E141B"/>
<path d="M241.779 667.04C242.606 670.197 242.703 674.2 241.548 675.181C239.046 677.317 234.004 677.606 230.482 676.432C229.616 676.144 227.98 678.491 228.807 678.838C233.061 680.647 239.662 681.07 243.646 677.683C246.552 675.22 245.551 669.484 244.223 666.059C242.587 661.882 240.624 662.729 241.76 667.04H241.779Z" fill="#0E141B"/>
<path d="M291.259 521.427C280.443 526.873 264.508 539.114 258.58 560.765C256.983 566.596 250.901 584.668 248.688 589.114C246.532 593.406 239.739 601.912 235.158 606.3C230.578 610.688 226.498 614.037 223.399 618.252C219.55 623.448 209.003 649.988 209.966 659.303C210.851 667.829 215.585 675.258 218.183 677.048C220.281 678.491 225.939 680.781 230.058 678.626C235.158 675.951 232.464 668.695 230.52 664.846C228.595 661.035 226.671 661.728 228.076 665.75C229.789 670.658 230.481 674.7 228.538 675.72C226.151 676.971 221.994 675.72 220.05 674.353C218.645 673.372 214.565 667.213 213.738 659.072C212.872 650.7 223.091 625.315 226.498 620.561C229.404 616.52 232.656 613.71 237.16 609.476C242.568 604.395 249.285 595.215 251.613 590.577C253.884 586.035 260.755 568.155 262.468 562.266C267.78 543.829 282.676 528.952 292.337 523.659C298.149 520.484 297.11 518.482 291.259 521.427Z" fill="#0E141B"/>
<path d="M295.378 618.598C300.979 621.793 316.722 636.208 320.186 644.195C320.552 645.023 322.803 641.077 322.495 640.539C317.588 631.801 302.422 619.445 296.745 616.193C295.955 615.75 294.608 618.156 295.378 618.598Z" fill="#0E141B"/>
<path d="M309.678 629.722C308.542 633.59 305.963 636.131 304.116 638.594C302.268 641.058 301.71 643.329 304.116 648.544C306.752 654.26 311.333 663.383 312.006 665.307C312.295 666.096 314.2 663.671 313.796 662.613C312.103 658.282 308.754 650.219 307.445 647.197C306.079 644.079 306.271 641.635 307.234 640.345C309.485 637.324 311.564 633.59 312.083 631.3C312.314 630.261 309.87 629.048 309.678 629.703V629.722Z" fill="#0E141B"/>
<path d="M344.512 458.627C340.144 439.324 328.096 429.124 313.392 417.711C303.019 409.666 282.31 392.634 281.098 374.216C280.424 363.861 285.967 348.484 292.51 343.576C295.782 341.113 294.839 340.131 291.452 340.324C289.065 340.478 287.853 340.766 287.025 340.824C290.682 337.225 295.878 333.28 299.785 331.028C306.156 327.352 304.173 326.582 298.765 326.313C244.762 323.503 178.691 372.098 180.019 449.351C181.116 513.497 224.515 545.483 266.125 547.158C266.779 545.868 267.703 544.848 268.665 543.867C227.364 542.846 185.504 508.666 184.484 449.562C183.329 381.163 240.22 327.872 297.052 329.181C292.183 332.703 286.525 337.283 283.561 341.267C281.232 344.404 282.599 344.288 284.119 344.096C285.659 343.923 286.756 343.788 288.084 343.827C282.291 350.235 277.499 360.397 278.211 374.216C279.173 393.134 299.054 411.321 311.41 420.598C324.073 430.105 335.813 441.479 339.97 459.859C343.165 473.985 344.166 492.75 333.408 510.052C334.928 509.243 336.756 508.724 338.565 508.204C347.9 491.326 347.823 473.177 344.532 458.608L344.512 458.627Z" fill="#0E141B"/>
<path d="M415.317 485.36C408.562 472.254 396.803 438.69 398.728 411.669C401.768 368.924 430.887 318.539 443.224 300.679C446.226 296.31 447.573 295.598 448.324 295.598C448.978 295.598 449.402 297.869 449.844 301.448C450.268 305.028 452.77 325.371 455.695 348.004C458.62 370.637 464.163 396.195 464.048 409.186C463.836 432.512 450.672 469.271 442.396 479.548C437.95 485.091 416.395 487.458 415.317 485.36Z" fill="#D48C00"/>
<path d="M437.007 473.755C443.84 461.861 456.138 433.281 455.926 413.324C455.81 402.276 445.36 322.792 444.706 319.77C444.032 316.749 443.994 316.749 442.704 318.789C440.895 321.695 411.565 379.162 410.391 411.842C409.659 431.896 415.491 458.897 420.745 475.045C420.745 475.045 424.459 466.134 424.652 464.864C425.729 467.423 427.962 472.908 429.174 474.948C430.252 473.774 433.601 468.309 434.178 466.923C435.064 469.867 437.007 473.736 437.007 473.736V473.755Z" fill="#36210D"/>
<path d="M444.051 297.061C433.023 311.688 398.824 368.539 396.918 410.976C396.052 430.395 400.787 458.744 412.892 483.052C415.163 487.613 417.357 486.516 415.375 481.858C404.944 457.32 400.999 430.126 401.614 411.073C402.885 371.811 435.814 313.477 446.688 299.043C447.15 298.427 447.4 298.37 447.535 298.966C448.805 304.547 450.171 319.347 452.481 335.398C456.811 365.383 462.335 402.662 461.719 412.997C460.66 430.953 452.173 462.805 443.358 475.642C440.375 479.953 442.512 481.262 445.533 476.893C456.234 461.342 464.991 431.492 465.991 413.036C466.665 400.564 460.256 364.036 455.695 334.609C453.058 317.596 451.961 306.376 450.73 298.254C449.863 292.577 447.131 293.039 444.071 297.08L444.051 297.061Z" fill="#0E141B"/>
<path d="M422.881 465.19C421.976 468.462 420.379 472.869 419.359 475.506C418.262 478.393 419.859 479.432 421.303 476.699C422.034 475.313 423.689 472.426 424.805 469.54C425.748 471.907 426.73 474.159 427.789 475.487C428.751 476.68 429.501 476.718 430.521 475.487C432.003 473.716 433.1 471.791 433.735 470.078C434.678 471.888 435.333 473.677 436.661 475.236C437.969 476.776 439.798 476.603 438.662 474.313C437.527 472.022 436.93 470.386 435.91 467.211C434.755 463.631 433.62 463.843 432.369 466.98C431.849 468.269 430.483 471.098 429.232 473.042C428.558 471.676 427.346 467.211 426.48 464.863C425.267 461.572 423.997 461.302 422.9 465.171L422.881 465.19Z" fill="#0E141B"/>
<path d="M441.338 318.596C438.816 322.811 409.274 379.47 408.119 411.976C407.407 431.549 414.24 458.936 419.763 475.93C420.033 476.796 421.707 473.986 421.553 473.466C416.549 457.531 411.045 431.761 412.026 411.918C413.605 379.624 438.932 328.353 443.358 320.347C443.801 323.022 444.455 331.375 445.475 340.113C447.9 361.033 453.847 402.199 453.751 413.265C453.636 428.2 445.976 455.279 436.391 473.043C436.237 473.331 437.642 474.679 438.104 473.889C447.131 458.782 456.83 431.972 457.581 413.362C458.043 402.064 450.479 355.798 448.401 339.554C447.15 329.797 446.245 321.925 445.668 318.692C444.879 314.304 443.878 314.362 441.357 318.577L441.338 318.596Z" fill="#0E141B"/>
<path d="M430.502 559.475C425.941 565.633 418.782 567.289 414.451 565.037C409.236 562.342 407.792 555.491 409.409 548.909C410.083 546.099 418.589 541.692 424.555 544.79C430.522 547.87 432.696 556.511 430.502 559.475Z" fill="#5D2B0E"/>
<path d="M434.428 528.123C437.758 529.913 437.777 538.15 432.754 547.311C427.731 556.472 421.649 560.398 418.339 558.628C414.105 556.376 414.336 547.889 418.339 540.556C424.575 529.182 431.388 526.468 434.428 528.104V528.123Z" fill="#0E141B"/>
<path d="M495.957 592.713C491.55 598.621 487.142 599.564 484.525 598.371C481.773 597.101 481.099 591.981 483.216 586.535C484.332 583.706 489.721 580.742 493.301 582.378C496.534 583.86 498.286 589.595 495.957 592.713Z" fill="#5D2B0E"/>
<path d="M502.943 564.96C504.617 565.788 503.771 573.024 499.152 581.531C494.052 590.923 489.856 594.118 487.931 593.175C486.045 592.232 486.469 585.881 490.741 578.028C496.476 567.462 501.423 564.21 502.943 564.96Z" fill="#0E141B"/>
<path d="M440.433 339.9C444.494 348.388 452.154 384.454 452.134 399.081C452.134 418.096 446.842 427.661 440.741 433.242C443.166 427.122 441.934 416.479 441.184 412.591C440.144 419.655 434.813 431.548 429.54 435.378C431.753 428.104 432.6 415.844 431.387 411.648C429.328 419.712 426.769 423.023 423.035 426.564C424.498 415.401 424.805 402.43 424.305 397.695C420.11 402.93 417.877 411.629 417.531 417.749C413.643 407.876 413.143 399.658 415.721 390.401C419.705 376.14 430.175 353.392 440.414 339.9H440.433Z" fill="#543923"/>
<path d="M660.95 560.745C650.23 564.575 629.041 570.733 616.531 573.255C600.577 576.469 583.871 574.602 572.901 570.849C578.367 570.733 588.509 569.078 595.746 565.479C586.739 566.422 569.264 565.114 564.856 559.263C569.86 559.629 588.798 556.915 596.804 553.528C593.648 551.584 579.156 550.16 569.225 551.603C575.345 545.598 592.955 542.307 603.964 544.501C601.423 541.268 586.219 539.882 575.807 540.691C582.87 536.206 594.418 534.59 603.868 535.725C617.128 537.304 637.394 552.084 660.97 560.745H660.95Z" fill="#543923"/>
<path d="M505.984 558.86C507.466 559.668 507.427 563.286 505.907 566.231C504.213 569.522 501.115 571.196 499.229 570.08C497.343 568.964 497.805 565.057 499.44 562.536C501.25 559.726 504.098 557.84 505.984 558.879V558.86Z" fill="white"/>
<path d="M435.698 521.427C437.546 522.563 437.354 526.508 435.179 530.107C432.754 534.149 428.77 535.804 426.538 534.322C424.478 532.975 424.979 528.856 427.134 525.507C429.598 521.697 433.716 520.215 435.698 521.427Z" fill="white"/>
</g>
<defs>
<clipPath id="clip0_42_71026">
<rect width="520" height="452.082" fill="white" transform="translate(180 294)"/>
</clipPath>
</defs>
</svg>
