<svg width="800" height="800" viewBox="0 0 800 800" fill="none" xmlns="http://www.w3.org/2000/svg">
<g clip-path="url(#clip0_42_71198)">
<path d="M274.18 542.811C275.495 567.992 277.235 595.804 276.047 608.829C274.456 626.055 267.646 667.401 256.7 676.714C251.396 681.211 242.635 690.503 242.91 698.182C243.186 705.862 251.396 711.165 259.882 713.032C277.913 716.978 287.481 709.426 293.294 695.531C302.034 674.592 316.099 640.904 319.005 632.419C321.911 623.933 322.717 617.569 322.717 612.266C322.717 606.962 327.766 570.898 331.203 557.64C341.28 566.656 355.599 576.987 378.128 577.263C384.747 593.958 392.724 613.581 394.569 625.524C396.415 637.468 401.315 682.738 396.436 691.288C391.133 700.558 386.19 709.023 388.205 715.938C389.52 720.436 395.354 726.545 409.674 726.545C425.329 726.545 440.179 721.518 439.903 690.227C444.677 688.381 446.989 685.008 449.98 677.244C455.814 662.14 480.592 605.307 485.789 595.57C487.911 591.603 488.717 587.891 485.535 581.781C482.353 575.671 478.11 557.915 479.977 547.308L483.689 545.463C491.369 569.053 513.643 605.116 546.27 613.878C552.889 624.209 567.972 670.901 557.132 680.426C550.513 686.26 546.78 692.582 548.116 701.11C548.922 706.138 555.286 713.308 570.391 713.032C585.495 712.756 602.466 703.762 601.406 683.332C600.345 662.903 597.693 614.132 597.693 598.222C597.693 592.664 597.948 585.769 591.583 579.935C585.219 574.102 572.236 545.993 573.806 530.889C584.498 537.253 609.064 552.994 618.801 560.758C615.089 553.163 609.785 542.366 606.964 538.483C610.676 540.244 617.698 543.787 620.71 546.248C618.419 541.114 613.158 534.58 609.615 529.807C613.498 529.977 621.644 531.398 626.756 534.58C619.862 523.803 605.903 504.18 598.817 494.804C613.307 497.286 643.197 503.82 658.577 511.414C648.861 499.577 631.36 480.654 617.04 468.986C635.242 468.286 686.877 471.999 705.969 477.111C690.589 465.613 658.408 447.772 632.951 438.226C636.133 437.165 640.906 435.574 643.727 434.514C639.485 430.971 631.529 426.198 626.926 424.437C631.869 421.255 641.606 415.782 647.61 413.83C639.654 411.539 625.335 410.287 615.958 412.069C627.626 399.171 643.897 383.791 656.435 375.305C646.188 378.127 628.687 382.73 610.655 389.094C629.917 357.804 666.511 296.814 675.358 282.494C651.852 295.053 604.821 328.635 572.47 361.156C573.891 351.609 583.968 317.306 594.044 299.996C591.393 301.587 586.619 304.408 582.016 308.121C585.898 297.153 595.805 277.53 602 268.705C583.437 281.964 558.511 311.833 535.706 346.306C535.176 336.76 535.876 318.197 538.527 308.481C532.524 315.906 523.147 330.586 516.422 347.027C515.531 340.302 513.601 329.886 512.71 325.113L503.864 328.995L501.742 342.784C498.475 341.808 486.808 339.433 480.168 339.157L274.137 542.811H274.18Z" fill="#FFCB05"/>
<path d="M421.002 257.399C422.423 248.913 424.884 235.294 428.957 226.999C421.172 231.411 405.091 241.488 395.015 249.634L396.245 246.092L391.833 248.913C390.942 231.411 391.663 205.064 393.593 196.578C387.06 203.642 367.437 223.096 357.699 237.776L337.185 241.849C336.294 235.315 335.764 220.104 336.125 214.44C329.061 222.756 321.445 233.894 315.081 245.37L312.259 238.476L310.498 241.297C303.964 229.799 297.6 216.201 295.479 208.946C292.466 217.071 290.175 239.346 291.066 257.738C284.532 253.495 272.504 242.358 264.909 232.981C265.609 238.985 266.67 251.183 267.201 258.268L228.124 292.571C221.23 293.802 197.003 295.223 182.345 293.632C191.361 304.939 208.162 321.041 229.185 333.769C219.808 335.36 204.619 336.421 197.364 336.421C203.368 341.194 213.444 349.319 222.991 355.153C209.371 354.622 188.157 355.322 173.668 357.635C188.157 363.638 210.623 375.667 221.4 384.852C200.716 388.395 169.956 401.123 145.729 420.216C165.352 414.552 199.295 411.561 222.991 413.321C207.08 423.228 181.984 445.842 172.438 459.632C186.396 453.267 207.801 447.434 225.112 445.142C220.169 453.628 214.335 467.247 211.323 476.072C219.278 470.069 231.116 462.114 241.192 459.462C228.824 474.842 207.25 506.833 199.464 532.12C215.905 517.8 252.499 492.874 271.952 485.619C261.876 508.593 249.678 547.5 246.326 578.069C259.054 561.268 287.863 525.204 303.434 509.654C301.843 519.731 299.552 541.475 299.552 553.143C309.628 534.941 324.309 508.424 334.194 495.695C339.328 522.743 351.866 569.944 369.028 601.065C368.497 573.848 370.619 518.691 375.222 502.25C378.044 509.315 383.008 519.222 387.59 524.355C389.011 516.57 390.602 507.024 390.772 502.081C400.679 518.691 430.909 563.432 439.925 578.812C437.803 558.298 430.018 512.157 424.375 493.065C431.439 499.429 455.666 519.752 464.851 529.298C457.957 511.097 450.702 488.461 445.759 479.615C453.184 485.449 463.09 491.983 470.515 495.886C463.981 483.858 456.366 469.369 449.301 459.992C472.997 467.417 523.381 482.267 539.461 486.51C526.732 472.551 491.729 438.078 471.406 426.58C480.783 428.341 491.199 429.932 496.863 432.053C491.92 426.05 486.086 419.686 479.892 415.782C492.981 416.482 523.381 418.604 540.352 423.377C529.045 414.891 503.588 399.15 488.208 393.508C507.661 388.034 536.639 382.01 553.611 380.249C543.004 373.185 503.588 358.144 477.24 354.431C486.256 351.949 501.997 347.537 509.761 345.585C503.227 343.464 496.502 341.873 485.195 339.921C493.681 333.196 509.592 325.071 525.863 319.598C513.665 316.416 488.568 314.295 466.294 316.055C472.128 311.452 491.22 298.723 503.588 292.359C495.633 292.19 480.783 292.19 472.467 293.059L421.023 257.356L421.002 257.399Z" fill="white"/>
<path d="M446.268 303.369C494.02 285.74 567.739 250.631 597.141 223.032C591.838 222.502 580.425 222.777 573.361 223.817C600.769 187.223 630.638 132.766 637.172 115.095C591.732 122.159 496.375 162.042 461.627 197.83C452.886 206.846 432.457 238.136 415.762 264.654C410.374 266.245 397.115 272.079 389.86 277.913C390.22 271.018 392.151 256.338 396.224 246.092C389.69 249.634 376.961 256.868 367.224 266.945C367.585 262.172 367.585 257.229 367.755 253.325C363.872 256.508 360.16 259.859 356.087 264.633C357.317 249.613 358.908 226.808 360.16 214.949C349.723 226.256 332.942 244.288 321.975 264.972C319.323 255.595 315.25 244.988 311.728 239.155C304.834 248.701 295.288 265.502 291.575 277.34C289.093 272.397 286.102 267.963 283.09 264.442C282.39 267.624 280.798 276.47 279.908 281.943C263.997 252.074 236.079 200.439 223.69 187.902C209.201 173.264 121.354 121.099 92.885 113.674C98.8886 139.131 128.058 198.169 152.984 234.233C148.381 234.403 139.195 234.233 130.54 231.051C150.523 251.565 214.696 287.798 243.144 299.636C237.84 300.696 226.703 301.587 218.748 301.227C224.051 306.36 239.262 313.785 257.463 318.559C256.402 327.044 254.981 341.364 255.702 350.21C252.16 348.788 245.265 346.497 239.962 344.015C242.613 349.849 245.626 356.213 250.208 364.169C243.674 364.529 229.164 365.59 222.269 367.52C227.403 372.824 238.71 379.549 247.726 384.131C239.94 388.734 230.924 394.908 224.921 400.742C233.767 400.211 248.617 399.15 255.681 398.09C254.451 403.393 252.669 410.818 251.269 415.061C254.811 412.77 260.115 409.588 263.297 406.936C262.767 413.661 307.316 440.03 324.648 440.348C344.44 440.709 383.517 425.498 406.852 409.227C409.673 412.239 415.168 417.013 419.75 420.004C419.22 414.7 419.05 407.445 418.689 403.202C423.823 404.263 438.312 406.915 446.628 409.567C440.094 401.972 432.309 392.235 424.714 384.279C435.321 380.397 452.653 374.033 459.887 370.49C451.932 367.139 436.912 361.835 427.896 359.714C434.961 352.458 443.976 343.103 448.05 337.269C440.985 338.16 430.378 340.621 421.171 343.464C421.171 337.8 421.341 331.266 420.811 326.493C433.179 322.95 455.814 311.643 463.769 306.17C458.635 305.469 451.571 304.218 446.268 303.348V303.369Z" fill="#FFCB05"/>
<path d="M268.982 330.84C287.736 336.207 304.473 353.199 303.646 379.102C293.124 381.287 277.192 375.453 273.034 368.728C268.919 362.088 265.461 344.035 268.982 330.84Z" fill="#061922"/>
<path d="M352.947 379.527C353.562 369.642 354.581 361.283 359.142 354.707C369.473 339.857 386.996 334.023 403.649 332.029C404.603 345.246 400.297 366.948 394.081 372.972C386.868 379.952 369.664 383.537 352.947 379.527Z" fill="#061922"/>
<path d="M266.649 283.872C255.342 261.831 227.36 217.451 210.686 200.204C194.012 182.957 145.39 156.1 122.5 146.787C133.807 175.617 163.315 229.203 174.495 240.638C187.224 253.642 224.518 278.802 257.039 290.385C252.329 285.208 246.029 274.644 244.268 268.831C250.059 271.61 260.327 278.25 266.649 283.872Z" fill="#061922"/>
<path d="M411.54 291.956C426.39 269.151 459.717 218.683 472.806 205.785C493.766 185.101 569.584 147.977 604.588 141.082C594.235 163.611 559.444 223.223 538.824 240.788C515.489 260.665 448.919 291.171 419.22 302.033C423.993 295.944 431.142 285.867 435.661 281.094C429.042 283.216 419.496 286.928 411.519 291.956H411.54Z" fill="#061922"/>
<path d="M288.966 344.312C285.678 344.143 283.556 349.892 284.66 355.365C285.954 361.75 289.56 365.823 292.763 365.081C295.648 364.423 298.152 359.862 296.051 352.734C294.46 347.325 291.618 344.44 288.987 344.312H288.966Z" fill="white"/>
<path d="M370.025 345.118C365.421 347.939 363.639 350.166 363.66 356.87C363.66 361.771 366.545 366.926 370.046 367.01C374.628 367.138 377.301 362.577 377.768 357.252C378.553 348.236 373.143 343.187 370.025 345.096V345.118Z" fill="white"/>
<path d="M93.1396 113.779C97.7855 122.923 113.187 139.172 121.885 145.791C133.17 174.897 158.988 221.207 171.737 237.584C184.466 253.961 228.697 278.591 256.763 289.919C251.035 282.685 245.944 271.802 247.514 273.881C250.017 277.233 261.473 289.07 269.067 295.986C273.437 299.974 262.13 308.227 258.503 306.699C235.528 297.068 161.046 260.283 133.977 234.657C140.235 237.733 149.654 240.448 157.97 241.148C133.722 206.675 100.374 144.306 93.1396 113.779Z" fill="#D3A809"/>
<path d="M311.198 239.811C313.808 251.945 316.184 264.313 317.053 274.071L322.039 265.607C319.217 256.506 314.889 243.926 311.198 239.811Z" fill="#D3A809"/>
<path d="M283.005 266.031C284.957 271.017 286.484 275.344 287.333 278.399C288.202 281.433 291.384 281.602 292.466 277.911C290.302 274.008 285.826 267.983 283.005 266.031Z" fill="#D3A809"/>
<path d="M219.278 301.418C232.176 306.191 247.917 310.434 259.224 311.664L257.994 318.198C241.722 316.077 224.221 305.639 219.278 301.396V301.418Z" fill="#D3A809"/>
<path d="M359.29 216.031C354.347 228.59 350.826 254.216 350.274 264.654C350.105 268.006 355.047 268.366 356.808 265.354C356.638 256.508 357.508 232.111 359.29 216.031Z" fill="#D3A809"/>
<path d="M367.437 253.877C364.955 259.18 363.724 263.423 363.024 266.244C362.324 269.066 365.315 270.487 367.097 268.536C367.097 264.462 367.267 258.629 367.458 253.855L367.437 253.877Z" fill="#D3A809"/>
<path d="M395.354 247.152C389.351 254.577 384.577 269.427 383.686 275.961C383.156 279.843 387.399 281.095 389.881 279.143C390.411 269.957 391.472 257.568 395.354 247.152Z" fill="#D3A809"/>
<path d="M419.941 318.133C431.354 317.348 453.226 310.072 463.515 305.766C451.592 313.191 431.439 324.052 420.556 326.449L419.941 318.133Z" fill="#D3A809"/>
<path d="M635.878 116.154C630.872 123.346 616.658 133.741 605.118 140.55C592.644 168.913 553.823 228.991 534.582 244.223C514.174 260.388 453.396 288.921 417.65 302.816C418.52 301.289 429.551 288.348 431.248 284.827C425.86 291 405.897 302.668 404.413 306.507C403.267 309.435 411.201 315.523 418.371 312.999C470.091 296.876 561.502 256.739 596.59 223.836C588.741 226.785 560.505 234.656 558.85 233.171C556.58 231.134 563.178 223.73 566.7 223.539L573.276 223.667C586.535 204.32 625.568 146.384 635.921 116.154H635.878Z" fill="#D3A809"/>
<path d="M241.065 344.418C245.265 351.122 250.038 356.658 253.857 360.477C256.042 362.662 254.96 365.632 250.738 365.462C246.686 358.44 242.465 349.255 241.065 344.418Z" fill="#D3A809"/>
<path d="M222.969 367.18C233.258 372.483 242.762 376.896 249.487 378.72C252.923 379.654 252.457 383.557 249.635 384.957C243.08 381.69 231.391 375.432 222.969 367.18Z" fill="#D3A809"/>
<path d="M227.657 399.319C237.013 396.052 249.487 393.549 259.775 392.615C260.391 396.2 261.494 402.289 263.212 407.274C260.094 409.777 254.79 413.044 251.523 414.763C253.093 409.608 255.257 402.289 256.36 398.237C245.138 399.489 233.597 400.57 227.657 399.319Z" fill="#D3A809"/>
<path d="M447.244 337.396C438.355 344.249 431.333 349.552 424.948 354.24C422.614 355.959 423.229 359.692 426.815 360.944C431.97 355.641 441.622 345.034 447.244 337.396Z" fill="#D3A809"/>
<path d="M456.917 370.299C442.725 373.884 433.221 376.111 425.414 377.321C421.363 377.936 420.429 381.691 423.548 385.127C431.651 382.327 444.592 376.705 456.917 370.32V370.299Z" fill="#D3A809"/>
<path d="M446.31 409.142C439.925 405.09 428.3 400.635 423.229 399.001C418.393 397.431 417.141 400.868 417.311 403.053C424.014 404.135 438.355 407.105 446.31 409.142Z" fill="#D3A809"/>
<path d="M411.222 405.238C412.622 409.142 415.911 415.06 419.644 419.749C415.592 417.097 409.355 412.43 406.555 409.142L411.243 405.238H411.222Z" fill="#D3A809"/>
<path d="M478.958 528.533C464.49 536.17 449.28 540.413 435.491 542.195C436.764 549.196 438.334 561.033 439.288 568.522C449.365 564.958 473.082 553.247 483.816 545.441C481.547 537.973 480.252 534.388 478.937 528.533H478.958Z" fill="#D3A809"/>
<path d="M355.854 572.786C348.429 551.317 337.822 514.978 334.109 494.824C325.878 506.746 319.005 517.884 310.604 533.752C318.814 548.58 338.098 565.191 355.854 572.786Z" fill="#D3A809"/>
<path d="M376.007 570.918C376.007 561.902 378.128 539.628 379.995 527.43C383.983 535.915 388.735 543.34 393.254 549.174C394.845 539.904 395.906 532.733 395.906 526.114C404.922 542.279 425.075 571.979 435.152 586.829C434.621 580.995 434.345 576.222 434.897 570.133C421.108 549.726 398.579 515.253 390.878 501.994C390.348 509.949 389.287 518.435 388.502 524.799C384.514 519.241 377.64 508.634 375.519 503.331C372.867 518.965 370.746 542.577 369.409 558.487C371 561.393 373.398 565.636 376.028 570.94L376.007 570.918Z" fill="#D3A809"/>
<path d="M427.175 504.902C433.794 511.266 456.875 531.419 466.166 540.69C464.851 536.723 463.239 530.359 461.924 526.646C451.847 517.376 432.479 500.129 423.993 492.449L427.175 504.902Z" fill="#D3A809"/>
<path d="M452.101 495.079C458.211 499.576 465.084 503.288 471.724 507.807C468.012 500.658 466.421 497.2 464.299 492.703C458.19 488.46 451.571 483.962 446.268 480.25C448.644 486.084 450.765 491.112 452.101 495.1V495.079Z" fill="#D3A809"/>
<path d="M457.405 472.551C479.425 479.445 526.605 493.234 540.946 498.007C535.642 491.643 532.206 487.4 527.687 483.158C500.915 475.202 463.239 465.126 449.726 459.822L457.405 472.551Z" fill="#D3A809"/>
<path d="M484.283 429.231C489.226 433.113 496.312 440.008 499.133 443.381C496.121 442.85 493.66 442.49 492.238 442.15C485.874 437.017 478.28 431.013 472.446 427.131C476.689 427.661 480.571 428.552 484.283 429.252V429.231Z" fill="#D3A809"/>
<path d="M493.299 427.831C507.979 429.422 530.063 432.074 541.921 434.895C535.727 430.292 526.541 424.288 518.056 419.515C508.34 418.094 489.777 416.163 480.401 415.633C486.065 420.576 489.417 423.758 493.299 427.831Z" fill="#D3A809"/>
<path d="M536.788 382.92C545.443 386.272 548.455 388.054 554.989 391.236C535.536 394.588 518.035 397.961 504.776 401.482C499.112 398.661 493.999 395.818 488.335 393.697C499.833 389.814 522.277 384.85 536.766 382.92H536.788Z" fill="#D3A809"/>
<path d="M488.165 351.27C496.481 352.5 504.776 354.621 511.331 356.573C508.149 357.634 503.206 359.394 500.724 360.116C494.19 358.355 482.522 355.343 477.028 354.452C480.91 353.561 484.622 352.33 488.165 351.27Z" fill="#D3A809"/>
<path d="M369.367 557.406C368.837 564.025 368.837 569.329 368.561 575.968C370.152 576.753 374.925 577.284 378.362 577.284C375.986 571.726 372.528 562.71 369.346 557.406H369.367Z" fill="#D3A809"/>
<path d="M484.983 504.732C508.319 517.906 533.776 539.035 543.682 550.703C541.922 546.1 538.74 540.796 535.897 536.914C540.14 538.335 547.565 541.517 551.447 544.339C548.965 539.396 546.504 533.732 543.661 529.489C553.208 533.732 568.757 542.218 576.182 547.521C575.122 542.302 573.806 535.684 574.315 531.441C567.951 527.198 546.207 514.215 537.446 510.757C539.822 514.47 542.494 519.243 544.064 522.955C540.076 521.64 532.142 518.458 528.684 516.867C531.612 521.11 534.794 526.668 536.915 530.38C524.993 522.17 495.018 505.899 484.941 504.754L484.983 504.732Z" fill="#D3A809"/>
<path d="M534.094 528.491C526.181 517.396 502.018 504.328 489.735 500.382C484.135 498.579 480.359 504.222 485.386 505.325C495.293 507.51 520.029 519.178 534.094 528.491Z" fill="#D3A809"/>
<path d="M520.517 506.322C526.711 509.674 536.597 515.168 542.431 522.402L528.111 516.569C526.52 514.087 523.338 509.313 520.517 506.322Z" fill="#D3A809"/>
<path d="M618.271 559.209C602.212 541.686 557.874 512.686 540.733 505.028C533.796 501.931 530.339 505.686 534.984 510.204C555.244 518.414 602.593 547.371 618.271 559.23V559.209Z" fill="#D3A809"/>
<path d="M616.871 542.725C613.328 538.843 607.728 534.452 604.142 533.009C600.218 531.418 597.333 535.131 600.345 536.722C606.54 538.843 612.289 540.795 616.871 542.725Z" fill="#D3A809"/>
<path d="M624.868 533.264C619.819 528.364 615.449 526.115 610.422 525.054C605.394 523.994 605.924 527.961 607.494 529.7C612.798 530.103 620.095 531.016 624.868 533.285V533.264Z" fill="#D3A809"/>
<path d="M655.904 509.399C643.176 499.195 609.891 489.776 593.45 487.654L598.754 494.676C614.919 496.925 643.833 503.968 655.904 509.399Z" fill="#D3A809"/>
<path d="M608.427 461.412C629.238 461.285 686.919 466.716 704.293 476.135C679.77 472.147 641.712 468.18 617.189 468.965L608.448 461.412H608.427Z" fill="#D3A809"/>
<path d="M642.9 434.62C635.73 433.305 622.619 432.096 614.792 432.096C620.625 433.963 629.111 436.466 633.481 438.205C636.133 437.675 640.651 436.084 642.9 434.62Z" fill="#D3A809"/>
<path d="M645.955 413.682C636.536 414.997 630.702 416.991 625.929 419.112C621.156 421.234 623.002 424.161 625.929 425.477C629.238 422.167 638.53 417.394 645.955 413.682Z" fill="#D3A809"/>
<path d="M652.043 377.215C636.387 384.64 617.995 399.277 611.737 407.848C609.212 411.284 611.737 414.339 615.173 413.682C623.532 403.732 641.946 385.043 652.043 377.215Z" fill="#D3A809"/>
<path d="M675.74 281.455C657.877 298.256 615.81 362.768 598.309 394.059C602.551 392.468 606.964 390.516 610.146 389.455C631.36 353.752 659.468 307.951 675.74 281.434V281.455Z" fill="#D3A809"/>
<path d="M593.896 299.826C580.276 312.194 571.091 343.315 564.196 368.602C566.148 366.311 570.56 362.407 571.982 361.177C575.694 344.736 585.601 312.915 593.896 299.826Z" fill="#D3A809"/>
<path d="M600.6 269.957C591.584 280.394 581.274 296.199 577.434 305.13C575.843 308.842 577.964 312.724 581.677 309.903C586.089 297.535 595.466 277.552 600.6 269.957Z" fill="#D3A809"/>
<path d="M538.549 308.672C532.015 321.231 530.763 342.084 530.424 354.112L535.367 346.518C535.367 335.02 536.597 316.288 538.549 308.693V308.672Z" fill="#D3A809"/>
<path d="M509.04 326.874C509.931 332.347 511.331 343.145 512.052 351.97C512.371 355.873 518.968 357.74 518.056 351.97C516.635 342.954 514.704 330.395 513.453 324.922L509.04 326.874Z" fill="#D3A809"/>
<path d="M276.259 566.486C294.588 567.483 309.968 586.576 309.013 616.764C308.716 626.373 305.619 637.384 300.825 650.366C296.03 663.349 287.481 690.376 282.856 695.701C272.462 707.644 246.75 703.741 244.056 693.876C239.813 700.644 245.18 707.432 255.915 711.951C266.649 716.469 285.975 716.448 294.312 693.601C299.679 678.921 314.932 643.896 318.326 634.859C321.72 625.822 322.845 621.028 322.845 614.536C322.845 608.045 326.239 574.717 331.033 558.064C325.093 552.697 314.699 541.157 310.583 533.796C308.165 537.741 302.225 547.33 299.976 552.697C300.549 540.839 301.673 519.37 303.922 509.484C296.306 517.1 282.453 531.229 274.265 542.812C275.113 549.6 276.238 558.064 276.238 566.529L276.259 566.486Z" fill="#D3A809"/>
<path d="M431.609 566.252C430.548 590.648 432.309 614.344 434.091 623.169C435.873 631.994 432.818 683.65 428.257 701.47C423.399 720.414 391.578 721.538 388.481 709.086C385.659 716.511 392.023 725.357 405.813 726.418C419.602 727.478 438.334 724.296 439.394 697.418C440.455 670.54 443.276 627.051 440.816 621.048C438.355 615.044 432.5 576.138 434.897 570.134L431.63 566.252H431.609Z" fill="#D3A809"/>
<path d="M438.673 607.958C448.58 606.898 456.641 627.284 453.883 637.658C449.641 653.568 446.819 662.415 440.794 674.422L439.734 689.972C443.616 688.55 448.028 684.371 451.041 676.183C455.984 662.754 473.867 619.181 483.562 599.812C486.044 594.869 489.926 590.266 485.683 582.48C481.44 574.695 478.619 559.145 480.019 547.838C469.051 554.202 452.271 563.706 439.267 568.5L439.713 576.477L434.855 570.113C434.77 579.298 435.83 596.269 438.652 607.937L438.673 607.958Z" fill="#D3A809"/>
<path d="M578.325 556.346C580.446 569.859 582.822 579.405 586.28 586.045C589.738 592.685 589.992 599.559 589.992 605.923C589.992 624.485 590.523 670.392 590.735 681.36C591.202 705.862 548.901 710.55 548.901 693.982C545.188 701.407 551.128 709.914 563.22 712.523C582.843 716.766 602.254 705.883 601.406 683.354C600.345 655.521 597.693 610.696 597.693 596.377C597.693 591.349 597.948 587.361 592.135 580.742C586.322 574.123 580.467 561.925 578.346 556.346H578.325Z" fill="#D3A809"/>
<path d="M265.949 233.574C271.083 246.6 274.031 264.398 275.028 272.311C272.801 268.365 269.534 261.174 266.967 257.398C266.797 248.148 266.458 237.69 265.949 233.574Z" fill="#D1D3D4"/>
<path d="M295.945 210.09C296.115 228.079 296.115 242.992 297.494 254.809C297.961 258.903 293.718 262.34 290.302 259.773C290.472 244.69 291.851 219.848 295.967 210.068L295.945 210.09Z" fill="#D1D3D4"/>
<path d="M335.87 214.715C332.264 225.004 330.376 244.542 329.697 252.073C331.585 249.336 334.831 245.051 336.549 242.484C336.209 234.592 336.04 220.04 335.87 214.715Z" fill="#D1D3D4"/>
<path d="M393.445 195.348C387.272 210.091 384.535 233.745 384.026 253.453C387.293 250.886 389.69 249.846 391.748 248.828C390.708 235.124 391.917 207.185 393.466 195.369L393.445 195.348Z" fill="#D1D3D4"/>
<path d="M427.727 228.08C418.308 239.726 409.737 258.586 405.452 268.344C408.719 267.135 412.304 265.777 415.401 264.907L421.405 255.488C423.123 245.709 425.011 235.95 427.748 228.059L427.727 228.08Z" fill="#D1D3D4"/>
<path d="M503.482 292.527C493.723 294.925 472.806 302.116 465.254 305.383L452.398 312.575C450.341 313.614 447.774 319.087 452.229 318.918L465.254 316.52C476.561 308.798 490.966 299.21 503.482 292.527Z" fill="#D1D3D4"/>
<path d="M524.738 319.768C513.941 320.616 488.229 329.887 478.471 334.681C476.137 335.827 475.734 339.475 479.319 340.154L484.983 339.815C498.348 331.753 509.995 324.901 524.738 319.768Z" fill="#D1D3D4"/>
<path d="M468.521 352.67C475.882 350.612 496.969 344.608 509.485 345.308C499.727 347.536 485.832 351.991 478.64 354.727L468.521 352.67Z" fill="#D1D3D4"/>
<path d="M473.146 388.499C492.514 383.535 531.421 375.304 553.865 380.268C538.443 382.156 506.982 387.778 488.356 393.697C485.153 392.424 478.131 390.027 473.146 388.499Z" fill="#D1D3D4"/>
<path d="M536.894 422.082C526.775 416.948 495.59 410.096 481.546 409.566C476.922 409.396 473.824 413.511 478.11 416.248C486.001 416.078 518.565 418.985 536.894 422.082Z" fill="#D1D3D4"/>
<path d="M456.175 416.078C464.066 417.627 487.189 424.988 496.099 431.501C489.926 429.952 478.619 427.385 471.937 426.876C466.803 423.439 462.518 420.194 456.175 416.078Z" fill="#D1D3D4"/>
<path d="M444.189 451.23C470.579 456.704 517.886 471.787 537.424 485.173C518.904 480.039 467.333 466.844 449.153 459.292L444.189 451.23Z" fill="#D1D3D4"/>
<path d="M439.734 465.104C446.925 472.295 463.048 488.757 470.749 495.609C463.897 491.663 451.89 484.302 446.077 479.678C443.849 474.374 441.622 469.219 439.734 465.104Z" fill="#D1D3D4"/>
<path d="M419.687 476.41C428.936 485.659 456.026 514.638 463.557 527.493C453.608 518.923 432.457 500.064 424.014 492.448L419.687 476.431V476.41Z" fill="#D1D3D4"/>
<path d="M439.225 575.65C431.163 551.996 408.677 516.929 399.3 500.764C396.224 495.461 389.881 496.14 389.542 501.104C400.339 516.696 423.484 554.224 439.246 575.65H439.225Z" fill="#D1D3D4"/>
<path d="M388.311 523.548C385.914 516.186 382.244 506.895 380.95 502.461C379.571 497.836 374.607 497.667 374.267 501.252C377.174 508.104 383.686 518.902 388.311 523.526V523.548Z" fill="#D1D3D4"/>
<path d="M368.667 598.073C360.012 569.604 343.168 506.916 340.728 485.469C339.667 476.092 330.121 475.223 330.821 482.648C338.416 515.169 347.092 556.727 368.646 598.094L368.667 598.073Z" fill="#D1D3D4"/>
<path d="M299.021 552.802C306.086 528.936 319.705 500.467 331.903 484.557L334.194 495.864C326.069 506.471 308.907 535.11 299.021 552.781V552.802Z" fill="#D1D3D4"/>
<path d="M307.507 495.715C291.957 507.913 257.484 548.75 246.517 578.28C263.127 555.835 289.963 522.848 303.943 509.461L307.507 495.736V495.715Z" fill="#D1D3D4"/>
<path d="M279.038 471.129C260.476 479.784 216.287 505.602 199.485 531.949C216.096 518.16 248.638 494.825 272.143 485.109L279.038 471.15V471.129Z" fill="#D1D3D4"/>
<path d="M211.683 476.262C220.339 463.173 232.367 453.987 251.629 447.793C249.147 450.275 244.904 455.218 242.083 458.57C233.067 461.391 222.99 467.055 211.683 476.241V476.262Z" fill="#D1D3D4"/>
<path d="M174.389 457.53C191.191 446.223 210.177 439.923 224.603 438.438C229.736 437.907 230.076 442.15 227.424 445.502C217.347 445.672 187.118 452.566 174.389 457.53Z" fill="#D1D3D4"/>
<path d="M149.993 417.923C175.98 407.486 206.041 404.049 222.481 406.786C227.785 407.677 229.737 411.92 225.303 414.211C214.526 411.729 174.75 412.45 149.993 417.923Z" fill="#D1D3D4"/>
<path d="M173.668 357.824C190.809 359.246 215.926 370.383 228.655 383.811L221.59 384.872C206.38 372.844 187.118 362.958 173.689 357.824H173.668Z" fill="#D1D3D4"/>
<path d="M199.485 336.42C211.683 344.375 224.051 350.039 235.019 355.513L223.521 355.152C211.683 348.427 204.428 343.124 199.485 336.42Z" fill="#D1D3D4"/>
<path d="M184.805 293.992C198.234 305.83 221.4 322.461 235.549 329.886C240.513 332.496 237.883 340.408 232.728 337.311C221.23 330.417 190.3 307.081 184.827 293.992H184.805Z" fill="#D1D3D4"/>
<path d="M258.269 411.03C267.009 429.316 302.564 453.458 324.287 455.219C346.01 456.979 396.075 436.317 412.537 415.294L406.534 409.142C385.553 425.604 339.943 441.79 325.878 440.454C311.813 439.117 280.523 423.567 271.528 416.058C268.346 413.406 264.973 410.669 263.212 407.254L258.269 411.009V411.03Z" fill="#D1D3D4"/>
<path d="M318.729 397.431C318.475 395.395 327.766 395.522 327.575 397.431C327.427 399.065 324.139 400.253 322.887 400.231C321.636 400.21 318.878 398.662 318.729 397.431Z" fill="#061922"/>
<path d="M262.597 405.812C260.157 407.869 256.212 410.266 253.539 411.921C255.172 407.487 256.699 401.929 257.675 398.026C257.972 396.838 257.569 396.308 256.36 396.477C256.169 396.499 240.068 398.365 230.203 398.705C235.379 394.462 244.247 388.374 249.084 385.51C250.484 384.682 250.484 383.834 249.275 383.219C243.144 380.1 229.715 372.506 224.985 368.39C233.3 367.245 243.589 366.141 250.738 365.653C251.947 365.569 252.202 364.762 251.693 363.871C248.532 358.356 245.732 352.861 242.91 347.346C246.962 349.404 251.417 351.313 255.681 352.755C257.251 353.286 257.506 352.819 257.378 350.995C256.445 337.078 257.739 325.898 259.563 314.952C260.327 310.37 258.036 310.03 256.89 314.549C254.62 323.48 253.157 336.421 253.857 348.003C249.084 346.306 244.353 344.333 240.025 342.297C237.352 341.045 236.037 341.194 237.798 344.652C240.725 350.485 244.013 356.701 247.874 363.044C241.34 363.341 226.194 364.593 220.508 365.505C218.238 365.866 217.92 366.735 219.723 368.39C226.003 374.139 237.946 380.885 245.52 384.513C238.625 388.586 227.467 395.629 223.924 399.193C221.505 401.569 222.142 402.439 225.048 402.396C232.919 402.29 248.596 400.55 254.09 399.85C252.584 405.875 251.523 409.609 249.741 415.04C249.19 416.694 249.784 417.31 251.502 416.44C254.939 414.721 259.733 411.985 263.785 408.548L262.618 405.854L262.597 405.812Z" fill="#061922"/>
<path d="M261.197 394.567C260.454 391.109 258.46 391.576 258.842 395.076C259.415 400.252 261.006 409.014 264.273 412.387C276.344 424.882 314.72 442.298 325.39 442.723C342.255 443.401 387.929 428.361 410.077 407.677C412.643 405.28 411.265 403.668 408.528 405.831C384.768 424.648 341.683 439.031 325.56 438.374C315.462 437.971 278.55 421.636 267.052 409.735C264.294 406.871 262.151 399.085 261.197 394.567Z" fill="#061922"/>
<path d="M267.052 332.05C277.638 334.745 291.066 343.485 296.836 354.919C299.976 361.114 301.843 369.196 302.395 379.294C302.564 382.518 304.219 381.946 304.474 378.233C305.11 368.814 303.222 359.713 300.061 353.455C294.142 341.788 280.862 332.602 269.089 330.205C265.143 329.399 263.743 331.223 267.073 332.072L267.052 332.05Z" fill="#061922"/>
<path d="M268.537 330.947C263.043 344.079 267.413 363.702 272.059 370.214C276.598 376.579 290.345 382.667 303.561 380.376L303.476 377.957C292.36 379.93 278.147 372.739 275.071 368.135C271.168 362.302 266.437 343.951 271.125 331.775L268.537 330.968V330.947Z" fill="#061922"/>
<path d="M405.367 331.328C386.508 331.116 368.646 338.817 360.054 349.997C353.754 358.207 351.781 371.126 352.014 378.233C352.163 382.497 353.945 383.515 354.199 379.887C354.729 371.89 356.448 360.561 362.918 352.139C371.064 341.511 386.444 334.68 405.452 333.747C408.91 333.577 408.846 331.392 405.388 331.35L405.367 331.328Z" fill="#061922"/>
<path d="M352.926 381.011C363.554 384.766 386.699 383.684 395.8 373.777C401.803 367.243 406.237 346.029 404.688 332.516H402.037C402.715 345.159 398.727 365.1 393.148 371.146C384.599 380.417 362.812 381.329 352.884 378.508V381.011H352.926Z" fill="#061922"/>
<path d="M360.245 406.022C355.875 413.256 348.047 413.977 342.659 412.408C326.027 407.507 321.72 408.547 312.471 411.071C306.128 412.811 300.994 411.686 297.176 406.34C295.203 403.583 293.654 404.601 295.33 407.55C298.831 413.829 305.725 416.141 313.15 414.317C324.372 411.559 326.345 411.792 343.125 415.802C353.032 418.157 359.503 413.065 362.154 407.125C363.448 404.219 361.836 403.392 360.224 406.043L360.245 406.022Z" fill="#061922"/>
<path d="M421.872 347.049C422.911 337.375 422.126 327.426 420.959 319.556C420.344 315.355 417.99 315.398 418.287 319.64C418.902 328.317 419.411 338.012 419.284 347.028C419.199 353.222 421.214 353.159 421.872 347.028V347.049Z" fill="#061922"/>
<path d="M266.288 285.613C267.752 286.928 269.004 286.419 268.049 284.255C260.157 266.542 228.655 216.413 211.641 199.42C194.627 182.407 147.808 154.807 122.967 144.752C120.675 143.84 119.784 144.646 120.569 146.958C126.891 165.372 156.633 222.204 170.316 238.603C186.312 257.738 234.064 283.873 257.484 292.062C259.585 292.804 260.518 292.02 258.46 289.813C252.945 283.831 249.699 278.061 247.111 272.121C253.242 275.494 260.37 280.309 266.267 285.634L266.288 285.613ZM172.904 236.46C160.918 221.929 132.916 169.742 125.088 149.313C150.142 160.026 195.815 187.668 209.371 201.754C223.372 216.307 252.669 259.605 263.212 280.097C257.23 274.624 251.163 270.339 244.608 267.284C242.486 266.308 241.765 266.648 242.677 269.342C244.374 274.369 247.281 280.543 253.072 287.565C228.761 277.976 186.778 253.262 172.904 236.439V236.46Z" fill="#061922"/>
<path d="M90.1909 114.267C98.8462 147.318 129.119 205.508 155.339 239.323C158.373 243.227 159.773 241.721 157.291 237.902C135.228 204.193 105.401 148.74 95.7065 116.685C127.358 127.589 206.21 172.287 223.054 190.149C235.761 203.641 266.755 259.604 280.926 287.394C283.111 291.68 285.105 290.704 283.09 286.355C269.916 257.737 239.134 200.65 226.3 186.967C204.959 164.247 122.351 121.289 93.4366 111.318C90.5727 110.342 89.512 111.658 90.1909 114.267Z" fill="#061922"/>
<path d="M152.9 233.172C146.323 232.79 136.119 230.945 130.498 229.332C127.273 228.399 126.318 230.117 128.8 232.557C152.199 255.383 222.821 293.823 256.106 306.572C260.242 308.164 260.921 306.042 256.997 304.345C225.642 290.832 162.467 256.847 136.416 234.318C142.696 235.654 149.272 236.354 154.533 236.524L152.9 233.193V233.172Z" fill="#061922"/>
<path d="M574.867 223.625C597.439 196.492 627.138 143.988 639.464 116.155C640.736 113.291 639.845 112.4 636.303 112.888C590.82 119.252 497.118 160.683 460.481 195.58C452.823 202.878 418.965 253.24 396.585 294.437C394.909 297.513 396.924 298.638 398.685 295.604C419.22 260.41 455.814 206.611 463.387 199.42C499.175 165.329 587.723 125.277 633.609 118.001C621.135 144.2 591.223 198.932 570.391 224.071L574.867 223.646V223.625Z" fill="#061922"/>
<path d="M566.933 223.329C563.517 224.093 563.73 226.065 567.23 225.705C575.355 224.877 585.792 224.135 593.641 224.22C547.946 260.92 464.575 298.32 420.047 310.9C415.168 312.279 415.401 313.913 420.344 312.894C456.896 305.491 562.011 258.141 599.115 224.39C601.003 222.671 600.663 220.932 598.054 220.762C590.417 220.274 576.416 221.229 566.933 223.329Z" fill="#061922"/>
<path d="M417.65 301.501C416.186 303.496 417.205 304.068 419.029 303.368C465.212 286.015 513.919 262.998 535.26 246.472C556.177 230.265 596.717 166.156 607.303 141.293C608.343 138.854 607.685 137.984 605.012 138.642C562.945 149.015 494.36 184.188 473.082 203.387C460.142 215.054 429.127 262.34 410.14 291.785C408.719 293.97 409.865 294.564 411.753 293.483C417.311 290.279 423.144 287.373 431.333 284.254C426.517 289.558 422.147 295.328 417.629 301.48L417.65 301.501ZM475.373 205.89C494.508 188.537 561.608 154.213 602.275 143.287C590.544 168.553 551.51 229.586 532.884 243.566C513.834 257.864 468.245 280.945 423.548 298.595C428.321 292.252 432.033 287.521 437.506 281.603C438.991 279.99 438.482 278.993 436.297 279.63C428.787 281.815 421.935 284.636 416.165 287.797C434.6 260.155 464.469 215.818 475.416 205.89H475.373Z" fill="#061922"/>
<path d="M281.35 285.677C282.093 277.891 282.984 272.885 284.044 268.048C286.526 271.272 288.648 274.985 290.133 278.336C290.705 279.631 292.339 279.482 292.848 278.124C297.091 267.029 304.813 252.455 311.75 242.421C315.123 249.698 318.475 258.438 320.893 267.284L322.908 263.741C320.66 255.192 317.138 244.712 313.617 237.881C312.598 235.909 311.707 235.802 310.243 237.924C303.54 247.513 295.988 261.577 291.151 273.351C289.242 269.745 286.951 265.99 284.384 262.765C282.771 260.729 281.88 261.047 281.435 263.211C280.395 268.366 279.526 274.688 278.932 280.861L281.35 285.698V285.677Z" fill="#061922"/>
<path d="M357.636 220.571C356.405 234.89 355.217 256.422 354.793 264.823C354.793 264.823 354.793 264.865 354.793 264.887C354.793 266.605 355.684 266.987 356.872 265.714C360.372 261.959 363.47 258.926 366.143 256.592C365.93 258.862 365.549 265.332 365.4 267.793C365.294 269.723 366.079 269.914 367.437 268.663C376.389 260.41 384.493 254.789 393.106 249.931C389.711 260.135 388.735 267.835 387.908 277.997C387.738 279.97 388.311 280.564 390.178 279.355C396.288 275.366 406.979 269.108 414.892 266.181L417.056 262.044C409.313 264.441 398.6 270.084 391.472 274.9C392.596 265.459 394.103 256.486 397.857 246.367C398.833 243.8 397.964 243.1 395.375 244.436C386.784 248.849 376.516 256.04 368.667 263.677C368.858 260.22 369.282 256.719 369.622 253.664C369.982 250.376 368.519 250.313 366.27 252.073C363.597 254.174 361.688 256.38 357.784 260.686C358.336 251.798 360.372 228.059 361.73 215.564C362.218 211.046 360.839 211.3 358.06 214.037C344.144 227.677 325.348 252.455 316.969 272.333C315.632 275.494 317.584 276.363 319.154 273.33C328.339 255.637 344.101 234.423 357.615 220.571H357.636Z" fill="#061922"/>
<path d="M269.407 261.641C268.792 252.795 268.346 247.322 267.54 238.836C275.622 247.937 280.502 252.435 289.984 259.965C291.427 261.132 292.551 260.538 292.551 258.82C292.551 242.612 294.121 225.047 296.073 214.907C300.316 227.169 304.643 235.506 309.077 243.334L311.198 239.812C306.637 231.496 301.355 219.85 297.367 208.309C295.967 204.258 294.354 203.515 293.06 208.755C290.303 220.02 288.924 237.945 289.263 255.001C280.183 247.576 275.856 242.082 267.222 232.196C264.146 228.675 262.491 228.845 262.894 234.063C263.446 241.021 264.506 247.725 265.312 255.107L269.386 261.641H269.407Z" fill="#061922"/>
<path d="M357.784 240.894C368.328 225.683 380.25 212.403 390.92 202.157C389.266 214.801 388.969 237.924 389.945 249.401L393.254 247.682C392.469 234.827 393.318 212.594 395.375 196.938C396.012 192.059 395.057 191.932 391.748 195.262C382.159 204.851 368.2 219.977 357.975 235.569L357.784 240.894Z" fill="#061922"/>
<path d="M394.124 252.815C404.116 244.605 414.341 237.902 425.096 231.453C421.935 240.596 420.111 251.033 417.926 261.428L422.487 254.661C425.372 242.399 428.151 233.892 430.718 227.252C432.224 223.349 431.291 222.988 427.896 224.961C417.289 231.092 405.007 239.811 395.269 247.596L394.124 252.815Z" fill="#061922"/>
<path d="M440.2 305.702C445.44 306.169 453.756 306.615 460.439 306.975C447.137 314.57 432.097 320.934 420.111 324.88L420.196 327.786C433.73 323.755 451.889 316.415 466.145 307.463C468.903 305.724 468.903 304.239 465.53 304.26C461.839 304.281 453.799 304.069 447.201 303.496L440.2 305.702Z" fill="#061922"/>
<path d="M460.587 317.03L467.8 316.288C478.195 309.732 493.66 300.356 504.606 294.225C507.937 292.358 508.064 290.64 503.142 290.513C495.569 290.3 485.153 290.64 473.4 292.125L465.191 295.943C477.219 294.564 485.874 293.992 496.927 294.225C486.935 299.656 470.94 310.136 460.608 317.03H460.587Z" fill="#061922"/>
<path d="M487.189 340.112C498.242 333.578 510.122 327.044 525.481 321.762C529.999 320.213 529.511 317.837 525.311 316.989C504.267 312.746 473.146 312.024 452.653 316.628C449.535 317.328 449.916 319.449 453.099 319.004C471.046 316.458 497.648 316.776 519.477 320.171C503.036 326.365 491.538 332.729 480.931 339.624L487.189 340.133V340.112Z" fill="#061922"/>
<path d="M473.464 353.879L480.125 355.236C490.562 352.245 499.281 350.378 510.716 347.239C514.258 346.263 513.113 344.417 510.843 343.654C501.742 340.62 489.884 338.35 481.016 338.18C476.964 338.096 476.794 340.026 480.783 340.578C489.056 341.723 494.741 342.996 503.163 345.393C494.105 347.833 482.65 351.057 473.464 353.879Z" fill="#061922"/>
<path d="M489.438 394.738C507.364 389.413 537.636 384.534 554.12 382.561C558.384 382.073 558.405 379.994 554.289 377.618C536.809 367.562 489.756 353.752 470.706 352.246C467.015 351.949 466.782 354.007 470.388 354.622C487.826 357.634 527.602 369.217 547.034 379.018C529.13 381.458 501.063 386.973 484.814 392.807L489.438 394.716V394.738Z" fill="#061922"/>
<path d="M473.91 428.341C480.931 429.529 488.187 431.671 497.181 434.09C500.13 434.874 501.085 434.217 498.9 431.311C495.633 426.877 490.011 421.701 484.453 417.521C500.936 418.709 524.929 422.231 540.67 425.477C544.764 426.304 544.807 424.586 541.985 422.167C528.642 410.669 494.869 393.168 475.649 388.352C471.703 387.355 471.194 389.583 474.991 390.665C491.496 395.374 517.271 409.396 532.715 420.173C515.277 416.949 493.639 414.382 478.831 414.297C476.667 414.297 476.37 415.379 478.11 416.503C483.244 419.855 487.953 424.48 492.154 429.062C482.989 426.707 476.54 425.646 469.073 424.564L473.91 428.362V428.341Z" fill="#061922"/>
<path d="M446.649 481.883C454.881 488.714 464.384 495.163 469.879 498.409C473.209 500.361 474.97 499.724 472.446 495.015C466.018 483.008 455.029 465.273 446.649 453.329C443.849 449.341 442.258 450.847 444.613 454.602C450.532 464.021 459.017 478.531 465.763 491.133C458.211 486.487 452.102 482.392 444.677 476.559L446.649 481.926V481.883Z" fill="#061922"/>
<path d="M463.387 530.889C466.166 533.413 467.736 532.925 466.442 528.767C460.333 509.272 447.477 477.726 441.134 466.377C439.076 462.707 437.252 464.171 439.012 467.501C444.231 477.472 453.799 504.307 460.226 522.679C451.211 514.384 428.893 494.634 423.632 489.543L424.948 494.973C435.427 505.05 451.868 520.43 463.387 530.91V530.889Z" fill="#061922"/>
<path d="M438.058 579.552C440.752 583.498 442.322 582.841 442.046 577.961C440.688 555.814 429.488 501.909 421.341 478.531C419.856 474.267 417.947 475.434 419.05 479.253C425.627 501.909 434.452 545.228 437.146 570.027C422.826 548.198 402.8 517.395 391.536 500.318C390.433 498.664 389.457 499.321 389.287 500.849C388.481 508.125 388.226 512.092 387.017 520.323C381.968 512.495 379.592 508.252 376.219 501.039C375.54 499.576 374.267 499.47 373.907 501.294C369.112 524.842 365.4 576.349 366.546 591.39C352.014 562.305 338.076 509.886 333.049 482.18C332.37 478.383 330.206 478.744 330.673 482.562C334.725 516.271 350.975 574.419 366.885 601.997C369.558 606.621 371.404 605.349 370.958 600.575C369.219 581.886 372.549 531.8 375.859 507.192C378.638 513.428 381.565 519.262 386.338 526.411C387.929 528.809 389.436 528.809 389.923 525.754C391.111 518.329 391.239 513.683 391.642 506.004C401.718 523.505 423.866 558.763 438.058 579.595V579.552Z" fill="#061922"/>
<path d="M334.025 492.342C324.224 506.831 310.519 528.406 301.737 545.334C302.394 526.496 304.325 511.965 308.101 498.048C308.992 494.739 306.977 494.124 305.81 497.327C300.613 511.434 297.961 531.948 297.643 552.696C297.536 557.978 299.021 557.787 301.27 553.608C307.995 541.134 324.054 513.132 334.958 496.776L334.003 492.342H334.025Z" fill="#061922"/>
<path d="M304.834 505.517C289.518 520.897 267.37 546.799 250.038 569.774C253.751 545.739 263.127 504.541 279.335 473.632C280.862 470.726 279.208 469.241 277.256 472.423C257.824 504.011 249.169 548.433 244.756 575.481C243.568 582.715 245.032 583.775 249.508 577.899C264.358 558.446 287.481 528.152 303.964 510.905L304.834 505.517Z" fill="#061922"/>
<path d="M273.162 482.521C254.96 490.879 224.412 507.893 204.407 525.204C215.651 498.856 236.249 465.656 256.848 444.739C259.054 442.49 257.803 440.708 255.193 442.978C230.415 464.765 208.565 502.42 197.725 530.189C196.006 534.623 196.643 537.168 201.098 533.519C221.23 517.079 251.502 496.416 271.252 486.849L273.162 482.5V482.521Z" fill="#061922"/>
<path d="M245.223 455.24C236.249 458.613 227.636 461.943 215.311 471.341C219.681 460.204 223.033 451.824 227.849 445.078C228.761 443.805 228.4 442.957 226.703 443.19C214.42 444.866 193.991 448.918 179.65 454.243C193.694 438.459 209.562 423.27 225.345 414.148C226.873 413.257 226.3 412.048 224.815 411.899C208.692 410.351 178.08 410.648 155.53 415.782C170.528 405.62 196.367 390.728 226.236 385.637C229.885 385.021 229.652 382.858 225.897 383.261C195.03 386.485 158.691 407.042 145.432 417.776C141.783 420.725 142.632 422.867 147.15 421.616C167.961 415.909 199.188 413.894 218.578 414.551C200.949 425.031 184.551 441.514 171.419 457.425C168.492 460.967 169.722 462.516 173.944 460.734C187.987 454.773 208.183 449.554 222.609 447.2C217.305 455.515 213.465 464.171 209.626 474.905C207.547 480.675 208.862 481.29 213.338 477.684C225.006 468.265 233.322 463.768 241.701 459.907L245.244 455.197L245.223 455.24Z" fill="#061922"/>
<path d="M223.882 384.851C213.614 376.832 197.513 365.907 180.308 358.927C199.422 357.145 217.56 355.83 232.834 357.039C236.334 357.315 236.567 355.13 233.088 354.642C217.56 352.478 193.079 353.539 172.777 355.83C168.28 356.339 167.728 358.079 172.374 359.734C187.945 365.334 208.098 376.768 219.724 385.424L223.903 384.851H223.882Z" fill="#061922"/>
<path d="M226.215 355.216C217.305 349.913 209.308 344.164 201.968 338.351C214.208 337.991 224.645 336.569 231.731 335.466L228.061 333.111C220.36 334.193 209.498 334.724 196.6 334.872C193.27 334.915 192.952 335.742 195.9 338.224C202.413 343.761 211.896 350.337 220.784 355.301L226.215 355.216Z" fill="#061922"/>
<path d="M226.979 291.531C215.587 292.592 197.937 292.868 182.854 291.659C178.95 291.34 178.42 291.743 180.966 295.222C189.833 307.378 207.865 322.992 232.282 337.205C235.337 338.987 236.334 337.035 233.598 335.19C210.559 319.513 195.837 307.293 186.884 295.965C202.137 296.75 221.251 295.201 231.285 294.035L226.958 291.531H226.979Z" fill="#061922"/>
<path d="M241.956 299.465C232.303 300.462 225.324 299.995 217.22 299.465C213.572 299.231 213.062 300.504 216.351 302.901C227.424 310.984 244.862 316.627 257.845 320.127L258.185 316.945C249.105 314.293 233.598 309.351 222.397 302.732C229.885 302.965 237.225 302.392 246.708 301.374L241.935 299.465H241.956Z" fill="#061922"/>
<path d="M501.975 330.332C501.169 334.214 500.512 339.242 500.045 342.806L503.376 344.015C504.606 338.181 505.497 333.047 506.388 327.574L501.975 330.311V330.332Z" fill="#061922"/>
<path d="M518.141 351.398C517.334 342.254 516.104 332.369 514.513 324.053L511.161 325.474C512.582 332.369 514.174 342.085 515.786 351.801C516.422 355.598 518.501 355.237 518.162 351.398H518.141Z" fill="#061922"/>
<path d="M537.021 344.906C537.318 331.308 538.315 319.979 540.437 308.312C541.349 303.263 539.44 304.048 537.085 306.89C528.96 316.797 522.108 328.635 515.744 345.203L516.804 350.718C523.593 335.72 528.387 325.898 535.536 315.885C533.585 329.504 533.415 336.929 533.776 349.127L537 344.884L537.021 344.906Z" fill="#061922"/>
<path d="M573.657 359.436C577.052 346.92 585.94 317.666 595.317 301.522C597.863 297.173 596.59 296.707 592.792 298.616C590.31 299.846 588.338 301.268 585.24 303.644C589.844 292.782 596.123 280.584 603.209 269.786C606.221 265.183 605.203 263.358 600.451 266.88C574.103 286.418 549.898 320.36 531.357 350.929C528.832 355.087 530.593 356.275 533.351 352.266C550.768 327.064 571.027 298.022 595.317 276.15C586.131 291.17 583.289 298.786 580.043 308.671C579.152 311.408 580.276 311.641 581.995 310.029C584.837 307.356 586.746 306.401 589.886 304.45C578.876 324.964 572.342 350.76 569.33 364.019L573.657 359.458V359.436Z" fill="#061922"/>
<path d="M675.973 284.001C679.133 278.549 677.33 278.74 673.003 280.946C645.255 295.075 585.431 341.682 561.947 369.599C559.168 372.887 561.226 374.5 564.196 371.381C587.107 347.367 640.079 304.43 669.163 288.244C651.534 318.028 621.644 367.181 606.454 391.047L612.543 388.734C628.284 364.359 659.256 312.916 675.994 284.001H675.973Z" fill="#061922"/>
<path d="M645.425 432.497C640.651 429.315 636.006 426.939 629.514 424.287C635.496 420.957 641.521 418.539 648.607 415.399C652.022 413.893 651.746 412.471 648.076 411.686C637.597 409.438 629.09 409.035 619.692 410.223C631.805 397.346 643.155 387.545 656.562 377.617C661.102 374.244 661.102 372.207 654.695 373.777C633.63 378.974 611.609 386.102 589.95 396.094C586.492 397.685 587.319 399.722 590.862 398.322C610.803 390.345 627.584 385.105 646.994 380.014C633.736 389.963 625.908 398.449 614.176 411.771C613.052 413.044 613.561 414.062 615.258 413.765C624.189 412.196 631.614 412.705 641.691 414.465C635.136 417.478 631.084 419.642 625.59 423.46C624.699 424.075 624.508 425.051 625.674 425.603C631.678 428.382 635.454 430.652 639.951 433.961C637.024 435.149 633.99 436.21 629.875 436.889L634.096 438.904C637.957 438.352 640.991 437.674 644.979 436.231C647.673 435.255 647.228 433.749 645.382 432.519L645.425 432.497Z" fill="#061922"/>
<path d="M618.843 470.217C638.933 470.599 682.57 473.908 705.63 478.491C710.594 479.466 711.782 478.469 706.86 474.927C684.585 458.846 646.57 438.439 616.192 431.587C613.306 430.929 612.84 433.114 615.576 433.92C642.518 441.812 675.994 458.931 699.266 474.163C676.291 469.56 634.393 466.738 615.831 467.268L618.864 470.26L618.843 470.217Z" fill="#061922"/>
<path d="M599.603 496.162C617.231 499.747 639.549 505.729 657.347 512.794C661.929 514.597 663.435 513.854 660.359 509.675C649.392 494.825 626.778 473.251 610.804 461.774C607.77 459.589 606.667 461.329 609.255 463.62C623.765 476.433 641.521 492.916 653.104 506.748C634.988 500.087 613.54 495.674 596.887 492.343L599.603 496.141V496.162Z" fill="#061922"/>
<path d="M608.067 527.048C605.776 526.814 605.479 527.875 606.603 529.296C610.91 534.77 615.216 538.906 617.422 542.789C612.267 539.373 606.243 536.382 599.709 534.791C596.208 533.942 597.99 536.17 601.321 537.527C606.158 539.522 612.416 543.107 619.204 547.137C622.471 549.089 623.129 548.007 621.686 545.08C618.865 539.458 616.043 536 611.928 530.951C617.104 532.266 620.223 533.518 626.226 536.255C629.79 537.867 630.129 536.806 628.178 533.285C619.989 518.435 599.242 492.278 589.229 480.568C586.004 476.792 585.135 478.616 587.32 481.735C596.336 494.569 614.283 517.692 623.574 531.779C619.247 530.081 611.907 527.451 608.067 527.048Z" fill="#061922"/>
<path d="M603.994 537.359C608.258 543.638 612.373 549.642 615.683 556.536C593.429 540.286 558.235 519.178 536.554 508.487C533.542 506.98 532.757 508.105 534.857 511.011C537.955 515.254 540.034 517.969 541.858 521.215C538.061 519.391 528.663 514.639 525.269 513.005L528.536 517.609C532.757 519.857 540.734 523.888 544.488 525.712C547.14 527.006 547.946 526.794 546.483 523.888C544.828 520.6 542.388 517.078 539.715 513.196C560.229 524.015 595.275 545.802 617.146 561.606C621.516 564.767 622.535 563.898 620.116 558.891C616.404 551.212 613.498 546.035 609.382 540.202L603.972 537.38L603.994 537.359Z" fill="#061922"/>
<path d="M517.08 504.541C521.768 510.375 530.36 520.749 535.494 529.234C521.747 520.197 501.445 507.681 486.553 503.735C482.989 502.802 482.416 504.393 485.832 505.729C502.676 512.327 522.193 524.631 536.957 533.52C541.625 536.32 542.049 534.75 539.97 530.868C534.666 521.025 525.163 510.015 518.671 503.035C515.934 500.108 514.81 501.699 517.08 504.52V504.541Z" fill="#061922"/>
<path d="M482.968 543.383C471.703 550.829 454.18 559.951 438.991 566.103L439.373 571.025C454.626 564.915 472.997 554.902 484.559 547.329L482.968 543.383Z" fill="#061922"/>
<path d="M571.663 530.422C572.342 546.099 578.579 568.395 591.711 583.945C595.36 588.272 595.593 591.285 595.338 596.334C594.872 605.583 598.86 674.04 599.072 684.881C599.263 694.194 590.883 707.028 581.443 709.807C572.321 712.48 555.605 711.419 551.15 703.973C547.458 697.842 550.152 689.781 559.02 681.126C568.481 671.877 556.538 628.876 549.346 615.829C547.267 612.053 546.567 612.244 543.555 611.205C512.816 600.534 492.387 571.937 479.51 525.415C478.195 520.684 475.776 521.321 476.816 526.115C487.062 573.719 510.397 604.437 542.452 615.256C544.276 615.872 545.188 616.063 546.61 618.736C552.528 629.958 564.133 670.604 556.071 678.516C545.528 688.869 543.597 698.649 547.904 705.798C553.61 715.302 571.791 716.277 582.525 713.307C595.763 709.616 603.612 696.824 603.357 684.923C602.912 663.815 598.839 620.305 600.005 596.97C600.281 591.433 599.878 586.172 595.72 581.25C581.995 564.979 577.328 551.254 576.055 531.992L571.685 530.464L571.663 530.422Z" fill="#061922"/>
<path d="M561.29 710.061C555.265 708.64 556.114 699.179 559.911 695.127C561.884 693.027 560.526 691.584 558.256 693.387C553.441 697.206 552.316 704.8 554.459 709.276L561.269 710.061H561.29Z" fill="#061922"/>
<path d="M580.107 710.296C571.727 711.632 568.969 702.298 573.573 696.04C574.782 694.407 573.148 692.985 571.748 694.47C565.681 700.813 567.887 709.829 572.342 712.566L580.107 710.296Z" fill="#061922"/>
<path d="M368.667 578.725C372.104 579.298 375.477 579.828 378.744 579.68L376.537 575.183C373.949 575.246 371.34 574.758 368.709 574.334L368.667 578.746V578.725Z" fill="#061922"/>
<path d="M355.048 570.814C337.461 563.219 320.723 547.224 311.347 531.971L309.268 535.492C318.878 553.185 337.992 569.074 357.275 576.032L355.048 570.835V570.814Z" fill="#061922"/>
<path d="M432.309 566.909C430.909 582.48 436.297 610.059 438.864 622.023C440.455 629.469 437.973 678.325 436.912 700.154C436.064 717.486 425.329 727.542 404.349 724.402C385.32 721.538 387.102 710.21 397.688 693.069C401.761 686.45 400.042 659.721 397.879 636.003C396.266 618.29 387.632 591.114 369.834 550.447L369.77 562.667C386.084 599.982 392.087 619.393 393.593 636.088C395.121 652.932 398.6 684.753 394.421 691.117C379.083 714.537 385.978 725.675 403.712 727.839C424.014 730.321 439.882 722.79 440.837 700.876C441.855 677.54 445.228 630.233 443.446 622.554C440.222 608.722 435.703 590.33 436.276 571.576L432.288 566.888L432.309 566.909Z" fill="#061922"/>
<path d="M404.731 724.467C399.427 723.682 396.118 714.241 401.209 707.877C402.949 705.713 401.358 704.441 399.342 706.371C393.784 711.653 394.654 721.412 397.751 724.636L404.731 724.467Z" fill="#061922"/>
<path d="M420.641 723.852C413.577 725.358 410.119 713.52 414.744 708.217C416.505 706.201 415.274 704.738 413.174 706.392C406.767 711.463 408.571 723.724 413.747 726.418L420.641 723.852Z" fill="#061922"/>
<path d="M478.004 549.005C476.689 560.248 478.874 573.444 484.177 584.347C485.874 587.848 486.256 590.118 484.368 593.554C474.058 612.329 455.475 657.981 446.098 681.062C444.804 684.223 442.428 686.514 439.034 688.126L439.564 693.154C443.998 691.372 448.516 687.384 450.065 683.311C462.072 651.808 475.373 619.181 488.526 595.209C491.178 590.372 490.35 586.405 488.441 582.481C483.138 571.577 480.168 560.291 482.331 546.332L478.004 548.984V549.005Z" fill="#061922"/>
<path d="M272.674 712.013C266.861 713.053 262.873 701.767 269.152 694.851C270.595 693.26 269.301 691.733 267.582 693.027C259.373 699.242 262.194 710.528 266.203 713.71L272.652 712.013H272.674Z" fill="#061922"/>
<path d="M329.4 554.988C324.775 576.605 320.363 606.241 320.363 616.297C320.363 622.682 319.026 627.052 316.799 632.356C310.71 646.76 298.979 676.757 293.4 690.864C282.984 717.148 263.912 714.645 252.605 708.578C241.638 702.701 242.274 693.113 255.066 681.487C260.667 676.396 267.816 665.725 270.892 651.512C273.713 638.423 277.235 622.661 278.253 609.933C279.292 596.95 278.168 554.479 276.365 539.82L272.122 544.827C274.371 566.995 275.538 592.325 274.138 609.805C272.483 630.468 270.277 635.304 267.01 650.494C264.061 664.134 257.93 673.659 252.605 678.496C234.955 694.534 240.11 705.692 250.866 711.463C264.04 718.506 287.354 720.033 297.346 692.858C302.585 678.623 313.638 649.03 320.978 634.456C323.693 629.068 324.987 623.531 324.987 616.742C324.987 599.453 328.53 580.339 333.346 558.68L329.442 555.01L329.4 554.988Z" fill="#061922"/>
<path d="M257.23 710.698C252.033 708.449 250.335 698.988 255.278 693.366C257.209 691.16 255.724 689.717 253.539 691.711C247.493 697.184 248.066 705.331 250.717 709.51L257.23 710.719V710.698Z" fill="#061922"/>
<path d="M407.298 407.846C411.943 412.747 414.341 414.847 418.095 417.202C417.714 412.153 417.395 407.549 417.226 403.201C417.183 401.991 417.544 401.419 418.944 401.652C425.966 402.84 435.512 404.876 441.813 406.446C435.809 399.552 427.09 389.56 423.547 385.508C422.381 384.193 422.72 383.387 423.929 382.941C436.212 378.338 445.589 374.477 454.159 370.828C445.207 367.2 434.324 363.382 427.175 361.197C425.626 360.73 425.478 359.903 426.369 358.991C433.263 352.011 440.328 344.289 444.528 339.389C436.424 340.959 429.233 342.677 421.129 345.414L421.065 342.019C430.781 338.986 439.628 336.673 448.898 335.04C452.144 334.467 452.823 335.21 450.489 337.946C444.295 345.201 436.297 353.348 430.336 358.991C440.943 362.173 455.623 366.988 460.651 369.152C463.345 370.298 463.239 371.486 460.566 372.589C450.51 376.725 438.27 381.18 427.43 384.956C433.879 392.212 443.404 402.691 448.219 408.313C450.468 410.944 449.259 412.004 446.713 411.262C440.391 409.437 430.994 407.146 420.28 405.067C420.429 409.925 420.811 415.759 421.235 420.957C421.405 422.93 420.535 423.29 419.093 422.187C413.789 418.156 408.443 413.171 405.261 409.628L407.276 407.825L407.298 407.846Z" fill="#061922"/>
<path d="M314.083 244.223C320.702 232.152 326.939 222.224 334.321 213.357C336.612 210.62 337.928 211.469 337.907 214.332C337.822 221.694 337.822 232.173 338.204 240.256L335.021 244.371C334.618 236.819 334.364 227.4 334.321 219.53C327.066 228.461 321.635 236.947 316.056 247.957L314.062 244.244L314.083 244.223Z" fill="#061922"/>
<path d="M450.871 461.774C474.376 470.089 513.813 481.757 538.739 488.461C543.407 489.712 543.704 488.312 541.031 484.918C523.614 462.962 480.401 428.171 458.402 416.567C454.838 414.7 453.947 416.757 457.235 418.667C475.607 429.401 512.201 459.461 533.245 482.627C509.591 475.902 471.194 465.295 448.135 457.7L450.871 461.774Z" fill="#061922"/>
</g>
<defs>
<clipPath id="clip0_42_71198">
<rect width="620" height="617.306" fill="white" transform="translate(90 111)"/>
</clipPath>
</defs>
</svg>
