<svg width="800" height="800" viewBox="0 0 800 800" fill="none" xmlns="http://www.w3.org/2000/svg">
<g clip-path="url(#clip0_42_71430)">
<path d="M291.094 487.479C291.094 487.479 110.201 293.683 109.461 293.352C108.722 293.002 94.8264 293.099 93.7366 293.995C92.8997 294.676 90 305.088 90 305.516C90 306.041 217.628 572.623 217.628 572.623L277.277 584.339L291.094 487.479Z" fill="#0E141B"/>
<path d="M285.82 491.196L106.912 296.096L95.5077 296.757L93.4253 304.756L212.762 549.522L269.006 574.646L285.82 491.196Z" fill="#61C1BE"/>
<path d="M95.5077 296.757L106.912 296.096L146.341 339.105L161.501 403.347C157.667 397.684 143.246 388.44 134.683 389.432L93.4253 304.756L95.5271 296.757H95.5077Z" fill="#A1D8E6"/>
<path d="M102.708 296.349L106.931 296.115L285.84 491.215L269.025 574.666L262.719 571.844L101.949 304.678C99.7306 301.876 100.431 298.295 102.689 296.329L102.708 296.349Z" fill="#83CCD2"/>
<path d="M102.708 296.349L106.931 296.115L216.343 415.433C199.353 402.121 152.743 374.739 147.469 378.612L146.632 378.962L101.949 304.678C99.7306 301.876 100.431 298.295 102.689 296.329L102.708 296.349Z" fill="#D3EDFB"/>
<path d="M103.136 308.435C100.821 304.679 102.28 303.375 104.596 307.131L256.025 549.639C257.056 551.313 256.531 553.492 254.857 554.524C253.184 555.555 251.004 555.03 249.972 553.356L103.136 308.435Z" fill="#0E141B"/>
<path d="M544.092 543.918C548.276 546.876 644.318 620.265 646.264 622.736C647.646 624.507 676.157 705.953 675.787 708.366C675.476 710.313 655.353 734.97 653.407 735.943C651.811 736.741 584.007 723.177 581.73 722.651C578.305 721.853 456.419 689.703 451.67 686.005C448.751 683.728 442.192 649.282 442.192 649.282L478.663 563.574L544.131 543.957L544.092 543.918Z" fill="#0E141B"/>
<path d="M640.192 625.946C640.192 625.946 667.01 698.498 667.671 700.639C668.333 702.78 669.618 708.716 666.582 707.373C663.954 706.225 608.567 683.533 608.567 683.533L533.641 573.089L554.076 560.459L640.212 625.927L640.192 625.946Z" fill="#A1D8E6"/>
<path d="M607.225 688.652C608.159 688.419 665.726 712.122 665.726 712.122L651.013 730.241C651.013 730.241 587.394 717.202 587.277 716.385C587.238 716.093 606.291 688.905 607.225 688.652Z" fill="#61C1BE"/>
<path d="M603.099 686.218C603.313 685.401 529.593 577.215 529.593 577.215L448.361 649.845C448.361 649.845 454.102 680.633 455.231 681.761C458.481 685.011 579.083 715.429 581.088 715.04C581.749 714.904 602.943 686.821 603.099 686.218Z" fill="#53A8A6"/>
<path d="M488.666 372.658C491.585 374.274 610.299 499.488 610.299 505.969C610.299 510.853 507.368 641.536 505.889 643.405C504.41 645.273 501.51 648.036 496.723 649.34C491.955 650.644 370.866 678.202 366.001 679.175C363.49 679.681 348.758 674.484 347.026 673.005C345.275 671.546 273.345 607.46 273.345 607.46C273.345 607.46 249.719 508.382 250.692 503.516C251.996 497.036 391.087 379.586 392.916 377.504C394.745 375.422 396.867 372.464 400.428 372.308C405.06 372.113 485.474 370.868 488.627 372.639L488.666 372.658Z" fill="#0E141B"/>
<path d="M429.192 478.236C429.309 478.761 429.912 639.745 430.399 640.096C430.885 640.427 495.964 640.894 497.852 640.933C499.74 640.991 501.199 639.59 501.705 638.909C501.958 638.539 530.527 601.192 557.131 566.376C560.42 562.075 563.67 557.833 566.823 553.687C575.697 542.069 583.89 531.346 590.157 523.152C596.813 514.434 601.308 508.556 602.087 507.505C602.145 507.428 602.184 507.369 602.204 507.35C603.04 506.182 602.359 504.645 601.717 503.749C601.717 503.749 601.717 503.73 601.678 503.71C601.561 503.555 601.445 503.419 601.347 503.302C601.25 503.185 600.978 502.913 600.608 502.484C590.546 491.528 488.374 379.06 487.498 378.107C486.584 377.134 484.443 376.842 483.489 376.822C482.536 376.803 431.469 375.499 430.593 376.063C429.873 376.511 399.494 432.988 399.572 433.844C399.669 434.856 429.056 477.71 429.173 478.236H429.192Z" fill="#D3EDFB"/>
<path d="M417.009 400.701C408.66 416.192 399.553 433.357 399.591 433.844C399.669 434.778 425.203 472.066 428.764 477.554L583.988 500.129C523.482 437.561 469.399 409.77 417.009 400.701Z" fill="#83CCD2"/>
<path d="M601.737 503.73C601.737 503.73 601.737 503.71 601.698 503.691C601.581 503.535 601.464 503.399 601.367 503.282C601.269 503.166 600.997 502.893 600.627 502.465C590.566 491.508 488.394 379.041 487.518 378.087C486.603 377.114 484.462 376.822 483.509 376.803C482.555 376.783 431.489 375.48 430.613 376.044C430.301 376.258 423.899 387.896 417.009 400.682C469.399 409.751 523.482 437.542 583.988 500.11L602.534 505.442C602.398 504.781 602.067 504.158 601.737 503.71V503.73Z" fill="#D3EDFB"/>
<path d="M513.245 489.835L428.764 477.555C429.017 477.963 429.172 478.197 429.192 478.236C429.309 478.761 429.912 639.746 430.398 640.096C430.885 640.427 495.964 640.894 497.852 640.933C499.739 640.991 501.199 639.59 501.705 638.909C501.958 638.539 530.527 601.193 557.131 566.376C559.797 562.893 562.424 559.448 565.032 556.042C553.005 527.454 536.035 505.676 513.245 489.854V489.835Z" fill="#61C1BE"/>
<path d="M602.534 505.461L583.988 500.129L513.246 489.834C536.035 505.656 553.005 527.433 565.032 556.022C565.636 555.244 566.239 554.446 566.823 553.667C575.697 542.049 583.89 531.326 590.157 523.132C596.813 514.414 601.308 508.536 602.087 507.485C602.145 507.408 602.184 507.349 602.204 507.33C602.612 506.765 602.651 506.104 602.515 505.461H602.534Z" fill="#BBE2F1"/>
<path d="M420.24 377.328C421.447 377.328 422.595 377.854 421.855 379.274C421.096 380.675 395.271 427.11 394.279 428.979C391.846 433.552 391.457 435.245 394.979 438.943C396.361 440.402 420.337 476.309 420.785 477.282C421.233 478.235 422.595 481.116 422.536 483.003C422.478 484.891 423.743 636.359 423.821 637.312C424.054 640.543 423.12 641.127 421.096 642.217C419.403 643.112 351.347 668.898 350.004 668.898C349.089 668.898 282.064 607.206 281.013 606.116C279.963 605.026 278.581 603.566 277.958 600.355C277.335 597.144 259.314 509.588 258.983 508.167C258.652 506.727 258.03 503.516 260.949 500.752C263.849 497.989 394.395 383.303 395.505 381.921C396.614 380.52 400.506 380.617 401.946 380.306C403.367 379.994 416.484 377.367 420.259 377.348L420.24 377.328Z" fill="#EC6D82"/>
<path d="M320.286 496.528V495.458L421.68 479.402C422.127 480.57 422.556 481.952 422.517 483.022C422.497 483.917 422.77 518.383 423.062 554.504C407.901 517.683 361.35 488.141 320.267 496.528H320.286Z" fill="#F7C8CE"/>
<path d="M258.886 504.236C258.886 504.236 258.905 504.159 258.905 504.12C258.983 503.828 259.1 503.536 259.217 503.244C259.256 503.166 259.275 503.069 259.314 502.991C259.45 502.719 259.625 502.427 259.8 502.154C259.859 502.057 259.898 501.96 259.976 501.862C260.248 501.492 260.559 501.123 260.949 500.753C263.206 498.612 341.811 429.505 377.814 397.686C386.202 398.795 399.163 404.458 401.771 415.473C397.743 422.732 394.629 428.357 394.278 428.999C391.846 433.572 392.021 434.818 394.979 438.963C396.049 440.462 401.713 448.596 407.804 457.665C414.168 467.163 420.551 476.796 420.785 477.282C420.979 477.691 421.349 478.489 421.699 479.384L320.325 495.44L258.75 505.21C258.769 504.898 258.827 504.567 258.905 504.217L258.886 504.236Z" fill="#F4B2BA"/>
<path d="M377.794 397.665C379.079 396.536 380.305 395.446 381.473 394.415C381.55 394.337 381.628 394.278 381.726 394.201C386.338 390.114 390.016 386.864 392.39 384.723C392.468 384.645 392.566 384.548 392.663 384.47C393.169 384.022 393.617 383.614 393.986 383.283C394.045 383.224 394.103 383.166 394.161 383.108C394.512 382.777 394.823 382.504 395.037 382.31C395.057 382.29 395.076 382.271 395.096 382.251C395.29 382.057 395.446 381.94 395.465 381.901C396.575 380.5 400.467 380.597 401.907 380.286C403.328 379.974 416.523 378.145 420.22 377.328C423.139 376.685 423.159 376.763 421.835 379.274C421.329 380.208 409.75 401.051 401.751 415.472C399.144 404.457 386.163 398.793 377.794 397.684V397.665Z" fill="#F19CA7"/>
<path d="M443.379 481.875C457.567 485.806 583.482 503.477 589.086 504.255C595.956 505.209 596.443 500.83 589.573 499.876C588.211 499.682 458.948 479.695 444.352 477.009C434.894 475.277 434.135 479.306 443.379 481.875Z" fill="#0E141B"/>
<path d="M406.889 478.956L266.028 502.31C259.547 503.341 262.622 505.599 266.398 505.112L407.882 483.627C416.134 481.876 413.934 478.236 406.889 478.956Z" fill="#0E141B"/>
<path d="M485.63 647.179C485.63 647.179 429.776 645.797 428.336 645.758C426.915 645.719 358.917 672.381 358.917 672.381L364.561 674.249L485.63 647.179Z" fill="#CC5E71"/>
<path d="M391.087 585.019C393.364 587.899 385.696 643.714 383.789 645.583C381.142 648.171 272.255 687.386 270.348 687.911C268.344 688.456 145.601 704.356 144.336 704.123C143.304 703.928 115.786 685.148 115.786 683.046C115.786 680.613 156.791 598.856 159.01 595.723C161.228 592.589 223.913 521.264 225.256 521.049C226.599 520.816 389.491 583.014 391.087 585.019Z" fill="#0E141B"/>
<path d="M384.198 587.705L226.833 527.783L168.215 595.956L273.579 634.081L384.198 587.705Z" fill="#A1D8E6"/>
<path d="M226.833 527.783L199.957 559.038C262.778 557.617 320.539 577.118 341.09 605.784L384.197 587.705L226.833 527.783Z" fill="#D3EDFB"/>
<path d="M384.509 593.543L378.184 641.651L273.579 681.119L276.012 638.791L384.509 593.543Z" fill="#61C1BE"/>
<path d="M384.509 593.543L329.881 616.332C352.3 621.684 367.928 633.497 362.556 647.568L378.184 641.671L384.509 593.562V593.543Z" fill="#83CCD2"/>
<path d="M270.426 639.025L268.071 682.404L145.718 697.74L122.637 682.229L164.595 601.328L270.426 639.025Z" fill="#61C1BE"/>
<path d="M427.11 374.234L426.234 465.1C426.098 471.094 429.017 471.094 429.153 465.1L432.89 373.962C432.909 372.736 427.149 373.028 427.11 374.234Z" fill="#0E141B"/>
<path d="M498.844 381.592L507.115 331.498L523.696 306.257L655.061 311.375L554.854 232.479L447.953 186.316L326.436 195.385L282.259 265.621L311.062 359.503L456.633 389.493L607.731 383.577L498.844 381.592Z" fill="#EC6D82"/>
<path d="M387.973 231.174L361.077 272.763L363.413 273.619L445.053 305.75L447.661 307.832L459.921 270.447L389.024 233.645L387.973 231.174Z" fill="#EFEFEF"/>
<path d="M387.973 231.174L389.024 233.645L459.921 270.447L439.526 235.183L387.973 231.174Z" fill="white"/>
<path d="M363.413 273.62L361.077 272.764L394.084 318.42L447.661 307.833L445.053 305.751L363.413 273.62Z" fill="#DCDDDD"/>
<path d="M498.844 381.591L646.361 383.362L707.022 367.793L707.665 353.508L654.146 310.382L523.696 306.256L507.115 331.497L498.844 381.591Z" fill="#61C1BE"/>
<path d="M522.957 305.594L507.115 331.497L595.275 366.06L596.404 346.871L522.957 305.594Z" fill="#83CCD2"/>
<path d="M654.146 310.382L523.696 306.256L596.404 346.872L707.665 353.508L654.146 310.382Z" fill="#A1D8E6"/>
<path d="M326.436 195.385L388.635 230.63L439.701 235.164L460.233 271.518L523.696 306.257L655.061 311.375L554.854 232.479L447.953 186.316L326.436 195.385Z" fill="#F4B2BA"/>
<path d="M554.854 232.479L447.953 186.316L326.436 195.385L447.525 201.885L549.21 248.593L642.722 310.499L653.504 310.616L554.854 232.479Z" fill="#F7C8CE"/>
<path d="M653.504 310.615L642.722 310.498L707.665 353.508L653.504 310.615Z" fill="#D3EDFB"/>
<path d="M460.233 271.518L447.661 307.832L507.116 331.497L523.697 306.256L460.233 271.518Z" fill="#F19CA7"/>
<path d="M388.634 230.628L325.833 195.15L281.519 266.71L361.719 271.945L388.634 230.628Z" fill="#F19CA7"/>
<path d="M501.374 381.086L596.851 366.295L707.022 367.793L646.361 383.363L501.374 381.086Z" fill="#53A8A6"/>
<path d="M500.343 381.416L462.685 388.811L587.452 384.783L500.343 381.416Z" fill="#CC5E71"/>
<path d="M445.267 184.038L327.662 192.698C324.879 192.873 324.217 193.224 323.166 194.956L279.923 264.297C279.086 265.639 279.067 266.476 279.748 268.617L308.142 360.124C308.59 361.526 309.407 362.946 311.023 363.258L455.017 391.807C455.951 391.983 457.45 391.963 458.365 391.963L646.945 385.735C647.159 385.716 707.431 370.77 707.431 370.77C708.754 370.458 709.416 369.836 709.455 368.415L710.019 354.578C710.078 352.729 709.533 351.522 708.56 350.763L556.041 230.239C556.041 230.239 555.885 230.122 555.788 230.084L451.125 184.855C449.51 184.174 447.525 183.902 445.267 184.038ZM447.525 189.546C448.011 189.74 553.083 234.482 553.355 234.599C553.589 234.774 704.298 353.449 705.154 354.13C705.135 355.103 704.804 365.457 704.765 366.916C703.169 367.286 646.147 380.714 646.147 380.714C646.147 380.695 460.116 386.689 457.372 386.767C457.119 386.709 315.032 357.828 313.767 357.575C313.377 356.349 285.022 268.092 284.73 267.157C285.256 266.321 326.942 197.797 327.526 196.844C328.655 196.766 446.999 189.604 447.525 189.565V189.546Z" fill="#0E141B"/>
<path d="M363.666 269.533L282.376 264.707L282.317 269.728L361.389 274.554L363.666 269.533Z" fill="#0E141B"/>
<path d="M460.272 273.406L595.626 349.013C595.781 349.091 595.956 349.15 596.112 349.15L707.82 356.117L707.217 351.991C696.98 351.524 597.397 344.46 596.891 344.44C596.657 344.304 530.78 307.172 460.797 267.918L460.252 273.406H460.272Z" fill="#0E141B"/>
<path d="M397.489 232.907C358.722 211.149 334.882 197.448 328.771 193.984L324.081 197.701L385.793 232.362L397.489 232.907Z" fill="#0E141B"/>
<path d="M386.28 229.131L358.917 271.537C358.1 272.296 357.827 273.016 358.392 274.106L390.892 319.957C391.554 321.242 392.546 321.397 393.986 321.066L447.447 310.207C448.653 309.935 449.412 309.059 449.529 307.833L462.724 271.615C462.724 271.615 444.041 237.169 443.068 235.612C441.842 233.685 441.433 233.51 439.701 233.257C435.536 232.634 389.393 228.625 389.393 228.625C388.051 228.275 387.155 228.353 386.299 229.131H386.28ZM389.024 233.646C389.997 233.899 431.294 237.227 438.164 238.706C443.399 247.035 453.246 264.57 457.138 271.615C452.098 288.118 445.17 304.719 445.053 305.75C443.554 306.081 396.224 314.78 394.629 315.131C393.889 313.671 364.152 275.021 363.413 273.6C364.58 272.51 388.167 234.424 389.024 233.646Z" fill="#0E141B"/>
<path d="M501.374 381.085C501.374 381.085 509.976 332.276 510.054 332.023C510.19 331.789 524.008 309.526 524.65 308.436C525.973 308.494 657.454 313.496 657.454 313.496L652.414 309.097L521.322 303.24C520.174 303.201 519.396 303.512 518.773 304.582L504.936 329.843C504.936 329.843 504.858 329.999 504.838 330.096L496.159 382.194L501.394 381.104L501.374 381.085Z" fill="#0E141B"/>
<path d="M464.106 389.24L595.451 369C597.105 368.727 597.669 367.19 597.728 366.003L598.214 346.872L593.68 345.568C593.68 345.568 592.94 363.239 592.862 364.874C591.111 365.166 448.848 387.741 448.848 387.741L464.106 389.24Z" fill="#0E141B"/>
<path d="M646.167 380.696C644.999 380.696 554.309 380.151 511.514 379.801L487.304 383.479L626.044 383.966L646.147 380.696H646.167Z" fill="#0E141B"/>
<path d="M707.82 366.081C707.82 366.081 596.073 364.388 595.684 364.388C595.314 364.232 448.07 304.934 448.07 304.934L443.905 309.254L595.45 369.02C595.567 369.078 595.703 369.098 595.84 369.098L705.154 369.915L707.84 366.101L707.82 366.081Z" fill="#0E141B"/>
<path d="M414.791 263.11C409.925 263.519 406.052 266.691 405.838 273.211C405.683 278.174 409.653 282.825 414.46 282.825C420.104 282.825 424.171 279.38 424.405 272.88C424.599 267.392 419.131 262.741 414.791 263.11Z" fill="#0E141B"/>
</g>
<defs>
<clipPath id="clip0_42_71430">
<rect width="620" height="551.963" fill="white" transform="translate(90 184)"/>
</clipPath>
</defs>
</svg>
