<svg width="800" height="800" viewBox="0 0 800 800" fill="none" xmlns="http://www.w3.org/2000/svg">
<g clip-path="url(#clip0_42_71487)">
<path d="M536.72 638.358C535.781 637.393 524.764 623.761 520.423 616.577C510.725 600.558 502.627 581.138 501.155 565.882C486.482 546.335 464.701 531.23 440.026 529.301C416.544 527.473 404.918 536.434 389.585 555.118C374.353 573.65 357.37 563.901 351.202 553.544C341.403 537.094 332.315 525.29 304.188 523.183C274.613 535.139 267.632 552.046 273.699 573.243C272.684 574.259 271.465 575.122 270.171 575.833C270.272 575.909 270.374 575.985 270.45 576.087C270.704 576.29 263.748 584.185 261.997 586.165C225.416 555.727 234.961 511.15 246.461 496.122C256.412 483.099 266.871 474.062 239.479 477.819C198.507 483.429 176.599 522.929 179.188 558.469C181.169 585.581 196.755 611.093 218.917 624.599C207.519 632.341 196.552 636.606 189.673 638.891C179.417 642.318 180.889 647.522 189.825 650.314C198.659 653.081 216.15 652.726 227.32 649.959C218.968 656.838 210.007 662.372 205.361 664.581C196.07 669.049 196.146 671.537 202.188 674.888C215.033 682.021 247.552 676.969 263.317 666.713C255.599 675.065 247.121 681.996 241.053 684.56C233.488 687.758 229.96 694.714 241.358 697.557C253.797 700.654 277.786 697.354 292.282 688.012C288.423 692.556 284.641 696.186 281.34 699.156C277.253 702.837 275.146 710.25 286.722 711.214C317.363 713.728 349.501 682.681 360.315 663.286C364.732 675.192 375.039 690.83 381.081 696.135C377.603 697.328 373.922 698.522 370.013 699.639C363.108 701.644 361.356 708.244 374.937 715.022C386.716 720.912 401.795 723.603 417.509 722.765C428.45 728.045 451.501 728.172 452.998 725.481C454.369 723.019 452.44 718.246 451.069 715.53C453.506 714.565 455.918 713.525 458.278 712.357C471.53 718.602 484.756 721.115 499.632 719.769C504.861 719.287 511.538 716.444 504.227 707.711C501.104 704.005 495.012 697.76 491.356 693.241C511.03 704.106 527.734 705.883 546.748 703.269C562.893 701.035 560.05 695.298 555.633 691.693C554.059 690.398 551.901 688.774 549.362 686.844C575.713 690.855 595.107 687.631 594.193 680.117C593.28 672.501 558.806 661.103 536.669 638.332L536.72 638.358Z" fill="#00A1B7"/>
<path d="M304.162 523.131C304.162 523.131 303.985 523.131 303.883 523.106C283.016 521.608 264.662 538.287 261.286 548.441C256.31 563.317 262.555 569.384 270.146 575.781C271.44 575.045 272.659 574.207 273.674 573.192C269.257 557.783 279.843 532.956 304.162 523.131Z" fill="#0E141B"/>
<path d="M501.129 565.855C502.627 581.138 510.725 600.558 520.397 616.551C519.94 599.771 512.807 581.417 501.129 565.855Z" fill="#0E141B"/>
<path d="M577.616 246.733C525.652 200.632 445.433 205.1 386.183 242.95C329.878 278.922 283.041 371.376 267.708 488.353C263.799 518.283 235.545 523.893 242.323 556.057C245.8 572.558 270.298 576.213 270.45 576.035C262.707 569.511 256.259 563.52 261.286 548.441C264.662 538.312 283.041 521.609 303.883 523.106C332.239 525.163 341.327 537.018 351.151 553.518C357.32 563.876 374.303 573.649 389.534 555.092C400.171 542.146 416.621 527.473 439.975 529.275C464.65 531.204 486.431 546.309 501.104 565.856C512.782 581.417 519.915 599.771 520.372 616.551C524.713 623.735 529.384 630.259 533.902 635.362C534.791 636.377 535.73 637.367 536.669 638.332C546.595 629.625 551.545 612.87 550.632 596.902C550.505 594.745 550.124 592.511 549.54 590.226C566.294 582.407 599.22 528.945 612.268 444.741C627.829 344.239 618.665 283.186 577.54 246.707L577.616 246.733Z" fill="#E4C584"/>
<path d="M431.7 529.631C429.161 529.631 426.699 529.885 424.287 530.291C415.681 532.22 408.218 536.485 401.11 542.857C394.611 550.016 390.676 559.535 390.676 570.248C390.676 593.171 407.862 611.83 431.039 611.83C452.947 611.83 471.2 595.583 471.2 569.842C471.2 547.401 454.648 529.682 431.674 529.682L431.7 529.631Z" fill="white"/>
<path d="M309.493 524.299C287.661 524.299 272.887 543.973 272.887 562.682C272.887 565.855 273.242 568.952 273.851 571.948C277.202 588.169 289.489 600.76 309.391 601.751C330.791 602.817 347.165 585.25 347.165 563.9C347.165 539.251 327.872 524.299 309.493 524.299Z" fill="white"/>
<path d="M501.13 565.855C502.628 581.138 510.726 600.558 520.398 616.551C519.941 599.771 512.807 581.417 501.13 565.855Z" fill="#0E141B"/>
<path d="M277.203 582.636C280.909 596.547 295.277 602.563 309.366 603.249C330.589 604.315 346.886 587.408 347.826 566.49C331.147 585.606 303.528 591.571 277.203 582.636Z" fill="#DCDDDD"/>
<path d="M400.247 594.44C405.933 605.966 418.119 611.804 431.065 611.804C452.973 611.804 471.733 595.557 471.225 569.816C458.964 589.033 421.495 600.279 400.247 594.44Z" fill="#DCDDDD"/>
<path d="M620.087 337.487C613.639 285.599 543.168 290.422 507.806 391.406C460.589 526.229 341.454 442.609 257.529 512.546C248.568 525.214 237.88 534.886 242.323 556.032C245.801 572.533 270.298 576.188 270.45 576.011C262.707 569.486 256.259 563.495 261.286 548.416C264.662 538.288 283.041 521.584 303.883 523.082C332.239 525.138 341.327 536.993 351.151 553.494C357.32 563.851 374.303 573.624 389.534 555.067C400.171 542.121 416.621 527.448 439.976 529.25C464.65 531.18 486.431 546.284 501.104 565.831C512.782 581.392 519.915 599.746 520.372 616.526C524.713 623.71 529.384 630.234 533.903 635.337C534.791 636.352 535.73 637.342 536.67 638.307C546.595 629.6 551.546 612.845 550.632 596.878C550.505 594.72 550.124 592.486 549.54 590.201C566.295 582.382 599.22 528.92 612.268 444.716C619.528 397.778 624.275 368.66 620.036 337.436L620.087 337.487Z" fill="#BFA66F"/>
<path d="M345.719 547.375C347.8 558.189 348.207 567.354 346.125 571.948C352.649 589.541 383.594 592.866 391.514 575.705C390.271 566.973 391.108 561.54 393.19 551.564C391.108 553.239 382.35 566.135 370.698 565.729C363.59 565.475 351.557 558.646 345.719 547.4V547.375Z" fill="#008DA0"/>
<path d="M470.566 575.808C480.796 593.451 505.344 608.454 516.158 614.166C517.402 615.003 501.409 567.38 501.409 564.461C488.488 548.95 463.788 530.114 453.532 532.398C468.509 547.808 470.134 563.724 470.566 575.808Z" fill="#008DA0"/>
<path d="M507.806 650.518C514.279 652.878 565.99 685.728 593.432 681.437C590.513 692.48 555.557 688.444 551.393 687.606C527.201 672.832 507.806 650.492 507.806 650.492V650.518Z" fill="#008DA0"/>
<path d="M504.227 666.891C501.891 670.698 490.899 689.738 489.833 691.007C492.575 695.246 498.718 698.191 502.957 700.324C515.422 706.568 549.261 703.218 559.872 699.689C532.786 698.42 500.216 685.93 504.227 666.891Z" fill="#008DA0"/>
<path d="M504.633 657.371C457.035 701.796 424.033 712.153 369.251 713.651C389.585 721.597 410.731 725.43 421.292 723.805C431.877 726.775 454.293 728.679 454.293 726.141C454.293 723.602 452.821 717.687 452.821 716.418C454.725 714.717 458.532 714.311 460.639 712.61C470.997 720.658 502.373 722.282 506.968 717.687C486.863 709.006 482.192 699.308 482.192 697.404C490.442 689.154 502.932 671.866 504.633 657.397V657.371Z" fill="#008DA0"/>
<path d="M359.452 659.631C359.452 659.631 362.448 675.573 380.116 696.567C386.234 695.12 391.438 693.165 396.008 689.967C379.482 689.028 358.234 645.796 359.427 659.631H359.452Z" fill="#008DA0"/>
<path d="M306.599 661.383C283.168 680.625 253.493 694.029 235.189 695.247C249.837 704.335 282.762 694.841 286.545 693.064C298.882 684.941 306.32 664.074 306.599 661.357V661.383Z" fill="#008DA0"/>
<path d="M358.894 656.483C358.234 639.145 310.382 709.463 280.427 708.93C303.045 718.957 344.957 692.912 359.148 665.977C359.96 661.509 358.868 656.483 358.868 656.483H358.894Z" fill="#008DA0"/>
<path d="M279.411 642.166C255.93 661.434 205.996 674.355 200.284 675.269C221.938 682.478 249.964 675.675 258.95 670.75C266.16 663.541 277.914 648.487 279.411 642.166Z" fill="#008DA0"/>
<path d="M180.128 542.273C173.782 572.457 190.968 608.632 218.536 625.386C202.594 634.093 178.935 642.496 181.651 645.796C186.17 652.726 216.252 655.722 225.594 650.01C233.489 645.187 240.774 636.962 241.51 633.763C247.882 630.159 184.418 579.438 180.153 542.273H180.128Z" fill="#008DA0"/>
<path d="M428.273 665.952C428.273 665.952 424.922 671.105 419.616 673.44C416.671 671.689 405.095 653.766 409.03 656.381C410.807 657.549 418.169 662.448 428.273 665.926V665.952Z" fill="#008DA0"/>
<path d="M578.251 242.112C527.581 199.87 449.216 199.21 384.33 240.64C318.2 282.881 279.081 368.609 263.773 485.662C261.616 502.087 257.503 505.235 248.669 517.115C241.028 527.422 234.504 536.535 238.515 555.625C242.805 575.984 268.978 579.437 270.044 579.513C272.988 579.716 275.222 577.254 272.582 575.02C264.459 568.216 258.595 563.292 263.317 549.126C266.388 539.911 284.057 523.842 303.705 525.264C331.02 527.244 339.474 538.16 349.298 554.61C352.623 560.169 359.528 568.039 368.921 568.724C374.43 569.13 383.01 566.439 391.21 556.463C407.228 536.992 420.86 529.96 439.823 531.433C480.389 534.58 513.442 575.426 517.782 610.61C518.113 613.301 524.484 621.958 524.484 620.765C524.662 581.366 493.26 530.595 439.442 526.406C419.134 524.832 404.664 533.235 387.859 553.696C382.223 560.55 376.054 563.799 369.53 563.292C361.788 562.708 355.771 557.047 352.979 552.376C342.799 535.291 333.381 522.598 304.061 520.491C281.493 518.867 261.971 534.301 257.782 546.842C254.889 555.574 256.335 565.272 264.027 573.141C256.869 571.187 246.689 566.541 244.404 555.6C241.916 543.745 243.236 535.19 255.295 519.171C261.565 510.845 268.038 502.264 269.815 488.632C284.691 375.006 329.725 281.561 387.3 244.778C450.561 204.389 528.216 205.861 576.144 248.357C615.822 283.567 626.002 342.208 610.161 444.436C596.808 530.722 563.197 581.239 548.753 588.246C549.159 589.743 549.337 591.14 549.413 592.663C568.605 585.58 604.322 527.904 617.142 445.121C634.277 334.491 621.381 278.058 578.226 242.112H578.251Z" fill="#0E141B"/>
<path d="M239.175 475.636C196.908 481.424 172.563 523.311 175.203 559.536C177.31 588.247 195.309 615.207 219.374 627.417C235.189 635.464 239.277 632.799 224.781 625.437C200.843 613.303 183.428 586.902 181.346 558.267C178.859 524.021 200.03 485.359 239.784 479.901C258.798 477.286 253.873 482.414 248.238 490.309C240.216 501.58 230.366 518.386 235.063 544.888C237.576 559.028 243.871 576.976 268.267 592.512C277.939 598.681 282.051 597.183 272.379 591.04C254.127 579.413 242.704 563.192 239.327 544.152C236.306 527.068 239.302 508.765 251.614 493.026C263.342 478.048 263.672 472.285 239.2 475.636H239.175Z" fill="#0E141B"/>
<path d="M271.999 570.324C271.999 570.324 262.479 580.148 259.737 583.347C259.255 583.905 263.114 588.069 263.647 587.459C266.49 584.108 273.496 575.528 273.496 575.528C274.258 574.614 272.76 569.41 271.999 570.324Z" fill="#0E141B"/>
<path d="M213.916 622.999C204.727 630.462 195.359 633.102 184.24 639.195C174.086 644.754 176.777 650.314 190.104 653.309C197.695 655.035 209.499 655.67 220.72 653.944C224.147 653.411 231.001 646.607 229.884 646.988C219.476 650.466 199.548 651.101 190.434 648.257C181.575 645.49 183.276 643.485 190.308 640.946C201.274 636.961 211.479 632.29 220.415 626.197C220.948 625.842 214.779 622.313 213.916 623.024V622.999Z" fill="#0E141B"/>
<path d="M238.997 635.21C230.112 647.015 211.809 657.854 203.026 662.932C190.409 670.243 191.957 673.847 198.71 676.97C213.155 683.621 235.824 681.895 255.447 674.507C260.118 672.756 266.566 661.561 265.652 662.348C252.401 674.051 216.226 680.245 203.229 673.035C199.395 670.903 199.04 670.04 206.3 666.562C212.139 663.769 228.691 653.564 239.276 641.709C246.613 633.484 244.531 627.899 238.997 635.261V635.21Z" fill="#0E141B"/>
<path d="M279.589 637.064C268.546 664.15 252.299 674.711 240.038 681.895C222.319 692.227 224.35 696.517 240.495 700.553C252.325 703.523 271.161 702.559 285.986 695.324C289.337 693.674 295.379 683.113 294.465 683.875C281.594 694.385 255.193 698.827 241.942 695.502C233.717 693.445 231.102 692.811 241.942 686.566C256.133 678.417 275.146 661.815 282.153 641.506C285.072 633.053 283.016 628.788 279.64 637.064H279.589Z" fill="#0E141B"/>
<path d="M498.794 564.129C500.241 587.256 517.325 619.851 532.328 636.834C544.869 650.999 562.436 661.128 575.281 668.49C587.365 675.445 594.498 679.228 591.249 682.3C586.882 686.437 569.721 688.367 545.427 684.051C544.26 683.848 550.631 689.865 553.094 690.195C573.174 692.885 589.218 691.819 594.777 686.59C601.987 679.786 596.351 675.623 577.439 664.758C564.847 657.523 547.636 647.623 535.578 633.965C522.276 618.937 507.374 590.911 503.82 569.79C503.465 567.734 498.743 562.936 498.819 564.129H498.794Z" fill="#0E141B"/>
<path d="M310.635 649.807C299.517 677.503 293.449 685.296 279.919 697.557C272.709 704.081 270.602 713.753 287.509 714.261C321.247 715.276 350.389 686.743 361.813 667.475C362.219 666.79 359.351 660.596 358.792 661.662C349.45 678.899 317.82 711.621 286.925 709.082C278.472 708.397 278.878 704.31 282.813 700.781C293.906 690.754 307.234 674.202 312.641 655.392C314.951 647.344 313.758 642.064 310.635 649.832V649.807Z" fill="#0E141B"/>
<path d="M439.722 629.168C428.425 664.759 418.601 683.316 369.454 697.557C355.467 701.619 359.3 710.681 373.287 717.663C398.775 730.406 437.818 728.731 466.097 712.585C492.752 697.354 507.755 672.806 509.938 641.302C510.548 632.341 506.41 629.447 505.775 638.408C503.11 676.893 481.126 697.202 463.203 707.432C436.091 722.917 400.222 725.227 375.953 713.093C366.357 708.295 362.905 703.954 370.673 701.695C421.571 686.946 434.873 666.434 441.829 636.378C443.783 627.975 441.752 622.771 439.722 629.143V629.168Z" fill="#0E141B"/>
<path d="M358.894 664.759C362.042 676.334 370.368 688.85 377.705 697.125C378.111 697.582 383.645 695.424 382.731 694.663C376.156 689.027 364.301 670.318 361.204 658.92C358.665 649.603 356.355 655.442 358.894 664.759Z" fill="#0E141B"/>
<path d="M405.908 656.585C409.615 665.521 415.529 673.086 417.433 675.295C418.398 676.412 422.383 673.772 421.393 673.137C420.962 672.858 418.246 670.497 408.066 651.153C404.715 644.781 403.116 649.884 405.883 656.56L405.908 656.585Z" fill="#0E141B"/>
<path d="M449.876 717.358C451.679 720.506 451.78 722.918 451.171 724.212C448.328 725.812 429.847 725.761 423.221 722.309C422.155 721.75 417.738 724.619 418.728 725.279C425.709 729.924 452.491 732.107 455.207 727.183C457.593 722.918 454.496 716.774 453.608 715.201C453.024 714.16 449.673 717.003 449.851 717.333L449.876 717.358Z" fill="#0E141B"/>
<path d="M486.533 689.738C487.625 693.393 502.602 709.107 502.602 709.107C507.552 715.022 507.096 716.926 499.454 717.636C485.695 718.88 473.307 716.824 460.716 711.138C459.853 710.757 453.76 714.032 454.826 714.539C469.093 721.52 485.848 723.907 501.409 722.155C512.96 720.86 514.305 716.367 505.928 706.34L500.495 700.247C496.611 696.033 491.331 690.245 490.595 688.265C490.189 687.148 486.203 688.595 486.533 689.738Z" fill="#0E141B"/>
<path d="M506.257 651.838C519.839 668.237 535.883 679.863 546.519 687.555L554.313 693.369C558.501 696.77 558.501 699.487 546.494 701.137C525.449 704.031 509.481 701.035 491.381 690.754C490.341 690.17 493.818 699.182 495.646 699.944C513.822 707.407 528.343 709.057 548.017 706.061C562.538 703.853 568.148 699.08 557.054 690.043L549.058 684.077C538.599 676.513 522.809 665.089 509.608 649.096C508.847 648.182 505.521 650.924 506.283 651.838H506.257Z" fill="#0E141B"/>
<path d="M270.679 463.4C267.759 466.319 270.45 473.529 271.085 472.386C281.518 453.855 315.18 452.992 387.072 458.018C488.513 465.126 499.277 478.276 518.824 502.215L522.657 506.885C523.418 507.799 523.241 499.397 523.241 499.397C504.633 474.443 490.671 460.963 387.351 453.728C319.038 448.955 284.945 449.133 270.653 463.425L270.679 463.4Z" fill="#0E141B"/>
<path d="M288.017 392.319C286.139 394.02 287.357 401.737 288.068 400.772C301.7 382.418 335.895 377.189 395.652 384.297C465.844 392.649 520.677 401.813 535.045 437.023C535.502 438.115 537.051 430.854 536.391 429.56C519.001 395.441 467.494 388.511 396.185 380.032C340.845 373.457 305.026 377.087 288.043 392.319H288.017Z" fill="#0E141B"/>
<path d="M318.074 320.809C313.631 324.338 313.936 333.375 314.621 332.436C327.009 315.783 350.313 306.466 416.011 313.371C477.826 319.87 539.843 330.303 559.745 378.993C560.202 380.085 563.604 374.017 563.045 372.824C540.757 325.049 478.029 315.554 416.468 309.081C361.305 303.268 333.127 308.878 318.099 320.784L318.074 320.809Z" fill="#0E141B"/>
<path d="M431.167 248.281C404.613 248.382 381.766 252.063 366.509 258.41C359.528 261.304 357.218 268.335 359.452 266.863C372.754 258.156 399.562 252.698 431.192 252.596C473.789 252.444 533.065 262.903 559.872 292.883C573.86 308.521 582.313 334.491 580.891 357.465C580.815 358.658 585.791 357.972 585.867 356.779C587.365 332.714 579.419 306.795 564.721 290.345C536.974 259.349 476.759 248.103 431.167 248.255V248.281Z" fill="#0E141B"/>
<path d="M609.298 298.622C612.903 334.086 601.885 351.145 591.376 365.666C590.868 366.377 592.619 371.276 593.33 370.311C603.028 356.984 615.441 342.514 614.984 311.366C614.908 306.213 609.12 296.972 609.298 298.622Z" fill="#0E141B"/>
<path d="M616.99 396.254C613.613 400.493 600.565 403.133 594.32 403.489C593.381 403.54 592.924 407.855 593.863 407.804C599.905 407.525 612.166 406.941 618.03 402.042C618.589 401.585 617.726 395.315 616.99 396.254Z" fill="#0E141B"/>
<path d="M587.72 452.637C592.924 453.931 603.942 456.343 609.983 457.485L609.45 452.662C603.358 451.494 593.534 449.641 588.583 448.397C588.025 448.27 587.035 452.459 587.746 452.637H587.72Z" fill="#0E141B"/>
<path d="M576.449 486.044C583.76 487.161 595.463 493.914 598.992 500.565C599.55 501.606 601.505 496.376 600.642 495.335C595.539 489.065 586.857 483.607 579.521 481.982C579.013 481.881 575.256 485.841 576.449 486.019V486.044Z" fill="#0E141B"/>
<path d="M564.213 512.623C570.635 518.005 581.094 537.45 579.292 550.041C579.114 551.209 583.404 545.243 583.481 542.324C583.76 530.266 573.123 514.603 567.005 509.348C566.548 508.967 563.908 512.369 564.213 512.623Z" fill="#0E141B"/>
<path d="M560.075 517.497C559.923 516.938 555.836 518.385 556.013 519.045C560.837 537.501 558.12 567.76 547.56 584.972C548.474 586.977 550.099 588.703 550.352 590.328C563.426 572.431 565.685 538.262 560.075 517.497Z" fill="#0E141B"/>
<path d="M548.169 511.556C547.814 521.279 538.675 541.054 531.668 546.614C530.729 547.375 533.166 551.716 534.41 550.828C542.077 545.37 549.261 528.564 551.749 517.116C552.18 515.135 548.22 510.363 548.169 511.556Z" fill="#0E141B"/>
<path d="M269.917 563.039C270.019 587.003 285.631 604.468 309.265 605.814C319.952 605.839 329.573 602.26 337.164 595.177C345.135 587.561 350.263 575.909 350.161 564.587C350.085 537.679 329.091 522.168 309.823 521.66C285.529 522.371 269.968 543.263 269.942 563.039H269.917ZM309.823 601.016C284.945 599.924 274.436 581.291 274.664 563.496C274.512 545.751 288.677 526.661 309.468 526.204C327.238 526.56 345.769 540.522 345.617 564.689C345.998 575.351 341.606 585.226 334.397 591.496C327.365 598.604 318.759 601.65 309.798 601.016H309.823Z" fill="#0E141B"/>
<path d="M287.738 564.181C287.738 577.051 297.08 590.556 314.088 590.074C325.867 589.744 337.113 579.387 337.113 565.095C337.113 550.802 326.806 539.379 312.311 539.379C295.81 539.379 287.738 553.062 287.738 564.181Z" fill="#0E141B"/>
<path d="M388.443 570.554C388.925 594.492 406.949 615.258 431.015 615.283C455.74 614.572 474.348 595.939 474.17 570.02C474.323 545.726 455.816 527.093 431.827 527.626C407.736 527.576 388.468 546.564 388.443 570.554ZM392.505 570.503C393.19 548.646 409.792 531.713 431.954 531.409C453.379 531.713 469.322 548.087 468.941 570.147C468.763 592.918 453.049 609.419 431.091 609.927C409.64 609.343 392.657 592.588 392.505 570.503Z" fill="#0E141B"/>
<path d="M404.131 570.68C404.131 588.679 419.235 598.605 432.436 598.249C442.438 597.97 457.212 588.983 457.212 571.67C457.212 556.312 445.916 544.279 430.557 544.279C412.813 544.279 404.131 559.105 404.131 570.68Z" fill="#0E141B"/>
<path d="M590.538 357.617C585.994 350.941 578.632 351.727 572.768 356.348C549.236 374.905 523.748 445.908 520.169 497.34C517.935 529.275 530.222 551.157 538.929 569.613C543.854 580.072 548.093 589.083 548.55 597.055C549.439 612.768 544.438 628.203 535.959 636.174C535.553 636.555 539.437 640.743 539.665 640.464C559.974 616.145 555.531 593.501 543.143 568.42C534.334 550.573 523.799 527.346 525.932 496.527C528.876 454.311 554.465 378.611 575.637 361.933C580.028 358.455 584.166 357.49 586.832 361.425C595.285 373.813 592.01 422.3 586.07 450.249C579.318 482.007 563.096 518.359 554.363 516.506C550.556 515.693 550.53 503.585 550.53 501.249C550.53 471.624 566.244 418.238 570.89 417.375C574.367 416.74 573.733 425.803 571.677 440.374C568.96 459.718 563.274 479.164 561.141 478.63C559.872 478.326 560.304 473.985 561.192 470.152C562.868 463.069 561.751 462.206 559.745 467.664C556.851 475.483 556.064 483.301 560.126 484.368C563.756 485.332 569.9 474.594 574.875 445.731C578.378 425.321 578.48 410.724 571.22 410.927C560.38 411.257 547.89 466.521 545.732 489.978C543.93 509.525 546.9 520.898 553.17 522.268C567.031 525.264 583.227 484.317 590.31 451.138C597.595 416.842 601.403 373.585 590.513 357.617H590.538Z" fill="#0E141B"/>
</g>
<defs>
<clipPath id="clip0_42_71487">
<rect width="449.504" height="520" fill="white" transform="translate(175 210)"/>
</clipPath>
</defs>
</svg>
