<svg width="800" height="800" viewBox="0 0 800 800" fill="none" xmlns="http://www.w3.org/2000/svg">
<g clip-path="url(#clip0_42_71541)">
<path d="M540.814 682.802C531.651 672.095 520.59 661.517 511.459 651.26C504.723 643.72 499.048 636.341 495.881 629.22C492.987 622.693 492.199 616.375 494.723 610.33C498.71 606.15 502.231 601.649 505.301 596.938C511.41 587.55 515.606 577.309 517.584 567.02C519.818 555.445 519.272 543.822 515.462 533.308C499.627 489.661 464.371 490.625 447.025 453.232C435.594 428.587 439.839 404.263 452.442 387.544C456.397 382.287 457.169 377.77 447.716 379.715C405.95 388.3 375.694 440.885 414.181 492.522C417.444 496.911 419.261 502.618 419.84 508.406C420.933 519.466 417.396 530.768 410.419 533.356C414.422 537.617 417.493 542.922 419.036 548.934C422.669 562.969 416.046 584.125 396.963 589.929C381.948 594.511 359.987 584.013 355.695 564.786C353.541 555.14 355.422 545.06 360.502 537.15C351.081 549.159 351.001 573.66 331.565 576.618C311.887 579.624 304.99 564.078 296.952 554.834C300.216 558.789 302.804 563.58 304.106 568.773C308.704 587.003 301.421 600.716 291.406 603.674C277.628 607.758 265.619 595.765 261.681 580.122C261.118 577.904 260.732 575.782 260.475 573.74C258.851 576.795 257.099 579.399 255.202 581.585C243.241 595.443 226.248 593.096 208.372 590.749C207.327 590.604 206.266 590.508 205.205 590.411C170.174 587.373 129.79 609.43 133.102 651.083C133.858 660.585 137.346 661.324 142.169 654.154C150.77 641.405 167.907 631.647 184.546 633.303C202.166 635.055 214.255 647.498 228.853 657.675C237.164 663.478 246.296 668.526 257.726 670.455C257.838 670.471 257.935 670.504 258.047 670.52C263.385 671.388 269.237 671.565 275.731 670.841C276.985 676.13 276.921 681.243 276.101 686.098C274.526 695.374 270.265 703.733 267.34 710.582C258.996 730.099 275.747 741.384 297.788 724.842C315.327 711.691 329.201 703.155 348.107 699.28C380.179 692.705 436.575 697.93 483.197 710.791C551.987 729.761 553.514 697.657 540.782 682.786L540.814 682.802Z" fill="#00A1B7"/>
<path d="M257.742 670.486C257.742 670.486 257.662 670.567 257.629 670.599C257.774 670.583 257.935 670.567 258.08 670.551C257.967 670.535 257.871 670.502 257.758 670.486H257.742Z" fill="#FFE100"/>
<path d="M275.764 670.857C269.269 671.58 263.417 671.419 258.08 670.535C257.935 670.551 257.774 670.567 257.63 670.583C246.81 681.129 238.306 698.428 242.213 715.613C244.656 726.352 252.71 731.175 255.218 715.806C257.292 703.122 267.404 690.727 276.118 686.113C276.937 681.242 277.002 676.13 275.748 670.857H275.764Z" fill="#00A1B7"/>
<path d="M228.869 657.689C218.596 661.998 207.182 678.557 198.501 688.283C176.975 712.413 146.06 704.214 136.285 674.232C134.131 667.609 124.453 667.062 124.244 675.615C123.103 721.255 188.485 738.103 216.667 699.247C228.564 682.849 241.023 672.849 257.614 670.599C257.646 670.567 257.694 670.518 257.726 670.486C246.296 668.541 237.164 663.493 228.853 657.706L228.869 657.689Z" fill="#00A1B7"/>
<path d="M419.84 506.154C394.954 487.249 362.126 492.811 337.883 516.652C335.97 526.411 327.144 538.259 315.762 535.413C307.225 533.291 290.924 527.198 276.021 521.282C259.109 519.401 237.068 533.275 236.618 550.22C236.409 558.129 238.676 564.801 242.502 570.283C245.765 574.929 250.17 578.707 255.186 581.617C257.083 579.43 258.835 576.826 260.459 573.771C258.417 558.049 264.703 547.84 273.288 544.914C280.892 542.342 290.329 546.876 296.936 554.85C304.974 564.093 311.887 579.639 331.549 576.633C350.985 573.675 351.065 549.175 360.486 537.166C364.682 530.655 371.032 525.591 379.183 523.501C390.517 520.575 402.365 524.851 410.387 533.372C417.364 530.783 420.901 517.215 419.808 506.138L419.84 506.154Z" fill="#E4C584"/>
<path d="M242.518 570.283C223.708 577.839 206.266 573.563 201.314 547.616C190.897 493.149 159.29 477.555 128.038 496.011C120.788 500.287 120.514 509.274 130.803 506.894C153.407 501.686 167.907 510.592 173.197 528.549C180.801 554.32 177.569 582.968 205.204 590.427C206.266 590.523 207.327 590.636 208.372 590.765C226.248 593.112 243.241 595.459 255.202 581.601C250.186 578.691 245.781 574.913 242.518 570.267V570.283Z" fill="#00A1B7"/>
<path d="M521.249 614.992C531.94 614.108 541.618 616.552 549.961 621.005C557.083 619.14 563.883 616.745 570.346 613.851C552.453 609.494 535.235 610.7 521.249 614.992Z" fill="#E4C584"/>
<path d="M723.667 622.884C707.044 645.279 682.334 653.864 657.914 635.778C639.394 622.048 620.505 606.229 599.879 595.555C575.555 582.951 548.772 577.501 517.295 590.989C513.372 592.677 509.369 594.654 505.286 596.953C502.231 601.664 498.694 606.165 494.707 610.345C492.183 616.39 492.955 622.708 495.865 629.235C501.604 623.431 510.446 618.303 521.249 614.991C535.236 610.715 552.454 609.493 570.347 613.85C581.391 616.534 592.677 621.341 603.625 628.881C631.003 647.706 644.185 668.959 680.277 669.554C706.192 669.988 727.589 654.008 737.106 626.582C741.543 613.817 730.804 613.287 723.667 622.901V622.884Z" fill="#00A1B7"/>
<path d="M651.387 429.101C650.294 423.201 648.911 417.285 647.304 411.369C641.564 390.341 632.513 369.313 619.91 349.137C603.56 322.997 582.452 303.448 558.771 289.767C547.196 283.08 534.994 277.791 522.439 273.82C455.497 252.695 378.186 269.093 328.815 310.731C277.757 353.783 244.913 438.056 248.369 503.904C266.713 497.008 291.84 490.609 316.855 487.201C329.716 485.449 338.815 498.712 338.284 513.47C338.252 514.483 338.108 515.544 337.899 516.637C362.126 492.796 394.953 486.783 419.856 505.689C419.293 499.901 417.46 496.927 414.197 492.538C380.067 446.737 402.381 389.055 447.732 379.731C457.169 377.785 456.413 382.319 452.459 387.56C439.855 404.279 435.594 428.603 447.041 453.248C464.387 490.625 499.643 489.677 515.478 533.324C519.288 543.822 519.834 555.445 517.6 567.036C515.606 577.325 511.41 587.566 505.318 596.954C509.401 594.655 513.404 592.678 517.327 590.99C548.82 577.486 575.587 582.952 599.911 595.555C643.863 559.384 663.734 495.303 651.403 429.101H651.387Z" fill="#E4C584"/>
<path d="M666.033 406.176C659.522 407.269 653.236 409.021 647.304 411.369C620.987 421.754 601.438 443.602 598.239 468.89C596.117 485.706 603.978 507.2 593.561 524.353C575.941 553.307 550.235 538.42 517.568 567.052C515.574 577.341 511.379 587.581 505.286 596.97C509.369 594.671 513.372 592.694 517.295 591.006C538.355 571.666 597.21 579.077 619.669 541.378C637.803 510.945 604.798 465.337 651.387 429.117C656.242 425.339 661.95 421.673 668.669 418.137C681.064 411.61 677.511 404.279 666.017 406.192L666.033 406.176Z" fill="#00A1B7"/>
<path d="M626.163 673.655C612.788 680.085 592.098 677.529 576.745 648.415C571.182 637.885 561.955 627.387 549.962 620.989C541.618 616.536 531.94 614.092 521.249 614.976C510.446 618.288 501.604 623.416 495.865 629.22C499.032 636.342 504.707 643.721 511.443 651.261C518.693 643.206 535.718 644.492 546.312 653.286C560.749 665.263 562.807 675.246 579.413 686.307C593.609 695.776 615.553 695.68 629.379 681.564C636.083 674.732 633.398 670.166 626.163 673.623V673.655Z" fill="#00A1B7"/>
<path d="M552.309 253.483C551.28 248.419 549.11 248.194 545.508 251.056C539.946 255.477 525.863 268.659 522.423 273.82C534.978 277.79 547.18 283.08 558.755 289.767C557.887 284.189 552.63 255.075 552.309 253.483Z" fill="#E4C584"/>
<path d="M316.839 487.217C290.731 490.769 264.044 498.036 245.637 504.965C242.389 506.187 242.582 507.264 245.717 508.695C246.489 509.048 307.225 533.291 315.761 535.413C331.5 539.336 338.011 520.253 338.268 513.485C338.799 498.743 329.7 485.464 316.839 487.217Z" fill="#E4C584"/>
<path d="M304.122 568.804C302.804 563.611 300.232 558.804 296.968 554.866C290.361 546.876 280.924 542.342 273.32 544.93C264.719 547.856 258.449 558.065 260.491 573.787C260.748 575.829 261.15 577.951 261.697 580.17C265.635 595.812 277.645 607.805 291.422 603.722C301.437 600.747 308.72 587.05 304.122 568.82V568.804Z" fill="#FFFBC7"/>
<path d="M419.036 548.966C417.477 542.954 414.422 537.649 410.419 533.388C402.397 524.868 390.549 520.592 379.215 523.518C371.08 525.624 364.714 530.672 360.518 537.182C355.422 545.092 353.557 555.172 355.711 564.818C360.004 584.045 381.964 594.543 396.979 589.961C416.046 584.158 422.669 563.001 419.052 548.966H419.036Z" fill="#FFFBC7"/>
<path d="M337.417 656.677C334.121 656.613 332.449 657.433 333.719 660.632C337.626 670.535 345.824 679.023 355.229 682.48C387.784 677.657 405.355 661.5 408.426 643.896C387.253 655.648 357.335 657.111 337.433 656.693L337.417 656.677Z" fill="#F1E890"/>
<path d="M332.899 639.154C338.413 644.25 388.523 639.235 405.178 623.914C397.381 609.992 377.254 596.616 348.734 597.099C333.719 608.384 327.674 634.331 332.915 639.154H332.899Z" fill="#F1E890"/>
<path d="M337.416 656.677C357.319 657.095 387.221 655.632 408.41 643.88C409.02 640.343 409.069 636.742 408.522 633.173C408.056 630.151 406.914 627.016 405.178 623.913C388.523 639.234 338.413 644.25 332.899 639.153C327.674 634.33 333.719 608.399 348.718 597.098C340.744 597.226 332.111 598.448 322.9 601.036C318.109 602.387 313.784 604.236 309.878 606.438C309.042 621.116 312.193 634.314 314.427 640.07C316.244 644.748 288.641 646.838 285.426 640.327C285.008 643.333 284.943 646.291 285.297 649.121C285.731 652.593 286.808 655.873 288.416 658.959C292.998 663.22 306.373 661.114 312.579 658.895C315.617 657.818 316.839 658.268 317.321 661.998C318.318 669.747 320.874 677.72 324.17 682.495C329.507 683.572 335.069 684.055 340.696 683.829C345.84 683.62 350.663 683.154 355.229 682.479C345.824 679.023 337.625 670.534 333.719 660.631C332.465 657.432 334.121 656.612 337.416 656.677Z" fill="#0E141B"/>
<path d="M312.578 658.88C306.389 661.098 292.997 663.204 288.416 658.944C294.492 670.664 308.238 679.281 324.169 682.496C320.874 677.721 318.318 669.747 317.321 661.998C316.838 658.269 315.617 657.803 312.578 658.896V658.88Z" fill="#F1E890"/>
<path d="M314.427 640.071C312.192 634.316 309.041 621.117 309.877 606.439C295.344 614.638 287.129 627.885 285.425 640.312C288.641 646.839 316.244 644.733 314.427 640.055V640.071Z" fill="#F1E890"/>
<path d="M230.798 379.441C224.4 380.117 226.232 383.251 228.805 384.891C237.18 390.212 289.396 419.407 304.99 425.677C318.752 431.223 332.706 417.719 334.94 405.244C339.265 381.097 323.928 373.252 313.286 373.445C287.017 373.911 251.456 377.271 230.798 379.441Z" fill="#E4C584"/>
<path d="M293.175 276.489C288.255 274.64 287.274 277.244 288.882 280.797C293.126 290.153 309.251 323.657 318.832 337.482C321.806 341.759 338.654 345.167 350.326 333.029C365.438 317.322 358.927 305.989 353.557 303.079C331.324 291.022 312.804 283.852 293.191 276.505L293.175 276.489Z" fill="#E4C584"/>
<path d="M425.354 212.006C426.672 204.916 429.325 205.624 432.958 210.736C438.022 217.874 454.854 244.834 463.374 264.19C464.966 267.791 455.706 274.366 443.552 275.717C430.756 277.131 417.83 274.205 417.975 270.074C418.441 257.631 422.444 227.568 425.354 212.006Z" fill="#E4C584"/>
<path d="M248.322 510.286C248.161 514.256 249.977 525.848 250.315 527.166C253.128 525.349 269.398 519.755 272.002 520.703C268.69 518.549 248.322 510.27 248.322 510.27V510.286Z" fill="#E4C584"/>
<path d="M257.742 670.486C257.742 670.486 257.662 670.567 257.629 670.599C257.774 670.583 257.935 670.567 258.08 670.551C257.967 670.535 257.871 670.502 257.758 670.486H257.742Z" fill="#FFE100"/>
<path d="M275.764 670.857C269.269 671.58 263.417 671.419 258.08 670.535C257.935 670.551 257.774 670.567 257.63 670.583C253.836 674.281 250.331 678.831 247.55 683.911C252.228 692.415 255.074 701.353 256.553 710.549C260.105 699.826 268.642 690.1 276.134 686.129C276.953 681.258 277.018 676.146 275.764 670.873V670.857Z" fill="#008DA0"/>
<path d="M228.869 657.689C225.107 659.265 221.184 662.496 217.31 666.435C221.795 675.695 222.872 684.569 221.49 693.041C234.881 676.836 244.688 672.351 257.63 670.599C257.662 670.567 257.71 670.518 257.742 670.486C246.312 668.541 237.18 663.493 228.869 657.706V657.689Z" fill="#008DA0"/>
<path d="M299.38 557.841C306.534 567.069 313.897 579.351 331.581 576.65C344.056 574.753 348.911 561.233 353.027 550.574C335.343 566.12 322.144 570.139 299.396 557.841H299.38Z" fill="#BFA66F"/>
<path d="M237.196 557.471C238.064 562.294 239.929 566.57 242.518 570.267C245.781 574.914 250.186 578.691 255.202 581.601C257.099 579.415 258.851 576.811 260.475 573.756C259.671 567.599 260.169 562.31 261.552 557.953C254.366 562.278 245.443 563.515 237.18 557.471H237.196Z" fill="#BFA66F"/>
<path d="M242.518 570.283C225.814 576.987 210.22 574.35 203.452 555.557C193.372 556.795 183.518 549.319 175.881 539.609C180.495 562.02 181.476 584.044 205.205 590.443C206.266 590.539 207.327 590.652 208.372 590.78C226.249 593.128 243.241 595.475 255.202 581.617C250.186 578.707 245.781 574.929 242.518 570.283Z" fill="#008DA0"/>
<path d="M521.249 614.992C531.94 614.108 541.618 616.552 549.961 621.005C557.083 619.14 563.883 616.745 570.346 613.851C552.453 609.494 535.235 610.7 521.249 614.992Z" fill="#BFA66F"/>
<path d="M532.053 585.926C527.246 587.164 522.327 588.836 517.295 590.99C513.372 592.678 509.369 594.655 505.286 596.954C502.231 601.664 498.694 606.166 494.707 610.346C492.183 616.39 492.955 622.708 495.865 629.235C501.604 623.432 510.446 618.304 521.249 614.992C531.233 611.937 542.888 610.442 555.235 611.439C544.287 606.664 535.622 598.964 532.037 585.942L532.053 585.926Z" fill="#008DA0"/>
<path d="M551.216 548.612C541.007 551.715 529.786 556.329 517.584 567.036C515.591 577.325 511.395 587.565 505.302 596.954C509.385 594.655 513.388 592.678 517.311 590.99C538.371 571.65 597.226 579.061 619.685 541.362C623.013 535.767 624.62 529.642 625.312 523.18C606.47 543.838 582.227 555.943 551.216 548.612Z" fill="#008DA0"/>
<path d="M518.581 566.185C550.75 538.726 576.118 553.002 593.561 524.338C603.994 507.201 596.117 485.691 598.239 468.875C601.422 443.587 620.971 421.755 647.272 411.37C630.922 307.967 499.997 304.285 457.426 379.699C459.307 380.664 445.546 397.962 443.36 407.833C439.292 426.176 436.35 457.46 479.129 488.616C496.251 501.092 509.546 512.731 516.105 530.817C520.253 542.247 520.59 555.414 518.581 566.169V566.185Z" fill="#BFA66F"/>
<path d="M619.669 541.363C597.371 578.789 539.223 571.779 517.777 590.589C538.194 581.473 564.109 577.02 599.895 595.556C654.619 550.526 660.776 481.929 651.243 429.23C604.895 465.434 637.787 510.963 619.685 541.363H619.669Z" fill="#BFA66F"/>
<path d="M557.18 651.148C544.367 639.766 526.538 632.13 518.147 616.037C508.758 619.333 501.041 624.011 495.865 629.236C499.032 636.358 504.707 643.737 511.443 651.276C518.693 643.222 535.718 644.508 546.312 653.302C558.241 663.205 561.746 671.726 571.938 680.632C569.366 669.153 565.298 658.366 557.164 651.148H557.18Z" fill="#008DA0"/>
<path d="M554.141 263.467C548.257 270.091 541.473 274.769 534.062 277.936C542.534 281.232 550.797 285.17 558.771 289.768C558.209 286.199 555.845 272.936 554.141 263.451V263.467Z" fill="#BFA66F"/>
<path d="M331.918 493.406C331.581 518.437 314.974 529.691 298.447 529.321C306.711 532.44 313.35 534.819 315.761 535.43C331.5 539.352 338.011 520.27 338.268 513.502C338.558 505.721 336.13 498.39 331.918 493.406Z" fill="#BFA66F"/>
<path d="M266.391 591.568C272.098 601.005 281.278 606.712 291.406 603.706C301.02 600.86 308.077 588.112 304.588 570.99C300.489 590.764 279.59 597.741 266.391 591.568Z" fill="#DDD9AC"/>
<path d="M362.64 578.435C371.434 588.627 386.031 593.289 396.963 589.961C416.03 584.158 422.653 563.001 419.036 548.967C413.039 572.02 379.81 586.489 362.64 578.451V578.435Z" fill="#DDD9AC"/>
<path d="M340.937 672.384C344.94 676.933 349.875 680.518 355.213 682.48C387.767 677.657 405.339 661.5 408.409 643.896C403.345 646.71 397.767 648.912 391.947 650.665C378.427 662.963 360.245 669.57 340.937 672.384Z" fill="#CAC379"/>
<path d="M302.145 673.59C308.415 677.77 316.003 680.84 324.17 682.496C322.642 680.278 321.276 677.336 320.134 674.056C314.09 674.169 308.061 674.008 302.145 673.59Z" fill="#CAC379"/>
<path d="M328.253 378.797C323.639 403.973 294.782 406.979 267.918 406.931C282.805 414.985 297.804 422.766 304.99 425.66C318.752 431.206 332.706 417.702 334.941 405.227C337.32 391.916 333.735 383.572 328.237 378.781L328.253 378.797Z" fill="#BFA66F"/>
<path d="M353.541 303.063C351.949 302.194 350.39 301.375 348.831 300.555C338.349 312.242 323.543 317.065 307.225 317.74C311.373 325.473 315.504 332.675 318.832 337.482C321.806 341.758 338.654 345.167 350.326 333.029C365.438 317.322 358.927 305.988 353.557 303.079L353.541 303.063Z" fill="#BFA66F"/>
<path d="M463.374 264.206C460.481 257.615 456.606 250.14 452.571 242.873C444.485 255.043 432.315 261.972 418.264 265.219C418.136 267.036 418.023 268.676 417.975 270.074C417.83 274.222 430.739 277.132 443.552 275.717C455.69 274.383 464.966 267.791 463.374 264.19V264.206Z" fill="#BFA66F"/>
<path d="M540.814 682.802C531.651 672.095 499.032 636.342 495.881 629.22C492.987 622.693 492.199 616.375 494.723 610.33C498.71 606.15 502.231 601.649 505.302 596.939C514.16 583.306 518.725 570.316 519.658 558.082C498.292 593.868 455.144 630.779 408.699 645.955C402.735 660.44 391.497 679.523 347.32 683.124C309.058 686.243 295.313 669.298 287.323 658.109C235.219 648.351 239.254 634.814 213.355 623.915C179.065 611.584 158.857 626.278 145.562 648.56C161.959 633.159 186.508 623.609 215.494 648.962C238 668.655 260.459 674.185 275.78 671.87C276.584 679.105 277.387 689.956 272.163 698.798C251.424 733.893 277.371 740.179 297.82 724.842C315.36 711.691 329.234 703.155 348.139 699.28C380.212 692.705 436.608 697.93 483.229 710.791C521.796 721.434 539.223 716.016 544.833 706.579C549.238 699.184 546.393 689.329 540.798 682.802H540.814Z" fill="#008DA0"/>
<path d="M392.349 523.436C402.767 522.552 417.412 520.655 419.759 507.279C419.759 507.279 423.328 523.741 410.162 533.339C410.162 533.339 401.127 524.529 392.349 523.436Z" fill="#BFA66F"/>
<path d="M248.787 529.417C248.948 530.157 252.887 528.26 252.726 527.52C251.601 522.28 250.813 516.781 250.282 511.09C248.803 510.447 247.26 509.724 245.894 508.566C246.44 515.849 247.389 522.858 248.787 529.417Z" fill="#0E141B"/>
<path d="M275.137 374.634H280.876C290.088 357.175 300.859 341.5 312.739 328.285C311.919 326.855 311.132 325.327 310.264 323.752C296.004 338.51 284.895 354.667 275.153 374.634H275.137Z" fill="#0E141B"/>
<path d="M342.03 297.035C343.525 297.903 345.004 298.642 346.499 299.285C367.881 285.251 392.783 275.348 418.923 270.171V265.959C391.079 271.039 364.489 282.164 342.03 297.035Z" fill="#0E141B"/>
<path d="M547.116 619.767C546.377 619.96 551.392 622.243 552.132 622.066C559.672 620.185 566.922 617.709 573.851 614.687C571.938 613.738 569.928 613.143 567.758 612.838C561.183 615.651 554.302 617.966 547.132 619.767H547.116Z" fill="#0E141B"/>
<path d="M622.723 348.188C594.67 303.335 547.888 272.855 494 264.398C484.097 262.839 474.033 262.003 463.937 261.826V266.006C473.856 266.119 483.775 266.922 493.566 268.466C546.666 276.793 591.117 305.715 618.736 349.876C630.793 369.152 639.684 390.035 645.31 411.449C646.516 411.175 648.622 410.613 649.812 410.179C643.879 388.781 634.78 367.512 622.707 348.204L622.723 348.188Z" fill="#0E141B"/>
<path d="M653.332 427.285C652.175 428.443 650.551 429.15 649.377 430.324C655.695 467.122 652.528 504.612 639.201 537.649C629.716 561.169 615.665 580.332 597.965 594.64C599.541 595.572 601.068 596.424 602.531 597.325C619.974 583.354 634.025 564.465 643.574 540.784C657.866 505.336 661.001 466.013 653.316 427.285H653.332Z" fill="#0E141B"/>
<path d="M262.822 404.857C261.954 407.205 261.086 409.6 260.218 412.044C249.045 443.794 243.965 476.767 245.636 505.27C247.003 505.238 248.369 504.579 249.72 503.759C248.305 475.867 254.704 443.81 265.748 412.445C266.262 410.966 266.841 409.536 267.372 408.073C266.037 407.221 263.899 406.176 262.806 404.857H262.822Z" fill="#0E141B"/>
<path d="M273.24 520.35C251.553 519.24 233.772 535.22 233.386 550.3C233.001 564.785 240.958 575.588 253.691 583.112C254.495 583.594 256.649 580.893 255.974 580.507C248.305 576.07 237.566 566.858 238 550.284C238.37 536.072 259.028 518.453 280.522 524.32C281.246 524.513 275.249 520.478 273.24 520.382V520.35Z" fill="#0E141B"/>
<path d="M316.999 483.986C291.952 487.394 264.88 495.48 245.138 503.229V503.679C238.691 506.203 239.768 507.924 245.138 510.383C253.755 514.306 298.753 534.594 315.504 538.758C320.214 539.931 324.925 538.887 329.121 535.719C341.901 526.09 344.265 501.188 331.307 489.452C327.224 485.754 322.256 483.262 316.983 483.97L316.999 483.986ZM246.135 506.235C265.684 498.551 292.177 491.96 317.015 488.584C321.468 487.973 325.664 489.323 329.137 492.458C339.94 502.249 339.442 522.473 327.401 531.524C323.832 534.208 320.022 535.076 316.083 534.096C300.248 530.157 255.893 511.83 246.263 507.457C245.234 506.991 244.816 506.766 246.119 506.252L246.135 506.235Z" fill="#0E141B"/>
<path d="M314.942 370.68C288.351 371.146 250.025 375.631 230.653 378.091C221.297 379.281 221.667 382.351 228.146 386.611C236.795 392.286 288.93 422.88 304.235 429.053C316.646 434.053 332.577 426.481 337.191 405.774C342.352 382.608 328.655 370.455 314.926 370.696L314.942 370.68ZM305.505 424.407C290.297 418.282 238.225 389.248 229.528 383.734C227.486 382.448 226.313 381.29 230.927 380.808C250.315 378.766 286.808 375.294 313.302 374.827C319.491 374.715 325.472 377.319 329.282 381.805C333.864 387.174 335.343 395.196 333.59 405.019C332.304 412.221 326.983 419.52 320.375 423.169C316.919 425.082 311.533 426.85 305.489 424.423L305.505 424.407Z" fill="#0E141B"/>
<path d="M286.792 281.071C291.518 291.504 307.048 325.715 316.469 339.299C321.87 347.08 343.107 343.801 351.724 334.83C366.627 319.348 362.045 304.269 355.1 300.491C333.301 288.659 313.784 282.791 292.804 274.93L293.64 275.203C287.724 272.984 283.126 273.016 286.776 281.071H286.792ZM319.941 336.695C310.617 323.271 294.814 290.604 290.103 280.235C288.85 277.47 289.557 276.618 292.676 277.775C313.543 285.604 331.227 292.517 352.882 304.269C361.145 308.754 359.827 321.149 349.329 332.081C339.265 342.547 323.156 341.325 319.941 336.711V336.695Z" fill="#0E141B"/>
<path d="M338.124 514.659C337.69 515.174 338.124 518.55 338.638 518.003C361.531 494.387 395.95 488.792 419.213 507.843C419.791 508.325 421.238 505.11 420.643 504.627C394.053 482.86 357.062 492.474 338.108 514.643L338.124 514.659Z" fill="#0E141B"/>
<path d="M363.669 531.748C358.444 534.754 354.441 544.898 351.773 551.843C347.673 562.47 343.445 573.45 331.372 575.283C314.459 577.871 304.058 561.907 297.418 553.113C295.907 551.104 297.547 557.631 300.184 561.136C306.711 569.801 314.813 582.019 331.758 579.43C345.39 577.357 350.615 563.643 354.779 552.824C355.647 550.573 356.499 548.355 357.415 546.249C359.184 542.182 364.328 531.362 363.669 531.732V531.748Z" fill="#0E141B"/>
<path d="M448.472 377.817C427.363 382.157 407.139 397.478 399.133 418.506C389.52 443.762 394.568 467.41 411.689 493.132C425.788 514.321 412.83 531.217 408.007 530.992C407.252 530.96 410.901 534.497 411.496 534.4C418.473 533.227 430 510.607 416.656 492.168C397.188 465.288 393.973 444.919 403.522 419.856C411.19 399.713 427.813 385.212 448.005 381.064C456.478 379.328 455.143 381.723 451.349 386.739C437.122 405.597 435.032 430.676 445.787 453.826C454.034 471.59 466.413 480.979 478.39 490.062C491.894 500.302 505.864 510.897 514.176 533.789C523.693 559.994 512.664 592.677 487.376 614.557C480.544 620.441 484.065 621.245 490.881 615.345C517.712 592.13 528.982 560.139 519.127 532.953C510.542 509.305 495.302 498.389 481.042 487.94C468.631 478.857 457.587 469.822 449.645 452.668C439.34 430.451 441.768 406.417 455.368 388.379C462.152 379.376 459.773 375.486 448.488 377.817H448.472Z" fill="#0E141B"/>
<path d="M444.436 442.525C463.535 444.551 489.595 462.685 498.742 484.951C499.048 485.69 499.932 482.362 499.144 480.594C487.682 454.984 460.931 440.692 443.649 438.345C442.395 438.168 442.99 442.38 444.436 442.541V442.525Z" fill="#0E141B"/>
<path d="M397.108 435.179C362.271 431.594 268.417 439.551 247.309 476.093C245.846 478.633 248.514 485.192 248.675 484.453C257.099 446.32 354.634 435.018 396.851 439.166C397.912 439.262 398.008 435.259 397.108 435.163V435.179Z" fill="#0E141B"/>
<path d="M424.019 211.765C421.077 227.536 415.226 257.936 414.759 270.444C414.727 271.199 415.37 272.325 416.608 273.466C426.19 282.372 457.844 277.951 463.953 268.707C465.657 266.135 465.914 264.495 465.561 263.708C457.008 244.271 439.758 217.456 434.083 209.948C427.058 200.64 425.659 203.019 424.019 211.765ZM419.904 271.071C419.647 270.829 419.341 270.476 419.357 270.138C419.823 257.727 423.778 227.954 426.704 212.279C427.846 206.17 429.357 208.035 431.849 211.556C436.816 218.549 453.648 245.509 462.12 264.769C462.297 265.171 462.072 265.701 461.847 266.103C459.998 269.318 452.426 273.402 443.407 274.382C432.733 275.556 422.637 273.627 419.904 271.087V271.071Z" fill="#0E141B"/>
<path d="M544.672 249.995C539.367 254.223 523.645 267.389 520.285 272.727C519.883 273.37 523.548 275.234 523.95 274.607C526.94 269.865 540.621 256.715 546.36 252.149C549.962 249.271 550.187 250.011 550.958 253.773C551.28 255.364 555.765 280.234 557.116 288.321C557.325 289.607 561.633 292.034 561.553 291.295C561.328 289.076 554.366 255.139 553.965 253.178C552.598 246.506 551.778 244.336 544.656 250.011L544.672 249.995Z" fill="#0E141B"/>
<path d="M555.781 398.411C527.005 398.073 498.903 431.801 497.344 473.487C496.958 483.776 497.504 493.711 498.951 503.888C500.511 505.447 502.086 507.022 503.646 508.582C501.154 495.946 500.302 483.647 500.961 473.021C503.549 431.223 531.892 401.658 555.701 402.108C577.677 402.526 597.338 421.4 602.049 451.141C603.11 449.694 603.946 448.151 604.701 446.415C597.933 414.519 575.957 398.636 555.781 398.411Z" fill="#0E141B"/>
<path d="M599.01 495.69C592.676 516.894 579.751 527.071 564.72 526.781C550.492 526.508 531.152 508.888 531.843 471.977C532.245 450.113 542.309 433.169 556.746 431.368C569.317 429.793 582.597 441.207 583.224 467.797C583.497 479.292 578.674 494.95 570.7 493.953C561.295 492.764 557.839 474.774 562.887 462.556C563.642 460.724 564.623 459.646 565.604 459.437C568.626 458.794 563.498 455.467 560.829 461.543C553.514 478.166 560.877 496.976 570.346 497.699C578.61 498.326 586.23 487.378 586.68 467.62C587.227 443.522 572.87 426.192 556.569 427.654C544.769 428.716 529.818 441.223 528.709 472.009C527.824 496.381 538.29 528.453 564.736 530.8C579.494 532.119 592.21 521.154 599.686 504.001C599.798 501.22 599.477 498.455 599.01 495.673V495.69Z" fill="#0E141B"/>
<path d="M665.808 404.826C629.025 410.951 599.589 436.593 595.635 467.99C594.879 474.003 595.345 480.417 595.844 487.201C596.744 499.452 598.946 512.377 592.387 523.164C583.417 537.906 572.34 540.109 558.643 543.806C546.521 547.086 532.857 550.896 517.584 563.87C516.893 564.448 517.053 569.287 517.616 568.773C533.226 554.77 547.261 550.96 559.624 547.616C573.337 543.903 585.169 540.704 594.718 525.029C601.728 513.502 600.763 500.384 599.831 487.716C599.332 481.06 598.866 474.774 599.605 469.035C603.432 438.715 630.842 413.411 666.258 407.495C675.502 405.952 677.913 411.675 668.042 416.884C621.1 441.593 622.611 472.861 623.961 500.432C624.685 515.206 625.36 529.145 618.511 540.639C605.313 562.792 578.883 569.11 555.572 574.673C539.367 578.547 524.047 582.213 515.51 590.749C514.98 591.28 525.477 589.254 526.78 588.322C535.22 582.357 546.57 580.605 560.267 577.341C583.674 571.747 608.833 565.622 621.952 543.613C629.218 531.411 628.012 515.673 627.273 500.481C625.906 472.411 623.913 444.101 669.312 420.195C682.929 413.025 679.794 402.447 665.808 404.778V404.826Z" fill="#0E141B"/>
<path d="M280.555 368.669C275.828 372.254 278.963 371.772 280.426 372.093C314.122 347.352 397.671 344.908 448.15 360.309C488.197 372.527 505.977 413.152 504.964 445.9C504.948 446.655 507.038 440.675 507.07 440.112C509.385 401.175 484.001 368.187 450.337 356.757C397.606 338.848 310.698 345.857 280.555 368.653V368.669Z" fill="#0E141B"/>
<path d="M493.903 304.703C456.413 282.646 395.243 275.959 357.64 288.514C356.081 289.607 357.254 291.183 356 292.582C387.542 277.759 452.298 285.894 491.299 307.854C519.127 323.512 536.811 359.266 530.702 410.196C530.654 410.582 533.757 407.736 533.805 407.431C540.348 366.018 528.242 324.895 493.903 304.687V304.703Z" fill="#0E141B"/>
<path d="M525.879 275.733C578.272 295.973 580.571 369.136 563.803 400.646C563.45 401.305 566.665 401.707 567.051 401.048C583.979 371.612 583.416 308.336 540.766 279.897C535.091 276.103 525.172 275.46 525.879 275.733Z" fill="#0E141B"/>
<path d="M618.656 348.333C626.179 365.085 617.691 392.8 586.68 414.182C586.262 414.471 588.448 416.963 588.77 416.738C620.199 395.775 628.671 369.843 622.836 353.478C622.257 351.87 618.334 347.658 618.64 348.349L618.656 348.333Z" fill="#0E141B"/>
<path d="M626.308 468.407C625.263 468.455 625.263 471.156 625.906 471.124C633.752 470.69 649.153 473.262 653.542 478.76C654.008 479.355 653.413 474.676 652.883 474.146C648.478 469.741 635.006 468.069 626.292 468.423L626.308 468.407Z" fill="#0E141B"/>
<path d="M625.858 524.401C629.668 524.53 637.739 530.285 640.134 536.86C640.391 537.568 642.61 534.433 642.353 533.918C639.089 527.215 630.745 521.829 625.955 521.668C625.199 521.636 625.103 524.369 625.858 524.401Z" fill="#0E141B"/>
<path d="M506.347 594.51C505.704 594.896 504.578 599.751 505.237 599.365C562.373 565.17 608.592 599.735 646.484 628.817L657.111 636.887C680.132 653.96 706.063 648.912 724.76 623.704C731.978 613.994 739.148 616.486 735.804 626.132C726.512 652.883 705.758 668.606 680.293 668.188C643.976 667.593 625.424 642.224 604.396 627.756C562.678 599.059 514.915 609.123 495.704 627.45C495.045 628.077 496.894 631.646 497.296 631.244C515.366 613.223 561.89 603.207 602.837 631.389C619.604 642.916 642.385 671.29 678.958 672.303C706.256 673.043 728.682 656.355 738.859 627.048C744.116 611.888 729.92 610.811 721.207 622.547C703.234 646.758 680.743 650.102 658.734 633.8L648.14 625.762C612.322 598.272 564.414 559.769 506.331 594.542L506.347 594.51Z" fill="#0E141B"/>
<path d="M529.03 613.078C525.831 612.981 516.989 616.888 517.728 616.759C545.54 612.483 566.247 631.485 575.523 649.057C591.197 678.75 612.916 681.531 626.742 674.891C631.902 672.416 633.607 675.309 628.398 680.631C614.267 695.067 592.773 694.103 580.169 685.18C564.398 674.023 560.089 662.77 547.18 652.24C535.525 642.723 517.584 641.855 510.124 650.648C509.642 651.227 512.761 654.105 513.259 653.526C519.706 645.938 534.303 646.211 544.913 654.426C556.472 663.365 562.613 678.38 578.063 688.396C596.374 700.26 617.337 697.784 630.793 682.544C639.378 672.834 634.057 668.815 625.552 672.416C611.92 678.187 592.676 674.811 577.934 646.87C569.366 630.649 553.241 613.817 529.014 613.078H529.03Z" fill="#0E141B"/>
<path d="M492.505 612.548C488.02 629.187 505.27 647.144 523.452 666.066C535.67 678.783 552.132 692.592 543.483 706.225C539.496 712.511 526.41 721.305 483.615 709.505C435.418 696.209 379.617 691.467 347.882 697.978C328.944 701.868 314.894 710.389 297.017 723.796C286.647 731.577 276.23 733.683 270.475 729.15C264.96 724.809 265.957 715.163 270.33 707.318C273.835 701.048 280.474 684.554 277.146 670.552C277.05 670.166 273.384 670.744 273.465 671.05C276.986 685.615 270.057 699.216 266.263 707.238C261.472 717.414 260.957 727.253 268.192 732.944C273.577 737.172 284.091 739.326 297.917 728.957C315.488 715.774 330.005 704.891 348.429 701.097C379.778 694.666 435.82 701.402 483.631 714.601C528.13 726.867 543.579 716.096 547.968 709.167C558.498 692.576 536.281 673.606 526.78 663.719C507.472 643.624 488.422 624.863 498.855 605.346C499.209 604.687 492.971 610.86 492.505 612.564V612.548Z" fill="#0E141B"/>
<path d="M255.411 670.488C245.026 680.568 236.554 697.287 239.367 714.023C242.277 731.385 254.623 735.501 257.501 717.865C259.414 706.097 267.517 692.898 275.523 688.027C276.182 687.625 276.986 684.169 276.31 684.491C267.259 688.863 256.119 701.998 253.9 715.614C252.292 725.501 246.392 727.961 243.563 715.341C239.576 697.496 248.932 681.082 259.109 671.629C259.655 671.115 255.701 670.215 255.411 670.488Z" fill="#0E141B"/>
<path d="M259.848 570.461C249.607 593.161 229.962 592.116 209.69 589.254C196.17 587.341 169.804 585.846 147.458 607.083C135.417 618.529 130.208 634.3 131.752 651.228C132.861 663.398 137.748 664.749 144.693 654.958C154.05 641.743 169.274 633.207 184.434 634.702C197.809 636.036 208.339 645.57 219.094 653.736C234.335 665.311 248.675 676.902 277.966 671.951C282.982 671.099 283.143 668.543 277.275 669.33C250.845 672.899 235.364 661.147 220.365 649.749C209.288 641.341 198.838 633.384 184.691 631.985C168.583 630.393 150.641 639.203 141.044 653.431C137.025 659.395 135.047 658.254 134.469 651.019C133.183 634.927 138.552 620.683 149.982 609.832C164.21 596.328 188.212 589.463 208.597 592.212C228.981 594.961 248.804 597.501 261.086 575.557C261.488 574.834 260.153 569.786 259.848 570.477V570.461Z" fill="#0E141B"/>
<path d="M226.634 656.371C219.255 659.2 208.741 671.242 203.774 677.753C194.321 690.099 182.151 703.796 164.017 699.986C152.024 697.462 142.202 687.961 137.604 673.814C134.019 662.818 123.199 664.747 122.894 676.949C122.395 696.996 134.388 714.069 154.725 720.95C174.242 727.557 202.327 722.975 218.58 700.565C232.165 681.836 248.257 672.592 265.603 671.017C266.359 670.952 255.99 669.409 254.141 669.779C239.785 672.689 227.712 681.739 215.59 698.443C200.157 719.728 174.515 722.911 155.947 716.625C136.784 710.146 125.177 694.44 125.643 675.63C125.804 668.878 132.829 667.93 135.015 674.634C139.935 689.713 150.609 700.34 163.567 703.057C182.441 707.011 195.446 694.777 206.314 681.129C212.375 673.508 222.181 661.724 229.946 659.474C230.67 659.265 227.069 656.178 226.651 656.355L226.634 656.371Z" fill="#0E141B"/>
<path d="M127.347 494.837C116.769 501.09 117.267 511.894 131.109 508.694C150.545 504.209 165.544 509.739 171.123 528.645C172.972 534.915 174.177 543.419 175.351 549.705C178.727 567.807 180.656 583.867 198.854 590.298C201.041 591.07 208.934 589.896 208.195 589.751C185.817 585.137 182.569 567.695 178.807 547.503C177.618 541.153 176.396 534.593 174.515 528.179C168.776 508.678 152.731 500.447 130.498 505.576C122.862 507.328 121.35 501.557 128.746 497.2C142.201 489.258 155.432 487.811 167.039 493.052C182.891 500.206 194.594 519.675 199.98 547.872C202.263 559.849 207.262 567.984 214.818 572.083C222.406 576.199 232.293 575.958 243.418 571.392C244.109 571.103 240.782 567.244 240.621 567.357C232.824 572.244 222.551 572.678 215.847 569.045C209.047 565.364 205.044 558.531 203.131 547.358C197.472 514.353 185.415 497.73 168.583 490.126C156.14 484.5 141.607 486.429 127.363 494.837H127.347Z" fill="#0E141B"/>
<path d="M272.87 543.612C262.886 547.004 254.51 559.994 259.735 580.764C264.51 599.783 279.365 609.396 292.033 605.634C302.9 602.419 311.244 589.622 305.907 568.466C301.068 549.303 283.351 540.075 272.87 543.612ZM302.788 569.141C307.321 587.13 300.103 599.702 291.02 602.403C278.77 606.036 266.841 595.04 263.015 579.832C260.234 568.771 260.748 550.637 273.754 546.216C283.175 543.017 298.769 553.177 302.804 569.141H302.788Z" fill="#0E141B"/>
<path d="M379.199 521.684C359.73 526.78 350.068 545.589 353.975 565.379C358.251 587.082 383.893 596.921 397.622 591.841C419.373 585.555 424.807 561.167 421.592 548.547C417.171 531.394 399.133 517.182 379.182 521.684H379.199ZM379.552 524.835C396.079 520.558 413.248 532.021 417.717 549.303C421.029 562.1 415.515 582.886 396.577 588.658C382.687 592.886 361.081 582.565 357.045 564.527C355.068 552.92 357.93 530.429 379.552 524.835Z" fill="#0E141B"/>
<path d="M596.792 563.323C603.351 569.593 609.54 575.525 609.122 585.637C609.09 586.393 612.273 583.628 612.241 582.936C611.823 572.872 605.988 568.066 599.718 562.053C599.171 561.539 596.245 562.793 596.792 563.323Z" fill="#0E141B"/>
<path d="M541.039 513.324C536.731 516.475 533.708 518.002 528.258 519.867C523.307 521.555 523.709 523.179 528.918 521.957C534.126 520.735 537.904 519.224 541.859 516.33C542.486 515.285 542.486 512.906 541.023 513.324H541.039Z" fill="#0E141B"/>
<path d="M530.252 476.237C526.763 476.944 522.246 477.716 515.703 478.439C508.324 479.259 507.874 480.819 515.285 480.61C520.847 480.449 526.603 479.918 529.947 479.066C529.947 478.021 530.461 477.475 530.252 476.221V476.237Z" fill="#0E141B"/>
<path d="M517.825 442.461C520.285 443.329 528.532 445.66 534.93 446.866C536.12 446.576 536.795 444.824 537.342 444.197C531.506 443.233 524.85 441.946 519.063 440.644C514.497 439.615 510.96 440.033 517.809 442.477L517.825 442.461Z" fill="#0E141B"/>
<path d="M322.529 599.735C293.624 607.869 279.831 631.325 282.58 649.282C285.634 669.217 310.842 686.901 340.744 685.727C393.892 683.621 414.052 655.021 411.753 635.778C408.859 611.663 372.27 585.732 322.546 599.735H322.529ZM323.269 602.355C370.807 588.964 405.419 613.785 407.396 636.164C409.261 657.175 389.23 680.518 340.631 682.447C313.35 683.525 289.139 668.493 286.663 648.928C284.686 633.399 294.75 610.393 323.269 602.355Z" fill="#0E141B"/>
<path d="M345.535 597.484C335.68 605.924 330.423 620.425 329.748 630.794C329.539 633.929 329.603 638.446 331.822 640.504C338.124 646.34 388.813 640.504 405.934 625.103C406.32 624.749 405.628 621.582 405.098 622.129C389.681 637.835 338.397 642.385 333.832 638.157C332.754 637.16 332.24 634.475 332.481 630.987C333.076 621.92 339.008 605.602 350.294 597.645C350.905 597.21 346.339 596.809 345.551 597.5L345.535 597.484Z" fill="#0E141B"/>
<path d="M308.575 606.713C307.836 617.355 309.186 628.914 313.125 640.473C311.437 643.399 287.258 645.071 286.487 639.235C286.39 638.495 284.606 641.92 285.088 642.9C287.033 646.887 309.974 647.804 315.086 642.402C315.874 641.566 316.099 640.537 315.713 639.573C314.363 636.1 309.717 622.532 311.582 605.748C311.662 604.992 308.592 606.536 308.575 606.713Z" fill="#0E141B"/>
<path d="M312.112 657.594C304.894 660.166 291.165 660.712 287.869 656.87C287.371 656.291 288.592 660.905 289.718 661.404C295.891 664.169 307.273 662.224 313.028 660.166C315.376 659.33 315.665 659.925 315.954 662.159C317.08 670.921 319.266 677.593 322.465 682.03C322.755 682.448 327.288 683.251 326.758 682.721C323.157 679.12 319.845 670.873 318.671 661.822C317.851 655.52 316.694 655.954 312.112 657.61V657.594Z" fill="#0E141B"/>
<path d="M409.037 641.292C392.815 650.858 368.846 655.954 337.433 655.311C331.324 655.198 330.648 656.613 332.433 661.13C336.806 672.223 342.77 679.329 352.576 682.833C353.879 683.3 358.364 681.129 357.624 680.985C347.48 678.83 339.426 671.419 334.973 660.134C334.346 658.558 334.185 657.979 337.384 658.06C367.865 658.687 391.706 654.491 408.297 645.552C409.085 645.134 409.696 640.922 409.037 641.308V641.292Z" fill="#0E141B"/>
<path d="M373.942 543.276C374.456 554.786 376.996 570.123 382.333 578.853C387.719 587.646 397.783 584.045 394.857 574.158C390.79 560.477 388.378 553.243 385.565 540.221C383.202 529.289 373.411 531.845 373.942 543.26V543.276Z" fill="#0E141B"/>
<path d="M271.069 561.088C271.326 572.904 275.313 585.411 277.435 589.366C282.419 598.707 292.354 597.854 288.866 587.855C285.49 578.161 282.692 567.792 280.57 558.741C278.336 549.224 270.876 552.101 271.069 561.072V561.088Z" fill="#0E141B"/>
<path d="M276.262 559.095C276.889 561.828 275.41 564.513 272.982 565.059C270.539 565.606 268.063 563.837 267.436 561.104C266.809 558.372 268.288 555.687 270.716 555.14C273.159 554.594 275.635 556.362 276.262 559.095Z" fill="white"/>
<path d="M379.504 541.218C380.244 544.497 378.427 547.729 375.437 548.404C372.447 549.079 369.408 546.973 368.669 543.677C367.929 540.398 369.746 537.166 372.736 536.491C375.726 535.816 378.765 537.922 379.504 541.218Z" fill="white"/>
</g>
<defs>
<clipPath id="clip0_42_71541">
<rect width="620" height="532.432" fill="white" transform="translate(120 204)"/>
</clipPath>
</defs>
</svg>
