<svg width="800" height="800" viewBox="0 0 800 800" fill="none" xmlns="http://www.w3.org/2000/svg">
<g clip-path="url(#clip0_42_59479)">
<path d="M293.996 360.935C286.512 373.764 283.305 396.243 302.548 409.071C295.065 426.176 293.292 457.067 296.359 463.172C302.464 475.353 309.638 477.716 317.515 485.003C317.515 485.003 300.41 522.42 333.551 579.109C331.413 616.554 357.07 708.521 379.549 714.936C401.999 721.35 462.992 677.04 497.849 625.979C530.512 625.81 588.1 540.594 563.512 395.145C576.341 371.626 577.41 366.281 552.821 352.355C561.261 334.04 568.098 323.321 565.763 314.037C562.696 301.828 545.844 292.234 516.445 272.147C525.645 253.129 532.959 236.221 531.131 216.584C529.78 201.983 520.243 174.103 494.107 150.443C441.836 103.151 378.339 96.9333 344.242 105.317C241.949 130.468 209.23 255.773 238.376 306.385C258.688 341.692 293.996 360.935 293.996 360.935Z" fill="#F0E900"/>
<path d="M344.242 105.317C241.949 130.468 209.23 255.774 238.376 306.386C250.98 328.273 260.236 336.46 272.389 345.238C285.105 352.046 328.965 367.519 356.845 370.811C288.96 279.378 311.41 122 344.242 105.317Z" fill="#F8F399"/>
<path d="M338.39 385.045C334.929 379.672 330.653 374.777 328.965 372.076C320.384 370.05 319.118 371.485 301.282 364.705C297.287 371.963 294.727 385.805 301.985 396.833C312.141 398.943 324.492 394.723 338.39 385.045Z" fill="#F8F399"/>
<path d="M327.98 372.048C348.377 400.04 365.285 411.378 373.725 413.235C369.083 407.89 359.658 390.25 355.439 373.145C347.28 373.145 327.98 372.048 327.98 372.048Z" fill="#F8F399"/>
<path d="M317.121 484.637C320.975 477.492 337.152 462.609 342.947 459.599C342.947 451.834 343.819 452.031 345.929 439.371C338.305 453.55 321.904 469.98 314.87 471.134C307.837 472.287 301.929 468.151 299.341 466.801C308.709 478.533 309.609 477.745 317.121 484.609V484.637Z" fill="#CFC900"/>
<path d="M327.305 568.897C329.5 572.948 331.3 574.298 333.86 577.224C336.448 561.526 355.382 521.239 361.178 518.257C359.658 514.797 361.065 516.4 357.999 511.224C346.267 521.774 326.067 543.999 327.277 568.897H327.305Z" fill="#CFC900"/>
<path d="M394.065 564.142C386.948 541.438 372.206 478.42 370.349 412.166C364.413 410.478 359.799 406.877 354.088 401.166C347.927 419.143 340.865 471.133 342.919 482.668C345.085 494.906 385.794 562.988 394.093 564.17L394.065 564.142Z" fill="#F8F399"/>
<path d="M391.533 563.523C384.725 556.49 365.004 524.755 361.065 516.878C354.707 524.727 335.97 551.341 333.551 579.137C331.413 616.582 358.055 711.391 380.505 717.805C370.18 673.299 376.763 598.521 391.533 563.551V563.523Z" fill="#F8F399"/>
<path d="M567.507 416.414C567.113 413.769 563.934 397.846 563.484 395.173C572.542 378.547 575.75 370.979 568.154 363.073C565.481 375.199 540.499 408.312 516.163 420.465C491.856 432.619 480.378 438.695 467.521 433.969C454.692 429.243 442.539 398.859 441.188 391.432C439.838 384.004 461.36 389.294 481.053 385.355C499.368 382.035 539.908 362.679 553.356 351.229C560.22 336.853 568.182 328.188 563.906 316.288C548.601 333.337 519.849 350.385 506.064 356.293C492.278 362.201 484.457 367.772 454.721 366.421C442.567 347.516 504.91 291.559 528.88 281.543C527.501 280.587 517.908 273.131 516.445 272.147C523.028 258.558 528.626 246.039 530.624 232.817C531.412 227.556 526.207 230.763 514.222 252.622C506.176 267.308 494.023 282.781 479.028 296.144C440.738 330.27 417.613 351.595 358.364 370.135C356.592 370.697 356.789 374.495 356.789 374.495C356.789 374.495 390.549 371.795 377.579 409.803C386.16 410.337 396.457 393.71 405.431 397.452C426.362 420.409 443.27 443.084 443.27 460.274C445.24 493.752 397.666 556.349 391.533 562.482C398.932 566.308 435.646 525.627 441.892 530.522C472.613 554.604 458.096 658.191 413.533 706.13C458.125 677.096 485.92 643.449 497.849 625.95C508.68 625.894 522.268 616.469 534.675 598.605C522.944 602.121 524.744 599.786 505.839 541.691C538.276 513.333 525.729 452.115 527.698 450.146C539.486 430.987 558.757 415.035 567.563 416.386L567.507 416.414Z" fill="#CFC900"/>
<path d="M312.873 504.19C315.039 527.991 323.76 545.996 338.84 557.756C339.543 558.29 341.681 554.323 341.681 554.323C326.292 543.323 316.643 516.203 314.476 492.515L312.873 504.218V504.19Z" fill="#0E141B"/>
<path d="M514.532 444.829C514.644 445.335 525.757 488.238 485.695 538.315L486.821 543.042C531.102 497.494 518.471 444.407 518.33 443.872L514.504 444.829H514.532Z" fill="#0E141B"/>
<path d="M447.153 496.397C478.465 511.026 509.074 588.927 507.02 601.25C505.023 613.291 490.731 631.746 490.619 631.859L498.327 629.045C498.834 628.539 508.736 616.864 510.959 603.557C513.153 590.447 482.376 508.494 448.813 492.824L447.153 496.397Z" fill="#0E141B"/>
<path d="M337.743 461.062C331.497 465.788 323.732 471.668 315.855 483.906C315.855 483.906 312.451 499.38 316.643 488.914C320.835 478.42 334.113 468.742 340.134 464.185L344.467 460.809L341.935 457.771L337.771 461.034L337.743 461.062Z" fill="#0E141B"/>
<path d="M493.573 455.125C478.915 453.409 467.099 446.038 459.588 441.115C456.662 439.202 450.079 435.151 448.503 434.532L451.513 440.862C452.723 441.34 454.918 442.775 457.421 444.435C465.214 449.555 478.775 459.12 494.332 460.977C509.946 462.806 555.663 411.857 565.2 396.13C574.765 380.404 565.397 387.549 565.397 387.549C556.225 404.767 505.501 456.56 493.544 455.154L493.573 455.125Z" fill="#0E141B"/>
<path d="M486.736 379.476C461.051 384.061 445.887 377.76 427.206 371.261L419.751 368.701L421.411 372.33C440.738 379.054 462.907 391.123 487.833 384.54C519.202 376.24 540.668 363.074 551.049 354.325C555.325 350.724 553.356 346.897 552.202 347.854C537.657 360.092 494.613 378.097 486.736 379.504V379.476Z" fill="#0E141B"/>
<path d="M290.704 390.307L289.579 394.33C299.341 408.256 325.026 394.752 330.287 391.601C335.52 388.45 336.111 386.509 331.553 388.45C311.832 396.834 296.753 398.916 290.704 390.307Z" fill="#0E141B"/>
<path d="M489.015 361.217C459.672 371.598 433.367 362.118 426.672 361.892C419.976 361.667 421.861 363.609 429.204 365.353C444.902 369.038 466.03 373.99 490.393 364.903C520.58 353.621 552.258 334.378 565.875 318.455L564.637 313.419C551.583 328.639 513.097 352.693 489.015 361.217Z" fill="#0E141B"/>
<path d="M416.966 361.779C422.958 402.938 442.117 430.059 454.074 447.867C458.941 455.125 461.501 459.008 461.866 461.849C461.304 470.57 449.741 494.427 430.385 520C410.242 546.615 395.331 560.906 392.096 561.216C385.344 556.799 353.3 499.97 346.014 484.187C344.917 481.824 344.467 477.913 344.467 473.046C344.467 451.271 353.469 410.084 355.748 400.997L351.922 400.04C351.753 400.744 334.564 470.627 341.85 486.438C347.983 499.745 381.405 559.274 389.789 564.057C391.646 565.098 393.531 565.464 396.569 563.579C411.902 554.154 466.002 484.271 467.015 463.706V463.565V463.425C466.649 459.655 462.907 454.084 457.281 445.701C445.521 428.174 425.8 398.803 419.948 358.544L416.91 361.836L416.966 361.779Z" fill="#0E141B"/>
<path d="M372.093 409.521C366.298 413.15 340.922 386.255 331.947 373.68L325.083 372.076C325.392 372.526 363.063 421.872 374.654 414.642C383.853 408.902 415.7 372.611 426.559 348.697L420.539 351.567C409.876 375.058 380.027 404.57 372.093 409.549V409.521Z" fill="#0E141B"/>
<path d="M389.226 552.467C391.505 559.556 394.093 560.597 392.996 555.393C383.346 509.873 371.896 436.192 372.965 410.197L369.027 410.028C367.929 436.277 374.541 506.947 389.226 552.467Z" fill="#0E141B"/>
<path d="M336.955 621.59L338.868 624.431C343.679 594.582 369.392 575.733 399.776 578.433C418.682 580.093 438.938 589.94 452.779 606.707C465.355 621.927 470.756 642.802 469.012 660.02L471.488 656.306C473.373 638.048 471.15 621.055 457.9 604.991C443.411 587.436 419.948 574.635 400.03 572.891C367.451 570.021 342.103 589.602 336.955 621.59Z" fill="#0E141B"/>
<path d="M348.518 662.242C347.983 663.93 349.559 668.938 350.29 666.603C353.976 654.815 366.748 634.587 395.472 638.976C411.761 641.48 433.452 663.114 431.314 693.358L434.971 690.404C436.856 653.802 411.677 637.794 394.206 635.263C366.523 631.268 352.063 650.708 348.49 662.242H348.518Z" fill="#0E141B"/>
<path d="M575.356 373.174C575.356 365.494 568.379 358.038 555.184 350.358C558.701 346.082 569.335 326.332 569.335 319.749C569.335 307.145 558.026 297.721 521.424 272.541C532.65 257.743 537.32 241.285 537.32 224.293C537.32 222.239 537.235 220.185 537.038 218.075C535.463 201.196 524.632 173.344 499.227 150.331C442.201 98.7906 373.331 95.6397 343.679 102.926C281.026 118.343 251.767 167.239 239.895 195.006C230.499 217.035 224 240.357 224 261.316C224 279.209 227.489 295.414 234.494 307.624C252.358 338.626 282.798 357.194 290.732 361.921C287.862 367.575 284.993 378.913 284.993 386.425C284.993 396.299 289.41 402.376 299.566 409.916C291.885 429.919 288.538 458.811 296.809 469.136C303.701 477.745 313.098 484.413 314.561 485.707C313.239 489.252 310.144 506.244 310.144 519.692C310.144 536.29 314.758 551.595 331.047 579.7C328.937 624.938 358.533 713.727 378.142 719.325C402.224 726.218 465.214 678.082 499.903 627.836C509.693 627.189 520.383 622.941 530.821 610.534C552.849 584.314 572.852 537.219 572.852 468.349C572.852 447.417 570.123 419.959 566.044 395.568C571.558 385.384 575.328 379.026 575.328 373.174H575.356ZM240.514 305.148C225.997 279.94 227.573 236.446 244.453 196.919C255.931 169.996 284.289 122.591 344.832 107.709C382.081 98.5374 444.142 108.581 492.447 152.3C516.811 174.328 527.192 200.83 528.655 216.838C535.182 287.227 420.06 369.292 346.042 370.164C329.246 370.361 312.085 367.294 295.008 359.698C287.975 355.309 257.901 335.391 240.486 305.148H240.514ZM526.657 605.104C516.867 616.779 506.345 623.503 497.821 623.531H496.527L495.795 624.601C460.178 676.76 400.48 718.369 380.224 712.573C357.464 706.074 335.295 615.514 335.464 582.598C335.604 559.05 355.129 529.37 362.106 519.664C362.837 518.651 360.924 514.74 360.924 514.74C350.825 524.784 336.786 548.866 332.51 572.217C304.686 520.48 318.837 484.413 318.978 484.075C318.978 484.075 307.64 477.745 301.226 465.282C294.811 452.735 301.591 421.985 304.095 411.857C315.602 414.614 337.714 395.455 342.328 391.264L339.684 388.338C328.149 398.719 313.886 408.144 306.655 408.228C299.256 408.34 290.76 397.847 291.041 381.333C291.154 374.806 292.87 368.701 294.952 364.34C311.916 372.274 329.106 375.537 346.014 375.396C411.564 374.806 482.404 320.452 517.852 277.127C561.374 306.836 564.299 311.9 564.496 318.961C564.721 326.81 550.542 348.276 546.154 352.215C541.765 356.125 550.43 353.762 550.43 353.762C575.412 367.885 573.415 371.767 561.317 393.964L560.923 394.724L561.064 395.568C578.563 499.042 554.762 571.654 526.629 605.104H526.657Z" fill="#0E141B"/>
<path d="M426.728 336.854C391.786 358.826 360.812 368.588 354.96 368.588C335.52 368.588 277.706 346.616 270.138 341.215L270.842 345.772C278.156 351.005 333.607 371.852 354.763 371.852C370.068 371.852 482.179 331.087 531.243 228.738L530.483 220.776C504.207 275.58 458.265 317.02 426.7 336.854H426.728Z" fill="#0E141B"/>
<path d="M228.276 262.216C232.552 262.216 242.652 272.147 259.757 289.252C279.563 309.058 311.1 332.042 302.548 335.25C293.995 338.457 274.752 337.782 262.964 334.181C225.21 302.868 228.276 262.216 228.276 262.216Z" fill="#0E141B"/>
<path d="M427.684 231.523C397.751 247.558 375.272 318.145 388.101 321.352C400.93 324.559 461.894 292.487 476.861 274.285C491.828 256.111 481.138 241.116 465.102 233.633C449.066 226.149 439.472 225.164 427.656 231.494L427.684 231.523Z" fill="#0E141B"/>
<path d="M421.186 298.283C417.332 310.127 400.761 316.26 392.237 313.869C387.285 312.49 386.835 307.736 392.237 291.137C396.091 279.293 404.503 271.163 413.055 273.554C421.608 275.945 425.068 286.411 421.186 298.283Z" fill="white"/>
<path d="M282.939 314.572C294.192 325.938 294.164 327.823 291.717 330.271C287.187 334.744 278.072 332.887 271.348 326.107C264.624 319.327 261.783 310.915 266.312 306.442C268.675 304.107 272.502 304.05 282.939 314.6V314.572Z" fill="white"/>
</g>
<defs>
<clipPath id="clip0_42_59479">
<rect width="351.356" height="620" fill="white" transform="translate(224 100)"/>
</clipPath>
</defs>
</svg>
