<svg width="800" height="800" viewBox="0 0 800 800" fill="none" xmlns="http://www.w3.org/2000/svg">
<g clip-path="url(#clip0_42_71640)">
<path d="M571.971 647.189C571.579 640.444 570.931 634.619 569.99 631.305C567.794 623.657 543.772 607.734 524.161 598.596C511.474 592.673 499.217 593.517 492.491 601.282C505.277 613.558 518.906 628.56 520.73 637.482C522.142 644.385 519.573 655.818 515.866 666.937C519.024 668.761 522.063 671.055 522.534 673.428C523.436 678.016 523.24 694.43 521.279 696.724C518.455 700.019 506.297 702.156 500.355 701.156C507.65 709.726 521.338 718.982 535.849 718.982C549.204 718.982 566.323 702.843 570.892 689.763C572.343 685.625 572.912 663.662 571.951 647.17L571.971 647.189Z" fill="#FFE55F"/>
<path d="M267.113 684.095C264.701 681.134 260.622 651.307 264.015 648.268C266.799 645.758 276.408 638.561 283.448 634.835C265.858 623.402 249.856 608.695 236.011 590.379C228.795 598.086 214.519 611.519 211.067 624.089C207.479 637.169 212.362 676.408 221.853 687.174C230.815 697.332 249.464 707.647 265.329 707.882C275.526 708.039 293.763 691.39 293.763 691.39C293.763 691.39 271.212 689.135 267.133 684.095H267.113Z" fill="#FFE55F"/>
<path d="M260.583 593.536C269.231 589.222 257.916 560.101 247.424 548.512C239.364 549.257 232.128 549.198 225.696 548.59C226.265 571.73 249.66 598.988 260.583 593.536Z" fill="#FADCE9"/>
<path d="M255.974 588.008C261.328 585.341 247.542 553.474 239.953 549.67C235.187 550.121 234.364 550.023 230.579 549.67C232.109 570.594 251.581 590.204 255.974 588.008Z" fill="#F4B4D0"/>
<path d="M182.966 447.168C191.849 435.735 188.496 431.108 183.633 431.833C178.318 437.853 173.377 444.148 168.847 450.737C169.258 455.483 176.142 455.953 182.966 447.168Z" fill="#0E141B"/>
<path d="M349.573 687.685C347.749 686.901 346.083 682.371 344.749 676.37C344.18 673.782 350.907 665.408 353.436 662.741C334.12 658.917 315.569 652.603 298.254 643.504C296.881 650.407 294.704 666.114 296.861 675.272C299.469 686.391 319.511 701.883 330.61 704.825C344.847 708.59 366.908 696.608 369.477 688.901C360.163 687.862 351.377 688.431 349.553 687.666L349.573 687.685Z" fill="#DCC653"/>
<path d="M351.279 358.707C281.781 359.668 222.402 388.004 183.633 431.852C188.496 431.127 191.849 435.755 182.966 447.187C176.142 455.973 169.259 455.482 168.847 450.756C160.12 463.444 152.963 477.112 147.531 491.545C139.51 524.608 150.805 565.593 173.788 567.887C186.81 569.181 204.321 571.633 233.874 587.556C224.931 575.28 216.911 561.435 210.008 545.904C214.577 547.081 219.794 548.061 225.677 548.61C232.109 549.218 239.345 549.277 247.405 548.532C249.091 548.375 250.797 548.199 252.562 547.963C286.88 543.394 354.868 497.311 397.676 509.724C444.054 523.176 448.996 563.357 461.762 565.063C496.864 569.711 583.658 594.42 626.212 663.82C647.822 674.958 656.588 654.681 657.706 650.779C657.765 650.544 657.804 650.328 657.784 650.151C641.194 514.528 536.829 356.138 351.279 358.707Z" fill="#D28300"/>
<path d="M461.762 565.025C448.996 563.338 444.054 523.138 397.676 509.685C354.867 497.272 286.879 543.356 252.562 547.925C250.797 548.16 249.091 548.337 247.404 548.494C257.896 560.083 269.211 589.185 260.563 593.518C249.64 598.97 226.245 571.732 225.676 548.572C219.793 548.023 214.577 547.043 210.008 545.866C216.911 561.397 224.931 575.242 233.873 587.518C234.579 588.479 235.285 589.42 235.991 590.361C249.855 608.697 265.857 623.384 283.428 634.817C288.252 637.955 293.174 640.837 298.233 643.504C315.53 652.603 334.1 658.918 353.416 662.742C386.714 669.331 422.267 668.546 457.644 661.957C457.801 660.193 457.702 658.898 457.291 658.33C455.663 656.035 443.76 642.387 434.602 634.543C427.091 628.111 428.366 603.618 437.249 590.361C447.446 575.144 461.546 575.889 469.9 581.595C472.704 583.517 482.333 591.538 492.491 601.284C499.217 593.518 511.473 592.675 524.161 598.597C543.771 607.755 567.793 623.659 569.99 631.307C570.931 634.621 571.578 640.445 571.97 647.191C593.404 649.25 608.269 657.918 625.114 662.31C614.858 639.602 552.243 577.007 461.762 565.025ZM353.887 586.753C334.826 586.753 319.334 571.32 319.334 552.357C319.334 533.394 334.983 518.608 354.22 518.608C373.458 518.608 388.459 533.433 388.459 552.357C388.459 573.261 374.889 586.753 353.906 586.753H353.887Z" fill="#0E141B"/>
<path d="M354.22 518.607C334.983 518.607 319.334 533.746 319.334 552.356C319.334 570.966 334.846 586.752 353.887 586.752C374.889 586.752 388.44 573.241 388.44 552.356C388.44 533.433 373.399 518.607 354.201 518.607H354.22Z" fill="#FADCE9"/>
<path d="M354.142 526.451C339.336 526.451 327.296 538.1 327.296 552.415C327.296 566.73 339.219 578.888 353.887 578.888C370.046 578.888 380.478 568.495 380.478 552.415C380.478 537.864 368.908 526.451 354.142 526.451Z" fill="#F4B4D0"/>
<path d="M520.749 637.483C518.925 628.56 505.296 613.559 492.511 601.283C482.353 591.537 472.724 583.516 469.92 581.594C461.566 575.888 447.466 575.143 437.269 590.36C428.386 603.636 427.111 628.109 434.622 634.542C443.78 642.386 455.663 656.054 457.311 658.329C457.722 658.897 457.82 660.191 457.664 661.956C456.84 671.624 448.486 695.784 442.132 698.274C434.622 701.216 417.62 695.666 415.659 697.627C413.816 699.47 430.033 717.571 442.132 721.806C462.88 729.101 483.804 716.747 501.61 698.274C504.081 695.725 510.964 681.606 515.866 666.937C519.573 655.818 522.141 644.386 520.73 637.483H520.749Z" fill="#FFE55F"/>
<path d="M366.32 402.554C357.986 400.554 350.75 403.437 349.299 409.457C348.162 414.183 352.515 421.4 361.34 423.4C371.164 425.616 377.498 423.086 378.832 417.105C380.244 410.712 373.537 404.28 366.32 402.535V402.554Z" fill="#0E141B"/>
<path d="M571.97 647.189C571.578 640.444 570.93 634.619 569.989 631.305C567.793 623.657 543.771 607.734 524.16 598.596C511.473 592.673 499.216 593.517 492.49 601.282C505.276 613.558 518.905 628.56 520.729 637.482C521.042 638.992 521.121 640.757 521.082 642.64C540.594 644.464 557.576 653.563 572.421 666.466C572.46 660.073 572.303 653.249 571.95 647.189H571.97Z" fill="#DCC653"/>
<path d="M264.014 648.268C266.798 645.758 276.407 638.561 283.447 634.835C265.857 623.402 249.855 608.695 236.01 590.379C228.794 598.086 214.518 611.519 211.066 624.089C210.204 627.226 209.831 631.913 209.89 637.325C229.48 637.463 247.012 644.679 262.719 655.72C262.719 651.974 263.072 649.111 263.994 648.287L264.014 648.268Z" fill="#DCC653"/>
<path d="M510.708 620.618C505.472 614.226 498.883 607.421 492.49 601.283C482.332 591.537 472.704 583.516 469.899 581.594C461.545 575.888 447.446 575.143 437.249 590.36C428.365 603.636 427.091 628.109 434.601 634.542C437.386 636.934 440.445 639.875 443.387 642.876C460.545 625.776 486.235 618.128 510.708 620.618Z" fill="#DCC653"/>
<path d="M576.284 543.983C575.402 562.612 511.454 569.319 469.723 550.336C450.898 541.786 445.074 472.425 369.908 484.191C299.037 495.291 275.447 519.607 211.4 520.254C195.987 520.411 161.316 501.997 146.354 534.511C149.864 554.395 159.649 566.436 173.808 567.848C186.829 569.142 204.34 571.593 233.893 587.517C224.951 575.241 216.93 561.396 210.027 545.865C214.597 547.042 219.813 548.022 225.696 548.571C232.128 549.179 239.364 549.238 247.424 548.493C249.11 548.336 250.816 548.159 252.581 547.924C286.899 543.355 354.887 497.271 397.696 509.685C444.073 523.137 449.015 563.318 461.781 565.024C496.883 569.672 588.521 595.949 622.564 660.113C642.331 678.429 659.431 654.76 658.706 645.288C657.49 629.522 609.7 567.613 576.304 543.983H576.284Z" fill="#AC6B00"/>
<path d="M494.099 406.457C496.707 424.106 510.63 470.052 517.18 483.799C528.671 507.919 605.837 563.455 637.644 608.205C563.518 510.939 513.199 408.908 494.099 406.457Z" fill="#AC6B00"/>
<path d="M363.614 409.496C363.417 411.378 360.966 412.653 358.182 412.359C355.377 412.045 353.279 410.28 353.495 408.397C353.691 406.515 356.142 405.24 358.927 405.534C361.711 405.848 363.829 407.613 363.614 409.496Z" fill="#8B989F"/>
<path d="M184.613 439.01C183.417 440.422 181.809 441.011 181.024 440.364C180.24 439.697 180.573 438.01 181.769 436.598C182.966 435.186 184.574 434.579 185.358 435.245C186.142 435.912 185.809 437.598 184.613 439.01Z" fill="#8B989F"/>
<path d="M426.915 705.236C412.423 698.275 410.678 694.922 429.21 698.706C446.859 702.295 456.468 700.334 469.253 692.451C474.372 689.293 475.489 690.549 470.606 696.51C458.978 710.708 442.878 712.884 426.915 705.236Z" fill="#FFF3B8"/>
<path d="M287.095 692.666C302.901 689.704 285.193 689.175 266.446 686.822C253.092 685.155 243.012 675.919 238.129 669.133C234.619 664.251 232.658 663.466 234.658 670.918C240.659 693.195 255.19 698.627 287.095 692.666Z" fill="#FFF3B8"/>
<path d="M206.36 544.668C251.601 654.504 352.102 687.155 457.585 664.78C458.408 664.603 458.212 660.152 457.585 660.269C343.631 681.586 254.581 640.287 212.185 546.649C211.42 544.962 206.066 543.943 206.36 544.649V544.668Z" fill="#0E141B"/>
<path d="M656.784 643.484C646.548 529.393 543.791 351.372 351.083 354.039C222.617 355.804 158.473 443.442 142.549 489.525C136.706 506.429 141.255 541.394 152.276 556.964C158.787 566.142 164.493 572.535 173.141 573.437C187.104 574.907 205.498 574.417 235.56 591.066C236.364 591.517 233.952 585.654 232.207 584.732C204.792 570.319 187.809 567.593 173.965 566.201C167.886 565.593 162.258 561.867 157.708 555.454C147.354 540.864 143.765 514.136 149.158 491.898C178.691 413.36 258.053 361.648 351.299 360.373C522.945 358.001 627.644 499.723 652.097 632.659C654.117 635.326 654.431 641.17 656.764 643.503L656.784 643.484Z" fill="#0E141B"/>
<path d="M625.309 661.858C615.132 655.504 590.933 647.347 572.225 645.503C571.264 645.405 572.186 650.798 573.206 650.876C593.424 652.445 618.72 661.721 632.448 667.604C632.546 664.937 625.859 664.29 625.309 661.838V661.858Z" fill="#0E141B"/>
<path d="M648.548 665.25C662.51 655.759 661.216 642.032 657.627 634.992C629.977 580.711 546.87 515.331 531.554 497.898C519.867 484.602 501.904 442.009 495.629 407.398C493.844 397.553 490.157 401.809 492.02 412.183C498.864 450.344 514.258 489.23 526.201 502.506C542.948 521.136 620.78 575.966 653.803 637.855C658.745 647.111 655.254 655.936 647.371 661.662C637.703 668.702 629.663 664.564 622.584 654.327C611.681 638.561 596.993 622.245 578.481 609.617C536.986 581.319 487.941 563.827 461.997 560.376C458.193 559.866 455.428 555.473 450.976 548.57C442.348 535.177 430.033 513.939 399.657 505.134C371.811 497.055 334.1 513.723 301.038 527.686C282.938 535.334 264.602 543.531 252.366 545.158C220.029 549.473 197.301 536.942 187.633 532.804C184.201 531.333 175.279 537.471 169.572 543.688C163.63 550.139 166.101 551.237 169.572 547.943C172.572 545.08 184.025 537.354 187.064 538.962C194.536 542.923 219.186 554.081 252.817 549.61C265.504 547.923 282.801 540.609 301.116 532.882C333.649 519.155 370.536 503.585 397.245 511.331C426.444 519.803 439.073 539.393 447.447 552.375C452.545 560.297 456.252 566.004 461.566 566.729C486.686 570.063 534.437 586.634 575.285 613.578C601.072 630.599 609.936 646.817 621.466 660.897C627.84 668.702 637.939 672.526 648.567 665.29L648.548 665.25Z" fill="#0E141B"/>
<path d="M208.263 522.567C210.302 528.901 216.126 537.589 220.715 540.589C225.206 543.53 229.559 542.04 225.5 539.118C221.813 536.471 214.636 526.548 210.596 518.685C206.831 511.37 205.772 514.743 208.282 522.567H208.263Z" fill="#0E141B"/>
<path d="M354.221 516.391C333.63 516.391 316.844 531.275 316.844 552.375C316.844 572.26 333.787 590.321 353.769 590.321C373.752 590.321 392.107 577.339 392.107 552.179C392.107 532.334 374.36 516.391 354.221 516.391ZM353.887 585.085C335.748 585.085 321.001 570.397 321.001 552.355C321.001 534.314 335.905 520.273 354.221 520.273C372.536 520.273 386.793 534.353 386.793 552.355C386.793 572.24 373.889 585.085 353.907 585.085H353.887Z" fill="#0E141B"/>
<path d="M245.796 549.219C254.072 558.004 263.485 579.144 261.779 588.733C260.837 594.087 256.249 593.577 250.954 590.361C237.658 582.301 227.598 563.377 227.343 548.297C227.343 547.376 223.539 547.807 223.559 548.729C223.872 566.672 235.207 585.851 248.934 594.185C257.543 599.401 265.034 595.852 266.191 589.322C268.27 577.595 256.857 555.867 250.385 548.336C250.032 547.944 245.189 548.552 245.816 549.239L245.796 549.219Z" fill="#0E141B"/>
<path d="M232.794 588.947C225.225 596.811 210.459 611.636 207.36 622.912C203.673 636.345 209.733 677.604 219.891 689.096C228.951 699.372 249.424 710.981 265.857 711.216C276.584 711.373 294.115 693.312 294.88 692.606C297.115 690.567 295.998 689.919 293.919 689.723C285.467 688.88 272.171 685.193 269.524 681.938C267.367 679.075 263.759 652.464 266.131 649.582C268.681 647.287 278.545 640.934 285.487 637.325C286.546 636.776 283.467 632.913 281.878 633.795C274.681 637.757 265.504 644.699 262.896 647.052C261.543 648.268 261.013 651.798 261.013 656.229C261.013 666.917 264.033 682.958 265.818 685.154C269.289 689.429 282.957 691.704 289.801 692.606C283.486 697.901 271.995 706.333 265.347 706.215C249.836 705.98 231.677 695.802 223.087 686.076C213.91 675.683 209.302 636.757 212.655 624.54C215.538 614.087 229.068 600.36 236.403 592.752L232.775 588.967L232.794 588.947Z" fill="#0E141B"/>
<path d="M294.92 642.562C293.508 649.386 291.978 665.525 294.253 675.153C297.136 687.39 319.079 705.275 330.198 708.216C345.082 712.158 368.006 698.607 370.889 689.939C371.321 688.645 371.928 687.527 369.673 687.272C364.83 686.723 350.867 685.841 350.22 685.606C350.22 685.606 348.181 681.115 347.357 676.389C347.2 674.33 354.848 665.27 356.515 663.976C357.241 663.407 352.397 661.466 351.554 662.387C348.632 665.623 343.239 672.545 343.043 676.134C342.768 681.135 347.475 688.626 348.906 689.234C350.044 689.724 362.986 690.096 366.732 690.41C361.751 697.097 343.435 706.53 331.041 703.255C319.883 700.294 300.822 684.88 298.489 674.938C296.489 666.447 298.41 651.602 299.744 644.562C300.077 642.816 295.175 641.326 294.9 642.581L294.92 642.562Z" fill="#0E141B"/>
<path d="M427.111 617.716C427.111 625.58 428.915 633.404 432.994 636.836C440.191 642.876 453.682 656.936 455.369 659.27C453.839 680.782 443.485 694.705 441.661 695.431C437.759 696.96 427.934 696.647 422.051 695.666C413.129 694.176 411.932 696.254 415.247 701.451C419.188 707.667 429.287 720.296 443.112 724.513C461.605 730.141 483.999 721.316 503.276 701.353C507.786 696.686 528.063 654.054 524.612 637.15C521.121 620.03 476.744 582.457 471.371 578.771C449.564 563.847 427.13 585.418 427.13 617.697L427.111 617.716ZM442.74 699.823C452.819 695.882 463.017 661.898 459.761 657.368C458.075 655.014 444.956 641.209 435.7 633.287C432.523 630.561 426.62 609.264 438.641 591.301C442.897 584.948 448.27 581.006 454.173 579.869C459.232 578.888 464.625 580.026 468.959 583.006C475.802 587.693 516.042 622.893 519.082 637.856C522.259 653.387 504.041 693.372 500.393 697.157C479.646 718.669 460.232 726.454 442.661 720.277C432.405 716.669 419.561 703 417.561 698.902C419.071 698.902 421.875 699.333 424.208 699.667C430.346 700.588 437.994 701.726 442.72 699.882L442.74 699.823Z" fill="#0E141B"/>
<path d="M490.412 599.439C489.941 600.027 493.158 603.047 493.667 602.439C499.766 595.321 511.14 594.34 523.455 600.086C544.732 610.009 566.558 625.403 568.382 631.756C571.48 642.581 571.284 683.625 569.323 689.214C564.989 701.607 548.36 717.315 535.849 717.315C523.337 717.315 512.062 710.53 504.414 703.039C510.905 702.921 519.749 701.607 522.533 698.352C525.573 694.803 526.259 675.291 525.828 673.094C525.318 670.486 521.063 667.917 516.042 665.113C515.238 664.662 514.219 668.996 515.042 669.466C519.866 672.231 520.945 674.055 521.121 674.957C522.043 679.703 521.376 693.704 519.984 695.626C517.807 698.176 507.218 699.705 501.433 698.744C499.492 698.43 498.59 701.666 499.06 702.235C506.296 710.726 520.102 722.08 535.653 722.08C551.203 722.08 569.617 703.451 573.578 688.606C575.539 681.252 576.638 641.679 573.225 629.717C570.656 620.716 542.438 603.557 524.514 595.203C510.473 588.653 497.354 590.693 490.373 599.439H490.412ZM500.08 702.804C500.08 702.804 500.276 702.804 500.354 702.804C500.256 702.804 500.158 702.804 500.08 702.804Z" fill="#0E141B"/>
<path d="M366.418 400.829C357.927 398.848 348.494 402.26 347.357 409.006C345.847 414.007 349.71 422.027 360.633 424.91C370.595 427.636 379.694 424.655 381.694 417.889C383.42 412.065 377.576 403.319 366.418 400.829ZM377.203 416.752C376.478 420.007 371.987 424.106 361.711 421.772C353.71 419.968 349.965 413.791 350.926 409.849C352.142 404.77 358.456 402.378 365.927 404.182C372.222 405.692 378.38 411.398 377.203 416.772V416.752Z" fill="#0E141B"/>
<path d="M188.554 431.539C187.515 430.558 186.103 430.107 184.574 430.107C182.475 431.343 181.495 432.99 180.73 434.814C182.966 433.284 185.338 433.088 186.26 433.971C187.299 434.951 187.496 438.638 181.652 446.148C177.122 451.973 172.847 453.13 171.258 452.09C170.749 451.757 170.513 451.149 170.494 450.365C169.513 451.326 168.199 453.581 167.219 453.757C167.631 454.816 168.317 455.6 169.101 456.11C172.18 458.111 178.808 456.816 184.613 449.345C192.673 438.971 190.417 433.304 188.554 431.539Z" fill="#0E141B"/>
</g>
<defs>
<clipPath id="clip0_42_71640">
<rect width="520" height="372.199" fill="white" transform="translate(140 354)"/>
</clipPath>
</defs>
</svg>
