<svg width="800" height="800" viewBox="0 0 800 800" fill="none" xmlns="http://www.w3.org/2000/svg">
<g clip-path="url(#clip0_42_71678)">
<path d="M420.395 382.037C420.395 380.909 420.125 379.209 419.775 378.002C401.571 391.79 381.857 400.257 363.144 404.578C370.864 419.192 377.107 427.929 384.907 431.265C387.75 432.488 390.816 432.981 394.232 432.79C396.217 432.679 398.314 432.329 400.57 431.742C405.224 422.449 409.497 412.06 410.641 405.738C411.102 403.228 411.594 400.988 412.166 398.986C411.817 391.79 413.882 384.547 420.41 382.037H420.395Z" fill="#D4D9DC"/>
<path d="M466.843 445.101C450.148 427.468 445.446 407.596 440.219 394.729C440.68 396.412 441.014 398.255 441.204 400.272C441.57 404.148 441.141 407.421 440.029 410.36C441.363 412.107 442.411 415.554 441.411 419.303C447.749 420.447 455.199 434.521 456.502 443.671C456.851 446.165 455.819 449.39 453.785 452.424C457.693 449.262 462.316 446.753 466.843 445.116V445.101Z" fill="#0E141B"/>
<path d="M394.216 432.806C394.915 434.617 396.456 436.237 397.726 437.191C398.664 435.443 399.617 433.632 400.554 431.758C398.298 432.346 396.201 432.695 394.216 432.806Z" fill="#D4D9DC"/>
<path d="M363.144 404.594C354.677 406.548 346.417 407.675 338.586 408.057C345.702 425.372 352.771 437.254 372.024 434.617C375.805 434.093 380.078 433.012 384.907 431.297C377.107 427.961 370.864 419.224 363.144 404.61V404.594Z" fill="#D4D9DC"/>
<path d="M377.203 365.898C378.267 364.453 378.982 341.832 378.172 338.004C366.131 353.937 354.534 369.282 346.242 382.054C357.346 379.051 372.421 372.475 377.203 365.898Z" fill="white"/>
<path d="M276.157 339.527C273.091 345.58 272.217 353.189 272.789 360.798C273.043 364.149 277.237 371.218 279.588 374.888C277.523 364.324 276.395 352.172 276.157 339.527Z" fill="white"/>
<path d="M540.884 476.634C529.288 464.847 512.243 452.885 498.788 446.15C506.89 447.087 515.531 447.786 522.425 447.85C535.038 447.945 531.353 444.371 527.89 440.892C522.457 435.459 502.902 423.164 489.035 417.652C505.333 419.939 521.059 420.225 534.546 418.255C549.287 416.095 546.364 410.901 536.627 405.547C526.698 400.083 518.708 395.921 507.636 391.346C479.519 379.734 448.273 369.599 429.735 369.774C426.479 372.712 423.159 375.445 419.775 378.002C420.125 379.21 420.395 380.909 420.395 382.037C422.158 381.354 424.255 381.02 426.717 381.132C431.61 381.354 434.771 384.182 437.392 388.757C438.631 390.345 439.568 392.362 440.235 394.745C445.461 407.612 450.163 427.485 466.859 445.117C466.859 445.117 466.875 445.117 466.891 445.117C475.627 441.972 496.564 452.726 501.012 465.673C501.711 467.722 502.346 469.739 502.95 471.757C505.794 474.362 508.637 476.999 511.465 479.652C519.63 483.893 527.874 486.657 537.326 487.626C548.684 488.802 549.637 485.545 540.9 476.649L540.884 476.634Z" fill="#965E0E"/>
<path d="M303.178 242.74C284.56 237.641 274.759 221.883 271.439 216.243C269.024 212.161 267.198 209.397 263.226 218.896C255.157 238.276 245.339 270.809 245.244 304.565C245.212 315.463 246.213 326.503 248.596 337.257C253.822 360.751 265.736 382.943 288.388 399.607C286.149 396.128 284.242 392.188 282.829 387.804C281.558 383.864 280.478 379.528 279.556 374.889C277.205 371.204 273.012 364.135 272.757 360.799C272.186 353.19 273.059 345.581 276.125 339.529C275.633 312.444 279.302 283.104 286.895 262.374C291.28 250.413 296.871 244.869 303.146 242.74H303.178Z" fill="#965E0E"/>
<path d="M507.859 233.193C483.904 247.982 451.148 256.338 451.196 256.497C434.246 260.198 412.118 292.954 385.542 328.25C383.08 331.523 380.618 334.779 378.172 338.02C378.982 341.832 378.267 364.453 377.203 365.914C372.421 372.491 357.346 379.083 346.242 382.07C339.031 393.173 334.313 402.323 333.995 408.185C335.504 408.169 354.662 406.565 363.128 404.595C414.851 392.617 438.583 365.041 465.382 327.965C486.271 299.053 507.89 262.883 516.325 238.499C519.884 228.205 517.247 227.411 507.859 233.209V233.193Z" fill="#965E0E"/>
<path d="M426.717 381.116C424.255 381.005 422.174 381.354 420.395 382.022C413.866 384.531 411.801 391.791 412.15 398.971C414.422 391.013 417.932 386.803 425.319 385.072C430.672 383.817 434.707 385.262 437.376 388.725C434.755 384.15 431.594 381.307 426.701 381.1L426.717 381.116Z" fill="#0E141B"/>
<path d="M465.382 327.947C459.107 336.621 452.912 344.627 447.145 351.489C456.788 349.313 479.599 351.839 491.274 355.333C489.575 348.376 475.214 333.888 465.382 327.963V327.947Z" fill="#965E0E"/>
<path d="M245.26 304.55C242.131 301.166 240.685 297.846 239.668 295.4C238.922 293.605 236.65 292.382 235.03 292.922C235.379 297.592 233.108 301.674 230.137 302.691C225.769 304.184 221.655 303.406 218.827 300.277C216.969 306.472 218.017 310.936 225.626 315.002C232.774 318.815 237.905 319.228 248.596 337.257C246.213 326.503 245.212 315.463 245.244 304.566L245.26 304.55Z" fill="#965E0E"/>
<path d="M404.478 499.46C405.256 501.811 416.455 512.406 436.899 509.213C434.358 498.57 426.097 482.78 418.361 472.217C404.287 480.97 404.208 498.634 404.478 499.46Z" fill="#0E141B"/>
<path d="M235.03 292.92C234.823 290.124 233.696 287.138 231.218 284.453C217.397 269.521 213.124 250.268 211.377 226.186C210.487 213.859 199.415 217.306 189.932 219.213C170.457 223.152 149.726 217.243 115.24 229.046C81.1817 240.705 24.0108 281.784 12.7958 360.353C10.1589 378.811 12.6052 377.826 20.2936 363.387C31.2544 342.847 60.1655 303.881 95.5737 286.105C120.974 273.365 146.835 270.919 176.89 274.445C180.75 274.906 183.324 261.515 194.237 248.648C205.722 258.417 213.776 283.548 215.491 292.856C216.095 296.081 217.27 298.527 218.843 300.275C221.671 303.404 225.785 304.183 230.153 302.689C233.124 301.673 235.379 297.59 235.046 292.92H235.03Z" fill="#D4D9DC"/>
<path d="M209.757 677.073C212.092 675.722 215.523 674.674 219.431 674.086C218.271 671.64 217.111 668.749 215.984 665.492C212.997 669.035 211.155 673.292 209.757 677.073Z" fill="#D4D9DC"/>
<path d="M456.502 443.671C455.199 434.521 447.749 420.462 441.411 419.303C441.411 424.211 431.927 429.469 423.302 429.914C419.711 435.426 415.947 443.544 412.039 451.327C414.104 453.392 418.377 456.903 421.491 458.523C428.75 457.936 435.057 462.082 440.616 461.256C443.412 460.827 445.97 459.667 448.194 458.11C449.766 456.029 451.657 454.139 453.785 452.423C455.819 449.405 456.867 446.165 456.502 443.671Z" fill="#D4D9DC"/>
<path d="M412.039 451.328C410.339 454.712 408.624 458.032 406.892 461.05C409.831 462.924 419.775 458.651 421.491 458.524C418.393 456.92 414.12 453.393 412.039 451.328Z" fill="#D4D9DC"/>
<path d="M255.474 658.249C248.199 660.695 235.634 657.661 229.851 658.185C230.026 663.3 230.36 668.511 230.82 673.816C234.855 674.229 238.858 675.198 242.417 676.914C244.863 675.897 248.739 674.277 252.52 672.847C254.791 669.527 257.158 663.205 255.49 658.265L255.474 658.249Z" fill="#D4D9DC"/>
<path d="M440.029 410.359C438.059 415.538 433.913 419.7 427.908 424.402C426.415 425.577 424.874 427.5 423.302 429.914C435.215 429.295 440.426 422.94 441.411 419.303C442.411 415.554 441.363 412.107 440.029 410.359Z" fill="#D4D9DC"/>
<path d="M436.899 509.231C416.455 512.408 405.256 501.828 404.478 499.477C404.208 498.651 404.287 480.987 418.361 472.234C417.901 471.599 417.44 470.979 416.979 470.391C413.977 466.484 413.739 462.878 414.771 460.447C411.689 461.607 409.227 461.845 406.892 461.067C405.764 463.037 404.621 464.863 403.477 466.515C400.856 470.28 396.916 471.948 393.946 471.885C393.421 474.299 391.642 476.46 388.052 477.54C383.589 478.874 375.852 475.205 363.7 472.552C340.142 481.114 315.6 507.261 315.044 523.305C314.901 527.324 315.822 530.644 317.474 533.36C323.304 543.019 338.268 545.052 347.211 543.257C383.366 536.029 405.049 517.046 422.92 515.887C430.593 515.394 431.324 518.762 438.123 515.505C437.852 514.886 437.296 510.851 436.915 509.231H436.899Z" fill="#965E0E"/>
<path d="M343.129 556.679C342.764 554.646 341.699 549.801 338.077 545.258C331.358 548.26 322.319 548.482 318.809 545.544C318.11 544.956 317.522 544.162 317.061 543.24C312.073 546.926 312.725 552.12 312.82 557.918C313.233 580.396 296.331 624.096 287.261 634.819C284.925 637.567 280.843 643.682 284.354 646.923C285.037 647.543 285.958 648.067 287.261 648.432C296.951 651.117 304.846 656.025 308.912 655.851C310.199 655.787 311.454 655.453 312.613 654.786C316.346 652.642 318.967 647.082 317.983 636.264C314.678 600.189 343.542 558.967 343.129 556.695V556.679Z" fill="#965E0E"/>
<path d="M443.793 469.199C444.048 465.164 445.7 461.431 448.194 458.111C445.97 459.668 443.396 460.828 440.616 461.257C435.057 462.099 428.75 457.937 421.491 458.524C419.775 458.667 415.232 460.256 414.771 460.431C413.755 462.861 413.866 466.562 416.979 470.375C422.73 477.428 434.358 498.587 436.899 509.23C438.25 514.901 438.043 522.621 446.43 516.934C448.098 515.791 450.02 513.948 452.197 511.12C448.162 490.803 442.84 484.878 443.793 469.199Z" fill="#D4D9DC"/>
<path d="M581.455 699.313C578.389 695.485 559.39 682.824 555.578 671.148C550.05 678.916 538.025 678.805 531.607 672.928C527.795 682.189 525.761 700.52 527.572 708.606C533.021 702.951 535.086 700.457 539.311 700.6C543.489 700.743 549.637 709.13 545.856 718.073C545.649 718.343 544.982 718.852 544.013 719.567C549.113 719.281 561.249 719.138 565.697 719.201C561.328 715.564 563.139 701.759 569.303 699.996C574.195 698.598 577.547 700.981 583.393 705.953C583.329 703.729 582.424 700.473 581.471 699.281L581.455 699.313Z" fill="#965E0E"/>
<path d="M446.43 516.918C446.383 521.492 448.559 522.573 454.087 522.684C453.515 518.347 452.88 514.519 452.197 511.104C450.02 513.915 448.098 515.774 446.43 516.918Z" fill="#965E0E"/>
<path d="M312.613 654.787C311.454 655.454 310.199 655.788 308.912 655.851C304.846 656.026 296.951 651.118 287.261 648.433C285.958 648.068 285.021 647.543 284.354 646.924C278.047 650.18 265.8 656.36 255.474 658.25C257.142 663.19 254.775 669.513 252.504 672.833C256.618 671.276 260.558 669.942 262.321 669.862C267.039 669.656 270.327 684.794 263.004 689.194C287.515 680.029 312.042 682.983 317.347 674.199C321.239 667.765 314.408 660.665 312.598 654.787H312.613Z" fill="#965E0E"/>
<path d="M512.735 523.685C510.114 506.021 508.303 489.595 502.934 471.74C502.331 469.739 501.695 467.706 500.996 465.656C496.564 452.71 475.612 441.956 466.875 445.101C466.875 445.101 466.859 445.101 466.843 445.101C456.549 448.818 444.572 456.443 443.793 469.183C442.824 484.862 448.146 490.787 452.197 511.104C452.88 514.519 453.515 518.332 454.087 522.684C454.691 527.243 455.215 532.343 455.612 538.188C456.565 552.12 465.842 567.782 484.507 569.562C483.173 565.717 478.455 552.374 490.178 548.101C503.395 543.287 508.367 557.028 508.923 560.618C512.688 558.235 514.578 550.769 514.578 543.351C514.578 537.648 513.816 531.008 512.735 523.685Z" fill="#965E0E"/>
<path d="M437.392 388.757C434.707 385.294 430.688 383.833 425.335 385.103C417.948 386.835 414.422 391.044 412.166 399.003C411.594 401.004 411.102 403.244 410.641 405.754C408.163 419.527 393.692 445.928 389.005 450.63C385.971 453.664 384.859 457.905 385.002 460.733H385.034C390.467 460.479 395.058 466.753 393.962 471.868C396.932 471.932 400.872 470.264 403.493 466.499C404.636 464.863 419.727 435.428 423.317 429.916C424.89 427.501 426.431 425.579 427.924 424.403C433.929 419.701 438.075 415.539 440.045 410.361C442.967 402.672 440.458 394.094 437.392 388.741V388.757Z" fill="#965E0E"/>
<path d="M394.216 432.806C390.8 433.013 387.735 432.504 384.891 431.281C380.062 432.997 375.805 434.077 372.008 434.601C376.059 441.607 382.731 447.818 389.657 449.867C391.785 447.421 394.708 442.734 397.711 437.191C396.44 436.237 394.899 434.617 394.2 432.806H394.216Z" fill="#D4D9DC"/>
<path d="M539.105 606.891C524.617 589.815 516.405 574.343 515.277 565.383C515.134 564.255 510.511 560.221 508.081 559.395C508.78 565.113 506.651 570.8 501.377 573.151C494.134 576.376 486.747 571.944 483.92 567.353C482.522 570.737 484.11 580.093 486.286 581.666C500.583 591.991 508.192 605.017 517.453 622.967C529.955 647.192 525.586 661.886 528.366 668.431C529.097 670.178 530.225 671.671 531.575 672.91C537.993 678.788 550.018 678.899 555.546 671.131C556.976 669.114 557.992 666.588 558.342 663.474C561.424 636.009 553.131 623.444 539.089 606.891H539.105Z" fill="#965E0E"/>
<path d="M625.362 624.794C599.802 572.945 557.722 523.113 511.449 479.635C508.621 476.982 505.778 474.345 502.934 471.74C508.303 489.595 510.114 506.021 512.735 523.685C513.816 531.008 514.578 537.648 514.578 543.351C541.345 562.413 575.72 590.593 617.737 628.4C628.126 637.757 630.81 635.85 625.362 624.778V624.794Z" fill="#965E0E"/>
<path d="M392.167 250.127C363.128 253.51 337.633 246.68 321.318 243.058C314.98 241.644 308.801 240.834 303.193 242.74C296.919 244.869 291.327 250.413 286.943 262.374C279.35 283.104 275.68 312.444 276.173 339.529C276.633 365.072 280.589 387.486 288.42 399.607C300.541 418.351 322.78 423.244 333.995 408.328C333.995 408.28 333.995 408.232 333.995 408.185C334.313 402.323 339.03 393.173 346.242 382.069C354.534 369.298 383.08 331.522 385.542 328.25C412.118 292.953 433.42 260.452 451.196 256.497C447.225 242.486 407.861 248.316 392.151 250.143L392.167 250.127Z" fill="#965E0E"/>
<path d="M507.525 556.648C506.032 551.422 499.821 544.591 490.162 548.102C482.347 550.945 480.822 559.857 483.094 565.782C484.094 568.387 490.988 577.759 501.362 573.153C509.272 569.642 509.002 561.858 507.509 556.648H507.525Z" fill="#965E0E"/>
<path d="M539.295 700.615C535.07 700.472 523.791 712.481 521.234 714.911C513.863 721.885 515.483 739.136 519.852 746.682C523.712 733.751 538.66 723.521 544.013 719.582C544.982 718.867 545.649 718.358 545.856 718.088C549.621 709.161 543.473 700.758 539.311 700.615H539.295Z" fill="#D4D9DC"/>
<path d="M592.32 713.514C588.698 710.591 576.832 697.438 569.287 700.011C563.234 702.092 561.312 715.579 565.681 719.217C565.887 719.375 578.961 724.761 583.377 728.414C587.936 732.179 593.702 739.931 595.084 745.094C600.438 740.932 601.041 720.551 592.304 713.53L592.32 713.514Z" fill="#D4D9DC"/>
<path d="M262.321 669.862C260.573 669.941 240.908 677.518 240.463 677.693C237.985 678.678 234.506 681.664 231.615 685.842C231.519 688.082 231.027 689.401 229.756 688.86C226.786 694.325 225.054 701.171 227.072 708.193C239.653 691.704 259.16 691.434 262.94 689.226C262.972 689.226 262.988 689.194 263.02 689.178C270.343 684.794 267.055 669.639 262.337 669.846L262.321 669.862Z" fill="#D4D9DC"/>
<path d="M385.018 460.731H384.986C381.174 460.938 371.389 464.464 351.612 460.016C338.84 457.141 324.829 446.212 317.125 436.792C310.898 429.167 304.734 432.138 293.996 443.432C279.906 458.237 261.669 456.268 238.97 484.4C228.183 497.76 208.978 538.617 206.151 570.022C202.847 606.716 208.661 644.158 216.015 665.508C218.096 671.528 225.562 687.096 229.788 688.875C231.059 689.415 231.551 688.096 231.646 685.857C231.742 683.49 230.058 663.3 229.883 658.185C228.612 622.348 234.188 591.085 245.61 563.842C255.157 541.063 283.146 513.248 293.726 506.115C302.431 500.238 303.13 502.891 302.129 492.899C301.557 487.148 299.921 479.952 300.509 473.948C301.24 466.72 304.512 461.319 308.912 456.617C311.597 453.758 318.443 463.194 323.034 468.054C327.736 473.042 331.612 470.421 336.791 470.199C347.529 469.722 356.425 470.946 363.716 472.534C375.868 475.187 383.604 478.856 388.068 477.522C391.658 476.442 393.437 474.281 393.962 471.867C395.058 466.752 390.467 460.461 385.034 460.731H385.018Z" fill="#D4D9DC"/>
<path d="M316.601 534.598C315.457 539.141 315.187 543.398 318.84 545.971C323.908 549.546 334.44 547.211 337.728 544.828C331.358 542.937 320.731 539.268 316.601 534.598Z" fill="#965E0E"/>
<path d="M420.395 382.037C420.395 380.909 420.125 379.209 419.775 378.002C401.571 391.79 381.857 400.257 363.144 404.578C365.368 408.803 367.481 412.521 369.546 415.777C385.812 412.473 401.046 405.277 412.452 393.22C413.262 388.216 415.645 383.848 420.41 382.021L420.395 382.037Z" fill="#AEB3B5"/>
<path d="M338.586 408.041C340.047 411.584 341.493 414.872 343.049 417.874C351.882 418.192 360.857 417.54 369.53 415.777C367.481 412.521 365.368 408.804 363.128 404.578C354.662 406.532 346.401 407.66 338.57 408.041H338.586Z" fill="#AEB3B5"/>
<path d="M276.157 339.527C273.091 345.58 272.217 353.189 272.789 360.798C273.043 364.149 277.237 371.218 279.588 374.888C277.523 364.324 276.395 352.172 276.157 339.527Z" fill="white"/>
<path d="M498.788 446.133C504.269 446.769 515.309 447.865 520.567 448.167C510.4 442.368 491.179 435.188 488.796 417.985C497.533 419.303 507.652 419.51 514.213 419.541C494.086 414.283 463.904 401.575 456.502 373.776C449.878 374.84 440.998 369.678 429.735 369.789C426.479 372.728 423.159 375.46 419.775 378.017C420.125 379.225 420.395 380.924 420.395 382.052C422.158 381.369 424.255 381.036 426.717 381.147C435.962 381.56 438.758 389.502 440.219 394.76C445.446 407.627 450.148 427.5 466.843 445.132C466.843 445.132 466.859 445.132 466.875 445.132C480.059 442.384 501.775 457.729 502.934 471.772C505.778 474.377 508.621 477.014 511.449 479.667C516.659 482.367 521.917 484.464 527.493 485.894C517.247 476.538 500.71 457.205 498.788 446.181V446.133Z" fill="#774800"/>
<path d="M479.17 339.019C474.643 334.603 469.607 330.489 465.382 327.947C460.537 334.651 455.723 340.957 451.133 346.644C461.506 346.819 471.529 346.009 479.17 339.019Z" fill="#774800"/>
<path d="M209.757 677.073C212.092 675.723 215.523 674.675 219.431 674.087C218.764 672.689 216.984 669.131 216.333 667.463C214.729 667.733 214.633 668.257 213.061 668.654C211.853 670.878 210.535 674.945 209.757 677.089V677.073Z" fill="#AEB3B5"/>
<path d="M453.785 452.408C455.819 449.39 456.867 446.149 456.502 443.655C455.199 434.505 447.749 420.447 441.411 419.287C441.411 420.717 440.585 422.178 439.219 423.544C444.079 433.997 447.479 445.196 449.417 456.586C450.719 455.092 452.181 453.694 453.785 452.392V452.408Z" fill="#AEB3B5"/>
<path d="M230.392 667.559C230.519 669.37 230.662 671.975 230.82 673.817C234.855 674.23 238.858 675.199 242.417 676.915C244.863 675.898 248.739 674.278 252.52 672.848C253.234 671.816 253.949 670.481 254.553 668.988C246.547 668.766 238.382 667.416 230.392 667.574V667.559Z" fill="#AEB3B5"/>
<path d="M441.411 419.303C442.411 415.554 441.363 412.107 440.029 410.359C439.123 412.742 437.725 414.918 435.93 417.015C437.042 419.08 438.107 421.193 439.107 423.322C440.362 421.892 441.093 420.462 441.411 419.303Z" fill="#AEB3B5"/>
<path d="M436.899 509.231C416.455 512.408 405.256 501.828 404.478 499.477C404.208 498.651 404.287 480.987 418.361 472.234C417.901 471.599 417.44 470.979 416.979 470.391C413.977 466.484 413.739 462.878 414.771 460.447C411.689 461.607 409.227 461.845 406.892 461.067C405.764 463.037 404.621 464.863 403.477 466.515C401.698 469.073 399.299 470.646 397.012 471.376C391.706 512.297 369.133 525.894 321.43 537.84C328.499 543.59 339.857 544.702 347.196 543.241C383.35 536.013 405.034 517.03 422.904 515.871C430.577 515.378 431.308 518.746 438.107 515.49C437.837 514.87 437.281 510.835 436.899 509.215V509.231Z" fill="#774800"/>
<path d="M445.668 486.801C443.031 492.821 439.219 497.92 434.374 501.717C435.501 504.497 436.391 507.086 436.899 509.215C438.25 514.886 438.043 522.606 446.43 516.919C448.098 515.775 450.021 513.933 452.197 511.105C449.989 500.033 447.415 493.234 445.684 486.801H445.668Z" fill="#AEB3B5"/>
<path d="M566.729 686.239C561.837 681.569 557.262 676.263 555.578 671.148C550.05 678.916 538.025 678.805 531.607 672.928C529.78 677.344 528.382 683.809 527.604 690.258C538.517 682.872 553.211 682.602 566.745 686.239H566.729Z" fill="#774800"/>
<path d="M446.43 516.918C446.383 521.492 448.559 522.573 454.087 522.684C453.515 518.347 452.88 514.519 452.197 511.104C450.02 513.915 448.098 515.774 446.43 516.918Z" fill="#774800"/>
<path d="M267.293 679.615C267.341 683.412 266.165 687.304 263.004 689.194C287.515 680.028 312.041 682.983 317.347 674.198C319.253 671.037 318.57 667.733 317.188 664.477C304.861 678.741 284.068 674.278 267.293 679.631V679.615Z" fill="#774800"/>
<path d="M512.735 523.686C511.337 514.234 510.162 505.148 508.558 496.014C503.268 521.922 482.506 542.446 457.407 547.228C460.997 558.188 469.845 568.164 484.507 569.562C483.173 565.718 478.455 552.374 490.178 548.101C503.395 543.288 508.367 557.029 508.923 560.619C512.688 558.236 514.578 550.77 514.578 543.352C514.578 537.649 513.816 531.009 512.735 523.686Z" fill="#774800"/>
<path d="M437.392 388.757C434.707 385.294 430.688 383.833 425.335 385.103C419.426 386.485 411.96 392.442 411.674 402.323C424.08 403.737 423.762 419.765 420.855 434.125C421.888 432.267 422.746 430.805 423.302 429.931C424.874 427.517 426.415 425.595 427.908 424.419C433.913 419.717 438.059 415.555 440.029 410.377C442.952 402.688 440.442 394.11 437.376 388.757H437.392Z" fill="#774800"/>
<path d="M505.11 473.312C506.191 480.636 515.547 540.03 515.547 545.733C542.314 564.795 550.987 569.783 593.003 607.59C581.105 578.076 521.25 483.368 505.11 473.312Z" fill="#774800"/>
<path d="M516.532 725.221C515.356 732.83 517.009 741.789 519.836 746.682C523.696 733.752 538.644 723.521 543.998 719.582C544.966 718.867 545.634 718.359 545.84 718.089C547.397 714.419 547.254 710.861 546.285 707.906C540.82 719.502 529.208 724.824 516.532 725.237V725.221Z" fill="#AEB3B5"/>
<path d="M564.156 716.961C564.537 717.882 565.029 718.677 565.681 719.217C565.887 719.375 578.961 724.761 583.377 728.414C587.936 732.179 593.702 739.931 595.084 745.094C599.389 741.742 600.612 727.922 596.403 718.978C585.394 722.695 574.465 721.171 564.14 716.961H564.156Z" fill="#AEB3B5"/>
<path d="M226.833 696.676C226.023 700.314 225.944 704.238 227.087 708.209C239.668 691.72 259.176 691.45 262.956 689.242C262.988 689.242 263.004 689.21 263.036 689.194C266.594 687.066 267.626 682.395 267.229 678.17C253.536 682.078 238.763 687.685 226.849 696.66L226.833 696.676Z" fill="#AEB3B5"/>
<path d="M378.521 345.518C378.521 342.039 378.426 339.164 378.172 338.004C366.131 353.937 354.534 369.282 346.242 382.054C347.783 381.641 349.404 381.148 351.056 380.608C355.662 372.729 371.198 352.205 378.521 345.518Z" fill="#DCDDDD"/>
<path d="M295.267 472.662C296.061 469.088 294.472 460.939 294.472 458.969C283.528 464.894 269.564 471.248 258.778 480.795C251.995 486.8 243.068 499.571 239.859 506.958C254.108 489.595 275.617 475.346 295.267 472.662Z" fill="#AEB3B5"/>
<path d="M189.344 242.151C193.236 239.307 193.49 232.826 193.49 231.524C193.49 230.221 147.375 229.967 140.64 231.524C133.905 233.08 118.623 238.513 115.51 239.816C139.353 234.637 171.743 237.226 189.36 242.151H189.344Z" fill="#AEB3B5"/>
<path d="M508.081 559.014C508.78 564.732 506.651 570.419 501.377 572.77C494.134 575.995 486.747 571.563 483.92 566.972C482.522 570.356 484.11 579.712 486.286 581.285C489.575 583.652 492.482 586.177 495.166 588.862C504.634 583.207 516.373 585.463 527.223 590.879C520.106 580.252 516.039 571.102 515.277 565.002C515.134 563.875 510.511 559.84 508.081 559.014Z" fill="#774800"/>
<path d="M333.598 574.947C338.76 564.669 343.145 557.711 342.986 556.822C342.621 554.788 341.556 549.943 337.934 545.4C331.215 548.403 322.176 548.625 318.666 545.686C317.967 545.098 317.379 544.304 316.918 543.383C312.979 546.29 312.566 550.118 312.613 554.455C322.843 557.648 329.309 565.225 333.614 574.947H333.598Z" fill="#774800"/>
<path d="M508.113 557.887C501.314 567.418 491.465 570.023 483.3 565.543C483.316 565.607 483.348 565.67 483.364 565.734C484.348 568.339 491.259 577.711 501.632 573.105C508.923 569.864 509.256 563.018 508.113 557.887Z" fill="#774800"/>
<path d="M337.982 544.765C333.407 543.399 326.64 541.128 321.652 538.221C319.873 541.445 320.318 544.003 321.287 547.005C326.751 548.88 335.107 546.831 337.982 544.765Z" fill="#774800"/>
<path d="M441.093 249.172C424.35 253.525 405.208 290.283 378.632 324.119C352.882 356.922 341.111 372.934 332.263 385.642C320.477 402.592 296.029 406.118 281.383 385.086C297.427 426.562 322.986 421.781 333.121 408.31C333.121 408.263 333.121 408.215 333.121 408.167C333.439 402.306 338.157 393.156 345.369 382.052C353.661 369.28 382.206 331.505 384.669 328.233C411.245 292.936 432.547 260.435 450.322 256.479C449.29 252.842 445.859 250.538 441.077 249.156L441.093 249.172Z" fill="#774800"/>
<path d="M311.74 456.411C310.564 455.95 306.164 459.207 304.305 461.288C304.671 462.098 308.181 444.37 317.776 453.615C324.289 459.89 328.229 463.607 334.741 464.068C350.833 465.211 364.479 466.387 374.248 469.405C381.508 471.645 395.391 473.583 392.834 466.609C392.834 466.609 397.012 477.681 385.638 478.221C375.884 478.682 364.733 469.627 350.547 470.088C336.378 470.549 328.943 472.646 325.687 471.486C322.43 470.326 315.234 457.777 311.74 456.379V456.411Z" fill="#AEB3B5"/>
<path d="M210.074 275.194C210.074 275.194 220.384 301.309 234.681 293.366C234.681 293.366 235.745 303.167 225.419 303.422C217.937 303.612 216.762 297.036 215.618 293.62C214.824 291.238 210.074 275.178 210.074 275.178V275.194Z" fill="#AEB3B5"/>
<path d="M218.144 300.942C218.144 300.942 227.024 306.693 234.093 300.164C234.093 300.164 233.314 311.411 244.752 319.846L246.07 334.413C246.07 334.413 239.716 324.087 234.156 320.91C228.596 317.733 216.317 314.286 218.144 300.958V300.942Z" fill="#774800"/>
<path d="M337.982 399.002C350.722 399.208 385.114 395.618 425.637 375.062C425.637 375.062 393.31 408.628 333.105 408.326C333.105 408.326 335.965 400.002 337.982 399.002Z" fill="#774800"/>
<path d="M281.319 385.817C281.319 385.817 269.549 381.115 257.095 361.926C257.095 361.926 269.549 390.519 286.371 397.588L281.319 385.817Z" fill="#774800"/>
<path d="M359.459 362.084C359.57 366.087 362.112 369.153 364.717 368.883C367.465 368.597 369.101 364.61 369.292 360.226C369.419 357.335 368.974 353.347 367.338 351.457C365.13 354.443 359.459 362.1 359.459 362.1V362.084Z" fill="#0E141B"/>
<path d="M507.048 231.619C489.686 242.342 465.985 249.681 452.308 253.255C443.984 240.324 420.236 244.963 395.089 247.981C360.666 252.032 335.17 242.993 320.842 239.562C307.482 236.591 293.901 235.972 285.1 260.006C272.392 294.715 269.977 354.873 280.509 387.469C285.64 403.354 298.714 417.476 312.169 419.732C321.843 421.352 329.992 415.618 334.297 410.455C374.756 410.026 413.342 392.838 441.538 362.736C467.24 335.286 505.794 274.493 518.089 238.958C522.409 226.488 518.565 224.566 507.08 231.651L507.048 231.619ZM312.598 415.411C300.128 413.314 288.96 402.322 284.147 387.39C273.774 355.286 275.664 297.082 288.214 262.849C296.267 240.848 308.34 241.563 321.033 244.391L325.735 245.455C341.652 249.093 365.718 254.589 392.341 251.492L395.423 251.126C411.229 249.22 442.856 245.201 448.623 254.764C431.61 261.642 416.773 283.151 394.978 312.459L384.478 326.533L377.473 335.81C354.995 365.532 333.804 394.49 332.724 407.739C327.847 414.045 320.731 416.793 312.613 415.427L312.598 415.411ZM515.055 238.037C503.077 272.698 463.237 332.84 438.234 359.543C411.372 388.232 373.454 405.721 336.171 406.77C338.347 393.775 358.569 366.739 380.062 338.32L397.583 314.969C419.14 285.962 438.25 260.435 451.72 257.417C457.931 256.019 490.75 245.328 508.558 234.336C515.96 229.761 518.232 228.823 515.039 238.037H515.055Z" fill="#0E141B"/>
<path d="M261.082 218.372C240.32 268.219 221.877 357.844 290.072 403.196C290.692 403.609 288.484 398.018 287.038 396.89C216.19 341.927 259.239 232.001 264.481 219.404C267.261 212.732 267.992 212.907 270.279 216.926C278.285 231 288.976 239.848 301.414 243.661C302.51 243.994 307.149 241.262 306.418 241.167C293.281 239.467 280.811 229.491 272.551 214.575C268.5 207.252 265.069 208.84 261.098 218.372H261.082Z" fill="#0E141B"/>
<path d="M464.746 330.187C473.372 335.096 485.397 346.263 489.003 353.316C476.644 350.171 456.978 348.312 449.671 349.663C449.306 349.726 447.828 352.697 448.543 352.49C454.31 350.87 479.821 353.205 492.704 357.049C494.451 357.573 494.753 356.89 494.404 355.429C492.561 347.868 476.724 333.682 466.335 327.773C465.683 327.407 464.333 329.901 464.778 330.156L464.746 330.187Z" fill="#0E141B"/>
<path d="M361.588 405.673C372.31 428.183 380.983 437.777 400.157 433.234C401.555 432.901 402.222 429.883 401.523 430.089C384.828 434.95 373.692 424.545 364.844 404.927C364.447 404.037 361.27 405.022 361.588 405.689V405.673Z" fill="#0E141B"/>
<path d="M337.013 409.249C345.909 430.599 354.979 443.847 385.67 432.679C386.368 432.425 383.843 429.963 383.144 430.217C357.156 439.669 347.958 426.723 340.46 409.058C340.015 407.994 336.727 408.566 336.997 409.249H337.013Z" fill="#0E141B"/>
<path d="M424.795 383.577C413.786 386.166 411.197 392.488 408.846 405.498C406.765 416.999 395.026 441.606 387.131 449.215C383.43 452.773 382.318 456.061 382.413 460.541C382.413 461.367 386.289 460.89 386.305 460.223C386.305 457.745 387.385 454.155 389.943 451.581C396.043 445.482 409.767 418.127 411.96 405.991C414.295 393.06 417.615 388.295 425.637 386.42C433.579 384.546 438.821 389.2 439.87 400.415C440.807 410.598 436.296 416.126 427.082 423.353C422.65 426.832 418.091 436.077 413.262 445.863C409.736 453.043 406.066 460.445 402.381 465.751C399.998 469.166 396.662 470.501 394.295 470.564C393.707 470.564 393.279 473.551 393.962 473.535C397.282 473.471 401.888 472.963 405.113 468.324C408.925 462.86 412.118 454.33 415.708 447.07C420.188 437.984 424.827 428.596 428.766 425.498C438.837 417.603 443.984 413.393 442.84 400.939C441.665 388.199 434.501 381.321 424.827 383.609L424.795 383.577Z" fill="#0E141B"/>
<path d="M411.086 402.164C411.181 402.895 413.373 397.637 413.5 395.763C414.009 387.661 418.361 382.117 426.669 382.483C434.739 382.832 437.439 390.711 441.506 402.625C445.763 415.095 451.069 430.599 465.064 445.388C465.572 445.928 470.274 444.753 469.718 444.244C455.962 431.568 449.163 413.967 444.985 401.736C440.712 389.234 436.693 380.211 426.78 379.766C414.565 379.226 409.196 388.63 411.086 402.149V402.164Z" fill="#0E141B"/>
<path d="M392.167 433.14C392.993 435.713 395.836 437.874 397.425 438.89C397.758 439.097 398.886 436.365 398.537 436.095C397.488 435.316 396.106 433.918 395.502 432.393C395.407 432.155 392.103 432.918 392.167 433.124V433.14Z" fill="#0E141B"/>
<path d="M370.737 435.554C374.169 442.432 380.729 447.468 388.672 450.803C388.942 450.915 391.277 449.04 390.61 448.722C382.778 445.116 377.568 440.796 375.122 435.919C374.788 435.252 370.42 434.902 370.753 435.569L370.737 435.554Z" fill="#0E141B"/>
<path d="M411.435 452.901C413.342 454.728 416.455 457.032 419.203 458.779C419.966 459.255 423.19 457.873 422.523 457.556C419.378 456.063 414.692 452.139 412.801 450.201C412.484 449.883 410.768 452.266 411.435 452.917V452.901Z" fill="#0E141B"/>
<path d="M458.853 443.005C457.645 434.522 449.607 419.288 442.173 417.589C441.554 417.446 439.6 420.654 440.33 420.591C445.588 420.114 453.785 434.268 455.151 443.863C455.437 445.801 454.691 448.327 453.213 450.805C454.659 450.376 456.105 449.915 457.55 449.47C458.614 447.199 459.123 444.959 458.837 443.005H458.853Z" fill="#0E141B"/>
<path d="M440.41 459.906C437.964 460.271 435.184 459.525 432.245 458.714C427.368 457.396 421.84 455.903 415.645 458.603C412.277 460.081 409.847 460.478 407.655 459.874C407.242 459.763 405.478 462.892 405.844 463.019C408.798 464.036 411.975 463.655 416.201 461.796C421.522 459.461 426.86 460.049 431.53 461.32C434.755 462.193 437.805 463.464 440.807 463.019C442.745 462.733 444.635 462.066 446.43 461.161C446.812 459.938 447.225 458.27 447.495 456.951C445.414 458.413 443.015 459.509 440.394 459.906H440.41Z" fill="#0E141B"/>
<path d="M438.774 411.98C439.679 412.996 441.57 415.872 439.584 420.447C437.995 424.084 431.975 427.849 424.191 428.516C423.397 428.58 420.998 431.328 421.745 431.328C430.879 431.328 440.219 427.261 442.65 421.686C445.35 415.506 442.396 410.264 441.411 409.168C440.918 408.612 438.281 411.424 438.774 411.98Z" fill="#0E141B"/>
<path d="M418.584 378.78C418.917 380.067 419.124 381.862 419.028 382.498C418.901 383.228 421.761 381.973 421.729 381.322C421.65 380.274 421.459 379.05 421.189 378.018C421.03 377.398 418.488 378.336 418.6 378.78H418.584Z" fill="#0E141B"/>
<path d="M459.282 413.616C462.824 425.419 469.321 436.888 475.913 444.513C476.406 445.069 477.772 442.257 477.28 441.701C470.91 434.346 464.317 421.701 460.87 410.232C459.504 405.673 457.915 409.073 459.282 413.632V413.616Z" fill="#0E141B"/>
<path d="M428.083 370.584C442.84 375.366 452.133 386.644 454.262 402.339C454.913 407.088 456.422 403.514 455.692 398.78C453.309 383.022 445.763 373.888 431.594 368.964C430.704 368.662 427.352 370.346 428.067 370.568L428.083 370.584Z" fill="#0E141B"/>
<path d="M432.166 368.44C430.625 368.392 427.13 371.204 427.877 371.156C454.548 369.79 516.198 394.952 535.975 406.739C547.492 413.602 545.173 415.333 534.339 416.922C513.355 420.003 486.08 417.525 459.536 410.107C458.821 409.9 460.108 413.761 460.6 413.888C489.225 421.131 513.561 424.054 535.181 420.877C552.528 418.336 551.416 411.298 536.976 403.117C517.39 391.998 467.034 369.679 432.15 368.44H432.166Z" fill="#0E141B"/>
<path d="M485.937 417.938C499.932 422.83 521.393 436.301 526.921 441.845C530.479 445.403 531.941 446.563 522.425 446.483C507.779 446.372 484.857 443.29 476.565 441.257C475.834 441.082 475.5 444.132 476.215 444.307C484.634 446.356 509.399 450.01 524.236 450.121C537.77 450.232 536.531 446.277 530.257 440.002C525.285 435.014 508.16 424.768 494.404 418.621C492.18 417.636 485.381 417.731 485.937 417.922V417.938Z" fill="#0E141B"/>
<path d="M412.214 461.335C411.642 464.56 413.278 467.784 415.915 471.2C424.922 482.86 435.041 505.909 435.835 516.473C436.645 527.243 446.097 522.35 452.403 513.645C453.531 512.072 452.546 508.371 451.927 509.229C445.446 518.125 439.441 519.459 438.996 513.566C438.17 502.541 427.305 481.525 418.075 469.548C416.137 467.038 415.295 464.401 415.693 462.145C415.931 460.795 412.611 459.238 412.245 461.335H412.214Z" fill="#0E141B"/>
<path d="M417.599 471.089C403.08 480.16 402.762 498.571 403.191 499.889C404.096 502.621 415.867 514.742 437.233 511.374C437.519 511.327 436.788 507.895 436.391 507.959C416.328 510.977 406.209 500.318 405.748 499.031C405.748 499 405.288 481.923 419.028 473.377C419.33 473.186 417.916 470.883 417.599 471.089Z" fill="#0E141B"/>
<path d="M466.764 443.068C455.342 447.182 441.601 456.665 440.886 468.436C440.267 478.412 442.824 485.338 445.255 493.265C448.13 502.717 452.197 516.854 453.198 541.27C453.754 555.058 462.252 568.354 483.109 571.547C483.84 571.658 485.635 568.545 484.904 568.418C460.632 564.701 457.375 544.272 456.946 538.093C455.294 513.979 451.657 502.065 448.734 492.471C446.303 484.512 444.556 478.762 445.128 469.278C445.779 458.746 456.74 450.184 467.32 446.372C473.769 444.053 494.976 452.313 499.694 466.101C505.587 483.305 508.319 507.307 511.385 523.892C514.451 540.476 514.451 554.232 508.208 559.824C507.652 560.316 510.337 562.318 510.893 561.826C518.057 555.44 519.931 543.955 515.849 525.305C511.226 504.194 509.701 482.368 503.728 464.926C498.137 448.627 474.007 440.478 466.748 443.084L466.764 443.068Z" fill="#0E141B"/>
<path d="M445.064 517.029C445.064 519.221 445.064 521.604 446.049 522.716C447.527 524.383 450.418 523.955 453.849 524.034C454.262 524.034 454.246 521.334 453.849 521.334C450.847 521.254 449.258 520.857 448.527 520.031C447.86 519.284 447.638 517.886 447.844 515.662C447.86 515.424 445.08 516.314 445.064 517.044V517.029Z" fill="#0E141B"/>
<path d="M496.421 446.483C510.766 453.346 528.652 466.133 539.931 477.586C548.048 485.831 547.635 487.324 537.453 486.276C528.112 485.307 519.502 482.543 510.368 477.555C509.717 477.189 513.275 483.194 515.039 484.004C522.584 487.499 530.717 489.135 538.597 489.659C546.444 490.199 556.722 489.437 543.203 475.68C532.91 465.212 517.247 454.251 503.617 446.912C501.838 445.959 495.738 446.15 496.421 446.483Z" fill="#0E141B"/>
<path d="M503.808 474.361C559.47 525.495 599.945 576.296 624.154 625.382C628.189 633.578 627.315 635.199 618.642 627.415C577.261 590.164 542.298 561.364 514.721 541.794C514.372 541.539 514.101 546.273 515.07 546.925C540.884 564.001 575.943 593.039 616.37 629.416C630 641.68 633.971 638.63 625.663 621.776C599.516 568.735 560.455 520.587 502.553 467.88C501.997 467.371 502.807 473.455 503.792 474.345L503.808 474.361Z" fill="#0E141B"/>
<path d="M489.718 546.83C481.441 549.832 477.47 560.301 480.949 567.163C485.54 576.186 497.247 576.472 501.933 574.391C508.24 571.579 511.989 564.145 509.733 556.282C507.144 547.227 497.422 544.034 489.718 546.83ZM483.491 560.428C483.491 558.506 483.872 556.568 484.65 554.9C485.842 552.279 487.923 550.373 490.639 549.372C494.134 548.101 497.327 548.196 500.17 549.642C503.585 551.389 505.571 554.709 506.238 557.013C507.763 562.35 506.715 569.292 500.837 571.913C497.104 573.565 493.673 572.834 491.465 571.913C487.732 570.356 485.206 567.481 484.38 565.305C483.792 563.78 483.507 562.096 483.507 560.428H483.491Z" fill="#0E141B"/>
<path d="M508.653 561.19C511.131 562.588 513.545 564.383 513.927 565.559C514.324 566.734 518.581 585.384 538.072 607.766C551.702 623.429 560.089 636.01 557.023 663.332C556.261 670.115 551.94 674.722 545.443 675.659C538.708 676.644 531.909 673.308 529.621 667.907C528.827 666.049 528.668 663.205 528.478 659.615C528.017 651.466 527.334 639.139 518.66 622.349C509.511 604.637 501.902 591.277 487.081 580.57C485.333 579.3 484.571 573.073 485.079 568.72C485.127 568.339 481.473 567.688 481.346 569.355C480.933 574.343 481.68 581.444 484.444 583.382C498.868 593.437 506.397 606.225 515.372 623.603C523.776 639.886 523.553 651.863 523.998 659.79C524.204 663.65 524.046 667.224 525.015 669.528C527.81 676.12 537.818 679.535 545.856 678.36C553.64 677.232 559.676 671.783 560.582 663.698C563.775 635.311 554.513 622.396 540.614 606.034C524.697 587.274 520.233 572.421 518.645 563.573C518.343 561.874 515.039 559.729 512.1 558.22C511.115 557.712 508.446 561.095 508.685 561.222L508.653 561.19Z" fill="#0E141B"/>
<path d="M530.574 671.831C526.333 681.569 522.711 702.474 525.158 710.417C525.38 711.131 528.779 707.97 528.652 707.176C527.302 698.884 529.288 682.252 532.751 673.658C532.957 673.15 530.702 671.561 530.59 671.831H530.574Z" fill="#0E141B"/>
<path d="M554.577 672.418C557.818 680.916 567.984 689.431 574.99 695.308C579.469 699.073 581.518 700.884 582.027 704.426C582.106 704.982 585.474 708.144 585.617 707.413C586.824 701.377 581.915 696.833 577.626 693.243C570.748 687.477 558.58 678.025 556.547 669.717C556.451 669.304 554.1 671.226 554.561 672.418H554.577Z" fill="#0E141B"/>
<path d="M570.017 689.304C565.601 687.525 558.167 688.065 550.367 688.621C545.507 688.97 540.471 689.336 536.198 689.129C532.258 688.939 529.177 691.846 527.223 694.419C526.254 695.706 527.239 699.518 527.588 698.851C529.431 695.34 532.624 691.433 536.055 691.369C541.504 691.274 546.682 691.226 551.638 690.861C559.644 690.273 570.621 689.955 573.941 692.735C574.513 693.212 570.621 689.542 570.017 689.288V689.304Z" fill="#0E141B"/>
<path d="M527.048 706.842L517.993 715.897C510.575 722.918 515.325 743.474 518.597 749.145C519.503 750.701 520.392 750.59 521.059 748.859C529.574 726.81 544.696 723.379 546.904 718.47C549.557 712.561 547.397 699.471 539.327 699.265C534.816 699.154 531.75 701.918 527.032 706.842H527.048ZM517.501 730.479C517.501 724.681 518.867 719.01 522.171 715.881L529.669 708.367C534.228 703.618 535.944 701.822 539.264 701.95C540.376 701.997 542.171 703.077 543.68 705.428C545.014 707.509 545.681 709.908 545.681 712.339C545.681 714.022 545.348 715.722 544.696 717.342C544.331 717.676 543.267 718.454 542.218 719.217C536.754 723.188 524.665 732.068 519.788 743.251C518.391 739.661 517.517 735.038 517.517 730.464L517.501 730.479Z" fill="#0E141B"/>
<path d="M568.921 698.726C560.423 701.013 560.105 717.708 565.22 720.472C565.22 720.472 580.089 727.367 582.789 729.606C587.015 733.101 592.733 742.41 594.052 747.318C594.544 749.129 595.275 748.748 596.18 748.033C601.756 743.697 602.836 721.696 595.894 714.515C591.272 709.734 586.014 706.478 586.014 706.478C578.897 700.362 575.005 697.074 568.905 698.726H568.921ZM584.251 727.367C581.264 724.904 577.07 723.078 573.02 721.314L566.952 718.487C565.506 717.708 564.632 715.183 564.632 712.069C564.632 711.45 564.664 710.814 564.728 710.147C565.22 705.636 567.253 701.998 569.668 701.315C574.338 699.981 577.452 702.649 584.267 708.527L591.478 714.579C596.053 718.264 597.689 725.889 597.689 731.926C597.689 732.021 597.689 732.116 597.689 732.196C597.658 736.421 596.848 740.154 595.577 742.394C593.321 737.088 588.285 730.703 584.251 727.383V727.367Z" fill="#0E141B"/>
<path d="M564.521 717.851C559.676 717.819 550.32 717.946 545.205 718.168C544.109 718.216 541.885 721.536 542.631 721.393C547.127 720.535 567.095 720.821 568.429 720.996C569.16 721.091 566.126 717.866 564.521 717.866V717.851Z" fill="#0E141B"/>
<path d="M361.143 472.408C337.601 481.002 312.582 506.434 311.994 523.336C311.771 529.659 315.33 534.837 319.889 538.713C327.021 544.765 339.253 547.132 347.466 545.909C365.749 543.177 382.89 533.455 395.439 527.466C406.034 522.399 415.121 518.904 423.111 518.38C426.018 518.189 428.02 518.841 429.592 519.365C432.451 520.286 434.437 520.191 438.853 518.126C439.314 517.903 437.837 514.139 437.408 514.329C433.849 516.013 432.245 515.664 429.942 515.155C428.226 514.774 426.097 514.313 422.809 514.52C414.311 515.076 404.938 519.54 394.089 524.734C381.682 530.675 366.226 538.046 346.925 541.906C339.428 543.399 328.435 542.049 321.97 536.553C318.062 533.233 316.188 528.785 316.378 523.336C316.934 507.34 342.907 481.304 365.543 474.156C366.258 473.933 361.603 472.249 361.127 472.424L361.143 472.408Z" fill="#0E141B"/>
<path d="M316.823 532.025C312.836 536.012 313.852 544.018 317.49 547.036C321.874 550.69 336.791 548.387 343.812 544.781C344.479 544.447 337.966 543.51 337.315 543.78C330.881 546.417 322.494 546.862 319.682 544.511C316.855 542.16 316.569 536.679 318.427 534.296C318.523 534.169 317.363 531.485 316.839 532.025H316.823Z" fill="#0E141B"/>
<path d="M315.918 540.841C308.769 545.606 309.849 553.581 310.246 557.552C310.675 580.919 295.807 621.554 284.957 633.325C283.13 635.31 279.016 641.585 280.319 645.826C280.954 647.875 283.591 649.559 286.387 649.925C296.728 651.322 303.924 657.867 308.356 657.74C311.835 657.645 315.886 657.168 317.649 655.151C320.762 651.593 320.969 644.397 320.207 636.152C317.649 608.115 334.17 578.584 341.493 565.256C344.416 559.935 346.099 558.33 345.734 556.122C344.67 549.895 342.509 547.338 339.857 543.891C339.396 543.303 335.488 544.383 335.742 544.653C338.808 547.862 340.81 551.929 341.731 556.742C341.524 557.425 340.238 559.776 338.856 562.286C331.93 574.883 316.346 603.222 316.346 630.354C316.346 632.371 316.823 639.345 316.823 640.632C316.823 647.081 315.219 650.433 313.725 652.133C312.439 653.61 310.787 654.404 308.833 654.5C306.942 654.579 292.153 648.384 287.61 647.129C285.831 646.636 284.782 645.842 284.433 644.714C283.686 642.284 286.037 638.344 288.277 635.691C297.618 624.651 314.567 580.347 314.154 557.902C314.075 554.788 313.249 547.719 317.871 544.145C318.459 543.684 316.505 540.428 315.886 540.841H315.918Z" fill="#0E141B"/>
<path d="M311.168 654.707C311.708 656.725 312.788 658.774 313.932 660.934C316.203 665.208 318.539 669.64 316.203 673.5C313.63 677.757 305.131 679.028 294.361 680.632C285.767 681.919 275.235 683.491 264.688 687.145C263.735 687.479 260.335 691.402 261.034 691.132C272.233 686.843 285.926 685.382 295.171 684C306.641 682.284 316.299 682.094 319.523 676.74C322.653 671.562 318.967 664.445 316.473 659.727C315.377 657.662 314.17 655.629 313.725 653.881C313.63 653.516 310.993 654.151 311.152 654.692L311.168 654.707Z" fill="#0E141B"/>
<path d="M212.251 674.469C213.347 671.911 214.665 669.417 216.365 667.209C216.031 666.256 215.348 664.398 214.903 663.492C211.869 667.066 209.645 672.69 207.294 678.456C206.389 680.68 207.374 681.172 209.232 680.092C211.297 678.901 215.539 676.518 219.034 675.93C218.7 675.088 218.382 673.786 218.112 672.912C215.952 673.309 213.966 673.833 212.266 674.453L212.251 674.469Z" fill="#0E141B"/>
<path d="M244.021 676.168C239.764 673.897 234.919 672.737 230.137 672.34C230.137 673.245 230.201 674.611 230.296 675.533C233.711 675.85 237.143 676.121 240.288 677.407C241.13 677.757 244.672 676.518 244.021 676.168Z" fill="#0E141B"/>
<path d="M236.078 659.884C252.964 662.14 263.369 659.297 285.45 647.875C285.577 647.812 283.051 645.095 282.67 645.318C263.051 656.406 255.236 658.82 236.444 656.326C234.252 656.04 232.536 655.119 230.407 655.246C230.407 656.008 230.153 658.55 230.153 659.535C232.075 659.392 233.886 659.598 236.094 659.9L236.078 659.884Z" fill="#0E141B"/>
<path d="M263.862 655.962C267.166 661.728 285.068 663.762 286.212 663.968C288.913 664.445 291.343 666.271 292.852 668.988C294.933 672.705 295.06 677.502 293.233 682.141C292.963 682.84 296.951 681.934 297.109 681.41C298.634 676.502 297.729 671.688 295.489 667.701C293.567 664.27 290.183 662.395 286.689 661.776C285.005 661.506 268.707 659.234 265.545 654.993C265.387 654.771 263.75 655.771 263.878 655.978L263.862 655.962Z" fill="#0E141B"/>
<path d="M254.06 658.266C256.062 663.301 252.885 670.64 250.502 673.198C249.994 673.754 254.458 673.23 255.141 671.975C257.222 668.194 257.825 662.602 256.38 657.996C256.189 657.392 253.965 657.996 254.06 658.266Z" fill="#0E141B"/>
<path d="M267.912 674.548C266.769 670.656 264.656 668.401 262.273 668.512C252.948 669.449 234.871 677.773 231.742 681.569V688.209C234.601 683.491 238.334 680.029 240.987 678.964L243.163 678.075C247.579 676.232 259.334 671.371 262.4 671.228C263.242 671.196 264.529 672.594 265.339 675.326C265.752 676.74 265.974 678.297 265.974 679.854C265.974 683.253 264.878 686.573 262.273 688.098C261.558 688.527 259.716 688.94 257.571 689.433C250.439 691.085 237.572 694.182 227.85 705.302C227.691 704.222 227.58 703.141 227.58 702.077C227.58 697.677 228.914 693.467 230.82 689.846C229.867 689.401 228.882 688.003 228.04 687.145C225.149 692.625 223.37 702.157 225.467 709.496C225.944 711.195 226.309 712.355 227.5 710.782C237.603 697.534 244.466 695.31 256.65 692.403C259.176 691.799 262.114 690.91 263.194 690.29C268.214 687.367 269.564 680.235 267.896 674.564L267.912 674.548Z" fill="#0E141B"/>
<path d="M292.995 442.48C287.451 448.294 280.176 451.074 272.757 454.791C262.114 460.113 249.74 465.498 236.031 482.479C223.354 498.19 206.357 540.158 203.657 570.213C199.479 616.757 210.392 662.729 219.59 678.153C233.013 700.631 234.506 690.29 232.854 676.628C228.39 639.838 233.982 597.155 247.611 564.669C257.253 541.668 288.42 511.756 302.447 504.48C305.529 502.892 306.307 500.477 305.687 496.808C304.957 492.439 301.414 478.222 301.827 474.092C302.431 468.008 305.163 463.258 309.961 457.968C311.2 456.602 319.158 467.182 321.938 470.724C326.624 476.713 329.611 473.774 336.822 472.9C348.848 471.455 366.067 474.314 374.613 477.062C380.602 479 385.527 480.414 388.751 479.429C394.803 477.618 395.963 472.36 395.312 468.627C394.216 462.241 388.449 458.413 385.129 459.017C384.319 459.16 381.841 459.795 381.841 459.795C376.853 460.637 367.576 462.226 351.882 458.683C339.142 455.808 325.735 443.767 318.411 434.808C315.902 431.742 313.042 429.756 310.199 429.645C305.004 429.454 299.54 435.554 292.979 442.464L292.995 442.48ZM222.385 676.787C214.888 664.015 206.516 629.767 206.516 591.833C206.516 584.685 206.818 577.409 207.469 570.134C210.186 539.968 228.835 499.047 240.002 485.227C253.346 468.691 265.085 462.718 275.442 457.46C282.463 453.886 289.103 450.518 294.949 444.355C302.034 436.905 306.561 433.791 310.088 433.918C312.137 433.998 314.027 435.173 316.045 437.651C323.654 446.96 337.919 458.334 351.278 461.352C367.497 465.005 377.107 463.369 382.286 462.496L385.082 462.098C388.862 461.924 392.039 465.577 392.659 469.12C393.247 472.535 391.42 475.14 387.671 476.268C385.193 477.015 381.142 475.855 375.519 474.251C366.464 471.661 354.074 468.119 336.711 468.881L332.835 469.374C329.452 469.946 327.005 470.375 323.987 467.166L320.921 463.719C316.251 458.35 312.979 454.823 310.167 454.775C309.293 454.759 308.499 455.093 307.911 455.728C302.606 461.384 299.81 467.15 299.143 473.854C299.047 474.807 299 475.792 299 476.792C299 480.351 299.54 484.115 300.064 487.769L300.747 493.075C300.954 495.156 301.097 496.601 301.097 497.681C301.097 500.175 300.318 500.62 297.729 502.097L292.932 505.052C282.86 511.835 254.172 539.872 244.323 563.367C233.664 588.767 228.311 617.345 228.311 648.591C228.311 657.804 228.835 669.448 229.708 676.946C231.376 691.147 230.042 689.908 222.369 676.851L222.385 676.787Z" fill="#0E141B"/>
<path d="M294.409 456.395C294.409 456.395 261.987 473.98 256.348 480.382C223.751 517.505 207.421 566.225 214.459 621.967C216.047 634.548 217.683 642.188 217.683 629.591C217.683 629.528 217.683 629.48 217.683 629.417C216.365 619.012 215.714 608.941 215.714 599.187C215.714 553.898 229.947 515.567 258.826 482.685C264.132 476.649 277.332 469.643 288.976 463.464C288.976 463.464 292.519 461.574 294.091 460.732C294.727 465.259 294.679 469.183 294.409 473.202C294.091 478.11 296.68 473.646 296.744 468.706C296.792 465.529 297.157 457.11 296.045 456.411C295.553 456.109 294.949 456.093 294.425 456.363L294.409 456.395Z" fill="#0E141B"/>
<path d="M386.94 460.399C386.75 460.685 388.481 463.211 388.815 462.544C389.736 460.685 391.69 460.082 393.707 460.415C396.17 460.828 397.218 462.258 397.202 465.117C397.186 468.707 399.442 465.61 398.934 462.75C398.378 459.621 396.297 458.271 393.962 457.89C390.991 457.429 388.561 458.048 386.956 460.399H386.94Z" fill="#0E141B"/>
<path d="M217.207 299.894C215.793 307.995 214.03 311.729 224.101 317.098L227.056 318.575C235.713 322.785 238.668 323.499 248.723 341.084C249.088 341.736 248.437 334.286 247.182 332.348C239.367 320.211 234.569 317.876 229.137 315.239L226.277 313.794C219.637 310.251 219.351 306.995 220.146 301.896C220.209 301.498 217.334 299.147 217.207 299.878V299.894Z" fill="#0E141B"/>
<path d="M235.665 291.443C234.569 291.443 234.951 294.779 235.999 294.588C235.999 294.588 237.794 294.429 238.414 295.923C239.446 298.417 241.066 302.277 244.911 306.169C245.737 306.995 246.181 303.69 245.054 302.293C242.83 299.497 241.654 296.463 240.828 294.493C239.811 292.047 237.445 290.776 235.65 291.459L235.665 291.443ZM235.999 291.951C235.999 291.951 236.158 291.951 236.221 291.935C236.142 291.935 236.078 291.935 235.999 291.951Z" fill="#0E141B"/>
<path d="M189.662 217.006C182.752 218.404 175.778 218.991 167.724 219.134C153.332 219.405 136.415 218.721 114.175 226.33C80.578 237.815 23.1053 276.798 11.3185 359.274C7.95081 382.832 10.9213 383.149 21.485 364.468C31.8104 346.2 60.4038 306.614 96.8921 288.299C120.323 276.544 144.437 274.24 176.715 278.021C179.543 278.355 181.084 275.289 183.848 269.84C186.231 265.154 188.804 258.895 193.713 251.683C204.086 258.879 210.884 282.818 212.791 293.096C213.68 297.909 215.936 301.277 219.145 303.151C222.052 304.851 226.833 305.232 230.566 303.946C233.076 303.088 235.157 300.483 235.999 297.163C237.572 290.952 236.889 287.155 233.092 283.072C216.524 265.17 214.268 244.773 213.41 225.584C213.235 221.756 211.742 218.436 209.534 216.768C203.895 212.526 192.172 216.45 189.646 216.974L189.662 217.006ZM14.1302 360.545C25.4404 281.293 83.2785 241.421 115.668 230.334C137.511 222.867 153.586 222.566 167.772 222.28C175.619 222.137 183.038 221.994 190.202 220.548L192.537 220.056C198.256 218.849 204.181 217.594 207.358 219.976C208.931 221.168 209.804 223.217 210.027 226.283C211.552 247.267 215.046 268.966 230.217 285.36C233.156 288.537 234.347 292.715 233.378 296.511C232.774 298.926 231.329 300.832 229.693 301.388C226.722 302.405 223.99 302.262 221.782 300.975C219.272 299.514 217.556 296.607 216.81 292.604C215.253 284.184 207.66 259.483 196.207 248.602C197.112 247.585 197.906 246.552 198.923 245.552C201.814 242.708 199.527 242.47 196.238 245.409C190.44 250.571 184.197 261.056 181.592 266.155C179.988 269.3 178.002 273.208 177.049 273.097C144.214 269.236 118.893 272.874 94.97 284.883C57.8622 303.517 29.1258 343.961 19.1022 362.753C12.2716 375.572 12.2716 373.475 14.1302 360.545Z" fill="#0E141B"/>
<path d="M142.34 229.856C131.3 230.221 60.4514 253.271 35.0669 309.536C30.6826 319.258 31.6516 323.038 35.8611 313.237C60.4197 256.543 131.649 233.366 142.435 233.001C155.302 232.572 188.518 231.841 192.203 232.985C192.918 234.224 191.346 237.115 189.296 240.848C186.771 245.455 190.091 244.391 192.505 239.959C194.745 235.892 197.287 232 194.999 229.538C192.569 226.917 142.848 229.824 142.356 229.84L142.34 229.856Z" fill="#0E141B"/>
<path d="M233.124 299.117C233.251 301.118 232.774 302.961 231.726 304.422C230.582 306.027 228.819 307.043 226.897 307.202C220.336 307.758 224.752 310.332 228.676 309.347C231.376 308.664 232.87 307.472 233.918 305.995C235.777 303.39 236.301 299.974 235.411 296.4C235.236 295.685 233.076 298.45 233.124 299.117Z" fill="#0E141B"/>
<path d="M274.552 339.146C271.947 346.327 270.311 354.206 270.851 361.449C271.248 366.644 278.921 377.462 278.984 377.525C279.445 378.081 279.604 373.506 278.762 372.092C276.951 369.058 273.885 363.356 273.695 360.671C273.266 354.857 273.901 348.535 275.617 342.737C275.919 341.688 274.807 338.432 274.552 339.131V339.146Z" fill="#0E141B"/>
<path d="M377.028 339.624C377.473 345.231 376.869 363.213 376.027 365.231C371.881 370.918 358.569 377.097 347.434 380.322C346.814 380.496 345.512 384.404 346.226 384.198C356.107 381.577 372.977 374.222 378.426 366.724C380.014 364.532 381.063 338.544 380.062 336.002C379.792 335.319 376.964 338.909 377.028 339.608V339.624Z" fill="#0E141B"/>
<path d="M362.525 361.306C362.525 362.339 363.033 363.181 363.653 363.181C364.272 363.181 364.78 362.339 364.78 361.306C364.78 360.274 364.272 359.432 363.653 359.432C363.033 359.432 362.525 360.274 362.525 361.306Z" fill="white"/>
</g>
<defs>
<clipPath id="clip0_42_71678">
<rect width="620" height="540.24" fill="white" transform="translate(10 210)"/>
</clipPath>
</defs>
</svg>
