<svg width="800" height="800" viewBox="0 0 800 800" fill="none" xmlns="http://www.w3.org/2000/svg">
<g clip-path="url(#clip0_42_71804)">
<path d="M151.966 420.286C188.695 408.038 223.679 452.653 253.428 466.646C346.4 434.649 359.32 498.879 359.32 498.879C307.875 497.1 260.576 533.175 254.065 538.494C247.555 543.813 245.793 539.081 240.458 535.54C238.679 534.349 140.069 467.938 61.024 504.03C61.024 504.03 115.237 432.551 151.966 420.303V420.286Z" fill="#A688BD"/>
<path d="M243.042 497.202C248.78 502.94 251.012 513.528 250.122 522.286C261.264 488.879 292.187 492.084 321.047 503.863C333.111 500.474 346.081 498.41 359.32 498.863C359.32 498.863 346.417 434.633 253.428 466.631C223.696 452.637 188.712 408.022 151.966 420.27C115.237 432.519 58.7924 504.45 58.7924 504.45C71.2927 498.745 84.2292 496.329 96.9812 494.786C138.66 459.852 207.42 454.466 243.042 497.185V497.202Z" fill="#9075A4"/>
<path d="M152.687 424.246L155.909 430.873C111.562 448.021 55.9735 505.976 50.0673 513.661C44.1612 521.345 40.0168 520.758 44.7484 510.103C49.4801 499.466 101.511 435.001 144.08 418.457L152.687 424.246Z" fill="#B6AED2"/>
<path d="M155.909 430.875L152.687 423.66L145.959 420.422C112.25 445.238 56.8964 492.521 57.2823 505.642C74.8498 487.185 119.213 445.07 155.926 430.875H155.909Z" fill="#9B95B4"/>
<path d="M152.956 407.216C147.637 404.263 146.445 399.531 138.173 399.531C129.901 399.531 124.583 407.216 118.66 409.582C112.753 411.948 103.877 414.901 108.609 419.632C111.277 422.3 115.522 429.414 138.14 416.226L152.972 407.216H152.956Z" fill="#B6AED2"/>
<path d="M119.767 419.196C120.002 422.149 121.881 425.656 137.536 416.528L152.956 407.216C148.711 404.85 147.083 401.377 142.402 400.068C135.204 411.931 119.532 416.243 119.767 419.196Z" fill="#9B95B4"/>
<path d="M173.644 416.093C167.469 409.365 168.325 407.217 161.228 406.63C154.13 406.042 147.62 403.677 142.301 409.583C136.982 415.489 132.838 430.271 128.106 432.05C123.374 433.828 132.838 440.926 141.11 435.59C149.382 430.254 151.748 420.221 156.479 420.808C156.479 420.808 179.802 422.804 173.627 416.076L173.644 416.093Z" fill="#B6AED2"/>
<path d="M156.076 409.665C149.717 414.883 139.952 428.726 136.781 431.008C133.61 433.273 139.012 436.964 141.126 435.605C149.398 430.286 151.764 420.236 156.496 420.823C156.496 420.823 179.819 422.82 173.644 416.091C169.382 411.46 162.436 404.447 156.076 409.665Z" fill="#9B95B4"/>
<path d="M310.678 443.609C288.412 444.767 268.848 452.167 254.653 457.486C237.505 445.656 201.766 423.357 193.158 419.045C181.597 413.273 170.473 416.478 162.033 419.196C155.187 421.411 148.207 427.317 158.258 432.636C168.308 437.955 178.829 433.441 188.342 431.931C194.249 438.442 245.189 471.076 248.73 479.953C252.287 488.829 265.291 484.684 268.831 479.365C278.881 474.634 286.231 473.476 292.741 474.667C292.741 474.667 332.926 442.452 310.661 443.626L310.678 443.609Z" fill="#B6AED2"/>
<path d="M192.856 428.056C197.118 427.418 199.668 422.838 208.293 427.821C199.182 422.217 196.581 420.757 193.158 419.046C186.027 415.488 182.856 421.244 172.872 424.65C164.181 427.62 160.842 440.992 192.839 428.056H192.856Z" fill="#9B95B4"/>
<path d="M310.677 443.609C293.831 444.499 278.546 448.928 265.945 453.341C277.304 457.049 295.006 462.536 289.939 474.298C290.895 474.365 291.835 474.483 292.758 474.65C292.758 474.65 332.943 442.435 310.677 443.609Z" fill="#9B95B4"/>
<path d="M535.934 481.513C519.323 466.647 560.952 440.338 560.952 440.338C584.593 435.606 625.4 431.462 641.96 381.209C654.746 342.383 639.595 259.998 678.035 220.383C668.572 223.336 654.981 223.924 654.981 223.924C654.981 223.924 682.767 185.483 740.721 167.161C760.201 161.003 755.05 165.147 746.644 176.037C726.543 202.061 706.442 233.387 701.71 260.586C696.978 255.854 690.468 229.847 690.468 229.847C690.468 229.847 665.736 260.737 669.78 313.221C675.703 390.085 682.783 479.383 586.993 502.437C586.993 502.437 552.579 496.396 535.968 481.53L535.934 481.513Z" fill="#B6AED2"/>
<path d="M555.599 444.029C544.945 451.781 523.132 470.054 535.934 481.514C552.546 496.38 586.959 502.42 586.959 502.42C635.467 490.742 657.582 462.084 666.827 426.646C620.332 484.517 589.996 467.956 555.583 444.013L555.599 444.029Z" fill="#9B95B4"/>
<path d="M720.586 197.144C725.503 191.942 659.427 219.678 672.397 272.296C678.27 245.064 690.451 229.829 690.451 229.829C690.451 229.829 691.072 232.295 692.062 235.836C697.633 221.389 715.687 202.345 720.603 197.144H720.586Z" fill="#9B95B4"/>
<path d="M392.491 431.662L407.207 468.727C411.938 469.314 423.18 475.237 427.895 498.291C432.627 521.346 439.724 546.783 462.191 554.467C465.144 566.296 478.752 593.495 488.802 591.716C493.534 608.865 488.802 620.694 498.266 626.013C507.729 631.331 535.515 654.99 523.099 634.285C510.682 613.579 510.095 605.895 510.095 605.895C510.095 605.895 531.387 628.949 538.485 632.506C545.582 636.063 557.411 640.795 544.391 626.013C531.387 611.23 523.703 591.129 524.29 582.253C524.877 573.377 526.068 566.296 518.367 567.471C519.558 555.055 526.656 542.051 530.783 537.907C534.928 533.762 555.029 540.86 572.177 553.276C578.419 557.806 591.103 553.276 591.103 553.276C591.103 553.276 601.775 578.881 603.52 587.572C605.886 599.401 623.034 617.724 634.863 623.043C641.642 626.096 641.524 626.382 634.863 610.039C628.353 594.066 623.034 581.649 624.812 579.887C626.591 578.109 631.323 575.156 633.688 578.696C636.054 582.253 651.424 607.086 659.696 612.405C667.968 617.724 663.84 602.942 654.964 578.696C646.088 554.451 621.826 526.983 619.46 522.839C617.094 518.695 609.443 498.275 607.077 491.177C604.711 484.08 593.486 485.271 590.516 489.399C587.563 493.543 589.929 505.959 589.929 505.959C589.929 505.959 577.513 494.65 569.828 485.271C564.509 478.761 560.365 456.898 560.365 456.898C560.365 456.898 568.637 433.24 563.318 431.478C557.999 429.699 544.995 436.797 523.115 421.427C501.236 406.058 469.893 398.96 466.939 388.322C463.986 377.685 466.939 367.634 457.476 366.443C448.013 365.268 440.58 369.832 439.741 377.668C438.935 385.202 437.375 393.037 432.643 397.769C427.912 402.501 418.969 414.011 418.969 414.011L411.317 411.142L392.508 431.662H392.491Z" fill="#B6AED2"/>
<path d="M430.294 426.512C425.294 419.884 436.872 418.743 433.466 417.149C430.059 415.555 427.962 406.847 431.385 398.76C430.261 400.186 418.952 414.012 418.952 414.012L411.301 411.143L392.491 431.663L407.207 468.728C410.999 469.198 419.002 473.141 424.455 486.614C457.074 476.178 435.294 433.14 430.294 426.512Z" fill="#9B95B4"/>
<path d="M544.391 625.997C531.387 611.215 523.703 591.113 524.29 582.237C524.877 573.361 526.068 566.281 518.367 567.455C519.558 555.039 526.656 542.035 530.783 537.891C532.126 536.548 535.163 536.397 539.223 537.219C535.481 535.206 530.162 534.669 527.914 538.042C512.142 555.777 491.437 558.327 470.413 558.327C481.873 569.787 511.051 568.982 507.075 584.922C506.336 587.858 502.729 591.919 497.477 591.482C501.94 608.698 501.152 613.664 505.112 620.695C511.219 631.534 519.575 636.249 520.9 638.782C523.082 642.943 529.038 644.185 523.099 634.269C510.682 613.58 510.095 605.879 510.095 605.879C510.095 605.879 531.387 628.933 538.485 632.49C545.582 636.047 557.411 640.779 544.391 625.997Z" fill="#9B95B4"/>
<path d="M591.104 553.277C591.104 553.277 601.59 583.965 599.745 570.693C597.547 554.921 608.503 552.085 607.194 551.213C605.886 550.34 591.12 553.277 591.12 553.277H591.104Z" fill="#9B95B4"/>
<path d="M618.654 521.799C616.289 517.655 609.426 498.275 607.06 491.178C604.694 484.08 593.469 485.272 590.499 489.399C587.546 493.544 589.912 505.96 589.912 505.96C589.912 505.96 577.496 494.651 569.811 485.272C564.492 478.761 560.348 456.898 560.348 456.898C560.348 456.898 568.62 433.24 563.301 431.478C557.982 429.7 544.978 436.797 523.098 421.428C501.219 406.058 469.876 398.961 466.923 388.323C463.97 377.685 466.923 367.635 457.459 366.443C457.141 366.41 456.822 366.376 456.503 366.359C461.604 383.575 453.583 409.716 460.849 416.981C499.541 455.674 527.461 475.909 539.29 499.332C545.784 512.185 571.707 502.185 593.822 534.585C604.208 549.82 606.087 510.927 649.46 566.314C639.209 546.263 620.617 525.272 618.654 521.833V521.799Z" fill="#9B95B4"/>
<path d="M610.282 115.917C574.425 152.646 547.311 239.242 534.189 283.84C429.237 422.904 502.41 440.337 502.41 440.337C511.873 438.559 523.703 438.559 528.434 440.337C529.609 427.921 539.676 358.154 627.178 332.13C620.265 309.126 594.661 132.277 732.432 82.5942C732.432 82.5942 646.155 79.1713 610.282 115.917Z" fill="#A688BD"/>
<path d="M569.777 298.488C577.429 296.576 589.509 306.71 597.144 310.536C585.684 257.028 577.412 180.013 629.007 143.72C641.272 136.354 653.555 131.454 665.988 127.646C682.146 108.82 703.74 92.9468 732.415 82.5942C732.415 82.5942 646.138 79.1713 610.265 115.917C574.408 152.646 547.294 239.242 534.173 283.84C429.22 422.904 502.393 440.337 502.393 440.337C505.833 439.7 509.591 439.28 513.199 439.113C505.867 385.621 513.266 319.043 569.777 298.488Z" fill="#9075A4"/>
<path d="M456.839 432.133C477.829 444.163 514.273 450.942 510.783 445.724C504.742 436.68 489.272 419.532 489.272 398.944C489.272 378.356 533.25 303.506 543.535 293.22C555.7 293.22 565.985 290.418 558.502 260.468C558.502 234.276 586.321 154.66 621.188 125.733C665.166 89.2388 737.214 81.7554 737.214 81.7554C737.214 81.7554 701.358 68.8524 638.974 94.8597C616.524 104.222 599.879 112.612 589.258 127.713C571.472 152.982 536.052 253.924 530.448 276.374C489.792 334.077 478.232 357.399 460.278 392.4C452.224 408.105 450.161 406.931 442.509 408.307C439.271 408.877 441.469 423.324 456.872 432.149L456.839 432.133Z" fill="#B6AED2"/>
<path d="M652.951 89.5235C597.278 126.974 548.619 206.355 554.14 258.756C555.062 267.548 542.176 271.172 549.089 273.924C555.985 276.675 556.086 282.598 556.69 289.914C561.203 286.055 562.848 277.833 558.502 260.467C558.502 234.275 586.321 154.659 621.188 125.732C665.166 89.2382 737.214 81.7548 737.214 81.7548C737.214 81.7548 706.677 70.7982 652.967 89.5067L652.951 89.5235Z" fill="#9B95B4"/>
<path d="M469.775 418.509C464.322 431.899 465.916 432.805 469.54 431.899C473.164 430.993 485.866 441.043 498.786 452.218C511.706 463.393 517.293 453.829 510.766 445.708C502.226 435.07 489.255 419.516 489.255 398.928C489.255 386.21 506.051 352.769 521.303 326.645C496.957 344.262 475.212 405.103 469.775 418.509Z" fill="#9B95B4"/>
<path d="M619.409 108.903C622.245 105.715 626.155 94.0033 629.695 92.9294C633.235 91.8723 657.733 90.0938 661.273 89.3723C664.83 88.6676 674.763 103.299 647.783 106.403C638.554 107.46 638.554 109.96 638.202 111.722L619.393 108.886L619.409 108.903Z" fill="#B6AED2"/>
<path d="M661.273 89.3899C659.561 89.7422 652.917 90.3295 646.138 90.9671C661.323 95.3632 644.175 93.937 633.487 99.6418C629.628 101.706 627.732 106.068 626.91 110.028L638.219 111.739C638.571 109.961 638.571 107.478 647.799 106.42C674.78 103.3 664.83 88.6852 661.29 89.3899H661.273Z" fill="#9B95B4"/>
<path d="M602.01 125.23C605.198 122.747 610.164 111.74 613.017 108.904C615.852 106.068 636.088 105.347 638.571 107.478C641.054 109.609 645.316 129.827 647.447 132.68C649.578 135.515 643.537 144.391 635.383 140.129C627.228 135.868 625.802 127.713 625.802 127.713C625.802 127.713 610.55 131.975 608.419 149.71C620.601 146.187 628.285 149.006 628.285 153.972C628.285 162.429 629.393 163.519 618.822 166.237C609.124 168.721 597.781 174.912 595.65 175.969C593.52 177.026 585.365 172.06 584.66 167.446C583.956 162.831 586.086 150.063 586.086 150.063L602.06 125.213L602.01 125.23Z" fill="#B6AED2"/>
<path d="M600.349 151.37C596.523 159.021 602.513 156.572 608 155.196C618.52 152.561 615.752 163.602 611.842 167.528C614.107 166.689 616.44 166.018 618.722 165.699C629.98 164.089 628.302 162.612 628.302 153.988C628.302 149.021 620.903 146.353 608.436 149.726C608.872 146.102 615.081 134.809 616.373 132.242C603.151 137.142 601.741 147.293 600.382 151.387L600.349 151.37Z" fill="#9B95B4"/>
<path d="M647.43 132.679C645.299 129.843 641.038 109.608 638.554 107.477C638.319 107.276 629.074 113.92 630.903 118.518C632.749 123.115 636.105 131.974 641.071 141.136C646.055 140.246 649.008 134.793 647.414 132.679H647.43Z" fill="#9B95B4"/>
<path d="M384.538 375.184C384.706 356.979 392.357 290.535 393.649 284.025C394.958 277.514 365.008 313.975 338.95 355.654C328.513 357.08 308.614 367.198 298.832 379.564C292.321 381.51 242.824 385.319 241.532 387.936C240.223 390.537 268.982 403.172 285.694 409.699C284.016 420.236 286.331 428.34 295.006 430.773C302.02 432.736 311.03 443.156 308.63 449.851C304.318 461.814 281.7 477.871 295.476 487.721C298.832 490.12 309.637 494.365 309.637 494.365C309.637 494.365 305.862 510.641 317.976 515.49C329.94 520.272 344.806 518.46 344.806 518.46C344.806 518.46 342.423 496.899 351.903 486.06C361.769 488.19 362.172 531.547 359.471 553.679C358.346 562.924 378.011 573.159 383.884 571.85C389.74 570.541 425.277 555.96 428.533 542.286C431.788 528.611 427.811 516.178 416.083 497.301C404.052 477.905 402.508 443.844 408.431 430.303C412.995 419.883 415.864 407.937 402.206 401.108C396.468 398.239 387.793 384.312 384.538 375.201V375.184Z" fill="#B6AED2"/>
<path d="M331.936 460.405C331.316 458.24 319.956 468.224 320.191 475.036C320.426 481.848 333.111 493.375 331.769 487.972C327.456 470.724 332.557 462.569 331.936 460.405Z" fill="#9B95B4"/>
<path d="M416.083 497.268C402.911 476.042 403.7 441.092 408.431 430.27C412.995 419.85 415.864 407.903 402.206 401.074C396.468 398.205 387.793 384.278 384.538 375.168C384.135 361.124 389.052 318.035 391.887 296.307C375.125 320.955 371.165 371.543 372.625 383.775C373.33 389.581 382.877 378.205 385.797 391.04C391.25 415.101 405.478 404.329 396.602 430.588C390.73 447.988 393.901 470.757 388.515 463.66C390.226 484.348 403.297 510.204 412.76 531.514C414.623 536.463 429.17 543.276 418.801 554.215C423.784 550.39 427.559 546.279 428.532 542.235C431.788 528.56 427.811 516.127 416.083 497.251V497.268Z" fill="#9B95B4"/>
<path d="M351.685 485.741C358.413 478.325 371.098 472.871 375.897 469.516C380.679 466.16 383.078 458.978 383.548 447.988C384.505 457.082 389.723 468.257 394.538 474.012C401.25 482.083 413.7 522.638 409.874 535.071C406.049 547.504 379.723 558.998 372.541 558.511C365.36 558.024 361.534 556.598 361.064 550.86C361.064 550.86 367.642 503.174 351.702 485.724L351.685 485.741Z" fill="#933000"/>
<path d="M409.858 535.088C413.683 522.655 401.233 482.084 394.522 474.03C389.723 468.275 384.488 457.083 383.532 448.006C383.045 459.013 380.662 466.194 375.88 469.533C371.098 472.889 359.739 477.453 351.668 485.758C361.551 494.316 360.645 508.074 361.551 519.786C368.816 517.974 390.377 534.065 399.22 547.421C404.354 543.746 408.499 539.484 409.858 535.088Z" fill="#6A1B00"/>
<path d="M368.229 496.882C378.296 508.98 374.035 535.591 379.32 542.068C385.411 549.534 391.35 550.407 397.559 548.544C400.965 547.521 408.18 540.558 409.874 535.071C413.7 522.638 401.25 482.066 394.538 474.012C389.74 468.257 384.505 457.066 383.548 447.988C383.062 458.995 380.679 466.177 375.897 469.516C373.363 471.294 370.092 473.375 365.511 476.596C364.034 480.187 365.427 493.509 368.246 496.882H368.229Z" fill="#EE869A"/>
<path d="M383.548 447.988C383.062 458.995 380.679 466.177 375.897 469.516C373.363 471.294 370.092 473.375 365.511 476.596C364.034 480.187 365.427 493.509 368.246 496.882C368.279 496.932 368.313 496.966 368.347 497.016C375.914 484.08 391.468 489.315 404.337 496.664C401.133 486.395 397.341 477.385 394.538 474.012C389.74 468.257 384.505 457.066 383.548 447.988Z" fill="#CF7487"/>
<path d="M356.064 504.484C354.772 503.913 354.789 503.024 356.115 502.504C357.944 501.799 360.477 500.943 362.172 500.943C364.89 500.943 365.662 507.336 362.944 506.95C361.266 506.715 358.179 505.44 356.064 504.501V504.484Z" fill="white"/>
<path d="M354.454 495.691C353.078 495.104 353.145 494.114 354.571 493.594C356.165 493.006 358.162 492.402 359.538 492.402C361.987 492.402 362.675 498.023 360.242 497.688C358.833 497.486 356.316 496.496 354.437 495.691H354.454Z" fill="white"/>
<path d="M356.652 513.343C355.796 512.789 356.081 512.151 357.289 511.883C359.403 511.396 362.642 510.776 364.638 511.078C367.558 511.531 367.34 518.527 364.471 517.655C362.457 517.051 358.682 514.685 356.652 513.343Z" fill="white"/>
<path d="M357.642 524.836C357.239 524.55 357.558 523.325 358.581 522.99C360.679 522.302 363.296 522.101 364.991 522.436C367.894 523.04 367.306 530.02 364.504 529.014C362.742 528.376 359.689 526.312 357.642 524.836Z" fill="white"/>
<path d="M357.658 534.836C357.004 534.047 357.256 533.494 358.279 533.494C360.528 533.477 364.454 533.594 366.585 534.551C369.471 535.826 367.34 543.628 364.638 541.9C362.692 540.658 359.37 536.866 357.658 534.836Z" fill="white"/>
<path d="M355.393 544.719C355.393 544.719 363.128 544.652 366.501 546.347C369.655 547.924 366.887 556.515 363.95 554.451C361.031 552.387 355.376 544.719 355.376 544.719H355.393Z" fill="white"/>
<path d="M392.995 489.769C392.055 489.501 392.055 488.913 392.995 488.36C394.689 487.336 397.441 485.843 399.304 485.557C401.988 485.138 403.716 491.346 400.982 491.363C399.069 491.38 395.176 490.373 393.012 489.752L392.995 489.769Z" fill="white"/>
<path d="M389.471 479.633C389.471 479.633 392.894 476.882 395.478 476.479C397.894 476.11 399.438 481.563 396.971 481.596C394.505 481.63 389.471 479.633 389.471 479.633Z" fill="white"/>
<path d="M395.26 498.208C395.26 498.208 399.841 495.405 403.029 495.389C405.982 495.389 406.837 502.335 403.868 501.916C400.915 501.496 395.26 498.191 395.26 498.191V498.208Z" fill="white"/>
<path d="M398.633 509.801C397.542 509.231 397.592 508.509 398.75 508.124C400.797 507.419 403.985 506.446 406.015 506.546C408.968 506.697 409.455 513.677 406.535 513.124C404.572 512.738 400.881 510.942 398.649 509.801H398.633Z" fill="white"/>
<path d="M401.368 521.179C399.857 519.92 400.193 518.612 402.072 518.36C404.253 518.091 407.039 517.89 408.801 518.36C411.838 519.182 410.932 527.219 407.995 525.927C406.284 525.172 403.448 522.924 401.368 521.162V521.179Z" fill="white"/>
<path d="M398.465 532.369C397.491 531.446 397.928 530.641 399.471 530.49C402.022 530.221 405.847 530.02 408.096 530.741C411.452 531.832 410.025 540.742 406.821 539.131C404.589 538.024 400.679 534.45 398.481 532.369H398.465Z" fill="white"/>
<path d="M356.501 389.9C352.658 395.018 343.447 409.767 340.494 430.237C344.017 429.28 362.658 414.8 371.266 399.867C366.249 394.062 356.501 389.9 356.501 389.9Z" fill="white"/>
<path d="M359.739 392.148C358.363 390.655 356.501 389.883 356.501 389.883C352.658 395 342.071 414.179 340.494 430.219C341.198 430.035 340.678 430.035 342.239 429.112C344.453 418.357 351.433 402.903 359.739 392.148Z" fill="#DCDDDD"/>
<path d="M359.202 414.548C359.169 408.625 353.631 404.515 348.43 404.968C347.071 406.109 343.833 413.961 342.071 419.918C342.927 422.888 344.554 424.414 347.104 425.522C351.752 422.686 356.45 417.619 359.202 414.532V414.548Z" fill="#009944"/>
<path d="M348.447 404.967C348.212 405.169 347.927 405.571 347.608 406.108C345.594 410.622 343.698 415.639 342.339 420.672C342.708 421.696 343.195 422.535 343.816 423.24C345.561 417.585 348.229 411.259 351.467 405.202C350.477 404.967 349.47 404.883 348.464 404.967H348.447Z" fill="#00873C"/>
<path d="M352.625 412.333C351.014 410.957 347.91 411.125 346.786 413.155C345.88 414.799 345.997 417.316 348.027 418.608C349.571 419.598 352.138 419.162 353.279 417.769C354.42 416.376 354.286 413.725 352.641 412.333H352.625Z" fill="#0E141B"/>
<path d="M346.098 426.377C343.715 425.303 342.239 423.877 341.433 421.695C341.265 421.242 343.027 418.96 343.212 419.598C343.9 422.014 345.125 423.373 347.574 424.447C348.178 424.716 346.266 426.461 346.081 426.377H346.098Z" fill="#0E141B"/>
<path d="M358.027 414.548C358.027 412.266 357.037 410.119 355.276 408.508C353.43 406.813 350.645 405.924 348.279 406.125C347.625 406.176 348.715 403.743 348.9 403.726C351.735 403.642 354.756 404.565 356.937 406.562C358.816 408.273 359.923 410.656 360.276 413.055C360.343 413.542 358.011 415.203 358.011 414.548H358.027Z" fill="#0E141B"/>
<path d="M253.159 537.387C249.065 540.726 247.757 539.619 244.602 536.934L241.263 534.35C224.249 522.991 136.126 468.56 58.3393 504.081L56.6782 506.632C133.089 471.748 217.169 522.588 239.384 535.961C241.548 537.27 244.518 541.079 244.518 541.079C247.757 543.814 249.401 543.512 255.341 538.663C256.716 537.538 279.116 519.753 309.872 508.779C309.788 507.924 309.587 507.085 309.1 506.229C277.589 517.655 254.586 536.23 253.176 537.371L253.159 537.387Z" fill="#0E141B"/>
<path d="M346.786 497.739C346.182 498.796 345.628 499.752 345.192 500.742C349.823 500.323 354.521 500.138 359.252 500.306L359.353 497.437C355.125 497.286 350.93 497.42 346.786 497.739Z" fill="#0E141B"/>
<path d="M42.8524 509.734C40.4195 515.204 38.9597 521.144 40.8893 521.731C42.5001 522.218 46.1243 518.812 48.4901 516.58C61.9636 503.845 114.465 449.28 157.754 432.551L155.573 429.967C111.931 446.847 55.7554 504.969 48.2888 513.308C41.4262 520.96 44.0269 514.097 45.6209 510.49C50.5036 499.516 96.847 442.401 134.583 424.749L136.294 420.756C95.0013 438.693 47.8022 498.627 42.8692 509.718L42.8524 509.734Z" fill="#0E141B"/>
<path d="M125.589 404.095C123.458 405.706 120.203 407.619 118.19 408.424L116.831 408.961C112.133 410.807 105.723 412.854 106.092 416.277C106.411 419.196 109.247 423.056 113.827 424.331C118.24 425.556 123.442 427.418 138.408 416.21L138.828 414.364C113.626 430.421 107.921 416.545 110.018 414.649C111.579 413.24 114.23 412.669 117.737 411.294L119.113 410.757C121.445 409.834 123.593 408.189 125.858 406.478C129.532 403.693 133.341 400.79 138.157 400.79C143.224 400.79 145.338 402.686 147.788 404.884C149.097 406.058 151.16 405.639 149.952 404.548C147.368 402.233 144.18 398.307 138.173 398.307C132.519 398.307 129.432 401.209 125.606 404.112L125.589 404.095Z" fill="#0E141B"/>
<path d="M141.378 408.76C138.912 411.512 136.831 415.975 134.667 420.22C130.908 427.569 125.17 430.119 125.623 433.257C125.824 434.599 126.462 436.026 128.274 437.133C131.546 439.13 136.999 439.751 141.798 436.663C145.992 433.962 148.727 430.136 150.925 427.066C153.006 424.163 154.634 421.864 156.345 422.082L157.788 420.941C154.6 420.539 151.362 422.2 148.912 425.639C146.731 428.693 144.264 432.166 140.472 434.599C136.613 437.083 132.133 436.814 129.65 435.069C127.183 433.341 133.593 430.64 136.915 421.344C138.459 417.015 141.009 412.955 143.241 410.455C147.133 406.126 151.798 406.746 157.184 407.451L161.127 407.904C165.775 408.29 166.597 409.347 168.443 412.971L172.117 417.418L174.164 415.992L170.993 411.008C168.375 407.619 167.05 405.924 161.312 405.438L157.486 405.001C151.915 404.263 146.143 403.508 141.361 408.81L141.378 408.76Z" fill="#0E141B"/>
<path d="M172.386 415.588C157.402 418.34 154.801 419.095 152.603 422.77C150.405 426.444 151.999 431.495 157.251 434.28C163.627 437.653 167.318 437.3 173.527 436.495C177.554 435.975 184.919 434.062 187.587 433.257C190.406 436.025 199.517 443.626 209.35 450.472C224.484 461.026 245.458 474.365 247.488 479.415C248.897 482.956 251.582 486.261 255.475 486.664C260.542 487.201 266.851 484.499 269.737 480.741C278.898 476.462 285.694 475.959 292.237 477.15L293.06 473.727C285.861 472.419 269.787 477.217 268.143 478.862C264.871 482.134 260.29 483.912 255.827 483.442C253.109 483.157 251.23 481.781 250.257 479.348C248.042 473.828 231.984 462.301 211.212 447.821C201.816 441.26 193.661 435.421 190.322 431.344C193.644 429.985 194.936 426.679 191.061 428.642C186.832 430.79 178.711 432.283 174.315 432.854C168.359 433.626 164.5 434.096 159.03 431.21C157.419 430.354 154.785 428.626 155.103 426.629C155.472 424.381 156.983 421.763 160.254 421.058C163.526 420.354 168.711 418.592 173.409 417.736C178.107 416.88 184.483 415.706 191.866 419.397C200.44 423.693 236.431 446.327 253.059 457.787C253.059 457.787 251.414 460.573 255.24 459.012C268.831 453.425 292.12 447.183 309.1 445.405C309.687 445.338 309.033 443.123 308.312 443.19C291.768 444.834 273.646 448.576 255.894 455.942C238.562 444.046 210.944 427.82 202.906 422.283C185.507 410.27 176.362 414.867 172.386 415.605V415.588Z" fill="#0E141B"/>
<path d="M248.914 531.699C249.434 535.223 251.112 536.515 250.76 533.26C249.334 520.155 254.082 491.178 255.206 488.795C256.331 486.413 254.334 487.269 252.757 490.389C251.196 493.527 247.069 519.148 248.914 531.682V531.699Z" fill="#0E141B"/>
<path d="M759.983 161.607C759.799 160.281 750.671 162.479 740.268 165.785C682.532 184.04 656.977 218.621 653.269 222.816C649.561 227.011 651.776 225.904 655.014 225.35C658.655 224.729 666.843 223.806 673.857 222.934C651.541 249.293 649.209 290.871 647.179 327.785C646.071 348.104 645.014 367.299 640.584 380.773C625.45 426.697 589.61 433.459 565.885 437.939L565.683 440.892C592.546 436.949 627.48 430.304 643.135 382.77C647.699 368.944 648.907 348.457 650.031 327.953C652.112 289.865 657.699 238.387 684.092 215.199C698.002 202.984 709.831 194.779 704.831 196.44C701.123 197.681 683.169 211.071 675.703 219.645C666.239 220.568 659.427 222.514 658.085 222.296C656.743 222.095 692.649 183.872 741.107 168.553C748.322 166.271 751.292 165.718 752.466 165.734C751.98 166.892 745.453 175.181 745.453 175.181C720.637 207.296 705.787 236.726 700.989 257.079C700.468 259.294 694.327 235.451 691.81 229.528C698.17 219.662 708.791 208.302 709.764 205.098C710.754 201.893 696.592 218.353 691.508 225.098C684.596 234.226 664.259 260.921 668.303 313.372L668.337 313.909C673.79 384.783 679.897 464.332 607.513 494.366C607.681 495.323 608.134 496.195 608.621 497.084C664.612 475.859 674.73 427.804 674.73 374.917C674.73 355.403 673.672 334.815 672.179 315.419L672.146 314.882C671.844 311.006 671.709 307.248 671.709 303.607C671.709 266.76 682.129 243.119 689.814 233.236C691.727 240.451 697.549 260.166 699.529 263.371C701.509 266.576 702.029 265.233 703.371 260.636C708.556 242.867 721.207 213.94 749.278 175.483C754.866 167.832 760.185 162.983 759.983 161.657V161.607Z" fill="#0E141B"/>
<path d="M457.745 365.251C447.912 364.026 439.137 369.765 438.113 374.882C437.09 380 438.197 390 434.556 393.222C420.11 405.974 418.18 412.836 418.18 412.836C416.905 412.199 411.871 409.631 411.871 409.631L412.475 414.464C412.475 414.464 422.576 418.373 427.442 418.793C436.435 419.581 427.694 418.054 421.771 414.346C423.499 410.638 428.717 403.004 433.784 398.91C441.033 393.037 441.385 376.61 441.385 376.61C442.14 372.231 449.087 366.996 457.275 368.02C462.359 368.657 462.963 372.08 463.751 379.161C463.953 380.956 464.188 382.903 464.54 384.916C465.312 382.584 466.101 380.235 466.872 377.902C466.168 371.594 465.245 366.174 457.745 365.234V365.251Z" fill="#0E141B"/>
<path d="M654.746 573.529C647.732 554.351 634.846 540.827 627.598 531.078C625.685 528.511 621.423 523.679 618.705 518.981C615.987 514.283 610.936 497.722 608.587 490.675C607.496 487.403 604.661 485.205 600.785 484.618C596.221 483.93 591.221 485.591 589.157 488.477C587.781 490.406 587.362 493.645 587.362 496.833C587.362 498.544 587.496 500.172 587.647 501.665C583.452 497.672 576.17 490.54 571.036 484.265C566.405 478.611 562.579 459.953 561.992 457.033C563.099 453.828 567.563 446.026 566.707 431.361C566.623 429.969 565.197 429.599 564.542 429.381C562.831 428.811 557.109 430.036 554.442 430.254C549.693 430.64 540.867 430.69 531.522 425.086V428.358C543.25 434.063 551.925 433.425 557.562 432.989C559.844 432.821 561.656 432.67 562.747 433.039C562.848 433.073 562.948 433.24 563.016 433.375C564.626 436.68 562.428 446.227 559.928 453.375C559.928 453.375 554.19 442.972 554.005 444.734C553.754 447.201 556.992 451.211 558.703 457.234C560.415 463.258 562.982 479.601 568.502 486.346C576.17 495.725 597.446 514.585 601.641 522.236C605.835 529.887 605.835 528.411 603.621 522.236C601.406 516.061 591.473 505.709 591.473 505.709C590.617 501.162 589.929 493.007 591.791 490.406C593.117 488.544 597.01 487.386 600.282 487.873C602.161 488.158 604.577 489.064 605.483 491.749C607.933 499.131 614.829 518.343 617.195 522.488C617.765 523.477 622.363 528.025 624.494 530.894C631.658 540.525 646.541 560.559 653.387 579.301C660.635 599.1 662.582 607.339 662.582 610.476C662.582 611.198 661.642 611.802 660.518 611.08C653.471 606.55 640.517 586.432 636.255 579.821L634.98 577.841C634.057 576.449 633.336 576.197 631.759 576.046C628.705 575.744 626.339 576.885 622.866 579.502C619.393 582.12 619.611 582.12 623.118 583.21C623.118 586.566 633.302 610.694 633.302 610.694C635.349 615.728 636.725 617.356 638.084 619.805C639.98 623.228 636.96 622.289 635.551 621.651C624.41 616.634 607.345 598.764 605.063 587.305C603.318 578.546 593.855 555.844 593.419 554.804C593.419 554.804 604.359 551.633 607.077 552.119C609.795 552.606 608.319 548.411 598.939 550.643C589.56 552.857 577.63 555.307 573.1 552.018C557.025 540.374 535.012 531.397 529.609 536.817C525.095 541.314 516.018 565.207 515.28 571.868C514.994 574.368 514.726 575.459 515.649 575.66C517.108 575.693 519.424 569.25 519.424 569.25C521.018 568.999 521.303 569.066 521.924 569.636C522.813 570.442 522.226 576.063 522.595 583.345C523.182 594.838 530.565 612.859 543.149 627.154C547.227 631.785 549.055 633.816 548.485 634.604C547.864 635.175 544.609 633.849 539.19 631.131C533.787 628.43 514.155 607.758 511.269 604.872C508.383 601.986 504.189 602.238 502.712 603.714C501.236 605.191 508.048 603.781 508.467 606.097C508.887 608.412 509.239 614.402 521.706 635.191C523.703 638.53 525.028 640.427 524.525 640.963C523.585 641.383 513.853 634.755 508.92 631.265C505.112 628.581 501.521 626.03 499.054 624.654C493.97 621.802 493.584 616.668 493.014 608.916C492.561 602.825 492.192 599.301 490.615 593.597C490.615 593.597 496.051 592.858 499.742 591.617C503.45 590.375 503.585 589.016 496.034 590.375C479.742 593.345 469.138 572.12 465.178 557.304C486.89 564.955 509.927 554.25 512.561 551.381C517.998 545.458 500.967 558.294 481.705 556.566C441.285 552.941 434.103 520.709 429.455 498.024C425.596 479.181 415.63 468.929 406.686 467.822L406.972 470.406C412.123 471.043 421.972 477.721 426.284 498.678C431.066 521.951 438.097 547.387 460.832 555.727C463.802 566.515 476.302 592.875 487.51 593.429C489.004 599.301 489.423 604.536 489.776 609.151C490.38 617.322 490.849 623.765 497.46 627.49C499.776 628.799 503.316 631.282 507.041 633.916C519.323 642.591 524.575 645.896 527.025 643.615C527.579 643.094 527.864 642.44 527.864 641.568C527.864 639.856 526.471 637.876 524.189 634.067C518.098 623.899 515.212 616.399 513.535 611.986C516.303 613.228 532.411 631.55 537.746 634.017C546.304 637.977 552.428 638.195 551.841 635.024C551.455 632.977 549.894 629.873 545.599 624.99C533.686 611.449 525.011 592.305 525.062 583.009C525.112 573.714 525.884 568.831 524.156 567.237C523.166 566.331 521.857 565.878 520.263 565.827C521.924 554.2 528.451 542.589 531.924 539.115C534.877 536.162 548.703 538.78 571.22 554.653C576.875 558.646 586.489 556.414 590.164 555.341C592.379 560.71 600.466 580.643 601.926 587.959C604.426 600.476 618.101 616.584 630.081 621.97C636.172 624.705 646.373 628.883 641.558 620.476C640.199 618.094 638.37 614.386 636.373 609.486C636.373 609.486 626.071 584.284 626.071 581.314C626.071 581.18 626.087 581.063 626.104 580.962C627.212 579.905 629.343 578.579 630.886 578.73C631.49 578.798 633.588 581.6 633.588 581.6C641.138 593.328 660.132 619.369 664.377 614.52C665.619 613.094 664.964 601.466 654.763 573.596L654.746 573.529Z" fill="#0E141B"/>
<path d="M624.124 217.094C620.55 236.189 619.292 254.662 619.292 271.055C619.292 300.788 623.403 323.523 625.433 331.174C545.733 352.383 529.172 421.629 527.176 438.492C521.505 437.133 510.934 437.267 503.132 437.687L506.42 441.244C514.625 440.757 519.256 440.002 524.676 441.496C530.112 442.972 530.414 443.526 530.85 439.767C534.189 410.757 552.999 354.698 625.232 336.879C630.769 335.52 630.517 336.51 629.729 330.335C628.101 317.667 616.641 272.784 626.943 217.614C635.668 170.919 661.139 109.81 732.902 83.9369L726.627 83.3496C653.571 109.693 632.984 169.644 624.108 217.094H624.124Z" fill="#0E141B"/>
<path d="M557.529 288.018L563.485 291.189C577.529 298.555 590.885 305.803 612.161 326.693C614.829 329.311 614.325 325.586 610.114 320.518C593.754 300.887 575.684 294.847 561.455 287.397L558.468 286.34L557.546 288.018H557.529Z" fill="#0E141B"/>
<path d="M586.17 170.314C568.636 203.503 556.874 242.413 556.874 260.468V260.669L556.925 260.87C558.586 267.548 559.425 273.035 559.425 277.431C559.425 281.827 558.552 285.233 556.824 287.465C553.988 291.106 542.847 291.324 540.817 292.549C538.77 293.774 535.297 295.183 538.552 296.005C535.683 298.874 487.645 378.004 487.645 398.961C487.645 419.918 501.823 437.183 507.494 443.106C509.81 445.505 516.706 451.63 511.94 444.599C507.175 437.569 490.9 419.045 490.9 398.961C490.9 378.876 533.887 305.905 544.307 294.831C550.096 294.764 556.891 294.126 560.448 289.596C562.646 286.777 562.697 282.716 562.697 277.448C562.697 272.817 561.841 267.162 560.163 260.35C560.213 243.185 571.757 205.366 588.67 172.915C587.798 172.177 586.942 171.321 586.204 170.331L586.17 170.314Z" fill="#0E141B"/>
<path d="M735.234 78.4497C723.17 76.1174 692.582 70.8321 645.635 90.2117H655.904C691.039 78.4329 715.871 79.5403 728.07 81.4196C715.15 83.5002 689.898 88.5171 664.293 98.9871C662.296 99.8093 660.451 102.964 658.454 103.853C655.669 105.078 650.098 105.195 647.346 106.571C644.41 108.031 644.125 108.45 641.256 110.078C641.44 111.169 641.574 113.065 641.675 114.222C682.649 90.1278 731.493 84.0874 737.365 83.3659C744.211 82.527 747.902 80.8994 735.218 78.4497H735.234Z" fill="#0E141B"/>
<path d="M624.024 99.759C607.631 107.125 596.204 113.031 588.016 124.659C570.298 149.827 535.011 251.726 528.938 275.636C492.813 325.284 479.339 352.751 459.204 389.212C450.379 405.202 448.533 406.511 443.063 407.35C440.194 407.803 441.184 409.145 444.087 409.229C450.899 409.397 455.043 408.155 461.721 393.038C476.604 359.312 526.253 285.351 529.542 281.659C532.813 277.985 532.696 275.602 535.263 266.944C538.535 255.904 572.949 153.653 590.566 128.635C597.949 118.149 608.117 110.967 622.765 103.836C622.597 102.326 623.319 101.085 624.007 99.7422L624.024 99.759Z" fill="#0E141B"/>
<path d="M661.659 87.3263C637.564 91.6552 633.957 88.0981 627.849 91.7727C622.346 95.0781 619.477 106.958 618.47 108.082L621.926 107.813C623.151 106.437 626.725 97.1755 630.567 94.9775C632.329 93.9707 639.024 93.4674 646.608 92.7626C652.481 92.2089 659.981 90.917 661.525 90.6149C661.709 90.5814 662.515 90.8666 663.404 91.9908C663.924 92.6452 665.031 93.9539 663.874 96.7225C662.33 100.464 656.894 104.139 647.648 105.196C642.749 105.766 639.712 107.662 639.427 109.189L640.786 112.293C640.786 112.293 640.568 108.736 648.437 107.83C661.575 106.32 665.535 101.991 666.843 98.6856C668.152 95.4305 667.179 91.4539 665.602 89.5579C664.293 87.9806 662.968 87.0914 661.659 87.343V87.3263Z" fill="#0E141B"/>
<path d="M611.557 106.823C610.164 108.215 608.218 112.779 606.372 115.95C604.342 119.44 604.51 120.682 601.255 124.239C597.983 127.796 598.419 128.904 602.01 126.051C605.6 123.199 606.943 120.867 609.292 116.823C610.97 113.92 612.715 110.933 613.889 109.759C616.322 107.326 635.769 106.772 637.749 108.4C638.823 109.323 640.953 116.739 642.363 121.638C644.192 128.014 645.383 131.991 646.44 133.4C646.86 133.954 646.642 135.632 645.165 137.36C644.276 138.401 640.97 141.622 635.953 139.005C628.47 135.095 629.611 133.216 627.027 127.477C623.168 118.903 624.158 126.806 624.158 126.806C623.99 126.857 608.788 131.84 606.59 150.196C606.59 150.196 600.986 153.636 605.651 152.226C610.315 150.817 621.456 148.283 624.409 151.236C627.363 154.189 629.343 162.596 622.933 163.569C616.523 164.559 601.305 171.069 597.026 173.687C597.026 173.687 593.486 174.744 591.422 173.519C588.452 171.757 586.17 169.173 585.868 167.243C585.197 162.881 586.691 155.934 587.278 150.246C587.865 144.558 585.835 147.579 585.096 152.277C584.358 156.958 581.959 164.005 582.68 168.754C583.2 172.176 586.523 174.442 589.845 176.153C591.389 176.958 595.03 178.368 598.973 176.153C602.916 173.938 615.265 168.015 626.373 165.784C632.883 164.475 631.054 151.471 625.886 148.015C620.735 144.575 613.788 146.773 609.996 148.25C612.278 135.431 621.624 130.598 624.946 129.323C625.752 131.974 627.899 138.635 634.527 142.109C639.829 144.877 645.148 142.293 647.615 139.39C649.695 136.941 650.366 133.199 649.091 131.488C648.252 130.38 646.105 125.581 644.779 120.967C642.447 112.863 641.239 107.141 639.712 105.833C636.809 103.349 615.013 103.383 611.574 106.823H611.557Z" fill="#0E141B"/>
<path d="M361.501 506.044C360.528 505.558 359.554 505.188 358.732 505.004C359.068 507.101 359.336 509.333 359.571 511.665C360.427 511.346 361.199 511.162 361.954 511.095C361.82 509.366 361.669 507.672 361.501 506.044Z" fill="#0E141B"/>
<path d="M362.575 527.873C361.82 527.118 361.081 526.363 360.326 526.027C360.326 526.514 360.36 526.984 360.36 527.487C360.36 529.433 360.293 531.464 360.175 533.511H362.541C362.575 531.682 362.575 529.786 362.575 527.89V527.873Z" fill="#0E141B"/>
<path d="M362.323 540.658C361.434 540.037 360.259 539.852 359.789 538.594C359.605 540.758 359.387 542.889 359.152 544.953H362.105C362.189 543.594 362.256 542.151 362.306 540.641L362.323 540.658Z" fill="#0E141B"/>
<path d="M362.34 517.252C361.484 516.934 360.679 516.531 359.957 516.111C360.125 518.427 360.209 520.843 360.276 523.293C361.014 522.571 361.752 521.749 362.491 521.682C362.457 520.205 362.407 518.729 362.34 517.269V517.252Z" fill="#0E141B"/>
<path d="M360.108 497.067C359.001 497.067 357.91 496.865 356.803 496.127C357.356 497.973 357.86 500.087 358.296 502.385C359.202 502 360.024 501.513 360.863 501.11C360.645 499.701 360.393 498.342 360.108 497.067Z" fill="#0E141B"/>
<path d="M376.434 470.305C380.125 467.285 382.76 462.302 383.85 454.5C385.981 462.386 390.126 470.221 393.783 474.634C399.841 481.899 409.623 513.209 409.623 528.981C409.623 531.297 409.405 533.293 408.935 534.803C405.294 546.666 377.81 557.052 372.592 557.589C367.373 558.109 362.122 556.431 361.736 551.8L360.091 550.962C360.091 551.079 360.125 551.163 360.142 551.264C359.638 550.76 359.118 550.24 358.615 549.737C358.464 551.012 358.313 552.253 358.179 553.411C358.145 553.73 358.111 554.066 358.111 554.384C358.111 557.673 360.075 561.18 363.85 564.603C370.041 570.224 380.109 573.764 384.589 572.774C389.505 571.683 426.519 557.707 430.093 542.656C430.848 539.468 431.637 536.565 431.637 533.394C431.637 522.974 425.378 509.752 415.814 494.366C408.566 482.688 406.401 466.916 406.401 451.899C406.401 443.274 407.307 435.204 408.952 431.445C410.327 428.308 414.069 420.925 414.069 414.901C414.069 408.878 410.042 403.76 401.619 399.549C396.451 396.965 386.283 379.28 385.243 373.81C384.219 368.34 395.126 288.556 395.646 283.271C396.149 277.985 390.864 280.519 373.112 303.523C361.434 318.674 349.42 337.064 338.698 354.162C328.396 355.873 311.785 361.897 297.942 378.105C294.939 378.877 285.241 379.951 274.922 381.109C261.18 382.652 252.891 383.676 247.857 384.515C238.612 386.058 238.36 389.347 245.542 393.24C250.039 395.673 282.053 410.438 283.848 411.243C282.422 422.267 285.61 429.835 294.536 432.335C299.352 433.694 305.275 439.231 307.171 443.795C309.285 448.879 304.117 454.516 300.577 459.181C295.191 466.295 288.949 474.148 288.949 480.708C288.949 481.262 288.982 481.816 289.066 482.353C289.503 485.188 290.09 486.262 292.808 488.192C295.644 490.222 305.073 493.997 307.976 495.188C307.758 496.531 307.456 499.333 307.456 500.977C307.456 507.252 309.486 513.83 317.305 516.967C329.52 521.85 339.671 520.927 343.43 520.592C347.188 520.256 347.004 520.256 346.098 512.454C345.259 505.289 347.054 495.071 352.289 488.158C353.531 488.913 354.672 490.625 355.662 493.074C356.702 492.739 357.608 492.185 358.531 491.732C357.34 488.561 355.846 486.463 353.95 485.893C361.904 478.258 367.004 477.94 376.35 470.305H376.434ZM426.939 541.884C423.935 554.519 389.589 568.898 383.515 570.24C380.461 570.928 371.619 567.271 366.014 562.187C363.665 560.056 362.189 557.941 361.618 556.012C363.33 558.663 366.467 559.804 371.451 560.14C379.236 560.66 407.744 548.596 411.687 535.76C415.797 522.421 401.821 481.312 395.243 473.409C390.696 467.956 385.864 457.839 384.924 448.811C384.924 448.811 386.216 439.969 386.3 434.885C386.35 431.529 385.142 430.908 384.756 434.482C382.928 451.513 379.823 464.567 375.545 467.554C375.545 467.554 355.595 478.594 349.974 485.624C344.705 492.219 342.188 501.783 342.977 515.726C343.044 516.917 342.809 516.967 341.97 517.018C337.289 517.286 327.121 517.353 318.58 513.947C311.986 511.313 310.678 504.786 310.678 500.054C310.678 497.152 310.694 495.91 310.761 495.675C310.761 495.675 314.688 497.89 315.359 497.386C316.047 496.883 314.319 494.735 310.224 492.823C306.147 490.91 299.57 488.628 296.415 486.379C294.419 484.953 293.295 483.309 292.993 481.346C292.942 480.977 292.909 480.607 292.909 480.205C292.909 474.735 298.345 467.537 303.194 461.127C312.506 448.828 310.761 445.372 309.285 442.536C306.583 437.301 301.03 430.757 295.425 429.18C289.67 427.569 286.784 423.039 286.784 415.69C286.784 413.928 287.439 409.029 288.865 403.29C289.922 399.062 289.754 395.924 285.157 407.183C281.583 405.472 247.991 394.062 244.032 388.542C242.589 386.528 292.321 381.729 296.214 381.494C296.214 381.494 295.207 383.877 294.368 386.209C293.781 387.87 292.758 391.662 296.332 385.354C305.711 368.81 328.077 358.675 337.507 357.4C337.507 357.4 334.101 363.021 335.628 362.853C337.155 362.685 339.755 358.373 341.433 355.353C351.668 336.93 390.629 286.224 391.552 286.576C392.609 287.012 381.954 367.182 382.86 374.615C383.766 382.048 394.841 399.213 401.451 402.518C408.23 405.908 410.546 410.673 410.546 415.908C410.546 420.338 408.901 425.086 406.921 429.6C405.176 433.576 404.17 441.311 404.17 450.439C404.17 466.144 407.173 485.994 414.69 498.108C423.902 512.94 427.979 523.394 427.979 533.209C427.979 536.112 427.627 538.965 426.939 541.867V541.884Z" fill="#0E141B"/>
<path d="M369.471 500.288C374.035 506.731 374.605 519.399 374.974 526.95L375.243 531.447C375.679 535.943 377.29 544.081 383.196 547.94C386.954 550.39 391.803 550.675 397.575 548.779C397.575 548.779 406.502 541.531 402.307 544.299C396.334 548.225 387.659 547.89 384.555 545.876C379.521 542.588 378.112 535.289 377.709 531.228L377.441 526.849C377.055 519.03 376.417 505.943 371.484 498.879C365.998 491.009 365.998 479.449 366.568 476.361L364.789 477.116C364.32 479.616 361.719 489.399 369.454 500.305L369.471 500.288Z" fill="#0E141B"/>
<path d="M376.249 469.114C374.857 471.413 374.186 475.423 375.209 478.225C376.602 482 378.196 481.95 377.005 477.587C375.897 473.543 377.81 469.936 378.968 467.57C380.125 465.188 376.249 469.114 376.249 469.114Z" fill="#0E141B"/>
<path d="M356.601 501.581C353.682 503.142 353.866 503.611 356.132 505.138C358.078 506.447 360.914 507.622 362.81 507.89C363.682 508.007 364.471 507.689 364.974 506.984C365.897 505.675 365.662 503.393 364.924 501.933C364.286 500.709 363.279 500.004 362.172 500.004C360.377 500.004 358.346 500.675 356.618 501.598L356.601 501.581ZM362.172 501.9C362.675 501.9 363.045 502.47 363.229 502.806C363.8 503.897 363.8 505.356 363.43 505.877C363.347 505.994 363.279 506.028 363.095 506.011C361.551 505.793 356.148 503.897 356.232 503.511C356.266 503.091 360.645 501.9 362.189 501.9H362.172Z" fill="#0E141B"/>
<path d="M354.705 493.04C352.189 494.45 352.272 494.869 354.286 496.329C355.897 497.487 358.581 498.309 360.142 498.527C360.93 498.644 361.652 498.342 362.088 497.705C362.927 496.513 362.692 494.55 362.038 493.275C361.467 492.168 360.561 491.547 359.554 491.547C358.028 491.547 356.199 492.218 354.705 493.057V493.04ZM359.554 493.242C360.024 493.242 360.36 493.745 360.528 494.064C361.014 495.003 361.031 496.262 360.695 496.715C360.628 496.815 360.561 496.866 360.36 496.832C358.883 496.631 354.185 495.02 354.185 494.634C354.185 494.315 358.078 493.225 359.538 493.225L359.554 493.242Z" fill="#0E141B"/>
<path d="M358.581 510.776C353.883 512.521 353.783 512.689 357.39 515.004C359.521 516.38 362.273 518.075 364.185 518.645C365.108 518.931 366.014 518.696 366.669 518.025C367.877 516.783 368.011 514.283 367.441 512.572C366.954 511.145 365.998 510.222 364.79 510.038C362.81 509.736 360.561 510.038 358.565 510.776H358.581ZM364.487 512.102C365.041 512.186 365.343 512.857 365.477 513.243C365.897 514.518 365.662 516.078 365.192 516.582C365.092 516.682 365.008 516.733 364.806 516.666C363.179 516.179 357.675 513.259 357.826 512.857C357.927 512.404 362.843 511.867 364.521 512.119L364.487 512.102Z" fill="#0E141B"/>
<path d="M359.236 522.118C356.081 523.359 355.997 524.031 357.826 525.759C359.655 527.487 362.39 529.35 364.152 529.987C365.058 530.306 365.981 530.121 366.669 529.484C367.944 528.292 368.196 525.809 367.709 524.081C367.306 522.621 366.383 521.648 365.192 521.413C363.514 521.061 361.199 521.346 359.219 522.118H359.236ZM364.79 523.46C365.343 523.578 365.595 524.249 365.712 524.651C366.065 525.943 365.763 527.487 365.243 527.974C365.125 528.074 365.041 528.108 364.84 528.041C363.229 527.47 357.91 524.333 358.044 523.863C358.078 523.695 361.904 522.873 364.773 523.46H364.79Z" fill="#0E141B"/>
<path d="M359.588 532.605C355.158 532.974 354.957 533.461 357.726 536.766C359.336 538.696 361.803 541.447 364.034 542.874C364.89 543.411 365.863 543.444 366.702 542.941C368.363 541.968 369.236 539.182 369.118 537.051C369.018 535.29 368.296 534.031 367.071 533.477C364.806 532.471 362.122 532.387 359.605 532.588L359.588 532.605ZM365.276 540.927C363.716 539.921 358.816 535.004 359.017 534.652C359.236 534.316 364.471 534.87 366.115 535.592C366.501 535.759 366.753 536.363 366.803 537.186C366.803 537.269 366.803 537.37 366.803 537.471C366.803 539.014 366.132 540.592 365.528 540.944C365.444 540.994 365.41 541.011 365.259 540.91L365.276 540.927Z" fill="#0E141B"/>
<path d="M356.333 544.065C354.89 544.333 354.655 544.786 355.41 545.977C356.148 547.169 360.142 553.343 363.212 555.508C364.135 556.162 365.209 556.246 366.182 555.726C368.078 554.736 369.202 551.682 369.186 549.3C369.169 547.32 368.414 545.877 367.088 545.206C364.286 543.796 359.622 543.477 356.35 544.065H356.333ZM364.689 553.41C362.994 552.219 357.893 546.582 358.044 546.095C358.229 545.558 364.118 546.615 365.914 547.504C368.783 548.931 366.316 554.551 364.689 553.41Z" fill="#0E141B"/>
<path d="M399.153 484.617C397.072 484.936 394.186 486.329 392.055 488.191C390.914 489.181 391.032 489.55 392.559 490.238C394.102 490.926 398.112 492.369 400.965 492.335C401.854 492.335 402.576 491.882 402.961 491.111C403.683 489.684 400.227 484.466 399.119 484.634L399.153 484.617ZM399.438 486.496C401.166 486.228 402.391 490.389 400.965 490.406C399.404 490.423 394.002 489.517 393.8 488.98C393.666 488.611 397.911 486.731 399.455 486.496H399.438Z" fill="#0E141B"/>
<path d="M398.482 479.382C397.71 477.637 396.049 475.54 395.361 475.64C393.532 475.925 392.038 476.613 390.78 477.385C387.944 479.147 387.944 479.852 390.948 481.009C392.525 481.597 395.914 482.687 397.441 482.687C399.102 482.687 399.186 480.976 398.498 479.399L398.482 479.382ZM395.629 477.318C396.099 477.251 396.502 477.704 396.703 477.973C397.324 478.828 397.525 480.07 397.273 480.573C397.223 480.691 397.156 480.741 396.971 480.741C395.478 480.758 390.646 479.969 390.528 479.516C390.428 479.13 394.169 477.536 395.612 477.318H395.629Z" fill="#0E141B"/>
<path d="M396.535 496.127C393.549 497.553 393.515 498.023 396.384 499.701C398.314 500.842 401.25 502.604 403.733 502.956C404.69 503.09 405.545 502.721 406.099 501.966C407.106 500.557 404.253 494.365 403.029 494.365C401.317 494.365 399.203 494.885 396.535 496.144V496.127ZM403.029 496.429C403.582 496.429 403.985 497.05 404.186 497.402C404.79 498.594 404.807 500.171 404.404 500.741C404.321 500.859 404.237 500.909 404.035 500.875C402.341 500.641 396.586 498.526 396.552 498.174C396.468 497.822 401.367 496.429 403.045 496.429H403.029Z" fill="#0E141B"/>
<path d="M398.8 506.899C396.267 507.99 395.713 508.711 399.32 510.859C401.25 512.017 404.002 513.695 406.334 514.148C407.274 514.332 408.163 514.013 408.75 513.258C409.824 511.899 407.29 505.574 406.066 505.506C403.448 505.372 400.663 506.094 398.8 506.899ZM405.948 507.587C406.502 507.621 406.871 508.258 407.039 508.627C407.592 509.852 407.525 511.429 407.089 511.983C406.988 512.101 406.921 512.151 406.703 512.101C405.025 511.782 399.253 509.449 399.354 509.013C399.455 508.493 404.237 507.503 405.931 507.587H405.948Z" fill="#0E141B"/>
<path d="M402.106 517.302C397.76 518.107 397.357 518.56 400.78 521.832C402.576 523.544 405.31 525.994 407.542 526.984C408.465 527.386 409.438 527.269 410.193 526.648C411.686 525.44 410.394 517.604 409.103 517.252C406.821 516.631 404.27 516.899 402.106 517.285V517.302ZM408.498 519.483C408.901 519.601 409.254 520.138 409.421 520.943C410.076 524.014 409.354 525.255 408.465 524.869C406.77 524.114 401.267 520.02 401.334 519.618C401.418 519.181 406.753 518.997 408.498 519.467V519.483Z" fill="#0E141B"/>
<path d="M401.233 529.164C396.183 529.869 395.663 530.372 399.035 533.828C401.334 536.194 403.868 538.543 406.25 540.272C408.331 541.782 411.586 535.574 411.2 533.224C410.881 531.278 409.925 529.953 408.499 529.483C405.915 528.661 403.498 528.828 401.233 529.147V529.164ZM408.247 531.849C411.687 533.292 408.364 537.47 407.693 537.956C407.609 538.023 407.576 538.04 407.391 537.956C405.529 537.033 399.488 532.234 399.706 531.731C399.908 531.278 406.334 531.228 408.247 531.832V531.849Z" fill="#0E141B"/>
<path d="M324.671 482.418C325.846 484.331 326.382 483.14 325.946 481.193C324.235 473.693 325.946 470.623 326.634 468.072C327.322 465.522 325.946 465.002 324.755 466.545C319.235 473.66 323.681 480.791 324.671 482.435V482.418Z" fill="#0E141B"/>
<path d="M334.369 431.747C336.483 432.854 336.601 432.25 334.906 430.774C332.171 428.391 330.091 424.415 330.561 420.891C331.181 416.143 329.554 419.146 329.369 420.69C328.782 425.606 330.175 429.532 334.386 431.764L334.369 431.747Z" fill="#0E141B"/>
<path d="M355.511 389.229C350.024 396.058 340.343 415.455 339.655 430.656C339.487 434.197 341.064 430.556 341.064 430.556C353.715 423.257 367.256 409.33 372.709 401.176C373.783 399.582 373.582 399.364 372.373 398.172C367.759 393.642 363.279 391.528 357.843 389.347C362.675 382.518 361.299 382.031 355.511 389.229ZM356.786 391.176C361.4 393.34 365.343 395.555 369.269 399.649C369.84 400.253 369.823 400.555 369.42 401.109C360.293 413.643 345.661 426.932 341.181 428.895C342.004 420.27 349.101 401.914 356.786 391.176Z" fill="#0E141B"/>
<path d="M351.937 410.889C351.937 412.098 351.048 412.936 349.839 412.936C348.631 412.936 347.692 412.098 347.692 410.889C347.692 409.681 348.682 408.691 349.89 408.691C351.098 408.691 351.954 409.681 351.954 410.889H351.937Z" fill="white"/>
</g>
<defs>
<clipPath id="clip0_42_71804">
<rect width="720" height="568.252" fill="white" transform="translate(40 76)"/>
</clipPath>
</defs>
</svg>
