<svg width="800" height="800" viewBox="0 0 800 800" fill="none" xmlns="http://www.w3.org/2000/svg">
<g clip-path="url(#clip0_42_71904)">
<path d="M534.067 153.375C534.753 107.966 528.192 66.6163 522.706 64.4107C515.941 61.7047 486.768 69.7485 440.469 92.9163" fill="#007A96"/>
<path d="M263.468 153.375C262.782 107.966 269.343 66.6163 274.829 64.4107C281.594 61.7047 310.767 69.7485 357.066 92.9163" fill="#007A96"/>
<path d="M269.713 76.5312C265.988 92.4336 262.986 121.922 263.467 153.393L271.474 148.222C268.731 123.942 267.23 88.1152 269.713 76.5312Z" fill="#00657D"/>
<path d="M527.822 76.5312C531.547 92.4336 534.549 121.922 534.068 153.393L526.061 148.222C528.804 123.942 530.305 88.1152 527.822 76.5312Z" fill="#00657D"/>
<path d="M398.767 683.917C420.082 683.917 442.935 691.479 508.731 691.479C638.211 691.479 674.298 611.615 674.298 533.327C674.298 403.587 616.211 296.626 535.736 267.045C545.114 255.943 550.878 236.13 550.878 209.274C550.878 157.211 505.58 88.1895 398.767 88.1895C291.955 88.1895 246.657 157.211 246.657 209.274C246.657 236.13 252.402 255.943 261.799 267.045C183.585 295.792 123.237 395.042 123.237 533.327C123.237 611.615 159.342 691.479 288.804 691.479C354.6 691.479 377.453 683.917 398.767 683.917Z" fill="#007A96"/>
<path d="M638.156 368.427L632.521 412.501C643.716 431.666 648.591 489.011 648.591 542.056C648.591 605.61 591.894 669.868 538.701 669.868C467.344 669.868 457.15 661.843 398.767 661.843C340.385 661.843 330.191 669.868 258.834 669.868C205.641 669.868 148.944 605.61 148.944 542.056C148.944 489.011 153.819 431.647 165.013 412.501L159.175 366.814C136.712 411.408 123.237 467.993 123.237 533.326C123.237 611.615 159.342 691.479 288.804 691.479C354.6 691.479 377.453 683.917 398.767 683.917C420.082 683.917 442.935 691.479 508.731 691.479C638.211 691.479 674.298 611.615 674.298 533.326C674.298 471.107 660.934 414.132 638.156 368.408V368.427Z" fill="#00657D"/>
<path d="M270.789 142.422C254.33 163.588 246.638 187.868 246.638 209.293C246.638 236.15 252.384 255.963 261.781 267.065L267.434 267.788C249.53 242.859 245.137 187.442 270.789 142.44V142.422Z" fill="#00657D"/>
<path d="M526.747 142.422C543.205 163.588 550.897 187.868 550.897 209.293C550.897 236.15 545.151 255.963 535.754 267.065L530.101 267.788C548.005 242.859 552.398 187.442 526.747 142.44V142.422Z" fill="#00657D"/>
<path d="M398.768 632.226C454.203 632.226 501.633 651.019 559.089 614.878C594.304 592.729 618.083 547.561 618.083 491.31C618.083 388.111 558.069 303.484 506.081 280.093C523.169 256.536 529.008 235.055 529.008 210.59C529.008 122.626 449.774 111.58 446.53 111.58C444.213 111.58 423.307 119.698 398.749 131.504C374.191 119.68 353.284 111.58 350.968 111.58C347.724 111.58 268.49 122.626 268.49 210.59C268.49 235.055 274.329 256.536 291.417 280.093C239.429 303.484 179.415 388.093 179.415 491.31C179.415 547.561 203.213 592.729 238.409 614.878C295.865 651.019 343.295 632.226 398.73 632.226H398.768Z" fill="#FFF5D7"/>
<path d="M358.159 197.097C359.549 192.927 364.646 184.123 365.684 184.123C366.722 184.123 370.484 195.021 370.948 197.097" fill="white"/>
<path d="M441.841 197.097C440.451 192.927 435.354 184.123 434.316 184.123C433.278 184.123 429.516 195.021 429.052 197.097" fill="white"/>
<path d="M260.576 156.285C258.612 110.876 266.804 64.6143 273.828 61.7971C282.929 58.1644 313.436 66.9496 360.939 90.692C361.718 91.0812 354.267 93.2682 353.229 92.7493C306.022 69.4517 280.501 63.8544 275.441 65.8746C271.548 67.6724 264.672 104.092 265.024 149.909C265.024 151.058 260.632 157.137 260.595 156.285H260.576Z" fill="#0E141B"/>
<path d="M311.564 158.953C323.63 154.616 356.38 150.984 366.647 151.762C372.727 152.207 372.708 154.727 366.573 154.913C356.361 155.228 323.481 159.565 312.175 162.067C306.745 163.272 306.189 160.899 311.564 158.972V158.953Z" fill="#0E141B"/>
<path d="M508.731 694.279C466.695 694.279 442.212 690.646 424.345 688.404C414.318 687.143 406.404 685.494 398.767 685.494C391.131 685.494 383.217 687.143 373.19 688.404C355.323 690.646 330.839 694.742 288.804 694.742C229.123 694.742 183.548 677.913 155.283 644.552C132.634 617.825 119.382 578.236 119.382 533.346C119.382 458.987 131.893 413.355 161.807 358.383C186.402 313.178 219.059 281.41 258.222 266.36C248.64 254.257 243.395 234.166 243.395 209.312C243.395 145.313 300.128 85.5215 398.767 85.5215C497.407 85.5215 554.455 140.754 554.455 209.312C554.455 234.166 548.283 254.294 539.164 266.36C577.975 281.336 613.542 314.568 638.174 361.293C663.881 410.075 677.949 469.977 677.949 533.346C677.949 596.715 656.171 694.279 508.75 694.279H508.731ZM398.767 682.343C406.589 682.343 414.596 683.344 424.734 684.623C442.527 686.865 466.899 689.905 508.731 689.905C567.448 689.905 611.226 673.372 638.86 640.752C661.009 614.6 672.722 577.458 672.722 533.328C672.722 470.459 659.266 411.687 633.8 363.368C609.113 316.514 574.101 282.837 535.198 268.529C534.716 268.343 534.345 267.954 534.216 267.454C534.086 266.953 534.216 266.434 534.531 266.027C544.057 254.776 549.303 234.63 549.303 209.275C549.303 181.269 536.032 151.763 513.772 130.337C494.552 111.822 458.985 89.7658 398.749 89.7658C338.513 89.7658 302.945 111.84 283.725 130.337C261.484 151.763 248.195 181.269 248.195 209.275C248.195 234.611 253.44 254.776 262.967 266.027C263.301 266.416 263.412 266.953 263.282 267.454C263.152 267.954 262.782 268.362 262.3 268.529C222.989 282.985 189.182 314.568 164.532 359.865C138.528 407.665 124.776 467.642 124.776 533.328C124.776 577.458 136.489 614.6 158.638 640.752C186.272 673.372 230.069 689.905 288.767 689.905C330.599 689.905 354.971 686.847 372.764 684.623C382.902 683.344 390.909 682.343 398.73 682.343H398.767Z" fill="#0E141B"/>
<path d="M532.529 150.762C532.955 104.556 526.024 67.6912 522.113 65.8748C517.053 63.8361 491.439 69.4705 444.047 92.8793C443.101 93.3426 436.911 91.2297 437.689 90.8219C485.1 65.8007 516.553 59.3323 523.874 62.2607C530.898 65.0779 538.386 112.155 536.848 156.174C536.811 157.026 532.511 151.633 532.529 150.762Z" fill="#0E141B"/>
<path d="M485.285 162.03C474.091 158.768 441.396 155.246 431.091 154.913C425.308 154.727 425.475 152.355 431.332 151.762C443.027 150.594 474.072 154.764 485.86 158.916C492.755 161.344 492.124 164.031 485.285 162.03Z" fill="#0E141B"/>
<path d="M441.841 198.673C441.841 198.673 441.822 198.673 441.804 198.673C434.353 198.506 418.988 198.581 408.832 198.636C405.051 198.655 401.918 198.673 399.991 198.673C398.063 198.673 394.931 198.673 391.15 198.636C380.993 198.581 365.628 198.506 358.177 198.673C352.58 198.729 352.506 195.652 358.103 195.522C365.61 195.356 380.975 195.43 391.168 195.485C394.931 195.504 398.082 195.522 399.991 195.522C401.9 195.522 405.032 195.522 408.813 195.485C418.988 195.43 434.372 195.356 441.878 195.522C448.421 195.671 448.384 198.673 441.841 198.673Z" fill="#0E141B"/>
<path d="M441.007 636.896C427.57 635.672 413.65 634.393 399.361 634.393C385.071 634.393 371.17 635.654 357.714 636.896C318.366 640.491 279.833 644.717 236.815 617.657C197.838 593.136 175.893 549.025 175.893 491.309C175.893 396.191 226.417 309.136 289.045 279.463C271.975 257.796 265.525 236.519 265.525 210.589C265.525 119.086 350.134 110.004 350.986 110.004C354.007 110.004 375.896 118.789 398.767 129.761C421.639 118.789 443.528 110.004 446.549 110.004C447.383 110.004 532.436 119.086 532.436 210.589C532.436 236.519 525.264 257.629 508.472 279.463C535.309 292.177 563.741 318.829 584.332 354.23C601.087 383.032 621.864 430.813 621.864 491.309C621.864 548.376 602.44 590.782 560.479 617.194C526.265 638.712 496.258 641.937 441.007 636.896ZM398.767 630.65C413.206 630.65 427.18 631.928 440.692 633.152C479.484 636.692 516.126 640.028 558.255 613.542C594.73 590.597 616.526 544.892 616.526 491.309C616.526 431.536 596.787 385.034 580.236 356.565C559.533 320.942 532.27 293.604 505.469 281.538C505.043 281.353 504.709 280.964 504.598 280.5C504.468 280.037 504.561 279.555 504.839 279.166C520.704 257.296 527.469 236.778 527.469 210.589C527.469 122.311 447.383 113.173 446.567 113.155C444.547 113.284 425.642 120.439 401.64 131.874C399.064 133.098 398.452 133.079 396.006 131.911C371.967 120.457 353.025 113.266 350.968 113.136C350.171 113.136 270.084 122.292 270.084 210.571C270.084 235.777 276.349 255.72 290.954 276.682C293.326 280.093 293.141 280.964 289.619 282.669C263.616 295.272 237.371 322.017 217.299 356.546C200.748 385.015 181.009 431.518 181.009 491.29C181.009 544.873 202.786 590.578 239.28 613.524C281.409 640.009 318.051 636.673 356.843 633.133C370.354 631.891 384.329 630.631 398.767 630.631V630.65Z" fill="#0E141B"/>
<path d="M356.139 196.411C358.122 190.48 363.96 182.529 365.702 182.529C368.742 182.529 373.209 196.782 373.227 196.93C373.413 197.783 369.613 198.283 369.428 197.431C369.039 195.707 366.054 186.533 365.48 186.533C364.905 186.533 360.717 194.391 359.66 197.579C359.438 198.246 355.861 197.227 356.139 196.411Z" fill="#0E141B"/>
<path d="M440.34 197.598C439.283 194.41 435.095 186.551 434.502 186.551C433.909 186.551 430.943 195.707 430.554 197.449C430.368 198.302 426.532 197.69 426.717 196.838C426.754 196.69 431.258 182.566 434.279 182.566C437.004 182.566 443.046 193.52 444.084 196.615C444.362 197.449 440.525 198.283 440.321 197.616L440.34 197.598Z" fill="#0E141B"/>
<path d="M530.509 267.99C588.002 262.078 617.527 269.065 665.994 292.622C716.574 317.217 756.2 370.503 744.728 398.027C734.849 421.732 685.418 430.851 632.67 411.927" fill="#007A96"/>
<path d="M278.165 717.91C297.607 692.666 275.793 646.96 234.943 627.926C197.004 610.244 152.355 608.298 132.857 633.597C114.063 657.988 123.015 696.039 174.206 722.858C215.871 744.692 262.837 737.797 278.165 717.91Z" fill="#FFF5D7"/>
<path d="M192.574 718.447C157.878 705.695 130.299 673.371 127.074 643.494C117.01 667.459 129.502 699.449 174.206 722.876C215.871 744.71 262.837 737.815 278.165 717.928C278.258 717.798 278.35 717.65 278.443 717.52C259.668 730.105 227.474 731.291 192.574 718.465V718.447Z" fill="#DCD4BB"/>
<path d="M519.37 717.91C499.928 692.666 521.742 646.96 562.592 627.926C600.531 610.244 645.18 608.298 664.678 633.597C683.472 657.988 674.52 696.039 623.329 722.858C581.664 744.692 534.698 737.797 519.37 717.91Z" fill="#FFF5D7"/>
<path d="M585.037 686.272C609.836 677.135 630.798 679.526 635.394 692.574C638.489 701.378 634.301 714.982 601.792 726.251C575.158 735.481 557.662 732.738 552.972 721.988C548.802 712.406 557.977 696.244 585.037 686.272Z" fill="#756550"/>
<path d="M212.498 686.272C187.699 677.135 166.737 679.526 162.141 692.574C159.045 701.378 163.234 714.982 195.743 726.251C222.377 735.481 239.873 732.738 244.563 721.988C248.733 712.406 239.558 696.244 212.498 686.272Z" fill="#756550"/>
<path d="M161.64 700.58C163.345 708.531 171.964 718.021 195.743 726.269C216.946 733.627 232.348 733.349 240.114 727.51C225.713 727.566 209.459 724.656 192.574 718.447C181.305 714.314 170.815 708.086 161.64 700.58Z" fill="#635442"/>
<path d="M604.961 718.447C639.657 705.695 667.236 673.371 670.461 643.494C680.525 667.459 668.033 699.449 623.328 722.876C581.663 744.71 534.698 737.815 519.37 717.928C519.277 717.798 519.184 717.65 519.092 717.52C537.867 730.105 570.061 731.291 604.961 718.465V718.447Z" fill="#DCD4BB"/>
<path d="M635.895 700.58C634.19 708.531 625.571 718.021 601.792 726.269C580.588 733.627 565.187 733.349 557.421 727.51C571.822 727.566 588.076 724.656 604.961 718.447C616.23 714.314 626.72 708.086 635.895 700.58Z" fill="#635442"/>
<path d="M172.965 725.471C120.457 697.966 111.468 658.803 131.615 632.651C152.874 605.054 201.118 609.002 236.296 625.386C283.058 647.182 297.7 695.149 279.425 718.854C259.724 744.45 206.123 742.819 172.983 725.471H172.965ZM180.434 616.1C158.638 616.1 142.383 623.811 134.098 634.579C126.444 644.532 123.701 656.802 126.425 669.164C130.725 688.773 147.962 707.344 174.948 721.486C208.069 738.834 258.723 740.576 276.923 716.964C283.614 708.29 285.468 696.854 282.317 683.899C276.942 661.861 258.093 640.473 234.276 629.371C214.129 619.974 195.892 616.119 180.453 616.119L180.434 616.1Z" fill="#0E141B"/>
<path d="M195.224 727.752C165.014 717.28 156.729 703.25 160.658 692.055C165.106 679.396 184.901 674.429 213.054 684.789C241.041 695.113 250.864 711.46 246.008 722.618C240.392 735.481 219.412 736.129 195.224 727.752ZM211.961 687.755C186.235 678.265 167.571 681.898 163.642 693.111C160.343 702.471 168.702 715.223 196.262 724.786C220.579 733.219 238.52 731.922 243.117 721.376C247.287 711.812 236.945 696.985 211.961 687.774V687.755Z" fill="#0E141B"/>
<path d="M251.105 612.765C249.474 611.69 222.562 625.313 221.988 628.834C221.413 632.337 224.027 638.843 233.331 643.532C242.635 648.221 250.642 645.756 252.421 643.662C254.219 641.568 253.255 614.211 251.087 612.784L251.105 612.765Z" fill="white"/>
<path d="M225.139 637.286C226.936 639.454 229.587 641.641 233.349 643.532C242.654 648.221 250.66 645.756 252.44 643.662C253.366 642.587 253.552 634.747 253.237 627.24C253.552 636.415 235.407 646.516 225.139 637.286Z" fill="#DCDDDD"/>
<path d="M232.423 645.996C222.785 641.14 218.726 632.967 219.504 628.166C220.449 622.328 249.252 609.28 252.162 611.189C255.498 613.376 258.055 641.066 254.756 644.903C252.013 648.109 240.856 650.259 232.423 646.015V645.996ZM223.86 629.278C223.508 632.114 225.954 637.656 234.202 641.826C242.876 646.2 249.659 643.679 250.901 642.512C252.106 639.398 251.865 615.897 250.012 614.785C248.677 613.988 225.658 626.368 223.86 629.278Z" fill="#0E141B"/>
<path d="M181.472 597.567C179.526 597.771 166.83 623.645 168.646 626.721C170.463 629.798 177.376 635.877 186.421 635.544C195.484 635.21 201.545 627.537 200.951 623.2C200.358 618.863 184.4 597.233 181.453 597.548L181.472 597.567Z" fill="white"/>
<path d="M173.113 612.265C173.113 612.265 173.113 612.265 173.113 612.246C170.166 618.752 167.775 625.294 168.646 626.74C170.463 629.817 177.376 635.896 186.421 635.562C190.183 635.432 193.408 634.024 195.873 632.115C182.992 639.288 170.611 617.973 173.094 612.265H173.113Z" fill="#DCDDDD"/>
<path d="M165.922 627.962C163.345 623.625 177.635 596.083 181.268 595.675C186.569 595.267 202.731 618.435 203.379 623.199C204.139 628.74 197.727 637.655 186.736 638.063C178.117 638.415 168.869 632.911 165.922 627.962ZM170.37 625.886C171.853 628.203 178.025 633.911 186.365 633.652C190.387 633.504 194.335 631.576 196.93 628.518C198.727 626.368 199.209 624.459 199.08 623.477C198.616 620.103 183.9 599.79 181.861 599.79C180.453 599.79 170.018 622.643 170.37 625.886Z" fill="#0E141B"/>
<path d="M121.699 613.228C119.252 614.804 123.571 645.181 125.906 647.609C128.242 650.037 137.601 650.148 143.44 644.329C149.297 638.527 147.239 629.464 144.088 626.313C140.956 623.144 123.682 611.949 121.68 613.228H121.699Z" fill="white"/>
<path d="M122.162 631.336C123.237 639.009 124.794 646.478 125.906 647.628C128.242 650.056 137.601 650.167 143.44 644.347C145.571 642.234 146.628 639.695 146.998 637.174C144.941 645.978 124.071 644.959 122.162 631.336Z" fill="#DCDDDD"/>
<path d="M123.979 649.202C119.771 644.865 116.695 614.209 120.68 611.633C124.646 609.094 144.978 623.106 146.331 624.477C150.316 628.499 151.576 640.009 145.145 646.403C138.658 652.853 126.777 652.075 123.997 649.202H123.979ZM122.941 615.21C121.569 616.063 125.369 643.531 127.333 646.348C127.593 646.607 128.835 647.237 131.263 647.274C132.801 647.237 138.028 647.015 142.105 642.993C147.054 638.081 145.33 630.279 142.754 627.665C139.863 624.755 124.794 614.061 122.959 615.229L122.941 615.21Z" fill="#0E141B"/>
<path d="M518.128 718.855C499.853 695.131 514.477 647.165 561.257 625.387C596.435 609.003 644.661 605.036 665.939 632.652C686.086 658.804 677.096 697.967 624.589 725.472C591.45 742.838 537.849 744.451 518.147 718.855H518.128ZM563.259 629.353C539.443 640.455 520.593 661.844 515.218 683.881C512.067 696.836 513.921 708.253 520.612 716.946C538.812 740.559 589.448 738.816 622.587 721.468C649.573 707.327 666.81 688.755 671.11 669.146C673.816 656.802 671.091 644.514 663.437 634.561C655.152 623.793 638.897 616.083 617.101 616.083C601.662 616.083 583.424 619.956 563.278 629.335L563.259 629.353Z" fill="#0E141B"/>
<path d="M551.527 722.616C546.671 711.477 556.494 695.111 584.481 684.788C612.616 674.409 632.41 679.394 636.877 692.053C640.806 703.248 632.521 717.26 602.311 727.75C578.123 736.128 557.143 735.479 551.527 722.616ZM554.418 721.356C559.014 731.883 576.956 733.199 601.273 724.766C628.833 715.203 637.192 702.451 633.893 693.091C629.945 681.878 611.281 678.264 585.574 687.735C560.59 696.946 550.248 711.774 554.418 721.337V721.356Z" fill="#0E141B"/>
<path d="M546.43 612.765C548.061 611.69 574.973 625.313 575.529 628.834C576.103 632.337 573.49 638.843 564.186 643.532C554.882 648.221 546.875 645.756 545.095 643.662C543.298 641.568 544.261 614.211 546.43 612.784V612.765Z" fill="white"/>
<path d="M572.396 637.286C570.598 639.454 567.948 641.641 564.186 643.532C554.881 648.221 546.875 645.756 545.095 643.662C544.169 642.587 543.983 634.747 544.298 627.24C543.983 636.415 562.128 646.516 572.396 637.286Z" fill="#DCDDDD"/>
<path d="M542.779 644.885C539.498 641.048 542.037 613.358 545.374 611.171C548.265 609.262 577.086 622.329 578.031 628.149C578.809 632.967 574.75 641.122 565.112 645.978C556.679 650.241 545.522 648.073 542.779 644.866V644.885ZM547.523 614.785C545.689 615.897 545.448 639.399 546.634 642.513C547.876 643.68 554.641 646.201 563.333 641.827C571.581 637.657 574.027 632.115 573.675 629.279C571.877 626.369 548.858 613.97 547.523 614.785Z" fill="#0E141B"/>
<path d="M616.063 597.567C618.009 597.771 630.705 623.645 628.889 626.721C627.072 629.798 620.159 635.877 611.114 635.544C602.051 635.21 595.99 627.537 596.583 623.2C597.177 618.863 613.135 597.233 616.082 597.548L616.063 597.567Z" fill="white"/>
<path d="M624.422 612.265C624.422 612.265 624.422 612.265 624.422 612.246C627.369 618.752 629.76 625.294 628.889 626.74C627.072 629.817 620.159 635.896 611.114 635.562C607.352 635.432 604.127 634.024 601.662 632.115C614.543 639.288 626.924 617.973 624.44 612.265H624.422Z" fill="#DCDDDD"/>
<path d="M610.799 638.063C599.808 637.655 593.396 628.74 594.155 623.199C594.804 618.435 610.985 595.267 616.267 595.675C619.9 596.064 634.19 623.606 631.613 627.962C628.666 632.929 619.418 638.434 610.799 638.063ZM615.674 599.79C613.635 599.79 598.919 620.103 598.455 623.477C598.326 624.459 598.808 626.368 600.605 628.518C603.182 631.595 607.13 633.504 611.17 633.652C619.51 633.911 625.682 628.203 627.165 625.886C627.517 622.643 617.082 599.79 615.674 599.79Z" fill="#0E141B"/>
<path d="M675.836 613.228C678.282 614.804 673.964 645.181 671.629 647.609C669.293 650.037 659.934 650.148 654.095 644.329C648.238 638.527 650.296 629.464 653.447 626.313C656.579 623.144 673.853 611.949 675.855 613.228H675.836Z" fill="white"/>
<path d="M675.373 631.336C674.298 639.009 672.741 646.478 671.629 647.628C669.293 650.056 659.933 650.167 654.095 644.347C651.964 642.234 650.907 639.695 650.537 637.174C652.594 645.978 673.463 644.959 675.373 631.336Z" fill="#DCDDDD"/>
<path d="M652.409 646.385C645.977 640.01 647.238 628.5 651.222 624.459C652.575 623.106 672.908 609.076 676.874 611.615C680.859 614.173 677.763 644.847 673.575 649.184C670.795 652.057 658.914 652.817 652.427 646.385H652.409ZM654.781 627.666C652.186 630.279 650.481 638.082 655.43 642.994C659.489 647.034 664.734 647.257 666.272 647.275C668.7 647.257 669.942 646.626 670.202 646.348C672.166 643.55 675.947 616.082 674.594 615.211C672.759 614.043 657.672 624.737 654.8 627.647L654.781 627.666Z" fill="#0E141B"/>
<path d="M60.1467 361.162C56.9032 359.772 47.0245 361.255 46.6167 362.663C45.8383 365.295 50.1753 369.929 54.8089 373.172" fill="white"/>
<path d="M53.8636 374.693C47.8585 370.486 44.3926 364.703 45.1154 362.22C45.7641 360.014 55.9765 357.123 60.8695 359.236C61.6665 359.588 60.332 362.961 59.535 362.609C57.1441 361.571 48.5442 362.535 48.0994 363.424C47.7287 364.147 50.6942 368.373 55.6984 371.876C56.4028 372.376 54.123 374.878 53.845 374.693H53.8636Z" fill="#0E141B"/>
<path d="M55.3278 373.506C51.8619 372.468 41.7422 375.656 41.5754 378.14C41.4271 380.457 46.3572 385.553 53.1037 386.591" fill="white"/>
<path d="M53.1037 388.185C53.1037 388.185 52.9369 388.185 52.8628 388.167C45.7827 387.073 39.7776 381.587 40 378.047C40.2224 374.674 51.1947 370.634 55.7727 372.005C56.6067 372.246 55.6985 375.267 54.8645 375.026C51.9175 374.136 43.503 376.88 43.1138 378.418C42.8543 379.474 47.2284 384.108 53.3447 385.053C54.1972 385.183 53.8636 388.185 53.1037 388.185Z" fill="#0E141B"/>
<path d="M53.4188 386.609C48.7111 387.202 41.2048 392.874 41.6867 395.098C42.1315 397.192 49.8788 399.12 55.5317 398.842" fill="white"/>
<path d="M40.1298 395.413C39.5182 392.485 45.7457 385.961 53.215 385.034C54.0676 384.923 54.4753 388.055 53.6042 388.166C49.6564 388.648 43.1138 393.578 43.2621 394.765C43.3918 395.784 50.1568 397.545 55.4206 397.267C56.3287 397.267 56.3287 400.825 55.4576 400.862C48.4146 401.196 40.8526 398.916 40.1113 395.413H40.1298Z" fill="#0E141B"/>
<path d="M269.491 267.99C211.998 262.078 182.473 269.065 134.006 292.622C83.4257 317.217 43.7995 370.503 55.2722 398.027C65.151 421.732 113.748 431.184 167.46 411.816" fill="#007A96"/>
<path d="M71.1005 395.895C63.557 380.734 72.0457 340.867 132.801 304.91C174.651 280.149 250.642 267.379 269.491 267.99C211.998 262.078 182.473 269.065 134.006 292.622C83.4257 317.217 43.7995 370.503 55.2722 398.027C65.151 421.732 113.748 431.184 167.46 411.816C127.352 420.879 78.8293 411.408 71.1005 395.877V395.895Z" fill="#00657D"/>
<path d="M728.918 395.895C736.462 380.734 727.954 340.867 667.218 304.91C625.367 280.149 549.377 267.379 530.528 267.99C588.021 262.078 617.546 269.065 666.013 292.622C716.593 317.217 756.219 370.503 744.746 398.027C734.868 421.732 686.271 431.184 632.559 411.816C672.667 420.879 721.189 411.408 728.918 395.877V395.895Z" fill="#00657D"/>
<path d="M110.097 424.327C81.7392 424.327 59.739 414.856 53.1038 398.954C40.8156 369.466 78.5142 315.42 133.023 288.897C178.136 266.971 219.893 259.243 261.929 265.47C272.753 267.083 272.457 269.844 261.614 268.602C219.578 264.284 179.248 272.346 134.692 294.013C84.8344 318.256 45.4862 370.43 56.718 397.397C66.1704 420.083 110.819 426.477 160.584 412.243C169.332 409.778 170.055 412.336 161.455 415.264C142.884 421.621 125.536 424.29 110.097 424.29V424.327Z" fill="#0E141B"/>
<path d="M61.0364 401.307C58.664 402.494 52.2327 412.206 53.0482 413.355C53.8637 414.504 65.67 413.466 68.6911 411.965C71.7121 410.463 69.5066 406.627 67.6531 404.328C65.7997 402.03 63.1308 400.269 61.055 401.326L61.0364 401.307Z" fill="white"/>
<path d="M56.5881 415.43C54.2343 415.43 52.3438 415.115 51.7507 414.263C51.1947 413.466 51.4356 412.539 51.5098 412.224C52.2141 409.444 57.589 401.27 60.3321 399.899C62.8898 398.62 66.1518 399.936 68.8764 403.328C70.4332 405.274 72.194 408.128 71.6565 410.593C71.4711 411.446 70.9337 412.613 69.3953 413.373C67.8384 414.152 61.2958 415.43 56.6067 415.43H56.5881ZM54.8274 412.243C55.3278 413.077 65.6329 411.724 67.9682 410.556C68.4686 410.296 68.5242 410.037 68.5613 409.926C68.7651 409.018 67.9126 407.201 66.4113 405.311C64.7803 403.272 62.8157 402.178 61.7407 402.716C60.1838 403.494 54.2343 411.26 54.8274 412.243Z" fill="#0E141B"/>
<path d="M78.5697 414.374C77.1797 415.634 73.7138 426.069 74.5107 427.126C75.3077 428.182 89.0972 422.844 90.7282 421.343C92.3592 419.842 88.0593 415.783 86.2059 414.745C84.3524 413.707 79.8301 413.243 78.5697 414.392V414.374Z" fill="white"/>
<path d="M74.937 428.813C74.937 428.813 74.7887 428.813 74.7331 428.813C73.9362 428.757 73.4913 428.386 73.2689 428.09C71.5082 425.829 76.2715 414.337 77.5133 413.207C79.552 411.353 84.964 412.206 86.9843 413.355C88.467 414.189 92.3221 417.414 92.6372 420.083C92.7484 421.028 92.4519 421.862 91.8032 422.474C89.9868 424.179 78.0878 428.813 74.937 428.813ZM79.6262 415.524C78.6995 416.58 75.456 424.828 76.0676 425.514C76.6236 426.162 87.8183 421.436 89.4864 420.287C89.2084 419.305 86.9657 416.932 85.4459 416.08C83.2404 414.838 80.7382 414.764 79.6447 415.524H79.6262Z" fill="#0E141B"/>
<path d="M739.853 361.162C743.097 359.772 752.975 361.255 753.383 362.663C754.162 365.295 749.825 369.929 745.191 373.172" fill="white"/>
<path d="M746.155 374.693C752.16 370.486 755.626 364.703 754.903 362.22C754.254 360.014 744.042 357.123 739.149 359.236C738.352 359.588 739.686 362.961 740.483 362.609C742.874 361.571 751.474 362.535 751.919 363.424C752.29 364.147 749.324 368.373 744.32 371.876C743.616 372.376 745.895 374.878 746.173 374.693H746.155Z" fill="#0E141B"/>
<path d="M744.672 373.506C748.138 372.468 758.258 375.656 758.425 378.14C758.573 380.457 753.643 385.553 746.896 386.591" fill="white"/>
<path d="M746.896 388.185C746.896 388.185 747.063 388.185 747.137 388.167C754.217 387.073 760.222 381.587 760 378.047C759.777 374.674 748.805 370.634 744.227 372.005C743.393 372.246 744.301 375.267 745.135 375.026C748.082 374.136 756.497 376.88 756.886 378.418C757.146 379.474 752.771 384.108 746.655 385.053C745.803 385.183 746.136 388.185 746.896 388.185Z" fill="#0E141B"/>
<path d="M746.6 386.609C751.307 387.202 758.814 392.874 758.332 395.098C757.887 397.192 750.14 399.12 744.487 398.842" fill="white"/>
<path d="M759.87 395.413C760.482 392.485 754.254 385.961 746.785 385.034C745.932 384.923 745.525 388.055 746.396 388.166C750.344 388.648 756.886 393.578 756.738 394.765C756.608 395.784 749.843 397.545 744.579 397.267C743.671 397.267 743.671 400.825 744.542 400.862C751.585 401.196 759.147 398.916 759.889 395.413H759.87Z" fill="#0E141B"/>
<path d="M689.903 424.327C718.261 424.327 740.261 414.856 746.896 398.954C759.184 369.466 721.486 315.42 666.977 288.897C621.864 266.971 580.107 259.243 538.071 265.47C527.247 267.083 527.543 269.844 538.386 268.602C580.422 264.284 620.752 272.346 665.308 294.013C715.166 318.256 754.514 370.43 743.282 397.397C733.83 420.083 689.181 426.477 639.416 412.243C630.668 409.778 629.945 412.336 638.545 415.264C657.116 421.621 674.464 424.29 689.903 424.29V424.327Z" fill="#0E141B"/>
<path d="M738.964 401.307C741.336 402.494 747.767 412.206 746.952 413.355C746.136 414.504 734.33 413.466 731.309 411.965C728.288 410.463 730.493 406.627 732.347 404.328C734.2 402.03 736.869 400.269 738.945 401.326L738.964 401.307Z" fill="white"/>
<path d="M730.623 413.373C729.103 412.613 728.547 411.446 728.362 410.593C727.824 408.128 729.567 405.292 731.142 403.328C733.867 399.936 737.129 398.62 739.686 399.899C742.411 401.27 747.804 409.462 748.509 412.224C748.583 412.539 748.824 413.466 748.268 414.263C747.675 415.115 745.784 415.43 743.43 415.43C738.723 415.43 732.199 414.152 730.642 413.373H730.623ZM738.259 402.716C737.184 402.178 735.22 403.272 733.589 405.311C732.087 407.201 731.235 409.018 731.439 409.926C731.457 410.056 731.531 410.315 732.032 410.556C734.367 411.724 744.672 413.077 745.173 412.243C745.766 411.26 739.816 403.494 738.259 402.716Z" fill="#0E141B"/>
<path d="M721.43 414.374C722.82 415.634 726.286 426.069 725.489 427.126C724.692 428.182 710.903 422.844 709.272 421.343C707.641 419.842 711.941 415.783 713.794 414.745C715.648 413.707 720.17 413.243 721.43 414.392V414.374Z" fill="white"/>
<path d="M708.197 422.474C707.548 421.862 707.252 421.01 707.363 420.083C707.678 417.414 711.533 414.189 713.016 413.355C715.054 412.206 720.448 411.353 722.487 413.207C723.71 414.319 728.473 425.829 726.731 428.09C726.49 428.386 726.064 428.757 725.267 428.813C725.211 428.813 725.137 428.813 725.063 428.813C721.912 428.813 710.032 424.161 708.197 422.474ZM714.573 416.08C713.053 416.932 710.81 419.305 710.532 420.287C712.2 421.436 723.376 426.162 723.951 425.514C724.544 424.828 721.319 416.58 720.392 415.524C719.28 414.764 716.797 414.838 714.591 416.08H714.573Z" fill="#0E141B"/>
</g>
<defs>
<clipPath id="clip0_42_71904">
<rect width="720" height="677.334" fill="white" transform="translate(40 61)"/>
</clipPath>
</defs>
</svg>
