<svg width="800" height="800" viewBox="0 0 800 800" fill="none" xmlns="http://www.w3.org/2000/svg">
<g clip-path="url(#clip0_42_71993)">
<path d="M375.88 402.768C375.88 402.768 368.775 404.695 365.927 405.443C364.639 405.762 363.669 406.081 362.062 405.124C360.454 404.155 354.33 390.299 354.33 386.115C355.251 398.644 358.797 406.536 358.515 407.37C358.196 408.34 352.391 408.978 350.464 407.37C348.538 405.762 342.426 387.452 341.628 379.463C342.07 393.834 344.598 408.02 344.341 409.297C344.021 410.904 335.64 410.585 334.032 408.978C326.619 401.565 322.435 375.794 322.435 369.351C322.459 384.445 324.055 399.945 323.085 400.915C321.796 402.203 305.364 392.864 304.394 390.606C303.572 388.692 302.517 366.098 303.204 350.844C303.327 348.132 302.271 347.985 301.719 350.574C298.749 364.491 299.031 384.249 297.952 384.801C296.663 385.452 284.428 381.586 284.096 378.039C282.844 364.27 285.471 349.224 286.857 342.573C287.324 340.351 286.379 340.891 285.741 341.959C280.893 350.059 276.217 362.908 275.076 362.908C273.787 362.908 271.529 362.257 270.241 360.65C268.952 359.042 271.848 349.703 274.107 343.579C268.486 352.771 265.295 360.76 263.798 360.969C261.54 361.288 251.55 354.845 250.593 350.66C249.771 347.101 260.325 326.606 266.878 314.972C268.044 312.898 267.332 312.579 265.896 313.966C252.372 327.085 231.424 338.412 229.976 338.412C228.368 338.412 220.096 331.798 221.925 330.362C226.858 326.471 242.886 315.451 252.802 305.425C255.183 303.007 254.532 302.553 251.906 304.553C239.585 313.966 220.661 322.188 217.74 321.661C214.193 321.01 200.669 307.486 203.566 306.198C206.045 305.093 226.38 296.711 239.094 288.268C241.266 286.832 240.763 286.01 238.443 286.832C222.22 292.576 197.687 292.195 194.877 291.066C191.662 289.777 185.219 272.964 186.507 273.026C192.852 273.333 218.44 270.792 231.706 264.914C232.59 264.521 232.356 263.625 231.461 263.576C202.915 262.14 187.268 252.887 180.396 247.585C173.315 242.112 175.892 225.68 176.849 225.999C177.819 226.318 200.682 234.7 226.785 236.307C205.075 224.845 177.647 202.767 173.953 197.65C169.768 191.845 170.406 173.486 171.695 172.848C172.983 172.197 221.95 204.412 226.785 206.351C210.524 194.496 176.383 168.491 173.302 161.569C166.933 147.235 171.204 134.386 173.302 130.324C183.857 139.995 209.935 161.434 232.369 178.579C254.802 195.735 267.111 209.799 267.553 211.566C267.995 213.321 283.826 277.972 297.461 295.558C311.095 313.144 362.982 339.541 381.894 344.818C381.894 344.818 388.398 346.622 390.57 346.61L375.905 402.768H375.88Z" fill="#7FCDEC"/>
<path d="M270.965 614.881C271.259 621.41 274.082 624.576 273.272 624.404C271.026 623.913 266.78 621.962 265.148 619.434L267.013 616.525L270.965 614.893V614.881Z" fill="white"/>
<path d="M278.647 609.678C277.85 615.79 279.371 620.686 278.623 620.343C276.524 619.386 273.162 615.692 272.106 612.869L275.052 609.322L278.647 609.666V609.678Z" fill="white"/>
<path d="M300.283 608.855C303.008 613.948 305.352 615.777 304.542 615.961C302.296 616.489 297.755 615.225 295.202 613.629L296.479 609.175L300.283 608.855Z" fill="white"/>
<path d="M474.77 500.418C486.036 517.587 504.825 542.279 537.555 562.675C570.285 583.071 619.668 594.877 630.934 641.033C641.341 683.655 625.031 715.636 599.812 734.413C590.448 741.383 576.801 748.415 562.75 752.036C538.266 756.871 507.991 762.381 464.498 753.042C416.059 742.635 387.232 720.987 372.689 694.737C359.484 670.904 354.33 652.213 350.464 631.915C347.593 616.832 346.599 614.194 343.371 608.082C343.371 608.082 330.436 585.477 300.872 589.22C295.927 589.846 289.852 588.164 284.403 588.005C276.463 587.784 269.836 588.852 269.836 588.852C267.455 592.767 263.552 598.67 260.177 603.812C259.797 604.388 260.116 611.531 260.116 611.531C253.133 630.307 233.817 651.244 207.517 650.176C181.218 649.108 162.466 625.398 165.657 596.51C168.234 573.143 177.364 557.238 182.102 550.575C184.028 547.862 183.771 549.507 183.157 551.041C177.524 565.289 172.75 598.51 203.75 612.083C211.113 615.298 218.022 617.041 224.453 617.483C239.953 612.39 239.045 583.133 267.983 557.521C287.63 540.131 312.077 528.325 342.205 534.792C371.18 543.383 397.479 584.704 408.218 623.349C416.501 653.158 417.716 687.435 445.206 714.777C498.603 727.368 529.173 707.672 537.125 680.832C546.28 649.943 536.254 617.434 505.095 586.63C480.108 561.939 470.99 550.391 457.527 528.325L456.337 502.946L474.77 500.455V500.418Z" fill="#00A5D5"/>
<path d="M384.066 536.228C381.059 541.812 375.046 560.712 373.536 562.43C372.027 564.148 341.101 581.12 336.805 584.336C336.805 584.336 345.838 592.092 346.255 594.215C346.832 597.148 346.684 598.51 344.966 601.725C343.248 604.941 342.389 607.309 341.53 608.168C340.671 609.027 339.726 610.058 338.008 610.058L334.486 607.874L332.731 604.523C332.522 603.456 332.67 602.67 333.271 602.057C333.749 601.578 336.376 600.007 335.517 598.94C334.375 597.504 325.858 592.497 324.57 592.497C323.281 592.497 309.745 593.356 304.591 594.853C304.591 594.853 299.228 598.719 298.798 599.786C298.369 600.866 298.798 601.725 299.657 603.652C300.516 605.591 300.516 608.806 300.087 609.445C299.657 610.095 296.209 612.881 294.932 613.102C293.644 613.323 290.956 612.279 289.14 609.445C288.526 608.487 287.876 605.898 286.808 602.867C286.256 601.308 285.25 599.553 284.697 598.375C284.219 598.535 279.899 599.025 279.101 599.835C278.291 600.645 278.782 602.732 278.782 604.18C278.782 605.628 279.359 609.616 277.935 610.831C275.947 612.537 273.628 613.04 271.37 612.562C271.21 614.82 270.891 617.397 269.602 618.354C268.314 619.324 265.577 620.121 263.97 618.673C261.834 616.759 260.754 614.967 260.754 613.2C260.754 611.433 260.104 605.947 260.104 605.309C260.104 604.437 265.184 598.449 268.081 596.35C268.289 595.798 268.572 595.331 268.964 595C270.253 593.871 281.617 586.495 285.556 584.372C287.655 583.243 296.503 583.722 299.08 584.053C299.424 583.832 300.16 583.55 300.32 583.464C302.038 582.605 309.978 581.955 320.508 578.96C333.283 575.315 359.374 556.833 361.534 554.686C363.694 552.538 369.474 537.726 371.192 530.853L381.415 528.264L384.078 536.216L384.066 536.228Z" fill="#B5B4AA"/>
<path d="M336.769 611.125C334.596 612.426 326.116 610.966 327.417 610.143C330.019 608.511 331.123 607.014 332.866 605.271C334.241 603.909 336.499 605.725 337.161 607.235C337.652 608.352 337.836 610.487 336.769 611.125Z" fill="white"/>
<path d="M393.945 533.001C416.489 523.011 425.153 511.254 428.724 507.094C431.94 508.419 433.928 508.824 437.266 509.524C437.266 509.524 438.53 509.843 439.205 510.346C439.561 510.616 439.364 511.181 439.573 511.267C439.573 511.267 439.217 511.88 439.364 512.064C439.806 512.617 452.888 508.199 452.888 508.199C452.888 508.199 453.416 519.207 453.858 519.477C454.3 519.747 458.043 510.776 458.043 510.776C458.043 510.776 465.197 519.857 465.774 519.796C466.327 519.747 466.425 506.91 466.425 506.91C480.28 497.252 494.774 479.199 495.093 451.501C495.412 423.79 484.146 401.246 477.703 388.679L467.787 342.806L447.71 323.698C433.326 312.91 428.749 294.6 426.135 284.476C423.521 274.339 421.226 267.479 415.016 261.588L377.66 266.055L359.754 295.913C359.754 297.742 360.564 302.614 360.773 304.038L378.089 329.92C380.703 338.424 383.968 342.02 381.685 354.108C379.402 366.209 364.688 399.221 364.688 418.182C364.688 428.871 366.43 441.45 375.598 455.367C372.051 463.417 365.94 477.911 367.866 500.148L378.494 530.755H381.071C381.071 530.755 379.672 537.959 380.102 538.167C380.531 538.364 386.864 533.663 386.864 533.663C386.864 533.663 389.588 541.321 390.079 541.395C390.57 541.469 393.945 533.013 393.945 533.013V533.001Z" fill="#7FCDEC"/>
<path d="M396.399 274.475C397.111 275.407 399.111 278.954 399.111 283.716C399.111 290.232 397.074 294.982 390.018 296.344C382.961 297.706 378.47 292.576 378.335 292.269C378.2 291.963 378.727 289.925 379.697 287.52C379.697 287.52 385.514 276.414 396.399 274.487V274.475Z" fill="white"/>
<path d="M423.656 345.542C428.332 350.218 461.099 380.26 445.427 444.592C437.008 450.703 424.429 463.27 423.509 476.291L423.57 475.824C421.938 489.201 414.378 496.368 413.703 496.098C412.832 495.742 412.918 487.839 404.229 479.297C370.554 462.3 364.676 435.645 364.676 418.169C364.676 402.326 374.947 376.665 379.66 361.594C381.464 355.937 387.281 341.873 387.711 341.91C388.14 341.947 390.631 355.151 390.877 355.25C391.122 355.348 393.38 342.302 393.822 342.364C394.264 342.425 399.455 355.213 399.7 355.25C399.946 355.286 400.891 340.879 401.284 340.781C401.664 340.682 408.696 348.132 408.966 348.021C409.236 347.911 407.837 339.05 408.291 338.756C408.745 338.461 417.336 343.051 419.14 344.413C419.14 344.413 416.98 340.756 417.336 340.793C417.692 340.83 421.631 342.83 423.668 345.542H423.656Z" fill="#EBF6F5"/>
<path d="M392.374 288.649C392.938 291.52 392.202 295.902 389.048 296.527C385.894 297.141 383.55 293.386 382.973 290.502C382.409 287.618 383.182 283.237 386.299 282.623C389.429 282.009 391.809 285.777 392.374 288.649Z" fill="#8B694E"/>
<path d="M444.2 517.537C442.543 517.488 434.48 517.243 434.21 516.568C433.94 515.893 438.383 512.8 439.364 512.051L445.611 508.615L448.237 514.85C448.237 514.85 448.47 517.648 444.2 517.525V517.537Z" fill="#7FCDEC"/>
<path d="M391.22 521.404C390.644 528.866 392.779 532.793 391.883 532.486C389.392 531.615 385.158 527.749 383.661 524.632L386.594 521.061L391.22 521.404Z" fill="white"/>
<path d="M376.629 524.496C376.396 531.982 378.727 535.799 377.807 535.541C375.279 534.78 370.861 531.123 369.229 528.08L371.793 525.245L376.629 524.508V524.496Z" fill="white"/>
<path d="M363.142 529.871C363.62 537.345 366.283 540.928 365.351 540.744C362.761 540.229 358.024 537.001 356.11 534.117L358.27 530.841L363.129 529.871H363.142Z" fill="white"/>
<path d="M458.055 510.775C458.055 511.033 458.374 511.254 458.374 511.524C458.399 516.997 458.337 525.821 457.515 528.275C456.656 530.852 436.677 541.811 434.529 543.959C434.529 543.959 433.67 551.691 432.173 557.704C430.663 563.717 430.455 567.154 430.663 573.167C430.884 579.18 429.927 580.359 427.018 581.328C425.73 581.758 424.233 582.187 422.515 582.617C420.796 583.046 416.882 585.108 415.078 583.709L412.206 575.364C411.96 574.247 412.832 573.867 414.574 573.241C415.323 572.971 416.82 572.492 417.692 569.375C418.686 565.84 417.79 559.091 417.139 556.514C413.077 540.265 398.4 522.974 392.128 517.574C392.141 518.936 391.908 520.433 390.717 521.403C388.459 523.231 382.986 524.188 382.986 524.188C382.986 524.188 379.549 522.249 379.439 519.464C379.353 517.242 379.341 515.095 379.39 513.303C378.739 513.303 375.463 513.021 375.463 514.96C375.463 516.899 377.181 524.188 376.113 525.477C375.046 526.766 369.67 527.846 369.02 527.625C368.369 527.416 365.584 525.048 364.725 523.121C364.516 522.667 364.307 522.164 363.841 520.838C363.203 521.059 361.718 521.611 361.718 522.691C361.718 523.771 363.473 528.508 362.786 529.993C361.718 532.362 357.423 534.08 355.484 533.429C354.465 533.086 352.686 532.141 351.618 530.644C350.55 529.134 347.961 518.187 347.961 517.107C347.961 516.027 357.84 509.167 361.055 507.658C362.344 506.369 373.07 495.938 374.591 495.631C375.659 495.41 379.746 496.92 380.826 497.128C381.893 497.337 384.262 497.987 387.698 498.417C388.876 497.14 390.189 495.791 390.705 495.619C394.067 494.502 401.333 495.619 403.272 496.588C405.211 497.558 407.776 505.289 414.219 513.34C418.624 518.85 422.686 525.821 425.251 530.938C429.117 528.999 444.825 519.464 445.464 517.954C446.102 516.445 446.274 513.475 445.844 510.468L452.876 508.173C452.876 508.173 453.404 519.353 453.87 519.451C454.324 519.55 458.03 510.75 458.03 510.75L458.055 510.775Z" fill="#B5B4AA"/>
<path d="M414.575 583.587C412.083 585.084 402.364 583.403 403.861 582.47C406.855 580.605 409.469 578.359 411.47 576.358C413.041 574.788 415.213 577.23 415.458 578.604C415.704 579.979 415.802 582.85 414.587 583.587H414.575Z" fill="white"/>
<path d="M460.522 343.272C459.626 349.568 458.423 356.759 459.025 357.655C459.626 358.551 461.614 360.269 464.314 360.637C463.823 368.933 463.418 378.223 463.823 379.217C464.424 380.715 474.304 384.912 475.506 385.206C475.555 386.36 475.715 386.863 475.801 386.998C476.402 387.894 487.791 388.79 488.981 388.201C490.122 387.624 493.743 365.092 494.32 353.188C495.522 357.986 500.37 384.31 500.971 385.206C501.572 386.102 513.857 382.813 515.047 381.61C516.005 380.653 513.366 363.276 511.329 354.648C510.801 352.415 510.85 351.777 512.237 354.268C516.766 362.38 526.51 379.61 527.32 379.205C530.314 377.708 540.807 372.615 541.997 369.621C542.893 367.387 537.776 355.962 534.499 349.69C533.382 347.567 533.259 347.236 534.855 349.42C537.972 353.716 542.746 360.367 543.801 362.122C544.697 363.619 549.496 358.821 550.097 357.631C550.502 356.808 544.255 345.714 539.359 337.197C537.825 334.534 538.193 334.583 540.267 336.952C548.084 345.923 560.835 356.379 561.78 356.133C562.983 355.839 574.065 345.051 574.065 343.849C574.065 342.646 564.762 329.797 560.013 322.63C559.792 322.299 564.885 325.625 566.186 325.809C566.554 325.858 566.726 325.882 567.413 325.404C568.788 326.974 570.101 328.472 571.303 329.846C569.88 333.037 569.119 334.657 569.193 334.816C569.352 335.197 572.261 335.258 575.464 334.571C576.409 335.626 577.071 336.363 577.366 336.657C578.863 338.154 587.859 327.674 588.153 325.269C588.227 324.704 587.098 322.139 585.294 318.482C594.277 292.747 602.008 246.726 597.775 212.855C592.498 170.638 584.643 146.29 564.799 110.112C550.944 84.8555 535.775 58.9365 527.418 40.4668C522.865 49.4992 520.288 64.0786 521.147 67.0853C522.006 70.092 539.199 115.229 553.018 134.079C533.75 110.504 517.993 76.6944 516.851 74.8045C515.563 72.6569 505.266 87.2486 506.985 98.404C508.703 109.559 531.86 145.996 546.01 162.293C520.975 144.449 504.297 117.733 502.689 118.138C500.971 118.567 494.541 140.878 495.829 146.462C496.872 150.991 522.558 176.198 536.99 187.108C540.316 189.624 539.199 189.82 536.573 188.666C510.396 177.13 493.988 159.876 492.822 161.054C491.534 162.342 488.527 186.801 490.675 191.084C492.822 195.379 531.001 215.113 541.727 215.972C516.127 216.623 494.05 213.113 493.24 215.543C492.381 218.12 502.247 240.86 504.395 242.149C505.782 242.983 517.293 245.082 532.008 243.523C532.094 245.008 531.959 245.978 531.492 247.647C518.778 250.764 507.451 251.328 503.119 251.586C500.652 251.733 509.611 262.594 516.25 270.142C505.721 280.954 491.006 292.404 473.751 303.903C455.588 316.015 449.121 322.372 442.531 332.485L460.51 343.247L460.522 343.272Z" fill="#7FCDEC"/>
<path d="M366.246 298.553C359.349 295.705 349.605 291.042 344.537 281.298C339.468 271.554 336.008 239.486 336.621 239.081C337.235 238.676 349.004 252.065 354.477 259.576L366.725 276.72L366.246 298.54V298.553Z" fill="#00A5D5"/>
<path d="M389.993 250.862C390.803 242.137 396.289 192.618 394.865 192.213C393.442 191.808 370.922 221.237 355.091 258.778C353.385 262.815 360.159 290.035 367.265 297.951L368.823 297.202L389.993 250.874V250.862Z" fill="#00A5D5"/>
<path d="M368.811 297.19C372.198 280.401 375.745 266.117 380.642 260.803C421.84 216.156 444.568 210.266 444.568 210.266C444.568 210.266 428.393 244.947 415.004 261.588C415.004 261.588 394.853 273.382 368.799 297.19H368.811Z" fill="#00A5D5"/>
<path d="M366.246 313.941C360.356 316.469 357.226 318.457 357.226 318.457C357.018 316.948 357.435 312.444 357.864 309.437C358.417 305.559 367.314 297.41 368.811 297.202C372.211 296.711 384.704 302.786 386.422 307.719C388.14 312.665 387.281 322.753 381.906 327.048C378.74 329.588 374.604 330.484 371.818 329.416C369.13 328.386 367.744 324.262 366.234 313.953L366.246 313.941Z" fill="#B5B4AA"/>
<path d="M384.066 307.928C377.991 309.523 372.972 311.229 368.983 312.8C369.413 316.015 371.18 326.177 373.328 326.177C375.475 326.177 381.918 316.077 384.066 307.928Z" fill="#EE869A"/>
<path d="M633.965 671.665C628.958 679.544 622.761 686.465 617.619 686.072C609.36 685.434 615.005 664.289 609.998 664.486C604.991 664.682 600.192 681.421 596.13 680.71C592.068 679.998 596.437 672.07 593.258 671.272C588.988 670.204 587.171 682.673 580.79 679.09C575.623 676.193 578.63 653.747 573.979 654.042C569.328 654.324 569.463 678.243 557.927 679.09C558.393 677.421 557.927 663.847 557.927 663.847C557.927 663.847 553.055 677.016 548.403 675.911C545.225 675.162 542.525 667.124 540.328 661.098C540.12 667.713 539.052 674.291 537.125 680.795C532.302 697.081 519.122 710.727 497.572 716.127C512.703 715.98 521.871 710.371 526.166 712.74C528.4 713.98 520.84 718.14 522.988 719.723C525.147 721.306 542.979 711.513 548.023 706.236C551.324 708.138 545.421 716.409 549.029 718.447C552.637 720.484 567.585 712.986 570.69 715.158C574.789 718.029 565.695 726.89 565.695 726.89C565.695 726.89 569.094 727.209 582.312 722.472C586.067 721.122 588.914 722.73 586.484 727.197C585.38 729.234 583.441 731.59 580.397 733.971C575.635 737.689 591.405 737.064 606.93 728.51C621.988 714.728 632.591 695.547 633.953 671.653L633.965 671.665Z" fill="#A1D2EA"/>
<path d="M248.875 587.109C247.365 590.14 245.635 594.251 245.635 594.251C251.256 585.82 264.669 573.266 264.669 573.266C262.939 575.647 260.926 581.427 260.926 581.427C265.847 570.762 278.574 564.602 283.495 559.275C283.495 559.275 301.265 530.792 330.669 533.43L330.461 533.136C305.659 531.552 285.017 542.426 267.983 557.496C254.483 569.449 247.488 582.175 242.272 592.889C245.672 589.318 248.875 587.109 248.875 587.109Z" fill="#A1D2EA"/>
<path d="M552.208 637.082C563.155 635.094 599.002 632.099 615.938 647.538C624.7 655.527 630.37 663.369 634.039 670.327C634.432 661.221 633.487 651.44 630.947 641.033C619.681 594.877 570.309 583.071 537.567 562.675C504.825 542.279 486.048 517.599 474.782 500.418L467.051 506.726C467.051 506.726 466.302 519.649 465.738 519.833C465.173 520.017 458.62 511.782 458.62 511.782L457.54 528.288C471.002 550.354 480.133 561.902 505.107 586.594C525.111 606.376 536.401 626.847 539.494 647.145C541.629 642.592 544.943 638.395 552.232 637.069L552.208 637.082Z" fill="#0090BA"/>
<path d="M260.521 610.057C253.833 630.171 233.792 651.218 207.505 650.138C181.206 649.07 162.454 625.36 165.645 596.471C167.915 575.94 175.229 561.164 180.199 553.359C183.182 548.671 182.924 551.334 181.967 554.341C177.021 569.914 174.971 599.441 203.75 612.02C227.582 622.452 246.776 617.371 259.871 602.877C259.871 603.319 260.276 607.099 260.533 610.032L260.521 610.057Z" fill="#0090BA"/>
<path d="M299.068 584.065C300.786 583.206 309.966 581.966 320.496 578.972C333.271 575.327 359.362 556.845 361.522 554.697C362.369 553.85 363.24 551.641 364.749 548.095C357.595 541.738 349.998 537.074 342.205 534.755C313.231 526.164 284.243 547.641 273.518 578.763C272.376 582.064 270.756 585.672 268.977 589.109C272.401 588.753 275.849 588.458 279.285 588.225C282.034 586.458 284.378 584.997 285.544 584.371C287.643 583.242 296.491 583.721 299.068 584.052V584.065Z" fill="#0090BA"/>
<path d="M563.425 751.581C539.801 757.349 509.954 755.471 474.758 736.548C417.876 705.953 418.944 661.957 408.218 623.312C401.848 600.375 389.993 576.481 375.34 559.066C374.469 561.324 373.929 561.975 373.536 562.429C372.027 564.147 341.101 581.12 336.805 584.335C336.805 584.335 345.838 592.091 346.255 594.214C346.832 597.147 346.685 598.509 344.966 601.725C343.813 603.885 343.04 605.664 342.402 606.855C345.617 612.978 347.568 616.807 350.44 631.89C354.306 652.188 359.46 670.867 372.665 694.711C387.208 720.962 416.035 742.61 464.474 753.017C507.966 762.356 539.113 756.895 563.412 751.569L563.425 751.581Z" fill="#0090BA"/>
<path d="M335.971 323.144C329.393 318.812 322.177 322.076 319.575 325.721C316.974 329.366 307.794 334.042 300.566 336.153C295.35 337.674 289.422 337.184 286.502 341.884C286.502 341.884 283.225 368.49 284.317 378.7C284.317 378.7 290.122 384.824 298.295 384.984C298.295 384.984 299.081 355.138 303.327 348.548C303.327 348.548 303.167 381.057 304.738 390.96C304.738 390.96 319.035 401.011 322.962 401.33L322.803 377.608C322.803 377.608 327.356 403.208 334.265 409.651C334.265 409.651 340.389 411.688 344.157 409.811C344.157 409.811 342.267 391.28 342.586 387.671C342.586 387.671 348.084 406.203 350.6 407.773C353.115 409.344 357.668 408.878 358.454 407.773L356.097 393.955C356.097 393.955 360.97 404.951 362.221 405.736C363.473 406.522 365.829 406.522 365.829 406.522C365.829 406.522 372.579 380.922 376.666 369.926C380.752 358.93 382.949 349.824 382.164 345.418C382.164 345.418 348.93 331.71 335.959 323.156L335.971 323.144Z" fill="#6EB3CD"/>
<path d="M565.928 256.801C542.28 290.5 528.927 295.348 508.887 306.135C488.846 316.922 472.586 331.355 461.897 336.214C454.116 339.749 453.294 336.644 455.441 333.38L459.773 326.789C459.773 326.789 470.61 317.131 480.513 309.584C490.417 302.049 514.446 283.665 520.582 276.117C520.582 276.117 521.294 278.474 527.651 276.117C534.02 273.761 560.16 261.759 565.941 256.801H565.928Z" fill="#6EB3CD"/>
<path d="M449.686 406.29C444.077 424.968 431.412 447.929 410.868 454.004C392.877 459.318 376.678 451.746 370.738 447.586C370.738 447.586 381.771 469.062 402.339 477.849C402.339 477.849 411.556 485.568 413.482 495.84C413.482 495.84 415.201 495.632 417.986 491.766C420.772 487.912 423.128 479.125 423.988 473.983C424.847 468.841 427.841 456.839 444.985 445.058C444.985 445.058 447.342 436.492 449.268 423.422C451.195 410.352 449.698 406.277 449.698 406.277L449.686 406.29Z" fill="#CBD5D5"/>
<path d="M495.535 447.93C495.314 456.361 475.371 482.55 458.018 486.563C440.702 490.563 426.491 481.016 423.828 477.911C423.828 477.911 423.386 500.995 439.365 510.764C439.365 510.764 438.923 512.543 441.365 511.88C443.807 511.218 452.913 508.1 452.913 508.1C452.913 508.1 452.913 518.974 454.018 519.195C455.122 519.415 457.797 511.205 457.797 511.205C457.797 511.205 464.768 520.029 465.725 519.833C466.683 519.636 467.038 506.726 467.038 506.726C467.038 506.726 480.28 496.908 487.104 484.341C495.314 469.247 495.535 447.93 495.535 447.93Z" fill="#6EB3CD"/>
<path d="M439.585 512.088C439.585 512.088 434.038 515.634 434.48 516.751C434.922 517.868 446.249 517.635 446.249 517.635C446.249 517.635 446.691 512.971 446.47 510.75L439.585 512.075V512.088Z" fill="#6EB3CD"/>
<path d="M438.162 509.831C394.117 497.092 388.275 469.762 388.275 469.762C388.275 469.762 397.013 475.836 402.327 477.837C407.641 479.837 412.01 491.361 412.942 494.171C413.74 496.564 414.538 496.294 417.459 492.846C420.379 489.397 421.95 483.372 423.816 477.898C423.816 477.898 423.816 490.195 428.332 498.687C432.848 507.18 438.15 509.831 438.15 509.831H438.162Z" fill="#6EB3CD"/>
<path d="M428.074 507.708C424.098 513.279 417.986 518.581 417.986 518.581C417.986 518.581 412.145 509.561 409.494 505.842C406.843 502.124 405.248 498.418 404.45 497.62C403.652 496.822 398.351 495.767 394.105 495.227C389.858 494.699 386.41 498.405 386.41 498.405C392.779 492.036 394.632 487.79 395.7 484.869C395.7 484.869 407.113 496.012 413.74 499.461C420.379 502.909 428.062 507.683 428.062 507.683L428.074 507.708Z" fill="#6EB3CD"/>
<path d="M378.924 512.75C376.261 513.572 375.856 514.996 375.856 517.254C375.856 519.512 376.469 524.409 376.261 525.439C376.052 526.458 377.279 530.14 377.279 530.14L380.556 530.962C380.556 530.962 379.329 537.503 380.151 537.712C380.973 537.92 386.692 534.03 386.692 534.03C386.692 534.03 389.552 541.185 390.165 541.185C390.779 541.185 393.442 533.416 393.442 533.416C393.442 533.416 401.419 529.943 402.646 529.33C402.646 529.33 394.669 519.512 392.006 517.266C392.006 517.266 392.411 520.948 390.987 521.561C390.987 521.561 391.601 530.152 392.006 531.993C392.006 531.993 390.987 532.398 389.147 530.974C387.306 529.538 383.415 524.63 383.415 524.63C383.415 524.63 380.347 522.58 379.734 520.126C379.12 517.671 378.911 512.762 378.911 512.762L378.924 512.75Z" fill="#6EB3CD"/>
<path d="M424.073 277.566C417.876 271.098 407.236 273.859 398.314 278.461L396.866 274.866C396.866 274.866 413.568 262.471 415.188 262.471C416.808 262.471 423.816 275.136 424.073 277.553V277.566Z" fill="#6EB3CD"/>
<path d="M398.522 278.094C398.461 277.529 396.166 274.842 396.166 274.842C394.73 275.566 390.975 278.573 386.766 282.119C388.054 282.451 389.208 283.346 389.932 284.021C394.779 280.769 398.547 278.168 398.522 278.082V278.094Z" fill="#DCDDDD"/>
<path d="M382.937 285.408C381.611 286.55 380.298 287.691 379.034 288.795C378.764 289.667 378.531 290.612 378.372 291.63C379.746 290.747 381.194 289.814 382.655 288.857C382.507 287.605 382.655 286.415 382.925 285.408H382.937Z" fill="#DCDDDD"/>
<path d="M382.937 285.409C382.679 286.415 382.519 287.606 382.667 288.857C385.146 287.238 387.661 285.568 389.932 284.047C389.208 283.372 388.054 282.464 386.766 282.145C385.514 283.2 384.213 284.304 382.937 285.421V285.409Z" fill="#755841"/>
<path d="M370.345 296.49C371.953 295.655 374.935 293.827 378.371 291.63C378.519 290.611 378.752 289.666 379.034 288.795C374.236 292.992 370.345 296.49 370.345 296.49Z" fill="#6EB3CD"/>
<path d="M444.31 210.534C441.119 212.853 396.78 256.616 390.411 262.985C384.029 269.367 377.365 284.143 369.253 296.894C369.253 296.894 398.068 271.76 415.188 262.47C415.188 262.47 441.696 220.609 444.31 210.521V210.534Z" fill="#0090BA"/>
<path d="M368.087 297.68C366.86 285.101 362.872 261.783 364.406 257.488C365.94 253.193 391.712 197.661 395.086 192.445C395.086 192.445 392.411 242.222 390.3 250.481C390.3 250.481 380.053 260.924 378.003 264.115C374.935 268.914 368.087 297.68 368.087 297.68Z" fill="#0090BA"/>
<path d="M366.652 298.391C363.584 296.342 352.33 284.683 350.084 280.805C347.838 276.915 337.812 243.988 336.793 239.484C336.793 239.484 341.493 242.761 354.183 258.911C354.183 258.911 355.619 272.202 358.478 279.566C361.338 286.929 366.664 298.379 366.664 298.379L366.652 298.391Z" fill="#0090BA"/>
<path d="M387.576 314.406C387.379 315.805 382.679 318.91 378.875 320.211C378.875 320.211 374.874 325.709 373.475 326.015C372.076 326.31 370.677 322.015 369.081 312.811L366.185 314.21C366.185 314.21 367.879 323.708 369.29 326.715C370.689 329.709 372.591 330.114 377.795 329.12C382.998 328.126 385.391 323.021 386.189 321.217C386.987 319.413 387.588 314.418 387.588 314.418L387.576 314.406Z" fill="#898880"/>
<path d="M336.818 584.335C336.818 584.335 373.732 563.226 374.272 562.416C374.812 561.607 384.053 535.626 384.053 535.626C384.053 535.626 380.703 537.909 380.151 537.7C379.599 537.492 381.231 530.533 381.231 530.533L377.341 530.803C376.936 532.546 378.543 534.694 377.881 535.356C377.218 536.019 371.18 531.466 371.18 531.466C369.167 538.167 361.509 554.697 361.509 554.697C360.405 558.575 349.065 572.836 337.088 578.984C325.098 585.145 311.819 588.385 307.929 590.004C304.038 591.624 296.27 594.864 294.969 597.785C293.668 600.706 293.349 606.535 287.52 604.915C287.52 604.915 288.379 607.848 288.919 609.186C289.459 610.524 292.944 613.469 294.945 612.941C296.957 612.401 299.768 611.199 300.308 607.848C300.848 604.498 297.767 601.688 299.498 599.27C301.24 596.852 304.591 594.582 306.198 594.312C307.806 594.042 321.477 592.434 324.018 592.434C326.558 592.434 334.596 597.932 335.676 599.675L333.001 602.215V604.633C333.001 604.633 338.094 604.903 337.554 610.389C337.554 610.389 341.039 609.984 343.052 605.566C345.065 601.148 346.672 597.932 346.672 595.65C346.672 593.367 344.66 592.164 343.052 590.287C341.444 588.409 336.818 584.335 336.818 584.335Z" fill="#898880"/>
<path d="M278.402 600.51C277.862 602.67 272.634 606.462 267.946 605.922C267.946 605.922 267.05 610.794 271.014 612.046C274.978 613.31 278.046 611.69 278.942 609.518C279.838 607.358 278.402 600.51 278.402 600.51Z" fill="#898880"/>
<path d="M267.234 606.277C267.234 606.277 267.05 611.861 261.11 613.665C261.11 613.665 263.098 619.433 265.798 619.617C268.498 619.801 270.486 617.813 271.026 615.837C271.566 613.849 271.566 612.769 271.566 612.769C271.566 612.769 268.498 611.505 268.326 609.701C268.142 607.897 267.246 606.277 267.246 606.277H267.234Z" fill="#898880"/>
<path d="M415.532 580.199C412.844 581.881 405.469 582.543 403.701 582.715C403.701 582.715 404.622 583.39 406.978 583.807C409.322 584.225 413.188 584.225 414.783 583.218C416.379 582.212 415.544 580.199 415.544 580.199H415.532Z" fill="#DCDDDD"/>
<path d="M428.528 580.395C428.528 580.395 430.369 581.156 430.676 575.032C430.983 568.909 430.983 563.84 431.903 559.385C432.823 554.93 434.824 546.966 434.357 543.738C434.357 543.738 456.141 531.086 457.527 528.287C459.957 523.354 457.638 511.499 457.638 511.499C457.638 511.499 454.827 519.525 454.03 519.194C453.244 518.875 452.925 508.1 452.925 508.1L446.028 510.652L446.261 517.647C450.716 514.493 453.539 517.819 453.539 517.819C455.061 525.502 448.875 529.92 443.623 532.755C440.555 534.411 434.431 538.142 429.559 540.388C425.313 542.351 422.232 539.664 419.201 535.688C414.575 529.625 406.229 519.341 403.284 515.647C400.609 512.297 398.621 511.843 397.847 511.843C397.074 511.843 393.552 513.217 392.632 514.138C391.711 515.058 391.871 517.206 393.098 518.433C394.325 519.66 411.2 537.148 414.881 549.113C418.563 561.079 418.097 568.283 417.029 570.737C417.029 570.737 425.865 569.215 425.19 575.756C424.945 578.186 418.391 579.696 415.63 579.954C415.63 579.954 415.802 581.463 415.213 582.973C415.213 582.973 415.961 584.396 418.907 583.807C421.84 583.218 428.54 580.395 428.54 580.395H428.528Z" fill="#898880"/>
<path d="M392.251 513.523C386.95 517.009 381.243 516.911 379.022 514.407C379.022 514.407 379.022 517.414 379.734 520.114C380.458 522.814 382.949 524.2 384.483 524.065C386.005 523.93 390.582 522.679 391.834 520.322C393.086 517.966 392.251 513.523 392.251 513.523Z" fill="#898880"/>
<path d="M375.438 514.481C371.462 521.709 364.651 521.145 363.829 519.611C363.829 519.611 366.026 526.311 369.376 527.649C370.075 527.931 374.702 527.06 376.273 525.416C377.844 523.771 375.451 514.469 375.451 514.469L375.438 514.481Z" fill="#898880"/>
<path d="M361.35 521.525C358.748 527.846 352.06 530.484 350.698 528.754C350.698 528.754 351.127 532.595 355.864 533.859C357.717 534.35 361.558 532.251 362.921 529.65C364.283 527.048 361.35 521.538 361.35 521.538V521.525Z" fill="#898880"/>
<path d="M270.965 614.881C271.259 621.41 274.082 624.576 273.272 624.404C271.026 623.913 266.78 621.962 265.148 619.434L269.112 618.71L270.965 614.893V614.881Z" fill="#DCDDDD"/>
<path d="M278.647 609.678C277.85 615.789 279.371 620.686 278.623 620.342C276.524 619.385 273.162 615.691 272.106 612.868L275.776 612.709L278.647 609.678Z" fill="#DCDDDD"/>
<path d="M300.283 608.855C303.008 613.948 305.352 615.777 304.542 615.961C302.296 616.489 297.755 615.225 295.203 613.629L298.455 611.433L300.283 608.855Z" fill="#DCDDDD"/>
<path d="M391.221 521.403C390.644 528.864 392.779 532.792 391.883 532.485C389.392 531.613 385.158 527.748 383.661 524.63L386.913 523.501L391.208 521.391L391.221 521.403Z" fill="#DCDDDD"/>
<path d="M376.629 524.496C376.396 531.982 378.727 535.799 377.807 535.541C375.279 534.78 370.861 531.123 369.229 528.08L374.629 526.693L376.629 524.508V524.496Z" fill="#DCDDDD"/>
<path d="M363.142 529.87C363.62 537.343 366.283 540.927 365.351 540.743C362.761 540.227 358.024 537 356.11 534.116L359.816 532.889L363.142 529.857V529.87Z" fill="#DCDDDD"/>
<path d="M336.732 606.008C336.732 602.78 340.193 601.394 339.383 599.786C338.573 598.166 335.345 597.135 332.694 595.871C332.694 595.871 335.885 598.645 335.676 599.675C335.468 600.706 333.627 601.578 333.283 602.069C332.927 602.559 332.203 603.284 332.743 604.535C332.743 604.535 333.971 604.744 334.781 605.1C335.591 605.443 336.744 606.02 336.744 606.02L336.732 606.008Z" fill="#B5B4AA"/>
<path d="M336.781 606.67C336.781 606.67 333.504 610.217 327.233 610.425C327.233 610.425 327.847 610.965 329.896 611.382C331.946 611.787 336.302 612.07 337.26 610.769C338.217 609.468 336.781 606.682 336.781 606.682V606.67Z" fill="#DCDDDD"/>
<path d="M377.488 292.623C377.23 292.033 377.66 290.426 378.138 289.027C378.384 288.303 380.728 287.37 380.544 287.849C379.722 289.91 378.862 291.825 378.899 292.181C379.022 293.322 385.919 298.047 393.246 294.316C399.345 291.211 399.811 280.485 395.663 275.024C395.356 274.619 396.817 273.502 397.136 273.907C401.468 279.614 401.198 291.935 394.019 295.789C387.748 299.151 379.182 296.488 377.5 292.623H377.488Z" fill="#0E141B"/>
<path d="M386.754 296.895C384.483 296.011 382.765 293.348 382.25 290.746C381.501 286.942 383.219 282.61 386.189 282.033C389.822 281.321 392.558 285.518 393.135 288.476C393.614 290.881 393.111 294.453 391.086 296.195C389.748 297.337 387.968 297.386 386.741 296.907L386.754 296.895ZM386.987 283.174C385.011 283.371 384.201 284.843 383.845 285.911C383.403 287.236 383.305 288.955 383.587 290.39C384.066 292.808 386.128 296.477 388.938 295.925C391.613 295.398 392.313 291.434 391.785 288.771C391.343 286.512 389.122 282.966 386.999 283.174H386.987Z" fill="#0E141B"/>
<path d="M447.857 325.391C433.302 314.481 428.418 296.784 425.043 285.162C422.846 277.578 420.343 268.325 414.17 262.483C413.679 262.017 415.151 260.618 415.642 261.084C422.282 267.367 425.436 276.682 427.399 284.585C430.259 296.146 435.376 313.462 449.28 323.145C449.833 323.538 448.066 325.562 447.845 325.391H447.857Z" fill="#0E141B"/>
<path d="M404.745 480.745C370.775 464.116 363.633 437.583 363.633 418.463C363.633 405.896 369.793 387.537 374.825 372.761C377.476 365.005 379.955 358.084 380.728 353.972C382.446 344.891 381.673 338.608 377.353 329.587C377.058 328.974 378.617 328.385 378.961 328.974C382.213 334.521 384.716 344.584 382.863 354.341C382.053 358.636 379.746 365.398 377.071 373.24C372.088 387.844 365.891 406.019 365.891 418.181C365.891 436.614 372.64 461.993 404.769 478.217C405.37 478.523 404.916 480.843 404.732 480.757L404.745 480.745Z" fill="#0E141B"/>
<path d="M387.257 307.191C385.33 301.656 372.419 295.999 368.775 296.526C366.676 296.821 357.386 304.884 356.76 309.069C356.404 311.462 356.331 314.419 356.257 316.641C356.147 320.322 357.521 319.316 359.067 318.432C360.331 317.721 362.467 316.592 365.498 315.254C367.044 325.44 368.541 328.753 371.487 329.882C372.383 330.226 373.389 330.398 374.444 330.398C377.095 330.398 380.053 329.33 382.495 327.379C388.165 322.838 389.097 312.456 387.269 307.191H387.257ZM381.341 326.323C378.482 328.618 374.702 329.527 372.15 328.545C370.002 327.722 368.652 323.894 367.253 314.493C367.621 314.333 368.026 314.174 368.419 314.014C368.983 317.905 370.591 326.913 373.328 326.913C376.064 326.913 382.115 317.917 384.348 309.535C384.594 308.639 384.827 306.811 382.421 307.4C368.443 310.848 360.871 315.352 357.901 317.254C357.951 315.352 358.441 311.94 358.773 309.547C359.276 306.062 367.719 298.195 368.983 297.84C371.904 297.41 383.955 303.411 385.551 308.001C387.171 312.652 386.312 322.323 381.329 326.311L381.341 326.323ZM369.83 313.474C373.401 312.088 377.77 310.603 382.937 309.204C380.396 317.316 374.653 325.391 373.34 325.464C372.37 325.305 370.689 319.549 369.842 313.487L369.83 313.474Z" fill="#0E141B"/>
<path d="M367.916 297.017C371.536 278.302 374.923 265.269 379.844 259.943C414.685 222.181 436.333 212.314 442.518 209.995C442.825 209.884 446.703 208.129 444.617 212.339C441.328 218.99 429.473 244.762 418.379 259.808C416.452 262.422 416.452 262.557 413.47 264.447C407.469 268.251 390.46 278.781 370.321 297.091C370.026 297.349 367.842 297.422 367.928 297.03L367.916 297.017ZM443.5 211.198C437.094 213.75 414.967 224.967 381.329 261.428C376.715 266.423 372.751 280.953 369.744 295.496C393.417 274.179 412.562 261.992 414.403 260.888C425.718 246.775 439.855 218.794 443.5 211.198Z" fill="#0E141B"/>
<path d="M360.025 304.882C359.706 302.796 358.92 297.065 358.92 295.518C358.92 295.015 360.675 295.408 360.675 295.923C360.675 297.335 361.215 300.869 361.51 302.771L360.037 304.894L360.025 304.882Z" fill="#0E141B"/>
<path d="M366.578 298.563C359.46 290.635 351.839 262.789 353.766 258.2C362.295 237.975 372.53 221.223 379.402 210.645C380.482 208.976 388.619 196.924 392.865 192.727C394.767 190.85 395.896 190.481 395.982 193.905C396.08 198.127 395.7 208.902 392.399 240.883C391.957 245.142 391.613 248.492 391.454 250.223C391.405 250.726 389.036 251.278 389.085 250.775C389.245 249.032 389.588 245.682 390.03 241.411C391.343 228.722 394.485 199.808 394.424 193.243C389.662 198.287 370.051 225.641 355.938 259.132C354.465 262.642 361.031 289.616 367.952 297.323C368.296 297.704 366.762 298.759 366.578 298.551V298.563Z" fill="#0E141B"/>
<path d="M365.891 299.41C358.196 296.244 348.526 291.556 343.506 281.91C340.585 276.301 338.425 263.943 337.37 257.059C336.499 251.34 335.824 243.67 335.689 241.313C335.456 237.46 336.609 237.521 338.83 239.681C339.996 240.81 341.899 242.688 344.598 245.768C347.863 249.499 352.318 254.616 355.312 258.715C355.607 259.12 354.048 260.544 353.754 260.127C349.151 253.819 340.303 243.142 337.076 239.939C337.517 246.652 341.015 272.497 345.372 280.879C350.121 289.985 359.215 294.661 366.627 297.704C367.093 297.901 366.038 299.459 365.928 299.41H365.891Z" fill="#0E141B"/>
<path d="M412.218 494.71C411.482 491.581 409.383 484.598 399.75 476.781C395.491 473.32 390.521 465.208 388.324 459.71C387.342 457.243 388.116 456.887 389.282 459.121C391.552 463.514 397.295 471.761 401.296 475.013C410.672 482.634 413.36 491.311 413.851 494.673C413.949 495.361 414.035 495.299 414.44 494.882C418.109 491.164 427.878 476.388 420.158 453.574C419.25 450.898 420.232 450.542 421.263 453.144C431.94 480.106 416.391 495.152 415.74 495.79C413.973 497.521 412.93 497.729 412.218 494.71Z" fill="#0E141B"/>
<path d="M431.204 456.372C431.498 454.249 432.173 450.58 431.572 446.125C431.253 443.756 432.333 443.486 432.799 445.695C433.744 450.285 433.842 453.218 433.535 455.452C433.486 455.759 431.179 456.691 431.216 456.372H431.204Z" fill="#0E141B"/>
<path d="M443.549 444.86C447.145 428.783 442.936 404.018 440.138 395.893C439.635 394.458 440.346 394.151 440.984 395.538C444.102 402.25 449.256 428.317 445.746 443.326C445.648 443.755 443.439 445.351 443.549 444.86Z" fill="#0E141B"/>
<path d="M437.192 509.755C428.553 503.19 421.999 490.512 422.772 475.773C423.619 459.672 440.481 445.878 448.728 441.583C451.588 440.098 452.029 441.043 449.428 442.859C442.58 447.621 425.926 460.936 425.129 476.056C424.576 486.597 426.368 499.042 439.72 509.731C439.978 509.939 440.113 510.712 438.91 510.553C437.695 510.393 437.695 510.148 437.192 509.767V509.755Z" fill="#0E141B"/>
<path d="M438.653 510.603C417.594 506.541 400.13 491.557 395.013 484.598C393.233 482.193 393.982 481.739 395.896 483.69C408.61 496.613 423.349 505.277 436.247 508.259C437.462 508.541 440.481 510.947 438.653 510.591V510.603Z" fill="#0E141B"/>
<path d="M367.388 500.932C365.093 483.849 367.474 469.859 374.899 455.071C375.205 454.469 376.973 455.242 376.703 455.868C373.585 462.937 367.118 477.639 369.069 500.048C369.131 500.723 367.474 501.582 367.388 500.944V500.932Z" fill="#0E141B"/>
<path d="M464.228 519.647C463.21 518.604 461.455 516.554 458.301 512.566C456.865 515.953 455.969 517.831 455.392 518.898C453.809 521.794 452.95 520.125 452.692 518.309C452.496 516.861 452.287 514.247 452.042 509.461C445.623 511.633 442.347 512.578 440.629 512.885C437.843 513.388 438.334 511.719 438.776 510.811C439.34 509.645 440.702 507.669 443.684 504.086C444.556 503.03 445.341 503.558 444.593 504.699C442.212 508.307 440.297 511.216 440.346 511.351C440.395 511.473 448.041 508.774 452.606 507.325C453.122 507.166 453.772 507.043 453.821 508.148C453.969 511.277 454.042 517.769 454.189 517.757C454.349 517.745 456.251 512.701 457.196 510.406C457.638 509.363 458.276 509.559 458.767 510.197C461.111 513.167 465.284 518.628 465.419 518.591C465.541 518.555 465.468 511.093 465.504 506.884C465.504 506.589 465.652 506.307 465.897 506.135C476.304 498.87 493.817 482.118 494.172 451.475C494.504 423.445 481.876 398.962 476.157 387.806C475.924 387.352 478.599 387.61 478.832 388.064C484.625 399.342 497.572 422.426 497.24 450.91C496.885 481.996 478.869 499.913 467.333 507.375C467.284 513.965 467.149 517.278 466.916 518.947C466.548 521.586 465.296 520.739 464.216 519.635L464.228 519.647Z" fill="#0E141B"/>
<path d="M443.562 518.469C441.782 518.469 436.972 518.395 434.64 517.696C433.499 517.352 432.48 516.849 434.223 514.996C435.094 514.075 436.616 512.848 438.911 511.191L440.138 512.689C438.383 513.965 435.781 515.708 435.106 516.321C437.205 516.665 443.451 516.702 444.985 516.64C445.439 516.591 444.764 518.444 444.249 518.469C444.237 518.469 443.979 518.469 443.562 518.469Z" fill="#0E141B"/>
<path d="M418.833 520.149C424.172 515.4 427.387 510.945 429.436 508.245C429.89 507.644 427.73 506.466 427.215 507.055C425.251 509.325 422.073 513.019 417.164 517.216L418.821 520.162L418.833 520.149Z" fill="#0E141B"/>
<path d="M403.063 530.569C400.449 531.833 397.602 533.024 394.497 534.104C391.527 541.504 390.852 542.314 390.202 542.314C390.116 542.314 390.03 542.302 389.944 542.289C389.38 542.203 388.95 542.13 386.422 535.122C383.82 537.037 382.311 538.055 381.39 538.583C379.648 539.577 378.924 539.602 379.145 536.89C379.231 535.834 379.476 534.214 379.967 531.662L377.881 531.6C377.377 531.6 377.255 529.87 377.77 529.87L381.084 529.808C382.102 529.808 382.139 530.103 381.992 530.901C381.599 532.913 380.863 535.748 380.691 537.147C381.98 536.313 384.483 534.263 386.336 532.889C386.901 532.471 387.416 532.373 387.748 533.318C388.545 535.564 389.527 538.767 390.153 540.215C390.828 538.829 392.239 533.834 392.755 532.766C393.049 532.152 393.638 531.772 394.289 531.49C396.927 530.299 399.394 529.072 401.676 527.82L403.088 530.532L403.063 530.569Z" fill="#0E141B"/>
<path d="M517.416 271.675C507.635 281.873 493.448 293.237 475.249 305.375C456.374 317.954 450.177 323.39 443.267 332.877C441.856 334.816 440.702 334.472 442.052 332.202C449.097 320.273 456.227 315.131 473.666 303.509C491.522 291.605 505.929 280.069 515.87 269.957L517.416 271.675Z" fill="#0E141B"/>
<path d="M532.781 247.289C533.026 246.013 533.149 244.785 533.137 243.595C533.137 242.92 530.645 243.055 530.682 243.742C530.756 245.055 530.572 246.491 530.142 248.038L532.769 247.301L532.781 247.289Z" fill="#0E141B"/>
<path d="M381.427 354.99C364.136 350.216 308.641 322.113 293.718 305.165C286.268 296.709 274.696 273.956 260.497 216.179C260.116 214.608 259.809 213.368 259.723 213.135C259.539 212.706 258.582 211.564 257.085 209.92C250.581 202.814 233.952 186.517 227.067 180.565C225.533 179.239 226.073 178.527 227.681 179.681C234.565 184.627 251.219 200.47 258.41 208.337C260.349 210.447 261.601 211.982 261.797 212.583C261.896 212.877 262.117 213.773 262.607 215.774C276.721 273.195 288.391 295.138 295.706 303.434C310.457 320.174 364.774 348.498 381.906 353.223C382.397 353.358 381.501 355.014 381.415 355.002L381.427 354.99Z" fill="#0E141B"/>
<path d="M382.188 343.627C363.375 338.374 311.844 311.707 298.59 294.599C287.52 280.314 275.003 233.103 270.364 216.364C269.014 211.479 269.603 210.743 265.381 205.895C260.116 199.87 249.562 189.058 233.731 176.945C213.003 161.102 186.839 140.84 175.094 130.298C173.646 128.997 172.664 129.28 171.756 131.403C169.154 137.551 166.896 149.48 172.431 161.924C176.518 171.128 229.779 209.724 234.897 212.682C237.216 214.02 238.039 213.467 235.584 211.406C231.915 208.325 178.003 169.238 174.112 161.188C169.302 151.235 172.161 137.858 173.45 132.127C185.194 142.755 210.831 163.667 231.596 179.547C247.415 191.647 258.239 202.263 263.221 207.871C267.197 212.326 266.498 212.608 267.713 217.345C272.339 235.312 285.017 281.554 296.442 296.305C310.224 314.087 361.951 340.534 381.526 345.995C381.636 346.02 382.839 343.811 382.188 343.627Z" fill="#0E141B"/>
<path d="M233.805 240.404C210.082 230.992 177.586 204.3 173.18 198.188C169.228 192.715 169.412 177.399 170.357 173.533C170.922 171.226 171.658 171.68 173.438 172.576C176.248 173.987 183.047 178.16 200.952 189.475C212.733 196.924 224.92 204.619 227.092 205.49C227.558 205.674 232.995 210.914 232.516 210.73C230.184 209.797 212.635 199.759 200.24 191.929C189.134 184.909 172.787 174.49 172.419 174.49C172.051 174.49 171.106 192.175 174.665 197.108C178.445 202.336 212.844 228.23 234.332 239.055C237.769 240.785 237.376 241.816 233.805 240.404Z" fill="#0E141B"/>
<path d="M262.387 361.679C258.411 360.476 250.593 354.782 249.697 350.879C248.777 346.866 259.306 326.727 265.479 315.646C253.796 327.353 234.934 338.865 229.976 339.343C228.11 339.527 221.79 334.336 220.882 331.71C220.465 330.507 221.066 329.857 221.348 329.648C225.57 326.666 241.806 314.48 249.157 307.669C236.897 316.112 221.741 323.365 217.569 322.579C213.445 321.806 203.554 313.4 202.253 307.178C202.081 306.368 202.498 305.656 203.185 305.374C210.77 302.207 231.485 292.095 237.744 288.045C221.275 293.519 197.418 293.089 194.521 291.923C190.901 290.475 185.023 274.914 185.44 272.999C185.575 272.361 186.103 272.079 186.532 272.116C192.73 272.398 217.127 270.03 230.454 264.446C202.596 262.85 186.839 253.744 179.807 248.308C173.388 243.35 174.346 230.746 175.413 226.77C175.978 224.671 176.972 225.076 178.175 225.494C184.863 227.789 204.744 234.023 226.81 235.385C227.313 235.422 227.791 237.349 227.264 237.336C201.492 236.367 184.409 229.973 177.205 227.101C176.358 229.912 175.585 242.135 181.243 246.504C188.25 251.916 204.302 260.543 232.307 262.629C235.56 262.875 236.762 263.341 232.884 265.366C220.968 271.588 199.725 274.656 187.293 273.969C187.894 277.258 192.987 289.322 195.209 290.217C198.056 291.359 223.864 290.647 239.536 285.186C246.322 282.817 247.059 283.566 241.193 287.959C229.865 296.452 210.537 304.735 204.069 306.994C204.13 309.423 214.905 320.223 217.9 320.775C220.465 321.242 244.371 309.423 254.864 300.784C259.895 296.636 260.791 297.507 256.705 302.576C247.525 313.94 230.111 326.286 222.6 331.023C223.827 332.655 229.301 337.38 230.013 337.502C230.663 337.613 252.201 325.954 265.479 313.093C270.769 307.975 271.088 308.393 267.86 315.118C261.172 329.035 250.974 348.29 251.501 350.462C252.422 354.229 263.013 359.875 263.553 359.801C264.093 359.727 266.105 355.334 267.922 351.984C271.333 345.676 276.819 336.717 283.115 330.274C285.311 328.028 286.011 328.863 284.035 331.268C277.972 338.631 272.941 347.553 269.578 353.775C267.615 357.408 266.412 359.58 265.492 360.746C264.522 361.973 263.369 361.973 262.399 361.679H262.387Z" fill="#0E141B"/>
<path d="M321.146 401.673C316.483 400.201 304.53 393.267 303.548 390.984C302.64 388.873 301.695 367.961 302.21 352.817C300.799 360.463 300.247 369.471 299.842 376.11C299.608 379.853 299.461 382.074 299.277 383.424C298.884 386.419 297.841 385.879 296.688 385.732C294.123 385.413 289.692 383.768 287.177 382.369C284.624 380.945 283.311 379.559 283.188 378.135C282.022 365.335 284.207 351.308 285.643 343.981C283.52 347.786 277.359 361.322 276.696 362.451C275.702 364.132 275.199 363.936 274.058 363.752C272.511 363.494 270.683 362.684 269.529 361.236C267.799 359.076 271.112 349.05 273.248 343.27C273.419 342.791 275.15 343.429 274.978 343.908C271.689 352.842 270.339 359.224 270.977 360.095C271.603 360.966 274.499 361.838 274.745 361.727C274.99 361.617 280.415 348.768 284.501 342.276C287.925 336.814 288.944 336.262 287.557 343.834C285.103 357.125 284.636 377.313 285.029 377.976C286.035 379.669 293.239 383.044 297.35 383.977C297.547 384.026 297.412 379.215 297.62 375.84C298.099 368.023 299.044 357.088 301.192 348.682C303.29 340.472 304.088 340.717 304.235 349.148C304.517 364.574 304.763 388.137 305.524 389.966C306.407 391.806 321.944 399.857 322.165 399.71C322.398 399.562 321.87 393.463 321.625 388.284C321.195 378.957 321.085 365.961 322.386 356.07C322.803 352.879 323.687 352.854 323.613 355.996C323.38 365.274 323.552 378.712 323.981 388.014C324.288 394.543 324.411 397.918 324.276 399.71C324.079 402.471 322.877 402.238 321.158 401.698L321.146 401.673Z" fill="#0E141B"/>
<path d="M340.291 411.284C337.615 411.284 334.486 410.756 333.369 409.639C325.846 402.116 321.502 376.21 321.502 369.362C321.502 368.859 323.343 368.859 323.343 369.362C323.343 375.277 327.466 401.135 334.67 408.338C335.824 409.492 343.224 409.161 343.432 409.026C343.641 408.891 343.138 405.97 342.831 403.43C341.862 395.465 340.499 381.07 341.15 369.448C341.334 366.196 342.389 366.257 342.328 369.509C342.144 381.033 343.69 395.305 344.66 403.209C345.175 407.443 345.347 408.927 345.236 409.504C345.101 410.167 344.549 410.646 343.604 410.928C342.794 411.173 341.604 411.296 340.303 411.296L340.291 411.284Z" fill="#0E141B"/>
<path d="M349.863 408.068C348.206 406.693 344.574 397.587 342.438 388.187C341.677 384.812 342.303 378.872 342.365 379.375C343.199 387.745 349.605 405.466 351.041 406.656C352.367 407.761 356.466 407.466 357.558 406.975C357.46 406.509 352.98 392.224 353.483 380.639C353.582 378.32 354.293 378.209 354.477 380.517C355.349 391.046 359.141 405.711 359.264 406.178C359.583 407.479 359.926 408.227 357.68 408.865C356.122 409.307 352.011 409.847 349.863 408.068Z" fill="#0E141B"/>
<path d="M364.111 406.668C363.375 406.668 362.565 406.484 361.583 405.895C360.442 405.208 357.963 400.336 356.024 395.439C354.551 391.72 354.735 384.05 354.735 384.566C354.735 388.444 361.534 403.563 362.958 404.631C364.136 405.343 364.627 405.171 365.768 404.876L365.94 406.374C365.363 406.521 364.762 406.668 364.111 406.668Z" fill="#0E141B"/>
<path d="M368.223 393.514C368.223 392.507 366.578 385.5 365.952 381.511C365.424 378.112 366.222 377.928 367.069 381.07C367.879 384.064 369.217 388.494 369.487 389.82C369.83 391.464 368.21 394.017 368.21 393.501L368.223 393.514Z" fill="#0E141B"/>
<path d="M455.196 332.582C461.688 322.862 469.64 316.309 479.875 308.479C482.146 306.737 492.013 299.336 493.792 297.974C509.28 286.193 514.25 281.579 520.46 274.596C520.803 274.215 522.448 276.007 522.104 276.387C515.796 283.493 510.765 288.156 495.081 300.085C493.313 301.423 483.324 308.933 480.968 310.737C471.015 318.371 464.928 323.132 456.116 333.429C454.766 335 453.92 334.472 455.184 332.582H455.196Z" fill="#0E141B"/>
<path d="M544.488 161.678C529.443 145.062 508.703 113.596 506.089 98.5744C504.481 89.3334 510.961 78.1288 514.556 74.754C516.189 73.2199 517.33 73.674 518.017 75.1467C523.982 88.008 546.661 127.819 560.626 141.294C562.7 143.294 561.719 143.994 559.608 142.079C544.832 128.727 525.761 96.9176 516.287 75.6744C514.164 77.0857 506.69 91.076 507.917 98.2921C509.758 109.092 533.063 145.921 547.323 162.341C547.655 162.721 544.685 161.887 544.488 161.678Z" fill="#0E141B"/>
<path d="M550.146 164.231C530.781 151.603 507.635 122.566 504.309 118.197C503.352 116.946 502.53 116.479 501.303 118.517C498.308 123.536 493.608 139.428 494.946 146.694C495.915 151.983 521.061 176.098 535.726 187.278C518.729 179.571 495.522 161.347 494.516 160.709C493.154 159.849 492.197 159.825 491.644 161.629C490.037 166.98 487.03 183.547 489.853 191.524C491.804 197.022 522.288 211.97 536.855 215.958C538.758 216.486 543.85 215.59 543.347 215.529C531.946 214.068 493.277 194.261 491.497 190.702C489.558 186.824 492.221 165.605 493.313 162.132C504.076 171.164 519.551 182.799 538.205 190.395C545.2 193.242 546.047 192.322 539.518 187.315C525.945 176.883 497.707 150.547 496.725 146.289C495.572 141.306 501.033 122.517 502.849 119.363C508.31 126.739 528.412 153.149 549.692 165.446C552.466 167.041 552.846 166.01 550.134 164.243L550.146 164.231Z" fill="#0E141B"/>
<path d="M589.969 264.029C584.054 301.373 573.561 318.542 568.64 323.402C566.861 325.157 565.867 324.948 564.075 323.966C561.105 322.334 557.264 318.837 555.153 315.854C554.515 314.946 554.601 314.026 554.981 313.425C577.01 279.48 575.28 250.137 575.28 249.854C575.243 248.725 575.071 247.866 573.709 249.228C561.277 261.66 524.301 277.001 523.012 276.178C521.724 275.356 504.456 254.874 503.732 252.481C520.95 252.321 541.138 248.014 554.601 239.889C559.964 236.649 559.473 235.754 553.595 237.631C530.044 245.166 505.966 241.976 504.911 241.374C503.855 240.773 493.853 216.511 494.123 215.958C494.406 215.406 502.346 216.155 509.476 216.584C519.06 217.161 530.891 217.664 545.446 216.621C548.637 216.388 548.514 215.418 545.299 215.418C531.431 215.418 518.876 214.891 509.353 214.326C500.812 213.811 496.357 213.59 494.172 214.056C492.822 214.351 492.172 214.977 492.368 216.535C493.08 222.328 501.879 241.718 503.953 242.957C504.997 243.583 511.869 244.97 521.564 244.97C528.706 244.97 537.371 244.209 546.354 241.853C534.99 246.651 520.963 249.584 504.469 250.615C502.162 250.763 501.057 251.057 502.456 253.855C505.389 259.758 516.483 273.294 520.41 276.755C521.883 278.056 522.472 278.4 524.878 277.982C534.155 276.424 561.694 263.121 573.39 252.051C572.617 260.507 569.45 284.474 553.398 312.48C552.932 313.29 552.539 314.664 553.484 316.64C555.092 320.027 559.596 323.831 562.983 325.672C565.658 327.133 567.094 327.28 569.843 324.838C576.249 319.131 587.122 300.306 591.283 264.311C591.602 261.587 590.387 261.341 589.957 264.017L589.969 264.029Z" fill="#0E141B"/>
<path d="M599.615 212.277C594.302 169.79 586.828 145.958 566.75 109.362C563.105 102.71 559.326 95.9482 555.681 89.4194C545.838 71.8087 535.738 55.278 529.492 42.0362C528.117 39.1277 526.829 39.3732 525.503 42.4535C521.601 51.5104 519.355 64.1876 520.263 67.3539C521.184 70.5938 532.732 104.944 549.569 130.274C549.741 130.531 553.288 133.305 553.018 132.875C541.543 114.32 522.178 67.6361 522.03 66.8507C521.883 66.0653 524.117 50.2586 527.246 43.0426C533.456 56.3825 542.795 73.1096 552.662 90.7816C556.307 97.3104 560.074 104.06 563.719 110.712C583.612 146.988 591.295 170.895 596.56 213.025C601.628 253.561 589.074 313.51 578.164 331.931C577.513 333.023 577.329 333.244 576.249 333.49C574.077 333.993 571.684 334.177 570.42 334.14C570.702 333.477 579.918 315.069 582.103 302.245C582.348 300.821 581.023 300.318 580.692 301.717C578.102 312.529 569.131 332.508 568.886 333.072C567.659 335.895 569.07 335.981 571.021 335.981C573.23 335.981 578.581 335.834 579.477 334.484C590.816 317.401 604.868 254.223 599.628 212.264L599.615 212.277Z" fill="#0E141B"/>
<path d="M463.627 361.421C461.369 361.102 459.282 360.022 458.264 358.169C457.061 355.96 459.282 345.577 459.687 344.178C460.412 341.748 461.283 342.043 460.927 344.546C460.78 345.565 459.516 356.72 459.835 357.236C460.154 357.751 462.056 359.212 463.823 359.457C464.326 359.531 463.664 361.433 463.615 361.421H463.627Z" fill="#0E141B"/>
<path d="M475.285 386.1C474.488 385.904 463.811 381.658 462.964 379.559C462.228 377.718 463.05 358.095 464.4 351.259C464.952 348.449 465.615 348.572 465.541 351.308C465.284 360.476 464.474 377.154 464.915 378.7C465.639 379.817 474.328 383.781 475.74 384.137C476.23 384.259 475.359 386.112 475.285 386.1Z" fill="#0E141B"/>
<path d="M475.04 387.524C473.997 386.26 474.598 361.826 475.175 355.727C475.384 353.53 476.279 353.702 476.316 355.776C476.414 363.287 476.341 386.064 476.611 386.432C476.881 386.8 488.012 387.745 488.429 387.426C488.846 387.107 492.675 364.379 493.706 352.573C493.939 349.984 494.811 350.229 494.896 352.88C495.252 363.593 491.35 387.893 489.398 389.046C487.239 390.322 476.304 389.083 475.04 387.537V387.524Z" fill="#0E141B"/>
<path d="M499.793 384.457C499.327 382.616 498.504 378.431 496.713 369.129C495.878 364.784 495.019 360.342 494.406 357.372C494.148 356.157 494.565 351.089 494.688 351.579C495.228 353.739 497.694 362.293 498.934 368.724C500.137 374.958 501.413 384.408 501.707 384.469C501.99 384.518 514.078 381.426 514.299 381.057C514.52 380.689 511.574 360.501 510.004 353.052C509.071 348.597 509.967 348.303 512.09 352.132C517.612 362.084 526.964 377.842 527.406 377.94C527.847 378.038 540.66 370.491 541.15 369.301C541.641 368.11 535.53 353.101 532.584 347.996C530.621 344.584 531.48 343.222 534.008 346.707C536.647 350.34 544.108 361.287 544.489 361.508C544.869 361.729 548.943 358.047 549.164 357.433C549.385 356.82 535.039 331.588 534.045 329.44C532.707 326.544 533.554 326.372 535.198 329.207C535.751 330.164 552.22 355.457 551.226 357.814C550.576 359.36 547.655 362.244 545.47 363.103C544.832 363.349 543.887 363.827 543.016 362.624C542.304 361.643 540.745 359.237 538.806 356.513C541.371 362.17 543.593 368.147 542.856 369.976C541.764 372.712 534.757 376.799 528.657 379.585C527.946 379.916 527.025 380.37 526.092 379.253C524.497 377.351 521.012 371.951 512.703 357.053C514.679 366.294 517.023 380.922 515.673 382.272C514.385 383.561 505.303 386.015 502.014 386.261C501.069 386.334 500.223 386.31 499.756 384.445L499.793 384.457Z" fill="#0E141B"/>
<path d="M560.406 356.439C555.178 353.482 545.593 344.805 539.371 337.417C537.346 335 535.469 329.698 535.751 330.115C541.654 338.853 559.179 353.838 561.731 355.163C563.56 354.034 572.089 345.554 573.12 343.824C572.506 342.425 560.259 324.679 558.639 322.188C558.356 321.758 561.314 322.887 561.964 323.869C563.339 325.894 575.133 340.62 575.01 343.86C574.899 346.83 567.045 353.887 563.363 356.182C562.308 356.844 561.461 357.028 560.406 356.427V356.439Z" fill="#0E141B"/>
<path d="M571.88 328.508C571.205 327.686 570.506 326.864 569.806 326.054C569.389 325.575 568.96 325.084 568.53 324.605L566.333 325.575C566.996 326.324 567.646 327.06 568.285 327.784C569.193 328.815 570.052 329.809 570.862 330.729L571.88 328.496V328.508Z" fill="#0E141B"/>
<path d="M585.981 317.191C587.92 321.229 589.16 324.297 589.086 325.402C588.927 327.844 581.575 336.545 578.495 337.612C577.906 337.809 577.182 337.772 576.728 337.33C576.397 336.999 575.587 336.103 574.458 334.827L576.568 334.397C577.28 335.293 577.759 335.857 577.894 335.882C578.556 336.029 587.221 326.138 587.257 325.181C587.257 324.972 586.325 322.972 584.815 319.94L585.981 317.191Z" fill="#0E141B"/>
<path d="M567.941 284.167C567.45 283.332 567.033 282.657 566.738 282.166C564.222 278.092 563.425 279.16 565.474 282.706C565.793 283.271 566.431 284.437 567.29 286.044L567.941 284.167Z" fill="#0E141B"/>
<path d="M555.534 310.651C554.319 309.424 553.202 308.32 552.245 307.424C549.692 305.018 549.017 305.423 551.251 308.271C552.171 309.436 553.263 310.75 554.478 312.173L555.534 310.664V310.651Z" fill="#0E141B"/>
<path d="M410.979 576.1C410.623 573.695 412.525 572.664 414.157 572.087C414.808 571.854 415.814 571.498 416.501 569.043C417.385 565.902 417.127 559.41 416.452 556.722C412.758 541.946 399.161 525.992 392.006 518.838C391.527 518.359 392.337 515.757 392.828 516.224C400.658 523.685 414.98 540.817 418.809 556.108C419.52 558.943 420.085 565.362 418.87 569.706C417.839 573.376 416.354 573.339 414.918 574.001C414.464 574.21 413.151 574.922 412.869 575.13C412.979 575.769 411.065 576.677 410.979 576.1Z" fill="#0E141B"/>
<path d="M426.27 535.344C423.791 530.496 418.821 521.047 413.274 514.125C409.69 509.658 407.297 505.289 405.542 502.111C404.475 500.172 403.272 497.975 402.732 497.705C401.124 496.907 394.191 495.778 391.11 496.809C389.625 497.484 381.599 507.535 380.937 509.204C380.703 510.137 380.47 514.273 380.667 519.439C380.74 521.292 383.109 523.305 384.937 522.851C386.717 522.409 389.012 521.685 390.153 520.752C391.478 519.685 390.57 515.966 390.803 514.518C391.135 512.493 396.007 510.53 397.59 510.53C399.676 510.53 403.395 514.248 405.641 517.206C407.727 519.955 406.892 520.556 404.573 518.322C401.554 515.426 398.424 513.082 397.565 512.972C396.522 512.972 393.479 514.432 393.209 515.07C392.939 515.708 393.663 520.605 391.491 522.36C389.662 523.833 386.25 524.753 384.41 525.158C382.115 525.673 378.654 523.133 378.507 519.488C378.323 514.776 377.881 510.039 378.273 508.492C378.642 507.032 387.649 494.919 390.214 494.072C393.896 492.845 401.652 494.404 403.837 495.496C405.064 496.11 406.058 497.914 407.702 500.92C409.408 504.025 411.752 508.271 415.201 512.579C420.821 519.599 425.976 528.361 427.878 534.681C428.823 537.835 427.731 538.154 426.282 535.332L426.27 535.344Z" fill="#0E141B"/>
<path d="M367.597 528.177C366.259 527.183 364.344 525.269 363.62 523.624C363.559 523.489 357.362 509.769 359.804 507.327C359.926 507.204 372.444 494.883 374.629 494.441C375.598 494.257 385.281 496.883 387.87 497.214C388.545 497.3 386.594 499.522 386.152 499.448C384.115 499.141 377.267 497.374 376.457 497.165C375.254 496.846 375.181 496.454 373.622 497.705C370.8 499.988 364.43 506.05 362.037 508.444C361.571 510.162 364.59 519.795 365.854 522.63C366.517 524.115 368.762 526.447 369.45 526.852C370.64 526.852 374.678 525.809 375.254 525.121C375.586 524.397 374.923 520.176 374.641 518.347C374.42 516.862 373.647 514.248 375.021 513.046C376.163 512.039 377.954 512.002 378.74 512.027L378.691 514.481C377.365 514.445 376.862 514.58 376.739 514.801C376.604 515.021 376.874 516.715 377.071 517.991C377.733 522.348 378.065 525.085 377.059 526.287C376.04 527.515 372.493 528.533 370.284 528.803C369.364 528.914 368.505 528.852 367.584 528.177H367.597Z" fill="#0E141B"/>
<path d="M356.441 534.791C354.809 534.877 352.109 532.754 350.906 531.048C349.605 529.219 346.709 518.187 346.709 517.033C346.709 514.652 357.656 508.344 360.307 507.313C360.945 507.068 361.362 509.117 360.749 509.412C357.57 510.897 350.415 515.965 349.237 517.352C349.507 519.414 351.876 528.851 352.637 529.919C353.569 531.22 355.386 532.373 356.097 532.619C357.398 533.048 361.055 531.686 361.89 529.833C362.148 529.195 361.264 526.2 360.97 525.059C360.663 523.869 360.491 523.169 360.491 522.678C360.491 521.758 361.043 520.469 363.694 519.586C364.332 519.377 365.118 521.696 364.467 521.917C363.375 522.285 362.982 522.666 362.933 522.764C362.958 522.924 363.179 523.807 363.35 524.458C364.05 527.182 364.492 529.219 363.915 530.496C362.786 532.987 359.067 534.779 356.429 534.779L356.441 534.791Z" fill="#0E141B"/>
<path d="M425.607 530.385C429.94 528.226 443.869 519.132 444.887 517.708C445.292 516.739 445.145 514.174 444.703 511.057C444.605 510.382 447.219 509.731 447.317 510.394C447.759 513.511 447.796 517.046 447.022 518.85C446.078 521.059 429.13 530.778 426.626 532.03C426.454 532.116 424.994 530.68 425.607 530.385Z" fill="#0E141B"/>
<path d="M417.017 585.254C416.133 585.254 415.397 584.824 414.697 584.297C414.157 583.879 415.274 582.321 415.814 582.738C416.649 583.389 419.189 582.456 420.551 581.977C422.576 581.265 425.362 580.59 426.614 580.161C428.688 579.474 429.645 579.155 429.424 573.203C429.215 567.373 429.387 563.704 430.958 557.396C432.124 552.708 432.909 546.879 433.192 544.694C433.4 542.976 433.437 543.16 434.554 542.35C435.953 541.319 455.625 529.243 456.349 527.844C457.123 525.5 457.123 516.419 457.123 511.547H459.577C459.577 518.812 460.142 526.163 459.295 528.716C458.73 530.409 436.419 543.614 435.253 544.547C435.045 546.339 434.824 552.806 433.511 558.046C432.001 564.097 431.67 567.41 431.879 573.117C432.099 579.228 431.682 581.29 427.939 582.542C426.626 582.984 423.03 583.671 421.386 584.272C419.999 584.788 418.563 585.242 417.005 585.242L417.017 585.254Z" fill="#0E141B"/>
<path d="M293.865 614.095C292.036 613.8 289.938 612.414 288.306 609.898C287.827 609.162 287.422 607.898 286.87 606.143C286.575 605.21 285.9 603.676 284.01 600.571C282.992 598.89 282.611 597.245 283.2 595.368C283.949 592.974 299.056 582.384 299.866 581.966C300.737 581.537 302.431 581.23 305.254 580.727C309.009 580.052 314.102 579.831 320.213 578.088C332.731 574.517 359.129 555.642 361.019 553.752C362.823 551.948 368.443 536.927 370.223 529.809C370.382 529.147 372.53 530.496 372.37 531.147C370.701 537.835 364.823 553.127 362.381 555.556C360.381 557.557 334.007 576.37 320.827 580.138C314.593 581.917 309.168 582.899 305.573 583.537C303.339 583.942 301.4 584.286 300.848 584.568C298.737 585.623 286.219 594.373 285.557 596.153C285.397 596.595 285.765 597.932 286.588 599.466C287.839 601.823 288.698 604.67 289.005 605.615C289.447 607.002 289.864 608.315 290.171 608.781C291.742 611.223 294.368 612.34 295.031 612.156C295.706 611.972 299.154 609.689 299.375 609.014C299.596 608.352 299.203 605.725 298.406 603.86C297.853 602.584 297.056 600.829 297.657 599.319C298.123 598.153 301.118 595.417 303.879 593.846C306.505 592.349 323.367 590.63 324.631 590.913C328.915 591.895 336.977 597.773 336.916 599.638C336.867 600.816 335.222 601.995 334.142 602.903C333.934 603.075 333.762 603.369 333.934 604.253C334.069 604.915 332.228 605.946 332.093 605.284C331.713 603.467 331.786 602.166 332.694 601.283C333.418 600.571 334.646 599.724 334.94 599.344C333.443 597.957 325.797 593.22 324.509 592.999C323.085 592.999 306.027 594.84 304.873 595.662C304.174 596.165 300.259 599.7 299.915 600.289C299.743 600.731 300.087 601.393 300.652 602.854C301.216 604.326 302.051 608.56 301.106 610.119C300.664 610.843 298.099 612.806 296.258 613.739C295.387 614.181 294.38 614.156 293.865 614.07V614.095Z" fill="#0E141B"/>
<path d="M337.53 611.346C336.855 611.346 337.125 609.53 337.8 609.53C338.941 609.53 340.463 607.542 340.671 607.296C340.88 607.051 341.592 605.787 342.23 604.474C342.684 603.516 343.224 602.4 343.899 601.148C345.507 598.141 345.58 597.086 345.065 594.447C344.746 593.306 340.119 588.79 336.02 585.268C334.989 584.384 334.891 584.249 336.081 583.353C338.217 581.745 346.28 577.119 354.821 572.21C362.356 567.878 371.732 562.49 372.64 561.594C373.242 560.858 380.777 540.314 382.311 537.013C382.556 536.498 386.422 534.289 386.091 534.89C384.594 537.676 375.537 562.343 374.727 563.263C373.905 564.208 368.394 567.215 356.22 574.21C349.311 578.186 341.309 582.175 338.119 584.237C341.273 587.01 347.077 591.98 347.47 593.981C348.133 597.319 347.544 598.902 345.752 602.252C345.102 603.467 344.586 604.559 344.132 605.492C343.322 607.186 342.917 608.106 342.095 608.99C341.273 609.873 339.677 611.358 337.517 611.358L337.53 611.346Z" fill="#0E141B"/>
<path d="M273.628 613.886C273.027 613.886 272.389 613.813 271.726 613.665C268.425 612.954 267.725 611.395 267.038 607.554C266.731 605.811 265.59 595.92 267.786 593.993C269.247 592.717 280.844 585.304 284.722 583.218C287.434 581.758 296.589 583.009 298.737 583.427C299.4 583.549 297.583 585.157 296.761 585.096C292.945 584.826 287.373 584.801 286.121 585.476C282.255 587.55 270.928 594.926 269.75 595.944C268.474 597.061 269.198 606.155 269.198 607.1C269.198 610.192 270.732 611.321 272.303 611.665C274.266 612.082 275.543 611.726 277.199 610.315C277.886 609.726 277.531 604.793 277.482 603.038C277.432 601.602 277.236 599.97 278.23 598.988C279.04 598.178 281.666 597.712 283.777 597.392C284.133 597.343 284.747 599.687 284.109 599.786C283.384 599.896 280.402 600.399 279.936 600.743C279.776 600.988 279.875 602.191 279.936 602.841C279.973 603.32 280.832 609.972 278.733 611.788C277.077 613.224 275.469 613.886 273.628 613.886Z" fill="#0E141B"/>
<path d="M266.289 620.61C265.185 620.61 264.092 620.304 263.197 619.494C260.754 617.297 260.067 615.554 259.773 613.468C259.368 610.498 258.754 606.669 258.864 605.319C258.987 603.626 264.669 597.17 267.234 595.317C267.786 594.925 268.609 597.551 268.056 597.944C265.479 599.809 261.429 604.951 261.319 605.454C261.208 605.957 261.932 611.136 261.957 613.222C261.969 614.585 262.976 616.413 264.878 618.119C265.958 619.089 268.069 618.389 268.952 617.726C269.934 616.99 270.057 613.529 270.13 612.498C270.179 611.823 272.634 611.995 272.585 612.67C272.388 615.407 271.983 618.119 270.327 619.359C269.333 620.107 267.835 620.623 266.277 620.623L266.289 620.61Z" fill="#0E141B"/>
<path d="M411.102 585.107C411.102 585.107 406.205 585.009 403.947 583.978C401.677 582.947 402.671 582.162 403.959 581.315C406.917 579.388 409.298 577.228 410.819 575.707C411.323 575.204 411.948 574.934 412.611 574.934C414.489 574.934 416.109 577.044 416.366 578.443C416.403 578.628 417.189 583.107 415.066 584.383C414.268 584.862 412.93 585.107 411.114 585.107H411.102ZM404.45 582.641C405.714 582.984 409.015 583.426 411.188 583.426C413.752 583.426 414.538 583.217 414.661 580.886C414.697 580.223 414.685 579.45 414.526 578.75C414.305 577.756 412.967 576.222 412.096 576.995C410.5 578.394 407.322 580.702 404.438 582.628L404.45 582.641Z" fill="#0E141B"/>
<path d="M333.738 612.572C333.738 612.572 329.7 612.511 327.614 611.652C325.552 610.805 325.932 610.167 327.258 609.16C328.988 607.86 329.933 607.013 331.05 605.822C331.418 605.43 331.798 605.037 332.203 604.62C332.694 604.129 333.32 603.871 333.995 603.871C335.652 603.871 337.358 605.43 337.984 606.866C338.659 608.387 338.757 610.989 337.223 611.922C336.499 612.351 335.321 612.572 333.713 612.572H333.738ZM327.871 610.351C329 610.633 332.068 610.891 333.811 610.891C334.584 610.891 335.137 610.829 335.542 610.768C336.204 610.645 336.646 610.486 336.707 609.504C336.744 608.866 336.646 608.068 336.413 607.528C335.947 606.461 334.265 605.037 333.504 605.798C333.112 606.191 332.743 606.583 332.388 606.964C331.394 608.007 329.97 609.381 327.884 610.363L327.871 610.351Z" fill="#0E141B"/>
<path d="M390.472 532.852C387.6 531.293 383.747 527.514 382.397 524.716C382.176 524.261 384.275 523.783 384.495 524.249C385.686 526.74 389.098 530.275 391.343 531.625C390.668 529.858 390.03 526.397 390.251 522.212C390.263 521.93 392.202 520.678 392.166 521.193C391.822 525.661 392.448 529.121 392.804 530.827C393.552 534.447 390.987 533.134 390.472 532.852Z" fill="#0E141B"/>
<path d="M303.327 617.015C300.639 617.015 295.742 615.26 293.533 613.886C293.104 613.616 295.264 612.597 295.693 612.867C297.792 614.181 301.756 615.629 303.891 615.653C303.83 615.567 301.584 613.064 300.013 610.302C299.829 609.971 300.872 607.995 301.105 608.437C302.468 610.977 303.719 612.671 304.542 613.788C306.088 615.886 306.272 617.015 303.327 617.015Z" fill="#0E141B"/>
<path d="M272.094 625.028C269.566 624.243 265.921 622.34 264.362 619.911C264.092 619.481 266.387 619.555 266.706 619.898C268.191 621.432 270.793 623.101 272.572 623.764C271.664 622.255 270.793 620.205 270.339 617.702C270.179 616.83 271.836 614.327 271.861 614.83C272.045 618.929 273.284 621.678 273.886 623.003C274.99 625.445 273.542 625.482 272.082 625.028H272.094Z" fill="#0E141B"/>
<path d="M277.126 620.526C274.843 618.93 272.18 615.678 271.247 613.187C271.075 612.708 272.793 612.07 272.965 612.549C273.775 614.709 276.303 618.132 278.107 619.507C278.107 619.409 277.248 613.236 277.739 609.542C277.801 609.039 279.629 609.284 279.568 609.787C279.114 613.26 279.531 617.212 279.74 619.286C280.022 622.256 277.653 620.881 277.138 620.526H277.126Z" fill="#0E141B"/>
<path d="M376.236 535.883C373.401 534.46 369.855 531.183 368.419 528.508C368.173 528.066 369.793 527.182 370.039 527.636C371.352 530.066 374.923 533.527 377.23 534.779C376.494 533.036 375.733 529.796 375.696 525.832C375.696 525.391 377.562 524.016 377.549 524.519C377.414 528.999 378.212 532.128 378.654 533.822C379.476 537.037 377.537 536.522 376.248 535.883H376.236Z" fill="#0E141B"/>
<path d="M363.829 541.246C360.786 540.055 356.576 536.926 354.883 534.373C354.6 533.956 356.588 533.195 356.871 533.612C358.405 535.907 362.381 539.172 364.799 540.202C364.111 538.632 362.798 535.257 362.332 531.256C362.283 530.826 364.013 529.305 364.05 529.808C364.332 534.275 365.424 537.331 366.014 538.963C367.143 542.105 365.032 541.712 363.817 541.233L363.829 541.246Z" fill="#0E141B"/>
<path d="M268.805 588.642C271.284 587.747 275.739 586.9 278.009 587.133C278.684 587.207 278.439 589.636 277.764 589.575C275.935 589.391 271.48 589.514 269.357 590.287C269.222 590.336 268.179 588.863 268.817 588.642H268.805Z" fill="#0E141B"/>
<path d="M374.604 561.63C388.594 578.848 399.578 602.153 405.64 623.998C407.518 630.748 409.064 637.841 410.562 644.689C417.851 678.033 425.914 713.193 473.31 738.682C495.657 750.697 516.459 754.71 533.787 755.569C515.256 757.643 492.675 757.851 464.744 751.838C420.281 742.29 389.674 722.875 373.745 694.134C360.847 670.853 355.582 652.322 351.655 631.68C348.795 616.659 347.716 612.793 343.837 606.044C343.494 605.455 341.96 608.044 342.279 608.645C345.494 614.757 346.464 617.518 349.262 632.208C353.238 653.083 358.503 672.449 371.56 696.024C387.846 725.416 418.244 745.211 463.43 754.906C480.869 758.649 496.222 760.011 509.832 760.011C547.066 760.011 577.55 753.409 601.051 735.908C630.468 714.003 642.568 679.039 633.168 640.799C623.681 602.239 592.927 589.353 563.621 574.737C554.466 570.172 545.814 565.852 537.984 560.98C504.935 540.387 486.748 516.469 475.789 499.766C475.42 499.202 473.371 500.551 473.739 501.116C484.833 518.015 503.438 542.891 536.904 563.741C544.82 568.675 553.521 573.019 562.737 577.609C591.54 591.98 621.313 606.841 629.744 641.339C638.838 678.585 627.658 712.162 599.075 733.442C579.109 748.316 535.358 768.786 474.242 735.921C427.853 710.971 420.674 676.67 413.495 643.879C411.985 636.994 410.427 629.876 408.537 623.053C402.253 600.435 390.938 576.664 375.856 558.796L374.604 561.655V561.63ZM365.142 546.818C358.012 540.559 350.415 535.908 342.561 533.588C336.609 531.821 323.257 529.907 308.653 533.294C294.233 536.644 280.905 543.676 267.222 555.789C251.293 569.89 244.015 586.126 238.738 597.416C234.271 606.976 228.552 616.144 224.6 616.23C220.649 616.303 211.371 614.794 204.253 611.689C193.343 606.915 186.041 598.472 182.556 588.114C178.665 576.566 180.359 564.011 182.912 555.531C186.078 545.026 185.587 542.277 178.69 553.457C173.425 561.999 166.32 578.21 164.368 595.882C162.699 610.989 166.847 625.777 175.892 636.307C183.918 645.646 195.122 651.39 207.468 651.574C222.318 651.782 247.316 645.02 260.509 613.738C260.754 613.149 259.92 609.136 259.687 609.774C252.642 628.723 232.835 649.929 207.554 648.923C195.908 648.444 185.317 643.327 177.733 634.515C169.13 624.501 165.264 611.051 166.86 596.619C168.995 577.265 175.499 563.459 180.261 555.617C177.635 564.723 176.15 577.511 180.04 589.071C183.758 600.116 191.699 608.891 203.284 613.947C218.747 620.709 233.044 620.464 245.353 615.064C258.545 609.284 268.363 597.122 274.499 579.327C283.164 554.193 307.696 526.998 341.727 537.086C349.446 539.381 356.846 543.946 363.731 550.119L365.142 546.83V546.818ZM272.352 578.37C266.436 595.502 256.68 607.48 244.138 612.977C239.536 614.99 234.651 616.095 229.522 616.303C234.222 612.83 237.278 606.314 240.947 598.459C246.42 586.752 253.244 572.172 268.793 558.403C282.022 546.695 295.19 539.344 309.07 536.043C306.1 537.356 303.167 538.951 300.332 540.854C287.717 549.309 277.776 562.637 272.352 578.37Z" fill="#0E141B"/>
<path d="M476.12 719.833C466.425 719.833 455.957 718.532 444.924 715.943C444.261 715.783 441.979 712.948 442.629 713.095C453.919 715.758 467.321 717.084 476.378 717.084C511.955 717.084 530.044 698.97 535.591 680.267C544.832 649.083 533.517 617.286 503.524 587.649C479.409 563.804 470.671 552.133 456.914 529.662C456.767 529.417 458.203 527.073 458.558 527.65C472.438 550.402 481.728 561.791 505.942 585.722C536.622 616.047 547.802 649.047 538.291 681.151C533.996 695.644 523.479 707.205 508.69 713.685C499.327 717.783 488.331 719.845 476.12 719.845V719.833Z" fill="#0E141B"/>
<path d="M190.238 619.764C165.252 592.766 181.611 552.783 181.77 552.378C181.967 551.911 183.108 552.255 182.912 552.733C182.752 553.126 167.62 592.14 191.809 618.292C204.228 631.705 220.072 632.515 228.626 631.939C240.898 631.141 251.661 626.048 254.545 621.973C254.839 621.556 252.618 627.005 250.237 628.404C245.242 631.337 237.523 633.608 228.527 634.283C217.777 635.093 201.578 632.037 190.214 619.777L190.238 619.764Z" fill="#0E141B"/>
<path d="M179.794 627.888C165.411 610.928 169.535 576.381 173.56 565.999C173.744 565.52 176.064 563.041 175.88 563.52C171.965 573.62 167.657 610.339 181.549 626.722C194.116 641.535 215.138 647.131 233.854 642.983C234.357 642.872 229.006 645.989 227.239 646.137C206.572 647.83 190.042 639.988 179.794 627.888Z" fill="#0E141B"/>
<path d="M233.645 616.046C235.339 615.027 238.259 608.682 242.125 599.478C246.85 588.212 259.245 564.183 266.105 558.403C266.498 558.072 269.21 557.36 268.817 557.691C262.276 563.202 248.654 589.366 244.126 600.178C239.143 612.057 237.143 615.751 235.228 616.893C235.081 616.978 233.203 616.291 233.645 616.034V616.046Z" fill="#0E141B"/>
<path d="M248.274 611.849C264.694 549.261 300.909 536.154 307.561 534.497C308.052 534.375 309.61 535.307 309.119 535.43C302.652 537.05 267.86 549.089 250.777 610.72C250.667 611.125 248.139 612.353 248.274 611.862V611.849Z" fill="#0E141B"/>
<path d="M358.368 571.963C374.125 591.304 379.66 610.989 382.704 624.734C383.428 627.998 386.361 643.51 387.539 648.615C391.405 665.367 398.743 689.887 414.587 709.94C439.671 741.688 475.408 752.978 494.725 756.942C495.228 757.041 488.49 757.2 485.3 756.353C464.842 750.904 434.603 738.964 412.587 711.106C396.62 690.893 389.11 666.336 385.232 649.388C384.029 644.111 381.059 628.207 380.372 625.053C377.378 611.406 372.26 592.175 356.687 573.006L358.38 571.975L358.368 571.963Z" fill="#0E141B"/>
<path d="M349.986 562.76C326.362 543.616 292.405 554.035 284.023 558.367C283.569 558.6 282.955 560.699 283.409 560.465C291.546 556.268 325.086 545.493 347.973 563.988L349.986 562.76Z" fill="#0E141B"/>
<path d="M339.959 581.979C354.134 594.803 362.884 616.574 370.309 652.409C377.611 687.655 389.932 723.257 435.008 743.96C435.474 744.168 426.368 741.579 422.993 739.628C385.796 718.151 374.555 685.863 367.768 653.108C360.442 617.752 352.048 596.153 338.266 583.5L339.947 581.979H339.959Z" fill="#0E141B"/>
<path d="M330.24 574.614C307.156 561.581 287.189 569.349 274.303 576.663C273.861 576.909 273.8 578.934 274.242 578.676C286.747 571.595 305.953 563.63 328.227 576.197L330.24 574.614Z" fill="#0E141B"/>
<path d="M603.837 654.249C602.266 632.061 584.337 620.819 559.682 604.019C547.839 595.956 534.511 586.936 520.263 574.725C497.314 555.052 473.948 522.899 466.425 508.896C466.13 508.344 467.419 505.853 467.652 506.307C474.009 519.168 498.578 552.733 522.264 573.031C536.438 585.181 549.852 594.36 561.645 602.386C585.809 618.843 603.849 630.22 605.028 654.237C605.199 657.857 604.107 657.771 603.849 654.237L603.837 654.249Z" fill="#0E141B"/>
<path d="M458.301 725.992C456.791 725.415 451.367 721.807 451.833 721.991C480.526 733.183 510.102 733.233 530.498 721.071C545.041 712.407 554.527 698.257 556.528 682.229C560.663 649.131 547.729 622.242 510.409 586.334C471.383 548.781 461.737 533.244 457.429 522.985C457.233 522.518 458.387 521.021 458.583 521.487C462.805 531.563 473.027 547.222 511.82 584.53C549.618 620.905 563.449 648.849 559.228 682.597C557.154 699.177 547.409 714.407 532.376 723.353C511.525 735.773 483.753 735.773 458.301 725.967V725.992Z" fill="#0E141B"/>
<path d="M494.639 746.229C493.755 746.229 487.177 743.652 488.036 743.677C565.352 745.726 590.461 707.854 598.339 687.335C599.947 683.15 600.781 684.426 599.407 688.255C595.971 697.803 589.859 711.18 575.942 722.311C555.779 738.424 529.492 746.242 494.639 746.242V746.229Z" fill="#0E141B"/>
<path d="M445.096 444.025C455.515 398.802 445.317 367.336 424.024 346.67C421.3 344.031 422.208 343.209 424.748 345.393C437.266 356.156 461.234 385.892 447.059 442.626C446.642 444.283 444.678 445.792 445.083 444.025H445.096Z" fill="#0E141B"/>
<path d="M387.588 287.763C386.962 287.836 386.005 287.284 385.858 285.959C385.71 284.633 386.52 283.885 387.146 283.811C387.772 283.737 388.729 284.302 388.877 285.615C389.024 286.928 388.214 287.689 387.588 287.763Z" fill="white"/>
<path d="M388.656 290.561C388.778 291.592 388.496 293.102 387.576 293.212C386.655 293.31 386.042 291.911 385.931 290.88C385.809 289.849 386.103 288.34 387.011 288.23C387.919 288.131 388.545 289.53 388.656 290.561Z" fill="#0E141B"/>
</g>
<defs>
<clipPath id="clip0_42_71993">
<rect width="472.297" height="720" fill="white" transform="translate(164 40)"/>
</clipPath>
</defs>
</svg>
