<svg width="800" height="800" viewBox="0 0 800 800" fill="none" xmlns="http://www.w3.org/2000/svg">
<g clip-path="url(#clip0_42_72144)">
<path d="M387.801 216.059C393.033 200.521 416.536 142.703 426.827 117.047C408.933 132.947 361.364 188.957 345.464 217.866C338.656 195.462 318.608 135.476 315.167 125.546C314.994 144.337 315.11 199.379 316.006 219.254C308.779 212.388 294.382 198.353 287.343 192.036C288.904 196.372 292.763 209.497 293.732 212.518C276.863 197.818 224.466 150.668 210.2 138.916C219.957 159.326 239.831 202.328 247.781 221.667C212.368 206.852 72.3344 151.925 42.9487 144.929C67.7668 168.056 183.879 267.546 207.728 284.168C186.047 284.414 121.002 286.336 87.5115 290.427C118.343 301.99 237.837 342.708 259.518 348.49C244.095 362.944 196.165 412.335 182.433 429.911C206.529 420.762 296.146 384.134 318.058 372.817C315.962 402.549 313.621 434.594 326.485 453.284C336.603 467.984 343.353 482.915 344.076 494.956C320.776 500.983 269.275 528.259 249.4 545.965C257.524 543.797 286.432 538.015 300.887 536.209C291.13 549.391 256.078 598.001 249.212 611.01C266.384 598.189 302.867 572.894 321.484 563.31C312.089 584.992 292.214 656.902 291.13 670.446C304.688 648.952 344.438 588.606 354.368 575.235C357.259 596.194 370.99 670.446 374.604 683.816C381.108 665.026 397.731 591.309 398.627 567.459C410.74 587.146 449.217 650.745 459.509 667.917C464.741 606.124 422.477 514.339 382.351 490.677C384.881 486.702 390.85 475.139 392.831 469.906L413.963 392.388C414.512 388.774 415.408 380.102 415.77 376.661C448.292 398.892 534.122 457.606 550.744 470.441C535.018 446.057 486.972 375.765 471.795 356.425C541.176 343.778 684.996 324.264 715.9 320.839C693.134 315.78 575.086 295.009 551.727 292.349C584.727 266.331 729.516 158.646 756.502 139.856C715.307 150.22 550.051 200.318 499.692 221.046C509.087 208.514 540.41 161.783 547.145 151.419C523.773 164.905 467.646 204.9 443.551 222.723C435.298 224.891 416.695 231.207 412.358 232.653C420.308 220.367 439.099 194.71 445.43 186.225C433.693 191.284 400.983 207.184 387.786 216.03L387.801 216.059Z" fill="#FFE55F"/>
<path d="M330.807 277.764C327.83 272.98 320.212 257.413 317.827 250.691C316.714 256.618 315.514 269.453 316.208 270.985C316.902 272.517 325.387 278.487 328.639 280.106L330.807 277.764Z" fill="white"/>
<path d="M339.566 280.122L342.096 282.738C349.15 279.934 365.18 272.331 368.056 268.833C370.643 265.668 369.646 250.736 369.386 244.926C361.985 252.399 347.791 268.298 339.581 280.122H339.566Z" fill="white"/>
<path d="M341.127 282.13C347.748 280.15 356.839 273.053 358.111 270.885C359.383 268.716 359.022 260.622 358.111 257.312C361.248 253.814 368.056 246.356 369.371 244.91C369.848 250.634 370.065 267.126 368.041 268.818C363.589 272.547 349.251 280.439 341.127 282.13Z" fill="#0E141B"/>
<path d="M322.452 261.417C321.903 264.611 321.484 272.012 322.568 276.29C320.096 274.671 316.844 272.199 316.179 270.985C315.514 269.786 316.656 255.086 317.798 250.691C319.243 254.551 320.515 257.369 322.438 261.417H322.452Z" fill="#0E141B"/>
<path d="M355.524 293.332C355.524 292.363 354.136 291.655 352.749 290.918C347.574 288.142 339.537 280.771 337.687 277.793C336.126 275.264 333.597 274.064 330.937 277.07C310.282 300.443 263.421 368.682 250.961 400.539C249.877 403.315 249.877 405.237 250.484 405.353C251.091 405.468 253.751 402.823 255.789 399.571C277.586 364.765 318.058 308.566 355.524 293.332Z" fill="#F29A63"/>
<path d="M328.075 310.634C328.35 314.478 329.477 321.142 330.229 324.047C331.009 327.068 332.325 327.545 334.074 324.886C337.355 319.913 345.796 304.433 347.675 297.307C341.2 300.964 333.047 306.413 328.075 310.634Z" fill="#EE869A"/>
<path d="M238.559 200.29C227.675 194.682 191.207 176.035 182.462 172.566C187.247 179.663 199.793 197.818 206.066 204.901C216.3 209.02 242.665 219.427 247.796 221.653C245.339 216.132 241.537 206.39 238.574 200.29H238.559Z" fill="#0E141B"/>
<path d="M140.544 229.328C129.487 227.839 95.8227 224.703 82.7849 224.385C99.9422 233.621 175.033 274.382 194.662 284.616C199.605 284.616 203.132 284.24 207.728 284.182C193.505 273.067 153.9 240.718 140.544 229.343V229.328Z" fill="#0E141B"/>
<path d="M520.332 191.156C527.082 188.612 560.486 175.111 566.124 171.686C560.154 179.766 542.895 200.667 534.151 209.411C526.735 211.739 505.17 218.893 499.691 221.062C503.507 215.265 517.441 196.027 520.318 191.156H520.332Z" fill="#0E141B"/>
<path d="M642.746 223.649C656.305 222.391 723.141 216.248 736.7 213.357C704.177 228.896 587.993 281.654 556.916 293.218L552.407 292.134C569.203 278.951 626.124 235.95 642.746 223.663V223.649Z" fill="#0E141B"/>
<path d="M280.361 539.303C274.695 545.692 263.985 558.701 260.371 562.907C267.598 560.855 282.168 557.125 287.589 554.957C291.564 549.421 299.152 538.942 302.289 535.328C296.03 536.528 287.357 537.973 280.361 539.303Z" fill="#0E141B"/>
<path d="M295.654 578.922C293.009 587.479 285.897 610.968 283.483 617.226C289.988 612.644 305.049 601.327 310.224 595.661C313.722 584.574 318.289 570.365 321.484 563.326C314.922 566.998 303.112 574.109 295.64 578.922H295.654Z" fill="#0E141B"/>
<path d="M335.288 602.54C336.011 612.542 338.179 633.01 339.263 640.121C344.437 632.417 355.885 613.988 359.138 605.546C357.938 596.989 355.278 580.613 354.382 575.25C349.019 582.781 339.754 596.267 335.288 602.525V602.54Z" fill="#0E141B"/>
<path d="M391.298 613.252C396.719 620.594 410.927 641.914 417.793 650.471C418.993 640.353 422.014 618.195 423.214 607.47C416.825 597.236 402.616 573.979 398.641 567.475C397.557 576.986 393.698 601.442 391.298 613.252Z" fill="#0E141B"/>
<path d="M413.399 393.01C412.619 391.781 411.043 390.206 409.988 388.992C408.412 391.955 406.317 396.421 405.883 399.572C403.787 395.207 399.422 389.786 397.225 387.777C395.389 392.316 392.859 404.732 392.859 411.02C391.284 409.184 388.046 406.12 386.211 404.458C385.603 406.9 385.17 409.531 385.069 411.627C386.109 413.896 386.63 417.712 387.251 420.372C389.954 431.906 394.724 443.904 400.188 443.268C403.946 442.834 406.288 432.167 405.175 416.339C404.828 411.352 404.828 403.576 409.28 402.434C409.973 399.471 411.91 395.626 413.385 392.995L413.399 393.01Z" fill="#B7A690"/>
<path d="M377.379 435.824C375.283 435.911 372.652 436.258 370.73 436.605C371.785 440.276 373.968 447.099 375.803 450.148C373.794 450.495 372.132 450.495 370.817 450.322C372.913 453.213 375.529 456.783 377.018 458.705C374.922 459.226 372.826 459.587 371.164 459.587C374.575 464.487 381.657 471.555 391.443 472.784L392.932 470.341C390.229 460.989 384.895 446.217 377.379 435.824Z" fill="#B7A690"/>
<path d="M348.716 272.562C347.921 272.562 347.01 274.167 346.909 276.06C346.823 277.809 347.328 279.833 348.21 279.876C349.468 279.949 350.349 277.723 350.378 276.089C350.407 274.34 349.67 272.562 348.716 272.562Z" fill="#0E141B"/>
<path d="M348.644 273.357C348.311 273.357 347.964 273.719 347.964 274.095C347.964 274.572 348.268 274.904 348.687 274.875C348.976 274.861 349.338 274.543 349.323 274.109C349.309 273.69 349.077 273.357 348.644 273.357Z" fill="white"/>
<path d="M327.945 278.878C328.234 278.198 328.393 277.23 328.321 276.319C328.176 274.585 327.511 272.807 326.644 272.879C325.618 272.966 325.242 274.787 325.401 276.406C325.43 276.767 325.502 277.143 325.575 277.49L327.945 278.892V278.878Z" fill="#0E141B"/>
<path d="M326.731 274.976C327.034 274.976 327.425 274.716 327.352 274.166C327.28 273.661 326.948 273.458 326.63 273.487C326.326 273.516 326.023 273.863 326.051 274.268C326.08 274.643 326.355 274.976 326.731 274.961V274.976Z" fill="white"/>
<path d="M338.164 327.633C350.378 342.188 374.835 366.11 386.731 377.891C386.456 368.77 385.329 355.631 384.172 344.14C377.581 337.78 355.293 316.821 348.673 309.594C345.897 314.407 341.763 322.184 338.179 327.633H338.164Z" fill="#DCC653"/>
<path d="M386.875 335.901C402.414 343.042 434.531 357.828 447.786 363.798C442.698 353.622 434.56 339.312 425.512 323.528C419.354 320.435 391.891 307.542 383.103 303.451C384.548 311.401 386.066 327.156 386.875 335.901Z" fill="#DCC653"/>
<path d="M424.963 292.797C442.944 277.302 473.949 253.206 486.452 243.912C475.249 246.109 448.509 252.498 429.169 257.716C424.746 261.315 416.897 268.181 412.662 272.04C415.539 277.027 421.841 287.232 424.963 292.797Z" fill="#DCC653"/>
<path d="M298.791 381.75C302.404 368.495 307.94 343.692 312.522 333.328C310.195 333.935 306.509 335.019 302.144 336.392C306.104 331.535 319.576 317.226 323.363 314.754C324.013 317.24 325.199 322.733 325.546 326.693C322.582 335.958 318.694 362.872 318.246 372.181C314.633 374.262 303.907 379.321 298.791 381.75Z" fill="#DCC653"/>
<path d="M300.178 304.187C290.985 318.583 275.259 341.653 270.85 347.058C274.334 345.743 278.453 344.269 282.761 342.78C287.964 335.004 299.759 317.658 302.896 313.452C304.254 309.116 304.977 305.69 305.425 302.611C303.43 303.146 301.624 303.782 300.178 304.187Z" fill="#DCC653"/>
<path d="M292.532 282.753C281.46 269.744 267.309 252.5 259.518 243.234C268.957 246.964 285.811 252.702 296.189 256.417C298.877 259.206 302.231 263.254 303.734 265.046C301.681 268.414 296.015 277.592 292.532 282.753Z" fill="#DCC653"/>
<path d="M316.425 411.309C318.781 426.081 326.051 441.851 335.432 452.012C345.03 462.419 358.53 469.646 371.771 461.451C380.443 471.323 389.419 472.45 391.226 472.812C389.058 477.148 385.444 485.271 382.38 490.88C386.962 493.771 391.862 497.298 397.485 503.542C386.557 521.017 339.957 523.315 343.353 510.393C348.08 492.426 337.572 469.198 329.867 459.08C322.163 448.962 315.037 426.89 316.439 411.309H316.425Z" fill="#DCC653"/>
<path d="M250.311 405.716C268.147 368.525 317.899 302.685 347.56 287.609C350.653 290.457 355.018 290.703 355.596 293.131C322.395 307.845 284.799 353.218 255.37 400.527C254.098 402.565 251.525 405.094 250.311 405.701V405.716Z" fill="#D28556"/>
<path d="M347.603 297.279C344.799 305.142 336.719 321.273 334.319 324.468C332.151 327.359 330.793 327.171 330.258 324.294C329.723 321.418 328.451 314.451 328.278 310.65C326.745 311.734 324.967 313.425 323.363 314.74C324.664 320.666 326.283 332.331 326.283 336.118C326.283 339.905 330.301 340.122 332.238 337.202C338.106 328.356 355.09 298.985 356.088 293.203C353.558 294.461 350.667 295.906 347.603 297.265V297.279Z" fill="#D28556"/>
<path d="M371.12 436.69C374.575 441.807 381.224 447.545 385.242 449.974C388.509 456.84 390.85 463.416 392.86 469.545L391.631 472.783C384.606 472.002 374.141 466.09 370.903 459.297C372.913 459.745 375.688 458.964 376.916 458.516C374.459 455.842 372.465 452.951 370.788 450.263C372.016 450.48 374.358 450.263 375.688 449.93C373.794 446.143 371.771 440.81 371.12 436.676V436.69Z" fill="#918371"/>
<path d="M355.524 294.677C326.167 307.686 292.676 344.241 255.095 402.159C254.372 403.272 252.392 405.31 251.12 406.091C250.253 406.626 249.689 406.351 249.487 405.628C249.082 404.168 249.761 400.873 250.094 400.078C266.991 358.608 313.476 292.841 330.995 275.684C333.221 273.501 336.271 273.501 338.179 276.175C342.11 281.697 349.164 288.143 353.587 289.907C357.287 291.381 357.591 294.258 355.625 298.218C349.872 309.825 338.901 329.729 333.004 337.794C329.81 342.174 325.835 341.292 325.473 336.406C324.996 329.729 323.652 321.331 322.568 316.055L324.577 314.118C325.676 319.466 327.049 330.191 327.309 336.074C327.367 337.274 327.613 338.459 328.422 338.575C329.231 338.69 330.605 337.765 331.602 336.378C336.343 329.815 348.441 307.469 353.544 297.38C355.004 294.489 354.845 292.841 352.705 291.988C347.487 289.892 339.985 283.157 336.285 277.967C335.013 276.175 333.712 276.233 332.397 277.534C318.954 290.803 268.87 360.82 251.756 400.829C251.539 401.335 251.25 402.81 251.091 403.923C252.031 403.027 253.303 401.653 253.621 401.119C289.381 342.463 323.349 306.327 354.729 292.162L355.524 294.662V294.677Z" fill="#0E141B"/>
<path d="M320.082 305.676C321.614 302.062 324.722 295.804 326.384 293.505C328.133 291.077 332.484 287.348 335.779 285.396C337.803 284.211 338.584 285.397 336.676 286.77C333.828 288.822 329.897 292.479 328.278 294.72C326.659 296.974 322.987 302.843 321.065 306.312C320.01 308.205 319.186 307.786 320.082 305.676Z" fill="#0E141B"/>
<path d="M350.002 296.194C346.519 304.419 339.292 318.425 334.768 325.565C332.643 328.904 330.229 328.572 329.391 325.204C328.494 321.59 327.67 316.141 327.237 311.964L329.347 309.536C329.795 314.002 330.518 321.272 331.385 324.727C331.674 325.898 332.252 325.753 333.178 324.337C337.124 318.324 343.368 305.575 346.62 297.466L350.002 296.18V296.194Z" fill="#0E141B"/>
<path d="M338.728 279.195C345.175 270.118 362.043 249.665 372.97 240.385C376.483 237.393 377.379 238.81 373.91 241.874C362.867 251.674 346.129 272.546 340.289 280.959L338.728 279.195Z" fill="#0E141B"/>
<path d="M341.229 281.928C349.569 279.11 363.141 271.752 367.131 268.225C368.374 266.997 369.198 253.366 368.634 245.893L370.224 244.506C371.062 250.895 371.062 267.965 368.706 270.061C364.616 273.689 351.91 280.107 342.645 283.215L341.243 281.943L341.229 281.928Z" fill="#0E141B"/>
<path d="M329.867 278.372C324.924 270.566 317.466 254.016 315.587 246.326C314.907 243.551 316.41 243.175 317.177 245.922C319.388 253.886 327.034 269.612 331.472 276.782L329.882 278.372H329.867Z" fill="#0E141B"/>
<path d="M318.232 251.674C317.249 257.123 316.758 269.366 317.336 270.682C318.463 272.517 324.78 277.027 329.174 279.499L328.046 280.814C323.97 278.631 316.685 274.093 315.269 271.78C314.112 269.887 315.601 254.232 317.018 249L318.217 251.66L318.232 251.674Z" fill="#0E141B"/>
<path d="M349.15 308.206C354.671 313.93 377.798 336.204 385.907 344.053C385.387 332.952 383.262 311.169 381.99 303.725C381.73 302.178 382.409 301.817 383.84 302.482C398.988 309.579 433.173 325.551 444.664 331.029C439.186 321.258 415.943 280.237 411.636 273.226L413.602 271.463C417.793 278.242 442.106 320.174 449.477 333.935C450.605 336.045 450.171 336.638 447.96 335.582C437.22 330.422 399.35 312.34 384.534 305.59C386.225 317.529 388.263 336.551 388.87 348.331C388.986 350.615 388.133 350.239 386.89 349.054C376.714 339.326 354.18 317.283 348.08 310.735L349.135 308.191L349.15 308.206Z" fill="#0E141B"/>
<path d="M413.139 230.6C431.525 224.197 465.319 214.44 485.685 210.711C488.721 210.161 489.126 211.159 486.451 213.067C479.875 217.764 421.233 265.738 406.027 278.848C403.859 280.713 402.775 279.759 404.987 277.576C418.328 264.481 466.331 224.341 479.21 214.743C460.463 218.762 426.105 228.562 411.318 234.17L413.139 230.585V230.6Z" fill="#0E141B"/>
<path d="M387.714 215.02C406.23 203.774 427.073 192.153 446.659 183.972C448.87 183.047 449.405 183.755 447.887 185.663C436.223 200.349 417.432 226.728 405.999 242.555C404.437 244.723 403.108 244.001 404.654 241.616C415.264 225.282 429.949 203.962 442.134 189.002C423.806 197.342 402.573 208.602 386.89 218.012L387.699 215.034L387.714 215.02Z" fill="#0E141B"/>
<path d="M340.853 223.951C359.022 192.151 391.544 148.311 427.044 114.286C429.357 112.074 430.123 112.84 428.966 115.63C419.499 138.424 397.326 193.828 386.037 222.318C385.011 224.905 383.58 224.341 384.519 221.71C394.681 193.293 413.226 144.437 423.214 122.438C391.313 154.527 356.42 201.142 342.269 224.775C341.127 226.683 339.682 225.989 340.867 223.936L340.853 223.951Z" fill="#0E141B"/>
<path d="M344.466 219.47C337.586 195.953 322.814 151.91 316.295 133.004C315.89 161.681 316.613 207.762 317.61 233.707C317.711 236.324 316.194 236.425 315.977 233.838C313.866 207.921 312.811 153.919 313.852 125.531C313.982 121.918 315.225 122.221 316.338 125.256C323.479 144.524 338.612 191.139 346.201 216.926L344.466 219.484V219.47Z" fill="#0E141B"/>
<path d="M316.035 220.858C308.518 213.241 296.969 202.458 289.395 195.332C292.199 203.499 297.707 220.988 300.959 230.442C301.841 233 300.323 233.419 299.412 230.976C295.452 220.324 289.222 202.154 285.84 191.343C285.276 189.536 285.767 188.697 287.516 190.316C296.044 198.194 308.822 210.162 316.006 217.967L316.049 220.858H316.035Z" fill="#0E141B"/>
<path d="M305.151 303.493C293.833 307.786 281.807 311.833 269.347 316.285C267.54 316.921 266.774 316.271 268.176 314.594C275.635 305.719 294.585 278.039 302.332 265.305C294.657 255.924 265.011 221.349 257.119 211.39C255.746 209.641 256.468 209.106 258.261 209.728C269.261 213.501 285.319 219.311 298.198 224.746L298.617 227.391C286.606 222.274 272.932 217.244 261.802 213.37C269.564 223.04 296.362 254.117 304.775 264.351C305.194 264.857 305.252 265.305 304.977 265.767C297.967 277.403 281.605 301.6 273.062 312.441C282.4 309.058 295.712 304.476 305.642 300.877L305.151 303.479V303.493Z" fill="#0E141B"/>
<path d="M298.964 318.353C302.636 311.01 304.211 304.636 305.136 299.056C305.57 296.44 307.015 296.671 306.755 299.316C306.307 303.812 305.338 308.697 303.156 313.713L298.964 318.367V318.353Z" fill="#0E141B"/>
<path d="M325.603 329.628C318.882 359.072 318.159 393.314 317.899 411.888C317.726 424.333 320.53 443.109 329.434 456.133C340.578 472.452 349.251 494.249 344.119 510.582C343.455 512.678 342.067 512.375 342.544 510.149C346.244 492.803 337.658 472.423 327.165 457.549C317.841 444.338 314.43 424.55 314.604 411.845C314.864 392.75 317.133 353.969 324.606 323.832L325.603 329.614V329.628Z" fill="#0E141B"/>
<path d="M412.373 392.07C413.096 385.782 413.587 382.241 414.194 375.664L417.172 377.644C416.782 381.706 416.261 385.984 415.625 390.422L412.373 392.07Z" fill="#0E141B"/>
<path d="M392.252 474.185C388.523 482.309 384.476 489.521 380.169 495.318C378.723 497.269 377.408 496.561 378.824 494.392C382.727 488.365 386.442 481.109 389.896 473.058C390.662 471.28 392.672 473.304 392.252 474.185Z" fill="#0E141B"/>
<path d="M382.799 489.492C405.869 504.25 425.136 531.757 440.631 568.124C455.592 603.233 463.007 640.945 460.694 668.596C460.52 670.591 459.783 671.313 458.497 669.131C445.618 647.348 413.457 594.228 399.35 570.986C396.256 599.36 383.146 663.378 375.861 685.219C375.11 687.445 374.112 687.43 373.563 685.132C367.608 659.952 357.764 605.72 353.457 578.17C331.978 609.492 300.901 657.249 292.228 670.923C290.87 673.077 289.41 673.539 289.945 670.302C295.062 639.572 310.86 586.568 319.33 565.696C295.249 580.237 267.338 599.071 249.342 612.239C247.275 613.742 246.48 612.99 247.796 610.808C264.216 583.648 294.079 543.06 307.536 527.016C309.299 524.905 310.542 525.888 308.822 528.042C297.808 541.86 269.174 582.347 253.187 606.601C269.391 594.272 298.993 575.047 321.224 561.749C323.103 560.622 323.811 561.128 322.886 563.253C315.124 581.306 299.47 632.027 293.472 664.419C304.659 646.943 333.105 603.147 353.096 574.108C354.223 572.489 355.119 572.59 355.423 574.542C359.383 600.314 368.721 652.06 374.864 679.032C382.496 654.214 395.1 593.101 397.557 567.286C397.731 565.493 398.511 565.349 399.509 566.953C412.763 588.172 445.141 640.786 458.338 663.45C458.656 634.18 452.426 602.901 438.029 569.136C422.65 533.072 402.313 505.016 381.542 491.776L382.828 489.536L382.799 489.492Z" fill="#0E141B"/>
<path d="M301.06 536.845C286.389 539.114 259.648 544.405 249.212 547.137C246.986 547.671 246.452 546.905 248.374 545.33C271.356 526.322 320.125 499.755 343.787 493.525L344.091 496.228C321.484 502.241 277.976 525.05 254.228 543.639C266.659 540.661 289.265 536.426 302.621 534.388L301.06 536.831V536.845Z" fill="#0E141B"/>
<path d="M286.562 556.603C279.422 559.133 266.196 562.862 260.096 564.38C258.073 564.9 257.596 564.149 258.897 562.573C265.343 554.753 271.602 547.223 278.294 539.706L282.081 539.07C275.548 546.355 269.665 553.423 263.406 560.983C270.677 559.075 282.847 555.664 288.644 553.452L286.548 556.589L286.562 556.603Z" fill="#0E141B"/>
<path d="M309.892 597.453C301.45 605.518 293.226 612.196 283.83 618.701C281.518 620.305 281.142 619.655 282.024 617.284C285.912 606.877 290.971 589.662 294.223 580.035L297.244 577.867C293.312 590.963 289.251 604.694 285.796 614.249C294.353 608.005 302.953 601.312 310.715 593.666L309.906 597.453H309.892Z" fill="#0E141B"/>
<path d="M337.673 641.321C336.487 630.596 334.811 613.251 334.464 603.596L336.589 601.182C336.993 609.305 338.54 625.899 339.783 637.202C345.42 628.616 354.714 612.673 358.863 603.263L359.542 607.527C354.44 618.686 345.897 632.779 339.783 641.885C338.887 643.215 337.904 643.345 337.687 641.336L337.673 641.321Z" fill="#0E141B"/>
<path d="M423.965 608.987C422.491 620.883 420.598 637.679 418.993 651.338C418.791 653.116 417.779 653.087 416.897 651.859C409.583 641.741 397.181 623.701 390.952 614.465L391.674 611.372C397.34 619.813 409.583 637.448 416.998 647.84C418.718 633.256 420.699 617.804 422.144 605.98L423.98 608.973L423.965 608.987Z" fill="#0E141B"/>
<path d="M256.468 398.4C279.957 388.499 302.303 378.482 318.232 370.33L318.073 373.756C302.419 381.98 278.265 392.85 252.884 403.575L256.468 398.4Z" fill="#0E141B"/>
<path d="M250.21 404.704C226.418 414.721 201.788 424.521 182.26 431.82C179.427 432.876 178.877 431.705 180.482 429.753C199.533 406.554 231.029 372.427 256.729 349.402C220.361 338.012 125.974 307.368 86.4563 292.076C83.4643 290.919 83.6377 289.503 86.7454 289.084C110.104 285.904 170.19 282.319 203.435 282.811C164.828 252.659 91.4575 192.572 41.272 145.957C39.2195 144.049 39.6676 142.806 42.4717 143.485C80.9636 152.692 223.628 209.961 245.18 218.966C237.432 201.548 220.014 163.577 208.119 138.917C206.297 135.13 207.699 134.104 210.923 136.937C236.883 159.645 273.019 192.399 294.136 211.623L295.22 216.855C268.914 193.121 238.805 166.626 214.536 144.8C228.499 172.134 240.511 200.262 249.169 221.322C250.051 223.461 249.328 223.591 247.651 222.941C221.85 213.025 76.5262 156.147 47.9499 148.255C96.0684 190.78 174.483 256.33 208.639 283.071C210.33 284.4 210.619 285.658 207.916 285.687C184.861 285.904 121.132 289.214 95.418 291.411C137.972 307.34 228.109 336.913 260.646 347.364C261.918 347.768 262.033 348.91 261.123 349.749C236.912 372.095 205.806 404.877 188.345 425.576C207.121 418.537 229.251 409.778 250.773 400.787L250.21 404.704Z" fill="#0E141B"/>
<path d="M203.247 204.655C196.888 196.431 185.151 180.184 179.803 172.075C177.822 169.068 178.704 168.62 181.566 169.907C198.001 177.264 226.374 191.545 237.736 198.006L239.456 202.675C226.273 195.39 200.935 183.306 186.307 176.05C191.525 183.682 201.484 196.806 208.422 205.913L203.262 204.67L203.247 204.655Z" fill="#0E141B"/>
<path d="M192.002 284.602C166.302 271.723 108.253 240.647 80.8768 225.455C78.3473 224.053 78.8532 222.405 81.7296 222.506C99.6819 223.113 120.756 224.92 139.229 227.826L141.802 230.673C124.327 228.548 102.79 226.915 89.3615 226.366C121.653 243.422 171.173 270.047 197.625 284.328L192.002 284.617V284.602Z" fill="#0E141B"/>
<path d="M439.677 223.373C469.121 201.056 518.742 166.611 547.94 149.136C550.094 147.849 551.279 148.283 549.588 150.914C534.873 173.838 517.051 199.856 503.074 218.155C560.891 197.457 695.562 152.648 756.618 138.252C760.246 137.399 761.344 138.685 757.976 141.128C713.515 173.332 592.474 262.602 555.832 291.294C603.792 298.507 685.199 311.892 717.461 319.466C720.25 320.116 720.178 321.822 717.331 322.227C670.99 328.76 505.777 349.993 474.498 357.654C493.1 382.154 531.014 436.199 552.334 470.152C553.939 472.696 552.912 473.752 550.614 472.118C515.534 447.17 430.542 387.705 408.297 372.99C405.073 370.851 405.868 369.434 409.222 371.342C433.476 385.089 513.177 441.518 546.105 465.7C526.432 435.982 492.464 388.268 470.494 357.567C469.525 356.209 469.901 355.472 471.433 355.11C508.61 346.597 647.372 327.083 707.646 320.55C676.54 314.869 598.415 301.701 551.525 294.156C548.894 293.737 548.822 292.465 550.788 290.918C588.355 261.302 700.13 177.958 748.668 143.513C685.444 160.136 551.973 204.221 499.851 222.26C496.916 223.272 496.945 221.827 498.116 220.237C508.451 205.999 527.401 178.117 542.13 156.565C517.745 171.916 474.078 202.111 446.962 221.769L439.663 223.402L439.677 223.373Z" fill="#0E141B"/>
<path d="M568.668 171.743C558.188 185.721 546.625 198.729 536.651 208.746L531.303 209.932C538.993 202.155 550.672 188.785 561.498 175.472C549.342 181.558 530.19 189.146 519.523 193.309L521.142 189.276C530.653 185.547 552.219 176.325 566.977 169.589C570.344 168.043 570.605 169.474 568.668 171.758V171.743Z" fill="#0E141B"/>
<path d="M644.524 222.159C665.859 220.207 719.354 214.614 738.506 211.65C741.816 211.145 742.308 212.922 739.301 214.382C695.505 235.746 599.745 277.837 558.766 293.65L554.141 292.624C590.45 278.14 680.472 238.348 727.16 216.522C703.44 219.846 664.24 223.46 640.997 225.151L644.524 222.144V222.159Z" fill="#0E141B"/>
<path d="M413.067 394.629C412.127 393.198 410.942 391.68 410.089 390.596C408.543 393.878 407.213 397.347 406.591 399.876C406.259 401.278 405.449 401.264 404.9 400.18C403.325 397.014 400.043 392.504 397.76 389.816C395.23 397.332 393.756 405.051 393.669 412.914C393.64 415.313 392.151 415.357 392.036 412.972C391.674 405.557 393.524 395.236 396.372 387.431C396.806 386.246 397.283 386.332 397.962 386.983C400.434 389.324 403.238 393.401 405.406 397.404C406.259 394.542 407.401 390.958 408.832 388.154C409.309 387.2 409.945 387.127 410.581 387.763C411.52 388.703 412.648 390.322 413.833 392.1L413.052 394.629H413.067Z" fill="#0E141B"/>
<path d="M384.115 410.846C384.389 408.186 384.722 406.322 385.213 404.197C385.416 403.315 385.979 403.026 386.904 403.792C388.899 405.425 390.981 407.622 392.86 409.776L392.686 412.363C390.981 410.34 388.596 407.883 386.688 406.22C386.153 408.114 385.907 410.499 385.82 413.216L384.129 410.831L384.115 410.846Z" fill="#0E141B"/>
<path d="M393.264 474.373C384.346 473.159 373.361 467.305 370.181 459.861C369.689 458.704 370.065 458.343 371.019 458.473C372.378 458.647 373.939 458.502 375.254 458.097C373.115 455.727 370.889 452.518 369.834 450.754C369.125 449.569 369.4 448.919 370.759 449.193C372.118 449.454 373.1 449.425 374.343 449.309C372.58 445.638 370.528 439.914 369.53 436.705C369.241 435.751 369.574 435.476 370.441 435.361C372.248 435.115 374.763 434.826 376.743 434.725L377.639 436.763C375.977 436.922 373.924 437.138 372.002 437.471C373.1 441.041 375.052 446.418 376.743 449.815C377.148 450.61 376.844 451.015 375.933 451.174C374.82 451.347 373.953 451.492 372.927 451.448C374.329 453.703 375.731 455.741 377.697 458.068C378.304 458.791 378.073 459.326 377.205 459.557C375.312 460.049 374.098 460.237 372.898 460.294C376.497 465.816 385.112 470.586 392.339 471.439L393.264 474.387V474.373Z" fill="#0E141B"/>
<path d="M457.543 417.394L446.948 412.812C445.025 411.728 441.773 413.058 440.082 418.348C438.391 423.638 429.848 441.836 421.045 447.011C418.4 443.759 416.232 440.391 417.793 433.395C419.354 426.413 422.245 415.688 423.459 412.436C424.673 409.184 424.298 405.932 421.407 405.686L409.236 402.795C406.1 402.795 404.408 407.276 404.9 412.306C405.738 420.978 406.013 441.692 400.564 442.906C394.059 444.351 388.09 427.917 386.225 416.05C385.618 412.19 383.58 409.068 381.05 410.022L369.964 413.39C367.434 414.72 366.567 420.024 370.441 425.43C375.615 432.658 383.016 444.741 385.864 450.726C390.316 460.121 398.251 483.089 396.95 491.805C396.112 497.471 394.305 506.013 395.259 508.182C396.213 510.35 399.957 513.024 402.602 513.241C407.054 513.602 408.933 511.81 409.106 508.066C409.352 503.007 410.234 488.639 411.997 484.939C417.779 472.768 439.041 439.813 451.501 430.374C456.444 426.645 461.734 421.817 457.528 417.365L457.543 417.394Z" fill="#F29A63"/>
<path d="M374.228 394.137C371.886 397.779 367.752 409.386 370.455 414.373C374.416 421.716 383.71 415.746 380.313 408.548C378.058 403.778 375.399 397.866 374.228 394.137Z" fill="white"/>
<path d="M420.872 385.783C416.478 388.732 409.251 397.52 409.135 403.432C408.918 414.186 421.956 414.909 421.364 405.051C421.06 400.05 420.222 390.9 420.887 385.783H420.872Z" fill="white"/>
<path d="M463.021 402.043C457.904 402.216 448.87 406.929 446.818 413.303C444.144 421.629 456.126 424.071 457.413 416.743C457.962 413.679 460.188 405.729 463.021 402.043Z" fill="white"/>
<path d="M396.155 509.729C395.649 515.322 395.895 526.539 400.116 531.526C402.356 528.129 406.721 518.069 406.924 512.677C404.38 513.747 399.046 513.385 396.155 509.729Z" fill="white"/>
<path d="M301.667 454.47C306.553 452.114 308.273 449.325 306.076 444.555C303.879 439.785 297.707 438.498 292.778 441.852C287.473 445.465 276.632 450.886 271.819 451.97C267.006 453.054 264.635 452.432 262.901 448.602C257.596 436.793 242.086 413.521 231.578 402.348C227.849 398.373 221.576 393.198 214.71 395.959L207.728 404.993C207.251 406.323 207.121 407.638 207.613 408.607L200.27 416.802L193.765 424.391C191.959 427.036 194.112 429.768 197.856 430.78C224.712 438.007 243.315 457.289 247.001 468.245C250.369 478.248 251.539 490.404 249.53 496.908C246.885 505.465 265.083 509.932 264.953 499.438C264.693 479.982 266.558 473.102 273.264 469.445C278.569 466.554 295.987 457.217 301.667 454.47Z" fill="#F29A63"/>
<path d="M208.09 405.209C214.637 409.95 220.607 398.357 213.683 395.654C210.431 394.397 201.339 393.674 195.11 397.013C199.171 399.268 205.473 403.315 208.09 405.209Z" fill="white"/>
<path d="M206.471 408.186C202.872 403.054 192.132 402.505 184.746 406.379C190.513 409.27 196.916 413.057 200.617 415.847C204.317 418.636 210.258 413.592 206.471 408.186Z" fill="white"/>
<path d="M199.894 417.207C196.844 414.475 187.001 413.695 181.421 418.378C186.105 419.635 191.698 422.439 194.401 424.954C198.391 428.669 204.635 421.442 199.894 417.207Z" fill="white"/>
<path d="M250.455 501.924C248.114 507.879 245.049 514.904 240.728 519.327C249.472 518.517 259.749 512.201 262.539 504.728C258.029 506.087 252.537 505.537 250.455 501.938V501.924Z" fill="white"/>
<path d="M298.068 439.668C301.624 439.436 305.541 442.631 306.48 445.363C307.926 449.511 306.625 452.676 299.846 455.553C304.587 460.54 324.736 469.068 337.312 464.804C336.126 462.549 334.348 459.109 333.987 456.984C336.242 454.729 338.728 452.358 340.506 451.173C337.904 449.757 334.811 447.617 333.033 445.608C334.45 442.053 335.172 438.728 335.172 436.95C333.756 436.719 331.501 436.242 330.07 435.404C332.079 429.954 335.881 420.111 336.358 416.078C333.033 416.786 331.255 416.786 329.839 416.671C331.501 414.069 332.44 411.019 332.701 408.938C331.978 408.967 330.532 408.851 330.056 408.721C330.605 406.553 331.024 403.488 331.14 401.913C328.191 402.693 325.777 403.416 323.667 404.616C324.086 400.395 324.028 392.156 323.609 389.02C312.768 395.697 297.577 420.01 298.068 439.653V439.668Z" fill="#B7A690"/>
<path d="M216.647 400.54C227.964 401.508 249.877 434.739 256.642 447.516C260.978 455.712 266.283 458.834 273.51 456.189C280.737 453.544 295.278 446.953 303.589 441.749C308.793 445.58 309.313 451.708 300.193 455.64C290.971 459.615 277.47 466.625 273.813 469.184C268.393 472.971 265.314 479.475 265.141 485.083C264.967 490.692 265.242 495.924 265.314 498.454C265.488 504.597 258.449 507.3 252.667 504.597C256.454 497.557 254.112 478.044 247.246 466.293C237.49 449.598 217.095 435.563 199.186 431.241C193.953 429.969 192.508 427.078 193.577 424.563C197.841 428.35 204.1 423.479 200.356 417.509L200.891 416.338C204.592 418.68 208.653 413.896 207.121 409.386L208.118 408.938C207.67 407.579 207.584 406.495 207.945 405.411C211.111 408.215 216.141 405.859 216.647 400.525V400.54Z" fill="#D28556"/>
<path d="M195.196 397.014C200.169 397.014 211.544 400.179 215.606 403.07C214.247 405.874 211.27 407.768 207.569 405.151C203.869 402.535 198.449 398.734 195.196 397.028V397.014Z" fill="#DCDDDD"/>
<path d="M184.269 406.496C190.499 406.048 200.082 408.837 206.586 414.807C205.228 416.426 202.525 417.871 199.721 415.616C196.916 413.362 188.706 407.941 184.269 406.496Z" fill="#DCDDDD"/>
<path d="M181.653 418.248C187.261 417.351 197.104 420.054 200.357 423.48C199.822 425.648 196.295 427.108 194.213 425.012C191.51 422.309 185.628 419.505 181.653 418.233V418.248Z" fill="#DCDDDD"/>
<path d="M254.835 505.19C252.884 508.775 246.365 516.724 241.161 518.676C248.33 519.196 259.59 511.969 262.004 504.93C259.793 505.84 257.018 505.768 254.835 505.19Z" fill="#DCDDDD"/>
<path d="M306.683 444.987C314.633 442.646 325.835 438.483 329.983 435.23C331.342 436.04 333.322 436.763 334.869 436.951C334.782 439.292 333.871 443.18 332.975 445.262C334.695 447.343 338.309 450.046 340.564 451.217C337.948 453.024 335.505 455.192 334.146 456.724C334.695 459.34 336.141 462.593 337.485 464.674C328.639 467.839 306.596 463.59 299.73 455.727C303.98 454.007 308.316 450.393 306.683 444.973V444.987Z" fill="#918371"/>
<path d="M409.974 495.215C410.234 492.44 410.942 489.188 412.142 485.097C415.264 474.502 441.527 438.366 453.669 428.537C459.234 424.028 460.087 419.417 457.557 417.249C457.283 418.607 455.837 420.501 454.666 421.036C451.862 424.201 446.413 423.348 445.184 422.12C444.375 421.31 443.739 421.31 443.291 422.481C441.47 427.208 431.453 444.076 424.775 448.325C419.441 447.053 417.374 441.821 417.736 435.49C418.039 430.171 420.988 418.593 423.604 412.276C425.252 408.301 423.777 406.408 421.262 405.945C421.262 407.217 420.988 408.562 420.265 410.007C418.545 413.707 412.951 415.702 409.786 413.794C409.179 413.433 408.34 413.621 408.427 414.69C409.309 425.256 406.62 443.686 398.757 443.425C389.897 443.122 383.898 425.647 382.944 418.94C382.771 417.668 381.773 417.769 381.412 418.578C379.807 422.178 371.944 424.866 368.316 419.85C368.793 424.967 377.827 434.001 385.546 450.262C389.362 458.299 398.309 482.539 396.863 492.657C399.769 488.378 408.918 489.694 409.988 495.186L409.974 495.215Z" fill="#D28556"/>
<path d="M397.326 525.803C398.41 522.189 402.024 523.157 402.631 526.41C404.322 523.764 406.36 516.769 406.851 512.562C404.206 513.762 398.901 513.169 396.488 509.787C395.649 512.562 395.881 520.382 397.326 525.803Z" fill="#DCDDDD"/>
<path d="M369.617 407.521C370.947 413.419 379.981 412.942 380.212 408.49C382.742 412.349 379.952 417.206 376.121 417.64C371.901 418.117 368.417 413.665 369.617 407.521Z" fill="#DCDDDD"/>
<path d="M409.843 400.049C410.566 405.108 418.632 406.799 421.045 403.301C421.768 407.03 420.077 411.728 415.018 411.612C409.959 411.497 407.675 404.746 409.843 400.049Z" fill="#DCDDDD"/>
<path d="M447.425 411.381C447.786 414.994 455.013 416.194 458.02 413.433C458.135 417.654 455.967 421.383 451.4 421.138C446.818 420.892 445.141 415.717 447.425 411.381Z" fill="#DCDDDD"/>
<path d="M329.694 409.458C329.044 409.314 328.87 408.952 329.101 408.331C329.651 406.77 329.752 404.963 329.925 403.156C328.422 403.59 326.528 404.197 323.826 405.483C322.828 405.96 322.452 405.743 322.568 404.515C322.929 400.323 323.045 395.857 322.727 391.101C310.354 399.817 298.892 426.803 299.586 440.101L296.724 440.289C296.406 422.944 308.143 397.837 323.045 388.08C324.129 387.372 324.722 387.762 324.823 388.846C325.256 393.356 325.126 398.921 324.736 402.983C327.627 401.667 329.506 400.973 330.966 400.728C331.877 400.569 332.195 400.814 332.137 401.739C332.079 402.636 331.775 405.454 331.096 407.883C331.501 407.955 331.949 407.926 332.455 407.81C333.582 407.55 334.088 407.839 333.871 409.068C333.394 411.872 332.831 413.361 331.385 415.775C333.611 415.558 334.767 415.37 336.184 414.936C337.716 414.474 337.933 415.081 337.6 416.411C336.43 421.152 333.279 429.463 330.995 434.782C332.325 435.447 334.29 435.62 335.403 435.62C336.271 435.62 336.545 436.025 336.415 436.936C335.967 440.13 335.028 442.833 333.929 445.204C335.664 446.837 338.236 448.586 341.07 450.248C341.836 450.696 341.995 451.231 341.07 451.91C339.147 453.341 336.459 455.553 334.854 457.215C335.664 459.701 336.965 462.173 338.309 464.24C338.844 465.064 338.815 465.526 337.832 465.873C330.908 468.287 309.819 467.015 298.212 456.854L300.525 455.018C308.171 461.797 325.343 466.047 335.721 464.038C334.29 461.45 333.51 459.571 332.802 457.302C332.643 456.811 332.715 456.55 333.076 456.146C334.695 454.353 336.603 452.648 338.554 451.217C335.765 449.511 333.785 447.907 332.036 446.071C331.718 445.738 331.732 445.42 331.905 445.016C332.946 442.587 333.597 440.723 333.958 437.832C332.325 437.658 330.315 437.008 329.058 436.083C328.61 435.765 328.523 435.36 328.74 434.869C330.807 430.2 333.611 422.236 334.999 417.495C333.452 417.755 331.573 417.928 329.376 417.697C328.538 417.61 328.147 416.974 328.726 416.208C330.099 414.344 330.951 411.959 331.486 409.617C330.951 409.617 330.272 409.559 329.708 409.429L329.694 409.458Z" fill="#0E141B"/>
<path d="M208.119 406.741C204.144 403.735 198.564 400.107 194.676 397.881C193.867 397.418 193.765 396.984 194.676 396.464C200.414 393.14 210.301 392.677 215.028 395.264C217.182 396.45 218.193 399.066 217.528 401.711C215.953 407.912 210.619 408.62 208.133 406.741H208.119ZM196.815 397.216C201.123 399.499 205.676 402.289 209.289 405.021C210.72 406.105 214.218 405.744 215.375 401.205C215.808 399.471 215.288 397.852 213.871 397.071C209.752 394.845 202.178 394.975 196.815 397.216Z" fill="#0E141B"/>
<path d="M200.458 417.205C196.555 414.228 190.181 409.892 184.11 407.246C183.199 406.856 183.257 406.263 184.023 405.786C189.675 402.332 201.108 401.566 206.095 406.292C208.393 408.461 209.275 411.322 208.335 413.751C206.644 418.058 202.525 418.781 200.458 417.205ZM201.484 415.37C202.915 416.41 205.257 415.659 206.297 412.999C206.991 411.221 206.5 409.516 204.678 407.825C200.516 403.98 190.846 404.529 186.35 406.466C191.294 408.489 197.379 412.363 201.499 415.37H201.484Z" fill="#0E141B"/>
<path d="M194.257 426.168C191.727 423.885 186.177 420.358 181.277 419.216C180.251 418.97 180.265 418.392 180.959 417.785C186.452 413.044 196.28 413.001 200.602 416.658C202.713 418.45 203.132 420.343 202.236 422.801C200.689 427.021 196.295 428.004 194.257 426.168ZM183.329 418.117C188.287 419.476 192.768 422.092 195.442 424.477C196.916 425.793 199.33 424.578 200.169 422.28C200.487 421.413 200.964 419.765 199.244 418.305C195.717 415.313 188.085 415.241 183.329 418.103V418.117Z" fill="#0E141B"/>
<path d="M194.546 424.924C193.693 426.37 194.069 428.408 199.186 429.752C221.185 435.534 241.609 451.491 248.634 468.143C251.467 474.864 252.595 491.371 250.701 497.456C249.935 499.899 250.889 501.316 251.987 502.27C254.401 504.351 258.232 505.016 261.007 503.686C263.088 502.689 263.71 500.954 263.609 498.338C263.247 488.581 263.927 481.73 265.213 478.261C266.991 473.448 269.477 470.166 272.874 468.186C280.39 463.807 293.761 456.796 302.014 452.951C310.542 448.976 302.505 437.63 294.31 442.804C288.571 446.418 277.485 451.723 272.686 453.096C268.335 454.339 264.1 454.83 261.802 449.497C254.546 432.657 237.042 409.068 227.299 400.439C222.804 396.464 218.135 395.582 215.765 397.158L213.496 395.495C216.965 392.344 224.177 393.515 229.338 398.083C239.21 406.813 256.801 431.357 264.144 448.384C265.734 452.084 267.988 451.968 272.209 450.754C276.892 449.41 287.502 443.816 293.153 440.26C304.529 433.091 315.052 449.959 303.199 455.481C294.975 459.311 281.547 466.047 274.074 470.398C271.038 472.161 269.159 474.676 267.526 479.114C266.341 482.337 266.023 488.899 266.37 498.309C266.5 501.793 264.794 504.308 262.077 505.695C259.359 507.083 253.78 506.938 250.571 504.178C248.475 502.371 247.579 499.509 248.374 496.936C250.007 491.689 248.706 475.919 245.83 469.082C238.993 452.85 219.957 437.89 198.434 432.238C191.351 430.374 190.744 425.459 192.956 423.508L194.531 424.91L194.546 424.924Z" fill="#0E141B"/>
<path d="M208.812 406.019C208.306 408.13 209.694 409.589 212.368 409.879C221.619 410.833 235.856 422.28 239.354 435.477C239.976 437.804 238.516 438.151 237.779 435.94C233.5 423.119 220.81 413.131 212.065 412.22C207.887 411.787 205.473 408.896 206.702 404.689L208.812 406.019Z" fill="#0E141B"/>
<path d="M201.643 416.615C201.946 418.176 204.418 419.737 206.586 420.17C213.857 421.601 224.481 428.597 229.121 435.839C230.581 438.123 229.28 438.802 227.776 436.778C222.847 430.1 212.758 423.928 205.979 422.454C202.669 421.731 199.229 419.39 199.59 415.4L201.643 416.6V416.615Z" fill="#0E141B"/>
<path d="M240.612 520.15C239.542 520.179 239.109 519.399 239.889 518.546C243.748 514.325 247.911 506.693 249.559 501.244L251.25 503.224C249.747 507.965 246.018 514.181 242.953 517.91C250.036 516.667 258.405 510.596 261.325 504.699L264.1 503.499C262.091 512.201 249.212 519.876 240.612 520.15Z" fill="#0E141B"/>
<path d="M415.625 413.1C411.029 413.1 407.473 409.111 408.109 402.867C408.615 397.952 414.18 388.615 420.626 384.943C421.45 384.481 421.971 384.683 421.855 385.839C421.335 390.797 421.595 399.282 422.188 404.847C422.78 410.527 419.022 413.115 415.64 413.115L415.625 413.1ZM415.625 410.73C418.14 410.73 420.381 408.648 420.092 404.919C419.687 399.542 419.412 391.78 419.947 387.4C414.83 391.448 410.667 399.311 410.292 403.026C409.771 408.157 412.864 410.73 415.625 410.73Z" fill="#0E141B"/>
<path d="M375.457 418.767C372.898 418.767 370.6 417.278 369.285 414.185C366.423 407.435 371.727 396.565 373.534 393.645C374.141 392.677 374.748 392.879 375.037 393.819C376.512 398.517 379.215 404.428 381.368 408.36C383.898 413 380.877 418.767 375.457 418.767ZM375.413 416.556C378.853 416.556 381.311 412.682 379.504 409.227C377.755 405.903 375.529 400.844 374.069 396.189C371.25 401.957 369.371 408.938 371.221 413.303C372.161 415.5 373.534 416.556 375.413 416.556Z" fill="#0E141B"/>
<path d="M452.31 422.395C448.191 422.424 443.927 419.07 445.69 413.115C447.237 407.897 456.17 401.263 462.949 401.248C463.874 401.248 464.336 401.797 463.7 402.578C461.258 405.628 459.234 412.58 458.526 416.411C457.803 420.342 455.808 422.366 452.31 422.395ZM452.31 420.125C454.536 420.125 456.025 418.622 456.517 415.977C457.138 412.624 458.945 406.64 461.388 403.084C456.126 404.124 449 409.53 447.801 413.578C446.702 417.278 449.159 420.125 452.31 420.125Z" fill="#0E141B"/>
<path d="M421.031 404.588C425.035 404.617 426.943 408.375 424.645 413.073C421.32 419.866 418.791 433.901 418.704 437.37C418.588 441.967 420.699 446.433 423.763 447.329C425.975 447.98 425.454 449.266 423.59 448.963C418.617 448.153 416.276 442.559 416.449 437.313C416.623 431.704 419.065 419.519 422.347 412.148C423.908 408.635 423.228 406.857 420.829 406.64L421.031 404.588Z" fill="#0E141B"/>
<path d="M406.447 413.751C406.129 408.432 407.14 404.529 409.063 403.127L409.511 400.713C405.16 401.667 403.31 407.752 403.744 413.809C404.437 423.478 403.888 440.737 400.549 441.908C398.179 442.746 395.967 440.217 394.189 436.907C391.4 431.717 388.075 421.267 387.338 415.413C386.745 410.657 383.956 408.056 380.573 408.75L380.891 411.106C383.074 410.73 384.519 412.045 384.982 415.832C385.733 421.845 389.029 433.177 392.195 438.366C394.392 441.98 397.268 445.319 401.344 444.148C406.678 442.616 407.039 423.724 406.432 413.736L406.447 413.751Z" fill="#0E141B"/>
<path d="M457.673 415.949C460.708 417.409 461.33 423.913 455.273 428.871C442.713 439.162 425.454 461.769 413.385 484.549C411.231 488.596 410.494 502.747 410.118 508.789C409.945 511.723 408.181 513.125 406.678 513.877C401.489 516.464 392.946 511.058 393.481 506.072C393.77 503.34 394.955 496.315 395.245 494.508C395.996 489.854 395.866 486.544 394.927 481.629C394.002 476.83 389.983 463.879 385.979 454.282C384.36 450.365 380.198 442.574 369.545 426.327C365.469 420.112 366.336 413.723 369.675 412.061L370.528 414.185C368.49 415.4 368.461 419.49 371.944 424.824C382.669 441.186 386.731 449.468 388.379 453.443C392.412 463.128 396.372 476.426 397.297 481.297C398.251 486.284 398.844 490.042 398.063 494.913C397.774 496.734 396.271 504.453 396.126 506.231C395.808 510.119 402.081 513.704 405.782 511.911C407.068 511.29 407.589 510.22 407.69 508.5C408.094 501.865 409.106 487.715 411.419 483.349C423.575 460.41 440.891 437.124 453.669 426.79C457.615 423.61 458.266 419.056 456.994 418.074L457.658 415.963L457.673 415.949Z" fill="#0E141B"/>
<path d="M420.323 446.287C425.83 444.423 436.584 425.488 439.186 417.668C440.53 413.649 442.915 410.918 447.237 411.424L446.673 413.462C443.854 413.592 442.698 415.037 441.513 418.578C439.113 425.762 428.591 444.495 422.028 447.892L420.337 446.302L420.323 446.287Z" fill="#0E141B"/>
<path d="M408.239 511.637C406.476 519.905 403.946 527.262 400.896 532.032C400.506 532.639 400.058 532.654 399.595 532.148C395.013 527.074 394.059 514.6 395.36 509.035L397.095 511.03C396.199 516.017 397.051 525.687 400.101 530.153C402.298 526.25 404.409 520.57 405.854 513.198L408.225 511.637H408.239Z" fill="#0E141B"/>
</g>
<defs>
<clipPath id="clip0_42_72144">
<rect width="720" height="573.852" fill="white" transform="translate(40 113)"/>
</clipPath>
</defs>
</svg>
