<svg width="800" height="800" viewBox="0 0 800 800" fill="none" xmlns="http://www.w3.org/2000/svg">
<g clip-path="url(#clip0_42_72381)">
<path d="M619.063 404.128C608.958 389.49 598.18 372.43 597.124 351.587C603.386 343.018 607.459 336.487 605.73 334.335C604.136 332.356 598.757 336.026 595.798 332.433C590.208 325.633 580.468 287.768 579.584 266.655C581.505 257.453 583.868 247.752 586.711 237.685C588.575 231.057 585.443 229.482 581.428 234.938C567.885 253.342 557.107 313.338 557.107 333.279C565.176 344.478 573.398 357.177 575.511 389.951C578.624 395.714 607.152 413.638 615.489 413.638C619.293 413.638 620.523 406.222 619.082 404.128H619.063Z" fill="#DCDDDD"/>
<path d="M619.062 404.128C604.136 382.478 597.2 365.61 597.623 350.914C587.057 361.23 574.897 375.754 570.862 360.52C573.052 368.146 574.704 377.636 575.492 389.951C578.604 395.714 607.132 413.638 615.47 413.638C619.274 413.638 620.503 406.222 619.062 404.128Z" fill="#B5B6B6"/>
<path d="M592.013 335.371C584.079 344.881 574.512 343.248 572.61 316.18C571.381 336.14 573.071 348.55 575.934 349.318C581.428 350.798 589.189 342.864 592.013 335.352V335.371Z" fill="#B5B6B6"/>
<path d="M564.696 430.562C575.031 413.503 579.123 391.18 575.166 369.971C565.791 319.677 516.957 286.864 467.143 296.163C417.329 305.441 384.555 353.738 393.93 404.032C397.868 425.106 407.186 444.932 423.361 456.42C434.311 464.2 450.91 482.566 453.023 496.244C459.689 539.257 454.444 600.117 437.193 618.406C407.724 623.055 397.503 576.987 340.505 575.239C299.47 573.971 260.491 617.945 226.834 591.511C208.372 577.006 197.326 542.715 208.737 520.469C211.888 514.321 211.523 513.899 206.144 516.358C182.572 527.173 163.803 586.9 205.798 633.621C229.888 660.42 268.08 674.002 303.908 664.493C317.01 661.015 324.54 663.974 332.59 675.212C348.112 696.882 380.444 745.582 454.079 746.12C567.865 746.965 599.218 624.265 556.435 487.676C551.613 472.288 550.825 453.461 564.676 430.581L564.696 430.562Z" fill="#8AA3D4"/>
<path d="M415.85 622.152C427.165 627.455 433.62 622.421 437.558 618.022C428.645 619.674 421.306 618.061 402.614 602.135C404.42 608.935 408.473 618.695 415.85 622.172V622.152Z" fill="#778EB8"/>
<path d="M570.44 419.438C548.558 457.513 448.624 465.755 408.012 440.051C412.449 448.292 421.248 454.92 423.361 456.418C434.311 464.199 450.91 482.564 453.023 496.243C453.657 500.277 454.175 504.484 454.579 508.787C496.074 535.99 537.916 526.365 558.529 494.552C557.857 492.266 557.146 489.961 556.435 487.675C551.613 472.287 550.825 453.46 564.676 430.58C565.618 429.043 569.71 423.03 570.42 419.438H570.44Z" fill="#778EB8"/>
<path d="M548.213 513.052C537.128 484.332 523.354 474.534 508.869 476.244C491.694 478.3 478.862 490.172 477.152 521.928C470.101 652.85 450.487 709.599 402.921 711.001C359.773 712.269 351.225 639.21 321.697 628.51C284.889 615.177 270.942 648.816 228.947 637.462C219.207 634.83 203.877 627.203 192.408 614.87C195.943 621.229 200.362 627.511 205.817 633.581C229.908 660.38 268.099 673.963 303.927 664.453C317.029 660.976 324.56 663.934 332.609 675.173C348.132 696.843 380.463 745.542 454.099 746.08C490.254 746.349 518.09 734.131 537.877 712.98C567.097 650.276 570.267 570.128 548.213 513.014V513.052Z" fill="#DCDDDD"/>
<path d="M546.426 508.673C535.649 483.315 522.586 474.612 508.869 476.245C492.04 478.262 479.361 489.712 477.248 520.104C503.778 529.344 528.81 524.196 546.426 508.673Z" fill="#B5B6B6"/>
<path d="M456.231 731.288C389.608 731.922 361.675 702.357 334.415 663.608C326.462 652.293 315.588 649.296 301.872 653.926C277.627 662.129 250.194 657.711 224.605 649.969C247.447 665.453 276.379 671.773 303.908 664.473C317.01 660.996 324.54 663.954 332.59 675.193C348.112 696.863 380.444 745.562 454.079 746.1C494.672 746.407 522.259 733.478 542.526 709.061C529.021 720.108 491.656 730.923 456.231 731.269V731.288Z" fill="#B5B6B6"/>
<path d="M489.351 342.846C486.507 336.813 479.399 334.201 473.482 337.005C467.565 339.81 465.068 346.957 467.911 352.97C470.754 359.002 477.862 361.615 483.779 358.81C489.696 356.005 492.194 348.859 489.351 342.846Z" fill="#DCDDDD"/>
<path d="M467.45 351.873C470.87 361.402 479.918 360.653 483.779 358.828C488.428 356.638 490.964 351.758 490.465 346.859C485.643 352.815 474.443 355.043 467.45 351.893V351.873Z" fill="#B5B6B6"/>
<path d="M451.755 394.196C456.423 416.596 449.411 423.339 438 425.702C427.03 427.988 417.425 422.186 413.256 402.226C409.087 382.266 415.965 356.965 427.011 355.063C438 353.161 447.586 374.236 451.755 394.196Z" fill="#0E141B"/>
<path d="M524.026 374.447C530.75 395.349 540.855 399.229 550.941 396.098C560.661 393.082 564.177 383.342 558.125 363.862C551.498 342.538 536.129 324.826 525.236 328.668C515.669 332.03 517.783 355.044 524.007 374.447H524.026Z" fill="#0E141B"/>
<path d="M438.749 372.487C439.882 380.825 437.001 388.087 432.352 388.721C427.684 389.355 423.169 383.284 422.055 374.946C420.921 366.609 423.611 359.174 428.279 358.54C432.947 357.906 437.635 364.15 438.768 372.487H438.749Z" fill="white"/>
<path d="M523.431 348.146C525.717 356.119 531.019 361.594 535.265 360.384C539.51 359.174 541.009 351.95 538.703 343.959C536.417 335.986 531.211 330.261 526.965 331.491C522.72 332.701 521.145 340.155 523.431 348.146Z" fill="white"/>
<path d="M415.6 401.553C419.423 419.88 427.972 425.278 437.635 423.261C443.994 421.936 448.816 418.996 450.391 411.773C450.506 411.254 450.487 411.082 450.199 410.544C448.355 407.163 446.261 404.07 443.975 401.303C443.533 400.765 443.225 400.881 443.187 401.611C442.783 409.987 439.46 414.271 435.195 414.981C428.952 416.019 423.304 410.717 420.71 395.098C420.268 392.485 420.095 389.93 420.153 387.491C420.153 386.953 420.076 386.761 419.538 386.703C418.155 386.549 416.772 386.492 415.37 386.549C414.716 386.568 414.505 386.588 414.486 387.298C414.313 392.063 414.678 396.962 415.619 401.534L415.6 401.553Z" fill="#6B2D6B"/>
<path d="M550.268 393.889C558.836 391.238 561.814 382.266 556.204 364.189C554.706 359.348 552.727 354.679 550.48 350.472C550.307 350.165 550.172 350.126 549.884 350.338C548.558 351.26 547.291 352.297 546.08 353.45C545.869 353.661 545.869 353.7 546.023 353.949C547.329 356.332 548.501 359.021 549.442 361.941C554.399 377.291 551.632 384.456 546.829 386.012C543.89 386.973 538.895 385.705 534.246 376.887C533.997 376.426 533.824 376.465 533.728 376.926C533.055 379.98 532.613 383.15 532.421 386.435C532.402 386.858 532.479 387.069 532.671 387.338C537.954 394.6 544.14 395.771 550.268 393.87V393.889Z" fill="#6B2D6B"/>
<path d="M413.352 401.937C408.934 380.766 416.945 356.849 426.992 355.12C438.019 353.179 447.509 373.716 451.659 393.561C455.328 411.139 453.177 422.435 438.058 425.604C426.108 428.102 417.31 420.879 413.352 401.956V401.937ZM427.434 357.809C418.002 359.442 412.085 382.611 416.004 401.399C419.058 416.057 425.705 425.393 437.481 422.934C450.026 420.321 452.581 411.427 448.969 394.118C445.031 375.272 435.848 356.33 427.434 357.809Z" fill="#0E141B"/>
<path d="M524.103 374.158C520.492 362.901 513.653 332.817 525.371 328.686C535.611 325.075 551.152 341.442 558.011 363.516C563.812 382.189 561.507 392.87 550.96 396.136C536.149 400.746 528.656 388.317 524.103 374.158ZM526.697 373.332C533.901 395.732 543.545 395.598 550.153 393.542C555.763 391.794 562.41 386.876 555.398 364.322C548.789 343.056 534.285 328.437 526.274 331.261C518.244 334.085 521.779 358.041 526.697 373.332Z" fill="#0E141B"/>
<path d="M450.679 496.685C446.645 464.084 401.922 461.106 391.202 404.53C381.501 353.41 413.871 303.02 466.701 293.184C516.591 283.886 568.672 317.409 578.047 369.316C588.671 428.102 544.178 439.167 559.009 486.388C608.554 644.013 561.122 750.537 454.31 750.018C380.982 749.481 348.439 702.03 330.592 677.056C322.85 666.221 316.952 663.627 304.58 666.912C265.428 677.286 227.948 662.801 203.704 635.829C159.115 586.226 181.074 524.694 205.51 514.877C212.426 512.092 214.193 513.629 210.236 521.217C202.013 536.97 207.354 572.894 228.659 589.627C261.221 615.196 296.973 570.493 340.428 572.068C400.692 574.258 409.049 623.496 439.018 616.407L435.291 620.46C405.284 621.69 395.352 578.581 340.485 576.89C299.316 575.661 260.741 620.211 225.854 592.816C207.392 578.312 195.27 543.233 207.316 519.738C208.68 517.087 208.699 517.029 206.855 517.855C183.436 528.594 166.416 587.341 207.047 632.544C231.733 659.996 269.597 671.926 303.524 662.936C311.4 660.842 322.37 658.248 333.954 674.289C346.959 692.309 382.307 743.986 454.118 744.524C565.099 745.581 597.95 625.897 554.917 488.193C539.28 438.168 584.002 423.472 573.59 370.315C563.812 320.386 515.977 288.765 467.469 297.794C418.635 306.9 386.803 354.351 395.563 403.762C404.899 456.476 450.256 459.665 454.675 496.012C460.304 542.406 456.865 613.006 432.121 623.63C428.644 625.128 427.645 623.092 430.853 621.728C451.217 613.295 456.711 545.519 450.679 496.742V496.685Z" fill="#0E141B"/>
<path d="M573.706 327.515C573.744 308.957 577.51 277.797 588.306 238.108C590.611 229.616 584.714 227.119 580.122 233.939C566.079 254.917 556.262 304.212 554.783 327.4L558.76 331.876C559.221 311.705 569.441 253.957 582.754 235.879C585.617 231.999 586.443 232.652 585.156 237.224C575.473 271.477 571.132 305.749 570.92 327.611C570.863 333.739 573.687 333.835 573.687 327.534L573.706 327.515Z" fill="#0E141B"/>
<path d="M574.416 344.727C574.839 346.206 575.53 347.32 576.645 347.743C580.372 348.722 584.963 343.536 590.323 336.235C591.86 334.141 593.166 334.699 592.109 337.196C587.595 347.877 581.102 352.622 575.377 351.066C574.032 350.701 572.687 348.05 572.61 345.188C572.514 341.73 573.609 341.787 574.435 344.707L574.416 344.727Z" fill="#0E141B"/>
<path d="M578.432 272.341C580.545 292.858 588.537 326.112 594.569 333.431C597.988 337.581 603.156 334.718 604.501 335.314C606.095 338.138 587.672 361.076 583.619 366.436C579.661 371.68 578.95 379.998 582.062 384.609C586.635 391.371 596.144 399.267 603.924 403.858C606.806 405.568 607.92 403.685 605.039 401.803C599.16 397.98 589.324 388.835 585.136 382.65C583.042 379.537 583.426 372.814 586.788 368.337C597.835 353.699 611.666 337.312 607.882 332.644C605.404 329.57 599.448 334.2 597.085 331.337C591.437 324.479 581.179 280.236 581.39 260.795L578.432 272.321V272.341Z" fill="#0E141B"/>
<path d="M576.165 394.061C584.752 402.802 608.631 415.481 615.508 415.481C621.06 415.481 622.847 405.914 620.58 402.629C609.899 387.145 599.544 369.759 599.006 348.857L595.644 353.526C597.2 373.678 607.382 390.007 617.756 405.03C618.525 406.144 617.679 411.984 615.508 411.984C608.016 411.984 579.872 394.56 576.971 389.162L576.165 394.061Z" fill="#0E141B"/>
<path d="M466.47 353.641C463.243 346.821 466.086 338.676 472.81 335.487C479.534 332.298 487.641 335.276 490.868 342.115C494.115 348.992 491.291 357.061 484.529 360.269C477.651 363.516 469.659 360.384 466.49 353.641H466.47ZM474.212 338.445C469.122 340.847 466.97 347.052 469.429 352.239C471.984 357.637 478.343 359.558 483.126 357.31C488.256 354.89 490.311 348.589 487.91 343.517C485.528 338.484 479.611 335.91 474.212 338.445Z" fill="#0E141B"/>
<path d="M403.42 400.073C402.479 386.856 332.359 308.226 320.141 299.504C312.572 294.106 308.288 295.374 314.589 306.324C329.651 332.489 349.957 368.663 351.397 398.959C351.551 402.186 342.042 405.779 341.888 410.543C341.773 413.886 352.934 412.214 357.583 417.689C369.475 431.656 374.988 443.624 374.393 467.503C374.239 473.977 377.428 475.111 381.904 469.962C389.108 461.682 406.533 439.84 406.11 423.241C405.995 418.727 401.826 415.154 401.519 411.177C401.211 407.431 403.766 404.799 403.42 400.073Z" fill="#DCDDDD"/>
<path d="M394.084 439.206C399.002 429.062 396.005 416.921 391.202 415.307C388.974 414.558 362.425 412.637 342.618 411.83C345.192 413.54 353.664 413.117 357.564 417.689C369.456 431.656 374.969 443.624 374.374 467.503C374.22 473.977 377.409 475.111 381.885 469.962C386.323 464.852 394.66 454.574 400.308 443.566C394.584 451.558 391.375 444.796 394.084 439.206Z" fill="#B5B6B6"/>
<path d="M377.774 400.092C372.741 402.763 373.144 403.781 381.366 403.781C384.555 403.781 388.974 402.302 388.974 399.766C388.974 397.691 385.151 391.563 379.541 383.725C385.228 395.424 381.097 398.306 377.774 400.092Z" fill="#B5B6B6"/>
<path d="M556.858 416.384C561.315 434.461 548.213 452.327 512.384 461.625C479.399 470.193 452.427 461.126 448.066 443.49C443.552 425.24 458.959 406.317 495.46 397.884C524.506 391.179 552.189 397.576 556.838 416.384H556.858Z" fill="#DCDDDD"/>
<path d="M512.384 451.272C480.264 457.784 451.524 450.791 447.874 432.003C447.048 435.788 447.125 439.668 448.066 443.491C452.427 461.127 479.38 470.194 512.384 461.626C541.028 454.192 555.148 441.282 557.376 427.162C550.998 437.767 535.764 446.527 512.384 451.272Z" fill="#B5B6B6"/>
<path d="M390.895 442.07C397.945 432.234 394.68 418.191 390.703 416.865C388.378 416.097 363.404 414.118 358.006 413.676C354.567 413.388 354.471 411.582 357.891 411.448C363.712 411.236 389.032 412.37 391.99 413.349C399.137 415.732 402.306 431.485 392.47 443.76C390.338 446.411 388.878 444.874 390.876 442.07H390.895Z" fill="#0E141B"/>
<path d="M405.803 399.766C406.187 405.145 403.151 407.835 403.42 411.178C403.728 415.116 408.684 417.632 408.819 423.069C409.261 440.167 391.529 462.413 383.153 471.019C375.872 478.492 372.817 476.072 372.779 467.446C372.664 443.529 367.285 432.156 356.162 419.112C351.474 413.617 339.544 415.769 339.352 410.697C339.198 406.567 349.399 401.188 349.342 399.44C347.882 368.568 326.346 331.875 312.86 306.959C306.425 295.067 311.247 291.667 321.102 298.179C336.816 308.553 404.804 385.934 405.803 399.766ZM401.787 400.189C400.961 388.509 332.551 310.378 319.2 300.83C312.438 295.989 311.323 297.353 316.011 305.498C329.305 328.571 351.532 367.204 353.03 398.863C353.203 402.417 347.574 405.049 344.885 407.931C342.772 410.198 343.041 410.64 345.788 411.235C349.303 412.004 355.432 412.638 358.813 416.595C370.455 430.254 376.64 442.414 376.026 467.504C375.91 472.403 377.217 472.825 380.675 468.849C387.975 460.453 404.9 439.187 404.496 423.242C404.4 419.4 400.251 415.596 399.905 411.274C399.559 406.836 402.133 404.857 401.807 400.15L401.787 400.189Z" fill="#0E141B"/>
<path d="M383.172 402.571C385.266 402.282 387.36 400.63 387.36 399.766C387.36 394.329 352.146 349.472 337.757 333.296C335.606 330.895 337.027 329.204 339.352 331.548C357.641 350.067 391.548 392.331 391.548 399.919C391.548 403.224 386.572 404.934 383.249 404.626C380.252 404.338 380.348 402.955 383.191 402.571H383.172Z" fill="#0E141B"/>
<path d="M559.028 415.731C564.177 436.536 546.637 454.978 512.922 463.739C476.21 473.267 449.872 461.26 445.665 444.278C440.862 424.875 457.71 404.012 494.941 395.425C526.985 388.029 554.379 396.923 559.028 415.731ZM495.844 399.478C461.303 407.451 445.262 425.278 449.661 443.087C453.196 457.361 475.749 469.444 511.981 460.05C543.737 451.809 559.931 435.633 555.263 416.768C550.825 398.825 523.45 393.1 495.844 399.478Z" fill="#0E141B"/>
</g>
<defs>
<clipPath id="clip0_42_72381">
<rect width="443.522" height="520" fill="white" transform="translate(178 230)"/>
</clipPath>
</defs>
</svg>
