<svg width="800" height="800" viewBox="0 0 800 800" fill="none" xmlns="http://www.w3.org/2000/svg">
<g clip-path="url(#clip0_42_72418)">
<path d="M406.361 195.813C406.418 194.745 406.446 193.762 406.446 192.893C406.503 185.658 403.641 177.611 399.496 173.965C399.496 172.156 399.453 170.291 399.382 168.354C399.083 159.167 396.591 153.499 390.851 147.802C388.743 135.639 380.269 122.094 380.668 141.407C381.38 175.276 368.448 216.536 367.394 223.7C365.499 236.461 366.938 244.123 370.669 248.795C379.158 232.316 391.848 221.193 411.374 216.635C411.146 208.261 410.904 198.733 406.347 195.799L406.361 195.813Z" fill="white"/>
<path d="M411.388 216.649C411.16 208.275 410.918 198.747 406.361 195.813C406.418 194.745 406.446 193.762 406.446 192.893C406.503 185.658 403.64 177.611 399.496 173.965C399.496 172.156 399.453 170.29 399.382 168.353C399.083 159.167 396.59 153.499 390.851 147.802C390.01 142.931 388.13 137.832 386.222 134.713C386.108 135.938 386.065 137.447 386.108 139.256C386.82 173.125 374.515 216.963 373.461 224.127C372.222 232.458 372.535 238.526 373.988 242.998C382.377 229.695 394.255 220.637 411.388 216.649Z" fill="#DCDDDD"/>
<path d="M312.247 664.188C226.266 669.814 186.116 626.075 172.672 566.613C160.266 511.694 204.646 436.509 220.654 421.739C226.764 416.1 229 416.712 223.246 423.619C214.843 433.689 177.115 508.433 197.767 558.78C210.628 590.142 234.74 616.248 303.787 609.839C301.252 625.249 306.579 654.731 312.247 664.188Z" fill="#00A5E3"/>
<path d="M211.525 636.742C234.185 656.368 266.814 667.164 312.233 664.187C309.883 660.271 307.59 652.922 305.895 644.561C263.211 649.247 230.382 644.134 211.511 636.742H211.525Z" fill="#0090C6"/>
<path d="M216.894 628.71C199.547 615.621 185.29 596.764 175.036 575.928C190.489 630.562 230.823 669.515 312.247 664.188C310.467 661.211 308.715 656.269 307.234 650.401C271.798 654.66 238.514 645.018 216.894 628.71Z" fill="white"/>
<path d="M249.424 645.132C233.686 643.508 220.882 640.403 211.525 636.729C234.185 656.355 266.814 667.15 312.233 664.174C310.453 661.197 308.701 656.255 307.22 650.387C286.597 652.865 266.7 650.643 249.41 645.132H249.424Z" fill="#DCDDDD"/>
<path d="M628.642 632.783C627.702 587.563 585.915 554.848 517.95 554.848C468.215 554.848 430.43 572.324 393.842 587.036C391.036 564.277 396.291 531.704 419.165 486.641C479.438 367.917 491.117 330.986 490.006 274.8C489.337 240.946 461.764 213.486 426.927 213.486C388.928 213.486 364.873 238.596 364.289 275.441C363.975 295.195 371.381 302.459 371.495 311.189C371.652 323.267 348.793 334.732 372.279 350.384C389.54 361.892 408.981 358.317 430.843 344.787C393.044 457.815 298.987 496.739 300.625 623.368C301.408 684.44 347.995 733.263 432.837 736.524C530.683 740.284 630.123 703.852 628.642 632.783Z" fill="#00A5E3"/>
<path d="M427.439 393.511C427.439 386.603 423.252 380.679 417.228 378.172C412.271 388.426 406.888 398.083 401.233 407.298C403.911 409.092 407.144 410.132 410.619 410.132C419.905 410.132 427.425 402.697 427.425 393.511H427.439Z" fill="#0090C6"/>
<path d="M470.993 375.565C486.802 334.704 490.647 308.142 489.992 274.815C489.807 265.714 487.685 257.083 483.996 249.307C468.629 296.079 427.924 368.43 368.975 348.049C379.87 358.005 400.037 363.872 430.829 344.802C428.365 352.151 425.674 359.187 422.782 365.952C434.831 361.195 457.534 366.037 470.993 375.565Z" fill="#0090C6"/>
<path d="M460.938 605.623C433.578 611.462 412.101 616.02 399.909 608.714C404.039 617.359 409.509 623.341 414.736 627.086C449.601 652.053 519.93 621.29 523.263 610.85C525.157 605.538 510.074 595.141 460.938 605.637V605.623Z" fill="#0090C6"/>
<path d="M366.468 263.379C365.528 267.452 368.818 279.216 373.831 279.216C378.845 279.216 385.125 266.825 384.185 259.932C383.245 253.039 366.468 263.379 366.468 263.379Z" fill="#0090C6"/>
<path d="M628.642 632.783C628.471 624.665 626.99 616.946 624.27 609.739C615.696 645.203 568.909 676.835 495.846 688.442C404.125 703.027 352.04 659.132 353.792 592.947C356.612 485.702 404.125 461.704 419.649 405.261C423.722 390.449 419.45 382.658 416.459 379.781C373.432 467.5 299.173 510.74 300.64 623.369C301.423 684.44 348.01 733.263 432.852 736.525C530.697 740.285 630.137 703.853 628.656 632.783H628.642Z" fill="white"/>
<path d="M628.642 632.784C628.557 628.796 628.158 624.893 627.446 621.119C621.207 686.62 525.84 720.047 431.954 716.429C383.089 714.549 340.362 698.042 312.746 672.719C331.731 708.98 372.663 734.218 432.852 736.54C530.697 740.3 630.137 703.867 628.656 632.798L628.642 632.784Z" fill="#DCDDDD"/>
<path d="M418.837 408.023C419.108 407.112 419.364 406.2 419.62 405.275C423.694 390.462 419.421 382.672 416.43 379.795C411.687 389.451 406.574 398.566 401.219 407.311C403.897 409.106 407.13 410.145 410.605 410.145C413.596 410.145 416.387 409.376 418.823 408.023H418.837Z" fill="#DCDDDD"/>
<path d="M218.504 457.873C214.416 466.034 204.888 469.352 196.642 465.236C188.395 461.106 184.578 451.108 188.666 442.933C192.753 434.772 203.934 431.881 212.166 435.997C220.412 440.127 222.591 449.698 218.504 457.873Z" fill="#1D2088"/>
<path d="M193.608 454.368C190.987 453.115 188.737 451.05 187.056 448.814C186.586 455.422 190.318 462.074 196.641 465.235C204.888 469.366 214.416 466.047 218.504 457.872C220.084 454.71 220.725 451.335 220.441 448.145C215.399 456.177 203.221 458.955 193.594 454.368H193.608Z" fill="#191978"/>
<path d="M182.157 488.963C183.481 485.83 186.914 483.48 190.546 484.534C193.864 485.488 195.815 489.049 195.473 491.969C195.103 493.678 194.747 495.387 194.419 497.11C204.019 497.723 213.148 492.353 216.552 483.252C220.782 471.987 214.658 459.282 202.879 454.853C191.101 450.438 178.026 456.263 173.796 467.529C170.449 476.459 173.668 486.129 181.032 491.954C181.388 490.943 181.786 489.975 182.157 488.978V488.963Z" fill="#1D2088"/>
<path d="M186.828 482.896C180.12 480.788 174.993 476.145 172.743 471.588C171.532 479.279 174.794 486.998 181.046 491.955C181.402 490.943 181.801 489.975 182.171 488.978C183.496 485.845 186.928 483.495 190.56 484.548C193.878 485.503 195.83 489.063 195.488 491.983C195.118 493.692 194.761 495.401 194.434 497.125C204.033 497.737 213.163 492.368 216.567 483.267C217.492 480.788 217.92 478.253 217.905 475.732C209.759 483.851 196.684 486.001 186.828 482.911V482.896Z" fill="#191978"/>
<path d="M199.176 439.158C197.14 439.03 195.36 440.44 195.231 442.335C195.103 444.229 196.698 445.881 198.721 446.009C200.757 446.137 202.509 444.713 202.623 442.819C202.737 440.925 201.199 439.287 199.162 439.158H199.176Z" fill="#8F82BC"/>
<path d="M191.756 458.229C189.221 458.229 187.127 460.109 187.127 462.43C187.127 464.752 189.221 466.66 191.756 466.66C194.291 466.66 196.342 464.766 196.342 462.444C196.342 460.123 194.291 458.229 191.756 458.229Z" fill="#8F82BC"/>
<path d="M444.673 296.962C443.334 301.818 438.762 306.362 430.9 309.808C423.836 312.913 417.584 313.383 415.86 312.244C412.869 310.278 411.274 294.868 414.151 283.446C418.011 268.164 426.343 260.615 430.672 260.615C435.002 260.615 441.368 266.654 443.633 277.735C444.915 284.044 445.627 293.472 444.673 296.962Z" fill="#0E141B"/>
<path d="M428.793 284.172C428.251 289.456 425.232 293.415 422.099 293.088C418.965 292.76 416.872 288.288 417.427 282.99C417.968 277.706 420.959 273.675 424.107 274.003C427.254 274.331 429.348 278.874 428.807 284.172H428.793Z" fill="white"/>
<path d="M442.964 297.189C444.089 294.554 443.377 285.51 442.095 278.204C442.009 277.691 441.881 277.62 441.425 277.834C439.189 278.902 437.01 280.312 434.959 282.007C434.689 282.235 434.674 282.334 434.774 282.69C435.002 283.459 435.201 284.243 435.372 285.055C436.925 292.703 435.486 298.314 431.897 299.297C429.49 299.952 427.112 298.272 425.232 295.224C425.032 294.896 424.99 294.925 424.833 295.252C422.369 300.579 421.329 306.091 421.657 311.118C431.57 309.438 440.3 303.399 442.964 297.203V297.189Z" fill="#B9446F"/>
<path d="M415.946 312.102C412.827 310.023 411.431 294.812 414.279 283.39C417.911 268.805 426.243 260.744 430.615 260.744C435.301 260.744 441.454 267.139 443.605 277.835C444.872 284.144 445.598 293.26 444.644 296.763C443.263 301.848 438.563 306.32 431.057 309.667C425.36 312.202 418.267 313.64 415.946 312.102ZM430.615 262.752C428.023 262.752 419.919 269.033 416.231 283.86C413.325 295.553 415.276 309.225 417.057 310.407C418.111 311.12 423.423 310.849 430.231 307.815C437.167 304.725 441.482 300.708 442.693 296.236C443.533 293.146 442.821 284.187 441.625 278.234C439.503 267.68 433.806 262.752 430.615 262.752Z" fill="#0E141B"/>
<path d="M414.038 628.069C390.381 611.135 377.591 565.858 418.082 486.115C477.359 369.356 489.921 331.842 488.796 274.844C488.127 241.132 460.952 214.712 426.927 214.712C390.196 214.712 366.083 238.568 365.5 275.47C365.186 294.783 372.592 301.99 372.706 311.19C372.877 324.478 350.388 334.363 372.948 349.403C393.813 363.303 419.535 355.869 455.611 325.091C457.605 323.382 458.673 324.678 456.793 326.387C417.869 361.594 392.332 366.664 371.182 352.137C345.147 334.263 370.043 322.769 369.886 311.219C369.772 302.958 361.455 295.025 361.768 275.314C362.38 236.959 389.128 211.023 427.312 211.023C462.661 211.023 491.844 239.708 492.542 274.758C493.638 330.304 477.402 379.853 422.455 488.081C382.263 567.24 395.323 608.287 417.285 624.024C449.031 646.77 513.393 622.287 521.411 611.747C523.291 609.284 524.829 610.864 523.277 613.357C515.814 625.392 448.746 652.922 414.038 628.069Z" fill="#0E141B"/>
<path d="M394.141 583.405C429.576 568.877 466.535 551.245 517.623 551.245C582.867 551.245 631.32 580.841 632.402 632.156C633.897 704.223 537.889 743.731 433.578 739.715C356.071 736.738 297.421 695.62 296.538 623.369C294.971 494.162 389.498 458.541 427.625 346.468L432.439 343.805C394.81 458.328 300.212 496.697 301.822 623.354C302.691 690.849 357.324 732.408 432.866 735.314C532.933 739.159 628.856 701.688 627.417 632.811C626.392 583.561 578.737 556.073 517.936 556.073C467.774 556.073 431.157 573.364 394.682 588.09L394.127 583.419L394.141 583.405Z" fill="#0E141B"/>
<path d="M214.103 437.206C217.635 430.171 220.654 425.115 222.306 422.85C224.87 419.361 224.784 419.574 221.466 422.636C218.617 425.257 214.986 429.658 210.984 435.426L208.933 434.557C213.447 428.319 217.435 423.676 220.327 421.112C227.704 414.561 228.715 417.182 224.087 423.776C222.434 426.14 219.429 431.41 215.954 438.716L214.088 437.192L214.103 437.206Z" fill="#0E141B"/>
<path d="M370.484 246.359C367.622 241.502 366.881 234.21 368.604 223.884C370.356 213.402 382.334 177.696 381.892 141.392C381.807 134.029 382.804 132.961 383.018 132.947C384.499 132.847 389.441 142.119 390.068 151.22C391.52 172.17 389.341 195.442 383.986 211.009C383.302 212.989 384.784 213.573 385.638 211.593C391.478 198.049 394.07 170.76 392.688 150.792C392.147 142.916 387.219 130.269 382.904 130.511C380.369 130.625 379.628 133.944 379.628 141.378C379.671 179.249 366.995 213.73 365.514 223.699C363.762 235.549 364.887 244.393 369.16 249.578L370.47 246.359H370.484Z" fill="#0E141B"/>
<path d="M391.122 149.81C395.964 155.037 397.915 160.321 398.186 168.396C398.77 186.712 397.402 199.772 392.93 212.305C392.175 214.442 393.614 215.296 394.454 213.131C399.112 201.097 401.561 184.205 401.034 168.211C400.778 160.093 398.627 152.772 390.452 145.395L391.122 149.824V149.81Z" fill="#0E141B"/>
<path d="M405.136 216.607C406.474 210.383 407.813 198.932 407.856 193.135C407.913 184.861 404.11 175.033 399.396 171.615L399.538 175.703C402.871 179.349 405.278 186.385 405.235 192.893C405.193 199.559 403.783 212.434 402.444 217.49L405.136 216.607Z" fill="#0E141B"/>
<path d="M412.927 214.768C413.169 205.824 411.816 196.567 406.347 193.49V197.307C409.565 200.255 409.95 208.374 410.149 215.367L412.927 214.783V214.768Z" fill="#0E141B"/>
<path d="M195.317 495.957C204.19 496.228 212.308 491.087 215.413 482.812C219.401 472.187 213.59 460.152 202.452 455.979C190.987 451.678 178.782 457.674 174.936 467.943C171.86 476.132 174.566 484.934 181.132 490.488L179.992 493.294C171.874 486.914 168.897 476.104 172.344 466.903C177.158 454.056 191.771 449.271 203.236 453.572C215.612 458.215 222.435 471.646 217.977 483.524C214.53 492.71 205.372 499.262 194.605 498.706L195.303 495.957H195.317Z" fill="#0E141B"/>
<path d="M213.305 462.486C214.971 461.133 216.381 459.41 217.421 457.331C220.882 450.437 219.913 441.237 211.624 437.092C204.033 433.289 193.537 435.896 189.748 443.487C188.11 446.763 187.84 450.494 188.765 453.955L186.159 454.924C184.948 450.679 185.319 446.136 187.256 442.291C191.457 433.888 203.549 430.042 212.65 434.614C221.879 439.229 224.001 450.195 219.856 458.442C218.575 461.005 216.809 463.099 214.743 464.708L213.305 462.501V462.486Z" fill="#0E141B"/>
<path d="M308.387 663.191C257.613 665.584 193.095 651.527 173.854 566.357C168.484 542.615 174.082 514.529 183.396 489.32C184.536 486.215 188.224 485.119 190.204 485.703C192.981 486.5 194.918 489.42 194.263 492.397C189.378 514.686 188.253 538.812 196.627 559.25C207.765 586.411 228.402 616.875 300.155 611.349L300.454 607.133C236.591 612.716 213.633 590.014 200.572 558.154C192.525 538.542 192.682 515.697 197.126 493.351C198.237 487.754 194.847 484.107 191.172 483.039C185.561 481.416 181.744 485.076 180.548 488.181C170.806 513.276 164.439 541.647 170.165 566.927C186.259 638.096 233.202 670.412 310.025 666.966L308.387 663.177V663.191Z" fill="#0E141B"/>
<path d="M530.64 166.786C531.979 161.188 532.292 150.749 528.632 142.801C529.316 139.711 529.828 136.649 530.17 133.615C532.022 116.681 526.125 120.199 521.468 129.613C504.776 163.325 474.041 203.773 458.474 221.448C448.732 232.5 444.075 251.499 453.518 266.838C461.792 280.269 477.601 282.477 485.036 277.606C491.132 273.603 493.852 267.764 493.311 260.671C500.817 258.378 510.046 250.032 517.195 240.518C523.861 231.645 530.597 210.681 526.282 202.876C527.763 199.6 528.988 196.395 529.857 193.447C532.435 184.56 531.68 174.889 529.43 171.201C529.885 169.719 530.284 168.252 530.64 166.8V166.786Z" fill="white"/>
<path d="M528.632 142.802C529.059 140.85 529.429 138.913 529.728 136.991C528.19 133.644 524.53 137.304 521.411 143.613C504.719 177.325 482.102 209.242 466.535 226.903C453.759 241.402 453.033 259.304 464.028 271.211C467.788 275.27 468.343 277.492 467.261 278.332C473.941 280.853 480.834 280.369 485.036 277.606C491.131 273.604 493.852 267.764 493.31 260.672C500.816 258.379 510.045 250.033 517.195 240.519C523.86 231.646 530.597 210.681 526.282 202.876C527.763 199.6 528.988 196.396 529.856 193.448C532.434 184.56 531.679 174.89 529.429 171.201C529.885 169.72 530.284 168.253 530.64 166.8C531.979 161.203 532.292 150.763 528.632 142.816V142.802Z" fill="#DCDDDD"/>
<path d="M341.301 249.578C341.914 247.299 378.26 248.424 380.582 250.048C382.918 251.686 384.043 258.963 382.704 262.98C380.069 270.884 374.913 272.764 372.122 272.152C368.319 271.312 340.846 251.301 341.316 249.578H341.301Z" fill="white"/>
<path d="M349.761 252.512C346.315 251.458 344.007 251.116 342.654 251.316C348.166 256.614 368.86 271.44 372.122 272.152C374.856 272.751 379.884 270.956 382.561 263.422C371.851 259.576 358.079 255.062 349.775 252.512H349.761Z" fill="#DCDDDD"/>
<path d="M426.186 385.022C426.186 394.408 418.652 401.999 409.38 401.999C400.108 401.999 392.574 394.393 392.574 385.022C392.574 375.65 400.251 368.045 409.537 368.045C418.823 368.045 426.201 375.65 426.201 385.022H426.186Z" fill="#1D2088"/>
<path d="M424.392 377.316C421.985 386.46 412.514 393.282 401.761 393.282C399.268 393.282 395.651 392.57 393.999 391.886C396.605 397.84 402.515 401.998 409.38 401.998C418.666 401.998 426.186 394.393 426.186 385.022C426.186 382.244 425.545 379.624 424.392 377.316Z" fill="#191978"/>
<path d="M407.016 382.644C405.478 384.923 402.515 385.635 400.393 384.211C398.271 382.787 397.787 379.781 399.325 377.503C400.863 375.224 403.826 374.512 405.948 375.936C408.07 377.36 408.554 380.365 407.016 382.644Z" fill="#8F82BC"/>
<path d="M409.509 403.623C399.567 403.623 390.694 394.963 390.694 384.922C390.694 374.881 399.496 366.336 409.509 366.336C419.521 366.336 427.739 374.881 427.739 384.922C427.739 394.963 419.45 403.623 409.509 403.623ZM409.509 369.241C400.821 369.241 393.771 376.32 393.771 385.008C393.771 393.696 400.764 400.774 409.366 400.774C417.969 400.774 424.962 393.696 424.962 385.008C424.962 376.32 418.026 369.241 409.509 369.241Z" fill="#0E141B"/>
<path d="M451.766 267.922C441.995 252.056 446.866 231.675 456.779 220.409C472.204 202.906 503.337 162.77 520.044 129.03C526.253 116.497 533.574 115.97 531.808 133.972C529.543 157.13 515.116 186.299 492.884 212.063C491.103 214.114 489.864 212.761 491.587 210.653C512.68 184.875 526.481 156.162 528.96 133.502C530.469 119.701 527.322 120.542 522.55 130.17C505.744 164.109 474.881 204.672 459.371 222.261C450.042 232.857 445.385 251.344 454.543 266.213C462.262 278.732 477.26 281.267 484.367 276.596C492.94 270.97 494.464 261.214 488.654 249.122C484.153 239.751 476.462 236.318 472.389 238.326C467.546 240.719 466.264 249.222 470.594 257.995C471.862 260.559 473.215 262.211 474.724 263.308C476.818 264.803 476.248 266.284 473.941 265.031C472.987 264.504 469.597 262.496 467.988 259.234C463.302 249.72 464.1 239.053 471.363 235.478C476.904 232.743 486.318 236.931 491.431 247.555C497.84 260.872 496.287 273.163 486.574 279.544C478.798 284.643 460.624 282.307 451.766 267.936V267.922Z" fill="#0E141B"/>
<path d="M528.176 144.824C531.081 152.401 530.626 161.659 529.458 166.515C524.231 188.292 507.482 211.294 500.645 219.839C498.922 222.004 500.004 223.157 501.827 221.135C510.886 211.023 526.923 189.375 532.292 167.042C533.688 161.26 534.058 148.228 529.23 140.58L528.176 144.839V144.824Z" fill="#0E141B"/>
<path d="M528.803 172.582C530.441 176.228 531.138 184.674 528.689 193.105C525.057 205.624 514.518 223.057 506.642 231.702C504.676 233.853 505.702 235.177 507.824 233.226C515.928 225.763 528.361 204.898 531.58 193.832C534.528 183.663 532.919 171.884 529.814 168.779L528.803 172.582Z" fill="#0E141B"/>
<path d="M493.012 262.666C501.728 260.302 512.153 250.333 518.648 241.702C525.712 232.302 532.52 209.599 527.108 201.367L525.527 204.073C528.903 211.807 522.479 231.461 516.227 239.793C508.664 249.863 499.82 257.34 493.097 259.476L493.012 262.666Z" fill="#0E141B"/>
<path d="M371.965 274.188C368.405 273.405 348.01 258.28 342.014 252.042C339.421 249.35 339.664 248.381 343.31 247.812C352.254 246.402 379.044 246.587 381.522 248.324C384.47 250.389 385.524 259.334 384.114 263.578C381.522 271.354 375.868 275.057 371.965 274.203V274.188ZM343.082 250.09C347.298 254.491 369.274 270.3 372.378 270.984C374.771 271.511 379.186 269.716 381.55 262.609C382.79 258.892 381.593 252.241 379.884 251.045C377.021 249.592 348.95 248.965 343.082 250.09Z" fill="#0E141B"/>
</g>
<defs>
<clipPath id="clip0_42_72418">
<rect width="464.416" height="620" fill="white" transform="translate(168 120)"/>
</clipPath>
</defs>
</svg>
