<svg width="800" height="800" viewBox="0 0 800 800" fill="none" xmlns="http://www.w3.org/2000/svg">
<g clip-path="url(#clip0_42_72469)">
<path d="M627.267 282.968C621.499 267.439 617.384 268.234 616.359 284.482C611.218 365.416 565.917 452.101 481.664 462.367L462.631 626.36C664.704 572.874 661.889 376.171 627.267 282.983V282.968Z" fill="#FABE00"/>
<path d="M636.462 459.552C603.217 512.35 543.657 532.148 516.057 531.046L494.485 527.512L492.71 616.768C578.202 584.747 620.061 523.687 636.462 459.537V459.552Z" fill="#D8A500"/>
<path d="M533.131 555.358C530.958 572.646 523.982 589.475 519.897 604.943C607.684 560.758 639.843 481.646 644.54 407.75C630.388 462.598 591.895 538.482 533.146 555.358H533.131Z" fill="#FFF3C3"/>
<path d="M636.432 459.598C627.971 473.015 617.843 484.306 606.95 493.654C588.025 522.539 563.255 546.697 533.131 555.356C530.958 572.644 523.982 589.473 519.897 604.941C587.275 571.022 621.867 516.526 636.432 459.598Z" fill="#DCD2A9"/>
<path d="M534.37 553.046L533.957 556.871C598.78 538.191 632.515 453.938 643.546 416.102L644.097 403.848C626.38 476.137 583.511 538.252 534.355 553.046H534.37Z" fill="#0E141B"/>
<path d="M628.92 280.979C622.601 263.997 615.9 265.527 614.691 284.514C610.438 351.509 573.521 438.945 495.097 457.549L498.478 461.404C588.055 439.036 614.569 337.097 617.904 284.636C618.899 269.061 621.178 268.663 626.242 282.295C654.99 359.633 664.628 528.277 521.289 601.806L519.545 608.461C661.186 536.768 662.563 371.566 628.889 280.979H628.92Z" fill="#0E141B"/>
<path d="M542.999 552.664C542.326 565.455 536.925 586.445 527.898 600.383L532.641 597.537C542.525 579.989 545.095 566.281 545.646 551.486L542.999 552.649V552.664Z" fill="#0E141B"/>
<path d="M562.658 542.077C563.76 555.984 562.398 568.851 558.573 580.509L562.046 578.045C565.886 564.613 566.544 556.122 565.152 540.547L562.658 542.061V542.077Z" fill="#0E141B"/>
<path d="M583.572 524.084L581.446 526.287C583.618 535.222 584.23 546.436 583.205 557.559L586.051 554.499C587.03 544.417 586.28 532.85 583.572 524.084Z" fill="#0E141B"/>
<path d="M598.856 505.604L596.791 508.159C598.841 516.849 600.157 526.977 600.585 536.86L603.003 533.158C602.865 523.305 601.213 513.911 598.841 505.604H598.856Z" fill="#0E141B"/>
<path d="M611.876 487.045L610.163 489.202C612.32 495.444 614.492 503.828 615.885 511.554L617.751 508.495C616.573 500.631 614.309 492.736 611.861 487.045H611.876Z" fill="#0E141B"/>
<path d="M623.213 465.197L621.989 467.951C624.115 472.679 626.273 479.211 627.665 486.264L629.088 481.981C627.848 475.295 625.661 469.818 623.213 465.197Z" fill="#0E141B"/>
<path d="M630.082 450.418L628.95 453.095C630.832 456.706 632.852 461.051 634.534 465.212L635.575 461.265C633.831 457.226 631.811 453.6 630.067 450.418H630.082Z" fill="#0E141B"/>
<path d="M635.422 437.109L634.473 439.787C635.728 442.036 637.426 444.744 638.65 447.926L639.369 444.285C637.977 441.623 636.615 439.144 635.422 437.109Z" fill="#0E141B"/>
<path d="M180.757 355.487C172.893 349.948 157.242 350.79 155.636 352.825C154.351 354.477 159.705 365.033 170.568 371.995L180.757 355.487Z" fill="white"/>
<path d="M162.964 371.674C153.418 372.974 142.035 378.895 141.79 381.481C141.652 382.995 150.694 391.532 164.249 395.112L162.964 371.674Z" fill="white"/>
<path d="M164.479 397.729C159.155 402.578 154.274 412.63 154.84 413.777C155.927 415.95 171.425 415.323 181.415 413.364L164.479 397.729Z" fill="white"/>
<path d="M155.575 353.007C154.657 355.073 160.012 365.232 170.568 371.994L174.454 365.691C173.903 365.323 173.245 364.941 172.496 364.543C164.387 360.29 159.185 356.251 155.575 352.992V353.007Z" fill="#DCDDDD"/>
<path d="M141.79 381.465C141.652 382.979 150.694 391.516 164.249 395.096L163.791 386.666C155.468 385.198 148.002 383.591 141.851 381.266C141.836 381.327 141.79 381.403 141.79 381.465Z" fill="#DCDDDD"/>
<path d="M172.832 405.424L169.757 403.527C166.238 408.132 160.44 411.162 154.856 413.166C154.81 413.441 154.81 413.655 154.856 413.763C155.942 415.935 171.44 415.308 181.431 413.349L172.832 405.409V405.424Z" fill="#DCDDDD"/>
<path d="M304.865 276.328C287.485 266.736 280.723 249.386 282.544 233.674C250.461 260.968 216.466 305.351 198.658 348.419C220.459 322.838 250.262 319.013 267.52 334.772C293.62 325.378 317.625 311.578 330.048 292.194C330.951 289.271 331.563 286.518 331.869 283.901C323.072 283.565 313.907 281.316 304.865 276.328Z" fill="#5EC2D0"/>
<path d="M304.865 276.328C287.485 266.736 280.723 249.386 282.544 233.674C250.461 260.968 216.466 305.351 198.658 348.419C220.459 322.838 250.262 319.013 267.52 334.772C293.62 325.378 317.625 311.578 330.048 292.194C330.951 289.271 331.563 286.518 331.869 283.901C323.072 283.565 313.907 281.316 304.865 276.328Z" fill="#5EC2D0"/>
<path d="M290.591 333.625L293.115 332.233C294.248 309.697 295.043 287.987 307.864 279.588L293.207 267.379C290.132 284.392 288.296 318.586 290.591 333.625Z" fill="#50A9B5"/>
<path d="M572.894 388.381L576.764 411.896C581.828 412.232 586.617 413.028 587.443 411.957C588.897 410.075 580.819 396.979 572.894 388.381Z" fill="white"/>
<path d="M528.311 209.515C513.333 215.36 516.607 269.825 457.72 298.986C473.05 311.975 493.75 322.684 513.364 333.746C525.481 335.061 537.047 339.789 546.579 348.372C564.081 316.029 603.522 305.947 646.452 345.817C614.048 278.255 541.316 204.421 528.296 209.5L528.311 209.515Z" fill="#5EC2D0"/>
<path d="M438.78 289.653C480.287 284.176 501.43 234.056 511.084 201.422C513.976 191.661 511.757 181.747 516.041 178.718C531.188 168.008 639.323 268.647 658.309 361.177C660.39 371.351 657.162 371.627 653.352 361.698C625.951 290.433 542.371 204.038 528.311 209.515C512.905 215.513 516.821 272.946 452.61 301.403L438.78 289.653Z" fill="#FABE00"/>
<path d="M653.353 361.699C655.02 366.028 656.581 368.43 657.621 368.889C642.735 297.885 544.008 192.351 525.94 197.66C511.283 201.974 512.048 267.746 462.463 280.735C455.426 285.309 447.562 288.476 438.765 289.639L452.595 301.389C516.806 272.932 512.89 215.514 528.296 209.501C542.341 204.024 625.921 290.419 653.337 361.683L653.353 361.699Z" fill="#D8A500"/>
<path d="M558.833 366.181C532.809 337.495 476.936 320.451 449.688 291.428V290.847C427.979 254.389 434.894 234.439 431.819 200.26C426.908 145.657 404.326 117.475 363.553 114.767C337.713 113.054 305.095 131.551 297.659 165.974C297.154 166.051 296.634 166.28 296.083 166.663L297.292 167.764C295.227 178.764 295.716 191.34 299.725 205.339C276.454 219.598 274.68 259.652 304.865 276.313C313.922 281.316 323.071 283.549 331.868 283.886C331.562 286.502 330.935 289.256 330.048 292.178C304.911 331.39 232.469 347.745 190.962 351.004C144.62 354.645 145.462 417.28 199.667 420.509C235.146 422.62 256.259 412.079 271.543 398.784C264.077 413.93 257.499 429.872 252.985 446.395C195.965 508.464 223.305 600.704 274.771 610.74C274.236 615.177 272.293 616.278 269.218 616.569C244.387 618.91 206.384 641.415 206.751 658.183L255.54 689.164C258.814 690.51 263.634 690.893 265.928 690.511C282.635 687.711 301.867 680.153 317.762 668.357C329.788 659.422 339.916 648.07 345.592 634.515C346.28 632.878 346.25 629.007 345.531 625.274C376.94 635.999 414.852 638.08 457.797 627.569C459.388 629.283 460.413 630.797 460.658 632.128C463.213 645.638 444.594 670.637 443.829 684.651C443.155 696.89 447.164 708.9 472.637 729.019C496.856 748.143 565.351 738.198 566.223 713.72C566.988 692.04 522.62 666.032 517.265 630.843C513.272 604.574 537.414 571.176 533.33 537.257C529.535 505.68 507.78 474.331 491.058 453.356C485.213 425.634 468.568 397.162 452.916 374.947V374.657C477.38 394.882 497.835 417.862 508.866 426.078C523.905 437.292 551.199 450.556 568.273 430.162C586.816 408.024 571.333 379.935 558.833 366.165V366.181ZM329.421 294.121C326.024 304.081 319.706 315.678 312.01 328.621L329.421 294.121Z" fill="#FABE00"/>
<path d="M158.359 390.936C161.725 405.639 175.295 419.072 199.652 420.525C234.06 422.575 254.959 412.707 270.12 399.978L291.08 361.332C260.482 397.285 188.315 425.589 158.344 390.936H158.359Z" fill="#D8A500"/>
<path d="M446.475 288.72L447.5 287.113C428.438 252.996 434.771 233.245 431.803 200.259C426.892 145.656 404.311 117.475 363.538 114.767C359.698 114.507 355.72 114.721 351.696 115.333C391.566 120.213 412.511 138.878 420.115 179.269C429.799 230.781 418.585 248.115 446.475 288.72Z" fill="#D8A500"/>
<path d="M372.687 208.813C365.695 205.646 366.659 163.16 383.549 161.768C399.445 160.452 404.096 201.087 398.879 206.181C396.08 208.92 377.399 210.955 372.687 208.813Z" fill="white"/>
<path d="M190.579 681.087C188.652 679.648 202.987 650.58 214.247 651.834C220.78 652.553 223.932 660.249 224.284 665.39C224.437 667.577 221.178 670.958 215.976 672.901C206.919 676.283 192.278 682.356 190.579 681.087Z" fill="white"/>
<path d="M299.724 205.356C301.3 204.392 302.968 203.535 304.743 202.831C306.028 183.921 303.396 165.103 297.659 166.006C295.196 177.419 295.502 190.592 299.74 205.371L299.724 205.356Z" fill="white"/>
<path d="M197.831 350.376C215.41 306.697 249.971 261.38 282.543 233.658C283.875 222.077 289.872 211.398 299.74 205.339C298.944 202.57 298.332 199.877 297.797 197.23C258.937 226.085 206.537 287.359 191.467 350.973C193.517 350.805 195.644 350.606 197.831 350.376Z" fill="#FABE00"/>
<path d="M391.734 546.315C388.812 529.348 395.284 506.95 401.97 491.528C371.585 429.55 409.206 347.148 391.842 271.738C380.352 278.715 363.783 283.029 349.646 282.111C344.001 283.458 338.019 284.131 331.868 283.901C326.988 324.674 245.779 403.19 246.697 492.262C247.585 579.239 330.537 658.749 457.797 627.569C445.664 614.458 399.17 589.627 391.734 546.315Z" fill="#FFF3C3"/>
<path d="M284.624 252.706C287.852 262.023 294.446 270.576 304.865 276.328C345.546 298.788 388.567 264.976 390.648 252.477C372.993 273.131 315.636 292.178 284.624 252.706Z" fill="#D8A500"/>
<path d="M374.89 270.821C382.754 270.53 394.473 267.562 404.938 259.209C391.23 277.293 365.833 283.229 352.125 281.791C362.696 278.501 368.173 275.518 374.89 270.821Z" fill="#D8A500"/>
<path d="M404.861 259.896C404.112 266.888 400.486 277.368 394.611 288.124L391.734 270.866C396.6 268.357 399.874 266.2 404.846 259.896H404.861Z" fill="#D8A500"/>
<path d="M340.054 330.732C363.676 330.732 383.427 308.732 394.749 287.894C394.03 282.478 393.081 277.093 391.842 271.738C380.352 278.715 363.783 283.029 349.646 282.111C344.001 283.458 338.019 284.131 331.869 283.901C330.706 293.662 325.152 305.611 317.396 319.319C321.557 326.127 328.549 330.732 340.054 330.732Z" fill="#DCD2A9"/>
<path d="M528.311 209.515C513.333 215.36 516.607 269.825 457.72 298.986C461.53 303.377 477.288 314.499 484.693 317.284C522.084 275.256 518.994 244.964 526.169 243.113C533.482 241.231 544.375 306.207 546.12 332.613C549.47 307.094 546.089 262.558 537.98 233.153C547.252 223.652 613.36 292.009 639.399 339.207C642.627 341.671 644.525 343.369 646.468 345.817C614.064 278.255 541.331 204.421 528.311 209.5V209.515Z" fill="#50A9B5"/>
<path d="M215.395 333.762C236.554 296.156 273.012 250.411 289.612 263.584C287.73 257.678 281.855 239.61 282.544 233.674C250.461 260.968 216.466 305.351 198.658 348.419C203.875 342.299 209.551 337.434 215.395 333.777V333.762Z" fill="#50A9B5"/>
<path d="M197.418 350.423C197.556 350.423 197.694 350.392 197.847 350.377C215.426 306.698 249.987 261.381 282.559 233.659C283.064 229.344 284.196 225.168 285.955 221.297C247.049 248.82 209.321 306.988 197.434 350.423H197.418Z" fill="#D8A500"/>
<path d="M452.901 374.672C477.38 394.897 497.835 417.877 508.851 426.093C523.89 437.307 551.184 450.571 568.258 430.177C577.789 418.795 578.325 405.852 574.898 394.071C570.751 417.525 557.41 427.194 533.1 423.094C505.179 418.382 451.371 354.477 423.113 353.467L452.901 374.672Z" fill="#D8A500"/>
<path d="M391.734 546.316C391.184 543.087 390.97 539.645 391.031 536.096C356.057 555.694 292.014 557.025 254.515 536.677C277.984 603.657 352.813 653.273 457.812 627.555C445.68 614.443 399.185 589.613 391.75 546.3L391.734 546.316Z" fill="#DCD2A9"/>
<path d="M451.478 708.456C469.807 668.433 530.56 667.745 550.633 685.048C537.537 669.565 520.463 651.834 517.265 630.843C513.272 604.574 537.414 571.176 533.329 537.257C529.535 505.679 507.78 474.331 491.057 453.356C485.213 425.634 468.567 397.162 452.916 374.947L425.255 354.568C455.104 387.309 474.58 420.386 480.837 441.575C522.329 499.346 525.022 556.504 485.029 577.204C455.334 592.564 413.444 573.165 391.184 541.388C391.306 543.071 391.459 544.723 391.734 546.314C399.185 589.627 445.664 614.442 457.797 627.569C459.388 629.282 460.413 630.797 460.658 632.128C463.213 645.637 444.593 670.636 443.828 684.651C443.431 692.055 444.746 699.369 451.478 708.456Z" fill="#D8A500"/>
<path d="M258.371 546.438C251.486 557.407 236.783 562.701 226.487 560.926C234.886 586.812 252.572 606.426 274.771 610.756C274.236 615.193 272.293 616.294 269.218 616.585C260.206 617.442 249.466 620.945 239.445 625.871C259.12 629.543 287.271 645.944 294.645 681.744C302.677 678.195 310.556 673.728 317.762 668.373C329.788 659.438 339.916 648.086 345.592 634.531C346.28 632.894 346.25 629.023 345.531 625.29C345.898 625.412 346.265 625.52 346.632 625.642C304.498 611.582 273.93 582.039 258.371 546.453V546.438Z" fill="#D8A500"/>
<path d="M224.299 665.39C224.131 663.003 223.35 660.065 221.928 657.541C214.416 664.166 199.912 674.814 190.426 680.597C190.426 680.827 190.487 681.01 190.595 681.087C192.293 682.372 206.95 676.283 215.991 672.901C221.193 670.958 224.452 667.577 224.299 665.39Z" fill="#DCDDDD"/>
<path d="M245.137 680.03C248.38 674.354 240.042 659.728 233.112 659.529C222.892 659.239 202.039 689.516 204.624 692.438C206.17 694.167 242.444 684.743 245.137 680.03Z" fill="white"/>
<path d="M245.137 680.031C247.11 676.573 244.77 669.78 241.067 664.961C233.509 673.789 220.444 684.116 204.41 691.551C204.395 691.949 204.456 692.255 204.624 692.454C206.169 694.183 242.444 684.758 245.137 680.046V680.031Z" fill="#DCDDDD"/>
<path d="M262.073 689.562C264.108 685.92 256.596 671.187 250.752 671.6C240.302 672.335 221.714 696.125 224.544 698.802C226.365 700.531 259.855 693.509 262.073 689.562Z" fill="white"/>
<path d="M262.073 689.563C263.221 687.513 261.354 681.975 258.447 677.568C250.231 686.212 237.196 694.122 224.269 697.871C224.269 698.284 224.33 698.605 224.544 698.804C226.365 700.533 259.855 693.51 262.073 689.563Z" fill="#DCDDDD"/>
<path d="M576.764 411.896C581.491 412.217 585.989 412.921 587.229 412.141C584.123 408.668 579.946 405.149 575.127 401.951L576.764 411.896Z" fill="#DCDDDD"/>
<path d="M402.444 260.662C393.571 271.937 374.645 279.724 355.628 280.795L347.076 283.243C371.83 285.89 393.525 276.328 404.464 261.962C407.432 258.076 405.474 256.806 402.444 260.662Z" fill="#0E141B"/>
<path d="M333.72 254.543C334.928 252.768 336.321 251.391 337.422 250.657C339.717 249.111 341.369 251.774 339.013 253.212C337.912 253.885 336.382 255.201 335.51 256.057C333.368 258.199 331.96 257.098 333.705 254.527L333.72 254.543Z" fill="#0E141B"/>
<path d="M309.164 254.053C308.43 253.074 307.114 251.605 306.426 250.871C304.513 248.882 306.441 246.847 308.353 248.852C309.317 249.861 310.235 251.483 310.725 252.707C311.689 255.109 310.449 255.782 309.149 254.053H309.164Z" fill="#0E141B"/>
<path d="M434.022 199.892C430.733 162.088 417.131 116.45 363.462 112.885C327.386 110.514 280.784 144.753 298.654 206.195L300.903 204.696C284.471 146.941 330.308 114.338 363.186 116.511C413.521 119.846 426.005 163.281 429.509 200.535C432.691 234.361 427.275 256.316 446.644 287.634L449.428 286.7C430.84 253.608 437.327 237.88 434.022 199.877V199.892Z" fill="#0E141B"/>
<path d="M508.376 428.159C486.238 411.988 462.524 379.63 424.154 355.564C420.558 353.3 421.798 351.189 425.424 353.407C471.505 381.619 490.002 409.586 510.381 424.549C519.269 431.081 547.94 450.756 566.452 428.664C582.241 409.815 573.46 385.474 557.625 368.002C530.331 337.924 461.759 317.5 441.09 282.617C439.973 280.72 441.182 279.833 442.467 281.623C466.349 314.654 531.172 332.799 560.317 364.927C577.713 384.097 587.152 411.085 569.925 431.648C552.071 452.975 526.246 441.225 508.376 428.175V428.159Z" fill="#0E141B"/>
<path d="M458.455 379.843L448.51 372.301C469.088 400.865 482.062 425.619 487.646 448.491L493.827 456.034C489.436 433.59 477.793 408.055 458.455 379.843Z" fill="#0E141B"/>
<path d="M471.597 731.099C446.216 711.072 440.693 697.624 441.412 684.406C442.207 669.856 461.484 645.025 459.128 632.48C456.757 619.919 399.262 601.422 389.731 547.339C385.6 523.931 400.012 489.432 407.814 477.422C411.058 472.449 413.23 473.857 410.002 478.844C402.383 490.564 391 523.044 394.412 545.855C401.19 591.264 459.434 618.757 462.173 631.853C465.294 646.8 446.782 670.514 446.017 684.666C445.344 697.043 449.826 708.043 474.32 727.381C496.917 745.22 563.27 735.521 564.051 713.429C564.785 692.759 520.907 667.898 515.583 631.149C511.559 603.411 534.339 568.529 531.065 537.471C527.485 503.706 501.706 467.921 482.368 444.788C478.436 440.076 480.409 438.424 484.372 443.121C503.909 466.513 531.57 499.774 535.946 536.615C539.847 569.554 515.797 607.466 519.132 630.629C524.165 665.526 568.839 689.24 568.396 713.673C567.891 740.921 495.296 749.795 471.612 731.115L471.597 731.099Z" fill="#0E141B"/>
<path d="M393.112 271.539L390.786 272.962C407.263 341.809 368.939 433.008 401.052 493.073L402.674 488.927C374.553 424.012 410.522 349.749 393.127 271.539H393.112Z" fill="#0E141B"/>
<path d="M249.069 492.339C248.135 401.323 328.243 326.495 333.49 284.513L330.109 284.314C324.8 324.766 243.377 403.052 244.295 492.048C245.121 573.486 322.49 663.905 459.556 629.818L455.517 625.779C331.654 655.582 249.956 578.122 249.084 492.339H249.069Z" fill="#0E141B"/>
<path d="M659.579 360.919C640.837 269.521 533.452 163.757 514.664 177.052C509.554 180.663 512.66 188.909 509.126 200.842C491.486 260.448 466.318 280.337 445.726 286.121L448.464 289.395C469.562 283 495.204 261.657 512.859 202.036C515.429 193.346 513.517 183.049 517.173 180.479C530.667 170.948 638.573 271.479 657.039 361.439C657.667 364.529 657.728 366.319 657.636 367.222C656.994 366.457 655.907 364.713 654.576 361.24C625.921 286.717 542.387 202.219 528.005 207.605C511.329 213.847 516.301 267.914 456.94 297.947L459.112 299.768C516.148 272.596 515.184 216.494 528.862 211.353C541.698 206.534 624.834 291.108 652.159 362.173C654.913 369.318 656.886 370.313 657.942 370.313C658.202 370.313 658.401 370.251 658.539 370.205C659.747 369.854 661.155 368.507 659.61 360.919H659.579Z" fill="#0E141B"/>
<path d="M545.661 331.527C548.17 308.074 542.57 254.511 533.651 222.168C532.718 218.802 534.569 218.144 535.625 221.464C546.87 256.76 551.521 304.983 547.895 331.849C547.313 336.178 545.187 335.918 545.661 331.527Z" fill="#0E141B"/>
<path d="M644.158 341.978C602.865 305.704 564.953 313.613 546.227 346.354C536.558 337.082 524.64 333.273 512.37 332.034L518.826 336.165C528.633 338.046 537.904 342.315 545.722 349.352C546.732 350.255 547.038 350.286 547.742 349.001C562.444 321.829 601.763 305.015 647.065 348.144L644.173 341.963L644.158 341.978Z" fill="#0E141B"/>
<path d="M190.87 349.337C168.885 351.066 155.514 364.56 155.697 383.959C155.896 404.828 173.154 420.999 199.53 422.575C226.135 424.151 248.227 419.377 269.279 402.517L272.829 395.587C257.743 409.387 236.447 420.754 199.713 418.582C178.31 417.312 159.828 404.353 159.629 383.929C159.507 371.139 168.013 354.661 190.977 352.856C251.746 348.083 306.043 326.465 328.151 297.212L330.66 288.66C309.868 325.241 242.735 345.252 190.886 349.322L190.87 349.337Z" fill="#0E141B"/>
<path d="M154.259 351.815C152.668 353.85 156.232 360.673 161.908 366.548L163.438 364.406C158.849 359.541 156.309 354.875 156.936 353.773C157.9 352.075 167.875 351.891 175.418 354.691L179.319 352.855C170.767 348.709 156.294 349.214 154.259 351.815Z" fill="#0E141B"/>
<path d="M143.366 381.511C143.366 379.737 150.756 376.202 158.39 374.183L159.721 370.756C151.199 372.699 140.337 378.008 140 381.435C139.771 383.898 148.354 390.783 159.063 394.806L157.457 391.043C148.981 387.447 143.381 383.179 143.381 381.511H143.366Z" fill="#0E141B"/>
<path d="M156.248 413.058C155.667 411.911 156.982 409.294 162.597 402.119L160.93 399.273C156.86 404.292 152.255 412.614 153.249 414.588C154.473 417.036 166.514 416.791 177.376 415.307L173.368 412.997C164.433 414.297 156.814 414.16 156.248 413.043V413.058Z" fill="#0E141B"/>
<path d="M297.934 199.587L296.925 195.486C259.533 222.612 205.802 283.396 190.059 350.392L193.364 350.193C209.061 284.819 261.69 227.814 297.95 199.587H297.934Z" fill="#0E141B"/>
<path d="M196.607 349.964L199.468 349.842C216.007 309.375 248.059 265.405 281.993 236.229L282.544 231.67C247.248 261.32 213.513 308.059 196.623 349.979L196.607 349.964Z" fill="#0E141B"/>
<path d="M200.876 343.982L199.438 349.49C220.306 324.828 249.222 321.86 264.934 335.277L269.111 333.671C252.725 318.433 224.177 319.32 200.876 343.982Z" fill="#0E141B"/>
<path d="M294.569 269.673L291.708 266.613C288.984 280.918 287.577 308.258 288.541 325.714L291.065 324.383C290.269 307.875 292.121 283.901 294.569 269.658V269.673Z" fill="#0E141B"/>
<path d="M372.152 210.005C363.875 206.257 365.267 161.981 383.443 160.466C402.307 158.967 404.938 202.08 399.782 207.113C396.875 209.944 378.302 212.805 372.136 210.005H372.152ZM384.284 163.036C368.633 163.036 367.057 204.834 373.223 207.634C377.583 209.607 395.728 207.45 397.977 205.247C401.893 201.422 398.252 163.036 384.299 163.036H384.284Z" fill="#0E141B"/>
<path d="M378.898 168.988C376.251 169.034 373.895 170.717 371.922 173.226C366.858 186.46 367.944 206.67 372.671 208.828C375.089 209.929 381.208 209.914 386.961 209.287C390.189 204.88 391.857 197.674 391.444 189.168C390.908 177.969 385.859 168.881 378.883 169.004L378.898 168.988Z" fill="#0E141B"/>
<path d="M389.455 252.706C382.846 267.775 343.037 295.069 306.242 274.767C275.49 257.8 278.458 215.023 305.278 204.207C305.737 204.023 306.058 203.58 306.089 203.09C307.527 181.885 303.947 164.934 298.21 164.658L297.674 167.32C300.857 166.433 305.125 176.898 303.58 201.744C274.664 214.197 270.533 259.881 304.483 278.623C341.354 298.971 386.961 272.763 391.796 253.516C393.142 248.177 391.658 247.687 389.44 252.721L389.455 252.706Z" fill="#0E141B"/>
<path d="M572.633 385.795L575.265 393.399C581.629 400.696 586.663 410.366 586.204 410.962C585.791 411.498 581.415 411.268 577.621 410.274L577.131 413.64C583.266 414.267 587.826 413.884 588.713 412.768C590.778 410.151 580.237 393.705 572.633 385.795Z" fill="#0E141B"/>
<path d="M279.591 610.143C223.901 603.396 201.243 509.214 251.057 451.857L253.49 442.938C189.202 511.065 223.32 607.741 279.346 612.744C285.175 613.265 285.511 610.878 279.591 610.159V610.143Z" fill="#0E141B"/>
<path d="M273.012 610.617C272.522 614.427 270.885 614.779 268.621 614.993C243.5 617.364 207.592 637.865 205.619 654.847L209.642 652.369C215.456 639.671 247.86 620.026 269.386 617.991C273.425 617.609 275.751 615.804 276.363 611.52L273.012 610.617Z" fill="#0E141B"/>
<path d="M347.045 626.468L343.787 625.443C344.613 628.473 344.812 632.053 343.909 634.24C332.022 662.973 293.1 684.07 265.791 688.629C265.057 688.752 263.94 688.782 262.67 688.706L259.503 692.011C261.553 692.424 263.817 692.577 265.975 692.209C297.231 686.977 332.725 669.98 347.107 635.679C348.055 633.414 347.719 628.671 347.045 626.468Z" fill="#0E141B"/>
<path d="M192.369 679.479C191.543 678.562 204.135 652.461 213.987 653.517C219.434 654.129 222.264 659.988 222.876 664.425L225.14 662.451C223.978 657.372 220.719 650.564 214.507 649.875C201.641 648.407 185.867 680.306 189.172 682.784C190.794 683.993 200.249 680.964 211.907 676.496L215.456 671.417C213.819 672.029 193.104 680.321 192.354 679.479H192.369Z" fill="#0E141B"/>
<path d="M233.05 657.77C221.943 657.617 199.682 688.675 203.324 693.433C204.945 695.544 220.994 691.321 228.476 689.027L231.367 685.049C228.032 686.15 207.041 692.301 206.078 691.123C204.777 689.516 223.366 661.595 233.142 661.503C237.12 661.457 242.811 668.877 244.112 673.773L246.483 672.595C243.867 663.722 238.022 657.847 233.065 657.785L233.05 657.77Z" fill="#0E141B"/>
<path d="M223.305 699.782C220.076 695.62 238.65 670.637 250.629 669.795C258.202 669.229 266.464 686.227 263.894 690.832C261.186 695.666 225.385 702.459 223.305 699.782ZM225.768 697.64C226.823 699.047 258.172 691.566 260.053 688.475C261.522 685.844 255.127 672.901 250.813 673.283C241.771 673.911 224.177 695.513 225.752 697.624L225.768 697.64Z" fill="#0E141B"/>
<path d="M394.764 289.18L394.167 286.977C377.736 295.422 347.443 297.717 330.369 293.8L329.635 295.881C349.233 300.44 376.221 298.482 394.779 289.164L394.764 289.18Z" fill="#0E141B"/>
<path d="M396.263 319.487L396.232 317.085C374.951 319.64 339.962 319.732 319.843 315.861L318.481 318.019C340.926 322.547 374.737 322.042 396.263 319.487Z" fill="#0E141B"/>
<path d="M302.249 345.971L300.031 348.878C320.624 343.784 374.722 344.396 394.779 351.647L394.978 349.184C373.651 341.886 326.208 341.183 302.249 345.971Z" fill="#0E141B"/>
<path d="M285.894 373.816L284.012 376.539C312.698 372.148 369.581 370.802 391.765 384.25L391.964 381.527C367.118 367.696 316.294 369.517 285.894 373.816Z" fill="#0E141B"/>
<path d="M265.99 411.62L264.613 414.42C301.239 407.443 363.63 410.625 389.088 423.844L389.394 421.182C358.765 405.974 300.184 405.515 265.974 411.605L265.99 411.62Z" fill="#0E141B"/>
<path d="M251.685 455.559L250.859 458.251C279.53 453.019 362.437 453.187 392.469 464.356L391.704 461.403C357.495 449.745 284.395 450.02 251.685 455.559Z" fill="#0E141B"/>
<path d="M401.618 491.299L400.317 489.203C363.614 501.733 277.372 500.662 247.355 489.922L247.125 492.385C283.721 505.13 363.997 504.502 401.602 491.314L401.618 491.299Z" fill="#0E141B"/>
<path d="M252.083 527.42L253.016 530.495C292.213 547.86 351.13 549.099 390.939 532.102L391.23 529.332C350.671 547.324 285.114 542.995 252.098 527.42H252.083Z" fill="#0E141B"/>
<path d="M393.05 556.352C353.379 580.463 309.853 581.167 271.926 567.826L274.404 571.452C313.494 584.059 353.823 582.758 394.06 558.815L393.05 556.367V556.352Z" fill="#0E141B"/>
<path d="M299.403 599.219L304.391 603.136C341.599 612.958 377.17 607.481 405.978 579.927L404.509 577.785C376.894 604.406 336.887 610.893 299.419 599.219H299.403Z" fill="#0E141B"/>
<path d="M426.525 602.402C414.24 615.04 384.574 627.126 365.16 630.216L370.897 631.7C395.437 626.545 415.663 617.136 428.529 604.009L426.525 602.402Z" fill="#0E141B"/>
<path d="M447.118 618.91L445.083 617.273C441.32 621.771 434.45 627.6 426.082 632.726L432.477 631.961C438.703 627.555 443.982 622.674 447.118 618.91Z" fill="#0E141B"/>
<path d="M377.644 174.894C379.97 174.894 381.469 176.929 381.545 180.387C381.607 183.156 380.061 186.139 377.537 186.032C374.661 185.91 373.712 183.278 373.666 180.968C373.59 177.449 375.517 174.894 377.644 174.879V174.894Z" fill="white"/>
<path d="M302.417 171.16C298.348 172.95 296.16 181.304 297.185 194.43L299.709 205.415C301.301 204.436 302.968 203.549 304.758 202.83C305.6 190.361 304.758 177.938 302.417 171.16Z" fill="#0E141B"/>
<path d="M301.408 178.046C299.312 178.153 299.159 185.221 301.408 185.221C303.657 185.221 303.351 177.954 301.408 178.046Z" fill="white"/>
<path d="M531.295 436.496C529.092 439.861 542.142 455.941 545.829 455.176C548.246 454.671 551.383 442.049 550.572 440.137C549.761 438.224 533.008 433.879 531.295 436.496Z" fill="white"/>
<path d="M559.874 436.39C556.172 433.039 570.155 415.475 574.209 419.836C577.04 422.865 580.972 440.842 579.151 442.555C577.33 444.269 562.995 439.22 559.874 436.39Z" fill="white"/>
<path d="M544.529 733.671C541.163 722.732 546.166 709.896 553.77 708.075C558.956 706.836 563.898 714.654 565.152 718.677C567.967 727.704 566.086 748.266 561.312 749.352C559.568 749.75 544.865 734.818 544.514 733.686L544.529 733.671Z" fill="white"/>
<path d="M509.463 733.898C507.443 721.246 519.591 710.781 526.369 710.781C533.146 710.781 540.23 721.613 541.928 734.342C543.58 746.811 541.362 758.133 539.22 758.24C537.047 758.347 510.687 741.671 509.448 733.883L509.463 733.898Z" fill="white"/>
<path d="M499.533 748.785C501.782 744.394 498.967 714.851 486.345 710.108C475.192 705.916 465.554 718.217 466.502 723.862C467.634 730.625 498.049 751.677 499.533 748.785Z" fill="white"/>
<path d="M342.349 117.689C342.349 113.497 355.919 93.3789 358.642 93.3789C362.192 93.3789 372.932 115.609 372.917 117.781C372.901 124.421 342.333 124.345 342.349 117.705V117.689Z" fill="#FABE00"/>
<path d="M360.325 122.646C366.965 122.325 372.916 120.703 372.932 117.766C372.932 115.608 362.207 93.3633 358.657 93.3633C358.581 93.3633 358.504 93.3786 358.413 93.4092C360.616 102.298 361.549 112.411 360.34 122.631L360.325 122.646Z" fill="#D8A500"/>
<path d="M317.916 141.817C316.294 141.817 314.29 140.868 313.479 138.176C310.648 128.69 298.378 126.456 284.15 123.871C269.845 121.27 253.643 118.317 243.179 107.103C236.554 100.019 234.458 88.9119 237.441 76.6571C241.343 60.5929 252.496 46.747 265.21 42.1878C266.556 41.7135 267.795 41.4688 268.881 41.4688C271.513 41.4688 272.752 42.861 273.043 44.1767C273.517 46.3186 271.865 48.5982 268.835 50.0058C256.229 55.8654 247.646 66.6361 245.275 79.564C243.653 88.407 245.443 97.0205 249.834 101.518C258.723 110.637 272.461 113.085 285.756 115.471C302.157 118.409 317.64 121.178 321.771 136.309C322.169 137.778 321.955 139.17 321.144 140.226C320.394 141.205 319.185 141.786 317.916 141.786V141.817Z" fill="#FFF3C3"/>
<path d="M385.156 137.809C383.657 137.809 382.28 137.075 381.576 135.881C380.872 134.703 380.887 133.25 381.637 131.873C387.481 121.011 397.441 113.086 409.681 109.582C414.087 108.327 418.539 107.731 423.695 107.731C427.045 107.731 430.335 107.96 433.808 108.22C437.479 108.48 441.258 108.756 445.359 108.756C453.115 108.756 460.275 107.746 467.925 105.558C485.764 100.479 498.187 92.3703 503.833 82.1045C507.458 75.5258 508.223 68.1668 506.051 60.8385C505.515 59.0331 505.714 57.3808 506.617 56.1722C507.397 55.1318 508.621 54.5352 509.968 54.5352C512.079 54.5352 514.511 56.0651 515.185 59.4921C520.065 84.7666 503.511 104.503 469.776 113.636C462.065 115.717 454.477 116.696 445.879 116.696C441.564 116.696 437.587 116.467 433.746 116.237C430.35 116.038 427.137 115.855 424.077 115.855C419.748 115.855 416.259 116.252 413.138 117.094C396.63 121.531 391.857 131.078 390.296 134.199C389.18 136.448 387.267 137.794 385.202 137.794L385.156 137.809Z" fill="#FFF3C3"/>
<path d="M408.747 114.891C395.758 119.006 388.843 127.39 383.503 137.473C384.024 137.687 384.574 137.825 385.156 137.825C387.221 137.825 389.134 136.478 390.25 134.229C391.811 131.093 396.584 121.561 413.092 117.125C416.229 116.283 419.702 115.885 424.031 115.885C427.106 115.885 430.304 116.069 433.7 116.268C437.541 116.497 441.518 116.727 445.833 116.727C451.907 116.727 457.475 116.237 462.953 115.212C439.239 116.1 425.791 109.49 408.732 114.891H408.747Z" fill="#DCD2A9"/>
<path d="M252.083 103.599C251.318 102.957 250.568 102.283 249.849 101.549C245.458 97.0511 243.668 88.4223 245.29 79.5946C247.661 66.6667 256.244 55.896 268.851 50.0364C271.88 48.6288 273.532 46.3339 273.058 44.2073C272.89 43.473 272.415 42.7233 271.589 42.2031C271.375 43.779 270.166 45.7832 267.183 46.9C241.419 56.5233 233.142 92.599 252.098 103.614L252.083 103.599Z" fill="#DCD2A9"/>
<path d="M562.214 748.893C557.609 737.556 550.159 725.501 544.727 718.371C543.213 723.007 542.937 728.545 544.513 733.67C544.865 734.818 559.568 749.735 561.312 749.337C561.618 749.26 561.924 749.107 562.199 748.878L562.214 748.893Z" fill="#DCDDDD"/>
<path d="M512.966 719.779C510.274 723.696 508.621 728.607 509.463 733.9C510.702 741.688 537.063 758.364 539.235 758.257C539.388 758.257 539.526 758.18 539.679 758.058C533.804 746.951 523.232 731.406 512.966 719.764V719.779Z" fill="#DCDDDD"/>
<path d="M471.933 713.26C468.216 716.519 466.028 721.032 466.502 723.877C467.481 729.798 490.905 746.643 497.743 748.831C487.722 739.376 476.569 724.704 471.949 713.26H471.933Z" fill="#DCDDDD"/>
<path d="M548.507 450.986C550.006 446.977 551.107 441.347 550.587 440.123C549.776 438.211 533.024 433.866 531.31 436.482C530.851 437.186 531.065 438.471 531.723 440.031C540.077 442.984 545.294 445.111 548.507 450.986Z" fill="#DCDDDD"/>
<path d="M579.166 442.524C573.001 438.516 567.019 433.635 562.016 428.051C559.69 431.57 558.405 435.073 559.859 436.389C562.995 439.219 577.33 444.268 579.136 442.555C579.136 442.555 579.136 442.554 579.136 442.539L579.166 442.524Z" fill="#DCDDDD"/>
<path d="M529.459 435.457C531.723 431.999 550.924 436.344 552.285 439.572C553.065 441.424 550.097 456.034 546.181 456.845C541.514 457.84 526.689 439.695 529.443 435.457H529.459ZM533.069 437.629C531.356 439.848 542.494 454.627 545.462 453.694C547.083 453.173 549.929 442.525 548.889 440.689C547.649 438.501 534.477 435.809 533.069 437.629Z" fill="#0E141B"/>
<path d="M575.066 418.704C570.186 413.288 553.418 432.519 558.711 437.583C561.633 440.383 578.05 445.799 580.283 443.688C583.068 441.056 577.744 421.703 575.051 418.704H575.066ZM577.958 441.362C577.025 442.234 564.54 438.532 561.067 435.396C559.216 433.713 567.355 421.121 572.695 421.121C575.204 421.121 578.937 440.444 577.958 441.362Z" fill="#0E141B"/>
<path d="M566.743 718.186C564.861 712.158 559.721 704.891 553.448 706.39C543.932 708.67 539.725 723.266 543.198 734.541C543.656 736.025 554.305 746.505 559.231 750.055C561.021 751.34 561.954 751.692 563.27 750.361C567.462 746.077 569.543 727.121 566.758 718.202L566.743 718.186ZM560.18 746.811C556.676 743.813 546.517 734.143 545.997 733.011C542.723 725.882 546.762 711.5 554.121 709.726C557.762 708.854 562.352 715.264 563.576 719.181C566.345 728.039 564.188 742.114 562.322 746.398C561.71 747.806 561.342 747.806 560.18 746.796V746.811Z" fill="#0E141B"/>
<path d="M543.504 733.761C541.668 719.916 534.339 708.885 526.72 708.885C517.617 708.885 505.684 721.277 507.764 734.358C509.08 742.62 535.869 760.765 539.755 759.984C542.892 759.342 545.477 748.663 543.504 733.761ZM538.944 756.527C537.2 757.032 512.415 738.749 511.605 733.608C509.922 723.006 519.606 712.48 526.368 712.48C532.595 712.48 538.807 722.287 540.459 734.649C541.561 742.956 540.826 755.991 538.96 756.527H538.944Z" fill="#0E141B"/>
<path d="M487.064 708.396C475.804 704.173 463.121 716.351 464.421 724.154C465.63 731.436 495.693 753.314 500.451 750.193C503.129 748.434 501.874 713.949 487.064 708.38V708.396ZM498.539 747.363C496.32 748.816 469.424 728.789 468.522 723.328C467.619 717.881 476.615 708.503 485.917 711.991C496.902 716.106 500.314 746.2 498.539 747.363Z" fill="#0E141B"/>
<path d="M340.864 117.645C340.91 113.33 354.664 91.6055 358.688 91.6055C362.712 91.6055 374.691 115.197 374.645 117.859C374.492 126.518 340.773 126.748 340.864 117.66V117.645ZM358.642 95.415C356.363 95.415 343.052 115.579 343.817 117.675C345.347 121.852 369.076 122.296 371.096 117.675C371.769 116.146 360.815 95.415 358.642 95.415Z" fill="#0E141B"/>
<path d="M268.3 48.8576C241.496 61.3112 238.589 91.8639 248.916 102.466C269.172 123.227 313.372 110.483 320.517 136.691C321.74 141.158 315.911 141.785 314.733 137.823C308.69 117.567 264.735 128.276 244.142 106.245C228.032 89.0029 243.133 51.5044 265.653 43.4569C271.834 40.8867 274.527 46.0119 268.3 48.8729V48.8576ZM264.766 40.749C239.231 49.8826 224.376 89.5843 241.924 108.372C263.573 131.535 306.456 120.152 311.934 138.557C314.397 146.819 325.045 143.407 323.026 136.002C315.299 107.653 271.146 120.871 251.226 100.462C242.949 91.971 243.974 63.2542 269.432 51.4126C273.028 49.7449 275.261 46.5015 274.649 43.7476C273.869 40.2288 269.417 39.0813 264.735 40.749H264.766Z" fill="#0E141B"/>
<path d="M516.791 59.1998C515.996 55.0384 513.303 52.8812 509.937 52.7282C506.235 52.5599 502.945 56.2623 504.429 61.2499C509.692 79.0736 495.739 96.0099 467.512 104.057C441.641 111.432 429.034 102.665 409.314 108.326C396.738 111.936 386.502 120.076 380.49 131.244C376.65 138.374 387.313 143.254 391.368 135.13C392.867 132.132 397.487 122.646 413.429 118.347C427.596 114.537 444.227 122.141 470.205 115.119C506.265 105.358 521.932 85.7593 516.807 59.1845L516.791 59.1998ZM469.409 112.411C444.579 119.127 427.811 111.799 412.756 115.853C396.019 120.351 390.863 130.005 389.088 133.646C386.763 138.42 380.719 136.4 382.785 132.499C388.139 122.34 397.64 114.4 410.033 110.835C429.31 105.312 441.274 114.507 468.262 106.826C503.588 96.7595 512.156 76.9928 507.275 60.5002C506.403 57.5321 508.055 55.8798 509.937 55.8798C511.559 55.8798 513.349 57.1038 513.869 59.7811C518.688 84.7343 501.767 103.66 469.409 112.426V112.411Z" fill="#0E141B"/>
</g>
<defs>
<clipPath id="clip0_42_72469">
<rect width="520.268" height="720" fill="white" transform="translate(140 40)"/>
</clipPath>
</defs>
</svg>
