<svg width="800" height="800" viewBox="0 0 800 800" fill="none" xmlns="http://www.w3.org/2000/svg">
<g clip-path="url(#clip0_42_59509)">
<path d="M391.189 361.394L376.366 338.72L277.159 372.781C267.749 394.276 267.41 498.977 323.826 508.387L391.169 361.394H391.189Z" fill="#EAEFF9"/>
<path d="M376.366 338.72L277.159 372.781C275.241 377.136 273.723 384.927 272.964 394.656C296.896 397.693 322.108 401.648 331.477 414.134C342.285 424.942 345.361 441.023 346.42 459.103L391.189 361.394L376.366 338.72Z" fill="#CACFD7"/>
<path d="M368.535 349.188L316.134 184.756C305.387 163.26 220.144 45.694 171.06 94.7581C142.852 122.966 160.312 188.791 160.312 188.791L220.763 332.507C226.137 343.255 270.466 410.419 364.479 349.967L368.535 349.188Z" fill="#EAEFF9"/>
<path d="M368.535 349.187L316.134 184.755C314.257 180.979 310.061 174.247 304.188 165.996C314.257 236.716 327.422 318.343 287.107 374.718C307.724 375.997 333.375 369.964 364.479 349.967L368.535 349.187Z" fill="#CACFD7"/>
<path d="M446.126 340.478L455.716 312.569L639.826 302.94C657.286 328.451 698.199 435.27 621.027 485.612C559.238 525.906 499.606 454.468 499.606 454.468L446.106 340.458L446.126 340.478Z" fill="#EAEFF9"/>
<path d="M537.243 372.182C578.775 366.768 618.63 346.611 646.558 314.767C644.141 309.893 641.824 305.877 639.826 302.94L455.716 312.569L446.126 340.478L499.626 454.488C499.626 454.488 508.276 464.856 522.42 475.464C535.884 443.66 538.741 407.401 537.263 372.202L537.243 372.182Z" fill="#CACFD7"/>
<path d="M479.988 325.794C524.317 336.542 592.819 323.117 627.74 306.996C662.66 290.874 715.779 222.292 711.025 135.071C706.989 61.1956 681.938 30.0311 614.315 58.4987C537.742 90.742 449.103 202.215 441.032 270.717L479.988 325.794Z" fill="#EAEFF9"/>
<path d="M450.082 236.676C445.407 248.742 442.271 260.229 441.052 270.717L461.01 303.9L479.988 325.775C495.231 329.471 513.33 330.31 531.949 329.151C513.59 291.734 485.921 258.951 450.082 236.656V236.676Z" fill="#CACFD7"/>
<path d="M398.161 362.273L373.569 359.636C351.854 398.152 301.531 430.974 286.708 436.268C268.489 442.781 271.306 449.573 267.81 455.167C264.314 460.761 249.61 464.277 246.094 471.968C242.598 479.679 241.2 517.496 226.497 542.707C211.793 567.919 207.578 596.626 213.192 608.532C218.805 620.439 225.098 633.744 220.903 642.853C216.708 651.963 199.887 673.658 199.887 673.658C199.887 673.658 149.464 700.967 149.464 715.67C149.464 733.65 150.064 734.569 151.922 742.979C152.241 744.378 153.879 746.715 155.537 744.717C164.487 733.79 194.633 697.93 211.793 689.061C232.11 678.553 254.505 671.561 258.021 670.861C261.517 670.162 258.021 663.15 255.224 656.857C252.427 650.564 236.325 644.252 241.919 612.747C247.513 581.243 267.41 575.13 269.228 538.512C269.927 524.508 267.13 507.008 268.529 502.093C269.927 497.199 272.724 490.187 271.326 481.777C269.927 473.366 272.025 467.073 281.134 464.976C290.244 462.878 313.957 454.228 337.071 430.415L398.181 362.253L398.161 362.273Z" fill="#6792B9"/>
<path d="M259.599 506.389C256.463 534.557 243.318 589.614 234.567 604.637C225.797 619.66 243.957 642.814 229.553 658.456C215.17 674.098 171.979 699.769 161.97 719.167C151.962 738.565 160.652 736.527 160.092 739.184C171.919 726.299 202.104 694.075 211.793 689.061C232.11 678.553 254.505 671.561 258.021 670.862C261.517 670.163 258.021 663.151 255.224 656.858C252.427 650.565 236.325 644.252 241.919 612.748C247.513 581.244 267.41 575.131 269.228 538.512C269.927 524.508 267.13 507.008 268.529 502.094C269.927 497.2 272.724 490.188 271.326 481.777C271.126 480.538 271.006 479.34 270.946 478.201C269.608 479.34 262.735 478.221 259.599 506.389Z" fill="#567B9D"/>
<path d="M398.161 362.273L373.569 359.636C359.685 384.248 334.134 406.542 313.617 420.806C320.29 422.544 322.168 433.811 313.498 450.013C321.009 445.038 329.06 438.666 337.051 430.415L398.161 362.253V362.273Z" fill="#567B9D"/>
<path d="M351.854 309.513C348.358 313.009 311.939 353.622 305.626 375.338C303.529 360.634 303.529 350.126 286.009 344.533C268.509 338.939 252.387 313.029 252.387 313.029C252.387 313.029 234.188 311.63 243.977 327.732C253.785 343.834 283.891 380.252 297.196 386.565C310.501 392.858 317.513 395.675 321.708 385.167C330.118 376.057 354.031 347.929 356.129 327.632L351.814 309.533L351.854 309.513Z" fill="#6792B9"/>
<path d="M351.854 309.513C349.456 311.91 331.517 331.828 318.492 351.086C330.318 356.819 327.182 369.964 324.185 382.43C334.034 371.323 354.231 346.191 356.149 327.593L351.834 309.493L351.854 309.513Z" fill="#567B9D"/>
<path d="M252.407 313.009C252.407 313.009 234.208 311.611 243.997 327.712C246.374 331.628 249.95 336.722 254.205 342.316C256.462 333.046 262.096 331.168 269.448 333.785C259.539 324.456 252.407 313.009 252.407 313.009Z" fill="#567B9D"/>
<path d="M269.228 294.81C266.431 303.22 253.825 327.033 216.009 336.123C203.403 339.619 188.7 338.92 184.504 333.326C180.289 327.712 89.2329 152.652 86.4361 144.241C83.6393 135.831 87.7946 131.995 98.0828 139.347C108.93 147.098 250.309 247.204 250.309 247.204L269.208 294.83L269.228 294.81Z" fill="#DCDDDD"/>
<path d="M250.309 247.184C250.309 247.184 158.893 182.458 117.441 153.071C170.34 213.642 243.817 297.487 249.151 305.258C232.689 332.407 213.152 336.902 215.988 336.123C253.805 327.013 266.411 303.2 269.208 294.81L250.309 247.184Z" fill="#B5B6B6"/>
<path d="M453.099 354.422L384.077 364.83C333.655 404.745 288.146 527.305 358.866 574.911C432.023 624.155 536.743 520.293 490.516 408.94L453.099 354.402V354.422Z" fill="#FABE00"/>
<path d="M490.516 408.96L453.099 354.422L395.025 363.192C495.211 360.315 460.031 535.236 408.25 545.005C399.859 559.568 409.268 577.108 400.079 587.476C464.625 586.777 528.473 500.396 490.516 408.96Z" fill="#D8A500"/>
<path d="M497.788 506.369C498.906 479.02 481.646 445.938 456.135 428.837C422.294 406.183 360.424 406.822 335.393 436.369C341.785 419.947 350.455 405.444 350.455 405.444C374.968 373.241 469.5 362.033 500.325 448.155C500.325 448.155 507.037 469.571 497.808 506.369H497.788Z" fill="#16213A"/>
<path d="M445.847 574.791C483.843 493.024 328.44 455.826 326.483 534.337C316.154 516.817 324.545 475.484 324.545 475.484C357.467 421.565 475.813 436.269 482.805 533.618C482.805 533.618 463.067 563.064 445.847 574.811V574.791Z" fill="#16213A"/>
<path d="M500.325 448.175C489.277 417.31 470.079 398.951 448.823 389.582C458.093 414.853 457.413 430.416 457.733 430.635C483.244 447.736 498.427 479.04 497.308 506.389C506.538 469.611 500.325 448.175 500.325 448.175Z" fill="#0C142B"/>
<path d="M455.576 471.509C453.578 487.73 448.624 503.353 439.054 517.796C451.34 532.16 457.394 550.059 446.606 573.313C462.827 564.583 482.805 533.618 482.805 533.618C480.867 506.689 470.399 486.092 455.576 471.509Z" fill="#0C142B"/>
<path d="M417.999 569.637C413.524 582.822 349.876 674.257 344.982 670.062C340.087 665.867 349.876 561.166 354.351 547.981C358.826 534.796 376.726 528.963 394.286 534.936C411.865 540.909 422.473 556.452 417.999 569.637Z" fill="#FABE00"/>
<path d="M407.271 543.047C395.564 585.819 363.7 643.273 347.978 667.825C372.45 646.849 414.223 580.744 417.999 569.637C421.535 559.229 417.06 549.32 407.271 543.027V543.047Z" fill="#D8A500"/>
<path d="M356.748 298.306C346.04 314.108 361.203 373.081 408.569 372.542C456.155 372.002 472.996 330.529 455.496 291.314C437.996 252.099 398.78 254.196 398.78 254.196L356.768 298.306H356.748Z" fill="#FABE00"/>
<path d="M455.496 291.314C437.996 252.099 398.78 254.196 398.78 254.196L370.632 283.743C427.787 273.355 455.156 335.883 427.428 369.805C460.33 359.916 470.459 324.816 455.496 291.314Z" fill="#D8A500"/>
<path d="M440.793 343.135C450.601 365.549 477.91 406.862 508.715 424.362C539.52 441.862 557.04 453.769 560.536 453.07C564.032 452.37 568.247 447.476 572.443 454.468C576.638 461.48 584.349 476.882 580.154 485.992C575.959 495.102 578.755 508.407 582.951 522.411C587.146 536.415 580.154 562.325 580.853 576.329C581.552 590.333 596.955 619.74 603.267 635.162C609.58 650.565 607.463 661.772 600.471 672.28C593.479 682.788 585.767 693.296 592.759 696.093C599.751 698.89 610.14 694.934 627.08 699.589C655.088 707.3 674.327 736.067 688.091 737.785C699.678 739.244 713.302 757.343 713.302 757.343C713.302 757.343 714.621 721.284 704.812 714.991C695.003 708.678 630.556 693.955 624.983 645.67C622.885 627.451 632.694 633.065 629.877 593.849C627.64 562.405 618.67 495.801 601.869 472.707C585.068 449.594 587.166 455.906 577.357 442.601C567.548 429.297 578.755 429.996 567.548 422.984C556.341 415.972 506.717 396.854 482.805 376.757C465.305 362.053 453.398 347.35 447.085 338.94C444.109 334.984 439.015 339.079 440.793 343.135Z" fill="#6792B9"/>
<path d="M488.159 380.912C486.261 379.534 484.463 378.135 482.805 376.737C465.305 362.034 453.398 347.33 447.085 338.92C444.109 334.965 439.015 339.06 440.793 343.115C445.387 353.623 453.838 368.307 464.705 382.73C471.757 377.476 479.269 376.837 488.179 380.912H488.159Z" fill="#567B9D"/>
<path d="M704.812 714.992C695.003 708.679 630.556 693.956 624.983 645.671C622.885 627.451 632.694 633.065 629.877 593.85C627.64 562.405 618.67 495.801 601.869 472.708C585.068 449.594 587.166 455.907 577.357 442.602C567.548 429.297 578.755 429.996 567.548 422.984C562.913 420.088 551.666 415.093 538.401 408.82C547.052 413.855 571.883 435.07 569.386 438.826C564.651 445.898 579.395 447.576 586.906 461.36C594.418 475.125 600.77 503.193 601.929 515.798C606.384 551.498 609.78 559.649 613.815 592.771C615.194 604.158 618.83 630.947 616.313 650.345C613.815 669.743 622.566 686.644 631.336 688.522C640.106 690.4 651.353 704.164 669.512 714.812C687.671 725.46 679.121 736.687 688.091 737.806C699.678 739.264 713.562 757.363 713.562 757.363C713.562 757.363 714.621 721.304 704.812 715.012V714.992Z" fill="#567B9D"/>
<path d="M423.292 294.111C435.199 302.521 454.097 327.733 460.41 336.822C466.723 345.932 473.715 344.534 489.118 349.428C504.52 354.322 517.825 360.635 525.536 369.026C533.247 377.436 531.13 366.928 534.646 364.131C538.142 361.334 549.289 351.126 549.349 343.814C549.449 333.766 552.146 303.201 554.243 298.985C556.341 294.79 544.435 285.681 540.939 291.274C537.442 296.868 526.934 324.896 522.04 331.189C517.146 337.502 518.544 350.087 518.544 350.087C518.544 350.087 465.604 308.015 447.825 296.169C424.711 280.766 415.541 288.577 423.312 294.071L423.292 294.111Z" fill="#6792B9"/>
<path d="M447.805 296.209C424.691 280.806 415.521 288.617 423.292 294.111C432.482 300.604 445.847 317.105 454.357 328.472C453.618 314.907 461.749 312.39 476.132 317.045C464.885 308.435 454.117 300.404 447.805 296.189V296.209Z" fill="#567B9D"/>
<path d="M554.244 299.005C556.341 294.809 544.435 285.7 540.939 291.294C538.721 294.849 533.687 307.415 529.032 317.743C540.579 321.779 548.73 337.421 545.993 352.084C547.911 349.267 549.309 346.371 549.329 343.814C549.429 333.765 552.126 303.2 554.224 298.985L554.244 299.005Z" fill="#567B9D"/>
<path d="M512.231 242.989C516.486 220.495 606.684 73.5819 622.166 55.942C637.668 38.2621 637.349 36.8237 637.149 58.4391C636.649 111.878 613.935 264.904 610.279 275.911C604.686 292.712 566.649 303.92 550.048 299.025C521.6 290.635 507.337 268.919 512.231 243.009V242.989Z" fill="#DCDDDD"/>
<path d="M635.391 41.2789C627.6 87.6061 571.783 264.065 565.371 287.538C560.456 295.429 553.544 298.366 542.317 295.589C544.774 296.828 547.351 297.967 550.028 299.025C566.13 305.318 604.646 292.733 610.26 275.912C624.543 233.08 633.253 111.799 636.809 67.4491C637.608 57.5803 637.229 39.8006 635.391 41.3189V41.2789Z" fill="#B5B6B6"/>
<path d="M389.451 200.976L360.084 187.711C343.983 180 273.403 175.765 259.399 224.09C245.395 272.415 309.822 324.935 321.728 325.634C333.634 326.333 367.955 292.712 378.443 280.106L389.431 200.976H389.451Z" fill="#FABE00"/>
<path d="M360.084 187.692C354.69 185.115 343.184 182.937 329.739 182.977C358.386 206.53 364.539 250.64 351.454 284.282C343.743 299.724 331.257 311.591 320.449 325.395C320.929 325.515 321.368 325.595 321.728 325.615C333.634 326.314 367.955 292.692 378.443 280.087L389.431 200.957L360.064 187.692H360.084Z" fill="#D8A500"/>
<path d="M258.72 226.867C265.632 228.006 283.232 287.099 283.931 296.907C284.63 306.716 263.634 295.509 255.224 280.107C240.76 253.617 246.973 224.969 258.72 226.887V226.867Z" fill="#E95477"/>
<path d="M373.569 211.465C355.37 216.359 342.005 249.282 347.659 276.591C351.854 296.908 370.073 289.196 388.972 273.095C399.16 264.425 411.386 231.782 388.972 211.465H373.569Z" fill="#E95477"/>
<path d="M290.224 207.269C285.03 193.445 252.407 146.339 244.696 136.53C236.985 126.721 229.993 125.323 218.785 133.733C207.578 142.144 155.058 199.558 150.163 208.668C145.269 217.777 154.359 237.375 164.167 234.578C173.976 231.781 177.472 220.574 187.98 206.57C198.488 192.566 232.809 149.855 239.102 154.05C245.395 158.245 279.017 200.977 283.212 212.184C287.407 223.391 294.419 218.477 290.224 207.289V207.269Z" fill="#6792B9"/>
<path d="M290.224 207.269C285.03 193.445 252.407 146.339 244.696 136.53C243.417 134.912 236.425 129.658 228.914 135.291C221.402 140.925 166.964 197.88 168.842 212.883C170.72 227.906 163.548 234.738 164.148 234.578C173.956 231.781 177.452 220.574 187.96 206.57C198.468 192.566 232.789 149.855 239.082 154.05C245.375 158.245 278.997 200.977 283.192 212.184C287.387 223.391 294.399 218.477 290.204 207.289L290.224 207.269Z" fill="#567B9D"/>
<path d="M337.85 111.319C335.872 122.706 328.061 202.855 326.642 210.066C325.424 216.219 331.976 218.956 334.254 211.864C338.229 199.479 347.658 159.644 347.658 159.644C347.658 159.644 373.569 221.973 380.581 219.176C387.593 216.379 402.995 199.558 392.487 182.758C381.979 165.957 358.107 122.207 351.874 110.62C347.758 102.988 340.666 95.2173 337.87 111.319H337.85Z" fill="#6792B9"/>
<path d="M392.468 182.757C388.652 176.644 383.058 166.955 377.185 156.547C386.434 178.542 386.015 216.019 364.12 195.363C365.998 202.874 379.502 219.595 380.581 219.176C387.593 216.379 402.996 199.558 392.488 182.757H392.468Z" fill="#567B9D"/>
<path d="M391.748 270.518C400.299 258.312 346.76 265.723 349.457 280.506C350.435 285.84 353.932 288.497 359.445 288.497C368.095 288.497 384.756 280.506 391.748 270.518Z" fill="#EE869A"/>
<path d="M281.035 286.26C277.539 277.27 256.902 282.524 262.895 290.495C268.888 298.466 279.536 302.141 281.874 300.483C284.211 298.825 284.551 295.289 281.035 286.26Z" fill="#EE869A"/>
<path d="M280.994 372.082C277.698 371.623 274.462 370.983 271.286 370.104C237.504 360.835 223.32 333.706 223.18 333.406L220.024 335.164C220.184 335.464 235.626 366.708 271.106 376.457C276.46 377.936 281.913 378.755 287.507 378.974C285.25 376.897 283.192 374.559 281.014 372.082H280.994Z" fill="#0E141B"/>
<path d="M363.401 348.289C356.568 352.684 349.876 356.46 343.304 359.676C342.824 361.834 341.406 363.971 339.987 366.129C348.278 362.153 356.808 357.299 365.578 351.665L363.421 348.309L363.401 348.289Z" fill="#0E141B"/>
<path d="M278.997 373.6L275.341 372.002C270.946 382.051 267.45 412.855 271.965 442.921C273.603 441.802 275.401 440.864 276.879 439.665C272.324 411.417 274.842 383.109 278.997 373.6Z" fill="#0E141B"/>
<path d="M289.305 478.9C286.848 474.345 284.75 469.451 282.952 464.356C281.074 464.716 279.196 465.415 277.319 466.254C279.157 471.848 281.354 477.182 284.031 482.116C293.24 499.097 307.684 507.747 323.506 510.384L324.165 506.449C309.622 504.031 297.875 494.762 289.305 478.92V478.9Z" fill="#0E141B"/>
<path d="M279.436 299.844C280.215 305.318 286.069 331.748 294.279 348.189L299.094 351.246C290.544 334.165 282.033 303.84 281.414 299.564L279.436 299.844Z" fill="#0E141B"/>
<path d="M168.223 90.5621C142.632 116.153 153.759 168.473 156.976 181.459C157.375 183.037 162.629 185.514 162.13 183.456C158.954 170.052 148.985 119.629 172.458 96.1557C181.648 86.9662 192.815 83.3702 205.64 85.4479C252.048 92.9793 306.705 170.391 314.317 185.634L317.893 183.856C309.802 167.674 253.586 88.3246 204.941 80.4336C190.757 78.1362 178.351 80.4336 168.203 90.582L168.223 90.5621Z" fill="#0E141B"/>
<path d="M170.42 95.5367L217.607 134.812L219.524 133.114L171.699 93.9785L170.42 95.5367Z" fill="#0E141B"/>
<path d="M153.659 139.367L186.402 167.515L188.1 165.817L155.298 138.188L153.659 139.367Z" fill="#0E141B"/>
<path d="M207.618 181.879L260.458 220.475L261.637 218.877L209.256 179.921L207.618 181.879Z" fill="#0E141B"/>
<path d="M249.93 141.764L250.329 144.161L284.051 142.003L283.092 140.625L249.93 141.764Z" fill="#0E141B"/>
<path d="M213.991 185.255L221.103 226.548L223.44 227.627L216.708 187.333L213.991 185.255Z" fill="#0E141B"/>
<path d="M348.837 372.202C345.821 374.479 283.092 421.745 274.082 425.621L273.683 429.317C283.092 425.281 347.619 375.658 350.296 373.62L350.555 373.42L355.989 355.441L354.071 354.861C354.071 354.861 349.017 371.602 348.837 372.202Z" fill="#0E141B"/>
<path d="M310.701 402.407L316.954 419.668L318.752 417.111L312.159 400.869L310.701 402.407Z" fill="#0E141B"/>
<path d="M295.638 489.748L297.276 493.283C305.627 476.443 322.667 443.38 326.383 441.522L322.387 444.439C316.874 447.196 297.795 485.392 295.638 489.748Z" fill="#0E141B"/>
<path d="M577.756 495.701C535.445 493.484 501.603 453.729 501.144 453.189L500.265 457.604C500.724 458.144 533.707 499.657 577.597 501.434C577.017 499.517 577.597 497.599 577.756 495.701Z" fill="#0E141B"/>
<path d="M641.484 301.822L638.188 304.08C649.655 320.841 671.57 373.7 662.041 421.606C656.747 448.216 642.583 469.192 619.929 483.955C616.592 486.132 613.256 487.95 609.94 489.489C610.519 490.967 611.278 492.505 611.938 494.203C615.853 492.325 619.809 490.068 623.784 487.371C647.058 471.529 663.419 452.271 668.933 424.562C678.702 375.418 653.251 319.023 641.484 301.842V301.822Z" fill="#0E141B"/>
<path d="M536.004 361.634C569.825 377.516 643.382 388.583 665.337 388.583V386.585C643.501 386.585 565.41 372.022 537.302 359.976L536.004 361.634Z" fill="#0E141B"/>
<path d="M606.863 379.294C606.863 385.327 599.711 424.203 589.083 438.826L590.702 440.005C601.609 425.002 609.64 392.059 608.861 379.294H606.863Z" fill="#0E141B"/>
<path d="M571.583 432.493C583.03 436.388 600.291 447.136 602.728 448.674C602.948 449.353 615.613 488.409 615.613 488.409L617.511 487.79C617.511 487.79 609.201 459.682 607.063 452.849C604.925 445.997 606.644 446.856 601.07 444.299C595.496 441.722 584.729 434.87 572.223 430.635L571.583 432.533V432.493Z" fill="#0E141B"/>
<path d="M486.101 325.035C487.719 326.653 489.337 328.271 490.956 329.89C500.724 331.308 511.292 331.887 522.18 331.827C522.919 330.149 523.998 328.811 525.057 327.472C511.372 327.972 498.047 327.313 486.101 325.035Z" fill="#0E141B"/>
<path d="M626.022 51.0671C621.906 52.4655 617.671 54.1037 613.296 55.9416C576.878 71.2641 536.344 101.35 500.864 145.18C466.303 187.891 442.91 237.615 439.054 270.497L443.03 270.957C451.181 201.676 541.238 91.4411 615.094 60.3366C617.152 59.4775 619.169 58.6585 621.147 57.8993C622.486 57.3999 627.44 50.5877 626.022 51.0671Z" fill="#0E141B"/>
<path d="M714.76 132.075C712.343 87.5862 702.175 62.275 683.616 50.6882C672.009 43.4165 656.227 42.7772 636.989 47.7515C636.37 47.9114 636.609 52.9057 637.328 52.7259C655.248 48.251 669.352 49.3897 680.14 56.122C697.26 66.8298 706.689 92.6804 709.007 135.172C713.542 218.137 663.319 288.358 626.88 305.178C609.28 313.309 580.813 321.38 551.207 325.255V330.23C582.091 327.073 611.997 319.702 630.057 311.371C649.535 302.382 670.031 276.771 685.973 248.683C699.797 224.31 717.457 181.919 714.74 132.095L714.76 132.075Z" fill="#0E141B"/>
<path d="M516.087 134.073L513.33 136.151C521.241 134.832 574.86 133.394 575.359 133.374L575.299 131.376C573.222 131.436 528.293 131.436 516.067 134.073H516.087Z" fill="#0E141B"/>
<path d="M683.516 70.9643C670.87 77.9364 646.898 89.4433 634.951 97.8537C633.753 98.6928 633.014 102.548 634.991 101.25C646.998 93.3588 671.35 79.9541 684.495 72.7024L694.064 67.3884L693.065 65.6504L683.516 70.9444V70.9643Z" fill="#0E141B"/>
<path d="M626.181 187.492C624.124 189.47 624.783 191.907 626.421 190.409C651.353 167.595 693.764 142.304 711.364 136.011L710.685 134.133C693.165 140.386 651.892 162.82 626.181 187.512V187.492Z" fill="#0E141B"/>
<path d="M616.792 252.998C615.274 254.296 615.174 256.634 616.872 255.235C639.107 236.796 689.789 213.623 700.517 211.225L700.077 209.268C684.775 212.084 638.388 234.459 616.812 252.978L616.792 252.998Z" fill="#0E141B"/>
<path d="M652.271 167.375L656.607 229.065L660.103 227.327L654.269 167.195L652.271 167.375Z" fill="#0E141B"/>
<path d="M523.638 214.321C494.032 230.323 466.383 253.117 444.408 272.655L445.727 274.153C467.023 255.235 500.684 230.543 523.718 216.799C525.496 215.74 525.037 213.562 523.638 214.321Z" fill="#0E141B"/>
<path d="M485.941 325.135L487.459 326.433L523.758 284.501L520.761 282.004L485.941 325.135Z" fill="#0E141B"/>
<path d="M591.161 320.061L593.099 320.54L602.788 285.92L598.573 290.615L591.161 320.061Z" fill="#0E141B"/>
<path d="M284.391 434.011C269.647 439.285 269.428 445.319 267.75 450.313C267.29 451.691 266.851 452.99 266.131 454.129C264.853 456.166 261.137 458.224 257.541 460.202C252.367 463.038 244.376 466.275 242.159 471.169C240.94 473.826 240.061 479.18 238.843 486.572C236.325 501.774 234.667 524.768 224.779 541.709C213.851 560.428 207.598 581.384 207.598 595.767C207.598 601.74 208.457 606.735 210.095 610.231C214.33 619.261 220.264 628.25 220.264 636.041C220.264 638.199 219.904 640.217 219.085 642.015C215.289 650.225 200.626 669.423 198.568 672.12C192.096 675.636 148.306 698.97 146.328 714.792C144.75 727.417 148.585 748.733 155.178 748.733C160.931 748.733 193.015 701.047 212.712 690.859C233.089 680.311 254.285 675.536 259.059 674.577C265.392 673.319 265.193 663.97 253.106 650.904C247.772 645.151 239.722 636.461 243.877 613.108C246.334 599.343 256.063 588.096 261.477 579.006C268.029 568.019 270.087 561.706 271.106 541.01C271.465 533.998 271.046 523.909 270.606 517.117C270.187 510.804 269.807 504.831 270.427 502.673L271.066 500.536C272.544 495.741 275.381 491.806 274.102 484.114C272.704 475.704 274.442 468.612 281.554 466.974C286.468 465.835 307.464 463.578 338.469 431.874L339.308 425.142C313.398 451.851 283.552 462.419 280.655 463.098C272.844 464.896 268.908 469.751 268.908 477.502C268.908 478.96 269.048 480.519 269.328 482.177C269.568 483.675 269.687 485.113 269.687 486.512C269.687 491.446 268.369 495.761 267.25 499.377L266.591 501.595C266.251 502.793 266.111 504.511 266.111 506.669C266.111 509.565 266.351 513.241 266.611 517.397C266.951 522.531 267.31 528.204 267.31 533.618C267.31 535.256 267.27 536.874 267.19 538.453C266.211 558.17 259.978 568.598 253.386 579.666C248.032 588.655 242.478 597.945 239.901 612.428C239.062 617.123 238.703 621.298 238.703 625.014C238.703 641.295 245.655 648.787 250.13 653.641C251.588 655.22 257.381 665.568 257.801 668.125C258.22 670.702 256.522 670.262 249.67 672.4C242.818 674.538 226.656 679.132 210.834 687.323C193.214 696.433 163.169 730.813 156.816 741.741C153.819 746.875 149.165 723.522 153.4 713.933C159.813 699.389 196.411 678.733 201.445 674.937C206.479 671.141 218.446 652.942 222.681 643.733C223.76 641.395 224.219 638.818 224.219 636.121C224.219 627.391 219.405 617.163 215.05 607.893C213.591 604.777 212.832 600.322 212.832 595.008C212.832 581.204 217.826 561.506 228.195 543.747C238.463 526.167 242.319 502.733 244.876 487.231C245.954 480.678 246.893 475.005 247.892 472.827C249.57 469.151 254.804 466.255 259.419 463.718C263.654 461.38 267.65 459.183 269.468 456.266C270.427 454.708 270.966 453.13 271.485 451.611C272.944 447.276 274.442 442.801 287.347 438.187C303.908 432.254 353.792 398.732 375.267 360.655L371.791 358.697C349.556 398.152 297.356 429.397 284.331 434.051L284.391 434.011Z" fill="#0E141B"/>
<path d="M285.41 346.431C300.353 351.205 303.169 368.266 303.189 372.241C303.209 376.217 303.649 376.656 305.347 377.935C307.065 379.213 308.763 373.66 308.763 373.66C314.816 352.783 349.576 314.607 353.252 310.931L350.435 308.114C346.9 311.65 316.894 342.435 306.565 367.587C304.887 356.399 302.111 347.589 286.628 342.635C274.502 338.759 262.815 324.316 257.342 316.704C256.363 317.623 255.324 318.442 254.205 319.202C259.959 327.193 272.125 342.175 285.41 346.431Z" fill="#0E141B"/>
<path d="M354.171 327.393C351.954 348.928 323.506 380.273 320.27 383.789L320.03 384.068L319.89 384.408C318.692 387.405 317.333 389.103 315.595 389.782C312.099 391.16 306.406 388.683 298.095 384.748C285.25 378.655 255.084 342.076 245.715 326.694C245.275 325.975 244.836 325.176 244.436 324.356C243.238 324.916 242.019 325.475 240.84 326.035C241.26 326.914 241.739 327.833 242.319 328.771C252.147 344.913 282.273 383.269 295.958 389.742C305.487 394.257 313.358 395.895 318.352 393.937C321.049 392.878 321.828 390.062 323.426 386.286C329.22 379.993 354.211 353.084 356.489 330.949L354.191 327.393H354.171Z" fill="#0E141B"/>
<path d="M246.194 246.725L246.753 242.21L192.056 203.234C191.297 204.453 190.537 205.572 189.758 206.75L246.194 246.725Z" fill="#0E141B"/>
<path d="M267.33 294.171C266.311 297.227 256.183 324.396 215.529 334.185C202.983 337.661 189.519 336.722 186.083 332.128C181.388 325.855 90.9509 151.453 88.3338 143.622C87.2351 140.306 87.4748 138.268 88.214 137.709C88.9731 137.15 91.6501 137.21 96.9241 140.965L165.026 189.21C166.085 188.132 167.204 187.193 168.263 186.294L98.2426 136.411C90.7711 131.077 86.9155 132.215 84.9377 133.694C82.5804 135.432 82.2208 140.586 84.7779 146.179C88.7733 154.909 178.172 328.232 182.906 334.525C187.9 341.197 205.041 342.076 217.647 338.56C263.814 329.371 269.348 300.783 271.146 295.429L267.35 294.171H267.33Z" fill="#0E141B"/>
<path d="M184.604 332.027L184.344 334.604C197.15 335.883 241.16 329.989 261.636 288.597L260.238 285.8C238.942 324.835 196.97 333.246 184.604 332.007V332.027Z" fill="#0E141B"/>
<path d="M324.545 504.252C322.467 450.473 354.471 390.821 385.316 366.409C385.316 366.409 381.44 364.391 380.741 364.99C349.756 391.02 317.413 451.232 319.491 505.051C320.569 532.979 331.896 557.771 350.156 574.052C350.815 571.695 351.554 569.377 351.794 566.92C334.953 552.017 325.564 530.582 324.545 504.252Z" fill="#0E141B"/>
<path d="M493.273 411.437L488.658 409.739C515.687 474.845 490.796 534.237 454.137 564.243C440.453 575.451 425.49 582.243 410.587 584.52C409.548 587.317 407.65 589.255 405.972 591.412C423.772 589.375 441.851 581.364 457.933 568.199C495.73 537.274 521.081 478.441 493.273 411.437Z" fill="#0E141B"/>
<path d="M349.416 404.665L351.474 406.243C364.519 389.103 396.223 379.573 425.25 384.068C445.307 387.165 481.586 399.691 499.086 448.615L501.523 447.736C483.564 397.533 446.266 384.688 425.63 381.491C395.244 376.797 363.201 386.546 349.396 404.665H349.416Z" fill="#0E141B"/>
<path d="M334.634 436.988L335.592 439.585C347.299 420.427 384.577 409.339 418.858 415.912C460.59 423.923 488.798 453.369 496.209 496.72L498.767 496.28C491.155 451.811 462.208 421.585 419.337 413.355C384.057 406.582 346.84 416.97 334.614 436.988H334.634Z" fill="#0E141B"/>
<path d="M323.426 474.805L325.644 476.163C340.767 451.392 375.946 440.044 411.186 448.615C452.1 458.543 478.39 490.347 481.506 533.718L484.103 533.538C480.907 489.009 453.878 456.306 411.806 446.098C375.467 437.288 339.128 449.094 323.426 474.825V474.805Z" fill="#0E141B"/>
<path d="M353.152 493.943C336.092 500.536 326.203 514.36 325.344 532.859L327.941 532.979C328.98 510.664 342.744 500.756 354.091 496.381C379.123 486.712 415.721 495.142 435.698 515.159C450.701 530.202 454.557 549.76 446.586 570.257L449.003 571.196C457.374 549.68 453.318 529.123 437.536 513.321C416.9 492.625 379.043 483.935 353.152 493.943Z" fill="#0E141B"/>
<path d="M364.679 534.057C358.626 537.034 353.172 542.867 351.215 548.601C347.759 558.769 335.373 668.983 344.203 671.081C350.875 672.659 391.149 630.887 419.796 572.034C426.369 558.549 416.3 540.55 394.925 533.058C384.337 529.363 373.289 529.802 364.679 534.057ZM356.229 548.641C357.827 543.946 361.363 540.15 366.437 537.633C373.989 533.917 384.157 533.618 393.646 536.834C407.65 541.609 417.02 552.716 417.02 563.364C417.02 565.262 416.72 567.159 416.101 568.977C411.546 582.382 353.732 667.865 346.22 666.307C342.504 665.128 352.213 560.447 356.249 548.621L356.229 548.641Z" fill="#0E141B"/>
<path d="M461.11 290.494C443.649 247.843 400.958 251.858 400.558 251.878L398.88 256.194C400.419 256.114 436.957 254.675 453.678 292.133C455.096 295.329 456.275 298.525 457.234 301.742C459.791 302.84 461.969 304.179 464.026 306.197C463.027 301.442 463.127 295.409 461.129 290.514L461.11 290.494Z" fill="#0E141B"/>
<path d="M458.692 334.604C457.673 338.82 456.135 342.795 454.117 346.471C455.136 347.25 456.215 348.149 457.194 349.188C459.252 345.692 460.97 341.996 462.268 338.12C460.87 337.042 459.611 335.943 458.692 334.604Z" fill="#0E141B"/>
<path d="M408.549 370.544C382.759 370.843 369.274 352.984 363.52 342.316C354.471 325.495 355.13 306.936 359.945 299.824L353.991 304.379C347.619 313.788 351.175 330.11 360.284 347.07C366.457 358.537 383.458 375.039 411.366 374.719C428.087 374.519 440.373 369.145 449.483 359.516C448.723 358.258 447.964 356.979 447.265 355.761C438.115 365.17 424.691 370.364 408.529 370.564L408.549 370.544Z" fill="#0E141B"/>
<path d="M441.492 336.083C439.194 337.421 437.516 340.638 438.955 343.934C448.663 366.109 473.395 406.942 505.199 425.022L535.165 443.86C552.445 454.129 558.039 455.627 560.936 455.047L564.092 453.869C566.929 452.53 568.487 451.791 570.744 455.527C576.558 465.216 581.612 478.101 578.356 485.173C573.741 495.142 575.559 508.427 579.694 522.191C582.131 530.322 581.892 544.186 580.453 555.693C579.494 563.464 577.677 572.074 577.956 577.708C578.496 588.436 588.085 606.255 595.057 621.558L601.409 635.921C606.983 649.526 606.204 660.074 598.792 671.181L597.354 673.339C591.661 681.829 584.988 690.959 586.526 695.953C587.026 697.571 590.582 699.889 596.375 699.809C602.229 699.709 617.251 698.99 626.541 701.547C641.783 705.742 654.729 716.67 665.137 725.44C673.747 732.711 678.741 740.063 685.394 740.902C691.886 741.721 702.514 749.412 708.448 755.405C714.94 761.978 716.199 762.078 716.438 752.409C716.918 733.45 712.143 715.411 706.949 712.075C704.952 710.796 700.397 708.259 695.243 706.241C674.566 698.111 631.355 683.547 626.98 645.491C626.161 638.339 627.22 635.282 628.698 631.027C630.856 624.794 635.291 616.943 633.633 593.69C631.355 561.806 622.625 495.422 605.385 471.729C595.656 458.364 590.322 454.588 587.266 451.372C585.028 449.034 583.09 447.017 578.995 441.443C574.64 435.53 574.84 432.873 575 430.755C575.239 427.519 575.04 424.842 568.767 420.906C565.211 418.689 553.804 414.394 544.794 410.199C525.476 401.209 500.464 388.983 484.143 375.258C471.078 364.291 459.171 351.665 448.743 337.781C446.646 334.964 443.609 334.924 441.552 336.123L441.492 336.083ZM443.509 339.519C444.229 339.1 444.888 339.299 445.507 340.118C456.115 354.262 468.241 367.088 481.546 378.275C498.287 392.339 527.753 406.063 547.271 415.153C556.141 419.288 563.153 422.565 566.509 424.662C570.445 427.119 571.044 428.138 571.044 429.557C571.044 429.816 571.024 430.096 571.004 430.416C570.964 430.915 570.924 431.454 570.924 432.074C570.924 434.531 571.583 438.087 575.779 443.76C580.034 449.534 582.151 451.751 584.369 454.069C587.346 457.185 590.702 460.701 600.271 473.846C615.773 495.162 625.282 557.351 627.899 593.969C628.259 598.924 628.399 603.119 628.399 606.755C628.399 619.58 626.501 625.054 624.903 629.649C623.724 633.025 622.685 636.041 622.685 640.916C622.685 642.374 622.785 644.012 623.005 645.89C627.66 686.344 672.189 703.844 693.585 712.255C698.319 714.112 702.075 715.591 703.753 716.67C709.407 720.305 711.744 739.304 712.123 753.627C706.909 747.335 697.081 736.887 688.35 735.808C682.877 735.129 675.865 729.195 667.734 722.343C657.026 713.313 643.721 702.086 627.64 697.651C617.791 694.934 610.179 695.054 604.066 695.154C599.671 695.234 596.215 695.274 593.538 694.215C592.54 693.816 592.26 693.316 592.14 692.937C591.161 689.76 596.235 682.209 600.71 675.536L602.149 673.379C610.259 661.213 611.178 649.186 605.145 634.403L598.733 619.9C591.9 604.897 583.39 586.198 582.891 576.249C582.631 570.955 583.51 563.764 584.449 556.172C585.987 543.707 587.585 530.801 584.908 521.851C581.193 509.486 577.956 495.641 582.012 486.851C586.806 476.463 578.156 460.042 574.2 453.469C570.105 446.637 565.291 448.895 562.434 450.253C562.434 450.253 560.276 451.112 560.216 451.132C558.119 451.132 548.45 445.379 537.243 438.706L509.754 422.644C480.427 405.983 452.859 365.649 442.67 342.356C442.151 341.177 442.73 340.019 443.549 339.559L443.509 339.519Z" fill="#0E141B"/>
<path d="M547.331 343.814C547.271 349.407 538.741 358.297 533.367 362.572C531.689 363.911 531.05 366.088 530.47 368.026C530.271 368.725 529.971 369.644 529.711 370.104C529.312 369.904 528.493 369.345 526.974 367.687C519.743 359.796 507.556 353.203 489.697 347.53C485.202 346.091 481.466 345.212 478.17 344.433C470.379 342.575 466.084 341.556 462.028 335.703C455.755 326.633 436.757 301.202 424.411 292.492C422.753 291.314 422.413 290.315 422.593 290.035C423.572 288.597 431.423 287.738 446.666 297.886C464.186 309.573 516.726 351.285 517.265 351.705C517.265 351.705 519.523 356.979 520.502 349.927C521.461 342.855 520.542 337.741 524.897 332.167C527.933 328.271 531.449 317.364 535.704 307.475C537.702 302.82 539.62 298.385 541.058 295.369C539.92 294.65 538.801 293.891 537.702 293.151C536.204 296.228 534.226 300.803 532.049 305.877C528.093 315.066 523.179 326.513 520.462 330.009C517.026 334.424 516.366 341.337 516.366 345.871C504.46 336.462 468.081 305.398 453.019 295.349C436.877 284.581 422.274 283.482 419.337 287.758C417.959 289.775 418.278 293.032 422.134 295.748C433.94 304.079 453.238 331.987 458.992 340.278C463.926 347.39 469.08 346.371 477.271 348.309C480.507 349.068 484.163 349.947 488.518 351.325C505.459 356.719 517.425 363.132 524.058 370.384C526.035 372.541 528.393 374.679 530.75 374.139C532.988 373.62 533.687 371.243 534.306 369.165C534.686 367.866 535.165 366.248 535.864 365.689C536.484 365.189 551.227 353.303 551.327 343.834C551.426 333.885 553.804 307.935 555.582 301.162C554.243 301.062 552.945 300.823 551.666 300.483C549.509 309.313 547.411 335.224 547.331 343.794V343.814Z" fill="#0E141B"/>
<path d="M509.934 241.671C504.919 264.824 515.787 292.493 547.751 300.484C569.806 305.998 610.14 294.371 614.794 273.515C633.113 191.008 642.982 41.8583 636.629 40.0404C626.101 37.0438 516.766 210.047 509.914 241.671H509.934ZM634.971 43.6163C640.905 45.4543 619.109 243.029 608.362 275.272C602.668 292.333 568.986 303.021 543.935 294.171C523.119 286.819 513.35 269.599 513.35 252.019C513.35 249.202 513.629 246.325 514.189 243.389C518.044 223.032 630.656 40.9594 634.971 43.6563V43.6163Z" fill="#0E141B"/>
<path d="M509.554 246.026C511.372 255.435 523.978 274.374 543.735 283.783C558.019 290.575 580.154 293.851 610.18 277.75L608.941 275.452C579.874 291.055 557.38 286.54 543.655 279.987C524.717 270.977 513.809 254.416 512.091 245.526L509.534 246.026H509.554Z" fill="#0E141B"/>
<path d="M287.547 188.551C285.609 189.41 283.791 190.349 282.053 191.348C282.912 192.946 283.791 194.264 284.65 195.563C286.488 194.504 288.406 193.525 290.444 192.606C302.07 187.392 316.933 185.394 329 185.115C329.419 183.636 329.219 182.058 329.619 180.5C316.474 180.5 300.752 182.618 287.547 188.531V188.551Z" fill="#0E141B"/>
<path d="M359.265 185.394C355.869 183.776 349.576 182.258 342.724 181.379C342.684 182.757 342.145 184.156 341.965 185.614C349.037 186.413 355.949 187.931 359.225 189.49L359.265 185.374V185.394Z" fill="#0E141B"/>
<path d="M372.211 284.062C360.884 297.667 332.196 324.236 321.848 323.617C317.233 323.337 299.074 311.311 283.272 292.473C283.691 295.209 284.431 297.647 283.951 300.463C298.495 316.066 316.514 328.192 322.467 328.711C338.569 330.11 371.971 291.014 380.002 281.365L372.211 284.062Z" fill="#0E141B"/>
<path d="M261.337 224.63C264.174 214.841 269.607 206.79 277.478 200.477C276.639 199.039 275.68 197.7 274.542 196.562C266.091 203.554 260.658 212.663 257.521 223.511C257.242 224.49 257.022 225.469 256.802 226.447C258.2 226.567 259.479 226.907 260.698 227.366C260.897 226.447 261.097 225.549 261.357 224.63H261.337Z" fill="#0E141B"/>
<path d="M254.165 225.249C243.078 234.019 240.56 260.968 252.207 282.324C259.479 295.649 275.061 304.539 282.513 302.341C286.268 301.242 286.608 292.712 275.341 260.449C269.667 244.207 263.215 228.246 260.058 225.409C258.28 223.811 256.083 223.751 254.165 225.269V225.249ZM256.962 279.148C245.195 257.552 247.193 232.381 256.622 228.385C260.298 226.827 281.014 284.382 281.913 297.047C282.013 298.326 281.614 298.426 281.374 298.505C276.16 300.044 264.194 292.432 256.942 279.148H256.962Z" fill="#0E141B"/>
<path d="M345.701 277.01C347.159 284.062 350.336 288.457 355.15 290.115C363.161 292.872 377.285 290.255 391.469 276.031C401.218 266.262 404.534 255.894 404.774 241.39C404.973 229.004 399.2 218.037 390.33 210.006L387.653 212.963C397.762 222.132 399.739 233.359 399.62 241.17C399.44 252.757 395.284 265.782 387.693 272.535C375.327 283.522 363.421 288.736 356.469 286.339C353.093 285.18 350.795 281.764 349.636 276.211C344.283 250.34 356.868 218.057 374.109 213.422L373.07 209.566C353.692 214.78 339.888 248.822 345.721 277.03L345.701 277.01Z" fill="#0E141B"/>
<path d="M216.768 131.436C205.6 139.807 152.441 198.76 147.447 208.049C143.791 214.841 147.666 226.348 152.581 232.441C156.137 236.856 160.472 238.315 164.567 237.156C172.059 235.018 176.334 227.906 181.528 219.716C183.805 216.14 186.382 212.064 189.579 207.789C208.097 183.097 233.229 155.109 238.043 155.769C243.697 159.644 275.541 200.298 281.374 212.104C284.63 218.697 287.847 220.115 290.384 219.176C293.5 218.018 294.899 214.022 292.102 206.571C286.768 192.327 252.847 143.323 245.215 133.614C236.545 122.586 228.494 122.666 216.788 131.436H216.768ZM155.817 228.905C151.262 223.252 149.444 214.242 151.941 209.627C156.836 200.518 209.016 143.602 220.004 135.352C229.993 127.86 235.826 128.48 243.138 137.789C250.449 147.098 283.252 194.365 288.366 207.989C290.584 213.902 289.884 216.08 288.706 216.539C287.907 216.839 285.549 214.522 283.312 210.127C277.598 198.939 247.393 157.187 240.241 152.412C237.364 150.495 232.15 151.553 213.651 172.17C202.404 184.696 190.917 199.379 186.402 205.392C183.106 209.787 180.469 213.922 178.172 217.578C173.237 225.349 169.681 230.963 163.648 232.681C160.252 233.64 157.295 230.743 155.837 228.925L155.817 228.905Z" fill="#0E141B"/>
<path d="M342.484 99.9519C339.228 100.471 337.071 104.087 335.872 110.979C334.833 116.952 326.483 203.094 325.723 208.089C325.044 212.544 326.323 215.9 328.96 216.579C331.537 217.238 334.194 214.761 335.712 210.086C338.789 200.497 345.381 177.563 348.178 165.997C350.735 171.91 355.03 181.719 359.685 191.328C374.008 220.994 377.684 221.733 381.959 221.733C386.235 221.733 393.946 212.164 397.082 202.615C399.459 195.363 398.96 188.111 394.925 181.639C384.836 165.497 360.644 121.288 353.332 107.723C350.715 102.889 346.959 99.2327 342.504 99.9519H342.484ZM345.701 159.184C345.601 159.584 336.251 199.079 332.336 211.245C331.737 213.123 330.698 214.262 329.799 214.042C329.04 213.842 328.181 212.604 328.6 210.466C329.299 206.91 331.457 186.593 333.754 165.078C336.231 141.684 338.809 117.512 339.827 111.678C341.086 104.447 342.944 103.947 343.144 103.907C344.182 103.748 346.899 105.645 350.096 111.579C350.375 112.098 378.703 164.478 390.769 183.816C392.947 187.292 394.026 190.948 394.026 194.704C394.026 196.901 393.646 199.159 392.907 201.436C390.35 209.287 384.936 216.579 380.221 215.72C375.507 214.861 353.552 168.753 349.476 158.865C347.638 154.43 346.799 154.53 345.681 159.164L345.701 159.184Z" fill="#0E141B"/>
<path d="M268.229 254.656C270.487 262.267 269.288 269.319 265.592 270.418C261.876 271.517 257.062 266.243 254.804 258.631C252.547 251.02 253.746 243.968 257.441 242.869C261.157 241.771 265.972 247.045 268.229 254.656Z" fill="white"/>
<path d="M378.763 250.081C374.708 258.851 366.577 263.725 360.604 260.968C354.631 258.212 353.092 248.862 357.168 240.072C361.223 231.302 369.354 226.428 375.327 229.185C381.3 231.941 382.838 241.291 378.783 250.081H378.763Z" fill="white"/>
</g>
<defs>
<clipPath id="clip0_42_59509">
<rect width="633.459" height="720" fill="white" transform="translate(83 40)"/>
</clipPath>
</defs>
</svg>
