<svg width="800" height="800" viewBox="0 0 800 800" fill="none" xmlns="http://www.w3.org/2000/svg">
<g clip-path="url(#clip0_42_72592)">
<path d="M344.025 431.627C343.048 431.934 340.264 432.676 340.264 432.676C329.326 435.713 307.776 432.205 287.835 416.712C264.549 398.633 248.748 372.87 234.285 347.559C219.821 322.248 210.999 307.785 194.728 291.749C178.456 275.713 160.829 266.059 128.594 266.059C77.9908 266.059 39.5547 322.375 39.5547 387.044C39.5547 432.694 55.627 490.583 91.6767 522.041C136.242 560.929 173.611 557.476 180.572 547.044C186.212 538.583 184.242 526.289 151.048 493.259C120.621 462.976 109.159 462.524 90.0315 433.905C53.2586 378.872 74.0315 304.314 121.417 290.809C135.591 291.532 150.759 298.312 165.674 313.968C180.138 329.155 193.534 353.616 207.401 386.881C218.393 413.24 221.105 434.483 222.913 441.57C227.541 459.704 239.256 482.899 252.147 500.924C267.984 523.089 293.873 542.578 326.126 555.921C326.126 555.921 327.265 556.409 327.681 556.535C328.097 556.68 332.074 550.045 332.074 547.17C332.074 544.296 330.122 504.612 330.791 495.338C331.46 486.063 333.955 473.787 335.238 471.455C336.522 469.123 339.306 446.976 341.783 442.981C344.278 438.985 344.043 431.609 344.043 431.609L344.025 431.627Z" fill="#9C80A7"/>
<path d="M44.7976 346.222C41.3807 359.095 39.5366 372.853 39.5366 387.027C39.5366 425.499 50.9626 472.668 76.1287 505.373C84.3005 511.465 93.2315 516.039 98.7457 513.273C104.911 510.182 102.217 490.023 91.514 463.248C85.4033 447.971 68.5536 402.629 71.4462 379.09C68.8067 338.738 88.3321 301.006 120.224 291.153C119.88 291.117 119.537 291.045 119.229 291.045C93.6654 291.045 65.0101 312.921 44.7976 346.204V346.222Z" fill="#846B8D"/>
<path d="M168.893 317.566C182.126 332.897 194.547 356.111 207.383 386.882C218.375 413.241 221.087 434.484 222.895 441.571C227.523 459.704 239.238 482.9 252.129 500.925C267.966 523.09 293.855 542.579 326.108 555.921C326.108 555.921 327.247 556.409 327.663 556.536C328.079 556.681 332.056 550.046 332.056 547.171C332.056 544.296 330.104 504.613 330.773 495.338C330.99 492.247 331.424 488.83 331.948 485.539C321.95 482.285 311.862 477.801 301.846 471.691C232.658 429.422 200.495 341.123 168.893 317.566Z" fill="#846B8D"/>
<path d="M459.46 384.297C458.303 382.904 454.759 378.764 453.693 377.625C448.124 371.641 442.99 368.73 434.818 369.833L434.728 369.616C434.565 369.761 434.42 369.888 434.258 370.032C431.546 370.755 396.183 391.655 380.472 407.582C353.733 434.683 334.931 458.71 331.062 475.94C329.923 480.965 328.043 494.923 328.35 509.386C328.658 523.849 330.303 543.881 329.851 548.111C329.399 552.342 318.696 568.758 313.435 577.182C308.174 585.607 288.884 618.312 284.96 625.996C281.037 633.68 273.516 651.307 271.853 656.73C271.003 659.515 268.508 665.915 265.905 672.351L265.833 672.405C263.265 674.358 256.341 678.136 255.437 678.877C254.533 679.619 252.273 683.397 250.465 685.802C248.658 688.206 243.378 693.033 242.023 694.389C240.667 695.745 229.06 709.16 227.415 710.805C225.751 712.468 220.328 715.777 218.068 717.133C213.656 719.772 211.288 725.214 211.288 732.193C211.288 740.907 217.815 748.464 227.559 748.464C242.999 748.464 252.978 742.299 257.751 735.899C271.853 729.246 287.654 731.903 301.991 736.26C301.991 736.26 302.045 736.26 302.136 736.297C302.913 737.182 303.799 738.05 304.847 738.81C310.886 743.149 318.497 745.589 330.158 745.589C348.418 745.589 353.209 738.846 353.209 727.203C353.209 718.073 342.054 705.652 331.659 705.652C331.243 705.652 330.809 705.689 330.375 705.707C327.663 702.669 325.186 698.186 323.18 693.431H323.216C327.681 693.431 334.967 683.867 334.967 673.851C334.967 666.168 326.217 653.711 319.636 653.675C322.004 641.725 326.615 632.288 332.78 620.97C339.36 608.893 356.59 579.117 366.19 567.221C370.637 565.467 374.542 564.147 376.386 563.406C422.85 544.821 443.406 524.753 458.755 488.071C474.484 450.484 470.072 396.952 459.442 384.224L459.46 384.297Z" fill="#E7D5E8"/>
<path d="M295.844 728.251C288.612 729.263 269.268 727.419 260.517 723.912L260.825 725.413C258.42 727.817 249.417 734.145 232.838 734.145C222.895 734.145 216.007 730.24 211.939 726.389C211.523 728.161 211.288 730.095 211.288 732.174C211.288 740.888 217.815 748.445 227.559 748.445C242.999 748.445 252.978 742.28 257.751 735.88C271.853 729.227 287.654 731.885 301.991 736.242C301.991 736.242 302.045 736.242 302.136 736.278C302.913 737.164 303.799 738.032 304.847 738.791C310.886 743.13 318.497 745.571 330.158 745.571C348.418 745.571 353.209 738.827 353.209 727.184C353.209 725.738 352.902 724.201 352.395 722.646C344.079 733.982 318.515 742.154 295.844 728.197V728.251Z" fill="#CFA7CD"/>
<path d="M567.682 72.0882C565.06 67.7311 554.195 60.6079 548.102 58.2215C545.191 57.0825 543.98 57.9684 543.365 61.8373C542.877 64.8384 541.612 69.6836 539.894 72.9921C536.423 79.6995 533.476 82.4836 527.166 85.5752C527.166 85.5752 527.148 85.5752 527.13 85.5752C514.33 75.8305 498.837 68.9605 485.946 68.2373C485.946 68.2373 485.856 68.2373 485.729 68.2373C483.433 57.7334 482.818 47.8441 483.686 40.5401C484.12 36.8339 483.813 35.7311 481.047 34.8091C469.169 30.8497 451.632 29.9819 444.78 34.9718C443.569 35.8576 442.972 37.6836 443.768 39.3831C446.696 45.5842 447.763 52.3096 447.763 60.2644C447.763 69.4848 443.026 76.9695 431.564 87.7627C424.586 94.3255 404.753 120.287 404.753 136.504C404.753 148.798 422.977 172.445 440.495 187.36L461.63 196.255C470.85 203.36 506.809 218.203 512.703 218.547C532.192 219.686 542.678 202.655 542.678 201.064C542.678 200.16 540.961 196.997 539.261 194.032C539.388 193.833 539.478 193.67 539.478 193.67C543.094 187.794 550.434 178.411 554.159 172.988C557.431 168.215 560.776 161.435 562.113 156.897C564.066 155.849 565.802 153.498 566.326 151.853C567.139 149.304 565.729 144.115 562.782 137.607C561.354 134.443 557.214 121.715 556.455 118.244C554.484 109.15 560.342 87.6904 566.922 77.2588C568.351 74.9989 568.658 73.6791 567.682 72.052V72.0882Z" fill="#E7D5E8"/>
<path d="M559.166 156.228C553.743 157.819 536.658 172.047 534.073 176.711C532.699 179.188 533.512 183.925 536.188 188.77C536.712 189.71 537.996 191.862 539.298 194.103C539.298 194.067 539.261 194.049 539.243 194.013C539.37 193.814 539.46 193.651 539.46 193.651C543.076 187.776 550.416 178.393 554.141 172.969C557.413 168.196 560.758 161.416 562.095 156.879C561.011 155.595 559.166 156.21 559.166 156.21V156.228Z" fill="#CFA7CD"/>
<path d="M405.729 142.163C409.742 155.125 425.362 174.47 440.477 187.324L461.611 196.219C470.831 203.324 506.791 218.167 512.684 218.511C532.174 219.65 542.66 202.619 542.66 201.028C542.66 200.703 542.443 200.088 542.081 199.293C532.083 208.983 523.803 208.477 516.3 208.477C491.821 208.477 427.803 169.335 405.729 142.145V142.163Z" fill="#CFA7CD"/>
<path d="M566.922 77.2776C567.518 76.3375 567.898 75.5781 568.097 74.873C557.068 91.0358 551.663 95.7906 539.586 96.9476C543.383 101.25 552.079 115.262 559.039 127.031C557.864 123.379 556.815 119.854 556.454 118.281C554.483 109.187 560.341 87.7273 566.922 77.2956V77.2776Z" fill="#CFA7CD"/>
<path d="M390.127 223.5C388.662 200.395 401.679 182.099 421.385 167.979C421.385 167.979 421.874 167.6 422.253 167.383C422.633 167.166 439.157 184.829 438.94 185.046C438.723 185.263 438.344 185.462 438.344 185.462C430.949 190.741 422.506 199.13 417.245 212.056C417.245 212.056 416.793 213.485 416.649 214.768C416.504 216.052 390.886 226.664 390.579 225.833C390.271 225.001 390.127 223.5 390.127 223.5Z" fill="#E7D5E8"/>
<path d="M633.435 244.13C633.273 242.141 631.483 239.122 629.223 237.802C628.482 237.368 624.052 237.639 621.467 237.748C621.467 237.675 621.503 237.603 621.503 237.603C622.064 235.343 624.107 227.623 624.486 226.575C624.866 225.526 623.962 221.079 622.823 219.415C620.69 216.288 618.104 209.255 616.875 206.091C615.971 203.759 614.561 203.162 612.048 203.759C610.457 204.139 607.148 204.139 605.72 203.687C601.996 202.512 599.935 202.584 597.368 205.639C597.368 205.639 597.295 205.73 597.223 205.838C593.643 204.356 589.793 204.338 585.833 206.019C578.24 209.273 575.854 221.621 579.741 229.052C574.371 224.134 565.187 223.284 559.926 228.166C555.713 232.089 554.376 239.266 555.153 244.365C555.026 245.088 554.864 245.865 554.809 246.173C553.96 250.457 551.194 255.592 551.266 256.713C551.338 257.834 552.477 260.545 553.454 261.232C554.43 261.901 558.154 262.245 559.257 262.896C561.282 264.071 566.344 268.554 567.845 270.887C569.906 274.087 572.87 276.003 576.251 276.274C576.215 276.401 576.197 276.491 576.197 276.491C575.637 279.095 571.045 291.533 567.845 298.078C562.602 308.78 552.984 317.693 550.344 324.997C546.077 319.827 526.317 288.478 524.364 284.591L523.876 283.777C523.876 283.777 516.699 288.243 513.625 291.804C510.552 295.366 509.015 307.425 509.16 309.486L509.648 310.389C512.36 315.705 522.195 332.084 525.232 336.152C528.269 340.22 539.695 352.423 541.72 355.244C543.745 358.064 551.664 365.079 555.623 364.952C559.582 364.826 563.415 362.692 567.591 355.244C571.768 347.795 584.206 323.262 587.026 318.417C589.811 313.626 599.953 298.728 602.719 291.479C606.805 290.683 613.096 289.002 614.362 288.134C617.797 285.766 624.215 274.394 624.306 269.043C624.306 269.043 624.306 269.006 624.306 268.988C627.867 266.258 632.224 261.721 632.965 260.419C633.869 258.846 633.562 245.956 633.417 244.148L633.435 244.13Z" fill="#E7D5E8"/>
<path d="M560.359 336.422C554.791 333.764 552.404 326.008 553.182 319.59C551.952 321.488 550.94 323.278 550.325 324.996C546.059 319.825 526.298 288.476 524.346 284.589L523.858 283.775C523.858 283.775 516.68 288.241 513.607 291.803C510.533 295.364 508.997 307.423 509.141 309.484L509.629 310.388C512.341 315.703 522.176 332.083 525.213 336.151C528.251 340.218 539.677 352.422 541.702 355.242C543.726 358.062 551.645 365.077 555.604 364.951C559.564 364.824 563.397 362.691 567.573 355.242C570.032 350.849 575.365 340.544 579.903 331.812C572.834 336.729 565.53 338.88 560.341 336.404L560.359 336.422Z" fill="#CFA7CD"/>
<path d="M549.223 328.123C549.621 326.894 549.711 326.551 550.344 324.996C546.077 319.825 526.317 288.476 524.364 284.589L523.876 283.775C523.876 283.775 520.604 285.818 517.53 288.223C523.641 297.624 542.281 322.917 549.223 328.123Z" fill="#E7D5E8"/>
<path d="M426.14 171.125C408.586 184.702 396.581 201.643 393.869 224.965C400.848 222.488 416.54 215.762 416.649 214.768C416.793 213.484 417.245 212.056 417.245 212.056C422.488 199.13 430.949 190.741 438.344 185.462C438.344 185.462 438.723 185.281 438.94 185.046C439.103 184.883 431.112 176.259 426.14 171.125Z" fill="#CFA7CD"/>
<path d="M537.761 373.774C534.145 368.133 525.105 355.839 518.633 343.636C512.161 331.432 511.257 322.393 509.449 314.402C509.196 313.245 508.924 312.16 508.653 311.111C508.834 311.003 508.961 310.931 508.961 310.931C515.632 306.646 525.123 293.141 525.123 276.924C525.123 251.107 503.446 222.958 490.176 222.958C488.441 222.958 481.589 226.881 475.858 226.881C474.809 226.881 472.097 226.284 471.193 225.67L450.999 227.441C445.123 224.729 430.208 211.514 409.761 211.514C394.411 211.514 379.785 230.388 384.793 257.163C384.793 257.163 387.433 266.8 390.452 272.675C393.471 278.551 399.835 285.963 399.835 285.963C402.764 290.7 410.122 296.811 416.667 301.331C429.105 309.9 434.601 316.644 439.483 329.118C441.743 334.885 445.358 345.154 445.358 349.222C445.358 356.761 444.617 361.281 434.294 369.977C431.582 370.7 395.984 391.365 380.509 407.527L372.373 565.159C485.729 585.154 563.704 506.384 563.704 450.881C563.704 421.105 551.428 395.053 537.797 373.737L537.761 373.774Z" fill="#E7D5E8"/>
<path d="M466.132 309.592C466.132 309.592 461.829 311.852 460.256 311.852C458.683 311.852 449.408 305.308 446.009 302.144C442.611 298.98 430.642 283.848 429.955 282.04C429.268 280.232 428.599 262.84 428.147 257.633C427.695 252.426 422.941 238.198 422.272 236.842C421.603 235.486 419.56 232.322 417.065 230.062C421.386 236.119 424.333 260.309 412.093 272.548C409.833 274.808 405.313 279.997 399.781 285.999C402.71 290.736 410.068 296.847 416.613 301.366C429.051 309.936 434.547 316.679 439.429 329.154C441.689 334.921 445.304 345.19 445.304 349.258C445.304 353.597 445.051 356.942 442.864 360.666C444.491 358.225 445.901 354.808 446.877 350.053C452.084 325.195 462.028 313.895 466.077 309.611L466.132 309.592Z" fill="#CFA7CD"/>
<path d="M417.083 471.852C410.755 461.909 404.427 446.089 394.484 442.022C387.668 439.238 371.072 437.502 356.789 433.344C342.94 449.832 333.648 464.404 331.063 475.92C329.924 480.946 328.043 494.903 328.351 509.366C328.658 523.83 330.303 543.861 329.851 548.092C329.598 550.406 326.29 556.372 322.475 562.682C321.155 574.614 321.788 589.33 328.947 592.096C335.185 594.501 343.067 593.054 351.004 589.782C356.518 580.869 362.068 572.408 366.208 567.292C370.656 565.538 374.561 564.218 376.405 563.477C422.868 544.892 443.424 524.824 458.773 488.141C459.026 487.545 459.261 486.93 459.496 486.315C442.773 485.231 421.621 479.03 417.083 471.87V471.852Z" fill="#CFA7CD"/>
<path d="M494.335 223.771C492.888 223.247 491.478 222.957 490.158 222.957C488.423 222.957 481.571 226.88 475.84 226.88C474.791 226.88 472.079 226.284 471.175 225.669L450.981 227.441C448.775 226.428 445.286 223.915 440.712 221.186C448.233 227.423 456.423 232.521 466.113 232.521C473.923 232.521 485.91 231.292 494.316 223.771H494.335Z" fill="#CFA7CD"/>
<path d="M475.551 233.662C474.954 231.402 473.146 229.594 472.459 228.546C471.248 226.647 470.091 223.194 469.368 217.318C468.409 209.563 468.735 205.35 470.271 201.499C470.271 201.499 470.868 199.999 471.103 199.547C465.227 195.027 443.641 185.987 440.477 185.879V187.343C440.694 191.52 441.038 214.227 440.025 220.555C440.025 220.555 439.808 222.363 440.025 223.61C440.983 228.907 446.696 234.168 458.448 237.386C468.735 240.207 475.514 237.947 475.623 236.934C475.731 235.922 475.551 233.662 475.551 233.662Z" fill="#CFA7CD"/>
<path d="M475.551 233.662C474.954 231.402 473.146 229.594 472.459 228.546C471.248 226.647 470.091 223.194 469.368 217.318C468.409 209.563 468.735 205.35 470.271 201.499C470.271 201.499 470.868 199.999 471.103 199.547C465.227 195.027 443.641 185.987 440.477 185.879V187.343C440.694 191.52 441.038 214.227 440.025 220.555C440.025 220.555 439.808 222.363 440.025 223.61C440.983 228.907 446.696 234.168 458.448 237.386C468.735 240.207 475.514 237.947 475.623 236.934C475.731 235.922 475.551 233.662 475.551 233.662Z" fill="#E7D5E8"/>
<path d="M469.367 217.318C468.409 209.563 468.734 205.35 470.271 201.499C470.271 201.499 470.867 199.999 471.102 199.547C465.227 195.027 443.64 185.987 440.476 185.879V187.343C440.693 191.52 441.037 214.227 440.024 220.555C440.024 220.555 440.024 220.591 440.024 220.609C447.726 227.099 456.133 232.523 466.131 232.523C468.68 232.523 471.681 232.378 474.845 231.944C474.049 230.48 472.946 229.305 472.458 228.527C471.247 226.629 470.09 223.176 469.367 217.3V217.318Z" fill="#CFA7CD"/>
<path d="M415.582 446.85C415.13 445.35 408.35 428.319 406.994 426.656C405.638 424.993 386.348 418.665 382.732 412.88C377.724 404.834 372.12 370.159 372.12 349.386C372.12 344.486 373.024 324.907 373.331 323.551C373.946 320.785 391.374 295.167 396.617 288.983C402.258 282.294 415.69 269.277 419.595 266.168C425.29 261.63 427.514 254.995 426.303 250.132C421.006 228.925 411.369 223.465 407.012 223.465C402.963 223.465 399.003 226.755 395.966 231.329C390.199 240.025 392.35 246.805 385.462 256.532C381.141 262.624 364.111 287.374 357.891 294.154C351.672 300.934 345.128 307.261 343.645 310.769C340.445 318.416 341.512 338.574 343.193 354.159C343.645 358.335 346.013 371.894 346.465 379.234C346.917 386.574 348.056 414.706 347.586 416.296C347.116 417.887 343.862 426.023 342.651 428.645C341.439 431.284 336.395 439.637 335.799 441.969C335.202 444.301 335.039 451.768 333.539 456.577C332.038 461.404 328.639 467.876 328.567 469.991C328.495 472.107 333.919 480.531 335.726 483.099C337.534 485.666 340.698 489.571 341.747 490.095C342.578 490.511 346.158 491.704 348.689 492.409C348.743 496.297 354.131 499.876 359.302 499.876C364.002 499.876 368.829 497.237 370.077 492.717C370.637 492.771 371.252 492.825 371.867 492.88C371.921 493.169 371.957 493.404 371.957 493.404C372.662 497.291 377.381 502.371 385.661 502.371C393.2 502.371 399.003 495.718 399.003 488.595C399.003 474.24 386.764 467.533 377.381 474.385C376.531 472.938 375.157 469.811 375.157 468.473C375.157 467.008 381.069 448.513 381.973 447.917C382.877 447.32 393.128 446.706 393.869 446.868C394.628 447.013 396.129 451.243 396.888 453.341C397.647 455.456 398.244 459.524 397.937 461.621C396.653 470.588 404.156 481.056 416.775 475.18C430.569 468.744 425.724 449.399 415.564 446.85H415.582ZM357.096 480.893C356.409 479.881 354.113 478.109 352.612 476.391C351.021 474.583 348.309 469.919 348.309 469.232C348.309 468.545 353.95 458.24 354.782 456.812C355.089 458.837 354.782 462.904 354.565 464.803C354.348 466.683 354.258 471.727 354.493 473.011C354.673 474.059 356.861 477.946 358.687 480.785C358 480.748 357.458 480.821 357.096 480.911V480.893Z" fill="#E7D5E8"/>
<path d="M618.068 681.119C612.337 681.119 603.604 682.331 600.748 682.783C597.891 683.235 592.92 682.783 590.949 682.186C562.149 673.309 532.644 634.747 532.644 625.544C532.644 610.647 537.344 584.866 544.052 569.137C546.167 567.275 548.59 565.504 551.175 563.931C560.269 558.362 567.79 551.402 577.245 538.62C592.16 518.426 598.56 499.714 598.56 475.036C598.56 432.116 568.856 393.752 534.379 368.604C534.379 368.604 531.885 367.628 529.932 367.031C529.932 367.031 486.994 545.562 487.753 546.774C488.513 547.985 489.254 549.178 489.254 549.178C495.781 561.436 500.011 577.327 496.938 595.424C494.804 608.044 490.809 615.004 486.398 620.735C483.378 624.658 479.925 632.939 479.021 637.314C479.021 637.314 478.913 638.435 478.859 638.959C478.804 639.465 493.72 671.718 494.84 671.845C495.961 671.971 496.504 672.134 496.504 672.134C496.504 672.134 505.091 674.701 514.131 681.933C523.17 689.165 531.903 705.888 539.749 711.763C547.577 717.639 558.28 718.236 561.751 719.302C565.222 720.351 574.407 725.178 581.638 725.178C596.463 725.178 607.744 721.219 609.317 711.203C612.499 712.396 618.592 713.282 622.316 713.282C634.393 713.282 640.088 707.641 640.088 699.271C640.088 687.393 629.692 681.192 618.086 681.192L618.068 681.119Z" fill="#E7D5E8"/>
<path d="M607.98 703.121L609.191 707.949C603.496 712.758 594.33 715.488 585.381 715.488C566.741 715.488 543.799 701.53 543.799 692.581C543.799 683.632 554.104 675.894 576.848 675.659C553.273 661.413 532.662 633.246 532.662 625.544C532.662 610.647 537.363 584.866 544.07 569.137C546.186 567.275 548.608 565.503 551.193 563.93C560.287 558.362 567.808 551.402 577.264 538.62C592.179 518.425 598.579 499.714 598.579 475.036C598.579 465.038 596.952 455.293 594.041 445.91C578.421 468.527 551.537 488.703 498.167 500.491C492.021 526.688 487.519 546.358 487.772 546.755C488.531 547.967 489.273 549.16 489.273 549.16C495.799 561.418 500.03 577.309 496.956 595.406C494.823 608.025 490.827 614.986 486.416 620.717C483.397 624.64 479.944 632.92 479.04 637.295C479.04 637.295 478.931 638.416 478.877 638.941C478.823 639.447 493.738 671.7 494.859 671.827C495.98 671.953 496.522 672.116 496.522 672.116C496.522 672.116 505.11 674.683 514.149 681.915C523.189 689.146 531.921 705.869 539.768 711.745C547.596 717.621 558.299 718.218 561.77 719.284C565.241 720.333 574.425 725.16 581.657 725.16C596.482 725.16 607.763 721.201 609.336 711.185C612.518 712.378 618.61 713.264 622.335 713.264C634.412 713.264 640.106 707.623 640.106 699.253C640.106 698.529 640.07 697.824 639.998 697.155C630.723 701.512 615.429 706.141 608.016 703.176L607.98 703.121Z" fill="#CFA7CD"/>
<path d="M497.987 641.798C492.328 635.289 479.329 634.15 471.013 641.798C463.293 648.903 462.66 663.456 471.013 671.321C478.226 678.118 492.328 677.468 499.939 668.916C506.086 661.992 506.086 651.126 497.987 641.798Z" fill="#CFA7CD"/>
<path d="M557.358 414C549.819 394.583 530.854 373.629 513.968 373.629C499.378 373.629 491.007 386.212 484.282 413.096C480.594 427.866 476.345 440.992 467.143 457.028C465.516 467.803 462.822 478.488 458.791 488.124C443.441 524.806 422.885 544.856 376.422 563.459C375.428 563.857 373.801 564.436 371.83 565.141C372.156 565.177 372.354 565.195 372.354 565.195C485.71 585.19 563.685 506.42 563.685 450.917C563.685 438.75 561.606 427.215 558.262 416.35C557.737 414.958 557.358 414 557.358 414Z" fill="#9C80A7"/>
<path d="M457.218 491.758C442.014 526.163 421.313 545.489 376.405 563.46C375.41 563.858 373.783 564.436 371.812 565.141C372.138 565.177 372.337 565.195 372.337 565.195C467.162 581.919 537.218 529.543 557.593 479.482C532.264 495.537 489.634 501.792 457.218 491.758Z" fill="#846B8D"/>
<path d="M472.35 134.226C471.537 136.395 470.036 140.101 469.638 142.144C468.355 148.58 469.042 155.233 470.994 158.759C474.14 164.418 482.728 167.383 490.773 167.798C492.671 167.907 497.932 167.961 502.904 167.618C501.964 154.456 493.973 133.43 480.269 118.334C477.521 121.787 474.248 129.163 472.35 134.226Z" fill="white"/>
<path d="M502.885 167.6C501.945 154.438 493.954 133.412 480.25 118.316C478.226 120.847 475.948 125.494 474.104 129.797C482.546 139.632 496.178 157.494 502.614 167.618C502.705 167.618 502.795 167.618 502.885 167.618V167.6Z" fill="#DCDDDD"/>
<path d="M534.073 176.712C532.699 179.188 533.512 183.925 536.188 188.77C548.916 179.279 558.443 159.934 556.057 157.729C548.988 161.851 536.278 172.752 534.091 176.73L534.073 176.712Z" fill="white"/>
<path d="M556.056 157.711C549.747 161.399 538.953 170.475 535.139 175.212C540.345 173.223 546.348 171.415 551.88 170.348C555.496 164.129 557.231 158.814 556.056 157.729V157.711Z" fill="#DCDDDD"/>
<path d="M484.825 132.093C481.842 131.406 476.672 134.498 474.321 144.405C472.676 151.312 473.851 158.616 477.322 160.17C480.161 161.454 486.253 156.139 488.061 147.569C489.833 139.162 488.025 132.817 484.843 132.093H484.825Z" fill="#A688BD"/>
<path d="M484.825 132.093C483.126 131.713 480.739 132.545 478.552 135.13C481.553 138.819 484.861 143.013 488.098 147.28C489.761 139.017 487.971 132.816 484.825 132.093Z" fill="#9075A4"/>
<path d="M542.135 176.042C544.739 172.029 546.601 166.298 546.655 164.436C540.996 169.01 535.464 174.216 534.09 176.711C533.494 177.796 533.331 179.315 533.53 181.068C536.35 183.202 538.375 181.846 542.135 176.024V176.042Z" fill="#A688BD"/>
<path d="M535.157 175.211C537.996 174.126 541.087 173.095 544.197 172.191C545.661 168.991 546.619 165.737 546.656 164.436C541.955 168.232 537.381 172.445 535.157 175.211Z" fill="#9075A4"/>
<path d="M607.148 229.033C608.396 228.689 612.12 228.129 613.132 228.129C616.423 228.129 617.996 232.884 617.996 236.608C616.64 236.265 615.284 235.939 614.488 236.5C613.693 237.06 610.656 238.416 609.282 238.868C607.908 239.32 603.966 240.676 603.966 240.676C600.079 239.826 595.849 240.766 593.01 242.936C584.134 249.715 583.645 257.236 589.955 265.643C596.156 273.923 604.943 272.857 609.498 266.764C613.458 265.968 617.634 262.805 619.099 260.997C621.25 261.557 625.987 260.78 626.674 260.545C627.361 260.31 628.265 262.353 627.578 263.817C626.891 265.281 625.661 268.228 625.083 269.458C621.413 277.539 610.638 285.512 602.14 282.909C597.729 281.553 592.088 274.321 589.937 273.074C587.786 271.826 582.47 271.953 579.306 270.018C576.143 268.084 570.719 263.582 568.459 259.514C570.61 259.171 573.431 256.242 573.774 254.886C577.408 254.362 584.043 246.768 584.513 241.327C586.104 239.862 587.225 238.054 587.677 236.463C589.593 237.259 594.8 238.253 596.952 237.367C601.58 235.451 607.112 229.015 607.112 229.015L607.148 229.033Z" fill="#CFA7CD"/>
<path d="M578.674 216.938C578.366 219.559 581.783 227.026 587.93 229.936C595.017 233.281 604.002 232.07 606.913 228.363C601.815 236.445 593.462 239.392 585.562 235.035C583.302 233.787 579.126 230.063 577.878 225.652C576.631 221.24 578.674 216.956 578.674 216.956V216.938Z" fill="#CFA7CD"/>
<path d="M587.152 251.18C586.14 255.229 590.442 263.835 599.139 263.835C604.201 263.835 611.396 261.087 612.354 257.399C611.378 266.402 606.605 271.519 599.247 271.519C598 271.519 591.021 270 588.056 263.275C584.332 254.796 587.152 251.18 587.152 251.18Z" fill="#CFA7CD"/>
<path d="M612.915 259.207C615.735 258.755 618.23 254.688 620.599 254.688C622.641 254.688 627.722 257.291 627.722 258.647C627.722 260.003 627.722 260.907 626.818 261.015C625.914 261.124 620.599 261.232 619.134 261.015C617.326 263.04 614.614 265.878 609.643 266.33C612.011 263.402 612.915 259.207 612.915 259.207Z" fill="#CFA7CD"/>
<path d="M608.161 223.609C612.464 223.609 616.748 227.117 613.585 228.238C610.656 228.346 607.148 229.033 607.148 229.033C608.052 226.665 608.161 223.609 608.161 223.609Z" fill="#CFA7CD"/>
<path d="M556.87 234.801C556.056 239.483 560.485 246.371 568.838 247.348C576.63 248.252 584.549 244.292 584.549 239.664C582.144 251.687 576.883 254.471 568.386 254.471C560.847 254.471 557.123 249.879 555.387 245.214C554.592 243.063 554.7 239.574 554.827 238.091C554.953 236.609 556.851 234.819 556.851 234.819L556.87 234.801Z" fill="#CFA7CD"/>
<path d="M573.811 254.903C573.124 255.807 569.851 259.531 566.579 259.531C563.307 259.531 558.66 256.982 557.738 255.807C556.527 254.307 555.279 250.167 555.731 248.359C556.183 246.551 557.322 246.334 559.347 247.69C561.372 249.046 562.403 250.167 565.458 251.07C568.513 251.974 573.811 254.903 573.811 254.903Z" fill="#CFA7CD"/>
<path d="M379.875 444.734C377.688 445.475 371.884 464.766 373.855 469.141L374.759 469.737C375.808 466.429 380.49 449.254 381.846 448.494C383.202 447.735 393.145 446.524 393.905 446.831C393.905 446.831 394.212 447.428 394.357 446.235C394.501 445.023 386.076 442.619 379.893 444.734H379.875Z" fill="#CFA7CD"/>
<path d="M398.1 464.621C403.27 479.175 426.538 467.134 423.862 454.678C425.526 457.986 427.026 470.352 417.535 475.161C408.043 479.988 402.619 475.921 400.811 473.805C399.004 471.69 398.1 464.621 398.1 464.621Z" fill="#CFA7CD"/>
<path d="M371.976 493.403L379.894 492.806C389.241 496.115 398.877 488.594 398.57 484.219C399.582 495.97 392.64 502.75 385.155 502.75C383.04 502.75 377.472 501.087 375.212 498.537C372.952 495.988 371.976 493.421 371.976 493.421V493.403Z" fill="#CFA7CD"/>
<path d="M355.776 473.516C356.373 473.516 360.152 475.468 361.2 477.131C362.249 478.795 367.672 487.979 369.336 488.738C370.999 489.498 382.895 492.354 379.876 492.806C376.857 493.258 367.98 493.71 366.624 492.806C365.268 491.902 360.441 485.43 358.94 482.411C357.44 479.391 355.776 473.516 355.776 473.516Z" fill="#CFA7CD"/>
<path d="M329.109 470.207C330.61 470.207 333.322 472.015 334.533 473.823C335.744 475.631 342.072 486.478 343.121 487.238C344.169 487.997 354.565 490.998 351.401 492.517C347.188 492.209 343.265 492.065 340.861 489.805C338.456 487.545 333.177 480.006 332.273 478.053C331.369 476.101 329.109 470.225 329.109 470.225V470.207Z" fill="#CFA7CD"/>
<path d="M351.401 492.499C355.993 495.247 362.447 495.301 366.623 492.806L369.191 492.951C368.287 495.662 364.219 499.875 359.319 499.875C354.42 499.875 349.756 496.386 348.707 492.408L351.419 492.499H351.401Z" fill="#CFA7CD"/>
<path d="M347.478 469.304C347.026 468.545 346.43 467.804 347.026 465.996C347.623 464.188 352.757 454.1 354.258 454.1C355.758 454.1 355.162 456.667 355.017 458.023C355.017 458.023 352.902 460.735 352.161 461.639C351.401 462.543 347.496 469.322 347.496 469.322L347.478 469.304Z" fill="#CFA7CD"/>
<path d="M335.51 671.861C333.25 677.05 326.687 683.613 320.143 684.517C321.047 688.133 323.234 693.484 323.234 693.484C326.922 692.652 331.442 688.368 332.581 685.421C333.72 682.474 335.51 671.861 335.51 671.861Z" fill="#CFA7CD"/>
<path d="M543.365 170.818C544.179 169.878 544.215 168.739 543.618 168.143C543.148 167.673 542.154 167.926 541.322 168.974C540.653 169.806 540.671 170.909 541.232 171.307C541.846 171.759 542.895 171.397 543.383 170.818H543.365Z" fill="white"/>
<path d="M544.685 106.168C532.825 87.6366 506.086 70.9315 485.856 69.7925C485.006 69.7383 485.187 66.6829 486.037 66.7191C507.496 67.9304 534.832 84.8705 546.692 104.866C548.861 108.518 546.945 109.711 544.685 106.168Z" fill="#0E141B"/>
<path d="M438 219.198C439.356 212.201 439.175 193.2 438.976 188.066C421.675 173.187 402.294 149.63 402.294 136.703C402.294 120.812 418.475 97.9415 430.515 86.624C441.959 75.8489 446.226 68.7076 446.226 60.2466C446.226 51.7856 445.051 45.6568 442.375 40.0161C441.309 37.7562 441.959 35.1167 443.876 33.7065C451.18 28.3912 469.241 29.2229 481.535 33.3268C485.277 34.5743 485.693 36.5991 485.223 40.685C483.668 53.8466 486.85 76.3008 497.354 95.3924C499.198 98.737 497.39 99.5144 495.401 96.2602C483.993 77.3856 480.558 53.9912 482.167 40.3415C482.565 36.9246 482.312 36.8342 480.576 36.2556C469.259 32.4771 452.138 31.537 445.702 36.2195C445.087 36.6715 444.689 37.702 445.178 38.7325C447.998 44.7167 449.318 51.5686 449.318 60.2647C449.318 69.6839 444.798 77.4398 432.649 88.8839C426.303 94.85 406.308 120.522 406.308 136.504C406.308 148.292 424.513 171.704 441.508 186.186C441.833 186.457 442.032 186.855 442.05 187.27C442.285 191.7 442.61 214.425 441.58 220.825C441.453 221.584 437.982 219.451 438.036 219.234L438 219.198Z" fill="#0E141B"/>
<path d="M538.628 192.097C540.924 188.481 551.483 174.145 552.893 172.102C556.075 167.455 559.329 160.875 560.631 156.463C560.775 155.957 560.92 155.794 561.372 155.541C562.927 154.71 564.427 152.721 564.861 151.383C565.096 150.624 565.548 147.46 561.39 138.24C559.962 135.076 555.749 122.204 554.954 118.57C552.784 108.644 559.13 86.7323 565.621 76.4453C567.031 74.2216 566.814 73.625 566.362 72.8657C564.03 68.9786 553.616 62.0001 547.541 59.6498C545.86 58.999 545.3 59.3425 544.866 62.0724C544.323 65.4171 543.004 70.2984 541.25 73.6792C537.833 80.2962 534.778 83.4058 528.54 86.5877C528.305 86.6962 524.961 84.0928 525.738 83.7493C531.849 81.0374 535.302 78.5063 538.538 72.269C540.129 69.1956 541.286 64.2781 541.774 61.277C542.642 55.8532 543.817 54.6058 548.59 56.4679C554.574 58.782 566.416 66.3391 569.363 71.2385C570.791 73.625 570.122 75.6137 568.586 78.0544C561.191 89.7696 555.478 108.861 557.449 117.937C558.19 121.372 562.854 133.991 564.192 136.956C567.501 144.26 568.712 149.413 567.79 152.287C567.23 154.041 565.223 156.029 562.692 157.385C561.209 162.068 557.937 168.92 554.719 173.584C553.291 175.663 542.985 190.832 540.78 194.429C540.491 194.9 538.466 192.314 538.628 192.061V192.097Z" fill="#0E141B"/>
<path d="M510.171 164.473C513.371 160.821 515.541 152.577 514.673 142.2C514.275 137.463 516.264 137.156 516.987 141.91C518.723 153.138 516.155 161.924 511.636 166.173C508.797 168.83 507.658 167.366 510.171 164.491V164.473Z" fill="#0E141B"/>
<path d="M528.576 169.408C529.968 165.358 533.313 157.602 536.115 154.185C539.46 150.081 540.617 150.895 537.887 155.306C535.555 159.067 532.138 165.937 530.692 170.095C529.064 174.796 526.985 174.054 528.576 169.426V169.408Z" fill="#0E141B"/>
<path d="M501.295 166.768C499.993 153.082 491.514 132.038 477.485 117.611C473.851 113.887 475.044 112.621 479.166 116.02C495.618 129.616 504.097 151.093 503.753 166.786C503.627 173.132 501.891 173.15 501.295 166.786V166.768Z" fill="#0E141B"/>
<path d="M471.374 132.4C473.255 126.94 475.767 120.576 478.28 117.231C478.425 117.033 481.173 119.654 480.974 119.925C478.714 123.071 475.514 128.802 473.652 133.268C471.808 137.679 469.838 136.92 471.392 132.4H471.374Z" fill="#0E141B"/>
<path d="M488.73 168.504C481.281 168.052 472.983 165.485 469.657 159.501C467.65 155.903 467.252 149.72 468.554 143.501C469.331 139.813 470.814 140.211 470.289 143.881C469.494 149.341 470.289 155.325 471.953 158.344C474.628 163.153 480.54 165.774 488.802 166.66C493.756 167.203 493.756 168.812 488.748 168.504H488.73Z" fill="#0E141B"/>
<path d="M478.19 161.345C473.869 160.694 471.085 152.486 473.146 143.863C475.369 134.534 480.504 130.086 485.114 131.135C489.2 132.057 491.026 139.578 489.326 147.623C487.591 155.885 481.769 161.869 478.172 161.327L478.19 161.345ZM483.993 133.539C482.095 133.539 477.918 135.89 475.803 144.767C474.194 151.51 475.604 157.729 477.937 158.778C478.009 158.814 478.117 158.832 478.244 158.832C480.233 158.832 484.951 154.746 486.542 147.262C488.187 139.451 486.452 134.046 484.481 133.594C484.337 133.558 484.156 133.539 483.993 133.539Z" fill="#0E141B"/>
<path d="M482.927 138.873C481.824 138.583 479.474 140.789 478.136 146.068C477.033 150.389 477.069 154.131 478.515 154.656C480.106 155.216 481.878 152.812 483.144 147.605C484.102 143.664 484.12 139.18 482.927 138.873Z" fill="#0E141B"/>
<path d="M481.951 135.274C481.246 134.949 479.98 135.781 479.42 136.883C478.895 137.914 478.895 139.433 479.655 139.83C480.269 140.138 481.445 139.903 482.222 138.258C482.837 136.92 482.656 135.6 481.951 135.274Z" fill="white"/>
<path d="M521.543 199.22C521.145 198.624 520.531 197.864 520.205 197.304C518.994 195.243 521.326 193.923 522.411 196.219C522.754 196.924 522.953 197.81 523.08 198.624C523.369 200.413 522.537 200.666 521.543 199.238V199.22Z" fill="#0E141B"/>
<path d="M534.434 203.994C534.669 203.651 534.922 203.289 535.645 202.53C537.417 200.613 539.387 202.765 537.109 204.374C536.386 204.88 535.627 205.169 535.121 205.35C533.873 205.802 533.548 205.296 534.434 203.994Z" fill="#0E141B"/>
<path d="M512.594 220.066C506.23 219.686 473.2 204.934 462.515 197.684C458.158 194.719 459.405 192.911 463.726 195.858C474.339 203.108 507.441 216.685 512.775 216.992C530.492 218.041 540.978 203.126 541.105 200.974C541.177 199.655 535.12 190.018 534.831 189.53C531.866 184.161 531.071 178.972 532.716 175.989C535.048 171.795 548.264 160.314 555.911 156.319C559.636 154.366 559.979 155.777 556.508 157.783C549.62 161.779 537.38 173.892 535.41 177.471C534.506 179.099 534.795 183.094 537.525 188.03C537.796 188.518 538.266 189.313 538.827 190.271C542.985 197.359 544.196 199.781 544.196 201.047C544.196 205.368 531.866 221.169 512.594 220.066Z" fill="#0E141B"/>
<path d="M504.459 211.947C498.656 207.536 491.948 204.047 483.361 202.745C479.293 202.13 479.673 200.358 483.686 200.955C492.78 202.293 499.741 205.204 505.598 210.519C507.822 212.544 506.737 213.683 504.441 211.929L504.459 211.947Z" fill="#0E141B"/>
<path d="M549.114 172.482C553.037 167.402 555.152 160.188 554.845 158.706C554.357 158.164 556.219 155.922 556.906 156.446C558.461 157.621 557.647 164.708 550.542 173.657C547.649 177.291 546.294 176.134 549.096 172.5L549.114 172.482Z" fill="#0E141B"/>
<path d="M535.428 187.523C537.724 185.951 541.123 182.877 543.021 181.015C545.733 178.339 546.709 179.044 544.341 182.064C542.533 184.378 539.713 187.722 537.037 189.675C536.766 189.874 534.723 188.012 535.41 187.523H535.428Z" fill="#0E141B"/>
<path d="M534.307 183.04C533.693 183.022 533.584 180.6 534.416 180.708C539.55 181.359 544.197 172.356 544.884 166.281C544.92 166.028 548.463 162.936 548.463 163.786C548.463 171.813 541.413 183.275 534.307 183.04Z" fill="#0E141B"/>
<path d="M536.947 173.259C535.934 175.79 535.663 178.14 536.459 178.502C537.182 178.827 538.501 177.236 539.785 174.615C540.906 172.283 541.268 170.493 540.4 169.987C540.056 169.788 536.947 173.277 536.947 173.277V173.259Z" fill="#0E141B"/>
<path d="M454.94 219.849C453.693 215.22 452.752 207.23 452.716 203.541C452.662 198.479 454.108 198.353 454.488 203.361C454.741 206.832 455.754 214.895 456.784 219.632C457.724 223.88 456.097 224.133 454.94 219.849Z" fill="#0E141B"/>
<path d="M473.182 231.691C467.397 225.942 465.535 210.701 469.349 201.192C469.675 200.396 472.007 201.3 471.7 202.077C468.319 210.52 469.404 224.007 474.882 231.13C475.587 232.053 475.569 235.18 475.225 235.198C474.267 235.253 474.393 232.902 473.2 231.691H473.182Z" fill="#0E141B"/>
<path d="M508.129 309.666C514.366 305.653 523.587 292.473 523.587 276.943C523.587 254.832 502.362 223.754 490.177 224.514C488.242 224.64 479.853 228.437 475.858 228.437C474.954 228.437 472.875 228.075 471.392 227.497C470.977 227.334 470.181 223.538 470.886 224.026C471.429 224.387 474.936 225.779 475.858 225.779C479.257 225.779 488.17 221.495 490.177 221.458C504.911 221.223 526.787 250.963 526.787 277.232C526.787 293.287 517.82 306.593 509.033 311.709C508.762 311.854 507.424 310.136 508.147 309.684L508.129 309.666Z" fill="#0E141B"/>
<path d="M369.191 566.931C368.359 566.786 374.307 563.984 375.139 564.11C428.707 572.879 481.046 559.699 519.102 527.771C545.661 505.498 562.149 476.047 562.149 450.917C562.149 425.787 553.76 401.597 536.476 374.605C535.518 373.123 522.086 353.417 517.276 344.359C511.889 334.199 508.273 316.21 507.948 314.745C503.789 296.377 498.655 292.327 490.61 292.327C479.69 292.327 471.699 314.095 461.231 314.095C449.462 314.095 428.201 284.228 428.201 281.1C428.201 279.021 427.478 260.779 424.784 250.456C419.523 230.28 410.845 224.947 406.994 224.947C403.812 224.947 400.269 227.568 397.231 232.124C394.646 236.029 393.742 239.518 392.784 243.225C391.663 247.545 390.506 252.011 386.691 257.362C385.986 258.357 364.255 289.399 358.994 295.148C357.493 296.775 346.049 308.906 345.037 311.31C342.578 317.186 342.452 333.114 344.693 353.941C344.838 355.333 347.676 374.189 347.984 379.089C348.237 383.319 349.665 414.542 349.051 416.675C348.544 418.465 345.2 426.709 344.043 429.24C343.554 430.289 337.606 441.064 337.281 442.312C337.082 443.071 335.997 453.846 335.003 456.992C334.316 459.215 330.122 469.105 330.104 469.991C330.212 472.883 340.156 487.31 342.452 488.684C343.121 489.01 346.682 490.203 349.159 490.908C353.408 492.101 353.154 493.71 348.779 493.168C345.109 492.716 342.072 491.921 341.06 491.414C337.588 489.679 326.199 473.986 326.343 469.864C326.397 468.49 331.803 458.167 332.454 456.088C333.358 453.231 333.665 442.492 333.918 441.516C334.316 439.997 340.246 430.723 341.548 428.065C342.795 425.516 345.688 417.272 346.122 415.771C346.429 413.855 345.453 387.532 344.928 379.234C344.639 374.461 341.819 355.676 341.656 354.23C340.553 343.997 336.757 318.253 341.457 309.539C344.621 303.663 352.16 298.384 356.752 293.014C361.67 287.247 383.491 256.549 384.196 255.536C387.667 250.637 388.716 246.641 389.819 242.393C393.344 228.852 400.287 221.096 406.994 221.096C412.02 221.096 422.036 227.676 427.767 249.643C430.497 260.074 431.256 278.262 431.274 280.938C432.431 284.626 451.957 310.262 461.231 310.262C468.843 310.262 476.526 289.778 490.61 289.778C501.566 289.778 506.881 296.124 510.949 314.022C511.292 315.505 514.221 333.385 519.392 343.13C524.128 352.025 538.104 371.387 539.062 372.888C556.671 400.386 566.705 425.896 566.705 450.845C566.705 475.794 548.499 507.704 521.272 530.537C473.38 570.727 414.208 574.795 369.191 566.84V566.931Z" fill="#0E141B"/>
<path d="M383.637 258.194C380.473 243.17 382.66 228.436 390.416 219.107C401.372 205.927 423.7 207.283 445.901 223.518C453.223 228.887 452.717 230.641 444.997 225.706C421.151 210.465 402.963 210.158 393.49 221.547C386.638 229.791 383.926 241.923 385.951 255.048C386.041 255.663 383.781 258.953 383.619 258.212L383.637 258.194Z" fill="#0E141B"/>
<path d="M380.183 405.034C395.388 389.576 428.472 370.629 433.498 368.659C443.351 360.306 444.147 356.256 444.147 349.26C444.147 345.915 440.911 337.038 438.036 329.716C433.263 317.531 427.858 310.95 415.763 302.616C412.707 300.5 402.366 293.558 398.443 287.23C397.991 286.507 400.667 284.464 401.101 285.169C403.975 289.797 411.46 295.908 417.498 300.084C430.172 308.817 435.849 315.741 440.893 328.577C441.887 331.126 446.877 344.089 446.877 349.26C446.877 357.522 445.738 362.367 435.252 371.19C435.071 371.334 434.872 371.443 434.655 371.497C431.998 372.292 397.033 392.505 381.593 408.631C381.286 408.939 379.966 405.269 380.183 405.052V405.034Z" fill="#0E141B"/>
<path d="M415.817 211.459C420.138 199.31 427.586 191.247 437.439 184.196C438.126 183.708 439.916 186.203 439.229 186.691C429.846 193.398 422.922 202.112 418.673 212.616C418.438 213.213 415.546 212.255 415.817 211.459Z" fill="#0E141B"/>
<path d="M388.589 223.592C387.215 202.005 396.526 182.588 420.481 166.733C421.186 166.263 422.958 168.74 422.271 169.228C401.57 184.053 391.247 201.39 391.536 220.789C391.536 221.657 388.626 224.405 388.571 223.592H388.589Z" fill="#0E141B"/>
<path d="M474.212 230.949C476.309 230.949 479.075 230.497 480.196 230.28C483.685 229.575 484.029 230.28 480.757 231.636C479.111 232.304 476.183 232.883 474.881 232.937C474.7 232.937 473.362 230.967 474.194 230.967L474.212 230.949Z" fill="#0E141B"/>
<path d="M493.304 254.543C491.876 252.572 489.688 249.987 486.343 246.823L485.403 245.937C482.276 243.008 479.708 240.459 477.918 237.096C476.671 234.782 477.394 234.366 478.931 236.481C480.902 239.193 484.138 241.471 487.085 244.237L488.025 245.123C491.821 248.703 493.448 251.162 494.859 253.819C496.703 257.272 495.6 257.706 493.286 254.524L493.304 254.543Z" fill="#0E141B"/>
<path d="M480.432 284.138C482.294 276.924 481.462 263.202 477.937 253.222C476.147 248.214 477.485 247.672 479.528 252.662C483.596 262.605 485.168 276.273 482.457 284.517C481.281 288.115 479.546 287.591 480.432 284.138Z" fill="#0E141B"/>
<path d="M496.522 277.286C497.715 273.019 498.023 267.559 497.932 264.468C497.824 260.671 498.89 260.599 499.686 264.305C500.427 267.686 500.029 273.851 498.33 277.864C496.811 281.462 495.492 281.028 496.522 277.304V277.286Z" fill="#0E141B"/>
<path d="M548.843 325.757C542.787 317.133 527.889 293.757 523.984 287.067C523.496 286.236 525.413 281.843 525.792 282.584C527.51 286.019 543.907 314.277 550.416 323.605C551.392 324.997 549.837 327.167 548.825 325.757H548.843Z" fill="#0E141B"/>
<path d="M548.463 325.775C549.187 321.345 552.151 317.151 556.075 311.962C566.362 298.385 572.183 289.49 575.058 276.256C575.238 275.425 577.607 275.877 577.426 276.708C574.696 289.291 567.356 302.579 558.787 313.879C555.279 318.507 552.35 322.123 551.211 325.63C549.476 331 547.577 331.18 548.463 325.757V325.775Z" fill="#0E141B"/>
<path d="M566.542 271.717C565.168 269.583 560.052 265.516 558.262 264.485C557.937 264.304 553.055 263.256 552.35 262.768C550.832 261.719 549.15 257.724 549.15 256.35C549.15 254.198 553.381 244.851 553.815 242.573C553.977 241.742 556.075 247.563 555.912 248.124C555.352 250.185 552.82 256.368 552.784 256.747C552.838 257.489 553.815 259.622 554.321 260.002C554.628 260.182 559.257 261.159 560.016 261.593C562.131 262.822 567.446 267.468 569.128 270.072C571.442 273.651 574.931 275.965 578.674 275.387C582.163 274.845 582.579 276.67 578.963 277.249C573.611 278.099 569.905 276.96 566.542 271.735V271.717Z" fill="#0E141B"/>
<path d="M555.622 367.445C550.723 367.445 542.027 359.201 540.146 356.598C539.224 355.314 525.611 339.784 523.984 337.615C520.874 333.475 511.021 316.48 508.255 311.075C507.875 310.316 510.605 308.923 511.003 309.683C513.642 314.871 523.496 331.269 526.461 335.228C528.015 337.29 541.954 352.928 542.967 354.356C545.028 357.231 552.404 363.432 555.514 363.432H555.586C558.262 363.36 562.131 362.383 566.271 354.501C576.088 335.825 596.192 299.432 601.001 291.73C601.218 291.387 604.761 290.989 604.309 291.73C599.482 299.45 579.812 337.073 570.212 356.399C566.578 363.703 560.829 367.319 555.64 367.464L555.622 367.445Z" fill="#0E141B"/>
<path d="M598.705 293.304C595.108 292.002 590.552 286.777 588.382 281.751C587.243 279.093 588.906 278.388 590.027 280.956C591.889 285.24 597.078 289.362 599.645 290.375C601.616 290.411 612.138 287.808 613.512 286.867C616.477 284.824 622.136 274.718 622.732 269.71C622.769 269.457 627.108 266.709 627.089 267.559C626.981 273.38 619.189 286.687 615.248 289.398C612.644 291.188 601.218 294.226 598.705 293.304Z" fill="#0E141B"/>
<path d="M599.084 272.946C591.636 272.946 584.061 263.726 584.061 254.686C584.061 246.37 592.919 238.234 599.536 238.234C603.55 238.234 606.912 240.675 609.118 243.676C611.071 246.334 609.679 247.563 607.383 245.303C605.34 243.297 602.537 241.308 599.536 241.308C594.42 241.308 587.134 248.232 587.134 254.686C587.134 261.918 593.389 269.873 599.084 269.873C607.202 269.873 612.011 262.569 611.432 253.891C611.197 250.365 613.059 249.986 613.764 253.493C615.518 262.37 610.112 272.946 599.102 272.946H599.084Z" fill="#0E141B"/>
<path d="M609.408 268.265C608.685 268.265 610.149 264.993 610.655 264.83C613.747 263.854 617.019 261.901 618.737 259.425C620.761 256.496 622.154 257.165 620.653 260.383C618.791 264.396 614.289 267.379 609.697 268.247C609.607 268.247 609.498 268.265 609.408 268.265Z" fill="#0E141B"/>
<path d="M618.411 262.443C617.616 262.135 618.736 259.351 619.55 259.586C621.159 260.056 622.515 260.273 623.817 260.111C628.409 259.514 629.222 260.888 624.612 262.081C622.587 262.606 619.912 263.039 618.411 262.443Z" fill="#0E141B"/>
<path d="M622.623 268.337C626.095 265.878 630.976 260.852 631.663 259.641C632.242 258.177 632.115 246.696 631.916 244.256C631.79 242.755 630.253 240.188 628.445 239.121C627.848 238.995 620.526 239.338 620.038 239.338C618.809 239.338 614.849 238.199 614.542 238.145C614.181 238.272 608.612 241.074 606.045 241.978C605.593 242.141 602.321 239.609 603.134 239.356C605.973 238.489 609.245 237.295 611.161 236.337C614.289 234.764 614.217 234.818 616.856 235.578C617.923 235.885 619.243 236.265 620.038 236.265C620.508 236.265 629.186 235.65 630.036 236.138C632.856 237.783 635.315 241.544 635.514 243.876C635.514 244.021 635.659 258.828 634.321 261.16C633.381 262.787 628.734 267.433 624.16 270.091C619.586 272.748 618.447 271.284 622.623 268.319V268.337Z" fill="#0E141B"/>
<path d="M620.002 237.241C620.563 235.017 622.606 227.225 623.022 226.068C623.166 225.344 622.443 221.62 621.539 220.3C619.568 217.408 615.428 206.669 615.428 206.669C614.868 205.204 614.344 204.807 612.391 205.277C610.637 205.692 607.003 205.729 605.25 205.168C601.959 204.12 600.603 204.192 598.524 206.651C597.982 207.302 595.686 205.349 596.174 204.662C598.886 200.847 602.285 201.209 606.353 202.492C607.455 202.836 610.764 202.041 612.138 201.715C615.464 200.92 617.562 201.968 618.755 204.987C618.755 204.987 622.913 215.853 624.685 218.438C625.914 220.246 627.144 225.236 626.529 226.972C626.203 227.894 623.401 235.27 622.768 237.855C622.588 238.56 619.84 238.072 620.038 237.259L620.002 237.241Z" fill="#0E141B"/>
<path d="M585.001 204.209C591.509 201.425 598.705 203.685 603.008 209.181C604.852 211.531 603.713 212.526 601.543 210.519C598.036 207.247 592.92 204.661 586.447 207.446C579.469 210.429 577.299 224.277 582.343 230.279C586.935 235.739 594.691 237.222 600.404 233.733C605.195 230.786 607.292 226.447 606.877 220.119C606.623 216.304 608.576 215.907 609.118 219.739C610.167 227.278 607.853 232.774 602.013 236.336C595.035 240.603 584.44 237.728 579.975 232.702C571.568 223.247 577.01 207.644 585.001 204.209Z" fill="#0E141B"/>
<path d="M607.727 227.225C609.029 226.899 610.818 226.773 612.174 227.098C614.615 227.713 614.723 228.852 612.337 229.195C610.312 229.484 608.775 229.81 607.329 230.515C607.185 230.587 607.166 227.351 607.727 227.225Z" fill="#0E141B"/>
<path d="M566.235 255.284C561.896 254.507 562.384 252.355 566.615 253.097C570.664 253.802 574.678 252.735 577.281 250.746C583.284 246.172 584.658 238.435 580.554 232.342C575.672 225.074 566.235 224.387 560.956 229.305C557.141 232.848 555.641 240.821 556.942 245.648C558.425 251.126 555.659 252.211 554.032 246.661C551.898 239.32 553.363 231.709 558.624 226.81C563.921 221.892 571.839 221.766 577.824 225.183C578.908 225.797 585.381 234.331 585.616 235.144C587.496 241.671 585.326 248.884 579.505 253.314C576.142 255.881 572.436 256.387 566.253 255.266L566.235 255.284Z" fill="#0E141B"/>
<path d="M567.066 258.682C570.321 258.139 572.291 256.096 572.544 253.837C572.635 252.987 575.69 253.33 575.6 254.18C575.437 255.608 574.298 259.532 567.446 260.634C564.788 261.068 564.463 259.116 567.066 258.682Z" fill="#0E141B"/>
<path d="M584.224 239.157C585.055 237.982 586.068 236.608 586.719 235.776C586.936 235.487 590.099 236.535 589.539 237.168C589.087 237.674 586.429 241.29 585.598 242.556C585.308 243.008 583.718 239.862 584.224 239.139V239.157Z" fill="#0E141B"/>
<path d="M412.345 280.449C410.917 279.329 409.633 278.045 408.513 276.454C408.024 275.767 411.026 273.579 411.297 274.375C411.749 275.695 412.725 277.503 414.009 279.021C416.992 282.51 415.654 283.053 412.345 280.449Z" fill="#0E141B"/>
<path d="M413.702 454.28C414.696 452.472 414.425 448.332 414.118 447.283C413.539 445.349 406.922 429.059 405.82 427.631C405.404 427.27 402.674 426.094 400.287 425.028C393.454 422.045 384.107 417.941 381.449 413.674C375.953 404.87 370.602 369.416 370.602 349.349C370.602 344.72 371.506 324.743 371.849 323.17C372.59 319.825 390.398 293.936 395.442 287.934C399.908 282.637 408.839 274.212 414.552 269.023C420.988 263.166 422.561 264.829 416.179 270.795C410.611 276.002 402.059 284.842 397.793 289.905C392.513 296.178 375.555 321.218 374.832 323.839C374.579 325.159 373.675 344.16 373.675 349.331C373.675 370.411 379.316 404.399 384.07 412.011C386.222 415.464 395.804 419.658 401.535 422.171C406.073 424.16 407.591 424.865 408.224 425.642C409.869 427.667 416.812 445.421 417.101 446.361C417.499 447.699 417.915 452.671 415.438 455.545C413.124 458.221 412.039 457.371 413.738 454.244L413.702 454.28Z" fill="#0E141B"/>
<path d="M402.565 463.049C400.865 463.211 398.913 462.904 397.575 462.235C396.816 461.855 398.316 458.927 398.949 459.487C400.088 460.481 400.992 460.861 402.565 460.951C406.397 461.168 406.379 462.669 402.565 463.049Z" fill="#0E141B"/>
<path d="M384.269 484.4C384.215 482.592 383.329 480.495 382.642 479.537C382.19 478.922 380.69 478.235 379.587 477.711C378.14 477.042 377.001 476.517 376.405 475.668C375.591 474.493 373.639 470.461 373.639 468.454C373.639 468.291 379.171 447.916 381.142 446.615C382.678 445.584 393.652 445.223 394.195 445.331C395.424 445.566 396.165 446.633 398.353 452.798C399.166 455.076 399.817 459.415 399.474 461.819C398.027 471.962 406.561 478.235 416.125 473.769C429.503 467.532 423.013 451.243 416.07 448.603C415.781 448.495 415.112 445.132 415.944 445.349C427.08 448.133 434.131 469.684 417.86 477.277C404.608 483.46 394.719 473.39 396.418 461.385C396.69 459.541 396.093 455.69 395.442 453.828C394.393 450.917 393.652 449.073 393.218 448.332C391.32 448.332 384.739 448.802 382.986 449.182C381.612 451.93 376.405 466.899 376.242 468.508C376.242 469.394 378.14 472.793 378.918 473.896C379.117 474.113 380.183 474.601 380.87 474.926C382.425 475.65 384.197 476.463 385.119 477.711C386.149 479.121 386.818 482.411 386.475 484.545C385.842 488.576 384.378 488.052 384.269 484.382V484.4Z" fill="#0E141B"/>
<path d="M385.733 504.232C377.073 504.232 371.884 498.863 371.053 493.493C370.926 492.661 373.331 492.282 373.493 493.113C374.072 496.313 378.248 500.815 385.697 500.815C392.097 500.815 397.502 495.211 397.502 488.576C397.502 481.941 394.736 476.698 390.09 474.347C386.293 472.431 381.972 472.901 378.266 475.649C377.579 476.155 376.241 474.474 376.838 473.877C380.454 470.37 386.836 469.032 391.645 471.455C397.34 474.329 400.901 480.82 400.901 488.576C400.901 496.874 393.814 504.232 385.751 504.232H385.733Z" fill="#0E141B"/>
<path d="M365.557 493.783C363.333 492.39 353.426 475.812 352.974 473.263C352.703 471.708 353.354 466.447 353.589 464.585C353.77 463.048 353.932 460.861 353.752 458.601C353.462 454.732 355.469 454.551 355.849 458.438C356.066 460.861 356.228 463.807 356.102 464.983C355.885 466.827 355.831 471.69 356.011 472.738C356.373 474.366 365.973 489.733 367.311 490.781C368.251 491.161 374.398 492.065 377.544 492.047C381.702 492.029 382.226 493.114 377.544 493.963C373.53 494.705 366.515 494.379 365.575 493.801L365.557 493.783Z" fill="#0E141B"/>
<path d="M352.739 450.157C351.889 446.433 352.179 443.938 354.656 441.57C357.259 439.093 358.452 440.142 356.066 442.817C354.674 444.39 354.149 446.614 354.656 449.814C355.108 452.598 353.39 452.996 352.739 450.157Z" fill="#0E141B"/>
<path d="M359.32 501.412C353.697 501.412 347.894 497.525 347.894 492.409C347.894 491.559 350.244 491.487 350.244 492.337C350.244 495.247 354.908 498.339 359.338 498.339C363.152 498.339 367.564 496.278 368.63 492.319C368.847 491.505 371.342 492.102 371.125 492.915C369.823 497.797 365.249 501.412 359.338 501.412H359.32Z" fill="#0E141B"/>
<path d="M355.848 486.497C356.083 484.996 355.993 482.284 355.812 481.688C355.685 481.471 352.232 478.289 351.455 477.403C350.189 475.956 346.772 470.695 346.772 469.231C346.772 468.237 350.497 462.072 352.449 458.528C354.745 454.388 356.499 455.961 354.474 459.649C352.775 462.741 350.298 467.622 349.502 469.303C350.515 471.328 352.467 473.895 353.751 475.36C354.42 476.119 358.162 479.59 358.542 480.314C359.121 481.398 358.65 484.562 357.982 486.822C356.879 490.492 355.288 489.932 355.83 486.479L355.848 486.497Z" fill="#0E141B"/>
<path d="M451.56 376.612C446.498 371.604 440.839 370.61 434.385 371.477C433.535 371.586 436.229 368.133 436.988 368.097C443.225 367.789 447.908 370.176 453.042 375.256C455.718 377.914 454.254 379.27 451.578 376.612H451.56Z" fill="#0E141B"/>
<path d="M345.218 579.261C349.069 571.722 364.328 566.207 372.753 563.17C374.036 562.7 375.103 562.32 375.826 562.031C420.463 544.169 441.797 524.68 457.345 487.527C472.386 451.568 469.186 400.061 459.442 385.923C456.893 382.217 458.429 380.915 461.087 384.73C473.11 402.031 476.038 452.146 460.689 488.793C444.78 526.813 422.488 546.664 376.965 564.87C376.206 565.177 375.121 565.557 373.783 566.045C367.021 568.485 350.804 573.819 347.171 580.092C344.603 584.558 342.85 583.853 345.2 579.242L345.218 579.261Z" fill="#0E141B"/>
<path d="M468.518 451.351C475.677 437.828 479.474 425.968 482.782 412.716C489.996 383.844 499.035 372.074 513.951 372.074C528.866 372.074 544.07 386.447 553.49 402.574C555.587 406.153 556.346 415.337 556.039 414.542C548.644 395.523 529.878 375.148 513.951 375.148C500.735 375.148 492.563 386.248 485.765 413.457C481.987 428.553 477.015 444.137 467.849 460.083C467.56 460.571 467.632 452.96 468.5 451.333L468.518 451.351Z" fill="#0E141B"/>
<path d="M316.87 670.272C317.394 648.631 322.764 636.211 331.46 620.265C337.968 608.351 353.878 580.853 363.659 568.034C364.147 567.402 369.733 566.443 369.191 567.094C359.754 578.755 340.933 609.291 334.154 621.729C325.674 637.277 319.546 649.173 319.021 670.145C318.931 674.014 316.78 674.159 316.87 670.254V670.272Z" fill="#0E141B"/>
<path d="M328.477 705.869C323.578 699.813 319.908 689.327 318.118 681.354C317.25 677.449 319.275 676.961 320.143 680.829C321.969 688.947 326.85 699.523 331.605 704.802C332.165 705.435 328.748 706.213 328.477 705.869Z" fill="#0E141B"/>
<path d="M323.234 691.93C326.506 691.93 333.448 683.397 333.448 673.887C333.448 666.565 325.041 655.23 319.618 655.23C318.768 655.23 318.768 652.156 319.618 652.156C328.025 652.156 337.173 665.209 337.173 673.815C337.173 684.084 330.574 693.774 324.083 694.931C323.794 694.986 322.402 691.93 323.252 691.93H323.234Z" fill="#0E141B"/>
<path d="M330.158 747.559C318.822 747.559 310.741 744.956 303.943 740.075C301.72 738.466 298.809 733.403 297.381 731.74C293.765 727.546 294.868 725.828 298.773 729.824C301.304 732.409 303.889 736.242 305.751 737.562C311.988 742.045 319.509 744.052 330.158 744.052C348.074 744.052 351.672 737.616 351.672 727.202C351.672 718.94 341.331 707.189 331.658 707.189C327.717 707.189 322.637 708.689 320.359 709.43C316.327 710.75 315.731 709.25 319.6 707.243C322.239 705.887 327.464 704.115 331.658 704.115C343.717 704.115 355.451 717.06 355.451 727.202C355.451 741.051 347.893 747.541 330.14 747.541L330.158 747.559Z" fill="#0E141B"/>
<path d="M303.419 738.827C282.737 731.631 270.099 732.065 256.269 738.971C255.51 739.351 258.023 734.036 258.927 733.674C273.263 727.726 288.739 730.745 301.087 734.379C301.539 734.524 304.088 738.827 303.437 738.827H303.419Z" fill="#0E141B"/>
<path d="M227.559 750.001C217.399 750.001 209.173 742.335 209.173 732.193C209.173 724.545 212.427 718.724 217.272 715.813C221.955 713.011 225.245 710.787 226.312 709.72C227.143 708.889 235.532 699.234 240.92 693.305C243.957 689.942 246.832 687.754 249.218 684.88C251.207 682.493 252.183 679.637 254.425 677.684C256.847 675.587 262.723 672.911 264.983 671.79C265.742 671.411 265.562 674.466 264.82 674.936C263.247 675.949 258.203 678.082 256.395 680.053C254.533 682.095 253.828 684.211 251.677 686.724C248.82 690.05 246.09 692.292 243.089 695.474C238.425 700.446 229.385 710.986 228.481 711.89C226.872 713.499 222.353 716.337 218.845 718.453C214.958 720.785 212.807 725.666 212.807 732.193C212.807 740.599 219.134 746.927 227.541 746.927C249.815 746.927 259.451 734.073 259.451 727.528C259.451 721.508 252.906 715.289 244.716 713.969C241.372 713.445 241.733 711.492 245.168 712.016C255.184 713.517 263.03 720.08 263.03 727.528C263.03 737.653 250.05 750.001 227.559 750.001Z" fill="#0E141B"/>
<path d="M259.343 685.422C262.271 677.287 267.587 661.576 269.738 655.935C271.763 650.602 278.832 633.119 282.845 625.237C286.751 617.589 313.616 573.983 314.466 572.645C319.51 564.636 327.971 551.239 328.314 547.949C328.549 545.779 323.053 495.718 328.821 473.011C329.038 472.179 332.219 477.693 332.021 478.561C327.338 498.557 331.623 545.87 331.37 548.274C330.972 551.98 324.644 562.249 317.051 574.29C316.201 575.628 290.186 619.108 286.299 626.701C282.43 634.295 274.891 651.958 273.3 657.183C271.763 662.227 265.164 678.317 261.765 686.308C259.343 692.021 257.227 691.226 259.306 685.44L259.343 685.422Z" fill="#0E141B"/>
<path d="M325.042 558.036C261.747 531.876 230.706 489.047 220.075 435.677C218.159 426.077 214.597 408.197 205.955 387.478C191.293 352.332 178.131 329.318 164.536 315.035C134.579 283.56 107.189 291.153 92.2377 299.722C86.4343 303.049 85.0784 301.15 90.9902 297.734C116.988 282.71 143.474 288.441 166.76 312.902C180.626 327.474 193.987 350.796 208.794 386.285C217.562 407.293 221.16 425.372 223.094 435.08C233.797 488.757 270.136 530.628 326.922 554.113C327.7 554.439 325.241 558.109 325.042 558.036Z" fill="#0E141B"/>
<path d="M90.1582 523.994C53.9277 492.374 38 434.051 38 387.045C38 316.338 78.6418 263.203 128.576 263.203C173.629 263.203 199.302 283.289 235.605 346.801C249.851 371.732 266.104 397.205 289.191 415.14C307.794 429.585 329.869 433.418 341.168 430.272C341.982 430.037 339.812 434.394 339.36 434.484C327.428 437.106 306.456 433.129 286.895 417.924C263.374 399.646 247.338 373.522 232.947 348.32C199.266 289.364 172.364 267.596 128.594 267.596C80.3412 267.596 41.0915 321.183 41.0915 387.045C41.0915 452.907 68.8972 500.112 92.6893 520.884C133.656 556.627 171.641 557.693 179.288 546.195C184.007 539.126 183.718 527.953 149.964 494.344C132.373 476.826 106.899 461.766 88.748 434.756C69.0418 405.413 64.2508 367.176 76.0927 335.068C84.1198 313.264 98.8723 297.318 116.951 290.647C118.307 290.141 125.485 291.605 124.671 291.84C105.67 297.21 87.2655 313.626 78.9672 336.134C67.4689 367.339 72.7119 404.13 91.2972 433.056C107.044 457.571 132.029 471.004 152.838 491.614C186.303 524.717 189.105 539.723 182.814 549.16C175.238 560.514 135.573 563.623 90.1582 523.994Z" fill="#0E141B"/>
<path d="M294.308 642.411C294.814 640.711 295.519 638.271 296.188 635.776C297.887 629.556 299.876 630.081 298.448 636.372C297.869 638.921 297.092 641.109 296.423 643.08C294.814 647.744 292.915 647.165 294.308 642.411Z" fill="#0E141B"/>
<path d="M303.871 662.588C306.131 655.465 311.428 642.556 314.339 637.801C317.34 632.902 319.256 634.258 316.599 639.121C314.194 643.569 308.499 656.622 306.348 663.438C303.925 671.085 301.412 670.271 303.853 662.588H303.871Z" fill="#0E141B"/>
<path d="M538.302 573.784C541.087 569.861 545.028 565.883 550.379 562.611C577.299 546.141 597.023 511.736 597.023 475.036C597.023 457.626 591.021 413.151 536.205 371.858C535.301 371.189 534.072 366.67 534.759 367.158C593.263 409.843 601.055 456.866 601.055 475.036C601.055 524.5 571.55 553.282 551.988 565.232C547.143 568.197 542.424 571.741 540.038 574.995C537.435 578.521 535.771 577.345 538.302 573.784Z" fill="#0E141B"/>
<path d="M622.28 714.747C618.484 714.747 612.102 713.861 608.631 712.541C607.835 712.234 608.938 709.359 609.734 709.666C612.843 710.86 618.845 711.673 622.299 711.673C632.766 711.673 638.534 707.244 638.534 699.199C638.534 687.773 628.265 682.656 618.086 682.656C612.789 682.656 604.599 683.723 601.001 684.301C597.946 684.79 592.757 684.338 590.515 683.651C561.336 674.647 531.523 635.777 531.523 625.526C531.523 611.732 535.139 587.524 541.702 570.837C542.027 570.005 546.854 567.348 546.511 568.125C539.731 583.926 534.181 611.298 534.181 625.526C534.181 633.68 562.583 671.809 591.401 680.704C593.083 681.228 597.838 681.68 600.495 681.264C604.165 680.686 612.572 679.095 618.068 679.095C632.839 679.095 642.33 687.574 642.33 699.217C642.33 709.106 634.574 714.765 622.299 714.765L622.28 714.747Z" fill="#0E141B"/>
<path d="M581.602 726.932C575.961 726.932 569.29 723.931 564.879 722.105C562.691 721.201 560.25 720.442 557.936 720.008C553.127 719.122 544.793 717.856 538.519 713.138C530.257 706.936 521.778 689.454 513.588 682.819C504.928 675.804 494.913 674.069 494.84 674.051C494.027 673.816 496.937 671.285 497.769 671.574C501.24 672.695 508.092 674.882 515.071 680.686C522.845 687.158 534.831 705.996 540.635 710.48C546.275 714.837 553.652 716.103 558.479 716.988C561.426 717.531 563.252 718.127 566.036 719.266C570.23 720.984 576.558 723.587 581.602 723.587C593.624 723.587 607.943 721.002 607.943 708.708C607.943 698.457 597.258 689.454 585.073 689.454C581.927 689.454 576.54 690.647 573.466 691.768C570.375 692.907 569.633 691.425 572.635 689.798C576.25 687.845 581.566 686.381 585.073 686.381C598.885 686.381 611.74 696.812 611.74 708.708C611.74 720.604 600.567 726.932 581.602 726.932Z" fill="#0E141B"/>
<path d="M483.74 677.485C470.614 677.485 463.057 666.619 463.129 656.477C463.202 643.044 474.049 634.963 484.915 634.963C496.847 634.963 506.429 644.943 506.375 657.417C506.32 668.771 495.871 677.503 483.758 677.503L483.74 677.485ZM484.897 638.018C480.07 638.018 475.496 639.754 472.06 642.936C468.625 646.1 466.564 651.162 466.528 656.495C466.492 661.865 468.517 666.872 472.06 670.217C474.881 672.875 479.129 674.411 483.722 674.411C489.543 674.411 495.166 671.989 498.781 667.903C504.784 661.16 503.988 651.071 496.811 642.809C494.207 639.808 489.742 638.018 484.879 638.018H484.897Z" fill="#0E141B"/>
<path d="M476.454 637.584C477.394 633.01 481.498 623.844 484.662 619.74C488.712 614.479 493.268 607.898 495.419 595.152C498.727 575.609 492.291 560.151 487.03 550.28C486.633 549.52 490.212 547.676 490.61 548.436C496.106 558.723 501.909 575.265 498.456 595.658C496.178 609.109 491.695 616.341 487.609 621.656C484.734 625.398 481.372 633.444 480.522 637.602C480.377 638.325 476.273 638.415 476.454 637.602V637.584Z" fill="#0E141B"/>
<path d="M530.24 571.451C529.86 568.811 527.6 565.575 528.215 561.055C528.793 556.68 530.33 556.662 530.33 560.983C530.33 563.315 532.445 568.359 532.59 571.234C532.807 575.446 530.836 575.536 530.258 571.451H530.24Z" fill="#0E141B"/>
</g>
<defs>
<clipPath id="clip0_42_72592">
<rect width="604.33" height="720" fill="white" transform="translate(38 30)"/>
</clipPath>
</defs>
</svg>
