<svg width="800" height="800" viewBox="0 0 800 800" fill="none" xmlns="http://www.w3.org/2000/svg">
<g clip-path="url(#clip0_42_59615)">
<path d="M472.338 683.909C473.575 685.379 484.923 689.09 485.407 688.355C485.909 687.62 483.686 678.244 482.449 676.523C481.212 674.802 476.533 670.356 473.826 668.635L470.079 671.844L472.356 683.927L472.338 683.909Z" fill="white"/>
<path d="M371.837 719.423C376.104 721.772 382.719 720.068 385.498 718.563C388.277 717.057 400.431 711.32 404.053 710.029C407.674 708.756 409.18 705.762 415.795 698.932C422.41 692.102 436.268 683.999 438.204 682.923C440.122 681.847 446.738 683.784 453.138 685.702C459.538 687.62 467.211 687.19 469.989 685.272C472.768 683.353 474.095 680.682 474.471 674.82C474.812 669.549 471.477 665.211 469.989 663.938C468.501 662.665 455.701 662.02 450.574 660.944C445.447 659.869 432.647 654.329 428.38 651.12C427.251 640.274 428.326 626.04 428.864 623.153L416.297 618.689L402.296 627.312C402.618 631.472 402.045 642.694 399.23 651.281C397.204 652.859 385.605 660.388 379.08 662.647C372.536 664.906 364.881 666.018 358.105 666.484C351.346 666.932 336.467 666.484 332.863 667.613C329.26 668.743 327.897 672.346 327.449 674.372L334.513 696.996C336.861 698.484 338.349 699.775 342.831 698.699C347.313 697.623 355.631 695.544 359.27 696.171C358.338 698.251 358.195 700.259 357.979 701.46L371.855 719.387L371.837 719.423Z" fill="#FADCE9"/>
<path d="M367.391 627.581C367.248 629.212 366.764 635.02 367.553 640.148C370.027 642.622 375.889 644.88 381.536 645.562C387.165 646.243 393.476 646.691 394.157 654.579L382.594 665.031L370.027 664.278C364.613 659.312 355.595 663.597 352.44 665.622L340.447 673.492L327.216 673.761C318.683 672.704 306.743 675.895 301.186 678.028C295.646 680.161 292.437 678.028 289.443 676.325L278.077 662.019C273.47 662.897 267.805 661.123 265.887 659.724L252.549 646.225C252.782 644.647 255.776 637.907 260.276 636.58C266.209 634.841 271.713 637.745 281.627 637.656C287.489 637.602 295.144 637.656 298.765 636.974C302.369 636.293 304.18 636.293 308.464 637.871C312.749 639.448 324.473 643.733 327.18 643.5C329.887 643.267 339.496 638.875 340.841 637.96C343.369 632.726 344.444 625.573 344.265 622.704L356.904 619.334L367.355 627.545L367.391 627.581Z" fill="#FADCE9"/>
<path d="M544.585 558.489C577.517 559.601 676.655 555.155 677.767 550.35C678.394 547.661 667.943 535.399 657.993 524.911C659.84 524.911 679.345 518.171 679.237 516.324C678.861 510.032 616.348 464.532 610.79 463.797C607.582 463.367 585.37 478.157 566.026 492.66C556.775 492.66 540.874 497.106 532.358 500.799L521.853 526.65L544.585 558.507V558.489Z" fill="#A4611D"/>
<path d="M474.292 608.794C467.999 612.487 419.542 632.834 367.75 626.918C297.726 618.923 261.315 571.2 255.202 558.92C254.879 560.587 254.682 561.699 254.682 561.699C249.734 562.398 233.815 554.976 232.398 552.86C231.161 551.014 229.387 523.047 229.422 513.6C227.307 517.848 212.947 546.496 211.872 546.496C210.796 546.496 209.039 515.733 214.346 487.784C219.652 459.853 234.854 434.038 240.161 416.344C245.467 398.667 249.358 392.303 250.415 366.488L250.057 313.835L284.89 294.062L335.731 311.487L475.547 516.737L474.274 608.794H474.292Z" fill="#FFFBC7"/>
<path d="M542.326 582.691C543.223 591.279 543.509 598.808 542.739 603.971C542.416 606.194 538.042 608.794 536.554 609.152C538.508 620.321 539.53 628.101 539.404 628.747C539.028 630.593 533.847 632.44 532 632.44C531.122 632.44 523.234 624.677 514.36 615.409C459.968 612.809 418.072 578.425 411.403 571.021L399.212 540.419L434.673 476.723L503.8 462.973L519.057 474.841C529.795 491.495 547.507 526.059 542.326 582.673V582.691Z" fill="#FFFBC7"/>
<path d="M506.686 485.686C506.686 485.686 515.722 490.042 516.833 489.307C517.945 488.572 510.541 471.183 510.541 471.183C510.541 471.183 526.066 478.587 527.195 477.099C528.307 475.629 509.071 454.528 509.071 454.528C509.071 454.528 521.656 458.221 522.391 457.128C523.108 456.052 472.248 404.422 397.401 385.508C393.153 378.427 389.764 355.193 386.591 338.574C383.4 321.956 383.508 313.118 380.317 306.753C314.9 301.447 284.065 313.404 284.065 313.404C283.419 316.936 281.806 317.904 290.823 323.049C299.841 328.195 339.407 352.181 339.729 355.874C340.07 359.729 317.535 410.571 323.648 427.619C329.762 444.668 357.961 465.159 359.575 466.127C359.718 482.119 361.726 499.562 368.485 522.616C378.47 556.66 406.598 584.017 411.026 582.171C411.026 582.171 410.488 562.917 409.753 557.36C416.243 562.541 434.117 573.62 435.443 573.279C436.913 572.903 432.485 562.558 432.485 562.558C432.485 562.558 451.345 567.739 453.209 566.628C455.056 565.516 452.833 562.182 452.833 562.182C452.833 562.182 458.39 563.293 459.125 562.182C459.878 561.07 456.167 551.82 456.167 551.82C456.167 551.82 460.237 554.402 461.348 553.667C462.46 552.931 446.558 514.083 444.694 509.637C444.694 509.637 464.665 527.027 466.153 526.65C467.623 526.274 464.665 515.177 464.665 515.177C464.665 515.177 485.012 533.301 486.124 532.19C487.235 531.078 483.901 522.563 483.901 522.563C483.901 522.563 489.082 526.256 490.193 525.521C491.251 524.804 493.331 513.599 493.187 505.191C497.633 507.414 506.113 511.089 506.113 511.089C507.583 510.713 505.736 501.104 505.736 501.104C505.736 501.104 509.071 503.327 510.182 502.95C511.15 502.627 508.784 491.512 506.686 485.65V485.686Z" fill="#A4611D"/>
<path d="M326.481 399.743C337.883 392.142 369.148 359.837 369.632 353.06C369.991 348.112 350.253 315.233 340.984 306.377C340.984 306.377 307.622 303.957 284.262 312.58C284.262 312.58 282.756 316.811 284.513 318.46C286.252 320.11 335.624 350.407 339.765 355.803L326.499 399.725L326.481 399.743Z" fill="#16213A"/>
<path d="M334.172 305.66C330.73 316.309 322.161 332.784 319.472 333.322C315.976 334.021 293.549 324.914 287.292 320.45C287.292 320.45 282.255 318.353 284.245 312.58C284.245 312.58 313.807 305.839 334.154 305.66H334.172Z" fill="white"/>
<path d="M303.857 327.943C310.956 323.282 316.89 309.514 316.89 306.933C316.89 306.933 299.357 307.99 284.244 312.58C284.244 312.58 282.523 316.578 284.495 318.46C286.45 320.342 298.622 326.635 303.857 327.943Z" fill="#0E141B"/>
<path d="M372.267 289.149C385.193 287.984 407.459 295.405 407.441 296.158C407.441 296.732 402.816 297.969 399.069 298.704C406.939 302.881 414.074 309.783 413.805 310.285C413.518 310.787 318.862 294.276 264.345 319.464L262.229 316.165C318.88 271.15 389.173 274.305 389.334 275.685C389.496 277.048 374.168 288.217 372.285 289.167L372.267 289.149Z" fill="#FFFBC7"/>
<path d="M247.009 307.955C278.759 230.939 335.588 211.111 336.574 211.596C337.56 212.097 322.788 243.578 322.053 244.815C322.053 244.815 352.314 232.768 352.816 233.503C353.3 234.238 339.765 255.643 339.03 256.88C339.03 256.88 351.095 248.275 352.063 249.01C353.049 249.745 342.472 265.736 342.472 265.736C342.472 265.736 353.3 266.471 365.85 275.327C365.85 275.327 304.269 281.745 262.212 316.166L247.009 307.955Z" fill="#A4611D"/>
<path d="M246.794 308.833C259.29 277.406 278.257 255.41 278.257 255.41C278.257 255.41 280.713 234.739 279.978 234.488C279.278 234.255 269.705 247.683 260.58 260.322C260.58 260.322 261.512 244.079 260.526 243.577C259.54 243.093 249.447 260.806 240.842 307.058L246.776 308.815L246.794 308.833Z" fill="#FFFBC7"/>
<path d="M239.785 666.143C241.022 659.976 246.023 652.178 248.336 649.794C251.24 646.782 258.035 642.121 260.491 642.228C264.542 642.408 266.909 643.716 269.114 647.893C271.337 652.088 271.588 657.52 265.905 659.725C260.24 661.948 250.505 662.235 239.767 666.143H239.785Z" fill="white"/>
<path d="M267.124 683.067C267.661 678.101 270.189 669.513 274.402 665.569C279.637 660.657 284.388 656.678 290.178 657.072C293.602 657.287 296.739 660.962 297.797 662.916C298.855 664.87 301.867 671.414 296.56 674.085C291.236 676.738 282.828 674.479 267.141 683.084L267.124 683.067Z" fill="white"/>
<path d="M338.367 691.438C336.718 697.05 332.182 698.502 323.129 698.52C310.777 698.556 304.879 701.531 304.162 700.994C303.444 700.456 308.769 690.542 311.261 687.172C313.735 683.801 323.756 675.142 329.331 674.766C334.907 674.39 337.811 678.961 338.887 682.331C339.944 685.702 339.263 688.427 338.385 691.438H338.367Z" fill="white"/>
<path d="M369.381 696.405C364.254 696.674 355.559 704.024 354.502 705.619C353.444 707.215 346.811 719.908 348.998 727.778C349.285 728.782 361.78 720.804 365.473 720.159C368.485 719.639 372.913 718.742 374.329 718.742C375.746 718.742 383.544 715.551 382.666 707.394C381.787 699.237 375.369 696.1 369.381 696.405Z" fill="white"/>
<path d="M296.686 310.555C296.471 313.369 295.323 318.64 292.831 318.228C290.34 317.815 291.164 313.172 291.684 311.397L296.686 310.573V310.555Z" fill="white"/>
<path d="M211.083 348.614C216.73 351.895 248.282 368.299 253.391 366.111C257.318 364.426 263.467 358.152 265.887 350.676C268.719 341.963 263.485 317.062 262.194 316.148C260.921 315.234 244.123 306.862 240.842 307.041C234.855 307.382 216.622 314.176 210.886 320.325C204.109 327.586 199.699 348.561 200.667 349.869C200.918 350.192 206.027 349.654 211.065 348.596L211.083 348.614Z" fill="#FADCE9"/>
<path d="M473.933 608.614C461.348 606.175 439.818 593.59 439.818 593.59C385.05 606.319 342.006 595.312 320.135 587.011C313.735 584.591 314.057 581.938 319.633 580.055C320.601 579.733 321.354 579.32 321.856 578.818C322.824 577.85 325.836 575.412 326.678 576.398C328.955 578.998 330.013 579.482 330.873 576.757C331.339 575.323 332.809 573.082 334.046 574.337C335.14 575.466 336.126 574.856 337.219 571.683C338.833 567.04 341.755 551.174 342.454 538.715C344.301 543.107 346.362 547.858 346.542 548.306C349.249 555.244 351.221 553.003 352.709 548.683C354.95 542.211 357.37 522.473 353.247 499.203C353.247 499.203 353.247 505.209 351.561 521.899C349.876 538.589 346.129 544.416 346.129 544.416L337.686 525.467C336.556 547.786 332.056 566.735 331.303 566.735C330.551 566.735 327.557 559.421 327.557 559.421C327.557 559.421 326.427 570.106 325.495 570.303C324.563 570.482 317.804 560.353 317.804 560.353C317.804 560.353 318.36 570.859 317.248 571.414C308.518 575.789 297.367 571.235 293.226 568.044C289.103 564.853 283.276 544.039 283.276 544.039C283.276 544.039 282.523 567.488 281.215 567.686C279.906 567.865 269.203 543.304 269.203 543.304L268.647 564.692C268.647 564.692 266.586 566.377 263.95 564.692C261.333 563.006 259.074 545.563 259.074 545.563C259.074 545.563 255.327 556.445 255.507 558.507C255.507 558.507 283.079 611.482 351.292 624.874C419.506 638.283 473.915 608.632 473.915 608.632L473.933 608.614Z" fill="#DDD9AC"/>
<path d="M503.585 604.545C461.348 597.231 419.936 568.403 410.596 559.476L411.403 570.842C411.403 570.842 454.859 615.104 513.32 615.516L503.567 604.545H503.585Z" fill="#DDD9AC"/>
<path d="M542.971 591.547C537.288 589.916 529.974 577.743 529.58 573.691L536.894 607.807C536.894 607.807 540.551 607 542.577 603.756C544.603 600.511 542.989 591.565 542.989 591.565L542.971 591.547Z" fill="#DDD9AC"/>
<path d="M538.508 619.979C523.072 615.515 500.34 598.861 495.876 593.984C495.876 593.984 520.24 624.443 532.018 632.564C532.018 632.564 538.508 631.345 539.727 629.319L538.508 619.979Z" fill="#DDD9AC"/>
<path d="M270.44 649.685C271.677 649.434 279.816 653.45 283.545 652.213C283.545 652.213 279.834 655.691 279.834 660.639C279.834 660.639 274.384 663.113 267.195 659.653C267.195 659.653 270.709 655.637 270.458 649.685H270.44Z" fill="#D8BFCB"/>
<path d="M297.51 662.88C307.872 665.229 319.238 662.88 326.911 663.633C334.602 664.386 348.729 660.155 352.942 658.434C357.155 656.695 364.093 654.472 372.518 656.695C380.944 658.918 389.621 657.448 389.621 657.448C389.621 657.448 378.47 664.888 371.765 664.888C371.765 664.888 367.803 661.41 362.587 661.41C357.37 661.41 351.687 666.627 351.687 666.627C351.687 666.627 339.783 666.376 335.086 667.362C330.371 668.348 329.134 670.087 328.148 673.798C328.148 673.798 319.471 672.059 308.321 675.537C297.17 678.997 294.194 679.248 290.232 676.039C290.232 676.039 296.435 675.053 298.407 671.826C300.397 668.599 297.51 662.898 297.51 662.898V662.88Z" fill="#D8BFCB"/>
<path d="M339.873 686.885C341.988 688.535 345.502 689.664 349.213 688.66C352.924 687.656 362.856 685.684 368.556 685.684C374.257 685.684 392.597 683.945 397.814 680.234C397.814 680.234 392.364 685.2 388.402 686.186C384.44 687.172 374.526 687.423 369.811 688.911C365.096 690.399 360.399 692.389 359.396 696.835C359.396 696.835 352.458 696.1 347.492 697.57C342.526 699.058 339.066 700.546 334.602 697.086C334.602 697.086 339.622 689.843 339.873 686.868V686.885Z" fill="#D8BFCB"/>
<path d="M473.413 679.983C470.186 682.708 454.321 680.234 443.17 676.756C432.019 673.278 430.531 676.021 423.342 681.722C416.153 687.422 401.525 700.061 399.302 701.549C397.079 703.037 386.484 707.125 383.185 705.475C383.185 705.475 384.368 717.236 374.006 719.387C374.006 719.387 378.219 721.377 385.659 718.634C393.099 715.909 403.515 710.71 406.473 709.957C409.449 709.222 424.83 687.727 439.943 682.69C444.407 681.202 452.869 686.401 459.036 687.153C471.172 688.641 473.413 679.965 473.413 679.965V679.983Z" fill="#D8BFCB"/>
<path d="M341.791 635.612C346.004 636.347 358.894 636.347 369.56 646.763C369.56 646.763 366.835 638.337 367.571 627.67L344.265 622.955L341.791 635.594V635.612Z" fill="#D8BFCB"/>
<path d="M402.278 640.076C402.278 640.076 417.642 641.062 428.308 654.955C428.308 654.955 426.318 634.877 429.294 624.461L402.278 628.172V640.076Z" fill="#D8BFCB"/>
<path d="M270.44 651.335C260.562 650.869 245.485 660.281 240.071 665.695C240.071 665.695 252.549 662.396 259.146 661.231C265.743 660.048 268.791 658.649 269.974 655.817C271.157 652.984 270.44 651.353 270.44 651.353V651.335Z" fill="#DCDDDD"/>
<path d="M298.46 665.695C283.401 666.161 272.089 676.29 266.926 683.354C266.926 683.354 278.687 677.241 286.234 676.29C293.763 675.34 297.761 673.709 298.944 671.109C300.128 668.528 298.478 665.695 298.478 665.695H298.46Z" fill="#DCDDDD"/>
<path d="M338.708 689.001C320.117 687.585 307.173 697.48 304.341 701.245C304.341 701.245 315.868 698.413 322.465 698.413C329.063 698.413 333.527 697.947 335.875 695.347C338.223 692.766 338.708 689.001 338.708 689.001Z" fill="#DCDDDD"/>
<path d="M382.02 708.309C358.248 708.309 350.719 723.834 349.069 728.315C349.069 728.315 361.081 720.553 368.377 719.603C375.673 718.671 378.739 717.487 381.554 714.655C384.386 711.822 382.02 708.309 382.02 708.309Z" fill="#DCDDDD"/>
<path d="M485.353 688.534C481.821 683.586 477.591 679.122 474.059 677.473C474.059 677.473 472.876 681.004 471.71 683.12C471.71 683.12 482.072 688.301 485.371 688.534H485.353Z" fill="#DCDDDD"/>
<path d="M221.534 345.961C226.751 347.7 249.806 358.725 264.166 355.678C264.166 355.678 256.977 365.484 251.76 366.129C246.543 366.775 211.692 348.704 211.692 348.704L221.534 345.961Z" fill="#D8BFCB"/>
<path d="M383.669 314.176C383.669 314.176 381.249 308.206 380.138 306.897C380.138 306.897 363.609 305.553 341.217 305.57C342.777 307.632 344.39 309.837 345.699 311.63C357.262 311.881 370.457 312.598 383.669 314.176Z" fill="#824B0F"/>
<path d="M312.139 306.449L312.032 307.417C315.044 307.112 316.926 306.987 316.926 306.987C316.926 307.776 316.352 309.64 315.366 311.953C319.543 311.738 325.441 311.558 332.487 311.505C333.15 309.586 333.778 307.507 334.315 305.606C327.252 305.714 319.776 305.965 312.139 306.431V306.449Z" fill="#DCDDDD"/>
<path d="M422.822 573.817C430.047 576.649 437.881 578.532 440.391 576.954C442.901 575.394 439.136 568.17 439.136 568.17C439.136 568.17 444.461 570.375 453.568 567.542L433.489 563.15C433.489 563.15 437.254 572.884 435.676 573.512C434.117 574.139 416.225 562.522 416.225 562.522L422.822 573.817Z" fill="#DDD9AC"/>
<path d="M543.868 545.385C547.955 547.428 564.341 553.99 595.265 558.292L544.28 558.902L543.868 545.385Z" fill="#824B0F"/>
<path d="M282.272 314.175C281.286 317.922 283.796 320.844 290.053 324.412C303.014 331.816 335.642 352.45 337.829 356.269C337.722 357.38 335.929 362.489 334.154 367.473C328.901 382.317 316.496 414.174 321.193 428.265C327.342 446.694 358.266 467.077 358.553 467.257C359.306 467.705 360.955 464.962 360.202 464.514C357.513 462.9 330.945 443.162 325.172 427.064C320.924 415.196 331.698 384.755 337.471 368.405C340.482 359.872 341.45 357.004 341.343 355.713C340.841 350.191 292.132 321.938 291.63 321.651C284.728 317.707 284.8 316.362 285.589 312.849L282.272 314.193V314.175Z" fill="#0E141B"/>
<path d="M333.132 306.252C329.6 317.116 321.336 331.386 319.203 332.157C316.46 332.713 293.638 323.57 287.113 318.926C286.575 318.55 286.055 321.06 286.593 321.436C292.849 325.9 315.868 336.262 319.83 335.455C323.505 334.72 332.738 319.267 335.409 306.987C335.552 306.341 333.329 305.606 333.132 306.252Z" fill="#0E141B"/>
<path d="M397.33 299.242C401.883 301.662 409.61 307.005 412.21 309.353C348.066 298.65 295.377 303.347 263.646 318.012C262.839 318.388 264.112 320.683 264.919 320.307C296.22 305.839 346.416 303.186 409.951 311.451C415.939 312.239 416.53 310.034 411.941 305.875C408.875 303.114 404.788 300.013 400.396 297.682C399.607 297.27 396.792 298.937 397.33 299.224V299.242Z" fill="#0E141B"/>
<path d="M386.95 273.696C372.895 272.656 311.853 274.682 261.226 314.911C260.527 315.467 262.517 317.977 263.216 317.421C312.623 278.142 375.297 275.095 388.402 276.045C384.745 279.236 371.425 287.626 369.901 288.379C369.345 288.666 373.003 290.207 373.791 289.813C373.935 289.741 384.297 283.216 388.832 278.716C391.271 276.296 392.059 274.073 386.95 273.678V273.696Z" fill="#0E141B"/>
<path d="M404.573 293.218C398.962 290.852 379.295 285.205 368.234 288.736C364.29 289.991 364.703 291.103 368.808 290.475C379.009 288.934 398.657 293.702 406.258 296.248C404.25 296.696 398.478 297.377 394.892 298.148C391.307 298.919 391.271 299.798 394.802 299.69C398.334 299.564 403.533 299.152 405.2 298.74C410.507 297.395 408.302 294.796 404.591 293.218H404.573Z" fill="#0E141B"/>
<path d="M333.294 210.897C327.485 213.066 271.893 234.776 246.418 307.292C246.131 308.134 248.157 309.371 248.497 308.565C276.518 240.548 324.384 217.189 335.355 212.869C332.451 220.344 321.641 242.054 320.673 244.008C320.386 244.582 318.808 247.845 322.645 246.321C331.196 242.915 346.452 236.264 352.207 234.31C350.629 237.106 338.797 254.066 337.65 256.055C336.503 258.045 336.431 260.358 339.748 257.974C342.831 255.769 348.406 251.878 350.898 250.372C349.106 253.564 344.14 260.286 341.128 264.858C340.07 266.435 340.321 267.188 342.347 267.332C342.455 267.332 352.924 268.174 364.917 276.636C365.635 277.156 367.176 274.969 366.764 274.628C357.137 266.955 349.213 265.252 345.179 264.517C349.948 257.239 351.831 253.205 352.781 250.964C354.251 247.486 353.767 246.679 350.325 248.221C349.106 248.759 346.775 249.96 344.444 251.215C349.625 242.861 352.243 238.487 353.462 236.066C354.878 233.288 356.886 230.617 350.217 232.517C346.703 233.521 339.712 236.12 325.28 241.839C328.4 235.349 334.62 222.137 337.112 215.325C338.313 212.026 340.357 208.279 333.294 210.932V210.897Z" fill="#0E141B"/>
<path d="M278.185 234.345C272.591 239.724 260.724 257.723 258.303 262.061C256.134 265.951 257.855 266.507 259.989 263.119C264.524 255.894 279.189 236.64 279.189 236.64C279.189 236.64 276.661 255.356 276.661 255.41C276.661 256.217 279.744 256.468 279.852 255.589C281.322 243.237 281.681 237.752 281.519 235.26C281.358 232.624 280.246 232.356 278.167 234.363L278.185 234.345Z" fill="#0E141B"/>
<path d="M258.519 243.345C254.808 248.4 244.894 270.074 239.713 306.789C239.587 307.668 242.258 308.224 242.42 307.363C250.146 264.911 259.863 245.281 259.863 245.281C259.863 245.281 260.078 255.481 259.54 260.268C259.54 260.304 262.14 260.304 262.176 259.425C262.606 250.623 262.176 246.231 261.853 244.223C261.154 239.938 259.899 241.462 258.501 243.362L258.519 243.345Z" fill="#0E141B"/>
<path d="M240.771 305.463C234.622 305.804 215.708 311.809 209.452 318.514C203.07 325.362 197.405 348.148 199.43 350.837C200.201 351.859 201.564 351.805 211.065 349.815C211.065 349.815 245.342 370.683 254.037 367.563C258.662 365.914 265.726 358.958 268.218 351.303C270.925 342.967 265.887 316.793 263.162 314.839C260.724 313.082 245.522 305.176 240.789 305.445L240.771 305.463ZM212.069 321.436C217.537 315.574 235.321 308.977 240.932 308.654C243.352 308.529 258.698 315.843 261.029 317.331C262.086 319.411 265.098 333.806 265.098 343.63C265.098 346.266 264.883 348.56 264.345 350.192C262.015 357.381 256.099 363.207 252.728 364.641C249.501 366.022 226.608 355.283 214.956 348.955C219.939 347.915 225.228 346.821 228.58 346.373C236.307 345.351 243.119 346.122 245.253 346.732C247.404 347.341 252.746 349.457 257.085 350.819C260.15 351.787 260.634 350.514 257.838 348.955C255.597 347.718 247.368 344.061 245.522 343.523C243.675 342.985 236.343 342.089 228.15 343.182C224.278 343.702 218.039 345.011 212.535 346.176C208.699 346.983 202.066 349.439 201.564 348.955C201.062 348.453 206.476 327.388 212.033 321.436H212.069Z" fill="#0E141B"/>
<path d="M379.152 308.152C380.98 311.827 381.554 314.803 382.809 323.462C384.064 332.121 386.233 345.817 387.165 350.783C388.097 355.749 392.382 380.327 395.806 386.064C396.254 386.817 400.557 385.652 400.109 384.899C396.971 379.664 392.507 354.279 391.683 350.442C390.876 346.606 387.936 328.93 387.022 322.691C386.52 319.321 384.046 309.425 382.002 306.718C381.464 306.018 378.739 307.363 379.134 308.152H379.152Z" fill="#0E141B"/>
<path d="M339.066 306.055C348.729 315.27 368.7 348.955 368.413 352.971C367.983 359.03 337.471 390.959 325.8 398.739C325.244 399.116 325.692 402.307 326.248 401.93C337.65 394.329 371.766 360.411 372.285 353.042C372.68 347.467 350.862 314.158 341.791 305.499C341.307 305.033 338.582 305.589 339.066 306.055Z" fill="#0E141B"/>
<path d="M248.067 365.896C245.45 404.117 230.283 430.47 226.734 438.752C219.473 455.694 214.041 469.48 210.671 487.228C206.117 511.251 207.677 537.442 209.81 545.438C210.509 548.055 211.675 550.009 214.274 545.94C216.264 542.821 220.244 535.237 229.441 516.754L228.419 511.34C218.344 528.873 212.553 544.882 212.105 544.793C211.639 544.703 211.908 534.897 211.908 529.375C211.908 518.242 213.145 502.914 215.959 488.088C219.258 470.681 226.447 454.242 232.703 439.703C237.544 428.462 250.2 400.657 252.065 366.559V366.487C252.065 365.627 248.157 364.999 248.103 365.878L248.067 365.896Z" fill="#0E141B"/>
<path d="M228.006 510.462C227.594 515.966 229.046 551.032 231.072 553.739C234.209 557.97 249.501 564.047 254.915 563.276C255.596 563.187 256.152 562.649 256.26 561.968C256.815 558.83 257.479 555.496 258.106 552.556C258.752 556.446 259.935 560.946 262.14 564.639C263.61 567.077 268.755 567.507 270.153 565.41C270.655 564.675 270.745 563.958 270.817 545.994C270.853 534.682 270.763 521.936 271.014 516.845C271.247 512.076 269.562 511.502 268.719 516.217C267.572 522.581 267.662 533.983 267.608 545.994C267.59 553.291 268.056 564.047 267.482 564.262C266.927 564.477 265.152 563.94 265.008 563.725C261.064 557.36 260.509 543.825 260.509 543.7C260.544 540.778 259.289 540.993 258.124 542.965C256.331 546.03 254.198 555.317 253.32 560.103C248.085 559.727 235.034 553.667 233.689 551.964C232.793 549.831 230.749 514.944 230.355 510.749C229.978 506.554 228.365 504.977 227.97 510.48L228.006 510.462Z" fill="#0E141B"/>
<path d="M281.968 528.945C281.842 534.037 281.591 561.591 280.946 566.378C278.149 561.358 272.108 545.761 270.512 540.652C270.243 539.809 267.482 541.817 267.751 542.66C267.823 542.875 273.309 558.705 277.719 566.019C280.767 571.093 282.972 570.501 283.778 564.585C285.105 554.922 284.944 533.23 284.567 528.695C284.119 523.083 282.075 523.836 281.95 528.928L281.968 528.945Z" fill="#0E141B"/>
<path d="M314.183 535.954C314.828 540.418 317.984 567.578 316.101 570.536C314.273 572.365 299.357 572.257 294.015 566.933C288.888 561.805 285.571 546.603 284.818 541.691C284.675 540.812 281.968 542.085 282.093 542.964C282.129 543.161 284.8 562.271 291.756 569.209C298.084 575.538 314.882 576.273 318.414 572.741C322.268 568.887 317.105 539.396 316.209 535.183C315.295 530.917 313.556 531.616 314.165 535.954H314.183Z" fill="#0E141B"/>
<path d="M336.324 523.352C336.073 529.716 333.186 558.597 331.483 564.728C330.927 563.491 329.493 559.708 328.938 558.364C328.364 556.983 326.983 554.348 326.302 558.991C325.872 561.967 325.531 566.772 325.119 568.923C323.595 566.897 320.404 560.909 318.88 558.095C318.45 557.324 316.854 561.089 317.339 561.824C320.117 566.252 321.964 568.833 323.237 570.285C325.854 573.261 326.84 573.459 327.808 569.264C328.041 568.26 328.292 566.861 328.615 564.907C328.937 565.588 329.206 566.126 329.439 566.557C331.053 569.497 332.29 569.819 333.76 565.588C335.822 559.672 339.999 535.542 339.013 523.459C338.529 517.489 336.557 516.952 336.306 523.316L336.324 523.352Z" fill="#0E141B"/>
<path d="M351.741 499.921C350.97 522.975 348.227 537.335 346.398 542.821C344.624 536.959 340.249 525.826 338.51 522.958C338.044 522.205 336.287 525.826 336.61 526.651C338.134 530.72 342.867 541.566 343.136 542.229C345.843 549.167 347.815 546.926 349.303 542.606C351.544 536.134 354.95 522.205 354.053 499.921C353.892 495.977 351.884 495.977 351.759 499.921H351.741Z" fill="#0E141B"/>
<path d="M358.75 443.683C355.631 466.343 354.95 489.631 365.043 524.033C373.612 553.255 396.864 576.345 406.383 582.226C413.052 586.349 412.676 583.821 412.568 579.16C412.425 573.764 412.084 562.505 411.511 558.257C411.403 557.378 408.427 556.571 408.427 557.36C408.427 557.432 409.736 576.543 409.843 581.168C403.139 578.335 379.062 552.968 370.009 522.133C363.035 498.379 361.153 480.667 361.153 464.353C361.153 457.398 361.493 450.693 361.942 443.88C361.942 443.844 361.942 443.809 361.942 443.773C361.942 438.879 359.414 438.789 358.733 443.665L358.75 443.683Z" fill="#0E141B"/>
<path d="M504.787 485.184C505.916 489.522 508.354 497.59 508.731 500.996C508.085 500.691 507.314 500.261 506.633 499.813C505.091 498.791 503.352 498.647 504.536 503.201C505.235 505.908 505.647 508.382 505.647 509.762C503.066 508.687 496.253 504.779 493.098 503.201C492.309 502.807 492.04 506.607 492.829 507.002C495.697 508.436 500.018 510.3 502.815 511.466C506.723 513.115 508.318 514.424 508.318 508.776C508.318 507.629 508.175 506.069 507.888 504.097C509.985 504.94 512.567 506.553 511.886 500.333C511.402 495.923 509.645 489.361 507.225 484.646C505.288 480.899 503.675 480.81 504.804 485.148L504.787 485.184Z" fill="#0E141B"/>
<path d="M491.556 504.17C491.664 509.333 490.552 522.026 489.674 524.446C488.992 524.195 486.984 523.047 485.819 522.312C485.658 522.205 480.817 518.906 483.327 525.557C484.026 527.404 484.69 529.304 484.959 530.433C481.588 528.067 469.38 517.436 467.121 515.231C464.862 513.044 461.922 511.054 463.589 517.364C464.306 520.125 465.113 523.316 465.292 525.019C461.797 522.563 453.371 514.639 445.734 508.437C443.331 506.483 441.592 506.375 443.206 510.265C447.222 519.928 458.265 545.295 460.434 552.376C459.717 552.054 457.763 550.942 457.01 550.458C455.63 549.58 453.317 549.454 455.271 553.811C456.651 556.912 458.659 560.731 458.157 561.34C458.157 561.34 456.167 561.197 453.138 560.587C451.793 560.318 449.821 560.515 451.488 563.043C451.954 563.742 453.03 565.463 453.03 565.894C450.897 566.037 440.822 563.151 432.898 560.982C431.983 560.731 429.599 559.924 430.997 563.151C432.145 565.822 433.955 569.784 434.493 571.738C429.025 568.905 413.249 558.633 408.696 554.922C406.078 552.807 405.254 553.9 407.405 556.482C411.457 561.34 425.655 570.931 432.485 573.925C437.415 576.094 438.222 575.126 436.86 569.981C436.537 568.726 435.999 567.077 435.139 564.908C445.052 567.525 449.66 568.242 451.865 568.296C455.361 568.404 456.275 567.184 455.146 563.617C460.56 563.904 461.115 562.577 460.542 559.924C460.291 558.777 459.932 556.715 459.143 554.51C462.048 555.424 463.822 555.729 462.334 550.638C460.846 545.528 453.729 524.446 448.62 515.177C455.916 521.416 460.111 524.733 462.603 526.454C467.426 529.806 468.107 529.555 468.107 525.217C468.107 523.908 467.838 522.026 467.372 519.731C475.529 526.902 480.154 530.577 482.879 532.37C487.002 535.077 488.723 534.646 487.666 529.34C487.504 528.515 487.253 527.511 486.877 526.31C489.674 527.708 490.606 527.171 491.054 526.884C493.295 525.378 494.765 512.757 493.904 504.206C493.456 499.814 491.448 500.602 491.52 504.17H491.556Z" fill="#0E141B"/>
<path d="M391.808 385.795C460.255 401.446 509.662 445.26 519.738 456.034C517.748 455.64 514.252 454.313 511.617 453.578C509.627 453.023 504.356 451.714 509.734 457.63C516.098 464.622 523 472.366 525.438 475.844C522.731 475.001 517.353 472.599 512.853 470.502C509.143 468.763 507.923 469.175 510.003 473.962C512.387 479.43 515.292 485.722 516.027 488.375C514.27 487.82 508.497 484.7 506.041 483.535C505.234 483.158 505.718 487.031 506.507 487.407C509.537 488.859 511.724 489.756 513.302 490.276C517.909 491.817 519.971 492.516 517.73 485.238C517.013 482.907 515.74 479.465 513.624 474.356C519.236 476.902 522.642 478.121 524.739 478.587C529.544 479.681 530.225 478.121 527.142 473.496C525.241 470.645 521.387 465.841 513.911 457.504C515.327 457.863 516.529 458.15 517.568 458.347C525.779 460.014 525.905 458.275 520.759 452.431C508.748 438.806 462.657 395.046 392.561 383.411C387.057 382.496 386.466 384.558 391.79 385.759L391.808 385.795Z" fill="#0E141B"/>
<path d="M254.216 560.676C259.325 571.504 297.582 622.723 367.517 630.718C419.667 636.688 469.165 616.574 476.497 610.281C477.16 609.708 474.238 606.965 473.485 607.413C466.852 611.321 419.219 631.185 367.929 625.34C299.429 617.506 262.427 569.335 256.457 557.378C256.063 556.589 253.858 559.888 254.234 560.694L254.216 560.676Z" fill="#0E141B"/>
<path d="M410.22 572.132C417.678 580.433 454.68 617.238 514.378 617.238C515.256 617.238 514.485 613.903 513.589 613.849C460.757 611.34 418.968 576.955 411.672 568.852C411.08 568.188 409.61 571.469 410.22 572.115V572.132Z" fill="#0E141B"/>
<path d="M517.712 475.737C524.865 486.852 546.647 520.645 541.143 580.898C541.071 581.777 543.725 583.444 543.832 582.566C551.81 523.065 531.229 486.923 521.405 475.055C520.831 474.374 517.228 474.984 517.712 475.737Z" fill="#0E141B"/>
<path d="M516.421 536.905C527.877 567.542 537.701 624.3 537.809 628.442C537.325 629.266 534.492 631.256 532.807 631.4C529.239 629.015 499.301 597.66 490.301 586.922C487.307 583.354 486.501 584.484 488.903 588.464C497.078 601.945 528.218 634.071 532 634.071C533.918 634.071 540.336 632.242 540.964 629.087C541.448 626.649 533.255 567.274 518.357 536.474C516.583 532.799 514.826 533.158 516.403 536.905H516.421Z" fill="#0E141B"/>
<path d="M527.16 514.944C531.767 529.519 544.047 584.215 541.161 603.756C540.982 604.993 538.06 606.929 536.805 607.252C535.944 607.467 536.715 609.833 537.558 609.618C539.225 609.188 543.85 607.431 544.316 604.24C547.274 584.233 536.608 531.061 529.15 514.783C527.106 510.337 525.672 510.283 527.142 514.962L527.16 514.944Z" fill="#0E141B"/>
<path d="M537.181 514.424C536.589 515.087 538.794 517.328 539.422 516.719C555.825 500.692 605.609 465.482 610.665 465.375C617.424 466.576 674.54 509.799 678.018 516.289C675.383 518.189 661.579 522.707 659.624 522.868C658.782 522.922 658.585 525.808 659.445 525.808C661.238 525.808 673.106 522.115 678.179 519.282C681.693 517.31 681.675 516.611 679.721 513.617C676.44 508.616 666.15 498.774 648.474 485.525C635.692 475.952 614.788 462.704 611.059 462.202C604.444 461.323 556.883 492.463 537.217 514.442L537.181 514.424Z" fill="#0E141B"/>
<path d="M531.749 499.293C530.942 499.652 532.215 502.592 533.022 502.233C541.734 498.45 557.331 494.99 566.223 493.7C567.102 493.574 568.088 489.164 567.191 489.164C558.048 489.164 540.928 495.295 531.731 499.293H531.749Z" fill="#0E141B"/>
<path d="M542.882 538.501C542.057 538.823 543.258 541.799 544.083 541.477C561.724 534.342 634.777 510.588 640.711 510.48C645.444 512.883 674.468 544.058 676.064 549.634C668.355 553.613 579.113 558.041 544.657 556.876C543.778 556.84 543.671 560.049 544.549 560.067C560.684 560.605 586.087 561.555 622.802 559.296C677.857 555.926 678.986 552.269 679.345 550.691C680.886 544.04 648.832 508.921 642.092 505.909C637.61 503.919 555.539 533.373 542.9 538.483L542.882 538.501Z" fill="#0E141B"/>
<path d="M259.863 635.039C254.629 636.581 252.89 643.232 252.603 645.258C252.477 646.136 254.055 647.319 254.18 646.441C254.342 645.311 257.031 639.198 260.778 638.105C263.772 637.226 266.747 637.8 270.548 638.266C281.591 639.592 294.463 638.947 299.106 638.553C302.584 638.248 304.036 637.943 307.944 639.377C322.358 644.684 325.89 645.222 327.342 645.114C330.515 644.845 339.999 639.843 341.343 638.947C342.078 638.445 341.433 636.007 340.698 636.491C339.299 637.423 329.654 641.08 327.431 641.26C326.696 641.331 323.093 640.901 309.002 635.72C304.467 634.053 302.387 634.017 298.461 634.752C295.485 635.308 282.721 636.76 271.014 635.093C266.998 634.519 263.521 633.945 259.845 635.021L259.863 635.039Z" fill="#0E141B"/>
<path d="M367.23 641.924C369.955 644.648 375.996 646.172 381.339 647.14C385.372 647.875 392.866 648.539 393.368 654.419C393.44 655.297 395.824 655.315 395.752 654.419C394.981 645.509 387.075 644.828 381.715 643.949C376.355 643.071 370.439 642.049 368.252 639.844C367.624 639.217 366.602 641.278 367.212 641.906L367.23 641.924Z" fill="#0E141B"/>
<path d="M349.966 665.497C349.303 666.071 352.565 667.433 353.318 666.967C356.832 664.708 365.347 660.764 369.668 664.726C370.313 665.318 371.765 663.686 371.12 663.095C365.365 657.824 354.985 661.123 349.966 665.515V665.497Z" fill="#0E141B"/>
<path d="M398.908 650.42C397.061 651.854 384.853 658.989 378.524 661.158C370.834 663.812 358.195 665.353 348.245 665.156C341.72 665.031 334.853 665.317 332.362 666.106C327.772 667.54 326.661 671.789 326.912 674.371C327.001 675.249 328.794 675.608 328.991 674.747C329.296 673.385 330.318 670.104 333.312 669.172C335.355 668.526 341.451 668.562 349.052 668.724C360.131 668.939 372.214 666.895 379.564 664.206C388.349 660.997 397.635 654.471 399.643 652.912C400.342 652.374 399.607 649.882 398.908 650.438V650.42Z" fill="#0E141B"/>
<path d="M428.022 652.876C432.593 656.3 445.107 661.464 450.234 662.539C452.367 662.987 455.63 663.346 459.09 663.722C462.675 664.117 468.071 664.708 469.022 665.246C470.348 666.394 473.163 670.32 472.858 674.748C472.482 680.538 471.173 682.528 469.057 683.998C466.745 685.594 459.628 686.024 453.568 684.213C444.174 681.399 439.675 680.484 437.398 681.578C434.583 682.923 422.482 689.484 409.575 703.342C408.122 704.901 405.577 707.824 403.497 708.577C399.661 709.921 387.416 715.747 384.709 717.218C382.307 718.508 376.266 720.104 372.59 718.078C371.82 717.648 370.439 719.602 371.21 720.032C376.301 722.829 380.102 722.488 386.233 720.032C389.299 718.813 401.453 713.578 404.896 712.359C407.746 711.355 409.055 709.652 412.299 706.246C423.45 694.522 435.838 686.114 438.957 684.393C440.445 683.64 448.692 686.114 452.654 687.297C459.197 689.251 467.695 688.462 471.047 686.15C474.364 683.855 475.027 681.04 475.422 674.945C475.816 668.814 471.8 664.278 470.276 662.969C469.129 661.983 466.763 661.374 459.43 660.585C456.204 660.227 452.869 659.868 450.897 659.456C446.164 658.47 433.149 652.231 428.936 649.058C428.237 648.538 427.323 652.392 428.04 652.93L428.022 652.876Z" fill="#0E141B"/>
<path d="M403.425 674.892C401.202 677.312 392.525 683.837 388.527 684.787C387.022 685.146 384.745 685.361 382.092 685.612C377.233 686.06 371.192 686.634 365.957 688.463C357.8 691.331 356.922 698.591 357.173 702.32L359.647 701.012C360.041 698.269 360.686 693.697 367.015 691.474C371.873 689.771 377.699 689.216 382.378 688.785C385.139 688.534 387.524 688.301 389.245 687.889C394.175 686.724 402.098 679.373 404.429 676.29C406.473 673.565 405.702 672.364 403.407 674.874L403.425 674.892Z" fill="#0E141B"/>
<path d="M342.436 697.176C338.959 698.001 337.847 697.302 335.857 696.011L333.993 697.696C336.18 699.112 338.367 701.443 343.189 700.295C347.151 699.345 355.416 697.373 358.75 697.965C359.629 698.126 359.862 695.527 358.983 695.383C355.308 694.738 348.675 695.688 342.436 697.176Z" fill="#0E141B"/>
<path d="M300.63 676.541C296.077 678.298 289.677 675.017 289.677 675.017C288.906 674.569 288.135 676.828 288.135 676.828C291.093 679.015 295.808 681.83 301.777 679.535C307.568 677.312 319.059 673.78 327.037 674.766C327.915 674.874 328.31 672.292 327.431 672.185C318.199 671.038 305.865 674.533 300.63 676.541Z" fill="#0E141B"/>
<path d="M290.483 646.584C282.828 647.947 278.848 654.884 277.97 660.98C277.844 661.858 279.924 662.593 280.049 661.715C280.659 657.448 284.477 650.905 291.039 649.739C296.632 648.753 298.461 649.381 306.062 649.972C313.663 650.546 319.328 650.546 324.599 649.13C327.431 648.377 326.75 647.355 323.828 647.588C319.059 647.982 310.615 647.283 306.474 646.799C302.315 646.297 296.56 645.526 290.483 646.584Z" fill="#0E141B"/>
<path d="M342.706 622.83C342.921 626.308 341.038 636.688 337.13 640.811C334.8 643.249 336.574 644.845 339.03 642.532C344.695 637.19 346.112 626.164 345.897 622.65C345.843 621.772 342.652 621.969 342.706 622.848V622.83Z" fill="#0E141B"/>
<path d="M365.796 627.437C365.401 631.883 364.362 641.761 369.704 647.749C371.586 649.864 372.841 649.058 371.3 646.673C367.875 641.331 368.682 630.897 368.969 627.706C369.041 626.828 365.868 626.541 365.778 627.419L365.796 627.437Z" fill="#0E141B"/>
<path d="M400.682 627.473C401.184 633.981 399.965 652.984 393.655 659.294C391.414 661.535 392.364 662.987 394.838 660.997C403.927 653.719 404.322 632.78 403.891 627.222C403.82 626.344 400.629 626.577 400.7 627.473H400.682Z" fill="#0E141B"/>
<path d="M427.269 622.902C426.605 626.451 424.329 647.641 429.025 659.509C430.155 662.342 431.679 661.768 430.729 658.864C427.537 649.057 429.778 626.774 430.406 623.475C430.567 622.615 427.412 622.023 427.251 622.884L427.269 622.902Z" fill="#0E141B"/>
<path d="M472.965 669.961C475.565 671.61 480.101 675.948 481.158 677.436C481.893 678.476 485.228 686.884 484.708 687.278C484.188 687.655 474.131 683.711 473.109 682.761C472.499 682.187 470.581 684.285 471.119 684.93C472.302 686.346 478.38 688.587 482.288 689.555C487.469 690.846 487.451 688.462 486.662 684.571C485.927 680.896 484.349 676.414 483.758 675.59C482.359 673.636 474.418 666.823 471.549 664.995C470.796 664.529 472.481 669.674 472.948 669.978L472.965 669.961Z" fill="#0E141B"/>
<path d="M247.189 648.681C244.75 651.209 239.516 659.312 238.207 665.837C237.866 667.558 237.508 668.688 240.322 667.666C246.22 665.515 251.778 664.493 256.672 663.597C260.544 662.879 263.879 662.27 266.514 661.248C269.06 660.244 270.853 658.541 271.677 656.318C272.645 653.701 272.251 650.348 270.548 647.157C268.181 642.675 265.385 640.488 260.562 640.632C255.686 640.775 250.003 645.759 247.189 648.699V648.681ZM249.483 650.904C252.674 647.605 257.174 644.163 260.419 643.823C263.664 643.464 265.851 645.149 267.697 648.645C269.992 652.966 268.827 656.874 265.331 658.236C262.982 659.151 259.773 659.688 256.08 660.423C248.085 662.019 246.346 663.005 241.255 664.583C243.047 659.33 247.655 652.786 249.483 650.886V650.904Z" fill="#0E141B"/>
<path d="M273.291 664.404C268.576 668.832 266.048 677.903 265.528 682.905C265.367 684.429 265.797 685.63 267.895 684.482C277.791 679.068 283.868 678.082 288.923 677.347C291.917 676.917 295.144 676.558 297.26 675.501C302.082 673.081 301.688 666.68 299.196 662.127C298.228 660.37 294.768 655.745 290.268 655.44C283.814 655.028 278.759 659.241 273.291 664.386V664.404ZM275.496 666.734C280.408 662.109 284.89 658.326 290.071 658.649C292.616 658.81 295.341 661.75 296.381 663.669C297.869 666.394 299.232 670.929 295.825 672.632C294.176 673.457 292.025 673.69 289.336 674.156C282.738 675.286 277.073 676.307 268.056 681.847C269.042 677.204 272.376 669.656 275.496 666.716V666.734Z" fill="#0E141B"/>
<path d="M265.6 660.335C267.877 662.002 273.344 664.566 278.418 663.58C279.296 663.419 278.687 660.263 277.808 660.443C273.595 661.249 268.379 659.546 266.873 658.435C266.156 657.915 264.883 659.815 265.6 660.335Z" fill="#0E141B"/>
<path d="M329.224 673.188C323.021 673.601 312.677 682.564 309.97 686.24C309.898 686.329 305.237 693.016 303.391 697.821C302.243 700.796 301.239 703.647 306.922 702.195C309.737 701.478 314.972 700.151 323.129 700.133C332.003 700.115 338.116 698.215 339.909 691.887C341.056 687.817 341.217 684.823 340.411 681.847C339.174 677.33 335.319 672.758 329.224 673.17V673.188ZM312.534 688.14C314.918 684.895 324.706 676.397 329.618 676.057C334.961 675.698 337.112 680.503 337.739 682.762C338.385 685.074 338.224 687.763 337.22 690.757C335.929 694.63 332.182 696.924 323.111 696.942C314.775 696.96 308.141 699.524 305.13 700.295C306.456 697.337 310.669 690.668 312.516 688.158L312.534 688.14Z" fill="#0E141B"/>
<path d="M369.292 694.809C363.627 695.096 354.591 702.858 353.157 704.741C349.464 709.581 347.672 718.634 347.6 724.371C347.51 731.847 349.088 730.43 352.494 728.279C354.986 726.702 364.147 722.076 365.742 721.736C367.338 721.413 373.397 720.57 374.329 720.337C384.225 717.917 384.638 710.692 384.261 707.215C383.275 698.161 376.033 694.45 369.292 694.791V694.809ZM381.142 706.462C381.59 711.535 380.371 716.375 374.312 717.128C370.726 717.577 367.427 717.935 365.204 718.563C362.981 719.208 358.213 720.875 349.841 726.809C349.841 717.021 354.968 707.268 355.775 706.067C356.581 704.848 364.613 698.305 369.471 698C374.329 697.695 380.694 701.37 381.16 706.462H381.142Z" fill="#0E141B"/>
<path d="M453.191 662.072C454.787 663.668 456.06 667.002 456.849 668.759C458.211 671.807 459.09 671.018 458.641 668.383C458.372 666.805 456.795 662.879 454.948 661.051C454.482 660.585 452.707 661.606 453.173 662.072H453.191Z" fill="#0E141B"/>
<path d="M456.58 680.376C455.773 681.846 453.801 683.765 452.492 684.051C451.847 684.195 452.367 686.543 453.012 686.4C455.235 685.916 457.172 682.814 457.907 680.986C459.054 678.207 458.032 677.741 456.58 680.376Z" fill="#0E141B"/>
</g>
<defs>
<clipPath id="clip0_42_59615">
<rect width="482.03" height="520" fill="white" transform="translate(199 210)"/>
</clipPath>
</defs>
</svg>
