<svg width="800" height="800" viewBox="0 0 800 800" fill="none" xmlns="http://www.w3.org/2000/svg">
<g clip-path="url(#clip0_42_59711)">
<path d="M419.023 574.369L437.925 568.467L464.94 676.963L461.474 699.152L444.141 688.065L436.55 703.052C436.55 703.052 415.467 673.451 416.572 630.537L419.038 574.369H419.023Z" fill="#E95477"/>
<path d="M437.925 568.466L419.023 574.368L416.557 630.536C416.513 632.09 416.513 633.629 416.527 635.139C429.497 644.029 444.948 658.882 459.995 662.423L437.925 568.451V568.466Z" fill="#CA4768"/>
<path d="M477.507 541.287L468.96 528.586C498.845 525.418 556.283 528.676 604.307 589.595C593.907 590.283 579.339 593.062 579.339 593.062L587.661 609.708L573.795 610.395L477.492 541.287H477.507Z" fill="#E95477"/>
<path d="M469.827 528.884L477.507 541.286L541.176 585.306C537.306 569.258 521.557 539.15 506.495 530.065C490.835 527.27 478.478 527.076 469.827 528.869V528.884Z" fill="#CA4768"/>
<path d="M452.105 542.467L473.951 536.894C494.063 540.36 559.928 567.406 591.128 642.984C580.041 640.907 570.328 638.127 570.328 638.127L573.795 658.927L549.753 652.353L452.105 542.467Z" fill="#FFE893"/>
<path d="M516.267 554.809C498.157 543.722 482.199 538.328 473.951 536.894L452.105 542.467L532.046 635.034C539.293 614.145 530.014 578.209 516.267 554.809Z" fill="#DCC880"/>
<path d="M446.92 561.175C464.955 576.431 512.098 650.619 509.319 702.618C498.919 695.685 492.673 691.531 492.673 691.531L488.519 706.787C488.519 706.787 451.776 691.531 437.208 573.667L446.92 561.19V561.175Z" fill="#FFE893"/>
<path d="M500.1 651.008C485.964 610.753 459.427 571.769 446.905 561.175L437.193 573.652C440.764 602.61 445.695 625.352 451.074 643.223C466.913 648.856 483.394 652.218 500.085 651.008H500.1Z" fill="#DCC880"/>
<path d="M347.554 346.962L306.717 423.287C299.291 422.974 291.147 419.283 291.281 414.471C283.198 413.007 268.181 406.388 264.101 401.248C257.856 393.388 274.382 394.628 274.382 394.628C274.382 394.628 236.907 386.544 227.358 371.856C221.053 362.159 231.453 359.947 236.652 361.008C236.652 361.008 206.559 347.485 194.381 332.812C183.832 320.111 186.775 310.264 191.602 310.862C200.477 311.967 209.712 317.466 209.712 317.466C209.712 317.466 179.394 291.99 166.364 256.487C160.701 241.081 165.632 230.771 175.912 236.643C186.192 242.516 193.544 250.6 193.544 250.6C193.544 250.6 172.729 230.203 167.275 192.564C164.974 176.71 169.308 165.369 178.856 170.509C188.404 175.649 213.761 224.122 259.305 255.71L347.524 346.917L347.554 346.962Z" fill="#FFFBC7"/>
<path d="M260.142 254.813C217.93 227.305 183.951 170.345 178.631 169.164C173.312 167.984 175.479 171.077 175.479 171.077C180.634 174.947 214.194 238.616 248.173 260.984C248.173 260.984 253.059 258.952 260.142 254.813Z" fill="#FFFBC7"/>
<path d="M482.976 610.559C461.907 572.77 444.425 557.828 444.425 557.828L460.084 546.606C493.361 566.719 555.775 636.051 559.929 691.517C551.606 691.517 534.96 682.507 534.96 682.507L534.258 704.053L510.694 688.05C510.694 688.05 504.03 648.348 482.961 610.559H482.976Z" fill="#E95477"/>
<path d="M526.204 612.995C504.926 583.066 478.194 557.544 460.084 546.606L444.425 557.828C444.425 557.828 467.212 579.823 482.976 610.559C498.725 641.296 504.657 663.44 504.657 663.44C519.286 653.623 524.53 630.433 526.219 612.995H526.204Z" fill="#CA4768"/>
<path d="M430.244 557.245L464.94 515.406C467.017 515.406 483.663 521.652 483.663 521.652L469.797 529.273L478.717 544.708L460.772 543.154L461.698 561.727L448.982 558.395L444.305 576.52L433.203 571.335L430.229 557.23L430.244 557.245Z" fill="#FFFBC7"/>
<path d="M440.883 502.302C427.883 491.081 441.391 450.244 447.219 426.187L471.59 440.86C471.59 440.86 474.414 469.235 468.571 499.942C466.793 500.539 465.015 501.122 463.252 501.72C455.781 503.214 446.531 507.174 440.883 502.288V502.302Z" fill="#985E3B"/>
<path d="M306.164 495.997C291.655 445.865 314.502 398.304 320.747 389.294L367.636 378.267L447.219 426.201C441.391 450.244 428.466 486.359 439.703 501.72C444.111 507.756 455.781 503.244 463.252 501.75C465.03 501.152 466.808 500.569 468.571 499.971C466.42 511.298 463.088 522.953 458.007 533.621C439.105 573.204 392.127 560.488 392.127 560.488C382.414 559.098 371.342 558.904 351.693 550.088C326.321 571.171 305.402 568.422 288.128 563.267C288.128 563.267 287.038 573.069 285.409 573.487C283.78 573.921 270.795 556.334 269.406 544.544C274.262 517.499 289.145 496.789 306.149 496.012L306.164 495.997Z" fill="#FFFBC7"/>
<path d="M463.252 501.75C455.781 503.244 444.111 507.756 439.703 501.72C428.481 486.359 441.391 450.244 447.219 426.201L379.904 385.663C414.958 439.082 428.167 497.7 387.181 529.109C376.721 536.58 353.695 534.548 340.247 530.065C337.259 530.065 329.13 522.654 324.647 521.16C316.25 544.245 295.33 553.315 273.261 555.646C278.207 565.419 284.034 574.025 285.648 572.965C287.247 571.904 288.113 563.237 288.113 563.237C307.419 569.005 327.307 570.32 351.678 550.058C371.327 558.874 382.414 559.068 392.112 560.458C392.112 560.458 439.09 573.174 457.992 533.592C463.087 522.923 466.405 511.283 468.556 499.942C466.778 500.539 465 501.122 463.237 501.72L463.252 501.75Z" fill="#DDD9AC"/>
<path d="M402.526 494.622C396.774 470.669 380.95 494.861 376.885 510.55C372.836 526.24 374.808 542.452 390.064 556.318C390.064 556.318 408.279 518.574 402.526 494.637V494.622Z" fill="#FFFBC7"/>
<path d="M422.804 434.226C424.343 437.333 432.576 454.741 435.504 457.67C438.433 460.599 451.134 460.599 453.57 456.206C456.005 451.813 449.655 439.112 449.655 439.112C449.655 439.112 455.512 452.784 460.891 453.755C466.256 454.726 480.421 453.755 480.914 449.362C481.407 444.969 475.55 437.154 475.55 437.154C475.55 437.154 485.8 447.405 489.222 447.405C492.644 447.405 507.287 442.04 506.809 438.619C506.316 435.197 500.459 428.846 500.459 428.846C500.459 428.846 511.202 436.661 519.51 434.226C527.818 431.79 542.685 425.156 525.86 413.71C539.039 419.567 551.247 417.61 554.669 414.203C558.091 410.781 569.806 404.924 560.527 397.602C551.247 390.28 529.267 381.494 529.267 381.494C529.267 381.494 575.17 386.873 589.335 381.001C603.501 375.144 612.78 363.907 615.215 357.557C617.651 351.206 616.351 344.93 602.514 344.856C591.278 344.811 570.777 345.827 570.777 345.827C570.777 345.827 609.358 334.59 620.594 327.762C631.831 320.918 646.265 298.43 645.787 293.051C645.294 287.672 614.244 293.081 605.458 296.009C596.672 298.938 647.939 278.422 660.147 242.292C672.355 206.161 648.014 227.051 607.894 244.249C624.494 232.042 657.592 200.633 661.611 175.888C666.303 146.99 634.491 177.323 607.4 190.054C614.722 181.746 665.018 134.872 652.81 101.67C644.114 78.0165 614.916 113.594 597.628 130.479C554.191 172.885 510.081 178.638 501.295 209.882C492.509 241.141 488.041 278.751 461.878 303.346C429.154 334.112 410.118 344.856 407.189 385.394C406.845 394.524 410.491 434.943 422.818 434.226H422.804Z" fill="#FFFBC7"/>
<path d="M402.541 464.782C397.043 466.351 389.362 466.172 390.064 486.971C390.752 507.771 388.675 511.238 392.141 523.027C395.608 534.817 394.921 541.062 394.921 541.062C394.921 541.062 381.054 542.452 401.854 575.041C403.244 584.754 405.321 591.687 403.244 602.774C401.167 613.861 406.023 625.651 410.864 626.353C415.72 627.04 423.341 627.04 426.808 618.732C430.274 610.41 423.341 602.087 424.028 594.466C424.716 586.846 427.495 578.523 430.962 575.056C434.428 571.589 431.649 561.19 437.207 551.477C442.751 541.765 453.853 516.109 461.474 508.488C469.094 500.868 476.027 491.155 473.263 485.612C470.484 480.068 459.397 471.745 453.151 476.601C446.905 481.458 444.828 489.781 437.207 507.114C429.587 524.447 421.951 546.636 419.187 546.636C416.423 546.636 412.254 518.903 413.643 507.801C415.033 496.714 421.966 481.458 419.187 475.899C416.408 470.356 407.398 463.422 402.541 464.812V464.782Z" fill="#FADCE9"/>
<path d="M531.718 229.172C543.522 201.469 575.274 166.728 597.359 164.487C613.631 140.086 628.424 119.974 638.032 110.052C647.64 100.13 649.552 98.8453 652.825 101.654C644.128 78.0009 614.931 113.578 597.643 130.463C554.206 172.869 510.096 178.622 501.31 209.866C492.524 241.126 488.056 278.735 461.892 303.33C429.169 334.097 410.132 344.84 407.204 385.378C407.204 385.378 420.293 410.407 442.393 375.83C464.492 341.254 499.397 305.064 531.733 229.172H531.718Z" fill="#DDD9AC"/>
<path d="M430.962 575.042C434.428 571.575 431.649 561.175 437.208 551.463C442.751 541.75 453.853 516.094 461.474 508.474C469.095 500.853 476.028 491.141 473.263 485.597C470.738 495.026 463.775 495.414 458.366 492.321C452.957 489.228 435.923 536.042 426.39 533.323C423.177 541.048 420.562 546.622 419.172 546.622C416.393 546.622 412.239 518.889 413.629 507.787C415.018 496.699 421.952 481.443 419.172 475.885C417.723 479.157 412.702 484.193 402.258 479.157C391.813 474.122 402.512 532.441 408.339 564.492C409.833 576.446 403.857 588.4 406.845 600.354C408.638 610.216 413.674 618.987 420.622 625.397C423.072 624.277 425.314 622.259 426.793 618.703C430.26 610.38 423.326 602.057 424.014 594.437C424.701 586.816 427.48 578.493 430.947 575.027L430.962 575.042Z" fill="#D8BFCB"/>
<path d="M615.693 124.606C634.252 101.655 645.966 96.2755 650.374 97.2617C650.374 97.2617 652.347 88.2515 638.166 92.9732C623.986 97.695 596.821 131.36 581.461 144.36C572.047 152.324 553.533 163.396 537.485 173.228C539.488 174.289 541.684 175.26 543.044 175.694C542.147 176.964 539.831 179.937 538.621 180.938C540.877 181.028 545.225 180.356 548.513 178.174C549.828 178.727 553.489 179.594 556.626 180.206C577.904 163.381 602.23 141.282 615.708 124.606H615.693Z" fill="#FFFBC7"/>
<path d="M401.839 467.562C406.203 457.012 416.289 445.776 417.678 449.242C419.068 452.709 416.319 469.982 415.706 472.403C413.853 479.889 400.061 471.85 401.839 467.547V467.562Z" fill="white"/>
<path d="M458.889 478.395C462.43 475.391 480.286 463.273 480.197 467.009C480.107 470.744 471.231 486.314 469.737 488.302C465.09 494.458 455.348 481.398 458.889 478.395Z" fill="white"/>
<path d="M410.954 620.062C412.403 624.485 420.263 634.975 428.78 635.348C429.154 635.363 425.627 619.748 425.373 617.268C424.611 609.603 409.489 615.654 410.954 620.062Z" fill="white"/>
<path d="M417.738 449.422C418.978 453.247 416.303 470.027 415.721 472.418C414.51 477.289 408.235 475.586 404.499 472.597C407.069 463.677 410.805 455.713 417.738 449.422Z" fill="#DCDDDD"/>
<path d="M480.197 466.919C480.197 466.919 480.197 466.979 480.197 467.009C480.107 470.744 471.231 486.314 469.737 488.301C467.899 490.737 465.269 490.154 462.968 488.391C466.883 479.396 472.606 472.223 480.197 466.919Z" fill="#DCDDDD"/>
<path d="M414.211 615.476C418.35 613.085 424.895 612.278 425.388 617.269C425.627 619.749 429.154 635.364 428.795 635.349C427.809 635.304 426.853 635.11 425.896 634.826C419.86 630.179 415.646 623.56 414.226 615.476H414.211Z" fill="#DCDDDD"/>
<path d="M273.5 609.826C279.492 621.152 271.064 633.076 270.287 632.688C267.792 626.278 259.454 614.234 259.454 614.234L273.485 609.826H273.5Z" fill="white"/>
<path d="M266.985 611.875C271.647 617.194 272.17 623.216 272.11 629.432C271.498 630.807 270.063 630.941 269.481 631.688C265.924 623.47 259.469 614.236 259.469 614.236L266.985 611.875Z" fill="#DCDDDD"/>
<path d="M271.094 544.454C278.281 547.323 283.93 559.292 279.522 564.91C275.114 570.529 262.682 572.128 260.276 582.557C262.682 590.178 273.111 597.798 274.307 600.204C275.517 602.61 277.908 611.037 267.897 613.831C257.87 616.641 255.868 615.027 251.849 608.213C247.829 601.399 239.163 582.169 208.934 573.726C174.448 564.104 155.605 565.702 153.588 560.891C151.571 556.08 149.18 547.652 159.998 540.838C170.817 534.025 181.246 540.435 191.273 543.648C201.299 546.86 217.735 556.483 217.735 556.483C217.735 556.483 194.874 528.81 186.461 522.803C178.034 516.781 177.645 517.469 177.645 509.564C177.645 499.941 185.669 493.92 193.678 494.726C208.979 496.251 213.731 505.948 218.946 517.992C224.161 530.02 236.189 552.478 248.621 560.502C257.048 560.906 269.077 543.662 271.079 544.469L271.094 544.454Z" fill="#FADCE9"/>
<path d="M217.825 564.581C220.574 565.851 217.765 556.483 217.765 556.483C217.765 556.483 194.904 528.81 186.491 522.803C178.064 516.781 177.675 517.468 177.675 509.564C177.675 508.159 177.854 506.859 178.183 505.619C185.654 508.802 198.863 504.618 203.002 511.521C213.357 526 229.181 555.257 242.659 574.279C256.257 593.48 267.463 602.37 269.182 603.655C272.603 606.226 271.557 612.8 267.897 613.816C257.87 616.625 255.868 615.012 251.849 608.198C247.829 601.384 239.163 582.154 208.934 573.711C174.448 564.088 155.605 565.687 153.588 560.876C152.811 559.008 152.184 556.677 153.752 554.645C155.65 552.194 160.163 549.953 163.599 546.591C187.283 543.737 214.089 562.848 217.795 564.566L217.825 564.581Z" fill="#D8BFCB"/>
<path d="M279.761 553.928C270.422 566.375 254.718 567.182 254.718 575.983C256.317 581.421 262.727 588.893 260.321 581.272C262.727 570.842 275.099 570.544 279.507 564.925C281.659 562.176 281.405 557.917 279.746 553.928H279.761Z" fill="#D8BFCB"/>
<path d="M189.285 512.373C189.689 509.161 185.281 495.13 176.046 497.132C166.827 499.134 162.016 507.696 162.016 507.696L189.27 512.373H189.285Z" fill="white"/>
<path d="M188 506.352C188.986 508.907 189.42 511.283 189.285 512.388L163.091 507.891C171.07 504.618 180.006 504.305 188 506.352Z" fill="#DCDDDD"/>
<path d="M162.031 554.317C163.824 554.152 166.439 546.069 161.627 542.453C156.816 538.837 143.174 540.256 136.36 552.075C146.386 552.075 157.623 554.72 162.031 554.317Z" fill="white"/>
<path d="M164.361 548.788C164.287 551.672 163.032 554.227 162.031 554.332C157.623 554.735 146.431 552.105 136.419 552.09C144.309 546.158 155.889 544.843 164.361 548.788Z" fill="#DCDDDD"/>
<path d="M362.167 383.123C372.926 369.301 387.42 317.227 379.59 308.232C371.745 299.237 344.192 291.616 344.192 291.616L342.234 280.379L380.502 266.797C389.288 268.261 425.254 285.744 435.997 328.24C435.997 328.24 398.746 388.053 362.167 383.123Z" fill="#BF794E"/>
<path d="M423.849 344.99C431.395 335.636 435.982 328.255 435.982 328.255C425.239 285.774 388.122 267.709 379.336 266.229L341.263 280.948L341.547 292.274C341.547 292.274 368.563 307.141 377.857 315.554C396.789 322.502 411.462 328.464 423.849 344.99Z" fill="#985E3B"/>
<path d="M330.534 288.209L334.121 283.876L342.234 280.409L344.192 291.646C349.959 293.409 379.769 299.894 381.562 312.52C383.43 325.58 376.333 356.406 367.89 371.452C372.717 362.577 372.403 334.605 367.098 318.407C360.718 312.311 350.542 307.275 344.745 304.661C344.52 316.928 339.844 318.243 330.669 325.116L330.52 288.224L330.534 288.209Z" fill="#16213A"/>
<path d="M361.585 381.972L319.791 388.935L322.107 378.491L300.62 334.366L309.511 320.933C315.368 325.326 319.283 331.183 324.154 328.748C329.04 326.312 341.726 318.004 343.206 313.611C344.67 309.218 344.67 304.332 344.67 304.332C344.67 304.332 365.664 314.104 367.621 318.975C369.579 323.847 373.972 352.67 369.086 368.3L361.585 381.972Z" fill="#FFFBC7"/>
<path d="M344.67 304.317C344.67 304.317 344.67 309.204 343.206 313.597C342.593 315.42 340.053 317.9 336.96 320.365C346.12 318.273 355.399 316.869 364.215 315.36C357.73 310.399 344.67 304.317 344.67 304.317Z" fill="#DDD9AC"/>
<path d="M309.511 320.918L300.62 334.351L301.039 335.203C305.82 331.751 310.975 328.987 316.354 326.745C314.277 325.072 312.081 322.86 309.511 320.933V320.918Z" fill="#DDD9AC"/>
<path d="M320.075 329.42C314.292 328.853 307.389 323.249 307.389 323.249C307.389 323.249 324.304 291.9 331.85 287.926C335.107 297.31 335.884 314.568 331.476 324.325C331.476 324.325 323.826 329.779 320.075 329.406V329.42Z" fill="white"/>
<path d="M334.285 309.995C334.928 302.076 333.403 295.71 331.864 287.955C324.319 291.93 307.673 323.353 307.673 323.353C307.673 323.353 308.405 323.548 308.704 323.817C319.074 311.116 324.856 308.321 334.285 309.995Z" fill="#DCDDDD"/>
<path d="M309.047 370.362L306.089 381.001C302.667 377.101 300.725 362.936 300.725 362.936L309.047 370.377V370.362Z" fill="#D8BFCB"/>
<path d="M309.69 354.792L305.955 356.66L301.696 360.485C301.203 363.414 303.863 370.795 308.256 373.724L309.69 354.792Z" fill="#EE869A"/>
<path d="M327.098 347.784C329.055 355.106 329.055 362.443 326.127 366.836C323.198 371.229 315.383 381.972 305.611 382.943C309.526 377.086 309.511 359.992 310.004 355.106L327.098 347.784Z" fill="#FADCE9"/>
<path d="M327.098 347.784L314.591 353.148C321.016 356.525 322.003 364.116 323.318 370.736C324.483 369.226 325.439 367.867 326.127 366.836C329.055 362.443 329.055 355.121 327.098 347.784Z" fill="#D8BFCB"/>
<path d="M289.892 234.776L315.652 227.648L299.111 330.421L295.331 333.186L291.924 337.534C280.209 334.605 250.414 326.297 247.485 321.904C244.557 317.511 247.978 271.609 247.978 264.287C247.978 256.965 267.837 256.502 277.28 245.235L289.892 234.791V234.776Z" fill="#E95477"/>
<path d="M315.667 227.648L289.653 234.537L277.28 245.235C274.501 248.538 270.825 250.914 267.03 252.811C262.293 264.735 254.583 301.927 258.722 314.344C265.521 331.333 281.673 322.442 294.135 333.903L299.111 329.674L315.652 227.663L315.667 227.648Z" fill="#CA4768"/>
<path d="M296.765 330.421C296.765 330.421 264.415 310.01 282.66 273.551C300.904 237.092 318.312 210.554 330.52 208.119C342.728 205.683 371.058 214.962 377.409 217.891L296.78 330.421H296.765Z" fill="#E95477"/>
<path d="M347.748 209.12C324.857 221.044 310.049 244.324 289.429 260.432C287.187 264.631 284.931 269.024 282.66 273.566C264.415 310.025 296.765 330.436 296.765 330.436L377.394 217.906C373.285 216.009 359.941 211.451 347.748 209.135V209.12Z" fill="#CA4768"/>
<path d="M380.636 267.215C380.636 267.215 339.739 277.57 333.972 283.756C328.204 289.942 303.848 329.241 303.848 329.241L297.946 330.421L289.488 318.975C289.982 309.203 285.095 297.488 291.924 287.716C298.753 277.944 311.558 247.79 320.255 244.249C352.933 230.965 372.03 219.818 381.294 214.454C394.368 206.908 432.083 227.633 453.076 243.756L380.621 267.215H380.636Z" fill="#E95477"/>
<path d="M402.541 215.604C357.984 232.967 312.275 253.005 302.249 305.99C300.68 313.865 297.871 320.484 295.555 327.178L297.945 330.421L303.848 329.241C303.848 329.241 328.204 289.942 333.971 283.756C339.739 277.57 380.636 267.215 380.636 267.215L453.091 243.756C439.509 233.326 418.933 220.984 402.556 215.604H402.541Z" fill="#CA4768"/>
<path d="M467.466 298.535L435.564 326.88C427.226 291.452 392.082 268.874 382.997 266.633C368.368 270.413 338.947 280.365 333.717 284.728C329.877 287.926 315.144 309.398 304.983 328.852C304.4 330.885 300.725 329.241 300.725 329.241C302.189 324.355 300.232 311.176 306.089 301.403C311.946 291.631 324.647 269.173 331.969 262.823C339.291 256.472 358.342 255.008 368.592 248.179C378.843 241.336 388.122 232.056 399.852 235C411.566 237.929 467.734 244.772 471.634 248.672C475.549 252.572 484.813 269.188 484.813 269.188L467.451 298.55L467.466 298.535Z" fill="#E95477"/>
<path d="M388.914 249.224C370.983 253.707 350.064 262.673 333.628 273.132C320.957 278.765 316.25 296.323 314.501 312.087C322.705 298.579 330.998 287.014 333.717 284.727C338.947 280.379 366.217 271.623 381.727 266.946C404.514 272.564 430.439 305.109 435.564 326.88L467.466 298.534L484.829 269.172C484.829 269.172 481.571 263.345 478.104 257.771C449.356 247.76 419.62 242.411 388.929 249.224H388.914Z" fill="#CA4768"/>
<path d="M294.688 333.709C280.045 325.894 263.115 314.583 263.115 307.739C263.115 300.895 273.859 244.742 286.067 221.298C294.345 205.414 290.46 218.862 288.995 226.677C287.531 234.492 278.461 297.847 281.18 303.839C286.067 314.583 298.065 330.063 298.065 330.063L294.673 333.709H294.688Z" fill="#E95477"/>
<path d="M333.449 345.349C335.884 343.391 316.997 329.48 302.189 329.719C295.346 329.838 292.297 338.176 289.981 340.955C282.66 349.742 283.138 351.206 284.617 355.121C286.081 359.021 293.403 372.708 293.403 372.708C293.403 372.708 300.725 360.007 306.104 356.585C311.468 353.163 331.551 346.873 333.449 345.349Z" fill="#FADCE9"/>
<path d="M312.709 331.467C312.709 334.425 312.111 341.03 310.168 341.418C308.241 341.807 297.408 347.604 294.688 353.417C291.969 359.23 293.373 372.693 293.373 372.693C293.373 372.693 300.695 359.992 306.074 356.57C311.439 353.148 331.521 346.857 333.419 345.333C335.301 343.824 324.513 335.217 312.694 331.467H312.709Z" fill="#D8BFCB"/>
<path d="M177.092 166.46C180.649 168.283 186.521 174.29 193.888 184.077C214.508 211.466 235.666 239.528 262.981 254.754L257.183 256.308C226.835 235.254 206.977 207.805 192.961 189.187C186.342 180.386 181.112 173.438 178.168 171.854C175.748 170.554 173.73 170.435 172.191 171.526C169.606 173.334 168.187 178.175 168.187 184.63C168.187 187.021 168.381 189.621 168.785 192.385C173.611 225.661 190.765 245.43 194.037 248.941C194.381 249.3 194.411 249.823 221.755 279.678L223.414 284.639C197.474 260.611 188.239 247.552 187.836 247.119C178.9 237.944 169.875 235.732 167.888 237.421C165.258 239.632 164.212 246.237 167.798 255.979C174.358 273.85 191.243 297.653 206.021 312.088C219.932 325.685 231.975 330.452 232.11 330.571L235.831 335.532C239.581 337.699 217.795 326.716 206.29 316.481C203.809 314.284 193.977 312.491 191.452 312.342C186.685 312.058 184.265 333.575 236.294 359.156C244.945 363.399 250.175 364.445 250.31 364.505L252.372 367.404C249.503 366.687 243.989 364.669 236.563 361.92C232.244 361.457 223.623 363.848 228.628 371.035C238.162 384.752 275.428 393.239 285.738 394.972L287.561 397.199C281.165 396.302 274.576 394.554 270.706 394.673C266.014 394.823 264.669 397.034 264.266 397.796C262.667 400.83 276.369 411.603 299.066 413.112C305.118 413.516 306.493 414.487 301.547 414.771C296.601 415.055 292.791 414.502 292.791 414.502C292.686 417.939 299.5 421.48 306.791 421.779L306.672 424.767C299.021 424.453 290.22 419.313 289.16 414.218C265.342 409.093 259.828 399.829 261.636 396.392C262.308 395.137 263.728 394.345 265.386 393.852C232.543 384.513 223.294 373.5 223.294 366.179C223.294 362.757 226.267 359.664 232.319 360.366C187.193 339.447 183.099 317.497 187.059 310.892C189.106 307.47 197.145 309.517 201.807 312.058C162.927 273.103 156.95 239.991 164.317 233.775C167.29 231.265 175.105 231.698 183.039 239.498C169.816 219.087 164.048 196.21 164.048 182.284C164.048 167.387 172.326 164.01 177.122 166.475L177.092 166.46Z" fill="#0E141B"/>
<path d="M186.312 184.645C199.566 205.31 224.235 243.801 248.83 259.984L247.515 261.986C212.894 236.943 197.638 206.759 184.295 185.93C179.827 178.967 174.896 170.584 172.416 170.315L176.181 170.136C177.675 171.256 180.529 175.634 186.297 184.645H186.312Z" fill="#0E141B"/>
<path d="M247.022 277.959L246.096 279.961C246.096 279.961 227.238 263.854 222.756 265.393C222.412 265.512 221.396 265.871 220.948 268.097C218.96 278.049 233.006 305.647 246.663 314.612L245.349 316.615C231.766 307.694 214.164 276.809 216.51 265.124C216.988 262.748 218.318 261.328 220.096 260.716C225.43 258.878 237.25 269.606 247.022 277.959Z" fill="#0E141B"/>
<path d="M246.29 318.094L244.9 320.036C233.514 311.893 230.048 312.161 229.091 312.655C228.897 312.759 228.284 313.073 228.284 314.761C228.284 324.205 233.529 339.356 278.7 359.245C289.817 364.146 282.54 363.04 277.026 361.112C273.993 360.291 266.014 358.363 266.014 358.363C257.751 356.45 249.129 354.896 247.545 356.645C247.411 356.794 247.485 357.138 247.575 357.407C252.386 371.841 279.223 383.137 305.148 388.442C316.578 390.773 310.811 390.848 304.998 390.818C293.851 390.056 287.62 390.085 286.679 391.505C285.484 393.313 293.567 404.714 306.343 410.915C311.543 413.44 310.243 415.652 303.459 412.036C291.685 405.76 282.45 393.582 284.692 390.175C285.797 388.487 288.397 388.038 291.7 388.023C265.685 381.598 249.727 371.393 245.319 358.154C245.154 357.676 245.095 357.242 245.095 356.869C245.095 356.002 245.438 355.404 245.797 355.016C247.963 352.64 254.792 353.806 265.536 356.256C231.482 340.477 224.743 323.637 224.743 314.567C224.743 311.459 226.148 309.95 227.403 309.308C229.33 308.321 233.918 309.248 246.305 318.079L246.29 318.094Z" fill="#0E141B"/>
<path d="M604.277 587.698C606.728 591.269 606.19 591.254 602.634 591.254C599.077 591.254 585.061 593.241 581.132 593.944C582.327 596.32 591.008 610.888 589.559 610.799C588.11 610.709 573.87 611.576 573.87 611.576L573.75 609.185C573.75 609.185 583.029 608.722 585.794 608.587C584.464 605.927 577.426 593.705 577.426 593.705C577.426 593.705 575.364 592.494 579.129 591.867C582.895 591.239 591.83 589.476 601.916 588.579C560.795 537.701 508.632 528.063 471.918 529.064L473.308 526.853C520.272 523.64 572.226 541.108 604.277 587.683V587.698Z" fill="#0E141B"/>
<path d="M592.533 641.326C593.594 644.359 593.011 644.449 590.904 644.15C588.797 643.851 575.14 640.668 571.808 639.772C572.316 642.835 576.649 659.705 575.274 660.571C573.9 661.438 549.17 652.936 549.17 652.936L550.067 651.202C550.067 651.202 569.223 656.432 572.301 657.284C571.793 654.221 569.133 641.923 568.535 638.502C567.938 635.08 570.642 636.992 570.642 636.992C570.732 637.022 579.129 639.398 589.051 641.37C557.747 568.034 493.854 541.556 473.727 538.089L474.13 535.729C494.795 539.285 568.207 571.216 592.503 641.341L592.533 641.326Z" fill="#0E141B"/>
<path d="M561.991 690.052C562.319 693.19 560.795 694.086 558.868 693.474C547.392 689.903 541.042 686.959 536.35 684.568C536.649 688.184 536.873 706.294 535.528 707.176C534.183 708.072 507.466 686.466 507.466 686.466L509.483 684.688C509.483 684.688 530.253 699.899 533.839 702.544C533.496 698.345 533.645 681.49 533.959 681.296C534.557 680.907 550.276 689.365 558.554 690.231C553.548 635.856 491.867 567.197 459.472 547.622L460.712 545.575C492.524 564.791 555.476 627.324 562.006 690.037L561.991 690.052Z" fill="#0E141B"/>
<path d="M510.589 704.71C510.589 704.71 510.888 706.279 507.018 703.455C503.148 700.631 495.722 694.983 493.391 693.429C492.688 695.999 490.477 704.8 490.029 707.474C489.58 710.149 489.132 710.537 487.757 709.342C475.101 698.315 450.686 686.749 436.012 573.771L438.388 573.472C451.179 676.962 481.377 700.974 487.757 704.964C488.415 702.558 491.493 689.887 491.956 689.588C492.404 689.29 505.315 698.494 508.183 700.407C508.198 699.645 508.243 698.897 508.243 698.135C508.243 649.005 466.973 581.406 447.622 563.386C447.114 562.908 447.682 560.248 447.682 560.248C467.122 576.685 515.371 650.26 510.589 704.71Z" fill="#0E141B"/>
<path d="M417.768 630.567C417.738 631.643 417.723 632.719 417.723 633.765C417.723 668.505 432.277 694.087 436.416 700.661C437.85 697.822 442.796 685.734 443.693 684.688C444.589 683.642 458.022 695.521 460.577 697.15C461.055 694.101 463.76 676.768 463.76 676.768L465.747 679.159C465.747 679.159 463.924 700.153 462.385 701.124C460.831 702.096 446.576 691.008 444.619 689.753C443.603 691.756 439.524 701.647 438.343 703.889C437.148 706.13 436.296 705.697 433.726 701.214C422.549 681.699 414.436 670.582 415.541 627.758L417.783 630.552L417.768 630.567Z" fill="#0E141B"/>
<path d="M485.561 520.338C489.132 521.982 489.132 522.28 484.963 523.76C480.794 525.254 473.263 528.72 471.44 529.722C472.501 531.56 481.915 545.157 480.914 546.083C479.898 547.01 464.373 544.649 462.042 544.44C462.161 546.786 464.388 562.565 462.983 563.282C461.578 563.999 451.776 560.353 449.849 559.845C449.326 561.877 446.158 578.493 445.022 579.33C443.902 580.167 432.71 572.412 432.71 572.412L433.726 570.245C433.726 570.245 441.496 573.861 443.528 574.817C444.141 572.442 446.935 557.305 448.145 556.917C449.356 556.528 458.022 559.502 460.443 560.129C460.308 557.425 458.231 542.886 459.531 541.81C460.831 540.734 473.069 542.99 476.551 543.289C474.802 540.271 468.482 528.915 468.168 528.795C467.854 528.676 477.626 523.595 480.824 521.832C473.502 519.128 466.076 516.602 464.97 516.572V514.182C467.152 514.182 482.019 518.679 485.591 520.323L485.561 520.338Z" fill="#0E141B"/>
<path d="M470.006 453.904L474.22 454.009C474.578 456.026 474.369 460.15 474.608 466.77C473.652 467.502 471.694 468.533 470.663 469.37C470.828 461.749 470.409 456.116 470.006 453.904Z" fill="#0E141B"/>
<path d="M466.599 502.93C468.766 500.988 470.454 498.672 471.993 495.997C468.616 519.053 459.113 545.561 435.026 560.264L434.398 556.663C452.688 544.051 462.012 522.878 466.599 502.93Z" fill="#0E141B"/>
<path d="M440.465 459.433C440.465 459.433 435.191 490.229 440.988 499.523L438.956 500.793C435.146 499.09 431.784 481.578 438.089 459.06L440.45 459.433H440.465Z" fill="#0E141B"/>
<path d="M285.17 571.455C285.768 568.034 286.082 563.446 287.934 557.903C289.787 552.359 290.519 561.967 290.519 561.967C290.863 562.072 324.08 572.755 347.733 550.94C347.733 550.94 338.2 545.321 336.721 542.378C335.242 539.419 340.905 542.856 352.306 548.713C363.707 554.571 379.292 557.38 387.764 558.411L392.351 558.994L394.398 561.594C394.398 561.594 385.627 566.211 351.887 552.359C326.052 577.044 296.556 566.779 289.324 565.09C288.906 567.466 288.293 568.258 287.934 572.322C287.561 576.386 285.723 575.654 282.764 573.054C281.823 572.233 280.135 570.275 278.207 567.63C279.059 566.749 279.821 565.777 280.329 564.627C282.167 567.376 283.9 569.782 285.17 571.47V571.455Z" fill="#0E141B"/>
<path d="M379.725 507.278C375.586 515.661 373.703 535.474 386.568 550.88C386.568 550.88 395.235 560.413 388.332 556.154C373.539 547.024 367.831 527.136 376.692 507.607C379.471 501.48 385.149 496.295 379.725 507.278Z" fill="#0E141B"/>
<path d="M416.931 470.938C417.006 470.699 422.37 476.049 422.37 477.618C422.37 481.518 420.876 487.33 419.277 493.098C417.977 497.775 414.54 511.253 414.54 513.24C414.54 524.671 417.379 542.004 419.262 545.142C421.085 543.289 425.358 532.74 428.855 524.073L440.943 491.559C445.202 481.278 447.07 478.888 452.18 475.212C457.963 471.043 461.922 474.689 462.759 475.003C461.773 475.197 460.817 475.66 460.443 476.766C460.204 476.691 459.98 476.631 459.741 476.572C457.365 476.034 455.392 476.348 453.883 477.528C449.416 480.995 447.159 486.463 443.05 496.37L438.298 507.577L431.081 524.97C423.715 543.229 421.339 546.277 420.144 547.921C418.948 549.565 417.32 547.174 417.32 547.174C414.137 543.573 411.148 518.051 412.448 507.637C412.986 503.274 414.361 498.358 415.676 493.591C417.603 486.628 419.606 479.426 418.111 476.422C417.574 475.346 416.782 474.226 415.84 473.135C416.303 472.448 416.677 471.715 416.931 470.953C416.931 471.491 416.931 471.491 416.931 470.953V470.938Z" fill="#0E141B"/>
<path d="M416.931 469.997C416.931 469.997 417.051 470.132 417.125 470.191C417.081 470.445 417.021 470.684 416.931 470.938V469.997Z" fill="#0E141B"/>
<path d="M387.943 482.25C387.943 464.768 394.368 464.768 402.721 462.676L402.213 463.632C402.437 463.572 402.661 463.527 402.9 463.483C402.347 464.379 401.899 465.38 401.376 466.322H401.301C396.31 467.577 390.662 468.981 391.26 486.927C391.499 494.294 391.409 499.479 391.32 503.662C391.17 511.134 391.096 515.243 393.292 522.699C396.789 534.578 400.972 552.315 401.107 555.034C401.241 557.754 399.912 556.977 399.015 553.629C398.118 550.297 395.055 542.243 395.055 542.243C394.981 542.243 393.202 542.497 392.231 544.559C390.901 547.398 388.436 551.358 400.778 570.708C400.778 570.708 401.675 563.178 402.497 566.569C403.318 569.961 403.871 580.182 403.871 580.182C405.082 587.504 406.128 593.824 404.409 602.999C402.96 610.724 405.067 618.748 407.891 622.693C408.937 624.142 409.788 624.949 410.775 625.098C412.358 625.322 410.969 625.487 412.329 625.412C413.449 626.533 416.856 627.907 418.126 628.894C416.049 629.387 410.775 630.821 404.977 624.247C402.287 621.213 401.107 616.551 401.107 609.932C401.107 608.079 401.705 604.478 402.063 602.55C402.676 599.263 402.243 585.008 401.51 580.57C401.51 580.57 400.778 575.923 400.704 575.46C389.915 559.92 388.017 554.616 387.943 548.415C387.868 542.632 394.368 539.12 394.368 539.12C394.368 539.12 391.544 528.885 389.108 520.562C387.33 514.525 387.943 483.087 387.943 482.265V482.25Z" fill="#0E141B"/>
<path d="M422.848 594.346C423.61 586.009 426.599 577.731 430.125 574.189C431.395 572.919 431.679 570.02 432.008 566.673C432.456 562.101 433.009 556.408 436.177 550.864C437.835 547.966 439.972 543.662 442.453 538.686C448.131 527.285 455.183 513.075 460.637 507.621C469.812 498.447 474.25 490.199 472.203 486.119C472.113 485.955 471.993 485.761 471.889 485.596C472.636 484.73 473.264 483.744 473.547 482.429C474.205 483.206 475.789 484.595 476.162 485.357C479.853 492.724 468.228 504.513 463.387 509.34C458.202 514.525 450.178 528.511 444.574 539.762C442.079 544.768 439.927 549.101 438.239 552.06C435.325 557.155 435.474 563.535 435.041 567.884C434.653 571.858 433.681 574.025 431.814 575.893C428.691 579.016 425.926 586.86 425.224 594.571C424.955 597.499 425.941 600.622 426.972 603.939C429.288 611.351 430.17 620.002 426.554 622.393C425.896 621.257 425.986 619.987 425.374 618.911C425.478 618.687 425.598 618.508 425.702 618.284C427.555 613.831 426.165 609.378 424.686 604.657C423.625 601.28 422.534 597.768 422.833 594.361L422.848 594.346Z" fill="#0E141B"/>
<path d="M400.48 466.561C398.866 470.476 405.53 478.081 413.106 476.303C414.944 475.87 416.826 475.227 417.32 473.27C417.738 471.596 421.205 451.439 419.636 447.494C419.322 446.702 418.664 446.254 417.843 446.239C414.241 446.224 404.29 457.401 400.495 466.561H400.48ZM416.767 449.571L416.782 449.601C417.021 450.184 417.11 451.26 417.11 452.65C417.11 458.567 415.302 470.042 414.764 472.179C414.451 473.404 413.763 474.137 412.658 474.391C409.953 475.018 405.694 472.851 403.692 470.491C402.826 469.475 402.482 468.533 402.736 467.921C406.89 457.879 415.063 449.332 416.752 449.556L416.767 449.571Z" fill="#0E141B"/>
<path d="M456.812 477.23C453.719 483.027 462.072 490.08 465.703 490.797C467.615 491.171 469.887 491.231 471.127 489.602C472.606 487.644 483.17 469.086 483.275 464.932C483.29 464.245 482.961 463.692 482.393 463.423C478.822 461.72 457.978 476.243 456.812 477.23ZM466.091 488.9C463.237 488.332 460.025 484.357 459.263 481.443C459.188 481.144 459.098 480.711 459.098 480.308C459.098 479.859 459.203 479.411 459.517 479.142C463.581 475.691 476.372 467.457 479.166 467.293C478.732 471.073 470.365 485.881 468.96 487.719C468.183 488.735 467.242 489.124 466.091 488.9Z" fill="#0E141B"/>
<path d="M411.507 616.252C408.444 618.434 408.728 621.243 408.832 621.542C410.341 626.144 420.532 636.917 429.527 637.306C429.527 637.306 431.515 638.247 428.048 626.024C426.987 622.274 426.449 618.254 426.344 617.164C426.15 615.131 425.074 613.697 423.236 613.025C419.755 611.74 414.525 614.1 411.507 616.252ZM427.689 634.153C426.135 634.975 414.495 627.668 411.88 619.749C411.85 619.644 411.836 619.539 411.836 619.435C411.836 618.762 412.463 618.045 412.867 617.642C415.033 615.55 419.845 613.831 422.579 614.848C423.685 615.251 424.297 616.073 424.417 617.343C424.536 618.538 428.526 633.765 427.689 634.153Z" fill="#0E141B"/>
<path d="M274.053 629.909C271.229 635.781 269.047 633.958 267.598 630.237C264.714 622.841 258.917 615.041 258.842 614.981L261.442 615.041C267.135 620.151 270.034 630.297 270.616 630.297C273.037 630.297 276.309 617.223 272.648 610.289L274.994 609.229C278.386 615.624 276.653 624.529 274.068 629.924L274.053 629.909Z" fill="#0E141B"/>
<path d="M157.593 540.48C164.825 530.723 189.345 538.328 212.625 552.239C205.647 544.006 191.825 528.093 185.789 523.789L183.323 522.056C177.033 517.648 175.449 517.334 175.449 509.893C175.449 509.803 175.464 509.714 175.464 509.624C176.584 509.998 177.72 510.536 178.841 510.864C180.738 516.737 179.259 516.288 184.683 520.099L187.163 521.847C195.621 527.884 210.922 543.782 218.662 555.736C226.402 567.705 217.138 557.529 217.138 557.529C187.044 539.793 169.113 536.251 160.148 542.213C159.401 541.556 157.339 540.838 157.578 540.495L157.593 540.48Z" fill="#0E141B"/>
<path d="M153.155 552.553C152.931 555.437 154.829 558.336 155.785 560.607C156.532 562.4 161.328 563.132 169.442 564.358C178.99 565.807 192.065 567.779 209.263 572.576C237.624 580.495 247.247 597.604 251.864 605.837C251.864 605.837 254.075 616.895 267.568 612.681C270.646 611.725 272.738 610.305 273.664 608.183C274.098 607.197 275.368 602.954 269.959 597.216C266.477 593.525 261.785 589.61 259.32 584.948C256.854 580.286 255.211 578.105 255.764 577.283C256.317 576.461 259.32 580.017 259.32 580.017C260.949 572.934 277.101 566.061 278.595 564.163C279.462 563.058 279.746 557.708 279.417 556.528C278.147 551.791 274.591 547.323 270.915 545.71C270.153 546.113 268.166 548.1 266.522 549.774C261.457 554.914 253.209 564.716 248.591 561.683C243.974 558.65 248.278 561.683 248.278 561.683L248.009 561.504C232.528 551.507 219.334 521.817 217.885 518.47C212.386 505.769 207.724 497.342 193.604 495.922C189.838 495.548 186.073 496.789 183.264 499.329C183.204 499.374 183.159 499.433 183.099 499.493C182.532 498.925 181.979 498.373 181.411 497.805C181.486 497.73 181.575 497.64 181.65 497.566C184.967 494.562 190.466 491.484 194.904 491.932C211.475 493.591 215.659 505.216 220.41 516.184C225.535 528.018 237.041 551.358 249.04 559.292C253.866 559.203 261.501 551.313 265.88 546.86C269.6 543.08 270.452 542.168 271.901 542.751C276.384 544.544 280.194 550.297 281.703 555.915C282.077 557.305 282.137 565.344 280.941 566.868C279.163 569.139 264.131 573.174 261.531 582.483C263.175 587.249 269.212 592.793 273.022 595.617C277.415 598.859 278.386 605.389 276.563 609.498C275.323 612.292 271.827 614.907 268.061 616.192C250.205 622.304 249.772 608.945 249.772 608.945C245.304 600.996 236.025 582.527 208.606 574.892C191.542 570.125 180.365 569.587 170.891 568.153C160.701 566.614 153.977 565.777 152.707 562.744C152.034 561.13 149.898 556.468 150.047 552.568H153.14L153.155 552.553Z" fill="#0E141B"/>
<path d="M176.286 495.907C171.743 496.863 167.245 499.373 163.674 502.198C158.28 506.441 157.817 509.549 166.767 510.476C174.582 511.282 186.536 513.315 188.717 513.673C191.347 514.107 191.452 513.613 191.691 512.612C191.945 511.611 189.121 501.256 184.832 497.341C182.382 495.1 179.289 495.264 176.286 495.907ZM188.284 511.223C186.954 510.999 181.291 509.609 174.492 508.429C171.026 507.831 164.212 508.249 163.644 506.994C163.091 506.008 166.409 503.378 169.068 501.421C171.026 499.971 173.417 498.701 176.256 498.088C178.646 497.565 180.858 498.238 182.86 500.061C186.192 503.109 188.015 508.578 188.284 511.223Z" fill="#0E141B"/>
<path d="M135.837 549.251C133.879 552.643 135.642 553.778 138.168 553.823C140.767 553.883 162.389 557.305 162.389 557.305C169.352 557.305 165.572 544.2 162.21 541.675C155.172 536.386 141.918 538.717 135.851 549.251H135.837ZM161.881 553.36C159.938 553.524 156.845 552.747 152.826 552.224C148.612 551.671 138.451 552.254 138.197 551.178C137.884 549.834 146.072 543.169 151.451 542.079C155.276 541.287 159.042 541.75 161.029 543.244C162.972 544.708 163.39 546.905 163.39 548.519C163.39 548.877 163.375 549.206 163.345 549.49C163.121 551.791 162.21 553.196 161.881 553.375V553.36Z" fill="#0E141B"/>
<path d="M437.148 327.956L434.832 328.539C424.417 287.373 388.406 268.949 379.142 267.41L382.19 265.841C393.113 267.38 426.883 287.373 437.148 327.956Z" fill="#0E141B"/>
<path d="M538.606 180.939C539.831 179.938 542.132 176.964 543.029 175.694C541.669 175.261 539.487 174.289 537.47 173.229C527.339 179.43 518.195 185.138 512.935 189.247C499.353 199.886 498.172 236.494 483.992 270.757C469.812 305.019 449.729 312.102 436.147 326.865C429.169 334.456 395.04 365.67 361.585 382.241C345.626 378.76 330.594 382.674 321.524 387.755C318.939 391.461 315.861 400.022 315.861 400.022C348.585 384.393 388.63 415.159 399.852 417.61C411.088 420.045 413.031 411.752 427.196 395.151C441.362 378.55 442.826 366.343 445.261 351.684C447.697 337.041 455.034 328.24 471.142 313.103C487.264 297.967 493.6 275.508 503.865 251.078C514.115 226.662 511.187 212.004 534.631 196.389C541.041 192.116 548.602 186.527 556.611 180.207C553.473 179.594 549.828 178.727 548.498 178.174C545.195 180.341 540.862 181.028 538.606 180.939Z" fill="#BF794E"/>
<path d="M382.534 310.398C381.084 300.238 348.869 292.303 344.834 291.048C344.685 290.226 342.952 280.26 342.952 280.26L341.487 280.514L343.519 292.199L343.953 292.333C354.009 295.411 378.783 303.211 379.934 311.235C382.175 326.895 374.33 361.785 360.897 381.135C343.564 377.624 328.054 380.791 322.75 386.096C323.99 382.36 324.094 380.089 323.482 377.414C322.869 374.74 321.345 374.217 321.345 374.217L318.85 375.95C318.85 375.95 321.33 377.325 321.046 380.074C320.867 381.912 319.447 386.843 318.521 389.891C312.888 399.066 299.933 427.8 299.933 461.988C299.933 472.507 301.218 483.535 304.251 494.681C285.215 497.042 270.706 515.391 267.747 545.411C267.747 545.455 269.854 543.946 271.034 543.767C276.07 517.199 289.892 499.463 305.626 498.731C305.626 498.731 309.69 509.086 314.128 515.735C317.281 520.457 323.004 526.449 319.701 520.666C313.754 510.221 306.731 496.878 304.879 468.054C303.34 444.147 311.169 406.119 321.465 390.444C328.473 382.719 346.777 380.582 361.062 382.674C363.452 383.033 362.197 383.018 363.975 380.343C378.903 357.825 384.984 327.941 382.489 310.368L382.534 310.398Z" fill="#0E141B"/>
<path d="M344.984 303.645C347.165 304.661 366.306 313.686 368.309 318.692C370.221 323.473 374.749 352.656 369.788 368.509L367.322 372.111C368.936 366.956 370.565 356.317 370.565 349.637C370.565 336.189 367.203 322.667 365.948 319.529C364.513 315.943 351.693 308.501 345.372 305.483C345.283 307.216 344.984 310.608 343.908 313.836C342.264 318.752 328.607 327.344 324.483 329.406C320.717 331.288 315.129 329.704 307.374 324.101L308.405 322.891C316.907 329.152 321.151 329.421 323.811 328.076C328.861 325.55 341.144 317.377 342.473 313.372C343.878 309.144 344.177 309.771 343.908 304.332C343.639 298.893 344.969 303.66 344.969 303.66L344.984 303.645Z" fill="#0E141B"/>
<path d="M331.82 323.936L329.892 325.594C334.151 316.151 333.418 295.142 331.073 289.046L332.373 286.774C334.883 293.289 338.708 311.564 331.82 323.936Z" fill="#0E141B"/>
<path d="M320.075 329.42C323.243 330.182 326.904 328.18 327.845 326.432C325.529 317.152 318.94 311.833 315.428 314.567C313.844 315.808 313.471 321.052 316.355 326.237C317.311 327.956 318.611 329.061 320.075 329.42Z" fill="#0E141B"/>
<path d="M319.253 324.683C320.284 326.491 322.018 328.075 322.839 327.612C323.273 327.358 323.153 325.401 321.838 323.1C320.464 320.694 318.895 319.932 318.417 320.201C317.595 320.664 318.222 322.875 319.253 324.683Z" fill="white"/>
<path d="M302.443 360.604C302.01 363.219 303.773 369.749 307.987 372.558L307.882 374.038C303.325 371.004 300.172 365.535 300.725 362.203L302.458 360.604H302.443Z" fill="#0E141B"/>
<path d="M328.04 347.53L326.157 348.023C327.038 351.341 327.472 354.508 327.472 357.347C327.472 361.008 326.74 364.116 325.305 366.283C319.597 374.845 313.292 380.179 307.374 381.614C309.81 375.995 310.363 365.805 310.692 359.409L310.961 355.196L309.033 355.001L308.764 359.305C308.465 364.938 308.002 373.634 306.269 379.118C304.027 375.218 302.399 366.223 301.92 362.756L299.56 363.085C299.739 364.43 301.711 376.967 304.7 382.406C305.387 383.661 305.91 384.079 308.525 383.407C316.385 381.345 323.228 374.292 327.427 367.986C330.326 363.638 330.251 355.793 328.04 347.53Z" fill="#0E141B"/>
<path d="M276.07 247.925C271.229 252.468 264.714 255.053 259.335 257.175C253.761 259.386 248.95 261.299 248.95 264.272L248.442 276.181C247.74 289.868 246.29 318.363 248.293 321.367C250.638 324.893 275.353 332.394 292.163 336.593L291.7 338.475C291.281 338.371 249.428 329.6 245.648 323.937C243.466 320.664 244.781 298.878 245.917 276.316L245.648 262.554C245.648 258.25 251.55 256.861 258.035 254.291C264.281 251.81 271.946 250.092 276.533 244.623C276.533 244.623 276.758 247.298 276.055 247.94L276.07 247.925Z" fill="#0E141B"/>
<path d="M309.511 230.697C306.732 231.937 287.426 237.57 287.426 237.57L289.294 232.699C289.294 232.699 304.7 230.218 308.54 228.5L309.511 230.682V230.697Z" fill="#0E141B"/>
<path d="M377.797 217.009L375.317 218.22C369.444 215.5 342.877 206.639 330.699 209.075C319.462 211.316 290.624 259.191 283.526 273.984L281.778 273.148C287.695 260.835 316.952 208.029 329.623 205.504C342.219 202.979 371.805 214.245 377.797 217.009Z" fill="#0E141B"/>
<path d="M453.674 242.994L450.551 243.83C428.705 227.065 393.92 208.298 381.787 215.306L381.219 215.634C371.97 220.984 352.709 232.101 320.628 245.145C315.114 247.387 307.329 261.94 301.083 273.64C297.96 279.483 295.002 285.011 292.731 288.269C288.218 294.709 289.07 302.15 289.877 309.352C290.265 312.729 290.624 315.912 290.459 319.02L288.039 315.957C288.188 313.013 288.308 312.879 287.934 309.576C287.082 302.016 285.035 294.096 289.966 287.043C292.178 283.891 296.257 278.526 299.365 272.729C306.089 260.132 311.618 245.773 317.774 243.263C349.735 230.263 381.353 212.212 381.353 212.212C394.816 204.442 432.247 226.557 453.674 242.994Z" fill="#0E141B"/>
<path d="M399.105 233.132C403.363 234.193 419.247 236.703 430.887 238.511C456.408 242.486 470.738 244.264 473.248 246.759C477.208 250.719 484.231 266.528 484.604 267.215L483.977 269.621C483.887 269.457 474.713 253.095 470.947 249.329C468.691 247.073 443.872 243.218 425.747 240.394C414.047 238.571 403.961 237.002 399.613 235.911C390.483 233.625 382.833 239.154 374.749 245.011L369.145 248.956C364.005 252.378 359.388 255.022 352.47 257.025C345.417 259.072 335.959 262.18 332.373 265.288C326.171 270.652 315.966 286.61 309.72 297.189L306.941 301.881C303.101 308.277 302.712 316.39 302.428 322.322C302.294 325.266 302.174 327.806 301.666 329.51L299.798 328.957C300.232 327.492 300.351 325.057 300.486 322.248C300.77 316.121 299.933 308.471 304.012 301.642L308.136 294.754C317.326 279.199 328.278 264.735 331.327 262.075C335.226 258.698 342.1 256.711 349.377 254.604C356.161 252.647 363.169 250.614 368.055 247.357L373.598 243.457C381.697 237.6 389.078 230.637 399.09 233.147L399.105 233.132Z" fill="#0E141B"/>
<path d="M452.195 255.231C461.399 256.501 454.376 256.935 452.015 256.711C410.281 252.9 400.823 256.89 394.846 261.388C393.307 262.553 391.843 263.644 389.885 264.481C386.732 265.81 380.397 267.902 373.06 270.323C358.521 275.12 340.441 281.082 335.361 284.907C328.921 289.733 314.292 313.835 308.046 324.13L305.402 329.719L303.205 329.45L306.776 323.353C313.605 312.102 326.545 288.194 333.209 283.188C338.499 279.229 357.969 273.73 372.612 268.904C379.919 266.498 386.284 263.3 389.377 262C391.155 261.253 393.964 258.698 395.429 257.592C401.615 252.93 417.454 250.435 452.209 255.246L452.195 255.231Z" fill="#0E141B"/>
<path d="M466.943 296.189L466.718 297.504C450.222 280.828 403.662 263.66 393.486 262.27L394.592 261.104C420.203 266.125 460.443 282.681 466.958 296.189H466.943Z" fill="#0E141B"/>
<path d="M474.787 285.52L473.876 288.15C471.396 281.217 466.988 274.657 456.648 268.845C452.598 266.573 453.002 266.17 457.335 267.53C467.809 270.802 472.173 278.228 474.787 285.52Z" fill="#0E141B"/>
<path d="M291.521 211.84C295.376 210.734 279.985 296.04 282.436 301.434C287.217 311.953 299.903 330.9 298.932 330.526L297.393 331.707C297.961 331.557 281.718 309.069 280.075 305.752C278.416 302.45 278.969 302.091 278.969 299.416C278.969 281.994 285.857 240.783 287.785 230.039C289.713 219.296 289.892 217.772 290.131 216.098C283.033 226.991 264.116 287.313 264.116 307.724C264.116 313.731 280.493 325.207 295.704 333.32L294.793 335.039C289.354 332.14 260.306 318.348 260.306 308.92C260.306 281.71 285.006 213.708 291.55 211.84H291.521Z" fill="#0E141B"/>
<path d="M302.174 328.747C294.658 328.613 293.089 334.231 290.923 337.787L289.234 340.328C281.853 349.173 280.881 350.055 282.54 354.493C284.004 358.423 289.966 370.466 292.536 373.156C295.106 375.845 294.374 374.874 296.018 371.288C297.676 367.717 301.502 360.649 306.612 357.392C309.585 355.494 317.49 352.595 323.825 350.264C329.743 348.083 333.134 346.828 334.046 346.095C334.315 345.886 334.898 345.259 334.479 344.123C332.97 339.924 315.547 328.971 302.159 328.732L302.174 328.747ZM332.611 344.706C331.506 345.363 327.113 346.977 323.153 348.426C316.384 350.922 308.704 353.731 305.566 355.733C301.083 358.587 295.54 367.254 293.448 370.69C291.55 367.104 286.664 357.81 285.513 354.747C285.065 353.537 284.707 352.61 284.707 351.564C284.707 349.532 286.066 347.111 290.713 341.538L292.566 338.759C294.643 335.367 297.467 330.735 302.189 330.645C315.727 330.421 331.79 341.941 332.597 344.676L332.611 344.706Z" fill="#0E141B"/>
<path d="M604.217 165.204C605.951 168.148 606.773 176.68 605.219 182.642C602.23 194.103 600.9 200.916 579.817 219.609C594.595 211.988 605.966 206.266 610.807 208.716C615.738 211.211 614.737 218.877 614.737 223.18C614.737 232.534 614.184 245.145 584.972 261.283C586.182 260.924 587.407 260.581 588.603 260.222C598.076 257.398 603.47 254.365 607.699 255.605C611.928 256.845 611.689 264.316 610.433 272.789C609.193 281.261 605.771 296.532 585.495 307.32C574.527 313.148 561.393 318.109 550.649 321.71C564.919 319.513 575.08 317.615 581.057 319.364C587.034 321.112 585.719 324.399 583.298 328.822C577.321 339.775 570.523 347.485 556.447 351.37C550.141 353.103 540.892 354.359 532.494 355.225C540.653 356.062 550.081 357.467 551.68 360.709C551.875 361.097 551.008 364.161 550.186 365.192C543.462 373.709 529.132 386.724 521.781 385.588C518.987 385.155 513.234 383.825 507.586 382.45C512.696 385.11 518.613 388.786 519.315 391.834C519.375 392.088 519.031 393.851 518.075 394.822C511.934 400.964 501.131 406.343 493.316 404.116C491.015 403.459 488.026 402.368 485.053 401.218C488.758 403.937 493.122 407.374 493.166 409.032C493.166 409.032 492.703 410.168 492.165 410.527C490.118 411.901 475.594 418.565 471.769 417.295C470.678 416.937 468.437 415.577 465.986 413.963C467.675 416.16 469.498 419.074 469.498 420.732C469.498 420.867 469.169 422.764 468.258 423.227C463.82 425.454 453.36 427.576 447.846 425.678C447.846 430.699 441.466 431.64 441.466 431.64C434.428 434.554 424.79 438.528 419.157 434.21C412.553 429.13 412.03 423.99 411.97 423.736C411.97 423.736 411.283 416.324 413.24 422.226C414.585 426.261 416.243 428.95 420.622 432.312C425.149 435.794 434.413 431.969 440.555 429.429C440.555 429.429 447.831 427.456 441.287 421.554C439.718 420.374 434.637 416.249 432.65 412.514C429.452 406.507 435.893 413.515 438.881 416.743C441.87 419.97 445.56 421.733 447.428 422.973C451.029 425.379 460.981 423.093 466.255 420.463C466.509 420.344 466.539 420.224 466.554 420.09C466.868 417.699 457.918 408.33 455.751 406.806C446.352 399.32 449.445 398.603 457.245 404.938C465.03 411.274 470.529 414.352 472.546 415.024C474.518 415.682 484.993 410.766 489.177 408.076C488.22 406.148 477.746 398.528 473.009 396.182C464.283 392.088 455.811 384.363 474.115 394.06C479.748 397.049 487.309 399.903 493.973 401.815C499.831 403.489 508.587 400.007 515.266 393.328C515.879 392.715 515.864 392.237 515.774 391.879C514.848 387.829 498.336 380.508 492.763 378.7C475.236 374.904 475.026 371.931 483.454 373.903C491.881 375.875 515.938 382.271 522.139 383.227C527.369 384.034 539.413 373.754 547.392 363.653C548.184 362.651 547.96 362.173 547.87 361.994C545.987 358.154 520.048 355.883 512.203 356.794C491.657 356.973 478.463 353.985 501.624 353.985C524.784 353.985 541.953 352.909 555.819 349.084C569.043 345.438 577.082 332.573 579.07 327.089C581.057 321.605 577.575 323.099 572.839 322.86C568.102 322.606 537.978 326.835 530.014 327.956C509.842 330.824 513.323 328.583 528.759 324.848C544.194 321.112 560.735 316.928 583.298 304.929C602.439 294.754 604.651 274.148 606.175 266.871C607.699 259.595 604.71 258.608 599.227 260.342C593.743 262.09 587.945 263.614 580.549 265.826C576.753 266.961 545.928 280.514 540.205 281.769C534.482 283.009 525.412 285.46 554.654 272.804C595.491 255.127 595.491 251.63 603.963 241.679C612.436 231.712 611.33 212.497 607.52 212.392C603.709 212.287 573.571 226.228 569.342 227.977C549.275 241.231 530.612 248.986 566.533 226.154C602.469 203.322 604.77 174.752 601.483 169.179C598.33 163.844 579.891 171.42 568.879 175.948L552.652 183.658L559.137 177.218L567.967 173.736C581.938 167.998 600.004 158.107 604.202 165.219L604.217 165.204Z" fill="#0E141B"/>
<path d="M644.532 90.0001C651.495 90.015 657.755 95.1402 657.755 112.907C657.755 139.638 628.528 170.016 614.632 184.585C619.802 181.701 627.154 176.65 632.249 173.468C646.22 164.726 656.784 154.775 662.253 158.421C664.255 159.751 665.974 167.192 663.613 178.204C659.175 198.855 636.134 222.762 617.561 238.467C622.82 236.091 627.841 233.655 632.443 231.414C647.744 223.943 658.592 212.855 663.419 219.55C668.2 226.154 663.762 238.377 661.76 244.324C655.649 262.419 641.349 276.883 615.678 291.975C626.556 290.212 641.513 287.134 646.011 289.584C647.894 290.615 649.059 292.886 646.31 300.94C644.472 306.319 633.952 322.607 622.895 329.331C615.394 333.903 594.863 339.955 582.491 343.825C589.036 343.571 596.94 343.331 602.514 343.361C609.507 343.391 616.724 344.333 618.891 347.5C620.624 350.041 620.071 354.404 618.517 358.438C616.171 364.52 604.934 376.13 589.888 382.361C579.458 386.679 553.115 385.155 538.74 383.915C545.987 387.172 558.001 393.493 563.574 397.901C566.279 400.037 567.026 401.995 566.279 404.475C565.532 406.956 561.228 410.796 558.105 413.231L555.685 415.249C552.487 418.446 543.268 420.359 532.39 417.535C534.063 419.567 536.484 422.062 536.484 424.035C536.484 424.393 536.454 424.752 536.394 425.096C535.438 431.147 525.083 434.121 519.883 435.645C515.266 437.005 510.126 435.525 506.151 433.762C507.182 435.376 508.049 437.035 508.243 438.394C508.258 438.529 508.273 438.648 508.273 438.783C508.273 439.575 507.929 440.367 507.242 441.159C504.119 444.76 492.479 448.884 489.177 448.884C487.324 448.884 484.305 446.867 481.437 444.536C482.004 446.015 482.408 447.494 482.408 448.809C482.408 449.048 482.408 449.272 482.363 449.496C482.243 450.617 481.601 451.618 480.495 452.455C476.296 455.578 465.075 456.011 460.592 455.204C458.799 454.876 457.051 453.441 455.437 451.618C455.512 452.246 455.571 452.873 455.571 453.471C455.571 454.786 455.362 455.981 454.839 456.923C453.704 458.985 450.909 460.419 446.98 460.957C442.587 461.57 436.699 460.987 434.413 458.716C431.245 455.548 425 440.606 422.878 435.167L424.91 435.406C427.106 441.024 433.89 453.964 436.535 456.594C437.7 457.759 442.108 458.611 446.576 457.999C449.475 457.595 451.582 456.654 452.239 455.473C452.493 455.01 452.613 454.338 452.613 453.546C452.613 450.378 450.76 445.118 448.907 441.114C448.593 440.441 444.544 434.42 445.545 432.671C446.546 430.923 451.657 439.829 452.18 440.994C454.57 445.836 458.321 451.753 461.145 452.276C465.568 453.083 475.624 452.38 478.717 450.079C479.016 449.855 479.374 449.526 479.404 449.198C479.718 446.433 475.684 438.155 473.188 435.675C463.73 426.216 466.464 425.962 471.694 430.938C476.924 435.914 487.518 445.91 489.192 445.91C492.628 445.91 504.761 440.83 505.269 438.783C504.926 436.616 498.336 429.444 495.602 426.216C482.408 417.505 485.889 415.264 494.855 422.735C503.82 430.206 511.56 435.002 519.046 432.806C526.622 430.579 531.448 427.337 531.956 424.154C532.375 421.524 529.476 418.252 524.246 414.756C512.546 409.033 504.328 396.332 517.522 407.284C532.315 419.567 550.769 415.951 553.578 413.157L556.267 410.9C558.897 408.853 562.483 406.044 562.498 403.265C562.498 401.831 561.512 400.321 559.57 398.782C550.574 391.67 528.908 382.973 528.684 382.884C528.684 382.884 530.358 380.119 531.882 380.284C541.564 381.285 576.948 384.512 588.737 379.626C602.917 373.754 611.629 362.652 613.795 357.034C614.976 353.97 614.991 351.565 613.84 349.891C612.286 347.62 608.356 346.395 602.484 346.365C591.427 346.32 564.112 347.142 563.903 347.157L570.328 344.422C570.717 344.318 608.849 333.171 619.772 326.506C630.77 319.812 640.542 301.702 642.036 298.221C643.53 294.739 643.037 293.245 637.06 293.245C631.083 293.245 616.141 294.052 605.891 297.474C604.934 297.787 589.783 304.511 588.408 304.93C568.565 310.862 603.246 295.158 605.861 293.738C625.6 282.995 650.777 265.273 658.697 241.858C662.582 230.353 660.834 225.482 659.489 224.301C656.396 221.582 646.399 227.962 633.713 234.148C626.153 237.839 603.844 248.582 594.669 252.258L606.967 243.084C622.596 231.593 656.142 199.99 660.086 175.679C660.953 170.33 660.55 166.908 658.891 165.817C655.021 163.247 643.142 170.673 631.651 177.861C623.881 182.717 613.467 189.112 597.269 198.541L597.897 194.835L610.015 185.093C622.865 171.704 661.954 130.972 651.375 102.208C649.926 98.2482 647.894 96.0517 645.159 95.4689C635.745 93.4667 619.025 110.695 606.817 123.277L598.644 131.569C579.279 150.471 560.212 161.887 543.387 171.944C523.29 183.972 507.421 193.46 502.684 210.3C501.011 216.247 499.517 222.329 497.948 228.754C491.254 256.039 484.335 284.25 462.848 304.452L449.311 316.884C418.903 344.437 408.683 356.824 408.13 385.514C408.01 391.401 406.531 392.775 406.381 385.394C405.888 361.068 409.34 349.069 447.293 314.672L460.786 302.285C481.631 282.696 487.398 256.173 493.988 229.307C495.572 222.852 498.037 211.839 499.726 205.833C504.791 187.842 524.44 179.086 545.091 166.714C561.766 156.732 576.051 147.827 595.147 129.164L608.79 114.341C622.955 99.7873 633.25 89.9702 644.532 90.0001Z" fill="#0E141B"/>
<path d="M650.628 96.0962L650.105 98.4272C646.414 97.6054 635.223 102.357 616.619 125.353C598.211 148.125 558.987 181.581 535.289 197.375C518.807 208.358 515.714 218.638 511.426 232.863C509.767 238.362 507.885 244.608 504.971 251.541L499.233 265.796C491.642 285.041 485.083 301.657 471.978 313.97C455.915 329.046 448.833 337.653 446.457 351.878L446.128 353.88C443.827 367.807 441.855 379.835 428.123 395.928C424.581 400.067 421.862 403.638 419.471 406.776C412.344 416.1 408.772 420.777 399.613 418.79C396.744 418.162 392.276 415.891 386.628 412.992C356.25 397.482 334.898 392.207 315.069 401.666L315.368 398.946C340.71 386.843 370.132 401.875 387.719 410.855C393.217 413.665 397.566 415.876 400.121 416.444C407.786 418.117 410.655 414.367 417.558 405.327C419.979 402.159 422.728 398.573 426.3 394.374C439.598 378.789 440.42 364.833 442.647 351.266L442.975 349.263C445.456 334.351 449.535 331.482 466.001 316.017C478.717 304.063 489.506 283.906 496.992 264.929L502.759 250.629C505.628 243.801 507.063 235.657 508.706 230.218C512.98 216.068 513.428 208.253 530.627 196.792C554.176 181.088 596.492 146.467 614.767 123.874C632.817 101.535 645.129 94.8859 650.628 96.1112V96.0962Z" fill="#0E141B"/>
<path d="M557.807 178.563C555.446 178.622 551.456 177.965 548.871 176.844C548.557 176.71 548.184 176.784 547.945 177.024C546.959 178.01 543.806 179.549 540.698 180.027C542.491 178.563 543.91 177.158 544.493 176.007C544.792 175.41 544.553 174.767 543.746 174.573C541.804 174.125 540.294 173.258 538.77 172.451L536.529 174.065C538.083 174.991 540.025 175.798 541.714 176.187C540.623 177.711 539.323 179.026 537.052 180.654C535.991 181.417 536.424 182.208 537.575 182.194C541.579 182.164 546.376 180.789 548.797 179.295C550.694 180.072 552.711 180.535 554.654 180.669L557.822 178.548L557.807 178.563Z" fill="#0E141B"/>
</g>
<defs>
<clipPath id="clip0_42_59711">
<rect width="530.556" height="620" fill="white" transform="translate(135 90)"/>
</clipPath>
</defs>
</svg>
