<svg width="800" height="800" viewBox="0 0 800 800" fill="none" xmlns="http://www.w3.org/2000/svg">
<g clip-path="url(#clip0_42_59823)">
<path d="M184.475 552.45C178.245 547.635 168.912 546.791 161.153 550.624C153.462 554.413 149.195 561.624 149.195 570.683C149.195 570.866 149.195 571.048 149.218 571.231C145.133 570.66 140.843 571.528 137.123 573.992C132.125 577.324 128.816 582.892 128.041 589.259C127.926 590.172 127.881 591.039 127.881 591.883C127.881 604.594 139.314 609.706 146.822 612.011L152.869 613.266C188.856 632.275 201.476 650.965 217.907 682.479C221.969 690.261 229.796 694.916 237.874 696.172C238.65 697.906 238.194 701.991 237.304 706.441L236.345 712.579C236.345 712.739 236.345 712.899 236.345 713.081C236.345 715.455 238.102 717.417 240.339 719.608C244.538 723.693 252.091 726.614 257.18 726.112C270.051 724.857 277.81 712.488 276.965 703.588C276.783 701.717 275.915 698.75 274.889 695.327C273.245 689.782 269.298 680.471 271.351 678.281C284.085 664.771 299.489 654.958 311.766 646.811L319.411 638.3L319.205 637.273C318.087 631.202 321.145 618.857 322.948 611.463L324.112 606.694L322.263 606.511L284.336 602.472L284.062 603.91C280.365 622.782 270.598 629.674 261.972 635.767C261.972 635.767 260.375 636.93 258.892 638.026C254.67 619.747 230.617 572.577 225.414 564.613C216.788 551.423 208.801 547.315 198.121 547.315C192.987 547.315 188.332 548.936 184.498 552.427L184.475 552.45Z" fill="#0E141B"/>
<path d="M320.05 609.524C316.878 609.181 289.242 606.26 286.824 605.987C282.647 624.996 272.241 632.458 263.798 638.414L258.96 641.654C258.96 641.654 261.06 652.608 258.96 651.33C256.861 650.075 253.072 615.525 222.881 566.644C216.035 555.577 205.812 550.83 197.962 550.533C193.306 550.351 189.062 552.108 185.73 555.6L184.635 556.741L184.338 556.489C181.531 559.844 180.595 564.545 181.759 569.451C183.106 575.042 186.848 579.743 191.572 581.706C201.681 585.928 226.122 620.614 230.366 632.732C232.968 640.148 231.599 641.677 228.381 633.576C225.186 625.498 198.441 588.597 189.564 584.901C184.247 582.687 179.842 577.644 178.336 571.391C176.99 565.823 179.432 558.977 182.695 555.097C177.492 550.944 169.208 550.214 162.568 553.477C151.796 558.794 148.875 580.451 165.397 587.73C176.625 592.682 203.347 622.463 208.756 630.358C214.164 638.254 213.023 641.654 206.793 631.91C200.563 622.166 170.509 593.937 163.48 591.153C155.562 588.027 150.906 579.287 149.309 574.335C145.84 573.696 142.121 574.495 138.88 576.64C134.658 579.424 131.874 584.17 131.213 589.602C129.866 600.829 142.691 607.766 148.556 607.105C163.298 605.416 153.576 609.387 153.576 609.387C190.317 628.784 204.739 647.496 221.489 679.627C223.452 683.393 230.321 691.151 237.418 691.768C237.418 691.768 237.007 687.546 236.163 684.602C235.318 681.658 235.752 677.87 237.851 681.658C239.951 685.446 241.959 701.831 241.001 706.624L240.088 712.351C239.951 714.314 241.32 716.094 242.507 717.235C246.363 720.977 253.141 723.191 256.792 722.849C267.061 721.845 272.698 711.804 272.698 704.319C272.698 703.862 272.698 703.452 272.629 703.018C272.492 701.466 271.602 698.5 270.667 695.373C268.818 689.166 268.499 683.621 267.358 679.924C262.703 669.449 264.802 670.339 269.001 677.026C279.749 662.809 296.385 649.733 308.845 641.426C308.845 641.426 314.596 637.547 315.828 636.703C315.737 635.881 315.623 635.082 315.623 634.169C315.623 627.232 318.019 617.488 319.707 610.665C319.707 610.665 319.844 610.048 319.981 609.501L320.05 609.524Z" fill="#FADCE9"/>
<path d="M250.722 721.913C253.027 722.666 255.241 723.031 256.861 722.872C267.13 721.868 272.766 711.827 272.766 704.342C272.766 703.885 272.766 703.474 272.698 703.041C272.561 701.489 271.671 698.523 270.735 695.396C268.887 689.189 268.568 683.644 267.427 679.947C265.898 676.501 265.099 674.333 264.871 673.146C258.139 685.72 267.449 713.538 260.74 715.318C254.008 717.121 252.593 720.59 250.722 721.936V721.913Z" fill="#D8BFCB"/>
<path d="M265.372 672.21C266.08 672.689 267.426 674.424 269.069 677.048C279.818 662.831 296.454 649.755 308.913 641.448C308.913 641.448 314.664 637.569 315.896 636.725C315.805 635.903 315.691 635.104 315.691 634.192C315.691 627.254 318.087 617.51 319.776 610.687C319.776 610.687 319.913 610.071 320.05 609.523C319.297 609.455 317.174 609.226 314.367 608.93C297.549 632.298 277.627 649.823 265.35 672.21H265.372Z" fill="#D8BFCB"/>
<path d="M256.541 655.21C258.481 659.934 260.968 647.131 261.493 639.989L258.96 641.7C258.96 641.7 261.06 652.654 258.96 651.376C256.861 650.121 253.073 615.571 222.881 566.69C218.751 560.004 213.388 555.668 208.048 553.181C213.434 558.566 211.106 567.284 216.492 575.362C232.649 602.29 254.624 650.509 256.564 655.233L256.541 655.21Z" fill="#D8BFCB"/>
<path d="M280.913 564.317C287.6 576.708 283.834 588.666 279.841 601.354L275.596 615.913L278.882 613.471L284.131 609.637C285.386 608.77 286.664 607.88 287.896 606.967C287.371 608.633 286.71 610.299 286.002 611.965L283.903 617.031L286.299 616.506L292.209 615.274C294.126 614.795 295.975 614.407 297.823 614.179C297.275 617.237 296.112 620.272 294.742 623.421C293.145 627.095 291.479 630.86 291 634.945L293.51 635.767C295.358 632.48 300.219 628.875 304.487 626.753C304.076 628.464 303.528 630.198 302.889 632.024C302.045 634.397 301.178 636.839 300.744 639.304L300.059 643.252L302.98 640.513C306.084 637.615 309.735 635.265 313.295 632.96C315.577 631.499 317.859 629.925 320.073 628.259C319.502 630.427 318.818 632.572 318.019 634.785C316.946 637.798 315.828 640.901 315.212 644.164L314.368 648.66L317.517 645.328C322.469 640.102 329.543 638.003 336.366 635.949L341.706 636.839L341.935 636.246C348.712 619.131 367.311 604.047 375.708 597.018C378.858 594.394 380.272 593.184 380.797 592.363L381.801 590.811L279.453 561.578L280.936 564.339L280.913 564.317Z" fill="#0E141B"/>
<path d="M282.396 602.151C284.792 594.552 287.234 586.793 287.234 578.898C287.234 574.539 286.413 570.158 284.519 565.73C289.63 567.123 370.962 589.349 375.092 590.468C374.248 591.221 373.152 592.133 371.988 593.115C363.545 600.189 346.088 614.862 338.899 632.343C338.1 632.594 335.59 633.347 335.59 633.347C329.771 635.081 323.838 636.975 318.886 640.672C319.411 638.983 319.958 637.295 320.552 635.652C321.761 632.274 323.016 628.76 323.564 625.04L324.089 621.389L321.328 623.831C318.452 626.387 315.075 628.554 311.834 630.677C309.324 632.297 306.814 634.031 304.395 635.925C304.715 634.921 305.057 633.917 305.422 632.913C306.403 630.152 307.43 627.299 307.681 624.492L307.864 622.347L305.856 623.1C302.433 624.378 298.211 627.048 294.97 630.015C295.632 628.144 296.408 626.295 297.207 624.47C298.85 620.681 300.561 616.779 300.881 612.694L300.995 611.188L299.489 611.234C296.75 611.325 294.103 611.987 291.547 612.626C291.547 612.626 289.904 612.968 288.33 613.288C288.352 613.219 288.467 612.968 288.467 612.968C289.767 609.888 291.137 606.716 291.41 603.475L291.707 599.915L289.128 602.38C287.28 604.16 284.884 605.78 282.579 607.377C282.579 607.377 281.438 608.222 280.388 608.975C281.301 605.848 282.396 602.129 282.396 602.129V602.151Z" fill="#DDD9AC"/>
<path d="M488.805 547.498L481.731 560.141L482.347 560.985C485.725 565.595 565.481 678.509 572.373 683.598C579.242 688.687 612.81 674.881 618.264 670.499L619.702 669.336L489.809 545.673L488.782 547.498H488.805Z" fill="#0E141B"/>
<path d="M490.608 550.898C493.529 553.66 611.738 666.232 614.636 668.993C607.607 673.123 586.407 680.152 576.549 679.353C566.28 669.906 492.776 569.748 485.565 559.912C486.272 558.634 489.285 553.272 490.608 550.898Z" fill="#E95477"/>
<path d="M490.608 550.898C489.285 553.249 486.295 558.612 485.565 559.912C487.756 562.902 496.108 574.266 506.925 588.894C515.551 590.742 524.336 591.473 533.259 591.518C510.599 569.93 491.749 551.994 490.608 550.921V550.898Z" fill="#CA4768"/>
<path d="M496.404 517.992L485.793 529.379L677.734 630.359L678.578 629.4C682.412 625.087 703.452 596.311 702.471 591.93C701.489 587.548 505.852 520.343 498.162 517.558L497.157 517.193L496.427 517.969L496.404 517.992Z" fill="#0E141B"/>
<path d="M498.024 520.981C512.15 526.07 680.746 586.658 696.104 594.759C695.647 600.099 682.891 615.092 674.79 624.38C672.576 623.216 494.693 530.383 491.019 528.466C492.867 526.481 496.997 522.077 498.024 520.981Z" fill="#E95477"/>
<path d="M498.024 520.981C496.997 522.077 492.89 526.481 491.019 528.466C492.616 529.311 532.209 550.488 570.981 570.729C578.511 566.439 580.839 558.635 587.913 553.569C545.125 537.937 504.619 523.378 498.002 520.981H498.024Z" fill="#CA4768"/>
<path d="M489.672 536.065L483.123 549.141L483.945 549.963C488.942 554.938 610.095 677.414 614.955 681.316C619.816 685.218 661.874 659.272 663.015 658.541L662.969 655.666L490.517 534.399L489.672 536.065Z" fill="#0E141B"/>
<path d="M491.726 539.192C494.693 541.292 653.43 652.883 657.218 655.553C650.874 659.615 630.473 672.303 617.625 676.205C605.097 665.822 497.249 558.612 487.071 548.503C487.801 547.02 490.608 541.429 491.726 539.192Z" fill="#E95477"/>
<path d="M491.726 539.192C490.608 541.429 487.801 547.02 487.071 548.503C491.042 552.451 509.868 571.163 532.095 593.139C541.771 592.135 551.31 590.31 560.734 587.731C525.135 562.72 493.05 540.128 491.726 539.192Z" fill="#CA4768"/>
<path d="M500.786 527.439L490.38 538.575C490.38 538.575 657.652 665.364 660.573 666.323C663.494 667.304 704.388 637.113 703.908 632.252C703.429 627.392 510.348 531.068 502.703 527.097L501.607 526.526L500.763 527.416L500.786 527.439Z" fill="#0E141B"/>
<path d="M502.315 530.543C516.714 538.005 679.217 622.394 697.405 632.892C694.689 636.748 677.642 649.847 661.098 661.44C659.249 660.07 498.047 540.264 495.218 538.165C496.861 536.385 501.151 531.821 502.315 530.566V530.543Z" fill="#E95477"/>
<path d="M502.315 530.543C501.128 531.798 496.861 536.385 495.218 538.142C496.404 539.009 525.067 560.323 558.247 584.992C566.896 581.523 575.408 577.53 583.714 572.897C544.441 552.405 508.705 533.852 502.315 530.543Z" fill="#CA4768"/>
<path d="M126.534 40.137C117.977 37.467 123.317 75.4398 123.317 86.6445C123.317 112.568 124.047 154.968 122.244 188.742C120.647 218.682 120.099 246.5 120.099 247.002C120.282 263.638 130.049 278.676 144.676 296.704C154.421 308.708 203.119 308.069 226.327 304.714C235.912 303.322 241.343 301.291 242.461 298.621C246.569 288.763 255.811 250.927 246.774 205.834C243.739 190.705 230.617 178.587 225.916 175.369C215.761 168.432 218.112 210.9 217.404 216.583C212.681 187.396 197.049 101.067 173.179 109.396C171.399 95.727 159.647 63.6646 144.676 67.4527C140.341 52.0948 131.235 38.8819 126.534 40.137Z" fill="#0E141B"/>
<path d="M146.502 293.487C132.194 275.847 124.846 258.709 124.663 242.575C124.572 234.976 125.12 212.863 125.736 187.282C126.968 136.119 127.835 72.5416 126.877 62.3866C125.987 52.8021 126.535 48.0099 128.429 47.5078C130.756 46.8917 136.53 52.0034 142.874 68.6393L143.102 69.2098L143.718 69.3011C158.323 71.7201 167.474 98.9674 171.376 110.606L171.627 111.359H172.403C194.47 111.062 213.959 201.293 216.423 224.615C216.423 224.615 217.587 232.831 218.568 224.661C219.55 216.491 220.668 207.865 221.352 200.723C222.174 192.005 222.836 185.136 224.137 181.576C224.365 180.96 224.707 180.732 225.323 180.778C229.75 181.12 241.252 194.196 244.15 208.618C253.095 253.186 244.561 288.101 240.499 297.8C239.928 299.192 235.82 301.177 226.053 302.592C200.632 306.266 155.014 304.007 146.502 293.51V293.487Z" fill="#FFFBC7"/>
<path d="M244.15 208.595C241.252 194.196 229.75 181.097 225.323 180.755C224.707 180.709 224.365 180.937 224.137 181.554C222.836 185.113 222.174 192.005 221.353 200.7C220.668 207.842 219.55 216.491 218.568 224.638C217.587 232.808 216.423 224.592 216.423 224.592C213.959 201.27 194.47 111.039 172.403 111.336H171.627L171.376 110.606C171.08 109.716 170.737 108.734 170.395 107.685C176.123 148.715 179.98 190.682 183.813 232.671C185.342 256.997 190.294 281.301 199.148 304.166C208.916 304.189 218.409 303.642 226.076 302.523C235.843 301.109 239.951 299.123 240.521 297.731C244.561 288.033 253.095 253.118 244.173 208.55L244.15 208.595Z" fill="#DDD9AC"/>
<path d="M137.648 236.14C136.849 240.111 132.08 221.307 130.939 216.401C129.912 211.974 126.512 223.772 124.549 227.4L122.609 231.097V231.325L121.833 245.542C122.016 262.178 130.209 276.829 144.836 294.856C151.226 302.729 173.498 305.171 186.209 305.924L187.875 306.016L187.282 304.464C183.699 295.016 179.181 285.455 173.841 277.011C165.443 263.707 182.649 257.18 181.577 244.88C181.394 242.69 171.741 227.195 167.291 221.855C146.913 197.506 138.447 232.169 137.648 236.14Z" fill="#0E141B"/>
<path d="M138.446 244.606C138.971 230.846 151.18 213.183 157.228 217.336C164.895 222.63 183.699 247.231 186.597 262.589C189.518 277.946 181.052 294.97 184.566 303.619C164.781 302.273 150.587 298.53 146.502 293.487C132.194 275.847 124.846 258.709 124.663 242.575C124.663 242.575 124.937 234.246 124.937 233.767C125.119 233.401 129.843 217.29 129.501 221.832C129.159 226.35 138.264 248.531 138.424 244.629L138.446 244.606Z" fill="#BF794E"/>
<path d="M186.62 262.611C183.699 247.253 164.918 222.653 157.251 217.358C152.595 214.141 144.311 223.862 140.5 234.77C140.637 260.352 148.67 278.288 155.881 298.804C162.75 301.131 172.654 302.82 184.612 303.641C181.098 294.993 189.564 277.969 186.643 262.611H186.62Z" fill="#985E3B"/>
<path d="M144.631 214.187C144.631 214.187 144.677 214.187 144.699 214.187C144.722 214.187 144.722 214.164 144.768 214.164L144.654 214.21L144.631 214.187Z" fill="#FADCE9"/>
<path d="M171.354 110.537C177.401 137.442 184.156 206.108 184.247 220.005C184.338 233.994 187.396 235.865 186.963 220.804C186.529 205.743 179.706 137.853 173.476 110.058L171.376 110.537H171.354Z" fill="#0E141B"/>
<path d="M141.55 64.9429C147.232 82.3776 154.809 197.665 154.329 214.689C154.329 214.689 159.35 219.846 159.35 215.739C159.35 201.978 151.979 97.8268 145.521 69.119C145.521 69.119 137.488 52.5287 141.527 64.9429H141.55Z" fill="#0E141B"/>
<path d="M215.259 264.961C176.693 265.372 134.978 301.702 121.674 334.061C118.525 341.751 116.311 356.744 114.668 362.677C114.919 364.845 117.041 365.165 117.475 367.447C120.715 384.608 131.441 406.469 145.863 428.445L146.685 431.184C151.408 438.349 164.69 445.606 173.978 452.543C183.243 459.481 197.323 466.486 203.119 471.895C203.849 473.606 204.808 483.077 205.355 487.915C208.938 519.315 221.193 575.704 288.763 599.551C370.345 628.35 404.576 622.029 443.826 592.317C475.638 568.242 480.339 563.792 484.994 567.557C486.295 568.607 497.317 576.822 498.823 575.476C500.033 574.403 497.317 554.481 496.153 551.149C499.211 550.374 526.824 544.646 526.824 544.646L503.98 521.46C502.748 520.411 391.317 426.688 351.724 395.539C328.584 377.328 314.025 353.618 299.922 330.661C279.042 296.636 259.302 264.482 215.237 264.961H215.259Z" fill="#0E141B"/>
<path d="M121.947 350.377C121.947 344.741 122.837 339.675 124.64 335.293C136.05 307.567 176.031 268.613 215.259 268.202C257.499 267.768 275.893 297.708 297.161 332.372C311.401 355.558 326.12 379.542 349.716 398.094C389.263 429.198 500.649 522.898 501.767 523.834C501.676 523.765 515.345 537.64 520.548 542.911C516.029 544.052 499.781 547.065 491.087 549.392C482.392 551.72 488.371 552.884 491.794 552.017C492.844 555.599 495.971 570.661 495.514 571.049C495.217 571.323 488.212 566.051 486.979 565.07C480.361 559.707 478.079 559.479 445.287 584.307C406.127 613.951 373.312 623.033 292.62 594.554C226.783 571.3 214.62 510.028 209.44 483.876C208.413 478.718 207.797 476.642 206.93 474.633C224.296 481.959 196.889 462.288 182.604 451.859C169.687 442.434 155.813 431.207 151.408 424.52C132.011 394.968 121.902 369.387 121.902 350.423L121.947 350.377Z" fill="#FFFBC7"/>
<path d="M491.11 549.369C494.556 548.457 499.188 547.43 503.798 546.448C487.938 540.013 465.985 556.649 447.797 563.723C379.268 592.454 316.992 601.536 236.688 553.386C248.828 570.044 266.491 585.288 292.643 594.531C373.335 623.01 406.15 613.905 445.31 584.284C478.102 559.456 480.384 559.684 487.002 565.047C488.235 566.051 495.24 571.3 495.537 571.026C495.971 570.638 492.867 555.599 491.817 551.994C488.394 552.838 482.415 551.674 491.11 549.369Z" fill="#DDD9AC"/>
<path d="M215.26 265.509C176.899 265.92 135.412 302.067 122.176 334.266C117.247 346.269 118.525 362.358 125.987 382.097L126.398 383.17L127.447 382.69C136.484 378.56 145.361 373.38 153.942 368.382C187.465 348.802 219.162 330.295 261.288 370.756C264.939 373.813 261.356 408.728 254.054 431.731L253.506 434.013C253.506 434.013 261.151 432.279 263.889 431.663C262.292 435.04 261.881 435.839 260.01 438.805C259.029 440.357 259.188 441.27 261.242 441.704C403.275 468.175 509.503 539.876 520.457 544.919C531.433 549.963 531.433 547.293 523.72 540.173C516.007 533.053 509.138 526.298 505.829 522.692C510.484 523.354 519.567 525.636 526.983 526.823C534.4 528.01 538.804 530.337 529.334 523.97C519.863 517.604 518.631 516.211 513.816 512.697C520.046 513.747 525.203 515.23 533.51 516.714C541.817 518.197 550.26 520.41 539.945 514.705C529.653 509 380.364 417.993 353.938 396.291C333.377 379.382 317.197 353.549 303.574 331.573C281.461 295.905 260.124 265.007 215.237 265.486L215.26 265.509Z" fill="#0E141B"/>
<path d="M121.377 350.491C121.377 344.741 122.313 339.606 124.161 335.088C137.146 303.505 177.766 268.065 215.282 267.654C258.96 267.198 279.544 300.401 301.337 335.544C315.052 357.657 329.223 380.523 350.058 397.638C373.996 417.309 504.3 497.157 530.84 513.359C523.925 512.195 517.581 511.807 509.685 509.822C501.79 507.837 508.864 511.762 508.864 511.762C508.864 511.762 519.886 519.772 524.564 523.172C518.608 522.327 503.045 520.319 500.192 519.703C497.317 519.11 511.488 532.026 517.399 538.507C490.22 521.643 385.201 460.325 262.497 439.034C263.433 437.596 264.756 435.063 266.764 430.59C266.764 430.59 270.804 425.433 265.874 427.624C260.922 429.814 259.074 430.567 256.632 431.115C260.991 416.579 264.893 393.781 264.893 380.112C264.893 374.521 264.231 370.459 262.702 369.181C219.435 327.648 185.57 347.411 152.823 366.534C144.631 371.326 136.164 376.21 127.607 380.203C123.476 369.044 121.377 359.095 121.377 350.514V350.491Z" fill="#BF794E"/>
<path d="M299.26 332.19C278.22 298.325 257.591 267.198 215.282 267.654C177.766 268.042 137.146 303.505 124.161 335.088C122.313 339.606 121.377 344.741 121.377 350.492C121.377 356.242 122.427 363.066 124.412 370.3C172.243 324.34 240.886 309.917 299.238 332.19H299.26Z" fill="#985E3B"/>
<path d="M507.723 499.21C491.384 489.17 469.614 475.706 447.364 461.763C386.639 446.153 323.77 410.257 274.478 441.247C339.036 453.912 398.004 477.075 442.435 498.115C463.703 494.19 486.797 495.879 507.723 499.21Z" fill="#985E3B"/>
<path d="M198.053 310.602C175.05 314.344 155.425 328.676 137.306 340.884L119.323 352.591V353.23C119.711 361.765 121.97 371.463 125.987 382.098L126.398 383.193L157.821 368.04C173.453 360.281 188.24 352.979 202.845 347.388C216.469 346.612 233.949 355.375 250.608 367.538C262.041 377.123 256.997 415.027 254.054 431.709L256.016 432.485C272.515 406.743 290.885 356.448 282.419 350.263L279.521 348.141C259.599 333.536 228.176 310.237 198.053 310.602Z" fill="#0E141B"/>
<path d="M138.492 342.664C156.429 330.592 174.959 318.132 197.346 314.458C226.578 314.116 256.359 335.932 276.053 350.354L278.951 352.477C280.046 353.275 280.571 355.352 280.571 358.341C280.571 371.668 270.416 403.457 257.089 426.368C258.709 416.236 261.151 403.662 261.151 392.389C261.151 379.655 259.257 368.382 253.461 363.522C236.277 350.993 216.674 344.353 202.526 345.22H202.366L202.206 345.288C187.465 350.902 172.586 358.273 156.863 366.077C156.863 366.077 129.615 379.222 127.607 380.18C124.024 370.436 121.971 361.536 121.514 353.686C122.587 352.979 138.492 342.641 138.492 342.641V342.664Z" fill="#16213A"/>
<path d="M198.007 314.709C189.769 319.479 148.328 344.695 141.755 373.973L141.253 376.164L157.661 368.086C173.361 360.304 195.429 352.363 201.43 349.601C207.409 346.84 204.648 347.342 204.648 347.342L204.808 346.498C205.218 344.421 205.401 342.139 205.401 339.811C205.401 330.204 203.712 318.178 200.814 313.888L198.897 314.184L198.03 314.686L198.007 314.709Z" fill="#0E141B"/>
<path d="M198.099 317.151C200.632 321.556 203.21 331.231 203.21 339.857C203.21 341.752 203.028 343.554 202.731 345.266C202.64 345.266 202.343 345.266 202.343 345.266L202.206 345.334C187.419 350.971 172.494 358.365 156.703 366.192C156.703 366.192 147.712 370.619 144.54 372.171C152.253 345.654 188.537 322.788 198.099 317.151Z" fill="white"/>
<path d="M202.731 332.989C201.864 326.53 199.97 320.392 198.099 317.151C191.618 320.962 172.814 332.738 159.008 348.187C171.764 338.465 186.483 332.327 202.731 333.011V332.989Z" fill="#DCDDDD"/>
<path d="M163.891 338.442C162.476 339.149 161.404 340.427 160.81 342.139C159.852 344.946 160.285 348.597 161.928 351.952C164.713 357.611 169.938 360.555 173.841 358.638C177.72 356.721 178.587 350.788 175.803 345.128C173.019 339.469 167.793 336.525 163.891 338.442Z" fill="#0E141B"/>
<path d="M165.808 345.585C166.447 344.924 168.044 347.48 168.957 349.237C170.6 352.431 172.015 355.581 170.851 354.919C168.478 353.573 164.735 346.681 165.808 345.563V345.585Z" fill="white"/>
<path d="M114.942 332.988C112.089 343.645 114.873 352.454 116.494 357.588L116.676 358.204L117.315 358.318C122.701 359.368 131.989 360.806 133.837 358.775C134.134 358.455 134.293 358.045 134.293 357.611C134.293 357.428 134.271 357.246 134.202 357.063C133.358 354.302 118.045 333.992 116.836 332.509L115.398 330.774L114.942 332.988Z" fill="#0E141B"/>
<path d="M116.425 340.77C116.425 339.081 116.653 337.575 116.836 336.023C120.989 341.477 130.939 354.987 131.989 357.383C130.505 357.999 124.892 362.997 118.479 356.904C117.452 353.344 116.448 346.612 116.448 340.77H116.425Z" fill="white"/>
<path d="M126.261 358.798C128.976 358.638 131.19 357.702 131.966 357.383C131.555 356.447 129.798 353.846 127.561 350.674C127.767 353.549 127.767 356.516 126.261 358.798Z" fill="#0E141B"/>
<path d="M125.371 348.027C122.769 344.33 122.723 342.87 120.168 339.47C118.296 346.384 119.46 352.979 121.719 358.137C123.591 359.027 125.53 359.711 125.371 348.027Z" fill="#0E141B"/>
<path d="M123.134 349.419C121.834 347.57 123.203 348.483 121.925 346.771C121.879 350.514 121.834 351.997 122.883 354.918C123.819 355.352 123.203 355.238 123.112 349.419H123.134Z" fill="white"/>
<path d="M194.949 239.7C161.974 246.956 146.73 260.512 132.924 280.046C118.821 290.703 111.176 314.367 111.176 327.055C111.176 329.383 112.774 332.943 113.207 334.381C115.101 340.862 133.335 367.196 137.214 367.767C138.218 367.903 143.102 376.598 143.558 375.64C160.194 339.949 197.368 315.052 240.521 310.67C276.394 307.042 308.206 318.886 325.618 342.368C395.562 436.638 519.612 503.843 577.758 510.484L578.716 507.472L568.424 501.926C551.88 493.072 521.712 476.893 504.825 466.053C537.001 479.745 581.911 498.937 626.89 507.312C639.578 509.663 627.529 504.186 627.529 504.186C608.177 496.792 582.756 484.469 561.076 473.424C586.749 483.419 626.776 493.232 640.993 490.745C655.187 488.257 641.107 487.55 641.107 487.55C576.663 477.303 517.695 421.394 460.69 367.356C432.599 340.725 403.549 313.181 374.225 291.524C348.369 272.401 293.03 238.718 256.609 241.092C256.427 241.069 247.23 239.54 247.23 239.54C234.907 237.212 219.572 234.291 194.972 239.7H194.949Z" fill="#0E141B"/>
<path d="M116.151 331.848C115.786 330.593 115.604 328.904 115.604 326.873C115.604 315.098 121.811 292.232 135.092 282.419L135.297 282.26L135.457 282.054C148.853 263.068 163.594 249.901 195.634 242.872C219.595 237.623 234.565 240.453 246.614 242.735L252.981 243.602L258.207 243.876C287.531 245.222 344.444 273.542 372.285 294.126C401.426 315.668 430.408 343.144 458.431 369.707C511.237 419.774 565.732 471.302 625.087 487.322C579.903 482.986 529.973 455.898 516.166 449.691C502.36 443.484 514.637 452.544 514.637 452.544C515.276 452.886 571.779 484.104 613.358 501.904C578.351 493.78 510.644 465.323 493.164 457.519L491.338 460.097C499.622 468.792 543.345 492.205 566.85 504.779C566.85 504.779 568.06 505.441 568.516 505.669C507.814 493.597 393.987 429.176 328.174 340.428C310.077 316.033 277.171 303.711 240.156 307.453C196.182 311.903 158.3 337.211 141.002 373.517C136.165 370.323 118.502 339.972 116.106 331.848H116.151Z" fill="#FFE893"/>
<path d="M122.039 314.207C122.472 308.776 129.775 293.236 135.548 281.871C135.503 281.917 135.457 281.985 135.434 282.031L135.274 282.236L135.069 282.396C121.765 292.209 115.581 315.097 115.581 326.85C115.581 328.881 115.763 330.569 116.128 331.824C117.817 337.575 127.173 354.462 134.202 364.982C133.061 361.924 131.692 358.41 130.026 354.416C122.906 337.301 121.468 321.327 122.039 314.207Z" fill="#E95477"/>
<path d="M491.361 460.074L493.186 457.495C505.19 462.858 540.903 477.965 573.422 489.535C547.978 477.234 523.811 462.242 501.539 442.753C409.984 361.97 310.351 235.409 183.79 289.265C156.086 300.812 144.22 336.114 136.301 368.017C138.309 370.801 139.975 372.809 141.025 373.517C158.323 337.21 196.204 311.925 240.179 307.452C277.193 303.71 310.1 316.033 328.196 340.427C394.033 429.175 507.86 493.597 568.539 505.668C568.082 505.417 566.873 504.778 566.873 504.778C543.391 492.182 499.644 468.768 491.361 460.096V460.074Z" fill="#DCC880"/>
<path d="M175.644 300.812C162.066 311.538 143.878 345.015 137.328 372.559L137.214 373.084L137.557 373.495C139.382 375.708 140.615 376.598 141.71 376.461C142.303 376.393 142.782 376.005 143.079 375.411C159.806 339.538 197.117 314.527 240.476 310.146C276.532 306.494 309.279 317.882 326.051 342.048C395.288 441.91 519.658 505.167 577.462 511.397C588.438 512.584 594.075 513.77 589.921 511.694C588.598 511.032 573.308 503.09 559.069 495.377C545.285 487.915 412.106 413.521 329.862 323.815C280.092 269.526 214.164 273.382 175.666 300.812H175.644Z" fill="#0E141B"/>
<path d="M178.77 303.46C216.469 276.6 279.384 271.945 328.242 325.276C407.611 411.855 532.939 484.652 575.362 508.134C515.528 497.91 394.946 431.321 327.763 340.748C309.781 316.513 273.885 304.121 237.053 307.841C193.078 312.291 158.392 337.781 141.276 374.179C141.003 374.02 140.455 373.563 139.565 372.536C146.046 345.928 165.854 313.66 178.77 303.46Z" fill="#E95477"/>
<path d="M470.412 443.598C422.604 411.102 369.296 370.048 328.242 325.275C321.693 318.132 314.892 312.062 307.932 306.905C291.205 304.212 274.204 304.554 257.5 307.43C286.664 309.187 313.112 321.053 327.74 340.77C388.83 423.128 494.076 485.632 557.654 503.98C526.025 488.051 496.45 467.81 470.412 443.598Z" fill="#CA4768"/>
<path d="M154.9 288.375C152.139 291.592 136.598 312.085 135.16 326.37C134.407 333.992 134.727 341.614 135.023 348.962C135.297 355.785 135.594 362.837 135.023 369.797L137.168 369.98C137.762 362.883 137.442 355.763 137.168 348.871C136.872 341.569 136.552 334.038 137.283 326.576C138.629 312.952 153.029 294.354 158.095 288.831C163.161 283.309 168.227 279.155 173.749 274.089C179.272 269.023 172.357 273.176 165.922 277.763C159.464 282.373 157.638 285.134 154.877 288.352L154.9 288.375Z" fill="#0E141B"/>
<path d="M121.286 309.552C116.539 323.107 124.321 342.368 130.117 355.763L132.262 357.087C126.626 344.079 120.419 320.757 125.006 307.704C130.094 293.19 139.474 275.915 144.791 269.023L138.766 274.592C133.312 281.666 126.489 294.81 121.309 309.552H121.286Z" fill="#0E141B"/>
<path d="M193.489 259.142C183.745 267.175 190.02 264.14 194.744 260.899C219.207 244.126 254.601 242.94 261.47 243.51C268.339 244.058 275.185 244.879 275.185 244.879L267.381 241.639L263.821 241.593C242.575 240.84 212.087 243.875 193.512 259.165L193.489 259.142Z" fill="#0E141B"/>
<path d="M178.747 392.526L114.006 398.596L116.744 402.361C131.76 422.306 131.121 452.475 125.918 458.225C124.389 459.914 125.211 460.918 127.515 460.576C131.121 460.051 161.951 450.033 166.082 446.404C174.502 439.011 181.325 407.884 180.504 394.032L180.413 392.366L178.747 392.526Z" fill="#0E141B"/>
<path d="M177.332 395.904C177.332 396.178 177.332 396.429 177.332 396.726C177.332 411.673 170.714 438.053 163.936 444.009C160.947 446.634 139.838 454.735 130.071 456.857C132.741 450.878 134.133 444.74 134.133 438.441C134.133 426.552 129.318 414.138 119.871 401.313C124.777 400.856 174.205 396.224 177.309 395.927L177.332 395.904Z" fill="#933000"/>
<path d="M178.792 393.051L158.619 394.945L154.854 397.638C150.29 400.764 145.68 407.245 143.33 412.197C136.119 427.35 138.971 442.343 148.989 453L149.491 453.525L150.153 453.274C153.188 452.133 163.252 448.185 165.716 446.017C174.046 438.714 180.755 407.839 179.956 394.078L179.888 392.96L178.77 393.074L178.792 393.051Z" fill="#0E141B"/>
<path d="M177.857 395.311C177.857 395.698 177.879 396.064 177.879 396.452C177.879 410.463 171.65 437.939 164.301 444.397C162.909 445.629 157.364 448.185 150.13 450.969C144.836 445.059 142.052 437.459 142.052 429.404C142.052 423.813 144.471 417.035 145.886 413.635C147.3 410.235 151.682 402.453 156.086 399.441C156.086 399.441 158.939 397.387 159.395 397.068C159.92 397.022 175.848 395.516 177.857 395.333V395.311Z" fill="#EE869A"/>
<path d="M178.747 392.527L150.313 395.197L150.883 397.091C158.482 422.421 148.35 448.368 127.287 457.427L128.131 460.508C136.552 459.413 163.708 450.102 167.702 446.588C176.122 439.194 181.325 407.93 180.527 394.056L180.435 392.39L178.769 392.549L178.747 392.527Z" fill="#0E141B"/>
<path d="M177.332 395.904C177.332 396.178 177.332 396.429 177.332 396.726C177.332 411.673 170.714 438.053 163.936 444.009C161.609 446.04 148.327 451.38 137.921 454.689C149.719 445.47 156.611 430.477 156.611 414.024C156.611 408.798 155.812 403.435 154.375 398.095C157.319 397.821 174.525 396.201 177.309 395.95L177.332 395.904Z" fill="#FADCE9"/>
<path d="M126.238 352.911C119.665 355.763 90.1588 378.15 80.6428 393.759C74.3444 404.073 88.0822 442.571 89.7253 446.199C90.524 448.002 91.4596 447.865 92.5093 446.199C97.5069 438.304 120.989 409.231 123.453 408.249C125.918 407.245 177.857 396.52 180.458 396.041C183.06 395.561 182.9 395.105 181.417 392.618C179.933 390.153 157.227 360.396 149.605 356.151C148.076 355.307 133.882 349.602 126.215 352.911H126.238Z" fill="#0E141B"/>
<path d="M84.0659 403.936C84.0659 400.034 84.5451 396.862 85.6633 394.991C95.1565 379.427 120.875 359.209 126.238 356.881C132.285 354.257 146.593 357.931 148.191 358.798C154.877 362.518 178.815 392.754 177.994 393.074C177.172 393.393 125.576 401.7 121.126 404.53C116.653 407.359 99.6521 426.072 91.3456 441.955C88.4018 434.31 84.0659 415.803 84.0659 403.914V403.936Z" fill="#FADCE9"/>
<path d="M260.694 572.67C254.373 575.5 250.973 581.022 250.973 588.165C250.973 588.918 251.11 589.762 251.201 590.561C246.705 589.922 241.137 590.926 236.779 593.505C232.283 596.152 228.426 600.214 227.422 604.892C224.068 620.227 234.793 628.511 244.629 629.013L247.961 630.382C266.125 639.624 280.799 646.493 296.75 660.117C305.741 667.807 312.131 681.134 315.12 691.061C316.581 695.899 326.416 708.61 330.98 710.527C332.35 711.097 333.171 711.873 333.536 712.9C334.54 715.752 332.236 719.153 329.999 723.352C328.265 726.592 326.622 729.673 326.462 732.115C326.211 735.629 328.881 739.006 331.163 741.22C335.727 745.67 343.805 750.143 348.894 749.64C362.084 748.34 368.657 731.407 367.812 722.599L367.173 717.647C366.215 710.778 363.956 694.712 366.26 691.631C376.666 677.848 393.439 668.378 405.717 660.208C405.717 660.208 411.855 657.447 414.16 653.339C416.465 649.232 416.145 633.212 417.948 625.818L419.112 621.071L417.286 620.889L379.359 616.85L379.085 618.31C375.389 637.183 365.622 644.074 356.995 650.167C356.995 650.167 355.398 651.331 353.938 652.426C349.853 634.672 328.949 585.13 321.396 577.85C316.672 573.309 310.716 570.89 304.646 571.004C299.101 571.118 292.688 574.518 288.307 578.58C281.62 571.369 269.685 568.608 260.74 572.624L260.694 572.67Z" fill="#0E141B"/>
<path d="M381.847 620.41C377.671 639.419 367.265 646.882 358.821 652.838C358.821 652.838 355.421 655.622 354.873 655.987C355.626 661.76 355.444 667.169 354.166 665.686C352.888 664.202 341.09 611.83 318.041 581.228C314.618 576.687 308.822 575.181 303.596 575.295C298.416 575.409 293.578 577.622 289.585 581.707C287.485 588.462 289.607 599.416 298.142 602.976C308.411 607.266 326.348 642.934 328.767 651.012C331.186 659.091 328.539 658.999 325.526 650.898C322.514 642.797 303.642 608.749 294.331 604.87C283.971 600.557 283.629 588.622 286.504 581.296C280.913 574.701 269.868 572.077 262.018 575.591C255.788 578.398 253.141 584.24 254.578 592.113L255.058 594.715L254.852 594.646C256.883 600.397 263.159 607.928 272.492 608.84C279.407 609.525 308.822 645.923 311.857 651.628C314.892 657.333 314.664 659.684 308.503 652.039C302.341 644.394 276.189 612.606 270.781 612.081C261.333 611.145 252.274 603.615 250.243 593.825C246.888 592.912 243.191 593.46 238.422 596.267C235.843 597.773 232.534 600.58 231.507 605.349C228.746 617.969 240.932 625.956 246.797 624.792C261.927 621.848 250.448 626.298 250.448 626.298C268.841 635.654 282.647 643.755 298.85 657.607C308.366 665.754 315.098 679.72 318.224 690.08C319.411 694.051 330.638 705.758 334.381 707.332C334.586 698.433 336.48 696.789 336.822 710.39C336.937 714.84 335.522 719.792 332.852 724.836C331.346 727.642 329.794 730.541 329.68 732.321C329.566 734.055 330.912 736.451 333.422 738.87C337.918 743.229 344.992 746.743 348.575 746.401C358.638 745.419 364.663 732.047 364.663 724.151C364.663 723.694 364.663 723.284 364.617 722.873L363.978 718.081C362.974 710.87 362.906 705.324 362.062 698.136C359.665 677.849 362.198 682.915 363.705 689.67C374.453 675.453 391.522 664.111 404.005 655.804C404.005 655.804 411.079 652.564 411.079 649.62C411.079 646.676 413.179 631.843 414.867 625.02C414.867 625.02 415.004 624.427 415.141 623.879C411.969 623.537 384.334 620.616 381.915 620.342L381.847 620.41Z" fill="#FADCE9"/>
<path d="M353.436 663.722C350.378 653.795 338.739 608.725 318.019 581.227C314.778 576.914 309.393 575.362 304.395 575.316C325.823 592.888 348.963 664.886 351.427 666.917C353.892 668.948 353.436 667.282 353.436 663.745V663.722Z" fill="#D8BFCB"/>
<path d="M381.847 620.41C380.318 627.324 377.967 632.71 375.206 637.045C377.192 639.396 376.096 643.389 377.694 644.713C379.291 646.037 388.419 641.176 389.583 644.348C394.033 656.602 371.509 669.952 362.541 685.561C362.929 686.657 363.34 688.14 363.682 689.714C374.43 675.497 391.5 664.156 403.982 655.849C403.982 655.849 411.057 652.609 411.057 649.665C411.057 646.721 413.156 631.888 414.845 625.065C414.845 625.065 414.982 624.472 415.119 623.924C411.947 623.582 384.311 620.661 381.893 620.387L381.847 620.41Z" fill="#D8BFCB"/>
<path d="M356.722 727.551C356.174 738.414 347.571 737.524 339.31 743.343C342.779 745.374 346.339 746.652 348.552 746.424C358.616 745.442 364.64 732.07 364.64 724.174C364.64 723.717 364.64 723.307 364.595 722.896L363.956 718.104C362.952 710.892 362.883 705.347 362.039 698.159C361.491 693.572 361.217 690.354 361.103 688.072C357.84 685.516 357.292 716.666 356.745 727.528L356.722 727.551Z" fill="#D8BFCB"/>
<path d="M535.883 150.016C512.766 151.203 494.51 152.161 489.376 152.275H488.166L393.69 496.792L395.448 497.088C415.598 500.534 441.271 497.157 448.185 491.954C449.486 490.973 450.216 489.877 450.353 488.713C450.353 488.599 450.353 488.462 450.353 488.348C450.353 485.473 446.679 482.598 442.001 480.042C449.235 481.388 457.016 482.461 462.151 482.004C474.291 480.954 488.554 476.231 488.554 468.358C488.554 468.152 488.554 467.924 488.531 467.719C488.029 462.059 467.925 454.301 453.662 449.166C467.263 449.622 489.512 450.124 496.724 448.687C505.144 446.998 518.768 436.638 520.571 429.563C520.73 428.924 520.799 428.354 520.799 427.829C520.799 425.935 518.334 424.817 517.695 424.269C514.957 421.964 504.186 419.34 493.985 417.286C513.268 417.674 539.922 418.176 539.922 418.176L540.424 417.583C545.262 411.809 553.888 402.476 553.888 397.273C553.888 396.132 553.546 395.196 552.77 394.534C549.826 392.07 521.506 385.178 504.87 381.071C527.166 380.363 571.597 378.652 576.982 376.324C582.413 373.973 592.523 365.005 592.842 358.41C592.842 358.296 592.842 358.182 592.842 358.045C592.842 355.672 591.724 353.755 589.647 352.637C584.855 350.012 555.28 349.168 533.761 348.894C568.653 344.467 628.738 336.891 633.599 336.457C635.653 336.274 637.479 334.905 638.985 332.372C641.541 328.082 644.576 320.437 644.576 314.025C644.576 310.693 644.165 307.681 643.275 305.627C640.856 300.059 591.176 299.534 551.264 300.059C593.938 293.281 685.15 281.78 692.156 279.361C701.717 276.052 707.833 247.116 708.518 244.743C709.18 242.369 707.833 240.703 699.755 241.023C691.654 241.365 621.231 246.842 575.75 248.919C624.699 242.483 702.516 233.88 708.13 232.557C713.333 231.347 720.681 227.011 720.681 216.195C720.681 208.892 716.414 196.957 702.813 194.515C688.231 191.891 601.263 194.515 539.603 199.855C557.676 196.524 704.707 172.083 706.236 165.237C707.422 159.897 703.041 148.282 687.569 144.585C680.381 142.873 610.323 146.182 535.86 150.039L535.883 150.016Z" fill="#0E141B"/>
<path d="M536.043 153.234C588.712 150.496 676.866 145.932 684.214 147.689C693.731 149.971 700.828 157.456 700.828 162.476C694.027 167.451 584.604 188.491 512.105 201.544L512.493 204.739C514.227 204.625 685.036 193.238 702.585 199.605C714.269 203.872 714.565 214.278 714.383 217.382C714.086 222.47 711.758 226.806 708.974 227.445C701.147 229.271 539.101 250.38 537.458 250.608L537.732 253.825C537.732 253.825 698.135 246.5 702.63 246.295C699.915 254.807 693.411 271.557 687.204 273.679C678.395 276.714 529.288 300.173 527.782 300.401L528.079 303.619C578.785 302.432 634.718 303.185 638.871 306.951C639.533 308.548 639.852 311.058 639.852 313.934C639.852 319.593 638.597 326.622 636.224 330.615C635.562 331.711 634.535 333.034 633.326 333.148C626.434 333.742 513.519 348.096 508.727 348.712L508.933 351.929C537.344 351.77 581.455 352.568 586.567 355.352C587.617 355.923 588.073 356.722 588.073 357.908C588.073 357.977 588.073 358.068 588.073 358.137C587.845 362.929 580.611 371.098 575.705 373.243C570.981 375.297 523.538 377.26 492.799 378.081L492.456 381.276C512.949 386.183 546.426 394.74 549.142 396.908C549.21 397.022 549.256 397.182 549.256 397.387C549.256 399.761 544.486 407.497 538.439 414.822C536.887 414.799 473.835 413.567 473.835 413.567L473.561 416.784C488.006 419.089 512.219 423.79 515.642 426.666C515.801 426.802 516.304 427.213 515.938 428.674C514.546 434.105 503.867 443.872 496.108 445.424C486.112 447.432 443.302 445.424 442.868 445.424L442.298 448.573C462.014 455.054 483.488 464.296 483.808 467.924C484.287 473.447 473.036 477.737 461.877 478.718C450.741 479.7 424.863 472.831 424.612 472.74L423.676 475.843C436.433 480.042 447.409 485.861 447.136 488.303C447.136 488.44 446.907 488.828 446.246 489.33C440.791 493.437 405.489 498.001 397.775 494.076C353.983 461.147 490.037 157.707 490.654 155.425C496.952 155.242 514.273 154.329 536.043 153.211V153.234Z" fill="#FFFBC7"/>
<path d="M610.893 199.354C562.606 201.43 513.405 204.694 512.47 204.762L512.082 201.567C538.941 196.729 570.821 190.819 600.715 185.023C612.833 174.959 621.002 158.072 606.626 149.72C582.277 150.861 556.49 152.184 536.043 153.257C514.272 154.375 496.952 155.288 490.654 155.47C490.037 157.684 360.67 446.268 394.877 491.133C405.74 488.645 415.94 484.013 423.79 475.478L424.589 472.785C424.589 472.785 425.091 472.922 425.89 473.128C427.989 470.526 429.883 467.605 431.526 464.296C438.897 463.36 452.704 456.172 452.955 452.338C449.417 451.038 445.812 449.782 442.252 448.619L442.822 445.469C442.822 445.469 445.492 445.584 449.44 445.743C458.774 435.337 480.065 438.623 485.268 418.861C481.069 418.085 477.007 417.378 473.516 416.83C473.516 416.83 512.88 403.206 505.966 384.631C501.813 383.604 497.751 382.6 494.077 381.733C493.529 381.596 531.547 367.128 530.178 352.044C524.039 351.975 517.992 351.952 512.447 351.975C511.488 352.591 510.53 353.23 509.571 353.915C510.507 353.23 511.488 352.614 512.447 351.975C511.237 351.975 510.051 351.975 508.887 351.975L508.681 348.757C509.526 348.643 571.848 315.303 556.125 303.231C546.814 303.322 537.321 303.459 528.01 303.688L527.828 301.771C527.12 302.067 526.413 302.41 525.728 302.752C526.436 302.41 527.143 302.067 527.828 301.771L527.714 300.493C527.896 300.47 602.997 269.571 591.861 251.429C561.944 252.799 537.389 250.676 537.389 250.676C537.914 250.608 555.372 248.326 578.968 245.222C595.489 233.333 619.222 222.425 611.897 200.426C611.578 200.107 611.235 199.764 610.847 199.399L610.893 199.354Z" fill="#DDD9AC"/>
<path d="M346.909 426.163C374.408 385.406 366.215 302.865 350.971 232.511C342.414 193.009 411.057 159.486 465.643 159.646C546.677 159.874 601.195 151.499 592.979 170.805C584.741 190.111 483.762 218.134 483.762 218.134C483.762 218.134 600.465 199.878 598.936 224.775C597.407 249.694 491.612 272.56 491.612 272.56C491.612 272.56 600.259 261.196 581.615 288.854C562.971 316.512 476.596 320.346 476.596 320.346C476.596 320.346 575.066 312.975 550.511 336.799C525.957 360.623 461.809 363.75 461.809 363.75C461.809 363.75 531.981 365.667 520.754 379.039C509.526 392.412 443.713 397.546 443.713 397.546C443.713 397.546 500.352 400.65 486.569 412.996C472.786 425.341 436.912 426.003 436.912 426.003C436.912 426.003 472.945 441.43 461.969 450.444C450.992 459.458 413.704 450.946 413.704 450.946C413.704 450.946 441.248 468.358 433.17 475.249C425.091 482.141 395.083 471.758 395.083 471.758C395.083 471.758 417.013 495.856 408.615 499.074C400.217 502.291 381.824 490.265 381.824 490.265C381.824 490.265 383.308 515.846 377.055 513.61C360.419 507.631 363.773 510.826 358.388 484.263C357.087 477.896 330.022 451.128 346.886 426.117L346.909 426.163Z" fill="#FFFBC7"/>
<path d="M346.909 426.163C374.408 385.406 366.215 302.865 350.971 232.511C342.414 193.009 411.057 159.486 465.643 159.646C546.677 159.874 601.195 151.499 592.979 170.805C584.741 190.111 483.762 218.134 483.762 218.134C483.762 218.134 600.465 199.878 598.936 224.775C597.407 249.694 491.612 272.56 491.612 272.56C491.612 272.56 600.259 261.196 581.615 288.854C562.971 316.512 476.596 320.346 476.596 320.346C476.596 320.346 575.066 312.975 550.511 336.799C525.957 360.623 461.809 363.75 461.809 363.75C461.809 363.75 531.981 365.667 520.754 379.039C509.526 392.412 443.713 397.546 443.713 397.546C443.713 397.546 500.352 400.65 486.569 412.996C472.786 425.341 436.912 426.003 436.912 426.003C436.912 426.003 472.945 441.43 461.969 450.444C450.992 459.458 413.704 450.946 413.704 450.946C413.704 450.946 441.248 468.358 433.17 475.249C425.091 482.141 395.083 471.758 395.083 471.758C395.083 471.758 417.013 495.856 408.615 499.074C400.217 502.291 381.824 490.265 381.824 490.265C381.824 490.265 383.308 515.846 377.055 513.61C360.419 507.631 363.773 510.826 358.388 484.263C357.087 477.896 330.022 451.128 346.886 426.117L346.909 426.163Z" fill="#FFFBC7"/>
<path d="M415.37 265.03C433.649 199.764 522.762 187.647 584.627 159.989C566.462 155.721 522.625 159.806 465.643 159.646C411.057 159.487 342.391 193.01 350.971 232.511C366.215 302.866 374.407 385.407 346.909 426.164C336.572 441.476 342.733 457.427 349.328 468.974C400.377 424.452 396.748 331.232 415.37 265.03Z" fill="#DDD9AC"/>
<path d="M465.483 158.574L465.825 160.696C483.146 158.003 581.341 153.782 591.61 166.972C592.432 168.021 592.569 169.094 592.021 170.372C584.102 188.97 492.981 214.21 482.21 217.085C471.462 219.983 482.667 219.184 482.667 219.184C483.625 219.025 579.128 204.511 595.649 219.549C597.27 221.033 598.023 222.721 597.886 224.707C596.425 248.531 508.75 266.696 493.78 270.507C478.81 274.295 491.772 273.633 491.772 273.633C514.318 271.283 574.495 267.883 582.003 280.342C582.505 281.164 582.756 282.054 582.756 283.012C582.756 284.564 582.094 286.299 580.771 288.238C565.39 311.058 501.813 317.448 482.393 318.863C479.632 319.023 477.897 319.251 473.082 319.799C468.267 320.369 476.688 321.373 476.688 321.373C477.235 321.35 479.769 321.213 483.488 320.94C506.308 319.707 548.959 319.319 553.113 328.539C553.98 330.478 552.884 332.989 549.804 335.955C525.82 359.232 472.443 361.947 461.809 362.609C451.175 363.271 461.809 364.754 461.809 364.754C483.853 365.348 517.741 368.679 520.754 375.366C521.005 375.913 521.187 376.803 519.978 378.264C509.184 391.134 452.361 395.447 443.667 396.383C434.972 397.319 443.69 398.528 443.69 398.528C459.595 399.395 485.588 402.91 487.573 408.592C487.915 409.596 487.345 410.783 485.884 412.106C472.557 424.041 441.91 424.041 436.935 424.84C431.937 425.661 436.524 426.917 436.524 426.917C443.553 429.929 462.014 439.217 462.973 445.994C463.155 447.318 462.631 448.459 461.33 449.531C450.878 458.112 420.984 451.38 413.978 449.828C406.972 448.253 413.156 451.791 413.156 451.791C418.702 455.305 433.17 465.711 433.603 471.827C433.672 472.854 433.329 473.675 432.508 474.383C426.278 479.7 401.176 471.872 395.471 470.709C389.766 469.522 394.33 472.443 394.33 472.443C398.939 477.509 410.623 491.749 409.437 496.769C409.3 497.385 408.935 497.773 408.296 498.024C400.514 500.991 385.407 491.794 384.061 489.102C382.714 486.409 380.158 482.552 380.683 489.102C381.208 495.651 380.957 510.507 378.333 512.469C378.15 512.606 377.899 512.72 377.488 512.561C361.72 506.879 361.309 491.315 359.529 484.127C357.749 476.938 357.384 484.309 357.384 484.309C357.475 485.291 359.164 511.83 376.233 517.969C381.71 519.954 383.947 515.39 383.057 492.205C390.519 500.101 403.207 504.368 410.578 501.561C414.252 500.169 414.548 492.753 398.483 473.926C406.881 476.482 428.811 483.077 435.589 477.304C439.947 473.561 436.159 465.277 418.816 453.023C429.587 455.008 455.853 459.755 464.684 452.498C469.773 448.345 468.975 439.924 441.453 426.848C482.986 424.338 495.492 413.909 493.21 407.428C491.064 401.312 468.746 398.779 455.807 397.41C516.007 390.724 526.025 384.38 526.025 376.347C526.025 371.167 519.384 366.352 477.19 363.408C544.806 355.352 558.544 341.888 558.544 330.136C558.544 324.34 554.025 318.361 509.663 318.087C578.785 308.16 588.781 295.427 588.781 283.058C588.781 273.816 575.362 265.441 506.012 270.233C575.75 252.844 603.317 242.666 603.317 224.593C603.317 210.809 584.97 203.94 498.23 214.985C587.868 187.921 598.479 182.079 598.479 167.816C598.479 157.068 548.275 145.68 465.529 158.505L465.483 158.574Z" fill="#0E141B"/>
<path d="M416.716 154.215L410.783 157.09L410.965 158.209C413.156 172.494 415.438 187.281 420.481 202.115L420.938 203.278L422.284 202.685C480.521 176.875 562.788 152.526 633.325 143.216C647.04 141.413 641.586 140.386 632.618 138.355C554.71 120.806 473.379 134.841 416.739 154.215H416.716Z" fill="#0E141B"/>
<path d="M625.339 141.459C626.845 141.847 512.858 155.562 422.604 199.856C418.086 186.095 415.849 172.312 413.795 158.939C468.29 140.432 556.695 123.864 625.339 141.459Z" fill="#FFFBC7"/>
<path d="M290.908 420.824C297.298 454.187 318.818 484.537 339.242 474.588C357.886 465.505 372.719 414.274 382.417 390.518C392.116 366.762 376.416 279.544 374.681 266.696C372.924 253.848 368.315 236.277 386.799 221.033C400.491 209.759 433.945 195.36 473.014 181.873C461.467 181.326 442.8 181.44 442.8 181.44C442.8 181.44 466.213 171.787 481.046 166.652C471.074 161.791 447.98 159.989 447.98 159.989C447.98 159.989 470.412 154.192 479.403 147.689C475.935 144.768 472.146 143.216 468.13 142.349C415.073 153.987 373.791 172.38 360.259 179.363C334.176 192.804 321.921 215.556 326.234 229.408C330.547 243.282 351.793 337.438 352.957 357.771C354.12 378.104 330.547 406.196 319.89 418.884C319.89 418.884 284.564 387.438 290.954 420.801L290.908 420.824Z" fill="#BF794E"/>
<path d="M442.777 181.462C442.777 181.462 445.241 180.435 449.075 178.906C401.267 192.028 347.617 195.633 351.679 250.699C357.064 320.711 393.166 425.684 320.461 463.383C317.722 464.752 312.382 463.383 307.544 461.055C316.695 473.492 328.128 480.042 339.219 474.633C357.863 465.551 372.696 414.319 382.395 390.564C392.093 366.808 376.393 279.589 374.659 266.741C372.901 253.893 368.292 236.322 386.776 221.078C400.468 209.805 433.923 195.405 472.991 181.919C461.444 181.371 442.777 181.485 442.777 181.485V181.462Z" fill="#985E3B"/>
<path d="M464.068 139.633C414.389 150.541 368.223 170.121 351.405 178.769C324.386 192.69 316.65 210.763 320.506 228.974C323.45 242.917 350.424 338.009 351.565 357.885C352.706 377.693 322.674 413.932 318.818 418.062C314.961 422.192 313.569 425.661 320.871 419.796C328.197 413.932 354.28 379.975 354.28 359.3C354.28 358.775 354.28 358.25 354.234 357.748C353.048 337.028 339.766 283.172 337.005 267.723C334.244 252.273 326.759 234.063 326.668 223.588C326.508 204.807 338.374 192.165 360.807 180.595C377.465 172.015 418.222 153.873 467.468 143.033C470.846 143.786 477.555 145.863 476.802 147.688C476.049 149.514 455.876 156.132 447.592 158.71C439.285 161.312 447.82 161.358 447.82 161.358C448.025 161.358 466.464 162.887 477.167 166.606C462.516 171.855 442.457 180.116 442.229 180.207C442.229 180.207 432.713 183.379 442.754 182.809C452.795 182.215 453.639 182.649 464.319 182.9C424.84 196.843 396.315 209.349 384.197 219.344C372.559 228.928 369.364 234.474 369.798 249.261C370.756 282.259 384.175 336.206 384.175 365.325C384.175 375.799 383.307 384.608 381.117 390.016L374.362 408.021C365.759 431.777 353.983 464.273 339.995 471.644C334.815 474.382 328.995 475.592 322.629 472.397C310.648 466.395 300.105 451.904 291.73 421.645C289.014 411.878 287.326 411.148 288.421 423.288C289.516 435.428 305.08 470.343 320.461 478.033C327.626 481.639 336.503 478.307 342.505 475.158C357.429 467.308 368.429 434.447 377.648 408.957L384.357 391.043C386.685 385.361 386.822 376.164 386.822 365.279C386.822 335.75 374.453 270.005 374.157 249.854C374.02 240.749 376.781 231.005 387.598 222.105C400.172 211.745 430.568 197.573 473.356 182.831L476.733 180.207C469.591 179.865 456.149 180.139 449.623 180.139C457.61 176.921 477.715 168.888 481.434 167.976C485.154 167.063 481.571 165.488 481.571 165.488C474.839 162.202 462.676 160.331 454.986 159.418C462.402 157.182 484.583 150.404 481.434 146.137C478.308 141.869 464.022 139.656 464.022 139.656L464.068 139.633Z" fill="#0E141B"/>
<path d="M354.531 581.364C369.296 596.813 372.673 609.318 372.97 626.936C375.161 622.554 376.302 621.025 378.105 616.644C379.405 620.409 380.158 626.685 380.318 630.61C384.243 628.259 386.023 621.139 390.131 619.177C392.641 626.365 390.222 635.06 392.55 642.659C393.052 637.707 397.479 630.747 401.062 627.21C402.613 631.842 401.997 637.752 403.23 642.796C406.539 635.128 412.335 628.784 415.804 621.276C417.606 627.894 416.899 634.786 418.428 641.472C421.463 633.029 428.971 627.757 435.406 622.098C434.516 597.703 443.484 582.733 452.544 566.919C476.802 524.541 339.744 565.892 354.508 581.341L354.531 581.364Z" fill="#FFFBC7"/>
<path d="M447.455 573.079C442.64 582.755 434.037 601.742 434.037 620.294C434.037 620.705 431.481 623.717 431.481 623.717C426.848 627.642 422.17 631.773 419.112 637.136C418.907 635.379 418.245 625.954 417.127 620.933C415.986 615.913 414.594 620.728 414.594 620.728C412.974 624.242 405.397 635.903 403.937 638.596C403.823 637.546 402.887 631.522 402.362 626.798C401.837 622.074 400.149 626.25 400.149 626.25C397.547 628.806 394.74 632.937 392.96 636.953C392.801 634.968 391.614 620.203 391.431 618.72C391.226 617.236 392.025 615.867 389.583 617.944C387.141 620.021 382.326 626.661 381.482 627.665C381.14 623.809 380.615 615.936 379.953 612.855C379.291 609.797 376.142 619.267 374.134 621.778C373.358 607.196 366.626 589.647 355.376 580.291C350.081 575.886 343.235 573.125 353.71 582.413C362.244 589.966 369.068 611.417 371.076 621.823C372.354 628.487 373.563 629.833 376.165 624.014C376.826 622.508 377.465 621.116 377.739 620.523C378.401 623.786 379.223 625.087 378.994 630.678C378.743 636.246 379.953 633.439 381.025 631.773C382.098 630.107 388.145 622.782 389.286 621.686C389.811 624.037 390.017 633.85 390.701 639.669C391.226 644.21 392.55 646.652 394.74 639.532C396.018 635.401 397.89 633.119 400.377 630.153C400.582 631.316 401.313 635.607 401.701 639.098C402.499 646.013 403.503 644.963 406.31 639.737C409.596 633.576 414.115 627.3 415.256 625.292C415.53 627.072 416.146 634.58 416.762 639.144C417.287 643.115 419.089 642.361 421.326 639.212C426.05 632.594 437.551 625.109 438.76 620.888C440.13 616.05 441.567 593.252 451.175 573.49C452.977 569.793 454.255 567.352 456.127 563.997C457.998 560.642 456.127 558.223 454.255 561.007C452.384 563.792 448.801 570.592 447.546 573.102L447.455 573.079Z" fill="#0E141B"/>
<path d="M112.249 596.63C108.575 602.883 106.384 608.93 107.891 615.981C109.077 621.618 109.579 619.564 114.463 615.069C125.964 604.48 136.051 601.742 140.546 600.167C145.042 598.615 144.7 586.201 138.743 583.052C134.43 580.77 118.205 586.452 112.226 596.607L112.249 596.63Z" fill="#0E141B"/>
<path d="M110.218 616.279C109.488 611.053 110.469 590.652 135.936 585.586C138.447 586.225 144.38 593.299 138.789 598.069C125.827 601.263 115.375 609.889 110.218 616.279Z" fill="white"/>
<path d="M117.84 608.771C123.34 604.321 130.551 600.1 138.789 598.069C141.185 596.038 141.459 593.573 140.797 591.359C130.916 593.641 123.408 600.465 117.84 608.771Z" fill="#DCDDDD"/>
<path d="M134.065 554.139C127.744 557.722 122.86 561.853 120.624 568.721C118.844 574.198 120.282 572.669 126.785 571.209C142.052 567.786 152.139 570.433 156.817 571.346C161.495 572.236 167.382 561.328 163.822 555.623C161.221 551.492 144.334 548.32 134.065 554.139Z" fill="#0E141B"/>
<path d="M122.472 570.136C124.458 565.253 135.48 548.069 160.103 556.398C161.951 558.201 163.571 567.306 156.337 568.653C143.512 564.933 130.14 567.192 122.472 570.159V570.136Z" fill="white"/>
<path d="M125.302 569.201C133.175 566.782 144.95 565.344 156.337 568.653C159.486 568.06 160.947 566.006 161.449 563.724C148.829 560.369 136.233 562.994 125.302 569.178V569.201Z" fill="#DCDDDD"/>
<path d="M167.383 557.47C161.404 561.601 156.908 566.165 155.311 573.216C154.033 578.83 155.334 577.187 161.655 575.133C176.534 570.341 186.848 572.075 191.595 572.555C196.342 573.034 201.225 561.624 197.14 556.261C194.174 552.382 177.081 550.738 167.383 557.47Z" fill="#0E141B"/>
<path d="M157.296 574.449C158.825 569.406 168.25 551.286 193.512 557.379C195.52 559 197.939 567.922 190.865 569.908C177.743 567.352 164.644 570.82 157.296 574.472V574.449Z" fill="white"/>
<path d="M166.059 571.207C173.156 569.222 181.988 568.172 190.887 569.884C192.987 569.29 194.219 568.104 194.904 566.666C184.886 566.894 174.982 567.967 166.059 571.207Z" fill="#DCDDDD"/>
<path d="M247.55 708.426C245.953 708.608 244.492 710.32 244.287 711.78C242.986 720.863 231.097 727.07 223.041 731.314C219.687 733.071 219.869 733.117 223.178 734.623C226.487 736.129 233.196 738.001 240.681 736.494C249.992 734.623 261.767 727.754 262.771 720.634C264.437 708.745 252.319 707.924 247.55 708.426Z" fill="#0E141B"/>
<path d="M257.294 713.993C259.759 716.321 260.033 719.333 260.055 720.2C254.099 729.785 245.04 732.888 240.133 733.869C234.154 735.079 228.929 734.394 225.46 733.025C235.022 729.283 246.409 719.881 246.979 711.14C251.543 710.935 255.012 711.893 257.271 714.016L257.294 713.993Z" fill="white"/>
<path d="M260.079 720.201C260.056 719.334 259.759 716.322 257.317 713.994C256.815 713.515 256.245 713.127 255.629 712.762C253.096 721.593 248.121 728.234 241.754 733.482C246.843 732.182 254.716 728.827 260.079 720.178V720.201Z" fill="#DCDDDD"/>
<path d="M215.1 617.876C211.426 624.129 209.235 630.176 210.741 637.228C211.928 642.864 212.43 640.81 217.313 636.315C228.815 625.726 238.901 622.988 243.397 621.413C247.892 619.861 247.55 607.447 241.594 604.298C237.281 602.016 221.056 607.698 215.077 617.876H215.1Z" fill="#0E141B"/>
<path d="M213.046 637.523C212.316 632.297 213.297 611.896 238.787 606.83C241.297 607.469 247.231 614.543 241.64 619.313C228.678 622.508 218.226 631.134 213.069 637.523H213.046Z" fill="white"/>
<path d="M242.461 610.117C232.443 617.236 221.033 624.379 212.977 633.553C212.886 635.219 212.955 636.634 213.069 637.524C218.226 631.134 228.678 622.485 241.64 619.313C244.994 616.438 244.173 612.741 242.461 610.094V610.117Z" fill="#DCDDDD"/>
<path d="M237.76 578.807C231.439 582.39 226.533 586.521 224.319 593.39C222.539 598.866 223.977 597.337 230.481 595.877C245.747 592.454 255.834 595.124 260.512 596.014C265.19 596.927 271.078 585.996 267.518 580.291C264.916 576.16 248.029 572.966 237.76 578.807Z" fill="#0E141B"/>
<path d="M226.167 594.783C228.153 589.899 239.175 572.715 263.798 581.045C265.646 582.848 267.267 591.953 260.033 593.299C247.208 589.58 233.835 591.839 226.167 594.805V594.783Z" fill="white"/>
<path d="M226.578 593.868C226.419 594.21 226.259 594.53 226.167 594.781C233.835 591.837 247.208 589.555 260.033 593.275C264.688 592.408 265.669 588.3 265.281 585.037C251.589 582.23 238.011 585.858 226.578 593.845V593.868Z" fill="#DCDDDD"/>
<path d="M277.034 581.273C271.055 585.403 266.559 589.967 264.962 596.996C263.684 602.609 264.985 600.966 271.306 598.913C286.184 594.12 296.499 595.855 301.223 596.334C305.97 596.813 310.853 585.403 306.768 580.04C303.802 576.161 286.709 574.518 277.011 581.25L277.034 581.273Z" fill="#0E141B"/>
<path d="M266.947 598.227C268.476 593.184 277.901 575.065 303.163 581.158C305.171 582.778 307.59 591.701 300.516 593.686C287.394 591.13 274.295 594.599 266.947 598.25V598.227Z" fill="white"/>
<path d="M270.621 596.676C278.243 593.732 289.356 591.519 300.538 593.71C304.988 592.454 305.673 588.461 305.08 585.266C292.528 584.445 280.137 588.94 270.621 596.676Z" fill="#DCDDDD"/>
<path d="M334.518 732.866C334.678 742.953 321.739 749.73 313.135 754.249C309.781 756.006 309.963 756.051 313.272 757.558C316.581 759.064 323.29 760.935 330.775 759.429C340.086 757.558 351.861 750.689 352.865 743.569C355.056 727.96 337.69 729.511 334.495 732.866H334.518Z" fill="#0E141B"/>
<path d="M347.411 736.95C349.876 739.278 350.15 742.29 350.173 743.157C344.217 752.742 335.157 755.845 330.251 756.826C324.272 758.036 319.046 757.351 315.577 755.982C325.139 752.24 336.526 742.838 337.097 734.097C341.661 733.892 345.129 734.851 347.389 736.973L347.411 736.95Z" fill="white"/>
<path d="M347.411 736.95C347.138 736.676 346.772 736.494 346.453 736.266C341.798 743.842 335.864 751.236 328.813 757.055C329.292 756.986 329.771 756.918 330.273 756.804C335.18 755.823 344.217 752.719 350.195 743.135C350.15 742.267 349.876 739.255 347.434 736.927L347.411 736.95Z" fill="#DCDDDD"/>
</g>
<defs>
<clipPath id="clip0_42_59823">
<rect width="641.704" height="720" fill="white" transform="translate(79 40)"/>
</clipPath>
</defs>
</svg>
