<svg width="800" height="800" viewBox="0 0 800 800" fill="none" xmlns="http://www.w3.org/2000/svg">
<g clip-path="url(#clip0_42_59951)">
<path d="M441.068 682.142C443.505 686.476 444.231 689.1 450.37 691.555C456.231 693.899 464.156 700.746 466.295 705.155C461.533 703.871 455.133 702.476 451.3 702.718C456.417 708.299 462.686 716.094 463.747 723.535C456.417 719.108 449.105 714.01 438.166 711.555C441.31 716.894 443.97 722.717 444.566 727.833C439.338 724.224 431.078 720.168 427.357 718.884C423.636 717.601 416.771 716.317 415.153 713.768C413.534 711.22 402.986 699.443 400.512 692.727C399.693 690.513 403.525 688.076 408.995 686.569C414.465 685.062 432.008 679.016 435.729 679.946C438.799 680.709 440.324 681.565 441.068 682.16V682.142Z" fill="#FFFCDB"/>
<path d="M470.481 586.684C455.375 585.066 420.251 586.684 402.819 589.698C397.386 614.683 393.852 650.142 398.409 685.044C399.098 690.383 399.805 693.415 402.13 696.894C404.828 692.504 409.46 690.271 413.981 691.778C418.595 693.322 422.037 692.336 424.362 689.229C428.604 683.574 435.897 681.806 442.352 685.285C440.957 682.272 439.729 675.276 441.422 668.542C446.538 648.319 463.747 597.623 470.481 586.684Z" fill="#924998"/>
<path d="M413.981 691.798C409.664 690.366 405.274 692.356 402.539 696.319C405.032 700.505 408.251 704.151 410.26 707.37C413.367 712.337 419.245 716.672 425.292 718.532C431.338 720.392 433.664 720.392 443.896 726.904C443.579 723.797 441.421 718.216 438.315 711.555C445.756 713.1 456.453 718.383 463.43 723.183C456.602 711.407 443.896 704.263 430.259 699.612C427.301 698.607 425.329 695.11 424.12 689.51C421.794 692.375 418.445 693.249 413.981 691.779V691.798Z" fill="#DDDABE"/>
<path d="M409.944 587.076C406.372 589.085 401.256 594.666 398.93 604.433C396.53 614.554 394.279 668.152 399.395 689.081C400.028 691.667 401.181 694.067 402.521 696.318C405.255 692.337 409.646 690.346 413.962 691.798C418.408 693.286 421.757 692.393 424.101 689.528C423.692 687.612 423.357 685.435 423.115 683.035C420.269 654.645 420.213 647.353 426.52 618.237C429.757 603.28 454.742 592.341 466.835 594.052C467.448 591.262 468.546 589.55 469.625 586.294C459.393 584.583 413.497 585.048 409.944 587.076Z" fill="#7F3D84"/>
<path d="M164.836 562.89C174.138 562.276 184.854 556.062 188.556 550.016C191.31 545.514 194.919 542.425 197.542 541.03C200.165 539.635 204.742 538.24 208.388 537.774C200.63 530.649 188.24 505.218 186.677 499.785C173.227 507.562 159.627 514.892 146.065 516.845C141.73 517.459 142.121 518.705 144.353 521.031C148.688 525.533 163.571 526.761 169.785 525.682C162.343 534.668 154.12 541.105 144.818 544.602C139.851 546.463 145.432 547.709 147.758 547.858C154.753 548.286 168.073 546.332 175.05 542.593C174.25 548.081 168.371 556.006 164.669 559.485C162.027 561.96 163.274 563.001 164.818 562.89H164.836Z" fill="#FFFCDB"/>
<path d="M178.473 504.752C183.775 501.217 190.603 506.464 190.249 513.273C189.505 528.212 192.538 533.235 203.886 538.704C199.161 539.858 193.784 542.797 190.547 547.392C188.222 532.193 179.143 516.454 163.571 511.729C168.687 509.552 174.734 507.226 178.454 504.752H178.473Z" fill="#DDDABE"/>
<path d="M575.836 430.876C586.868 416.104 609.434 406.765 630.941 412.272C646.717 416.309 646.587 419.137 644.429 432.029C641.88 447.378 626.066 471.321 614.197 477.609C605.602 461.796 592.337 441.331 575.594 431.099" fill="#924998"/>
<path d="M524.675 416.699C517.419 385.296 495.373 351.716 473.29 336.702C451.561 321.931 448.343 323.103 437.72 336.702C424.008 354.246 415.172 394.375 414.93 420.178C414.725 442.708 416.772 447.08 429.571 451.098C445.217 456.028 461.626 457.944 476.546 457.368C487.764 456.94 527.465 428.773 524.675 416.681V416.699Z" fill="#924998"/>
<path d="M446.538 664.597C451.859 645.007 449.477 623.315 443.989 611.111C438.408 608.32 430.743 607.855 427.022 612.971C423.302 618.087 418.427 618.776 414 617.846C409.572 616.915 407.488 618.069 406.8 620.636C413.2 629.938 411.6 645.324 409.59 654.812C408.4 660.43 410.149 658.96 413.311 657.137C418.632 654.049 422.818 649.77 424.474 644.821C425.46 652.449 425.311 659.444 424.25 666.681C423.804 669.732 424.622 670.904 427.264 668.3C432.604 663.09 437.701 654.719 438.892 647.835C442.612 655.965 445.868 663.872 446.557 664.579L446.538 664.597Z" fill="#FFFCDB"/>
<path d="M264.052 554.369C267.586 552.137 284.237 551.17 292.106 553.123C297.111 554.369 299.734 561.048 298.469 565.997C290.99 595.168 275.084 603.317 273.967 601.661C273.354 600.731 275.214 595.149 276.442 591.745C273.167 595.112 265.875 601.586 260.294 603.875C257.447 605.047 256.647 604.061 257.689 601.977C258.303 600.731 265.596 586.778 265.596 581.978C259.866 586.945 252.257 591.28 249.317 591.596C246.378 591.912 245.764 590.87 247.457 588.805C250.861 584.62 262.656 564.471 264.052 554.388V554.369Z" fill="#FFFCDB"/>
<path d="M262.972 558.704C266.842 555.913 273.483 554.853 276.925 555.448C282.358 556.379 297.706 560.099 298.785 560.881C299.864 561.662 302.357 544.751 298.003 538.556C295.827 535.449 290.711 534.221 285.595 534.519C280.479 534.835 268.07 541.346 265.447 542.277C265.763 546.463 264.665 553.123 262.972 558.704Z" fill="#7F3D84"/>
<path d="M566.571 524.435C570.831 523.338 572.412 524.119 575.37 525.979C585.249 532.212 594.235 539.821 601.639 544.118C616.076 552.472 624.578 550.537 634.196 541.793C639.312 537.142 642.624 533.049 644.428 526.445C645.321 523.17 642.363 523.021 639.387 524.119C634.568 525.886 625.899 523.338 621.248 515.896C614.309 504.79 601.621 496.697 588.375 492.79C580.449 490.446 569.771 485.497 562.329 480.381C553.864 474.558 519.856 468.102 494.424 467.042C477.681 466.354 461.44 477.814 452.621 498.836C446.612 513.124 440.454 527.672 436.064 530.128C428.157 534.537 359.099 536.863 343.509 527.338C327.919 517.812 324.217 516.417 320.961 513.85C311.231 521.254 275.716 540.044 266.786 540.584C284.553 572.638 323.193 593.326 365.387 591.968C394.447 591.038 411.432 586.387 438.836 585.401C454.984 584.824 472.453 585.159 478.165 587.54C485.457 591.8 497.903 602.646 502.796 608.47C507.689 614.293 512.805 617.79 521.196 621.716C530.851 626.255 543.855 628.153 549.325 624.041C551.836 622.162 552.581 618.925 551.408 615.893C546.571 618.627 536.079 616.916 528.395 611.483C516.935 603.372 509.922 584.601 511.894 564.285C512.396 559.095 514.628 555.764 518.87 552.434C523.93 548.453 552.915 527.914 566.589 524.379L566.571 524.435Z" fill="#FFFCDB"/>
<path d="M274.916 452.047C238.992 447.415 214.192 429.704 192.742 406.467C162.976 374.208 143.758 315.308 150.883 272.816C157.115 235.683 171.534 210.53 195.216 213.916C219.085 217.321 231.81 247.087 228.704 267.551C221.615 314.359 194.9 311.587 187.775 303.829C185.766 336.014 190.379 358.246 203.904 382.58C222.508 416.067 261.261 439.936 285.446 441.499C279.865 446.15 278.934 448.326 274.897 452.047H274.916Z" fill="#924998"/>
<path d="M179.105 504.436C187.477 498.855 198.956 487.078 202.36 483.972C209.486 477.497 215.086 476.623 222.825 482.427C231.904 489.236 237.727 488.939 247.475 482.111C251.68 479.172 263.754 466.912 273.056 455.452C299.622 422.671 329.798 418.858 356.16 434.671C360.811 437.462 374.764 448.624 379.731 454.521C384.698 460.419 392.754 466.614 397.405 468.158C402.056 469.702 417.255 474.986 422.52 477.46C432.864 433.555 461.384 408.96 496.936 406.765C541.604 404.012 570.459 421.388 594.607 449.554C613.211 471.265 617.546 483.358 621.583 488.009C623.09 489.739 624.652 492.213 625.917 493.441C626.401 493.906 630.885 496.585 634.605 497.311C646.177 499.599 649.303 501.72 648.242 511.264C647.628 516.845 647.275 522.259 645.377 526.463C641.973 533.905 628.001 533.235 620.727 524.603C613.211 515.654 605.155 507.636 593.528 502.389C581.863 497.125 568.729 494.446 567.259 489.032C566.106 484.809 526.758 480.027 508.731 476.549C484.174 471.823 452.919 487.171 452.919 516.547C452.919 535.058 446.575 544.007 419.748 547.56C382.521 552.471 325.333 544.062 310.598 522.128C265.967 548.602 232.071 547.69 213.709 533.905C211.067 536.23 207.514 538.091 203.626 538.556C194.472 537.477 187.589 529.272 189.207 519.17C190.64 510.278 187.421 504.436 179.124 504.436H179.105Z" fill="#924998"/>
<path d="M623.89 490.185C631.331 484.455 647.182 479.599 657.693 481.348C650.865 484.92 635.517 493.125 633.508 496.38C630.401 495.599 626.68 494.52 625.917 493.59C625.136 492.659 624.838 491.878 623.908 490.185H623.89Z" fill="#DDDABE"/>
<path d="M595.984 449.722C602.96 437.015 617.285 431.75 625.899 432.829C630.699 438.559 618.774 462.447 608.69 467.098C604.504 461.052 601.863 456.717 595.984 449.74V449.722Z" fill="#FEEBBE"/>
<path d="M499.392 414.058C494.889 393.444 477.848 367.083 466.053 358.711C457.012 352.292 453.812 352.051 448.379 359.79C439.319 372.738 430.259 404.532 430.854 426.764C431.003 432.494 432.715 433.741 437.05 435.452C442.947 437.778 461.7 440.885 470.853 441.182C478.76 441.443 479.113 440.736 481.402 436.68C485.699 429.09 493.382 419.081 499.392 414.039V414.058Z" fill="#FEEBBE"/>
<path d="M566.999 490.409C563.52 472.047 539.781 447.62 521.196 442.969C512.284 452.903 509.066 459.973 507.95 474.596C507.726 477.609 509.568 478.316 513.754 478.781C525.865 480.121 549.567 485.516 566.999 490.409Z" fill="white"/>
<path d="M567.352 490.52C562.143 476.381 552.897 462.224 541.883 454.819C533.139 456.773 527.874 469.647 530.367 481.683C543.037 483.972 554.218 486.744 567.334 490.52H567.352Z" fill="#BB0132"/>
<path d="M599.872 543.206C595.891 539.709 574.794 524.398 570.422 523.672C564.748 522.723 529.623 544.192 520.191 551.262C512.75 556.843 511.726 562.406 511.819 569.866C512.136 592.507 518.554 609.027 534.758 614.832C539.093 616.376 547.167 617.622 550.572 617.008C549.325 600.581 550.572 580.73 551.502 575.149C553.548 562.852 562.887 556.396 570.422 551.578C578.18 546.611 590.57 543.206 599.872 543.206Z" fill="#933000"/>
<path d="M532.898 542.574C551.725 552.899 561.324 596.396 549.957 616.99C536.19 618.609 523.316 611.576 516.154 596.526C510.498 584.638 510.424 561.625 513.68 557.141C516.154 553.737 527.019 546.295 532.898 542.574Z" fill="#EE869A"/>
<path d="M569.473 522.892C580.17 527.691 590.403 535.914 595.668 540.417C603.258 546.891 615.518 551.43 621.248 549.253C619.071 558.555 611.89 573.904 607.611 579.336C604.653 583.075 603.686 583.522 596.449 582.908C589.156 582.294 583.277 581.196 580.17 580.266C577.064 579.336 575.947 577.457 576.301 573.606C577.212 563.616 573.547 532.77 569.473 522.91V522.892Z" fill="white"/>
<path d="M267.158 541.031C274.6 539.17 277.707 537.924 282.041 535.766C299.399 574.834 357.704 584.88 421.199 576.918C448.938 573.439 461.886 573.011 476.155 585.996C462.593 585.029 443.784 585.103 432.12 585.996C420.027 586.927 373.889 592.991 358.02 592.508C316.031 591.187 280.423 568.081 267.177 541.049L267.158 541.031Z" fill="#DDDABE"/>
<path d="M419.097 510.947C417.553 520.863 414.688 561.085 417.553 571.726C429.962 584.749 442.352 600.246 445.143 613.902C439.413 608.953 431.525 608.283 425.925 614.516C423.134 617.623 419.339 618.999 415.079 618.553C410.614 618.069 407.488 619.167 407.023 621.957C400.512 612.655 393.107 607.744 382.522 600.563C366.876 589.958 358.374 579.708 356.16 557.16C354.616 541.346 355.844 518.407 359.881 503.822C363.918 489.255 381.275 485.534 393.052 488.009C404.828 490.483 420.92 499.283 419.097 510.947Z" fill="#924998"/>
<path d="M490.406 423.211C484.286 410.226 478.965 400.049 467.002 388.105C458.203 379.306 450.036 381.836 446.687 393.147C442.408 407.621 441.068 413.816 439.859 436.178C436.994 435.713 430.874 433.983 430.874 431.583C430.874 405.221 437.459 379.417 448.398 359.809C453.384 350.879 460.435 353.242 466.537 359.344C482.593 375.399 494.127 392.124 499.411 414.077C497.029 416.011 491.783 421.518 490.425 423.23L490.406 423.211Z" fill="#DBCBA6"/>
<path d="M595.519 449.555C604.002 438.095 613.137 432.476 625.899 432.811C628.262 437.685 626.717 443.118 623.108 449.238C614.625 446.652 607.351 450.317 602.179 458.075C600.635 455.899 597.677 452.178 595.519 449.555Z" fill="#DBCBA6"/>
<path d="M285.446 441.499C251.271 437.536 223.458 415.044 201.114 377.315C189.338 357.446 183.31 325.484 188.705 304.443C184.985 299.476 178.622 291.569 177.227 283.197C162.344 382.487 220.946 435.043 282.023 445.833C282.023 445.833 285.13 442.726 285.427 441.499H285.446Z" fill="#7F3D84"/>
<path d="M530.721 470.409C536.841 468.791 542.609 472.661 544.06 478.074C545.399 483.135 551.594 484.735 554.608 480.716C556.71 477.907 560.803 478.167 562.98 480.567C558.329 469.182 548.636 458.54 541.902 454.838C536.097 456.233 530.739 466.242 530.739 470.428L530.721 470.409Z" fill="#9A0025"/>
<path d="M555.595 475.767C554.72 479.376 552.116 482.26 548.86 481.348C546.367 480.66 544.786 477.33 546.2 472.363C547.353 468.307 549.902 465.889 553.157 467.042C556.134 468.102 556.45 472.214 555.595 475.767Z" fill="white"/>
<path d="M179.106 286.007C180.817 298.248 189.673 309.355 202.975 308.183C214.881 307.141 227.978 288.146 228.704 268.5C229.634 243.701 218.788 221.674 204.835 216.409C226.527 245.097 217.337 296.946 191.961 295.941C185.282 295.681 180.743 290.193 178.473 274.695C178.473 274.695 178.455 281.356 179.087 286.007H179.106Z" fill="#7F3D84"/>
<path d="M576.3 570.387C576.3 557.867 573.268 540.416 569.789 523.449C575.91 526.426 576.021 526.203 580.951 529.254C579.798 538.537 580.282 559.783 581.082 569.717C581.379 573.513 583.221 575.857 587.24 576.917C595.053 579.001 600.486 579.466 607.927 579.001C607.927 579.001 604.392 583.001 601.881 582.87C595.797 582.554 585.026 581.196 581.733 580.229C578.831 579.391 576.319 577.122 576.319 570.35L576.3 570.387Z" fill="#DCDDDD"/>
<path d="M264.516 557.941C267.772 556.229 273.669 554.071 276.925 555.15C281.427 560.731 292.869 570.647 296.459 572.508C295.213 577.773 293.985 579.949 290.264 586.777C286.078 575.615 273.204 568.024 259.103 568.489C260.498 565.234 263.288 559.969 264.535 557.941H264.516Z" fill="#DDDABE"/>
<path d="M205.839 509.254C200.909 499.729 205.039 483.692 215.941 478.892C211.346 477.776 207.197 479.581 202.36 483.99C198.956 487.097 187.477 498.873 179.105 504.454C187.384 504.454 190.621 510.296 189.189 519.189C187.57 529.291 194.454 537.476 203.607 538.574C207.477 538.109 211.049 536.249 213.69 533.923C231.438 547.244 263.679 548.527 306.115 524.714C262.209 537.197 221.355 539.169 205.858 509.273L205.839 509.254Z" fill="#7F3D84"/>
<path d="M533.344 542.426C545.232 553.644 550.404 564.434 553.808 580.415C543.52 554.965 524.712 554.704 511.484 572.36C510.703 561.811 512.731 557.16 518.312 552.509C521.717 549.663 528.544 545.068 533.344 542.426Z" fill="#CF7487"/>
<path d="M390.019 465.07C384.68 459.954 371.062 443.936 362.578 439.024C365.815 446.113 373.127 456.977 378.857 460.642C382.168 462.782 386.28 464.642 390.019 465.051V465.07Z" fill="#7F3D84"/>
<path d="M430.259 625.994C429.571 632.04 427.934 641.101 424.455 645.528C426.073 652.263 425.459 656.077 424.231 669.937C432.287 649.807 434.352 640.133 430.278 625.994H430.259Z" fill="#DDDABE"/>
<path d="M441.18 695.76C450.445 697.081 457.849 699.35 465.588 704.597C460.472 703.443 455.133 702.736 451.282 702.736C448.379 700.653 444.882 697.62 441.161 695.76H441.18Z" fill="#DDDABE"/>
<path d="M441.18 628.543C441.18 634.347 441.012 642.384 438.389 648.077C440.826 652.151 444.919 661.249 445.831 665.509C445.831 651.11 445.087 639.129 441.18 628.543Z" fill="#DDDABE"/>
<path d="M447.691 455.992C442.575 455.303 435.599 453.666 431.189 451.806C425.311 462.633 422.241 476.661 422.594 492.958C428.194 470.838 432.808 460.419 447.71 455.992H447.691Z" fill="#7F3D84"/>
<path d="M391.879 590.033C364.903 574.573 360.308 544.304 359.862 503.841C355.825 518.408 354.597 541.365 356.141 557.178C358.355 579.726 366.857 589.977 382.503 600.582C393.07 607.763 400.493 612.674 407.004 621.976C407.469 619.186 410.613 618.088 415.06 618.572C415.469 618.609 415.86 618.627 416.25 618.627C412.995 606.795 404.344 597.177 391.861 590.033H391.879Z" fill="#7F3D84"/>
<path d="M407.004 621.958C413.739 633.307 412.12 644.6 408.976 659.352C417.497 643.8 419.432 630.144 416.251 618.61C415.86 618.61 415.451 618.591 415.06 618.554C410.595 618.07 407.469 619.168 407.004 621.958Z" fill="#DDDABE"/>
<path d="M628.69 494.52C623.016 488.325 620.709 484.362 614.96 474.688C592.933 437.61 563.408 410.393 523.075 404.998C522.498 404.923 521.921 404.867 521.345 404.793C521.828 406.17 522.814 407.546 523.67 408.923C558.776 414.002 589.938 438.913 612.244 476.307C617.676 485.404 619.016 487.469 624.671 493.292C625.285 493.925 629.285 495.171 628.708 494.539L628.69 494.52Z" fill="#0E141B"/>
<path d="M427.767 455.284C423.971 463.675 419.841 478.242 421.181 492.046C421.59 496.232 422.911 495.208 423.041 491.692C423.599 475.749 425.683 467.972 430.799 456.698C431.487 455.154 432.232 453.684 432.994 452.215C432.101 452.066 431.208 450.819 430.297 450.112C429.404 451.805 428.567 453.535 427.767 455.303V455.284Z" fill="#0E141B"/>
<path d="M619.443 491.693C624.894 495.246 632.447 498.204 640.001 500.25C645.638 501.776 647.182 503.86 646.958 509.571C646.4 524.157 640.54 535.189 628.522 544.305C620.969 550.035 607.909 549.067 593.584 536.621C587.072 530.966 581.007 526.891 572.636 522.519C570.85 521.589 569.659 521.757 567.78 522.445C551.241 528.454 529.791 540.9 515.67 552.844C511.652 556.248 510.666 558.704 510.163 565.495C509.456 575.038 512.805 592.266 515.912 599.168C522.684 614.2 539.539 620.544 550.943 618.367C551.799 618.2 551.297 614.963 550.478 615.298C541.399 618.925 524.321 609.958 519.391 599.931C515.019 591.019 512.507 576.676 512.917 565.736C513.084 561.476 514.219 557.997 517.326 555.355C531.465 543.374 552.897 530.891 568.412 525.254C569.808 524.752 570.477 524.957 571.184 525.329C579.314 529.57 585.212 533.533 591.519 539.021C606.272 551.821 621.062 554.388 630.754 547.039C643.591 537.31 650.047 525.608 650.642 510.018C650.903 503.171 648.8 499.171 640.819 497.199C631.759 494.948 626.736 493.497 620.001 490.037C616.392 488.176 616.746 489.962 619.425 491.693H619.443Z" fill="#0E141B"/>
<path d="M567.799 524.659C571.966 534.835 574.961 562.108 574.682 573.996C574.589 577.661 576.97 580.88 580.226 581.475C586.589 582.666 596.467 583.968 602.253 583.875C605.342 583.819 607.76 581.531 609.9 578.815C615.816 571.336 620.746 560.099 622.792 549.513C622.96 548.658 619.853 548.062 619.685 548.918C617.732 559.039 613.044 569.736 607.425 576.843C605.174 579.689 603.667 580.973 602.253 580.973C597.1 580.973 587.779 580.098 580.803 578.461C579.11 578.071 577.789 576.154 577.845 574.071C578.161 560.657 575.203 532.23 570.626 523.207C570.236 522.426 567.482 523.84 567.799 524.64V524.659Z" fill="#0E141B"/>
<path d="M554.311 563.857C552.636 566.388 551.557 568.378 550.813 570.648C551.725 572.936 550.329 576.378 552.543 578.015C553.25 572.229 554.106 569.885 556.952 565.606C560.989 559.56 567.687 554.295 575.184 550.63C574.887 549.644 574.552 548.658 574.254 547.635C567.836 550.704 558.72 557.253 554.311 563.857Z" fill="#0E141B"/>
<path d="M532.376 543.597C551.65 559.709 557.883 593.717 548.711 617.027C548.394 617.846 550.869 618.962 551.241 618.181C562.794 593.735 554.571 557.867 534.088 541.57C533.4 541.03 531.707 543.039 532.376 543.597Z" fill="#0E141B"/>
<path d="M601.472 562.276C599.872 568.452 598.197 573.401 593.044 580.917C592.542 581.642 595.649 582.684 596.151 581.959C600.932 574.982 602.792 569.271 603.909 561.81C604.746 556.211 602.904 556.862 601.49 562.276H601.472Z" fill="#0E141B"/>
<path d="M460.026 577.42C473.756 583.448 492.415 598.703 504.62 612.433C514.666 623.744 536.823 630.813 547.967 626.999C553.195 625.214 555.483 617.604 551.613 614.181C550.962 613.605 549.269 616.73 549.92 617.307C551.427 618.646 549.771 622.758 545.362 623.688C534.144 626.069 515.838 620.302 506.982 610.33C497.327 599.466 475.207 580.62 462.798 576.062C458.24 574.387 455.505 575.448 460.007 577.42H460.026Z" fill="#0E141B"/>
<path d="M268.088 540.156C267.66 539.393 265.056 540.286 265.484 541.049C285.39 576.973 323.193 596.042 373.406 594.052C372.178 592.824 370.931 591.578 369.703 590.35C322.691 590.852 286.134 572.732 268.088 540.156Z" fill="#0E141B"/>
<path d="M479.244 586.889C470.816 583.745 450.891 582.964 428.492 584.527C429.794 585.68 431.115 586.443 431.748 587.801C451.487 586.517 471.802 586.703 480.49 590.127C481.309 590.443 480.062 587.206 479.244 586.908V586.889Z" fill="#0E141B"/>
<path d="M517.493 443.099C542.404 451.415 559.538 470.595 566.254 491.581C568.059 497.236 570.924 497.367 569.157 491.432C562.199 468.158 544.339 447.396 518.758 441.35C513.884 440.196 512.545 441.462 517.475 443.099H517.493Z" fill="#0E141B"/>
<path d="M519.856 443.359C509.624 452.345 507.001 459.601 506.35 472.921C506.127 477.516 506.778 479.73 510.629 480.121C528.489 481.926 550.888 487.414 566.534 491.711C567.371 491.934 567.594 489.274 566.757 489.014C550.609 483.916 531.242 479.73 511.95 477.126C509.364 476.772 508.713 476.195 508.861 473.74C509.475 463.508 513.791 451.638 521.884 444.345C522.535 443.769 520.526 442.783 519.875 443.359H519.856Z" fill="#0E141B"/>
<path d="M539.874 454.186C530.423 458.986 526.907 469.442 529.437 480.771C529.623 481.627 531.744 482.446 531.651 481.59C530.256 469.572 533.511 460.084 541.511 456.01C542.293 455.619 540.655 453.796 539.893 454.186H539.874Z" fill="#0E141B"/>
<path d="M613.192 511.841C615.908 513.013 617.043 514.464 617.918 517.05C618.811 519.692 619.815 520.101 619.852 517.627C619.908 513.98 617.341 510.817 613.974 510.148C610.811 509.497 610.55 510.706 613.192 511.859V511.841Z" fill="#0E141B"/>
<path d="M436.845 334.674C420.25 359.66 411.227 396.626 413.069 431.118C413.888 446.429 417.702 448.773 434.036 453.945C447.077 458.075 458.296 459.284 475.002 458.707C478.202 458.596 479.151 456.921 476.658 456.81C460.472 456.01 446.091 454.447 434.985 450.931C419.506 446.038 417.497 444.605 416.753 430.95C415.116 400.291 423.227 362.264 439.803 336.386C446.147 326.489 453.086 325.447 467.393 334.674C488.992 348.609 514.405 380.998 522.628 413.909C524.209 420.253 526.684 420.42 525.288 413.872C518.461 381.891 495.038 348.218 469.681 331.865C453.552 321.466 445.663 321.373 436.808 334.674H436.845Z" fill="#0E141B"/>
<path d="M449.18 355.734C435.729 375.064 429.869 401.872 429.125 429.369C428.994 433.908 431.376 435.043 435.041 436.252C445.626 439.787 460.175 442.261 473.979 442.875C479.355 443.117 480.9 441.35 482.593 438.094C485.718 432.122 493.625 420.755 498.759 416.774C499.801 420.29 502.499 422.783 501.215 415.546C497.457 394.189 482.611 370.208 466.184 356.757C459.412 351.213 452.733 350.599 449.18 355.716V355.734ZM474.109 439.731C460.584 439.117 446.352 436.699 436.027 433.257C432.604 432.122 432.213 431.731 432.287 429.462C433.013 402.579 439.766 372.924 451.729 357.688C454.073 354.692 459.114 355.064 464.193 359.232C479.039 371.399 493.364 394.356 497.941 413.853C491.671 418.448 483.579 429.443 479.802 436.661C478.425 439.303 477.365 439.899 474.128 439.75L474.109 439.731Z" fill="#0E141B"/>
<path d="M574.72 429.964C574.18 430.653 576.654 432.606 577.194 431.918C588.654 417.425 609.862 408.626 631.164 414.132C645.117 417.742 645.843 420.16 643.033 431.025C639.275 445.554 629.694 465.144 614.048 476.605C613.341 477.125 615.258 479.339 615.965 478.818C632.41 466.689 640.857 452.029 646.084 431.806C649.768 417.555 646.717 414.244 632.634 410.839C609.118 405.184 589.007 411.844 574.682 429.946L574.72 429.964Z" fill="#0E141B"/>
<path d="M629.638 431.304C614.718 430.318 601.453 436.067 594.477 449.61C594.086 450.392 596.895 451.843 597.286 451.062C603.983 438.076 617.155 433.741 630.717 433.741C635.982 433.741 634.14 431.602 629.638 431.304Z" fill="#0E141B"/>
<path d="M624.578 433.592C625.546 434.448 626.029 436.568 624.597 441.499C622.439 448.996 616.82 459.879 608.151 465.851C607.425 466.353 609.23 468.958 609.937 468.456C619.295 462.019 625.322 450.391 627.629 442.373C629.024 437.536 628.894 434.671 626.736 432.401C626.141 431.769 623.908 433.015 624.559 433.592H624.578Z" fill="#0E141B"/>
<path d="M655.982 479.897C644.782 479.563 632.094 481.702 622.941 489.162C622.271 489.72 624.262 491.897 624.932 491.357C632.392 485.293 645.973 481.423 656.186 481.628C649.21 483.879 638.252 489.795 632.113 495.469C631.759 495.804 634.085 497.422 634.755 496.864C641.191 491.581 649.768 486.502 657.154 483.414C662.177 481.311 659.795 480.028 655.982 479.897Z" fill="#0E141B"/>
<path d="M464.398 699.87C461.905 696.838 455.114 692.373 449.682 689.471C442.147 685.434 440.696 681.397 444.882 663.332C444.473 661.248 443.617 659.146 442.612 657.062C442.538 657.323 442.463 657.602 442.408 657.862C437.422 677.769 437.664 686.754 447.431 691.331C454.854 694.81 459.933 698.531 464.1 703.535C460.658 702.252 453.737 701.619 450.314 701.433C449.44 701.377 451.245 704.093 452.119 704.131C456.193 704.242 458.779 704.652 462.24 705.768C468.174 707.703 469.7 706.326 464.398 699.87Z" fill="#0E141B"/>
<path d="M469.011 585.809C464.193 595.372 455.226 618.217 448.77 637.175C449.086 639.891 449.514 642.607 449.886 645.286C456.044 625.845 466.314 598.181 471.839 587.223C472.23 586.442 469.402 585.009 469.011 585.791V585.809Z" fill="#0E141B"/>
<path d="M441.757 696.913C451.133 703.239 458.575 711.275 462.649 721.88C454.891 715.945 447.654 711.927 437.069 709.545C436.213 709.359 437.217 712.596 438.073 712.801C447.487 715.089 452.417 717.601 459.189 722.587C464.677 726.624 466.295 725.433 464.416 719.777C461.347 710.587 452.714 701.267 443.729 695.909C439.71 693.509 438.631 694.811 441.738 696.913H441.757Z" fill="#0E141B"/>
<path d="M445.347 723.497C441.961 714.456 438.445 709.172 430.557 704.744C428.083 703.349 425.98 703.628 428.883 705.47C435.692 709.786 441.422 717.451 443.375 726.065C438.259 722.121 432.157 719.014 426.371 717.302C420.827 715.646 417.237 713.693 414.911 710.754L406.781 700.428C402.837 695.443 401.609 692.689 400.493 686.438C397.386 669.081 397.237 637.156 399.954 612.413C398.8 611.911 397.684 611.371 396.754 610.627C393.349 635.166 393.572 665.713 397.386 686.978C398.595 693.694 400.084 697.005 404.307 702.363L412.437 712.688C415.562 716.632 420.139 718.232 425.329 719.777C431.134 721.507 434.259 723.423 439.282 726.679C445.682 730.827 447.394 728.967 445.347 723.46V723.497Z" fill="#0E141B"/>
<path d="M417.702 512.622C415.246 527.077 414.558 550.369 415.19 569.773C415.227 570.648 418.278 573.308 418.26 572.434C417.925 553.458 418.52 525.403 419.916 512.268C420.455 507.283 418.557 507.617 417.702 512.622Z" fill="#0E141B"/>
<path d="M414.167 570.648C440.25 595.056 453.887 622.943 445.905 662.514C445.05 657.714 442.575 651.277 439.934 647.556C439.431 646.849 437.794 648.747 438.222 649.491C440.231 652.952 442.222 657.975 443.096 662.123C444.808 670.123 448.25 668.337 449.366 658.737C453.961 619.632 444.919 595.316 415.451 569.141C411.656 565.773 410.521 567.28 414.13 570.648H414.167Z" fill="#0E141B"/>
<path d="M440.417 628.915C440.175 644.933 434.817 659.537 425.05 669.007C426.985 659.333 427.283 652.301 425.776 644.58C425.608 643.724 423.376 645.491 423.58 646.347C424.938 651.724 424.659 658.217 423.469 664.654C421.98 672.709 424.306 673.807 429.943 667.463C438.036 658.365 442.817 643.724 442.296 630.013C442.147 625.901 440.473 624.822 440.398 628.915H440.417Z" fill="#0E141B"/>
<path d="M360.383 505.869C361.22 501.497 359.397 500.976 357.723 506.632C352.644 523.803 352.048 557.588 358.504 575.429C362.895 587.577 371.211 594.777 384.791 603.763C405.181 617.251 414.781 628.153 408.716 653.25C406.874 660.859 407.581 662.217 414.967 657.435C423.897 651.668 429.404 641.306 430.836 628.599C431.339 624.134 429.497 624.078 428.697 628.45C426.409 641.045 420.548 652.17 409.981 657.882C418.223 633.343 411.432 616.99 386.447 601.661C373.927 593.977 365.499 585.401 361.499 574.35C354.876 556.044 356.792 524.808 360.402 505.85L360.383 505.869Z" fill="#0E141B"/>
<path d="M375.061 459.433C378.28 462.838 383.098 465.368 388.01 466.875C400.512 470.763 410.855 474.093 422.427 478.744C423.246 479.06 423.934 475.935 423.115 475.6C411.19 470.707 402.67 467.861 388.94 463.898C384.084 462.503 380.382 460.866 376.773 458.391C374.075 456.55 373.201 457.461 375.061 459.415V459.433Z" fill="#0E141B"/>
<path d="M269.316 456.829C264.423 462.856 259.344 469.033 254.266 474.13C241.689 486.763 233.41 488.028 226.62 482.912C215.197 474.335 208.09 475.619 201.188 482.967C184.947 500.25 166.473 511.45 144.204 515.822C139.237 516.789 137.563 519.468 145.339 523.357C154.306 527.84 168.073 528.473 177.059 524.975C181.022 523.431 179.589 521.998 175.44 523.115C164.222 526.166 148.539 523.989 143.814 519.003C168.855 513.18 188.314 503.301 202.342 486.67C209.095 478.67 216.034 478.949 224.704 485.479C233.02 491.73 242.117 490.26 255.196 477.591C260.33 472.605 265.837 466.224 271.865 458.801C303.808 419.565 343.732 416.16 379.545 456.736C383.414 461.126 387.972 464.028 394.316 467.21C395.098 467.6 397.423 466.782 396.66 466.373C390.093 462.875 387.619 460.959 381.889 454.615C345.592 414.505 307.324 410.096 269.298 456.792L269.316 456.829Z" fill="#0E141B"/>
<path d="M168.167 525.385C161.339 533.682 155.609 537.477 144.093 543.412C139.665 545.7 139.237 548.993 148.428 549.198C160.985 549.477 176.948 545.551 187.44 536.863C189.505 535.152 188.352 533.998 185.989 535.468C176.408 541.496 159.534 547.988 145.135 546.165C157.041 539.654 164.185 534.891 171.236 526.24C171.478 525.943 168.706 524.715 168.167 525.385Z" fill="#0E141B"/>
<path d="M212.277 533.124C208.239 536.063 207.309 536.528 200.5 538.258C195.868 539.43 192.073 542.947 188.482 547.579C183.366 554.202 172.538 562.072 164.911 561.42C170.566 555.021 174.734 548.491 177.692 541.886C177.785 541.682 174.25 541.793 173.896 542.575C171.292 548.323 169.339 552.956 163.05 559.244C159.702 562.592 160.93 565.29 168.259 563.616C178.659 561.234 185.04 557.197 190.975 549.514C194.472 544.993 197.207 542.221 201.598 540.9C207.588 539.096 210.342 538.091 214.509 534.835C215.197 534.296 212.965 532.603 212.258 533.124H212.277Z" fill="#0E141B"/>
<path d="M323.454 510.446C270.935 548.826 224.183 551.132 202.045 520.51C199.514 517.031 198.584 518.966 201.17 522.575C229.634 562.313 287.065 543.244 325.631 511.711C329.612 508.455 327.826 507.246 323.454 510.446Z" fill="#0E141B"/>
<path d="M294.264 572.117C292.199 581.4 285.483 594.795 275.363 600.302C276.758 596.935 278.042 592.972 278.469 589.419C278.469 589.344 278.321 589.288 278.321 589.214C278.321 588.433 276.088 589.326 275.939 590.181C275.586 592.153 274.897 594.832 273.391 597.976C270.6 603.762 273.465 604.711 279.902 600.358C288.832 594.312 295.232 583.205 297.353 572.805C297.52 571.95 294.45 571.261 294.264 572.117Z" fill="#0E141B"/>
<path d="M281.055 579.131C276.869 588.787 268.628 598.554 258.284 603.205C262.582 596.228 267.735 585.382 268.07 579.373C268.07 579.336 268.07 579.317 268.07 579.28C268.07 578.443 264.814 580.248 264.684 581.103C263.53 588.247 260.498 594.238 256.238 600.824C252.907 605.958 254.768 607.54 260.516 605.233C271.753 600.749 279.251 590.629 283.251 579.708C285.148 574.536 283.158 574.294 281.055 579.131Z" fill="#0E141B"/>
<path d="M263.419 541.198C265.503 554.76 256.647 572.825 246.973 586.666C242.713 592.75 244.145 595.689 253.745 591.689C261.652 588.378 268.386 581.513 272.256 573.457C274.6 568.546 272.963 568.23 270.247 572.732C265.149 581.197 257.503 588.582 248.071 590.48C256.294 577.494 263.549 564.379 265.949 553.253C267.102 547.858 267.214 544.975 266.563 540.733C266.433 539.877 263.307 540.342 263.437 541.217L263.419 541.198Z" fill="#0E141B"/>
<path d="M186.603 303.867C172.892 382.58 243.922 441.183 284.218 442.429C285.092 442.448 288.069 439.508 287.195 439.49C246.768 438.653 179.719 381.352 189.71 304.406C189.821 303.55 186.733 303.011 186.584 303.867H186.603Z" fill="#0E141B"/>
<path d="M189.635 212.056C173.32 212.893 158.641 228.111 152.427 251.738C129.972 337.261 189.077 444.196 274.432 453.443C275.307 453.536 276.963 450.075 276.107 449.964C190.026 440.159 135.479 334.061 156.781 252.985C162.585 230.902 175.682 216.521 190.268 215.777C212.072 214.642 225.299 237.06 225.95 260.017C226.788 289.337 213.262 307.513 198.286 306.36C178.194 304.815 173.617 260.24 188.408 254.157C192.705 252.389 196.891 255.812 197.821 262.603C198.733 269.338 200.388 270.77 200.5 263.924C200.723 251.05 191.44 245.413 183.44 252.371C168.52 265.356 175.068 308.145 198.268 309.522C217.486 310.676 231.141 288.909 230.304 259.98C229.634 235.981 215.514 210.716 189.635 212.056Z" fill="#0E141B"/>
<path d="M507.931 488.325C487.151 473.442 457.887 458.037 440.027 449.256C428.157 443.433 377.927 427.601 367.787 426.932C365.462 426.783 369.127 429.108 371.359 429.871C385.461 434.671 415.172 449.033 432.753 458.242C445.775 465.07 485.495 487.599 495.541 497.459C501.104 502.91 508.061 503.989 511.057 500.101C513.382 497.05 512.396 491.506 507.95 488.325H507.931Z" fill="#FFFCDB"/>
<path d="M368.29 429.834C408.511 444.885 458.779 471.47 493.513 497.255C497.122 499.934 501.345 500.976 495.69 496.065C469.049 472.903 407.153 441.89 368.997 427.9C411.637 436.346 462.63 459.136 505.42 487.786C509.215 490.316 510.573 488.735 506.666 486.018C469.309 459.991 419.99 435.509 370.28 426.169C364.346 425.053 363.136 427.918 368.308 429.853L368.29 429.834Z" fill="#0E141B"/>
</g>
<defs>
<clipPath id="clip0_42_59951">
<rect width="520" height="516.968" fill="white" transform="translate(140 212)"/>
</clipPath>
</defs>
</svg>
