<svg width="800" height="800" viewBox="0 0 800 800" fill="none" xmlns="http://www.w3.org/2000/svg">
<g clip-path="url(#clip0_42_58198)">
<path d="M481.573 270.061C484.967 287.654 492.422 306.577 492.743 332.518C493.248 374.033 471.939 427.453 434.415 424.769C379.069 420.824 377.555 364.262 375.629 335.981C373.817 309.604 375.009 279.603 372.899 258.02C371.798 246.528 366.982 232.812 368.816 231.344C371.225 229.418 377.693 232.193 383.817 237.079C389.735 241.803 392.166 244.487 392.166 244.487C392.166 244.487 393.06 219.555 398.313 218.477C401.891 217.743 403.864 220.014 406.18 224.349C406.937 225.748 415.148 242.262 416.433 242.262C417.304 242.262 424.759 225.381 427.741 225.037C432.122 224.509 438.681 235.794 438.681 235.794C438.681 235.794 443.773 226.161 445.562 223.752C449.118 218.959 453.338 214.853 456.985 216.344C461.159 218.041 459.76 226.39 458.866 235.932C458.109 244.051 459.6 265.359 461.09 266.208C462.513 267.011 463.315 256.185 466.274 246.574C467.696 241.941 470.196 233.363 474.898 234.28C479.692 235.198 478.82 240.611 479.233 248.478C479.532 254.648 480.151 262.905 481.55 270.107L481.573 270.061Z" fill="#0E141B"/>
<path d="M441.572 239.946C443.108 235.313 446.962 228.409 447.902 226.964C450.219 223.409 452.833 220.335 455.012 221.253C456.549 221.918 454.852 232.538 454.485 239.212C454.118 245.887 456.136 269.672 457.467 270.452C458.751 271.186 464.669 264.672 467.329 256.025C469.027 250.497 470.357 242.194 472.49 239.419C473.132 238.57 474.302 239.052 474.99 239.235C477.169 239.786 473.683 252.974 477.582 271.851C480.839 287.654 485.633 306.829 485.931 330.179C486.39 367.543 467.215 415.618 433.452 413.209C383.634 409.654 382.257 358.758 380.537 333.298C378.909 309.559 379.551 282.608 378.083 263.135C377.143 250.612 371.454 236.253 372.693 235.542C374 234.808 381.088 239.763 385.675 244.075C389.689 247.859 394.666 252.974 397.258 255.566C398.175 256.461 399.735 255.268 398.657 253.869C397.579 252.47 395.263 247.997 395.263 247.997C396.203 241.598 397.166 224.693 398.359 223.753C400.515 222.056 402.556 225.978 403.107 227.01C404.07 228.845 413.543 249.006 415.699 248.869C419.208 248.639 426.089 229.877 428.773 229.602C430.31 229.441 434.003 234.418 436.64 238.409C438.888 241.781 441.64 246.644 443.361 249.121C444.209 250.612 445.746 249.534 444.989 247.836C444.209 246.139 442.833 242.744 441.595 239.969L441.572 239.946Z" fill="#E95383"/>
<path d="M600.064 656.383C599.812 654.387 608 638.676 610.638 639.639C615.156 641.291 627.152 658.516 621.624 665.099C618.78 668.493 600.293 658.149 600.064 656.383Z" fill="#0E141B"/>
<path d="M604.513 653.677C604.284 651.888 607.701 645.764 610.064 646.635C615.913 648.768 620.638 657.759 618.596 660.718C617.472 662.347 604.72 655.282 604.513 653.677Z" fill="white"/>
<path d="M565.751 686.178C557.746 686.178 552.172 669.87 554.741 665.834C557.333 661.774 570.774 665.008 573.755 668.471C576.095 671.178 572.425 686.178 565.751 686.178Z" fill="#0E141B"/>
<path d="M565.98 681.109C561.874 681.109 559.053 671.613 560.796 668.15C561.897 665.925 566.897 666.085 569.329 668.884C571.209 671.086 570.063 681.109 566.003 681.109H565.98Z" fill="white"/>
<path d="M588.962 666.406C619.308 658.241 632.014 599.225 612.725 550.76C592.472 499.864 546.438 462.431 510.611 475.688C474.784 488.946 459.714 544.292 481.848 597.367C501.987 645.649 537.561 680.237 588.962 666.406Z" fill="#0E141B"/>
<path d="M586.37 659.548C613.688 652.186 622.863 599.087 605.5 555.485C587.265 509.68 548.112 475.987 515.863 487.936C483.614 499.864 470.059 549.659 489.991 597.436C508.111 640.878 540.13 672.026 586.393 659.571L586.37 659.548Z" fill="#26B7BC"/>
<path d="M586.462 659.64C543.731 654.043 536.69 624.776 541.139 562.87C508.891 574.797 482.949 579.178 490.06 597.504C507.079 641.382 540.199 672.094 586.462 659.64Z" fill="#1EA0A4"/>
<path d="M139.359 698.38C139.611 696.385 136.491 678.953 133.854 679.916C129.335 681.568 116.927 698.151 120.711 703.082C125.711 709.573 139.129 700.147 139.359 698.38Z" fill="#0E141B"/>
<path d="M136.033 694.458C136.216 693.013 136.033 685.375 134.175 686.315C131.652 687.577 122.385 697.554 124.977 700.513C127.661 703.564 135.872 695.765 136.033 694.458Z" fill="white"/>
<path d="M601.922 605.12C610.362 604.203 613.78 577.688 613.413 574.362C613.046 571.059 590.591 547.779 584.513 549.889C576.072 552.825 572.494 574.959 573.388 581.014C574.512 588.537 595.958 605.762 601.922 605.097V605.12Z" fill="#0E141B"/>
<path d="M581.921 666.843C583.251 658.838 590.751 649.434 596.738 650.535C599.972 651.131 610.087 674.251 603.665 679.527C596.532 685.398 581.6 668.609 581.898 666.843H581.921Z" fill="#0E141B"/>
<path d="M552.355 630.787C549.764 628.057 552.287 621.474 557.952 616.107C563.64 610.74 570.338 608.607 572.907 611.336C575.498 614.066 572.975 620.649 567.31 626.016C561.622 631.383 554.924 633.539 552.355 630.787Z" fill="#0E141B"/>
<path d="M420.447 692.876C353.678 692.876 299.548 636.543 299.548 567.068C299.548 497.593 353.678 441.261 420.447 441.261C487.215 441.261 541.346 497.593 541.346 567.068C541.346 636.543 487.215 692.876 420.447 692.876Z" fill="#0E141B"/>
<path d="M414.025 689.894C347.256 689.894 293.126 633.562 293.126 564.087C293.126 494.612 347.256 438.279 414.025 438.279C480.793 438.279 561.507 443.692 540.543 570.509C530.153 633.264 480.816 689.871 414.025 689.871V689.894Z" fill="#26B7BC"/>
<path d="M699.907 408.92C682.498 411.076 668.644 415.273 668.094 414.539C667.543 413.805 673.874 407.773 683.094 401.19C690.64 395.823 701.765 389.148 701.444 387.841C701.077 386.35 670.686 374.859 669.195 375.249C668.163 375.501 655.639 383.621 645.111 392.864C629.377 406.649 615.638 421.581 614.72 421.03C613.826 420.48 627.129 403.369 634.537 395.456C641.464 388.07 656.465 370.776 655.662 369.698C654.309 367.84 611.922 372.84 610.064 373.597C609.009 374.01 599.536 383.07 592.403 391.144C581.714 403.208 572.494 416.443 571.714 415.663C571.164 415.113 577.081 402.13 582.838 392.13C586.944 384.997 597.265 371.395 596.371 370.386C595.247 369.148 568.434 373.46 566.53 375.272C564.627 377.061 537.745 414.998 535.772 414.929C534.603 414.883 538.548 404.929 544.855 393.254C549.603 384.469 556.736 376.074 555.842 374.836C554.672 373.23 529.648 376.808 526.185 379.286C522.721 381.763 511.826 413.828 505.427 418.828C477.146 440.893 445.104 446.903 447.604 465.78C448.2 470.206 448.407 548.03 449.324 550.301C449.806 551.54 476.596 554.384 477.743 553.031C478.981 551.54 477.743 538.947 480.22 525.346C482.995 510.047 487.628 498.671 489.119 498.9C490.427 499.129 487.193 515.46 486.642 527.571C486.16 538.443 488.362 553.283 490.105 554.246C491.826 555.232 525.199 548.076 525.68 547.319C526.735 545.737 525.68 531.883 526.185 517.181C526.689 502.341 529.396 491.17 530.634 490.987C531.873 490.803 531.277 505.552 534.58 519.658C537.882 533.764 542.126 543.741 543.479 544.361C546.186 545.622 578.572 540.163 579.054 538.42C579.375 537.296 571.485 525.002 567.195 511.745C562.815 498.212 561.576 487.386 562.746 486.79C563.961 486.17 569.053 498.877 578.549 513.235C587.265 526.401 598.917 536.952 600.293 536.952C601.532 536.952 634.4 520.896 634.881 519.153C635.294 517.662 629.652 507.845 622.519 497.662C615.385 487.478 610.018 480.643 610.913 479.863C611.853 479.037 624.422 489.106 640.317 499.886C654.676 509.611 671.465 520.369 673.186 520.139C675.158 519.887 701.1 491.973 700.87 490.23C700.664 488.785 687.521 481.583 676.397 474.427C664.768 466.926 654.515 459.701 655.157 458.371C655.823 456.949 674.677 453.738 696.673 451.444C716.444 449.38 738.165 449.999 739.427 448.715C740.665 447.476 739.679 408.438 738.44 407.199C737.156 405.915 716.651 406.855 699.884 408.92H699.907Z" fill="#0E141B"/>
<path d="M693.714 415.366C678.048 417.315 661.626 420.113 660.846 419.196C658.804 416.788 669.745 405.296 673.438 402.154C679.791 396.764 691.122 389.998 691.42 388.805C691.604 388.071 671.764 380.594 669.378 380.639C668.415 380.662 653.3 391.603 643.804 399.906C629.652 412.315 613.229 429.38 608.963 428.072C604.697 426.765 618.596 406.191 624.904 398.048C630.478 390.823 647.084 374.217 646.602 373.758C645.685 372.841 614.33 376.327 611.853 376.855C610.867 377.061 600.385 388.025 593.94 395.273C584.329 406.122 572.265 422.705 568.732 421.948C564.099 420.985 571.783 403.484 576.324 394.149C579.834 386.924 589.903 375.8 588.917 375.066C588.183 374.515 570.338 377.681 569.283 378.208C568.159 378.759 537.607 422.361 532.584 422.132C528.685 421.948 532.515 405.824 538.318 395.64C542.791 387.842 548.571 379.814 547.768 379.149C546.667 378.231 529.924 380.984 527.951 382.291C526.277 383.392 514.625 415.411 508.868 419.907C483.408 439.77 453.384 447.844 455.632 464.84C456.159 468.808 454.049 544.636 455.081 545.944C456.068 547.182 471.412 548.444 472.697 547.802C473.706 547.297 473.66 528.214 476.619 515.92C481.435 495.896 490.404 487.799 491.803 488.488C493.592 489.382 494.532 501.837 492.789 518.397C491.78 528.145 492.789 546.563 494.28 547.549C495.931 548.65 519.625 543.971 519.969 542.366C520.451 540.141 520.519 524.98 520.955 511.722C521.368 499.749 527.171 480.735 532.194 479.978C533.295 479.817 535.268 497.547 538.25 510.254C541.231 522.938 545.429 537.962 546.644 538.558C548.135 539.292 571.324 536.333 571.806 534.842C572.15 533.833 564.948 517.869 561.094 505.919C557.149 493.74 557.195 477.019 559.604 476.262C562.7 475.322 569.397 490.116 577.953 503.052C585.797 514.911 597.793 529.452 599.009 529.75C600.981 530.232 626.922 517.388 626.922 515.92C626.922 514.521 618.642 502.846 612.22 493.671C605.798 484.497 602.22 473.647 604.812 471.79C607.747 469.702 624.721 482.226 639.033 491.928C651.946 500.667 670.341 511.998 671.901 511.929C673.438 511.86 690.87 493.144 690.182 491.423C689.7 490.185 676.833 482.295 665.961 474.863C655.685 467.845 643.896 457.775 644.469 456.583C645.065 455.298 663.185 449.954 682.911 447.431C700.985 445.091 732.27 444.059 733.669 443.256C734.954 442.522 734.289 414.219 733.165 413.118C731.995 411.948 708.714 413.462 693.622 415.343L693.714 415.366Z" fill="#00A73C"/>
<path d="M158.029 356.555C171.149 362.978 179.727 368.07 179.521 369.4C179.337 370.661 169.497 370.226 157.043 371.877C143.785 373.62 130.688 377.497 129.863 378.804C128.257 381.327 140.482 408.713 142.707 410.181C143.739 410.869 156.194 405.663 170.392 402.773C186.998 399.378 200.737 398.117 201.517 399.309C202.251 400.41 192.273 402.429 180.277 407.704C168.282 412.979 158.212 418.828 158.029 420.296C157.662 423.255 179.039 444.265 181.631 445.389C182.869 445.916 188.741 439.035 197.067 433.164C206.058 426.833 215.072 421.971 215.852 422.544C216.678 423.163 207.549 429.631 199.292 437.613C192.778 443.921 185.943 452.362 185.943 453.669C185.943 455.16 236.839 473.188 236.839 473.188C236.839 473.188 240.693 464.587 245.784 456.949C251.519 448.371 257.918 441.536 259.088 442.315C260.189 443.049 255.693 449.655 252.849 458.44C250.372 466.101 247.688 476.652 249.477 477.019C295.672 486.629 341.43 480.597 355.284 454.242C364 437.636 350.926 374.492 332.118 347.541C329.916 344.399 320.26 378.666 318.035 377.565C316.704 376.9 317.897 363.826 317.163 352.61C316.727 345.867 314.915 338.206 314.319 337.174C312.828 334.582 283.745 325.316 282.07 326.233C281.153 326.738 281.956 337.472 281.887 346.44C281.795 357.633 281.497 366.074 280.029 366.074C278.928 366.074 278.309 353.23 277.116 340.247C276.336 331.807 274.272 323.206 273.538 322.334C271.68 320.109 245.486 311.21 243.032 313.068C241.954 313.87 245.784 325.522 247.482 335.316C249.638 347.725 250.785 357.037 249.454 357.175C248.101 357.312 245.005 344.307 239.454 331.6C235.417 322.334 230.922 314.535 229.821 313.435C227.229 310.843 194.246 307.884 192.388 310.109C191.493 311.164 198.833 323.435 204.499 333.344C210.691 344.17 214.499 351.83 213.146 352.61C211.746 353.413 201.631 343.826 188.191 334.077C176.608 325.683 161.974 318.366 160.277 318.022C156.561 317.288 130.253 338.527 130.62 342.243C130.803 344.055 145.62 350.477 158.052 356.578L158.029 356.555Z" fill="#0E141B"/>
<path d="M167.41 355.065C179.222 360.845 189.406 370.776 189.406 371.992C189.406 375.088 173.442 374.584 162.226 376.075C150.299 377.634 137.455 380.547 136.767 381.763C135.78 383.483 144.175 402.773 145.918 403.759C146.882 404.31 156.882 399.929 169.635 397.337C184.59 394.286 209.361 392.291 211.265 396.098C213.604 400.8 200.439 404.677 189.636 409.447C178.832 414.195 165.575 420.962 165.415 422.292C165.07 424.953 178.901 437.843 181.218 438.852C182.342 439.334 190.53 431.535 198.03 426.26C206.127 420.549 220.508 415.388 222.985 417.613C225.6 419.975 215.095 429.953 207.664 437.132C201.792 442.82 195.117 451.1 195.553 452.201C196.058 453.44 235.44 466.101 234.11 466.284C235.211 466.124 240.142 456.605 244.729 449.724C249.89 441.994 260.716 433.783 263.652 435.32C266.588 436.857 262.505 446.995 260.028 455.137C257.918 462.133 255.211 470.918 255.326 470.94C298.103 479.84 415.286 523.557 422.121 491.698C431.021 450.183 348.999 378.804 332.049 354.56C330.077 351.716 321.796 381.235 316.865 381.235C314.273 381.235 312.713 369.102 312.232 358.987C311.911 352.243 310.489 340.5 310.007 339.537C309.273 338.046 288.148 331.004 286.841 331.578C285.969 331.944 287.391 343.367 286.658 351.418C285.534 363.643 284.983 373.345 278.698 372.359C274.662 371.717 274.203 356.968 273.148 345.294C272.46 337.702 270.235 326.646 269.616 325.843C269.065 325.109 249.913 318.022 249.592 318.802C249.225 319.719 251.633 331.211 253.124 340.982C254.867 352.496 254.638 364.216 250.165 364.446C245.716 364.698 241.335 349.95 236.335 338.504C232.688 330.178 226.793 318.114 225.715 317.265C223.857 315.774 201.998 313.435 200.76 314.788C199.911 315.705 207.457 327.036 211.884 336.28C214.614 341.968 221.219 357.496 217.32 359.514C213.994 361.235 206.563 355.065 189.154 341.716C178.924 333.871 162.043 324.1 160.483 323.802C158.625 323.435 138.372 338.871 138.739 340.729C139.06 342.335 156.217 349.583 167.41 355.065Z" fill="#00A73C"/>
<path d="M146.652 713.839C173.328 730.4 240.555 705.697 266.06 654.502C291.726 603.032 297.965 552.939 264.524 534.452C231.082 515.965 185.14 548.42 159.405 599.867C137.982 642.69 120.872 697.852 146.675 713.839H146.652Z" fill="#0E141B"/>
<path d="M152.272 707.67C176.218 722.716 237.481 695.582 259.73 654.25C284.272 608.675 288.447 562.848 258.331 546.196C228.238 529.567 186.769 559.293 163.603 605.579C144.313 644.112 125.895 691.087 152.272 707.647V707.67Z" fill="#26B7BC"/>
<path d="M601.554 598.813C605.454 598.813 608.481 580.326 607.495 575.784C606.853 572.871 590.751 555.875 587.104 556.953C583.962 557.871 578.205 574.385 580.063 579.569C581.967 584.867 595.958 598.859 601.554 598.836V598.813Z" fill="#007A96"/>
<path d="M556.714 627.368C554.397 625.625 557.264 621.634 559.672 619.226C562.631 616.267 566.37 613.606 567.838 614.776C569.696 616.267 568.572 620.327 564.879 623.309C561.805 625.763 558.204 628.492 556.736 627.391L556.714 627.368Z" fill="#007A96"/>
<path d="M587.471 665.168C588.962 661.452 591.921 655.901 594.88 655.901C597.839 655.901 603.022 673.333 600.797 675.168C597.678 677.76 586.852 666.659 587.448 665.168H587.471Z" fill="white"/>
<path d="M140.528 692.165C142.478 698.725 146.331 704.642 152.295 708.381C176.241 723.427 237.504 696.293 259.753 654.984C284.295 609.409 288.47 563.559 258.354 546.93C239.546 536.54 216.288 544.246 195.829 562.802C201.976 680.742 174.314 693.105 140.505 692.165H140.528Z" fill="#1EA0A4"/>
<path d="M136.537 664.915C138.762 665.649 160.254 664.915 161.24 663.195C162.891 660.305 159.222 614.868 156.538 613.537C153.579 612.047 133.143 663.815 136.514 664.938L136.537 664.915Z" fill="#0E141B"/>
<path d="M200.393 732.005C209.246 724.987 200.508 705.926 194.59 702.6C188.397 699.114 179.406 711.752 179.406 716.317C179.406 719.482 196.815 734.849 200.416 732.005H200.393Z" fill="#0E141B"/>
<path d="M163.534 717.762C163.029 709.665 153.9 697.027 147.891 698.151C144.657 698.748 130.78 724.161 135.528 729.781C138.235 732.992 163.694 720.514 163.534 717.785V717.762Z" fill="#0E141B"/>
<path d="M142.707 659.48C143.212 660.489 155.781 659.732 156.607 658.677C157.341 657.76 154.91 629.318 153.831 629.203C152.662 629.089 141.927 657.966 142.707 659.48Z" fill="#007A96"/>
<path d="M157.891 715.95C157.226 710.124 153.969 703.518 149.955 703.839C147.295 704.069 138.303 722.189 140.092 724.092C141.537 725.629 158.052 717.372 157.891 715.95Z" fill="white"/>
<path d="M198.741 727.923C201.356 725.56 196.058 708.243 192.388 707.417C188.993 706.637 185.278 713.817 184.613 716.317C184.268 717.578 196.838 729.666 198.764 727.923H198.741Z" fill="white"/>
<path d="M514.464 634.594C523.914 620.511 530.772 607.529 536.323 588.629C524.831 615.488 512.79 611.978 506.299 611.611C508.707 616.979 511.299 622.919 514.464 634.594Z" fill="#1EA0A4"/>
<path d="M524.51 458.004C516.758 446.49 461.526 448.623 462.398 455.022C462.444 455.412 462.398 456.743 462.237 458.669C461.71 465.505 459.921 483.991 459.921 483.991L459.003 492.478C462.191 492.111 478.522 490.07 483.752 489.29C486.78 484.771 488.798 481.973 490.816 480.964C493.271 479.519 493.271 485.689 493.752 487.868C511.987 484.932 530.91 467.477 524.533 458.004H524.51Z" fill="#00A73C"/>
<path d="M492.651 453.417C479.302 458.807 468.935 466.399 463.178 468.234C459.393 469.426 460.999 476.881 465.655 475.642C474.142 473.394 507.446 458.577 517.515 454.495C512.079 452.706 495.243 452.361 492.651 453.417Z" fill="#00A73C"/>
<path d="M443.819 482.249C491.871 484.474 519.602 428.875 518.937 387.36C518.317 347.978 492.972 309.169 476.32 280.613C466.641 264.03 466.343 247.079 462.237 246.506C458.659 246.001 455.448 254.396 454.072 263.915C452.902 272.057 452.971 279.122 453.154 282.081C450.196 277.081 444.691 268.938 443.728 267.562C441.87 264.947 435.791 266.415 435.998 270.498C436.158 273.434 436.778 282.448 437.03 290.223C437.397 302.357 442.122 315.706 438.131 323.573C426.364 346.831 398.519 352.473 389.941 388.805C379.574 432.797 375.193 479.038 443.796 482.203L443.819 482.249Z" fill="#0E141B"/>
<path d="M456.48 286.736C456.48 283.41 457.077 274.35 457.398 269.992C457.879 263.318 460.219 252.698 461.847 252.698C463.155 252.698 463.338 268.502 477.903 291.736C493.706 316.921 511.735 352.679 512.996 388.093C514.487 430.342 482.009 477.569 445.54 477.041C383.725 476.147 388.978 428.118 398.313 388.552C406.02 355.844 431.089 350.775 441.686 329.834C445.264 322.747 443.659 311.531 442.076 300.131C441.044 292.608 439.943 275.268 439.851 273.456C439.668 270.038 442.007 269.603 443.315 272.103C443.59 272.63 448.223 280.314 449.898 283.043C451.572 285.75 455.448 290.612 460.127 294.214C461.641 295.085 461.481 293.388 459.944 291.691C458.407 289.993 457.811 288.456 456.48 286.759V286.736Z" fill="#E95383"/>
<path d="M445.563 477.064C482.032 477.592 514.51 430.365 513.019 388.116C503.225 449.655 460.77 450.756 408.13 419.241C399.598 449.632 383.748 476.17 445.563 477.064Z" fill="#CA4773"/>
<path d="M395.4 484.221C432.924 486.905 473.499 435.16 472.995 393.667C472.49 353.07 444.874 313.275 431.846 297.311C425.195 289.168 418.383 277.792 412.396 268.525C410.745 265.979 407.763 262.814 406.272 262.814C404.781 262.814 402.373 264.878 402.373 264.878C402.373 264.878 400.171 258.318 396.019 258.318C393.519 258.318 390.148 260.176 385.354 266.667C383.358 269.351 373.748 283.801 361.408 297.311C345.834 314.353 307.209 353.666 307.209 397.268C307.209 444.954 340.031 480.299 395.4 484.244V484.221Z" fill="#0E141B"/>
<path d="M383.496 462.041C360.812 462.041 340.215 451.789 324.962 435.137C337.095 458.716 361.477 475.368 395.377 477.799C429.14 480.207 466.504 431.146 466.045 393.782C466.045 392.131 465.907 390.456 465.793 388.805C456.32 430.939 423.062 462.041 383.473 462.041H383.496Z" fill="#CA4773"/>
<path d="M405.24 285.338C406.478 287.815 408.634 286.875 408.336 285.957C408.038 285.04 404.162 271.324 403.772 269.168C403.772 269.168 405.148 266.392 408.405 270.613C413.497 277.218 426.433 298.618 431.502 305.797C442.718 321.692 463.591 354.102 465.861 388.805C456.389 430.94 423.13 462.042 383.542 462.042C360.858 462.042 340.26 451.789 325.008 435.137C319.319 424.081 316.315 411.489 316.315 398.117C316.315 358.896 350.421 317.839 364.436 302.494C376.363 289.443 387.464 271.691 388.794 269.764C393.542 262.929 397.006 263.892 398.864 267.998C400.309 271.576 403.199 280.017 405.263 285.361L405.24 285.338Z" fill="#E95383"/>
<path d="M418.91 500.46C417.419 499.611 416.318 478.602 415.951 470.436C415.63 463.395 414.231 455.734 411.823 454.679C409.85 453.807 404.116 458.83 400.332 463.326C396.18 468.257 391.065 472.73 389.712 472.592C386.386 472.271 369.734 442.385 364.504 445.665C361.546 447.522 367.761 470.872 366.225 470.872C364.688 470.872 357.945 455.55 355.1 456.284C350.398 457.523 350.009 472.088 347.187 472.088C345.467 472.088 345.467 467.89 337.554 461.468C331.476 456.536 318.929 450.734 317.301 451.834C315.076 453.325 328.425 475.551 329.526 487.042C331.613 508.626 420.309 501.263 418.91 500.46Z" fill="#0E141B"/>
<path d="M415.928 502.226C414.598 501.469 411.8 484.633 411.456 477.294C411.181 470.963 411.983 462.339 410.171 461.582C407.878 460.619 402.717 467.041 400.354 470C397.763 473.257 393.496 477.913 390.905 480.184L392.579 486.308C392.579 486.308 389.047 481.491 387.395 479.45C384.987 476.514 369.986 453.073 368.977 453.554C367.693 454.196 373.679 479.014 368.243 479.748C365.674 480.092 357.004 463.188 355.513 463.692C352.555 464.678 351.431 480.482 348.472 480.482C347.348 480.482 342.462 472.982 338.586 468.371C334.641 463.692 324.687 456.674 323.264 457.752C322.278 458.486 334.503 479.794 335.49 490.138C337.37 509.565 417.213 502.937 415.928 502.203V502.226Z" fill="#00A73C"/>
<path d="M497.789 735.216C497.514 732.992 507.078 715.239 510.014 716.317C515.037 718.152 525.588 734.482 521.253 741.272C517.859 746.616 498.041 737.189 497.789 735.216Z" fill="#0E141B"/>
<path d="M502.973 731.891C502.721 729.896 506.781 722.693 509.395 723.748C513.111 725.239 518.73 735.033 517.056 736.731C514.464 739.322 503.202 733.68 502.973 731.914V731.891Z" fill="white"/>
<path d="M485.679 746.96C515.909 738.382 530.428 669.87 511.804 621.153C491.252 567.435 454.324 552.595 418.474 565.853C382.647 579.11 359.711 615.465 380.262 669.182C398.451 716.707 455.15 755.63 485.679 746.983V746.96Z" fill="#0E141B"/>
<path d="M482.834 738.474C510.014 730.629 521.529 669.091 504.762 625.236C486.275 576.885 450.333 530.989 402.166 545.072C369.161 554.729 368.037 620.694 387.969 668.448C404.552 708.22 456.595 746.02 482.834 738.474Z" fill="#26B7BC"/>
<path d="M484.073 740.905C494.028 738.038 497.422 732.808 505.198 713.518C428.521 748.978 437.007 623.63 403.405 547.503C370.399 557.159 369.275 623.125 389.207 670.879C405.791 710.651 457.834 748.451 484.073 740.905Z" fill="#1EA0A4"/>
<path d="M497.285 676.613C501.367 676.246 509.877 652.897 509.51 649.548C509.143 646.245 499.372 623.974 492.468 623.974C487.376 623.974 471.229 650.649 471.343 656.957C471.435 661.2 493.73 676.911 497.285 676.59V676.613Z" fill="#0E141B"/>
<path d="M469.119 699.504C470.357 697.279 468.109 678.379 463.935 677.76C459.003 677.026 444.301 687.875 443.682 693.563C443.177 698.013 453.178 705.215 455.54 705.926C458.017 706.66 468.247 701.11 469.119 699.504Z" fill="#0E141B"/>
<path d="M426.984 750.423C422.305 747.693 430.906 714.642 434.025 714.481C442.925 713.977 452.191 731.707 452.558 738.198C452.65 739.987 431.434 753.015 426.984 750.423Z" fill="#0E141B"/>
<path d="M465.173 745.216C466.664 736.317 474.99 720.651 481.481 722.601C488.89 724.826 492.972 754.483 486.298 759.666C483.316 761.983 464.852 747.166 465.173 745.216Z" fill="#0E141B"/>
<path d="M432.168 743.382C430.585 741.799 433.865 724.001 436.617 722.624C438.842 721.524 445.884 729.299 445.884 735.974C445.884 737.579 434.392 745.607 432.168 743.382Z" fill="white"/>
<path d="M472.582 744.85C472.1 741.432 477.766 728.175 479.99 729.413C483.958 731.615 486.642 751.157 483.936 753.382C482.582 754.483 472.949 747.442 472.559 744.85H472.582Z" fill="white"/>
<path d="M496.734 670.123C498.959 669.756 505.312 653.884 505.083 649.182C504.945 646.498 496.184 630.832 493.408 630.649C491.94 630.557 478.408 651.406 478.637 655.856C478.821 659.297 494.693 670.467 496.734 670.123Z" fill="#007A96"/>
<path d="M465.357 697.233C466.366 695.421 463.568 684.137 462.031 683.517C460.173 682.783 449.095 690.559 448.865 693.105C448.682 695.192 455.356 701.683 456.778 702.004C458.132 702.302 464.646 698.541 465.357 697.256V697.233Z" fill="#007A96"/>
<path d="M158.281 606.084C158.281 616.979 161.905 632.713 165.552 633.929C169.176 635.144 177.043 635.741 177.043 635.741C177.043 635.741 220.027 703.541 315.672 703.541C417.649 703.541 459.76 661.636 459.76 639.365C459.76 626.658 454.921 594.57 453.705 584.271C452.489 573.972 448.269 549.774 448.269 541.884C448.269 533.994 454.324 511.011 453.705 504.956C453.109 498.901 451.274 488.006 448.269 486.194C445.241 484.382 427.695 482.57 422.832 483.166C417.993 483.763 386.501 492.249 386.501 492.249C386.501 492.249 345.329 470.459 316.269 468.028C287.208 465.597 245.44 472.868 245.44 472.868C245.44 472.868 217.595 455.321 211.54 457.133C205.485 458.945 193.833 481.285 193.374 489.818C192.778 501.309 187.319 524.315 184.911 532.182C182.479 540.049 172.204 566.082 167.961 573.353C163.717 580.624 158.281 599.386 158.281 606.038V606.084Z" fill="#26B7BC"/>
<path d="M278.836 684.068C278.836 684.068 315.053 673.264 325.352 672.668C335.65 672.072 370.147 671.452 389.528 672.668C389.528 672.668 359.252 693.861 319.296 693.861C279.341 693.861 278.836 684.068 278.836 684.068Z" fill="#EE869A"/>
<path d="M234.523 585.578C234.752 572.733 234.775 559.866 224.82 549.521C223.972 548.604 219.178 545.737 218.467 546.7C217.848 547.549 222.114 550.209 223.123 551.517C231.426 562.159 229.385 573.008 229.844 585.486C229.889 586.725 231.38 588.33 232.619 588.353C233.903 588.353 234.5 586.725 234.523 585.555V585.578Z" fill="#0E141B"/>
<path d="M335.077 608.4C336.063 586.358 343.655 573.766 350.949 567.619C352.348 566.449 356.545 564.385 355.628 563.284C354.963 562.458 350.995 564.683 349.137 565.944C342.898 570.165 329.113 590.303 330.535 608.033C330.627 609.249 331.453 611.542 332.691 611.565C333.93 611.565 334.985 610.671 335.077 608.423V608.4Z" fill="#0E141B"/>
<path d="M377.716 630.534C360.192 633.194 343.678 634.57 342.554 629.387C337.875 608.101 372.486 564.338 385.79 563.421C390.492 563.1 393.198 566.15 394.253 567.664C403.634 580.99 408.428 607.666 407.189 621.909C407.006 624.134 392.831 628.24 377.693 630.534H377.716Z" fill="#0E141B"/>
<path d="M345.834 627.873C344.274 612.001 379.849 568.696 385.514 571.77C394.643 576.724 404.116 605.647 403.52 618.905C403.359 622.46 346.247 631.933 345.834 627.873Z" fill="white"/>
<path d="M365.468 630.167C364.436 629.639 362.532 618.354 363.174 605.601C363.748 594.156 366.156 584.224 366.638 583.33C367.394 581.931 383.634 566.999 386.317 568.444C395.446 573.398 405.928 607.872 405.332 621.13C405.24 623.354 366.959 630.901 365.468 630.167Z" fill="#0E141B"/>
<path d="M196.494 605.304C207.343 611.29 221.242 614.731 222.802 610.694C230.532 590.922 209.155 539.017 195.92 543.971C188.099 546.907 178.924 577.642 181.103 593.078C181.356 594.868 187.48 600.326 196.494 605.304Z" fill="#0E141B"/>
<path d="M218.949 608.354C222.16 592.917 202.709 548.42 198.03 551.195C193.191 554.063 183.924 579.155 184.59 591.541C184.773 595.096 218.123 612.345 218.972 608.354H218.949Z" fill="white"/>
<path d="M222.458 611.749C224.041 597.161 213.513 560.462 210.026 562.618C205.233 565.577 198.833 590.349 199.498 602.758C199.682 606.313 222.16 614.455 222.458 611.749Z" fill="#0E141B"/>
<path d="M277.345 668.265C278.033 668.746 282.002 666.155 286.245 662.737C290.282 659.48 294.181 657.806 292.3 655.833C290.419 653.861 286.887 654.09 283.125 658.012C278.905 662.416 276.061 667.37 277.345 668.265Z" fill="#0E141B"/>
<path d="M250.326 659.503C251.404 659.182 250.762 653.264 249.317 650.535C247.619 647.323 245.234 644.961 243.078 646.612C241.014 648.195 243.537 651.773 245.096 653.677C246.541 655.42 249.064 659.893 250.326 659.526V659.503Z" fill="#0E141B"/>
<path d="M368.083 608.721C368.312 618.034 370.124 625.947 370.583 626.268C371.798 627.116 403.428 620.901 403.52 618.905C403.703 614.822 402.671 608.469 400.882 601.68C393.175 606.405 384.161 609.157 374.482 609.157C372.303 609.157 370.193 608.974 368.083 608.721Z" fill="#B72643"/>
<path d="M385.881 571.036C383.473 569.729 372.005 581.954 371.34 583.216C370.904 584.018 368.656 592.941 368.128 603.239C368.037 605.097 368.037 606.932 368.06 608.721C370.17 608.996 372.28 609.157 374.459 609.157C384.138 609.157 393.175 606.382 400.859 601.68C397.441 588.606 391.294 573.972 385.881 571.036Z" fill="#B72643"/>
<path d="M385.102 616.725C387.304 616.771 389.207 609.867 389.368 601.335C389.506 592.803 387.854 585.83 385.629 585.807C383.427 585.761 381.524 592.665 381.363 601.197C381.225 609.73 382.877 616.703 385.102 616.725Z" fill="#0E141B"/>
<path d="M203.191 602.918C203.145 605.235 220.027 611.496 220.233 609.478C220.485 606.725 220.233 603.124 219.66 599.225C213.673 598.766 208.306 596.175 204.315 592.184C203.673 596.243 203.26 600.097 203.214 602.941L203.191 602.918Z" fill="#B72643"/>
<path d="M210.967 569.133C208.971 569.89 205.921 581.771 204.292 592.161C208.283 596.152 213.673 598.744 219.637 599.203C217.687 585.808 212.091 568.674 210.944 569.11L210.967 569.133Z" fill="#B72643"/>
<path d="M215.6 602.757C217.618 602.711 219.086 596.289 218.903 588.422C218.719 580.554 216.907 574.224 214.912 574.27C212.893 574.316 211.425 580.738 211.609 588.605C211.792 596.472 213.581 602.803 215.6 602.757Z" fill="#0E141B"/>
<path d="M396.891 674.09C374.413 688.15 345.054 694.205 317.507 694.205C289.96 694.205 266.129 686.499 266.129 686.499L278.836 684.067C278.836 684.067 296.314 688.127 317.507 688.127C338.701 688.127 361.775 684.067 385.102 673.471L396.914 674.067L396.891 674.09Z" fill="#0E141B"/>
<path d="M342.715 673.173C338.288 673.746 349.687 685.88 357.234 685.88C364.78 685.88 370.56 673.471 370.56 673.471C370.56 673.471 352.096 671.957 342.715 673.173Z" fill="#0E141B"/>
<path d="M349.068 674.228C346.752 674.686 354.825 681.2 357.096 681.2C359.367 681.2 363.312 676.361 363.748 674.228C363.748 674.228 354.504 673.173 349.068 674.228Z" fill="white"/>
<path d="M195.117 641.268C195.53 645.717 199.04 658.539 203.879 660.144C208.719 661.773 221.242 658.126 221.242 658.126C221.242 658.126 213.971 650.052 209.132 647.231C204.292 644.41 195.117 641.268 195.117 641.268Z" fill="#0E141B"/>
<path d="M206.7 649.663C205.049 648.47 201.241 646.337 200.943 647.553C200.645 648.769 202.755 653.906 204.888 655.122C206.999 656.338 212.458 656.04 213.375 655.122C214.292 654.205 208.834 651.2 206.723 649.663H206.7Z" fill="white"/>
<path d="M456.733 641.199C456.733 664.801 395.194 703.564 315.672 703.564C218.398 703.564 185.323 638.171 185.323 638.171L180.3 636.749C198.053 666.613 237.183 709.023 316.292 709.023C381.065 709.023 464.508 676.315 464.508 640.603C464.508 610.946 448.682 553.031 449.485 544.154C450.287 535.278 456.228 517.915 456.641 507.433C457.054 496.928 455.93 484.679 453.017 482.707C450.15 480.78 433.727 477.959 418.405 481.193C404.116 484.198 384.987 489.978 384.987 489.978C384.987 489.978 350.123 471.766 321.98 467.523C293.837 463.28 260.716 469.404 256.909 470.413C250.051 472.225 244.959 471.674 240.555 468.601C230.463 461.536 215.806 452.843 209.957 454.357C203.787 455.94 199.223 463.715 193.902 476.468C191.081 483.234 189.957 497.455 187.938 510.667C184.245 534.796 178.098 549.246 166.837 568.788C160.139 580.394 153.992 599.454 154.818 607.941C156.033 620.602 158.075 634.318 168.786 636.795C172.364 637.621 181.401 638.63 187.755 640.144C194.108 641.658 206.219 647.117 209.545 650.741C212.87 654.365 236.472 683.058 257.574 686.659C281.611 690.765 324.916 674.778 330.627 674.044C342.738 672.53 399.643 675.65 406.295 674.732C412.947 673.838 417.19 664.136 419.3 660.213C421.41 656.291 427.465 651.131 425.653 649.617C423.841 648.103 415.355 655.672 411.318 664.548C408.474 670.787 402.029 670.604 396.386 670.604C390.744 670.604 346.751 667.668 329.801 669.296C316.131 670.604 272.093 683.013 257.551 680.191C243.032 677.37 214.82 649.663 207.916 643.791C199.842 636.933 177.25 632.162 169.979 630.946C162.708 629.731 160.69 613.583 160.69 607.941C160.69 597.642 167.364 581.61 172.892 571.517C184.704 550.026 190.943 524.406 193.168 511.286C194.039 506.171 195.897 488.877 198.925 479.496C201.953 470.115 207.71 461.949 212.251 460.114C216.793 458.302 230.417 466.468 237.069 471.628C243.72 476.766 247.665 476.17 257.643 474.06C267.643 471.95 292.139 468.922 321.819 473.142C351.476 477.386 383.473 493.327 383.473 493.327C379.849 496.95 376.202 501.997 389.024 495.253C393.496 492.891 408.91 488.9 417.786 487.294C426.663 485.689 445.631 487.294 447.65 489.313C449.668 491.331 449.668 498.602 450.058 507.066C450.471 515.529 445.608 530.874 445.608 543.787C445.608 572.045 456.71 599.477 456.71 641.245L456.733 641.199Z" fill="#0E141B"/>
<path d="M439.645 495.735C437.535 494.588 413.658 512.181 413.658 515.621C413.658 519.062 433.911 534.154 437.351 532.434C440.104 531.058 443.406 497.8 439.645 495.735Z" fill="#0E141B"/>
<path d="M436.365 503.258C435.012 502.34 419.162 511.767 419.162 515.116C419.162 517.731 432.879 526.883 434.645 526.011C435.149 525.759 438.085 504.405 436.365 503.258Z" fill="#485157"/>
<path d="M210.646 467.844C210.646 467.844 212.182 488.762 212.939 494.221C213.375 497.34 203.191 506.263 199.567 507.226C197.228 507.845 205.485 467.844 210.646 467.844Z" fill="#0E141B"/>
<path d="M208.673 478.028C208.673 478.028 209.2 487.065 209.957 492.501C210.187 494.152 204.751 500.162 203.787 500.23C203.168 500.276 207.572 478.005 208.65 478.005L208.673 478.028Z" fill="#485157"/>
<path d="M268.882 563.582C266.244 559.27 248.812 563.398 246.908 567.596C245.005 571.793 255.693 597.597 260.28 597.597C264.868 597.597 272.506 569.499 268.882 563.582Z" fill="#007A96"/>
<path d="M244.225 567.022C242.367 573.192 252.642 601.037 260.854 599.89C268.583 598.812 275.281 567.595 270.418 561.861C266.129 556.999 245.693 562.159 244.225 567.022ZM249.34 568.444C249.936 566.38 264.409 561.769 267.093 564.843C270.028 568.215 264.34 594.248 259.936 594.867C256.725 595.326 248.124 572.733 249.363 568.421L249.34 568.444Z" fill="#0E141B"/>
<path d="M290.029 503.029C279.983 508.74 285.098 574.775 298.378 577.894C311.659 581.036 364.092 541.7 364.734 533.305C365.766 519.773 304.663 494.726 290.029 503.029Z" fill="#007A96"/>
<path d="M287.047 501.033C277.689 509.015 281.451 572.917 296.406 579.958C309.755 586.243 364.917 545.897 367.532 535.53C372.601 515.437 298.47 491.285 287.047 501.033ZM298.47 575.05C287.804 570.027 284.501 511.768 290.878 505.942C299.938 497.684 364.917 522.066 362.004 534.2C360.445 540.737 308.768 579.912 298.447 575.05H298.47Z" fill="#0E141B"/>
<path d="M175.048 660.673C173.488 662.53 176.47 681.591 180.071 682.325C183.672 683.059 194.108 668.7 192.824 664.411C191.539 660.122 177.342 657.966 175.048 660.696V660.673Z" fill="#007A96"/>
<path d="M180.071 682.325C183.649 683.036 194.108 668.7 192.824 664.411C192.411 663.012 190.576 661.819 188.259 660.971C185.369 668.953 181.837 674.962 177.8 679.481C178.488 681.063 179.268 682.164 180.071 682.325Z" fill="#00657D"/>
<path d="M173.465 658.585C170.529 660.924 173.305 683.425 179.383 685.145C184.521 686.613 197.801 667.553 194.475 662.392C191.31 657.484 177.296 655.511 173.442 658.562L173.465 658.585ZM180.621 679.984C178.259 679.801 175.713 663.562 176.975 662.438C178.787 660.832 188.993 662.369 190.645 664.846C191.929 666.773 183.03 680.191 180.621 679.984Z" fill="#0E141B"/>
<path d="M351.041 443.348C330.054 418.599 278.377 420.411 270.373 435.595C269.111 438.003 269.249 444.128 270.395 447.797C276.52 445.894 282.712 446.192 286.015 447.316C279.547 449.586 271.29 454.472 268.882 458.738C268.056 460.206 266.909 469.885 267.437 473.762C275.12 471.239 296.796 467.546 303.837 467.11C289.823 472.798 272.391 482.569 264.363 491.56C265.877 498.212 274.822 518.993 278.194 524.933C283.102 521.539 294.64 511.515 297.897 507.547C295.901 515.208 289.892 530.644 285.992 537.548C289.02 543.856 298.218 555.967 302.667 561.655C303.837 553.719 306.911 540.278 308.539 532.984C311.039 540.805 312.989 550.141 313.815 558.26C320.053 557.389 335.903 553.765 343.334 550.186C342.256 543.466 336.086 520.094 333.769 513.74C339.458 518.006 348.541 532.594 351.614 540.347C355.88 539.154 365.995 535.002 368.839 532.709C368.289 524.635 364.137 507.387 358.793 498.373C365.261 501.469 375.927 516.149 380.078 529.773C388.382 526.057 399.208 518.534 404.621 513.029C403.221 505.689 392.418 480.367 384.643 470.229C392.671 473.578 409.598 493.372 416.318 507.387C421.938 504.107 431.548 496.951 435.287 491.033C425.057 452.476 375.376 436.169 351.018 443.325L351.041 443.348Z" fill="#00A73C"/>
<path d="M268.262 450.183C268.538 451.124 269.409 451.697 270.602 451.009C274.134 448.968 277.942 448.142 281.245 448.096C275.373 450.091 271.634 452.523 267.184 457.523C267.001 457.752 266.749 457.936 266.68 458.211C265.739 461.904 264.753 470.276 265.304 475.047C265.418 476.102 265.785 476.514 266.978 476.147C273.446 474.152 284.96 471.216 295.144 469.473C281.543 475.436 268.836 482.639 261.519 490.231C261.198 490.552 261.106 491.102 261.198 491.469C263.767 500.988 270.602 517.686 276.588 527.457C277.024 528.191 277.758 528.374 278.423 527.961C285.373 523.718 290.58 517.892 294.823 512.984C290.786 522.824 285.534 532.273 283.034 537.48C282.873 537.824 282.85 538.237 283.034 538.65C285.901 544.132 297.208 558.88 302.209 565.188C303.333 566.61 305.144 565.853 305.305 563.949C306.016 556.082 307.553 545.531 308.47 539.338C310.213 546.311 310.649 555.21 311.406 560.05C311.521 560.761 312.163 561.219 312.874 561.128C321.475 560.073 336.705 555.738 345.582 552.205C346.224 551.953 346.476 551.403 346.385 550.806C345.1 542.824 340.926 529.269 336.958 519.131C341.843 525.37 346.912 535.209 350.1 542.48C350.353 543.031 350.995 543.283 351.591 543.122C356.339 541.838 365.881 538.283 371.454 534.957C371.913 534.682 372.165 534.2 372.074 533.65C370.262 522.296 367.257 511.975 362.555 502.915C369.207 509.566 374.872 522.021 378.611 532.228C378.863 532.916 379.62 533.237 380.285 533.007C386.363 530.737 400.767 520.69 407.465 514.383C407.832 514.039 407.992 513.58 407.878 513.098C405.401 502.158 397.946 488.166 389.299 474.817C399.254 483.831 410.836 500.736 414.69 510.461C415.034 511.355 415.584 511.562 416.41 511.172C423.153 508.098 434.347 498.373 438.177 491.721C438.36 491.4 438.521 491.056 438.452 490.689C434.232 464.335 393.657 432.155 351.912 441.238C335.811 421.604 287.69 413.186 268.515 433.417C265.671 436.421 267.253 446.903 268.217 450.16L268.262 450.183ZM353.243 537.709C349.206 529.567 341.591 519.085 334.32 510.484C331.636 507.318 330.122 508.649 331.292 512.158C334.962 523.374 339.182 538.237 341.017 548.467C333.678 551.311 323.287 554.545 315.833 555.806C314.755 548.214 312.737 539.315 310.397 532.251C309.48 529.475 307.736 528.787 306.589 532.503C305.076 537.342 302.53 547.526 301.452 555.783C296.681 549.751 291.383 542.687 288.492 537.388C293.63 527.342 297.346 516.172 301.131 504.749C302.071 501.882 299.846 501.401 298.286 503.557C295.328 507.639 289.112 514.245 278.836 522.044C273.194 511.63 268.744 499.864 266.496 491.928C275.281 483.074 290.144 474.06 306.406 468.28C309.388 467.225 309.09 464.886 305.787 464.977C296.337 465.23 279.043 468.211 269.478 471.078C269.134 466.927 269.547 461.881 270.395 459.312C275.327 454.014 279.845 451.284 287.667 448.991C290.35 448.211 290.213 446.651 287.873 445.917C283.859 444.678 278.561 444.243 272.207 445.802C271.611 443.05 270.969 438.21 272.597 436.605C289.662 419.907 335.88 426.673 349.389 445.481C349.687 445.917 350.238 446.1 350.743 445.986C391.868 436.467 428.383 467.982 432.489 490.598C429.071 495.414 422.121 501.47 417.58 504.199C410.332 490.185 393.359 472.363 384.482 467.156C381.592 465.459 380.491 466.721 382.464 469.725C392.762 485.529 398.818 499.084 402.488 512.25C395.698 518.007 387.12 523.993 381.546 526.539C376.638 513.718 366.729 499.887 358.22 495.254C355.926 494.015 354.022 494.474 356.201 497.823C362.096 506.974 364.826 518.328 367.073 531.562C361.981 534.452 357.876 536.379 353.288 537.709H353.243Z" fill="#0E141B"/>
<path d="M347.348 441.1C314.64 446.306 302.14 487.523 306.773 524.107C307.369 528.855 309.388 528.465 308.975 523.694C305.718 485.78 318.677 448.187 349.55 443.898L347.348 441.1Z" fill="#0E141B"/>
<path d="M350.788 444.151C332.554 450.986 313.677 466.743 311.658 507.295C311.406 512.181 313.287 512.158 313.746 507.295C316.98 472.546 332.118 451.215 361.89 443.325L350.788 444.174V444.151Z" fill="#0E141B"/>
<path d="M334.893 455.023C347.898 455.504 359.619 463.051 365.972 475.138C367.761 478.556 369.39 477.661 367.83 474.129C362.234 461.514 350.513 452.11 338.403 451.995L334.916 455L334.893 455.023Z" fill="#0E141B"/>
<path d="M312.255 409.516C290.465 398.942 257.138 386.396 237.137 380.845C233.123 379.744 232.55 381.74 236.541 382.864C257.001 388.552 291.566 402.933 313.172 413.576L312.255 409.516Z" fill="#0E141B"/>
<path d="M314.824 422.567C283.538 403.988 238.422 384.722 207.159 375.983C203.214 374.882 202.641 376.74 206.586 377.887C237.711 386.946 284.662 407.956 315.81 426.742L314.824 422.59V422.567Z" fill="#0E141B"/>
<path d="M263.927 390.754C263.102 382.703 261.381 374.538 259.156 367.886C258.354 365.478 256.886 365.868 257.551 368.322C259.34 374.974 260.441 382.13 261.244 389.974L263.927 390.754Z" fill="#0E141B"/>
<path d="M270.395 393.048C270.395 389.355 269.593 382.887 268.4 379.745C267.689 377.864 266.29 378.208 266.703 380.181C267.46 383.85 268.056 388.782 268.056 392.291L270.395 393.071V393.048Z" fill="#0E141B"/>
<path d="M272.322 402.452C268.354 406.076 258.721 414.769 253.377 417.82C251.381 418.967 252.184 420.503 254.225 419.448C260.349 416.306 270.074 408.553 274.822 403.668L272.322 402.475V402.452Z" fill="#0E141B"/>
<path d="M283.125 407.36C278.125 411.214 273.286 414.723 264.638 419.631C262.597 420.778 263.216 422.361 265.326 421.329C273.171 417.498 280.488 412.613 285.602 408.691L283.148 407.383L283.125 407.36Z" fill="#0E141B"/>
<path d="M502.858 443.417C526.919 440.687 580.499 440.618 601.187 442.018C605.339 442.293 605.224 444.403 601.073 444.105C579.902 442.683 524.556 444.059 500.633 446.903L502.835 443.394L502.858 443.417Z" fill="#0E141B"/>
<path d="M496.092 454.862C531.781 447.729 604.835 445.183 637.198 447.293C641.281 447.568 641.212 449.495 637.129 449.266C604.766 447.477 529.396 451.055 493.775 458.44L496.092 454.839V454.862Z" fill="#0E141B"/>
<path d="M538.617 442.889C542.08 435.572 547.355 426.351 551.668 420.824C553.227 418.828 554.466 419.677 553.021 421.764C549.122 427.429 544.764 435.916 541.392 443.049L538.594 442.889H538.617Z" fill="#0E141B"/>
<path d="M547.814 441.765C549.029 438.279 551.942 432.453 554.121 429.884C555.406 428.347 556.622 429.127 555.589 430.847C553.64 434.058 551.461 438.508 550.291 441.811L547.814 441.765Z" fill="#0E141B"/>
<path d="M573.549 448.555C576.095 453.28 582.288 464.679 586.325 469.335C587.838 471.078 586.577 472.248 584.994 470.574C580.246 465.574 573.664 455.023 570.819 448.853L573.572 448.555H573.549Z" fill="#0E141B"/>
<path d="M516.024 453.349C514.235 460.688 512.538 472.914 512.744 479.084C512.836 481.377 511.115 481.515 510.909 479.221C510.359 472.34 511.826 460 513.478 453.394L516.024 453.349Z" fill="#0E141B"/>
<path d="M563.181 449.312C566.026 454.931 567.241 458.165 572.93 466.308C574.26 468.234 573.044 469.381 571.576 467.546C566.163 460.711 563.296 455.183 560.406 449.426L563.204 449.312H563.181Z" fill="#0E141B"/>
</g>
<defs>
<clipPath id="clip0_42_58198">
<rect width="620" height="543.919" fill="white" transform="translate(120 216)"/>
</clipPath>
</defs>
</svg>
