<svg width="800" height="800" viewBox="0 0 800 800" fill="none" xmlns="http://www.w3.org/2000/svg">
<g clip-path="url(#clip0_42_60415)">
<path d="M599.42 311.27C596.855 318.234 590.787 322.259 585.866 320.257C580.945 318.255 579.047 310.978 581.612 304.013C584.177 297.048 590.245 293.024 595.166 295.026C600.087 297.027 601.985 304.305 599.42 311.27Z" fill="#F0EA0D"/>
<path d="M595.187 295.024C594.144 294.586 598.336 310.789 585.824 320.214C585.845 320.214 585.866 320.235 585.887 320.256C590.808 322.258 596.855 318.233 599.441 311.268C602.006 304.304 600.108 297.026 595.187 295.024Z" fill="#CFCA10"/>
<path d="M597.647 334.208C596.146 343.028 589.89 349.243 583.655 348.075C577.42 346.907 573.604 338.795 575.085 329.975C576.586 321.154 582.842 314.94 589.077 316.108C595.312 317.276 599.128 325.387 597.626 334.208H597.647Z" fill="#F0EA0D"/>
<path d="M589.786 316.295C595.479 329.328 587.888 340.713 579.36 345.885C580.59 347.011 582.05 347.782 583.655 348.074C589.869 349.242 596.146 343.028 597.647 334.207C599.086 325.72 595.604 317.921 589.786 316.295Z" fill="#CFCA10"/>
<path d="M598.336 356.77C597.501 366.466 590.704 373.848 583.155 373.264C575.585 372.68 570.122 364.36 570.956 354.663C571.79 344.967 578.588 337.585 586.137 338.169C593.706 338.753 599.149 347.073 598.336 356.77Z" fill="#F0EA0D"/>
<path d="M587.659 338.398C595.02 353.516 586.929 368.717 578.546 371.804C579.964 372.596 581.507 373.117 583.155 373.242C590.703 373.826 597.501 366.444 598.335 356.748C599.107 347.719 594.415 339.878 587.659 338.377V338.398Z" fill="#CFCA10"/>
<path d="M597.585 380.792C596.959 391.302 589.536 399.539 581.007 399.184C572.478 398.83 566.077 390.03 566.702 379.52C567.328 369.01 574.751 360.774 583.28 361.128C591.809 361.483 598.21 370.282 597.585 380.792Z" fill="#F0EA0D"/>
<path d="M586.929 361.836C593.102 376.308 587.409 393.865 577.087 398.349C578.338 398.828 579.652 399.12 581.028 399.183C589.536 399.537 596.98 391.301 597.606 380.791C598.148 371.845 593.581 364.151 586.95 361.836H586.929Z" fill="#CFCA10"/>
<path d="M600.921 412.279C600.817 424.499 593.06 434.466 583.614 434.571C574.167 434.654 566.598 424.832 566.702 412.613C566.827 400.393 574.584 390.426 584.01 390.342C593.456 390.259 601.026 400.101 600.9 412.3L600.921 412.279Z" fill="#F0EA0D"/>
<path d="M587.471 390.738C595.02 403.855 590.266 426.626 574.939 431.526C577.483 433.465 580.444 434.591 583.634 434.57C593.081 434.487 600.838 424.499 600.942 412.279C601.046 401.602 595.27 392.719 587.492 390.738H587.471Z" fill="#CFCA10"/>
<path d="M532.066 555.181L529.313 525.445C547.059 508.575 560.384 457.111 565.701 436.697C571.019 416.282 603.277 412.591 606.53 445.58C612.745 508.596 602.986 540.542 584.343 577.806L532.066 555.202V555.181Z" fill="#796BAF"/>
<path d="M606.531 445.58C605.446 434.529 601.088 427.626 595.604 424.061C595.27 460.261 588.264 512.517 583.363 518.815C578.463 525.112 567.286 509.723 529.439 526.593L532.087 555.223L584.364 577.827C603.007 540.564 612.766 508.618 606.551 445.601L606.531 445.58Z" fill="#695C98"/>
<path d="M597.772 425.707C610.013 479.986 583.509 572.113 569.538 571.404L584.323 577.806C602.965 540.542 612.724 508.596 606.51 445.58C605.571 436.05 602.026 430.128 597.772 425.707Z" fill="#CFCA10"/>
<path d="M246.219 536.977C228.474 541.418 167.23 577.806 203.618 649.685C240.005 721.563 342.058 718.894 374.004 715.349C405.95 711.804 445.153 716.559 473.387 713.577C507.106 710.032 570.998 697.604 584.323 632.815C595.666 577.618 574.564 540.521 532.858 542.294L246.219 536.977Z" fill="#796BAF"/>
<path d="M532.859 542.294L487.129 541.439C488.401 545.881 476.765 605.79 471.469 614.799C491.758 622.952 504.332 657.901 473.575 669.099C442.817 680.276 366.622 688.679 297.412 681.673C228.203 674.687 188.354 635.526 198.196 579.308C190.168 597.032 188.791 620.408 203.618 649.664C240.005 721.543 342.058 718.874 374.004 715.329C405.95 711.784 445.153 716.538 473.387 713.556C507.106 710.011 570.998 697.583 584.323 632.794C595.666 577.598 574.564 540.501 532.859 542.274V542.294Z" fill="#695C98"/>
<path d="M459.332 702.944C422.903 701.609 389.351 704.403 375.088 704.403C318.286 710.826 286.131 704.236 240.61 689.285C268.407 709.262 310.112 721.44 374.004 715.351C405.992 712.306 445.153 716.56 473.387 713.578C493.447 711.472 545.579 701.108 564.346 674.521C541.22 690.724 508.92 702.964 459.332 702.964V702.944Z" fill="#CFCA10"/>
<path d="M230.622 683.696C234.917 686.511 238.566 688.263 241.34 690.932C238.963 686.386 229.245 665.68 235.876 645.348C240.547 630.96 257.334 612.589 279.855 612.068C256.187 598.764 245.448 566.859 245.448 566.859C223.261 568.632 189.354 585.877 196.528 632.837C209.456 667.056 221.509 677.753 230.622 683.696Z" fill="#796BAF"/>
<path d="M197.362 604.664C196.611 610.753 195.381 625.246 196.549 632.815C209.477 667.034 221.53 677.731 230.643 683.674C234.938 686.489 238.587 688.241 241.361 690.91C239.651 687.636 234.187 676.001 233.687 662.175C215.962 650.248 199.718 632.294 197.383 604.664H197.362Z" fill="#695C98"/>
<path d="M505.98 699.355C514.988 689.2 522.328 674.853 521.035 659.151C518.887 632.981 495.908 608.897 477.266 612.004C517.928 594.779 519.888 582.643 519.888 582.643C542.951 578.202 591.433 601.744 575.46 658.547C575.46 658.547 557.756 689.45 505.959 699.355H505.98Z" fill="#695C98"/>
<path d="M530.21 533.432C524.684 484.533 457.435 480.196 435.248 481.968C435.248 481.968 455.954 458.905 464.525 438.491C494.344 370.783 470.926 277.071 418.378 253.904C404.177 223.73 352.421 189.699 297.913 208.133C252.725 223.397 235.439 262.474 235.585 276.988C221.384 291.188 200.74 333.248 239.38 346.635C262.464 354.622 281.731 348.887 281.731 348.887C281.731 348.887 263.318 371.825 269.303 381.73C291.428 418.347 336.74 403.917 336.74 403.917C341.182 451.836 278.437 462.596 256.249 506.95C232.79 553.847 247.846 595.302 292.158 622.056C329.025 644.326 426.615 635.339 465.421 617.76C512.444 596.47 535.528 580.497 530.21 533.453V533.432Z" fill="#796BAF"/>
<path d="M412.268 352.266C399.527 383.19 380.698 392.511 336.886 406.795C337.428 421.725 331.235 432.965 321.935 442.87C338.137 443.808 409.078 434.446 412.289 352.266H412.268Z" fill="#695C98"/>
<path d="M530.21 533.433C524.684 484.533 457.435 480.196 435.248 481.969C435.248 481.969 455.954 458.906 464.525 438.491C494.344 370.783 470.926 277.072 418.378 253.904C404.469 224.356 354.569 191.159 301.312 207.069C346.583 201.669 382.616 223.48 391.249 256.97C397.192 280.012 388.684 283.473 409.453 290.167C459.291 306.265 474.826 394.909 443.192 443.496C402.843 505.407 353.923 507.325 339.701 523.987C325.73 540.356 323.52 565.858 351.65 576.014C373.858 584.042 393.334 581.477 407.931 581.477C417.064 581.477 403.322 630.543 352.484 636.778C393.313 638.53 439.147 629.626 465.421 617.719C503.873 600.307 526.29 586.44 530.294 556.287C531.19 549.552 531.169 542.003 530.21 533.412V533.433Z" fill="#695C98"/>
<path d="M282.461 348.491C305.733 345.321 329.233 330.703 348.293 315.127C356.592 308.329 369.416 335.5 366.935 350.618C362.493 377.538 297.037 400.685 268.427 378.122C262.234 370.74 282.461 348.491 282.461 348.491Z" fill="#933000"/>
<path d="M349.773 372.221C359.073 366.048 365.621 358.5 366.914 350.618C369.416 335.5 356.571 308.329 348.272 315.127C329.213 330.703 305.712 345.321 282.44 348.491C282.44 348.491 262.213 370.74 268.407 378.122C270.471 379.749 272.744 381.104 275.163 382.272C303.668 356.853 323.311 366.632 349.773 372.2V372.221Z" fill="#6A1B00"/>
<path d="M363.119 360.043C370.813 347.094 365.141 332.872 365.141 332.872C334.968 324.886 291.052 349.283 302.125 386.109C316.847 391.385 355.403 372.993 363.098 360.043H363.119Z" fill="#EE869A"/>
<path d="M365.141 332.872C347.208 328.118 324.416 334.812 311.217 348.762C325.146 346.134 347.375 352.265 350.149 371.867C356.154 367.946 360.908 363.776 363.119 360.064C370.813 347.115 365.141 332.893 365.141 332.893V332.872Z" fill="#CF7487"/>
<path d="M480.039 367.947C476.515 377.373 468.153 390.927 460.104 398.225C432.433 423.311 381.719 433.925 348.188 403.584C346.166 403.188 341.953 404.752 337.658 406.629C339.138 432.277 321.747 444.33 321.747 444.33C324.416 470.062 373.149 513.039 439.71 476.652C439.71 476.652 480.456 435.551 480.06 367.947H480.039Z" fill="#F0EA0D"/>
<path d="M348.168 403.562C346.145 403.166 341.933 404.73 337.637 406.606C338.68 424.873 330.193 436.217 325.188 441.242C337.324 443.828 358.948 441.472 383.45 421.141C369.938 419.264 359.344 413.675 348.168 403.562Z" fill="#CFCA10"/>
<path d="M479.914 369.553C475.431 377.852 469.237 390.656 458.894 398.392C447.884 452.859 425.885 469.395 397.213 491.04C411.163 490.331 423.091 485.722 439.689 476.651C439.689 476.651 480.31 437.157 479.914 369.574V369.553Z" fill="#CFCA10"/>
<path d="M418.357 546.925C464.003 579.538 434.351 628.104 431.536 628.375C448.468 624.413 456.768 619.679 469.279 614.57C481.791 609.461 505.729 595.886 505.729 595.886C529.23 565.984 501.851 511.204 449.615 523.903C447.926 528.699 445.841 538 418.357 546.904V546.925Z" fill="#695C98"/>
<path d="M334.447 284.307C328.733 274.924 340.306 245.021 360.7 243.249C375.338 241.977 377.757 248.816 381.386 253.8C383.971 291.626 338.826 291.501 334.447 284.328V284.307Z" fill="#F0EA0D"/>
<path d="M381.386 253.778C380.677 252.798 380.009 251.756 379.3 250.713C371.147 286.329 333.863 283.347 334.446 284.306C338.826 291.48 383.971 291.605 381.386 253.778Z" fill="#CFCA10"/>
<path d="M595.521 292.795C593.352 291.877 591.287 292.315 588.931 293.399C585.49 294.963 581.654 299.134 580.069 303.534C578.129 308.935 578.901 314.669 581.466 318.214C582.446 317.713 583.489 317.296 584.281 316.754C582.196 314.023 581.716 309.247 583.384 304.576C584.677 300.948 587.075 298.07 589.786 296.84C591.392 296.11 592.997 296.027 594.394 296.632C597.105 297.758 598.648 301.073 598.648 304.993C598.648 306.808 598.315 308.747 597.627 310.665C596.667 313.334 595.103 315.607 593.268 317.109C593.79 317.901 594.123 318.965 594.645 319.966C597.189 318.839 599.232 315.712 600.442 312.313C603.173 304.681 600.963 295.047 595.521 292.774V292.795Z" fill="#0E141B"/>
<path d="M589.515 313.479C586.742 312.957 583.843 314.521 581.257 316.335C577.42 319.005 574.042 324.322 573.083 329.91C572.166 335.353 573.292 340.483 575.731 344.174C576.169 342.964 576.816 341.859 577.733 340.983C576.42 338.043 575.94 334.227 576.607 330.244C577.42 325.469 579.798 321.298 582.946 319.109C584.823 317.795 586.846 317.295 588.764 317.67C593.331 318.525 596.375 323.905 596.375 330.39C596.375 331.558 596.271 332.767 596.063 333.977C595.625 336.604 594.686 339.044 593.414 341.087C593.998 342.172 595.062 342.902 595.979 343.652C597.793 341.504 599.128 338.898 599.733 335.666C601.776 324.614 597.585 315.022 589.473 313.499L589.515 313.479Z" fill="#0E141B"/>
<path d="M595.521 340.921C593.06 338.043 589.828 335.937 586.366 335.666C577.963 335.02 569.726 343.882 568.829 354.413C568.496 358.375 569.83 362.545 571.519 365.652C572.249 364.797 572.77 364.38 573.813 363.838C572.687 361.148 572.228 358.02 572.499 354.767C573.25 345.946 579.318 339.19 586.012 339.691C588.66 339.899 591.1 341.213 593.039 343.486C595.5 346.384 596.855 350.43 596.855 354.767C596.855 355.372 596.834 355.976 596.772 356.581C596.459 360.272 595.208 363.567 593.394 366.153C593.915 367.383 594.52 367.862 595.375 368.759C597.981 365.756 600.087 362.045 600.483 357.415C600.984 351.556 598.857 344.779 595.521 340.858V340.921Z" fill="#0E141B"/>
<path d="M594.478 364.464C591.621 361.315 587.471 359.084 583.53 358.917C574.167 358.521 565.076 367.175 564.492 379.77C564.2 385.921 567.119 392.031 570.789 396.118C571.123 394.867 572.812 393.574 572.729 393.491C569.58 390.009 567.974 384.962 568.287 379.603C568.871 369.969 575.585 362.379 583.238 362.692C586.387 362.817 589.286 364.256 591.6 366.82C594.749 370.303 596.354 375.349 596.042 380.708C595.791 384.9 594.374 388.716 592.226 391.656C592.643 392.323 593.873 393.47 594.561 394.471C597.46 392.24 600.045 386.61 600.358 381.501C600.734 375.328 598.169 368.593 594.478 364.506V364.464Z" fill="#0E141B"/>
<path d="M595.979 392.511C592.685 389.217 588.973 387.298 584.74 387.256C572.958 387.152 563.449 400.456 564.012 413.635C564.242 418.994 567.015 424.395 569.747 428.503C570.393 427.669 571.519 426.459 571.769 425.896C569.684 422.351 568.245 417.284 568.287 412.613C568.391 401.269 575.481 391.969 584.052 391.886C587.451 391.865 590.662 393.262 593.331 395.952C597.23 399.851 599.42 405.794 599.357 412.28C599.316 416.909 598.106 421.204 596.104 424.666C596.918 425.75 598.002 426.459 599.128 427.043C602.193 423.936 603.611 418.077 603.653 412.613C603.716 405.294 600.442 397.015 595.958 392.532L595.979 392.511Z" fill="#0E141B"/>
<path d="M564.513 436.218C560.738 449.418 545.454 501.779 529.063 521.13L529.606 530.889C547.581 513.811 566.264 443.746 567.411 437.157C568.558 430.588 575.544 421.705 586.867 422.915C596.688 423.957 603.382 432.236 604.717 445.748C610.764 507.013 601.651 539.147 582.717 576.994L585.136 582.291C605.113 551.742 615.977 506.783 608.282 445.394C606.009 427.314 596.209 419.828 587.159 419.349C578.15 418.869 568.642 421.809 564.513 436.218Z" fill="#0E141B"/>
<path d="M597.501 425.395C599.67 432.63 607.511 498.483 577.233 563.501L578.484 566.837C609.575 500.068 601.297 433.402 598.961 425.666L597.501 425.395Z" fill="#0E141B"/>
<path d="M200.24 651.061C239.442 728.529 348.897 721.063 370.813 718.624C387.329 716.789 409.307 715.996 427.24 716.392C444.068 716.747 462.21 717.373 475.869 715.934C530.21 710.22 576.899 685.927 587.492 634.317C594.165 601.891 591.058 573.844 576.837 557.142C566.827 545.381 550.145 539.5 532.775 540.23L532.963 544.401C549.019 543.713 562.49 550.114 571.644 560.853C585.011 576.555 588.702 601.266 582.3 632.398C572.875 678.253 532.567 704.527 473.199 711.492C459.812 713.056 444.027 712.556 427.345 712.201C409.265 711.805 390.582 711.409 373.795 713.265C352.359 715.642 243.467 723.733 205.494 648.726C192.691 623.432 190.918 600.285 200.219 579.913C211.646 554.91 235.251 541.94 245.49 539.375L245.719 534.934C214.628 539.625 167.147 585.668 200.24 651.041V651.061Z" fill="#0E141B"/>
<path d="M195.548 630.481L197.883 632.712C190.251 591.236 220.07 569.216 247.22 567.61L246.365 565.838C220.07 566.526 188.625 583.729 195.527 630.481H195.548Z" fill="#0E141B"/>
<path d="M240.756 631.293C232.603 642.824 224.366 663.26 242.257 691.911L244.801 692.62C228.933 664.365 237.253 643.116 244.968 632.169C254.936 618.051 270.721 612.63 281.147 613.589L280.167 611.712C268.99 610.69 251.37 616.321 240.777 631.314L240.756 631.293Z" fill="#0E141B"/>
<path d="M477.829 611.985C492.238 612.256 508.503 625.643 515.676 643.159C523.538 662.344 518.762 683.384 503.957 699.795C503.331 700.504 506.605 700.274 507.273 699.607C523.183 683.53 526.478 662.344 518.178 642.117C510.484 623.37 495.929 610.483 480.248 610.191L477.808 611.964L477.829 611.985Z" fill="#0E141B"/>
<path d="M520.806 581.413L518.929 583.561C530.627 581.309 550.229 586.731 563.533 601.182C572.854 611.316 581.236 631.272 573.146 660.027L575.836 656.795C585.782 628.04 575.314 609.981 565.534 599.347C551.584 584.166 533.234 579.015 520.827 581.413H520.806Z" fill="#0E141B"/>
<path d="M414.166 547.508C426.948 552.701 436.749 565.587 440.398 581.998C443.088 594.051 441.462 606.73 436.666 616.926C436.311 617.656 440.315 617.469 441.128 615.738C445.799 605.812 446.737 594.03 443.901 581.227C440.002 563.69 430.952 551.22 417.106 545.59L414.187 547.529L414.166 547.508Z" fill="#0E141B"/>
<path d="M449.699 522.068L449.115 524.716C467.674 519.544 488.464 525.279 500.808 539.667C510.192 550.573 513.549 564.419 510.671 578.953C510.463 580.038 514.279 579.892 514.8 575.888C516.656 561.667 512.84 548.175 503.519 537.332C490.257 521.901 469.571 516.5 449.699 522.047V522.068Z" fill="#0E141B"/>
<path d="M530.481 558.789C509.087 592.403 442.65 623.161 380.864 624.996C312.947 626.998 283.566 613.464 258.355 590.068C276.164 617.989 302.584 635.547 368.082 635.547C375.63 635.547 409.14 634.63 441.191 625.246C473.241 615.862 491.237 604.79 501.267 598.013C511.297 591.236 522.891 580.038 525.372 574.679C527.854 569.32 530.46 558.789 530.46 558.789H530.481Z" fill="#F0EA0D"/>
<path d="M384.889 624.808C378.133 629.459 369.917 633.254 360.137 635.443C362.723 635.506 365.35 635.547 368.082 635.547C375.63 635.547 409.14 634.63 441.191 625.246C473.241 615.863 491.237 604.79 501.267 598.013C508.065 593.425 515.593 586.794 520.493 581.331C524.976 575.179 528.042 568.215 529.626 560.02C507.919 592.424 444.736 621.868 384.868 624.829L384.889 624.808Z" fill="#CFCA10"/>
<path d="M309.966 347.469C299.435 358.563 296.182 374.015 300.644 387.861L303.793 388.236C299.748 375.683 302.834 360.523 312.405 350.43C325.23 336.918 347.688 330.099 364.662 334.603L364.349 332.018C345.915 327.138 323.791 332.852 309.924 347.469H309.966Z" fill="#0E141B"/>
<path d="M533.442 533.224C528.146 486.348 467.507 478.653 439.71 479.612C449.845 468.957 478.579 440.535 481.04 378.165C482.958 329.641 461.689 273.13 419.921 252.319C407.931 221.52 355.132 185.883 295.723 205.693C248.242 221.52 234 259.951 233.52 276.988C206.954 306.745 201.699 357.771 276.685 351.619C267.364 360.482 264.486 373.64 265.8 378.06C272.702 401.165 304.94 414.219 334.822 408.401C334.822 432.068 323.541 441.056 295.557 461.721C279.271 473.753 258.335 493.083 251.036 509.244C225.93 564.858 262.109 609.169 290.364 624.371C338.471 650.249 435.873 634.005 467.006 619.908C511.86 599.598 539.093 583.395 533.401 533.224H533.442ZM283.149 350.41C313.302 344.05 332.278 330.225 349.273 316.337C349.982 315.753 351.17 315.106 353.172 316.274C359.845 320.174 367.414 338.795 365.371 350.347C363.161 362.88 349.919 373.744 328.879 380.604C309.423 386.944 281.273 387.34 270.179 377.581C268.156 369.302 277.248 357.771 283.128 350.41H283.149ZM464.4 614.32C423.529 632.837 329.65 640.844 292.158 618.49C250.536 593.697 237.524 549.76 258.126 507.826C267.135 489.476 283.483 477.068 299.185 465.036C320.267 448.855 339.118 439.388 339.368 407.483C376.152 399.038 398.339 384.566 408.369 366.842C416.48 352.516 412.393 338.295 409.995 334.353C407.576 330.412 405.7 330.016 407.034 335.375C408.369 340.713 411.351 351.765 403.865 365.007C394.439 381.668 368.269 396.64 337.199 402.875C312.239 407.879 283.525 402.374 273.182 383.649C288.488 392.699 311.842 390.259 328.691 384.775C346.041 379.124 365.6 367.259 368.499 350.91C370.647 338.753 363.411 317.838 355.007 312.896C352.359 311.332 349.502 312.145 347.333 313.918C330.318 327.827 288.425 357.354 241.632 344.217C229.913 340.922 223.177 333.394 220.988 323.865C217.568 309.038 226.159 290.667 234.354 280.95C236.502 292.21 244.76 296.902 256.708 299.154C283.963 304.284 326.064 288.248 333.383 276.946L332.778 274.84C326.523 284.516 285.631 300.468 258.585 295.38C246.928 293.19 238.254 287.956 237.691 276.967C237.149 266.02 252.183 225.149 298.601 210.114C355.237 191.764 406.033 228.464 416.522 254.801C424.029 273.672 424.154 267.25 421.423 257.991C436.228 263.079 461.251 293.628 470.343 329.995C479.476 366.55 476.682 405.794 462.648 437.657C442.067 484.367 401.738 503.676 378.258 516.605C362.994 525.008 353.13 530.326 349.836 536.498C348.71 533.057 349.898 528.574 347.459 529.867C345.394 530.951 345.373 537.812 347.459 542.378C350.691 549.427 358.594 552.805 371.835 553.993C397.609 556.266 440.169 545.381 449.719 530.034C452.389 525.759 452.138 521.901 447.676 518.481C443.213 515.062 443.547 517.418 445.028 519.461C446.487 521.505 446.633 525.008 444.819 527.928C436.853 540.71 398.86 552.179 372.211 549.823C364.433 549.135 354.757 546.924 351.546 540.481C354.674 533.245 365.913 527.49 380.134 520.316C396.817 511.892 417.231 501.528 435.435 483.991V484.054C459.437 482.135 522.912 487.307 528.146 533.683C533.317 579.454 511.526 593.008 464.4 614.341V614.32Z" fill="#0E141B"/>
<path d="M416.418 418.638C400.612 422.538 366.33 421.412 348.876 402.332L346.395 403.02C369.708 428.314 403.594 425.499 419.984 421.453C450.491 413.926 472.449 393.636 478.412 371.24L477.412 368.926C471.761 390.07 445.549 411.465 416.397 418.659L416.418 418.638Z" fill="#0E141B"/>
<path d="M321.205 444.829C322.623 458.467 335.531 474.273 352.588 483.24C367.414 491.039 395.44 501.381 437.25 478.527L439.043 475.441C398.339 497.69 368.207 488.369 353.839 480.821C334.801 470.832 323.499 453.337 322.415 442.869L321.205 444.808V444.829Z" fill="#0E141B"/>
<path d="M230.914 331.371C231.435 332.726 232.999 333.185 233.875 334.54C234.751 335.896 235.397 333.977 235.126 332.247C234.855 330.516 233.52 328.368 232.436 327.68C231.352 326.992 230.413 330.036 230.935 331.392L230.914 331.371Z" fill="#0E141B"/>
<path d="M262.005 336.334C261.15 337.627 261.546 338.336 263.068 337.982C264.591 337.627 268.344 335.75 269.199 335.041C270.054 334.312 269.053 332.018 267.614 331.872C266.175 331.726 262.86 335.041 261.984 336.334H262.005Z" fill="#0E141B"/>
<path d="M360.596 241.893C350.962 242.727 341.807 249.942 336.115 261.182C331.402 270.503 330.276 280.074 333.279 285.016C336.115 289.666 349.606 290.813 360.512 287.351C369.479 284.495 381.594 278.197 382.699 256.865C382.803 254.905 381.677 252.09 381.177 251.151C379.988 248.941 374.212 240.725 360.554 241.914L360.596 241.893ZM334.342 277.884C334.342 273.464 335.823 267.792 338.534 262.391C343.788 252.006 352.129 245.334 360.825 244.583C372.878 243.54 377.528 248.733 379.55 253.195C383.179 261.202 375.359 279.198 359.699 284.745C348.063 288.874 337.178 286.184 335.593 283.577C334.738 282.18 334.321 280.199 334.321 277.864L334.342 277.884Z" fill="#0E141B"/>
<path d="M350.753 246.419C356.071 249.067 370.229 260.765 365.663 283.223L367.164 281.743C373.628 264.686 363.369 247.92 355.883 244.188L350.753 246.419Z" fill="#0E141B"/>
<path d="M259.961 593.925C259.023 593.091 258.835 588.108 259.565 588.775C284.067 611.525 312.927 625.225 380.823 623.223C440.711 621.451 507.168 592.132 529.001 557.83C529.522 556.996 530.148 562.501 529.126 563.877C504.27 597.22 439.439 625.017 380.927 626.747C327.211 628.353 289.53 620.158 259.982 593.905L259.961 593.925Z" fill="#0E141B"/>
<path d="M325.084 708.615C302.104 708.615 277.019 702.005 264.111 698.084C250.724 693.997 238.358 689.139 230.309 684.926C229.225 684.343 224.804 677.232 225.575 677.837C236.94 686.928 287.925 705.07 325.084 705.07C341.099 705.07 356.675 703.986 370.417 703.026C382.241 702.192 393.418 701.421 403.281 701.421H466.36C513.591 701.421 557.84 684.426 572.583 659.528C573.083 658.694 571.373 665.888 570.581 666.868C552.335 689.889 511.777 704.966 466.36 704.966H403.281C393.543 704.966 382.428 705.737 370.667 706.551C356.863 707.51 341.224 708.615 325.084 708.615Z" fill="#0E141B"/>
</g>
<defs>
<clipPath id="clip0_42_60415">
<rect width="421.785" height="520" fill="white" transform="translate(189 200)"/>
</clipPath>
</defs>
</svg>
