<svg width="800" height="800" viewBox="0 0 800 800" fill="none" xmlns="http://www.w3.org/2000/svg">
<g clip-path="url(#clip0_42_60475)">
<path d="M496.89 520.925C490.855 521.876 484.878 522.885 478.94 523.933C480.415 517.762 482.472 511.378 485.247 504.76C500.965 467.424 535.759 423.005 560.501 415.534C650.834 388.328 693.856 340.028 693.856 265.744C693.856 152.299 554.68 44.8516 403.414 44.8516C252.149 44.8516 110.722 154.492 110.722 265.744C110.722 338.533 153.414 381.536 248.831 415.806C275.979 425.567 316.129 476.021 317.39 503.13C318.574 528.066 308.89 550.557 303.651 581.858C298.509 584.886 293.541 588.029 288.767 591.27C225.214 634.447 163.932 630.508 161.661 609.22C157.78 572.835 216.482 553.914 226.398 497.115C230.473 473.789 225.505 462.961 210.893 444.759C205.595 438.161 197.561 442.314 197.542 447.67C197.542 453.161 198.959 484.831 198.027 489.877C195.058 505.905 178.137 528.687 152.424 544.212C113.943 567.44 88.6387 638.542 117.009 688.782C142.295 733.551 262.531 746.882 318.613 699.552C349.37 744.476 421.772 760.699 508.514 754.276C620.095 746.028 695.292 681.583 695.292 619.408C695.292 546.346 586.64 506.817 496.871 520.925H496.89Z" fill="#837AA1"/>
<path d="M305.262 669.143C237.343 714.009 124.306 711.583 104.415 645.139C104.9 667.455 114.312 683.988 117.029 688.801C142.236 733.453 261.871 746.823 318.166 699.959C318.244 699.804 318.302 699.649 318.36 699.474C313.509 693.905 306.717 681.524 305.262 669.163V669.143Z" fill="#675F80"/>
<path d="M308.658 682.475C338.736 750.879 425.168 760.446 508.534 754.275C561.161 750.394 615.904 735.025 657.315 697.514C563.587 742.476 340.366 746.668 308.658 682.475Z" fill="#675F80"/>
<path d="M356.938 260.426C353.678 252.276 349.991 242.69 345.431 231.473C345.315 231.202 345.198 230.949 345.082 230.678C326.297 217.055 277.376 202.986 262.415 202.365C291.057 213.95 336.602 241.584 356.938 260.426Z" fill="#16213A"/>
<path d="M545.093 202.365C529.433 203.025 476.612 218.394 460.02 232.58C455.266 244.339 451.753 254.081 448.726 262.192C468.015 243.35 515.558 214.319 545.093 202.365Z" fill="#16213A"/>
<path d="M262.531 359.005C290.746 377.731 325.055 377.576 341.375 355.532C360.664 329.451 356.511 298.615 321.64 279.113C293.89 263.608 256.205 260.911 227.62 227.165C219.742 217.869 214.192 220.12 212.698 230.871C205.149 285.808 234.859 340.648 262.531 359.025V359.005Z" fill="#16213A"/>
<path d="M465.512 355.513C481.832 377.577 516.141 377.732 544.356 358.987C570.825 341.425 599.138 290.524 594.965 238.091C593.355 217.87 587.727 219.015 575.094 232.211C547.927 260.582 511.444 264.463 485.247 279.095C450.375 298.578 446.203 329.432 465.512 355.513Z" fill="#16213A"/>
<path d="M475.544 399.331C440.925 399.331 412.341 378.373 403.104 347.576C391.461 382.176 367.844 399.641 319.331 399.641C286.652 399.641 244.406 375.811 221.663 344.665C239.885 388.949 289.505 435.658 382.36 440.994C388.045 441.324 396.875 445.671 403.414 453.646C408.654 446.117 417.716 441.227 426.798 440.684C488.294 437.035 563.393 405.133 584.525 343.676C561.239 377.965 520.817 399.311 475.525 399.311L475.544 399.331Z" fill="#16213A"/>
<path d="M330.236 117.059C324.745 120.125 318.787 137.59 325.269 143.741C327.694 146.05 350.612 151.387 357.773 152.047C359.364 152.202 359.791 151.542 358.627 149.64C354.454 142.848 338.154 125.073 330.256 117.059H330.236Z" fill="white"/>
<path d="M475.641 115.797C465.415 123.443 449.677 140.616 445.64 147.214C444.146 149.64 444.709 150.61 446.455 150.455C453.616 149.776 473.002 147.331 477.019 143.333C484.393 135.979 480.202 118.882 475.661 115.797H475.641Z" fill="white"/>
<path d="M403.434 202.676C396.933 202.676 374.364 205.257 369.144 205.257C362.682 205.257 344.888 189.403 339.706 185.522C332.061 179.797 325.288 176.712 320.534 172.908C328.315 184.746 345.295 209.953 346.847 213.99C362.682 254.741 369.358 279.968 402.929 279.968C436.501 279.968 441.895 254.741 457.73 213.99C459.108 210.419 472.498 190.373 480.978 177.566C465.9 189.015 441.1 205.897 432.852 205.897C421.093 205.897 409.896 202.657 403.414 202.657L403.434 202.676Z" fill="#933000"/>
<path d="M396.991 203.025C397.224 211.855 387.347 230.872 388.724 248.609C389.365 257.031 394.216 262.678 398.757 264.288C398.117 262.018 397.942 255.556 398.117 252.975C400.872 256.216 408.149 259.611 412.03 260.252C409.76 257.671 401.998 246.668 400.872 243.272C398.505 236.189 405.064 209.739 409.042 203.18C406.927 202.889 405.044 202.695 403.453 202.695C401.998 202.695 399.708 202.831 397.011 203.025H396.991Z" fill="#EE869A"/>
<path d="M401.377 228.873C403.085 218.763 406.946 206.557 409.003 203.161C406.888 202.87 405.006 202.676 403.414 202.676C401.959 202.676 399.669 202.812 396.972 203.006C397.088 207.372 393.285 219.384 391.053 227.34C395.982 219.733 400.814 219.5 401.377 228.873Z" fill="#CF7487"/>
<path d="M379.662 259.127C378.673 258.991 374.656 266.016 373.608 268.849C376.732 272.032 380.244 274.593 384.319 276.437C383.563 271.391 380.632 259.263 379.662 259.127Z" fill="white"/>
<path d="M373.666 254.76C373.627 253.46 370.755 240.206 369.94 240.051C369.202 239.896 364.506 248.764 362.896 253.208C363.866 255.09 364.836 256.875 365.865 258.583C368.911 258.971 373.782 258.253 373.666 254.78V254.76Z" fill="white"/>
<path d="M375.121 214.163C376.266 213.018 379.662 206.867 380.885 204.422C375.684 204.888 371.124 205.276 369.125 205.276C368.931 205.276 368.698 205.217 368.485 205.198C370.386 208.051 374.19 213.62 375.121 214.183V214.163Z" fill="white"/>
<path d="M438.499 204.5C436.229 205.393 434.288 205.917 432.872 205.917C430.562 205.917 428.273 205.781 426.041 205.587C427.167 207.915 430.873 214.591 431.727 215.464C433.24 213.815 437.413 207.236 438.499 204.519V204.5Z" fill="white"/>
<path d="M393.556 266.402C392.606 266.402 389.19 274.63 387.909 277.813C391.499 278.996 395.516 279.714 400.038 279.928C399.106 277.056 394.604 266.422 393.556 266.422V266.402Z" fill="white"/>
<path d="M426.72 261.066C426.06 261.202 423.829 271.138 422.994 275.64C426.352 273.874 429.262 271.565 431.882 268.79C430.485 266.189 427.361 260.95 426.72 261.066Z" fill="white"/>
<path d="M438.519 240.361C436.733 240.361 434.152 253.615 434.482 255.886C434.696 257.438 437.18 258.525 439.198 258.641C440.809 255.827 442.342 252.761 443.836 249.443C442.807 247.037 440.052 240.342 438.519 240.342V240.361Z" fill="white"/>
<path d="M411.021 267.043C409.76 267.043 405.568 276.668 404.288 279.948C408.848 279.851 412.884 279.288 416.494 278.24C415.252 274.592 412.224 267.043 411.041 267.043H411.021Z" fill="white"/>
<path d="M443.855 221.596C442.73 222.081 443.855 236.635 444.496 238.246C444.903 239.274 446.456 239.779 447.911 239.721C449.172 236.519 450.473 233.142 451.792 229.61C450.434 227.107 444.864 221.15 443.836 221.596H443.855Z" fill="white"/>
<path d="M363.808 236.635C363.808 234.539 364.448 221.11 363.168 220.955C362.023 220.819 356.298 228.368 354.222 233.161C355.114 235.431 355.988 237.624 356.861 239.759C359.461 241.292 363.808 239.371 363.808 236.654V236.635Z" fill="white"/>
<path d="M530.209 610.85C516.102 609.977 497.007 600.099 487.847 585.953C494.465 581.082 520.856 576.075 536.186 575.512C570.379 574.232 589.629 585.623 590.89 586.418C579.732 606.309 551.226 612.131 530.209 610.83V610.85Z" fill="#675F80"/>
<path d="M634.669 162.584C609.519 137.434 544.142 123.695 503.197 154.278C503.507 157.597 503.546 160.663 503.372 162.254C502.11 173.567 470.576 206.556 460.466 231.473C450.55 255.904 446.009 271.642 439.974 282.568C432.503 296.151 412.263 305.388 402.949 305.524C393.634 305.388 374.714 297.102 367.243 283.538C361.227 272.593 355.366 255.904 345.431 231.473C335.321 206.576 300.876 174.557 299.615 163.224C299.343 160.76 301.051 155.714 302.972 151.329C269.187 125.034 212.504 123.229 174.12 161.284C144.507 190.644 123.18 242.03 131.428 285.478C138.549 322.989 159.895 333.352 192.885 304.884C226.126 276.203 287.603 257.67 338.425 302.303C364.953 325.589 386.92 336.592 404.404 336.592C438.034 336.592 457.439 304.243 471.023 295.2C509.096 269.818 584.331 264.423 624.966 300.382C657.315 329.005 674.101 312.743 676.061 278.395C679.534 217.598 649.533 177.487 634.669 162.603V162.584Z" fill="#675F80"/>
<path d="M356.938 260.426C353.678 252.276 349.991 242.69 345.431 231.473C345.315 231.202 345.198 230.949 345.082 230.678C326.297 217.055 277.376 202.986 262.415 202.365C291.057 213.95 336.602 241.584 356.938 260.426Z" fill="#0C142B"/>
<path d="M545.093 202.365C529.433 203.025 476.612 218.394 460.02 232.58C455.266 244.339 451.753 254.081 448.726 262.192C468.015 243.35 515.558 214.319 545.093 202.365Z" fill="#0C142B"/>
<path d="M321.64 279.093C293.89 263.589 256.205 260.891 227.62 227.145C219.742 217.85 214.192 220.101 212.698 230.852C209.961 250.703 212.115 270.516 217.258 288.622C251.528 271.195 298.276 267.043 338.406 302.283C342.85 306.183 347.138 309.696 351.311 312.917C347.856 300.226 338.212 288.369 321.62 279.093H321.64Z" fill="#0C142B"/>
<path d="M594.985 238.091C593.374 217.87 587.747 219.015 575.114 232.211C547.946 260.582 511.464 264.463 485.267 279.095C470.926 287.109 461.786 297.045 457.323 307.795C462.543 302.517 467.025 297.84 471.023 295.182C500.131 275.776 550.973 268.072 591.473 281.598C594.733 267.704 596.169 252.975 594.985 238.091Z" fill="#0C142B"/>
<path d="M302.39 584.536C298.023 587.156 293.793 589.853 289.699 592.628C224.147 637.164 162.457 632.196 160.031 609.394C156.092 572.369 214.91 553.352 224.787 496.843C228.707 474.43 224.225 463.989 209.632 445.807C205.265 440.373 199.23 443.847 199.23 447.689C199.23 449.261 200.026 486.674 199.696 490.187C197.911 508.156 177.244 531.19 153.317 545.628C114.642 568.992 90.9674 639.259 118.484 687.967C143.323 731.94 262.123 744.786 317.526 698.233L321.291 703.317C254.827 753.286 139.326 736.17 113.652 690.703C85.2816 640.482 107.831 568.779 149.882 542.892C173.576 528.318 193.389 507.807 195.64 490.167C196.087 486.733 195.931 449.261 195.931 447.631C195.931 440.664 205.983 435.91 212.213 443.691C226.825 461.894 233.19 473.265 229.115 497.289C219.742 552.595 161.661 576.929 165.077 608.87C166.92 626.161 224.205 630.352 288.049 586.981C293.075 583.566 298.237 580.286 303.496 577.162L302.409 584.497L302.39 584.536ZM480.493 520.285C485.732 519.392 490.972 518.519 496.25 517.704C586.117 503.577 699.677 541.068 699.677 619.582C699.677 683.717 623.317 750.2 508.864 758.661C398.369 766.831 313.121 738.479 300.255 665.515C285.158 579.918 315.799 544.91 313.839 503.227C312.597 476.875 274.679 428.807 247.531 419.066C148.679 383.534 105.036 337.912 105.036 265.743C105.036 152.513 258.301 40 403.434 40C560.21 40 698.726 153.638 698.726 265.743C698.726 345.539 647.283 393.645 561.918 419.376C536.924 426.906 503.857 470.025 488.818 505.731C463.727 565.325 493.048 606.755 534.265 608.502C551.342 609.22 578.665 604.388 589.804 584.982L594.403 583.857C583.73 607.143 552.312 613.567 534.362 612.81C493.863 611.102 456.546 568.74 483.734 504.139C499.064 467.754 534.168 421.783 560.036 413.982C650.213 386.814 692.206 339.717 692.206 265.763C692.206 152.435 553.011 46.5202 403.414 46.5202C253.818 46.5202 112.372 155.967 112.372 265.743C112.372 336.263 152.075 379.285 249.374 414.253C277.376 424.325 317.739 475.769 319.04 503.053C319.796 519.12 316.206 533.849 312.034 550.906C304.893 580.15 297.247 612.111 305.921 663.264C315.702 720.956 377.314 762.29 508.417 752.607C617.204 744.573 693.662 681.66 693.662 619.388C693.662 548.733 588.174 508.234 497.143 522.536C491.166 523.487 485.17 524.476 479.193 525.544L480.493 520.265V520.285Z" fill="#0E141B"/>
<path d="M477.33 535.323C447.368 506.487 349.176 499.346 314.848 530.511L312.791 537.924C341.414 503.246 449.522 511.726 476.845 540.679L477.33 535.343V535.323Z" fill="#0E141B"/>
<path d="M495.299 595.229C460.757 581.237 315.158 617.37 304.214 662.818L303.108 656.045C320.786 609.957 451.773 578.656 492.699 590.882L495.299 595.209V595.229Z" fill="#0E141B"/>
<path d="M509.135 604.387C491.806 712.32 412.477 740.458 357.501 733.026L352.145 729.067C406.364 736.693 487.382 710.263 506.108 602.641L509.155 604.407L509.135 604.387Z" fill="#0E141B"/>
<path d="M551.167 609.918C587.378 645.119 583.012 710.128 534.983 751.112L529.006 751.946C578.257 710.613 582.197 644.712 547.461 610.869L551.167 609.898V609.918Z" fill="#0E141B"/>
<path d="M683.221 662.721C676.546 603.884 620.251 571.516 591.492 583.023C588.736 584.129 588.018 586.613 590.619 585.876C629.022 575.145 676.779 619.874 680.466 667.941L683.221 662.721Z" fill="#0E141B"/>
<path d="M304.291 148.827C264.336 118.069 205.479 124.57 174.915 158.859C172.684 161.362 173.926 162.643 176.371 160.315C214.308 124.279 270.856 128.296 302.157 152.766L304.291 148.827Z" fill="#0E141B"/>
<path d="M503.41 156.141C543.347 125.481 607.773 136.794 631.894 161.206C635.057 164.408 636.706 163.341 633.582 159.518C616.273 138.288 547.829 116.671 503.042 151.115L503.41 156.161V156.141Z" fill="#0E141B"/>
<path d="M340.444 84.3029C361.052 61.0164 444.631 59.561 462.931 80.907C465.221 83.5655 463.164 84.8463 460.99 82.8475C441.721 65.0722 362.081 68.0218 342.132 86.6122C339.532 89.0185 337.96 87.0973 340.424 84.3029H340.444Z" fill="#0E141B"/>
<path d="M402.774 308.436C392.392 308.281 372.366 299.083 364.7 285.15C357.85 272.691 347.604 243.079 343.122 232.037C333.594 208.556 298.14 175.684 296.781 163.633C296.374 160.043 300.1 152.727 303.651 147.391C306.057 143.801 307.629 144.771 305.747 148.516C303.36 153.29 300.954 160.489 301.245 163.051C302.293 172.501 337.222 206.888 346.964 230.853C349.118 236.151 361.906 270.46 368.679 282.743C375.665 295.454 393.653 303.74 402.968 303.876C411.254 303.76 431.086 295.279 438.538 281.773C444.36 271.217 453.733 243.661 458.933 230.853C468.791 206.597 500.616 172.035 501.722 162.08C502.033 159.208 502.072 150.883 500.616 145.935C499.413 141.841 501.082 140.715 502.887 144.81C505.157 149.991 506.477 159.422 506.127 162.604C504.788 174.597 472.595 209.41 463.202 232.542C457.303 247.076 448.551 272.944 442.342 284.199C434.579 298.287 412.962 308.3 402.793 308.456L402.774 308.436Z" fill="#0E141B"/>
<path d="M433.182 208.012C422.529 208.012 409.45 204.325 403.434 204.325C400.077 204.325 371.357 207.527 368.834 207.527C361.518 207.527 342.113 189.383 338.736 186.86C322.765 174.887 311.413 175.062 312.228 158.218C312.403 154.55 314.732 154.57 314.809 158.218C315.139 172.229 326.899 173.878 340.696 184.221C345.14 187.54 363.653 203.627 369.144 203.627C371.531 203.627 399.921 200.425 403.434 200.425C406.325 200.425 426.255 204.267 432.872 204.267C443.603 204.267 488.992 170.521 491.573 166.659C492.388 164.816 493.553 162.468 493.999 160.488C494.872 156.491 496.949 156.666 496.269 160.818C495.784 163.729 495.105 166.019 494.542 168.115C493.203 173.102 445.156 208.032 433.202 208.032L433.182 208.012Z" fill="#0E141B"/>
<path d="M485.732 174.228C484.393 176.265 460.466 211.525 459.263 214.611C441.41 260.504 436.52 282.258 403.084 282.258C367.98 282.258 360.47 253.674 345.295 214.611C343.568 210.167 317.836 172.792 315.12 168.406L324.26 175.547C332.585 188.064 346.673 209.022 348.381 213.407C364.332 254.431 371.124 278.338 402.929 278.338C434.735 278.338 438.693 258.447 456.197 213.407C457.42 210.244 466.463 196.505 477.252 180.224L485.732 174.208V174.228Z" fill="#0E141B"/>
<path d="M385.406 191.926C384.513 190.975 382.767 189.384 381.603 188.53C379.623 187.094 379.934 185.871 382.65 187.152C384.009 187.792 385.6 189.015 386.861 190.218C389.171 192.45 387.502 194.177 385.406 191.906V191.926Z" fill="#0E141B"/>
<path d="M419.443 192.663C420.452 191.576 422.917 189.558 424.295 188.626C426.604 187.035 426.235 185.58 423.169 187.229C421.791 187.967 419.288 189.713 417.813 191.052C415.562 193.109 417.406 194.856 419.424 192.663H419.443Z" fill="#0E141B"/>
<path d="M370.542 205.258C372.637 208.343 374.112 210.963 375.005 212.147C376.111 210.381 377.722 206.926 378.77 204.928L382.767 204.326C380.885 208.557 376.169 215.814 375.121 215.814C374.267 215.814 372.036 213.486 366.641 205.374L370.542 205.258Z" fill="#0E141B"/>
<path d="M440.614 203.49C439.12 208.225 432.561 217.093 431.766 217.113C431.766 217.113 431.746 217.113 431.727 217.113C430.504 217.113 425.051 207.818 424.198 205.528L428.04 205.935C429.01 207.818 430.757 211.485 431.882 213.348C433.337 211.272 435.22 207.371 436.326 205.256L440.614 203.49Z" fill="#0E141B"/>
<path d="M355.153 235.102C355.696 233.259 359.228 226.447 362.391 223.304C362.76 227.418 362.741 235.18 362.391 237.004C361.945 239.255 356.065 239.895 355.308 235.665L357.171 241.642C360.703 242.748 365.457 240.808 365.457 236.635C365.457 229.96 365.729 219.617 363.361 219.306C361.79 219.112 355.522 226.933 353.523 230.794L355.153 235.102Z" fill="#0E141B"/>
<path d="M367.378 260.31C371.163 260.31 375.471 259.049 375.315 254.702C375.218 252.16 372.21 238.809 370.27 238.421C368.135 237.994 363.129 248.415 361.964 251.287L363.963 254.586C364.623 252.063 367.825 245.465 369.668 242.341C371.066 245.911 372.152 254.295 372.21 255.44C372.288 257.885 365.671 257.167 364.798 256.662L367.378 260.31Z" fill="#0E141B"/>
<path d="M385.988 277.076C385.037 270.963 381.952 257.787 379.876 257.496C378.11 257.224 373.782 264.133 372.385 267.432L374.5 270.362C374.675 269.295 377.624 263.609 379.235 261.261C380.264 264.385 382.049 271.798 382.748 275.698L385.969 277.076H385.988Z" fill="#0E141B"/>
<path d="M389.404 278.512C390.413 274.845 392.761 270.401 393.692 268.654C395.206 271.468 398.175 278.473 398.388 280.103H401.823C401.493 278.396 395.575 264.734 393.576 264.734C392.353 264.734 390.063 268.033 386.299 277.387L389.404 278.512Z" fill="#0E141B"/>
<path d="M418.027 277.698C416.591 273.312 412.865 265.395 411.041 265.395C408.401 265.395 402.871 279.056 402.619 279.735L405.704 280.065C406.849 277.29 409.643 271.294 411.041 269.023C412.224 271.119 414.029 276.126 414.922 278.687L418.046 277.698H418.027Z" fill="#0E141B"/>
<path d="M433.124 267.607C431.222 263.901 427.671 259.205 426.39 259.457C425.168 259.709 422.063 271.061 421.209 276.514L424.372 274.865C424.993 271.779 426.293 266.152 427.05 263.474C428.311 265.395 430.33 269.063 430.931 270.266L433.143 267.627L433.124 267.607Z" fill="#0E141B"/>
<path d="M444.748 247.308C443.37 244.009 440.382 238.711 438.519 238.711C435.86 238.711 432.348 252.663 432.853 256.118C433.202 258.64 436.248 259.921 438.422 260.232L440.362 256.894C439.295 257.534 435.977 256.719 435.763 255.924C435.53 254.216 437.102 246.337 438.791 242.223C440.498 245.018 442.943 251.499 443.04 251.674L444.729 247.308H444.748Z" fill="#0E141B"/>
<path d="M452.374 227.456C449.522 223.439 444.729 219.441 443.215 220.101C440.809 221.13 442.439 237.527 442.982 238.886C443.661 240.593 445.485 241.408 447.678 241.408L448.998 237.818C448.066 238.381 446.087 238.226 445.854 237.857C445.369 236.441 444.399 227.669 444.884 223.555C446.883 225.36 450.589 229.784 451.074 232.035L452.394 227.456H452.374Z" fill="#0E141B"/>
<path d="M398.602 202.715C398.893 211.893 388.725 232.017 390.044 249.016C390.51 255.071 393.556 259.611 396.952 261.863C396.817 260.388 396.739 258.117 396.72 256.604C396.623 250.84 396.37 250.491 401.241 253.848C402.871 254.974 406.461 256.972 408.44 257.807C405.297 254.081 400.174 246.455 399.281 243.777C396.836 236.461 402.968 211.04 407.237 202.986L411.642 203.394C406.907 208.614 399.863 235.859 402.172 242.806C402.949 245.116 407.8 251.946 410.963 256.254C416.979 264.405 415.795 263.881 407.296 260.562C404.695 259.553 401.59 257.516 399.378 255.944C399.398 257.554 399.805 259.922 399.941 261.358C400.542 267.762 400.407 267.878 395.167 264.249C391.208 261.494 387.463 256.448 386.9 248.997C385.581 231.881 395.516 213.834 394.779 203.025L398.602 202.695V202.715Z" fill="#0E141B"/>
<path d="M378.284 280.182C370.289 279.813 366.641 275.815 364.468 269.14C363.206 265.298 364.972 265.142 366.525 268.771C368.698 273.875 372.618 277.077 377.935 278.105C381.389 278.765 381.874 280.337 378.304 280.162L378.284 280.182Z" fill="#0E141B"/>
<path d="M426.06 280.665C432.154 279.579 438.305 275.892 439.877 269.76C440.809 266.131 442.361 266.189 441.934 269.992C440.964 278.803 431.766 282.412 425.925 282.839C421.791 283.149 422.179 281.345 426.041 280.665H426.06Z" fill="#0E141B"/>
<path d="M449.793 258.894C467.433 242.71 504.012 219.501 533.004 205.859C510.183 210.691 469.684 224.023 458.992 235.802L461.495 228.99C481.114 214.708 528.638 202.638 540.087 201.706C549.052 200.988 549.227 201.551 540.824 205.335C509.407 219.521 463.765 249.153 447.193 266.695L449.813 258.875L449.793 258.894Z" fill="#0E141B"/>
<path d="M355.677 257.069C337.358 241.002 302.428 218.996 274.504 205.878C295.928 210.419 332.934 222.45 346.246 233.647L343.607 227.437C321.271 212.922 277.182 201.9 267.111 201.57C259.077 201.298 258.611 201.939 265.985 205.121C297.15 218.569 341.375 248.026 358.646 265.278L355.696 257.089L355.677 257.069Z" fill="#0E141B"/>
<path d="M260.959 361.159C233.287 342.782 202.335 284.896 211.068 230.619C213.338 216.511 220.169 215.677 228.882 226.078C256.399 258.951 293.91 261.105 322.746 277.231C359.946 298.034 362.896 331.469 343.859 357.201C325.366 382.195 286.885 378.372 260.978 361.159H260.959ZM214.328 231.065C206.604 287.225 237.886 340.648 263.443 357.608C288.34 374.142 323.115 377.421 340.056 354.523C358.976 328.946 354.552 299.373 320.825 280.53C293.618 265.335 254.536 261.474 226.34 228.213C218.325 218.762 215.376 223.4 214.328 231.065Z" fill="#0E141B"/>
<path d="M462.892 357.104C443.855 331.373 446.786 297.937 484.005 277.134C511.386 261.823 546.51 258.214 573.794 230.697C589.377 214.979 594.733 217.501 596.654 238.343C601.447 290.252 572.125 343.579 545.773 361.082C518.644 379.091 480.299 380.643 462.892 357.124V357.104ZM575.735 233.259C548.024 261.862 511.639 266.073 485.907 280.453C452.18 299.295 447.756 328.869 466.676 354.446C483.617 377.344 518.392 374.065 543.289 357.531C567.72 341.308 597.411 291.747 593.2 238.323C591.783 220.238 587.921 220.684 575.735 233.239V233.259Z" fill="#0E141B"/>
<path d="M400.95 455.141C394.682 448.271 387.25 443.245 382.515 443.07C296.529 439.849 242.931 397.584 223.274 350.662C219.509 341.658 220.382 340.668 226.34 348.081C249.51 376.84 288.554 398.011 319.331 398.011C363.206 398.011 387.638 383.903 400.115 351.03C402.968 343.501 403.104 343.443 405.937 350.933C416.668 379.285 443.642 397.681 475.544 397.681C517.751 397.681 556.465 378.838 580.159 347.013C585.243 340.183 587.339 340.862 584.448 348.721C562.384 408.393 490.816 440.295 426.914 442.721C418.745 443.032 410.924 448.853 405.937 455.082C403.57 458.051 403.764 458.245 400.95 455.141ZM229.231 356.464C244.697 384.117 285.779 433.795 382.456 439.364C387.832 439.674 396.428 443.459 403.337 451.046C408.925 444.138 417.697 439.597 426.72 439.073C483.326 435.716 552.235 407.985 578.141 354.892C553.574 383.961 515.888 401.853 475.311 401.853C442.225 401.853 413.447 382.215 403.065 352.622C390.025 387.222 364.662 402.338 319.35 402.338C289.99 402.338 253.371 382.681 229.25 356.483L229.231 356.464Z" fill="#0E141B"/>
<path d="M532.053 611.374C522.564 570.526 575.327 531.599 619.804 533.229L612.198 529.949C564.984 532.744 519.537 571.555 528.58 610.967L532.034 611.374H532.053Z" fill="#0E141B"/>
<path d="M531.665 518.189C511.658 522.187 484.684 545.978 482.627 576.736L480.027 570.584C484.18 545.997 500.927 526.922 520.856 518.325L531.646 518.189H531.665Z" fill="#0E141B"/>
<path d="M262.744 606.639C218.83 644.828 226.65 717.948 268.275 724.313L260.843 725.769C220.693 716.279 218.112 645.12 254.4 609.938L262.725 606.619L262.744 606.639Z" fill="#0E141B"/>
<path d="M197.367 624.299C143.09 674.52 171.869 716.436 205.013 728.719L195.912 728.118C167.328 717.251 140.16 672.618 192.613 624.26L197.387 624.299H197.367Z" fill="#0E141B"/>
<path d="M107.52 666.543C109.247 621.037 140.238 604.93 162.321 611.819L161.564 608.171C139.694 601.302 109.81 616.38 105.483 653.949L107.52 666.523V666.543Z" fill="#0E141B"/>
<path d="M127.896 567.342C145.419 554.651 169.113 561.191 169.967 582.595L166.338 588.572C170.84 561.055 132.65 554.108 118.038 584.691L127.896 567.323V567.342Z" fill="#0E141B"/>
<path d="M163.777 536.004C180.873 530.784 194.01 535.014 197.076 551.683L194.282 554.885C191.197 531.327 166.765 533.306 143.226 550.403L163.777 536.004Z" fill="#0E141B"/>
<path d="M190.382 507.457C200.996 502.179 216.327 500.878 220.635 516.907L218.228 522.981C216.812 498.977 191.526 508.039 185.22 515.238L190.382 507.457Z" fill="#0E141B"/>
<path d="M226.786 472.469C216.249 460.457 205.401 462.029 197.911 474.798L198.609 480.813C204.314 467.113 215.783 461.233 227.737 479.145L226.786 472.469Z" fill="#0E141B"/>
<path d="M328.315 113.546C338.27 120.94 355.328 141.16 359.733 149.33C361.848 153.269 361.809 153.444 358.762 153.444C350.767 153.444 326.472 148.282 323.464 145.449C316.342 138.676 322.125 120.571 328.684 115.37L331.556 118.398C326.918 119.717 320.611 137.027 326.433 142.557C328.335 144.246 348.516 149.33 357.113 150.339C352.805 143.469 333.108 121.231 326.86 115.254C325.113 113.585 326.375 112.13 328.315 113.566V113.546Z" fill="#0E141B"/>
<path d="M446.65 148.768C456.837 147.797 472.731 145.255 475.835 142.17C481.347 136.678 479.581 121.484 474.419 116.613L477.058 114.672C482.744 120.533 485.577 137.862 478.455 144.964C473.584 149.835 450.88 151.737 446.436 151.756C442.07 151.756 441.779 151.271 444.263 146.672C449.696 136.562 465.725 118.864 477.621 112.965C479.891 111.839 480.92 113.469 478.824 114.789C469.121 120.921 449.696 142.461 446.65 148.806V148.768Z" fill="#0E141B"/>
<path d="M360.082 144.228C359.422 142.209 357.792 138.464 356.803 136.465C355.638 134.137 357.191 132.798 358.743 135.126C360.684 138.037 361.926 141.161 362.255 143.742C362.566 146.129 360.761 146.323 360.082 144.228Z" fill="#0E141B"/>
<path d="M441.915 140.579C441.585 138.56 441.915 134.912 443.292 132.176C444.651 129.459 446.009 130.43 445.233 132.991C444.709 134.66 444.243 138.075 444.185 140.191C444.107 143.043 442.38 143.431 441.915 140.598V140.579Z" fill="#0E141B"/>
<path d="M337.416 124.568C332.235 127.848 330.392 139.045 332.779 146.652C340.812 149 352.921 151.6 357.773 152.066C359.364 152.221 359.791 151.561 358.627 149.66C355.502 144.575 345.547 133.281 337.416 124.588V124.568Z" fill="#0E141B"/>
<path d="M465.473 124.666C457.07 132.758 448.474 142.597 445.621 147.215C444.127 149.641 444.69 150.611 446.436 150.456C451.094 150.01 460.893 148.826 468.306 146.943C470.829 139.472 470.46 128.198 465.473 124.666Z" fill="#0E141B"/>
<path d="M346.925 147.992C348.904 147.992 350.535 144.422 350.903 139.667C348.672 137.028 346.188 134.214 343.684 131.42C343.18 133.147 342.869 135.282 342.869 137.61C342.869 143.335 344.694 147.973 346.925 147.973V147.992Z" fill="white"/>
<path d="M454.257 148.03C456.508 148.03 458.312 143.392 458.312 137.668C458.312 135.785 458.099 134.039 457.75 132.506C455.014 135.436 452.491 138.289 450.395 140.831C450.919 145.003 452.433 148.03 454.237 148.03H454.257Z" fill="white"/>
<path d="M328.315 113.546C326.375 112.11 325.113 113.566 326.86 115.234C333.089 121.211 352.786 143.45 357.113 150.319L359.733 149.31C355.328 141.16 338.27 120.92 328.315 113.527V113.546Z" fill="#0E141B"/>
<path d="M477.621 112.925C465.725 118.844 449.696 136.522 444.263 146.633L446.669 148.748C449.696 142.402 469.14 120.862 478.843 114.73C480.92 113.411 479.91 111.781 477.64 112.906L477.621 112.925Z" fill="#0E141B"/>
<path d="M479.154 344.025C494.271 359.181 514.491 356.367 536.4 341.754C559.065 326.638 578.82 286.798 581.401 251.053C581.692 246.939 579.849 246.629 576.783 248.919C552.157 267.218 522.835 273.428 499.2 286.468C468.636 303.312 464.289 329.121 479.154 344.044V344.025Z" fill="#DB4E70"/>
<path d="M576.783 248.899C558.6 262.406 537.875 269.333 518.741 277.29C537.448 273.971 557.668 273.816 576.608 277.658C579.092 268.829 580.761 259.825 581.401 251.053C581.692 246.939 579.849 246.629 576.783 248.919V248.899Z" fill="#B9405F"/>
<path d="M477.33 345.344C462.64 330.616 463.688 303.7 497.938 284.819C524.679 270.09 542.163 270.536 574.512 248.298C581.129 243.738 582.876 245.639 582.468 251.946C580.508 282.762 563.82 325.725 537.351 343.384C514.316 358.754 492.97 361.043 477.31 345.325L477.33 345.344ZM576.472 250.976C552.759 268.15 520.429 276.455 499.84 287.807C471.489 303.429 465.357 327.899 480.163 342.763C493.727 356.386 512.648 355.416 535.333 340.299C557.261 325.667 576.686 286.818 579.538 251.868C579.771 248.996 579.422 248.861 576.491 250.976H576.472Z" fill="#0E141B"/>
<path d="M559.686 274.477C555.475 294.852 532.849 327.512 515.384 337.544C500.635 346.005 490.797 336.244 502.44 321.38C488.856 328.171 481.735 315.888 494.348 304.244C503.818 295.493 541.891 289.05 559.686 274.496V274.477Z" fill="#F0EA0D"/>
<path d="M495.881 337.835C494.193 334.381 495.357 329.452 498.094 324.562C495.008 325.221 488.507 325.862 486.179 319.885C484.684 316.081 485.558 309.037 492.602 302.536C501.334 294.464 538.806 286.876 555.495 275.349C560.676 271.759 561.53 271.352 560.036 277.678C554.699 300.227 533.062 329.84 516.373 339.407C508.689 343.831 499.006 344.239 495.881 337.835ZM495.319 305.37C489.497 310.745 488.624 315.751 489.672 318.41C491.069 322 495.241 322.155 499.161 320.816C504.226 319.109 505.021 319.865 501.955 324.562C499.006 329.064 498.035 333.216 499.374 335.972C501.625 340.59 508.999 339.116 514.394 336.03C530.151 326.987 550.605 298.772 556.776 278.474C540.009 289.748 502.828 298.422 495.319 305.37Z" fill="#0E141B"/>
<path d="M327.753 344.025C312.636 359.18 292.415 356.366 270.507 341.754C248.055 326.773 228.474 287.574 225.583 252.082C225.214 247.618 227.213 246.803 231.249 249.714C255.642 267.373 284.42 273.602 307.707 286.429C338.27 303.273 342.617 329.082 327.753 344.005V344.025Z" fill="#DB4E70"/>
<path d="M225.564 252.082C226.379 262.095 228.533 272.399 231.696 282.374C248.947 276.183 268.314 273.602 287.933 277.173C269.265 269.43 249.083 262.638 231.249 249.714C227.213 246.784 225.214 247.599 225.583 252.082H225.564Z" fill="#B9405F"/>
<path d="M269.362 343.502C242.893 325.843 226.204 282.86 224.244 252.063C223.836 245.757 225.311 243.797 232.2 248.415C264.821 270.266 282.053 270.188 308.774 284.936C343.025 303.818 344.072 330.733 329.383 345.462C313.722 361.18 292.396 358.89 269.342 343.521L269.362 343.502ZM227.213 251.966C230.066 286.916 249.471 325.765 271.419 340.397C294.103 355.533 313.004 356.484 326.588 342.861C341.395 327.997 335.262 303.527 306.911 287.905C286.341 276.553 253.992 268.248 230.279 251.074C227.349 248.939 226.98 249.075 227.232 251.966H227.213Z" fill="#0E141B"/>
<path d="M247.22 274.477C251.431 294.852 274.058 327.512 291.523 337.544C306.271 346.005 316.109 336.244 304.466 321.38C318.05 328.171 325.172 315.888 312.558 304.244C303.088 295.493 265.015 289.05 247.22 274.496V274.477Z" fill="#F0EA0D"/>
<path d="M290.358 339.485C273.67 329.918 252.032 300.305 246.696 277.756C245.202 271.43 246.056 271.857 251.237 275.427C267.926 286.954 305.378 294.542 314.13 302.614C321.174 309.115 322.047 316.159 320.553 319.963C318.224 325.94 311.704 325.299 308.638 324.64C311.374 329.53 312.539 334.478 310.85 337.913C307.726 344.317 298.043 343.909 290.358 339.485ZM249.956 278.571C256.108 298.869 276.58 327.085 292.338 336.128C297.713 339.213 305.087 340.707 307.357 336.069C308.696 333.314 307.726 329.161 304.776 324.659C301.71 319.963 302.506 319.187 307.571 320.914C311.51 322.253 315.663 322.097 317.06 318.507C318.108 315.849 317.235 310.842 311.413 305.467C303.903 298.539 266.722 289.846 249.956 278.571Z" fill="#0E141B"/>
</g>
<defs>
<clipPath id="clip0_42_60475">
<rect width="598.677" height="720" fill="white" transform="translate(101 40)"/>
</clipPath>
</defs>
</svg>
