<svg width="800" height="800" viewBox="0 0 800 800" fill="none" xmlns="http://www.w3.org/2000/svg">
<g clip-path="url(#clip0_42_60567)">
<path d="M466.46 585.324C468.23 583.4 471.744 578.425 474.154 573.475C470.538 572.654 460.869 571.962 452.252 571.5C434.991 579.348 412.011 589.787 412.011 589.787C415.653 599.84 426.117 630.386 428.041 635.952C413.729 641.928 367.128 661.163 363.281 663.087C359.434 665.01 358.151 682.963 367.974 680.835C377.797 678.706 442.352 662.676 465.434 653.264C463.511 643.441 456.894 617.152 453.893 608.586C457.355 607.278 463.665 604.816 470.872 601.892C474.796 596.198 479.412 589.684 481.054 586.94C477.36 586.299 471.102 585.503 466.46 585.35V585.324Z" fill="#763B01"/>
<path d="M466.46 585.324C468.23 583.4 471.744 578.425 474.154 573.475C470.538 572.654 460.869 571.962 452.252 571.5C434.991 579.348 412.011 589.787 412.011 589.787C415.653 599.84 426.117 630.386 428.041 635.952C413.729 641.928 367.128 661.163 363.281 663.087C359.434 665.01 358.151 682.963 367.974 680.835C377.797 678.706 442.352 662.676 465.434 653.264C463.511 643.441 456.894 617.152 453.893 608.586C457.355 607.278 463.665 604.816 470.872 601.892C474.796 596.198 479.412 589.684 481.054 586.94C477.36 586.299 471.102 585.503 466.46 585.35V585.324Z" fill="#763B01"/>
<path d="M637.477 263.604C604.366 276.53 567.383 294.304 523.346 320.977C500.366 334.903 453.688 366.86 426.861 395.354C436.145 412.333 479.746 487.043 487.44 502.432C472.359 507.254 448.969 516.23 448.969 516.23C452.816 526.181 464.998 555.676 467.897 564.319C464.562 565.858 458.817 568.474 452.226 571.475C460.844 571.962 470.538 572.629 474.129 573.449C471.718 578.425 468.204 583.401 466.435 585.298C471.077 585.452 477.335 586.273 481.028 586.889C479.387 589.633 474.77 596.147 470.846 601.841C486.286 595.634 505.906 587.555 511.164 585.222C508.163 576.45 497.699 547.392 495.134 540.775C506.034 537.133 554.559 521.103 554.559 521.103C542.376 500.585 519.935 459.986 515.652 451.65C528.04 444.802 611.83 407.844 636.4 398.432C635.964 369.579 636.4 274.683 637.477 263.578V263.604Z" fill="#FFE100"/>
<path d="M637.477 263.604C604.366 276.53 567.383 294.304 523.346 320.977C500.366 334.903 453.688 366.86 426.861 395.354C436.145 412.333 479.746 487.043 487.44 502.432C472.359 507.254 448.969 516.23 448.969 516.23C452.816 526.181 464.998 555.676 467.897 564.319C464.562 565.858 458.817 568.474 452.226 571.475C460.844 571.962 470.538 572.629 474.129 573.449C471.718 578.425 468.204 583.401 466.435 585.298C471.077 585.452 477.335 586.273 481.028 586.889C479.387 589.633 474.77 596.147 470.846 601.841C486.286 595.634 505.906 587.555 511.164 585.222C508.163 576.45 497.699 547.392 495.134 540.775C506.034 537.133 554.559 521.103 554.559 521.103C542.376 500.585 519.935 459.986 515.652 451.65C528.04 444.802 611.83 407.844 636.4 398.432C635.964 369.579 636.4 274.683 637.477 263.578V263.604Z" fill="#FFE100"/>
<path d="M470.872 601.865C486.311 595.658 505.931 587.579 511.189 585.245C510.497 583.245 509.42 580.142 508.137 576.525C499.52 580.347 488.466 585.682 478.361 591.042C476.232 594.171 473.411 598.197 470.872 601.865Z" fill="#FABE00"/>
<path d="M470.871 601.866C473.411 598.173 476.232 594.172 478.36 591.043C465.922 597.634 454.996 604.226 452.2 607.919L454.021 608.894C454.021 608.894 453.944 608.663 453.919 608.56C457.381 607.252 463.69 604.79 470.897 601.866H470.871Z" fill="#542500"/>
<path d="M550.917 514.102C537.657 518.385 482.951 539.108 494.288 540.595L555.405 521.36L550.917 514.102Z" fill="#FABE00"/>
<path d="M636.425 388.197C574.897 414.152 506.88 448.802 513.523 451.033L519.088 449.315C519.088 449.315 610.983 408.279 636.425 398.456V388.197Z" fill="#FABE00"/>
<path d="M463.947 645.543C441.941 653.673 385.517 671.19 364.358 676.756C362.383 677.269 362.229 681.68 368 680.808C373.771 679.962 448.353 660.931 465.46 653.237L463.972 645.543H463.947Z" fill="#542500"/>
<path d="M466.05 602.149C469.128 599.225 474.796 592.916 478.155 588.812C477.822 588.812 474.154 588.632 470.461 588.53C462.69 588.35 461.844 586.581 466.665 580.964C468.409 578.912 470 576.937 471.538 575.014C465.64 574.578 455.56 574.193 449.123 574.809C447.943 574.911 453.072 570.269 454.329 570.218C459.715 569.961 465.64 570.218 470.436 570.551C478.232 571.09 479.31 572.295 474.308 578.502C472.693 580.528 470.795 582.811 469.692 584.119C471.128 584.119 474.514 584.272 477.514 584.401C485.901 584.734 486.311 585.863 480.874 592.351C478.925 594.685 476.617 597.327 474.462 599.661C472.667 601.584 465.178 602.969 466.05 602.123V602.149Z" fill="#763B01"/>
<path d="M466.05 602.148C465.178 602.969 472.693 601.61 474.462 599.686C476.617 597.327 478.925 594.711 480.874 592.377C482.387 590.581 483.413 589.196 483.977 588.119C480.746 589.786 477.54 591.453 474.462 593.12C471.487 596.532 468.153 600.148 466.024 602.148H466.05Z" fill="#542500"/>
<path d="M370.36 678.808C403.522 671.139 444.711 659.085 462.844 651.776C461.177 644.133 452.226 611.022 451.687 609.099C451.277 607.611 451.534 607.175 452.893 606.559C466.05 600.609 494.442 589.248 508.086 583.887C506.521 579.502 495.211 548.673 492.749 541.261C492.185 539.569 492.467 539.056 494.108 538.517C497.545 537.337 540.273 523.949 550.84 520.205C543.377 508.125 514.498 455.009 513.113 452.496C512.292 451.008 512.395 450.47 513.934 449.572C531.117 439.518 607.29 407.741 633.809 396.995C633.399 367.629 633.45 299.253 634.938 267.091C556.944 298.407 476.745 348.445 429.272 395.405C432.349 400.791 438.248 411.229 445.276 423.591C460.125 449.777 479.925 484.709 487.901 498.482C490.954 503.739 490.979 504.637 484.901 506.407C471.795 510.228 458.125 514.793 450.944 517.255C452.97 522.257 464.306 549.417 468.82 560.317C470.82 565.139 470.743 565.96 466.537 567.883C458.561 571.5 416.781 589.607 414.217 590.735C417.756 599.968 427.938 627.744 430.374 635.515C430.836 636.926 430.605 637.49 429.22 638.157C420.911 642.107 381.337 658.265 366.384 663.471C360.716 665.446 359.819 663.009 365.256 660.547C379.285 654.212 414.627 639.952 425.604 635.002C422.629 626.051 413.832 603.071 410.216 593.531C408.343 588.606 408.574 588.042 413.678 585.836C424.963 580.938 459.202 566.447 465.434 563.6C462.921 557.496 449.071 525.411 446.763 519.692C444.737 514.716 445.07 514.332 449.918 512.665C457.561 510.074 471.821 505.637 484.824 501.893C477.36 489.043 456.791 452.752 441.48 425.771C435.017 414.384 429.066 404.51 425.835 398.842C423.604 394.918 423.629 394.302 427.092 390.917C474.77 344.238 555.431 293.251 632.629 261.987C640.067 258.961 640.657 259.423 640.324 268.117C638.964 300.74 638.4 367.218 638.734 394.558C638.785 398.97 638.451 400.227 634.963 401.637C608.495 412.383 537.76 441.544 518.011 452.342C519.294 454.676 547.942 504.945 555.508 517.358C558.38 522.077 558.201 523.257 552.892 525.078C538.504 530.002 501.007 540.877 497.622 542.005C499.674 548.058 509.214 571.243 512.805 581.143C514.78 586.555 513.703 587.683 509.086 589.504C495.724 594.762 469.333 604.097 456.407 609.842C456.791 611.253 464.357 636.849 467.178 648.467C468.461 653.699 467.871 655.187 463.28 656.957C443.891 664.369 403.753 674.474 370.95 682.04C364.64 683.502 363.999 680.373 370.385 678.885L370.36 678.808Z" fill="#0E141B"/>
<path d="M322.014 315.743C389.954 305.664 438.581 346.751 448.533 396.533C450.456 406.15 450.405 423.308 446.173 434.362C424.681 490.504 317.5 509.253 278.824 494.198C242.2 479.963 226.632 456.445 224.118 431.798C217.45 366.73 273.464 322.925 322.014 315.743Z" fill="#FFE100"/>
<path d="M241.02 366.192C223.4 352.548 201.805 329.465 189.93 309.127C191.982 276.76 196.906 254.37 207.678 244.572C230.453 272.784 256.896 314.179 266.231 339.903C274.285 362.088 246.406 370.373 241.02 366.192Z" fill="#FFE100"/>
<path d="M395.109 326.439C402.573 308.64 418.782 285.557 432.093 272.785C437.427 267.656 461.792 245.009 473.975 239.238C479.31 255.268 484.978 277.427 483.798 298.022C474.616 307.435 434.221 342.905 423.321 348.24C404.368 357.524 390.467 337.493 395.109 326.439Z" fill="#FFE100"/>
<path d="M405.855 486.734C412.524 470.243 441.069 436.927 448.815 432.08C450.584 426.643 451.687 420.846 453.149 420.385C454.611 419.923 460.536 422.154 460.536 422.154C460.536 422.154 464.87 418.795 466.46 418.948C468.05 419.102 470.307 422.949 470.307 422.949C470.307 422.949 474.462 421.026 475.745 421.359C477.027 421.693 479.592 426.643 479.592 426.643C479.592 426.643 484.234 425.206 486.003 426.002C487.773 426.797 488.568 433.208 488.568 433.208C488.568 433.208 494.185 434.645 494.339 436.081C494.493 437.517 491.928 446.186 491.928 446.186C490.646 450.341 481.361 475.193 476.386 485.452C471.41 495.711 455.227 530.181 447.045 536.439C438.864 542.697 403.137 493.48 405.855 486.734Z" fill="#FFE100"/>
<path d="M270.72 490.889C242.559 509.124 205.114 546.21 196.188 562.394C192.983 563.189 190.264 565.266 190.264 566.549C190.264 567.831 193.136 572.653 193.136 572.653C191.546 575.217 190.418 577.936 190.726 579.218C191.033 580.501 195.06 584.194 195.06 584.194C195.06 586.605 194.573 589.965 195.547 591.093C196.522 592.222 201.805 592.222 201.805 592.222C202.6 594.786 204.216 598.146 205.652 598.633C207.089 599.121 212.705 596.71 212.705 596.71C214.962 598.3 217.681 599.762 219.117 599.762C220.553 599.762 224.734 595.428 224.734 595.428C229.556 593.504 247.97 585.476 256.639 580.347C285.236 563.394 296.444 542.055 292.699 519.281C288.57 494.12 282.44 483.323 270.745 490.915L270.72 490.889Z" fill="#FFE100"/>
<path d="M271.053 539.466C256.665 573.166 246.996 608.585 246.996 651.186C246.996 676.5 262 698.787 292.186 698.787C295.239 698.787 344.61 691.734 354.535 691.734C364.461 691.734 403.752 698.3 416.576 698.3C454.509 698.3 469.461 676.038 469.461 643.953C469.461 621.281 459.869 553.982 452.149 530.463C448.61 519.717 420.936 472.603 416.448 469.602C411.96 466.602 283.928 488.402 281.799 494.403C279.671 500.379 273.028 534.695 271.002 539.44L271.053 539.466Z" fill="#FFE100"/>
<path d="M261.641 687.22C246.868 699.197 240.302 714.098 245.714 721.844C245.714 724.511 245.611 727.82 247.637 728.563C249.663 729.307 254.895 726.845 255.972 726.204C259.076 726.409 272.746 722.793 283.005 716.15C293.264 709.533 302.24 701.839 304.6 696.478C311.909 679.859 280.004 672.293 261.641 687.194V687.22Z" fill="#FFE100"/>
<path d="M411.78 697.787C428.63 718.203 452.739 727.077 460.407 726.204C462.972 727.692 468.204 728.974 469.589 728.025C470.974 727.076 471.179 724.922 470.564 722.896C473.026 720.331 472.154 715.407 470.872 710.508C469.589 705.584 459.766 692.017 453.226 686.682C432.067 669.344 397.52 680.552 411.754 697.787H411.78Z" fill="#FFE100"/>
<path d="M164.924 211.872C160.462 215.232 161.487 238.391 166.001 254.19C167.72 260.166 173.054 283.043 189.93 309.127C191.187 283.172 198.138 251.728 207.678 244.572C190.674 223.67 168.694 209.051 164.924 211.872Z" fill="#0E141B"/>
<path d="M523.141 223.207C520.653 219.155 495.595 227.593 473.975 239.237C476.539 245.649 485.08 271.091 483.798 297.149C517.165 262.089 528.603 232.081 523.115 223.207H523.141Z" fill="#0E141B"/>
<path d="M327.682 423.257C335.248 421.59 352.15 429.566 357.818 428.694C353.663 452.136 347.662 468.448 336.556 471.013C325.682 473.526 313.525 452.008 307.806 433.516C312.397 431.593 323.297 424.232 327.682 423.257Z" fill="#B60007"/>
<path d="M317.039 455.01C322.861 465.166 329.939 472.552 336.556 471.014C344.071 469.27 349.252 461.242 353.099 448.957C339.762 440.878 326.067 443.212 317.064 454.984L317.039 455.01Z" fill="#E60013"/>
<path d="M327.759 496.148C327.862 493.788 352.56 491.07 353.432 493.455C353.894 494.711 347.072 500.046 341.558 500.739C336.197 501.405 327.631 499.225 327.759 496.148Z" fill="#FABE00"/>
<path d="M259.666 569.114C249.714 575.218 220.553 593.171 223.272 595.069C228.248 594.094 250.202 585.117 256.614 580.321L259.666 569.088V569.114Z" fill="#FABE00"/>
<path d="M249.15 665.189C257.845 677.756 274.387 687.425 288.904 687.425C310.268 687.425 338.916 680.167 353.458 680.167C373.129 680.167 401.752 687.015 417.576 687.015C437.427 687.015 462.203 674.73 466.742 663.086C461.972 684.732 444.737 698.992 419.295 698.992C412.139 698.992 360.101 691.785 354.586 691.785C345.123 691.785 302.163 698.146 289.57 698.146C256.024 698.146 249.176 665.24 249.176 665.24L249.15 665.189Z" fill="#FABE00"/>
<path d="M254.69 694.479C261.256 694.633 281.62 702.968 288.031 713.073C292.032 710.508 301.342 702.814 304.215 697.685C284.441 699.454 271.361 695.966 261.102 687.426L254.69 694.479Z" fill="#FABE00"/>
<path d="M427.348 712.431C433.606 701.685 454.919 693.99 461.177 694.478L453.97 686.938C443.48 695.042 429.605 699.941 412.626 698.325C415.678 702.813 427.374 712.431 427.374 712.431H427.348Z" fill="#FABE00"/>
<path d="M243.097 366.756C231.3 384.402 225.119 405.227 226.939 426.925C229.402 456.368 248.022 480.246 277.234 491.89C283.62 494.429 282.492 496.891 275.952 494.66C243.149 483.375 223.298 458.984 220.707 427.771C218.784 404.586 225.452 382.145 239.738 364.243C245.175 357.421 247.534 360.165 243.097 366.782V366.756Z" fill="#0E141B"/>
<path d="M422.039 344.495C447.507 367.142 455.688 397.278 449.943 428.824C449.61 430.722 443.839 435.98 444.173 434.8C452.765 404.562 443.814 370.245 419.91 346.701C415.755 342.598 418.038 340.905 422.065 344.495H422.039Z" fill="#0E141B"/>
<path d="M396.956 329.62C378.49 319.823 355.484 314.642 328.452 317.283C304.189 319.669 282.415 329.081 265.18 342.828C258.819 347.881 256.742 344.829 262.948 339.725C280.85 325.029 303.317 315.36 328.041 312.923C356.048 310.179 379.541 315.745 398.264 326.414C403.47 329.389 402.419 332.467 397.007 329.594L396.956 329.62Z" fill="#0E141B"/>
<path d="M238.122 366.987C156.127 302.561 154.511 215.36 163.924 210.385C172.029 206.076 222.323 238.109 268.232 338.314C268.745 339.416 264.821 341.289 264.282 340.186C216.758 240.854 171.541 212.513 165.899 214.257C159.538 219.746 166.668 304.074 240.84 363.474C241.789 364.217 238.558 367.321 238.147 367.013L238.122 366.987Z" fill="#0E141B"/>
<path d="M188.648 306.461C188.007 279.967 194.213 256.448 205.421 244.163C206.242 243.266 209.063 245.369 208.32 246.343C198.214 259.603 192.11 284.019 192.367 310.051C192.367 311.257 188.648 307.666 188.622 306.461H188.648Z" fill="#0E141B"/>
<path d="M422.475 346.777C481.182 308.998 521.217 248.137 522.654 228.568C522.782 226.721 522.525 225.362 521.935 224.875C521.448 224.516 518.524 224.003 511.112 225.952C489.825 231.569 428.271 260.601 396.828 327.131C396.494 327.849 393.288 325.977 393.673 325.182C437.197 233.544 518.858 216.488 524.782 221.541C536.888 231.928 495.929 308.998 424.937 349.495C424.091 349.983 421.911 347.11 422.475 346.751V346.777Z" fill="#0E141B"/>
<path d="M480.233 298.227C483.875 284.275 476.104 247.958 471.974 241.495C471.333 240.469 475.001 238.135 475.668 239.161C481.233 247.907 489.107 282.069 485.08 297.509C484.824 298.484 479.951 299.407 480.258 298.253L480.233 298.227Z" fill="#0E141B"/>
<path d="M325.836 414.28C325.066 414.408 322.784 412.921 322.784 412.305C322.784 411.69 328.58 410.792 328.734 411.69C328.888 412.613 326.759 414.126 325.836 414.28Z" fill="#0E141B"/>
<path d="M270.155 377.553C281.722 376.348 290.596 384.042 292.238 397.097C293.52 407.304 285.852 417.897 274.772 419.333C263.641 420.795 254.1 413.485 252.536 401.867C250.971 390.3 258.64 378.759 270.155 377.553Z" fill="#0E141B"/>
<path d="M386.492 368.116C398.033 366.962 407.882 374.195 409.472 386.48C410.805 396.79 404.727 408.306 391.852 409.87C379.823 411.306 370.873 402.638 369.641 392.02C368.257 380.324 375.489 369.245 386.492 368.142V368.116Z" fill="#0E141B"/>
<path d="M270.848 379.888C275.644 378.913 280.158 382.273 281.235 386.941C282.184 391.096 279.901 395.789 275.131 397.225C270.463 398.61 265.616 395.533 264.564 391.121C263.256 385.684 266.462 380.785 270.848 379.913V379.888Z" fill="white"/>
<path d="M377.849 380.118C377.618 374.706 381.362 370.449 385.645 370.244C390.8 369.987 394.494 372.988 394.93 378.912C395.237 383.221 391.98 387.581 387.312 388.043C382.26 388.556 378.079 384.991 377.874 380.118H377.849Z" fill="white"/>
<path d="M299.906 433.08C296.393 430.284 298.137 428.463 301.445 430.464C303.317 431.592 305.985 431.618 307.472 431.156C311.217 430.028 321.809 421.923 327.4 420.923C334.915 419.589 348.944 426.976 357.023 426.54C358.331 426.463 361.255 425.796 363.127 424.719C367.667 422.128 369 424.334 364.512 427.873C362.255 429.643 359.305 430.746 357.408 430.9C349.559 431.515 333.838 424.206 327.939 425.257C322.886 426.155 311.884 434.67 308.267 435.439C305.6 436.004 302.676 435.26 299.906 433.054V433.08Z" fill="#0E141B"/>
<path d="M305.805 434.005C305.42 432.851 309.55 431.491 309.934 432.62C316.885 453.497 326.349 469.731 336.531 469.193C343.686 468.782 353.586 447.931 355.817 428.644C355.946 427.439 360.28 427.952 360.152 429.157C358.074 447.239 348.046 471.809 336.684 472.476C325.22 473.219 313.935 458.395 305.831 434.005H305.805Z" fill="#0E141B"/>
<path d="M316.244 453.548C323.656 441.57 339.557 438.518 353.381 447.726C354.381 448.393 352.868 451.342 351.868 450.675C340.25 442.93 325.066 445.828 318.988 455.651C318.578 456.318 315.603 454.599 316.244 453.573V453.548Z" fill="#0E141B"/>
<path d="M238.737 423.412C248.817 418.923 260.897 426.746 265.385 439.108C269.412 450.188 268.283 463.011 258.845 467.423C251.689 470.757 239.404 465.268 234.018 452.804C228.325 439.595 231.582 426.592 238.737 423.412Z" fill="#E60013"/>
<path d="M430.759 404.536C421.936 401.33 410.472 409.948 405.009 425.387C400.264 438.878 402.932 451.881 411.703 455.087C421.423 458.626 433.965 447.649 437.735 436.826C443.685 419.694 439.71 407.819 430.733 404.536H430.759Z" fill="#E60013"/>
<path d="M219.117 601.788C217.296 601.788 214.398 600.224 212.526 598.659C210.192 600.172 206.601 601.301 205.216 601.07C202.985 600.711 201.549 597.12 200.856 594.53C198.42 594.53 195.265 593.786 194.034 592.247C192.752 590.657 192.957 587.297 193.342 585.194C191.444 583.809 189.058 581.322 188.571 579.783C187.956 577.808 189.571 574.807 190.931 572.986C189.392 571.063 187.673 567.908 188.238 565.805C188.93 563.214 192.7 561.778 194.675 561.24C204.036 544.723 247.355 501.071 268.257 490.171C268.591 489.991 274.9 492.633 273.823 493.172C253.998 502.892 205.986 548.955 198.061 564.163C197.753 564.753 192.341 566.138 192.213 566.959C192.085 567.882 195.188 572.165 195.265 572.627C195.342 573.217 192.393 577.808 192.572 578.808C192.752 579.885 197.06 583.245 197.266 583.707C197.471 584.168 196.624 588.836 197.317 589.734C197.907 590.401 202.754 590.478 203.293 590.888C203.831 591.273 205.37 596.582 206.37 596.915C207.499 597.172 211.91 594.453 212.628 594.427C213.295 594.427 217.963 597.787 218.989 597.736C219.887 597.582 223.375 593.478 224.067 593.248C226.709 592.299 251.458 580.757 256.434 576.885C257.383 576.141 256.896 582.553 255.69 583.296C247.945 588.015 230.787 595.556 225.914 597.249C223.862 599.865 220.759 601.839 219.143 601.839L219.117 601.788Z" fill="#0E141B"/>
<path d="M416.448 701.096C405.137 701.096 366.923 693.453 354.253 693.453C339.557 693.453 302.753 701.198 292.853 701.198C261.615 701.198 243.815 681.911 243.815 644.672C243.815 618.588 254.074 572.269 268.873 540.312C270.976 535.747 273.669 536.901 271.668 541.518C257.998 573.423 249.817 618.999 249.817 644.646C249.817 678.372 264.282 695.479 292.853 695.479C302.445 695.479 343.712 689.529 354.253 689.529C364.794 689.529 405.445 695.787 416.448 695.787C449.815 695.787 466.05 678.731 466.05 643.62C466.05 614.895 458.715 557.753 450.379 532.798C450.225 532.362 453.175 529.079 453.585 530.207C462.254 554.803 471.769 614.074 471.769 643.62C471.769 682.348 453.534 701.07 416.473 701.07L416.448 701.096Z" fill="#0E141B"/>
<path d="M245.072 723.897C241.533 723.897 237.173 706.61 258.588 687.503C259.486 686.708 262.384 689.965 261.487 690.76C244.688 705.764 245.252 717.69 246.047 719.767C246.765 720.126 246.278 723.897 245.072 723.897Z" fill="#0E141B"/>
<path d="M245.919 729.129C243.123 727.59 243.482 717.151 251.74 706.815C254.793 702.994 256.767 704.456 253.741 708.252C247.637 715.972 246.585 725.128 247.637 726.154C248.688 726.974 252.51 726 254.741 724.435C255.741 723.743 257.665 727.077 256.665 727.718C253.228 729.898 248.612 730.591 245.919 729.129Z" fill="#0E141B"/>
<path d="M253.844 727.436C251.458 725.718 253.587 717.049 261.384 709.021C265.385 704.892 267.411 706.816 263.513 710.74C258.537 715.741 255.716 722.82 256.665 724.051C259.127 726.436 286.236 716.433 302.548 697.326C303.266 696.505 308.78 696.429 308.062 697.403C294.52 715.869 260.307 732.104 253.818 727.462L253.844 727.436Z" fill="#0E141B"/>
<path d="M471.102 723.896C469.897 723.896 470.307 719.459 470.333 719.254C471.077 716.355 470.102 705.891 452.611 689.067C451.995 688.477 454.868 685.168 455.457 685.732C478.104 707.481 474.924 723.896 471.102 723.896Z" fill="#0E141B"/>
<path d="M459.51 727.744C458.484 727.103 460.407 724.205 461.433 724.846C463.511 726.179 467.64 727.051 468.486 726.282C469.563 725.128 467.794 716.382 461.331 708.483C458.432 704.969 460.382 703.43 463.305 706.995C471.179 716.587 474.77 727.462 470.589 729.565C468.691 730.514 462.921 729.898 459.535 727.744H459.51Z" fill="#0E141B"/>
<path d="M409.369 699.017C408.908 698.479 413.421 697.119 414.422 698.248C433.555 719.561 457.458 725.973 459.484 724.024C460.407 722.998 456.766 716.458 451.662 711.405C448.764 708.533 450.815 706.712 453.765 709.61C461.074 716.817 465.819 724.921 462.331 727.435C457.253 731.077 427.604 721.331 409.369 699.017Z" fill="#0E141B"/>
<path d="M447.969 532.849C459.664 518.205 485.311 460.575 489.517 445.238C489.594 445.007 489.697 444.776 489.825 444.571C491.518 442.083 493.057 437.954 492.569 437.031C492.133 436.39 487.183 435.954 486.722 435.441C486.26 434.928 486.029 428.336 485.26 427.823C484.311 427.336 479.463 429.08 478.72 428.721C477.976 428.362 476.283 423.515 475.488 423.207C474.847 423.002 470 425.566 469.307 425.233C468.615 424.9 467.025 420.95 466.281 420.77C465.537 420.591 460.997 424.515 460.407 424.592C459.766 424.669 455.329 421.873 454.355 422.181C453.637 422.412 453.021 425.746 451.534 431.978C451.431 432.363 451.226 432.722 450.944 433.004C447.404 436.543 432.375 452.65 426.271 459.703C420.962 465.833 413.062 476.912 409.036 484.427C406.138 489.839 403.701 488.659 406.035 482.991C409.344 474.861 417.499 463.191 422.988 456.856C428.913 449.983 443.224 434.671 447.456 430.362C450.046 419.616 451.123 418.436 452.482 417.898C454.38 417.128 458.074 418.667 460.433 420.232C462.895 417.898 465.64 416.41 466.999 416.692C468.794 417.051 470.282 418.539 471.077 420.642C472.923 419.462 475.642 418.744 477.104 419.488C478.694 420.283 480.13 422.181 480.771 424.438C483.413 423.489 486.311 423.669 487.44 424.335C489.286 425.464 490.235 429.285 490.312 432.235C492.441 432.363 494.826 432.978 495.955 434.389C497.878 436.8 495.724 443.443 493.646 446.674C487.465 470.988 465.87 518.846 450.508 534.773C446.507 538.928 444.48 537.209 447.994 532.798L447.969 532.849Z" fill="#0E141B"/>
</g>
<defs>
<clipPath id="clip0_42_60567">
<rect width="480.375" height="520" fill="white" transform="translate(160 210)"/>
</clipPath>
</defs>
</svg>
