<svg width="800" height="800" viewBox="0 0 800 800" fill="none" xmlns="http://www.w3.org/2000/svg">
<g clip-path="url(#clip0_42_60625)">
<path d="M656.484 497.317C658.011 493.053 658.15 489.166 656.444 486.132C654.243 482.186 647.362 479.112 637.783 481.194C637.188 480.559 636.474 480.044 635.622 479.687C623.902 474.908 600.045 497.555 581.146 522.641C579.42 484.684 542.197 465.865 516.476 486.628L493.175 593.22C507.255 585.783 531.627 584.118 543.189 587.628C541.107 596.69 544.577 607.776 553.164 610.751C570.853 616.859 578.449 594.886 607.541 566.468C629.95 544.574 642.245 538.05 652.161 525.814C662.433 513.162 662.215 500.648 656.484 497.337V497.317Z" fill="#FABE00"/>
<path d="M607.521 566.447C629.93 544.554 642.225 538.029 652.141 525.793C662.413 513.141 662.195 500.628 656.464 497.316C657.991 493.052 658.13 489.165 656.424 486.131C654.223 482.185 647.342 479.111 637.763 481.193C637.168 480.559 636.454 480.043 635.602 479.686C626.737 476.077 610.932 488.134 595.582 505.09C580.094 526.904 563.952 556.532 563.714 571.564L570.357 606.962C579.48 599.545 589.276 584.256 607.501 566.447H607.521Z" fill="#524524"/>
<path d="M653.113 504.298C655.076 497.218 643.435 489.881 638.517 494.481C634.689 481.849 612.28 498.904 601.572 511.08C586.004 528.769 565.538 554.133 556.059 577.613C550.268 591.951 544.894 606.408 559.232 611.743C572.995 611.366 581.978 591.396 607.521 566.429C629.93 544.535 642.225 538.011 652.141 525.775C653.727 523.812 655.036 521.868 656.147 519.944C657.495 511.853 656.464 504.496 653.113 504.278V504.298Z" fill="#FFE893"/>
<path d="M233.843 512.585C235.509 510.92 238.979 507.31 240.923 505.248C240.923 507.013 241.042 513.022 241.161 517.702C277.591 472.864 285.265 403.613 262.261 355.92C277.65 358.577 310.788 374.561 318.78 389.652C306.623 282.842 211.652 201.772 101.589 218.629C141.827 228.088 215.499 288.454 220.834 311.24C200.705 304.141 150.116 303.843 135.025 311.538C194.796 334.621 243.322 407.401 246.277 452.378C247.685 473.875 243.164 489.502 224.225 510.9C227.914 508.242 232.237 505.268 233.724 504.494C233.724 505.902 233.843 510.801 233.843 512.605V512.585Z" fill="#F3E100"/>
<path d="M421.644 595.579C369.21 756.628 182.877 712.305 177.364 629.589C174.746 590.423 188.192 569.521 230.016 529.779C234.002 525.992 237.69 521.946 241.161 517.682C241.042 513.002 240.923 506.993 240.923 505.228C238.999 507.291 235.529 510.88 233.843 512.566C233.843 510.761 233.724 505.883 233.724 504.455C232.217 505.248 227.913 508.203 224.225 510.861C222.083 513.28 219.803 515.739 217.284 518.317C167.944 568.787 158.762 590.126 160.765 631.93C165.584 732.453 385.531 772.909 434.435 597.047L421.644 595.539V595.579Z" fill="#515557"/>
<path d="M620.173 140.316C616.96 142.042 613.807 143.846 610.694 145.671C608.889 148.269 607.124 150.787 605.438 153.226C610.317 148.487 615.255 144.144 620.153 140.316H620.173Z" fill="#F3E100"/>
<path d="M544.617 287.722C539.877 285.184 536.724 279.353 536.704 270.251C536.645 243.439 569.743 187.853 605.458 153.228C607.144 150.788 608.889 148.27 610.714 145.672C530.477 193.207 489.724 275.447 524.885 297.737C541.503 308.267 554.909 296.626 561.493 282.745C556.198 289.15 550.943 291.113 544.597 287.722H544.617Z" fill="#524524"/>
<path d="M519.292 241.951C508.663 266.74 509.516 287.959 524.885 297.716C535.95 304.736 545.588 301.901 552.747 295.138C532.46 291.945 520.284 267.454 519.272 241.951H519.292Z" fill="#3F3417"/>
<path d="M609.246 220.851C602.285 215.595 589.812 219.006 582.851 225.57C577.635 230.489 574.74 229.14 574.185 221.902C572.876 204.708 583.823 184.679 605.478 153.227C569.762 187.852 536.664 243.438 536.724 270.25C536.724 279.352 539.897 285.183 544.636 287.721C550.962 291.092 556.238 289.149 561.532 282.744C562.108 281.514 562.643 280.285 563.119 279.035C583.267 225.848 601.79 223.092 607.66 228.386C611.11 231.5 611.09 239.214 606.569 245.342C602.821 250.399 597.347 253.374 590.823 251.589C591.22 252.402 591.834 253.136 592.707 253.691C598.141 257.201 605.558 255.952 611.626 245.54C617.139 236.081 616.227 226.106 609.266 220.851H609.246Z" fill="#F3E100"/>
<path d="M607.858 546.775C605.22 544.257 598.319 548.917 592.945 554.767C587.134 561.074 584.755 567.935 587.035 569.918C589.078 571.683 596.177 568.094 601.651 561.629C606.569 555.818 610.079 548.897 607.858 546.795V546.775Z" fill="#FABE00"/>
<path d="M550.011 590.502C547.234 584.91 548.9 575.728 553.481 567.042C557.17 560.041 560.7 553.854 562.881 550.245C549.832 540.845 528.038 536.363 504.974 539.159L493.155 593.219C507.235 585.782 531.607 584.116 543.169 587.626C541.087 596.689 544.557 607.775 553.144 610.75C563.535 614.339 570.437 608.231 580.273 596.828C563.873 604.78 554.373 599.366 549.991 590.542L550.011 590.502Z" fill="#D8A500"/>
<path d="M550.983 592.268C548.92 600.934 549.912 608.272 559.252 611.742C566.57 611.544 572.519 605.813 580.333 596.75C565.023 604.186 555.722 600.002 550.983 592.248V592.268Z" fill="#DCC880"/>
<path d="M261.012 354.433C261.012 354.433 261.547 355.008 262.479 355.96C277.967 358.736 310.808 374.621 318.76 389.653C318.641 388.681 318.522 387.729 318.403 386.758C305.533 360.779 268.746 351.478 261.032 354.433H261.012Z" fill="#CBBE00"/>
<path d="M222.44 312.49C226.585 289.05 149.977 227.732 110.85 219.046C108.689 218.887 103.434 218.352 101.589 218.629C141.827 228.089 215.499 288.455 220.834 311.241C220.596 311.161 222.44 312.49 222.44 312.49Z" fill="#CBBE00"/>
<path d="M245.326 478.337C265.593 431.556 208.241 325.955 137.186 310.586C136.413 310.883 135.659 311.201 135.025 311.538C194.796 334.621 243.323 407.401 246.277 452.378C246.912 461.997 246.337 470.425 243.838 478.734C244.592 478.992 245.107 478.893 245.345 478.357L245.326 478.337Z" fill="#CBBE00"/>
<path d="M167.607 658.821C205.762 738.205 390.152 756.271 434.435 597.087L428.565 596.393C391.521 729.796 234.617 745.304 167.607 658.801V658.821Z" fill="#454749"/>
<path d="M610.158 219.642C602.365 213.772 589.197 217.262 581.681 224.342C578.171 227.654 576.267 227.297 575.85 221.764C574.542 204.471 585.964 184.125 610.416 149.023L597.883 161.398C579.698 188.705 571.309 206.316 572.499 222.022C573.213 231.422 578.21 232.255 584.001 226.801C591.081 220.118 602.008 217.342 608.294 222.081C614.541 226.801 615.691 236.042 610.595 244.788C605.776 253.038 599.231 256.27 593.579 252.621C591.537 251.312 591.616 248.239 592.31 246.136C593.441 242.765 594.829 242.745 595.483 244.966C596.257 247.604 599.787 246.176 599.013 243.539C597.486 238.343 591.497 237.649 589.197 245.383C588.007 249.428 589.137 252.978 592.052 254.862C597.863 258.63 606.906 256.349 612.875 246.097C618.527 236.399 617.892 225.492 610.158 219.642Z" fill="#0E141B"/>
<path d="M619.38 138.829C536.188 183.528 483.398 274.097 523.774 299.679C540.948 310.547 557.051 299.719 564.666 279.63C582.91 231.46 600.362 224.103 606.51 229.636C612.439 234.99 604.943 254.425 590.942 250.082L592.707 252.957C607.6 255.753 616.187 233.82 608.75 227.137C601.631 220.712 582.038 224.222 561.493 278.44C554.889 295.852 540.234 304.855 525.995 295.832C492.282 274.474 534.086 188.486 620.966 141.804C624.417 139.96 622.831 136.965 619.38 138.829Z" fill="#0E141B"/>
<path d="M610.515 146.92C573.074 179.324 534.959 241.653 535.018 270.25C535.058 290.457 551.101 294.582 558.637 286.947L562.623 279.074C550.903 296.328 538.409 285.976 538.37 270.23C538.31 239.769 581.661 172.462 621.204 141.625C621.482 141.407 621.026 140.336 621.026 140.336L610.495 146.9L610.515 146.92Z" fill="#0E141B"/>
<path d="M525.36 479.171L526.967 482.701C552.172 472.269 579.38 493.766 579.559 524.961L582.732 520.38C579.995 486.052 551.161 468.402 525.36 479.171Z" fill="#0E141B"/>
<path d="M541.384 587.825C538.846 598.97 544.081 609.837 552.509 612.752C572.36 619.614 579.42 596.253 608.691 567.656C628.68 548.103 643.891 539.615 653.826 527.36C666.003 512.347 664.019 499.675 657.277 495.828L656.166 499.12C659.557 501.817 660.41 512.447 650.594 524.563C643.236 533.626 621.442 550.483 606.331 565.237C579.995 590.978 569.346 614.081 553.977 608.766C547.809 606.644 543.05 598.018 544.577 588.638C545.132 585.167 545.945 583.323 545.41 582.708C544.696 581.915 542.395 583.343 541.384 587.825Z" fill="#0E141B"/>
<path d="M658.427 485C655.869 480.459 647.818 476.87 637.089 479.329L640.083 482.759C648.65 481.332 653.013 484.445 654.54 487.162C657.971 493.29 652.835 504.752 641.749 515.044C637.644 518.852 639.806 520.419 643.653 517.047C656.94 505.347 662.77 492.734 658.427 484.98V485Z" fill="#0E141B"/>
<path d="M431.758 598.119C403.955 695.45 324.828 722.222 264.72 715.479C207.468 709.054 164.593 673.894 162.59 631.871C160.508 588.283 172.149 567.182 218.613 519.667C242.351 495.374 249.807 478.299 248.102 452.301C245.087 406.392 198.326 335.971 140.558 311.42C158.326 305.65 201.241 306.582 220.14 313.245C222.599 314.137 222.758 312.114 222.46 310.845C216.134 283.776 141.767 229.577 112.814 219.523C208.043 208.913 300.634 280.186 315.726 382.079C303.47 368.197 275.945 356.576 262.519 354.256C260.357 353.879 259.068 354.533 260.119 356.715C285.007 408.276 274.1 485.359 226.625 530.614C183.671 571.565 172.982 592.011 175.5 629.749C177.979 666.834 216.729 698.286 267.477 704.612C323.321 711.573 394.059 686.923 423.667 596.671L419.066 596.037C390.013 683.928 322.29 708.082 267.893 701.28C218.752 695.152 181.509 664.87 179.149 629.412C176.591 591.039 190.096 570.95 229.064 533.231C283.599 480.461 285.84 403.179 266.049 358.539C281.597 362.466 309.023 376.863 317.987 392.093C320.327 396.06 321.477 395.445 320.981 391.082C307.952 276.141 210.066 199.89 101.272 216.548C97.5043 217.123 96.4731 219.801 100.915 220.852C138.575 229.716 207.924 284.906 217.998 308.049C196.442 302.02 148.331 302.338 132.784 310.27C130.682 311.341 130.503 312.412 132.943 313.344C191.305 335.872 241.379 406.53 244.393 452.479C245.821 474.055 241.796 490.614 215.975 517.01C171.058 562.958 156.68 584.872 158.941 632.089C161.162 678.593 209.729 712.683 264.343 718.811C346.305 728.013 412.68 682.242 436.398 598.694L431.758 598.099V598.119Z" fill="#0E141B"/>
<path d="M636.573 477.524C623.485 472.17 599.648 494.738 580.769 520.042C568.751 536.165 558.597 552.228 553.243 564.246C551.24 568.747 553.283 569.402 555.444 565.198C561.988 552.426 571.21 537.91 581.899 523.969C601.195 498.763 624.913 477.723 634.65 481.689C640.678 484.148 637.267 498.228 630.128 504.554C626.678 507.608 628.185 509.69 631.754 506.795C641.194 499.12 646.885 481.729 636.573 477.524Z" fill="#0E141B"/>
<path d="M481.355 416.385C506.204 419.082 572.737 445.854 569.148 466.716C566.133 484.128 539.54 484.068 509.674 483.711L481.355 416.385Z" fill="#FABE00"/>
<path d="M568.791 468.303C550.863 470.187 518.697 461.104 494.067 446.607L509.674 483.711C538.588 484.068 564.467 484.128 568.791 468.303Z" fill="#D8A500"/>
<path d="M543.288 372.916C557.189 331.806 534.959 270.191 476.497 248.991C425.094 230.37 366.989 258.927 341.962 310.289C335.676 323.179 333.494 336.982 328.418 348.96C313.544 384.001 290.877 414.799 289.41 466.618C288.26 507.867 299.306 547.152 333.217 571.009C349.934 595.619 377.619 614.122 417.321 601.787L430.548 606.09C475.822 619.635 530.556 581.321 534.661 531.723C538.945 480.043 502.059 444.823 489.585 417.575C513.462 411.943 535.276 396.654 543.288 372.916Z" fill="#FABE00"/>
<path d="M400.663 605.296L385.71 557.86C358.72 561.271 327.169 533.528 327.942 501.996C312.89 496.344 290.699 463.603 293.773 432.369C291.354 442.8 289.747 454.104 289.39 466.637C288.24 507.886 299.286 547.171 333.197 571.028C347.476 592.049 369.746 608.588 400.643 605.316L400.663 605.296Z" fill="#D8A500"/>
<path d="M434.831 412.143L432.333 415.732C445.203 426.778 470.864 431.775 492.639 423.625C491.509 421.582 490.477 419.559 489.565 417.596C470.686 422.058 450.518 420.452 434.811 412.162L434.831 412.143Z" fill="#D8A500"/>
<path d="M449.07 417.616C412.363 419.837 384.56 449.96 397.172 483.594C403.459 500.351 419.918 576.007 426.066 604.663L430.548 606.11C475.822 619.655 530.556 581.341 534.661 531.744C538.945 480.064 502.059 444.844 489.585 417.596C477.21 421.463 455.099 419.995 449.07 417.635V417.616Z" fill="white"/>
<path d="M489.089 417.713C486.214 417.099 483.596 416.643 481.335 416.385L482.486 419.102C484.865 418.765 487.086 418.289 489.089 417.713Z" fill="#FABE00"/>
<path d="M311.621 419.738C311.879 417.616 304.938 414.403 299.484 412.916C297.402 418.826 295.518 424.993 293.971 431.498C300.515 428.206 311.363 421.781 311.621 419.738Z" fill="#524524"/>
<path d="M289.549 481.492C289.886 488.572 290.659 495.552 291.869 502.355C298.096 495.176 304.779 487.917 304.64 486.371C304.501 484.863 295.28 482.583 289.529 481.492H289.549Z" fill="#3F3417"/>
<path d="M546.044 361.87C545.648 360.859 545.053 360.145 544.259 359.808C538.608 357.527 530.298 362.862 526.035 372.876C521.136 384.378 522.981 392.648 526.649 394.314C527.621 394.75 528.99 394.77 530.596 394.274C536.129 388.166 540.531 381.047 543.288 372.896C544.478 369.366 545.39 365.658 546.064 361.85L546.044 361.87Z" fill="#F3E100"/>
<path d="M405.799 345.033C418.134 344.895 427.672 355.385 427.672 367.978C427.672 379.421 417.083 389.872 405.124 389.872C394.634 389.872 383.013 381.9 383.013 367.641C383.013 354.592 393.523 345.152 405.799 345.014V345.033Z" fill="#F3E100"/>
<path d="M418.015 568.49C421.545 584.335 430.528 606.09 430.528 606.09C474.91 619.377 528.335 582.808 534.304 534.639C515.306 580.25 446.135 590.523 418.015 568.471V568.49Z" fill="#DCDDDD"/>
<path d="M422.417 473.936C420.275 468.7 416.606 465.507 411.53 465.626C404.668 465.805 400.623 471.794 398.659 477.346C396.874 475.205 394.832 474.015 392.69 474.213C380.355 475.383 374.445 512.487 375.992 531.723C377.024 544.514 387.296 638.038 424.42 628.896C445.798 623.621 434.137 593.914 434.494 562.62C434.831 533.528 440.503 509.711 441.276 495.353C442.347 475.482 432.174 467.272 422.417 473.916V473.936Z" fill="#524524"/>
<path d="M376.727 538.863C379.681 564.287 391.481 637.027 424.42 628.916C426.582 628.381 428.387 627.588 429.933 626.576C407.425 611.168 387.535 572.874 376.727 538.863Z" fill="#FABE00"/>
<path d="M441.276 495.293C436.378 488.63 430.012 486.786 424.579 489.265C419.284 483.315 408.555 484.961 404.748 493.568C384.619 485.457 375.854 544.693 394.416 608.37C401.594 622.609 411.331 632.148 424.42 628.915C445.798 623.64 434.137 593.933 434.494 562.64C434.831 533.547 440.503 509.73 441.276 495.373C441.276 495.333 441.276 495.313 441.276 495.273V495.293Z" fill="#FFE893"/>
<path d="M411.867 547.766C420.236 546.239 426.899 582.312 414.187 583.621C401.456 584.949 402.785 549.412 411.867 547.766Z" fill="#FABE00"/>
<path d="M534.523 434.074C531.647 434.927 529.208 436.394 528.573 438.259C527.026 442.76 535.415 446.449 533.591 450.237C531.667 454.223 524.032 450.058 522.783 454.361C521.375 459.26 528.256 460.013 528.058 463.107C527.859 466.121 523.338 467.49 521.077 470.583C523.239 474.827 525.281 479.21 527.086 483.771C549.257 483.414 566.748 480.657 569.168 466.736C571.012 456.067 554.473 443.831 534.542 434.074H534.523Z" fill="#524524"/>
<path d="M437.092 599.942C429.933 624.969 405.898 617.591 393.107 603.67C393.523 605.237 393.96 606.783 394.416 608.35C401.595 622.589 411.332 632.128 424.42 628.895C436.696 625.861 438.084 614.756 437.092 599.922V599.942Z" fill="#DCC880"/>
<path d="M568.731 468.323C558.359 469.394 543.248 466.816 527.582 461.66C527.899 462.096 528.077 462.572 528.038 463.108C527.839 466.122 523.318 467.491 521.057 470.584C523.219 474.828 525.261 479.211 527.066 483.772C548.345 483.435 565.28 480.857 568.731 468.323Z" fill="#3F3417"/>
<path d="M497.002 431.041C494.087 426.341 491.529 421.859 489.585 417.596C477.211 421.463 455.099 419.995 449.07 417.635C439.531 418.191 430.627 420.689 422.854 424.596C434.514 434.869 468.049 441.254 497.022 431.061L497.002 431.041Z" fill="#DCDDDD"/>
<path d="M476.992 247.147C425.055 228.327 366.473 255.199 340.058 309.397C333.217 323.418 332.721 334.087 326.752 348.147C311.958 382.97 288.517 414.046 287.03 466.757C285.642 516.176 302.637 552.983 335.001 574.281L330.698 567.063C296.827 540.786 290.778 499.161 291.67 466.836C293.039 418.072 314.02 387.551 330.103 349.674C335.696 336.486 337.203 325.341 344.084 311.241C369.27 259.561 426.8 232.889 475.882 250.677C532.024 271.024 555.147 330.894 541.205 372.163C528.057 411.051 470.527 431.616 433.086 409.366C428.168 406.431 426.621 409.128 431.559 412.063C467.196 433.242 529.842 419.202 545.291 373.531C560.799 327.661 533.63 267.672 477.012 247.147H476.992Z" fill="#0E141B"/>
<path d="M332.781 566.23C327.307 555.858 324.233 557.485 329.806 567.817C340.019 586.795 360.306 608.074 393.424 608.153L391.362 603.215C361.377 602.402 340.852 581.48 332.781 566.23Z" fill="#0E141B"/>
<path d="M491.43 417.555L488.098 418.408C500.75 445.913 536.783 480.995 532.579 531.604C529.247 571.881 484.865 614.18 437.945 605.514L437.866 610.036C481.554 617.75 532.678 580.944 536.744 531.941C541.027 480.063 505.153 446.727 491.43 417.535V417.555Z" fill="#0E141B"/>
<path d="M494.483 416.881L485.341 419.181C519.371 425.626 570.278 450.197 567.482 466.439C565.241 479.389 547.67 481.392 526.431 481.669L528.395 485.992C551.24 485.596 568.335 481.273 570.813 467.014C573.927 449.027 530.001 425.805 494.503 416.881H494.483Z" fill="#0E141B"/>
<path d="M506.501 586.378L498.945 592.823C513.065 587.528 533.174 586.477 542.256 589.094L543.189 585.902C533.412 583.185 519.629 583.244 506.521 586.397L506.501 586.378Z" fill="#0E141B"/>
<path d="M411.312 463.366C405.461 463.525 400.563 468.066 397.489 475.741L400.127 478.299C402.507 471.219 406.691 468.026 411.391 467.907C423.23 467.749 424.896 488.115 420.533 504.119C419.125 509.295 421.703 509.949 423.27 504.972C429.417 485.537 426.006 462.85 411.312 463.366Z" fill="#0E141B"/>
<path d="M433.562 470.505C429.914 468.839 425.709 469.771 421.842 472.27L423.33 475.324C426.344 473.261 429.259 473.063 431.936 474.273C436.041 476.137 440.285 482.404 439.591 495.294C439.314 500.489 433.027 544.118 432.809 562.62C432.412 596.571 442.407 622.094 423.964 626.635C399.294 632.704 381.962 581.995 377.897 531.605C376.528 514.57 381.883 477.604 393.147 476.533C399.83 475.958 404.292 491.407 404.034 504.099C403.955 508.144 405.997 508.263 406.453 504.238C408.258 488.611 401.258 470.763 392.552 471.774C378.65 473.4 372.502 512.249 374.069 531.862C378.273 584.058 394.951 638.514 424.936 631.137C448.218 625.406 435.843 590.662 436.16 562.64C436.359 544.356 442.645 500.807 442.943 495.452C443.597 483.078 440.166 473.499 433.543 470.485L433.562 470.505Z" fill="#0E141B"/>
<path d="M422.636 569.521C422.259 554.43 416.508 545.387 411.649 546.259C405.858 547.29 402.011 561.351 403.558 572.099C405.125 583.066 410.658 585.287 414.227 584.91C419.701 584.335 422.854 578.167 422.636 569.501V569.521ZM414.049 582.173C409.071 582.709 407.366 574.915 406.89 571.643C405.164 559.605 408.972 549.214 412.184 548.976C416.27 548.678 419.562 562.203 419.601 569.779C419.621 577.077 417.539 581.816 414.049 582.193V582.173Z" fill="#0E141B"/>
<path d="M322.766 512.884C321.953 517.862 324.511 518.199 325.523 513.38C332.186 481.888 365.086 469.514 386.186 477.863L389.656 474.392C366.672 463.981 328.279 478.815 322.766 512.884Z" fill="#0E141B"/>
<path d="M313.286 419.935C313.643 417 306.464 412.737 300.495 411.031L299.167 415.017C303.787 415.87 309.994 418.389 309.836 419.559C309.637 421.224 300.575 426.083 295.161 428.423L293.832 434.016C300.594 430.724 313.009 422.394 313.306 419.955L313.286 419.935Z" fill="#0E141B"/>
<path d="M306.326 486.23C306.048 483.811 296.252 480.34 289.767 479.527L290.045 483.652C294.507 484.089 302.499 485.913 302.697 486.825C302.935 487.936 297.66 494.064 291.869 499.021L292.722 504.197C298.136 498.863 306.524 487.956 306.326 486.23Z" fill="#0E141B"/>
<path d="M480.384 379.361C473.443 378.369 462.06 379.5 455.059 377.12C447.246 374.463 444.172 368.95 447.642 364.745C449.784 362.167 451.926 363.397 449.983 366.213C448.019 369.049 450.637 371.468 456.348 373.392C462.873 375.613 471.598 374.681 480.86 375.99C493.274 377.774 505.43 383.268 506.025 379.163C506.541 375.553 509.456 376.168 508.921 379.777C507.592 388.939 495.039 381.443 480.384 379.321V379.361Z" fill="#0E141B"/>
<path d="M527.581 373.551C532.936 360.998 544.398 356.972 545.39 363.735L546.163 359.412C541.919 355.564 530.318 358.519 524.468 372.222C518.281 386.759 522.306 395.365 527.562 396L531.369 392.569C524.349 396.159 522.247 386.065 527.581 373.531V373.551Z" fill="#0E141B"/>
<path d="M405.779 343.507C392.076 343.665 381.327 354.176 381.327 367.661C381.327 382.634 393.444 391.419 405.144 391.419C421.426 391.419 429.378 377.061 429.378 367.978C429.378 355.267 419.978 343.388 405.799 343.507H405.779ZM405.124 388.404C395.09 388.404 384.698 380.531 384.698 367.681C384.698 356.06 393.999 346.838 405.838 346.62C417.757 346.402 425.967 357.051 425.987 367.998C425.987 377.676 416.686 388.404 405.124 388.404Z" fill="#0E141B"/>
<path d="M525.361 323.437C531.251 324.29 533.987 333.115 532.837 340.75C531.429 350.189 525.797 355.782 519.709 354.651C515.524 353.878 511.201 348.345 512.966 337.24C514.335 328.673 519.967 322.644 525.341 323.437H525.361Z" fill="#0E141B"/>
<path d="M523.853 325.757C526.689 326.154 528.553 328.851 528.157 332.559C527.78 335.99 524.27 338.052 521.573 337.398C518.915 336.743 517.329 333.788 517.983 330.576C518.598 327.462 521.196 325.42 523.873 325.777L523.853 325.757Z" fill="white"/>
<path d="M436.378 308.307C446.433 308.307 453.195 317.429 453.195 327.364C453.195 338.529 444.469 344.756 435.248 344.756C426.8 344.756 418.629 337.934 418.629 327.642C418.629 317.35 425.392 308.307 436.378 308.307Z" fill="#0E141B"/>
<path d="M436.279 310.666C439.69 310.428 443.498 313.958 443.28 318.301C443.101 321.831 440.761 325.143 436.021 325.242C432.65 325.322 429.398 322.089 429.418 317.964C429.418 314.295 432.194 310.924 436.279 310.646V310.666Z" fill="white"/>
<path d="M493.849 360.74C492.699 366.134 504.756 368.177 505.787 363.695C506.898 358.836 494.602 357.25 493.849 360.74Z" fill="#0E141B"/>
<path d="M608.909 545.823C606.708 543.721 600.342 544.812 591.953 553.934C587.194 559.11 582.474 568.153 585.945 571.168C588.959 573.785 597.843 568.094 602.702 562.323C608.393 555.56 611.785 548.56 608.909 545.823ZM600.659 560.578C597.387 564.465 590.327 569.819 588.146 568.629C586.143 566.884 589.177 560.776 593.639 555.917C599.45 549.611 605.22 546.319 606.847 547.866C607.68 548.659 606.034 554.192 600.659 560.578Z" fill="#0E141B"/>
<path d="M383.112 462.989C415.338 445.974 452.362 406.967 443.438 391.935C436.002 379.401 391.739 379.679 357.332 414.086L383.112 463.009V462.989Z" fill="#FABE00"/>
<path d="M383.112 462.989C415.338 445.974 452.362 406.966 443.438 391.934C442.943 391.081 442.248 390.288 441.416 389.574C436.735 413.372 394.971 453.43 382.577 461.839V461.938L383.112 463.009V462.989Z" fill="#D8A500"/>
<path d="M443.418 391.934C438.342 383.367 416.071 380.789 391.501 390.982C388.466 394.254 386.166 398.359 387.138 400.66C388.506 403.932 398.223 399.866 399.79 403.654C401.317 407.363 391.719 415.612 396.22 422.494C399.413 427.372 410.221 418.666 413.513 421.998C415.357 423.862 411.391 429.018 414.505 432.132C416.23 433.857 418.629 432.667 422.259 433.5C438.203 417.556 448.614 400.66 443.418 391.914V391.934Z" fill="#524524"/>
<path d="M313.604 100.813C320.862 106.603 326.831 112.493 333.336 119.077C331.333 115.448 329.37 112.117 327.486 109.261C329.35 112.136 331.333 115.448 333.336 119.077C380.831 167.128 407.009 232.571 394.535 264.677C386.959 284.171 374.049 282.267 360.187 268.981C372.542 290.517 389.478 298.251 403.736 292.024C444.271 274.315 420.712 144.402 313.604 100.793V100.813Z" fill="#524524"/>
<path d="M333.336 119.078C349.498 148.428 367.723 199.295 352.592 216.389C342.161 228.169 315.726 215.418 302.399 229.319C293.535 238.58 292.345 257.023 303.054 268.049C307.02 272.135 311.839 273.84 316.499 273.265L316.559 271.381C302.756 271.103 294.407 248.952 308.745 238.005C324.154 226.245 348.844 247.604 359.87 268.704C373.851 282.249 386.9 284.331 394.535 264.698C407.009 232.591 380.851 167.149 333.336 119.098V119.078Z" fill="#F3E100"/>
<path d="M443.418 391.934C442.923 391.101 442.209 390.327 441.396 389.613C439.016 401.671 427.137 417.873 414.386 432.032C414.425 432.072 414.465 432.111 414.505 432.171C416.23 433.896 418.63 432.706 422.259 433.539C438.203 417.595 448.614 400.699 443.418 391.953V391.934Z" fill="#3F3417"/>
<path d="M334.446 121.141C358.66 154.457 405.977 240.881 384.441 277.965C386.781 275.625 392.73 269.299 394.515 264.678C406.989 232.572 380.831 167.129 333.316 119.078C333.693 119.752 334.069 120.446 334.426 121.141H334.446Z" fill="#CBBE00"/>
<path d="M382.378 461.581C414.167 443.317 449.328 405.975 441.693 393.124C434.97 381.801 392.849 382.336 358.343 415.216C353.94 419.42 352.116 417.417 356.34 413.015C389.141 378.747 436.477 376.268 445.243 391.042C454.96 407.423 418.173 446.688 383.826 464.358C378.908 466.876 377.004 464.635 382.358 461.562L382.378 461.581Z" fill="#0E141B"/>
<path d="M317.748 100.794C312.553 98.4735 311.502 101.686 316.777 104.006C418.252 148.567 440.146 273.741 402.943 289.983C388.803 296.15 373.018 288.059 361.575 268.03C346.246 241.198 323.539 225.492 307.991 236.419C296.589 244.431 297.917 257.479 305.374 267.117C308.884 271.659 315.507 273.344 321.496 272.65L324.491 267.93C318.641 272.769 310.649 269.418 307.416 265.233C301.665 257.797 300.158 246.037 309.935 239.175C323.856 229.399 345.532 246.751 358.66 269.715C371.907 292.878 390.469 300.553 404.589 294.385C446.294 276.16 423.27 147.813 317.768 100.794H317.748Z" fill="#0E141B"/>
<path d="M336.211 121.814L328.14 113.465C344.977 141.07 366.533 197.529 351.045 215C341.367 225.927 314.754 213.949 301.17 228.128C291.968 237.727 290.302 257.32 301.844 269.199C309.796 277.369 320.386 276.1 326.474 270.309C333.594 263.567 328.814 249.923 319.394 251.43C316.717 251.866 317.411 255.555 320.069 255.158C325.522 254.365 328.279 264.538 324.471 267.91C318.244 273.423 310.054 273.383 304.144 267.295C293.912 256.764 295.478 238.936 303.609 230.449C316.162 217.36 342.994 230.191 354.099 217.638C368.952 200.861 353.068 151.66 336.211 121.794V121.814Z" fill="#0E141B"/>
<path d="M319.712 104.065L314.258 102.498C371.451 149.914 406.453 228.862 392.789 264.022C385.769 282.069 373.871 281.791 358.64 265.371L362.765 273.065C374.961 283.08 388.149 286.194 396.24 265.351C409.725 230.607 378.531 154.277 319.692 104.085L319.712 104.065Z" fill="#0E141B"/>
</g>
<defs>
<clipPath id="clip0_42_60625">
<rect width="564.691" height="620" fill="white" transform="translate(98 100)"/>
</clipPath>
</defs>
</svg>
