<svg width="800" height="800" viewBox="0 0 800 800" fill="none" xmlns="http://www.w3.org/2000/svg">
<g clip-path="url(#clip0_42_60711)">
<path d="M190.221 338.211C190.831 337.398 199.171 341.466 203.834 343.641L198.248 354.172C193.459 348.085 189.61 339.025 190.221 338.211Z" fill="#EFEFEF"/>
<path d="M212.095 317.04C213.409 316.743 219.34 325.818 222.923 331.248L208.528 337.757C208.277 326.491 210.812 317.322 212.079 317.04H212.095Z" fill="#EFEFEF"/>
<path d="M239.462 317.119C241.23 317.76 241.981 325.709 243.546 332.719L231.451 329.605C233.328 324.176 238.054 316.602 239.462 317.119Z" fill="#EFEFEF"/>
<path d="M201.815 347.426L198.247 354.154C194.038 348.819 190.58 341.23 190.205 338.883C193.616 340.792 198.216 344.406 201.815 347.426Z" fill="#C9CACA"/>
<path d="M212.095 317.041C212.033 316.947 212.361 317.072 212.518 317.182C215.851 320.577 219.621 324.692 222.923 331.264L216.492 333.58C216.242 322.314 214.145 319.795 212.095 317.056V317.041Z" fill="#C9CACA"/>
<path d="M239.431 317.119C239.431 317.119 239.446 317.119 239.462 317.119C241.23 317.761 241.981 325.709 243.546 332.719L238.664 331.468C239.133 327.431 239.478 321.985 239.446 317.119H239.431Z" fill="#C9CACA"/>
<path d="M526.195 508.781C555.017 496.748 598.484 462.841 617.636 441.451C622.816 435.677 629.028 438.822 628.449 449.681C626.681 482.822 608.577 547.288 565.704 586.234L526.195 508.781Z" fill="#DDC300"/>
<path d="M627.213 441.748C628.136 443.594 628.637 446.254 628.465 449.697C626.696 482.837 608.593 547.303 565.72 586.249L551.215 557.803C589.284 537.54 621.157 480.991 627.228 441.748H627.213Z" fill="#B5A000"/>
<path d="M221.734 589.237C215.1 556.018 235.738 507.872 268.19 501.488L351.01 658.366L333.266 658.836C336.881 662.747 338.868 666.847 338.274 670.868C336.427 683.464 308.168 705.229 283.086 708.421C279.425 708.891 274.027 707.967 272.165 707.216L241.856 688.956C249.21 678.754 260.507 667.301 276.295 658.616C252.434 651.528 229.73 629.388 221.718 589.237H221.734Z" fill="#DDC300"/>
<path d="M479.833 389.971C526.758 432.844 532.422 477.892 533.22 528.854L453.811 656.785C369.051 679.739 293.319 669.444 269.692 587.421C255.344 537.617 261.336 483.759 294.461 436.427L479.801 389.986L479.833 389.971Z" fill="#DDC300"/>
<path d="M483.197 375.482C507.528 365.64 540.982 325.928 540.293 318.98C539.824 314.255 514.382 301.237 481.695 292.333C479.176 291.645 474.81 294.336 470.617 300.626C481.789 311.877 489.628 350.243 483.197 375.498V375.482Z" fill="#DDC300"/>
<path d="M437.006 252.778C374.793 222.345 295.431 253.639 281.771 334.769C277.359 360.993 276.013 395.808 283.274 419.748C288.296 436.334 293.945 452.905 302.066 459.038C310.828 465.657 337.96 454.594 349.257 455.408C393.883 458.616 445.988 451.559 470.976 415.258C506.229 364.029 496.387 281.804 437.022 252.763L437.006 252.778Z" fill="#DDC300"/>
<path d="M484.871 313.832C499.861 314.693 529.778 319.121 530.31 321.264C530.905 323.658 501.567 359.506 488.376 364.294C492.069 350.368 487.891 326.365 484.855 313.832H484.871Z" fill="#F2D5B5"/>
<path d="M530.31 321.28C530.31 321.28 530.31 321.452 530.279 321.562C512.895 322.203 499.595 326.897 488.642 332.765C487.703 326.741 485.888 318.088 484.855 313.848C499.845 314.708 529.763 319.136 530.295 321.28H530.31Z" fill="#D1B99E"/>
<path d="M302.05 459.053C296.167 454.609 291.598 444.689 287.592 433.251C294.008 442.451 300.72 451.527 306.322 452.653C312.815 453.952 322.97 452.481 335.144 448.976C344.892 446.16 352.637 447.724 362.01 447.458C407.199 446.175 458.646 440.089 488.11 373.166C488.282 373.229 488.47 373.307 488.642 373.369C485.481 388.375 479.567 402.77 470.945 415.288C445.957 451.589 393.852 458.63 349.226 455.438C337.929 454.625 310.797 465.687 302.035 459.069L302.05 459.053Z" fill="#B5A000"/>
<path d="M386.545 246.049C353.17 210.311 331.53 199.89 327.352 201.454C323.174 203.019 317.447 263.526 318.23 274.73L386.56 246.049H386.545Z" fill="#DDC300"/>
<path d="M381.663 240.917L365.781 243.358C366.407 233.657 360.414 223.533 351.933 214.051C360.117 220.247 370.115 229.009 381.663 240.932V240.917Z" fill="#B5A000"/>
<path d="M331.467 215.615C335.379 221.483 348.334 240.338 352.747 247.175C344.125 250.133 335.879 254.217 328.244 259.365C328.165 248.599 329.714 223.314 331.467 215.615Z" fill="#F2D5B5"/>
<path d="M274.089 486.092C247.927 473.95 227.539 446.552 213.065 421.156C193.24 386.357 190.846 346.692 214.035 334.315C240.448 320.233 260.194 340.574 281.709 376.75L339.634 416.102L274.089 486.092Z" fill="#DDC300"/>
<path d="M198.388 363.184C196.698 414.569 254.592 447.365 290.581 465.625L274.089 486.092C247.927 473.949 227.539 446.551 213.065 421.156C197.23 393.367 195.259 372.415 198.388 363.184Z" fill="#B5A000"/>
<path d="M268.19 501.488C235.738 507.872 215.1 556.018 221.734 589.237C230.465 632.987 256.643 655.362 282.758 660.166L351.01 658.366" fill="#DDC300"/>
<path d="M224.816 601.912C236.536 612.145 261.9 607.029 271.914 593.604C281.083 626.635 309.342 651.138 334.221 659.932C337.225 663.515 338.821 667.239 338.289 670.869C336.443 683.465 308.184 705.23 283.102 708.422C279.44 708.891 274.042 707.968 272.18 707.217L263.449 701.96C294.117 698.345 308.92 691.116 309.17 681.243C309.483 669.523 274.684 664.36 261.227 668.397C264.873 665.705 272.008 660.98 276.311 658.617C252.934 651.67 231.2 626.635 224.801 601.912H224.816Z" fill="#B5A000"/>
<path d="M494.4 520.234L520.562 518.074C555.345 520.234 577.173 566.549 568.317 607.497C560.54 643.486 542.703 661.183 524.083 669.163C536.991 677.737 544.408 687.376 546.771 699.487L517.182 709.204C492.1 720.376 441.826 679.208 449.415 661.323C440.183 654.313 433.721 645.301 430.622 635.396C418.997 598.093 440.73 532.626 494.4 520.234Z" fill="#DDC300"/>
<path d="M568.927 577.361C570.508 586.045 570.508 596.858 568.317 607.498C560.885 643.564 542.703 661.183 524.083 669.163C528.339 671.995 531.985 674.937 535.067 678.05C511.643 675.875 492.116 683.449 492.82 692.978C493.211 698.313 499.924 703.242 517.527 705.136L517.167 709.204C492.084 720.376 441.81 679.208 449.399 661.324C440.167 654.314 433.705 645.301 430.607 635.396C429.277 631.109 427.556 621.189 427.102 616.291C447.881 651.622 555.737 644.519 568.912 577.361H568.927Z" fill="#B5A000"/>
<path d="M244.438 685.575C249.805 683.526 254.905 686.436 255.719 691.975C249.288 696.92 240.682 706.856 237.412 712.833C234.376 713.568 232.014 713.897 231.404 713.067C229.886 710.986 233.86 698.954 244.422 685.56L244.438 685.575Z" fill="#EFEFEF"/>
<path d="M277.828 707.624C259.772 716.23 236.817 719.234 236.145 717.012C234.877 712.834 253.043 691.507 260.445 689.207C268.378 686.735 276.373 698.486 277.828 707.624Z" fill="#EFEFEF"/>
<path d="M545.644 718.796C546.74 717.012 534.504 695.403 526.054 691.319C517.605 687.235 506.793 696.436 508.436 708.515C508.858 711.613 544.518 720.642 545.644 718.796Z" fill="#EFEFEF"/>
<path d="M528.808 693.134C529.168 686.89 537.007 683.651 542.969 687.939C550.135 693.087 552.967 715.697 549.869 717.387C549.212 717.747 547.131 716.651 544.627 715.165C541.983 709.297 534.942 698.094 528.808 693.134Z" fill="#EFEFEF"/>
<path d="M290.863 441.811C294.07 449.478 297.716 455.768 302.05 459.054C310.813 465.672 337.945 454.61 349.242 455.424C372.775 457.113 398.374 455.94 420.984 449.149C423.941 451.136 427.337 453.984 429.793 456.566C425.271 460.587 420.499 465.266 415.398 470.633C392.068 495.198 343.03 530.326 380.708 557.349C405.603 575.202 431.655 559.101 465.109 534.128C433.158 558.647 421.407 605.839 430.607 635.396C433.33 644.128 438.681 652.17 446.223 658.758C364.576 679.052 292.615 666.988 269.708 587.422C255.907 539.495 260.93 487.829 290.847 441.826L290.863 441.811Z" fill="#F2D5B5"/>
<path d="M313.535 474.012C304.382 471.086 294.728 459.93 290.863 441.811C294.07 449.478 297.716 455.768 302.05 459.054C310.813 465.672 337.945 454.61 349.242 455.424C372.775 457.113 398.374 455.94 420.984 449.149C421.203 449.29 421.438 449.478 421.657 449.634C386.357 470.054 337.992 481.836 313.535 474.012Z" fill="#D1B99E"/>
<path d="M330.027 392.208C350.963 405.743 399.266 399.437 423.722 386.544L446.802 410.609C448.992 420.67 445.659 432.734 437.852 442.702C411.768 455.157 378.862 457.551 349.242 455.438C337.945 454.625 310.813 465.687 302.05 459.068C293.93 452.935 288.281 436.365 283.258 419.779C276.217 396.543 277.281 363.074 281.396 337.146L305.18 334.533C304.616 356.032 313.973 381.866 330.027 392.24V392.208Z" fill="#F2D5B5"/>
<path d="M302.05 459.054C296.167 454.61 291.598 444.69 287.592 433.252C294.008 442.452 300.72 451.528 306.322 452.654C312.815 453.953 322.97 452.482 335.144 448.977C344.892 446.161 352.637 447.725 362.01 447.459C389.862 446.661 420.108 444.048 446.097 426.477C444.58 432.063 441.779 437.664 437.82 442.703C411.736 455.158 378.831 457.552 349.211 455.439C337.913 454.626 310.781 465.688 302.019 459.069L302.05 459.054Z" fill="#D1B99E"/>
<path d="M331.232 216.757C331.31 216.351 331.388 215.959 331.467 215.615C335.378 221.483 348.334 240.338 352.747 247.175C349.68 248.224 343.437 250.555 340.479 251.885C339.916 240.932 335.363 225.911 331.232 216.757Z" fill="#D1B99E"/>
<path d="M380.708 557.348C416.54 551.23 494.275 505.916 492.366 462.902C498.546 494.916 487.421 516.165 458.897 538.728C428.385 560.994 404.038 574.075 380.708 557.348Z" fill="#B5A000"/>
<path d="M271.272 591.037C293.585 649.057 406.197 625.351 430.059 591.882C426.007 607.654 428.103 627.354 430.607 635.381C433.329 644.112 438.681 652.155 446.223 658.742C424.63 664.109 403.725 667.207 384.229 667.411C323.268 668.021 287.045 640.482 271.272 591.037Z" fill="#D1B99E"/>
<path d="M236.473 717.34C250.822 713.428 266.641 704.806 274.308 696.779C275.434 699.048 277.218 703.774 277.828 707.623C260.789 715.744 239.399 718.873 236.473 717.34Z" fill="#C9CACA"/>
<path d="M237.412 712.834C234.377 713.57 231.81 713.226 231.216 712.412C233.751 711.317 248.85 699.425 255.344 690.443C255.5 690.928 255.625 691.429 255.704 691.961C249.273 696.906 240.667 706.842 237.396 712.819L237.412 712.834Z" fill="#C9CACA"/>
<path d="M508.435 708.499C507.825 704.039 508.92 699.987 510.97 696.842C517.433 703.914 533.173 713.678 545.018 718.184C541.028 719.749 508.858 711.613 508.435 708.515V708.499Z" fill="#C9CACA"/>
<path d="M533.127 686.891C535.396 694.839 546.395 715.603 550.511 716.526C550.339 716.949 550.119 717.246 549.853 717.387C549.196 717.747 547.115 716.651 544.612 715.165C541.967 709.297 534.926 698.094 528.792 693.134C528.949 690.27 530.701 688.049 533.127 686.891Z" fill="#C9CACA"/>
<path d="M462.699 375.951C455.016 366.766 437.93 367.861 426.085 378.392C409.264 393.35 394.618 424.034 400.674 430.246C407.746 437.507 435.301 430.246 452.716 412.362C463.153 401.659 468.786 383.227 462.699 375.935V375.951Z" fill="#0E141B"/>
<path d="M312.878 292.396C306.494 288.766 288.297 296.73 279.753 322.579C274.809 337.538 275.169 363.481 283.665 366.704C297.841 372.102 327.32 300.595 312.894 292.396H312.878Z" fill="#0E141B"/>
<path d="M310.797 295.761C305.946 295.573 299.234 303.835 297.497 312.738C295.964 320.64 298.045 327.431 301.753 328.197C307.292 329.324 311 322.142 313.035 312.754C314.865 304.32 313.958 295.886 310.813 295.761H310.797Z" fill="white"/>
<path d="M330.841 390.879C315.053 380.677 306.76 356.064 306.588 336.85L304.084 341.012C305.336 360.258 313.942 383.587 329.386 393.57C351.073 407.59 395.604 400.533 419.028 390.316L421.579 386.185C396.136 398.828 350.15 403.381 330.825 390.895L330.841 390.879Z" fill="#0E141B"/>
<path d="M467.769 497.06C475.357 488.563 486.295 471.931 490.926 461.666L491.975 465.609C486.436 476.625 476.062 492.475 468.942 500.111L467.769 497.06Z" fill="#0E141B"/>
<path d="M432.344 469.365L429.073 469.256C421.078 479.27 399.735 500.785 393.022 506.496L396.136 507.889C404.68 500.237 425.615 478.331 432.344 469.365Z" fill="#0E141B"/>
<path d="M413.52 472.823L417.729 468.708C438.43 463.591 457.973 475.921 466.845 492.116C472.463 502.364 474.246 517.276 467.815 530.983L461.697 535.599C469.396 524.333 472.713 509.155 464.06 493.383C455.016 476.875 434.675 464.592 413.52 472.807V472.823Z" fill="#0E141B"/>
<path d="M382.899 504.288C406.949 502.645 430.153 537.601 422.345 560.055L418.966 561.369C428.917 540.417 403.005 502.755 380.458 507.277L382.899 504.273V504.288Z" fill="#0E141B"/>
<path d="M278.798 397.186L279.002 399.846C259.678 403.006 229.432 426.868 234.548 452.764L231.325 448.399C230.089 423.269 256.72 400.706 278.783 397.186H278.798Z" fill="#0E141B"/>
<path d="M248.224 414.71C240.307 405.603 224.206 383.087 218.98 373.996L217.133 376.093C222.985 386.013 237.913 407.684 245.799 416.681L248.224 414.71Z" fill="#0E141B"/>
<path d="M234.58 436.365L233.641 439.354C242.106 449.008 260.492 465.782 274.183 474.513L275.262 471.556C261.196 462.512 242.231 445.519 234.58 436.365Z" fill="#0E141B"/>
<path d="M189.251 337.413C187.748 339.416 193.35 350.557 198.06 356.205L199.03 352.466C195.196 347.615 191.551 340.183 191.895 339.729C192.239 339.275 198.498 342.42 202.472 344.705L204.366 342.045C196.808 338.508 190.283 336.036 189.251 337.397V337.413Z" fill="#0E141B"/>
<path d="M224.19 329.965C219.293 322.016 213.566 315.366 211.907 315.742C209.779 316.211 206.806 327.321 207.182 338.759L210.186 336.239C209.998 326.444 211.735 318.934 212.517 318.762C213.3 318.59 216.742 323.925 220.904 330.951L224.206 329.965H224.19Z" fill="#0E141B"/>
<path d="M240.009 315.867C237.819 315.069 232.608 322.642 229.839 329.089L233.547 329.339C235.175 325.239 238.679 318.527 239.243 318.683C239.79 318.824 240.854 325.943 241.825 331.858L245.173 332.969C243.859 325.99 241.918 316.54 240.025 315.851L240.009 315.867Z" fill="#0E141B"/>
<path d="M443.062 657.865C328.932 685.451 286.012 635.694 271.977 586.953C257.644 537.179 264.091 487.171 291.317 444.361L289.893 440.574C261.165 484.464 252.981 536.632 267.752 587.923C294.086 679.349 382.398 676.313 446.379 660.51L443.062 657.85V657.865Z" fill="#0E141B"/>
<path d="M283.102 658.866C251.87 652.795 230.621 622.581 224.034 589.597C216.273 550.714 242.435 509.843 265.217 503.819L266.109 500.393C231.639 508.466 213.363 558.788 219.7 590.582C226.96 626.993 250.259 656.566 282.617 661.495C291.238 662.809 292.756 660.76 283.102 658.882V658.866Z" fill="#0E141B"/>
<path d="M313.05 660.556C308.841 661.041 308.951 662.606 313.16 662.763C319.184 662.982 327.054 661.918 333 660.431L327.43 658.021C322.047 659.383 317.823 660.009 313.05 660.556Z" fill="#0E141B"/>
<path d="M337.961 661.731L332.5 660.072C335.191 663.123 337.053 666.675 336.505 670.415C334.847 681.744 307.824 703.43 283.368 706.716C281.85 706.92 279.221 707.092 277.798 706.216L276.311 709.627C278.658 710.612 281.412 710.597 283.618 710.315C309.217 707.061 338.493 684.654 340.464 671.229C340.918 668.193 340.042 664.985 337.961 661.731Z" fill="#0E141B"/>
<path d="M230.215 714.024C230.84 714.869 233.078 715.26 236.192 714.618L238.195 710.816C235.832 711.849 233.5 712.506 232.734 711.943C231.091 710.738 244.109 678.145 277.782 659.853L273.416 658.555C239.838 677.91 226.757 709.298 230.215 714.039V714.024Z" fill="#0E141B"/>
<path d="M234.971 717.403C233.297 711.895 252.856 690.005 259.866 687.814C267.048 685.577 276.28 692.947 279.237 705.339C279.816 707.78 279.597 708.672 276.64 709.971C258.896 717.826 236.035 720.924 234.971 717.403ZM237.506 716.276C238.038 717.513 259.052 714.195 274.903 707.154C275.857 706.732 276.029 706.247 275.763 705.308C272.743 694.981 265.796 689.16 260.914 690.678C253.842 692.884 236.661 714.274 237.506 716.261V716.276Z" fill="#0E141B"/>
<path d="M247.144 683.777L244.406 686.782C250.477 684.622 253.888 688.597 254.311 692.587L256.987 690.631C255.766 686.062 252.058 683.402 247.144 683.777Z" fill="#0E141B"/>
<path d="M290.002 629.262L291.973 631.516C274.104 636.444 253.403 633.049 235.346 624.381L233.406 620.422C251.619 629.935 273.181 633.472 289.986 629.262H290.002Z" fill="#0E141B"/>
<path d="M264.482 565.157L264.92 567.817C255.078 568.161 238.539 565.642 225.489 549.557L226.616 546.631C235.55 558.069 249.899 565.548 264.497 565.157H264.482Z" fill="#0E141B"/>
<path d="M260.726 566.596L258.082 566.236C257.049 584.997 262.134 612.63 272.039 631.954L275.153 632.095C265.373 614.038 259.787 584.277 260.726 566.596Z" fill="#0E141B"/>
<path d="M513.552 670.962C534.206 666.064 556.613 649.087 565.72 606.981C573.903 569.13 555.862 522.33 520.578 519.388C509.765 518.496 509.938 516.587 520.75 516.728C551.528 517.166 581.304 560.79 571.133 607.794C561.745 651.184 535.348 670.273 513.975 673.919C499.955 676.313 500.111 674.154 513.552 670.962Z" fill="#0E141B"/>
<path d="M489.127 676.627C458.458 674.921 435.426 657.788 428.432 635.35C415.46 593.744 441.857 530.201 494.306 518.998C500.909 517.59 501.269 519.702 494.728 521.392C440.073 535.537 422.642 602.835 432.39 634.114C438.962 655.175 460.868 671.823 489.33 674.202C497.999 674.921 497.654 677.112 489.127 676.627Z" fill="#0E141B"/>
<path d="M436.553 573.668C452.842 594.651 544.721 590.223 557.521 541.826L559.414 544.877C543.391 594.854 455.157 598.031 435.395 576.359L436.553 573.668Z" fill="#0E141B"/>
<path d="M567.879 609.828L566.252 616.744C540.606 648.977 470.538 664.968 433.689 643L432.031 638.713C467.956 663.31 546.787 644.424 567.879 609.828Z" fill="#0E141B"/>
<path d="M531.781 574.857L529.434 576.125C539.777 592.852 539.636 617.261 537.367 636.71L540.669 635.114C542.75 615.602 542.093 591.694 531.797 574.873L531.781 574.857Z" fill="#0E141B"/>
<path d="M463.513 586.907L460.868 586.594C458.318 601.318 456.049 631.329 459.022 649.526L462.261 650.168C459.038 632.377 460.915 601.646 463.497 586.891L463.513 586.907Z" fill="#0E141B"/>
<path d="M567.441 484.262C587.516 485.263 608.295 503.273 606.167 530.405L602.475 536.867C608.718 507.936 585.607 485.826 563.654 487.016L567.441 484.262Z" fill="#0E141B"/>
<path d="M575.264 487.609C565.657 495.417 545.848 506.808 533.69 511.909L539.839 512.504C552.811 506.355 570.038 495.668 578.331 488.517L575.264 487.609Z" fill="#0E141B"/>
<path d="M577.439 549.289L576.454 546.426C573.574 549.649 569.741 553.013 565.782 555.971L566.878 558.912C570.711 556.111 574.466 552.481 577.439 549.305V549.289Z" fill="#0E141B"/>
<path d="M454.296 375.669C450.713 371.523 437.398 374.23 428.886 381.803C420.906 388.891 419.059 395.776 422.392 399.218C426.46 403.427 438.149 401.659 446.019 396.401C455.314 390.205 458.38 380.379 454.296 375.669Z" fill="white"/>
<path d="M326.882 200.202C332.312 198.309 354.671 209.387 384.855 240.885L378.721 241.104C347.505 208.887 330.966 201.752 327.946 202.659C324.832 203.598 321.14 247.989 320.326 264.293L316.336 267.986C317.103 247.394 322.251 201.83 326.882 200.202Z" fill="#0E141B"/>
<path d="M331.999 214.692C337.616 222.077 349.446 238.82 354.218 246.205L350.603 247.535C345.362 239.195 336.083 225.238 330.309 215.803C328.51 212.877 329.934 211.969 332.015 214.692H331.999Z" fill="#0E141B"/>
<path d="M330.324 214.74L332.406 217.823C330.919 226.523 330.137 246.473 330.074 257.128L326.6 259.71C326.491 248.647 328.494 221.797 330.324 214.74Z" fill="#0E141B"/>
<path d="M420.217 262.807C479.222 290.44 501.253 359.068 463.106 424.066L455.861 430.606C500.925 363.199 475.89 292.13 418.699 265.357C389.596 251.729 346.895 248.052 314.85 269.613L325.724 260.491C356.674 246.315 394.024 250.54 420.217 262.791V262.807Z" fill="#0E141B"/>
<path d="M445.221 372.525L442.577 373.604C442.749 320.905 374.982 268.472 314.427 298.217L314.005 295.463C374.622 266.406 444.455 316.336 445.221 372.525Z" fill="#0E141B"/>
<path d="M309.53 327.79C325.771 320.921 343.687 321 360.524 328.964C385.888 340.965 404.883 367.565 407.355 393.086L404.742 393.805C402.63 369.944 383.619 343.516 359.381 332.031C347.349 326.335 328.963 321.547 308.575 331.108L309.53 327.79Z" fill="#0E141B"/>
<path d="M385.246 295.322L387.828 296.496C380.818 303.459 368.237 320.545 361.916 331.154L358.865 329.84C365.108 319.278 377.813 302.958 385.246 295.322Z" fill="#0E141B"/>
<path d="M435.614 252.262L438.806 253.905C433.267 255.782 426.304 260.038 420.937 264.482L417.823 262.87C422.799 258.552 429.856 254.593 435.614 252.262Z" fill="#0E141B"/>
<path d="M459.632 296.965L461.15 299.202C453.045 306.916 435.864 321.687 427.868 327.727L426.257 324.817C434.19 318.824 451.824 304.46 459.632 296.98V296.965Z" fill="#0E141B"/>
<path d="M366.892 253.248L370.24 253.311C364.42 260.274 353.686 277.908 348.538 287.969L344.517 288.266C349.086 278.909 360.258 261.729 366.876 253.248H366.892Z" fill="#0E141B"/>
<path d="M446.066 415.491L448.57 413.332C449.571 422.063 447.349 431.467 441.732 439.963L435.724 442.764C442.436 434.534 446.458 424.473 446.051 415.491H446.066Z" fill="#0E141B"/>
<path d="M482.618 395.088L483.885 391.082C528.213 433.267 534.112 473.37 535.395 521.282L530.513 519.56C529.293 478.283 522.346 433.329 482.618 395.088Z" fill="#0E141B"/>
<path d="M522.737 670.289L526.555 668.662C534.988 674.452 540.387 680.914 544.111 687.955L539.714 685.749C535.927 680.069 530.138 675.14 522.752 670.274L522.737 670.289Z" fill="#0E141B"/>
<path d="M447.459 660.76L450.979 663.154C445.769 677.205 484.589 711.66 510.313 709.36L515.117 711.362C487.797 719.499 439.885 679.536 447.459 660.76Z" fill="#0E141B"/>
<path d="M506.965 708.937C504.978 694.385 517.793 685.591 526.696 689.894C537.383 695.058 547.992 717.511 546.771 719.483C545.113 722.19 507.575 713.459 506.965 708.937ZM525.491 692.82C518.074 689.237 508.545 697.201 510 707.654C510.22 709.218 543.438 718.81 544.236 717.762C544.674 717.167 533.941 696.904 525.491 692.82Z" fill="#0E141B"/>
<path d="M543.735 686.843C551.653 692.523 554.313 716.463 550.495 718.544C549.556 719.06 547.616 718.481 545.785 717.355L544.095 713.302C545.91 714.397 548.273 716.306 549.274 716.072C551.152 715.649 548.867 693.806 542.186 689.018C537.116 685.388 529.934 688.329 530.107 693.79L527.634 691.85C529.199 683.979 538.478 683.088 543.735 686.859V686.843Z" fill="#0E141B"/>
<path d="M484.386 395.447L486.733 398.592C484.699 413.191 476.875 427.837 466.674 436.975L462.026 437.303C472.291 430.231 483.525 409.404 484.386 395.447Z" fill="#0E141B"/>
<path d="M518.403 443.844L519.889 447.333C514.601 461.181 506.308 477.532 494.212 485.215L494.338 481.866C504.195 473.824 513.709 456.643 518.418 443.859L518.403 443.844Z" fill="#0E141B"/>
<path d="M531.108 496.34L531.437 501.003C528.167 506.307 524.114 512.644 520.468 517.338L516.259 517.745C520.891 512.096 527.635 502.458 531.108 496.324V496.34Z" fill="#0E141B"/>
<path d="M483.948 406.996L484.777 404.523C495.339 413.145 510.72 432.407 517.573 447.647L516.165 451.699C510.266 436.976 494.744 416.181 483.948 407.011V406.996Z" fill="#0E141B"/>
<path d="M505.791 471.43C512.269 480.568 520.39 500.643 522.69 511.236L520.046 514.537C518.653 505.587 510.736 483.525 504.148 473.73L505.776 471.43H505.791Z" fill="#0E141B"/>
<path d="M419.591 449.837L422.909 448.867C425.553 450.76 428.604 452.888 430.779 455.157L428.244 457.364C425.694 454.766 422.439 451.668 419.576 449.837H419.591Z" fill="#0E141B"/>
<path d="M379.942 558.429C339.306 529.278 394.134 490.88 414.365 469.569C449.931 432.125 469.052 429.59 483.948 444.846C503.71 465.062 499.611 509.97 467.284 534.176C442.796 552.514 422.345 566.346 403.287 566.346C395.323 566.346 387.609 563.936 379.942 558.429ZM416.399 471.65C392.459 496.857 346.113 530.905 381.475 556.269C406.057 573.904 431.483 556.504 465.281 531.203C495.057 508.906 499.861 466.252 481.585 447.553C466.407 432.031 448.022 438.353 416.384 471.65H416.399Z" fill="#0E141B"/>
<path d="M213.41 332.921C239.008 319.261 258.082 335.722 277.954 367.204L277.735 373.651C257.894 341.339 239.337 322.563 214.661 335.722C193.397 347.066 194.649 385.073 214.771 420.388C231.748 450.196 252.058 471.867 270.756 481.882L269.379 486.012C247.364 474.449 228.822 452.7 211.344 422.031C187.999 381.067 192.036 344.344 213.394 332.953L213.41 332.921Z" fill="#0E141B"/>
<path d="M618.607 442.468C600.128 463.075 561.589 494.088 533.205 507.795L532.892 503.335C560.885 489.566 598.297 460.713 616.416 440.497C621.423 434.911 630.906 436.209 630.186 449.76C628.433 482.54 610.924 545.614 570.727 584.966L570.21 578.348C608.687 539.48 625.022 481.476 626.728 449.572C627.213 440.481 623.238 437.305 618.607 442.468Z" fill="#0E141B"/>
<path d="M533.408 510.721C546.129 512.051 559.085 518.92 569.193 530.905C579.645 543.282 582.962 557.208 579.489 571.478L575.342 576.032C580.819 560.791 577.815 546.005 566.721 532.846C559.273 524.036 547.318 513.772 530.717 513.365L533.408 510.721Z" fill="#0E141B"/>
<path d="M226.13 365.719C243.107 354.75 257.346 351.887 267.517 356.831L272.43 363.779C260.726 351.261 241.746 359.444 227.648 368.551C218.776 374.278 205.977 387.906 206.791 407.34L204.334 401.457C205.836 385.872 215.146 372.807 226.13 365.719Z" fill="#0E141B"/>
<path d="M281.834 420.232C286.888 436.912 292.24 454.171 300.799 460.633C309.78 467.424 338.931 456.252 349.086 457.003C383.947 459.491 443.484 458.036 472.228 416.273C481.272 403.13 487.328 388.656 490.66 373.839C514.335 360.179 542.343 326.021 541.639 318.839C541.044 312.752 504.555 295.384 479.144 290.205C469.74 273.775 455.893 259.568 437.82 250.727C374.262 219.636 293.945 252.339 280.097 334.517C275.888 359.537 274.292 395.291 281.85 420.232H281.834ZM283.462 334.971C296.621 256.814 373.495 223.767 436.287 254.482C453.295 262.807 466.188 275.747 474.998 291.441C473.136 293.428 471.117 296.902 470.147 299.218C468.41 303.348 469.177 303.88 471.9 300.328C474.497 296.949 477.939 293.897 479.473 294.226C511.44 301.064 538.666 316.054 538.963 319.121C539.511 324.707 512.645 356.595 489.878 369.974C487.375 371.445 486.983 372.102 486.608 373.854C483.557 388.359 477.892 402.222 469.599 414.286C442.42 453.78 380.787 456.111 349.32 453.842C339.024 453.107 311.266 463.324 303.412 457.378C295.494 451.386 289.423 434.894 284.713 419.356C277.281 394.853 279.284 359.694 283.446 334.971H283.462Z" fill="#0E141B"/>
<path d="M480.427 312.737C488.861 312.299 530.748 316.696 531.797 320.921C532.908 325.364 501.144 361.071 488.83 365.546C487.171 366.156 486.796 365.499 487.093 363.95C490.207 347.521 486.577 326.585 483.76 314.114L486.295 314.302C489.675 326.929 492.679 344.876 490.269 361.947C505.322 351.605 527.932 324.144 527.916 322.204C527.916 320.764 503.522 316.211 480.631 314.552C477.079 314.302 476.875 312.909 480.427 312.722V312.737Z" fill="#0E141B"/>
<path d="M409.467 565.078C407.355 567.347 390.268 576.578 388.297 574.748C386.889 573.449 392.96 565.766 394.681 563.701C395.854 562.293 410.312 564.155 409.467 565.062V565.078Z" fill="#EFEFEF"/>
<path d="M385.903 559.836C383.384 563.529 368.879 572.229 367.909 571.446C366.939 570.664 371.508 552.873 374.23 550.714C381.162 545.237 389.486 554.563 385.903 559.836Z" fill="#EFEFEF"/>
<path d="M370.381 546.865C371.758 546.427 370.115 533.284 367.252 533.957C365.312 534.41 356.064 550.277 357.472 551.56C358.192 552.217 367.205 547.883 370.381 546.865Z" fill="#EFEFEF"/>
<path d="M367.752 570.806C373.573 566.972 383.885 557.647 384.479 551.998C387.749 555.018 386.983 558.257 385.903 559.837C383.384 563.53 368.378 572.48 367.768 570.806H367.752Z" fill="#C9CACA"/>
<path d="M370.334 539.59C370.898 542.797 371.023 546.537 370.381 546.866C365.844 549.119 357.41 552.233 357.347 550.871C360.915 549.119 367.455 544.253 370.334 539.605V539.59Z" fill="#C9CACA"/>
<path d="M400.94 563.357C405.196 563.702 409.968 564.547 409.467 565.094C407.371 567.363 390.347 576.548 388.312 574.78C393.679 571.557 398.937 567.097 400.924 563.373L400.94 563.357Z" fill="#C9CACA"/>
<path d="M387.499 575.734C385.496 573.857 390.895 566.299 393.774 562.857C395.276 561.057 410.766 562.685 411.377 564.547C411.971 566.362 390.237 578.269 387.499 575.734ZM395.683 564.703C394.634 565.36 388.86 572.902 389.627 573.638C390.597 574.577 407.199 566.19 406.964 565.345C406.808 564.782 396.715 564.046 395.683 564.703Z" fill="#0E141B"/>
<path d="M373.307 549.665C370.913 551.558 365.436 571.101 367.173 572.478C368.879 573.84 384.448 564.624 387.233 560.524C391.943 553.592 380.896 543.672 373.307 549.665ZM384.792 559.038C382.836 561.917 369.771 570.147 369.27 569.771C368.769 569.396 373.416 553.295 375.278 551.824C380.254 547.881 387.906 554.453 384.808 559.022L384.792 559.038Z" fill="#0E141B"/>
<path d="M367.002 532.454C363.794 533.377 354.327 550.401 356.675 552.545C357.973 553.734 370.006 548.727 370.992 548.258C374.168 546.74 371.054 531.296 367.002 532.47V532.454ZM369.458 545.504C368.957 545.895 359.209 550.292 358.99 549.995C358.568 549.431 366.344 535.318 367.565 535.537C368.738 535.756 370.366 544.768 369.458 545.504Z" fill="#0E141B"/>
</g>
<defs>
<clipPath id="clip0_42_60711">
<rect width="441.233" height="520" fill="white" transform="translate(189 200)"/>
</clipPath>
</defs>
</svg>
