<svg width="800" height="800" viewBox="0 0 800 800" fill="none" xmlns="http://www.w3.org/2000/svg">
<g clip-path="url(#clip0_42_60824)">
<path d="M410.175 329.783C411.581 347.043 414.287 367.562 417.1 382.521C420.978 403.232 433.336 418.212 456.52 426.202C467.621 430.038 483.368 443.696 492.871 462.149C495.918 468.051 500.649 471.247 508.319 473.058C513.369 474.252 525.089 473.719 531.226 472.931C537.362 472.142 540.686 468.946 544.266 461.488C549.508 450.6 559.31 435.514 566.235 428.461C572.435 422.132 573.543 415.91 572.03 410.754C562.761 379.047 455.625 340.757 410.153 329.783H410.175Z" fill="#F2D5B5"/>
<path d="M441.881 318.873C430.588 295.711 412.838 271.59 399.798 260.126C395.216 234.173 390.997 197.246 395.728 189.959C412.838 193.731 459.098 231.105 478.339 257.015C480.598 233.172 484.604 207.709 490.549 193.517C505.549 202.105 552.896 251.71 571.072 310.882C582.514 348.171 457.074 350.025 441.902 318.873H441.881Z" fill="#A35716"/>
<path d="M596.897 196.48C580.149 209.67 560.524 246.043 555.922 276.385C560.929 285.079 566.682 298.524 570.006 307.346C569.687 311.054 569.175 314.846 568.706 318.064C568.344 320.578 568.003 320.365 567.364 318.149C566.682 315.784 565.851 313.568 564.722 311.395C563.72 309.456 563.358 309.605 562.825 311.608C561.014 318.49 559.501 326.353 558.244 334.343C555.772 310.457 538.577 263.388 521.168 247.407C510.408 266.179 501.778 305.599 504.718 323.519C505.209 326.545 505.784 329.293 506.402 331.872C494.768 320.131 480.555 310.947 467.365 304.512C463.977 302.871 463.658 303.148 464.936 306.664C466.215 310.223 467.941 314.122 469.901 317.723C471.307 320.344 470.775 320.685 467.898 319.321C456.051 313.76 445.61 309.903 435.382 306.813C422.619 283.928 407.021 263.771 390.465 252.925C363.595 235.304 323.941 220.324 298.584 215.913C313.777 244.338 334.574 277.579 348.808 288.829C366.195 302.573 389.357 316.999 409.812 324.733C410.089 330.55 412.838 356.461 413.627 361.895C413.371 353.307 432.314 349.387 443.117 354.309C443.82 352.178 445.738 348.066 446.633 346.702C474.184 357.718 483.048 374.296 488.098 412.309C490.783 432.531 497.879 454.457 504.314 459.23C512.602 465.388 533.122 465.686 538.129 460.189C542.562 455.33 546.994 445.209 548.187 435.407C548.997 428.781 552.363 421.344 556.433 415.74C560.29 394.368 575.546 358.848 588.502 358.123L588.779 360.211C595.043 356.674 593.488 348.939 584.453 331.509C593.658 314.612 603.545 289.255 606.635 270.867C609.661 252.925 605.122 212.973 596.876 196.459L596.897 196.48Z" fill="#DDC300"/>
<path d="M446.931 346.979C440.304 355.353 439.558 380.965 448.87 395.007C457.031 407.302 471.414 413.396 487.587 408.388C482.686 374.104 473.907 357.76 446.931 346.979Z" fill="#0E141B"/>
<path d="M476.826 377.428C476.826 385.056 473.63 388.87 469.112 388.87C464.595 388.87 460.994 384.076 460.994 376.49C460.994 369.544 464.659 365.176 469.262 365.304C473.822 365.431 476.847 370.865 476.847 377.428H476.826Z" fill="white"/>
<path d="M588.544 358.143C576.015 359.123 562.996 388.251 556.476 415.76C569.58 415.909 577.464 408.898 583.984 391.191C589.183 377.022 590.014 367.582 588.544 358.143Z" fill="#0E141B"/>
<path d="M563.763 391.661C564.147 393.067 565.02 394.111 566.448 394.687C570.113 396.199 574.566 393.856 577.187 386.696C580.042 378.897 579.126 373.719 576.569 372.675C575.461 372.228 573.629 372.462 572.244 373.272C569.26 378.386 565.532 386.142 563.742 391.661H563.763Z" fill="white"/>
<path d="M393.618 203.405C366.131 182.16 310.559 169.482 283.093 164.965C285.309 176.279 299.522 200.549 315.545 219.812C336.513 226.162 374.952 239.564 399.776 260.127C396.09 244.401 392.872 214.613 393.597 203.405H393.618Z" fill="#A35716"/>
<path d="M409.514 324.327C388.525 317.466 361.699 299.546 346.527 286.505C336.15 277.577 319.359 251.752 306.937 230.572C285.394 221.793 256.266 223.135 229.866 230.188C213.885 234.45 192.854 237.369 179.003 238.711C186.76 247.298 200.631 259.38 216.165 270.524C198.948 273.358 176.446 284.651 165.686 292.791C153.711 301.847 135.599 311.159 124.668 314.888C143.781 325.158 172.718 335.62 193.855 338.433C178.918 343.398 164.557 351.814 153.434 360.956C141.459 370.8 127.331 382.519 112.16 392.385C131.977 398.5 156.268 404.829 179.707 405.191C149.3 419.595 120.428 442.182 91.9175 473.078C105.001 477.638 118.339 481.239 131.636 483.882C120.236 494.962 111.137 510.24 107.11 522.897C115.015 527.925 127.843 530.568 139.072 530.866C132.509 540.902 127.14 550.533 123.624 558.055C173.08 564.788 225.348 556.308 262.403 533.039C272.546 518.337 288.143 501.93 297.902 493.598C300.033 487.206 302.164 481.175 304.295 476.722C298.073 458.248 304.295 436.237 314.586 425.05C314.288 393.131 340.156 376.681 362.359 377.107C380.833 377.469 398.881 386.142 407.745 404.488C413.861 404.403 420.125 404.04 425.474 403.721C417.675 396.838 413.136 364.407 409.556 324.327H409.514Z" fill="#A35716"/>
<path d="M588.821 371.973C628.262 350.516 654.194 314.995 656.24 296.33C636.807 296.074 615.03 301.188 595.554 307.474C592.742 313.823 588.928 323.242 584.304 331.04C588.033 338.051 590.483 343.953 592.124 349.237C593.637 354.138 592.806 358.187 589.098 360.254C589.46 364.068 589.46 368.074 588.842 371.973H588.821Z" fill="#A35716"/>
<path d="M478.318 256.995C479.468 244.785 481.088 232.171 483.197 220.835C472.266 204.641 453.046 191.025 434.785 182.48C418.442 174.852 402.461 167.565 391.637 161.705C391.637 169.994 394.343 179.348 402.035 192.197C422.278 201.445 461.122 233.79 478.339 256.973L478.318 256.995Z" fill="#A35716"/>
<path d="M424.983 550.193C394.854 541.201 363.851 526.797 350.469 517.699C345.952 519.638 340.007 518.913 332.762 514.055C316.866 503.401 307.917 490.403 304.082 477.256C301.972 482.37 300.097 487.058 297.86 493.62C228.907 558.354 223.686 606.681 245.335 632.741C236.13 639.687 226.329 651.747 222.046 662.316C219.68 668.155 219.979 673.588 223.793 679.171C230.1 688.355 242.885 699.541 251.664 704.208C259.313 708.278 269.03 711.751 276.743 710.664L355.178 680.194C356.372 676.316 355.668 673.332 353.047 669.412C348.956 663.275 340.71 655.775 330.994 650.171C381.877 641.392 422.576 607.512 424.941 550.215L424.983 550.193Z" fill="#DDC300"/>
<path d="M356.287 681.45C345.143 671.882 327.67 671.925 323.217 683.09C301.717 669.176 281.559 682.686 276.914 704.185C276.062 708.149 275.849 712.027 280.814 713.241C305.318 719.271 324.495 727.454 340.838 737.916C345.057 731.737 345.974 721.743 343.353 711.558C351.492 715.692 362.082 724.598 368.006 732.951C376.529 721.594 371.373 694.426 356.287 681.45Z" fill="#EFEFEF"/>
<path d="M547.782 631.035C556.476 626.645 563.87 620.146 568.408 611.325C585.199 578.553 565.851 516.163 518.484 492.682C526.027 528.969 515.991 560.463 497.346 583.901C485.115 599.307 469.155 611.218 452.066 618.761C463.168 624.408 478.233 630.012 490.868 633.634C482.814 639.601 478.638 650.233 478.808 658.373C478.978 667.258 482.089 670.732 492.296 672.756C513.774 677.017 528.626 680.278 544.501 684.475C549.785 685.882 555.751 686.734 560.716 685.264L585.306 661.612C585.114 651.661 571.903 642.882 547.761 631.035H547.782Z" fill="#DDC300"/>
<path d="M630.202 690.933C629.775 669.327 607.849 651.876 579.808 650.533C582.834 653.239 584.198 657.224 584.624 661.145C570.113 657.288 560.056 665.427 558.948 677.744C558.436 683.326 559.885 686.288 566.128 686.799C580.916 687.993 598.751 692.915 613.262 702.376C614.839 696.367 613.539 689.506 610.343 683.071C617.843 684.37 623.276 686.245 630.18 690.912L630.202 690.933Z" fill="#EFEFEF"/>
<path d="M254.605 543.289C223.985 562.594 176.255 579.108 131.913 585.926C123.39 587.248 120.598 591.637 129.697 595.941C159.187 609.877 207.002 622.491 240.03 624.856C229.717 605.828 231.507 578.149 254.605 543.289Z" fill="#DDC300"/>
<path d="M563.379 431.314C579.573 431.4 595.469 443.012 607.551 463.063C615.009 475.422 621.785 481.665 628.646 481.623L700.56 445.91C703.821 441.073 702.67 431.08 695.212 422.621C682.832 408.579 660.501 391.34 644.861 383.947C627.367 375.679 609.426 372.888 588.778 373.079C587.393 383.968 580.894 403.763 572.052 410.795C573.543 417.976 571.647 424.688 563.358 431.336L563.379 431.314Z" fill="#DDC300"/>
<path d="M702.904 452.049C696.746 433.468 684.238 428.035 676.014 433.532C667.49 419.341 655.068 414.547 642.709 418.489C624.853 424.199 618.908 450.749 626.195 473.08C638.17 509.836 644.563 542.864 642.432 580.962C650.252 574.719 657.476 565.322 663.676 554.157C663.506 562.105 662.803 569.669 660.011 578.299C695.702 554.327 718.076 497.861 702.883 452.049H702.904Z" fill="#EFEFEF"/>
<path d="M432.783 451.983L424.835 550.213C424.323 582.495 407.128 611.325 388.334 624.898C424.11 635.424 469.986 618.335 497.346 583.901C519.165 556.457 529.201 517.974 513.05 473.675C503.483 473.121 496.302 468.774 492.893 462.168C483.368 443.716 467.749 429.716 456.541 426.222C444.907 422.578 430.183 412.286 426.092 403.934C419.87 404.104 413.712 404.53 407.746 404.509C410.111 408.728 411.709 414.95 412.242 419.915C422.896 427.372 433.997 443.78 432.804 452.005L432.783 451.983Z" fill="#F2D5B5"/>
<path d="M433.336 453.561C452.322 474.209 489.76 485.012 514.563 479.195L512.73 473.697C505.571 473.868 496.089 468.711 493.084 462.702C486.756 450.045 470.114 430.57 456.136 425.754C442.158 420.917 429.863 410.349 425.367 403.85C418.975 404.276 412.689 404.361 407.958 404.063C410.452 408.601 412.348 415.974 412.753 420.491C423.492 427.949 433.145 444.058 433.336 453.54V453.561Z" fill="#D1B99E"/>
<path d="M425.453 403.721C420.232 404.189 413.115 404.275 407.98 404.104C410.643 410.049 412.327 415.824 412.774 420.533C418.187 424.709 423.791 429.951 427.328 436.237C430.439 431.187 437.747 423.026 445.056 421.193C436.831 416.697 429.608 409.9 425.453 403.721Z" fill="#B5A000"/>
<path d="M515.223 549.531C496.216 578.02 449.616 589.74 417.803 584.945C412.263 599.797 400.991 614.798 389.74 624.429C438.855 639.11 499.86 600.948 515.223 549.531Z" fill="#D1B99E"/>
<path d="M597.408 197.055C581.619 224.329 567.726 268.778 568.238 302.231C564.125 292.451 560.865 285.59 555.879 276.15C557.434 255.737 583.579 201.679 597.408 197.055Z" fill="#B5A000"/>
<path d="M526.026 367.348C517.098 356.481 505.102 337.751 504.207 319.532C503.333 301.911 511.899 260.147 521.914 248.875C516.31 275.446 513.796 297.415 515.117 320.065C516.182 337.985 518.718 351.09 526.026 367.348Z" fill="#B5A000"/>
<path d="M300.012 215.742C313.458 233.215 336.3 261.405 354.518 277.855C376.188 297.395 403.527 318.34 426.816 328.291C405.807 325.926 360.25 300.442 346.783 287.209C333.317 273.977 306.149 231.787 300.012 215.742Z" fill="#B5A000"/>
<path d="M579.467 401.377C594.745 403.827 620.208 416.122 630.691 427.181C620.826 438.346 621.508 463.405 628.603 481.453C623.106 481.793 615.904 477.106 608.467 464.875C596.194 444.675 578.252 429.823 563.188 431.485C570.965 425.199 573.927 417.997 571.988 410.561C575.418 407.13 576.952 405.447 579.446 401.377H579.467Z" fill="#B5A000"/>
<path d="M645.224 418.424C663.08 459.25 663.932 526.626 642.88 580.855C644.499 552.387 639.449 509.878 627.048 475.188C616.969 446.955 630.074 417.742 645.224 418.424Z" fill="#C9CACA"/>
<path d="M660.992 577.233C681.597 546.869 697.769 501.654 685.091 461.445C687.201 498.479 676.653 531.08 663.25 554.924C663.25 562.424 663.293 567.772 660.992 577.212V577.233Z" fill="#C9CACA"/>
<path d="M519.165 537.535C525.281 562.679 554.728 586.757 574.14 584.242C574.14 626.922 536.915 642.967 505.166 637.044C489.718 634.167 465.64 625.9 452.706 618.357C478.936 607.575 512.709 576.678 519.165 537.535Z" fill="#B5A000"/>
<path d="M528.392 637.023C542.071 640.646 569.218 656.328 567.79 662.763C561.952 665.384 556.135 678.254 560.14 684.689C556.731 686.501 552.065 687.033 544.458 684.689C529.372 680.066 510.471 676.656 493.382 673.034C481.216 670.456 478.701 665.832 478.701 658.758C478.701 650.447 483.474 639.538 489.952 633.23C505.23 638.259 515.692 639.452 528.349 637.045L528.392 637.023Z" fill="#B5A000"/>
<path d="M318.081 652.365C326.668 657.329 336.534 666.684 339.304 674.269C330.951 673.822 325.539 678.339 323.493 682.622C293.406 664.191 274.123 696.941 276.829 710.067C259.015 713.306 234.106 695.279 222.302 677.125C220.277 674.014 219.148 667.387 222.152 661.399C226.35 652.983 234.767 640.07 244.888 632.442C228.033 610.771 227.224 572.119 272.482 519.893C248.425 601.46 365.001 643.991 422.981 568.965C412.71 617.952 367.431 648.38 318.102 652.365H318.081Z" fill="#B5A000"/>
<path d="M123.816 589.932C148.576 595.11 203.615 592.745 235.747 583.881C233.062 594.982 232.828 612.455 239.774 624.537C206.939 622.704 156.502 609.387 129.036 595.835C125.265 593.981 123.88 591.552 123.816 589.932Z" fill="#B5A000"/>
<path d="M491.699 194.328C489.121 215.87 488.588 237.477 488.759 259.68C488.801 264.943 485.925 265.646 483.155 264.197C481.919 262.109 480.555 259.808 478.36 257.165C479.873 237.711 484.327 203.661 491.699 194.307V194.328Z" fill="#864509"/>
<path d="M418.527 190.236C404.656 182.352 396.708 172.976 392.446 162.77C391.083 170.078 396.985 184.632 401.651 191.812C418.293 198.993 460.248 233.874 478.467 256.397C478.467 252.562 479.191 244.656 480.15 240.096C466.002 218.511 446.334 206.046 418.527 190.214V190.236Z" fill="#864509"/>
<path d="M396.324 190.215C400.373 222.497 411.134 263.6 426.07 290.469C417.654 277.855 404.635 263.898 399.158 259.295C395.259 237.156 390.656 195.009 396.324 190.215Z" fill="#864509"/>
<path d="M284.756 165.945C285.459 177.281 302.292 204.023 314.502 219.599C333.594 225.182 380.493 241.951 399.159 259.275C397.497 249.579 396.325 241.163 395.451 233.62C363.212 225.48 308.024 196.735 284.734 165.945H284.756Z" fill="#864509"/>
<path d="M409.919 325.073C385.777 314.59 355.2 295.327 346.783 287.209C338.367 279.09 316.462 250.751 305.829 230.551C314.352 256.845 306.596 271.185 278.704 271.654C243.567 272.229 207.258 255.396 180.517 238.563C190.02 254.948 239.859 288.892 265.962 297.82C290.828 293.601 315.61 291.961 340.966 299.674C384.435 312.906 392.851 370.992 324.58 369.564C298.947 369.032 275.678 359.337 256.672 344.229C236.237 327.992 219.745 318.297 200.29 313.78C211.477 322.836 229.845 338.54 241.841 351.325C257.247 367.753 288.591 382.882 325.56 392.705C354.284 364.536 396.601 378.088 407.234 404.062C413.797 404.595 421.255 404.02 425.431 403.679C417.888 395.347 412.22 360.722 409.898 325.031L409.919 325.073Z" fill="#864509"/>
<path d="M239.263 348.171C235.619 343.654 226.307 335.919 222.919 333.426L216.357 334.001C237.579 355.352 221.662 378.727 190.446 385.247C163.044 390.957 134.512 392.364 113.183 391.32C121.174 396.476 153.839 404.105 178.705 405.34C200.844 393.131 236.301 386.014 261.828 385.886C262.084 386.078 262.361 386.248 262.616 386.44C291.425 395.539 291.425 426.925 266.196 444.696C233.893 467.453 164.663 481.985 92.3438 471.992C151.218 496.347 227.245 494.472 266.622 470.096C273.76 489.251 263.511 510.602 238.879 523.962C210.071 539.581 158.612 553.431 123.88 556.798C158.42 564.959 216.335 560.356 261.956 533.721C270.649 520.766 288.229 501.589 297.647 493.769C299.777 488.08 302.271 481.879 304.21 476.893C299.245 461.274 302.249 439.241 314.864 425.05C314.075 418.061 317.783 399.651 325.518 392.726C287.93 382.605 251.493 363.364 239.22 348.15L239.263 348.171Z" fill="#864509"/>
<path d="M107.132 522.556C122.388 518.38 147.383 503.102 163.556 488.527L172.611 488.868C163.108 498.713 145.934 520.191 139.243 530.93C126.011 530.483 111.756 526.754 107.132 522.556Z" fill="#864509"/>
<path d="M530.224 467.817C525.259 468.712 511.814 468.349 507.275 466.474C502.737 464.599 498.965 460.529 495.428 453.626C488.056 439.243 472.65 425.542 455.476 417.146C441.157 410.157 432.761 399.482 429.458 383.863C427.86 376.32 426.347 364.984 425.133 352.924C418.655 354.266 413.52 357.462 413.648 361.958L413.52 362.001C414.458 369.416 415.395 376.277 416.141 381.008C418.975 399.461 431.376 416.486 456.157 425.776C472.543 431.913 485.115 448.192 493.106 462.724C495.513 467.092 499.242 469.969 503.674 471.929C508.362 473.996 518.419 474.23 528.541 473.357C534.038 472.867 537.597 471.588 539.365 469.628C541.134 467.668 543.094 463.768 544.863 457.376C540.345 464.365 537.256 466.581 530.224 467.838V467.817Z" fill="#D1B99E"/>
<path d="M424.366 344.528C423.897 339.095 423.513 333.64 423.236 328.462C418.442 327.396 414.884 326.693 409.386 324.562C409.621 328.057 410.196 333.853 410.942 340.522C411.687 347.256 412.604 354.884 413.52 362.001L413.648 361.958C413.499 357.462 418.655 354.266 425.133 352.923C424.856 350.153 424.6 347.341 424.366 344.528Z" fill="#B5A000"/>
<path d="M169.713 315.015C154.563 317.53 138.433 317.508 126.181 314.248C137.325 323.027 169.159 334.555 193.536 338.497C203.892 334.576 214.375 333.383 223.665 333.639C215.675 326.564 203.018 316.954 198.224 313.226C220.469 308.964 248.958 303.083 264.087 298.097C259.101 295.774 249.661 291.15 244.505 288.316C229.142 298.992 192.3 311.286 169.713 315.015Z" fill="#864509"/>
<path d="M655.047 296.308C640.962 320.323 613.539 340.118 592.316 349.259C593.466 353.201 592.827 358.144 588.885 360.062C589.141 364.771 589.141 367.946 588.757 371.483C616.799 359.444 656.176 316.828 655.025 296.287L655.047 296.308Z" fill="#864509"/>
<path d="M564.253 665.959C580.682 665.959 605.782 681.663 612.942 701.671C599.22 693.382 579.19 687.8 566.341 686.713C557.562 685.967 555.091 676.336 564.232 665.959H564.253Z" fill="#C9CACA"/>
<path d="M593.296 664.105C606.4 666.449 621.359 676.102 629.626 689.569C623.809 686.479 616.777 684.135 610.598 683.134C607.018 676.464 601.457 669.177 593.296 664.105Z" fill="#C9CACA"/>
<path d="M285.906 686.223C312.115 685.967 335.469 712.559 340.412 736.893C323.366 727.368 298.691 717.567 282.454 713.667C277.617 712.495 276.019 709.896 276.403 706.252C277.021 700.307 280.238 691.166 285.927 686.223H285.906Z" fill="#C9CACA"/>
<path d="M328.181 685.968C347.593 682.75 367.494 712.411 368.112 732.079C362.913 726.134 351.556 715.267 343.523 711.431C340.923 703.27 335.128 692.531 328.202 685.968H328.181Z" fill="#C9CACA"/>
<path d="M486.692 412.543C481.301 375.509 471.734 358.804 444.673 347.532C438.28 344.868 438.983 342.865 445.567 345.039C476.805 355.267 485.371 374.359 489.632 412.202C490.4 419.02 487.672 419.297 486.692 412.564V412.543Z" fill="#0E141B"/>
<path d="M487.821 409.985C473.438 414.673 457.244 411.37 447.165 396.178C437.981 382.327 437.79 356.864 445.397 346.359L448.422 347.489C441.604 358.271 442.2 381.56 450.447 393.962C458.16 405.596 471.968 411.413 487.352 406.853L487.821 409.985Z" fill="#0E141B"/>
<path d="M555.197 414.461C560.801 387.933 574.183 359.295 587.138 356.567C589.482 356.077 590.015 356.439 590.334 358.783C591.762 369.373 590.526 379.026 585.817 391.811C579.467 409.049 570.582 417.231 557.861 417.338C555.24 417.359 554.728 416.784 555.218 414.44L555.197 414.461ZM587.181 360.083C577.592 362.96 565.361 388.614 558.479 414.227C569.282 413.545 576.036 407.131 582.152 390.532C586.733 378.11 588.054 369.096 587.181 360.104V360.083Z" fill="#0E141B"/>
<path d="M573.65 409.388C575.248 414.481 575.483 422.216 567.684 430.164C561.206 436.769 551.809 450.662 545.95 462.978C541.795 471.736 538.193 474.037 531.375 474.932C523.704 475.933 512.901 476.168 507.766 474.975C498.816 472.865 494.171 469.243 491.017 463.127C481.919 445.463 465.704 431.506 455.902 428.118C432.229 419.957 418.655 404.914 414.522 382.881C410.601 361.935 409.003 344.633 407.277 323.688L412.178 325.328C413.861 345.699 415.715 361.722 419.55 382.221C423.556 403.55 437.023 417.443 457.095 424.368C468.367 428.246 484.22 441.116 494.512 461.06C497.154 466.174 501.096 469.434 508.895 471.288C513.753 472.439 524.897 472.013 530.991 471.224C536.148 470.542 538.79 468.007 542.583 460.506C549.039 447.722 558.287 433.744 564.935 426.968C570.923 420.852 571.242 416.292 570.262 411.881L573.65 409.41V409.388Z" fill="#0E141B"/>
<path d="M588.565 358.057C590.462 357.269 591.655 354.243 590.036 349.193C587.67 341.778 586.072 337.602 581.811 329.654C578.551 323.538 580.554 322.26 584.133 328.184C588.459 335.279 591.208 340.883 593.765 348.256C596.066 354.947 593.956 360.934 589.034 362.063L588.565 358.036V358.057Z" fill="#0E141B"/>
<path d="M554.238 273.039C559.097 243.826 577.677 210.436 594.148 195.904C596.94 193.454 597.877 193.646 599.305 196.885C607.658 215.849 611.983 252.136 608.808 271.036C605.42 291.215 595.427 315.528 585.433 333.213L583.345 329.548C592.635 311.394 601.265 289.17 604.419 270.419C606.89 255.78 603.694 216.445 596.194 199.463C580.49 212.78 561.44 250.517 557.626 279.006L554.26 273.039H554.238Z" fill="#0E141B"/>
<path d="M476.464 254.948C478.637 233.299 481.961 210.841 488.332 193.986C489.227 191.599 490.144 191.045 492.701 192.643C516.502 207.687 556.135 259.806 571.796 308.794C574.012 315.74 571.604 316.635 569.133 309.923C552.512 264.686 514.328 212.311 491.465 196.223C486.5 209.498 482.515 231.467 479.98 259.21L476.485 254.927L476.464 254.948Z" fill="#0E141B"/>
<path d="M398.903 191.024C393.171 181.883 390.337 172.699 389.847 163.984C389.612 159.616 390.699 159.19 394.279 161.044C404.059 166.137 422.938 174.681 435.531 180.562C457.436 190.769 473.779 203.681 483.943 218.086L482.622 223.881C473.14 209.285 454.772 194.285 433.72 184.462C421.127 178.58 402.696 169.844 393.597 164.858C394.364 173.381 397.816 181.968 405.018 193.624L398.924 191.024H398.903Z" fill="#0E141B"/>
<path d="M397.453 258.486C393.064 236.709 389.292 201.998 393.298 190.577C394.215 187.956 395.024 187.722 397.816 188.596C419.06 195.222 464.467 233.151 481.45 258.933C485.392 264.921 483.474 266.54 479.212 260.766C460.93 235.921 414.159 197.14 396.708 192.218C392.723 201.444 397.07 237.327 402.269 261.831L397.432 258.486H397.453Z" fill="#0E141B"/>
<path d="M425.261 330.678C399.989 326.331 367.047 306.153 347.188 290.47C333.167 279.39 313.074 247.343 297.732 218.3C295.431 213.932 295.622 213.314 301.354 214.443C326.668 219.472 364.405 233.173 391.487 250.944C410.366 263.324 427.178 285.463 442.115 316.53C445.034 322.603 442.861 323.774 439.729 317.787C424.557 289 406.36 265.923 389.165 254.651C361.912 236.774 325.091 223.158 302.036 218.385C316.59 244.551 336.427 276.215 350.235 287.125C369.881 302.658 400.543 322.07 425.815 327.951C433.038 329.634 432.569 331.935 425.282 330.678H425.261Z" fill="#0E141B"/>
<path d="M312.286 219.344C298.712 203.022 285.757 181.117 281.794 167.374C280.707 163.645 281.091 162.643 285.928 163.474C322.343 169.59 368.858 182.31 393.405 200.593L393.235 205.792C368.006 187.275 321.32 173.958 285.565 167.267C289.401 179.029 303.592 202.489 318.699 220.367L312.307 219.344H312.286Z" fill="#0E141B"/>
<path d="M545.289 365.984C552.64 354.031 556.518 343.76 556.177 337.282C555.133 317.615 538.768 269.288 521.679 250.58C511.665 270.375 504.441 308.218 506.934 323.368C509.768 340.606 514.584 348.981 524.577 364.45C528.541 370.608 526.942 371.908 522.383 366.176C511.473 352.432 505.443 342.141 502.438 323.858C499.349 305.086 508.213 267.69 518.718 247.533C520.273 244.529 521.232 244.443 523.917 247.213C542.583 266.455 559.544 314.802 560.78 337.261C561.163 344.357 556.774 355.863 547.59 367.582C543.882 372.334 542.007 371.333 545.289 365.984Z" fill="#0E141B"/>
<path d="M262.574 298.907C235.981 290.064 196.114 259.934 179.622 242.291C175.871 238.285 176.724 237.028 182.605 236.368C196.562 234.855 215.121 231.935 229.44 228.121C259.527 220.088 286.183 220.472 305.318 227.653L307.875 233.171C288.25 224.733 260.102 224.222 230.292 232.17C215.377 236.154 195.219 238.924 182.818 240.054C196.455 254.415 237.643 287.763 270.351 296.84L262.574 298.864V298.907Z" fill="#0E141B"/>
<path d="M189.402 340.138C168.776 336.686 144.698 327.566 126.607 318.148C121.046 315.25 121.28 314.057 127.268 311.798C138.966 307.366 153.221 299.397 164.216 291.087C174.572 283.266 196.263 271.973 213.651 268.734L218.637 272.229C198.714 275.255 176.745 287.123 166.879 294.347C155.373 302.785 139.754 311.244 129.058 315.122C148.363 324.519 176.383 334.598 197.883 336.792L189.402 340.159V340.138Z" fill="#0E141B"/>
<path d="M426.731 405.852C352.685 409.858 273.228 387.059 238.922 351.048C227.692 339.286 213.885 327.673 199.949 316.913C194.601 312.779 195.027 311.564 201.398 310.584C219.148 307.814 237.665 302.892 260.272 297.053C306.085 285.206 352.387 294.092 390.379 322.41C397.262 327.524 396.133 329.271 388.973 324.562C349.468 298.63 306.191 290.192 260.933 301.294C237.324 307.09 218.999 311.969 202.4 314.142C215.163 323.774 230.526 335.919 241.99 347.958C273.803 381.327 353.73 404.766 424.536 402.209L426.731 405.874V405.852Z" fill="#0E141B"/>
<path d="M175.786 407.259C156.993 406.62 133.042 401.016 114.164 394.943C109.391 393.409 109.945 391.683 113.119 389.531C127.992 379.452 140.799 368.521 152.092 359.252C170.587 344.038 198.011 330.827 221.428 331.637L225.903 336.069C199.928 333.874 171.653 348.619 154.713 362.555C143.419 371.845 130.379 382.414 116.358 391.79C134.683 397.223 159.486 403.424 183.308 403.211L175.786 407.28V407.259Z" fill="#0E141B"/>
<path d="M92.3654 469.648C123.155 436.429 154.819 412.777 187.399 399.097C219.553 385.609 254.115 380.879 290.466 386.185C298.329 387.335 298.137 389.509 290.21 388.933C253.774 386.312 220.895 389.956 189.125 403.274C156.63 416.911 127.204 439.497 95.1141 472.226C131.998 483.988 169.948 489.038 204.595 485.842C238.645 482.689 264.705 471.736 283.328 455.478C288.676 450.812 290.381 452.602 285.523 457.78C268.071 476.339 239.604 487.483 205 490.7C166.667 494.259 127.438 487.611 93.4521 475.7C89.4036 474.272 88.8282 473.484 92.3867 469.627L92.3654 469.648Z" fill="#0E141B"/>
<path d="M137.901 532.912C127.95 532.443 116.209 530.121 107.707 525.454C104.937 523.941 104.809 523.472 105.811 520.575C110.328 507.513 119.022 493.407 129.228 483.328L133.959 484.33C123.369 494.408 113.801 509.153 109.22 522.087C117.828 526.924 130.123 528.757 140.372 528.949L137.879 532.912H137.901Z" fill="#0E141B"/>
<path d="M258.099 538.367C222.408 559.014 171.972 567.026 123.134 559.909C121.877 559.717 121.259 558.46 121.77 557.352C130.144 539.411 149.364 508.301 171.247 488.74L177.469 489.081C155.394 508.045 135.578 538.388 126.33 556.564C178.023 562.402 228.183 552.43 263.405 529.758L258.12 538.388L258.099 538.367Z" fill="#0E141B"/>
<path d="M241.074 627.435C206.299 624.644 160.359 613.052 128.781 597.774C118.468 592.788 120.13 586.076 131.764 584.095C177.129 576.317 220.469 561.849 256.054 539.604L251.92 547.466C221.3 566.196 176.212 581.495 132.233 587.888C124.775 588.974 124.37 591.51 130.571 594.323C161.702 608.407 206.534 619.551 239.007 622.428L241.095 627.457L241.074 627.435Z" fill="#0E141B"/>
<path d="M596.428 304.915C618.418 297.947 637.83 294.474 654.343 294.368C657.497 294.346 658.37 295.156 658.008 297.457C654.727 317.934 629.647 352.283 588.672 374.294L589.183 369.521C628.177 347.872 650.55 314.44 653.938 298.139C637.723 298.693 617.693 302.529 594.468 310.093L596.407 304.894L596.428 304.915Z" fill="#0E141B"/>
<path d="M304.998 480.133C303.315 484.224 302.015 487.995 300.225 493.301C299.82 494.494 299.33 495.262 298.521 496.05C230.846 561.018 224.901 610.261 250.258 635.724C256.373 641.861 254.264 643.672 248.106 638.068C221.705 614.011 219.766 563.66 295.942 492.257C298.371 485.14 300.822 479.323 303.038 473.996L305.02 480.154L304.998 480.133Z" fill="#0E141B"/>
<path d="M427.243 551.023C426.071 580.769 414.394 605.806 394.109 623.918C366.302 648.742 327.542 657.457 288.378 653.387C280.068 652.513 280.324 649.637 288.676 650.255C329.14 653.195 366.6 641.454 390.465 620.168C410.43 602.333 421.127 577.743 422.576 549.553L427.285 551.044L427.243 551.023Z" fill="#0E141B"/>
<path d="M246.593 634.21C237.281 641.199 228.033 653.387 224.027 663.103C221.875 668.302 222.408 673.31 225.668 678.061C230.995 685.818 243.375 697.367 252.58 702.267C261.082 706.785 269.35 709.725 276.509 708.724L278.022 712.666C269.222 714.221 258.866 710.705 250.513 706.273C241.074 701.245 227.991 689.483 221.811 680.469C217.955 674.823 217.017 668.707 219.915 661.569C224.155 651.064 234.298 638.535 243.929 630.971L246.571 634.252L246.593 634.21Z" fill="#0E141B"/>
<path d="M353.325 679.277C354.22 676.357 353.794 674.056 351.365 670.412C346.89 663.7 338.942 656.52 328.16 650.596L333.849 649.68C343.545 655.135 350.725 662.358 354.667 668.239C358.098 673.374 358.29 677.529 356.734 681.855L353.346 679.255L353.325 679.277Z" fill="#0E141B"/>
<path d="M338.345 738.342C322.002 728.285 302.953 720.806 280.281 715.223C273.569 713.561 273.888 707.68 274.762 703.695C279.535 681.642 298.947 670.242 316.483 677.295C343.949 688.354 352.068 721.85 343.267 737.17C341.755 739.791 340.881 739.876 338.367 738.321L338.345 738.342ZM278.938 704.505C278.001 708.852 278.981 710.812 281.325 711.388C304.508 717.098 324.346 725.131 340.284 735.551C347.657 720.763 339.581 691.209 314.885 680.96C299.629 674.631 282.902 686.074 278.938 704.505Z" fill="#0E141B"/>
<path d="M342.926 709.128C351.087 713.007 361.954 721.828 367.857 729.946C373.589 719.42 369.604 695.555 354.88 682.898C345.547 674.865 329.14 673.714 324.942 684.262L321.341 681.939C326.114 670.753 344.162 668.558 357.458 679.979C372.204 692.636 378.383 719.335 370.35 732.525C368.539 735.487 367.495 735.167 365.492 732.546C359.376 724.534 351.13 717.758 343.843 714.093L342.905 709.128H342.926Z" fill="#0E141B"/>
<path d="M515.394 473.676C529.99 513.991 523.917 554.668 499.221 585.352C468.644 623.323 420.935 637.77 386.203 627.158L391.04 623.088C424.131 631.931 467.898 616.888 495.322 582.411C519.954 551.429 525.217 513.331 510.493 473.506L515.394 473.698V473.676Z" fill="#0E141B"/>
<path d="M493.404 634.253C484.412 640.326 480.747 651.193 480.896 658.331C481.045 666.002 483.666 668.9 492.786 670.711C515.862 675.292 530.053 678.531 545.076 682.516C552.001 684.348 555.197 684.604 559.608 683.411L562.697 686.777C557.434 688.738 551.17 688.482 543.861 686.564C528.882 682.601 514.605 679.234 491.933 675.079C481.002 673.076 476.719 668.793 476.528 658.459C476.357 650.277 480.384 639.324 488.354 632.975L493.425 634.253H493.404Z" fill="#0E141B"/>
<path d="M583.238 660.867C582.066 651.982 571.945 645.589 545.48 632.165L549.998 629.971C576.356 642.756 587.202 651.279 587.116 661.826L583.217 660.867H583.238Z" fill="#0E141B"/>
<path d="M610.534 702.695C597.046 694.747 581.832 690.294 565.808 688.824C558.67 688.163 556.049 684.477 556.689 677.594C557.988 663.148 571.242 653.772 589.013 660.612C607.146 667.601 617.8 687.204 615.286 701.076C614.753 703.931 613.581 704.506 610.534 702.717V702.695ZM560.908 677.978C560.417 683.475 562.57 684.519 566.469 684.839C582.897 686.16 599.198 691.594 612.089 699.691C613.709 687.545 602.33 669.945 587.585 664.277C572.03 658.289 561.93 666.834 560.908 677.999V677.978Z" fill="#0E141B"/>
<path d="M609.213 680.939C617.8 682.239 623.127 684.434 628.283 687.737C626.366 670.903 607.38 654.219 581.299 652.514L577.57 648.594C606.251 649.063 630.137 666.237 631.757 688.781C632.034 692.808 630.734 693.191 627.133 691.039C621.571 687.715 617.054 686.181 611.322 685.18L609.191 680.961L609.213 680.939Z" fill="#0E141B"/>
<path d="M699.282 443.908C701.711 439.816 700.561 431.954 693.38 423.835C681.043 409.857 659.841 393.706 643.945 385.971C627.879 378.172 610.747 375.083 588.417 375.317L588.821 370.864C611.387 370.672 629.349 373.847 645.629 381.88C663.144 390.531 683.983 406.746 696.704 421.172C705.909 431.613 705.802 443.013 701.392 448.148L699.304 443.929L699.282 443.908Z" fill="#0E141B"/>
<path d="M565.063 429.418C580.873 430.1 596.023 440.008 609.256 461.977C616.501 473.994 622.659 479.492 628.39 479.513L629.52 483.753C621.998 484.201 614.434 478.874 605.591 464.235C593.19 443.673 577.613 433.168 562.101 433.317L565.063 429.418Z" fill="#0E141B"/>
<path d="M640.706 576.955C642.027 543.331 636.871 512.967 624.107 473.803C616.543 450.62 622.36 422.472 642.07 416.186C656.9 411.456 675.758 418.53 684.494 447.679C695.702 485.032 676.376 552.579 646.608 579.832C641.537 584.498 640.429 583.753 640.706 576.977V576.955ZM643.455 420.725C626.131 426.265 621.934 453.092 628.241 472.482C641.26 512.435 645.948 544.077 644.478 576.657C672.114 549.638 691.228 485.608 680.169 448.766C673.819 427.586 660.267 415.334 643.434 420.703L643.455 420.725Z" fill="#0E141B"/>
<path d="M665.573 551.472C665.573 559.591 665.296 565.749 663.293 573.633C692.975 550.684 715.86 498.202 700.773 452.646C695.851 437.815 685.005 429.995 677.015 435.322L674.714 431.465C684.409 425.052 698.28 431.039 705.014 451.346C720.526 498.138 698.089 553.07 664.251 577.745C658.03 582.284 657.348 581.09 659.265 574.101C660.949 567.986 661.481 563.021 661.737 556.842L665.573 551.451V551.472Z" fill="#0E141B"/>
<path d="M454.709 617.292C471.201 625.197 495.705 633.23 507.851 634.914C526.943 637.535 554.856 631.93 566.107 609.983C582.152 578.703 563.848 518.827 518.867 495.453L518.015 489.955C566.831 512.968 588.608 577.488 570.752 612.306C557.967 637.236 527.731 642.755 507.02 639.921C494.299 638.174 466.151 629.352 449.104 620.041L454.73 617.292H454.709Z" fill="#0E141B"/>
<path d="M459.29 535.384C471.393 542.458 482.601 547.849 492.487 551.109C483.602 521.108 456.498 475.594 421.468 440.137C402.717 421.152 379.534 421.066 370.329 432.679C363.744 440.968 363.702 455.031 372.033 467.326C358.268 461.807 342.862 466.048 337.131 476.723C329.502 490.936 333.38 508.003 354.539 520.234C393.469 542.735 455.22 563.916 482.75 556.99C477.231 550.577 470.945 545.164 459.311 535.405L459.29 535.384Z" fill="#EFEFEF"/>
<path d="M337.109 476.722C342.841 466.047 358.247 461.828 372.012 467.325C363.68 455.031 363.744 440.967 370.307 432.679C379.512 421.066 402.695 421.151 421.446 440.136C425.729 444.483 429.884 448.958 433.912 453.56C432.1 440.818 424.344 429.887 413.435 421.684C410.004 396.902 387.46 375.616 359.76 377.448C330.12 379.408 312.648 402.378 314.715 425.498C313.585 426.84 312.498 428.268 311.476 429.781C296.326 452.005 295.921 489.379 332.762 514.033C340.028 518.891 345.973 519.615 350.491 517.676C332.912 505.701 329.992 489.955 337.131 476.701L337.109 476.722Z" fill="#DDC300"/>
<path d="M352.856 378.279C346.911 386.12 352.004 400.567 362.977 405.234C346.89 405.511 326.967 411.413 315.823 424.475C310.858 406.811 328.458 381.454 352.856 378.258V378.279Z" fill="#B5A000"/>
<path d="M366.77 455.052C346.89 454.029 322.94 435.534 321.959 417.635C292.362 442.544 294.131 490.146 331.846 513.862C339.283 518.528 346.272 520.02 349.66 517.463C338.004 509.217 329.907 494.344 335.234 479.897C338.835 470.138 351.791 460.805 372.161 466.537C369.199 462.723 367.963 459.271 366.77 455.052Z" fill="#B5A000"/>
<path d="M337.642 475.209C362.125 502.952 423.833 537.748 481.748 556.52C460.803 563.318 390.784 543.544 348.509 516.547C334.105 507.342 328.394 487.951 337.621 475.209H337.642Z" fill="#C9CACA"/>
<path d="M372.182 430.355C399.925 462.722 446.483 509.877 492.168 550.384C456.434 538.707 412.433 504.912 382.389 478.149C362.466 460.421 361.976 438.325 372.182 430.355Z" fill="#C9CACA"/>
<path d="M312.797 427.5C309.643 403.23 327.606 377.213 359.61 375.104C389.463 373.165 412.774 396.327 415.587 423.175L411.091 420.32C406.978 398.138 386.799 377.917 359.994 379.706C332.911 381.496 315.375 401.632 316.653 423.857L312.818 427.522L312.797 427.5Z" fill="#0E141B"/>
<path d="M352.387 519.062C346.293 521.939 339.56 521.3 331.463 515.887C297.498 493.152 291.382 455.032 309.537 428.375C327.073 402.635 361.656 398.8 388.952 407.131C417.27 415.782 434.253 434.725 436.17 455.799L431.547 451.175C427.967 434.576 412.732 418.936 387.801 411.329C361.507 403.296 329.161 407.898 313.394 431.081C297.455 454.499 300.268 489.529 333.785 512.244C340.732 516.953 344.61 517.315 348.467 516.186L352.409 519.062H352.387Z" fill="#0E141B"/>
<path d="M491.955 552.92C463.061 543.672 422.64 516.653 377.936 477.361C362.381 463.703 358.907 443.055 368.24 431.293C377.211 419.979 401.31 416.697 422.832 438.538C457.819 474.058 485.584 520.531 494.214 550.597C494.959 553.175 494.15 553.623 491.955 552.92ZM372.182 433.957C364.874 443.183 366.877 461.849 380.919 474.186C424.217 512.242 462.251 538.217 489.696 548.189C480.64 521.831 455.241 477.532 419.806 441.713C401.289 423.004 379.725 424.432 372.182 433.957Z" fill="#0E141B"/>
<path d="M373.631 470.287C359.099 463.49 344.205 467.986 338.985 477.66C331.697 491.233 336.364 507.32 355.562 518.422C394.577 540.966 452.769 560.036 478.936 555.753C472.693 549.297 466.854 544.162 453.537 533.252L466.982 539.474C474.525 545.76 478.467 549.276 482.643 554.006C485.925 557.714 484.923 558.524 480.47 559.376C452.492 564.703 393.576 545.44 353.154 522.087C330.312 508.876 327.137 489.933 334.851 475.614C340.604 464.896 356.095 459.377 370.478 464.576L373.61 470.287H373.631Z" fill="#0E141B"/>
</g>
<defs>
<clipPath id="clip0_42_60824">
<rect width="620" height="579.366" fill="white" transform="translate(90 160)"/>
</clipPath>
</defs>
</svg>
