<svg width="800" height="800" viewBox="0 0 800 800" fill="none" xmlns="http://www.w3.org/2000/svg">
<g clip-path="url(#clip0_42_58309)">
<path d="M650.615 635.69C652.891 635.811 660.422 652.847 658.247 654.7C656.073 656.552 637.526 651.418 638.09 649.082C638.654 646.746 648.34 635.57 650.615 635.69Z" fill="#DCDDDD"/>
<path d="M417.65 634.24L303.876 388.709L152.828 428.641L113.238 491.589C97.5517 515.834 97.149 546.02 97.3906 560.599C90.4433 565.553 92.1147 577.474 100.029 577.474C111.466 605.686 120.568 625.38 138.651 637.442C139.779 646.503 139.779 678.239 193.042 670.305L417.65 634.26V634.24Z" fill="#5EC2D0"/>
<path d="M303.876 388.709L152.828 428.641L113.238 491.589C110.258 496.201 107.721 501.094 105.566 506.088C152.224 490.119 163.682 547.469 173.75 557.538C208.406 595.335 229.047 620.285 257.802 659.915L417.65 634.26L303.876 388.729V388.709Z" fill="#50A9B5"/>
<path d="M206.634 503.732C185.067 538.267 163.581 579.649 182.832 637.442C202.103 695.236 248.922 753.492 248.922 753.492C248.922 753.492 284.222 768.977 310.461 758.124C332.692 748.921 347.13 734.865 347.13 734.865C347.13 734.865 341.472 652.142 346.003 632.891C346.003 632.891 228.201 469.177 206.634 503.712V503.732Z" fill="#5EC2D0"/>
<path d="M242.297 547.893C262.696 568.292 295.74 646.725 344.613 683.596C343.989 662.714 343.969 641.49 346.003 632.891C346.003 632.891 228.201 469.177 206.634 503.712C205.587 505.383 187.806 535.408 186.779 537.119C202.083 519.56 221.898 527.494 242.297 547.893Z" fill="#50A9B5"/>
<path d="M569.262 610.539L547.312 401.597L597.917 448.456C628.787 466.015 719.907 560.176 648.803 624.655C577.699 689.134 569.282 610.539 569.282 610.539H569.262Z" fill="#50A9B5"/>
<path d="M674.599 556.975C681.727 557.599 684.969 566.54 674.78 574.474L674.599 556.975Z" fill="#50A9B5"/>
<path d="M548.078 491.831C560.2 459.672 586.66 462.35 605.468 483.333C624.276 504.316 667.732 547.047 649.649 618.171C655.509 631.28 653.999 641.469 642.682 643.725C639.279 648.255 627.438 666.802 601.622 683.395C601.622 691.329 596.407 707.68 564.671 708.808C532.955 709.935 491.03 697.47 494.413 669.158C494.413 669.158 535.935 524.01 548.058 491.831H548.078Z" fill="#5EC2D0"/>
<path d="M605.468 483.333C586.66 462.37 560.18 459.672 548.078 491.831C538.331 517.707 509.556 616.721 498.661 654.417C528.263 658.566 548.239 682.186 561.328 708.868C562.456 708.868 563.583 708.848 564.691 708.807C596.407 707.68 601.642 691.328 601.642 683.394C627.458 666.802 639.298 648.255 642.702 643.725C654.039 641.469 655.529 631.26 649.669 618.171C667.752 547.047 624.296 504.296 605.488 483.333H605.468Z" fill="#50A9B5"/>
<path d="M192.337 662.835C189.034 659.854 178.503 664.224 176.449 669.782C175.502 678.924 185.51 687.402 189.679 689.959C193.867 692.517 197.613 676.387 197.955 673.749L192.337 662.835Z" fill="white"/>
<path d="M246.163 741.349C242.156 740 238.511 761.083 239.719 764.728C240.927 768.373 258.87 759.593 259.192 756.613C259.514 753.633 250.17 742.698 246.163 741.349Z" fill="white"/>
<path d="M287.182 761.486C286.88 756.029 291.834 745.537 296.868 743.403C301.902 741.268 311.105 754.176 311.105 757.418C311.105 760.66 310.098 776.045 307.46 777.696C302.829 777.354 287.504 767.426 287.182 761.466V761.486Z" fill="white"/>
<path d="M346.405 723.77C340.706 726.146 333.598 740.242 335.934 743.564C338.29 746.887 352.748 748.699 355.467 748.196C358.165 747.692 348.056 724.756 346.405 723.77Z" fill="white"/>
<path d="M259.192 756.633C259.393 754.781 255.829 749.807 252.144 746.001C250.654 753.089 247.331 758.949 243.767 764.567C249.486 762.936 258.97 758.667 259.192 756.633Z" fill="#DCDDDD"/>
<path d="M311.125 757.439C311.125 754.539 303.393 744.913 298.157 744.35C303.312 753.915 306.715 764.326 308.95 774.998C310.501 770.024 311.125 759.976 311.125 757.419V757.439Z" fill="#DCDDDD"/>
<path d="M510.321 696.585C510.321 691.853 506.012 682.368 502.709 681.704C499.407 681.039 486.257 695.054 487.022 698.86C487.788 702.666 510.301 701.881 510.301 696.585H510.321Z" fill="white"/>
<path d="M538.775 707.177C540.043 702.384 550.232 692.759 552.891 693.745C555.529 694.732 562.295 704.055 562.617 708.345C562.959 712.634 559.918 726.468 556.938 729.448C549.648 728.119 537.445 712.13 538.775 707.177Z" fill="white"/>
<path d="M562.617 708.345C562.295 704.036 555.529 694.732 552.891 693.746C552.589 693.645 552.186 693.685 551.723 693.806C554.461 705.667 556.092 717.507 556.656 729.368C556.757 729.388 556.858 729.428 556.938 729.449C559.918 726.468 562.959 712.654 562.617 708.345Z" fill="#DCDDDD"/>
<path d="M586.419 703.854C587.244 701.156 597.011 687.966 599.991 688.631C602.971 689.295 609.516 709.432 607.603 711.788C605.69 714.144 585.11 708.143 586.419 703.854Z" fill="#DCDDDD"/>
<path d="M319.18 330.815L268.797 319.397L261.266 314.383L273.811 296.824C273.811 296.824 288.874 296.824 298.902 304.355C295.136 295.575 286.357 286.796 286.357 286.796L301.419 274.25C301.419 274.25 316.482 271.733 325.261 281.781L319.18 330.835V330.815Z" fill="#009334"/>
<path d="M464.227 346.12L459.535 295.556C459.535 295.556 476.45 288.931 478.363 290.542C480.276 292.153 483.377 296.824 483.377 296.824L494.674 293.059C494.674 293.059 513.563 310.397 512.314 324.211L464.227 346.14V346.12Z" fill="#009334"/>
<path d="M375.06 418.653L315.233 315.209C302.99 312.39 289.216 317.485 289.216 317.485C289.216 317.485 284.262 311.987 282.611 311.987C280.96 311.987 253.976 320.243 253.976 320.243L262.796 332.91L246.284 323.546L220.629 334.722L239.679 357.678L211.044 341.71C211.044 341.71 178.241 348.838 153.774 360.981C158.728 364.283 172.502 377.493 172.502 377.493L145.518 366.478L132.852 372.539L153.231 390.703L120.105 379.628L104.539 390.864L125.703 407.236C125.703 407.236 103.271 398.194 93.2826 400.993C84.8452 405.061 66.8024 425.399 66.8024 425.399L97.6322 428.702L59.6336 434.199L50.8136 456.773C50.8136 456.773 77.8576 445.456 86.0534 447.409C62.0299 455.021 43.6649 476.044 43.6649 476.044L43.1212 495.859C43.1212 495.859 64.547 470.627 81.1198 465.029C68.8362 476.064 56.895 503.027 56.895 503.027L73.9712 499.181C73.9712 499.181 86.1138 469.721 102.606 454.578C96.424 463.156 91.0474 485.408 90.4835 493.12C91.732 492.878 95.4775 493.221 98.4377 492.415C102.042 491.428 104.801 489.274 104.801 489.274L117.467 468.895L108.647 492.576L131.221 487.623C131.221 487.623 138.631 455.625 160.117 439.112C158.466 444.066 146.102 472.198 144.995 481.561C148.841 479.91 172.945 476.588 172.945 476.588C172.945 476.588 193.867 429.124 207.218 420.445C193.263 447.852 191.793 473.305 191.793 473.305L215.051 469.439L231.241 441.005L225.402 466.68L248.237 465.613C248.237 465.613 259.313 429.99 274.456 407.92C269.502 419.479 265.132 459.974 264.568 463.821C270.428 463.317 294.774 462.27 294.774 462.27L375.101 418.613L375.06 418.653Z" fill="#00A73C"/>
<path d="M315.253 315.209C303.01 312.39 289.236 317.485 289.236 317.485C289.236 317.485 284.282 311.987 282.631 311.987C280.98 311.987 253.996 320.243 253.996 320.243L263.501 334.984L246.284 323.546L220.891 334.48L239.679 357.698L211.044 341.73C211.044 341.73 184.765 347.429 161.708 357.356C175.965 366.619 192.739 376.909 205.003 387.119C210.339 385.065 215.676 389.998 214.044 394.509C228.342 410.115 244.411 434.4 251.016 455.705C256.211 443.442 264.528 422.379 274.415 407.96C269.462 419.519 264.468 461.767 263.904 465.613C267.75 463.962 294.734 462.31 294.734 462.31L375.06 418.653L315.233 315.209H315.253Z" fill="#009334"/>
<path d="M448.923 402.02L464.328 322.439L485.754 308.705L502.87 325.761L532.613 319.7C532.613 319.7 602.79 330.292 601.985 334.561C598.722 335.568 581.243 346.079 581.848 347.408C582.472 348.758 614.107 336.253 614.107 336.253L638.614 343.905L620.168 358.766C620.168 358.766 642.057 349.14 644.937 347.207C647.817 345.274 658.771 354.114 658.771 354.114L645.501 361.504C645.501 361.504 673.572 354.92 675.223 355.463C676.049 355.745 682.05 358.444 687.346 362.008C692.642 365.592 697.253 370.043 699.992 371.432C691.172 370.888 666.947 381.339 666.947 381.339L709.899 380.796L729.714 397.872L709.335 406.128L739.078 405.584L744.414 410.719L747.334 417.143C747.334 417.143 733.842 415.049 717.591 418.251C726.411 419.902 756.677 436.414 756.677 436.414L758.047 443.684L756.677 448.517L722.545 433.655L756.677 460.639L744.897 464.707L732.432 466.157C732.432 466.157 717.934 442.053 690.97 424.433C693.427 427.554 698.381 434.26 703.556 441.61C711.127 452.363 717.591 463.942 717.591 463.942L708.751 466.136L700.515 465.593C700.515 465.593 691.695 450.168 692.259 452.383C692.803 454.578 694.373 460.8 695.018 464.505C695.662 468.211 675.203 463.962 675.203 463.962C675.203 463.962 650.978 418.814 633.902 403.389C636.661 409.994 654.663 443.422 656.556 457.598C652.972 458.605 646.044 458.223 646.044 458.223L631.143 428.702C631.143 428.702 638.413 449.725 638.856 456.793C626.975 466.318 611.328 461.203 611.328 461.203C611.328 461.203 605.69 421.553 591.372 406.692C591.916 414.948 600.112 438.851 601.763 449.302C596.125 449.765 569.483 449.644 569.483 449.644L554.24 410.256L559.234 445.999L529.834 446.342L448.903 402.02H448.923Z" fill="#00A73C"/>
<path d="M589.016 370.546C590.043 361.625 584.304 361.625 584.304 361.625C584.304 361.625 604.925 347.992 622.363 339.434L614.087 336.736C614.087 336.736 582.754 348.858 581.847 347.388C580.941 345.918 598.34 334.943 601.602 333.937C602.407 329.667 532.612 319.659 532.612 319.659L502.87 325.721L485.794 309.752L464.328 322.418L448.923 402L529.854 446.321L559.254 445.456L554.26 410.236L569.503 449.624C569.503 449.624 596.145 449.765 601.783 449.282C600.132 438.81 591.956 415.693 591.413 407.437C605.73 422.298 611.368 461.183 611.368 461.183L614.188 460.74C617.47 430.937 598.259 388.75 589.057 370.546H589.016Z" fill="#009334"/>
<path d="M430.961 395.355L329.43 385.749C324.476 379.144 295.841 330.694 334.383 256.348C351.278 223.767 377.316 222.921 385.592 223.304C408.709 224.411 475.343 255.785 464.892 362.068L430.981 395.334L430.961 395.355Z" fill="#C28700"/>
<path d="M450.171 301.435C454.541 302.885 458.81 305.06 462.979 307.718C450.755 244.669 404.158 224.209 385.592 223.323C377.316 222.921 351.278 223.786 334.383 256.368C311.266 300.952 312.313 336.191 317.931 358.725C342.217 312.249 401.44 285.788 450.171 301.455V301.435Z" fill="#9A6A00"/>
<path d="M340.988 432.567C340.988 432.567 319.019 422.016 297.492 424.311C293.646 429.265 294.734 476.627 301.339 496.442C294.734 504.155 276.57 529.487 269.401 537.743C262.253 545.999 267.831 573.386 269.623 579.95C274.476 584.28 295.277 602.162 318.959 606.572C322.261 616.479 326.671 620.889 330.517 623.084C334.363 625.279 388.874 662.19 392.177 664.385C395.479 666.58 400.997 668.251 408.689 668.251C416.382 668.251 467.61 671.554 474.215 672.661C480.82 673.769 490.728 672.661 498.44 669.359C506.153 666.056 544.151 646.242 546.89 643.483C549.649 640.724 557.361 630.817 557.361 630.817C557.361 630.817 583.781 623.668 588.755 619.258C593.708 614.848 608.57 593.382 610.221 588.972C611.872 584.562 613.201 576.567 605.267 554.276C597.253 531.742 578.283 500.308 578.283 500.308C578.283 500.308 593.688 437.098 589.298 429.285C584.345 420.485 528.182 449.664 528.182 449.664L340.968 432.587L340.988 432.567Z" fill="#5EC2D0"/>
<path d="M605.287 554.256C596.749 531.722 578.303 500.288 578.303 500.288C578.303 500.288 587.526 462.471 589.661 441.73C590.285 435.648 590.305 431.037 589.318 429.265C584.365 420.465 528.202 449.644 528.202 449.644L340.988 432.567C340.988 432.567 319.019 422.016 297.492 424.311C296.304 425.821 295.599 431.339 295.358 438.81C311.246 446.301 325.06 456.329 333.376 474.634C333.376 476.647 343.707 488.428 352.205 500.328C373.731 508.262 385.068 526.95 390.727 537.159C401.5 542.254 468.919 564.928 471.174 562.653C473.43 560.377 490.445 541.086 506.555 531.017C512.395 526.849 521.597 515.633 527.276 516.76C532.955 517.888 542.057 529.89 545.52 537.985C547.534 537.985 553.454 534.521 557.482 536.535C569.564 542.576 576.572 564.928 573.752 576.809C570.913 588.71 547.252 588.75 518.798 594.368C472.906 603.43 493.285 614.183 455.91 611.928C408.89 609.089 428.725 610.8 402.648 596.624C376.591 582.467 311.488 581.481 295.136 567.244C312.575 594.912 301.761 599.524 300.895 600.45C306.614 603.148 312.736 605.404 318.978 606.551C322.281 616.459 326.691 620.869 330.537 623.064C334.383 625.259 388.894 662.17 392.197 664.365C395.499 666.56 401.017 668.231 408.709 668.231C416.402 668.231 467.63 671.534 474.235 672.641C480.84 673.749 490.747 672.641 498.46 669.339C506.172 666.036 544.171 646.221 546.91 643.463C549.668 640.704 557.381 630.796 557.381 630.796C557.381 630.796 583.801 623.648 588.775 619.238C593.728 614.828 608.589 593.362 610.241 588.952C611.892 584.542 613.664 576.386 605.287 554.256Z" fill="#50A9B5"/>
<path d="M323.912 443.583C317.307 441.388 309.051 439.173 309.051 439.173C309.051 439.173 306.856 468.351 311.81 486.535C318.415 477.171 338.23 463.962 338.23 463.962L323.912 443.583Z" fill="#C7000D"/>
<path d="M333.014 467.586C336.095 465.351 338.23 463.941 338.23 463.941L323.912 443.562C317.307 441.367 309.051 439.152 309.051 439.152C309.051 439.152 308.689 443.925 308.588 450.792C318.274 452.543 326.188 459.269 333.014 467.566V467.586Z" fill="#A40000"/>
<path d="M538.654 467.244C544.715 461.746 576.652 439.716 579.955 440.26C579.411 448.516 573.893 483.756 570.591 490.925C566.745 486.515 538.654 467.244 538.654 467.244Z" fill="#C7000D"/>
<path d="M578.767 450.369C579.391 445.918 579.814 442.294 579.955 440.26C576.652 439.716 544.715 461.726 538.654 467.244C538.654 467.244 540.305 468.371 542.842 470.143C552.367 459.229 565.033 453.148 578.767 450.369Z" fill="#A40000"/>
<path d="M530.78 601.638C515.979 602.484 478.343 617.083 471.617 618.07C464.892 619.056 424.416 618.895 417.67 614.948C410.924 611.002 379.289 588.69 354.541 585.045C344.814 608.988 341.552 592.798 341.552 592.798C342.096 595.556 343.203 607.659 347.05 612.069C350.896 616.479 393.848 648.416 397.714 651.155C401.561 653.914 476.45 660.519 484.706 657.76C492.963 655.001 524.9 643.442 528.766 639.032C532.613 634.622 537.929 619.64 540.687 616.338C540.687 616.338 534.244 609.35 530.8 601.618L530.78 601.638Z" fill="#933000"/>
<path d="M473.329 618.07C458.488 619.218 419.664 614.949 419.664 614.949C419.664 614.949 376.148 588.328 360.28 587.301C351.299 600.873 364.69 639.617 434.062 647.873C508.589 656.753 538.271 620.205 520.993 602.383C520.993 602.383 489.036 611.808 473.329 618.07Z" fill="#EE869A"/>
<path d="M507.119 637.946C525.162 628.159 530.659 615.855 521.114 603.27C506.132 604.659 478.263 617.064 468.234 618.292C458.206 619.52 419.664 614.969 419.664 614.969C419.664 614.969 376.148 588.348 360.28 587.321C354.218 596.464 360.34 620.789 386.518 633.193C428.101 623.769 466.764 626.307 507.159 637.966L507.119 637.946Z" fill="#CF7487"/>
<path d="M373.127 631.039C373.127 631.039 380.034 616.721 382.289 618.111C384.545 619.5 385.974 632.468 385.592 634.079C384.444 638.932 372.12 633.797 373.127 631.039Z" fill="white"/>
<path d="M384.706 638.147L388.572 632.106L393.768 625.521C393.768 625.521 394.815 624.756 394.976 625.642C395.66 629.508 397.493 639.879 397.171 641.187C396.023 646.04 383.699 640.905 384.706 638.147Z" fill="white"/>
<path d="M515.476 642.093L509.314 630.957L507.864 629.387C507.864 629.387 507.22 630.232 506.918 631.28C505.87 634.945 503.957 643.201 504.139 644.469C504.864 649.403 515.979 646.302 515.456 642.093H515.476Z" fill="white"/>
<path d="M504.682 648.135C504.682 648.135 499.87 634.663 498.057 635.489C496.245 636.314 492.6 648.074 492.842 649.725C493.587 654.639 505.468 650.994 504.682 648.135Z" fill="white"/>
<path d="M335.249 580.776C336.297 584.461 340.727 596.946 345.479 598.074C350.231 599.202 353.655 586.032 353.655 586.032L335.229 580.776H335.249Z" fill="white"/>
<path d="M531.263 600.773C532.834 604.981 538.07 616.782 542.379 616.923C546.668 617.064 552.045 601.84 552.589 599.202L531.284 600.773H531.263Z" fill="white"/>
<path d="M385.592 634.079C385.974 632.468 384.545 619.5 382.289 618.111C381.987 617.93 381.605 618.03 381.162 618.332C380.235 624.192 380.256 630.475 375.08 633.757C378.403 635.952 384.786 637.503 385.592 634.079Z" fill="#DCDDDD"/>
<path d="M395.177 626.83C394.895 625.239 393.184 626.327 393.184 626.327L392.962 626.649C392.298 632.307 391.996 638.449 388.149 641.731C391.593 643.403 396.466 644.168 397.171 641.208C397.453 640.02 395.983 631.321 395.177 626.85V626.83Z" fill="#DCDDDD"/>
<path d="M508.529 629.568C508.529 629.568 507.522 629.81 507.643 630.092C510.119 636.053 510.2 641.046 507.844 646.967C511.287 647.067 515.838 644.812 515.496 642.094L508.529 629.568Z" fill="#DCDDDD"/>
<path d="M504.682 648.135C504.682 648.135 499.829 634.663 497.574 634.905C499.205 640.785 499.306 645.315 496.909 652.122C500.534 652.081 505.166 649.947 504.682 648.135Z" fill="#DCDDDD"/>
<path d="M335.249 580.776C335.451 581.501 335.833 582.488 336.337 583.656C343.042 584.965 345.982 591.449 347.05 597.309C351.842 595.295 353.675 586.052 353.675 586.052L335.249 580.797V580.776Z" fill="#DCDDDD"/>
<path d="M531.263 600.773C531.565 601.558 531.304 602.867 532.814 602.867C542.54 603.451 544.554 611.164 544.755 616.903C548.158 613.137 552.166 601.196 552.568 599.202L531.263 600.773Z" fill="#DCDDDD"/>
<path d="M339.257 515.572C333.679 518.452 329.047 542.636 345.499 553.168C361.951 563.7 373.812 557.115 381.706 549.221C372.382 539.435 348.479 518.21 339.257 515.572Z" fill="white"/>
<path d="M377.296 553.068C378.886 551.88 380.356 550.571 381.726 549.202C372.402 539.415 348.5 518.191 339.277 515.553C336.981 516.741 334.827 521.554 334.263 527.534C351.278 531.199 366.885 539.697 377.296 553.048V553.068Z" fill="#DCDDDD"/>
<path d="M370.308 539.536C369.663 543.865 365.837 547.188 361.206 547.188C356.131 547.188 352.023 543.181 352.023 538.227C352.023 533.898 355.165 530.273 359.353 529.447L370.308 539.556V539.536Z" fill="#C7000D"/>
<path d="M556.153 535.427C560.885 539.555 559.637 564.143 541.151 570.446C522.665 576.769 512.717 567.546 506.918 557.981C518.315 550.691 546.588 535.77 556.153 535.407V535.427Z" fill="white"/>
<path d="M556.153 535.428C546.568 535.79 518.295 550.712 506.918 558.001C508.066 559.894 509.374 561.747 510.885 563.499C525.041 553.088 541.272 549.302 558.187 548.215C559.053 542.294 558.126 537.119 556.173 535.428H556.153Z" fill="#DCDDDD"/>
<path d="M520.289 551.296C519.886 555.646 522.806 559.794 527.296 560.881C532.23 562.089 537.184 559.17 538.352 554.357C539.379 550.148 537.184 545.899 533.317 544.087L520.289 551.296Z" fill="#C7000D"/>
<path d="M359.374 529.427C357.682 529.769 356.192 530.575 354.984 531.662C361.246 533.293 365.556 537.703 368.717 543.362C369.523 542.234 370.107 540.945 370.328 539.536L359.374 529.427Z" fill="#A40000"/>
<path d="M538.412 550.611C537.868 547.812 536.016 545.355 533.317 544.106L520.289 551.315C520.208 552.302 520.289 553.269 520.53 554.195C525.564 550.973 532.069 550.127 538.412 550.611Z" fill="#A40000"/>
<path d="M424.436 385.95C382.833 369.136 343.264 369.72 331.081 370.727C331.081 374.794 329.047 388.991 329.047 388.991L313.24 394.69C313.24 394.69 312.474 425.036 314.83 431.601C322.865 429.245 347.291 416.377 364.549 416.377C337.344 428.117 320.912 439.716 320.912 439.716L329.55 474.291C329.55 474.291 370.63 449.865 378.745 448.858C371.637 452.926 347.291 476.265 347.291 476.265L353.554 491.67L369.623 486.414L358.91 495.496L363.763 504.94C363.763 504.94 390.928 481.359 417.328 473.224C402.104 483.373 379.792 507.719 379.792 507.719L399.064 522.942C399.064 522.942 426.47 497.57 437.626 492.495C425.443 508.726 407.159 529.427 407.159 529.427L419.362 537.159C419.362 537.159 444.734 511.786 447.775 509.753C442.701 520.909 435.592 543.241 435.592 543.241L451.823 547.308L458.931 511.787L469.664 543.966L481.666 537.582L468.073 506.692L490.345 527.876L505.79 515.149L490.727 486.917C490.727 486.917 507.844 500.812 511.891 503.853C519.423 495.395 523.188 489.736 523.873 487.401C523.188 481.279 490.385 465.069 490.385 465.069C490.385 465.069 516.765 469.136 527.941 475.218C534.022 463.035 536.056 453.913 536.056 453.913L520.832 443.764L540.103 449.845C540.103 449.845 547.534 439.656 546.245 435.145C544.936 430.634 530.377 415.954 489.318 406.45C509.475 405.382 538.311 417.626 538.311 417.626C538.311 417.626 541.634 408.705 538.09 397.086C522.786 388.165 499.024 389.555 499.024 389.555C499.024 389.555 514.751 384.903 536.076 387.944C538.331 380.614 531.867 368.854 529.995 366.639C521.255 364.101 502.608 366.84 502.608 366.84C502.608 366.84 499.507 356.248 491.694 353.751C472.242 356.127 436.8 376.667 434.605 382.869C429.168 379.325 424.456 385.91 424.456 385.91L424.436 385.95Z" fill="#00A73C"/>
<path d="M436.076 414.202C444.734 408.02 450.171 418.23 452.185 418.23C473.087 418.23 495.923 413.417 517.349 415.793C509.737 412.37 500.454 409.067 489.318 406.49C517.389 407.194 538.815 418.169 538.815 418.169C538.815 418.169 541.372 404.395 537.023 396.985C521.718 388.064 496.708 389.595 496.708 389.595C496.708 389.595 514.731 384.943 536.056 387.984C537.043 380.412 531.847 368.894 529.975 366.679C521.235 364.141 502.347 366.88 502.347 366.88C502.347 366.88 499.487 356.288 491.694 353.791C471.98 355.905 436.8 376.707 434.606 382.909C429.169 379.365 424.456 385.95 424.456 385.95C382.853 369.135 343.284 369.719 331.101 370.726C331.101 374.794 329.067 388.991 329.067 388.991L312.837 396.099C312.837 396.099 312.736 405.664 313.078 415.048C353.574 406.751 395.741 393.078 436.076 414.202Z" fill="#009334"/>
<path d="M345.116 200.387L377.336 176.404C363.26 151.394 320.026 91.2444 220.75 156.911L345.116 200.387Z" fill="#E95383"/>
<path d="M377.356 176.404C373.127 168.893 366.26 158.2 356.031 148.695C328.967 162.469 298.942 169.9 268.636 173.645L345.116 200.387L377.336 176.404H377.356Z" fill="#CA4773"/>
<path d="M438.291 209.046L381.262 179.405C394.553 147.347 417.408 111.623 471.154 121.571C518.798 130.371 542.278 145.031 566.523 166.134L438.291 209.067V209.046Z" fill="#E95383"/>
<path d="M394.795 153.227C389.277 161.543 384.907 170.625 381.242 179.405L438.271 209.046L522.584 180.814C478.786 178.277 434.646 172.377 394.774 153.227H394.795Z" fill="#CA4773"/>
<path d="M324.979 145.01C321.073 141.104 316.381 134.076 309.353 137.197C302.325 140.319 292.277 137.016 290.585 139.533C288.914 142.05 288.914 152.884 294.089 152.884C299.264 152.884 311.971 154.757 317.609 158.522C323.248 162.288 331.242 151.253 324.979 145.01Z" fill="#FDEFF5"/>
<path d="M444.573 137.198C439.539 128.801 428.947 134.842 423.47 141.104C417.993 147.367 417.207 159.087 424.255 155.965C431.283 152.844 432.753 148.031 443.708 149.602C454.642 151.173 462.556 149.723 457.099 144.246C451.621 138.768 446.929 141.124 444.594 137.218L444.573 137.198Z" fill="#FDEFF5"/>
<path d="M323.832 221.028L321.073 185.668C291.491 166.537 221.777 138.768 122.481 180.996C109.976 191.165 106.674 207.818 107.076 209.429C107.479 211.06 120.951 207.536 120.951 207.536C120.951 207.536 105.425 215.289 102.183 220.041C98.9411 224.794 88.9531 250.75 88.8927 271.633C97.4912 266.941 107.056 265.813 107.056 265.813L92.0139 279.446C92.0139 279.446 90.3224 287.803 91.2286 294.971C95.1352 294.971 109.493 288.487 109.493 288.487L323.811 221.008L323.832 221.028Z" fill="#E95383"/>
<path d="M91.2488 294.991C95.1553 294.991 109.513 288.507 109.513 288.507L133.879 280.835C119.763 282.688 105.647 284.117 91.3494 284.117C91.0071 287.158 90.7655 291.226 91.2488 294.991Z" fill="#CA4773"/>
<path d="M321.073 185.667C309.414 178.116 290.565 168.752 264.025 162.993C259.313 198.132 241.169 228.72 217.166 254.597L323.832 221.008L321.073 185.647V185.667Z" fill="#CA4773"/>
<path d="M444.271 217.685L448.48 193.46C471.94 178.599 521.255 128.639 632.955 196.582C643.185 214.967 643.125 227.069 643.125 227.069L628.908 223.444L641.554 234.882C641.554 234.882 641.554 273.183 628.263 276.304L444.271 217.665V217.685Z" fill="#E95383"/>
<path d="M520.349 241.95L628.264 276.344C632.311 275.398 635.11 271.189 637.063 265.792C604.28 244.467 558.267 232.808 520.349 241.95Z" fill="#CA4773"/>
<path d="M483.841 171.692C467.912 178.922 456.635 188.305 448.48 193.481L444.271 217.706L544.191 249.542C520.329 226.888 498.239 202.764 483.841 171.692Z" fill="#CA4773"/>
<path d="M208.507 196.602C200.875 205.503 196.787 215.37 187.403 208.322C178.019 201.294 176.65 198.596 172.542 197.367C168.454 196.159 170.206 188.769 181.161 184.862C192.095 180.956 193.646 182.526 197.572 177.049C201.479 171.572 208.507 168.451 215.555 170.786C222.583 173.122 232.752 177.814 228.845 181.721C224.939 185.627 213.219 191.105 208.527 196.582L208.507 196.602Z" fill="#FDEFF5"/>
<path d="M151.056 227.693C142.659 225.82 127.999 230.21 122.522 234.117C117.044 238.023 111.587 241.144 119.4 250.528C127.214 259.912 131.12 257.556 134.262 249.743C137.383 241.93 144.954 241.467 149.646 237.56C154.338 233.653 158.084 229.243 151.056 227.673V227.693Z" fill="#FDEFF5"/>
<path d="M508.992 206.086C511.509 196.098 515.697 194.246 520.389 194.246C525.081 194.246 527.417 191.124 537.586 199.723C547.756 208.321 550.514 211.463 543.064 213.799L508.992 206.086Z" fill="#FDEFF5"/>
<path d="M606.375 205.985C593.064 199.34 582.15 205.2 590.748 211.463C599.347 217.725 597.011 222.397 605.609 225.539C614.208 228.66 618.114 229.445 615.779 222.417C613.443 215.389 611.087 208.341 606.395 206.006L606.375 205.985Z" fill="#FDEFF5"/>
<path d="M550.877 173.928C543.809 173.928 535.673 175.035 536.016 177.834C536.358 180.633 543.607 188.004 553.777 189.574C563.946 191.145 577.438 188.004 570.41 181.741C563.382 175.478 556.334 173.928 550.857 173.928H550.877Z" fill="#FDEFF5"/>
<path d="M514.932 144.225C507.099 147.789 500.856 142.654 496.164 141.104C491.472 139.553 482.874 151.273 484.445 156.73C486.015 162.208 496.869 158.522 503.917 157.576C510.965 156.63 518.053 158.281 524.296 155.16C530.538 152.038 523.51 140.298 514.912 144.225H514.932Z" fill="#FDEFF5"/>
<path d="M283.537 211.463C285.108 205.986 275.724 196.602 267.126 199.743C258.527 202.865 258.265 208.785 262.172 211.121L283.537 211.463Z" fill="#DACFD5"/>
<path d="M417.65 236.997L381.726 268.934L353.775 244.307L315.596 213.799L311.689 200.509C311.689 200.509 322.885 203.509 323.368 202.885C323.952 202.14 320.006 183.573 321.194 182.385C326.671 183.171 340.626 190.42 340.626 190.42C340.626 190.42 354.782 167.444 358.689 163.537C363.381 165.873 380.195 179.244 380.195 179.244C380.195 179.244 388.31 170.041 396.909 163.779C404.722 167.685 411.77 182.546 411.77 182.546C411.77 182.546 425.504 170.384 430.981 168.833C434.102 174.31 435.23 193.501 435.23 193.501C435.23 193.501 445.399 188.024 447.735 185.688C449.306 188.809 446.164 213.054 446.164 213.054L417.69 237.037L417.65 236.997Z" fill="#FABE00"/>
<path d="M328.161 216.316L342.619 201.012C342.619 201.012 359.353 224.109 361.005 223.706C362.656 223.303 377.014 201.535 377.014 201.535C377.014 201.535 396.728 221.229 399.184 220.424C401.641 219.598 413.542 194.145 415.193 196.622C416.845 199.079 430.8 213.034 430.8 213.034C430.8 213.034 442.258 197.286 448.138 188.728C448.097 187.278 447.976 186.171 447.715 185.667C445.359 188.003 435.21 193.481 435.21 193.481C435.21 193.481 434.082 174.29 430.961 168.813C425.483 170.383 411.75 182.526 411.75 182.526C411.75 182.526 404.722 167.665 396.889 163.758C388.29 170.021 380.175 179.223 380.175 179.223C380.175 179.223 363.361 165.873 358.669 163.517C354.762 167.423 340.606 190.4 340.606 190.4C340.606 190.4 326.409 182.727 320.932 181.942C319.764 183.11 323.932 202.361 323.368 202.864C322.704 203.448 311.689 200.488 311.689 200.488L328.161 216.296V216.316Z" fill="#D8A500"/>
<path d="M381.847 269.78C372.463 258.06 342.156 213.819 292.136 212.249C242.116 210.678 127.757 219.136 92.0342 324.029C90.1816 329.487 115.333 339.837 118.313 339.837C120.649 339.837 128.583 329.487 128.583 329.487C128.583 329.487 126.448 342.797 128.784 345.133C131.12 347.469 173.348 357.638 173.348 357.638L181.946 342.797C181.946 342.797 178.825 357.638 181.946 359.209C189.357 362.914 212.474 365.371 213.763 362.813C223.932 329.99 274.959 263.86 322.644 259.168C370.328 254.476 381.867 269.8 381.867 269.8L381.847 269.78Z" fill="#E95383"/>
<path d="M292.136 212.228C285.712 212.026 278.221 211.986 269.985 212.308C292.982 220.766 311.971 235.929 317.891 259.811C319.462 259.53 321.053 259.288 322.623 259.147C370.308 254.455 381.846 269.779 381.846 269.779C372.463 258.06 342.156 213.818 292.136 212.248V212.228Z" fill="#CA4773"/>
<path d="M113.218 338.628C114.809 338.991 118.836 339.877 119.259 339.877C121.011 339.877 128.462 330.151 128.784 328.358C129.328 325.277 133.738 314.786 132.872 313.94C132.026 313.095 119.239 332.205 113.238 338.648L113.218 338.628Z" fill="#CA4773"/>
<path d="M187.725 327.956C185.591 327.956 169.481 347.771 164.024 355.342C169.461 356.712 173.327 357.638 173.327 357.638L183.255 343.079C183.255 343.079 189.84 327.976 187.725 327.976V327.956Z" fill="#CA4773"/>
<path d="M237.545 215.188C231.282 220.666 226.489 236.453 233.517 234.902C240.545 233.332 248.378 230.211 256.957 231.781C265.555 233.352 278.06 238.809 279.631 231.781C281.202 224.753 276.51 218.491 269.462 217.705C262.434 216.92 260.078 213.799 260.078 213.799L237.524 215.188H237.545Z" fill="#FDEFF5"/>
<path d="M195.216 256.792C191.511 252.16 178.805 245.072 172.542 251.314C166.279 257.577 163.943 265.39 155.345 272.418C146.746 279.446 137.866 281.802 139.276 286.957C140.685 292.132 143.706 301.818 153.855 291.669C164.024 281.5 162.997 286.474 177.858 279.426C192.719 272.398 198.922 261.403 195.216 256.771V256.792Z" fill="#FDEFF5"/>
<path d="M246.022 265.39C237.665 272.821 231.161 266.961 224.133 273.988C217.105 281.016 215.535 285.708 220.227 287.279C224.919 288.85 233.739 298.536 244.673 286.03C255.607 273.525 254.621 277.11 255.406 270.867C256.191 264.605 253.05 259.147 246.022 265.39Z" fill="#FDEFF5"/>
<path d="M382.028 270.082C392.962 250.529 422.685 213.799 464.892 207.556C507.099 201.314 570.41 213.033 607.945 253.67C645.461 294.327 646.971 297.347 635.251 305.946C623.531 314.544 620.45 305.261 620.45 305.261L624.297 316.9C624.297 316.9 584.304 337.501 578.062 335.165C571.819 332.829 565.758 321.693 565.758 321.693L568.114 336.534C568.114 336.534 526.692 353.731 522 344.347C517.308 334.963 507.139 285.728 458.69 267.746C410.22 249.763 382.088 270.102 382.088 270.102L382.028 270.082Z" fill="#E95383"/>
<path d="M517.248 208.422C498.5 205.382 480.296 205.261 464.912 207.536C422.705 213.799 393.002 250.529 382.048 270.062C382.048 270.062 402.87 255.06 439.519 262.269C447.473 228.741 482.995 213.134 517.248 208.402V208.422Z" fill="#CA4773"/>
<path d="M493.023 223.183C476.732 225.217 466.442 231.781 464.892 236.473C463.341 241.165 505.186 266.9 511.448 262.994C517.711 259.087 514.892 247.126 510.985 238.527C507.079 229.929 499.306 222.417 493.043 223.183H493.023Z" fill="#FDEFF5"/>
<path d="M568.859 239.594C558.569 241.306 553.233 244.286 561.831 253.67C570.43 263.054 582.794 267.665 587.204 270.041C593.326 273.323 596.225 266.175 589.983 256.791C583.74 247.407 573.571 238.809 568.879 239.594H568.859Z" fill="#FDEFF5"/>
<path d="M545.399 278.681C555.448 286.494 564.932 291.971 564.167 295.092C563.382 298.214 562.596 298.214 554.783 298.214C546.97 298.214 541.493 302.906 536.016 291.186C530.538 279.466 538.351 273.203 545.399 278.681Z" fill="#FDEFF5"/>
<path d="M157.6 667.789C156.654 664.023 148.962 656.049 143.666 657.056C137.967 663.238 138.933 671.333 140.564 679.106C142.195 686.879 158.587 671.756 157.6 667.789Z" fill="white"/>
<path d="M192.337 662.835C191.169 661.768 189.075 661.667 186.779 662.17C188.591 671.836 191.33 680.314 189.497 689.839C189.558 689.879 189.638 689.919 189.699 689.959C193.887 692.517 197.633 676.387 197.975 673.749L192.357 662.835H192.337Z" fill="#DCDDDD"/>
<path d="M157.6 667.789C156.896 665.01 152.506 659.915 148.116 657.861C148.096 666.822 148.418 673.85 143.645 680.918C148.519 680.838 158.406 671.011 157.6 667.789Z" fill="#DCDDDD"/>
<path d="M142.236 585.307C141.712 589.073 140.162 594.51 135.43 594.067C130.697 593.624 134.322 595.819 135.309 596.282C141.591 599.222 145.176 594.892 145.619 591.247C146.223 586.092 142.659 582.186 142.236 585.307Z" fill="#50A9B5"/>
<path d="M255.507 656.653C255.124 660.237 253.996 665.392 250.593 664.969C247.17 664.546 249.788 666.621 250.513 667.064C255.064 669.863 257.641 665.755 257.963 662.291C258.406 657.398 255.829 653.693 255.507 656.653Z" fill="#50A9B5"/>
<path d="M138.249 534.421C134.483 534.663 128.845 534.34 128.241 530.172C127.616 526.004 126.307 529.528 126.066 530.474C124.616 536.435 129.61 538.73 133.234 538.448C138.369 538.026 141.37 534.22 138.249 534.421Z" fill="#50A9B5"/>
<path d="M208.225 631.34C207.762 635.347 206.392 641.167 202.224 640.704C198.056 640.221 201.237 642.556 202.123 643.06C207.661 646.201 213.682 642.154 214.065 638.267C214.608 632.75 208.587 628.017 208.225 631.34Z" fill="#50A9B5"/>
<path d="M211.749 563.257C213.219 565.835 214.508 573.044 209.393 575.34C203.694 577.897 207.963 578.199 209.393 578.4C218.193 579.669 218.716 572.822 218.152 569.278C217.105 562.754 209.775 559.774 211.749 563.257Z" fill="#50A9B5"/>
<path d="M145.679 656.089C142.054 650.39 141.43 644.309 141.007 640.16C141.007 640.16 149.525 645.295 155.667 646.262C161.809 647.228 160.48 645.698 146.303 638.831C124.978 628.481 105.405 589.959 102.747 579.487C100.089 569.016 100.028 575.44 100.028 575.44C97.0079 575.44 95.84 573.164 95.397 571.795C94.4505 568.835 94.5109 564.928 97.8335 562.552C97.8335 562.552 100.492 569.499 99.3237 560.035C98.1557 550.591 100.995 514.082 115.937 491.771L110.58 492.717C97.753 511.666 93.4638 544.711 96.5246 558.384C92.5778 560.559 90.8057 566.016 91.0272 569.338C91.4702 576.407 95.7796 580.092 100.31 580.192C109.05 609.069 122.824 628.944 136.758 638.469C136.396 644.631 138.712 653.31 141.43 657.378C142.236 655.867 143.504 656.492 145.719 656.049L145.679 656.089Z" fill="#0E141B"/>
<path d="M157.983 666.197C157.641 668.171 156.896 669.943 155.989 671.554C161.567 673.628 168.474 674.272 176.408 673.97C176.328 672.561 176.308 671.07 176.308 669.5C169.119 669.399 162.977 668.312 157.983 666.197Z" fill="#0E141B"/>
<path d="M177.899 567.788L179.308 564.224C165.373 538.972 178.623 498.255 186.074 485.649C190.182 478.682 191.572 475.963 186.074 482.085C167.749 502.544 163.803 551.115 177.919 567.768L177.899 567.788Z" fill="#0E141B"/>
<path d="M184.745 636.797C179.731 621.735 177.697 607.357 177.697 593.926C177.697 551.879 204.016 510.498 207.379 504.719C217.508 487.381 207.077 499.986 204.479 504.074C187.021 531.541 159.936 574.352 179.912 638.831C194.35 685.408 226.308 728.703 240.424 746.363C241.088 744.953 241.954 743.645 243.002 742.376C229.107 723.487 199.083 679.81 184.745 636.797Z" fill="#0E141B"/>
<path d="M287.444 759.291C276.348 759.009 265.776 756.633 258.688 754.619C258.426 756.15 257.863 757.479 257.057 758.606C264.588 761.023 276.026 763.882 288.088 764.003C287.907 762.432 287.665 760.862 287.444 759.291Z" fill="#0E141B"/>
<path d="M337.182 745.518C336.337 744.571 335.793 743.484 335.551 742.135C329.651 746.605 321.355 751.901 311.226 755.687V759.996C321.919 755.566 330.779 750.089 337.182 745.518Z" fill="#0E141B"/>
<path d="M348.117 635.408L344.029 632.428C342.68 638.127 342.217 649.061 342.217 661.747C342.217 683.616 343.626 710.64 344.492 724.998C346.164 724.615 347.473 724.937 348.58 725.682C347.311 704.116 344.613 650.35 348.117 635.388V635.408Z" fill="#0E141B"/>
<path d="M345.821 643.362L345.801 648.557L362.616 646.08L359.515 642.073L345.821 643.362Z" fill="#0E141B"/>
<path d="M601.642 447.952L595.843 449.764C599.689 451.959 604.703 455.463 610.301 460.055C609.536 457.658 609.576 456.611 609.536 454.195C606.797 452.282 603.998 449.281 601.662 447.952H601.642Z" fill="#0E141B"/>
<path d="M676.472 555.383C671.88 517.284 642.964 482.246 619.323 462.008C617.208 462.773 616.926 463.458 614.852 463.921C637.627 483.816 667.188 518.976 671.659 556.128C674.659 580.998 669.464 602.766 649.79 621.372L650.938 625.863C671.599 606.35 679.613 581.582 676.452 555.383H676.472Z" fill="#0E141B"/>
<path d="M674.458 558.484C676.975 558.706 678.848 560.136 679.492 562.31C680.479 565.653 678.364 569.761 673.833 573.285L675.686 575.661C681.224 571.352 684.305 566.519 682.956 561.928C681.969 558.565 678.465 555.786 674.72 555.464L674.458 558.464V558.484Z" fill="#0E141B"/>
<path d="M499.245 682.951C497.111 678.521 496.507 673.729 496.829 669.862L492.701 670.93C492.278 675.601 492.56 680.656 495.117 685.75C496.044 684.361 497.795 683.817 499.245 682.951Z" fill="#0E141B"/>
<path d="M586.942 702.605C581.848 704.82 574.679 706.431 564.61 706.794C564.067 706.794 563.483 706.794 562.939 706.794V710.821C563.543 710.821 564.167 710.821 564.751 710.801C574.296 710.459 581.505 708.747 586.942 706.351C586.681 705.203 586.801 703.914 586.942 702.585V702.605Z" fill="#0E141B"/>
<path d="M606.354 483.172C601.381 479.064 601.864 480.655 604.905 483.897C644.856 526.668 660.624 570.446 646.065 621.695C642.682 633.616 647.615 628.542 649.186 622.943C653.556 626.689 650.596 640.281 643.89 641.631C643.89 641.631 644.957 633.777 639.601 643.161C634.244 652.545 613.684 681.18 578.948 687.503C567.711 689.537 574.78 690.523 581.948 689.899C589.117 689.275 599.488 685.63 599.488 685.63C599.488 686.597 599.427 687.865 599.125 689.295C600.192 689.235 601.401 689.597 602.528 690.181C603.273 687.865 603.535 685.852 603.616 684.502C618.356 677.757 633.298 663.117 642.903 645.437C642.903 645.437 649.83 644.752 652.911 638.207C657.885 627.615 650.837 618.252 650.797 617.829C666.101 572.963 646.588 516.479 606.354 483.192V483.172Z" fill="#0E141B"/>
<path d="M510.341 694.409C509.958 696.242 509.113 697.692 507.985 698.98C516.382 704.176 527.175 707.438 538.271 709.23C538.573 707.74 539.036 706.25 539.157 704.88C528.565 702.927 518.235 699.524 510.341 694.429V694.409Z" fill="#0E141B"/>
<path d="M143.404 653.612C135.53 659.411 136.436 680.938 140.504 682.891C142.699 683.958 154.882 677.696 160.258 670.124C163.078 666.137 148.841 649.605 143.384 653.632L143.404 653.612ZM156.15 668.211C155.687 672.118 143.565 681.321 141.893 679.79C140.645 678.642 140.464 662.694 144.511 658.485C146.303 656.612 156.614 664.305 156.15 668.211Z" fill="#0E141B"/>
<path d="M186.135 659.653C178.241 661.587 174.113 664.406 174.234 671.293C174.354 678.582 184.906 691.812 190.786 690.866C193.203 690.483 198.197 684.14 199.224 675.944L196.465 673.548C196.203 675.723 192.84 686.013 189.94 686.335C187.041 686.657 177.939 675.038 177.959 670.185C177.979 665.332 191.108 662.15 194.25 665.674C197.371 669.198 193.364 661.707 193.364 661.707C191.833 660.338 189.236 658.888 186.135 659.653Z" fill="#0E141B"/>
<path d="M124.354 533.494C125.18 536.454 127.113 538.77 130.315 539.052C137 539.656 139.92 536.837 140.887 531.662C141.773 527.07 139.759 528.621 138.974 530.635C138.188 532.648 136.92 536.132 130.939 535.588C128.986 535.407 127.757 534.441 127.274 532.689C126.529 529.99 127.959 527.775 129.388 525.419C130.818 523.063 130.315 522.237 128.12 523.546C125.905 524.855 123.367 529.809 124.374 533.494H124.354Z" fill="#0E141B"/>
<path d="M143.806 597.832C146.485 596.342 148.277 593.906 147.794 590.724C146.807 584.079 143.363 581.924 138.108 582.186C133.436 582.428 135.429 583.998 137.564 584.28C139.699 584.562 143.404 584.985 144.29 590.905C144.572 592.838 143.927 594.288 142.336 595.174C139.9 596.524 137.403 595.678 134.765 594.852C132.127 594.027 131.462 594.691 133.255 596.544C135.047 598.376 140.464 599.685 143.806 597.832Z" fill="#0E141B"/>
<path d="M217.83 576.85C220.106 574.252 221.193 570.849 219.804 567.325C216.904 559.975 212.836 558.626 207.621 560.66C202.989 562.472 205.446 563.64 207.681 563.257C209.916 562.895 213.742 562.15 216.34 568.715C217.186 570.869 216.944 572.722 215.595 574.272C213.521 576.649 210.782 576.467 207.883 576.387C205.003 576.306 204.52 577.293 206.835 578.823C209.171 580.354 214.991 580.072 217.83 576.83V576.85Z" fill="#0E141B"/>
<path d="M210.5 643.845C213.179 642.355 214.971 639.918 214.487 636.737C213.501 630.092 210.057 627.937 204.802 628.199C200.13 628.44 202.123 630.011 204.258 630.313C206.392 630.595 210.098 631.018 210.984 636.938C211.266 638.891 210.621 640.321 209.03 641.207C206.594 642.556 204.097 641.711 201.459 640.885C198.821 640.059 198.156 640.744 199.948 642.577C201.741 644.409 207.158 645.718 210.5 643.845Z" fill="#0E141B"/>
<path d="M256.755 668.211C259.433 666.721 261.226 664.285 260.742 661.103C259.756 654.458 256.312 652.303 251.056 652.565C246.385 652.807 248.378 654.377 250.513 654.659C252.647 654.941 256.352 655.364 257.238 661.284C257.52 663.217 256.876 664.667 255.285 665.553C252.849 666.902 250.352 666.057 247.714 665.231C245.076 664.405 244.411 665.07 246.203 666.923C247.996 668.755 253.412 670.064 256.755 668.211Z" fill="#0E141B"/>
<path d="M615.376 649.464C612.396 648.779 609.999 646.926 609.576 643.745C608.69 637.099 611.389 634.059 616.524 632.871C621.075 631.803 619.605 633.877 617.631 634.743C615.658 635.609 612.214 637.019 613.02 642.979C613.282 644.933 614.309 646.121 616.081 646.523C618.799 647.148 620.954 645.637 623.27 644.107C625.565 642.577 626.411 643.04 625.183 645.315C623.954 647.571 619.121 650.329 615.396 649.464H615.376Z" fill="#0E141B"/>
<path d="M634.144 582.508C631.425 581.763 629.27 579.749 628.888 576.306C628.082 569.097 630.539 565.815 635.191 564.506C639.319 563.358 637.99 565.593 636.198 566.54C634.405 567.486 631.284 569.016 632.009 575.46C632.251 577.575 633.177 578.863 634.788 579.306C637.265 579.991 639.218 578.36 641.312 576.689C643.407 575.037 644.152 575.541 643.064 577.998C641.957 580.454 637.567 583.435 634.184 582.488L634.144 582.508Z" fill="#0E141B"/>
<path d="M649.186 523.809C646.628 523.507 644.252 521.916 643.145 518.694C640.809 511.928 642.239 508.444 646.044 506.491C649.427 504.759 648.763 507.095 647.394 508.263C646.024 509.431 643.608 511.364 645.702 517.405C646.387 519.379 647.494 520.466 649.005 520.648C651.34 520.929 652.69 519.057 654.16 517.164C655.63 515.271 656.415 515.633 655.992 518.151C655.569 520.648 652.368 524.171 649.166 523.789L649.186 523.809Z" fill="#0E141B"/>
<path d="M650.092 638.187C652.388 643.564 657.784 653.552 654.26 653.189C650.716 652.827 638.574 649.504 638.473 649.484L637.607 652.384C638.07 652.525 650.172 655.868 656.636 656.874C667.51 658.586 651.421 632.468 651.34 632.287L650.092 638.207V638.187Z" fill="#0E141B"/>
<path d="M485.834 700.129C487.324 703.27 503.595 704.277 510.462 700.189C512.375 699.061 512.596 697.672 512.596 696.685C512.596 691.57 506.293 678.32 502.669 679.186C493.406 681.401 484.263 696.806 485.814 700.129H485.834ZM502.427 683.173C504.501 683.596 508.811 691.933 508.811 696.584C508.811 699.625 490.284 701.84 488.613 698.518C487.405 696.121 497.876 682.75 502.427 683.173Z" fill="#0E141B"/>
<path d="M547.031 693.967C544.493 696.303 539.439 701.156 538.09 704.66C536.721 708.164 536.922 709.916 538.472 713.017C540.023 716.138 545.843 724.595 550.716 728.583C555.972 732.852 557.724 731.885 560.059 727.616C562.395 723.347 565.114 714.003 564.731 708.748C564.349 703.492 557.542 694.934 555.206 693C552.87 691.047 549.568 691.631 547.031 693.967ZM540.607 708.546C540.969 703.895 550.696 694.672 552.669 695.135C554.743 695.92 561.227 705.244 561.61 708.949C561.993 712.634 557.925 725.683 555.77 726.065C553.636 726.448 540.224 713.198 540.607 708.566V708.546Z" fill="#0E141B"/>
<path d="M292.821 744.39C290.686 747.088 286.417 752.666 285.611 756.331C284.806 759.996 285.249 761.688 287.263 764.527C289.276 767.366 296.304 774.857 301.741 778.039C307.581 781.462 309.172 780.234 310.823 775.663C312.474 771.072 313.743 761.426 312.575 756.311C311.387 751.176 303.352 743.746 300.755 742.195C298.157 740.624 294.975 741.712 292.821 744.39ZM288.692 759.795C288.35 755.143 296.546 744.551 298.56 744.692C300.714 745.135 308.568 753.391 309.514 756.976C310.461 760.56 308.407 774.072 306.353 774.777C304.299 775.482 289.035 764.426 288.692 759.775V759.795Z" fill="#0E141B"/>
<path d="M584.989 703.41C584.707 704.357 584.606 705.706 585.553 706.592C591.715 712.472 605.73 715.09 608.771 713.539C611.691 712.029 606.395 687.261 600.716 687.542C593.124 687.925 585.613 701.377 584.989 703.41ZM600.132 690.664C601.884 691.248 607.502 709.25 605.951 710.056C604.401 710.881 591.372 707.961 588.835 705.444C586.298 702.907 598.36 690.08 600.112 690.664H600.132Z" fill="#0E141B"/>
<path d="M333.336 741.954C333.175 743.001 333.256 744.45 334.263 745.276C340.888 750.733 356.051 750.169 356.917 749.001C359.313 745.699 350.332 721.877 346.143 722.743C339.055 724.233 333.679 739.658 333.336 741.954ZM345.982 726.166C347.714 726.529 355.266 744.954 353.916 746.061C352.567 747.169 339.921 745.9 337.223 743.564C334.524 741.229 344.271 725.783 345.982 726.166Z" fill="#0E141B"/>
<path d="M244.512 739.476C241.25 739.577 237.041 746.202 237.625 763.379C237.746 767.124 239.115 767.466 243.082 766.137C247.814 764.547 256.715 761.909 260.481 757.438C261.306 756.452 261.105 755.102 260.763 754.176C259.997 752.162 251.781 739.234 244.512 739.476ZM257.239 756.532C255.023 759.291 242.8 763.298 241.27 762.573C239.719 761.868 243.706 743.282 245.338 742.557C246.969 741.832 259.474 753.773 257.259 756.532H257.239Z" fill="#0E141B"/>
<path d="M301.862 271.935C299.788 272.881 287.867 281.761 285.974 283.654C284.081 285.547 283.316 287.259 284.846 288.568C286.357 289.897 290.988 293.602 295.036 300.227C285.39 295.394 280.315 294.81 277.657 294.246C275.019 293.683 273.872 293.683 271.596 295.938C269.321 298.213 256.675 313.155 259.131 314.766C260.219 315.471 261.467 316.196 262.514 316.78C263.863 317.525 266.723 315.994 265.515 315.39C264.508 314.907 263.541 314.343 263.4 313.981C263.098 313.155 273.388 299.22 274.576 298.334C275.764 297.448 293.787 302.281 298.016 305.543C302.245 308.805 301.218 306.429 300.311 303.731C299.405 301.053 289.659 288.044 288.572 286.876C287.484 285.728 301.862 275.881 303.574 275.499C305.265 275.116 316.763 274.27 324.134 282.708L324.335 279.405C315.092 268.854 303.936 270.948 301.862 271.894V271.935Z" fill="#0E141B"/>
<path d="M483.921 295.052C482.491 292.616 481.565 290.642 480.659 289.394C479.41 287.642 478.907 286.877 476.39 287.642C473.873 288.387 460.723 294.106 460.723 294.106L461.509 297.026C461.509 297.026 476.45 290.26 477.82 292.253C478.303 292.938 479.612 295.153 480.216 296.542C469.161 302.08 467.952 302.402 471.537 302.442C475.061 302.483 492.338 295.475 494.01 294.871C493.748 293.602 493.345 292.414 492.701 291.428C489.439 292.354 485.673 294.106 483.921 295.052Z" fill="#0E141B"/>
<path d="M72.8435 497.892C73.0248 497.771 72.9644 497.731 72.7429 497.751C72.7227 497.912 72.7429 497.952 72.8435 497.892Z" fill="#0E141B"/>
<path d="M289.558 314.867C287.182 312.31 286.84 311.182 282.611 310.477C278.382 309.772 254.379 317.324 252.869 317.908C251.358 318.471 250.795 320.304 251.741 321.492C253.07 323.204 256.856 327.231 259.313 330.755C254.419 327.996 248.882 321.814 246.344 321.834C245.076 321.834 237.987 324.815 231.362 327.956C230.456 329.648 229.53 331.339 228.604 333.051C234.806 329.648 245.035 324.855 246.244 325.258C247.975 325.842 256.856 331.701 264.79 338.327C272.744 344.952 269.905 340.783 267.246 336.998C264.609 333.212 258.165 322.056 257.42 320.928C256.654 319.8 281.443 313.115 282.571 313.518C283.698 313.92 294.875 326.607 299.224 330.956C303.574 335.306 304.701 336.112 302.627 331.54C300.553 326.969 291.854 318.27 291.854 318.27C291.995 318.21 303.292 314.001 314.931 316.679L315.616 313.739C304.742 311.222 292.901 313.78 289.599 314.867H289.558Z" fill="#0E141B"/>
<path d="M233.195 352.503C229.953 350.691 225.724 348.314 221.858 346.12C221.475 346.945 221.092 347.771 220.73 348.617C227.154 352.181 235.027 356.812 238.894 360.256C245.901 366.498 248.358 367.827 242.679 360.437C238.229 354.638 229.188 343.804 225.523 338.77C225.059 339.656 224.596 340.542 224.153 341.428C226.972 344.891 230.436 349.12 233.215 352.483L233.195 352.503Z" fill="#0E141B"/>
<path d="M294.472 458.786C292.035 458.927 274.798 460.861 269.884 461.424C266.783 461.787 266.159 460.639 266.663 456.31C267.045 453.108 274.033 413.559 275.926 409.793C277.818 406.007 288.974 386.515 273.147 407.075C258.527 426.064 247.754 461.424 246.425 463.317C245.096 465.21 227.718 466.076 227.234 465.069C226.751 464.062 230.718 447.993 232.611 441.187C234.504 434.38 234.685 430.776 232.047 434.763C229.409 438.73 215.877 465.955 213.944 467.002C212.011 468.05 194.572 472.903 193.646 471.05C192.739 469.218 201.962 430.776 208.507 421.11C221.394 402.06 208.164 417.445 206.413 419.117C184.383 440.039 173.347 472.903 171.394 474.151C169.441 475.4 147.049 480.253 146.887 479.346C146.746 478.44 155.989 454.155 158.265 447.772C160.54 441.368 165.353 431.461 159.413 436.273C132.751 457.84 131.462 485.166 129.932 486.334C128.402 487.502 114.97 489.616 110.983 490.502C112.513 486.394 112.836 482.911 118.816 469.419C124.797 455.927 119.159 463.418 116.118 468.09C113.077 472.762 105.606 486.535 103.754 487.965C101.901 489.395 92.0542 492.758 92.4368 490.684C92.8194 488.609 95.5782 468.412 103.754 455.464C111.93 442.516 100.834 453.893 98.8807 455.947C82.7711 472.882 75.421 493.221 74.3135 495.839C73.206 498.456 60.0162 501.759 59.2711 500.953C58.4254 500.027 72.4206 476.568 82.8113 464.465C93.2222 452.363 80.5761 463.619 80.5761 463.619C67.1648 468.17 45.7189 490.724 44.6919 491.771C43.6649 492.818 44.4704 478.642 45.1148 476.668C45.739 474.675 67.4468 456.934 86.4763 448.879C105.506 440.824 86.6978 446.08 86.6978 446.08C70.3465 446.684 55.9687 452.182 54.841 452.182C53.7133 452.182 59.9155 436.978 60.7009 435.589C61.4661 434.199 90.4835 430.554 97.8134 430.212C105.143 429.87 114.789 428.541 97.753 427.212C90.9668 426.688 72.8032 424.554 72.2394 423.426C71.6755 422.298 87.2415 405.685 93.7659 402.443C103.19 399.886 119.36 406.148 125.119 408.645C130.878 411.142 140.323 417.566 126.609 406.048C122.864 402.906 108.486 392.938 107.862 391.348C107.238 389.757 118.977 381.843 121.515 381.923C124.052 382.004 147.008 389.817 152.747 392.153C158.486 394.489 159.211 393.965 154.217 389.596C149.223 385.226 135.852 373.687 135.53 372.942C135.208 372.177 143.585 368.472 145.538 368.15C147.512 367.827 170.005 378.339 173.972 379.93C177.939 381.521 180.053 382.749 173.509 376.426C166.984 370.103 157.318 361.786 157.52 360.639C157.58 360.316 161.688 358.806 167.588 356.833C166.32 356.269 165.031 355.765 163.742 355.222C158.043 357.094 154.036 358.464 153.533 358.746C151.64 359.873 151.68 361.384 152.888 362.25C154.096 363.095 161.144 369.036 165.474 373.023C157.641 369.821 148.096 364.686 145.417 364.847C142.759 364.988 129.348 371.613 128.744 373.506C128.16 375.399 140.927 381.843 146.767 387.038C138.309 384.259 124.576 378.399 120.991 378.601C117.407 378.802 102.405 388.468 102.707 391.207C103.009 393.945 111.486 398.093 117.507 402.805C109.916 400.409 99.1626 397.771 92.7993 399.563L92.6785 399.604L92.5577 399.664C83.939 403.812 65.9768 422.379 65.5942 424.433C65.2116 426.487 65.3928 427.614 67.8495 427.614C70.3062 427.614 76.5084 427.997 85.4694 428.964C74.2531 430.595 60.6203 431.138 58.4656 432.87C56.311 434.602 49.6255 452.766 48.5179 455.323C47.4104 457.88 47.8131 459.813 51.3975 458.182C54.9819 456.551 71.3332 450.067 79.9519 448.799C59.1704 457.659 46.1015 470.365 43.4434 473.205C40.8055 476.044 40.9867 477.735 40.6041 479.628C40.2215 481.521 39.6174 494.953 40.1208 497.027C40.6041 499.101 41.3693 500.43 44.3899 497.973C47.4104 495.516 60.9828 478.702 75.0384 469.781C65.9365 480.575 56.8547 498.698 55.6062 502.887C54.0355 508.102 75.3002 503.652 77.6764 496.926C78.8041 493.704 84.0397 478.823 96.3837 463.519C89.6177 479.991 88.7518 489.636 89.0135 493.483C89.2149 496.664 102.566 493.946 105.043 491.469C106.372 490.14 108.526 486.052 110.741 482.508C108.808 487.723 105.707 493.785 106.654 494.731C107.6 495.678 127.455 491.509 130.093 490.462C132.751 489.435 133.879 488.67 134.261 485.831C134.644 482.991 139.578 461.706 153.372 446.302C157.318 441.892 157.258 442.294 155.486 446.644C147.512 466.157 143.927 479.971 143.444 481.38C142.961 482.79 144.29 484.119 146.001 483.736C147.713 483.354 168.877 479.387 171.535 479.004C174.193 478.621 175.704 476.547 176.65 474.091C177.596 471.634 188.611 440.663 202.365 426.809C191.088 451.819 189.699 469.56 189.316 471.251C188.934 472.943 189.135 475.42 193.847 474.836C198.579 474.272 215.595 471.614 217.105 469.922C218.616 468.211 222.603 457.176 227.134 450.067C225.684 456.692 222.401 468.029 224.496 468.976C226.57 469.922 245.76 468.513 247.734 468.029C250.009 467.466 251.379 465.935 251.922 463.881C252.687 461.042 257.5 439.012 269.965 417.787C266.683 432.246 262.897 456.128 262.514 461.042C262.132 465.955 264.025 466.902 268.576 465.955C273.106 465.009 284.101 464.445 294.834 463.78L294.492 458.766L294.472 458.786Z" fill="#0E141B"/>
<path d="M238.149 375.58C200.13 385.186 147.733 404.336 99.0016 448.194C94.7728 452 93.3028 453.631 100.512 450.087C110.48 445.174 215.293 373.768 323.389 373.768V371.351C236.054 371.351 145.256 420.264 112.191 439.978C155.325 404.477 204.117 386.656 238.753 377.916C281.806 367.062 315.575 366.66 321.637 367.143L321.838 364.726C315.294 364.203 281.967 364.505 238.169 375.56L238.149 375.58Z" fill="#0E141B"/>
<path d="M504.3 323.586C503.233 322.599 493.245 312.027 491.473 310.255C489.721 308.503 486.438 306.489 482.411 308.241C478.383 309.993 465.012 320.223 465.012 320.223L465.093 323.747C465.093 323.747 483.498 310.537 485.593 311.665C487.687 312.792 498.259 324.109 499.266 325.358C482.411 330.392 477.316 334.862 485.895 332.667C494.392 330.513 504.662 326.707 513.341 324.593C512.798 323.566 512.757 322.619 512.576 321.572C508.851 322.418 506.112 323.143 504.28 323.586H504.3Z" fill="#0E141B"/>
<path d="M732.634 439.696C742.722 444.086 756.194 450.691 758.208 450.832C760.242 450.973 759.94 437.159 757.422 435.085C754.905 433.031 734.788 422.761 722.948 418.331C732.755 417.606 743.024 418.432 746.871 418.573C750.717 418.734 743.024 404.517 739.863 404.054C736.701 403.591 726.572 403.671 717.471 404.477C723.451 402.04 732.13 399.825 732.593 398.355C733.057 396.865 714.228 380.232 710.463 379.305C706.697 378.379 685.594 379.627 674.981 379.768C693.648 372.982 704.019 374.331 700.676 370.123C697.112 365.632 679.452 354.496 675.706 354.074C672.082 353.671 664.027 355.685 653.656 358.685C655.589 357.799 657.784 356.812 661.429 355.121C664.993 353.469 648.38 344.388 645.017 345.556C641.655 346.724 637.386 349.12 630.599 352.281C634.647 348.999 640.104 345.354 640.869 343.925C641.634 342.515 617.953 334.682 614.087 335.205C608.106 336.011 587.244 345.314 583.318 346.724C592.017 340.844 605.952 334.218 603.334 332.688C600.736 331.158 598.984 330.654 596.789 330.171C595.782 331.077 593.809 332.265 592.419 332.607C595.843 333.494 597.997 333.494 597.293 333.937C594.735 335.487 587.748 340.38 582.834 344.126C578.585 347.348 580.539 349.603 584.908 348.053C593.809 344.911 610.724 338.83 612.738 338.306C614.973 337.742 636.902 343.159 634.627 345.092C632.351 347.005 624.78 352.624 621.417 355.705C618.054 358.786 614.188 363.86 620.752 360.195C627.317 356.53 642.682 349.241 644.816 348.959C646.93 348.677 657.422 353.651 654.844 354.798C652.267 355.966 644.393 360.699 638.251 363.256C632.11 365.813 623.128 369.438 638.131 365.793C653.113 362.149 671.296 356.953 674.82 357.034C678.344 357.114 697.575 369.942 695.118 370.405C692.662 370.848 671.437 377.996 666.343 380.03C661.248 382.064 658.368 383.232 666.967 382.93C675.565 382.628 706.395 381.581 709.335 382.386C712.034 383.131 722.001 393.039 725.948 396.643C726.593 397.247 726.673 397.529 725.545 397.992C721.297 399.724 713.161 403.047 708.791 404.779C703.898 406.712 698.401 409.048 709.396 407.699C721.699 406.168 735.191 406.47 738.333 407.155C741.474 407.839 743.306 413.075 743.79 414.807C744.273 416.539 731.063 414.022 715.96 416.257C712.879 417.103 711.188 417.103 717.088 419.056C722.968 421.009 753.536 434.924 755.227 437.36C756.919 439.797 758.147 447.57 755.227 446.261C738.695 438.951 729.432 434.743 721.015 431.098C712.597 427.453 714.289 429.406 720.451 433.897C726.613 438.387 753.355 458.625 753.435 459.994C753.536 461.364 735.312 465.29 733.339 463.881C731.385 462.471 713.705 436.676 688.473 420.989C681.445 416.619 683.983 419.579 687.627 423.788C691.272 427.997 717.934 461.746 714.913 462.713C711.288 463.861 703.898 465.009 702.77 463.317C701.643 461.646 693.246 450.147 690.99 446.503C687.446 440.723 687.184 442.254 688.755 446.925C690.326 451.597 694.434 462.028 693.125 462.955C691.816 463.881 677.801 462.773 675.565 461.646C673.33 460.518 653.133 417.062 634.929 402.282C630.096 398.355 629.29 397.348 632.512 403.993C635.754 410.639 655.086 453.812 655.368 456.048C655.549 457.558 647.414 458.222 646.669 456.329C645.722 453.933 637.386 435.689 632.492 428.057C627.599 420.445 626.27 421.372 629.693 429.144C632.855 436.354 637.325 453.47 636.963 455.605C636.6 457.739 613.503 462.109 612.557 459.511C611.63 456.913 611.107 429.728 589.479 399.986C582.472 390.34 587.164 400.127 589.439 409.028C591.715 417.928 600.978 445.415 599.568 447.087C599.004 447.751 594.413 448.154 589.016 448.255C588.956 449.261 588.312 452.564 588.15 453.571C594.413 453.631 600.656 451.96 601.542 451.557C604.703 450.107 604.623 448.476 604.341 446.785C604.059 445.113 597.434 421.875 593.628 412.854C604.824 429.225 609.153 458.746 609.838 461.444C610.503 464.163 610.784 464.445 613.04 464.445C615.295 464.445 632.492 464.666 639.963 458.847C641.453 457.679 639.198 449.946 636.439 441.045C640.889 449.966 643.89 457.457 645.299 459.431C646.709 461.384 659.375 461.062 659.033 457.739C658.691 454.416 639.339 411.303 639.339 411.283C655.146 429.89 668.276 456.591 669.967 461.364C671.659 466.136 671.397 466.116 676.371 466.861C681.969 467.707 694.353 469.217 695.743 467.828C697.152 466.418 694.192 457.054 693.789 455.202C694.957 457.175 697.575 461.565 700.294 466.398C701.764 468.996 714.208 466.982 717.752 465.955C719.867 465.351 719.222 462.693 715.034 456.591C710.08 449.382 707.18 443.744 695.199 428.561C716.947 445.153 727.156 462.21 729.674 465.854C732.191 469.499 734.647 468.331 738.292 467.767C741.937 467.203 759.456 462.995 759.98 461.344C760.503 459.692 742.42 447.469 732.634 439.716V439.696Z" fill="#0E141B"/>
<path d="M555.669 409.692C552.488 402.181 550.776 401.778 552.749 410.397C553.978 415.733 555.73 427.211 556.455 435.326C557.24 435.246 558.025 435.165 558.831 435.085C558.186 430.554 557.361 425.56 556.918 421.311C558.428 425.197 560.059 430.05 561.67 434.722C562.878 434.521 564.087 434.239 565.275 433.836C561.771 424.936 557.502 414.001 555.669 409.692Z" fill="#0E141B"/>
<path d="M465.898 355.463L466.664 357.759C496.305 347.71 595.682 348.516 682.996 402.765C643.165 382.547 579.854 359.329 500.756 361.263L500.816 363.679C596.729 361.263 676.975 401.074 704.885 417.626C709.516 420.385 712.013 421.573 705.026 415.915C619.705 346.965 498.4 344.448 465.898 355.443V355.463Z" fill="#0E141B"/>
<path d="M327.819 386.977L331.041 384.561C330.678 384.078 296.385 336.776 334.847 259.993C333.296 260.195 331.786 260.416 330.316 260.597C289.558 340.441 327.456 386.474 327.819 386.977Z" fill="#0E141B"/>
<path d="M447.674 264.564C446.245 264.06 444.412 264.02 443.103 263.577C455.689 283.493 467.469 317.625 462.838 364.705L466.885 362.269C473.41 317.142 461.005 284.258 447.674 264.564Z" fill="#0E141B"/>
<path d="M439.7 285.306C437.707 283.695 425.302 270.585 424.336 270.827C423.349 271.069 413.683 300.912 412.314 304.174C410.059 301.456 392.459 276.224 391.23 275.982C390.002 275.741 372.724 303.751 370.872 306.148C369.18 303.651 355.588 276.506 353.957 276.486C352.326 276.465 343.345 287.178 341.693 288.507C340.425 286.735 334.081 271.351 332.611 271.351C331.141 271.351 320.71 289.293 320.71 289.293L320.288 293.783C320.288 293.783 330.618 279.023 332.209 276.667C333.84 278.922 339.74 291.709 340.968 292.193C342.197 292.676 351.158 282.627 352.849 281.278C354.198 283.292 369.664 310.578 370.65 310.578C371.637 310.578 390.022 284.178 391.694 282.003C393.445 284.118 411.831 309.349 412.817 308.866C413.804 308.383 424.618 279.768 425.745 277.07C427.84 278.781 440.526 291.226 441.009 290.239C441.492 289.253 449.769 271.391 449.769 271.391L447.836 269.075C447.836 269.075 440.848 283.05 439.7 285.346V285.306Z" fill="#0E141B"/>
<path d="M452.266 314.243C451.279 316.941 447.614 333.111 440.969 348.516C439.418 346.14 425.302 323.063 424.557 321.834C423.812 320.606 422.584 320.163 421.496 321.734C420.389 323.304 414.046 332.406 412.314 334.823C410.804 332.165 405.004 315.652 402.99 316.196C400.977 316.74 379.933 352.906 377.96 355.926C376.168 352.805 358.407 316.196 356.172 316.458C353.937 316.72 340.686 339.857 338.512 343.039C337.042 339.474 328.665 317.001 326.973 315.008C325.282 313.014 314.689 332.205 314.689 332.205L315.012 336.716C315.012 336.716 324.416 322.741 326.409 319.962C327.839 323.445 336.478 348.133 337.988 348.093C339.498 348.073 353.856 324.774 355.789 321.955C357.541 325.036 376.53 361.545 377.759 361.786C378.987 362.028 401.158 325.016 403.151 321.975C404.722 324.734 410.884 338.83 412.475 338.407C414.066 337.984 420.812 326.828 422.463 324.533C424.195 327.191 437.827 349.986 439.056 352.201C440.284 354.416 441.613 354.336 442.741 352.443C444.956 348.758 453.373 321.855 455.045 316.357C457.179 318.371 464.086 324.915 464.086 324.915L465.758 323.163C465.758 323.163 457.401 315.391 455.729 313.316C454.038 311.242 453.313 311.484 452.326 314.182L452.266 314.243Z" fill="#0E141B"/>
<path d="M341.15 429.145C340.747 428.943 336.357 427.212 330.235 425.339C328.262 427.131 326.288 428.42 324.315 429.245C330.255 430.776 334.847 432.226 334.927 432.266L341.15 429.165V429.145Z" fill="#0E141B"/>
<path d="M580.438 500.027C582.915 489.797 591.091 455.947 593.648 435.971C594.534 428.983 592.561 423.264 585.654 424.352C580.418 425.177 565.98 429.366 545.863 438.689C545.259 440.421 544.896 442.133 544.433 443.865C567.107 433.252 585.815 427.151 587.546 430.252C590.466 435.447 576.672 499.685 575.162 505.403C573.652 511.122 576.511 508.867 578.887 505.101C589.379 520.285 614.369 572.158 608.328 588.247C606.717 592.557 592.057 613.6 587.405 617.728C584.022 620.728 572.524 624.897 562.093 627.716C562.093 627.716 565.657 622.943 572.061 616.52C576.209 612.331 571.94 613.419 569.262 615.895C558.106 626.165 548.118 639.395 545.48 642.033C543.044 644.41 506.052 663.882 497.655 667.487C490.707 670.467 481.203 671.756 474.557 670.648C467.912 669.541 416.442 666.218 408.709 666.218C399.889 666.218 395.278 664.023 393.304 662.694L385.592 657.499C369.059 646.343 334.645 623.104 331.524 621.332C326.933 618.715 315.414 597.994 312.736 593.141C310.058 588.288 306.635 584.482 307.843 589.435C309.051 594.389 314.065 602.806 314.065 602.806C297.895 597.168 285.43 590.623 275.342 582.146C266.985 575.138 264.709 549.926 270.932 539.032C275.986 530.192 303.674 496.886 306.051 494.006C308.306 491.267 306.333 490.683 302.809 493.764C298.62 481.219 296.385 461.666 296.385 445.375C296.385 436.656 296.425 427.171 298.741 426.245C301.54 425.117 307.299 425.661 313.421 426.788C313.562 425.177 314.146 423.305 313.662 421.392C309.796 420.788 305.95 420.445 302.426 420.566C297.492 420.747 294.109 422.338 293.103 427.997C288.37 454.658 295.438 483.958 299.264 496.342C290.585 504.638 270.771 531.32 266.743 536.737C259.433 546.564 260.601 576.95 274.133 586.737C282.672 592.919 297.633 602.182 315.837 607.599C320.026 615.775 325.161 624.091 330.396 627.072C333.397 628.783 368.133 650.531 383.337 660.801L391.069 666.017C395.117 668.715 401.379 670.205 408.709 670.205C416.039 670.205 467.328 673.487 473.913 674.575C481.384 675.823 491.553 674.434 499.266 671.131C506.736 667.93 544.936 649.706 548.098 646.544C550.575 644.067 556.918 634.603 558.569 632.508C563.241 631.22 584.204 625.964 592.158 619.52C597.555 615.15 611.228 594.691 613.06 589.818C616.403 580.897 611.268 547.812 580.478 499.966L580.438 500.027Z" fill="#0E141B"/>
<path d="M308.306 437.904C304.782 440.703 304.198 464.444 310.018 485.79C310.984 488.931 312.092 488.548 313.038 487.401C316.039 483.756 330.215 472.721 330.416 472.6L328.383 468.915C327.637 469.418 320.549 473.989 312.635 483.091C310.521 473.405 308.145 443.421 310.461 441.126C311.709 439.877 318.777 443.462 323.469 445.012L322.502 440.663C315.918 438.468 309.434 437.038 308.326 437.904H308.306Z" fill="#0E141B"/>
<path d="M539.56 463.921C537.365 466.156 536.6 468.29 539.721 469.921C542.379 471.311 561.489 486.273 568.195 491.569C570.994 493.764 571.638 493.703 573.33 489.696C578.465 477.513 583.902 439.212 581.143 437.622C577.196 435.346 545.158 458.202 539.56 463.9V463.921ZM578.263 442.354C580.317 443.381 571.678 489.797 569.987 488.266C559.536 478.802 541.433 468.451 541.151 467.122C540.889 465.954 575.907 441.166 578.263 442.354Z" fill="#0E141B"/>
<path d="M341.311 594.47C342.015 599.323 342.438 609.089 345.922 613.056C349.99 617.708 391.714 649.706 395.298 652.263C400.151 655.727 477.658 661.707 485.19 659.21C485.592 659.069 525.121 645.517 529.894 640.04C532.149 637.442 534.747 631.623 537.244 625.964C539.056 621.876 542.077 617.849 543.184 616.52L539.721 614.405C538.352 616.057 536.559 620.084 534.485 624.756C532.19 629.931 529.592 635.811 527.618 638.066C524.296 641.852 495.238 652.686 484.223 656.351C476.249 659.009 402.708 652.323 398.56 649.927C393.828 646.544 351.802 615.211 348.197 611.083C345.318 607.78 345.982 601.639 345.378 597.43L341.331 594.49L341.311 594.47Z" fill="#0E141B"/>
<path d="M361.327 588.106L359.071 586.374C353.373 593.825 356.252 613.781 374.355 627.816C375.141 626.588 375.866 625.682 376.49 625.057C362.394 613.922 356.031 597.369 361.327 588.126V588.106Z" fill="#0E141B"/>
<path d="M385.673 630.716C385.572 632.368 385.29 633.616 384.505 634.744C385.109 635.066 385.733 635.408 386.357 635.731C386.76 634.402 387.304 633.173 387.948 632.086C387.163 631.623 386.418 631.159 385.673 630.696V630.716Z" fill="#0E141B"/>
<path d="M434.223 646.363C418.496 644.49 406.232 641.047 396.486 636.637C397.07 638.167 397.755 639.275 397.533 640.785C407.32 644.551 419.281 647.632 433.86 649.363C457.441 652.162 478.041 650.129 494.01 645.296C494.312 644.349 494.413 643.242 494.453 641.872C477.92 647.41 458.548 649.263 434.223 646.383V646.363Z" fill="#0E141B"/>
<path d="M501.581 639.093C502.105 640.019 502.347 641.026 502.447 642.295C503.152 642.013 503.857 641.711 504.542 641.409V637.684C503.575 638.167 502.608 638.65 501.561 639.093H501.581Z" fill="#0E141B"/>
<path d="M522.685 603.31L519.483 603.753C524.054 607.941 525.524 615.714 522.604 621.594C520.49 625.863 516.885 629.89 511.63 633.495C512.053 634.582 512.455 635.348 512.777 636.636C524.98 628.964 532.955 613.922 522.665 603.31H522.685Z" fill="#0E141B"/>
<path d="M382.028 617.305C380.84 617.023 373.993 625.561 372.201 630.696C371.979 631.28 371.959 632.206 372.966 633.334C375.04 635.629 380.598 637.764 383.9 636.918C385.33 636.556 386.277 635.629 386.579 634.341C387.626 629.91 383.578 617.687 382.028 617.325V617.305ZM381.665 619.721C382.793 620.285 384.605 632.327 384.605 633.696C384.605 633.757 384.605 633.817 384.605 633.857C384.283 635.227 382.209 635.146 381.001 634.965C376.49 634.3 373.228 632.77 374.094 631.401C374.335 631.058 380.537 619.137 381.665 619.721Z" fill="#0E141B"/>
<path d="M394.714 624.433C393.284 623.97 385.209 633.575 383.759 637.784C381.766 643.261 396.466 647.752 398.137 641.409C398.943 638.368 395.358 624.655 394.694 624.433H394.714ZM385.672 638.529C386.337 635.891 393.163 626.628 394.13 626.729C394.714 626.789 396.667 637.24 396.184 640.704C395.701 644.107 384.927 641.469 385.652 638.529H385.672Z" fill="#0E141B"/>
<path d="M507.683 628.44C506.032 628.682 502.81 642.315 503.172 644.611C503.535 647.067 505.548 649.323 508.952 648.859C512.657 648.356 517.268 646.02 516.906 643C516.523 640.543 509.596 628.159 507.703 628.461L507.683 628.44ZM505.166 644.308C505.166 644.308 505.166 644.248 505.166 644.208C505.166 642.979 507.18 631.119 507.965 630.615C508.77 630.132 514.308 642.033 514.489 642.375C515.375 643.865 511.952 645.517 509.113 645.899C508.267 646.02 505.468 646.242 505.166 644.308Z" fill="#0E141B"/>
<path d="M497.876 633.979C496.205 633.979 491.593 648.074 491.855 649.867C492.057 651.256 492.963 652.283 494.392 652.787C500.454 654.901 506.716 649.947 506.173 648.699C503.333 640.261 499.105 633.979 497.876 633.979ZM493.849 649.544C493.909 648.517 497.03 637.12 497.977 636.737C498.923 636.375 503.575 648.175 503.716 648.417C505.085 650.853 493.647 653.511 493.849 649.524V649.544Z" fill="#0E141B"/>
<path d="M333.779 581.199C336.558 590.966 342.64 599.343 345.761 599.383C348.922 599.383 352.144 595.235 354.984 586.777L352.326 585.347C351.238 591.026 347.976 597.228 345.922 596.866C343.868 596.503 338.411 587.059 337.787 581.542L333.779 581.219V581.199Z" fill="#0E141B"/>
<path d="M542.56 615.432C540.688 615.754 535.834 608.646 532.673 600.249L529.854 601.316C533.539 611.163 539.58 618.352 542.963 618.493C545.319 618.573 552.407 607.719 554.058 599.504L551.098 598.899C550.575 601.497 545.138 614.969 542.56 615.412V615.432Z" fill="#0E141B"/>
<path d="M282.893 554.457C285.471 558.907 297.573 573.386 306.192 576.044C309.393 577.03 317.529 578.218 326.147 580.192C340.908 583.555 359.273 587.743 370.006 591.469C387.404 597.49 406.414 608.948 410.381 611.988C414.348 615.009 417.972 616.962 421.698 617.647C430.92 619.338 462.717 620.285 470.107 619.822C476.168 619.439 477.88 618.573 481.525 617.063C500.695 609.048 527.639 601.436 544.312 601.436C570.712 601.436 577.619 599.423 582.431 597.369C587.224 595.315 590.99 591.388 594.01 587.401C597.031 583.434 599.125 577.634 594.574 583.051C589.318 589.294 584.747 593.08 581.243 594.59C576.713 596.523 570.148 598.416 544.312 598.416C518.476 598.416 478.645 613.7 474.497 615.593C468.536 618.291 421.013 615.633 417.831 612.955C408.306 605.001 388.451 594.67 370.993 588.629C360.098 584.864 341.633 580.635 326.812 577.252C318.596 575.379 311.488 573.748 308.386 572.802C300.553 570.385 288.209 558.242 284.504 553.551C281.685 549.966 280.98 551.195 282.853 554.457H282.893Z" fill="#0E141B"/>
<path d="M422.06 598.94C422.705 600.249 424.779 602.303 426.672 604.216C428.564 606.129 428.182 603.853 428.001 602.545C427.819 601.215 426.148 599.343 424.336 596.967C422.523 594.611 421.416 597.631 422.06 598.96V598.94Z" fill="#0E141B"/>
<path d="M465.818 605.363C465.254 606.874 465.435 607.82 466.765 606.692C468.094 605.565 470.933 603.873 472.161 603.39C473.39 602.907 473.531 599.806 471.658 600.41C468.657 601.396 466.382 603.853 465.818 605.363Z" fill="#0E141B"/>
<path d="M336.155 515.814C328.101 531.984 332.913 547.752 344.532 554.9C357.803 563.076 372.463 560.619 381.867 550.933C381.867 550.933 385.934 555.323 381.887 548.819C375.825 539.053 352.869 519.117 339.679 514.143C331.967 511.243 333.699 513.922 336.155 515.814ZM346.325 551.9C331.886 542.657 333.86 521.795 339.579 517.305C348.359 520.466 369.442 538.811 379.531 549.121C369.301 558.666 358.427 559.633 346.325 551.88V551.9Z" fill="#0E141B"/>
<path d="M359.333 497.872C349.365 498.919 338.693 503.168 331.343 509.853C329.55 511.484 329.772 513.116 332.551 511.142C341.733 504.618 355.386 499.845 361.085 500.671C361.085 500.671 360.058 497.791 359.333 497.872Z" fill="#0E141B"/>
<path d="M383.196 515.955C387.726 523.728 388.874 538.629 386.8 550.551C386.156 554.215 386.981 556.149 388.371 551.134C393.043 534.38 389.861 519.459 385.391 514.123C381.927 509.954 379.792 510.156 383.175 515.975L383.196 515.955Z" fill="#0E141B"/>
<path d="M350.493 538.106C350.493 544.489 355.588 548.597 361.146 548.597C366.16 548.597 370.57 544.529 371.315 539.696L369.321 539.394C368.737 543.261 365.254 546.181 361.226 546.181C356.716 546.181 353.051 542.616 353.051 538.226C353.051 534.461 355.789 531.178 359.575 530.433L359.172 528.46C354.46 529.406 350.493 533.394 350.493 538.106Z" fill="#0E141B"/>
<path d="M357.964 538.287C357.964 539.918 359.273 541.127 360.904 541.127C362.535 541.127 363.864 539.918 363.864 538.287C363.864 536.656 362.535 535.428 360.904 535.428C359.273 535.428 357.964 536.656 357.964 538.287Z" fill="white"/>
<path d="M560.965 533.857C552.488 533.857 523.631 544.208 506.797 556.934C497.957 563.62 506.112 559.774 506.112 559.774C514.59 573.729 527.538 578.239 542.621 572.057C558.166 565.694 565.033 549.826 559.798 535.911C560.402 535.71 560.965 535.569 561.489 535.448C565.275 534.663 565.214 533.857 560.986 533.857H560.965ZM556.072 536.878C559.717 544.047 558.146 562.291 540.647 569.017C527.236 574.152 516.744 570.104 509.092 558.404C521.376 550.773 544.856 539.959 556.092 536.878H556.072Z" fill="#0E141B"/>
<path d="M539.157 515.31C548.36 516.398 557.905 522.862 563.986 531.722C566.584 535.508 567.45 535.306 565.456 531.158C560.422 520.747 549.669 513.276 539.318 513.78C532.874 514.102 533.821 514.686 539.157 515.31Z" fill="#0E141B"/>
<path d="M500.333 558.022C500.595 560.901 501.924 560.317 502.024 557.84C502.709 542.254 507.079 532.005 513.382 525.339C516.04 522.54 516.201 521.352 512.274 524.493C502.165 532.589 499.064 543.684 500.313 558.042L500.333 558.022Z" fill="#0E141B"/>
<path d="M532.894 545.013C536.398 546.644 538.271 550.49 537.385 554.135C536.881 556.149 535.613 557.881 533.821 558.968C531.948 560.116 529.713 560.438 527.538 559.915C523.611 558.948 520.933 555.283 521.295 551.397L519.282 551.215C518.839 556.089 521.819 560.801 526.692 561.989C529.391 562.653 532.753 562.291 535.109 560.861C537.365 559.492 539.258 557.236 539.882 554.699C541.01 550.108 538.11 545.215 533.76 543.181L532.914 545.013H532.894Z" fill="#0E141B"/>
<path d="M546.588 431.923C540.788 426.506 533.599 418.632 500.635 408.644C525.303 412.007 534.284 417.887 536.801 419.015C542.862 421.713 543.084 398.999 536.519 394.629C533.156 392.394 517.953 389.252 509.314 388.749C526.853 387.42 534.546 390.42 537.345 390.42C540.144 390.42 539.318 389.293 539.036 386.776C538.09 378.217 532.814 366.316 530.377 364.766C526.39 362.208 507.602 364.283 503.534 365.007C502.205 361.987 499.789 352.563 491.774 352.22C486.619 351.999 460.26 357.315 434.062 381.419C427.175 378.902 425.826 383.473 424.315 384.279C378.403 365.914 339.7 368.813 334.927 368.813C330.155 368.813 327.859 370.243 327.355 373.022C326.228 379.184 327.436 385.588 327.013 388.608C325.604 389.212 313.3 390.3 311.266 394.267C309.232 398.234 310.561 425.64 311.89 429.446C313.219 433.272 314.347 434.359 316.24 433.614C318.133 432.869 337.907 422.539 354.984 419.035C333.296 429.204 324.174 435.125 321.335 436.454C318.495 437.783 318.596 438.91 318.697 441.367C319.039 451.416 325.322 471.25 326.631 473.143C327.96 475.036 328.906 477.11 332.309 475.983C335.712 474.855 357.843 459.128 369.905 453.691C360.219 461.826 348.439 470.667 346.747 472.62C345.076 474.573 344.794 477.251 346.425 480.957C347.654 483.735 351.58 492.797 353.634 493.321C355.688 493.844 361.367 490.179 363.804 489.374C363.361 489.696 357.642 493.301 357.36 494.69C357.078 496.1 361.005 504.779 362.414 506.188C363.824 507.598 364.186 508.182 368.012 505.061C371.858 501.939 385.733 487.642 408.306 478.117C394.513 489.454 380.054 502.262 378.383 504.497C376.691 506.732 376.691 510.115 378.947 511.223C381.182 512.35 394.09 521.875 396.325 523.848C398.56 525.822 399.124 526.647 402.487 524.13C405.85 521.613 419.12 506.47 431.645 497.811C416.22 513.74 407.803 525.238 406.132 527.493C404.44 529.728 405.004 530.01 406.414 531.138C407.823 532.266 414.549 537.582 417.63 539.555C420.711 541.509 421.275 540.119 422.966 538.146C424.658 536.192 437.827 520.949 443.828 515.29C439.237 526.909 432.793 540.683 432.229 543.2C431.665 545.717 432.793 545.435 434.746 545.999C436.7 546.563 451.661 550.55 453.031 549.12C454.38 547.691 457.703 525.761 459.314 517.747C461.73 525.258 466.925 543.603 468.214 545.355C469.523 547.127 483.538 541.227 483.256 537.582C482.975 533.937 476.813 521.049 471.939 512.531C477.658 518.109 486.317 527.695 488.714 528.863C491.11 530.031 506.233 518.895 507.783 515.633C509.334 512.37 499.729 500.53 495.6 492.777C500.977 497.106 503.736 500.026 507.381 502.543C511.025 505.061 511.871 506.47 515.234 503.671C518.597 500.872 528.504 488.669 526.732 486.011C523.369 480.957 510.723 474.05 500.172 468.391C508.75 470.123 527.316 476.869 528.988 477.714C530.659 478.56 539.358 454.557 538.291 453.812C536.156 452.06 532.471 449.704 530.558 448.415C535.109 449.845 541.855 452.926 542.983 451.516C544.111 450.107 551.722 436.695 546.608 431.903L546.588 431.923ZM434.042 384.218C440.526 393.803 457.682 439.454 459.938 480.091C460.542 491.065 459.032 486.212 458.73 484.863C451.138 450.57 436.76 398.072 426.269 386.091C427.658 384.762 430.377 382.97 434.042 384.218ZM539.258 448.012C537.063 448.435 524.175 443.119 515.476 440.884C506.777 438.649 507.34 439.756 514.348 442.555C521.356 445.354 532.753 453.55 534.324 454.597C533.68 457.034 531.606 464.162 527.236 473.204C515.375 467.465 494.09 464.162 490.627 463.598C487.163 463.014 479.39 461.182 489.72 466.438C500.051 471.714 521.416 483.957 522.262 487.38C521.456 489.434 514.63 500.57 512.093 500.57C509.555 500.57 495.077 488.286 491.674 485.729C488.271 483.172 486.579 482.225 489.398 487.602C492.197 492.978 504.783 513.317 503.816 514.646C502.85 515.975 490.023 526.607 488.996 524.936C487.989 523.264 472.382 509.209 469.1 505.584C465.818 501.959 463.24 500.107 466.643 507.195C470.047 514.283 478.182 533.635 478.726 535.87C479.289 538.105 470.449 543.381 469.966 541.025C469.483 538.669 459.454 503.349 458.589 505.725C457.723 508.101 451.742 544.791 450.655 545.375C449.567 545.959 438.371 542.717 437.525 542.093C436.68 541.468 447.03 513.901 449.144 510.296C451.259 506.692 454.944 501.436 446.929 508.423C438.935 515.391 420.973 534.984 419.301 535.004C417.63 535.025 409.837 530.615 410.381 528.782C411.146 526.265 435.089 499.06 438.814 493.361C442.56 487.662 443.405 487.118 436.982 491.085C407.521 509.249 399.97 522.217 398.963 520.929C397.976 519.64 382.813 509.148 381.967 507.517C381.142 505.906 413.059 478.319 418.133 474.452C423.208 470.586 426.047 468.774 416.845 471.754C386.337 481.621 364.669 503.369 363.703 502.181C362.736 500.993 360.964 497.67 360.964 495.214C360.964 494.609 367.952 488.528 372.16 485.729C376.369 482.93 376.087 481.802 371.597 483.494C367.106 485.165 356.393 489.293 355.165 489.615C353.936 489.938 349.023 478.963 349.083 476.587C349.164 474.231 376.107 452.724 381.967 449.704C387.827 446.683 390.948 445.012 378.524 447.348C366.079 449.704 334.122 469.74 331.282 469.559C328.443 469.378 322.583 442.072 323.529 440.058C324.476 438.044 360.36 419.559 365.092 417.767C381.121 411.705 381.766 411.061 363.723 414.243C338.229 418.733 321.254 426.305 317.569 428.057C313.884 429.808 313.521 396.462 315.193 395.817C347.452 383.131 396.768 385.084 388.673 382.849C380.578 380.614 340.747 384.883 331.484 386.776C331.041 380.453 331.202 372.196 334.565 371.914C337.927 371.633 381.061 370.082 423.792 387.339L424.174 387.501C434.847 399.945 458.347 491.69 458.689 496.784C459.052 502 460.542 500.731 461.065 496.724C467.731 445.535 442.922 393.622 436.237 383.272C452.608 366.699 486.116 353.711 491.472 355.362C496.909 357.033 499.386 365.43 499.427 365.531C499.427 365.531 483.156 368.25 473.067 373.304C462.978 378.358 457.34 381.339 473.631 375.539C502.789 365.169 527.618 365.571 529.008 368.008C532.753 373.888 536.237 386.957 534.082 386.232C525.484 383.372 505.025 385.608 493.244 388.991C481.464 392.354 486.801 392.072 497.453 391.226C508.106 390.38 527.175 394.025 531.666 395.998C536.157 397.952 536.459 399.261 537.143 402.402C537.828 405.543 538.855 416.176 536.72 415.068C526.632 409.873 504.421 405.563 489.016 404.979C481.726 404.698 461.287 403.046 488.915 407.94C516.523 412.833 543.99 432.889 544.413 435.467C544.836 438.065 541.372 447.569 539.177 447.992L539.258 448.012Z" fill="#0E141B"/>
<path d="M216.562 157.113L221.596 158.18C259.192 133.311 292.478 124.128 320.489 130.894C343.163 136.372 361.85 151.938 376.611 178.599L379.249 177.109C364.045 149.682 344.069 131.619 320.529 125.941C296.627 120.161 261.205 127.552 216.542 157.093L216.562 157.113Z" fill="#0E141B"/>
<path d="M379.853 178.82L383.457 177.35C391.915 156.972 416.603 113.254 470.872 123.041C517.147 131.378 540.627 145.574 565.516 167.242L571.074 167.745C544.655 141.748 517.772 126.867 470.792 118.389C426.289 110.354 394.674 137.358 379.833 178.8L379.853 178.82Z" fill="#0E141B"/>
<path d="M308.93 136.271C305.386 137.841 300.896 137.68 297.271 137.559C293.525 137.419 290.183 137.257 289.095 138.909C287.605 141.164 287.424 147.648 289.277 151.132C290.243 152.944 292.317 153.891 294.069 153.891C299.224 153.891 311.649 155.763 317.046 159.368C319.744 161.16 323.791 160.516 326.329 157.435C329.188 153.931 329.53 148.152 325.684 144.305L323.872 142.392C320.368 138.566 315.555 133.351 308.93 136.291V136.271ZM309.756 138.123C315.052 135.767 318.959 140.016 322.402 143.742L324.275 145.715C327.275 148.715 326.53 153.125 324.234 155.924C322.805 157.656 320.368 159.167 318.173 157.697C312.374 153.83 299.607 151.877 294.089 151.877C293.103 151.877 292.317 151.313 291.713 150.165C290.062 147.104 290.525 141.446 291.431 140.097C291.914 139.392 294.734 139.493 297.211 139.573C301.037 139.714 305.789 139.875 309.756 138.123Z" fill="#0E141B"/>
<path d="M422.705 140.44C418.597 145.132 416.2 153.529 418.536 156.71C419.221 157.617 420.812 158.966 423.973 157.556C426.148 156.59 428.524 154.777 430.014 153.77C433.498 151.414 436.257 149.562 443.546 150.609C447.755 151.213 458.186 152.663 460.019 148.998C460.723 147.568 460.119 145.897 458.226 143.984C455.166 140.923 451.863 139.715 449.588 139.091C447.695 138.587 446.325 138.204 445.419 136.694C443.748 133.915 441.432 132.385 438.532 132.123C433.055 131.64 426.631 135.949 422.705 140.46V140.44ZM420.832 154.838C419.221 152.663 420.57 145.937 424.215 141.769C427.699 137.782 433.619 133.694 438.351 134.117C440.586 134.318 442.378 135.526 443.708 137.721C445.037 139.916 446.99 140.46 449.064 141.024C451.219 141.608 453.675 142.272 456.354 144.95C457.522 146.118 458.025 147.105 457.763 147.629C457.079 148.998 452.064 149.763 443.828 148.595C435.774 147.447 432.431 149.703 428.887 152.079C427.397 153.086 425.846 154.133 423.832 155.019C421.678 155.965 421.053 155.099 420.832 154.818V154.838Z" fill="#0E141B"/>
<path d="M319.683 182.99C267.025 150.186 190.383 147.488 124.354 177.895C114.547 182.406 102.405 205.261 105.405 210.295C106.593 212.289 110.339 211.443 113.379 210.759C107.842 214.444 99.5855 218.995 98.0551 222.66C96.5246 226.325 86.7783 256.812 87.0804 269.941C87.1408 272.539 86.9797 273.848 89.6176 272.962C92.2556 272.076 97.0281 268.592 102.787 267.666C98.0148 271.995 92.759 275.378 90.5238 279.204C88.2886 283.051 87.0804 300.429 92.2556 298.294C95.6386 296.905 107.54 290.038 109.573 288.145L115.494 279.748C110.943 283.997 93.0208 292.898 92.4972 292.555C91.9737 292.213 91.873 283.151 93.4437 280.211C95.0144 277.271 102.022 272.378 108.124 267.807C114.225 263.236 112.816 263.679 108.244 264.081C103.673 264.484 95.256 266.015 91.0071 268.894C89.1948 264.766 100.673 223.606 103.472 220.988C106.271 218.391 113.762 214.142 121.776 208.785C129.771 203.429 120.609 206.047 120.609 206.047C120.609 206.047 109.392 209.228 109.05 208.624C108.728 208.02 115.615 187.46 124.878 183.03C216.3 139.373 292.78 169.457 320.489 186.957C321.214 187.4 320.388 183.433 319.663 182.969L319.683 182.99Z" fill="#0E141B"/>
<path d="M449.144 192.615L449.285 194.749L456.132 190.158C482.29 172.115 528.726 136.976 629.834 195.978C633.398 198.072 645.078 225.922 641.473 225.237C637.869 224.552 630.922 222.075 626.814 222.297C624.216 222.438 638.05 232.829 640.044 235.527C642.037 238.225 636.942 273.526 627.619 275.358L630.66 278.258C638.795 276.546 647.514 249.18 644.695 237.641C643.648 233.372 638.09 229.244 631.787 224.955C635.11 225.62 642.339 229.305 643.809 229.889C645.299 230.493 647.978 232.084 647.373 226.324C647.071 223.364 642.863 210.235 638.151 200.428C636.359 196.703 634.546 194.226 631.284 192.293C538.754 137.037 481.082 161.725 449.124 192.615H449.144Z" fill="#0E141B"/>
<path d="M196.747 176.484C194.27 179.968 192.981 180.31 188.752 181.478L180.838 183.935C172.904 186.774 168.575 191.426 168.676 194.769C168.716 196.521 169.743 197.87 171.414 198.353C173.67 199.018 175.945 200.206 178.704 202.582L186.819 209.127C195.216 215.429 199.183 211.845 204.6 204.777L209.292 197.246C211.87 194.245 216.803 191.144 221.153 188.385C224.556 186.231 228.946 184.217 230.718 182.445C231.966 181.197 231.987 179.948 231.785 179.122C230.778 174.833 219.965 171.188 215.857 169.839C208.909 167.523 201.217 170.182 196.747 176.464V176.484ZM188.007 207.516L179.993 201.052C177.093 198.575 175.522 197.205 172.844 196.42C171.998 196.178 171.575 195.595 171.535 194.708C171.475 192.594 174.093 188.486 181.503 185.828L189.276 183.412C193.666 182.203 195.478 181.7 198.378 177.652C201.68 173.021 208.164 169.416 215.212 171.772C222.723 174.29 228.12 177.431 228.644 179.626C228.724 179.968 228.744 180.431 228.1 181.056C226.489 182.667 223.368 184.64 220.045 186.714C215.555 189.533 210.48 192.735 207.721 195.957L203.674 201.052C197.834 208.663 194.491 212.409 187.987 207.536L188.007 207.516Z" fill="#0E141B"/>
<path d="M121.938 233.312L121.172 233.855C118.011 236.091 114.547 238.769 114.104 242.232C113.762 244.931 115.554 247.468 118.635 251.193C122.663 256.026 126.408 258.866 129.268 258.423C131.845 258.02 133.295 254.899 135.208 250.146C137.141 245.333 140.947 243.481 144.652 241.689C146.606 240.742 148.639 239.755 150.311 238.366C154.701 234.721 157.037 232.305 156.513 230.15C156.13 228.559 153.996 227.331 151.277 226.727C142.538 224.794 127.455 229.385 121.958 233.332L121.938 233.312ZM120.166 249.884C117.447 246.622 116.259 244.025 116.541 241.93C116.883 239.353 119.4 237.561 122.32 235.486L123.106 234.923C128.321 231.197 142.578 226.828 150.834 228.66C152.647 229.063 153.734 229.687 153.915 230.412C154.117 231.278 153.452 233.09 149.002 236.775C147.512 238.024 145.679 238.89 143.746 239.836C139.9 241.709 135.53 243.823 133.315 249.361C131.744 253.267 130.133 255.301 128.402 255.583C126.368 255.905 123.609 253.992 120.186 249.864L120.166 249.884Z" fill="#0E141B"/>
<path d="M523.007 192.977L520.389 193.239C514.771 193.239 508.448 196.421 508.448 206.61L510.442 206.852C511.146 198.153 515.979 195.233 520.389 195.233L523.309 194.931C526.37 194.447 529.27 193.984 536.922 200.468L537.465 200.932C542.842 205.482 547.091 209.067 546.749 210.678C546.628 211.181 545.863 211.967 542.782 212.792L543.305 214.725C546.729 213.799 547.957 212.47 548.319 210.879C548.944 208.1 545.802 205.342 538.774 199.381L538.231 198.918C529.874 191.85 526.37 192.393 522.987 192.937L523.007 192.977Z" fill="#0E141B"/>
<path d="M585.352 204.898C584.707 205.946 585.593 208.966 590.144 212.269C593.89 214.987 595.48 217.403 596.87 219.538C598.662 222.277 600.213 224.633 605.227 226.465C611.59 228.781 615.618 230.855 617.269 229.244C618.678 227.875 617.369 224.109 616.685 222.075C614.309 214.967 611.872 207.617 606.797 205.08C597.816 200.589 587.546 201.254 585.331 204.898H585.352ZM605.932 224.572C601.542 222.981 600.293 221.068 598.561 218.43C597.071 216.155 595.38 213.577 591.332 210.637C590.265 209.872 587.909 207.879 588.956 206.167C590.466 203.67 597.655 202.744 605.932 206.872C610.261 209.026 612.577 215.974 614.812 222.7C615.758 225.559 615.396 226.324 615.174 226.526C614.148 227.532 608.61 225.519 605.952 224.552L605.932 224.572Z" fill="#0E141B"/>
<path d="M535.673 176.001C535.17 176.585 534.948 177.27 535.029 177.975C535.472 181.458 543.446 189.01 553.635 190.58C561.348 191.769 572.564 190.359 574.397 186.452C574.961 185.264 575.061 183.351 572.423 181.015C566.402 175.659 558.247 172.94 550.857 172.94C547.917 172.94 538.17 173.162 535.653 176.021L535.673 176.001ZM553.938 188.587C543.889 187.036 537.284 179.747 537.022 177.713C537.022 177.652 537.002 177.532 537.184 177.33C538.432 175.921 544.05 174.934 550.877 174.934C557.703 174.934 564.107 177.471 569.745 182.485C571.114 183.694 571.618 184.741 571.235 185.566C569.987 188.224 561.408 189.715 553.938 188.567V188.587Z" fill="#0E141B"/>
<path d="M489.58 142.917C485.754 146.582 481.706 153.69 482.854 157.697C484.344 162.893 492.52 160.738 499.185 159.449L504.058 158.603C506.475 158.281 508.952 158.261 511.348 158.261C515.838 158.261 520.51 158.221 524.759 156.086C527.659 154.636 529.391 152.401 527.76 149.018C525.806 144.91 519.926 140.863 514.509 143.319C508.911 145.857 504.219 143.642 500.091 141.688L496.487 140.138C494.554 139.493 492.117 140.48 489.58 142.897V142.917ZM485.411 156.469C484.606 153.63 487.204 147.991 490.969 144.367C492.882 142.534 494.695 141.688 495.842 142.071L499.225 143.521C503.535 145.555 508.891 148.092 515.335 145.152C519.584 143.219 523.531 145.615 525.081 148.857C525.967 150.73 526.128 153.146 523.853 154.274C520.007 156.207 515.798 156.207 511.328 156.227C508.871 156.227 506.334 156.227 503.776 156.59L498.803 157.456C492.983 158.583 486.378 159.872 485.411 156.449V156.469Z" fill="#0E141B"/>
<path d="M266.783 198.777C261.991 200.509 258.507 202.744 258.205 205.946C258.004 208.121 259.635 210.759 261.669 211.987L263.964 212.229C262.615 211.423 260.662 208.161 260.783 206.751C261.004 204.395 263.521 202.12 267.468 200.67C271.939 199.039 276.469 201.214 279.228 203.771C281.806 206.167 283.155 209.148 282.571 211.181L284.504 211.725C285.289 208.946 283.759 205.241 280.597 202.301C277.416 199.321 272.1 196.844 266.783 198.777Z" fill="#0E141B"/>
<path d="M355.688 163.98C348.842 171.471 342.76 185.768 340.827 188.91C337.263 187.077 322.019 179.506 319.623 180.734C317.811 181.66 320.046 190.239 321.697 201.052C321.697 201.052 312.353 197.77 310.4 198.535C308.85 199.16 313.964 214.866 313.964 214.866L318.435 217.162C318.435 217.162 313.038 202.361 312.696 201.173C312.696 201.173 324.214 206.228 324.879 204.878C325.684 203.267 322.2 191.145 322.523 184.419C327.154 185.486 338.109 190.984 339.82 191.89C341.532 192.796 342.64 192.514 343.747 190.843C344.855 189.172 358.205 167.202 359.595 166.92C360.984 166.638 376.651 179.325 378.866 180.714C381.081 182.103 380.739 182.224 382.41 180.553C384.082 178.882 395.862 166.135 397.714 166.638C399.567 167.162 409.333 181.741 410.199 183.231C411.065 184.721 412.173 185.003 414.126 183.875C416.079 182.768 428.987 169.256 430.054 171.008C431.102 172.76 432.833 191.246 433.498 193.541C434.162 195.837 435.27 195.837 437.223 195.011C439.177 194.186 446.446 189.151 446.446 189.413C446.446 194.367 445.56 204.174 444.452 212.772L447.594 212.51C448.158 208.201 450.111 196.924 450.957 190.178C451.823 183.251 449.889 182.667 442.64 187.218C440.747 188.406 438.572 189.635 436.72 190.682C436.297 185.064 434.444 173.344 433.599 170.001C432.773 166.658 431.102 166.376 428.323 167.766C425.544 169.155 416.2 176.425 412.294 179.788C410.058 175.539 404.178 165.37 401.681 162.591C399.184 159.812 398.822 160.315 395.902 162.369C393.002 164.423 382.471 174.21 380.014 176.888C373.53 171.672 365.737 165.833 362.414 163.597C359.071 161.362 357.863 161.624 355.729 163.96L355.688 163.98Z" fill="#0E141B"/>
<path d="M429.612 211.12C427.235 208.543 421.073 200.045 418.838 197.266C416.603 194.487 415.234 191.064 411.911 196.622C409.454 200.73 400.473 215.611 398.178 219.054C396.305 217.504 380.296 201.837 378.343 199.884C376.389 197.931 375.725 198.092 372.926 202.562C370.147 207.012 360.682 221.753 360.682 221.753C360.682 221.753 351.077 206.469 345.237 200.347C343.324 198.333 341.391 197.669 337.787 202.683C335.249 206.187 329.168 212.933 327.577 214.523C326.047 212.852 312.555 199.703 312.555 199.703L312.474 203.206C312.474 203.206 321.818 213.496 324.939 216.92C326.872 219.054 327.476 219.195 329.571 216.859C333.417 212.59 340.827 204.576 342.036 204.777C343.707 205.059 355.386 220.081 357.622 222.86C359.857 225.639 360.401 226.203 362.898 223.142C365.395 220.081 375.403 205.039 376.792 204.636C378.202 204.233 393.224 217.846 396.003 220.363C398.782 222.86 399.346 222.578 401.017 220.363C402.688 218.128 413.623 199.26 415.677 199.944C417.711 200.629 427.779 212.751 428.806 213.839C430.256 215.389 431.061 215.45 432.733 212.852C435.23 208.966 447.534 192.876 449.144 187.258L446.366 186.15C445.198 190.238 434.606 204.415 429.591 211.14L429.612 211.12Z" fill="#0E141B"/>
<path d="M257.983 213.678C259.393 214.543 261.991 217.886 269.361 218.712C272.542 219.074 275.261 220.625 277.033 223.082C278.765 225.498 279.329 228.519 278.664 231.559C278.463 232.506 278.02 233.17 277.315 233.593C274.717 235.184 268.817 233.654 263.622 232.304L257.158 230.794C250.21 229.525 243.706 231.257 237.967 232.767L233.316 233.935C231.866 234.258 231.402 233.734 231.141 233.231C229.711 230.391 235.088 219.678 239.699 215.651L235.994 216.175C230.899 220.645 226.65 230.875 228.644 234.801C229.107 235.728 231 236.493 233.759 235.889L238.491 234.701C244.29 233.17 250.311 231.579 256.815 232.767L263.118 234.258C268.978 235.768 275.764 237.782 279.087 235.748C280.275 235.023 281.04 233.915 281.362 232.425C282.168 228.8 280.738 224.793 278.684 221.893C276.59 218.953 273.368 217.121 269.602 216.698C263.179 215.993 260.923 213.214 259.594 212.449L257.983 213.657V213.678Z" fill="#0E141B"/>
<path d="M172.039 249.965C169.26 252.623 167.145 256.57 165.011 259.611C162.212 263.638 159.312 267.787 154.318 271.693C151.318 274.029 148.297 275.841 145.619 277.432C140.403 280.533 136.295 282.97 137.463 287.017C138.249 289.776 139.638 297.408 143.867 298.475C146.726 299.2 150.27 295.817 154.177 292.072C160.379 286.152 162.252 285.668 166.36 284.601C168.978 283.916 172.562 282.99 178.563 280.271C188.752 275.66 197.492 268.854 199.002 262.591C199.566 260.255 198.015 258.02 196.767 256.53C194.109 253.348 186.819 248.757 180.093 248.395C176.71 248.213 174.072 248.052 172.018 250.006L172.039 249.965ZM145.297 295.012C142.316 294.226 140.927 289.152 140.262 286.715C139.578 284.158 142.216 282.386 147.33 279.204C149.989 277.553 152.989 275.68 156.009 273.224C161.104 269.055 164.004 264.706 166.823 260.477C168.837 257.456 170.73 254.617 173.287 252.059C174.858 250.489 177.012 249.764 179.711 249.905C185.591 250.227 192.155 254.556 194.451 257.436C195.478 258.725 195.357 260.457 195.075 261.685C193.968 266.437 188.108 273.505 177.455 278.56C171.777 281.258 168.515 282.144 165.917 282.849C161.829 283.957 159.594 284.581 153.17 290.984C149.948 294.206 147.31 295.556 145.297 295.032V295.012Z" fill="#0E141B"/>
<path d="M245.358 264.645C241.37 268.189 237.967 268.511 234.383 268.854C230.839 269.196 227.174 269.538 223.428 273.284C218.213 278.499 215.998 282.366 216.662 285.124C217.005 286.594 218.092 287.641 219.925 288.246L224.556 290.763C229.469 293.582 235.047 298.354 244.371 287.702L252.687 278.821C255.768 275.64 255.869 275.438 256.292 271.955L256.413 270.988C256.936 266.739 256.614 262.853 254.278 261.604C252.768 260.799 249.325 261.101 245.358 264.625V264.645ZM223.972 288.044L220.549 286.312C218.877 285.749 218.676 284.923 218.616 284.641C218.354 283.513 218.817 280.734 224.858 274.693C228.08 271.471 231.101 271.169 234.584 270.847C238.169 270.505 242.236 270.102 246.707 266.135C249.143 263.98 251.217 263.175 252.547 263.88C254.077 264.685 254.822 267.444 254.419 270.726L254.298 271.693C254.07 273.639 253.057 275.546 251.258 277.412L243.948 285.366C235.712 294.79 228.946 290.884 224.012 288.044H223.972Z" fill="#0E141B"/>
<path d="M610.482 252.502C572.564 211.423 508.045 198.293 465.113 204.657C417.167 211.765 388.029 256.912 381.746 267.585C364.166 236.816 328.121 211.906 289.599 210.295C193.686 206.268 117.507 245.656 90.4634 320.586C89.1948 324.069 90.4433 326.969 92.2959 328.822C98.3974 334.923 114.185 341.488 118.011 341.689C121.837 341.911 123.83 336.877 125.804 334.903C125.764 335.668 125.804 339.394 125.804 340.199C125.804 343.059 126.368 344.811 127.737 346.18C130.133 348.576 165.816 358.806 168.555 359.108C171.294 359.41 174.495 360.497 175.563 358.544C176.892 356.087 177.012 354.335 179.328 350.348C179.207 351.536 179.046 352.745 179.046 353.852C179.046 357.054 177.898 359.41 181.281 360.538C203.332 367.847 207.822 366.196 210.581 365.592C213.32 364.988 214.79 364.686 216.38 361.323C240.484 310.376 278.805 266.115 324.698 261.403C363.179 257.456 381.162 271.31 382.229 271.31C383.296 271.31 411.669 250.287 458.166 269.156C496.305 284.621 510.724 321.109 516.664 337.662C517.751 340.683 518.879 345.193 519.624 346.683C524.679 356.812 567.087 342.737 569.765 340.582C572.444 338.427 568.859 331.5 568.195 327.191C570.692 330.07 572.746 336.716 577.8 337.904C582.854 339.092 618.396 322.217 623.934 319.458C628.203 317.324 623.048 309.349 623.048 309.349C623.048 309.349 626.834 313.981 630.781 312.33C636.6 309.873 643.809 300.106 644.172 296.26C644.836 289.434 636.741 280.896 610.543 252.523L610.482 252.502ZM322.482 257.637C273.751 262.43 234.725 312.652 211.225 360.538C209.05 364.968 187.121 359.43 183.778 357.799C182.49 355.604 183.476 347.731 185.007 341.327C186.537 334.923 185.007 334.621 182.57 338.286C180.134 341.951 174.777 353.55 172.502 354.456C170.226 355.362 132.248 344.69 130.717 343.159C129.187 341.629 128.583 339.555 129.489 332.849C131.644 316.941 128.583 325.459 126.146 328.52C123.71 331.56 120.951 336.152 119.743 337.058C118.514 337.984 92.4368 327.634 93.786 323.687C131.624 214.141 254.943 212.591 292.096 213.759C333.417 215.048 361.427 246.381 374.577 262.933C366.18 258.946 350.433 254.899 322.482 257.657V257.637ZM625.062 306.973C622.363 304.295 619 299.079 614.389 292.213C609.778 285.346 606.415 282.587 610.18 291.206C613.946 299.804 624.639 314.706 621.779 316.156C618.92 317.605 581.264 332.003 578.747 331.983C576.229 331.983 567.872 320.405 565.496 316.115C563.12 311.806 563.301 317.605 564.208 321.915C565.114 326.224 566.926 333.816 566.362 335.568C565.798 337.32 526.35 349.925 523.611 344.448C522.947 343.119 521.839 339.998 520.732 337.098C509.274 306.973 496.084 277.855 454.279 262.329C416.865 248.455 396.526 260.859 386.297 265.894C395.177 251.979 422.282 215.37 465.073 209.027C507.26 202.784 569.604 214.403 606.797 254.677C631.083 280.976 638.715 289.696 639.319 293.26C640.245 298.858 629.049 310.98 625.042 306.953L625.062 306.973Z" fill="#0E141B"/>
<path d="M492.963 222.518C476.511 223.464 462.999 231.177 462.999 236.533C462.999 242.796 505.125 268.974 513.241 264.081C521.658 259.006 513.12 221.35 492.963 222.518ZM493.164 224.169C498.48 223.505 506.072 230.13 510.059 238.929C514.248 248.132 516.12 258.865 510.905 262.127C509.113 263.255 500.977 260.879 487.344 253.025C474.014 245.333 465.858 238.406 465.858 236.775C465.858 232.707 476.551 226.263 493.164 224.189V224.169Z" fill="#0E141B"/>
<path d="M569.061 238.386C563.805 238.386 556.656 240.903 555.367 244.346C554.441 246.843 556.616 250.347 560.563 254.354C572.887 266.839 590.869 274.089 594.111 270.806C596.266 268.611 595.964 262.611 591.332 256.167C585.07 247.447 574.699 238.386 569.061 238.386ZM589.117 257.355C592.782 262.852 593.124 267.464 591.574 269.175C589.842 271.068 555.972 252.884 558.67 245.071C559.576 242.433 564.852 240.581 569 240.581C573.148 240.581 583.016 248.213 589.097 257.335L589.117 257.355Z" fill="#0E141B"/>
<path d="M535.412 276.646C532.693 278.801 531.646 284.198 535.109 291.608C539.62 301.254 544.554 300.509 549.769 299.723L554.783 299.24C562.335 299.24 565.617 297.79 566.08 295.877C566.805 292.957 545.822 277.009 545.822 277.009C542.439 274.391 538.11 274.532 535.412 276.666V276.646ZM536.942 290.762C533.982 284.419 535.291 280.271 537.304 278.68C539.278 277.109 542.137 277.432 544.795 279.486C544.795 279.486 563.221 292.977 563.221 294.689C563.221 294.75 562.617 297.226 554.803 297.226L549.507 297.75C544.292 298.535 540.828 299.059 536.962 290.783L536.942 290.762Z" fill="#0E141B"/>
<path d="M528.364 549.685C530.337 548.839 531.988 549.967 532.472 551.235C533.056 552.766 532.23 554.457 530.76 555.102C529.511 555.645 527.76 555.001 527.176 553.873C526.592 552.746 526.431 550.531 528.364 549.685Z" fill="white"/>
</g>
<defs>
<clipPath id="clip0_42_58309">
<rect width="720" height="663.012" fill="white" transform="translate(40 117)"/>
</clipPath>
</defs>
</svg>
