<svg width="800" height="800" viewBox="0 0 800 800" fill="none" xmlns="http://www.w3.org/2000/svg">
<g clip-path="url(#clip0_42_61013)">
<path d="M648.2 541.863C634.514 543.191 573.568 546.692 549.169 529.526C543.412 525.477 535.968 507.362 535.968 507.362C536.516 506.076 555.179 465.628 556.74 459.006C558.3 452.385 554.146 453.249 550.73 453.713C547.313 454.177 512.581 467.463 512.581 467.463C511.737 465.143 506.781 458.332 506.781 458.332C515.596 449.432 545.015 395.551 546.723 390.659C550.076 381.021 548.6 381.338 539.3 382.455C519.751 384.796 467.346 406.749 467.346 406.749C458.657 396.036 442.925 381.127 438.244 377.605C433.562 374.083 279.743 407.593 279.743 407.593C279.743 407.593 231.008 528.577 286.787 600.278H286.766C286.766 600.278 281.346 639.334 302.097 660.253C302.097 660.253 311.734 666.727 313.949 670.629C316.163 674.509 316.289 683.219 320.128 684.885C323.966 686.551 363.865 693.257 375.211 686.846C386.577 680.435 388.475 658.208 387.906 653.484C400.601 655.424 414.772 656.626 430.568 656.668C535.672 656.964 567.2 640.536 589.49 628.241C620.912 610.885 648.854 575.541 658.576 555.507C665.788 540.661 656.193 541.104 648.221 541.863H648.2Z" fill="#D3EDFB"/>
<path d="M321.266 630.75C322.257 640.092 321.308 654.39 309.836 666.199C311.607 667.739 313.21 669.341 313.948 670.649C316.162 674.529 316.289 683.239 320.127 684.905C323.965 686.571 363.928 693.403 375.21 686.866C389.086 678.831 387.863 653.272 387.863 653.272C390.288 653.652 343.303 646.355 321.287 630.729L321.266 630.75Z" fill="#B7CDDA"/>
<path d="M503.048 531.656C484.828 529.885 437.716 533.744 421.794 603.399C421.794 603.399 416.86 649.055 446.742 678.853C446.742 678.853 450.58 686.972 453.617 689.587C460.365 695.408 471.099 699.436 514.879 693.004C514.879 693.004 531.412 691.232 534.428 683.493C537.443 675.753 532.003 660.717 538.308 646.82C544.613 632.923 559.312 603.842 549.611 573.791C539.911 543.74 528.481 534.102 503.048 531.635V531.656Z" fill="#D3EDFB"/>
<path d="M425.063 636.211C425.063 636.211 429.703 662.045 446.763 678.852C446.763 678.852 450.602 686.971 453.638 689.586C460.387 695.407 471.121 699.434 514.9 693.002C514.9 693.002 531.434 691.231 534.449 683.492C537.465 675.752 532.024 660.716 538.329 646.819C544.635 632.922 559.334 603.841 549.633 573.79C547.06 565.818 544.34 559.302 541.303 553.945C543.032 575.413 542.906 629.147 495.499 645.87C456.274 659.704 425.085 636.169 425.085 636.169L425.063 636.211Z" fill="#B7CDDA"/>
<path d="M571.354 150.988C569.962 149.069 559.481 145.231 551.446 138.061C543.412 130.891 544.635 123.911 544.993 118.681C545.352 113.451 560.008 103.835 560.008 103.835C559.65 93.8809 556.002 92.3203 556.002 92.3203C497.207 101.325 464.541 118.28 464.541 118.28C466.017 114.358 467.283 108.875 466.523 106.618C465.174 102.675 456.907 101.873 454.039 103.877C438.94 114.4 417.408 188.779 413.359 225.051C377.024 187.556 289.591 197.678 266.542 222.562C257.895 190.044 234.382 121.465 216.267 99.6169C213.757 96.6013 205.786 98.5414 203.993 102.063C203.276 103.476 208.506 114.716 210.109 117.964C210.109 117.964 150.597 86.6897 106.227 93.5856C106.227 93.5856 96.3159 96.306 100.344 109.971C100.344 109.971 121.749 121.275 121.601 127.897C121.453 134.518 115.991 146.602 104.646 152.633C104.646 152.633 95.7465 157.948 106.523 167.142C106.523 167.142 117.721 171.318 118.88 177.623C120.019 183.95 126.346 240.256 136.257 254.322C146.085 268.282 156.27 285.554 235.5 292.85C229.974 315.099 210.468 367.672 255.681 393.653C274.302 404.345 298.744 421.511 337.61 418.558C384.046 415.058 420.424 398.672 438.708 377.668C461.125 351.94 450.159 324.314 440.753 289.708C474.094 282.58 508.489 272.922 529.62 257.97C551.109 242.765 550.751 215.709 551.088 197.193C551.446 178.656 554.589 176.273 556.318 173.637C558.068 171.022 569.245 167.522 571.333 165.265C573.421 162.988 572.725 152.865 571.333 150.946L571.354 150.988Z" fill="#D3EDFB"/>
<path d="M150.998 247.616C162.744 263.327 182.61 278.236 237.946 282.855C237.946 282.855 243.07 262.019 245.348 256.599C248.11 250.041 256.967 233.571 256.967 233.571C252.94 208.918 192.669 128.297 157.557 131.123C131.555 133.232 135.793 227.287 150.998 247.616Z" fill="#006D94"/>
<path d="M422.596 240.678C424.832 215.519 460.408 138.757 509.67 128.783C539.426 122.751 538.055 216.405 527.321 234.478C517.768 250.547 480.969 272.774 437.063 277.182C437.063 277.182 422.491 241.922 422.596 240.678Z" fill="#006D94"/>
<path d="M280.776 406.855C280.776 406.855 247.309 424.928 244.947 467.569C244.947 467.569 229.194 517.949 214.981 532.753C214.981 532.753 197.772 549.793 217.216 566.178C236.681 582.543 266.225 557.469 266.225 557.469C266.225 557.469 258.296 528.978 260.785 494.182C263.273 459.365 278.541 405.801 280.776 406.855Z" fill="#D3EDFB"/>
<path d="M422.322 612.403C422.385 580.137 441.512 559.977 441.512 559.977C431.811 537.623 410.259 507.024 410.259 507.024C362.451 444.201 337.947 438.908 306.441 438.971C279.279 439.013 265.318 459.09 265.318 459.09C257.262 500.613 254.479 558.732 286.807 600.319C314.707 637.624 367.196 656.498 432.739 656.688C432.739 656.688 422.279 639.543 422.322 612.424V612.403Z" fill="#EFEFEF"/>
<path d="M456.548 512.107C471.183 498.399 473.651 459.28 472.934 452.237C472.196 444.919 473.06 428.217 432.718 418.917C397.29 410.756 385.543 437.032 378.183 455.4C370.845 473.768 382.338 487.201 382.338 487.201C382.338 487.201 358.339 537.708 349.524 550.045C340.709 562.381 341.342 572.314 351.928 582.542C362.515 592.77 379.407 601.732 389.318 593.318C399.23 584.904 433.52 549.728 446.721 515.649C446.721 515.649 453.301 515.101 456.527 512.085L456.548 512.107Z" fill="#D3EDFB"/>
<path d="M503.049 570.269C498.704 575.014 503.766 590.915 509.565 602.978C515.174 614.682 519.898 620.523 525.782 620.882C532.362 621.282 538.414 615.272 541.05 611.202C543.897 606.816 545.162 602.071 545.5 594.416C545.837 586.782 545.289 577.629 537.676 571.872C530.843 566.705 509.565 563.142 503.049 570.248V570.269Z" fill="#006D94"/>
<path d="M498.958 634.461C497.903 636.992 503.049 651.374 507.077 651.374C510.62 651.374 515.786 637.477 514.479 634.546C512.728 630.623 500.265 631.277 498.958 634.44V634.461Z" fill="#006D94"/>
<path d="M498.768 520.31C497.988 524.612 503.513 535.325 506.697 535.494C510.071 535.683 517.031 525.266 517.031 521.976C517.031 518.939 513.066 514.447 508.553 514.173C503.892 513.899 499.422 516.641 498.768 520.31Z" fill="#006D94"/>
<path d="M334.257 582.563C332.971 580.159 339.044 570.69 342.418 570.416C345.792 570.142 352.984 579.927 351.95 582.563C351.149 584.608 336.007 585.853 334.257 582.563Z" fill="#EFEFEF"/>
<path d="M354.754 582.943C351.022 583.997 347.12 597.768 349.545 599.877C351.865 601.901 367.913 595.765 368.272 591.863C368.694 587.329 358.824 581.783 354.754 582.943Z" fill="#EFEFEF"/>
<path d="M367.85 593.655C365.573 596.439 368.736 608.101 371.899 608.607C375.062 609.113 384.763 598.231 383.856 595.11C382.865 591.673 370.086 590.956 367.85 593.655Z" fill="#EFEFEF"/>
<path d="M209.54 554.156C206.398 555.021 204.226 565.755 205.997 567.294C207.768 568.834 219.831 563.098 220.295 560.23C220.78 557.362 213.821 552.954 209.54 554.156Z" fill="#EFEFEF"/>
<path d="M234.741 564.448C234.129 561.095 224.597 556.835 221.455 558.712C218.946 560.209 219.642 575.878 221.877 576.7C224.112 577.502 235.163 566.767 234.741 564.448Z" fill="#EFEFEF"/>
<path d="M220.105 560.758C218.038 563.584 212.851 565.587 212.851 565.587C212.977 569.172 213.778 573.685 215.634 574.128C217.427 574.571 220.337 572.842 220.232 572.314C219.515 568.624 220.105 560.758 220.105 560.758Z" fill="#EFEFEF"/>
<path d="M460.556 707.279C465.49 709.177 499.211 697.958 499.358 691.821C499.506 685.685 488.603 681.994 481.265 681.256C474.01 680.518 463.086 682.922 458.953 687.815C455.431 691.99 455.558 705.36 460.556 707.279Z" fill="#EFEFEF"/>
<path d="M511.168 683.493C514.837 683.24 522.682 685.328 523.441 688.913C524.095 691.95 521.058 702.431 517.6 702.895C513.888 703.38 500.771 695.893 500.265 690.305C499.78 684.738 507.435 683.746 511.147 683.493H511.168Z" fill="#EFEFEF"/>
<path d="M448.514 681.785C448.514 681.785 436.178 693.152 439.151 699.267C440.543 702.114 456.633 699.246 458.173 695.282C459.501 691.844 451.804 683.029 448.535 681.785H448.514Z" fill="#EFEFEF"/>
<path d="M325.378 676.534C316.395 676.956 306.947 688.175 308.465 691.929C309.857 695.408 321.603 693.784 330.25 692.772C341.068 691.507 345.813 686.868 344.969 684.126C343.978 680.942 334.489 676.091 325.378 676.534Z" fill="#EFEFEF"/>
<path d="M319.473 678.199C308.191 675.437 297.731 684.463 298.301 687.057C299.018 690.367 305.45 689.882 308.318 689.608L319.494 678.221L319.473 678.199Z" fill="#EFEFEF"/>
<path d="M351.338 678.98C357.032 677.884 365.32 683.852 365.32 687.141C365.32 691.106 343.472 697.496 340.9 694.459C338.453 691.549 345.623 680.077 351.338 678.98Z" fill="#EFEFEF"/>
<path d="M422.596 240.678C422.596 240.678 436.198 277.351 437.062 277.182C451.023 274.462 494.613 249.789 500.222 229.776C505.937 209.341 497.017 170.665 487.126 171.171C477.257 171.677 442.103 202.635 422.596 240.678Z" fill="#66AADD"/>
<path d="M255.512 234.351C249.881 242.934 243.703 264.782 237.945 282.855C237.355 284.71 184.824 264.993 173.309 240.045C166.962 226.295 169.872 172.267 185.161 174.734C219.852 180.302 259.266 228.657 255.512 234.372V234.351Z" fill="#66AADD"/>
<path d="M488.561 431.549C519.877 415.817 547.671 382.477 547.671 382.477C553.197 388.529 508.447 460.694 506.802 458.353C504.778 455.464 488.561 431.57 488.561 431.57V431.549Z" fill="#B7CDDA"/>
<path d="M523.251 484.692C545.731 472.06 556.36 454.24 556.36 454.24C561.126 456.56 540.902 499.475 535.967 507.362L523.251 484.692Z" fill="#B7CDDA"/>
<path d="M552.838 602.155C552.838 602.155 610.452 595.533 658.554 555.486C658.554 555.486 626.036 628.136 537.338 649.246C537.338 649.246 550.244 620.186 551.91 610.865C553.175 603.758 552.838 602.155 552.838 602.155Z" fill="#B7CDDA"/>
<path d="M209.54 554.156C206.398 555.021 204.226 565.755 205.997 567.294C207.768 568.834 219.831 563.098 220.295 560.23C220.78 557.362 213.821 552.954 209.54 554.156Z" fill="#EFEFEF"/>
<path d="M234.741 564.448C234.129 561.095 224.597 556.835 221.455 558.712C218.946 560.209 219.642 575.878 221.877 576.7C224.112 577.502 235.163 566.767 234.741 564.448Z" fill="#EFEFEF"/>
<path d="M220.105 560.758C218.038 563.584 212.851 565.587 212.851 565.587C212.977 569.172 213.778 573.685 215.634 574.128C217.427 574.571 220.337 572.842 220.232 572.314C219.515 568.624 220.105 560.758 220.105 560.758Z" fill="#C9CACA"/>
<path d="M460.556 707.279C465.49 709.177 499.211 697.958 499.358 691.821C499.506 685.685 488.603 681.994 481.265 681.256C474.01 680.518 463.086 682.922 458.953 687.815C455.431 691.99 455.558 705.36 460.556 707.279Z" fill="#EFEFEF"/>
<path d="M511.168 683.493C514.837 683.24 522.682 685.328 523.441 688.913C524.095 691.95 521.058 702.431 517.6 702.895C513.888 703.38 500.771 695.893 500.265 690.305C499.78 684.738 507.435 683.746 511.147 683.493H511.168Z" fill="#C9CACA"/>
<path d="M448.514 681.785C448.514 681.785 436.178 693.152 439.151 699.267C440.543 702.114 456.633 699.246 458.173 695.282C459.501 691.844 451.804 683.029 448.535 681.785H448.514Z" fill="#EFEFEF"/>
<path d="M325.378 676.534C316.395 676.956 306.947 688.175 308.465 691.929C309.857 695.408 321.603 693.784 330.25 692.772C341.068 691.507 345.813 686.868 344.969 684.126C343.978 680.942 334.489 676.091 325.378 676.534Z" fill="#EFEFEF"/>
<path d="M319.473 678.199C308.191 675.437 297.731 684.463 298.301 687.057C299.018 690.367 305.45 689.882 308.318 689.608L319.494 678.221L319.473 678.199Z" fill="#EFEFEF"/>
<path d="M351.338 678.98C357.032 677.884 365.32 683.852 365.32 687.141C365.32 691.106 343.472 697.496 340.9 694.459C338.453 691.549 345.623 680.077 351.338 678.98Z" fill="#EFEFEF"/>
<path d="M432.634 542.496C417.05 566.516 396.637 587.161 389.34 593.34C387.674 594.753 385.818 595.639 383.815 596.145C383.034 600.11 374.747 609.072 371.879 608.629C368.715 608.123 365.552 596.482 367.851 593.678C367.703 593.614 367.577 593.551 367.45 593.488C364.076 597.242 351.592 601.691 349.567 599.92C348.934 599.372 348.745 598.001 348.85 596.293C312.409 599.793 281.768 586.044 275.8 583.133C278.9 589.102 282.548 594.88 286.808 600.342C314.708 637.647 366.354 656.521 431.917 656.69C431.917 656.69 422.744 639.988 421.816 612.699C420.762 581.657 441.534 560.021 441.534 560.021C439.13 554.495 436.009 548.485 432.656 542.538L432.634 542.496Z" fill="#C9CACA"/>
<path d="M440.816 491.081C441.133 528.576 367.429 593.444 367.429 593.444C375.337 597.198 383.54 598.231 389.34 593.318C399.251 584.903 433.541 549.728 446.742 515.649C446.742 515.649 453.322 515.101 456.548 512.085C471.184 498.377 473.651 459.258 472.934 452.215C466.228 494.687 440.816 491.06 440.816 491.06V491.081Z" fill="#B7CDDA"/>
<path d="M334.257 582.563C332.971 580.159 339.044 570.69 342.418 570.416C345.792 570.142 352.984 579.927 351.95 582.563C351.149 584.608 336.007 585.853 334.257 582.563Z" fill="#EFEFEF"/>
<path d="M354.754 582.943C351.022 583.997 347.12 597.768 349.545 599.877C351.865 601.901 367.913 595.765 368.272 591.863C368.694 587.329 358.824 581.783 354.754 582.943Z" fill="#EFEFEF"/>
<path d="M367.85 593.655C365.573 596.439 368.736 608.101 371.899 608.607C375.062 609.113 384.763 598.231 383.856 595.11C382.865 591.673 370.086 590.956 367.85 593.655Z" fill="#EFEFEF"/>
<path d="M472.955 452.236C473.651 459.279 471.205 498.399 456.569 512.106C453.343 515.122 446.763 515.67 446.763 515.67C443.178 524.928 438.012 534.249 432.233 543.106C432.381 542.895 432.508 542.684 432.655 542.473C435.84 548.146 438.813 553.861 441.175 559.175C446.447 552.258 452.183 546.965 458.067 542.979C474.98 524.422 484.638 489.837 472.997 452.215L472.955 452.236Z" fill="#B7CDDA"/>
<path d="M438.243 377.625C448.197 366.195 450.116 359.404 451.234 349.113C444.696 350.927 442.651 354.322 440.015 355.672C436.662 357.38 419.327 361.703 414.413 363.812C409.5 365.921 397.058 380.978 393.304 381.358C389.55 381.737 377.171 371.13 371.773 371.256C366.374 371.362 345.918 388.696 337.061 388.696C328.204 388.696 308.318 374.23 303.109 374.04C297.9 373.85 287.651 382.454 287.651 382.454C287.651 382.454 283.771 385.449 279.975 380.598C276.179 375.748 252.18 360.881 246.76 361.028C241.341 361.176 237.756 355.334 237.756 355.334C236.026 353.521 229.088 349.409 227.654 349.24C227.654 364.445 232.547 379.502 255.196 393.61C262.05 397.87 270.147 403.057 279.743 407.613C279.743 407.613 276.137 413.728 270.886 435.112C274.597 441.143 293.303 450.633 314.264 450.633C340.941 450.633 374.62 441.122 398.829 423.429C403.047 420.35 440.542 394.032 451.635 389.814C445.898 384.162 440.647 379.417 438.243 377.625Z" fill="#B7CDDA"/>
<path d="M432.255 359.132C433.499 359.722 429.092 380.03 424.958 380.6C420.909 381.169 416.544 362.843 416.544 362.843C416.544 362.843 431.453 358.731 432.255 359.111V359.132Z" fill="white"/>
<path d="M247.478 360.861C246.044 361.578 250.979 386.926 255.196 386.926C258.866 386.926 263.758 372.776 263.758 370.878C263.758 368.875 248.701 360.249 247.457 360.861H247.478Z" fill="white"/>
<path d="M262.324 537.055C254.289 549.265 240.645 557.806 232.926 561.96C233.896 562.783 234.571 563.626 234.719 564.449C234.93 565.566 232.441 568.645 229.573 571.45C247.161 573.559 266.225 557.468 266.225 557.468C266.225 557.468 264.032 549.581 262.324 537.076V537.055Z" fill="#B7CDDA"/>
<path d="M315.783 321.257C315.783 321.257 323.628 309.891 340.246 309.891C356.863 309.891 362.684 321.51 362.684 321.51C345.644 313.244 333.793 313.244 315.783 321.257Z" fill="#B7CDDA"/>
<path d="M427.362 253.372C427.362 253.372 456.907 191.372 530.19 150.714C526.436 136.395 519.877 126.715 509.67 128.782C460.408 138.756 424.832 215.518 422.596 240.677C422.554 241.162 424.705 246.729 427.362 253.372Z" fill="#005F82"/>
<path d="M493.116 175.578C491.239 172.71 489.194 171.044 487.106 171.149C477.236 171.655 442.082 202.613 422.575 240.657C422.575 240.657 424.705 246.414 427.341 253.352C427.341 253.352 446.764 212.63 493.116 175.557V175.578Z" fill="#5893C0"/>
<path d="M157.557 131.123C149.649 131.756 144.545 140.908 141.698 153.878C187.017 170.748 236.659 225.789 251.295 242.787C253.235 239.328 256.968 233.571 256.968 233.571C252.94 208.918 192.669 128.297 157.557 131.123Z" fill="#005F82"/>
<path d="M185.162 174.712C183.369 174.417 181.767 174.944 180.312 176.04C214.011 200.862 240.646 230.449 251.295 242.785C252.497 240.55 256.335 233.021 256.335 233.021C245.665 215.328 212.661 179.119 185.162 174.712Z" fill="#5893C0"/>
<path d="M263.779 370.878C264.116 369.612 253.551 363.033 253.909 363.623C256.756 368.41 256.946 381.654 255.196 386.905C254.985 387.517 260.32 383.953 263.758 370.857L263.779 370.878Z" fill="#DCDDDD"/>
<path d="M432.255 359.131C431.791 358.92 428.1 358.203 423.861 359.89C426.286 363.855 426.835 372.459 425.169 379.418C425.021 380.051 426.729 378.975 427.362 378.068C427.489 377.858 427.615 377.605 427.721 377.351C430.778 370.983 433.182 359.616 432.233 359.152L432.255 359.131Z" fill="#DCDDDD"/>
<path d="M220.294 560.231C220.526 558.902 219.134 557.236 217.173 555.971C213.398 560.758 207.958 564.048 205.385 565.439C205.448 566.325 205.638 567 205.996 567.316C207.747 568.856 219.83 563.12 220.294 560.252V560.231Z" fill="#C9CACA"/>
<path d="M234.74 564.448C234.53 563.267 233.18 561.96 231.387 560.863L230.544 560.758C230.544 560.758 227.296 566.156 220.316 571.639C220.274 571.682 220.232 571.724 220.189 571.745C220.527 574.36 221.117 576.405 221.877 576.68C224.112 577.481 235.162 566.747 234.74 564.427V564.448Z" fill="#C9CACA"/>
<path d="M363.59 585.537C361.165 588.975 356.209 594.858 348.892 598.338C348.997 599.034 349.208 599.582 349.545 599.877C351.865 601.902 367.913 595.765 368.272 591.864C368.462 589.713 366.311 587.309 363.59 585.537Z" fill="#C9CACA"/>
<path d="M383.835 595.11C383.413 593.613 380.756 592.642 377.719 592.221C376.981 594.941 374.598 602.807 370.528 607.742C370.971 608.206 371.414 608.522 371.857 608.585C375.02 609.091 384.721 598.21 383.814 595.089L383.835 595.11Z" fill="#C9CACA"/>
<path d="M351.949 582.562C352.35 581.529 351.507 579.42 350.115 577.248C346.973 578.914 341.574 581.192 334.172 582.288C334.193 582.373 334.214 582.478 334.256 582.562C336.007 585.852 351.148 584.608 351.949 582.562Z" fill="#C9CACA"/>
<path d="M326.855 676.512C327.509 678.346 329.048 686.128 312.62 693.889C317.133 694.416 324.409 693.446 330.25 692.771C341.068 691.506 345.813 686.866 344.97 684.125C344.042 681.109 335.501 676.617 326.855 676.512Z" fill="#C9CACA"/>
<path d="M364.645 685.307C363.422 683.367 360.638 681.195 357.58 679.929L354.628 679.803C354.628 679.803 352.92 687.753 340.899 694.459C343.198 697.18 360.997 692.329 364.645 688.449V685.307Z" fill="#C9CACA"/>
<path d="M467.009 706.879C478.312 704.623 499.232 696.651 499.358 691.822C499.506 685.685 488.603 681.995 481.265 681.257C478.586 680.983 475.423 681.151 472.302 681.679C477.11 686.445 483.584 696.546 467.03 706.879H467.009Z" fill="#C9CACA"/>
<path d="M457.94 692.581C457.055 690.092 454.714 686.992 452.415 684.715C452.415 684.715 450.96 693.445 439.108 699.118C439.129 699.16 439.129 699.224 439.151 699.266C440.437 701.881 454.208 699.645 457.54 696.166L457.94 692.581Z" fill="#C9CACA"/>
<path d="M440.458 288.864C461.441 283.845 492.757 276.337 513.53 266.932C503.745 268.535 492.209 267.543 482.192 266.004C465.933 271.866 457.561 275.283 437.653 278.193C437.653 278.277 439.931 287.177 440.479 288.843L440.458 288.864Z" fill="#B7CDDA"/>
<path d="M237.945 282.854C214.706 280.914 200.872 277.687 187.333 272.689C177.042 275.136 164.769 274.419 154.941 273.196C168.607 281.673 190.328 288.717 235.499 292.892C235.056 294.643 237.945 282.875 237.945 282.875V282.854Z" fill="#B7CDDA"/>
<path d="M545.499 594.437C545.752 588.342 545.478 581.299 541.471 575.773C540.522 589.945 537.169 606.71 527.933 620.818C533.648 620.017 538.709 614.85 541.05 611.244C543.897 606.858 545.162 602.113 545.499 594.458V594.437Z" fill="#005F82"/>
<path d="M507.097 651.374C510.366 651.374 515.005 639.522 514.689 635.41C510.724 638.573 506.212 641.357 501.045 643.677C502.711 647.663 505.052 651.374 507.097 651.374Z" fill="#005F82"/>
<path d="M314.244 450.635C324.387 450.635 335.543 449.264 346.825 446.586C332.97 439.964 320.402 438.952 306.42 438.973C297.415 438.973 289.865 441.208 283.792 444.161C291.848 447.767 302.708 450.656 314.244 450.656V450.635Z" fill="#C9CACA"/>
<path d="M254.016 283.486C249.608 290.994 252.223 322.732 256.082 325.98C259.056 328.489 297.12 324.44 297.395 320.18C298.112 308.982 256.251 279.648 254.016 283.486Z" fill="white"/>
<path d="M254.015 283.486C252.898 286.692 252.265 290.867 251.97 295.338C267.385 300.652 286.302 309.72 297.352 320.243C297.352 320.243 297.394 320.201 297.394 320.18C298.09 316.89 280.924 291.901 254.015 283.486Z" fill="#DCDDDD"/>
<path d="M382.529 321.403C382.93 325.03 422.449 329.142 424.179 327.413C426.287 325.304 431.56 307.59 425.95 285.215C401.53 294.325 382.086 317.354 382.529 321.382V321.403Z" fill="white"/>
<path d="M425.95 285.215C401.53 294.325 382.086 317.354 382.529 321.382C382.571 321.782 383.119 322.183 384.005 322.584C394.634 310.922 413.065 298.522 427.7 294.22C427.3 291.33 426.751 288.315 425.971 285.215H425.95Z" fill="#DCDDDD"/>
<path d="M414.162 327.223C419.413 317.249 420.804 298.817 418.97 287.493C418.569 284.983 389.277 308.37 389.319 310.943C389.362 314.781 390.606 322.183 392.145 324.608L414.183 327.223H414.162Z" fill="#CA0537"/>
<path d="M289.866 323.849C291.005 321.635 293.198 311.112 291.089 308.961C274.239 291.731 261.818 286.375 261.818 286.375C259.435 299.513 261.207 316.911 266.142 326.38L289.866 323.87V323.849Z" fill="#CA0537"/>
<path d="M389.319 310.943C389.319 312.483 389.551 314.612 389.91 316.742C398.43 309.066 409.459 301.727 419.75 297.193C419.708 293.672 419.455 290.361 418.991 287.493C418.59 284.983 389.298 308.37 389.319 310.943Z" fill="#AB002C"/>
<path d="M401.866 303.457C398.682 303.457 395.94 306.304 395.94 310.058C395.94 313.811 398.935 316.321 401.571 316.321C404.713 316.321 407.666 314.17 407.666 310.311C407.666 306.641 405.493 303.478 401.866 303.478V303.457Z" fill="white"/>
<path d="M291.09 308.961C274.24 291.731 261.819 286.375 261.819 286.375C261.123 290.213 260.828 294.431 260.807 298.691C271.625 303.077 283.034 308.919 291.764 315.561C292.081 312.693 292.039 309.952 291.09 308.982V308.961Z" fill="#AB002C"/>
<path d="M278.289 301.98C275.147 301.896 272.511 304.616 272.511 308.897C272.511 312.757 275.463 314.971 278.162 314.971C281.389 314.971 283.983 312.567 283.983 308.94C283.983 304.49 280.777 302.044 278.289 301.98Z" fill="white"/>
<path d="M360.364 322.057C347.037 315.288 333.877 315.836 319.39 321.34C313.169 323.702 312.494 321.931 317.956 318.831C331.515 311.155 349.04 310.353 362.389 320.075C366.733 323.238 365.299 324.567 360.364 322.057Z" fill="#0E141B"/>
<path d="M411.483 227.159C374.62 194.536 304.501 194.578 267.027 223.342L265.403 217.543C303.468 189.369 376.075 191.267 411.736 220.854L411.483 227.181V227.159Z" fill="#0E141B"/>
<path d="M337.315 390.68C328.964 390.68 304.733 376.298 303.131 376.129C301.19 375.961 287.926 386.062 283.771 385.471C278.794 384.775 257.854 367.631 250.346 364.678C242.965 361.789 240.751 362.401 237.883 357.909C235.563 354.303 236.997 352.89 240.793 356.686C241.658 357.55 244.589 358.331 251.084 360.376C259.752 363.118 281.536 381.359 284.151 381.591C285.627 381.718 299.208 371.574 302.941 371.658C305.83 371.722 329.85 385.999 337.294 385.999C344.738 385.999 368.779 369.191 371.837 369.191C376.286 369.191 391.618 379.482 393.368 379.166C395.013 378.85 409.437 364.109 415.89 361.051C422.976 357.698 434.891 357.782 439.235 354.703C444.782 350.19 445.794 351.814 441.998 356.728C438.455 361.325 421.205 362.654 417.767 364.72C414.456 366.724 397.058 382.646 394.106 383.088C391.154 383.531 374.409 373.324 371.963 373.81C369.77 374.295 346.32 390.659 337.315 390.659V390.68Z" fill="#0E141B"/>
<path d="M255.639 388.086C250.62 388.086 244.715 372.101 245.39 360.84L249.671 361.156C249.207 372.586 253.235 383.868 255.428 383.974C257.368 384.058 260.911 373.851 261.417 367.947L264.939 371.764C263.652 376.994 259.878 388.086 255.66 388.086H255.639Z" fill="#0E141B"/>
<path d="M410.28 231.125C410.976 192.955 435.059 122.815 451.107 102.191C454.165 98.2682 468.78 101.263 468.78 105.227C468.78 112.334 463.022 125.283 458.805 134.203C456.38 139.327 453.954 138.315 455.768 133.549C461.399 118.703 464.71 107.948 463.824 106.64C462.411 105.164 457.434 104.342 454.798 105.881C445.097 112.102 417.682 188.042 413.338 231.737C412.642 238.612 410.175 237.853 410.301 231.125H410.28Z" fill="#0E141B"/>
<path d="M439.889 285.849C528.017 266.722 546.617 251.749 547.397 203.098C547.693 185.342 549.527 177.328 553.028 172.71C556.529 168.091 567.284 164.422 568.697 162.798C570.553 160.668 570.025 154.637 569.055 153.224C568.022 151.727 553.239 144.704 547.06 137.619C541.957 131.756 540.248 124.881 540.818 119.124C541.472 112.544 556.402 103.287 557.499 101.346C558.089 100.292 556.845 95.2097 555.875 94.9566C553.344 94.3872 489.953 104.784 462.896 121.844L465.174 114.927C490.058 102.19 532.889 92.0464 555.39 90.0008C561.105 89.558 563.762 100.967 560.978 105.796C560.304 106.956 546.997 114.653 546.027 120.6C546.027 126.083 547.967 130.533 550.856 134.202C556.697 141.667 571.017 148.078 572.577 149.449C574.454 151.094 575.192 164.949 572.577 167.079C570.742 168.576 561.274 171.55 557.351 176.379C553.935 180.597 552.88 186.923 552.627 203.098C551.742 259.046 523.947 271.34 441.259 290.425L439.889 285.849Z" fill="#0E141B"/>
<path d="M436.683 276.654C460.408 269.189 486.663 247.299 495.372 234.603C504.44 221.381 495.857 174.544 487.064 173.911C477.152 173.194 437.78 212.355 424.178 237.935C420.762 244.367 418.568 243.798 421.141 237.324C431.622 210.963 473.209 168.238 488.139 168.786C500.687 169.25 509.67 217.332 500.645 234.54C492.821 249.471 463.55 271.698 438.328 280.26L436.683 276.633V276.654Z" fill="#0E141B"/>
<path d="M545.69 384.458C548.684 388.486 516.588 441.924 505.369 455.126L509.46 459.027C521.227 445.172 556.381 386.209 550.582 380.009C544.192 373.176 475.781 398.208 467.367 404.513L470.741 408.183C479.409 402.405 542.358 380.81 545.711 384.458H545.69Z" fill="#0E141B"/>
<path d="M534.703 504.41C546.407 478.619 556.445 458.015 554.484 455.59C552.08 453.271 533.965 460.947 514.205 469.635L511.273 465.692C531.139 456.961 553.872 448.251 558.301 451.752C562.771 455.295 552.754 477.691 537.782 509.239L534.703 504.41Z" fill="#0E141B"/>
<path d="M446.742 518.559L447.206 513.266C449.294 513.203 452.014 512.633 454.671 510.103C469.075 496.458 471.395 456.095 470.783 447.28C470.298 440.258 472.154 440.173 474.136 446.774C476.772 455.568 473.293 500.971 457.476 514.658C454.461 517.273 449.884 518.538 446.742 518.538V518.559Z" fill="#0E141B"/>
<path d="M648.538 539.227C598.875 543.107 556.044 538.868 546.597 522.525C539.532 510.293 502.29 429.968 440.205 375.496L436.895 379.102C500.286 436.927 523.463 491.377 541.156 523.474C551.236 541.736 585.779 547.683 650.436 544.541C658.197 544.161 659.736 546.671 656.488 553.461C636.581 595.153 593.792 630.687 539.173 646.377L537.782 651.776C594.32 638.954 641.874 597.157 660.98 556.54C668.277 541.04 664.46 537.961 648.496 539.206L648.538 539.227Z" fill="#0E141B"/>
<path d="M432.128 654.2C322.489 652.091 266.478 606.14 262.43 519.108C260.721 482.646 270.57 437.495 280.882 408.035L277.508 406.77C266.204 436.504 255.871 481.992 257.621 519.572C262.092 615.376 324.535 656.899 434.132 658.713L432.128 654.2Z" fill="#0E141B"/>
<path d="M379.85 487.56C369.896 473.874 372.447 458.247 382.127 440.364C388.432 428.702 395.476 423.704 401.128 421.216C405.598 419.234 407.138 420.393 402.477 423.493C397.817 426.615 392.924 430.727 386.767 442.093C378.057 458.142 375.948 469.213 382.317 481.74L379.85 487.56Z" fill="#0E141B"/>
<path d="M387.21 480.811C391.196 471.764 400.158 472.502 404.798 472.966C408.277 473.325 408.53 472.06 405.304 471.047C399.167 469.107 387.126 468.707 382.992 479.04C370.065 511.326 363.19 521.765 343.599 555.296C340.689 560.273 340.246 565.566 340.816 570.543C340.879 570.543 345.792 570.142 345.792 570.142C345.898 565.502 345.961 561.453 348.576 557.046C368.315 523.832 373.397 512.149 387.21 480.811Z" fill="#0E141B"/>
<path d="M429.851 480.557C426.055 478.912 424.705 479.65 427.805 482.139C438.602 489.372 446.047 498.736 445.477 509.301C444.486 528.365 401.908 585.325 383.562 593.402L384.173 598.104C401.487 592.431 447.586 532.793 449.821 509.174C450.581 499.769 442.947 487.495 429.851 480.536V480.557Z" fill="#0E141B"/>
<path d="M243.387 469.044C239.232 449.495 261.417 411.662 278.689 405.23L277.044 411.473C263.737 418.263 247.141 448.462 247.373 465.227L243.366 469.044H243.387Z" fill="#0E141B"/>
<path d="M332.296 583.491C330.967 580.454 337.884 568.391 342.123 567.906C348.07 567.252 355.894 581.74 353.764 584.039C351.402 586.57 333.877 587.118 332.296 583.491ZM335.986 581.572C336.513 583.048 349.082 582.837 349.546 581.15C349.883 579.21 345.033 572.82 342.903 572.82C340.562 572.82 335.628 579.863 335.986 581.572Z" fill="#0E141B"/>
<path d="M348.407 601.459C345.371 598.57 347.437 584.968 353.047 581.235C359.078 577.229 372.005 587.372 370.93 592.497C369.896 597.495 351.486 604.391 348.386 601.459H348.407ZM355.24 585.305C351.781 586.571 350.031 597.579 351.043 598.169C352.203 598.823 365.299 593.973 365.552 591.379C365.89 588.068 358.53 584.082 355.219 585.305H355.24Z" fill="#0E141B"/>
<path d="M371.667 610.063C368.146 609.767 364.076 598.337 365.763 593.571C367.218 589.48 384.363 588.067 386.029 594.668C387.02 598.59 376.033 610.421 371.667 610.063ZM369.559 595.132C368.061 596.608 370.74 606.499 372.532 606.499C374.578 606.499 381.452 598.169 381.263 595.849C380.988 593.677 371.562 593.635 369.559 595.132Z" fill="#0E141B"/>
<path d="M338.495 694.502C337.061 691.823 342.671 677.399 352.034 676.808C359.984 676.302 367.154 684.189 367.154 687.542C367.154 692.161 341.658 700.427 338.495 694.502ZM352.329 681.026C347.69 681.638 341.911 691.043 342.966 692.456C344.337 693.995 362.156 689.419 362.156 687.289C362.156 685.138 357.074 680.393 352.329 681.026Z" fill="#0E141B"/>
<path d="M341.132 686.824C331.452 691.316 312.009 691.99 310.744 690.62C309.816 689.144 317.745 679.063 325.105 678.684C332.507 678.304 337.294 680.392 341.722 685.01L345.371 681.109C341.448 676.786 332.929 673.116 324.071 674.487C311.165 676.469 303.869 689.439 306.589 693.488C308.909 696.946 332.359 695.892 340.288 692.222L341.132 686.803V686.824Z" fill="#0E141B"/>
<path d="M308.761 687.605C305.724 687.521 300.515 687.753 300.452 686.846C300.241 685.834 306.336 679.718 315.151 679.318L320.127 675.711C320.127 675.711 320.085 675.69 320.064 675.69C307.242 673.919 295.496 683.219 296.298 687.479C296.783 690.031 301.886 692.224 308.908 691.338L308.761 687.626V687.605Z" fill="#0E141B"/>
<path d="M544.298 556.202C539.574 547.471 536.579 547.998 541.282 558.226C555.918 590.091 552.164 613.162 538.794 639.332C533.205 650.277 531.476 661.201 532.552 679.738C532.868 685.221 529.452 686.317 524.559 688.489L523.441 694.626C529.684 693.023 537.992 687.604 537.697 681.277C536.811 662.234 537.17 654.474 543.412 640.977C554.231 617.632 563.193 591.187 544.298 556.223V556.202Z" fill="#0E141B"/>
<path d="M458.953 690.346C455.642 689.038 455.578 688.68 453.807 685.369C450.897 679.97 445.857 673.897 442.736 669.637C432.465 655.655 424.789 636.844 424.684 612.825C424.6 592.158 432.17 569.678 454.123 548.568C461.694 541.293 458.889 539.184 451.023 545.996C426.772 566.957 418.821 590.682 418.821 612.825C418.821 637.772 426.35 657.3 438.476 672.104C441.787 676.153 446.531 682.691 449.252 687.499C451.129 690.831 452.289 693.235 457.16 694.859C457.16 694.859 458.847 690.451 458.974 690.325L458.953 690.346Z" fill="#0E141B"/>
<path d="M460.302 709.875C454.102 708.124 452.942 696.146 454.376 691.549C457.012 683.134 464.899 678.854 477.827 678.854C489.003 678.854 501.91 683.198 501.91 691.232C501.91 700.068 465.363 711.288 460.281 709.875H460.302ZM479.408 683.556C470.129 683.071 463.318 686.087 460.661 690.283C458.067 694.375 458.594 703.485 461.272 704.666C466.586 707.028 496.279 695.26 496.279 690.937C496.279 688.976 489.404 684.126 479.408 683.556Z" fill="#0E141B"/>
<path d="M517.789 704.749C514.014 705.34 497.818 697.031 497.818 690.451C497.818 683.872 506.591 681.552 510.851 681.299C515.237 681.025 523.863 682.944 525.571 687.942C526.941 691.97 521.29 703.821 517.768 704.749H517.789ZM502.774 690.177C501.973 693.087 515.301 700.574 516.988 700.363C518.527 700.131 521.838 692.012 520.699 689.355C519.603 686.803 515.259 685.369 511.083 685.77C507.646 686.086 503.576 687.604 502.795 690.198L502.774 690.177Z" fill="#0E141B"/>
<path d="M263.758 556.477C254.606 564.743 241.109 569.362 232.4 569.362L229.658 572.588C237.124 574.739 256.736 568.518 265.298 560.652L263.758 556.477Z" fill="#0E141B"/>
<path d="M414.309 364.656L417.704 362.8C419.581 371.847 423.039 379.081 424.895 379.207C426.73 379.207 429.809 372.396 430.8 359.469L434.659 358.52C433.077 371.847 428.86 382.729 424.916 383.003C421.711 383.214 416.291 373.071 414.33 364.677L414.309 364.656Z" fill="#0E141B"/>
<path d="M314.919 677.779L319.811 676.471C318.251 671.579 315.805 667.677 311.945 665.041C295.75 654.012 286.913 636.023 288.727 601.164L283.181 597.432C279.617 631.468 291.026 657.681 308.824 668.373C311.798 670.166 314.012 674.51 314.919 677.779Z" fill="#0E141B"/>
<path d="M384.785 653.506C385.165 678.2 377.151 686.277 363.697 686.446L362.157 691.233C377.531 692.077 389.973 683.283 390.416 655.109L384.764 653.506H384.785Z" fill="#0E141B"/>
<path d="M455.431 695.155C452.099 696.251 443.453 698.255 442.103 696.968C441.049 695.576 446.131 685.412 451.656 684.168L449.674 679.781C442.082 682.734 434.596 695.197 437.485 700.427C439.046 703.274 451.214 701.882 455.263 700.638L455.431 695.134V695.155Z" fill="#0E141B"/>
<path d="M239.485 285.364C202.138 280.366 168.881 272.479 151.483 252.129C135.562 233.508 125.186 129.858 158.316 127.897C181.408 126.526 237.904 173.089 259.372 234.414C261.354 240.087 259.435 243.714 256.947 238.126C229.047 175.346 182.315 132.22 159.391 133.422C133.642 134.772 138.556 228.868 156.334 249.556C172.551 268.43 203.719 276.612 239.97 281.399L239.485 285.364Z" fill="#0E141B"/>
<path d="M236.596 295.065C192.1 291.965 154.33 282.18 140.327 265.626C126.072 248.797 123.921 226.169 120.483 203.583C117.425 183.465 117.025 174.165 109.201 171.761C98.6989 168.535 95.0928 154.089 101.251 151.369C109.243 147.847 119.028 134.835 119.134 130.006C119.239 124.86 112.849 120.432 100.597 113.198C92.3934 108.39 95.9996 93.6073 104.899 91.5406C116.413 88.8624 175.545 94.5141 208.148 114.548L211.902 122.983C170.653 95.3576 111.268 94.3032 106.459 95.6107C102.537 96.6862 98.4669 106.387 103.402 109.571C120.673 119.546 124.11 123.532 124.132 129.9C124.174 138.167 113.229 150.272 104.055 155.417C101.314 157.02 103.844 165.266 111.099 167.417C121.896 170.622 122.613 182.115 125.713 202.508C129.91 230.049 131.723 246.878 144.06 261.977C156.798 277.583 191.298 286.904 237.334 291.037L236.575 295.044L236.596 295.065Z" fill="#0E141B"/>
<path d="M347.437 369.296C348.239 366.344 350.242 363.244 353.532 361.304C356.843 359.342 357.644 360.123 354.776 363.054C352.52 365.353 351.001 367.989 349.968 370.245C349.019 372.312 347.016 370.899 347.437 369.296Z" fill="#0E141B"/>
<path d="M327.951 369.296C326.833 365.838 324.978 363.139 321.814 361.325C319.178 359.807 318.124 360.798 320.57 363.075C322.51 364.889 324.155 367.462 325.42 370.224C326.369 372.291 328.457 370.857 327.951 369.275V369.296Z" fill="#0E141B"/>
<path d="M205.132 568.435C202.349 566.115 204.858 554.263 208.781 552.576C214.475 550.151 222.931 558.038 221.476 560.716C218.65 565.862 207.431 570.354 205.132 568.435ZM210.637 555.634C208.38 556.246 206.039 565.208 207.199 566.052C208.696 567.001 218.355 560.843 218.355 559.514C218.355 558.46 213.019 554.959 210.637 555.613V555.634Z" fill="#0E141B"/>
<path d="M221.201 578.03C217.996 576.87 216.921 558.776 220.906 556.941C225.799 554.685 236.617 560.758 236.617 564.175C236.617 569.215 224.47 579.19 221.201 578.009V578.03ZM222.889 560.21C221.729 560.927 221.497 574.15 222.488 574.55C223.732 575.141 232.863 566.684 231.999 564.407C231.029 561.876 224.744 559.156 222.889 560.231V560.21Z" fill="#0E141B"/>
<path d="M215.339 575.541C213.146 574.866 211.332 571.26 211.332 566.177L214.791 564.807C214.748 567.464 215.065 571.85 216.246 572.23C217.384 572.483 219.219 570.901 220.084 568.982L220.632 573.432C219.704 574.507 216.92 576.026 215.339 575.52V575.541Z" fill="#0E141B"/>
<path d="M436.684 276.654C472.914 271.403 508.342 254.722 523.484 236.522C535.293 222.33 537.022 134.497 514.394 131.523C491.282 128.486 436.262 180.364 422.597 242.174C421.648 246.497 419.011 245.464 419.686 241.352C429.239 182.62 483.226 124.648 514.816 126.378C543.096 127.917 542.358 222.435 527.048 239.412C510.261 258.054 474.01 275.135 438.328 280.281L436.684 276.654Z" fill="#0E141B"/>
<path d="M265.403 228.447C260.342 202.424 222.13 103.519 213.905 100.672C211.459 99.6599 207.136 100.567 206.145 102.233C205.554 103.561 213.779 120.917 215.824 127.18C218.481 135.342 216.836 135.637 212.366 127.518C203.403 111.259 200.641 103.35 201.463 100.271C202.391 96.7919 213.504 93.481 217.174 97.3613C233.644 114.78 265.024 203.225 268.587 227.14C269.663 234.394 266.795 235.554 265.424 228.426L265.403 228.447Z" fill="#0E141B"/>
<path d="M239.76 283.971C206.735 277.792 175.798 253.984 170.315 239.074C163.883 221.55 167.426 171.76 185.183 171.76C203.171 171.76 251.274 210.605 258.929 236.543C260.258 241.035 258.423 241.457 256.483 237.028C245.475 211.87 201.948 177.454 186.279 177.559C171.011 177.665 170.737 227.37 174.955 238.104C179.447 249.555 206.714 272.584 240.561 281.124L239.76 283.95V283.971Z" fill="#0E141B"/>
<path d="M263.041 469.318C257.432 463.856 244.969 463.118 243.598 466.977C230.945 502.996 223.754 517.906 210.257 535.894C206.271 541.208 204.795 549.981 207.031 556.076L210.426 553.334C209.118 547.704 210.278 542.706 214.137 537.602C226.179 521.659 234.424 504.789 246.656 469.887C247.563 467.272 254.965 467.483 262.029 472.945L262.999 469.297L263.041 469.318Z" fill="#0E141B"/>
<path d="M422.596 236.523L421.057 242.386C432.74 270.054 450.264 331.716 448.725 347.237C446.131 373.492 427.847 387.158 390.711 406.137C383.688 409.722 385.544 411.979 392.166 409.111C430.315 392.641 452.479 375.686 454.566 347.237C455.789 330.577 437.316 268.029 422.596 236.502V236.523Z" fill="#0E141B"/>
<path d="M254.627 230.598L257.622 235.3C242.016 266.912 228.161 325.432 229.911 352.067C231.641 378.385 252.223 391.755 289.36 410.735C296.382 414.32 294.526 416.577 287.905 413.709C249.756 397.238 225.736 380.726 224.112 352.278C222.657 326.993 234.213 267.987 254.627 230.598Z" fill="#0E141B"/>
<path d="M427.51 303.1C427.257 298.249 426.899 290.636 424.832 285.343L427.679 284.373C429.134 290.847 429.872 296.9 429.134 303.1C428.691 306.832 427.721 306.938 427.51 303.1Z" fill="#0E141B"/>
<path d="M380.862 321.637C379.703 316.133 404.482 287.938 425.907 282.855C432.382 281.316 432.845 283.066 426.73 285.365C407.096 292.746 383.899 317.166 384.426 320.646C385.017 323.514 420.614 326.255 422.301 325.496C424.052 324.716 426.182 320.646 427.278 316.133C428.037 313.033 428.628 313.581 428.607 316.407C428.565 321.553 425.865 328.47 423.377 329.187C418.505 330.578 381.833 326.213 380.862 321.658V321.637Z" fill="#0E141B"/>
<path d="M412.601 326.972C417.472 315.542 419.054 300.781 417.282 288.528L420.931 287.221C422.723 299.747 421.184 314.024 416.523 327.626L412.601 326.972Z" fill="#0E141B"/>
<path d="M389.614 323.64C388.138 319.949 387.695 315.5 388.012 311.514L391.196 309.764C390.795 314.234 391.765 321.447 393.305 324.104L389.614 323.64Z" fill="#0E141B"/>
<path d="M252.687 302.194C253.13 297.364 254.037 289.604 255.619 284.353L252.519 283.488C251.359 289.604 250.705 296.268 251.127 302.152C251.401 305.842 252.413 305.083 252.666 302.173L252.687 302.194Z" fill="#0E141B"/>
<path d="M299.609 320.855C300.769 315.351 277.571 286.966 254.817 282.01C247.963 280.513 247.52 282.137 253.994 284.52C274.239 291.943 296.635 316.068 296.298 319.801C295.707 322.669 260.869 325.242 258.423 324.651C256.23 324.103 254.543 319.801 253.446 315.288C252.771 312.568 252.097 313.158 252.118 315.562C252.181 321.425 254.733 327.097 257.79 327.962C262.915 329.417 298.744 324.989 299.609 320.855Z" fill="#0E141B"/>
<path d="M267.913 326.107C263.041 314.677 261.46 299.915 263.231 287.663L259.583 286.355C257.79 298.882 259.33 313.159 263.99 326.761L267.913 326.107Z" fill="#0E141B"/>
<path d="M291.595 323.64C293.071 319.949 293.514 315.5 293.197 311.514L290.013 309.764C290.414 314.234 289.444 321.447 287.904 324.104L291.595 323.64Z" fill="#0E141B"/>
<path d="M378.964 302.867C383.076 290.826 390.9 280.767 401.908 274.862C403.659 273.913 404.333 274.693 402.667 276.043C394.717 282.538 386.451 292.85 380.904 303.711C379.302 306.832 377.91 305.925 378.964 302.867Z" fill="#0E141B"/>
<path d="M299.271 302.172C294.357 288.401 287.63 280.155 277.445 273.998C276.011 273.133 275.062 273.829 276.453 275.073C284.151 281.864 292.523 291.838 297.647 302.889C298.828 305.441 300.115 304.534 299.25 302.172H299.271Z" fill="#0E141B"/>
</g>
<defs>
<clipPath id="clip0_42_61013">
<rect width="568.586" height="620" fill="white" transform="translate(96 90)"/>
</clipPath>
</defs>
</svg>
