<svg width="800" height="800" viewBox="0 0 800 800" fill="none" xmlns="http://www.w3.org/2000/svg">
<g clip-path="url(#clip0_42_61287)">
<path d="M391.005 656.145L452.046 643.264C447.712 663.83 436.902 694.929 438.681 705.617C440.46 716.306 415.525 718.085 405.717 712.749L390.988 656.145H391.005Z" fill="#CFA7CD"/>
<path d="M446.486 665.384C448.593 657.613 450.665 649.894 452.046 643.264L391.005 656.145L405.734 712.749C407.288 713.595 409.222 714.251 411.363 714.735C415.335 695.015 427.958 675.52 446.486 665.384Z" fill="#B491B2"/>
<path d="M431.463 708.743C434.416 706.964 437.662 703.735 440.011 705.79C442.376 707.862 449.56 713.043 446.9 713.63C444.241 714.217 435.884 715.27 434.709 714.977L431.463 708.743Z" fill="#EFEFEF"/>
<path d="M436.194 705.721C434.658 706.48 433.017 707.81 431.463 708.743L434.709 714.976C435.469 715.166 439.216 714.804 442.497 714.355C439.216 712.403 433.742 708.121 436.177 705.721H436.194Z" fill="#C9CACA"/>
<path d="M407.858 712.282C410.517 709.623 422.898 704.028 425.851 705.79C428.804 707.568 440.788 714.717 434.606 716.789C428.407 718.861 413.695 717.877 409.568 716.099L407.858 712.265V712.282Z" fill="#EFEFEF"/>
<path d="M407.858 712.284L409.568 716.117C413.487 717.792 426.956 718.759 433.604 717.084C426.593 715.858 413.107 713.216 414.402 708.398C411.484 709.728 408.911 711.248 407.858 712.301V712.284Z" fill="#C9CACA"/>
<path d="M452.771 427.193L528.231 438.244C539.732 420.545 563.009 369.139 563.337 361.248C563.492 357.397 547.709 367.447 546.811 368.034C550.938 361.248 558.26 349.505 557.068 345.966C555.877 342.426 546.518 347.399 542.374 349.747C543.064 333.947 537.711 298.22 534.171 284.648C532.479 278.155 528.939 281.402 527.109 283.232C525.693 284.648 521.462 299.895 521.462 299.895C521.462 299.895 512.863 260.508 487.238 239.493C485.511 233.743 483.335 219.203 481.902 214.506C481.108 211.899 473.251 214.161 471.731 217.822C468.779 224.902 468.33 242.653 468.33 242.653L458.591 253.566C458.591 253.566 446.797 252.392 444.431 253.86C442.065 255.327 443.844 274.805 443.844 274.805C443.844 274.805 426.507 303.004 421.137 330.563L452.754 427.176L452.771 427.193Z" fill="#CFA7CD"/>
<path d="M471.593 304.748C451.373 268.262 424.055 315.661 421.137 330.581L452.754 427.194L480.814 426.969C483.076 423.239 491.796 341.252 471.576 304.766L471.593 304.748Z" fill="#B491B2"/>
<path d="M392.68 503.223L385.41 477.805C371.699 491.463 349.597 503.188 330.723 501.893C311.85 500.598 294.271 494.088 291.664 497.334C289.056 500.581 295.842 524.617 294.547 536.998C285.43 534.391 262.378 529.245 261.721 533.148C261.065 537.05 268.887 548.775 268.231 556.58C261.065 556.58 249.358 554.629 246.75 557.875C244.143 561.139 245.455 563.729 246.75 567.649C248.045 571.568 252.604 583.915 250.653 590.442L392.68 503.24V503.223Z" fill="#CFA7CD"/>
<path d="M438.785 534.823L412.969 479.981L338.546 434.204L336.387 455.599C336.387 455.599 302.75 404.21 277.901 377.618C272.237 371.557 264.726 379.984 266.038 387.789C267.333 395.594 277.798 473.126 276.485 481.604C266.073 472.487 226.15 447.103 222.23 445.152C218.328 443.201 209.642 447.224 212.249 453.734C214.857 460.244 245.369 529.401 243.418 533.304C240.707 538.726 240.396 538.398 235.509 538.398C234.214 538.398 215.444 532.458 212.336 534.167C208.416 536.308 209.97 539.244 214.201 544.891C216.066 547.377 240.499 583.726 239.826 604.568C234.404 613.599 231.089 626.014 229.932 640.726C228.412 660.204 236.286 676.919 246.042 689.939C250.066 697.71 253.899 707 270.822 712.197C287.744 717.412 321.33 720.52 323.937 717.257C326.113 714.529 329.411 703.667 334.263 693.704C348.682 682.791 384.771 688.403 407.547 675.745C425.419 665.816 454.412 647.098 457.675 632.783C459.955 622.751 466.793 604.792 470.695 599.577L438.785 534.858V534.823Z" fill="#CFA7CD"/>
<path d="M239.325 605.464C234.128 614.357 231.123 625.702 230.001 639.913C228.481 659.391 236.303 677.177 246.077 690.197C250.394 697.968 253.934 706.964 270.856 712.179C281.424 715.425 298.484 717.86 310.434 718.447C305.754 716.409 310.572 710.21 305.927 708.691C274.016 698.244 250.67 677.074 247.7 634.871C245.213 599.507 263.69 581.255 261.393 579.666C259.079 578.078 245.645 596.192 239.325 605.464Z" fill="#B491B2"/>
<path d="M276.623 491.722C277.47 488.493 276.71 484.141 276.503 481.482C276.503 481.517 276.503 481.551 276.503 481.586C266.09 472.468 226.167 447.085 222.247 445.134C220.296 444.167 217.171 444.667 214.84 446.239C224.63 451.195 275.795 494.934 276.641 491.705L276.623 491.722Z" fill="#B491B2"/>
<path d="M237.616 542.766C242.934 541.229 244.367 536.446 243.262 533.562C241.225 537.223 238.859 539.054 235.526 538.38C232.176 537.707 217.05 531.784 212.422 534.115C215.496 537.845 232.297 544.303 237.633 542.766H237.616Z" fill="#B491B2"/>
<path d="M257.128 562.521C261.618 564.334 267.955 567.356 269.129 566.544C270.303 565.733 270.58 556.339 268.905 556.339C267.23 556.339 251.24 555.493 248.011 557.047C244.782 558.584 252.639 560.691 257.128 562.521Z" fill="#B491B2"/>
<path d="M294.703 545.425C296.24 541.505 295.376 539.26 295.117 537.153C290.006 536.411 270.165 529.866 264.277 532.111C258.389 534.356 281.804 539.122 294.703 545.425Z" fill="#B491B2"/>
<path d="M291.905 497.058C291.629 500.287 325.957 513.79 338.027 512.063C347.835 510.665 376.5 486.697 359.612 496.091C333.262 510.751 292.372 491.567 291.905 497.075V497.058Z" fill="#B491B2"/>
<path d="M408.393 479.238L338.545 434.186L336.387 455.581C336.387 455.581 302.749 404.192 277.901 377.6C273.135 372.506 267.092 377.669 266.056 384.075C273.861 366.186 306.704 444.961 331.189 471.07C344.313 483.002 348.302 486.352 366.761 491.29C390.176 489.736 408.393 479.238 408.393 479.238Z" fill="#B491B2"/>
<path d="M430.72 562.469C433.069 568.702 433.207 571.172 440.891 582.793C448.575 594.431 455.88 607.089 461.578 619.798C464.513 611.44 468.209 602.875 470.712 599.543L430.72 562.469Z" fill="#B491B2"/>
<path d="M345.781 670.08C341.516 677.661 338.58 685.241 335.541 692.804C350.702 683.065 385.41 688.021 407.565 675.709C423.779 666.696 446.313 655.074 453.289 641.433C451.58 639.292 428.338 642.21 417.873 646.441C408.652 659.53 364.015 668.267 345.798 670.063L345.781 670.08Z" fill="#B491B2"/>
<path d="M323.574 705.013C326.182 703.062 332.036 704.357 335.299 706.964C338.545 709.572 347.024 714.769 342.465 716.082C337.907 717.377 333.348 717.377 333.348 717.377L323.592 705.013H323.574Z" fill="#C9CACA"/>
<path d="M303.406 709.572C306.566 707.466 315.13 703.719 319.033 703.719C322.935 703.719 335.955 712.18 336.611 714.787C337.268 717.395 333.348 720.002 325.543 720.641C317.738 721.297 300.159 719.346 297.552 718.034C297.552 714.787 299.503 712.18 303.406 709.572Z" fill="#EFEFEF"/>
<path d="M309.259 706.551C306.859 707.587 304.684 708.727 303.388 709.573C299.486 712.18 297.535 714.787 297.535 718.034C299.987 719.26 315.631 721.056 323.989 720.728C317.842 717.309 302.819 712.784 309.259 706.551Z" fill="#C9CACA"/>
<path d="M451.563 424.723C485.027 419.267 513.657 432.891 513.657 432.891C516.904 433.547 536.986 437.795 551.422 464.784C566.652 493.293 576.805 537.689 572.903 549.413C569 561.138 542.304 586.522 542.304 589.768C542.304 593.014 546.863 609.298 542.304 612.561C537.746 615.808 522.775 626.876 518.872 625.581C514.97 624.286 499.342 620.366 494.784 621.679C490.225 622.974 483.715 620.384 479.813 613.218C475.91 606.051 439.458 566.992 429.684 562.433C419.911 557.875 396.479 552.021 396.479 537.05C396.479 522.079 402.332 503.205 402.332 503.205C402.332 503.205 418.098 430.197 451.545 424.741L451.563 424.723Z" fill="#CFA7CD"/>
<path d="M507.855 611.233C493.592 613.857 482.558 601.01 479.64 592.255C474.667 577.319 466.361 558.048 452.409 555.061C438.456 552.074 402.868 545.581 399.949 516.07C398.482 521.268 396.496 524.963 396.496 537.051C396.496 552.022 419.928 557.875 429.702 562.434C439.458 566.993 475.927 606.052 479.83 613.218C483.732 620.385 490.242 622.975 494.801 621.68C499.36 620.385 514.987 624.287 518.889 625.582C522.792 626.877 534.102 619.815 538.091 615.826C542.08 611.837 522.136 608.608 507.855 611.215V611.233Z" fill="#B491B2"/>
<path d="M502.796 535.375C501.967 547.548 491.52 573.036 491.192 560.586C489.966 512.219 463.754 483.882 466.396 483.123C475.064 480.619 503.849 519.747 502.796 535.375Z" fill="#B491B2"/>
<path d="M538.903 518.644C545.24 516.934 552.665 510.994 552.665 510.994C554.547 517.815 551.888 543.043 544.877 546.548C536.917 550.52 522.637 523.772 523.759 516.192C526.228 516.831 533.118 520.198 538.903 518.644Z" fill="#935F83"/>
<path d="M442.601 488.978C445.484 495.384 427.284 495.574 422.985 493.174C418.702 490.791 428.907 472.971 430.237 472.574C431.567 472.177 442.1 487.856 442.601 488.978Z" fill="#B491B2"/>
<path d="M524.191 467.289C545.033 465.165 595.04 460.227 602.862 460.227C610.685 460.227 614.587 461.522 607.421 468.032C600.255 474.541 559.728 508.214 537.107 518.816C514.486 529.401 506.854 469.05 524.191 467.289Z" fill="#CFA7CD"/>
<path d="M515.574 508.178C515.263 511.994 528.335 523.408 536.831 519.437C559.451 508.851 600.255 474.558 607.421 468.048C608.008 467.513 608.492 467.046 608.923 466.58C536.451 494.778 515.885 504.362 515.574 508.178Z" fill="#B491B2"/>
<path d="M518.872 625.583C520.72 623.528 520.823 615.826 513.657 616.465C506.491 617.121 494.784 621.68 494.784 621.68C494.784 621.68 485.01 638.602 488.93 639.915C492.832 641.21 513.018 632.11 518.872 625.6V625.583Z" fill="white"/>
<path d="M518.751 625.721C518.751 625.721 518.838 625.635 518.872 625.6C520.72 623.545 520.823 615.844 513.657 616.483C506.491 617.139 494.784 621.698 494.784 621.698C494.784 621.698 492.539 625.583 490.64 629.779C496.234 625.807 503.21 621.162 518.751 625.721Z" fill="#DCDDDD"/>
<path d="M282.477 612.735C274.724 617.898 264.156 634.32 261.082 638.602C257.819 643.161 263.69 649.014 264.985 651.622C266.28 654.229 276.485 662.414 282.425 659.599C291.37 655.334 296.706 648.341 308.603 643.161C314.353 640.657 311.591 622.785 309.898 621.023C306.876 617.863 282.943 612.407 282.46 612.735H282.477Z" fill="#935F83"/>
<path d="M336.594 543.56C333.9 548.93 332.692 566.336 338.545 569.6C344.399 572.863 354.449 582.24 360.959 579.632C367.469 577.025 376.051 570.757 376.241 565.386C376.414 560.171 379.556 538.345 375.637 536.394C371.734 534.443 342.31 532.163 336.577 543.56H336.594Z" fill="#935F83"/>
<path d="M470.712 489.529C480.486 505.157 491.555 533.942 490.864 558.479C471.939 552.539 450.026 536.515 450.026 530.661C444.034 504.898 467.932 490.876 470.712 489.529Z" fill="white"/>
<path d="M482.109 509.905L473.959 496.039C461.215 502.894 455.223 524.6 459.765 537.948C463.287 548.274 479.156 546.823 486.322 524.686L482.109 509.905Z" fill="#CA0537"/>
<path d="M460.283 456.98C460.835 445.393 456.588 359.901 456.449 354.341C456.311 348.522 453.134 343.048 444.017 356.724C444.362 347.71 442.998 339.68 442.359 337.073C441.703 334.466 433.604 340.458 430.997 345.655C421.879 328.077 373.979 276.446 361.995 269.487C355.122 265.498 358.973 280.314 359.56 292.557C351.099 283.44 300.85 263.392 291.75 262.615C285.257 262.045 283.876 266.897 285.827 268.192C287.778 269.487 306.169 286.064 306.169 286.064C306.169 286.064 299.952 295.959 298.847 307.908C291.681 311.154 285.827 311.81 285.171 313.762C284.515 315.713 285.171 318.976 286.466 318.976C287.761 318.976 299.486 322.879 299.486 322.879C299.486 322.879 302.732 346.311 306.652 359.987C304.701 363.89 298.933 373.318 302.197 375.925C305.461 378.533 316.339 387.219 316.339 387.219C316.339 387.219 332.709 434.204 347.68 445.911C362.651 457.636 395.097 477.839 421.897 481.069C421.897 481.069 459.765 468.567 460.3 456.98H460.283Z" fill="#CFA7CD"/>
<path d="M327.857 382.557C313.784 382.126 307.187 324.089 301.057 332.947C302.37 340.959 304.407 352.097 306.669 359.988C300.453 372.438 299.952 373.492 303.406 376.272C306.669 378.879 316.339 387.237 316.339 387.237C316.339 387.237 332.709 434.222 347.68 445.93C362.651 457.655 395.097 477.858 421.897 481.087C421.897 481.087 440.753 484.592 450.509 475.337C395.149 467.998 359.301 428.006 327.857 382.574V382.557Z" fill="#B491B2"/>
<path d="M447.159 462.937C449.111 442.112 437.507 389.929 419.289 369.743C401.383 349.919 369.161 317.007 356.797 309.202C344.434 301.397 318.998 294.214 315.787 302.036C306.669 324.173 338.252 417.557 356.469 433.84C374.704 450.107 388.052 468.048 429.063 473.902L447.177 462.937H447.159Z" fill="#00A094"/>
<path d="M446.969 449.623C444.88 424.999 434.347 386.423 419.272 369.743C401.365 349.919 369.144 317.007 356.78 309.202C344.416 301.397 318.981 294.214 315.769 302.036C313.991 306.336 313.766 313.346 314.681 321.963C331.759 297.805 432.257 397.906 446.987 449.623H446.969Z" fill="#008C81"/>
<path d="M456.38 473.247C448.765 463.266 428.718 441.82 425.454 439.212C421.949 436.398 419.048 439.627 419.911 446.551C420.567 451.766 429.909 477.46 432.931 486.267C435.97 495.142 464.116 483.418 456.363 473.247H456.38Z" fill="#CFA7CD"/>
<path d="M419.842 445.1C419.842 445.583 419.859 446.067 419.928 446.567C420.584 451.782 429.633 478.167 432.637 486.974C434.26 491.705 443.343 490.065 442.652 488.908C441.962 487.734 428.165 459.846 419.842 445.117V445.1Z" fill="#B491B2"/>
<path d="M351.565 615.825C347.283 635.061 343.76 675.07 352.86 697.847C361.961 720.623 371.302 726.58 377.812 725.941C384.322 725.285 408.186 723.886 408.186 720.64C408.186 717.394 404.284 692.649 405.579 684.844C406.874 677.022 418.115 642.607 425.109 628.862C432.102 615.117 355.83 596.606 351.548 615.842L351.565 615.825Z" fill="#CFA7CD"/>
<path d="M348.923 656.492C347.179 675.936 346.696 682.394 352.878 697.848C361.995 720.642 371.32 726.582 377.83 725.943C380.834 725.649 387.517 725.183 393.854 724.458C380.074 724.924 356.469 687.574 348.923 656.492Z" fill="#B491B2"/>
<path d="M396.289 719.502C398.896 715.599 400.519 709.901 403.645 711.524C408.29 713.959 416.665 722.593 413.401 723.888C410.155 725.183 401.676 725.183 399.086 724.544L396.289 719.502Z" fill="#EFEFEF"/>
<path d="M400.295 712.715C398.965 714.407 397.791 717.239 396.289 719.501L399.086 724.543C401.141 725.061 406.787 725.165 410.707 724.543C405.941 721.901 397.86 718.275 400.278 712.715H400.295Z" fill="#C9CACA"/>
<path d="M372.407 721.936C374.445 718.879 382.82 713.475 386.084 713.475C389.347 713.475 405.613 723.887 401.711 727.151C397.808 730.414 368.505 727.807 372.425 721.936H372.407Z" fill="#EFEFEF"/>
<path d="M380.679 715.443C377.294 717.291 373.651 720.054 372.407 721.936C369.196 726.754 388.38 729.361 397.497 728.342C390.78 725.89 377.104 719.985 380.679 715.443Z" fill="#C9CACA"/>
<path d="M392.904 608.176C386.584 609.282 376.966 620.385 379.573 623.648C382.181 626.895 385.427 631.453 389.33 629.502C393.232 627.551 397.791 624.943 398.447 621.041C399.103 617.138 397.705 607.33 392.904 608.176Z" fill="#935F83"/>
<path d="M523.759 516.209C526.228 516.848 533.118 520.215 538.903 518.661C540.198 518.316 541.545 517.78 542.874 517.159C543.876 510.165 543.893 503.017 542.978 499.701C542.978 499.701 516.178 506.107 515.574 508.197C513.45 515.363 522.05 530.524 529.993 534.185C526.038 527.399 523.241 519.732 523.759 516.209Z" fill="#B491B2"/>
<path d="M536.485 533.977C539.697 531.681 541.821 524.497 542.857 517.141C541.545 517.763 540.198 518.298 538.886 518.643C533.101 520.198 526.211 516.848 523.742 516.191C523.206 519.714 526.021 527.364 529.975 534.167C532.289 535.238 534.551 535.341 536.485 533.977Z" fill="#7F5172"/>
<path d="M447.574 666.197C449.75 658.133 451.666 650.5 454.602 641.711L450.492 644.664C447.574 653.384 446.52 658.806 444.345 666.835C439.959 683.067 436.522 697.883 437.524 705.342C438.577 705.394 439.648 705.722 440.58 706.24C439.562 699.247 443.395 681.617 447.557 666.179L447.574 666.197Z" fill="#0E141B"/>
<path d="M430.893 707.776L432.05 709.71C432.05 709.71 436.816 705.376 439.285 706.636C441.755 707.914 446.382 711.713 446.037 712.663C445.692 713.612 435.953 714.061 435.884 713.871L436.004 715.564C436.626 715.943 445.692 715.788 448.075 715.27C449.145 715.028 449.37 713.595 448.731 712.145C447.263 708.864 440.149 704.219 440.149 704.219C437.628 702.026 430.893 707.759 430.893 707.759V707.776Z" fill="#0E141B"/>
<path d="M407.081 711.488L408.67 713.077C411.433 710.314 423.192 705.496 425.298 706.757C435.003 712.576 435.297 714.7 435.262 715.062C435.245 715.27 434.865 715.529 434.278 715.719C428.389 717.687 413.919 716.737 410.034 715.062L409.153 717.135C413.436 718.965 429.702 719.448 436.315 717.238C438.232 716.599 438.664 715.909 438.75 715.097C439.026 712.593 433.967 709.105 426.093 704.374C422.328 702.129 409.896 708.691 407.116 711.471L407.081 711.488Z" fill="#0E141B"/>
<path d="M468.882 218.134C467.535 222.192 467.017 239.857 466.896 242.084C461.198 246.971 458.85 251.098 458.004 252.065C454.533 251.737 444.69 250.77 442.635 252.721C441.271 254.016 441.945 269.695 442.359 274.479C440.235 278.036 425.091 296.529 419.445 328.457L422.346 332.239C427.612 305.267 441.064 280.781 443.171 278.105C444.414 284.131 445.07 283.786 445.329 278.105C445.605 272.424 444.794 256.123 446.451 254.88C448.109 253.654 458.832 254.603 461.802 254.603C464.772 254.603 467.259 254.189 461.526 252.98C462.942 251.098 464.842 248.214 467.207 246.229C468.105 253.878 468.692 252.324 469.504 246.643C470.315 240.962 469.78 225.162 472.595 218.41C473.147 217.081 479.519 213.973 480.521 215.026C481.522 216.079 483.422 230.014 485.304 241.359C487.203 252.704 488.464 246.816 488.274 242.447C508.391 258.489 516.921 292.161 520.029 300.259C518.803 309.446 520.288 312.433 522.326 302.141C523.483 296.253 525.468 290.417 526.85 287.032C529.595 280.298 531.823 281.386 532.773 285.012C536.399 298.93 541.683 340.476 540.923 349.679C532.065 355.637 535.38 355.447 539.697 353.012C542.823 351.251 548.555 348.281 552.009 346.882C555.255 345.57 557.017 346.45 554.012 352.201C552.13 355.792 548.486 362.941 545.965 367.085C542.512 370.038 539.421 372.801 536.9 375.477C533.895 378.672 531.374 382.782 536.244 378.672C540.612 374.977 549.557 368.277 555.652 364.53C562.456 360.351 562.922 360.524 559.918 368.588C554.081 384.232 536.382 423.05 527.005 437.451L529.958 439.057C539.732 424.017 558.882 383.559 564.252 369.365C569.156 356.362 564.148 354.963 551.215 363.615C552.251 361.577 554.841 357.295 557.051 351.976C560.608 343.377 558.519 340.838 551.905 343.221C549.177 344.206 545.965 346.364 543.772 347.711C543.772 331.756 540.284 299.379 536.934 284.718C533.394 269.177 524.501 282.284 521.445 294.716C518.147 284.701 510.653 256.365 487.652 238.562C487.445 235.92 485.338 215.665 484.527 213.23C483.715 210.795 482.316 209.448 478.811 210.26C475.289 211.072 470.264 214.111 468.917 218.151L468.882 218.134Z" fill="#0E141B"/>
<path d="M269.734 373.852C266.073 375.666 263.103 380.207 263.103 384.869C263.103 385.543 263.155 386.216 263.258 386.872C264.501 394.332 274.603 462.09 274.862 478.08C261.825 467.72 226.288 444.391 222.126 442.319C215.133 438.831 206.724 446.273 209.417 452.99L214.391 463.852C221.159 479.617 242.105 530.85 241.553 532.146C241 533.441 238.893 536.825 237.616 536.773C236.338 536.722 234.646 535.737 231.157 534.977C229.258 534.563 224.337 533.095 219.45 532.076C205.549 529.158 203.805 535.444 211.541 545.77C222.696 560.655 240.534 588.231 237.132 609.35L240.361 603.185C243.849 581.583 215.651 544.406 215.358 544.008C208.934 535.426 211.852 534.615 219.053 535.754C223.404 536.445 228.826 537.671 231.209 538.31C234.507 539.191 237.926 539.726 238.427 539.726C240.102 539.726 241.863 539.087 244.108 534.58C245.3 532.18 241.846 519.126 217.568 462.539L213.596 453.215C212.249 449.865 217.257 444.339 221.557 446.48C224.976 448.19 264.778 473.435 275.276 482.622C275.276 482.622 275.501 486.852 275.674 488.648C275.881 490.945 276.71 499.855 278.177 486.334C279.645 472.814 268.421 393.348 267.454 387.58C266.729 383.212 269.164 378.843 271.892 377.496C273.636 376.633 275.276 377.03 276.813 378.653C301.299 404.848 332.467 453.543 335.144 456.444C333.279 470.362 335.075 469.412 337.527 462.142C339.979 454.855 340.894 438.796 340.894 438.796L337.06 434.099C337.06 434.099 336.37 444.201 335.834 449.537C327.926 437.708 299.503 397.665 278.506 375.199C276.105 372.626 272.617 372.454 269.699 373.904L269.734 373.852Z" fill="#0E141B"/>
<path d="M335.023 691.164L333.659 695.809C337.648 693.012 343.121 691.164 350.702 689.714C350.339 688.695 350.063 687.193 349.908 686.174C343.398 687.296 338.407 688.781 335.023 691.147V691.164Z" fill="#0E141B"/>
<path d="M467.708 599.353C463.218 606.813 458.556 622.354 456.26 632.421C452.927 647.081 421.085 666.369 408.687 673.397C408.411 674.744 407.772 676.177 407.236 677.593C409.222 676.764 411.104 675.884 412.797 674.934C426.853 667.112 452.685 654.334 460.041 634.286C462.493 627.603 462.01 613.668 471.006 602.22L467.725 599.336L467.708 599.353Z" fill="#0E141B"/>
<path d="M380.558 479.341C363.912 490.755 354.19 501.599 334.004 500.2C319.136 499.182 307.118 494.882 299.417 493.932C291.284 492.931 289.125 494.709 289.125 499.544C289.125 502.48 289.747 507.798 290.662 513.842C291.664 520.404 293.805 531.438 293.649 535.185C289.747 534.149 279.593 531.023 271.391 529.815C257.594 527.794 258.061 531.697 262.429 542.265C264.104 546.288 266.47 550.07 267.437 555.284C266.384 555.233 259.39 554.197 253.416 554.283C241.397 554.438 240.448 556.269 244.005 566.577C244.005 566.577 250.912 584.501 249.254 590.062L251.464 589.198C253.398 582.74 247.769 566.111 247.769 566.111C245.386 559.187 245.887 557.978 253.657 557.65C259.632 557.408 267.972 558.134 267.972 558.134C267.972 558.134 268.456 561.155 268.611 563.556C268.818 566.785 270.2 569.979 270.856 562.14C271.512 554.317 267.42 545.908 265.624 541.159C262.809 533.717 263.31 532.491 271.339 533.631C276.986 534.425 285.568 536.1 293.684 538.414C293.684 538.414 293.598 541.626 293.632 543.266C293.667 544.907 294.651 550.415 296.119 541.28C297.586 532.146 295.29 521.578 294.047 513.427C291.612 497.334 290.887 496.643 307.187 499.872C313.835 501.185 322.124 502.825 330.62 503.412C349.649 504.725 359.577 500.01 382.233 482.225C389.848 476.25 388.328 474.04 380.54 479.376L380.558 479.341Z" fill="#0E141B"/>
<path d="M353.551 615.065C355.174 606.19 351.375 610.196 350.322 617.811C350.08 619.52 349.459 623.129 348.733 627.999C349.355 629.829 350.305 631.556 351.237 633.369C352.083 624.614 353.05 617.793 353.551 615.048V615.065Z" fill="#0E141B"/>
<path d="M372.252 723.283C367.59 720.917 361.063 714.373 354.242 697.312C350.685 688.437 349.631 674.795 349.735 661.119C348.388 663.105 346.989 665.263 345.781 667.543C345.988 678.231 346.316 688.817 349.666 697.278C357.868 717.982 367.693 725.044 373.668 726.892C372.908 725.977 372.39 724.82 372.252 723.283Z" fill="#0E141B"/>
<path d="M426.714 627.844C429.702 622.508 426.386 623.51 423.952 627.982C411.502 650.827 404.957 676.902 403.679 684.586C403.472 685.777 403.403 687.331 403.403 689.11C403.403 695.516 404.992 704.927 405.838 712.076C406.736 713.509 407.962 714.459 409.188 715.391C409.101 714.631 408.998 713.837 408.894 712.974C407.875 704.53 406.736 690.284 407.616 684.983C409.688 672.567 418.495 642.504 426.714 627.861V627.844Z" fill="#0E141B"/>
<path d="M298.139 715.771C288.296 714.631 277.539 712.767 269.889 710.401C256.697 706.343 252.449 698.175 249.513 693.444C254.883 696.207 255.868 695.516 253.105 693.444C250.497 691.493 248.892 690.111 246.578 687.573C238.79 679.008 230.26 660.152 231.917 639.171C233.385 620.471 241.397 602.754 252.535 590.442C264.432 577.284 262.101 575.454 252.121 586.522C249.185 589.786 229.569 609.592 227.29 638.619C225.874 656.629 233.282 678.335 244.626 689.852L249.841 700.282C254.901 707.862 257.508 709.935 271.685 714.303C278.333 716.341 288.452 717.757 298.139 718.914C298.312 717.895 298.761 716.652 298.139 715.754V715.771Z" fill="#0E141B"/>
<path d="M352.014 631.522C343.467 608.435 332.415 594.517 313.145 590.097C308.189 588.957 306.497 589.855 310.796 591.185C328.893 596.797 339.392 609.143 347.594 631.298C348.854 634.734 349.217 638.636 349.407 642.746C350.305 662.38 330.861 697.433 328.876 702.354C329.635 702.233 330.464 702.786 331.276 703.373C333.365 698.573 336.577 693.099 339.219 688.592C344.555 679.526 359.146 650.776 352.032 631.522H352.014Z" fill="#0E141B"/>
<path d="M322.901 704.116L324.248 705.912C326.268 704.392 329.135 704.34 333.158 706.861C337.181 709.383 343.57 713.509 342.603 714.787C341.654 716.065 335.921 716.756 335.886 716.756L333.331 718.5C333.521 718.5 339.91 718.707 344.555 717.377C346.074 716.946 346.558 716.221 346.679 715.582C347.058 713.44 338.822 705.083 330.913 702.406C328.219 701.491 326.026 701.75 322.884 704.099L322.901 704.116Z" fill="#0E141B"/>
<path d="M302.18 708.743C300.073 710.142 297.88 711.8 296.481 713.958C295.86 714.925 295.048 716.531 295.307 717.722C295.583 719.052 296.688 719.018 297.811 719.346C300.159 720.036 302.542 720.52 304.96 720.917C311.211 721.953 317.306 722.488 324.196 722.333C329.877 722.212 332.864 721.487 336.283 720.192C339.702 718.914 340.79 716.911 338.269 714.217C333.296 708.881 322.763 701.629 318.515 701.629C314.267 701.629 305.391 706.602 302.197 708.726L302.18 708.743ZM304.027 710.505C307.239 708.363 315.562 704.823 319.033 704.823C322.815 704.823 334.988 713.181 335.524 715.046C335.61 715.426 335.524 715.806 335.247 716.186C334.332 717.481 331.276 719.018 325.457 719.518C318.29 720.105 302.093 718.137 299.952 717.343C297.828 716.565 300.677 712.732 304.027 710.505Z" fill="#0E141B"/>
<path d="M395.356 718.88L397.221 720.123C397.221 720.123 401.987 711.921 403.127 712.525C407.564 714.839 413.038 721.09 413.038 722.713C413.038 722.765 413.038 722.799 413.038 722.834H413.021C409.947 724.06 401.728 724.025 401.003 723.283L402.125 725.269C403.127 726.08 411.536 726.374 415.145 724.923C416.008 724.578 416.526 723.853 416.578 722.92C416.751 719.398 407.875 712.801 404.18 710.505C400.813 708.415 395.373 718.862 395.373 718.862L395.356 718.88Z" fill="#0E141B"/>
<path d="M371.475 721.315C370.56 722.679 369.886 724.406 371.199 725.598C375.723 729.655 399.898 731.658 403.869 728.343C404.439 727.86 405.354 727.1 404.698 725.287C403.058 720.763 390.21 712.336 386.895 712.336C383.165 712.336 373.685 718 371.475 721.332V721.315ZM373.616 723.681C372.977 723.111 373.167 722.835 373.34 722.576C375.274 719.675 383.372 714.615 386.083 714.615C388.328 714.615 399.725 721.643 401.089 725.425C401.314 726.046 401.124 726.202 401.003 726.306C398.154 728.688 377.726 727.359 373.633 723.698L373.616 723.681Z" fill="#0E141B"/>
<path d="M458.867 423.221L459.558 426.882C466.05 424.931 477.982 424.689 480.348 424.637C482.714 424.603 484.147 423.825 480.59 422.928C477.033 422.03 465.705 421.166 458.867 423.221Z" fill="#0E141B"/>
<path d="M498.393 619.988C496.769 619.919 495.371 619.988 494.387 620.264C491.037 621.214 485.528 620.627 481.108 612.511C477.309 605.552 443.913 566.406 428.683 559.326C417.338 554.06 398.637 548.741 398.637 537.483C398.637 522.909 403.092 507.506 403.766 503.621C404.422 499.735 402.85 500.34 400.537 506.591C397.998 513.48 394.596 522.667 394.389 537.69C394.182 553.628 417.407 556.028 428.096 562.849C444.742 573.434 473.924 607.866 478.086 615.498C482.403 623.407 490.19 624.512 495.198 623.079C495.25 623.079 495.302 623.079 495.354 623.044C496.251 621.887 497.288 620.868 498.393 619.97V619.988Z" fill="#0E141B"/>
<path d="M567.705 497.854C566.497 498.751 565.426 499.822 564.373 500.875C570.762 521.821 573.87 541.903 571.539 548.949C569.294 555.683 558.657 567.736 550.904 576.543C543.323 585.142 541.769 586.368 540.768 587.956C539.766 589.545 540.664 593.897 541.044 596.09C541.89 600.942 544.066 608.522 541.476 611.371C538.885 614.221 521.341 624.253 519.77 624.236C519.2 625.427 518.579 626.653 517.784 627.741C521.359 628.225 540.56 618.538 544.1 615.585C546.673 613.444 547.381 611.82 547.381 608.453C547.381 605.086 545.275 599.474 544.497 595.123C544.187 593.361 543.323 590.322 543.392 589.372C543.461 588.423 549.73 583.001 553.891 578.287C569.035 561.105 576.08 551.85 576.08 544.442C576.08 533.96 573.231 515.95 567.705 497.854Z" fill="#0E141B"/>
<path d="M553.908 463.404C540.474 438.245 519.58 432.46 513.951 431.458C508.322 430.457 506.785 431.597 512.535 433.202C518.147 434.774 536.019 440.489 549.16 463.732C550.714 463.525 552.251 463.455 553.926 463.421C553.926 463.421 553.926 463.421 553.926 463.404H553.908Z" fill="#0E141B"/>
<path d="M524.881 465.942C515.643 467.202 514.417 469.223 524.432 468.739C529.993 468.463 595.006 461.711 602.862 461.711C609.234 461.711 609.908 463.801 606.437 466.961C598.632 474.058 565.098 499.787 547.157 511.321C537.176 517.745 532.859 518.28 526.556 515.863C518.855 512.91 517.215 513.739 524.605 518.522C531.46 522.96 538.575 521.026 547.847 514.982C569.829 500.633 603.95 474.938 608.958 470.173C618.438 461.142 614.155 457.325 598.321 458.344C576.857 459.726 529.682 465.286 524.899 465.942H524.881Z" fill="#0E141B"/>
<path d="M513.813 604.152C514.642 605.568 516.265 607.399 516.731 608.849C517.197 610.3 517.733 610.265 517.871 608.711C518.026 607.157 517.733 603.997 515.954 602.805C514.175 601.631 512.967 602.754 513.796 604.17L513.813 604.152Z" fill="#0E141B"/>
<path d="M514.693 614.41C507.424 615.066 494.784 620.211 494.3 620.401L493.851 620.574L493.61 620.989C491.658 624.373 484.026 637.082 485.511 641.002C485.805 641.779 486.374 642.349 487.134 642.59C491.831 644.162 513.64 633.456 519.494 626.946L519.908 626.514C521.324 624.943 523.068 620.574 521.67 617.811C520.944 616.378 519.079 614.012 514.693 614.41ZM513.796 617.846C515.902 617.656 517.335 618.295 518.061 619.728C518.423 620.453 518.561 621.265 518.561 622.025C518.561 623.199 518.216 624.252 517.853 624.667C512.207 630.935 492.677 639.448 489.465 638.619C489.396 638.481 489.362 638.308 489.362 638.066C489.362 635.821 492.09 629.26 495.768 622.802C497.857 622.007 507.648 618.416 513.813 617.863L513.796 617.846Z" fill="#0E141B"/>
<path d="M468.796 489.203C453.203 496.628 446.141 511.322 448.213 529.592C448.99 536.464 466.033 550.986 490.122 559.379C490.657 562.901 492.228 564.127 492.263 558.498C492.366 531.077 484.216 507.662 471.749 489.203C466.361 481.225 463.011 481.156 468.83 489.203H468.796ZM450.578 529.195C448.869 512.428 457.365 497.198 470.16 491.171C487.48 521.441 489.448 546.048 490.139 556.909C471.041 550.158 450.561 535.515 450.561 529.195H450.578Z" fill="#0E141B"/>
<path d="M464.444 544.407C471.041 547.29 483.128 541.091 486.841 525.809L485.511 524.428C482.023 535.203 473.182 544.994 465.221 542.196C454.964 538.605 459.316 505.779 474.615 497.542L473.804 495.539C457.088 503.689 450.63 538.363 464.462 544.424L464.444 544.407Z" fill="#0E141B"/>
<path d="M477.568 503.205C467.38 511.925 463.615 530.954 468.571 533.147C472.405 536.204 480.538 525.809 481.764 513.618L477.568 503.222V503.205Z" fill="#0E141B"/>
<path d="M284.998 269.419C291.577 275.964 295.221 279.987 303.63 286.704C302.076 289.45 298.415 297.842 297.327 307.546C290.869 308.876 283.703 310.983 282.823 312.157C281.942 313.331 281.079 318.252 284.308 319.582C287.537 320.911 292.907 322.258 298.156 323.985C298.778 328.302 301.679 347.676 305.081 359.85C303.25 363.58 300.315 366.446 299.158 368.847C297.673 371.92 297.379 374.839 300.902 377.55C304.131 380.036 314.388 387.168 314.837 387.548C316.305 391.726 328.876 433.445 344.278 446.517C358.956 458.967 383.372 476.01 415.559 481.035C427.405 482.883 428.441 480.983 416.423 478.842C389.261 474.024 360.942 455.513 346.592 442.994C335.196 433.065 318.688 390.828 318.014 388.722C323.885 392.745 322.452 389.689 316.495 385.026C311.867 381.4 307.066 377.429 305.167 375.84C302.594 373.682 302.456 372.162 303.717 368.95C304.614 366.671 306.272 363.649 307.602 360.385C309.501 355.689 309.415 352.46 307.17 356.569C305.702 352.46 301.299 326.627 301.299 324.434C303.837 324.952 303.198 323.778 299.987 322.448C296.775 321.119 287.468 317.441 286.863 317.061C286.259 316.681 285.741 314.591 286.621 313.711C287.502 312.83 294.806 310.171 299.434 308.91C304.079 307.65 305.84 306.372 300.263 307.097C301.731 296.374 305.91 288.103 305.961 287.999C305.961 287.999 307.084 288.811 309.432 289.985C311.781 291.159 315.7 292.506 311.711 289.329C307.723 286.169 286.604 268.193 286.466 266.501C286.328 264.809 288.469 263.807 291.612 264.083C300.315 264.843 350.149 284.563 358.49 293.559C358.49 293.559 358.714 295.269 359.163 297.548C360.113 302.452 361.166 300.985 361.322 298.895C361.442 297.272 360.32 284.597 359.888 277.984C359.457 271.543 359.491 269.626 362.081 270.973C372.511 276.395 420.36 328.699 429.218 345.777C429.218 345.777 426.3 349.679 425.074 351.769C423.468 354.497 424.072 355.758 427.181 352.373C430.496 348.764 436.505 341.46 438.008 339.889C440.201 337.627 441.841 338.818 442.1 342.185C442.169 343.118 442.635 351.234 442.618 356.915C442.618 356.915 441.116 359.349 440.201 361.024C439.285 362.699 437.489 367.206 440.39 363.701C443.291 360.196 449.007 352.356 450.337 351.354C452.927 349.42 453.911 350.716 454.913 358.641C457.451 378.758 458.418 446.534 459.057 456.239C459.419 461.92 461.129 466.616 461.768 457.033C462.338 448.434 460.801 375.892 458.798 356.811C457.399 343.463 453.341 342.375 445.381 352.546C445.743 331.013 440.788 328.112 431.377 343.187C419.98 323.795 374.031 273.114 362.064 266.156C356.556 262.961 355.83 266 356.763 276.689C357.212 281.869 357.575 286.773 357.782 289.104C344.037 278.916 300.332 260.872 291.871 260.129C287.07 259.715 279.024 263.427 284.998 269.367V269.419Z" fill="#0E141B"/>
<path d="M317.272 296.633C315.2 297.289 313.818 298.446 313.145 300.052C303.993 322.258 336.163 418.75 354.604 435.224L362.099 442.148C376.897 456.083 394.268 471.4 428.838 475.596L428.165 471.918C394.303 467.825 379.936 454.287 364.723 439.972L357.195 433.013C339.063 416.816 307.843 324.227 316.805 302.487C317.203 301.52 318.118 300.812 319.534 300.363C327.097 297.963 346.005 303.747 356.193 310.171C368.505 317.941 400.623 350.785 418.46 370.522C435.953 389.879 448.023 441.768 445.605 461.833L448.368 464.026C450.872 443.081 444.207 397.269 420.602 369.019C403.472 348.505 371.371 316.266 358.887 308.392C348.25 301.675 325.612 294.008 317.289 296.668L317.272 296.633Z" fill="#0E141B"/>
<path d="M428.804 440.266C419.6 432.15 415.853 437.987 417.77 445.792C419.048 450.972 429.477 482.572 431.739 486.716C433.984 490.86 435.262 488.806 434.088 484.558C432.914 480.31 422.449 451.68 421.223 446.413C419.583 439.385 423.278 439.005 427.63 443.322C433.311 448.934 450.665 468.136 454.101 470.916C457.917 474.007 459.022 472.936 456.898 470.467C443.913 455.427 434.675 445.446 428.821 440.283L428.804 440.266Z" fill="#0E141B"/>
<path d="M551.888 510.112C553.2 525.359 549.712 544.613 543.41 545.632C538.057 546.495 529.457 535.012 524.916 516.864L522.291 515.223C527.057 537.844 537.28 550.346 543.876 549.275C551.508 548.032 555.635 527.708 554.064 509.387L551.888 510.112Z" fill="#0E141B"/>
<path d="M476.169 511.356C476.169 514.275 473.786 516.088 471.68 516.088C469.055 516.088 466.931 513.964 466.931 511.356C466.931 508.576 469.228 506.625 471.68 506.625C474.252 506.625 476.169 508.973 476.169 511.356Z" fill="white"/>
</g>
<defs>
<clipPath id="clip0_42_61287">
<rect width="406.948" height="520" fill="white" transform="translate(207 210)"/>
</clipPath>
</defs>
</svg>
