<svg width="800" height="800" viewBox="0 0 800 800" fill="none" xmlns="http://www.w3.org/2000/svg">
<g clip-path="url(#clip0_42_61372)">
<path d="M163.165 549.868C160.484 561.152 156.76 616.365 155.195 632.845C153.631 649.325 161.489 653.515 177.969 659.79C194.449 666.065 201.507 665.283 213.276 661.354C225.044 657.425 227.391 664.483 239.159 645.656C250.928 626.83 255.639 616.626 262.697 611.132C262.697 611.132 165.847 538.583 163.165 549.868Z" fill="#CFA7CD"/>
<path d="M208.564 573.537C225.882 602.121 224.672 627.967 219.048 660.052C226.255 659.158 229.607 660.927 239.159 645.658C250.928 626.832 255.639 616.627 262.697 611.134C262.697 611.134 237.409 592.047 208.564 573.537Z" fill="#B491B2"/>
<path d="M187.373 658.99C187.373 649.567 179.459 640.555 168.491 643.683C157.504 646.812 150.037 670.703 154.73 671.485C159.422 672.267 187.373 664.483 187.373 658.99Z" fill="#EFEFEF"/>
<path d="M236.72 651.224C235.901 649.027 228.173 644.092 221.897 646.438C215.622 648.785 208.341 659.064 209.924 661.41C211.488 663.756 227.614 675.488 230.742 674.706C233.889 673.924 239.085 657.5 236.72 651.224Z" fill="#EFEFEF"/>
<path d="M187.373 658.989C187.373 653.18 184.357 647.519 179.459 644.781C177.225 655.489 171.284 663.719 163.798 670.181C173.631 667.816 187.373 662.844 187.373 658.989Z" fill="#C9CACA"/>
<path d="M236.72 651.225C235.938 649.139 229.011 644.633 222.959 646.122C226.162 654.744 231.99 664.371 231.525 674.204C234.653 671.336 238.88 656.997 236.72 651.225Z" fill="#C9CACA"/>
<path d="M603.152 554.654C606.597 572.326 609.428 604.857 610.992 618.972C612.556 633.087 610.21 662.118 601.588 667.611C592.966 673.105 557.66 674.129 549.82 671.783C541.981 669.436 542.633 658.394 529.411 640.946C516.19 623.497 599.707 536.982 603.152 554.654Z" fill="#CFA7CD"/>
<path d="M610.992 618.973C609.428 604.858 606.597 572.326 603.152 554.655C600.601 541.545 553.992 585.752 535.482 616.59C548.591 633.163 565.015 657.184 563.414 672.975C576.989 673.087 595.629 671.411 601.569 667.631C610.191 662.138 612.556 633.107 610.973 618.992L610.992 618.973Z" fill="#B491B2"/>
<path d="M541.962 659.771C534.234 659.771 517.791 679.454 522.503 680.236C527.214 681.019 550.714 675.507 554.643 672.378C558.572 669.25 546.673 659.771 541.981 659.771H541.962Z" fill="#EFEFEF"/>
<path d="M588.236 655.844C578.535 659.084 570.974 669.959 574.903 672.324C578.833 674.67 608.645 684.874 610.21 681.746C611.774 678.618 597.659 652.715 588.236 655.862V655.844Z" fill="#EFEFEF"/>
<path d="M611.55 643.459C613.897 645.805 632.965 660.553 629.036 662.118C625.107 663.682 606.728 659.343 606.728 659.343L611.55 643.459Z" fill="#C9CACA"/>
<path d="M610.21 681.727C611.774 678.598 597.659 652.696 588.236 655.843C585.555 656.737 583.06 658.208 580.918 659.921C590.955 665.675 598.311 674.092 606.057 682.136C608.329 682.453 609.875 682.378 610.21 681.727Z" fill="#C9CACA"/>
<path d="M353.383 622.12C317.909 607.242 285.657 631.282 285.657 631.282C285.657 643.051 282.287 678.599 279.922 696.643C277.575 714.687 278.357 731.167 282.268 737.443C286.197 743.718 301.876 757.833 314.427 757.833C326.978 757.833 348.951 756.269 352.08 753.122C355.227 749.994 359.919 742.918 365.413 724.091C370.906 705.265 382.675 686.439 387.386 673.888C387.386 673.888 388.838 636.98 353.364 622.12H353.383Z" fill="#CFA7CD"/>
<path d="M328.654 636.625C363.457 658.375 345.711 709.118 337.76 756.547C344.799 755.765 350.627 754.629 352.117 753.121C355.264 749.992 359.956 742.916 365.45 724.09C370.943 705.264 382.712 686.437 387.423 673.886C387.423 673.886 398.708 656.643 328.654 636.625Z" fill="#B491B2"/>
<path d="M281.504 735.077C279.028 736.436 265.415 751.873 262.846 758.446C261.188 762.711 293.273 753.921 296.401 752.339C299.53 750.774 284.558 733.401 281.504 735.077Z" fill="#EFEFEF"/>
<path d="M318.375 736.642C311.075 738.113 297.984 749.193 300.331 753.122C302.677 757.051 314.446 772.73 318.375 771.166C322.304 769.602 336.177 757.274 336.177 753.345C336.177 749.416 322.304 735.86 318.375 736.642Z" fill="#EFEFEF"/>
<path d="M361.521 741.353C361.521 741.353 373.978 765.449 371.632 768.596C369.286 771.743 347.778 759.397 345.041 754.704C342.676 750.626 358.746 735.841 361.521 741.371V741.353Z" fill="#C9CACA"/>
<path d="M287.817 738.82C284.279 747.61 277.054 754.555 268.414 759.341C277.389 758.205 294.186 753.457 296.402 752.339C298.45 751.315 292.826 743.625 287.798 738.839L287.817 738.82Z" fill="#C9CACA"/>
<path d="M336.177 753.344C336.177 751.035 331.373 745.411 326.624 741.314C327.592 750.495 326.103 759.824 322.565 768.464C328.133 764.2 336.177 756.342 336.177 753.363V753.344Z" fill="#C9CACA"/>
<path d="M608.645 543.668C605.517 535.047 581.7 441.195 501.684 384.716L427.831 348.274L300.554 358.05C300.554 358.05 301.913 369.521 294.856 388.347C276.03 373.45 227.391 310.677 221.897 305.184C216.404 299.691 208.564 306.748 211.693 316.953C215.063 330.155 225.994 389.818 227.242 420.879C213.909 422.443 196.796 418.942 185.809 420.506C174.822 422.071 171.694 427.564 175.604 444.044C179.534 460.524 186.256 474.341 182.029 484.992C179.143 492.292 159.907 522.496 158.342 527.989C156.778 533.483 156.555 551.825 173.24 560.93C188.36 569.18 208.546 576.61 218.732 582.103C228.936 587.596 250.109 609.551 256.384 610.352C262.473 611.115 267.334 611.227 271.914 611.953C275.713 615.528 274.242 612.028 278.842 619.7C294.856 646.477 592.929 564.078 592.929 564.078C603.133 555.456 611.755 552.309 608.627 543.687L608.645 543.668Z" fill="#CFA7CD"/>
<path d="M292.361 582.66C263.684 591.617 246.645 576.385 231.413 557.559C228.21 568.769 230.277 576.292 220.743 583.535C231.711 591.692 251.077 609.68 256.403 610.332C262.492 611.095 267.352 611.207 271.933 611.933C275.732 615.508 274.261 612.008 278.86 619.68C282.957 626.532 306.029 598.582 292.361 582.66Z" fill="#B491B2"/>
<path d="M380.421 551.787C377.219 562.997 373.029 575.716 358.467 576.963C365.264 582.028 381.166 598.303 389.062 604.448C390.7 593.089 383.717 555.865 380.421 551.787Z" fill="#B491B2"/>
<path d="M293.329 387.08C273.534 370.227 227.242 310.546 221.897 305.183C218.974 302.259 215.38 302.911 213.127 305.704C220.724 307.939 239.476 344.772 287.333 403.076C293.18 398.904 291.243 393.746 293.31 387.08H293.329Z" fill="#B491B2"/>
<path d="M224.821 420.115C211.488 421.679 196.796 418.942 185.809 420.506C183.239 420.878 181.098 421.474 179.385 422.368C194.449 425.813 203.35 426.912 222.922 437.786C227.279 427.787 224.821 420.115 224.821 420.115Z" fill="#B491B2"/>
<path d="M608.645 543.668C605.517 535.046 581.7 441.194 501.684 384.716L427.832 348.273L381.427 351.83C461.294 395.739 512.931 472.683 559.429 551.34C563.135 557.504 565.779 564.077 567.716 570.855C583.432 566.684 592.966 564.058 592.966 564.058C603.171 555.437 611.793 552.29 608.664 543.668H608.645Z" fill="#B491B2"/>
<path d="M396.231 379.874C437.831 433.28 508.872 488.697 505.669 463.13C500.865 424.807 502.764 381.196 501.982 364.716C501.2 348.236 504.161 325.294 501.014 319.801C497.867 314.308 494.105 316.952 490.195 325.574C486.265 334.195 476.862 359.297 473.715 363.226C465.875 334.195 449.395 246.339 447.831 240.846C446.267 235.353 443.12 226.731 438.408 229.077C431.388 232.578 429.787 236.135 428.986 243.192C428.204 250.25 429.768 316.933 410.16 335.759C399.955 320.062 379.956 281.18 377.61 277.251C375.263 273.322 369.416 272.242 369.044 284.104C368.634 296.561 368.839 311.626 368.839 311.626C368.839 311.626 375.412 353.133 396.231 379.855V379.874Z" fill="#CFA7CD"/>
<path d="M473.715 363.246C465.875 334.215 449.395 246.359 447.831 240.866C446.267 235.372 443.12 226.751 438.408 229.097C440.55 230.847 441.388 237.923 441.686 242.151C442.524 254.18 443.157 335.947 465.447 380.545C469.376 371.774 476.843 359.335 473.715 363.264V363.246Z" fill="#B491B2"/>
<path d="M501.014 319.801C498.928 316.151 496.582 316.114 494.086 319C500.25 321.104 477.476 465.569 506.526 466.743C502.187 429.295 502.261 380.581 501.498 364.641C500.716 348.161 504.161 325.313 501.032 319.82L501.014 319.801Z" fill="#B491B2"/>
<path d="M397.143 336.15C402.357 343.543 407.441 341.494 410.197 337.882C399.583 320.638 379.825 280.937 377.628 277.269C375.282 273.34 369.602 273.414 369.602 280.379C371.129 278.517 373.085 282.986 377.87 294.736C382.656 306.486 391.948 328.757 397.162 336.15H397.143Z" fill="#B491B2"/>
<path d="M428.986 479.33C417.85 472.403 420.104 437.748 421.686 415.012C423.809 384.324 398.894 380.543 387.851 349.874C380.794 330.266 372.824 311.402 359.174 299.708C327.462 272.483 283.944 225.371 278.45 220.679C272.957 215.967 268.674 221.684 272.603 231.87C276.532 242.075 298.58 270.547 300.144 290.174C288.376 291.738 270.536 284.029 265.043 280.882C259.55 277.735 255.621 288.721 265.825 296.579C276.03 304.419 295.638 329.521 303.478 370.32C311.317 411.12 313.682 440.132 314.464 447.99C315.246 455.83 322.304 465.252 331.726 470.746C341.149 476.239 364.407 490.112 372.265 501.08C372.265 501.08 440.14 486.294 429.005 479.367L428.986 479.33Z" fill="#CFA7CD"/>
<path d="M265.043 280.864C260.853 278.462 258.768 284.365 265.304 289.151C271.84 293.937 284.391 301.851 296.867 298.108C299.009 297.4 299.772 294.197 299.381 290.231C287.612 291.385 270.425 283.956 265.043 280.883V280.864Z" fill="#B491B2"/>
<path d="M342.303 300.9C364.053 314.382 394.518 386.614 405.393 398.364C416.268 410.115 409.247 435.458 416.715 470.15C417.832 475.327 428.055 483.818 424.48 473.725C418.595 461.175 420.383 433.969 421.686 415.012C423.698 385.907 398.41 379.836 388.205 351.476C381.148 331.867 372.824 311.402 359.174 299.708C327.462 272.484 283.944 225.372 278.451 220.679C274.428 217.234 272.231 217.197 272.25 222.597C297.128 245.203 320.554 287.437 342.303 300.919V300.9Z" fill="#B491B2"/>
<path d="M366.53 477.32C366.53 477.32 344.836 467.004 334.631 459.146C324.427 451.306 322.174 432.219 320.74 417.359C317.798 386.932 322.304 333.414 322.304 333.414C322.304 333.414 351.26 337.92 378.727 370.08C406.175 402.239 410.327 464.583 407.962 482.627L388.913 454.044L391.333 470.691C391.333 470.691 373.178 451.567 373.178 454.695C373.178 457.824 377.833 473.075 377.833 473.075L361.874 461.325L366.53 477.283V477.32Z" fill="#00A094"/>
<path d="M378.727 370.097C351.279 337.938 322.304 333.432 322.304 333.432C322.304 333.432 321.019 348.757 320.256 367.658C350.162 356.671 388.708 425.626 395.058 462.404L407.944 482.645C410.29 464.601 406.156 402.275 378.708 370.097H378.727Z" fill="#008C81"/>
<path d="M427.031 636.402C432.99 619.754 567.883 587.818 567.883 587.818C563.172 594.876 547.66 628.357 542.167 635.415C536.674 642.472 520.492 657.462 511.851 662.956C503.23 668.449 482.15 679.938 475.875 680.218C454.237 681.13 444.665 673.887 444.665 673.887C444.665 673.887 421.053 653.049 427.012 636.402H427.031Z" fill="#CFA7CD"/>
<path d="M529.057 648.971C534.532 643.906 539.56 638.767 542.167 635.415C547.66 628.357 563.172 594.876 567.883 587.818C567.883 587.818 432.99 619.773 427.031 636.402C421.072 653.049 444.684 673.887 444.684 673.887C444.684 673.887 447.905 676.289 454.777 678.151C450.848 665.526 514.142 638.059 529.076 648.952L529.057 648.971Z" fill="#B491B2"/>
<path d="M210.352 507.225C201.172 509.459 195.511 520.297 195.511 530.26C195.511 545.157 197.932 564.765 208.136 559.272C218.341 553.778 220.314 547.577 219.532 536.591C218.75 525.604 219.439 504.99 210.352 507.206V507.225Z" fill="#935F83"/>
<path d="M251.71 476.203C249.904 487.934 244.653 508.362 252.492 517.002C260.332 525.642 277.482 535.363 280.592 527.393C283.925 518.79 287.687 487.748 283.869 478.568C277.557 463.335 273.944 446.539 264.633 449.406C252.79 453.075 253.274 465.998 251.71 476.203Z" fill="#935F83"/>
<path d="M319.567 499.684C312.788 506.462 310.684 516.481 312.248 519.628C313.813 522.756 319.418 539.217 321.783 540C324.129 540.782 336.419 543.649 337.983 541.303C339.547 538.957 339.547 507.561 335.637 504.433C331.708 501.304 323.496 495.755 319.567 499.684Z" fill="#935F83"/>
<path d="M268.395 561.059C262.92 554.206 254.447 553.164 252.492 556.218C250.686 559.067 252.455 570.575 254.838 574.262C258.526 579.923 264.801 580.667 269.494 579.885C274.205 579.103 271.523 564.97 268.395 561.059Z" fill="#935F83"/>
<path d="M309.753 648.785C308.617 649.251 297.984 651.132 297.202 661.336C296.42 671.541 294.055 683.309 297.202 685.656C300.331 688.002 301.131 699.771 307.407 698.207C313.682 696.642 321.522 694.277 323.105 690.367C324.669 686.438 327.816 678.598 324.669 668.394C321.522 658.189 310.908 648.32 309.772 648.785H309.753Z" fill="#935F83"/>
<path d="M352.117 694.278C349.342 693.458 345.208 693.868 344.352 696.717C343.495 699.566 334.855 709.975 338.784 717.815C342.713 725.655 340.348 735.859 348.206 728.802C356.046 721.744 357.629 712.322 357.629 707.629C357.629 702.937 354.91 695.097 352.135 694.296L352.117 694.278Z" fill="#935F83"/>
<path d="M352.117 694.279C350.906 693.925 350.106 693.497 348.746 693.72C346.94 704.334 345.804 719.306 342.881 730.777C343.774 733.142 344.445 732.173 348.188 728.803C356.027 721.745 357.61 712.323 357.61 707.63C357.61 702.938 354.891 695.098 352.117 694.297V694.279Z" fill="#7F5172"/>
<path d="M577.883 615.77C570.825 620.481 568.647 630.741 567.064 635.452C565.5 640.164 568.442 655.228 570.788 653.664C573.134 652.1 582.538 642.305 582.538 638.376C582.538 634.447 586.672 629.177 585.108 624.466C583.544 619.755 577.883 615.77 577.883 615.77Z" fill="#7F5172"/>
<path d="M606.281 584.467C602.351 582.121 597.659 580.538 595.294 586.813C592.948 593.089 589.018 601.71 592.948 606.421C596.877 611.133 600.787 622.901 603.152 622.901C605.517 622.901 610.992 616.626 610.992 616.626L606.281 584.467Z" fill="#7F5172"/>
<path d="M509.71 579.643C512.507 579.643 514.775 576.425 514.775 572.455C514.775 568.486 512.507 565.268 509.71 565.268C506.912 565.268 504.645 568.486 504.645 572.455C504.645 576.425 506.912 579.643 509.71 579.643Z" fill="white"/>
<path d="M388.987 674.669C396.827 670.74 411.743 665.265 410.961 659.772C410.178 654.278 396.063 615.062 378.801 596.235C361.539 577.409 329.25 548.881 316.829 554.654C298.32 563.275 288.581 591.524 283.106 600.947C277.613 610.369 278.395 624.484 283.888 629.977C289.381 635.471 315.023 637.966 331.745 641.746C378.522 652.342 389.006 674.687 389.006 674.687L388.987 674.669Z" fill="#CFA7CD"/>
<path d="M378.783 596.235C374.705 591.785 369.77 586.776 364.463 581.822C365.897 604.224 379.118 650.554 362.079 652.174C383.345 662.732 388.969 674.669 388.969 674.669C396.808 670.74 411.724 665.265 410.942 659.772C410.16 654.278 396.045 615.062 378.783 596.235Z" fill="#B491B2"/>
<path d="M532.54 485.624C550.602 465.886 551.273 457.134 552.837 422.833C553.619 405.571 573.432 394.472 591.383 373.43C611.159 350.228 610.657 317.156 638.123 301.216C670.934 282.167 757.114 212.094 759.33 210.847C766.238 206.973 769.646 212.709 763.259 222.82C756.853 232.932 718.847 268.815 712.963 289.522C729.443 284.811 754.023 274.513 760.615 272.316C767.188 270.119 766.797 276.655 759.647 282.241C748.548 290.937 719.946 321.179 702.758 363.263C685.589 405.366 682.014 443.782 679.5 452.031C676.986 460.281 662.703 472.589 651.419 476.463C640.116 480.336 592.277 498.399 580.974 519.664C580.974 519.664 519.84 499.535 532.54 485.643V485.624Z" fill="#CFA7CD"/>
<path d="M761.9 207.644C761.248 208.017 767.169 212.169 751.081 226.601C728.772 246.638 696.985 292.763 709.052 298.964C711.771 300.36 715.812 293.117 733.8 282.465C726.631 285.109 719.219 287.698 712.963 289.485C718.847 268.778 756.853 232.895 763.259 222.784C769.665 212.672 768.808 203.753 761.9 207.626V207.644Z" fill="#B491B2"/>
<path d="M760.634 272.28C761.155 274.831 745.066 283.062 733.558 295.128C717.935 311.497 707.656 334.792 694.192 367.044C677.601 406.782 683.392 451.139 662.182 464.248C645.441 474.583 634.79 478.14 634.12 483.13C641.792 479.871 648.179 477.544 651.456 476.408C662.759 472.535 677.023 460.226 679.537 451.977C682.07 443.727 685.626 405.311 702.795 363.208C719.964 321.124 746.612 290.901 758.753 283.732C765.587 279.691 767.225 270.064 760.652 272.261L760.634 272.28Z" fill="#B491B2"/>
<path d="M600.471 488.827C600.471 488.827 647.825 464.433 660.487 458.195C673.131 451.957 675.925 421.064 678.979 405.012C686.651 364.92 691.12 337.956 684.733 324.009C684.733 324.009 659.37 321.625 625.796 353.58C577.827 399.239 560.546 464.172 559.206 484.041L579.41 464.47L571.533 481.155C571.533 481.155 590.918 463.129 590.247 466.5C589.577 469.87 584.028 484.507 584.028 484.507L594.921 477.319L583.246 499.795L600.471 488.827Z" fill="#00A094"/>
<path d="M684.342 375.405C688.271 351.346 689.388 334.214 684.733 324.028C684.733 324.028 659.37 321.645 625.796 353.599C578.833 398.309 561.291 461.473 559.317 482.739C577.175 431.306 653.56 351.737 684.323 375.424L684.342 375.405Z" fill="#008C81"/>
<path d="M523.899 609.085C511.982 607.092 451.593 665.545 451.593 665.545C453.157 669.381 468.333 674.241 474.739 672.212C491.573 666.886 518.425 639.363 523.918 633.87C523.918 633.87 535.817 611.059 523.899 609.066V609.085Z" fill="#EE869A"/>
<path d="M523.899 609.085C511.982 607.092 451.593 665.545 451.593 665.545C452.375 667.482 456.62 669.66 461.443 671.094C457.533 661.225 487.699 651.114 502.82 653.758C512.652 645.304 521.106 636.682 523.918 633.87C523.918 633.87 535.817 611.059 523.899 609.066V609.085Z" fill="#CF7487"/>
<path d="M520.715 622.641C521.423 625.881 524.7 640.946 527.046 641.728C529.393 642.51 536.45 622.902 542.726 600.146C542.726 600.146 519.989 619.401 520.697 622.641H520.715Z" fill="white"/>
<path d="M520.715 622.641C520.901 623.479 521.255 625.118 521.721 627.092C526.6 625.323 530.324 627.576 532.875 631.207C535.836 623.479 539.392 612.269 542.726 600.146C542.726 600.146 519.989 619.401 520.697 622.641H520.715Z" fill="#DCDDDD"/>
<path d="M415.169 488.548C438.483 452.702 565.537 457.096 587.473 512.29C592.668 551.302 596.095 566.423 592.184 575.045C588.255 583.666 576.337 583.406 561.068 591.227C541.683 601.17 530.696 608.749 512.317 632.603C507.531 638.823 505.036 636.774 493.342 640.145C472.672 646.104 444.684 665.396 440.755 681.093C437.477 680.851 434.088 679.902 429.917 678.542C418.949 674.93 407.292 666.997 407.534 652.547C401.259 639.214 393.531 637.594 388.038 628.171C382.544 618.768 384.053 604.019 385.375 590.724C386.567 578.787 379.583 562.475 376.436 553.853C373.289 545.232 374.872 538.174 375.654 528.752C375.896 525.847 377.479 515.307 376.474 506.872C376.474 506.872 389.099 503.836 415.169 488.548Z" fill="#CFA7CD"/>
<path d="M459.358 556.311C474.143 542.829 483.1 519.85 467.197 512.364C456.657 507.411 446.844 514.394 438.539 521.414C430.01 528.621 455.633 563.759 459.358 556.311Z" fill="#B491B2"/>
<path d="M408.447 594.596C411.594 587.651 411.892 576.403 409.322 563.275C407.776 555.436 396.659 545.212 393.829 544.784C387.591 543.816 393.14 547.242 398.652 558.936C405.449 573.368 404.089 604.168 408.447 594.596Z" fill="#B491B2"/>
<path d="M531.627 530.334C512.261 536.796 498.612 547.41 491.982 560.65C475.744 593.144 480.884 622.808 486.75 604.093C491.256 589.662 518.965 547.708 526.041 542.438C536.972 534.3 542.074 526.852 531.627 530.334Z" fill="#B491B2"/>
<path d="M587.454 512.291C584.065 509.424 582.482 515.42 579.875 519.759C576.877 547.784 572.483 581.973 548.107 591.544C523.751 601.116 515.036 615.473 502.429 628.098C489.804 640.723 461.592 622.53 445.429 651.598C438.39 664.242 437.478 680.61 441.407 680.908C445.336 665.229 472.635 646.123 493.323 640.165C505.017 636.794 507.513 638.824 512.298 632.623C530.678 608.788 541.646 601.209 561.049 591.246C576.319 583.407 588.236 583.686 592.166 575.064C596.095 566.442 592.65 551.303 587.454 512.31V512.291Z" fill="#B491B2"/>
<path d="M379.062 558.937C381.986 562.344 394.816 581.282 394.034 596.775C392.693 596.403 385.58 591.45 383.271 585.751C380.254 578.321 379.043 558.918 379.043 558.918L379.062 558.937Z" fill="white"/>
<path d="M530.193 538.175C516.86 549.161 493.323 573.481 487.048 601.711C501.163 597 525.668 581.302 528.48 576.33C533.434 567.559 530.193 538.156 530.193 538.156V538.175Z" fill="white"/>
<path d="M531.087 550.967C530.808 543.853 530.175 538.174 530.175 538.174C516.842 549.16 493.304 573.48 487.029 601.71C489.152 601.002 488.835 600.667 491.331 599.531C498.779 580.333 512.727 562.251 531.087 550.967Z" fill="#DCDDDD"/>
<path d="M458.911 526.276C445.149 515.68 381.576 480.747 368.839 473.075C350.59 462.069 355.413 474.62 358.839 480.076C365.394 490.467 406.268 549.981 415.653 561.712C435.466 586.479 476.042 553.612 458.911 526.276Z" fill="#CFA7CD"/>
<path d="M461.201 549.794C463.976 542.513 463.845 534.17 458.911 526.275C445.149 515.679 381.576 480.746 368.839 473.074C367.517 472.273 366.325 471.621 365.226 471.062C399.639 494.488 431.072 520.633 461.182 549.794H461.201Z" fill="#B491B2"/>
<path d="M477.513 497.691C474.702 492.086 485.465 480.895 491.74 477.766C498.016 474.619 516.712 467.394 518.276 472.887C519.84 478.381 515.278 482.477 508.22 495.81C501.163 509.143 499.747 513.017 493.472 509.87C487.197 506.723 480.661 503.967 477.513 497.691Z" fill="#935F83"/>
<path d="M420.364 504.451C427.422 501.323 443.902 498.176 445.466 503.669C447.03 509.162 446.751 519.05 446.751 519.05L420.364 504.451Z" fill="#935F83"/>
<path d="M384.108 566.012C377.069 580.239 385.524 592.399 393.568 595.993C395.467 586.831 384.648 564.914 384.108 566.012Z" fill="#0E141B"/>
<path d="M156.76 632.976L158.529 612.493C160.335 590.799 163.258 561.247 165.009 553.072L160.689 547.746C159.05 555.381 157.244 589.533 154.73 613.089L152.719 636.459C152.514 644.428 154.488 648.786 158.603 652.175C159.385 651.002 160.167 650.369 160.949 649.009C157.3 645.341 156.033 640.592 156.76 632.958V632.976Z" fill="#0E141B"/>
<path d="M187.69 660.386C186.498 661.485 184.412 661.485 182.923 662.229C195.38 666.345 202.363 665.823 211.171 663.161C210.631 662.229 210.203 661.187 209.588 660.33C202.512 662.397 196.069 662.36 187.671 660.386H187.69Z" fill="#0E141B"/>
<path d="M257.297 612.083C252.976 617.111 252.418 620.611 245.938 631.449L237.8 644.819C236.739 646.514 235.77 647.966 234.876 649.251C235.379 650.331 237.316 651.542 238.061 652.38C239.104 650.853 240.239 649.102 241.543 647.017L249.699 633.069C255.975 622.567 258.712 617.278 264.652 611.58L257.278 612.083H257.297Z" fill="#0E141B"/>
<path d="M167.988 641.914C156.275 645.713 147.859 671.336 150.503 673.571C154.395 676.848 187.615 666.253 188.9 660.443C190.092 655.005 186.219 646.849 182.01 643.684C178.174 640.779 172.886 640.35 168.007 641.933L167.988 641.914ZM154.935 670.294C152.533 667.575 160.707 647.166 168.826 644.857C174.208 643.33 178.118 644.615 180.39 646.346C184.003 649.065 187.187 655.508 186.163 658.99C185.139 662.473 157.337 673.012 154.935 670.294Z" fill="#0E141B"/>
<path d="M221.339 644.801C209.682 649.177 207.093 661.467 207.875 662.659C210.464 666.551 228.173 678.692 232.139 678.208C236.329 677.686 241.133 654.819 237.968 649.289C236.348 646.458 227.018 642.697 221.339 644.82V644.801ZM210.911 660.741C210.911 660.741 210.911 660.685 210.911 660.573C210.911 660.313 210.985 659.773 211.395 658.804C213.127 654.801 218.173 649.14 222.326 647.576C227.987 645.453 235.007 650.09 235.584 651.654C237.074 655.601 235.193 664.856 232.53 670.48C231.45 672.77 230.705 674.335 227.093 672.621C223.48 670.908 212.642 663.311 210.929 660.741H210.911Z" fill="#0E141B"/>
<path d="M610.023 643.442C610.023 643.442 629.054 658.804 628.216 661.095C627.379 663.367 613.71 659.773 607.007 658.19L606.429 661.113C609.483 662.082 618.999 664.037 625.61 664.633C632.648 665.266 634.641 663.683 628.347 656.439C621.14 648.581 611.737 641.729 611.737 641.729L610.023 643.442Z" fill="#0E141B"/>
<path d="M539.746 654.764C537.903 650.909 536.916 646.198 535.035 643.256C534.29 643.963 532.633 645.602 531.776 646.254C533.508 649.028 535.221 652.604 536.897 656.123C537.363 657.11 537.828 658.078 538.294 659.047C539.206 658.73 540.268 658.637 541.59 658.6C540.957 657.315 540.342 656.03 539.746 654.764Z" fill="#0E141B"/>
<path d="M572.669 671.168C565.779 671.466 559.168 671.391 554.681 670.963C554.588 672.192 554.383 673.179 553.88 674.054C559.429 674.613 568.014 674.65 576.617 674.091C575.295 673.253 573.73 672.434 572.669 671.168Z" fill="#0E141B"/>
<path d="M613.096 618.804L611.439 604.857C609.707 586.794 607.789 560.631 605.815 554.076L602.072 556.46C603.953 562.717 606.411 588.265 608.031 605.173L609.427 619.177C611.197 635.098 608.161 655.488 602.575 664.501C603.543 665.581 604.493 666.252 604.66 667.741C611.997 659.399 614.79 634.055 613.096 618.823V618.804Z" fill="#0E141B"/>
<path d="M520.585 676.718C518.257 681.895 519.616 682.453 526.059 682.062C536.636 681.41 556.058 676.42 557.008 672.23C557.846 668.543 547.325 657.072 541.366 657.072C535.407 657.072 523.694 669.772 520.566 676.736L520.585 676.718ZM541.962 660.983C545.035 660.983 554.55 668.655 553.88 671.429C553.191 674.204 525.035 681.559 522.894 679.046C521.925 677.91 533.322 660.964 541.962 660.964V660.983Z" fill="#0E141B"/>
<path d="M592.426 653.999C585.816 652.658 571.589 663.03 571.272 671.559C571.142 675.078 594.437 681.894 607.118 683.607C611.048 684.147 615.088 684.631 609.688 674.054C604.381 663.645 597.082 654.967 592.408 654.017L592.426 653.999ZM575.537 671.279C575.388 671.186 574.978 670.944 575.09 669.92C575.443 666.754 581.793 658.561 589.745 656.345C597.044 654.334 610.079 678.802 609.13 681.018C608.199 683.178 580.117 674.035 575.537 671.279Z" fill="#0E141B"/>
<path d="M610.526 540.204C607.398 529.496 601.458 513.501 596.728 502.16C595.275 503.203 594.828 505.493 593.525 506.518C597.957 517.113 604.94 536.964 605.889 540.595C607.994 548.639 608.887 549.812 598.664 557.447L592.873 561.413L594.028 565.324L600.675 560.129C610.191 553.015 613.859 551.6 610.526 540.185V540.204Z" fill="#0E141B"/>
<path d="M502.168 381.848L501.647 386.41C517.307 397.471 534.96 415.552 552.465 438.066C552.465 435.943 552.055 432.125 552.465 430.114C533.173 406.223 517.251 392.499 502.168 381.848Z" fill="#0E141B"/>
<path d="M183.09 418.028C174.115 419.313 168.659 424.658 173.388 444.489C173.388 444.489 183.463 476.798 180.893 483.129C174.822 498.1 156.052 519.999 155.251 529.049C154.376 538.937 155.493 554.244 170.893 563.164C179.701 568.266 191.917 571.897 201.283 575.882C207.745 578.619 213.573 582.549 217.745 584.783C222.251 587.204 229.42 592.846 236.087 598.563C246.198 607.203 250.705 612.529 255.602 614.447C260.499 616.365 272.119 613.535 272.119 613.535L269.847 609.68C269.847 609.68 260.853 611.281 257.297 610.183C253.74 609.084 245.416 601.319 238.135 595.099C231.338 589.29 224.299 583.256 219.495 580.668C215.194 578.359 209.328 575.845 202.512 572.959C193.22 568.992 182.662 564.504 174.04 559.514C160.335 551.581 159.273 534.915 160.838 527.839C162.867 518.603 179.496 495.605 184.431 484.525C193.164 464.973 188.509 461.137 184.915 474.582C184.319 466.817 177.131 443.633 177.131 443.633C173.705 429.22 175.977 423.466 186.014 422.032C191.284 421.287 218.49 423.876 225.361 423.056L224.616 418.494C217.987 419.276 188.639 417.19 183.053 417.991L183.09 418.028Z" fill="#0E141B"/>
<path d="M250.649 595.062C250.649 595.062 277.892 619.94 278.506 622.976L279.288 617.091C273.795 611.598 253.032 591.059 253.032 591.059C224.728 563.313 221.264 511.936 226.255 484.581C228.042 474.731 225.249 476.183 223.275 484.879C217.298 511.154 220.631 568.508 250.667 595.062H250.649Z" fill="#0E141B"/>
<path d="M281.504 696.847C283.758 679.53 288.599 645.49 288.599 633.199L283.441 630.127C283.441 642.287 280.071 679.176 277.817 696.419C275.657 712.955 275.285 728.467 278.041 736.455C279.233 735.729 281.486 735.059 282.696 734.705C279.884 727.815 279.363 713.16 281.486 696.829L281.504 696.847Z" fill="#0E141B"/>
<path d="M344.24 753.085C341.987 753.476 339.342 753.811 336.456 754.109C335.842 755.245 335.283 756.4 334.65 757.461C339.156 757.051 343.57 756.493 347.052 755.729C346.028 754.873 345.059 754.016 344.259 753.066L344.24 753.085Z" fill="#0E141B"/>
<path d="M386.585 672.677C384.146 678.096 367.349 711.949 363.923 723.644C361.595 731.632 359.733 736.735 357.331 741.669C358.69 740.868 360.143 741.52 361.744 741.055C363.681 736.511 365.897 728.634 368.206 721.353C370.496 714.072 387.944 678.692 390.44 673.105L386.566 672.658L386.585 672.677Z" fill="#0E141B"/>
<path d="M300.275 751.446C299.139 750.776 298.04 750.068 296.96 749.305C297.78 750.72 294.428 753.252 294.167 753.346C295.303 754.016 299.362 755.003 300.536 755.58C299.958 754.221 299.474 752.973 300.275 751.428V751.446Z" fill="#0E141B"/>
<path d="M342.154 753.476C341.968 757.536 361.781 768.69 368.988 770.44C372.991 771.409 374.593 771.26 374.053 766.381C373.457 760.981 366.846 744.817 362.936 740.944C356.269 734.333 342.359 749.286 342.154 753.495V753.476ZM359.807 741.968C362.079 742.657 371.762 764.947 370.087 766.79C368.727 768.28 347.294 758.132 345.935 753.83C345.003 750.925 355.674 740.72 359.807 741.968Z" fill="#0E141B"/>
<path d="M280.611 733.197C278.078 734.575 266.756 746.902 262.473 754.704C258.414 762.134 260.965 762.674 265.713 762.321C276.179 761.538 298.729 754.928 298.86 752.265C299.102 747.144 285.285 730.627 280.611 733.178V733.197ZM282.044 736.176C286.253 735.934 296.346 749.379 295.619 751.352C294.893 753.308 265.881 760.57 264.298 758.298C262.697 756.026 279.437 736.344 282.063 736.176H282.044Z" fill="#0E141B"/>
<path d="M318.319 735.077C310.926 734.947 298.133 748.466 297.798 751.613C297.258 756.752 313.459 774.778 317.481 774.648C320.498 774.536 338.43 758.13 338.43 753.345C338.43 749.341 326.14 735.207 318.3 735.077H318.319ZM334.966 753.345C334.966 756.268 322.099 768.372 317.928 770.048C315.563 770.998 301.504 755.542 301.373 752.507C301.243 749.471 312.695 738.317 318.617 737.833C322.565 737.032 334.966 749.695 334.966 753.345Z" fill="#0E141B"/>
<path d="M408.167 662.453C405.318 665.358 397.814 668.99 394.63 670.479C389.844 672.714 388.969 670.703 384.22 665.824C378.168 659.586 369.174 650.685 338.002 641.746C327.63 638.767 291.076 634.931 284.987 628.842C278.767 622.604 277.873 615.528 288.525 593.647C292.547 585.379 303.329 563.462 317.481 556.87C328.3 551.842 359.156 577.149 377.628 597.297C379.639 599.494 381.595 601.971 383.513 604.653C383.587 603.163 383.773 601.673 384.164 600.183C382.786 598.396 381.371 596.701 379.956 595.156C364.035 577.782 329.753 545.362 315.693 551.917C300.517 558.993 291.504 576.925 285.043 590.128C272.585 615.583 275.49 626.142 281.691 632.343C287.165 637.817 318.803 641.467 331.373 644.316C362.396 651.337 376.846 662.547 382.917 669.641C390.03 677.965 390.998 678.822 411.408 664.818C410.178 664.185 408.875 663.608 408.167 662.453Z" fill="#0E141B"/>
<path d="M213.76 301.609C210.296 303.694 206.609 310.491 208.825 317.698C214.784 337.064 228.806 405.293 222.977 432.033C219.085 449.928 223.629 440.86 226.255 432.685C234.299 407.807 216.478 326.841 213.294 316.45C211.693 311.217 213.331 306.972 215.808 305.501C217.428 304.532 219.179 304.83 220.705 306.376C222.177 307.847 227.297 314.122 233.778 322.055C251.114 343.283 278.935 378.441 292.64 389.278C292.64 389.278 290.182 397.081 288.394 400.06C286.607 403.039 285.545 405.386 290.238 401.215C300.908 391.755 301.392 364.065 302.994 364.177L300.405 357.603C298.766 357.026 296.476 377.044 294.092 385.498C280.052 373.394 254.652 342.129 238.135 321.887C231.357 313.582 224.728 304.588 223.126 302.987C220.519 300.38 216.721 299.84 213.778 301.609H213.76Z" fill="#0E141B"/>
<path d="M426.267 242.765L425.988 249.729C425.485 268.034 424.703 316.189 410.234 334.27C402.786 322.446 391.278 298.052 384.257 284.849L377.908 272.931C374.332 266.954 367.759 266.619 367.256 282.261C366.865 294.607 366.157 305.612 366.157 305.761L370.534 311.608C370.534 311.459 370.347 296.432 370.738 284.16C371.055 274.477 373.755 274.049 376.194 278.108L381.52 287.977C388.931 301.906 401.277 328.051 407.758 336.859C405.113 339.857 402.32 342.52 402.823 343.264C403.344 344.028 406.92 342.427 410.067 339.633C432.561 319.727 429.768 255.483 430.699 246.172C431.63 236.862 435.764 230.586 440.606 230.475C445.913 230.344 455.224 313.209 472.113 363.636C472.113 363.636 468.631 371.792 466.08 376.653C461.574 385.256 466.192 382.258 470.27 376.113C480.567 360.601 491.722 326.244 491.722 326.244C496.47 313.694 499.543 319.559 499.636 329.354C499.766 343.022 499.524 372.109 499.301 384.213C499.059 397.974 499.729 438.42 503.099 456.52C504.719 465.253 508.63 470.281 506.675 456.594C501.777 422.257 504.608 353.171 503.919 326.542C503.546 312.409 497.14 304.923 488.724 323.433C488.724 323.433 477.756 352.408 475.372 357.268C452.133 281.05 451.574 229.208 441.909 224.944C435.951 222.318 427.236 233.938 426.267 242.709V242.765Z" fill="#0E141B"/>
<path d="M270.034 212.839C263.367 217.401 271.058 233.807 278.078 246.283C288.916 265.556 295.917 271.776 298.189 288.61C283.814 290.193 258.284 271.273 255.77 278.051C254.336 281.925 255.863 291.626 263.609 297.585C273.46 305.164 293.273 330.303 301.02 370.618C308.133 407.601 311.839 450.393 311.839 450.393C312.788 459.834 313.72 462.329 328.933 471.211C350.18 483.613 371.371 500.298 376.679 507.728L373.587 500.093C368.001 492.272 354.203 481.919 332.546 469.275C319.138 461.454 316.736 454.098 316.103 447.804C316.103 447.804 312.248 407.116 305.098 369.985C297.016 327.92 276.514 302.688 266.812 295.239C260.835 290.639 261.207 285.5 261.84 282.818C262.771 278.927 280.927 293.042 298.338 292.017C299.288 304.885 300.871 311.551 302.379 294.531C303.887 277.604 289.903 258.443 282.026 245.427C272.119 229.04 271.449 222.69 273.963 220.902C276.16 219.357 283.59 228.109 290.685 235.427C307.5 252.745 335.618 281.72 358.057 300.974C371.614 312.613 379.9 333.431 386.604 352.053C389.453 359.967 395.412 367.862 401.706 376.223C416.342 395.627 421.072 399.295 419.992 414.919C419.247 427.116 414.387 470.392 424.238 478.921C430.048 483.967 435.876 483.725 429.75 478.716C415.988 467.45 424.666 418.215 425.113 414.621C426.621 397.675 418.335 388.923 406.454 375.33C399.937 367.881 392.581 356.69 389.918 349.26C381.893 326.988 374.5 306.915 363.737 298.349C336.847 276.915 308.17 246.023 291.392 228.742C284.223 221.368 274.41 209.841 270.015 212.858L270.034 212.839Z" fill="#0E141B"/>
<path d="M381.166 369.967C353.737 337.826 331.354 332.854 319.045 330.508C308.468 328.497 306.923 331.346 320.312 334.195C320.274 334.735 316.271 389.91 319.176 420.114C320.777 436.613 323.645 453.279 333.868 461.137C339.659 465.587 348.691 470.038 355.729 473.334C355.916 472.589 354.445 470.969 355.04 470.224C348.225 466.649 340.423 462.701 335.376 458.195C326.475 450.262 323.496 433.242 321.95 417.246C321.243 409.854 320.963 401.064 320.963 391.996C320.963 367.508 322.919 341.029 323.403 334.884C329.231 336.206 354.184 343.226 377.796 370.879C400.402 397.359 407.329 445.867 407.329 471.49C407.329 474.377 407.218 476.853 407.05 479.107C403.959 474.47 391.874 456.873 390.496 455.513C389.118 454.154 387.814 452.906 387.777 455.476C387.74 458.046 389.453 464.638 390.328 468.958C385.58 463.8 376.753 455.606 374.872 454.21C372.991 452.813 372.116 453.502 372.694 457.338C373.289 461.174 374.239 465.234 375.636 470.019C371.744 467.152 361.875 458.735 360.981 460.299C360.348 461.398 362.806 466.37 364.128 470.541C365.245 470.597 365.208 470.839 366.027 471.286C365.282 468.697 364.146 465.83 364.053 464.489C363.941 463.148 376.399 472.664 376.399 472.664C376.399 472.664 379.267 477.933 377.926 472.422C376.641 467.114 374.798 458.53 375.375 457.655C375.952 456.78 384.444 465.234 390.477 471.584C390.477 471.584 393.27 477.654 392.414 472.217C391.538 466.798 389.993 458.158 390.905 459.238C391.818 460.318 405.262 479.833 406.789 482.868C406.007 489.069 407.72 486.462 408.745 482.645C414.163 462.273 406.827 400.021 381.204 370.004L381.166 369.967Z" fill="#0E141B"/>
<path d="M751.285 212.429C737.58 223.602 671.567 277.604 632.555 300.248C618.943 308.162 616.82 314.717 607.621 336.578C603.096 347.342 598.068 363.002 590.117 372.331C584.344 379.11 574.624 387.024 569.242 392.182C556.989 403.951 550.211 412.665 549.783 421.827C548.405 452.273 548.479 469.647 532.149 484.563C527.624 488.697 529.355 489.013 533.545 486.965C550.64 478.529 553.414 447.171 554.531 422.889C555.034 411.902 563.935 403.355 575.201 392.517C580.639 387.303 588.925 379.575 594.81 372.685C603.096 362.983 605.74 353.412 610.358 342.407C616.988 326.653 623.244 311.756 638.98 302.631C664.882 287.585 725.83 239.71 751.081 218.351C764.283 207.178 769.963 211.573 761.844 221.889C747.356 240.268 713.633 273.359 710.747 293.321C709.815 299.801 711.193 298.535 712.478 295.984C713.763 293.414 714.862 291.049 714.862 291.049C726.202 287.809 752.477 276.245 757.71 274.569C765.196 272.185 763.073 277.679 756.89 282.241C740.932 294.028 717.245 323.357 701.231 362.611C688.252 394.398 682.982 424.304 680.133 440.374C679.183 445.718 678.513 449.554 677.917 451.51C675.589 459.144 661.698 471.137 650.879 474.842C644.864 476.909 585.052 498.305 579.503 518.845C578.106 524.04 580.266 522.699 582.37 519.217C589.67 507.057 614.585 491.434 656.54 478.138C664.491 475.624 680.021 462.329 682.516 454.564C685.03 446.761 689.164 401.995 704.843 365.069C723.446 321.272 745.289 295.332 761.955 283.247C772.365 275.705 767.002 266.357 757.523 270.621C747.542 274.364 726.705 282.427 717.376 285.295C724.601 267.307 758.361 233.9 765.587 223.323C773.091 212.318 772.681 195 751.285 212.448V212.429Z" fill="#0E141B"/>
<path d="M621.289 354.771C576.896 401.101 557.604 456.016 558.014 483.967C558.144 493.017 560.118 491.843 560.788 483.669C564.084 480.745 575.294 469.274 575.481 469.963C575.667 470.652 572.315 477.058 570.434 480.633C568.553 484.209 569.187 484.637 572.352 482.03C575.518 479.442 588.516 467.077 588.534 468.194C588.534 469.311 585.126 479.739 582.892 484.078C580.657 488.417 581.57 488.045 583.953 486.22C586.337 484.395 590.862 481.341 592.184 480.354C593.506 479.367 582.482 497.374 581.57 501.229C580.657 505.065 585.369 498.938 594.717 493.184C609.912 483.855 648.57 465.42 661.009 459.275C672.144 453.781 677.005 428.27 679.742 411.529L681.269 402.684C686.371 376.037 689.779 356.689 689.779 341.382C689.779 333.654 688.308 327.472 687.582 325.089C694.378 325.517 692.647 322.873 684.583 322.705C676.874 322.537 650.562 324.195 621.271 354.771H621.289ZM626.634 354.455C656.577 325.945 679.928 325.107 683.876 325.2C685.738 329.614 686.576 335.293 686.576 342.295C686.576 357.285 682.87 378.197 677.787 404.788L676.26 413.708C673.615 429.946 667.768 452.534 657.731 457.468C645.218 463.651 611.681 480.857 606.522 483.538C601.364 486.201 592.314 491.992 586.393 496.368C589.205 490.968 598.161 475.997 596.597 476.034C595.033 476.052 589.633 479.367 586.467 481.471C588.162 476.89 591.16 467.151 590.769 465.066C590.378 462.98 585.611 466.835 575.276 476.108C577.603 471.174 578.553 469.758 580.527 466.09C582.501 462.422 582.184 462.049 578.59 464.712C574.996 467.375 564.494 477.281 560.77 480.875C563.675 456.202 582.687 396.297 626.634 354.473V354.455Z" fill="#0E141B"/>
<path d="M541.348 633.664C525.594 653.925 487.271 678.226 475.986 679.157C459.041 680.535 445.727 672.695 445.633 672.62L443.734 675.153C444.144 675.47 458.017 683.272 476.266 682.602C488.444 682.136 530.231 655.321 545.314 635.918C548.517 631.802 565.332 598.47 569.429 586.943L562.986 589.588C560.006 599.997 546.189 627.445 541.348 633.683V633.664Z" fill="#0E141B"/>
<path d="M527.233 640.239C524.868 639.773 522.745 621.171 522.168 619.737L519.598 623.07C520.399 627.93 521.851 634.094 523.266 638.637C526.264 648.283 528.443 647.073 532.614 637.483C537.828 625.453 542.837 604.151 543.024 602.475L539.132 604.355C533.75 625.1 529.598 640.686 527.251 640.239H527.233Z" fill="#0E141B"/>
<path d="M375.673 544.449C375.673 541.563 378.671 518.435 378.671 513.128C378.671 510.95 378.652 512.439 377.461 505.642L373.681 502.402C377.274 522.774 372.563 531.098 372.563 544.449C372.563 554.244 375.561 552.55 387.405 574.337C389.025 576.311 389.267 577.689 390.384 576.367C379.192 551.619 375.673 551.786 375.673 544.449Z" fill="#0E141B"/>
<path d="M443.995 658.339C444.311 659.586 445.149 659.475 445.187 658.525C445.429 652.473 450.363 646.477 451.183 644.857C452.002 643.237 451.723 641.803 450.047 643.088C444.889 647.036 442.691 653.088 444.013 658.339H443.995Z" fill="#0E141B"/>
<path d="M392.525 549.273C399.397 561.116 402.767 577.875 403.754 584.579C405.244 594.914 405.784 591.748 405.523 583.722C405.262 575.678 402.655 558.975 394.127 548.305C392.06 545.716 388.894 542.979 392.544 549.273H392.525Z" fill="#0E141B"/>
<path d="M475.149 594.783C475.577 596.533 476.787 596.328 476.713 594.504C476.173 581.226 477.588 562.326 489.785 547.671C492.243 544.728 491.982 543.295 488.314 546.535C475.353 557.95 471.033 577.986 475.149 594.801V594.783Z" fill="#0E141B"/>
<path d="M528.518 537.336C506.321 555.063 490.66 580.053 485.874 601.524C484.403 608.153 486.415 606.179 488.016 602.008C501.926 598.153 527.754 582.008 530.715 576.739C535.743 567.8 533.191 545.026 531.609 538.937C540.119 529.422 538.592 529.273 528.499 537.317L528.518 537.336ZM529.43 540.017C529.728 543.201 530.287 550.259 530.287 557.465C530.287 564.672 529.709 572.232 527.661 575.863C525.222 580.184 503.025 594.82 488.407 600.22C493.807 579.848 514.514 552.736 529.43 540.017Z" fill="#0E141B"/>
<path d="M511.907 556.144C498.369 570.483 491.759 587.335 491.759 587.335C493.77 590.371 497.718 592.568 501.572 592.829C504.068 592.996 507.699 592.456 510.79 588.918C518.387 580.241 519.43 567.69 513.583 555.344L511.907 556.144Z" fill="#0E141B"/>
<path d="M453.622 521.024C441.481 513.482 368.709 469.759 368.709 469.759C352.378 459.908 345.637 464.359 355.059 479.368C360.515 488.008 397.497 539.012 410.309 556.572C419.62 569.328 421.538 567.298 412.916 554.729C400.588 536.796 365.711 487.989 360.18 479.219C354.296 469.889 353.886 466.165 368.02 474.414C368.02 474.414 441.816 517.877 452.635 524.04C465.298 531.266 466.378 528.957 453.622 521.005V521.024Z" fill="#0E141B"/>
<path d="M462.02 534.357C462.43 548.081 457.123 560.427 443.976 566.386C438.185 569.011 440.103 569.7 444.609 568.136C458.985 563.164 465.875 549.85 463.771 534.189C462.747 526.498 461.89 529.925 462.02 534.357Z" fill="#0E141B"/>
<path d="M406.454 637.836C406.827 641.151 406.398 647.408 406.082 649.773C406.082 649.773 406.417 657.985 410.085 658.674C409.154 654.056 409.098 641.561 408.484 639.233C407.832 636.794 406.082 634.522 406.454 637.836Z" fill="#0E141B"/>
<path d="M513.192 572.234C513.192 574.226 511.46 576.07 509.505 576.07C508.127 576.07 505.818 575.008 505.818 572.234C505.818 570.111 507.475 568.379 509.505 568.379C511.739 568.379 513.192 570.409 513.192 572.234Z" fill="white"/>
<path d="M388.689 583.517C385.989 584.075 384.518 577.502 386.417 576.701C388.093 575.993 390.179 583.219 388.689 583.517Z" fill="white"/>
<path d="M381.893 586.814C383.01 589.979 388.913 595.212 393.438 598.359C394.872 602.847 396.212 604.299 395.412 597.726C393.047 578.415 388.317 568.285 376.455 550.818C377.014 564.617 379.639 580.389 381.893 586.795V586.814ZM384.462 585.882C382.433 580.873 380.328 566.274 379.807 560.725C387.442 572.661 391.632 586.888 393.233 595.584C391.874 595.175 386.082 589.849 384.481 585.882H384.462Z" fill="#0E141B"/>
<path d="M502.708 638.787C502.522 641.114 502.503 649.084 503.006 652.008C505.52 649.941 512.503 644.113 514.198 642.381C513.509 640.277 511.684 636.422 510.306 634.783C508.425 636.981 505.911 638.526 502.708 638.787Z" fill="white"/>
<path d="M502.69 642.342C504.477 643.385 511.125 642.64 513.49 640.815C512.801 639.418 511.256 636.029 510.064 634.67C508.425 636.513 504.85 638.413 502.801 638.394C502.652 639.325 502.634 641.448 502.671 642.323L502.69 642.342Z" fill="#DCDDDD"/>
<path d="M501.163 639.344C500.678 644.335 500.865 650.052 501.423 653.366L504.477 651.132C504.198 648.562 504.012 643.05 504.254 638.674L501.181 639.363L501.163 639.344Z" fill="#0E141B"/>
<path d="M509.226 635.769C510.473 637.668 511.814 640.368 512.782 643.757L515.296 641.56C514.291 638.45 512.838 635.806 511.293 633.795L509.207 635.769H509.226Z" fill="#0E141B"/>
<path d="M587.994 509.832L585.648 512.644C587.175 520.241 591.495 549.756 591.495 565.436C591.495 569.532 591.197 572.679 590.49 574.262C588.367 578.936 583.153 580.705 575.965 583.182C571.328 584.765 566.058 586.571 560.23 589.569C540.305 599.792 529.039 607.874 510.864 631.467C508.053 635.117 506.47 635.415 501.814 636.29C499.524 636.718 496.675 637.258 492.839 638.357C475.13 643.459 452.896 657.984 443.604 672.062C439.451 678.374 439.787 679.194 433.958 677.741C423.493 675.097 409.415 668.151 409.415 652.993C409.415 652.845 409.247 651.746 409.247 651.746C405.523 643.832 401.203 639.772 397.386 636.197C394.574 633.553 391.911 631.057 389.676 627.24C383.811 617.184 385.133 606.086 386.511 592.344C385.356 590.519 384.686 588.005 383.606 586.254C383.624 586.794 383.643 589.681 383.569 590.556C381.837 607.93 380.459 618.805 386.473 629.121C388.969 633.404 393.065 636.551 395.952 639.27C399.639 642.733 402.32 645.992 405.709 653.012C407.46 671.093 423.828 679.529 435.038 682.136C441.146 683.551 442.412 681.838 445.243 676.214C450.941 664.837 469.637 648.599 492.951 641.876C496.619 640.815 500.306 640.368 502.522 639.958C507.438 639.027 510.157 638.525 513.844 633.739C535.054 606.235 540.677 604.894 563.023 593.424C568.61 590.556 572.688 588.265 577.213 586.72C584.996 584.057 592.668 581.953 595.462 575.826C598.516 569.123 591.421 524.599 588.05 509.832H587.994Z" fill="#0E141B"/>
<path d="M472.97 670.461C466.676 672.453 454.106 667.556 453.045 664.967L450.121 666.159C452.132 671.094 467.663 675.228 474.329 673.124C491.684 667.649 518.946 640.555 524.235 635.266L522.894 632.082C519.71 635.266 489.953 665.098 472.951 670.461H472.97Z" fill="#0E141B"/>
</g>
<defs>
<clipPath id="clip0_42_61372">
<rect width="620" height="569.648" fill="white" transform="translate(150 205)"/>
</clipPath>
</defs>
</svg>
