<svg width="800" height="800" viewBox="0 0 800 800" fill="none" xmlns="http://www.w3.org/2000/svg">
<g clip-path="url(#clip0_42_61493)">
<path d="M216.588 593.833C23.7023 516.399 25.5939 308.11 64.1001 235.928C71.3961 222.231 86.2244 196.476 84.3159 241.704C79.2324 361.107 177.525 444.689 277.911 452.576L216.605 593.833H216.588Z" fill="#BA79B1"/>
<path d="M43.783 324.406C40.2871 416.011 78.5569 538.42 216.588 593.832L265.008 482.282C162.004 554.684 56.382 457.743 43.783 324.406Z" fill="#A1689A"/>
<path d="M577.011 517.766C601.077 523.542 660.728 545.666 662.653 613.998C679.458 637 671.588 664.478 669.392 668.852C666.504 674.628 626.36 659.918 598.172 676.553C582.449 685.825 526.953 677.516 523.102 661.151C519.251 644.786 526.801 625.87 527.763 622.982L576.994 517.766H577.011Z" fill="#BA79B1"/>
<path d="M665.153 616.853C664.376 615.62 663.565 614.387 662.653 613.154C662.349 602.599 660.677 593.141 657.958 584.663C622.273 582.062 603.34 538.033 569.428 533.102L527.763 622.139C526.801 625.027 519.251 643.942 523.102 660.307C526.953 676.673 582.432 684.982 598.172 675.71C607.647 670.12 618.473 668.076 628.775 667.603C630.109 660.848 633.554 654.531 638.925 649.161C632.997 638.622 656.877 637.17 665.136 616.853H665.153Z" fill="#A1689A"/>
<path d="M644.38 647.809C626.309 653.365 597.75 671.099 607.377 678.8C617.003 686.501 629.585 689.423 650.764 691.348C671.942 693.274 730.546 695.452 701.666 672.348C667.602 645.09 656.894 643.958 644.38 647.809Z" fill="#DCDDDD"/>
<path d="M630.379 653.535C614.892 661.22 600.013 672.923 607.36 678.801C616.986 686.502 629.568 689.424 650.747 691.349C661.167 692.295 680.623 693.308 694.286 691.349C666.673 688.225 640.293 677.669 630.396 653.552L630.379 653.535Z" fill="#B5B6B6"/>
<path d="M626.005 520.333C606.87 522.46 599.152 530.398 596.264 538.099C593.376 545.801 581.824 569.85 577.973 579.477C574.123 589.103 583.749 600.655 590.488 607.377C597.227 614.116 604.928 640.09 613.575 639.128C622.239 638.165 654.952 631.427 660.728 621.8C666.504 612.173 675.168 571.759 667.467 558.281C659.765 544.804 634.669 519.353 626.005 520.316V520.333Z" fill="#BA79B1"/>
<path d="M631.561 619.808C620.702 621.987 592.667 569.581 595.859 539.131C592.447 547.71 581.672 570.24 577.973 579.478C574.123 589.105 583.749 600.657 590.488 607.378C597.227 614.117 604.928 640.092 613.575 639.129C622.239 638.166 654.952 631.428 660.728 621.801C661.792 620.028 662.957 617.191 664.106 613.661C655.543 617.579 642.404 617.613 631.561 619.775V619.808Z" fill="#A1689A"/>
<path d="M679.019 534.25C679.981 538.101 684.288 558.587 689.101 557.624C693.914 556.661 701.16 546.055 703.085 542.205L679.019 534.25Z" fill="#B5B6B6"/>
<path d="M747.35 518.848C747.35 525.586 748.887 541.951 745.037 542.914C741.186 543.877 739.21 543.167 732.488 540.415C725.767 537.662 747.35 518.848 747.35 518.848Z" fill="#DCDDDD"/>
<path d="M636.054 436.091C631.392 448.994 643.417 472.672 651.118 487.095C658.82 501.535 654.969 519.809 674.205 531.36C693.441 542.912 717.778 550.799 736.069 532.526C754.359 514.235 763.648 497.262 748.262 462.623C732.86 427.985 709.807 412.042 701.16 398.564C688.189 378.382 662.586 366.645 643.417 378.349L636.054 436.074V436.091Z" fill="#BA79B1"/>
<path d="M662.67 420.115L636.037 436.074C631.375 448.977 643.4 472.655 651.101 487.078C658.803 501.518 654.952 519.792 674.188 531.344C693.425 542.896 717.761 550.783 736.052 532.509C739.919 528.641 743.398 524.808 746.32 520.873C685.098 559.734 657.604 430.957 662.653 420.098L662.67 420.115Z" fill="#A1689A"/>
<path d="M732.911 524.622C727.743 517.731 703.558 522.544 704.521 532.154C705.483 541.781 719.433 556.373 724.247 554.447C729.06 552.522 735.799 528.472 732.911 524.622Z" fill="#DCDDDD"/>
<path d="M704.521 532.171C705.483 541.714 719.214 556.153 724.128 554.498C717.812 545.463 714.721 534.063 713.488 523.068C708.219 524.892 704.115 528.101 704.521 532.171Z" fill="#B5B6B6"/>
<path d="M638.199 375.141C646.795 378.721 658.803 386.051 662.653 402.416C666.504 418.781 664.579 431.279 654.952 437.055C645.326 442.831 633.774 436.092 629.923 433.204L638.182 375.141H638.199Z" fill="#BA79B1"/>
<path d="M636.628 409.982L629.94 433.204C633.791 436.092 645.342 442.831 654.969 437.055C661.421 433.188 664.021 429.894 664.123 420.842C656.168 430.249 643.383 419.913 636.628 409.982Z" fill="#A1689A"/>
<path d="M599.422 387.42L616.463 362.948C624.164 357.172 646.406 373.436 643.4 403.363C639.549 441.852 617.425 441.852 609.724 440.889L599.422 387.403V387.42Z" fill="#BA79B1"/>
<path d="M603.441 381.643L599.422 387.419L609.724 440.905C616.834 441.8 636.222 441.834 642.184 411.586C625.177 423.24 610.771 397.569 603.424 381.643H603.441Z" fill="#A1689A"/>
<path d="M619.993 255.113L591.096 233.58C603.61 226.841 617.949 201.035 620.837 187.558C623.725 174.081 641.103 169.386 653.618 163.61C666.133 157.834 699.234 136.808 705.973 131.032C712.712 125.256 719.231 129.191 703.457 160.384C714.772 158.526 723.301 154.118 726.189 153.156C729.077 152.193 731.965 156.044 725.226 163.745C718.488 171.446 711.631 185.481 704.892 203.754L620.009 255.096L619.993 255.113Z" fill="#BA79B1"/>
<path d="M636.459 184.248C686.787 155.858 713.674 138.159 703.203 133.193C686.061 146.637 664.883 158.425 653.618 163.61C641.103 169.386 624.164 175.297 621.293 188.774C618.405 202.251 603.154 227.078 590.64 233.816L609.285 247.53C625.819 234.188 628.403 188.791 636.476 184.231L636.459 184.248Z" fill="#A1689A"/>
<path d="M611.396 237.126C621.023 214.023 636.678 192.625 662.653 180.127C688.628 167.612 717.981 161.887 704.52 208.078C691.043 254.268 676.131 268.658 635.716 282.118L611.396 237.126Z" fill="#00A3A3"/>
<path d="M700.687 173.05C692.006 168.49 676.84 173.286 662.653 180.109C636.678 192.624 620.364 212.096 611.396 238.054L635.716 282.117C641.627 280.141 646.981 278.148 651.878 276.037C627.795 277.337 657.924 193.671 700.687 173.05Z" fill="#008E8E"/>
<path d="M613.524 233.107C616.294 226.605 630.987 190.7 668.429 178.185C677.296 177.526 685.757 175.297 682.869 190.7C679.981 206.102 674.56 243.511 632.22 263.709L613.524 233.107Z" fill="#008087"/>
<path d="M683.359 183.708C682.531 176.091 675.607 177.662 668.429 178.185C630.278 190.936 615.095 229.02 613.051 233.817L632.22 263.71C636.375 261.734 640.158 259.572 643.637 257.292C651.406 230 662.738 203.13 683.359 183.691V183.708Z" fill="#00666C"/>
<path d="M438.743 361.849L554.937 419.119L507.683 300.138L453.199 276.781L394.41 256.464C376.119 245.875 345.095 227.263 341.244 225.338C337.394 223.413 332.479 227.01 336.33 235.674C340.18 244.338 361.207 273.201 359.281 290.528L438.76 361.849H438.743Z" fill="#BA79B1"/>
<path d="M507.682 300.137L453.199 276.78L397.028 257.375C365.446 262.29 336.296 225.371 334.978 229.036C334.776 230.741 335.113 232.954 336.313 235.673C340.163 244.337 361.19 273.2 359.264 290.528L438.743 361.849L554.937 419.118L507.682 300.137Z" fill="#A1689A"/>
<path d="M373.147 480.83L411.501 377.42L323.916 350.449C324.879 363.926 324.879 390.864 321.028 392.789C317.178 394.715 294.361 376.12 287.437 370.243C279.195 363.268 278.958 374.516 278.958 378.366C278.958 382.217 288.264 432.427 286.373 441.868C279.634 448.606 260.448 476.068 259.435 490.946L373.13 480.83H373.147Z" fill="#BA79B1"/>
<path d="M398.598 428.795L411.518 377.403L323.933 350.432C324.896 363.909 324.896 390.846 321.045 392.772C317.194 394.697 294.378 376.103 287.453 370.225C279.212 363.25 278.975 374.498 278.975 378.349C278.975 382.199 288.281 432.41 286.389 441.85C279.651 448.589 259.064 475.206 259.452 490.929L330.418 484.613C345.838 451.088 364.314 442.036 398.598 428.795Z" fill="#A1689A"/>
<path d="M413.849 632.356C397.078 628.269 383.753 621.429 371.745 612.748L372.995 654.548C409.593 660.965 457.405 653.349 496.147 638.318C464.329 640.057 438.185 638.318 413.849 632.373V632.356Z" fill="#BA79B1"/>
<path d="M556.795 598.714C597.21 544.822 570.272 521.735 574.123 503.445C577.973 485.154 580.169 481.945 589.796 466.543L367.591 472.471L371.762 612.732C383.753 621.413 397.078 628.253 413.866 632.34C438.202 638.268 464.346 640.024 496.164 638.284C522.916 627.898 545.361 613.982 556.829 598.697L556.795 598.714Z" fill="#CCCCCC"/>
<path d="M497.11 637.254C501.738 635.193 505.994 632.981 509.777 630.633C473.837 631.376 445.532 626.901 428.272 603.155C398.97 560.849 444.046 494.206 481.049 469.447L367.607 472.47L371.863 615.636C386.709 622.915 401.604 628.911 412.177 631.511C437.51 637.726 470.46 638.993 497.11 637.254Z" fill="#999999"/>
<path d="M412.16 631.512C401.587 628.911 386.675 622.933 371.846 615.637L372.995 654.531C405.286 660.189 461.897 652.961 497.093 637.254C470.443 638.994 437.476 637.727 412.16 631.512Z" fill="#A1689A"/>
<path d="M600.537 446.361L391.877 425.385L378.839 457.304L367.658 468.485L386.472 511.163C388.398 515.013 412.447 537.137 434.588 530.416C456.729 523.677 502.92 496.74 521.194 500.59C539.484 504.441 563.922 514.827 572.198 531.378C572.198 531.378 572.451 524.234 574.022 504.931C576.065 479.716 600.537 446.361 600.537 446.361Z" fill="#DCDDDD"/>
<path d="M392.484 426.803L379.531 456.071L367.996 468.18L386.472 511.145C387.891 513.982 401.351 526.75 417.193 530.567C413.139 528.169 418.071 523.22 420.959 518.846C486.217 438.253 578.548 474.632 579.764 483.312C587.6 463.992 600.537 446.343 600.537 446.343L392.484 426.803Z" fill="#B5B6B6"/>
<path d="M546.222 402.416C541.409 404.342 533.708 407.23 530.82 413.006C527.932 418.782 511.567 457.271 518.305 462.084C525.044 466.898 559.683 481.337 567.384 477.487C575.085 473.636 593.882 471.289 607.36 444.351C620.837 417.414 616.463 396.657 606.836 385.105L546.206 402.433L546.222 402.416Z" fill="#DCDDDD"/>
<path d="M541.848 460.816C538.724 457.304 543.807 427.343 550.563 417.21C560.173 407.6 576.707 401.909 586.637 390.863L546.206 402.415C541.392 404.34 533.691 407.228 530.803 413.004C527.915 418.78 511.55 457.27 518.289 462.083C525.027 466.896 559.666 481.336 567.367 477.486C568.06 477.148 551.424 471.608 541.831 460.833L541.848 460.816Z" fill="#B5B6B6"/>
<path d="M385.509 393.752C379.733 405.304 380.696 433.204 387.435 441.868C394.173 450.532 420.148 475.544 433.625 477.469C447.103 479.394 513.492 466.88 518.305 459.179C523.119 451.477 536.596 418.764 532.745 407.212C528.895 395.66 468.264 367.76 450.953 352.357L385.509 393.735V393.752Z" fill="#DCDDDD"/>
<path d="M424.455 394.141C436.514 377.556 459.33 375.783 480.914 371.983C468.484 364.738 457.05 357.779 450.97 352.375L385.526 393.752C379.751 405.304 380.713 433.204 387.452 441.868C394.19 450.532 420.165 475.544 433.642 477.47C440.82 478.5 462.978 475.426 482.873 471.187C467.91 469.701 451.004 471.778 437.527 465.04C430.771 461.662 417.716 405.963 424.472 394.141H424.455Z" fill="#B5B6B6"/>
<path d="M241.162 540.988C238.459 535.398 255.821 479.952 287.572 459.753C319.323 439.554 347.274 451.714 359.518 456.308C390.306 467.86 397.045 558.316 381.642 577.552L241.145 540.988H241.162Z" fill="#BA79B1"/>
<path d="M351.563 452.678C321.214 446.615 311.081 444.774 287.572 459.754C255.821 479.97 238.459 535.399 241.162 540.989L312.719 548.217C303.43 511.349 329.135 449.063 351.563 452.695V452.678Z" fill="#A1689A"/>
<path d="M283.079 665.948C240.266 654.835 213.245 687.244 213.245 687.244C210.357 697.833 229.171 731.206 259.959 737.944C290.747 744.683 321.991 736.323 330.655 717.087C330.655 717.087 325.892 677.077 283.079 665.948Z" fill="#DCDDDD"/>
<path d="M250.011 665.441C226.857 670.964 213.261 687.245 213.261 687.245C210.542 697.243 227.161 727.558 254.96 736.577C238.527 716.141 235.048 686.333 250.011 665.441Z" fill="#B5B6B6"/>
<path d="M268.099 520.771C261.361 525.585 233.46 542.913 226.722 559.261C219.983 575.626 209.394 633.369 201.71 642.978C194.008 652.605 172.847 664.157 178.606 675.692C184.382 687.244 198.822 693.02 206.506 691.094C214.207 689.169 245.249 671.064 281.83 681.653C318.394 692.243 319.998 710.179 330.587 714.992C341.177 719.805 368.182 720.92 373.958 716.106C379.734 711.293 377.622 705.939 370.107 683.393C365.294 668.953 385.712 609.995 381.862 585.928C379.734 572.62 376.288 560.409 368.604 550.8L268.116 520.771H268.099Z" fill="#BA79B1"/>
<path d="M249.555 655.983C263.303 651.642 296.59 644.414 311.047 617.628L268.099 520.771C261.361 525.585 233.46 542.913 226.722 559.261C219.983 575.626 209.394 633.369 201.71 642.978C194.008 652.605 172.847 664.157 178.606 675.692C184.382 687.244 198.822 693.02 206.506 691.094C210.306 690.148 219.831 685.234 232.903 681.805C229.272 671.301 235.791 660.323 249.538 655.983H249.555Z" fill="#A1689A"/>
<path d="M300.593 481.304C290.679 488.515 263.286 520.772 259.435 536.175C255.585 551.577 258.473 598.731 272.912 610.266C287.352 621.818 314.29 625.668 325.842 621.818C337.394 617.967 369.144 580.44 367.219 541.951C365.294 503.462 353.522 489.967 348.709 487.079C343.896 484.191 311.182 473.602 300.593 481.304Z" fill="#BA79B1"/>
<path d="M283.552 595.201C275.598 577.113 267.643 516.347 324.035 479.699C314.779 478.078 305.389 477.807 300.593 481.303C290.679 488.515 263.286 520.772 259.435 536.175C255.585 551.577 258.473 598.731 272.912 610.266C286.254 620.939 310.253 625.026 322.937 622.544C306.808 613.272 291.507 613.289 283.552 595.201Z" fill="#A1689A"/>
<path d="M363.368 294.632C369.668 285.158 397.045 276.342 417.26 288.856C437.476 301.371 454.787 333.122 449.011 355.263C443.235 377.404 419.101 400.744 388.296 395.931C357.508 391.118 342.19 374.499 337.377 355.263L363.352 294.632H363.368Z" fill="#BA79B1"/>
<path d="M381.828 284.195C373.164 286.323 366.172 290.41 363.368 294.633L337.394 355.263C342.207 374.516 357.525 391.135 388.313 395.931C403.935 398.363 417.818 393.567 428.491 385.359C400.439 405.811 361.021 300.054 381.828 284.212V284.195Z" fill="#A1689A"/>
<path d="M330.655 283.079C347.02 284.042 383.821 300.137 392.248 308.092C409.576 324.457 398.987 369.685 367.236 365.834C351.833 363.959 317.347 346.801 317.347 346.801L330.672 283.062L330.655 283.079Z" fill="#BA79B1"/>
<path d="M336.38 310.879L317.33 346.818C317.33 346.818 351.816 363.977 367.219 365.852C381.946 367.642 390.762 362.406 395.71 350.855C369.398 345.957 337.089 334.76 336.363 310.879H336.38Z" fill="#A1689A"/>
<path d="M321.028 270.566C317.178 258.051 312.803 236.468 302.738 234.002C292.419 231.469 243.712 235.032 191.002 263L321.028 270.566Z" fill="#DCDDDD"/>
<path d="M258.675 237.938C239.321 242.227 215.592 249.945 191.002 263L218.885 264.622C230.099 253.171 243.847 244.44 258.675 237.938Z" fill="#B5B6B6"/>
<path d="M96.8137 369.685C92.0004 381.237 84.6539 415.994 91.0378 414.913C102.573 412.954 117.992 396.994 138.191 392.772L96.8137 369.668V369.685Z" fill="#B5B6B6"/>
<path d="M140.218 393.43C132.516 391.505 114.124 395.676 101.61 376.44C89.0954 357.187 82.8635 313.969 135.185 284.447C187.422 254.96 265.076 251.785 291.186 259.03C308.514 263.843 337.377 271.544 336.414 301.37C335.451 331.195 320.268 348.591 305.845 351.479C291.405 354.367 260.887 365.412 247.41 374.059C233.933 382.723 216.757 412.515 208.11 421.178C199.463 429.842 187.27 434.166 175.718 429.353C164.166 424.539 150.976 421.736 143.798 408.123C140.961 402.736 140.218 393.43 140.218 393.43Z" fill="#BA79B1"/>
<path d="M150.435 359.349C142.481 362.963 139.576 364.416 130.169 360.075C105.343 348.608 108.467 308.7 149.321 277.371C144.457 279.55 139.728 281.88 135.202 284.447C82.8806 313.969 89.1125 357.187 101.627 376.44C111.169 391.117 129.831 392.839 138.867 393.363C141.079 384.125 151.483 368.688 150.435 359.366V359.349Z" fill="#A1689A"/>
<path d="M191.391 402.584C179.383 393.363 161.818 412.194 145.892 411.501C153.34 422.243 165.213 424.978 175.735 429.37C187.287 434.183 197.774 430.417 206.438 421.753C215.102 413.089 233.967 382.74 247.427 374.076C260.905 365.412 291.422 354.384 305.862 351.496C313.395 349.993 326.973 342.004 334.202 326.078C217.72 341.278 203.398 411.822 191.391 402.584Z" fill="#A1689A"/>
<path d="M106.44 317.72C92.2369 324.036 67.9002 351.615 68.8798 370.835C69.3358 379.752 100.664 363.91 114.125 361.985C126.386 341.702 115.087 313.869 106.423 317.72H106.44Z" fill="#DCDDDD"/>
<path d="M116.675 326.434C114.04 319.965 110.021 316.148 106.44 317.736C93.8074 323.343 73.1863 345.754 69.4539 364.18C81.3773 348.321 99.5158 336.651 116.675 326.451V326.434Z" fill="#B5B6B6"/>
<path d="M152.631 391.827C147.598 397.417 135.911 436.818 138.799 441.818C141.839 447.104 176.495 433.795 186.121 417.43C195.748 401.065 161.295 382.183 152.631 391.81V391.827Z" fill="#DCDDDD"/>
<path d="M162.207 436.7C171.8 431.972 181.663 425.047 186.121 417.447C188.959 412.617 187.945 407.567 184.888 403.092C179.872 415.573 172.137 427.682 162.207 436.7Z" fill="#B5B6B6"/>
<path d="M453.571 275.48C447.795 280.294 438.439 294.632 433.625 305.222C446.14 301.371 475.07 307.029 475.07 307.029C464.312 312.838 454.314 326.349 452.49 332.125C461.154 333.088 477.891 333.139 481.741 337.935C485.592 342.731 506.771 376.424 524.081 389.902C575.744 430.08 610.873 399.427 615.973 362.001L453.554 275.48H453.571Z" fill="#BA79B1"/>
<path d="M499.897 318.986C496.874 309.933 497.161 304.934 497.296 297.385L453.554 275.48C447.778 280.294 438.101 293.788 433.288 304.377C445.802 300.526 475.07 307.045 475.07 307.045C464.312 312.855 454.314 326.366 452.49 332.142C461.154 333.105 477.891 333.155 481.741 337.952C483.261 339.843 487.467 346.227 493.057 354.081C490.507 342.647 491.571 322.127 499.897 319.003V318.986Z" fill="#A1689A"/>
<path d="M615.5 362.002L598.949 353.152C592.734 359.232 584.948 362.914 577.821 366.444C588.377 371.578 598.932 377.016 609.606 381.644C612.696 375.851 614.504 369.332 615.5 362.002Z" fill="#A1689A"/>
<path d="M612.612 364.873C603.948 382.201 595.284 394.698 570.272 395.661C535.633 396.995 517.343 348.508 513.492 330.217C511.229 319.476 612.612 364.856 612.612 364.856V364.873Z" fill="#EE869A"/>
<path d="M513.492 330.233C515.755 340.991 523.034 362.203 535.684 377.572C563.128 365.48 588.461 366.729 604.641 378.568C607.562 374.515 610.079 369.904 612.595 364.872C612.595 364.872 511.212 319.492 513.475 330.233H513.492Z" fill="#CF7487"/>
<path d="M607.698 375.091C608.914 372.372 606.786 365.109 606.786 365.109C606.786 365.109 601.939 371.156 601.331 374.196C602.851 376.019 604.354 378.435 607.681 375.107L607.698 375.091Z" fill="#DCDDDD"/>
<path d="M603.475 380.223C604.691 377.504 602.563 370.242 602.563 370.242C602.563 370.242 597.716 376.288 597.108 379.328C598.628 381.152 600.131 383.567 603.459 380.24L603.475 380.223Z" fill="white"/>
<path d="M603.543 374.616C603.171 372.286 602.563 370.242 602.563 370.242C602.563 370.242 597.716 376.288 597.108 379.328C597.801 380.156 598.493 381.102 599.338 381.575C600.182 379.024 600.925 376.221 603.526 374.633L603.543 374.616Z" fill="#DCDDDD"/>
<path d="M597.412 386.878C598.628 384.159 596.247 375.141 596.247 375.141C596.247 375.141 590.403 383.585 589.795 386.608C591.315 388.432 594.085 390.205 597.412 386.878Z" fill="white"/>
<path d="M596.247 375.14C596.247 375.14 590.403 383.584 589.795 386.607C590.64 387.621 591.906 388.634 593.426 388.735C593.764 384.547 595.115 380.359 596.5 376.17C596.348 375.528 596.247 375.123 596.247 375.123V375.14Z" fill="#DCDDDD"/>
<path d="M453.199 284.008C465.427 290.679 514.32 331.769 514.32 331.769C516.87 341.953 556.575 336.38 580.777 356.309C595.2 368.181 594.997 371.137 602.563 370.225C610.129 369.313 622.982 357.947 631.359 348.489C637.911 341.092 638.486 332.512 637.574 317.684C640.158 308.919 640.006 298.819 639.465 292.284C639.009 286.795 637.354 280.343 629.805 270.058C622.239 259.773 608.018 239.185 585.624 231.315C563.229 223.445 558.99 224.053 558.99 224.053C558.99 224.053 545.682 186.83 543.554 178.352C541.426 169.874 536.596 164.436 529.942 172.306C523.288 180.176 515.249 214.95 509.506 223.124C509.506 223.124 456.56 257.881 453.216 284.008H453.199Z" fill="#BA79B1"/>
<path d="M537.66 168.827C535.498 167.949 532.897 168.81 529.925 172.306C523.271 180.176 515.232 214.95 509.49 223.124C509.49 223.124 456.543 257.881 453.199 284.008C459.752 287.589 487.416 323.072 499.947 318.123C491.436 294.462 507.48 247.512 521.869 236.044C536.275 224.577 527.915 171.158 537.66 168.827Z" fill="#A1689A"/>
<path d="M582.28 251.313C610.265 240.69 647.352 209.243 654.31 203.197C661.269 197.151 664.967 205.714 660.424 214.175C655.881 222.636 618.169 283.959 615.568 303.972C612.967 323.985 554.295 261.936 582.28 251.313Z" fill="#BA79B1"/>
<path d="M655.003 202.656C654.783 202.825 654.547 202.977 654.31 203.18C648.129 208.55 602.225 247.259 581.182 251.042C576.082 251.954 572.924 254.842 579.915 260.247C597.26 273.69 638.148 231.874 655.003 202.656Z" fill="#A1689A"/>
<path d="M566.54 315.457C551.407 313.041 527.814 298.298 526.429 295.038C525.061 291.762 530.161 281.848 537.001 276.832C539.856 279.112 563.365 303.702 566.54 315.457Z" fill="white"/>
<path d="M562.79 314.68C564.057 314.984 565.307 315.271 566.54 315.457C562.892 301.895 542.304 281.257 537.001 276.832C534.451 278.318 533.59 280.497 531.597 282.591C544.652 289.363 556.17 301.912 562.774 314.68H562.79Z" fill="#DCDDDD"/>
<path d="M503.376 238.916C522.409 245.3 540.953 239.305 523.119 230.303C505.267 221.301 487.365 205.983 480.458 187.997C474.885 173.455 472.622 171.175 463.958 167.561C455.294 163.947 439.959 159.1 424.81 142.498C409.66 125.897 411.822 117.25 408.208 118.685C404.594 120.121 404.087 148.561 404.087 148.561C404.087 148.561 370.698 141.063 356.984 136.722C343.271 132.399 336.786 133.108 335.333 137.449C333.898 141.772 348.321 149.001 353.37 156.212C358.42 163.424 364.196 183.639 360.582 190.851C356.968 198.062 356.258 198.789 363.47 203.838C370.681 208.888 373.603 215.255 373.603 215.255C373.603 215.255 489.544 234.289 503.359 238.916H503.376Z" fill="#BA79B1"/>
<path d="M466.845 180.515C461.509 167.984 451.477 172.898 436.277 161.076C423.441 152.514 405.506 129.579 411.13 121.371C410.133 119.074 409.61 118.145 408.225 118.702C404.611 120.138 404.104 148.579 404.104 148.579C404.104 148.579 402.989 148.325 401.081 147.886C400.574 148.477 402.043 150.707 395.66 151.179C381.253 152.243 344.723 137.837 348.016 134.409C340.366 132.99 336.448 134.223 335.367 137.466C333.931 141.789 348.354 149.018 353.404 156.229C358.454 163.441 364.23 183.656 360.615 190.868C357.001 198.079 356.292 198.806 363.503 203.855C370.715 208.905 373.637 215.272 373.637 215.272C373.637 215.272 496.62 241.99 501.805 242.412C506.99 242.835 520.518 244.642 515.08 239.862C496.89 223.801 472.199 193.08 466.862 180.549L466.845 180.515Z" fill="#A1689A"/>
<path d="M501.298 239.186C489.747 213.937 460.36 179.298 437.797 173.523C406.249 165.433 382.571 170.55 374.684 192.657C367.472 212.856 370.681 250.012 408.934 265.178C452.676 282.505 463.062 273.842 463.062 273.842C463.062 273.842 470.054 249.319 501.298 239.203V239.186Z" fill="#00A3A3"/>
<path d="M437.797 173.524C403.58 164.758 382.166 171.683 374.684 192.659C373.704 195.411 372.911 198.502 372.387 201.795C419.709 192.777 461.965 211.304 495.827 241.214C497.566 240.487 499.39 239.812 501.299 239.204C489.747 213.955 460.36 179.316 437.797 173.54V173.524Z" fill="#008E8E"/>
<path d="M501.011 239.541C499.069 233.714 488.21 210.847 466.829 193.384C443.674 183.741 414.186 183.2 404.813 205.578C395.44 227.955 422.817 268.336 467.555 265.448C467.555 265.448 473.922 247.715 501.028 239.558L501.011 239.541Z" fill="#008087"/>
<path d="M494.087 242.007C496.232 241.112 498.546 240.285 501.028 239.542C499.086 233.715 488.227 210.848 466.845 193.385C445.684 184.569 419.27 183.37 407.701 200.275C439.57 203.889 472.25 217.451 494.104 242.007H494.087Z" fill="#00666C"/>
<path d="M562.013 391.725C563.229 389.006 562.385 379.143 562.385 379.143C562.385 379.143 554.447 386.878 553.839 389.901C554.329 394.174 558.686 395.052 562.013 391.725Z" fill="white"/>
<path d="M552.319 386.878C554.464 383.365 554.633 373.08 554.633 373.08C554.633 373.08 545.209 380.072 544.601 383.095C544.331 386.878 549.009 390.205 552.336 386.878H552.319Z" fill="white"/>
<path d="M543.909 380.157C545.125 377.438 546.375 365.16 546.375 365.16C546.375 365.16 536.579 372.355 535.988 375.378C535.954 380.124 540.582 383.484 543.909 380.157Z" fill="white"/>
<path d="M535.312 371.915C536.528 369.196 538.183 355.432 538.183 355.432C538.183 355.432 527.915 363.065 527.307 366.088C527.577 371.763 531.985 375.242 535.312 371.915Z" fill="white"/>
<path d="M526.665 357.086C529.385 352.239 530.296 327.463 530.296 327.463C530.296 327.463 516.498 342.561 514.81 348.76C515.249 358.656 523.338 360.413 526.682 357.086H526.665Z" fill="white"/>
<path d="M553.839 389.917C554.093 392.113 555.359 393.396 556.981 393.7C557.724 389.613 558.315 385.29 559.987 381.625C557.606 384.158 554.228 387.992 553.856 389.917H553.839Z" fill="#DCDDDD"/>
<path d="M544.601 383.111C544.449 385.29 545.935 387.3 547.844 387.992C548.182 383.365 549.448 378.872 552.15 375.021C549.313 377.318 544.99 381.085 544.584 383.111H544.601Z" fill="#DCDDDD"/>
<path d="M535.988 375.377C535.988 377.134 536.613 378.705 537.576 379.819C538.42 375.074 542.051 371.341 543.639 367.305C540.7 369.669 536.393 373.418 536.005 375.394L535.988 375.377Z" fill="#DCDDDD"/>
<path d="M535.177 357.762C532.087 360.261 527.679 364.129 527.29 366.088C527.375 368.03 527.966 369.719 528.827 370.969C528.709 365.463 533.201 361.747 535.177 357.779V357.762Z" fill="#DCDDDD"/>
<path d="M530.28 327.463C530.28 327.463 516.482 342.561 514.793 348.76C514.995 353.455 516.938 356.309 519.285 357.66C520.163 346.986 523.507 337.461 530.229 329.067C530.28 328.054 530.297 327.463 530.297 327.463H530.28Z" fill="#DCDDDD"/>
<path d="M542.321 282.676C536.765 283.436 535.312 290.276 535.312 292.978C535.312 299.311 539.889 304.445 545.53 304.445C549.482 304.445 553.721 303.246 554.802 297.42C551.492 292.404 546.527 286.78 542.321 282.693V282.676Z" fill="#0E141B"/>
<path d="M62.462 436.683C34.7645 360.701 42.9218 278.504 65.2824 236.569C75.6521 217.113 83.5054 206.608 82.9481 241.652C82.4921 270.127 86.4947 297.74 96.6786 323.292C97.3204 321.046 99.1274 319.239 99.803 317.567C89.5009 294.666 87.356 265.837 87.5756 236.923C87.8289 203.585 76.6148 203.585 61.1785 232.532C38.5307 274.991 29.3939 362.846 57.3616 439.554C83.8938 512.345 140.454 567.368 216.048 596.619L217.72 592.228C122.856 553.536 80.7187 486.826 62.4451 436.683H62.462Z" fill="#0E141B"/>
<path d="M277.996 449.789C251.514 445.483 224.273 439.268 199.159 427.311C197.808 428.037 196.44 429.016 195.089 429.895C220.878 443.304 249.201 451.681 277.793 453.927L277.996 449.789Z" fill="#0E141B"/>
<path d="M66.7518 284.566C60.5537 286.103 46.5698 292.741 42.6516 313.649L45.1343 314.122C48.7822 294.666 62.479 289.245 68.1874 287.809C76.3615 285.766 84.7383 287.353 88.116 291.592L90.092 290.005C86.0556 284.955 75.9731 282.27 66.7349 284.583L66.7518 284.566Z" fill="#0E141B"/>
<path d="M47.4312 393.752L49.6774 398.481C49.6774 374.684 58.3244 356.073 77.0709 348.743L76.142 346.379C51.6027 353.675 47.4312 378.231 47.4312 393.752Z" fill="#0E141B"/>
<path d="M79.4689 479.006L82.3231 480.408C76.5978 451.748 82.5258 426.82 100.174 411.958L98.5363 410.016C75.3143 424.253 74.0138 458.115 79.4689 478.989V479.006Z" fill="#0E141B"/>
<path d="M140.353 449.248C122.434 470.376 114.108 512.395 137.363 550.749L140.353 550.58C122.738 522.106 121.15 480.56 144.997 450.819C147.834 447.289 150.976 444.063 154.337 441.209C151.871 441.648 149.405 442.053 146.939 442.357C144.659 444.485 142.447 446.765 140.353 449.248Z" fill="#0E141B"/>
<path d="M204.597 486.876C192.471 511.956 190.056 555.596 211.843 592.38L215.66 592.836C197.47 562.115 195.613 519.454 208.414 491.081C218.531 468.67 237.142 454.399 259.942 451.207L259.587 448.521C235.875 451.832 215.744 463.89 204.631 486.876H204.597Z" fill="#0E141B"/>
<path d="M576.47 515.789L576.909 519.369C582.804 520.67 592.278 523.288 602.783 528.033C604.168 526.885 606.448 526.615 608.137 525.787C596.399 520.248 585.016 517.241 576.47 515.789Z" fill="#0E141B"/>
<path d="M536.579 669.258C522.409 663.279 521.025 651.812 532.036 620.5C530.989 621.007 526.412 624.992 525.281 625.364C513.965 659.631 521.531 667.164 534.096 673.294C549.127 680.641 596.331 688.393 605.029 674.763C605.654 673.091 606.38 670.524 607.191 668.971C601.246 676.283 569.968 683.309 536.562 669.224L536.579 669.258Z" fill="#0E141B"/>
<path d="M664.376 612.309C664.139 613.373 663.616 615.399 662.974 616.463C669.358 628.471 670.929 640.462 670.777 649.785C672.229 650.899 674.56 651.997 675.962 653.112C676.823 645.41 672.938 624.435 664.376 612.309Z" fill="#0E141B"/>
<path d="M643.164 645.478C627.66 650.173 602.901 663.954 600.959 674.037C600.486 676.502 601.33 678.681 603.408 680.319C628.217 699.86 706.851 701.075 712.374 687.564C714.029 683.545 711.833 677.077 704.537 671.318C669.46 643.688 657.756 641.053 643.164 645.478ZM650.865 689.996C631.325 688.223 618.084 685.639 608.204 677.735C607.022 676.789 606.6 675.709 606.853 674.341C608.305 666.707 629.264 653.872 644.768 649.092C655.965 645.647 665.913 645.478 700.805 673.395C706.463 677.921 708.928 681.653 707.915 684.187C704.977 691.466 676.283 692.31 650.865 689.996Z" fill="#0E141B"/>
<path d="M624.688 516.853L624.215 517.326C607.731 519.167 597.615 528.506 595.082 535.245C593.595 539.197 589.39 548.942 585.607 557.217C582.044 565.037 577.247 574.528 575.373 579.189C572.231 587.043 577.889 596.686 589.525 608.322C591.907 610.704 594.507 615.838 597.277 621.276C605.08 636.628 608.441 641.948 615.905 641.12C621.158 640.529 655.763 633.504 662.366 622.509C668.48 612.325 677.499 572.654 670.034 558.231C660.677 540.109 634.753 515.738 624.688 516.87V516.853ZM664.798 559.126C672.128 571.944 664.309 610.839 658.735 620.128C653.601 628.69 625.194 636.189 614.537 637.371C610.062 637.861 604.303 627.542 600.165 619.418C597.311 613.794 595.149 608.762 592.464 606.076C585.033 598.645 576.437 587.634 579.814 579.223C581.655 574.613 584.746 567.317 588.309 559.531C592.278 550.833 596.027 542.625 597.531 538.589C601.094 529.097 610.721 523.406 626.157 521.7C633.622 520.873 656.675 544.922 664.798 559.143V559.126Z" fill="#0E141B"/>
<path d="M677.701 534.57L678.056 536.057C682.075 553.114 685.2 561.525 689.202 560.731C694.995 559.566 702.68 546.038 704.301 542.812L701.886 541.613C699.572 546.224 692.715 555.529 688.848 556.306C688.341 556.407 685.521 555.884 680.69 535.449L677.701 534.587V534.57Z" fill="#0E141B"/>
<path d="M746.202 520.146C746.202 520.146 746.05 541.274 744.699 541.612C741.895 542.304 735.292 540.075 732.978 539.163L731.982 541.68C732.911 542.051 741.845 546.577 745.982 545.53C749.833 544.568 748.533 520.518 748.533 520.518L746.185 520.146H746.202Z" fill="#0E141B"/>
<path d="M674.898 530.197C662.586 522.816 660.154 512.801 657.57 502.195C656.286 496.909 654.952 491.454 652.301 486.455C646.406 475.41 632.625 449.536 637.32 436.549L634.297 435.637C629.805 448.101 634.517 462.372 646.744 484.715C649.294 489.377 652.824 499.425 654.226 506.671C656.303 517.463 660.475 525.941 673.749 533.895C687.412 542.086 699.488 545.059 710.938 544.805C710.128 543.86 709.351 542.981 708.777 542.019C698.812 541.698 687.514 537.763 674.898 530.214V530.197Z" fill="#0E141B"/>
<path d="M752.062 460.952C739.125 435.551 722.524 420.858 701.261 393.971C685.656 374.228 660.289 364.771 642.708 377.201L645.545 378.62C659.63 369.314 684.541 379.565 700.028 399.291C713.657 416.67 736.727 439.976 747.029 463.164C761.638 496.047 754.123 512.564 735.123 531.564C734.532 532.155 733.907 532.695 733.282 533.236C733.282 534.908 732.725 535.955 732.556 537.492C740.679 532.003 775.402 506.771 752.062 460.935V460.952Z" fill="#0E141B"/>
<path d="M713.471 521.212C707.425 523.576 701.818 528.204 702.224 532.308C703.507 545.143 721.511 558.502 724.263 557.404C728.519 555.699 738.872 530.332 733.991 523.83C730.445 519.101 721.207 518.206 713.471 521.229V521.212ZM720.159 552.101C714.232 548.504 706.547 538.759 705.872 532.038C705.466 528.052 710.752 525.552 713.032 524.657C720.413 521.786 729.364 522.158 731.83 525.434C732.556 526.397 732.539 531.413 730.259 539.553C727.996 547.643 725.209 552.625 723.74 553.199C723.487 553.301 722.49 553.52 720.159 552.101Z" fill="#0E141B"/>
<path d="M638.959 376.677C651.811 382.031 658.499 390.594 661.353 402.72C664.072 414.288 665.052 429.421 654.277 435.889C644.295 441.885 632.119 433.136 630.768 432.123L629.146 434.285C630.649 435.416 645.292 445.634 656.793 438.743C664.123 434.352 669.004 421.872 664.528 402.855C661.471 389.85 652.301 376.981 638.739 373.891L638.975 376.677H638.959Z" fill="#0E141B"/>
<path d="M617.594 361.443L616.192 364.01C616.192 362.98 622.88 363.892 626.495 365.935C635.496 371.002 643.974 384.175 642.066 403.226C640.563 418.273 634.854 427.647 627.339 434.52C621.225 440.111 614.943 440.178 609.893 439.553L609.555 442.239C614.892 445.819 621.85 443.421 629.062 437.662C636.966 431.362 643.806 419.743 645.376 403.952C647.42 383.584 638.908 369.043 628.842 363.368C624.248 360.784 618.472 359.754 617.577 361.443H617.594Z" fill="#0E141B"/>
<path d="M725.75 151.888C723.926 152.496 716.714 156.533 705.905 158.559C710.313 149.541 716.41 137.938 716.41 131.824C716.41 126.505 712.914 121.252 705.618 126.859C679.187 147.21 665.997 156.533 648.146 164.589C636.932 169.638 621.343 172.357 619.266 184.906C616.159 203.686 601.111 226.486 589.255 233.055L591.89 234.778C602.546 228.867 618.726 207.199 622.61 189.043C624.89 178.437 630.396 174.891 649.632 166.885C666.875 159.708 691.449 144.356 705.821 132.061C713.911 125.12 716.039 132.534 702.477 159.37C694.59 161.397 695.536 162.697 703.862 161.684C709.84 160.958 718.808 157.766 723.706 155.502C729.499 152.834 730.157 156.077 724.213 162.849C717.694 170.297 714.637 173.742 707.493 193.131L706.159 204.226C713.792 183.504 716.782 174.891 726.746 163.491C735.275 153.746 731.492 149.963 725.75 151.871V151.888Z" fill="#0E141B"/>
<path d="M662.079 178.893C638.486 190.242 620.364 209.039 610.839 235.554L614.571 234.102C625.279 208.38 640.242 192.404 663.228 181.342C682.261 172.188 695.671 170.178 702.004 175.549C707.628 180.328 708.05 191.137 703.203 207.705C690.25 252.139 677.144 266.765 636.138 280.428L637.32 283.451C672.415 271.865 693.644 259.773 706.75 208.448C711.31 190.597 710.803 178.707 704.284 173.184C696.971 166.986 682.396 169.097 662.045 178.893H662.079Z" fill="#0E141B"/>
<path d="M668.007 177.189L664.663 180.279C676.046 175.399 683.849 179.182 681.468 192.27C679.002 205.815 672.044 243.494 633.622 260.855L633.267 263.608C670.321 248.831 681.788 213.787 684.727 192.068C686.821 176.648 677.82 172.983 667.99 177.206L668.007 177.189Z" fill="#0E141B"/>
<path d="M333.678 235.437C346.024 258.929 354.992 269.535 356.68 289.785L360.632 290.68C362.389 274.906 344.081 249.758 337.579 235.133C332.884 224.56 338.238 224.932 344.2 229.205C362.439 242.294 393.734 257.629 393.734 257.629L387.401 251.414C387.401 251.414 356.123 232.515 344.436 225.152C332.428 217.585 328.78 226.131 333.661 235.42L333.678 235.437Z" fill="#0E141B"/>
<path d="M322.565 350.533C322.954 355.904 323.122 361.494 323.122 366.763C323.122 379.531 322.075 390.408 320.42 391.556C317.904 392.13 302.197 380.697 286.66 367.557C283.907 365.227 281.593 364.619 279.634 365.362C273.47 367.692 276.222 382.588 277.945 390.661C283.366 416.315 285.241 440.466 285.106 441.243C274.584 451.562 260.989 469.616 255.399 493.294L259.773 490.98C262.627 475.763 278.874 452.187 289.936 441.344C299.917 431.549 288.534 438.541 288.534 438.541C288.18 426.431 284.988 408.968 282.252 391.59C281.222 385.037 279.094 369.989 282.438 369.466C283.35 369.314 284.751 369.719 286.592 371.273C297.756 380.714 318.326 397.569 322.818 395.322C328.949 392.249 325.318 350.753 325.284 350.348L322.582 350.533H322.565Z" fill="#0E141B"/>
<path d="M318.529 424.253C309.983 435.011 305.035 442.526 298.634 452.153L303.076 451.545C309.375 442.138 320.91 428.661 329.388 418.004C341.447 402.838 349.452 393.346 352.323 379.835L349.756 379.008C345.905 391.117 330.452 409.256 318.546 424.236L318.529 424.253Z" fill="#0E141B"/>
<path d="M575.44 503.73C579.037 486.673 584.543 478.161 594.271 463.873C592.903 464.498 586.671 470.831 585.185 471.338C578.075 482.569 575.119 487.264 571.724 503.393C570.576 508.865 573.059 514.404 574.714 521.058C578.767 537.407 584.307 559.801 555.714 597.919C531.462 630.261 437.544 663.785 373.586 651L372.438 655.391C427.9 666.453 530.55 642.488 561.794 596.906C589.458 556.541 582.719 538.217 578.531 521.345C576.96 515.012 574.41 508.611 575.44 503.747V503.73Z" fill="#0E141B"/>
<path d="M379.852 619.79C388.82 629.889 447.998 647.555 497.364 637.202L506.686 633.402C453.537 645.14 388.803 624.451 381.811 616.598L379.869 619.79H379.852Z" fill="#0E141B"/>
<path d="M464.363 515.841C453.419 520.756 440.296 526.684 432.849 528.964C411.315 535.517 389.259 513.713 387.671 510.555L386.607 513.274C390.61 521.296 414.946 540.178 432.173 534.925C439.773 532.612 452.997 525.67 464.008 520.722C485.22 511.197 509.422 502.972 521.261 504.137C538.758 505.86 560.916 516.669 570.272 531.294C571.775 533.642 573.008 536.243 573.548 531.379C574.106 526.498 573.008 518.121 574.731 511.568L572.062 502.533C570.762 507.464 571.015 520.621 570.897 526.886C559.75 510.673 536.731 501.351 521.464 499.273C508.814 497.551 485.93 506.181 464.346 515.875L464.363 515.841Z" fill="#0E141B"/>
<path d="M383.888 438.643L383.5 439.859C381.321 446.817 376.761 461.307 369.685 463.672L370.546 466.239C382.334 459.787 383.821 451.41 386.405 443.253C385.847 442.155 384.598 439.74 383.888 438.643Z" fill="#0E141B"/>
<path d="M547.489 404.865C546.375 404.223 543.385 403.26 542.288 402.551C539.281 403.834 535.937 405.489 533.269 407.837C533.826 408.648 534.434 409.56 534.468 410.725C538.065 407.803 543.909 406.3 547.489 404.865Z" fill="#0E141B"/>
<path d="M608.272 384.48L606.194 386.202C617.24 399.68 617.375 421.263 606.144 443.709C595.267 465.461 575.406 474.007 566.776 476.236C558.146 478.482 526.328 466.12 519.082 460.952C518.761 460.715 518.508 460.344 518.339 459.854C517.647 460.293 516.904 460.749 516.093 461.188C516.431 462.016 516.887 462.691 517.529 463.147C528.388 470.899 556.93 483.785 567.35 481.117C577.855 478.432 598.865 467.826 610.214 445.11C620.381 424.793 621.901 398.075 608.272 384.463V384.48Z" fill="#0E141B"/>
<path d="M450.058 353.388C457.641 360.127 467.47 367.389 482.839 376.255C501.839 387.233 529.452 401.588 531.479 407.651C535.093 418.511 522.257 450.346 517.174 458.47C512.935 465.259 446.9 477.993 433.828 476.135C421.415 474.362 395.102 451.444 388.516 441.04C383.027 432.393 381.186 405.473 386.725 394.36L382.773 394.14C377.589 404.493 377.335 435.197 384.766 444.739C389.141 450.363 419.27 479.057 432.376 480.932C445.718 482.84 514.134 469.971 519.555 461.29C524.065 454.079 538.589 419.541 534.468 407.195C532.12 400.153 511.567 388.145 490.27 375.833C475.02 367.034 459.246 357.914 451.865 351.361L450.075 353.388H450.058Z" fill="#0E141B"/>
<path d="M286.66 458.317C245.417 487.484 236.956 536.174 239.642 541.714L242.681 540.244C240.435 534.941 257.679 480.762 288.484 461.154C318.09 442.307 344.487 452.372 357.187 457.202L358.943 457.861C368.519 461.458 376.744 474.108 382.081 493.513C390.593 524.419 389.748 564.733 380.358 576.487L381.777 580.862C395.389 567.638 396.149 529.638 386.185 493.462C382.199 478.989 374.481 458.841 360.869 453.723L359.129 453.065C345.922 448.032 316.722 437.071 286.677 458.3L286.66 458.317Z" fill="#0E141B"/>
<path d="M257.476 741.001C290.055 748.128 324.592 738.873 333.391 717.29L329.118 716.378C321.096 734.229 290.122 741.728 259.587 735.04C225.759 727.642 212.772 695.469 214.9 687.684L210.407 689.068C207.857 698.425 223.817 733.621 257.493 741.001H257.476Z" fill="#0E141B"/>
<path d="M374.582 682.869C372.387 676.299 374.954 656.05 378.754 637.591C383.01 616.919 387.283 595.436 385.239 582.719C383.483 571.725 378.619 560.646 369.414 548.03L367.557 553.198C376.271 565.189 378.501 575.609 380.189 586.198C382.132 598.29 377.589 620.313 373.603 639.735C369.55 659.461 365.057 675.033 367.54 682.464L368.435 685.149C375.275 705.618 377.386 711.056 372.877 714.806C367.911 718.943 341.481 718.082 331.297 713.455C328.189 712.036 325.825 709.232 322.852 705.686C315.675 697.123 300.914 683.173 284.346 678.377C253.744 669.51 224.965 681.991 212.13 687.21C209.478 688.29 207.367 689.135 206.117 689.456C199.497 691.111 185.75 686.163 180.126 674.932C176.647 667.956 185.226 660.458 193.535 653.213C197.2 650.004 200.662 646.981 203.027 644.025C212.13 632.659 220.203 576.774 228.512 560.781C234.626 549.009 251.261 534.417 261.901 527.071C262.999 524.605 264.603 522.308 266.106 520.096L263.792 521.683C251.514 527.983 232.97 544.23 225.033 558.146C213.988 577.467 210.948 623.944 198.653 640.631C196.592 643.434 192.573 646.71 189.009 649.818C180.159 657.536 169.503 667.213 174.147 676.536C180.092 688.426 194.025 695.215 204.31 694.489C205.847 694.387 211.556 692.58 214.444 691.415C256.513 674.357 290.173 673.462 318.563 707.256C321.687 710.972 326.044 716.714 329.861 718.454C340.687 723.368 370.107 724.703 376.558 719.349C382.976 713.995 382.469 706.463 375.494 685.571L374.599 682.886L374.582 682.869Z" fill="#0E141B"/>
<path d="M299.36 478.719C289.835 485.643 260.584 518.745 256.513 535.042C252.713 550.209 255.787 599.963 271.105 612.224C285.359 623.624 313.564 629.163 326.196 624.958C337.985 621.023 373.231 584.172 371.222 543.926C368.992 499.205 352.661 485.727 350.921 484.68C346.142 481.809 310.844 470.376 299.36 478.735V478.719ZM273.976 608.948C260.634 598.274 258.017 552.708 262.053 536.562C265.701 521.987 291.49 490.034 301.589 482.671C311.25 475.645 342.899 485.559 347.848 488.531C353.607 491.976 363.791 507.142 365.547 542.034C367.439 580.017 336.144 616.615 325.318 620.229C314.729 623.759 288.501 620.584 273.976 608.964V608.948Z" fill="#0E141B"/>
<path d="M361.967 293.703L365.733 295.088C371.576 286.289 397.028 278.318 416.365 290.292C435.416 302.08 453.115 332.851 447.373 354.824C441.513 377.286 417.362 398.751 388.566 394.259C361.933 390.104 344.335 376.103 339.032 354.841L335.755 355.668C340.991 377.843 359.079 395.154 387.57 399.596C414.541 403.818 443.759 382.724 451.055 357.813C458.857 331.129 438.979 299.817 418.949 287.421C397.653 274.231 368.992 281.831 361.967 293.686V293.703Z" fill="#0E141B"/>
<path d="M333.306 286.728C349.874 287.707 383.246 301.928 391.083 309.325C399.612 317.381 401.334 334.286 394.984 347.814C389.428 359.653 379.379 365.615 367.422 364.163C352.475 362.356 321.028 344.673 319.289 344.859L315.641 348.203C318.461 348.557 351.496 365.649 367.016 367.523C380.527 369.162 392.434 362.507 398.649 349.267C405.692 334.253 402.516 314.797 392.822 305.643C383.686 297.03 347.662 283.08 331.229 282.117L333.306 286.745V286.728Z" fill="#0E141B"/>
<path d="M305.187 231.096C294.226 226.148 233.342 234.305 185.158 264.485L196.44 262.746C247.106 235.859 291.422 232.954 302.349 235.639C309.122 237.295 315.827 258.169 318.985 269.079C320.319 269.332 321.602 269.704 322.818 270.194C321.163 256.869 313.226 234.728 305.187 231.096Z" fill="#0E141B"/>
<path d="M86.5959 415.589C88.3017 419.524 95.9691 415.977 109.429 407.583C117.84 402.331 128.818 397.619 137.009 395.558L137.904 391.387C126.386 393.802 117.029 398.784 108.078 403.581C93.3514 411.468 90.0074 414.491 89.7879 407.887C89.5008 399.122 93.8581 381.456 98.0634 371.34L95.4794 369.145C87.6937 383.432 82.6102 406.35 86.5959 415.589Z" fill="#0E141B"/>
<path d="M103.046 375.512C101.306 372.978 99.7861 369.82 98.4519 366.324C96.7124 366.628 95.3613 367.642 93.5542 368.013C95.1755 371.999 96.6786 374.802 98.7222 377.758C112.571 397.855 134.003 397.214 139.475 396.775C139.475 394.866 139.12 392.738 139.12 390.982C129.679 391.303 115.121 393.143 103.046 375.495V375.512Z" fill="#0E141B"/>
<path d="M132.331 283.114C113.415 294.227 97.067 310.271 94.0439 324.643C96.307 322.752 98.3843 321.164 101.087 319.61C107.808 306.623 121.319 295.392 137.684 286.154C204.699 248.34 336.634 242.513 334.742 301.303C333.796 330.808 318.934 347.139 305.525 349.808C290.156 352.881 261.225 362.373 247.833 370.986C231.434 381.525 217.433 405.456 208.212 414.677C199.75 423.138 191.07 433.305 176.866 427.969C176.072 428.965 171.496 433.339 171.496 433.339C192.623 438.727 202.706 428.745 210.255 421.196C220.355 411.097 238.172 382.014 248.339 375.478C261.225 367.203 292.892 356.512 308.007 352.898C322.565 349.419 338.255 332.953 339.268 301.607C341.362 236.687 200.629 242.986 132.331 283.114Z" fill="#0E141B"/>
<path d="M106.238 315.066C91.0546 321.805 65.3162 349.249 65.502 373.045C65.502 374.397 66.1606 375.461 67.2077 376.17C70.9401 378.686 80.7356 374.836 94.7701 369.972C117.317 362.169 118.499 361.798 120.897 350.144C123.65 336.735 119.613 324.22 114.327 318.242C111.71 315.269 108.906 313.867 106.221 315.05L106.238 315.066ZM111.912 321.079C115.493 325.132 118.127 332.968 118.127 341.632C118.127 362.372 112.166 360.193 94.7701 366.222C85.3293 369.499 73.5748 373.569 70.7544 371.661C70.5517 371.525 70.349 371.306 70.3153 370.765C69.4033 352.914 92.5408 325.47 107.014 319.035C108.855 318.225 110.679 319.694 111.895 321.079H111.912Z" fill="#0E141B"/>
<path d="M142.7 415.286L145.352 407.99C139.407 389.547 144.203 372.81 148.882 364.282C153.577 355.753 149.608 357.931 146.77 361.647C141.197 368.96 130.979 388.027 142.7 415.302V415.286Z" fill="#0E141B"/>
<path d="M149.371 391.268C144.119 398.463 134.391 436.8 134.391 443.911C134.391 447.761 135.945 447.626 138.225 447.373C156.853 445.262 181.392 431.666 189.904 417.21C194.211 409.897 188.097 401.047 178.471 394.004C169.553 387.468 154.624 384.074 149.371 391.285V391.268ZM177.018 397.18C180.193 399.51 190.124 407.769 184.872 416.703C176.984 430.129 151.347 441.597 142.109 441.546C140.623 441.546 140.1 441.208 140.032 441.09C139.829 440.719 139.728 440.06 139.728 439.148C139.728 430.231 149.186 397.771 153.695 392.755C157.36 388.684 168.27 390.745 177.018 397.163V397.18Z" fill="#0E141B"/>
<path d="M433.642 299.817C431.024 305.171 432.224 305.576 437.712 305.188C450.362 304.31 463.012 305.475 471.389 307.738C462.877 313.446 456.763 320.303 452.304 328.427C449.146 334.186 448.758 334.946 456.307 334.726C459.972 334.625 466.001 334.557 471.304 335.317C478.752 336.381 480.036 338.695 487.348 349.115C498.731 365.312 513.121 384.886 523.372 392.857C574.207 432.394 612.713 400.846 617.797 362.17L614.166 364.281C608.508 396.1 574.596 428.205 524.926 388.838C512.901 379.296 493.259 351.716 489.713 346.16C483.109 335.875 483.43 334.27 471.946 332.429C464.903 331.298 456.881 330.977 455.783 330.876C458.519 324.88 468.805 312.011 475.746 308.211C483.16 304.141 478.887 304.259 474.716 305.695C460.884 301.776 451.207 301.101 436.986 302.03C434.774 302.182 452.423 278.723 456.003 275.953L452.439 275.818C445.87 281.003 437.493 292.015 433.693 299.8L433.642 299.817Z" fill="#0E141B"/>
<path d="M505.369 314.966C503.055 314.257 495.54 317.381 490.203 321.097C487.264 323.141 487.805 324.661 490.828 323.276C493.851 321.891 500.724 318.361 504.372 319.307C508.595 320.388 514.354 339.252 516.026 343.947C516.735 343.019 517.495 342.123 518.154 341.127C515.063 332.21 510.131 316.436 505.369 314.983V314.966Z" fill="#0E141B"/>
<path d="M525.247 358.133C524.656 358.893 523.288 358.167 522.021 358.1C523.288 360.667 525.399 365.142 526.919 367.709C527.544 367.169 527.797 364.788 528.456 364.18C527.324 362.187 526.26 360.16 525.247 358.133Z" fill="#0E141B"/>
<path d="M611.379 365.328C610.028 368.047 608.66 370.665 607.208 373.164C607.579 374.651 606.65 375.292 605.519 375.917C603.256 379.413 600.705 382.588 597.632 385.291C596.703 387.402 595.943 387.773 593.139 388.635C587.465 392.198 580.169 394.461 570.238 394.833C558.551 395.289 548.739 389.547 540.75 381.153C537.373 381.204 534.789 379.329 535.464 374.904C535.025 374.33 534.603 373.756 534.181 373.181C533.387 373.553 532.492 373.705 531.36 373.772C540.869 387.013 553.839 397.788 570.323 397.687C596.247 397.535 607.883 378.282 612.882 366.088L611.379 365.328Z" fill="#0E141B"/>
<path d="M608.474 369.33C607.951 369.634 607.427 369.955 606.887 370.276C606.988 371.07 607.073 371.863 607.073 372.59C607.073 374.042 606.228 375.832 604.489 375.748C603.999 375.714 603.526 375.376 603.087 374.92V377.048C603.492 377.268 603.914 377.403 604.404 377.437C605.603 377.504 606.87 376.795 607.714 375.967C608.458 375.224 608.728 373.974 608.761 372.961C608.795 371.745 608.677 370.546 608.491 369.347L608.474 369.33Z" fill="#0E141B"/>
<path d="M603.897 372.033C603.441 372.591 602.833 372.455 602.293 372.709C602.614 374.212 603.002 376.458 603.002 377.877C603.002 378.552 603.002 379.38 602.546 379.954C602.073 380.579 601.212 381.069 600.402 381.035C599.557 380.984 598.223 380.106 598.071 379.177C597.936 378.248 598.071 379.16 598.071 379.16C598.476 377.691 600.148 374.144 601.432 372.287C600.807 372.388 600.098 372.422 599.287 372.422C598.341 373.874 597.193 376.306 596.618 377.995C597.345 379.329 597.125 381.558 598.307 381.879C598.881 382.335 599.523 382.673 600.317 382.724C601.736 382.791 603.458 381.744 604.252 380.596C604.995 379.515 604.725 377.86 604.624 376.627C604.505 375.073 604.235 373.536 603.881 372.033H603.897Z" fill="#0E141B"/>
<path d="M595.555 374.651C594.93 375.478 590.927 381.355 589.424 385.037C588.9 386.321 588.9 387.03 589.964 388.01C590.927 388.888 592.126 389.53 593.46 389.597C594.947 389.665 596.652 388.939 597.649 387.824C598.561 386.794 598.628 385.409 598.595 384.108C598.561 382.825 598.392 381.524 598.189 380.258C597.902 378.501 597.463 376.475 597.075 375.039C596.686 373.604 596.196 373.84 595.571 374.668L595.555 374.651ZM595.876 377.201C596.213 377.876 596.923 382.571 596.923 384.615C596.923 385.375 597.041 386.118 596.72 386.591C596.416 387.047 594.541 387.959 593.528 387.908C592.346 387.858 591.045 386.963 590.758 386.371C590.471 385.78 595.538 376.542 595.876 377.218V377.201Z" fill="#0E141B"/>
<path d="M560.764 222.635C554.718 208.178 547.422 183.571 545.074 176.056C541.224 163.643 531.749 158.627 524.487 177.728C522.156 183.842 520.214 190.732 517.326 199.481C514.185 208.938 510.942 218.717 508.392 222.348L510.604 223.902C513.391 219.95 516.228 212.586 519.589 202.504C522.072 195.022 524.926 185.818 527.577 179.518C532.492 167.797 538.099 165.788 542.254 178.691C544.922 186.983 552.623 211.725 558.484 225.27C564.344 238.814 564.986 234.086 561.71 225.894C575.862 227.381 594.102 235.741 602.394 241.973C603.594 241.162 604.793 240.486 605.992 239.861C593.393 231.231 572.181 223.479 560.781 222.618L560.764 222.635Z" fill="#0E141B"/>
<path d="M637.422 319.711C644.768 302.468 645.005 286.998 631.139 267.998C629.298 268.234 631.139 270.751 629.974 272.626C640.293 287.386 640.107 305.592 636.206 313.834C636.999 315.911 636.662 318.85 637.422 319.711Z" fill="#0E141B"/>
<path d="M636.695 306.504C634.314 296.641 631.882 297.35 633.943 308.125C639.685 338.238 637.151 343.271 613.575 363.605C604.033 371.847 598.848 370.816 590.235 362.895C578.193 351.816 566.236 341.953 530.246 337.191C530.246 338.137 529.874 338.93 529.874 339.876C570.846 347.088 577.838 355.954 587.921 365.108C597.598 373.873 601.719 377.538 614.943 366.442C642.235 343.575 644.059 337.056 636.695 306.487V306.504Z" fill="#0E141B"/>
<path d="M523.355 335.587C519.876 335.333 513.729 332.378 510.115 323.309L512.901 330.132C513.627 333.932 518.778 338.424 521.666 338.238C522.426 337.478 523.913 336.364 523.355 335.587Z" fill="#0E141B"/>
<path d="M649.818 204.312C629.062 220.745 600.064 244.761 582.06 249.962C575.288 251.921 577.349 253.357 582.517 252.631C597.902 250.452 640.614 216.388 652.655 206.356C659.918 200.309 664.005 204.633 659.242 213.516C659.242 213.516 620.263 280.902 614.858 300.443C613.44 305.543 613.642 313.329 617.645 302.165C626.968 276.207 638.131 258.491 662.096 213.972C667.129 204.464 661.606 194.989 649.835 204.312H649.818Z" fill="#0E141B"/>
<path d="M593.291 355.481C594.051 356.512 595.74 358.42 596.23 359.856C596.703 361.291 597.699 361.663 597.531 360.261C597.125 356.782 596.5 355.887 595.014 354.738C593.528 353.59 592.548 354.468 593.308 355.481H593.291Z" fill="#0E141B"/>
<path d="M612.139 354.318C611.616 355.128 610.417 356.682 610.163 357.763C609.91 358.844 609.15 359.215 609.15 358.185C609.184 355.618 609.589 354.926 610.704 353.929C611.818 352.95 612.663 353.49 612.139 354.301V354.318Z" fill="#0E141B"/>
<path d="M576.014 292.674C576.605 296.085 576.605 310.677 573.7 315.034C572.468 316.875 572.704 318.344 574.494 316.52C581.773 309.157 578.091 295.95 577.585 293.129C577.078 290.309 575.406 289.279 575.997 292.69L576.014 292.674Z" fill="#0E141B"/>
<path d="M565.999 311.689C558.923 298.448 545.902 283.029 538.521 276.864C530.769 270.379 531.817 273.791 536.917 278.334C546.172 286.592 557.808 302.214 564.564 313.344C568.904 320.488 570.221 319.61 565.982 311.689H565.999Z" fill="#0E141B"/>
<path d="M527.797 292.031C529.317 287.927 532.627 281.341 537.795 277.744C536.917 277.659 536.292 276.443 535.481 276.342C531.766 279.128 527.155 286.019 526.057 292.048C525.331 296 526.429 295.747 527.797 292.048V292.031Z" fill="#0E141B"/>
<path d="M566.269 314.645C553.704 311.099 539.737 303.735 531.766 298.584C527.78 296.017 527.864 297.385 531.664 300.155C537.288 304.597 551.661 312.686 567.114 316.317C566.776 315.794 566.506 315.22 566.269 314.629V314.645Z" fill="#0E141B"/>
<path d="M553.789 297.165C552.353 301.133 549.026 303.768 545.26 303.768C540.126 303.768 535.971 298.87 535.971 292.841C535.971 288.636 538.741 284.599 541.882 282.792C541.528 282.556 541.088 281.982 540.835 281.627C537.221 283.434 534.384 287.318 534.029 292.081C533.404 300.745 539.045 305.018 545.007 305.187C549.178 305.305 553.975 302.518 555.41 297.604C554.887 297.317 554.177 297.654 553.789 297.165Z" fill="#0E141B"/>
<path d="M402.973 124.647C402.246 130.456 402.297 138.411 402.787 146.889C395.981 145.335 367.405 137.212 355.617 133.496C330.672 125.609 329.979 138.58 339.944 146.45C343.44 149.22 350.432 154.421 352.678 158.779C360.295 173.641 360.396 185.784 357.339 191.847C354.992 196.508 352.982 199.869 360.633 205.223C367.439 209.985 371.779 214.427 371.813 214.495L372.134 211.201C372.015 210.931 371.695 207.942 364.264 202.74C357.846 198.248 359.889 195.309 361.815 191.458C365.463 184.162 361.916 166.041 354.502 155.435C352.188 152.141 348.236 149.017 344.419 145.994C333.83 137.617 335.823 131.453 356.596 138.022C370.208 142.312 400 148.933 403.023 150.03C403.682 154.81 406.772 158.238 406.131 150.605C405.624 144.542 405.692 133.716 406.654 127.383C407.836 119.496 410.285 123.076 412.025 126.386C414.423 130.929 418.493 137.499 423.83 143.427C438.895 160.113 456.645 166.125 463.451 168.828C471.608 172.222 473.686 174.147 479.208 188.503C486.099 206.472 507.885 227.803 522.832 231.637C525.652 232.363 527.273 231.772 524.267 230.134C505.436 219.899 490.152 206.928 481.961 185.564C476.455 171.226 475.121 169.233 465.815 165.348C461.661 163.93 441.681 158.981 425.84 141.603C419.929 135.135 416.804 128.599 414.913 123.92C409.458 110.46 404.02 116.591 403.006 124.664L402.973 124.647Z" fill="#0E141B"/>
<path d="M372.184 191.189C364.044 211.405 367.658 251.262 406.975 266.698C432.545 276.747 449.906 279.449 461.678 275.801C461.475 277.001 461.103 280.733 464.363 274.197C467.622 267.678 474.412 249.539 500.387 240.42C502.042 243.324 504.592 243.679 502.531 238.629C495.472 221.251 466.626 180.954 435.838 170.939C405.894 161.195 380.071 171.615 372.184 191.189ZM409.441 263.912C371.948 249.05 369.009 212.604 375.967 193.114C382.469 174.891 406.688 164.589 437.476 174.841C457.827 181.613 488.176 214.698 499.441 238.444C467.521 249.404 463.113 269.333 461.931 272.947C460.073 273.977 447.88 279.145 409.441 263.912Z" fill="#0E141B"/>
<path d="M420.452 187.523C411.299 190.699 404.779 197.167 401.385 205.274C397.247 215.137 400.439 228.192 408.951 240.132C421.618 257.916 444.755 268.015 467.622 266.529L467.487 264.333C445.397 265.752 424.894 256.362 412.667 239.203C404.611 227.888 401.976 215.153 405.827 205.983C408.985 198.45 415.166 192.911 423.729 189.939C436.48 185.514 456.763 188.891 469.497 195.934L467.369 192.404C454.128 185.075 433.761 182.896 420.469 187.507L420.452 187.523Z" fill="#0E141B"/>
<path d="M561.558 378.265C560.206 379.43 557.386 382.791 555.326 385.46C554.43 386.625 552.978 388.246 552.809 389.783C552.607 391.573 554.498 393.769 556.119 394.343C560.696 395.948 563.196 393.431 563.533 389.631C563.821 386.338 563.956 382.842 563.736 379.616C563.533 376.374 562.925 377.066 561.541 378.265H561.558ZM561.777 380.967C562.081 381.525 561.929 390.425 561.321 391.708C560.713 392.992 558.045 393.296 556.913 392.739C555.782 392.181 554.718 390.695 554.92 389.26C555.123 387.824 561.473 380.427 561.777 380.984V380.967Z" fill="#0E141B"/>
<path d="M553.316 372.725C551.019 374.076 544.331 380.409 543.723 382.74C543.081 385.206 544.939 387.621 547.151 388.617C555.579 392.468 555.461 379.717 555.731 375.427C556.001 370.968 555.63 371.357 553.333 372.708L553.316 372.725ZM547.844 387.097C546.408 386.439 545.429 384.919 545.429 383.415C545.429 383.331 545.429 383.247 545.429 383.179C545.75 381.575 553.67 373.907 553.941 374.633C554.194 375.343 552.91 385.189 551.61 386.388C550.31 387.587 548.604 387.469 547.844 387.114V387.097Z" fill="#0E141B"/>
<path d="M545.598 364.164C544.416 365.143 541.663 366.967 539.873 368.673C538.116 370.362 535.245 372.642 535.025 375.31C534.823 377.877 536.714 380.968 539.079 381.964C545.699 384.734 546.679 377.455 547.439 365.295C547.54 363.623 546.763 363.184 545.598 364.164ZM539.737 380.411C538.015 379.701 536.833 377.658 536.833 375.445V375.395C537.17 373.807 544.888 366.477 545.243 367.102C545.598 367.71 544.095 377.32 543.301 379.313C542.254 380.292 540.936 380.917 539.737 380.411Z" fill="#0E141B"/>
<path d="M537.356 354.469C535.312 355.922 529.266 361.411 528.27 362.627C527.476 363.606 526.361 364.805 526.344 366.123C526.328 367.338 526.547 369.213 527.02 370.328C528.084 372.827 530.617 375.04 533.59 374.499C537.136 373.858 537.559 368.757 538.082 365.312C538.606 361.867 539.231 356.969 539.332 354.976C539.433 353 538.808 353.405 537.356 354.452V354.469ZM536.832 358.016C537.052 358.506 535.397 369.365 534.586 371.409C533.623 372.304 532.576 372.591 531.512 372.186C529.688 371.476 528.337 369.027 528.168 366.173C528.624 364.417 536.613 357.526 536.832 358.016Z" fill="#0E141B"/>
<path d="M529.638 326.67C527.831 328.579 524.081 332.818 521.599 335.925C518.964 339.252 515.586 343.424 513.864 347.359C512.141 351.328 514.759 358.049 519.032 359.704C525.888 361.765 527.797 357.965 528.337 356.276C530.33 350.078 531.968 331.635 531.968 328.089C531.968 324.542 531.411 324.745 529.621 326.653L529.638 326.67ZM529.215 330.673C530.263 330.571 527.02 355.634 525.078 356.766C523.136 357.897 521.126 357.999 519.555 357.374C516.887 356.327 515.08 352.138 515.654 348.845C516.228 345.552 528.168 330.774 529.215 330.673Z" fill="#0E141B"/>
<path d="M545.361 290.392C545.361 292.351 543.858 293.939 542 293.939C540.143 293.939 538.403 292.351 538.403 290.392C538.403 288.433 540.143 286.846 542 286.846C543.858 286.846 545.361 288.433 545.361 290.392Z" fill="white"/>
</g>
<defs>
<clipPath id="clip0_42_61493">
<rect width="720" height="627.382" fill="white" transform="translate(40 116)"/>
</clipPath>
</defs>
</svg>
