<svg width="800" height="800" viewBox="0 0 800 800" fill="none" xmlns="http://www.w3.org/2000/svg">
<g clip-path="url(#clip0_42_61663)">
<path d="M658.082 337.383C654.338 329.872 569.388 317.361 492.291 326.425C487.451 293.23 466.059 261.154 419.782 248.46C376.611 236.634 340.516 257.273 324.649 284.828C291.089 264.053 220.019 233.141 210.499 240.15C200.02 247.867 209.814 350.739 225.179 402.814C202.554 443.634 189.518 496.257 200.454 554.383C191.185 560.935 170.752 586.55 171.003 601.276C171.528 629.882 219.22 661.684 248.603 664.424C260.314 665.519 278.944 660.839 287.939 653.625C304.719 663.876 347.046 672.483 369.556 672.368C382.957 691.18 408.847 719.421 432.955 718.234C480.853 715.86 572.629 561.323 561.557 474.272C610.002 438.52 661.164 343.57 658.06 337.383H658.082Z" fill="#FADBDA"/>
<path d="M210.499 240.151C201.481 246.794 207.486 323.983 219.129 378.546L232.211 389.436L244.607 371.949C230.407 342.749 212.965 273.026 210.728 240.014C210.659 240.059 210.568 240.082 210.499 240.128V240.151Z" fill="#D8BEBD"/>
<path d="M548.521 562.601L511.354 561.049C476.332 649.401 400.422 668.647 288.852 632.575C286.386 631.776 283.898 631.251 281.775 632.735C263.145 645.771 244.265 644.789 232.941 628.831C222.439 614.037 204.563 591.915 175.524 585.911C172.738 591.481 170.935 596.869 171.026 601.298C171.551 629.904 219.243 661.706 248.625 664.446C260.337 665.542 278.966 660.862 287.962 653.647C304.742 663.898 347.069 672.505 369.579 672.391C382.98 691.203 408.869 719.444 432.978 718.257C466.835 716.59 522.632 638.831 548.521 562.647V562.601Z" fill="#D8BEBD"/>
<path d="M203.993 593.903C204.266 601.665 178.4 607.715 171.825 602.35C165.821 597.442 164.428 579.657 170.455 577.283C179.45 573.744 203.719 586.004 203.993 593.903Z" fill="white"/>
<path d="M201.641 598.081C197.737 590.387 178.035 581.278 167.145 582.145C165.57 588.469 167.464 598.811 171.825 602.373C177.144 606.733 195.157 603.56 201.641 598.081Z" fill="#DCDDDD"/>
<path d="M473.867 680.314C509.23 699.172 569.456 677.735 591.898 623.605C612.468 573.995 587.811 510.482 556.74 495.482L473.867 680.292V680.314Z" fill="#FADBDA"/>
<path d="M532.494 634.219C543.133 628.146 548.681 620.544 555.279 601.321C561.557 582.989 596.784 584.61 597.72 603.581C605.893 558.218 583.748 508.54 556.74 495.504L473.867 680.313C492.222 690.107 517.244 689.011 540.234 678.167C522.107 673.555 517.632 642.712 532.494 634.219Z" fill="#D8BEBD"/>
<path d="M561.58 474.273C563.543 459.456 548.201 445.461 537.973 446.831C545.827 466.26 507.632 642.234 441.585 716.34C491.012 698.418 572.013 556.347 561.58 474.25V474.273Z" fill="#D8BEBD"/>
<path d="M207.212 248.895C202.943 276.291 212.029 358.205 225.179 402.815C228.193 397.358 231.389 392.153 234.722 387.13C224.677 355.077 210.476 297.408 207.212 248.895Z" fill="#0E141B"/>
<path d="M658.083 337.383C622.879 357.085 574.251 401.764 539.846 447.652C551.01 453.588 559.845 465.163 560.918 474.751C609.546 439.387 661.187 343.593 658.083 337.383Z" fill="#0E141B"/>
<path d="M563.201 323.412C567.607 341.996 579.227 374.414 589.935 391.012C613.609 367.954 638.038 348.616 658.082 337.384C655.48 332.202 614.02 324.599 563.201 323.412Z" fill="#524524"/>
<path d="M210.499 240.151C208.992 241.247 207.919 244.329 207.189 248.895C208.353 266.223 210.91 284.715 214.175 302.797C230.978 284.578 256.068 267.661 275.565 259.397C245.977 246.041 216.412 235.813 210.499 240.151Z" fill="#524524"/>
<path d="M295.199 447.63C295.13 451.123 287.756 452.607 280.154 451.899C272.551 451.191 264.606 449.433 265.474 445.689C266.159 442.653 273.099 441.146 280.473 441.717C288.03 442.31 295.29 444.137 295.221 447.63H295.199Z" fill="#EE87AE"/>
<path d="M460.739 479.5C460.123 483.153 451.311 482.925 442.955 480.938C435.215 479.089 426.791 475.482 428.252 471.692C429.439 468.633 438.343 468.747 445.923 470.482C453.708 472.263 461.333 475.87 460.717 479.5H460.739Z" fill="#EE87AE"/>
<path d="M373.163 467.355C374.944 467.15 378.163 462.561 379.259 456.283C375.697 456.557 371.725 456.511 367.638 456.191C368.346 461.99 371.611 467.538 373.14 467.355H373.163Z" fill="white"/>
<path d="M338.348 474.136C340.288 485.185 344.58 494.158 351.338 495.276C358.917 496.555 368.186 488.13 374.099 476.533C365.995 464.41 348.827 461.123 338.325 474.113L338.348 474.136Z" fill="#EE869A"/>
<path d="M379.259 456.306C378.14 462.561 374.944 467.15 373.163 467.379C371.611 467.561 368.369 462.013 367.661 456.215C356.954 455.393 345.402 452.699 337.731 449.16C336.749 457.151 336.955 466.169 338.348 474.136C348.849 461.146 366.018 464.433 374.122 476.556C377.273 470.369 379.487 463.269 379.967 456.237C379.738 456.237 379.51 456.283 379.259 456.306Z" fill="#933000"/>
<path d="M323.257 355.671C326.91 383.911 369.373 414.572 405.08 400.486C446.311 384.231 442.863 338.457 424.097 319.439C429.576 342.11 416.266 365.693 394.829 374.597C373.871 383.295 335.79 376.583 323.234 355.671H323.257Z" fill="#D8BEBD"/>
<path d="M358.164 338.981C346.429 323.868 354.397 301.996 373.026 293.641C391.016 285.559 418.641 293.892 424.896 314.758C404.577 289.486 352.959 295.741 358.187 339.004L358.164 338.981Z" fill="#D8BEBD"/>
<path d="M410.582 711.408C410.696 714.399 424.143 721.522 432.613 720.929C445.466 720.015 455.557 712.482 455.694 708.669C455.831 704.856 440.74 699.4 431.174 700.427C423.024 701.295 410.468 707.596 410.605 711.408H410.582Z" fill="#DCDDDD"/>
<path d="M210.727 240.014C210.727 240.014 210.568 240.082 210.499 240.151C208.992 241.246 207.919 244.329 207.189 248.895C208.353 266.223 210.91 284.715 214.175 302.796C216.161 300.65 218.261 298.504 220.453 296.404C215.385 274.898 211.641 254.123 210.705 240.014H210.727Z" fill="#3F3417"/>
<path d="M420.467 245.994C372.729 232.913 332.48 258.117 318.485 290.011C303.988 323.046 313.577 376.148 363.894 393.18C389.099 401.718 432.932 389.139 435.877 350.647C439.096 308.549 405.217 293.275 382.204 299.028C363.689 303.663 354.077 317.521 356.452 336.584C357.045 341.31 359.83 341.218 359.397 336.47C357.205 312.749 375.515 305.352 383.414 303.389C408.687 297.065 431.791 317.155 429.553 350.35C427.293 383.979 387.957 396.924 365.264 389.093C320.86 373.797 309.718 325.511 324.079 292.841C337.252 262.82 374.396 238.643 419.097 250.88C472.52 265.514 486.286 303.731 489.825 326.287L494.802 325.648C488.98 286.655 461.995 257.386 420.49 246.017L420.467 245.994Z" fill="#0E141B"/>
<path d="M659.817 336.517C654.977 326.837 563.246 312.842 487.77 325.011C479.666 326.312 480.099 329.6 488.272 328.869C566.602 321.837 652.169 331.654 656.279 338.184C658.881 342.339 609.203 433.088 561.032 470.872L562.516 477.31C615.778 436.284 663.333 343.526 659.84 336.517H659.817Z" fill="#0E141B"/>
<path d="M373.803 672.895L366.155 672.963C372.524 681.981 390.446 703.578 410.354 714.148L411.038 710.016C397.82 702.3 385.012 688.305 373.803 672.895Z" fill="#0E141B"/>
<path d="M658.288 339.484L656.644 335.945C620.664 356.241 571.419 400.92 537.585 446.032C536.718 447.196 536.9 448.201 538.224 448.908C548.361 454.296 557.995 466.716 559.365 475.62C566.442 547.511 501.217 669.743 454.301 706.591L454.004 712.527C506.97 679.948 575.072 553.242 563.748 473.337C562.379 463.702 552.311 451.739 543.704 447.493C577.104 403.431 623.244 359.3 658.288 339.484Z" fill="#0E141B"/>
<path d="M430.946 698.486C423.275 699.307 407.043 705.631 407.249 711.43C407.454 717.138 426.06 723.348 432.727 722.868C445.649 721.955 458.388 713.736 458.593 708.257C458.776 703.417 442.087 697.298 430.946 698.486ZM432.476 719.01C425.124 719.535 413.938 713.736 413.618 711.225C413.344 709.033 423.07 703.257 431.38 702.367C440.832 701.362 451.904 706.111 452.269 708.599C452.589 710.814 444.987 718.142 432.499 719.01H432.476Z" fill="#0E141B"/>
<path d="M562.813 496.761L562.425 501.076C594.501 523.335 604.957 585.182 589.501 622.463C569.57 670.543 517.769 692.734 484.117 682.438L480.99 685.474C511.947 696.159 569.867 683.831 594.409 624.632C613.998 577.397 593.131 516.623 562.79 496.738L562.813 496.761Z" fill="#0E141B"/>
<path d="M552.288 553.836L550.416 559.064C556.466 572.968 556.283 592.738 547.014 610.591C539.731 624.655 527.745 638.216 512.381 641.983L508.911 646.572C527.38 644.083 543.863 629.609 552.265 613.377C560.826 596.871 561.831 571.232 552.265 553.836H552.288Z" fill="#0E141B"/>
<path d="M238.032 378.592C206.595 417.586 183.697 482.172 197.326 552.649C192.19 556.689 184.45 566.21 178.126 576.574L183.286 577.351C189.564 568.31 197.303 560 202.258 556.484C203.079 555.913 203.239 555.616 203.057 554.543C190.317 486.852 210.773 424.298 241.114 381.218C249.516 369.3 247.187 367.223 238.055 378.569L238.032 378.592Z" fill="#0E141B"/>
<path d="M315.495 316.335C306.933 318.938 296.409 324.12 287.779 330.969C275.907 340.421 277.939 343.343 289.925 334.394C298.509 327.979 308.029 324.577 315.951 321.815L315.517 316.312L315.495 316.335Z" fill="#0E141B"/>
<path d="M374.51 670.726C353.735 671.046 306.522 662.119 288.875 651.321C287.779 650.659 287.642 650.681 286.637 651.458C278.51 657.987 260.885 662.142 249.173 661.069C219.015 658.261 175.82 627.303 173.081 603.218L169.085 601.711C170.09 632.349 217.713 664.585 248.466 667.439C260.725 668.58 279.697 663.535 288.372 655.932C309.193 669.242 356.246 677.073 374.761 673.466C380.697 672.301 380.423 670.635 374.51 670.726Z" fill="#0E141B"/>
<path d="M219.289 563.56C215.408 561.095 209.86 558.835 206.093 557.876C203.513 557.214 203.833 555.57 206.504 555.501C210.682 555.387 216.983 557.145 220.978 561.277C224.106 564.496 222.553 565.638 219.289 563.583V563.56Z" fill="#0E141B"/>
<path d="M169.77 575.478C161.46 578.743 163.629 599.359 169.77 604.381C176.528 609.929 207.371 604.632 207.006 593.902C206.664 584.131 180.158 571.392 169.793 575.501L169.77 575.478ZM173.606 600.272C168.446 596.048 167.053 580.729 171.186 579.108C178.994 576.049 200.751 587.715 200.956 593.834C201.162 599.473 179.245 604.883 173.606 600.272Z" fill="#0E141B"/>
<path d="M277.346 260.766L272.277 258.711C252.803 267.021 230.179 282.386 214.198 299.942L215.294 304.508C232.804 286.495 258.442 269.418 277.346 260.766Z" fill="#0E141B"/>
<path d="M590.939 388.957C580.848 372.748 569.936 342.384 565.438 324.302L561.443 324.211C565.096 342.954 576.397 374.779 588.017 391.56L590.962 388.957H590.939Z" fill="#0E141B"/>
<path d="M410.331 415.233C414.143 415.759 415.33 420.964 412.682 433.246C410.833 441.785 406.975 449.981 403.002 449.068C399.486 448.269 399.281 439.776 400.947 431.488C403.093 420.736 406.381 414.686 410.331 415.233Z" fill="#0E141B"/>
<path d="M406.153 423.315C405.696 425.964 406.061 428.68 407.614 428.886C409.372 429.137 410.787 426.466 411.312 423.726C411.837 420.987 411.495 418.156 409.714 418.019C407.956 417.882 406.632 420.576 406.176 423.315H406.153Z" fill="white"/>
<path d="M331.453 401.719C334.992 402.244 335.151 409.687 333.142 418.91C330.699 430.166 326.978 434.686 324.421 434.047C321.659 433.362 321.065 426.741 322.983 417.244C325.038 407.039 328.006 401.171 331.453 401.697V401.719Z" fill="#0E141B"/>
<path d="M327.343 409.869C326.796 412.404 327.001 415.006 328.394 415.257C329.969 415.554 331.384 413.088 332.001 410.486C332.617 407.883 332.435 405.144 330.836 404.961C329.238 404.755 327.914 407.29 327.366 409.869H327.343Z" fill="white"/>
<path d="M333.599 448.498C328.987 445.484 329.992 443.498 334.854 446.055C345.63 451.671 367.798 455.712 381.793 454.616C388.596 454.068 388.779 456.032 382.113 457.379C370.88 459.685 346.795 457.151 333.576 448.521L333.599 448.498Z" fill="#0E141B"/>
<path d="M378.049 456.579C376.93 461.944 374.807 465.369 374.031 465.346C373.255 465.3 371.451 461.807 370.583 456.853L366.223 456.534C366.999 462.264 371.36 468.999 373.871 468.999C376.748 468.999 381.177 461.556 382.067 456.26L378.049 456.557V456.579Z" fill="#0E141B"/>
<path d="M377.912 456.67C376.337 476.03 362.114 495.116 351.657 493.358C342.388 491.806 337.754 470.368 339.946 450.62L335.585 448.383C333.188 467.172 337.503 494.933 351.018 497.193C364.922 499.522 381.108 474.615 382.318 456.351L377.889 456.67H377.912Z" fill="#0E141B"/>
<path d="M338.736 471.237L339.512 475.551C349.306 462.858 365.196 466.26 372.73 477.492L374.419 474.159C365.766 463.086 349.603 460.21 338.736 471.259V471.237Z" fill="#0E141B"/>
<path d="M309.262 437.334C296.751 426.832 302.253 405.806 316.271 398.477C319.992 396.537 321.271 398.34 317.732 400.578C306.842 407.427 302.208 426.878 311.111 435.462C314.353 438.59 312.276 439.868 309.285 437.357L309.262 437.334Z" fill="#0E141B"/>
<path d="M420.422 455.484C432.088 448.589 433.138 429.001 426.403 420.577C424.257 417.906 426.175 416.422 428.595 418.865C437.544 427.905 436.768 451.534 421.563 457.79C419.166 458.771 417.568 457.173 420.444 455.484H420.422Z" fill="#0E141B"/>
<path d="M211.823 241.955C219.517 236.293 286.82 265.744 321.59 287.364L325.152 281.268C291.683 260.949 220.179 230.22 209.129 238.348C198.422 246.224 205.294 345.01 223.284 404.756L226.594 398.752C210.248 341.813 203.81 247.868 211.823 241.955Z" fill="#0E141B"/>
<path d="M211.823 241.955L207.965 242.206L207.303 265.927C212.28 310.194 223.535 360.146 232.69 389.14L236.274 383.456C220.202 331.312 204.221 247.914 211.823 241.955Z" fill="#0E141B"/>
<path d="M637.718 531.918C645.526 532.945 654.635 536.073 654.475 538.972C654.315 541.872 641.393 549.497 623.38 552.237L637.718 531.941V531.918Z" fill="#DCDDDD"/>
<path d="M236.389 426.079C231.708 417.312 216.138 398.203 209.175 392.998C210.339 383.684 211.23 365.465 207.44 363.57C203.65 361.675 194.541 368.25 190.614 373.068C182.692 363.41 162.967 366.584 156.712 373.707C129.886 404.185 174.062 470.712 197.806 491.145C223.467 513.221 263.1 476.1 236.389 426.102V426.079Z" fill="#FADBDA"/>
<path d="M175.706 367.017C168.127 366.903 160.25 369.665 156.712 373.683C129.886 404.162 174.062 470.688 197.806 491.121C198.673 491.852 199.541 492.537 200.431 493.13H202.646C159.588 446.283 157.899 390.669 175.683 367.017H175.706Z" fill="#D8BEBD"/>
<path d="M152.031 378.066C147.854 378.066 138.196 391.399 143.562 402.677C145.068 405.851 163.949 407.198 165.57 404.458C167.213 401.673 155.114 378.089 152.031 378.089V378.066Z" fill="white"/>
<path d="M164.679 347.497C169.108 345.945 182.898 361.766 182.898 366.994C182.898 374.871 162.396 378.592 160.889 370.784C160.136 366.857 160.387 349.027 164.679 347.497Z" fill="white"/>
<path d="M510.349 560.045C553.772 573.491 627.673 577.464 634.956 535.913C638.928 513.243 564.434 488.313 528.499 481.212C492.976 474.204 475.807 549.36 510.349 560.045Z" fill="#FADBDA"/>
<path d="M619.134 514.5C620.824 524.454 614.317 535.161 606.075 536.531C611.76 539.659 613.746 544.932 611.76 547.124C604.888 554.772 586.67 553.014 582.949 552.215C566.876 558.494 542.311 560.891 505.463 557.968C505.463 557.968 508.294 559.407 510.349 560.046C553.772 573.493 627.673 577.465 634.955 535.915C635.891 530.572 630.093 519.363 619.157 514.5H619.134Z" fill="#D8BEBD"/>
<path d="M621.349 516.371C623.403 515.047 647.033 516.348 648.539 521.805C649.909 526.736 634.271 537.261 628.837 538.631C620.641 540.685 613.198 521.645 621.349 516.371Z" fill="white"/>
<path d="M628.814 538.63C634.247 537.261 649.886 526.736 648.516 521.805C639.224 526.051 627.056 528.882 618.7 529.498C620.435 534.978 624.499 539.703 628.791 538.63H628.814Z" fill="#DCDDDD"/>
<path d="M654.429 538.63C653.881 535.776 645.229 532.9 637.718 531.918L631.987 539.201C637.809 539.155 647.078 538.835 654.429 538.63Z" fill="white"/>
<path d="M169.77 375.054C168.172 368.547 165.524 356.836 164.771 347.498C164.748 347.498 164.702 347.498 164.679 347.498C160.387 349.005 160.113 366.858 160.889 370.785C161.506 374.027 165.433 375.259 169.77 375.054Z" fill="#DCDDDD"/>
<path d="M147.054 381.629C143.242 386.355 139.909 394.984 143.561 402.678C145.068 405.852 163.949 407.199 165.57 404.459C165.661 404.322 165.707 404.094 165.707 403.843C151.415 399.984 145.89 391.925 147.054 381.629Z" fill="#DCDDDD"/>
<path d="M155.25 372.405C153.789 374.071 152.557 375.852 151.461 377.679L154.588 380.281C155.57 378.386 156.734 376.606 158.173 374.962C159.017 374.003 160.068 373.135 161.232 372.405L160.022 368.684C158.127 369.734 156.483 370.967 155.25 372.405Z" fill="#0E141B"/>
<path d="M238.557 427.836C235.156 417.22 221.663 399.96 211.253 392.152C213.627 372.404 211.8 362.656 208.696 361.126C203.787 358.661 194.838 365.829 190.569 370.213C188.423 368.249 185.751 366.902 182.829 366.058L181.391 369.802C184.564 370.646 187.327 372.13 189.107 374.299C190.112 375.509 191.139 375.486 192.121 374.299C196.253 369.254 203.627 365.35 205.819 366.468C207.737 367.907 208.81 380.349 207.257 392.791C207.166 393.476 207.486 394.138 208.011 394.595C215.453 400.645 231.457 421.032 236.16 428.794C238.397 432.516 239.881 431.991 238.557 427.858V427.836Z" fill="#0E141B"/>
<path d="M141.621 404.002C136.096 392.382 145.89 375.602 152.077 375.602C156.917 375.602 169.245 402.016 167.236 405.418C165.022 409.139 143.79 408.545 141.621 404.002ZM151.689 380.875C148.082 380.282 140.89 394.551 145.662 401.491C147.054 403.523 162.579 405.418 163.789 403.409C164.885 401.605 153.858 381.218 151.689 380.875Z" fill="#0E141B"/>
<path d="M158.629 371.264C158.127 368.684 157.693 347.931 164.04 345.694C169.565 343.753 185.295 359.666 185.295 366.903C185.295 377.588 160.501 380.875 158.629 371.264ZM165.319 349.347C163.538 349.735 161.848 363.319 163.218 370.305C164.291 375.852 180.546 372.77 180.546 367.017C180.546 362.817 169.314 348.479 165.319 349.347Z" fill="#0E141B"/>
<path d="M525.919 479.431C518.499 478.541 517.951 480.641 525.303 482.148C547.334 486.646 596.715 501.828 619.819 518.06L624.842 515.685C601.167 497.764 550.849 482.468 525.919 479.431Z" fill="#0E141B"/>
<path d="M631.759 536.758C623.084 577.258 545.644 568.902 508.112 557.761C503.135 556.277 502.267 558.811 507.13 560.615C549.731 576.573 629.499 582.304 637.558 536.233C637.741 535.182 637.763 534.132 637.649 533.082L631.736 536.735L631.759 536.758Z" fill="#0E141B"/>
<path d="M586.396 554.223C580.483 553.355 580.757 550.867 586.716 551.232C597.423 551.894 608.381 548.493 608.792 545.342C609.249 541.872 605.162 537.808 600.345 535.868C593.154 532.945 593.839 530.799 601.418 532.557C607.856 534.041 614.545 539.657 613.723 545.867C612.605 554.2 595.322 555.547 586.396 554.246V554.223Z" fill="#0E141B"/>
<path d="M650.412 521.302C648.631 514.864 624.157 511.759 620.048 514.43C609.797 521.119 619.454 543.378 629.431 540.844C636.029 539.155 652.147 527.58 650.389 521.302H650.412ZM628.175 535.959C622.376 537.397 616.144 521.553 622.399 518.562C626.44 516.622 645.709 518.882 646.667 522.329C647.649 525.845 634.476 534.383 628.175 535.959Z" fill="#0E141B"/>
<path d="M656.416 539.088C656.576 536.302 650.366 531.714 643.905 529.979L638.768 533.951C646.896 535.572 652.466 538.083 652.466 538.882C652.466 540.229 645.229 544.407 631.075 547.9L626.737 554.361C643.129 551.165 656.21 542.832 656.416 539.088Z" fill="#0E141B"/>
<path d="M201.299 491.486C184.473 478.45 156.004 437.104 151.598 404.868L146.05 403.887C148.47 437.356 177.898 478.176 198.924 494.545C202.965 497.673 205.842 494.979 201.299 491.486Z" fill="#0E141B"/>
<path d="M242.05 419.253C239.059 417.039 233.763 414.436 228.329 413.135L232.073 418.203C235.909 419.116 238.192 419.824 240.749 421.239C244.265 423.18 245.772 422.038 242.05 419.253Z" fill="#0E141B"/>
</g>
<defs>
<clipPath id="clip0_42_61663">
<rect width="520" height="485.892" fill="white" transform="translate(140 237)"/>
</clipPath>
</defs>
</svg>
