<svg width="800" height="800" viewBox="0 0 800 800" fill="none" xmlns="http://www.w3.org/2000/svg">
<g clip-path="url(#clip0_42_61737)">
<path d="M45.8147 327.007C42.0452 324.2 45.6944 322.436 50.4262 320.852C76.0503 309.082 242.386 280.711 246.857 279.829C245.915 263.328 248.281 231.689 279.178 216.11C293.233 209.032 322.567 202.195 350.396 224.371C363.128 206.907 542.817 64.2502 554.125 70.3856C566.657 77.1826 489.043 249.132 488.1 254.787C494.697 259.498 517.815 281.353 519.699 287.007C530.907 270.686 547.709 253.824 561.243 241.874C561.243 241.874 558.336 220.822 562.045 219.679C570.446 217.092 579.148 229.142 579.148 229.142C579.148 229.142 591.659 221.904 594.867 223.629C598.075 225.353 597.514 239.228 597.514 239.228C597.514 239.228 609.323 241.955 610.988 245.463C612.03 247.649 607.96 251.338 602.787 259.819C603.649 304.711 582.978 366.847 579.188 376.751C599.94 422.265 608.762 478.125 605.374 532.601C600.922 604.08 577.785 679.528 546.867 716.28C527.9 721.413 497.123 720.892 480.541 720.29C468.271 713.694 449.404 655.208 441.865 651.438C434.326 647.669 385.263 659.919 347.529 644.842C308.531 629.243 278.677 599.569 261.694 564.661C244.712 529.774 240.942 512.792 237.173 500.521C207.459 495.328 154.166 450.516 148.511 442.035C140.01 440.15 129.484 436.22 129.323 433.393C129.143 430.005 136.762 425.674 139.128 421.904C138.186 419.077 129.684 406.947 130.587 405.263C131.689 403.218 142.216 402.897 146.627 402.897C148.191 397.704 151.88 391.107 155.649 391.107C158.476 391.107 164.552 397.243 164.552 397.243C164.552 397.243 218.005 406.526 227.429 412.18C227.108 403.057 228.692 392.05 228.692 388.28C228.692 384.972 73.0828 347.438 45.7946 327.027L45.8147 327.007Z" fill="#FBDAC8"/>
<path d="M150.256 446.587C144.261 443.078 101.394 446.066 91.0278 448.672C86.1155 449.895 76.3912 453.344 83.7697 459.86C92.4915 467.559 202.286 506.396 202.286 506.396C202.286 506.396 144.221 543.229 139.389 546.437C128.702 553.514 141.835 557.143 148.752 558.386C154.787 559.489 207.659 553.915 224.321 553.214C226.767 553.113 228.331 555.359 227.148 556.983C223.499 561.995 218.567 571.86 217.123 574.246C215.238 577.394 214.757 583.168 221.013 581.785C231.699 579.419 255.78 564.562 258.426 562.557C256.02 558.968 238.376 510.005 237.113 496.792C205.053 489.234 168.802 465.955 150.256 446.607V446.587Z" fill="#F7C8CE"/>
<path d="M598.156 425.032C622.978 427.618 642.907 439.247 658.166 454.987C662.236 459.177 663.559 464.711 666.948 469.383C673.644 478.606 681.464 487.548 685.654 497.593C694.577 519.067 697.805 540.801 695.639 555.819C686.697 617.433 650.988 670.265 574.897 668.38C588.11 646.365 602.567 578.455 606.958 549.523C611.369 520.591 606.336 445.764 598.156 425.012V425.032Z" fill="#FBDAC8"/>
<path d="M271.619 580.721C316.251 647.849 376.221 654.646 437.133 652.16C450.366 651.618 457.584 669.463 455.78 664.711C452.973 657.333 448.04 643.618 428.351 633.774C394.266 633.774 324.672 617.954 271.599 580.701L271.619 580.721Z" fill="#D9BDAE"/>
<path d="M574.877 587.278C589.975 557.102 599.579 499.117 604.13 454.285C608.942 476.761 609.785 567.468 593.744 619.358C587.89 638.305 561.043 724.06 534.316 720.29C526.937 719.248 542.196 702.285 547.529 667.458C551.058 644.34 526.256 638.927 525.835 632.551C525.374 625.473 559.318 618.415 574.877 587.278Z" fill="#D9BDAE"/>
<path d="M601.765 262.325C601.023 259.598 596.572 259.498 594.226 264.21C592.261 268.16 571.77 339.879 552.02 370.375C551.559 371.097 550.657 374.646 552.12 376.471C556.812 382.365 570.085 393.453 583.118 405.824C586.587 409.112 590.236 408.35 588.832 402.756C585.885 391.087 579.008 376.791 578.847 375.207C584.822 363.017 606.978 281.674 601.805 262.345L601.765 262.325Z" fill="#D9BDAE"/>
<path d="M486.216 257.133C476.371 277.283 463.038 239.95 467.349 233.875C491.87 199.288 539.669 101.183 550.176 75.2985C551.479 72.0905 553.243 70.8474 553.504 71.0078C561.684 76.0404 494.777 239.589 486.216 257.133Z" fill="#D9BDAE"/>
<path d="M42.2659 325.685C44.6117 338.297 228.953 389.886 236.612 389.565C245.955 389.184 239.579 369.174 227.148 367.189C207.659 364.041 40.8824 318.266 42.2659 325.685Z" fill="#D9BDAE"/>
<path d="M147.589 438.866C145.043 434.796 149.013 431.167 154.185 433.994C159.378 436.821 229.193 478.325 232.481 478.806C235.789 479.287 238.877 499.117 235.569 498.816C208.06 496.27 158.576 456.43 147.589 438.886V438.866Z" fill="#D9BDAE"/>
<path d="M85.8145 462.546C91.9098 466.356 189.875 502.586 200.421 505.233C213.634 508.541 211.729 499.579 209.845 498.155C202.065 492.32 82.9674 453.824 81.0827 454.285C73.2632 456.23 82.0251 460.18 85.7945 462.546H85.8145Z" fill="#D6ADB3"/>
<path d="M140.992 557.563C145.343 557.744 222.737 551.668 227.769 550.967C236.15 549.784 229.413 541.523 218.807 542.465C208.902 543.348 140.872 550.526 137.524 553.312C135.639 554.896 137.363 557.403 140.992 557.563Z" fill="#D6ADB3"/>
<path d="M222.336 582.226C218.687 582.747 211.248 583.048 215.499 580.682C219.75 578.316 251.228 556.903 254.296 554.858C256.361 553.474 261.534 561.915 259.609 563.339C254.877 566.868 228.953 581.284 222.336 582.226Z" fill="#D6ADB3"/>
<path d="M257.003 303.67C259.208 314.677 279.639 334.146 304.16 332.903C329.323 331.64 348.191 312.452 352.902 294.226C355.068 285.865 352.582 264.051 346.927 262.146C345.825 261.785 340.551 260.342 340.952 262.768C344.521 284.101 334.978 302.687 318.617 308.983C286.577 321.314 263.599 302.687 261.073 301.444C258.566 300.181 255.84 297.956 256.983 303.65L257.003 303.67Z" fill="#D9BDAE"/>
<path d="M606.897 491.64C605.433 496.051 648.942 499.098 654.596 498.617C660.25 498.136 666.867 478.347 665.905 474.096C665.724 473.254 667.87 469.244 663.699 469.284C643.99 469.444 604.431 456.151 604.852 457.795C606.195 463.108 607.378 490.236 606.897 491.64Z" fill="#D9BDAE"/>
<path d="M585.023 652.12C625.103 651.177 678.176 609.433 689.023 569.814C689.785 567.047 696.1 554.255 694.677 566.506C688.281 621.904 634.286 670.145 577.664 668.039C568.662 667.699 578.466 652.26 585.023 652.1V652.12Z" fill="#D9BDAE"/>
<path d="M597.995 615.429C619.368 612.442 643.889 585.254 643.428 559.77C643.188 546.537 641.584 551.109 639.98 556.622C631.96 583.971 607.438 596.703 601.784 597.184C596.13 597.645 594.245 615.951 598.015 615.409L597.995 615.429Z" fill="#D9BDAE"/>
<path d="M341.113 380.782C345.423 390.146 359.759 404.742 372.391 400.351C383.398 396.522 387.529 379.78 380.251 363.479C379.669 362.196 364.291 366.627 356.19 369.775C350.657 371.92 339.649 377.655 341.093 380.782H341.113Z" fill="#933000"/>
<path d="M608.682 489.593C605.734 488.129 605.795 493.623 608.562 495.227C627.89 506.355 640.341 527.227 640.341 551.127C640.341 580.039 621.855 604.54 595.589 612.681C593.624 613.302 591.158 619.418 593.103 618.977C624.642 611.578 646.978 585.553 646.978 551.748C646.978 523.799 632.04 501.302 608.642 489.593H608.682Z" fill="#0E141B"/>
<path d="M598.456 427.92C595.869 427.479 598.155 433.955 600.621 434.376C656.802 444.341 696.361 498.998 690.025 560.11C683.569 622.607 633.163 668.401 574.536 664.431C573.293 664.351 569.604 669.925 571.248 670.025C636.471 674.075 690.125 628.542 697.103 560.953C703.098 503.048 664.2 439.108 598.456 427.92Z" fill="#0E141B"/>
<path d="M227.81 384.23C222.035 382.285 101.474 348.641 68.0302 333.223C52.9926 326.285 43.9099 324.561 69.9149 317.504C124.712 302.646 230.176 284.641 246.737 283.218C248.902 279.128 247.218 279.97 245.013 277.443C203.689 283.198 89.4237 302.666 49.8047 317.123C40.4613 320.531 36.1906 325.323 44.1505 329.694C85.0728 352.21 197.033 381.824 228.371 389.965C242.968 393.754 243.689 389.564 227.79 384.21L227.81 384.23Z" fill="#0E141B"/>
<path d="M486.436 251.258C503.82 208.711 533.253 137.453 542.797 102.446C550.336 74.7764 550.035 79.6085 533.374 88.2902C497.624 106.937 375.399 204.701 353.704 226.957C349.935 226.014 349.374 225.774 349.053 224.19C382.757 187.759 491.509 106.075 527.519 83.1974C558.978 63.2075 564.351 55.7889 548.652 106.335C537.023 143.749 513.965 204.701 491.429 254.305C486.316 265.573 478.797 270.025 486.476 251.258H486.436Z" fill="#0E141B"/>
<path d="M302.977 267.037C302.737 258.074 310.055 251.478 316.451 250.315C326.115 248.551 339.769 253.142 343.659 273.072C346.947 289.874 336.401 308.982 317.133 315.959C285.875 327.247 260.511 307.638 252.451 284.921C240.742 251.939 266.807 223.548 286.616 216.611C312.12 207.668 335.92 213.984 356.972 235.398C361.804 240.31 362.626 236.801 358.937 231.749C347.068 215.548 313.464 199.348 283.108 211.919C255.719 223.267 234.266 255.849 246.757 288.37C253.333 305.533 273.744 334.104 317.474 322.556C337.865 317.182 354.165 292.581 349.113 269.723C345.002 251.197 330.085 241.373 316.672 244.38C305.123 246.967 297.564 256.871 299.449 267.017C300.351 271.829 303.118 271.608 302.977 267.017V267.037Z" fill="#0E141B"/>
<path d="M234.366 498.296C241.744 546.155 259.97 571.158 272.842 591.529C275.95 596.441 282.125 588.641 277.414 584.21C260.932 568.651 241.704 519.689 237.935 492.962C236.471 482.677 232.842 488.371 234.366 498.316V498.296Z" fill="#0E141B"/>
<path d="M598.677 304.953C606.857 296.773 699.95 247.189 704.842 244.442C720.341 235.74 736.06 233.434 724.331 252.642C714.426 268.843 721.002 265.455 642.787 365.986C642.787 365.986 732.531 371.62 750.997 376.753C760.14 379.299 754.667 386.597 745.864 391.63C737.062 396.663 636.631 432.653 636.631 432.653C636.631 432.653 653.895 450.357 657.664 455.209C660.832 459.319 675.007 471.851 656.14 469.966C637.273 468.081 606.717 459.038 604.832 457.775C602.947 456.512 581.514 378.557 577.383 375.049C580.531 369.394 598.516 311.851 598.677 304.953Z" fill="#F7C8CE"/>
<path d="M607.92 461.384C614.376 463.529 648.461 471.349 656.641 470.106C664.822 468.843 666.687 467.178 661.654 465.294C656.621 463.409 613.855 454.607 605.053 451.459C599.017 449.294 600.361 458.858 607.9 461.384H607.92Z" fill="#D6ADB3"/>
<path d="M226.346 426.916C223.037 406.646 222.737 402.455 224.381 385.954C224.702 382.766 230.717 385.493 230.516 387.839C230.275 390.666 230.115 414.084 231.539 426.455C232.762 437.062 228.311 438.967 226.346 426.916Z" fill="#0E141B"/>
<path d="M477.413 710.526C457.664 689.073 459.128 660.983 447.779 650.276C441.203 644.08 418.747 651.619 395.609 647.529C392.601 646.988 389.454 654.206 395.509 654.867C420.05 657.494 438.095 651.278 444.271 657.013C447.499 660.02 462.296 714.296 479.218 718.667C485.814 720.371 484.511 718.286 477.413 710.546V710.526Z" fill="#0E141B"/>
<path d="M549.494 710.406C561.925 689.694 594.847 628.722 601.865 551.428C609.404 468.421 593.123 418.737 577.404 381.022C576.441 374.887 578.747 370.075 579.288 371.258C605.694 428.481 615.158 489.834 609.203 550.807C601.644 628.16 565.454 698.717 550.998 717.584C549.855 719.088 547.609 713.554 549.494 710.426V710.406Z" fill="#0E141B"/>
<path d="M521.704 284.623C512.261 272.051 498.907 259.64 489.805 253.244C486.516 250.918 483.629 255.73 488.361 259.279C493.073 262.828 510.456 278.708 516.11 288.592C517.774 291.5 523.95 287.61 521.724 284.623H521.704Z" fill="#0E141B"/>
<path d="M136.742 356.663C123.007 350.427 94.7367 343.369 96.7418 326.487C98.025 315.6 114.667 305.936 127.218 302.547C132.992 300.983 133.694 297.595 126.697 298.758C111.799 301.224 45.1528 317.284 44.7518 323.399C43.7894 338.016 128.541 356.582 132.772 358.628C137.022 360.673 149.995 362.638 136.742 356.643V356.663Z" fill="#0E141B"/>
<path d="M524.732 166.466C526.737 139.719 522.927 118.927 518.576 113.293C511.519 104.19 495.94 113.012 471.659 126.786C464.14 131.057 545.865 68.3203 553.403 72.611C560.12 76.4205 523.91 177.694 524.752 166.466H524.732Z" fill="#0E141B"/>
<path d="M315.428 371.638C311.499 372.641 307.509 372.5 304.08 370.515C301.494 369.032 297.604 364.701 295.198 356.4C294.356 353.513 292.07 354.215 293.012 357.042C293.955 359.869 296.361 368.21 301.854 372.14C305.163 374.485 309.875 376.27 315.649 373.784C317.474 373.002 318.115 370.957 315.428 371.638Z" fill="#0E141B"/>
<path d="M389.454 339.439C393.383 336.913 394.326 333.825 394.647 330.477C395.128 325.605 392.642 319.309 387.569 311.289C386.627 309.825 384.862 310.868 385.804 312.773C387.569 316.322 392.301 324.061 391.779 329.916C391.499 332.983 391.198 334.868 388.511 336.913C386.466 338.477 387.629 340.602 389.454 339.439Z" fill="#0E141B"/>
<path d="M381.674 378.035C376.441 376.692 364.531 379.339 361.704 387.94C359.519 394.597 361.484 398.507 362.807 400.832C364.05 403.038 371.91 401.053 377.083 396.341C382.677 391.248 384.301 378.717 381.654 378.055L381.674 378.035Z" fill="#0E141B"/>
<path d="M381.554 380.582C377.143 379.54 367.138 381.745 364.732 388.923C362.867 394.497 364.491 397.745 365.614 399.67C366.657 401.494 373.213 398.848 377.263 394.537C381.033 390.527 382.456 380.783 381.554 380.562V380.582Z" fill="#EE869A"/>
<path d="M381.995 356.019C382.035 364.46 366.617 363.117 355.429 368.11C344.241 373.122 332.572 382.806 329.023 380.541C327.599 379.638 326.516 381.804 328.943 383.187C334.777 386.476 347.669 375.448 356.11 371.959C366.376 367.709 384.481 366.425 384.943 357.363C385.143 353.513 381.995 354.435 381.995 356.019Z" fill="#0E141B"/>
<path d="M378.646 364.2C382.777 373.503 383.739 392.932 371.248 398.506C358.657 404.14 346.827 387.198 341.574 379.137C340.571 377.594 337.945 379.458 338.747 380.701C351.318 400.35 362.807 405.704 373.173 401.293C381.915 397.584 389.834 381.965 381.514 362.937C380.832 361.373 377.744 362.155 378.646 364.2Z" fill="#0E141B"/>
<path d="M312.762 352.712C315.208 358.186 315.449 363.399 313.323 364.361C311.178 365.324 307.469 361.655 305.023 356.201C302.576 350.727 302.336 345.514 304.481 344.572C306.627 343.61 310.336 347.259 312.782 352.732L312.762 352.712Z" fill="#0E141B"/>
<path d="M379.569 320.791C382.015 326.245 382.216 331.458 380.03 332.44C377.865 333.423 374.115 329.794 371.669 324.34C369.243 318.887 369.023 313.674 371.188 312.691C373.373 311.709 377.103 315.358 379.549 320.791H379.569Z" fill="#0E141B"/>
<path d="M309.594 350.126C310.416 351.97 310.216 353.855 309.153 354.336C308.09 354.818 306.546 353.715 305.724 351.87C304.902 350.026 305.103 348.141 306.165 347.66C307.228 347.178 308.772 348.281 309.594 350.126Z" fill="white"/>
<path d="M376.802 318.767C377.724 320.852 377.424 322.998 376.12 323.599C374.797 324.181 372.993 322.978 372.07 320.892C371.148 318.807 371.449 316.662 372.752 316.06C374.055 315.479 375.88 316.682 376.802 318.767Z" fill="white"/>
<path d="M237.834 496.111C219.128 490.456 172.551 469.023 148.892 439.148C142.536 436.562 135.459 435.379 134.516 432.311C134.075 430.928 141.032 426.376 141.594 423.349C142.075 420.762 135.318 409.574 135.459 408.732C135.92 406.146 142.436 406.286 147.128 407.589C148.972 408.11 149.614 402.877 147.489 401.454C145.363 400.03 130.346 403.218 129.744 406.105C129.002 409.735 137.063 421.404 136.581 422.105C136.1 422.807 128.742 430.667 128.982 433.293C129.484 438.547 146.045 442.757 147.408 444.441C158.757 458.496 201.243 495.329 236.631 501.624C237.133 501.704 238.316 499.218 237.834 496.09V496.111Z" fill="#0E141B"/>
<path d="M150.536 412.261C146.887 403.359 152.401 395.78 154.065 394.096C155.248 392.913 157.614 392.793 162.085 400.933C162.747 402.156 200.722 404.582 229.013 415.91C231.719 416.993 230.737 408.913 228.551 408.251C213.995 403.82 180.672 396.783 167.699 397.264C165.213 397.344 158.035 388.722 155.589 389.083C150.476 389.805 142.958 398.808 146.025 409.955C146.887 413.043 152.08 416.011 150.536 412.281V412.261Z" fill="#0E141B"/>
<path d="M578.807 235.137C575.799 226.335 569.985 221.343 564.571 223.448C561.423 224.671 565.975 242.536 560.381 246.546C546.867 256.21 528.18 279.027 515.188 300.2C509.032 310.245 508.03 305.774 512.621 294.385C520.281 275.478 542.797 254.866 557.213 242.556C559.298 240.771 557.514 221.122 561.684 219.518C573.694 214.907 581.935 226.195 582.897 234.255C583.619 240.25 580.511 240.11 578.807 235.117V235.137Z" fill="#0E141B"/>
<path d="M581.494 230.967C585.343 227.699 591.138 225.975 592.882 228.241C595.228 231.288 594.025 239.228 594.627 241.714C594.967 243.118 606.176 242.597 607.399 246.266C608.221 248.732 599.499 259.038 599.699 261.484C601.764 286.386 584.321 354.296 577.343 370.697C570.386 387.038 573.353 394.296 580.551 378.115C601.243 331.559 605.313 266.296 604.872 262.887C604.872 262.887 613.654 246.987 612.572 244.1C611.489 241.193 598.817 238.607 598.917 237.865C599.158 235.98 598.717 226.015 595.649 223.429C591.459 219.88 582.316 223.83 579.088 228.401C577.925 230.065 577.404 234.476 581.494 230.987V230.967Z" fill="#0E141B"/>
<path d="M473.644 708.962C487.258 697.132 514.486 707.859 512.381 717.924C510.436 727.188 496.862 734.225 485.915 730.335C474.947 726.426 466.426 715.238 473.644 708.962Z" fill="#0E141B"/>
<path d="M478.035 712.412C485.053 704.612 506.547 712.452 506.547 716.702C506.547 720.953 497.323 727.89 489.424 725.324C481.524 722.757 472.361 718.687 478.015 712.392L478.035 712.412Z" fill="white"/>
<path d="M513.724 705.875C520.561 701.805 535.418 699.72 547.408 706.757C555.649 711.609 555.228 724.822 545.383 729.314C536.381 733.424 522.626 732.381 512.661 727.108C506.807 724.02 504.12 711.589 513.744 705.875H513.724Z" fill="#0E141B"/>
<path d="M629.814 361.613C629.113 370.094 638.316 371.819 643.97 366.566C648.08 362.736 720.902 261.282 724.331 253.162C727.318 246.084 732.712 243.959 726.416 243.959C720.12 243.959 630.857 348.921 629.794 361.633L629.814 361.613Z" fill="#D6ADB3"/>
<path d="M638.316 429.043C645.333 427.539 735.158 395.76 742.296 393.153C747.488 391.268 757.955 385.033 751.037 383.77C744.12 382.506 638.316 415.609 633.363 418.757C628.471 421.865 629.514 430.948 638.316 429.063V429.043Z" fill="#D6ADB3"/>
<path d="M517.032 710.166C522.426 707.519 534.155 706.156 543.599 710.747C550.095 713.895 549.774 722.136 542.015 725.043C534.897 727.71 524.05 727.048 516.19 723.619C511.579 721.614 509.453 713.895 517.032 710.186V710.166Z" fill="white"/>
<path d="M604.13 454.285C621.012 459.899 659.468 470.646 661.694 465.794C662.616 463.769 644.772 446.486 639.258 441.814C626.225 430.847 632.28 429.744 643.609 425.373C685.674 409.153 755.268 391.027 752.06 381.002C749.654 373.443 689.263 372.3 647.238 369.854C634.887 369.132 636.29 364.22 647.238 351.148C654.676 342.285 731.809 248.13 724.531 240.551C720.26 236.08 608.521 302.867 598.456 308.08C594.947 309.884 593.884 302.967 600.722 299.057C646.155 272.932 724.812 227.418 729.624 237.022C737.042 251.879 667.168 335.408 647.94 363.518C666.125 364.541 758.336 367.769 759.98 380.862C761.504 393.072 689.784 414.867 640.321 433.955C646.576 440.471 670.717 462.305 666.947 469.403C664.04 474.897 648.922 474.035 605.072 461.523C600.661 460.26 598.476 452.401 604.13 454.285Z" fill="#0E141B"/>
<path d="M256.361 561.313C250.306 565.764 219.97 581.022 218.065 579.96C215.659 578.616 227.288 561.975 229.714 558.466C233.965 552.331 230.416 548.481 223.82 549.123C196.131 551.769 139.489 560.291 138.747 551.128C138.186 544.21 180.491 526.145 202.687 511.469C206.677 508.822 207.459 505.032 202.687 502.987C187.288 496.391 84.1506 464.631 84.1506 455.829C84.1506 447.027 132.552 446.165 153.243 447.95C159.178 448.471 148.211 442.276 144.06 442.215C124.331 441.915 78.2759 444.621 76.9125 454.185C75.0277 467.479 175.278 498.576 199.198 507.418C184.742 515.739 132.712 542.907 133.694 551.609C135.318 566.205 192.782 556.902 224.902 554.877C221.033 559.93 209.684 581.544 213.755 583.328C222.416 587.118 249.704 572.621 260.171 565.584C261.494 564.682 260.532 558.326 256.401 561.333L256.361 561.313Z" fill="#0E141B"/>
<path d="M290.025 579.739C299.649 571.959 344.26 555.919 374.677 590.105C401.604 620.381 403.228 662.766 376.1 681.393C349.032 700 313.604 696.691 290.967 666.035C268.331 635.378 265.504 599.548 290.025 579.739Z" fill="#FBDAC8"/>
<path d="M288.842 587.057C302.075 574.666 323.028 573.603 333.654 576.45C344.301 579.298 364.311 592.491 377.524 613.002C386.526 626.997 403.549 656.771 380.351 676.902C353.464 700.24 312.261 692.42 293.033 670.125C263.559 635.939 270.456 604.28 288.862 587.057H288.842Z" fill="#D9BDAE"/>
<path d="M343.418 572.601C358.436 578.316 379.108 597.403 385.965 614.446C394.426 635.519 397.494 660.982 377.143 677.383C360.12 691.098 333.072 692.621 313.544 681.614C295.138 671.248 278.316 649.133 275.088 627.92C274.506 624.01 271.298 620 271.138 623.689C270.015 648.832 294.015 677.383 309.012 685.584C357.413 712.09 419.007 673.293 391.539 611.819C385.744 598.827 368.301 576.27 344.26 568.651C334.857 565.664 337.484 570.356 343.418 572.601Z" fill="#0E141B"/>
<path d="M291.769 579.598C288.702 575.528 282.265 576.109 279.057 579.037C266.807 590.144 265.042 618.475 273.403 627.378C281.804 636.32 310.396 612.901 312.24 606.445C312.962 603.899 298.707 588.861 291.789 579.618L291.769 579.598Z" fill="#0E141B"/>
<path d="M290.947 584.111C288.401 580.703 285.113 580.542 282.446 582.968C272.241 592.231 270.937 617.073 276.211 623.108C281.504 629.164 304.14 612.863 306.446 604.743C307.048 602.617 296.702 591.81 290.927 584.091L290.947 584.111Z" fill="white"/>
<path d="M289.223 577.333C287.218 574.486 291.469 570.777 294.035 569.133C317.233 554.216 344.14 564.702 347.729 575.91C351.038 586.276 316.451 609.594 312.401 605.303C308.752 601.414 296.922 588.18 289.223 577.313V577.333Z" fill="#0E141B"/>
<path d="M294.316 579.88C292.712 577.495 294.496 575.65 296.581 574.226C315.95 561.033 336.722 567.169 342.376 575.369C347.589 582.928 316.09 605.043 311.579 600.231C308.551 597.003 301.273 590.286 294.336 579.88H294.316Z" fill="white"/>
<path d="M325.073 628.3C312.12 637.443 307.589 655.528 317.534 666.095C328.822 678.105 349.012 671.709 355.428 667.438C365.333 660.842 374.175 643.679 367.238 632.35C358.757 618.496 341.193 616.952 325.093 628.3H325.073Z" fill="#0E141B"/>
<path d="M328.501 631.508C318.336 638.285 312.18 655.488 320.762 662.967C331.128 671.989 347.609 667.278 352.942 663.709C361.203 658.215 368.902 645.162 363.549 635.478C356.752 623.167 338.867 624.611 328.501 631.528V631.508Z" fill="#F7C8CE"/>
</g>
<defs>
<clipPath id="clip0_42_61737">
<rect width="720" height="663.82" fill="white" transform="translate(40 68)"/>
</clipPath>
</defs>
</svg>
