<svg width="800" height="800" viewBox="0 0 800 800" fill="none" xmlns="http://www.w3.org/2000/svg">
<g clip-path="url(#clip0_42_61801)">
<path d="M497.796 340.899C539.991 298.585 572.099 289.134 577.42 291.556C581.193 293.264 582.424 352.813 561.952 401.461L497.796 340.899Z" fill="#F39950"/>
<path d="M577.42 291.555C564.672 305.097 544.796 342.189 533.657 374.773L561.952 401.48C582.424 352.832 581.193 293.282 577.42 291.575V291.555Z" fill="#A96224"/>
<path d="M533.657 374.753L552.361 392.406C559.291 344.055 570.411 314.291 577.42 291.535C564.672 305.077 544.796 342.169 533.657 374.753Z" fill="#93541C"/>
<path d="M554.327 368.499C554.426 365.282 554.049 362.046 553.215 358.908C555.836 342.348 541.798 329.302 520.948 327.773C525.714 294.216 510.345 280.058 486.895 282.302C479.329 273.665 468.369 268.383 456.117 268.383C438.624 268.383 424.565 278.033 422.5 291.933C421.845 291.913 421.21 291.893 420.554 291.893C399.169 291.893 375.877 313.655 375.877 340.879C375.877 350.966 381.04 361.45 390.849 366.752C390.849 366.752 513.383 413.037 536.714 411.369C560.046 409.721 556.73 374.476 554.327 368.519V368.499Z" fill="#F08300"/>
<path d="M443.31 362.205C443.31 362.205 439.736 357.737 441.205 357.658C453.119 356.903 467.574 349.557 474.464 341.614C483.658 331.011 500.238 327.516 520.968 327.794C522.021 320.467 522.1 314.053 521.345 308.533C514.098 313.259 505.401 316.297 497.796 312.981C492.216 318.938 476.43 326.622 465.946 322.651C459.572 333.076 447.777 339.311 434.613 338.179C432.885 345.724 392.994 362.682 378.181 352.475C380.583 358.313 384.833 363.496 390.829 366.732C390.829 366.732 404.212 371.776 422.957 378.487L434.355 373.801L443.29 362.225L443.31 362.205Z" fill="#D07100"/>
<path d="M602.419 593.195C589.513 586.007 536.139 569.129 533.676 568.136C531.214 567.143 524.503 557.473 522.179 551.834L501.171 602.964C507.625 611.741 511.854 615.911 515.945 617.519C520.035 619.127 545.967 622.86 552.679 623.357C563.501 624.151 571.562 628.083 584.827 633.901C591.895 636.998 599.6 642.081 607.9 642.081C614.512 642.081 619.198 639.679 620.032 635.152C624.559 633.364 627.26 629.85 626.287 625.462C632.621 618.254 623.844 605.109 602.439 593.175L602.419 593.195Z" fill="#F39950"/>
<path d="M625.056 611.602C624.142 614.759 623.03 617.281 621.839 618.115C622.633 621.49 620.886 625.342 616.299 627.09C616.537 630.803 609.727 636.521 600.652 633.166C591.578 629.81 572.357 618.532 559.073 616.546C545.789 614.56 524.324 612.197 518.864 609.973C515.607 608.643 509.333 602.984 503.614 596.928L501.132 602.984C507.585 611.76 511.815 615.93 515.905 617.539C519.995 619.147 545.928 622.88 552.639 623.376C563.461 624.171 571.523 628.102 584.787 633.92C591.856 637.018 599.56 642.101 607.86 642.101C614.472 642.101 619.158 639.698 619.992 635.171C624.52 633.384 627.22 629.87 626.247 625.481C629.325 621.987 628.809 617.082 625.036 611.602H625.056Z" fill="#D28445"/>
<path d="M602.419 593.194C599.639 591.645 594.993 589.66 589.393 587.456C583.516 587.138 578.314 586.999 578.095 587.475C577.599 588.587 579.088 595.537 580.577 599.767C578.095 599.647 568.167 599.151 568.048 600.759C567.929 602.368 570.53 609.814 573.131 613.547C571.523 613.785 562.706 614.043 562.329 615.413C562.111 616.208 564.851 621.569 567.412 626.612C572.555 628.439 577.996 630.921 584.787 633.9C591.856 636.997 599.56 642.081 607.86 642.081C614.472 642.081 619.158 639.678 619.992 635.151C624.519 633.364 627.22 629.849 626.247 625.461C632.581 618.253 623.805 605.108 602.399 593.174L602.419 593.194Z" fill="#A96224"/>
<path d="M625.056 611.602C624.142 614.759 623.03 617.281 621.839 618.115C622.633 621.49 620.886 625.343 616.299 627.09C616.537 630.803 609.726 636.522 600.652 633.166C592.412 630.128 575.792 620.537 562.865 617.321C563.759 619.505 565.605 623.119 567.392 626.613C572.535 628.44 577.976 630.922 584.767 633.901C591.836 636.998 599.54 642.081 607.84 642.081C614.452 642.081 619.138 639.679 619.972 635.152C624.5 633.365 627.2 629.85 626.227 625.462C629.305 621.967 628.789 617.062 625.016 611.582L625.056 611.602Z" fill="#93541C"/>
<path d="M351.732 649.289C348.595 655.246 328.818 686.182 327.249 687.989C322.523 693.43 322.325 699.129 324.986 700.717C325.899 701.273 327.051 701.511 328.282 701.531C329.334 705.701 334.1 707.727 339.56 705.304C342.062 709.573 350.322 708.362 360.429 701.015C367.32 696.011 381.914 677.942 386.243 668.331L351.732 649.309V649.289Z" fill="#D28445"/>
<path d="M372.82 678.298C372.82 678.298 372.363 671.189 371.608 670.415C370.854 669.66 363.586 672.242 359.794 673.294C359.794 673.294 361.005 665.57 360.25 664.657C359.794 664.12 350.124 664.557 342.141 665.034C335.629 675.379 328.182 686.896 327.229 687.988C322.503 693.429 322.305 699.127 324.966 700.716C325.879 701.272 327.031 701.51 328.262 701.53C329.314 705.7 334.08 707.725 339.54 705.303C342.042 709.572 350.302 708.361 360.409 701.014C365.83 697.062 376.036 685.029 382.232 675.379C378.737 676.253 374.349 677.484 372.82 678.298Z" fill="#93541C"/>
<path d="M445.792 642.101C436.976 659.217 409.733 672.938 388.943 672.938C375.699 672.938 367.796 668.033 359.536 658.125L380.921 630.703L432.051 631.438L445.792 642.101Z" fill="#D28445"/>
<path d="M362.157 539.92C365.135 533.129 386.143 509.639 391.782 501.696C406.198 481.343 404.352 458.35 392.12 446.098C387.315 441.293 376.076 437.5 361.343 437.659L348.595 494.746L349.588 525.365L356.2 544.07L362.157 539.94V539.92Z" fill="#F08300"/>
<path d="M351.692 531.322L356.2 544.05L362.157 539.92C365.135 533.129 386.143 509.639 391.783 501.696C398.99 491.53 402.128 480.688 401.949 470.879C401.79 491.152 363.209 498.618 351.692 531.322Z" fill="#D07100"/>
<path d="M358.344 542.065C353.876 529.654 358.999 512.28 364.956 501.697C370.913 491.113 379.511 482.833 379.511 466.293C379.511 453.882 377.108 445.126 369.424 433.867C357.748 416.771 339.758 407.657 322.424 406.564L333.186 507.832L351.394 546.711L358.344 542.085V542.065Z" fill="#F08300"/>
<path d="M339.917 522.206L351.394 546.709L358.344 542.083C353.877 529.672 358.999 512.298 364.956 501.715C370.318 492.164 377.823 484.479 379.253 470.957C376.354 486.485 346.768 488.808 339.917 522.226V522.206Z" fill="#D07100"/>
<path d="M353.221 544.545C340.97 525.841 339.56 503.8 345.775 477.867C349.766 461.228 349.746 435.395 344.782 422.607C339.6 409.263 330.208 396.079 321.292 387.858C306.3 374.058 274.947 370.583 250.146 386.369L306.896 504.177L343.789 551.833L353.221 544.545Z" fill="#F08300"/>
<path d="M285.134 459.024L306.876 504.177L343.77 551.833L353.201 544.545C346.569 534.399 343.134 523.279 342.34 511.067C342.34 511.028 342.34 510.988 342.32 510.928C340.99 495.818 324.946 477.768 285.114 459.004L285.134 459.024Z" fill="#D07100"/>
<path d="M346.768 549.848C315.157 515.437 297.465 442.127 292.163 428.227C278.204 391.612 253.284 380.234 230.946 380.234C179.716 380.234 146.417 414.884 151.024 467.94L336.681 561.265L346.768 549.848Z" fill="#F08300"/>
<path d="M161.547 473.242L336.661 561.265L346.748 549.848C338.527 540.893 331.24 529.277 324.866 516.787C324.866 516.787 324.866 516.787 324.846 516.767C293.672 484.5 220.263 473.083 161.527 473.242H161.547Z" fill="#D07100"/>
<path d="M339.481 560.271C268.494 479.197 229.873 454.377 180.629 454.377C145.464 454.377 112.462 485.909 112.462 527.508C112.462 543.512 124.376 580.128 167.902 575.66L330.883 569.862L339.481 560.271Z" fill="#F08300"/>
<path d="M203.802 521.889C178.981 546.372 139.924 550.343 113.852 538.29C118.042 555.804 132.537 579.294 167.901 575.68L330.883 569.882L339.481 560.291C331.836 551.554 324.588 543.513 317.639 536.047C305.407 523.021 235.234 509.002 203.802 521.909V521.889Z" fill="#D07100"/>
<path d="M242.522 536.107C187.797 536.107 161.11 564.899 161.11 592.698C161.11 617.4 179.1 637.713 210.414 637.713C230.37 637.713 244.527 629.393 247.764 611.343C272.703 584.637 298.08 573.596 325.74 577.309L332.034 568.712C298.616 546.373 267.66 536.107 242.522 536.107Z" fill="#F08300"/>
<path d="M244.17 583.444C237.558 596.351 208.766 601.97 199.493 591.843C193.417 597.959 176.996 604.611 161.369 597.701C163.632 620.099 181.225 637.712 210.414 637.712C230.37 637.712 244.527 629.392 247.764 611.342C272.704 584.635 298.08 573.595 325.74 577.308L332.035 568.71C327.487 565.672 322.98 562.873 318.532 560.271C285.015 561.781 253.205 575.898 244.17 583.424V583.444Z" fill="#D07100"/>
<path d="M591.24 411.766C591.24 406.027 583.993 402.672 573.846 404.141C570.034 387.005 561.793 374.019 554.327 368.519C554.228 378.228 549.859 387.601 540.646 392.902C539.613 397.191 537.668 401.341 534.57 405.074C534.57 394.213 517.096 377.672 500.457 370.822C503.495 375.071 505.163 379.519 505.441 383.729C497.498 375.448 480.62 375.945 465.231 372.47C451.868 369.452 446.626 366.692 443.31 362.224C371.847 351.422 317.46 387.759 316.487 393.657C315.712 398.244 358.344 441.848 401.869 452.73C413.902 474.095 438.902 494.726 451.511 500.127L447.539 498.399C446.03 512.696 429.887 527.43 405.841 527.43C381.795 527.43 357.49 534.598 341.307 549.768C330.525 559.875 310.55 590.811 299.748 616.208C291.785 613.189 284.498 615.433 278.263 624.15C275.781 627.625 266.012 644.007 258.407 656.079C250.802 668.152 237.756 687.691 236.446 690.49C234.42 694.799 234.162 698.83 237.558 701.292C238.431 701.928 239.364 702.424 240.337 702.722C240.377 705.522 242.422 709.295 245.937 710.704C249.948 712.313 253.363 712.174 256.52 709.97C265.218 712.213 270.996 709.97 277.529 703.834C279.931 701.57 300.78 680.483 308.346 668.827C312.377 670.535 317.4 671.011 327.567 671.011C353.956 671.011 371.946 657.291 382.45 636.521C390.194 639.42 400.142 640.929 409.057 640.849C435.308 640.591 479.627 628.658 494.202 619.265C521.048 601.951 531.591 565.911 525.972 520.976C525.257 515.317 525.694 510.552 526.627 506.382C561.853 495.54 591.24 456.383 591.24 411.766Z" fill="#F39950"/>
<path d="M291.408 631.894C279.753 634.356 251.12 683.381 246.573 690.331C242.085 697.182 235.334 697.678 234.976 696.03C234.957 698.115 235.691 699.942 237.558 701.292C238.431 701.927 239.365 702.424 240.338 702.722C240.377 705.521 242.423 709.294 245.937 710.704C249.948 712.312 253.364 712.173 256.521 709.969C265.218 712.213 270.996 709.969 277.529 703.834C279.931 701.57 300.781 680.482 308.346 668.827C312.377 670.534 317.4 671.011 327.567 671.011C353.956 671.011 371.946 657.29 382.45 636.52C386.024 630.186 387.176 625.44 389.023 620.02C352.546 658.799 303.084 629.431 291.428 631.894H291.408Z" fill="#D28445"/>
<path d="M495.572 510.295C494.818 513.114 510.484 524.412 525.655 517.205C525.496 513.154 525.893 509.58 526.628 506.383C509.71 511.307 496.188 508.071 495.572 510.314V510.295Z" fill="#D28445"/>
<path d="M559.271 392.068C561.436 397.41 565.467 401.024 571.582 404.479C572.138 404.359 572.813 404.28 573.846 404.141C570.47 388.971 563.64 377.077 556.928 370.723C556.154 379.162 557.464 387.66 559.271 392.068Z" fill="#5B4C2A"/>
<path d="M566.082 383.113C563.243 377.931 560.066 373.701 556.928 370.723C556.154 379.162 557.464 387.66 559.271 392.068C559.708 393.16 560.264 394.153 560.86 395.126C565.03 397.072 566.618 391.195 566.082 383.113Z" fill="white"/>
<path d="M573.846 404.142C572.416 397.708 570.351 391.851 567.949 386.768C566.38 393.678 568.306 400.945 573.846 404.142Z" fill="#7E6B3C"/>
<path d="M408.323 442.782C404.51 441.213 401.036 438.652 399.388 436.09C402.207 434.263 412.949 431.384 417.099 430.55C412.791 428.723 402.207 425.427 395.416 424.256C402.704 419.629 416.424 416.968 424.208 416.154C418.41 412.838 398.732 410.535 388.129 410.535C396.23 404.141 412.791 398.065 429.271 398.283C389.42 383.332 348.118 383.55 316.487 393.657C315.713 398.244 358.344 441.848 401.87 452.73C401.87 452.73 400.122 448.6 399.546 445.939C401.691 444.867 404.669 443.874 408.323 442.802V442.782Z" fill="#A96224"/>
<path d="M424.208 416.154C418.41 412.838 398.732 410.535 388.129 410.535C396.23 404.141 412.79 398.065 429.271 398.283C389.419 383.332 348.118 383.55 316.487 393.657C332.332 395.325 367.836 407.636 399.884 421.972C407.429 418.755 417.814 416.849 424.208 416.154Z" fill="#93541C"/>
<path d="M518.387 546.671C512.331 545.162 506.255 547.009 500.755 555.606C496.168 562.795 484.353 583.882 474.822 591.725C469.977 595.697 422.699 605.367 419.462 608.107C413.764 612.932 400.976 616.427 390.095 615.712C388.884 621.351 386.679 627.348 382.43 636.541C390.174 639.44 400.122 640.949 409.038 640.87C435.288 640.612 479.608 628.678 494.182 619.286C512.47 607.491 523.192 586.96 526.389 560.888C527.263 553.76 524.86 548.319 518.387 546.691V546.671Z" fill="#FFF2AD"/>
<path d="M387.096 625.62C385.905 628.778 384.396 632.312 382.43 636.522C390.174 639.421 400.122 640.93 409.038 640.85C435.288 640.592 479.608 628.658 494.182 619.266C506.89 611.066 515.945 598.635 521.346 583.088C492.455 612.813 435.268 629.115 387.096 625.64V625.62Z" fill="#DDD196"/>
<path d="M298.021 674.664C297.266 674.069 292.421 676.491 287.417 678.596C288.033 676.015 289.383 663.902 288.172 663.148C286.961 662.393 277.569 667.238 272.724 669.045C272.724 667.377 273.18 658.739 272.267 658.303C271.354 657.846 268.335 658.918 263.332 660.884C263.252 659.693 262.637 654.867 261.902 650.439C260.71 652.366 259.519 654.272 258.387 656.079C250.782 668.151 237.737 687.69 236.426 690.49C234.401 694.799 234.143 698.83 237.538 701.292C238.412 701.927 239.345 702.424 240.318 702.721C240.358 705.521 242.403 709.294 245.917 710.704C249.928 712.312 253.344 712.173 256.501 709.969C265.198 712.213 270.976 709.969 277.509 703.833C279.058 702.364 288.39 692.972 296.829 683.361C297.683 679.211 298.418 674.982 298.021 674.664Z" fill="#A96224"/>
<path d="M298.02 674.665C297.266 674.07 292.421 676.492 287.417 678.597C288.013 676.016 289.383 663.903 288.172 663.149C286.96 662.394 277.568 667.239 272.723 669.046C272.723 667.378 273.18 658.741 272.267 658.304C271.532 657.946 269.427 658.562 266.032 659.833C256.957 673.136 248.816 686.897 246.553 690.332C242.065 697.183 235.314 697.679 234.956 696.031C234.937 698.116 235.671 699.943 237.538 701.293C238.411 701.928 239.345 702.425 240.318 702.722C240.357 705.522 242.403 709.295 245.917 710.705C249.928 712.313 253.343 712.174 256.501 709.97C265.198 712.214 270.976 709.97 277.509 703.834C279.058 702.365 288.41 692.973 296.829 683.362C297.683 679.212 298.418 674.983 298.02 674.665Z" fill="#93541C"/>
<path d="M556.571 679.908C553.989 672.541 542.512 659.038 525.793 641.029C519.34 634.079 486.914 610.251 478.475 602.467C479.468 597.345 477.641 587.734 476.49 585.252L417.417 598.993C414.816 610.688 419.899 632.411 433.957 639.698C446.308 646.092 484.929 669.145 501.31 682.548C517.692 695.952 515.051 700.419 521.008 705.046C526.965 709.672 536.238 708.024 537.548 707.19C538.283 706.734 538.76 706.058 539.038 705.284C544.657 708.282 549.8 705.423 551.11 700.101C559.45 698.87 559.39 687.929 556.571 679.868V679.908Z" fill="#F39950"/>
<path d="M550.157 692.614C548.291 698.949 540.348 700.676 537.866 699.564C531.155 703.039 523.272 693.448 518.983 687.63C514.694 681.813 497.16 664.696 486.418 658.203C475.656 651.73 448.036 635.229 440.589 631.596C433.183 627.962 418.43 617.279 417.179 611.322C418.608 622.243 424.049 634.574 433.977 639.697C446.328 646.091 484.949 669.144 501.33 682.547C517.712 695.95 515.071 700.418 521.028 705.045C526.985 709.671 536.258 708.023 537.568 707.189C538.303 706.732 538.779 706.057 539.057 705.283C544.677 708.281 549.82 705.422 551.13 700.1C558.735 698.968 559.351 689.795 557.266 682.071C558.457 687.273 553.016 692.813 550.177 692.555L550.157 692.614Z" fill="#D28445"/>
<path d="M556.571 679.908C554.486 673.931 546.523 663.903 534.629 650.679C531.194 649.309 528.117 648.177 527.938 648.455C527.561 649.071 528.593 651.672 528.851 653.657C526.786 652.248 512.549 643.69 511.06 644.067C509.571 644.444 508.876 659.078 508.757 660.706C507.168 660.25 501.33 659.753 500.139 660.587C498.908 661.461 500.02 667.537 501.628 674.368C499.702 673.851 494.917 673.295 489.992 674.129C494.341 677.167 498.213 680.027 501.29 682.549C517.672 695.952 515.031 700.419 520.988 705.046C526.945 709.672 536.218 708.024 537.528 707.19C538.263 706.734 538.74 706.059 539.018 705.284C544.637 708.282 549.78 705.423 551.09 700.102C559.43 698.871 559.371 687.93 556.551 679.868L556.571 679.908Z" fill="#A96224"/>
<path d="M550.157 692.616C548.291 698.95 540.348 700.678 537.866 699.566C531.155 703.041 523.272 693.45 518.983 687.632C516.322 684.018 508.538 676.036 500.457 668.947C500.794 670.635 501.191 672.462 501.648 674.368C499.722 673.852 494.937 673.296 490.012 674.13C494.361 677.168 498.233 680.027 501.311 682.549C517.692 695.952 515.051 700.42 521.008 705.046C526.965 709.673 536.238 708.025 537.548 707.191C538.283 706.734 538.76 706.059 539.038 705.285C544.657 708.283 549.8 705.424 551.11 700.102C558.715 698.97 559.331 689.797 557.246 682.072C558.437 687.275 552.997 692.815 550.157 692.557V692.616Z" fill="#93541C"/>
<path d="M482.784 386.191C471.188 386.191 459.572 397.668 459.572 408.907C459.572 421.873 470.692 436.825 488.602 436.825C503.316 436.825 513.165 425.944 514.773 410.714C506.612 394.293 496.704 386.191 482.765 386.191H482.784Z" fill="#5B4C2A"/>
<path d="M490.35 408.53C476.331 401.064 464.755 405.254 461.201 417.625C464.874 427.751 474.683 436.826 488.622 436.826C494.401 436.826 499.424 435.118 503.495 432.159C504.289 421.655 497.776 412.482 490.35 408.53Z" fill="#7E6B3C"/>
<path d="M487.113 387.681C483.341 389.091 483.003 396.597 485.445 402.812C487.61 408.332 492.832 412.72 497.042 411.31C501.251 409.9 502.105 403.983 499.265 397.093C496.188 389.607 491.085 386.172 487.113 387.661V387.681Z" fill="white"/>
<path d="M568.028 412.759C568.683 415.241 577.539 419.391 580.18 418.954C583.317 418.457 588.659 411.627 588.004 408.648C586.911 403.704 566.519 407.1 568.028 412.739V412.759Z" fill="#0E141B"/>
<path d="M563.52 449.573C562.309 448.6 538.581 458.787 537.628 460.911C534.57 467.642 539.276 485.811 543.823 485.811C555.776 485.811 565.526 451.181 563.52 449.573Z" fill="#933000"/>
<path d="M536.754 464.922C536.099 473.024 540.011 485.811 543.843 485.811C549.224 485.811 554.129 478.822 557.743 470.958C552.58 465.299 544.757 463.691 536.735 464.902L536.754 464.922Z" fill="#EE869A"/>
<path d="M534.57 405.055C538.879 387.819 520.333 363.158 491.839 362.244C495.195 364.964 498.153 367.943 500.457 370.802C506.969 373.284 516.302 380.016 520.77 383.649C533.676 394.134 534.57 405.055 534.57 405.055Z" fill="#D07100"/>
<path d="M550.177 352.197C551.527 356.169 548.926 374.734 540.864 378.487C541.361 382.359 541.758 389.309 540.646 392.903C546.186 389.924 552.48 383.749 554.029 372.55C555.558 361.47 550.177 352.197 550.177 352.197Z" fill="#D07100"/>
<path d="M505.44 383.71C502.184 376.383 494.341 371.279 479.865 368.321C467.614 365.819 453.635 369.056 445.117 363.516C450.875 368.043 457.15 371.339 472.022 373.762C486.895 376.184 494.182 377.753 497.319 378.825C500.457 379.897 505.421 383.71 505.421 383.71H505.44Z" fill="#D07100"/>
<path d="M450.101 500.544C432.766 492.681 413.684 476.994 400.698 454.457C356.895 443.159 313.786 399.574 314.819 393.379C316.467 383.53 375.302 349.973 441.94 360.1C442.238 360.139 444.958 363.972 444.045 363.833C373.892 353.666 320.379 388.971 318.175 393.856C319.723 399.852 360.489 440.201 401.333 450.863C402.267 451.102 403.2 451.717 403.736 452.631C415.928 473.738 437.452 491.529 450.736 497.943C460.525 502.669 459.89 505.012 450.081 500.564L450.101 500.544Z" fill="#0E141B"/>
<path d="M519.757 506.401C558.358 498.578 589.552 456.462 589.552 411.766C589.552 406.087 578.731 401.758 563.104 408.489C558.576 410.455 557.703 408.39 562.27 406.345C580.597 398.144 593.643 404.18 593.643 411.646C593.643 458.19 561.555 500.663 520.095 508.903C514.714 509.975 514.316 507.513 519.737 506.401H519.757Z" fill="#0E141B"/>
<path d="M566.4 413.195C566.161 412.322 566.042 410.594 567.829 408.847C571.503 405.273 581.431 403.704 586.157 405.114C588.639 405.848 589.453 407.258 589.671 408.291C590.466 411.905 585.76 419.41 580.537 420.225C577.063 420.8 567.393 416.889 566.4 413.176V413.195ZM569.656 412.302C570.53 414.407 577.976 417.603 579.922 417.286C583.337 416.75 586.872 411.369 586.355 409.026C585.521 405.273 568.703 408.549 569.656 412.302Z" fill="#0E141B"/>
<path d="M572.496 404.38C568.306 388.793 561.733 376.64 554.307 370.584C553.811 370.187 553.989 366.553 554.764 367.07C563.818 373.205 570.828 385.933 574.859 403.625C575.057 404.539 572.694 405.134 572.476 404.38H572.496Z" fill="#0E141B"/>
<path d="M543.843 487.498C537.31 487.498 533.14 466.728 536.099 460.215C538.025 455.966 562.091 446.256 564.593 448.262C568.803 451.637 556.968 487.498 543.843 487.498ZM539.097 461.744C536.318 468.336 541.182 484.122 543.823 484.122C551.389 484.122 560.86 464.504 562.071 451.419C557.067 452.749 540.984 459.897 539.097 461.764V461.744Z" fill="#0E141B"/>
<path d="M556.194 471.494C554.407 467.325 543.942 464.624 537.211 466.57C536.317 466.828 537.072 464.068 537.588 463.929C545.213 462.003 553.354 464.048 557.623 469.271C558.159 469.926 556.472 472.13 556.194 471.494Z" fill="#0E141B"/>
<path d="M488.602 439.068C470.215 439.068 457.865 423.203 457.865 408.906C457.865 396.595 470.196 383.848 482.765 383.848C498.551 383.848 509.511 394.153 518.069 416.174C520.055 421.297 518.01 422.071 515.845 417.028C515.667 416.591 515.468 416.174 515.29 415.757C512.986 427.373 505.024 439.068 488.602 439.068ZM482.785 387.879C472.122 387.879 461.26 398.482 461.26 408.906C461.26 421.575 472.261 435.137 488.602 435.137C504.944 435.137 512.41 421.198 512.887 410.674C504.885 394.967 495.413 387.898 482.785 387.898V387.879Z" fill="#0E141B"/>
<path d="M502.065 383.033C496.545 379.101 487.848 377.692 478.674 376.5C453.993 373.303 444.799 367.664 440.987 360.476C438.664 356.068 440.888 354.916 443.37 359.225C447.122 365.778 453.794 369.451 479.151 373.164C488.205 374.495 496.843 375.746 502.979 379.598C500.477 371.079 492.395 362.998 480.819 357.676C474.703 354.857 475.914 352.732 482.01 355.532C494.758 361.35 503.455 369.352 506.235 378.724C508.32 385.833 507.148 386.667 502.045 383.053L502.065 383.033Z" fill="#0E141B"/>
<path d="M532.366 401.738C529.368 391.592 514.078 378.744 502.998 373.82C502.065 373.403 500.496 369.233 501.37 369.551C513.681 373.78 531.87 388.434 535.583 400.785C546.345 383.351 535.007 354.599 519.261 349.714C514.495 348.225 515.071 346.021 519.856 347.332C541.063 353.11 549.939 384.801 538.144 403.088C535.067 407.854 534.133 407.675 532.386 401.758L532.366 401.738Z" fill="#0E141B"/>
<path d="M541.778 390.222C548.887 385.477 552.977 376.641 552.54 366.712C552.143 357.479 547.556 345.804 535.94 339.847C530.023 336.809 531.095 334.505 537.052 337.563C547.973 343.163 555.618 353.707 556.154 366.653C556.67 378.587 551.031 389.091 541.818 394.154C541.56 394.293 541.242 390.58 541.758 390.242L541.778 390.222Z" fill="#0E141B"/>
<path d="M551.666 355.374C552.321 341.376 538.938 329.323 516.878 329.323C498.511 329.323 488.92 332.063 477.125 340.959C473.194 343.917 471.784 342.13 475.755 338.973C488.006 329.204 498.054 325.947 516.878 325.947C544.458 325.947 557.266 343.242 554.724 358.393C554.585 359.227 551.646 356.129 551.666 355.374Z" fill="#0E141B"/>
<path d="M569.041 404.935C557.604 397.965 554.546 389.923 555.558 370.722C555.618 369.789 558.219 371.258 558.179 371.874C557.484 389.129 561.237 396.814 571.404 403.465C572.178 403.982 569.537 405.253 569.021 404.935H569.041Z" fill="#0E141B"/>
<path d="M566.678 383.213C579.267 346.3 579.128 297.691 576.507 292.985C571.444 291.397 544.955 301.742 522.915 321.519C522.22 322.134 521.942 317.21 522.458 316.753C544.518 297.552 571.722 287.068 578.135 289.987C584.529 292.886 581.233 351.681 568.922 386.727C568.684 387.422 566.539 383.61 566.698 383.193L566.678 383.213Z" fill="#0E141B"/>
<path d="M546.901 338.318C551.607 326.265 570.748 296.024 576.268 290.821C576.943 290.186 578.77 292.331 578.095 292.966C572.853 297.91 553.096 330.514 549.641 340.641C549.403 341.336 546.722 338.755 546.901 338.318Z" fill="#0E141B"/>
<path d="M399.646 451.718C399.268 450.764 398.812 449.514 398.434 448.282C397.402 444.947 397.799 444.708 400.996 443.437C401.83 443.1 402.783 442.762 403.855 442.405C402.088 441.313 400.539 440.082 399.348 438.771C396.409 435.594 397.303 434.899 401.095 433.39C403.855 432.278 407.827 431.107 411.242 430.193C407.568 428.982 402.982 427.632 398.931 426.679C392.16 425.11 392.775 423.144 399.05 420.444C404.53 418.081 411.361 416.453 417.08 415.44C410.547 413.871 401.075 412.739 393.53 412.342C384.753 411.866 385.607 409.523 391.981 405.909C399.249 401.799 409.792 398.185 421.011 396.973C386.56 385.953 348.277 385.218 316.964 395.206C316.09 395.484 317.301 391.553 317.976 391.354C349.925 381.724 388.586 382.796 423.255 394.154C432.17 397.073 431.475 399.356 422.262 400.27C411.143 401.362 400.48 404.956 393.45 408.947C401.115 409.344 410.884 410.496 417.874 412.183C426.73 414.308 427.167 417.128 418.271 418.637C412.632 419.59 405.722 421.198 400.341 423.521C404.332 424.475 408.7 425.765 412.254 426.937C419.998 429.518 419.74 431.424 412.771 433.231C409.018 434.204 404.57 435.535 401.969 436.607C402.962 437.639 404.272 438.652 405.742 439.546C410.865 442.663 411.143 443.517 405.603 445.304C403.915 445.84 402.584 446.336 401.492 446.793C402.187 449.156 403.954 453.068 403.954 453.108C404.312 453.961 399.963 452.571 399.606 451.638L399.646 451.718Z" fill="#0E141B"/>
<path d="M519.182 327.653C521.922 311.907 519.181 298.921 511.418 291.078C505.838 285.439 497.975 282.976 489.159 284.068C488.722 284.128 486.399 281.09 487.312 280.931C498.332 279.045 507.665 281.507 514.297 288.218C522.835 296.856 525.794 311.391 522.498 328.229C522.339 329.043 519.003 328.567 519.162 327.653H519.182Z" fill="#0E141B"/>
<path d="M492.534 329.938C499.861 309.605 494.48 286.909 476.907 275.948C456.058 262.942 424.566 274.538 424.566 292.052C424.566 292.985 421.19 292.985 421.19 292.052C421.19 271.977 453.933 256.866 479.052 272.453C497.161 283.692 503.793 306.567 496.267 329.124C496.108 329.58 492.216 330.831 492.534 329.958V329.938Z" fill="#0E141B"/>
<path d="M383.105 362.681C378.558 358.73 374.189 351.283 374.189 340.859C374.189 311.868 398.752 289.729 420.634 289.729C436.439 289.729 450.537 296.539 459.493 307.599C466.939 316.793 469.341 328.29 467.534 339.787C466.542 346.121 463.98 345.684 464.953 339.37C466.581 328.826 463.682 318.143 456.872 309.724C448.572 299.458 435.327 293.581 420.554 293.581C396.349 293.581 377.565 318.997 377.565 340.879C377.565 351.244 382.43 358.273 386.6 361.172C387.374 361.708 383.621 363.177 383.085 362.721L383.105 362.681Z" fill="#0E141B"/>
<path d="M431.853 359.285C436.261 354.143 436.876 346.657 433.501 339.29C430.085 331.844 423.652 326.661 417.874 326.661C411.103 326.661 408.025 332.559 408.025 338.039C408.025 342.368 409.435 345.525 411.5 347.312C414.617 349.993 413.625 351.541 410.09 349.337C407.112 347.471 404.173 343.301 404.173 338.039C404.173 329.402 409.336 322.65 417.874 322.65C424.923 322.65 432.905 328.865 436.857 337.463C440.59 345.604 439.775 354.361 435.228 360.457C434.97 360.795 431.237 359.98 431.853 359.285Z" fill="#0E141B"/>
<path d="M495.691 615.909C518.585 599.547 529.546 563.27 524.284 521.194C523.411 514.145 524.026 509.518 524.9 506.619C525.059 506.083 528.871 505.587 528.534 506.46C527.779 508.367 526.647 512.755 527.64 520.757C533.001 563.607 523.351 601.751 498.411 618.093C498.153 618.272 494.936 616.445 495.691 615.889V615.909Z" fill="#0E141B"/>
<path d="M382.351 638.208C381.497 637.851 382.768 634.734 383.622 635.091C395.099 639.797 419.979 640.075 428.537 636.878C429.113 636.66 432.528 638.645 431.734 639.102C422.917 644.245 395.516 643.609 382.331 638.208H382.351Z" fill="#0E141B"/>
<path d="M625.473 623.495C626.505 622.303 626.863 620.715 626.525 618.749C625.294 611.7 615.981 602.705 601.605 594.683C591.359 588.964 555.201 577.051 539.772 571.967C535.483 570.558 533.557 569.922 533.041 569.724C530.42 568.671 527.66 564.402 525.913 561.245C525.436 560.371 527.322 556.638 527.739 557.472C530.082 562.178 532.842 566.01 534.292 566.586C534.729 566.765 537.409 567.659 540.825 568.77C556.352 573.893 592.888 585.668 603.412 591.526C618.9 600.164 628.431 610.032 629.861 618.193C630.377 621.172 629.603 624.507 627.18 626.354C626.783 626.672 624.857 624.21 625.473 623.515V623.495Z" fill="#0E141B"/>
<path d="M620.072 632.966C621.7 632.767 623.785 631.278 624.46 628.915C625.334 625.897 624.103 622.045 620.27 618.57C616.895 615.472 618.106 614.063 621.76 616.902C626.486 620.576 628.848 625.937 627.697 629.868C626.704 633.264 623.745 635.905 620.469 636.322C620.39 636.322 619.119 633.085 620.052 632.966H620.072Z" fill="#0E141B"/>
<path d="M607.88 643.788C601.149 643.788 594.795 640.65 589.195 637.871C587.468 637.017 580.796 633.979 580.796 633.979C569.557 629.015 562.131 625.738 552.54 625.043C546.246 624.587 519.737 620.854 515.31 619.106C510.683 617.279 507.605 613.288 504.905 609.754C504.329 609.019 507.029 606.954 507.585 607.689C510.147 611.025 512.788 614.48 516.541 615.949C520.154 617.379 545.571 621.132 552.779 621.668C562.965 622.422 570.59 625.798 582.146 630.881C582.146 630.881 588.878 633.939 590.684 634.833C596.224 637.573 601.923 640.392 607.88 640.392C611.057 640.392 618.483 639.737 618.483 633.641C618.483 631.834 616.935 628.756 612.904 626.314C609.449 624.229 610.521 622.581 614.135 624.507C619.139 627.168 621.839 630.166 621.839 633.621C621.839 639.876 616.478 643.748 607.86 643.748L607.88 643.788Z" fill="#0E141B"/>
<path d="M551.289 701.452C550.356 701.452 550.356 698.076 551.289 698.076C552.818 698.076 553.97 697.481 554.863 696.249C557.068 693.152 557.107 686.52 555.002 680.483C552.262 672.66 538.085 656.735 524.582 642.18C521.068 638.388 508.975 628.956 498.312 620.616C489.476 613.706 481.117 607.193 477.344 603.719C476.907 603.321 476.728 602.726 476.828 602.15C477.662 597.861 476.768 589.938 475.755 586.801C474.485 582.849 476.113 581.737 477.781 585.57C479.27 588.965 480.938 596.789 480.283 601.852C484.234 605.367 492.077 611.502 500.377 617.975C511.676 626.792 523.351 635.906 527.045 639.897C546.782 661.163 555.797 672.6 558.18 679.371C560.284 685.388 560.92 693.549 557.604 698.215C556.095 700.34 553.91 701.472 551.289 701.472V701.452Z" fill="#0E141B"/>
<path d="M538.919 706.455C538.661 706.276 539.514 702.662 540.249 703.238C542.731 705.244 545.253 705.402 547.159 703.675C549.8 701.292 551.071 695.752 548.251 690.57C545.948 686.34 547.973 685.189 550.316 689.537C554.01 696.368 552.997 702.96 549.423 706.177C546.504 708.798 541.56 708.262 538.919 706.435V706.455Z" fill="#0E141B"/>
<path d="M519.837 706.535C517.315 704.57 516.084 702.524 514.753 700.261C512.728 696.786 510.147 691.981 500.258 683.879C484.055 670.635 445.256 647.463 433.203 641.208C419.085 633.901 414.081 612.654 416.067 600.125C416.841 595.28 419.085 595.617 418.311 600.383C416.425 611.84 421.964 631.577 434.772 638.209C447.262 644.683 485.783 667.657 502.403 681.258C512.768 689.737 515.726 694.8 517.891 698.474C519.142 700.618 520.055 702.167 522.061 703.736C527.382 707.866 535.682 706.317 536.695 705.781C538.819 704.45 538.363 701.075 535.821 698.652C532.823 695.773 534.332 693.927 537.509 696.865C541.341 700.439 542.433 706.158 538.442 708.64C535.444 710.507 525.019 710.566 519.837 706.535Z" fill="#0E141B"/>
<path d="M294.585 626.156C303.422 600.005 326.912 560.431 339.937 548.219C355.624 533.526 379.154 525.742 405.841 525.742C429.073 525.742 444.799 511.267 446.209 497.725C446.308 496.791 449.307 497.645 449.207 498.559C447.619 513.57 430.959 529.118 405.821 529.118C380.683 529.118 357.491 536.881 342.439 550.999C330.883 561.821 306.618 599.548 297.385 626.95C294.685 634.932 291.865 634.118 294.566 626.156H294.585Z" fill="#0E141B"/>
<path d="M236.565 702.663C234.42 701.114 231.005 697.262 234.559 689.676C235.354 687.989 253.88 660.09 256.957 655.186C260.273 649.924 263.987 643.868 267.342 638.407C271.691 631.318 275.364 624.627 276.794 622.621C283.227 613.606 292.659 611.402 300.463 615.016C301.317 615.413 299.887 618.471 299.053 618.074C292.878 615.215 284.538 618.253 279.633 625.123C278.263 627.029 274.55 633.125 270.221 640.155C266.866 645.635 263.133 651.711 259.817 656.973C256.719 661.897 238.689 689.637 237.955 691.205C235.036 697.401 237.677 699.287 238.531 699.922C241.926 702.385 245.5 701.193 247.128 699.625C251.239 695.693 252.966 696.944 249.154 701.014C245.421 704.986 239.821 705.025 236.545 702.663H236.565Z" fill="#0E141B"/>
<path d="M245.302 712.273C240.854 710.505 238.272 705.482 238.65 701.908C238.749 700.974 242.105 701.332 242.005 702.265C241.787 704.29 243.415 707.904 246.552 709.155C251.795 711.26 255.587 709.949 259.38 704.628C263.113 699.366 265.952 701.173 262.219 706.455C257.692 712.868 251.338 714.715 245.302 712.312V712.273Z" fill="#0E141B"/>
<path d="M255.945 711.579C255.051 711.341 258.228 708.66 258.884 708.799C265.277 710.01 269.606 708.342 275.662 702.663C279.713 698.851 301.277 677.605 306.221 668.411C306.658 667.597 309.637 669.186 309.2 670.02C303.422 680.762 278.661 705.165 278.422 705.404C271.155 712.234 264.205 713.763 255.945 711.599V711.579Z" fill="#0E141B"/>
<path d="M327.547 672.72C313.111 672.72 309.021 671.886 302.905 666.664C299.51 663.785 300.84 661.878 304.374 664.519C309.537 668.371 313.29 669.325 327.547 669.325C361.204 669.325 384.714 645.934 391.107 605.01C392.06 598.953 394.304 598.993 393.331 605.089C386.64 647.741 363.01 672.7 327.547 672.7V672.72Z" fill="#0E141B"/>
<path d="M388.963 674.863C377.149 674.863 367.26 669.939 360.489 661.818C359.893 661.103 362.475 658.939 363.09 659.653C369.285 667.08 377.963 670.852 388.904 670.852C408.244 670.852 433.68 658.303 442.297 644.543C442.794 643.748 445.653 645.536 445.157 646.33C435.864 661.202 409.653 674.863 388.983 674.863H388.963Z" fill="#0E141B"/>
<path d="M324.112 702.166C319.882 699.624 320.379 692.794 325.541 686.837C326.852 685.328 333.266 676.213 336.343 671.071C336.701 670.475 340.692 670.296 340.235 671.11C337.694 675.598 330.267 687.095 328.54 689.1C324.469 693.767 324.052 698.175 325.859 699.267C327.904 700.498 331.677 699.843 334.278 697.976C338.945 694.62 340.751 696.388 336.304 699.942C331.915 703.437 326.852 703.794 324.132 702.166H324.112Z" fill="#0E141B"/>
<path d="M326.931 701.571C326.872 700.638 330.228 700.42 330.307 701.353C330.585 705.423 337.138 706.694 343.055 701.611C347.125 698.096 348.694 699.129 344.802 702.981C337.297 710.368 327.408 708.422 326.951 701.591L326.931 701.571Z" fill="#0E141B"/>
<path d="M338.051 706.098C337.595 705.284 340.513 703.616 340.99 704.43C342.837 707.647 349.33 707.012 359.437 699.665C365.453 695.296 377.645 679.769 381.656 672.898C381.835 672.6 385.528 672.839 385.091 673.673C381.835 679.729 368.988 697.143 361.859 702.306C351.375 709.93 341.129 711.459 338.071 706.118L338.051 706.098Z" fill="#0E141B"/>
<path d="M364.003 533.764C365.354 531.044 387.871 504.257 390.393 500.723C404.292 481.105 401.87 461.268 393.768 451.122C393.192 450.387 397.739 450.784 398.355 451.757C405.94 463.949 408.085 482.574 393.609 503.006C391.028 506.66 370.814 529.634 368.57 532.831C368.074 533.526 363.626 534.578 364.043 533.744L364.003 533.764Z" fill="#0E141B"/>
<path d="M355.862 538.271C353.082 528.204 357.868 509.122 367.915 493.733C373.018 485.91 377.823 478.543 377.823 466.292C377.823 456.88 375.56 448.163 371.469 441.709C370.973 440.915 375.58 442.146 376.235 443.318C380.008 449.99 381.735 457.813 381.735 466.292C381.735 479.556 375.877 487.697 370.735 495.58C361.7 509.44 355.683 526.615 358.622 537.318C358.86 538.212 356.041 539.006 355.842 538.271H355.862Z" fill="#0E141B"/>
<path d="M320.18 389.15C302.587 374.277 273.379 375.151 256.243 385.218C255.826 385.476 252.39 383.629 253.185 383.133C275.285 369.075 304.513 371.477 322.364 386.568C323.079 387.164 320.498 389.408 320.18 389.15Z" fill="#0E141B"/>
<path d="M350.064 542.323C340.156 526.219 337.296 503.682 343.611 477.372C347.562 460.931 348.654 435.336 343.233 423.303C342.856 422.45 347.026 423.601 347.344 424.515C352.109 438.255 351.216 462.401 347.403 478.266C341.307 503.682 343.035 525.921 352.467 541.25C352.963 542.045 350.382 542.839 350.064 542.323Z" fill="#0E141B"/>
<path d="M343.551 548.199C315.812 519.249 299.609 453.385 290.574 428.823C284.101 411.23 267.283 381.922 230.926 381.922C183.29 381.922 152.533 412.56 152.533 459.997C152.533 460.93 149.137 462.916 149.097 461.983C147.529 412.183 181.225 377.633 230.906 377.633C247.387 377.633 278.522 384.563 294.069 427.512C302.925 451.936 317.301 513.768 345.517 546.035C346.133 546.73 343.889 548.537 343.551 548.18V548.199Z" fill="#0E141B"/>
<path d="M110 527.508C110 486.942 142.763 452.689 180.629 452.689C230.926 452.689 268.514 477.649 336.661 554.99C337.277 555.685 335.192 557.809 334.576 557.095C267.183 480.608 229.774 456.78 180.629 456.78C144.59 456.78 114.15 488.788 114.15 527.528C114.15 550.899 134.88 577.666 164.148 574.111C165.062 573.992 164.208 577.428 163.275 577.527C135.714 580.664 110 557.829 110 527.528L110 527.508Z" fill="#0E141B"/>
<path d="M210.414 639.956C179.498 639.956 158.867 620.496 158.867 592.717C158.867 564.938 185.415 533.902 242.502 533.902C267.64 533.902 301.237 546.154 328.54 564.68C329.314 565.196 327.726 567.519 326.951 567.003C300.165 549.291 267.005 537.834 242.502 537.834C187.718 537.834 162.778 566.288 162.778 592.737C162.778 619.186 181.92 636.064 210.394 636.064C233.845 636.064 246.771 624.328 246.771 603.003C246.771 589.123 239.94 572.92 220.66 572.92C208.468 572.92 201.161 581.995 201.161 590.751C201.161 597.006 203.226 601.454 206.86 602.963C208.945 603.837 212.161 603.718 214.286 602.506C218.376 600.163 219.647 602.546 215.477 605.107C212.4 606.994 208.746 607.411 205.569 606.1C200.625 604.055 197.249 598.456 197.249 590.771C197.249 580.347 206.343 569.564 220.66 569.564C238.57 569.564 250.603 582.69 250.603 603.023C250.603 626.175 235.651 639.995 210.394 639.995L210.414 639.956Z" fill="#0E141B"/>
<path d="M248.618 608.384C270.698 584.338 295.479 572.96 320.458 575.462C321.391 575.561 319.465 578.758 319.128 578.738C294.565 576.654 269.785 589.679 248.062 614.639C247.724 615.016 247.704 609.397 248.618 608.404V608.384Z" fill="#0E141B"/>
<path d="M202.61 541.388C206.105 534.399 204.457 527.469 202.173 523.776C197.368 516.012 187.221 511.008 176.32 511.008C163.652 511.008 155.59 517.005 154.2 522.942C153.565 525.642 154.419 528.7 156.643 530.289C160.237 532.87 159.085 534.895 155.332 532.393C151.778 530.011 149.911 526.357 150.924 522.148C152.632 514.92 162.222 507.295 176.658 507.295C188.711 507.295 199.652 513.272 205.053 521.989C208.686 527.866 208.845 534.459 205.867 540.813C205.688 541.21 202.193 542.203 202.61 541.369V541.388Z" fill="#0E141B"/>
<path d="M244.786 471.634C244.488 457.297 239.265 444.569 230.648 437.441C225.584 433.251 219.806 431.504 214.366 432.536C209.521 433.45 205.629 437.6 204.795 443.358C204.04 448.56 202.114 448.302 202.372 442.981C202.75 435.594 207.336 430.014 213.611 428.843C220.064 427.632 227.133 429.697 232.971 434.542C242.601 442.524 247.625 457.099 247.625 472.944C247.625 473.877 244.805 472.051 244.805 471.634H244.786Z" fill="#0E141B"/>
<path d="M570.351 412.024C570.073 411.289 570.57 409.899 572.933 409.125C574.759 408.529 576.01 408.867 576.288 409.542C576.586 410.257 575.613 411.269 573.886 412.063C572.416 412.739 570.609 412.758 570.351 412.024Z" fill="#8B989F"/>
</g>
<defs>
<clipPath id="clip0_42_61801">
<rect width="520" height="447.286" fill="white" transform="translate(110 266)"/>
</clipPath>
</defs>
</svg>
