<svg width="800" height="800" viewBox="0 0 800 800" fill="none" xmlns="http://www.w3.org/2000/svg">
<g clip-path="url(#clip0_42_61982)">
<path d="M420.128 680.068C420.55 693.989 442.671 734.196 451.872 743.582C473.544 765.702 493.002 775.22 501.017 756.211C508.636 738.151 490.154 689.639 472.964 670.287C465.977 662.404 419.759 668.916 420.102 680.068H420.128Z" fill="#FADCE2"/>
<path d="M430.015 706.619C433.786 690.906 472.041 680.834 487.122 692.909C490.787 695.836 457.119 635.697 429.91 641.365C416.253 644.213 412.878 679.595 430.015 706.619Z" fill="#D8BEC4"/>
<path d="M265.708 628.973C253.158 628.446 216.774 641.154 204.356 653.334C196.789 660.769 202.484 671.737 208.917 674.005C234.359 682.916 299.824 670.946 313.982 660.743C320.442 656.076 281.342 629.632 265.681 628.999L265.708 628.973Z" fill="#FADCE2"/>
<path d="M262.544 256.591C255.9 259.861 245.96 288.256 242.981 300.964C239.079 317.6 239.474 360.206 243.297 362.948C244.062 363.502 245.512 362.658 247.225 360.655C249.176 358.361 274.856 327.355 306.837 308.768C322.92 299.408 365.526 286.964 369.27 285.593C370.483 285.171 370.14 284.407 368.611 282.983C361.756 276.682 329.959 261.337 319.677 258.2C298.796 251.793 273.38 251.266 262.57 256.565L262.544 256.591Z" fill="#FADCE2"/>
<path d="M233.516 638.648C266.788 621.352 276.596 668.994 274.962 672.896C284.084 675.823 307.496 665.751 313.798 662.139C326.848 654.625 322.603 630.818 307.259 625.914C291.941 621.01 246.909 627.232 233.516 638.648Z" fill="#D8BEC4"/>
<path d="M603.656 483.7C603.656 599.47 506.58 683.311 402.912 683.311C291.413 683.337 201.06 594.065 201.06 482.593C201.06 371.121 291.413 281.453 402.912 281.453C514.41 281.453 603.656 372.202 603.656 483.7Z" fill="#0E141B"/>
<path d="M596.564 481.723C596.564 374.523 509.664 287.623 402.464 287.623C295.263 287.623 208.39 374.523 208.39 481.723C208.39 549.93 243.614 609.884 296.818 644.502C344.487 661.534 382.242 671.605 448.814 655.285C529.86 635.459 568.564 575.267 579.901 560.212C582.458 554.412 584.805 548.48 586.809 542.39C593.084 523.301 596.537 502.921 596.537 481.723H596.564Z" fill="#FADCE2"/>
<path d="M448.84 655.285C382.241 671.578 344.513 661.533 296.845 644.501C305.018 649.801 313.613 654.546 322.551 658.607C346.912 669.654 373.963 675.823 402.464 675.823C481.717 675.823 549.792 628.287 579.927 560.238C568.59 575.293 529.886 635.458 448.84 655.311V655.285Z" fill="#D8BEC4"/>
<path d="M300.114 452.933C307.945 421.005 295.843 390.817 273.063 385.465C250.258 380.139 225.422 401.679 217.565 433.608C209.708 465.536 221.836 495.75 244.615 501.102C267.395 506.428 292.257 484.862 300.114 452.96V452.933Z" fill="#0E141B"/>
<path d="M296.318 452.3C303.331 423.035 292.521 395.325 272.141 390.448C251.761 385.544 229.561 405.318 222.522 434.583C215.508 463.848 226.318 491.558 246.698 496.436C267.079 501.313 289.278 481.566 296.318 452.3Z" fill="white"/>
<path d="M375.492 530.974C393.289 560.503 437.714 570.074 463.789 554.703C492.053 538.093 502.071 500.575 486.595 468.304C469.985 433.66 433.258 422.534 401.356 438.116C369.455 453.698 353.187 493.931 375.519 530.974H375.492Z" fill="#0E141B"/>
<path d="M380.053 528.839C396.399 555.969 437.213 564.748 461.205 550.643C487.175 535.377 496.376 500.918 482.139 471.231C466.874 439.382 433.153 429.179 403.808 443.495C374.49 457.811 359.541 494.801 380.053 528.813V528.839Z" fill="white"/>
<path d="M366.317 286.199C367.503 286.99 374.253 286.648 373.805 286.252C346.543 262.603 275.99 239.111 258.879 255.431C236.047 277.209 232.329 342.489 240.344 368.037C240.529 368.643 244.747 366.481 244.167 364.003C237.602 336.056 243.139 280.135 262.28 260.783C276.016 246.889 330.039 262.023 366.291 286.199H366.317Z" fill="#0E141B"/>
<path d="M387.409 514.046C400.644 540.939 433.258 551.959 460.309 538.619C487.333 525.304 498.538 492.664 485.303 465.772C472.094 438.853 439.454 427.859 412.403 441.199C385.379 454.514 374.2 487.154 387.409 514.046Z" fill="#0E141B"/>
<path d="M300.193 449.822C306.547 423.563 296.212 398.621 277.071 394.06C257.956 389.525 237.286 407.111 230.932 433.344C224.578 459.604 234.913 484.572 254.028 489.107C273.169 493.641 293.813 476.056 300.167 449.822H300.193Z" fill="#0E141B"/>
<path d="M391.18 512.096C403.413 537.011 433.627 547.188 458.648 534.849C483.669 522.51 494.03 492.322 481.797 467.407C469.563 442.492 439.349 432.315 414.328 444.654C389.308 456.993 378.946 487.181 391.206 512.096H391.18Z" fill="#008B8C"/>
<path d="M318.122 662.694C319.993 661.666 317.805 657.316 316.592 657.685C312.611 658.871 309.711 660.479 305.73 661.613C293.444 665.014 280.525 669.075 267.896 670.736C231.538 674.638 213.083 674.295 203.934 664.276C199.399 658.186 226.661 642.235 248.781 635.433C251.233 634.668 258.984 632.48 263.124 632.031C264.548 631.873 267.21 631.768 268.581 631.399C269.346 631.214 270.111 631.003 270.875 630.792C271.376 630.66 271.877 630.502 272.352 630.318C273.063 630.054 274.224 629.21 273.828 628.578C272.272 626.152 268.344 626.047 265.47 626.337C239.501 629 186.006 652.069 199.03 669.233C217.09 688.585 295.474 675.244 318.148 662.668L318.122 662.694Z" fill="#0E141B"/>
<path d="M474.625 668.653C474.282 668.231 470.064 670.736 470.407 671.184C473.491 675.192 477.262 680.227 479.318 683.576C486.279 694.886 492.395 708.465 495.665 720.487C497.457 727.105 498.565 734.012 498.591 740.867C498.697 768.893 485.567 772.558 456.249 740.894C438.821 722.069 428.723 699.711 423.319 681.994C420.919 674.163 415.778 677.248 417.149 682.838C421.631 701.082 433.496 726.498 451.424 746.088C464.844 760.773 487.518 778.411 498.301 765.492C507.503 754.445 507.503 734.698 502.361 718.378C496.825 700.766 485.909 681.994 474.652 668.627L474.625 668.653Z" fill="#0E141B"/>
<path d="M296.845 449.003C302.54 425.301 293.286 402.759 276.175 398.646C259.064 394.533 240.582 410.431 234.887 434.133C229.192 457.836 238.446 480.378 255.557 484.491C272.668 488.604 291.15 472.706 296.845 449.003Z" fill="#008B8C"/>
<path d="M252.868 353.826C264.6 340.564 292.284 312.934 321.76 300.964C320.125 295.427 283.61 268.746 268.924 272.648C255.873 276.128 249.177 347.288 252.894 353.826H252.868Z" fill="#0E141B"/>
<path d="M464.448 335.292C474.309 319.209 538.903 304.866 551.954 312.037C568.09 320.923 593.058 376.632 589.155 434.055C587.468 458.628 523.348 419.185 519.341 415.784C502.388 401.415 458.173 345.548 464.475 335.292H464.448Z" fill="#FADCE2"/>
<path d="M587.442 427.147C588.813 447.738 593.321 443.124 592.583 423.614C591.159 385.648 573.389 314.515 555.54 309.927C531.679 303.81 488.098 316.967 470.407 326.089C456.855 333.076 462.207 335.106 474.15 329.991C502.862 317.679 533.156 312.959 551.005 315.807C565.717 318.153 584.225 378.477 587.468 427.147H587.442Z" fill="#0E141B"/>
<path d="M476.919 352.059C494.768 363.95 519.973 379.901 542.278 419.027C543.201 420.635 544.967 422.612 546.101 422.797C547.63 423.034 549.713 422.296 550.425 419.923C555.408 403.84 552.877 353.615 540.353 334.553C534.5 325.641 486.041 340.959 478.421 345.31C474.757 347.393 475.6 351.189 476.892 352.059H476.919Z" fill="#0E141B"/>
<path d="M383.428 581.648C393.79 591.614 395.477 590.112 385.986 578.748C376.283 567.121 356.958 554.835 346.991 563.562C341.613 569.599 343.564 587.897 353.636 608.251C360.28 621.697 362.679 619.482 357.01 604.006C348.204 580.04 348.758 570.786 351.394 567.306C355.587 563.193 364.076 566.014 368.927 569.336C374.886 573.422 378.814 577.245 383.455 581.701L383.428 581.648Z" fill="#0E141B"/>
<path d="M256.77 567.911C251.971 570.442 251.971 572.103 257.244 570.811C274.487 566.646 289.357 551.565 289.7 540.834C289.278 531.316 274.118 529.365 266.446 529.471C259.195 529.576 258.141 531.211 269.372 532.846C274.698 533.61 283.346 535.482 283.794 540.834C283.715 550.985 272.641 559.58 256.77 567.938V567.911Z" fill="#0E141B"/>
<path d="M263.598 424.537C259.564 433.607 261.515 443.256 267.948 446.104C274.382 448.951 282.845 443.916 286.852 434.872C290.886 425.803 288.935 416.153 282.502 413.306C276.095 410.458 267.606 415.494 263.598 424.537Z" fill="white"/>
<path d="M430.991 476.002C430.991 486.628 439.612 495.249 450.237 495.249C460.862 495.249 469.484 486.628 469.484 476.002C469.484 465.377 460.862 456.756 450.237 456.756C439.612 456.756 430.991 465.377 430.991 476.002Z" fill="white"/>
<path d="M407.948 369.698C409.477 355.988 402.991 338.482 397.085 330.994C387.304 318.602 358.592 302.282 333.993 306.632C329.274 307.476 302.882 315.544 289.199 338.165C280.788 352.033 277.862 367.061 277.809 380.191C279.075 386.308 281.105 395.061 284.4 406.029C288.091 417.129 297.029 426.699 303.752 432.79C316.223 444.048 334.151 445.867 348.336 444.522C359.857 443.441 371.985 440.884 381.609 431.261C387.488 425.381 392.919 409.958 388.78 402.549C390.968 404.447 393.341 407.321 395.477 410.669C394.264 405.449 391.733 401.679 387.251 399.939C395.74 397.54 405.944 387.442 407.921 369.698H407.948Z" fill="#FADCE2"/>
<path d="M388.807 402.522C392.946 409.93 387.515 425.354 381.635 431.233C371.986 440.883 359.884 443.414 348.362 444.495C334.178 445.84 316.25 444.02 303.779 432.763C297.029 426.672 288.118 417.102 284.427 406.002C281.105 395.034 279.101 386.281 277.836 380.164C277.809 387.23 278.6 393.768 279.866 399.252C282.476 410.563 289.753 431.84 307.918 443.414C317.515 449.531 329.459 456.254 345.99 455.806C360.069 455.437 374.912 451.772 384.483 442.544C390.362 436.902 396.452 426.435 396.452 419.475C396.452 416.179 396.162 413.252 395.556 410.642C393.42 407.294 391.048 404.42 388.859 402.522H388.807Z" fill="#D8BEC4"/>
<path d="M389.73 398.831C389.149 399.305 388.464 400.597 389.018 401.098C389.756 401.757 391.021 401.678 392.524 400.703C419.944 382.88 413.722 349.739 400.856 333.814C395.24 326.827 395.187 329.833 399.274 337.4C409.82 357.095 411.454 382.616 389.73 398.857V398.831Z" fill="#0E141B"/>
<path d="M359.726 421.743C363.496 425.671 364.313 424.986 361.361 418.473C357.538 410.037 362.6 398.357 376.204 398.093C392.129 397.777 399.59 415.652 391.654 429.52C380.924 448.292 365.104 454.198 344.223 453.882C311.135 453.381 275.199 421.4 280.261 369.197C284.137 342.805 298.981 321.107 322.314 310.983C332.781 306.474 332.016 304.576 321.154 308.162C298.48 315.676 280.34 336.003 274.936 370.041C269.794 417.155 300.984 457.362 343.801 459.629C368.664 460.948 388.148 447.264 396.189 431.999C406.55 412.33 394.106 391.66 375.097 392.952C355.428 394.323 352.476 414.176 359.7 421.716L359.726 421.743Z" fill="#0E141B"/>
<path d="M295.632 525.277C301.511 528.098 316.513 533.767 326.954 534.848C328.694 535.032 324.133 553.33 316.724 553.33C311.293 553.33 305.413 551.511 301.511 546.158C296.713 539.62 292.284 523.669 295.632 525.277Z" fill="#EE869A"/>
<path d="M293.998 525.832C292.547 525.832 297.267 542.785 302.013 543.075C304.148 540.939 315.775 537.96 324.238 546.845C325.952 545.21 327.719 536.563 327.349 535.271C325.425 534.48 296.687 525.832 293.998 525.832Z" fill="#933000"/>
<path d="M299.323 542.468C297.847 544.393 299.007 545.474 301.011 544.076C307.127 539.805 318.57 541.15 322.999 547.583C324.37 549.587 325.978 547.899 324.818 545.764C320.653 538.012 303.489 537.01 299.35 542.468H299.323Z" fill="#0E141B"/>
<path d="M330.197 535.164C330.381 534.215 326.11 533.134 325.978 534.136C325.056 541.914 323.105 551.669 314.351 551.853C305.756 552.038 297.979 541.228 295.659 525.857C295.448 524.486 293.286 523.01 291.888 522.904C291.44 536.377 299.745 555.597 314.958 555.307C322.656 555.149 327.903 547.45 330.223 535.164H330.197Z" fill="#0E141B"/>
<path d="M329.96 535.639C332.992 535.217 332.438 533.688 329.432 533.451C320.31 532.739 305.809 529.259 292.073 521.244C286.035 517.685 283.399 518.581 289.858 523.749C298.822 530.92 319.203 537.089 329.96 535.639Z" fill="#0E141B"/>
<path d="M546.391 417.393C545.969 416.971 545.442 416.312 545.073 415.679C523.058 377.081 499.435 361.974 481.401 349.978L480.188 349.187C480.241 349.002 480.399 348.738 480.926 348.422C486.331 345.337 514.436 337.006 529.649 337.006C534.553 337.006 535.581 338.06 535.608 338.06C547.182 355.699 551.374 401.284 546.417 417.314C546.417 417.34 546.417 417.367 546.417 417.393H546.391Z" fill="#3E4E57"/>
<path d="M255.557 345.389C255.478 330.15 260.118 296.587 267.237 282.324C269.241 278.29 270.585 277.895 270.638 277.895C271.297 277.71 272.088 277.631 272.958 277.631C285.376 277.631 308.156 292.105 315.854 299.461C290.122 311.273 267.079 333.261 255.557 345.416V345.389Z" fill="#3E4E57"/>
</g>
<defs>
<clipPath id="clip0_42_61982">
<rect width="406.656" height="520" fill="white" transform="translate(197 250)"/>
</clipPath>
</defs>
</svg>
