<svg width="800" height="800" viewBox="0 0 800 800" fill="none" xmlns="http://www.w3.org/2000/svg">
<g clip-path="url(#clip0_42_62026)">
<path d="M160.252 487.067C168.781 497.457 216.38 535.487 237.039 536.092C257.697 536.696 258.712 479.239 239.986 472.473C221.285 465.684 182.626 458.387 172.575 459.16C162.62 459.909 142.614 465.587 160.252 487.091V487.067Z" fill="#FADCE2"/>
<path d="M330.522 676.981C306.191 682.659 271.712 700.128 247.767 730.065C234.962 746.084 261.636 758.527 281.401 756.715C334.798 751.834 395.469 709.551 402.307 701.143C418.568 681.233 338.519 675.12 330.522 676.981Z" fill="#FADCE2"/>
<path d="M597.486 642.309C601.593 652.819 646.341 717.573 679.733 725.256C708.848 731.949 725.785 715.713 717.305 682.828C712.4 663.837 682.028 636.413 624.885 613.363C611.306 607.878 590.648 624.816 597.486 642.309Z" fill="#FADCE2"/>
<path d="M243.2 306.916C242.161 298.726 231.457 259.704 222.179 243.685C211.862 225.829 188.231 194.926 161.726 167.357C143.701 182.749 123.018 195.119 100.451 203.673C118.089 250.668 144.088 298.919 157.328 310.251C167.476 318.901 218.506 346.01 227.929 345.213C237.352 344.44 241.557 342.894 244.118 332.649C246.051 324.917 244.601 318.152 243.2 306.941V306.916Z" fill="#FADCE2"/>
<path d="M83.3933 111.567C73.7286 118.913 84.1665 160.254 100.452 203.648C123.019 195.095 143.701 182.724 161.726 167.333C128.673 132.926 93.7105 103.739 83.3933 111.567Z" fill="white"/>
<path d="M267.579 445.171C291.354 415.863 326.607 404.386 382.735 424.73C464.209 454.305 567.815 576.201 554.429 648.663C587.483 633.441 621.261 609.762 642.064 578.086C642.862 584.586 639.866 589.2 639.02 595.338C655.305 559.965 655.208 516.884 638.923 481.68C629.089 460.393 609.18 434.927 561.653 382.181C532.031 349.297 489.917 300.321 472.448 285.486C437.389 255.766 363.719 250.088 315.661 268.741C276.954 283.746 245.374 299.234 238.343 315.785C199.974 406.126 226.142 507.388 244.408 547.497C244.819 548.367 246.438 550.662 246.824 551.532C233.148 512.124 245.737 472.015 267.555 445.147L267.579 445.171Z" fill="#FADCE2"/>
<path d="M328.323 664.223C327.26 662.387 326.245 660.526 325.302 658.545C354.297 671.592 422.337 683.552 504.342 665.793C519.443 662.507 536.84 656.781 554.43 648.663C567.815 576.201 464.209 454.28 382.735 424.73C326.607 404.362 291.355 415.863 267.58 445.171C245.761 472.063 229.863 511.737 243.539 551.169C255.909 577.917 269.464 600.895 284.106 620.224C298.845 638.587 314.212 653.036 328.347 664.247L328.323 664.223Z" fill="white"/>
<path d="M642.064 578.086C621.26 609.786 587.482 633.441 554.429 648.663C552.278 660.357 551.239 662.387 544.136 671.955C541.236 675.869 536.186 678.406 529.445 681.789C557.666 672.607 583.254 655.452 606.763 635.688C620.656 623.994 626.89 610.922 638.778 595.217C639.648 589.08 642.861 584.585 642.064 578.086Z" fill="#D8BEC4"/>
<path d="M546.456 669.032C551.675 662.001 552.835 657.386 554.454 648.688C536.864 656.806 522.705 659.295 507.58 662.581C425.574 680.34 354.732 668.911 325.737 655.888C332.986 664.127 340.5 667.92 344.704 670.868C347.193 672.608 349.803 674.227 352.46 675.773C357.293 678.455 362.198 680.871 367.151 682.997C367.948 683.336 368.721 683.674 369.543 683.988C369.857 684.133 370.195 684.254 370.509 684.375C385.079 689.98 401.195 693.459 417.625 695.223C455.173 698.026 483.514 696.77 533.989 680.364C540.73 676.981 543.533 672.946 546.432 669.032H546.456Z" fill="#DCDDDD"/>
<path d="M463.195 468.607C441.014 482.935 407.55 527.804 422.82 549.815C430.576 560.978 477.257 544.693 510.697 520.7C523.696 511.374 478.803 458.532 463.195 468.607Z" fill="#FADCE2"/>
<path d="M266.589 355.579C279.636 374.426 297.033 383.849 325.302 380.225C360.796 375.682 394.163 342.532 391.264 317.162C388.944 296.89 379.666 292.517 377.492 291.792C375.317 291.067 260.766 347.147 266.589 355.579Z" fill="#D8BEC4"/>
<path d="M154.405 476.075C160.204 481.149 173.904 488.832 189.778 497.652C209.349 508.524 234.091 516.087 234.091 516.087C236.435 525.413 238.948 532.686 240.736 539.427C214.496 534.039 158.054 493.81 154.429 476.051L154.405 476.075Z" fill="#D8BEC4"/>
<path d="M347.7 675.023C340.5 672.341 313.004 680.46 300.198 690.68C315.058 682.659 350.552 685.123 355.36 731.562C381.769 718.756 398.44 707.207 408.83 695.174C410.111 693.676 356.326 678.213 347.7 675.023Z" fill="#D8BEC4"/>
<path d="M434.877 552.015C429.9 552.208 423.303 550.348 428.232 548.729C434.321 546.748 446.233 540.9 449.253 539.668C465.2 533.144 488.975 515.12 497.819 507.05C509.682 496.225 517.172 517.995 507.145 524.18C493.614 532.54 460.199 550.976 434.877 552.015Z" fill="#D8BEC4"/>
<path d="M601.739 651.15C590.552 637.306 594.78 621.045 627.254 614.449C632.642 613.361 657.287 625.708 653.276 627.23C619.764 639.988 619.788 663.28 618.99 673.645C618.555 679.275 605.46 655.765 601.739 651.15Z" fill="#D8BEC4"/>
<path d="M238.851 321.462C211.911 377.252 210.316 526.934 296.284 628.439C395.904 746.131 612.732 688.843 643.66 567.285C656.635 516.255 635.686 463.099 576.103 402.767C518.67 344.633 464.064 246.56 368.262 262.652C361.545 263.787 359.782 256.756 365.001 256.031C470.274 241.172 523.044 341.685 575.571 393.368C627.302 444.252 670.89 506.566 649.072 575.935C613.578 688.867 405.544 756.907 293.071 636.654C232.642 572.045 190.214 421.589 235.904 313.174C239.093 305.587 241.847 315.325 238.876 321.51L238.851 321.462Z" fill="#0E141B"/>
<path d="M283.526 363.238C296.211 379.571 295.124 405.014 281.11 420.091C267.096 435.168 245.471 434.153 232.81 417.819C220.15 401.486 221.237 376.044 235.227 360.967C249.241 345.89 270.865 346.904 283.526 363.238Z" fill="#0E141B"/>
<path d="M280.627 365.727C291.742 380.055 290.703 402.477 278.332 415.791C265.937 429.104 246.897 428.258 235.783 413.906C224.668 399.554 225.707 377.156 238.078 363.842C250.449 350.553 269.513 351.375 280.627 365.727Z" fill="white"/>
<path d="M283.382 372.999C293.433 385.998 292.37 406.391 281.038 418.544C269.682 430.722 252.358 430.045 242.307 417.07C232.279 404.095 233.318 383.703 244.674 371.525C255.813 359.565 273.524 360.217 283.406 372.999H283.382Z" fill="#0E141B"/>
<path d="M281.715 375.633C290.606 387.11 289.785 405.038 279.878 415.669C269.972 426.301 254.726 425.648 245.834 414.171C236.943 402.694 237.764 384.766 247.671 374.135C257.577 363.48 272.823 364.156 281.69 375.633H281.715Z" fill="#008B8C"/>
<path d="M446.595 347.775C462.107 368.434 456.573 397.041 434.2 411.684C411.85 426.326 381.116 421.445 365.58 400.787C350.068 380.152 355.601 351.52 377.951 336.903C400.325 322.26 431.034 327.117 446.57 347.775H446.595Z" fill="#0E141B"/>
<path d="M443.091 349.853C457.226 368.651 452.176 394.674 431.832 408.011C411.488 421.324 383.508 416.903 369.397 398.105C355.287 379.331 360.313 353.284 380.681 339.947C401.025 326.634 428.981 331.055 443.115 349.853H443.091Z" fill="white"/>
<path d="M441.304 353.524C453.723 370.051 449.301 392.932 431.397 404.651C413.518 416.345 388.921 412.455 376.502 395.953C364.082 379.45 368.528 356.545 386.408 344.826C404.288 333.132 428.86 337.022 441.28 353.549L441.304 353.524Z" fill="#0E141B"/>
<path d="M438.404 355.434C449.712 370.463 445.677 391.291 429.392 401.946C413.106 412.601 390.733 409.05 379.449 394.021C368.141 378.992 372.2 358.165 388.461 347.485C404.746 336.854 427.12 340.382 438.404 355.41V355.434Z" fill="#008B8C"/>
<path d="M274.224 380.344C274.635 385.008 271.615 389.091 267.435 389.454C263.279 389.816 259.582 386.337 259.171 381.649C258.76 376.962 261.781 372.878 265.937 372.516C270.092 372.154 273.789 375.657 274.2 380.32L274.224 380.344Z" fill="white"/>
<path d="M420.573 350.167C425.719 354.057 427.048 361.064 423.545 365.823C420.041 370.583 413.034 371.26 407.888 367.394C402.765 363.504 401.437 356.497 404.916 351.737C408.419 346.977 415.426 346.277 420.549 350.167H420.573Z" fill="white"/>
<path d="M224.668 342.047C208.262 336.248 171.198 317.934 160.663 308.631C133.457 284.566 92.0677 181.902 82.548 130.268C79.3586 112.896 88.0569 109.513 103.037 119.855C147.858 150.854 214.713 229.525 222.904 250.28C233.149 276.254 240.132 295.101 241.026 302.349C241.799 308.752 244.771 307.085 244.239 301.89C243.708 296.695 228.969 252.769 226.553 247.429C202.85 195.385 116.544 120.338 107.048 114.466C84.3843 100.501 73.6081 109.32 76.4592 127.949C84.0218 177.432 131.79 296.623 161.606 316.75C169.676 322.21 221.165 346.976 224.668 348.088C231.772 350.359 229.452 343.714 224.716 342.023L224.668 342.047Z" fill="#0E141B"/>
<path d="M233.269 533.023C219.183 529.447 149.959 486.681 157.329 469.912C163.852 455.077 203.188 465.636 215.994 468.946C229.645 472.449 228.872 467.883 217.395 463.969C201.545 458.581 160.301 448.674 152.4 468.414C142.952 491.948 219.787 538.194 240.011 540.683C246.728 541.504 243.128 535.536 233.294 533.023H233.269Z" fill="#0E141B"/>
<path d="M505.936 521.377C497.166 527.684 462.203 544.452 445.266 548.318C428.28 552.232 419.364 546.506 421.225 535.729C424.704 515.385 448.624 484.941 462.228 472.764C464.185 471.024 463.097 467.81 459.473 469.695C442.197 478.659 419.534 516.617 416.513 531.187C411.874 553.658 425.357 558.514 449.132 552.933C462.01 549.912 495.692 536.72 508.304 525.654C513.354 521.232 511.977 517.028 505.961 521.353L505.936 521.377Z" fill="#0E141B"/>
<path d="M341.032 677.295C302.928 683.118 255.015 716.848 250.352 734.341C246.51 748.741 263.738 763.408 319.262 743.595C351.494 732.094 393.825 705.153 407.018 695.44C412.043 691.743 417.431 691.768 413.445 696.286C401.026 710.396 347.12 739.802 328.661 747.654C264.68 774.885 238.73 750.698 242.475 735.621C249.434 707.594 305.9 679.083 331.101 673.767C349.053 669.998 363.72 673.84 341.007 677.295H341.032Z" fill="#0E141B"/>
<path d="M629.839 618.557C649.869 627.762 709.066 652.866 715.59 690.003C721.727 725.014 689.543 732.601 657.529 710.686C631.603 692.927 607.441 654.534 602.73 646.826C596.955 637.451 592.026 641.317 597.946 650.909C613.651 676.255 640.011 708.463 659.848 720.302C695.487 741.589 731.633 725.038 722.041 686.306C714.213 654.654 667.894 627.279 630.153 612.879C621.987 609.762 620.948 614.473 629.863 618.557H629.839Z" fill="#0E141B"/>
<path d="M228.196 320.472C188.716 238.274 117.849 152.161 93.7111 135.175C87.429 130.753 86.1001 132.565 91.1741 136.745C93.397 138.582 95.7407 140.708 98.1568 143.052C104.27 169.412 157.933 286.549 168.299 295.296C175.257 301.167 194.369 312.209 218.99 313.441C221.117 317.356 223.509 321.995 224.717 324.314C231.241 336.83 232.135 328.736 228.196 320.472Z" fill="#0E141B"/>
<path d="M307.519 422.629C298.749 426.156 298.41 444.52 307.761 452.952C319.093 463.173 336.876 456.335 334.436 442.272C332.479 430.965 319.48 417.796 307.519 422.629Z" fill="#EE869A"/>
<path d="M433.62 234.019C425.405 251.053 424.752 287.03 432.847 299.256C437.679 306.553 441.786 309.428 448.044 311.361C456.96 314.115 461.43 316.048 490.618 302.469C536.888 280.893 581.249 211.379 609.47 148.824C582.191 139.232 557.329 124.517 536.018 105.84C496.127 141.575 456.139 187.241 433.596 233.994L433.62 234.019Z" fill="#FADCE2"/>
<path d="M614.423 45.9434C595.77 56.768 568.371 76.8465 536.042 105.841C557.353 124.518 582.215 139.232 609.494 148.825C626.673 110.746 636.58 75.3001 638.585 54.8108C639.455 45.8951 629.404 37.2451 614.423 45.9434Z" fill="white"/>
<path d="M469.67 301.819C554.72 295.391 631.458 102.942 635.565 56.2613C636.169 49.2785 629.235 42.1749 615.221 49.7617C587.024 65.0321 483.732 143.945 436.93 235.373C428.377 252.093 429.488 273.187 431.76 290.535C432.799 298.581 428.546 293.797 426.154 285.364C419.34 261.202 428.619 242.501 433.403 229.792C453.481 176.467 563.708 69.2121 611.186 45.1468C629.839 35.6995 644.964 37.9466 640.591 63.0749C628.341 133.169 549.501 302.906 475.082 306.506C464.596 307.013 458.7 302.664 469.67 301.819Z" fill="#0E141B"/>
<path d="M332.526 242.067C345.936 242.429 378.482 262.435 378.579 300.852C378.652 328.711 361.69 361.595 307.543 363.673C265.671 365.292 232.545 323.71 227.64 292.831C218.072 232.692 255.764 196.352 282.584 190.916C306.456 186.083 330.545 193.405 335.764 215.682C337.262 222.036 337.6 231.049 332.526 242.042V242.067Z" fill="#FADCE2"/>
<path d="M238.948 324.047C246.849 337.167 278.283 371.598 321.823 364.349C360.772 357.85 376.236 328.831 377.903 311.241C379.111 298.436 378.289 286.161 376.767 291.815C368.794 321.534 352.315 338.762 324.553 348.547C299.908 357.246 261.515 347.629 237.571 316.46C231.385 308.414 236.218 319.577 238.924 324.071L238.948 324.047Z" fill="#D8BEC4"/>
<path d="M292.297 240.398C290.751 242.138 298.869 263.956 316.604 263.546C332.816 263.159 342.699 247.599 341.974 245.424C341.249 243.25 333.01 242.839 333.01 242.839C333.01 242.839 326.438 250.112 314.478 251.489C301.938 252.938 296.114 245.956 292.297 240.398Z" fill="#D8BEC4"/>
<path d="M615.221 73.7541C558.368 96.7562 457.541 229.429 454.255 282.223C453.481 294.425 458.773 294.014 459.643 286.669C459.739 285.799 459.933 284.881 460.078 283.987C466.94 276.811 489.652 261.613 491.295 262.12C491.706 262.241 491.15 271.205 490.401 276.617C490.207 278.043 489.942 279.927 490.763 280C493.107 280.193 509.513 269.804 522.15 256.007C550.806 224.693 620.223 100.356 612.829 80.1087C614.665 79.2389 616.429 78.5382 617.976 78.1274C625.538 76.1945 623.581 70.3473 615.173 73.7541H615.221Z" fill="#0E141B"/>
<path d="M331.754 244.772C350.648 245.859 375.632 268.91 376.187 299.305C377.154 352.002 317.861 368.674 288.673 358.695C248.854 345.092 222.542 307.375 229.38 260.163C235.686 216.696 269.803 189.393 301.237 191.954C320.543 193.525 333.155 206.016 334.556 223.896C335.595 237.209 325.979 249.604 310.829 249C301.382 248.614 297.54 244.023 296.381 239.311C294.158 230.202 302.083 226.844 301.841 225.998C301.503 224.838 290.872 228.414 291.645 239.311C292.249 247.865 303.073 254.219 313.487 253.398C331.971 251.924 339.945 239.577 339.123 221.915C338.253 203.093 322.62 189.997 302.59 187.291C263.98 182.072 230.733 219.136 225.635 254.388C217.927 307.617 239.769 345.793 286.885 362.513C331.609 378.387 385.055 344.005 380.826 298.025C377.25 259.221 349.803 241.752 332.261 239.65C328.54 239.191 326.317 244.458 331.729 244.772H331.754Z" fill="#0E141B"/>
<path d="M305.9 452.082C308.051 456.528 307.012 443.215 315.758 440.339C324.505 437.464 332.913 438.237 334.653 440.629C334.484 438.237 324.553 420.817 311.989 421.469C299.425 422.097 297.637 434.903 305.9 452.106V452.082Z" fill="#933000"/>
<path d="M305.707 451.261C305.369 453.749 308.679 454.909 308.775 452.396C309.186 442.876 323.297 436.619 333.638 441.886C335.861 443.021 336.223 439.59 333.904 438.696C320.421 433.526 307.229 440.146 305.707 451.285V451.261Z" fill="#0E141B"/>
<path d="M336.755 443.769C339.22 454.666 320.397 466.602 306.529 454.11C299.014 447.321 294.907 426.251 307.35 421.25C322.185 415.282 334.315 433.017 336.755 443.769ZM308.945 424.077C300.295 427.556 301.092 445.267 307.882 451.404C320.083 462.398 335.813 453.603 333.3 443.141C331.681 436.424 321.195 419.148 308.945 424.077Z" fill="#0E141B"/>
<path d="M217.999 309.261C195.142 307.811 177.262 297.494 170.932 292.13C163.224 285.631 116.616 187.316 104.414 149.938C132.732 177.844 183.738 242.792 218.023 309.261H217.999Z" fill="#3E4E57"/>
<path d="M458.603 279.734C464.716 228.003 554.164 110.963 608.914 81.3164L608.987 81.558C615.245 98.6646 548.727 220.924 519.129 253.277C510.696 262.482 500.814 269.852 494.967 273.524C496.634 259.534 494.894 259.003 492.527 258.254L491.923 258.061H491.198C486.704 258.061 465.876 273.113 458.579 279.758L458.603 279.734Z" fill="#3E4E57"/>
</g>
<defs>
<clipPath id="clip0_42_62026">
<rect width="647.587" height="720" fill="white" transform="translate(76 40)"/>
</clipPath>
</defs>
</svg>
