<svg width="800" height="800" viewBox="0 0 800 800" fill="none" xmlns="http://www.w3.org/2000/svg">
<g clip-path="url(#clip0_42_62078)">
<path d="M227.652 348.054C203.694 359.881 148.485 452.091 146.066 496.525C145.785 501.609 148.333 497.366 150.612 494.258C169.019 469.06 228.646 452.418 251.692 468.803C257.489 472.917 255.654 472.134 257.512 467.284C266.067 444.903 336.75 418.888 357.635 427.338C364.588 430.155 365.816 412.811 359.902 404.619C353.988 396.426 350.552 391.95 342.009 393.855C311.378 400.68 259.92 371.603 251.622 363.223C236.604 348.054 239.152 342.385 227.652 348.054Z" fill="#A59ACA"/>
<path d="M169.416 435.706C192.767 400.821 237.06 390.057 239.339 419.181C240.777 437.635 246.936 453.915 250.407 459.372C252.534 462.703 255.257 463.369 255.257 459.98C255.257 442.695 264.829 417.849 278.011 411.14C294.7 402.644 338.071 410.229 348.683 409.925C359.306 409.621 346.661 394.65 338.071 394.451C311.378 393.844 275.896 385.476 254.345 368.062C249.659 364.276 240.368 343.718 231.299 348.65C202.782 364.124 166.085 431.148 169.416 435.706Z" fill="#8F85AF"/>
<path d="M422.088 351.993C449.389 325.604 453.632 273.737 446.654 238.852C445.754 234.376 450.371 232.716 454.543 231.267C481.54 221.859 590.439 223.378 645.941 262.202C651.059 265.778 647.729 268.034 642.586 267.531C595.64 262.95 547.454 294.306 536.749 321.35C534.143 327.906 536.27 323.874 530.684 324.073C497.014 325.288 456.366 353.197 440.297 377.155C429.393 393.412 411.465 362.254 422.1 351.981L422.088 351.993Z" fill="#A59ACA"/>
<path d="M424.975 350.928C421.878 353.897 432.712 369.581 437.258 368.669C445.906 351.384 470.472 315.891 480.944 309.522C488.692 304.812 504.598 287.223 532.355 318.626C533.267 313.168 517.793 286.276 522.339 273.128C526.43 261.301 555.554 242.649 617.892 248.562C596.049 227.175 475.486 214.892 445.451 235.823C446.362 268.126 459.101 318.17 424.975 350.94V350.928Z" fill="#8F85AF"/>
<path d="M225.654 342.386C193.199 369.079 143.927 444.542 141.204 499.143C140.76 508.154 148.169 507.722 148.181 501.527C148.286 466.618 195.396 370.891 232.479 354.26C234.594 353.348 242.892 360.384 244.108 364.626C239.865 383.735 232.152 417.042 250.687 467.028C253.048 473.385 258.05 471.679 256.472 467.553C250.687 452.36 238.848 393.341 252.207 372.714C273.956 388.643 320.739 403.006 343.482 398.752C348.145 397.887 356.583 394.148 351.721 389.894C346.871 385.651 345.13 389.216 336.551 389.286C297.727 389.59 262.316 370.178 241.069 343.379C235.95 336.917 237.586 332.546 225.642 342.374L225.654 342.386Z" fill="#00AFE5"/>
<path d="M421.609 344.151C447.087 320.041 446.082 273.445 441.08 244.777C439.864 237.823 436.463 231.559 444.621 229.607C520.61 211.411 618.687 225.879 656.003 265.007C660.491 269.729 657.499 275.046 652.205 271.33C583.497 223.098 484.403 228.497 460.293 236.69C451.738 240.687 453.515 243.597 455.233 259.947C487.512 265.498 521.03 284.863 537.918 320.625C540.664 326.446 536.258 330.594 532.355 323.664C513.492 290.204 491.1 272.872 464.851 272.335C460.457 272.241 454.251 272.428 453.982 278.4C453.141 296.726 450.698 333.516 428.621 352.741C423.397 357.287 410.565 354.588 421.621 344.14L421.609 344.151Z" fill="#00AFE5"/>
<path d="M343.984 298.607C316.462 308.47 312.43 345.016 316.228 356.843C324.42 382.32 339.134 383.536 341.705 391.424C345.504 403.053 351.265 440.557 397.218 438.278C417.075 437.296 438.602 415.079 441.325 393.692C444.06 372.305 425.7 349.901 419.33 342.62C412.961 335.339 415.31 325.054 408.134 314.968C393.572 294.493 374.464 287.668 343.984 298.595V298.607Z" fill="#00AFE5"/>
<path d="M327.798 316.337C320.739 302.464 273.559 304.813 263.321 307.992C252.955 311.218 251.833 315.706 252.522 319.539C257.524 347.062 288.238 377.553 324.642 374.14C335.815 373.089 333.174 326.925 327.798 316.337Z" fill="#00AFE5"/>
<path d="M366.236 293.837C369.427 273.584 389.26 246.517 412.914 237.869C417.215 236.303 422.427 235.344 425.431 241.959C434.301 261.523 434.325 305.092 414.527 326.701C404.079 338.108 396.985 324.539 389.026 315.669C381.067 306.798 364.811 302.836 366.236 293.837Z" fill="#00AFE5"/>
<path d="M389.996 439.727C390.58 440.171 395.465 445.185 398.083 450.853C406.615 469.283 441.629 555.182 450.418 573.987C453.468 580.531 459.487 579.456 457.5 570.703C455.817 563.316 421.574 479.404 410.974 449.088C408.672 442.497 412.937 436.758 413.276 435.414C414.749 429.711 386.35 437.004 389.984 439.727H389.996Z" fill="#00AFE5"/>
<path d="M427.242 425.398C428.306 425.199 430.819 424.638 434.5 427.08C460.281 444.214 540.279 517.561 543.726 518.356C547.665 519.267 549.897 516.135 547.77 512.793C545.982 510 470.811 448.69 445.871 421.517C441.08 416.293 440.717 411.922 440.285 409.924C438.883 403.531 432.092 409.012 429.977 412.951C427.85 416.901 420.873 426.59 427.242 425.386V425.398Z" fill="#00AFE5"/>
<path d="M320.622 368.682C277.556 364.591 255.105 324.33 258.518 318.872C274.704 310.025 313.154 316.78 317.934 325.194C312.114 337.325 314.86 354.879 320.622 368.682Z" fill="#A59ACA"/>
<path d="M380.378 294.211C380.529 274.04 399.79 250.841 419.961 242.8C421.796 242.076 421.527 244.6 422.392 246.891C430.585 268.734 420.09 312.805 410.74 320.636C403.915 308.808 390.545 296.338 380.389 294.211H380.378Z" fill="#A59ACA"/>
<path d="M340.198 315.248C322.048 326.363 321.428 342.654 324.923 353.851C329.212 367.594 336.154 373.157 343.704 376.219C355.753 381.105 396.167 355.662 399.801 348.954C404.862 339.604 393.49 314.29 377.795 308.832C366.914 305.046 355.777 305.724 340.198 315.26V315.248Z" fill="#0E141B"/>
<path d="M317.139 325.907C317.712 323.499 313.855 321.629 311.623 322.401C301.701 325.825 298.148 338.47 297.459 342.876C296.524 348.907 300.03 361.786 305.043 364.369C309.064 366.437 322.808 369.546 321.382 367.606C314.253 357.894 314.089 338.774 317.139 325.895V325.907Z" fill="#796BAF"/>
<path d="M382.049 295.276C379.162 295.089 381.219 286.242 383.311 285.412C407.012 276.016 418.372 298.139 418.664 305.841C418.793 309.242 412.213 321.595 410.986 319.877C401.66 306.904 392.52 295.954 382.049 295.276Z" fill="#796BAF"/>
<path d="M313.505 322.074C296.991 312.526 264.91 313.122 258.903 318.323C271.315 321.899 286.262 331.027 298.148 339.827C299.889 331.704 305.78 324.645 313.516 322.086L313.505 322.074Z" fill="#8F85AF"/>
<path d="M318.296 325.569C316.917 324.283 315.305 323.126 313.505 322.086C305.768 324.645 299.889 331.704 298.136 339.827C305.406 345.214 311.541 350.485 315.223 354.284C312.99 342.363 313.727 331.751 318.296 325.569Z" fill="#695C98"/>
<path d="M420.569 242.486C409.057 247.149 384.526 266.012 380.939 287.715C386.829 283.881 393.631 283.203 400.245 284.945C401.601 280.597 402.992 276.215 404.499 273.129C412.084 257.656 422.603 241.668 420.569 242.498V242.486Z" fill="#8F85AF"/>
<path d="M380.939 287.715C380.553 290.029 380.401 292.378 380.541 294.751C383.264 295.966 389.435 297.719 394.285 300.15C396.447 298.175 398.259 291.291 400.245 284.945C393.631 283.204 386.829 283.882 380.939 287.715Z" fill="#695C98"/>
<path d="M365.407 431.336C373.412 437.191 405.505 446.015 425.15 424.803C436.65 412.392 444.259 392.839 438.801 378.277C437.433 406.034 422.474 419.17 402.91 424.406C380.097 430.506 358.324 420.771 347.853 406.665C350.588 414.402 358.067 425.96 365.407 431.336Z" fill="#0099C8"/>
<path d="M426.529 352.472C426.763 352.227 426.997 351.981 427.231 351.736C449.05 328.584 450.429 311.053 452.112 280.036C452.58 271.388 454.602 270.967 458.482 270.418C483.41 266.877 516.192 288.357 533.465 322.764C535.136 326.083 537.345 325.218 535.44 320.613C521.416 286.452 486.822 266.748 455.723 262.132C451.656 261.536 452.112 247.885 451.773 243.76C451.399 239.202 454.403 236.689 457.804 235.532C491.427 224.126 599.964 227.398 650.078 268.758C656.845 274.345 658.305 269.857 653.21 265.019C597.206 211.773 438.216 218.773 441.477 237.285C451.142 292.202 442.564 330.255 421.89 345.764C420.464 346.827 419.003 343.812 420.113 343.111C448.209 325.241 443.277 256.756 438.17 239.179C436.627 233.861 439.642 227.983 450.464 225.388C495.447 214.589 606.263 216.705 655.886 263.476C665.025 272.089 657.148 278.681 649.587 272.171C608.379 236.631 505.767 223.577 458.867 239.179C457.138 239.751 455.268 242.778 455.572 249.077C455.817 254.15 455.852 258.579 458.867 259.269C511.295 271.224 532.039 302.756 539.239 321.946C542.429 330.454 534.494 330.092 531.899 325.008C515.911 293.652 484.018 270.5 461.263 273.667C456.775 274.298 454.964 276.635 454.964 282.058C454.964 321.338 442.365 341.802 427.675 354.996C427.102 355.511 426.436 352.577 426.529 352.484V352.472Z" fill="#0E141B"/>
<path d="M533.524 325.381C500.403 326.421 461.731 348.462 440.904 380.602C438.836 383.804 439.257 378.369 440.18 376.757C455.56 349.701 499.234 321.407 532.063 323.336C533.886 323.441 533.535 324.609 533.524 325.381Z" fill="#0E141B"/>
<path d="M647.764 269.284C601.612 262.049 547.151 294.855 538.689 322.261C537.719 319.339 537.135 321.875 536.738 319.14C554.806 281.204 611.955 259.502 644.842 266.748C651.317 268.173 647.565 268.302 647.764 269.284Z" fill="#0E141B"/>
<path d="M343.914 397.385C313.189 402.481 266.348 382.625 254.801 372.609C251.844 370.049 250.383 370.236 248.432 375.694C240.859 396.801 245.148 439.131 254.521 465.637C255.794 471.177 254.556 471.504 252.207 466.549C239.094 438.792 237.049 384.343 245.697 366.017C247.099 363.037 236.09 350.626 231.439 352.133C215.661 357.299 153.393 431.686 146.72 499.938C146.662 500.488 146.627 500.99 146.591 501.458C145.96 504.718 142.478 505.42 142.782 501.317C148.274 427.105 212.518 353.956 229.09 341.732C234.302 337.887 236.417 341.416 239.982 346.079C268.966 384.074 320.049 391.437 341.191 391.437C341.705 391.261 341.553 387.93 340.034 387.989C297.108 389.356 256.987 365.164 241.209 341.136C236.067 333.294 233.274 333.528 227.863 336.999C214.902 345.343 143.927 422.594 140 501.586C139.708 507.512 148.228 511.228 149.198 500.441C154.141 445.828 207.223 368.542 230.773 356.364C234.232 354.576 239.398 359.297 243.36 364.708C231.754 393.318 239.959 449.591 249.565 467.519C254.158 476.109 259.756 475.267 257.489 465.625C248.338 439.821 243.138 397.385 252.078 374.467C280.84 395.352 324.339 402.831 344.183 399.968C343.564 397.187 344.358 398.484 343.903 397.362L343.914 397.385Z" fill="#0E141B"/>
<path d="M251.015 469.984C237.528 456.498 164.952 467.285 148.496 499.961C145.703 505.513 147.106 495.859 149.7 492.727C180.647 455.422 242.974 459.057 248.432 464.971C253.89 470.884 256.472 475.43 251.015 469.973V469.984Z" fill="#0E141B"/>
<path d="M360.206 428.507C320.891 424.008 271.677 444.916 257.325 469.832C255.444 472.041 255.514 467.612 256.624 465.905C270.578 444.343 314.299 421.296 359.914 425.726C363.396 426.065 364.016 428.951 360.206 428.519V428.507Z" fill="#0E141B"/>
<path d="M332.695 320.788C333.267 324.095 338.012 331.633 340.385 338.727C341.32 341.521 339.964 342.607 337.627 342.082C332.812 340.995 327.284 337.126 324.42 334.193C322.866 332.603 332.344 318.708 332.706 320.788H332.695Z" fill="#0E141B"/>
<path d="M331.094 322.588C331.678 324.926 336.061 334.135 337.989 338.214C338.585 339.476 338.269 339.955 336.271 339.301C332.332 338.015 327.915 334.953 325.741 331.517C324.771 329.975 330.685 320.917 331.094 322.6V322.588Z" fill="white"/>
<path d="M385.73 360.406C384.947 355.474 383.369 348.38 382.575 341.286C382.177 337.734 383.638 336.273 386.911 338.727C391.644 342.28 395.594 347.025 398.539 350.554C399.965 352.261 386.057 362.498 385.73 360.406Z" fill="#0E141B"/>
<path d="M387.413 358.129C387.179 355.873 385.029 346.079 384.433 341.615C384.246 340.224 384.398 339.78 386.104 341.019C389.458 343.45 394.425 348.861 395.828 352.285C396.517 353.98 387.588 359.847 387.413 358.129Z" fill="white"/>
<path d="M356.548 308.167C359.107 310.329 365.29 319.994 369.357 324.529C371.32 326.714 373.354 325.826 374.09 323.547C375.598 318.837 374.382 311.544 373.307 307.583C372.734 305.444 354.935 306.811 356.548 308.179V308.167Z" fill="#0E141B"/>
<path d="M360.405 308.868C362.123 310.551 367.837 319.001 370.374 322.729C371.157 323.898 371.729 323.863 372.185 321.806C373.073 317.762 372.676 312.398 370.806 308.775C369.976 307.162 359.166 307.665 360.405 308.868Z" fill="white"/>
<path d="M355.963 375.788C353.439 373.591 346.766 363.026 342.757 358.433C340.817 356.212 339.765 357.147 339.006 359.414C337.44 364.101 337.79 370.622 338.807 374.596C339.356 376.746 357.553 377.167 355.963 375.776V375.788Z" fill="#0E141B"/>
<path d="M353.053 375.823C351.347 374.117 344.791 364.674 342.313 360.922C341.542 359.753 340.969 359.777 340.49 361.834C339.543 365.866 339.871 371.23 341.682 374.876C342.5 376.501 354.269 377.05 353.053 375.835V375.823Z" fill="white"/>
<path d="M411.173 435.414C407.269 443.08 408.52 449.684 410.413 454.405C422.123 483.611 453.141 565.688 454.976 570.457C457.967 578.228 454.344 579.526 450.418 570.842C437.48 542.256 412.54 475.044 399.556 448.527C396.587 442.461 394.671 440.591 389.154 438.184C383.954 435.916 378.73 437.482 381.219 438.417C388.36 441.082 391.854 440.474 396.658 449.964C399.451 455.492 445.719 567.056 448.045 572.724C452.276 583.044 461.929 582.097 458.037 569.872C455.198 560.943 417.262 463.848 414.141 454.253C411.114 444.927 412.003 438.335 416.993 432.48C419.085 430.026 413.662 430.517 411.173 435.425V435.414Z" fill="#0E141B"/>
<path d="M437.258 411.28C437.293 411.561 440.881 419.648 446.701 425.363C474.633 452.839 529.69 498.255 541.12 508.726C550.797 517.585 548.775 520.752 540.15 513.132C533.29 507.078 468.123 453.517 439.49 428.729C432.127 422.359 429.276 423.002 424.239 424.79C420.592 426.076 418.36 430.178 421.96 427.911C426.564 425.012 431.987 427.116 438.415 432.469C442.564 435.928 532.483 511.028 538.689 515.972C550.797 525.637 554.186 516.101 545.117 508.481C534.926 499.926 458.645 432.831 448.758 422.476C441.898 415.289 438.053 408.557 441.512 396.671C442.541 393.165 436.382 404.362 437.258 411.28Z" fill="#0E141B"/>
<path d="M398.352 328.08C391.831 314.383 373.693 293.651 340.782 313.296C315.807 328.197 319.009 351.326 331.713 369.487C335.628 375.097 343.704 378.416 349.056 378.556C359.715 378.825 394.834 357.216 397.663 354.014C403.167 347.796 404.172 340.352 398.34 328.092L398.352 328.08ZM394.94 352.6C391.001 356.538 357.027 377.47 347.923 375.962C343.131 375.167 337.521 373.028 333.934 367.875C323.333 352.67 317.467 329.67 342.769 315.295C375.376 296.794 389.143 317.434 395.851 329.249C403.331 342.42 398.586 348.965 394.94 352.6Z" fill="#0E141B"/>
<path d="M324.035 372.714C300.532 375.098 260.574 353.056 254.637 317.645C254.24 315.296 253.492 314.162 257.045 312.316C262.9 309.277 302.823 301.038 324.42 314.536C324.9 314.828 328.663 314.115 326.08 312.316C305.92 298.291 265.553 304.556 257.711 308.728C251.657 311.953 250.278 313.8 251.657 319.83C260.551 358.736 302.472 379.843 326.664 375.636C328.406 375.332 324.888 372.632 324.035 372.714Z" fill="#0E141B"/>
<path d="M413.592 325.907C431.485 309.218 432.548 261.909 423.865 243.467C421.586 238.641 420.943 237.811 416.631 239.307C395.033 246.787 371.823 268.115 367.44 294.867C367.347 295.474 365.068 294.703 365.149 294.06C368.001 267.893 391.807 244.578 413.72 237.133C421.34 234.539 424.075 236.128 426.681 242.988C438.345 273.69 431.263 317.785 414.317 328.303C413.919 328.549 412.961 326.503 413.604 325.907H413.592Z" fill="#0E141B"/>
<path d="M317.139 327.041C309.496 319.935 284.638 311.474 261.404 318.474C256.332 320.005 253.971 318.766 258.518 316.955C275.265 310.305 306.294 313.18 319.29 324.248C319.746 324.645 318.308 326.901 317.139 327.041Z" fill="#0E141B"/>
<path d="M443.008 387.896C440.262 359.169 419.517 345.729 417.379 336.59C410.027 305.257 393.923 297.041 381.453 294.014C386.805 262.845 408.45 250.001 419.821 243.866C423.502 241.879 421.574 241.224 418.91 242.498C391.609 255.541 380.541 274.041 378.671 294.973C378.625 295.464 378.87 296.422 379.583 296.515C391.001 298.081 395.243 303.235 400.245 308.015C413.592 320.754 412.073 335.316 416.923 342.293C426.003 355.348 438.696 372.27 439.292 387.113C440.425 415.547 416.794 430.436 411.161 432.692C392.964 439.973 371.706 437.881 358.99 422.98C346.485 408.325 345.796 396.895 342.301 388.936C339.497 382.543 319.196 375.519 316.462 348.674C313.575 320.24 336.061 296.41 365.57 295.966C373.774 295.861 372.664 293.079 364.752 293.348C324.175 294.716 309.473 330.069 313.119 349.937C317.116 371.733 327.845 378.675 338.328 388.796C343.084 393.389 344.031 414.437 358.383 428.087C371.776 440.826 394.916 443.105 412.669 435.555C432.163 427.269 444.446 403.229 442.985 387.907L443.008 387.896Z" fill="#0E141B"/>
<path d="M313.189 365.947C295.051 364.065 293.088 333.352 312.932 323.43C314.755 322.518 314.358 321.548 312.546 321.875C295.133 324.984 286.952 362.324 311.985 367.162C314.37 367.618 321.989 366.859 313.201 365.947H313.189Z" fill="#0E141B"/>
<path d="M416.549 309.791C420.92 289.818 396.26 279.077 382.458 288.263C380.635 289.479 380.845 286.545 382.458 285.634C398.843 276.389 420.698 288.123 418.886 306.472C418.512 310.211 415.497 314.582 416.549 309.779V309.791Z" fill="#0E141B"/>
<path d="M422.544 245.069C432.198 268.677 422.205 313.099 412.271 320.894C409.338 323.197 410.168 319.527 411.558 318.171C418.208 311.65 429.778 271.026 420.581 243.55C420.218 242.475 420.674 240.465 422.556 245.069H422.544Z" fill="#0E141B"/>
<path d="M257.431 319.046C262.678 352.857 310.209 371.147 321.896 369.008C322.959 368.809 322.27 366.717 319.851 366.577C304.716 365.654 264.279 349.035 259.417 318.17C259.242 317.083 257.29 318.123 257.431 319.046Z" fill="#0E141B"/>
</g>
<defs>
<clipPath id="clip0_42_62078">
<rect width="520" height="359.807" fill="white" transform="translate(140 220)"/>
</clipPath>
</defs>
</svg>
