<svg width="800" height="800" viewBox="0 0 800 800" fill="none" xmlns="http://www.w3.org/2000/svg">
<g clip-path="url(#clip0_42_62126)">
<path d="M353.47 402.674C380.987 413.291 406.879 436.384 401.426 483.005C396.262 527.062 382.251 553.658 358.273 594.32C341.571 622.65 310.966 648.921 288.378 655.223C243.599 667.754 215.703 635.867 209.509 626.694C200.12 612.791 192.338 590.907 205.393 541.687C216.515 499.689 248.98 452.996 263.713 434.922C283.954 410.131 319.001 389.349 353.47 402.674Z" fill="#00AFE5"/>
<path d="M299.049 487.465C310.533 500.682 328.516 506.893 349.895 506.496C370.208 506.117 379.868 507.922 373.151 529.138C365.856 552.177 339.079 599.484 322.72 616.168C303.744 635.524 275.269 652.135 247.373 638.882C220.885 626.297 212.073 599.863 218.899 565.701C225.85 530.962 245.603 492.358 263.732 475.494C280.054 460.309 289.624 476.631 299.031 487.483L299.049 487.465Z" fill="#0E141B"/>
<path d="M296.539 651.991C295.528 664.631 292.26 679.31 284.153 686.388C286.157 709.969 279.946 721.76 274.042 733.55C267.469 746.713 249.467 745.593 252.501 727.375C255.354 710.294 261.583 704.281 262.612 695.506C263.623 686.912 265.646 674.254 266.151 670.21C266.657 666.165 270.033 659.575 277.021 662.446C278.032 660.423 277.779 658.69 277.292 657.065C280.831 649.987 292.477 638.847 296.521 652.009L296.539 651.991Z" fill="#00AFE5"/>
<path d="M198.893 601.399C190.822 606.545 183.689 613.027 177.099 622.633C161.914 634.785 153.157 645.239 142.034 662.446C132.573 677.054 137.52 682.29 140.788 684.529C148.011 689.476 153.121 688.447 166.5 670.211C175.6 657.824 191.128 640.039 195.697 635.489C200.247 630.939 203.443 626.696 201.42 623.157C202.937 620.629 205.97 620.123 209.004 618.607C212.037 617.09 208.498 596.849 198.893 601.399Z" fill="#00AFE5"/>
<path d="M296.034 408.109C301.848 396.246 310.009 388.031 315.57 381.964C321.131 375.897 325.375 379.779 325.88 384.329C326.386 388.879 329.419 406.592 327.397 416.722C325.375 426.833 288.938 420.261 296.016 408.127L296.034 408.109Z" fill="#00AFE5"/>
<path d="M247.463 464.264C230.761 451.625 216.605 420.749 219.639 388.88C222.672 357.011 241.071 325.233 257.267 315.122C278.483 301.868 275.017 295.206 268.805 278.504C262.233 260.791 244.051 220.851 233.036 201.838C212.796 166.918 180.475 126.13 158.23 105.799C135.011 84.5829 109.19 67.2853 92.9762 58.2031C144.273 106.232 192.808 171.793 215.594 211.769C232.314 241.11 239.193 261.947 248.294 287.749C251.237 296.091 252.537 298.438 245.441 302.988C232.747 311.149 203.407 344.878 201.42 386.208C199.524 425.57 214.529 460.869 237.352 481.453C255.39 497.722 254.559 470.836 247.463 464.246V464.264Z" fill="#00AFE5"/>
<path d="M393.193 522.891C413.398 522.891 461.679 509.602 481.739 471.36C499.308 437.902 493.837 421.236 485.748 400.996C480.656 388.266 480.782 383.698 488.835 375.067C511.026 351.287 561.15 317.27 596.611 300.333C630.503 284.137 694.258 256.313 752.453 253.785C681.113 274.026 650.816 286.737 596.106 319.563C565.591 337.872 539.934 361.561 513.626 382.813C504.544 390.144 502.919 391.48 507.054 407.098C514.132 433.912 509.473 467.478 490.46 492.178C468.703 520.454 437.195 539.629 387.126 541.688C389.184 534.375 391.532 526.629 393.193 522.891Z" fill="#00AFE5"/>
<path d="M232.802 478.943C214.583 454.152 191.056 412.461 205.483 364.089C214.457 333.99 233.723 311.944 251.165 298.384C238.002 248.296 218.844 213.033 195.173 178.889C159.693 127.737 121.342 81.2424 94.0054 60.4961C130.226 145.341 125.423 251.781 41.3181 315.934C111.141 348.435 94.6555 422.392 77.9537 512.329C130.695 489.939 165.995 500.954 204.959 542.681C215.089 508.772 221.661 497.649 232.784 478.925L232.802 478.943Z" fill="#A59ACA"/>
<path d="M387.126 541.688C445.501 537.77 486.416 511.299 504.327 466.051C511.911 446.894 510.394 422.031 506.043 403.812C505.05 399.677 504.057 396.482 504.707 393.755C505.519 390.451 508.282 387.887 510.593 385.594C575.955 320.953 668.059 273.773 753.662 254.67C689.076 300.568 655.564 354.483 668.655 480.658C600.656 466.141 543.617 550.102 509.076 643.271C468.811 585.022 399.043 580.959 355.005 601.904C373.223 573.069 379.037 561.17 387.126 541.688Z" fill="#A59ACA"/>
<path d="M306.037 411.395C308.294 411.684 311.941 411.233 313.837 411.612C315.733 411.991 317.412 411.774 317.033 409.12C316.654 406.466 315.516 400.381 314.758 398.485C313.999 396.589 312.158 396.86 310.262 398.756C308.366 400.652 304.195 407.044 304.195 408.181C304.195 409.319 303.003 410.998 306.037 411.377V411.395Z" fill="#A59ACA"/>
<path d="M297.695 432.268C301.866 439.851 314.397 462.241 315.913 465.653C298.832 477.046 277.96 455.036 291.628 434.543C295.42 428.855 295.799 431.13 297.713 432.268H297.695Z" fill="white"/>
<path d="M351.953 482.735C366.38 478.185 380.03 474.393 391.423 471.721C390.665 494.868 364.195 508.32 351.953 482.735Z" fill="white"/>
<path d="M293.127 481.597C286.302 492.611 280.975 500.953 278.321 500.574C275.667 500.195 274.15 469.843 274.15 469.843C282.113 468.705 286.284 472.497 293.127 481.597Z" fill="white"/>
<path d="M356.124 506.262C365.224 506.262 373.963 508.158 374.722 514.604C362.967 525.239 348.92 530.926 346.645 529.409C344.37 527.893 352.711 512.329 356.142 506.262H356.124Z" fill="white"/>
<path d="M295.149 636.789C292.874 629.205 288.974 617.469 286.681 617.469C284.388 617.469 276.389 637.222 276.01 642.91C283.972 641.772 289.913 640.075 295.131 636.789H295.149Z" fill="white"/>
<path d="M218.628 604.198C225.832 601.165 237.713 597.734 240.385 600.75C242.245 602.844 231.285 617.072 227.493 622.001C222.943 616.693 220.542 610.644 218.628 604.198Z" fill="white"/>
<path d="M387.126 541.688C429.955 539.088 468.017 522.458 487.535 495.627C514.583 458.414 512.218 428.116 506.548 404.733C505.339 399.732 503.533 396.554 504.364 393.773C505.826 388.808 512.525 384.637 522.221 375.717C585.345 317.649 674.054 269.53 755.36 255.031C623.298 320.304 572.832 354.447 611.526 428.838C528.035 404.553 520.957 499.166 515.883 573.051C495.39 531.306 414.878 555.591 368.33 581.393C377.43 560.899 380.536 557.36 387.108 541.67L387.126 541.688Z" fill="#8F85AF"/>
<path d="M94.0054 60.4961C137.538 98.0886 228.883 204.601 251.147 298.384C197.881 339.298 181.685 410.132 232.784 478.943C220.144 505.251 211.026 524.48 204.959 542.699C207.993 497.162 194.848 420.243 117.93 439.473C170.545 368.639 204.959 305.895 108.829 292.732C190.803 236.072 167.529 155.109 94.0054 60.4961Z" fill="#8F85AF"/>
<path d="M296.539 651.992C291.14 655.206 284.532 656.578 278.826 657.553C278.158 659.937 277.039 661.688 276.298 661.598C270.232 661.092 265.176 666.654 265.176 675.266C265.176 683.879 263.154 695.002 260.12 703.596C257.087 712.191 274.764 732.829 280.361 717.265C284.911 704.607 285.417 696.013 283.394 687.418C293.506 675.266 296.539 665.661 296.539 651.992Z" fill="#0099C8"/>
<path d="M198.893 601.398C200.915 605.949 201.926 614.038 204.959 618.606C203.443 621.134 201.42 623.156 201.42 623.156C203.948 633.267 189.702 638.106 178.724 655.458C170.491 668.458 142.72 657.571 153.861 645.419C160.975 637.655 173.741 626.55 177.135 623.156C184.213 612.015 191.309 607.465 198.893 601.398Z" fill="#0099C8"/>
<path d="M305.278 647.822C290.852 657.301 258.568 663.982 235.257 649.663C208.137 633.016 194.848 608.73 199.416 571.535C203.244 540.316 210.485 525.998 215.739 513.088C207.397 545.715 193.891 596.525 212.705 623.41C238.309 659.991 271.261 657.463 305.296 647.804L305.278 647.822Z" fill="#0099C8"/>
<path d="M92.4165 59.7728C172.964 137.016 229.75 223.938 249.341 298.256C189.792 341.32 183.545 421.542 232.441 480.748C232.892 481.289 234.607 478.238 234.391 477.985C190.93 427.465 190.19 346.231 249.196 302.21C253.313 299.141 253.331 299.249 251.435 292.857C228.811 216.39 178.616 140.23 101.246 64.3951C201.113 129.035 240.746 213.104 270.051 287.025C273.644 296.071 271.189 302.914 257.394 312.611C218.086 340.218 199.091 418.112 243.112 463.143C243.617 463.649 245.242 460.561 244.737 460.056C205.05 419.448 220.108 343.829 259.723 316.023C274.15 305.894 278.501 298.78 273.301 285.653C235.546 190.372 197.629 121.687 94.4568 57.0463C90.6831 54.681 89.2206 56.7032 92.4345 59.7728H92.4165Z" fill="#0E141B"/>
<path d="M91.3873 59.3577C136.834 168.109 115.293 252.105 41.6972 313.622C39.2777 315.644 39.7833 316.944 41.1556 317.558C76.5633 333.971 111.213 365.063 75.9855 510.649C74.8299 515.434 75.0286 516.391 78.2425 514.711C124.737 490.516 166.988 501.964 204.58 544.576C205.05 545.118 206.548 542.337 206.079 541.795C170.545 500.7 129.269 485.298 79.1995 510.45C107.024 395.163 98.4472 342.457 44.3695 315.337C124.105 248.964 138.676 161.681 94.5651 59.5744C92.6692 55.1868 89.5997 55.0785 91.3873 59.3577Z" fill="#0E141B"/>
<path d="M212.615 344.118C160.939 376.222 113.741 425.804 77.6106 510.45C77.2494 511.299 78.8745 513.122 79.1453 512.472C110.382 441.079 158.267 381.765 210.557 349.102C211.153 348.723 213.211 343.757 212.615 344.118Z" fill="#0E141B"/>
<path d="M42.5459 314.761C41.9861 315.122 42.5459 317.758 43.1598 317.361C98.4833 280.87 198.766 286.594 250.587 299.576C251.273 299.738 251.49 296.362 250.785 296.199C197.881 284.625 104.731 275.128 42.5459 314.743V314.761Z" fill="#0E141B"/>
<path d="M314.324 381.441C309.901 385.45 301.378 395.254 296.07 403.921C291.736 410.981 294.011 413.473 298.327 406.467C303.401 398.269 311.147 388.176 315.697 384.547C319.633 381.423 322.973 378.426 324.58 387.58C325.862 394.839 326.584 399.931 326.765 406.196C327 414.773 329.762 415.17 329.564 406.666C329.401 400.201 328.896 393.521 327.343 386.064C325.284 376.187 321.24 375.158 314.306 381.459L314.324 381.441Z" fill="#0E141B"/>
<path d="M293.524 429.777C276.822 448.212 290.111 477.246 315.065 468.146C317.665 467.189 317.827 466.575 315.877 462.603C313.62 457.963 302.209 437.686 298.092 430.174C296.557 427.249 295.546 427.538 293.524 429.777ZM293.416 434.093C295.239 431.655 295.781 431.33 297.46 434.381C303.364 444.529 307.427 451.372 314.505 465.438C297.117 473.816 279.819 454.676 293.416 434.093Z" fill="#0E141B"/>
<path d="M389.13 470.511C381.745 472.497 362.119 477.914 354.102 480.478C351.195 481.417 350.635 482.356 351.827 484.757C361.92 506.479 390.196 499.636 392.85 473.454C393.211 469.897 392.94 469.338 389.13 470.511ZM390.214 472.859C388.95 496.205 360.873 503.987 354.102 483.15C367.102 479.106 378.17 475.856 390.214 472.859Z" fill="#0E141B"/>
<path d="M260.969 476.759C234.138 503.752 213.355 557.162 215.305 593.4C217.436 632.799 257.665 658.98 298.273 637.06C335.739 616.855 366.38 554.634 374.613 529.338C381.204 509.097 371.598 504.059 355.654 504.746C327.758 505.937 311.219 500.141 298.58 484.758C280.126 462.314 273.066 463.271 260.969 476.777V476.759ZM217.869 593.256C215.955 557.65 236.611 505.143 263.009 478.582C276.28 465.221 281.806 468.417 296.575 486.383C309.63 502.254 327.325 508.519 355.763 507.31C371.399 506.641 377.105 513.304 372.158 528.525C364.032 553.515 333.825 614.941 297.045 634.785C257.899 655.892 219.856 629.765 217.869 593.256Z" fill="#0E141B"/>
<path d="M272.904 469.608C272.778 473.057 273.68 484.992 275.161 493.568C277.237 505.431 277.454 506.37 284.352 496.836C284.767 496.277 292.152 485.461 294.607 481.471C294.986 480.857 292.784 479.521 292.404 480.117C289.696 484.54 286.247 489.686 283.413 493.695C278.808 500.213 278.682 499.87 277.454 492.214C276.046 483.475 275.45 470.023 275.468 469.716V469.662C275.468 468.976 272.922 468.904 272.886 469.626L272.904 469.608Z" fill="#0E141B"/>
<path d="M355.221 505.702C350.816 514.152 348.27 519.623 346.843 523.162C343.142 532.389 344.406 532.533 352.711 529.265C360.06 526.358 371.291 520.508 375.751 515.904C376.238 515.398 374.649 513.286 374.162 513.809C370.442 517.655 361.956 522.314 355.42 525.311C347.854 528.76 346.879 529.428 350.274 521.718C351.881 518.089 354.264 513.123 357.514 506.876C357.623 506.677 355.564 505.052 355.221 505.684V505.702Z" fill="#0E141B"/>
<path d="M236.593 598.312C230.779 598.583 221.968 600.749 217.743 602.934C217.111 603.259 218.285 605.552 218.917 605.227C223.485 602.88 230.527 601.472 235.257 601.02C239.627 600.605 240.187 600.767 237.93 604.397C235.131 608.893 230.292 616.53 225.814 621.658C225.597 621.911 227.295 623.897 227.764 623.355C229.1 621.821 238.887 609.488 241.595 602.952C243.003 599.54 243.22 598.005 236.593 598.312Z" fill="#0E141B"/>
<path d="M289.913 619.816C287.024 614.778 286.374 613.514 283.069 619.779C280.56 624.528 275.414 638.413 274.547 642.44C274.403 643.144 276.912 643.686 277.075 642.981C278.465 636.571 283.015 626.063 284.857 622.127C286.608 618.353 286.699 619.111 288.793 623.336C290.436 626.677 293.47 632.798 294.102 637.203C294.192 637.908 296.756 637.547 296.648 636.842C295.889 631.552 291.953 623.373 289.931 619.816H289.913Z" fill="#0E141B"/>
<path d="M295.42 652.461C294.499 665.353 291.014 679.238 278.483 690.559C274.078 694.531 276.624 695.434 281.354 690.956C293.903 679.13 298.724 666.671 299.501 651.341C299.537 650.637 295.474 651.739 295.42 652.443V652.461Z" fill="#0E141B"/>
<path d="M276.642 657.246C276.1 662.121 274.728 668.296 271.279 674.652C268.462 679.816 270.701 680.141 274.258 674.309C277.147 669.578 278.989 662.699 279.639 656.885C279.711 656.181 276.714 656.542 276.642 657.246Z" fill="#0E141B"/>
<path d="M263.605 679.689C263.352 690.956 260.265 700.778 257.719 707.026C254.704 714.447 251.49 721.308 250.533 727.519C247.698 745.828 266.765 751.498 275.829 734.399C284.063 718.889 286.464 703.053 285.742 686.478C285.706 685.774 282.907 687.814 282.943 688.518C283.756 707.333 279.946 718.509 273.554 730.805C265.411 746.478 252.356 740.682 253.927 727.682C254.649 721.723 257.358 715.241 260.301 707.983C262.919 701.519 266.115 691.371 266.368 679.725C266.602 669.054 270.196 660.098 276.75 663.8C277.364 664.143 278.267 661.561 277.599 661.344C266.169 657.589 263.804 669.849 263.587 679.671L263.605 679.689Z" fill="#0E141B"/>
<path d="M199.452 598.745C187.915 605.48 176.72 618.065 170.797 632.311C168.396 638.071 170.147 639.227 172.531 634.207C178.309 621.983 188.872 609.687 200.102 603.133C200.716 602.772 200.066 598.402 199.452 598.763V598.745Z" fill="#0E141B"/>
<path d="M204.291 617.938C196.202 623.319 189.503 630.92 183.491 640.165C179.916 645.672 180.909 648.073 184.141 643.162C189.54 634.911 199.651 624.998 206.368 620.52C206.964 620.123 204.887 617.541 204.291 617.938Z" fill="#0E141B"/>
<path d="M178.652 620.302C163.557 630.378 144.147 652.442 136.292 667.663C128.528 682.686 147.09 699.351 161.914 679.598C170.996 667.483 188.727 645.472 188.727 645.472C188.727 645.472 197.954 635.162 200.5 632.183C203.045 629.186 203.894 625.448 202.793 622.343C202.558 621.675 200.12 622.541 200.355 623.209C201.15 625.43 200.463 627.814 198.333 630.287C198.333 630.287 193.313 635.632 186.596 643.54C177.912 653.778 165.507 668.133 159.007 677.233C148.986 691.262 131.49 683.228 140.716 667.699C151.839 648.975 161.065 637.853 177.243 623.48C177.893 622.903 179.248 619.941 178.652 620.321V620.302Z" fill="#0E141B"/>
<path d="M756.064 253.045C675.697 301.309 654.77 373.208 667.12 478.853C585.399 462.729 527.945 584.751 508.968 639.93C479.735 600.496 419.428 569.458 353.668 601.056C353.091 601.345 349.877 605.823 350.454 605.552C434.595 566.352 492.609 622.362 505.411 640.057C509.329 645.455 508.733 648.706 511.568 640.49C522.022 610.246 577.96 474.682 660.241 480.984C668.853 481.652 670.587 485.335 669.558 475.856C657.875 366.689 686.133 297.824 758.447 254.399C759.061 254.038 756.66 252.684 756.046 253.045H756.064Z" fill="#0E141B"/>
<path d="M754.222 252.286C633.391 262.469 530.563 330.396 486.741 374.633C478.923 382.523 476.846 386.315 482.732 398.936C514.746 467.459 445.772 520.164 393.012 520.904C392.29 520.904 391.044 524.335 391.766 524.353C453.301 524.859 517.562 463.938 486.596 397.618C481.794 387.344 483.509 382.812 489.81 376.529C540.981 325.503 642.456 267.2 742.359 256.023C623.948 288.416 573.085 328.897 508.896 385.376C499.434 393.7 503.208 395.054 506.151 409.878C520.849 483.673 461.39 537.119 386.458 540.477C385.754 540.513 384.779 543.727 385.501 543.709C469.425 540.351 525.615 482.319 508.264 404.497C505.393 395.433 505.718 392.508 510.322 388.464C576.226 330.558 644.171 281.681 754.854 255.518C762.058 253.802 761.643 251.672 754.24 252.286H754.222Z" fill="#0E141B"/>
<path d="M505.158 394.713C561.168 400.22 617.647 422.555 667.048 480.478C667.517 481.02 668.799 479.395 668.348 478.853C623.208 424.523 564.67 394.64 505.483 391.932C504.761 391.896 504.436 394.658 505.158 394.731V394.713Z" fill="#0E141B"/>
<path d="M504.779 462.656C514.583 532.876 518.411 572.762 508.119 640.815C507.596 644.318 510.448 643.631 511.026 639.822C522.185 566.225 517.653 524.913 506.909 458.847C506.783 458.142 504.689 461.934 504.779 462.638V462.656Z" fill="#0E141B"/>
<path d="M309.594 397.926C309.395 398.16 304.646 404.823 303.112 407.64C301.36 410.854 300.692 412.515 304.249 412.479C306.849 412.479 312.699 412.623 315.642 412.713C319.001 412.822 318.947 412.876 318.477 409.391C318.08 406.448 316.491 399.262 316.365 398.901C314.397 392.653 313.801 392.96 309.594 397.944V397.926ZM305.784 407.892C307.066 405.798 308.276 404.245 310.442 401.013C313.006 397.185 313.367 396.752 314.523 401.573C315.01 403.613 315.444 406.629 315.715 408.272C316.04 410.168 316.329 410.673 314.017 410.547C311.869 410.42 309.846 410.42 307.192 410.294C304.773 410.186 304.52 409.969 305.802 407.892H305.784Z" fill="#0E141B"/>
<path d="M380.03 429.361C391.153 425.317 397.743 423.294 402.293 422.283C410.4 420.478 411.736 424.089 410.382 430.372C408.866 437.45 404.315 453.647 397.219 458.197C390.141 462.747 372.429 442.506 380.012 429.361H380.03Z" fill="#00AFE5"/>
<path d="M386.873 438.335C393.698 436.06 398.646 433.785 399.783 434.543C400.921 435.302 398.267 445.16 396.371 447.056C393.337 444.402 389.925 441.368 386.873 438.335Z" fill="#A59ACA"/>
<path d="M400.415 421.272C393.554 422.482 385.989 425.533 380.608 428.26C374.848 431.185 376.04 433.424 381.782 430.589C386.946 428.043 394.637 425.407 401.174 424.017C409.371 422.265 410.454 423.764 408.486 432.936C407.096 439.364 401.679 449.728 398.971 454.531C398.881 455.687 399.639 458.088 399.765 460.237C404.532 453.087 410.274 442.073 411.863 433.731C413.957 422.626 412.549 419.16 400.415 421.308V421.272Z" fill="#0E141B"/>
<path d="M396.371 433.352C396.371 433.352 390.846 434.796 387.632 436.349C383.515 438.335 384.508 438.787 387.018 440.737C390.087 443.12 391.785 445.178 393.717 447.67C396.01 450.595 396.244 449.674 397.707 446.822C399.35 443.626 400.451 440.755 401.21 437.739C402.365 433.117 401.138 432.305 396.353 433.37L396.371 433.352ZM390.683 437.721C392.092 436.927 394.565 436.403 396.118 436.042C398.899 435.392 399.169 435.446 398.411 438.335C398.05 439.762 397.364 442.001 396.606 443.644C395.594 445.81 395.215 445.792 393.699 443.788C392.525 442.235 391.478 441.278 390.286 440.213C388.661 438.751 389.401 438.462 390.683 437.721Z" fill="#0E141B"/>
<path d="M360.566 407.278C371.146 412.316 379.633 418.726 386.025 426.526C387.054 426.436 388.083 426.381 389.022 426.183C373.656 407.043 351.754 396.571 327.451 397.131C327.686 397.997 327.866 398.828 327.993 399.641C338.339 399.46 349.172 401.879 360.548 407.278H360.566Z" fill="#0E141B"/>
<path d="M378.712 563.283C396.93 525.419 406.518 484.848 403.232 458.576C403.015 456.771 402.672 455.001 402.275 453.232C401.571 455.38 400.65 457.15 399.621 458.793C403.25 484.685 395.251 518.594 375.173 561.279C351.718 611.167 299.374 677.83 238.724 649.211C176.9 620.015 202.287 540.189 228.775 490.878C248.835 453.557 270.34 424.378 294.535 409.825C295.492 408.074 296.359 406.178 297.334 404.48C293.343 406.412 289.353 408.688 285.489 411.504C269.311 423.295 245.026 453.141 225.922 488.423C193.566 548.134 176.016 623.391 237.605 652.84C295.456 680.484 348.739 625.522 378.694 563.301L378.712 563.283Z" fill="#0E141B"/>
<path d="M305.748 446.768C300.945 447.743 292.079 453.593 289.66 458.378L290.671 460.237C294.896 455.344 302.01 451.191 307.445 449.62L305.73 446.768H305.748Z" fill="#0E141B"/>
<path d="M368.673 477.355C371.327 482.158 373.367 491.655 372.88 495.808L375.426 495.393C375.624 490.211 374.776 481.977 372.158 476.633L368.655 477.355H368.673Z" fill="#0E141B"/>
</g>
<defs>
<clipPath id="clip0_42_62126">
<rect width="720" height="688.637" fill="white" transform="translate(40 56)"/>
</clipPath>
</defs>
</svg>
