<svg width="800" height="800" viewBox="0 0 800 800" fill="none" xmlns="http://www.w3.org/2000/svg">
<g clip-path="url(#clip0_42_62180)">
<path d="M282.733 445.224C266.174 425.621 252.372 400.814 242.313 379.812C233.654 361.732 211.068 351.735 205.473 343.877C277.816 338.035 328.356 372.798 357.668 418.565C357.153 385.654 358.182 366.113 361.267 341.429C353.04 346.057 345.326 348.114 331.441 351.714C343.783 331.145 357.03 310.616 369.845 300.722C384.141 289.676 391.608 293.646 401.378 305.947C419.377 328.573 438.404 356.857 446.631 408.281C471.829 360.456 546.394 328.573 579.984 331.659C574.348 338.611 559.065 345.708 552.565 360.806C546.044 375.883 527.079 427.595 512.804 453.02C565.606 421.815 623.468 412.97 657.244 423.605C633.63 431.195 609.584 449.605 594.26 480.747C566.017 538.157 540.655 554.983 452.638 565.145L357.441 565.021C302.747 560.763 266.956 542.559 235.772 495.681C220.078 472.088 183.422 448.206 142.592 438.23C183.69 423.461 236.41 427.863 282.733 445.224Z" fill="#00A73C"/>
<path d="M580.622 478.299C533.888 554.16 441.921 553.46 444.924 516.785C448.688 497.243 451.445 487.637 451.095 469.824C445.027 510.655 431.369 523.511 412.815 526.349C396.133 528.921 378.134 516.373 367.233 489.057C371.696 507.981 376.345 521.248 376.345 521.248C384.573 563.766 286.415 548.667 249.718 494.549C229.581 464.846 200.084 452.216 170.484 447.28C197.389 459.663 224.479 479.101 237.15 497.511C262.924 534.906 294.457 565.473 363.653 566.501C363.653 566.501 449.367 564.095 454.818 564.156C539.4 556.381 566.84 534.947 593.066 483.709C602.714 464.846 617.153 445.902 631.038 434.773C618.902 440.142 598.168 449.789 580.601 478.299H580.622Z" fill="#009334"/>
<path d="M409.606 714.767C464.63 714.767 512.577 694.197 513.77 646.538C514.593 613.853 497.479 585.343 469.587 569.525C457.327 562.572 454.694 561.421 442.394 557.821C378.71 539.226 304.619 577.465 305.812 641.745C306.614 685.414 339.649 714.767 409.606 714.767Z" fill="#4B92AD"/>
<path d="M400.597 616.506C399.65 623.973 403.353 630.452 409.544 630.349C415.119 630.246 419.911 624.754 418.862 616.568C412.959 616.773 406.212 616.712 400.597 616.506Z" fill="#EE869A"/>
<path d="M373.054 587.791C376.839 587.771 380.479 590.856 380.479 595.587C380.479 600.318 377.106 603.301 373.136 603.383C369.207 603.445 365.731 600.195 365.608 595.628C365.505 591.535 368.796 587.832 373.054 587.812V587.791Z" fill="#EA545E"/>
<path d="M373.115 589.047C374.74 589.047 376.304 590.281 376.304 592.173C376.304 594.066 374.864 595.279 373.157 595.3C371.47 595.321 369.989 594.025 369.927 592.194C369.886 590.548 371.305 589.067 373.115 589.047Z" fill="white"/>
<path d="M447.146 589.067C450.93 589.046 454.571 592.131 454.571 596.862C454.571 601.593 451.198 604.597 447.228 604.658C443.299 604.72 439.823 601.47 439.699 596.904C439.597 592.81 442.888 589.108 447.146 589.087V589.067Z" fill="#EA545E"/>
<path d="M447.145 590.32C448.77 590.32 450.334 591.554 450.334 593.447C450.334 595.339 448.894 596.553 447.187 596.573C445.5 596.594 444.019 595.298 443.957 593.467C443.916 591.822 445.335 590.341 447.145 590.32Z" fill="white"/>
<path d="M365.772 319.009C356.536 326.99 342.796 341.039 334.506 350.707C342.323 348.958 354.85 345.276 361.555 342.191C363.16 332.503 364.559 326.085 365.772 318.988V319.009Z" fill="#009334"/>
<path d="M316.508 461C291.907 440.739 278.454 425.085 262.348 393.161C251.446 371.543 233.119 361.114 220.263 354.449C228.532 360.826 241.285 373.538 245.029 384.933C250.171 400.587 271.275 432.017 283.144 445.47C298.078 451.373 305.051 454.664 316.508 461Z" fill="#009334"/>
<path d="M560.484 349.574C546.888 357.843 535.903 371.481 531.995 382.383C527.408 395.156 501.778 450.818 480.221 478.032C487.688 471.141 506.88 455.981 512.721 452.957C524.343 431.38 547.505 370.411 551.907 363.623C553.1 361.772 558.365 352.125 560.484 349.574Z" fill="#009334"/>
<path d="M409.606 714.768C464.63 714.768 512.578 694.199 513.771 646.539C482.135 699.732 338.929 701.46 305.812 641.746C306.532 680.911 339.011 714.768 409.606 714.768Z" fill="#38748A"/>
<path d="M457.986 561.607C447.475 556.855 440.81 558.809 451.424 563.17C494.97 581.066 511.282 614.738 510.541 644.358C509.41 689.138 463.601 712.773 409.606 712.773C346.766 712.773 310.584 682.865 308.671 644.358C307.21 615.047 323.707 579.132 367.788 562.388C375.152 559.591 369.742 557.781 362.358 560.496C319.161 576.273 300.772 612.599 302.706 644.523C305.524 691.134 351.517 717.71 409.626 717.71C474.03 717.71 515.149 688.233 516.835 644.523C518.111 611.55 498.487 579.914 458.006 561.627L457.986 561.607Z" fill="#0E141B"/>
<path d="M417.793 614.82C412.095 614.759 407.446 614.82 401.543 614.82C398.087 614.82 398.211 616.013 398.252 620.374C398.313 626.483 403.415 632.654 409.586 632.778C415.016 632.901 420.59 627.347 421.105 620.045C421.392 616.034 420.734 614.841 417.793 614.82ZM409.524 629.445C405.636 629.466 401.317 624.838 401.399 617.721C406.891 617.7 412.383 617.577 417.978 617.7C417.813 625.167 413.453 629.425 409.524 629.445Z" fill="#0E141B"/>
<path d="M372.91 605.233C367.664 605.295 363.119 601.428 362.975 595.874C362.872 591.801 366.903 586.412 372.725 586.371C377.97 586.371 382.475 590.711 382.475 595.792C382.475 601.264 377.826 605.172 372.91 605.233ZM373.157 602.107C376.859 602.086 379.142 598.651 379.142 595.607C379.142 591.945 376.098 589.127 373.157 589.127C369.248 589.148 366.492 592.233 366.574 595.607C366.677 599.453 369.845 602.127 373.157 602.107Z" fill="#0E141B"/>
<path d="M447.598 606.694C443.134 606.756 437.827 603.547 437.663 597.15C437.581 593.097 441.592 587.688 447.413 587.646C452.658 587.646 457.163 591.987 457.163 597.067C457.163 603.629 451.691 606.653 447.598 606.694ZM447.248 603.279C450.437 603.259 453.522 600.585 453.522 596.903C453.522 593.221 450.169 590.423 447.248 590.423C443.998 590.444 440.872 593.18 440.954 596.903C441.036 600.153 443.875 603.321 447.248 603.279Z" fill="#0E141B"/>
<path d="M144.011 435.719C138.601 437.632 138.745 438.99 143.929 440.491C183.628 451.969 217.445 472.456 233.674 497.037C269.733 551.629 310.954 563.292 351.847 567.077L358.861 562.613C302.13 558.17 267.388 538.279 237.994 494.116C221.908 469.926 186.816 448.781 150.388 438.002C224.418 415.602 333.807 453.574 373.774 514.912C373.157 511.271 372.437 507.754 372.169 504.093C326.135 443.556 217.177 409.966 144.011 435.719Z" fill="#0E141B"/>
<path d="M208.332 444.38C198.809 443.063 198.644 445.511 208.106 447.26C262.389 457.297 337.139 499.177 371.12 552.514C374.453 557.739 376.941 556.464 373.712 550.889C339.628 492.286 261.464 451.744 208.332 444.38Z" fill="#0E141B"/>
<path d="M447.269 415.664C463.396 369.197 537.323 333.509 575.027 333.674C567.066 338.631 556.658 348.011 549.377 361.237C538.187 381.539 523.13 435.596 506.962 455.055L515.889 452.34C528.642 434.691 545.283 380.737 552.832 366.297C559.929 352.7 567.252 344.658 583.049 333.242C586.71 330.609 581.177 329.457 577.557 329.436C537.816 329.272 465.494 360.023 446.24 406.572L447.269 415.685V415.664Z" fill="#0E141B"/>
<path d="M449.717 494.672C465.802 438.085 495.32 391.31 519.098 368.354C525.31 362.348 523.253 360.682 516.774 366.4C493.592 386.846 463.087 432.449 450.231 480.274L449.717 494.672Z" fill="#0E141B"/>
<path d="M440.79 532.706C467.962 478.217 515.416 450.468 555.362 435.926C591.092 422.905 625.71 418.75 650.682 423.872C625.237 433.169 605.614 452.217 592.182 479.513C563.981 536.861 535.78 552.905 452.597 562.861L460.475 566.502C541.169 557.266 568.486 539.576 596.79 482.022C610.551 454.048 629.413 436.049 655.578 426.608C661.172 424.592 661.831 422.658 655.331 420.766C629.722 413.258 591.03 416.94 553.1 430.763C481.044 457.03 446.467 505.533 433.138 537.684C426.699 553.234 431.616 551.095 440.769 532.726L440.79 532.706Z" fill="#0E141B"/>
<path d="M467.551 536.183C509.019 493.747 557.543 458.985 601.418 440.431C608.987 437.222 608.103 434.959 600.389 437.798C556.638 453.863 508.464 488.296 466.872 530.361C456.793 540.543 450.293 553.852 467.551 536.183Z" fill="#0E141B"/>
<path d="M206.46 341.676C201.915 341.984 201.688 342.992 204.383 346.304C210.76 354.141 231.802 363.027 240.195 380.778C252.907 407.704 264.323 428.274 278.043 443.783L288.389 447.321C274.093 430.804 257.658 406.367 244.617 378.619C236.533 361.402 215.285 351.261 210.101 345.646C271.563 341.943 316.549 365.927 358.223 424.242V415.356C316.076 358.502 269.979 337.5 206.44 341.676H206.46Z" fill="#0E141B"/>
<path d="M260.908 365.105C253.524 362.678 252.824 364.94 260.024 367.8C297.214 382.548 352.71 459.561 369.166 504.546L370.339 505.966C369.968 500.741 369.187 495.516 368.241 490.292C345.82 439.649 294.354 376.11 260.888 365.105H260.908Z" fill="#0E141B"/>
<path d="M382.865 534.784C357.647 468.035 357.277 380.244 366.492 324.151C367.767 316.437 365.69 315.903 363.777 323.493C349.604 379.997 352.525 468.55 376.612 532.007C385.313 554.922 392.286 559.797 382.845 534.784H382.865Z" fill="#0E141B"/>
<path d="M413.987 526.761C420.57 454.397 407.714 372.489 391.032 325.919C388.399 318.576 385.869 319.296 388.131 326.742C402.962 375.451 414.81 458.285 408.886 531.842C407.426 550.128 412.177 546.693 413.987 526.761Z" fill="#0E141B"/>
<path d="M362.543 338.797C352.669 343.096 345.017 345.976 336.358 348.609C346.786 330.384 358.922 316.026 368.035 305.865C378.566 294.14 386.239 293.852 396.544 305.227C443.052 356.59 461.483 456.208 438.136 529.889C438.815 531.267 442.085 524.582 443.793 523.471C467.18 453.02 448.195 355.129 400.021 301.936C387.967 288.607 377.188 288.484 364.373 302.759C354.788 313.455 342.138 328.903 331.071 349.226C328.253 354.409 329.097 355.047 334.856 353.422C344.791 350.624 351.229 348.588 361.453 344.515L362.543 338.797Z" fill="#0E141B"/>
<path d="M294.971 637.774C282.115 647.236 283.823 671.55 305.009 700.1C327.081 729.865 349.502 730.584 361.185 721.904C368.714 716.33 373.877 694.444 353.04 665.687C333.108 638.165 309.082 627.366 294.971 637.795V637.774Z" fill="#4B92AD"/>
<path d="M466.172 665.667C445.335 694.423 450.478 716.33 458.027 721.884C469.731 730.564 492.131 729.865 514.202 700.08C535.389 671.509 537.117 647.216 524.24 637.754C510.13 627.325 486.104 638.124 466.172 665.646V665.667Z" fill="#4B92AD"/>
<path d="M349.913 725.402C358.614 722.872 356.392 704.113 341.891 687.451C330.392 674.225 313.155 666.347 305.483 672.333C297.152 678.812 300.258 703.969 327.862 720.795C337.736 726.39 344.195 727.068 349.892 725.402H349.913Z" fill="#38748A"/>
<path d="M469.299 725.402C460.598 722.872 462.82 704.113 477.321 687.451C488.82 674.225 506.057 666.347 513.729 672.333C522.06 678.812 518.954 703.969 491.35 720.795C481.476 726.39 475.017 727.068 469.32 725.402H469.299Z" fill="#38748A"/>
<path d="M302.541 701.973C281.992 674.081 280.449 645.612 293.511 635.924C305.915 626.75 332.223 633.229 354.706 664.084C374.165 690.804 373.486 714.994 361.679 723.777C348.453 733.548 321.486 727.685 302.541 701.973ZM296.391 639.873C286.003 647.587 288.472 673.093 307.149 698.456C325.805 723.777 349.461 727.438 359.046 720.26C369.578 712.423 365.32 688.459 350.18 667.437C328.233 636.973 306.1 632.654 296.411 639.873H296.391Z" fill="#0E141B"/>
<path d="M457.533 723.778C445.726 714.994 445.047 690.804 464.506 664.084C486.989 633.251 513.297 626.751 525.701 635.925C538.763 645.613 537.22 674.061 516.671 701.974C497.726 727.686 470.78 733.548 457.533 723.778ZM469.052 667.437C453.913 688.459 449.655 712.423 460.187 720.26C469.772 727.418 493.427 723.778 512.084 698.456C530.761 673.094 533.229 647.567 522.842 639.874C513.153 632.654 491 636.974 469.073 667.437H469.052Z" fill="#0E141B"/>
</g>
<defs>
<clipPath id="clip0_42_62180">
<rect width="520" height="436.241" fill="white" transform="translate(140 292)"/>
</clipPath>
</defs>
</svg>
