<svg width="800" height="800" viewBox="0 0 800 800" fill="none" xmlns="http://www.w3.org/2000/svg">
<g clip-path="url(#clip0_42_62217)">
<path d="M311.446 272.952C315.375 318.42 356.259 352.218 401.965 348.269C447.671 344.32 482.164 304.111 478.234 258.643C474.325 213.155 432.925 180.369 387.219 184.318C341.513 188.268 307.516 227.464 311.446 272.932V272.952Z" fill="#061922"/>
<path d="M317.737 271.92C314.085 229.707 345.641 192.395 388.072 188.724C430.504 185.052 467.993 216.41 471.625 258.623C475.277 300.836 443.721 338.147 401.29 341.819C358.858 345.49 321.369 314.133 317.737 271.92Z" fill="#CA6D47"/>
<path d="M471.645 258.623C470.137 241.179 462.834 225.599 451.819 213.572C448.048 267.435 389.382 301.789 340.243 312.129C338.278 312.447 336.273 312.784 334.229 313.102C349.809 332.531 374.557 344.122 401.29 341.819C443.722 338.148 475.277 300.837 471.626 258.623H471.645Z" fill="#A25637"/>
<path d="M371.064 216.032C370.151 215.457 370.211 214.087 371.223 211.984C372.969 208.332 376.8 206.367 379.36 206.645C380.789 206.804 381.702 207.637 382.039 209.126C382.436 210.813 381.801 212.48 379.935 214.703C379.082 215.735 373.247 217.422 371.084 216.013L371.064 216.032Z" fill="#F0DCDA"/>
<path d="M410.34 221.728C407.065 217.263 407.462 212.142 411.471 207.657C413.674 205.176 416.115 204.422 418.953 205.355C436.219 211.031 437.549 224.487 433.004 226.531C423.677 230.758 414.349 227.206 410.34 221.728Z" fill="#F0DCDA"/>
<path d="M252.125 556.239C248.791 557.589 244.345 561.439 239.006 565.408C228.805 573.049 212.492 584.024 195.166 588.986C188.458 590.911 185.699 595.158 186.255 601.449C186.334 602.263 186.453 603.077 186.672 603.91C189.51 615.084 202.886 626.436 223.923 621.713C254.407 614.885 266.097 595.654 271.832 585.037L273.559 581.901C277.25 575.51 275.643 565.27 271.157 560.09C268.458 556.974 264.628 551.218 252.125 556.239Z" fill="#061922"/>
<path d="M193.558 603.592C192.427 599.166 192.03 595.713 196.714 594.383C215.012 589.144 229.46 578.327 239.999 570.448C244.801 566.856 248.949 563.76 251.609 562.689C258.495 559.93 263.933 560.307 266.93 563.76C269.887 567.174 270.225 573.267 267.704 577.613L265.898 580.908C260.222 591.426 253.038 609.109 225.015 615.381C206.319 619.588 195.444 610.975 193.558 603.592Z" fill="#4E8EB9"/>
<path d="M266.95 563.761C263.953 560.307 258.515 559.91 251.629 562.689C248.969 563.741 244.821 566.857 240.018 570.449C236.029 573.426 231.485 576.839 226.384 580.193C237.042 584.857 245.04 593.034 251.152 602.441C258.932 595.237 262.683 586.921 265.918 580.928L267.724 577.633C270.244 573.287 269.907 567.194 266.95 563.78V563.761Z" fill="#3E7397"/>
<path d="M510.048 552.249C503.439 558.977 502.308 575.648 507.885 582.336L508.758 584.956C516.22 594.423 532.177 613.912 563.395 615.4C584.412 616.413 596.697 606.192 598.087 595.177C599.039 587.516 595.427 581.543 587.449 580.173C547.062 573.227 531.899 558.878 525.171 553.48C517.232 547.089 512.291 549.967 510.068 552.249H510.048Z" fill="#061922"/>
<path d="M562.522 609.426C533.844 608.037 518.78 589.976 511.378 580.589L510.068 577.096C506.198 572.472 509.572 560.683 514.017 556.158C514.613 555.543 516.478 553.658 521.658 557.825C528.684 563.482 547.081 576.421 584.789 584.082C589.85 585.114 592.371 589.818 591.775 594.561C590.922 601.408 582.209 610.378 562.502 609.426H562.522Z" fill="#4E8EB9"/>
<path d="M548.748 573.306C534.4 567.332 525.945 561.239 521.678 557.825C516.498 553.658 514.633 555.543 514.037 556.158C509.592 560.683 506.218 572.472 510.088 577.096L511.398 580.589C513.184 582.852 515.407 585.61 518.165 588.528C526.044 580.708 537.079 575.747 548.748 573.325V573.306Z" fill="#3E7397"/>
<path d="M314.68 608.911C311.743 610.201 311.108 612.226 310.989 613.317C310.691 616.215 310.791 620.085 310.91 624.53C311.148 633.759 311.525 647.711 306.861 649.894C303.904 651.283 241.428 662.298 225.392 673.491C195.086 694.687 225.114 719.932 249.783 716.042C299.895 708.143 335.797 689.408 342.803 679.267C351.535 666.605 344.113 657.416 340.639 653.526C337.702 650.212 338.02 637.153 340.123 619.688C340.501 616.552 339.151 613.655 336.293 611.551C330.597 607.343 319.821 606.669 314.661 608.931L314.68 608.911Z" fill="#061922"/>
<path d="M331.312 615.043C333.693 616.154 334.785 617.484 334.606 619.032C332.225 638.898 332.681 651.521 335.995 656.581C339.191 661.464 343.696 667.914 336.253 677.976C331.47 684.446 290.666 703.855 249.287 709.015C221.323 712.489 212.194 690.558 228.746 677.976C243.511 666.763 305.73 656.601 309.243 654.954C317.181 651.223 316.804 636.973 316.467 624.41C316.367 620.481 316.288 616.829 316.506 614.289C317.915 613.098 325.735 612.443 331.292 615.043H331.312Z" fill="#4E8EB9"/>
<path d="M334.606 619.013C334.785 617.484 333.673 616.135 331.312 615.023C325.755 612.424 317.935 613.078 316.526 614.269C316.288 616.81 316.387 620.461 316.486 624.391C316.744 634.334 317.022 645.309 313.192 651.303C323.135 654.319 332.165 659.837 340.282 666.961C340.104 662.714 337.841 659.38 335.995 656.562C332.681 651.501 332.225 638.879 334.606 619.013Z" fill="#3E7397"/>
<path d="M440.963 618.518C438.204 620.741 436.974 623.678 437.49 626.794C438.323 631.974 442.015 637.293 445.904 642.949C449.894 648.744 454.041 654.737 454.2 659.659C454.2 659.659 454.121 677.481 459.916 685.479C470.712 700.384 522.392 714.773 547.776 716.718C592.172 720.131 590.545 683.991 570.004 673.77C541.663 659.679 492.444 653.825 489.11 652.415C481.251 649.101 467.656 628.104 466.366 619.232C466.207 618.141 465.493 616.156 462.496 614.985C457.257 612.941 446.52 614.052 441.002 618.498L440.963 618.518Z" fill="#061922"/>
<path d="M551.269 709.869C508.917 708.718 469.958 688.515 464.739 682.343C457.753 674.047 459.757 659.48 459.757 659.48C459.539 652.93 454.935 646.242 450.469 639.792C447.095 634.91 443.622 629.869 442.967 625.919C442.729 624.391 443.781 623.022 446.103 621.811C451.581 618.953 459.539 619.311 460.908 620.462C462.754 631.337 477.321 653.545 486.907 657.574C490.718 659.182 536.821 663.111 565.677 677.54C576.732 683.077 589.81 710.921 551.249 709.869H551.269Z" fill="#4E8EB9"/>
<path d="M476.488 648.702C469.145 640.109 462.179 627.745 460.928 620.441C459.559 619.31 451.581 618.953 446.123 621.791C443.801 623.001 442.749 624.371 442.987 625.899C443.622 629.828 447.115 634.889 450.489 639.771C454.954 646.241 459.559 652.91 459.777 659.459C459.777 659.459 459.658 660.312 459.579 661.702C464.163 655.966 469.899 651.52 476.508 648.702H476.488Z" fill="#3E7397"/>
<path d="M238.867 515.614C227.615 612.008 299.359 650.668 395.654 646.064C484.923 641.797 544.581 599.068 528.128 490.786C517.014 417.732 453.565 349.182 371.342 356.287C290.468 363.273 248.275 434.978 238.867 515.614Z" fill="#061922"/>
<path d="M244.901 512.994C253.355 436.963 294.973 369.406 371.203 362.817C447.413 356.228 507.428 412.532 521.36 489.119C540.85 596.23 470.097 637.55 394.046 640.309C287.987 644.139 235.831 594.523 244.901 513.014V512.994Z" fill="#4E8EB9"/>
<path d="M453.724 450.398C443.523 450.398 434.711 473.757 389.601 475.365C354.076 476.635 334.229 460.916 326.489 456.53C312.061 448.354 264.291 475.126 248.314 491.103C261.79 424.399 302.396 368.77 371.203 362.836C439.673 356.922 495.084 401.754 515.724 466.473C515.843 466.811 479.802 450.418 453.724 450.418V450.398Z" fill="#3E7397"/>
<path d="M306.742 539.768C303.725 546.199 305.214 552.708 312.101 558.761C335.083 578.925 422.089 578.112 448.346 568.367C462.992 562.929 466.525 554.395 464.957 547.429C463.111 539.173 454.359 535.144 444.595 536.136C413.952 539.272 379.935 541.277 341.255 533.04L329.208 530.957C319.722 529.448 310.275 532.247 306.742 539.749V539.768Z" fill="#061922"/>
<path d="M315.772 555.584C312.259 552.508 308.588 547.725 311.049 542.506C313.53 537.207 321.29 533.833 328.315 534.944L340.263 537.008C352.865 539.271 367.135 541.831 379.479 542.228C406.669 543.141 434.394 541.096 445.071 540.164C453.049 539.469 458.487 544.113 459.539 548.817C460.869 554.751 455.828 560.625 446.381 564.138C421.732 573.287 337.067 574.26 315.752 555.564L315.772 555.584Z" fill="#A7A3CB"/>
<path d="M265.859 498.408C259.766 498.328 257.9 501.365 264.569 502.814C296.541 509.76 333.912 486.063 345.998 469.968C350.047 464.57 347.209 460.66 341.731 466.376C323.234 485.746 296.541 498.824 265.859 498.408Z" fill="#061922"/>
<path d="M491.769 503.071C497.862 502.992 499.728 506.028 493.059 507.477C461.067 514.423 425.959 498.407 411.63 474.631C408.137 468.836 410.796 464.986 415.897 471.039C436.974 496.065 461.087 503.488 491.769 503.071Z" fill="#061922"/>
<path d="M323.592 548.618C360.248 563.543 417.524 559.613 441.34 553.52C446.282 552.25 451.898 547.884 439.931 550.146C400.238 557.648 345.859 552.766 325.378 545.582C319.106 543.379 319.305 546.872 323.611 548.618H323.592Z" fill="#061922"/>
<path d="M635.933 477.905C646.154 437.914 631.15 397.289 596.439 369.504C565.538 344.755 524.754 342.414 503.022 353.488L503.082 347.117L502.744 347.474C494.607 356.247 468.45 385.738 473.65 397.07C474.642 399.234 474.483 404.076 480.556 403.858C551.904 401.099 611.403 436.604 630.734 476.892C632.242 480.842 634.703 482.43 635.953 477.885L635.933 477.905Z" fill="#061922"/>
<path d="M593.919 375.617C608.883 387.604 630.535 410.487 633.433 444.167C634.108 451.926 633.73 460.302 632.103 469.232C609.161 429.798 552.698 393.3 482.958 395.999C481.608 396.059 479.266 395.96 478.711 394.789C478.572 394.491 478.492 394.134 478.453 393.757C477.877 387.088 491.948 367.441 506.436 351.762C526.163 342.057 565.261 352.695 593.919 375.637V375.617Z" fill="#F58220"/>
<path d="M593.919 375.618C565.241 352.675 526.163 342.038 506.436 351.742C491.948 367.441 477.877 387.069 478.453 393.737C478.492 394.134 478.572 394.472 478.711 394.769C479.246 395.94 481.608 396.039 482.958 395.98C526.58 394.293 565.003 407.947 593.264 428.032C604.596 424.717 616.464 422.415 628.352 421.522C620.394 400.009 605.251 384.687 593.919 375.618Z" fill="#CA6C18"/>
<path d="M649.21 254.455C666.596 273.15 673.879 307.544 660.94 328.899C641.907 360.316 589.949 370.695 559.743 366.131C546.029 364.047 537.218 359.105 535.59 352.576L534.499 348.15L531.065 351.167C529.458 352.556 491.928 385.62 492.424 405.804C492.524 410.13 494.25 413.663 497.545 416.282L497.684 416.401L497.842 416.501C574.231 461.77 664.83 434.64 697.675 379.309C729.826 325.148 693.369 270.769 652.862 250.446C640.835 244.413 642.086 246.834 649.191 254.475L649.21 254.455Z" fill="#061922"/>
<path d="M665.703 331.776C670.585 323.719 674.376 312.704 673.145 298.554C672.153 287.142 667.826 273.646 658.28 258.027C689.141 279.62 702.478 304.17 704.483 327.331C705.971 344.657 701.228 361.189 692.972 375.101C661.079 428.805 576.355 456.332 500.938 411.777C499.192 410.348 498.219 408.562 498.021 406.28C498.001 406.061 497.981 405.843 497.981 405.625C497.664 392.169 520.249 368.611 531.899 357.914C535.848 364.741 545.176 369.544 558.91 371.628C590.644 376.431 645.42 365.257 665.703 331.776Z" fill="#F58220"/>
<path d="M558.91 371.628C545.196 369.544 535.848 364.721 531.899 357.914C520.249 368.611 497.664 392.189 497.981 405.625C497.981 405.843 497.981 406.061 498.021 406.28C498.219 408.562 499.192 410.368 500.938 411.777C528.386 427.992 557.044 434.62 583.956 433.945C586.02 411.698 590.823 390.025 599.654 370.239C584.888 372.977 570.381 373.335 558.91 371.608V371.628Z" fill="#CA6C18"/>
<path d="M240.654 555.306C234.859 521.131 243.789 434.997 329.804 414.774C350.801 409.832 360.565 403.918 360.546 396.138C360.546 377.939 299.26 364.404 286.658 361.467L285.129 361.348L284.097 361.427C252.125 366.309 208.622 401.795 195.603 448.592C187.604 477.31 188.716 517.618 236.823 557.648C242.142 562.53 241.626 560.109 240.654 555.326V555.306Z" fill="#061922"/>
<path d="M198.222 482.629C197.15 470.285 198.818 458.933 201.497 449.248C213.682 405.407 254.864 369.823 284.455 365C313.609 371.867 354.076 385.759 354.949 395.821C354.949 395.921 354.949 396.04 354.949 396.139C354.949 398.243 352.369 403.74 328.494 409.357C246.012 428.746 231.227 509.997 234.521 548.241C234.581 548.817 234.68 549.234 234.739 549.789C209.654 526.847 199.988 503.369 198.202 482.629H198.222Z" fill="#F58220"/>
<path d="M354.949 395.821C354.075 385.779 313.609 371.867 284.454 365C267.486 367.759 246.727 380.659 229.798 399.394C249.604 404.693 269.351 415.132 283.919 429.64C295.945 420.689 310.632 413.564 328.513 409.357C352.389 403.74 354.969 398.243 354.969 396.139C354.969 396.04 354.969 395.921 354.969 395.821H354.949Z" fill="#CA6C18"/>
<path d="M571.433 556.239C602.075 520 604.338 457.722 579.212 414.159C557.659 376.769 523.96 361.328 492.147 367.024L490.539 362.559L490.043 362.916C482.204 368.334 443.225 396.039 446.559 410.011C447.492 413.941 451.065 414.834 457.157 415.667C544.283 427.555 568.297 518.849 567.027 554.354C566.868 558.72 568.099 559.573 571.433 556.259V556.239Z" fill="#061922"/>
<path d="M574.172 417.414C583.023 432.755 589.949 452.264 591.755 473.063C593.839 497.276 588.838 523.175 571.949 546.336C571.869 544.768 571.81 543.22 571.671 541.493C568.198 501.285 542.933 422.256 456.78 410.488C454.776 410.21 452.434 410.626 451.977 408.701C451.938 408.543 451.918 408.384 451.898 408.205C451.223 400.326 474.92 380.182 492.682 367.838C522.015 362.916 553.948 382.266 574.172 417.374V417.414Z" fill="#F58220"/>
<path d="M492.682 367.858C474.92 380.202 451.223 400.347 451.898 408.226C451.898 408.384 451.938 408.563 451.977 408.722C452.434 410.647 454.776 410.23 456.78 410.508C477.599 413.346 494.846 420.153 509.115 429.362C526.957 418.228 545.156 406.539 564.804 403.383C544.839 377.305 517.828 363.651 492.682 367.878V367.858Z" fill="#CA6C18"/>
<path d="M176.609 509.203C173.97 532.939 162.757 544.668 145.193 544.847C122.032 545.105 99.1293 519.126 96.7676 455.975L100.181 457.761C103.079 487.411 120.246 513.271 138.504 519.046C149.678 522.599 162.161 521.13 172.72 505.809C176.252 500.927 176.729 503.03 176.609 509.183V509.203Z" fill="#061922"/>
<path d="M146.066 540.302C130.903 540.461 112.387 527.759 106.929 491.996C114.748 508.012 126.041 520.198 138.405 524.088C146.522 526.668 158.45 526.648 171.37 514.978C168.81 530.438 158.589 540.143 146.086 540.282L146.066 540.302Z" fill="#CA6C18"/>
<path d="M97.3034 392.645C78.6478 448.374 98.8117 520.615 122.945 534.825L124.275 532.84L119.65 526.43C102.96 481.061 112.446 438.431 143.962 411.896C179.289 382.147 239.264 370.775 274.154 390.899L282.43 391.613L279.791 384.409C277.092 377.046 252.74 320.008 228.19 315.622C140.826 305.619 108.457 359.363 97.3034 392.645Z" fill="#061922"/>
<path d="M95.5171 462.385C93.6516 440.693 95.6957 416.103 103.257 393.478C113.855 361.803 144.101 310.064 227.396 319.61C243.511 322.488 263.04 363.451 271.951 385.639C234.104 368.531 175.815 377.8 140.39 407.629C115.76 428.368 104.527 456.51 107.326 488.959C108.06 497.414 109.767 506.146 112.406 515.116C103.734 504.3 97.4621 484.97 95.5171 462.365V462.385Z" fill="#F58220"/>
<path d="M271.951 385.66C263.06 363.472 243.531 322.509 227.396 319.631C217.056 318.44 207.53 318.202 198.758 318.758C212.095 335.111 219.577 356.724 219.16 377.503C238.193 376.233 256.729 378.773 271.951 385.66Z" fill="#CA6C18"/>
<path d="M214.556 326.637C218.823 376.075 262.524 409.794 311.962 405.527C361.399 401.26 398.154 367.183 393.887 317.746C389.62 268.309 345.919 227.505 296.481 231.772C247.044 236.039 210.289 277.22 214.556 326.657V326.637Z" fill="#061922"/>
<path d="M220.787 325.426C216.897 280.276 250.438 240.385 295.588 236.475C340.739 232.585 380.63 266.125 384.54 311.276C388.43 356.426 354.889 396.317 309.739 400.207C264.588 404.117 224.697 370.557 220.787 325.406V325.426Z" fill="#CA6D47"/>
<path d="M243.353 375.141C259.984 392.487 283.998 402.449 309.759 400.227C339.191 397.686 363.701 379.825 376.105 355.195C342.287 386.533 286.519 393.181 243.353 375.161V375.141Z" fill="#A25637"/>
<path d="M394.8 330.965C398.909 378.517 440.923 412.335 488.475 408.227C536.027 404.118 571.373 363.612 567.265 316.06C563.157 268.508 521.122 233.678 473.59 237.786C426.039 241.894 390.692 283.413 394.8 330.965Z" fill="#061922"/>
<path d="M400.04 330.051C396.229 285.813 429.095 246.716 473.352 242.885C517.59 239.055 556.687 271.94 560.517 316.178C564.348 360.416 531.462 399.513 487.225 403.343C442.987 407.154 403.89 374.288 400.06 330.051H400.04Z" fill="#CA6D47"/>
<path d="M543.648 328.841C506.575 363.255 461.98 380.045 414.607 369.685C430.623 392.171 457.753 405.884 487.185 403.344C527.592 399.851 558.493 366.946 560.656 327.571C553.988 325.15 547.161 325.328 543.648 328.841Z" fill="#A25637"/>
<path d="M352.25 257.908C344.728 265.033 340.441 274.202 340.183 283.728C339.925 293.254 345.224 302.642 352.349 310.163C361.558 319.888 375.391 325.703 390.255 326.1C417.643 326.834 440.427 309.032 441.042 286.407C441.3 276.881 437.529 267.494 430.405 259.972C421.196 250.247 407.383 244.432 392.498 244.035C377.613 243.639 361.994 248.68 352.25 257.908Z" fill="#061922"/>
<path d="M389.243 318.578C375.827 318.22 363.423 313.04 355.227 304.368C349.035 297.838 345.899 290.078 346.117 281.921C346.335 273.764 349.908 266.183 356.437 259.991C365.11 251.795 377.752 247.289 391.168 247.647C404.584 248.004 416.988 253.184 425.185 261.857C431.377 268.386 434.533 276.166 434.314 284.303C433.778 303.852 413.555 319.232 389.243 318.578Z" fill="#F58220"/>
<path d="M425.185 261.857C423.974 260.587 422.645 259.416 421.275 258.285C430.98 295.358 396.983 314.252 366.519 312.783C373.227 316.296 381.047 318.34 389.243 318.559C413.555 319.213 433.779 303.833 434.314 284.284C434.533 276.127 431.377 268.367 425.185 261.838V261.857Z" fill="#CA6C18"/>
<path d="M291.441 369.524C295.807 420.092 342.029 456.669 392.597 452.303C443.186 447.937 480.259 404.255 475.893 353.666C471.526 303.098 427.845 265.489 377.256 269.875C326.688 274.241 287.054 318.935 291.421 369.524H291.441Z" fill="#061922"/>
<path d="M297.454 368.253C293.346 320.741 328.672 278.746 376.184 274.637C423.696 270.529 465.691 305.856 469.8 353.368C473.908 400.88 438.581 442.875 391.069 446.983C343.557 451.091 301.562 415.765 297.454 368.273V368.253Z" fill="#CA6D47"/>
<path d="M463.945 328.778C461.246 328.441 455.868 324.492 443.801 353.904C422.268 406.397 381.841 434.778 323.83 423.227C341.176 439.819 365.309 449.206 391.049 446.963C438.562 442.855 473.888 400.86 469.78 353.348C469.026 344.695 467.021 336.439 463.945 328.758V328.778Z" fill="#A25637"/>
<path d="M406.51 312.903C407.105 307.108 411.432 300.995 421.831 301.313C430.821 301.571 436.299 311.99 438.264 320.822C439.514 326.458 439.097 330.784 437.053 333.384C429.472 342.911 404.585 331.955 406.51 312.923V312.903Z" fill="#F0DCDA"/>
<path d="M316.407 270.709C316.884 272.972 315.792 275.83 313.252 278.965C309.262 283.887 302.554 288.69 296.859 286.031C290.25 282.974 289.436 277.794 290.885 273.984C295.608 261.481 314.303 260.647 316.407 270.709Z" fill="#F0DCDA"/>
<path d="M343.874 354.698C342.803 352.952 342.247 348.645 343.755 345.589C344.728 343.644 346.355 342.532 348.657 342.314C356.437 341.52 358.104 350.352 358.104 350.352C362.57 363.292 351.615 367.301 343.874 354.698Z" fill="#F0DCDA"/>
<path d="M241.646 305.639C240.574 303.892 240.019 299.586 241.527 296.549C242.499 294.604 244.147 293.493 246.429 293.274C254.209 292.481 254.824 295.894 255.399 299.209C256.848 310.858 248.195 316.336 241.646 305.659V305.639Z" fill="#F0DCDA"/>
<path d="M397.797 380.778C396.428 379.865 395.574 378.397 395.535 376.948C395.495 375.42 396.348 373.991 397.976 372.8C398.75 372.244 399.484 372.066 400.278 372.284C402.104 372.78 403.672 375.261 403.949 375.916C405.458 379.29 405.041 380.024 404.882 380.183C403.93 381.096 400.258 382.425 397.797 380.798V380.778Z" fill="#F0DCDA"/>
<path d="M460.492 292.401C459.122 291.488 458.269 290.02 458.229 288.571C458.189 287.043 459.043 285.614 460.67 284.423C461.444 283.867 462.179 283.689 462.953 283.907C464.778 284.403 466.346 286.884 466.624 287.539C468.132 290.913 467.716 291.647 467.557 291.806C466.604 292.719 462.933 294.068 460.472 292.421L460.492 292.401Z" fill="#F0DCDA"/>
<path d="M283.581 344.061C282.212 343.148 281.359 341.679 281.319 340.23C281.279 338.702 282.133 337.273 283.76 336.083C284.534 335.507 285.268 335.348 286.042 335.567C287.868 336.063 289.436 338.543 289.714 339.198C291.222 342.572 290.806 343.307 290.647 343.465C289.694 344.378 286.023 345.728 283.562 344.081L283.581 344.061Z" fill="#F0DCDA"/>
<path d="M360.287 302.801C359.335 302.166 358.72 301.134 358.7 300.122C358.68 299.05 359.275 298.058 360.406 297.224C360.942 296.827 361.478 296.708 362.014 296.867C363.284 297.204 364.396 298.951 364.594 299.407C365.646 301.769 365.368 302.285 365.249 302.384C364.574 303.019 362.014 303.952 360.287 302.821V302.801Z" fill="#F0DCDA"/>
<path d="M507.686 329.555C506.833 328.979 506.277 328.046 506.238 327.114C506.238 326.141 506.754 325.228 507.805 324.474C508.282 324.117 508.778 323.998 509.254 324.137C510.405 324.454 511.417 326.042 511.596 326.459C512.549 328.602 512.291 329.078 512.191 329.178C511.576 329.753 509.234 330.606 507.666 329.555H507.686Z" fill="#F0DCDA"/>
<path d="M355.663 234.073C354.929 233.597 354.472 232.783 354.453 232.009C354.453 231.176 354.889 230.421 355.782 229.766C356.199 229.469 356.596 229.369 357.013 229.489C358.005 229.766 358.859 231.096 358.997 231.453C359.811 233.279 359.593 233.656 359.494 233.756C358.978 234.252 356.993 234.966 355.663 234.093V234.073Z" fill="#F0DCDA"/>
<path d="M440.903 551.813C437.768 552.944 432.131 553.123 426.693 553.282C417.127 553.579 406.49 552.766 405.795 557.548C405.517 559.493 409.03 561.875 412.027 563.661C415.222 565.566 420.66 568.166 420.144 570.925C418.239 581.225 419.846 590.017 426.455 591.783C428.043 592.2 430.127 590.99 431.317 588.429C431.853 589.66 432.409 591.387 432.846 594.324C434.056 602.481 436.656 605.954 440.248 604.902C446.143 603.195 445.091 595.415 444.277 590.176C443.88 587.715 443.483 585.175 443.88 583.964C444.476 582.158 445.19 581.602 446.043 580.967C447.711 579.697 448.881 578.447 448.623 573.902L448.088 569.833C447.651 567.194 447.175 564.197 447.75 562.57C449.477 560.922 451.164 551.257 446.679 549.65C444.932 549.015 443.424 550.9 440.903 551.793V551.813Z" fill="#061922"/>
<path d="M445.607 551.158C446.381 551.535 447.254 554.155 447.016 556.338C446.837 557.946 445.488 560.268 445.091 561.756C444.654 562.967 444.614 564.495 444.773 566.162C444.892 567.492 445.111 568.921 445.349 570.31L445.845 574.081C446.043 577.494 445.944 578.209 444.892 579.002C443.94 579.717 442.094 580.491 441.241 583.111C440.923 584.123 440.883 585.353 441.002 586.762C441.102 587.933 441.3 589.243 441.518 590.613C441.757 592.18 441.975 593.629 442.094 594.919C442.392 598.472 441.975 600.913 439.613 601.627C437.172 600.953 436.597 595.455 435.743 592.657C434.076 587.318 433.262 584.956 431.377 584.877C429.849 584.837 429.214 586.485 428.995 587.04C428.34 588.747 427.566 588.529 427.308 588.469C425.522 587.973 422.327 584.659 421.831 578.883C421.652 576.78 422.406 574.021 422.883 571.441C422.982 570.945 423.002 570.469 422.962 569.992C422.625 566.102 418.001 563.344 414.527 561.28C413.198 560.486 409.725 558.402 409.328 557.846C410.062 555.544 420.362 555.286 426.753 555.088C432.409 554.909 437.847 553.599 441.419 552.329C441.419 552.329 444.793 550.761 445.627 551.178L445.607 551.158Z" fill="white"/>
<path d="M520.844 266.561C525.707 266.561 529.616 279.163 528.446 284.661C527.969 286.923 526.501 288.273 523.96 288.789C519.376 289.722 515.784 287.995 514.057 284.026C510.624 276.107 516.935 266.541 520.825 266.541L520.844 266.561Z" fill="#F0DCDA"/>
<path d="M323.592 548.618C360.248 563.543 417.524 559.613 441.34 553.52C446.282 552.25 451.898 547.884 439.931 550.146C400.238 557.648 345.859 552.766 325.378 545.582C319.106 543.379 319.305 546.872 323.611 548.618H323.592Z" fill="#061922"/>
</g>
<defs>
<clipPath id="clip0_42_62217">
<rect width="620" height="532.954" fill="white" transform="translate(90 184)"/>
</clipPath>
</defs>
</svg>
