<svg width="800" height="800" viewBox="0 0 800 800" fill="none" xmlns="http://www.w3.org/2000/svg">
<g clip-path="url(#clip0_42_62314)">
<path d="M371.125 671.134C356.18 645.716 365.308 582.107 349.597 597.217C326.87 619.076 335.729 648.365 341.608 669.251C344.154 678.275 342.663 679.911 333.97 678.71C255.934 659.998 229.17 674.322 228.963 692.765C228.652 720.026 303.894 720.067 360.299 711.622C367.606 710.525 391.12 705.164 371.125 671.134Z" fill="#0E141B"/>
<path d="M370.296 681.38C367.668 676.164 364.687 670.016 361.975 662.937C352.661 638.595 353.592 591.753 347.445 608.767C335.853 640.789 344.236 656.582 347.445 670.637C349.101 677.861 351.295 684.547 337.24 682.767C288.969 674.28 233.578 669.892 234.303 692.413C235.027 714.933 318.052 712.491 357.939 706.778C373.712 704.522 377.086 694.793 370.317 681.401L370.296 681.38Z" fill="#5893C0"/>
<path d="M364.811 669.871C363.838 667.677 362.886 665.359 361.976 662.958C355.165 645.136 353.841 615.308 351.212 607.215C350.901 606.594 350.612 605.993 350.322 605.414C349.556 604.627 348.625 605.559 347.465 608.788C335.874 640.809 344.257 656.603 347.465 670.658C347.734 671.796 348.004 672.935 348.231 674.011C351.274 670.803 359.367 667.863 364.853 669.892L364.811 669.871Z" fill="#467A9F"/>
<path d="M435.768 665.296C430.097 703.59 436.389 708.619 447.753 709.24C514.321 712.78 572.9 698.498 579.4 691.667C593.392 676.97 577.413 659.769 541.769 659.521C510.823 659.293 465.989 678.688 462.801 675.128C458.434 670.305 469.301 609.077 445.373 611.809C425.191 614.107 439.991 637.042 435.789 665.296H435.768Z" fill="#0E141B"/>
<path d="M441.791 656.769C438.79 691.212 436.368 700.631 442.64 702.907C457.833 708.393 541.127 700.568 567.684 692.165C580.083 688.232 592.109 667.657 544.418 665.214C514.446 663.683 459.344 687.59 457.978 679.538C456.985 673.68 458.93 618.91 449.698 617.834C431.732 615.764 444.068 630.792 441.812 656.769H441.791Z" fill="#5893C0"/>
<path d="M440.736 668.153C441.067 664.696 441.419 660.908 441.771 656.768C444.027 630.791 431.69 615.743 449.657 617.833C456.612 618.641 457.212 649.814 457.523 667.718C455.308 661.778 442.909 663.578 440.736 668.153Z" fill="#467A9F"/>
<path d="M499.853 548.265C521.09 544.56 538.477 547.747 550.069 502.603C558.659 469.153 595.959 490.1 593.765 514.753C589.315 564.948 552.139 573.166 522.353 578.817L499.832 548.265H499.853Z" fill="#0E141B"/>
<path d="M505.566 553.834C530.322 548.659 545.474 541.29 554.043 510.076C563.813 474.432 590.039 497.987 587.245 517.714C579.607 571.614 528.087 572.008 505.566 576.996V553.854V553.834Z" fill="#5893C0"/>
<path d="M279.055 537.812C254.34 524.564 262.93 567.143 216.44 514.339C190.649 485.05 162.891 518.5 176.635 543.38C193.215 573.414 248.068 589.932 275.432 570.455L279.055 537.812Z" fill="#0E141B"/>
<path d="M265.58 545.491C250.469 538.888 254.133 563.934 212.321 518.644C189.324 493.722 170.798 523.757 185.081 544.353C200.564 566.687 242.976 582.522 265.331 569.109L265.58 545.512V545.491Z" fill="#5893C0"/>
<path d="M506.787 474.058C519.186 513.697 537.567 573.683 530.446 601.048C518.669 646.317 478.905 657.826 394.039 661.448C317.969 664.698 272.535 649.442 260.591 622.492C230.308 554.185 287.542 517.547 274.191 450.234C266.428 411.071 481.762 394.056 506.767 474.038L506.787 474.058Z" fill="#0E141B"/>
<path d="M503.682 478.012C515.833 530.547 537.008 583.268 517.841 616.676C505.752 637.748 470.046 654.638 393.459 655.673C308.779 656.812 278.041 646.586 264.752 614.027C241.838 557.87 290.315 515.271 278.475 458.783C270.92 422.704 486.233 402.647 503.682 478.012Z" fill="#5893C0"/>
<path d="M525.479 586.869C525.106 597.902 522.85 607.941 517.841 616.676C505.752 637.748 470.046 654.638 393.459 655.673C308.779 656.812 278.041 646.586 264.752 614.026C261.212 605.353 259.37 596.991 258.749 588.856C282.139 649.298 503.061 641.204 525.479 586.869Z" fill="#467A9F"/>
<path d="M511.651 509.351C508.898 499.001 506.104 488.507 503.682 478.012C486.233 402.647 270.92 422.704 278.475 458.783C281.29 472.237 280.69 484.905 278.454 497.138C332.127 512.973 442.33 517.796 511.651 509.33V509.351Z" fill="#467A9F"/>
<path d="M328.712 533.092C322.978 533.175 318.28 528.601 318.176 522.867C318.093 517.133 322.668 512.435 328.381 512.331C334.115 512.248 338.834 516.823 338.917 522.557C339 528.27 334.425 532.989 328.712 533.092Z" fill="#0E141B"/>
<path d="M328.65 529.014C325.173 529.055 322.316 526.282 322.254 522.804C322.192 519.327 324.986 516.491 328.443 516.429C331.92 516.367 334.777 519.14 334.818 522.618C334.86 526.075 332.107 528.952 328.629 528.993L328.65 529.014Z" fill="#EA545E"/>
<path d="M328.588 524.917C327.367 524.917 326.373 523.965 326.352 522.743C326.352 521.522 327.304 520.529 328.526 520.508C329.747 520.508 330.741 521.46 330.761 522.681C330.761 523.902 329.809 524.896 328.588 524.917Z" fill="white"/>
<path d="M397.909 539.529C392.507 539.612 383.13 539.778 381.888 539.757C378.701 539.716 378.266 541.206 378.701 543.421C379.694 548.347 383.503 559.214 390.623 559.111C397.537 559.007 401.056 548.43 401.987 543.338C402.567 540.15 401.884 539.488 397.909 539.55V539.529Z" fill="#0E141B"/>
<path d="M383.503 543.586C383.503 543.586 385.924 555.322 390.623 555.26C395.343 555.198 397.413 543.379 397.413 543.379L383.503 543.586Z" fill="#EE869A"/>
<path d="M448.167 532.057C442.433 532.14 437.714 527.566 437.652 521.832C437.569 516.098 442.143 511.4 447.877 511.296C453.59 511.213 458.31 515.788 458.392 521.521C458.475 527.255 453.901 531.974 448.188 532.057H448.167Z" fill="#0E141B"/>
<path d="M448.105 527.958C444.627 528.02 441.771 525.246 441.73 521.769C441.667 518.291 444.441 515.435 447.919 515.394C451.396 515.332 454.253 518.105 454.294 521.583C454.335 525.06 451.562 527.917 448.084 527.958H448.105Z" fill="#EA545E"/>
<path d="M448.043 523.882C446.821 523.882 445.828 522.929 445.807 521.708C445.807 520.487 446.759 519.493 447.981 519.473C449.202 519.473 450.195 520.425 450.216 521.646C450.216 522.867 449.264 523.861 448.043 523.882Z" fill="white"/>
<path d="M489.607 175.411C426.288 108.304 245.626 96.2985 170.053 195.096C98.4959 206.356 47.6587 239.247 40.8487 281.121C28.2015 358.847 158.503 435.185 295.407 442.823C314.575 443.9 337.406 422.228 344.982 360.73C346.493 348.518 350.094 336.637 354.131 325.107C382.758 322.292 409.232 315.751 432.104 306.519C444.545 320.512 493.56 340.756 542.762 352.037C641.311 374.64 693.701 341.418 704.402 322.872C736.051 267.998 657.56 132.977 489.627 175.431L489.607 175.411Z" fill="#0E141B"/>
<path d="M402.546 344.337C408.839 293.086 383.524 246.099 297.85 215.381C180.982 173.465 58.1946 220.618 47.8865 283.999C37.3506 348.767 160.49 428.872 274.687 431.584C365.681 433.757 396.233 395.588 402.525 344.337H402.546Z" fill="#EA545E"/>
<path d="M374.085 404.861C258.521 416.163 68.5442 353.32 49.2319 277.83C48.6523 279.859 48.1969 281.908 47.8657 283.998C37.3298 348.766 160.469 428.872 274.667 431.584C323.103 432.743 354.42 422.455 374.064 404.861H374.085Z" fill="#CA4851"/>
<path d="M398.799 205.3C411.095 206.811 428.379 208.343 439.204 211.51C446.801 198.241 470.543 183.214 484.949 178.494C455.929 148.481 395.363 127.119 329.975 129.748C262.971 132.439 203.316 160.424 178.933 194.06C222.857 190.107 277.192 198.759 317.203 218.092C338.73 205.838 360.113 200.539 398.799 205.3Z" fill="#EA545E"/>
<path d="M599.437 262.471C644.374 267.998 679.253 280.831 704.319 298.55C709.142 263.32 680.101 212.773 623.51 188.575C567.932 164.813 477.394 167.338 444.338 213.601C481.596 226.765 500.846 243.531 498.155 265.348C497.928 267.253 497.762 269.343 497.638 271.537C520.304 263.775 561.516 257.814 599.437 262.471Z" fill="#EA545E"/>
<path d="M506.166 265.701C508.857 243.884 488.034 222.419 450.775 209.254C447.505 208.095 444.131 206.998 440.674 205.984C429.848 202.817 418.153 200.374 405.858 198.863C367.171 194.103 331.941 199.629 310.414 211.883C297.995 218.942 292.675 228.277 291.143 239.123C285.844 276.506 277.399 317.221 295.883 328.689C314.554 340.259 427.364 350.423 456.778 354.045C472.84 356.012 483.811 352.658 491.408 346.138C512.645 327.902 503.496 287.621 506.187 265.722L506.166 265.701Z" fill="#0E141B"/>
<path d="M501.115 266.675C497.721 294.225 508.609 358.124 452.121 351.169C424.901 347.816 320.432 338.418 303.149 327.696C284.581 316.187 294.828 255.787 296.587 241.505C299.982 213.954 348.5 197.27 404.989 204.205C461.477 211.16 504.51 239.103 501.136 266.654L501.115 266.675Z" fill="#F39950"/>
<path d="M483.045 256.512C478.263 274.582 448.188 277.315 402.67 271.726C357.153 266.117 320.888 256.512 318.218 236.248C315.527 215.611 359.719 203.377 405.237 208.987C450.754 214.576 488.385 236.413 483.045 256.512Z" fill="#0E141B"/>
<path d="M476.898 258.685C472.944 271.332 445.124 272.45 402.774 267.233C360.423 262.017 326.518 254.234 323.496 239.807C320.412 225.131 361.086 217.7 403.436 222.896C445.787 228.112 481.286 244.568 476.898 258.664V258.685Z" fill="#C18A64"/>
<path d="M675.485 468.781C748.595 460.749 766.106 404.634 758.282 366.775C746.773 311.157 697.571 268.682 600.223 256.718C502.875 244.754 454.936 288.201 441.067 321.962C419.478 374.558 447.898 401.943 540.258 448.123C577.019 466.504 629.906 473.811 675.485 468.801V468.781Z" fill="#0E141B"/>
<path d="M750.313 364.684C744.889 339.307 729.613 316.434 704.298 298.55C679.252 280.831 644.374 268.019 599.416 262.471C561.495 257.814 531.812 261.209 509.147 268.971C490.559 275.325 476.69 284.599 466.941 294.824C481.244 299.13 494.574 304.408 506.932 310.348C539.264 325.894 564.662 346.034 582.235 365.408C598.463 383.292 608.027 400.535 610.221 412.954C614.133 435.061 611.856 450.834 605.418 462.467C626.883 464.888 649.942 464.64 673.953 462.115C741.743 455.015 757.64 399.044 750.292 364.684H750.313Z" fill="#EA545E"/>
<path d="M751.451 390.228C736.9 420.573 684.448 436.449 611.877 425.416C613.098 441.168 610.614 453.133 605.46 462.447C626.925 464.869 649.984 464.621 673.995 462.095C726.612 456.589 747.953 421.649 751.451 390.207V390.228Z" fill="#CA4851"/>
<path d="M619.411 417.156C637.399 519.058 494.119 513.366 383.772 502.52C251.711 489.521 113.379 444.086 172.599 350.381C204.331 300.164 278.475 266.963 410.784 278.824C543.3 290.705 612.167 376.151 619.411 417.156Z" fill="#0E141B"/>
<path d="M610.262 412.955C604.798 381.968 553.36 320.802 466.983 294.825C449.451 289.546 430.511 285.696 410.184 283.875C288.266 272.946 216.771 302.96 183.756 347.339C140.598 405.317 188.475 447.937 244.384 466.483C319.977 491.55 477.187 511.628 542.059 496.849C569.071 490.701 593.972 483.27 605.481 462.447C611.918 450.814 614.195 435.041 610.283 412.934L610.262 412.955Z" fill="#EA545E"/>
<path d="M288.059 381.223C288.059 393.973 267.339 401.466 245.667 396.291C223.664 391.034 211.762 385.487 211.762 372.757C211.762 360.027 228.715 346.862 252.726 349.677C278.951 352.761 288.038 368.493 288.038 381.223H288.059Z" fill="#FADCE2"/>
<path d="M110.295 277.624C110.295 283.978 97.5646 294.618 89.8024 292.465C77.0931 288.925 67.2196 287.373 69.3102 274.809C70.7177 266.343 84.8553 257.152 93.3212 259.263C101.083 261.209 110.274 272.677 110.274 277.624H110.295Z" fill="#FADCE2"/>
<path d="M447.215 302.338C445.807 309.397 430.449 309.852 419.664 307.285C408.715 304.677 396.357 303.725 396.357 297.391C396.357 291.057 405.693 288.78 417.636 290.188C430.676 291.72 448.519 295.818 447.215 302.338Z" fill="#FADCE2"/>
<path d="M429.807 151.897C428.399 158.956 410.433 161.067 399.669 158.5C388.719 155.892 374.706 150.717 374.706 144.383C374.706 138.049 384.041 135.772 395.985 137.18C409.025 138.712 431.09 145.398 429.786 151.918L429.807 151.897Z" fill="#FADCE2"/>
<path d="M246.888 209.421C246.951 214.409 236.58 216.934 228.901 216.748C221.097 216.541 212.569 217.7 211.658 213.395C210.748 209.089 216.75 206.192 225.072 205.426C234.158 204.577 246.847 204.784 246.888 209.421Z" fill="#FADCE2"/>
<path d="M500.391 401.839C503.103 410.637 490.414 420.22 474.372 421.276C458.082 422.352 448.685 421.069 445.973 412.272C443.262 403.475 452.141 390.786 469.301 387.619C488.055 384.162 497.68 393.063 500.391 401.839Z" fill="#FADCE2"/>
<path d="M560.667 198.409C563.378 207.206 550.69 216.79 534.648 217.845C518.358 218.922 508.96 217.638 506.249 208.841C503.537 200.044 512.417 187.355 529.577 184.188C548.33 180.711 557.955 189.632 560.667 198.409Z" fill="#FADCE2"/>
<path d="M554.706 359.096C552.429 363.774 543.487 362.801 536.47 357.026C529.349 351.168 517.944 343.489 520.221 338.831C522.498 334.174 539.098 335.871 547.399 341.212C556.465 347.049 556.983 354.418 554.706 359.096Z" fill="#FADCE2"/>
<path d="M677.017 388.757C677.017 399.127 661.927 402.688 645.927 401.011C628.043 399.127 623.323 391.593 623.323 381.223C623.323 370.852 622.971 360.979 640.276 363.318C660.996 366.154 677.017 379.546 677.017 388.736V388.757Z" fill="#FADCE2"/>
<path d="M180.755 291.305C187.275 299.357 177.774 311.611 164.278 320.367C149.168 330.158 140.784 327.26 134.264 319.187C128.075 311.549 121.265 303.663 136.189 294.617C154.073 283.792 174.959 284.143 180.734 291.305H180.755Z" fill="#FADCE2"/>
<path d="M697.364 309.087C698.13 319.416 687.18 315.628 675.403 312.275C668.531 310.308 656.918 306.996 657.229 296.626C657.498 287.622 669.897 286.111 676.852 289.133C689.561 294.66 696.661 299.917 697.344 309.087H697.364Z" fill="#FADCE2"/>
<path d="M247.551 243.243C247.551 246.368 241.817 252.661 235.773 252.661C229.729 252.661 224.471 247.3 224.471 244.174C224.471 241.049 229.377 238.523 235.421 238.523C241.465 238.523 247.551 240.117 247.551 243.222V243.243Z" fill="#FADCE2"/>
<path d="M637.461 319.54C637.461 322.665 631.727 328.958 625.683 328.958C619.639 328.958 614.381 323.597 614.381 320.471C614.381 317.346 619.287 314.82 625.331 314.82C631.375 314.82 637.461 316.414 637.461 319.519V319.54Z" fill="#FADCE2"/>
<path d="M605.439 223.474C605.439 226.6 599.706 232.892 593.662 232.892C587.617 232.892 582.36 227.531 582.36 224.426C582.36 221.321 587.266 218.775 593.31 218.775C599.354 218.775 605.439 220.369 605.439 223.474Z" fill="#FADCE2"/>
<path d="M327.843 295.528C327.843 298.653 322.937 301.179 316.893 301.179C310.849 301.179 299.816 301.945 299.816 298.819C299.816 295.693 310.849 289.877 316.893 289.877C322.937 289.877 327.843 292.402 327.843 295.528Z" fill="#FADCE2"/>
<path d="M659.485 223.04C652.53 229.126 637.978 223.04 633.694 218.776C629.43 214.492 618.438 206.233 622.392 196.649C625.683 188.638 649.673 203.19 653.937 207.475C658.202 211.759 661.824 220.991 659.485 223.04Z" fill="#FADCE2"/>
<path d="M237.656 172.14C237.656 175.266 227.804 177.791 221.759 177.791C215.715 177.791 204.703 178.557 204.703 175.431C204.703 172.306 217.019 162.246 223.064 162.246C229.108 162.246 237.656 169.015 237.656 172.14Z" fill="#FADCE2"/>
<path d="M375.41 366.154C374.706 373.688 362.39 374.62 356.346 374.62C350.301 374.62 343.16 373.212 342.229 366.154C340.366 352.141 353.531 348.27 360.113 349.201C371.311 350.795 375.699 363.049 375.41 366.154Z" fill="#FADCE2"/>
<path d="M365.515 183.442C365.515 187.727 360.341 191.204 353.986 191.204C347.631 191.204 342.457 187.727 342.457 183.442C342.457 179.157 347.631 175.68 353.986 175.68C360.341 175.68 365.515 179.157 365.515 183.442Z" fill="#FADCE2"/>
<path d="M432.394 178.724C432.394 183.009 425.336 189.322 418.981 189.322C412.627 189.322 402.732 182.077 402.732 177.772C402.732 173.467 407.907 170.01 414.262 170.01C420.616 170.01 432.394 174.439 432.394 178.724Z" fill="#FADCE2"/>
<path d="M187.337 223.184C187.337 230.615 185.226 232.975 167.507 238.067C156.909 241.11 130.58 242.848 125.115 234.3C118.512 223.95 141.136 215.381 144.883 214.511C181.624 206.045 187.316 215.753 187.316 223.184H187.337Z" fill="#FADCE2"/>
<path d="M315.361 149.062C315.361 154.526 305.239 159.411 292.758 159.411C280.276 159.411 264.503 160.177 264.503 154.713C264.503 149.248 274.667 140.679 287.107 139.644C304.06 138.236 315.361 143.597 315.361 149.062Z" fill="#FADCE2"/>
<path d="M604.508 295.529C598.857 303.064 593.206 302.112 581.904 297.413C569.423 292.217 555.534 288.202 555.534 278.577C555.534 268.952 572.155 269.159 585.672 269.159C599.188 269.159 610.283 287.829 604.508 295.529Z" fill="#FADCE2"/>
<path d="M542.017 496.849C569.03 490.701 593.931 483.27 605.439 462.447C609 456.03 611.277 448.33 611.939 439.016C577.744 464.6 488.593 474.846 449.078 473.521C425.439 472.714 283.236 467.539 205.78 448.558C217.33 455.906 230.577 461.909 244.322 466.483C319.915 491.55 477.125 511.628 541.996 496.849H542.017Z" fill="#CA4851"/>
<path d="M322.316 230.284C329.644 216.684 365.35 208.301 405.154 212.441C438.397 215.898 476.277 234.486 479.278 249.451C467.914 235.541 436.244 223.142 404.657 219.851C363.383 215.567 333.142 221.197 322.337 230.284H322.316Z" fill="#3E4E57"/>
</g>
<defs>
<clipPath id="clip0_42_62314">
<rect width="720" height="593.569" fill="white" transform="translate(40 123)"/>
</clipPath>
</defs>
</svg>
