<svg width="800" height="800" viewBox="0 0 800 800" fill="none" xmlns="http://www.w3.org/2000/svg">
<g clip-path="url(#clip0_42_62547)">
<path d="M168.595 513.548C147.046 473.326 153.621 436.879 213.235 410.912C260.649 390.262 284.792 375.647 314.817 335.631C342.48 298.747 387.71 242.755 433.3 223.8C461.887 211.908 527.023 198.424 566.809 235.563C606.594 272.703 606.594 317.805 607.93 382.787C609.265 447.769 668.931 498.163 680.874 518.068C699.726 549.48 704.196 590.678 627.347 608.221C554.531 624.839 477.349 628.692 391.152 622.065C319.954 616.594 208.843 588.726 168.569 513.573L168.595 513.548Z" fill="#D70040"/>
<path d="M680.899 518.042C668.956 498.136 609.291 447.743 607.955 382.761C606.62 317.779 606.62 272.677 566.834 235.537C562.314 231.299 557.434 227.755 552.323 224.775C582.605 298.259 562.417 408.163 560.439 445.894C558.923 474.609 611.089 533.889 602.639 530.139C513.59 490.739 302.463 441.553 182.567 533.709C227.952 587.005 306.47 615.515 391.178 622.013C477.375 628.64 554.557 624.787 627.373 608.169C705.377 590.37 700.368 550.456 680.899 518.016V518.042Z" fill="#B60034"/>
<path d="M266.068 520.406C286.487 515.14 345.844 488.608 471.133 516.656C596.423 544.703 617.613 567.152 625.729 578.992C619.488 594.583 577.724 610.79 477.991 610.173C378.258 609.557 155.11 549.095 266.068 520.406Z" fill="#0E141B"/>
<path d="M255.383 431.947C275.032 428.197 312.249 430.92 304.055 444.25C295.862 457.58 280.991 457.067 261.522 457.067C242.053 457.067 219.399 465.594 225.024 451.775C229.673 440.372 233.834 436.057 255.357 431.973L255.383 431.947Z" fill="#F6AD3C"/>
<path d="M371.195 384.302C347.103 385.843 328.147 393.009 334.312 405.312C339.86 416.408 368.652 418.129 379.902 417.615C391.177 417.101 426.519 417.101 432.17 410.449C437.795 403.797 437.795 399.174 427.033 394.576C416.271 389.978 391.357 383.044 371.195 384.328V384.302Z" fill="#F6AD3C"/>
<path d="M324.885 322.789C339.757 321.248 353.78 330.494 345.561 339.201C337.342 347.908 312.3 344.518 302.565 350.168L324.86 322.789H324.885Z" fill="#F6AD3C"/>
<path d="M449.07 450.388C439.875 449.129 421.767 450.568 436.767 466.775C449.584 480.619 465.457 477.536 479.301 477.023C493.145 476.509 502.366 477.023 493.659 466.261C484.952 455.499 460.346 451.903 449.096 450.388H449.07Z" fill="#F6AD3C"/>
<path d="M418.326 234.175C429.987 235.126 450.098 242.882 447.016 252.103C443.934 261.324 431.656 266.949 410.646 265.433C393.797 264.2 385.013 256.598 385.013 256.598C385.013 256.598 406.665 233.251 418.326 234.175Z" fill="#F6AD3C"/>
<path d="M494.686 321.786C481.433 320.065 459.318 324.354 458.805 334.602C458.291 344.85 476.219 355.099 496.201 357.667C516.184 360.236 534.112 358.181 534.112 343.823C534.112 329.465 510.533 323.84 494.66 321.786H494.686Z" fill="#F6AD3C"/>
<path d="M565.396 295.666C547.134 293.046 544.899 303.859 549.009 310.023C553.119 316.162 578.726 322.326 582.322 316.162C585.173 311.307 583.349 298.234 565.421 295.666H565.396Z" fill="#F6AD3C"/>
<path d="M522.426 420.004C511.664 414.867 496.202 413.506 498.256 423.754C500.311 434.002 513.128 437.084 517.212 438.6L522.426 420.004Z" fill="#F6AD3C"/>
<path d="M664.641 592.784C669.264 582.536 670.934 574.907 659.658 564.659C648.383 554.411 651.465 543.649 659.144 542.622C666.824 541.594 686.473 546.654 686.293 565.686C686.113 584.719 664.615 592.784 664.615 592.784H664.641Z" fill="#D59633"/>
<path d="M321.854 595.018C312.069 593.502 295.168 584.898 284.201 580.66C273.388 590.497 261.239 615.386 253.456 627.355C251.941 640.146 253.071 667.14 257.771 671.584C265.528 678.878 285.254 687.174 285.254 687.174L270.742 663.467C270.742 663.467 272.258 636.37 273.002 633.365C273.747 630.36 293.242 600.874 293.242 600.874C293.242 600.874 309.115 609.273 331.692 612.278L321.854 594.992V595.018Z" fill="#F0844B"/>
<path d="M293.242 600.9C293.242 600.9 309.115 609.298 331.692 612.304L321.855 595.018C312.069 593.502 295.169 584.898 284.201 580.66C278.987 585.412 273.465 593.631 268.277 602.235C284.278 604.239 244.365 632.749 269.407 679.494C277.241 683.835 285.28 687.2 285.28 687.2L270.768 663.493C270.768 663.493 272.284 636.396 273.029 633.391C273.773 630.385 293.268 600.9 293.268 600.9H293.242Z" fill="#CF7240"/>
<path d="M302.335 559.651C289.544 555.901 275.237 549.865 272.977 549.865C270.717 549.865 226.308 578.452 217.293 588.238C208.252 598.024 203.089 653.194 203.089 670.506C203.089 684.478 204.579 689.538 231.265 698.836C231.933 697.141 221.069 676.285 221.069 676.285C221.069 676.285 231.188 611.2 231.959 606.68C246.214 592.656 278.679 570.362 278.679 570.362C278.679 570.362 302.129 584.411 314.92 583.666L302.36 559.651H302.335Z" fill="#F0844B"/>
<path d="M278.679 570.362C278.679 570.362 302.129 584.411 314.92 583.666L302.36 559.651C289.569 555.901 275.263 549.865 273.003 549.865C270.743 549.865 226.334 578.452 217.319 588.238C213.954 591.885 211.129 601.825 208.894 613.768C221.557 612.792 201.625 677.132 218.757 692.98C222.61 694.778 231.522 700.325 232.036 699.067C232.55 697.808 221.069 676.285 221.069 676.285C221.069 676.285 231.188 611.2 231.959 606.68C246.214 592.656 278.679 570.362 278.679 570.362Z" fill="#CF7240"/>
<path d="M287.9 533.247C278.114 527.236 268.457 518.992 268.457 518.992C268.457 518.992 249.63 482.109 238.354 487.374C227.079 492.639 235.349 546.063 269.972 550.584C300.074 561.859 306.855 560.369 306.855 560.369L287.9 533.221V533.247Z" fill="#F0844B"/>
<path d="M287.9 533.247C277.729 528.906 273.259 531.885 272.438 531.346C261.445 530.524 247.549 516.012 233.654 499.42C233.114 516.962 244.287 547.245 269.972 550.584C300.074 561.859 306.855 560.369 306.855 560.369L287.9 533.221V533.247Z" fill="#CF7240"/>
<path d="M195.332 598.922C170.367 619.444 177.61 653.194 181.309 654.35C185.007 655.506 219.527 605.601 227.798 586.029C235.169 575.498 257.412 560.961 255.691 538.564C253.431 509.206 238.765 461.998 216.548 470.089C199.981 476.099 176.66 486.655 159.348 497.931C142.037 509.206 96.1386 585.977 95.3937 619.085C94.6489 652.192 108.082 741.421 129.4 749.177C138.441 727.345 162.585 629.693 182.285 618.057" fill="#F0844B"/>
<path d="M254.869 534.299C253.611 518.092 249.398 500.73 241.41 485.961C251.684 535.455 191.531 567.587 170.264 595.3C119.383 661.669 132.816 754.493 118.767 737.978C122.029 743.783 125.599 747.815 129.4 749.202C138.338 727.601 162.045 631.875 181.642 618.519C184.134 611.533 188.372 604.624 195.332 598.922L182.285 618.057C182.079 618.185 181.848 618.365 181.642 618.519C175.196 636.601 177.533 653.245 180.435 655.222C183.338 657.2 215.623 610.454 223.919 590.908C234.45 575.857 257.129 563.657 254.895 534.325L254.869 534.299Z" fill="#CF7240"/>
<path d="M306.855 563.401C310.605 587.493 341.478 635.652 382.856 646.927C441.571 662.929 491.501 652.167 513.847 614.436C537.913 573.803 456.596 524.258 431.014 520.508L306.855 563.401Z" fill="#F0844B"/>
<path d="M431.014 520.508L333.901 554.052C305.827 571.671 341.272 611.097 356.554 634.29C364.645 639.915 373.481 644.385 382.855 646.927C435.021 661.157 491.219 652.629 513.847 614.436C537.913 573.803 456.596 524.258 431.014 520.508Z" fill="#CF7240"/>
<path d="M443.908 543.932C445.628 561.089 412.264 583.743 357.273 579.223C313.687 575.627 287.257 561.732 286.307 534.686C285.331 506.381 327.865 502.375 369.936 504.506C417.452 506.921 441.442 519.326 443.908 543.932Z" fill="#F0844B"/>
<path d="M443.523 545.448C444.267 517.452 409.979 506.536 369.936 504.507C358.686 503.942 347.642 504.379 337.497 505.714C397.034 513.856 418.044 547.426 412.085 553.359C392.95 576.963 330.356 572.443 301.821 562.297C314.56 570.568 337.034 577.554 357.274 579.198C403.994 583.05 442.932 567.434 443.523 545.423V545.448Z" fill="#CF7240"/>
<path d="M342.967 496.365C342.967 510.286 331.512 521.587 317.386 521.587C303.259 521.587 291.804 510.311 291.804 496.365C291.804 482.418 303.259 471.168 317.386 471.168C331.512 471.168 342.967 482.444 342.967 496.365Z" fill="white"/>
<path d="M412.573 499.01C412.573 513.778 400.321 524.258 386.606 524.258C372.89 524.258 361.769 512.288 361.769 497.546C361.769 482.803 373.044 471.553 386.76 471.553C400.475 471.553 412.573 484.267 412.573 499.01Z" fill="white"/>
<path d="M328.558 473.711C339.217 495.543 321.726 516.707 301.487 516.091C305.853 519.507 311.375 521.562 317.386 521.562C331.512 521.562 342.967 510.286 342.967 496.339C342.967 486.374 337.086 477.769 328.558 473.686V473.711Z" fill="#DCDDDD"/>
<path d="M400.372 475.971C409.259 501.244 390.509 518.761 371.092 518.402C375.355 522.075 380.749 524.283 386.605 524.283C400.321 524.283 412.572 513.778 412.572 499.035C412.572 489.558 407.564 480.954 400.372 475.971Z" fill="#DCDDDD"/>
<path d="M605.387 589.187C594.856 569.616 592.827 558.88 589.051 558.135C588.101 557.955 561.158 564.145 561.158 564.145L502.032 587.569C498.308 600.36 509.275 601.773 509.275 601.773C520.371 598.819 558.024 583.871 578.777 580.866L578.88 580.352C586.303 606.088 603.075 617.312 610.113 624.35C613.863 628.099 608.032 659.486 607.107 676.284C606.825 681.318 600.763 689.64 600.763 689.64C600.763 689.64 613.143 685.325 616.148 678.544C619.154 671.763 632.33 637.192 633.46 622.115C634.128 613.1 615.917 608.759 605.387 589.213V589.187Z" fill="#F0844B"/>
<path d="M605.387 589.187C594.856 569.616 592.827 558.88 589.051 558.135C588.101 557.955 561.158 564.145 561.158 564.145L502.032 587.569C498.308 600.36 509.275 601.773 509.275 601.773C520.371 598.819 557.844 584.025 578.598 581.02C578.598 581.02 582.27 587.133 583.889 591.191C589.591 579.376 612.398 616.439 619.719 619.29C627.039 622.141 611.988 680.368 606.979 676.952C606.054 682.166 599.608 691.027 599.608 691.027C599.608 691.027 613.092 685.299 616.123 678.518C619.154 671.738 632.304 637.166 633.434 622.089C634.102 613.074 615.892 608.733 605.361 589.187H605.387Z" fill="#CF7240"/>
<path d="M589.796 623.605C583.786 615.335 570.225 598.255 564.214 573.931C560.105 557.262 558.204 559.625 545.413 560.396L471.673 577.707C467.923 578.452 459.113 588.905 471.159 597.176C486.596 592.912 529.951 578.914 541.894 582.818L542.357 581.277C546.903 597.073 565.499 630.309 569.505 635.651C574.026 641.662 561.62 694.366 552.117 702.123C544.771 708.133 532.725 719.357 532.725 719.357C532.725 719.357 566.475 716.198 569.48 713.193C572.485 710.188 586.714 672.843 596.577 649.983C602.073 637.244 595.832 631.927 589.796 623.657V623.605Z" fill="#F0844B"/>
<path d="M589.796 623.605C583.786 615.335 570.225 598.255 564.214 573.931C560.105 557.262 558.204 559.625 545.413 560.396L471.673 577.707C467.923 578.452 459.113 588.905 471.159 597.176C486.596 592.912 529.951 578.914 541.894 582.818L542.357 581.277C543.025 583.589 544.001 586.311 545.182 589.239C552.99 576.988 573.332 622.167 581.063 633.16C588.795 644.153 581.5 663.725 560.952 704.82C559.052 709.597 555.353 713.655 550.833 717.277C559.386 716.121 568.041 714.631 569.505 713.167C572.51 710.162 586.74 672.817 596.603 649.958C602.099 637.218 595.858 631.901 589.822 623.631L589.796 623.605Z" fill="#CF7240"/>
<path d="M482.203 552.871C474.678 549.866 464.892 544.6 460.371 543.83C455.851 543.059 443.06 552.871 452.101 561.886C461.142 570.927 458.06 566.946 469.412 575.422C480.765 583.898 482.203 552.845 482.203 552.845V552.871Z" fill="#F0844B"/>
<path d="M452.101 561.912C461.142 570.953 458.06 566.972 469.413 575.448C476.322 580.61 479.558 571.133 481.022 562.939C472.161 556.544 461.374 551.33 455.672 545.217C447.94 549.686 448.48 558.29 452.101 561.912Z" fill="#CF7240"/>
<path d="M513.256 513.932L496.921 544.805C490.14 551.585 473.907 555.13 471.647 564.171C469.387 573.212 468.899 583.948 482.486 585.335C496.022 583.075 511.33 572.57 511.33 572.57C511.33 572.57 533.547 575.138 547.673 563.143C561.8 551.149 513.23 513.957 513.23 513.957L513.256 513.932Z" fill="#F0844B"/>
<path d="M522.76 521.766C513.642 534.942 501.39 548.144 499.233 565.584C488.24 557.724 479.892 561.962 470.646 569.539C469.747 577.013 471.545 584.205 482.512 585.335C496.048 583.075 511.356 572.57 511.356 572.57C511.356 572.57 533.573 575.138 547.699 563.143C557.742 554.616 536.116 533.375 522.76 521.791V521.766Z" fill="#CF7240"/>
<path d="M510.045 494.181C507.04 504.712 499.284 539.437 531.338 555.105C564.394 571.261 588.871 572.673 633.614 543.907C680.591 513.701 707.971 433.206 704.94 385.047C701.935 336.889 686.139 290.99 678.613 278.2C671.088 265.409 667.338 263.148 659.042 273.679C650.771 284.21 631.944 346.675 576.26 386.563L510.045 494.181Z" fill="#F0844B"/>
<path d="M704.94 385.047C701.935 336.889 686.139 290.99 678.614 278.199C671.088 265.408 665.617 261.325 659.042 273.679C668.776 266.23 667.621 297.103 659.453 351.863C651.311 406.622 594.805 450.902 584.891 422.341C561.261 443.968 543.384 491.818 509.172 499.241C502.186 520.79 508.351 543.855 531.338 555.105C564.394 571.26 588.872 572.673 633.614 543.906C680.591 513.701 707.971 433.206 704.94 385.047Z" fill="#CF7240"/>
<path d="M541.073 521.714C561.518 502.091 587.51 462.717 585.713 430.534C583.452 389.901 571.946 385.047 569.685 365.475C567.425 345.903 567.99 327.873 558.204 337.659C548.418 347.444 536.372 371.511 530.362 387.333C524.352 403.129 512.306 457.323 510.046 473.119C507.785 488.915 514.566 513.007 516.826 516.757C516.826 516.757 522.143 539.899 541.098 521.714H541.073Z" fill="#F0844B"/>
<path d="M586.098 428.249C583.837 387.616 571.945 385.022 569.685 365.476C561.594 326.821 560.875 437.624 557.511 459.636C552.271 494.002 528.975 519.044 514.001 508.95C515.08 512.803 516.133 515.654 516.801 516.758C516.801 516.758 521.372 541.801 540.302 523.616C559.257 505.432 588.332 468.908 586.098 428.275V428.249Z" fill="#CF7240"/>
<path d="M255.152 430.688C233.757 434.772 227.567 439.806 222.661 451.878C221.377 455.063 221.351 457.4 222.661 459.07C225.383 462.614 234.322 461.022 244.082 459.789C249.553 459.096 255.768 458.325 261.573 458.325H263.653C282.223 458.325 298.533 458.762 306.803 445.303C308.987 441.758 308.113 439.113 307.009 437.52C301.127 428.993 271.256 427.581 255.152 430.663V430.688ZM225.897 456.912C225.229 456.039 225.358 454.472 226.257 452.238C230.649 441.45 234.116 437.315 255.64 433.205C272.746 429.944 298.61 431.818 303.259 438.599C303.875 439.498 304.543 441.014 302.976 443.582C295.451 455.808 282.095 455.808 263.628 455.782H261.547C255.588 455.782 249.296 456.578 243.748 457.272C235.503 458.325 227.721 459.301 225.897 456.912Z" fill="#F6AD3C"/>
<path d="M371.118 383.019C351.033 384.303 335.956 389.286 331.898 396.349C330.177 399.329 330.202 402.616 331.923 406.084C337.959 418.155 369.731 419.363 379.953 418.875L385.964 418.669C406.254 418.053 430.578 416.563 435.381 410.861C438.72 406.906 438.874 404.543 438.232 401.743C437.512 398.661 433.275 395.81 427.547 393.344C416.58 388.644 391.588 381.683 371.118 382.993V383.019ZM335.442 404.722C334.106 402.026 334.055 399.637 335.339 397.428C338.909 391.212 352.342 386.795 371.272 385.587C391.28 384.303 415.783 391.135 426.545 395.733C431.4 397.813 434.019 399.894 434.533 402.077C434.995 403.978 433.917 406.366 431.194 409.603C426.725 414.894 399.165 415.715 385.912 416.126L379.851 416.332C367.548 416.897 340.476 414.791 335.468 404.748L335.442 404.722Z" fill="#F6AD3C"/>
<path d="M325.451 321.529L323.473 323.892C333.387 322.864 344.098 327.076 346.204 331.366C347.334 333.677 346.82 336.015 344.637 338.326C340.373 342.872 331.923 343.54 323.756 344.182C316.949 344.722 310.502 345.235 305.982 347.83L303.388 350.86C307.394 348.549 317.437 347.239 323.961 346.725C332.617 346.057 342.839 345.98 347.796 340.715C350.699 337.633 351.033 334.242 349.414 330.98C346.435 324.97 335.622 320.475 325.451 321.529Z" fill="#F6AD3C"/>
<path d="M428.908 453.265C427.11 456.707 430.449 461.869 435.843 467.674C447.426 480.182 461.553 479.36 474.01 478.616L479.352 478.333L482.126 478.23C490.756 477.948 497.537 477.896 499.052 474.557C500.028 472.426 497.922 469.523 494.635 465.491C485.388 454.061 459.113 450.491 449.224 449.13C443.522 448.359 431.63 447.974 428.882 453.265H428.908ZM437.718 465.927C433.223 461.073 431.476 457.246 432.684 454.909C434.404 451.595 442.315 450.774 448.89 451.673C458.497 452.982 484.053 456.476 492.631 467.083C495.893 471.116 495.919 472.734 495.636 473.35C494.763 475.251 488.573 475.456 482.024 475.662L479.224 475.765L473.83 476.047C461.348 476.792 448.454 477.563 437.692 465.927H437.718Z" fill="#F6AD3C"/>
<path d="M414.679 234.433C426.365 235.435 440.389 240.777 444.73 246.787C445.988 248.508 446.322 250.126 445.808 251.693C442.7 261.017 429.91 265.537 410.749 264.15C394.645 262.969 388.044 256.881 386.554 255.803L384.782 257.652C386.477 258.936 393.746 266.282 410.877 267.515C431.322 269.005 445.5 263.842 448.993 253.311C449.764 250.974 448.531 247.661 446.81 245.272C441.622 238.08 428.266 233.431 416.733 232.43L414.679 234.433Z" fill="#F6AD3C"/>
<path d="M459.935 327.54C457.443 329.62 456.211 332.214 456.082 334.834C455.491 346.777 477.066 356.486 496.047 358.926C513.179 361.135 527.331 358.772 533.341 353.507C536.321 350.887 536.578 348.087 536.578 343.772C536.578 328.053 509.994 322.48 494.84 320.528C484.387 319.166 467.101 321.555 459.935 327.565V327.54ZM496.381 356.383C476.604 353.841 459.652 343.695 460.089 334.654C460.192 332.754 461.193 330.981 463.12 329.389C469.567 324.021 484.541 321.786 494.506 323.07C506.039 324.56 532.828 329.569 532.828 343.824C532.828 347.419 531.646 350.219 529.206 352.351C523.864 357.051 512.511 358.438 496.356 356.383H496.381Z" fill="#F6AD3C"/>
<path d="M546.518 300.16C544.437 303.448 544.72 306.684 547.134 310.306C550.524 315.391 566.295 320.246 575.413 319.963C579.574 319.835 582.887 318.961 584.043 316.984C585.507 314.492 585.635 310.768 583.426 306.248C581.808 302.909 577.134 296.025 565.576 294.381C553.555 292.66 548.162 297.566 546.518 300.16ZM550.062 309.304C548.213 306.53 548.033 303.165 549.548 300.725C551.783 297.155 557.357 295.82 565.19 296.924C575.053 298.337 579.137 302.806 580.858 306.325C582.63 309.972 582.271 313.645 581.192 315.494C580.55 316.598 578.392 317.292 575.336 317.395C566.603 317.652 552.682 313.182 550.062 309.278V309.304Z" fill="#F6AD3C"/>
<path d="M499.053 415.945C497.666 417.024 495.688 419.849 496.407 423.445C498.359 433.256 509.84 437.468 515.08 439.215L516.749 439.806L517.648 437.391L515.876 436.775C510.739 435.054 501.159 431.818 499.489 423.47C499.104 421.595 499.489 420.208 500.722 419.284C504.806 416.099 516.441 418.051 521.501 420.799L522.605 418.488C516.749 415.354 504.113 411.989 499.053 415.919V415.945Z" fill="#F6AD3C"/>
<path d="M658.836 540.543C655.215 541.031 651.644 542.828 650.54 546.322C648.819 551.818 652.492 559.883 658.785 565.611C669.726 575.551 667.209 584.129 662.843 593.812L665.951 591.835C670.548 581.587 672.475 574.6 660.506 563.71C654.958 558.676 652.492 552.974 653.905 548.479C654.701 545.936 656.679 544.267 659.298 543.907C663.613 543.342 672.475 545.012 678.665 550.585C683.031 554.515 685.368 561.116 685.188 567.177L687.449 563.659C687.629 556.904 685.266 553.077 680.36 548.659C673.579 542.546 663.588 539.9 658.785 540.517L658.836 540.543Z" fill="#D59633"/>
<path d="M582.296 316.161C584.993 311.512 583.452 299.415 567.682 296.102C568.247 303.473 568.606 310.87 568.76 318.216C575.053 319.166 580.755 318.832 582.296 316.161Z" fill="#D59633"/>
<path d="M584.017 317.008C585.481 314.517 585.61 310.793 583.401 306.272C581.885 303.139 577.647 296.872 567.553 294.766C567.63 295.665 567.682 296.564 567.759 297.463C575.747 299.235 579.317 303.19 580.858 306.375C582.63 310.022 582.271 313.695 581.192 315.544C580.55 316.649 578.392 317.342 575.336 317.445C573.332 317.496 571.072 317.317 568.735 316.931C568.735 317.779 568.76 318.652 568.786 319.5C571.175 319.859 573.461 320.065 575.413 319.988C579.574 319.859 582.887 318.986 584.043 317.008H584.017Z" fill="#D59633"/>
<path d="M600.995 616.285C599.71 614.667 598.76 613.588 597.322 612.047C593.135 612.792 588.897 613.485 584.659 614.153C586.2 615.823 586.175 616.516 587.664 618.237C591.543 617.569 597.116 617.004 600.969 616.285H600.995Z" fill="#0E141B"/>
<path d="M503.984 626.687C523.222 625.66 541.946 624.709 560.182 622.372C559.797 620.626 559.797 619.727 559.309 617.672C543.384 619.573 527.075 620.882 510.405 621.756C508.761 624.607 506.45 624.915 503.958 626.687H503.984Z" fill="#0E141B"/>
<path d="M271.564 596.764C273.414 595.557 275.391 594.401 277.189 593.04C270.537 590.395 264.039 587.569 257.669 584.59C256.128 585.951 254.381 587.004 252.583 587.98C258.773 591.062 265.092 594.016 271.564 596.764Z" fill="#0E141B"/>
<path d="M569.813 231.787C537.887 201.993 472.161 198.68 430.654 218.354C386.631 239.21 355.63 273.627 313.995 329.132C284.021 369.123 259.133 388.335 211.976 407.47C156.061 430.123 147.251 465.08 157.884 498.881C159.965 496.749 161.788 495.414 164.305 493.513C153.492 458.043 176.66 430.201 216.317 412.94C263.73 392.29 286.024 377.701 316.589 336.94C345.715 298.105 389.585 244.347 434.173 225.803C475.371 208.671 533.932 207.823 565.344 237.155C599.839 269.364 603.922 308.61 605.284 361.058C607.801 358.669 607.852 356.101 609.984 353.66C608.058 303.267 603.845 263.559 569.813 231.813V231.787Z" fill="#0E141B"/>
<path d="M671.704 503.377C670.831 504.635 669.496 506.588 668.597 507.82C704.581 550.38 693.973 591.09 621.928 607.143C624.137 608.298 624.856 608.555 626.114 610.482C702.372 594.403 710.514 548.762 671.679 503.377H671.704Z" fill="#0E141B"/>
<path d="M299.946 514.061C299.098 513.059 297.506 511.57 296.581 510.439C285.254 512.648 275.93 515.756 267.455 518.71C268.02 519.635 268.636 520.482 269.33 521.227C278.037 518.479 288.31 516.039 299.946 514.035V514.061Z" fill="#0E141B"/>
<path d="M575.259 601.286C576.081 602.442 576.851 603.829 577.493 605.37C581.629 604.574 585.558 603.726 589.308 602.776C588.512 601.466 587.639 600.156 586.766 598.82C583.144 599.694 579.317 600.515 575.259 601.26V601.286Z" fill="#0E141B"/>
<path d="M423.771 507.69C419.687 507.202 415.629 506.791 411.597 506.432C411.365 507.896 411.006 509.257 410.543 510.567C415.269 510.978 420.047 511.44 424.85 512.031C454.182 515.498 482.28 520.558 507.785 526.748C507.349 525.284 506.989 523.82 506.758 522.33C481.099 516.192 452.974 511.158 423.771 507.716V507.69Z" fill="#0E141B"/>
<path d="M627.578 576.731C622.801 569.668 615.789 565.276 607.133 559.805C605.669 560.55 604.205 561.243 602.715 561.885C612.116 567.561 619.487 573.418 624.316 579.325C621.568 584.256 615.583 588.623 606.953 592.321C608.032 593.451 609.239 594.505 610.395 595.635C618.922 591.705 625.857 585.977 627.629 582.972C630.789 586.902 632.715 584.333 627.578 576.705V576.731Z" fill="#0E141B"/>
<path d="M516.57 607.142C516.159 608.658 515.594 610.173 514.926 611.612C528.205 611.175 540.944 610.302 552.759 609.017C551.578 607.682 550.473 606.372 549.626 604.934C539.352 605.987 528.282 606.731 516.57 607.142Z" fill="#0E141B"/>
<path d="M278.088 583.152C271.744 594.016 253.174 617.646 250.785 624.221C248.114 631.593 249.013 668.681 253.046 672.483C257.746 676.926 266.376 680.882 272.771 684.118C289.055 692.337 290.057 690.256 280.348 675.257C276.598 669.452 272.925 664.033 272.566 663.031C272.001 661.361 274.235 635.882 274.749 633.827C275.34 631.901 284.869 618.417 293.858 604.778C298.225 606.884 313.302 615.54 335.544 616.773L332.077 611.199C317.514 609.478 300.947 604.085 293.602 600.874C286.795 597.92 286.846 599.872 290.519 602.646C287.489 606.987 271.179 629.333 270.408 632.389C269.638 635.471 267.968 658.742 268.893 663.39C269.818 668.039 281.632 682.859 280.579 683.116C279.526 683.373 263.962 674.974 258.979 670.274C255.717 667.192 251.684 634.521 256.153 624.941C258.825 619.187 283.225 584.308 285.46 583.82C287.694 583.357 307.368 595.146 321.546 596.816L322.111 593.22C312.839 591.782 289.929 579.787 286.384 578.606C282.84 577.424 280.965 578.195 278.088 583.152Z" fill="#0E141B"/>
<path d="M272.386 552.074C270.742 551.047 268.816 550.405 266.761 549.686C263.165 551.663 257.772 555.028 251.762 558.958C250.58 562.425 248.577 565.379 246.83 568.153C258.08 560.576 268.996 553.769 272.386 552.074Z" fill="#0E141B"/>
<path d="M312.737 580.66C300.485 578.734 289.364 574.368 280.759 568.537C272.155 562.707 270.717 564.222 275.828 569.334C264.116 575.755 234.861 602.518 230.212 605.934C227.079 608.22 217.164 669.349 219.168 676.515C221.171 683.681 231.008 697.294 227.079 695.471C204.117 684.889 204.887 681.601 204.887 670.505C204.887 658.819 206.942 634.444 210.435 615.232C207.995 617.338 206.12 619.521 204.373 621.961C201.188 640.839 198.8 658.048 198.8 670.068C198.8 685.762 202.267 686.841 214.519 693.596C237.994 706.541 234.835 700.042 229.287 689.486C226.436 684.041 224.587 678.801 223.688 676.079C222.224 671.61 231.548 617.775 233.551 609.53C233.834 608.374 273.696 576.114 279.244 572.57C283.636 575.549 305.673 588.289 315.562 586.414L312.762 580.66H312.737Z" fill="#0E141B"/>
<path d="M267.711 521.869C270.562 528.676 273.824 532.4 271.975 524.464C277.574 526.57 281.504 529.601 287.232 534.326V529.215C280.143 523.436 271.718 519.481 270.742 518.633C268.097 511.647 252.198 483.754 240.537 482.932C241.128 484.73 241.436 486.733 242.181 488.428C250.451 491.099 265.554 516.681 267.711 521.844V521.869Z" fill="#0E141B"/>
<path d="M293.216 556.826C285.459 554.746 274.389 551.356 271.461 550.097C275.083 548.479 275.699 547.529 269.227 548.145C265.554 548.505 260.032 546.681 255.871 543.83C255.331 544.883 254.715 548.171 254.535 549.301C258.259 551.202 261.033 552.974 266.376 552.974C277.061 557.083 291.367 560.91 299.843 562.811C298.045 560.756 294.449 559.549 293.216 556.826Z" fill="#0E141B"/>
<path d="M214.339 466.595C197.901 470.5 166.643 484.318 149.871 497.956C132.123 512.365 92.4144 587.082 90.3339 614.385C87.9967 645.232 97.8338 716.173 123.981 748.792C130.119 756.446 131.66 755.521 135.642 741.112C142.499 716.275 165.179 642.458 177.302 625.506C176.531 629.693 175.221 639.35 177.328 650.42C178.997 659.204 179.665 660.72 185.367 654.684C194.613 644.872 225.204 598.332 229.236 589.83C235.426 576.808 258.748 565.173 258.748 542.776C258.748 525.054 249.296 480.337 230.803 468.419C226 465.311 219.656 465.311 214.339 466.57V466.595ZM97.577 619.136C98.2705 588.469 136.951 516.989 160.556 499.754C179.382 486.013 199.827 477.383 217.293 472.143C221.223 470.962 224.793 471.219 228.44 473.556C244.467 483.881 254.51 523.795 252.018 548.041C250.452 563.324 231.008 576.525 224.818 586.465C215.315 601.773 191.095 640.917 186.394 646.233C181.668 651.524 181.437 651.935 181 638.785C180.564 625.634 187.011 609.427 196.694 599.077C200.855 594.633 200.829 592.424 193.894 597.227C186.959 602.03 182.31 610.172 179.665 617.287C165.102 628.537 141.883 696.575 131.121 734.742C127.602 747.174 127.5 749.1 118.15 730.068C108.647 710.727 96.3955 668.707 97.5513 619.136H97.577Z" fill="#0E141B"/>
<path d="M427.701 517.195L430.706 522.666C442.932 524.464 467.512 536.793 487.161 553.231C488.881 551.561 490.782 550.097 492.708 548.941C473.65 532.889 448.942 521.074 427.701 517.195Z" fill="#0E141B"/>
<path d="M343.327 502.143C343.276 504.095 342.094 505.765 340.656 507.563C347.514 506.767 354.782 506.381 362.359 506.458C361.306 504.815 361.46 503.119 361.512 501.219C355.887 501.219 348.849 501.604 343.327 502.143Z" fill="#0E141B"/>
<path d="M446.065 545.268C448.017 526.981 427.624 512.752 410.826 507.486C409.901 509.156 409.644 510.466 408.463 511.904C431.451 518.865 442.983 531.81 440.774 546.013C434.892 584.232 324.294 586.595 298.276 557.058C286.076 543.188 282.326 521.33 302.283 515.808C300.588 514.627 299.689 514.55 298.43 512.931C279.835 517.991 278.807 538.539 291.264 557.391C314.868 593.119 441.057 591.86 446.039 545.268H446.065Z" fill="#0E141B"/>
<path d="M290.16 498.496C291.136 513.161 304.389 524.231 319.697 523.204C335.005 522.177 346.666 509.437 345.664 494.771C344.688 480.131 331.435 468.316 316.127 469.344C300.819 470.371 289.158 483.855 290.16 498.496ZM293.628 496.364C293.628 483.47 304.287 472.965 317.386 472.965C330.485 472.965 341.144 483.444 341.144 496.364C341.144 509.283 330.485 519.762 317.386 519.762C304.287 519.762 293.628 509.283 293.628 496.364Z" fill="#0E141B"/>
<path d="M372.222 474.456C359.483 483.06 355.168 499.935 364.08 512.88C372.916 525.722 391.126 529.292 403.403 520.971C416.015 512.418 418.737 494.336 410.492 482.161C402.068 469.704 384.859 465.928 372.222 474.456ZM363.618 497.572C363.618 484.01 373.789 473.377 386.785 473.377C399.782 473.377 410.775 485.372 410.775 499.036C410.775 512.7 400.167 522.46 386.631 522.46C373.943 522.46 363.618 511.287 363.618 497.572Z" fill="#0E141B"/>
<path d="M303.619 545.859C321.752 561.912 384.653 574.369 424.31 550.765C428.24 548.428 428.625 545.628 424.362 547.991C385.578 569.463 320.981 557.417 305.108 544.549C300.665 540.928 301.204 543.753 303.593 545.859H303.619Z" fill="#0E141B"/>
<path d="M525.688 594.453C518.701 596.868 512.691 598.948 509.198 599.899C508.428 599.744 505.756 599.077 504.19 596.688C503.445 595.532 503.059 594.12 503.059 592.476C503.059 591.166 503.291 589.702 503.753 588.109L500.106 588.854C498.719 593.58 500.106 597.536 501.159 599.488C502.212 601.44 505.859 604.958 508.993 604.625C512.152 604.291 519.241 600.515 526.843 597.895C532.288 596.02 538.478 594.017 544.848 592.116C544.309 590.96 543.847 589.702 543.513 588.392C537.246 590.447 531.107 592.578 525.662 594.453H525.688Z" fill="#0E141B"/>
<path d="M578.521 579.068C575.541 579.505 572.202 580.198 568.658 581.046C568.658 582.793 568.76 584.257 569.043 585.746C572.896 584.899 576.492 584.205 579.651 583.743L578.521 579.068Z" fill="#0E141B"/>
<path d="M626.422 609.067C620.566 604.367 612.45 596.841 607.159 587.03C602.613 578.58 596.936 565.095 596.577 564.273C595.241 565.147 593.726 565.635 592.082 565.866C592.75 567.022 599.145 581.482 603.743 590.061C609.393 600.54 616.996 606.653 623.109 611.559C628.04 615.514 631.636 618.417 631.636 621.653C631.636 621.756 631.636 621.858 631.636 621.961C630.532 637.012 617.124 671.84 614.479 677.799C613.118 680.856 604.308 687.38 604.256 686.352C604.205 685.325 608.777 679.212 608.931 676.387C609.239 670.813 610.113 663.442 610.96 656.301C612.321 644.846 613.195 636.678 613.195 631.233C613.195 626.944 612.655 624.324 611.422 623.091L607.133 619.136C598.118 611.071 582.964 589.932 577.467 573.083C576.003 568.588 575.002 571.337 575.618 574.881C579.06 594.71 594.882 613.973 603.691 621.833L607.827 625.66C609.676 627.791 606.106 669.965 605.284 676.207C605.053 677.876 603.28 681.215 601.457 684.452C595.524 694.931 596.654 695.316 609.059 687.919C612.758 685.71 616.2 682.911 617.818 679.289C620.618 672.996 635.823 637.474 636.979 621.73C637.364 616.439 632.176 613.691 626.448 609.093L626.422 609.067Z" fill="#0E141B"/>
<path d="M594.753 625.249L591.029 620.24C584.634 611.559 571.124 594.068 566.86 571.697C566.449 569.513 565.935 567.69 565.37 566.123H560.028C560.798 568.024 561.543 570.669 562.468 574.393C568.093 597.201 580.293 613.768 586.868 622.68L590.618 627.74C594.086 632.261 596.885 635.934 596.885 641.071C596.885 643.408 596.294 646.079 594.933 649.264L583.555 676.746C577.493 691.618 569.814 709.289 568.093 711.061C566.321 712.499 542.357 717.457 540.071 716.866C538.453 716.455 548.675 707.311 553.299 703.536C561.363 696.935 572.305 658.305 572.305 641.507C572.305 638.245 571.894 635.805 570.969 634.572C566.449 628.537 545.824 593.323 542.896 576.808C542.023 571.876 540.071 568.82 540.225 579.479C540.585 602.338 563.547 631.259 567.528 636.576C570.61 640.685 559.411 692.054 550.319 700.248C546.903 703.33 543.667 706.335 540.739 709.083C526.664 722.362 526.972 722.799 547.597 720.051C557.614 718.715 569.48 716.66 571.406 714.734C573.512 712.628 578.264 699.298 586.894 678.108L599.762 649.136C604.976 637.012 599.865 631.978 594.753 625.275V625.249Z" fill="#0E141B"/>
<path d="M464.25 592.681C465.483 595.968 470.569 599.641 477.144 597.432C483 595.48 533.932 581.379 543.487 584.487L542.46 581.071C532.648 577.886 479.404 593.091 475.68 594.145C472.187 595.146 468.565 594.145 467.127 590.96C465.483 587.39 468 580.249 472.033 579.453L471.313 575.883C467.486 576.653 460.834 583.434 464.25 592.655V592.681Z" fill="#0E141B"/>
<path d="M448.402 550.173C446.091 554.694 446.938 559.317 450.817 563.195C459.935 572.313 470.003 580.07 470.363 580.25L470.286 573.855C470.286 573.855 462.118 569.334 453.385 560.627C450.637 557.879 450.046 554.925 451.639 551.843C453.693 547.862 458.471 545.37 460.089 545.627C462.709 546.064 467.743 548.375 472.597 550.61L481.535 554.565L486.338 552.331C486.338 552.331 479.609 549.326 474.986 547.374C470.388 545.422 463.787 542.571 460.68 542.057C456.904 541.441 450.842 545.447 448.402 550.173Z" fill="#0E141B"/>
<path d="M484.746 549.248C477.991 552.818 470.414 557.107 468.822 563.4C467.538 568.511 467.024 576.14 470.697 581.405C472.957 584.616 478.685 587.775 482.923 587.441C496.407 586.388 509.814 575.369 512.177 573.802C517.802 574.804 540.893 575.215 551.192 564.042L546.132 562.167C537.528 569.719 523.838 571.234 511.356 570.72C498.873 570.232 499.952 571.825 506.681 573.058C501.544 576.602 495.38 581.174 482.46 583.434C478.454 582.997 475.885 581.585 473.985 579.35C472.11 577.116 471.673 571.696 473.394 564.582C475.115 557.441 480.842 556.568 486.904 553.357C491.065 551.174 494.455 549.813 497.717 546.808L496.869 541.748C493.171 545.96 488.805 547.09 484.721 549.248H484.746Z" fill="#0E141B"/>
<path d="M494.994 553.383C495.688 561.32 497.024 561.782 497.743 555.104C498.899 544.342 504.369 529.933 508.402 525.233L507.169 520.07C502.828 525.104 493.608 537.433 495.02 553.383H494.994Z" fill="#0E141B"/>
<path d="M671.037 259.731C665.206 258.216 656.499 267.231 646.457 288.318C622.339 338.994 619.745 346.494 574.976 384.79L577.519 388.334C622.698 359.028 641.525 312.77 653.314 289.192C660.763 274.269 664.667 268.618 668.16 269.106C676.379 270.211 699.213 328.463 702.757 385.2C705.557 430.02 680.155 511.389 632.433 542.082C588.461 570.335 564.189 567.972 532.263 553.126C502.957 539.488 507.734 510.284 511.433 497.262L507.94 493.589C501.416 511.928 498.847 540.464 530.414 557.082C565.345 575.472 592.159 574.65 637.595 545.447C686.679 513.906 712.44 430.2 709.82 384.276C705.968 316.212 682.261 262.634 671.037 259.731Z" fill="#0E141B"/>
<path d="M548.778 344.055C540.379 356.589 531.415 373.078 526.201 386.742C520.011 403.001 508.582 458.479 506.373 474.044C504.087 490.071 512.897 514.472 514.951 517.888C517.006 521.304 519.395 522.383 517.7 516.526C516.004 510.67 510.02 488.684 512.203 473.428C514.412 458.017 526.278 404.156 532.391 388.104C538.812 371.229 550.602 348.344 559.745 339.2C562.006 336.94 565.036 334.577 565.216 339.74C565.396 344.876 567.502 365.732 567.502 365.732C568.401 373.463 570.327 378.909 572.356 384.688C575.695 394.114 583.324 405.492 582.373 431.69C581.629 451.827 577.391 469.755 567.964 486.424C563.495 494.284 556.792 502.682 550.679 509.258C543.127 517.4 544.335 518.478 553.761 510.645C558.949 506.33 566.475 498.29 571.663 489.455C581.937 471.989 589.257 448.95 588.872 428.249C588.409 402.821 582.63 394.345 578.572 385.432C573.409 374.054 570.507 358.412 569.711 340.048C568.992 323.301 561.517 325.074 548.778 344.08V344.055Z" fill="#0E141B"/>
<path d="M500.696 589.008C471.904 631.003 422.538 629.487 397.47 626.123C339.474 618.34 315.048 593.298 310.425 567.562C308.858 566.92 307.06 566.611 305.417 566.098C311.684 597.664 331.692 620.677 396.571 631.105C440.543 638.169 484.669 623.785 502.237 592.168L500.722 589.034L500.696 589.008Z" fill="#0E141B"/>
<path d="M329.046 602.826C341.991 622.166 358.584 638.065 383.446 644.846C464.121 666.832 515.054 629.769 516.03 599.641C518.393 598.896 519.112 598.228 521.475 597.74C521.141 640.454 455.825 669.785 385.681 651.19C349.851 641.687 331.435 617.209 323.036 598.947L329.098 602.851L329.046 602.826Z" fill="#0E141B"/>
</g>
<defs>
<clipPath id="clip0_42_62547">
<rect width="620" height="547.57" fill="white" transform="translate(90 206)"/>
</clipPath>
</defs>
</svg>
