<svg width="800" height="800" viewBox="0 0 800 800" fill="none" xmlns="http://www.w3.org/2000/svg">
<g clip-path="url(#clip0_42_62635)">
<path d="M487.214 626.962C483.043 634.061 478.95 642.545 482.823 656.082C486.71 669.619 493.07 677.473 501.018 683.077C535.931 707.695 590.723 695.15 601.568 686.729C605.928 683.36 609.832 678.858 609.832 678.858C609.832 678.858 615.656 675.647 617.922 670.642C630.294 643.443 589.369 634.392 564.578 637.54C554.52 638.815 539.535 641.743 531.634 640.058C523.732 638.374 523.464 637.335 519.151 635.084C514.839 632.849 502.766 625.152 499.618 624.475C496.454 623.799 488.489 624.759 487.198 626.947L487.214 626.962Z" fill="#E9B77D"/>
<path d="M612.602 646.591C614.57 656.429 605.519 667.447 605.519 667.447C577.202 702.548 515.153 650.557 551.419 639.539C544.226 640.72 537.678 641.333 531.649 640.043C523.748 638.359 523.48 637.32 519.167 635.069C514.854 632.834 502.781 625.137 499.633 624.46C496.469 623.783 488.505 624.743 487.214 626.931C483.043 634.03 478.95 642.514 482.823 656.051C486.71 669.587 493.274 677.159 501.018 683.046C530.862 705.727 598.546 698.408 609.832 678.434C627.382 667.903 618.489 649.314 612.586 646.559L612.602 646.591Z" fill="#C49A6A"/>
<path d="M552.254 639.32C551.986 639.399 551.687 639.462 551.419 639.541C551.719 639.493 552.033 639.431 552.348 639.383C552.317 639.368 552.285 639.336 552.254 639.32Z" fill="#C49A6A"/>
<path d="M611.233 673.587C608.526 663.151 594.328 657.862 583.719 659.767C580.24 660.396 579.862 661.97 584.537 662.207C612.886 663.67 615.924 683.204 587.685 690.539C553.906 699.307 496.8 701.62 484.964 656.005C479.659 635.558 485.971 622.163 502.656 629.309C527.998 640.154 532.326 643.664 547.547 641.225C611.233 630.993 636.213 658.02 607.361 678.734L604.732 683.456C625.494 681.048 643.107 638.124 575.03 635.637C561.84 635.164 540.181 639.147 534.199 637.62C528.202 636.093 512.966 629.136 506.433 625.516C490.3 616.575 477.062 625.547 478.463 641.728C483.138 695.97 532.515 709.113 587.371 694.868C604.055 690.539 614.287 685.282 611.249 673.571L611.233 673.587Z" fill="#0E141B"/>
<path d="M250.573 702.47C265.133 716.637 273.003 719.785 306.845 725.687C347.534 732.786 379.66 724.475 388.302 711.521C397.526 697.685 359.261 677.49 319.438 666.267C306.247 662.552 275.648 662.663 267.888 662.726C241.947 662.946 219.722 679.851 250.573 702.47Z" fill="#E9B77D"/>
<path d="M387.908 711.914C392.63 704.437 389.089 697.747 377.677 691.058C357.529 679.252 329.181 668.974 297.401 664.299C314.951 678.528 297.794 721.924 252.934 691.058C243.49 689.877 234.439 678.465 244.67 668.627C242.97 669.965 236.391 676.183 235.62 677.678C231.984 684.746 237.052 695.024 249.88 702.454L260.411 711.52C260.411 711.52 278.024 720.823 301.729 724.506C325.434 728.189 347.927 728.819 362.723 725.686C375.709 722.932 383.642 718.666 387.908 711.914Z" fill="#C49A6A"/>
<path d="M252.934 701.558L255.028 706.28C207.287 686.872 234.565 640.689 320.46 668.959C381.234 688.965 392.788 694.884 391.702 705.76C388.569 737.603 300.99 735.352 262.677 714.811C240.106 702.722 250.668 683.393 263.732 682.606C267.352 682.386 269.682 683.661 266.282 684.18C248.653 686.903 249.298 703.195 264.708 711.128C305.35 732.062 386.429 730.677 387.751 705.225C388.239 695.781 366.344 688.273 319.296 672.926C237.949 646.387 217.298 685.55 252.903 701.542L252.934 701.558Z" fill="#0E141B"/>
<path d="M237.713 406.724C233.479 409.195 231.653 411.257 242.435 412.752C233.778 415.9 215.645 425.99 210.955 429.154C206.264 432.302 209.302 433.23 214.496 435.056C214.905 435.198 221.312 437.559 222.366 437.811C219.879 441.762 205.902 459.879 201.542 466.663C196.898 473.904 200.865 472.314 204.265 471.653C207.508 471.023 214.418 468.914 216.07 468.505C206.658 487.047 199.826 506.707 196.174 520.118C193.577 529.625 197.418 530.081 201.18 527.358C204.926 524.619 210.278 519.582 211.065 518.858C210.419 525.375 209.333 543.461 208.893 551.189C208.31 561.184 211.883 557.942 214.984 554.526C218.022 551.173 224.413 541.147 226.317 538.975C226.758 544.909 227.419 568.472 227.765 575.398C228.206 584.37 230.189 581.867 235.903 577.539C240.106 604.03 241.869 616.89 243.978 629.309C245.284 637.006 247.252 640.185 250.18 630.363C251.785 624.964 254.996 610.168 255.453 608.642C257.782 617.267 258.916 626.68 259.64 629.545C261.655 637.509 262.536 637.195 265.747 631.402C266.802 629.498 269.226 623.988 269.226 623.988C276.309 640.516 292.144 669.179 298.345 677.899C304.547 686.62 306.924 685.691 305.775 678.12C304.72 671.147 305.004 666.739 305.035 666.488C318.414 679.08 334.548 693.246 348.258 703.446C354.853 708.357 354.114 707.586 353.437 701.51C352.65 694.427 351.076 687.344 349.502 678.293C357.765 684.589 365.242 690.492 374.686 696.001C379.77 698.976 380.148 700.392 380.809 695.261C381.093 693.105 381.77 687.737 381.77 687.737C388.239 691.688 389.64 693.64 392.457 695.277C396.707 697.748 397.085 699.495 398.297 694.82C398.565 693.781 399.399 687.218 399.871 686.163C401.162 687.155 408.875 697.181 409.315 697.575C412.463 700.329 412.259 696.993 415.013 690.696C418.744 692.853 423.67 696.205 426.819 698.567C431.147 701.809 430.738 700.912 433.508 695.812C435.869 691.483 438.026 687.753 442.354 680.276C442.937 681.425 444.794 687.989 446.557 688.178C448.32 688.367 452.649 678.781 454.16 676.735C454.726 678.324 456.411 683.55 456.914 685.785C458.063 690.901 460.062 689.72 461.243 686.179C462.423 682.637 463.069 679.033 464.784 675.161C469.522 683.582 471.506 676.373 474.622 662.301C476.59 667.684 478.557 673.586 479.313 679.694C479.895 684.337 482.083 678.104 483.673 671.619C487.435 677.679 488.222 681.897 490.363 677.522C496.926 664.142 500.594 656.272 504.797 643.947C505.458 645.757 508.385 656.571 509.251 659.814C510.825 665.716 511.817 668.88 512.919 668.864C514.036 668.864 515.264 664.252 516.334 660.207L518.963 648.921C518.994 648.827 524.252 658.224 525.778 657.846C526.833 657.578 527.872 639.745 528.659 631.874C533.113 638.438 536.262 639.745 536.262 635.022C536.088 631.04 535.27 617.582 535.207 616.653C541.676 621.045 546.225 624.791 553.308 629.513C553.97 629.954 552.773 621.58 552.789 620.856C555.937 625.578 558.031 628.726 561.116 632.252C562.721 634.094 562.469 628.585 563.555 626.759C565.759 629.324 569.852 635.809 570.245 629.513C570.245 629.466 571.032 607.083 570.639 596.065C576.4 601.952 578.902 605.509 579.469 600.331C579.689 598.19 579.249 581.001 579.296 580.718C580.02 581.064 583.388 583.583 584.411 584.653C591.353 591.925 588.772 586.4 587.339 579.884C584.758 568.126 582.444 559.862 579.689 547.663C580.492 548.466 589.417 559.295 591.495 562.617C596.154 570.078 599.223 571.384 597.004 561.436C595.32 553.896 592.046 538.786 592.282 539.006C595.949 542.516 600.152 545.696 598.578 538.219C597.602 533.56 587.04 494.02 587.56 493.752C588.142 493.863 593.415 497.262 595.036 497.687C602.135 499.576 601.852 498.569 598.2 492.241C593.525 484.135 585.986 475.257 580.87 468.568C588.74 473.29 598.452 477.839 604.921 479.712C612.477 481.679 613.925 480.153 609.722 474.329C596.484 455.991 578.32 435.387 564.342 413.476C568.278 413.099 571.961 411.729 566.404 405.401C564.705 403.623 556.52 395.422 556.472 395.375C558.66 394.95 565.381 393.517 568.671 393.014C574.889 392.069 573.928 390.889 569.191 387.646C561.43 382.373 541.771 370.269 536.01 366.649C536.057 366.649 540.055 366.35 540.606 366.082C543.534 364.65 542.4 363.674 537.049 361.014C531.366 358.196 513.942 351.396 510.432 349.712C512.95 348.531 522.001 345.808 525.133 344.392C532.232 341.181 530.8 338.048 522.63 337.513C501.995 336.159 490.488 337.781 475.409 337.513C475.472 337.025 478.4 334.522 478.951 333.153C481.69 326.306 478.982 327.156 473.457 329.076C465.414 331.862 443.755 339.323 437.711 341.338C435.287 342.157 435.208 342.456 436.074 339.559C436.609 337.781 437.412 335.42 438.041 333.657C440.969 325.377 436.216 326.274 430.659 329.942C425.103 333.609 403.79 345.698 398.171 349.381C391.104 354.025 387.42 354.89 390.317 346.595C400.642 317.051 408.985 290.245 412.054 273.371C413.628 264.714 414.415 259.598 412.448 258.418C410.449 257.221 404.546 264.824 402.216 267.862C380.18 296.588 371.523 311.148 355.2 345.698C351.532 353.458 351.312 351.254 347.817 347.351C332.172 329.91 314.007 311.903 296.756 300.523C285.218 292.921 284.62 297.564 286.918 302.097C295.984 319.963 311.709 345.604 323.388 366.554C322.885 366.507 322.302 366.397 321.877 366.208C320.838 365.751 319.737 365.909 319.013 366.617C318.54 367.074 318.304 367.687 318.304 368.364C318.304 368.742 318.383 369.136 318.54 369.529L319.784 372.079C320.697 373.905 322.617 377.73 323.373 379.587C320.76 380.075 313.33 379.697 307.79 379.461C303.555 379.288 281.487 377.147 280.527 377.022C270.752 375.684 268.25 375.825 273.161 383.176C274.483 385.159 277.521 390.338 276.702 390.653C266.471 394.588 258.207 397.736 237.745 406.787L237.713 406.724Z" fill="#0E141B"/>
<path d="M220.084 427.768C216.133 430.333 215.142 431.545 216.668 432.002C218.179 432.443 223.988 435.512 226.113 436.205C221.973 443.319 216.07 452.37 210.561 459.847C204.501 468.063 206.831 467.433 211.569 466.08C219.612 463.782 220.966 465.639 219.045 470.204C212.875 484.827 207.24 497.592 200.157 522.509C201.211 523.029 212.607 510.783 214.323 512.01C216.039 513.238 213.426 547.584 214.606 547.835C215.787 548.087 225.53 531.245 228.222 531.938C230.929 532.63 231.701 576.798 232.676 576.278C234.707 575.177 237.729 570.407 238.705 576.798C238.988 578.671 245.048 619.14 245.19 620.777C245.93 629.119 248.338 628.647 250.699 617.235C251.628 612.749 252.871 606.705 253.658 603.289C254.666 598.96 256.665 599.527 258.113 605.131C258.585 606.956 261.56 622.067 261.717 623.138C262.567 628.82 264.629 627.01 266.77 622.713C268.407 619.454 269.965 618.337 272.012 622.476C280.937 640.546 292.285 662.567 302.249 678.229C302.249 678.229 302.8 668.895 302.485 663.732C302.312 660.93 302.343 659.624 306.971 664.063C323.577 679.945 336.421 690.459 349.47 699.872C349.47 699.872 346.747 680.936 345.992 678.056C344.78 673.349 345.535 671.571 350.446 675.175C353.547 677.442 376.685 693.277 376.685 693.277C376.685 693.277 378.071 688.161 378.259 686.713C378.621 683.911 380.164 682.164 383.501 684.352C385.264 685.517 395.574 692.49 395.574 692.49C395.574 692.49 397.29 682.589 398.927 682.432C400.564 682.29 408.937 690.853 410.26 692.742C410.26 692.742 412.196 688.618 413.864 687.689C415.564 686.745 428.424 695.559 428.424 695.559C428.424 695.559 439.915 675.427 443 675.459C446.085 675.506 447.045 681.582 447.045 681.582C447.045 681.582 452.475 669.918 454.711 669.902C456.946 669.887 459.37 681.062 459.37 681.062C459.37 681.062 463.116 671.083 464.438 670.737C465.745 670.39 467.508 673.192 467.508 673.192C467.508 673.192 471.144 656.68 474.433 656.397C477.707 656.098 479.895 664.488 480.918 669.54C480.918 669.54 481.941 667.038 483.327 666.959C484.712 666.88 488.175 672.688 488.175 672.688C488.175 672.688 501.035 646.307 502.136 644.072C504.482 639.271 506.355 638.563 507.646 643.553C508.464 646.701 513.155 660.08 513.155 660.08C513.155 660.08 516.366 644.403 518.003 644.245C519.64 644.104 523.244 649.33 523.244 649.33C523.244 649.33 525.448 631.968 525.826 629.072C526.188 626.175 528.628 625.829 529.415 626.742C530.217 627.655 532.83 633.07 532.83 633.07C532.83 633.07 532.342 617.203 532.043 613.914C531.76 610.624 535.097 612.292 537.552 614.181C539.992 616.07 550.145 623.106 550.145 623.106C550.145 623.106 548.051 615.126 549.625 614.716C551.199 614.307 561.431 627.576 561.431 627.576C561.431 627.576 561.179 623.122 562.218 622.854C563.272 622.587 566.94 626.789 566.94 626.789C566.94 626.789 567.066 597.134 567.821 594.695C568.592 592.255 571.064 591.059 572.197 592.16C573.33 593.262 575.046 595.623 575.046 595.623C575.046 595.623 575.833 588.981 575.424 586.289C574.999 583.598 575.282 578.214 576.4 577.081C577.501 575.948 580.712 575.397 583.042 577.868C583.042 577.868 576.463 554.667 576.274 548.56C576.085 542.452 580.35 541.634 583.199 545.081C586.049 548.544 591.715 556.304 592.77 558.271C592.77 558.271 588.945 541.35 588.646 538.076C588.347 534.802 589.118 532.363 591.038 533.26C592.943 534.157 594.076 535.275 594.076 535.275C594.076 535.275 584.474 497.199 583.845 493.72C583.231 490.241 586.599 489.454 588.803 490.194C589.858 490.54 594.58 493.295 594.58 493.295C594.58 493.295 579.988 473.446 577.722 470.125C575.455 466.788 575.565 462.774 579.973 464.789C589.921 469.338 595.76 472.455 605.992 475.603C605.992 475.603 564.122 420.071 562.375 416.608C559.447 410.784 561.021 409.225 564.925 408.942C564.925 408.942 557.653 401.859 553.907 397.137C551.671 394.304 551.546 392.305 554.489 391.832C557.448 391.344 566.593 390.306 566.593 390.306C554.284 382.388 547.595 377.572 536.97 370.189C530.548 365.719 532.248 363.311 534.609 363.5C536.97 363.688 520.443 357.219 511.203 353.473C504.907 350.923 500.484 350.356 507.661 347.381C514.666 344.469 516.444 343.651 519.86 340.755C519.86 340.755 482.477 340.267 479.454 340.487C476.432 340.707 468.295 341.857 469.129 339.669C469.963 337.496 476.306 331.043 476.306 331.043C476.306 331.043 438.325 344.91 435.255 345.996C430.974 347.492 428.739 347.177 429.4 344.029C430.281 339.889 432.894 332.617 432.894 332.617C432.894 332.617 401.917 352.198 395.054 354.827C388.176 357.455 380.746 360.147 384.965 348.09C393.087 324.92 401.744 296.587 406.466 280.453C411.393 263.611 409.85 263.737 397.022 281.634C382.069 302.49 372.231 319.804 358.127 350.325C354.696 357.754 350.556 358.116 346.779 353.63C336.547 341.432 316.872 320.056 302.957 309.557C294.489 303.167 290.507 301.719 294.694 309.164C301.777 321.756 327.811 362.508 331.715 371.952C332.234 373.196 325.199 370.095 323.483 369.985C323.483 369.985 329.559 381.333 328.598 382.986C327.623 384.639 275.412 380.389 275.412 380.389C275.412 380.389 282.353 391.88 280.527 392.588C265.18 398.491 258.097 401.245 242.294 409.21C242.294 409.21 251.722 412.799 244.922 415.238C235.667 418.56 228.19 422.495 220.005 427.799L220.084 427.768Z" fill="#69318E"/>
<path d="M363.558 581.411C359.087 580.325 336.642 578.326 327.559 600.819C317.297 626.224 339.192 647.049 353.704 646.923C362.897 646.844 363.101 641.854 359.402 637.605C357.812 635.779 353.956 630.616 353.956 630.616C355.467 631.057 359.481 631.419 363.542 630.931C373.978 629.656 377.331 623.123 367.981 613.553C364.927 610.421 359.324 607.131 359.575 605.935C359.827 604.754 365.494 606.077 371.192 605.431C376.906 604.786 380.935 601.417 380.573 596.286C380.195 590.887 374.702 584.103 363.558 581.396V581.411Z" fill="#5C287D"/>
<path d="M437.616 560.508C425.402 563.672 416.603 574.816 415.548 586.197C414.871 593.658 421.262 597.766 426.283 594.507C429.148 592.65 432.737 589.203 435.413 586.543C439.127 582.86 441.142 583.867 440.748 587.676C440.512 589.974 436.53 600.52 436.388 606.439C436.247 612.357 442.826 613.994 447.407 612.247C451.987 610.5 459.275 601.89 460.849 602.598C462.439 603.306 460.298 608.06 458.85 614.309C457.402 620.558 464.312 622.777 469.27 619.251C481.154 610.799 485.089 601.103 481.327 586.653C475.251 563.231 455.088 555.959 437.6 560.508H437.616Z" fill="#5C287D"/>
<path d="M351.752 526.666C347.109 529.499 345.881 537.527 345.929 539.731C346.18 550.324 345.803 563.735 355.247 571.211C364.219 578.31 365.919 575.367 364.959 566.757C364.392 561.688 365.824 550.875 370.2 550.497C388.05 548.907 397.762 546.2 412.967 538.424C418.901 535.402 421.498 547.994 424.646 555.077C428.408 563.53 430.643 564.317 436.452 552.323C445.313 534.017 442.15 516.891 432.123 511.398C412.951 500.883 375.048 512.452 351.768 526.666H351.752Z" fill="#5C287D"/>
<path d="M372.892 487.235C394.472 481.632 413.974 491.312 419.231 511.586C422.49 524.162 408.544 536.188 384.949 542.311C361.354 548.434 345.456 541.083 341.584 526.145C336.704 507.351 355.247 491.816 372.892 487.235Z" fill="#0E141B"/>
<path d="M374.34 490.761C387.688 487.236 411.157 490.211 414.541 510.043C416.335 520.574 402.688 534.677 385.421 539.163C362.582 545.097 348.053 536.786 344.228 523.423C340.75 511.224 356.333 495.499 374.324 490.761H374.34Z" fill="#E60021"/>
<path d="M357.922 577.317C372.624 580.89 375.63 586.132 376.103 592.696C376.449 597.827 371.27 600.723 365.557 601.369C359.843 602.014 354.192 600.676 353.94 601.872C353.688 603.053 359.308 606.358 362.346 609.475C371.68 619.045 368.343 625.593 357.907 626.852C353.846 627.34 349.832 626.994 348.305 626.538C348.305 626.538 352.162 631.7 353.751 633.526C356.553 636.753 355.798 643.395 348.148 643.458C327.465 643.647 312.291 619.832 321.247 597.622C330.33 575.114 353.436 576.247 357.907 577.333L357.922 577.317Z" fill="#0E141B"/>
<path d="M358.914 580.876C376.244 585.393 372.01 597.419 364.691 597.922C360.299 598.222 349.438 597.419 348.399 599.922C347.376 602.424 355.105 608.531 357.623 610.688C368.972 620.353 358.694 626.176 347.738 622.21C342.796 620.416 342.308 624.555 345.393 627.514C358.174 639.713 348.966 643.963 336.862 636.235C308.356 618.039 328.016 572.848 358.898 580.876H358.914Z" fill="#E9B77D"/>
<path d="M410.323 580.608C408.339 587.88 416.949 592.823 420.648 590.43C423.529 588.557 427.102 585.126 429.778 582.466C433.492 578.782 435.507 579.79 435.114 583.599C434.878 585.897 430.643 594.853 430.486 600.772C430.313 607.949 435.57 610.657 440.827 608.658C445.408 606.91 453.624 597.828 455.198 598.521C456.772 599.229 454.647 603.983 453.199 610.232C451.924 615.709 458.173 621.392 465.005 615.489C485.971 597.435 478.541 573.871 461.935 561.672C444.023 548.514 416.493 557.942 410.307 580.608H410.323Z" fill="#0E141B"/>
<path d="M459.181 564.285C473.93 573.635 481.564 594.523 463.195 612.75C459.842 616.087 455.403 613.222 456.426 609.602C457.449 605.982 458.284 603.809 458.772 600.315C459.26 596.836 456.222 593.704 451.909 596.506C447.596 599.292 440.89 605.793 437.522 604.707C434.169 603.62 433.854 599.213 435.46 594.601C437.066 589.989 438.136 584.401 438.435 581.238C438.97 575.681 434.783 573.698 430.187 577.507C426.724 580.356 422.915 583.913 421.325 585.409C417.532 588.935 412.747 585.173 414.147 581.033C421.687 558.871 445.093 555.329 459.181 564.269V564.285Z" fill="#E9B77D"/>
<path d="M229.056 315.823C213.709 311.494 201.904 308.346 188.918 298.115C174.846 287.033 160.758 284.358 143.664 285.522C128.664 286.545 116.213 295.36 117.031 305.198C118.023 317.098 131.261 324.134 142.484 326.841C157.61 330.493 168.786 328.903 179.474 324.086C195.214 317.003 217.644 325.267 231.023 329.595C273.696 343.4 322.648 386.151 335.241 407.101C343.961 421.614 355.766 414.846 348.966 399.137C337.964 373.669 277.001 329.344 229.056 315.823Z" fill="#0E141B"/>
<path d="M345.268 401.734C324.648 365.516 270.8 330.556 222.366 317.397C209.711 313.966 200.613 311.699 186.951 301.657C157.784 280.234 122.336 290.749 121.754 304.679C121.36 314.123 134.378 321.364 146.419 323.3C160.9 325.63 171.745 322.198 185.77 317.791C193.058 315.493 205.713 318.31 217.267 321.207C260.159 331.926 317.124 371.167 339.145 405.638C346.086 416.515 349.376 408.944 345.268 401.75V401.734Z" fill="#DDDCD6"/>
<path d="M541.062 229.125C543.895 223.097 542.164 212.802 529.697 210.756C511.848 207.828 481.925 212.96 471.851 234.367C465.555 247.746 462.029 253.901 447.847 264.274C415.202 288.168 381.958 342.456 369.932 392.29C365.95 408.802 379.88 413.776 384.697 398.067C404.105 334.712 429.526 295.408 462.407 270.176C473.189 261.047 483.263 257.002 495.336 257.002C519.923 257.002 534.451 243.15 541.062 229.11V229.125Z" fill="#0E141B"/>
<path d="M459.259 259.944C466.846 254.231 471.175 244.881 474.213 238.695C483.232 220.342 505.583 213.148 525.762 214.958C538.166 216.06 538.544 223.82 535.207 230.179C526.329 247.069 511.816 251.067 496.375 252.735C483.846 254.105 477.644 254.341 465.555 262.699C428.487 288.324 401.413 332.35 380.557 397.578C378.338 405.165 371.601 403.497 373.474 395.312C388.821 328.415 430.989 281.21 459.259 259.944Z" fill="#DDDCD6"/>
<path d="M414.541 510.043C414.21 508.091 413.675 506.313 412.982 504.676C398.486 527.751 382.068 539.541 349.108 532.41C355.876 540.076 368.311 543.618 385.421 539.179C402.688 534.693 416.335 520.589 414.541 510.059V510.043Z" fill="#C7001A"/>
<path d="M399.997 500.804C407.3 495.988 420.758 498.05 427.243 506.865C439.82 523.943 437.742 547.317 427.841 552.905C426 553.944 422.474 553.582 421.12 551.205C411.361 534.017 404.136 528.508 397.116 521.661C391.638 516.325 392.992 505.432 400.012 500.804H399.997Z" fill="#0E141B"/>
<path d="M348.699 517.159C354.586 517.206 361.984 523.329 361.968 531.435C361.968 539.526 358.096 549.615 357.324 554.416C356.553 559.217 357.372 573.289 353.122 573.856C343.882 575.083 331.762 560.319 330.802 544.925C329.684 526.729 338.058 517.08 348.714 517.159H348.699Z" fill="#0E141B"/>
<path d="M357.655 533.183C357.655 538.802 353.925 550.009 353.421 553.913C352.917 557.817 352.902 567.828 351.91 568.567C350.478 569.622 347.046 569.213 344.638 566.852C337.712 560.083 334.832 553.708 334.296 543.005C333.069 518.151 357.687 515.129 357.655 533.183Z" fill="#DDDCD6"/>
<path d="M403.035 503.275C410.102 498.742 419.657 503.433 423.497 508.643C433.713 522.526 434.327 547.002 425.591 549.143C423.702 549.599 414.51 533.009 410.086 528.806C405.663 524.603 400.926 521.487 398.927 517.032C396.487 511.555 398.407 506.234 403.019 503.275H403.035Z" fill="#DDDCD6"/>
<path d="M423.497 508.642C421.435 505.825 417.689 503.196 413.597 502.047C426.283 523.533 429.258 537.069 423.183 546.986C424.3 548.402 425.15 549.268 425.607 549.158C434.343 547.017 433.729 522.541 423.513 508.658L423.497 508.642Z" fill="#B5B5B0"/>
<path d="M353.405 553.912C353.909 550.008 357.623 538.801 357.639 533.182C357.639 528.806 356.128 525.705 353.861 523.848C353.562 529.136 348.337 546.372 349.013 551.677C349.706 557.123 348.463 563.388 346.715 568.314C348.73 569.306 350.855 569.337 351.91 568.566C352.901 567.842 352.917 557.815 353.421 553.912H353.405Z" fill="#B5B5B0"/>
<path d="M326.709 625.641C328.96 629.654 332.282 633.306 336.894 636.234C344.213 640.909 350.462 641.192 351.438 637.997C349.203 636.816 346.904 636.218 344.37 635.714C338.153 634.471 333.116 631.795 326.709 625.641Z" fill="#C49A6A"/>
<path d="M591.085 533.261C592.99 534.158 594.123 535.275 594.123 535.275C594.123 535.275 588.661 513.617 585.702 501.481C531.996 467.623 498.815 527.909 506.386 557.076C512.021 578.798 501.334 619.88 491.401 636.754C487.262 643.806 475.22 638.281 469.632 639.729C464.045 641.177 465.257 660.27 461.762 661.167C458.268 662.08 449.815 658.302 444.936 659.562C439.411 660.994 428.692 678.45 420.396 690.492C423.623 692.333 427.086 694.568 428.471 695.513C429.18 694.269 440.025 675.444 443.015 675.475C446.101 675.522 447.061 681.598 447.061 681.598C447.061 681.598 452.491 669.935 454.726 669.919C456.961 669.903 459.385 681.079 459.385 681.079C459.385 681.079 463.132 671.099 464.454 670.753C465.76 670.407 467.523 673.209 467.523 673.209C467.523 673.209 471.159 656.697 474.449 656.414C477.723 656.114 479.911 664.504 480.934 669.557C480.934 669.557 481.957 667.054 483.342 666.975C484.728 666.897 488.19 672.705 488.19 672.705C488.19 672.705 501.05 646.324 502.152 644.089C504.497 639.288 506.371 638.58 507.661 643.569C508.48 646.718 513.17 660.097 513.17 660.097C513.17 660.097 516.381 644.419 518.018 644.262C519.655 644.12 523.26 649.346 523.26 649.346C523.26 649.346 525.464 631.984 525.841 629.088C526.203 626.192 528.643 625.846 529.43 626.759C530.233 627.672 532.846 633.086 532.846 633.086C532.846 633.086 532.358 617.22 532.059 613.93C531.776 610.64 535.113 612.309 537.568 614.198C540.008 616.087 550.16 623.123 550.16 623.123C550.16 623.123 548.067 615.142 549.641 614.733C551.215 614.324 561.446 627.593 561.446 627.593C561.446 627.593 561.194 623.138 562.233 622.871C563.288 622.603 566.955 626.806 566.955 626.806C566.955 626.806 567.081 597.151 567.837 594.711C568.608 592.271 571.079 591.075 572.213 592.177C573.346 593.279 575.062 595.64 575.062 595.64C575.062 595.64 575.849 588.997 575.439 586.306C575.014 583.614 575.298 578.231 576.415 577.098C577.517 575.964 580.728 575.413 583.058 577.885C583.058 577.885 576.478 554.683 576.289 548.576C576.101 542.469 580.366 541.65 583.215 545.097C586.064 548.56 591.731 556.32 592.785 558.288C592.785 558.288 588.96 541.367 588.661 538.093C588.362 534.819 589.134 532.379 591.054 533.276L591.085 533.261Z" fill="#5C287D"/>
<path d="M472.025 579.537C469.916 591.547 464.454 603.84 456.379 611.459C456.977 614.056 460.456 615.488 463.21 612.765C474.465 601.589 475.944 589.438 472.025 579.537Z" fill="#C49A6A"/>
<path d="M303.681 423.109C327.748 416.876 345.393 430.271 349.47 445.996C357.34 476.296 337.271 533.056 301.367 541.949C279.362 547.411 262.709 525.264 258.695 503.511C252.336 469.008 277.505 429.893 303.665 423.109H303.681Z" fill="#0E141B"/>
<path d="M305.208 426.98C323.671 422.195 341.773 430.176 346.322 447.711C354.554 479.412 330.802 529.875 301.493 537.478C284.069 541.996 268.375 528.254 262.079 503.967C254.209 473.619 280.197 433.481 305.224 426.98H305.208Z" fill="#E60044"/>
<path d="M427.542 383.71C462.596 374.612 503.49 404.676 511.077 435.307C518.947 467.087 499.728 495.782 474.748 502.944C435.35 514.261 395.432 476.61 391.985 444.09C388.317 409.587 405.38 389.455 427.558 383.71H427.542Z" fill="#0E141B"/>
<path d="M427.668 387.394C465.004 377.698 502.592 413.854 507.928 440.03C513.17 465.734 497.209 492.572 470.451 499.513C434.783 508.769 400.39 474.675 395.904 443.304C392.362 418.513 403.884 393.549 427.668 387.379V387.394Z" fill="#E60044"/>
<path d="M403.995 409.542C405.112 408.881 405.49 407.417 404.829 406.283C404.498 405.732 403.979 405.355 403.397 405.197C402.578 406.472 401.823 407.81 401.114 409.164C401.87 409.904 403.035 410.093 403.995 409.526V409.542Z" fill="#C70030"/>
<path d="M414.556 403.293C415.69 402.616 416.052 401.168 415.391 400.035C414.73 398.901 413.266 398.539 412.132 399.201C410.999 399.877 410.637 401.325 411.298 402.459C411.959 403.592 413.423 403.954 414.556 403.293Z" fill="#C70030"/>
<path d="M425.118 397.027C426.252 396.351 426.614 394.902 425.953 393.769C425.276 392.636 423.828 392.274 422.694 392.935C421.561 393.596 421.199 395.06 421.86 396.193C422.521 397.326 423.985 397.688 425.118 397.027Z" fill="#C70030"/>
<path d="M435.68 390.779C436.798 390.118 437.176 388.654 436.515 387.521C435.838 386.388 434.39 386.026 433.256 386.687C432.123 387.364 431.761 388.812 432.422 389.945C433.099 391.078 434.547 391.44 435.68 390.779Z" fill="#C70030"/>
<path d="M397.226 429.108C396.864 428.494 396.282 428.116 395.637 427.99C395.464 429.533 395.369 431.107 395.306 432.665C395.668 432.649 396.046 432.555 396.377 432.35C397.51 431.689 397.872 430.225 397.211 429.092L397.226 429.108Z" fill="#C70030"/>
<path d="M407.788 422.859C407.111 421.726 405.663 421.364 404.53 422.025C403.397 422.686 403.035 424.15 403.696 425.283C404.357 426.416 405.821 426.778 406.954 426.117C408.071 425.456 408.449 423.992 407.788 422.859Z" fill="#C70030"/>
<path d="M418.334 416.593C417.657 415.46 416.209 415.098 415.076 415.759C413.943 416.42 413.565 417.884 414.242 419.017C414.903 420.151 416.367 420.513 417.5 419.852C418.618 419.191 418.995 417.727 418.334 416.593Z" fill="#C70030"/>
<path d="M424.819 412.754C425.48 413.887 426.944 414.249 428.077 413.588C429.211 412.911 429.573 411.463 428.912 410.33C428.235 409.196 426.787 408.834 425.653 409.495C424.52 410.157 424.158 411.62 424.819 412.754Z" fill="#C70030"/>
<path d="M435.381 406.504C436.042 407.637 437.506 407.999 438.639 407.338C439.773 406.661 440.135 405.213 439.474 404.08C438.797 402.946 437.349 402.584 436.215 403.245C435.082 403.907 434.72 405.37 435.381 406.504Z" fill="#C70030"/>
<path d="M449.185 401.073C450.303 400.412 450.681 398.948 450.02 397.814C449.343 396.697 447.895 396.319 446.761 396.98C445.628 397.657 445.25 399.105 445.927 400.238C446.604 401.356 448.052 401.734 449.185 401.073Z" fill="#C70030"/>
<path d="M459.747 394.809C460.881 394.148 461.243 392.684 460.582 391.55C459.905 390.417 458.457 390.055 457.323 390.716C456.19 391.377 455.828 392.841 456.489 393.974C457.15 395.108 458.614 395.47 459.732 394.809H459.747Z" fill="#C70030"/>
<path d="M398.895 449.16C400.028 448.483 400.39 447.035 399.729 445.902C399.068 444.769 397.604 444.407 396.471 445.068C396.392 445.115 396.314 445.178 396.235 445.241C396.487 446.626 396.786 448.027 397.148 449.428C397.714 449.554 398.344 449.491 398.879 449.16H398.895Z" fill="#C70030"/>
<path d="M410.275 439.654C409.614 438.521 408.15 438.159 407.017 438.82C405.884 439.481 405.522 440.945 406.183 442.078C406.844 443.211 408.308 443.573 409.441 442.912C410.559 442.251 410.937 440.787 410.275 439.654Z" fill="#C70030"/>
<path d="M420.837 433.388C420.16 432.255 418.712 431.893 417.579 432.554C416.446 433.215 416.068 434.679 416.745 435.797C417.406 436.93 418.87 437.292 419.987 436.631C421.105 435.97 421.482 434.506 420.821 433.373L420.837 433.388Z" fill="#C70030"/>
<path d="M427.306 429.564C427.968 430.698 429.431 431.06 430.565 430.398C431.698 429.722 432.06 428.274 431.399 427.14C430.738 426.007 429.274 425.645 428.141 426.306C427.007 426.967 426.645 428.431 427.306 429.564Z" fill="#C70030"/>
<path d="M437.868 423.299C438.529 424.432 439.993 424.794 441.126 424.133C442.26 423.456 442.622 422.008 441.96 420.875C441.284 419.741 439.836 419.379 438.702 420.04C437.569 420.701 437.207 422.165 437.868 423.299Z" fill="#C70030"/>
<path d="M448.43 417.035C449.107 418.168 450.555 418.53 451.688 417.869C452.822 417.208 453.184 415.744 452.523 414.611C451.846 413.478 450.398 413.116 449.264 413.777C448.131 414.454 447.753 415.902 448.43 417.035Z" fill="#C70030"/>
<path d="M458.992 410.785C459.653 411.918 461.117 412.28 462.235 411.619C463.368 410.958 463.73 409.494 463.069 408.361C462.392 407.228 460.944 406.866 459.811 407.527C458.693 408.188 458.315 409.652 458.976 410.785H458.992Z" fill="#C70030"/>
<path d="M472.796 405.356C473.914 404.694 474.291 403.231 473.63 402.097C472.969 400.964 471.505 400.602 470.388 401.263C469.254 401.94 468.892 403.388 469.554 404.521C470.215 405.655 471.679 406.017 472.812 405.356H472.796Z" fill="#C70030"/>
<path d="M402.673 462.462C402.436 462.068 402.09 461.753 401.712 461.564C402.122 462.383 402.531 463.217 402.972 464.036C403.05 463.516 402.972 462.965 402.673 462.462Z" fill="#C70030"/>
<path d="M413.234 456.212C412.573 455.079 411.109 454.717 409.976 455.378C408.843 456.039 408.481 457.503 409.142 458.637C409.803 459.77 411.267 460.132 412.4 459.471C413.533 458.794 413.896 457.346 413.234 456.212Z" fill="#C70030"/>
<path d="M423.796 449.947C423.12 448.814 421.671 448.452 420.538 449.113C419.405 449.789 419.043 451.238 419.704 452.371C420.365 453.504 421.829 453.866 422.962 453.205C424.08 452.544 424.458 451.08 423.796 449.947Z" fill="#C70030"/>
<path d="M434.342 443.699C433.666 442.566 432.217 442.203 431.084 442.865C429.951 443.526 429.589 444.99 430.25 446.107C430.911 447.24 432.375 447.602 433.508 446.941C434.626 446.28 435.003 444.816 434.342 443.683V443.699Z" fill="#C70030"/>
<path d="M444.904 437.433C444.228 436.3 442.779 435.938 441.646 436.599C440.513 437.26 440.151 438.724 440.812 439.857C441.473 440.991 442.937 441.353 444.07 440.691C445.203 440.03 445.565 438.567 444.904 437.433Z" fill="#C70030"/>
<path d="M455.466 431.185C454.789 430.052 453.341 429.69 452.208 430.351C451.074 431.012 450.712 432.476 451.373 433.609C452.034 434.742 453.498 435.104 454.632 434.443C455.765 433.767 456.127 432.318 455.466 431.185Z" fill="#C70030"/>
<path d="M466.028 424.92C465.351 423.786 463.903 423.424 462.769 424.085C461.636 424.746 461.258 426.21 461.935 427.344C462.612 428.477 464.06 428.839 465.193 428.178C466.327 427.517 466.689 426.053 466.028 424.92Z" fill="#C70030"/>
<path d="M472.497 421.08C473.158 422.213 474.622 422.575 475.756 421.914C476.873 421.253 477.251 419.789 476.59 418.656C475.913 417.523 474.465 417.161 473.332 417.822C472.214 418.483 471.836 419.947 472.497 421.08Z" fill="#C70030"/>
<path d="M486.301 415.648C487.419 414.972 487.797 413.524 487.136 412.39C486.475 411.257 485.011 410.895 483.893 411.556C482.76 412.233 482.398 413.681 483.059 414.814C483.72 415.948 485.184 416.31 486.317 415.648H486.301Z" fill="#C70030"/>
<path d="M412.479 472.173C411.346 472.834 410.984 474.298 411.645 475.431C412.306 476.565 413.77 476.927 414.903 476.266C416.021 475.605 416.398 474.141 415.737 473.007C415.076 471.874 413.612 471.512 412.479 472.173Z" fill="#C70030"/>
<path d="M426.283 466.742C425.606 465.608 424.158 465.246 423.025 465.908C421.892 466.569 421.53 468.032 422.191 469.166C422.852 470.299 424.316 470.661 425.449 470C426.567 469.339 426.944 467.875 426.283 466.742Z" fill="#C70030"/>
<path d="M436.845 460.494C436.168 459.36 434.72 458.998 433.587 459.66C432.453 460.321 432.076 461.784 432.752 462.918C433.414 464.051 434.877 464.413 436.011 463.752C437.128 463.091 437.506 461.627 436.845 460.494Z" fill="#C70030"/>
<path d="M447.407 454.228C446.73 453.095 445.282 452.733 444.149 453.394C443.015 454.071 442.653 455.519 443.314 456.652C443.975 457.785 445.439 458.147 446.573 457.486C447.706 456.825 448.068 455.361 447.407 454.228Z" fill="#C70030"/>
<path d="M457.969 447.98C457.292 446.847 455.844 446.485 454.711 447.146C453.577 447.807 453.215 449.271 453.876 450.404C454.537 451.537 456.001 451.899 457.135 451.238C458.268 450.577 458.63 449.113 457.969 447.98Z" fill="#C70030"/>
<path d="M468.515 441.714C467.838 440.581 466.39 440.219 465.257 440.88C464.123 441.541 463.746 443.005 464.422 444.138C465.099 445.272 466.547 445.634 467.681 444.973C468.814 444.312 469.176 442.848 468.515 441.714Z" fill="#C70030"/>
<path d="M475 437.875C475.661 439.008 477.125 439.37 478.242 438.709C479.376 438.048 479.738 436.584 479.077 435.451C478.4 434.317 476.952 433.955 475.818 434.617C474.685 435.278 474.323 436.741 474.984 437.875H475Z" fill="#C70030"/>
<path d="M485.546 431.625C486.223 432.758 487.671 433.12 488.804 432.459C489.922 431.782 490.299 430.334 489.638 429.201C488.977 428.067 487.513 427.705 486.38 428.367C485.247 429.028 484.885 430.491 485.546 431.625Z" fill="#C70030"/>
<path d="M499.366 426.195C500.499 425.534 500.861 424.07 500.2 422.937C499.523 421.804 498.075 421.442 496.942 422.103C495.809 422.78 495.447 424.228 496.108 425.361C496.769 426.494 498.233 426.856 499.366 426.195Z" fill="#C70030"/>
<path d="M425.984 482.484C424.851 483.145 424.489 484.609 425.15 485.742C425.811 486.875 427.275 487.237 428.408 486.576C429.526 485.899 429.903 484.451 429.242 483.318C428.581 482.185 427.117 481.823 425.984 482.484Z" fill="#C70030"/>
<path d="M439.789 477.052C439.112 475.919 437.664 475.557 436.53 476.218C435.413 476.879 435.035 478.343 435.696 479.476C436.357 480.61 437.821 480.972 438.954 480.311C440.072 479.634 440.45 478.186 439.789 477.052Z" fill="#C70030"/>
<path d="M450.35 470.789C449.673 469.655 448.225 469.293 447.092 469.954C445.959 470.631 445.581 472.079 446.258 473.213C446.919 474.346 448.383 474.708 449.5 474.047C450.634 473.386 450.996 471.922 450.335 470.789H450.35Z" fill="#C70030"/>
<path d="M460.912 464.523C460.235 463.39 458.787 463.028 457.654 463.689C456.521 464.35 456.159 465.814 456.82 466.947C457.481 468.08 458.945 468.442 460.078 467.781C461.211 467.104 461.573 465.656 460.912 464.523Z" fill="#C70030"/>
<path d="M471.474 458.275C470.797 457.142 469.349 456.78 468.216 457.441C467.083 458.102 466.721 459.566 467.382 460.699C468.059 461.832 469.507 462.194 470.64 461.533C471.773 460.856 472.135 459.408 471.474 458.275Z" fill="#C70030"/>
<path d="M482.036 452.01C481.359 450.892 479.911 450.514 478.778 451.175C477.644 451.837 477.267 453.3 477.943 454.434C478.62 455.551 480.068 455.929 481.202 455.268C482.319 454.607 482.697 453.143 482.036 452.01Z" fill="#C70030"/>
<path d="M492.582 445.76C491.921 444.642 490.457 444.264 489.324 444.925C488.206 445.587 487.828 447.05 488.489 448.184C489.151 449.317 490.614 449.679 491.732 449.018C492.865 448.357 493.227 446.893 492.566 445.76H492.582Z" fill="#C70030"/>
<path d="M499.067 441.92C499.728 443.053 501.192 443.415 502.325 442.754C503.443 442.093 503.821 440.629 503.16 439.496C502.499 438.362 501.035 438 499.917 438.661C498.784 439.323 498.422 440.786 499.083 441.92H499.067Z" fill="#C70030"/>
<path d="M439.033 493.013C437.899 493.674 437.537 495.138 438.199 496.271C438.86 497.405 440.324 497.767 441.457 497.106C442.574 496.444 442.952 494.981 442.291 493.847C441.614 492.714 440.166 492.352 439.033 493.013Z" fill="#C70030"/>
<path d="M449.595 486.765C448.462 487.426 448.084 488.89 448.761 490.023C449.422 491.157 450.886 491.519 452.019 490.857C453.137 490.181 453.514 488.733 452.853 487.599C452.176 486.466 450.728 486.104 449.595 486.765Z" fill="#C70030"/>
<path d="M460.157 480.499C459.024 481.16 458.661 482.624 459.323 483.758C459.984 484.891 461.448 485.253 462.565 484.592C463.698 483.931 464.06 482.467 463.399 481.334C462.738 480.2 461.274 479.838 460.141 480.499H460.157Z" fill="#C70030"/>
<path d="M473.961 475.07C473.284 473.937 471.836 473.575 470.703 474.236C469.57 474.897 469.192 476.361 469.869 477.494C470.53 478.627 471.994 478.989 473.127 478.328C474.26 477.667 474.622 476.203 473.961 475.07Z" fill="#C70030"/>
<path d="M484.523 468.82C483.846 467.687 482.398 467.325 481.265 467.986C480.147 468.663 479.769 470.111 480.43 471.244C481.107 472.377 482.555 472.739 483.689 472.078C484.806 471.417 485.184 469.953 484.523 468.82Z" fill="#C70030"/>
<path d="M495.084 462.556C494.408 461.423 492.959 461.061 491.826 461.722C490.709 462.383 490.331 463.847 490.992 464.965C491.653 466.098 493.117 466.46 494.25 465.799C495.368 465.138 495.745 463.674 495.084 462.541V462.556Z" fill="#C70030"/>
<path d="M501.554 458.715C502.215 459.848 503.679 460.21 504.812 459.549C505.93 458.872 506.308 457.424 505.646 456.291C504.985 455.157 503.521 454.795 502.404 455.456C501.271 456.117 500.909 457.581 501.57 458.715H501.554Z" fill="#C70030"/>
<path d="M466.358 497.892C465.681 496.759 464.233 496.397 463.1 497.058C461.967 497.719 461.589 499.183 462.266 500.316C462.392 500.521 462.549 500.694 462.706 500.851C463.903 500.741 465.083 500.6 466.279 500.395C466.752 499.655 466.815 498.695 466.342 497.892H466.358Z" fill="#C70030"/>
<path d="M473.662 490.794C472.528 491.471 472.166 492.919 472.827 494.053C473.489 495.186 474.952 495.548 476.086 494.887C477.203 494.226 477.581 492.762 476.92 491.629C476.259 490.495 474.795 490.133 473.662 490.794Z" fill="#C70030"/>
<path d="M484.224 484.544C483.09 485.205 482.728 486.669 483.389 487.803C484.051 488.936 485.514 489.298 486.648 488.637C487.781 487.976 488.143 486.512 487.482 485.379C486.821 484.245 485.357 483.883 484.224 484.544Z" fill="#C70030"/>
<path d="M498.028 479.115C497.351 477.982 495.903 477.619 494.785 478.281C493.652 478.942 493.274 480.406 493.951 481.539C494.628 482.672 496.076 483.034 497.209 482.373C497.209 482.373 497.241 482.357 497.241 482.342C497.571 481.932 497.902 481.523 498.217 481.098C498.437 480.468 498.39 479.744 498.028 479.115Z" fill="#C70030"/>
<path d="M471.065 453.158C482.476 449.223 492.739 431.515 483.295 411.824C470.482 385.144 447.454 386.451 439.112 388.591C422.679 392.81 418.004 407.842 425.795 424.102C433.902 440.975 454.301 458.935 471.049 453.143L471.065 453.158Z" fill="#F29B7E"/>
<path d="M435.681 390.778C436.247 390.448 436.609 389.912 436.767 389.33C435.539 389.755 434.374 390.227 433.304 390.794C434.028 391.203 434.925 391.235 435.681 390.794V390.778Z" fill="#D18676"/>
<path d="M425.654 409.509C424.521 410.17 424.159 411.634 424.82 412.767C425.481 413.901 426.945 414.263 428.078 413.602C429.211 412.925 429.573 411.477 428.912 410.343C428.235 409.21 426.787 408.848 425.654 409.509Z" fill="#D18676"/>
<path d="M438.624 407.338C439.757 406.661 440.119 405.213 439.458 404.08C438.781 402.946 437.333 402.584 436.2 403.245C435.066 403.907 434.704 405.37 435.366 406.504C436.027 407.637 437.491 407.999 438.624 407.338Z" fill="#D18676"/>
<path d="M449.185 401.073C450.303 400.412 450.681 398.948 450.02 397.814C449.343 396.697 447.895 396.319 446.761 396.98C445.628 397.657 445.25 399.105 445.927 400.238C446.604 401.356 448.052 401.734 449.185 401.073Z" fill="#D18676"/>
<path d="M459.747 394.809C460.881 394.148 461.243 392.684 460.582 391.55C459.905 390.417 458.457 390.055 457.323 390.716C456.19 391.377 455.828 392.841 456.489 393.974C457.15 395.108 458.614 395.47 459.732 394.809H459.747Z" fill="#D18676"/>
<path d="M431.399 427.138C430.738 426.005 429.274 425.643 428.141 426.304C427.81 426.509 427.542 426.776 427.354 427.091C428.03 428.303 428.77 429.515 429.557 430.711C429.903 430.68 430.234 430.585 430.549 430.397C431.682 429.72 432.044 428.272 431.383 427.138H431.399Z" fill="#D18676"/>
<path d="M437.868 423.299C438.53 424.432 439.993 424.794 441.127 424.133C442.26 423.456 442.622 422.008 441.961 420.875C441.284 419.741 439.836 419.379 438.703 420.04C437.569 420.701 437.207 422.165 437.868 423.299Z" fill="#D18676"/>
<path d="M448.43 417.033C449.107 418.166 450.555 418.528 451.688 417.867C452.822 417.206 453.184 415.742 452.523 414.609C451.846 413.476 450.398 413.114 449.264 413.775C448.131 414.452 447.753 415.9 448.43 417.033Z" fill="#D18676"/>
<path d="M458.992 410.785C459.653 411.918 461.117 412.28 462.235 411.619C463.368 410.958 463.73 409.494 463.069 408.361C462.392 407.228 460.944 406.866 459.811 407.527C458.693 408.188 458.315 409.652 458.976 410.785H458.992Z" fill="#D18676"/>
<path d="M472.796 405.354C473.914 404.692 474.291 403.229 473.63 402.095C472.969 400.962 471.505 400.6 470.388 401.261C469.254 401.938 468.892 403.386 469.554 404.519C470.215 405.653 471.679 406.015 472.812 405.354H472.796Z" fill="#D18676"/>
<path d="M440.827 439.857C441.489 440.991 442.952 441.353 444.086 440.691C445.219 440.03 445.581 438.567 444.92 437.433C444.243 436.3 442.795 435.938 441.662 436.599C440.528 437.26 440.166 438.724 440.827 439.857Z" fill="#D18676"/>
<path d="M451.373 433.592C452.034 434.725 453.498 435.087 454.632 434.426C455.765 433.749 456.127 432.301 455.466 431.168C454.789 430.034 453.341 429.672 452.208 430.333C451.074 430.994 450.712 432.458 451.373 433.592Z" fill="#D18676"/>
<path d="M461.936 427.344C462.612 428.477 464.061 428.839 465.194 428.178C466.327 427.517 466.689 426.053 466.028 424.92C465.351 423.786 463.903 423.424 462.77 424.085C461.636 424.746 461.259 426.21 461.936 427.344Z" fill="#D18676"/>
<path d="M472.497 421.078C473.158 422.211 474.622 422.573 475.756 421.912C476.873 421.251 477.251 419.787 476.59 418.654C475.913 417.521 474.465 417.159 473.332 417.82C472.214 418.481 471.836 419.945 472.497 421.078Z" fill="#D18676"/>
<path d="M483.059 414.814C483.484 415.538 484.239 415.947 485.011 415.978C484.554 414.656 484.019 413.334 483.374 411.996C482.665 412.752 482.508 413.885 483.059 414.814Z" fill="#D18676"/>
<path d="M453.876 450.402C454.537 451.535 456.001 451.897 457.135 451.236C458.268 450.575 458.63 449.111 457.969 447.978C457.292 446.845 455.844 446.483 454.711 447.144C453.577 447.805 453.215 449.269 453.876 450.402Z" fill="#D18676"/>
<path d="M464.438 444.138C465.115 445.272 466.563 445.634 467.696 444.973C468.83 444.312 469.192 442.848 468.53 441.714C467.854 440.581 466.406 440.219 465.272 440.88C464.139 441.541 463.761 443.005 464.438 444.138Z" fill="#D18676"/>
<path d="M475 437.873C475.661 439.006 477.125 439.368 478.242 438.707C479.376 438.046 479.738 436.582 479.077 435.449C478.4 434.316 476.952 433.953 475.818 434.615C474.685 435.276 474.323 436.74 474.984 437.873H475Z" fill="#D18676"/>
<path d="M485.546 431.625C485.798 432.05 486.16 432.365 486.569 432.554C486.805 431.122 486.947 429.642 486.978 428.115C486.773 428.178 486.569 428.241 486.38 428.351C485.247 429.012 484.885 430.476 485.546 431.61V431.625Z" fill="#D18676"/>
<path d="M273.806 455.316C274.939 454.639 275.317 453.175 274.64 452.042C274.561 451.916 274.483 451.805 274.388 451.695C273.538 452.955 272.704 454.23 271.917 455.536C272.531 455.725 273.223 455.662 273.806 455.316Z" fill="#C70030"/>
<path d="M284.415 449.035C285.548 448.358 285.926 446.894 285.249 445.761C284.573 444.627 283.109 444.249 281.975 444.926C280.842 445.603 280.464 447.067 281.141 448.2C281.818 449.334 283.266 449.711 284.415 449.035Z" fill="#C70030"/>
<path d="M295.024 442.738C296.157 442.077 296.535 440.597 295.858 439.464C295.181 438.33 293.718 437.953 292.584 438.629C291.451 439.306 291.073 440.77 291.75 441.903C292.427 443.037 293.891 443.414 295.024 442.738Z" fill="#C70030"/>
<path d="M305.617 436.457C306.751 435.796 307.128 434.317 306.451 433.183C305.775 432.05 304.311 431.688 303.177 432.349C302.044 433.01 301.666 434.49 302.343 435.607C303.004 436.741 304.468 437.118 305.602 436.441L305.617 436.457Z" fill="#C70030"/>
<path d="M316.242 430.161C317.375 429.485 317.753 428.021 317.076 426.887C316.4 425.754 314.936 425.376 313.818 426.053C312.685 426.73 312.307 428.194 312.984 429.327C313.661 430.461 315.125 430.838 316.258 430.161H316.242Z" fill="#C70030"/>
<path d="M265.7 478.485C266.833 477.808 267.211 476.344 266.534 475.211C265.889 474.14 264.551 473.763 263.449 474.298C263.103 475.447 262.788 476.596 262.504 477.745C263.197 478.8 264.598 479.13 265.7 478.485Z" fill="#C70030"/>
<path d="M277.143 468.93C276.466 467.797 275.002 467.419 273.869 468.096C272.736 468.773 272.358 470.237 273.035 471.37C273.711 472.503 275.175 472.881 276.309 472.204C277.442 471.528 277.82 470.064 277.143 468.93Z" fill="#C70030"/>
<path d="M283.66 465.073C284.336 466.207 285.8 466.584 286.934 465.908C288.067 465.231 288.445 463.767 287.768 462.634C287.091 461.5 285.627 461.122 284.494 461.799C283.361 462.476 282.983 463.94 283.66 465.073Z" fill="#C70030"/>
<path d="M294.253 458.794C294.93 459.927 296.394 460.305 297.527 459.628C298.66 458.967 299.038 457.488 298.361 456.354C297.684 455.221 296.22 454.843 295.087 455.52C293.954 456.197 293.576 457.661 294.253 458.794Z" fill="#C70030"/>
<path d="M304.862 452.497C305.539 453.63 306.987 454.008 308.12 453.331C309.253 452.67 309.631 451.191 308.954 450.057C308.278 448.924 306.814 448.546 305.68 449.223C304.547 449.884 304.169 451.364 304.846 452.497H304.862Z" fill="#C70030"/>
<path d="M315.471 446.216C316.148 447.349 317.612 447.727 318.745 447.05C319.878 446.373 320.256 444.909 319.579 443.776C318.902 442.643 317.439 442.265 316.321 442.942C315.188 443.619 314.81 445.083 315.487 446.216H315.471Z" fill="#C70030"/>
<path d="M329.354 440.755C330.487 440.078 330.865 438.615 330.188 437.481C329.511 436.348 328.048 435.97 326.914 436.647C325.781 437.324 325.403 438.788 326.08 439.921C326.757 441.054 328.221 441.432 329.354 440.755Z" fill="#C70030"/>
<path d="M339.05 434.789C338.2 433.924 337.319 433.105 336.358 432.365C336.358 432.806 336.453 433.247 336.689 433.656C337.193 434.506 338.137 434.915 339.05 434.805V434.789Z" fill="#C70030"/>
<path d="M269.509 491.848C268.832 490.715 267.368 490.337 266.235 491.014C265.101 491.691 264.724 493.155 265.4 494.288C266.077 495.421 267.541 495.799 268.674 495.122C269.808 494.446 270.185 492.982 269.509 491.848Z" fill="#C70030"/>
<path d="M280.118 485.552C279.441 484.418 277.977 484.04 276.844 484.717C275.711 485.394 275.333 486.858 276.01 487.991C276.687 489.125 278.15 489.502 279.284 488.826C280.417 488.149 280.795 486.685 280.118 485.552Z" fill="#C70030"/>
<path d="M286.619 481.712C287.295 482.845 288.759 483.223 289.893 482.546C291.026 481.869 291.404 480.406 290.727 479.272C290.05 478.139 288.586 477.761 287.453 478.438C286.32 479.115 285.942 480.579 286.619 481.712Z" fill="#C70030"/>
<path d="M297.228 475.415C297.904 476.548 299.368 476.926 300.502 476.249C301.635 475.573 302.013 474.109 301.336 472.975C300.659 471.842 299.195 471.464 298.062 472.141C296.928 472.818 296.551 474.282 297.228 475.415Z" fill="#C70030"/>
<path d="M307.837 469.134C308.514 470.267 309.978 470.645 311.111 469.968C312.244 469.307 312.622 467.827 311.945 466.694C311.268 465.561 309.804 465.183 308.671 465.86C307.538 466.537 307.16 468.001 307.837 469.134Z" fill="#C70030"/>
<path d="M318.446 462.839C319.107 463.972 320.571 464.35 321.704 463.673C322.837 462.996 323.215 461.532 322.538 460.399C321.862 459.266 320.398 458.888 319.264 459.565C318.131 460.226 317.753 461.706 318.43 462.823L318.446 462.839Z" fill="#C70030"/>
<path d="M329.055 456.558C329.732 457.691 331.195 458.069 332.329 457.392C333.462 456.715 333.84 455.251 333.163 454.118C332.486 452.985 331.022 452.607 329.889 453.284C328.756 453.961 328.378 455.424 329.055 456.558Z" fill="#C70030"/>
<path d="M342.922 451.097C344.055 450.42 344.433 448.956 343.756 447.823C343.079 446.69 341.615 446.312 340.482 446.989C339.349 447.666 338.971 449.129 339.648 450.263C340.325 451.396 341.789 451.774 342.906 451.097H342.922Z" fill="#C70030"/>
<path d="M268.738 507.887C267.604 508.564 267.226 510.028 267.903 511.161C268.58 512.295 270.044 512.672 271.177 511.995C272.311 511.319 272.688 509.855 272.012 508.721C271.335 507.588 269.871 507.21 268.738 507.887Z" fill="#C70030"/>
<path d="M282.62 502.442C281.944 501.309 280.48 500.931 279.346 501.608C278.213 502.285 277.835 503.749 278.512 504.882C279.189 506.015 280.637 506.393 281.786 505.716C282.92 505.039 283.297 503.575 282.62 502.442Z" fill="#C70030"/>
<path d="M289.122 498.585C289.798 499.718 291.262 500.096 292.396 499.419C293.529 498.742 293.907 497.279 293.23 496.145C292.553 495.012 291.089 494.634 289.956 495.311C288.823 495.988 288.445 497.452 289.122 498.585Z" fill="#C70030"/>
<path d="M299.73 492.288C300.407 493.421 301.871 493.799 303.004 493.122C304.138 492.446 304.516 490.982 303.839 489.848C303.162 488.715 301.698 488.337 300.565 489.014C299.431 489.691 299.054 491.139 299.73 492.272V492.288Z" fill="#C70030"/>
<path d="M310.339 486.009C311.016 487.142 312.48 487.52 313.613 486.843C314.747 486.166 315.124 484.702 314.448 483.569C313.771 482.436 312.307 482.058 311.174 482.735C310.04 483.412 309.663 484.876 310.339 486.009Z" fill="#C70030"/>
<path d="M320.948 479.728C321.625 480.861 323.073 481.239 324.207 480.562C325.34 479.885 325.718 478.421 325.041 477.288C324.364 476.155 322.9 475.777 321.767 476.454C320.634 477.13 320.256 478.594 320.933 479.728H320.948Z" fill="#C70030"/>
<path d="M331.557 473.433C332.234 474.566 333.698 474.944 334.831 474.267C335.965 473.59 336.343 472.126 335.666 470.993C334.989 469.86 333.525 469.482 332.407 470.159C331.274 470.836 330.896 472.299 331.573 473.433H331.557Z" fill="#C70030"/>
<path d="M342.166 467.151C342.843 468.285 344.307 468.663 345.441 467.986C346.574 467.309 346.952 465.845 346.275 464.712C345.598 463.578 344.134 463.201 343.001 463.877C341.867 464.554 341.49 466.018 342.166 467.151Z" fill="#C70030"/>
<path d="M274.971 525.36C274.294 524.227 272.83 523.849 271.697 524.526C271.587 524.589 271.492 524.668 271.414 524.746C272.374 526.068 273.365 527.296 274.42 528.429C275.317 527.69 275.585 526.399 274.971 525.36Z" fill="#C70030"/>
<path d="M285.58 519.063C284.903 517.93 283.439 517.552 282.306 518.229C281.173 518.906 280.795 520.37 281.472 521.503C282.133 522.636 283.612 523.014 284.746 522.337C285.879 521.66 286.257 520.197 285.58 519.063Z" fill="#C70030"/>
<path d="M296.189 512.782C295.512 511.649 294.048 511.271 292.915 511.948C291.781 512.625 291.404 514.088 292.081 515.222C292.757 516.355 294.206 516.733 295.355 516.056C296.488 515.379 296.866 513.915 296.189 512.782Z" fill="#C70030"/>
<path d="M306.798 506.503C306.121 505.369 304.657 504.992 303.524 505.668C302.39 506.345 302.013 507.809 302.689 508.942C303.351 510.076 304.83 510.454 305.963 509.777C307.097 509.1 307.475 507.636 306.798 506.503Z" fill="#C70030"/>
<path d="M317.407 500.206C316.73 499.073 315.266 498.695 314.133 499.372C313 500.048 312.622 501.512 313.299 502.646C313.976 503.779 315.44 504.157 316.573 503.48C317.706 502.803 318.084 501.339 317.407 500.206Z" fill="#C70030"/>
<path d="M328.016 493.927C327.339 492.793 325.875 492.415 324.742 493.092C323.609 493.769 323.231 495.233 323.908 496.366C324.585 497.5 326.048 497.877 327.182 497.201C328.315 496.524 328.693 495.06 328.016 493.927Z" fill="#C70030"/>
<path d="M334.517 490.069C335.194 491.203 336.657 491.58 337.775 490.904C338.908 490.227 339.286 488.763 338.609 487.63C337.932 486.496 336.469 486.119 335.335 486.795C334.202 487.472 333.824 488.936 334.501 490.069H334.517Z" fill="#C70030"/>
<path d="M344.89 483.207C345.095 482.42 345.315 481.648 345.504 480.861C344.89 481.475 344.654 482.372 344.89 483.207Z" fill="#C70030"/>
<path d="M288.098 535.952C287.421 534.819 285.958 534.441 284.824 535.118C284.525 535.291 284.273 535.543 284.084 535.81C285.485 536.487 286.933 537.038 288.397 537.447C288.46 536.944 288.366 536.424 288.083 535.952H288.098Z" fill="#C70030"/>
<path d="M295.433 528.823C294.3 529.5 293.922 530.963 294.599 532.097C295.26 533.23 296.724 533.608 297.873 532.931C299.006 532.254 299.384 530.79 298.707 529.657C298.031 528.524 296.567 528.146 295.433 528.823Z" fill="#C70030"/>
<path d="M306.042 522.541C304.909 523.218 304.531 524.682 305.208 525.816C305.885 526.949 307.349 527.327 308.482 526.65C309.615 525.973 309.993 524.509 309.316 523.376C308.639 522.242 307.176 521.865 306.042 522.541Z" fill="#C70030"/>
<path d="M316.652 516.262C315.518 516.923 315.141 518.403 315.817 519.521C316.494 520.654 317.958 521.032 319.091 520.355C320.225 519.678 320.602 518.214 319.926 517.081C319.249 515.948 317.785 515.57 316.652 516.247V516.262Z" fill="#C70030"/>
<path d="M327.261 509.965C326.127 510.642 325.749 512.106 326.426 513.239C327.103 514.373 328.567 514.735 329.7 514.074C330.834 513.412 331.211 511.933 330.535 510.8C329.858 509.666 328.394 509.288 327.261 509.965Z" fill="#C70030"/>
<path d="M294.378 477.823C315.219 485.567 331.919 470.41 336.878 455.267C339.428 447.507 338.829 439.369 336.563 432.538C328.504 426.085 316.934 423.96 305.208 426.997C298.77 428.666 292.285 432.57 286.319 437.937C286.209 438.11 286.083 438.299 285.989 438.472C278.717 451.206 280.826 472.786 294.378 477.823Z" fill="#F29B7E"/>
<path d="M284.415 449.034C285.548 448.358 285.926 446.894 285.249 445.76C284.84 445.068 284.132 444.674 283.392 444.611C282.951 446.091 282.589 447.633 282.337 449.192C282.998 449.444 283.754 449.412 284.415 449.034Z" fill="#D18676"/>
<path d="M295.024 442.738C296.157 442.077 296.535 440.597 295.858 439.464C295.181 438.33 293.718 437.953 292.584 438.629C291.451 439.306 291.073 440.77 291.75 441.903C292.427 443.037 293.891 443.414 295.024 442.738Z" fill="#D18676"/>
<path d="M305.617 436.457C306.751 435.796 307.128 434.317 306.451 433.183C305.775 432.05 304.311 431.688 303.177 432.349C302.044 433.01 301.666 434.49 302.343 435.607C303.004 436.741 304.468 437.118 305.602 436.441L305.617 436.457Z" fill="#D18676"/>
<path d="M316.242 430.161C317.375 429.485 317.753 428.021 317.076 426.887C316.4 425.754 314.936 425.376 313.818 426.053C312.685 426.73 312.307 428.194 312.984 429.327C313.661 430.461 315.125 430.838 316.258 430.161H316.242Z" fill="#D18676"/>
<path d="M283.66 465.073C284.336 466.207 285.8 466.584 286.934 465.908C288.067 465.231 288.445 463.767 287.768 462.634C287.091 461.5 285.627 461.122 284.494 461.799C283.361 462.476 282.983 463.94 283.66 465.073Z" fill="#D18676"/>
<path d="M294.253 458.794C294.93 459.927 296.394 460.305 297.527 459.628C298.66 458.967 299.038 457.488 298.361 456.354C297.684 455.221 296.22 454.843 295.087 455.52C293.954 456.197 293.576 457.661 294.253 458.794Z" fill="#D18676"/>
<path d="M304.862 452.497C305.539 453.63 306.987 454.008 308.12 453.331C309.253 452.67 309.631 451.191 308.954 450.057C308.278 448.924 306.814 448.546 305.68 449.223C304.547 449.884 304.169 451.364 304.846 452.497H304.862Z" fill="#D18676"/>
<path d="M315.471 446.216C316.148 447.349 317.612 447.727 318.745 447.05C319.878 446.373 320.256 444.909 319.579 443.776C318.902 442.643 317.439 442.265 316.321 442.942C315.188 443.619 314.81 445.083 315.487 446.216H315.471Z" fill="#D18676"/>
<path d="M326.08 439.921C326.757 441.054 328.221 441.432 329.354 440.755C330.487 440.078 330.865 438.615 330.188 437.481C329.511 436.348 328.048 435.97 326.914 436.647C325.781 437.324 325.403 438.788 326.08 439.921Z" fill="#D18676"/>
<path d="M297.228 475.415C297.905 476.548 299.369 476.926 300.502 476.249C301.635 475.573 302.013 474.109 301.336 472.975C300.659 471.842 299.196 471.464 298.062 472.141C296.929 472.818 296.551 474.282 297.228 475.415Z" fill="#D18676"/>
<path d="M307.837 469.134C308.514 470.267 309.978 470.645 311.111 469.968C312.244 469.307 312.622 467.827 311.945 466.694C311.268 465.561 309.804 465.183 308.671 465.86C307.538 466.537 307.16 468.001 307.837 469.134Z" fill="#D18676"/>
<path d="M318.446 462.839C319.107 463.972 320.571 464.35 321.704 463.673C322.837 462.996 323.215 461.532 322.538 460.399C321.862 459.266 320.398 458.888 319.264 459.565C318.131 460.226 317.753 461.706 318.43 462.823L318.446 462.839Z" fill="#D18676"/>
<path d="M329.055 456.558C329.732 457.691 331.195 458.069 332.329 457.392C333.462 456.715 333.84 455.251 333.163 454.118C332.486 452.985 331.022 452.607 329.889 453.284C328.756 453.961 328.378 455.424 329.055 456.558Z" fill="#D18676"/>
</g>
<defs>
<clipPath id="clip0_42_62635">
<rect width="506.353" height="520" fill="white" transform="translate(117 210)"/>
</clipPath>
</defs>
</svg>
