<svg width="800" height="800" viewBox="0 0 800 800" fill="none" xmlns="http://www.w3.org/2000/svg">
<g clip-path="url(#clip0_42_62815)">
<path d="M331.27 536.251C314.345 516.632 350.835 468.446 350.835 468.446C368.999 428.507 506.926 243.652 702.472 215.606C724.983 212.373 738.189 216.056 745.663 226.979C755.508 241.37 767.635 295.952 711.563 345.215C655.472 394.479 646.399 415.769 643.362 436.161C635.781 486.934 637.308 524.07 555.453 554.397C555.453 554.397 348.212 555.888 331.27 536.269V536.251Z" fill="#CFA7CD"/>
<path d="M430.444 435.099C428.791 413.773 425.952 396.041 440.325 378.074C422.359 394.244 388.654 435.764 377.461 428.021C359.495 448.987 353.35 466.343 340.037 484.974C330.875 500.802 320.742 524.051 331.27 536.25C339.642 545.951 394.475 550.479 447.817 552.599C448.033 551.773 490.272 551.593 510.933 543.4C492.428 533.932 432.995 468.05 430.444 435.099Z" fill="#B491B2"/>
<path d="M374.641 528.381C441.511 511.457 531.199 534.688 560.754 555.151C590.308 575.615 582.708 591.605 540.272 624.95C561.364 636.611 564.994 654.397 555.256 659.356C540.559 666.848 527.516 663.794 522.863 635.497C500.89 643.833 466.017 652.169 421.299 595.324L374.623 528.399L374.641 528.381Z" fill="#CFA7CD"/>
<path d="M453.674 541.245C450.674 528.219 465.299 528.758 481.001 527.627C446.686 521.482 407.842 519.973 374.641 528.381L421.317 595.306C426.635 602.061 431.791 607.864 436.822 612.877C452.057 592.683 461.436 574.824 453.692 541.245H453.674Z" fill="#B491B2"/>
<path d="M311.274 536.628C313.968 520.458 251.967 445.988 251.967 445.988C224.173 409.696 128.269 337.633 98.2829 322.649C68.908 307.971 58.0563 312.929 51.1752 324.967C44.9768 335.8 35.5445 378.327 61.9011 401.036C92.1743 427.123 128.646 461.96 137.917 485.136C147.187 508.313 158.434 547.659 182.114 563.128C204.967 578.058 230.515 581.184 265.172 577.286C265.172 577.286 308.597 552.798 311.291 536.646L311.274 536.628Z" fill="#CFA7CD"/>
<path d="M270.22 463.684C252.972 458.025 235.383 445.664 219.016 431.021C244.169 474.141 230.515 526.584 231.018 539.286C231.503 552.007 239.282 569.542 253.871 578.291C257.536 578.04 261.273 577.698 265.154 577.267C265.154 577.267 308.578 552.779 311.273 536.627C313.034 526.063 288.366 486.987 270.22 463.684Z" fill="#B491B2"/>
<path d="M324.892 563.865C307.429 545.863 288.546 559.787 288.546 559.787C276.922 566.363 234.935 597.732 232.401 611.368C229.868 625.023 240.63 645.253 277.048 655.871C276.545 660.416 262.243 674.592 267.813 682.694C273.077 690.366 286.534 691.803 292.085 684.725C297.206 678.203 295.445 667.225 296.451 660.147C310.609 661.656 328.503 664.495 333.049 628.077C333.049 628.077 342.337 581.867 324.874 563.865H324.892Z" fill="#CFA7CD"/>
<path d="M332.995 628.49C332.995 628.346 333.031 628.221 333.049 628.077C333.049 628.077 342.337 581.867 324.874 563.865C307.411 545.863 288.528 559.787 288.528 559.787C285.097 561.727 279.042 565.824 272.125 570.962C278.988 599.385 316.502 638.354 332.977 628.472L332.995 628.49Z" fill="#B491B2"/>
<path d="M319.106 570.835C319.556 582.117 319.807 605.474 327.676 619.577C336.246 634.92 358.363 646.203 386.786 652.527C415.208 658.851 417.921 625.901 420.185 609.66C422.287 594.46 426.347 551.7 373.203 528.56C320.059 505.419 319.106 570.853 319.106 570.853V570.835Z" fill="#E5E3DA"/>
<path d="M373.221 528.542C320.077 505.402 319.125 570.835 319.125 570.835C319.196 572.434 319.25 574.284 319.322 576.297C361.202 561.205 409.854 579.243 413.25 639.664C417.813 630.178 419.053 617.817 420.185 609.642C422.287 594.443 426.347 551.683 373.203 528.542H373.221Z" fill="#C1BFB9"/>
<path d="M266.34 548.145C266.34 562.734 276.616 570.603 277.659 569.381C279.635 567.099 277.946 559.751 277.946 559.751L266.322 548.127L266.34 548.145Z" fill="#E5E3DA"/>
<path d="M262.926 537.688C266.663 558.241 284.324 563.308 285.887 560.379C286.947 558.403 276.078 546.276 276.078 546.276L262.908 537.67L262.926 537.688Z" fill="#C1BFB9"/>
<path d="M287.414 473.152L272.843 494.245C256.386 516.864 277.191 551.324 289.57 560.235C327.677 587.652 368.963 561.205 373.113 538.19C376.186 521.176 367.975 489.699 349.308 476.512L287.414 473.152Z" fill="#BFABAC"/>
<path d="M349.308 476.494L287.414 473.135L272.844 494.227C272.125 495.215 270.903 497.246 269.664 500.066C278.144 511.547 294.745 534.023 299.721 531.13C334.073 511.151 347.817 535.693 356.8 559.05C356.998 559.643 357.195 560.235 357.393 560.846C366.304 554.792 372.161 545.521 372.898 537.203C374.533 518.751 368.011 489.7 349.326 476.494H349.308Z" fill="#978788"/>
<path d="M270.526 497.029C265.405 501.215 257.518 512.373 259.836 527.231C262.153 542.107 267.274 551.395 284.935 555.582C276.562 548.611 265.836 530.231 266.537 512.498L270.526 497.029Z" fill="#E5E3DA"/>
<path d="M269.717 531.74C270.31 537.094 270.364 542.736 268.729 547.676C272.43 551.216 277.586 553.857 284.917 555.582C279.635 551.18 273.4 542.215 269.717 531.74Z" fill="#C1BFB9"/>
<path d="M355.56 532.8C356.028 530.482 358.345 527.23 360.214 531.399C362.064 535.585 364.544 554.934 360.16 561.941C354.842 570.403 345.068 575.829 344.403 574.859C343.739 573.889 353.279 561.007 353.71 548.592L355.56 532.8Z" fill="#E5E3DA"/>
<path d="M360.214 531.417C358.363 527.231 356.027 530.482 355.56 532.818L353.71 548.61C353.584 552.06 353.063 555.15 352.272 557.953C357.393 556.552 356.297 565.301 352.883 569.667C355.273 567.583 357.698 564.888 359.746 561.618C364.148 554.611 362.064 535.585 360.214 531.417Z" fill="#C1BFB9"/>
<path d="M349.524 521.662C349.991 518.878 356.01 518.68 356.477 526.567C356.944 534.454 358.112 549.025 351.428 555.367C344.745 561.709 330.875 566.363 330.102 564.925C329.923 564.584 338.978 553.553 340.577 551.9L349.524 521.645V521.662Z" fill="#E5E3DA"/>
<path d="M356.477 526.566C356.01 518.661 349.991 518.859 349.524 521.662L343.361 542.502C352.201 541.802 351.913 551.917 344.349 560.181C346.703 558.852 348.985 557.271 351.033 555.33C357.716 548.988 356.944 534.454 356.495 526.566H356.477Z" fill="#C1BFB9"/>
<path d="M342.463 514.007C342.319 510.18 348.14 510.037 349.524 515.606C350.925 521.176 351.464 540.525 347.08 546.077C335.007 561.366 319.753 559.713 319.664 558.815C319.448 556.821 331.431 551.826 338.007 538.711C341.924 530.913 342.66 519.11 342.463 514.007Z" fill="#E5E3DA"/>
<path d="M349.524 515.607C348.122 510.038 342.319 510.164 342.463 514.008C342.535 515.877 342.463 518.626 342.14 521.734C348.356 524.86 349.721 536.88 346.074 547.264C346.434 546.869 346.775 546.474 347.08 546.078C351.464 540.527 350.907 521.195 349.524 515.607Z" fill="#C1BFB9"/>
<path d="M273.778 503.067C268.729 510.631 268.19 521.015 275.143 527.375C275.682 517.116 277.964 514.691 280.282 511.888L273.778 503.049V503.067Z" fill="white"/>
<path d="M280.281 511.888L273.777 503.049C272.897 504.378 271.765 506.57 270.993 509.247C273.49 512.068 274.694 516.595 275.592 523.333C275.664 517.602 278.467 514.062 280.263 511.87L280.281 511.888Z" fill="#DCDDDD"/>
<path d="M287.252 468.212C287.252 481.812 276.85 492.844 264.022 492.844C251.194 492.844 240.792 481.812 240.792 468.212C240.792 454.611 251.194 443.58 264.022 443.58C276.85 443.58 287.252 454.611 287.252 468.212Z" fill="#AFCFE5"/>
<path d="M264.022 443.58C251.194 443.58 240.792 454.611 240.792 468.212C240.792 473.853 242.606 479.028 245.606 483.178C259.261 463.9 272.664 464.996 287.198 467.008C286.606 453.965 276.473 443.58 264.022 443.58Z" fill="#93AFC2"/>
<path d="M268.172 475.165C246.9 444.083 229.455 376.206 228.359 368.031C227.012 357.934 230.317 353.838 234.899 363.666C238.708 371.84 261.076 419.289 269.807 428.578L268.172 475.165Z" fill="#BFABAC"/>
<path d="M268.532 426.583C259.8 417.313 238.726 371.84 234.917 363.665C234.324 362.408 230.784 358.671 231.647 363.037C234.378 376.978 264.92 447.676 266.286 439.753C267.651 431.83 268.532 426.565 268.532 426.565V426.583Z" fill="#978788"/>
<path d="M367.508 355.149C363.807 359.623 306.566 431.29 306.566 431.29C305.129 422.631 310.608 315.012 316.735 284.038C318.999 272.594 314.507 270.797 308.057 281.811C304.159 288.476 272.933 352.275 268.19 434.039L267.813 454.269C264.74 506.426 284.036 530.914 292.085 529.854C302.003 528.542 333.408 485.944 329.275 464.043C329.275 464.043 373.401 365.624 376.671 355.814C379.94 346.004 375.664 345.34 367.508 355.167V355.149Z" fill="#BFABAC"/>
<path d="M296.433 444.228C300.206 437.041 302.524 435.334 306.422 429.477C305.65 412.859 310.914 313.577 316.753 284.04C318.244 276.53 314.633 271.715 310.752 284.202C306.871 296.688 298.697 335.442 296.11 356.103C293.522 376.764 290.432 455.69 296.433 444.21V444.228Z" fill="#978788"/>
<path d="M371.856 357.576C366.663 364.133 328.126 445.593 308.722 459.516C301.535 470.296 298.337 476.189 296.415 490.131C294.511 504.073 293.936 529.531 283.551 522.434C283.282 524.626 287.216 528.777 292.085 529.819C297.727 531.022 330.21 493.185 329.275 464.008C329.275 464.008 373.401 365.589 376.671 355.779C377.407 353.587 377.066 351 371.874 357.576H371.856Z" fill="#978788"/>
<path d="M306.35 508.96C308.363 523.153 306.117 529.37 307.285 530.538C307.967 531.22 313.249 527.268 315.639 521.644C317.382 517.53 316.789 512.535 315.711 507.702C314.309 501.396 305.308 501.594 306.35 508.978V508.96Z" fill="white"/>
<path d="M315.711 507.683C314.31 501.377 305.919 501.502 306.351 508.958C306.404 509.875 306.548 511.114 306.728 512.534C310.914 513.648 313.914 517.205 314.759 523.296C317.112 519.109 317.202 514.348 315.711 507.683Z" fill="#DCDDDD"/>
<path d="M350.943 466.81C350.943 480.932 339.552 492.376 325.503 492.376C311.453 492.376 300.062 480.932 300.062 466.81C300.062 452.689 311.453 441.244 325.503 441.244C339.552 441.244 350.943 452.689 350.943 466.81Z" fill="#AFCFE5"/>
<path d="M325.521 441.245C311.471 441.245 300.081 452.689 300.081 466.811C300.081 470.727 300.979 474.446 302.56 477.752C315.837 461.708 327.856 455.42 349.775 459.067C346.523 448.736 336.894 441.227 325.521 441.227V441.245Z" fill="#93AFC2"/>
<path d="M257.608 455.689C253.17 458.079 249.9 462.804 249.9 468.212C249.9 476.009 256.674 482.316 263.986 482.316C265.657 482.316 267.256 481.974 268.711 481.363C268.711 480.717 267.831 472.129 267.831 472.129C267.831 472.129 257.841 456.21 257.59 455.689H257.608Z" fill="#0E141B"/>
<path d="M311.902 466.775C311.902 474.86 318.388 481.418 326.347 481.418C334.306 481.418 340.792 474.842 340.792 466.775C340.792 458.708 334.306 452.133 326.347 452.133C318.388 452.133 311.902 458.708 311.902 466.775Z" fill="#0E141B"/>
<path d="M256.386 451.664C255.919 451.556 255.452 451.484 254.949 451.484C251.481 451.484 248.679 454.287 248.679 457.755C248.679 461.222 251.481 464.025 254.949 464.025C257.267 464.025 259.261 462.767 260.339 460.899C258.812 457.683 256.979 454.952 256.386 451.664Z" fill="white"/>
<path d="M325.646 454.037C325.646 457.63 322.574 460.541 318.783 460.541C314.992 460.541 311.92 457.63 311.92 454.037C311.92 450.444 314.992 447.533 318.783 447.533C322.574 447.533 325.646 450.444 325.646 454.037Z" fill="white"/>
<path d="M750.154 222.379C741.243 209.335 706.46 201.915 639.823 224.409C532.151 260.737 418.568 351.287 350.853 462.589C351.069 463.792 351.194 467.314 351.015 468.535L352.003 468.985C360.267 450.839 397.763 395.053 461.004 338.531C503.01 300.982 565.191 255.724 641.117 231.236C696.363 213.414 733.446 211.366 744.639 227.715C752.005 238.477 769.091 293.023 710.736 344.262C652.346 395.556 644.944 416.918 642.105 435.98L640.434 447.748C634.2 492.916 631.217 525.543 556.531 553.211L561.257 555.672C609.101 537.831 640.775 520.71 645.141 448.233L647.01 436.501C649.938 416.828 655.436 400.012 715.713 347.065C773.367 296.418 762.515 240.507 750.136 222.415L750.154 222.379Z" fill="#0E141B"/>
<path d="M746.148 226.223C734.632 219.09 712.695 218.336 684.631 225.972C585.547 252.903 420.617 362.066 356.082 482.872C356.459 483.393 356.926 484.435 357.267 484.956C421.138 364.528 590.183 255.634 684.614 229.978C712.192 222.486 735.638 222.612 746.705 229.475L746.148 226.223Z" fill="#0E141B"/>
<path d="M565.335 329.08C487.775 375.739 416.161 438.315 366.682 499.311C366.951 499.94 367.221 501.054 367.508 501.647C416.88 440.597 490.002 378.937 567.671 332.206C642.393 287.255 711.635 263.234 753.802 266.144L754.071 263.234C709.263 259.838 640.362 283.967 565.335 329.098V329.08Z" fill="#0E141B"/>
<path d="M585.835 319.488L581.595 322.524C647.423 291.855 720.277 313.9 728.541 327.411L729.781 325.039C721.319 311.205 652.526 288.424 585.853 319.488H585.835Z" fill="#0E141B"/>
<path d="M689.411 364.887C687.578 365.228 500.962 401.071 370.976 514.42C371.263 514.905 371.676 515.894 372.054 516.379C499.848 405.149 684.146 369.163 685.979 368.839L689.428 364.905L689.411 364.887Z" fill="#0E141B"/>
<path d="M374.533 527.052L376.06 528.507C432.438 477.986 603.693 422.111 650.387 411.277L653.226 407.863C608.652 418.212 434.792 473.063 374.533 527.07V527.052Z" fill="#0E141B"/>
<path d="M445.625 483.986L442.805 486.268C514.041 463.361 563.556 478.794 586.14 500.892C596.668 511.187 600.98 524.41 598.231 533.699L600.279 532.657C603.226 522.721 600.711 509.75 589.697 498.988C566.736 476.53 517.634 460.828 445.643 483.986H445.625Z" fill="#0E141B"/>
<path d="M375.485 526.979L376.922 529.063C443.308 513.702 528.935 535.603 559.855 557.001C571.39 564.978 577.049 571.302 577.265 578.632C577.606 589.609 557.556 611.762 540.434 623.368C537.595 625.291 538.098 625.183 539.661 626.045C551.483 632.459 559.227 644.281 559.119 650.569C559.065 654.055 557.484 656.768 554.681 658.205C547.459 661.888 541.422 662.535 536.697 660.145C530.552 657.037 525.234 644.838 524.12 635.262C523.923 633.627 523.725 633.789 522.414 634.274C498.483 643.347 463.808 647.263 422.305 594.514L420.904 599.096C465.389 656.031 500.692 645.467 521.372 637.687C523.797 651.036 528.289 660.307 534.936 663.685C540.416 666.451 547.495 666.433 555.472 662.355C559.155 660.487 562.047 655.743 562.137 651.27C562.137 651.198 562.137 651.126 562.137 651.036C562.137 644.281 557.843 633.16 543.776 624.823C562.568 611.115 581.074 594.317 581.9 578.866C582.313 571.104 575.306 561.977 563.053 553.497C531.756 531.83 439.553 510.63 375.449 526.979H375.485Z" fill="#0E141B"/>
<path d="M394.35 540.419L395.589 542.449C467.221 540.095 542.033 575.004 560.933 593.365C564.203 596.545 565.928 599.312 565.928 601.36H567.725C567.725 598.773 566.575 594.892 562.892 591.317C540.506 569.56 461.023 537.274 394.35 540.419Z" fill="#0E141B"/>
<path d="M410.124 559.462C446.667 559.462 536.427 611.564 544.099 623.081L545.716 621.553C536.158 607.198 447.692 557.521 409.944 557.521L410.124 559.462Z" fill="#0E141B"/>
<path d="M419.197 585.226C452.417 595.557 492.751 624.537 498.069 641.299L499.776 640.76C495.087 626.028 461.957 596.617 419.287 583.34L419.179 585.244L419.197 585.226Z" fill="#0E141B"/>
<path d="M48.3005 320.492C42.1201 329.763 29.4539 377.697 57.3017 401.682C86.6946 427.015 128.197 467.852 134.485 484.92C145.283 514.259 155.29 551.216 179.257 566.864C198.732 579.585 223.472 583.591 261.201 579.351L265.028 576.009C228.646 580.106 204.051 575.919 182.814 562.049C163.249 549.275 152.433 520.188 143.72 496.814L139.084 484.651C129.616 460.971 92.336 425.595 62.7275 400.065C36.0835 377.104 46.971 334.883 52.2891 325.595C59.242 313.432 74.9805 312.425 97.7259 323.78C127.011 338.423 222.897 410.126 250.961 446.76L253.314 444.837C219.897 401.197 121.459 328.757 97.6899 317.294C73.4354 305.598 57.2837 307.018 48.3005 320.492Z" fill="#0E141B"/>
<path d="M47.564 329.135L48.624 331.093C58.3617 324.068 69.0157 319.738 100.942 338.1C132.221 356.084 200.871 409.336 243.307 457.181L244.421 454.809C193.792 398.88 132.599 352.778 101.193 334.722C71.3334 317.546 59.7272 320.349 47.5819 329.117L47.564 329.135Z" fill="#0E141B"/>
<path d="M105.326 379.639C70.0758 362.553 52.5048 363.72 45.2104 364.062L45.2643 365.733C84.0177 363.882 151.463 401.935 241.96 476.567C241.6 475.058 242.031 474.573 241.367 473.225C185.294 426.045 141.779 397.317 105.326 379.656V379.639Z" fill="#0E141B"/>
<path d="M269.538 498.054C267.453 496.203 265.387 494.388 263.321 492.592H260.321C262.98 494.838 265.657 497.101 268.352 499.419L269.52 498.054H269.538Z" fill="#0E141B"/>
<path d="M79.7954 416.11L81.1249 417.098C91.5633 409.911 123.759 403.569 173.939 422.883L171.046 420.188C116.572 399.239 90.5213 408.007 79.7954 416.11Z" fill="#0E141B"/>
<path d="M137.935 483.483C162.782 486.412 219.394 501.324 258.578 517.314L259.261 515.643C220.148 498.844 168.89 485.154 136.785 481.004L137.935 483.483Z" fill="#0E141B"/>
<path d="M150.188 517.457L150.87 519.631C163.033 514.565 217.184 519.164 260.896 536.645L261.561 534.974C214.201 516.038 163.95 511.726 150.188 517.457Z" fill="#0E141B"/>
<path d="M188.635 567.152L190.863 567.655C194.816 554.216 212.566 526.476 239.677 528.722L236.695 527.734C208.47 525.38 192.714 553.246 188.617 567.152H188.635Z" fill="#0E141B"/>
<path d="M289.175 560.899L287.917 558.689C285.869 559.839 282.725 561.887 278.97 564.511C279.293 565.283 279.419 566.163 279.491 567.223C283.443 564.457 286.821 562.247 289.193 560.899H289.175Z" fill="#0E141B"/>
<path d="M332.168 627.268C327.874 661.584 313.537 660.83 298.984 659.087C295.822 658.709 295.032 657.991 295.193 659.967C295.355 661.943 294.906 666.489 294.906 668.609C294.906 670.729 294.457 679.64 291.079 683.952C286.3 690.043 271.873 686.396 268.855 681.994C265.567 677.197 270.292 669.741 274.047 663.938C276.095 660.776 277.407 658.458 277.982 657.128C278.557 655.799 278.593 655.314 276.778 654.703C244.96 644.085 231.018 625.921 233.659 611.62C235.455 601.936 259.8 581.436 276.688 569.219C276.095 568.572 275.556 567.908 275.053 567.297C251.949 584.006 228.251 600.157 228.251 614.476C228.251 628.796 243.181 647.696 274.568 657.2C273.993 658.548 271.442 661.8 270.166 663.794C263.986 673.37 263.213 676.855 264.794 682.156C266.789 688.803 287.145 695.415 293.846 686.899C297.745 681.94 297.691 673.981 297.835 667.693C297.888 665.68 297.888 663.291 298.05 661.584C317.184 665.716 330.102 665.609 334.665 629.047L332.15 627.268H332.168Z" fill="#0E141B"/>
<path d="M247.601 642.037L249.99 642.701C249.505 630.017 295.373 575.436 304.823 567.045L302.775 566.578C294.78 573.675 247.062 628.041 247.601 642.055V642.037Z" fill="#0E141B"/>
<path d="M272.215 654.253L274.515 655.133C276.473 646.779 308.974 596.276 319.61 583.106L318.963 580.896C308.866 593.401 274.389 645.072 272.215 654.253Z" fill="#0E141B"/>
<path d="M322.449 611.439C315.675 626.603 313.142 653.696 313.591 659.984L316.466 659.392C316.035 653.337 317.418 627.915 323.67 613.11C323.257 612.553 322.754 611.996 322.449 611.439Z" fill="#0E141B"/>
<path d="M372.539 528.418C407.483 547.121 423.437 575.13 418.676 609.446L418.299 612.23C416.754 623.891 414.095 641.965 404.77 648.63C400.261 651.846 393.308 652.367 387.127 651.038C357.555 644.66 336.947 633.035 329.024 618.842C321.909 606.104 321.173 585.694 320.742 573.477L320.634 570.782L317.58 570.908L317.687 573.585C318.137 586.072 318.693 607.721 326.167 621.106C334.54 636.072 356.764 649.025 383.803 654.685C391.565 656.302 401.303 656.985 406.513 653.337C417.778 645.468 421.263 623.747 422.88 611.548L423.257 608.781C428.216 573.1 410.591 544.641 373.293 525.992L372.539 528.418Z" fill="#0E141B"/>
<path d="M389.175 537.184C389.175 537.184 392.212 543.419 392.912 544.856C391.475 544.946 386.642 544.694 386.247 545.305C385.852 545.916 391.17 553.929 391.745 554.917C390.828 555.492 385.474 558.421 385.259 559.013C385.061 559.624 387.9 568.086 388.277 569.326C384.953 569.955 380.031 569.847 379.366 570.584C378.701 571.32 380.192 575.111 381.45 580.699C377.354 580.106 371.047 578.938 370.419 579.226C369.79 579.513 370.077 585.424 370.365 588.838C368.766 588.209 361.974 584.759 361.256 585.244C360.537 585.729 358.345 593.67 357.609 595.054C356.602 594.425 351.5 585.837 350.71 586.035C349.901 586.25 345.374 593.67 344.493 594.91C343.541 593.724 338.187 586.304 337.594 586.286C336.983 586.268 329.761 592.934 328.809 593.742C328.036 592.718 320.67 583.088 320.67 583.088L320.221 584.328C320.221 584.328 327.892 595.683 328.593 595.683C329.294 595.683 336.462 588.999 337.396 588.191C338.151 589.143 343.775 597.138 344.565 597.138C345.356 597.138 349.739 589.736 350.674 588.406C353.261 592.269 357.447 597.461 358.255 597.12C359.064 596.779 361.31 589.287 362.082 587.005C363.232 587.454 371.263 591.425 371.892 590.886C372.503 590.329 371.371 580.771 371.389 580.537C373.67 580.95 382.833 582.585 383.211 582.316C383.588 582.046 381.198 573.333 380.803 571.626C382.097 571.68 389.858 570.925 390.002 570.368C390.146 569.811 387.127 560.487 386.858 559.588C387.612 559.121 393.415 555.887 393.559 555.33C393.703 554.791 389.355 547.982 388.493 546.473C390.002 546.365 394.745 546.275 395.014 546.042C395.284 545.808 390.559 537.238 390.559 537.238L389.193 537.148L389.175 537.184Z" fill="#0E141B"/>
<path d="M404.932 561.151C404.518 561.618 409.423 568.643 410.25 570.008C408.758 570.26 403.207 570.853 402.776 571.284C402.344 571.733 406.656 584.058 407.123 585.639C405.614 585.603 398.284 585.046 397.835 585.424C397.368 585.801 398.787 593.742 398.931 595.071C397.619 595 391.367 594.622 390.792 594.658C390.217 594.694 390.091 595.485 390.199 596.922C390.307 598.359 390.325 599.671 390.594 602.132C389.283 602.114 380.21 601.36 379.671 601.917C379.132 602.456 379.671 609.75 379.671 611.187C378.27 610.828 371.227 608.582 370.724 608.852C370.221 609.103 367.759 615.499 367.13 616.865C365.963 615.787 359.118 608.6 358.435 608.816C357.734 609.013 354.159 615.697 353.404 616.919C352.38 615.859 346.146 608.87 345.571 608.87C344.996 608.87 340.163 615.391 339.265 616.487C338.402 615.355 333.605 608.187 332.977 608.187C332.348 608.169 329.958 614.044 329.24 615.463C328.233 614.17 324.389 609.247 324.389 609.247L323.329 610.073C323.329 610.073 328.862 617.943 329.473 617.943C330.084 617.943 332.456 612.139 333.21 610.702C334.252 612.068 338.869 618.769 339.229 618.661C339.606 618.553 344.852 611.87 345.661 610.882C346.577 611.816 353.225 619.128 353.656 619.092C354.087 619.057 358.022 612.086 358.74 610.918C359.782 611.888 366.753 619.128 367.616 619.128C368.478 619.128 371.101 611.349 371.496 610.433C372.466 610.684 380.821 613.361 381.018 612.93C381.216 612.499 381.018 604.468 381.018 603.282C382.222 603.3 389.588 603.803 390.648 603.785C391.708 603.767 392.05 603.983 392.014 602.743C391.978 601.503 391.583 596.221 391.601 596.042C392.445 596.096 400.045 596.814 400.458 596.491C400.871 596.167 399.506 588.101 399.362 586.789C400.674 586.825 408.866 587.472 408.974 587.005C409.082 586.555 404.932 573.656 404.536 572.326C405.758 572.111 412.316 571.715 412.442 570.979C412.585 570.224 408.094 563.72 407.213 562.265C408.471 562.139 410.771 561.924 410.771 561.924L410.645 560.576C410.645 560.576 405.363 560.648 404.968 561.115L404.932 561.151Z" fill="#0E141B"/>
<path d="M417.005 608.566C415.891 608.601 410.645 608.278 410.034 608.781C409.424 609.302 409.657 617.243 409.603 618.411C408.453 618.357 401.357 617.567 400.764 617.962C400.171 618.375 400.943 625.885 400.979 627.664C396.937 625.58 392.05 622.4 391.403 622.615C390.757 622.831 390.253 623.154 389.84 632.497C388.529 632.101 383.372 630.538 383.372 630.538C382.851 630.413 381.971 630.251 378.701 637.922C377.551 637.276 369.431 632.353 368.82 632.335C368.209 632.335 363.52 637.096 362.621 637.905C361.885 636.97 357.285 631.311 356.513 631.383C355.74 631.455 353.315 635.802 352.866 636.862C351.734 636.341 339.696 631.94 339.696 631.94L342.894 634.671C342.894 634.671 353.045 638.893 353.548 638.677C354.051 638.461 356.333 634.922 356.962 633.431C358.004 634.742 361.992 639.827 362.442 639.881C362.873 639.935 368.353 634.581 368.981 634.006C369.754 634.437 378.863 640.042 379.33 639.863C379.797 639.683 382.636 632.533 383.265 631.94C383.732 632.083 390.721 634.778 391.062 634.311C391.403 633.844 391.601 625.634 391.942 624.268C394.062 625.651 401.842 630.341 402.345 629.909C402.848 629.478 402.147 620.639 402.111 619.399C403.333 619.471 410.573 620.315 410.861 619.83C411.148 619.345 411.256 611.189 411.31 610.111C412.352 610.075 417.616 610.883 417.958 610.272C418.299 609.661 417.814 598.954 417.742 597.642C418.73 597.696 420.958 597.822 420.958 597.822L421.03 596.474C421.03 596.474 416.7 595.774 416.323 596.205C415.945 596.654 416.916 607.362 416.987 608.583L417.005 608.566Z" fill="#0E141B"/>
<path d="M264.669 547.102C264.669 553.39 265.1 562.786 274.802 569.506C279.15 572.506 279.761 569.829 279.94 566.631C280.12 563.433 280.084 560.433 280.084 560.415L277.281 559.732C277.245 560.073 277.317 562.229 277.677 564.87C278.233 569.002 276.688 567.835 274.55 565.984C267.795 560.181 267.346 552.384 267.346 549.419L264.669 547.12V547.102Z" fill="#0E141B"/>
<path d="M286.174 558.222C285.725 557.18 284.593 556.282 283.426 555.078C282.204 555.581 280.263 554.018 279.06 553.443C279.922 554.611 281.701 556.785 283.03 558.474C284.486 560.307 283.515 560.558 280.551 559.193C270.993 554.755 266.501 547.946 264.759 542.484C264.094 541.819 262.656 540.274 261.992 539.609C262.89 547.694 267.507 556.785 280.802 562.103C286.049 564.205 287.827 562.067 286.174 558.222Z" fill="#0E141B"/>
<path d="M271.873 499.348C271.352 498.019 270.508 496.869 270.185 495.611C268.765 498.145 266.699 500.211 265.765 506.679C263.627 521.231 267.687 528.544 267.867 522.291C268.011 516.542 267.436 513.811 268.478 508.296C269.52 502.798 270.867 501.576 271.891 499.366L271.873 499.348Z" fill="#0E141B"/>
<path d="M350.188 474.59L348.428 477.752C370.436 493.311 379.887 539.089 362.1 555.205C361.992 556.372 361.813 557.702 361.669 558.978C383.857 542.377 376.311 494.874 350.188 474.59Z" fill="#0E141B"/>
<path d="M282.474 552.707C281.575 553.605 281.018 553.659 279.383 553.659C290.091 564.259 315.585 581.992 347.979 567.727C349.164 566.361 350.53 564.888 351.105 562.84C341.798 570.458 309.872 577.393 282.456 552.707H282.474Z" fill="#0E141B"/>
<path d="M257.878 528.722C259.674 540.238 265.585 549.922 277.784 554.485C284.126 556.857 285.294 555.312 281.144 549.904C273.957 540.544 266.771 528.686 267.489 510.791C267.489 510.791 265.639 513.612 265.603 514.205C264.92 529.225 271.28 541.011 277.658 549.06C280.695 552.904 281.306 553.928 276.67 551.79C266.088 546.922 262.549 538.765 260.716 527.105C260.429 525.29 260.303 523.547 260.303 521.859C260.303 509.929 266.771 501.269 271.083 497.73L269.753 495.771C261.471 500.91 255.829 515.66 257.878 528.74V528.722Z" fill="#0E141B"/>
<path d="M361.273 530.536C359.692 526.979 357.051 528.111 356.782 529.261V531.399C357.177 530.662 358.578 529.476 359.585 531.686C360.627 533.932 361.687 540.885 361.687 547.748C361.687 553.048 361.022 558.294 359.171 561.277C356.045 566.253 352.147 569.775 348.877 571.841C345.301 574.105 344.906 573.871 347.026 570.835C350.44 565.93 354.249 559.21 354.716 549.652C354.069 550.838 352.596 552.689 351.877 554.018C350.889 560.288 347.062 565.732 344.511 570.511C341.259 576.566 342.624 578.722 351.194 573.332C354.752 571.086 359.046 567.205 362.046 561.887C367.148 552.779 363.196 534.866 361.273 530.554V530.536Z" fill="#0E141B"/>
<path d="M358.058 525.471C357.626 521.482 356.01 518.661 352.362 518.464C351.608 518.428 350.638 518.32 350.027 518.841C350.314 519.272 350.332 520.494 350.62 520.997C350.871 520.907 355.147 519.793 355.794 526.603C355.992 528.723 356.081 531.507 356.081 534.562C356.081 541.802 355.147 550.48 350.548 554.846C345.104 560.002 338.546 562.481 333.713 563.667C331.665 564.17 331.054 564.152 332.635 562.589C338.133 557.199 340.99 552.492 341.133 552.24L337.073 554.217C337.073 554.217 333.48 558.726 330.336 561.799C325.808 566.218 328.701 566.488 335.079 565.266C340.846 564.152 347.943 561.565 353.71 556.085C359.405 550.677 359.243 536.736 358.04 525.489L358.058 525.471Z" fill="#0E141B"/>
<path d="M340.63 513.182C340.469 518.949 340.199 530.196 336.606 537.832C333.731 543.923 327.515 550.337 320.849 555.888C318.316 558.008 316.34 561.422 324.461 560.523C334.576 559.41 343.541 554.145 349.164 547.031C353.836 541.102 352.596 520.405 350.979 514.494C349.128 507.792 340.828 507.397 340.648 513.164L340.63 513.182ZM348.859 515.769C350.296 521.537 350.674 540.419 346.541 545.647C342.732 550.48 334.216 556.822 324.982 558.349C320.939 559.014 320.921 558.385 323.023 556.966C326.293 554.72 332.564 549.923 338.241 540.347C340.433 536.646 342.93 527.807 343.128 513.973C343.002 510.793 347.673 511.026 348.859 515.769Z" fill="#0E141B"/>
<path d="M271.909 525.955C274.155 528.632 276.167 529.009 276.401 525.811C276.706 521.643 277.497 518.499 279.006 516.684L277.12 513.576C275.916 514.887 275.035 519.271 274.82 523.062C274.622 526.53 274.496 526.314 273.005 524.05C269.735 519.109 269.753 512.031 274.622 504.718L272.987 502.473C268.262 506.246 266.322 519.307 271.909 525.973V525.955Z" fill="#0E141B"/>
<path d="M264.022 491.569C251.913 491.569 242.067 481.094 242.067 468.213C242.067 459.373 246.702 451.666 253.53 447.713C252.883 447.066 252.236 446.419 252.236 445.449C244.169 449.905 238.33 458.654 238.33 468.536C238.33 482.819 250.511 494.12 264.022 494.12C266.286 494.12 268.46 493.761 270.526 493.168C270.49 492.341 270.346 491.515 269.951 490.688C268.064 491.245 266.07 491.587 264.022 491.587V491.569Z" fill="#0E141B"/>
<path d="M226.67 369.127C228.97 383.464 243.81 441.549 267.472 476.494L268.819 471.086C247.403 439.788 230.569 374.876 229.616 367.851C228.467 359.21 230.443 356.946 233.749 364.204C237.971 373.493 260.033 420.026 268.891 429.44L269.358 424.643C260.914 411.348 238.743 366.198 236.12 360.575C231.629 350.963 224.263 354.161 226.67 369.127Z" fill="#0E141B"/>
<path d="M306.53 514.224C303.422 518.697 298.877 523.53 295.427 526.117C291.115 529.351 290.253 529.729 283.983 522.237C272.43 508.385 269.107 480.95 269.107 462.265C269.107 443.58 265.819 447.335 265.657 461.025C265.388 484.31 269.268 510.523 281.737 524.626C289.552 533.466 293.145 532.208 299.218 527.267C302.111 524.914 304.752 521.931 306.998 519.362C307.105 517.655 306.584 515.966 306.512 514.242L306.53 514.224Z" fill="#0E141B"/>
<path d="M320.221 492.34C318.765 496.203 317.005 500.173 314.328 504.144C315.172 505.33 315.388 506.623 315.442 508.492C319.161 503.102 322.197 498.053 324.137 493.31C323.059 493.49 321.263 492.843 320.221 492.34Z" fill="#0E141B"/>
<path d="M365.226 354.144C351.841 369.865 327.946 399.024 306.782 426.764C290.81 447.713 290.738 452.905 307.177 432.082C326.347 407.792 368.676 356.121 368.676 356.121C377.928 344.945 376.994 351.216 372.79 361.061C366.034 376.908 348.068 418.158 336.911 443.149C337.702 443.832 339.498 445.054 340.289 445.629C352.236 419.721 369.843 379.369 376.599 363.433C384.989 343.67 377.749 339.376 365.19 354.144H365.226Z" fill="#0E141B"/>
<path d="M300.925 288.855C287.468 314.798 267.723 389.592 266.573 421.464C265.998 437.364 268.657 438.837 270.49 421.159C274.891 378.704 291.115 320.457 306.225 288.693C314.417 271.445 316.771 273.224 314.22 292.142C308.92 331.201 302.613 426.243 303.943 434.22L307.734 429.154C306.53 412.84 314.094 329.872 318.442 292.142C321.712 263.863 313.249 265.085 300.925 288.855Z" fill="#0E141B"/>
<path d="M310.034 501.575C307.896 501.863 304.698 503.983 304.698 508.007C304.698 508.205 305.237 512.732 305.237 512.732C306.009 516.901 306.351 522.398 305.901 527.519C305.434 532.909 306.836 533.358 311.435 529.441C317.274 524.5 319.502 518.895 316.825 506.857C315.963 502.959 312.657 501.198 310.016 501.575H310.034ZM310.231 504.073C312.046 503.821 314.22 505.043 314.849 507.882C315.495 510.756 315.837 513.235 315.837 515.445C315.837 520.009 314.238 523.692 310.806 527.034C307.5 530.25 307.626 529.818 307.842 527.123C308.183 522.812 308.453 518.913 307.644 512.373L307.267 508.924C307.087 505.69 308.686 504.306 310.249 504.091L310.231 504.073Z" fill="#0E141B"/>
<path d="M298.284 466.81C298.284 481.614 311.723 494.819 326.455 494.819C341.187 494.819 353.099 481.937 353.099 467.133C353.099 452.329 340.253 439.465 325.521 439.465C310.788 439.465 298.302 452.005 298.302 466.81H298.284ZM301.356 466.81C301.356 453.425 312.19 442.519 325.521 442.519C338.852 442.519 349.685 453.407 349.685 466.81C349.685 480.212 338.852 491.1 325.521 491.1C312.19 491.1 301.356 480.212 301.356 466.81Z" fill="#0E141B"/>
</g>
<defs>
<clipPath id="clip0_42_62815">
<rect width="720" height="480.922" fill="white" transform="translate(40 210)"/>
</clipPath>
</defs>
</svg>
