<svg width="800" height="800" viewBox="0 0 800 800" fill="none" xmlns="http://www.w3.org/2000/svg">
<g clip-path="url(#clip0_42_58610)">
<path d="M425.654 246.303C422.779 250.211 426.818 273.412 434.465 279.744C436.362 281.322 437.809 281.209 438.692 280.852C440.213 280.213 441.134 278.41 441.416 275.46C441.472 274.84 441.491 274.183 441.491 273.469C441.491 265.203 437.546 251.845 430.463 247.224C429.467 246.585 426.386 245.326 425.654 246.303Z" fill="#0E141B"/>
<path d="M436.268 277.565C431.158 273.319 429.242 261.032 429.242 254.119C429.242 252.278 429.411 251.019 429.655 250.192C435.272 254.645 438.673 266.067 438.673 273.375C438.673 274.014 438.654 274.615 438.598 275.198C438.391 277.452 437.809 278.166 437.602 278.241C437.508 278.279 437.076 278.241 436.268 277.565Z" fill="#3E62AD"/>
<path d="M435.329 265.541C435.912 268.584 435.63 271.271 434.728 271.534C433.826 271.816 432.624 269.58 432.042 266.536C431.459 263.493 431.741 260.807 432.643 260.543C433.544 260.262 434.747 262.497 435.329 265.541Z" fill="#0E141B"/>
<path d="M689.438 553.204C683.483 555.007 676.419 570.187 677.265 579.411L677.903 591.472C678.317 603.007 678.354 609.77 681.041 610.747C682.13 611.142 683.258 610.71 684.385 609.451C692.069 600.959 704.487 567.575 696.502 552.884H695.319C694.06 550.573 691.58 552.546 689.438 553.204Z" fill="#0E141B"/>
<path d="M680.721 591.378L680.064 579.167C680.026 578.735 680.007 578.284 680.007 577.814C680.007 569.473 686.151 557.149 690.265 555.909C690.641 555.796 691.448 555.552 692.331 557.187C693.928 560.117 694.586 563.856 694.586 567.97C694.586 582.755 686.188 602.387 682.6 606.389C682.6 606.389 682.431 606.539 682.262 606.671C681.228 604.961 680.947 597.183 680.721 591.36V591.378Z" fill="white"/>
<path d="M690.265 555.909C686.169 557.149 680.007 569.473 680.007 577.814C680.007 578.284 680.007 578.735 680.064 579.167L680.721 591.378C680.928 597.184 681.228 604.961 682.262 606.69C682.431 606.539 682.6 606.408 682.6 606.408C682.75 606.239 682.938 605.994 683.107 605.75C684.14 589.255 686.038 572.235 690.209 565.697C690.735 564.87 692.125 563.349 693.891 561.545C693.534 559.967 693.027 558.483 692.331 557.187C691.448 555.552 690.641 555.796 690.265 555.909Z" fill="#DCDDDD"/>
<path d="M501.064 398.119C498.039 411.194 497.851 431.616 510.438 435.711C533.546 443.226 550.773 448.185 567.888 458.518C580.682 466.258 608.599 534.417 617.41 557.073C625.432 577.72 638.996 578.378 676.156 573.737C685.531 572.572 694.154 569.679 697.498 562.071C701.8 552.283 699.508 538.681 691.242 527.033C682.919 515.31 639.86 467.949 619.927 448.223C611.849 440.22 603.395 438.473 584.608 430.789C565.822 423.105 552.558 416.624 546.358 404.225C542.47 396.428 534.222 383.146 516.131 382.601C509.104 382.376 503.543 387.41 501.064 398.119Z" fill="#0E141B"/>
<path d="M621.392 551.738C621.054 550.874 586.844 465.037 569.748 455.268C555.282 447.002 537.679 439.619 514.327 432.029C504.877 428.967 501.683 412.134 504.727 398.964C505.478 395.752 508.447 385.325 515.604 386.34C529.225 388.256 534.673 396.222 542.92 408.264L546.978 414.125C552.295 421.621 567.287 427.764 583.18 434.283C595.918 439.506 609.068 444.898 614.535 450.346C634.299 470.11 678.26 516.532 686.489 528.104C693.984 538.663 696.201 550.066 692.444 558.633C689.645 564.983 683.708 569.022 675.705 570.018C637.512 574.789 628.268 569.379 621.411 551.757L621.392 551.738Z" fill="#E83921"/>
<path d="M662.648 567.575C652.729 569.078 640.743 566.974 628.381 563.799C635.783 571.614 648.277 573.436 675.686 569.998C683.69 569.003 689.645 564.945 692.425 558.614C693.008 557.28 693.44 555.852 693.74 554.387C688.086 560.305 677.358 565.321 662.63 567.575H662.648Z" fill="#C9301A"/>
<path d="M515.604 386.321C508.447 385.307 505.478 395.733 504.727 398.946C501.683 412.115 504.877 428.929 514.327 432.011C526.557 435.993 537.19 439.901 546.659 443.921C540.553 429.737 536.833 414.689 536.458 399.19C531.009 392.239 525.449 387.693 515.623 386.321H515.604Z" fill="#C9301A"/>
<path d="M675.555 545.219C669.073 547.098 655.227 562.109 655.491 567.933C655.791 574.264 664.978 600.471 666.819 605.224C667.589 607.197 669.017 610.578 670.52 610.691C672.493 610.86 676.494 604.097 677.884 600.358C686.432 577.645 684.704 553.392 680.533 546.084C679.988 545.125 678.617 544.299 675.517 545.201L675.555 545.219Z" fill="#0E141B"/>
<path d="M670.933 604.848C670.576 604.81 670.069 604.172 669.75 603.326C667.984 598.798 659.605 572.328 659.323 566.373C659.135 562.596 669.806 550.517 675.893 548.751C677.321 548.337 677.584 548.788 677.678 548.957C681.341 555.364 680.703 590.476 674.221 601.372C672.155 604.848 671.046 604.867 670.933 604.848Z" fill="white"/>
<path d="M659.323 566.373C659.605 572.31 667.984 598.78 669.75 603.327C670.088 604.172 670.576 604.811 670.933 604.848C671.027 604.848 671.629 604.848 672.737 603.533C669.693 593.633 664.696 570.995 663.325 559.103C660.92 562.071 659.267 564.889 659.342 566.392L659.323 566.373Z" fill="#DCDDDD"/>
<path d="M639.56 538.437C632.402 539.771 621.487 552.809 620.98 556.435C620.491 559.835 628.814 597.634 633.886 599.907C634.769 600.302 635.802 600.151 636.347 599.306C651.358 575.917 649.423 546.346 646.342 540.804C644.876 538.155 642.659 537.873 639.56 538.437Z" fill="#0E141B"/>
<path d="M624.398 556.022C624.398 555.796 624.398 555.589 624.436 555.439C624.774 553.016 633.36 543.585 639.315 542.476C641.25 542.119 642.546 542.702 643.429 544.28C644.087 545.463 644.519 548.958 644.519 553.654C644.519 565.077 641.964 583.582 634.055 593.576C630.993 589.293 624.398 561.733 624.398 556.003V556.022Z" fill="white"/>
<path d="M624.436 555.439C624.417 555.59 624.398 555.796 624.398 556.022C624.398 561.752 630.993 589.293 634.055 593.595C635.107 592.28 636.046 590.796 636.91 589.218C634.186 583.075 630.654 561.282 629.039 549.202C626.484 551.776 624.605 554.35 624.436 555.439Z" fill="#DCDDDD"/>
<path d="M514.046 688.054C513.895 688.824 513.726 691.417 517.39 692.281C525.186 694.122 556.898 696.996 559.866 693.295C560.336 692.713 560.43 691.924 560.129 691.154C558.251 686.476 533.603 674.189 531.536 673.926C528.812 673.569 515.06 682.549 514.064 688.054H514.046Z" fill="#0E141B"/>
<path d="M516.788 688.768V688.731C516.995 685.368 528.831 677.12 531.217 676.782C534.222 677.44 555.17 688.862 555.132 690.384C555.113 691.906 527.44 691.793 518.009 689.576C516.863 689.294 516.77 688.956 516.77 688.787L516.788 688.768Z" fill="white"/>
<path d="M523.739 681.198C520.245 683.809 516.901 686.927 516.788 688.712C516.788 688.712 516.788 688.731 516.788 688.75C516.788 688.919 516.882 689.257 518.028 689.539C527.44 691.774 555.113 691.868 555.151 690.347C555.151 690.328 555.132 690.29 555.113 690.253C546.509 688.055 535.669 685.143 523.739 681.179V681.198Z" fill="#DCDDDD"/>
<path d="M481.056 530.34C458.587 532.97 388.174 607.816 386.746 620.817C386.465 623.428 383.891 626.246 384.436 626.434C408.577 634.775 426.988 641.144 430.613 649.297C432.624 653.844 431.647 657.601 428.434 662.636C425.222 667.671 417.444 683.715 421.558 689.67C425.673 695.625 483.799 704.887 484.362 705C495.672 707.386 526.013 704.455 535.669 692.413C539.257 687.96 541.737 684.898 539.332 679.581C537.848 676.313 531.742 670.151 529.338 667.727C526.125 664.477 524.134 662.335 524.96 660.757C547.58 617.717 532.306 601.335 513.2 579.674C499.448 564.099 496.855 551.757 489.378 530.64C488.721 528.799 486.128 529.738 481.037 530.321L481.056 530.34Z" fill="#0E141B"/>
<path d="M480.135 534.322C484.231 533.308 484.832 535.018 485.114 535.825C492.572 556.867 499.185 571.727 510.814 585.441C529.075 606.971 538.581 621.004 521.56 659.235C519.738 663.331 523.27 666.9 526.689 670.376C528.962 672.687 531.329 675.073 532.531 677.74C534.373 681.798 533.94 685.424 531.216 688.806C522.838 699.214 495.54 703.535 485.133 701.355C462.851 696.659 429.787 690.76 427.269 686.57C424.771 682.381 435.31 657.131 435.31 653.693C435.31 651.871 434.953 649.898 434.033 647.813C429.937 638.608 415.678 629.853 390.466 621.098C390.917 611.367 457.234 539.996 480.098 534.36L480.135 534.322Z" fill="#E83921"/>
<path d="M493.568 697.523C488.364 693.878 486.053 693.145 478.538 692.206C474.612 691.718 463.697 689.087 454.923 685.349C446.3 681.685 445.511 675.411 453.552 667.22C459.357 661.321 463.903 655.083 460.203 643.473C452.5 619.389 484.287 589.518 504.633 577.363C496.63 565.79 491.163 552.827 485.133 535.844C484.851 535.036 484.25 533.326 480.154 534.341C457.291 539.977 390.973 611.348 390.522 621.079C415.734 629.834 429.993 638.589 434.089 647.794C435.009 649.879 435.366 651.852 435.366 653.674C435.366 657.131 424.808 682.362 427.326 686.551C428.096 687.829 431.741 689.294 437.076 690.816C437.076 690.816 437.076 690.816 437.095 690.816C437.508 690.928 437.94 691.041 438.372 691.173C438.654 691.248 438.917 691.323 439.199 691.398C451.429 694.686 470.61 698.274 485.17 701.336C487.969 701.919 491.99 702.031 496.517 701.693C495.202 699.533 494.075 697.861 493.587 697.523H493.568Z" fill="#C9301A"/>
<path d="M512.373 691.718C511.321 693.596 511.377 695.118 511.377 696.17C511.377 697.542 513.482 697.993 514.214 698.443C522.518 703.553 551.318 705.432 554.794 703.272C555.414 702.877 555.526 701.694 555.282 700.961C552.971 694.029 532.531 677.684 531.216 677.027C527.271 675.054 515.266 686.514 512.373 691.718Z" fill="#0E141B"/>
<path d="M515.661 695.794C515.661 695.343 515.868 694.254 517.239 692.018C520.921 686.063 528.211 679.6 530.033 679.581C532.626 681.028 550.999 698.124 550.586 699.702C550.172 701.28 523.138 700.622 515.699 696.038C515.699 696.038 515.661 695.963 515.661 695.794Z" fill="white"/>
<path d="M518.648 689.933C518.141 690.628 517.652 691.323 517.22 692.018C515.849 694.235 515.642 695.343 515.642 695.794C515.642 695.963 515.68 696.038 515.68 696.038C522.725 700.378 547.279 701.205 550.266 699.946C539.558 697.203 527.872 693.502 518.648 689.933Z" fill="#DCDDDD"/>
<path d="M505.76 682.137C504.502 681.611 504.445 681.235 501.214 682.587C498.002 683.94 482.239 696.959 481.976 701.449C481.92 702.426 483.611 703.384 484.456 703.76C487.462 705.094 521.222 712.289 526.877 709.866C527.873 709.434 528.06 708.57 526.708 704.906C524.134 697.955 516.469 686.589 505.742 682.137H505.76Z" fill="#0E141B"/>
<path d="M515.83 694.611C520.79 700.247 523.984 705.526 522.838 706.315C520.283 708.062 491.689 702.632 486.598 700.773C487.537 697.879 499.054 686.25 502.078 685.292C504.596 684.503 510.382 688.411 515.83 694.611Z" fill="white"/>
<path d="M486.598 700.773C491.689 702.633 520.283 708.062 522.838 706.315C523.27 706.014 523.101 705.112 522.462 703.797C515.285 703.14 502.022 700.04 489.322 696.884C487.894 698.556 486.861 699.984 486.598 700.773Z" fill="#DCDDDD"/>
<path d="M572.078 122.048C570.011 125.354 534.316 151.581 500.594 166.121C451.58 187.257 446.319 193.325 441.19 208.035C440.214 210.853 439.669 212.412 434.634 214.535C426.8 217.841 422.498 222.35 420.6 228.324C418.759 234.111 421.446 247.881 437.358 270.595C422.028 280.138 412.465 292.011 412.465 305.5C412.465 321.037 425.372 335.089 441.115 344.239C445.361 346.7 449.776 346.963 451.749 345.272C441.115 380.741 416.054 390.21 391.744 399.303C383.045 402.553 374.817 405.634 367.452 409.842C334.989 428.422 314.774 442.155 298.561 455.794C283.795 468.194 268.935 479.823 261.589 479.447C220.033 477.399 194.07 463.309 175.828 437.308C148.756 398.683 155.838 346.455 158.581 337.513L159.953 333.06L155.876 335.334C154.486 336.104 153.34 336.743 152.626 337.081C151.33 335.24 148.981 333.38 142.368 331.971L140.865 331.651L140.245 333.06C120.012 378.938 107.613 421.471 109.999 467.649C114.076 546.628 177.612 585.686 208.329 602.199C267.469 633.987 288.905 632.559 358.923 631.713C448.442 630.624 480.398 582.248 496.649 537.141C505.648 512.211 515.548 472.345 517.352 445.462C518.122 433.87 516.582 424.007 518.686 410.894V410.725C518.686 410.725 518.686 410.086 518.686 409.861C518.686 380.234 548.707 349.518 566.254 333.267C593.419 308.093 604.372 293.59 604.372 275.554C604.372 249.478 588.403 216.282 572.284 195.279C575.178 190.056 591.841 162.627 600.803 145.757C602.268 142.995 603.827 139.463 603.827 136.927C603.827 131.629 600.859 127.195 594.753 123.814C587.84 119.981 574.163 118.441 572.078 122.048Z" fill="#0E141B"/>
<path d="M594.058 130.107C596.576 132.343 597.834 134.898 597.834 137.735C597.834 139.651 597.252 141.717 596.106 143.897C586.243 162.458 568.997 191.051 568.828 191.371C568.828 191.371 565.559 187.595 562.534 185.077C559.509 182.56 559.265 186.58 561.52 189.361C563.793 192.141 586.13 225.525 593.72 247.731C596.951 257.181 598.886 265.259 598.886 272.943C598.886 290.039 589.305 305.256 563.004 329.641C545.006 346.324 514.985 378.806 514.985 409.861C514.985 410.067 514.985 410.255 514.985 410.462C512.881 423.669 512.073 435.692 511.303 447.303C509.518 473.792 507.846 498.816 491.144 533.158L487.838 540.259C474.293 569.942 449.1 625.194 361.967 626.246C292.719 627.092 242.201 616.665 207.502 594.365L205.699 593.2C175.377 573.737 118.941 537.516 114.959 460.472C114.752 456.452 114.658 452.506 114.658 448.618C114.658 409.203 125.705 375.594 143.552 334.939C148.38 339.542 153.265 338.377 155.331 337.475C154.035 343.581 151.348 356.788 151.348 369.037C151.348 390.379 155.406 420.099 171.469 443C190.406 469.997 234.311 488.239 264.557 484.707C273.331 483.674 283.57 476.572 299.012 463.591C315.113 450.045 337.187 431.503 369.35 413.111C376.451 409.053 384.53 406.028 393.078 402.834C416.918 393.929 443.802 383.878 455.149 347.301C455.6 345.835 454.191 343.543 454.604 342.003L457.648 338.095L453.59 340.725C451.241 342.247 447.991 342.247 443.971 340.707C431.102 335.784 417.651 319.308 417.651 306.007C417.651 294.641 423.662 282.13 440.12 273.319C448.235 268.979 446.094 267.513 444.328 268.265C442.562 269.016 440.552 269.279 440.552 269.279C439.424 267.664 438.372 266.067 436.043 262.31C430.275 253.085 422.065 239.803 425.334 229.47C426.8 224.83 429.975 220.641 436.137 218.048C442.712 215.268 443.67 212.525 444.779 209.331C446.808 203.507 450.227 193.738 502.229 169.597C534.692 154.53 573.299 129.112 576.004 124.434L575.854 124.621C577.413 123.551 588.028 124.791 594.096 130.182L594.058 130.107Z" fill="#E83921"/>
<path d="M575.816 124.546C575.816 124.546 575.835 124.546 575.854 124.546C575.892 124.49 575.948 124.433 575.985 124.377L575.835 124.565L575.816 124.546Z" fill="#C9301A"/>
<path d="M593.702 247.712C586.112 225.487 563.774 192.122 561.501 189.342C559.228 186.561 559.491 182.541 562.516 185.058C565.54 187.576 568.809 191.352 568.809 191.352C568.978 191.032 586.225 162.458 596.088 143.878C597.252 141.698 597.816 139.632 597.816 137.716C597.816 134.879 596.557 132.324 594.04 130.088C592.8 128.98 591.353 128.059 589.832 127.289C582.279 147.353 561.294 171.344 553.817 179.422C546.34 187.501 577.432 229 579.593 251.751C581.753 274.483 581.002 307.83 561.144 324.794C541.287 341.758 520.865 337.531 512.205 338.978C503.544 340.425 493.061 350.325 488.928 351.002C482.071 354.252 472.32 353.519 469.07 355.698C499.035 365.449 499.035 392.877 514.515 413.223C514.647 412.303 514.778 411.382 514.929 410.443C514.929 410.236 514.929 410.048 514.929 409.842C514.929 378.787 544.95 346.286 562.948 329.622C589.249 305.237 598.83 290.02 598.83 272.924C598.83 265.24 596.895 257.162 593.664 247.712H593.702Z" fill="#C9301A"/>
<path d="M111.652 460.641C115.729 539.376 173.085 576.198 203.895 595.962L205.698 597.127C240.942 619.783 292.061 630.379 361.985 629.534C454.66 628.407 480.192 567.631 492.459 538.418L494.094 534.548C501.514 513.094 513.613 470.917 513.895 449.388C514.196 427.858 503.374 419.367 494.413 417.525C483.949 415.384 458.474 420.118 427.476 456.752C400.235 488.953 349.793 541.462 279.455 556.359C235.889 565.584 199.968 551.325 168.332 520.853C133.82 487.619 114.789 435.091 122.06 393.122L119.298 392.614C117.814 400.054 110.487 438.266 111.652 460.66V460.641Z" fill="#0E141B"/>
<path d="M207.239 594.76L205.436 593.595C175.039 574.094 118.472 537.779 114.489 460.491C114.414 458.894 114.376 457.222 114.376 455.475C114.376 443.62 116.161 428.779 118.04 416.417C117.401 455.569 136.282 496.881 165.176 524.704C197.508 555.852 239.44 569.961 283.945 560.53C355.185 545.444 404.857 488.953 433.544 457.579C442.6 447.678 449.739 439.882 455.243 435.711C469.728 424.758 482.127 421.02 492.46 422.372C507.151 424.307 512.43 440.915 511.716 451.473C511.002 462.05 502.961 503.888 491.539 533.421L489.886 537.31C477.844 565.959 452.801 625.607 361.967 626.697C292.625 627.542 242.013 617.078 207.239 594.741V594.76Z" fill="#FFF3C3"/>
<path d="M161.888 561C177.237 575.503 193.375 585.874 205.417 593.595L207.22 594.76C241.976 617.116 292.587 627.561 361.948 626.716C423.08 625.965 454.398 598.724 472.02 572.234C342.654 655.986 202.956 591.435 161.888 561Z" fill="#DCD2A9"/>
<path d="M546.791 317.712C543.935 320.117 539.445 322.409 535.049 323.818C529.263 325.678 492.347 318.952 481.976 320.774C476.303 321.77 470.535 325.114 465.444 329.454C455.976 337.532 453.684 343.318 446.376 341.778C440.909 340.632 451.617 344.352 451.617 344.352C451.692 344.652 452.932 351.979 460.616 355.624C466.064 358.216 480.229 356.488 492.572 350.795C496.705 348.898 497.795 346.249 491.539 348.898C482.615 352.655 469.258 354.985 462.175 351.81C458.681 350.251 454.003 344.182 456.765 341.402C464.58 333.587 476.284 325.321 482.446 324.081C490.431 322.202 525.411 328.777 535.988 326.654C541.718 325.508 545.25 323.198 548.669 319.403C552.126 315.57 550.999 314.18 546.791 317.731V317.712Z" fill="#0E141B"/>
<path d="M481.864 353.219C484.043 354.966 489.153 358.085 491.689 359.024C494.225 359.963 495.24 359.212 491.952 357.183C489.36 355.586 487.575 354.196 485.433 352.467C484.87 352.016 481.864 353.219 481.864 353.219Z" fill="#0E141B"/>
<path d="M438.992 243.673C440.007 245.796 442.336 251.526 442.938 254.964C443.539 258.402 445.925 259.923 445.737 254.625C445.549 249.328 443.407 244.631 441.209 241.944C439.011 239.258 437.978 241.569 438.992 243.691V243.673Z" fill="#0E141B"/>
<path d="M476.04 251.638C477.073 254.607 478.595 256.56 478.839 251.3C479.083 246.04 479.76 238.957 480.436 236.064C481.112 233.171 482.033 228.549 478.182 234.392C474.312 240.235 475.025 248.67 476.059 251.638H476.04Z" fill="#0E141B"/>
<path d="M449.1 322.258C449.851 325.189 450.678 324.418 451.899 322.521C453.12 320.642 452.744 317.016 455.149 314.593C457.554 312.169 454.078 310.873 452.35 312.489C450.621 314.104 448.348 319.327 449.1 322.258Z" fill="#0E141B"/>
<path d="M540.084 234.205C524.566 239.503 495.803 259.36 487.594 274.859C487.594 274.859 485.903 277.057 486.898 277.809C487.913 278.56 489.923 277.564 489.923 277.564C500.481 283.426 518.761 286.131 546.133 279.838C550.022 278.936 549.402 277.564 549.402 277.564L547.88 276.306C550.961 270.97 551.412 261.765 548.124 253.123C545.795 246.961 543.334 242.546 539.558 239.014C539.558 239.014 542.338 237.492 544.348 235.482C546.358 233.472 549.27 231.086 540.065 234.223L540.084 234.205Z" fill="#0E141B"/>
<path d="M536.026 240.648C538.111 241.55 541.587 246.04 544.236 253.048C546.114 257.989 547.054 262.817 547.054 267.081C547.054 270.726 546.321 273.92 544.931 276.512C519.569 283.82 499.711 279.349 490.881 275.066C499.692 262.497 529.563 241.888 536.026 240.667V240.648Z" fill="white"/>
<path d="M522.349 245.589L519.944 247.223C511.565 252.935 501.158 260.036 494.526 266.987L494.207 267.325L489.585 273.431C492.027 278.579 496.592 278.165 501.646 281.002L501.778 281.077L501.909 281.115C510.288 282.9 519.287 283.275 528.661 282.204L529.263 282.129L529.883 281.096C535.406 268.321 530.202 251.826 523.082 245.101L522.33 245.608L522.349 245.589Z" fill="#0E141B"/>
<path d="M522.594 247.693C527.102 254.1 529.507 261.821 529.507 269.524C529.507 273.206 528.925 276.869 527.816 280.364C514.985 281.716 502.078 280.72 496.893 278.297C494.432 277.151 490.788 275.949 491.727 274.54C496.837 266.837 515.774 251.639 522.594 247.693Z" fill="#3E62AD"/>
<path d="M511.509 253.123C507.564 255.847 506.362 257.444 496.893 265.297C497.983 271.252 500.406 279.913 507.996 279.913C515.586 279.913 520.339 262.197 511.509 253.123Z" fill="#0E141B"/>
<path d="M224.636 253.423C217.947 261.126 211.128 273.713 210.151 287.972C207.032 333.041 182.29 331.876 170.436 332.722C167.58 332.928 163.485 333.285 160.122 335.671C156.026 338.564 151.781 338.94 148.831 338.377C145.882 337.813 143.533 336.31 141.805 334.037C140.058 331.782 140.358 331.087 136.657 326.766C133.783 323.385 128.673 319.496 119.392 314.705C108.007 308.863 102.428 295.505 101.225 283.275C99.7225 267.983 105.603 254.494 116.255 246.021C137.559 229.057 140.828 218.104 141.392 207.264C141.636 202.548 142.312 203.601 143.214 204.765C146.671 209.969 147.572 216.676 147.572 222.199C147.572 222.425 155.275 193.587 177.725 183.555C180.28 182.259 181.163 182.296 178.909 184.964C173.573 191.22 169.365 203.882 170.905 205.235C171.225 205.517 172.07 207.132 174.738 204.371C178.214 200.764 181.896 195.071 184.357 188.44C189.843 173.654 196.286 164.524 206.957 163.528C209.005 163.528 209.362 163.679 207.671 165.163C202.862 169.54 202.486 176.397 203.763 179.854C204.421 181.658 206.976 181.695 208.235 178.52C214.434 162.984 220.672 157.047 245.714 140.684C250.505 137.546 251.764 137.114 248.551 142.807C245.959 147.391 242.07 151.411 237.373 156.239C237.373 156.239 232.376 161.462 232.338 161.499C226.702 167.549 211.973 183.367 220.108 189.285C221.122 190.018 222.738 188.684 223.377 187.369C226.74 180.324 229.22 178.426 237.467 180.042C238.744 180.286 239.12 180.869 237.805 181.752C232.056 185.49 227.303 194.094 222.682 202.417L220.803 205.78C209.287 226.464 218.53 224.322 220.39 222.857C222.55 221.166 223.527 219.475 224.279 217.559C226.27 212.355 227.378 212.956 227.378 217.803C227.378 233.471 222.813 239.634 209.982 246.772C207.371 248.219 205.285 252.277 204.252 257.5C203.688 260.337 204.383 261.746 207.521 258.383C211.09 254.569 215.299 249.628 226.646 248.632C228.637 248.595 228.731 248.708 224.636 253.461V253.423Z" fill="#0E141B"/>
<path d="M146.577 232.532C146.652 232.212 153.377 201.721 174.813 187.5C170.736 193.793 168.106 200.782 168.106 205.065C168.106 206.625 168.463 207.808 169.215 208.466C170.718 209.781 173.047 208.842 176.109 205.648C179.773 201.834 182.835 195.728 186.048 189.247C191.139 179.046 196.418 168.6 204.477 166.008C202.223 169.108 201.284 172.752 201.284 175.908C201.284 177.674 201.565 179.271 201.997 180.492C202.73 182.503 203.97 183.667 205.36 183.724C207.07 183.78 208.61 182.277 209.944 179.271C217.929 161.311 225.725 156.051 241.243 145.587C241.243 145.587 244.343 143.464 246.898 141.735C244.418 146.169 240.642 150.152 236.02 154.924L230.985 160.184C226.214 165.294 216.407 175.796 216.407 184.344C216.407 186.579 217.083 188.683 218.68 190.525C219.526 191.501 220.371 191.934 221.235 191.877C222.719 191.783 223.696 190.28 224.936 188.383C226.984 185.245 229.52 181.451 235.043 181.676C229.727 186.072 225.274 193.812 221.028 201.496L219.169 204.84C218.361 206.268 212.293 217.277 212.293 223.345C212.293 224.341 212.462 225.205 212.837 225.862C213.345 226.764 214.19 227.234 215.28 227.271C217.327 227.328 219.619 226.238 221.724 224.19C223.396 222.556 224.673 220.546 225.518 218.498C225.368 225.148 222.7 237.21 209.061 245.138C204.271 247.918 200.927 256.353 200.927 260.843C200.927 260.918 200.927 260.975 200.927 261.05C200.964 262.553 201.396 263.549 202.223 263.962C202.956 264.356 203.839 264.206 204.834 263.549C206.356 262.534 207.615 261.125 208.93 259.622C212.067 256.09 215.655 252.164 224.41 250.83C223.828 251.506 223.208 252.22 223.208 252.22C216.67 259.754 208.516 269.128 207.483 284.007C204.477 327.442 181.802 329.077 169.609 329.941C166.152 330.185 161.324 330.786 160.028 331.857C153.622 337.117 147.384 334.675 144.811 331.2C141.654 326.935 140.396 325.639 136.507 321.393C132.28 316.771 125.629 312.356 118.772 308.674C112.666 305.387 107.538 295.129 106.392 283.5C106.223 281.847 106.147 280.212 106.147 278.616C106.147 265.972 111.088 254.907 120.087 247.73C141.128 230.991 142.575 219.606 143.157 208.804C145.036 213.069 145.637 217.972 145.637 222.199C145.637 227.722 144.735 232.062 144.717 232.137C144.717 232.137 143.514 240.911 146.558 232.532H146.577Z" fill="#E60021"/>
<path d="M199.048 262.948C200.57 257.049 199.518 250.924 198.691 249.027C197.357 245.984 196.925 247.205 196.888 249.929C196.85 252.052 196.418 257.087 191.552 265.146C188.678 269.899 185.146 272.642 183.981 272.078C183.68 271.928 180.712 270.557 186.874 254.25C187.795 251.789 187.1 252.164 184.845 253.742C179.472 257.5 175.903 261.746 173.235 271.195C172.333 274.408 166.96 273.431 169.346 264.188C170.21 260.806 173.104 256.26 177.575 251.995C184.845 245.063 192.266 236.102 191.064 222.481C190.124 211.717 188.659 210.495 196.249 199.374C196.888 198.491 197.846 196.781 197.414 196.612C196.7 196.33 194.934 197.232 193.017 198.679C188.978 201.703 184.113 206.55 183.756 213.389C183.436 219.382 181.595 222.97 178.815 229.188C171.093 246.434 165.889 252.559 161.644 252.052C159.107 251.657 158.901 245.101 169.008 233.077C169.891 232.063 170.135 231.424 168.651 231.555C164.95 232.025 145.769 245.551 145.637 266.254C145.581 273.882 143.796 279.706 141.598 280.175C138.592 280.814 136.507 275.911 136.808 270.895C136.958 268.49 136.244 268.133 133.783 272.003C126.531 283.463 126.306 297.516 133.05 315.213C133.388 316.096 134.534 319.008 136.019 321.337C138.104 324.587 141.072 327.499 142.256 329.34C144.303 332.497 146.201 334.676 148.136 335.315C151.085 336.291 155.294 335.803 158.281 333.361C160.498 331.726 165.476 328.363 166.209 327.725C169.872 324.456 175.452 321.506 179.904 321.037C187.118 320.285 190.838 315.701 192.604 312.019C195.009 307.04 195.084 300.991 193.168 295.674C192.285 293.251 191.646 293.683 190.782 296.05C187.4 305.406 181.501 308.637 178.683 308.562C176.955 308.525 168.538 302.776 183.474 286.657C192.736 276.662 197.526 269.054 199.104 262.929L199.048 262.948Z" fill="#F0EA0D"/>
<path d="M240.83 524.985C230.272 562.145 228.449 564.569 222.137 580.369C213.683 601.504 227.285 625.72 229.727 629.778C238.763 644.751 238.763 657.901 224.222 686.288C213.401 707.423 227.623 712.233 235.025 717.531C242.427 722.828 305.851 723.88 319.584 714.356C333.317 704.85 345.153 701.055 317.668 668.291C328.057 659.987 370.59 591.49 368.711 572.102C366.833 552.715 251.388 487.844 240.83 525.004V524.985Z" fill="#E83921"/>
<path d="M317.668 668.272C328.057 659.968 370.59 591.472 368.711 572.084C368.354 568.402 363.921 563.104 356.876 557.148C356.181 603.796 309.871 647.325 297.359 653.111C284.828 658.897 269.423 663.707 284.828 672.386C300.234 681.066 310.097 686.664 328.808 707.856C336.755 701.224 338.389 692.995 317.668 668.291V668.272Z" fill="#C9301A"/>
<path d="M216.82 580.087C208.066 601.992 220.972 621.756 223.79 626.434C231.831 639.773 235.757 657.526 220.803 686.739C210.602 706.672 220.897 712.496 228.28 717.136L233.916 718.996C242.408 725.064 306.358 725.741 320.636 715.84L323.642 713.811C329.785 709.697 336.492 708.156 337.412 701.675C337.506 701.055 338.408 698.331 338.408 697.692C338.408 690.76 331.044 680.596 320.166 667.427C342.523 645.39 370.759 603.664 370.759 575.296C370.759 574.094 370.684 572.929 370.552 571.802L366.833 572.291C370.233 598.761 325.915 656.248 312.99 666.807C307.823 671.015 306.696 671.109 308.011 672.781C309.326 674.453 316.991 670.301 316.991 670.301C328.846 684.429 333.185 693.014 332.321 699.139C331.626 703.967 327.193 706.935 321.556 710.692L318.494 712.759C304.648 722.34 242.239 720.33 236.096 715.953L232.864 713.83C225.18 708.983 217.252 703.986 225.894 687.115C240.022 659.536 241.337 645.371 231.343 628.782C229.708 626.077 215.618 601.729 223.903 581.045C228.957 568.402 240.604 532.538 242.671 525.418C244.737 518.279 242.765 515.836 239.026 524.535C235.269 533.233 221.855 567.537 216.839 580.087H216.82Z" fill="#0E141B"/>
<path d="M247.724 691.718C241.13 696.565 232.827 711.087 234.499 715.352C236.171 719.673 250.411 738.798 256.46 739.906C257.963 740.188 258.846 739.624 259.316 739.098C265.422 732.372 268.202 721.326 267.582 713.661C266.737 703.234 259.353 692.695 255.709 689.783C254.337 688.675 251.876 688.656 247.724 691.699V691.718Z" fill="#0E141B"/>
<path d="M237.11 714.337C236.321 712.308 242.765 700.66 249.603 695.644C250.824 694.742 253.06 693.371 254.225 694.291C257.531 696.94 264.013 704.455 264.783 713.924C264.839 714.544 264.858 715.145 264.858 715.746C264.858 721.908 262.303 727.845 257.287 733.424C254.582 734.007 239.064 719.334 237.129 714.356L237.11 714.337Z" fill="white"/>
<path d="M255.596 726.942C254.075 726.942 245.884 721.306 239.815 707.254C237.88 710.579 236.772 713.416 237.11 714.336C239.045 719.334 254.563 733.987 257.268 733.405C261.251 728.99 263.656 724.35 264.482 719.54C261.383 723.937 257.08 726.924 255.596 726.924V726.942Z" fill="#DCDDDD"/>
<path d="M293.696 691.398C286.35 695.55 277.708 716.065 279.192 719.728C280.526 723.016 293.057 733.236 304.235 737.068C307.372 738.139 313.704 740.544 316.371 738.308C318.607 736.43 316.296 713.416 310.397 703.947C306.02 696.94 297.566 689.219 293.696 691.398Z" fill="#0E141B"/>
<path d="M307.748 705.77C313.516 715.013 315.376 727.901 312.839 732.654C312.727 732.879 312.37 733.556 310.623 733.593C302.638 733.762 285.711 722.697 283.476 719.184C281.24 715.671 290.502 698.744 294.41 696.339C297.04 694.705 305.118 701.581 307.748 705.789V705.77Z" fill="white"/>
<path d="M285.993 708.682C283.833 713.209 282.461 717.568 283.495 719.165C285.73 722.678 302.676 733.743 310.641 733.574C312.389 733.537 312.746 732.86 312.858 732.635C313.459 731.489 313.798 729.892 313.91 727.976C307.429 729.761 296.307 721.119 285.993 708.663V708.682Z" fill="#DCDDDD"/>
<path d="M329.766 686.607C324.525 686.908 321.181 695.738 319.866 700.341C318.438 705.375 317.893 712.608 319.227 714.393C321.031 716.798 346.111 722.039 353.043 721.419C353.682 721.363 357.026 722.077 356.876 720.142C355.918 708.325 336.924 686.213 329.766 686.626V686.607Z" fill="#0E141B"/>
<path d="M322.195 709.772C322.195 707.104 322.796 702.37 324.506 697.974C325.596 695.175 327.531 691.624 330.518 690.365C332.829 690.797 343.518 701.769 348.741 711.331C350.526 714.581 350.864 716.329 350.864 717.193C350.864 717.55 350.808 717.681 350.77 717.794C348.065 719.41 325.126 713.867 322.421 711.707C322.289 711.388 322.214 710.711 322.214 709.772H322.195Z" fill="white"/>
<path d="M348.741 711.331C343.518 701.769 332.829 690.797 330.518 690.365C327.531 691.624 325.596 695.175 324.506 697.974C323.999 699.289 323.585 700.623 323.266 701.938C329.353 708.213 333.937 712.458 335.008 715.784C341.903 717.437 349.305 718.658 350.77 717.775C350.807 717.662 350.864 717.531 350.864 717.174C350.864 716.31 350.526 714.563 348.741 711.312V711.331Z" fill="#DCDDDD"/>
<path d="M314.267 597.126L314.023 599.907C311.806 620.591 332.49 654.689 340.813 662.373C341.996 663.462 345.171 667.877 346.862 667.032C349.586 665.698 347.219 654.764 345.998 641.294C345.265 633.328 344.363 623.409 344.27 612.851C344.138 599.437 335.196 594.214 326.873 593.82C321.462 593.557 314.643 593.613 314.267 597.145V597.126Z" fill="#0E141B"/>
<path d="M326.723 596.619C330.142 596.788 341.282 598.441 341.433 612.869C341.545 623.54 342.447 633.535 343.18 641.538C343.631 646.479 344.119 651.852 344.119 655.365C344.119 657.225 343.969 658.521 343.612 658.991C343.405 658.916 342.936 658.671 342.128 657.92C334.256 650.668 317.667 621.605 317.667 602.368C317.667 601.297 317.724 600.245 317.818 599.249C317.912 598.31 321.387 596.337 326.723 596.6V596.619Z" fill="white"/>
<path d="M334.82 620.497C338.032 625.87 341.921 645.54 343.762 658.672C344.007 658.052 344.119 656.944 344.119 655.384C344.119 651.871 343.631 646.498 343.18 641.557C342.447 633.535 341.545 623.56 341.433 612.889C341.282 598.46 330.142 596.807 326.723 596.638C321.387 596.375 317.912 598.348 317.818 599.287C317.705 600.302 317.667 601.335 317.667 602.406C317.667 604.66 317.893 607.046 318.306 609.507C325.915 612.551 332.678 616.928 334.82 620.516V620.497Z" fill="#DCDDDD"/>
<path d="M431.628 422.579C421.878 428.76 379.194 453.746 370.665 463.572C366.739 480.611 393.528 551.005 393.566 561.056C393.604 571.107 383.121 622.902 339.648 611.799C324.844 605.449 300.121 610.991 305.813 539.921C308.481 506.65 311.881 477.718 320.617 458.518C329.334 439.318 352.16 430.394 365.01 424.683C377.86 418.991 395.933 396.372 400.949 388.744C405.965 381.135 430.407 376.082 441.115 379.238C451.842 382.394 441.359 416.398 431.609 422.579H431.628Z" fill="#E83921"/>
<path d="M354.057 613.226C385.506 610.934 393.603 569.885 393.566 561.056C393.547 555.307 384.774 529.832 377.992 505.879C376.432 544.58 379.964 588.879 354.057 613.245V613.226Z" fill="#C9301A"/>
<path d="M397.117 388.162C391.443 394.831 382.933 413.655 364.278 422.973L361.666 424.119C348.008 430.094 324.994 439.393 316.522 457.992C308.857 474.844 305.419 502.084 302.713 541.969C298.58 603.307 313.967 606.914 328.62 611.48L339.197 613.602C352.592 617.022 364.578 615.462 374.103 608.042C390.71 595.098 397.229 572.103 397.229 564.137V564.062C397.229 560.117 392.815 546.346 388.325 531.692C381.768 510.275 373.708 476.328 373.971 464.436C383.083 454.573 424.902 430.958 430.82 425.453C436.738 419.949 434.934 419.216 428.904 422.222C422.873 425.228 381.937 449.463 373.314 459.42C373.314 459.42 370.101 450.74 368.824 463.158C367.546 475.576 375.963 506.349 383.797 531.974C387.836 545.2 391.669 557.674 391.669 561.075C391.706 568.176 386.765 592.655 371.398 604.641C362.85 611.311 352.329 613.114 340.118 609.995C339.648 609.826 333.787 607.797 333.787 607.797C321.181 603.871 307.072 599.475 307.072 556.735C307.072 551.719 307.26 546.177 307.673 540.052C309.458 513.507 312.746 480.348 322.308 459.307C330.161 442.004 350 433.325 363.132 427.576L365.762 426.411C379.382 420.362 390.861 405.84 401.738 391.75C408.276 383.296 424.358 379.125 439.218 380.628C446.507 381.361 446.526 378.374 441.397 377.378C420.525 373.358 405.364 378.411 397.079 388.162H397.117Z" fill="#0E141B"/>
<path d="M384.981 568.044C380.941 574.563 372.469 591.866 376.508 595.36L377.522 595.868C386.07 605.092 391.161 615.462 393.867 621.925C395.708 626.302 397.868 634.174 400.066 634.606C401.813 634.944 404.857 629.646 406.548 624.874C410.831 612.776 408.877 595.83 405.759 579.918C404.162 571.727 400.254 562.559 394.411 560.079C391.781 558.97 388.456 562.465 384.981 568.063V568.044Z" fill="#0E141B"/>
<path d="M379.194 591.716C379.194 587.301 383.759 574.075 389.038 567.086C391.255 564.155 392.608 563.705 393.077 563.892C396.703 565.414 399.953 572.29 402.001 582.773C405.402 600.113 404.406 620.628 401.156 623.878C400.386 624.649 400.066 624.63 400.066 624.63C399.352 624.48 397.981 621.23 396.985 618.844C394.186 612.156 389.94 602.029 379.476 593.012C379.288 592.786 379.194 592.336 379.194 591.716Z" fill="white"/>
<path d="M396.816 585.742C394.618 575.578 391.481 569.792 390.579 565.283C390.128 565.734 389.621 566.316 389.038 567.087C383.759 574.075 379.194 587.301 379.194 591.716C379.194 592.336 379.288 592.768 379.476 593.012C389.94 602.03 394.167 612.156 396.985 618.844C397.568 620.216 398.244 621.85 398.883 623.052C399.841 611.236 399.052 595.981 396.816 585.742Z" fill="#DCDDDD"/>
<path d="M338.201 586.024C332.359 592.956 337.187 607.441 340.212 615.519C343.274 623.71 375.756 666.694 381.768 664.684C385.206 663.538 382.012 651.383 378.123 631.338C376.714 624.086 375.023 614.035 373.99 606.445C371.473 588.053 358.115 585.535 350.413 584.502L347.971 584.145C344.457 583.544 340.061 583.845 338.201 586.043V586.024Z" fill="#0E141B"/>
<path d="M343.518 612.382C341.621 606.99 340.212 600.659 340.212 595.643C340.212 592.524 340.756 589.913 342.072 588.353C343.236 586.963 345.021 586.493 347.501 586.926L350.056 587.301C357.871 588.353 368.561 589.8 371.266 608.681C372.356 616.327 373.971 624.593 375.38 631.882C377.015 640.299 378.969 650.368 378.969 654.877C378.969 655.779 378.875 656.38 378.687 656.793C373.765 654.915 347.106 622.489 343.537 612.4L343.518 612.382Z" fill="white"/>
<path d="M367.997 618.919C369.763 626.171 374.742 643.436 377.898 656.343C378.18 656.531 378.443 656.7 378.668 656.775C378.837 656.38 378.95 655.76 378.95 654.859C378.95 650.35 376.996 640.28 375.362 631.864C373.953 624.574 372.337 616.308 371.247 608.662C370.533 603.627 369.237 599.87 367.584 596.977C366.363 604.529 366.344 612.006 368.016 618.901L367.997 618.919Z" fill="#DCDDDD"/>
<path d="M517.578 251.132C515.21 252.973 513.689 254.044 511.115 255.829C510.589 257.219 510.27 258.834 510.27 260.582C510.27 265.673 512.862 269.806 516.056 269.806C519.25 269.806 521.842 265.673 521.842 260.582C521.842 256.016 520.302 251.865 517.559 251.132H517.578Z" fill="white"/>
</g>
<defs>
<clipPath id="clip0_42_58610">
<rect width="598.621" height="620" fill="white" transform="translate(101 120)"/>
</clipPath>
</defs>
</svg>
