<svg width="800" height="800" viewBox="0 0 800 800" fill="none" xmlns="http://www.w3.org/2000/svg">
<g clip-path="url(#clip0_42_63013)">
<path d="M452.822 583.13C409.262 634.612 288.848 638.055 269.56 585.77C299.136 589.721 313.353 554.441 291.995 531.372C272.201 509.994 247.4 518.507 236.288 528.204C211.128 550.153 231.999 615.641 278.538 634.887C359.575 668.391 463.322 615.663 480.814 573.37C473.694 578.651 462.329 581.82 452.822 583.13Z" fill="#FFF3C3"/>
<path d="M296.41 641.583C288.404 634.273 288.657 620.288 299.41 614.732C289.502 610.064 276.046 601.36 269.581 585.769C282.51 587.755 293.009 580.974 297.446 574.024C304.565 562.806 304.438 542.737 289.524 528.478C274.609 514.218 249.766 517.366 240.154 525.055C210.98 548.293 223.739 619.76 296.453 641.604L296.41 641.583Z" fill="#CD5D00"/>
<path d="M373.074 302.436C320.789 317.752 288.489 378.276 309.318 421.773C326.789 458.236 367.434 464.531 391.031 464.848C401.594 469.601 410.403 472.242 418.663 470.826C426.944 469.411 437.887 463.623 444.922 454.032C483.391 441.589 509.882 408.443 506.692 368.474C502.742 318.83 442.091 282.241 373.074 302.457V302.436Z" fill="#FFF3C3"/>
<path d="M304.438 381.446C285.489 375.573 248.963 364.546 231.366 364.25C244.928 374.116 283.228 391.945 303.509 396.593C303.086 393.403 303.192 385.882 304.438 381.467V381.446Z" fill="#FFF3C3"/>
<path d="M392.974 465.354C375.377 490.874 331.542 490.536 303.72 470.636C311.029 462.841 307.058 445.285 292.27 438.293C270.278 427.878 247.167 444.44 243.555 461.256C239.203 481.452 249.449 506.274 268.25 509.443C277.63 511.027 289.249 508.661 292.798 500.465C318.55 512.865 374.532 507.985 393.143 487.916C387.334 523.428 391.834 559.193 418.494 575.988C439.873 589.445 468.92 582.325 480.814 573.347C476.588 554.609 479.229 516.583 488.736 496.24C484.679 492.099 479.398 482.952 477.814 475.558C489.074 485.233 508.086 496.324 520.064 493.684C532.042 491.043 533.965 471.333 526.233 451.602C523.233 457.94 513.199 463.58 505.805 458.996C499.467 466.221 485.567 468.502 479.229 458.996C473.42 461.805 461.104 457.771 458.104 448.074C455.294 450.018 448.112 452.679 444.922 453.989C436.619 464.277 424.662 470.446 419.381 471.143C414.1 471.84 401.784 470.784 392.974 465.333V465.354Z" fill="#FFF3C3"/>
<path d="M413.297 269.713C425.529 253.172 453.731 228.92 466.533 229.977C479.673 231.054 493.341 285.557 492.242 316.675L482.884 323.139C472.638 309.83 438.288 294.726 409.854 297.071C411.121 288.98 412.727 276.389 413.276 269.735L413.297 269.713Z" fill="#0E141B"/>
<path d="M420.501 296.691C428.064 280.868 445.45 260.673 458.273 261.982C468.878 263.06 473.568 301.719 472.3 313.592C459.35 303.874 439.746 298.656 420.501 296.691Z" fill="#F3993A"/>
<path d="M337.035 288.071C319.775 277.466 290.263 269.375 279.299 279.621C268.335 289.867 285.954 356.411 303.572 380.875C307.713 361.46 320.831 330.702 344.766 316.484C342.971 309.64 339.548 297.07 337.035 288.071Z" fill="#0E141B"/>
<path d="M341.724 318.28C333.084 309.83 307.269 296.754 299.093 302.986C292.249 308.204 305.389 347.581 312.043 354.954C317.62 344.877 328.056 329.054 341.724 318.259V318.28Z" fill="#F3993A"/>
<path d="M330.422 358.314C314.367 364.377 313.269 402.318 325.289 412.373C332.197 418.141 342.781 422.154 351.273 418.141C359.765 414.127 363.779 407.874 362.829 397.924C360.251 371.306 339.422 354.913 330.422 358.314Z" fill="white"/>
<path d="M433.07 332.182C415.177 337.653 414.142 375.362 423.437 385.608C433.07 396.192 449.379 396.276 456.477 393.15C465.941 388.988 473.8 377.749 472.194 366.046C469.11 343.568 450.773 326.774 433.049 332.203L433.07 332.182Z" fill="white"/>
<path d="M370.645 429.823C372.652 433.499 380.003 442.857 384.186 446.512C386.552 435.759 396.249 419.852 410.424 415.035C401.594 415.035 387.735 418.542 380.447 423.866C377.215 426.232 374.236 428.323 370.666 429.802L370.645 429.823Z" fill="#933000"/>
<path d="M383.954 446.955C385.855 437.28 394.876 420.169 411.375 414.908C424.092 415.648 438.267 416.387 445.217 409.859C447.731 434.766 431.951 463.602 414.945 464.827C404.657 465.567 390.672 453.8 383.954 446.955Z" fill="#EE869A"/>
<path d="M373.56 428.767C376.074 431.069 379.665 432.971 381.334 432.126C383.024 431.281 382.919 426.549 382.179 423.084C379.243 424.668 376.497 426.549 373.56 428.767Z" fill="white"/>
<path d="M431.042 415.013C431.465 418.055 433.556 421.731 435.352 421.731C437.147 421.731 441.14 416.682 440.718 412.584C437.676 414.168 434.634 414.992 431.042 414.992V415.013Z" fill="white"/>
<path d="M231.704 364.947C246.132 369.531 283.651 382.608 303.53 389.833C303.361 392.114 303.171 393.699 303.361 396.34C287.348 393.171 247.548 374.095 231.704 364.947Z" fill="#FCD7A1"/>
<path d="M393.693 465.842C405.206 484.031 439.26 487.664 461.273 454.223C460.047 452.638 459.181 451.138 458.273 448.709C454.787 450.378 449.189 452.195 444.943 454.011C439.936 459.927 427.958 469.919 419.635 470.996C411.29 472.052 400.537 469.179 393.714 465.842H393.693Z" fill="#FCD7A1"/>
<path d="M302.664 490.705C323.092 501.965 373.264 500.212 394.918 480.143C394.39 483.48 394.221 485.065 393.693 487.536C375.567 506.908 321.867 514.471 292.988 500.381L292.819 497.909C296.685 496.684 300.741 493.684 302.685 490.684L302.664 490.705Z" fill="#FCD7A1"/>
<path d="M469.659 466.666C483.37 475.665 494.123 478.221 502.214 478.073C503.206 473.785 502.383 467.659 500.228 463.032C502.383 462.208 504.347 460.223 505.192 459.23C514.107 463.032 523.529 458.237 526.508 451.139C531.789 465.187 534.747 490.812 518.734 493.77C503.544 496.579 481.722 481.221 469.659 466.666Z" fill="#FCD7A1"/>
<path d="M453.16 583.278C450.118 586.573 446.295 591.157 441.732 594.2C408.924 634.443 342.379 647.71 291.383 633.091C292.059 635.774 293.39 638.309 295.312 640.422C358.434 658.146 447.119 631.084 480.391 573.877C474.539 578.461 462.35 582.01 453.182 583.278H453.16Z" fill="#FCD7A1"/>
<path d="M237.809 598.275C249.85 619.739 270.616 633.491 295.291 640.42C293.368 638.308 292.059 635.773 291.362 633.09C269.243 626.752 250.04 615.197 237.809 598.275Z" fill="#A94B00"/>
<path d="M302.854 447.293C304.671 452.891 302.072 460.074 297.889 462.292C300.488 464.637 302.326 466.982 303.762 469.982C307.924 466.602 309.36 455.764 302.854 447.293Z" fill="#FCD7A1"/>
<path d="M266.603 487.052C277.165 494.615 301.544 491.214 305.727 477.926C309.635 496.453 280.038 508.304 266.603 487.052Z" fill="#FCD7A1"/>
<path d="M244.97 485.107C250.97 495.269 265.441 499.071 273.912 494.888C278.475 497.635 285.51 499.832 293.221 497.635C290.221 515.38 253.061 516.288 244.97 485.107Z" fill="#FCD7A1"/>
<path d="M391.031 509.465C394.2 558.581 433.282 584.46 478.955 560.694C479.208 564.116 479.736 569.271 480.539 573.242C464.082 586.488 426.416 587.544 411.269 570.834C396.122 554.124 391.2 541.068 391.031 509.486V509.465Z" fill="#FCD7A1"/>
<path d="M250.019 567.412C256.674 582.369 294.213 581.482 300.361 562.131C299.833 568.828 298.417 581.672 277.651 585.369C256.885 589.066 250.019 567.412 250.019 567.412Z" fill="#A94B00"/>
<path d="M334.098 366.214C332.81 366.615 332.577 372.699 338.788 390.613C344.809 407.978 347.217 413.344 348.907 412.499C350.301 411.802 349.224 407.345 343.689 387.698C339.443 372.678 335.894 365.643 334.119 366.214H334.098Z" fill="#0E141B"/>
<path d="M334.732 368.39C334.33 368.517 334.521 371.432 336.76 378.615C338.767 385.058 340.478 388.501 341.006 388.269C341.534 388.015 340.816 384.551 338.746 377.981C336.168 369.848 335.175 368.242 334.753 368.39H334.732Z" fill="white"/>
<path d="M435.31 337.505C433.958 338.012 435.31 346.145 441.373 363.553C447.245 380.39 450.879 386.516 451.872 386.157C453.16 385.692 451.639 378.298 446.379 361.313C441.119 344.329 436.619 337.019 435.288 337.505H435.31Z" fill="#0E141B"/>
<path d="M436.239 340.061C435.711 340.208 436.767 344.011 438.732 350.222C440.591 356.116 442.302 360.341 442.915 360.108C443.443 359.918 442.788 356.2 440.443 349.588C438.14 343.103 436.873 339.892 436.239 340.082V340.061Z" fill="white"/>
<path d="M445.661 452.025C499.531 431.132 516.684 383.093 496.256 344.497C475.596 305.5 427.409 289.043 374.574 303.979C321.993 318.83 288.784 381.678 314.029 426.506C327.697 450.779 362.533 463.982 390.08 463.243L395.129 466.58C370.434 468.799 328.331 460.539 310.269 428.491C285.151 383.917 313.67 318.281 373.772 300.916C426.902 285.579 478.891 301.359 500.545 342.216C520.381 379.629 507.748 433.667 442.661 456.863L445.661 452.004V452.025Z" fill="#0E141B"/>
<path d="M303.572 398.79C284.94 392.706 256.209 380.116 236.52 369.954C226.148 364.61 227.986 361.166 239.457 363.236C261.385 367.187 289.862 375.109 304.396 379.841L303.973 383.432C285.742 377.158 255.829 368.898 233.457 365.095C253.885 376.102 282.404 388.249 303.488 394.946L303.551 398.79H303.572Z" fill="#0E141B"/>
<path d="M413.318 266.735C421.832 254.228 450.351 226.596 466.533 228.223C483.602 229.934 494.735 291.113 494.376 315.788L490.341 318.069C491.165 292.191 480.053 233.589 466.11 231.941C451.132 230.167 422.17 259.996 413.065 273.6L413.318 266.777V266.735Z" fill="#0E141B"/>
<path d="M470.166 312.958C471.011 287.079 463.681 264.729 457.935 263.778C450.731 262.574 432.458 274.024 422.74 296.987L418.452 297.029C428.655 273.01 448.978 258.877 458.526 260.419C467.631 261.898 475.448 290.269 474.37 315.345L470.145 312.958H470.166Z" fill="#0E141B"/>
<path d="M303.678 384.044C280.398 355.229 266.941 288.072 278.961 277.826C288.531 269.672 318.106 273.495 337.077 285.896L338.323 291.304C317.726 276.918 289.672 273.643 281.771 280.382C271.905 288.79 284.559 350.666 304.776 378.383L303.678 384.065V384.044Z" fill="#0E141B"/>
<path d="M310.966 357.363C299.537 341.033 291.362 306.261 298.122 301.423C305.283 296.289 327.127 303.662 343.647 317.225L340.837 319.633C325.627 307.169 306.361 299.585 300.319 304.106C296.072 307.296 301.861 335.899 313.142 353.412L310.966 357.363Z" fill="#0E141B"/>
<path d="M318.677 403.69C311.642 383.917 319.564 359.58 329.07 356.517C340.436 352.842 360.357 369.024 364.286 396.486C365.892 407.725 360.568 416.049 351.442 420.083C340.753 424.816 324.697 420.569 318.698 403.69H318.677ZM330.211 360.151C323.366 362.327 314.346 383.368 321.338 402.359C326.725 417.063 342.738 420.569 350.386 416.957C357.737 413.492 362.469 405.359 361.286 396.951C358.244 375.657 341.872 356.433 330.232 360.151H330.211Z" fill="#0E141B"/>
<path d="M424.071 388.479C411.353 376.924 412.325 337.905 431.866 330.089C444.182 325.167 466.554 334.631 473.377 360.911C476.61 373.311 470.568 389.979 455.822 395.345C448.175 398.134 434.232 397.732 424.071 388.479ZM433.324 333.892C417.459 339.701 414.586 375.466 426.289 386.113C433.514 392.683 447.161 394.711 454.534 392.029C467.61 387.275 472.913 371.875 470.04 361.798C462.899 336.744 443.464 330.174 433.303 333.913L433.324 333.892Z" fill="#0E141B"/>
<path d="M355.393 429.928C353.238 428.132 354.125 426.59 356.639 427.878C361.075 430.16 368.87 430.308 374.553 425.998C390.144 414.168 404.91 412.14 427.071 413.365C437.549 413.936 447.436 408.57 449.548 401.937C450.435 399.148 452.421 399.465 451.914 402.359C450.457 410.682 438.838 417.4 426.902 416.83C406.769 415.837 391.475 417.274 376.476 428.639C369.842 433.667 360.04 433.794 355.414 429.928H355.393Z" fill="#0E141B"/>
<path d="M383.341 422.681C384.292 426.484 384.207 432.357 381.862 433.497C380.299 434.258 375.293 432.188 372.356 429.632L374.764 428.005C377.046 430.117 380.172 431.575 380.764 431.237C381.419 430.878 381.524 427.265 380.658 423.843L383.341 422.66V422.681Z" fill="#0E141B"/>
<path d="M435.31 423.125C433.366 423.209 430.303 420.336 429.606 415.034L432.563 414.59C432.648 417.759 434.612 420.59 435.394 420.527C436.493 420.442 439.535 416.428 439.513 412.499L442.619 411.633C442.429 417.485 438.14 423.019 435.31 423.146V423.125Z" fill="#0E141B"/>
<path d="M446.591 408.908C449.126 433.498 436.809 462.186 416.825 466.327C405.417 468.693 383.468 452.87 369.018 430.372L371.891 429.421C384.799 449.11 406.178 464.933 416.297 462.736C434.169 458.827 445.513 432.188 443.823 410.746L446.569 408.929L446.591 408.908Z" fill="#0E141B"/>
<path d="M382.961 445.181C385.306 432.675 396.143 419.873 408.502 414.908L417.205 414.95C401.467 417.95 387.609 432.738 385.538 447.505L382.982 445.202L382.961 445.181Z" fill="#0E141B"/>
<path d="M376.539 455.722C374.152 453.377 375.483 451.729 378.06 453.863C391.031 464.658 409.199 472.453 421.937 467.995C441.563 461.109 449.126 446.215 453.414 434.871C454.365 432.336 456.308 432.97 455.696 435.631C453.013 447.229 443.992 464.848 423.395 472.051C410.91 476.424 389.637 468.524 376.56 455.722H376.539Z" fill="#0E141B"/>
<path d="M302.41 467.278C324.676 485.784 370.096 492.903 392.615 464.574L395.024 466.391C376.412 492.122 330.317 492.629 304.311 472.729L302.389 467.278H302.41Z" fill="#0E141B"/>
<path d="M393.312 489.607C371.68 510.415 319.036 514.81 292.312 501.817L293.538 498.839C320.113 510.922 374.279 506.528 393.418 485.445L393.312 489.607Z" fill="#0E141B"/>
<path d="M266.328 489.079C264.891 486.586 266.772 485.424 268.356 487.811C274.884 497.635 294.171 500.888 301.903 488.846C308.579 478.474 300.974 457.771 279.468 458.088C276.363 458.13 276.236 455.912 279.362 455.701C302.22 454.18 313.754 476.509 304.692 490.663C296.516 503.465 274.504 503.381 266.328 489.079Z" fill="#0E141B"/>
<path d="M302.283 468.862C310.184 461.932 304.142 440.765 282.869 437.068C265.272 434.026 246.027 447.441 244.252 467.573C242.456 487.705 255.237 504.563 267.976 507.479C279.489 510.119 290.263 506.127 291.847 497.846L295.08 497.148C294.256 508.535 279.996 513.605 267.215 510.774C252.259 507.479 238.252 488.593 240.154 467.235C242.224 443.934 264.448 430.688 283.334 433.772C308.748 437.892 313.923 464.045 304.354 471.164L302.283 468.862Z" fill="#0E141B"/>
<path d="M481.046 574.722C464.315 588.77 432.521 588.538 414.226 575.546C394.369 561.476 380.637 523.092 394.981 476.912C396.27 472.729 398.404 473.342 397.284 477.567C385.39 522.754 397.411 559.089 416.339 572.525C434.042 585.095 465.392 584.207 480.053 570.919L481.046 574.722Z" fill="#0E141B"/>
<path d="M527.691 450.377C536.922 471.692 532.465 491.867 520.107 495.458C511.065 498.099 484.13 488.339 469.68 468.756C467.674 466.052 469.448 464.615 471.54 467.256C483.454 482.276 509.988 494.677 518.945 491.93C528.853 488.888 532.338 471.883 525.536 454.032L527.691 450.377Z" fill="#0E141B"/>
<path d="M487.891 497.972C481.025 490.578 476.8 480.079 474.962 473.107L479.377 476.044C481.152 481.727 484.595 489.12 489.876 494.782L487.891 497.951V497.972Z" fill="#0E141B"/>
<path d="M455.907 582.961C415.156 631 292.988 646.844 267.131 585.095L270.933 585.454C294.974 638.985 407.488 630.408 451.428 583.299L455.907 582.961Z" fill="#0E141B"/>
<path d="M481.574 576.897C428.275 658.927 255.554 683.411 225.303 575.418C218.923 552.687 226 529.281 244.02 520.873C262.04 512.486 281.728 516.267 293.939 530.823C308.389 548.04 308.473 575.756 287.453 584.882C259.145 597.156 241.041 572.397 248.71 554.884C253.505 543.899 266.793 541.153 273.088 545.505C275.623 547.258 274.482 548.716 271.694 547.448C265.356 544.596 256.019 548.103 252.322 556.553C245.815 571.362 263.286 590.544 285.763 580.784C304.058 572.841 303.276 547.998 291.002 533.4C280.186 520.514 260.476 517.281 245.71 524.253C230.077 531.647 223.676 552.835 229.718 574.447C259.188 679.587 427.683 655.673 480.518 572.862L481.574 576.918V576.897Z" fill="#0E141B"/>
<path d="M501.58 462.229C503.523 465.313 504.749 471.693 503.629 476.15C502.826 479.298 500.819 478.896 501.305 475.58C501.854 471.693 500.608 466.517 498.939 463.876L501.58 462.229Z" fill="#0E141B"/>
<path d="M347.724 268.89C343.499 255.159 336.443 233.442 325.542 216.014C329.767 252.096 339.95 307.064 348.442 328.738C350.027 332.795 355.308 333.492 359.174 331.02C355.836 313.232 347.027 274.679 347.724 268.869V268.89Z" fill="#FFF3C3"/>
<path d="M391.918 301.634C395.974 280.15 407.868 219.583 417.902 201.268C420.015 223.808 411.142 295.254 406.516 315.703C405.29 321.154 399.122 323.625 395.594 323.456C394.369 316.591 393.312 309.197 391.897 301.634H391.918Z" fill="#FFF3C3"/>
<path d="M314.283 431.027C305.663 441.949 285.932 468.123 279.067 479.214C291.742 469.011 311.642 454.096 323.62 441.59C320.451 438.59 316.923 434.724 314.283 431.027Z" fill="#FFF3C3"/>
<path d="M470.969 331.907C486.581 319.126 549.027 278.291 568.399 268.615C544.992 290.628 505.34 327.386 482.419 344.772C476.61 349.166 465.16 336.681 470.969 331.928V331.907Z" fill="#FFF3C3"/>
<path d="M491.735 358.504C516.029 356.983 571.568 357.089 593.221 359.729C575.096 363.954 525.705 371.94 493.848 373.292C485.567 373.651 483.285 359.032 491.735 358.504Z" fill="#FFF3C3"/>
<path d="M478.638 458.975C461.885 463.622 452.949 444.187 456.752 429.505C460.533 414.823 478.131 404.366 494.672 404.915C516.558 405.655 529.169 423.632 529.169 439.159C529.169 454.686 517.36 463.327 505.847 458.996C497.376 467.045 487.236 467.89 478.659 458.954L478.638 458.975Z" fill="#FFF3C3"/>
<path d="M511.107 485.256C506.523 480.862 493.679 483.502 486.982 500.403C480.285 517.303 470.23 575.609 491.904 596.354C500.186 604.276 512.692 604.825 512.142 587.376C511.614 570.116 513.79 542.527 529.402 524.887C545.605 506.571 539.605 486.333 525.874 489.861C522.177 484.221 515.67 483.883 511.086 485.277L511.107 485.256Z" fill="#FFF3C3"/>
<path d="M518.079 544.576C520.677 537.414 524.311 530.612 529.402 524.866C545.605 506.55 539.605 486.312 525.874 489.84C522.177 484.2 515.67 483.862 511.086 485.256C506.502 480.862 493.658 483.502 486.961 500.403C484.384 506.909 481.321 519.563 479.757 533.844C488.123 544.618 501.221 550.808 518.079 544.576Z" fill="#CD5D00"/>
<path d="M507.178 499.093C505.847 497.952 501.833 498.164 499.805 501.375C497.777 504.607 497.693 508.747 499.552 510.121C501.411 511.473 504.981 509.952 506.755 507.057C508.53 504.184 509.037 500.699 507.178 499.093Z" fill="#F3993A"/>
<path d="M521.184 504.438C519.093 503.529 515.67 505.367 514.403 508.431C513.135 511.494 512.713 515.719 514.91 516.902C517.107 518.085 520.297 515.592 521.691 512.487C523.212 509.085 523.128 505.283 521.184 504.438Z" fill="#F3993A"/>
<path d="M533.817 510.374C531.873 509.255 528.662 511.578 527.374 513.86C525.515 517.177 525.768 521.233 527.205 522.078C528.641 522.923 532.402 521.655 534.07 518.845C536.099 515.444 536.014 511.642 533.817 510.374Z" fill="#F3993A"/>
<path d="M497.693 567.116C494.123 567.919 492.263 574.827 493.954 581.375C495.644 587.903 499.89 592.403 503.037 591.389C506.185 590.375 508.044 584.777 506.692 578.249C505.34 571.721 502.277 566.123 497.693 567.137V567.116Z" fill="#F3993A"/>
<path d="M419.381 576.791C417.628 586.128 416.677 608.183 436.577 620.035C436.978 638.709 433.155 666.046 419.297 681.509C405.438 696.973 416.614 714.951 425.993 711C429.141 716.07 436.45 719.197 442.534 714.93C448.217 720.908 460.913 719.303 465.498 707.451C475.131 682.544 473.124 631.717 465.899 612.831C463.047 605.352 458.463 601.296 453.013 604.106C447.562 606.916 440.168 597.599 438.394 582.453C432.943 581.565 426.817 580.002 419.381 576.812V576.791Z" fill="#FFF3C3"/>
<path d="M433.429 650.477C445.175 641.9 462.878 644.942 472.765 656.687C472.448 667.588 471.434 700.839 463.723 710.705C456.033 720.57 447.034 719.409 442.534 714.909C437.739 718.69 429.331 717.528 425.993 710.98C414.67 714.169 407.847 696.023 417.437 684.129C424.092 675.869 430.261 664.715 433.429 650.455V650.477Z" fill="#CD5D00"/>
<path d="M386.109 268.721C379.94 240.983 342.76 248.44 348.252 276.643C350.893 290.205 356.871 320.647 360.04 334.04C364.582 353.201 400.326 349.525 395.784 324.006C392.256 304.296 388.559 279.812 386.109 268.721Z" fill="#FABE00"/>
<path d="M318.677 437.006C307.755 448.266 289.967 467.574 280.461 477.968C295.249 465.821 315.318 450.906 323.43 441.231C321.486 439.816 320.261 438.949 318.677 437.006Z" fill="#FCD7A1"/>
<path d="M570.068 266.607C551.224 281.754 494.841 327.786 481.701 338.962C478.173 341.961 480.011 347.37 483.454 344.412C498.411 331.568 559.336 280.149 570.068 266.607Z" fill="#FCD7A1"/>
<path d="M596.306 359.201C565.505 362.201 516.199 367.123 496.489 367.651C492.433 367.757 489.792 373.376 494.545 373.292C513.558 372.933 578.877 364.842 596.306 359.201Z" fill="#FCD7A1"/>
<path d="M455.928 432.971C458.4 440.407 466.829 447.019 473.779 446.681C474.434 450.146 476.103 455.427 478.891 458.575C466.005 462.546 454.766 451.624 455.928 432.971Z" fill="#FCD7A1"/>
<path d="M473.293 442.539C480.222 459.566 502.361 459.059 511.297 445.011C509.967 454.75 503.523 465.164 491.144 465.164C478.764 465.164 473.293 452.109 473.293 442.539Z" fill="#FCD7A1"/>
<path d="M511.276 445.032C515.417 447.673 524.987 445.687 529.613 439.244C530.437 450.969 518.881 465.186 505.657 458.743C508.298 455.595 510.769 450.483 511.276 445.032Z" fill="#FCD7A1"/>
<path d="M479.63 560.293C487.024 593.291 507.22 604.656 511.973 576.538C511.847 584.334 514.614 599.121 506.291 601.234C497.967 603.346 480.011 593.713 479.63 560.314V560.293Z" fill="#FCD7A1"/>
<path d="M459.963 704.072C457.069 712.522 441.753 716.219 438.711 704.072C437 719.515 458.442 725.113 465.371 706.84C470.441 693.489 472.448 674.772 471.92 655.759C470.272 653.942 468.434 652.336 466.448 650.984C467.399 669.216 465.519 687.89 459.963 704.072Z" fill="#A94B00"/>
<path d="M425.296 700.713C426.944 708.191 434.972 711.318 439.281 709.522C440.147 711.571 441.246 713.367 442.577 715.184C435.5 718.796 421.979 715.965 425.296 700.713Z" fill="#A94B00"/>
<path d="M414.057 693.783C414.29 700.776 420.416 705.254 424.515 704.156C424.515 705.803 424.662 708.486 425.529 710.514C418.367 712.88 410.508 706.733 414.057 693.783Z" fill="#A94B00"/>
<path d="M454.027 604C457.85 603.831 461.188 615.851 462.878 623.668C464.758 632.392 465.984 641.645 466.469 651.004C468.455 652.356 470.272 653.961 471.941 655.778C471.54 641.244 469.638 626.52 466.448 613.908C464.864 607.655 460.153 601.972 454.048 604" fill="#FCD7A1"/>
<path d="M437.908 582.6C433.028 581.945 425.634 579.706 419.951 576.664C419.423 578.65 419.022 580.572 418.494 583.319C421.705 587.227 430.937 589.339 439.133 588.41L437.908 582.621V582.6Z" fill="#FCD7A1"/>
<path d="M347.407 274.445C341.745 254.988 335.598 236.863 326.873 219.646C330.824 254.101 340.33 297.598 349.055 326.751C350.301 330.955 348.146 331.504 346.773 327.469C337.161 299.394 327.465 255.685 324.211 221.505C323.261 211.449 326.028 211.724 330.549 220.469C337.415 233.715 343.266 249.707 348.337 265.995L347.407 274.445Z" fill="#0E141B"/>
<path d="M391.073 297.367C397.368 264.222 403.115 235.449 413.719 206.634C417.1 197.423 420.078 197.782 420.015 207.88C419.825 241.575 413.825 285.431 408.227 314.098C407.382 318.366 405.164 318.07 405.861 313.718C410.213 286.931 416.402 237.921 417.015 206.275C406.431 236.378 399.735 271.045 392.996 305.712L391.052 297.367H391.073Z" fill="#0E141B"/>
<path d="M324.951 442.688C315.529 451.898 300.107 465.376 285.362 477.059C277.609 483.206 274.926 480.523 280.63 472.348C290.242 458.595 302.664 442.624 313.395 429.949L315.508 432.78C304.692 445.941 291.024 462.989 281.264 476.721C295.777 464.933 312.086 450.272 322.183 440.406L324.951 442.688Z" fill="#0E141B"/>
<path d="M482.694 342.702C507.157 322.506 541.654 292.255 563.561 272.059C536.669 288.516 495.094 316.676 473.039 331.928C469.575 334.337 468.307 332.499 471.687 329.964C495.644 311.817 532.338 286.847 560.414 270.369C572.138 263.482 574.673 265.954 564.829 275.355C542.964 296.248 510.896 324.196 484.215 344.54C481.173 346.864 479.461 345.364 482.694 342.702Z" fill="#0E141B"/>
<path d="M495.601 374.135C492.116 374.135 492.01 371.981 495.517 371.748C524.818 369.784 559.78 364.798 589.081 359.918C562.4 358.587 515.544 358.65 493.785 359.348C489.559 359.58 489.581 357.235 493.7 356.96C517.867 355.334 558.555 355.165 586.335 356.749C599.58 357.51 599.538 361.249 587.011 363.657C558.787 369.108 522.79 373.121 495.665 374.135C495.644 374.135 495.622 374.135 495.58 374.135H495.601Z" fill="#0E141B"/>
<path d="M314.029 426.506C317.768 433.139 323.092 438.949 329.408 443.871L326.747 447.547C320.261 442.434 314.578 436.139 310.269 428.492L314.029 426.506Z" fill="#0E141B"/>
<path d="M491.418 467.109C474.751 467.341 463.132 439.878 479.652 424.689C482.292 422.281 483.75 423.844 481.278 426.443C468.012 440.406 478.215 463.349 491.25 463.518C504.812 463.496 514.339 448.181 507.516 429.907C506.375 426.886 508.403 426.041 509.734 428.999C518.565 448.73 508.002 466.877 491.397 467.109H491.418Z" fill="#0E141B"/>
<path d="M505.551 457.771C518.501 462.018 530.543 451.539 526.803 433.815C522.599 413.915 504.812 405.191 488.883 406.648C469.723 408.38 458.864 422.408 457.829 434.998C456.54 450.293 466.195 460.222 478.131 457.602L479.968 460.433C465.16 464.827 452.844 452.511 454.09 434.724C454.977 422.133 466.406 405.719 488.651 403.691C508.614 401.853 526.127 412.732 530.247 433.266C534.345 453.737 519.388 467.109 504.115 460.56L505.572 457.75L505.551 457.771Z" fill="#0E141B"/>
<path d="M526.867 487.896C539.584 485.256 548.668 506.698 529.507 527.654C516.072 542.336 512.586 569.25 513.663 588.009C514.53 603.219 503.861 606.684 493.806 599.987C472.997 586.108 474.286 535.597 483.475 504.818C488.799 486.988 501.622 479.573 509.016 482.044C517.529 484.875 518.945 501.776 508.826 512.254C506.46 514.704 504.77 513.204 507.03 510.669C514.91 501.776 514.17 487.453 507.685 485.34C501.094 483.185 491.271 491.044 486.855 505.832C476.736 539.738 477.729 585.199 495.643 597.135C504.22 602.86 511.128 599.311 510.473 587.988C509.375 568.764 512.818 540.921 526.782 525.689C544.929 505.874 536.162 487.389 524.395 491.699L526.867 487.875V487.896Z" fill="#0E141B"/>
<path d="M509.861 484.029C518.142 480.755 527.564 485.043 529.212 495.648C530.036 500.909 529.317 508.471 523.191 516.816C520.846 519.985 518.945 519.013 521.184 515.506C525.62 508.556 526.677 500.993 525.81 496.134C524.48 488.719 518.564 484.874 512.079 487.494L509.861 484.029Z" fill="#0E141B"/>
<path d="M498.707 511.176C496.425 509.761 496.15 504.691 498.643 501.015C501.368 497.001 505.255 496.367 507.495 497.656C509.945 499.05 510.558 503.592 508.065 507.395C505.678 511.028 501.347 512.803 498.728 511.176H498.707ZM500.566 502.557C499.214 504.543 499.129 508.092 500.291 508.789C501.854 509.761 504.495 508.43 506.058 506.064C507.431 503.951 507.326 500.74 506.143 499.98C504.748 499.093 502.488 499.705 500.566 502.536V502.557Z" fill="#0E141B"/>
<path d="M514.086 517.831C511.741 516.626 510.79 512.803 513.22 508.007C515.353 503.782 518.924 502.177 521.754 503.317C524.205 504.31 524.902 509.148 522.621 513.289C520.276 517.514 516.156 518.908 514.107 517.852L514.086 517.831ZM515.332 509.148C513.494 512.549 514.508 515.063 515.501 515.549C516.537 516.056 519.072 514.704 520.529 512.042C522.43 508.62 521.712 506.254 520.698 505.81C519.304 505.176 517.086 505.895 515.332 509.148Z" fill="#0E141B"/>
<path d="M526.698 523.197C524.839 522.035 523.698 517.662 526.233 513.501C529 508.938 532.444 508.283 534.62 509.276C537.303 510.501 537.725 515.339 535.084 519.881C532.909 523.62 529.148 524.718 526.698 523.197ZM528.05 514.768C526.55 517.388 526.93 520.557 527.902 521.064C529.444 521.887 531.789 520.62 533.078 518.571C534.704 515.972 535.063 512.423 533.331 511.684C532.085 511.156 529.655 512.001 528.071 514.747L528.05 514.768Z" fill="#0E141B"/>
<path d="M492.538 580.847C490.806 572.333 493.32 566.207 497.65 565.446C502.108 564.686 506.185 569.312 507.727 577.382C509.121 584.713 507.748 591.874 503.037 592.994C499.89 593.733 494.587 590.797 492.559 580.847H492.538ZM498.284 568.383C495.622 568.848 493.869 573.854 495.031 580.192C496.488 588.156 500.038 590.438 502.298 589.888C505.065 589.234 506.439 583.804 505.361 577.805C504.178 571.171 500.46 567.981 498.305 568.383H498.284Z" fill="#0E141B"/>
<path d="M439.957 582.728C440.147 590.017 443.232 597.833 447.583 601.382C449.273 602.776 451.682 603.157 453.266 602.375C455.611 601.213 457.745 601.255 460.026 602.333C462.667 603.558 466.364 607.403 468.645 617.121C475.046 644.52 477.074 694.756 463.934 713.093C457.829 721.606 448.154 720.635 444.436 718.543C438.014 714.91 434.993 706.565 438.626 698.115C442.133 689.918 445.724 681.384 447.647 674.349C448.661 670.631 450.985 671.286 449.949 674.983C447.837 682.588 445.26 690.996 441.647 699.404C438.605 706.502 441.035 712.375 446.105 715.248C450.456 717.698 457.005 716.663 461.146 710.896C472.807 694.629 472.849 648.956 465.561 617.754C463.956 610.889 461.674 606.769 458.632 605.354C456.857 604.53 455.738 604.762 454.407 605.417C451.555 606.832 448.281 606.41 445.492 604.023C440.549 599.777 436.788 590.735 436.788 582.496L439.957 582.728Z" fill="#0E141B"/>
<path d="M444.077 716.514C433.197 724.414 415.6 712.394 425.212 694.353C428.718 687.783 431.528 681.361 434.253 673.777C435.479 670.355 437.633 671.031 436.535 674.495C434.253 681.805 431.296 690.107 428.233 695.747C420.923 709.162 432.627 719.577 441.563 713.408L444.077 716.514Z" fill="#0E141B"/>
<path d="M426.754 712.479C411.375 715.521 405.29 695.959 418.811 679.672C429.183 667.166 436.366 641.646 434.908 621.007C417.649 608.754 414.691 589.699 418.177 576.01L421.409 577.214C418.24 590.058 420.585 607.402 437.274 618.958C437.57 619.169 437.76 619.486 437.781 619.845C439.45 641.118 432.352 668.412 421.578 681.489C411.1 694.206 413.867 710.81 425.676 708.909L426.733 712.479H426.754Z" fill="#0E141B"/>
<path d="M416.339 572.523C424.789 578.523 436.345 581.459 447.731 581.438L448.238 585.262C435.922 585.347 423.395 582.03 414.248 575.544L416.36 572.523H416.339Z" fill="#0E141B"/>
<path d="M358.625 335.708C356.237 326.772 349.393 290.542 346.604 275.565C344.133 262.192 350.301 252.644 361.392 250.341C372.103 248.123 384.038 252.728 387.249 266.692C390.228 279.642 394.179 305.943 397.58 325.991C399.523 337.483 393.312 344.454 382.855 347.116C372.124 349.841 361.244 345.511 358.625 335.687V335.708ZM362.216 254.439C352.498 256.594 347.893 265.023 349.773 275.1C352.71 290.923 359.66 326.054 362.026 334.906C364.138 342.87 374.87 344.898 382.433 342.87C391.77 340.356 395.636 334.462 394.284 326.498C390.883 306.577 386.848 280.297 383.891 267.41C381.356 256.404 371.765 252.306 362.237 254.439H362.216Z" fill="#0E141B"/>
<path d="M348.104 274.487C356.956 272.417 376.159 267.22 384.82 264.41L385.602 267.114C376.687 270.198 358.223 275.29 348.675 277.254L348.104 274.487Z" fill="#0E141B"/>
<path d="M389.235 286.192C378.99 289.678 363.631 294.241 352.139 296.881L351.611 294.156C362.744 291.452 378.673 286.72 388.623 283.467L389.235 286.192Z" fill="#0E141B"/>
<path d="M355.202 311.415C366.082 308.584 380.637 304.274 391.327 300.641L391.77 303.45C380.954 307.274 367.645 311.203 355.815 314.182L355.202 311.415Z" fill="#0E141B"/>
<path d="M395.573 324.998C384.524 328.78 372.25 332.561 360.674 335.35L360.061 332.54C370.983 329.73 384.06 325.886 395.129 322.252L395.573 325.019V324.998Z" fill="#0E141B"/>
</g>
<defs>
<clipPath id="clip0_42_63013">
<rect width="373.348" height="520" fill="white" transform="translate(223 200)"/>
</clipPath>
</defs>
</svg>
