<svg width="800" height="800" viewBox="0 0 800 800" fill="none" xmlns="http://www.w3.org/2000/svg">
<g clip-path="url(#clip0_42_63122)">
<path d="M126.306 576.214C131.564 599.951 168.31 595.555 181.774 556.27C189.719 533.07 201.148 505.344 219.92 480.581C241.394 452.253 277.146 434.23 300.965 429.769C312.671 427.571 309.007 449.843 297.009 454.874C282.665 460.882 266.954 465.082 252.627 479.083C236.347 494.973 218.275 523.774 210.298 548.96C199.666 582.547 183.988 612.894 150.336 616.232C120.494 619.195 98.7915 597.232 93.9724 574.879C89.2999 553.209 95.6331 530.53 118.149 521.902C138.028 514.266 159.974 520.876 167.138 538.719C173.943 555.684 167.447 575.611 148.757 580.528C136.09 583.866 126.29 576.214 126.29 576.214H126.306Z" fill="#F1E890"/>
<path d="M133.144 568.692C122.252 564.199 120.152 553.226 126.827 544.809C101.348 547.967 111.197 590.834 129.806 584.517C129.383 583.459 126.566 577.419 126.306 576.23C126.306 576.23 136.091 583.882 148.773 580.545C162.074 577.044 169.157 565.941 169.71 553.73C163.702 569.425 150.19 575.742 133.144 568.725V568.692Z" fill="#CAC379"/>
<path d="M300.965 429.752C290.203 431.771 277 436.59 263.78 443.851C264.952 451.747 239.977 471.496 229.086 491.244C199.748 544.482 194.831 583.93 175.49 597.231C156.148 610.533 133.583 607.716 118.67 598.045C98.7752 585.151 90.4558 561.381 101.608 533.672C92.7351 544.629 90.7489 559.998 93.9562 574.894C98.7752 597.231 120.477 619.21 150.32 616.247C183.972 612.91 199.65 582.563 210.281 548.976C218.259 523.789 236.331 494.989 252.611 479.099C266.954 465.098 282.665 460.881 296.992 454.89C309.007 449.859 312.654 427.587 300.948 429.785L300.965 429.752Z" fill="#CAC379"/>
<path d="M395.165 672.954C396.109 674.615 398.046 675.51 398.486 675.494C400.667 675.429 401.026 670.268 401.026 670.268L395.165 672.954Z" fill="#DCDDDD"/>
<path d="M381.131 684.284C382.173 686.107 383.312 688.028 385.152 687.947C386.992 687.882 388.392 682.379 388.392 682.379L381.115 684.284H381.131Z" fill="#DCDDDD"/>
<path d="M360.731 689.641C361.219 691.48 361.626 694.46 363.629 695.355C364.378 695.697 366.95 693.743 367.797 691.822L360.747 689.641H360.731Z" fill="#DCDDDD"/>
<path d="M273.711 689.805C273.906 691.856 274.313 693.142 275.616 693.126C277.879 693.11 280.142 687.818 280.142 687.818L273.695 689.805H273.711Z" fill="#DCDDDD"/>
<path d="M256.616 695.877C256.942 698.482 258.261 700.875 259.416 701.038C262.005 701.396 264.577 697.147 264.577 697.147L256.616 695.877Z" fill="#DCDDDD"/>
<path d="M234.882 698.123C235.093 701.444 236.412 704.391 238.252 704.489C241.736 704.652 243.429 698.758 243.429 698.758L234.898 698.123H234.882Z" fill="#DCDDDD"/>
<path d="M488.306 683.178L486.353 686.157C487.004 687.297 488.648 687.769 488.941 687.72C491.758 687.33 491.286 682.006 491.286 682.006L488.306 683.178Z" fill="#DCDDDD"/>
<path d="M475.77 692.296C476.812 694.119 477.398 696.529 479.108 696.48C480.606 696.431 481.941 693.696 482.641 691.645L475.787 692.296H475.77Z" fill="#DCDDDD"/>
<path d="M458.317 697.211C459.099 699.148 459.424 702.03 461.297 702.193C463.169 702.356 465.416 697.585 465.416 697.585L458.317 697.211Z" fill="#DCDDDD"/>
<path d="M573.584 728.291C573.308 728.877 573.373 732.41 575.44 732.703C577.573 732.996 579.999 730.603 580.618 729.007L573.601 728.307L573.584 728.291Z" fill="#DCDDDD"/>
<path d="M550.645 736.008C551.394 737.864 551.426 741.82 554.438 742.618C557.45 743.399 559.192 737.864 559.192 737.864L550.645 736.008Z" fill="#DCDDDD"/>
<path d="M293.59 566.462C293.134 569.181 292.678 574.619 299.027 582.776C305.361 590.932 326.2 628.524 325.744 638.032C325.288 647.54 326.2 650.259 325.744 654.785C325.288 659.311 326.656 665.205 337.059 670.187C347.479 675.168 354.268 681.518 356.531 685.132C358.794 688.763 369.669 696.464 378.265 684.676C384.631 685.214 391.55 684.123 392.755 673.801C399.544 673.801 403.761 668.591 401.351 657.292C398.535 644.138 375.547 651.594 361.952 639.823C356.205 622.81 345.867 594.14 345.411 584.176C344.955 574.212 349.367 566.479 352.884 547.43C321.658 516.676 293.557 566.446 293.557 566.446L293.59 566.462Z" fill="#F1E890"/>
<path d="M348.065 599.089C347.218 595.002 346.127 587.986 346.013 585.592C345.558 575.628 349.4 566.479 352.916 547.43C321.69 516.676 293.59 566.446 293.59 566.446C293.134 569.165 292.678 574.603 299.027 582.759C304.156 589.353 318.76 615.207 323.921 629.892C326.428 614.832 336.359 598.34 348.065 599.089Z" fill="#CAC379"/>
<path d="M392.885 667.01C387.382 674.109 383.41 674.271 378.77 673.767C367.992 683.275 361.545 679.872 354.447 674.923C347.348 669.973 336.505 667.531 326.118 649.199C324.279 663.868 328.837 666.245 337.059 670.169C347.479 675.151 354.268 681.5 356.531 685.114C358.794 688.745 369.669 696.446 378.265 684.658C384.419 685.163 391.534 684.203 392.755 673.783C398.73 673.783 403.24 668.573 402.556 659.717C400.537 663.087 396.679 667.824 392.869 666.978L392.885 667.01Z" fill="#CAC379"/>
<path d="M423.574 564.198C425.837 573.706 429.468 629.875 426.293 636.664C423.118 643.453 417.225 648.841 415.874 655.631C414.522 662.42 414.066 668.818 423.574 674.695C433.082 680.589 443.046 683.308 446.677 688.289C450.291 693.271 463.495 705.352 472.498 691.008C476.047 694.558 486.532 692.376 487.899 683.308C492.376 683.552 497.407 679.677 492.881 667.45C487.899 654.019 478.212 656.77 457.959 653.872C455.24 646.171 456.559 634.189 465.253 617.176C489.446 547.641 423.591 564.182 423.591 564.182L423.574 564.198Z" fill="#F1E890"/>
<path d="M423.574 564.198C425.203 571.003 427.514 601.66 427.531 621.066C434.58 610.712 452 595.294 468.737 605.225C481.517 549.66 423.574 564.198 423.574 564.198Z" fill="#CAC379"/>
<path d="M492.865 667.467C492.718 667.06 492.637 673.36 487.443 673.507C485.311 679.156 477.203 682.526 474.158 679.775C470.333 685.734 459.49 686.043 449.265 679.612C439.025 673.198 418.072 670.3 416.704 653.4C416.297 654.573 415.939 655.745 415.695 656.884C414.262 663.999 418.511 671.57 423.591 674.712C433.099 680.605 443.062 683.324 446.693 688.306C450.307 693.288 463.511 705.368 472.514 691.025C476.063 694.574 486.548 692.393 487.916 683.324C492.393 683.568 497.424 679.694 492.898 667.467H492.865Z" fill="#CAC379"/>
<path d="M278.188 572.794C265.619 576.262 253.067 590.491 249.746 597.15C247.434 616.801 261.956 645.976 267.378 659.7C280.793 660.84 285.856 666.294 286.719 671.26C289.112 684.968 279.637 688.647 274.655 688.892C269.218 701.118 255.525 697.797 252.367 694.183C239.229 706.865 226.09 695.534 225.195 690.113C224.283 684.675 220.213 676.974 215.687 669.273C211.161 661.573 211.617 655.239 212.968 640.733C214.319 626.244 207.53 603.597 203.916 592.266C200.302 580.935 209.354 567.356 223.387 557.393C237.421 547.429 243.771 529.309 249.209 513.907C254.646 498.506 261.435 467.703 271.399 455.036C284.586 438.251 304.677 422.491 321.218 418.356C339.338 413.83 366.967 421.075 385.527 424.249C404.103 427.424 428.556 426.513 434.434 425.601C456.51 417.802 477.024 416.011 501.249 426.252C517.465 419.951 527.95 412.609 541.788 396.621C573.552 359.908 633.725 449.615 608.36 467.279C582.995 484.944 580.732 484.944 573.031 492.645C565.33 500.345 554.65 512.523 544.686 531.099C527.592 562.961 476.047 581.358 443.697 572.224C405.194 561.349 389.157 550.62 367.406 548.813C345.671 547.006 333.901 552.932 322.113 553.371C322.113 553.371 311.694 563.547 278.172 572.811L278.188 572.794Z" fill="#F1E890"/>
<path d="M275.079 677.626C268.99 684.952 259.824 684.643 256.926 681.777C240.124 689.999 233.498 681.842 228.972 675.021C221.434 663.706 227.246 659.017 226.269 647.588C222.639 604.867 210.216 589.58 217.38 577.304C220.473 571.101 234.833 558.207 238.463 551.939C249.388 533.151 249.632 520.517 250.413 510.293C250.006 511.563 249.599 512.784 249.192 513.907C243.755 529.309 237.421 547.429 223.371 557.393C209.337 567.357 200.269 580.951 203.899 592.266C207.53 603.581 214.319 626.228 212.952 640.734C211.6 655.223 211.144 661.573 215.67 669.274C220.196 676.974 224.283 684.675 225.178 690.113C226.09 695.551 239.212 706.866 252.351 694.183C255.525 697.814 269.201 701.135 274.639 688.892C282.747 688.485 288.298 680.54 286.963 672.888C285.124 677.935 280.109 678.228 275.046 677.626H275.079Z" fill="#CAC379"/>
<path d="M541.039 393.953C534.25 401.8 534.543 406.293 526.11 411.878C561.195 577.273 449.07 549.693 401.921 534.878C382.808 528.87 360.405 528.317 350.035 521.219C340.755 540.332 322.569 553.031 322.13 553.373C333.901 552.917 345.671 546.991 367.422 548.814C389.157 550.621 405.21 561.367 443.714 572.226C480.833 582.711 530.099 556.108 540.063 537.532C550.026 518.956 563.49 501.291 573.047 492.646C581.122 485.336 583.011 484.945 608.376 467.281C633.741 449.616 572.803 357.256 541.039 393.969V393.953Z" fill="#CAC379"/>
<path d="M432.171 494.453C430.477 504.97 433.506 527.193 443.03 546.209C452.538 565.225 455.419 573.674 458.138 585.901C461.752 602.166 460.824 614.197 470.691 623.07C479.743 631.227 496.951 647.524 504.212 662.013C511.457 676.503 513.72 687.379 515.544 698.694C517.367 710.009 514.795 713.77 526.859 719.989C543.156 728.373 545.435 734.023 551.768 737.197C558.118 740.372 565.802 739.005 570.784 727.234C575.766 730.408 581.871 730.978 587.993 723.603C591.265 719.663 592.095 715.137 592.047 711.23C597.712 711.539 604.404 701.624 595.661 690.391C589.328 682.234 580.504 683.162 572.233 683.569C564.565 683.943 558.199 685.181 555.155 683.569C552.615 682.218 551.15 680.117 549.945 677.887C546.314 671.098 511.897 604.07 508.722 593.195C505.547 582.32 517.888 526.851 507.81 496.276C497.733 465.701 433.864 483.936 432.171 494.469V494.453Z" fill="#F1E890"/>
<path d="M587.504 702.828C585.665 711.847 579.706 718.408 570.442 715.69C561.537 728.486 537.572 715.69 529.708 698.106C507.957 649.509 476.942 621.278 472.791 610.63C468.623 599.983 459.213 568.382 449.184 556.953C450.307 560.649 457.52 578.704 459.034 588.554C460.955 600.927 461.622 614.929 470.674 623.085C479.726 631.242 496.935 647.539 504.196 662.028C511.441 676.518 513.704 687.394 515.528 698.709C517.351 710.024 514.779 713.785 526.843 720.004C543.14 728.388 545.419 734.038 551.752 737.213C558.101 740.387 565.786 739.02 570.768 727.249C575.75 730.424 581.855 730.993 587.976 723.618C589.132 722.234 592.161 716.357 592.112 712.319C595.156 712.482 603.606 704.358 596.931 692.685C596.621 693.141 594.538 703.446 587.504 702.828Z" fill="#CAC379"/>
<path d="M663.356 423.729C661.565 420.505 661.663 418.959 662.737 406.52C664.382 387.521 659.318 377.85 649.827 371.794C649.827 371.794 648.931 371.256 647.271 370.394L655.46 350.922C650.055 354.162 636.607 359.16 632.195 359.469C612.186 349.196 587.423 350.922 576.238 355.936C576.238 355.936 556.034 367.251 543.449 377.28C532.997 385.6 536.171 426.708 536.171 426.708C536.53 437.616 534.771 442.68 536.644 447.287C539.476 454.271 547.421 458.13 558.118 463.535C572.217 470.65 576.059 477.944 586.332 487.142C596.605 496.341 604.55 497.041 615.914 496.503C627.278 495.966 630.453 486.572 638.023 480.093C646.636 479.751 643.396 471.545 661.402 453.539C672.782 442.159 666.742 429.867 663.34 423.762L663.356 423.729Z" fill="#F1E890"/>
<path d="M649.827 371.794C649.827 371.794 648.931 371.256 647.271 370.394L655.46 350.922C650.055 354.162 636.607 359.16 632.195 359.469C618.682 352.534 603.02 351.085 590.826 352.403C614.286 354.959 640.531 364.923 641.686 386.414C647.922 383.174 660.214 385.925 661.402 394.668C663.389 381.953 654.027 374.48 649.827 371.81V371.794Z" fill="#CAC379"/>
<path d="M632.911 486.572C632.911 486.572 629.297 479.002 632.081 479.865C634.865 480.728 640.856 481.574 644.682 475.876C636.981 477.162 624.168 469.331 622.231 466.27C617.949 470.764 599.861 473.531 594.472 461.565C590.06 451.813 584.769 446.115 586.267 442.045C576.352 431.023 574.773 421.694 576.417 406.732C572.559 399.031 578.273 384.818 582.832 383.402C585.697 379.104 577.687 366.991 572.884 357.857C566.6 361.521 552.892 369.759 543.465 377.264C533.013 385.583 535.487 422.72 535.487 422.72C535.487 450.869 536.171 452.318 553.396 461.06C577.329 473.206 572.168 474.508 586.934 487.712C593.17 493.28 606.129 499.06 622.833 494.989C625.829 494.127 632.911 486.556 632.911 486.556V486.572Z" fill="#CAC379"/>
<path d="M513.395 337.897C532.671 320.851 562.139 348.154 573.78 370.084C558.639 366.844 539.151 376.254 537.083 398.038C523.033 388.774 491.53 357.238 513.395 337.897Z" fill="#E9B77D"/>
<path d="M514.6 336.692C506.231 341.153 506.394 349.44 507.078 356.261C528.357 346.428 551.589 353.819 568.717 369.595C570.166 369.677 571.614 369.872 573.015 370.181C570.263 363.897 545.224 320.395 514.6 336.692Z" fill="#C49A6A"/>
<path d="M692.694 351.589C684.016 341.755 660.718 351.459 649.615 371.988C653.392 375.391 662.607 380.373 661.353 396.784C704.578 374.903 695.331 354.584 692.694 351.589Z" fill="#E9B77D"/>
<path d="M692.694 351.589C677.748 340.534 656.827 358.72 649.615 371.988C651.015 373.242 652.936 374.919 654.841 377.328C665.554 369.742 683.414 360.738 691.456 368.863C691.977 369.123 692.482 369.514 692.987 369.986C695.657 364.288 696.796 354.633 692.677 351.605L692.694 351.589Z" fill="#C49A6A"/>
<path d="M631.778 405.514C632.571 400.287 628.977 395.406 623.749 394.613C618.522 393.819 613.642 397.414 612.848 402.641C612.055 407.868 615.649 412.749 620.877 413.542C626.104 414.335 630.984 410.741 631.778 405.514Z" fill="#E73656"/>
<path d="M562.693 400.984C573.584 403.345 593.023 418.356 594.798 438.088C589.784 442.207 576.547 444.861 568 437.795C554.748 423.077 562.693 400.984 562.693 400.984Z" fill="white"/>
<path d="M594.375 435.06C591.021 416.842 573.031 403.215 562.709 400.984C562.709 400.984 561.097 405.462 560.543 411.73C579.852 412.511 589.051 423.419 594.391 435.06H594.375Z" fill="#DCDDDD"/>
<path d="M652.692 407.286C642.973 412.089 634.962 421.141 631.918 438.089C636.151 440.352 646.505 444.471 652.057 432.765C658.439 419.285 652.708 407.27 652.708 407.27L652.692 407.286Z" fill="white"/>
<path d="M652.725 406.879C647.092 408.458 636.802 418.731 634.979 428.125C640.742 422.964 644.584 417.412 653.767 414.531C653.441 410.558 652.725 406.879 652.725 406.879Z" fill="#DCDDDD"/>
<path d="M577.622 422.003C577.622 429.801 576.075 435.223 574.171 435.223C572.266 435.223 570.719 429.817 570.719 422.003C570.719 414.188 572.266 407.871 574.171 407.871C576.075 407.871 577.622 414.204 577.622 422.003Z" fill="#E73656"/>
<path d="M637.616 421.646C637.6 422.313 637.209 423.29 637.209 423.974C637.209 431.3 638.088 436.331 639.668 436.331C641.247 436.331 643.624 430.47 643.624 423.16C643.624 420.132 643.396 416.827 643.021 414.58C641.1 416.224 639.147 419.383 637.616 421.646Z" fill="#E73656"/>
<path d="M615.442 397.452C613.781 399.178 612.756 401.506 612.756 404.078C612.756 409.369 617.037 413.651 622.329 413.651C624.038 413.651 625.634 413.195 627.017 412.414C620.701 411.453 615.995 404.811 615.442 397.436V397.452Z" fill="#C82D4A"/>
<path d="M574.187 407.871C572.705 407.871 571.452 411.697 570.963 417.07C572.998 415.995 575.131 416.842 577.589 419.658C577.313 412.967 575.896 407.871 574.187 407.871Z" fill="#C82D4A"/>
<path d="M643.021 414.58C641.1 416.224 639.146 419.383 637.616 421.646C637.6 422.313 637.583 422.981 637.583 423.665C637.583 424.235 637.583 424.788 637.616 425.342C639.326 422.672 642.793 421.092 643.64 421.288C643.558 419.057 643.331 416.306 643.038 414.58H643.021Z" fill="#C82D4A"/>
<path d="M631.022 479.328L632.195 485.515L636.33 481.379L631.022 479.328Z" fill="#DCDDDD"/>
<path d="M601.571 480.207L598.038 486.687L595.384 481.086L601.571 480.207Z" fill="#DCDDDD"/>
<path d="M552.224 441.328C543.677 440.448 505.645 440.872 505.417 443.167C505.189 445.479 537.799 445.447 554.292 446.326L552.224 441.311V441.328Z" fill="#F1E890"/>
<path d="M557.694 453.994C538.255 458.113 502.096 469.933 502.682 472.538C503.268 475.143 543.27 463.714 562.123 458.699L557.711 453.994H557.694Z" fill="#F1E890"/>
<path d="M573.291 466.367C558.867 471.072 530.148 486.865 531.027 489.046C531.906 491.228 565.607 475.875 578.013 469.9L573.308 466.367H573.291Z" fill="#F1E890"/>
<path d="M552.224 441.329C547.975 440.889 537.718 440.694 527.64 440.922C531.173 441.948 536.123 442.045 537.327 445.709C543.384 445.888 549.31 446.067 554.292 446.344L552.224 441.329Z" fill="#CAC379"/>
<path d="M557.694 453.994C550.596 455.492 542.374 457.739 534.201 460.278C539.037 460.002 545.158 457.885 547.779 462.476C552.924 461.141 557.808 459.839 562.106 458.699L557.694 453.994Z" fill="#CAC379"/>
<path d="M573.291 466.367C568.114 468.06 562.367 470.47 556.669 473.238C561.423 472.44 562.399 474.068 565.102 475.794C569.937 473.482 574.431 471.365 578.013 469.9L573.307 466.367H573.291Z" fill="#CAC379"/>
<path d="M658.993 442.224C669.005 440.449 695.136 436.118 700.72 437.877C695.706 441.703 669.591 445.464 659.286 446.636L658.993 442.224Z" fill="#F1E890"/>
<path d="M653.408 454.581C662.249 456.046 703.699 466.791 703.227 469.184C702.771 471.594 659.009 461.647 652.22 459.872L653.392 454.564L653.408 454.581Z" fill="#F1E890"/>
<path d="M646.636 467.541C654.581 472.246 686.605 493.948 685.302 495.983C684.016 498.018 649.957 477.521 644.063 472.523L646.62 467.541H646.636Z" fill="#F1E890"/>
<path d="M639.456 385.307C637.991 376.027 647.222 352.973 666.075 341.495C681.834 331.89 699.108 332.329 704.253 341.414C711.009 353.38 707.949 372.608 690.952 387.488C676.087 400.513 662.949 402.532 662.949 402.532L662.249 396.866C662.249 396.866 688.965 383.304 693.459 368.896C696.91 357.858 695.266 349.099 684.993 348.008C674.72 346.917 660.067 355.171 652.529 367.479C647.319 375.978 645.496 381.334 644.014 385.746C643.021 388.742 640.091 389.377 639.44 385.307H639.456Z" fill="#3C4327"/>
<path d="M587.032 378.778C585.079 368.994 571.777 341.496 552.436 327.983C536.188 316.619 516.244 315.202 504.082 326.778C489.365 340.763 492.507 359.372 501.054 373.976C508.95 387.488 523.049 399.048 538.63 403.427C542.44 404.502 542.13 401.311 540.063 399.878C533.567 395.401 513.346 383.809 508.087 359.356C504.652 343.352 515.658 335.553 522.691 333.925C529.724 332.297 549.636 334.609 567.398 360.332C576.482 373.487 578.29 376.825 581.529 382.132C584.183 386.463 588.498 386.105 587.032 378.778Z" fill="#3C4327"/>
<path d="M614.693 457.398C612.463 459.156 612.528 460.882 613.716 462.575C614.319 463.422 619.561 465.848 622.068 465.832C624.087 465.815 627.18 464.415 629.134 462.755C631.202 460.98 631.592 458.863 630.485 457.382C629.313 455.819 616.126 456.275 614.709 457.398H614.693Z" fill="#3C4327"/>
<path d="M627.783 459.595C627.799 460.278 625.927 460.913 623.582 460.995C621.238 461.076 619.333 460.571 619.301 459.888C619.252 458.585 627.734 458.292 627.766 459.595H627.783Z" fill="#989176"/>
<path d="M218.747 478.335C198.657 504.84 186.837 534.894 179.999 554.838C171.729 578.966 155.204 589.467 142.928 588.783C136.351 588.409 131.223 583.98 128.585 578.347C127.527 578.005 125.883 577.517 124.824 576.898C127.136 586.308 134.609 591.404 143.026 591.876C156.132 592.609 174.187 581.896 182.832 556.629C189.605 536.831 200.92 507.494 220.815 481.266C238.431 458.017 273.304 438.48 291.815 434.328C295.348 432.065 294.778 430.258 298.49 428.5C274.558 433.661 239.733 450.658 218.731 478.351L218.747 478.335Z" fill="#0E141B"/>
<path d="M251.813 478.238C234.751 494.909 216.826 524.491 209.191 548.603C199.96 577.745 184.916 611.625 150.206 615.076C120.689 618.007 99.7847 596.419 95.0796 574.635C90.9768 555.587 94.9819 532.013 118.556 522.977C138.484 515.325 159.356 522.44 166.063 539.143C169.629 548.033 169.417 557.997 165.493 565.811C162.042 572.682 155.546 577.338 148.155 579.08C140.763 580.822 132.118 578.038 125.85 573.87C118.459 568.953 117.14 556.466 121.438 551.077C125.41 546.079 134.772 544.435 139.249 548.7C143.726 552.966 146.266 552.38 142.212 547.3C136.677 540.365 125.248 540.723 118.735 548.098C112.223 555.489 113.232 568.791 123.522 576.622C129.025 580.822 139.737 584.013 150.32 581.685C157.076 580.203 164.663 574.261 168.424 566.772C172.706 558.257 172.575 547.577 168.717 537.955C161.521 520.063 138.028 511.238 116.912 519.33C92.0025 528.887 87.0858 555.473 91.4001 575.449C96.3006 598.226 118.947 622.289 149.799 619.228C185.844 615.646 202.402 580.496 211.844 550.686C219.382 526.9 236.233 498.116 253.051 481.673C256.128 478.661 259.27 476.593 262.477 474.281C262.477 473.077 262.787 470.455 262.901 469.283C259.156 471.774 255.46 474.688 251.83 478.221L251.813 478.238Z" fill="#0E141B"/>
<path d="M400.375 669.566C400.375 672.529 399.072 674.418 398.405 674.662C398.111 674.776 396.923 674.158 396.239 672.806C395.718 673.148 395.181 673.474 394.627 673.783C395.409 674.906 397.281 676.241 398.356 676.241C400.293 676.241 402.865 671.357 402.475 667.434C401.856 668.036 401.026 668.98 400.375 669.566Z" fill="#0E141B"/>
<path d="M387.155 683.097C387.024 684.676 385.657 687.004 384.778 686.923C383.931 686.842 382.987 685.344 382.743 684.627C382.14 684.758 381.261 684.758 380.61 684.855C381.342 686.565 383.736 688.519 384.599 688.551C386.927 688.632 390.118 683.081 389.922 680.541C389.922 680.541 387.92 682.267 387.155 683.081V683.097Z" fill="#0E141B"/>
<path d="M367.357 691.497C367.26 692.067 365.159 694.753 363.596 694.607C362.848 694.542 362.131 691.986 361.936 690.423C361.154 690.13 360.308 689.886 359.608 689.43C360.064 692.36 361.952 695.991 363.206 696.251C364.834 696.593 368.969 693.077 369.343 691.579C368.709 691.546 367.992 691.579 367.374 691.497H367.357Z" fill="#0E141B"/>
<path d="M278.644 688.258C278.514 690.016 276.56 692.198 275.811 692.296C275.274 692.377 274.769 691.14 274.085 689.756C273.467 690 272.864 690.277 272.294 690.603C272.815 692.393 274.46 694.168 275.355 694.135C277.521 694.087 280.598 689.609 280.793 687.184C280.125 687.525 279.36 687.998 278.644 688.242V688.258Z" fill="#0E141B"/>
<path d="M259.807 700.028C259.368 699.93 258.668 699.197 258.326 697.244C257.593 697.244 256.632 697.081 255.932 696.771C256.356 699.148 257.87 701.525 259.302 701.786C261.11 702.112 263.926 700.402 265.717 697.699C265.033 697.797 263.633 697.895 262.933 698.074C262.559 699.002 260.361 700.174 259.807 700.044V700.028Z" fill="#0E141B"/>
<path d="M242.126 699.443C241.964 700.713 239.749 703.318 238.431 703.301C237.714 703.301 236.444 701.852 235.81 699.606C235.109 699.557 233.97 699.541 233.27 699.443C233.644 701.755 236.558 705.727 238.17 705.695C240.84 705.63 244.976 700.55 245.187 698.873C244.503 699.02 242.827 699.345 242.143 699.443H242.126Z" fill="#0E141B"/>
<path d="M490.83 682.267C490.732 684.481 489.657 686.679 488.86 686.695C488.534 686.695 487.443 685.913 487.069 685.441C486.597 686.027 486.271 686.076 485.88 686.695C486.336 687.769 488.078 688.567 488.86 688.339C491.269 687.639 493.239 683.862 492.767 681.371C492.067 681.632 491.416 681.941 490.83 682.267Z" fill="#0E141B"/>
<path d="M481.517 692.099C481.534 693.939 479.824 695.436 479.043 695.436C478.652 695.436 477.756 694.72 477.073 692.945C476.356 693.011 475.51 692.734 474.777 692.49C475.038 693.662 477.415 697.488 479.091 697.064C480.475 697.178 483.764 693.743 483.992 690.275C483.341 690.471 482.169 691.838 481.501 692.099H481.517Z" fill="#0E141B"/>
<path d="M464.471 697.342C463.902 699.898 461.883 701.233 461.378 701.103C460.906 700.989 460.255 699.703 459.734 697.635C458.985 697.456 457.731 697.147 457.031 696.756C457.585 698.677 459.913 702.861 460.971 702.861C463.153 703.285 467.256 697.961 467.256 696.219C466.523 696.642 465.155 697.098 464.471 697.326V697.342Z" fill="#0E141B"/>
<path d="M578.81 729.984C577.98 731.368 575.912 731.938 575.326 731.742C574.789 731.563 574.708 730.179 574.675 729.447C573.959 729.268 572.998 729.04 572.347 728.779C572.298 730.017 573.422 733.077 574.659 733.419C575.619 733.696 579.185 732.784 581.562 729.691C580.715 729.821 579.69 729.984 578.81 729.984Z" fill="#0E141B"/>
<path d="M557.939 738.419C557.613 739.835 555.871 741.333 554.829 741.3C553.885 741.268 552.664 738.793 552.305 737.214C551.491 736.97 550.059 736.449 549.375 736.074C550.303 739.64 552.517 743.221 554.601 743.254C557.011 743.287 559.99 740.128 560.706 738.012C560.153 737.995 558.59 738.451 557.939 738.402V738.419Z" fill="#0E141B"/>
<path d="M347.674 589.288C345.639 581.766 348.455 567.716 354.365 548.391L350.36 548.798C350.36 548.798 341.292 578.331 344.011 588.815C347.772 603.305 356.189 629.387 358.663 637.543C361.089 645.537 363.694 645.554 361.545 637.543C359.673 630.608 350.946 601.433 347.674 589.288Z" fill="#0E141B"/>
<path d="M392.527 674.973C392.527 674.973 392.511 674.973 392.495 674.973C392.495 675.038 392.495 675.021 392.527 674.973Z" fill="#0E141B"/>
<path d="M401.889 654.573C397.623 646.058 384.452 645.879 372.86 643.991C368.774 643.323 361.268 637.837 360.161 635.785C359.152 635.785 360.65 638.341 359.803 638.341C360.031 638.748 363.01 644.023 372.437 646.27C381.88 648.517 395.034 648.37 398.779 655.566C402.051 661.834 401.465 666.035 399.446 668.9C398.242 670.593 396.239 671.961 393.504 672.042C393.374 672.905 392.706 674.24 392.543 674.517C395.23 674.289 398.779 673.182 400.342 671.521C403.549 668.119 404.949 660.662 401.905 654.573H401.889Z" fill="#0E141B"/>
<path d="M376.833 688.078C383.508 680.833 378.477 667.482 368.35 666.017C365.29 665.578 364.069 666.261 367.976 667.58C377.712 670.836 378.998 679.286 375.677 684.789C373.935 687.671 370.679 689.917 367.243 689.803C362.327 689.64 358.712 685.961 357.524 684.512C354.007 680.263 347.755 674.011 337.564 669.143C328.642 664.878 326.753 661.003 326.884 654.898C326.932 652.928 327.47 642.882 326.932 636.647C325.679 622.287 312.475 602.327 300.867 582.53C296.732 575.48 295.446 569.294 295.967 566.217L291.831 567.194C291.88 570.987 293.443 576.343 297.578 583.132C314.233 610.451 322.26 623.525 323.579 637.314C324.116 643.013 323.253 653.074 323.204 655.093C323.025 664.047 327.616 667.222 333.852 670.201C343.539 674.841 352.526 682.379 355.554 686.189C358.435 689.803 363.369 693.173 366.82 692.717C372.828 691.936 374.7 690.373 376.816 688.061L376.833 688.078Z" fill="#0E141B"/>
<path d="M384.419 658.984C379.812 657.78 380.154 658.984 383.198 660.385C389.645 663.331 392.315 668.118 391.583 674.142C390.85 680.149 386.796 684.529 378.461 683.064C378.575 683.829 377.663 685.538 377.663 685.522C387.545 685.88 392.641 683.161 394.448 674.158C396.06 666.083 389.499 660.287 384.419 658.968V658.984Z" fill="#0E141B"/>
<path d="M494.737 665.773C490.504 655.419 483.292 654.865 458.887 653.547C458.317 651.691 457.992 648.842 457.992 646.432C457.992 638.536 461.622 628.556 466.962 618.185L464.406 615.043C456.966 629.484 453.71 646.383 456.478 652.782C458.496 657.454 461.166 658.594 459.701 655.354C486.173 656.705 488.957 659.489 492.083 667.955C494.167 673.572 494.053 677.903 492.279 680.28C491.351 681.533 489.869 682.184 488.16 682.152C488.306 683.096 487.622 684.659 487.671 684.464C489.869 684.333 493.37 683.585 494.623 681.891C495.926 680.117 498.058 673.93 494.721 665.773H494.737Z" fill="#0E141B"/>
<path d="M474.321 675.607C471.032 669.925 465.855 668.997 460.841 669.257C455.81 669.518 456.331 670.462 460.597 670.56C465.155 670.674 469.518 672.09 471.57 675.819C473.637 679.547 473.1 686.108 471.13 690.748C469.714 694.102 465.937 696.528 462.453 696.642C455.81 696.87 449.64 690.08 447.605 687.622C442.525 681.484 435.296 680.654 422.597 672.807C417.16 669.437 415.971 659.766 416.85 655.728C418.218 649.428 423.965 644.348 427.091 636.712C431.34 626.358 426.782 576.018 425.756 565.973L421.295 564.703C423.216 579.225 428.117 626.146 423.819 636.68C420.725 644.283 414.262 649.037 413.415 656.738C412.357 666.376 415.939 673.067 422.858 676.161C426.896 677.968 441.711 684.561 445.732 689.218C448.614 692.539 455.159 699.442 462.534 699.181C466.213 699.051 470.902 697.456 473.344 693.402C475.786 689.364 476.649 679.628 474.321 675.607Z" fill="#0E141B"/>
<path d="M477.073 665.301C474.354 664.862 471.619 665.334 476.487 666.588C485.636 668.948 488.404 675.444 486.336 682.738C484.708 688.485 481.859 690.406 480.134 690.976C477.659 691.79 474.338 691.139 472.889 690.064C472.661 691.123 471.977 692.686 472.189 692.36C474.256 693.646 477.854 694.167 480.85 693.174C484.757 691.888 486.857 690.309 489.006 683.536C492.263 673.246 484.611 666.506 477.056 665.301H477.073Z" fill="#0E141B"/>
<path d="M250.739 608.335C250.299 605.176 250.886 598.436 252.497 591.631C255.151 580.414 252.204 580.641 249.518 590.931C248.248 595.782 246.848 604.721 247.076 608.221C247.581 616.443 261.012 648.971 264.985 659.733C266.613 659.733 268.045 659.977 269.283 659.977C265.75 649.997 253.1 624.974 250.755 608.335H250.739Z" fill="#0E141B"/>
<path d="M288.705 671.765C287.191 663.315 276.544 658.268 264.805 659.033C260.051 659.343 262.624 660.368 265.033 660.596C278.449 661.882 284.684 666.392 285.661 671.96C287.566 682.836 280.353 686.352 275.551 687.297C275.551 688.404 274.769 689.787 274.639 690.569C280.272 689.755 290.871 683.731 288.722 671.781L288.705 671.765Z" fill="#0E141B"/>
<path d="M454.019 572.696C450.633 572.355 447.295 571.785 444.088 570.873C427.677 566.233 415.58 561.707 404.9 557.718C391.078 552.541 380.17 548.455 367.536 547.413C353.388 546.24 343.197 548.324 334.991 550.017C331.996 550.636 329.277 551.125 326.623 551.483C338.166 542.268 355.049 520.826 363.922 497.024C368.448 484.862 364.785 488.216 361.089 496.519C333.526 553.274 310.049 558.451 277.716 571.508C264.447 576.425 255.297 586.942 251.146 593.243C250.82 595.05 250.543 598.68 250.739 600.569C254.809 589.661 269.82 576.588 283.854 572.322C299.402 567.584 309.3 564.117 322.39 554.739C326.672 554.56 330.986 553.681 335.561 552.736C344.011 551.011 353.584 549.497 367.325 550.652C379.568 551.678 389.792 555.504 403.956 560.795C414.669 564.8 428.361 570.205 444.886 574.878C448.419 575.871 452.017 576.522 455.663 576.897C454.98 575.497 454.377 574.113 454.052 572.713L454.019 572.696Z" fill="#0E141B"/>
<path d="M549.049 520.452C536.953 541.682 528.243 550.881 510.204 560.6C510.041 562.342 510.318 563.547 510.529 565.289C532.427 553.681 541.642 542.529 552.013 521.787C559.632 506.532 575.359 490.3 584.362 484.96C583.89 484.146 583.369 483.397 582.783 482.697C574.952 487.956 562.237 497.334 549.049 520.468V520.452Z" fill="#0E141B"/>
<path d="M586.69 682.021C577.296 680.003 564.288 683.112 556.36 682.705C553.51 682.559 552.306 679.628 550.954 677.088C547.063 669.795 515.43 604.802 512.337 594.187C510.416 587.61 510.888 584.989 512.516 567.65C515.169 539.647 512.89 514.998 511.344 501.501C509.862 488.575 507.583 487.972 508.608 501.86C509.764 517.733 510.302 548.373 508.494 567.454C507.338 579.681 506.427 589.352 507.615 593.471C510.823 604.46 544.393 670.771 548.463 678.391C550.287 681.793 551.199 684.854 556.229 685.18C563.832 685.668 574.968 683.519 584.606 685.212C595.661 687.15 604.501 704.521 590.972 712.027C590.826 713.134 591.054 715.592 591.07 715.478C609.89 707.126 599.438 684.74 586.69 681.989V682.021Z" fill="#0E141B"/>
<path d="M560.706 703.383C554.08 700.957 551.947 701.348 559.551 704.881C571.37 710.351 572.184 718.573 569.856 725.248C564.825 739.672 553.641 738.24 545.891 731.5C542.326 728.406 537.458 724.157 527.364 718.98C520.2 715.3 518.002 711.426 516.651 698.531C514.893 687.558 512.695 676.471 505.222 661.509C499.866 650.78 488.502 637.56 471.44 622.224C461.867 613.595 461.671 597.396 460.157 588.311C454.329 559.185 434.287 530.857 431.471 496.195C430.803 487.876 428.801 485.629 429.142 496.553C430.184 530.287 449.314 557.508 456.233 588.62C458.431 603.941 458.431 615.386 467.695 623.722C484.285 638.667 496.837 652.229 501.998 662.551C509.341 677.22 510.953 687.33 512.662 698.108C513.541 709.895 515.935 716.766 524.856 721.357C534.69 726.42 540.681 730.506 544.344 733.697C555.904 743.759 568.977 739.005 573.519 726.99C577.883 715.398 569.319 706.558 560.674 703.399L560.706 703.383Z" fill="#0E141B"/>
<path d="M594.13 711.051C594.896 702.78 586.951 694.037 568.7 695.307C562.416 695.747 563.702 696.968 567.919 696.952C592.307 696.935 592.893 709.927 586.869 721.747C583.434 728.471 576.889 728.976 571.386 726.257C571.386 726.257 569.872 728.894 570.149 728.308C575.359 731.141 583.89 731.418 588.807 725.459C591.151 722.61 593.577 717.091 594.147 711.034L594.13 711.051Z" fill="#0E141B"/>
<path d="M533.811 401.376C526.24 411.795 511.474 422.329 492.979 428.304C484.855 430.925 485.962 432.569 493.353 430.534C513.802 424.917 523.342 418.34 537.164 402.629C536.155 402.239 534.739 401.734 533.811 401.359V401.376Z" fill="#0E141B"/>
<path d="M489.12 420.961C476.275 416.809 460.841 415.556 433.538 423.989C428.231 424.787 404.656 425.65 385.771 422.426L374.423 419.838C357.247 416.5 335.268 412.739 320.274 416.484C301.99 421.042 284.179 435.874 269.331 453.685C260.019 464.854 256.388 483.365 251.83 498.75C245.008 521.755 234.458 547.25 220.848 556.921C201.995 570.303 198.299 583.686 203.232 598.762C211.096 622.76 211.584 629.858 210.884 640.978C209.923 656.005 207.807 660.661 211.779 667.776C215.394 674.272 221.564 685.294 226.432 695.632C230.193 703.593 248.15 702.079 253.637 695.046C260.784 685.88 258.879 674.548 248.997 673.897C245.692 673.686 244.471 674.272 248.053 674.955C255.802 676.437 257.349 684.301 251.423 693.19C247.255 699.409 233.009 699.783 229.037 693.988C227.49 691.725 221.548 677.121 216.094 667.971C211.828 660.84 212.968 655.875 214.368 640.88C215.28 631.079 212.854 616.752 206.928 597.232C203.037 584.419 205.332 571.964 224.218 558.549C238.545 548.373 248.362 523.35 255.346 498.978C259.71 483.772 265.424 464.935 272.506 455.932C282.177 443.624 301.828 426.692 318.32 421.515C332.468 417.07 357.003 420.228 373.902 423.517L385.315 425.65C403.533 428.759 414.441 427.538 422.923 427.652C417.274 429.492 409.736 431.381 410.11 432.097C410.762 433.351 421.442 430.518 428.996 428.238C465.709 417.233 477.496 419.886 489.544 424.347C492.946 425.617 497.928 427.115 503.675 426.838C504.994 426.138 507.55 425.845 508.641 424.933C501.705 424.787 494.77 422.817 489.137 420.994L489.12 420.961Z" fill="#0E141B"/>
<path d="M277.114 686.433C278.172 682.233 275.404 673.49 270.308 670.56C267.492 668.932 264.626 668.28 263.487 668.15C260.556 667.792 258.521 668.427 262.624 669.371C263.91 669.664 266.694 670.609 268.696 672.009C273.825 675.59 275.225 683.894 273.385 688.354C269.869 696.918 260.931 697.716 253.441 693.222C252.872 694.085 252.513 694.232 251.846 694.964C257.186 699.588 273.125 702.177 277.097 686.45L277.114 686.433Z" fill="#0E141B"/>
<path d="M632.358 358.265C608.425 346.185 587.683 348.627 575.782 353.951L577.394 357.663C591.949 351.151 610.46 350.337 633.953 362.075C640.579 365.38 640.449 363.915 634.441 359.991C642.533 358.396 648.313 356.409 653.571 353.251L654.874 349.946C649.55 353.137 636.704 357.891 632.358 358.282V358.265Z" fill="#0E141B"/>
<path d="M537.783 427.441C537.62 421.873 536.302 423.224 535.878 427.555C535.439 431.983 534.397 436.07 534.429 441.019C535.488 441.019 536.432 441.133 537.506 441.133C537.506 436.656 537.962 432.862 537.8 427.457L537.783 427.441Z" fill="#0E141B"/>
<path d="M537.62 445.903C536.22 445.903 535.325 445.789 533.957 445.789C533.843 449.127 538.044 452.871 543.612 456.909C545.745 456.306 546.966 456.502 547.796 456.176C539.9 451.699 538.027 448.882 537.604 445.887L537.62 445.903Z" fill="#0E141B"/>
<path d="M568.375 468.355C564.695 466.173 558.932 462.673 554.536 460.898C553.787 461.289 551.817 461.712 550.792 462.119C555.79 463.259 563.083 467.622 565.607 469.25C566.6 469.25 567.593 469.234 568.358 468.355H568.375Z" fill="#0E141B"/>
<path d="M631.609 484.325C630.013 487.777 627.327 491.765 623.273 493.393C617.803 495.591 607.351 496.145 597.81 492.628C588.188 489.079 580.715 478.594 573.194 472.082C572.559 472.261 571.289 472.847 570.524 473.336C578.859 479.848 587.032 492.498 596.801 495.722C605.511 499.092 616.972 498.978 623.615 496.21C629.411 493.8 632.374 488.33 634.767 484.13C634.035 483.999 632.211 484.732 631.609 484.341V484.325Z" fill="#0E141B"/>
<path d="M501.738 323.929C478.896 344.361 491.204 387.456 537.734 404.388C544.637 406.895 543.775 402.19 538.744 398.136C533.274 393.708 513.948 381.204 509.211 359.112C506.069 344.508 515.707 336.726 522.952 335.049C539.314 331.272 558.981 345.078 579.136 380.39C582.767 386.74 591.721 389.98 587.032 375.946C581.383 359.014 568.896 335.879 552.55 324.434C536.383 313.102 513.476 313.428 501.738 323.929ZM536.725 401.49C501.396 387.635 482.038 349.294 504.88 327.608C515.576 317.449 536.92 318.54 551.785 328.927C569.4 341.235 583.337 370.085 585.29 377.916C587.244 385.73 583.467 383.239 581.106 379.202C568.326 357.239 547.682 325.59 522.431 331.418C511.409 333.958 502.177 343.84 505.564 359.6C510.057 380.504 527.299 392.699 536.155 398.755C541.039 402.092 541.967 403.558 536.725 401.49Z" fill="#0E141B"/>
<path d="M548.496 374.252C543.433 377.964 537.458 385.437 536.269 397.973L538.581 398.754C539.704 386.821 545.875 379.934 550.661 376.417C557.222 371.598 566.193 369.335 574.073 371.028L572.819 368.716C564.5 366.942 555.431 369.156 548.48 374.236L548.496 374.252Z" fill="#0E141B"/>
<path d="M622.703 414.71C628.662 414.32 633.204 409.273 632.813 403.461C632.423 397.648 627.262 393.253 621.303 393.643C615.344 394.034 610.802 399.081 611.193 404.893C611.583 410.705 616.744 415.101 622.703 414.71ZM613.57 404.079C613.57 399.244 617.493 395.32 622.329 395.32C627.164 395.32 631.088 399.244 631.088 404.079C631.088 408.915 627.164 412.838 622.329 412.838C617.493 412.838 613.57 408.915 613.57 404.079Z" fill="#0E141B"/>
<path d="M595.726 437.453C592.112 417.721 579.576 405.576 562.872 400.187C557.32 398.396 555.073 398.998 561.406 401.668C581.122 409.939 589.051 420.18 593.919 437.698C595.286 442.598 596.866 443.738 595.726 437.47V437.453Z" fill="#0E141B"/>
<path d="M568.521 436.95C562.123 431.089 558.232 418.683 563.49 401.165C562.953 401.1 562.058 401.132 561.488 401.1C557.418 410.51 555.79 427.279 567.186 438.48C574.74 444.748 586.983 443.934 595.01 438.936C594.879 438.529 594.668 437.699 594.424 437.34C588.888 441.069 575.636 443.462 568.521 436.933V436.95Z" fill="#0E141B"/>
<path d="M652.594 406.114C639.472 412.04 634.409 420.457 631.332 437.714C630.518 442.273 632.064 441.736 632.83 438.203C635.793 424.348 640.547 414.058 653.425 407.302C656.876 405.495 657.072 404.095 652.594 406.114Z" fill="#0E141B"/>
<path d="M648.915 435.5C644.275 441.1 640.042 441.507 632.374 437.356C632.374 437.942 632.064 438.528 632.064 439.114C640.254 443.201 645.301 441.621 649.696 437.177C655.134 431.658 657.251 421.482 653.701 406.406C653.164 406.602 652.497 407.041 651.959 407.074C654.515 418.942 653.571 429.916 648.931 435.516L648.915 435.5Z" fill="#0E141B"/>
<path d="M569.449 421.987C569.449 430.143 571.5 436.884 574.219 436.884C577.345 436.884 578.631 428.239 578.631 422.019C578.631 415.8 577.296 406.504 574.17 406.504C571.045 406.504 569.449 415.768 569.449 421.987ZM571.338 422.003C571.338 413.13 573.177 408.474 574.17 408.474C575.164 408.474 577.003 413.114 577.003 422.003C577.003 430.892 575.164 434.604 574.17 434.604C573.177 434.604 571.338 430.876 571.338 422.003Z" fill="#0E141B"/>
<path d="M642.598 415.263C644.015 426.367 641.084 435.614 639.749 435.614C638.202 435.614 637.47 428.028 638.121 420.734C637.698 421.548 637.095 422.525 636.688 423.339C635.386 431.267 637.795 437.242 639.619 437.242C643.363 437.242 645.626 423.876 643.917 413.619L642.598 415.28V415.263Z" fill="#0E141B"/>
<path d="M630.225 479.475C630.225 479.475 631.185 485.987 631.967 486.247C632.927 486.573 637.584 481.298 638.691 480.093L635.956 480.321C635.956 480.321 633.269 484.245 632.699 483.854C632.13 483.463 631.804 479.182 631.804 479.182L630.208 479.491L630.225 479.475Z" fill="#0E141B"/>
<path d="M598.087 484.895C597.549 484.895 596.328 480.906 596.328 480.906L594.635 481.427C594.635 481.427 596.719 487.027 598.087 487.141C599.454 487.255 602.955 480.01 602.955 480.01L600.838 479.799C600.838 479.799 598.608 484.878 598.07 484.878L598.087 484.895Z" fill="#0E141B"/>
<path d="M696.259 332.346C687.956 330.181 674.883 333.193 665.472 338.891C646.457 350.402 638.87 371.99 638.593 382.703C638.381 390.973 642.858 389.768 644.242 386.61C645.952 382.751 647.352 378.811 650.201 373.488C657.983 379.626 661.516 385.34 660.279 394.848C659.79 398.625 659.872 398.511 663.356 396.655C672.717 391.673 692.059 380.13 695.624 368.734C699.808 355.318 694.875 346.446 685.579 345.469C674.557 344.313 659.025 354.667 651.552 366.878C647.71 373.146 645.333 378.518 643.689 382.882C641.637 388.319 640.107 387.033 640.709 381.872C641.963 371.208 650.869 352.127 666.677 342.506C675.436 337.166 687.337 334.723 694.957 336.71C709.544 340.503 711.27 368.18 690.203 386.642C678.318 397.046 666.514 400.562 662.786 401.474C661.63 401.767 662.298 404.014 662.298 404.014C662.884 403.916 678.822 400.79 693.768 387.701C712.882 370.964 716.903 337.719 696.275 332.363L696.259 332.346ZM653.066 368.457C660.116 356.947 674.638 348.074 684.863 349.148C691.717 349.864 696.454 355.4 692.352 368.538C688.803 379.919 669.087 391.429 662.151 395.174C664.3 384.982 660.556 376.418 651.08 371.681C651.617 370.736 652.432 369.499 653.066 368.457Z" fill="#0E141B"/>
<path d="M661.5 396.248C662.037 404.03 661.679 411.47 660.914 417.754C659.611 428.483 661.272 427.409 662.884 417.934C663.974 411.47 665.586 403.2 664.544 395.141C663.698 395.466 662.33 395.922 661.5 396.248Z" fill="#0E141B"/>
<path d="M662.428 419.072C661.109 416.695 660.36 420.082 661.777 422.638C664.805 428.108 667.41 436.395 666.921 440.921C667.914 440.774 668.826 440.53 669.819 440.514C670.112 435.532 666.71 426.806 662.428 419.072Z" fill="#0E141B"/>
<path d="M653.978 460.02C651.325 463.292 649.42 466.141 647.938 468.599C648.573 469.202 649.664 469.934 650.283 470.097C652.301 466.402 653.816 463.145 656.583 460.02H653.962H653.978Z" fill="#0E141B"/>
<path d="M645.105 473.223C642.142 478.612 638.788 480.875 629.378 477.717C626.594 476.772 623.322 475.291 620.961 474.835C617.428 474.835 611.486 476.756 603.98 478.856C594.945 481.38 590.598 479.28 587.309 474.786C585.258 472.002 584.33 472.979 586.186 476.154C589.621 482.015 594.847 483.561 604.208 480.663C611.128 478.514 617.966 476.626 621.108 476.626C623.126 477.033 625.21 477.977 627.799 479.182C635.093 482.585 642.826 482.959 647.287 474.705C647.32 474.656 646.131 473.614 645.089 473.24L645.105 473.223Z" fill="#0E141B"/>
<path d="M669.249 445.154C668.093 445.154 666.644 445.822 665.603 445.822C664.072 449.778 660.344 452.888 658.195 455.199C658.765 455.688 659.107 455.997 659.872 456.404C660.23 456.111 668.191 448.508 669.233 445.154H669.249Z" fill="#0E141B"/>
<path d="M621.368 465.799C621.482 469.039 620.554 473.353 619.838 475.714L621.401 475.942C622.149 474.167 623.419 469.039 623.452 465.799H621.368Z" fill="#0E141B"/>
<path d="M511.099 441.085C501.412 441.932 501.233 444.455 510.904 445.465C524.01 446.832 544.93 446.865 553.217 447.158C554.65 447.207 555.708 445.627 553.299 445.53C536.399 444.879 506.622 444.602 506.671 443.153C506.72 441.622 549.668 442.046 551.117 442.143C553.885 442.339 554.764 441.036 551.28 440.532C548.447 440.125 525.638 439.815 511.099 441.101V441.085Z" fill="#0E141B"/>
<path d="M506.85 469.023C499.719 472.083 499.214 474.932 507.729 473.386C525.28 470.227 552.029 462.901 562.318 459.498C563.735 459.026 563.393 457.48 561.895 457.919C557.32 459.287 504.489 473.581 504.033 472.214C503.578 470.846 544.377 457.04 557.857 454.793C559.144 454.582 559.16 452.97 557.515 453.198C546.314 454.761 523.114 462.054 506.85 469.006V469.023Z" fill="#0E141B"/>
<path d="M534.641 484.994C527.868 489.471 528.34 491.636 536.399 488.869C549.668 484.31 574.284 473.109 578.306 470.651C579.494 469.918 578.957 468.436 577.687 469.136C576.433 469.853 533.485 489.406 532.931 488.169C532.671 487.599 557.89 472.653 573.535 467.134C574.366 466.841 574.122 465.18 573.031 465.587C560.592 470.227 544.409 478.514 534.625 484.978L534.641 484.994Z" fill="#0E141B"/>
<path d="M692.596 436.901C677.194 437.975 659.644 441.101 658.846 441.41C657.885 441.785 658.39 443.022 659.123 443.006C659.872 443.006 698.783 436.868 699.059 438.252C699.336 439.619 660.051 445.432 659.188 445.822C658.325 446.213 658.097 447.564 659.367 447.434C660.376 447.336 679.636 444.585 693.117 441.475C704.92 438.757 704.302 436.07 692.58 436.884L692.596 436.901Z" fill="#0E141B"/>
<path d="M653.278 455.395C656.681 456.046 702.071 467.443 701.957 468.957C701.843 470.487 653.718 459.172 652.432 459.091C651.145 459.026 650.901 460.328 652.025 460.67C652.92 460.947 679.018 466.775 696.129 469.575C706.646 471.301 707.428 468.778 696.764 465.489C683.007 461.256 659.465 454.776 653.539 453.767C652.057 453.523 652.155 455.167 653.278 455.379V455.395Z" fill="#0E141B"/>
<path d="M646.212 468.24C646.945 468.647 685.09 493.899 684.228 495.217C683.365 496.536 645.887 472.946 644.6 471.904C643.314 470.862 642.679 472.343 643.542 473.141C644.291 473.841 666.498 488.559 680.89 495.331C686.995 498.197 688.151 496.504 682.795 492.026C671.171 482.307 647.889 467.28 647.059 466.84C646.082 466.319 645.496 467.833 646.229 468.24H646.212Z" fill="#0E141B"/>
<path d="M627.897 400.919C627.897 402.336 626.757 403.475 625.34 403.475C623.924 403.475 622.784 402.336 622.784 400.919C622.784 399.503 623.924 398.363 625.34 398.363C626.757 398.363 627.897 399.503 627.897 400.919Z" fill="#F3A7A5"/>
<path d="M613.798 456.909C612.674 457.641 611.095 460.328 612.332 462.102C613.879 464.316 618.763 466.27 622.361 466.189C625.015 466.124 628.239 464.723 629.818 463.372C631.999 461.5 632.602 458.732 631.218 456.909C629.801 455.02 616.858 454.906 613.798 456.909ZM630.062 458.097C630.632 458.879 630.355 460.23 628.987 461.76C627.929 462.949 624.608 464.789 622.215 464.821C619.838 464.837 615.442 463.6 614.188 461.809C613.309 460.556 613.781 459.481 615.084 458.26C616.712 456.73 628.646 456.257 630.062 458.097Z" fill="#0E141B"/>
</g>
<defs>
<clipPath id="clip0_42_63122">
<rect width="620" height="427.253" fill="white" transform="translate(90 316)"/>
</clipPath>
</defs>
</svg>
