<svg width="800" height="800" viewBox="0 0 800 800" fill="none" xmlns="http://www.w3.org/2000/svg">
<g clip-path="url(#clip0_42_63243)">
<path d="M386.045 298.917C386.045 298.917 330.71 295.007 327.819 288.895C325.88 284.804 327.769 267.257 330.201 264.908C335.179 260.094 380.591 284.64 380.591 284.64C380.591 284.64 333.93 232.591 333.75 226.692C333.569 220.794 345.185 211.511 351.001 211.511C357.507 211.511 383.137 246.884 395.64 280.664C395.64 280.664 388.691 215.964 391.5 212.234C394.655 208.061 407.65 210.361 410.772 213.696C413.779 216.9 408.505 295.549 408.505 295.549L386.062 298.901L386.045 298.917Z" fill="#061922"/>
<path d="M522.281 729.228C511.256 731.397 489.405 713.258 489.405 713.258C489.405 713.258 456.151 730.69 446.868 727.174C442.219 725.416 443.96 704.288 447.772 691.078C447.772 691.078 530.397 663.098 530.2 663.082C551.558 675.371 581.608 707.492 574.363 716.692C569.171 723.264 533.026 706.161 533.026 706.161C533.026 706.161 529.592 727.799 522.297 729.228H522.281Z" fill="#061922"/>
<path d="M521.344 722.986C517.746 724.103 497.225 716.496 486.25 700.378C484.131 697.257 482.603 698.423 484.131 702.317C485.429 705.669 486.562 708.544 486.562 708.544C478.594 713.703 458.32 723.232 452.619 721.08C448.446 719.503 450.286 698.423 453.72 686.544L522.642 664.939C543.853 674.321 571.997 707.427 567.955 712.06C566.115 714.163 543.672 706.145 533.896 699.935C533.896 699.935 533.995 698.538 534.028 696.435C534.061 693.494 532.878 691.145 531.991 695.433C531.333 698.604 527.735 721.014 521.344 723.002V722.986Z" fill="#FFFAC2"/>
<path d="M495.089 692.525C477.444 697.93 450.746 701.906 450.746 701.906C450.778 701.874 451.731 691.851 451.731 691.851L525.336 664.857L535.145 672.629C535.145 672.629 510.763 687.728 495.106 692.541L495.089 692.525Z" fill="#D5CFA3"/>
<path d="M324.451 729.984C333.109 730.641 353.4 711.385 353.4 711.385C353.4 711.385 387.672 731.364 396.593 727.026C403.592 723.625 391.319 701.544 383.696 688.417L314.642 665.596C292.741 675.174 255.232 709.019 261.443 716.232C266.207 721.785 311.323 710.465 311.323 710.465C311.323 710.465 316.055 729.359 324.451 730V729.984Z" fill="#061922"/>
<path d="M324.549 723.248C330.234 724.102 350.36 709.463 355.585 701.019C356.998 698.751 359.166 698.62 358.312 702.07C357.901 703.729 356.965 706.227 356.965 706.227C365.229 713.407 387.508 723.33 391.089 721.112C394.901 718.746 384.682 696.533 376.795 684.31L323.087 666.385C293.53 678.198 267.571 708.149 269.132 711.172C270.298 713.472 296.701 709.431 310.929 704.502C310.929 704.502 310.617 703.22 310.715 701.807C310.978 698.423 312.128 697.979 312.736 700.986C313.525 704.83 317.041 722.114 324.533 723.232L324.549 723.248Z" fill="#FFFAC2"/>
<path d="M340.009 689.715C361.779 697.256 385.585 700.05 385.585 700.05C385.553 700.017 379.868 688.384 379.868 688.384L317.895 668.373L309.68 672.957C309.68 672.957 324.516 684.343 340.009 689.732V689.715Z" fill="#D5CFA3"/>
<path d="M275.605 629.351C262.987 610.407 262.428 597.855 262.428 597.855C243.419 601.634 216.212 570.302 203.429 583.2C192.29 594.421 247.559 655.178 307.61 660.403C307.61 660.403 288.207 648.278 275.589 629.351H275.605Z" fill="#061922"/>
<path d="M270.101 605.626C244.865 608.764 215.259 576.742 207.225 585.992C199.897 594.421 259.126 650.479 304.439 655.424L270.101 605.626Z" fill="#FDB913"/>
<path d="M293.448 639.488C293.448 639.488 263.398 645.863 216.524 603.885C230.571 622.105 272.779 651.974 304.455 655.425L293.464 639.488H293.448Z" fill="#D09910"/>
<path d="M558.508 513.112C589.675 488.155 605.021 437.519 596.494 399.369C587.178 357.671 556.75 337.939 553.119 330.71C545.315 315.134 540.123 301.58 532.155 302.188C527.259 302.566 525.961 311.339 525.961 311.339C525.961 311.339 512.981 306.41 508.726 309.45C504.471 312.489 508.2 318.634 508.2 318.634C508.2 318.634 500.692 315.414 497.242 318.831C493.216 322.823 511.404 339.845 519.29 375.908C527.16 411.971 500.725 442.842 500.725 442.842L558.492 513.096L558.508 513.112Z" fill="#061922"/>
<path d="M556.29 507.625C585.617 481.387 596.083 445.34 590.398 403.461C585.108 364.473 549.16 335.704 547.829 332.435C542.769 320.063 535.441 306.18 531.728 307.61C529.198 308.595 529.493 317.155 529.493 317.155C529.493 317.155 517.401 310.633 513.557 313.376C509.728 316.12 514.066 325.649 514.066 325.649C514.066 325.649 506.672 321.838 504.454 324.844C502.729 327.194 519.438 346.417 526.536 378.931C533.634 411.445 507.527 447.656 507.527 447.656L556.274 507.608L556.29 507.625Z" fill="#FDB913"/>
<path d="M418.724 694.118C325.042 693.083 256.119 643.843 256.727 580.721C257.368 513.885 329.807 402.245 420.416 403.247C512.604 404.266 582.183 523.693 581.592 584.516C580.951 651.352 509.334 695.104 418.708 694.102L418.724 694.118Z" fill="#061922"/>
<path d="M419.299 688.976C333.208 688.023 262.774 643.235 263.398 579.735C264.006 516.25 334.834 410.197 420.926 411.133C507.018 412.086 575.759 519.668 575.151 583.152C574.527 646.636 505.391 689.912 419.316 688.959L419.299 688.976Z" fill="#FDB913"/>
<path d="M327.884 495.336C327.884 540.353 376.204 576.844 435.795 576.844C495.385 576.844 543.705 540.353 543.705 495.336C543.705 494.169 543.656 493.003 543.59 491.836C520.03 455.56 485.034 423.752 444.7 414.124C441.759 413.943 438.785 413.828 435.778 413.828C376.171 413.828 327.868 450.318 327.868 495.336H327.884Z" fill="#D09910"/>
<path d="M263.234 580.08C262.609 643.564 333.06 688.368 419.135 689.321C473.452 689.913 521.032 672.908 548.897 644.32C495.927 686.692 306.756 703.861 263.234 580.096V580.08Z" fill="#D09910"/>
<path d="M421.435 493.74C503.994 489.156 561.86 442.611 556.553 383.891C551.739 330.494 489.881 283.637 402.262 288.5C319.702 293.084 260.786 342.817 266.076 401.536C271.366 460.273 338.876 498.324 421.419 493.74H421.435Z" fill="#061922"/>
<path d="M420.778 491.227C497.669 486.955 556.011 439.161 551.082 384.466C546.153 329.772 479.826 288.878 402.919 293.15C326.028 297.422 267.686 345.216 272.615 399.91C277.544 454.605 343.887 495.498 420.778 491.227Z" fill="#FDB913"/>
<path d="M223.589 459.205C227.86 414.516 251.125 383.349 252.209 377.796C255.544 360.692 256.366 345.446 264.203 343.885C269.017 342.932 272.615 352.543 272.615 352.543C272.615 352.543 282.67 342.57 287.582 344.361C292.495 346.152 291.558 355.583 291.558 355.583C291.558 355.583 297.144 351.344 301.383 353.71C306.329 356.47 298.853 371.47 299.379 387.752C300.184 412.561 305.178 447.523 308.103 464.676C316.006 510.843 306.049 532.498 296.52 541.731C287.352 548.073 286.169 548.796 276.229 552.673C268.047 554.924 259.192 555.171 250.73 550.702C224.969 537.098 219.087 506.309 223.589 459.205Z" fill="#061922"/>
<path d="M294.45 535.602C290.228 541.32 288.305 548.845 299.198 540.531C299.198 540.531 296.422 545.657 288.075 550.225C279.729 554.792 274.225 554.94 274.225 554.94C287.319 550.734 280.222 546.577 271.711 547.974C244.684 552.394 223.901 526.582 229.569 462.079C233.644 415.748 256.892 381.755 257.286 378.255C258.83 364.98 262.149 349.635 266.109 350.029C268.82 350.292 270.84 358.622 270.84 358.622C270.84 358.622 280.731 349.092 285.167 350.703C289.603 352.313 287.977 362.663 287.977 362.663C287.977 362.663 294.072 356.995 297.013 359.295C298.212 360.232 295.715 374.953 294.992 384.449C294.696 388.359 297.292 435.759 301.58 460.798C309.483 507.048 303.536 520.454 294.45 535.602Z" fill="#FDB913"/>
<path d="M431.391 403.51C446.063 402.458 457.564 418.083 473.649 422.815C489.733 427.563 505.604 422.88 510.846 427.776C516.629 433.165 511.306 443.319 517.401 452.437C521.262 458.204 554.959 470.691 552.331 505.374C550.26 532.729 504.783 560.233 438.637 558.606C376.713 557.094 325.732 544.329 327.572 501.973C328.328 484.607 334.341 475.636 333.701 466.83C333.06 458.023 326.554 455.674 329.938 448.626C335.951 436.123 364.243 442.234 384.715 432.886C400.75 425.558 419.726 404.331 431.359 403.493L431.391 403.51Z" fill="#061922"/>
<path d="M433.462 408.423C446.983 407.601 455.017 422.864 469.821 427.169C484.64 431.473 501.694 428.27 506.541 432.689C511.864 437.569 507.346 448.166 512.981 456.397C518.108 463.889 546.482 469.081 546.268 501.612C546.12 523.332 517.976 538.792 496.059 546.613C487.302 549.734 458.862 555.008 430.291 553.809C397.744 552.445 364.523 543.557 354.418 537.412C342.047 529.887 333.06 520.736 333.931 500.347C334.604 484.673 339.139 474.667 338.547 466.715C337.956 458.763 332.797 457.219 335.853 450.844C339.862 442.465 371.883 444.962 388.625 436.485C399.748 430.866 423.834 409.014 433.445 408.423H433.462Z" fill="#FFFAC2"/>
<path d="M415.34 435.153C413.253 433.313 405.991 431.227 408.932 428.532C410.641 426.971 414.682 428.368 418.231 431.9C421.78 435.433 423.949 440.477 421.78 441.315C419.151 442.35 417.475 437.026 415.34 435.137V435.153Z" fill="#061922"/>
<path d="M452.175 434.858C453.374 433.445 456.677 430.997 454.475 429.502C453.21 428.631 450.663 429.945 448.659 432.623C446.655 435.301 445.751 438.686 447.213 439.179C449.973 440.099 450.926 436.32 452.158 434.874L452.175 434.858Z" fill="#061922"/>
<path d="M349.079 523.496C373.477 545.759 530.233 564.932 546.399 501.957C546.251 523.677 518.107 539.137 496.19 546.958C487.433 550.08 458.993 555.354 430.422 554.154C397.875 552.791 364.654 543.919 354.55 537.757C342.178 530.233 332.78 521.262 333.651 500.889C334.325 485.215 336.559 484.821 337.775 476.195C337.775 476.195 331.351 507.313 349.079 523.496Z" fill="#D5CFA3"/>
<path d="M484.739 410.524C508.677 414.204 530.167 403.738 532.713 387.128C535.276 370.517 517.927 354.071 493.989 350.391C470.05 346.711 448.56 357.177 446.014 373.787C443.451 390.397 460.801 406.844 484.739 410.524Z" fill="#061922"/>
<path d="M485.445 406.614C506.952 409.702 526.306 400.568 528.672 386.208C531.038 371.832 515.511 357.686 494.005 354.581C472.498 351.492 453.144 360.627 450.795 374.986C448.429 389.362 463.955 403.525 485.462 406.614H485.445Z" fill="white"/>
<path d="M479.645 383.069C482.06 382.987 483.95 380.966 483.884 378.551C483.802 376.136 481.781 374.246 479.366 374.312C476.951 374.394 475.061 376.415 475.127 378.83C475.209 381.246 477.23 383.135 479.645 383.069Z" fill="#061922"/>
<path d="M354.386 350.884C381.281 347.007 405.268 358.967 407.963 377.631C410.657 396.279 391.04 414.549 364.145 418.426C337.249 422.304 313.262 410.343 310.568 391.679C307.873 373.031 327.49 354.761 354.386 350.868V350.884Z" fill="#061922"/>
<path d="M355.24 355.533C379.276 352.165 400.701 362.548 403.099 378.715C405.515 394.898 387.968 410.736 363.931 414.121C339.894 417.489 318.47 407.105 316.071 390.939C313.673 374.755 331.203 358.917 355.223 355.549L355.24 355.533Z" fill="white"/>
<path d="M364.999 387.505C367.414 387.291 369.189 385.156 368.959 382.757C368.745 380.358 366.609 378.567 364.21 378.797C361.812 379.011 360.021 381.147 360.251 383.545C360.464 385.961 362.6 387.735 364.999 387.505Z" fill="#061922"/>
</g>
<defs>
<clipPath id="clip0_42_63243">
<rect width="396.827" height="520" fill="white" transform="translate(202 210)"/>
</clipPath>
</defs>
</svg>
