<svg width="800" height="800" viewBox="0 0 800 800" fill="none" xmlns="http://www.w3.org/2000/svg">
<g clip-path="url(#clip0_42_63287)">
<path d="M230.817 417.885C201.433 367.676 224.975 292.469 248.052 273.002C262.511 260.794 250.4 259.106 234.64 269.741C212.418 284.763 148.021 336.914 178.201 444.863C178.201 444.863 260.978 469.395 230.836 417.885H230.817Z" fill="#6C9BD2"/>
<path d="M178.182 444.863C178.182 444.863 185.498 447.037 194.97 448.726C182.199 422.33 175.658 392.48 173.543 362.824C169.04 385.687 169.273 412.956 178.182 444.863Z" fill="#5D87B7"/>
<path d="M680.392 484.844L636.956 472.598L626.553 492.278L638.373 530.163C639.052 522.089 641.012 490.861 700.713 507.785L680.392 484.844Z" fill="#FAF2AC"/>
<path d="M680.392 484.844L636.956 472.598L633.152 479.798C649.688 480.089 679.034 497.207 672.396 502.875C680.897 503.108 687.34 504.233 700.732 508.018L680.412 484.844H680.392Z" fill="#D4CE93"/>
<path d="M719.888 490.784C719.888 490.784 718.646 490.027 716.724 488.804L717.074 488.92C714.26 481.429 708.573 469.454 706.768 453.306C705.351 440.632 687.01 443.563 678.568 441.7C670.125 439.817 640.217 433.626 627.097 426.134C613.977 418.643 586.455 388.036 576.15 371.17L570.482 442.166L576.945 444.223C585.155 449.56 599.556 456.761 599.556 461.166C599.556 466.795 597.402 498.236 601.148 504.796C604.893 511.356 615.549 535.112 626.165 538.586C630.707 540.081 642.953 533.055 643.031 528.281C643.167 519.702 628.028 506.718 627.097 496.412C626.165 486.106 637.402 472.986 637.402 472.986C637.402 472.986 675.831 480.478 680.508 486.106C685.186 491.735 705.759 513.53 708.553 512.599C711.368 511.667 725.478 508.601 726.429 503.923C727.36 499.246 719.869 490.803 719.869 490.803L719.888 490.784Z" fill="#6C9BD2"/>
<path d="M630.998 532.065C628.941 531.813 605.942 513.996 609.571 479.643C613.181 445.31 598.722 440.652 589.173 432.908C579.624 425.164 582.205 397.022 590.881 391.005C584.864 383.766 579.585 376.701 576.189 371.131L570.521 442.127L576.984 444.184C585.194 449.521 599.595 456.256 599.595 460.662C599.595 466.29 597.441 498.217 601.187 504.777C604.933 511.337 615.588 535.093 626.204 538.567C626.359 538.625 626.534 538.625 626.709 538.664C631.27 540.566 634.181 539.615 631.017 532.046L630.998 532.065Z" fill="#5D87B7"/>
<path d="M680.819 473.452C673.599 469.318 644.409 464.408 640.799 466.484C637.189 468.542 634.86 472.676 638.431 473.18C644.506 474.403 676.297 481.021 680.528 486.106C685.205 491.735 705.778 513.53 708.573 512.599C709.971 512.133 721.344 506.504 715.405 504.971C709.466 503.419 688.039 477.605 680.8 473.471L680.819 473.452Z" fill="#5D87B7"/>
<path d="M656.287 448.921C649.824 449.949 684.41 455.733 691.707 461.711C699.102 474.326 705.584 483.215 715.657 486.864C714.745 484.555 703.973 476.442 694.444 456.956C690.232 448.339 662.731 447.873 656.268 448.901L656.287 448.921Z" fill="#5D87B7"/>
<path d="M654.928 544.273C652.987 542.099 641.711 529.483 641.711 529.483C639.829 528.358 630.183 529.852 629.426 538.489C635.054 544.117 636.335 545.476 642.061 547.553C646.059 549.008 649.999 549.26 653.589 549.377C656.248 549.455 656.869 546.466 654.928 544.292V544.273Z" fill="#EFEFEF"/>
<path d="M630.493 534.549C629.95 535.655 629.562 536.936 629.426 538.469C635.054 544.098 636.549 546.349 642.565 547.475C644.545 547.844 647.029 548.096 649.475 548.251C642.585 544.758 636.063 540.197 630.493 534.549Z" fill="#C9CACA"/>
<path d="M709.35 508.833C708.593 506.581 723.712 496.722 726.468 503.903C729.612 516.324 728.409 530.143 726.468 530.143C724.527 530.143 709.369 508.833 709.369 508.833H709.35Z" fill="#EFEFEF"/>
<path d="M716.472 502.895C712.494 504.738 708.981 507.727 709.349 508.833C709.349 508.833 718.2 519.586 724.643 529.659C725.206 528.591 727.05 529.697 727.438 528.669C722.683 520.634 718.316 512.385 716.472 502.895Z" fill="#C9CACA"/>
<path d="M375.448 590.756C358.737 588.873 354.371 592.192 354.021 594.851C353.672 597.51 373.507 605.254 373.507 605.254L375.448 590.756Z" fill="#C9CACA"/>
<path d="M386.065 570.455C386.065 570.455 411.198 567.563 423.756 572.396C415.565 576.161 398.622 583.031 395.73 587.864C388.879 587.495 377.758 586.564 373.896 590.426C370.033 594.288 365.356 605.118 377.544 608.709C383.755 610.533 394.779 611.368 394.779 611.368C394.779 611.368 432.606 630.252 452.868 653.678C458.962 660.723 479.244 704.547 488.909 711.321C498.575 718.094 512.529 707.09 514.47 699.346C516.411 691.621 490.482 661.888 484.678 652.222C485.416 643.818 494.13 640.422 501.855 642.343C509.579 644.284 535.509 659.986 549.891 671.766C564.175 683.47 585.291 665.672 581.429 656.977C579.236 652.067 560.623 633.881 519.652 619.771C520.332 614.104 530.948 616.394 540.613 616.394C550.279 616.394 583.04 626.487 591.075 624.798C598.023 623.343 604.04 611.329 594.375 601.663C584.709 591.998 536.984 596.384 516.101 589.378C519.963 580.683 533.976 568.087 517.479 545.826C496.304 517.276 450.403 508.464 442.679 499.77L386.103 570.474L386.065 570.455Z" fill="#6C9BD2"/>
<path d="M521.671 552.366C520.526 550.27 519.148 548.077 517.459 545.806C496.285 517.257 455.644 506.893 442.912 500.721L386.084 570.455C386.084 570.455 400.485 568.786 412.945 570.086C442.368 543.594 477.886 515.549 521.69 552.366H521.671Z" fill="#5D87B7"/>
<path d="M458.768 642.829C440.214 620.568 375.118 607.195 408.287 579.461C402.465 582.333 397.224 585.361 395.73 587.845C388.879 587.477 377.758 586.545 373.895 590.407C370.033 594.27 365.026 606.477 377.544 608.69C392.683 611.349 398.641 613.95 398.641 613.95C398.641 613.95 432.606 630.233 452.868 653.659C458.962 660.704 480.486 703.927 490.151 710.7C494.48 713.728 499.293 713.747 503.485 712.175C503.155 711.166 500.535 701.171 500.341 700.162C492.849 702.491 474.295 664.178 458.768 642.849V642.829Z" fill="#5D87B7"/>
<path d="M488.987 636.579C487.725 639.082 488.211 641.217 489.142 644.303C492.539 641.896 497.352 641.198 501.835 642.323C509.56 644.264 536.46 660.198 550.841 671.999C563.806 682.615 565.32 670.563 566.95 660.14C560.235 662.198 522.272 633.803 513.247 630.193C504.203 626.583 486.794 621.285 488.987 636.579Z" fill="#5D87B7"/>
<path d="M527.086 591.939C523.553 591.551 521.477 590.29 518.488 589.785C501.117 603.856 491.083 604.827 469.695 610.183C490.171 613.91 514.723 609.504 527.086 591.939Z" fill="#5D87B7"/>
<path d="M514.548 611.077C504.223 615.716 510.414 617.268 516.605 618.821C522.796 620.374 533.859 616.376 540.613 616.376C550.279 616.376 583.04 626.468 591.075 624.779C594.86 623.984 593.404 618.743 594.336 614.182C564.33 600.713 524.873 606.439 514.548 611.077Z" fill="#5D87B7"/>
<path d="M494.402 711.301C493.936 704.081 505.135 693.892 512.083 701.19C519.031 708.506 520.487 727.158 519.031 732.631C517.168 731.796 494.673 715.435 494.402 711.301Z" fill="#EFEFEF"/>
<path d="M561.438 671.573C561.807 663.538 569.842 652.922 577.528 660.239C585.214 667.556 592.453 691.215 589.503 691.564C584.69 692.146 565.262 674.659 561.438 671.573Z" fill="#EFEFEF"/>
<path d="M591.055 621.479C589.231 617.462 590.318 607.214 596.179 606.496C605.806 605.292 622.652 628.815 620.556 630.756C618.285 632.852 591.055 621.498 591.055 621.498V621.479Z" fill="#EFEFEF"/>
<path d="M495.062 711.941C495.702 715.182 503.834 721.16 512.762 728.497C508.997 719.452 505.367 709.515 499.196 702.043C497.216 704.003 494.421 708.7 495.062 711.941Z" fill="#C9CACA"/>
<path d="M565.669 661.248C563.243 664.023 561.613 668.041 561.438 671.573C561.438 671.573 572.734 679.997 581.332 686.731C577.916 677.396 573.122 668.468 565.669 661.267V661.248Z" fill="#C9CACA"/>
<path d="M590.959 611.988C589.949 615.307 590.066 619.305 591.056 621.479C591.056 621.479 606.194 626.758 616.015 629.941C609.921 621.498 600.119 617.558 590.959 611.988Z" fill="#C9CACA"/>
<path d="M549.075 633.338C530.948 622.373 515.13 619.481 515.499 618.374C516.062 616.686 529.318 601.509 581.914 618.937C576.791 626.623 570.211 642.091 572.036 647.584C572.036 647.584 566.116 643.664 549.075 633.358V633.338Z" fill="#FAF2AC"/>
<path d="M578.032 625.924C579.313 623.245 580.672 620.8 581.914 618.917C524.485 599.897 515.46 620.276 516.391 617.481C516.566 616.957 518.623 619.596 524.485 621.693C524.834 612.124 559.75 621.925 578.032 625.924Z" fill="#D4CE93"/>
<path d="M484.678 652.203C483.591 647.448 485.047 635.027 496.381 635.376C507.716 635.745 532.578 644.886 553.054 666.449C540.264 668.274 514.664 675.222 512.102 690.205L484.678 652.184V652.203Z" fill="#FAF2AC"/>
<path d="M496.362 635.377C492.713 635.26 490.113 636.483 488.25 638.327C508.318 635.086 524.524 654.805 536.654 670.312C542.651 668.332 548.59 667.09 553.015 666.469C532.539 644.906 507.677 635.765 496.343 635.396L496.362 635.377Z" fill="#D4CE93"/>
<path d="M427.152 392.014L343.948 417.885C321.687 422.718 256.999 456.488 233.767 498.1C210.535 539.711 274.233 590.018 340.998 584.215C407.763 578.412 414.498 542.467 427.074 525.058C439.651 507.649 452.228 479.584 470.627 487.328L427.171 392.033L427.152 392.014Z" fill="#6C9BD2"/>
<path d="M470.627 487.309L427.171 392.014L343.968 417.885C321.706 422.718 257.018 456.488 233.786 498.1C214.378 532.88 255.66 573.715 308.722 582.817C298.96 553.899 262.2 529.755 285.529 511.414C314.642 488.124 378.223 475.004 406.89 474.499C435.556 473.975 445.959 484.786 454.77 489.25C459.603 486.008 464.843 484.883 470.646 487.328L470.627 487.309Z" fill="#5D87B7"/>
<path d="M284.093 602.09C286.092 597.762 302.938 593.337 304.2 596.462C305.481 599.586 294.127 612.92 294.127 612.92L284.073 602.09H284.093Z" fill="#EFEFEF"/>
<path d="M284.093 602.09C285.859 596.966 303.928 593.298 304.51 596.248C305.093 599.198 294.127 612.92 294.127 612.92L284.073 602.09H284.093Z" fill="#C9CACA"/>
<path d="M275.67 606.264L273.438 599.199C273.438 599.199 281.609 588.428 311.303 570.611C340.998 552.794 240.385 476.306 210.865 537.209C196.561 567.253 192.02 567.661 182.587 582.159C174.863 594.056 168.788 625.595 189.943 639.821L189.108 640.132C181.132 652.087 170.418 656.803 156.852 663.324C140.626 671.127 128.515 682.054 121.393 690.729C112.795 701.229 118.074 707.556 122.771 713.709C127.487 719.861 132.921 717.61 141.616 712.175C150.311 706.741 143.227 706.508 172.417 677.454C177.405 672.485 193.068 667.303 205.761 666.934C200.792 677.9 186.197 693.388 176.765 701.365C167.332 709.342 164.634 720.715 163.897 733.389C163.179 746.082 175.309 745.208 182.199 744.84C189.089 744.471 194.523 735.407 202.85 718.386C211.195 701.345 231.749 676.794 234.737 681.413C237.726 686.032 239.803 691.564 240.541 699.54C241.259 707.517 233.301 738.318 236.193 748.469C239.085 758.62 255.097 760.211 260.473 757.164C267.052 753.438 270.992 742.938 269.905 732.787C268.819 722.636 265.422 692.126 267.596 677.628C269.77 663.13 278.911 652.378 282.171 641.509C285.432 630.641 287.664 633.571 291.643 625.963C295.621 618.355 297.077 611.834 292.012 605.313C289.042 601.489 284.151 598.792 275.611 606.206L275.67 606.264Z" fill="#6C9BD2"/>
<path d="M250.4 638.694C248.886 637.045 234.136 650.572 223.287 646.186C182.238 623.983 243.238 551.687 279.532 522.419C255 510.347 224.917 508.251 210.885 537.208C196.581 567.252 192.039 567.66 182.607 582.158C174.882 594.055 168.807 625.594 189.963 639.82L189.128 640.13C181.151 652.086 170.438 656.802 156.871 663.323C140.646 671.126 130.476 680.694 122.635 688.69C114.969 696.512 119.374 711.359 118.443 713.028C128.768 695.988 158.21 672.232 175.503 661.907C192.796 651.581 221.21 656.744 233.088 653.134C244.966 649.524 251.895 640.325 250.381 638.675L250.4 638.694Z" fill="#5D87B7"/>
<path d="M210.361 659.617C207.1 660.976 207.352 665.595 204.849 667.012C205.159 667.012 205.489 666.973 205.8 666.954C200.831 677.919 186.236 693.407 176.804 701.384C167.371 709.361 165.566 719.861 164.848 732.554C164.518 738.357 166.692 741.501 169.817 743.17C172.495 736.028 173.97 727.779 178.356 718.211C182.743 708.662 202.675 691.233 208.575 677.162C213.214 666.061 212.767 658.608 210.38 659.598L210.361 659.617Z" fill="#5D87B7"/>
<path d="M246.266 732.165C253.699 705.614 248.032 671.572 244.558 670.33C239.822 668.641 236.872 676.735 234.291 681.024C234.485 681.121 234.66 681.237 234.796 681.451C237.785 686.07 239.861 691.601 240.599 699.578C241.317 707.555 233.359 738.356 236.251 748.507C237.416 752.582 240.715 755.261 244.577 756.833C246.188 749.283 241.783 748.196 246.266 732.165Z" fill="#5D87B7"/>
<path d="M261.23 617.52C268.838 616.666 273.826 616.472 278.503 610.669C283.181 604.865 285.316 605.739 289.857 603.138C286.81 600.848 282.366 600.421 275.67 606.243L273.884 600.576C266.761 606.34 264.859 609.252 261.249 617.52H261.23Z" fill="#5D87B7"/>
<path d="M398.35 377.614C385.424 376.003 368.461 371.966 352.294 365.503C336.146 359.04 321.493 348.036 310.973 348.036C297.523 348.036 298.009 347.104 286.849 361.447C281.201 368.725 234.175 413.908 218.279 428.6C186.391 443.486 174.319 443.719 161.723 447.911C148.972 452.162 146.973 462.021 141.325 471.725C135.677 481.41 127.196 490.998 120.422 498.004C109.709 509.086 113.338 520.013 123.042 524.865C132.747 529.717 140.122 524.943 141.752 518.48C143.363 512.017 153.863 489.329 165.974 484.477C178.084 479.624 193.126 481.837 193.126 481.837C193.126 481.837 180.2 507.689 176.163 519.004C172.126 530.319 165.76 550.29 174.63 555.938C183.499 561.586 193.456 561.334 199.123 550.019C204.771 538.703 209.759 509.125 227.188 494.239C251.429 490.202 255.873 505.748 259.93 516.248C263.966 526.748 255.349 545.652 261.812 554.541C268.275 563.43 281.667 566.652 286.519 561.004C296.087 549.844 286.965 540.703 289.275 522.226C290.886 509.3 294.011 495.19 287.548 488.727C281.085 482.264 269.362 464.331 270.973 444.942C277.436 431.201 308.276 408.92 314.778 408.551C329.547 407.716 352.701 422.797 359.98 428.445C367.258 434.092 378.515 444.204 405.609 442.244C432.703 440.284 398.33 377.614 398.33 377.614H398.35Z" fill="#6C9BD2"/>
<path d="M398.35 377.614C385.424 376.003 368.461 371.966 352.294 365.503C336.146 359.04 324.016 349.336 313.516 349.336C299.988 349.336 296.301 349.297 286.849 361.447C281.201 368.725 234.175 413.908 218.279 428.6C186.391 443.486 174.319 443.719 161.723 447.911C148.972 452.161 146.973 462.021 141.325 471.725C135.677 481.41 127.196 490.998 120.422 498.004C110.679 508.077 113.513 514.579 121.257 519.955C127.041 496.529 161.529 453.85 174.455 452.045C187.362 450.24 227.382 449.211 251.409 418.488C264.083 402.282 299.697 361.738 315.962 370.452C389.034 409.696 400.912 432.171 391.363 441.972C394.468 442.108 401.96 442.535 405.609 442.263C432.703 440.303 398.331 377.633 398.331 377.633L398.35 377.614Z" fill="#5D87B7"/>
<path d="M185.712 481.331C190.137 481.389 193.165 481.816 193.165 481.816C193.165 481.816 180.239 507.668 176.202 518.983C172.165 530.298 165.799 550.269 174.669 555.917C175.523 556.461 181.617 538.333 182.49 538.76C175.27 534.374 207.022 476.537 203.141 466.988C206.246 450.2 194.193 477.43 185.712 481.331Z" fill="#5D87B7"/>
<path d="M236.387 493.657C252.69 494.53 256.475 507.243 259.949 516.248C263.986 526.748 255.369 545.652 261.832 554.541C266.043 560.325 268.081 558.306 273.884 558.403C264.588 547.554 279.047 508.834 258.649 493.851C251.371 488.514 244.694 489.698 236.368 493.657H236.387Z" fill="#5D87B7"/>
<path d="M162.053 486.32C169.855 481.119 194.349 481.856 194.349 481.856C194.349 481.856 174.048 515.18 171.951 535.462C166.517 518.984 155.377 508.252 141.771 513.783C141.771 513.783 154.251 491.502 162.053 486.301V486.32Z" fill="#FAF2AC"/>
<path d="M194.349 481.875C194.349 481.875 192.272 481.816 189.128 481.855C178.609 493.888 163.373 513.995 163.878 520.458C167.643 524.534 169.758 528.92 171.932 535.48C174.028 515.199 194.329 481.875 194.329 481.875H194.349Z" fill="#D4CE93"/>
<path d="M261.56 519.004C261.56 519.004 253.389 501.556 249.682 498.586C245.975 495.617 235.203 490.784 225.926 494.491C216.649 498.198 200.016 546.098 200.016 546.098C212.767 538.451 235.727 529.523 259.522 545.671L261.56 518.984V519.004Z" fill="#FAF2AC"/>
<path d="M261.56 519.003C261.56 519.003 253.389 501.555 249.682 498.586C247.586 496.897 243.199 494.627 238.115 493.637C247.896 507.3 254.767 515.277 251.002 540.915C253.816 542.177 256.669 543.749 259.522 545.69L261.56 519.003Z" fill="#D4CE93"/>
<path d="M119.238 511.667C107.477 520.497 110.175 538.372 115.57 548.756C121.529 540.682 128.166 530.803 131.99 525.699C134.105 516.771 126.031 506.562 119.238 511.667Z" fill="#EFEFEF"/>
<path d="M174.921 545.245C171.583 551.707 170.884 565.72 174.28 578.472C181.927 569.117 192.039 559.16 192.777 552.891C194.057 541.848 181.733 532.066 174.921 545.245Z" fill="#EFEFEF"/>
<path d="M266.528 552.598C266.101 566.204 269.672 577.829 271.516 585.67C281.298 576.742 287.567 559.702 285.878 553.317C284.17 546.931 266.8 544.253 266.528 552.598Z" fill="#EFEFEF"/>
<path d="M181.442 539.131C179.113 539.713 176.804 541.596 174.921 545.264C171.583 551.727 170.244 566.516 173.64 579.267C173.854 579.015 174.067 578.763 174.281 578.491C173.562 565.371 176.726 552.251 181.442 539.131Z" fill="#C9CACA"/>
<path d="M266.14 552.717C265.965 558.073 267.926 562.498 268.197 567.234C268.605 560.538 270.022 553.823 273.205 547.127C270.352 547.476 266.237 549.631 266.14 552.717Z" fill="#C9CACA"/>
<path d="M477.575 498.916C464.397 487.019 449.937 473.84 438.04 468.736C426.143 463.632 423.581 454.277 422.319 439.41C421.038 424.524 413.644 406.144 403.513 388.152C392.12 367.909 359.824 320.825 355.574 314.439C351.324 308.054 357.282 309.762 363.221 311.897C369.179 314.032 431.655 336.119 431.655 336.119C431.655 336.119 433.77 255.787 433.363 249.402C432.683 239.251 435.187 239.446 441.01 247.694C446.114 254.914 490.734 322.94 493.723 325.91C497.119 321.659 516.256 261.726 519.225 255.341C524.407 244.22 525.145 248.412 527.726 257.049C530.269 265.55 546.009 331.441 547.27 336.119C554.49 325.483 582.128 297.011 585.097 293.614C588.067 290.218 591.056 290.218 590.202 298.292C589.348 306.366 578.304 366.299 574.908 383.3C571.511 400.302 575.742 404.941 577.431 417.692C579.139 430.443 572.637 447.484 559.498 464.874L477.575 498.896V498.916Z" fill="#6C9BD2"/>
<path d="M581.934 297.049C573.802 305.705 553.617 326.938 547.406 335.943C548.513 340.659 550.434 349.257 552.491 353.12C554.549 357.001 572.889 314.924 581.914 297.049H581.934Z" fill="#5D87B7"/>
<path d="M524.194 250.78C522.583 250.061 520.914 251.75 519.245 255.36C516.469 261.318 499.545 314.167 494.596 324.434C499.118 330.975 510.938 335.846 513.015 335.07C515.072 334.294 522.564 255.282 524.213 250.799L524.194 250.78Z" fill="#5D87B7"/>
<path d="M431.694 346.055C439.321 356.186 449.53 364.046 451.024 361.387C456.827 351.062 434.508 245.189 439.515 245.791C435.342 241.075 432.994 243.695 433.382 249.401C433.809 255.786 431.674 336.118 431.674 336.118C431.674 336.118 410.48 329.616 409.238 329.169C412.654 332.449 420.922 340.853 431.694 346.074V346.055Z" fill="#5D87B7"/>
<path d="M480.447 454.334C474.625 448.512 459.622 429.744 453.8 421.981C441.514 422.544 451.471 403.446 440.427 393.664C426.744 381.534 356.001 314.4 358.66 310.421C354.837 309.432 352.469 309.762 355.574 314.439C359.824 320.824 392.586 368.938 403.978 389.181C414.11 407.172 421.038 424.523 422.3 439.409C423.581 454.276 426.123 463.631 438.021 468.735C449.918 473.84 464.377 487.018 477.556 498.915L498.769 487.911C489.589 472.462 488.851 466.911 480.428 454.354L480.447 454.334Z" fill="#5D87B7"/>
<path d="M515.402 450.454C510.705 456.335 508.182 464.059 497.546 467.883C486.91 471.706 475.867 472.987 473.324 480.634C470.782 488.281 475.032 490.843 482.252 508.679C489.472 526.535 494.15 532.493 495.004 540.14C495.858 547.787 511.578 555.861 522.214 561.392C532.85 566.924 537.818 570.087 543.466 573.717C554.024 580.49 561.303 563.508 566.407 549.068C571.511 534.609 569.823 521.857 566.407 508.252C563.011 494.647 563.011 476.791 562.584 471.279C562.157 465.748 555.791 462.351 548.124 460.236C540.458 458.12 539.196 454.277 533.258 447.485C528.095 441.584 520.506 444.088 515.402 450.454Z" fill="#FAF2AC"/>
<path d="M525.63 488.939C528.987 480.671 525.96 456.799 525.96 444.164C522.233 444.319 518.39 446.707 515.402 450.452C512.257 454.373 510.084 459.128 505.794 463.01C511.423 470.443 522.272 497.207 525.63 488.939Z" fill="#D4CE93"/>
<path d="M510.918 539.286C501.622 532.57 498.497 491.677 489.996 470.6C481.282 473.259 475.42 474.287 473.305 480.634C470.762 488.281 475.013 490.843 482.233 508.679C489.453 526.534 494.13 532.493 494.984 540.14C495.838 547.787 511.559 555.861 522.195 561.392C532.83 566.923 537.799 570.087 543.447 573.716C558.158 575.676 529.589 552.755 510.918 539.286Z" fill="#D4CE93"/>
<path d="M502.146 449.385C499.273 442.359 472.645 425.144 453.8 421.98C453.683 426.483 457.546 440.807 460.243 447.075C463.349 454.334 465.328 455.984 468.725 456.236C474.392 456.663 495.702 456.896 502.146 449.385Z" fill="white"/>
<path d="M499.235 450.258C499.545 449.948 500.904 448.919 501.195 448.589C496.964 438.245 463.659 422.369 453.159 422.291C453.101 424.542 453.916 427.745 455.061 430.074C469.967 431.102 493.315 443.174 499.235 450.278V450.258Z" fill="#DCDDDD"/>
<path d="M556.858 443.931C563.903 436.789 565.398 418.137 564.815 414.547C556.412 419.205 542.418 437.876 542.127 445.406C549.502 447.153 553.753 447.075 556.858 443.931Z" fill="white"/>
<path d="M564.641 422.408C564.563 418.429 565.126 414.023 565.126 414.023C560.002 416.876 548.202 428.619 543.447 442.263C548.571 433.723 557.731 426.367 564.641 422.427V422.408Z" fill="#DCDDDD"/>
<path d="M472.606 427.921C471.869 430.968 471.636 435.005 472.063 439.411C472.936 448.455 476.275 455.52 479.516 455.209C482.757 454.898 484.698 447.31 483.824 438.265C483.669 436.655 483.436 435.102 483.126 433.646C482.776 431.977 472.859 426.912 472.606 427.921Z" fill="#E73656"/>
<path d="M483.203 432.443C480.797 430.676 475.925 428.658 472.742 427.707C471.772 429.842 471.655 431.938 471.578 435.703C474.605 433.238 481.127 435.878 484.601 439.604C484.251 436.305 484.096 434.908 483.203 432.443Z" fill="#C82D4A"/>
<path d="M544.941 438.556C545.523 442.923 547.212 445.815 549.017 445.931C554.587 446.261 555.072 431.453 554.412 424.679C554.335 423.864 544.844 437.722 544.941 438.556Z" fill="#E73656"/>
<path d="M554.49 432.442C554.49 429.667 554.587 427.085 554.044 425.145C550.162 429.337 547.27 433.645 544.786 437.857C544.786 438.109 545.543 442.088 545.562 442.34C547.717 436.654 552.142 432.151 554.49 432.442Z" fill="#C82D4A"/>
<path d="M533.49 418.896C533.49 424.233 529.143 428.58 523.805 428.58C518.468 428.58 514.121 424.233 514.121 418.896C514.121 413.558 518.468 409.211 523.805 409.211C529.143 409.211 533.49 413.539 533.49 418.896Z" fill="#E73656"/>
<path d="M514.101 418.895C514.101 424.232 518.449 428.58 523.786 428.58C524.99 428.58 526.115 428.328 527.163 427.939C521.263 425.28 515.499 420.351 516.275 412.82C514.917 414.489 514.082 416.586 514.082 418.895H514.101Z" fill="#C82D4A"/>
<path d="M525.067 415.188C525.067 417.032 523.573 418.507 521.748 418.507C519.924 418.507 518.43 417.012 518.43 415.188C518.43 413.364 519.924 411.869 521.748 411.869C523.573 411.869 525.067 413.364 525.067 415.188Z" fill="white"/>
<path d="M206.615 666.779C196.581 667.885 178.337 671.864 172.456 677.551C153.63 695.756 146.954 705.771 146.954 705.771C150.583 706.489 161.005 712.641 164.13 724.228C166.886 703.519 187.304 699.443 206.615 666.76V666.779Z" fill="#FAF2AC"/>
<path d="M191.515 669.943C197.978 674.077 171.233 700.103 157.939 714.038C160.695 716.853 163.043 720.249 164.13 724.228C166.886 703.519 202.19 684.46 205.217 667.361C201.413 667.788 196.658 668.836 191.535 669.943H191.515Z" fill="#D4CE93"/>
<path d="M235.533 740.898C219.56 729.409 198.58 731.291 193.572 733.484C194.426 712.116 227.847 683.838 234.796 680.732C247.819 702.043 235.475 721.082 235.514 740.898H235.533Z" fill="#FAF2AC"/>
<path d="M234.796 680.732C233.573 681.276 232.35 681.916 231.128 682.634C239.279 701.693 230.021 718.734 222.782 734.882C227.518 736.396 232.02 738.375 235.514 740.898C235.475 721.082 247.819 702.043 234.796 680.732Z" fill="#D4CE93"/>
<path d="M126.419 694.882C119.452 700.103 109.301 725.974 112.736 727.507C116.191 729.06 135.832 710.447 140.18 709.36C141.267 698.841 133.659 689.428 126.4 694.862L126.419 694.882Z" fill="#EFEFEF"/>
<path d="M168.109 735.465C162.131 748.216 166.828 771.118 168.943 771.021C170.962 770.924 185.149 747.789 186.605 742.355C187.692 733.66 173.562 723.878 168.128 735.465H168.109Z" fill="#EFEFEF"/>
<path d="M239.881 751.05C241.977 744.781 256.184 737.639 261.269 750.332C266.334 763.025 249.274 783.074 246.654 781.793C244.034 780.512 239.143 753.244 239.881 751.07V751.05Z" fill="#EFEFEF"/>
<path d="M126.42 694.881C120.519 699.307 114.231 712.621 112.446 723.645C116.211 712.427 125.177 703.421 132.533 693.581C130.612 693.018 128.496 693.329 126.42 694.881Z" fill="#C9CACA"/>
<path d="M168.109 735.464C164.984 742.141 164.615 753.437 165.954 762.461C167.662 751.224 171.369 740.666 175.29 730.166C172.534 730.205 169.855 731.719 168.109 735.464Z" fill="#C9CACA"/>
<path d="M245.567 745.072C242.792 746.586 240.599 748.876 239.881 751.05C239.318 752.739 241.802 768.789 244.306 777.445C243.995 766.616 243.724 756.174 245.567 745.072Z" fill="#C9CACA"/>
<path d="M575.684 375.809C585.912 392.539 614.54 421.322 627.931 428.969C640.294 436.034 665.933 440.303 676.142 442.555C676.142 442.555 683.187 443.681 686.098 443.875C694.696 444.418 703.449 445.33 704.4 453.753C705.934 467.417 709.66 473.531 712.804 486.359L718.355 488.456L716.162 484.477C713.153 476.927 709.252 465.806 707.758 452.511C706.555 441.817 694.987 441.701 686.273 441.157C683.478 440.983 676.743 439.896 676.743 439.896C666.632 437.683 639.79 431.803 627.796 424.951C614.714 417.479 587.407 387.493 577.334 371.016L575.703 375.848L575.684 375.809Z" fill="#0E141B"/>
<path d="M230.099 269.975C214.902 278.999 144.896 335.517 173.834 445.271L179.501 444.475C149.244 336.176 219.25 282.124 233.69 272.556C247.295 263.531 256.611 260.872 246.441 271.158C212.709 305.259 204.189 373.965 227.925 420.525L231.826 415.654C210.419 374.178 217.037 311.489 247.741 276.34C265.112 256.466 253.622 256.02 230.118 269.994L230.099 269.975Z" fill="#0E141B"/>
<path d="M647.942 507.145C642.779 510.717 640.139 515.53 638.723 520.052C639.421 520.848 640.178 521.585 640.916 522.342C642.061 517.859 645.03 513.453 650.135 509.921C660.382 502.817 678.257 502.487 704.517 509.921L703.974 507.805C676.899 500.12 658.888 499.557 647.942 507.145Z" fill="#0E141B"/>
<path d="M626.611 537.267C618.246 534.531 609.454 517.626 604.738 508.562L602.351 504.098C599.576 499.246 600.585 479.353 601.051 469.804L601.342 461.827C601.769 454.044 588.377 449.988 573.588 440.381L572.113 444.806C578.323 448.843 597.984 456.645 597.984 460.371L598.198 472.773C597.46 487.407 595.092 498.373 598.004 503.497L600.954 509.591C606.194 519.683 614.093 537.345 625.971 540.936C627.213 541.304 628.863 541.13 630.687 540.528C630.066 539.441 629.562 538.393 629.232 537.248C628.164 537.461 627.252 537.481 626.611 537.287V537.267Z" fill="#0E141B"/>
<path d="M640.198 516.733C635.908 510.173 628.106 499.129 628.417 495.151C629.096 486.766 637.927 473.316 640.663 468.057C643.4 462.797 643.206 462.079 638.14 467.843C633.075 473.607 624.749 485.776 625.719 496.548C626.34 503.302 631.619 509.164 636.199 516.422C640.353 522.963 641.44 525.292 638.955 528.785C640.45 528.882 641.944 529.096 643.458 529.523C643.846 527.543 645.205 524.419 640.198 516.752V516.733Z" fill="#0E141B"/>
<path d="M710.339 510.657C710.339 510.657 708.185 510.114 703.973 507.377C699.762 504.641 687.243 492.006 681.576 485.232C676.744 479.429 642.565 472.054 639.188 471.414C635.831 470.792 632.454 474.771 636.452 474.577C640.45 474.383 676.297 483.214 679.461 486.998C679.694 487.29 697.025 511.802 710.902 514.325C715.774 515.218 710.436 510.638 710.32 510.657H710.339Z" fill="#0E141B"/>
<path d="M720.607 489.6C715.754 485.505 702.169 476.79 698.636 469.745L697.355 467.067C694.522 461.011 691.649 457.964 679.81 455.014C667.738 452.006 649.106 445.349 646.156 443.874C643.206 442.399 643.419 444.301 646.37 446.183C649.32 448.085 667.796 455.325 680.14 458.411C690.737 461.05 692.212 464.214 694.871 469.92L696.191 472.656C699.975 480.226 716.104 488.921 718.996 491.832C724.197 497.072 723.867 498.528 724.488 501.614C727.438 502.875 726.914 510.522 728.389 504.641C729.864 498.761 725.459 493.714 720.607 489.6Z" fill="#0E141B"/>
<path d="M627.64 537.655C627.349 539.577 627.408 540.528 627.408 540.528C633.327 546.544 641.304 550.872 650.212 550.872C660.382 550.872 660.247 547.903 655.996 542.798C651.552 537.461 643.517 528.533 641.712 527.64C639.615 526.592 628.766 530.105 627.64 537.636V537.655ZM641.517 531.134C642.624 531.6 649.455 540.004 653.415 544.176C656.229 547.146 656.695 548.757 650.193 548.136C643.536 547.495 634.763 544.953 630.92 538.024C629.329 535.132 637.519 529.445 641.517 531.134Z" fill="#0E141B"/>
<path d="M714.318 502.43C710.65 504.409 705.448 508 708.418 510.95C711.193 513.725 717.792 521.624 721.693 527.175C726.118 533.483 728.874 533.25 729.728 525.7C730.388 519.819 729.864 511.726 727.807 503.555C726.429 499.984 720.393 499.15 714.318 502.43ZM725.167 504.39C725.963 507.553 727.166 516.074 726.972 522.42C726.759 528.786 725.711 528.223 722.78 524.147C717.307 516.598 711.31 510.445 711.853 508.66C712.785 505.613 723.77 500.76 725.187 504.39H725.167Z" fill="#0E141B"/>
<path d="M356.661 591.009C349.247 593.57 350.47 595.55 355.962 598.364C361.455 601.179 372.925 606.516 372.925 606.516L370.208 601.877C370.208 601.877 362.483 598.675 357.709 596.501C355.341 595.414 354.041 594.25 358.078 593.318C362.115 592.387 368.694 591.533 372.886 591.882L376.729 588.563C370.868 588.097 361.882 589.242 356.68 591.047L356.661 591.009Z" fill="#0E141B"/>
<path d="M443.727 499.906L441.184 503.303C448.617 505.632 476.468 516.694 487.842 523.429C487.318 521.682 486.968 519.936 486.425 518.169C476.468 512.425 451.568 502.138 443.727 499.887V499.906Z" fill="#0E141B"/>
<path d="M515.867 696.086C514.276 688.148 485.726 651.932 481.612 647.449C478.778 644.382 477.381 645.527 481.204 650.554C487.395 658.706 488.172 659.909 491.704 664.916C499.351 675.727 513.732 694.553 512.587 699.812C513.364 701.229 514.897 703.539 515.867 704.645C516.003 703.5 516.605 699.812 515.867 696.105V696.086Z" fill="#0E141B"/>
<path d="M489.724 709.845C483.902 705.77 474.198 688.263 465.872 672.154C461.136 662.994 456.264 655.502 453.897 652.765C433.673 629.378 402.193 614.123 397.36 610.552C392.527 606.981 388.18 605.409 392.139 609.892C388.238 608.961 384.046 609.174 377.932 607.369C374.187 606.263 372.789 604.322 372.129 601.702C371.12 597.743 372.944 593.298 374.866 591.377C378.029 588.213 386.744 588.718 393.168 589.086C393.168 589.086 388.122 598.131 394.216 591.61C400.31 585.088 415.099 577.073 424.706 574.161C432.082 575.889 435.129 576.743 439.631 578.373C444.134 580.003 448.055 578.315 428.724 571.619C411.295 565.583 394.837 567.407 393.789 567.524L386.2 571.813C386.433 571.794 406.074 569.581 418.865 572.725C418.496 572.88 405.939 576.219 395.012 586.641C390.257 585.729 379.349 583.691 372.634 588.504C370.285 590.193 368.286 595.666 368.286 599.975C368.286 604.516 370.926 608.572 376.554 610.222C382.59 612.008 393.808 613.23 395.012 613.522C405.822 621.052 431.868 632.484 449.666 653.076C451.859 655.599 458.865 665.944 463.62 675.919C471.519 692.475 481.262 708.758 487.59 713.184C490.016 714.872 493.354 715.221 496.673 714.969C496.149 713.96 495.023 712.951 494.615 711.961C492.849 711.611 490.908 710.719 489.686 709.845H489.724Z" fill="#0E141B"/>
<path d="M564.621 674.852C562.06 674.522 552.957 672.891 547.639 667.477C546.067 667.787 543.699 668.466 542.244 669.146C555.053 678.035 564.194 678.403 568.251 677.142C566.582 676.191 565.883 676.23 564.621 674.852Z" fill="#0E141B"/>
<path d="M580.692 653.076C576.034 646.962 545.213 625.904 514.199 616.763C506.435 614.473 505.989 616.53 514.199 618.879C528.231 622.915 586.708 651.873 578.751 660.975C579.974 661.732 581.119 662.586 582.089 663.576C582.652 661.732 584.573 658.161 580.692 653.076Z" fill="#0E141B"/>
<path d="M579.741 622.547C579.158 623.42 578.77 624.488 578.421 625.575C586.301 627.438 595.481 628.311 597.441 623.964C595.927 623.343 596.024 623.207 594.685 622.838C591.677 625.128 587.679 623.964 579.741 622.547Z" fill="#0E141B"/>
<path d="M595.384 600.033C584.69 591.668 555.441 593.609 533.723 591.668C525.222 590.911 522.699 589.921 516.819 587.379C516.353 588.291 514.742 590.115 514.082 590.911C538.711 599.645 590.92 590.911 595.539 606.283C597.13 606.302 598.45 606.399 599.848 606.748C599.207 605.215 597.13 601.392 595.364 600.014L595.384 600.033Z" fill="#0E141B"/>
<path d="M527.551 564.069C525.106 562.827 524.271 562.594 522.816 561.391C522.098 596.986 487.648 605.467 467.191 609.853C460.573 611.27 462.786 612.435 467.191 612.027C515.266 607.505 528.464 581.672 527.551 564.069Z" fill="#0E141B"/>
<path d="M505.193 697.134C495.372 699.094 492.422 708.236 492.636 711.943C492.83 715.164 507.774 726.188 513.985 731.021C519.594 735.388 521.651 733.835 521.418 726.984C520.914 711.904 517.226 703.675 513.247 699.502C510.88 696.998 508.026 696.552 505.193 697.134ZM505.465 700.55C507.425 700.259 509.346 700.298 511.093 702.141C516.139 707.459 518.488 723.879 518.177 727.159C517.867 730.419 518.294 730.633 515.557 728.323C512.82 726.014 497.061 714.097 496.343 711.477C494.984 706.528 501.99 701.093 505.465 700.569V700.55Z" fill="#0E141B"/>
<path d="M569.105 657.017C562.195 659.792 558.876 669.263 559.478 672.563C559.963 675.319 572.365 682.655 583.195 690.108C590.861 695.368 592.239 694.397 591.288 686.071C590.085 675.687 585.33 665.071 578.654 658.705C575.801 655.988 572.307 655.736 569.105 657.017ZM570.133 659.578C572.326 658.686 574.5 659.249 576.577 661.248C582.865 667.225 586.999 678.249 588.494 686.808C589.153 690.535 587.775 690.011 584.03 687.294C579.042 683.664 563.457 673.397 562.913 670.991C562.312 668.293 566.523 661.015 570.094 659.578H570.133Z" fill="#0E141B"/>
<path d="M619.275 624.118C612.075 612.201 601.711 604.516 596.878 604.69C594.665 604.768 591.987 606.767 590.706 609.038C588.455 613.055 588.144 619.266 590.318 622.507C592.492 625.749 604.583 627.922 613.763 630.911C623.72 634.152 622.613 629.65 619.256 624.118H619.275ZM596.354 607.854C599.847 606.845 611.318 616.394 617.043 624.895C620.11 629.455 618.576 629.32 615.51 628.33C606.951 625.554 593.229 622.371 592.181 620.411C591.133 618.451 590.57 609.504 596.354 607.854Z" fill="#0E141B"/>
<path d="M513.461 617.87C513.461 617.87 518.08 619.811 516.256 619.17C520.739 615.405 537.1 605.779 580.905 619.908C576.266 624.547 570.386 639.452 570.386 646.594C570.386 647.642 573.18 649.68 573.18 649.68C571.143 643.567 579.352 625.032 582.943 621.034C584.612 619.17 586.689 618.685 580.711 616.764C534.111 601.742 515.868 614.396 513.461 617.87Z" fill="#0E141B"/>
<path d="M483.165 651.718L486.522 654.474C485.862 651.64 485.746 643.469 488.638 639.937C490.462 637.724 493.044 636.637 496.324 636.754C506.61 637.084 529.939 645.313 550.085 665.537C540.769 667.206 513.539 673.475 510.725 689.991L511.87 693.485C514.373 678.831 538.013 670.447 553.015 668.409C555.597 668.06 556.295 667.846 554.025 665.517C533.141 643.896 507.464 634.367 496.401 634.017C492.287 633.881 481.651 636.113 483.145 651.718H483.165Z" fill="#0E141B"/>
<path d="M345.753 418.605L341.173 416.354C327.354 419.362 299.911 431.376 271.749 453.482C271.807 455.093 272.467 457.654 273.011 459.246C300.396 437.916 332.032 421.594 345.753 418.605Z" fill="#0E141B"/>
<path d="M461.602 484.516C452.305 485.583 443.96 494.86 434.042 510.232C416.303 537.617 404.308 576.142 341.309 582.295C327.296 583.654 312.798 582.373 299.057 578.957C297.795 579.752 296.048 581.13 295.059 582.004C308.974 585.808 325.122 588.079 341.212 586.798C400.951 582.043 416.943 549.65 434.682 517.704C443.183 504.564 452.752 488.3 463.387 487.466C462.475 486.495 461.233 485.525 461.602 484.554V484.516Z" fill="#0E141B"/>
<path d="M300.338 594.444C287.315 594.832 281.259 600.228 279.163 602.343L285.063 603.061L285.316 602.809C287.16 600.946 292.07 597.413 300.28 597.181C303.501 597.084 303.404 597.938 302.55 598.889C298.261 603.585 293.933 608.321 293.72 608.748L295.098 612.998C295.156 612.901 301.599 605.06 305.054 600.344C307.616 596.851 308.14 594.211 300.357 594.444H300.338Z" fill="#0E141B"/>
<path d="M186.178 742.026C185.887 744.102 185.13 745.946 184.198 747.635C189.012 746.916 192.602 741.89 197.202 733.078C196.251 732.826 195.28 732.438 194.291 731.875C191.36 736.844 188.759 740.221 186.178 742.006V742.026Z" fill="#0E141B"/>
<path d="M236.212 680.15C236.212 680.15 233.437 681.082 233.437 682.169C236.969 687.448 240.773 693.038 236.911 717.104C235.494 725.857 233.418 736.318 233.088 743.344C232.661 752.466 237.144 754.465 240.385 757.473C240.23 756.057 238.697 754.484 239.784 752.893C235.863 747.983 236.096 741.131 239.9 717.55C242.637 700.587 241.181 690.049 236.212 680.17V680.15Z" fill="#0E141B"/>
<path d="M133.775 713.902C131.757 715.823 129.525 717.415 127.177 718.676C135.483 718.929 146.663 711.359 149.574 708.176C148.565 707.555 146.857 706.158 145.867 705.809C143.014 711.165 136.221 712.699 133.756 713.902H133.775Z" fill="#0E141B"/>
<path d="M186.896 638.676C179.016 653.368 170.69 654.688 156.017 661.17C137.948 669.127 127.798 680.831 120.733 689.448C114.212 697.405 114.639 703.364 116.133 708.235C117.434 705.576 118.152 704.237 119.588 701.811C119.2 697.25 122.15 693 125.352 689.099C132.262 680.675 146.934 668.798 159.414 663.654C171.893 658.511 184.062 653.737 190.273 640.908L186.896 638.676Z" fill="#0E141B"/>
<path d="M293.933 604.069C290.207 599.256 280.813 598.499 275.243 604.516L276.038 608.087C281.939 601.721 288.072 602.458 290.983 606.185C295.719 612.279 294.205 618.257 290.498 625.36C288.964 628.291 287.567 629.708 285.995 631.26C287.897 619.072 284.015 627.98 280.658 639.548C277.3 651.115 267.421 664.934 266.004 674.347C264.471 684.517 265.034 708.971 267.518 731.99C268.857 744.508 267.518 748.875 261.948 754.406C261.89 755.649 262.433 756.774 262.259 758.036C270.798 752.077 273.244 744.605 271.982 734.688C269.44 714.755 268.256 691.698 268.799 681.664C269.731 664.158 276.155 663.323 285.607 636.792C293.7 628.893 302.686 615.307 293.972 604.069H293.933Z" fill="#0E141B"/>
<path d="M205.761 665.594C188.507 668.777 177.658 672.232 171.68 676.347C168.982 678.21 148.39 700.18 145.789 703.15C143.188 706.119 144.702 706.701 148.797 708.37C152.893 710.04 159.239 715.59 162.907 724.809C161.49 732.67 162.209 738.22 165.333 741.287C165.566 739.87 165.954 738.55 166.672 737.289C163.975 731.932 166.459 712.407 180.608 700.452C187.925 694.261 204.965 676.114 208.536 667.322C211.215 660.703 211.525 656.667 205.8 665.633L205.761 665.594ZM175.911 700.355C169.7 705.614 166.129 712.407 164.13 719.472C161.199 712.097 155.26 707.051 149.535 705.304C149.069 702.645 170.962 680.189 173.252 678.617C178.803 674.813 192.544 669.806 204.053 668.836C198.347 679.53 184.315 693.271 175.95 700.355H175.911Z" fill="#0E141B"/>
<path d="M192.097 732.146C192.136 735.853 192.33 735.407 195.377 734.514C208.012 730.865 224.684 733.233 234.971 742.685L236.446 739.89C211.176 721.53 195.397 734.359 195.222 730.38C194.756 718.89 217.619 693.698 238.173 679.996C241.783 677.589 242.346 675.183 234.602 679.55C220.938 687.255 191.826 712.854 192.078 732.146H192.097Z" fill="#0E141B"/>
<path d="M125.604 693.777C117.569 698.978 111.688 714.291 110.912 722.055C110.155 729.76 111.456 732.166 118.87 727.605C126.749 722.753 140.626 714.369 142.024 709.847C143.809 704.005 139.404 695.64 134.726 693C131.757 691.312 128.651 691.797 125.585 693.777H125.604ZM114.095 721.045C116.036 711.923 122.247 699.716 127.254 695.97C129.272 694.456 131.388 694.262 133.387 695.388C136.706 697.27 139.792 704.063 138.918 707.421C138.297 709.808 125.643 718.93 118.423 723.724C113.61 726.926 112.911 726.557 114.076 721.065L114.095 721.045Z" fill="#0E141B"/>
<path d="M165.663 734.165C161.704 742.608 162.616 756.524 165.469 766.577C167.759 774.593 170.457 774.729 174.009 767.567C176.124 763.297 179.521 758.154 181.578 755.049C184.897 750.041 187.575 746.121 188.313 743.326C189.089 737.154 183.441 730.633 178.22 729.197C169.933 726.926 165.663 734.165 165.663 734.165ZM167.817 764.559C167.196 760.949 166.614 756.058 166.614 752.351C166.614 746.16 167.449 740.085 169.351 736.028C171.699 731.002 175.445 731.235 177.463 731.817C181.326 732.943 185.401 737.193 185.266 741.346C185.149 745.5 179.754 751.846 176.706 756.465C175.154 758.814 173.291 762.288 171.777 765.044C169.428 769.353 168.71 769.721 167.817 764.539V764.559Z" fill="#0E141B"/>
<path d="M251.623 741.928C246.15 742.084 240.055 746.14 238.561 750.623C237.358 754.253 240.075 766.325 242.171 774.729C244.481 784.045 246.771 786.665 252.807 778.591C262.841 765.199 265.772 757.94 262.53 749.808C260.434 744.568 256.553 741.773 251.623 741.909V741.928ZM251.7 744.684C257.814 744.956 260.182 750.662 260.861 755.67C261.599 761.22 255.97 769.314 251.293 775.369C247.974 779.678 246.887 780.842 245.354 775.078C243.704 768.887 240.444 755.573 241.142 752.098C241.647 749.634 247.023 744.82 251.7 744.684Z" fill="#0E141B"/>
<path d="M179.365 583.361C172.534 594.463 169.06 612.843 176.376 628.932C181.461 640.15 192.155 646.477 206.789 648.573C232.428 652.242 243.762 643.857 248.304 640.499C252.845 637.142 254.088 635.046 247.722 638.287C241.336 641.509 232.622 648.418 208.187 644.925C194.349 642.945 184.916 636.637 180.161 626.176C174.183 612.998 176.279 597.762 184.936 583.225C190.253 574.278 204.208 560.421 212.321 539.557L206.77 542.448C202.791 555.122 188.332 568.805 179.385 583.342L179.365 583.361Z" fill="#0E141B"/>
<path d="M278.174 612.223C282.308 614.726 281.065 612.417 278.756 610.107C276.446 607.797 276.174 602.538 277.087 597.084L272.875 599.394C271.633 606.07 274.04 609.719 278.193 612.223H278.174Z" fill="#0E141B"/>
<path d="M260.434 615.521C258.784 620.838 261.113 619.577 263.19 616.006C275.184 595.394 309.246 573.948 312.604 572.473C315.961 570.998 318.97 568.028 311.342 570.163C299.348 573.521 265.907 597.917 260.434 615.521Z" fill="#0E141B"/>
<path d="M115.978 513.22C114.639 508.058 118.19 502.973 122.79 498.218C132.184 488.494 136.764 483.409 141.364 475.529L145.867 466.077C149.535 458.722 152.718 452.375 162.17 449.211C165.683 448.047 174.125 447.329 178.084 446.358C196.581 441.778 207.488 436.169 219.521 431.2C235.378 424.66 236.853 421.225 224.587 425.941C241.86 410.472 273.768 378.449 287.936 362.32C302.162 346.095 311.42 347.279 338.145 361.311C351.168 368.143 378.961 379.477 398.311 380.079L394.216 375.033C375.7 372.723 354.798 366.047 336.243 356.304C316.563 345.978 301.949 337.516 283.821 359.875C267.945 379.438 231.38 414.315 215.329 429.143C190.506 439.197 180.86 441.079 170.845 443.544C166.828 444.534 163.14 444.864 159.53 446.048C148.991 449.561 147.575 454.84 143.79 462.409L140.122 471.026C135.638 478.712 126.769 488.222 117.53 497.791C108.932 506.68 111.456 515.394 113.299 521.275C113.843 519.625 114.056 514.21 115.958 513.22H115.978Z" fill="#0E141B"/>
<path d="M198.754 473.53C196.969 474.015 194.193 477.451 192.311 480.653C188.429 480.129 177.832 478.266 165.508 483.196C152.834 488.261 142.16 509.785 140.491 516.462C139.772 519.295 137.385 521.508 134.746 522.73C133.853 523.138 132.921 523.449 131.951 523.643C131.873 525.215 131.679 526.573 131.097 528.184C132.941 528.145 134.707 527.777 136.318 527.02C139.734 525.448 142.897 522.595 143.809 518.946C145.343 512.813 154.95 490.377 166.537 485.738C175.736 482.05 186.76 482.594 191.069 482.982C185.693 491.658 175.406 512.425 171.952 522.109C169.001 530.358 167.856 537.073 167.856 545.128C167.856 549.514 169.467 553.143 172.107 555.608C171.641 552.969 172.165 549.902 172.514 547.185C170.903 538.568 175.523 525.04 177.522 519.45C181.481 508.349 190.7 491.599 194.155 484.69C197.609 477.781 200.559 473.045 198.774 473.53H198.754Z" fill="#0E141B"/>
<path d="M264.529 552.891C261.327 548.504 260.667 541.692 261.579 534.297C262.375 527.699 264.238 512.327 261.696 507.126C259.483 502.584 259.425 504.7 259.91 511.124C251.157 496.218 246.305 490.046 228.333 492.666C228.333 492.666 230.895 488.474 232.467 486.592C234.039 484.709 233.224 483.312 229.206 487.154C209.875 505.67 207.585 520.809 203.044 534.453C201.297 539.732 199.453 545.729 197.901 548.795C196.542 551.493 194.912 553.104 193.029 554.172C192.078 556.248 191.049 558.48 189.749 560.343C194.194 559.082 199.026 554.521 201.627 549.319C202.52 547.534 203.723 542.643 206.052 535.637C210.458 522.4 212.903 514.501 225.868 495.985C253.156 491.153 259.386 518.324 259.386 518.324C259.794 523.351 259.134 528.358 258.377 534.627C257.426 542.546 256.863 550.057 260.706 555.317C262.103 557.257 263.908 558.965 265.888 560.421V554.618C265.422 554.055 264.956 553.473 264.51 552.871L264.529 552.891Z" fill="#0E141B"/>
<path d="M272.797 439.06C272.37 430.016 268.993 422.835 268.605 444.785C268.217 466.736 278.911 482.011 286.597 489.696C291.701 494.801 287.392 506.368 286.829 520.847C286.402 531.774 293.195 551.842 285.49 560.11C285.18 560.44 284.85 560.731 284.462 561.003C284.112 562.322 283.666 563.545 283.084 564.671C284.908 564.127 286.461 563.215 287.567 561.915C289.993 559.081 293.118 555.821 293.118 549.222C293.118 546.757 290.245 527.892 290.575 520.788C290.925 513.685 292.71 504.893 293.176 500.099C293.622 495.635 293.584 491.249 289.682 487.348C283.452 481.118 272.661 468.58 272.661 446.086C277.183 438.458 300.299 417.167 311.459 410.277C320.522 404.688 319.183 402.281 309.595 407.618C297.349 414.411 280.037 428.793 272.778 439.099L272.797 439.06Z" fill="#0E141B"/>
<path d="M402.581 440.38C389.674 441.855 377.467 440.302 360.853 427.357C330.945 404.106 316.486 405.581 310.974 408.376C311.808 409.657 306.645 410.588 307.519 411.83C321.551 405.134 341.697 417.206 358.97 431.355C371.722 441.797 384.473 447.755 402.6 443.582C410.286 441.816 410.83 439.429 402.6 440.38H402.581Z" fill="#0E141B"/>
<path d="M201.607 465.651C202.151 468.95 203.296 469.358 204.344 465.864C206.071 460.177 215.581 458.004 219.541 456.762C223.5 455.52 223.112 453.268 218.667 454.685C214.242 456.102 200.094 456.412 201.607 465.651Z" fill="#0E141B"/>
<path d="M143.809 512.23L142.276 515.083C146.041 513.55 150.098 513.86 154.348 515.976C162.228 519.935 168.924 529.348 170.166 534.724L172.437 532.162C171.039 526.223 162.073 507.339 143.809 512.23Z" fill="#0E141B"/>
<path d="M200.521 544.467L200.715 547.282C214.922 538.761 237.726 532.007 259.929 547.087L260.279 544.002C236.872 528.126 212.651 533.812 200.521 544.487V544.467Z" fill="#0E141B"/>
<path d="M116.502 510.775C112.543 513.745 107.904 528.049 110.99 541.324C113.028 550.096 115.104 553.9 121.781 544.254C126.769 537.054 135.037 525.234 135.037 525.234C136.57 518.81 132.164 512.794 128.127 510.154C124.323 507.65 120.384 507.864 116.502 510.775ZM114.561 540.936C112.116 529.174 114.25 517.141 120.073 512.774C122.46 510.989 124.634 511.726 126.07 512.658C128.69 514.385 130.98 518.422 130.98 522.711C130.98 523.293 123.799 535.443 119.335 541.964C116.055 546.758 115.628 545.962 114.58 540.916L114.561 540.936Z" fill="#0E141B"/>
<path d="M172.398 544.195C170.709 548.776 170.108 561.799 170.865 570.203C172.01 582.799 173.795 582.352 181.578 573.463C188.274 565.816 194.349 556.093 194.756 552.58C195.533 545.903 190.525 538.121 184.819 537.325C175.173 535.947 172.398 544.215 172.398 544.215V544.195ZM174.203 569.446C174.164 562.614 174.572 548.931 176.144 545.884C178.434 541.459 181.365 540.061 184.742 540.547C188.837 541.129 192.621 547.495 191.767 551.765C190.952 555.86 184.256 564.671 178.744 571.386C174.494 576.569 174.222 576.471 174.203 569.446Z" fill="#0E141B"/>
<path d="M275.514 545.03C270.468 545.107 265.849 547.941 264.82 551.357C263.792 554.773 266.684 570.513 268.197 580.159C269.498 588.466 271.516 590.309 277.397 581.77C284.636 571.25 289.12 558.615 287.548 552.735C286.267 547.902 280.561 544.933 275.514 545.03ZM273.418 548.484C278.018 547.96 283.724 550.639 284.539 553.686C284.675 554.229 284.753 554.85 284.753 555.549C284.753 559.877 279.784 571.347 276.077 577.966C272.545 584.273 272.098 584.39 270.915 576.665C269.556 567.815 268.062 552.58 268.062 552.58C268.12 550.483 270.818 548.795 273.418 548.504V548.484Z" fill="#0E141B"/>
<path d="M571.317 399.99C577.8 419.185 577.392 433.276 558.566 464.62L561.613 466.406C578.828 436.323 583.564 424.93 573.666 397.642C569.687 386.696 566.814 386.599 571.317 399.99Z" fill="#0E141B"/>
<path d="M591.211 302.892C593.909 286.55 591.521 285.153 580.75 296.138C569.202 307.919 551.967 327.676 548.299 332.198C547.115 327.346 533.685 271.101 529.919 256.351C526.038 241.134 521.263 242.066 516.663 255.924C512.064 269.781 496.479 316.187 493.47 322.921C486.872 315.895 444.62 248.219 442.892 245.579C434.78 233.255 431.383 234.38 430.956 248.083C430.529 261.785 430.646 322.339 430.354 333.829C426.337 332.412 364.754 309.452 364.754 309.452C348.626 303.688 348.179 307.686 356.855 320.845C358.175 322.844 417.351 400.031 419.544 435.315C420.611 452.356 421.155 460.779 434.236 469.474C445.842 477.198 466.997 490.668 479.574 502.041L476.216 493.404C463.446 481.856 450.17 474.831 438.7 467.242C428.86 460.759 424.066 454.238 423.969 439.294C423.756 405.426 382.804 351.646 360.601 318.748C355.807 311.645 354.972 309.976 362.697 313.469C362.697 313.469 418.962 334.353 430.374 338.623C431.17 348.463 432.179 348.463 434.197 340.234C435.847 333.441 435.478 255.691 435.051 249.325C434.838 246.103 435.672 242.377 438.04 245.715C439.826 248.257 483.786 320.573 490.753 325.871C494.227 328.511 497.333 330.161 499.371 331.092C506.202 334.256 507.561 333.926 501.156 329.113C499.856 328.123 498.284 326.958 496.789 325.716C500.38 315.158 519.846 258.583 520.759 256.079C524.213 246.646 524.698 252.605 526.193 257.554C527.843 263.047 540.439 316.944 542.709 327.502C545.524 340.661 552.452 356.983 553.365 353.819C553.986 351.626 551.074 345.687 549.269 336.197C556.295 328.181 574.869 306.521 583.816 298.292C587.717 294.702 589.095 293.867 587.989 300.388C585.311 316.148 576.383 367.793 573.355 382.99C572.152 389.065 571.279 394.034 572.016 397.993C572.928 397.993 574.151 404.883 575.121 404.883C573.976 399.002 574.694 393.199 576.189 385.804C578.984 371.792 588.106 322.106 591.269 302.911L591.211 302.892Z" fill="#0E141B"/>
<path d="M525.649 442.495C521.554 442.592 517.731 445.348 514.315 449.598L511.074 454.198C507.949 458.934 504.708 463.844 497.061 466.6L489.821 468.929C481.786 471.355 472.703 473.859 470.53 480.419C469.967 482.107 469.714 483.582 469.714 484.98C469.714 488.337 472.664 491.152 475.032 496.042C483.358 513.199 488.288 520.264 493.024 542.642C495.081 552.385 531.627 567.058 542.437 576.141C548.124 580.915 553.229 578.897 558.042 571.949C562.7 565.214 566.426 556.849 569.648 547.707C574.733 533.326 571.375 522.496 567.746 507.92C565.087 497.285 563.981 484.048 563.651 476.129L563.321 468.774C562.913 463.359 558.333 461.631 548.512 458.895C543.039 457.381 541.195 455.052 537.838 450.84L534.305 446.551C532.073 443.989 528.774 442.398 525.669 442.475L525.649 442.495ZM529.434 447.327C531.957 448.376 535.664 452.568 535.664 452.568C539.138 456.915 541.428 459.807 547.755 461.554C556.353 463.941 560.06 467.26 560.39 471.394C560.39 471.394 561.438 496.799 564.175 507.707C567.688 521.778 569.959 534.879 565.106 548.62C561.399 559.1 553.597 572.55 550.065 573.579C548.144 574.142 546.261 573.909 544.204 572.589C538.789 569.115 535.334 566.01 524.504 560.381L524.077 560.148C514.004 554.908 498.031 546.174 495.993 538.178C494.79 533.481 491.529 517.566 478.526 495.266C474.799 488.881 473.072 485.698 474.625 481.079C476.352 475.858 482.97 473.878 490.637 471.549L498.012 469.181C506.513 466.115 510.802 461.36 516.547 453.499C522.292 445.639 526.911 446.279 529.434 447.327Z" fill="#0E141B"/>
<path d="M516.78 472.385C518.565 475.452 519.516 478.887 520.215 481.818C520.739 483.992 523.437 484.38 522.796 480.595C522.156 476.869 520.856 474.365 518.546 471.628C516.236 468.892 515.654 470.483 516.78 472.405V472.385Z" fill="#0E141B"/>
<path d="M538.886 476.537C539.584 479.041 541.564 480.128 541.137 477.469C540.827 475.489 540.244 471.607 540.011 469.259C539.72 466.522 539.157 465.766 538.614 467.9C538.071 470.055 538.323 474.499 538.886 476.537Z" fill="#0E141B"/>
<path d="M454.207 422.137C453.101 422.06 451.645 421.613 450.85 421.303C451.956 428.6 456.672 443.739 460.573 450.144C463.814 455.423 464.998 455.617 461.932 448.144C458.652 440.148 455.818 430.289 454.207 422.157V422.137Z" fill="#0E141B"/>
<path d="M476.702 454.897C464.979 455.441 465.231 457.556 476.275 456.955C491.161 456.139 499.293 455.305 502.748 449.987C502.126 449.521 501.428 448.24 500.923 447.619C499.468 451.054 494.81 454.043 476.682 454.897H476.702Z" fill="#0E141B"/>
<path d="M501.311 446.474C489.045 432.519 473.169 425.047 457.507 421.631C446.599 419.244 444.949 421.689 457.914 424.659C473.771 428.288 489.802 437.915 500.244 448.745C504.999 453.674 506.008 451.792 501.331 446.474H501.311Z" fill="#0E141B"/>
<path d="M559.517 437.334C557.44 441.817 555.073 444.845 551.268 445.291C548.202 445.66 544.65 444.573 542.535 443.505C542.088 443.37 541.642 445.621 541.952 445.834C542.671 446.32 548.124 447.387 551.307 447.077C555.946 446.611 559.633 441.875 561.458 438.42C564.292 433.083 565.98 423.398 566.756 413.209C566.038 413.461 564.66 414.451 563.942 415.033C563.826 420.021 562.428 431.026 559.498 437.334H559.517Z" fill="#0E141B"/>
<path d="M484.62 434.228C484.329 432.753 482.136 431.763 482.349 432.714C484.795 443.447 482.757 454.141 479.458 454.393C475.867 454.665 470.704 441.195 473.499 428.386C473.654 427.687 471.461 427.066 471.306 427.726C468.375 439.196 472.568 456.547 479.729 455.849C485.435 455.305 486.309 442.709 484.64 434.228H484.62Z" fill="#0E141B"/>
<path d="M480.331 441.157C480.583 445.427 479.865 448.338 478.681 448.494C477.478 448.63 476.274 445.951 476.022 441.681C475.77 437.412 476.488 434.267 477.691 434.132C478.875 433.996 480.078 436.888 480.35 441.177L480.331 441.157Z" fill="#0E141B"/>
<path d="M555.441 423.902C555.364 423.378 553.792 425.532 553.85 426.114C554.937 436.362 552.123 444.921 549.638 445.115C548.105 445.251 546.009 442.786 545.543 437.585C545.485 436.983 544.126 438.691 544.204 439.254C544.98 444.902 547.736 446.842 549.91 446.493C555.014 445.678 556.625 432.344 555.461 423.882L555.441 423.902Z" fill="#0E141B"/>
<path d="M547.27 435.47C547.387 438.498 548.143 440.808 549.094 440.846C549.929 440.866 551.113 438.789 551.191 434.286C551.21 432.908 551.035 430.948 550.841 429.861C550.705 429.182 547.251 435.043 547.27 435.451V435.47Z" fill="#0E141B"/>
<path d="M512.432 419.244C512.432 425.241 517.304 430.093 523.281 430.093C529.259 430.093 534.131 425.222 534.131 419.244C534.131 413.266 529.259 408.395 523.281 408.395C517.304 408.395 512.432 413.266 512.432 419.244ZM515.285 418.894C515.285 414.198 519.109 410.374 523.805 410.374C528.502 410.374 532.326 414.198 532.326 418.894C532.326 423.591 528.502 427.415 523.805 427.415C519.109 427.415 515.285 423.591 515.285 418.894Z" fill="#0E141B"/>
<path d="M479.846 436.867C479.885 438.885 478.642 440.535 477.051 440.574C475.46 440.613 474.12 439.002 474.082 437.003C474.023 434.984 475.285 433.334 476.876 433.296C478.468 433.257 479.807 434.848 479.846 436.867Z" fill="white"/>
<path d="M548.784 431.006C547.6 432.5 547.581 435.179 545.931 436.188C546.3 437.236 546.94 437.954 547.697 437.973C548.881 437.973 549.852 436.343 549.871 434.305C549.871 432.869 549.444 431.646 548.765 431.025L548.784 431.006Z" fill="white"/>
<path d="M559.536 416.934C550.725 423.844 543.466 435.217 541.273 444.494C540.244 448.784 541.778 448.997 543.253 444.96C546.669 435.664 551.133 427.24 560.817 419.069C570.657 410.763 571.395 407.618 559.517 416.934H559.536Z" fill="#0E141B"/>
</g>
<defs>
<clipPath id="clip0_42_63287">
<rect width="620" height="546.404" fill="white" transform="translate(110 237)"/>
</clipPath>
</defs>
</svg>
