<svg width="800" height="800" viewBox="0 0 800 800" fill="none" xmlns="http://www.w3.org/2000/svg">
<g clip-path="url(#clip0_42_63436)">
<path d="M276.172 488.227C259.406 481.659 240.547 465.277 226.008 456.135C196.97 437.89 175.844 422.161 175.844 405.971C175.844 393.987 185.735 386.324 194.8 379.794C200.715 375.55 207.61 372.228 209.05 367.983C210.894 362.51 210.414 356.518 209.204 353.464C208.109 353.042 205.632 351.889 204.652 351.159C193.955 356.23 184.122 357.248 176.766 349.373C163.668 349.7 157.196 342.075 161.191 326.884C162.228 322.909 163.86 318.818 164.36 314.151C165.032 307.909 165.301 296.309 175.383 293.102C178.226 292.276 181.279 289.722 183.469 287.994C195.28 278.737 209.588 268.289 224.222 269.038C243.216 269.998 263.42 283.96 263.151 320.258C263.036 337.543 251.916 355.673 245.943 365.429C239.183 376.51 234.555 384.192 229.888 395.005C227.583 400.325 231.539 405.952 237.109 409.466C244.753 414.306 271.236 425.714 286.466 424.619C297.356 424.197 322.975 444.036 319.134 466.448C316.446 482.12 293.342 494.93 276.172 488.208V488.227Z" fill="#0E141B"/>
<path d="M274.886 483.099C268.087 481.006 248.382 465.046 228.697 451.929C209.972 439.446 195.799 428.729 192.399 425.234C179.762 412.232 179.532 403.071 186.1 393.968C193.11 386.055 203.596 379.468 208.589 374.455C208.897 374.148 210.433 372.477 211.201 371.363C213.583 371.286 217.078 370.096 217.078 370.096C217.078 370.096 216.847 372.592 218.345 379.698C222.148 376.702 230.291 375.953 235.265 375.876C233.345 379.986 227.698 388.763 224.952 395.082C222.148 401.535 227.487 409.101 234.459 413.461C242.141 418.262 269.604 428.94 283.854 430.458C302.829 430.938 315.293 447.954 315.293 464.547C315.293 476.608 291.997 489.533 274.886 483.118V483.099Z" fill="#FFF6E9"/>
<path d="M216.905 370.5C216.905 370.5 217.097 376.011 218.268 380.044C225.24 375.493 235.073 376.28 235.073 376.28C244.195 361.166 257.985 339.733 258.407 322.64C259.31 286.246 240.892 274.185 223.358 273.436C207.801 272.764 194.262 285.132 182.297 294.562C179.493 296.771 175.575 295.964 172.464 299.363C169.237 302.878 168.892 313.825 167.182 320.009C161.997 338.83 163.303 342.844 173.424 344.534C173.674 344.611 171.465 339.579 172.31 331.455C173.059 324.407 177.016 320.412 177.4 315.189C177.669 311.616 177.361 305.624 179.416 305.49C181.586 305.355 181.433 311.636 181.356 315.208C181.221 320.297 177.861 325.886 177.304 331.82C175.114 348.932 188.078 354.521 201.31 346.435C196.009 334.893 193.782 327.441 198.487 314.036C200.139 309.331 201.099 299.383 203.519 299.133C205.862 298.883 203.807 310.099 202.405 314.804C199.774 323.639 198.794 329.573 202.251 338.273C204.306 343.439 208.627 351.006 222.493 348.99C237.608 346.781 240.7 336.814 239.721 327.096C239.317 323.063 238.223 318.934 237.032 314.689C235.841 310.445 233.46 303.627 235.86 303.224C237.646 302.936 239.144 309.004 240.181 312.346C241.871 317.858 243.12 322.333 244.022 327.23C246.73 341.788 234.746 356.422 213.774 354.117C214.389 357.21 214.504 360.302 213.89 363.586C213.217 367.043 212.948 368.541 210.893 371.882C212.488 371.882 216.943 370.519 216.943 370.519L216.905 370.5Z" fill="#D4975C"/>
<path d="M352.878 642.483C346.674 648.436 335.708 677.513 334.729 685.042C340.145 696.872 344.581 721.205 330.273 729.213C322.245 733.707 310.684 731.825 298.469 724.124C269.988 724.124 261.288 696.334 286.236 675.208C289.424 672.597 292.593 668.756 294.091 666.681C301.965 655.83 314.794 639.314 314.794 633.936C314.794 633.821 314.775 633.706 314.755 633.61C311.049 630.23 296.645 630.499 283.893 630.729C264.783 631.075 245.021 631.44 239.913 622.298C227.391 599.866 245.982 589.707 259.118 580.969C261.154 579.202 264.13 576.033 267.568 572.365C276.883 562.416 288.483 550.029 296.318 549.395L297.24 549.318L297.97 549.875C298.469 550.279 300.217 551.085 301.888 551.892C308.687 555.118 320.075 560.515 324.089 569.599L324.3 570.06V570.559C324.3 577.857 317.713 583.945 311.318 589.822C309.608 591.397 308.034 592.914 306.555 594.412C315.581 597.37 326.855 606.876 332.002 610.717C333.922 612.158 339.684 604.476 342.565 603.515C345.445 602.555 361.731 596.832 366.091 600.635C372.256 606.031 375.713 617.151 371.699 627.195C367.858 636.798 359.023 636.548 352.859 642.464L352.878 642.483Z" fill="#0E141B"/>
<path d="M305.614 619.899C305.614 619.899 303.712 617.037 300.736 615.347C305.748 612.658 311.106 610.411 311.106 610.411C311.106 610.411 312.796 605.091 311.222 602.345C307.611 599.464 305.691 598.754 302.099 597.544C294.494 602.499 291.92 605.437 283.528 612.428C280.897 614.617 279.744 613.715 281.569 611.007C282.798 609.163 289.001 603.421 295.646 597.659C305.249 589.343 311.356 585.233 321.304 573.057C316.484 562.129 303.309 557.655 300.39 555.369C290.73 556.137 275.366 570.33 262.095 584.58C258.369 588.575 230.137 599.925 244.714 620.11C250.706 628.407 277.459 626.659 288.175 626.505C296.741 623.644 305.614 619.899 305.614 619.899Z" fill="#FFF6E9"/>
<path d="M352.667 636.088C344.697 638.738 332.156 676.553 329.467 684.427C334.768 694.587 335.939 701.251 335.709 708.184C335.286 721.205 330.101 726.698 317.982 726.333C303.866 725.911 295.397 714.349 296.876 707.147C298.873 697.429 304.923 692.82 308.149 684.581C310.761 677.936 311.433 668.007 309.782 667.873C307.439 667.7 308.284 675.113 304.807 682.488C301.312 689.901 295.224 694.683 292.631 705.668C291.786 709.279 292.919 716.827 296.088 719.688C287.907 718.017 277.094 716.673 277.421 699.792C277.651 687.904 292.247 675.785 295.358 672.424C302.311 664.896 316.119 643.712 318.558 634.82C324.166 637.375 329.448 637.375 333.673 633.995C336.362 631.844 335.593 630.384 332.789 631.613C326.778 634.244 323.782 634.456 316.619 629.539C313.162 627.158 304.519 626.658 297.567 626.658C304.692 623.547 312.47 621.895 312.47 621.895C312.47 621.895 311.568 618.803 307.688 616.403C311.644 613.503 315.735 612.946 315.735 612.946C315.735 612.946 315.985 606.243 314.871 603.766C319.826 606.397 324.397 609.527 328.315 612.734C331.56 615.385 334.71 616.249 336.957 614.021C339.53 611.448 342.2 609.431 344.082 607.856C346.963 605.456 361.367 602.594 363.21 605.052C374.426 620.032 369.03 630.634 352.648 636.107L352.667 636.088Z" fill="#D4975C"/>
<path d="M300.39 555.349C291.556 556.041 277.92 568.025 265.494 580.969C283.393 577.685 294.532 580.873 299.449 594.393C307.016 588.017 312.739 583.523 321.324 573.018C316.503 562.09 303.328 557.615 300.409 555.33L300.39 555.349Z" fill="#DCD5CB"/>
<path d="M509.246 526.543C510.264 527.1 511.954 528.444 512.972 529.27L514.72 530.633C515.431 531.19 516.391 531.286 517.217 530.883C518.023 530.48 518.523 529.654 518.523 528.732C518.523 525.678 517.428 518.592 516.583 512.907C516.583 512.907 516.295 510.833 516.026 508.912C518.484 509.027 521.711 509.181 524.092 509.181C528.625 509.181 529.181 508.298 527.664 504.341C526.915 502.402 523.67 492.434 522.863 489.861C526.589 488.67 529.508 487.633 531.544 486.807C534.463 485.616 536.556 484.675 534.021 481.276C528.721 474.151 525.494 469.407 524.207 462.724C523.189 457.423 523.151 444.997 523.132 439.697V437.219C523.113 436.009 522.172 435.011 520.962 434.895C518.926 434.703 515.392 434.972 511.993 435.241C510.783 435.337 509.611 435.414 508.536 435.472C508.901 432.303 509.554 426.695 509.554 426.695L511.205 412.483C511.205 412.387 511.205 412.272 511.205 412.156C511.205 411.388 510.898 410.639 510.245 410.198C509.515 409.698 508.67 409.602 507.883 410.005L500.681 413.789C500.681 413.789 499.721 414.307 498.914 414.73C498.914 413.155 498.895 411.292 498.895 409.218C498.895 399.692 499.068 386.229 499.125 381.716V381.678C499.125 377.952 497.666 377.395 495.015 380.065C495.015 380.065 493.671 381.409 492.404 382.696C494.881 363.702 497.224 343.056 497.8 337.909C498.396 332.589 497.704 332.224 493.345 335.067C491.366 336.354 488.966 337.928 486.796 339.292C487.833 336.603 488.889 333.857 489.504 331.629C491.155 325.848 489.811 326.252 484.164 328.114C468.704 333.185 437.976 352.87 423.457 363.433C423.726 359.361 423.956 354.637 424.071 351.372C424.263 345.841 423.668 345.553 419.501 347.742C416.024 349.586 409.456 353.485 404.789 356.346C406.595 349.624 410.205 334.99 410.839 332.128C412.107 326.271 411.569 325.311 405.135 328.23C401.371 329.939 395.686 332.897 388.542 338.773C380.84 345.092 373.811 352.736 369.49 357.518C369.49 355.309 369.548 350.661 369.548 350.661C369.548 347.896 367.627 346.84 365.611 348.741C357.007 357.095 340.644 369.233 330.331 373.88C329.294 372.901 305.883 344.573 298.719 340.348C292.938 336.93 291.363 337.852 291.767 343.555C291.94 346.014 292.477 348.952 292.785 351.161C286.14 350.354 273.829 348.203 266.205 347.07C259.56 346.071 258.791 347.877 261.48 353.389C263.017 356.519 267.184 362.453 270.161 366.621C268.49 366.467 266.723 366.294 265.11 366.198C259.176 365.853 258.695 367.927 261.941 372.767C265.686 378.336 274.021 390.915 280.839 402.247C279.879 402.362 278.822 402.458 277.747 402.554C274.117 402.88 273.272 404.59 274.559 408.354C275.481 411.043 278.323 419.397 278.592 420.299C278.477 420.299 276.844 420.357 275.5 420.395C271.16 420.53 271.64 422.835 272.811 427.04C274.156 431.861 271.332 438.333 267.011 444.076C260.078 453.294 258.734 455.118 264.13 465.355C268.375 473.421 267.914 475.534 263.862 483.696C259.272 492.895 251.225 506.012 244.791 516.133C240.681 522.606 238.146 526.6 236.744 529.193C233.114 535.876 234.823 537.682 240.911 534.57C242.601 533.706 256.794 525.006 259.272 523.95C260.193 527.58 261.403 537.509 262.172 543.789C262.69 547.976 263.132 551.778 263.554 554.525C264.841 563.071 266.032 561.074 269.834 556.503C271.179 554.889 272.696 552.892 274.098 551.068C274.098 551.068 274.751 550.242 275.308 549.531C278.63 556.253 282.779 566.778 284.661 572.117C286.677 577.897 287.138 578.089 290.326 574.076C290.922 573.307 291.479 572.558 292.016 571.771C293.073 574.44 294.263 577.609 295.281 580.49C297.279 586.136 298.7 586.828 301.504 581.45C303.54 577.571 306.516 573.077 307.938 571.464C318.904 581.777 325.779 589.574 336.169 601.097C341.393 607.416 341.758 606.129 344.063 601.501C345.618 598.37 347.02 594.587 348.096 592.34C353.147 598.14 363.652 609.778 369.509 616.903C372.717 620.802 373.466 620.879 375.751 616.557C376.942 614.272 378.325 610.642 380.053 605.918C380.053 605.918 380.456 604.861 380.821 603.901C382.876 605.745 385.315 607.934 385.315 607.934C391.711 613.753 399.681 621.013 402.869 623.337C403.445 623.759 404.175 623.894 404.866 623.721C405.558 623.548 406.134 623.068 406.422 622.415C406.96 621.243 407.766 618.708 408.899 615.213C410.589 609.932 412.932 602.691 414.911 598.562C416.601 595.028 417.926 592.724 419.001 591.014C419.001 591.014 420.595 594.548 422.401 599.35C424.82 605.764 426.242 604.957 428.7 600.348C430.505 596.987 432.291 594.625 433.424 592.801C434.308 594.126 436.42 597.314 437.822 599.446C441.03 604.285 442.796 603.69 444.198 598.293C445.159 594.548 446.926 588.115 447.809 587.462C447.809 587.462 455.914 601.155 458.794 601.155C461.675 601.155 476.463 559.998 476.463 559.998C476.463 559.998 486.066 580.49 491.827 577.917C495.438 576.303 506.135 528.156 509.227 526.619L509.246 526.543Z" fill="#0E141B"/>
<path d="M506.577 520.224C510.418 518.304 513.664 524.277 513.836 524.065C514.47 523.297 510.86 506.089 511.993 505.244C513.126 504.399 523.074 505.628 523.439 504.86C523.842 504.034 516.16 489.995 518.196 487.441C520.309 484.791 530.43 484.119 530.641 483.254C530.833 482.467 520.116 471.232 519.118 459.728C517.85 453.121 518.734 441.579 517.773 439.889C514.336 440.023 504.656 440.446 503.946 439.735C503.12 438.909 506.231 419.954 505.213 417.918C502.928 418.552 495.88 422.758 494.842 422.143C493.863 421.586 495.457 386.691 494.862 386.498C494.228 386.287 489.331 391.338 486.892 392.394C488.486 373.861 491.731 352.659 493.901 339.926C490.944 340.348 481.399 347.397 480.496 346.84C479.44 346.206 483.396 335.605 483.819 331.994C479.632 333.262 464.613 340.694 453.34 348.319C437.016 359.362 420.806 371.73 419.539 371.096C417.734 370.193 418.905 355.424 417.849 355.002C416.581 354.503 398.816 366.525 397.799 366.007C396.109 365.162 406.364 334.222 405.173 333.588C392.536 341.424 379.65 352.006 365.476 368.791C363.786 368.158 364.766 355.424 364.189 355.981C357.544 362.703 337.533 375.993 329.697 379.258C326.259 380.699 301.792 343.268 296.818 345.419C295.934 345.803 297.49 356.27 296.338 356.942C294.859 357.787 265.84 350.623 265.129 351.18C264.495 351.699 274.751 365.987 274.962 368.945C275.058 370.443 265.897 370.02 265.59 370.712C265.206 371.595 286.178 403.726 285.755 404.724C285.333 405.704 278.938 405.684 278.304 406.645C277.843 407.317 283.912 422.777 283.393 424.352C283.067 425.312 276.825 423.718 276.191 424.774C275.442 426.042 277.939 429.365 276.921 433.782C275.231 441.195 266.512 449.626 265.571 455.868C264.937 460.112 272.946 470.771 271.332 477.32C267.53 492.78 243.178 526.562 243.485 526.927C243.792 527.292 260.213 517.651 261.25 518.285C263.516 519.687 267.203 550.319 267.971 550.453C268.855 550.607 274.424 541.331 276.134 541.331C279.245 547.803 284.776 562.207 287.657 569.178C288.617 569.178 290.998 563.148 292.17 563.263C293.303 563.359 298.066 576.937 298.7 576.937C299.468 576.937 306.324 564.3 308.302 564.396C309.935 564.473 339.088 599.503 339.991 599.503C340.759 599.503 345.464 585.042 347.769 585.272C350.592 585.56 370.623 612.198 372.16 611.929C373.562 611.679 377.134 597.007 379.112 596.853C382.78 596.565 400.987 617.076 402.408 616.788C403.195 616.634 405.769 605.207 410.109 596.2C413.95 588.23 418.944 581.758 419.904 581.892C421.882 582.18 425.128 596.085 426.414 596.085C427.816 596.085 431.388 586.54 433.674 586.54C435.076 586.54 440.069 595.221 440.818 595.125C441.702 594.99 442.739 579.28 444.16 578.493C447.54 576.63 454.953 592.417 457.834 592.417C460.715 592.417 472.929 549.973 475.81 549.973C478.691 549.973 486.373 570.772 489.254 570.772C492.135 570.772 502.39 522.279 506.538 520.205L506.577 520.224Z" fill="#FFF6E9"/>
<path d="M530.641 483.253C530.833 482.466 520.116 471.231 519.118 459.727C518.177 454.791 518.426 447.109 518.215 442.826C512.031 447.954 510.091 479.873 509.515 480.526C507.595 482.773 505.348 485.001 499.586 486.614C497.32 487.67 503.37 504.225 502.083 506.779C500.796 509.334 494.401 505.493 491.846 507.413C489.292 509.334 489.292 536.855 486.719 537.508C484.164 538.142 476.482 528.539 473.909 529.192C471.354 529.826 459.178 566.969 456.624 566.969C454.07 566.969 445.101 557.366 443.18 558C441.26 558.634 438.053 571.443 436.132 572.077C434.212 572.711 431.004 565.682 431.004 565.682C431.004 565.682 427.163 573.998 425.243 574.651C423.322 575.284 412.375 561.341 409.84 561.265C409.84 561.265 394.783 591.148 393.343 591.436C391.999 591.705 384.624 575.669 379.957 571.731C378.555 576.091 372.525 586.174 371.199 586.404C369.759 586.673 364.017 574.247 362.442 567.775C355.97 570.31 348.326 578.78 346.924 578.492C345.503 578.204 333.519 559.997 331.118 555.061C328.737 557.155 321.515 567.199 320.114 566.642C318.692 566.085 311.798 556.463 308.821 551.124C304.461 551.124 295.108 554.024 294.398 554.024C293.802 554.024 292.228 547.802 289.904 544.633C288.079 546.592 285.602 548.224 284.93 547.802C284.565 547.552 278.304 532.707 275.922 524.103C274.309 524.103 268.029 528.712 267.184 528.577C267.088 528.577 265.359 527.348 263.554 525.85C265.475 535.338 267.434 550.414 267.971 550.51C268.855 550.663 274.424 541.387 276.134 541.387C279.245 547.859 284.776 562.263 287.657 569.235C288.617 569.235 290.998 563.204 292.17 563.32C293.303 563.416 298.066 576.994 298.7 576.994C299.468 576.994 306.324 564.357 308.302 564.453C309.935 564.53 339.088 599.56 339.991 599.56C340.759 599.56 345.464 585.098 347.769 585.329C350.592 585.617 370.623 612.254 372.16 611.986C373.562 611.736 377.134 597.063 379.112 596.909C382.78 596.621 400.987 617.133 402.408 616.844C403.195 616.691 405.769 605.264 410.109 596.256C413.95 588.286 418.943 581.814 419.904 581.949C421.882 582.237 425.128 596.141 426.414 596.141C427.816 596.141 431.388 586.596 433.674 586.596C435.076 586.596 440.069 595.277 440.818 595.181C441.702 595.047 442.739 579.337 444.16 578.549C447.54 576.686 454.953 592.473 457.834 592.473C460.715 592.473 472.929 550.03 475.81 550.03C478.691 550.03 486.373 570.829 489.254 570.829C492.134 570.829 502.39 522.336 506.538 520.262C510.379 518.341 513.625 524.314 513.798 524.103C514.432 523.334 510.821 506.127 511.954 505.281C513.087 504.436 523.036 505.666 523.401 504.897C523.804 504.072 516.122 490.033 518.158 487.478C520.27 484.828 530.391 484.156 530.602 483.292L530.641 483.253Z" fill="#DCD5CB"/>
<path d="M578.251 611.026C604.6 609.086 642.166 597.122 661.986 570.964C692.56 530.614 680.787 494.527 652.037 490.955C644.47 490.014 629.778 490.514 622.769 497.965C619.408 501.537 618.217 506.166 619.235 511.716C621.078 521.914 630.662 521.357 638.363 520.915C643.491 520.627 648.792 520.32 651.864 522.644C654.496 524.603 656.09 530.864 653.401 539.967C647.409 560.267 624.439 583.102 578.04 586.29C530.756 589.536 484.011 579.318 437.765 541.369C422.113 528.521 411.511 558.654 428.162 569.216C476.483 599.887 519.886 615.328 578.27 611.045L578.251 611.026Z" fill="#0E141B"/>
<path d="M614.952 586.29C614.952 586.29 610.9 591.226 607.078 592.916C609.556 593.262 613.838 593.915 613.838 593.915C612.379 595.797 611.111 598.101 610.766 599.772C611.918 599.35 616.489 597.794 617.603 597.333C658.99 580.836 677.619 547.169 675.007 521.492C673.336 505.052 660.2 496.122 649.714 495.238C640.476 494.47 621.117 496.736 623.46 509.969C625.304 520.282 642.396 513.714 653.555 518.285C665.481 523.182 660.181 561.631 619.734 580.452C617.852 581.316 612.801 583.505 610.631 584.139C612.609 585.541 614.971 586.271 614.971 586.271L614.952 586.29Z" fill="#D4975C"/>
<path d="M606.022 585.541C606.963 585.272 610.304 584.254 611.245 583.985C612.475 584.792 615.797 586.079 615.797 586.079C615.797 586.079 612.801 590.169 608.365 592.685C611.975 593.165 614.472 593.511 614.472 593.511C612.206 596.757 611.073 599.714 611.073 599.714C601.892 602.845 587.719 605.86 578.366 606.744C529.028 611.449 466.054 594.356 431.043 565.702C427.528 562.821 421.767 552.585 425.281 547.784C428.796 542.982 434.385 545.095 440.972 550.664C478.73 582.622 548.809 601.443 606.022 585.579V585.541Z" fill="#FFF6E9"/>
<path d="M479.478 409.159C486.546 402.802 491.578 400.517 499.586 399.23C507.595 397.943 524.227 396.983 529.681 394.755C535.116 392.508 557.855 381.945 569.378 381.945C579.096 381.945 592.424 384.845 592.424 404.992C592.424 415.228 590.446 443.268 587.527 463.759L580.421 470.693L576.695 464.412L573.545 470.52C573.545 470.52 569.071 461.359 568.418 459.438C567.784 457.518 565.691 454.637 565.691 454.637C565.691 454.637 564.922 458.901 563.962 460.495C563.002 462.089 560.582 465.949 560.582 465.949L553.38 456.173L555.992 419.05C555.992 419.05 539.533 428.172 533.272 433.454C520.731 444.017 513.548 458.843 511.186 465.469C509.592 469.944 491.981 462.588 483.339 447.55C474.696 432.513 476.29 412.021 479.498 409.14L479.478 409.159Z" fill="#FFF6E9"/>
<path d="M510.629 458.709C507.787 471.019 511.762 471.192 514.624 461.801C519.214 442.5 544.949 428.403 553.726 421.969C552.266 431.169 551.46 441.52 550.768 450.911C549.923 462.396 549.117 473.247 547.292 477.338C546.082 480.046 542.76 483.195 539.245 486.537C532.504 492.952 524.111 500.96 524.111 511.773C524.111 518.322 525.206 526.273 532.965 530.863C537.344 543.269 554.052 545.497 561.907 540.638C579.845 547.302 594.153 537.565 594.153 517.611C594.153 513.002 592.482 507.067 590.869 501.325L588.814 493.47C587.757 488.554 588.775 476.915 589.755 465.642C592.213 437.314 594.038 416.188 593.673 397.924C593.404 384.596 579.442 377.279 562.176 381.254C549.52 384.173 537.593 389.244 529.604 392.24C521.634 395.216 510.168 395.389 497.359 396.657C490.618 397.137 482.494 401.516 479.747 406.259C476.963 411.061 477.731 414.575 481.341 410.1C484.971 405.626 491.04 401.304 501.603 400.498C509.823 399.883 521.269 399.614 531.217 396.023C542.51 391.932 553.649 386.555 561.619 384.826C577.752 381.312 588.122 387.265 589.467 396.196C591.157 407.393 589.62 421.72 588.18 437.967C587.988 440.214 586.855 454.599 585.991 463.376C585.664 467.005 579.442 472.191 579.442 472.191C579.442 472.191 577.963 468.984 576.772 465.507C576.35 468.254 572.893 471.788 572.893 471.788C572.893 471.788 572.24 463.203 565.691 456.443C564.73 465.239 559.948 467.524 559.948 467.524C559.948 467.524 557.951 461.954 554.878 460.053C554.917 458.325 555.377 450.047 555.474 448.338C556.203 432.782 558.374 417.763 560.256 407.066C561.024 402.687 558.585 402.514 557.24 406.567C556.415 409.025 555.358 414.095 554.417 417.514C547.311 421.854 514.931 439.965 510.572 458.747L510.629 458.709Z" fill="#0E141B"/>
<path d="M583.839 495.544C583.129 492.241 584.031 483.791 584.819 476.723C585.299 472.344 586.163 464.681 586.125 462.934C584.281 467.274 580.171 469.214 580.171 469.214C580.171 469.214 578.75 465.642 576.541 462.934C575.274 467.389 573.488 468.791 573.488 468.791C573.488 468.791 570.473 458.651 565.383 452.928C563.52 460.149 560.179 464.835 560.179 464.835C560.179 464.835 557.816 459.554 555.128 456.596C554.974 460.053 554.321 463.702 553.841 466.986C552.996 472.863 552.151 477.779 551.248 479.815C547.388 488.457 529.95 496.792 529.373 510.639C529.181 515.114 529.239 520.626 533.483 524.448C533.061 521.625 533.752 518.379 534.309 516.747C536.537 510.332 540.666 506.51 542.145 507.432C543.893 508.508 539.898 512.368 538.553 519.781C537.708 524.448 538.419 530.229 540.954 533.052C543.95 536.394 551.114 538.564 557.893 535.452C555.992 530.632 554.936 529.864 556.088 522.374C557.298 514.423 562.983 508.066 565.114 509.026C568.053 510.37 561.869 515.671 561.024 522.662C560.582 531.439 562.771 538.429 573.43 538.429C581.9 538.429 589.082 531.976 589.505 518.014C589.697 511.561 585.433 502.765 583.878 495.563L583.839 495.544Z" fill="#D4975C"/>
<path d="M282.222 363.644C281.646 364.296 281.473 365.199 281.78 366.025C281.818 366.102 284.968 374.783 287.081 383.002C289.078 390.78 290.249 400.133 290.269 400.229C290.384 401.132 290.999 401.9 291.863 402.188C292.727 402.476 293.687 402.246 294.321 401.593C294.379 401.535 300.159 395.582 306.708 391.683C313.488 387.65 319.979 384.635 320.037 384.596C320.728 384.289 321.208 383.655 321.362 382.906C321.516 382.157 321.304 381.389 320.786 380.832C320.536 380.544 314.352 373.841 304.807 369.559C295.493 365.391 284.949 362.991 284.507 362.895C283.662 362.702 282.779 362.991 282.203 363.644H282.222Z" fill="#0E141B"/>
<path d="M293.457 397.08C299.219 391.549 310.281 385.134 317.694 381.946C310.127 374.187 298.969 369.232 285.775 366.812C289.136 376.185 291.536 384.827 293.457 397.061V397.08Z" fill="#D4975C"/>
<path d="M475.868 349.931C475.445 350.161 465.42 355.404 458.199 360.359C451.343 365.064 442.489 372.535 442.124 372.862C441.587 373.322 441.279 373.995 441.279 374.705C441.279 375.416 441.606 376.088 442.163 376.53L458.391 389.647C464.441 394.583 473.294 404.819 473.39 404.934C474.024 405.683 475.061 405.933 475.983 405.606C476.905 405.28 477.539 404.416 477.558 403.436L478.326 373.649L479.344 352.197C479.382 351.352 478.96 350.526 478.249 350.084C477.539 349.623 476.636 349.585 475.868 349.969V349.931Z" fill="#0E141B"/>
<path d="M446.849 374.994C456.202 381.715 466.419 391.971 473.486 399C473.909 399.423 473.966 386.037 474.293 376.511C474.619 366.947 476.021 355.155 475.407 354.828C465.324 359.86 455.971 365.621 446.849 374.994Z" fill="#D4975C"/>
<path d="M278.976 692.994C278.054 695.222 277.478 697.527 277.44 699.793C277.113 716.674 287.926 718.019 296.107 719.689C292.938 716.828 291.805 709.28 292.65 705.67C292.67 705.574 292.708 705.478 292.727 705.381C288.06 705.17 283.432 701.848 278.995 692.994H278.976Z" fill="#AE7B4A"/>
<path d="M296.837 707.359C295.55 714.581 303.981 725.931 317.963 726.353C328.449 726.661 333.73 722.608 335.247 713.102C319.576 721.226 307.842 719.977 296.837 707.379V707.359Z" fill="#AE7B4A"/>
<path d="M240.566 343.535C235.688 350.718 226.373 355.481 213.755 354.098C214.312 356.825 214.447 359.571 214.024 362.433C227.525 361.819 236.725 355.769 240.566 343.535Z" fill="#AE7B4A"/>
<path d="M352.648 432.494C354.952 421.259 361.002 414.748 359.85 414.038C358.812 413.404 352.167 421.221 349.556 432.148C346.752 443.844 347.347 450.605 349.171 450.816C350.727 451.008 350.477 443.038 352.628 432.494H352.648Z" fill="#0E141B"/>
<path d="M321.861 443.959C318.558 437.41 311.51 432.09 312.393 431.188C313.354 430.227 320.824 435.835 324.262 442.749C327.354 448.972 328.507 457.672 326.49 458.056C325.53 458.228 324.819 449.817 321.861 443.959Z" fill="#0E141B"/>
<path d="M384.49 474.112C397.991 471.461 410.551 467.255 411.454 466.91C413.931 465.969 417.811 462.954 417.1 461.398C416.735 460.476 411.396 462.627 411.396 462.627C411.3 460.15 412.625 439.466 409.61 427.942C410.916 426.905 416.524 422.238 416.101 421.029C415.679 419.761 410.359 420.606 407.632 422.45C404.674 424.447 392.729 433.358 379.688 445.323C364.785 458.978 351.015 475.226 351.591 476.608C352.148 478.01 369.049 477.146 384.49 474.112Z" fill="#0E141B"/>
<path d="M383.933 469.752C396.109 467.351 406.844 463.721 407.651 463.395C408.919 462.895 407.113 428.979 405.846 429.747C404.885 430.323 393.612 439.062 381.82 449.855C368.376 462.185 356.738 474.054 356.834 474.419C357.084 475.436 369.99 472.517 383.933 469.771V469.752Z" fill="white"/>
<path d="M407.863 424.408L407.479 423.602L406.691 424.043C404.502 425.272 399.508 429.517 395.494 432.916L390.77 436.834L390.674 437.084C388.504 443.575 393.44 467.37 396.032 469.828L396.32 470.097L396.704 470.059C401.102 469.54 404.271 468.715 409.764 466.679L410.244 466.506L410.302 465.987C411.031 460.072 410.378 429.613 407.843 424.408H407.863Z" fill="#0E141B"/>
<path d="M407.92 463.818C408.688 457.711 408.208 437.43 405.942 430.229C402.773 432.015 397.319 436.797 394.649 438.832C393.382 442.77 396.166 463.914 398.452 466.085C402.658 465.412 403.925 465.316 407.901 463.818H407.92Z" fill="#CD5D00"/>
<path d="M403.387 450.451C403.003 446.495 402.773 440.292 401.428 440.388C399.45 440.522 398.913 447.686 399.393 451.508C399.911 455.675 401.14 459.785 402.562 459.593C404.271 459.363 403.714 453.87 403.387 450.451Z" fill="#0E141B"/>
<path d="M304.769 473.785C298.719 472.402 294.072 470.424 293.515 470.155C291.767 469.33 288.464 467.62 288.848 466.238C289.059 465.489 293.092 466.871 293.092 466.871C291.863 460.783 289.136 449.894 290.768 441.885C290.768 441.885 285.794 437.545 286.102 436.911C286.812 435.452 289.366 437.007 290.96 438.064C291.613 438.505 300.045 443.71 308.879 451.123C321.324 461.571 335.19 475.341 334.575 476.877C333.884 478.606 316.503 476.474 304.788 473.804L304.769 473.785Z" fill="#0E141B"/>
<path d="M306.229 471.02C300.755 469.771 296.818 467.352 296.28 467.217C295.608 465.124 293.112 454.081 294.053 444.459C294.648 444.843 301.293 448.819 309.263 455.502C320.498 464.932 332.444 473.728 331.887 475.11C331.253 476.666 316.792 473.44 306.229 471.039V471.02Z" fill="white"/>
<path d="M319.788 460.764C317.099 458.21 309.167 451.546 305.787 448.972L305.019 448.377L304.539 449.203C300.64 455.886 302.349 469.195 303.386 473.036L303.521 473.517L305.365 473.977C309.321 474.976 314.237 476.224 317.618 476.455L318.367 476.513L318.501 475.783C319.365 471.27 319.653 466.852 319.845 463.933L320.057 461.091L319.768 460.784L319.788 460.764Z" fill="#0E141B"/>
<path d="M316.599 474.264C317.368 469.886 317.003 464.739 317.233 462.338C314.698 459.918 309.724 455.789 306.574 453.369C304.251 458.036 304.462 466.64 305.48 470.807C309.186 471.845 313.258 473.611 316.58 474.264H316.599Z" fill="#CD5D00"/>
<path d="M309.858 463.05C310.051 461.091 310.511 458.748 309.436 457.922C308.668 457.327 307.477 460.227 307.4 462.762C307.323 465.259 307.727 468.447 308.86 468.274C309.974 468.101 309.647 465.067 309.858 463.069V463.05Z" fill="#0E141B"/>
<path d="M346.713 522.509C364.747 522.874 378.594 511.812 378.594 493.509C378.594 477.031 366.168 466.104 346.713 466.104C327.258 466.104 311.145 481.641 311.145 498.119C311.145 514.597 327.239 522.106 346.713 522.509Z" fill="#DCD5CB"/>
<path d="M340.779 454.35C320.555 454.35 302.829 470.424 302.829 488.746C302.829 504.533 315.889 513.79 340.606 515.499C353.512 516.402 363.114 514.001 369.164 508.355C374.157 503.707 376.673 496.947 376.673 488.247C376.673 469.56 360.56 454.369 340.759 454.369L340.779 454.35Z" fill="#0E141B"/>
<path d="M338.916 511.274C360.867 513.099 371.987 503.784 371.987 489.188C371.987 472.653 360.579 459.094 340.529 459.094C322.898 459.094 307.861 473.21 307.553 488.862C307.265 504.111 321.977 509.853 338.916 511.274Z" fill="#FADBDA"/>
<path d="M350.362 487.018C350.592 482.908 352.263 477.876 350.554 477.492C348.614 477.07 346.367 483.599 346.559 487.402C346.771 491.589 349.594 499.309 351.514 498.464C353.224 497.696 350.17 490.456 350.362 487.037V487.018Z" fill="#0E141B"/>
<path d="M326.509 486.365C326.721 482.467 328.315 477.684 326.682 477.32C324.838 476.916 322.707 483.119 322.879 486.73C323.072 490.706 325.76 498.042 327.585 497.235C329.217 496.506 326.317 489.63 326.49 486.365H326.509Z" fill="#0E141B"/>
<path d="M509.208 633.226C509.976 629.212 511.148 625.256 509.477 621.05C506.942 614.655 500.547 599.944 499.068 592.511C497.186 583.101 497.762 571.769 501.507 557.02C505.655 540.58 508.67 522.162 507.288 502.035C505.406 474.841 484.126 457.018 465.42 457.441C448.654 457.825 432.042 475.59 441.126 501.997C444.871 512.867 451.112 533.263 451.208 538.372C448.136 536.797 441.183 528.423 437.265 523.68C434.058 519.8 431.024 516.132 428.585 513.731C418.444 503.745 403.56 491.876 390.155 492.029C384.47 492.087 379.515 494.257 375.425 498.482C371.219 502.823 369.394 509.602 370.297 517.572C371.929 531.996 381.57 546.899 394.88 555.522L412.51 566.565C431.6 578.318 448.078 588.478 457.604 601.211C465.42 611.659 467.437 623.854 468.647 631.152C469.338 635.262 469.453 637.394 470.836 638.181C474.965 640.563 481.533 643.251 483.973 646.017C485.086 647.284 485.739 649.512 486.853 651.702C496.091 670.004 511.724 660.901 508.843 642.003C508.478 639.641 508.67 640.082 509.247 633.207L509.208 633.226Z" fill="#0E141B"/>
<path d="M503.811 637.355C504.791 631.843 506.577 625.563 505.463 623.009C493.806 596.391 488.812 587.153 496.59 555.08C502.813 529.422 505.674 505.896 499.913 488.553C488.025 452.851 428.796 453.005 447.732 507.125C451.477 517.822 453.82 525.043 455.376 537.354C456.163 543.519 452.053 546.496 447.406 541.233C436.516 528.884 421.421 512.426 408.189 503.918C381.148 486.556 368.3 508.969 381.244 533.417C387.044 544.364 401.14 553.448 414.911 562.494C431.638 573.498 450.632 582.448 461.867 599.252C471.335 613.426 472.334 632.4 474.447 634.513C479.018 639.084 487.045 639.545 488.37 644.116C493.652 662.361 508.536 660.92 503.792 637.355H503.811Z" fill="#D4975C"/>
</g>
<defs>
<clipPath id="clip0_42_63436">
<rect width="520" height="462.615" fill="white" transform="translate(160 269)"/>
</clipPath>
</defs>
</svg>
