<svg width="800" height="800" viewBox="0 0 800 800" fill="none" xmlns="http://www.w3.org/2000/svg">
<g clip-path="url(#clip0_42_63494)">
<path d="M323.404 560.995C319.505 572.531 301.256 638.813 301.256 648.041C301.256 663.913 313.899 682.185 324.327 682.185C327.718 682.185 338.169 675.103 338.169 675.103L342.484 682.785C342.484 682.785 339.092 693.559 336.647 697.55C334.178 701.542 329.264 713.238 329.264 715.384C329.264 717.53 337.27 737.532 341.561 737.532C345.852 737.532 353.857 733.841 353.857 733.841C353.857 733.841 358.471 738.155 360.317 738.155C362.163 738.155 379.074 724.612 379.074 721.244C379.074 717.876 379.074 697.873 380.619 693.859C382.165 689.868 394.162 667.097 394.162 664.029C394.162 660.96 392.616 651.109 390.77 650.186C388.925 649.264 377.228 646.795 377.228 646.795C377.228 646.795 374.459 639.113 371.391 638.19C368.323 637.267 362.786 636.344 362.786 636.344C362.786 636.344 387.702 598.808 397.853 587.434C424.015 558.112 341.745 506.641 323.404 560.972V560.995Z" fill="#D4975C"/>
<path d="M341.861 672.957L338.331 676.025C338.331 676.025 348.321 688.645 357.41 688.645C363.87 688.645 379.258 678.794 379.258 660.499C379.258 642.204 372.637 638.974 371.414 638.189C370.192 637.428 362.348 636.344 362.348 636.344L361.125 638.812C361.125 638.812 368.669 647.279 368.669 655.885C368.669 664.49 352.358 675.725 349.451 675.725C346.544 675.725 341.907 672.957 341.907 672.957H341.861Z" fill="#28343B"/>
<path d="M181.289 370.823C181.289 370.823 175.291 386.742 173.445 391.125C171.6 395.508 166.755 404.506 165.37 407.044C163.986 409.582 161.218 420.655 161.218 423.193C161.218 425.731 170.907 438.189 175.983 439.343C181.059 440.496 192.363 437.036 195.362 437.728C198.361 438.42 261.806 459.183 268.727 461.029C275.648 462.875 271.957 461.952 283.492 464.49C313.322 471.065 316.806 406.998 287.414 397.585C275.879 393.894 266.881 392.279 255.577 391.125C244.272 389.972 216.357 393.432 216.357 393.432C216.357 393.432 217.972 383.05 218.202 379.128C218.433 375.206 217.972 368.285 217.972 368.285C217.972 368.285 207.128 374.284 198.592 373.591C190.056 372.899 181.289 370.823 181.289 370.823Z" fill="#D4975C"/>
<path d="M193.747 351.445C190.286 351.445 168.831 344.985 166.524 344.985C164.217 344.985 152.22 344.985 149.682 342.447C147.144 339.909 115.538 302.996 115.538 288.692C115.538 274.389 129.149 261.008 132.379 255.009C135.609 249.011 144.607 225.479 150.605 221.095C156.603 216.712 188.671 204.254 197.9 204.254C207.128 204.254 237.12 218.558 239.427 221.788C241.734 225.017 253.5 241.167 253.5 260.085C253.5 260.085 262.959 266.775 263.882 269.544C264.805 272.312 263.882 295.152 259.268 298.613C254.653 302.073 237.351 308.072 237.351 308.072C237.351 308.072 236.658 324.913 224.431 334.142C212.204 343.37 198.592 351.445 193.747 351.445Z" fill="#D4975C"/>
<path d="M499.041 192.787C499.041 199.87 525.18 232.169 535.331 232.169C545.482 232.169 547.627 231.246 547.627 231.246C547.627 231.246 556.233 252.471 579.303 252.471C602.374 252.471 635.896 213.089 635.896 195.879C635.896 178.668 615.893 135.595 603.597 128.812C591.3 122.029 547.004 120.207 536.23 126.044C525.456 131.881 499.018 184.805 499.018 192.787H499.041Z" fill="#D4975C"/>
<path d="M576.951 274.85C576.951 274.85 578.104 283.617 577.412 292.153C576.72 300.689 575.797 310.61 576.489 313.378C577.181 316.147 580.873 321.914 580.873 321.914C580.873 321.914 563.108 347.061 554.111 357.212C545.113 367.364 529.425 384.205 525.272 389.281C508.961 409.214 527.925 471.62 555.726 452.725C567.261 444.881 595.176 417.196 604.635 398.97C614.094 380.745 622.4 356.059 625.168 348.907C627.937 341.755 644.317 314.07 644.086 311.994C643.855 309.918 633.704 292.615 630.013 286.616C626.322 280.618 621.015 266.545 621.015 266.545C621.015 266.545 604.174 276.927 599.329 277.388C594.484 277.85 576.951 274.85 576.951 274.85Z" fill="#D4975C"/>
<path d="M163.294 345.446C163.294 345.446 166.293 360.212 168.6 363.211C170.907 366.21 183.827 373.362 199.284 373.362C214.741 373.362 239.888 358.135 239.888 335.526C239.888 324.683 232.967 323.529 232.967 323.529C232.967 323.529 215.641 348.238 199.284 350.753C187.287 352.598 178.751 348.446 174.829 347.523C170.907 346.6 163.294 345.446 163.294 345.446Z" fill="#28343B"/>
<path d="M557.34 243.935C557.34 243.935 555.725 260.085 559.186 264.007C562.646 267.929 579.257 278.08 595.637 278.08C605.327 278.08 628.859 260.777 630.013 256.855C631.166 252.933 631.628 240.936 630.936 234.938C630.243 228.939 627.244 219.711 627.244 219.711C627.244 219.711 603.943 252.01 579.949 252.01C566.568 252.01 557.34 243.935 557.34 243.935Z" fill="#28343B"/>
<path d="M340.938 673.048L338.331 676.047C338.331 676.047 348.321 681.815 351.781 681.815C355.242 681.815 373.468 669.588 373.468 654.592C373.468 648.132 364.931 637.52 364.931 637.52L363.086 637.981L362.163 639.365C362.163 639.365 368.392 648.132 368.392 654.823C368.392 661.513 353.465 675.748 349.405 675.748C345.345 675.748 340.938 673.048 340.938 673.048Z" fill="#28343B"/>
<path d="M387.079 549.16C376.005 569.462 370.468 603.145 365.854 610.067C361.24 616.988 333.094 683.893 312.792 676.51C312.792 676.51 319.251 682.208 324.327 682.208C329.402 682.208 341.86 672.98 341.86 672.98C341.86 672.98 348.32 676.372 350.466 675.449C352.611 674.526 368.622 664.675 368.622 655.908C368.622 647.141 362.163 639.366 362.163 639.366C362.163 639.366 390.47 597.309 397.853 587.457C405.236 577.606 404.313 565.933 397.23 559.15C390.147 552.367 387.079 549.16 387.079 549.16Z" fill="#AE7B4A"/>
<path d="M377.228 646.818C377.228 646.818 379.696 658.515 379.696 661.883C379.696 670.973 371.045 689.568 357.249 689.568C350.489 689.568 344.329 684.031 344.329 684.031C344.329 684.031 337.569 709.57 337.569 713.862C337.569 718.153 339.715 735.709 342.483 735.709C345.252 735.709 353.857 734.487 353.857 734.487C353.857 734.487 358.471 738.178 360.317 738.178C362.163 738.178 379.073 725.881 379.073 721.267C379.073 716.653 378.773 698.82 380.619 693.882C382.465 688.968 394.162 667.743 394.162 664.052C394.162 660.361 392.016 650.833 389.547 649.91C387.079 648.987 377.251 646.841 377.251 646.841L377.228 646.818Z" fill="#AE7B4A"/>
<path d="M251.885 271.851C251.885 271.851 263.882 280.156 263.882 284.309C263.882 288.462 261.575 299.535 258.806 300.92C256.038 302.304 237.581 309.225 237.581 309.225C237.581 309.225 234.813 319.838 230.199 327.22C225.585 334.603 202.514 351.444 193.747 351.444C184.98 351.444 169.754 344.985 166.524 344.985C163.294 344.985 150.836 344.292 148.529 342.447C146.222 340.601 125.919 311.532 125.919 311.532C125.919 311.532 154.066 335.064 157.295 335.987C160.525 336.91 167.908 335.064 170.676 335.064C173.445 335.064 190.517 335.064 194.208 332.296C199.745 328.143 207.589 307.841 203.898 303.688C203.898 303.688 220.509 297.69 224.2 294.46C227.892 291.23 251.885 267.237 251.885 259.393V271.851Z" fill="#AE7B4A"/>
<path d="M180.366 375.206C180.366 375.206 214.049 395.508 213.127 398.277C212.204 401.045 219.125 386.28 218.663 381.666C218.202 377.052 217.971 368.285 217.971 368.285C217.971 368.285 204.821 374.284 199.284 373.361C193.747 372.438 181.289 370.823 181.289 370.823L180.366 375.206Z" fill="#AE7B4A"/>
<path d="M161.218 423.193C161.218 423.193 174.829 429.192 178.059 429.192C181.289 429.192 195.593 427.807 200.207 428.269C204.821 428.73 291.567 448.571 304.486 450.878C304.486 450.878 301.256 471.18 278.186 464.259C255.115 457.338 196.977 437.497 194.209 437.497C191.44 437.497 173.907 440.266 172.984 439.343C172.061 438.42 161.218 423.193 161.218 423.193Z" fill="#AE7B4A"/>
<path d="M501.048 196.18C501.048 196.18 528.271 218.789 534.27 219.25C540.268 219.712 566.568 215.559 571.183 212.329C575.797 209.099 592.869 190.181 592.869 190.181C592.869 190.181 594.253 214.175 603.481 214.175C612.71 214.175 635.319 188.336 630.705 177.262C630.705 177.262 636.703 193.873 635.319 200.794C633.935 207.715 610.403 252.011 581.334 252.011C564.723 252.011 556.417 243.244 554.11 241.398C551.803 239.552 547.651 231.247 547.651 231.247C547.651 231.247 533.808 233.093 530.578 231.247C527.348 229.401 509.353 212.79 505.662 207.715C501.971 202.639 501.048 196.18 501.048 196.18Z" fill="#AE7B4A"/>
<path d="M576.95 274.851L578.404 285.694C578.404 285.694 586.386 294.922 596.237 292.777C606.088 290.631 622.699 271.252 622.699 271.252L621.015 266.568C621.015 266.568 599.629 278.104 595.637 278.104C591.646 278.104 576.95 274.874 576.95 274.874V274.851Z" fill="#AE7B4A"/>
<path d="M642.701 311.994C642.701 315.685 627.013 345.216 624.245 351.676C621.476 358.135 606.25 404.277 587.332 425.502C568.414 446.727 561.493 449.495 555.725 452.725C549.957 455.955 539.806 459.646 531.962 449.034C531.962 449.034 573.951 417.196 584.102 398.278C594.253 379.36 616.862 336.91 621.938 329.989C627.013 323.068 642.701 311.994 642.701 311.994Z" fill="#AE7B4A"/>
<path d="M216.679 367.916C217.049 378.667 214.672 389.372 210.335 399.084C206.874 406.836 208.951 408.889 214.303 401.045C220.486 392.002 220.186 375.414 219.563 368.031C219.471 367.016 216.633 366.878 216.656 367.893L216.679 367.916Z" fill="#0E141B"/>
<path d="M215.272 391.494C214.672 391.656 213.103 396.916 214.072 396.639C233.544 391.079 258.645 391.333 282.777 397.331C289.075 398.9 289.444 397.7 283.399 395.324C261.413 386.719 235.159 386.28 215.272 391.471V391.494Z" fill="#0E141B"/>
<path d="M179.813 369.232C178.313 375.531 167.055 400.308 163.986 405.845C161.079 411.082 158.172 419.665 158.542 424.417C158.888 429.008 171.069 441.236 175.152 441.651C176.629 441.789 192.017 439.136 194.832 439.805C196.631 440.221 265.266 462.576 273.825 464.353C286.907 467.098 287.645 463.499 274.564 460.777C266.235 459.023 197.531 435.422 195.547 434.937C191.971 434.084 176.537 437.152 175.614 437.06C173.307 436.645 164.263 426.747 164.032 423.679C163.756 420.172 166.109 412.467 169.039 407.184C172.199 401.508 181.843 376.569 183.366 370.109C183.596 369.117 180.043 368.286 179.813 369.255V369.232Z" fill="#0E141B"/>
<path d="M232.045 325.675C235.09 328.466 237.559 333.611 236.959 339.817C235.182 358.412 215.964 370.893 199.123 370.893C183.942 370.893 175.037 365.471 170.238 360.926C169.039 359.75 166.04 350.568 165.578 345.931C165.486 344.915 162.048 345.285 161.933 346.3C161.287 352.413 163.179 362.449 165.601 364.733C170.884 369.739 183.043 375.184 199.446 375.184C217.902 375.184 243.119 358.435 243.119 338.571C243.119 333.957 238.481 324.959 234.19 321.037C233.452 320.345 231.283 324.959 232.045 325.651V325.675Z" fill="#0E141B"/>
<path d="M131.71 252.495C127.004 260.869 113 276.327 113 289.085C113 303.089 143.499 340.486 147.145 343.232C152.082 346.946 165.786 347.2 165.901 347.223C172.061 347.546 189.571 353.706 192.963 353.706C207.267 353.706 239.404 331.512 239.404 308.787C239.404 305.603 237.258 300.482 234.605 297.367C252.024 278.634 256.015 270.144 256.015 258.539C256.015 246.935 250.847 232.585 243.395 222.964C236.797 214.428 215.272 206.607 203.714 203.585C191.117 200.309 159.626 210.46 149.198 219.042C145.46 222.134 133.556 249.196 131.687 252.518L131.71 252.495ZM176.144 345.746C170.584 344.316 167.377 343.531 165.901 343.531C162.394 343.531 153.697 342.77 150.697 340.509C146.937 337.695 118.814 301.174 118.814 289.062C118.814 279.672 124.928 270.121 130.326 261.7L134.894 254.294C136.832 250.857 138.862 246.566 140.985 242.044C144.676 234.223 148.875 225.387 151.989 222.803C156.834 218.812 189.087 204.854 202.652 208.407C221.547 213.344 234.859 219.365 239.196 224.971C246.556 234.5 250.109 247.696 250.109 258.424C250.109 263.938 249.186 268.806 247.34 272.197C244.572 277.342 238.043 287.447 231.352 295.568C231.306 295.591 231.26 295.568 231.214 295.614C231.122 295.683 231.145 295.798 231.075 295.891C226 302.004 220.878 306.918 217.233 307.564C214.718 308.026 210.473 306.711 205.859 304.081C202.768 302.327 202.145 303.596 204.567 306.203C207.797 309.664 213.265 311.994 217.902 311.163C222.078 310.402 227.177 305.926 232.114 300.297C233.359 302.927 234.19 306.457 234.19 308.741C234.19 328.812 205.283 349.045 192.04 349.045C189.087 349.045 181.912 347.2 176.144 345.723V345.746Z" fill="#0E141B"/>
<path d="M251.424 263.223C254.492 263.223 261.967 266.73 262.198 272.244C262.544 280.018 261.506 293.861 257.238 297.898C252.37 302.489 240.857 306.642 235.92 306.942C234.905 307.011 235.413 309.987 236.405 309.918C241.965 309.595 255.646 306.273 261.321 300.92C268.335 294.322 266.904 272.751 266.858 271.851C266.489 263.592 255.553 259.555 251.401 259.555C250.386 259.555 250.386 263.223 251.401 263.223H251.424Z" fill="#0E141B"/>
<path d="M552.68 362.612C558.724 355.529 582.787 322.815 582.787 322.815C583.387 322.007 580.503 319.746 579.903 320.577C579.903 320.577 553.88 354.422 549.75 358.851C533.9 375.831 531.063 379.153 528.294 383.537C522.734 392.35 524.049 391.934 531.755 384.921C536.83 380.307 542.114 375.07 552.703 362.635L552.68 362.612Z" fill="#0E141B"/>
<path d="M590.4 327.981C592.454 328.673 593.561 327.912 591.254 326.528C586.109 323.459 582.372 320.529 579.765 314.9C578.519 312.201 578.842 306.203 579.188 299.881C579.626 291.853 580.111 282.809 578.104 275.034C577.942 274.388 575.243 273.973 575.358 274.85C576.281 283.386 575.081 291.76 574.62 300.158C574.228 307.564 573.097 313.539 574.735 317.069C577.781 323.598 583.202 325.536 590.423 327.981H590.4Z" fill="#0E141B"/>
<path d="M620 266.753C621.869 274.389 626.552 285.209 634.65 299.859C636.911 303.943 640.856 309.803 640.856 311.971C640.856 314.14 634.466 327.221 630.221 335.826C627.429 341.502 624.799 346.854 623.461 350.015L621.961 353.798C615.594 370.363 596.191 420.749 558.978 448.457C552.68 453.163 554.272 455.194 561.17 451.387C602.997 428.386 618.916 371.909 625.376 355.113L626.829 351.422C628.121 348.354 630.728 343.047 633.497 337.441C640.349 323.507 646.37 314.855 646.37 311.971C646.37 309.087 642.609 303.85 638.757 297.437C629.621 282.187 623.83 272.428 622.377 265.138C622.169 264.146 619.862 266.245 619.977 266.753H620Z" fill="#0E141B"/>
<path d="M625.375 220.473C628.744 222.272 628.836 253.141 627.198 257.224C625.768 259.785 606.25 275.566 594.715 275.566C585.256 275.566 563.984 269.683 560.893 261.954C560.062 259.854 557.871 246.381 558.286 243.474C558.424 242.482 554.964 241.098 554.825 242.09C554.318 245.597 554.641 260.662 555.679 263.246C560.201 274.55 581.98 279.695 594.738 279.695C606.204 279.695 629.828 264.722 633.196 258.009C634.604 255.217 635.573 226.863 628.421 218.327C627.06 216.689 624.545 220.012 625.398 220.473H625.375Z" fill="#0E141B"/>
<path d="M534.731 124.198C525.872 129.896 496.665 176.845 496.665 192.718C496.665 206.491 524.049 230.046 529.494 232.791C531.64 233.876 540.706 234.799 547.189 233.784C549.958 246.472 568.737 253.832 579.949 253.832C604.797 253.832 637.626 218.903 637.626 196.64C637.626 183.743 625.675 140.578 607.173 127.428C591.785 116.492 541.791 119.653 534.731 124.198ZM532.793 229.146C527.118 226.309 501.971 203.676 501.971 192.487C501.971 181.298 531.593 131.881 537.569 128.051C542.967 124.59 589.016 121.499 603.343 131.696C620.231 143.693 632.551 182.498 632.551 195.256C632.551 215.142 602.143 250.187 579.926 250.187C570.26 250.187 556.233 243.565 549.888 233.045C561.331 230.83 573.559 225.109 577.158 220.91C582.672 214.496 592.846 198.832 593.884 192.256C594.922 185.75 594.299 184.805 591.692 191.795C589.847 196.755 580.065 211.89 574.389 218.511C568.829 224.994 537.084 231.292 532.77 229.146H532.793Z" fill="#0E141B"/>
<path d="M319.459 567.062C315.791 577.052 299.411 629.353 299.411 646.725C299.411 662.436 308.385 684.492 325.55 684.492C332.886 684.492 345.39 673.718 349.243 662.967C350.973 658.122 349.289 657.084 346.982 661.675C342.645 670.373 330.487 680.039 325.55 680.039C311.061 680.039 303.702 660.568 303.702 646.794C303.702 638.028 321.005 577.236 323.035 567.824C325.204 557.673 323.035 557.303 319.459 567.062Z" fill="#0E141B"/>
<path d="M392.777 591.447C379.558 606.513 357.871 637.427 354.642 646.978C352.334 653.761 354.503 654.384 358.033 648.132C362.024 641.072 383.964 608.104 395.038 592.832C400.829 584.849 399.283 584.042 392.777 591.447Z" fill="#0E141B"/>
<path d="M360.94 640.658H360.917C362.717 640.981 366.8 649.701 366.8 655.446C366.8 660.383 355.173 673.602 349.566 673.602C343.96 673.602 341.999 671.757 341.976 671.734C341.284 671.042 339.831 672.38 340.477 673.141C340.753 673.464 342.161 677.271 349.543 677.271C357.318 677.271 370.445 662.39 370.445 655.446C370.445 650.832 366.477 641.419 362.163 638.674C361.494 638.235 359.948 640.588 360.94 640.658Z" fill="#0E141B"/>
<path d="M362.463 638.189C364.17 638.189 369.361 638.189 371.876 640.957C374.113 643.449 377.251 651.085 377.251 660.337C377.251 675.656 366.523 687.122 356.926 687.122C349.105 687.122 339.692 677.455 339.692 675.102C339.692 674.087 337.316 675.817 337.547 676.648C339.392 683.107 348.874 690.79 356.926 690.79C368.277 690.79 381.542 678.286 381.542 660.36C381.542 650.739 377.666 641.926 374.598 638.535C371.899 635.536 368.461 634.982 364.308 635.766C363.547 635.905 361.448 638.212 362.463 638.212V638.189Z" fill="#0E141B"/>
<path d="M342.16 682.186C340.615 687.1 336.831 694.99 332.863 700.989C329.541 706.041 327.718 710.632 327.718 715.408C327.718 718.937 332.978 738.778 341.861 738.778C348.989 738.778 355.08 735.618 355.334 735.479C356.234 735.018 356.58 733.91 356.095 733.011C355.634 732.111 354.526 731.765 353.627 732.249C353.58 732.272 348.067 735.11 341.861 735.11C336.97 735.11 331.387 719.353 331.387 715.408C331.387 712.501 333.74 706.964 336.07 702.765C337.754 699.72 342.714 687.561 344.214 682.74C344.514 681.771 342.46 681.217 342.16 682.186Z" fill="#0E141B"/>
<path d="M376.513 647.833C378.935 649.009 381.565 649.632 383.918 650.209C385.649 650.624 387.287 651.04 388.463 651.57C390.609 652.539 392.731 658.861 392.316 663.613C391.993 667.281 383.111 681.793 379.766 692.751C377.228 701.103 377.458 717.783 376.42 720.621C374.344 726.273 362.532 736.216 360.294 736.332C358.356 736.239 351.642 727.773 351.665 725.419C351.665 725.419 352.611 716.929 353.373 709.87C353.857 705.371 351.988 705.094 351.227 709.57C350.466 714.022 348.02 725.05 348.02 725.05C347.674 728.142 352.058 733.817 353.788 735.732C356.326 738.57 358.517 740 360.294 740C364.747 740 378.128 728.58 380.435 722.328C381.657 719.006 380.435 700.641 382.442 693.72C384.587 686.338 395.061 668.804 395.961 663.844C396.884 658.791 394.369 650.209 389.963 648.225C388.486 647.556 379.166 646.425 376.905 644.972C376.051 644.418 375.867 647.533 376.489 647.833H376.513Z" fill="#0E141B"/>
<path d="M362.786 638.304C365.923 639.412 372.36 649.932 372.36 655.054C372.36 663.728 360.617 679.093 351.689 679.555C347.767 679.762 342.83 677.87 339.969 675.909C339.254 675.425 337.2 676.925 337.916 677.432C341.099 679.624 346.982 682.946 351.85 682.692C362.578 682.115 374.367 665.228 374.367 655.054C374.367 648.94 368.323 637.751 363.755 636.136C362.947 635.859 361.955 638.027 362.763 638.304H362.786Z" fill="#0E141B"/>
<path d="M300.333 342.285C299.226 326.274 295.719 298.912 291.405 289.061C287.091 279.21 281.254 264.444 281.254 264.444C281.254 264.444 291.566 269.981 294.104 274.134C294.104 274.134 289.49 253.14 294.796 242.527C294.796 242.527 299.41 252.448 305.87 256.6L306.332 247.834C306.332 247.834 317.175 262.368 329.172 271.135C341.168 279.902 349.935 286.823 358.933 290.745C367.93 294.667 375.544 299.05 379.696 301.127C383.849 303.203 382.003 338.963 359.856 349.575C337.708 360.188 301.487 358.965 300.333 342.262V342.285Z" fill="#FFF6E9"/>
<path d="M429.529 311.532C435.343 295.728 444.294 280.156 458.136 266.775C471.979 253.394 491.358 239.32 495.972 237.244C495.972 237.244 493.665 246.934 495.972 248.549C498.279 250.164 505.431 245.319 505.431 245.319L503.816 255.009L510.968 252.932C510.968 252.932 507.738 262.391 507.738 270.235C507.738 278.079 512.583 299.766 512.352 311.07C512.122 322.375 513.806 325.143 513.044 332.987C512.352 340.139 489.051 347.291 462.52 341.293C435.989 335.294 426.299 320.298 429.529 311.532Z" fill="#FFF6E9"/>
<path d="M362.624 267.467C362.624 267.467 357.548 278.541 357.548 290.307L321.328 306.687L298.718 327.22C298.718 327.22 288.106 332.065 283.492 331.604C278.878 331.142 272.187 329.296 272.187 329.296C272.187 329.296 276.57 336.91 281.877 340.832C281.877 340.832 270.572 343.831 262.497 343.37C262.497 343.37 269.649 350.983 280.031 355.136C280.031 355.136 248.655 365.287 236.889 374.053L250.501 383.743C250.501 383.743 237.581 384.897 228.814 392.049C228.814 392.049 252.808 390.895 260.652 396.201C260.652 396.201 240.811 396.893 231.121 402.43L259.268 406.352C259.268 406.352 246.117 415.119 233.89 424.809C221.662 434.498 215.203 441.42 215.203 441.42C215.203 441.42 241.503 446.265 249.116 448.341C249.116 448.341 228.814 466.797 225.815 477.179C225.815 477.179 242.426 470.027 249.578 469.104C249.578 469.104 238.504 499.327 237.12 504.864L262.267 503.018L254.423 513.4L268.265 512.016C268.265 512.016 264.112 526.089 259.729 535.779C255.346 545.468 245.887 566.693 245.887 566.693C245.887 566.693 275.417 556.081 279.57 555.85C279.57 555.85 288.567 568.308 289.721 573.384C289.721 573.384 295.719 557.926 298.718 554.235C298.718 554.235 317.636 586.073 323.865 594.147L322.25 572.692C322.25 572.692 356.395 610.297 365.623 616.987C365.623 616.987 367.469 591.84 369.776 585.842C369.776 585.842 383.157 597.839 394.923 608.682C406.689 619.525 419.608 633.598 419.608 633.598C419.608 633.598 431.674 618.21 437.834 606.536C443.994 594.839 446.763 584.088 446.763 584.088L470.456 607.782L471.079 587.48C471.079 587.48 490.458 591.794 499.064 595.485C507.669 599.177 519.366 602.868 519.366 602.868C519.366 602.868 512.606 584.711 510.76 576.406C508.915 568.1 509.838 557.326 509.838 557.326C509.838 557.326 518.766 559.172 522.134 560.718C525.526 562.264 531.985 563.786 531.985 563.786L528.294 548.398L542.136 556.404C542.136 556.404 538.745 542.561 538.145 537.324C538.145 537.324 552.288 535.179 563.361 534.856C574.435 534.556 590.423 534.556 590.423 534.556C590.423 534.556 576.512 519.629 570.052 510.632C563.592 501.634 558.286 493.79 558.286 493.79C558.286 493.79 563.361 492.406 577.435 492.406C591.508 492.406 596.352 491.714 596.352 491.714L572.128 473.257L597.737 458.031L568.898 450.648C568.898 450.648 609.272 401.738 607.888 400.123C606.504 398.508 551.134 411.659 551.134 411.659C551.134 411.659 560.132 401.738 563.592 399.2C567.053 396.663 571.205 392.51 571.205 392.51L544.213 394.586C544.213 394.586 553.902 384.205 560.593 379.821C567.283 375.438 575.589 370.593 575.589 370.593C575.589 370.593 563.592 360.442 557.363 357.212C551.134 353.982 537.061 349.137 537.061 349.137C537.061 349.137 541.214 345.677 546.289 342.677C551.365 339.678 555.748 337.833 555.748 337.833C555.748 337.833 546.52 336.218 539.599 335.987C532.678 335.756 526.91 336.679 526.91 336.679L537.061 322.837C537.061 322.837 525.987 323.99 520.45 325.144C514.913 326.297 512.837 327.912 512.837 327.912C512.837 327.912 491.381 302.304 480.999 298.382C470.618 294.46 436.704 296.305 436.704 296.305C436.704 296.305 433.866 290.93 432.159 286.916C430.475 282.924 429.39 278.449 429.39 278.449C429.39 278.449 425.699 282.763 425.699 287.054C425.699 287.054 420.162 273.212 418.017 267.675C415.871 262.138 412.318 252.448 411.718 249.518C411.095 246.588 409.25 237.521 409.25 237.521C409.25 237.521 400.321 256.601 397.876 256.901C395.407 257.201 393.1 245.366 392.962 241.051C392.962 241.051 384.195 251.502 380.504 259.808C376.812 268.113 371.575 283.04 371.575 283.04C371.575 283.04 367.423 277.664 366.038 274.896C364.654 272.127 362.647 267.444 362.647 267.444L362.624 267.467Z" fill="#FFF6E9"/>
<path d="M316.321 336.749C316.321 336.749 307.716 307.519 305.87 295.845C304.025 284.148 303.102 269.083 304.947 267.86C306.793 266.638 328.318 282.326 336.946 290.308C345.552 298.314 360.017 313.679 360.017 313.679C360.017 313.679 346.936 317.301 336.093 311.764C336.093 311.764 338.4 317.993 339.092 322.146L332.171 318.916C332.171 318.916 330.787 327.452 328.941 331.835L322.943 325.145C322.943 325.145 319.413 334.073 316.321 336.749Z" fill="#FADBDA"/>
<path d="M450.523 310.379C450.523 310.379 461.367 290.077 468.519 280.849C475.67 271.62 488.821 255.471 489.974 255.702C491.128 255.932 495.28 278.08 496.895 297.229C498.51 316.377 497.357 330.45 497.357 330.45C497.357 330.45 490.897 326.759 489.744 324.221C488.59 321.684 488.129 317.3 488.129 317.3L484.899 322.376C484.899 322.376 481.669 316.377 481.899 312.686C482.13 308.995 481.438 306.457 481.438 306.457C481.438 306.457 475.44 311.763 473.825 313.84C472.21 315.916 468.98 320.992 468.98 320.992C468.98 320.992 466.673 314.301 467.134 308.995C467.596 303.689 468.057 300.92 468.057 300.92C468.057 300.92 461.828 303.919 459.06 305.304C456.291 306.688 450.523 310.379 450.523 310.379Z" fill="#FADBDA"/>
<path d="M397 412.121C416.887 408.268 447.524 411.429 451.908 432.885C456.291 454.34 426.761 464.953 406.689 469.106C386.618 473.258 357.78 468.875 353.396 448.342C349.013 427.809 382.696 414.89 397 412.121Z" fill="#FADBDA"/>
<path d="M347.628 412.581C347.628 412.581 332.171 387.895 329.402 369.9C329.402 369.9 389.155 405.66 391.693 407.044C394.231 408.428 394.923 411.658 390.77 413.042C386.617 414.427 379.927 416.272 379.927 416.272C379.927 416.272 373.237 414.427 364.47 413.735" fill="white"/>
<path d="M416.84 404.969C415.456 405.661 414.994 409.583 417.071 409.814C419.147 410.044 428.375 412.813 428.375 412.813C428.375 412.813 436.219 406.584 441.064 403.585C445.909 400.585 460.905 391.588 472.44 388.819C472.44 388.819 477.054 366.21 476.593 359.289C476.593 359.289 461.597 370.132 450.985 378.438C440.372 386.743 432.067 393.434 428.375 396.663C424.684 399.893 416.84 404.969 416.84 404.969Z" fill="white"/>
<path d="M353.857 449.496C355.242 455.955 365.854 475.335 407.843 468.875C449.831 462.415 452.6 440.729 451.908 432.885C451.908 432.885 445.217 455.955 406.458 461.954C366.869 468.091 353.857 449.496 353.857 449.496Z" fill="#D8BEBD"/>
<path d="M589.178 533.933C585.025 533.01 538.123 537.325 538.123 537.325C538.746 539.793 540.73 555.158 540.73 555.158L528.271 548.399L531.963 563.787L509.815 557.327C506.124 566.394 519.343 602.845 519.343 602.845C514.568 599.777 471.056 587.457 471.056 587.457L470.433 607.759L446.74 584.066C446.74 584.066 440.119 600.377 438.273 605.452C436.427 610.528 419.586 633.598 419.586 633.598C414.741 626.677 369.753 585.842 369.753 585.842C367.215 592.533 365.6 616.988 365.6 616.988C357.526 610.066 322.228 572.692 322.228 572.692L322.458 593.456C320.151 590.226 298.696 554.235 298.696 554.235C297.081 556.081 289.698 573.384 289.698 573.384C289.698 570.846 282.316 556.543 279.547 555.85C276.779 555.158 247.41 565.009 247.41 565.009C247.41 565.009 300.634 519.791 308.616 517.322L312.007 533.633C312.007 533.633 318.767 521.937 321.236 518.868C321.236 518.868 335.378 539.793 347.698 550.867C347.698 550.867 347.698 533.633 349.543 529.342C349.543 529.342 372.314 557.65 394.462 565.632C394.462 565.632 386.456 537.948 388.302 531.188C388.302 531.188 403.69 546.576 414.141 550.867C414.141 550.867 419.055 533.633 425.215 530.565C425.215 530.565 438.135 553.936 452.9 559.473C452.9 559.473 446.14 528.719 453.523 517.023C453.523 517.023 468.288 526.874 478.739 528.719C478.739 528.719 473.202 503.503 477.516 494.275C477.516 494.275 517.498 505.972 531.663 507.194C531.663 507.194 516.898 499.812 511.984 489.961C511.984 489.961 526.749 488.738 535.354 483.201C535.354 483.201 524.903 474.596 519.366 467.213C519.366 467.213 529.217 464.145 531.663 461.676C531.663 461.676 521.812 459.83 519.366 456.139C519.366 456.139 535.446 448.111 554.595 436.714C557.94 434.73 548.274 426.609 548.274 426.609C548.274 426.609 581.334 427.832 604.266 401.393C604.266 401.393 594.415 422.318 588.878 427.855C583.341 433.392 568.876 450.694 568.876 450.694L597.714 458.077L572.106 473.304L595.176 491.529L558.263 493.837C558.263 493.837 571.644 512.754 574.413 516.446C577.181 520.137 589.178 533.979 589.178 533.979V533.933Z" fill="#DCD5CB"/>
<path d="M407.451 235.076C407.405 235.215 403.829 249.403 398.038 255.009C396.838 252.518 395.039 246.588 395.039 240.521C395.039 234.961 395.223 233.946 391.763 238.444C391.094 239.321 376.398 258.654 370.907 278.864C368.9 275.427 366.085 270.028 364.839 264.676C364.009 261.169 363.432 261.146 361.356 264.399C357.964 269.705 354.434 281.079 356.118 298.474C356.58 303.25 358.725 303.088 358.725 298.313C358.725 298.267 358.725 298.244 358.725 298.197C358.887 286.777 361.171 276.465 362.947 270.859C365.739 278.172 369.938 284.286 370.145 284.586C372.153 287.47 372.66 287.746 373.445 283.894C376.536 268.436 386.572 252.31 391.647 244.881C392.616 252.518 395.8 257.524 395.961 257.778C396.677 258.862 397.969 258.654 398.499 258.308C402.975 255.332 406.274 248.803 408.373 243.566C410.081 251.387 413.403 261.63 414.926 264.676C417.002 268.805 423.369 287.931 423.439 288.116C425.838 295.291 426.392 294.921 426.991 287.7C427.199 285.255 428.053 282.509 428.629 281.31C430.314 286.777 433.451 293.814 435.666 296.905C436.243 297.736 438.204 296.283 437.627 295.452C434.305 290.815 431.536 282.925 430.983 278.103C430.729 275.842 429.829 275.334 428.283 276.696C427.153 277.688 425.999 279.003 424.846 282.809C422.746 276.696 419.609 265.899 418.178 263.038C415.987 258.631 411.465 241.282 410.934 236.414C410.311 230.577 408.812 229.678 407.381 235.099L407.451 235.076ZM407.405 235.538C407.405 235.538 407.405 235.376 407.405 235.284C407.405 235.353 407.405 235.445 407.405 235.538Z" fill="#0E141B"/>
<path d="M292.743 239.298C290.067 247.604 289.537 254.848 291.797 270.005C288.337 265.922 283.446 261.815 278.901 262.346C275.533 262.738 275.671 264.168 278.163 265.737C278.324 265.829 290.944 276.58 298.649 338.156C299.572 345.538 301.856 345.262 301.856 337.994C301.856 337.948 301.856 337.902 301.856 337.856C298.649 293.307 289.813 274.596 284.415 267.144C288.914 269.521 292.305 274.619 292.351 274.689C298.511 284.147 298.949 283.179 295.627 273.12C294.081 268.506 293.551 263.638 293.551 259.093C293.551 254.317 294.151 249.957 294.774 246.635C298.188 253.187 304.486 257.732 304.832 257.962C308.247 260.362 308.731 259.969 307.647 256.001C307.416 255.125 307.093 252.771 307.393 252.056C311.731 260.592 337.708 282.786 356.326 291.23C357.249 291.645 357.157 288.831 356.741 288.531C345.252 282.786 312.353 258.17 308.616 244.743C307.324 240.106 306.447 239.737 305.086 244.535C304.44 246.773 304.071 249.472 304.209 253.856C301.279 251.064 297.519 245.02 296.342 239.667C294.935 233.323 294.612 233.554 292.79 239.298H292.743Z" fill="#0E141B"/>
<path d="M495.949 234.292C495.465 234.569 448.285 259.392 429.39 307.749C427.222 313.285 429.529 314.116 431.836 308.648C446.786 273.327 481.345 248.572 493.411 240.336C491.358 250.003 494.334 253.048 502.663 248.942C500.725 259.669 500.863 259.369 508.407 255.54C506.885 260.869 505.662 268.759 505.662 271.389C505.662 274.019 506.585 280.433 507.484 286.524L508.453 293.329C509.353 300.043 509.353 328.328 509.353 328.627C509.353 331.281 509.538 331.65 512.075 330.219C516.62 327.658 526.61 325.997 533.07 325.144C529.54 328.927 525.895 334.003 524.903 335.41C522.734 338.502 522.988 339.286 526.887 338.225C533.254 336.495 543.475 337.463 549.704 338.317C544.444 341.409 537.384 346.138 535.538 347.407C532.331 349.576 532.216 350.014 536.254 350.729C550.627 353.244 566.13 365.217 571.598 369.762C560.939 375.692 542.206 392.464 541.352 393.248C537.545 396.663 537.522 397.239 542.852 396.432C546.866 395.809 559.278 394.771 566.776 394.148C559.947 399.962 549.288 409.813 548.712 410.344C544.882 413.896 544.628 414.45 549.796 413.504C554.595 412.651 588.993 405.753 602.074 402.592C592.43 416.434 567.237 449.425 566.961 449.794C565.322 451.94 565.53 452.24 568.414 452.747C572.497 453.463 585.025 456.139 593.146 458.4C585.671 462.645 571.413 470.973 570.721 471.504C568.806 472.934 568.898 473.073 570.237 474.226C572.244 475.956 583.964 484.931 591.254 490.145C580.249 490.353 559.278 491.506 558.194 491.575C554.987 491.76 555.402 492.106 556.51 493.836C561.239 501.288 577.55 523.62 585.532 532.572C571.182 531.857 539.345 535.248 537.799 535.409C536.415 535.548 536.138 535.848 536.138 537.67C536.138 540.485 537.615 547.152 538.768 552.02C535.261 549.898 530.601 547.291 528.732 546.23C525.618 544.499 525.433 544.246 526.01 547.821C526.402 550.175 527.81 556.381 529.102 560.741C522.919 558.595 512.329 556.265 509.768 555.712C508.846 555.504 507.9 556.058 507.623 556.981C507.138 558.595 506.931 560.487 506.931 562.587C506.931 573.799 512.952 590.641 516.044 598.577C500.194 591.61 472.279 585.98 470.964 585.727C469.279 585.38 469.118 585.45 468.818 587.134C468.241 590.225 468.357 596.57 468.956 602.983C458.529 591.356 447.916 582.52 447.778 582.427C445.678 580.674 445.447 580.674 444.825 583.443C440.257 603.583 424.292 624.324 419.447 630.276C407.912 615.534 372.314 585.173 370.745 583.835C368.968 582.312 368.784 582.381 367.884 584.504C365.623 589.764 364.308 605.613 363.801 612.627C349.474 601.161 323.704 571.423 323.427 571.1C319.897 567.016 319.551 566.67 320.22 572.507C320.22 572.507 321.351 582.128 322.158 589.026C313.091 575.691 300.241 552.736 300.103 552.482C298.626 549.852 298.488 549.575 297.057 552.251C295.373 555.435 291.843 563.14 289.905 568.77C287.137 562.448 281.831 555.55 281.023 554.535C280.608 554.027 279.962 553.751 279.316 553.843C270.457 555.112 257.237 560.257 249.37 563.579C261.067 545.999 269.465 513.815 269.811 512.27C270.295 510.147 269.719 510.032 268.034 509.986C264.643 509.893 260.675 510.655 257.399 511.301C260.906 507.402 264.989 504.056 265.035 504.01C269.119 500.688 268.98 500.481 263.789 500.757C263.789 500.757 244.018 501.819 240.211 502.026C242.288 492.083 251.631 469.866 251.723 469.612C252.762 466.705 252.508 466.59 249.762 467.097C243.395 468.274 234.467 471.688 229.207 474.019C235.366 462.645 250.57 450.187 250.731 450.048C253.131 448.087 253.038 447.833 250.431 447.003C241.734 444.234 226.369 441.212 218.732 440.289C232.898 425.409 261.321 407.46 261.621 407.275C264.92 405.199 264.482 404.576 260.998 403.93C253.823 402.615 243.464 401.669 236.543 401.208C248.332 396.986 263.882 399.2 264.066 399.224C272.833 400.539 273.479 399.87 265.474 395.994C255.092 390.964 244.133 389.026 235.297 389.603C241.665 387.019 247.155 386.004 251.354 385.381C255.438 384.781 255.276 384.481 252.416 382.267C248.724 379.406 243.879 376.384 240.534 374.492C247.502 368.355 271.08 359.727 280.308 356.704C284.391 355.366 284.299 354.951 280.423 353.267C272.026 349.599 267.481 346.899 265.035 344.823C271.864 344.685 277.747 343.646 282.915 342.285C286.214 341.409 286.145 340.693 283.422 338.894C279.616 336.379 277.101 334.28 275.094 332.065C283.169 333.565 292.789 332.319 298.534 328.789C299.041 328.466 298.488 324.29 297.703 324.913C292.697 328.858 283.538 331.996 270.941 327.128C266.373 325.351 265.912 325.767 268.68 329.781C270.618 332.573 273.71 335.872 279.385 340.186C273.756 341.224 265.543 341.109 261.205 340.901C257.33 340.716 257.33 341.109 258.991 343.323C260.859 345.861 266.927 350.706 276.501 355.089C259.314 360.05 240.926 367.871 234.928 372.854C233.382 374.146 233.544 374.4 235.551 375.507C237.627 376.637 243.418 380.306 246.717 382.497C241.111 383.605 231.929 386.696 225.377 391.103C218.271 395.878 219.24 395.763 226.899 394.286C227.107 394.24 242.772 391.426 254.953 394.932C247.086 394.84 236.935 397.586 228.584 401.138C222.539 403.722 222.931 404.161 229.553 404.461C229.737 404.461 244.871 405.176 255.738 406.722C246.648 412.697 223.277 429.654 211.281 441.212C208.858 443.542 208.858 443.842 212.48 444.211C217.694 444.742 240.834 447.28 246.163 449.125C236.243 456.185 229.783 464.49 223.9 477.087C221.547 482.093 221.316 481.77 226.438 479.302C226.576 479.233 238.25 473.603 247.086 471.388C244.087 478.725 234.467 498.819 232.413 506.871C231.975 508.624 232.044 509.017 234.351 508.901C234.351 508.901 252.162 505.049 258.806 504.679C256.384 506.963 253.915 509.893 251.354 513.1C248.24 516.976 248.47 517.045 253.292 515.892C253.385 515.892 260.375 514.231 265.658 513.769C263.19 522.698 251.47 552.182 242.288 566.855C238.965 572.138 239.704 571.93 244.387 569.762C244.618 569.669 266.143 559.818 278.831 557.627C281.854 561.641 286.076 569.531 287.944 574.999C289.859 580.674 289.905 580.697 291.52 575.552C292.766 571.607 296.019 562.033 298.511 557.004C303.009 564.94 316.067 587.641 323.404 596.916C327.28 601.807 327.418 602.153 326.657 595.578C326.657 595.578 325.342 584.504 324.58 577.883C333.07 587.48 354.157 612.235 365.185 619.94C367.699 621.717 367.884 621.717 368.069 618.533C368.392 612.65 368.784 595.37 370.514 588.357C378.82 595.508 409.896 625.454 418.086 637.151C419.239 638.789 419.516 638.974 420.97 637.312C421.823 636.32 441.203 610.689 447.685 587.088C451.907 590.779 461.182 602.037 469.741 612.327C473.017 616.249 473.755 616.226 472.948 610.874C472.948 610.758 472.025 599.707 472.025 592.994C472.025 591.794 472.094 590.71 472.186 589.672C479.546 591.24 506.262 600.792 519.896 606.721C524.441 608.682 524.303 608.705 522.457 604.391C522.342 604.114 510.576 576.475 510.576 562.702C510.576 561.595 510.668 560.603 510.807 559.657C518.235 561.295 528.64 564.617 530.924 565.424C534.569 566.693 534.754 566.624 533.739 563.394C532.654 559.934 531.178 554.789 530.324 551.282C535.192 554.051 539.622 556.865 540.383 557.396C544.213 560.003 544.444 559.795 543.452 555.642C541.929 549.298 540.199 541.962 539.853 538.824C555.033 537.232 582.672 536.586 589.685 536.655C594.207 536.678 594.253 536.678 591.485 533.633C584.033 525.466 565.346 504.056 560.939 495.036C573.051 494.39 593.238 493.721 596.906 493.79C602.051 493.882 602.235 493.375 598.129 490.468C588.808 483.893 578.68 476.533 574.781 473.349C580.503 469.981 595.891 460.914 598.821 459.461C602.697 457.523 602.812 457.315 598.521 456.07C596.399 455.447 580.111 450.786 571.898 449.448C586.778 434.914 602.928 411.774 608.326 402.915C611.741 397.286 611.279 396.57 605.904 397.909C589.616 401.9 566.061 407.391 555.425 409.236C562.116 403.123 571.182 395.278 573.674 393.364C578.588 389.603 578.796 389.534 572.52 390.018C571.759 390.088 557.386 391.195 548.319 392.118C555.333 386.073 571.851 375.022 578.611 372.139C580.78 371.216 580.895 370.708 579.119 369.093C578.357 368.401 556.74 353.336 539.368 348.491C545.228 344.638 550.903 341.57 556.094 339.171C561.193 336.818 561.585 336.725 555.933 335.618C553.118 335.064 537.707 334.026 528.963 334.949C532.285 330.612 537.984 325.052 539.345 323.875C542.529 321.083 542.298 320.507 538.791 320.83C538.03 320.899 523.772 321.845 514.959 325.259C515.121 301.566 509.399 273.904 509.399 271.435C509.399 265.229 510.83 257.616 513.252 253.233C515.421 249.288 515.467 249.034 511.153 250.487C510.991 250.533 508.407 251.433 505.823 252.887C506.308 249.657 506.654 247.673 507.161 246.058C508.43 242.136 508.038 240.913 504.508 243.658C501.624 245.896 497.933 247.28 497.056 246.681C496.987 246.634 496.803 246.381 496.687 245.712C496.203 242.874 496.111 239.898 497.795 235.814C499.017 232.861 498.441 232.861 495.995 234.315L495.949 234.292Z" fill="#0E141B"/>
<path d="M333.578 311.925C334.386 313.147 336.093 316.285 337.708 320.369C335.401 318.684 333.717 317.669 332.102 316.608C330.118 315.27 329.633 316.054 329.633 319.4C329.633 321.453 329.01 326.067 328.157 328.974C326.08 326.044 325.088 324.66 324.027 323.414C320.959 319.746 321.213 320.992 320.244 325.444C319.39 329.366 316.622 335.526 312.93 339.517C309.631 343.093 309.908 343.854 314.153 341.409C317.798 339.333 322.135 333.196 323.843 328.466C325.065 329.804 326.38 331.581 327.857 333.75C328.641 334.903 329.264 334.557 329.864 333.357C331.479 330.058 332.725 325.675 333.186 321.107C336.624 322.676 338.239 323.368 339.554 324.36C340.453 325.052 341.053 325.306 340.776 323.598C340.154 319.607 339.807 317.692 338.654 314.439C346.936 317.369 353.304 317.392 362.924 313.678C369.246 311.233 368.438 309.225 362.117 311.671C349.566 316.516 336.093 309.387 335.955 309.318C331.987 307.172 331.41 308.718 333.555 311.948L333.578 311.925ZM333.209 318.015C333.209 318.015 333.209 318.2 333.209 318.292C333.209 318.2 333.209 318.085 333.209 318.015ZM324.604 324.591V324.752C324.604 324.706 324.604 324.637 324.604 324.591Z" fill="#0E141B"/>
<path d="M304.186 266.175C299.595 268.298 301.925 299.951 314.499 338.432C314.822 339.401 317.498 335.641 317.359 335.179C312.699 320.022 303.886 278.749 306.009 269.774C312.192 271.528 344.214 296.559 357.756 313.655C358.148 314.139 362.393 313.701 361.793 312.87C349.704 296.744 311.084 262.992 304.186 266.175Z" fill="#0E141B"/>
<path d="M467.434 299.006C465.058 299.836 458.136 303.827 444.294 313.817C440.534 316.263 441.456 317.947 445.217 315.501C445.217 315.501 462.312 305.558 465.727 303.758C465.473 305.904 465.219 308.811 465.219 311.856C465.219 315.686 465.611 319.677 466.949 322.445C468.264 325.214 468.357 325.283 470.11 322.676C473.34 317.901 477.147 312.802 479.777 309.918C480.007 313.909 480.838 319.815 483.468 323.115C485.406 325.537 485.729 325.445 486.652 322.515C486.79 322.076 486.952 321.592 487.159 321.084C488.29 325.675 491.127 329.505 500.748 332.896C503.655 333.912 504.508 333.196 501.832 331.674C492.996 326.621 489.536 324.522 489.536 315.294C489.536 313.725 489.397 313.54 487.99 314.532C486.675 315.455 486.075 316.447 484.829 319.677C483.722 316.124 483.353 309.318 483.353 306.781C483.353 302.097 483.514 302.143 479.684 305.281C477.331 307.219 472.509 312.894 469.303 317.439C469.026 315.755 468.887 313.863 468.887 311.925C468.887 307.611 469.418 303.205 469.787 301.059C470.295 298.06 470.249 298.037 467.434 299.006Z" fill="#0E141B"/>
<path d="M446.717 312.341C446.278 313.264 451.654 311.118 452.3 310.057C463.904 289.155 484.23 262.093 489.744 257.825C492.074 263.985 496.434 311.072 495.742 328.952C495.742 329.136 499.179 330.82 499.341 329.828C502.732 309.365 494.335 254.895 490.897 253.626C486.514 252.011 460.905 282.464 446.717 312.341Z" fill="#0E141B"/>
<path d="M436.796 323.99C438.734 332.827 447.985 334.972 454.907 327.566C457.121 325.213 456.037 323.783 453.638 325.951C448.401 330.704 440.303 328.558 438.411 323.298C437.327 320.253 436.104 320.83 436.796 323.99Z" fill="#0E141B"/>
<path d="M458.367 329.297C452.138 332.411 453.338 342.309 462.52 345.216C466.35 346.415 467.019 345.285 463.558 343.254C457.767 339.886 456.637 333.219 459.567 330.704C463.281 327.52 463.166 326.897 458.367 329.297Z" fill="#0E141B"/>
<path d="M443.141 356.867C442.149 360.442 443.51 361.088 444.986 357.674C447.986 350.661 456.383 348.054 464.02 352.483C466.488 353.914 467.065 352.783 464.827 350.984C455.461 343.393 446.048 346.462 443.141 356.867Z" fill="#0E141B"/>
<path d="M429.76 333.103C435.712 336.287 437.281 344.27 435.643 349.483C434.397 353.429 435.043 354.19 437.604 350.868C442.541 344.454 439.911 333.588 430.106 331.373C426.599 330.589 426.53 331.373 429.76 333.103Z" fill="#0E141B"/>
<path d="M416.379 358.135C409.457 367.594 406.92 373.131 405.766 379.129C405.305 381.529 407.519 383.097 408.535 380.006C410.842 372.9 414.302 365.518 418.247 358.827C421.8 352.759 420.554 352.437 416.402 358.135H416.379Z" fill="#0E141B"/>
<path d="M408.604 383.813C407.981 386.882 408.004 393.157 408.327 396.018C408.743 399.778 411.949 399.432 411.534 395.672C411.234 392.972 410.773 386.328 410.773 383.675C410.773 379.038 409.527 379.291 408.627 383.836L408.604 383.813Z" fill="#0E141B"/>
<path d="M484.437 352.482C457.767 367.778 421.131 401.807 416.84 403.699C413.195 405.314 413.656 406.86 417.532 405.891C421.223 404.968 424.361 403.538 429.829 398.739C435.758 393.502 464.042 368.609 485.614 354.236C491.174 350.521 490.251 349.183 484.46 352.506L484.437 352.482Z" fill="#0E141B"/>
<path d="M474.725 360.674C474.748 366.88 473.986 374.724 473.064 380.122C472.579 382.96 473.871 383.329 474.748 380.584C476.893 373.962 478.416 364.134 478.416 358.897C478.416 357.882 474.702 360.028 474.702 360.674H474.725Z" fill="#0E141B"/>
<path d="M324.465 368.355C328.41 371.308 380.758 404.53 389.363 407.599C394.231 409.329 394.692 407.322 390.955 404.299C383.157 398.024 330.556 369.186 325.711 366.187C321.351 363.487 320.336 365.264 324.465 368.355Z" fill="#0E141B"/>
<path d="M376.744 401.554C377.505 404.946 376.697 408.014 374.967 408.406C373.237 408.799 371.207 406.353 370.445 402.962C369.684 399.57 370.491 396.502 372.222 396.11C373.952 395.717 375.982 398.163 376.744 401.554Z" fill="#0E141B"/>
<path d="M374.598 401.07C375.013 402.892 374.782 404.484 374.136 404.646C373.467 404.784 372.614 403.446 372.198 401.6C371.783 399.778 371.991 398.186 372.66 398.025C373.329 397.863 374.182 399.247 374.598 401.07Z" fill="white"/>
<path d="M440.718 397.287C440.326 400.747 438.573 403.377 436.796 403.193C435.02 402.985 433.912 400.032 434.304 396.571C434.697 393.111 436.45 390.481 438.226 390.665C440.003 390.873 441.11 393.826 440.718 397.287Z" fill="#0E141B"/>
<path d="M438.827 396.132C438.619 397.978 437.904 399.431 437.212 399.362C436.52 399.293 436.15 397.724 436.381 395.855C436.589 394.01 437.304 392.556 437.996 392.625C438.665 392.695 439.057 394.263 438.827 396.132Z" fill="white"/>
<path d="M400.321 409.375C364.308 414.981 348.92 431.315 352.358 449.656C354.918 463.36 371.229 477.133 409.227 471.158C443.971 465.69 456.775 448.918 453.522 430.854C451.146 417.657 428.098 405.038 400.321 409.352V409.375ZM355.957 448.987C354.941 443.635 356.21 438.421 359.694 433.507C366.708 423.587 382.119 415.927 400.898 412.997C427.037 408.937 447.316 421.464 449.208 432.1C451.884 447.049 437.119 461.792 408.627 466.29C379.466 470.881 358.794 464.099 355.957 448.987Z" fill="#0E141B"/>
<path d="M385.233 431.176C387.933 430.507 390.147 451.478 388.625 451.778C386.248 452.262 381.957 431.983 385.233 431.176Z" fill="#0E141B"/>
<path d="M418.686 426.724C422.285 426.17 422.608 447.303 420.208 447.556C418.64 447.718 416.171 427.116 418.686 426.724Z" fill="#0E141B"/>
<path d="M473.825 387.435C460.675 389.742 443.141 398.048 426.599 411.567C425.815 412.213 429.529 413.966 429.875 413.69C446.371 400.793 459.982 392.488 474.056 389.489C482.522 387.689 482.361 385.913 473.825 387.412V387.435Z" fill="#0E141B"/>
<path d="M332.863 386.05C335.17 396.663 341.584 408.567 346.406 414.035C346.729 414.381 366.546 415.119 378.543 416.273C384.057 416.804 384.034 415.327 378.774 413.966C372.545 412.351 352.635 410.874 348.32 410.505C343.868 405.13 337.939 392.049 334.94 385.358C333.371 381.828 332.033 382.244 332.863 386.05Z" fill="#0E141B"/>
<path d="M456.591 467.489C453.984 469.058 450.131 476.717 449.508 479.786C448.885 482.854 443.049 511.785 442.126 514.23C441.203 516.676 431.675 538.224 431.675 540.692C431.675 543.161 443.672 582.519 445.517 589.602C447.363 596.685 456.591 636.043 457.514 640.657C458.437 645.271 460.582 666.197 460.905 668.965C461.205 671.733 472.602 686.799 485.822 686.799C499.041 686.799 515.352 660.959 515.352 653.577C515.352 646.194 511.361 629.883 515.052 620.655C518.743 611.427 555.956 554.212 557.502 548.675C559.048 543.138 561.816 528.073 561.816 521.29C561.816 514.507 563.039 506.525 560.27 502.21C557.502 497.896 522.135 467.443 513.829 467.443C505.524 467.443 493.827 475.748 493.827 475.748C493.827 475.748 486.145 470.212 483.976 468.989C481.83 467.766 458.137 466.52 456.591 467.443V467.489Z" fill="#D4975C"/>
<path d="M499.041 516.999C497.195 521.913 463.35 507.77 460.905 510.839C458.436 513.907 446.763 538.524 446.763 545.283C446.763 552.043 471.379 601.276 472.602 609.258C473.825 617.264 470.756 642.48 475.67 646.171C480.584 649.862 492.281 660.313 495.349 660.313C498.418 660.313 514.429 640.634 514.429 640.634C514.429 640.634 507.669 624.023 521.189 606.19C531.524 592.578 546.428 569.277 548.873 563.117C551.342 556.957 550.096 520.667 545.805 516.353C541.491 512.038 513.806 504.656 510.738 506.502C507.669 508.347 499.664 512.661 499.664 512.661L499.041 516.976V516.999Z" fill="#AE7B4A"/>
<path d="M494.288 473.489C491.058 470.536 485.798 466.614 483.837 466.406C479.246 465.945 462.012 465.184 457.237 465.184C450.754 465.184 446.486 480.249 446.463 480.41C446.024 483.432 441.087 509.133 439.703 514.255C439.149 516.308 429.806 537.349 429.252 540.717C428.56 544.87 441.18 579.66 441.18 579.66C444.94 592.81 455.899 640.82 456.821 648.134L457.421 653.325C458.206 660.338 457.86 669.428 459.405 673.281C462.058 679.902 471.794 688.669 485.867 688.669C496.849 688.669 513.714 674.711 516.944 656.993C517.636 653.117 517.29 648.895 516.897 644.419C516.228 636.575 513.898 626.332 518.443 616.388C521.927 608.752 530.671 597.032 538.93 583.905C548.181 569.186 558.632 555.159 560.616 549.184C564.446 537.718 566.015 511.44 563.615 503.758C561.055 495.568 524.58 465.345 514.913 465.345C507.485 465.345 498.302 469.798 494.311 473.489H494.288ZM513.967 469.775C521.973 469.775 556.279 498.29 558.355 504.934C560.547 511.971 558.724 535.526 555.148 546.254C553.303 551.814 544.282 566.187 535.562 580.075C527.256 593.295 518.674 606.976 515.098 614.82C510.161 625.64 510.991 635.445 511.66 643.312C512.029 647.718 512.352 651.548 511.753 654.939C508.638 672.058 494.104 683.432 485.867 683.432C477.031 683.432 465.658 674.803 464.043 670.743C462.681 667.352 461.782 659.346 461.066 652.909L460.467 647.672C459.544 640.267 448.516 591.887 444.732 578.645L441.133 566.856C437.973 556.797 434.028 544.293 434.628 540.694C435.112 537.856 444.086 519.261 444.732 516.885C446.14 511.717 451.261 485.578 451.7 482.51C452.392 477.665 455.506 470.236 457.26 470.236C461.989 470.236 479.223 471.044 483.722 471.482C487.944 471.897 501.901 487.331 501.901 491.807C501.901 496.283 496.78 520.392 494.934 528.236C493.734 533.357 495.142 534.672 496.941 528.859C498.372 524.175 507.392 497.459 507.392 491.784C507.392 488.439 502.94 481.933 496.18 475.565C500.125 473.512 508.061 469.775 513.99 469.775H513.967Z" fill="#0E141B"/>
</g>
<defs>
<clipPath id="clip0_42_63494">
<rect width="533.393" height="620" fill="white" transform="translate(113 120)"/>
</clipPath>
</defs>
</svg>
