<svg width="800" height="800" viewBox="0 0 800 800" fill="none" xmlns="http://www.w3.org/2000/svg">
<g clip-path="url(#clip0_42_63569)">
<path d="M602.255 427.727C610.595 428.435 639.664 434.472 648.17 437.121C646.936 434.999 638.414 426.477 630.435 422.759C632.558 422.94 639.302 423.993 644.271 425.77C639.664 421.871 614.313 402.195 597.829 398.642C601.712 398.642 618.212 399.876 628.511 400.583C625.336 399.267 590.311 381.698 562.378 374.706C525.494 365.493 482.771 370.626 463.803 389.956C437.63 416.623 434.241 480.354 445.181 512.631C445.181 512.631 474.661 597.107 502.266 604.296C528.077 611.025 578.154 603.079 587.005 544.365C589.193 529.822 585.902 507.268 578.878 485.948C583.879 493.433 590.394 503.632 592.499 506.429C592.318 504.652 590.015 484.796 588.946 479.482C591.249 481.078 610.036 496.509 614.116 498.812C613.047 494.551 606.664 481.44 603.653 476.653C605.775 478.068 615.712 484.631 621.025 489.057C619.068 480.733 604.722 455.201 599.047 449.344C607.914 450.232 634.861 457.323 642.839 460.514C638.76 456.434 615.185 434.801 602.238 427.711L602.255 427.727Z" fill="#FEEBBE"/>
<path d="M183.149 487.395C186.192 478.265 201.426 409.088 204.025 395.17C206.641 381.253 225.773 328.478 236.434 316.798C247.094 305.118 290.475 300.018 314.954 305.118C356.723 313.82 378.143 343.35 370.805 375.989C366.298 396.042 347.149 439.983 346.721 449.985C346.293 459.987 350.209 468.69 355.851 474.349C361.511 480.008 374.129 491.754 395.005 496.969C415.881 502.184 453.307 514.375 461.121 520.034C477.424 531.813 496.573 559.516 499.403 574.421C501.147 583.551 501.706 606.056 502.956 612.209C504.207 618.361 521.595 627.064 527.682 630.979C539.659 638.678 552.194 708.562 546.387 720.16C543.771 725.375 537.076 727.251 530.792 723.664C530.792 723.664 521.513 729.356 514.637 727.547C514.637 727.547 505.967 729.932 499.37 725.161C492.79 720.374 485.913 695.846 482.31 693.444C478.708 691.042 451.794 691.354 440.13 689.249C428.466 687.159 413.792 683.557 407.524 677.585C401.256 671.613 387.783 650.951 384.789 636.589C381.795 622.227 385.99 605.776 385.99 605.776C385.99 605.776 369.835 618.641 356.065 619.233C342.296 619.825 329.744 614.742 329.744 614.742C329.744 614.742 322.555 622.523 318.672 625.221C303.241 635.898 269.007 635.289 257.935 617.736C254.349 612.044 251.355 598.587 256.142 579.734C264.186 548.083 286.379 533.408 308.505 531.566C319.281 530.661 330.829 533.54 330.829 533.54L351.591 510.706L339.433 493.399L183.132 487.395H183.149Z" fill="#F3993A"/>
<path d="M186.637 588.322L191.424 600.496L189.927 625.353C189.927 625.353 176.618 640.061 176.634 644.864C176.7 669.87 194.632 711.014 212.3 719.256C218.831 722.299 236.22 723.599 247.11 719.683C258.083 715.735 280.177 698.939 273.218 678.359C271.639 673.719 264.96 663.125 261.9 656.61C258.84 650.096 240.579 590.494 234.492 583.518C225.329 573.039 182.984 579.142 186.637 588.306V588.322Z" fill="#F3993A"/>
<path d="M236.434 316.798C252.951 304.131 294.539 298.998 312.947 304.92C318.162 306.598 333.528 322.737 336.949 327.014C338.611 325.583 347.807 315.071 350.341 304.048C352.529 292.845 325.417 250.533 261.62 221.398C262.212 223.537 275.752 251.932 277.183 254.662C267.921 245.878 232.634 228.407 223.487 226.038C227.994 230.545 239.28 245.993 240.481 248.016C236.088 246.47 223.141 244.578 221.233 244.446C225.395 247.654 234.657 258.709 235.726 259.894C222.418 255.386 184.761 253.478 177.506 253.955C182.968 256.456 205.424 269.287 206.74 270.225C202.94 270.34 189.631 274.617 188.199 275.572C193.316 277.118 203.285 281.033 205.67 281.988C191.292 284.011 170.975 296.119 162.075 303.127C168.853 302.65 193.414 302.831 203.038 304.608C203.038 304.608 207.891 302.008 214.11 303.917C220.328 305.825 236.45 316.798 236.45 316.798H236.434Z" fill="#FEEBBE"/>
<path d="M262.492 444.426C251.042 434.16 241.369 418.959 240.81 400.534C240.201 380.25 252.194 363.914 267.279 359.785C278.795 356.626 293.206 361.562 298.553 362.944C303.899 364.326 322.423 361.167 330.517 360.065C338.611 358.963 350.406 361.43 358.632 365.823C366.857 370.215 371.941 376.664 373.175 378.309C374.408 379.954 381.4 385.712 382.091 398.33C382.782 410.948 378.669 418.087 372.632 423.566C366.594 429.044 359.866 430.426 355.901 429.883C355.901 429.883 345.718 448.176 340.338 452.388C334.959 456.599 318.82 459.166 309.92 460.334C301.037 461.502 274.205 454.938 262.476 444.409L262.492 444.426Z" fill="#FEEBBE"/>
<path d="M356.049 430.837C355.72 421.295 340.108 410.684 332.31 413.119C327.984 405.288 319.413 400.024 309.411 400.534L296.645 401.488C303.225 410.125 305.281 421.509 310.496 430.705C315.711 439.901 324.628 451.828 339.022 451.137C353.433 450.446 356.312 438.931 356.033 430.837H356.049Z" fill="#EE869A"/>
<path d="M287.333 401.438C287.333 401.438 295.624 412.279 303.142 414.845C302.089 409.581 296.644 401.47 296.644 401.47L287.316 401.438H287.333Z" fill="#CF7487"/>
<path d="M314.74 400.697C314.74 400.697 335.074 395.877 346.82 404.908C358.566 413.94 354.502 424.337 354.502 424.337C354.502 424.337 348.481 415.898 342.608 414.401C336.735 412.887 332.31 413.118 332.31 413.118C332.31 413.118 329.053 407.327 324.529 404.612C320.005 401.898 314.74 400.697 314.74 400.697Z" fill="#933000"/>
<path d="M217.893 392.604C211.576 394.644 193.233 397.589 184.843 392.867C172.587 385.974 159.377 370.264 158.094 353.533C157.239 342.428 190.223 305.759 208.187 303.966C223.125 302.469 245.86 323.724 249.627 328.626C254.875 335.453 226.81 389.742 217.893 392.62V392.604Z" fill="#F3993A"/>
<path d="M371.579 356.215C373.898 356.215 377.452 356.166 378.768 357.761C381.334 360.838 383.753 382.405 379.278 385.761L370.806 376.006C370.806 376.006 372.089 371.383 372.352 366.497C372.615 361.611 371.579 356.215 371.579 356.215Z" fill="#F3993A"/>
<path d="M285.096 539.314C288.764 540.203 290.525 542.489 292.153 544.019C293.749 545.5 294.374 546.109 295.937 545.928C299.507 545.516 307.831 544.052 317.142 543.838C325.796 543.625 338.726 544.398 344.023 545.023C346.836 545.352 345.8 545.73 343.447 546.224C340.322 546.865 335.387 547.885 334.515 548.461C335.617 548.675 348.218 550.353 354.075 551.867C358.188 552.919 357.102 553.002 354.585 553.281C350.11 553.775 340.7 554.416 339.401 555.173C339.845 555.436 344.451 556.555 346.935 557.46C350.456 558.727 349.074 558.414 345.899 559.154C340.124 560.487 325.944 563.136 315.958 565.225C305.873 567.331 293.749 570.621 288.238 571.591C285.902 572.003 285.787 572.595 283.286 570.045C278.894 565.554 270.438 554.153 268.99 552.936C268.99 552.936 280.292 539.611 285.096 539.364V539.314Z" fill="#0E141B"/>
<path d="M391.073 495.867C394.084 498.746 400.286 508.106 402.474 515.229C403.872 519.786 405.089 524.064 405.55 526.465C406.274 530.282 405.024 528.242 403.905 526.4C402.753 524.524 401.371 521.991 400.68 521.464C400.779 522.205 400.319 528.785 399.677 532.684C399.035 536.632 399.035 536.566 397.226 532.47C395.433 528.44 392.471 521.58 390.629 519.556C390.464 520.181 389.823 522.83 388.902 524.722C387.24 528.143 387.256 527.469 386.335 523.422C385.299 518.914 383.308 510.738 380.758 504.898C377.057 496.393 372.714 488.842 367.63 484.17C367.63 484.17 376.843 490.75 381.252 492.543C385.661 494.337 391.073 495.85 391.073 495.85V495.867Z" fill="#0E141B"/>
<path d="M424.568 505.54C427.578 508.961 433.945 519.441 436.692 528.077C438.584 534.016 440.114 540.991 440.673 545.088C441.298 549.595 441.068 549.562 439.423 547.44C439.061 546.98 438.633 546.404 438.14 545.812C437.975 546.387 437.646 550.747 437.136 554.317C436.379 559.795 436.741 560.058 435.327 556.225C434.751 554.679 433.928 553.215 433.517 552.606C433.385 552.935 432.579 556.307 432.25 558.857C431.477 564.878 431.51 563.513 430.26 558.676C428.713 552.737 426.13 544.249 425.456 543.196C425.39 543.92 424.814 546.157 424.206 548C422.445 553.396 423.235 551.027 422.1 544.364C421.014 538.047 418.826 528.472 416.128 522.468C412.015 513.272 406.998 503.417 401.108 498.762L424.551 505.556L424.568 505.54Z" fill="#0E141B"/>
<path d="M453.521 515.691C457.914 519.672 464.478 530.102 467.636 536.962C469.363 540.729 470.4 544.102 470.893 546.422C471.913 551.242 471.716 551.242 469.577 547.622C468.985 546.635 468.344 545.5 467.817 544.842C467.751 545.204 467.554 548.017 467.258 550.468C466.337 557.871 466.353 554.877 463.523 550.436C461.599 547.409 459.23 543.477 458.226 542.227C457.979 542.72 457.437 544.069 456.844 545.352C454.739 549.975 455.594 548.774 453.867 543.592C452.452 539.315 450.066 532.998 448.619 529.477C446.431 524.13 438.978 512.911 434.866 508.93L453.505 515.724L453.521 515.691Z" fill="#0E141B"/>
<path d="M501.163 591.448C492.609 591.169 483.923 591.383 478.264 591.942C470.532 592.715 471.354 592.6 474.76 590.297C476.059 589.425 477.309 588.388 478.79 587.566C478.28 587.484 473.328 587.714 469.133 587.73C463.359 587.763 460.365 588.767 466.912 584.638C469.429 583.058 473.114 581.166 474.019 580.706C473.328 580.459 469.429 580.311 466.699 579.982C463.392 579.571 461.385 579.867 467.455 578.271C472.391 576.971 489.286 573.862 499.469 575.211L501.163 591.432V591.448Z" fill="#0E141B"/>
<path d="M505.852 616.042C496.689 614.923 487.147 614.759 480.073 614.512C474.43 614.314 471.321 615.219 477.276 611.978C479.612 610.695 482.82 609.313 484.4 608.458C483.281 608.326 477.951 607.997 473.624 607.454C466.09 606.517 468.212 606.401 473.493 605.003C476.651 604.164 480.879 603.342 483.363 602.996C482.508 602.585 478.856 601.45 475.697 600.726C471.255 599.706 470.762 599.558 476.076 599.048C486.867 597.995 492.625 598.061 501.904 598.604L502.545 608.343L505.835 616.058L505.852 616.042Z" fill="#0E141B"/>
<path d="M233.406 641.03C232.123 642.149 225.313 649.321 218.025 657.497C210.128 666.348 202.034 676.482 198.481 680.66C196.474 683.013 196.507 682.914 194.039 681.927C190.403 680.463 184.317 676.613 181.734 673.323C181.734 673.323 176.897 652.217 176.634 649.65C176.371 647.084 178.115 643.448 178.115 643.448C179.217 644.699 183.017 649.025 185.452 651.312C186.965 652.76 187.738 651.838 188.989 650.769C195.947 644.83 218.469 628.79 221.759 627.869C220.953 629.679 216.659 635.618 216.149 636.835C219.67 634.927 227.764 630.83 229.277 630.32L231.564 637.065L226.349 642.182L233.423 640.997L233.406 641.03Z" fill="#0E141B"/>
<path d="M279.239 630.041C279.239 630.041 273.169 647.529 272.659 647.233C272.149 646.936 270.125 635.799 270.125 635.799L275.653 628.791L279.239 630.041Z" fill="#DBCBA6"/>
<path d="M267.97 641.013L262.903 657.859C262.903 657.859 268.184 670.642 270.01 671.859C271.836 673.076 279.947 670.444 284.01 664.966C288.073 659.488 288.879 645.077 288.879 645.077L277.314 637.361L272.675 647.232L270.389 637.476L267.987 641.013H267.97Z" fill="#D28431"/>
<path d="M317.471 650.226C317.471 650.226 318.952 662.021 324.282 669.194C329.612 676.367 346.573 698.477 370.147 698.839C393.722 699.201 413.43 682.634 413.43 682.634C413.43 682.634 405.32 677.847 402.753 673.603C400.17 669.358 396.304 663.847 396.304 663.847C396.304 663.847 360.03 650.588 348.054 649.848C336.077 649.107 317.488 650.209 317.488 650.209L317.471 650.226Z" fill="#D28431"/>
<path d="M394.084 716.903C398.131 725.013 400.154 731.084 403.839 733.288C407.524 735.493 415.437 738.635 427.594 733.65C438.896 729.027 444.193 727.251 446.743 722.595C449.869 716.887 450.247 703.446 442.318 689.808L413.397 682.619C413.397 682.619 404.366 689.611 398.114 692.375C391.863 695.138 383.374 697.343 383.374 697.343C383.374 697.343 390.004 708.76 394.051 716.87L394.084 716.903Z" fill="#D28431"/>
<path d="M278.976 630.7L277.314 636.589C277.314 636.589 291.676 649.29 306.416 650.211C321.156 651.132 335.14 647.809 348.037 649.849C360.935 651.889 396.288 663.849 396.288 663.849C396.288 663.849 387.668 648.714 384.789 636.573C381.91 624.432 385.233 607.307 385.233 607.307C385.233 607.307 367.795 618.97 356.065 619.217C344.352 619.464 329.053 614.677 329.053 614.677C329.053 614.677 321.683 623.511 315.793 626.653C309.904 629.795 288.534 634.023 278.96 630.7H278.976Z" fill="#DBCBA6"/>
<path d="M235.397 333.513C231.827 329.581 212.991 315.877 208.5 316.437C197.938 317.753 172.291 341.623 170.432 350.918C169.741 354.356 177.161 374.574 187.13 379.098C192.394 381.484 213.238 377.98 216.873 376.154C218.239 365.23 227.501 339.402 235.414 333.513H235.397Z" fill="#D3C9B6"/>
<path d="M304.146 339.764C304.146 339.764 288.238 326.209 286.659 326.85C281.723 328.824 268.941 351.938 271.063 358.831C271.063 358.831 275.637 358.041 283.517 359.456C291.397 360.871 297.385 362.927 297.385 362.927C297.385 362.927 296.595 356.627 298.487 350.474C300.379 344.321 304.163 339.764 304.163 339.764H304.146Z" fill="white"/>
<path d="M218.239 721.377C218.239 721.377 232.65 738.634 234.887 738.223C237.125 737.812 240.563 721.574 240.563 721.574L218.239 721.377Z" fill="white"/>
<path d="M235.052 738.668C233.933 738.256 231.301 724.717 231.186 721.986C231.186 721.986 238.523 721.559 239.773 722.118C241.023 722.677 236.154 739.095 235.052 738.668Z" fill="#DCDDDD"/>
<path d="M270.208 700.682L254.579 715.093C254.579 715.093 271.836 723.417 273.662 721.986C275.488 720.571 270.208 700.682 270.208 700.682Z" fill="white"/>
<path d="M273.185 722.561C270.833 719.255 265.289 711.161 262.837 708.15L270.207 700.682C270.207 700.682 273.679 723.252 273.185 722.561Z" fill="#DCDDDD"/>
<path d="M397.983 667.45C393.705 668.092 382.157 670.181 371.76 666.924C361.379 663.683 356.839 657.448 352.43 654.339C348.021 651.23 343.99 650.309 339.845 650.193C339.845 650.193 352.183 650.588 368.469 654.372C384.772 658.156 396.551 663.979 396.551 663.979L397.983 667.467V667.45Z" fill="#DBCBA6"/>
<path d="M571.886 471.997C574.748 500.161 558.511 527.025 537.487 536.764C516.462 546.503 482.853 539.232 477.523 535.596C477.523 535.596 493.809 554.795 497.494 568.284C501.18 581.774 502.545 604 502.545 604C502.545 604 530.594 613.196 554.958 596.646C579.322 580.096 589.143 556.028 587.153 525.841C585.162 495.653 572.593 467.9 572.593 467.9L571.87 472.013L571.886 471.997Z" fill="#DBCBA6"/>
<path d="M626.142 454.361C620.565 450.857 604.278 444.375 594.737 442.154C587.564 440.492 587.268 440.081 590.245 446.283C592.466 450.922 596.086 457.618 598.043 461.583C599.655 464.823 601.251 466.699 595.921 462.257C591.052 458.21 582.152 450.33 576.18 445.28C570.702 440.64 568.349 437.136 572.873 448.027C574.584 452.14 577.134 456.581 578.647 460.201C580.885 465.597 580.868 466.469 576.657 462.586C572.955 459.181 567.461 454.229 566.326 454.739L571.557 468.048L578.763 486.901C578.763 486.901 592.401 505.902 592.401 505.441C592.401 504.98 589.028 478.774 589.028 478.774L613.853 499.009L604.508 476.931C604.508 476.931 621.075 490.092 621.223 489.352C621.831 486.127 602.83 453.637 599.31 449.656C598.076 448.257 626.174 454.344 626.174 454.344L626.142 454.361Z" fill="#DBCBA6"/>
<path d="M234.114 246.783C236.861 248.099 246.732 257.525 252.737 263.81C260.781 272.232 256.537 269.074 249.331 268.86C244.083 268.695 237.503 268.728 233.357 268.909C229.146 269.074 228.8 269.469 232.666 270.291C235.2 270.834 238.523 271.64 240.382 272.298C244.462 273.729 242.307 273.697 238.589 273.993C233.966 274.371 227.024 276.329 223.602 277.365C220.18 278.402 215.228 279.652 225.231 280.244C232.551 280.672 243.968 281.445 250.532 281.988C258.494 282.662 256.076 283.436 250.499 285.327C239.823 288.963 217.482 295.988 208.862 302.469L219.851 304.97C225.971 304.674 245.745 304.065 259.021 306.451L236.088 316.338C236.088 316.338 223.224 307.224 219.341 306.22C215.459 305.217 207.348 303.341 203.104 304.838C196.606 303.21 164 303.588 163.506 302.831C168.886 294.968 198.991 282.218 204.486 282.218C201.87 280.474 188.989 276.724 188.874 275.852C188.742 274.98 205.983 269.979 205.983 269.979C205.983 269.979 180.994 255.617 179.003 254.12C187.755 251.751 230.215 257.756 234.97 259.746C236.467 260.371 221.858 244.381 221.858 244.381L234.114 246.783Z" fill="#DBCBA6"/>
<path d="M355.835 432.826C354.453 426.147 340.437 418.415 335.436 421.409C334.827 421.771 335.222 422.577 333.758 420.324C328.46 412.263 314.016 404.317 300.905 407.327C300.905 407.327 297.812 402.82 298.668 401.685C299.523 400.55 313.243 400.27 320.893 402.54C328.543 404.81 332.787 413.019 332.787 413.019C332.787 413.019 341.983 412.871 348.646 418.251C355.292 423.63 356.164 428.319 355.868 432.826H355.835Z" fill="#CF7487"/>
<path d="M199.682 417.429C204.173 414.336 216.84 397.277 218.025 394.595C220.41 389.216 216.034 386.814 210.54 393.098L202.873 394.496L199.666 417.429H199.682Z" fill="#D28431"/>
<path d="M254.02 609.083C262.13 614.413 275.784 617.967 290.031 617.522C299.605 617.226 320.07 611.041 329.02 597.666C331.191 594.425 334.35 589.506 336.637 586.562C339.252 583.173 339.565 583.189 351.755 585.427C355.67 586.15 393.014 594.787 394.873 595.297C394.873 595.297 386.812 611.156 367.022 616.832C347.231 622.507 328.756 615.088 328.756 615.088C328.756 615.088 318.869 633.134 289.471 631.67C258.099 630.124 254.628 611.205 254.02 609.083Z" fill="#D28431"/>
<path d="M533.046 713.514C531.598 711.457 529.755 704.054 528.012 697.573C526.268 691.091 523.076 681.73 518.651 676.482C514.226 671.235 503.203 669.507 496.113 670.198C488.809 670.922 480.468 673.801 463.705 673.587C446.941 673.373 436.856 670.198 426.361 659.9C415.865 649.618 413.496 625.632 412.887 616.782C411.867 602.058 409.005 591.628 398.789 589.934L384.773 608.967C384.773 608.967 382.305 627.014 384.476 635.602C386.664 644.189 395.828 667.911 408.199 678.095C420.57 688.278 437.597 689.446 452.139 690.318C466.682 691.19 478.329 691.486 481.241 692.785C484.153 694.101 493.02 719.42 497.1 723.203C501.18 726.987 507.875 729.751 513.683 728.155C513.683 728.155 526.054 728.599 530.117 724.519C530.117 724.519 541.896 726.987 544.808 721.904C547.72 716.804 546.7 713.612 546.404 709.236C542.324 716.656 534.46 715.586 533.029 713.514H533.046Z" fill="#D28431"/>
<path d="M255.879 714.041C260.682 708.069 260.551 700.93 258.478 696.126C256.405 691.322 240.694 660.954 239.148 652.267C236.894 639.682 242.767 626.867 248.492 632.148C248.492 632.148 262.739 657.022 263.857 659.374C264.976 661.743 271.375 674.262 273.448 676.895C275.538 679.543 275.538 690.944 270.388 699.432C265.239 707.921 255.879 714.041 255.879 714.041Z" fill="#D28431"/>
<path d="M232.09 336.457C225.839 332.854 208.582 323.378 204.979 323C201.376 322.622 191.522 326.224 190.946 326.224C190.371 326.224 203.647 316.37 209.339 316.551C215.031 316.749 235.397 333.529 235.397 333.529L232.09 336.457Z" fill="#B7AE9E"/>
<path d="M177.046 509.834C176.782 510.854 176.437 515.937 176.437 515.937L182.129 511.216L177.046 509.834Z" fill="#F3993A"/>
<path d="M527.09 722.71C526.169 721.213 522.451 708.677 522.336 707.723C521.908 704.647 523.849 704.071 525.133 706.802C525.626 707.855 529.739 719.683 530.529 720.966C532.009 723.384 535.069 723.894 537.997 723.434C543.146 722.644 545.433 720.341 545.532 711.77C545.647 701.998 544.759 685.267 541.616 671.531C536.895 650.901 530.002 635.125 526.087 631.785C523.932 629.959 502.183 621.684 501.394 612.406C500.621 603.276 499.222 580.902 497.988 575.654C494.188 559.45 475.072 532.273 459.361 520.741C449.655 513.618 399.842 501.082 385.677 495.982C373.997 491.771 355.276 478.692 350.916 469.957C347.758 463.639 345.126 457.766 344.846 449.689C344.813 448.817 347.988 448.702 348.021 449.574C348.301 457.618 351.328 463.672 353.746 468.542C357.694 476.455 375.659 489.138 386.747 493.004C400.5 497.792 450.692 510.936 461.22 518.191C478.395 530.003 497.775 560.223 501.476 576.049C502.759 581.56 503.45 605.398 504.519 611.995C505.671 619.118 524.59 626.373 528.127 629.383C533.21 633.726 540.629 650.934 545.137 670.61C548.164 683.836 549.036 700.764 548.871 711.474C548.69 722.2 546.305 725.836 538.343 726.921C533.736 727.547 529.245 726.263 527.074 722.71H527.09Z" fill="#0E141B"/>
<path d="M186.751 479.417C190.716 463.673 200.949 425.918 205.094 394.085C205.209 393.213 201.228 394.233 201.179 394.612C197.741 418.844 187.656 466.766 183.445 479.236C180.549 487.823 174.446 510.016 174.15 517.846C173.492 535.038 182.639 580.623 185.501 588.602C186.291 590.79 188.791 599.229 190.42 602.355C190.7 602.898 192.69 599.756 192.378 598.983C190.996 595.594 190.272 593.932 188.545 587.747C185.468 576.675 176.799 534.758 177.391 517.616C177.819 504.998 183.807 491.015 186.735 479.4L186.751 479.417Z" fill="#0E141B"/>
<path d="M364.817 457.866C351.64 455.941 333.807 453.605 318.179 458.968L260.83 443.191C248.657 437.845 232.337 433.337 221.463 436.2C223.24 438.667 235.315 450.2 237.24 451.845C233.67 449.509 217.35 446.761 215.968 447.732C215.968 449.245 222.286 454.872 223.108 455.546C219.95 455.135 186.9 460.218 182.77 462.126C186.883 463.772 199.09 471.865 200.324 472.82C194.154 474.465 161.022 491.064 155.05 499.026C160.677 498.615 177.819 498.483 182.211 499.026C179.612 500.951 171.107 508.634 170.547 509.308C173.426 508.897 181.52 510.542 183.724 511.233C177.671 513.832 156.432 535.646 151.217 546.076C157.386 543.608 176.19 540.861 178.246 540.861C175.499 543.197 166.731 554.992 165.76 556.638C171.255 555.124 181.257 552.377 181.257 552.377L181.504 552.262C174.134 563.465 166.846 580.245 164.115 592.715C165.892 589.836 176.601 584.341 178.526 583.667C176.19 585.855 171.386 595.462 170.843 596.433C173.443 594.508 190.453 586.414 195.257 584.769L195.668 584.506C191.16 595.939 188.709 616.388 189.91 625.37C192.378 619.332 210.902 600.677 215.014 596.844C215.146 601.236 216.117 616.322 217.614 620.846C219.39 617.967 225.017 609.873 226.53 608.08C225.888 620.616 229.689 634.846 235.578 644.848C235.989 641.558 240.661 625.65 243.804 618.23L244.034 617.49C245.761 623.643 248.18 631.375 250.795 638.119C255.319 649.783 261.357 659.522 261.9 658.7C262.443 657.877 268.348 640.867 268.76 637.297C268.76 637.297 266.424 626.637 260.205 621.093C253.97 615.549 252.934 603.786 253.625 595.133C254.316 586.48 257.08 557.411 281.657 541.486C306.235 525.562 330.797 533.524 330.797 533.524L351.558 510.69C349.913 508.091 341.045 495.719 339.4 493.383C340.914 493.104 348.86 492.972 351.327 493.252C351.196 492.561 345.833 488.037 343.924 486.112C344.615 485.569 358.747 483.924 364.225 484.747C361.28 481.917 347.626 475.83 340.453 473.56C347.659 467.967 360.375 460.004 364.768 457.866H364.817Z" fill="#FEEBBE"/>
<path d="M254.579 586.677C254.332 584.818 251.881 578.254 249.841 573.615C247.933 569.288 247.555 566.261 245.35 573.516C243.047 581.117 239.247 595.955 237.24 603.77C235.628 610.037 235.661 606.55 235.282 604.148C234.789 600.973 234.065 596.91 233.341 593.603C232.403 589.326 232.272 584.802 228.126 590.954C227.6 591.744 227.073 592.583 226.596 593.373C225.296 595.544 225.017 595.528 225.181 591.843C225.461 585.575 225.905 574.865 225.922 568.038C225.922 564.024 227.994 558.233 220.575 565.324C217.351 568.4 213.221 572.809 210.293 576.083C206.838 579.932 206.542 580.278 207.546 574.964C208.483 569.996 209.98 562.889 210.885 557.97C211.658 553.676 213.616 550.041 206.46 553.709C200.422 556.818 190.683 562.84 185.139 566.706C181.668 569.124 180.796 569.963 182.853 564.682C186.62 555.025 192.756 544.003 196.129 537.456C199.88 530.184 197.79 531.188 193.908 533.178C191.555 534.379 188.742 536.057 186.571 537.39C184.514 538.657 183.1 539.183 185.567 535.021C187.492 531.796 190.091 527.75 191.983 524.657C194.977 519.771 194.813 519.228 187.13 521.498C179.497 523.768 167.849 528.111 162.108 531.977L151.826 545.813L177.588 540.861L166.681 556.292C166.681 556.292 179.332 552.804 180.648 552.656C177.013 557.888 164.345 586.858 164.79 591.514L177.309 584.242C177.309 584.242 170.761 595.742 171.485 595.594C172.209 595.445 193.743 584.966 195.059 584.39C192.296 591.382 189.088 621.932 190.108 624.695C192.575 620.467 214.702 597.041 214.702 597.041C214.702 597.041 217.17 619.596 217.614 620.616C218.058 621.635 226.497 608.096 226.497 608.096C226.497 608.096 226.234 617.424 228.241 626.291C230.297 635.372 234.657 643.976 235.512 644.338C235.512 644.338 244.1 615.68 244.248 617.704C244.561 622.063 257.524 657.351 261.851 658.157C264.187 658.601 267.954 638.81 267.954 638.81C267.954 638.81 255.27 617.753 253.707 609.363C252.144 600.973 254.596 586.693 254.596 586.693L254.579 586.677Z" fill="#DBCBA6"/>
<path d="M347.05 515.229C346.31 513.255 341.243 509.471 337.246 507.069C331.767 503.779 331.636 504.931 333.429 511.561C334.63 515.986 336.703 521.53 337.673 524.475C337.986 525.396 337.459 526.136 337.081 525.791C334.992 523.866 330.566 520.905 327.408 519.325C322.456 516.858 322.966 518.174 324.085 521.81C325.253 525.593 327.243 530.907 327.375 531.795L331.652 533.325L347.034 515.262L347.05 515.229Z" fill="#DBCBA6"/>
<path d="M266.835 375.644C261.044 368.504 249.117 371.547 244.248 379.921C244.248 379.921 237.799 397.244 242.751 413.251C247.703 429.257 257.162 439.589 257.162 439.589L257.113 441.431C257.31 446.696 262.755 470.237 284.175 473.56C305.939 476.916 323.854 470.188 327.786 456.813L336.472 455.447L339.812 452.108C339.812 452.108 321.041 450.216 314.05 436.397C307.058 422.578 303.718 415.291 303.718 415.291C303.718 415.291 292.515 409.467 286.692 400.6C286.692 400.6 276.212 398.264 270.537 390.713C264.861 383.145 266.835 375.644 266.835 375.644Z" fill="#DBCBA6"/>
<path d="M183.017 393.903C167.142 386.484 154.162 358.566 156.169 350.127C160.266 332.903 191.49 305.446 205.127 301.432C219.621 297.171 240.398 317.307 248.558 326.437C251.273 329.481 249.775 330.797 246.781 328.017C239.066 320.844 218.601 301.827 205.835 305.561C193.151 309.295 163.934 335.354 160.117 351.377C158.588 357.826 169.527 383.638 184.383 390.563C195.092 395.565 211.774 393.048 216.627 391.88C219.95 391.073 220.608 392.998 217.351 394.051C208.993 396.782 193.085 398.592 183.017 393.887V393.903Z" fill="#0E141B"/>
<path d="M186.455 380.545C175.844 375.725 168.014 354.865 168.869 350.621C170.925 340.29 197.444 316.238 208.286 314.873C213.978 314.182 233.489 329.07 236.565 332.459C237.223 333.183 236.927 333.857 236.269 334.614C228.142 344.172 220.147 362.581 218.42 376.367C218.354 376.893 218.025 377.354 217.548 377.584C212.333 380.183 192.74 383.408 186.439 380.545H186.455ZM208.681 318.015C204.124 317.801 173.903 341.524 171.978 351.23C171.501 353.599 178.246 373.323 187.771 377.65C192.246 379.673 210.556 376.762 215.409 375.034C217.038 364.325 225.132 341.195 233.061 333.43C227.566 328.33 212.415 318.18 208.681 318.015Z" fill="#0E141B"/>
<path d="M334.975 327.08C331.422 322.638 317.307 308.227 312.684 306.746C295.049 301.071 253.707 305.562 237.404 318.048C236.713 318.575 234.772 316.058 235.48 315.531C252.753 302.288 294.851 296.81 313.556 302.831C318.936 304.558 332.442 319.414 337.032 324.645C339.845 321.503 346.359 312.718 348.465 303.588C350.521 292.993 323.887 252.754 264.713 224.574C268.349 232.602 276.492 250.928 277.973 253.774C279.289 256.291 278.318 257.574 276.262 255.633C268.546 248.312 241.846 234.888 228.702 229.558C233.999 236.04 240.349 245.269 241.27 246.848C242.537 249.003 242.093 249.118 239.23 248.888C237.519 248.757 232.107 247.588 226.004 246.667C229.064 249.776 232.963 254.432 236.138 258.134C238.457 260.832 237.503 261.605 233.637 260.519C221.94 257.245 196.622 255.83 184.07 255.518C192.773 260.206 205.177 267.642 206.345 268.498C209.24 270.603 209.043 270.39 205.95 271.475C204.436 272.002 197.346 273.927 192.871 275.44C198.81 277.529 204.946 280.342 205.029 280.392C208.253 281.675 207.332 282.58 205.029 283.106C193.743 285.623 177.44 294.244 167.208 301.35C176.503 301.153 196.227 301.531 205.111 303.719C205.966 303.933 200.751 305.71 199.88 305.545C190.354 303.785 169.314 304.081 162.569 304.558C160.907 304.657 158.752 304.229 162.108 301.581C170.728 294.786 186.472 285.163 200.143 281.527C196.277 280.046 191.786 278.204 188.528 277.217C185.501 276.296 186.916 275.21 188.463 274.173C189.861 273.252 196.737 270.702 202.281 269.386C195.504 265.454 181.125 257.327 176.881 255.386C173.245 253.725 174.051 252.524 178.066 252.261C184.3 251.849 214.817 253.363 231.153 256.998C227.83 253.198 222.236 246.98 221.414 246.124C220.032 244.677 219.259 243.344 222.664 243.344C224.902 243.344 231.696 244.529 237.388 245.779C233.571 240.449 226.777 231.68 223.454 228.341C220.46 225.363 222.023 224.574 225.099 225.363C232.831 227.37 259.103 239.708 272.79 249.168C268.365 239.939 261.11 224.903 260.6 223.093C259.712 219.885 260.288 219.342 263.051 220.609C327.737 250.171 354.947 291.085 352.38 304.229C349.798 315.383 341.013 326.027 338.792 327.935C337.262 329.251 336.505 328.972 334.992 327.063L334.975 327.08Z" fill="#0E141B"/>
<path d="M259.958 443.273C250.17 434.702 239.789 419.501 239.23 400.566C238.638 380.594 250.269 362.794 266.868 358.237C277.38 355.359 289.866 358.928 296.611 360.738C307.206 363.584 318.738 360.294 330.319 358.468C338.594 357.168 350.85 359.833 359.405 364.407C368.831 369.424 382.897 383.309 383.703 398.23C384.871 419.781 369.506 433.336 355.703 431.444C354.831 431.329 355.276 428.187 356.131 428.302C367.877 429.915 381.581 417.626 380.528 398.411C379.886 386.714 368.502 372.862 357.908 367.22C349.88 362.942 338.446 360.524 330.747 361.626C320.844 363.058 305.445 366.233 295.756 363.814C289.291 362.186 277.396 358.665 267.707 361.314C252.49 365.476 241.846 381.943 242.389 400.484C242.964 419.83 253.559 434.11 262.903 442.96C266.21 446.102 263.495 446.398 259.942 443.289L259.958 443.273Z" fill="#0E141B"/>
<path d="M353.137 424.255C353.762 423.005 356.016 416.441 347.643 407.935C338.775 398.937 322.752 400.68 308.621 402.227C294.555 403.757 284.52 404.135 273.86 395.729C264.285 388.178 263.792 376.415 268.316 371.891C270.208 369.999 271.392 371.496 269.944 373.734C266.786 378.62 269.023 387.865 275.817 393.228C284.816 400.319 292.762 400.763 308.275 399.068C322.39 397.522 339.96 395.614 349.913 405.698C359.816 415.75 356.345 424.173 355.556 425.768C355.276 426.328 352.759 425.028 353.154 424.238L353.137 424.255Z" fill="#0E141B"/>
<path d="M334.235 424.157C333.461 417.79 331.224 412.723 326.684 408.397C322.077 404.021 314.592 401.422 308.078 401.751C307.206 401.833 310.052 400.04 310.94 399.99C318.294 399.612 323.607 401.603 328.855 406.587C333.971 411.44 336.653 416.705 336.653 423.729C336.653 426.608 334.58 427.003 334.235 424.173V424.157Z" fill="#0E141B"/>
<path d="M303.686 416.688C296.151 413.283 287.761 405.156 286.215 401.307C285.886 400.501 288.32 399.135 288.649 399.941C289.801 402.804 297.484 410.963 304.574 414.171C305.38 414.533 303.899 416.787 303.686 416.688Z" fill="#0E141B"/>
<path d="M332.359 454.576C335.37 453.572 338.825 452.289 341.506 449.723C342.131 449.114 344.336 451.417 343.694 452.026C341.161 454.444 338.183 455.859 335.386 456.895C334.695 457.142 331.537 454.872 332.359 454.592V454.576Z" fill="#0E141B"/>
<path d="M339.466 472.853C343.513 468.806 353.005 462.554 359.783 458.754C348.448 457.224 333.856 455.135 320.12 459.84C316.961 460.909 315.777 459.626 318.869 458.08C334.514 450.249 362.136 456.32 363.6 456.681C367.548 457.669 366.594 458.787 364.554 459.774C358.944 462.505 346.425 469.579 341.605 474.416C341.292 474.728 338.857 473.494 339.466 472.869V472.853Z" fill="#0E141B"/>
<path d="M351.525 512.22C350.39 510.427 339.582 496.065 339.088 495.374C337.624 493.318 338.117 492.545 339.976 492.216C341.161 492.002 344.533 491.821 347.774 491.854C347.231 491.36 344.583 488.514 343.875 487.807C342.411 486.342 341.885 485.339 345.125 484.714C347.034 484.352 352.298 483.167 358.582 483.003C351.706 479.367 341.342 475.37 338.43 474.333C334.827 473.05 335.057 471.997 338.644 472.047C343.135 472.112 357.628 478.594 362.991 482.707C365.13 484.352 366.874 485.8 363.353 485.8C362.251 485.8 351.245 486.523 347.281 487.066C347.527 487.297 351.278 491.245 351.87 491.985C353.433 493.943 352.677 494.486 351.212 494.486C350.324 494.486 345.241 494.667 342.362 494.765C342.806 495.374 352.298 508.93 353.483 510.805C353.943 511.545 351.805 512.681 351.492 512.203L351.525 512.22Z" fill="#0E141B"/>
<path d="M328.97 533.062C330.862 530.676 347.412 509.636 357.102 507.349C361.28 506.362 361.823 508.122 357.974 509.652C351.163 512.383 339.104 526.119 332.475 534.493C332.162 534.888 328.411 533.753 328.954 533.062H328.97Z" fill="#0E141B"/>
<path d="M345.701 620.467C342.74 619.842 329.563 616.865 327.852 616.486C326.996 616.289 327.687 613.196 328.543 613.393C330.254 613.772 343.398 616.733 346.359 617.375C356.411 619.513 370.575 615.779 380.906 608.31C389.412 602.174 397.242 591.448 399.924 582.268C400.829 579.159 401.454 574.849 402.112 570.292C403.099 563.514 403.56 558.052 406.208 552.755C408.084 549.021 409.613 550.008 408.413 554.071C406.85 559.335 406.208 564.156 405.254 570.736C404.579 575.425 403.938 579.833 402.967 583.156C400.055 593.126 392.406 604.247 383.243 610.876C367.598 622.178 353.137 622.063 345.685 620.484L345.701 620.467Z" fill="#0E141B"/>
<path d="M495.718 724.24C493.645 721.723 490.75 715.932 488.2 709.993C485.815 704.433 481.57 694.874 479.744 694.381C473.279 692.637 453.801 692.177 447.023 691.699C423.877 690.038 411.802 682.997 408.659 680.875C400.714 675.512 384.23 649.585 382.157 632.969C380.939 623.214 382.14 612.011 384.624 606.417C385.069 605.397 389.987 603.604 389.412 604.279C387.158 606.96 384.213 620.499 385.792 633.068C387.734 648.647 403.115 673.291 410.453 678.242C413.43 680.25 424.897 686.945 447.27 688.541C454.031 689.018 472.407 689.676 481.291 691.189C484.466 691.732 487.262 698.263 491.622 708.447C493.974 713.925 496.393 719.6 498.186 721.772C503.302 727.974 511.133 727.793 514.094 725.967C514.834 725.506 516.94 728.155 516.2 728.616C512.63 730.836 502.973 733.024 495.751 724.272L495.718 724.24Z" fill="#0E141B"/>
<path d="M271.277 646.477C270.257 643.696 269.253 639.008 269.072 636.622C269.023 635.866 271.655 633.957 271.606 634.829C271.54 635.882 272.577 640.126 273.103 642.89C274.518 639.106 276.607 632.987 277.578 629.828C277.841 628.989 280.868 629.927 280.605 630.766C280.572 630.897 277.051 641.936 275.028 646.477C273.432 650.079 272.346 649.388 271.26 646.477H271.277Z" fill="#0E141B"/>
<path d="M258.84 657.678C255.533 653.006 251.157 643.366 249.347 638.694C244.593 626.454 241.599 613.721 240.941 609.658C240.349 605.907 242.537 605.249 243.145 609C243.803 613.113 247.834 626.01 252.309 637.542C255.615 646.064 259.415 652.858 261.39 655.819C262.887 651.707 265.979 642.56 266.934 638.513C267.082 637.921 270.257 636.243 270.158 637.115C269.813 640.076 265.486 652.825 263.676 657.777C262.64 660.623 261.307 661.166 258.84 657.678Z" fill="#0E141B"/>
<path d="M165.201 555.04C165.99 553.675 170.778 547.539 174.561 543.064C169.05 543.837 159.229 545.334 153.882 546.864C149.342 548.164 148.799 547.555 152.139 542.192C158.143 532.552 172.011 517.433 179.908 511.544C176.749 510.902 172.735 510.54 171.255 510.656C168.063 510.886 168.458 509.553 170.383 507.793C171.008 507.217 174.611 503.269 178.148 500.242C172.192 500.045 162.272 500.275 156.827 500.571C153.093 500.769 152.714 499.798 156.103 496.376C163.753 488.628 187.097 476.322 196.902 472.391C192.855 469.693 186.422 465.498 183.692 463.852C181.487 462.536 181.29 461.681 183.247 460.776C186.982 459.032 209.997 455.347 219.917 454.36C218.42 452.929 216.577 451.35 215.343 449.672C214.899 449.079 212.399 446.299 217.087 446.201C220.295 446.135 226.727 447.089 231.383 448.24C227.994 444.983 223.733 440.953 221.512 438.6C219.407 436.363 219.653 434.899 223.931 434.224C237.815 432.02 255.566 438.781 261.373 442.071C262.13 442.499 262.854 445.098 262.048 444.736C251.272 440.015 234.838 435.705 224.474 437.202C228.29 441.249 236.351 449.129 237.963 450.527C240.053 452.32 238.161 452.748 236.22 452.501C233.637 452.189 223.519 449.507 218.782 449.129C220.344 450.873 222.483 453.472 223.7 454.475C225.066 455.611 224.901 456.581 221.825 456.779C219.851 456.91 196.737 460.332 187.113 462.504C192.476 465.514 199.386 470.515 200.504 471.387C203.153 473.443 202.479 473.624 199.731 474.644C192.378 477.359 168.211 489.516 159.097 497.199C166.533 496.952 178.641 497.38 182.392 497.857C185.518 498.252 184.81 499.091 183.198 500.259C181.487 501.525 177.259 505.243 174.463 507.793C177.374 508.106 180.78 508.797 182.853 509.29C186.159 510.096 186.159 511.231 183.05 513.238C178.23 516.348 163.259 530.282 154.705 543.294C161.088 541.633 171.978 540.416 176.782 539.823C180.599 539.363 179.743 541.024 178.542 542.686C177.341 544.331 172.669 549.793 169.642 553.889L182.606 550.928L180.961 553.675L166.977 557.722C164.098 558.512 163.605 557.788 165.234 555.008L165.201 555.04Z" fill="#0E141B"/>
<path d="M170.317 594.523C171.534 592.203 172.686 590.081 173.903 588.008C170.416 589.933 166.829 592.384 165.694 593.108C162.42 595.197 162.766 593.947 163.457 590.755C166.467 577.052 173.558 560.157 181.816 550.418C183.889 547.966 185.682 548.18 183.905 550.862C177.539 560.42 170.514 575.39 166.879 588.123C171.024 585.294 177.736 582.415 178.97 581.971C180.714 581.362 183.017 580.589 180.171 583.731C179.184 584.833 176.634 589.012 175.022 591.956C181.372 588.699 191.966 584.224 195.339 583.073C196.161 582.793 196.935 584.882 196.112 585.162C191.374 586.791 175.022 595.609 172.39 597.138C171.074 597.912 168.047 598.882 170.317 594.523Z" fill="#0E141B"/>
<path d="M234.377 644.979C228.85 635.602 225.297 624.119 224.918 612.916C222.747 615.976 220.032 619.447 218.963 621.191C217.811 623.066 216.791 622.458 216.1 620.418C214.801 616.535 214.176 606.352 213.814 600.167C207.677 606.22 195.849 618.608 192.214 624.415C189.828 628.215 188.413 627.163 188.167 623.724C187.36 612.784 189.236 590.757 195.997 581.281C198.202 578.204 199.682 579.126 197.971 582.482C193.908 590.51 191.062 608.589 191.194 620.303C197.544 611.715 212.07 597.814 214.241 595.791C215.804 594.326 216.693 594.326 216.775 596.991C216.906 601.022 217.4 610.827 218.371 616.798C220.789 613.212 224.194 608.688 225.346 607.323C227.106 605.233 227.55 606.007 227.55 609.626C227.55 615.746 230.166 630.42 235.003 640.307C236.648 633.99 240.859 622.441 243.277 616.782C243.623 615.976 245.663 618.032 245.317 618.838C242.126 626.34 237.454 643.169 237.01 644.584C236.565 645.999 235.792 647.332 234.41 644.963L234.377 644.979Z" fill="#0E141B"/>
<path d="M397.654 665.477C392.537 662.927 359.405 652.431 345.619 651.213C332.705 650.078 316.402 652.168 305.363 651.954C296.941 651.789 282.546 644.304 276.492 638.036C276.064 637.592 277.331 634.104 277.874 634.795C282.414 640.668 298.01 648.088 306.153 648.45C313.359 648.762 333.33 646.689 346.409 647.89C359.734 649.124 387.799 658.254 396.272 661.742C396.963 662.022 397.884 665.575 397.654 665.46V665.477Z" fill="#0E141B"/>
<path d="M271.639 673.735C270.8 673.735 269.023 670.281 269.895 670.33C276.887 670.758 282.809 664.046 284.536 660.476C286.132 657.153 287.251 648.072 286.988 644.683C286.922 643.811 289.685 643.614 289.751 644.485C290.047 648.368 289.307 657.877 287.399 661.841C285.721 665.329 279.239 673.719 271.655 673.719L271.639 673.735Z" fill="#0E141B"/>
<path d="M316.879 649.882C316.928 649.01 319.676 648.583 319.626 649.455C318.771 666.498 344.138 698.084 374.359 697.031C389.527 696.488 402.539 687.325 411.818 680.761C412.525 680.251 415.42 683.228 414.713 683.722C405.171 690.483 392.142 699.926 375.115 700.716C340.881 702.295 315.974 668.011 316.879 649.882Z" fill="#0E141B"/>
<path d="M434.504 731.659C428.334 728.863 423.942 717.133 421.343 711.918C419.517 708.249 420.932 706.687 423.86 709.96C425.834 712.148 431.378 725.704 434.125 727.135C436.873 728.566 449.161 727.547 446.924 708.134C445.871 699.07 441.808 691.93 440.771 690.499C440.261 689.791 443.848 689.38 444.193 689.956C446.003 693.016 449.54 699.514 450.478 707.575C453.159 730.705 436.938 732.778 434.504 731.659Z" fill="#0E141B"/>
<path d="M412.525 729.981C410.387 726.871 407.952 720.768 406.636 717.099C404.678 711.638 407.261 710.585 409.581 715.142C411.176 718.284 413.447 724.947 415.388 727.76C421.425 736.495 428.055 732.218 433.155 728.006C433.829 727.447 436.346 730.145 435.672 730.704C426.903 737.926 419.188 739.637 412.525 729.981Z" fill="#0E141B"/>
<path d="M414.615 738.947C408.314 738.947 402.211 735.575 399.48 730.261C396.617 724.668 385.217 702.147 382.223 698.363C381.68 697.672 384.164 695.698 384.707 696.389C388.128 700.699 400.45 724.191 402.572 728.337C404.793 732.68 409.416 735.312 414.697 735.147C418.777 735.049 421.096 734.473 423.005 733.552C423.416 733.354 427.348 734.21 426.772 734.884C423.696 738.405 414.746 738.947 414.582 738.947H414.615Z" fill="#0E141B"/>
<path d="M510.277 726.478C507.481 720.588 505.391 713.432 504.536 709.106C504.141 707.115 505.77 705.947 507.76 708.678C509.192 710.652 512.071 722.76 514.061 724.652C516.052 726.544 526.301 726.626 529.015 722.842C529.525 722.135 532.898 724.537 532.388 725.244C529.657 729.028 513.091 732.367 510.294 726.461L510.277 726.478Z" fill="#0E141B"/>
<path d="M282.332 570.917C279.782 568.317 275.949 563.481 272.856 559.598C270.8 556.999 268.661 554.318 268.135 553.873C267.575 553.396 269.286 551.389 269.846 551.85C270.537 552.442 272.067 554.334 274.929 557.937C277.989 561.77 281.773 566.541 284.224 569.041C285.82 570.67 285.869 570.67 287.004 570.423C289.867 569.798 338.858 558.792 344.599 558.036C343.628 557.739 340.848 556.851 338.726 556.259C335.683 555.403 335.485 554.729 338.726 553.989C339.795 553.742 343.135 553.002 349.962 552.36C350.061 552.36 334.498 549.514 334.235 549.448C332.195 549.037 332.228 548.116 333.758 547.491C335.288 546.865 337.377 546.503 340.108 545.895C333.824 545.434 323.608 544.974 317.175 545.122C310.003 545.286 296.891 547.112 296.101 547.211C293.93 547.458 292.943 546.536 291.298 544.99C289.143 542.966 286.33 541.288 283.944 540.268C283.27 539.972 285.293 538.327 285.968 538.623C288.633 539.759 290.722 540.828 293.075 543.016C294.654 544.496 294.884 544.677 295.805 544.579C296.595 544.496 309.608 542.769 316.928 542.588C325.549 542.374 340.256 543.065 345.734 543.707C349.008 544.085 350.39 545.763 346.54 546.569C345.833 546.717 340.075 547.869 339.022 548.099C343.398 548.774 352.742 550.238 356.164 551.126C361.001 552.36 359.553 554.071 355.539 554.367C353.894 554.482 345.389 555.074 343.661 555.255C344.435 555.486 347.314 556.16 348.662 556.835C351.986 558.496 351.328 559.088 347.33 559.977C338.578 561.918 298.865 570.16 288.238 573.138C285.622 573.861 285.655 574.306 282.348 570.9L282.332 570.917Z" fill="#0E141B"/>
<path d="M396.568 534.016C396.568 534.016 392.373 524.524 390.876 521.859C390.547 522.895 389.856 525.018 389.494 525.725C386.697 531.483 385.924 527.518 385.299 524.837C384.394 520.971 379.196 497.495 366.726 485.157C366.199 484.647 369.127 483.709 369.621 484.236C381.663 497.199 384.92 513.42 387.766 523.85C387.766 523.883 388.984 521.349 389.675 519.342C389.954 518.519 390.563 517.549 391.583 518.668C393.294 520.559 398.41 531.927 398.41 531.927C398.41 531.927 398.41 531.96 398.427 531.976C399.003 528.078 399.299 522.27 399.332 521.612C399.414 519.918 400.417 519.457 401.487 520.658C401.98 521.217 403.263 523.076 404.037 524.343C402.161 517.368 397.999 504.125 389.083 495.636C388.556 495.126 391.435 494.386 391.962 494.896C398.015 500.67 406.011 516.661 406.8 527.14C407.146 531.664 404.974 529.887 403.938 528.604C402.819 527.206 401.898 525.1 401.7 524.787C401.684 524.754 401.174 531.976 400.845 534.016C400.022 539.133 398.328 538.08 396.518 534.016H396.568Z" fill="#0E141B"/>
<path d="M429.799 561.277C429.305 559.533 426.69 550.748 425.703 547.705C425.62 547.951 425.193 549.531 424.502 550.781C422.577 554.285 421.754 552.574 421.425 549.383C421.31 548.231 421.096 546.652 420.8 544.612C418.349 527.305 409.169 506.84 400.286 499.816C399.71 499.372 402.819 498.467 403.247 498.878C410.683 505.771 421.343 526.943 423.284 546.619C423.58 545.5 424.107 544.02 424.419 543.148C425.077 541.305 426.114 541.338 426.574 542.506C426.969 543.559 429.848 552.097 431.197 557.049C431.576 554.828 431.921 553.94 432.299 552.475C432.678 551.011 433.254 550.386 434.356 552.048C434.635 552.459 435.442 553.495 435.919 554.482C436.165 552.656 436.807 546.915 437.037 545.484C437.268 544.052 437.481 543.559 439.604 546.109C439.669 546.191 438.666 537.801 435.425 528.506C432.595 520.379 425.834 508.765 422.725 505.245C422.248 504.702 425.472 504.636 425.966 505.179C435.655 516.201 441.512 535.054 441.709 547.112C441.825 553.989 439.488 548.757 438.781 547.918C438.617 549.531 438.09 557.164 437.778 558.414C437.333 560.207 436.231 560.816 435.228 558.727C434.603 557.411 433.994 555.338 433.977 555.288C433.813 556.144 433.188 560.849 432.908 561.968C432.118 565.192 430.802 564.863 429.782 561.293L429.799 561.277Z" fill="#0E141B"/>
<path d="M464.395 554.152C463.984 553.379 459.246 545.039 458.588 544.019C458.456 544.331 457.469 546.7 456.844 547.704C455.38 550.056 454.525 549.563 453.653 546.947C452.271 542.735 450.346 536.632 447.401 529.92C445.115 524.689 437.827 513.568 433.944 509.833C433.418 509.323 436.379 508.517 436.692 508.863C440.953 513.469 447.451 523.8 449.836 528.917C453.751 537.323 455.693 545.318 455.693 545.318C455.972 544.693 457.124 542.012 457.255 541.765C457.979 540.317 458.275 540.153 459.246 541.354C460.003 542.308 465.432 551.027 465.744 551.619C465.81 551.093 466.583 547.309 466.682 546.207C466.896 543.821 467.389 542.258 469.808 545.828C470.071 546.207 467.62 540.103 466.419 537.488C463.309 530.726 456.235 518.898 451.975 515.048C451.432 514.555 454.985 515.246 455.298 515.558C459.756 520.132 465.711 529.706 468.705 536.237C470.778 540.745 472.045 545.187 472.407 546.881C473.608 552.606 472.16 551.915 470.663 550.171C470.071 549.48 469.413 548.641 468.821 547.95C468.755 548.543 468.014 552.803 467.636 554.218C466.797 557.344 465.761 556.768 464.395 554.136V554.152Z" fill="#0E141B"/>
<path d="M500.686 592.138C490.996 591.99 480.402 592.401 473.673 593.01C469.89 593.356 470.268 592.369 472.686 590.773C474.331 589.687 476.618 588.535 476.816 588.404C475.072 588.453 466.764 588.881 463.967 588.7C461.171 588.519 461.944 587.565 463.474 586.117C464.79 584.883 469.923 581.84 471.222 581.133C470.038 581.034 465.547 580.573 465.086 580.54C461.269 580.178 459.394 579.339 466.698 577.415C470.844 576.329 481.504 574.026 490.684 573.927C493.53 573.894 496.162 573.927 498.597 573.993C499.831 574.026 500.061 576.345 499.074 576.312C496.491 576.197 493.711 576.164 490.717 576.197C482.606 576.279 473.575 577.974 469.018 579.076C469.626 579.125 472.703 579.356 474.562 579.668C476.404 579.981 476.881 580.606 474.71 581.692C474.266 581.906 466.419 586.38 465.991 586.677C466.057 586.677 477.062 586.413 479.036 586.43C481.011 586.446 481.636 587.351 479.53 588.503C478.625 588.996 476.322 590.674 475.993 590.904C479.398 590.312 490.371 590.148 500.637 590.312C501.245 590.312 502.183 592.138 500.702 592.105L500.686 592.138Z" fill="#0E141B"/>
<path d="M474.282 615.055C471.798 614.759 470.795 614.791 474.085 612.817C475.681 611.863 479.218 609.576 480.583 608.918C478.461 608.754 472.95 608.079 470.894 607.783C465.119 606.961 466.271 606.105 471.025 604.806C472.966 604.279 478 603.095 480.04 602.716C479.349 602.519 476.109 601.664 473.986 600.989C469.972 599.739 469.627 599.262 474.644 598.258C476.799 597.83 489.927 596.843 501.131 597.551C502.101 597.617 502.134 599.591 501.246 599.541C493.267 599.081 482.952 598.933 476.701 599.936C479.711 600.66 482.557 601.696 483.528 602.157C485.601 603.128 485.403 603.687 483.676 603.934C481.373 604.263 472.917 606.188 472.44 606.303C472.901 606.369 480.007 607.092 482.163 607.273C487.542 607.701 486.621 608.474 485.222 609.231C484.499 609.626 477.112 613.294 476.767 613.492C476.767 613.492 493.76 613.985 503.829 614.693C504.602 614.742 506.23 616.815 505.309 616.749C495.619 615.959 476.125 615.269 474.282 615.055Z" fill="#0E141B"/>
<path d="M443.684 513.157C432.859 481.242 433.402 417.758 462.685 387.915C483.133 367.072 521.184 362.778 562.756 373.175C586.692 379.163 617.044 392.653 626.997 398.131C633.446 401.668 632.706 402.392 628.33 402.178C626.619 402.096 614.116 401.553 609.888 401.274C624.859 408.101 639.747 420.34 644.386 424.272C647.133 426.592 645.998 427.052 643.975 426.723C642.264 426.444 640.24 426.18 638.398 425.753C641.556 428.056 644.123 430.343 645.916 432.202C651.312 437.762 650.621 439.259 643.843 437.581C635.683 435.558 620.039 432.136 609.362 430.343C622.424 439.358 639.171 454.904 643.251 458.984C644.814 460.547 646.163 462.965 642.297 461.715C634.96 459.346 613.869 453.506 602.864 451.531C608.589 459.329 617.456 475.451 620.993 484.763C623.395 491.096 622.852 491.721 617.061 487.707C614.478 485.914 611.254 483.71 607.733 481.291C610.76 487.131 614.527 494.123 615.35 497.38C615.959 499.799 615.778 500.852 612.076 498.746C609.247 497.15 601.35 491.31 594.655 485.98C593.388 484.976 592.203 484.022 591.183 483.216C591.874 487.921 592.549 494.518 592.993 499.355C593.964 509.686 592.582 509.785 587.367 501.164C584.323 496.13 580.375 489.451 579.437 488.036C577.463 485.042 576.394 478.922 576.904 479.63C579.372 483.101 589.012 497.496 590.196 499.289C589.39 492.511 588.337 485.634 587.91 482.081C587.466 478.264 587.844 476.932 591.99 479.794C592.812 480.354 606.845 491.606 610.908 494.633C608.589 489.106 603.818 480.189 603.16 478.314C601.515 473.592 604.295 475.616 605.94 476.521C607.585 477.425 613.244 481.407 618.097 485.009C614.215 475.714 605.035 459.691 599.902 452.848C597.566 449.738 596.398 447.221 601.975 448.11C610.415 449.459 626.241 453.473 636.407 456.615C627.655 448.636 612.142 434.899 602.354 429.536C599.031 427.71 598.981 425.884 604.41 426.526C611.879 427.168 631.982 431.659 643.629 434.603C640.323 431.379 635.371 426.74 630.255 424.338C627.524 423.071 627.096 421.591 630.255 421.607C632.278 421.607 635.256 422.232 638.25 422.857C633.183 419.041 623.543 412.164 615.251 407.69C607.519 403.511 600.001 400.978 597.484 400.188C593.487 398.938 593.816 397.589 597.797 397.589C600.774 397.589 610.694 397.737 620.055 398.395C607.733 392.653 582.711 381.434 561.983 376.252C523.586 366.644 482.771 372.879 464.922 391.074C447.369 408.956 431.148 466.354 446.678 512.137C446.957 512.976 443.898 513.815 443.667 513.157H443.684Z" fill="#0E141B"/>
<path d="M501.854 605.826C501.015 605.596 501.854 602.536 502.693 602.766C545.269 614.446 579.602 582.827 585.442 544.135C589.736 515.641 571.821 461.748 551.109 438.93C548.773 436.348 549.908 434.719 552.474 437.071C577.2 459.79 593.865 515.74 589.505 544.595C582.53 590.773 544.265 617.457 501.854 605.826Z" fill="#0E141B"/>
<path d="M184.81 652.563C182.408 650.293 178.444 645.835 177.226 644.453C176.749 643.91 179.052 641.738 179.052 641.738C180.253 643.087 186.751 650.145 186.751 650.145C187.228 650.046 216.807 628.331 220.887 626.57C223.108 625.616 224.49 626.06 222.878 628.561C222.236 629.564 220.032 632.197 218.716 634.171C222.368 632.295 227.714 629.449 228.833 629.087C229.524 628.857 230.363 631.374 229.672 631.604C228.29 632.065 220.394 636.063 216.758 638.02C214.866 639.057 214.389 637.889 215.162 635.98C215.425 635.339 217.794 631.736 217.975 631.473C210.556 636.161 191.341 650.852 189.334 652.316C186.686 654.257 186.324 653.994 184.794 652.546L184.81 652.563Z" fill="#0E141B"/>
<path d="M233.226 639.173C232.831 639.173 230.626 640.374 228.257 641.048C229.179 640.094 231.482 637.396 232.123 636.902C232.699 636.458 231.235 635.126 230.659 635.57C228.751 637.05 225.247 641.361 224.951 641.805C223.849 643.466 224.391 644.19 226.086 643.878C226.76 643.746 228.109 643.351 229.475 642.907C219.67 652.646 201.952 674.148 196.112 681.271C195.026 681.271 185.106 675.496 182.77 672.519C182.31 671.943 180.681 674.773 181.125 675.348C184.004 679.001 191.802 682.636 193.727 683.327C196.984 684.495 197.757 683.936 199.468 681.929C200.554 680.646 213.616 664.228 219.094 658.091C226.448 649.833 233.061 643.055 234.262 642.019C234.459 641.854 233.769 639.156 233.209 639.156L233.226 639.173Z" fill="#0E141B"/>
<path d="M370.131 375.973C373.421 360.756 367.252 331.785 343.562 317.95C342.806 317.506 344.401 314.759 345.158 315.203C370.476 329.992 376.711 360.706 373.125 377.322C372.96 378.062 369.933 376.828 370.114 375.973H370.131Z" fill="#0E141B"/>
<path d="M378.373 386.205C382.436 373.242 378.422 359.768 376.728 358.288C376.103 357.827 373.01 357.103 371.282 357.251C370.411 357.334 370.164 354.159 371.036 354.093C372.237 353.994 376.942 353.994 378.669 355.491C381.647 358.09 385.94 374.673 380.956 388.92C380.725 389.578 378.274 386.584 378.389 386.222L378.373 386.205Z" fill="#0E141B"/>
<path d="M317.948 354.601C312.684 347.149 289.62 328.905 279.519 324.858C276.738 323.739 276.936 321.847 279.864 322.489C292.268 325.236 313.72 343.809 319.61 353.45C321.041 355.802 319.33 356.559 317.948 354.585V354.601Z" fill="#0E141B"/>
<path d="M269.599 359.339C267.477 349.436 278.532 330.385 285.803 325.746C286.083 325.565 288.666 327.901 287.86 328.247C282.661 330.451 271.08 350.752 272.856 358.994C273.037 359.849 269.747 360.096 269.599 359.339Z" fill="#0E141B"/>
<path d="M352.611 383.653C347.807 381.679 341.819 367.893 344.616 359.322C346.804 352.594 359.191 358.96 362.07 360.605C366.051 362.876 370.806 366.297 369.835 370.311C367.927 378.241 355.934 385.019 352.611 383.653Z" fill="#0E141B"/>
<path d="M352.018 385.118C346.063 382.683 340.157 367.894 343.118 358.829C346.294 349.139 373.701 361.132 371.398 370.674C369.045 380.446 355.358 386.483 352.018 385.118ZM346.129 359.816C343.513 367.811 349.534 380.676 353.219 382.173C355.572 383.144 366.15 378.866 368.305 369.917C368.864 367.614 366.495 364.949 361.297 361.971C353.812 357.694 347.1 356.871 346.129 359.8V359.816Z" fill="#0E141B"/>
<path d="M296.661 362.465C294.818 355.062 299.342 341.753 303.899 339.039L315.908 350.505C316.879 353.565 316.254 359.751 314.346 362.399C314.346 362.399 304.903 363.551 302.205 363.387C299.507 363.206 296.677 362.482 296.677 362.482L296.661 362.465Z" fill="#0E141B"/>
<path d="M216.561 721.393C216.1 720.653 219.39 719.781 219.851 720.538C222.565 724.914 232.831 736.709 234.032 736.479C234.821 736.331 237.782 728.779 238.424 721.426C238.506 720.554 242.076 720.241 241.994 721.13C241.27 729.322 236.845 739.917 234.92 739.999C230.922 740.18 220.41 727.644 216.561 721.409V721.393Z" fill="#0E141B"/>
<path d="M253.855 716.212C253.148 715.686 255.04 713.136 255.747 713.662C259.975 716.805 271.359 721.394 272.067 720.884C272.823 720.325 271.047 709.254 268.974 701.686C268.842 701.193 271.507 698.61 271.705 699.465C274.847 712.363 275.702 722.48 274.732 723.698C273.547 725.195 260.995 721.493 253.855 716.212Z" fill="#0E141B"/>
<path d="M208.829 718.647C203.351 714.304 193.184 704.927 186.571 690.927C180.714 678.506 175.154 656.001 175.45 648.894C175.729 641.919 180.747 635.783 184.317 630.963C187.87 626.143 188.15 623.741 188.644 619.661C188.775 618.575 191.407 622.129 191.276 623.181C190.749 627.541 189.696 628.939 186.801 632.92C183.906 636.918 178.855 643.071 178.608 649.026C178.345 655.738 183.889 677.832 189.433 689.578C195.767 703.002 205.539 712 210.787 716.179C217.4 721.41 237.009 721.262 245.367 718.4C253.97 715.439 262.887 706.884 268.365 699.86C274.238 692.325 274.518 680.694 271.82 677.042C266.555 669.935 263.775 663.602 262.262 657.367C262.147 656.873 263.841 653.32 264.022 654.175C265.272 660.427 268.941 668.191 274.337 675.463C278.104 680.546 277.413 693.427 270.882 701.801C265.124 709.187 255.681 718.203 246.419 721.394C239.099 723.911 217.351 725.408 208.845 718.663L208.829 718.647Z" fill="#0E141B"/>
<path d="M303.504 353.154C302.007 352.66 301.135 350.538 301.777 348.432C302.616 345.734 304.475 344.353 306.202 344.912C307.864 345.455 308.439 348.07 307.683 350.275C306.86 352.677 305.264 353.73 303.504 353.154Z" fill="white"/>
<path d="M349.386 360.952C348.679 362.613 350.373 364.538 352.035 365.245C354.223 366.167 356.098 365.558 356.707 364.291C357.217 363.238 356.444 360.952 354.124 360.014C352.018 359.158 349.913 359.701 349.37 360.968L349.386 360.952Z" fill="#8B989F"/>
<path d="M309.114 431.478C306.877 427.547 305.133 423.73 303.8 419.42C300.609 409.22 297.434 404.581 295.377 402.442C294.769 401.801 297.368 399.827 297.911 400.518C301.876 405.733 304.722 411.721 306.548 417.824C307.979 422.611 309.772 426.181 311.878 429.916C327.917 458.195 355.226 453.885 354.453 430.886C354.321 426.922 350.932 422.167 345.635 418.482C340.815 415.126 335.732 413.629 332.672 414.649C331.833 414.929 330.829 411.918 331.668 411.639C336.505 410.026 342.74 413.136 347.198 416.245C353.4 420.555 357.447 425.77 357.628 430.788C358.483 456.188 327.276 463.509 309.114 431.495V431.478Z" fill="#0E141B"/>
<path d="M278.68 631.834C261.193 627.113 251.717 620.433 251.717 598.751C251.717 552.129 287.876 529.295 311.335 529.525C323.706 529.657 344.698 532.618 357.875 540.975C360.376 542.571 359.471 544.298 356.839 542.966C344.106 536.435 324.447 532.865 311.582 532.717C290.525 532.404 254.892 555.551 254.892 598.751C254.892 618.509 263.183 624.365 279.503 628.774C292.614 632.311 312.915 627.244 318.491 623.247C326.01 617.884 337.196 597.024 339.516 589.884C340.569 586.643 342.263 586.248 341.934 589.67C341.029 599.113 328.346 620.137 320.35 625.846C313.178 630.962 291.791 635.387 278.68 631.85V631.834Z" fill="#0E141B"/>
<path d="M257.771 618.542C256.882 622.408 259.597 643.777 261.192 644.468C262.476 645.011 274.534 630.847 276.426 627.326C277.528 625.27 275.324 618.13 269.846 616.222C264.367 614.314 258.182 616.765 257.771 618.558V618.542Z" fill="white"/>
<path d="M294.588 629.202C294.473 631.061 305.676 652.661 306.663 652.661C308.653 652.661 316.83 630.601 317.356 626.323C317.488 625.221 313.095 622.753 306.252 623.444C299.391 624.135 294.67 627.804 294.588 629.202Z" fill="white"/>
<path d="M260.551 643.959C262.492 640.192 271.705 622.128 271.31 617.588C271.31 617.588 277.726 623.379 276.558 626.57C275.39 629.762 260.551 643.959 260.551 643.959Z" fill="#DCDDDD"/>
<path d="M306.137 651.707C307.042 646.508 307.255 626.964 305.183 623.592C305.183 623.592 316.073 623.674 317.093 626.142C318.113 628.609 306.137 651.707 306.137 651.707Z" fill="#DCDDDD"/>
<path d="M256.224 618.196C257.08 614.462 265.618 613.064 270.372 614.725C276.393 616.831 279.585 624.81 277.824 628.083C274.37 634.581 263.479 645.702 260.896 644.929C256.981 643.761 255.352 621.98 256.224 618.196ZM259.301 618.986C258.527 620.615 260.534 641.688 261.604 641.935C262.969 642.231 272.823 630.732 275.028 626.586C276.163 624.398 273.218 619.085 269.319 617.719C264.614 616.074 260.074 617.357 259.301 618.986Z" fill="#0E141B"/>
<path d="M293.009 629.105C292.926 626.801 299.046 622.557 306.104 621.866C313.704 621.109 319.215 624.35 318.952 626.522C318.31 631.687 309.196 653.008 306.663 652.975C303.899 652.926 293.19 633.497 293.025 629.105H293.009ZM296.661 629.434C296.661 631.227 305.561 649.06 306.449 648.994C307.354 648.928 316.237 628.134 315.727 626.588C315.349 625.485 310.94 624.317 305.791 624.827C300.033 625.403 296.677 628.479 296.677 629.45L296.661 629.434Z" fill="#0E141B"/>
</g>
<defs>
<clipPath id="clip0_42_63569">
<rect width="499.502" height="520" fill="white" transform="translate(150 220)"/>
</clipPath>
</defs>
</svg>
