<svg width="800" height="800" viewBox="0 0 800 800" fill="none" xmlns="http://www.w3.org/2000/svg">
<g clip-path="url(#clip0_42_58690)">
<path d="M550.034 379.567C548.543 384.587 548.59 391.428 551.524 395.114C551.383 400.072 552.293 404.842 555.101 408.215C557.298 410.835 560.624 412.623 565.519 412.984C570.649 419.495 575.56 423.308 583.498 422.398C596.254 420.939 594.998 411.007 605.337 410.694C615.692 410.38 618.61 419.479 617.559 423.339C622.015 421.409 621.042 414.224 618.642 409.125C617.81 407.352 617.622 401.108 622.062 398.77C629.797 394.691 630.393 400.559 636.904 400.653C644.215 400.762 647.039 395.005 656.562 400.857C659.778 402.833 662.179 404.544 662.948 409.721C663.355 412.419 667.45 415.793 664.344 421.645C669.082 419.746 668.988 411.823 667.278 408.293C662.681 398.817 654.711 393.859 648.325 391.145C643.995 389.31 642.991 387.615 643.729 386.329C644.748 384.54 651.934 384.289 658.57 393.389C658.994 390.549 656.342 388.588 657.629 385.638C659.527 381.245 658.68 376.554 655.731 373.84C649.58 368.145 642.615 371.816 638.112 372.601C635.759 373.009 631.522 371.471 635.507 369.118C641.956 365.305 640.355 357.398 637.469 353.413C637.469 356.943 636.449 361.038 634.111 362.12C629.969 364.019 622.564 361.007 617.575 362.215C614.233 363.015 613.088 365.054 607.252 365.258C602.215 365.431 597.273 361.791 601.807 359.626C604.757 358.214 610.421 359.281 610.421 352.221C607.267 354.292 604.067 355.264 600.913 354.841C599.093 354.59 594.073 352.487 589.884 352.299C588.597 370.451 589.57 388.368 585.993 398.582C573.159 388.807 561.047 382.704 550.018 379.567H550.034Z" fill="#E60021"/>
<path d="M554.803 381.073C551.242 385.968 550.363 392.73 552.528 396.966C557.925 407.493 565.801 400.292 570.32 403.006C574.822 405.736 573.567 411.745 580.282 411.839C584.314 411.902 584.377 407.98 586.856 407.681C585.193 406.975 585.397 400.559 590.417 399.147C596.112 397.546 599.486 403.838 603.58 403.116C600.066 398.127 608.02 391.177 617.638 392.746C615.567 390.439 612.241 388.353 608.146 389.184C609.087 387.254 613.935 385.152 618.971 385.136C622.156 385.136 624.384 388.196 627.71 388.478C631.271 388.776 632.04 387.709 634.707 387.647C632.103 386.941 631.475 383.74 628.4 382.846C625.325 381.952 621.309 383.316 619.238 382.72C617.167 382.124 615.677 380.728 612.664 381.653C613.857 380.885 614.625 379.52 614.798 378.563C613.135 379.567 607.44 380.1 605.557 380.037C606.091 376.476 616.288 370.608 623.396 370.906C613.731 366.937 606.138 368.537 598.968 372.915C594.23 375.801 591.515 377.151 588.848 377.59C588.487 385.937 587.86 393.263 586.024 398.535C575.026 390.157 564.546 384.462 554.819 381.042L554.803 381.073Z" fill="#F0EA0D"/>
<path d="M343.143 631.971C321.947 624.943 301.803 611.701 287.212 591.902C279.979 582.08 274.331 571.726 269.907 561.183C260.431 575.617 242.357 604.108 240.835 608.03C238.576 613.788 237.666 633.995 240.458 640.742C242.749 646.295 256.916 661.012 265.326 662.738C267.804 663.24 270.817 663.428 274.143 663.349C266.879 669.06 259.85 678.944 262.078 684.357C264.761 690.868 302.587 701.474 306.65 701.96C311.436 702.541 315.828 700.626 320.802 695.653C323.563 692.892 326.732 682.066 334.577 669.249C339.99 660.4 346.281 651.379 346.626 649.92C347.254 647.237 344.633 636.741 343.159 631.971H343.143Z" fill="#F39800"/>
<path d="M287.682 609.897C287.949 617.993 279.493 643.425 267.867 649.23C260.525 652.901 245.651 644.225 240.364 641.589C245.683 648.178 258.956 661.42 265.325 662.722C267.804 663.224 284.764 662.785 284.764 662.785C273.452 669.719 268.416 677.815 265.529 687.558C275.539 693.849 303.214 701.521 306.65 701.929C311.435 702.509 315.828 700.595 320.802 695.622C323.563 692.861 326.732 682.035 334.577 669.217C336.569 665.954 338.687 662.675 340.586 659.757C343.331 655.537 340.46 634.858 335.863 629.618C319.908 622.652 297.535 609.301 280.528 583.147C283.462 590.788 287.494 604.077 287.698 609.881L287.682 609.897Z" fill="#D28300"/>
<path d="M617.967 514.665C612.915 455.564 548.685 453.462 542.095 427.136C538.455 412.592 546.598 401.61 559.353 394.66C558.349 394.189 557.518 393.954 555.917 393.828C556.513 393.122 559.777 391.161 561.079 390.863C558.71 390.565 551.415 391.161 549.987 391.836C540.401 394.832 524.571 407.729 526.72 430.18C529.309 457.322 564.844 473.293 556.058 500.843C550.614 517.897 525.371 522.274 511.062 520.611C511.031 521.678 510.984 522.76 510.937 523.89C510.655 531.201 511.768 536.928 508.458 544.066C508.191 544.647 507.815 545.227 507.375 545.792C519.88 559.222 528.728 584.199 534.376 607.575C582.008 585.956 621.325 553.668 617.999 514.649L617.967 514.665Z" fill="#F39800"/>
<path d="M534.345 607.591C580.659 586.567 619.113 555.456 618.124 517.881C603.596 559.567 552.34 568.839 518.578 560.994C523.614 572.526 531.27 594.882 534.345 607.591Z" fill="#D28300"/>
<path d="M726.159 258.715C710.203 235.919 654.382 206.816 634.457 196.398C626.22 192.099 613.198 179.517 604.334 176.567C594.23 173.194 587.076 176.599 570.461 175.814C550.442 174.873 505.571 171.296 488.674 167.201C481.097 165.365 476.123 159.513 470.899 159.717C466.49 159.89 462.803 160.8 459.665 162.212C449.624 154.524 435.881 142.726 428.727 142.475C424.757 142.334 420.349 146.789 420.38 149.849C420.459 156.407 433.496 161.427 444.149 175.626C444.698 176.363 445.53 177.571 446.502 178.795C445.404 182.811 444.933 187.173 444.933 191.566C444.933 198.453 477.065 248.25 474.492 329.3C473.958 345.852 427.095 394.362 410.559 396.402C399.169 397.798 383.887 386.721 376.388 388.761C368.92 390.785 363.288 397.829 361.797 406.364C365.986 403.509 370.975 401.752 375.996 402.05C385.143 402.583 396.015 409.831 408.394 409.219C412.238 409.031 417.54 408.764 423.126 408.466C443.286 395.539 457.296 376.884 472.75 363.015C483.136 353.68 491.185 345.899 492.189 341.835C499.547 312.026 476.861 230.38 463.588 200.336C471.856 199.426 476.688 192.774 479.779 187.957C494.934 193.966 553.125 188.02 581.24 195.629C605.699 202.25 689.023 244.061 705.732 260.582C722.127 276.773 742.868 329.347 753.317 373.668C754.148 377.198 758.384 378.249 758.525 373.072C759.31 343.263 738.679 276.616 726.175 258.762L726.159 258.715Z" fill="#F39800"/>
<path d="M346.14 272.004C338.044 270.262 333.777 275.063 325.32 273.871C324.238 273.714 322.998 273.369 321.665 272.914C323.861 268.521 327.737 268.568 328.27 266.418C329.76 260.425 321.618 252.565 315.013 254.479C313.93 254.793 310.212 257.523 307.404 258.935C303.011 255.342 293.456 254.667 287.808 257.444C287.808 257.444 287.792 257.444 287.777 257.429C282.74 254.542 268.699 249.929 263.788 251.608C256.43 254.118 241.118 271.251 239.8 273.745C239.705 273.918 239.627 274.122 239.533 274.31C229.837 275.126 206.649 277.307 203.715 277.558C200.279 277.84 196.922 288.461 201.801 289.324C206.162 290.093 227.798 295.318 235.422 296.949C235.344 297.53 235.266 298 235.171 298.283C233.555 303.256 228.817 309.391 228.566 313.815C228.268 319.259 231.72 324.578 234.497 333.991C237.133 342.918 237.682 348.205 240.302 352.818C243.738 358.874 252.68 364.224 256.916 368.695C264.526 376.712 271.319 390.55 273.123 393.013C274.927 395.476 287.039 405.862 289.659 406.27C293.77 406.913 302.587 404.795 307.341 404.795C312.502 404.795 318.558 405.705 320.676 404.795C322.967 403.807 323.391 401.454 325.43 398.253C327.313 395.272 329.117 393.264 329.274 390.973C329.855 382.768 319.782 362.812 321.335 345.209C321.634 341.835 333.557 324.64 338.311 318.302C338.782 319.322 339.205 319.965 339.488 319.996C340.915 320.122 345.669 311.979 347.787 306.206C348.117 306.237 348.477 306.221 348.885 306.143C351.458 305.61 358.722 298.11 359.146 293.733C359.57 289.324 353.514 273.604 346.124 272.019L346.14 272.004Z" fill="#F39800"/>
<path d="M359.162 293.512C354.69 297.607 349.56 300.541 348.226 300.651C346.532 300.776 343.535 299.6 342.092 299.867C340.664 300.133 333.087 305.216 326.309 303.773C319.531 302.345 307.011 292.289 299.967 293.214C292.923 294.124 268.793 311.21 266.581 312.386C264.369 313.563 262.8 321.392 260.054 322.176C257.309 322.961 249.888 325.957 249.888 331.574C249.888 337.191 260.195 339.403 260.195 339.403L312.11 339.277C313.412 341.489 318.103 339.544 320.457 337.191C322.81 334.837 343.41 311.633 343.41 311.633L345.591 311.272C346.438 309.547 347.222 307.789 347.803 306.205C348.132 306.236 348.493 306.221 348.901 306.142C351.474 305.609 358.738 298.109 359.162 293.732C359.162 293.669 359.162 293.591 359.162 293.544V293.512Z" fill="#D28300"/>
<path d="M293.331 263.265C289.612 267.297 285.047 272.678 280.293 273.604C275.492 274.545 259.944 261.649 255.144 264.802C246.97 270.184 244.067 285.292 252.978 292.007C252.978 292.007 269.828 280.146 277.03 281.009C280.654 281.448 283.07 280.68 284.545 279.691C285.988 275.345 293.127 265.618 302.54 267.171C311.953 268.725 318.056 271.203 320.645 272.663C323.124 269.038 327.501 269.352 328.27 266.403C329.023 263.453 327.784 261.492 327.172 260.347C326.764 263.249 317.962 269.148 315.06 269.352C312.157 269.556 302.54 266.356 302.54 266.356L302.226 263.971C300.563 264.802 295.605 264.896 293.331 263.249V263.265Z" fill="#D28300"/>
<path d="M429.087 628.128C418.733 605.881 419.862 572.181 430.044 545.101C399.168 489.594 314.589 485.562 289.126 502.537C271.319 514.398 264.776 536.849 270.518 562.673C274.849 572.698 280.308 582.535 287.212 591.886C314.824 629.351 362.346 643.393 399.168 636.16C408.519 637.557 420.678 637.416 434.5 635.847C432.068 633.132 430.201 630.512 429.087 628.128Z" fill="#FFF799"/>
<path d="M558.851 631.956C551.524 624.112 544.841 612.157 534.659 608.909C529.026 585.156 520.084 559.489 507.36 545.808C507.799 545.243 508.176 544.663 508.442 544.082C511.753 536.944 510.654 531.202 510.921 523.906C511.188 516.987 511.753 511.481 506.779 506.099C502.167 501.11 491.388 501.345 486.431 491.885C486.807 490.096 486.964 488.59 486.823 487.602C486.242 483.774 484.438 482.252 482.132 476.886C479.888 471.646 479.339 465.622 476.186 462.845C477.268 456.977 478.131 447.658 477.88 443.406C477.566 438.056 476.044 431.953 476.044 426.901C476.044 424.14 476.656 420.186 476.499 416.515C476.343 412.844 471.463 407.039 468.404 405.517C465.345 403.995 455.115 405.674 451.601 406.427C448.087 407.196 420.741 408.561 408.378 409.173C395.999 409.784 385.127 402.536 375.98 402.003C366.88 401.469 357.922 407.666 353.529 414.977C344.775 413.11 329.399 408.812 325.854 405.894C324.614 404.889 323.987 403.132 323.814 401.14C322.92 402.85 322.214 404.136 320.692 404.78C318.574 405.69 312.502 404.78 307.356 404.78C302.603 404.78 293.785 406.898 289.675 406.254C287.055 405.846 274.943 395.445 273.139 392.997C271.334 390.55 264.541 376.712 256.932 368.679C252.696 364.208 243.753 358.858 240.317 352.802C237.697 348.189 237.148 342.902 234.512 333.975C232.865 328.406 230.998 324.264 229.79 320.687C214.038 367.816 233.743 413.361 258.783 439.139C255.504 462.452 249.809 514.665 270.518 562.674C264.776 536.85 271.319 514.414 289.126 502.538C302.524 493.611 332.286 490.504 361.97 497.643C361.876 497.957 361.781 498.27 361.719 498.6C360.715 503.871 360.95 517.819 374.631 522.322C387.355 526.511 397.003 521.725 401.145 514.367C412.739 522.102 422.859 532.19 430.044 545.118C419.862 572.181 418.733 605.897 429.087 628.144C436.43 643.927 477.284 670.191 493.13 668.402C499.264 667.712 505.352 665.641 510.56 663.287C515.675 679.071 525.794 699.011 538.173 699.89C553.893 701.004 580.784 679.227 582.557 667.68C584.314 656.149 565.582 639.158 558.851 631.956ZM427.079 451.407C422.263 447.815 412.614 440.802 403.922 435.53C404.079 435.53 404.236 435.53 404.409 435.514C411.876 435.028 426.514 432.471 435.394 432.863C432.837 439.358 429.417 447.752 427.079 451.423V451.407Z" fill="#F39800"/>
<path d="M257.34 512.798C254.673 513.3 251.111 513.834 250.452 513.834C249.558 513.834 242.827 511.402 240.396 509.613C237.87 507.762 234.512 502.381 232.614 500.937C231.108 499.808 227.593 499.588 223.452 500.529C220.69 501.157 217.678 502.302 215.45 503.463C210.649 499.886 204.609 495.556 201.958 495.901C199.306 496.246 196.451 497.611 194.097 500.2C191.744 502.789 182.252 505.707 180.887 511.794C179.915 516.077 183.727 522.086 184.857 523.718C185.986 525.334 194.097 524.942 195.886 523.718C197.314 522.745 198.741 520.533 200.044 517.976C203.134 519.623 207.935 522.337 208.469 522.98C209.206 523.875 215.121 533.853 215.278 535.218C215.434 536.599 212.281 543.972 210.979 545.196C209.677 546.42 206.523 548.365 204.986 548.036C203.448 547.706 200.357 545.761 198.177 546.09C193.862 546.734 188.543 551.833 188.277 558.092C188.183 560.461 192.309 567.051 194.521 568.965C196.31 570.502 201.738 569.702 209.441 569.781C215.999 569.843 220.486 571.946 223.31 571.491C226.228 571.005 230.151 566.188 235.391 561.685C240.662 557.151 245.934 556.006 247.236 554.719C249.636 552.319 250.233 547.345 252.178 546.608C253.716 546.028 260.242 544.647 263.772 543.925C260.666 533.445 258.626 522.965 257.355 512.814L257.34 512.798Z" fill="#F39800"/>
<path d="M204.907 520.705C204.734 523.56 204.813 528.126 205.127 530.307C206.335 529.601 208.97 528.048 210.932 526.996C209.755 525.004 208.719 523.341 208.453 523.011C208.17 522.666 206.696 521.741 204.907 520.705Z" fill="#DCDDDD"/>
<path d="M184.857 523.733C184.198 522.792 182.629 520.344 181.625 517.63C181.405 520.595 181.311 524 181.625 525.114C182.033 526.651 184.057 530.228 185.924 531.515C187.006 529.883 189.218 526.855 191.148 524.753C188.434 524.925 185.516 524.659 184.857 523.733Z" fill="#DCDDDD"/>
<path d="M193.878 548.004C190.521 546.247 185.39 543.658 184.857 544.317C183.884 545.525 185.249 553.589 188.277 557.998C188.481 553.793 190.96 550.122 193.878 547.988V548.004Z" fill="#DCDDDD"/>
<path d="M685.713 413.816C687.799 410.616 687.423 405.689 685.572 402.897C682.936 398.943 678.056 397.264 675.342 399.147C682.638 403.462 680.206 408.812 685.697 413.816H685.713Z" fill="#E60021"/>
<path d="M617.858 513.771C613.998 553.448 576.627 579.821 526.61 581.296C529.654 589.815 532.227 598.821 534.345 607.591C581.977 585.971 621.294 553.683 617.967 514.665C617.936 514.351 617.889 514.069 617.858 513.771Z" fill="#DED685"/>
<path d="M255.692 696.313C256.979 683.667 262.423 673.83 269.42 674.976C272.746 675.525 275.602 685.377 274.723 688.092C273.845 690.806 260.038 696.25 255.692 696.313Z" fill="white"/>
<path d="M271.24 708.472C269.954 707.593 270.629 693.112 274.708 688.562C278.787 684.012 283.886 683.055 285.313 683.667C286.741 684.279 291.699 691.543 290.146 697.458C288.859 700.925 273.217 709.805 271.256 708.472H271.24Z" fill="white"/>
<path d="M292.86 698.211C293.174 695.371 300.406 688.625 303.999 689.174C307.592 689.723 312.565 697.254 311.812 700.721C311.059 704.189 297.064 715.469 296.045 715.202C295.025 714.936 292.311 703.043 292.844 698.211H292.86Z" fill="#DCDDDD"/>
<path d="M313.334 337.348C314.526 332.186 328.787 320.922 335.643 310.724C335.408 309.924 335.188 309.155 335 308.433C332.914 309.328 330.388 310.002 327.015 309.955C318.009 309.83 305.395 297.451 298.523 298.377C293.879 299.004 275.853 311.618 269.608 314.897C266.831 316.356 265.09 322.538 262.203 324.954C261.121 325.864 257.528 326.57 254.672 327.731C254.155 330.68 253.966 334.477 254.39 336.517C255.457 341.757 264.462 350.919 272.323 361.886C278.661 370.734 283.619 379.081 287.055 386.847C287.917 388.777 290.977 391.193 293.518 392.338C294.413 392.746 300.155 392.762 306.54 392.919C312.926 393.075 319.97 393.374 320.864 392.919C323.532 391.585 324.3 390.549 324.3 387.6C324.3 382.846 310.635 348.958 313.334 337.332V337.348Z" fill="#933000"/>
<path d="M277.092 310.426C274.048 312.34 271.366 314.003 269.608 314.913C266.831 316.372 265.09 322.553 262.203 324.969C261.121 325.879 257.528 326.585 254.672 327.746C254.155 330.696 253.966 334.493 254.39 336.532C254.72 338.148 255.818 340.156 257.402 342.478C256.304 329.739 267.992 319.039 283.807 328.374C287.07 326.444 292.201 324.624 297.441 325.675C297.472 325.675 297.519 325.707 297.551 325.707C295.511 316.246 286.898 310.347 277.076 310.441L277.092 310.426Z" fill="#6A1B00"/>
<path d="M318.197 374.249C317.146 369.95 313.318 363.722 313.804 361.337C314.275 358.952 316.142 353.461 315.436 349.476C314.103 341.914 306.258 327.417 297.456 325.66C292.216 324.609 287.086 326.429 283.823 328.359C268.008 319.024 256.32 329.724 257.418 342.463C259.787 345.915 263.239 350.072 266.894 354.716C269.875 357.917 274.864 359.486 280.826 357.854C284.199 363.078 291.997 374.72 293.064 376.257C295.166 379.316 304.391 384.87 305.881 387.161C308.376 390.989 309.333 396.308 313.145 396.057C318.888 395.68 319.264 378.548 318.213 374.249H318.197Z" fill="#CF7487"/>
<path d="M322.841 375.394C321.837 375.363 320.096 377.465 318.652 380.148C318.652 383.238 318.339 386.847 317.585 389.859C319.766 391.255 324.081 390.455 324.426 388.133C324.849 385.309 324.473 375.457 322.826 375.394H322.841Z" fill="white"/>
<path d="M266.612 271.674C263.051 269.76 259.301 268.066 256.101 267.799C250.233 274.561 248.884 285.135 254.359 292.744C257.042 291.96 260.807 290.783 261.419 290.187C262.533 289.104 263.663 287.928 264.792 286.971C261.278 282.044 262.596 274.749 266.612 271.674Z" fill="white"/>
<path d="M252.774 273.07C255.724 273.07 259.709 273.808 263.914 275.141C264.573 273.745 265.483 272.537 266.612 271.674C263.051 269.76 259.301 268.066 256.101 267.799C254.736 269.383 253.622 271.172 252.774 273.07Z" fill="#DCDDDD"/>
<path d="M266.612 271.674C262.596 274.749 261.278 282.044 264.792 286.971C265.247 286.578 265.718 286.218 266.173 285.919C268.934 284.147 273.327 281.652 277.03 281.024C276.575 279.299 275.618 277.526 274.566 276.145C272.354 274.984 269.546 273.258 266.612 271.674Z" fill="#008087"/>
<path d="M335 308.449C336.209 313.061 338.562 319.902 339.519 319.98C340.947 320.106 345.7 311.963 347.818 306.189C346.046 306.048 345.151 304.605 343.457 304.746C340.664 304.966 338.436 306.974 335.016 308.433L335 308.449Z" fill="white"/>
<path d="M298.523 298.392C298.382 298.408 298.194 298.471 298.037 298.518C300.343 304.26 305.819 316.215 307.325 316.403C308.282 316.529 311.624 308.998 313.444 304.652C307.764 301.373 302.289 297.89 298.523 298.408V298.392Z" fill="white"/>
<path d="M326.325 268.363C324.881 269.226 322.983 270.277 321.681 272.897C323.014 273.352 324.254 273.698 325.336 273.854C325.462 273.87 325.572 273.87 325.681 273.886C326.105 271.972 326.34 269.979 326.325 268.363Z" fill="#DCDDDD"/>
<path d="M242.953 418.837C220.549 407.242 208.751 389.749 204.64 380.446C197.737 364.835 197.753 274.937 200.169 263.845C201.424 258.134 203.385 246.697 202.318 241.347C201.722 238.35 198.741 232.953 195.713 230.27C195.713 219.115 202.099 203.819 207.496 192.413C209.096 189.024 200.718 180.803 197.502 184.913C194.285 189.024 180.715 213.844 177.859 220.449C170.36 219.727 165.355 228.67 162.139 231.698C146.512 246.461 117.849 252.768 111.965 260.801C107.008 267.563 94.8329 288.037 81.4344 307.758C66.7338 329.409 50.7938 350.401 46.9657 357.226C39.0271 371.362 41.2549 436.157 47.86 474.187C51.3272 494.128 60.4112 508.389 66.2475 518.117C71.064 526.149 75.0961 522.604 71.5974 516.689C49.6328 479.365 46.5735 388.965 57.493 365.447C64.4589 350.448 106.066 294.376 122.132 277.588C126.101 273.431 135.781 267.642 144.457 260.801C151.251 255.451 161.244 246.603 171.96 242.414C175.976 249.788 181.264 250.619 188.026 249.913C186.425 259.201 183.711 364.506 190.85 391.459C193.689 402.191 226.448 428.046 255.488 435.624C251.033 430.619 246.781 424.987 242.953 418.837Z" fill="#F39800"/>
<path d="M404.409 435.515C404.252 435.515 404.095 435.514 403.922 435.53C410.888 439.766 419.251 445.461 424.459 449.258C426.452 447.611 427.613 446.811 430.06 445.806C431.77 442.01 433.873 436.66 435.379 432.847C426.499 432.455 411.861 435.012 404.393 435.499L404.409 435.515Z" fill="#00666C"/>
<path d="M705.716 260.535C688.992 244.03 605.683 202.219 581.224 195.582C553.109 187.957 494.903 193.919 479.763 187.91C476.672 192.727 471.856 199.395 463.572 200.289C476.845 230.349 499.531 311.979 492.173 341.788C491.169 345.851 483.136 353.649 472.734 362.968C457.281 376.837 443.27 395.491 423.11 408.419C435.457 407.76 449.185 406.944 451.617 406.427C455.131 405.658 465.36 403.979 468.42 405.517C471.479 407.039 476.358 412.843 476.515 416.515C476.672 420.186 476.06 424.14 476.06 426.901C476.06 431.937 477.582 438.04 477.896 443.406C477.99 444.99 477.927 447.297 477.755 449.87C480.924 451.344 483.826 452.96 486.321 454.639C484.109 429.584 491.702 394.158 509.148 383.348C526.579 372.538 554.082 374.264 586.009 398.566C593.775 376.398 580.063 317.956 614.735 299.6C644.827 283.676 715.365 313.046 750.681 363.172C739.651 321.361 720.84 275.455 705.716 260.519V260.535Z" fill="#008087"/>
<path d="M257.701 447.484C252.79 451.752 246.201 457.149 245.903 460.977C245.62 464.538 248.868 474.391 254.108 482.11C254.579 482.236 255.065 482.345 255.52 482.518C255.536 468.931 256.587 456.898 257.701 447.5V447.484Z" fill="#D28300"/>
<path d="M257.701 447.485C258.062 444.41 258.438 441.633 258.783 439.154L255.74 435.687C226.637 428.188 193.705 402.222 190.866 391.46C183.727 364.49 186.426 259.186 188.042 249.913C181.264 250.619 175.993 249.788 171.976 242.414C161.261 246.603 151.267 255.452 144.473 260.802C135.813 267.642 126.133 273.431 122.148 277.589C106.082 294.376 64.475 350.449 57.5091 365.447C47.3113 387.428 49.3195 467.818 67.5501 508.704C67.2363 471.097 83.3332 426.65 116.437 426.336C134.652 426.164 155.001 465.261 158.405 478.298C166.265 461.15 179.475 449.368 192.686 452.411C207.92 455.91 219.106 478.455 220.722 493.485C228.786 484.825 243.691 479.318 254.108 482.126C248.868 474.392 245.605 464.555 245.903 460.993C246.201 457.165 252.79 451.784 257.701 447.501V447.485Z" fill="#008087"/>
<path d="M399.168 636.161C408.519 637.557 420.678 637.416 434.5 635.847C432.068 633.133 430.201 630.513 429.087 628.128C426.028 621.57 422.718 594.6 421.604 586.505C381.738 621.476 296.86 601.425 271.005 563.74C275.257 573.389 280.575 582.865 287.212 591.886C314.824 629.352 362.346 643.393 399.168 636.161Z" fill="#DED685"/>
<path d="M274.708 688.091C275.477 685.754 273.453 678.129 270.754 675.713C265.341 680.2 259.584 689.833 256.697 696.234C261.843 695.528 273.892 690.633 274.708 688.107V688.091Z" fill="#DCDDDD"/>
<path d="M290.13 697.457C291.699 691.543 286.725 684.279 285.298 683.667C284.686 683.4 283.399 683.463 281.83 683.918C278.128 689.158 272.982 698.603 271.915 708.581C275.476 708.487 288.938 700.658 290.13 697.457Z" fill="#DCDDDD"/>
<path d="M554.866 640.428C548.481 633.729 542.425 627.689 537.828 621.837C537.326 620.111 536.024 614.51 534.753 608.925C534.722 608.925 534.69 608.909 534.675 608.893C533.765 605.034 532.745 601.112 531.647 597.205C528.901 613.961 498.919 640.005 485.113 640.005C474.052 640.005 439.442 625.492 424.13 607.701C424.757 614.118 427.848 628.191 431.378 632.537C449.421 654.815 482.571 669.578 493.146 668.386C499.28 667.696 505.368 665.625 510.576 663.272C515.691 679.055 525.81 698.995 538.189 699.874C551.54 700.815 572.94 685.252 580.173 673.469C572.203 656.259 561.252 647.127 554.866 640.428Z" fill="#D28300"/>
<path d="M534.345 691.888C536.479 690.397 549.312 692.468 552.089 696.704C552.529 697.379 551.791 716.206 549.861 717.994C549.014 718.779 535.977 707.467 532.431 698.399C532.07 697.489 533.262 692.656 534.361 691.903L534.345 691.888Z" fill="#DCDDDD"/>
<path d="M555.635 681.125C557.204 679.698 566.021 679.902 569.708 682.804C571.999 684.608 577.082 702.07 576.439 702.525C574.634 703.843 560.326 698.744 556.655 694.163C554.301 691.229 554.364 682.255 555.635 681.11V681.125Z" fill="#DCDDDD"/>
<path d="M574.634 666.032C571.606 668.621 571.497 677.642 574.211 680.043C578.243 683.588 594.936 687.652 595.611 687.071C596.458 686.35 588.817 668.433 583.405 664.699C582.197 663.867 576.36 664.526 574.619 666.017L574.634 666.032Z" fill="white"/>
<path d="M595.61 687.088C595.61 687.088 595.657 686.994 595.673 686.931C585.507 679.745 577.097 670.614 575.215 665.578C570.367 668.967 571.794 677.941 574.211 680.059C578.243 683.605 594.936 687.668 595.61 687.088Z" fill="#DCDDDD"/>
<path d="M750.681 363.188C739.651 321.377 720.84 275.471 705.716 260.535C688.992 244.03 605.683 202.219 581.224 195.582C553.109 187.957 494.903 193.919 479.763 187.91C476.672 192.727 471.856 199.395 463.572 200.289C476.845 230.349 499.531 311.979 492.173 341.788C491.169 345.851 483.136 353.649 472.734 362.968C457.281 376.837 443.27 395.491 423.11 408.419C433.229 407.886 454.394 405.783 459.383 405.266C467.259 382.234 497.868 355.249 502.543 349.523C508.725 341.961 501.963 284.492 494.934 256.377C492.314 245.897 498.903 238.758 508.693 248.172C524.21 263.108 544.402 288.477 558.239 318.96C558.02 290.077 544.464 257.224 529.575 231.871C523.065 220.794 527.834 211.961 540.432 211.899C556.686 211.805 574.43 213.781 585.068 217.813C601.525 224.042 689.446 262.857 699.958 273.368C709.623 283.033 728.951 319.933 741.55 351.578C746.351 356.693 746.664 357.461 750.665 363.156L750.681 363.188Z" fill="#00666C"/>
<path d="M257.701 447.485C258.077 444.347 258.454 441.492 258.815 438.982L255.724 435.687C226.637 428.188 193.721 402.222 190.881 391.46C183.743 364.49 186.441 259.186 188.057 249.913C181.28 250.619 176.008 249.788 171.992 242.414C161.276 246.603 151.282 255.452 144.489 260.802C135.829 267.642 126.148 273.431 122.163 277.589C106.098 294.376 64.4907 350.449 57.5247 365.447C47.3269 387.428 49.3351 467.818 67.5657 508.704C67.5186 503.573 67.801 498.302 68.3658 493.046C60.7724 455.8 60.1605 394.817 69.1032 374.217C77.0419 355.94 109.785 315.65 132.738 292.697C146.513 278.922 157.464 283.692 156.397 299.789C154.859 323.228 151.8 359.234 156.82 361.666C159.174 334.916 167.112 283.786 174.753 282.719C167.411 323.275 158.405 384.274 159.503 422.006C162.233 419.01 171.27 333.41 176.871 334.242C179.13 334.571 179.491 397.092 184.982 403.76C198.679 420.39 232.52 445.963 250.076 454.404C252.382 452.051 255.253 449.634 257.701 447.485Z" fill="#00666C"/>
<path d="M304.046 423.983C313.318 423.371 320.3 415.134 325.038 404.999C324.332 403.979 323.956 402.63 323.814 401.155C322.92 402.865 322.214 404.152 320.692 404.795C318.574 405.705 312.503 404.795 307.357 404.795C302.603 404.795 293.786 406.913 289.675 406.27C287.055 405.862 274.943 395.46 273.139 393.013C271.335 390.565 264.541 376.728 256.932 368.695C252.696 364.223 243.753 358.873 240.317 352.818C237.697 348.205 237.148 342.918 234.513 333.991C232.865 328.421 230.998 324.279 229.79 320.702C228.912 323.322 228.174 325.927 227.5 328.531C238.733 384.023 272.919 426.07 304.046 423.999V423.983Z" fill="#D28300"/>
<path d="M199.573 283.534C199.024 286.233 199.447 288.9 201.801 289.323C206.037 290.076 227.86 295.332 236.034 297.121L237.289 287.158C229.005 288.523 207.072 286.311 199.573 283.55V283.534Z" fill="#D28300"/>
<path d="M315.546 394.645C318.966 390.409 319.092 377.842 318.213 374.249C317.162 369.95 313.334 363.722 313.82 361.337C314.291 358.952 316.158 353.461 315.452 349.476C315.373 349.037 315.263 348.566 315.154 348.08C310.133 341.412 307.341 341.945 299.355 344.926C296.233 346.087 292.671 342.887 288.608 344.346C285.768 345.365 283.383 350.747 286.866 358.591C289.377 364.224 292.53 365.134 297.033 372.837C301.536 380.54 305.458 377.34 308.8 384.745C310.839 389.248 313.24 393.044 315.562 394.645H315.546Z" fill="#EE869A"/>
<path d="M305.866 387.16C304.376 384.87 295.15 379.316 293.048 376.256C291.997 374.719 284.184 363.078 280.811 357.853C274.833 359.485 269.86 357.916 266.879 354.715C266.643 354.417 266.424 354.135 266.188 353.853C268.212 356.394 270.299 359.093 272.323 361.917C272.417 362.058 272.511 362.199 272.605 362.325C272.825 362.058 272.966 361.901 272.966 361.901C285.345 363.329 288.137 383.018 294.727 384.932C299.841 386.407 302.477 389.2 304.172 392.887C304.94 392.902 305.74 392.918 306.541 392.934C307.325 392.95 308.125 392.981 308.925 392.997C307.937 391.239 307.09 389.027 305.866 387.176V387.16Z" fill="#6A1B00"/>
<path d="M289.863 384.713C290.208 381.544 297.912 373.951 299.026 374.421C300.139 374.892 300.359 385.451 299.779 387.851C298.602 392.652 289.236 390.628 289.863 384.713Z" fill="white"/>
<path d="M712.259 257.302C693.949 240.751 597.509 188.741 578.918 186.42C560.326 184.098 492.471 179.673 483.34 176.253C474.037 172.77 468.812 175.673 463.29 172.472C457.767 169.271 435.112 148.938 429.307 148.938C426.844 148.938 425.118 153.237 420.694 151.402C422.608 157.254 434.375 162.557 444.165 175.61C444.714 176.347 445.545 177.555 446.518 178.779C446.487 178.889 446.471 179.014 446.44 179.14C448.056 181.446 450.738 184.16 453.139 182.638C448.73 191.205 455.759 199.19 461.564 214.597C471.15 240.013 489.6 317.376 481.614 338.352C477.269 349.773 435.128 401.108 411.594 401.971C389.724 402.787 381.268 389.121 376.012 402.018C385.158 402.551 396.031 409.8 408.41 409.188C412.253 408.999 417.556 408.733 423.142 408.435C443.302 395.507 457.312 376.853 472.766 362.984C483.152 353.649 491.2 345.867 492.205 341.803C499.563 311.994 476.876 230.349 463.603 200.304C471.872 199.394 476.704 192.742 479.795 187.926C494.95 193.935 553.141 187.988 581.255 195.598C605.714 202.218 689.039 244.03 705.748 260.55C722.143 276.741 742.884 329.315 753.332 373.636C753.74 375.378 754.995 376.523 756.172 376.602C753.332 340.438 730.536 273.823 712.29 257.318L712.259 257.302Z" fill="#D28300"/>
<path d="M487.388 518.603C490.776 513.284 487.388 505.377 483.12 502.819C482.053 504.53 481.63 509.001 478.21 509.864C463.336 513.582 449.263 506.35 450.926 496.309C452.746 485.358 450.973 481.545 446.628 480.651C440.603 479.396 430.672 483.098 422.482 484.557C413.1 486.236 405.491 485.985 400.141 489.17C391.779 494.143 401.82 510.978 384.985 513.912C377.141 515.277 363.35 508.577 361.421 500.45C360.26 511.433 366.017 519.481 374.631 522.321C387.966 526.714 397.913 521.238 401.71 513.284C406.903 517.646 414.151 521.96 418.811 522.556C427.816 523.702 434.045 517.3 453.28 525.255C461.689 528.738 469.455 527.2 475.511 528.518C474.931 529.695 474.476 530.997 474.287 532.503C473.205 541.791 478.272 548.537 485.568 551.346C494.683 554.844 504.849 550.09 508.003 544.882C495.687 546.498 477.362 534.339 487.388 518.634V518.603Z" fill="#D28300"/>
<path d="M373.579 503.087C378.694 500.639 385.786 502.255 389.19 509.503C392.391 516.297 388.672 520.376 391.669 536.112C383.903 535.908 372.513 529.397 368.59 519.654C365.704 512.469 368.888 505.346 373.564 503.102L373.579 503.087Z" fill="white"/>
<path d="M450.691 500.388C454.001 495.321 463.399 492.042 470.459 495.525C473.974 497.266 478.178 506.789 475.433 511.982C472.091 518.258 459.885 530.433 449.969 531.343C451.727 512.406 448.04 504.452 450.691 500.388Z" fill="white"/>
<path d="M479.779 537.242C476.562 540.976 478.021 549.354 471.699 562.909C485.207 564.572 497.507 556.979 499.641 549.966C501.916 542.513 497.46 537.446 492.502 535.689C486.258 533.476 482.022 534.637 479.779 537.242Z" fill="white"/>
<path d="M403.561 430.478C392.171 431.231 388.814 425.598 384.044 428.846C379.275 432.094 376.827 441.727 378.914 448.081C380.279 444.237 383.809 437.553 387.135 436.141C392.124 434.039 396.831 436 404.408 435.514C411.814 435.028 426.263 432.517 435.159 432.847L438.987 424.202C425.573 424.202 410.119 430.038 403.561 430.478Z" fill="#D28300"/>
<path d="M258.36 519.968C251.927 522.321 247.503 523.137 245.134 523.137C242.765 523.137 235.124 522.462 232.096 521.16C229.947 520.234 227.123 515.057 224.926 514.272C221.82 513.174 217.882 514.602 215.78 513.033C207.935 507.212 206.586 504.545 201.785 504.028C197.376 503.557 189.987 515.229 180.981 515.402C181.735 518.932 184.025 522.525 184.872 523.717C186.002 525.333 194.113 524.941 195.902 523.717C197.329 522.745 198.757 520.532 200.059 517.975C203.15 519.622 207.951 522.337 208.484 522.98C209.222 523.874 215.136 533.852 215.293 535.217C215.45 536.598 212.297 543.972 210.995 545.195C209.692 546.419 206.539 548.365 205.001 548.035C203.464 547.706 200.373 545.76 198.192 546.09C193.878 546.733 188.559 551.832 188.293 558.092C188.198 560.461 192.325 567.05 194.537 568.964C196.325 570.502 201.754 569.702 209.457 569.78C216.015 569.843 220.502 571.945 223.326 571.49C226.244 571.004 230.166 566.187 235.407 561.685C240.678 557.151 245.95 556.005 247.252 554.719C249.652 552.318 250.248 547.345 252.194 546.607C253.731 546.027 260.258 544.646 263.788 543.925C261.403 535.892 259.662 527.859 258.391 519.983L258.36 519.968Z" fill="#D28300"/>
<path d="M218.541 505.691C221.491 504.922 227.782 504.169 228.833 505.016C229.884 505.879 231.029 511.872 231.029 511.872L227.688 508.735L222.353 508.452L218.541 505.691Z" fill="#D28300"/>
<path d="M242.953 418.837C220.549 407.242 208.751 389.749 204.641 380.446C197.737 364.835 197.753 274.937 200.169 263.845C201.424 258.134 203.385 246.697 202.319 241.347C201.722 238.35 198.742 232.953 195.714 230.27C195.714 219.116 202.099 203.819 207.496 192.413C208.422 190.467 206.053 186.937 203.244 185.055C194.584 197.888 181.342 224.434 182.598 228.199C184.057 232.592 178.785 236.405 172.337 234.946C168.085 233.973 155.361 246.54 141.994 255.687C135.06 260.44 124.972 263.217 120.861 266.747C116.515 270.497 54.6066 356.551 51.9865 364.302C43.5459 389.341 48.1584 456.788 54.9831 482.581C57.9013 493.626 65.9968 514.524 71.943 522.666C73.1824 522.117 73.3707 519.717 71.5978 516.689C49.6332 479.365 46.5738 388.965 57.4934 365.447C64.4593 350.448 106.067 294.376 122.132 277.588C126.101 273.431 135.782 267.642 144.458 260.801C151.251 255.451 161.245 246.603 171.96 242.414C175.977 249.788 181.264 250.619 188.026 249.913C186.426 259.201 183.711 364.506 190.85 391.459C193.69 402.191 226.448 428.046 255.489 435.624C251.033 430.619 246.781 424.987 242.953 418.837Z" fill="#D28300"/>
<path d="M303.418 299.286C301.599 298.565 299.935 298.204 298.523 298.392C298.382 298.408 298.194 298.471 298.037 298.518C300.343 304.26 305.819 316.215 307.325 316.403C307.498 316.419 307.749 316.199 308.047 315.776C306.258 311.289 304.36 304.542 303.418 299.286Z" fill="#DCDDDD"/>
<path d="M342.045 305.028C339.848 305.672 337.84 307.24 335 308.449C336.099 312.685 338.185 318.788 339.252 319.823C340.429 315.101 341.496 309.374 342.045 305.044V305.028Z" fill="#DCDDDD"/>
<path d="M298.492 374.531C298.1 379.364 297.143 386.722 295.056 390.471C297.19 390.738 299.261 389.954 299.779 387.851C300.359 385.451 300.155 374.908 299.025 374.421C298.916 374.374 298.712 374.422 298.476 374.531H298.492Z" fill="#DCDDDD"/>
<path d="M322.387 375.504C321.367 375.959 319.908 377.826 318.668 380.148C318.668 383.239 318.355 386.847 317.602 389.859C318.229 390.267 319.045 390.487 319.892 390.534C321.32 385.937 322.167 379.52 322.371 375.52L322.387 375.504Z" fill="#DCDDDD"/>
<path d="M266.612 271.674C265.482 272.537 264.573 273.745 263.914 275.141C268.306 276.537 272.903 278.593 276.716 281.103C276.826 281.087 276.92 281.056 277.03 281.04C276.575 279.314 275.618 277.542 274.566 276.161C272.354 275 269.546 273.274 266.612 271.69V271.674Z" fill="#00666C"/>
<path d="M299.308 284.005C300.045 285.95 308.392 289.245 311.546 287.912C309.93 284.209 302.744 281.934 299.308 284.005Z" fill="#D28300"/>
<path d="M342.876 291.269C345.089 291.803 348.995 291.74 349.466 288.304C346.971 286.751 343.818 288.163 342.876 291.269Z" fill="#D28300"/>
<path d="M479.779 537.241C476.562 540.975 478.021 549.353 471.699 562.908C471.918 562.94 472.122 562.94 472.342 562.955C480.359 557.59 483.968 544.772 484.862 534.637C482.65 534.95 480.94 535.892 479.779 537.241Z" fill="#DCDDDD"/>
<path d="M454.205 496.983C452.731 497.956 451.507 499.117 450.675 500.388C448.024 504.451 451.711 512.39 449.954 531.342C450.189 531.327 450.44 531.264 450.691 531.233C454.723 524.549 455.963 511.323 454.205 496.983Z" fill="#DCDDDD"/>
<path d="M389.206 509.503C388.296 507.573 387.119 506.052 385.786 504.891C383.809 513.676 385.943 529.303 390.806 535.829C391.12 535.861 391.387 536.096 391.685 536.112C388.688 520.376 392.406 516.297 389.206 509.503Z" fill="#DCDDDD"/>
<path d="M277.641 278.216C275.931 277.808 273.295 276.819 270.283 275.094C265.545 272.364 258.924 268.896 254.657 269.242C253.653 269.414 250.719 272.379 248.915 274.937C246.875 277.823 245.934 277.055 247.361 273.838C248.162 272.034 251.456 266.574 254.406 266.323C259.615 265.884 266.345 269.869 271.617 273.117C274.221 274.733 276.559 276.506 277.861 276.819C280.151 277.368 279.273 278.608 277.641 278.216Z" fill="#0E141B"/>
<path d="M271.695 276.051C272.934 276.788 273.531 278.592 272.778 280.24C271.868 282.216 269.797 282.985 268.212 281.871C266.941 280.977 266.753 278.686 267.647 277.306C268.557 275.909 270.44 275.298 271.711 276.051H271.695Z" fill="#0E141B"/>
<path d="M267.428 272.584L265.122 271.438C260.462 275.439 260.211 283.252 263.725 287.551L265.53 285.904C262.941 282.044 263.443 275.408 267.428 272.584Z" fill="#0E141B"/>
<path d="M257.497 268.426L254.139 267.877C248.413 276.365 248.224 285.355 252.978 292.964L255.316 292.132C250.28 285.26 251.535 274.576 257.497 268.426Z" fill="#0E141B"/>
<path d="M309.443 287.033C306.603 285.025 303.575 284.335 301.442 284.727C298.979 285.182 298.131 283.111 300.375 281.997C303.544 280.397 307.89 282.672 310.698 285.512C313.067 287.912 311.859 288.728 309.459 287.033H309.443Z" fill="#0E141B"/>
<path d="M342.751 289.622C343.975 286.124 346.971 285.418 348.964 286.563C350.58 287.489 350.203 289.073 348.179 289.011C346.893 288.963 345.434 289.732 344.477 290.689C343.143 292.023 342.013 291.787 342.751 289.638V289.622Z" fill="#0E141B"/>
<path d="M300.924 260.66C298.508 258.997 297.3 259.734 299.371 261.727C300.406 262.731 301.112 264.112 301.269 266.292L304.297 266.826C303.936 263.61 302.571 261.79 300.924 260.676V260.66Z" fill="#0E141B"/>
<path d="M314.605 253.066C311.247 254.039 309.333 256.91 305.615 258.589C302.524 259.985 302.948 261.475 306.258 260.675C310.839 259.577 312.487 256.831 315.421 255.874C320.896 254.29 327.893 261.868 326.842 266.041C326.466 267.547 321.586 268.881 320.002 271.862L322.81 272.819C324.85 269.445 329.117 269.038 329.698 266.747C331.533 259.389 322.418 250.776 314.605 253.05V253.066Z" fill="#0E141B"/>
<path d="M327.768 267.783L324.818 269.791C325.164 271.188 325.164 272.694 324.818 274.09L327.125 274.2C327.611 272.004 327.862 269.666 327.768 267.783Z" fill="#0E141B"/>
<path d="M319.892 345.067C318.323 362.733 328.113 383.725 327.611 390.754C327.47 392.778 325.869 394.817 324.206 397.453C323.14 399.147 322.088 402.018 320.159 402.85C317.005 404.199 312.298 403.132 307.341 403.132C301.677 403.132 296.045 405.188 290.02 404.136C287.526 403.697 277.108 395.272 274.723 392.04C270.911 386.847 263.553 373.543 257.983 367.675C253.81 363.282 245.777 358.246 242.153 351.845C240.537 348.99 236.819 336.674 235.909 333.567C234.152 327.605 230.214 319.306 230.512 313.799C230.778 308.779 234.967 303.633 236.568 298.722C239.062 291.019 237.352 281.825 241.243 274.498C242.514 272.113 257.481 255.42 264.274 253.098C268.573 251.624 282.395 255.781 287.259 258.558C289.753 259.986 292.734 263.61 292.938 264.457C293.221 265.728 289.942 270.356 287.055 272.819C285.439 274.2 283.415 274.781 281.956 276.444C280.811 277.761 281.925 278.436 283.29 277.354C284.905 276.067 287.478 275.251 288.483 274.388C290.004 273.086 295.951 267.752 295.119 264.065C294.664 262.025 291.338 258.009 288.514 256.393C283.792 253.695 268.714 247.999 263.035 249.945C254.971 252.706 239.564 270.199 238.246 272.694C233.853 280.962 235.501 292.525 233.775 297.812C232.175 302.738 226.903 308.528 226.636 313.564C226.323 319.526 231.594 329.284 233.1 334.399C233.995 337.442 236.866 350.715 238.686 353.916C241.572 358.999 251.708 365.322 255.865 369.699C265.341 379.693 268.73 389.954 271.868 394.237C274.974 398.473 286.239 407.886 289.189 408.357C294.711 409.22 302.32 406.474 307.451 406.474C311.451 406.474 318.841 407.886 321.775 406.647C324.348 405.548 325.116 401.548 326.701 399.038C327.799 397.312 330.89 393.405 331.047 391.209C331.721 381.78 321.194 363.91 322.826 345.334C323.155 341.6 334.718 326.539 339.44 320.216L337.244 316.67C332.757 322.569 320.268 341.02 319.908 345.083L319.892 345.067Z" fill="#0E141B"/>
<path d="M294.131 391.02C291.636 390.095 289.236 387.537 288.592 386.094C285.188 378.375 279.979 370.075 273.515 361.054C264.259 348.127 257.199 342.337 255.944 336.156C255.473 333.85 255.536 330.037 256.085 327.401C256.085 327.401 253.214 328.719 253.182 328.876C252.649 331.355 252.319 334.712 252.759 336.878C253.857 342.322 262.737 351.045 271.131 362.764C277.485 371.629 282.207 380.367 285.533 387.898C286.6 390.314 290.381 392.683 293.08 393.907C295.229 394.88 301.316 394.127 309.694 394.393L307.89 391.805C302.132 391.679 296.06 391.742 294.131 391.02Z" fill="#0E141B"/>
<path d="M322.92 388.981C322.559 391.35 320.08 391.648 317.068 391.632L315.781 394.644C317.601 394.644 320.504 394.754 321.523 394.252C324.41 392.809 325.712 389.891 325.712 387.506C324.755 387.961 322.92 388.981 322.92 388.981Z" fill="#0E141B"/>
<path d="M315.907 351.829L314.714 357.838C315.452 361.917 318.95 373.809 320.143 377.606L322.386 374.939C320.268 368.161 317.554 359.454 315.922 351.813L315.907 351.829Z" fill="#0E141B"/>
<path d="M311.906 337.019C311.796 337.474 311.734 337.96 311.671 338.462L314.777 345.522C314.369 342.384 314.307 339.655 314.777 337.678C316.032 332.249 330.89 319.933 336.146 312.56L335.032 308.951C328.537 319.306 313.036 332.14 311.906 337.019Z" fill="#0E141B"/>
<path d="M250.374 329.582C252.508 325.816 258.187 326.083 261.247 323.51C263.208 321.863 265.89 315.211 268.934 313.61C272.982 311.477 292.358 297.466 298.32 296.651C306.133 295.599 318.009 308.417 327.282 308.543C334.718 308.606 339.284 303.632 343.19 303.46C345.497 303.35 346.72 304.589 348.572 304.166C350.533 303.726 357.201 297.341 357.561 293.528C357.969 289.34 352.149 275.078 345.826 273.713C338.06 272.035 334.891 276.239 325.195 274.859C318.464 273.902 310.526 268.599 301.332 268.395C294.994 268.316 287.573 274.56 284.937 280.805C283.446 284.335 281.705 283.597 283.211 280.067C286.208 272.976 293.754 265.084 301.505 265.226C310.102 265.414 319.923 271.94 325.493 272.741C334.812 274.058 338.123 268.63 346.563 270.434C355.035 272.254 361.201 289.214 360.762 293.795C360.291 298.753 352.478 307.147 349.23 307.774C346.767 308.26 344.728 305.891 343.347 306.001C338.609 306.362 335.691 311.508 327.062 311.414C318.433 311.304 305.411 298.973 298.822 299.883C294.037 300.541 276.716 312.81 270.283 316.183C267.036 317.894 267.146 322.961 263.255 326.24C261.121 328.029 255.096 327.574 251.943 330.758C249.809 332.924 248.727 332.437 250.358 329.566L250.374 329.582Z" fill="#0E141B"/>
<path d="M307.278 314.317C306.352 314.317 301.803 304.041 299.998 298.863L296.688 299.491C299.088 305.484 304.595 317.878 307.482 317.878C309.333 317.878 313.24 309.767 314.762 305.955L311.765 304.354C310.667 307.79 308.204 314.301 307.278 314.317Z" fill="#0E141B"/>
<path d="M346.171 305.374C344.932 310.049 340.413 318.114 339.802 318.004C339.19 317.878 337.338 311.226 336.475 307.712L333.4 308.998C334.546 313.47 337.119 321.33 339.378 321.44C342.045 321.581 347.16 312.528 349.325 306.535L346.171 305.374Z" fill="#0E141B"/>
<path d="M202.052 287.865C199.432 287.348 201.973 278.954 204.311 278.75C208.123 278.405 233.022 276.695 237.948 276.271L239.627 272.537C231.939 273.196 207.088 275.691 203.322 276.177C198.663 276.773 194.442 289.011 201.534 290.768C205.613 291.772 229.523 297.545 234.497 298.659L235.799 294.643C229.633 293.388 206.931 288.869 202.036 287.881L202.052 287.865Z" fill="#0E141B"/>
<path d="M279.32 309.673L276.12 311.634C288.137 310.85 294.539 318.976 295.684 325.001L299.041 325.676C297.064 315.854 288.373 310.144 279.304 309.673H279.32Z" fill="#0E141B"/>
<path d="M289.487 331.417C280.952 323.51 270.989 321.674 263.804 326.397C259.254 329.378 256.665 334.241 256.352 339.905L258.658 343.372C257.528 337.034 260.148 331.135 264.965 327.966C271.115 323.934 279.932 325.581 288.436 332.672C292.107 335.716 292.985 334.649 289.471 331.417H289.487Z" fill="#0E141B"/>
<path d="M319.374 373.95C318.025 368.428 314.322 364.129 314.856 361.462C315.609 357.743 317.586 353.554 316.754 348.91C315.436 341.458 307.466 326.46 297.598 324.483C291.918 323.353 287.039 325.346 283.336 327.668L285.266 328.64C288.42 327.024 293.126 325.957 297.253 326.773C305.364 328.389 312.769 342.792 313.993 349.664C314.84 354.417 313.083 357.32 312.565 361.32C312.204 364.035 315.687 370.075 316.785 374.593C317.884 379.08 317.021 394.063 312.942 394.33C309.992 394.518 308.831 389.012 307.105 386.36C306.305 385.121 303.811 383.191 300.579 380.791C300.328 380.602 300.453 384.87 300.453 384.87C302.414 386.329 304.171 387.223 304.658 387.96C307.513 392.353 308.439 398.033 313.255 397.719C321.053 397.201 320.268 377.543 319.39 373.95H319.374Z" fill="#0E141B"/>
<path d="M280.732 355.594C277.391 350.229 273.045 347.169 269.264 346.871C266.597 346.667 266.346 347.577 268.981 348.048C272.103 348.597 275.116 350.872 278.96 356.677C283.117 362.937 289.942 375.849 292.891 378.704L295.26 376.555C292.201 373.605 283.87 360.646 280.717 355.594H280.732Z" fill="#0E141B"/>
<path d="M269.75 447.579C234.889 418.24 217.741 367.392 230.857 324.749L228.66 318.176C209.19 373.699 236.677 425.661 268.463 449.32C272.793 452.552 274.237 451.344 269.75 447.563V447.579Z" fill="#0E141B"/>
<path d="M321.79 405.03C321.272 410.114 321.147 415.448 321.21 418.193C321.398 426.305 323.249 426.211 323.516 418.131C323.626 414.522 324.646 405.14 325.446 399.021L321.806 405.03H321.79Z" fill="#0E141B"/>
<path d="M299.606 373.072C297.457 372.146 288.687 380.885 288.31 384.384C287.494 391.962 299.842 394.472 301.363 388.243C301.96 385.796 301.332 373.81 299.606 373.056V373.072ZM298.602 388.071C297.865 391.083 290.46 388.871 290.867 385.043C291.166 382.235 297.833 376.226 298.226 376.414C298.712 376.634 299.261 385.357 298.602 388.087V388.071Z" fill="#0E141B"/>
<path d="M322.967 374.17C322.214 373.997 319.468 376.46 318.982 377.151L318.919 383.034C319.939 380.524 321.822 377.135 322.434 377.261C323.03 377.37 323.751 385.827 323.375 388.243C323.187 389.529 319.939 390.329 318.354 389.404L317.413 391.428C320.88 393.028 325.258 390.769 325.603 388.478C326.136 384.932 325.556 374.782 322.967 374.185V374.17Z" fill="#0E141B"/>
<path d="M326.795 404.779C325.759 403.916 325.21 402.034 325.226 399.774L322.731 403.508C323.139 404.905 323.767 406.427 324.849 407.321C328.693 410.474 343.347 414.836 352.133 416.766L354.188 413.094C345.606 411.259 330.043 407.462 326.779 404.779H326.795Z" fill="#0E141B"/>
<path d="M479.559 443.515C479.418 441.068 477.315 429.615 477.315 426.916C477.315 425.488 478.068 418.381 477.99 416.452C477.802 412.059 472.718 405.579 469.345 403.885C465.125 401.767 451.46 404.967 451.319 404.983C448.965 405.501 434.5 406.599 408.315 407.901C395.968 408.497 385.221 400.637 375.948 400.088C362.189 399.303 347.457 413.439 349.936 425.473C350.642 428.909 352.023 428.705 351.96 425.19C351.803 414.788 364.794 403.21 375.807 403.853C386.978 404.496 395.026 410.945 408.315 410.286C435.394 408.952 449.357 408.403 451.93 407.854C457.17 406.709 465.329 406.034 467.51 407.132C470.286 408.513 474.93 413.675 475.04 416.561C475.166 419.448 474.601 424.014 474.601 426.838C474.601 429.662 475.935 441.052 476.06 443.374C476.295 447.28 475.668 455.533 474.695 461.275L477.707 464.036C478.884 458.153 479.825 448.112 479.543 443.499L479.559 443.515Z" fill="#0E141B"/>
<path d="M404.33 434.071C395.842 434.62 392.563 432.267 386.554 434.793C382.71 436.424 379.165 443.5 377.988 447.767C376.607 452.772 378.286 452.992 379.949 448.254C381.345 444.332 385.017 438.621 387.684 437.491C392.971 435.263 397.646 437.444 404.675 436.989C414.041 436.377 424.726 434.526 433.872 434.683L435.52 431.263C426.718 430.808 410.276 433.679 404.299 434.055L404.33 434.071Z" fill="#0E141B"/>
<path d="M451.413 412.404C452.386 411.698 453.986 411.055 455.413 410.898C457.939 410.6 458.112 411.823 455.617 412.388C454.504 412.639 452.84 413.267 452.087 413.675C450.424 414.553 449.452 413.863 451.397 412.419L451.413 412.404Z" fill="#0E141B"/>
<path d="M445.906 415.338C441.858 417.346 439.175 419.81 437.198 424.312C436.1 426.807 428.946 446.779 425.432 451.329C422.623 454.953 414.81 463.237 411.657 469.575L416.505 467.787C420.364 461.605 423.894 457.84 427.66 453.008C431.205 448.442 435.065 436.518 439.897 425.505C441.623 421.582 443.725 418.821 446.941 416.64C449.185 415.134 448.291 414.162 445.906 415.338Z" fill="#0E141B"/>
<path d="M457.626 455.878C452.244 453.431 450.989 454.278 456.276 457.871C457.155 458.467 459.43 459.722 461.218 460.334L467.682 459.314C464.56 458.483 459.618 456.773 457.626 455.878Z" fill="#0E141B"/>
<path d="M424.49 461.087C418.387 466.626 412.802 468.822 405.899 469.81C399.67 470.705 387.558 468.147 382.365 470.438C374.788 473.764 373.611 479.789 371.399 483.679C369.453 487.084 361.217 490.975 359.836 498.207C358.706 504.107 359.852 515.607 369.391 521.49L368.026 516.595C362.88 511.245 362.738 503.369 363.586 498.961C364.856 492.356 371.618 489.218 373.94 485.123C376.325 480.95 377.282 476.321 384.013 473.356C387.841 471.677 401.977 473.325 406.307 472.713C413.853 471.63 419.454 468.587 425.918 462.342C428.899 459.456 427.565 458.31 424.49 461.087Z" fill="#0E141B"/>
<path d="M404.189 503.62C402.95 498.302 401.396 498.772 402.102 503.997C403.075 511.245 397.568 517.944 390.273 520.408L390.634 525.256C401.036 522.306 406.087 511.747 404.189 503.605V503.62Z" fill="#0E141B"/>
<path d="M410.402 499.368C408.158 499.996 405.993 501.424 403.687 503.447L404.001 508.295C406.213 504.671 408.347 502.428 411.312 501.047C414.371 499.619 413.65 498.458 410.386 499.368H410.402Z" fill="#0E141B"/>
<path d="M445.482 495.901C446.549 489.28 449.577 488.04 448.243 483.13C447.271 479.568 445.027 479.819 445.749 483.444C446.455 487.036 442.846 489.311 441.905 495.242C440.995 500.89 443.317 509.958 450.314 513.111L450.001 509.581C445.686 506.491 444.823 499.995 445.498 495.885L445.482 495.901Z" fill="#0E141B"/>
<path d="M488.659 487.492C488.015 483.162 485.458 480.887 483.497 476.306C481.395 471.395 480.673 463.519 476.625 460.805C470.663 456.836 459.697 458.342 452.056 460.868C446.91 462.562 447.663 464.743 452.825 463.049C461.219 460.272 470.224 461.15 474.57 464.053C478.147 466.438 478.68 472.509 480.814 477.467C482.634 481.734 484.548 484.15 485.097 487.79C485.552 490.818 482.618 500.64 479.339 506.413C478.555 507.794 477.378 509.159 475.903 510.037L475.025 513.756C477.974 512.547 480.798 510.837 482.273 508.233C485.646 502.271 489.286 491.509 488.674 487.492H488.659Z" fill="#0E141B"/>
<path d="M391.685 537.571H391.653C383.15 537.352 371.054 530.433 366.99 520.313C363.821 512.438 367.649 504.311 372.952 501.769C379.479 498.647 386.758 500.31 390.759 508.766C394.179 516.03 390.178 520.329 393.128 535.83C393.363 537.085 392.94 537.571 391.685 537.571ZM374.223 504.421C370.112 506.382 367.712 512.5 370.269 518.854C373.564 527.06 382.663 533.414 389.912 534.481C387.496 519.968 390.696 516.783 387.574 510.163C385.095 504.907 379.651 501.832 374.223 504.421Z" fill="#0E141B"/>
<path d="M286.474 256.471L289.643 258.071C294.507 256.189 301.677 256.926 305.646 259.483L308.282 258.071C303.073 253.616 292.75 252.941 286.49 256.471H286.474Z" fill="#0E141B"/>
<path d="M446.659 191.361C446.424 187.659 447.286 183.266 448.102 179.657L445.294 176.064C444.133 179.673 442.894 187.157 443.082 191.236C443.568 201.387 474.052 241.707 472.86 329.173C472.656 344.408 426.2 392.557 410.292 394.518C399.247 395.883 383.699 384.791 375.854 386.909C367.476 389.184 361.499 397.515 360.197 407.054L363.617 404.857C365.437 397.703 370.771 392.29 377.125 390.565C383.62 388.792 400.157 399.492 410.841 398.174C428.585 395.993 475.731 346.322 476.139 329.299C478.115 246.618 447.177 199.802 446.643 191.346L446.659 191.361Z" fill="#0E141B"/>
<path d="M727.618 257.506C711.537 234.522 656.155 206.093 635.414 195.237L635.147 195.095C626.549 190.608 614.39 177.838 605.008 174.7C595.109 171.389 582.432 174.904 570.54 174.339C551.226 173.429 506.011 169.883 489.035 165.773C480.72 163.749 477.865 157.74 470.773 158.022C466.145 158.211 462.16 159.387 458.646 161.066L461.36 163.058C464.074 161.992 467.322 161.364 471.04 161.411C476.311 161.474 480.077 166.62 488.329 168.628C505.493 172.786 550.975 176.363 570.383 177.273C585.57 177.979 595.062 175.61 603.596 178.449C613.292 181.681 624.039 192.601 633.782 197.684L634.049 197.825C654.617 208.588 709.058 237.456 724.747 259.86C737.58 278.2 757.788 344.219 757.035 372.962C756.956 375.77 755.325 375.849 754.729 373.26C744.703 330.711 724.166 276.427 706.908 259.373C689.478 242.162 605.416 200.116 581.836 193.715C555.431 186.561 494.856 192.271 480.312 186.514C479.339 186.137 479.104 186.2 478.539 187.078C474.946 192.679 468.483 199.535 460.324 199.222C455.774 199.033 455.555 200.885 460.246 201.402C471.134 202.626 476.217 195.99 480.375 189.651C498.292 195.441 554.066 189.902 580.659 197.104C610.641 205.231 691.015 248.093 704.79 261.695C721.672 278.373 741.958 331.762 751.889 373.919C753.128 379.175 759.812 380.116 760 373.025C760.769 343.843 740.703 276.113 727.649 257.475L727.618 257.506Z" fill="#0E141B"/>
<path d="M465.219 200.398L462.05 200.524C474.915 229.517 497.554 311.79 490.275 341.348C489.333 345.192 480.626 353.962 471.762 361.917C459.022 373.354 441.56 395.444 420.678 408.262L426.719 407.854C446.361 394.409 460.858 375.645 473.723 364.098C485.207 353.79 492.832 346.542 493.915 342.196C501.963 309.531 476.719 226.834 465.219 200.414V200.398Z" fill="#0E141B"/>
<path d="M407.735 435.733L400.941 436.11C409.712 441.256 420.521 448.363 426.232 452.615L427.864 450.167C422.89 446.465 415.626 440.675 407.735 435.733Z" fill="#0E141B"/>
<path d="M613.951 298.031C578.745 316.654 591.987 371.299 585.225 396.15C544.37 365.855 517.825 375.88 508.254 381.795C491.373 392.259 483.136 425.739 484.642 451.846C482.509 450.575 480.202 449.383 477.802 448.269L477.629 451.407C480.485 452.772 483.136 454.262 485.505 455.847C487.309 457.039 487.968 456.537 487.78 454.497C484.878 421.582 497.178 392.981 510.09 384.979C529.183 373.15 557.126 378.421 585.115 399.727C586.291 400.621 586.919 400.402 587.39 399.037C595.673 375.378 582.761 318.599 615.599 301.231C645.392 285.464 717.138 315.022 751.654 367.219L750.132 359.924C713.529 310.159 643.635 282.295 613.936 298.015L613.951 298.031Z" fill="#0E141B"/>
<path d="M431.315 444.033C428.35 445.147 425.558 446.716 423.063 448.85L425.589 450.591C426.907 449.571 428.334 448.677 429.872 447.94L431.315 444.049V444.033Z" fill="#0E141B"/>
<path d="M539.632 262.826C534.973 253.192 516.13 227.823 505.948 216.496C500.818 210.785 497.225 201.403 500.41 196.273C501.932 193.825 503.14 194.516 501.947 197.136C500.347 200.666 503.391 208.542 508.333 214.048C517.825 224.623 536.212 251.435 541.327 261.994C543.006 265.477 541.233 266.12 539.632 262.841V262.826Z" fill="#0E141B"/>
<path d="M557.408 320.42C540.809 276.883 523.974 253.145 513.353 240.484C500.284 224.905 488.156 217.045 479.684 220.136C476.75 221.187 476.233 219.32 479.167 218.253C489.019 214.676 502.088 221.438 516.208 238.272C531.662 256.691 546.206 285.057 559.463 319.823C560.702 323.102 558.584 323.542 557.392 320.451L557.408 320.42Z" fill="#0E141B"/>
<path d="M418.921 149.864C418.874 145.628 424.365 140.89 428.789 141C439.144 141.361 458.849 160.784 465.188 165.114C468.702 167.514 467.4 169.177 463.87 166.761C458.332 162.98 436.006 144.185 428.695 143.934C425.275 143.855 421.839 147.37 421.87 149.833C421.933 155.151 435.959 162.149 445.435 174.92C449.216 180.018 450.44 182.309 452.464 181.917C455.931 181.242 456.104 183.078 452.683 183.894C449.326 184.709 447.098 182.215 443.097 176.787C432.554 162.494 419.015 158.148 418.921 149.849V149.864Z" fill="#0E141B"/>
<path d="M471.103 494.207C463.384 490.395 452.762 493.909 449.107 499.526C446.251 503.903 450.268 512.249 448.511 531.202C448.385 532.551 449.013 532.927 450.111 532.802C460.936 531.814 473.817 519.262 477.159 512.94C480.532 506.586 475.056 496.152 471.118 494.207H471.103ZM473.786 510.931C470.836 516.47 460.544 527.593 451.586 529.601C452.951 511.92 450.064 504.734 452.339 501.251C455.822 495.917 464.325 494.129 469.816 496.843C473.252 498.537 475.433 507.856 473.786 510.931Z" fill="#0E141B"/>
<path d="M492.989 534.307C486.839 532.126 481.379 532.629 478.414 536.064C474.272 540.865 476.923 548.192 470.365 562.296C469.785 563.552 470.067 564.195 471.511 564.367C481.913 565.654 498.339 560.492 501.398 550.483C503.909 542.277 498.621 536.315 492.989 534.307ZM497.915 549.384C496.19 555.048 486.384 562.375 473.88 561.637C478.414 551.079 478.226 541.697 481.097 538.355C483.262 535.845 486.996 535.296 492.016 537.084C496.519 538.684 499.876 542.999 497.915 549.384Z" fill="#0E141B"/>
<path d="M475.935 532.723C476.656 526.557 480.657 525.663 481.19 519.466C481.504 515.858 479.951 515.716 479.229 519.262C478.225 524.267 473.22 526.369 472.53 532.284C471.871 537.995 473.503 543.156 476.876 547.047L477.598 542.607C476.107 539.768 475.511 536.394 475.935 532.739V532.723Z" fill="#0E141B"/>
<path d="M508.145 504.97C504.018 500.498 491.577 499.353 487.451 490.63L486.368 494.583C492.267 502.993 501.414 502.867 505.556 507.339C509.996 512.155 509.682 518.431 509.462 523.828C509.29 528.378 509.917 536.238 506.701 543.172C505.634 545.463 503.501 547.581 500.049 548.522L497.774 553.747C503.453 552.225 508.411 548.522 510.027 545.039C513.636 537.258 512.239 528.127 512.396 523.938C512.632 518.227 514.138 511.449 508.145 504.954V504.97Z" fill="#0E141B"/>
<path d="M418.984 520.737C414.638 520.14 407.547 516.297 402.526 512.045L401.287 514.822C406.652 519.199 413.602 523.749 418.341 524.392C429.731 525.93 433.794 519.011 450.566 525.757V522.635C434.139 516.767 428.021 521.976 418.968 520.737H418.984Z" fill="#0E141B"/>
<path d="M462.191 525.93L458.489 528.33C464.702 529.585 469.189 529.287 474.272 530.166L476.264 526.887C471.04 525.694 468.106 526.604 462.191 525.93Z" fill="#0E141B"/>
<path d="M417.336 629.289C380.859 644.884 321.869 635.627 288.812 590.757C249.919 537.963 255.975 470.234 260.023 440.895L257.45 438.087C253.433 466.264 245.024 537.743 285.721 592.984C320.002 639.502 381.754 649.12 418.231 631.172C422.655 628.991 421.87 627.343 417.336 629.289Z" fill="#0E141B"/>
<path d="M288.168 501.125C271.35 512.343 264.494 533.005 267.961 556.664L273.28 567.537C265.655 540.301 271.711 516.281 290.13 503.996C302.132 495.995 330.278 491.586 361.373 499.007L362.142 496.168C333.902 489.421 302.759 491.367 288.137 501.11L288.168 501.125Z" fill="#0E141B"/>
<path d="M521.653 655.992C517.668 658.455 505.587 664.981 492.926 666.409C478.069 668.056 438.469 642.876 431.174 627.187C421.321 606.022 420.976 573.436 431.425 545.635C431.582 545.227 431.551 544.788 431.331 544.411C424.553 532.237 414.685 521.788 402.416 513.473L400.957 516.014C412.583 523.906 421.933 533.774 428.444 545.243C417.964 573.609 417.179 607.418 427.267 629.101C434.877 645.449 477.237 672.214 493.303 670.378C506.246 668.919 518.326 661.122 523.018 657.827C528.273 654.125 527.128 652.603 521.653 655.992Z" fill="#0E141B"/>
<path d="M509.007 544.553L506.513 547.8C523.865 566.894 533.278 606.822 536.949 624.724C538.848 633.98 540.605 633.776 539.083 624.363C536.149 606.226 527.034 564.18 509.007 544.553Z" fill="#0E141B"/>
<path d="M435.332 637.792L432.304 634.121C424.098 635.455 413.069 635.925 405.318 635.361L395.842 637.071C406.887 639.283 422.341 639.283 435.347 637.792H435.332Z" fill="#0E141B"/>
<path d="M668.439 407.698C664.579 399.759 657.817 394.095 648.592 390.173C645.611 388.902 644.811 387.694 645.376 387.129C646.568 385.937 652.577 386.721 657.566 393.562C658.712 395.146 659.496 395.115 659.574 393.075C659.716 389.592 657.519 388.51 658.711 385.733C660.814 380.869 660.186 375.927 656.735 372.742C649.377 365.933 642.003 370.75 637.924 371.472C635.57 371.895 634.613 371.064 636.151 370.154C642.081 366.639 642.944 358.999 638.551 352.912C636.982 350.747 636.527 351.421 636.527 353.398C636.527 356.944 634.927 360.113 633.499 360.772C629.122 362.78 622.078 359.595 617.23 360.772C614.029 361.541 613.198 364.019 607.173 364.223C601.949 364.38 600.756 361.18 602.294 360.442C606.608 358.387 611.095 360.223 611.629 352.143C611.723 350.731 611.001 350.778 610.028 351.17C607.487 352.99 604.38 354.324 600.945 353.712C597.932 353.178 595.155 351.343 590.841 350.888L590.7 353.571C597.273 354.637 596.709 355.343 600.662 355.892C603.941 356.347 607.361 355.626 609.746 353.335C608.554 357.995 604.349 357.304 601.321 358.748C594.842 361.823 600.772 366.404 607.33 366.169C613.37 365.949 614.28 364.49 617.92 363.611C623.239 362.325 629.891 365.651 634.723 363.439C637.045 362.372 638.08 359.579 638.159 356.771C639.398 359.642 639.257 365.416 634.817 368.051C630.001 370.907 633.499 374.609 638.269 373.762C642.63 372.994 649.157 369.762 654.727 374.908C657.252 377.245 658.461 381.418 656.845 385.152C656.311 386.392 656.123 388.071 657.111 389.906C651.73 383.395 643.98 382.642 642.097 385.78C641.14 387.365 642.128 389.734 647.635 392.071C656.186 395.696 662.618 401.516 666.148 408.796C666.885 410.333 668.156 415.479 666.305 418.696C667.105 414.412 664.705 412.059 664.328 409.58C663.481 403.917 660.563 402.285 656.954 400.073C646.364 393.546 643.242 399.288 636.919 399.194C632.103 399.131 629.655 393.562 621.623 397.798C617.293 400.088 615.441 405.721 617.34 409.753C619.097 413.455 619.897 416.342 618.814 419.81C617.324 413.267 613.778 408.984 605.29 409.219C594.528 409.549 595.548 419.119 583.169 420.531C575.764 421.378 571.465 418.178 566.664 412.075C566.413 411.745 566.037 411.557 565.629 411.526C561.471 411.212 558.537 409.518 556.435 407.007C554.709 404.936 553.564 402.097 553.172 398.551L550.379 400.904C550.912 404.293 552.042 407.164 553.846 409.329C556.356 412.326 560.09 413.91 564.75 414.381C569.896 420.798 575.105 425.144 583.608 424.171C596.52 422.696 596.41 412.404 605.369 412.138C613.935 411.84 617.277 418.743 616.132 422.932C615.535 425.128 616.681 425.709 618.14 424.657C623.631 420.672 622.439 414.052 619.834 408.529C618.501 405.689 619.74 401.469 622.674 399.932C629.075 396.558 630.66 402.018 636.872 402.112C645.752 402.253 647.102 396.558 656.076 402.065C659.166 403.964 660.798 405.407 661.488 409.925C661.928 412.844 666.399 415.699 663.497 421.174C662.43 423.183 662.838 423.402 664.815 422.618C670.525 420.343 670.588 412.153 668.423 407.698H668.439Z" fill="#0E141B"/>
<path d="M551.681 380.713L548.308 379.567C546.818 382.329 546.896 388.29 548.277 392.134L551.336 391.585C550.348 388.416 550.426 384.18 551.681 380.713Z" fill="#0E141B"/>
<path d="M684.724 414.899C678.904 409.596 681.618 404.277 675.233 400.434C673.868 399.602 673.742 399.194 675.091 398.269C677.931 396.307 683.72 397.829 686.623 402.206C688.694 405.313 689.494 410.726 686.952 414.616C686.215 415.762 685.587 415.683 684.74 414.899H684.724ZM677.366 399.335C682.528 402.52 681.351 406.16 685.289 411.212C686.058 408.639 685.838 405.376 684.63 403.556C682.481 400.324 679.829 399.1 677.366 399.335Z" fill="#0E141B"/>
<path d="M619.677 514.383C614.782 454.498 549.908 452.411 543.57 426.775C539.93 412.075 547.775 402.285 560.404 395.413C562.067 394.503 561.691 394.048 560.075 393.687C559.212 393.483 558.412 393.374 557.643 393.311C558.788 392.636 560.185 391.993 561.534 391.585C563.605 390.957 563.291 390.298 561.016 390.016C542.974 387.773 522.672 404.936 525.104 430.384C527.724 457.824 562.758 473.45 554.239 500.184C549.14 516.187 525.873 520.062 511.69 518.399V522.855C522.829 524.063 551.854 520.737 557.988 501.518C567.166 472.713 531.003 457.73 528.352 430.054C526.218 407.776 542.676 392.213 556.419 392.056C555.603 392.746 554.333 394.001 554.505 394.362C554.678 394.723 556.262 394.754 557.031 394.989C543.178 402.865 537.436 414.726 540.636 427.513C547.728 455.879 611.033 455.596 616.085 514.712C619.944 559.802 565.221 590.882 534.235 605.128L535.302 609.709C566.821 595.275 623.553 561.528 619.693 514.399L619.677 514.383Z" fill="#0E141B"/>
<path d="M615.175 506.381C617.795 523.058 610.923 538.826 599.439 551.189C583.059 568.823 556.765 578.582 526.25 579.429L527.74 583.022C558.773 582.033 584.785 571.286 601.572 553.197C610.28 543.831 616.759 531.891 618.093 518.603L615.159 506.397L615.175 506.381Z" fill="#0E141B"/>
<path d="M192.481 390.941C185.5 364.6 187.571 259.42 189.155 250.195C189.391 248.862 189.045 248.658 187.743 248.783C181.185 249.474 176.824 248.25 173.247 241.692C172.886 241.049 172.117 240.751 171.427 241.033C160.397 245.363 150.199 254.541 143.798 259.577C133.93 267.375 124.987 272.019 120.908 276.27C105.313 292.571 63.2196 349.099 55.987 364.662C44.6752 389.027 48.566 480.086 70.4365 517.238C73.2135 521.945 71.0013 523.2 67.487 517.332C61.5879 507.464 52.6138 492.575 49.3662 473.858C42.5415 434.541 41.2079 371.613 48.7229 358.23C54.1984 348.487 73.1507 322.71 82.7367 308.606C89.938 298 106.725 271.407 113.566 262.135C119.245 254.447 148.207 246.806 163.127 232.718C168.697 227.446 171.113 221.328 178.032 221.971C179.067 222.065 179.193 221.861 179.522 221.092C182.346 214.55 195.839 190.138 198.992 186.121C200.655 184.003 206.79 189.479 205.801 191.581C197.784 208.525 194.239 221.28 194.239 230.223C194.239 230.647 194.427 231.039 194.741 231.321C197.533 233.785 199.949 238.931 200.498 241.645C201.503 246.65 200.012 257.695 198.741 263.484C196.341 274.482 196.09 365.086 203.213 381.183C208.735 393.656 222.526 410.317 244.082 420.97L241.086 416.075C222.698 405.768 211.104 390.957 206.178 379.802C199.683 365.133 199.055 275.815 201.612 264.096C201.973 262.448 205.44 247.654 204.091 240.923C203.479 237.848 200.342 232.655 197.188 229.58C197.376 221.108 201.659 209.42 209.3 193.276C212.265 187.031 200.467 178.151 196.137 183.69C192.952 187.769 180.197 210.941 176.573 218.833C167.85 218.88 165.559 226.379 161.135 230.568C145.085 245.724 116.107 251.733 110.318 259.64C107.996 262.809 91.8206 289.261 80.0225 306.801C62.796 332.374 50.2291 347.028 45.1458 356.065C36.5326 371.393 40.0626 438.652 46.2911 474.47C49.3819 492.277 59.1561 509.205 65.0238 518.807C70.4365 527.828 77.575 524.141 72.8369 516.061C51.3273 479.506 48.1424 389.984 59.2346 366.106C66.3888 350.699 108.09 294.846 123.575 278.671C127.937 274.105 140.41 265.931 145.948 261.554C153.588 255.514 160.617 248.752 171.364 244.186C175.239 250.478 180.322 251.858 186.723 250.995C185.092 267.94 182.346 365.698 189.312 392.008C192.105 402.567 227.405 430.321 256.696 437.365L253.261 433.396C221.961 424.045 194.725 399.21 192.513 390.894L192.481 390.941Z" fill="#0E141B"/>
<path d="M221.757 490.395C219.137 475.474 208.453 454.169 193.219 450.67C180.966 447.862 167.551 457.244 158.687 474.329C153.776 460.476 134.965 424.281 116.515 424.375C84.4467 424.532 66.5927 464.147 66.2632 504.672L68.9774 510.586C68.4753 468.963 86.2667 428.282 116.515 428.125C133.757 428.046 153.776 466.343 156.977 478.643C157.495 480.636 158.64 481.279 159.738 478.879C167.944 460.978 180.636 451.486 192.246 454.153C206.633 457.463 217.725 479.224 219.262 493.611C219.482 495.603 220.455 495.901 221.804 494.458C229.852 485.798 245.808 480.51 255.598 484.37L256.241 480.871C245.981 477.357 230.511 481.938 221.773 490.395H221.757Z" fill="#0E141B"/>
<path d="M243.502 460.428C243.204 464.24 246.766 473.371 251.582 480.949L254.955 480.729C250.123 473.356 247.644 464.083 247.895 460.898C248.131 457.98 253.292 453.211 257.465 449.602L257.889 445.335C254.579 447.704 243.769 456.851 243.487 460.428H243.502Z" fill="#0E141B"/>
<path d="M232.347 511.81C231.343 510.335 229.916 508.248 228.676 507.479C226.809 506.334 224.487 507.73 222.275 506.915C218.839 505.565 206.57 493.61 201.769 494.254C199.008 494.614 195.227 496.936 193.062 499.337C189.814 502.914 180.762 504.357 179.162 511.402C178.001 516.501 183.052 523.592 183.947 524.878C185.563 527.185 194.302 526.636 196.576 525.082C197.988 524.125 199.369 522.039 200.938 519.058L198.506 517.677C197.471 519.654 196.2 521.599 194.992 522.415C193.674 523.31 186.943 523.482 186.08 522.604C183.978 520.423 181.813 515.214 182.55 511.982C183.79 506.538 192.34 504.295 195.149 501.188C196.623 499.572 199.746 497.909 202.068 497.595C206.774 497.046 217.992 507.997 221.365 509.237C223.059 509.864 225.711 509.378 227.107 509.958C228.174 510.617 229.649 511.762 230.92 513.033C232.991 515.104 233.963 514.194 232.316 511.778L232.347 511.81Z" fill="#0E141B"/>
<path d="M251.645 545.228C249.009 546.216 247.864 551.723 246.091 553.496C244.412 555.175 238.842 556.351 234.387 560.179C230.386 563.631 225.209 568.949 222.824 569.342C220.031 569.828 213.803 567.977 209.41 567.93C205.472 567.898 197.267 569.012 195.698 567.647C193.533 565.78 189.861 559.866 189.94 558.203C190.159 552.915 194.584 547.926 198.396 547.361C200.781 547.048 202.271 548.648 204.907 549.213C207.323 549.73 210.869 547.33 211.967 546.295C213.458 544.898 216.799 537.211 216.564 535.218C216.329 533.257 210.179 522.792 209.582 522.071C208.516 520.769 199.149 516.376 198.051 516.015C194.96 514.979 194.537 516.485 197.282 517.615C198.679 518.196 206.554 523.106 207.308 523.938C208.076 524.769 214.007 534.041 214.148 535.328C214.305 536.661 210.9 543.267 209.943 544.145C208.516 545.479 205.864 547.063 205.205 546.938C203.024 546.483 200.42 544.49 197.894 544.867C192.858 545.62 186.912 551.095 186.629 558.061C186.504 561.152 191.179 568.463 193.36 570.346C196.184 572.778 202.868 571.35 209.473 571.428C215.623 571.491 220.298 574.064 223.64 573.499C227.578 572.84 233.132 565.89 236.364 563.113C241.384 558.783 247.016 557.261 248.381 555.881C250.343 553.919 251.268 548.507 252.649 547.958C253.998 547.456 259.976 546.451 263.6 545.698L262.752 542.388C259.16 543.125 253.245 544.6 251.613 545.212L251.645 545.228Z" fill="#0E141B"/>
<path d="M250.421 512.327C249.48 512.218 243.345 509.943 241.196 508.39C238.042 506.099 235.971 501.408 233.492 499.525C229.366 496.419 220.424 499.415 214.87 502.428L216.925 504.106C220.894 502.239 228.566 499.965 231.594 502.255C234.246 504.263 236.191 508.233 239.423 510.586C241.933 512.422 248.93 515.387 250.358 515.387C251.127 515.387 254.563 515.104 257.214 514.618L256.853 511.135C254.296 511.621 250.939 512.312 250.421 512.312V512.327Z" fill="#0E141B"/>
<path d="M210.131 525.758C209.159 526.275 207.715 527.201 206.146 528.299C206.037 526.401 206.162 523.797 206.335 521.835L203.464 520.298C203.26 523.342 203.495 527.938 203.809 530.166C204.013 531.578 204.374 532.19 205.77 531.359C208.468 529.758 210.304 528.974 211.434 528.362L210.116 525.742L210.131 525.758Z" fill="#0E141B"/>
<path d="M185.704 529.711C184.464 528.268 182.99 525.616 182.738 524.659C182.613 524.173 182.582 522.886 182.613 521.286L180.417 514.854C180.071 517.866 179.805 523.498 180.275 525.318C180.762 527.185 183.084 530.825 185.264 532.347C186.08 532.912 186.457 532.833 187.069 531.923C188.387 529.931 190.818 527.201 192.638 525.302L188.638 525.397C187.524 526.746 186.504 528.581 185.704 529.695V529.711Z" fill="#0E141B"/>
<path d="M192.293 548.851L195.117 547.015C187.351 542.905 184.214 542.764 183.712 543.407C182.425 545.007 183.947 555.189 187.806 559.818L188.293 555.095C185.767 550.545 185.579 545.619 185.704 545.462C185.845 545.305 189.281 547 192.293 548.851Z" fill="#0E141B"/>
<path d="M312.518 651.896C302.038 658.486 277.657 663.647 265.624 661.2C257.779 659.6 244.459 645.072 242.263 639.785C239.627 633.399 240.537 613.756 242.592 608.501C244.02 604.861 261.121 577.201 270.958 562.234L269.562 559.033C260.368 572.981 240.867 602.978 239.235 607.167C236.929 613.066 235.532 634.34 238.513 641.526C241.008 647.566 256.069 662.408 265.028 664.244C278.238 666.958 303.811 661.169 313.805 653.575C316.848 651.253 315.766 649.873 312.534 651.912L312.518 651.896Z" fill="#0E141B"/>
<path d="M329.007 635.832C326.074 640.397 327.47 640.915 330.874 637.134C332.898 634.89 336.099 632.521 338.986 630.968L335.142 629.446C332.239 631.533 330.043 634.247 329.007 635.847V635.832Z" fill="#0E141B"/>
<path d="M276.543 663.852L271.13 663.664C266.188 668.026 261.968 674.003 260.603 679.165L265.09 675.886C267.443 671.634 272.307 666.974 276.543 663.852Z" fill="#0E141B"/>
<path d="M293.362 696.971C292.279 696.642 291.15 696.281 290.02 695.92L289.173 698.697C290.365 699.073 291.542 699.434 292.687 699.779L293.362 696.971Z" fill="#0E141B"/>
<path d="M345.088 633.431L341.621 631.972C343.033 636.365 345.214 647.221 344.68 649.481C343.959 651.724 335.581 664.746 333.306 668.464C328.474 676.372 322.12 691.778 319.437 694.461C316.707 697.207 314.479 699.074 311.969 699.936L310.541 703.31C314.306 702.682 318.244 700.799 322.088 696.956C324.41 694.634 328.866 681.361 335.8 670.018C338.844 665.044 347.928 652.556 348.43 650.375C349.089 647.598 346.61 638.812 345.073 633.446L345.088 633.431Z" fill="#0E141B"/>
<path d="M269.655 673.532C256.853 671.43 253.684 696.297 254.61 697.317C256.147 698.98 274.958 692.092 276.119 688.562C277.327 684.86 273.546 674.176 269.655 673.548V673.532ZM273.201 687.401C272.511 689.096 257.826 695.058 257.355 694.65C256.9 694.258 260.807 675.086 269.169 676.419C271.836 676.858 274.19 684.938 273.201 687.401Z" fill="#0E141B"/>
<path d="M285.894 682.318C283.603 681.329 277.845 682.867 273.625 687.573C269.64 692.029 268.322 708.236 270.424 709.679C273.092 711.499 290.318 701.568 291.683 697.865C293.393 691.402 288.043 683.243 285.894 682.318ZM288.592 696.924C287.369 700.187 273.092 707.608 272.244 707.106C271.789 706.84 271.993 694.022 275.978 689.566C279.257 685.91 283.383 684.53 284.67 684.985C285.878 685.722 289.847 692.092 288.592 696.908V696.924Z" fill="#0E141B"/>
<path d="M304.218 687.73C300.139 687.134 291.887 693.708 291.4 698.054C290.663 704.612 294.068 716.19 295.668 716.629C297.911 717.226 312.69 704.549 313.444 701.097C314.51 696.171 308.439 688.358 304.218 687.73ZM310.008 700.219C309.506 702.556 297.143 713.476 296.656 713.303C296.154 713.131 294.052 702.117 294.476 698.305C294.742 695.983 301.504 690.272 303.779 690.617C307.027 691.103 310.525 697.803 310.008 700.219Z" fill="#0E141B"/>
<path d="M512.663 662.926L508.929 665.059C513.322 678.301 522.092 694.994 532.933 699.983L532.886 696.626C524.288 691.684 517.291 677.344 512.647 662.926H512.663Z" fill="#0E141B"/>
<path d="M551.148 695.513L551.87 698.352C553.737 697.552 555.604 696.627 557.471 695.591L555.478 693.348C554.003 694.148 552.56 694.901 551.148 695.513Z" fill="#0E141B"/>
<path d="M570.587 682.428L571.418 685.628C573.003 684.216 574.493 682.773 575.858 681.314L573.944 679.039C572.908 680.169 571.795 681.298 570.571 682.428H570.587Z" fill="#0E141B"/>
<path d="M559.934 630.952C551.744 622.182 546.928 610.541 534.722 606.964L535.647 611.765C545.312 615.703 550.505 625.147 557.785 632.945C564.813 640.476 579.404 653.262 580.581 665.28L584.566 665.594C583.656 650.924 565.817 637.275 559.918 630.952H559.934Z" fill="#0E141B"/>
<path d="M553.548 695.779C550.505 691.135 536.541 688.562 533.498 690.68C531.882 691.81 530.14 697.066 530.768 698.666C534.282 707.656 548.496 721.29 550.85 719.062C553.266 716.818 554.458 697.16 553.548 695.779ZM549.187 716.144C547.885 716.724 534.8 702.62 533.968 697.991C533.843 697.254 534.471 693.661 535.208 693.096C537.342 691.449 549.171 694.712 550.301 697.317C551.164 699.294 550.379 715.626 549.171 716.159L549.187 716.144Z" fill="#0E141B"/>
<path d="M570.744 681.549C566.743 678.38 557 677.925 554.647 680.043C552.638 681.863 552.67 691.873 555.337 695.199C559.824 700.8 575.199 705.271 577.302 703.718C579.153 702.369 573.379 683.62 570.744 681.549ZM557.894 693.049C555.588 690.178 555.745 683.181 556.67 682.192C557.8 680.969 565.55 681.675 568.688 684.154C570.179 685.456 575.199 700.941 574.901 701.286C574.572 701.663 561.55 697.599 557.91 693.065L557.894 693.049Z" fill="#0E141B"/>
<path d="M573.191 681.424C569.724 678.364 570.712 667.476 573.677 664.934C575.827 663.083 582.244 661.734 584.142 663.036C589.021 666.393 598.513 686.554 596.583 688.201C595.234 689.347 576.423 684.263 573.207 681.424H573.191ZM575.591 667.147C573.536 668.904 572.72 676.34 575.419 678.741C578.933 681.831 593.634 685.801 593.869 685.503C594.167 685.126 587.201 669.688 582.385 666.362C581.177 665.829 576.784 666.127 575.591 667.162V667.147Z" fill="#0E141B"/>
<path d="M156.193 359.83C156.93 340.486 165.292 279.11 165.857 274.419C166.218 271.376 165.324 263.061 164.885 260.142C164.43 257.036 165.951 256.754 166.752 259.782C167.458 262.48 169.152 271.187 168.838 274.733C168.43 279.283 160.994 323.855 157.84 359.956C157.495 363.847 156.02 363.768 156.177 359.83H156.193Z" fill="#0E141B"/>
<path d="M158.326 419.354C157.73 376.21 168.32 305.248 172.086 285.731C173.513 278.294 178.408 272.85 181.656 269.462C183.617 267.422 185.06 268.693 183.146 270.701C179.962 274.058 176.416 280.287 175.192 286.594C171.458 306.048 160.727 376.288 160.146 419.354C160.068 424.845 158.405 424.845 158.326 419.354Z" fill="#0E141B"/>
<path d="M182.927 229.957C182.409 227.87 183.508 227.729 184.59 229.58C185.704 231.478 187.414 231.996 189.736 231.996C192.058 231.996 192.152 233.471 189.987 234.004C187.304 234.679 183.743 233.283 182.911 229.957H182.927Z" fill="#0E141B"/>
<path d="M277.218 277.588L272.386 275.847C273.5 276.914 275.147 278.812 275.79 280.726L277.987 280.318C277.861 279.377 277.657 278.42 277.218 277.572V277.588Z" fill="#0E141B"/>
<path d="M251.833 294.595C250.688 294.674 249.15 293.858 248.554 293.309C246.499 291.426 247.44 290.03 249.73 291.63C250.327 292.038 251.174 292.43 251.629 292.305C253.81 291.756 258.548 290.563 260.807 289.198C262.423 288.225 263.443 286.531 265.498 285.182C269.514 282.546 274.221 280.381 277.359 280.13C279.759 279.942 280.277 281.228 277.782 281.793C274.503 282.546 270.503 284.35 267.067 286.861C265.09 288.304 263.788 290.124 261.968 291.285C260.085 292.477 252.978 294.595 251.817 294.595H251.833Z" fill="#0E141B"/>
<path d="M281.046 358.951L279.665 356.88C275.241 357.9 270.801 356.739 266.832 353.429L270.095 358.261C273.405 360.128 277.955 359.798 281.046 358.951Z" fill="#0E141B"/>
<path d="M269.577 274.874C270.472 275.408 270.644 276.506 270.221 277.604C269.797 278.702 268.463 279.659 267.412 279.157C266.283 278.624 266.094 277.071 266.847 275.925C267.491 274.921 268.667 274.341 269.577 274.874Z" fill="white"/>
</g>
<defs>
<clipPath id="clip0_42_58690">
<rect width="720" height="578.312" fill="white" transform="translate(40 141)"/>
</clipPath>
</defs>
</svg>
