<svg width="800" height="800" viewBox="0 0 800 800" fill="none" xmlns="http://www.w3.org/2000/svg">
<g clip-path="url(#clip0_42_63854)">
<path d="M520.039 455.217C512.934 435.431 503.432 423.362 500.9 420.83C496.055 415.985 497.024 412.433 497.024 412.433C501.545 389.18 498.962 370.125 478.292 360.436C457.623 350.747 438.976 367.847 435.662 373.678C433.282 377.893 427.911 378.845 427.911 378.845C389.478 371.417 357.505 378.845 349.754 381.106C342.003 383.366 336.19 382.398 336.19 382.398C320.688 365.604 300.018 368.833 293.236 371.417C286.454 374.001 280.318 380.46 276.442 391.44C272.567 402.421 278.38 429.227 278.38 429.227C269.014 442.944 261.926 455.438 257.609 470.073C249.144 476.294 232.537 489.229 220.74 503.27L238.18 517.769L252.798 505.207C252.747 510.987 252.985 517.174 253.512 523.854C257.065 568.423 301.31 637.213 385.28 636.89C469.249 636.567 516.725 589.415 526.413 527.407C528.946 511.14 528.725 496.436 526.94 483.467C535.949 488.243 548.256 495.621 550.805 501.332C550.805 501.332 559.814 489.773 565.696 486.442C555.939 471.246 537.887 459.755 520.039 455.234V455.217Z" fill="#5893C0"/>
<path d="M282.595 524.824C282.595 524.824 277.751 427.613 389.172 422.446C426.653 420.712 498.656 444.169 498.656 522.563C498.656 532.898 490.259 621.066 389.172 620.42C317.424 619.961 284.21 567.132 282.595 524.824Z" fill="white"/>
<path d="M282.918 406.297C282.918 406.297 279.689 382.72 304.234 378.522C320.127 375.802 332.654 387.565 334.592 402.421C336.513 417.175 327.606 428.445 312.631 431.164C302.177 433.068 282.918 422.513 282.918 406.297Z" fill="white"/>
<path d="M435.985 398.545C435.985 398.545 432.432 368.833 465.051 366.572C477.697 365.688 494.372 381.565 490.565 397.254C490.565 397.254 488.95 423.736 462.467 423.09C449.447 422.767 436.766 413.198 435.985 398.545Z" fill="white"/>
<path d="M453.679 623.649C453.679 623.649 461.192 637.707 455.855 646.903C450.535 656.115 431.395 687.358 484.684 708.673C537.972 729.988 562.194 706.735 547.185 687.358C532.159 667.98 518.611 653.94 478.87 636.976C478.87 636.976 473.295 625.111 475.488 611.547L453.696 623.649H453.679Z" fill="#5893C0"/>
<path d="M318.512 620.011C318.512 620.011 318.512 639.151 307.378 646.409C296.245 653.684 238.112 677.906 244.163 705.018C250.214 732.146 295.99 721.489 316.098 703.811C336.207 686.133 344.927 675.475 340.082 659.48C335.238 643.485 331.6 649.316 339.844 628.476L318.529 619.994L318.512 620.011Z" fill="#5893C0"/>
<path d="M188.784 519.52C188.784 519.52 190.552 495.825 210.133 501.316C229.715 506.789 240.662 517.753 244.588 529.515C248.498 541.261 246.934 553.992 232.639 555.76C232.639 555.76 249.857 586.288 231.075 600.974C212.275 615.661 195.243 600.193 195.243 600.193C195.243 600.193 164.307 617.615 146.306 578.469C128.288 539.323 170.188 512.891 188.784 519.537V519.52Z" fill="white"/>
<path d="M566.019 543.164C566.019 543.164 535.286 542.196 542.527 518.891C549.768 495.587 570.727 480.51 587.555 479.932C604.383 479.337 604.978 497.542 604.978 497.542C617.709 493.82 659.116 517.294 657.841 552.564C656.668 585.064 618.542 607.773 600.677 589.569C600.677 589.569 579.141 600.719 565.441 578.418C551.74 556.1 566.035 543.181 566.035 543.181L566.019 543.164Z" fill="white"/>
<path d="M274.063 665.601C303.622 644.03 343.822 663.204 335.697 683.262C335.697 683.262 345.046 670.802 340.541 658.683C336.037 646.563 334.66 637.571 338.468 629.259L319.073 620.947C319.073 620.947 318.716 635.837 314.908 639.645C311.101 643.452 274.046 665.618 274.046 665.618L274.063 665.601Z" fill="#467A9F"/>
<path d="M452.371 686.44C443.549 665.227 488.729 640.784 519.495 658.835C519.495 658.835 489.494 642.432 484.123 639.764C478.768 637.095 474.179 626.76 474.179 614.131L454.665 624.075C454.665 624.075 459.136 636.279 458.116 639.373C450.467 656.983 443.209 664.904 452.371 686.44Z" fill="#467A9F"/>
<path d="M255.552 501.503L238.112 518.772L232.299 511.752C232.299 511.752 238.843 504.783 242.803 501.877C247.835 497.457 255.382 496.046 255.552 501.52V501.503Z" fill="#467A9F"/>
<path d="M523.439 482.227C536.357 486.103 550.975 500.279 550.975 500.279L556.143 494.143C551.587 487.802 542.68 481.615 537.207 479.049C530 475.649 522.504 476.193 523.439 482.227Z" fill="#467A9F"/>
<path d="M473.448 587.308C494.372 575.715 512.73 558.87 526.107 535.957C526.107 535.957 506.781 636.857 389.495 636.228C298.913 635.735 264.153 579.931 259.189 547.584C270.221 567.046 290.686 582.854 315.843 593.376C315.843 593.376 343.72 621.694 389.733 620.233C435.747 618.771 461.957 601.093 473.448 587.291V587.308Z" fill="#467A9F"/>
<path d="M473.448 587.307C424.851 614.231 362.333 612.837 315.843 593.392C315.843 593.392 345.42 622.441 393.847 620.742C442.291 619.042 473.448 587.307 473.448 587.307Z" fill="#DCDDDD"/>
<path d="M238.469 519.35C244.435 531.571 236.633 546.24 224.701 547.26C242.497 578.417 211.085 596.044 190.977 587.069C186.914 592.016 165.208 602.639 148.159 583.534C148.159 583.534 163.338 613.909 195.328 600.549C195.328 600.549 215.369 616.544 234.202 598.322C245.37 587.511 240.288 565.091 232.588 556.014C242.344 552.122 256.98 542.178 238.452 519.367L238.469 519.35Z" fill="#DCDDDD"/>
<path d="M553.933 497.627C546.437 512.041 552.318 533.034 570.591 536.382C561.225 569.749 595 584.044 608.173 568.933C618.253 583.262 646.929 581.325 657.773 549.165C657.586 559.074 658.691 588.787 622.129 595.28C622.129 595.28 605.08 594.889 600.813 589.467C600.813 589.467 574.45 601.093 561.667 573.965C561.667 573.965 556.245 552.649 564.761 543.351C564.761 543.351 541.899 540.649 541.899 523.974C541.899 507.299 553.916 497.627 553.916 497.627H553.933Z" fill="#DCDDDD"/>
<path d="M316.183 616.222C317.05 644.472 299.219 648.62 283.887 656.592C236.65 681.137 236.905 702.605 244.163 713.263C251.438 723.921 280.624 732.946 312.954 709.863C347.714 685.046 347.833 664.003 337.499 647.532C334.779 643.215 340.949 632.302 343.958 629.446C344.621 628.817 338.808 626.234 338.145 626.863C334.49 630.33 329.102 645.271 334.014 651.663C343.397 663.833 337.482 684.74 308.908 705.138C282.986 723.632 256.198 720.827 249.45 709.778C242.718 698.73 245.778 680.916 287.746 659.125C302.075 651.68 322.558 648.042 321.674 619.129C321.64 618.211 316.149 615.304 316.183 616.222Z" fill="#0E141B"/>
<path d="M472.003 612.669C470.541 626.131 473.312 637.893 482.831 641.905C536.153 664.41 552.063 694.14 547.219 704.44C538.227 723.563 460.734 712.191 451.164 673.895C448.597 663.645 452.116 654.976 457.47 647.888C462.977 640.596 458.303 624.754 454.733 622.68C453.951 622.221 448.92 624.873 449.668 625.4C455.736 629.819 456.671 641.089 453.764 644.965C447.713 653.039 442.291 665.124 445.146 676.547C455.243 716.934 541.491 730.787 552.148 708.112C558.301 695.04 543.887 662.591 484.888 637.69C478.632 635.038 476.287 625.842 477.986 610.102C478.088 609.201 472.105 611.785 472.003 612.686V612.669Z" fill="#0E141B"/>
<path d="M187.271 517.122C153.53 513.978 132.402 547.634 142.567 577.227C151.355 602.758 181.288 613.807 197.691 601.262C198.558 600.599 195.362 597.625 194.495 598.287C182.852 607.177 155.349 597.795 147.751 575.714C137.467 545.798 161.553 518.023 186.982 521.508C189.328 521.831 190.688 521.389 190.824 519.383C191.657 506.142 209.351 495.11 228.491 512.397C240.203 522.97 246.203 534.171 244.537 542.381C243.466 547.702 237.976 550.506 230.582 553.073C229.545 553.43 232.979 559.175 234.015 558.818C244.979 554.994 247.478 547.821 248.413 543.163C250.35 533.576 245.234 520.148 232.486 508.64C215.913 493.665 189.209 495.858 187.288 517.122H187.271Z" fill="#0E141B"/>
<path d="M193.152 590.197C195.821 604.679 218.037 607.824 228.763 598.39C240.713 587.851 240.356 566.757 227.216 553.158C220.179 545.866 221.505 542.586 229.307 550.082C243.755 564.003 247.393 588.854 232.333 602.146C217.663 615.082 190.433 609.32 189.719 590.282C189.447 582.803 191.708 582.327 193.169 590.197H193.152Z" fill="#0E141B"/>
<path d="M607.289 498.748C606.151 489.637 602.394 482.311 595.408 479.422C584.444 474.883 567.667 480.033 555.497 492.204C542.578 505.122 536.629 520.794 541.117 531.656C544.414 539.611 553.916 544.116 564.982 544.116C566.07 544.116 568.398 540.648 567.31 540.648C557.775 540.648 548.698 536.585 546.012 530.092C542.204 520.896 547.236 507.468 558.828 495.875C569.894 484.81 583.696 480.033 593.198 483.977C598.909 486.34 601.408 491.83 603.397 499.394C606.372 510.766 608.802 510.868 607.289 498.765V498.748Z" fill="#0E141B"/>
<path d="M609.363 576.36C608.462 588.327 600.286 595.262 589.969 595.262C558.896 595.262 548.664 555.164 566.307 539.033C573.362 532.591 575.18 534.256 568.262 543.503C553.423 563.289 569.384 589.857 589.782 589.857C598.145 589.857 604.315 585.114 605.505 575.34C606.898 563.833 610.281 564.054 609.363 576.36Z" fill="#0E141B"/>
<path d="M605.675 499.343C637.206 499.343 665.966 541.09 649.665 571.057C638.158 592.203 613.528 597.506 601.629 588.599C600.762 587.953 597.448 590.758 598.315 591.404C612.933 602.368 640.537 600.005 654.561 574.236C673.496 539.424 639.585 495.383 605.675 495.383C604.587 495.383 604.587 499.343 605.675 499.343Z" fill="#0E141B"/>
<path d="M434.013 394.618C434.013 412.347 446.965 424.382 463.929 424.382C480.893 424.382 492.537 411.361 492.537 394.618C492.537 377.875 479.924 364.957 463.113 364.957C448.41 364.957 434.013 378.742 434.013 394.618ZM437.531 395.094C437.531 381.513 449.515 368.255 463.13 368.255C478.938 368.255 489.256 380.68 489.256 394.618C489.256 408.557 479.856 421.084 464.099 421.084C449.26 421.084 437.548 410.63 437.548 395.094H437.531Z" fill="#0E141B"/>
<path d="M299.372 377.587C283.496 383.435 276.578 398.767 283.836 415.952C289.888 430.298 304.965 435.397 318.529 430.4C331.481 425.624 339.589 410.444 334.711 395.401C329.901 380.613 312.257 372.845 299.372 377.587ZM286.845 414.626C280.08 399.09 289.089 383.214 301.191 380.426C317.22 376.721 328.269 386.273 331.566 396.421C335.714 409.17 328.745 423.125 317.39 427.306C305.033 431.862 291.876 426.167 286.862 414.626H286.845Z" fill="#0E141B"/>
<path d="M290.89 410.393C287.627 399.123 292.437 387.785 303.826 384.93C313.26 382.567 323.611 388.295 326.195 399.072C328.813 410.036 323.271 419.435 314.619 422.308C305.866 425.232 293.899 420.693 290.907 410.376L290.89 410.393Z" fill="#0E141B"/>
<path d="M443.413 394.67C443.413 384.947 450.637 373.779 463.759 373.779C473.737 373.779 483.171 381.207 483.171 395.69C483.171 406.568 474.774 415.424 462.637 415.424C453.9 415.424 443.43 407.588 443.43 394.653L443.413 394.67Z" fill="#0E141B"/>
<path d="M305.985 388.126C310.71 387.089 314.789 389.945 315.792 394.789C316.71 399.277 313.872 403.56 309.248 404.478C305.05 405.311 300.545 402.353 299.678 397.696C298.794 392.97 302.228 388.942 305.968 388.126H305.985Z" fill="white"/>
<path d="M462.671 377.52C467.601 377.52 471.51 381.157 471.51 386.358C471.51 391.56 467.482 395.197 462.79 395.197C457.606 395.197 453.917 391.373 453.917 386.392C453.917 381.106 458.082 377.52 462.654 377.52H462.671Z" fill="white"/>
<path d="M279.485 523.327C279.485 574.082 326.025 624.634 393.32 622.543C467.924 620.215 501.392 573.674 501.392 517.683C501.392 461.692 454.665 420.234 386.13 420.234C333.555 420.234 279.502 458.888 279.502 523.327H279.485ZM285.247 522.885C285.247 472.656 324.512 425.011 386.589 425.011C448.665 425.011 495.392 463.817 495.392 513.944C495.392 572.026 462.875 615.744 392.98 617.359C331.413 618.787 285.247 575.357 285.247 522.885Z" fill="#0E141B"/>
<path d="M298.862 515.882C298.862 570.258 334.558 600.378 383.665 600.378C432.772 600.378 462.297 562.218 460.207 517.377C458.354 477.738 427.741 451.069 388.645 451.069C296.449 451.069 295.531 584.128 383.665 580.032C454.291 576.751 454.631 469.885 388.271 470.786C324.104 471.67 323.169 559.005 382.05 557.747C427.265 556.779 424.086 491.711 386.895 494.77C359.409 497.031 357.284 532.285 381.132 531.809C385.11 531.724 387.133 529.82 387.252 527.984C387.371 526.148 385.314 524.483 380.979 524.211C369.2 523.48 371.58 504.799 387.218 503.507C413.53 501.348 413.7 548.399 382.696 549.045C334.354 550.047 337.244 479.37 388.985 480.084C440.625 480.798 442.937 567.759 383.342 571.329C310.115 575.714 307.565 459.704 389.002 459.704C422.93 459.704 448.58 482.6 450.195 517.071C452.422 564.819 418.375 591.675 383.172 591.675C341.493 591.675 307.633 566.45 307.633 515.899C307.633 475.325 344.128 442.298 388.985 442.298C436.478 442.298 473.278 473.829 473.278 517.564C473.278 551.084 455.906 577.261 434.999 591.199C431.922 593.256 430.919 596.163 432.194 598.084C433.486 600.004 436.444 600.48 439.86 598.508C462.62 585.369 483.443 553.532 483.443 517.071C483.443 468.084 441.73 433.51 388.985 433.51C339.283 433.51 298.845 470.463 298.845 515.899L298.862 515.882Z" fill="#0E141B"/>
<path d="M372.174 393.328C373.874 392.478 377.75 400.603 376.9 401.079C375.421 401.929 368.673 395.079 372.174 393.328Z" fill="#0E141B"/>
<path d="M390.464 391.627C388.696 390.692 386.147 399.939 387.201 400.585C388.815 401.605 393.201 393.072 390.464 391.627Z" fill="#0E141B"/>
<path d="M522.844 454.316C517.812 440.48 510.656 427.833 501.528 417.788C499.336 415.391 498.503 413.827 500.594 400.807C503.687 381.48 495.511 364.482 477.663 358.176C461.974 352.635 443.277 357.683 433.095 372.709C429.576 377.911 428.454 377.282 419.752 375.752C392.844 371.06 370.9 372.284 343.992 379.967C337.397 381.854 336.666 380.426 332.824 377.061C321.266 366.947 305.441 363.955 291.502 370.704C276.748 377.843 269.048 395.571 274.215 416.632C276.629 426.423 276.272 428.7 273.417 432.78C266.464 442.724 258.815 459.025 255.433 468.56C244.775 476.617 219.635 499.565 217.765 503.491C217.374 504.307 222.032 505.718 222.61 505.004C230.106 495.553 247.104 481.462 258.985 472.113C260.039 471.28 260.481 470.481 260.889 469.138C264.595 456.764 270.17 445.171 277.989 434.004C280.59 430.281 281.474 427.477 279.4 419.572C274.215 399.668 277.632 383.384 293.508 375.021C305.713 368.579 321.895 372.607 330.903 380.477C335.867 384.812 337.601 386.852 344.927 384.761C371.308 377.214 392.827 376.024 419.208 380.613C428.437 382.228 432.041 382.721 436.494 376.16C446.693 361.1 463.827 357.785 477.391 363.122C490.956 368.443 499.166 380.8 496.735 399.209C494.593 415.442 492.775 415.323 497.16 419.844C505.795 428.717 512.798 441.279 517.558 455.897C518.169 457.75 518.288 457.954 520.277 458.43C535.677 462.05 555.208 474.17 564.404 487.649C564.914 488.397 568.704 486.391 568.262 485.592C561.072 472.895 538.652 457.835 522.861 454.333L522.844 454.316Z" fill="#0E141B"/>
<path d="M524.952 480.475C523.558 480.033 523.167 480.254 523.32 481.546C531.581 545.73 500.713 628.306 394.68 633.406C305.288 637.706 253.359 568.746 255.433 500.737C255.467 499.683 255.11 499.513 254.396 500.057C246.951 505.751 239.999 512.567 236.956 517.004C236.446 517.752 238.758 522.103 239.268 521.355C242.395 516.783 247.07 512.142 250.435 509.066C250.894 576.837 302.143 642.516 395.292 639.151C499.625 635.377 536.476 555.215 528.793 487.071C535.881 490.215 546.369 498.102 549.65 502.369C550.21 503.083 553.083 500.091 552.488 499.394C544.499 490.164 534.215 483.416 524.935 480.492L524.952 480.475Z" fill="#0E141B"/>
</g>
<defs>
<clipPath id="clip0_42_63854">
<rect width="520" height="368.311" fill="white" transform="translate(140 356)"/>
</clipPath>
</defs>
</svg>
