<svg width="800" height="800" viewBox="0 0 800 800" fill="none" xmlns="http://www.w3.org/2000/svg">
<g clip-path="url(#clip0_42_63892)">
<path d="M203.979 447.895L127.381 455.475C138.809 476.032 169.267 492.043 205.294 474.02L203.979 447.895Z" fill="#5893C0"/>
<path d="M205.313 474.02L203.998 447.895L150.896 453.135C151.882 454.702 152.675 456.326 153.236 458.008C156.272 467.136 162.228 474.504 167.739 481.466C178.994 482.742 191.757 480.789 205.313 474.02Z" fill="#467A9F"/>
<path d="M271.662 549.014C279.127 568.7 269.98 620.139 259.441 635.184C238.865 640.193 192.357 651.951 178.027 688.79C163.775 725.416 251.435 725.455 296.086 704.396C340.738 683.317 330.006 673.861 326.621 648.083C328.652 601.942 366.091 577.015 366.091 577.015L271.662 549.033V549.014Z" fill="#5893C0"/>
<path d="M366.071 576.997L324.146 557.678C329.522 590.978 301.095 641.799 307.438 651.023C316.585 664.328 290.15 684.439 278.624 689.042C249.23 700.799 212.952 714.974 176.77 699.291C182.011 725.185 256.192 723.212 296.067 704.396C340.719 683.318 329.986 673.861 326.602 648.084C328.633 601.943 366.071 577.016 366.071 577.016V576.997Z" fill="#467A9F"/>
<path d="M522.014 553.074C520.506 564.116 527.757 628.938 538.297 643.983C558.872 649.011 611.298 667.653 619.033 706.406C627.175 747.113 541.932 739.61 498.267 716.578C475.428 704.55 463.671 677.902 473.843 658.912C469.337 627.816 433.774 577.382 433.774 577.382L522.014 553.074Z" fill="#5893C0"/>
<path d="M619.033 706.406C611.279 667.653 558.853 649.011 538.297 643.983C527.757 628.938 520.506 564.097 522.014 553.074L437.081 574.946C441.451 582.178 441.374 582.758 445.725 589.353C460.712 585.891 475.583 586.51 484.324 592.234C499.311 602.038 499.582 645.356 524.663 656.765C558.099 671.965 586.313 706.31 560.961 722.438C548.855 728.2 525.243 724.739 514.936 723.907C560.458 740.693 626.227 742.395 619.033 706.406Z" fill="#467A9F"/>
<path d="M156.581 367.506C162.886 354.259 198.642 281.915 330.006 257.936C370.712 234.189 417.569 240.145 453.48 261.861C486.103 261.861 560.342 256.137 624.313 350.372C676.352 427.028 586.468 531.145 515.226 561.216C443.985 591.286 241.128 602.599 196.34 459.439C152.926 414.884 156.581 367.506 156.581 367.506Z" fill="#5893C0"/>
<path d="M219.295 326.625C198.564 333.548 173.773 349.676 156.523 369.15C156.349 377.774 157.645 419.738 196.36 459.459C212.468 510.956 244.183 540.195 287.733 558.025C213.3 500.668 199.145 426.874 219.314 326.625H219.295Z" fill="#467A9F"/>
<path d="M226.198 300.017C243.835 224.018 315.463 194.643 340.854 257.26C357.253 297.696 226.198 299.997 226.198 299.997V300.017Z" fill="#5893C0"/>
<path d="M426.348 255.228C452.629 213.187 532.07 203.905 553.226 289.147C568.812 351.977 407.01 286.169 426.348 255.228Z" fill="#5893C0"/>
<path d="M624.313 350.372C600.72 315.622 573.86 293.17 550.074 280.291C534.526 230.031 469.434 217.017 428.804 250.742C399.894 239.526 370.944 240.59 341.434 251.148C340.564 251.825 339.752 252.676 339.017 253.624C330.489 237.534 320.008 227.923 307.631 224.732C317.262 236.935 338.089 274.373 322.367 293.866C324.92 293.325 328.4 291.082 331.765 287.755C345.573 274.122 360.579 268.185 381.851 268.185C419.116 268.185 450.289 297.889 467.77 305.701C479.76 315.757 491.382 327.631 502.173 341.051C547.115 396.939 498.499 525.034 430.68 563.363C413.237 573.206 395.581 581.308 383.476 582.469C423.815 588.231 489.661 573.206 510.218 564.523C581.459 534.452 676.313 427.067 624.274 350.411L624.313 350.372Z" fill="#467A9F"/>
<path d="M148.595 368.743C144.592 361.897 130.649 350.7 114.656 362.69C98.6635 374.68 75.9605 419.931 107.772 445.921C145.288 476.553 184.912 466.11 203.186 458.104C221.461 450.118 229.699 423.566 225.696 399.568C221.693 375.569 203.418 355.593 187.426 373.867L148.595 368.723V368.743Z" fill="white"/>
<path d="M128.464 412.08C128.464 418.694 131.384 425.501 135.657 417.727C139.931 409.953 148.595 368.763 148.595 368.763C145.655 363.696 137.262 356.289 126.646 357.585C141.671 365.417 128.444 408.599 128.444 412.099L128.464 412.08Z" fill="#DCDDDD"/>
<path d="M225.696 399.587C221.693 375.588 203.418 355.612 187.426 373.886C187.426 373.886 186.497 397.537 190.694 403.126C192.628 380.558 191.854 370.696 201.968 372.977C220.068 377.058 215.002 415.966 207.615 434.647C200.227 453.327 177.331 456.015 157.626 455.861C134.091 455.667 125.718 453.134 110.382 447.99C147.106 476.069 185.318 465.936 203.167 458.123C221.441 450.137 229.679 423.585 225.676 399.587H225.696Z" fill="#DCDDDD"/>
<path d="M187.445 421.284C190.655 395.1 194.871 371.605 180.019 363.038C165.167 354.471 153.758 358.474 149.175 364.179C144.611 369.883 137.784 387.443 135.271 411.306C132.757 435.169 184.235 447.487 187.445 421.304V421.284Z" fill="white"/>
<path d="M180.019 363.038C174.836 360.06 170.099 358.609 165.883 358.223C185.646 368.704 180.309 416.953 177.872 424.146C173.792 436.213 186.981 427.105 187.986 418.886C191.196 392.703 194.871 371.605 180.019 363.038Z" fill="#DCDDDD"/>
<path d="M551.505 440.624C554.811 458.608 556.223 493.05 608.223 498.967C665.503 505.503 694.123 448.804 691.938 416.064L551.524 440.605L551.505 440.624Z" fill="#5893C0"/>
<path d="M691.919 416.064L576.025 434.068C604.104 463.597 604.588 488.776 585.018 493.32C591.361 495.931 598.96 497.884 608.204 498.948C665.484 505.484 694.104 448.784 691.919 416.045V416.064Z" fill="#467A9F"/>
<path d="M259.344 272.75C259.344 291.701 268.143 309.202 292.876 310.324C308.927 311.039 323.141 296.922 327.414 282.303C309.759 267.954 287.326 259.716 264.662 254.34C261.317 259.658 259.344 265.962 259.344 272.75Z" fill="white"/>
<path d="M310.493 271.008C305.891 292.647 290.962 306.145 274.95 305.372C279.668 308.195 285.567 309.974 292.896 310.303C308.946 311.018 326.331 299.512 327.434 282.282C322.174 278.008 316.469 274.276 310.493 271.008Z" fill="#DCDDDD"/>
<path d="M293.205 238.404C281.196 238.404 270.676 244.767 264.662 254.32C287.346 259.676 309.759 267.914 327.414 282.283C328.053 279.711 328.381 277.061 328.381 274.373C328.381 255.422 311.886 238.404 293.186 238.404H293.205Z" fill="#5893C0"/>
<path d="M328.401 274.373C328.401 259.928 318.828 246.662 306.007 241.131C311.557 249.64 311.924 261.049 311.112 271.337C316.875 274.528 322.348 278.144 327.434 282.263C328.072 279.691 328.401 277.042 328.401 274.354V274.373Z" fill="#467A9F"/>
<path d="M448.2 284.564C452.725 299.416 466.591 310.226 483.028 310.226C503.121 310.226 519.423 294.059 519.423 274.102C519.423 265.071 516.058 256.853 510.546 250.51C487.36 256.524 466.804 269.171 448.2 284.564Z" fill="white"/>
<path d="M510.546 250.529C503.256 252.424 503.739 252.753 496.952 255.847C511.958 282.979 501.148 306.784 477.169 309.781C479.083 310.091 481.036 310.245 483.028 310.245C503.121 310.245 519.423 294.079 519.423 274.122C519.423 265.091 516.058 256.872 510.546 250.529Z" fill="#DCDDDD"/>
<path d="M483.028 237.998C462.936 237.998 446.634 254.165 446.634 274.122C446.634 277.757 447.195 281.257 448.2 284.584C466.804 269.21 487.36 256.563 510.546 250.529C503.875 242.871 494.032 237.998 483.028 237.998Z" fill="#5893C0"/>
<path d="M483.028 237.998C479.006 237.998 475.158 238.675 471.561 239.874C484.401 241.286 489.681 246.371 496.971 255.847C499.852 254.803 508.574 252.154 511.301 251.438C504.629 243.78 494.051 237.998 483.048 237.998H483.028Z" fill="#467A9F"/>
<path d="M524.953 343.855C504.803 317.671 466.649 307.402 424.492 320.765C402.176 327.823 377.017 327.727 339.829 321.616C280.249 311.831 240.083 325.87 230.569 380.017C214.48 471.525 279.204 535.998 375.528 546.016C457.657 554.544 522.73 502.795 538.103 434.241C537.291 433.487 524.412 344.725 524.973 343.874L524.953 343.855Z" fill="white"/>
<path d="M538.084 434.222C537.272 433.468 524.393 344.706 524.953 343.855C513.215 328.616 495.385 318.773 474.21 315.834C510.179 341.109 537.891 460.754 465.701 529.056C502.656 509.235 529.034 474.658 538.103 434.203L538.084 434.222Z" fill="#DCDDDD"/>
<path d="M673.76 300.461C650.748 282.554 620.638 279.227 608.958 306.61C606.676 305.991 604.414 305.74 602.171 305.914C592.443 306.688 570.727 311.135 560.748 332.446C552.085 327.631 538.529 325.678 526.713 343.005C511.842 364.818 519.558 408.445 538.819 431.361C557.287 453.29 607.663 460.271 642.355 447.179C666.47 438.09 703.483 418.269 706.79 382.28C710.097 346.292 696.889 318.464 673.76 300.48V300.461Z" fill="white"/>
<path d="M673.76 300.46C648.176 275.766 601.223 289.322 613.329 308.215C625.918 288.374 655.447 292.725 669.97 312.566C684.493 332.407 693.601 361.356 681.109 390.518C663.685 431.186 570.727 451.511 538.838 431.341C557.306 453.27 607.682 460.251 642.375 447.159C666.489 438.071 703.502 418.249 706.809 382.261C710.116 346.272 694.858 320.804 673.78 300.46H673.76Z" fill="#DCDDDD"/>
<path d="M560.748 332.426C552.085 327.611 539.341 326.238 526.713 342.984C571.674 323.201 586.468 397.769 593.449 397.769C600.43 397.769 569.721 322.737 560.729 332.426H560.748Z" fill="#DCDDDD"/>
<path d="M579.429 312.566C633.17 307.248 646.996 375.493 653.978 375.493C660.959 375.493 631.216 281.567 579.429 312.566Z" fill="#DCDDDD"/>
<path d="M200.44 474.619C169.867 484.443 146.989 475.064 134.768 460.676C133.163 460.135 129.353 459.477 127.748 458.936C140.685 478.893 169.712 491.172 201.832 477.287C201.156 476.398 200.614 475.566 200.44 474.619Z" fill="#0E141B"/>
<path d="M270.019 549.633C271.856 554.467 272.649 561.371 272.649 569.242C272.649 591.751 266.074 621.996 258.338 633.657C234.881 638.724 190.133 650.771 174.585 688.152C170.717 697.434 176.809 705.189 180.444 708.863C200.479 729.245 263.366 723.096 298.02 706.755C326.679 693.218 332.945 683.646 332.945 672.353C332.945 662.935 328.284 654.755 328.807 642.088C330.006 612.888 366.709 578.717 367.057 578.466C367.057 578.466 359.342 576.88 357.775 578.253C350.059 584.944 327.588 606.912 324.146 637.428C323.16 646.227 326.776 659.28 326.776 659.28C330.18 676.781 331.881 685.58 295.352 702.81C259.286 719.828 201.465 720.582 184.97 705.208C180.154 700.722 177.989 694.611 179.671 689.428C191.815 652.28 248.012 639.284 259.479 637.679C268.8 636.384 269.052 634.063 263.096 634.063C273.442 620.101 283.884 572.104 276.284 552.05L270.019 549.652V549.633Z" fill="#0E141B"/>
<path d="M533.675 642.301C527.332 643.094 529.478 645.84 537.639 646.787C548.991 648.102 608.823 664.172 617.332 706.755C618.937 714.8 616.693 721.181 610.641 725.706C590.278 740.906 532.573 731.895 499.369 714.394C487.186 707.973 477.517 699.484 473.765 687.204C470.981 678.115 471.657 668.195 473.495 663.979C475.718 658.893 476.125 657.114 475.602 653.672C471.522 627.121 443.54 580.496 442.07 578.427H432.362C432.71 578.911 466.707 626.985 471.387 657.365C469.008 662.026 464.522 672.952 467.422 685.618C470.497 699.039 479.045 709.636 495.675 718.629C531.954 738.218 590.703 746.611 612.632 730.251C618.318 726.016 624.506 719.17 622.36 706.368C614.953 662.393 561.425 646.575 539.515 642.881C530.697 629.325 524.47 572.819 524.47 554.97C524.47 553.268 518.204 557.774 518.204 557.774C516.677 568.971 525.785 625.98 533.713 642.359L533.675 642.301Z" fill="#0E141B"/>
<path d="M198.661 459.941C197.733 460.734 196.515 461.682 195.412 462.107C207.189 505.212 244.454 541.065 279.166 557.038C287.791 561.003 296.067 561.003 281.989 553.635C257.952 541.065 212.14 501.712 198.661 459.941Z" fill="#0E141B"/>
<path d="M599.618 498.637C598.4 498.289 595.924 497.322 594.745 496.916C572.158 523.409 525.089 552.784 516.58 556.361C508.071 559.92 505.789 565.315 520.738 559.398C549.319 548.104 578.017 526.465 599.618 498.637Z" fill="#0E141B"/>
<path d="M351.046 574.289C336.097 570.498 337.122 574.637 353.076 579.993C378.158 588.444 423.834 585.524 443.888 580.264C461.679 575.584 459.784 572.432 445.667 574.985C426.735 578.408 380.788 581.85 351.026 574.289H351.046Z" fill="#0E141B"/>
<path d="M427.799 251.573C428.611 250.606 429.52 249.658 430.641 248.885C399.584 237.359 366.748 238.288 338.089 251.786C338.495 252.946 338.94 254.009 339.597 254.938C365.82 244.186 400.164 242.774 427.779 251.592L427.799 251.573Z" fill="#0E141B"/>
<path d="M292.664 221.252C259.344 225.178 230.085 262.346 225.831 299.088C224.787 308.022 227.127 306.746 229.003 299.088C237.453 264.511 264.217 229.49 292.896 226.744C312.427 224.888 331.185 238.366 339.501 257.859C341.918 263.525 343.156 260.334 342.247 256.641C336.716 234.421 313.549 218.796 292.664 221.252Z" fill="#0E141B"/>
<path d="M425.072 254.456C422.887 258.111 422.268 262.5 427.625 256.022C441.065 239.778 465.334 223.051 490.222 226.531C519.268 230.593 541.101 257.202 552.22 291.082C553.69 295.569 555.392 294.234 553.612 286.866C544.814 250.395 522.323 225.913 492.04 221.678C465.972 218.042 437.97 232.797 425.072 254.456Z" fill="#0E141B"/>
<path d="M535.725 427.745C524.025 490.961 469.646 545.63 386.106 543.851C294.443 541.917 216.162 477.521 232.812 382.88C238.826 348.652 256.927 311.716 343.523 324.653C381.29 330.3 402.079 330.493 424.724 323.628C470.285 309.821 505.828 321.25 524.025 347.685C525.011 345.887 526.075 344.165 527.177 342.483C506.718 315.874 467.964 305.45 425.13 319.026C402.466 326.2 376.901 326.104 339.133 319.896C278.605 309.956 237.821 324.228 228.132 379.206C211.792 472.145 277.541 537.643 375.373 547.815C458.798 556.479 524.895 503.918 540.501 434.262C538.877 432.773 536.924 429.505 535.705 427.725L535.725 427.745Z" fill="#0E141B"/>
<path d="M355.455 309.82C355.029 311.348 357.272 313.03 357.988 311.29C358.781 309.356 359.516 306.881 359.786 305.005C360.038 303.245 359.728 301.679 358.143 304.193C356.557 306.707 355.861 308.292 355.455 309.82Z" fill="#0E141B"/>
<path d="M394.131 304.367C395.136 306.011 396.548 308.177 397.631 309.26C398.946 310.594 400.783 309.318 399.913 307.713C399.197 306.417 397.109 304.27 395.543 303.188C393.976 302.105 393.125 302.723 394.131 304.367Z" fill="#0E141B"/>
<path d="M386.84 331.691C345.747 327.708 309.082 342.501 286.282 372.243C256.057 411.654 262.187 457.234 281.68 484.907C304.943 517.976 360.502 541.993 409.717 523.177C435.476 513.334 454.137 492.875 462.298 465.589C470.226 439.037 466.436 409.856 452.648 391.233C432.382 363.909 395.001 356.695 369.165 358.842C325.171 362.478 295.39 402.817 296.202 436.736C296.609 454.392 304.711 470.79 319.002 482.877C335.188 496.568 357.524 502.892 380.265 500.223C422.597 495.234 439.092 460.174 436.501 429.697C434.064 400.786 402.098 380.733 375.179 382.125C347.661 383.537 326.621 408.386 326.196 429.658C325.771 450.814 342.343 468.412 364.718 470.578C383.166 472.357 397.573 461.74 402.35 442.886C404.032 436.195 402.794 429.059 398.946 423.335C395.194 417.746 389.219 413.356 382.277 412.196C375.237 410.997 368.237 413.24 363.151 418.345C359.303 422.213 357.214 428.769 357.118 431.515C357.021 434.261 356.886 438.96 360.579 443.156C364.273 447.353 369.842 444.723 369.03 442.479C367.908 439.424 366.342 436.755 366.845 433.758C367.348 430.741 368.334 428.15 370.538 425.926C372.143 424.302 375.605 421.73 380.671 422.58C385.97 423.47 388.948 426.429 390.495 428.749C392.816 432.192 393.551 436.504 392.526 440.546C391.211 445.767 385.371 462.707 365.684 460.812C350.813 459.362 335.942 448.3 336.31 429.929C336.6 415.29 352.09 393.245 375.74 392.026C398.018 390.885 424.434 407.11 426.426 430.528C428.688 457.312 414.919 486.222 379.028 490.457C359.109 492.797 339.636 487.344 325.616 475.47C313.51 465.221 306.645 451.414 306.297 436.581C305.601 407.091 332.713 371.818 370.055 368.724C393.261 366.809 426.696 373.075 444.468 397.054C456.496 413.279 459.687 439.095 452.59 462.842C445.338 487.131 428.785 505.309 406.004 514.031C362.822 530.545 311.17 509.447 289.995 479.377C272.552 454.604 267.157 413.724 294.385 378.219C306.51 362.4 334.531 336.603 385.873 341.554C423.215 345.17 466.939 364.895 480.418 400.786C490.667 428.073 490.299 468.721 466.978 499.334C455.123 514.92 463.129 520.973 475.022 505.328C500.665 471.738 501.109 427.241 489.913 397.422C473.901 354.742 424.376 335.365 386.84 331.73V331.691Z" fill="#0E141B"/>
<path d="M256.907 270.584C255.128 291.217 268.588 309.376 288.371 311.426C311.538 313.804 328.459 296.942 330.141 277.371C331.862 257.24 316.392 238.695 296.357 236.839C276.555 235.021 258.629 250.491 256.907 270.584ZM262.109 264.163C267.234 246.063 285.373 235.582 302.526 240.784C319.93 246.063 330.296 265.865 325.152 284.024C320.143 301.679 300.438 312.509 282.995 307.21C266.209 302.124 256.849 282.805 262.129 264.163H262.109Z" fill="#0E141B"/>
<path d="M263.424 256.717C287.365 257.897 310.165 272.536 327.627 284.081L327.511 281.122C312.157 267.895 292.896 255.847 265.146 253.816L263.444 256.717H263.424Z" fill="#0E141B"/>
<path d="M300.341 265.922C299.026 278.24 301.927 287.31 306.49 287.058C309.294 286.904 312.021 281.025 311.441 270.408C311.422 269.983 303.783 266.908 300.341 265.902V265.922Z" fill="#0E141B"/>
<path d="M504.745 243.356C496.391 237.98 486.084 235.988 476.492 237.941C449.129 243.51 441.239 266.6 445.029 282.438C450.095 303.652 475.854 313.785 490.531 310.807C500.181 308.854 509.019 303.343 514.82 294.969C520.641 286.576 522.613 276.153 520.776 266.658C518.939 257.124 513.234 248.848 504.726 243.336L504.745 243.356ZM450.037 286.499C446.653 278.919 446.615 270.371 449.902 262.462C453.46 253.934 460.538 246.991 469.318 243.433C477.517 240.107 487.167 240.146 495.791 243.51C504.571 246.953 511.397 253.296 515.014 261.418C518.61 269.501 518.668 278.957 515.168 287.369C511.687 295.743 505.228 302.202 496.99 305.547C489.023 308.777 479.354 308.622 470.458 305.141C461.157 301.505 453.731 294.698 450.057 286.48L450.037 286.499Z" fill="#0E141B"/>
<path d="M447.272 283.5L448.297 286.614C469.26 267.218 510.121 252.85 510.604 252.579L509.251 250.297C483.744 255.557 459.571 273.909 447.272 283.5Z" fill="#0E141B"/>
<path d="M481.191 263.447C480.824 263.486 472.992 268.881 469.163 271.279C468.892 283.385 473.127 288.142 475.777 288.161C480.708 288.2 483.686 278.028 481.172 263.447H481.191Z" fill="#0E141B"/>
<path d="M222.408 323.377C225.212 319.529 226.373 315.448 220.823 320.998C215.272 326.548 203.496 345.326 195.606 367.449C196.592 367.333 200.015 365.921 201.02 366.134C208.949 344.185 219.604 327.206 222.408 323.358V323.377Z" fill="#0E141B"/>
<path d="M227.417 399.297C224.613 382.435 215.93 367.796 205.487 364.837C200.885 363.522 193.42 363.193 186.207 371.431L188.741 375.047C193.556 369.536 198.68 367.506 203.96 369.014C212.991 371.586 221.403 384.562 223.955 399.897C228.132 424.998 219.024 447.952 202.587 455.146C187.116 461.914 147.454 474.619 109.396 443.524C98.9149 434.976 94.3317 425.269 94.6025 411.577C95.0279 390.595 106.998 370.638 115.7 364.121C121.289 359.925 127.033 358.397 132.757 359.558C138.519 360.718 143.412 364.585 146.081 368.163C147.028 367.448 147.995 366.732 148.672 365.823C145.5 361.665 140.763 356.425 134.207 355.09C127.458 353.717 120.013 356.502 113.593 361.337C102.589 369.575 90.4254 390.905 90 410.958C89.6906 425.578 95.4533 438.128 106.65 447.275C146.216 479.589 187.812 466.73 203.863 459.71C224.207 450.814 231.168 421.942 227.397 399.297H227.417Z" fill="#0E141B"/>
<path d="M146.893 363.523C141.981 369.653 131.055 399.433 132.641 411.578C133.433 417.611 135.599 420.512 135.947 414.169C136.856 398.37 144.94 373.482 149.523 367.758C154.125 362.014 165.786 357.45 179.091 365.108C190.249 371.548 187.677 397.964 186.555 412.603C185.956 420.299 187.542 422.407 189.533 412.873C192.898 396.803 193.556 369.131 180.754 361.743C165.921 353.196 152.269 356.793 146.893 363.523Z" fill="#0E141B"/>
<path d="M694.181 413.937L689.927 416.2C691.068 433.179 683.139 458.608 663.55 477.289C653.03 487.326 635.316 499.083 608.63 496.028C562.895 490.806 557.461 464.313 554.367 445.633C552.104 444.762 549.9 443.718 547.734 442.364L547.656 442.422C550.731 461.103 554.251 495.215 607.991 500.92C630.346 503.299 650.574 496.763 666.567 481.505C687.084 461.935 695.4 431.786 694.181 413.918V413.937Z" fill="#0E141B"/>
<path d="M629.031 285.667C619.053 288.297 611.414 295.414 606.908 306.224L611.801 308.061C615.862 298.295 622.495 292.184 631.332 289.844C643.69 286.595 658.271 290.947 672.503 302.027C696.695 320.843 707.854 348.535 704.779 382.068C701.53 417.573 664.072 435.383 641.891 443.756C607.373 456.79 557.906 450.892 540.347 430.046C520.68 406.666 514.743 364.103 528.357 344.107C533.675 336.314 539.65 333.916 546.322 333.142C555.546 332.059 563.301 336.836 565.331 338.692C572.08 344.861 588.305 377.755 590.142 392.82C591.09 400.497 597.123 400.729 596.214 392.549C593.836 371.161 577.476 344.765 567.691 334.96C563.862 331.131 557.403 327.264 546.477 328.54C538.606 329.449 528.821 333.316 522.807 342.115C506.64 365.824 516.812 412.293 535.744 434.784C554.56 457.158 606.502 462.805 643.032 449.016C666.083 440.314 705.765 422.639 709.459 381.449C712.553 346.988 701.414 318.503 676.448 299.069C661.229 287.234 642.549 282.07 628.993 285.648L629.031 285.667Z" fill="#0E141B"/>
<path d="M602.016 304.174C577.998 304.464 564.481 318.581 560.303 330.996L563.63 332.117C567.362 321.037 585.211 309.627 600.991 308.351C619.884 306.842 645.082 342.405 650.361 371.451C651.831 379.535 655.466 379.902 654.848 371.18C652.74 341.342 628.702 303.864 602.016 304.174Z" fill="#0E141B"/>
<path d="M309.024 274.43C309.024 276.248 307.38 277.602 305.794 277.602C304.557 277.602 302.7 276.326 302.7 274.295C302.7 272.516 303.899 270.988 305.852 270.988C307.438 270.988 309.004 272.245 309.004 274.45L309.024 274.43Z" fill="white"/>
<path d="M478.581 272.69C478.581 274.875 476.917 276.113 475.351 276.113C473.263 276.113 471.832 274.74 471.832 272.768C471.832 270.795 473.301 269.055 475.216 269.055C476.801 269.055 478.6 270.505 478.6 272.69H478.581Z" fill="white"/>
<path d="M228.519 291.777C198.758 308.234 168.493 334.341 157.683 359.325L164.2 359.016C176.77 331.962 211.637 306.803 228.036 296.128L228.519 291.777Z" fill="#0E141B"/>
<path d="M549.88 278.994C564.248 284.138 581.75 295.451 592.25 306.996L586.178 309.51C576.238 298.12 560.806 287.812 551.369 283.5L549.9 278.994H549.88Z" fill="#0E141B"/>
</g>
<defs>
<clipPath id="clip0_42_63892">
<rect width="620" height="517.914" fill="white" transform="translate(90 221)"/>
</clipPath>
</defs>
</svg>
