<svg width="800" height="800" viewBox="0 0 800 800" fill="none" xmlns="http://www.w3.org/2000/svg">
<g clip-path="url(#clip0_42_63955)">
<path d="M498.404 595.343C583.936 598.1 617.872 517.231 626.899 463.901C631.846 434.66 636.226 415.03 640.291 411.942C643.032 409.862 645.695 417.976 647.979 425.507C693.904 577.587 592.271 698.048 439.434 677.724L498.404 595.343Z" fill="#EDC300"/>
<path d="M520.791 593.846C515.923 594.461 514.631 595.863 498.404 595.343L439.434 677.724C570.939 695.212 664.537 608.466 658.834 487.045C626.537 636.652 543.935 653.525 520.791 593.862V593.846Z" fill="#C7A500"/>
<path d="M655.746 535.096C654.502 528.842 643.725 504.548 612.232 514.867C615.556 506.927 618.376 496.954 618.376 496.954C629.672 487.17 653.966 490.999 658.488 512.079C658.488 512.079 657.038 528.448 655.746 535.096Z" fill="#A4725E"/>
<path d="M658.503 513.592C657.81 510.378 656.392 506.36 654.895 503.871C653.84 509.259 651.571 517.719 649.066 523.99C653.288 528.779 655.431 533.584 655.73 535.081C657.007 528.433 658.487 513.592 658.487 513.592H658.503Z" fill="#825948"/>
<path d="M349.837 622.755C339.612 616.91 315.208 603.188 309.93 608.45C304.653 613.712 311.648 642.055 314.657 645.82C317.666 649.586 338.557 656.549 343.078 661.827C347.6 667.089 368.664 667.924 371.673 653.619C374.682 639.314 355.115 625.765 349.837 622.755Z" fill="#EDC300"/>
<path d="M349.837 622.756C349.412 622.504 348.939 622.252 348.466 621.968C336.13 628.775 320.029 623.638 308.055 617.73C308.402 628.129 312.53 643.159 314.672 645.821C317.682 649.586 338.572 656.55 343.094 661.828C347.616 667.09 368.68 667.925 371.689 653.62C374.698 639.314 355.13 625.765 349.853 622.756H349.837Z" fill="#C7A500"/>
<path d="M287.338 596.997C293.404 583.479 310.671 566.291 317.461 607.694C324.756 652.28 322.156 666.664 313.869 670.429C305.582 674.195 298.634 668.681 292.616 665.656C284.329 664.143 270.024 660.394 255.718 676.196C241.413 692.013 235.395 665.656 242.169 642.323C248.944 618.99 264.762 598.493 287.338 596.981V596.997Z" fill="#EDC300"/>
<path d="M317.461 607.709C317.24 606.386 317.02 605.125 316.784 603.912C315.129 608.591 311.033 614.247 306.228 610.403C306.228 615.129 306.937 619.856 300.383 625.496C284.865 638.888 268.716 625.496 240.121 651.885C237.207 672.035 243.367 689.854 255.734 676.195C267.802 662.866 285.29 664.316 292.632 665.655C294.853 666.773 308.056 673.737 313.885 671.074C320.454 668.081 325.307 655.525 317.477 607.677L317.461 607.709Z" fill="#C7A500"/>
<path d="M249.606 622.912C250.535 596.366 245.509 589.828 240.673 583.605C235.411 576.83 230.133 560.272 222.602 557.247C215.071 554.238 200.23 546.077 192.778 546.628C186.366 547.101 186.366 551.733 193.991 559.5C198.86 564.463 210.802 577.539 212.298 587.323C210.786 596.35 203.476 597.248 200.01 598.65C190.982 593.388 183.767 583.983 176.992 580.973C170.218 577.964 150.461 576.294 144.443 577.791C138.425 579.303 146.853 586.488 152.998 588.693C158.843 590.804 164.577 594.491 165.696 596.964C167.476 600.982 184.98 623.48 189.486 627.245C196.638 652.279 210.644 689.004 227.218 698.756C227.297 702.19 222.366 707.184 218.143 710.351C215.89 712.037 213.496 717.267 219.624 717.094C232.401 716.763 247.62 709.516 250.661 705.656C259.2 694.785 265.581 685.585 261.815 678.81C256.601 669.42 248.55 653.036 249.606 622.881V622.912Z" fill="#EDC300"/>
<path d="M191.991 608.466C192.999 604.401 195.204 599.533 198.45 597.706C190.131 592.317 183.373 583.826 176.992 580.99C170.218 577.981 151.454 575.917 145.42 577.414C144.396 577.666 144.175 579.162 143.828 579.666C153.801 580.564 165.491 583.18 170.674 585.007C175.858 586.835 188.84 598.997 191.991 608.45V608.466Z" fill="#C7A500"/>
<path d="M262.209 678.843C254.647 665.247 248.172 650.563 249.416 615.43C250.11 595.579 246.344 590.9 240.673 583.606C235.41 576.831 230.133 560.273 222.602 557.248C217.308 555.137 208.108 549.922 200.514 548.221C211.132 555.499 230.054 568.859 227.911 589.262C225.784 609.664 236.939 645.569 240.09 681.805C251.354 685.46 246.785 703.72 223.342 717.726C237.648 714.685 248.534 708.352 250.645 705.673C259.184 694.803 265.959 685.602 262.193 678.827L262.209 678.843Z" fill="#C7A500"/>
<path d="M458.371 646.199L429.193 669.233L418.953 673.975C420.891 677.567 428.059 682.151 436.33 678.386C444.617 674.621 457.505 657.401 467.288 661.907L458.371 646.199Z" fill="#C7A500"/>
<path d="M393.935 671.248C392.784 670.334 391.24 669.625 389.523 669.294C385.096 668.475 381.646 671.106 377.628 672.965C380.102 677.566 388.499 680.732 393.304 678.212C397.038 676.258 396.44 673.265 393.919 671.248H393.935Z" fill="#EDC300"/>
<path d="M453.724 637.061C453.724 639.44 480.065 681.489 495.127 696.535C510.188 711.597 532.765 648.357 526.747 634.792C520.728 621.243 514.71 614.469 509.432 608.435C504.154 602.416 493.614 594.886 483.075 599.407C472.535 603.929 453.708 628.774 453.708 637.045L453.724 637.061Z" fill="#EDC300"/>
<path d="M510.441 609.381C502.831 600.243 491.299 595.91 483.09 599.424C472.551 603.945 453.724 628.79 453.724 637.062C453.724 639.441 480.066 681.49 495.127 696.536C501.586 702.995 509.448 695.023 515.829 682.734C495.867 661.828 487.896 616.974 510.425 609.365L510.441 609.381Z" fill="#C7A500"/>
<path d="M537.57 564.211C531.19 568.465 523.186 589.607 520.035 599.045C517.152 607.678 514.71 622.755 511.701 637.801C508.692 652.863 503.95 670.35 496.75 678.921C490.952 685.821 485.69 694.959 487.943 701.734C495.411 728.8 510.96 733.07 519.594 733.164C523.233 731.116 517.436 721.411 517.168 714.794C523.785 707.626 533.458 707.72 548.598 676.952C565.472 642.685 587.292 612.168 592.916 606.56C597.328 602.148 602.763 600.462 609.538 597.453C616.312 594.444 620.109 587.355 609.081 586.756C604.859 586.52 588.379 586.173 580.848 589.938C573.318 593.704 559.895 610.703 559.895 610.703C559.895 610.703 556.129 608.45 550.111 598.651C549.355 587.355 550.647 582.329 554.412 579.32C558.177 576.31 572.041 561.879 571.285 557.358C570.529 552.836 555.657 552.143 537.586 564.195L537.57 564.211Z" fill="#EDC300"/>
<path d="M607.253 592.018C599.061 593.137 588.222 596.051 581.683 599.328C575.602 602.369 568.276 622.85 566.275 623.654C563.991 624.567 560.856 615.918 560.588 610.215C558.902 608.041 551.702 604.748 550.111 598.667C549.355 587.371 550.647 582.345 554.412 579.336C558.177 576.327 570.891 563.991 570.135 559.469C569.883 557.925 563.408 560.351 550.631 568.875C537.838 577.398 535.932 595.264 533.285 607.237C522.257 648.2 527.204 663.56 509.542 689.13C516.238 689.745 515.025 702.522 515.97 715.409C522.572 710.856 533.474 707.721 548.614 676.968C563.802 646.104 584.346 615.146 592.932 606.576C597.343 602.164 602.779 600.479 609.553 597.469C616.328 594.46 616.06 590.837 607.269 592.034L607.253 592.018Z" fill="#C7A500"/>
<path d="M467.288 506.06C456.512 489.486 411.58 492.511 398.771 507.573C385.978 522.634 380.7 568.559 364.142 599.423C347.584 630.286 381.457 660.409 414.589 660.409C447.721 660.409 483.847 619.746 481.594 581.352C479.341 542.958 477.072 521.122 467.288 506.06Z" fill="#EDC300"/>
<path d="M481.578 581.352C479.325 542.958 477.056 521.122 467.273 506.06C456.496 489.486 411.564 492.511 398.755 507.573C393.226 514.064 389.114 526.321 384.875 540.626C425.475 530.228 432.817 617.178 422.75 659.59C453.361 653.729 483.642 616.611 481.562 581.368L481.578 581.352Z" fill="#C7A500"/>
<path d="M479.609 600.825C481.231 594.413 481.972 587.843 481.578 581.352C479.325 542.958 477.056 521.122 467.273 506.06C456.496 489.486 411.564 492.511 398.755 507.573C389.003 519.042 382.953 551.103 373.627 578.107C410.493 556.854 436.094 570.938 479.609 600.841V600.825Z" fill="#A4725E"/>
<path d="M481.578 581.352C479.325 542.958 477.056 521.122 467.273 506.06C456.497 489.486 411.564 492.511 398.756 507.573C394.77 512.252 391.414 520.366 388.184 530.165C405.073 537.113 414.227 552.316 419.646 569.221C437.449 572.955 455.851 584.535 479.577 600.841C481.2 594.429 481.94 587.859 481.546 581.368L481.578 581.352Z" fill="#825948"/>
<path d="M477.655 549.464C475.591 520.507 475.654 518.963 467.288 506.076C456.512 489.502 411.58 492.527 398.771 507.588C394.013 513.197 391.429 520.712 389.082 527.565C385.868 536.908 382.37 547.054 380.559 556.759C385.269 556.46 389.098 555.924 393.682 553.214C401.418 548.629 403.718 535.963 407.546 534.104C411.863 532.008 430.58 533.127 437.48 534.891C441.151 535.837 444.176 543.95 445.893 548.677C448.257 555.152 452.243 560.698 458.765 561.816C468.297 563.455 472.96 555.294 477.655 549.464Z" fill="#0E141B"/>
<path d="M353.602 539.948C347.222 553.056 343.929 562.257 340.164 573.553C336.398 584.849 364.899 592.647 368.664 578.342C372.429 564.037 375.438 559.515 379.204 549.732C382.969 539.948 358.36 530.18 353.602 539.948Z" fill="#EDC300"/>
<path d="M353.602 539.948C351.664 542.863 350.184 545.494 349.002 547.967C357.935 558.917 362.315 571.615 361.48 585.385C364.867 584.439 367.64 582.234 368.664 578.342C372.429 564.037 375.438 559.515 379.204 549.732C382.969 539.948 359.636 530.905 353.602 539.948Z" fill="#C7A500"/>
<path d="M357.415 504.58C343.11 505.336 330.459 512.3 324.236 525.644C316.673 541.856 321.983 542.959 326.488 541.462C330.994 539.965 344.559 537.696 349.821 542.218C358.88 549.985 375.612 558.178 384.45 552.002C395.919 543.998 396.03 536.861 396.03 536.861L357.399 504.58H357.415Z" fill="#A4725E"/>
<path d="M366.38 512.063C367.656 547.274 350.908 530.527 341.487 539.602C344.811 539.807 347.883 540.547 349.837 542.201C355.115 546.723 371.768 560.855 384.466 551.985C395.935 543.982 396.046 536.845 396.046 536.845L366.38 512.047V512.063Z" fill="#825948"/>
<path d="M348.12 636.62C347.505 623.749 339.155 602.102 334.019 597.155C327.875 591.247 328.804 584.173 333.31 575.13C337.832 566.102 349.947 558.934 362 564.196C374.052 569.458 372.886 583.669 375.423 591.877C378.841 602.905 385.269 609.806 394.785 618.613C402.599 625.828 403.749 640.732 397.889 656.345C392.028 671.958 367.041 673.833 359.258 665.751C353.334 659.606 348.797 651.319 348.104 636.604L348.12 636.62Z" fill="#EDC300"/>
<path d="M394.344 618.406C386.53 611.191 377.802 599.564 375.423 591.891C372.886 583.683 374.272 569.708 362.236 564.446C354.453 561.043 346.45 562.241 340.258 566.762C354.863 560.665 383.048 628.395 377.108 663.969C377.108 665.922 377.108 668.427 376.651 670.917C385.317 670.05 394.565 665.277 397.905 656.375C403.765 640.762 402.143 625.638 394.344 618.422V618.406Z" fill="#C7A500"/>
<path d="M396.345 624.157C390.484 621.037 379.755 625.527 379.566 636.256C379.408 644.685 396.345 647.568 398.692 647.19C401.04 646.796 402.662 627.528 396.345 624.157Z" fill="#C7A500"/>
<path d="M372.933 660.268C368.412 660.268 360.613 668.224 368.049 675.487C374.241 681.536 389.838 682.907 386.419 677.267C382.512 670.823 377.612 660.268 372.933 660.268Z" fill="#EDC300"/>
<path d="M380.338 641.914C373.311 641.52 362.772 651.477 373.5 661.828C384.229 672.178 396.928 666.129 398.677 663.781C400.662 661.134 389.885 642.449 380.322 641.914H380.338Z" fill="#EDC300"/>
<path d="M380.338 641.912C379.897 641.881 379.44 641.912 378.983 641.959C383.221 649.679 386.215 658.738 386.766 667.655C392.784 667.829 397.652 665.15 398.692 663.764C400.677 661.117 389.901 642.432 380.338 641.896V641.912Z" fill="#C7A500"/>
<path d="M398.881 627.672C394.785 627.278 375.234 633.012 372.335 638.794C370.775 641.914 391.492 645.002 393.824 645.002L398.881 627.672Z" fill="#EDC300"/>
<path d="M372.303 638.936C371.405 642.008 391.524 645.001 393.84 645.001L395.683 638.684C388.168 641.141 380.023 640.684 372.303 638.936Z" fill="#C7A500"/>
<path d="M401.024 667.955C395.762 671.657 384.828 680.37 383.851 683.111C383.379 684.45 403.561 688.578 419.961 673.154L401.024 667.955Z" fill="#C7A500"/>
<path d="M393.415 651.682C389.901 653.241 374.777 662.773 371.547 664.947C368.27 667.184 366.663 668.649 371.736 670.997C376.809 673.344 389.885 676.259 400.819 670.997L393.399 651.682H393.415Z" fill="#EDC300"/>
<path d="M396.109 658.692C387.932 664.19 378.211 667.829 368.743 666.648C367.813 667.908 368.491 669.484 371.752 670.996C376.825 673.343 389.901 676.258 400.835 670.996L396.109 658.676V658.692Z" fill="#C7A500"/>
<path d="M494.528 539.445C494.717 543.935 495.694 585.512 493.158 589.025C490.621 592.539 468.045 587.355 467.194 578.675C466.406 570.671 467.777 549.008 467.777 549.008L494.513 539.445H494.528Z" fill="#EDC300"/>
<path d="M494.229 583.685C495.363 571.475 494.686 543.116 494.528 539.445L467.792 549.008C467.792 549.008 467.525 553.341 467.288 558.839C483.342 557.311 490.038 568.875 494.229 583.685Z" fill="#C7A500"/>
<path d="M495.111 560.131C499.601 561.297 522.446 560.793 527.33 551.23C532.245 541.603 528.102 517.861 513.072 504.312C503.115 495.332 490.227 485.375 468.958 491.236C447.69 497.096 437.134 504.328 443.184 527.991C447.847 546.22 466.8 552.726 473.638 549.402C476.19 548.157 495.489 539.445 495.489 539.445L495.111 560.147V560.131Z" fill="#A4725E"/>
<path d="M513.072 504.311C508.912 500.562 504.233 496.639 498.656 493.771C508.298 505.556 514.994 521.689 497.348 529.913C479.687 538.137 465.382 544.833 451.297 539.523C458.198 548.755 468.565 551.875 473.638 549.401C476.19 548.157 495.489 539.444 495.489 539.444L495.111 560.146C499.601 561.312 521.989 561.722 526.873 552.158C532.198 541.697 527.503 517.341 513.072 504.327V504.311Z" fill="#825948"/>
<path d="M468.171 571.457C464.468 571.646 459.458 573.773 452.353 585.51C445.405 596.996 431.462 610.292 422.482 615.964C413.502 621.62 401.402 622.802 397.7 629.434C393.998 636.067 392.233 652.862 396.534 661.842C401.339 671.893 410.54 678.699 426.216 671.011C445.342 661.637 470.455 633.672 477.671 626.835C488.951 616.169 501.114 611.127 499.79 599.768C498.357 587.606 488.731 570.386 468.171 571.473V571.457Z" fill="#EDC300"/>
<path d="M500.688 599.28C499.381 588.141 492.102 577.003 477.876 572.623C488.51 588.976 447.107 626.11 430.674 636.461C414.242 646.812 396.282 643.771 394.864 656.627C395.258 658.518 395.809 660.298 396.534 661.826C401.197 671.563 409.484 678.605 425.428 670.806C444.554 661.432 470.455 633.657 477.687 626.835C484.902 619.997 501.854 609.221 500.688 599.28Z" fill="#C7A500"/>
<path d="M365.025 385.189C358.817 379.549 324.992 362.077 314.846 368.836C310.891 380.683 322.739 419.015 330.632 431.429L365.025 385.189Z" fill="#EDC300"/>
<path d="M323.842 367.467C336.95 372.587 350.01 382.623 358.061 394.565L365.025 385.207C360.125 380.748 337.927 368.885 323.842 367.467Z" fill="#C7A500"/>
<path d="M319.005 374.856C319.809 391.556 328.458 414.51 334.902 427.177L343.551 409.264C337.407 393.541 331.199 386.829 318.989 374.84L319.005 374.856Z" fill="#FFFBC7"/>
<path d="M442.837 384.638C462.263 374.366 503.178 366.032 509.936 370.538C512.189 381.818 500.358 419.598 489.077 433.698L442.837 384.638Z" fill="#EDC300"/>
<path d="M469.951 415.471L484.051 430.596C496.45 415.251 502.973 396.802 505.383 377.455C486.257 386.908 478.821 399.291 469.951 415.455V415.471Z" fill="#FFFBC7"/>
<path d="M469.951 415.471L471.227 416.842C478.427 408.728 488.352 405.215 498.924 404.254C502.122 395.683 504.217 386.687 505.367 377.471C486.241 386.924 478.805 399.307 469.935 415.471H469.951Z" fill="#DDD9AC"/>
<path d="M366.474 384.308C358.518 388.168 346.229 401.417 340.621 410.067C321.494 441.781 318.58 478.694 328.458 485.28C352.752 501.475 358.597 499.333 369.011 517.829C375.344 529.078 379.015 535.017 389.98 536.593C403.498 538.531 412.399 527.297 420.844 518.286C429.304 509.258 454.464 497.111 465.949 494.039C483.216 489.423 498.656 488.966 498.089 470.927C497.522 452.888 492.071 426.499 476.852 407.892C466.296 394.076 454.086 385.158 449.722 381.834C445.374 378.51 410.509 362.944 366.458 384.323L366.474 384.308Z" fill="#EDC300"/>
<path d="M369.893 519.073C374.54 528.92 381.473 535.364 389.98 536.577C403.498 538.515 412.399 527.282 420.844 518.27C421.222 517.876 421.631 517.466 422.072 517.057C420.261 515.481 412.761 511.621 406.333 507.462C394.817 500.01 378.558 497.757 369.893 519.073Z" fill="#FFFBC7"/>
<path d="M498.246 465.35C497.459 485.642 437.575 485.201 416.668 510.928C416.164 511.542 415.676 512.173 415.188 512.803C418.433 514.678 421.096 516.206 422.072 517.057C444.854 495.646 461.837 499.38 490.038 485.894C500.751 480.773 498.262 465.35 498.262 465.35H498.246Z" fill="#C7A500"/>
<path d="M420.843 518.27C421.222 517.876 421.631 517.466 422.072 517.057C421.096 516.206 418.433 514.678 415.188 512.803C407.72 522.445 401.717 533.221 394.013 536.718C394.171 536.734 394.313 536.718 394.454 536.734C405.53 535.946 413.36 526.257 420.843 518.27Z" fill="#DDD9AC"/>
<path d="M439.607 676.385L436.173 678.937C451.423 680.97 467.414 682.025 481.988 681.458C481.247 680.576 479.876 679.615 479.687 678.449C466.674 678.858 453.267 678.181 439.592 676.369L439.607 676.385Z" fill="#0E141B"/>
<path d="M499.601 593.341L499.916 596.681C508.172 597.091 514.411 596.729 521.768 595.689C522.178 594.255 522.461 592.617 523.17 591.498C514.994 592.963 508.487 593.625 499.601 593.341Z" fill="#0E141B"/>
<path d="M649.334 424.168C645.049 408.996 639.314 406.791 636.447 413.959C634.934 417.756 629.625 445.405 625.56 463.665C621.338 482.665 614.075 519.579 590.931 549.828C580.25 563.802 566.701 575.476 552.758 582.724C552.301 584.598 551.954 585.181 551.308 586.962C596.729 565.693 618.14 515.624 628.191 466.596C634.194 437.276 635.927 426.169 638.794 416.133C640.07 411.675 643.489 414.952 646.672 425.854C666.885 494.97 657.432 568.056 616.044 616.738C599.045 636.731 578.926 650.295 556.917 660.505C556.523 662.143 555.515 664.664 554.774 666.302C578.517 656.172 601.708 639.771 618.234 620.33C661.434 569.537 669.847 496.86 649.318 424.121L649.334 424.168Z" fill="#0E141B"/>
<path d="M612.452 514.237L611.334 516.837C627.341 506.234 654.139 517.577 655.069 538.988L656.187 536.562C657.495 522.981 635.155 502.878 612.452 514.237Z" fill="#0E141B"/>
<path d="M619.51 495.63L618.36 497.631C623.685 493.015 633.17 491.802 641.283 494.527C650.264 497.536 656.235 505.571 658.22 514.804L658.96 512.015C656.865 502.216 651.729 495.662 642.213 492.479C633.579 489.596 625.245 490.667 619.51 495.646V495.63Z" fill="#0E141B"/>
<path d="M344.008 617.398C337.249 612.546 320.596 606.764 317.303 606.055C317.146 606.937 317.209 608.245 317.508 609.064C322.707 610.324 330.789 613.696 345.284 621.809C345.662 620.25 344.685 618.359 344.008 617.382V617.398Z" fill="#0E141B"/>
<path d="M357.84 663.719C350.483 664.853 347.127 663.388 344.086 660.961C333.688 652.659 323.747 649.665 321.967 648.799V651.776C327.575 653.825 337.154 658.787 341.597 662.694C345.835 666.428 351.286 668.681 360.266 666.617C360.172 665.593 358.801 664.38 357.825 663.703L357.84 663.719Z" fill="#0E141B"/>
<path d="M322.266 657.778C323.873 645.379 322.676 631.263 318.785 607.489C316.39 592.853 312.12 580.958 304.274 579.745C298.619 578.879 291.403 585.354 286.409 597.06C286.361 597.06 288.189 596.697 288.929 597.233C292.427 589.608 298.477 582.376 303.881 583.069C310.182 583.889 314.027 595.043 316.122 607.915C320.329 633.595 321.148 648.672 319.651 657.573C318.485 664.505 315.508 668.271 312.215 669.768C306.134 672.525 300.005 666.034 289.371 663.67C281.257 661.874 265.77 664.868 257.861 672.146C258.649 672.714 259.137 674.604 259.437 675.486C267.755 667.656 279.319 664.852 288.362 666.034C297.799 667.278 304.731 675.959 312.609 673.596C316.878 672.32 321.4 664.253 322.251 657.762L322.266 657.778Z" fill="#0E141B"/>
<path d="M284.549 596.003C267.692 597.263 256.916 610.907 249.668 622.518C250.015 623.842 249.826 626.362 249.936 627.765C257.341 614.641 269.63 598.666 286.377 599.627C295.798 600.162 304.684 604.889 308.386 620.769C309.221 624.346 310.371 623.936 309.962 620.612C307.441 600.194 292.206 595.42 284.549 596.003Z" fill="#0E141B"/>
<path d="M185.594 620.471C179.245 612.815 169.383 599.754 166.909 596.461C163.648 592.113 162.498 590.742 153.455 587.465C142.253 583.432 144.222 579.131 146.144 578.706C152.241 577.382 170.328 579.178 176.677 581.998C179.938 583.448 193.802 596.225 197.631 598.714C198.655 598.084 199.663 597.533 200.687 597.013C200.53 597.06 200.372 597.123 200.215 597.17C196.103 594.681 183.373 581.163 179.733 579.541C171.053 575.681 154.683 574.909 145.435 576.043C136.061 577.178 138.866 584.976 153.581 590.222C160.418 592.664 161.552 594.366 165.397 599.675C168.815 604.402 175.968 613.697 182.995 622C187.831 627.719 188.446 629.026 189.99 634.288C197.647 660.551 210.392 691.383 226.415 699.986C226.95 699.182 227.281 698.126 227.313 697.228C214.74 688.611 200.86 659.291 192.652 633.044C190.746 626.931 191.171 627.183 185.61 620.471H185.594Z" fill="#0E141B"/>
<path d="M263.359 678.133C261.579 674.935 250.141 658.771 250.992 621.432C251.307 607.646 251.087 599.06 248.613 592.632C247.132 588.788 243.902 585.716 241.728 582.786C234.182 572.624 231.614 560.036 225.265 555.845C218.695 551.512 202.987 545.589 195.961 544.612C184.413 542.989 184.822 552.789 191.912 560.004C201.317 569.583 207.714 578.847 209.132 581.951C210.613 585.196 210.881 588.599 211.416 592.097C212.661 600.321 213.842 599.927 213.575 591.592C213.449 587.764 213.039 583.605 212.708 582.691C211.448 579.32 206.548 570.623 194.952 558.571C187.359 550.693 190.636 547.133 196.654 548.235C202.404 549.275 214.41 553.245 222.114 558.508C229.707 563.691 233.142 576.83 239.617 584.44C241.303 586.409 243.839 589.45 245.226 593.593C247.699 600.966 248.44 611.853 247.92 626.505C246.927 654.989 255.608 670.271 260.445 678.984C264.068 685.506 254.001 700.836 249.606 704.885C245.557 708.603 232.039 714.92 221.751 715.645C216.804 715.992 216.426 713.25 218.947 711.234C228.415 703.671 228.368 701.718 230.511 694.219C233.693 683.08 241.366 681.568 247.227 685.758C249.448 687.334 249.212 684.451 245.588 682.497C233.425 675.912 228.683 688.72 227.25 694.597C226.178 699.04 224.729 703.246 219.215 707.705C209.053 715.929 215.449 719.741 224.477 718.607C233.126 717.52 247.4 712.1 251.102 708.319C257.64 701.639 267.708 685.963 263.359 678.165V678.133Z" fill="#0E141B"/>
<path d="M211.148 587.119C211.211 587.418 210.298 592.665 203.618 595.989C200.719 597.438 197.142 597.691 194.874 600.133C192.495 602.701 191.329 605.363 190.998 609.081C190.667 612.799 191.502 613.808 192.51 610.436C193.519 607.065 195.268 603.945 197.41 601.661C199.647 599.266 203.05 599.392 206.028 598.289C208.092 597.517 212.472 593.957 212.298 591.137C212.298 591.137 212.55 589.593 211.164 587.135L211.148 587.119Z" fill="#0E141B"/>
<path d="M445.011 670.398C441.592 673.265 438.363 675.991 435.763 677.157C428.138 680.623 421.71 676.29 420.119 673.328L417.756 674.604C419.819 678.433 427.949 684.483 437.276 680.245C440.206 678.906 443.168 675.455 446.729 672.446C453.409 666.837 460.025 660.142 468.533 663.214L467.84 660.693C460.545 657.322 452.29 664.269 445.011 670.398Z" fill="#0E141B"/>
<path d="M500.42 599.471C500.357 600.416 501.318 602.102 501.019 603.047C506.659 605.111 513.135 614.532 514.505 617.856C515.324 616.817 515.687 614.926 515.876 613.744C513.906 610.609 511.212 605.426 500.42 599.471Z" fill="#0E141B"/>
<path d="M457.583 646.357C465.004 658.629 476.253 678.622 488.888 692.455C489.14 691.447 489.629 689.871 490.022 688.863C479.357 676.054 466.201 655.211 459.458 644.088C458.891 644.97 458.292 645.726 457.599 646.372L457.583 646.357Z" fill="#0E141B"/>
<path d="M517.121 702.9C517.231 697.843 516.979 691.919 513.623 689.241C510.551 686.783 506.581 687.287 502.642 688.989C499.649 690.265 500.578 691.21 503.083 690.596C505.667 689.966 509.354 689.556 511.906 691.998C514.647 694.598 514.096 699.891 514.159 703.247C514.395 715.551 515.577 717.82 518.413 725.288C521.17 732.535 518.413 732.74 512.158 730.345C507.652 728.612 503.477 726.233 499.838 722.546C495.726 718.371 492.307 712.4 489.912 705.232C488.605 701.293 487.423 692.565 494.938 683.601C502.343 674.778 508.897 659.748 512.993 638.07C516.049 621.921 517.971 607.474 520.602 600.715C524.809 589.876 531.442 570.135 538.752 565.267C553.341 555.547 566.732 554.507 568.954 556.87C573.491 561.707 549.969 577.713 549.166 584.582C547.858 595.563 546.929 604.496 546.566 608.025C546.188 611.555 548.756 606.907 550.064 601.503C551.308 604.89 553.136 606.938 556.57 609.002C559.721 610.893 560.352 613.114 562.179 618.723C563.061 621.417 564.369 623.024 563.786 618.156C563.093 612.437 562.069 609.113 559.091 607.521C555.625 605.662 553.199 603.283 550.82 597.895C550.757 596.824 551.639 591.625 552.175 587.592C552.868 582.487 556.145 578.958 559.264 575.776C566.134 568.796 576.075 557.5 570.813 553.877C566.417 550.852 551.576 551.876 535.097 563.062C528.842 567.315 520.476 593.263 518.066 599.471C514.742 608.073 516.27 608.498 510.393 637.534C505.305 662.962 500.783 670.682 491.85 682.057C485.989 689.509 484.508 696.283 485.627 702.585C486.62 708.162 492.181 718.545 498.089 724.784C501.571 728.454 506.88 731.621 512.142 733.685C521.217 737.246 523.801 733.906 520.492 724.122C517.058 713.96 516.932 712.337 517.136 702.885L517.121 702.9Z" fill="#0E141B"/>
<path d="M608.088 584.866C598.367 585.196 587.276 584.141 580.061 587.749C573.822 590.868 563.896 602.07 558.996 608.923C559.705 609.632 560.903 610.467 561.612 611.176C564.715 606.497 574.672 594.192 580.659 591.199C586.646 588.206 598.367 587.827 606.812 587.843C613.618 587.843 620.44 591.262 606.261 597.674C600.037 600.479 595.799 601.77 592.649 604.921C583.952 613.618 562.447 645.064 547.401 676.369C536.751 698.536 528.621 705.925 517.183 712.873C517.341 714.291 517.026 715.094 517.246 716.244C532.796 706.602 537.46 704.397 549.811 679.284C564.668 649.098 585.449 616.154 594.665 606.954C597.532 604.086 601.361 602.511 609.38 598.793C622.614 592.664 617.131 584.551 608.104 584.85L608.088 584.866Z" fill="#0E141B"/>
<path d="M382.623 553.15C382.087 553.229 380.858 553.655 380.275 553.67C377.975 561.548 375.139 568.637 372.303 576.593C372.429 577.507 373.422 580.721 373.737 581.635C377.014 572.765 380.055 561.957 382.623 553.15Z" fill="#0E141B"/>
<path d="M374.162 576.988L373.958 579.808C385.175 570.087 421.127 562.037 452.936 585.748L454.338 584.062C425.129 559.973 386.53 566.275 374.162 577.004V576.988Z" fill="#0E141B"/>
<path d="M352.515 544.596C351.854 543.95 351.271 543.351 350.625 542.705C348.356 547.888 343.299 561.138 340.825 565.975C340.573 566.463 343.551 564.384 344.528 563.864C347.427 557.893 350.089 550.693 352.531 544.596H352.515Z" fill="#0E141B"/>
<path d="M378.968 554.301C377.896 554.773 376.935 554.317 375.706 554.647C375.706 554.647 371.484 564.526 369.83 569.583C370.271 571.536 369.767 572.97 370.807 574.294C372.949 566.936 378.968 554.301 378.968 554.301Z" fill="#0E141B"/>
<path d="M330.175 513.544C323.952 519.027 320.202 526.668 318.769 534.986C317.367 543.21 321.557 544.486 326.914 542.706C338.021 539.004 345.441 540.579 348.955 543.21C365.198 555.357 376.462 557.578 385.254 554.112C392.611 551.213 396.093 543.872 397.842 536.593L394.706 536.814C392.958 542.99 388.846 548.992 383.694 550.883C373.406 554.679 364.394 550.457 351.649 541.776C342.07 535.254 330.585 538.673 326.063 540.169C322.77 541.256 321.352 539.791 322.928 534.545C323.952 528.369 328.127 521.043 332.901 516.427C337.548 511.953 347.694 506.234 358.628 505.84L356.107 503.225C345.741 504.548 336.162 508.25 330.159 513.528L330.175 513.544Z" fill="#0E141B"/>
<path d="M349.207 636.872C347.757 623.37 341.093 603.378 335.437 596.666C331.861 592.412 330.002 589.576 330.695 584.819C331.766 577.414 339.99 567.929 344.323 565.661C351.255 562.069 364.615 563.518 368.963 572.404C372.713 580.076 372.477 586.867 374.147 592.286C376.321 599.313 380.102 606.686 392.753 617.888C394.124 619.101 396.455 622.299 396.55 624.221C398.157 624.867 398.771 625.387 400.173 626.632C399.433 622.945 397.275 618.36 394.533 615.84C384.702 606.749 379.109 600.431 376.084 590.664C374.462 585.433 374.982 577.792 371.468 571.002C365.828 560.115 351.444 559.028 343.33 562.604C336.335 565.677 328.552 577.335 327.324 582.03C325.701 588.237 328.679 593.074 333.106 598.163C338.053 603.85 344.496 623.008 345.898 636.037C348.608 661.197 356.816 667.405 364.93 671.028C364.93 670.004 364.52 668.555 364.52 667.61C356.659 663.119 351.129 654.754 349.207 636.872Z" fill="#0E141B"/>
<path d="M386.356 625.622C393.399 621.904 397.826 626.504 398.472 628.08C398.834 627.686 399.275 627.371 399.748 627.009C399.023 625.433 395.431 618.8 385.175 623.338C381.52 624.945 379.865 629.577 379.094 633.515C379.739 633.09 380.37 632.664 381.047 632.239C381.977 629.451 383.725 627.024 386.356 625.622Z" fill="#0E141B"/>
<path d="M385.742 677.676C388.026 681.063 373.186 679.409 368.601 674.935C365.182 671.595 365.45 668.428 366.301 666.38C367.404 663.686 369.94 661.717 371.972 661.197C371.799 660.74 371.059 659.669 370.964 659.117C368.239 659.747 363.827 661.654 363.134 668.649C363.008 669.846 363.638 672.587 367.908 676.762C372.981 681.725 383.662 683.064 386.782 680.591C387.302 680.181 388.751 678.779 387.475 676.684L385.159 673.485C384.482 673.249 383.804 673.076 383.127 673.107C383.237 673.296 385.774 677.676 385.774 677.676H385.742Z" fill="#0E141B"/>
<path d="M386.609 644.371C383.599 644.072 379.424 643.458 376.415 642.213C372.729 643.016 369.688 645.112 368.113 648.72C366.962 651.335 365.781 657.306 373.784 663.687C374.178 664.002 375.407 663.214 376.069 662.993C375.391 662.473 374.714 661.906 374.036 661.245C370.019 657.369 368.916 653.304 370.602 649.429C372.461 645.159 376.73 643.82 380.023 643.993C384.403 644.23 389.46 647.412 392.973 652.217C392.942 651.555 393.052 650.925 393.572 650.39C391.587 647.822 389.035 646.073 386.593 644.356L386.609 644.371Z" fill="#0E141B"/>
<path d="M372.571 671.5C371.153 673.973 370.933 676.967 371.39 678.463L372.902 678.006C372.54 676.825 372.792 673.627 374.54 671.405C373.674 671.374 372.918 672.13 372.571 671.516V671.5Z" fill="#0E141B"/>
<path d="M390.169 648.057L388.861 646.402C385.774 646.639 375.045 651.286 376.762 661.684C377.203 661.432 378.778 660.818 379.314 660.818C378.763 652.421 385.521 648.435 390.169 648.057Z" fill="#0E141B"/>
<path d="M370.759 638.747C370.712 643.458 387.727 646.955 394.155 646.955L393.84 644.23C390.358 644.23 373.233 642.182 373.06 639.157C372.823 635.108 394.139 628.034 398.819 628.475L400.063 626.08C393.178 625.434 370.807 634.289 370.759 638.747Z" fill="#0E141B"/>
<path d="M384.797 643.567L386.955 644.15C385.38 642.07 383.158 633.027 388.956 629.041L387.16 629.136C380.59 632.743 383.284 641.55 384.812 643.551L384.797 643.567Z" fill="#0E141B"/>
<path d="M393.036 672.935C387.601 676.747 379.44 683.191 383.505 684.735C388.72 686.72 407.735 687.508 422.513 672.73L419.425 672.572C404.884 686.247 385.253 684.246 384.844 682.923C384.592 682.104 393.225 675.707 397.684 672.572L393.036 672.935Z" fill="#0E141B"/>
<path d="M392.028 675.991C394.155 679.977 401.749 683.537 409.626 681.316L410.209 679.677C402.773 681.773 395.289 678.638 393.241 674.967L392.028 675.975V675.991Z" fill="#0E141B"/>
<path d="M371.327 663.986C366.38 667.263 367.53 669.721 370.728 671.359C378.133 675.156 389.949 677.74 403.419 671.359L400.504 670.288C390.39 675.172 377.455 672.494 371.846 669.894C369.956 669.028 369.373 667.326 371.799 665.688C373.721 664.396 392.501 652.973 393.982 652.312L394.454 649.082C392.879 649.791 373.075 662.804 371.327 663.954V663.986Z" fill="#0E141B"/>
<path d="M390.642 674.336L392.926 673.722C387.349 673.627 380.291 662.757 385.427 656.723L383.237 657.857C377.628 665.908 386.687 674.494 390.642 674.336Z" fill="#0E141B"/>
<path d="M468.297 571.647C468.297 562.209 469.116 549.259 469.116 549.102L466.548 549.795C466.501 550.472 465.02 563.438 465.004 572.828C465.729 572.56 467.225 571.221 468.297 571.647Z" fill="#0E141B"/>
<path d="M496.356 538.342L493.189 539.508C493.551 547.732 493.835 570.623 493.063 581.935C494.197 582.991 494.859 584.361 495.363 585.795C497.285 573.459 496.387 538.736 496.356 538.342Z" fill="#0E141B"/>
<path d="M461.207 550.378C466.028 552.615 470.109 552.237 474.236 550.157C489.581 542.437 500.043 536.671 505.399 538.01C517.105 540.941 524.399 552.631 521.028 554.49C518.68 555.782 522.194 555.104 524.132 553.103C526.936 550.205 516.286 536.655 505.446 535.033C499.145 534.087 484.162 541.634 475.906 546.077C470.235 549.133 466.532 548.976 462.499 547.101C443.688 538.373 435.874 512.992 450.762 500.688C449.155 501.113 447.564 501.428 446.083 501.822C432.171 515.639 441.34 541.146 461.207 550.362V550.378Z" fill="#0E141B"/>
<path d="M516.522 504.406C509.59 497.317 496.356 489.707 486.289 488.273C485.532 489.234 483.752 490.022 482.586 490.715C494.78 491.582 506.281 500.373 513.576 507.258C526.526 519.499 530.937 546.204 524.825 551.796C519.011 557.137 505.935 560.083 495.458 558.855L495.395 561.564C507.4 562.84 523.281 559.768 527.33 553.782C535.301 541.997 527.078 515.23 516.522 504.422V504.406Z" fill="#0E141B"/>
<path d="M468.564 570.309C462.609 570.498 458.103 573.176 454.196 579.494C439.592 602.984 428.358 610.956 421.411 615.336C413.549 620.298 400.205 621.291 396.266 628.191C389.003 640.905 393.682 665.231 402.206 672.194C406.554 675.755 417.74 677.236 425.145 674.164C444.775 666.018 463.397 639.818 487.108 620.85C499.995 610.546 501.681 607.253 501.964 601.03C502.358 591.971 496.513 582.692 492.197 578.202C488.92 574.799 478.553 570.025 468.58 570.34L468.564 570.309ZM403.356 670.036C395.699 662.647 392.485 640.638 398.881 629.2C402.206 623.26 416.275 621.48 423.222 617.1C434.676 609.884 446.098 598.005 452.841 586.883C460.719 573.885 463.224 573.066 468.249 572.798C477.876 572.294 486.856 576.989 490.842 581.479C495.883 587.135 498.908 595.201 498.766 600.211C498.577 607.49 496.151 610.105 487.486 616.801C465.87 633.501 443.136 661.308 424.829 670.272C415.314 674.936 405.987 672.572 403.34 670.036H403.356Z" fill="#0E141B"/>
<path d="M311.726 365.024C307.094 370.239 319.525 418.747 329.781 431.461L331.451 429.13C320.691 412.225 312.924 374.902 315.728 369.687C317.981 365.496 352.121 375.264 364.126 386.182L366.584 384.812C353.13 372.586 315.917 360.329 311.742 365.024H311.726Z" fill="#0E141B"/>
<path d="M359.116 388.151C354.626 391.365 355.698 392.956 359.715 390.231C386.813 371.876 421.6 370.679 448.477 381.896L453.298 380.195C421.946 365.858 384.34 370.096 359.132 388.151H359.116Z" fill="#0E141B"/>
<path d="M442.207 383.442C439.024 385.017 437.323 388.089 443.53 385.443C469.856 374.272 504.911 369.058 508.786 371.783C511.953 374.02 502.768 414.132 489.786 430.359L491.157 433.321C507.227 413.234 515.892 371.027 512.567 367.75C508.55 363.78 467.068 371.216 442.207 383.442Z" fill="#0E141B"/>
<path d="M501.901 377.943C493.488 382.213 483.468 390.972 477.986 400.315C474.725 405.861 474.977 406.381 477.545 410.114C490.621 429.115 495.852 448.855 496.639 468.391C497.049 478.569 492.653 485.453 478.348 489.439C464.831 493.205 433.164 501.602 417.63 519.751C405.624 533.773 400.378 536.136 390.153 535.254C381.126 534.482 376.226 528.259 371.232 517.751C366.269 507.305 357.651 499.822 329.813 484.382C325.401 481.94 324.614 479.152 324.188 471.873C323.542 460.86 326.52 443.703 331.64 430.296C334.256 423.459 338.557 415.865 341.534 411.312C343.929 407.657 343.582 407.074 341.566 402.662C337.296 393.304 330.648 382.544 319.509 373.642C312.026 367.655 310.214 368.664 316.469 373.768C322.361 378.573 334.823 393.084 339.675 404.616C340.951 407.641 340.699 408.145 339.171 410.414C334.681 417.062 330.506 424.845 328.789 429.319C324.031 441.718 319.856 462.42 320.092 472.251C320.281 480.002 321.983 484.603 326.205 486.84C358.439 503.886 365.891 512.457 368.963 519.783C374.54 533.127 382.213 538.232 390.248 538.61C402.111 539.145 406.585 535.979 419.615 522.115C432.234 508.676 448.162 500.609 476.82 492.874C496.608 487.533 501.334 480.491 500.862 468.407C499.948 445.09 491.125 424.593 479.293 407.72C478.206 406.176 478.191 405.278 479.293 403.167C483.831 394.533 494.245 384.544 503.556 379.109C511.307 374.587 507.936 374.903 501.886 377.975L501.901 377.943Z" fill="#0E141B"/>
<path d="M345.489 469.636C352.956 475.67 359.621 482.382 365.481 492.402C367.986 496.687 369.546 496.703 367.75 491.961C363.197 479.877 354.28 472.267 346.229 467.147C339.99 463.177 339.659 464.941 345.489 469.636Z" fill="#0E141B"/>
<path d="M437.165 464.404C427.319 470.549 419.189 479.387 414.794 490.258C412.509 495.93 413.817 497.332 416.716 491.881C421.332 483.231 428.973 473.542 438.662 467.004C448.903 460.088 447.753 457.803 437.165 464.404Z" fill="#0E141B"/>
<path d="M379.645 522.225C379.708 523.691 380.039 524.983 380.732 526.054C381.268 526.889 382.875 527.204 382.701 525.613C382.575 524.431 381.52 522.541 380.858 521.784C379.865 520.65 379.582 520.697 379.645 522.225Z" fill="#0E141B"/>
<path d="M401.717 522.225C400.945 523.123 400.173 524.572 399.905 525.691C399.48 527.518 401.355 527.834 402.442 526.195C402.867 525.565 403.434 524.021 403.639 522.918C404.128 520.334 403.561 520.098 401.701 522.209L401.717 522.225Z" fill="#0E141B"/>
</g>
<defs>
<clipPath id="clip0_42_63955">
<rect width="520" height="371.086" fill="white" transform="translate(140 364)"/>
</clipPath>
</defs>
</svg>
