<svg width="800" height="800" viewBox="0 0 800 800" fill="none" xmlns="http://www.w3.org/2000/svg">
<g clip-path="url(#clip0_42_64058)">
<path d="M479.152 656.348C471.978 660.652 465.778 665.698 466.652 666.951C467.526 668.221 480.01 667.545 482.302 667.825L479.152 656.348Z" fill="#C9CACA"/>
<path d="M515.614 592.312C513.322 595.182 514.179 603.79 511.31 608.671C508.44 613.553 509.298 618.154 512.745 623.893C516.191 629.632 515.696 637.267 505.356 646.172C499.667 649.322 487.464 645.71 484.017 649.454C480.57 653.181 476.547 658.062 479.993 663.241C483.44 668.402 484.017 674.158 500.376 671.288C516.735 668.419 526.218 668.996 538.273 671.008C550.328 673.02 562.68 675.889 566.984 681.628C571.288 687.367 574.157 694.26 584.778 693.683C595.398 693.106 602.291 685.405 600.576 678.511C607.255 684.25 619.244 677.307 618.667 670.134C618.09 662.96 611.246 659.068 604.93 655.918C598.614 652.752 583.805 646.354 579.336 645.133C570.876 642.808 558.936 645.727 551.482 645.166C544.012 644.589 542.577 645.166 543.434 641.142C544.292 637.119 558.079 619.605 560.668 613.866C563.257 608.127 559.81 601.514 562.102 596.93C564.395 592.329 569.853 584.298 567.561 581.428C565.269 578.559 554.071 572.243 551.762 571.665C549.47 571.088 547.458 571.665 545.15 573.677L515.581 592.345L515.614 592.312Z" fill="#D8A500"/>
<path d="M518.5 633.705C514.113 610.288 526.597 595.974 536.376 579.219L515.614 592.313C513.322 595.182 514.179 603.791 511.31 608.672C508.44 613.553 509.298 618.154 512.745 623.893C516.191 629.632 515.696 637.267 505.356 646.173C499.667 649.322 487.464 645.711 484.017 649.454C480.57 653.181 476.547 658.063 479.993 663.241C482.78 667.43 483.704 671.998 492.658 672.047C490.119 666.589 485.023 657.255 494.439 656.875C511.277 656.199 520.133 645.249 518.483 633.705H518.5Z" fill="#B18700"/>
<path d="M526.663 669.539C530.489 669.82 534.249 670.314 538.306 670.991C550.361 673.002 562.713 675.872 567.017 681.611C571.321 687.35 574.19 694.243 584.811 693.666C589.296 693.418 593.122 691.901 595.909 689.708C592.017 689.593 584.679 690.516 575.246 681.1C565.829 671.667 545.941 664.674 526.646 669.523L526.663 669.539Z" fill="#B18700"/>
<path d="M580.342 660.898C589.56 665.433 595.167 670.595 597.971 673.58C601.945 677.835 600.725 678.956 600.626 678.511C607.288 684.233 619.261 677.34 618.716 670.166C603.907 676.037 595.596 663.949 580.358 660.898H580.342Z" fill="#B18700"/>
<path d="M609.267 698.895C608.393 691.045 603.429 678.94 597.971 677.06C592.314 675.114 585.075 681.282 586.559 687.631C590.929 689.264 600.857 695.201 607.601 699.191C608.393 700 609.366 699.868 609.267 698.895Z" fill="#EFEFEF"/>
<path d="M587.07 682.732C586.41 684.25 586.163 685.932 586.559 687.63C590.451 689.082 599.405 694.573 605.738 697.558C600.922 691.225 594.408 686.278 587.07 682.732Z" fill="#C9CACA"/>
<path d="M630.178 682.221C627.82 674.668 621.685 664.674 616.375 663.652C610.504 662.514 604.204 669.638 606.546 675.724C610.883 676.68 621.487 680.786 628.149 683.623C629.452 684.497 630.656 683.738 630.178 682.237V682.221Z" fill="#EFEFEF"/>
<path d="M607.618 667.973C606.117 670.248 605.507 673.068 606.53 675.707C609.053 676.268 618.255 679.401 623.054 681.1C620.102 678.758 611.394 673.712 607.601 667.973H607.618Z" fill="#C9CACA"/>
<path d="M377.501 451.246L310.102 437.509C283.023 425.619 226.97 432.414 201.755 479.512C178.552 522.851 189.156 555.108 199.232 572.737C192.965 576.216 179.706 582.631 152.496 560.17C144.349 590.267 163.034 631.874 206.191 631.874C249.348 631.874 267.983 608.852 271.331 602.124C288.135 632.352 423.643 685.602 479.086 579.465L377.484 451.23L377.501 451.246Z" fill="#D8A500"/>
<path d="M377.501 451.247L310.102 437.51C297.288 431.886 278.026 429.611 258.468 434.426C324.416 440.808 342.424 483.784 347.058 505.272C351.709 526.76 352.632 570.445 327.203 582.566C301.774 594.687 257.643 552.882 254.642 518.25C235.578 522.109 239.635 578.426 236.156 591.207C232.676 603.988 223.969 615.02 201.31 613.849C178.667 612.695 162.358 598.958 150.6 580.108C153.552 606.494 172.945 631.858 206.191 631.858C249.019 631.858 267.983 608.836 271.331 602.108C288.136 632.336 423.643 685.586 479.086 579.449L377.484 451.214L377.501 451.247Z" fill="#B18700"/>
<path d="M295.854 622.591L298.327 616.275C298.327 616.275 280.55 582.27 290.906 543.879C297.074 521.005 312.608 494.718 349.549 478.26C340.149 467.937 338.648 451.809 338.648 451.809C299.168 456.014 221.61 529.185 280.401 612.333L295.854 622.591Z" fill="#A4725E"/>
<path d="M260.233 536.969C256.67 559.726 261.436 585.519 280.401 612.333L295.853 622.591L298.327 616.275C298.327 616.275 288.053 597.392 287.41 571.699C275.949 561.936 266.351 550.063 260.233 536.969Z" fill="#825948"/>
<path d="M338.664 451.809C332.497 452.468 326.428 454.447 319.056 458.257C328.836 467.673 334.344 473.874 339.258 483.851C343.232 481.625 346.663 479.481 352.253 478.673C342.853 468.349 338.664 451.825 338.664 451.825V451.809Z" fill="#825948"/>
<path d="M499.931 493.793C525.97 508.075 515.894 514.787 525.129 523.197C534.364 531.591 545.281 511.439 539.411 505.551C533.523 499.664 525.888 482.381 522.54 476.494L499.931 493.793Z" fill="#D8A500"/>
<path d="M499.931 493.793C525.97 508.075 515.894 514.787 525.129 523.197C534.364 531.591 545.281 511.439 539.411 505.551C533.523 499.664 525.888 482.381 522.54 476.494L499.931 493.793Z" fill="#B18700"/>
<path d="M473.051 409.805C477.767 409.739 498.463 409.805 513.652 415.676C524.998 420.063 526.63 424.318 525.954 441.716C525.113 463.55 527.966 497.736 498.232 491.272C468.499 484.807 463.222 409.954 473.034 409.805H473.051Z" fill="#A4725E"/>
<path d="M487.661 410.151C482.17 409.656 477.289 409.755 473.05 409.804C463.222 409.953 468.515 484.806 498.249 491.271C522.243 496.482 525.014 475.241 525.624 455.369C507.517 445.211 484.528 419.518 487.661 410.134V410.151Z" fill="#825948"/>
<path d="M565.434 489.589C565.285 489.705 565.137 489.804 564.972 489.919C557.881 495.015 540.977 501.265 532.254 504.728C514.163 511.902 521.403 535.402 534.843 533.736C548.283 532.054 571.305 518.152 584.745 521.5C592.281 530.289 611.048 522.159 615.253 518.795C619.459 515.431 619.178 508.9 625.907 509.742C628.595 522.093 646.191 520.345 647.708 516.783C652.589 505.305 649.143 492.343 645.696 489.771C642.249 487.198 637.665 483.768 633.361 484.345C629.056 484.922 614.99 488.369 613.555 484.922C612.12 481.476 614.99 473.725 620.448 468.844C628.776 471.136 636.527 469.124 637.681 459.658C638.836 450.176 631.646 444.437 627.919 442.722C624.192 441.007 609.828 442.441 606.381 448.757C602.935 455.073 600.923 463.401 586.279 472.884C580.243 472.026 580.82 466.287 581.117 460.252C581.397 454.216 571.634 451.643 565.896 453.358C560.157 455.073 553.181 458.487 555.275 470.014C555.852 473.164 559.299 478.046 563.026 481.492C565.236 483.521 565.467 489.606 565.467 489.606L565.434 489.589Z" fill="#D8A500"/>
<path d="M569.87 479.118C568.188 470.361 561.278 470.988 564.147 462.957C563.488 463.039 566.456 453.161 565.862 453.342C560.124 455.057 553.148 458.471 555.242 469.998C555.819 473.148 559.266 478.03 562.993 481.476C565.203 483.505 565.434 489.59 565.434 489.59C565.285 489.705 565.137 489.804 564.972 489.92C564.362 490.348 563.669 490.81 562.927 491.255C564.527 493.234 571.535 487.858 569.853 479.101L569.87 479.118Z" fill="#B18700"/>
<path d="M612.565 464.901C605.326 466.237 604.551 476.099 605.903 480.353C607.173 482.877 609.894 483.948 613.307 484.212C612.532 480.716 615.022 474.285 619.557 469.717C617.001 468.529 614.577 467.424 612.565 464.885V464.901Z" fill="#B18700"/>
<path d="M624.769 509.692C625.989 506.492 628.1 503.541 630.64 500.143C632.289 496.845 614.181 502.65 609.943 505.717C597.179 514.952 589.758 521.631 570.562 508.752C558.788 505.388 541.274 519.867 534.546 516.832C527.817 513.798 531.149 507.746 529.582 506.064C515.02 514.408 522.161 535.335 534.876 533.752C548.316 532.07 571.337 518.168 584.778 521.516C592.314 530.306 611.081 522.175 615.286 518.811C619.228 515.662 619.228 509.692 624.802 509.692H624.769Z" fill="#B18700"/>
<path d="M572.475 461.669C573.333 455.633 576.945 444.914 574.685 443.71C571.667 442.11 550.229 461.224 556.397 465.116C561.855 468.562 572.475 461.669 572.475 461.669Z" fill="#EFEFEF"/>
<path d="M556.396 465.116C557.567 465.858 559.002 466.105 560.503 466.056C561.822 459.443 562.135 455.551 567.858 447.553C560.222 453.077 552.455 462.626 556.396 465.116Z" fill="#C9CACA"/>
<path d="M621.009 458.8C623.598 456.508 635.933 457.943 636.807 462.824C637.599 467.293 628.38 479.167 625.296 477.006C623.746 471.96 621.009 458.8 621.009 458.8Z" fill="#EFEFEF"/>
<path d="M625.857 457.727C623.697 457.694 621.833 458.041 620.992 458.783C620.992 458.783 623.631 469.255 624.142 474.713C624.488 474.796 624.653 477.335 625 477.335C626.616 470.541 628.364 464.505 625.857 457.711V457.727Z" fill="#C9CACA"/>
<path d="M632.239 531.492C634.4 522.521 632.19 515.644 632.19 515.644C636.494 511.917 647.411 513.632 645.679 520.806C644.261 526.71 637.615 530.865 633.69 532.795C632.833 533.207 632.058 532.218 632.223 531.492H632.239Z" fill="#EFEFEF"/>
<path d="M632.206 515.645C632.206 515.645 633.888 520.905 632.866 528.244C634.927 523.808 636.065 519.141 637.137 513.781C635.257 513.946 633.443 514.556 632.206 515.628V515.645Z" fill="#C9CACA"/>
<path d="M482.599 529.432C486.045 529.432 495.231 529.432 509.875 542.064C524.519 554.696 535.997 566.471 542.61 568.763C549.206 571.055 540.598 584.265 538.586 586.276C536.574 588.288 520.215 593.747 512.448 590.004C504.697 586.277 484.017 579.086 475.986 577.949C467.955 576.794 465.943 573.644 465.365 572.787L482.599 529.432Z" fill="#D8A500"/>
<path d="M526.745 584.232C510.584 572.474 477.404 569.868 475.046 548.43L465.365 572.787C465.943 573.645 467.955 576.811 475.986 577.949C484.033 579.103 504.697 586.277 512.448 590.004C519.588 593.434 534.002 589.097 537.811 586.805C533.375 586.887 529.466 586.277 526.729 584.215L526.745 584.232Z" fill="#B18700"/>
<path d="M385.565 392.704C403.903 383.337 444.372 384.92 471.863 407.744C499.354 430.568 502.058 438.929 502.058 438.929C504.285 448.543 512.926 472.653 507.748 480.8C505.653 484.098 484.083 503.458 478.377 513.683C472.556 524.105 420.658 524.039 405.124 517.377C389.589 510.715 393.283 501.842 373.312 493.696C364.407 490.068 351.857 480.371 346.679 472.983C341.501 465.578 337.873 447.966 335.96 436.472C334.047 424.977 367.26 402.088 385.598 392.721L385.565 392.704Z" fill="#A4725E"/>
<path d="M458.39 474.895C446.863 475.719 432.862 481.277 425.457 478.391C418.053 475.505 408.01 445.705 417.904 432.512C427.782 417.703 440.612 405.253 455.702 397.304C430.322 384.721 400.556 385.051 385.565 392.703C367.227 402.07 334.014 424.976 335.927 436.454C337.84 447.948 341.468 465.561 346.646 472.965C351.824 480.37 364.374 490.05 373.279 493.678C393.266 501.825 389.556 510.697 405.091 517.359C420.625 524.022 472.424 524.022 478.344 513.665C481.741 507.728 488.09 501.379 494.456 495.443C496.336 490.825 498.133 490.281 498.133 485.498C498.133 472.306 469.884 474.054 458.357 474.878L458.39 474.895Z" fill="#825948"/>
<path d="M362.197 368.643C354.793 366.417 331.243 354.197 322.371 357.907C313.499 361.601 292.638 372.354 293.38 385.662C294.122 398.987 302.912 440.165 321.415 445.343C339.918 450.521 346.926 450.521 354.314 454.215C371.432 444.321 389.572 427.83 385.878 405.633L362.197 368.627V368.643Z" fill="#A4725E"/>
<path d="M356.508 437.857C343.315 439.506 327.269 437.89 332.216 421.399C333.865 414.802 331.012 400.917 329.149 395.969C327.302 391.022 317.605 395.046 320.475 388.416C314.505 388.136 309.046 387.592 308.337 383.321C308.337 376.229 319.238 361.503 329.825 357.479C326.857 357.05 324.268 357.116 322.338 357.908C313.466 361.602 292.605 372.354 293.347 385.662C294.089 398.987 302.879 440.166 321.382 445.344C339.885 450.522 347.718 450.11 355.106 453.804C367.672 447.62 379.018 435.663 383.718 425.06C374.005 428.688 366.98 435.944 356.475 437.857H356.508Z" fill="#825948"/>
<path d="M305.22 335.348C309.656 338.3 309.656 343.494 312.625 349.415C315.577 355.335 328.77 371.711 331.128 374.58C336.817 381.49 316.649 397.255 308.766 382.644C304.264 374.3 297.338 365.098 290.675 359.919C284.013 354.741 274.547 348.672 276.757 342.752L305.22 335.348Z" fill="#D8A500"/>
<path d="M295.87 350.057C295.87 347.188 302.994 343.593 302.153 336.139L276.74 342.752C274.514 348.672 283.996 354.724 290.659 359.919C297.321 365.097 304.247 374.299 308.749 382.644C312.246 389.125 318.149 389.619 323.163 387.574C314.95 374.151 297.173 365.707 295.87 350.074V350.057Z" fill="#B18700"/>
<path d="M324.977 244.184C326.131 248.587 321.497 255.546 316.632 265.523C311.767 275.5 304.346 301.705 305.27 310.973C306.193 320.241 308.749 333.467 300.174 338.332C291.599 343.196 281.16 351.557 272.815 339.255C264.471 326.969 266.318 302.843 267.95 290.095C269.567 277.347 274.679 244.876 274.679 243.475L325.01 244.167L324.977 244.184Z" fill="#D8A500"/>
<path d="M313.895 244.036L274.662 243.492C274.662 244.877 269.567 277.348 267.934 290.113C266.318 302.86 264.454 326.987 272.799 339.273C275.421 343.148 278.257 344.962 281.176 345.49C268.824 332.891 283.699 264.04 313.878 244.036H313.895Z" fill="#B18700"/>
<path d="M385.977 195.947C389.688 196.409 407.779 200.581 405.915 202.445C404.052 204.308 385.516 210.558 385.516 210.558L385.977 195.947Z" fill="#EFEFEF"/>
<path d="M400.457 205.1C395.344 204.507 390.413 203.352 385.829 200.549L385.516 210.559C385.516 210.559 394.388 207.574 400.473 205.1H400.457Z" fill="#C9CACA"/>
<path d="M350.488 197.102C354.891 198.949 360.696 196.179 366.023 193.623C371.35 191.067 382.959 190.374 385.499 194.546C388.055 198.718 390.743 210.625 383.883 214.715C379.018 217.617 360.927 217.964 354.199 220.52C347.47 223.076 337.262 233.267 332.859 239.534C328.456 245.801 323.591 244.63 315.692 246.031C307.809 247.417 302.714 257.856 291.582 254.376C280.451 250.896 274.646 250.435 268.626 233.976L350.488 197.102Z" fill="#D8A500"/>
<path d="M307.529 232.658C312.872 224.214 320.491 225.863 331.194 217.222C335.877 213.066 338.17 207.113 341.369 201.209L268.626 233.977C274.662 250.435 280.451 250.913 291.582 254.376C296.546 255.927 300.306 254.706 303.654 252.76C301.378 247.153 302.169 241.085 307.513 232.641L307.529 232.658Z" fill="#B18700"/>
<path d="M383.883 170.206C382.019 173.686 305.27 202.446 286.717 208.234C268.165 214.023 253.092 215.886 242.653 222.153C232.181 228.436 229.427 248.588 246.364 243.262C263.3 237.935 355.815 192.007 385.977 183.663C402.304 179.144 407.482 193.92 432.812 185.988C471.302 173.933 475.953 152.363 468.994 143.556C457.813 129.39 428.409 128.714 407.779 139.153C392.508 146.871 388.995 160.724 383.899 170.222L383.883 170.206Z" fill="#C7DDDC"/>
<path d="M470.659 146.426C466.207 162.884 446.863 172.564 429.168 177.907C411.473 183.25 403.244 178.32 393.563 177.083C383.883 175.846 356.31 189.435 350.291 191.743C350.291 189.402 352.599 187.785 350.95 185.938C349.301 184.091 328.819 193.228 318.446 197.054C322.948 204.672 311.833 209.207 311.833 209.207C311.833 209.207 309.261 206.239 307.315 201.127C298.426 204.343 291.005 206.915 286.701 208.251C282.199 209.653 277.895 210.824 273.821 211.896C276.641 218.261 273.97 222.582 266.549 225.27C259.144 227.941 235.892 235.56 235.364 241.332C237.013 243.938 240.509 245.125 246.347 243.278C263.283 237.951 355.799 192.024 385.961 183.679C402.287 179.161 407.465 193.937 432.796 186.004C467.575 175.104 474.716 156.452 470.643 146.459L470.659 146.426Z" fill="#A7BBBA"/>
<path d="M323.526 194.776L309.294 200.416L305.039 191.544C306.193 187.372 307.595 176.471 312.691 173.222C317.787 169.974 327.302 165.57 332.629 168.819C337.955 172.068 352.105 184.816 351.874 188.295C351.643 191.775 348.394 207.309 345.607 211.02C342.82 214.73 327.747 220.766 325.669 210.327C323.575 199.888 327.286 196.64 327.286 196.64L323.509 194.776H323.526Z" fill="#D8A500"/>
<path d="M266.845 213.741C268.231 207.705 269.797 188.526 276.278 183.892C282.759 179.258 290.659 175.317 297.156 181.105C303.654 186.91 311.767 205.924 311.536 209.635C311.306 213.345 308.519 225.17 305.732 229.342C302.945 233.514 297.156 234.899 292.984 233.052C288.812 231.205 284.408 231.205 288.35 218.903C285.563 213.098 283.287 215.654 281.902 210.08L266.845 213.725V213.741Z" fill="#D8A500"/>
<path d="M333.668 194.578C333.668 190.67 320.491 183.463 316.385 180.165C312.262 176.867 314.455 172.084 312.691 173.206C307.595 176.455 306.193 187.355 305.039 191.527L309.294 200.4L323.526 194.76L327.302 196.623C327.302 196.623 323.592 199.872 325.686 210.311C326.626 215.011 330.205 216.363 334.113 216.099C323.592 213.51 333.668 198.487 333.668 194.562V194.578Z" fill="#B18700"/>
<path d="M292.918 229.16C291.269 225.862 293.132 224.213 293.743 219.892C294.353 215.572 293.94 212.686 285.514 202.61C277.07 192.517 277.037 183.348 276.295 183.892C269.797 188.526 268.247 207.705 266.862 213.741L281.918 210.097C283.304 215.654 286.157 216 288.366 218.919C284.425 231.205 288.828 231.205 293 233.069C294.864 233.893 297.057 234.042 299.168 233.613C296.843 232.887 294.056 231.964 292.935 229.177L292.918 229.16Z" fill="#B18700"/>
<path d="M402.897 520.79C402.897 516.964 405.635 513.122 405.635 513.122C405.635 513.122 436.292 499.434 449.979 497.785C465.3 502.172 478.987 504.349 481.181 519.685C483.374 535.022 483.374 560.748 478.987 565.118C474.617 569.505 456.543 580.999 439.029 585.369C421.516 589.756 406.723 585.369 399.071 575.508L402.897 520.757V520.79Z" fill="#D8A500"/>
<path d="M427.518 568.12C413.897 556.098 413.485 530.916 413.006 509.973C408.57 511.82 405.635 513.122 405.635 513.122C405.635 513.122 402.897 516.948 402.897 520.791L399.071 575.541C406.74 585.403 421.516 589.773 439.029 585.403C448.578 583.012 458.291 578.51 465.86 574.189C475.26 562.563 435.22 574.948 427.502 568.12H427.518Z" fill="#B18700"/>
<path d="M415.496 585.947C426.447 585.947 438.485 578.279 452.173 573.348C454.366 579.911 440.678 599.634 431.361 599.634C422.043 599.634 415.48 585.947 415.48 585.947H415.496Z" fill="#D8A500"/>
<path d="M451.018 580.554C452.239 577.652 452.75 575.063 452.173 573.348C438.485 578.279 426.447 585.947 415.497 585.947C415.497 585.947 420.922 597.194 428.887 599.272C434.033 590.861 445.016 576.349 451.035 580.554H451.018Z" fill="#B18700"/>
<path d="M437.496 521.038C433.67 523.528 427.007 537.298 427.057 540.349C427.106 543.4 431.971 549.106 431.773 551.431C431.328 556.329 426.183 565.432 426.183 565.432C426.183 565.432 429.25 566.867 432.845 566.323C434.741 564.756 437.809 555.57 438.551 551.431C439.293 547.292 435.22 541.767 434.742 539.162C434.263 536.556 443.416 523.099 443.416 523.099C443.416 523.099 437.924 520.988 437.512 521.038H437.496Z" fill="#EE869A"/>
<path d="M455.29 519.158C451.744 521.483 445.939 532.829 445.989 535.699C446.038 538.552 450.557 543.911 450.359 546.105C449.947 550.689 445.164 559.248 445.164 559.248C445.164 559.248 448.001 560.6 451.348 560.089C453.113 558.621 455.966 549.997 456.642 546.121C457.335 542.229 453.558 537.051 453.113 534.61C452.668 532.17 460.765 521.121 460.765 521.121C460.765 521.121 455.652 519.142 455.273 519.191L455.29 519.158Z" fill="#EE869A"/>
<path d="M471.764 518.414C468.581 520.608 463.848 530.008 463.898 532.696C463.947 535.384 467.988 540.43 467.806 542.492C467.443 546.812 463.156 554.86 463.156 554.86C463.156 554.86 465.695 556.13 468.68 555.651C470.263 554.266 472.803 546.153 473.413 542.492C474.023 538.831 470.659 533.949 470.247 531.657C469.851 529.365 476.645 520.245 476.645 520.245C476.645 520.245 472.077 518.382 471.748 518.414H471.764Z" fill="#EE869A"/>
<path d="M334.047 566.091C334.261 558.983 335.597 546.549 342.259 543.003C348.922 539.458 370.228 533.455 379.331 528.128C388.435 522.802 396.862 513.484 404.86 521.252C412.858 529.019 415.744 535.236 411.967 549.88C408.191 564.524 408.636 569.406 401.314 574.304C393.992 579.185 387.544 581.856 377.567 588.519C372.834 591.669 362.296 604.433 356.359 596.896L334.063 566.091H334.047Z" fill="#D8A500"/>
<path d="M353.589 566.091C344.403 564.558 339.489 557.335 337.51 548.396C334.888 553.707 334.212 561.177 334.047 566.091L356.343 596.897C362.28 604.417 372.817 591.669 377.55 588.519C387.544 581.857 393.976 579.202 401.298 574.304C406.641 570.742 407.845 567.163 409.576 559.825C390.793 557.928 372.752 568.829 353.572 566.091H353.589Z" fill="#B18700"/>
<path d="M388.517 723.73C392.541 729.255 394.718 746.323 391.007 748.385C387.297 750.446 373.955 738.292 373.955 738.292L388.517 723.73Z" fill="#EFEFEF"/>
<path d="M383.405 728.826L373.955 738.276C373.955 738.276 381.063 745.35 389.16 749.193C389.523 747.89 390.71 746.785 390.974 745.581C386.505 741.211 383.998 735.126 383.421 728.826H383.405Z" fill="#C9CACA"/>
<path d="M326.247 568.07C322.322 571.204 321.233 587.151 315.709 595.693C310.184 604.235 294.617 614.773 295.623 631.347C296.628 647.92 296.843 664.181 296.843 664.181C296.843 664.181 282.067 649.932 272.024 649.421C261.981 648.926 247.419 651.433 244.401 665.995C241.383 680.556 241.383 685.075 247.419 686.575C253.438 688.076 265.493 691.589 265.493 691.589C265.493 691.589 262.096 697.476 241.119 695.101C225.123 693.287 209.259 693.584 206.752 711.675C204.245 729.749 214.288 737.78 230.351 732.767C246.413 727.754 280.566 721.223 293.627 721.223C306.688 721.223 322.635 719.409 330.287 722.526C335.96 724.835 351.247 738.671 362.296 740.089C369.173 740.963 385.252 735.834 388.039 727.754C390.628 720.267 391.057 713.192 381.508 707.173C371.96 701.154 354.892 694.623 354.892 694.623C354.892 694.623 345.343 677.044 344.849 663.488C344.354 649.932 357.398 634.365 359.41 618.302C361.422 602.24 355.386 597.721 355.898 590.68C356.392 583.654 360.911 572.605 352.385 569.093C343.843 565.58 331.293 564.079 326.28 568.087L326.247 568.07Z" fill="#D8A500"/>
<path d="M317.308 607.319C327.549 594.159 326.131 579.713 330.27 566.256C328.687 566.652 327.302 567.229 326.263 568.07C322.338 571.203 321.25 587.15 315.725 595.693C310.201 604.235 294.633 614.773 295.639 631.346C296.546 646.353 296.81 661.113 296.859 663.751C301.296 668.088 307.941 675.707 313.928 677.422C308.98 655.984 300.834 625.475 317.325 607.335L317.308 607.319Z" fill="#B18700"/>
<path d="M232.824 717.545C233.649 706.43 216.976 700.048 212.854 700.46C208.731 700.873 206.933 710.322 206.735 711.674C204.229 729.748 214.272 737.78 230.334 732.766C246.396 727.753 280.55 721.223 293.611 721.223C306.671 721.223 322.618 719.408 330.27 722.525C335.943 724.834 351.23 738.67 362.28 740.088C366.023 740.567 372.488 739.264 378.045 736.658C369.898 735.537 345.145 724.768 336.141 720.629C303.835 705.803 232 728.66 232.824 717.545Z" fill="#B18700"/>
<path d="M250.206 687.152C256.225 688.653 265.493 691.588 265.493 691.588C265.493 691.588 263.613 694.837 254.048 695.53C264.058 699.405 282.627 699.636 285.975 698.02C278.917 688.521 263.069 680.704 258.138 679.055C253.191 677.406 253.257 663.042 255.269 651.713C249.216 653.906 246.083 657.881 244.418 665.978C241.4 680.539 244.203 685.652 250.222 687.152H250.206Z" fill="#B18700"/>
<path d="M255.203 654.812C249.365 650.772 224.035 656.445 225.469 681.38C229.427 681.38 238.761 675.196 249.81 674.354C252.927 674.107 262.558 659.908 255.186 654.812H255.203Z" fill="#EFEFEF"/>
<path d="M216.399 707.783C209.654 705.161 194.565 714.165 195.439 736.675C199.298 735.752 210.66 727.605 221.215 724.208C224.2 723.251 224.744 711.031 216.399 707.783Z" fill="#EFEFEF"/>
<path d="M225.255 678.478C225.024 679.534 225.667 680.474 225.469 681.595C229.427 681.595 238.761 675.213 249.81 674.355C251.542 674.223 255.285 669.771 257 664.972C243.511 663.867 232.313 668.369 225.238 678.478H225.255Z" fill="#C9CACA"/>
<path d="M220.885 711.328C211.93 712.499 204.196 716.688 198.078 722.789C196.626 726.681 195.653 731.315 195.439 736.691C199.298 735.768 210.66 727.621 221.215 724.224C223.49 723.499 224.331 716.193 220.901 711.345L220.885 711.328Z" fill="#C9CACA"/>
<path d="M453.723 318.824C459.742 314.107 503.064 279.03 501.712 285.808C500.805 290.36 481.989 352.548 481.989 352.548C481.989 352.548 506.132 390.362 502.949 394.93C499.766 399.498 473.034 404.033 471.418 410.316C470.049 418.974 474.848 443.529 470.758 448.988C466.652 454.463 461.21 459.064 457.565 459.064C453.921 459.064 440.992 449.598 439.161 446.399C437.347 443.216 433.785 413.697 424.22 410.514C414.655 407.331 367.161 402.994 360.334 402.664C352.83 402.302 350.422 392.176 367.326 355.071C353.209 335.018 318.413 268.707 324.795 268.707C331.177 268.707 399.516 306.521 414.556 314.734C434.61 309.72 453.739 318.84 453.739 318.84L453.723 318.824Z" fill="#D8A500"/>
<path d="M451.596 445.047C445.626 441.963 436.787 411.702 430.19 408.42C423.61 405.122 385.532 395.755 378.326 389.637C371.119 383.519 387.379 345.853 389.441 334.326C386.769 320.539 338.598 301.591 324.531 273.012C328.638 288.118 355.535 338.086 367.507 355.072C349.169 394.436 352.814 402.302 360.317 402.665C367.145 402.995 413.897 407.019 423.792 410.515C433.406 413.912 437.331 443.217 439.145 446.399C440.975 449.582 453.904 459.064 457.549 459.064C461.193 459.064 466.652 454.463 470.742 448.988C471.418 448.081 472.11 442.722 472.391 440.941C462.298 452.88 457.565 448.147 451.596 445.064V445.047Z" fill="#B18700"/>
<path d="M474.518 340.625C477.404 345.275 478.756 347.419 482.483 351.212C483.671 347.056 490.069 324.134 495.181 305.895C481.477 318.906 470.577 334.309 474.502 340.641L474.518 340.625Z" fill="#B18700"/>
<path d="M476.035 372.072C477.404 373.441 481.065 379.427 481.065 383.072C474.683 388.085 466.025 394.005 466.025 394.005C466.47 388.135 470.115 379.807 476.035 372.072Z" fill="white"/>
<path d="M476.035 372.072C470.709 377.96 467.691 385.034 466.635 391.169C470 385.447 474.65 377.762 478.41 375.469C477.371 373.589 476.629 372.666 476.035 372.072Z" fill="#DCDDDD"/>
<path d="M402.238 381.985C414.655 387.13 438.073 394.386 438.073 394.386C434 385.497 417.195 369.237 404.711 363.943C404.711 363.943 400.16 376.345 402.238 381.985Z" fill="white"/>
<path d="M434.197 393.099C436.605 393.775 438.089 394.171 438.089 394.171C434.016 385.282 418.086 370.127 404.86 363.959C404.86 363.959 403.92 365.888 402.881 369.434C415.579 373.458 426.265 382.38 434.197 393.099Z" fill="#DCDDDD"/>
<path d="M445.527 337.969L441.321 346.297C441.321 346.297 432.763 349.364 431.394 349.809C436.869 353.454 439.145 356.191 439.145 356.191L438.683 365.311L448.248 358.484L458.274 363.497L455.537 353.47L459.181 349.364L450.985 346.181L445.51 337.985L445.527 337.969Z" fill="#EE869A"/>
<path d="M435.038 408.584C418.63 417.242 359.674 452.351 354.215 509.773C359.163 501.528 364.423 496.531 364.423 496.531C364.423 496.531 359.377 521.416 366.072 539.26C365.578 528.128 386.917 449.086 437.528 416.929L435.038 408.6V408.584Z" fill="#D8A500"/>
<path d="M361.455 490.744C361.257 488.072 370.476 467.326 375.604 458.438C364.506 473.181 356.458 489.193 354.512 509.461C358.932 501.117 364.407 496.532 364.407 496.532C364.407 496.532 358.487 522.192 365.545 539.063C365.974 518.943 361.867 513.369 371.333 485.384C372.438 482.119 361.653 493.415 361.455 490.727V490.744Z" fill="#B18700"/>
<path d="M471.401 411.058L472.539 408.881C502.223 420.425 538.042 451.609 535.288 485.598C533.012 478.77 527.537 467.82 527.537 467.82C529.203 470.211 531.38 487.412 524.585 500.39C521.914 481.524 512.728 435.877 471.715 416.285L471.401 411.041V411.058Z" fill="#D8A500"/>
<path d="M524.651 460.087C524.651 465.034 526.96 476.727 525.096 475.407C523.216 474.088 512.58 452.979 503.757 443.629C518.912 464.639 522.524 488.979 524.684 499.996C533.243 481.13 527.537 467.838 527.537 467.838C527.537 467.838 533.012 478.771 535.288 485.615C535.799 479.365 535.106 473.461 533.54 467.92C531.165 465.529 526.614 462.709 524.651 460.087Z" fill="#B18700"/>
<path d="M403.557 154.753C403.095 154.06 402.963 153.17 403.178 152.114C403.705 149.591 406.047 146.738 409.296 144.66C414.062 141.609 419.454 141.098 421.104 143.555C421.565 144.248 421.697 145.139 421.466 146.194C420.939 148.717 418.597 151.57 415.348 153.648C410.582 156.699 405.19 157.21 403.54 154.753H403.557Z" fill="#E4EFEE"/>
<path d="M467.377 662.548C462.776 667.165 463.98 669.243 469.637 669.556C475.92 669.655 478.295 669.754 482.83 669.556L482.467 666.538C480.818 666.341 468.812 667.297 468.532 665.928C468.301 664.312 474.139 661.096 479.218 658.046L478.987 654.055C474.502 656.743 470.164 659.777 467.377 662.564V662.548Z" fill="#0E141B"/>
<path d="M584.745 692.198C576.516 692.643 573.531 688.339 570.084 683.359L568.221 680.737C563.504 674.437 550.575 671.535 538.57 669.539C526.35 667.495 516.604 666.95 500.162 669.836C487.002 672.145 485.056 668.814 482.582 664.592L481.263 662.448C478.756 658.705 480.9 655.093 485.138 650.492C486.491 649.041 495.544 649.321 499.42 649.371C496.369 653.362 499.618 651.976 504.895 648.052C517.807 638.421 517.197 628.46 514.014 623.183C510.617 617.51 510.205 613.536 512.58 609.479C514.212 606.692 514.724 602.948 515.185 599.65C515.548 597.044 516.917 593.087 517.774 592.031L514.443 591.438C513.074 593.136 512.695 595.973 512.233 599.254C511.821 602.272 509.743 606.642 508.407 608.918C507.121 611.111 506.89 613.503 506.89 615.811C506.89 618.829 509.183 620.94 511.442 624.717C512.596 626.63 513.157 628.608 513.157 630.637C513.157 635.188 510.254 639.987 504.483 644.984C502.091 646.237 498.15 646.221 494.341 646.172C489.608 646.122 483.539 646.254 481.296 648.678C478.344 651.877 475.425 657.122 476.596 660.882C477.767 664.642 479.647 667.214 479.647 667.214C482.319 671.815 485.402 675.443 500.607 672.788C516.719 669.968 525.839 670.479 538.009 672.508C548.778 674.305 561.657 677.059 565.78 682.551L567.594 685.091C576.697 698.25 586.031 697.591 594.623 691.654C593.617 691.06 593.337 690.862 592.298 690.285C590.055 691.407 587.466 692.099 584.695 692.248L584.745 692.198Z" fill="#0E141B"/>
<path d="M601.582 677.389C601.582 677.389 602.028 679.961 602.72 681.33C605.771 682.6 609.036 683.408 612.582 681.594C614.05 680.852 615.369 679.78 616.49 678.576C615.089 678.213 613.654 678.065 612.285 677.504C612.087 677.62 607.915 682.897 601.582 677.389Z" fill="#0E141B"/>
<path d="M606.876 654.813C600.56 651.647 584.448 644.985 579.781 643.698C574.339 642.198 567.577 642.775 561.591 643.286C557.897 643.599 554.401 643.896 551.631 643.682L548.827 643.484C547.03 643.369 545.183 643.253 544.77 642.973C544.77 642.94 545.183 637.481 553.609 627.636C557.848 622.689 561.558 618.055 562.812 615.301C563.702 613.305 563.752 611.425 563.752 609.43C563.752 608.094 563.108 605.769 562.993 604.532C562.894 603.378 562.795 602.273 562.795 601.217C562.795 599.865 562.96 598.628 563.471 597.589L565.137 594.489C567.264 590.646 569.622 585.699 569.622 582.533C569.622 581.477 569.358 580.554 568.748 579.779C566.242 576.646 555.358 569.95 552.702 569.29C549.899 568.598 546.848 570.247 544.226 572.539L544.49 576.563C546.386 574.897 549.602 572.622 551.449 573.083C553.478 573.595 564.378 579.762 566.44 582.335C567.643 583.852 564.329 589.822 562.548 593.038L560.816 596.253C559.513 598.843 559.777 601.86 560.025 604.796C560.272 607.665 560.519 610.634 559.348 613.256C558.211 615.779 554.632 620.957 551.152 625.954C545.793 633.672 544.111 636.294 543.138 638.438C540.202 644.836 542.659 649.503 543.566 648.794C544.457 648.085 544.374 646.106 544.374 646.106L551.416 646.65C554.418 646.881 558.029 646.568 561.855 646.255C567.577 645.776 574.075 645.216 579.006 646.584C583.442 647.805 598.251 654.22 604.32 657.271C608.03 659.134 611.708 661.146 614.181 663.801C615.319 663.521 617.364 664.296 618.667 664.279C615.847 660.387 611.411 657.122 606.892 654.846L606.876 654.813Z" fill="#0E141B"/>
<path d="M548.448 651.861C551.433 654.697 562.35 657.501 568.319 656.297C572.277 655.505 582.848 663.701 586.014 666.241C589.164 668.764 593.271 671.469 593.271 671.469C597.179 673.975 599.85 676.136 599.653 678.807L602.703 678.725C602.984 675.08 600.56 673.002 596.338 670.298C596.338 670.298 591.869 666.934 587.911 663.949C583.953 660.964 573.91 652.619 569.21 653.559C563.933 654.615 550.855 651.267 549.404 650.525C547.953 649.783 547.293 650.772 548.464 651.877L548.448 651.861Z" fill="#0E141B"/>
<path d="M588.373 678.989C585.437 681.628 584.53 685.404 585.289 687.927C586.048 690.451 587.746 689.642 587.746 689.642C592.726 691.506 600.923 695.629 605.606 699.026C610.141 702.308 610.372 700.329 609.927 696.041C608.591 687.169 604.089 677.769 598.416 675.806C595.299 674.735 591.242 676.384 588.373 678.973V678.989ZM590.467 680.226C592.627 678.28 595.349 677.538 597.558 678.297C602.918 680.144 609.086 696.75 607.75 697.608C606.628 698.102 590.846 687.861 587.779 686.691C587.548 684.794 588.34 682.156 590.467 680.243V680.226Z" fill="#0E141B"/>
<path d="M606.925 666.802C604.386 669.837 604.6 674.207 605.309 676.202C606.035 678.198 607.288 677.39 607.288 677.39C612.582 678.56 619.937 681.051 626.121 683.871C630.739 685.981 633.328 686.641 630.112 679.138C627.094 671.172 622.213 663.471 616.639 662.383C613.406 661.756 609.432 663.85 606.942 666.835L606.925 666.802ZM607.354 672.97C607.354 671.222 608.047 669.408 609.366 667.841C611.23 665.615 613.819 664.494 616.111 664.939C620.893 665.862 629.749 681.776 628.875 682.617C627.952 683.359 610.916 675.378 607.651 674.619C607.503 674.075 607.354 673.531 607.354 672.97Z" fill="#0E141B"/>
<path d="M253.158 562.71C248.59 535.566 255.203 513.039 261.601 501.445C266.532 492.524 263.828 493.398 260.2 499.697C239.981 534.79 248.046 582.532 269.352 602.618C265.823 609.891 246.693 630.389 206.191 630.389C181.685 630.389 167.602 614.69 161.385 605.323C154.574 595.049 151.16 581.708 152.678 567.641C153.387 561.061 154.31 562.957 156.668 565.299C174.743 583.142 192.108 579.185 199.034 575.342C199.034 575.342 203.371 581.51 207.609 585.962C211.848 590.415 212.936 589.772 206.439 580.322C191.877 559.197 181.075 521.284 203.058 480.221C229.114 431.573 285.002 428.439 312.526 440.527L310.695 437.031C275.817 421.727 221.478 436.404 199.182 478.045C180.515 512.89 183.978 548.049 197.22 572.126C190.624 575.705 173.423 575.194 160.214 563.386C151.292 555.404 150.979 554.118 149.561 564.854C145.059 598.974 167.058 633.061 206.175 633.275C238.497 633.457 260.249 621.649 271.1 604.828C276.575 610.303 283.881 616.784 294.452 624.09C294.897 622.738 295.293 621.369 295.524 620.066C274.052 607.203 257.413 588.255 253.125 562.71H253.158Z" fill="#0E141B"/>
<path d="M477.783 578.789C450.095 631.808 399.302 646.155 352.236 639.46C352.748 641.241 351.791 642.511 351.049 643.583C402.139 651.284 450.738 636.953 480.405 580.174L477.767 578.806L477.783 578.789Z" fill="#0E141B"/>
<path d="M265.724 510.351C255.665 532.597 250.42 568.235 276.229 608.061C277.284 609.677 281.292 611.722 281.292 611.722C252.333 570.774 258.468 535.186 268.693 512.544C284.013 478.655 316.995 455.188 338.78 452.879L338.549 450.752C316.187 453.127 281.358 475.802 265.724 510.367V510.351Z" fill="#0E141B"/>
<path d="M295.177 528.904C286.008 548.347 279.824 579.086 297.272 617.857L299.234 616.983C282.116 578.954 289.24 548.281 298.212 529.233C311.437 501.199 335.366 483.734 353.226 478.853L350.159 476.891C331.837 481.887 308.7 500.226 295.177 528.887V528.904Z" fill="#0E141B"/>
<path d="M532.88 493.778L529.466 485.4L528.246 490.199L530.654 494.85C532.187 498 532.699 500.226 535.75 503.722C536.393 503.128 537.531 502.963 538.157 502.353C535.618 499.352 534.315 496.713 532.88 493.761V493.778Z" fill="#0E141B"/>
<path d="M521.271 514.062C518.879 506.097 515.565 501.067 497.837 491.354L496.6 493.316C512.893 502.254 517.362 509.642 518.912 514.787C519.391 516.371 519.885 518.003 520.759 519.652C521.205 518.498 521.699 517.344 521.963 516.239C521.716 515.53 521.501 514.82 521.271 514.078V514.062Z" fill="#0E141B"/>
<path d="M524.354 420.722C517.89 413.169 502.421 409.607 473.281 408.832C474.304 409.739 478.591 411.669 478.806 411.669C499.832 411.85 515.185 416.154 521.551 422.833C524.09 425.488 525.805 433.321 524.255 448.823C525.426 449.664 526.927 452.27 527.751 453.49C529.417 434.855 528.708 425.785 524.354 420.722Z" fill="#0E141B"/>
<path d="M514.328 487.725C510.436 490.71 507.039 491.37 500.327 489.787L497.903 492.706C505.423 494.47 512.514 493.349 517.082 489.82C518.698 488.583 520.017 487.049 521.139 485.301C520.627 483.652 519.984 481.887 519.753 480.238C518.418 483.322 516.653 485.895 514.311 487.709L514.328 487.725Z" fill="#0E141B"/>
<path d="M628.512 441.369C624.192 439.374 609.63 439.522 605.705 446.712L603.347 451.412C602.852 452.435 602.357 453.441 601.83 454.447C599.01 459.79 593.469 465.924 588.736 469.668C587.054 470.987 585.784 472.752 583.805 470.195C582.667 468.711 582.403 466.32 582.403 464.506C582.403 463.5 582.453 462.379 582.502 461.125L582.535 460.317C582.535 460.202 582.535 460.086 582.535 459.988C582.535 457.811 581.513 455.865 579.55 454.348C578.297 453.375 576.681 452.616 574.9 452.105C574.636 452.979 573.646 453.853 573.152 454.71C574.916 455.106 576.549 455.766 577.72 456.673C579.006 457.679 579.616 458.85 579.55 460.169L579.517 460.977C579.352 464.259 578.956 468.151 580.705 471.119C582.321 473.873 584.547 474.318 586.872 473.642C590.533 472.57 594.442 468.678 596.569 466.584C600.444 462.742 603.281 458.272 605.656 453.391C605.771 453.16 605.87 452.929 605.985 452.698L607.618 449.45C610.57 444.041 623.994 442.556 627.226 444.057C630.755 445.69 637.17 451 636.131 459.476C636.082 459.889 635.983 460.235 635.9 460.631C636.263 462.659 636.642 464.341 636.642 466.023C638.011 464.308 638.836 461.9 639.083 459.839C640.32 449.681 632.685 443.315 628.463 441.369H628.512Z" fill="#0E141B"/>
<path d="M572.723 443.117C563.785 446.218 555.143 457.646 554.236 461.884C553.692 464.44 554.945 465.677 555.737 466.172C561.789 469.998 570.299 464.869 573.152 462.725C576.005 460.581 573.96 460.466 573.96 460.466C575.197 456.327 575.807 452.006 576.747 446.745C577.472 442.672 575.411 442.21 572.723 443.134V443.117ZM557.056 464.077C556.891 463.979 556.578 463.764 556.578 463.072C556.578 462.89 556.611 462.659 556.661 462.395C557.798 457.102 570.497 444.486 574.323 445.36C575.295 445.492 571.882 457.465 571.354 460.895C568.303 462.791 560.816 466.452 557.056 464.077Z" fill="#0E141B"/>
<path d="M620.464 458.371C618.288 459.657 618.848 460.119 620.745 459.954C620.778 460.037 622.592 468.365 623.697 474.483C624.406 478.457 624.966 479.183 629.6 476.132C634.564 472.867 637.994 466.155 637.401 462.774C637.022 460.647 635.504 459.113 632.289 457.992C628.199 456.557 623.565 456.557 620.464 458.371ZM631.695 459.971C633.954 460.762 635.372 461.867 635.57 463.038C636.279 467.144 628.133 476.94 625.89 476.445C625.197 476.165 623.136 462.263 622.443 459.492C624.027 458.816 628.001 458.701 631.695 459.987V459.971Z" fill="#0E141B"/>
<path d="M631.398 514.721C629.931 515.628 631.035 516.024 631.035 516.024C631.052 516.09 632.14 524.236 631.728 529.728C631.398 534.148 632.602 534.527 636.626 532.053C649.621 524.039 647.757 516.288 643.948 513.979C640.287 511.753 635.34 512.264 631.398 514.721ZM642.662 516.09C644.789 517.376 645.02 518.333 644.492 520.526C643.305 525.49 634.35 532.103 633.377 531.575C632.602 531.08 634.35 523.346 633.625 516.255C635.999 514.705 640.106 514.54 642.645 516.09H642.662Z" fill="#0E141B"/>
<path d="M520.446 553.425C529.928 561.605 537.102 568.432 542.132 570.18C542.907 570.444 543.319 570.906 543.5 571.664C544.374 575.474 539.031 583.769 537.564 585.237C536.145 586.655 520.314 592.146 513.124 588.683C505.439 584.973 484.71 577.7 476.217 576.496C471.385 575.804 468.169 574.303 466.635 572.011L464.162 573.66C466.174 576.678 469.406 579.085 475.112 579.893C483.209 581.048 504.466 587.826 511.821 591.371C520.099 595.362 537.019 589.986 539.641 587.347C541.39 585.599 547.607 576.397 546.386 571.005C545.974 569.24 544.853 567.987 543.105 567.377C538.635 565.826 530.918 559.972 522.425 551.232C502.668 530.898 491.735 527.963 482.599 527.963V530.931C490.448 530.931 499.222 535.136 520.446 553.442V553.425Z" fill="#0E141B"/>
<path d="M347.866 472.125C344.618 467.474 343.249 458.124 341.567 451.511C340.676 447.998 335.35 447.487 336.273 449.499C339.209 455.963 341.385 470.063 344.947 475.159C347.899 479.364 353.325 483.916 359.163 487.758C359.724 486.637 360.086 485.499 360.152 484.081C355.073 480.222 350.439 475.819 347.866 472.141V472.125Z" fill="#0E141B"/>
<path d="M392.722 505.981C389.655 502.403 386.225 498.412 378.771 494.586C378.655 495.526 379.068 496.928 379.035 498.082C384.856 501.347 387.709 504.679 390.479 507.911C393.514 511.456 397.158 514.095 403.903 517.228C404.414 516.371 404.596 516.552 404.893 515.645C398.593 512.776 395.724 509.477 392.739 505.998L392.722 505.981Z" fill="#0E141B"/>
<path d="M504.202 444.518C503.971 443.578 500.607 439.273 500.607 439.273C507.863 467.407 509.991 473.971 504.961 481.276C499.816 488.763 480.966 507.233 478.328 510.977C478.641 511.884 478.806 512.082 479.185 512.873C482.434 507.563 504.812 486.52 507.253 482.678C510.947 476.873 511.541 465.511 504.186 444.501L504.202 444.518Z" fill="#0E141B"/>
<path d="M387.33 405.401L384.229 404.807C384.609 407.05 384.922 410.233 384.955 412.245C385.318 434.03 357.134 453.258 354.364 451.873C352.171 450.785 347.998 449.894 341.699 448.608C336.471 447.536 329.974 446.2 321.81 443.924C304.891 439.191 295.672 400.272 294.847 385.579C294.847 385.381 294.847 385.183 294.847 384.985C294.847 380.615 297.552 376.327 301.642 372.402C301.015 371.594 300.174 370.984 299.646 370.061C294.584 374.678 289.57 380.763 289.917 386.832C290.576 398.673 301.147 441.203 321.019 446.777C329.281 449.086 335.828 450.438 341.105 451.51C347.669 452.862 350.175 453.473 352.731 454.396C352.253 455.056 352.171 455.501 352.385 455.765C353.919 457.645 392.392 435.646 387.346 405.401H387.33Z" fill="#0E141B"/>
<path d="M322.932 359.26C329 356.737 343.711 362.806 353.44 366.83C356.87 368.248 359.822 369.468 361.768 370.046L363.5 366.137C361.702 365.593 358.635 365.329 355.271 363.944C344.486 359.475 329 353.505 321.794 356.506C321.052 356.82 319.881 357.331 318.43 358.007C318.957 358.733 319.469 359.607 319.996 360.53C320.986 360.085 321.959 359.64 322.932 359.244V359.26Z" fill="#0E141B"/>
<path d="M305.979 392.737C305.468 391.501 305.699 389.967 306.672 388.219C307.331 387.015 308.321 385.762 309.492 384.508C308.618 383.75 308.024 382.892 307.694 381.82C306.127 383.337 304.841 384.855 304.017 386.355C302.78 388.582 302.516 390.824 303.241 392.54L307.331 399.779C310.168 405.864 309.805 414.159 309.689 416.023C309.574 417.886 310.118 418.76 311.223 416.204C312.312 413.648 313.054 405.683 309.953 399.054L305.979 392.737Z" fill="#0E141B"/>
<path d="M347.718 375.915C343.183 372.93 339.687 365.295 333.684 366.499C332.694 366.697 330.303 367.587 327.285 369.038C327.731 369.648 327.945 370.506 328.225 371.281C331.045 369.813 333.272 368.873 334.195 368.708C336.735 368.28 337.642 369.368 340.462 371.825C341.962 373.145 343.842 375.371 347.091 377.07C350.323 378.768 350.934 378.042 347.701 375.915H347.718Z" fill="#0E141B"/>
<path d="M303.918 336.37C306.424 338.035 307.777 340.839 308.914 344.12C309.525 345.918 310.234 347.946 311.289 350.057C314.604 356.687 329.825 375.305 329.974 375.503C331.012 376.773 330.617 378.372 330.122 379.51C328.539 383.056 323.443 386.964 318.413 387.146C314.802 387.278 311.998 385.513 310.052 381.918C304.99 372.551 297.915 363.662 291.566 358.732L288.944 356.736C283.155 352.366 276.575 347.402 278.125 343.263L275.338 342.224C273.013 348.441 278.686 353.553 287.146 359.094L289.735 361.073C295.689 365.691 302.631 374.431 307.43 383.336C309.887 387.871 314.934 390.263 319.617 390.098C326.032 389.867 330.815 385.15 332.794 380.731C333.997 378.043 333.799 375.52 332.233 373.623C329.264 370.028 316.682 354.279 313.911 348.738C312.938 346.808 312.312 344.945 311.685 343.164C310.481 339.651 308.865 335.314 305.534 333.088L303.885 336.386L303.918 336.37Z" fill="#0E141B"/>
<path d="M302.137 336.387C302.45 338.118 299.58 344.121 294.666 346.743C290.609 348.903 286.866 348.392 282.908 344.599L281.292 345.424C287.014 350.915 292.588 350.553 295.886 348.788C301.164 345.968 304.264 338.86 303.769 336.09L302.153 336.37L302.137 336.387Z" fill="#0E141B"/>
<path d="M265.328 290.393C263.234 306.785 263.564 328.306 271.579 340.097C279.808 352.201 290.362 345.902 298.063 341.301L300.9 339.635C309.442 334.787 308.123 323.161 307.067 313.81L306.738 310.825C305.847 301.903 313.285 275.732 317.952 266.167L321.184 259.802C324.812 252.809 327.434 247.747 326.395 243.805L323.526 244.564C324.268 247.4 321.744 252.282 318.545 258.433L315.28 264.864C310.366 274.941 302.829 301.59 303.769 311.122L304.099 314.14C305.055 322.616 306.259 333.171 299.416 337.046L296.53 338.745C288.366 343.61 280.665 348.227 274.019 338.431C268.181 329.839 266.532 312.738 269.402 290.294C269.402 290.294 276.41 247.235 276.41 246.543L273.162 243.459C273.129 244.251 265.312 290.393 265.312 290.393H265.328Z" fill="#0E141B"/>
<path d="M385.812 197.168C389.721 197.663 404.167 200.483 404.167 202.099C404.167 203.154 395.212 205.249 387.429 207.871L385.895 211.713C389.045 210.658 403.639 205.991 406.558 203.979C409.477 201.967 409.378 201.373 405.734 199.823C400.275 197.481 386.307 194.727 386.109 194.711L385.796 197.168H385.812Z" fill="#0E141B"/>
<path d="M353.11 222.647C358.569 220.306 382.728 217.815 385.614 216.1C387.94 214.715 389.078 212.126 389.82 209.158C391.221 203.468 388.649 196.839 386.785 193.771C383.586 188.527 370.822 189.682 365.396 192.271C360.433 194.645 354.859 197.317 351.082 195.717L349.928 198.455C354.941 200.566 361.158 197.597 366.633 194.959C371.861 192.469 382.366 192.221 384.246 195.305C385.878 197.96 387.511 204.095 386.373 208.712C385.829 210.889 384.74 212.472 383.124 213.445C380.783 214.847 374.104 215.688 368.216 216.447C362.428 217.189 354.314 218.805 351.033 220.042C343.776 222.796 336.042 232.426 331.639 238.677C328.621 242.964 325.554 243.311 320.491 243.871L315.445 244.564C312.147 245.141 309.343 247.12 306.638 249.017C302.334 252.051 298.261 254.904 292.027 252.958L289.422 252.166C280.022 249.33 275.322 247.895 270.028 233.465L267.241 234.488C269.204 248.093 276.559 252.595 286.239 255.531L288.828 256.322C296.463 258.713 303.868 254.607 308.354 251.457C310.91 249.66 313.317 247.961 315.972 247.499L320.837 246.84C326.131 246.246 332.233 245.982 336.009 240.606C336.009 240.606 344.024 226.539 353.11 222.647Z" fill="#0E141B"/>
<path d="M287.278 223.966C268.049 232.756 251.987 240.012 245.935 241.925C242.422 243.03 237.871 243.59 236.221 239.929C235.826 239.055 235.644 238.016 235.644 236.862C235.644 232.36 238.53 226.275 243.362 223.372C249.926 219.431 258.633 217.221 268.709 214.665C273.162 213.527 278.109 212.257 283.32 210.74C282.891 209.899 282.43 209.058 281.951 208.217C277.004 209.652 272.288 210.855 268.016 211.944C257.726 214.566 247.584 216.545 240.658 220.701C235.248 223.949 231.884 231.997 231.884 237.719C231.884 239.27 232.148 240.721 232.725 242.007C233.632 244.019 236.287 248.076 245.407 245.206C251.459 243.293 268.082 235.823 287.064 227.165C287.212 226.11 287.278 225.054 287.261 223.999L287.278 223.966Z" fill="#0E141B"/>
<path d="M311.405 212.967C311.487 213.99 311.487 215.029 311.372 216.068C315.956 213.973 320.607 211.879 325.224 209.801C325.257 208.746 325.34 207.674 325.439 206.635C320.755 208.729 316.055 210.856 311.405 212.967Z" fill="#0E141B"/>
<path d="M471.896 141.279C459.726 125.86 425.721 127.789 405.717 137.898C393.019 144.313 387.956 156.17 386.192 159.93C384.427 163.69 384.163 168.737 380.239 171.243C376.314 173.734 366.304 177.213 348.493 184.156C348.955 185.013 349.334 185.887 349.615 186.762C368.315 179.489 375.951 176.24 380.585 173.734C385.219 171.243 385.615 169.264 388.105 164.729C390.578 160.178 396.581 146.358 408.405 140.388C429.844 129.554 457.648 131.434 467.889 144.412C470.395 147.595 470.973 152.196 469.472 157.045C467.823 162.371 460.93 175.696 432.383 184.634C418.597 188.955 411.225 186.415 404.101 183.975C398.478 182.045 393.168 180.215 385.598 182.309C377.402 184.585 364.572 189.631 349.944 195.881C349.763 197.002 349.318 198.767 349.054 199.872C364.308 193.325 377.946 187.339 386.357 185.013C393.085 183.15 396.598 186.003 402.023 187.883C409.23 190.357 419.009 192.764 433.686 188.163C462.43 179.159 471.847 163.394 474.057 156.269C475.838 150.514 475.013 145.204 471.913 141.295L471.896 141.279Z" fill="#0E141B"/>
<path d="M307.991 199.395C308.205 200.285 308.453 201.176 308.717 202.05C313.746 200.236 319.287 198.207 325.026 196.08C324.729 195.222 324.301 194.398 323.756 193.59C318.281 195.635 312.938 197.597 307.991 199.395Z" fill="#0E141B"/>
<path d="M311.454 171.031C306.886 173.933 305.699 183.02 304.528 188.281L306.226 191.859C306.226 191.859 309.64 176.605 313.351 174.247C318.051 171.262 327.253 166.974 331.986 169.86C337.889 173.455 350.291 186.252 350.159 188.693C349.928 192.139 347.207 206.833 344.634 210.263C343.018 212.423 335.91 215.771 331.177 214.699C328.819 214.155 327.418 212.654 326.906 210.082C325.026 200.649 328.11 197.581 328.143 197.549C328.143 197.549 329.809 196.757 327.929 195.553C326.049 194.349 321.118 191.249 319.469 188.495C317.82 185.741 317.638 189.402 318.38 191.051C319.106 192.7 323.476 195.685 325.538 196.971C324.779 198.258 322.619 201.605 322.833 205.448C323.196 211.863 324.614 216.86 330.683 217.932C336.389 218.937 345.525 215.26 347.801 212.226C350.851 208.152 352.929 191.612 353.144 188.346C353.457 183.63 336.718 169.514 332.464 166.925C325.505 162.686 313.812 169.53 311.487 170.998L311.454 171.031Z" fill="#0E141B"/>
<path d="M273.937 182.656C268.396 186.614 265.642 213.462 265.642 213.462L268.824 212.835C268.824 212.835 272.304 188.263 277.004 184.899C285.662 178.715 292.093 178.649 296.793 182.854C303.225 188.593 310.497 206.354 310.3 209.553C310.069 213.346 307.265 224.824 304.709 228.65C302.367 232.163 300.405 234.57 293.479 231.915C286.552 229.26 288.564 221.592 288.564 221.592C288.564 221.592 291.071 221.163 289.455 218.36C287.839 215.556 282.413 208.333 281.654 204.441C280.896 200.566 278.917 204.474 279.61 206.964C282.463 217.073 285.959 216.925 287.014 219.052C286.041 222.202 285.563 224.676 285.563 226.539C285.563 230.975 287.69 233.96 293.907 235.774C300.125 237.588 305.187 234.884 308.172 230.431C311.19 225.913 313.185 213.973 313.416 210.246C313.68 206.107 304.66 185.509 297.832 179.424C290.411 172.795 280.005 178.303 273.937 182.64V182.656Z" fill="#0E141B"/>
<path d="M390.71 496.58C389.391 496.184 388.748 495.294 387.742 492.177C386.753 489.06 385.895 490.61 386.472 493.315C387.033 496.02 388.039 497.817 390.15 498.444C393.069 499.318 406.657 494.865 417.08 487.527C419.388 485.894 420.46 484.459 416.667 486.537C412.874 488.615 394.207 497.619 390.71 496.564V496.58Z" fill="#0E141B"/>
<path d="M450.359 475.489C446.797 476.709 447.555 476.956 450.474 476.396C465.3 473.543 489.459 472.388 494.786 481.03C495.825 482.712 496.6 484.048 495.792 481.063C492.065 467.194 453.921 474.268 450.359 475.489Z" fill="#0E141B"/>
<path d="M482.665 519.487C480.554 504.677 468.449 502.072 454.613 498.279C454.613 498.279 459.857 497.289 458.01 496.58C456.163 495.871 453.723 496.399 447.934 497.57C434.032 500.406 404.761 511.917 403.507 512.478C403.507 512.478 402.221 513.187 402.518 513.616C402.798 514.044 403.656 514.176 403.656 514.176C403.54 514.341 402.518 515.875 402.518 520.146L404.398 520.806C404.398 517.936 406.162 515.067 406.657 514.325C410.269 512.742 437.331 500.951 449.913 499.334C450.458 499.483 453.987 500.472 453.987 500.472C467.344 504.15 477.899 507.036 479.746 519.932C480.686 526.512 481.18 534.444 481.18 541.783C481.18 552.502 478.938 561.539 476.777 563.699C473.496 566.981 463.848 573.891 452.436 579.069C452.189 580.586 451.562 581.79 450.787 583.142C464.244 577.832 476.827 569.768 480.653 565.958C485.979 560.615 484.627 532.976 482.698 519.519L482.665 519.487Z" fill="#0E141B"/>
<path d="M449.765 572.852C447.539 573.512 441.668 576.084 435.088 579.135C429.052 581.939 421.813 584.627 417.211 584.627C411.192 584.627 404.217 579.745 400.242 574.633L397.9 576.464C401.116 583.34 408.339 586.309 415.068 587.974C416.997 591.965 422.835 602.635 431.097 602.635C436.753 602.635 443.845 594.785 448 589.013C451.661 583.934 453.64 579.152 454.102 574.93C454.58 570.708 451.991 572.209 449.765 572.869V572.852ZM445.609 587.513C440.843 594.126 435.253 598.397 431.361 598.397C424.731 598.397 419.982 591.372 417.987 587.925C427.848 586.309 432.862 582.879 439.804 579.811C443.465 578.195 447.258 576.546 451.15 575.078C451.117 577.964 449.023 582.763 445.593 587.513H445.609Z" fill="#0E141B"/>
<path d="M427.222 536.012C426.71 537.348 426.034 538.915 426.067 540.366C426.1 542.18 430.85 550.508 430.784 551.349C430.256 557.714 424.979 563.833 425.457 565.581C426.067 567.906 431.064 567.708 432.845 567.312C435.451 566.752 438.914 554.532 439.508 551.596C440.299 547.655 435.797 540.712 435.649 539.937C435.533 539.145 436.209 537.15 436.523 536.474C437.232 534.94 441.206 527.948 442.344 526.167C442.855 525.392 445.461 522.819 443.746 522.16C441.932 521.467 437.99 519.686 436.671 520.675C433.703 522.902 428.854 531.724 427.222 535.996V536.012ZM432.746 551.514C432.746 551.514 432.746 551.365 432.746 551.283C432.746 549.865 431.674 547.985 430.437 545.808C429.316 543.845 428.063 541.636 428.03 540.316V540.283C428.03 537.48 434.247 524.798 437.743 522.11C438.436 522.308 440.085 522.902 441.866 523.578C439.277 527.453 433.719 536.111 433.719 539.03C433.719 539.145 433.719 539.244 433.752 539.343C433.95 540.366 434.56 541.652 435.269 543.153C436.341 545.396 437.628 548.117 437.628 550.376C437.628 550.673 437.595 550.97 437.562 551.25C436.787 555.571 433.901 563.734 432.35 565.35C430.371 565.581 428.623 565.201 427.601 564.872C428.953 562.365 432.383 555.653 432.763 551.497L432.746 551.514Z" fill="#0E141B"/>
<path d="M454.811 518.546C452.865 519.668 445.84 530.519 445.115 534.774C445.065 535.07 445.016 535.384 445.016 535.697C445.049 537.412 449.468 545.229 449.402 545.988C449.023 550.275 444.455 558.488 444.323 558.719C443.119 560.879 448.891 561.044 449.897 561.06C453.558 561.126 453.805 558.191 454.811 555.354C455.718 552.815 457.186 548.89 457.631 546.235C458.242 542.623 454.003 535.615 453.871 534.905C453.591 533.091 459.132 525.093 460.204 523.576C460.781 522.752 462.876 520.822 461.127 520.146C459.412 519.47 455.52 518.118 454.795 518.53L454.811 518.546ZM451.365 546.185C451.365 546.185 451.365 546.037 451.365 545.971C451.365 544.619 450.359 542.854 449.204 540.809C448.165 538.979 446.995 536.901 446.978 535.681V535.648C446.978 533.174 452.305 522.752 455.553 520.245C456.197 520.443 457.648 520.954 459.214 521.564C456.84 524.862 452.107 531.789 452.107 534.46C452.107 534.576 452.107 534.675 452.14 534.774C452.321 535.747 452.882 536.95 453.558 538.369C454.547 540.463 455.751 543.019 455.751 545.113C455.751 545.394 455.735 545.674 455.685 545.938C454.976 549.978 452.321 557.581 450.886 559.131C449.122 559.329 447.555 558.999 446.599 558.702C447.869 556.294 451.018 550.061 451.365 546.185Z" fill="#0E141B"/>
<path d="M471.088 518.086C470.033 518.301 467.229 522.259 466.19 524.122C464.821 526.546 462.859 529.828 462.908 532.714C462.941 534.33 466.883 541.685 466.817 542.394C466.619 545.165 465.3 547.952 464.178 550.458C463.667 551.596 461.77 554.565 462.249 555.29C462.727 556.016 468.219 556.956 469.142 556.197C470.066 555.455 471.401 552.421 472.028 550.623C472.886 548.117 473.974 545.247 474.403 542.625C474.848 539.937 470.841 532.681 470.725 532.005C470.544 530.916 475.062 524.139 476.349 522.325C477.305 520.989 478.097 520.296 476.299 519.257C475.227 518.631 472.143 517.839 471.088 518.053V518.086ZM468.779 542.576C468.779 542.576 468.779 542.444 468.779 542.361C468.779 541.092 467.872 539.409 466.85 537.496C465.926 535.781 464.887 533.819 464.871 532.681V532.648C464.871 530.356 469.093 521.879 472.011 519.505C472.605 519.703 473.809 520.148 475.112 520.675C473.083 523.479 469.257 529.086 469.257 531.51C469.257 531.626 469.257 531.725 469.29 531.824C469.455 532.731 469.967 533.885 470.56 535.204C471.434 537.183 472.506 539.574 472.506 541.553C472.506 541.817 472.49 542.081 472.44 542.312C471.814 546.088 469.455 553.179 468.186 554.68C466.701 554.845 465.382 554.581 464.541 554.317C465.695 552.025 468.482 546.187 468.796 542.576H468.779Z" fill="#0E141B"/>
<path d="M355.353 535.978C349.021 538.221 342.836 540.084 339.868 541.651C332.942 545.345 332.843 556.988 332.562 566.058L335.531 566.157C335.745 559.379 336.982 547.522 342.952 544.339C345.722 542.871 351.346 540.859 357.316 538.748C359.492 537.973 361.735 537.165 363.962 536.357C363.731 535.269 363.599 534.197 363.549 533.125C360.762 534.114 357.959 535.087 355.353 536.011V535.978Z" fill="#0E141B"/>
<path d="M405.882 520.196C398.692 513.204 391.288 518.3 384.13 523.231L378.573 526.859C376.099 528.31 372.438 529.827 368.414 531.328C368.398 532.614 368.315 533.686 368.035 534.824C372.702 533.043 377.039 531.196 380.074 529.431L385.813 525.688C393.596 520.328 398.643 517.294 403.821 522.34C411.407 529.712 414.161 535.385 410.516 549.534L408.636 557.334C406.591 566.207 405.833 569.521 400.473 573.083C397.142 575.31 393.943 577.091 390.562 578.971C386.621 581.164 382.151 583.671 376.726 587.282L372.768 590.515C369.124 593.714 364.127 598.084 360.466 597.738C359.328 597.639 358.371 597.062 357.514 595.973L356.689 598.381C358.058 600.112 358.487 601.481 360.449 601.663C365.38 602.124 368.777 599.502 373.048 595.759L376.693 592.757C382.02 589.195 387.923 583.819 392.013 581.543C395.443 579.63 398.692 577.816 402.122 575.524C408.455 571.302 409.477 566.85 411.539 557.961L413.402 550.243C417.36 534.857 413.979 528.03 405.899 520.18L405.882 520.196Z" fill="#0E141B"/>
<path d="M387.511 724.456C392.805 731.729 392.557 745.746 389.292 746.983C387.709 747.577 374.846 737.336 374.483 737.171L371.35 739.496C371.35 739.496 378.903 743.85 383.998 747.362C389.803 751.37 392.755 751.287 394.206 743.652C395.905 734.763 393.299 727.045 389.407 721.686L387.511 724.44V724.456Z" fill="#0E141B"/>
<path d="M240.955 696.585C262.294 699.009 262.08 696.749 265.84 693.237C272.881 695.348 280.863 698.629 284.392 699.817C287.921 700.988 292.143 702.159 286.503 698.168C280.863 694.177 256.802 687.218 250.816 685.733C247.749 684.958 245.325 681.726 245.077 675.377C243.807 675.723 242.455 676.35 241.185 676.779C241.185 677.158 242.505 686.871 247.073 688.026C251.228 689.065 258.303 691.077 262.228 692.198C259.557 693.501 253.702 695.051 241.301 693.649C232.824 692.693 208.302 685.915 204.773 710.8C204.74 711.031 207.445 710.684 208.648 709.695C211.666 696.222 223.771 694.655 240.971 696.601L240.955 696.585Z" fill="#0E141B"/>
<path d="M383.669 705.985C374.763 700.362 359.493 694.705 356.92 693.7C352.929 688.06 348.46 675.675 347.058 668.584C343.183 648.827 359.559 638.322 361.521 614.41C362.032 608.061 357.332 596.468 357.332 591.504C357.332 591.257 358.998 580.504 358.998 577.866C358.998 573.595 357.959 569.159 353.16 567.18C345.327 563.947 330.864 560.93 324.845 565.745C322.536 567.592 321.761 573.413 320.194 579.268C318.759 584.66 317.127 590.762 314.455 594.885C313.021 597.095 310.778 599.568 308.42 602.174C302.005 609.232 292.918 616.307 292.918 628.164C292.918 628.708 292.918 629.236 292.967 629.796C293.693 641.72 295.177 655.16 295.293 660.767C290.527 656.611 278.554 647.145 270.556 646.749C265.691 646.502 254.84 647.656 247.666 652.472C249.019 652.95 253.125 653.775 254.213 654.484C260.233 650.938 267.818 650.691 271.958 650.905C281.325 651.367 306.325 675.427 313.317 679.402C320.31 683.376 320.771 681.974 314.67 676.582C308.568 671.189 298.706 663.438 298.706 663.438C298.706 663.273 298.096 647.673 297.107 631.264C296.414 619.819 304.297 611.145 310.613 604.186C313.07 601.481 315.379 598.942 316.945 596.517C319.864 591.999 321.563 585.65 323.064 580.059C324.317 575.359 325.62 570.511 327.17 569.258C331.573 565.728 343.447 567.048 351.791 570.478C356.953 572.605 356.425 577.981 355.139 585.336L354.38 590.597C354.166 593.582 354.99 596.056 355.93 598.942C357.349 603.229 359.526 608.622 357.909 618.137C355.634 631.462 342.754 646.403 343.331 663.57C343.793 677.324 349.631 689.296 351.742 692.347C345.871 693.518 354.05 695.893 358.173 697.756C362.296 699.62 371.366 702.588 380.684 708.459C387.198 712.582 388.731 717.43 385.318 727.325C382.514 735.422 370.723 739.71 362.461 738.654C355.518 737.764 346.333 731.382 339.637 726.715C335.877 724.093 332.909 722.031 330.831 721.19C324.96 718.799 315.033 719.145 304.544 719.525L293.611 719.788C280.187 719.788 245.786 726.434 229.905 731.398C222.616 733.674 215.921 731.299 212.078 728.05C211.947 727.935 210.034 729.452 208.995 730.211C211.996 733.971 218.395 738.72 227.811 735.768C243.511 730.854 280.434 722.74 293.611 722.74L304.643 722.476C314.356 722.13 325.339 722.345 330.617 724.505C332.381 725.231 336.075 728.43 339.538 730.837C346.877 735.95 355.568 741.359 363.253 742.332C372.85 743.569 385.252 739.281 390.413 728.265C391.634 725.676 392.079 722.707 392.079 719.854C392.079 715.039 390.38 710.273 383.652 706.035L383.669 705.985Z" fill="#0E141B"/>
<path d="M240.724 653.56C235.809 655.638 225.37 663.306 223.87 676.977C223.177 683.293 224.892 683.673 232.511 680.605C237.409 678.627 243.692 676.598 250.107 676.103C252.894 675.889 257.231 669.457 258.715 663.982C259.936 659.464 258.963 655.819 255.961 653.741C253.306 651.894 246.875 650.971 240.724 653.576V653.56ZM242.752 656.232C247.716 654.137 252.399 654.467 254.444 655.902C255.879 656.891 256.588 658.392 256.588 660.371C256.588 661.08 256.506 661.839 256.308 662.68C255.137 667.94 250.915 672.855 249.695 673.069C242.867 673.597 227.217 681.018 226.31 680.094C225.321 679.138 227.778 662.581 242.735 656.248L242.752 656.232Z" fill="#0E141B"/>
<path d="M207.379 707.782C200.848 712.054 194.746 719.953 194.235 731.909C193.971 738.176 194.796 739.116 200.106 735.834C208.45 730.689 215.542 727.423 221.61 725.477C223.639 724.818 224.447 721.899 224.513 719.392C224.645 714.907 222.732 708.854 216.861 706.562C214.107 705.49 210.825 705.523 207.362 707.799L207.379 707.782ZM201.244 716.968C204.954 710.949 211.947 707.486 215.904 709.019C220.308 710.734 221.874 715.434 221.874 718.947C221.874 718.947 221.874 718.98 221.874 718.996C221.874 721.536 221.116 722.839 220.786 722.954C212.26 725.312 198.242 735.108 196.94 734.663C196.082 734.234 196.824 724.109 201.227 716.951L201.244 716.968Z" fill="#0E141B"/>
<path d="M483.588 352.316C491.949 323.011 503.839 285.263 502.421 284.142C499.815 282.08 487.233 289.04 453.492 317.091C449.567 315.392 432.795 308.235 413.369 313.545C374.747 291.282 326.494 263.495 323.08 268.327C321.085 271.163 342.655 322.154 365.891 355.829C357.134 372.633 353.358 386.931 353.358 395.21C353.358 397.914 353.737 399.58 354.71 401.262C356.013 403.554 357.365 403.488 360.103 403.62C366.353 403.917 413.567 407.759 423 410.893C423.874 411.189 425.259 412.921 426.034 413.713C426.892 413.416 426.562 413.119 427.238 412.08C425.919 410.761 424.649 409.87 423.462 409.491C413.583 406.193 366.897 401.476 360.399 401.163C358.684 401.08 357.464 400.355 356.673 398.953C356.178 398.079 355.634 396.496 355.634 393.808C355.634 389.833 361.224 368.049 368.563 355.482C372.405 348.902 374.318 346.396 372.487 347.319C370.657 348.243 367.919 352.992 367.919 352.992C353.49 332.51 324.07 271.625 325.521 270.306C326.692 269.151 360.977 287.638 410.384 314.716C410.384 314.716 407.762 316.267 407.036 317.536C406.311 318.823 407.185 318.922 410.137 317.718C428.227 310.412 449.682 318.212 453.113 320.158C456.559 322.104 458.934 324.116 458.934 323.028C458.934 321.939 455.982 319.037 455.982 319.037C473.842 304.541 499.683 284.109 500.228 286.302C500.772 288.495 481.725 348.836 481.56 349.43C481.56 349.43 478.872 345.538 477.404 344.071C475.936 342.603 475.573 343.477 477.305 346.28C493.021 371.71 501.827 388.415 501.827 393.544C501.827 393.775 501.794 393.973 501.728 394.121C500.574 395.721 494.505 397.931 489.129 399.876C478.575 403.702 471.566 406.522 470.544 410.53C470.313 411.997 471.121 434.392 471.121 438.169C471.121 442.704 470.775 446.563 469.587 448.129C465.464 453.621 460.418 457.612 457.582 457.612C454.745 457.612 442.08 448.525 440.48 445.705C440.118 445.079 439.161 442.457 438.666 439.587C437.331 431.704 435.203 425.273 432.812 420.391C431.724 421.199 431.905 420.853 430.948 421.595C435.137 430.896 435.269 432.925 436.209 438.697C436.836 442.638 437.941 445.804 438.485 446.728C440.447 450.158 452.535 459.607 456.823 459.607C461.54 459.607 467.278 455.254 470.972 450.339C472.622 448.129 473.347 443.413 473.347 438.169C473.347 434.491 471.83 412.096 472.011 410.876C472.704 408.221 483.159 404.247 489.904 401.789C497.573 399.002 503.823 397.155 504.433 394.682C506.214 387.541 491.982 365.427 483.638 352.333L483.588 352.316Z" fill="#0E141B"/>
<path d="M348.691 300.008C350.703 302.02 389.869 332.462 388.566 335.282C385.895 341.071 384.196 343.577 382.712 346.101C381.228 348.624 381.871 349.316 383.998 346.744C386.472 343.759 388.006 341.368 390.727 335.464C392.92 330.714 353.902 302.828 350.703 300.371C347.504 297.914 346.679 297.996 348.691 300.008Z" fill="#0E141B"/>
<path d="M472.869 337.393C473.199 340.279 474.337 339.982 474.304 337.624C474.221 333.732 478.295 325.552 485.831 316.944C488.882 313.448 489.294 312.541 484.875 316.202C480.471 319.863 472.325 332.577 472.869 337.393Z" fill="#0E141B"/>
<path d="M400.753 381.11L403.112 382.297C402.287 377.35 403.441 369.269 405.371 364.949L403.557 364.141C401.66 368.395 399.797 375.388 400.753 381.11Z" fill="#0E141B"/>
<path d="M465.036 393.94C465.3 388.778 470.28 376.558 476.992 370.176C478.905 368.362 480.274 367.438 477.619 370.588C472.869 376.228 468.713 385.199 467.345 391.878C470.148 389.932 475.607 386.205 480.043 382.726C479.812 379.46 476.975 373.672 475.739 372.435C475.607 372.303 475.821 371.248 476.349 371.611C477.981 372.699 480.455 377.069 481.527 381.901C482.681 381.208 483.852 381.291 481.263 383.237C478.641 385.216 466.635 394.748 466.553 394.814C465.91 397.122 464.261 429.692 463.848 429.692C463.436 429.692 464.739 399.266 465.019 393.907L465.036 393.94Z" fill="#0E141B"/>
<path d="M397.917 380.747C405.849 384.622 431.361 393.94 436.374 394.896C438.485 395.308 440.563 394.698 437.347 393.775C431.922 392.224 413.715 386.106 398.461 379.922C395.542 378.735 394.998 379.328 397.917 380.747Z" fill="#0E141B"/>
<path d="M453.212 437.18C450.969 425.092 445.016 402.317 440.728 395.045C431.46 379.362 416.09 366.515 396.746 359.721C393.646 358.633 394.685 360.199 396.433 360.925C414.425 368.56 428.343 379.56 438.699 395.919C442.13 401.345 446.318 416.022 452.305 437.345C453.08 440.082 454.119 442.012 453.212 437.147V437.18Z" fill="#0E141B"/>
<path d="M452.733 447.602C452.288 448.41 452.519 448.954 453.574 448.74C454.63 448.509 455.273 446.992 456.263 445.838C457.252 444.683 457.021 444.304 455.735 444.634C454.465 444.947 453.179 446.794 452.717 447.619L452.733 447.602Z" fill="#0E141B"/>
<path d="M463.469 444.864C463.898 446.349 464.64 447.322 465.3 447.882C465.943 448.443 466.322 448.476 466.289 447.371C466.256 446.266 465.25 444.782 464.459 444.188C463.684 443.595 463.024 443.397 463.453 444.881L463.469 444.864Z" fill="#0E141B"/>
<path d="M444.587 337.657C443.729 338.927 440.893 344.765 440.563 345.738C438.403 346.15 432.581 347.7 431.295 348.244C429.58 348.986 429.168 349.217 430.833 350.635C431.476 351.18 437.545 355.929 438.122 356.556C438.089 357.314 436.754 366.978 437.578 367.291C438.419 367.621 447.456 360.233 448.33 359.607C449.287 360.085 459.066 365.824 459.808 365.345C460.534 364.867 456.889 354.626 456.625 353.703C457.203 353.043 461.012 349.646 460.864 348.937C460.715 348.244 452.173 345.556 451.629 345.342C451.299 344.847 448.116 339.504 447.11 337.987C446.104 336.469 445.411 336.371 444.57 337.64L444.587 337.657ZM441.998 347.222C442.492 346.612 445.263 340.691 445.824 340.196C446.384 339.702 450.342 346.974 450.342 346.974C450.342 346.974 457.895 349.382 457.516 349.761C457.137 350.141 454.465 353.191 454.465 353.191C454.465 353.191 457.45 361.454 456.757 361.602C456.065 361.75 448.182 357.314 448.182 357.314C448.182 357.314 440.398 363.037 439.788 363.301C439.178 363.581 440.167 355.847 440.167 355.847L439.92 355.55C439.837 355.451 434.643 351.031 433.736 350.256C432.829 349.481 441.519 347.815 442.014 347.205L441.998 347.222Z" fill="#0E141B"/>
<path d="M353.721 505.536C352.863 511.341 353.061 513.485 357.151 507.185C359.493 504.019 361.208 502.024 362.609 500.342C361.158 510.203 360.993 527.799 363.203 534.808C365.957 543.548 366.881 541.388 368.035 534.808C373.84 501.826 401.182 439.819 437.693 417.441C440.085 415.973 440.035 414.802 437.149 416.369C400.671 436.241 367.672 503.178 365.677 536.985C363.22 528.294 363.417 511.902 365.545 496.73C366.732 488.188 363.582 495.708 363.582 495.708C363.384 495.905 359.723 499.731 356.013 505.355C365.38 448.345 429.2 412.032 435.005 409.393C437.397 408.305 437.034 406.919 434.494 408.156C394.602 427.599 359.905 463.599 353.721 505.52V505.536Z" fill="#0E141B"/>
<path d="M472.539 409.705C500.096 419.468 533.688 450.735 534.991 482.992C532.517 475.67 530.357 471.25 528.675 468.15C524.684 461.075 524.107 461.537 526.498 468.298C527.686 471.646 528.395 477.418 528.263 479.743C527.966 484.542 527.438 490.924 525.047 498.576C523.266 481.887 513.305 435.299 471.187 415.18L471.913 417.176C509.826 435.283 520.446 478.885 523.035 496.877C523.975 503.358 524.288 503.886 526.746 498.394C530.176 490.693 530.819 482.217 530.44 476.692C531.841 479.809 533.392 483.486 534.2 485.977C535.008 488.467 536.063 489.308 536.442 485.713C539.889 453.324 507.088 421.661 473.298 408.848L472.556 409.722L472.539 409.705Z" fill="#0E141B"/>
<path d="M417.014 382.264C417.014 385.909 415.975 387.079 415.233 387.079C414.49 387.079 413.649 385.777 413.649 382.132C413.649 378.488 414.655 375.602 415.414 375.602C416.173 375.602 417.014 378.619 417.014 382.264Z" fill="#0E141B"/>
<path d="M472.852 387.064C472.852 389.324 472.407 389.917 471.814 389.917C471.22 389.917 470.692 389.324 470.692 387.064C470.692 384.805 471.17 382.975 471.764 382.975C472.358 382.975 472.836 384.805 472.836 387.064H472.852Z" fill="#0E141B"/>
<path d="M648.021 490.693C645.053 486.999 637.582 482.299 633.146 482.876L629.666 483.47C618.271 485.548 615.352 485.086 614.907 484.344C614.742 483.948 614.66 483.42 614.66 482.827C614.66 479.743 616.853 474.416 620.943 470.475C621.701 470.656 622.757 470.722 623.482 470.838C623.301 470.129 623.021 468.644 622.971 468.43C617.001 467.358 614.709 465.594 613.802 463.285C613.126 461.603 610.784 458.651 609.646 457.958C608.525 457.249 608.541 457.859 609.003 458.568C609.465 459.277 611.394 462.905 612.037 464.522C612.977 466.88 614.923 469.04 618.749 469.815C613.819 474.812 610.487 481.474 612.169 485.498C613.67 489.093 633.525 484.987 633.525 484.987C637.434 484.459 644.03 489.654 646.586 492.82C648.747 495.508 650.973 505.321 646.355 516.221C646.108 516.798 645.844 517.343 645.58 517.837C645.646 519.47 645.894 519.981 645.696 521.68C651.105 516.518 653.15 497.026 648.038 490.693H648.021Z" fill="#0E141B"/>
<path d="M631.728 515.876C627.556 514.095 626.253 509.494 630.574 503.261C632.998 499.765 632.404 497.472 631.728 495.312C631.052 493.152 630.178 494.537 630.178 495.889C630.178 497.241 629.914 499.649 627.935 502.486C626.517 504.53 624.917 505.85 624.818 508.208C620.531 508.208 618.816 511.077 617.315 513.683C616.49 515.118 614.528 516.998 613.242 518.037C609.861 520.741 594.953 527.519 587.4 521.912C587.35 521.863 587.334 521.813 587.268 521.764C584.151 518.465 576.087 511.556 576.087 511.556C571.585 507.862 568.897 504.943 568.419 501.513C567.94 498.082 566.456 497.736 566.77 501.595C567.413 509.346 573.317 510.847 577.027 514.969C578.561 516.668 579.995 518.235 581.183 519.504C573.036 519.142 562.944 522.902 553.131 526.579C546.222 529.168 539.691 531.609 534.661 532.236C528.708 532.978 524.651 528.08 523.398 523.215C521.963 517.608 523.563 509.758 532.798 506.081L536.624 504.58C545.743 501.018 558.491 496.384 564.807 491.849C564.807 491.849 564.807 493.234 565.236 494.537C565.665 495.823 566.473 494.125 566.093 489.705C565.566 483.521 564.692 481.74 563.422 480.569C559.744 477.172 557.172 472.389 556.693 469.701C556.364 467.92 556.281 466.37 556.38 465.001C555.242 463.154 555.473 462.66 555.374 460.812C553.461 463.088 553.478 465.941 554.236 470.08C554.945 473.989 558.854 478.821 562.3 482.004C563.438 483.059 564.362 487.594 564.543 489.771C558.442 494.059 544.408 498.363 535.535 501.826L531.693 503.327C520.759 507.664 518.22 516.783 520.166 524.353C522.079 531.79 527.158 536.342 533.787 535.517C539.163 534.841 547.063 532.005 554.154 529.366C564.56 525.474 576.499 522.028 584.283 523.825C592.76 532.631 611.444 523.71 616.16 519.933C617.892 518.548 618.931 516.75 619.838 515.151C621.372 512.496 622.312 511.094 624.785 511.127C625.857 514.376 627.836 516.618 631.844 518.614C631.596 517.097 631.398 517.179 631.695 515.827L631.728 515.876Z" fill="#0E141B"/>
</g>
<defs>
<clipPath id="clip0_42_64058">
<rect width="501.973" height="620" fill="white" transform="translate(149 130)"/>
</clipPath>
</defs>
</svg>
