<svg width="800" height="800" viewBox="0 0 800 800" fill="none" xmlns="http://www.w3.org/2000/svg">
<g clip-path="url(#clip0_42_64784)">
<path d="M646.266 503.379C644.332 491.627 637.319 462.192 616.428 429.804C576.176 367.428 513.673 373.634 481.816 391.04C465.303 400.051 454.698 409.742 445.135 434.713C462.052 453.16 463.199 465.125 464.262 489.969C474.357 498.47 491.358 510.626 514.736 503.188C558.175 489.374 570.778 487.164 598.151 494.113C612.454 497.747 625.46 503.337 635.002 506.801C645.607 511.476 647.477 510.626 646.266 503.379Z" fill="#0E141B"/>
<path d="M642.759 504.846C641.378 477.685 608.543 392.4 537.624 382.581C499.986 377.375 462.88 398.584 447.238 438.964C449.3 442.045 462.157 473.562 463.177 481.468C471.53 496.09 495.778 504.059 513.822 498.109C540.217 489.438 566.591 483.593 586.079 487.121C606.991 490.925 627.882 499.511 642.759 504.824V504.846Z" fill="#A8D182"/>
<path d="M628.201 487.291C598.979 412.058 519.199 375.674 469.235 433.863C463.73 440.281 467.343 439.155 470.68 436.158C532.417 380.52 600.382 427.679 625.587 487.121C627.457 491.542 629.923 491.712 628.201 487.27V487.291Z" fill="#0E141B"/>
<path d="M490.062 696.095C456.845 680.028 436.549 699.729 426.985 700.133C419.568 700.43 409.559 696.86 400.739 690.293C381.102 675.693 384.46 636.822 393.407 628.683C431.363 594.169 466.727 540.061 466.727 486.08C466.727 426.978 412.916 415.246 410.897 388.894C408.262 354.529 437.994 338.016 426.39 326.922C415.042 316.062 367.777 347.048 387.647 415.565C396.042 444.511 432.639 439.41 423.861 511.349C418.123 558.465 404.862 595.933 377.999 619.672C357.597 637.694 294.393 654.419 258.37 641.179C240.199 634.506 227.15 625.304 220.562 613.339C214.909 603.074 213.018 586.603 229.339 569.24C236.374 561.759 233.101 558.444 226.81 563.523C212.189 575.361 205.218 592.086 211.254 609.152C199.246 600.97 195.421 585.541 196.866 579.144C198.099 573.703 201.116 569.75 206.111 563.693C209.107 560.059 208.193 557.509 204.347 560.378C200.713 563.077 197.397 567.073 195.038 571.11C195.102 567.073 196.696 564.033 197.206 560.612C199.034 548.243 193.699 550.793 190.894 560.994C185.305 581.375 189.045 597.293 200.628 609.683C192.679 611.277 185.135 610.491 179.694 605.815C175.125 601.905 173.297 595.381 171.64 583.777C170.981 579.123 167.899 579.675 167.347 584.457C166.645 590.429 167.75 596.486 170.428 602.33C166.284 599.163 163.713 594.998 160.482 589.791C156.253 582.714 152.194 583.437 154.914 591.364C161.864 611.639 181.671 617.78 197.057 617.292C202.519 617.122 210.149 618.949 215.653 623.859C221.476 629.065 236.013 643.644 256.394 651.423C285.233 662.453 339.915 658.84 377.085 634.378C367.054 659.881 378.785 684.002 394.278 696.945C406.009 706.742 416.699 707.316 424.456 709.569C434.02 712.332 437.76 726.337 430.343 754.22C428.324 761.849 432.617 762.083 435.933 754.22C439.737 745.23 441.033 738.111 441.246 731.119C443.392 736.602 444.497 743.615 445.326 752.052C445.815 757.174 449.3 754.432 449.407 746.994C449.704 726.571 442.606 714.266 436.91 710.313C451.298 708.4 468.597 712.905 481.285 734.051C487.002 743.594 491.21 741.851 487.087 731.565C480.031 713.926 464.984 702.789 438.568 704.043C455.336 693.842 472.019 695.819 489.467 702.747C498.308 706.254 497.267 699.623 490.062 696.116V696.095Z" fill="#0E141B"/>
<path d="M385.904 674.863C381.186 662.005 380.549 635.461 390.814 625.621C435.783 582.607 461.159 536.426 461.159 481.807C461.159 440.897 416.019 413.418 412.172 404.598C391.515 357.269 434.126 344.39 419.95 331.023C410.196 321.842 376.915 361.137 394.129 410.208C398.996 424.044 416.975 448.654 429.875 471.882C437.165 484.995 422.926 586.347 381.93 621.711C369.179 632.698 324.124 650.763 284.616 649.339C258.858 648.404 235.672 638.16 221.327 619.777C203.879 597.419 218.5 576.103 230.465 563.905C200.479 585.306 215.44 615.484 215.44 615.484C196.441 602.648 193.061 587.325 194.103 579.44C195.08 572.087 203.39 563.947 203.39 563.947C198.077 568.729 193.657 573.872 193.657 573.872C192.594 567.496 195.42 554.745 195.42 554.745C184.476 586.878 196.802 602.265 205.048 610.872C185.921 615.378 177.802 608.641 175.932 605.92C168.834 595.592 169.556 583.967 169.556 583.967C167.601 594.232 173.446 606.112 173.446 606.112C164.668 602.116 158.038 591.596 156.444 587.877C161.332 606.345 178.334 615.526 198.608 614.315C204.283 613.975 212.847 617.163 216.524 620.648C238.265 641.178 252.972 648.701 272.035 652.484C304.317 658.881 362.123 646.491 383.269 625.685C376.065 637.119 374.811 656.522 379.784 671.399C386.414 685.744 396.892 701.683 420.163 704.871C444.072 708.144 437.25 739.703 432.659 755.345C432.659 755.345 440.905 736.218 439.035 722.68C439.035 722.68 444.879 730.374 447.536 747.652C447.281 739.958 444.922 719.152 432.659 708.866C432.659 708.866 467.194 700.365 484.982 734.624C484.982 734.624 478.607 702.491 431.852 706.465C442.223 696.37 465.579 687.614 492.952 701.428C482.432 694.096 461.477 686.02 432.128 702.023C427.07 704.786 395.978 702.342 385.904 674.863Z" fill="#BF794E"/>
<path d="M539.707 293.173C545.807 321.651 543.936 345.454 562.086 378.119C569.12 390.785 549.823 411.102 535.627 418.923C525.978 424.236 488.936 433.162 483.368 420.921C472.741 397.543 426.858 374.017 412.385 347.622C391.6 309.708 408.857 269.647 437.463 252.029C480.669 225.442 529.315 244.654 539.707 293.195V293.173Z" fill="#0E141B"/>
<path d="M554.562 370.426C539.558 339.653 542.874 326.328 534.373 290.73C524.724 250.33 481.816 232.244 440.331 256.195C405.839 276.108 401.865 324.266 416.423 345.455C437.207 375.739 463.178 386.896 480.179 409.743C480.243 409.828 483.303 404.345 483.367 404.43C489.743 414.227 518.412 410.189 526.786 405.577C539.112 398.798 560.088 381.732 554.562 370.426Z" fill="#F0E900"/>
<path d="M459.99 325.349C461.754 328.537 460.585 332.553 457.376 334.317C454.188 336.081 450.171 334.912 448.428 331.725C446.664 328.537 447.833 324.52 451.021 322.756C454.209 320.992 458.226 322.161 459.99 325.349Z" fill="#0E141B"/>
<path d="M524.491 299.633C526.255 302.821 525.086 306.838 521.898 308.602C518.71 310.365 514.693 309.197 512.929 305.988C511.165 302.8 512.334 298.783 515.522 297.019C518.71 295.255 522.727 296.424 524.491 299.633Z" fill="#0E141B"/>
<path d="M484.961 400.179C480.902 392.868 469.511 380.755 452.552 366.707C417.379 337.57 421.098 295.767 431.937 262.082C405.287 284.376 403.14 326.136 416.423 345.455C437.207 375.739 463.178 386.896 480.179 409.743C480.201 409.785 487.618 404.961 484.961 400.179Z" fill="#CFC900"/>
<path d="M567.994 376.036C573.009 386.365 562.681 406.575 536.371 421.048C511.463 434.735 486.045 436.18 478.904 423.726C471.615 410.975 486.151 390.849 512.653 377.332C539.41 363.688 562.086 363.901 567.994 376.057V376.036Z" fill="#0E141B"/>
<path d="M565.189 377.693C570.417 386.938 555.753 405.768 534.012 417.711C512.27 429.655 488.468 432.609 483.006 422.663C475.398 408.828 493.845 392.464 515.586 380.52C537.327 368.576 559.599 367.832 565.167 377.693H565.189Z" fill="#F5B2B2"/>
<path d="M555.37 387.959C558.749 382.433 507.298 409.211 498.797 410.805C491.04 412.25 488.171 407.957 488.107 401.135C481.88 408.382 479.266 415.82 483.027 422.664C488.489 432.588 512.292 429.656 534.033 417.712C547.018 410.571 557.453 400.986 562.638 392.443C556.178 400.71 552.437 392.74 555.37 387.959Z" fill="#D49A9C"/>
<path d="M402.226 289.262C406.03 279.933 405.01 277.935 392.068 282.015C347.14 296.169 283.022 327.474 284.127 399.646C284.722 437.922 309.694 473.073 343.102 488.906C385.734 509.117 438.27 498.937 440.395 449.334C441.798 416.648 419.079 394.333 398.698 372.72C377.127 349.831 385.033 331.405 402.205 289.241L402.226 289.262Z" fill="#0E141B"/>
<path d="M419.547 483.295C442.52 465.273 441.436 426.169 412.193 393.802C392.365 371.848 380.315 361.392 381.378 344.39C383.312 313.511 400.505 289.666 399.442 284.884C398.549 280.889 324.443 306.391 301.15 349.704C275.86 396.714 291.332 440.578 320.894 467.143C355.216 498.023 397.487 500.616 419.568 483.295H419.547Z" fill="#A8D182"/>
<path d="M485.216 420.58C490.678 430.505 511.994 427.657 533.756 415.714C547.294 408.275 557.113 399.243 561.342 391.252C560.555 391.911 559.408 392.846 558.26 392.761C556.05 392.591 555.157 389.127 555.157 389.127L498.584 414.098C498.584 414.098 491.634 420.835 486.109 416.585C484.409 415.267 484.111 411.357 484.069 409.402C482.9 413.057 483.155 416.797 485.259 420.602L485.216 420.58Z" fill="#D49A9C"/>
<path d="M556.432 386.237C558.961 390.827 541.726 405.13 529.782 411.697C516.84 418.816 496.65 425.426 493.993 420.58C491.486 415.99 498.924 405.598 520.049 393.994C542.172 381.838 554.222 382.178 556.454 386.258L556.432 386.237Z" fill="#0E141B"/>
<path d="M452.892 328.749C454.054 328.749 454.996 327.807 454.996 326.645C454.996 325.483 454.054 324.541 452.892 324.541C451.73 324.541 450.788 325.483 450.788 326.645C450.788 327.807 451.73 328.749 452.892 328.749Z" fill="white"/>
<path d="M516.648 302.907C517.81 302.907 518.752 301.965 518.752 300.803C518.752 299.641 517.81 298.699 516.648 298.699C515.486 298.699 514.544 299.641 514.544 300.803C514.544 301.965 515.486 302.907 516.648 302.907Z" fill="white"/>
<path d="M352.666 349.704C362.357 328.536 372.792 327.877 382.738 333.106C387.307 307.815 400.356 289.05 399.421 284.884C398.528 280.889 324.422 306.391 301.129 349.704C290.928 368.682 287.358 387.129 288.675 404.131C313.519 400.008 342.72 371.402 352.666 349.704Z" fill="#91B671"/>
<path d="M380.294 306.86C343.102 335.317 315.581 434.438 407.539 466.189C412.874 468.038 414.191 466.89 406.859 463.426C321.404 422.962 347.714 343.712 382.695 307.158C386.032 303.673 383.864 304.119 380.294 306.86Z" fill="#0E141B"/>
</g>
<defs>
<clipPath id="clip0_42_64784">
<rect width="492.585" height="520" fill="white" transform="translate(154 240)"/>
</clipPath>
</defs>
</svg>
