<svg width="800" height="800" viewBox="0 0 800 800" fill="none" xmlns="http://www.w3.org/2000/svg">
<g clip-path="url(#clip0_42_58860)">
<path d="M308.125 514.48C327.89 514.48 355.625 528.44 355.625 561.981C355.625 600.008 343.486 624.312 318.021 624.312C287.277 624.312 262.92 608.215 262.92 578.474C262.92 538.679 272.684 514.48 308.098 514.48H308.125Z" fill="#7FCDEC"/>
<path d="M360.692 287.322C342.747 347.093 388.638 405.572 438.092 417.949C493.351 431.777 564.048 405.018 579.274 344.059C595.345 279.801 560.406 216.81 489.102 204.644C434.951 195.408 380.563 221.032 360.666 287.322H360.692Z" fill="#7FCDEC"/>
<path d="M518.605 412.222C518.605 412.222 526.838 435.313 525.862 457.744C524.886 480.175 521.587 504.242 521.587 504.242C521.587 504.242 541.062 512.158 568.428 511.156C595.794 510.153 622.843 505.218 622.843 503.239C622.843 501.26 609.648 489.068 609.648 489.068C609.648 489.068 625.165 480.491 625.165 477.193C625.165 473.894 619.227 470.938 619.227 470.938C619.227 470.938 624.505 463.681 624.188 461.702C623.872 459.723 600.755 454.128 600.755 454.128C600.755 454.128 577.664 435.999 560.168 423.464C542.672 410.929 534.095 405.651 534.095 405.651L518.579 412.249L518.605 412.222Z" fill="#7FCDEC"/>
<path d="M276.8 523.058C276.8 523.058 273.845 521.738 271.523 523.717C269.2 525.696 265.585 530.974 264.609 535.909C263.632 540.844 261.97 547.784 261.97 547.784C261.97 547.784 255.372 542.19 250.754 539.208C246.136 536.226 242.178 532.954 241.201 533.613C240.225 534.273 242.521 559.343 244.843 568.579C247.165 577.815 254.079 605.524 256.059 610.459C263.104 628.087 285.324 634.42 296.302 632.23C320.158 627.453 331.136 603.941 329.948 585.072C329.632 579.794 322.427 551.188 320.396 544.512C318.073 536.938 309.523 518.466 307.861 518.466C306.198 518.466 290.048 535.276 290.048 535.276C290.048 535.276 279.176 524.403 276.853 523.084L276.8 523.058Z" fill="#7FCDEC"/>
<path d="M375.76 616.079C375.76 616.079 376.763 624.656 374.441 628.614C372.118 632.573 365.864 639.487 363.568 645.767C361.272 652.048 359.926 658.962 363.252 665.559C372.831 684.718 389.667 716.675 397.558 716.675C399.88 716.675 409.749 697.226 409.749 697.226C409.749 697.226 424.923 710.421 426.902 709.761C428.882 709.101 432.497 691.948 432.497 691.948C432.497 691.948 448.33 694.244 449.967 692.925C451.603 691.605 447.011 677.091 441.39 666.535C441.39 666.535 463.821 653.341 474.06 625.632C484.299 597.923 484.616 578.475 484.616 578.475C484.616 578.475 449.307 605.181 425.24 612.121C401.173 619.061 375.76 616.079 375.76 616.079Z" fill="#7FCDEC"/>
<path d="M259.305 367.704C236.267 335.456 192.302 329.73 162.984 351.871C127.464 378.708 127.411 422.858 148.47 450.487C153.748 457.401 169.264 478.196 177.815 488.408C186.365 498.621 214.1 523.374 221.673 528.969C229.247 534.563 240.463 541.82 240.463 541.82C240.463 541.82 239.803 532.584 241.122 533.587C242.442 534.59 261.917 546.781 261.917 546.781L264.239 538.548C264.239 538.548 251.045 521.078 251.045 495.006C251.045 451.807 275.112 410.903 275.112 410.903C275.112 410.903 275.771 390.795 259.278 367.704H259.305Z" fill="#7FCDEC"/>
<path d="M288.016 391.111C288.016 391.111 269.543 411.563 258.671 450.144C247.799 488.725 250.754 523.031 264.265 538.548C264.265 538.548 268.224 523.717 271.522 523.717C274.821 523.717 278.12 523.058 278.12 523.058C278.12 523.058 286.696 520.102 288.675 518.123C290.655 516.144 309.787 499.993 315.065 483.817C320.343 467.64 320.659 449.511 320.659 449.511C320.659 449.511 307.148 429.402 302.847 421.142C298.545 412.882 288.016 391.138 288.016 391.138V391.111Z" fill="#D07100"/>
<path d="M398.956 397.945L395.658 398.816C395.658 398.816 399.167 404.965 398.508 413.541C397.848 422.118 395.051 435.603 385.762 444.76C369.928 460.382 344.41 460.145 344.41 460.145C344.41 460.145 345.281 481.256 339.132 492.92C332.983 504.584 320.871 514.691 320.871 514.691C320.871 514.691 355.177 524.376 355.177 563.96C355.177 594.967 348.131 605.074 348.131 605.074C348.131 605.074 361.114 616.95 385.524 616.95C475.116 616.95 526.153 546.675 526.153 467.296C526.153 457.743 524.516 431.354 518.552 412.222C518.552 412.222 494.142 421.458 468.096 421.458C424.871 421.458 398.93 397.919 398.93 397.919L398.956 397.945Z" fill="#EFE4B7"/>
<path d="M336.941 331.972C336.941 331.972 338.472 325.824 343.328 322.525C348.157 319.226 354.754 317.247 354.754 317.247C354.754 317.247 356.733 329.333 359.372 336.59C362.011 343.847 366.181 357.491 366.181 357.491L364.202 358.15C364.202 358.15 353.435 347.384 349.899 343.847C346.389 340.338 336.915 331.972 336.915 331.972H336.941Z" fill="#EFEFEF"/>
<path d="M320.448 448.296C320.448 448.296 326.386 455.553 331.215 457.084C336.044 458.614 344.621 460.831 344.621 460.831C344.621 460.831 344.172 475.345 342.431 482.602C340.663 489.859 336.493 499.966 332.086 504.584C327.679 509.202 321.979 516.011 321.979 516.011C321.979 516.011 314.273 513.161 305.037 514.243C295.801 515.325 288.755 517.33 288.755 517.33C288.755 517.33 300.63 508.305 307.227 496.879C313.825 485.452 319.103 470.489 319.314 464.103C319.525 457.717 320.422 448.27 320.422 448.27" fill="#EFEFEF"/>
<path d="M388.612 305.135C388.612 305.135 381.803 300.068 381.355 297.218C380.906 294.368 380.484 281.174 383.545 273.019C386.632 264.892 392.121 260.273 392.121 260.273C392.121 260.273 388.823 270.169 388.163 280.725C387.503 291.281 388.612 305.135 388.612 305.135Z" fill="white"/>
<path d="M524.305 338.992C524.305 338.992 532.433 334.163 538.371 317.01C544.308 299.857 547.396 283.575 547.396 283.575L549.375 282.915C549.375 282.915 552.885 298.3 549.824 311.495C546.736 324.689 541.036 336.353 539.479 337.224C537.948 338.095 534.861 338.992 532.671 339.203C530.48 339.414 524.305 338.992 524.305 338.992Z" fill="white"/>
<path d="M390.169 303.815C387.82 298.194 386.289 283.1 388.638 274.576C394.127 254.626 402.36 239.478 412.177 240.719C419.197 241.589 421.044 266.686 417.666 282.493C415.476 292.837 407.111 311.31 403.812 311.521C400.513 311.732 391.277 306.454 390.169 303.815Z" fill="#C7000D"/>
<path d="M533.33 261.144C521.561 259.033 506.493 274.655 501.874 296.77C499.684 307.325 498.365 327.566 498.787 329.096C499.236 330.627 508.023 335.034 512.852 336.353C517.682 337.673 524.279 338.333 526.496 337.224C528.686 336.116 538.371 320.071 542.778 305.557C547.185 291.043 547.396 273.019 546.076 271.04C544.757 269.061 539.479 262.252 533.33 261.144Z" fill="#C7000D"/>
<path d="M389.298 356.488C389.298 356.488 396.555 347.912 401.173 346.276C405.791 344.64 418.986 343.637 418.986 343.637C418.986 343.637 432.18 355.512 438.461 356.488C444.742 357.465 467.172 352.873 474.746 352.213C482.32 351.553 505.094 355.169 508.736 356.831C512.377 358.494 517.312 364.088 517.972 366.727C518.632 369.366 518.632 376.28 518.632 376.28C518.632 376.28 514.356 382.878 501.795 388.815C478.493 399.846 460.443 402.643 438.778 397.392C427.905 394.753 412.072 386.836 401.516 374.961C390.96 363.086 389.324 356.488 389.324 356.488H389.298Z" fill="#EE869A"/>
<path d="M389.298 356.488C389.298 356.488 384.02 347.595 382.701 342.977C381.381 338.359 380.378 327.486 380.378 327.486C380.378 327.486 392.57 330.785 397.531 332.421C402.493 334.057 411.729 337.356 413.048 338.359C414.368 339.361 418.009 342.634 418.009 342.634C418.009 342.634 405.818 343.293 401.173 346.249C396.529 349.205 389.298 356.462 389.298 356.462V356.488Z" fill="#933000"/>
<path d="M509.369 355.828C509.369 355.828 509.554 356.013 509.897 356.303C511.586 357.886 516.784 362.848 517.629 365.064C518.632 367.703 518.632 376.28 518.632 376.28C518.632 376.28 523.593 371.002 525.889 368.046C528.185 365.091 530.507 359.813 530.507 359.813L509.396 355.855L509.369 355.828Z" fill="#933000"/>
<path d="M406.9 259.613C403.548 258.954 397.848 265.788 396.185 275.605C393.731 290.172 395.948 296.373 400.065 296.769C403.68 297.112 408.588 291.623 410.99 279.009C412.679 270.116 411.175 260.458 406.9 259.613Z" fill="#0E141B"/>
<path d="M526.68 279.959C522.827 278.719 516.415 284.735 513.697 296.162C510.952 307.668 512.325 318.118 517.444 319.543C522.564 320.968 528.369 312.708 530.771 301.915C533.911 287.691 531.114 281.41 526.68 279.959Z" fill="#0E141B"/>
<path d="M530.48 287.771C537.039 287.771 542.355 282.454 542.355 275.896C542.355 269.337 537.039 264.021 530.48 264.021C523.922 264.021 518.605 269.337 518.605 275.896C518.605 282.454 523.922 287.771 530.48 287.771Z" fill="white"/>
<path d="M417.35 247.5C419.118 247.817 421.229 269.773 418.695 270.564C417.613 270.881 416.452 271.066 415.265 271.066C408.694 271.066 403.39 265.762 403.39 259.191C403.39 252.62 408.694 247.315 415.265 247.315C415.977 247.315 416.69 247.368 417.376 247.5H417.35Z" fill="white"/>
<path d="M526.838 484.793C544.994 494.029 586.874 502.263 621.18 502.263C621.18 502.263 608.645 510.839 566.765 510.839C524.886 510.839 523.223 504.242 523.223 504.242L526.865 484.793H526.838Z" fill="#6EB3CD"/>
<path d="M408.641 616.316C375.655 645.345 419.883 678.859 432.392 672.605C437.67 669.966 436.139 670.52 436.139 670.52C436.139 670.52 448.014 691.737 446.484 691.948C444.953 692.159 432.84 690.629 432.84 690.629C432.84 690.629 428.671 705.802 426.903 709.761C426.903 709.761 415.028 700.973 413.048 698.545C411.069 696.117 411.069 695.036 408.43 698.334C405.791 701.633 399.405 715.487 397.004 716.596C397.004 716.596 382.041 703.401 375.444 690.655C368.846 677.909 361.378 661.178 361.589 653.921C361.8 646.664 365.996 639.618 368.846 636.557C371.696 633.469 374.124 630.171 374.784 627.11C375.444 624.048 376.763 616.765 376.763 616.765C376.763 616.765 384.891 617.873 389.958 617.636C395.025 617.425 408.641 616.316 408.641 616.316Z" fill="#6EB3CD"/>
<path d="M244.157 560.451C242.996 555.226 242.389 549.024 243.708 548.576C245.028 548.127 261.732 560.002 264.82 559.58C267.907 559.131 271.417 539.788 274.056 538.917C276.695 538.046 288.122 549.473 291.658 548.602C295.167 547.731 303.533 532.769 305.301 532.769C307.069 532.769 333.828 598.267 314.089 622.941C308.811 629.538 287.251 637.903 274.505 629.089C261.759 620.302 255.584 613.704 252.945 604.02C250.306 594.335 245.028 564.436 244.157 560.477V560.451Z" fill="#6EB3CD"/>
<path d="M330.344 578.924C336.071 578.924 351.007 571.007 354.966 565.28C354.966 565.28 358.475 588.16 351.456 600.906C344.41 613.652 337.39 619.827 329.896 622.017C322.428 624.207 313.191 624.207 313.191 624.207C313.191 624.207 325.067 613.203 327.257 604.416C329.447 595.628 330.344 578.897 330.344 578.897V578.924Z" fill="#6EB3CD"/>
<path d="M356.311 567.919C402.176 587.817 480.921 576.548 505.859 552.534C505.859 552.534 462.766 617.636 389.958 617.636C369.506 617.636 348.184 605.102 348.184 605.102C348.184 605.102 353.25 599.164 355.441 587.289C357.631 575.414 356.311 567.945 356.311 567.945V567.919Z" fill="#C9C09B"/>
<path d="M319.366 471.599C320.026 481.494 336.968 492.71 334.54 498.647C334.54 498.647 339.818 489.622 342.457 482.603C345.096 475.583 344.436 460.172 344.436 460.172C344.436 460.172 334.54 459.064 331.241 457.084C327.943 455.105 318.707 447.188 318.707 447.188C318.707 447.188 320.686 457.955 320.026 461.043C319.366 464.13 319.366 471.599 319.366 471.599Z" fill="#C9CACA"/>
<path d="M252.707 480.834C251.071 495.005 298.44 512.29 307.254 496.879C307.254 496.879 296.592 512.158 287.673 516.776C278.753 521.394 276.8 523.03 276.8 523.03C276.8 523.03 273.159 521.711 271.523 523.69C269.886 525.669 264.266 538.521 264.266 538.521C264.266 538.521 256.032 529.628 252.39 512.791C248.749 495.955 252.707 480.808 252.707 480.808V480.834Z" fill="#AA5B00"/>
<path d="M255.584 522.635C220.407 503.292 199.717 469.408 196.656 466.769L217.319 457.084C181.694 471.598 132.874 430.246 135.512 404.306C135.512 404.306 132.425 423.227 142.558 441.251C152.665 459.274 156.624 460.594 156.624 460.594C156.624 460.594 172.457 486.112 193.12 505.456C213.783 524.799 240.172 540.21 240.172 540.21C240.172 540.21 240.067 536.252 240.621 534.932C241.175 533.613 249.408 538.442 252.496 540.659C255.584 542.849 261.943 547.81 261.943 547.81L263.923 539.788C263.923 539.788 261.284 536.278 259.516 532.742C257.747 529.232 255.557 522.635 255.557 522.635H255.584Z" fill="#6EB3CD"/>
<path d="M397.637 398.157C400.724 403.884 419.619 426.737 442.05 432.463C464.481 438.19 498.787 430.273 507.574 417.501C507.574 417.501 484.273 421.908 465.352 421.908C428.407 421.908 397.61 398.157 397.61 398.157H397.637Z" fill="#C9C09B"/>
<path d="M355.308 296.11C343.486 355.169 389.984 411.062 443.844 421.037C516.969 434.574 574.867 393.803 583.892 345.59C597.746 271.726 556.315 212.535 490.21 201.769C425.055 191.134 368.767 228.791 355.308 296.11ZM444.662 416.63C417.613 411.616 394.021 396.02 378.241 372.692C362.645 349.68 356.258 321.365 361.14 297.007C374.098 232.274 426.084 198.232 488.68 208.155C563.572 220.03 587.718 282.757 576.635 341.895C567.979 387.997 515.069 429.666 444.662 416.63Z" fill="#0E141B"/>
<path d="M413.734 239.004C400.117 234.465 375.391 267.873 379.059 297.113C380.088 305.373 399.59 315.137 405.342 312.841C424.237 305.267 425.477 242.936 413.734 239.03V239.004ZM383.519 296.559C382.199 288.378 383.519 277.004 388.295 269.087C385.656 279.3 384.495 293.603 386.474 300.517C384.785 299.039 383.677 297.64 383.492 296.585L383.519 296.559ZM403.838 309.885C402.308 310.043 397.294 307.748 392.623 304.898C381.117 288.853 398.27 238.608 412.309 243.305C414.447 244.018 416.874 248.688 417.191 259.64C417.798 280.382 410.699 307.167 403.838 309.911V309.885Z" fill="#0E141B"/>
<path d="M418.537 234.438C421.836 236.998 424.026 242.355 424.369 247.844C424.554 250.957 428.275 250.852 428.275 247.738C428.275 241.273 425.372 235.414 420.411 232.353C417.139 230.321 415.529 232.089 418.537 234.438Z" fill="#0E141B"/>
<path d="M505.991 261.54C503.801 266.343 507.891 268.216 510.081 263.387C511.797 259.614 521.059 253.069 526.68 253.069C532.961 253.069 533.014 251.09 526.786 250.351C518.684 249.401 508.841 255.312 506.018 261.54H505.991Z" fill="#0E141B"/>
<path d="M534.438 258.347C514.91 255.339 497.045 282.018 497.045 328.674C497.045 337.858 536.55 346.223 541.643 337.515C564.021 299.171 551.908 261.065 534.438 258.373V258.347ZM500.396 328.78C500.396 302.206 507.97 277.849 519.212 268.19C523.619 264.417 528.527 262.886 533.752 263.704C538.027 264.364 541.59 267.768 544.15 272.94C548.24 291.518 529.055 336.09 523.883 336.09C523.724 336.09 523.672 336.143 523.672 336.248C518.209 335.747 512.087 334.665 506.994 332.87C501.61 330.97 500.396 329.229 500.396 328.78ZM537.763 335.245C537.13 336.037 534.597 336.459 531.061 336.538C538.08 328.279 545.839 306.798 548.425 291.941C549.032 305.214 545.944 321.18 537.737 335.245H537.763Z" fill="#0E141B"/>
<path d="M427.219 329.756C425.135 331.26 432.497 339.309 433.817 338.332C435.136 337.356 432.181 332.184 431.494 331.287C430.835 330.416 428.407 328.859 427.219 329.756Z" fill="#0E141B"/>
<path d="M449.993 341.974C449.28 340.76 453.45 337.514 454.769 336.854C456.089 336.195 459.044 336.195 459.731 337.672C460.417 339.15 450.653 343.109 449.993 341.947V341.974Z" fill="#0E141B"/>
<path d="M419.012 340.127C416.452 338.015 414.077 336.432 411.597 335.482C402.994 332.21 382.305 325.956 377.687 322.947C376.314 322.05 374.626 319.886 374.019 317.353C372.884 312.708 369.981 312.972 370.72 318.118C371.274 321.971 372.673 324.61 374.969 326.483C379.033 329.861 400.751 336.326 409.222 339.229C411.069 339.863 413.682 341.34 415.45 342.977C423.604 350.55 432.84 357.807 438.461 358.784C448.858 360.605 467.806 354.429 477.939 354.429C482.346 354.429 534.835 363.719 538.582 362.425C542.936 360.921 547.211 356.541 549.639 353.691C552.753 350.022 549.876 348.07 546.683 351.711C544.678 354.007 541.59 356.013 538.371 357.121C535.31 358.15 490.448 349.97 477.517 349.97C464.586 349.97 444.082 354.614 439.438 353.743C436.007 353.084 429.146 348.518 419.039 340.127H419.012Z" fill="#0E141B"/>
<path d="M379.85 324.557C378.61 324.663 377.713 325.745 377.792 326.985C380.932 363.877 412.045 394.674 438.012 399.265C479.892 406.654 512.298 393.671 534.28 360.684C534.966 359.655 534.702 358.257 533.647 357.57C532.618 356.884 531.219 357.175 530.533 358.204C509.633 389.581 478.757 401.904 438.777 394.832C414.42 390.531 385.207 361.45 382.225 326.589C382.12 325.349 381.038 324.426 379.798 324.557H379.85Z" fill="#0E141B"/>
<path d="M417.825 341.631C408.404 341.183 395.71 343.109 388.796 355.143C388.559 355.565 390.116 358.758 390.802 357.729C397.98 347.226 410.858 344.613 419.619 345.59C420.859 345.722 418.563 341.658 417.798 341.631H417.825Z" fill="#0E141B"/>
<path d="M507.363 358.626C512.773 360.341 518.447 368.495 517.048 374.802C516.784 376.016 520.663 374.274 520.769 373.087C521.429 366.938 517.919 360.341 511.981 357.042C510.161 356.04 506.176 358.256 507.337 358.626H507.363Z" fill="#0E141B"/>
<path d="M355.836 314.635C345.809 315.981 339.37 320.863 335.279 330.231C335.095 330.653 338.71 334.031 339.079 332.844C340.742 327.513 349.318 320.942 354.966 319.385C355.784 319.148 356.285 314.582 355.836 314.635Z" fill="#0E141B"/>
<path d="M286.301 388.947C250.095 435.656 235.343 500.442 262.629 541.556C263.316 542.585 266.06 539.656 265.4 538.6C245.028 505.983 255.689 440.855 289.124 392.747C289.415 392.351 286.881 388.182 286.301 388.947Z" fill="#0E141B"/>
<path d="M515.966 413.489C526.416 440.247 524.886 492.551 512.509 528.493C487.017 602.462 392.517 631.384 350.901 604.758C349.846 604.098 347.444 607.872 348.474 608.531C393.441 637.322 492.48 609.217 519.423 531.079C532.248 493.897 531.958 439.429 521.218 411.245C521.033 410.744 515.861 413.225 515.966 413.489Z" fill="#0E141B"/>
<path d="M390.459 438.559C426.032 473.499 469.706 483.711 496.491 480.835C509.131 479.489 518.605 475.24 524.596 468.405C525.361 467.535 523.54 462.31 522.88 463.339C518.922 469.487 509.158 473.842 496.069 475.24C470.023 478.038 427.298 469.012 392.649 434.39C391.779 433.519 390.142 438.216 390.459 438.559Z" fill="#0E141B"/>
<path d="M478.546 477.536C475.063 511.921 448.595 576.337 423.815 599.718C422.918 600.562 425.979 603.834 426.903 602.99C454.295 577.498 481.001 514.48 483.006 477.984C483.085 476.744 478.678 476.295 478.546 477.536Z" fill="#0E141B"/>
<path d="M371.67 453.02C371.723 453.416 371.776 453.812 371.855 454.208C374.414 470.331 384.469 505.508 389.773 518.571C385.313 523.136 366.682 540.553 353.013 551.769C352.696 552.032 351.588 560.266 354.649 557.812C370.403 545.118 393.758 520.92 393.995 520.682C394.629 520.022 394.787 519.072 394.444 518.254C389.377 506.405 379.27 466.822 377.106 451.516C376.921 450.302 371.67 452.941 371.696 453.046L371.67 453.02Z" fill="#0E141B"/>
<path d="M390.881 520.788C421.598 547.889 477.174 555.173 506.308 546.807C507.363 546.517 508.841 541.187 507.68 541.635C484.959 550.317 422.364 542.585 393.863 517.41C392.94 516.592 389.958 519.943 390.908 520.788H390.881Z" fill="#0E141B"/>
<path d="M354.174 587.394C373.385 600.193 413.682 603.017 423.182 603.492C422.258 606.843 421.519 610.485 421.282 612.121L426.876 610.538C427.536 606.131 427.985 602.647 427.536 600.8C427.299 599.824 426.428 599.137 425.451 599.111C424.976 599.111 376.315 595.68 355.995 582.116C354.966 581.43 353.541 586.972 354.2 587.394H354.174Z" fill="#0E141B"/>
<path d="M530.216 407.129C546.683 416.735 587.085 444.707 598.908 455.237C599.224 455.501 599.594 455.685 599.99 455.764C609.067 457.48 619.491 460.409 621.365 462.23C620.6 465.08 612.577 476.823 605.215 486.508C604.001 488.091 604.66 488.936 605.69 489.701C612.366 494.504 620.283 500.89 619.913 502.13C619.201 503.846 561.013 514.744 522.036 500.283C520.875 499.861 519.661 506.353 520.822 506.775C562.57 522.265 621.286 509.757 624.373 504.373C625.508 502.394 621.893 496.061 610.176 487.405C615.797 479.911 625.983 465.845 625.983 461.913C625.983 460.488 625.904 456.187 601.467 451.489C588.748 440.3 553.597 413.674 537.341 403.857C536.629 403.435 529.557 406.707 530.269 407.103L530.216 407.129Z" fill="#0E141B"/>
<path d="M618.488 473.814C620.098 474.078 623.159 475.239 623.344 476.744C623.476 478.195 615.427 483.183 609.278 485.03C608.381 485.294 609.489 490.281 610.281 490.07C618.33 487.88 628.147 480.412 628.147 476.876C628.147 473.339 623.001 469.355 619.966 468.853C618.752 468.642 617.406 473.63 618.488 473.814Z" fill="#0E141B"/>
<path d="M373.834 616.079C373.834 620.75 373.491 627.611 369.665 631.886C364.044 638.167 357.05 651.52 359.425 660.123C366.102 684.48 389.8 720 397.373 720C398.693 720 401.991 719.023 410.409 700.208C412.573 701.923 418.722 706.831 422.469 709.813C426.164 712.743 427.615 713.455 430.228 708.098C432.999 702.372 434.476 693.083 434.476 688.201C434.476 683.741 431.231 683.583 431.231 688.042C431.231 691.974 428.038 706.172 425.9 706.831C423.762 707.175 411.122 695.088 411.122 695.088C409.143 693.505 408.747 693.954 407.744 695.774C403.891 702.847 398.825 713.297 397.057 713.508C391.673 714.352 364.281 665.955 364.07 656.059C363.938 649.725 369.11 640.119 373.227 634.631C377.212 629.326 378.188 622.254 378.294 616.95C378.294 616.659 373.808 614.891 373.808 616.132L373.834 616.079Z" fill="#0E141B"/>
<path d="M438.989 668.858C443.079 674.769 448.832 690.127 447.882 690.813C446.668 691.79 436.456 689.89 433.474 689.309C432.26 689.072 431.389 693.479 432.603 693.716C437.089 694.613 449.94 695.484 450.495 695.511C452.368 695.643 453.081 694.244 452.87 692.924C452.764 692.291 449.545 674.452 443.396 665.559C442.683 664.53 438.725 668.462 438.989 668.858Z" fill="#0E141B"/>
<path d="M481.845 579.504C477.913 623.468 458.543 653.684 432.867 669.94C428.143 672.948 429.779 675.877 434.582 673.08C468.677 653.077 486.384 621.357 488.574 575.545C488.627 574.305 481.924 578.527 481.845 579.53V579.504Z" fill="#0E141B"/>
<path d="M289.599 533.032C282.237 524.298 274.901 519.891 271.84 520.63C265.401 522.239 261.996 536.78 260.387 544.274C254.713 538.97 242.864 529.338 239.302 530.763C237.27 531.581 234.868 539.208 250.728 605.313C255.373 624.656 278.041 638.141 298.018 634.341C318.707 630.409 332.113 612.438 332.113 585.521C332.113 560.213 313.614 514.059 307.491 514.059C306.489 514.059 301.765 515.589 289.626 533.059L289.599 533.032ZM291.658 537.651C297.358 530.394 304.483 522.292 307.148 520.418C311.529 525.775 326.333 560.187 326.333 584.201C326.333 608.215 315.355 625.553 296.936 629.063C279.202 632.441 260.439 620.909 255.98 603.861C251.335 586.128 243.656 547.098 243.022 537.36C247.482 539.577 257.8 546.834 259.806 550.159C261.178 552.455 263.395 552.692 263.949 549.394C265.691 539.102 269.649 527.543 273.053 526.25C275.138 526.937 282.501 532.689 288.386 537.941C289.969 539.339 290.893 538.627 291.631 537.651H291.658Z" fill="#0E141B"/>
<path d="M274.267 522.45C273.185 523.057 275.428 526.962 276.484 526.355C295.537 515.457 315.17 513.187 329.051 520.286C341.797 526.804 349.688 541.081 351.878 561.612C356.602 605.682 337.496 621.542 316.068 622.412C314.854 622.465 311.054 626.925 312.294 626.951C342.747 627.426 362.988 607.977 357.947 561.137C355.572 539.049 345.228 523.532 331.083 516.301C315.883 508.516 294.64 510.839 274.267 522.476V522.45Z" fill="#0E141B"/>
<path d="M342.193 459.829C343.09 478.433 333.247 505.535 320.053 512.739C318.971 513.32 323.193 516.117 323.668 515.827C338.657 506.59 347.841 484.318 346.679 459.617C346.627 458.377 342.14 458.588 342.193 459.829Z" fill="#0E141B"/>
<path d="M317.123 446.37C320.132 472.522 305.882 502.579 285.509 516.856C284.506 517.568 291.025 518.413 292.423 517.304C313.403 500.6 324.011 476.163 321.9 449.167C321.821 448.085 316.992 445.156 317.123 446.396V446.37Z" fill="#0E141B"/>
<path d="M258.275 450.487C257.721 469.91 264.266 510.575 275.376 524.456C276.141 525.433 280.548 522.055 279.756 521.078C267.775 506.089 260.281 456.108 263.448 444.022C263.764 442.808 258.354 447.32 258.249 450.487H258.275Z" fill="#0E141B"/>
<path d="M131 407.604C131 442.464 153.906 471.439 185.599 471.439C214.126 471.439 239.196 449.747 239.196 418.397C239.196 395.095 219.747 379.948 202.568 380.212C196.815 380.291 191.933 382.613 189.373 387.495C186.523 392.984 188.37 394.145 192.197 389.474C194.704 386.413 198.451 384.804 202.884 384.751C215.736 384.592 233.522 400.4 233.522 418.397C233.522 443.836 211.646 464.525 184.755 464.525C157.864 464.525 137.545 439.007 137.545 407.604C137.545 370.105 174.041 341.024 205.444 341.024C240.41 341.024 272.262 374.749 272.262 411.8C272.262 413.04 276.695 409.002 276.616 407.604C274.32 369.894 242.072 335.904 206.077 335.904C170.082 335.904 131 363.481 131 407.604Z" fill="#0E141B"/>
<path d="M142.875 446.528C163.485 480.386 200.641 523.216 239.592 543.509C240.7 544.09 242.283 538.469 241.175 537.888C208.426 520.788 179.899 489.411 159.052 459.063C155.647 454.076 142.374 445.71 142.901 446.528H142.875Z" fill="#0E141B"/>
<path d="M386.21 383.642C379.666 375.224 360.27 353.295 352.775 346.697C345.307 340.1 329.896 327.776 325.937 324.267C321.979 320.757 315.83 317.221 315.83 317.221C315.83 317.221 300.867 296.109 297.358 296.558C293.848 297.006 290.312 307.114 289.441 311.521C288.57 315.928 287.673 325.586 287.673 325.586C287.673 325.586 278.437 328.225 273.159 329.993C267.881 331.761 264.371 334.4 263.922 336.59C263.474 338.781 266.561 348.465 268.329 351.553C270.098 354.641 277.117 362.98 277.117 362.98C277.117 362.98 290.312 395.966 295.59 407.393C300.867 418.819 314.511 443.889 321.979 450.935C338.815 466.768 363.436 460.541 377.845 450.935C389.72 443.018 398.956 421.854 398.508 414.439C398.059 406.97 398.508 399.476 386.184 383.642H386.21Z" fill="#7FCDEC"/>
<path d="M263.263 341.631C263.263 337.672 276.774 338.332 295.59 356.462C295.59 356.462 293.953 333.714 295.273 332.395C296.592 331.075 305.512 347.225 307.465 355.485C309.418 363.745 341.111 396.705 372.778 453.125C372.778 453.125 364.202 460.171 344.41 460.171C331.822 460.171 320.844 451.357 317.018 445.868C311.74 438.295 299.205 413.541 291.631 396.072C284.057 378.602 278.753 364.088 278.753 364.088L263.236 341.657L263.263 341.631Z" fill="#6EB3CD"/>
<path d="M392.781 389.263C372.804 361.238 345.967 334.4 317.44 314.74C311.845 307.061 301.844 293.18 296.487 294.156C289.784 295.37 286.063 314.925 285.905 323.871C276.932 325.401 262.154 329.914 260.333 335.403C258.249 341.71 266.113 354.72 275.639 364.616C277.566 369.761 300.656 434.098 322.348 454.471C334.171 465.581 371.01 466.399 387.318 447.214C403.258 428.53 404.181 405.255 392.781 389.263ZM326.597 450.618C305.248 430.536 279.914 363.296 279.65 362.636C279.545 362.346 279.36 362.056 279.123 361.845C272.631 355.379 265.559 340.892 266.904 336.88C267.643 334.69 277.777 330.442 288.623 327.803C289.652 327.539 290.391 326.589 290.338 325.507C289.863 315.347 294.745 300.648 297.305 300.12C299.416 300.199 307.227 308.407 314.009 317.696C314.168 317.907 314.352 318.091 314.59 318.25C348.183 340.654 367.949 365.434 382.384 383.537L389.324 392.14C393.995 397.787 396.291 404.701 396.291 412.063C396.291 422.144 391.989 433.096 383.65 442.912C377.053 450.671 363.146 456.608 349.846 457.347C340.055 457.902 331.822 455.527 326.65 450.645L326.597 450.618Z" fill="#0E141B"/>
<path d="M295.379 326.722C292.001 328.648 290.497 338.016 293.795 354.852C294.798 359.893 297.938 359.523 297.411 354.404C296.038 341.473 296.118 332.844 298.255 331.445C300.577 330.39 310.975 334.744 313.93 337.699C317.941 341.737 319.841 339.177 315.909 335.061C312.268 331.26 300.05 324.056 295.379 326.722Z" fill="#0E141B"/>
</g>
<defs>
<clipPath id="clip0_42_58860">
<rect width="497.147" height="520" fill="white" transform="translate(131 200)"/>
</clipPath>
</defs>
</svg>
