<svg width="800" height="800" viewBox="0 0 800 800" fill="none" xmlns="http://www.w3.org/2000/svg">
<g clip-path="url(#clip0_42_64807)">
<path d="M399.921 191.877C388.84 133.711 332.201 90.6165 272.188 92.4634C267.878 92.5866 264.899 95.2461 266.647 98.0042C268.395 100.738 277.901 141.961 275.882 156.49C273.567 173.186 241.8 213.523 241.48 246.62C241.283 266.764 246.897 288.213 257.905 297.792C264.037 303.111 330.624 286.76 348.995 282.179C367.218 277.624 397.385 268.438 405.142 261.494C411.15 256.101 403.935 203.057 399.921 191.877Z" fill="#A8D182"/>
<path d="M271.67 178.776L269.035 178.555C258.692 199.659 241.651 226.476 241.454 246.62C241.257 266.764 246.872 288.213 257.88 297.792C257.929 297.841 258.052 297.891 258.126 297.94C257.683 286.144 256.993 274.472 255.885 267.429C252.93 248.713 262.78 206.357 271.645 178.776H271.67Z" fill="#91B671"/>
<path d="M403.935 240.217C401.202 142.503 334.983 91.8477 268.888 95.3445C268.74 95.6647 283.91 140.828 277.704 162.646C272.951 179.343 257.807 197.541 250.542 219.285C235.126 265.434 254.187 288.607 260.491 294.566C269.356 302.963 262.165 304.121 254.655 298.26C240.372 287.104 230.127 251.274 244.09 217.389C251.773 198.772 267.854 179.293 271.843 160.011C276.128 139.301 268.642 110.785 263.569 96.1326C261.648 90.5672 265.785 90.0254 274.232 90.0254C329.295 90.0254 404.28 121.349 409.476 239.011C409.599 241.941 404.132 247.506 403.935 240.242V240.217Z" fill="#0E141B"/>
<path d="M309.938 272.649C373.571 275.481 415.016 230.416 441.686 223.817C508.963 207.17 575.945 244.552 579.589 341.601C581.215 384.942 514.479 502.53 384.973 530.16C332.791 541.291 250.714 270.014 309.938 272.649Z" fill="#F0E900"/>
<path d="M564.74 237.705C585.007 221.132 637.755 217.562 661.666 241.448C681.121 260.903 659.179 307.593 644.034 314.39C638.346 316.951 637.73 316.729 637.09 311.632C636.548 307.297 650.708 276.121 629.579 266.37C617.907 260.977 600.693 267.625 592.025 276.835C588.602 280.48 559.495 241.99 564.74 237.681V237.705Z" fill="#BF794E"/>
<path d="M534.032 232.411C543.858 228.175 569.641 232.14 583.284 253.761C597.887 276.884 590.376 296.191 582.865 306.706C578.753 312.444 577.201 308.11 574.246 298.506C568.853 280.972 552.551 251.939 538.12 243.517C531.545 239.675 528.442 234.824 534.008 232.435L534.032 232.411Z" fill="#F0E900"/>
<path d="M406.767 485.021C493.573 460.321 552.92 392.281 578.827 337.119C586.731 410.356 474.438 512.06 376.699 533.78C376.699 533.78 401.891 486.646 406.767 485.021Z" fill="#CFC900"/>
<path d="M572.202 288.655C581.117 285.675 585.328 282.08 588.627 268.954C588.627 265.531 591.903 279.223 590.277 287.842C589.095 294.048 586.583 301.386 579.097 308.946C576.733 305.08 575.921 297.692 572.227 288.655H572.202Z" fill="#CFC900"/>
<path d="M405.954 375.88C433.239 462.07 393.986 551.362 318.287 575.323C242.588 599.284 156.817 549.515 131.846 462.636C109.511 384.967 142.829 283.361 219.513 263.193C296.296 243 378.694 289.69 405.979 375.855L405.954 375.88Z" fill="#0E141B"/>
<path d="M374.999 537.053C435.948 522.253 499.26 491.693 535.583 445.889C574.959 396.219 607.367 328.942 556.219 258.734C524.231 214.851 451.61 200.223 400.684 241.939C377.856 260.63 344.882 270.604 304.25 267.944C292.232 267.156 304.521 273.214 310.357 274.297C334.736 278.804 376.403 266.59 405.584 245.288C462.568 203.646 527.851 225.317 552.624 261.788C603.722 337.019 565.331 396.638 526.102 445.298C486.676 494.229 439.223 511.122 378.693 527.72C367.858 530.7 365.149 539.442 374.999 537.053Z" fill="#0E141B"/>
<path d="M398.887 371.546C360.496 266.517 254.778 249.87 206.043 274.521C118.721 318.699 103.65 463.252 181.147 533.706C231.063 579.066 295.558 590.074 348.823 551.756C403.049 512.749 422.01 434.735 398.887 371.546Z" fill="#F5B2B2"/>
<path d="M275.438 295.846C346.237 319.954 379.186 402.081 351.137 474.086C328.383 532.523 252.659 556.287 198.089 499.795C155.166 455.371 154.181 398.953 164.893 362.286C185.653 291.29 245.419 285.626 275.413 295.846H275.438Z" fill="#0E141B"/>
<path d="M474.34 427.149C528.787 401.218 596.138 416.388 641.647 479.503C708.85 572.711 664.992 702.661 587.396 709.975C581.018 710.566 581.043 705.665 581.535 689.732C583.111 639.324 562.253 596.254 496.946 578.425C393.863 550.277 403.689 460.812 474.34 427.174V427.149Z" fill="#0E141B"/>
<path d="M581.239 316.556C619.704 266.393 565.232 213.128 525.413 232.828C522.778 234.134 528.269 239.896 531.151 237.754C555.358 219.9 610.765 266.073 578.752 306.705C575.354 311.04 577.053 321.973 581.214 316.556H581.239Z" fill="#0E141B"/>
<path d="M590.252 273.043C625.688 247.704 655.411 268.217 639.405 314.39C650.634 315.794 691.611 254.771 643.394 232.214C616.38 219.556 585.376 226.156 568.089 238.986C565.676 240.784 563.385 235.785 564.592 234.997C579.835 224.826 611.381 212.538 645.537 227.314C693.581 248.098 665.065 305.057 645.069 317.123C633.224 324.265 633.199 319.167 635.933 307.372C646.842 259.967 613.843 260.558 592.296 277.796C590.572 279.175 587.765 274.841 590.252 273.068V273.043Z" fill="#0E141B"/>
<path d="M496.084 371.767C500.787 393.832 488.277 415.232 468.134 419.516C447.99 423.801 427.846 409.371 423.143 387.306C418.439 365.242 430.924 343.842 451.068 339.557C471.212 335.272 491.356 349.678 496.059 371.767H496.084Z" fill="#0E141B"/>
<path d="M423.857 277.057C427.797 295.6 415.558 312.739 395.759 316.975C374.975 321.408 356.85 308.922 353.231 292.005C349.29 273.461 361.086 255.386 380.86 251.151C400.66 246.94 419.892 258.538 423.857 277.057Z" fill="#0E141B"/>
<path d="M419.153 277.056C422.576 293.112 411.47 309.069 394.331 312.714C377.191 316.358 360.544 306.336 357.121 290.28C353.698 274.224 364.805 258.266 381.944 254.622C399.059 250.977 415.73 261.025 419.153 277.056Z" fill="white"/>
<path d="M492.193 372.283C496.281 391.417 485.421 409.96 467.961 413.679C450.502 417.397 433.042 404.887 428.979 385.753C424.891 366.619 435.726 348.076 453.186 344.357C470.645 340.639 488.105 353.149 492.193 372.283Z" fill="white"/>
<path d="M406.398 286.315C408.245 294.983 403.221 303.43 395.144 305.153C387.067 306.877 379.039 301.213 377.192 292.545C375.345 283.852 380.368 275.43 388.446 273.706C396.498 271.983 404.551 277.622 406.398 286.315Z" fill="#0E141B"/>
<path d="M480.644 378.834C482.909 389.473 476.777 399.766 466.952 401.859C457.126 403.953 447.325 397.057 445.06 386.419C442.794 375.781 448.926 365.487 458.751 363.369C468.577 361.276 478.378 368.196 480.644 378.81V378.834Z" fill="#0E141B"/>
<path d="M296.813 314.094C345.153 337.316 361.972 400.505 353.132 444.61C348.945 465.566 335.253 511.788 298.758 503.268C247.167 491.201 215.942 440.866 217.099 389.62C218.478 328.697 270.217 301.337 296.813 314.118V314.094Z" fill="#EE869A"/>
<path d="M453.752 254.475C449.59 258.046 440.479 260.533 436.169 258.046C431.835 255.559 431.589 249.92 434.396 246.127C438.41 240.685 448.999 237.484 454.072 242.261C457.618 245.61 457.397 251.373 453.777 254.475H453.752Z" fill="#BBBD79"/>
<path d="M532.333 260.804C535.091 264.473 534.672 269.201 530.19 272.551C525.708 275.924 518.887 276.663 516.129 272.969C513.371 269.275 516.178 262.799 520.66 259.425C525.117 256.051 529.574 257.11 532.333 260.779V260.804Z" fill="#BBBD79"/>
<path d="M528.121 333.227C525.068 341.354 517.015 346.402 510.145 344.53C503.25 342.634 500.171 334.532 503.225 326.406C506.303 318.279 514.331 313.231 521.202 315.127C528.097 316.999 531.175 325.125 528.121 333.252V333.227Z" fill="#BBBD79"/>
<path d="M453.186 249.009C452.619 252.087 447.128 255.165 442.621 255.51C438.583 255.805 435.628 253.909 436.046 250.609C436.613 246.029 442.72 243.246 445.872 242.877C449.196 242.458 454.146 244.034 453.186 249.033V249.009Z" fill="#BBBD79"/>
<path d="M530.732 266.073C530.338 268.511 528.294 270.653 524.772 271.712C522.236 272.476 518.05 271.958 518.518 268.363C518.985 264.694 521.276 261.197 524.772 260.434C528.146 259.695 531.348 262.428 530.732 266.073Z" fill="#BBBD79"/>
<path d="M523.492 334.237C520.562 339.014 515.341 341.896 510.982 340.837C507.264 339.926 505.121 333.104 507.51 326.972C510.317 319.782 516.498 318.083 519.503 319.018C525.364 320.841 527.309 328.056 523.492 334.237Z" fill="#BBBD79"/>
<path d="M639.109 488.321C592.074 424.097 532.209 411.119 480.274 431.682C427.329 452.613 387.411 537.597 500.59 571.432C583.283 596.156 590.474 655.48 586.78 704.411C651.053 704.632 703.653 576.431 639.109 488.321Z" fill="#A8D182"/>
<path d="M530.757 568.969C473.059 549.293 454.344 540.501 433.56 476.229C418.932 509.202 429.89 550.302 500.591 571.431C582.422 595.885 590.302 654.247 586.879 702.883C600.275 672.101 590.253 589.26 530.757 568.969Z" fill="#91B671"/>
<path d="M233.402 556.656C222.715 552.642 221.385 559.316 224.168 562.591C264.997 581.405 309.914 579.78 348.823 551.78C371.996 535.109 388.692 511.32 398.444 484.602C382.067 506.174 329.96 592.856 233.402 556.656Z" fill="#D49A9C"/>
</g>
<defs>
<clipPath id="clip0_42_64807">
<rect width="549.694" height="620" fill="white" transform="translate(125 90)"/>
</clipPath>
</defs>
</svg>
