<svg width="800" height="800" viewBox="0 0 800 800" fill="none" xmlns="http://www.w3.org/2000/svg">
<g clip-path="url(#clip0_42_64840)">
<path d="M165.591 466.226C119.388 470.456 80.0911 495.301 75.3776 516.59C37.0303 543.214 37.7036 572.531 41.9856 592.836C45.5596 609.722 54.8313 621.566 59.4758 628.3C64.1203 635.033 63.9304 634.619 62.998 626.521C62.0484 618.424 63.6541 586.81 79.8667 571.098C89.6046 567.956 133.373 559.72 189.781 610.361C209.533 628.092 234.603 639.022 255.011 637.105C266.786 636 274.676 626.59 280.668 618.752C285.709 612.156 288.834 601.002 288.834 588.329C288.834 570.874 282.912 550.483 268.098 534.961C245.152 471.371 193.993 463.636 165.608 466.243L165.591 466.226Z" fill="#0E141B"/>
<path d="M79.8494 519.3L79.8149 516.123C82.2666 500.999 122.444 475.273 166.575 471.232C193.838 468.729 242.407 475.376 264.351 536.721L264.507 537.136L264.818 537.464C290.043 563.535 287.298 603.281 277.387 616.23C272.121 623.119 263.73 627.298 253.129 628.282C233.86 630.078 210.43 623.43 192.042 605.905C146.288 562.309 96.1656 560.583 76.7934 567.057C61.6858 583.46 59.0959 605.905 59.5276 622.308C27.0334 583.719 48.253 535.202 79.8494 519.3Z" fill="#A8D182"/>
<path d="M264.8 537.481L264.49 537.153L264.334 536.738C243.149 477.534 197.17 469.281 169.476 471.025C178.005 475.963 185.585 480.953 186.414 494.696C214.799 508.561 217.475 570.458 212.295 620.149C225.952 626.969 240.421 629.473 253.111 628.299C263.695 627.315 272.087 623.136 277.37 616.247C287.28 603.298 290.026 563.552 264.8 537.481Z" fill="#91B671"/>
<path d="M78.2955 516.762C78.2955 516.762 63.6714 528.796 77.6049 520.319C138.812 483.094 214.954 483.093 257.998 539.155L261.019 536.307C218.01 479.053 136.032 480.607 78.3127 516.745L78.2955 516.762Z" fill="#0E141B"/>
<path d="M231.098 404.794C226.177 412.719 225.503 418.797 229.095 422.854C252.593 442.9 254.683 477.483 245.687 498.651C235.656 522.288 200.675 593.457 228.128 652.523C241.146 680.546 289.611 737.005 392.774 721.587C488.634 707.256 529.433 636.466 523.96 556.785C518.78 481.282 482.884 432.765 446.005 388.789C416.083 353.1 414.356 323.749 413.959 285.28C413.925 281.776 411.749 286.834 408.348 285.902C383.019 279.03 255.373 365.687 231.098 404.794Z" fill="#0E141B"/>
<path d="M234.62 406.987C259.828 366.412 385.626 288.043 406.967 293.844C408.607 294.293 409.28 295.139 409.332 296.814C410.23 332.071 410.869 350.683 440.756 388.046C463.581 416.587 512.443 475.584 517.934 555.697C524.15 646.221 476.479 704.58 391.583 717.27C316.46 728.51 259.465 698.381 233.049 651.246C203.524 598.516 237.831 528.227 250.435 497.701C262.383 463.549 252.801 443.4 232.203 420.126C229.975 417.605 230.787 413.185 234.62 407.004V406.987Z" fill="#F0E900"/>
<path d="M242.303 429.95C241.647 430.727 240.749 432.385 242.01 434.906L242.251 435.406C264.99 476.43 301.248 471.25 293.41 439.291C292.702 436.408 287.522 434.163 278.751 431.504C266.631 427.827 246.671 424.771 242.303 429.95Z" fill="#0E141B"/>
<path d="M245.031 434.025L244.789 433.524C244.254 432.471 244.565 432.126 244.686 431.97C247.207 428.983 263.954 430.261 277.853 434.491C287.021 437.288 289.3 439.705 289.37 440.327C289.749 443.728 290.906 454.105 286.659 458.853C285.053 460.649 282.843 461.512 279.891 461.512C270.205 461.512 256.288 456.747 245.048 434.025H245.031Z" fill="white"/>
<path d="M358.018 390.29C341.305 399.389 316.874 423.285 319.101 430.433C320.724 435.63 324.799 440.223 333.501 443.106C366.548 454.018 387.646 441.587 390.392 416.81C391.6 406.002 387.128 396.23 381.172 389.099C378.185 385.507 371.745 382.814 358.001 390.29H358.018Z" fill="#0E141B"/>
<path d="M359.52 393.019C366.081 389.445 374.749 386.216 378.806 391.085C384.21 397.56 386.593 406.987 385.367 416.932C384.28 425.755 380.481 433.697 375.681 437.185C365.943 444.281 348.021 443.919 336.091 439.982C328.477 437.461 323.366 433.645 322.071 429.484C320.897 425.703 340.96 403.102 359.503 393.002L359.52 393.019Z" fill="white"/>
<path d="M289.352 440.327C289.283 439.705 287.021 437.271 277.836 434.491C263.92 430.261 247.172 428.983 244.668 431.97C244.548 432.126 244.237 432.471 244.772 433.524L245.014 434.025C249.037 442.157 253.405 447.958 257.808 452.085C270.032 456.988 278.837 456.988 288.955 454.261C290.354 449.202 289.646 442.848 289.37 440.31L289.352 440.327Z" fill="#DCDDDD"/>
<path d="M385.505 408.489C384.918 401.79 382.639 395.695 378.806 391.085C374.749 386.216 366.081 389.445 359.52 393.019C340.977 403.12 320.914 425.72 322.088 429.502C323.383 433.645 328.494 437.478 336.108 439.999C337.23 440.362 338.422 440.707 339.647 441.001C358.623 433.68 372.608 424.356 385.523 408.489H385.505Z" fill="#DCDDDD"/>
<path d="M319.067 194.461C248.622 194.461 176.072 266.476 176.072 341.099C176.072 409.005 227.092 448.337 279.01 448.337C357.189 448.337 425.7 369.57 425.424 303.512C425.165 239.179 386.749 194.461 319.067 194.461Z" fill="#0E141B"/>
<path d="M230.044 431.004C204.836 416.017 190.523 394.521 184.014 367.207C176.866 337.25 182.546 300.681 205.855 264.009C243.995 203.993 317.375 181.064 369.414 212.92C392.722 227.181 410.213 246.933 416.342 273.419C424.94 310.506 421.228 331.38 398.783 371.523C367.739 427.05 286.244 464.43 230.044 431.004Z" fill="#F5B2B2"/>
<path d="M208.687 364.547C254.907 413.081 337.282 399.493 357.863 356.259C375.56 319.069 385.281 277.925 420.451 299.766C420.002 291.668 418.604 283.104 416.359 273.418C410.23 246.933 392.74 227.181 369.431 212.919C317.392 181.064 244.012 203.975 205.872 264.008C184.186 298.126 177.781 332.122 182.736 360.818C191.611 355.154 204.836 359.385 208.704 364.53L208.687 364.547Z" fill="#D49A9C"/>
<path d="M221.377 273.92C204.664 299.456 198.845 329.774 205.406 357.123C210.534 378.481 222.983 395.764 240.438 405.761C282.204 429.674 340.079 409.991 372.176 360.956C388.82 335.524 394.932 306.138 388.941 280.308C384.055 259.209 371.814 242.323 353.564 231.463C312.109 206.825 252.801 225.869 221.36 273.92H221.377Z" fill="#0E141B"/>
<path d="M242.51 402.151C226.056 392.724 214.315 376.391 209.446 356.138C203.144 329.894 208.756 300.75 224.847 276.163C255.097 229.943 311.901 211.486 351.457 235.002C368.723 245.257 380.291 261.245 384.918 281.205C386.351 287.386 387.059 293.791 387.059 300.318C387.059 319.828 380.723 340.288 368.723 358.659C338.335 405.087 281.704 424.597 242.51 402.134V402.151Z" fill="#0E141B"/>
<path d="M228.767 371.522C224.588 374.595 215.973 385.473 216.974 393.985C217.855 401.426 221.86 404.793 224.588 405.743C228.698 407.176 234.551 405.466 236.346 403.671C238.332 401.685 236.346 393.07 234.154 381.64C233.428 377.876 232.755 374.302 232.548 372.161C232.462 371.246 231.926 370.883 231.616 370.745C230.631 370.313 229.544 370.987 228.801 371.539L228.767 371.522Z" fill="#0E141B"/>
<path d="M225.728 402.842C222.637 401.772 220.686 398.526 220.082 393.484C220.03 393.053 220.013 392.604 220.013 392.172C220.013 386.871 223.414 380.673 226.539 376.736C228.421 374.371 229.837 373.231 230.528 372.852C230.787 375.131 231.426 378.463 232.099 382.02C233.031 386.871 234.585 395.004 234.585 398.992C234.585 400.131 234.464 400.926 234.154 401.219C232.945 402.428 229.095 403.999 225.711 402.825L225.728 402.842Z" fill="white"/>
<path d="M334.381 357.762C333.587 358.781 334.381 360.007 336.263 362.976C338.888 367.12 342.306 374.769 345.276 386.026C346.036 388.875 350.646 392.346 354.272 391.914C356.24 391.672 363.612 392.259 364.303 378.084C364.735 369.382 341.081 358.764 337.904 357.71C336.453 357.227 335.107 356.864 334.381 357.779V357.762Z" fill="#0E141B"/>
<path d="M348.747 385.577C345.691 374.009 340.701 366.119 338.007 361.871C337.437 360.973 336.937 360.162 336.591 359.506C336.902 359.575 337.248 359.661 337.248 359.661C342.824 361.526 361.143 370.556 361.143 376.996V377.031C361.074 383.643 358.554 387.891 354.427 388.391C351.889 388.702 349.23 387.39 348.747 385.56V385.577Z" fill="white"/>
<path d="M283.188 187.52L272.777 190.663C227.023 163.469 188.796 174.381 161.655 220.757C151.899 237.436 133.753 264.733 120.666 266.597C107.595 268.462 114.433 271.587 121.909 274.695C129.385 277.803 136.654 277.889 146.202 277.181C156.112 276.456 178.368 273.107 177.246 298.625C176.227 321.796 174.449 337.491 191.024 344.984C220.393 358.261 261.762 392.361 261.762 392.361C263.989 391.015 266.803 388.977 270.343 386.37C282.204 377.703 300.143 364.598 321.018 360.264C365.063 351.148 371.019 325.439 368.861 307.034C362.317 250.886 384.349 252.457 415.824 255.979C430.914 257.671 441.705 258.534 457.555 250.989C470.626 244.756 465.031 244.135 458.177 241.027C452.6 238.489 441.809 226.023 434.54 216.371C424.025 202.386 411.335 186.778 391.686 176.764C357.483 159.308 327.889 163.296 283.206 187.486L283.188 187.52Z" fill="#0E141B"/>
<path d="M273.848 191.872L280.702 193.115C359.365 146.497 402.857 182.255 433.901 223.555C440.411 232.222 447.144 240.302 455.484 245.862C442.793 252.889 429.032 251.508 415.669 250.006C379.877 245.983 360.608 250.558 362.732 281.516C365.425 320.864 365.304 346.901 320.189 356.225C298.417 360.731 279.321 374.699 267.908 383.039C265.232 384.99 262.97 386.613 261.054 387.856C249.935 375.321 218.01 354.861 196.393 343.016C181.13 334.643 181.597 334.125 181.389 298.609C181.251 274.247 176.192 270.241 149.879 272.158C142.317 272.71 134.565 273.228 127.676 271.018C139.106 265.182 158.34 234.311 165.177 222.898C172.031 211.503 190.299 179.63 225.555 180.425C253.578 181.046 266.872 195.273 273.848 191.855V191.872Z" fill="#A8D182"/>
<path d="M246.861 201.49C229.854 240.614 248.156 289.804 254.648 308.641C269.151 248.556 304.891 196.379 359.848 186.555C372.366 184.31 382.156 183.982 394.328 184.638C366.858 167.2 330.946 163.367 280.702 193.133L273.848 191.89C268.927 194.307 260.881 187.953 246.74 183.775C250.781 188.04 250.263 193.634 246.844 201.49H246.861Z" fill="#91B671"/>
<path d="M517.934 555.696C514.325 503.07 492.001 459.543 470.643 427.791C478.033 449.08 484.145 476.636 484.145 493.418C484.145 578.642 406.19 672.292 309.415 672.292C285.726 672.292 242.631 654.301 224.899 631.113C226.557 638.157 229.526 644.908 233.066 651.227C259.465 698.38 316.477 728.492 391.6 717.252C476.496 704.561 524.167 646.203 517.951 555.679L517.934 555.696Z" fill="#CFC900"/>
<path d="M252.68 346.314C255.58 362.682 259.517 369.795 257.79 357.709C253.871 330.274 256.634 295.552 259.897 273.038C261.192 264.163 258.429 260.296 255.822 272.313C251.281 293.204 249.296 327.166 252.697 346.297L252.68 346.314Z" fill="#0E141B"/>
<path d="M371.175 85.2731C278.941 117.491 251.558 208.948 256.426 247.917C258.205 262.178 260.795 269.43 262.728 257.931C273.295 195.429 307.775 135.689 379.825 110.136C469.175 78.4358 588.516 111.068 522.492 346.504C484.248 482.887 534.354 564.916 627.261 575.258C684.151 581.578 712.675 544.594 725.658 517.435C730.562 507.197 731.96 501.654 728.611 499.807C722.551 496.457 709.826 512.929 700.226 527.346C691.438 540.537 669.976 551.742 645.977 554.35C593.8 560.047 510.251 488.912 546.768 358.349C570.249 274.402 587.705 182.289 541.156 124.087C508.697 83.4947 442.327 60.3931 371.14 85.2558L371.175 85.2731Z" fill="#0E141B"/>
<path d="M260.449 235.987C260.449 225.593 261.917 212.022 267.235 196.966C286.642 141.957 322.606 106.96 372.901 89.5212C442.396 65.4182 507.091 85.3084 541.605 133.394C581.817 189.386 562.98 279.945 541.605 358.902C504.76 495.094 594.611 564.14 646.443 558.494C671.703 555.732 694.356 543.663 703.679 529.66C717.492 508.959 724.64 503.9 726.487 503.572C726.539 503.744 726.591 503.9 726.591 504.28C726.591 505.903 725.227 508.717 722.205 515.416C705.302 552.986 668.509 576.899 621.494 570.097C542.071 558.58 490.222 479.244 524.806 357.296C541.415 298.696 549.409 249.385 544.23 197.156C527.931 32.8204 282.032 83.012 261.123 248.194C260.726 244.913 260.415 240.787 260.415 236.004L260.449 235.987Z" fill="#BF794E"/>
<path d="M284.104 505.004C280.305 505.781 277.577 507.957 276.248 511.289C272.069 521.718 276.299 528.054 281.376 534.149L282.843 535.945C289.594 544.18 296.552 552.157 301.058 551.415C301.991 551.259 303.251 550.655 303.994 548.687C306.791 541.228 314.215 521.407 303.752 510.927C299.764 506.938 290.906 503.606 284.104 505.004Z" fill="#BBBD79"/>
<path d="M284.449 533.977L283.033 532.25C278.389 526.69 274.849 521.355 278.44 512.377C279.459 509.822 281.496 508.216 284.483 507.594C290.285 506.403 298.089 509.338 301.473 512.722C304.909 516.158 306.083 520.855 306.083 525.758C306.083 533.89 302.837 542.558 301.231 546.822C300.834 547.875 300.351 548.083 300.023 548.134C296.518 548.722 288.075 538.397 284.466 533.994L284.449 533.977Z" fill="#BBBD79"/>
<path d="M402.598 451.653C401.355 452.033 400.44 452.81 399.853 453.967C399.059 455.573 398.748 457.23 398.748 458.957C398.748 461.529 399.422 464.223 400.112 467.003C400.924 470.248 401.822 473.874 401.822 477.828C401.822 478.553 401.787 479.313 401.718 480.073C401.597 481.437 401.528 482.732 401.528 483.958C401.528 489.5 402.788 493.661 405.275 496.389C407.502 498.823 410.662 500.049 414.667 500.049C423.611 500.049 433.314 498.754 435.524 483.284C437.527 469.299 436.491 466.64 427.064 461.408L423.784 459.561C416.083 455.175 407.364 450.203 402.581 451.653H402.598Z" fill="#BBBD79"/>
<path d="M407.623 493.851C405.102 491.088 404.135 486.357 404.739 479.762C405.188 474.755 404.101 470.386 403.134 466.519C402.063 462.254 401.148 458.559 402.719 455.417C403.013 454.83 403.462 454.45 404.101 454.26C407.847 453.121 416.515 458.076 422.851 461.685L426.011 463.48C434.057 467.952 434.972 469.299 433.09 482.403C431.381 494.386 425.199 496.734 415.099 496.734C411.853 496.734 409.332 495.784 407.606 493.885L407.623 493.851Z" fill="#BBBD79"/>
<path d="M360.073 597.134C353.944 606.337 348.988 613.709 355.066 623.827C359.503 631.217 366.047 646.048 369.414 654.474L372.107 661.104L372.867 662.968C374.507 667.009 376.734 670.634 380.429 671.014C383.692 671.342 387.37 668.269 391.997 661.311C396.452 654.646 401.977 649.018 406.863 644.045C414.926 635.844 422.247 627.608 420.969 619.217C419.433 609.289 415.669 607.804 411.715 604.748L407.554 601.191C404.809 598.446 401.045 596.702 397.712 595.183C393.638 593.318 390.547 590.694 389.597 587.862C389.166 586.55 387.612 585.894 384.711 585.514C378.029 584.616 364.752 590.124 360.056 597.168L360.073 597.134Z" fill="#BBBD79"/>
<path d="M380.498 667.336C378.15 667.094 376.614 663.261 375.25 659.894L374.49 658.047L371.883 651.659C368.585 643.423 363.595 631.009 359.21 623.671C353.926 614.848 357.103 608.874 362.991 600.051C367.117 593.853 378.409 587.654 384.176 588.431C385.609 588.621 386.472 589.226 386.818 590.279C388.026 593.87 391.997 595.7 396.193 597.634C399.422 599.119 402.737 600.638 405.154 603.038L409.384 606.664C413.148 609.599 415.876 611.723 417.223 620.546C418.31 627.659 412.216 633.875 404.48 641.748C399.681 646.634 394.242 652.177 389.805 658.807C384.918 666.127 382.052 667.474 380.516 667.319L380.498 667.336Z" fill="#BBBD79"/>
<path d="M449.889 656.564C448.284 657.22 447.472 660.086 446.747 664.005C446.074 667.683 446.039 671.896 445.21 674.537C443.881 678.716 442.016 680.58 443.121 682.445C443.622 683.274 444.451 683.809 445.625 684.051C447.075 684.344 448.266 684.914 449.32 685.432C451.685 686.572 454.12 687.763 456.64 683.55C457.814 681.616 459.144 680.321 460.422 679.061C462.286 677.248 464.047 675.522 464.686 672.327C465.791 666.802 459.627 661.605 459.368 661.381L459.23 661.277L459.075 661.208C457.918 660.742 456.796 659.965 455.708 659.223C453.757 657.876 451.702 655.787 449.872 656.547L449.889 656.564Z" fill="#94955F"/>
<path d="M451.115 683.049C450.045 682.531 448.715 681.874 447.058 681.546C446.367 681.408 446.143 681.149 446.039 680.977C445.452 679.975 446.298 677.299 447.282 674.174C448.094 671.584 449.112 668.338 449.786 664.678C450.476 660.897 451.305 660.016 451.754 659.843C452.479 659.55 453.861 660.499 455.207 661.415C456.209 662.105 457.365 662.848 458.574 663.383C458.678 663.469 463.046 667.199 463.046 670.98C463.046 671.273 463.029 671.584 462.96 671.878C462.476 674.329 461.129 675.624 459.437 677.265C458.177 678.49 456.744 679.889 455.466 681.995C454.016 684.413 453.343 684.084 451.098 683.014L451.115 683.049Z" fill="#94955F"/>
<path d="M340.528 694.961C338.094 697.396 335.797 699.692 336.022 701.988C336.125 703.007 336.695 703.853 337.714 704.544C340.908 706.667 348.194 707.738 352.424 706.667L355.152 706.322C356.931 706.219 358.623 706.098 359.365 704.734C360.004 703.542 358.605 701.332 357.034 698.604C355.066 695.151 352.666 693.407 348.66 692.872C345.414 692.44 342.22 693.252 340.511 694.961H340.528Z" fill="#94955F"/>
<path d="M338.577 702.627C337.904 702.179 337.869 701.816 337.869 701.695C337.748 700.469 339.889 698.328 341.599 696.619C342.773 695.445 345.224 694.875 347.676 695.203C349.558 695.445 353.028 696.429 355.187 700.193C356.706 702.852 356.447 703.491 356.413 703.56C356.257 703.853 354.928 703.94 354.064 704.009L351.077 704.389C347.521 705.269 341.219 704.389 338.594 702.627H338.577Z" fill="#94955F"/>
<path d="M318.376 633.807C312.057 628.126 297.571 628.109 291.752 631.217C289.335 632.512 288.42 635.205 289.594 636.621L290.768 643.441C290.906 650.693 290.44 659.74 295.205 662.917C301.387 667.043 313.196 669.202 318.411 668.166C321.052 667.648 324.246 666.698 325.593 664.143C326.577 662.261 326.439 659.843 325.127 656.805C324.16 654.543 324.229 652.333 324.315 650.002C324.471 645.634 325.11 639.867 318.393 633.824L318.376 633.807Z" fill="#BBBD79"/>
<path d="M297.07 659.481C293.392 657.029 293.254 649.397 293.134 643.268L292.771 636.431C292.598 635.24 293.289 634.204 294.826 633.392C299.798 630.733 310.451 631.596 315.769 636.396C321.501 641.559 321.363 645.426 321.225 649.536C321.139 651.901 321.052 654.37 322.175 656.96C323.159 659.256 323.331 661.035 322.692 662.243C322.002 663.573 320.31 664.436 317.219 665.04C312.713 665.938 302.561 663.141 297.07 659.498V659.481Z" fill="#BBBD79"/>
<path d="M244.91 575.223C243.115 575.638 242.407 578.901 240.956 583.028L237.52 591.781C233.567 600.466 237.9 603.125 241.388 605.249C242.666 606.026 243.857 606.751 244.565 607.718C245.756 609.323 247.068 609.496 247.949 609.375C251.402 608.874 254.406 602.676 256.323 597.548C256.789 596.305 257.013 595.01 257.013 593.681C257.013 588.898 254.044 583.511 248.156 577.606C247.414 576.864 246.188 574.93 244.893 575.223H244.91Z" fill="#BBBD79"/>
<path d="M246.326 605.18C245.411 603.954 244.03 603.108 242.7 602.297C239.506 600.346 236.761 598.654 239.782 591.972L243.149 583.391C243.943 581.129 244.927 578.332 245.532 578.194C245.532 578.194 245.843 578.159 246.654 578.971C253.284 585.601 255.77 591.316 254.027 595.943C251.368 603.056 248.916 605.802 247.621 605.974C247.448 606.009 246.982 606.061 246.326 605.18Z" fill="#BBBD79"/>
<path d="M726.504 503.572C724.657 503.9 717.509 508.958 703.696 529.66C694.373 543.663 671.703 555.731 646.46 558.494C594.611 564.157 504.76 495.094 541.622 358.902C552.759 317.757 563.187 273.453 564.949 232.551C559.147 213.023 553.018 199.193 542.814 186.555C543.401 189.991 543.902 193.496 544.281 197.156C549.461 249.385 541.484 298.696 524.857 357.296C490.274 479.244 542.123 558.58 621.546 570.097C668.56 576.917 705.354 552.986 722.257 515.416C725.278 508.717 726.642 505.902 726.642 504.279C726.642 503.9 726.573 503.744 726.539 503.572H726.504Z" fill="#985E3B"/>
<path d="M516.138 439.532C482.28 446.386 463.115 464.774 453.032 479.934C434.816 507.265 442.362 528.226 442.362 528.226C421.435 558.027 421.401 582.562 427.927 601.14C439.772 634.877 493.399 654.871 571.233 579.454C601.794 549.86 647.272 549.895 675.277 563.034C675.881 564.173 685.55 576.588 689.003 589.382C692.456 602.175 691.144 617.49 690.419 622.273C689.694 627.073 689.694 628.109 695.564 623.965C701.452 619.804 712.467 611.154 712.864 584.185C713.158 564.605 704.629 544.093 698.206 536.22C683.271 434.974 570.612 428.499 516.138 439.532Z" fill="#0E141B"/>
<path d="M433.418 600.587C420.348 570.786 441.412 535.426 445.556 530.591C449.717 525.757 448.387 525.912 448.387 525.912L448.163 525.135C439.167 491.743 473.544 453.448 515.879 444.746C572.563 433.091 676.606 437.598 694.235 537.446L694.338 537.998L694.701 538.43C700.623 545.354 708.721 569.215 708.721 588C708.721 590.521 707.961 592.765 707.685 595.269C706.424 606.492 702.022 610.515 695.34 617.179C695.737 613.881 695.996 610.704 695.996 607.769C695.996 590.262 689.538 578.383 683.236 566.815L678.488 560.893C660.187 551.742 604.47 538.672 567.625 575.569C496.317 646.963 447.679 633.15 433.401 600.604L433.418 600.587Z" fill="#A8D182"/>
<path d="M708.496 582.596C706.165 578.469 703.748 576.553 701.158 575.258C692.991 571.183 692.284 568.628 683.254 565.33V566.798C689.556 578.366 696.013 590.245 696.013 607.752C696.013 609.375 695.927 611.084 695.789 612.828C695.668 614.244 695.53 615.677 695.357 617.162C702.039 610.48 706.442 606.474 707.702 595.252C707.978 592.765 708.738 590.504 708.738 587.983C708.738 587.62 708.513 582.958 708.513 582.596H708.496Z" fill="#91B671"/>
<path d="M727.16 421.093C732.582 432.367 731.529 449.098 711.708 468.919C702.488 478.139 695.771 487.255 695.495 501.707C695.219 515.985 712.536 533.631 732.91 527.985C758.843 520.785 763.919 492.659 757.445 460.286C753.128 438.669 740.179 425.133 733.946 419.936C727.713 414.756 721.722 409.835 727.143 421.11L727.16 421.093Z" fill="#0E141B"/>
<path d="M732.029 422.457C752.679 441.052 765.042 487.359 748.639 511.479C734.585 532.164 700.951 526.414 700.519 500.153C700.243 483.198 717.906 470.801 726.107 457.42C734.153 444.298 736.346 433.68 732.029 422.457Z" fill="#F0E900"/>
<path d="M601.984 483.663C629.574 486.65 684.031 512.013 700.917 575.24C702.384 577.07 705.578 581.128 708.652 585.22C707.926 566.918 700.329 544.991 694.684 538.412L694.321 537.981L694.217 537.428C676.589 437.58 572.545 433.074 515.862 444.728C505.502 446.852 495.609 450.771 486.717 455.951C527.706 446.248 556.989 448.855 601.966 483.68L601.984 483.663Z" fill="#91B671"/>
<path d="M447.714 523.081C443.225 527.639 434.264 541.124 446.592 529.193C481.089 495.835 546.371 474.737 598.289 484.492C666.178 497.234 689.348 530.937 697.308 541.313C705.268 551.69 705.958 548.22 694.2 532.663C682.442 517.107 654.178 490.88 599.031 480.9C545.818 471.283 480.139 490.12 447.714 523.081Z" fill="#0E141B"/>
<path d="M754.509 466.398C749.295 493.264 728.904 518.386 704.646 513.828C714.125 527.657 737.503 527.865 748.639 511.479C756.599 499.773 757.773 482.835 754.527 466.398H754.509Z" fill="#CFC900"/>
<path d="M49.3062 606.442C51.827 611.829 55.1939 617.164 59.5276 622.309C59.0959 606.01 61.6685 583.755 76.5171 567.387C67.3662 570.046 55.332 581.009 53.2774 586.707C51.2227 592.388 49.3235 606.459 49.3235 606.459L49.3062 606.442Z" fill="#91B671"/>
<path d="M678.747 561.205L683.236 566.799C689.521 578.367 695.996 590.246 695.996 607.754C695.996 610.706 695.737 613.866 695.34 617.163C702.021 610.482 706.424 606.476 707.685 595.253C707.944 592.905 708.721 590.591 708.721 588.433C708.721 586.275 678.764 561.205 678.764 561.205H678.747Z" fill="#91B671"/>
<path d="M48.9091 598.361C48.2876 604.611 49.9796 613.814 50.8774 611.086C50.4803 587.19 62.3764 570.494 82.8191 568.785C98.3583 567.49 89.5355 564.848 80.6609 566.195C60.8053 569.216 50.4803 582.235 48.9091 598.361Z" fill="#0E141B"/>
<path d="M681.959 565.675C699.639 577.105 709.377 586.601 707.253 602.866L708.496 597.254C713.21 578.297 685.481 563.379 675.605 559.719C665.729 556.058 679.455 564.052 681.959 565.675Z" fill="#0E141B"/>
<path d="M280.512 446.802C281.617 449.771 281.082 452.482 279.321 452.845C277.56 453.207 275.246 451.101 274.141 448.131C273.036 445.161 279.407 443.832 280.512 446.802Z" fill="#0E141B"/>
<path d="M364.424 414.601C365.546 418.244 364.338 424.667 362.559 425.116C360.781 425.565 358.882 424.425 357.759 420.799C356.637 417.156 363.319 410.975 364.424 414.618V414.601Z" fill="#0E141B"/>
<path d="M372.867 662.952C374.507 666.992 376.734 670.618 380.429 670.998C383.692 671.326 387.37 668.253 391.997 661.294C396.452 654.63 401.977 649.001 406.863 644.029C412.008 638.797 416.843 633.531 419.346 628.23C416.273 630.958 413.113 633.6 409.885 636.121C408.244 637.917 406.397 639.799 404.463 641.767C399.663 646.653 394.225 652.195 389.787 658.825C384.901 666.146 382.035 667.493 380.498 667.337C378.15 667.096 376.613 663.263 375.249 659.896L374.49 658.048L374.386 657.807C373.368 658.273 372.349 658.722 371.313 659.171L372.107 661.104L372.867 662.969V662.952Z" fill="#94955F"/>
<path d="M374.49 658.031L375.249 659.878C376.613 663.263 378.167 667.096 380.498 667.32C382.035 667.475 384.918 666.129 389.787 658.808C394.207 652.178 399.646 646.636 404.463 641.749C406.397 639.781 408.244 637.916 409.885 636.104C398.921 644.65 387.025 651.988 374.386 657.789L374.49 658.031Z" fill="#94955F"/>
</g>
<defs>
<clipPath id="clip0_42_64840">
<rect width="720" height="649.21" fill="white" transform="translate(40 75)"/>
</clipPath>
</defs>
</svg>
