<svg width="800" height="800" viewBox="0 0 800 800" fill="none" xmlns="http://www.w3.org/2000/svg">
<g clip-path="url(#clip0_42_64905)">
<path d="M405.691 403.549C405.691 403.549 308.226 381.73 216.5 392.279C208.886 393.151 195.628 395.688 205.098 417.204C212.939 435.008 235.611 465.956 266.35 483.437C312.658 509.802 338.265 491.43 363.228 494.839C410.502 501.298 416.393 520.484 453.42 516.204C481.243 512.984 515.657 489.858 525.619 468.494C534.9 448.607 535.336 443.815 527.04 438.588C514.975 430.974 478.516 425.784 405.673 403.549H405.691Z" fill="#0E141B"/>
<path d="M310.537 447.13C289.646 457.149 274.816 482.32 270.782 522.606C259.077 639.636 234.626 670.451 200.136 676.493C143.146 686.474 128.202 615.241 100.417 634.465C89.0151 640.166 93.6743 660.053 102.216 674.296C110.758 688.539 132.463 709.979 175.211 711.399C217.94 712.82 252.77 688.842 269.949 642.306C292.033 582.475 279.911 469.933 321.939 454.971C321.939 454.971 327.602 438.948 310.537 447.13Z" fill="#968C87"/>
<path d="M304.912 449.308C286.862 460.842 274.797 482.301 270.763 522.586C270.308 527.17 269.816 531.602 269.324 535.92C273.49 527.776 281.786 518.855 289.741 522.511C294.76 489.138 302.658 461.808 321.901 454.952C321.901 454.952 320.84 439.118 304.893 449.308H304.912Z" fill="#766E6B"/>
<path d="M469.368 477.755C475.769 480.596 495.259 499.006 498.819 538.192C502.38 577.36 504.179 623.915 506.414 640.165C509.331 661.435 517.096 698.576 555.563 709.978C594.031 721.38 631.058 694.315 655.282 687.894C679.507 681.492 725.076 675.072 700.871 656.548C689.734 642.343 658.275 646.245 648.881 649.427C617.535 660.014 587.155 695.072 557.704 680.053C536.131 669.049 519.937 643.442 517.797 572.209C515.43 493.134 492.171 482.736 480.069 473.475L469.387 477.755H469.368Z" fill="#968C87"/>
<path d="M480.05 473.475L469.368 477.755C474.747 480.141 489.349 493.513 495.997 520.919C499.084 515.048 504.179 509.309 510.24 515.502C501.774 486.657 488.327 479.782 480.069 473.475H480.05Z" fill="#766E6B"/>
<path d="M462.606 445.178L484.633 425.992C484.633 425.992 524.672 430.5 532.514 444.25C527.741 442.432 522.968 446.675 517.494 453.379C512.02 460.065 501.073 472.85 479.16 469.194L462.606 445.197V445.178Z" fill="#00B9EF"/>
<path d="M513.1 433.113C499.747 428.852 484.633 425.973 484.633 425.973L462.606 445.159L470.106 456.03C479.33 442.867 490.258 433.265 513.1 433.094V433.113Z" fill="#00A2D0"/>
<path d="M349.686 438.587C345.974 419.003 307.242 390.271 279.57 389.476C236.785 388.245 215.686 388.264 207.769 395.556C207.807 395.442 212.864 407.488 227.239 419.894C240.63 431.447 259.494 441.807 275.915 439.97C313.946 435.746 324.894 458.815 323.246 456.618C323.246 456.618 351.713 449.269 349.686 438.568V438.587Z" fill="#00B9EF"/>
<path d="M323.359 456.6L323.246 456.619C323.397 456.827 323.435 456.808 323.359 456.6Z" fill="#00A2D0"/>
<path d="M349.686 438.588C345.974 419.004 307.241 390.272 279.57 389.476C236.785 388.245 216.254 388.946 208.337 396.257C210.534 402.223 213.848 408.341 227.239 419.894C236.084 427.527 247.334 434.629 258.679 438.039C279.116 423.057 315.48 418.057 324.344 431.637C326.92 436.448 326.788 449.024 322.924 454.062C325.026 456.24 323.151 456.069 323.359 456.6C325.197 456.107 351.656 448.91 349.686 438.588Z" fill="#00A2D0"/>
<path d="M418.533 423.511C370.615 414.534 338.644 429.155 338.644 429.155C333.17 430.973 329.799 432.564 327.375 439.25C324.931 445.936 317.299 470.388 321.541 469.781C325.803 469.175 350.5 462.3 366.561 465.52C403.078 472.831 421.923 503.854 430.446 506.904C438.969 509.953 462.095 469.781 484.595 477.092C483.989 462.49 473.042 449.705 471.205 448.493C471.205 448.493 466.432 432.489 418.495 423.511H418.533Z" fill="#00B9EF"/>
<path d="M435.408 496.714C392.206 462.925 386.657 462.376 351.485 459.042C346.807 458.607 354.383 427.432 368.929 422.488C358.133 422.488 336.068 429.629 336.068 429.629C330.595 431.447 327.147 437.527 325.5 445.841C324.098 452.83 317.943 470.88 322.204 470.274C326.466 469.668 350.5 462.319 366.58 465.539C403.097 472.85 421.942 503.873 430.465 506.923C434.708 508.438 455.617 485.937 468.364 478.456C459.216 476.24 439.272 497.017 435.408 496.733V496.714Z" fill="#00A2D0"/>
<path d="M437.056 465.975C443.988 456.562 435.37 426.58 418.4 423.398C409.593 421.75 405.862 421.637 398.267 421.391C410.805 438.285 421.809 454.914 437.037 465.975H437.056Z" fill="#00A2D0"/>
<path d="M411.714 422.11C383.854 418.208 351.353 425.993 351.353 425.993C354.402 430.254 378.115 448.512 387.869 447.281C397.604 446.069 415.862 438.758 418.893 435.728C418.893 435.728 419.196 429.004 411.714 422.11Z" fill="white"/>
<path d="M415.881 427.982C415.881 427.982 412.908 423.171 411.487 421.864C383.626 417.963 351.372 425.974 351.372 425.974C352.546 427.622 351.106 427.868 356.447 431.751C369.876 425.785 405.01 426.201 415.862 427.963L415.881 427.982Z" fill="#DCDDDD"/>
<path d="M462.72 434.799L455.409 444.231C457.833 448.265 470.523 459.875 476.091 440.424L462.72 434.799Z" fill="white"/>
<path d="M473.667 439.439C473.534 438.776 463.894 434.553 463.894 434.553L457.719 442.489C463.079 439.799 467.909 438.663 473.686 439.439H473.667Z" fill="#DCDDDD"/>
<path d="M462.72 434.8C468.61 436.789 473.61 441.183 477.322 441.183C482.19 441.183 496.054 410.557 499.842 398.587C539.465 374.022 501.054 275.685 498.024 264.719C494.975 253.772 483.118 218.354 465.447 217.407C436.223 179.697 380.482 184.906 366.24 192.425C313.208 189.262 271.047 273.867 263.149 309.758C259.683 325.497 261.577 343.301 271.445 354.608C271.445 362.525 275.934 384.609 282.013 401.636C288.093 418.682 290.536 417.47 303.302 418.076C328.189 419.231 331.144 426.75 335.405 430.766C347.584 425.822 374.497 416.864 414.044 422.337L462.72 434.819V434.8Z" fill="#00B9EF"/>
<path d="M308.776 369.948C295.252 361.274 308.946 344.417 314.628 346.311C293.624 326.917 264.948 301.461 263.13 309.757C259.664 325.496 261.558 343.3 271.426 354.607C271.426 362.524 275.915 384.608 281.994 401.635C288.074 418.681 290.517 417.469 303.283 418.075C328.17 419.23 331.125 425.992 335.386 429.988C336.39 429.42 350.178 426.56 351.353 425.973C336.674 426.257 311.617 392.771 308.757 369.948H308.776Z" fill="#00A2D0"/>
<path d="M345.652 219.186C361.448 207.008 375.047 204.413 380.558 206.44C402.434 188.428 432.359 197.027 447.303 201.724C420.995 182.613 374.213 187.595 364.743 192.595C347.659 191.572 333.454 198.409 316.56 214.47C328.075 211.326 337.943 220.721 345.633 219.186H345.652Z" fill="#00A2D0"/>
<path d="M453.401 369.854C434.575 364.872 416.203 349.853 427.094 318.053C405.01 340.137 413.04 368.073 418.779 379.532C424.518 391.01 445.371 379.816 453.401 369.835V369.854Z" fill="#00A2D0"/>
<path d="M435.332 392.506L413.192 422.185C413.192 422.185 434.234 461.542 435.446 465.197C436.658 468.853 456.64 444.553 462.72 434.818C460.901 417.791 455.409 397.392 455.409 397.392L435.332 392.525V392.506Z" fill="#00B9EF"/>
<path d="M434.026 394.779L413.002 421.371C413.002 421.371 434.234 461.543 435.465 465.179C435.73 465.956 436.81 465.463 438.439 464.156C427.34 443.038 428.76 416.958 434.045 394.779H434.026Z" fill="#00A2D0"/>
<path d="M368.209 298.167C354.421 340.157 316.598 358.718 290.745 350.233C264.873 341.748 248.925 302.296 261.786 260.022C273.187 222.521 311.655 191.384 344.667 201.195C367.073 207.862 381.979 256.177 368.19 298.167H368.209Z" fill="#BB0132"/>
<path d="M300.272 308.584C318.757 267.163 347.432 228.298 372.338 247.938C368.891 224.245 358.152 205.191 344.667 201.195C311.654 191.384 273.187 222.521 261.786 260.022C252.05 292.012 258.831 322.373 273.907 338.945C284.343 339.191 288.567 334.854 300.272 308.603V308.584Z" fill="#9A0025"/>
<path d="M484.008 236.137C478.061 237.842 476.47 257.521 484.008 275.078C492.058 293.828 500.278 315.609 503.46 336.576C505.827 352.22 509.464 374.816 516.263 368.793C527.873 358.49 533.29 310.382 521.737 280.57C510.183 250.759 494.009 233.296 484.008 236.156V236.137Z" fill="#BB0132"/>
<path d="M514.918 265.325C504.407 244.983 492.171 233.809 484.008 236.138C478.061 237.843 476.47 257.521 484.008 275.079C488.819 286.291 493.687 298.602 497.512 311.159C498.744 293.432 501.641 260.798 514.918 265.344V265.325Z" fill="#9A0025"/>
<path d="M465.769 343.831C465.769 358.623 457.739 370.612 447.814 370.612C437.889 370.612 429.859 358.623 429.859 343.831C429.859 329.038 437.889 317.068 447.814 317.068C457.739 317.068 465.769 329.057 465.769 343.831Z" fill="#BB0132"/>
<path d="M465.769 343.831C465.769 329.038 457.739 317.068 447.814 317.068C443.42 317.068 439.386 319.436 436.28 323.356C451.128 330.932 457.038 351.653 454.007 368.945C460.864 365.176 465.769 355.384 465.769 343.849V343.831Z" fill="#9A0025"/>
<path d="M175.665 711.966C175.665 711.966 141.119 712.989 116.497 691.094C91.875 669.2 87.4241 641.15 97.6896 636.377C107.955 631.585 116.838 643.214 120.607 650.392C124.376 657.57 136.687 676.037 156.517 684.257C176.347 692.458 186.272 696.909 185.931 702.383C185.59 707.856 181.139 711.625 175.665 711.966Z" fill="#766E6B"/>
<path d="M701.515 655.261C691.533 639.749 656.286 644.238 648.085 647.022C637.403 650.639 627.024 656.738 616.758 662.95C593.5 677.061 575.848 686.228 558.423 677.345C541.415 668.67 523.081 650.204 520.733 572.171C518.63 502.358 499.387 486.581 485.22 475.672C484.728 476.562 484.065 477.073 483.497 477.604C496.187 486.922 514.369 503.627 516.433 572.266C518.29 634.256 530.828 667.856 557.079 681.265C577.288 691.588 598.122 678.936 618.274 666.719C628.407 660.583 638.899 654.219 649.278 650.715C658.881 647.476 686.06 644.579 697.822 655.28C699.053 655.185 700.284 655.109 701.515 655.28V655.261Z" fill="#0E141B"/>
<path d="M697.708 653.878C692.329 652.817 672.726 651.169 656.968 657.855C655.983 658.272 645.737 663.026 642.479 665.829C639.221 668.613 639.051 669.655 643.218 667.287C647.366 664.92 658.54 660.052 659.62 659.711C677.442 654.237 693.901 655.677 699.526 657.306C705.132 658.935 706.97 664.162 706.326 667.173C704.678 674.806 679.26 680.659 670.567 683.007C661.874 685.356 643.407 690.072 630.926 695.318C609.145 704.466 583.273 716.72 555.98 708.633C519.748 697.894 509.312 659.048 507.797 640.051C502.569 574.727 507.058 493.532 470.902 477.471L468.875 478.929C496.887 496.108 498.781 531.431 502.948 639.085C503.706 658.783 517.04 701.872 554.73 713.027C582.97 721.399 610.868 708.519 632.952 698.993C646.153 693.292 660.093 690.394 673.673 687.326C687.253 684.257 707.367 676.397 709.527 669.598C711.705 662.723 706.989 655.658 697.765 653.84L697.708 653.878Z" fill="#0E141B"/>
<path d="M530.96 443.114C524.937 441.845 521.263 446.504 517.361 451.277C512.589 457.11 502.304 470.368 483.023 468.702C483.023 469.63 483.516 469.762 483.516 470.293C503.725 471.94 510.789 463.058 515.373 457.432C519.54 452.338 525.771 444.515 530.108 445.065C534.048 445.576 534.711 443.89 530.941 443.095L530.96 443.114Z" fill="#0E141B"/>
<path d="M275.744 438.38C262.07 439.895 244.342 432.527 228.3 418.682C221.387 412.716 211.727 399.818 208.81 395.159C208.091 394.003 205.344 395.272 206.291 396.731C208.432 400.102 218.205 415.083 225.572 421.447C242.277 435.88 261.577 443.19 276.104 441.581C310.84 437.717 321.806 457.036 321.882 457.225L323.7 454.517C323.625 454.289 313.757 434.156 275.763 438.38H275.744Z" fill="#0E141B"/>
<path d="M203.223 402.317C204.322 396.484 212.125 393.188 235.8 391.787C249.228 390.991 279.57 391.086 279.57 391.086L277.582 387.961C263.017 387.828 247.221 387.374 232.694 388.302C207.996 389.893 202.314 393.984 200.325 401.654C197.087 414.098 223.754 466.77 276.938 492.055C277.373 490.54 277.373 488.816 277.638 487.434C241.311 473.456 199.719 421.03 203.223 402.336V402.317Z" fill="#0E141B"/>
<path d="M408.362 505.899C383.607 495.615 363.474 491.051 338.758 494.403C326.314 496.089 312.772 498.721 296.029 494.668C295.915 496.278 295.177 497.092 294.552 498.702C308.567 502.471 318.681 500.994 330.329 499.403C361.845 495.123 376.259 496.051 407.112 508.873C440.143 522.586 459.538 522.036 490.732 504.024C490.353 502.566 490.012 501.07 489.463 499.933C458.155 519.82 438.874 518.57 408.343 505.899H408.362Z" fill="#0E141B"/>
<path d="M533.271 441.807C529.047 434.231 501.319 427.848 486.868 425.121L485.505 427.413C501.774 430.538 523.669 436.561 528.858 441.372C537.438 449.289 520.278 479.005 500.903 492.756C501.603 494.006 502.247 495.085 502.778 496.146C526.339 478.683 538.802 451.732 533.271 441.807Z" fill="#0E141B"/>
<path d="M349.516 426.522C354.402 433.36 374.744 450.519 386.013 450.122C396.865 449.743 412.453 442.905 420.654 437.451L419.044 435.045C416.449 437.64 395.502 446.277 386.96 446.334C376.865 446.409 356.542 431.598 352.148 425.424L349.534 426.522H349.516Z" fill="#0E141B"/>
<path d="M468.099 450.026C464.936 450.859 457.985 446.674 456.223 443.738L454.594 445.518C455.901 448.833 465.693 453.947 468.44 453.53C471.489 453.056 475.031 447.564 477.152 441.427L475.258 440.727C473.8 445.859 470.409 449.439 468.08 450.045L468.099 450.026Z" fill="#0E141B"/>
<path d="M435.295 464.535C437.662 474.63 437.511 491.866 430.825 507.074L433.211 507.396C440.086 491.752 440.787 475.198 438.344 464.819L435.295 464.535Z" fill="#0E141B"/>
<path d="M396.847 425.557C396.79 426.58 396.657 431.675 399.006 431.788C401.354 431.902 401.733 426.826 401.771 425.803C401.828 424.781 401.96 419.686 399.612 419.572C397.263 419.459 396.884 424.534 396.847 425.557Z" fill="#0E141B"/>
<path d="M461.545 438.531C461.356 440.652 461.829 442.868 463.307 443.001C464.784 443.134 465.655 441.05 465.845 438.929C466.034 436.808 465.561 434.592 464.083 434.459C462.587 434.327 461.735 436.41 461.545 438.531Z" fill="#0E141B"/>
<path d="M467.322 217.425C437.359 179.678 389.82 180.738 362.755 191.458C363.588 192.159 365.785 193.201 366.656 194.072C383.172 187.254 437.359 183.882 464.784 219.319C465.409 218.164 466.205 217.557 467.303 217.425H467.322Z" fill="#0E141B"/>
<path d="M300.783 416.882C292.715 416.939 289.002 414.647 283.718 399.855C279.059 386.843 274.419 366.956 273.055 356.274C271.691 355.365 269.911 353.054 268.907 351.785C269.816 361.918 274.002 386.256 279.475 401.559C285.271 417.791 288.226 420.897 300.139 420.632C316.162 420.272 328.303 424.401 333.038 430.557C333.511 431.163 336.068 430.045 337.129 429.136C324.818 416.825 310.291 416.806 300.802 416.863L300.783 416.882Z" fill="#0E141B"/>
<path d="M486.944 474.819C486.584 462.679 474.936 449.459 472.985 448.171L471.489 450.406C473.004 451.409 480.448 460.633 482.626 472.414C483.137 475.217 482.872 475.16 480.599 474.99C467.474 473.929 454.594 486.221 444.935 495.483C439.272 500.918 433.401 506.544 430.92 505.654C428.628 504.839 425.124 501.373 420.673 496.979C409.536 485.994 392.737 469.402 366.846 464.213C353.398 461.523 329.496 466.921 326.731 467.641C323.454 468.493 322.886 468.001 323.075 466.258C324.496 453.076 328.985 437.204 331.56 434.117C336.276 428.435 376.751 418.795 413.817 423.928L414.252 420.196C373.247 414.647 333.322 426.276 329.382 430.216C325.594 434.004 319.496 456.618 319.647 467.66C319.704 472.092 320.556 472.357 327.261 470.255C331.087 469.061 353.379 464.27 366.277 466.845C391.373 471.865 407.851 488.115 418.741 498.892C423.609 503.684 426.791 508.154 429.651 509.176C433.704 510.616 438.609 504.725 445.996 497.642C456.242 487.812 469.273 477.433 482.929 478.153C486.319 478.323 487.001 478.02 486.906 474.838L486.944 474.819Z" fill="#0E141B"/>
<path d="M518.498 366.785C518.062 367.581 516.699 370.592 514.729 370.308C512.532 380.839 509.426 391.918 500.675 395.915C500.903 397.411 500.448 397.941 499.975 399.608C509.312 397.051 514.786 388.793 518.498 366.785Z" fill="#0E141B"/>
<path d="M410.199 422.281C410.199 422.281 427.719 451.334 433.817 463.57C436.393 468.74 437.454 467.831 441.98 463.096C449.822 454.914 464.254 437.111 465.011 434.705C466.129 431.126 458.004 402.318 456.602 398.549C454.954 394.098 453.647 394.799 454.803 399.382C455.844 403.473 461.943 429.383 460.807 433.967C459.879 437.679 446.034 455.217 439.935 461.467C437.662 463.816 437.094 464.365 435.598 461.183C432.132 453.872 421.601 434.478 416.43 425.481C414.783 422.584 414.707 422.337 416.544 419.402C421.014 412.242 433.173 396.901 435.276 394.249C438.817 389.799 437.321 388.984 434.007 392.696C426.98 400.594 410.635 420.443 410.18 422.262L410.199 422.281Z" fill="#0E141B"/>
<path d="M300.253 366.616C272.998 361.408 261.142 345.063 263.073 320.175C262.126 318.603 260.99 315.8 260.176 314.096C258.319 326.445 257.41 340.801 265.176 351.54C271.369 360.101 283.775 366.181 300.253 368.51C304.268 369.078 307.014 367.904 300.253 366.616Z" fill="#0E141B"/>
<path d="M439.177 302.485C435.011 304.739 436.488 306.444 439.992 304.891C446.791 301.898 456.451 306.728 459.5 324.153C460.409 324.948 462.284 327.6 463.08 328.376C460.769 306.198 448.59 297.372 439.177 302.466V302.485Z" fill="#0E141B"/>
<path d="M442.397 376.161C436.98 377.468 431.772 375.555 428.874 369.551C426.866 365.403 425.673 366.71 427.491 370.858C430.522 377.809 436.583 381.104 442.833 379.589C447.113 378.547 453.022 374.286 456.413 368.452C455.371 369.021 453.25 369.362 452.189 369.57C449.234 373.472 445.787 375.309 442.397 376.142V376.161Z" fill="#0E141B"/>
<path d="M390.634 220.759C386.24 206.384 375.16 192.16 366.505 189.717C359.402 187.709 347.281 191.403 335.746 198.903C337.432 198.997 341.163 200.153 341.163 200.153C349.193 195.247 356.883 192.823 364.743 195.096C374.573 197.937 381.335 206.687 388.096 222.085C391.638 230.135 393.096 228.771 390.634 220.741V220.759Z" fill="#0E141B"/>
<path d="M466.053 214.452C463.288 214.85 460.333 223.297 462.72 236.082C463.212 238.752 464.936 240.741 464.879 234.869C464.803 228.165 464.595 220.74 467.379 219.717C471.205 218.316 481.376 229.377 484.141 235.494C485.789 235.513 487.323 235.57 488.838 235.722C479.898 221.649 470.466 213.789 466.053 214.433V214.452Z" fill="#0E141B"/>
<path d="M500.922 375.081C498.876 363.282 496.433 361.804 497.759 375.157C498.554 383.074 499.728 391.805 498.119 398.889C495.865 408.775 486.262 426.295 480.77 434.818C477.853 439.989 477.55 440.007 473.137 437.791C469.443 435.935 464.405 432.697 462.606 432.488L462.057 434.969C464.197 435.235 475.069 442.811 477.322 442.811C479.122 442.811 480.807 440.765 483.667 436.257C489.539 426.958 498.876 410.575 502.437 399.646C504.331 393.832 502.039 381.54 500.922 375.1V375.081Z" fill="#0E141B"/>
<path d="M339.743 197.215C301.578 191.799 269.04 224.906 258.357 260.039C244.777 304.681 263.225 343.129 291.54 352.182C318.549 360.819 356.258 342.504 370.255 299.908C385.123 254.585 371.391 201.723 339.743 197.234V197.215ZM291.161 348.944C266.994 341.008 249.948 303.544 263.074 260.399C273.32 226.705 307.128 196.212 339.117 201.269C369.459 206.06 379.46 259.528 366.921 297.73C353.436 338.811 316.844 357.372 291.143 348.944H291.161Z" fill="#0E141B"/>
<path d="M483.648 233.771C477.114 235.93 472.777 254.15 481.982 275.609C488.667 291.197 497.418 313.698 500.789 335.971C503.346 352.847 507.551 369.779 512.93 371.73C523.953 375.707 540.771 321.33 524.919 280.439C514.691 254.075 495.202 229.964 483.629 233.771H483.648ZM520.487 281.045C535.714 320.308 521.32 371.162 513.744 368.377C509.407 366.805 506.187 345.479 504.804 336.369C501.376 313.811 492.02 290.288 485.258 274.549C481.811 266.499 480.296 257.863 480.296 250.893C480.296 246.271 480.959 242.408 482.133 239.907C482.796 238.525 483.573 237.673 484.387 237.426C492.891 235.002 508.706 250.665 520.487 281.045Z" fill="#0E141B"/>
<path d="M427.037 343.83C427.037 360.043 437.511 372.297 448.117 372.297C458.723 372.297 468.193 358.982 468.193 343.698C468.193 328.413 458.25 315.307 447.814 315.307C434.537 315.307 427.037 332.182 427.037 343.83ZM430.806 343.83C430.806 329.587 438.439 318.015 447.814 318.015C457.189 318.015 464.822 329.606 464.822 343.83C464.822 358.054 457.189 369.664 447.814 369.664C438.439 369.664 430.806 358.073 430.806 343.83Z" fill="#0E141B"/>
<path d="M506.623 264.756C509.426 275.4 508.176 285.059 503.8 286.309C499.425 287.559 493.611 279.946 490.789 269.301C487.986 258.657 489.236 248.998 493.611 247.748C497.986 246.498 503.801 254.111 506.623 264.756Z" fill="#DB9087"/>
<path d="M296.938 237.558C288.718 249.509 285.801 262.01 290.442 265.495C295.082 268.98 305.518 262.123 313.757 250.172C321.977 238.221 324.894 225.721 320.253 222.236C315.613 218.751 305.177 225.607 296.938 237.539V237.558Z" fill="#DB9087"/>
<path d="M511.092 296.254C511.092 298.016 509.672 299.436 507.91 299.436C506.149 299.436 504.729 298.016 504.729 296.254C504.729 294.493 506.149 293.072 507.91 293.072C509.672 293.072 511.092 294.493 511.092 296.254Z" fill="#DB9087"/>
<path d="M456.791 331.179C456.791 334.342 454.31 336.899 451.242 336.899C448.174 336.899 445.693 334.342 445.693 331.179C445.693 328.016 448.174 325.459 451.242 325.459C454.31 325.459 456.791 328.016 456.791 331.179Z" fill="#DB9087"/>
<path d="M456.792 343.394C456.792 344.72 455.863 345.781 454.727 345.781C453.591 345.781 452.663 344.72 452.663 343.394C452.663 342.068 453.591 341.008 454.727 341.008C455.863 341.008 456.792 342.068 456.792 343.394Z" fill="#DB9087"/>
<path d="M284.4 280.532C284.4 282.9 282.487 284.813 280.119 284.813C277.752 284.813 275.839 282.9 275.839 280.532C275.839 278.165 277.752 276.252 280.119 276.252C282.487 276.252 284.4 278.165 284.4 280.532Z" fill="#DB9087"/>
<path d="M321.484 453.682C294.684 463.228 289.419 509.763 283.851 559.045C280.498 588.592 277.051 619.161 268.68 641.813C253.168 683.841 222.22 708.311 183.052 709.997C185.079 708.671 186.613 706.966 187.067 705.11C188.45 699.618 185.742 694.618 168.203 688.329C146.006 680.375 136.498 671.454 122.009 650.45C117.899 644.483 115.417 637.4 106.118 633.972C106.08 633.972 106.042 633.972 106.023 633.934C114.546 631.926 124.812 639.37 134.642 649.218C149.794 664.427 168.658 683.329 200.363 677.78C230.591 672.496 261.198 649.787 272.392 522.68C275.517 487.149 286.919 458.663 313.227 447.243L310.007 445.879C292.26 452.394 272.941 472.793 268.623 523.343C256.729 662.363 217.106 670.867 199.53 673.954C169.207 679.257 151.347 659.219 136.536 644.559C111.251 619.54 93.5797 632.154 90.8334 641.567C85.6059 659.522 105.019 702.743 159.87 712.648C202.825 720.395 251.52 702.042 272.146 646.169C280.612 623.214 283.964 591.205 287.317 561.488C292.79 513.059 297.165 465.198 322.393 456.22L321.503 453.682H321.484ZM159.623 708.52C139.755 706.095 114.868 692.78 103.353 673.594C97.7275 664.219 92.1402 650.544 95.682 642.324C99.6783 633.063 108.334 637.873 110.304 640.07C113.921 644.124 116.952 648.707 120.02 653.177C127.084 663.442 139.32 681.776 167.294 690.886C181.954 695.659 184.681 700.337 183.658 704.315C182.579 708.576 174.529 710.338 159.604 708.52H159.623Z" fill="#0E141B"/>
</g>
<defs>
<clipPath id="clip0_42_64905">
<rect width="620" height="530.774" fill="white" transform="translate(90 185)"/>
</clipPath>
</defs>
</svg>
