<svg width="800" height="800" viewBox="0 0 800 800" fill="none" xmlns="http://www.w3.org/2000/svg">
<g clip-path="url(#clip0_42_64970)">
<path d="M588.367 528.104C598.655 546.986 604.785 567.189 604.549 587.352C604.115 625.53 586.416 665.226 552.653 694.436C540.492 704.941 528.015 701.984 523.423 695.421C518.831 688.858 517.648 679.771 531.307 667.492C556.93 644.491 577.625 614.611 577.625 584.711C577.625 554.811 565.149 529.859 553.973 515.076C567.691 522.053 577.053 525.503 588.387 528.104H588.367Z" fill="#968C87"/>
<path d="M576.62 568.963C587.46 574.225 600.272 593.265 601.908 609.368C606.697 588.219 604.214 558.773 588.446 527.907C575.969 524.3 561.502 518.703 554.604 515.096C561.502 525.286 574.314 549.588 576.62 568.963Z" fill="#766E6B"/>
<path d="M427.554 420.075C420.735 426.304 425.84 438.051 432.64 474.474C435.931 492.154 411.727 536.955 398.167 562.853C386.794 584.593 396.827 585.618 416.221 573.063C435.497 560.587 471.192 509.085 475.725 485.295C479.49 465.546 464.392 437.065 459.859 426.875C455.326 416.685 440.602 408.171 427.554 420.075Z" fill="#0E141B"/>
<path d="M434.926 419.307C426.845 423.762 437.488 436.297 438.316 473.332C438.887 498.265 420.183 533.013 412.614 547.382C405.065 561.731 396.925 574.542 398.266 575.33C400.158 576.454 406.425 571.96 414.881 567.21C428.678 559.464 463.426 508.652 468.708 490.145C473.025 475.047 458.893 438.387 452.27 428.748C445.963 419.544 442.455 415.149 434.886 419.307H434.926Z" fill="#00A2D0"/>
<path d="M389.554 429.004C387.662 431.152 380.113 440.238 377.748 443.55C381.157 489.828 419.513 530.845 452.014 545.942C488.694 562.991 524.901 586.604 543.842 614.119C546.799 618.415 554.21 618.75 557.817 616.898C561.423 615.045 564.833 606.865 560.694 600.598C541.457 571.368 490.212 541.724 461.534 530.47C425.327 516.259 391.387 463.91 389.573 429.004H389.554Z" fill="#766E6B"/>
<path d="M376.388 444.633C380.409 497.889 426.924 538.294 456.863 550.849C486.428 563.267 524.271 590.742 540.157 612.995C546.759 622.258 555.708 621.844 559.748 619.203C563.808 616.542 567.573 607.831 561.818 598.173C548.652 576.137 511.656 550.849 465.87 529.996C431.457 514.307 395.585 474.06 391.82 426.697L388.135 430.797C392.885 478.061 429.506 518.348 463.978 534.057C509.39 554.752 544.651 578.68 557.58 600.341C561.049 606.155 560.28 612.305 557.127 614.374C553.816 616.542 548.021 615.399 544.256 610.117C528.173 587.569 488.734 558.93 458.854 546.395C429.052 533.879 382.636 494.223 379.679 440.947L376.388 444.633Z" fill="#0E141B"/>
<path d="M369.607 449.521C367.4 475.144 358.274 509.616 344.241 528.085C330.207 546.553 315.642 592.536 323.033 623.342C324.511 629.492 328.887 632.547 332.651 632.212C338.072 631.719 340.949 627.284 341.284 619.164C342.506 588.613 348.676 555.856 362.472 532.204C376.269 508.552 387.228 467.851 383.286 435.33L369.627 449.561L369.607 449.521Z" fill="#766E6B"/>
<path d="M367.617 451.354C366.276 478.377 359.476 502.265 342.901 526.508C324.373 553.648 315.878 592.28 319.741 619.46C321.535 632.074 327.271 635.287 332.967 634.735C339.786 634.084 343.827 628.881 343.531 618.376C342.96 597.936 347.473 562.301 364.089 533.505C379.856 506.207 388.154 468.049 385.08 433.359L381.788 435.863C384.508 468.62 375.481 504.886 360.127 531.455C343.255 560.645 338.742 599.158 339.175 617.981C339.372 627.245 335.273 629.886 332.513 630.142C329.123 630.458 325.398 627.698 324.137 618.888C320.333 592.221 328.079 555.56 346.31 528.853C364.581 502.088 370.731 476.504 371.283 447.886L367.577 451.335L367.617 451.354Z" fill="#0E141B"/>
<path d="M567.435 498.343C542.029 467.714 507.872 443.983 475.784 433.951C484.003 448.083 522.753 485.532 567.435 498.343Z" fill="#766E6B"/>
<path d="M416.162 430.166C434.098 465.723 455.424 530.528 429.131 575.526C409.323 609.447 382.734 631.522 333.873 651.744C324.354 655.686 320.727 664.89 322.048 670.133C323.368 675.376 332.691 680.441 342.743 677.367C399.566 659.963 442.179 623.066 455.424 580.789C472.512 526.251 460.016 480.603 430.452 431.329L416.162 430.186V430.166Z" fill="#968C87"/>
<path d="M429.21 459.732C435.359 460.225 445.727 465.152 450.142 471.065C446.2 460.974 438.079 441.5 431.91 431.882L415.906 429.162C420.34 437.539 426.746 451.336 429.21 459.712V459.732Z" fill="#766E6B"/>
<path d="M429.88 433.3C460.686 486.32 468.354 536.994 452.507 580.907C437.409 622.791 402.956 654.287 350.39 672.952C336.002 678.057 327.172 675.652 324.768 670.232C322.58 665.324 324.807 657.46 339.885 651.429C389.022 631.778 421.661 602.903 435.399 566.44C453.374 518.683 436.976 466.649 419.394 431.191L414.546 431.349C432.127 466.433 449.097 517.107 431.22 564.588C417.719 600.459 387.031 628.073 338.505 647.487C319.958 654.918 317.16 665.344 320.116 671.967C323.762 680.146 333.4 683.793 351.652 677.308C404.888 658.406 442.258 625.412 457.592 582.878C473.577 538.59 465.377 486.497 434.689 433.222L429.919 433.3H429.88Z" fill="#0E141B"/>
<path d="M444.899 430.994C463.623 461.88 490.882 522.31 491.552 561.414C492.38 610.689 462.933 655.312 430.117 678.037C421.582 683.95 421.898 697.097 425.524 701.039C431.674 707.74 442.593 708.45 452.468 700.704C495.139 667.217 522.713 610.137 517.175 562.085C513.883 533.505 505.999 504.926 483.333 463.87L465.594 446.782L457.71 427.723L444.899 431.014V430.994Z" fill="#968C87"/>
<path d="M473.557 488.31C482.919 489.059 498.687 499.387 504.856 510.228C500.422 498.402 489.325 473.765 483.412 464.895C477.006 459.219 459.524 439.509 453.611 429.91L445.963 431.388C456.055 451.098 466.659 472.543 473.557 488.31Z" fill="#766E6B"/>
<path d="M549.44 513.085C588.741 568.115 582.139 621.765 527.917 667.197C516.84 676.48 513.351 690.908 523.64 700.053C532.568 707.996 547.903 703.502 559.117 692.327C598.458 653.143 613.714 607.89 603.878 563.227C590.574 502.777 535.545 455.316 486.447 436.395L479.056 436.927C527.996 456.972 585.174 502.797 598.695 564.232C608.353 608.126 593.373 650.207 555.333 688.247C546.74 696.84 534.323 702.241 527.247 695.973C521.038 690.454 521.255 679.101 531.11 670.843C585.41 625.333 595.088 571.9 557.304 516.811L549.42 513.125L549.44 513.085Z" fill="#0E141B"/>
<path d="M478.741 460.677C506.177 506.561 518.22 550.12 514.297 588.83C510.296 628.407 490.153 664.161 453.216 696.722C443.854 704.98 433.29 705.157 428.895 701.235C423.455 696.387 424.657 685.664 432.501 679.318C478.011 642.52 496.42 602.844 493.523 557.432C490.902 516.199 469.576 472.838 447.875 432.117L444.229 433.004C468.019 477.588 486.408 518.407 489.266 557.432C492.104 596.438 475.705 637.71 429.328 675.652C418.31 684.659 416.99 697.727 425.288 705.098C430.609 709.829 445.214 710.794 456.35 700.959C493.72 668.004 515.086 629.708 519.146 589.54C522.989 551.638 511.538 510.03 485.757 465.427L478.741 460.637V460.677Z" fill="#0E141B"/>
<path d="M475.114 418.518C469.536 421.475 462.303 426.067 457.71 427.723L464.609 445.127C509.863 493.12 580.641 547.539 655.144 528.736C710.509 514.742 758.818 464.501 757.142 412.448C755.506 361.655 738.122 324.936 707.375 301.58C702.25 297.677 692.179 298.387 687.33 301.915C683.723 304.536 683.152 312.893 686.009 319.654C696.85 345.277 726.75 381.089 718.196 419.523C709.208 459.929 685.339 490.814 645.604 502.64C583.873 521.009 506.709 474.199 482.348 442.525C475.784 433.991 474.464 430.364 475.114 418.538V418.518Z" fill="#968C87"/>
<path d="M511.499 487.325C506.571 482.398 500.422 466.394 499.909 461.466C492.774 455.06 480.199 441.756 477.479 435.843C474.759 429.93 475.016 423.525 476.257 418.854C471.33 422.047 462.697 427.723 453.591 429.93C467.151 448.655 490.054 473.056 511.499 487.325Z" fill="#766E6B"/>
<path d="M478.268 433.439C505.132 469.213 555.865 502.857 615.645 504.355C672.055 505.774 740.901 441.501 707.67 369.047C694.228 339.739 670.301 309.898 685.044 299.255C706.488 283.763 744.173 325.567 756.097 373.797C780.419 472.287 687.547 554.004 591.264 531.476C541.004 519.709 473.813 469.075 450.418 429.162L456.094 428.177C472.848 458.234 539.033 516.181 594.556 526.765C692.494 545.411 772.87 463.871 750.756 376.596C738.556 328.425 705.187 292.356 690.129 304.064C679.919 312.007 699.53 337.827 713.367 366.958C745.671 434.957 685.044 512.397 615.901 509.756C553.934 507.391 497.465 470.1 474.799 436.849C470.404 430.404 474.464 420.234 473.478 419.228L478.287 433.4L478.268 433.439Z" fill="#0E141B"/>
<path d="M309.473 452.832C277.937 471.32 247.88 477.391 209.702 464.658C175.702 453.325 118.169 454.606 83.066 471.064C75.1821 474.769 69.7619 481.904 71.4766 487.068C73.1914 492.232 81.8637 494.597 91.423 491.759C138.49 477.726 158.338 472.325 206.489 483.875C244.903 493.08 276.676 488.073 300.86 473.271L309.493 452.812L309.473 452.832Z" fill="#968C87"/>
<path d="M166.655 457.603C162.713 465.487 149.252 476.663 140.047 478.949C162.378 475.342 190.741 479.166 214.944 484.862C242.873 491.425 269.797 490.775 300.682 474.357L310.537 452.025C295.203 465.704 253.201 476.268 227.105 469.114C210.352 464.521 189.657 459.259 166.655 457.623V457.603Z" fill="#766E6B"/>
<path d="M301.195 471.459C273.739 486.655 241.494 489.001 223.124 484.625C166.064 471.025 146.177 473.134 98.1637 487.818C81.3709 492.963 75.0243 490.4 73.6841 486.34C72.0678 481.373 77.6851 474.652 90.7725 470.079C132.104 455.652 170.361 456.125 224.228 470.572C251.703 477.944 283.377 471.912 308.704 455.396L310.478 449.246C285.308 466.67 253.004 473.607 225.213 466.157C170.873 451.572 131.178 451.394 89.3731 465.999C70.5699 472.563 67.0616 481.925 69.0917 488.094C70.8655 493.534 76.8968 498.619 99.228 491.8C146.768 477.254 165.709 476.111 222.257 489.592C240.508 493.948 272.221 491.129 299.736 476.722L301.195 471.499V471.459Z" fill="#0E141B"/>
<path d="M341.422 379.099C290.512 377.128 216.6 394.866 176.195 452.36C147.675 492.923 144.206 553.038 157.471 597.227C160.427 607.082 169.632 613.33 175.86 611.359C182.108 609.388 186.799 601.485 184.079 589.678C172.253 538.433 179.191 489.533 199.512 459.258C230.397 413.275 288.029 386.628 346.015 384.696L341.422 379.118V379.099Z" fill="#968C87"/>
<path d="M248.628 395.93C257.261 394.708 266.86 397.408 272.517 401.35C293.705 391.259 330.661 384.833 343.965 385.346L341.501 379.925C319.82 377.462 277.444 383.631 248.628 395.93Z" fill="#766E6B"/>
<path d="M341.758 383.237C283.121 387.672 232.723 411.698 203.946 449.797C177.121 485.314 169.099 533.367 181.28 586.859C184.375 600.44 181.221 607.121 174.874 608.461C167.286 610.078 161.137 603.219 158.693 592.457C145.053 532.342 154.356 481.491 185.794 443.569C219.399 403.026 276.439 379.788 340.476 381.089L339.412 377.817C275.02 376.713 216.068 399.892 182.187 440.77C150.296 479.263 140.126 532.717 153.943 593.521C157.136 607.614 166.044 616.523 176.195 614.374C184.414 612.64 189.814 604.736 185.557 585.992C173.357 532.401 180.452 487.975 207.238 452.498C235.679 414.832 284.914 391.377 343.098 387.081L341.777 383.237H341.758Z" fill="#0E141B"/>
<path d="M284.914 358.719C235.64 355.427 176.037 365.144 138.411 402.416C106.225 434.287 92.0734 484.192 94.7145 520.34C95.7 533.801 102.914 539.064 107.861 539.064C114.424 539.064 121.402 533.466 122.643 518.034C127.512 457.248 142.944 429.063 163.699 409.965C209.032 368.239 279.001 363.311 341.422 379.079L338.801 374.487C332.553 372.181 326.147 369.481 321.397 368.909C316.627 368.337 294.454 363.331 284.934 358.719H284.914Z" fill="#968C87"/>
<path d="M249.121 359.21C260.454 360.196 267.846 366.345 270.802 371.273C288.541 369.538 324.768 374.229 339.038 378.171L338.052 374.978C331.646 372.258 327.212 369.558 322.521 369.302C317.83 369.046 295.42 364.138 285.821 358.954C279.159 358.718 259.962 358.718 249.121 359.191V359.21Z" fill="#766E6B"/>
<path d="M338.17 376.22C272.418 361.399 212.264 370.091 172.726 399.754C138.726 425.258 121.993 464.934 120.377 516.771C120.022 527.907 114.661 536.363 108.669 536.363C102.677 536.363 97.0796 529.839 97.0796 516.042C97.0796 468.147 112.512 429.122 142.787 401.725C177.634 370.189 230.968 355.742 290.492 361.694L284.816 357.989C226.041 352.825 174.382 366.76 139.712 398.157C108.965 425.988 92.1719 467.26 92.1719 515.805C92.1719 533.268 100.371 542.295 108.432 542.295C114.917 542.295 124.24 535.338 124.811 517.165C126.408 466.018 142.846 427.919 175.19 403.085C214.393 373.008 274.488 364.887 340.634 380.419L338.17 376.24V376.22Z" fill="#0E141B"/>
<path d="M339.038 340.743C335.096 340.507 327.961 339.994 324.492 340.743C321.023 341.492 316.115 341.729 313.651 339.758C311.188 337.787 306.753 331.874 305.018 328.681C260.592 304.871 193.697 295.056 137.721 319.969C98.6367 337.373 57.1475 380.931 43.1141 420.489C39.5072 430.679 44.75 439.213 49.3621 440.199C56.4577 441.717 66.1746 435.133 70.3925 427.052C95.3649 379.098 124.259 353.476 148.581 340.98C204.912 312.046 273.088 325.862 320.707 352.155C322.678 353.239 329.912 352.806 337.126 347.878L339.018 340.743H339.038Z" fill="#968C87"/>
<path d="M291.734 323.24C290.256 328.404 282.115 333.588 275.217 333.332C285.821 336.288 312.902 346.636 321.772 353.041C327.192 352.549 332.119 350.834 336.791 349.1L338.762 341.216C333.834 341.216 327.428 341.038 323.743 341.216C318.322 341.452 313.888 341.452 310.931 337.274C307.975 333.095 302.298 327.911 291.714 323.24H291.734Z" fill="#766E6B"/>
<path d="M175.288 332.445C216.699 320.363 264.712 326.67 318.342 353.239L326.305 352.095C270.585 323.634 218.078 315.632 174.066 328.818C131.808 341.472 97.3556 371.529 70.5108 421.908C62.824 436.335 53.994 439.528 49.579 437.301C45.1246 435.074 42.0498 426.697 48.219 413.886C72.3044 363.921 111.409 328.68 159.875 314.016C207.849 299.529 261.381 306.605 307.127 333.075L304.999 327.813C259.39 302.446 206.489 295.469 158.988 309.838C109.911 324.659 68.6778 361.26 44.2968 411.796C37.1027 426.717 39.7635 439.587 46.7605 443.076C54.4473 446.919 66.1747 441.342 74.9653 424.608C100.805 375.392 134.193 344.428 175.328 332.425L175.288 332.445Z" fill="#0E141B"/>
<path d="M335.509 349.85C331.232 351.486 325.733 353.397 322.777 353.043C262.918 345.908 224.366 300.003 221.035 248.088C216.285 174.176 277.582 146.503 338.604 130.42C356.658 125.67 373.628 115.362 371.815 108.148C368.799 96.2433 356.914 92.3802 344.142 93.5431C277.07 99.6728 186.681 154.23 196.89 250.315C203.572 313.189 266.21 360.493 316.627 368.338C327.704 370.072 337.323 374.487 342.25 378.429C336.83 371.294 335.194 357.97 335.509 349.85Z" fill="#968C87"/>
<path d="M256.67 343.622C264.14 346.657 274.744 343.622 279.001 339.68C290.985 345.435 318.421 353.989 323.506 353.063C326.226 352.57 332.868 350.855 336.81 349.121C335.588 355.783 335.588 368.338 338.032 374.98C333.341 371.787 325.694 368.929 323.013 368.574C299.362 365.381 271.354 355.842 256.65 343.602L256.67 343.622Z" fill="#766E6B"/>
<path d="M334.445 351.722C330.72 353.555 326.266 355.151 322.718 354.718C309.236 353.121 291.813 348.824 275 339.344C256.02 328.622 237.867 311.277 227.125 283.703C202.113 219.39 233.176 157.146 311.365 135.229C363.438 120.644 370.238 113.844 367.301 104.915C364.168 95.356 345.463 91.0789 304.269 105.447C201.837 141.181 182.916 231.925 209.741 285.95C227.263 321.231 254.561 342.478 280.637 354.481C296.267 361.675 311.463 365.558 323.841 367.174C325.871 367.43 333.539 369.914 338.151 372.752L341.797 382.193C339.353 378.35 326.581 372.358 322.994 371.885C289.467 367.529 233.511 343.522 205.976 288.946C175.012 227.609 198.605 135.899 301.037 100.165C333.874 88.7138 366.592 85.8755 373.313 103.851C377.038 113.804 370.356 124.743 313.671 140.137C241.297 159.787 206.174 217.833 231.185 282.146C251.408 334.121 291.024 342.813 316.687 350.145C325.95 352.786 336.337 347.701 339.924 343.168L334.465 351.682L334.445 351.722Z" fill="#0E141B"/>
<path d="M323.999 416.822C282.234 413.807 208.933 447.668 214.649 508.65C216.58 529.306 215.082 550.672 205.878 568.095C203.04 573.456 201.818 583.272 207.928 586.13C214.018 588.988 221.961 583.765 226.159 575.467C236.093 555.836 237.453 533.505 235.324 509.636C230.456 454.902 283.456 432.393 318.5 430.008L323.979 416.822H323.999Z" fill="#968C87"/>
<path d="M235.502 513.086C233.61 489.06 240.508 464.955 259.922 451.887C280.322 438.13 294.513 432.631 318.598 429.93L323.822 416.902C300.86 415.385 263.608 426.146 245.83 441.835C228.052 457.524 219.557 470.749 215.28 494.401C222.178 495.387 232.033 501.635 235.502 513.106V513.086Z" fill="#766E6B"/>
<path d="M318.973 427.428C260.395 436.1 230.574 463.181 233.077 511.667C234.733 543.676 231.934 561.947 222.749 576.079C218.059 583.293 212.757 585.698 209.623 583.845C205.385 581.342 205.168 574.877 208.184 569.2C216.501 553.551 219.537 534.472 217.25 510.189C212.185 456.125 268.397 417.533 322.797 418.795L324.137 414.971C266.702 413.177 206.942 452.518 212.382 510.505C214.609 534.334 211.653 551.856 203.552 567.111C198.25 577.084 202.192 586.052 206.627 588.477C211.002 590.881 219.005 590.802 226.731 578.917C236.192 564.352 239.306 544.169 237.611 511.648C235.364 468.424 260.06 440.791 318.066 432L318.953 427.408L318.973 427.428Z" fill="#0E141B"/>
<path d="M344.458 387.791C307.896 391.28 261.992 417.632 248.865 478.22C243.938 500.945 243.544 535.221 249.358 553.61C250.836 558.301 256.493 563.701 262.169 562.479C267.846 561.257 270.96 555.344 270.546 546.219C269.56 524.774 270.546 496.708 274.488 477.983C286.018 423.21 316.864 402.1 351.12 394.453L344.458 387.791Z" fill="#968C87"/>
<path d="M297.588 403.244C305.452 400.918 312.823 406.575 312.823 411.009C320.885 405.471 339.708 396.345 351.159 394.808L346.783 387.141C336.574 388.067 311.069 394.808 297.588 403.244Z" fill="#766E6B"/>
<path d="M292.562 436.829C304.427 418.046 322.087 402.83 349.562 396.759L347.986 393.31C322.363 399.183 302.2 413.059 288.876 434.779C272.97 460.698 265.066 497.279 268.102 542.769C268.851 553.925 266.84 559.917 260.454 560.429C255.074 560.863 250.245 553.59 248.865 543.755C242.44 497.693 251.151 457.15 273.739 428.452C291.083 406.437 314.893 393.034 344.044 389.407L342.506 386.273C311.444 390.255 287.752 403.322 270.211 425.575C247.229 454.745 237.985 497.654 244.509 544.327C245.928 554.457 251.013 565.85 260.356 565.101C267.53 564.529 273.798 559.838 272.674 542.927C270.644 512.436 272.162 469.055 292.542 436.829H292.562Z" fill="#0E141B"/>
<path d="M574.353 190.26C575.319 185.707 575.654 180.188 570.786 174.984C565.917 169.781 549.676 157.679 530.637 152.752C512.07 147.943 496.598 146.898 486.94 150.13C484.023 151.096 480.534 153.323 478.406 155.393L327.29 190.22C323.92 187.993 316.115 191.245 312.547 193.847C308.98 196.448 302.811 199.109 296.957 199.05C262.248 198.715 241.415 205.653 235.561 224.062C231.008 238.352 240.114 261.747 251.802 273.435C263.49 285.123 278.43 297.481 284.934 304.301C291.438 311.12 307.344 332.229 309.295 335.817C311.247 339.404 316.765 341.335 322.619 341.02C328.473 340.705 341.462 340.054 347.946 344.588C353.465 361.479 359.654 378.173 364.187 385.19C370.691 395.261 384.015 406.398 399.271 406.949C416.812 407.6 455.385 407.442 471.823 405.077C474.306 414.084 478.189 425.142 480.475 428.709C482.742 432.277 485.639 434.957 492.813 434.228C505.802 432.927 515.026 432.237 525.611 439.747C553.539 459.555 601.237 479.206 636.695 474.495C658.79 471.578 686.561 458.924 692.573 433.242C694.839 423.506 690.621 403.362 678.283 391.024C665.945 378.686 652.503 359.685 654.887 338.083C655.538 332.229 656.188 322.808 652.936 315.673L574.333 190.299L574.353 190.26Z" fill="#00B9EF"/>
<path d="M561.187 191.52C517.155 201.611 486.467 259.105 508.621 305.837C529.651 350.184 573.919 378.31 613.083 358.719C660.288 335.126 669.414 277.613 644.954 235.532C628.535 207.288 592.723 184.287 561.187 191.52Z" fill="#BB0132"/>
<path d="M502.393 285.141C506.335 247.692 533.14 229.303 565.799 233.245C627.077 240.636 661.214 317.327 617.38 357.417C566.745 379.827 510.493 341.077 502.412 285.141H502.393Z" fill="#9A0025"/>
<path d="M433.901 242.923C390.303 267.502 334.504 266.004 313.336 225.855C309.177 217.971 304.506 207.84 307.955 195.955C312.883 193.255 315.169 192.171 319.348 190.929C326.344 188.879 331.075 190.081 328.966 199.798C319.899 241.406 373.55 273.789 433.921 242.923H433.901Z" fill="#00A2D0"/>
<path d="M573.998 178.374C537.042 178.157 509.725 206.756 502.452 246.294C523.265 198.183 552.988 189.865 573.683 190.2C575.536 187.401 575.654 181.666 574.018 178.374H573.998Z" fill="#00A2D0"/>
<path d="M499.929 266.574C494.213 323.22 525.65 386.666 588.465 385.661C612.787 385.267 643.18 370.524 654.513 345.946C653.527 341.018 658.77 325.881 652.857 314.371C646.609 338.357 616.729 363.645 591.757 364.296C550.682 365.38 504.699 333.095 499.948 266.574H499.929Z" fill="#00A2D0"/>
<path d="M497.13 417.532C510.276 415.226 522.851 416.468 531.622 424.431C577.605 466.157 661.372 479.283 691.272 434.936C687.409 458.49 657.233 474.336 629.521 474.691C603.563 475.026 558.408 465.703 526.044 440.534C520.131 435.941 511.262 432.985 504.364 433.635C497.465 434.286 486.329 434.917 484.003 433.3C478.741 429.693 474.148 414.911 471.842 405.056C481.362 402.1 492.873 406.692 497.13 417.532Z" fill="#00A2D0"/>
<path d="M457.159 216.493C472.118 193.039 475.548 169.347 477.854 156.418C466.935 131.978 417.01 114.869 381.828 131.386C354.569 144.198 336.16 161.286 327.29 190.181C323.762 202.46 324.393 217.42 332.947 229.798C342.309 243.318 359.595 254.592 385.592 254.73C414.467 254.888 441.529 240.934 457.139 216.474L457.159 216.493Z" fill="#BB0132"/>
<path d="M248.688 272.37C251.408 277.277 288.344 308.064 291.182 312.893C294.02 317.702 307.896 339.521 312.153 341.216C316.411 342.911 336.515 338.949 341.895 341.492C347.276 344.034 343.59 330.159 343.315 325.901C343.039 321.644 318.106 326.749 314.124 323.911C310.163 321.073 296.543 304.497 293.153 300.673C284.658 291.035 259.725 270.931 256.039 269.512C252.354 268.093 247.249 269.788 248.668 272.35L248.688 272.37Z" fill="#00A2D0"/>
<path d="M407.135 300.181C402.188 313.446 406.898 329.864 420.163 334.811C433.428 339.759 450.24 331.382 455.187 318.117C460.135 304.853 453.394 290.07 440.129 285.123C426.845 280.176 412.082 286.917 407.135 300.201V300.181Z" fill="#0E141B"/>
<path d="M505.664 298.289C481.934 299.531 462.106 304.104 449.689 309.386C447.304 310.391 449.097 314.097 451.916 312.973C464.767 307.868 488.891 302.074 507.971 304.518L505.664 298.27V298.289Z" fill="#0E141B"/>
<path d="M419.611 286.502C416.359 271.463 415.078 256.543 416.95 248.699C417.423 246.728 421.838 244.362 421.208 246.964C420.577 249.566 422.923 284.078 422.568 285.753C422.213 287.428 420.518 290.661 419.611 286.502Z" fill="#0E141B"/>
<path d="M414.506 327.517C402.03 343.384 383.799 373.402 377.945 396.837C376.841 401.232 380.625 404.523 380.98 399.281C381.552 391.16 402.819 350.932 416.596 333.568C421.05 327.931 418.645 322.235 414.487 327.517H414.506Z" fill="#0E141B"/>
<path d="M331.41 228.83C346.113 253.408 400.611 274.971 448.25 227.707C453.236 222.76 461.475 209.317 465.141 198.694C450.004 151.233 401.104 149.4 369.943 162.999C353.524 170.154 332.868 185.863 327.35 204.646C326.443 214.343 327.862 222.937 331.41 228.83Z" fill="#9A0025"/>
<path d="M381.197 137.85C368.977 143.487 361.586 153.48 364.66 160.162C367.735 166.843 380.152 167.671 392.372 162.034C404.592 156.397 412.003 146.404 408.909 139.722C405.814 133.041 393.417 132.213 381.197 137.85Z" fill="#DB9087"/>
<path d="M575.516 187.4C611.881 189.568 650.689 216.255 660.446 268.723C669.847 319.377 631.157 363.961 595.344 367.252C548.159 371.589 512.563 333.411 501.427 292.808C486.546 238.528 527.838 184.562 575.516 187.4ZM654.08 269.551C645.151 221.479 608.057 194.969 574.747 192.998C529.651 190.317 493.681 247.535 505.862 291.094C516.071 327.714 551.214 365.065 594.477 361.497C624.278 359.053 663.323 319.239 654.099 269.551H654.08Z" fill="#0E141B"/>
<path d="M585.292 215.172C591.717 226.998 587.795 241.544 576.521 247.674C565.247 253.804 550.898 249.191 544.473 237.366C538.048 225.54 541.97 210.994 553.244 204.864C564.518 198.734 578.867 203.346 585.292 215.172Z" fill="#DB9087"/>
<path d="M437.863 288.612C427.022 284.571 414.96 290.07 410.919 300.911C408.85 306.469 408.869 312.697 410.821 317.999C412.673 323.025 416.28 327.203 421.563 329.174C431.654 332.939 444.229 327.263 449.176 317.703C449.551 316.994 449.866 316.284 450.162 315.535C454.202 304.695 448.703 292.652 437.863 288.612Z" fill="#BB0132"/>
<path d="M430.018 302.959C419.375 302.959 410.742 309.049 410.742 316.559C410.742 317.032 410.762 317.505 410.821 317.998C412.673 323.024 416.28 327.202 421.563 329.173C431.654 332.938 444.229 327.261 449.176 317.702C449.216 317.327 449.275 316.933 449.275 316.559C449.275 309.049 440.642 302.959 430.018 302.959Z" fill="#9A0025"/>
<path d="M428.895 303.906C424.026 306.429 418.448 305.305 416.438 301.422C414.428 297.52 416.734 292.336 421.602 289.813C426.47 287.29 432.048 288.414 434.059 292.297C436.069 296.199 433.763 301.383 428.895 303.906Z" fill="#DB9087"/>
<path d="M291.813 201.139C298.041 201.218 303.915 200.509 308.073 198.262C310.971 196.685 317.416 193.334 320.392 192.349C326.128 190.437 323.703 192.999 323.053 199.543C321.87 211.408 327.153 227.078 332.218 233.404C352.302 258.495 390.382 263.403 421.07 250.65C461.731 233.759 476.119 184.307 480.061 158.724C480.732 154.368 486.112 150.998 494.982 150.82C519.363 150.308 550.169 156.654 570.707 178.552C573.249 181.252 573.368 185.352 571.535 188.9L576.304 189.392C579.103 184.8 577.349 178.887 574.491 175.753C552.889 152.121 518.909 144.868 493.247 147.056C482.584 147.962 476.612 151.944 475.154 159.374C470.463 183.203 457.73 229.147 419.119 245.881C389.889 258.554 353.426 251.459 336.337 230.113C331.035 223.49 327.231 211.113 328.414 200.134C329.38 191.265 328.769 184.958 319.426 188.072C316.273 189.116 310.064 192.171 306.28 194.477C302.555 196.744 297.824 196.882 291.99 196.784C256.177 196.133 227.303 206.816 232.013 241.584C234.418 259.343 251.822 280.629 277.366 300.359C295.499 314.353 305.708 338.891 311.385 342.676C318.717 347.564 330.424 338.123 349.168 346.834C352.44 348.352 349.976 343.228 348.045 342.084C334.071 333.767 324.925 342.144 314.794 336.231C310.261 333.589 296.366 309.76 281.879 297.382C262.623 280.944 243.405 266.339 238.478 244.422C230.358 208.196 262.898 200.785 291.813 201.159V201.139Z" fill="#0E141B"/>
<path d="M571.87 176.658C567.179 176.658 557.876 178.472 552.337 180.502C549.085 181.704 549.657 183.439 552.988 182.709C559.295 181.33 568.302 180.423 574.57 181.566L571.85 176.639L571.87 176.658Z" fill="#0E141B"/>
<path d="M312.508 195.205C306.181 201.552 309.926 215.033 312.843 221.419C317.357 231.333 324.334 239.119 331.449 244.401C334.761 246.865 333.006 248.619 329.774 246.569C321.062 241.03 313.809 233.068 309.079 222.937C304.585 213.299 302.791 202.872 306.773 195.875L312.488 195.205H312.508Z" fill="#0E141B"/>
<path d="M624.101 374.86C591.343 389.091 554.486 382.547 537.437 367.43C534.934 365.222 533.613 366.681 535.86 369.125C552.791 387.612 595.029 394.531 625.441 376.949C628.871 374.978 628.181 373.067 624.081 374.86H624.101Z" fill="#0E141B"/>
<path d="M654.079 331.756C653.429 347.07 646.925 355.25 643.259 360.217C641.11 363.114 642.707 364.06 645.033 361.754C648.6 358.187 653.252 353.023 655.518 347.8L654.06 331.776L654.079 331.756Z" fill="#0E141B"/>
<path d="M323.289 208.274C322.245 200.095 323.979 192.152 325.576 186.219C331.745 163.513 352.342 140.709 380.172 129.435C418.271 114.002 466.462 127.838 479.805 154.052L475.43 159.157C466.442 133.436 415.196 120.112 382.123 134.047C356.914 144.671 338.86 164.302 331.193 187.047C330.562 188.899 325.773 202.302 329.557 216.769C329.557 216.769 324.433 217.498 323.25 208.294L323.289 208.274Z" fill="#0E141B"/>
<path d="M680.057 388.797C667.127 375.138 654.08 355.763 657.529 339.995C658.83 334.043 657.746 319.95 654.789 312.736L652.325 318.984C653.961 325.725 654.06 334.693 653.074 339.68C649.625 356.926 663.166 379.75 677.337 394.493C687.488 405.057 695.372 424.432 687.823 438.406C650.433 507.548 542.758 452.578 526.045 436.987C516.347 427.96 493.188 432.73 485.817 429.911C481.264 428.157 476.474 414.873 474.208 403.54C474.208 403.54 467.664 401.805 468.236 404.111C471.35 416.548 474.937 431.212 479.293 435.568C487.61 443.886 504.797 428.551 523.226 441.264C539.309 452.361 557.166 461.151 570.766 466.434C624.357 487.287 678.303 478.279 693.223 440.417C700.733 421.337 694.189 403.737 680.057 388.816V388.797Z" fill="#0E141B"/>
<path d="M398.916 423.268C401.873 449.639 396.709 496.194 378.713 522.309C360.718 548.425 337.559 562.912 318.598 569.377C307.758 573.082 302.831 581.695 304.309 588.594C305.787 595.492 312.429 600.183 325.241 595.729C358.077 584.356 386.4 556.762 399.645 528.952C414.822 497.081 418.133 459.967 408.751 427.446L398.896 423.268H398.916Z" fill="#968C87"/>
<path d="M398.916 455.966C405.164 457.287 410.742 464.185 413.698 472.384C414.447 462.451 412.476 438.799 409.007 429.18L399.153 425.002C399.901 432.886 399.645 445.776 398.916 455.966Z" fill="#766E6B"/>
<path d="M397.142 424.668C401.123 497.713 375.855 543.459 319.919 566.5C305.787 572.314 298.967 580.79 302.377 591.019C304.92 598.627 312.449 602.667 328.552 597.385C369.154 584.121 434.65 521.561 410.702 429.379L407.174 428.433C431.004 518.92 367.42 579.39 327.33 592.497C315.839 596.262 308.98 594.429 307.285 589.324C305.156 582.938 309.414 575.33 321.634 570.383C378.97 547.184 404.691 498.442 401.143 426.166L397.162 424.668H397.142Z" fill="#0E141B"/>
<path d="M470.877 403.993C470.877 403.993 398.285 413.276 380.901 401.568C369.607 393.96 353.702 362.661 348.597 347.169C345.581 337.531 334.051 339.995 334.051 339.995C329.518 363.804 336.495 388.54 352.184 400.819C367.853 413.099 392.609 424.629 392.609 424.629C436.049 446.546 471.409 428.669 476.987 419.721L470.877 404.012V403.993Z" fill="#0E141B"/>
<path d="M470.305 405.982C457.336 434.404 422.568 425.337 405.203 408.19C404.514 407.52 405.972 407.559 408.239 407.283C410.505 407.007 469.319 405.844 470.305 405.982C471.29 406.12 471.074 404.307 470.305 405.982Z" fill="white"/>
<path d="M346.113 339.975C330.759 368.278 346.448 383.06 365.922 389.092C366.828 389.367 351.612 352.471 346.113 339.975Z" fill="white"/>
<path d="M441.45 409.373C440.701 411.364 441.726 413.591 443.716 414.34C445.707 415.089 447.934 414.064 448.683 412.074C449.432 410.083 448.407 407.856 446.417 407.107C444.426 406.358 442.199 407.383 441.469 409.373H441.45Z" fill="#0E141B"/>
<path d="M349.03 365.223C348.439 366.82 349.346 368.633 351.08 369.283C352.815 369.934 354.687 369.165 355.298 367.569C355.889 365.972 354.983 364.159 353.248 363.508C351.514 362.858 349.641 363.627 349.05 365.243L349.03 365.223Z" fill="#0E141B"/>
<path d="M326.877 411.383C324.984 413.65 290.748 499.841 274.527 527.849C271.63 532.835 276.794 590.822 284.106 614.828C285.998 621.056 289.842 625.609 292.956 625.885C296.996 626.26 300.051 620.426 302.16 614.099C315.228 574.738 318.185 556.704 320.234 551.441C333.795 516.575 345.305 472.563 371.835 446.762C377.984 440.79 394.58 424.55 398.64 418.558C402.759 412.487 398.266 405.116 385.375 403.677C377.57 402.81 373.49 394.393 369.607 391.476C366.336 389.013 328.749 409.117 326.857 411.383H326.877Z" fill="#00B9EF"/>
<path d="M335.943 405.708C342.743 402.692 356.343 399.657 364.66 402.692C372.978 405.708 385.119 421.081 379.423 429.222C374.141 436.77 366.414 440.259 357.604 451.316C340.279 473.037 320.885 517.423 316.312 531.121C312.193 543.499 292.167 545.293 285.328 543.972C273.621 541.706 279.573 523.159 274.744 522.824C267.077 522.272 280.617 625.078 291.99 626.28C302.791 627.424 312.626 569.063 320.077 549.905C325.201 536.739 347.513 483.246 353.229 472.327C357.387 464.404 385.02 433.341 391.978 428.118C399.251 422.658 401.813 409.177 395.802 406.831C368.346 396.168 373.628 396.286 367.873 389.25C364.838 385.545 326.738 409.788 335.943 405.688V405.708Z" fill="#00A2D0"/>
<path d="M392.944 407.166C397.438 412.783 395.151 420.372 390.677 424.215C384.646 429.418 368.996 446.172 367.124 448.734C359.082 459.653 353.623 463.595 342.763 487.385C326.384 523.257 324.275 533.309 319.209 545.214C313.158 559.424 300.938 611.715 297.982 617.844C294.789 624.388 291.419 625.452 287.516 616.918C285.703 612.956 273.285 541.252 276.873 529.426C278.075 525.464 291.419 499.802 303.481 472.721C315.543 445.659 326.344 417.179 328.67 414.498C332.987 409.531 353.997 397.311 367.4 394.631C372.584 393.586 367.656 387.338 367.656 387.338C367.656 387.338 328.434 403.185 324.373 409.59C319.446 417.356 310.241 448.044 298.1 474.534C286.629 499.546 272.655 521.03 271.157 526.233C268.062 536.935 281.012 612.937 283.791 618.731C293.173 638.481 300.406 624.427 303.185 617.194C306.477 608.66 320.727 554.241 322.994 548.958C338.781 512.141 349.799 474.436 370.928 451.789C380.605 441.402 393.634 430.187 396.452 426.915C400.138 422.658 402.424 415.01 398.187 406.141C397.083 403.855 389.869 403.263 392.944 407.107V407.166Z" fill="#0E141B"/>
<path d="M494.548 415.858C491.493 409.906 484.023 405.175 474.897 406.929C452.408 411.226 413.422 410.418 399.33 409.59C387.287 408.881 372.938 402.633 362.946 388.146C353.268 374.093 347.67 352.136 341.994 333.175C341.107 330.238 338.328 327.459 331.489 323.241C327.113 320.541 328.729 317.782 334.445 320.502C342.368 324.286 346.921 326.375 348.065 333.175C349.247 340.29 357.545 367.175 365.468 382.292C371.677 394.098 384.626 404.387 399.054 404.899C420.676 405.668 457.927 404.288 473.478 402.081C482.801 400.76 491.789 402.416 496.893 411.206C499.949 416.489 497.978 422.461 494.568 415.838L494.548 415.858Z" fill="#0E141B"/>
</g>
<defs>
<clipPath id="clip0_42_64970">
<rect width="720" height="617.588" fill="white" transform="translate(40 91)"/>
</clipPath>
</defs>
</svg>
