<svg width="800" height="800" viewBox="0 0 800 800" fill="none" xmlns="http://www.w3.org/2000/svg">
<g clip-path="url(#clip0_42_65051)">
<path d="M284.975 633.183C280.36 633.958 274.805 635.705 270.585 640.32C266.349 644.935 261.355 649.946 261.734 653.012C262.113 656.094 265.575 664.929 258.652 668.786C256.723 662.638 255.57 657.248 250.575 650.325C245.581 643.402 223.263 619.931 214.033 618.019C204.803 616.09 197.484 616.09 194.419 609.942C202.874 608.789 214.412 603.794 217.494 596.097C220.577 588.399 229.428 580.702 229.032 576.087C228.653 571.472 223.643 553.39 215.566 553.769C215.945 548.775 218.648 539.149 215.945 533.001C213.258 526.853 204.028 507.617 197.484 506.843C190.941 506.068 176.716 506.068 175.562 508.771C170.568 507.238 160.563 507.238 154.794 509.15C149.025 511.079 144.41 514.54 144.014 517.227C139.778 515.694 131.191 516.32 121.96 522.468C112.73 528.616 115.928 532.605 116.323 535.308C109.779 536.462 105.296 538.061 99.148 545.758C93 553.456 90.9396 558.384 93.6263 569.543C96.313 580.702 98.2415 600.316 108.247 611.475C118.252 622.634 138.641 639.166 144.41 639.562C150.179 639.941 152.107 644.573 152.107 644.573C152.107 644.573 177.491 682.648 214.05 694.961C229.824 697.647 234.06 694.186 240.587 698.422C247.13 702.658 255.075 703.861 259.822 702.262C263.036 701.191 261.355 696.114 266.366 693.411C271.377 690.725 300.864 678 304.705 672.61L284.991 633.183H284.975Z" fill="#A8A89D"/>
<path d="M262.921 660.364C263.02 663.512 262.212 666.825 258.652 668.803C256.723 662.655 255.569 657.265 250.575 650.342C245.581 643.419 223.263 619.948 214.033 618.036C204.802 616.107 197.484 616.107 194.418 609.959C202.874 608.805 214.412 603.811 217.494 596.114C220.577 588.416 229.428 580.719 229.032 576.104C228.653 571.488 223.642 553.407 215.566 553.786C217.659 548.083 218.747 538.951 215.945 533.018C212.071 537.023 200.121 538.638 195.523 533.594C181.496 543.468 170.09 539.429 169.595 540.402C164.914 548.709 154.827 554.692 147.03 553.654C145.464 568.192 125.388 561.648 125.388 566.84C125.388 572.032 135.361 576.433 135.361 584.675C135.361 587.971 131.504 591.466 127.482 591.828C130.399 592.834 157.068 591.251 157.068 626.063C157.068 630.843 187.743 631.601 192.391 623.459C198.621 612.547 248.498 653.589 236.021 666.05C244.262 670.995 258.355 673.319 258.883 679.039C259.393 684.758 259.393 686.308 263.564 684.758C267.717 683.192 274.722 667.896 277.063 665.539C272.019 666.413 264.602 669.693 262.904 660.38L262.921 660.364ZM184.479 565.439C186.375 561.862 188.55 561.846 191.204 564.318C194.204 567.087 198.028 571.736 202.775 574.109C205.561 575.032 210.852 574.983 214.577 575.576C218.533 576.219 219.456 578.131 216.983 581.559C210.885 590.015 195.836 594.07 185.073 586.636C182.155 584.625 179.254 575.263 184.463 565.456L184.479 565.439Z" fill="#818179"/>
<path d="M304.688 672.61L284.975 633.184C281.481 633.76 277.459 634.914 273.865 637.436C284.876 640.584 287.48 653.573 281.959 661.007C283.739 671.061 282.98 680.835 277.508 688.088C288.024 683.11 302.117 676.22 304.688 672.61Z" fill="#818179"/>
<path d="M230.812 686.998C224.335 679.977 210.555 665.703 215.78 676.96C222.538 691.498 210.769 689.998 194.237 685.4C200.352 689.24 206.978 692.57 214.033 694.943C229.807 697.63 234.043 694.168 240.57 698.405C241.79 699.196 243.059 699.839 244.345 700.415C244.163 698.025 232.691 689.026 230.812 686.982V686.998Z" fill="#818179"/>
<path d="M496.779 658.401C489.081 679.565 484.466 682.63 476.769 682.63C471.774 694.548 427.469 710.025 417.084 712.712C406.7 715.398 361.373 709.168 355.604 708.393C349.835 707.618 343.291 704.932 335.594 699.542C327.896 694.152 316.358 677.62 316.358 677.62C316.358 677.62 302.892 671.851 298.277 671.076C293.661 670.301 286.739 654.527 283.656 644.539C280.574 634.534 295.112 619.172 295.112 613.254C295.112 609.875 290.035 595.535 288.651 587.986C286.854 578.08 305.611 559.702 310.968 553.372C315.204 548.378 323.1 552.103 323.1 552.103C323.1 552.103 342.17 526.753 351.021 522.517C359.873 518.281 390.597 522.22 390.597 522.22C390.597 522.22 391.371 519.912 396.366 517.605C401.36 515.297 435.924 515.248 443.688 522.599C445.781 524.594 452.011 538.076 452.011 538.076C452.011 538.076 460.236 544.142 468.692 549.532C477.148 554.922 480.609 567.993 480.609 567.993C480.609 567.993 485.884 571.701 489.345 574.388C492.806 577.075 503.306 602.227 504.839 612.232L496.762 658.401H496.779Z" fill="#A8A89D"/>
<path d="M390.547 523.029C385.207 522.337 378.218 521.381 373.009 521.117C375.894 526.524 372.597 537.188 367.026 546.517C376.52 539.479 387.531 528.518 390.547 523.046V523.029Z" fill="#818179"/>
<path d="M344.181 697.796C338.33 696.692 331.11 693.51 325.044 688.846C329.297 694.598 339.978 704.471 349.571 707.208C359.164 709.944 369.037 710.224 375.465 711.048C365.048 704.34 344.181 697.796 344.181 697.796Z" fill="#818179"/>
<path d="M489.361 574.405C485.9 571.718 480.625 568.009 480.625 568.009C480.625 568.009 477.164 554.922 468.708 549.549C460.253 544.159 452.028 538.093 452.028 538.093C452.028 538.093 445.797 524.61 443.704 522.616C440.21 519.303 431.309 517.506 422.112 516.715C425.853 520.786 429.825 537.219 425.144 542.412C420.463 547.604 414.876 541.934 403.849 549.169C388.734 559.076 363.762 588.151 359.015 586.404C358.884 591.695 361.01 597.299 368.246 594.481C372.268 590.195 379.899 584.492 386.212 579.712C401.574 568.075 414.793 564.713 423.381 563.064C439.995 571.372 437.441 600.217 449.028 608.92C460.615 617.622 437.408 635.407 429.809 635.407C421.238 635.407 406.436 623.804 391.124 623.804C380.047 623.804 363.268 639.149 351.203 639.149C341.741 639.149 323.792 634.303 315.204 634.303C301.903 634.303 292.919 655.5 300.765 672.213L316.342 677.636C311.529 670.746 308.726 661.434 308.726 654.066C308.726 650.572 311.034 645.693 315.633 644.489C322.341 642.726 341.28 648.099 353.032 648.099C364.076 648.099 393.448 629.688 417.859 648.379C429.397 658.269 396.135 677.702 382.948 682.647C348.005 677.471 339.978 683.718 339.978 690.575C339.978 697.432 354.977 708.822 384.102 711.245C399.695 713.322 407.425 714.986 419.408 712.085C431.391 709.168 472.087 693.822 476.785 682.647C484.482 682.647 489.098 679.565 496.795 658.417L504.872 612.249C503.339 602.244 492.839 577.091 489.378 574.405H489.361Z" fill="#818179"/>
<path d="M470.357 626.046C470.818 617.821 472.994 608.129 480.889 607.091C497.998 604.866 506.009 604.931 509.47 615.316C512.932 625.7 520.629 636.084 526.398 638.392C532.167 640.699 536.024 638.012 536.024 638.012C536.024 638.012 542.947 600.695 547.941 594.926C552.936 589.157 578.715 568.768 578.715 568.768C578.715 568.768 555.639 553.769 557.551 542.61C555.622 535.687 534.475 522.6 538.694 507.221C543.92 488.217 550.282 484.36 556.743 482.085C553.661 470.168 551.386 460.279 555.622 453.735C559.858 447.191 584.088 427.198 589.857 426.423C595.626 425.648 610.246 425.648 612.933 429.505C617.548 428.73 623.317 426.423 634.097 430.28C644.877 434.12 649.475 439.51 649.475 442.972C653.711 443.351 658.706 441.439 667.557 446.054C676.408 450.669 684.435 455.136 684.056 462.059C689.199 462.751 705.385 471.421 707.182 479.135C708.5 484.772 707.28 521.397 701.495 532.176C695.726 542.94 673.392 582.268 649.08 594.152C643.69 601.849 638.696 628.782 619.081 644.161C599.466 659.555 584.846 673.401 574.841 677.241C564.836 681.082 543.474 691.796 539.057 692.62C535.167 693.362 525.591 686.851 524.816 679.549C519.426 670.319 507.509 660.693 492.114 657.231C476.373 653.688 472.945 651.495 472.104 645.693C472.104 645.693 469.78 635.639 470.307 626.029L470.357 626.046Z" fill="#A8A89D"/>
<path d="M707.198 479.151C706.885 477.832 701.511 475.92 696.83 479.035C692.149 482.151 670.342 494.628 667.227 502.408C664.112 510.204 638.135 501.897 637.624 490.458C627.751 492.535 618.405 491.496 609.059 480.074C598.675 482.678 585.687 476.431 579.967 469.162C575.814 473.316 558.144 472.805 554.518 466.047C550.875 459.289 555.194 478.574 556.084 481.112C556.875 483.37 575.83 477.47 579.984 481.112C584.137 484.755 596.087 497.743 599.73 498.782C601.016 512.43 584.137 532.028 559.018 523.687C559.018 523.687 562.842 532.028 572.204 536.181C581.55 540.335 590.269 535.374 601.807 550.208C608.565 547.093 623.103 546.565 635.58 558.516C648.041 570.466 639.223 586.042 633.503 588.135C631.08 589.009 621.669 599.887 610.213 626.194C602.631 643.616 585.143 661.764 569.929 669.033C561.688 672.972 550.644 676.104 543.639 676.45C533.585 676.944 535.793 686.389 525.821 682.763C528.442 688.647 535.843 693.262 539.156 692.652C543.573 691.828 564.935 681.114 574.94 677.274C584.945 673.433 599.565 659.571 619.18 644.193C638.794 628.815 643.805 601.882 649.178 594.184C673.474 582.284 695.825 542.972 701.594 532.209C707.363 521.446 708.582 484.804 707.28 479.167L707.198 479.151Z" fill="#818179"/>
<path d="M489.955 638.623C504.163 651.743 517.613 651.513 529.563 650.985C541.513 650.474 549.82 639.035 545.156 640.074C540.475 641.112 529.431 639.612 526.415 638.409C520.646 636.101 512.948 625.717 509.487 615.333C506.8 607.289 499.399 604.191 487.499 606.844C478.153 608.921 507.641 629.805 489.971 638.64L489.955 638.623Z" fill="#818179"/>
<path d="M557.089 631.766C556.595 632.425 556.957 632.623 557.551 632.145C562.084 628.535 580.083 611.03 587.187 601.487C593.137 593.476 597.307 588.086 599.532 584.526C602.318 580.092 601.774 579.152 597.521 578.114C591.769 576.697 589.165 575.592 578.912 569.955L560.204 585.548C572.682 588.976 577.099 605.459 557.089 631.782V631.766Z" fill="#818179"/>
<path d="M371.988 590.08C383.064 579.284 401.195 569.23 416.112 564.631C422.524 573.317 424.864 597.712 419.672 607.733C413.096 607.733 385.289 603.745 377.691 605.821C375.185 601.387 372.762 594.283 371.988 590.08Z" fill="white"/>
<path d="M342.302 589.355C338.808 591.745 310.095 575.51 305.166 575.51C300.782 575.51 294.848 583.042 294.848 587.246C294.848 587.246 299.397 583.141 304.721 583.685C310.836 585.416 334.588 597.135 336.879 598.816C339.17 600.498 343.835 599.855 344.28 598.849C344.742 597.844 342.319 589.355 342.319 589.355H342.302Z" fill="#818179"/>
<path d="M337.489 609.333C338.214 605.327 337.885 600.91 336.863 598.817C331.522 595.174 311.842 585.696 304.705 583.686C301.161 593.724 304.606 615.794 310.227 618.893C310.227 618.893 331.555 614.212 337.473 609.333H337.489Z" fill="white"/>
<path d="M213.753 696.577C220.807 698.423 225.884 697.78 229.494 697.763C233.994 697.747 236.466 697.73 239.68 699.807C246.24 704.06 255.339 706.994 260.333 703.829C265.064 700.829 264.965 696.033 267.124 694.862L275.052 690.396C295.623 682.451 303.09 677.687 306.023 673.567L303.337 671.655C300.65 675.413 282.502 683.687 273.42 687.956L265.558 691.961C262.262 693.742 261.355 696.412 260.679 698.373C260.168 699.89 257.35 701.175 256.723 701.39C252.751 702.725 244.839 699.049 238.395 694.862C236.862 693.873 233.285 691.912 230.302 690.511C225.719 688.352 225.373 689.539 229.016 692.423C229.758 693.016 230.631 693.692 231.67 694.45C228.01 694.467 220.626 694.648 214.148 692.819C192.342 686.654 165.788 661.88 153.508 643.7C150.047 639.348 142.267 637.387 140.569 636.48C132.855 632.36 118.103 619.998 109.45 610.339C101.752 601.751 99.0161 587.906 96.8239 576.78C96.8239 576.78 94.4174 565.209 94.4833 563.528C94.9943 548.298 106.186 539.644 116.422 536.924C117.856 536.545 120.213 537.699 122.801 538.391C126.641 539.446 147.096 555.385 148.761 558.055C150.36 560.627 152.354 577.357 150.871 582.911C149.668 587.395 137.784 591.779 133.729 591.252C129.361 590.691 123.262 587.411 122.685 580.752C122.537 579.104 122.817 577.884 123.097 577.011C123.806 574.95 122.916 574.917 121.614 576.252C120.658 577.225 120.081 578.659 120.081 578.659C114.395 580.241 108.56 571.983 106.648 568.819C105.461 566.841 105.016 567.615 105.197 569.313C105.939 576.302 111.906 582.78 119.175 582.071C119.01 588.911 126.031 594.4 133.449 594.697C139.284 594.927 150.805 591.087 153.492 585.219C161.403 587.691 167.354 591.367 169.48 595.488C171.095 598.636 172.81 607.784 173.09 612.234C173.518 619.058 175.958 617.459 176.024 611.921C176.073 607.52 175.084 597.845 173.386 593.922C171.524 589.636 163.777 585.235 157.975 583.455C160.991 583.686 164.832 583.439 166.002 582.944C169.991 581.296 173.947 575.708 175.793 571.983C175.859 578.412 178.035 585.038 184.644 589.29C194.896 595.883 207.077 593.312 213.951 586.439C217.742 582.648 217.214 580.192 211.742 583.983C206.286 587.79 197.072 591.96 188.122 586.208C177.969 579.681 179.04 567.451 182.04 560.429C184.908 553.737 188.501 552.55 195.803 554.858C201.621 556.687 214.148 555.286 214.148 555.286C220.478 554.99 226.923 570.994 227.351 576.12C227.516 578.032 224.945 581.477 222.472 584.823C220.099 588.038 217.395 591.68 215.929 595.372C213.225 602.147 202.742 606.515 194.155 608.196C191.237 608.773 189.589 609.729 188.122 611.476C186.358 613.586 187.183 614.476 189.622 613.306C190.397 612.943 191.336 612.465 192.474 611.872C199.874 617.525 211.116 618.3 215.187 619.998C224.549 623.904 244.592 644.903 249.224 651.183C251.943 654.875 254.119 658.848 255.487 663.397C256.855 667.27 257.597 669.083 259.015 670.501C262.558 674.028 264.273 672.924 261.19 668.688C263.086 667.699 263.844 664.732 263.959 661.221C264.058 658.485 263.086 654.743 263.349 652.699C264.305 645.315 274.937 636.414 285.239 634.7L286.442 631.025C273.618 633.151 260.201 644.211 260.3 652.914C260.333 656.095 261.174 659.457 261.174 661.221C261.174 663.183 260.811 664.534 259.525 665.919C258.52 660.957 255.191 653.804 251.894 649.238C247.477 643.123 225.999 619.075 215.912 616.965C209.962 615.729 202.083 615.152 195.21 610.883C204.275 609.234 215.813 604.553 219.011 596.576C220.329 593.279 222.818 590.362 225.175 587.164C228.126 583.175 229.774 582.483 230.532 576.895C231.587 569.033 223.972 553.77 217.395 552.204C217.56 550.935 220.033 543.485 220.033 540.155C220.033 537.501 219.802 535.49 218.813 533.232C216.126 527.101 205.973 506.036 198.242 505.129C198.045 505.113 179.831 503.365 175.068 506.843C170.749 504.107 158.189 505.788 152.206 507.783C147.591 509.316 144.542 511.986 142.893 515.315C137.833 514.59 131.125 514.969 121.878 520.343C112.384 525.864 112.466 533.348 112.746 534.106C106.944 535.523 89.6209 546.649 90 561.566C90.0495 563.495 92.4065 575.478 92.4065 575.478C94.6811 586.999 96.8733 603.465 105.181 612.729C112.994 621.448 129.526 634.486 139.02 639.332C142.432 641.079 148.745 642.381 150.706 645.464C167.519 670.748 191.666 690.791 213.736 696.56L213.753 696.577ZM197.286 508.475C201.523 508.97 209.121 521.529 214.429 533.661C216.258 537.847 215.302 544.078 214.511 549.089L214.099 552.154L211.099 552.402C207.456 552.814 201.951 553.44 196.808 551.825C196.33 551.676 195.852 551.528 195.358 551.396C196.199 548.05 196.808 538.243 196.808 534.551C196.808 529.227 183.029 513.667 178.216 508.986C181.611 508.014 190.677 507.717 197.27 508.492L197.286 508.475ZM155.7 510.272C161.37 508.376 172.315 508.755 175.035 510.502C176.535 511.458 193.528 531.007 193.528 534.551C193.528 539.479 192.754 548.644 192.177 550.638C187.001 549.715 181.892 550.622 178.661 558.138C177.969 559.753 177.326 561.682 176.815 563.791C175.859 554.907 172.167 540.534 170.568 536.282C168.095 529.705 152.75 519.782 146.14 516.436C147.294 514.755 150.854 511.887 155.684 510.272H155.7ZM122.999 524.282C133.02 517.59 140.404 517.705 143.404 518.777C150.179 521.76 165.508 532.227 167.469 537.435C169.942 544.028 173.733 566.989 172.48 570.104C170.815 574.274 167.997 579.038 165.079 579.911C161.42 581.016 155.898 580.109 154.613 579.664C155.008 571.884 153.376 559.275 151.563 556.391C149.437 552.995 128.224 536.529 123.674 535.293C121.251 534.633 119.043 534.155 117.559 533.859C116.422 531.864 118.482 527.331 123.015 524.315L122.999 524.282Z" fill="#061922"/>
<path d="M192.803 625.008C196.429 630.794 204.44 642.217 209.533 647.26C213.951 651.661 215.698 650.375 211.907 645.579C205.841 637.882 196.314 625.75 194.798 623.789C191.682 619.767 190.298 621.02 192.803 625.008Z" fill="#061922"/>
<path d="M168.211 635.771C170.65 637.617 191.089 653.358 196.034 657C198.885 659.11 199.149 657.808 197.501 655.715C193.067 650.061 174.524 635.952 169.76 633.381C165.722 631.205 164.683 633.084 168.227 635.787L168.211 635.771Z" fill="#061922"/>
<path d="M226.016 663.66C228.175 666.231 238.18 669.676 241.444 668.522C244.707 667.385 245.317 666.775 241.642 666.363C237.982 665.951 230.483 664.385 227.203 662.011C223.923 659.638 224.021 661.286 226.016 663.66Z" fill="#061922"/>
<path d="M271.443 666.33C269.168 667.22 267.701 669.016 271.888 668.192C276.074 667.368 282.255 662.209 283.294 660.66C284.299 659.16 284.975 657.33 282.272 659.934C280.244 661.879 274.344 665.192 271.459 666.313L271.443 666.33Z" fill="#061922"/>
<path d="M480.988 627.661C481.697 630.727 489.675 642.759 498.081 645.924C502.482 647.589 503.158 646.402 498.823 644.193C492.46 640.963 485.768 632.573 483.296 626.804C481.845 623.425 480.115 623.903 480.972 627.645L480.988 627.661Z" fill="#061922"/>
<path d="M557.814 630.662C556.018 632.211 556.364 634.7 559.281 632.574C572.138 623.211 594.769 595.702 599.417 587.658C602.928 581.576 599.73 578.922 595.461 585.515C589.808 594.235 571.38 618.992 557.814 630.662Z" fill="#061922"/>
<path d="M609.026 625.569C607.741 630.085 609.488 630.629 611.4 626.261C614.548 619.042 621.52 606.152 624.586 601.817C627.174 598.141 625.114 596.51 622.048 600.367C618.735 604.537 610.724 619.651 609.026 625.585V625.569Z" fill="#061922"/>
<path d="M540.343 641.704C542.469 641.605 544.579 641.193 546.161 640.698C549.903 639.512 549.639 637.731 545.749 638.242C540.804 638.885 539.667 638.49 539.271 637.435C538.019 634.171 547.183 601.156 550.644 597.167C555.49 591.58 577.231 571.866 579.984 571.125C584.385 573.729 587.813 575.938 588.406 575.014C589.132 573.877 585.522 570.778 577.643 565.916C572.385 562.652 557.748 551.18 559.166 542.922L559.232 542.56L559.133 542.197C558.391 539.527 555.639 536.56 552.177 532.802C545.732 525.813 537.689 517.127 540.293 507.699C544.711 491.612 551.304 487.507 555.062 485.793C562.248 482.497 570.341 480.568 575.863 481.524C580.379 482.299 591.934 496.837 600.258 499.639C603.818 500.825 606.587 508.82 606.191 515.363C605.862 521.066 599.302 526.951 591.159 529.901C587.319 531.302 576.572 534.17 567.836 529.654C562.314 526.802 557.732 520.308 556.413 515.726C554.139 507.831 551.023 508.358 553.413 516.896C556.018 526.209 561.325 530.791 567.622 534.055C577.511 539.164 588.472 536.132 592.725 534.582C600.554 531.731 606.801 526.028 608.96 520.16C610.263 523.753 613.889 527.165 619.015 528.5C614.202 530.758 608.631 535.703 604.691 542.444C598.889 552.351 598.576 564.812 601.444 569.888C604.246 574.866 606.488 573.943 604.444 568.504C602.433 563.18 603.06 553.867 608.318 544.9C611.894 538.785 618.603 532.159 623.416 529.324C626.762 529.72 630.24 529.67 633.141 529.077C637.723 537.599 653.316 542.51 662.117 540.434C670.804 538.39 676.804 530.346 676.935 518.149C679.853 520.209 688.473 519.088 693.303 512.858C695.561 509.94 694.572 508.144 691.226 510.534C683.71 515.924 678.139 515.693 677.15 514.358C676.392 513.352 675.419 508.82 673.886 509.1C672.98 509.265 672.551 511.852 672.881 516.863C673.507 526.258 667.755 534.005 659.101 536.033C651.47 537.829 638.514 531.253 636.816 525.616C635.448 521.066 636.602 495.188 640.146 488.809C643.937 481.986 659.596 471.321 669.996 466.31C684.089 459.536 704.066 473.019 705.583 479.53C706.769 484.639 705.583 521.099 700.061 531.418C683.232 562.817 657.156 590.805 650.332 591.563C646.245 592.025 640.047 590.063 637.789 591.069C635.531 592.074 645.915 595.305 645.915 595.305C642.256 607.321 633.767 624.38 630.718 629.045C622.394 641.72 584.994 671.604 574.264 675.741C569.814 677.455 541.051 690.625 538.777 691.053C532.909 692.158 527.832 687.015 526.975 680.57C526.695 678.444 528.228 674.554 527.222 673.796C526.217 673.054 524.717 676.054 524.717 676.054C518.388 665.225 506.833 658.137 492.51 655.665C480.246 653.538 476.241 650.736 473.802 645.248C471.412 639.858 470.077 640.072 471.576 645.709C473.488 652.83 476.703 656.637 492.196 659.044C505.432 661.104 516.723 669.098 523.332 680.274C524.849 689.965 532.316 695.965 538.249 694.844C540.92 694.35 574.511 679.466 578.863 677.801C586.214 674.966 625.723 645.297 634.608 631.55C638.003 626.292 645.256 609.793 649.574 595.47C660.716 593.937 683.051 572.179 703.967 533.148C708.516 524.66 709.983 501.188 709.983 487.771C709.983 483.469 709.819 479.711 709.489 478.244C708.187 472.673 696.814 463.624 685.605 460.772C685.144 455.432 680.759 450.454 669.634 444.636C662.546 440.943 655.557 440.597 651.354 441.372C650.794 436.641 645.931 432.092 635.283 428.598C624.042 424.906 615.982 425.087 613.526 427.081C609.818 423.867 596.417 423.29 589.643 424.823C583 426.323 558.457 446.35 554.238 452.877C549.787 459.75 549.408 466.673 553.661 480.848C547.447 483.288 534.392 500.347 535.052 512.116C535.579 521.412 544.018 528.83 549.738 535.027C552.573 538.11 555.803 543.631 555.77 543.994C555.128 552.796 565.331 563.889 577.083 569.427C571.165 574.141 551.65 589.552 547.315 594.563C543.062 599.475 537.442 623.078 535.266 633.314C534.211 638.242 535.299 641.968 540.326 641.737L540.343 641.704ZM536.848 636.347C532.958 638.209 530.239 638.177 526.992 636.874C521.602 634.715 514.399 621.776 511.135 611.969C507.608 601.387 487.598 603.711 481.202 605.837C476.785 607.321 477.082 608.837 481.516 608.409C498.542 606.793 505.993 608.722 508.152 615.2C511.745 625.979 519.179 636.858 525.047 640.204C527.832 641.786 533.173 642.215 537.574 640.336L536.848 636.347ZM557.847 479.711C555.012 468.519 553.529 461.893 557.073 456.421C561.474 449.613 585.423 430.362 590.17 429.092C595.857 427.576 605.483 427.625 609.686 429.241C602.878 432.471 581.154 446.647 578.302 454.756C576.209 460.739 576.489 471.107 578.649 478.821C574.577 476.134 563.864 478.228 557.847 479.711ZM599.367 494.743C596.351 494.051 590.137 488.628 582.918 481.31C580.28 475.261 579.852 463.129 582.374 455.91C584.813 448.938 615.471 430.691 615.471 430.691C619.641 429.818 624.817 429.488 633.52 432.587C642.866 435.933 646.92 439.477 647.679 442.097C639.289 443.877 615.125 456.124 610.823 463.195C606.735 469.92 605.136 485.76 605.384 498.716C604.082 496.672 601.345 495.205 599.351 494.743H599.367ZM668.628 462.684C654.947 469.244 639.272 479.876 636.289 485.249C632.58 491.925 631.278 517.308 632.119 525.236C622.18 527.28 613.048 523.242 610.378 511.787C607.757 500.562 609.603 474.601 614.729 466.162C618.52 459.915 633.437 451.657 642.948 448.146C653.068 444.405 660.585 444.289 666.799 447.537C679.111 453.965 681.699 457.542 682.276 460.294C678.864 459.948 672.172 461.003 668.628 462.701V462.684Z" fill="#061922"/>
<path d="M323.1 552.121C327.698 546.599 344.989 528.468 352.126 525.056C358.224 522.138 377.839 522.517 387.959 523.589C369.12 544.44 364.653 548.247 357.054 551.89C352.67 553.983 353.444 555.302 357.796 553.835C373.652 548.412 392.954 521.018 397.058 519.122C401.937 516.88 435.578 517.194 442.55 523.82C443.836 525.039 449.061 536.808 451.418 541.868C453.775 546.928 455.193 546.286 453.841 541.242C457.204 543.269 459.379 545.593 467.786 550.95C475.598 555.912 477.065 562.801 477.065 565.158C468.313 562.472 465.28 563.807 475.038 568.191C484.812 572.576 488.307 575.724 488.307 575.724C491.059 577.85 499.861 597.481 501.493 608.047L505.086 609.728C502.037 589.866 495.114 575.081 491.537 572.905C491.537 572.905 482.867 567.664 482.01 567.021C481.269 564.516 480.411 554.445 472.335 549.318C464.901 544.588 454.154 537.879 452.621 536.759C451.286 533.891 446.918 523.457 444.776 521.43C436.122 513.205 400.701 513.798 395.64 516.122C392.13 517.737 389.822 520.573 389.031 521.677C380.789 519.897 358.933 517.82 350.576 521.809C346.274 523.869 329.759 539.627 321.501 551.362L323.083 552.121H323.1ZM476.39 684.049C485.983 683.983 494.62 675.972 498.328 658.978L495.229 657.858C490.664 674.901 484.483 679.879 477.906 681.115L476.406 684.065L476.39 684.049ZM444.215 643.798C460.863 651.446 475.598 669.659 475.598 677.802C475.598 688.466 440.902 706.35 416.425 710.372C410.145 711.41 388.52 711.69 356.56 706.877C351.219 706.07 341.478 701.685 336.533 698.208C326.841 691.433 307.128 665.473 302.43 655.946L301.787 660.149C306.6 670.566 325.737 694.647 334.638 700.911C339.978 704.652 349.604 709.35 355.933 710.553C365.774 712.416 408.035 716.569 417.167 714.872C437.985 710.982 479.373 692.966 479.538 677.686C479.67 665.736 463.154 649.814 447.05 641.622L444.199 643.798H444.215ZM316.358 639.957C328.523 639.957 341.445 644.259 351.022 644.259C364.62 644.259 383.74 629.474 391.668 629.474C405.167 629.474 427.947 647.506 437.276 647.506C441.215 647.506 447.545 643.567 454.467 635.523C456.281 633.414 455.687 631.634 452.852 633.644C445.616 638.787 442.616 642.858 436.073 642.825C429.892 642.825 404.146 625.947 391.47 625.947C384.564 625.947 361.488 641.342 351.087 641.342C341.297 641.342 323.38 636.249 316.523 636.249C307.474 636.249 300.683 645.512 300.271 660.808C300.172 664.566 301.458 664.632 302.101 660.989C304.919 644.952 310.655 639.957 316.358 639.957Z" fill="#061922"/>
<path d="M360.532 594.926C356.741 589.899 355.373 581.641 356.246 576.383C356.823 572.905 358.603 573.07 358.389 576.515C358.076 581.591 359.576 589.009 362.411 593.822C363.944 596.426 362.411 597.398 360.532 594.91V594.926Z" fill="#061922"/>
<path d="M368.988 591.728C382.059 578.031 405.349 564.68 418.782 562.686C425.771 561.647 426.167 563.774 419.277 565.257C408.316 567.614 383.476 581.427 370.323 593.739C367.389 596.475 366.087 594.794 368.988 591.745V591.728Z" fill="#061922"/>
<path d="M361.686 566.461C371.361 554.412 389.855 540.089 403.371 533.034C406.849 531.221 407.92 533.034 404.541 535.094C392.113 542.693 373.108 557.61 363.219 568.208C360.779 570.813 359.378 569.329 361.669 566.461H361.686Z" fill="#061922"/>
<path d="M425.655 555.219C423.875 548.461 419.408 539.907 413.524 534.863C410.854 532.572 412.139 530.907 414.925 533.116C421.831 538.572 425.688 544.835 428.012 554.906C429.117 559.67 426.892 559.917 425.655 555.219Z" fill="#061922"/>
<path d="M373.801 599.674C372.729 597.432 371.955 595.058 371.098 591.152C371.015 590.74 373.718 588.976 373.801 589.751C374.229 593.575 375.103 596.806 375.746 598.866C376.603 601.602 375.037 602.261 373.801 599.69V599.674Z" fill="#061922"/>
<path d="M420.562 583.405C419.392 576.664 417.018 569.412 414.645 565.456C414.282 564.862 417.793 564.22 417.892 564.351C419.886 567.73 422.211 576.071 422.936 582.779C423.43 587.262 421.32 587.757 420.579 583.405H420.562Z" fill="#061922"/>
<path d="M415.288 608.804C408.447 607.848 388.602 606.052 379.767 606.53C376.24 606.711 376.108 604.75 379.668 604.568C388.734 604.09 408.761 605.063 415.667 606.035C417.381 606.266 418.304 606.118 418.848 605.821C419.31 605.574 420.035 604.618 420.348 603.151C421.172 599.409 422.804 599.97 422.26 603.794C421.963 605.837 421.601 607.206 420.579 608.013C419.623 608.771 418.007 609.183 415.255 608.804H415.288Z" fill="#061922"/>
<path d="M380.905 583.504C380.905 594.927 384.086 602.641 386.987 602.641C389.888 602.641 393.069 594.152 389.674 577.57C385.833 579.763 380.905 583.504 380.905 583.504Z" fill="#061922"/>
<path d="M342.846 597.547C341.198 592.404 340.885 585.349 341.824 581.377C342.566 578.196 344.428 578.624 343.884 581.756C343.275 585.25 343.835 592.651 344.873 597.069C345.632 600.25 343.868 600.728 342.846 597.547Z" fill="#061922"/>
<path d="M335.824 599.36C330.747 596.36 312.023 587.542 307.441 585.927C303.188 584.427 300.304 584.361 297.271 586.619C294.337 588.811 293.381 587.674 296.167 585.152C299.776 581.905 303.436 581.229 308.446 583.009C312.979 584.608 330.599 593.509 336.582 597.399C339.764 599.459 338.857 601.173 335.808 599.36H335.824Z" fill="#061922"/>
<path d="M302.562 600.497C302.101 595.981 302.133 587.953 302.925 584.459C303.089 583.701 306.106 584.294 305.941 585.053C305.216 588.283 304.523 596.063 304.655 600.349C304.771 604.206 302.941 604.37 302.562 600.48V600.497Z" fill="#061922"/>
<path d="M311.661 617.442C319.144 616.371 329 613.074 336.055 609.135C338.709 607.651 339.681 609.283 337.06 610.915C329.577 615.579 319.473 618.909 311.809 619.634C309.023 619.898 308.793 617.854 311.677 617.442H311.661Z" fill="#061922"/>
<path d="M321.435 590.904C320.017 601.437 322.836 611.557 325.457 611.557C328.308 611.557 330.335 604.981 329.297 594.745C327.286 593.739 321.435 590.904 321.435 590.904Z" fill="#061922"/>
<path d="M385.635 582.861C386.69 582.811 387.696 584.179 387.778 586.124C387.861 587.806 387.086 589.52 385.949 589.586C384.778 589.635 383.872 587.937 383.789 586.322C383.723 584.707 384.63 582.91 385.635 582.861Z" fill="white"/>
<path d="M325.72 594.217C326.923 594.217 327.682 595.502 327.682 597.365C327.682 598.766 327.072 600.398 325.869 600.398C324.896 600.398 323.891 599.013 323.891 597.365C323.891 595.634 324.632 594.217 325.704 594.217H325.72Z" fill="white"/>
<path d="M337.522 575.263C331.423 570.878 323.545 566.626 315.913 564.153C312.221 562.95 312.798 561.269 316.506 562.192C324.814 564.252 332.544 568.043 338.56 573.252C341.923 576.169 340.983 577.768 337.522 575.279V575.263Z" fill="#061922"/>
<path d="M313.803 678C309.139 675.478 299.002 673.484 296.414 671.984C293.019 670.006 281.019 650.671 281.53 642.727C281.942 636.43 293.447 613.733 293.497 612.201C293.546 610.651 285.651 589.636 286.607 584.905C288.074 577.702 299.974 563.741 306.765 561.549C309.996 560.51 310.194 562.258 307.194 563.675C302.496 565.9 291.667 578.691 289.903 585.515C289.26 587.987 296.365 610.371 296.299 612.299C296.233 614.31 284.942 638.853 284.794 642.858C284.53 649.963 295.441 668.11 297.766 669.528C299.925 670.846 310.128 673.335 312.748 674.407C313.622 674.769 314.034 678.115 313.82 678H313.803Z" fill="#061922"/>
<path d="M297.09 569.493C303.534 557.576 310.144 549.862 314.018 548.742C315.913 548.181 321.138 549.599 332.989 555.533C337.835 557.955 336.863 559.835 332 557.642C321.435 552.879 316.259 551.577 315.023 551.939C312.781 552.599 308.117 557.329 302.958 565.29C302.216 566.428 296.727 570.186 297.09 569.51V569.493Z" fill="#061922"/>
<path d="M403.107 688.203C389.031 682.945 367.372 680.687 350.675 682.714C347.049 683.159 346.818 681.461 350.494 680.835C367.718 677.917 389.542 680.291 403.799 686.406C407.623 688.054 406.948 689.62 403.107 688.186V688.203Z" fill="#061922"/>
<path d="M345.549 700.302C339.401 697.154 337.077 690.841 339.797 686.637C341.527 683.951 343.11 685.171 341.709 687.874C340.407 690.396 341.709 695.39 346.604 698.472C349.736 700.45 348.862 701.999 345.549 700.302Z" fill="#061922"/>
<path d="M408.085 706.433C414.447 705.23 416.755 701.686 415.98 697.846C415.453 695.209 417.414 694.648 417.991 697.302C419.392 703.697 415.964 707.208 408.398 708.527C405.085 709.104 404.689 707.076 408.068 706.433H408.085Z" fill="#061922"/>
</g>
<defs>
<clipPath id="clip0_42_65051">
<rect width="620" height="291.284" fill="white" transform="translate(90 424)"/>
</clipPath>
</defs>
</svg>
