<svg width="800" height="800" viewBox="0 0 800 800" fill="none" xmlns="http://www.w3.org/2000/svg">
<g clip-path="url(#clip0_42_65100)">
<path d="M646.179 497.25L659.968 477.762C659.833 477.594 654.034 472.368 653.023 472.216C650.275 471.795 640.531 473.598 640.531 473.598L646.179 497.25Z" fill="#727069"/>
<path d="M276.089 618.422L273.544 638.516L294.16 654.497C295.391 660.009 290.384 677.44 288.648 678.317C280.54 682.362 255.253 690.892 254.63 694.567C254.023 698.242 252.472 710.717 254.916 711.93C257.36 713.144 265.604 712.065 265.604 712.065C265.604 712.065 265.823 718.235 269.363 719.415C274.285 721.033 288.345 718.808 288.345 718.808C288.345 718.808 288.699 723.107 294.228 723.613C300.499 724.186 307.326 723.697 309.164 722.483C311.001 721.253 352.015 699.844 353.853 696.775C355.69 693.724 356.297 688.212 354.46 685.144C352.622 682.076 353.853 671.068 353.853 671.068L374.048 671.675L374.655 663.111L276.106 618.439L276.089 618.422Z" fill="#898880"/>
<path d="M374.031 671.675L375.683 649.895L276.089 618.422L273.544 638.516L294.16 654.497C294.632 656.604 294.177 660.464 293.368 664.46C308.776 672.888 328.718 683.07 330.286 688.094C331.854 693.101 310.563 708.137 309.939 711.256C309.315 714.392 308.22 723.09 309.164 722.466C311.001 721.236 352.015 699.827 353.853 696.759C355.69 693.707 356.297 688.195 354.46 685.127C352.622 682.059 353.853 671.051 353.853 671.051L374.048 671.658L374.031 671.675Z" fill="#727069"/>
<path d="M473.086 625.029C429.02 642.645 424.823 656.974 424.823 656.974L426.66 663.093L448.39 661.171L452.975 667.998L472.327 663.851C472.327 663.851 476.44 676.157 474.603 679.832C472.765 683.507 472.563 691.869 474.401 693.706C476.238 695.543 497.023 712.721 500.091 715.772C503.159 718.824 509.751 725.263 512.802 724.033C515.87 722.802 524.602 720.021 524.602 720.021C524.602 720.021 529.879 722.6 532.947 723.207C536.015 723.813 548.472 718.79 548.472 718.79L550.917 713.884C550.917 713.884 553.85 715.503 555.553 714.677C558.772 713.126 564.993 710.209 564.386 707.765C563.779 705.321 566.223 691.245 562.548 688.177C558.873 685.126 540.617 673.73 537.566 666.38C534.498 659.03 530.115 637.368 530.115 637.368L536.942 631.906L533.183 617.78C533.183 617.78 517.168 607.379 473.103 624.995L473.086 625.029Z" fill="#898880"/>
<path d="M537.566 666.398C534.498 659.048 530.115 637.386 530.115 637.386L536.773 631.435L533.166 617.797C533.166 617.797 517.151 607.396 473.086 625.012C429.02 642.629 424.823 656.957 424.823 656.957L426.66 663.077L448.39 661.155L452.975 667.982L472.327 663.835C472.327 663.835 473.136 666.263 473.878 669.297C495.59 662.402 511.875 662.402 545.775 675.652C541.949 672.433 538.678 669.129 537.549 666.381L537.566 666.398Z" fill="#727069"/>
<path d="M509.852 723.646C510.998 724.151 512.009 724.354 512.802 724.05C515.87 722.82 524.602 720.038 524.602 720.038C524.602 720.038 529.878 722.617 532.946 723.224C536.014 723.831 548.472 718.808 548.472 718.808L550.916 713.902C550.916 713.902 553.85 715.52 555.552 714.694C558.772 713.143 564.992 710.227 564.386 707.783C563.914 705.928 565.212 697.399 564.268 692.055C559.649 696.994 555.282 700.113 552.804 701.107C551.355 701.68 553.26 704.293 552.299 705.001C549.517 707.075 546.095 707.918 536.335 710.632C533.755 711.356 528.024 708.558 525.765 709.367C517.825 712.199 511.655 711.997 511.284 711.879C510.34 711.559 510.947 717.375 509.868 723.646H509.852Z" fill="#727069"/>
<path d="M267.087 432.887L263.379 425.015C263.379 425.015 280.034 393.542 282.815 391.688C285.597 389.833 308.675 390.457 308.675 390.457C308.675 390.457 326.173 380.562 334.956 378.235C339.119 372.689 342.963 355.596 345.289 355.596C347.616 355.596 387.382 356.759 391.748 357.922C396.839 361.159 400.143 366.89 400.143 366.89C400.143 366.89 439.219 365.778 445.237 369.469C451.255 373.178 464.101 381.506 464.101 381.506L484.111 372.706L498.001 394.924C498.001 394.924 514.656 397.706 516.055 400.47C517.438 403.252 517.91 417.126 517.91 417.126C517.91 417.126 531.328 423.599 532.711 426.38C534.093 429.162 539.184 453.689 539.184 453.689C539.184 453.689 566.948 516.163 563.256 531.436C559.093 535.145 554.12 540.607 554.12 540.607L553.547 545.782C553.547 545.782 561.79 552.761 562.262 556.014C562.717 559.251 558.638 585.582 551.692 593.455C543.82 597.619 534.11 599.928 534.11 599.928V616.128C534.11 617.51 504.963 640.656 503.564 640.656C502.165 640.656 492.927 636.037 492.927 636.037C492.927 636.037 491.073 645.292 489.69 646.219C488.308 647.146 451.306 656.687 448.98 656.232C446.67 655.76 434.162 644.904 434.162 644.904L411.016 660.564C411.016 660.564 369.834 664.273 356.415 661.947L347.615 647.146C347.615 647.146 292.795 616.297 261.575 580.643C257.765 576.294 259.855 551.867 256.703 548.091C248.274 538.011 242.627 530.458 242.104 527.744C242.56 520.344 256.45 502.29 256.45 502.29L267.087 432.87V432.887Z" fill="#898880"/>
<path d="M258.844 509.421C258.844 509.421 254.63 508.747 251.679 507.719C250.685 509.185 249.151 512.641 248.139 514.276C251.966 519.199 261.693 526.818 261.693 526.818C261.693 526.818 268.284 524.222 273.796 522.907C267.559 516.923 258.827 509.404 258.827 509.404L258.844 509.421Z" fill="#727069"/>
<path d="M308.675 390.457C308.675 390.457 285.597 389.833 282.815 391.688C282.073 392.176 282.967 398.785 284.046 399.864C285.125 400.942 296.841 411.394 304.056 409.321C313.462 406.64 333.152 389.007 333.152 389.007C333.152 389.007 334.821 382.382 335.613 377.527C326.628 380.258 308.675 390.44 308.675 390.44V390.457Z" fill="#727069"/>
<path d="M563.256 531.454C566.965 516.181 539.184 453.707 539.184 453.707C539.184 453.707 534.093 429.179 532.71 426.398C531.328 423.616 517.91 417.143 517.91 417.143C517.91 417.143 517.454 403.269 516.055 400.488C514.673 397.706 498.001 394.942 498.001 394.942L484.11 372.724L463.696 381.321C463.696 381.321 451.255 373.196 445.237 369.487C439.219 365.778 400.952 366.908 400.952 366.908C400.952 366.908 396.822 361.176 391.731 357.94C387.382 356.776 347.582 355.613 345.272 355.613C344.632 355.613 343.772 356.979 342.777 359.069C358.708 360.3 384.146 362.845 386.927 366.031C389.708 369.217 390.905 389.109 393.687 390.306C396.468 391.503 416.866 403.758 419.243 403.354C421.637 402.949 443.703 408.023 445.018 409.81C446.333 411.597 478.278 452.46 479.643 455.966C481.009 459.489 488.797 517.26 488.004 519.637C487.212 522.014 489.201 547.097 484.026 548.682C478.851 550.267 451.002 563.011 451.002 563.011C451.002 563.011 441.444 579.329 438.663 582.11C435.881 584.892 378.616 605.778 369.412 607.97L370.71 611.156C370.71 611.156 363.782 617.225 362.686 618.084C361.607 618.944 358.809 614.932 358.809 614.932C358.809 614.932 341.918 616.466 332.41 615.522C320.475 614.325 347.582 647.113 347.582 647.113L356.381 661.914C369.8 664.223 410.494 661.459 410.494 661.459L434.145 644.871C434.145 644.871 446.636 655.727 448.963 656.199C451.272 656.654 488.274 647.113 489.673 646.186C491.056 645.259 492.91 636.004 492.91 636.004C492.91 636.004 502.165 640.623 503.547 640.623C504.929 640.623 534.093 617.494 534.093 616.095V599.895C534.093 599.895 543.82 597.586 551.675 593.422C558.62 585.549 562.7 559.218 562.245 555.981C561.79 552.745 553.529 545.749 553.529 545.749L554.103 540.574C554.103 540.574 559.076 535.095 563.239 531.403L563.256 531.454Z" fill="#727069"/>
<path d="M373.02 562.218C359.483 567.393 337.197 566.196 330.842 563.802C324.47 561.408 339.591 577.726 353.532 576.53C367.457 575.333 386.556 557.025 373.036 562.201L373.02 562.218Z" fill="#727069"/>
<path d="M293.081 470.817C289.929 456.337 258.439 443.036 258.439 443.036L247.65 440.288L238.396 445.834L217.577 438.889L206.012 446.29C206.012 446.29 188.902 433.09 186.121 434.017C183.339 434.945 155.575 449.981 155.12 451.836C154.665 453.69 154.665 466.653 154.665 466.653L132.986 483.696C132.986 483.696 169.482 542.546 175.956 538.854C182.429 535.145 192.611 524.98 192.611 524.98L205.473 525.267L228.618 503.942L257.849 509.235L280.523 527.745C280.523 527.745 296.234 485.298 293.098 470.817H293.081Z" fill="#898880"/>
<path d="M206.906 446.98C206.906 446.98 188.902 432.819 186.964 434.117C185.008 435.415 188.734 449.407 189.694 450.418C190.655 451.43 206.923 446.98 206.923 446.98H206.906Z" fill="#727069"/>
<path d="M268.503 493.423C261.271 489.344 252.944 485.804 252.944 485.804L239.997 471.711L226.95 480.173H218.807C218.807 480.173 194.078 494.89 171.219 494.57C180.423 507.533 172.955 540.557 175.922 538.837C182.395 535.129 192.577 524.964 192.577 524.964L205.439 525.25L228.787 503.723L257.816 509.219L271.386 519.3C271.386 519.3 271.082 498.953 268.47 493.407L268.503 493.423Z" fill="#727069"/>
<path d="M168.522 487.943C162.992 487.252 134.739 480.543 129.193 480.543C123.647 480.543 104.21 508.307 102.811 509.69C101.429 511.072 98.1753 521.726 97.265 525.418C96.3378 529.126 87.5551 556.419 93.1012 558.745C98.6473 561.054 116.702 570.309 120.41 566.617C124.119 562.909 126.884 555.98 135.211 555.98C143.539 555.98 158.357 560.144 162.52 556.435C166.684 552.727 187.975 539.78 188.43 536.072C188.902 532.363 191.212 520.799 189.357 517.107C187.503 513.398 172.23 488.415 168.538 487.96L168.522 487.943Z" fill="#898880"/>
<path d="M189.34 517.107C187.486 513.398 172.213 488.415 168.521 487.96C162.992 487.269 135.514 480.812 135.514 480.812C135.514 480.812 140.285 493.877 136.762 497.721C156.502 508.071 169.331 534.672 159.621 539.679C149.911 544.686 136.307 549.726 130.188 556.267C138.245 555.929 160.632 558.104 162.503 556.452C166.667 552.743 187.958 539.797 188.413 536.088C188.885 532.38 191.195 520.815 189.34 517.124V517.107Z" fill="#727069"/>
<path d="M138.195 481.673C138.195 481.673 112.993 464.815 107.447 465.287C101.901 465.759 84.3015 467.597 70.8829 465.759C66.7528 465.186 50.0639 488.432 52.8285 491.669C55.61 494.906 59.7738 496.305 59.7738 496.305C59.7738 496.305 86.3749 500.3 88.2293 502.61C90.0836 504.919 100.721 517.141 104.783 518C107.986 518.692 138.869 499.171 138.869 499.171L138.178 481.689L138.195 481.673Z" fill="#898880"/>
<path d="M107.447 465.271C101.901 465.743 84.3015 467.581 70.8829 465.743C70.3266 465.659 69.4501 479.55 73.2093 480.174C76.9685 480.797 112.352 482.062 116.112 482.685C119.871 483.309 121.809 483.376 138.852 498.447L138.195 481.674C138.195 481.674 112.993 464.816 107.447 465.288V465.271Z" fill="#727069"/>
<path d="M98.6808 521.744C94.871 521.744 73.1923 521.272 69.0285 520.8C64.8647 520.328 46.8103 539.309 44.956 541.619C43.1017 543.928 40.337 559.673 43.1017 560.583C45.8831 561.51 54.2107 563.365 56.5202 561.966C58.8297 560.583 77.3392 553.638 82.4302 555.492C87.5211 557.347 93.0672 561.038 93.0672 558.729C93.0672 556.42 102.322 537.438 101.867 534.201C101.395 530.965 100.063 521.727 98.6639 521.727L98.6808 521.744Z" fill="#898880"/>
<path d="M58.4927 539.984C55.6775 543.422 56.3687 562.101 56.5373 561.999C58.6107 560.752 73.7151 555.054 80.4749 555.24C83.4418 546.727 79.8006 540 76.0414 532.482C71.3381 529.667 61.3248 536.561 58.5096 540L58.4927 539.984Z" fill="#727069"/>
<path d="M188.734 531.048C186.627 529.986 175.585 528.317 172.702 531.453C167.156 537.471 154.193 554.126 152.338 554.126C156.047 556.907 171.775 571.253 174.085 575.872C176.394 580.508 181.182 582.43 184.384 581.283C192.392 578.401 201.394 574.018 198.157 561.526C194.92 549.035 190.588 531.975 188.751 531.048H188.734Z" fill="#898880"/>
<path d="M198.14 561.528C194.904 549.036 190.571 531.977 188.734 531.049C187.065 530.206 179.782 528.993 175.383 530.088C183.053 542.091 191.566 563.77 191.566 563.77C191.566 563.77 190.217 571.339 188.801 572.148C185.8 575.182 179.985 577.424 176.815 578.84C179.327 581.706 181.788 582.195 184.351 581.268C192.358 578.385 201.36 574.002 198.123 561.511L198.14 561.528Z" fill="#727069"/>
<path d="M484.65 514.614L480.418 484.253C480.418 484.253 490.6 462.507 492.455 461.108C494.309 459.726 512.347 455.09 512.347 455.09C512.347 455.09 518.55 440.036 519.932 439.581C521.315 439.126 551.776 437.221 558.62 440.744C560.104 441.503 561.402 449.999 561.402 449.999L581.294 449.544C581.294 449.544 595.184 432.416 599.803 434.726C604.439 437.035 631.276 448.144 631.276 450.926C631.276 453.707 633.13 466.654 633.13 466.654C633.13 466.654 642.419 474.678 649.786 487.473C650.106 488.046 641.458 552.256 641.458 552.256L597.039 564.293V536.528L582.221 515.709L585.929 510.618L584.901 502.864L578.057 507.854L559.547 507.382L554.929 516.636C554.929 516.636 523 517.564 521.601 516.636C520.219 515.709 518.365 513.4 518.365 513.4L507.256 519.418L484.65 514.614Z" fill="#898880"/>
<path d="M612.076 456.69C607.069 456.69 603.63 457.01 602.686 458.258C601.742 459.505 634.8 490.978 646.448 514.697C648.302 500.536 649.921 487.742 649.786 487.489C642.419 474.694 633.131 466.67 633.131 466.67C633.131 466.67 631.276 453.706 631.276 450.942C631.276 448.953 599.567 434.775 599.567 434.775C599.567 434.775 617.099 456.69 612.092 456.69H612.076Z" fill="#727069"/>
<path d="M563.543 487.692C562.414 488.383 551.962 501.161 548.523 502.408C545.084 503.656 522.192 502.021 511.892 502.408C498.743 508.662 479.289 514.057 478.885 516.855C478.48 519.637 502.772 522.418 502.772 522.418L518.382 513.399C518.382 513.399 520.236 515.709 521.619 516.636C523.001 517.563 554.946 516.636 554.946 516.636L559.565 507.381L578.074 507.853L584.918 502.864L584.851 490.507C584.851 490.507 564.689 487.001 563.56 487.692H563.543Z" fill="#727069"/>
<path d="M709.95 549.962C709.95 549.962 689.131 574.49 687.277 575.872C685.423 577.255 684.495 577.255 678.949 577.727C673.403 578.199 653.039 576.344 653.039 576.344C653.039 576.344 635.457 588.381 632.675 589.308C629.894 590.235 619.122 590.319 605.248 580.137C591.358 569.955 599.82 552.744 603.984 542.107C608.148 531.47 619.257 520.361 634.985 514.343C650.713 508.324 674.314 516.652 678.022 519.889C681.731 523.125 686.35 524.525 691.441 526.834C696.532 529.143 709.95 549.979 709.95 549.979V549.962Z" fill="#898880"/>
<path d="M691.44 526.818C686.35 524.509 681.731 523.109 678.022 519.873C675.578 517.732 670.959 516.805 670.959 516.805C670.959 516.805 675.965 549.053 671.903 552.492C667.84 555.931 659.057 565.017 656.242 566.888C653.427 568.759 618.11 578.318 605.788 580.492C619.408 590.27 629.944 590.185 632.675 589.275C635.457 588.348 653.039 576.312 653.039 576.312C653.039 576.312 673.403 578.166 678.949 577.694C684.495 577.239 685.422 577.239 687.277 575.84C689.131 574.457 709.95 549.93 709.95 549.93C709.95 549.93 696.531 529.111 691.44 526.784V526.818Z" fill="#727069"/>
<path d="M627.602 518.271C627.602 518.271 645.167 490.743 647.476 487.962C649.786 485.18 671.583 465.895 673.437 464.968C675.291 464.041 697.29 465.845 698.673 466.317C700.055 466.772 705.787 478.707 703.932 480.089C702.078 481.472 687.732 494.89 687.732 494.89L678.022 523.126C678.022 523.126 648.876 530.527 644.24 530.072C639.604 529.6 627.602 518.271 627.602 518.271Z" fill="#898880"/>
<path d="M698.673 466.316C698.673 466.316 679.236 464.395 673.454 465.457C671.701 465.777 674.044 478.774 674.044 478.774C674.044 478.774 660.625 490.204 659.058 492.698C659.378 492.378 668.447 512.118 670.335 524.947C677.365 523.312 678.022 523.126 678.022 523.126L687.732 494.89C687.732 494.89 704.05 481.067 704.084 478.37C704.135 475.672 698.656 466.316 698.656 466.316H698.673Z" fill="#727069"/>
<path d="M686.265 524.07C686.265 524.07 714.62 512.337 716.474 511.865C718.328 511.393 740.951 516.163 742.805 516.636C744.66 517.108 756.983 525.873 757.91 527.728C758.837 529.582 758.837 543.928 757.91 545.31C756.983 546.692 749.751 551.328 747.896 551.328C746.042 551.328 730.415 547.164 728.106 546.709C725.796 546.237 699.768 552.255 699.768 552.255C699.768 552.255 687.277 536.055 686.35 534.673C685.423 533.291 686.282 524.053 686.282 524.053L686.265 524.07Z" fill="#898880"/>
<path d="M757.893 527.745C756.966 525.891 744.643 517.108 742.788 516.653C740.934 516.198 718.311 511.427 716.457 511.882C715.665 512.084 710.068 514.326 703.915 516.821C716.137 521.659 735.742 524.323 735.742 524.323L746.699 531.521L747.863 551.346C747.863 551.346 756.949 546.71 757.876 545.327C758.803 543.945 758.803 529.599 757.876 527.745H757.893Z" fill="#727069"/>
<path d="M577.13 559.673C574.956 560.466 566.915 573.362 566.493 576.329C566.038 579.565 573.894 596.22 575.293 596.22C576.692 596.22 586.402 596.692 588.711 595.293C591.021 593.911 600.748 585.111 604.439 584.184C608.148 583.257 622.494 579.093 622.022 577.239C621.567 575.385 616.004 549.003 615.076 547.62C614.149 546.238 603.512 542.529 603.512 542.529C603.512 542.529 582.221 557.802 577.13 559.656V559.673Z" fill="#898880"/>
<path d="M587.97 563.466C587.363 562.859 579.187 573.665 578.765 576.059C578.327 578.435 566.493 576.345 566.493 576.345C566.493 576.345 573.894 596.237 575.293 596.237C576.692 596.237 586.402 596.709 588.711 595.31C589.099 595.074 603.226 584.066 603.95 583.51C598.236 578.25 592.589 570.85 587.986 563.466H587.97Z" fill="#727069"/>
<path d="M346.334 539.46C314.861 540.084 309.585 546.27 309.585 546.27C319.244 554.126 352.538 566.28 399.503 546.304C399.503 546.304 377.79 538.819 346.334 539.443V539.46Z" fill="#EE869A"/>
<path d="M375.97 553.806C383.454 552.205 391.344 549.794 399.52 546.322C399.52 546.322 377.807 538.837 346.351 539.461C314.878 540.084 309.602 546.271 309.602 546.271C311.254 547.62 314.389 549.339 318.755 550.974C336.608 541.484 366.799 544.72 375.987 553.79L375.97 553.806Z" fill="#CF7487"/>
<path d="M347.834 531.621C313.85 534.773 280.455 509.47 280.455 509.47L278.651 502.744L254.124 487.926C254.124 487.926 254.124 467.107 255.523 467.107C256.922 467.107 274.943 469.417 274.943 469.417C274.943 469.417 253.854 451.936 253.854 450.553C253.854 449.171 269.531 429.717 269.531 429.717L288.361 444.434L281.804 415.793C281.804 415.793 301.089 402.594 302.926 403.521C304.78 404.448 318.89 431.926 318.89 431.926C318.89 431.926 342.036 424.525 358.219 426.38C361.455 422.671 378.363 392.816 378.363 392.816C378.363 392.816 403.38 398.363 403.38 400.217C403.38 402.071 398.474 438.871 398.474 438.871C398.474 438.871 418.332 414.546 420.187 414.546C422.041 414.546 444.934 427.105 444.006 428.487C443.079 429.869 428.565 462.927 428.565 462.927L454.947 457.381C454.947 457.381 461.943 474.474 460.56 475.856C459.178 477.239 423.491 501.8 423.491 501.8C423.491 501.8 381.819 528.452 347.834 531.587V531.621Z" fill="#898880"/>
<path d="M287.367 443.693L269.936 429.752L266.177 434.067C266.177 434.067 280.944 449.374 289.895 454.482C291.615 450.2 288.462 447.958 287.367 443.676V443.693Z" fill="#727069"/>
<path d="M312.417 435.028C300.92 444.502 350.127 431.538 356.651 430.004C356.651 430.004 359.82 427.459 355.336 426.329C340.94 424.762 318.924 431.977 318.924 431.977C318.924 431.977 304.679 404.752 302.842 403.841C302.421 403.622 298.038 405.359 298.038 405.359C298.038 405.359 308.978 429.718 312.417 435.045V435.028Z" fill="#727069"/>
<path d="M391.647 449.796C395.727 450.116 407.544 431.859 412.921 421.829C406.583 428.994 398.508 438.889 398.508 438.889C398.508 438.889 403.953 401.887 403.953 400.033C403.953 399.291 397.294 397.184 397.294 397.184C397.294 397.184 387.584 449.476 391.664 449.779L391.647 449.796Z" fill="#727069"/>
<path d="M456.464 462.016C455.2 458.561 454.964 457.414 454.964 457.414L428.582 462.96C428.582 462.96 443.096 429.903 444.023 428.521C444.344 428.049 438.528 424.205 438.528 424.205C438.528 424.205 418.889 473.918 420.76 474.238C422.648 474.558 444.141 464.73 456.447 462.033L456.464 462.016Z" fill="#727069"/>
<path d="M405.251 483.813C401.323 482.246 351.796 514.309 353.549 521.321C354.544 525.283 395.895 509.993 397.277 509.605C397.277 509.605 412.314 497.704 413.865 495.512C415.433 493.321 408.37 485.061 405.234 483.813H405.251Z" fill="#727069"/>
<path d="M333.725 499.273C332.882 498.43 326.611 511.09 322.447 509.606C304.916 503.352 293.452 500.031 288.631 502.088C282.057 504.903 292.694 508.359 298.965 512.101C305.219 515.861 331.314 522.84 333.405 522.755C340.923 522.435 336.844 502.408 333.725 499.273Z" fill="#727069"/>
<path d="M331.567 519.755C327.403 520.682 306.281 523.598 302.1 521.036C299.336 519.35 296.234 511.056 296.756 504.802C304.443 503.723 331.567 519.755 331.567 519.755Z" fill="white"/>
<path d="M361.034 518.49C365.636 520.244 396.182 521.289 400.295 516.602C403.43 513.045 403.751 497.823 403.296 495.969C403.296 495.969 381.229 505.358 361.034 518.49Z" fill="white"/>
<path d="M296.841 504.987C296.554 506.403 297.447 509.151 297.464 510.718C307.275 511.157 316.429 514.511 324.015 520.614C326.897 520.327 329.628 519.821 330.69 519.585C330.69 519.585 304.528 503.908 296.841 504.987Z" fill="#DCDDDD"/>
<path d="M403.447 496.457C403.447 496.457 382.19 504.936 361.017 518.507C361.944 518.861 364.507 519.198 367.912 519.417C377.099 510.567 390.72 508.51 403.009 504.818C402.925 501.379 403.633 497.266 403.431 496.457H403.447Z" fill="#DCDDDD"/>
<path d="M263.851 538.398C263.851 538.398 251.359 547.652 249.505 549.962C247.651 552.271 241.177 594.853 242.104 596.236C243.032 597.618 258.76 611.964 261.541 611.509C264.323 611.037 269.414 606.873 269.414 606.873L263.868 538.381L263.851 538.398Z" fill="#898880"/>
<path d="M242.475 596.674C245.055 599.456 258.945 611.93 261.541 611.509C264.323 611.037 269.414 606.873 269.414 606.873L268.284 592.848C259.94 594.314 251.427 596.405 242.492 596.674H242.475Z" fill="#727069"/>
<path d="M264.778 581.892C262.923 584.201 259.687 596.692 260.614 598.547C261.541 600.401 289.305 630.93 291.16 632.784C290.705 636.493 293.368 639.73 294.75 641.112C296.133 642.494 307.36 657.312 311.524 657.312C315.687 657.312 336.506 659.621 340.215 657.767C343.924 655.913 352.251 648.512 353.634 645.731C355.016 642.949 349.47 639.258 349.47 639.258L353.634 636.476C353.634 636.476 355.943 623.985 353.178 623.058C350.397 622.13 341.614 621.675 339.76 619.821C337.906 617.967 334.669 615.185 334.669 615.185C334.669 615.185 339.76 610.094 342.541 609.639C345.323 609.184 353.178 607.329 353.65 605.475C354.122 603.621 355.96 593.439 352.723 590.202C349.487 586.966 334.669 580.02 330.977 579.093C327.268 578.166 311.54 579.548 309.231 580.948C306.921 582.33 304.14 586.038 304.14 586.038L294.43 574.002L293.975 559.201C293.975 559.201 287.03 549.019 285.175 548.564C283.321 548.109 269.902 550.874 269.902 550.874L264.811 581.875L264.778 581.892Z" fill="#898880"/>
<path d="M353.162 623.074C350.38 622.147 341.597 621.692 339.743 619.838C337.889 617.983 334.652 615.202 334.652 615.202C334.652 615.202 339.743 610.111 342.524 609.656C345.306 609.201 353.162 607.346 353.634 605.492C354.089 603.654 354.476 600.536 354.476 600.536C354.476 600.536 338.428 600.097 335.933 602.289C333.421 604.48 328.111 610.751 328.111 610.751C328.111 610.751 332.494 623.9 335.933 627.659C339.372 631.419 328.415 643 328.415 643C328.415 643 330.573 646.321 328.415 648.006C318.081 656.149 310.478 657.329 311.524 657.329C315.687 657.329 336.506 659.638 340.215 657.784C343.924 655.929 352.251 648.529 353.634 645.748C355.016 642.966 349.47 639.274 349.47 639.274L353.634 636.493C353.634 636.493 355.943 624.001 353.178 623.074H353.162Z" fill="#727069"/>
<path d="M278.77 572.855C278.921 575.046 297.717 598.208 297.717 598.208L304.106 586.037L294.396 574.001C294.396 574.001 296.723 564.021 293.941 559.2C291.16 554.362 278.635 570.646 278.786 572.838L278.77 572.855Z" fill="#727069"/>
<path d="M455.402 576.936C448.44 583.409 446.35 588.55 442.877 589.713C437.331 591.568 430.672 593.287 430.672 593.287C430.672 593.287 422.8 581.723 419.108 581.723C415.416 581.723 398.744 583.105 392.726 584.96C386.708 586.814 374.672 597.03 373.744 598.429C372.817 599.811 374.672 610.414 374.672 610.414L395.963 612.724L395.507 619.197C395.507 619.197 386.708 627.525 383.471 627.997C380.235 628.452 376.998 626.615 376.071 628.452C375.144 630.306 375.144 644.18 376.998 645.579C378.852 646.962 387.635 648.816 387.635 648.816L399.671 663.162C399.671 663.162 430.976 658.205 434.667 656.823C438.376 655.441 453.346 644.652 455.655 643.725C457.964 642.798 473.237 639.106 473.237 639.106L484.195 639.156L504.693 630.306L509.784 617.815C509.784 617.815 524.602 618.287 525.512 615.961C526.44 613.651 532.458 592.36 532.913 587.724C531.059 584.016 527.822 581.706 527.822 581.706C527.822 581.706 510.29 569.754 503.53 569.35C496.77 568.945 469.31 576.514 455.368 576.919L455.402 576.936Z" fill="#898880"/>
<path d="M373.761 605.054C374.048 608.611 374.672 610.415 374.672 610.415L395.963 612.724L395.609 617.714C397.749 615.371 396.3 609.909 395.693 607.481C393.046 607.077 376.576 605.981 373.761 605.037V605.054Z" fill="#727069"/>
<path d="M527.855 581.723L539.774 564.596C539.774 564.596 484.464 561.814 484.464 569.771C484.464 577.728 490.027 599.626 485.661 604.784C483.874 606.908 467.523 616.652 467.523 616.652C467.523 616.652 466.09 625.199 460.662 627.592C455.25 629.969 454.07 624.373 454.07 624.373C454.07 624.373 440.854 631.958 440.5 632.666C439.556 634.538 432.678 642.376 429.222 645.192C425.783 648.007 396.199 654.008 392.625 654.952L399.671 663.179C399.671 663.179 431.38 658.425 435.072 657.042C438.781 655.66 453.345 644.669 455.655 643.742C457.964 642.815 473.237 639.123 473.237 639.123L483.79 639.173L504.912 631.25L509.801 617.832C509.801 617.832 524.619 618.304 525.529 615.978C526.456 613.668 532.474 592.377 532.93 587.741C531.075 584.033 527.839 581.723 527.839 581.723H527.855Z" fill="#727069"/>
<path d="M256.197 710.395C255.506 710.277 254.764 708.658 254.764 706.163C254.764 703.062 255.051 696.808 255.793 694.768C256.534 692.728 269.464 687.553 277.185 684.451C281.972 682.529 286.49 680.709 289.17 679.377C291.632 678.146 296.149 663.885 296.149 656.973C297.616 658.103 300.903 660.53 302.707 661.693C304.511 662.857 306.972 663.143 303.263 659.772C299.555 656.4 276.342 638.851 275.432 637.84C274.521 636.829 277.505 621.589 277.252 618.572C277.016 615.554 275.937 612.352 275.229 615.841C274.521 619.347 271.521 632.176 271.183 635.463C270.846 638.75 270.728 639.172 274.926 642.341C279.107 645.51 292.238 654.529 293.014 655.119C293.435 659.906 289.39 675.854 287.99 677.287C285.394 678.585 280.978 680.355 276.291 682.243C261.12 688.345 253.719 689.812 252.489 693.402C251.781 695.493 251.073 700.803 251.073 705.068C251.073 708.523 252.826 712.215 254.377 712.991C256.349 713.968 262.654 713.564 265.435 713.311C265.503 712.35 265.064 711.575 265.368 710.867C262.434 711.086 257.563 711.069 256.197 710.412V710.395Z" fill="#0E141B"/>
<path d="M375.835 663.178L373.458 663.01C373.458 663.01 373.61 669.989 372.935 670.444C372.244 670.899 351.981 669.432 347.464 669.534C342.929 669.652 339.659 670.899 352.335 672.029C352.335 675.08 351.459 682.43 353.448 685.751C355.066 688.431 354.459 693.454 352.841 696.152C351.257 698.377 311.321 720.376 308.523 721.488C306.972 722.095 300.785 723.006 294.363 722.416C291.261 722.129 290.721 720.056 290.553 718.285C290.62 713.296 292.137 705.086 292.137 705.086C292.795 701.816 297.565 699.085 301.426 697.399C305.269 695.696 308.118 693.808 300.971 696.152C292.036 699.102 290.789 700.332 289.423 704.53C288.648 706.924 288.243 709.435 287.856 711.913C287.603 713.515 287.316 718.96 287.468 720.14C287.974 723.882 291.834 725.18 293.84 725.349C299.689 725.888 307.124 725.838 309.737 724.708C318.25 721 354.24 699.54 355.538 697.399C356.701 695.46 357.123 693.202 357.123 690.487C357.123 688.515 356.415 686.02 355.521 684.537C354.898 683.492 355.083 681.115 355.083 678.384C355.083 676.327 355.488 674.068 355.656 672.265C357.679 672.332 373.812 673.883 375.211 672.905C376.61 671.927 375.902 663.195 375.902 663.195L375.835 663.178Z" fill="#0E141B"/>
<path d="M270.24 717.643C268.419 717.037 267.677 716.194 267.306 714.542C267.02 708.726 268.099 701.325 269.329 699.538C270.577 697.735 279.73 693.655 282.394 692.694C285.057 691.733 285.428 689.963 282.023 691.059C274.201 693.554 267.02 696.723 266.278 699.656C265.25 703.803 264.761 708.035 264.929 712.283C265.132 717.306 265.199 718.082 266.025 719.144C266.767 720.105 267.846 720.661 268.992 721.032C273.291 722.448 284.72 721.807 288.328 721.301C288.328 720.492 288.075 718.52 288.075 717.711C283.726 718.267 273.796 718.823 270.256 717.66L270.24 717.643Z" fill="#0E141B"/>
<path d="M567.049 696.049C567.049 691.531 566.763 689.424 564.774 687.789L559.244 683.945C552.99 679.512 541.358 671.269 539.133 665.925C536.622 659.89 533.098 640.891 532.036 635.885C531.295 636.256 529.39 638.447 528.614 638.548C529.727 643.842 533.84 660.615 536.436 666.852C538.931 672.836 550.478 681.012 557.373 685.901L561.756 689.104C563.071 690.2 563.391 693.588 563.391 697.077C563.391 699.117 563.391 704.158 563.054 706.4C562.7 708.642 562.97 709.535 561.318 710.496C559.666 711.457 556.463 713.412 554.996 713.615C553.53 713.8 551.186 713.53 551.186 713.53C551.186 713.53 550.63 714.508 550.63 715.452C551.827 715.89 553.934 716.548 555.654 716.346C557.373 716.143 561.857 713.227 563.846 711.794C565.836 710.361 566.459 708.136 566.527 705.877C566.594 703.601 566.999 697.887 566.999 696.032L567.049 696.049Z" fill="#0E141B"/>
<path d="M524.72 704.579C523.405 703.264 518.213 699.792 517 698.848C515.786 697.904 513.679 696.892 511.673 695.678C509.683 694.448 509.599 695.897 510.914 696.976C512.246 698.055 512.465 698.325 514.589 699.943C517.387 702.067 523.962 707.023 523.995 708.406L524.383 712.924C524.451 714.104 524.518 718.436 523.759 719.026C523.001 719.616 515.162 721.335 512.465 722.414C511.555 722.785 508.756 722.751 500.934 714.946C499.164 713.176 491.814 706.973 485.307 701.494C480.52 697.465 476.322 693.301 475.564 692.543C474.232 691.211 473.946 683.861 475.682 680.389C477.502 676.747 474.552 666.886 473.676 664.121C472.766 664.307 470.186 664.661 470.254 664.644C471.4 668.268 473.912 673.983 473.912 677.135C473.912 678.062 473.811 678.821 473.558 679.31C472.546 681.333 471.248 684.3 471.248 687.435C471.248 690.334 471.265 693.116 472.378 694.229C473.221 695.071 478.75 699.067 483.773 703.315C490.23 708.76 507.256 727.826 512.583 726.056C514.791 725.331 517.522 724.724 519.697 723.948C521.585 723.274 525.344 722.027 526.642 720.442C527.957 718.857 526.979 712.317 527.047 710.041C527.114 707.765 526.018 705.911 524.703 704.596L524.72 704.579Z" fill="#0E141B"/>
<path d="M551.507 699.691C548.961 696.657 542.539 691.195 538.611 689.223C534.683 687.25 535.003 688.565 537.195 690.251C539.403 691.937 547.849 699.405 549.433 700.922C551.018 702.439 550.951 705.271 550.529 708.474C550.125 711.66 549.99 713.868 548.742 716.009C548.287 716.785 547.781 717.611 547.057 718.049C546.113 718.639 544.764 718.925 543.719 719.296C541.578 720.072 539.42 720.797 537.212 721.387C535.998 721.707 534.43 722.28 533.149 722.027C531.194 721.64 525.462 719.212 525.462 719.212L524.097 720.459C524.097 720.459 530.519 724.421 532.66 724.842C536.049 725.517 540.499 723.915 543.618 722.82C545.169 722.28 546.871 721.791 548.338 721.05C550.327 720.055 551.271 717.577 551.81 715.706C552.367 713.851 552.822 711.323 553.462 706.957C554.086 702.692 554.019 702.675 551.473 699.657L551.507 699.691Z" fill="#0E141B"/>
<path d="M563.138 692.256C562.076 693.959 560.137 695.948 556.968 697.903C553.782 699.859 553.799 700.634 557.474 699.522C561.149 698.392 563.442 694.886 564.318 693.234C565.195 691.582 564.217 690.57 563.155 692.273L563.138 692.256Z" fill="#0E141B"/>
<path d="M535.998 709.907C532.947 710.396 532.997 711.425 536.082 711.593C539.167 711.762 549.012 709.149 551.389 705.862C552.535 704.277 552.316 703.687 551.17 704.496C550.007 705.305 539.032 709.419 535.998 709.907Z" fill="#0E141B"/>
<path d="M521.854 709.789C519.494 710.851 515.077 711.307 512.701 711.644C510.324 711.981 511.655 712.723 513.577 713.06C515.499 713.397 519.949 713.228 522.882 711.307C525.833 709.385 524.214 708.727 521.854 709.789Z" fill="#0E141B"/>
<path d="M533.773 618.219L531.008 619.213C531.008 619.213 534.093 625.939 534.784 628.89C535.475 631.84 534.093 631.974 533.25 632.952C532.407 633.93 516.055 645.983 514.285 647.112C512.515 648.242 511.386 648.933 509.852 648.09C508.318 647.247 506.565 646.64 503.631 645.258C500.698 643.876 500.327 645.191 502.89 646.775C505.452 648.36 506.582 649.169 508.031 649.928C509.481 650.686 512.751 651.462 513.78 650.905C516.831 649.27 535.003 635.38 536.554 633.98C538.105 632.581 538.526 631.469 537.835 628.67C537.127 625.872 533.79 618.252 533.79 618.252L533.773 618.219Z" fill="#0E141B"/>
<path d="M494.983 647.551C494.292 651.159 492.843 658.306 492.084 659.065C491.325 659.823 453.919 666.684 453.514 666.667C453.109 666.667 451.575 663.751 450.429 662.049C463.055 660.919 457.863 659.436 453.531 659.57C449.199 659.705 429.206 662.116 428.396 661.695C427.587 661.273 427.267 661.003 426.104 657.918L422.918 658.626C422.918 658.626 424.3 664.156 425.784 664.409C427.267 664.661 446.468 662.571 447.783 662.453C448.44 663.431 451.07 669.769 452.435 670.326C453.801 670.882 491.646 661.981 493.719 661.02C495.776 660.059 496.349 651.883 496.619 647.939C496.905 643.977 495.658 643.977 494.967 647.585L494.983 647.551Z" fill="#0E141B"/>
<path d="M254.781 695.021C255.574 696.201 258.237 699.421 261.642 699.64C265.031 699.859 264.019 699.421 261.979 698.628C259.94 697.836 256.754 694.92 256.18 694.094L254.781 695.021Z" fill="#0E141B"/>
<path d="M267.408 702.253C269.211 704.512 271.352 705.406 280.961 706.417C284.282 706.771 283.793 705.541 281.163 705.102C273.156 703.771 270.004 702.304 268.756 701.259C267.509 700.214 265.587 699.978 267.408 702.253Z" fill="#0E141B"/>
<path d="M290.721 706.417C292.205 708.474 299.521 709.907 305.253 709.755C308.354 709.671 308.793 708.895 304.747 708.508C300.684 708.12 292.711 706.063 291.446 704.883C290.165 703.703 289.238 704.361 290.721 706.4V706.417Z" fill="#0E141B"/>
<path d="M255.557 544.838C245.796 533.021 244.549 528.385 244.212 527.036C244.566 522.839 248.847 514.646 253.129 508.459C252.286 508.24 250.971 508.038 250.213 507.785C246.083 513.803 240.486 522.805 240.469 527.98C240.452 531.74 246.656 539.798 252.742 546.321C253.298 545.681 254.866 545.192 255.574 544.838H255.557Z" fill="#0E141B"/>
<path d="M535.205 425.875C533.806 423.077 522.259 417.952 519.056 416.402C518.938 413.435 520.253 403.202 518.921 400.539C517.471 397.622 504.154 394.79 498.726 393.863C498.186 393.003 487.667 371.274 484.582 370.296C481.514 369.319 465.955 378.337 463.291 379.467C460.931 377.781 453.244 371.156 447.31 367.97C441.377 364.784 413.241 365.964 401.593 365.964C396.89 359.305 395.642 356.456 392.642 356.018C380.167 354.197 352.555 353.186 348.34 353.051C346.064 352.984 344.025 352.984 342.861 353.894C341.344 355.108 338.529 365.509 335.495 375.472C318.384 381.776 309.855 388.317 308.101 389.328C300.043 389.126 285.664 387.103 281.652 389.278C278.044 391.233 262.468 421.897 261.946 424.695C261.423 427.443 265.806 432.922 266.21 433.731C266.21 433.731 267.256 432.197 267.795 431.624C266.885 429.685 264.794 426.735 265.081 424.645C265.368 422.538 281.787 393.914 283.473 392.7C285.007 391.672 293.823 391.115 304.983 391.419C304.983 391.419 297.801 396.409 295.391 398.819C292.98 401.23 293.84 401.938 296.756 399.915C306.146 393.408 324.419 382.585 334.5 379.939C331.449 390.626 332.208 393.897 336.759 380.276C339.861 370.988 344.699 357.232 346.57 356.895C348.104 356.608 390.669 358.732 392.507 359.339C394.344 359.946 396.367 362.862 401.509 370.937C407.156 379.787 406.701 373.836 402.992 368.223C413.646 367.801 438.882 368.762 444.63 370.516C450.379 372.286 460.291 380.259 463.865 383.243C466.477 385.418 473.119 388.772 465.904 382.097C470.169 379.231 481.717 373.735 483.638 374.224C485.577 374.713 494.41 391.284 499.602 401.651C504.795 412.019 504.508 406.135 500.732 396.881C507.188 398.28 514.521 400.421 515.314 401.786C516.241 403.64 515.836 409.557 516.022 414.817C516.022 414.817 509.987 412.44 509.161 412.996C508.335 413.553 509.026 414.261 512.667 415.946C516.308 417.632 530.907 425.42 531.665 426.938C532.222 428.033 533.385 432.197 534.801 438.451H537.245C536.453 431.776 535.93 427.275 535.222 425.859L535.205 425.875Z" fill="#0E141B"/>
<path d="M357.14 660.834C356.786 660.227 353.296 654.378 350.869 650.281C350.38 650.989 349.554 651.192 348.896 651.63C351.543 656.08 353.111 659.57 354.358 661.491C355.606 663.413 356.061 663.767 357.865 663.868C373.593 664.779 386.185 663.582 399.452 662.655C399.014 661.879 398.575 661.087 398.087 660.345C385.14 661.222 365.821 662.166 357.14 660.834Z" fill="#0E141B"/>
<path d="M561.014 506.504C560.711 507.111 559.919 508.358 559.059 510.027C561.082 517.192 562.413 523.564 562.413 527.963C562.413 529.076 552.973 540.118 552.973 540.118L552.771 546.709C556.058 549.491 561.099 556.537 561.099 556.773C561.099 561.577 557.272 585.043 550.917 592.511C543.314 596.489 534.059 597.45 533.958 597.484L532.913 599.001V615.808C531.008 618.303 506.228 639.847 503.261 638.97C500.294 638.093 497.462 636.964 493.45 634.975L491.747 635.818C490.955 639.796 489.657 644.482 488.982 645.241C486.285 646.472 451.93 655.271 449.165 655.069C448.524 654.917 446.383 653.383 443.653 651.242C443.147 651.866 442.978 652.726 442.354 653.265C445.119 655.423 447.665 657.21 448.743 657.412C451.458 657.952 488.949 648.764 490.365 647.82C491.68 646.944 492.843 641.398 493.736 637.301C497.327 639.071 503.109 642.342 504.39 642.342C504.795 642.342 505.486 642.426 520.506 630.423C535.711 618.286 536.959 617.241 536.824 615.285C536.689 613.33 535.307 602.524 535.307 600.872C537.498 600.299 549.77 597.501 552.586 595.208C557.778 590.994 564.841 560.785 564.15 555.863C563.678 552.626 556.867 547.114 554.794 545.31C554.895 544.416 555.199 541.736 555.266 541.163C556.328 540.017 565.212 530.728 565.212 529.363C565.212 524.137 563.476 514.882 561.014 506.521V506.504Z" fill="#0E141B"/>
<path d="M280.961 526.986C276.342 522.519 260.125 508.038 258.17 507.617C256.214 507.195 231.467 503.065 229.529 502.829C229.866 494.114 228.332 487.135 227.776 489.545C227.101 492.495 227.759 501.531 226.511 503.486C225.264 505.442 207.53 522.535 205.54 523.412C204.276 523.985 198.679 524.322 195.089 524.171C203.332 516.736 217.391 502.104 218.706 501.312C221.167 499.828 219.937 485.432 219.768 481.437C219.6 477.442 218.251 478.167 218.082 481.487C217.914 484.808 217.88 498.783 216.717 499.694C214.644 502.155 195.645 520.074 190.588 524.508C190.537 524.508 190.032 528.992 189.863 529.531C191.448 528.065 192.645 526.885 193.184 526.362C194.162 526.295 204.63 528.688 206.552 527.559C208.474 526.43 227.658 506.622 228.669 505.661C230.018 505.897 255.422 509.774 256.888 509.926C258.355 510.078 274.049 524.862 279.949 528.722C285.833 532.566 285.546 531.453 280.944 526.969L280.961 526.986Z" fill="#0E141B"/>
<path d="M227.91 448.92C223.612 449.139 221.69 449.325 217.981 450.555C214.34 451.752 215.099 452.376 218.116 452.241C221.134 452.106 228.922 450.505 229.546 451.364C230.186 452.224 240.132 475.302 240.486 476.785C240.823 478.252 235.597 482.483 233.22 484.557C230.86 486.63 230.978 487.54 235.732 485.046C240.486 482.551 243.065 479.685 243.133 477.999C243.2 476.33 234.485 455.832 232.681 452.224C230.877 448.6 230.692 448.802 227.927 448.937L227.91 448.92Z" fill="#0E141B"/>
<path d="M256.956 444.823L258.861 442.109C258.861 442.109 249.185 438.316 247.431 438.754C245.678 439.193 239.626 444.165 238.632 444.755C235.361 442.8 221.151 436.411 217.728 436.917C215.301 437.288 207.142 443.963 205.692 444.89C191.92 434.354 187.975 432.298 186.374 432.163C184.789 432.028 154.547 448.178 153.704 451.515C153.265 453.302 153.535 463.568 153.535 466.704C152.81 467.277 141.246 474.34 134.975 479.263C135.767 479.853 136.29 480.696 137.099 481.269C141.01 478.201 151.866 471.003 159.621 466.164C169.381 460.079 168.319 458.831 157.16 464.765C156.249 459.438 156.199 453.96 156.452 452.426C158.626 450.167 183.002 436.63 186.475 435.416C188.413 435.45 202.877 445.868 206.839 448.582C210.8 451.296 212.149 450.318 207.901 446.509C211.019 443.727 216.11 440.743 217.762 440.474C221.353 439.901 237.418 446.205 238.615 446.998C239.812 447.79 245.628 455.595 247.6 458.123C251.191 462.726 251.814 462.068 249.151 457.146C247.094 453.623 244.043 449.779 241.009 446.34C243.352 444.334 247.128 441.923 247.887 441.822C248.965 441.687 256.973 444.823 256.973 444.823H256.956Z" fill="#0E141B"/>
<path d="M101.901 515.185C101.125 514.595 100.299 514.073 99.4226 513.584C98.3606 516.467 97.3154 519.939 96.6074 522.35C97.5683 522.4 99.254 522.434 100.215 522.62C100.923 520.175 101.075 517.461 101.884 515.185H101.901Z" fill="#0E141B"/>
<path d="M190.622 516.467C190.47 516.18 173.933 487.185 168.69 486.528C166.6 486.258 142.898 481.825 138.077 480.931C133.643 477.492 111.965 462.27 108.779 462.068C104.682 461.815 88.263 466.046 71.0684 463.366C65.3368 462.472 50.4517 486.646 50.4517 491.113C50.4517 493.187 57.2958 496.963 59.3018 497.637L59.4198 497.671H59.5378C71.8944 499.542 86.2907 502.222 87.8416 503.52C88.381 504.161 99.1529 518.692 104.176 519.754C107.615 520.496 124.591 509.572 128.586 506.234C132.581 502.896 132.177 501.16 128.165 504.026C124.153 506.909 106.992 516.652 105.019 516.534C102.019 515.894 92.6459 505.813 89.325 501.649C87.4201 499.272 70.2761 496.373 60.111 494.855C59.8413 494.754 56.3349 493.49 53.9412 490.742C53.9412 490.675 53.9074 490.607 53.9074 490.506C53.9074 489.36 55.1718 485.904 58.9478 480.206C64.1231 472.368 69.3658 467.226 70.6975 467.142C83.1046 468.844 108.795 466.046 108.795 466.046C112.47 465.743 136.88 482.87 137.403 483.106C137.403 483.106 137.403 483.123 137.403 483.139C137.436 483.139 137.47 483.139 137.521 483.156C138.397 483.544 166.043 489.056 168.269 489.343C171.286 490.304 185.48 512.589 188.042 517.731C188.447 518.54 188.599 519.922 188.599 521.558C188.599 524.373 188.144 527.964 187.739 530.812C188.683 531.369 190.082 532.431 190.875 533.122C191.886 526.497 192.122 519.484 190.605 516.45L190.622 516.467Z" fill="#0E141B"/>
<path d="M72.9228 479.28C71.4899 479.752 60.6336 492.648 59.285 495.076C58.2736 496.896 59.4536 498.093 61.8305 495.396C64.6794 492.176 72.5519 481.977 73.5296 481.421C74.0859 481.354 80.5761 481.623 85.9704 481.977C96.8941 482.702 99.5576 483.562 114.308 482.331C118.725 483.141 135.211 497.453 136.947 498.767C138.684 500.082 139.426 498.953 139.341 496.121C139.257 493.289 138.987 484.489 138.549 482.449C138.111 480.41 135.464 478.926 135.616 481.134C135.751 483.107 136.964 493.457 137.065 496.239C132.632 492.463 120.056 480.629 115.218 479.803C115.218 479.803 101.968 481.859 84.5376 479.803C75.7548 478.774 73.5128 479.078 72.9228 479.28Z" fill="#0E141B"/>
<path d="M154.564 555.441C151.327 555.441 138.127 554.548 135.211 554.548C128.182 554.548 125.35 557.936 122.534 561.56L119.365 564.848C117.359 566.854 100.063 560.92 94.5172 558.947C94.5172 558.88 94.534 558.829 94.534 558.762C94.6015 557.902 96.4558 553.486 97.9392 549.912C101.479 541.433 103.738 537.454 103.435 535.347C101.833 524.17 100.198 520.31 98.681 520.31C95.1072 520.31 71.591 519.383 67.4946 518.928C64.1063 518.557 48.1928 535.667 44.1301 540.775C42.6635 542.613 38.0277 560.633 40.9272 561.594C41.0284 561.628 52.542 564.831 56.0652 562.724C58.7624 561.105 77.5417 555.02 81.8235 556.571C81.8235 556.571 118.792 571.051 121.843 568L124.338 564.881C127.018 561.426 128.418 556.756 134.065 556.756C136.796 556.756 154.412 558.762 158.12 558.324C157.261 557.38 155.423 556.318 154.564 555.441ZM91.3817 557.329C90.2017 557.885 82.9529 554.16 82.9529 554.16C77.1034 552.036 57.869 559.521 55.8124 560.751C54.3458 561.628 47.4679 560.482 43.7761 559.285C43.5064 558.88 43.3884 558.003 43.3884 556.807C43.3884 552.373 44.9393 543.961 46.1025 542.511C49.4065 538.381 65.9437 522.08 68.8938 522.215C73.007 522.67 93.3203 523.125 98.1584 523.159C98.5293 523.884 99.3216 526.311 100.485 534.403C100.485 534.454 100.485 534.487 100.485 534.538C100.485 538.516 93.59 554.463 91.3817 557.295V557.329Z" fill="#0E141B"/>
<path d="M68.8768 531.79C66.8539 532.346 57.0429 539.275 56.082 541.247C55.1043 543.236 54.9526 558.02 54.5648 561.864C54.4805 562.774 55.5931 562.825 56.2 561.746C57.3295 559.689 57.7003 546.675 58.2398 542.107C59.3524 540.961 66.3314 534.69 70.6974 533.51C73.2766 532.802 84.6386 533.257 95.0902 533.881C95.0902 533.881 99.4563 534.403 101.833 534.521C103.57 534.605 102.558 532.65 100.822 532.481C98.4449 532.262 95.2082 532.195 95.2082 532.195C85.7343 531.622 73.2935 530.61 68.9105 531.807L68.8768 531.79Z" fill="#0E141B"/>
<path d="M172.601 530.425C168.774 532.887 153.822 551.177 151.984 552.745C150.147 554.296 150.029 554.987 151.849 556.335C153.653 557.701 169.6 568.692 174.253 578.267C174.809 579.413 181.131 583.004 182.732 582.633C187.065 581.672 194.077 579.7 197.044 576.918C198.292 575.738 200.837 567.107 200.163 563.365C197.887 550.688 190.554 530.105 189.863 529.751C187.166 528.403 176.445 527.964 172.618 530.425H172.601ZM166.128 541.315L173.747 532.415C175.922 530.055 185.75 531.285 187.958 532.28C189.56 534.117 193.723 550.166 196.218 559.791L196.758 561.881C197.196 563.55 196.387 571.676 194.903 573.479C192.324 576.615 188.059 578.436 183.896 579.936C181.367 580.846 177.338 579.16 175.366 575.233C173.09 570.698 159.992 558.611 154.732 554.228C156.637 552.526 159.84 548.834 166.128 541.315Z" fill="#0E141B"/>
<path d="M178.451 536.527C180.136 539.831 191.97 561.527 190.875 564.477C190.875 564.477 189.29 571.607 187.638 572.332C184.384 573.731 182.311 575.147 180.035 576.614C177.776 578.081 178.653 578.924 180.524 577.996C182.412 577.069 185.143 575.232 188.295 573.883C190.875 572.771 192.459 565.067 192.459 565.067C194.128 560.633 182.463 538.921 179.883 535.634C177.321 532.346 176.765 533.223 178.451 536.527Z" fill="#0E141B"/>
<path d="M639.688 472.687L640.75 474.794C643.414 474.306 651.185 472.552 652.837 473.412C654.506 474.272 658.181 476.565 658.804 477.188L660.743 475.25C660.945 475.519 655.281 470.715 653.208 470.58C648.892 470.294 640.716 472.519 639.688 472.704V472.687Z" fill="#0E141B"/>
<path d="M562.531 457.381C561.688 459.066 566.695 490.674 568.431 491.82C569.274 492.377 572.848 494.147 576.017 495.58C581.277 497.957 582.103 496.338 576.995 493.557C574.247 492.073 571.634 490.708 570.825 489.966C569.005 488.314 564.925 459.083 565.077 458.561C565.431 457.853 568.482 456.369 570.943 454.97C573.657 453.436 575.191 451.396 570.269 453.234C568.28 453.975 562.902 456.656 562.548 457.381H562.531Z" fill="#0E141B"/>
<path d="M608.249 504.818C601.826 500.839 598.994 499.272 595.37 499.643C593.195 499.862 590.582 501.817 587.042 505.374C586.722 500.873 586.267 494.788 585.896 491.467C585.255 485.752 583.856 488.415 583.721 491.231C583.586 494.029 583.924 502.171 583.924 502.171C583.924 502.171 579.052 506.048 577.619 506.655C576.203 507.262 569.881 506.858 561.503 506.015C563.391 498.665 562.228 498.109 560.559 501.615C559.194 504.447 556.48 514.578 554.221 515.623C552.451 516.433 523.726 516.011 522.141 515.168C519.528 513.786 512.667 500.216 511.892 501.901C511.116 503.587 516.274 512.05 516.274 512.05C516.274 512.05 509.717 516.197 506.211 519.012C502.704 521.81 505.165 521.894 507.711 520.478C511.672 518.253 516.072 515.691 517.758 514.781C519.376 516.854 519.241 517.764 522.613 518.321C524.703 518.675 552.754 519.45 554.153 519.029C555.552 518.607 556.682 518.607 557.525 516.652C558.368 514.696 559.48 511.46 560.441 508.897C562.093 508.948 578.529 509.824 578.529 509.824C578.529 509.824 582.052 506.942 584.058 505.492C584.278 507.178 584.429 508.156 584.53 508.813C583.806 509.824 582.592 510.87 581.867 511.915C580.872 513.23 579.928 514.713 580.013 515.741C580.181 517.747 595.538 535.583 596.044 536.291C596.044 536.645 595.623 542.359 595.623 548.074C596.584 547.568 597.595 547.096 598.488 546.523C598.488 540.96 598.944 539.477 598.488 536.105C598.202 533.981 584.918 519.248 583.839 515.792C583.367 514.292 593.212 502.188 596.482 502.053C598.758 501.952 603.681 504.666 606.732 506.419C613.104 510.06 614.368 508.594 608.283 504.835L608.249 504.818Z" fill="#0E141B"/>
<path d="M686.029 525.992C686.417 525.15 687.445 524.61 688.12 523.835C684.765 522.435 681.832 521.154 679.354 519.098C679.135 520.227 679.084 520.75 679.084 521.862C681.393 523.413 683.383 524.88 686.029 525.992Z" fill="#0E141B"/>
<path d="M707.32 550.84C700.544 559.875 689.215 573.294 687.125 574.744C682.422 577.98 660.608 576.665 657.001 574.997C662.446 570.867 663.558 568.456 656.057 572.889C647.847 577.761 636.704 586.325 632.22 587.1C630.366 587.421 622.19 588.938 610.862 582.144C609.918 582.633 608.586 582.532 607.743 583.172C620.386 591.163 629.894 590.725 632.76 590.118C636.569 589.325 651.404 578.773 654.219 576.851C666.727 579.548 685.001 580.981 690.159 576.952C692.536 575.115 706.073 556.841 710.439 550.52C710.439 550.52 708.736 550.739 707.32 550.84Z" fill="#0E141B"/>
<path d="M605.316 542.613C608.856 533.56 617.133 525.047 627.719 519.265C627.416 518.321 628.09 517.546 628.141 516.467C613.205 523.648 606.462 531.335 601.86 543.085L605.316 542.613Z" fill="#0E141B"/>
<path d="M671.549 462.979C667.621 464.935 648.218 484.843 645.959 487.541C643.616 490.356 627.096 516.367 626.388 517.496L625.747 518.491L626.607 519.3C627.871 520.497 638.896 530.055 643.852 530.544C648.589 531.016 675.51 524.863 677.331 524.155C679.152 523.464 679.573 522.621 679.708 521.913C680.146 519.755 688.912 496.408 689.131 495.733C696.768 485.804 703.578 483.056 704.859 479.82C706.309 476.179 700.443 465.491 699.043 465.036C697.931 464.665 675.443 461.007 671.515 462.962L671.549 462.979ZM648.572 488.872C650.814 486.175 670.858 466.688 673.369 466.266C675.881 465.828 695.267 467.143 698.066 467.666C699.482 469.031 703.612 476.92 702.887 478.893C702.179 480.865 702.887 479.044 702.853 479.129C700.392 481.101 689.687 490.811 688.153 492.783C686.619 494.739 685.911 496.711 685.49 498.245C685.069 499.779 677.398 520.531 676.926 521.93C665.278 524.863 647.544 528.959 644.391 528.639C641.559 528.353 634.092 522.284 629.473 518.019C635.693 508.275 646.869 490.929 648.589 488.872H648.572Z" fill="#0E141B"/>
<path d="M715.901 509.607C713.996 510.079 688.626 521.542 685.726 522.739L684.782 525.132C684.377 529.566 684.715 533.409 685.709 534.893C686.653 536.309 696.683 552.593 699.532 553.352C702.364 554.11 724.717 547.57 727.364 547.57C730.011 547.57 746.7 553.234 747.896 553.234C750.307 553.234 758.179 547.367 759.326 545.682C760.641 543.709 759.815 529.549 758.803 527.509C757.691 525.267 746.211 515.659 741.946 514.63C737.681 513.585 718.362 508.983 715.901 509.607ZM716.828 513.265C718.902 513.046 740.176 517.462 742.451 518.035C744.07 518.524 755.617 526.751 756.629 528.403C756.983 529.229 757.151 533.005 757.151 536.714C757.151 540.237 756.983 543.693 756.662 544.569C755.752 545.749 749.329 549.829 747.88 549.913C746.784 549.913 738.642 547.856 734.276 546.761L728.375 545.328C726.049 544.856 707.287 549.087 700.341 550.672C696.565 545.766 688.238 534.943 687.547 533.898C687.412 533.561 687.344 532.6 687.344 531.285C687.344 529.549 687.125 526.38 687.648 525.065C688.154 523.75 715.513 513.619 716.828 513.265Z" fill="#0E141B"/>
<path d="M715.614 520.378C711.838 520.85 698.555 526.413 695.52 528.234C692.486 530.054 692.452 530.779 696.178 529.785C699.92 528.79 712.765 522.924 715.597 522.57C718.396 522.216 729.842 524.205 735.59 525.317C740.108 527.475 745.267 530.391 745.756 531.369C747.138 533.122 746.379 547.94 746.379 550.873C746.379 553.807 747.627 550.991 747.998 550.755C748.84 547.114 748.975 532.263 747.998 530.341C747.02 528.385 738.557 524.862 736.214 523.75L736.113 523.699H736.012C735.321 523.547 719.407 519.906 715.614 520.378Z" fill="#0E141B"/>
<path d="M674.01 477.711C672.122 478.655 656.36 492.377 655.011 494.602C654.017 496.255 648.37 510.213 645.049 519.08C641.93 527.373 643.683 528.351 647.324 519.838C651.033 511.173 656.141 497.873 657.034 496.271C658.299 494.029 673.42 480.56 674.701 479.92C676.151 479.195 697.02 480.425 702.735 480.577C703.224 479.852 703.713 480.088 703.949 479.127C697.02 478.15 676.235 476.616 674.027 477.728L674.01 477.711Z" fill="#0E141B"/>
<path d="M602.669 541.398C596.786 545.613 583.401 554.547 576.641 557.868C573.725 559.301 564.841 572.753 564.352 576.159C564.133 577.726 572.073 595.882 573.91 597.096C575.073 597.854 585.239 598.882 587.464 598.225C591.425 597.045 600.09 585.734 605.35 584.419C617.049 581.502 621.668 579.8 622.645 577.642C623.859 574.979 617.133 548.698 615.885 547.046C614.638 545.377 606.428 542.696 602.669 541.415V541.398ZM568.583 578.839C568.027 577.153 567.875 576.041 568.583 574.355C569.595 571.927 575.798 562.133 578.26 560.751C583.519 557.801 602.467 543.978 603.748 544.163C605.029 544.348 613.003 547.703 613.879 548.479C614.672 550.299 620.285 575.788 620.504 577.035C620.724 578.283 609.682 581.418 604.085 582.817C601.489 583.458 597.494 586.88 592.386 590.976C590.684 592.342 588.627 594.398 587.969 594.786C585.997 595.966 577.754 595.663 576.085 594.786C574.214 593.791 570.067 583.289 568.583 578.822V578.839Z" fill="#0E141B"/>
<path d="M586.385 562.707C582.659 564.848 577.72 576.665 577.72 576.665C576.725 578.3 582.103 590.556 586.267 596.54C586.267 596.54 589.537 597.535 588.054 595.731C586.57 593.927 579.271 579.363 579.844 577.407C580.4 575.452 585.542 565.59 588.492 563.736C591.442 561.881 612.075 549.71 614.166 548.362C616.256 547.013 614.098 545.445 609.951 548.142C603.225 552.492 590.144 560.583 586.402 562.724L586.385 562.707Z" fill="#0E141B"/>
<path d="M634.479 466.417C633.923 462.523 634.142 452.139 633.215 450.15C631.984 447.47 600.444 431.758 596.752 432.635C593.06 433.512 584.227 444.469 581.192 448.178C580.046 448.211 564.672 448.481 562.582 448.532C561.688 443.255 560.576 440.136 559.278 439.462C551.962 435.686 521.551 436.428 519.022 437.54C516.493 438.653 514.555 445.025 510.947 453.488C506.092 454.735 492.421 457.719 490.179 459.455C487.937 461.191 481.75 478.622 480.199 482.921C478.817 486.781 478.868 490.793 481.7 484.826C484.751 478.352 490.027 464.664 493.331 462.203C494.933 460.787 500.951 459.152 509.396 457.281C506.969 466.367 508.267 467.53 510.796 460.652C513.847 452.358 518.87 441.451 520.438 440.676C522.68 439.546 551.439 438.838 557.811 441.974C558.401 442.699 559.716 446.627 560.188 450.2C561.216 458.123 562.835 451.397 562.835 451.397C562.835 451.397 573.438 451.262 579.473 451.262C575.545 457.146 575.781 460.011 582.507 451.6C589.234 443.188 595.707 436.546 598.185 436.344C600.663 436.141 627.989 448.784 629.944 451.6C630.433 453.842 631.04 460.113 631.377 463.889C627.787 461.377 623.825 459.455 620.808 458.14C616.323 456.185 615.632 457.348 617.841 458.595C630.13 465.524 639.03 471.744 648.167 486.865C648.791 486.208 649.482 485.955 650.359 485.433C643.869 474.745 636.114 467.951 634.428 466.434L634.479 466.417Z" fill="#0E141B"/>
<path d="M308.034 546.726C327.622 561.24 355.757 565.606 399.705 547.4L396.738 546.49C352.335 563.415 320.913 554.379 310.124 545.613L308.034 546.726Z" fill="#0E141B"/>
<path d="M330.573 564.595C336.86 567.899 356.213 568.877 365.417 565.573C370.103 563.887 370.322 563.044 364.962 563.954C350.886 566.348 336.017 564.679 331.331 563.078C328.145 561.999 328.229 563.347 330.573 564.578V564.595Z" fill="#0E141B"/>
<path d="M305 545.85C301.544 547.417 300.802 548.682 296.183 540.725C293.722 536.511 292.828 538.23 294.295 541.264C298.981 551.059 301.594 550.485 305.994 548.496C318.132 542.967 332.595 540.455 348.998 540.506C374.739 540.607 391.63 545.748 401.07 548.446C410.241 551.075 410.039 552.677 417.068 542.63C419.765 538.769 418.754 537.488 415.264 541.585C408.353 549.744 409.988 547.788 402.183 545.563C392.625 542.832 373.576 537.387 347.514 537.286C331.398 537.219 315.198 541.214 305 545.85Z" fill="#0E141B"/>
<path d="M430.537 462.355C433.504 455.14 445.288 428.994 445.338 427.881C445.524 424.324 422.328 411.395 419.951 411.951C418.585 412.271 412.062 420.65 400.312 435.299C401.779 425.268 405.352 400.505 404.712 399.477C402.807 396.476 379.257 389.547 377.723 390.559C375.885 391.79 360.916 417.362 357.207 424.206C342.777 423.616 330.252 427.342 320.593 430.646C313.732 417.935 305.404 402.157 303.095 401.432C300.212 400.522 281.113 413.384 280.32 416.216C279.832 417.986 284.316 433.984 286.322 441.418C282.293 437.861 271.268 428.252 269.869 428.117C267.492 427.881 251.882 448.009 252.253 449.83C252.725 452.156 260.142 459.388 270.981 467.85C264.272 466.94 255.877 465.979 254.731 466.35C252.758 466.991 251.09 487.034 252.691 488.99C254.866 491.653 273.645 499.61 277.825 503.268C278.483 503.993 279.174 506.522 279.781 509.118C280.304 511.343 281.568 512.085 281.214 508.966C280.792 505.325 280.624 502.509 279.781 501.852C278.196 500.621 256.416 488.079 255.877 487.388C254.697 485.854 255.354 468.896 256.686 468.592C257.782 468.339 267.104 469.334 274.842 470.615C274.842 470.615 276.629 471.593 278.129 472.537C279.629 473.481 282.782 474.577 277.573 470.345C272.381 466.114 255.725 452.156 255.557 450.42C255.388 448.684 268.419 431.624 269.565 431.742C270.459 431.826 282.377 441.991 287.788 445.7C290.839 453.774 290.873 449.274 288.901 441.401C286.709 432.635 283.119 418.475 283.456 416.907C283.911 414.817 301.224 403.505 302.488 404.618C303.752 405.731 317.474 430.882 317.946 431.759C315.822 432.888 313.968 433.849 312.805 434.557C311.642 435.265 308.102 438.586 314.609 435.788C324.942 431.32 339.254 427.275 357.073 427.696C355.252 431.067 355.808 432.804 359.18 427.157C362.551 421.526 377.706 394.925 379.358 394.47C381.01 394.015 401.644 399.241 401.779 400.775C401.913 402.309 397.918 436.445 397.699 437.726C392.625 444.166 393.94 446.323 399.503 439.766C406.06 432.045 419.176 416.132 420.406 415.795C422.176 415.306 441.512 426.145 442.017 428.404C442.287 429.567 431.498 453.353 427.099 463.383C426.576 464.58 430.116 463.417 430.571 462.321L430.537 462.355Z" fill="#0E141B"/>
<path d="M455.014 455.156C452.857 454.111 435.173 459.64 430.925 461.191C423.929 463.77 422.412 466.467 429.981 464.074C435.443 462.337 453.109 457.803 454.239 458.78C455.739 460.061 459.515 473.16 459.212 474.407C458.352 477.964 427.402 498.109 423.036 501.109C418.923 503.941 417.776 506.521 424.216 502.795C430.655 499.07 461.623 479.616 462.331 476.666C463.039 473.716 457.206 456.218 455.014 455.139V455.156Z" fill="#0E141B"/>
<path d="M426.576 506.841C426.323 510.044 427.301 509.707 428.245 507.026C429.104 504.565 429.88 498.227 429.88 498.227L427.554 498.378C427.554 498.378 426.862 503.132 426.576 506.841Z" fill="#0E141B"/>
<path d="M357.578 488.365C356.213 490.793 357.022 491.316 358.927 489.377C360.832 487.438 367.153 480.122 370.44 476.481C373.728 472.857 373.255 472.267 369.109 475.79C364.945 479.33 358.943 485.921 357.578 488.365Z" fill="#0E141B"/>
<path d="M309.197 446.07C307.714 447.065 304.764 448.616 303.078 449.728C301.392 450.858 301.813 451.835 301.948 453.235C302.083 454.634 304.494 460.5 305.404 461.849C306.298 463.181 307.174 464.007 306.601 460.652C306.028 457.297 303.921 453.369 304.342 452.105C304.764 450.841 309.956 447.891 310.799 448.734C311.641 449.577 314.507 453.403 316.007 454.297C317.525 455.19 317.946 454.769 316.817 453.083C315.704 451.397 314.153 449.02 312.889 447.469C311.625 445.935 310.681 445.042 309.197 446.053V446.07Z" fill="#0E141B"/>
<path d="M332.865 520.513C332.342 519.772 329.51 518.355 329.51 518.355C325.111 519.603 310.647 520.935 305.168 520.901C301.578 520.884 301.274 521.946 304.747 522.165C310.124 522.502 326.661 521.66 332.882 520.513H332.865Z" fill="#0E141B"/>
<path d="M299.302 514.865C298.51 511.19 298.105 506.352 298.156 504.582C298.156 504.582 296.419 503.975 295.34 504.481C295.34 505.745 296.621 512.134 298.021 515.488C299.588 519.619 300.195 518.927 299.319 514.865H299.302Z" fill="#0E141B"/>
<path d="M394.041 518C386.354 518.759 369.564 518.337 362.163 517.275L358.977 519.534C371.233 520.748 386.034 520.327 394.176 519.349C399.907 518.658 401.745 517.242 394.058 518H394.041Z" fill="#0E141B"/>
<path d="M402.992 510.415C404.256 504.312 404.964 498.277 404.577 495.074L401.677 496.153C401.829 497.535 402.217 505.037 401.458 510.212C400.7 515.387 401.711 516.517 402.992 510.415Z" fill="#0E141B"/>
<path d="M439.876 390.913C438.764 392.127 440.365 401.786 441.293 404.601C442.388 407.889 447.462 408.883 450.193 409.203C452.924 409.507 452.081 407.956 450.463 407.535C448.845 407.13 444.074 405.427 443.265 403.017C442.523 400.758 441.984 392.835 442.557 392.278C443.113 391.722 453.969 388.081 455.756 388.384C458.892 388.907 470.507 393.341 471.282 394.757C471.282 394.773 471.333 394.942 471.333 394.942C473.035 401.719 472.985 403.792 472.985 405.748C472.985 407.703 472.698 408.698 471.434 409.962C470.169 411.226 472.041 411.698 473.912 410.973C475.783 410.249 476.204 407.433 475.783 405.191C475.362 402.949 474.94 397.723 472.917 394.301C470.877 390.879 457.745 387.019 456.043 386.732C453.126 386.244 440.989 389.716 439.893 390.93L439.876 390.913Z" fill="#0E141B"/>
<path d="M342.996 394.721C344.581 395.48 346.823 397.149 347.615 397.655C347.194 400.183 346.284 403.673 345.255 404.448C345.07 404.583 343.974 404.785 341.108 404.111C337.046 403.133 334.686 401.195 334.349 400.537C334.163 399.779 335.225 397.857 336.607 396.036C337.99 394.233 337.602 393.086 335.478 394.772C333.354 396.458 330.977 398.986 331.517 401.161C331.854 402.543 334.45 404.448 336.86 405.291C338.057 405.712 344.851 407.921 346.671 406.555C348.694 405.038 349.756 399.694 349.891 398.278C350.026 396.879 349.756 396.036 348.357 395.059C346.958 394.081 344.767 393.508 343.89 393.305C343.03 393.103 341.395 393.963 342.98 394.721H342.996Z" fill="#0E141B"/>
<path d="M467.084 505.949C468.382 506.438 470.591 507.635 471.012 508.477C471.434 509.32 466.663 518.423 465.82 519.266C464.977 520.109 461.471 519.266 461.049 518.002C460.628 516.738 460.493 509.725 460.914 507.348C461.336 504.971 461.049 504.819 459.65 507.061C458.251 509.303 458.386 518.137 458.386 519.114C458.386 520.092 458.942 520.935 460.914 521.491C462.887 522.048 465.129 522.469 465.955 522.334C466.798 522.199 467.067 522.469 468.062 520.649C469.04 518.828 473.102 511.815 473.524 509.573C473.945 507.331 473.659 506.91 472.125 506.202C470.591 505.494 469.057 504.87 467.371 504.769C465.685 504.668 465.769 505.443 467.084 505.932V505.949Z" fill="#0E141B"/>
<path d="M550.681 524.811C552.602 532.852 554.575 549.524 544.123 561.426C542.252 563.566 543.078 564.797 545.387 562.555C554.996 553.182 555.283 540.421 555.283 540.421C555.569 532.987 553.597 526.547 552.35 524.491C551.17 522.552 549.754 520.866 550.698 524.811H550.681Z" fill="#0E141B"/>
<path d="M246.74 548.53C244.819 550.789 239.559 594.703 241.481 597.197C243.402 599.692 258.187 612.909 261.659 612.335C264.626 611.847 269.7 607.7 269.919 607.531L268.857 606.233C267.492 607.346 263.379 608.964 261.288 609.318C258.996 609.52 245.341 596.641 244.195 594.939C243.605 592.123 248.662 552.593 250.162 550.485C251.612 548.665 262.199 540.843 265.823 538.584C269.447 536.325 267.087 535.971 263.345 537.724C259.603 539.494 248.662 546.288 246.74 548.547V548.53Z" fill="#0E141B"/>
<path d="M269.565 550.687C264.929 552.609 266.48 552.643 270.122 552.053C273.763 551.463 283.641 549.524 284.838 549.726C285.9 550.232 289.963 554.682 293.014 559.133C293.031 559.807 293.233 574.456 293.233 574.456L304.174 587.993L305.101 586.762C305.101 586.762 307.764 583.222 309.855 581.975C311.776 580.811 327.066 579.345 330.707 580.255C334.231 581.132 348.897 588.043 351.897 591.044C353.044 592.19 353.414 594.651 353.414 597.264C353.414 600.332 352.909 603.586 352.521 605.12C351.88 606.098 346.334 607.8 342.373 608.458C339.305 608.963 334.399 613.801 333.86 614.341L332.966 615.234L338.934 620.662C340.282 622.011 343.654 622.618 348.273 623.326C350.127 623.613 351.88 623.882 352.791 624.186C353.178 624.506 353.364 625.787 353.364 627.625C353.364 629.816 353.583 633.289 352.454 635.109C351.324 636.913 341.142 644.044 341.142 644.044L348.846 640.251C350.313 641.229 352.706 643.403 352.706 644.769C352.706 644.92 352.673 645.072 352.605 645.19C351.341 647.702 343.283 654.9 339.726 656.687C337.332 657.884 324.841 656.974 318.149 656.485L311.574 656.097C308.27 656.097 295.661 642.088 294.497 640.15C292.576 636.964 291.581 629.209 290.907 624.793C290.233 620.376 289.204 620.713 288.867 622.989C288.53 625.248 288.867 628.417 288.867 628.417C286.17 625.72 263.48 599.287 262.384 597.399C261.878 595.865 264.07 586.61 265.772 582.615C267.475 578.62 266.379 578.536 264.626 581.115C262.873 583.711 259.35 593.05 259.35 597.416C259.35 598.141 259.434 598.697 259.602 599.068C260.698 601.243 286.102 628.771 289.541 632.496C289.879 636.424 291.8 640.639 293.503 642.628L295.222 644.651C302.42 653.366 308.321 658.491 311.574 658.491L317.98 658.878C328.836 659.671 338.529 660.952 341.277 659.586C344.986 657.732 354.004 649.641 355.572 646.505C355.825 646.016 355.926 645.527 355.926 645.022C355.926 642.847 353.044 640.537 351.577 639.324C352.808 638.498 353.162 638.616 354.173 637.705C355.184 636.795 355.302 636.795 355.538 635.109C355.758 633.407 355.994 629.361 355.994 626.478C355.994 623.596 355.758 621.994 354.089 621.438C352.993 621.067 351.206 620.797 349.149 620.477C346.317 620.039 341.564 619.87 340.67 618.96C340.67 618.96 337.99 616.516 336.506 615.167C338.462 613.346 341.311 611.054 342.811 610.801C343.266 610.717 354.089 608.896 354.881 605.744C354.898 605.676 356.331 601.529 356.331 597.264C356.331 594.179 356.314 591.044 354.594 589.324C351.223 585.953 335.006 577.474 331.112 576.496C327.15 575.501 311.304 578.182 308.708 579.733C307.039 580.727 305.269 581.873 304.207 583.138C302.926 580.913 296.352 574.372 295.661 573.529C295.644 572.77 296.048 561.83 296.268 560.127C296.487 558.425 296.268 558.206 295.02 556.503C293.773 554.8 287.502 546.894 285.512 546.388C283.557 545.9 274.285 548.698 269.65 550.62L269.565 550.687Z" fill="#0E141B"/>
<path d="M288.345 573.327C285.748 573.664 284.383 575.029 287.333 575.13C290.283 575.248 294.582 575.35 294.582 575.35L294.127 572.518C294.127 572.518 290.957 572.973 288.361 573.31L288.345 573.327Z" fill="#0E141B"/>
<path d="M295.492 599.558C294.127 602.98 294.666 603.991 296.992 600.317C299.319 596.642 307.781 583.307 309.062 581.588L304.191 584.538C302.724 586.493 296.841 596.153 295.475 599.575L295.492 599.558Z" fill="#0E141B"/>
<path d="M334.652 602.018C333.219 602.979 330.235 606.485 328.769 608.424C327.302 610.362 326.965 610.919 328.887 612.385C330.808 613.852 333.64 616.566 338.175 619.971C342.71 623.359 339.423 618.167 336.253 615.335C333.084 612.503 330.252 610.919 330.707 609.57C331.162 608.205 334.753 604.007 335.613 603.451C336.641 602.76 344.682 601.984 347.464 601.647C350.245 601.327 350.498 600.518 347.177 600.518C343.839 600.518 336.54 600.804 334.686 602.052L334.652 602.018Z" fill="#0E141B"/>
<path d="M319.851 639.51C322.093 641.23 325.026 643.944 327.184 644.18C329.342 644.399 341.564 646.101 343.249 645.764C344.952 645.427 350.043 641.466 353.785 637.959C357.511 634.453 348.947 638.617 348.947 638.617C348.947 638.617 342.491 643.016 342.019 643.387C341.378 643.32 328.347 642.056 326.729 641.466C325.128 640.876 321.891 639.105 319.716 637.504C317.542 635.903 317.626 637.791 319.868 639.51H319.851Z" fill="#0E141B"/>
<path d="M310.647 613.954C309.518 613.954 304.106 614.594 303.129 615.285C302.151 615.977 301.578 617.157 303.23 616.971C304.865 616.786 310.108 615.993 310.714 616.55C311.321 617.106 311.136 622.989 311.119 623.731C311.119 624.473 308.017 628.266 307.528 628.519C307.023 628.771 305.623 627.76 303.499 626.9C301.375 626.04 301.544 627.49 302.876 628.468C304.207 629.446 307.36 630.761 308.102 630.558C308.843 630.356 313.361 625.484 313.479 624.119C313.597 622.753 313.479 616.87 313.142 615.623C312.805 614.375 311.776 613.92 310.647 613.92V613.954Z" fill="#0E141B"/>
<path d="M527.215 610.38L527.165 613.448C532.728 610.026 540.785 579.261 541.847 572.4C542.909 565.539 541.308 566.652 540.212 571.979C539.133 577.306 529.744 608.492 527.215 610.397V610.38Z" fill="#0E141B"/>
<path d="M516.595 535.719C514.471 536.511 511.268 540.692 510.341 542.462C509.413 544.232 509.666 545.378 511.571 543.608C513.476 541.838 515.667 538.652 517.825 538.197C519.983 537.741 527.636 537.505 529.035 538.062C530.435 538.618 530.401 539.09 530.974 540.607C531.547 542.124 532.896 548.008 532.896 551.211C532.896 552.273 532.761 553.149 532.424 553.739C530.569 556.976 529.44 560.432 527.754 563.061C526.085 565.691 527.872 565.489 529.288 563.769C530.704 562.05 532.963 556.807 534.767 553.638C536.318 550.924 534.632 544.383 533.503 540.742C532.373 537.101 532.238 537.236 530.131 536.393C528.024 535.55 518.685 534.96 516.561 535.752L516.595 535.719Z" fill="#0E141B"/>
<path d="M519.511 544.906C518.803 546.862 520.978 561.326 523.608 561.73C526.237 562.152 533.402 554.111 534.211 553.335C534.211 553.335 533.84 550.351 533.048 552.105C532.256 553.858 525.951 559.471 524.686 558.915C523.422 558.359 521.298 546.912 521.939 545.058C522.579 543.204 526.524 540.473 530.401 537.675L528.597 537.051C526.591 538.501 520.186 542.934 519.494 544.906H519.511Z" fill="#0E141B"/>
<path d="M527.215 580.238C527.215 580.238 522.006 577.828 519.933 577.154C517.859 576.479 519.09 577.71 521.618 579.53C524.147 581.351 532.104 586.088 531.699 587.993C531.294 589.898 526.473 613.903 524.467 615.42C522.461 616.954 504.879 616.162 501.895 616.347C498.911 616.533 497.647 618.353 508.436 618.64C507.728 622.146 504.761 627.642 503.8 629.378C502.822 631.114 485.459 637.352 483.79 637.773C482.121 638.194 478.21 636.863 473.136 637.908C468.062 638.953 458.757 641.499 455.217 642.611C451.677 643.724 451.929 645.173 447.428 647.972C442.574 650.989 437.567 654.816 435.089 655.625C432.611 656.451 402.217 661.694 400.986 661.357C399.739 661.02 388.292 647.719 388.292 647.719L387.888 647.635C384.617 646.944 379.004 645.527 377.756 644.634C377.015 643.741 376.829 642.78 376.829 638.666C376.829 635.952 376.543 632.362 376.964 630.541C377.386 628.721 378.464 628.839 379.493 628.99C380.74 629.176 382.156 629.378 383.64 629.176C387.079 628.687 391.917 623.798 394.749 621.758C397.581 619.719 397.008 618.707 397.126 616.785C397.244 614.864 397.244 611.661 397.244 611.661C397.244 611.661 375.734 610.38 375.717 609.318C375.7 608.256 374.672 602.035 374.672 600.113C374.672 599.608 374.705 599.237 374.773 599.035C375.835 597.602 387.534 587.791 393.08 586.088C398.778 584.335 415.264 582.902 419.108 582.902C420.996 582.902 425.075 587.942 428.683 593.252C428.683 593.252 424.182 595.966 430.976 594.432C436.252 593.252 439.556 592.157 445.085 590.302C448.794 589.072 455.992 578.603 456.919 577.491L453.699 577.322C450.362 581.3 445.675 587.723 443.366 588.499C439 589.965 433.066 591.398 431.178 591.904C426.795 585.633 422.715 580.289 419.984 580.289C416.225 580.289 398.508 580.946 392.372 582.834C386.034 584.79 373.862 596.051 372.75 597.736C372.43 598.209 372.312 599.169 372.312 600.417C372.312 603.114 372.682 607.48 373.138 609.621C373.593 611.779 375.447 612.773 378.498 612.993C381.549 613.212 392.642 613.532 394.698 613.751C394.597 615.167 394.85 617.308 394.344 618.606C393.839 619.904 385.325 626.479 383.303 626.782C382.156 626.951 380.926 626.765 379.847 626.597C378.009 626.327 375.936 626.023 375.009 627.878C374.57 628.754 374.25 632.075 374.25 635.7C374.25 640.285 373.492 645.629 375.009 646.758C376.846 648.14 385.393 649.405 387.483 649.843C388.461 652.372 395.676 660.547 397.143 662.351C398.609 664.155 398.946 665.183 402.116 664.947C405.285 664.728 431.633 660.025 435.982 658.626C440.331 657.227 442.978 653.619 448.17 650.382C451.66 648.208 455.217 645.123 456.11 644.769C457.948 644.044 469.781 640.74 474.013 639.712C473.827 639.745 479.289 640.285 481.683 640.285C484.077 640.285 483.925 640.15 486.875 639.307C489.825 638.464 504.963 633.424 506.362 631.603C507.761 629.783 510.577 620.191 511.133 618.842C520.961 619.095 525.984 618.876 526.777 616.887C527.738 614.459 534.902 589.274 534.059 587.032C533.216 584.79 530.468 582.244 529.339 581.3C529.963 579.884 531.783 576.547 533.57 570.495C535.357 564.443 532.643 567.511 531.412 570.545C530.199 573.58 527.249 580.171 527.249 580.171L527.215 580.238Z" fill="#0E141B"/>
<path d="M474.923 542.764C472.698 542.798 449.822 557.278 448.895 560.903C447.26 567.258 449.367 578.485 450.968 578.687C453.767 579.058 481.278 576.665 484.329 573.917C485.627 572.737 484.616 570.36 484.195 567.882C483.756 565.404 482.307 565.657 482.475 568.303C482.543 569.5 482.627 571.658 481.868 572.298C480.25 573.647 453.497 577.474 452.401 576.378C451.71 575.67 450.834 563.533 451.744 561.291C453.329 557.396 472.951 545.411 475.024 545.529C476.356 545.596 476.693 548.175 477.047 548.968C477.401 549.743 478.362 548.597 478.058 546.54C477.755 544.484 477.165 542.73 474.94 542.764H474.923Z" fill="#0E141B"/>
<path d="M376.644 606.605C380.723 607.397 387.955 607.532 393.501 608.426C394.53 608.594 395.271 608.24 394.968 613.5C394.749 617.259 396.569 621.254 397.126 617.512C397.682 613.769 397.8 608.628 397.126 607.616C396.451 606.605 394.968 606.369 391.917 606.032C388.866 605.695 378.228 604.902 376.189 604.902C374.149 604.902 372.564 605.813 376.644 606.605Z" fill="#0E141B"/>
<path d="M391.816 646.96C389.776 647.634 386.489 647.466 382.409 646.336C378.33 645.207 373.913 646.336 381.499 648.494C389.085 650.652 389.186 650.786 392.254 649.741C395.322 648.696 408.555 642.324 412.011 640.369C415.467 638.413 415.231 637.486 411.387 638.801C407.544 640.116 393.855 646.286 391.816 646.977V646.96Z" fill="#0E141B"/>
<path d="M462.33 615.386C463.864 615.976 464.808 616.229 466.14 617.055C466.14 617.055 466.14 617.072 466.14 617.089C466.14 618.909 461.336 625.804 460.78 626.512C460.223 627.22 455.739 626.512 455.166 625.399C454.61 624.27 454.256 619.718 453.244 616.752C452.233 613.768 451.39 615.403 451.592 617.105C451.795 618.808 452.368 623.714 452.637 625.399C452.907 627.085 452.84 627.877 454.559 628.4C456.279 628.906 460.088 629.142 461.606 628.636C463.392 628.029 466.933 621.91 467.91 619.246C468.888 616.583 469.04 616.296 466.933 615.184C464.825 614.054 464.404 614.24 462.162 613.633C459.937 613.026 460.78 614.83 462.314 615.42L462.33 615.386Z" fill="#0E141B"/>
<path d="M365.704 606.335C366.917 607.97 369.581 610.06 369.378 610.819C369.176 611.577 363.091 616.769 362.383 617.022C361.691 617.258 359.702 615.589 358.775 613.735C358.253 612.69 359.18 611.864 360.09 609.504C361.017 607.161 359.938 606.958 358.725 608.526C357.511 610.094 356.145 612.252 357.258 614.477C358.135 616.213 361.017 619.854 363.158 619.146C364.625 618.657 370.171 614.173 370.862 613.027C371.536 611.898 372.211 610.313 371.435 609.285C370.643 608.273 368.35 606.149 367.002 605.222C365.653 604.295 364.49 604.649 365.704 606.284V606.335Z" fill="#0E141B"/>
<path d="M313.884 510.938C313.496 515.118 314.136 517.579 315.451 517.579C316.547 517.579 317.188 515.59 317.188 512.64C316.564 512.016 315.401 511.308 313.884 510.938Z" fill="#0E141B"/>
<path d="M374.25 511.242C374.115 513.922 374.57 516.417 375.986 516.417C377.301 516.417 378.178 513.72 377.79 509.539C376.273 509.91 374.891 510.618 374.25 511.242Z" fill="#0E141B"/>
<path d="M295.644 502.374C290.789 501.043 290.62 503.588 295.054 504.701C307.68 507.87 328.583 519.03 331.82 520.53C334.854 521.929 334.905 520.092 332.376 518.558C324.74 513.922 305.303 505.038 295.661 502.374H295.644Z" fill="#0E141B"/>
<path d="M403.785 493.946C393.4 498.717 361.793 515.709 357.511 518.44C353.161 521.222 353.971 522.638 358.438 520.345C366.782 516.063 394.142 501.279 404.071 496.475C412.045 492.615 411.522 490.372 403.785 493.929V493.946Z" fill="#0E141B"/>
<path d="M332.343 508.072C332.191 509.994 332.579 512.826 332.882 514.563C333.539 518.372 334.349 518.339 334.399 514.461C334.433 512.59 334.399 510.18 334.45 508.19C334.568 503.217 332.663 503.757 332.343 508.089V508.072Z" fill="#0E141B"/>
<path d="M352.656 516.08C353.212 518.035 354.224 518.406 353.971 516.45C353.381 511.832 353.229 508.173 353.296 504.414C353.364 501.211 351.678 501.11 351.189 504.869C350.549 509.741 351.509 512.118 352.639 516.08H352.656Z" fill="#0E141B"/>
</g>
<defs>
<clipPath id="clip0_42_65100">
<rect width="720" height="373.157" fill="white" transform="translate(40 353)"/>
</clipPath>
</defs>
</svg>
