<svg width="800" height="800" viewBox="0 0 800 800" fill="none" xmlns="http://www.w3.org/2000/svg">
<g clip-path="url(#clip0_42_65235)">
<path d="M246.557 579.365C252.574 586.109 261.815 589.923 269.99 590.673C279.345 591.535 287.133 593.443 292.151 595.009C301.892 598.029 318.581 598.052 328.368 594.374C337.519 597.348 347.6 599.006 356.728 599.006C383.953 599.006 425.461 592.194 442.037 580.977C453.958 578.729 468.036 572.734 476.868 564.174C485.134 565.9 494.193 564.015 500.438 558.293C521.895 538.652 556.341 500.619 557.09 490.401C557.09 490.196 557.113 489.947 557.136 489.697C566.105 489.947 572.372 486.927 577.526 479.411C587.926 464.265 598.348 435.315 600.233 418.103C601.164 409.656 599.892 404.434 597.394 401.664C606.863 398.462 620.351 380.388 617.353 346.396C615.083 302.686 593.375 230.457 574.779 218.672C572.803 217.423 570.465 216.492 567.876 215.857C570.056 202.369 567.127 190.607 557.862 178.731C549.733 168.332 541.673 157.297 533.839 145.421C526.845 134.817 519.352 128.754 503.935 123.668C481.046 116.107 456.069 111.929 443.944 113.45C442.786 113.587 441.583 113.836 440.356 114.086C422.464 94.2179 404.094 87.4968 374.167 87.8601C364.017 87.9736 351.392 91.0617 342.628 99.3723C333.613 88.405 323.304 84.1135 307.001 87.247C279.685 92.5149 243.991 104.845 233.092 113.814C228.142 117.878 222.624 124.94 219.127 132.024C212.292 130.753 203.391 131.184 193.877 132.728C164.677 137.474 106.208 190.948 96.7164 222.26C95.4675 226.37 95.4675 234.726 95.9671 243.15C88.6102 246.737 82.4113 252.414 77.9381 261.111C73.2606 270.193 64.3142 302.822 62.9064 318.876C61.6349 333.272 62.9972 345.125 68.0154 351.006C65.0635 362.518 66.0853 382.272 67.3115 389.266C68.6739 397.077 76.7574 405.683 88.6783 413.721C84.6819 413.857 83.1606 416.128 81.9799 420.033C78.3922 431.773 78.415 443.943 80.0044 453.798C81.9799 466.196 95.1723 490.446 105.64 504.411C111.748 512.562 116.653 516.263 123.941 518.103L246.602 579.41L246.557 579.365Z" fill="#73797D"/>
<path d="M533.816 348.258C526.255 337.472 521.146 329.525 515.47 319.875C509.793 310.224 500.869 304.071 486.133 302.845C456.614 300.393 424.825 299.439 406.478 303.231C391.787 306.251 381.592 313.721 377.369 319.988C361.747 332.272 344.24 350.756 337.496 362.835C331.751 373.121 330.207 405.478 334.09 413.925C344.558 436.768 388.586 475.8 414.131 491.127C429.616 500.414 443.081 504.183 457.273 506.454C485.179 510.904 512.132 500.664 512.881 468.829C516.037 468.171 518.558 467.285 520.011 466.15C525.392 461.949 529.162 453.548 531.591 442.649C532.954 440.174 533.953 437.154 534.588 433.43C536.291 423.212 539.016 409.225 541.4 396.918C544.806 379.32 542.399 360.497 533.839 348.28L533.816 348.258Z" fill="#CFA996"/>
<path d="M429.185 386.292C422.554 383.272 416.878 380.615 407.432 374.757C403.05 372.032 399.144 369.103 395.625 366.061C398.826 373.826 400.416 382.773 400.37 390.084C400.325 398.349 400.983 406.728 404.003 409.952C407.977 414.198 444.761 427.958 463.176 429.548C450.415 404.707 440.061 391.265 429.185 386.292Z" fill="white"/>
<path d="M478.14 469.988C464.993 468.694 457.204 465.265 447.713 459.338C434.611 451.141 405.138 439.198 390.129 433.998C405.184 471.85 437.472 497.803 472.327 498.507C492.763 498.916 505.456 489.856 501.005 470.283C493.103 470.76 484.475 470.578 478.14 469.965V469.988Z" fill="#EE869A"/>
<path d="M472.509 492.444C450.711 491.74 428.776 481.409 410.906 467.967C427.459 486.586 449.326 498.053 472.327 498.507C492.763 498.916 505.456 489.856 501.006 470.283C497.827 470.487 494.534 470.555 491.31 470.555C495.919 481.205 493.013 493.103 472.509 492.444Z" fill="#933000"/>
<path d="M432.704 388.244C431.523 387.494 430.365 386.836 429.185 386.314C422.554 383.294 416.878 380.637 407.432 374.779C403.05 372.054 399.144 369.125 395.625 366.082C398.826 373.848 400.416 382.794 400.37 390.105C400.325 398.371 400.983 406.749 404.003 409.974C405.638 411.722 412.791 415.06 421.919 418.511C429.253 415.559 432.772 401.595 432.682 388.266L432.704 388.244Z" fill="#D93932"/>
<path d="M737.834 287.609C733.974 289.562 724.732 290.288 717.398 288.744C715.423 286.973 714.128 283.726 713.583 280.57C716.308 277.55 719.941 275.87 722.779 276.551C728.138 277.822 732.135 276.46 733.383 272.555L740.127 244.716C735.041 237.7 726.367 236.201 720.781 239.517C716.944 241.787 712.266 243.127 702.616 243.627C689.81 244.285 673.279 246.26 659.769 250.961C654.933 249.258 649.824 249.689 646.259 252.573C641.717 256.251 633.634 260.52 626.822 261.792C623.28 262.45 620.532 264.675 618.557 267.832C612.04 266.787 607.272 267.65 602.117 270.397C610.178 295.42 616.195 324.484 617.331 346.373C618.693 361.723 616.672 373.78 613.198 382.726C621.94 382.636 631.568 380.66 639.379 376.073C648.643 370.647 652.753 354.275 659.269 342.263C665.991 347.736 670.827 348.394 680.341 347.486C704.183 345.215 723.324 337.858 727.593 329.321C729.569 325.347 733.134 322.645 738.81 323.508C744.078 324.303 749.096 322.645 750.481 317.082L752.434 292.241C750.913 286.178 744.737 284.089 737.834 287.609Z" fill="#CFA996"/>
<path d="M263.791 275.619L258.954 253.162C256.683 249.075 252.006 248.621 247.101 250.71C243.218 252.345 236.883 252.345 231.843 250.052C232.456 245.442 233.387 241.741 234.454 239.788C236.52 235.996 237.133 232.727 236.27 229.275L221.715 198.508C215.698 192.831 204.39 196.555 195.33 211.019C186.452 211.996 179.958 219.375 178.55 230.706C177.778 237.041 174.668 245.715 169.491 254.888C163.678 265.174 161.589 273.848 162.27 284.861C153.778 287.358 139.7 296.237 135.363 301.141C127.484 310.042 108.206 350.846 114.427 366.945C122.125 386.904 148.283 419.76 170.149 419.101C191.697 418.443 216.289 390.696 217.969 377.798C219.445 366.422 219.558 358.952 216.788 349.347C214.994 343.194 214.041 337.676 214.063 331.977C218.514 330.047 221.943 326.413 222.374 320.237C222.851 313.448 223.623 307.59 224.94 301.663C233.455 292.013 231.752 277.844 231.229 265.855C242.288 272.599 250.916 281.636 251.098 285.837C261.724 283.544 264.358 280.092 263.813 275.574L263.791 275.619Z" fill="#CFA996"/>
<path d="M260.975 221.806C265.426 222.306 267.356 220.943 264.835 217.038C250.439 194.763 229.799 193.4 218.764 200.189C213.587 203.368 212.815 218.945 220.126 227.46C225.122 233.273 229.913 234.454 235.226 230.412C244.104 223.668 249.599 220.534 260.975 221.806Z" fill="white"/>
<path d="M291.129 255.162C290.471 251.37 262.564 250.053 257.637 253.754C255.344 255.479 254.322 261.224 255.662 266.719C256.752 271.26 259.544 275.802 262.383 275.893C265.766 276.006 291.901 259.567 291.152 255.184L291.129 255.162Z" fill="white"/>
<path d="M690.15 265.061C693.806 261.383 693.307 258.976 688.584 256.41C674.483 248.758 659.315 249.621 652.821 258.385C647.144 266.037 647.848 276.823 651.822 283.226C656.34 290.492 670.986 290.152 676.663 281.387C681.068 274.575 684.882 270.329 690.15 265.061Z" fill="white"/>
<path d="M757.861 274.145C760.972 274.645 762.357 273.418 761.971 270.171C760.836 260.249 747.348 245.194 739.401 245.058C731.453 244.922 726.889 254.436 727.343 263.791C727.616 269.604 730.182 273.01 736.29 272.874C742.398 272.737 751.617 273.146 757.861 274.145Z" fill="white"/>
<path d="M774.028 317.695C778.274 318.218 779.409 315.402 777.002 312.155C769.35 301.801 757.134 292.582 751.753 292.582C746.371 292.582 743.647 306.274 746.939 313.29C748.915 317.536 751.162 317.854 755.023 317.536C760.404 317.105 768.215 316.969 774.028 317.673V317.695Z" fill="white"/>
<path d="M242.424 662.426C231.775 654.342 226.257 648.893 227.483 636.7C236.634 621.327 245.081 601.55 246.579 593.648C248.282 584.656 244.059 551.55 237.996 528.321C233.046 509.362 226.325 498.803 210.976 493.172C188.224 484.839 152.915 486.042 140.699 496.101C129.209 505.57 118.174 527.05 116.153 538.221C111.884 561.882 114.496 600.097 120.218 636.427C122.125 648.643 118.378 657.703 109.409 664.583C104.709 668.216 100.826 671.304 97.4204 674.687L120.672 691.649C125.054 691.331 128.982 691.899 132.57 692.921L170.762 700.096C177.756 698.075 184.522 699.12 189.336 702.253L224.35 696.032C229.799 695.055 236.588 694.987 242.311 695.759L260.657 670.509C255.98 665.9 250.008 662.971 242.401 662.426H242.424Z" fill="#CFA996"/>
<path d="M116.993 695.167C121.535 692.465 122.443 689.263 120.081 683.609C118.288 679.318 113.292 673.482 109.591 673.142C100.985 672.302 94.4003 675.412 89.8136 680.998C83.9326 688.196 80.7764 702.32 82.7973 717.783C96.126 708.132 106.14 701.593 116.971 695.167H116.993Z" fill="white"/>
<path d="M170.467 700.596C172.374 697.893 173.305 696.758 171.602 692.648C168.333 684.701 162.247 676.186 153.165 676.05C144.082 675.914 130.14 689.447 131.162 699.029C132.161 708.248 135.703 720.032 142.515 729.387C151.598 723.279 163.519 710.382 170.467 700.573V700.596Z" fill="white"/>
<path d="M207.796 673.62C201.711 673.324 190.857 688.129 189.359 696.599C188.655 700.572 188.882 702.593 191.493 705.681C197.033 712.198 205.253 724.414 210.657 734.632C218.877 727.956 225.189 708.837 224.417 695.463C223.714 683.111 213.768 673.892 207.819 673.62H207.796Z" fill="white"/>
<path d="M259.59 670.781C253.618 670.895 241.402 679.682 240.721 690.354C240.449 694.759 241.47 695.894 245.399 696.871C256.184 699.573 268.809 706.226 280.866 714.468C279.731 696.871 266.97 670.622 259.59 670.758V670.781Z" fill="white"/>
<path d="M610.973 642.397C600.187 640.308 590.106 636.289 584.997 632.043C580.66 628.433 577.276 622.052 575.46 614.741C586.155 605.295 593.216 594.555 594.647 584.768C597.145 567.58 580.115 521.395 557.09 490.15C557.09 490.219 557.09 490.287 557.09 490.355C556.341 500.573 521.895 538.606 500.438 558.247C494.193 563.969 485.133 565.854 476.868 564.128C468.353 572.393 455.002 578.229 443.354 580.658C446.601 588.22 448.667 596.258 448.667 601.435C448.667 606.612 440.72 627.093 431.024 643.646L439.948 664.922C446.85 665.74 453.889 667.851 460.247 669.94C485.837 678.296 519.852 684.904 539.606 686.789L575.959 682.701L634.769 649.754C628.025 646.371 620.714 644.282 610.973 642.42V642.397Z" fill="#CFA996"/>
<path d="M563.289 669.079C551.868 666.127 542.081 672.712 539.584 682.703C538.88 685.541 540.038 687.607 544.556 688.38C556.182 690.355 570.237 694.76 578.185 699.438C580.455 687.948 571.509 671.191 563.289 669.079Z" fill="white"/>
<path d="M634.383 677.003C642.785 677.503 649.461 678.729 655.251 680.432C654.411 668.511 643.784 651.64 633.68 650.073C630.75 649.619 622.258 651.368 619.942 656.136C610.701 649.506 599.257 654.796 597.508 666.104C589.039 662.948 576.482 671.009 576.482 682.861C576.482 685.405 578.616 687.289 582.431 687.403C592.081 687.675 601.868 690.105 612.381 693.783C613.357 690.968 613.062 687.721 612.018 684.451C619.67 684.587 630.569 686.994 638.357 691.944C637.994 687.425 636.518 682.158 634.383 677.026V677.003Z" fill="white"/>
<path d="M97.0115 252.254C91.403 275.415 94.2413 297.191 104.732 310.111C114.087 305.433 130.277 298.19 143.696 293.081C137.088 298.394 135.544 301.323 132.229 306.137C111.771 313.358 74.7819 334.111 67.8791 349.143C55.8447 340.129 65.4722 286.019 75.6901 264.947C80.7991 254.412 88.3149 246.601 95.8308 243.898C96.3757 247.327 96.5801 249.212 96.9888 252.254H97.0115Z" fill="#5D6164"/>
<path d="M130.867 306.342C112.702 313.154 70.1954 337.132 67.8793 349.121C65.586 361.11 64.4507 383.249 66.9938 391.491C69.5369 399.734 77.7794 405.955 87.9973 413.062C83.456 414.198 81.912 417.581 80.9129 422.713C78.3697 435.769 77.2571 445.919 80.3452 455.909C88.2925 481.727 109.841 515.923 124.328 518.057C132.547 502.73 143.061 492.807 152.416 491.104C141.539 470.283 132.843 442.672 135.113 434.724C137.384 426.777 143.628 417.036 147.874 410.224C128.574 393.762 113.815 372.486 113.247 363.403C112.679 354.321 118.061 327.936 130.844 306.365L130.867 306.342Z" fill="#5D6164"/>
<path d="M205.23 482.045C232.478 498.802 281.297 511.268 316.765 512.699C324.712 526.595 327.55 539.651 321.306 549.869C310.089 568.239 292.787 583.952 277.891 578.525C271.647 576.254 252.074 560.655 240.721 544.76C236.702 515.492 228.278 496.918 208.932 492.263C207.501 489.288 206.252 486.109 205.253 482.045H205.23Z" fill="#5D6164"/>
<path d="M491.718 303.412C498.076 279.162 491.718 249.757 485.565 232.273C498.099 209.612 553.934 202.845 568.035 214.766C548.189 213.722 534.202 221.101 526.822 232.273C519.738 242.99 510.542 261.973 525.301 314.584C532.681 344.488 551.232 352.617 551.232 352.617C577.912 366.809 594.76 367.195 604.592 365.287C614.424 363.38 617.285 350.347 617.285 350.347C621.645 373.257 608.316 398.711 596.827 402.186C576.913 408.18 558.362 470.101 570.646 487.562C565.741 489.469 561.927 490.014 557.817 490.287C557.476 478.638 556.137 471.554 555.773 465.854C555.206 457.067 544.148 457.067 539.311 467.262C543.285 474.347 545.147 498.87 542.376 513.425C529.57 529.728 512.699 547.348 499.961 558.838C494.193 564.037 483.975 566.603 477.163 564.333C468.944 572.552 457.863 577.956 443.399 580.5C415.311 596.099 357.682 604.909 326.46 593.828C318.332 597.416 301.665 597.984 294.853 595.35C288.041 592.716 279.345 591.376 273.1 590.99C261.815 590.309 251.62 585.336 246.238 579.069C245.852 568.102 244.149 554.274 242.651 546.326C260.816 567.897 270.08 577.434 281.82 578.865C295.829 580.568 315.266 563.333 321.374 549.823C327.051 537.244 326.347 531.431 320.625 519.828C312.496 503.366 303.958 483.497 299.803 472.144C296.215 462.312 291.856 456.068 279.367 451.89C266.879 447.712 233.659 440.423 213.7 438.084C207.274 437.335 201.598 439.969 201.393 449.052C201.189 458.134 203.096 479.524 208.387 492.762C202.71 490.105 195.512 488.606 190.403 488.402C197.397 473.075 194.558 448.847 192.492 437.88C190.426 426.913 185.113 421.032 176.598 417.83C190.789 413.289 213.677 397.962 218.219 375.642C232.796 398.916 267.038 419.738 281.047 419.919C295.057 420.101 304.889 414.061 313.972 405.909C318.082 398.757 325.212 390.287 332.659 388.244C331.638 400.119 331.161 410.11 335.906 417.24C336.724 424.665 337.519 430.16 341.061 438.698C344.603 447.258 352.845 479.365 356.229 495.509C362.223 524.006 381.819 534.269 403.186 536.494C415.606 537.789 428.367 540.536 437.722 543.919C450.256 548.461 460.043 547.848 469.988 535.518C477.413 526.322 485.974 515.196 488.38 504.206C501.936 502.276 511.45 487.585 513.221 468.534C520.714 467.694 527.89 462.607 530.819 444.488C536.314 431.25 538.244 409.156 541.468 397.213C544.693 385.269 542.24 360.406 534.861 350.256C530.978 344.942 526.641 338.971 523.734 333.794C523.734 333.794 515.469 320.17 511.859 315.242C508.249 310.315 503.548 306.16 491.718 303.321V303.412Z" fill="#5D6164"/>
<path d="M335.203 415.4C335.203 421.418 339.222 432.453 342.968 443.239C345.988 451.912 351.915 473.279 355.252 490.377C360.384 516.762 371.647 532.838 401.846 536.562C423.849 539.264 428.663 541.217 437.7 544.01C448.553 545.009 459.997 526.026 468.149 508.225C415.402 505.818 364.471 459.701 335.203 415.4Z" fill="#5D6164"/>
<path d="M224.826 300.961C232.388 330.661 252.074 363.586 282.728 373.054C316.402 357.909 348.077 328.799 348.963 314.017C349.712 301.256 337.224 268.037 323.032 239.086C333.25 253.277 353.822 290.516 360.498 308.341C365.607 321.965 361.905 331.047 358.795 337.564C349.576 346.215 339.494 356.864 336.792 364.108C334.09 371.351 332.115 381.001 331.978 387.95C325.87 391.06 317.651 399.734 312.814 407.386C300.053 416.741 288.132 420.624 281.025 419.966C265.63 418.535 234.772 399.575 218.196 375.688C221.988 356.864 212.906 341.81 213.746 331.887C220.489 329.458 221.965 326.574 222.533 319.126C223.101 311.747 223.668 307.024 224.804 300.961H224.826Z" fill="#5D6164"/>
<path d="M155.549 152.051C148.465 164.88 146.307 188.472 148.669 206.024C131.049 213.177 107.298 235.565 97.0117 252.232C95.6266 241.991 94.4232 231.887 96.3078 222.918C99.0099 210.066 125.122 173.963 155.549 152.051Z" fill="#5D6164"/>
<path d="M200.031 202.188C188.859 196.693 179.981 197.079 165.018 200.303C172.397 196.511 177.892 186.497 180.344 178.913C182.797 171.352 190.381 157.842 196.443 150.076C202.869 148.01 215.744 150.598 220.876 153.414C210.067 168.855 201.03 190.494 200.031 202.188Z" fill="#5D6164"/>
<path d="M276.007 94.8984C272.578 101.37 272.124 109.34 273.713 116.901C253.073 123.849 239.563 131.115 231.706 139.494C228.732 135.702 224.44 132.637 219.445 132.432C221.08 127.119 227.415 118.422 232.024 114.244C237.247 109.476 258.159 100.007 276.029 94.8984H276.007Z" fill="#5D6164"/>
<path d="M238.45 133.318C244.876 151.483 269.286 170.216 306.002 178.163C325.302 165.856 357.478 147.328 372.032 140.516C381.864 148.463 386.792 164.357 387.541 181.001C357.387 188.177 320.443 209.271 321.692 236.632C314.131 228.117 307.115 224.53 298.986 223.758C290.857 223.008 271.919 221.487 265.88 219.966C257.887 203.458 238.813 191.582 221.034 198.576C218.378 194.784 209.113 194.216 200.78 203.685C196.806 192.15 218.945 150.711 238.427 133.295L238.45 133.318Z" fill="#5D6164"/>
<path d="M403.209 178.459C385.361 187.519 366.583 201.438 356.819 212.496C350.507 219.626 349.962 225.666 352.709 235.566C355.457 245.443 369.444 277.573 375.779 287.178C382.092 296.783 390.97 303.049 407.046 303.413C392.105 305.683 381.683 314.017 377.142 320.261C370.33 325.552 365.221 330.297 360.861 335.202C363.518 326.687 364.108 316.378 360.475 308.34C351.574 288.654 333.227 250.825 322.442 236.996C314.313 215.811 355.752 184.022 403.209 178.459Z" fill="#5D6164"/>
<path d="M346.192 105.275C356.705 109.226 365.311 109.226 377.187 108.205C389.335 108.295 401.029 109.317 406.546 111.565C412.064 113.813 419.194 114.313 423.939 113.722C428.662 113.109 431.092 113.972 433.317 115.97C416.537 122.6 403.027 129.844 399.053 143.945C388.631 128.618 380.797 121.897 370.125 118.377C359.453 114.858 352.573 110.725 346.192 105.298V105.275Z" fill="#5D6164"/>
<path d="M555.569 203.322C555.751 204.844 555.955 208.613 555.569 210.316C540.628 206.342 499.189 212.201 485.565 232.273C478.367 215.062 468.354 207.296 459.271 202.369C450.189 197.441 443.558 193.468 436.746 188.359C429.934 183.25 417.832 178.323 407.614 178.323C407.228 164.88 404.39 152.596 398.35 143.128C400.802 136.134 406.297 129.504 412.927 126.279C411.792 129.867 413.904 134.544 421.26 140.857C441.31 158.068 490.334 183.25 528.367 199.144C539.289 203.708 546.532 204.639 555.615 203.3L555.569 203.322Z" fill="#5D6164"/>
<path d="M213.087 493.783C226.938 519.6 223.578 594.418 193.401 629.296C178.8 646.166 157.002 647.029 142.402 631.385C136.998 625.594 135.068 626.344 135.386 633.905C136.09 650.844 131.367 662.719 112.815 674.845C116.88 677.297 122.375 685.767 120.899 691.284C124.259 691.284 126.825 691.693 130.981 692.624C135.272 685.085 147.261 675.412 153.982 675.957C160.703 676.502 168.946 684.586 171.194 691.284C172.261 694.509 172.533 697.211 170.649 699.618C177.37 698.8 182.206 698.414 188.678 701.366C188.814 693.033 198.487 674.345 206.957 673.936C215.426 673.528 223.896 684.836 224.304 695.848C227.801 695.44 236.271 694.645 241.788 695.712C238.995 689.831 241.198 680.272 249.327 675.253C246.216 671.734 243.06 670.417 238.36 669.781C229.277 668.532 222.919 656.203 221.511 645.712C230.594 632.883 245.399 604.954 246.511 591.943C247.601 578.955 241.811 534.927 236.657 522.734C231.48 510.518 224.486 499.074 213.133 493.783H213.087Z" fill="#AA8A7B"/>
<path d="M569.965 619.238C572.803 634.383 586.609 653.479 605.614 654.501C601.073 656.59 598.257 662.448 597.939 665.991C587.199 664.129 576.595 670.6 576.709 683.77C572.939 675.709 567.921 669.646 561.019 668.397C548.189 666.059 537.813 678.184 539.697 685.95C516.014 685.064 486.7 678.638 467.581 672.394C458.294 669.351 447.327 665.196 439.766 664.628C442.99 660.836 435.974 644.942 431.251 644.192C438.245 631.704 448.281 606.363 448.667 601.618C449.053 596.872 446.396 586.291 443.376 580.523C453.594 578.911 469.489 572.099 475.733 564.538C482.409 565.81 493.217 565.06 502.027 556.591C511.677 547.326 522.372 536.405 530.229 527.072C527.299 561.427 537.654 605.001 566.99 621.758L569.965 619.215V619.238Z" fill="#AA8A7B"/>
<path d="M431.274 644.374C426.8 644.056 415.674 655.5 411.428 661.926C421.828 662.766 430.978 663.697 435.747 664.946C439.607 665.968 440.697 664.946 440.356 661.313C439.879 656.363 434.793 644.623 431.274 644.374Z" fill="#DCDDDD"/>
<path d="M217.901 223.691C215.403 236.406 213.201 249.985 214.586 258.817C197.715 256.32 180.526 270.012 180.526 276.165C180.526 282.341 185.204 290.311 191.312 294.421C197.42 298.531 207.342 299.349 213.45 295.466C215.948 293.876 218.242 292.537 220.535 291.469C220.694 295.829 218.855 303.935 214.313 309.453C214.677 320.284 214.495 330.252 208.251 333.386C194.15 336.133 179.981 333.317 174.441 327.913C168.764 322.373 162.565 296.646 162.179 285.248C161.793 273.849 165.948 261.043 170.74 252.278C176.689 241.356 178.255 235.248 178.687 228.436C179.118 221.624 184.795 211.974 194.854 210.975C205.208 195.943 216.993 192.946 221.806 198.781C215.131 200.053 212.247 210.702 217.878 223.691H217.901Z" fill="#AA8A7B"/>
<path d="M256.07 268.49C249.077 270.579 244.49 271.624 239.767 271.624C244.967 274.825 251.007 282.727 250.78 285.702C256.161 285.747 263.541 282.727 263.813 276.233C260.725 276.279 256.82 272.35 256.07 268.49Z" fill="#AA8A7B"/>
<path d="M171.285 395.579C188.065 396.646 210.204 386.542 219.127 369.398C215.54 397.622 187.202 420.806 166.993 418.785C148.033 416.878 118.855 384.089 113.769 364.017C110.976 353.004 124.328 313.268 135.613 300.507C140.608 294.876 153.733 287.927 162.179 285.248C162.361 298.486 169.377 322.146 173.147 326.869C176.939 331.592 185.454 334.635 194.15 336.133C183.047 340.107 171.262 340.561 160.522 334.294C156.412 331.887 154.096 332.546 151.689 336.224C146.58 344.012 144.9 352.459 146.058 363.881C147.942 382.5 160.09 394.852 171.285 395.556V395.579Z" fill="#AA8A7B"/>
<path d="M606.137 285.884C608.634 284.067 611.95 283.386 614.584 283.068C612.267 295.988 626.936 326.165 642.603 330.321C648.235 331.819 653.048 335.452 658.861 341.924C653.048 355.525 647.258 369.285 643.285 373.1C639.311 376.914 624.552 382.886 613.766 382.545C622.554 366.628 616.241 314.085 606.137 285.884Z" fill="#AA8A7B"/>
<path d="M727.957 262.541C717.376 260.679 699.733 263.54 687.244 268.149C684.224 270.806 680.455 275.756 676.504 281.659C672.735 287.268 657.067 294.398 650.777 280.524C641.695 280.706 620.305 288.085 615.015 296.419C623.348 317.808 635.451 328.072 642.648 330.319C649.846 332.567 654.751 336.723 658.361 341.082C661.949 345.442 670.055 348.893 678.411 347.713C690.332 346.01 710.586 342.036 716.626 338.63C722.666 335.224 726.276 332.204 727.798 328.594C729.319 325.006 733.293 321.782 738.402 323.303C743.511 324.824 748.801 322.554 750.323 317.627C747.484 315.356 746.167 310.633 746.167 306.659C740.877 301.664 729.024 303.094 718.307 305.706C712.017 307.25 710.041 306.523 709.428 300.233C708.974 295.51 708.997 290.152 710.405 286.042C712.675 279.412 718.352 275.256 723.847 277.141C729.342 279.025 732.929 274.484 733.111 272.418C728.956 270.533 727.048 267.695 728.002 262.586L727.957 262.541Z" fill="#AA8A7B"/>
<path d="M388.018 310.611C370.625 326.21 394.353 362.086 432.659 377.3C446.646 382.863 457.999 395.692 464.062 408.476C477.3 436.382 482.182 442.308 496.169 442.785C520.283 443.625 529.321 442.785 534.611 430.932C531.614 446.168 526.346 451.073 515.038 453.071C486.769 458.021 473.894 448.462 464.244 430.932C451.187 407.227 439.97 390.061 429.049 386.223C418.127 382.386 403.799 373.031 392.446 363.085C374.894 347.736 365.107 321.555 388.041 310.588L388.018 310.611Z" fill="#AA8A7B"/>
<path d="M432.977 388.926C432.863 391.741 432.659 394.58 432.273 397.395C440.992 404.321 451.097 416.514 456.841 428.14L462.223 428.844C452.959 407.749 442.468 395.533 432.954 388.926H432.977Z" fill="#DCDDDD"/>
<path d="M425.484 384.68C417.264 381.137 408.454 376.029 403.913 372.486C401.642 375.029 400.053 378.163 400.143 381.069C406.478 385.247 414.199 388.653 424.076 392.355C426.506 393.263 429.321 395.011 432.296 397.373C432.659 394.557 432.863 391.719 433 388.903C430.411 387.109 427.913 385.701 425.506 384.68H425.484Z" fill="#BD302A"/>
<path d="M391.061 433.771C378.731 430.07 363.404 421.827 354.957 411.269C351.006 406.341 354.458 380.729 357.909 374.053C360.316 369.398 364.221 365.515 367.786 362.495C371.079 359.725 373.599 360.315 377.21 362.813C383.885 367.423 389.221 370.079 397.963 373.054L395.988 366.378C381.183 354.048 371.056 335.52 376.006 321.215C358.726 334.294 340.243 356.387 336.792 364.107C333.318 371.805 329.367 403.412 333.817 412.54C345.579 436.745 393.694 482.862 424.394 496.464C448.621 507.181 472.259 510.269 484.611 505.841C492.854 502.276 497.94 494.988 499.915 487.585C496.328 494.284 486.337 498.575 472.713 498.507C439.539 498.371 403.617 471.963 391.061 433.771Z" fill="#AA8A7B"/>
<path d="M453.254 428.025C458.726 439.424 469.693 451.731 486.133 453.502C476.959 449.347 467.332 440.173 463.472 429.206C460.361 428.911 457.25 428.616 453.254 428.025Z" fill="#AA8A7B"/>
<path d="M492.74 477.436C478.094 472.122 447.395 473.053 435.792 482.658C428.163 479.366 418.217 473.962 411.133 467.944C402.89 459.702 392.059 441.696 390.72 434.248C407.137 439.312 432.227 450.12 445.102 457.84C460.701 467.195 476.618 472.667 491.4 470.17C492.286 472.304 492.808 474.87 492.74 477.436Z" fill="#CF7487"/>
<path d="M149.69 433.612C162.837 431.296 172.238 425.461 177.71 417.513C169.854 419.512 156.412 418.263 147.919 410.225C140.54 419.739 135.363 431.319 134.931 438.017C134.114 450.574 146.648 478.185 153.006 490.288C163.746 487.722 181.457 486.745 190.744 487.972C192.197 484.679 193.423 479.184 193.9 476.096C178.55 468.421 159.795 453.912 146.194 440.016C143.174 436.927 143.56 434.725 149.713 433.635L149.69 433.612Z" fill="#5D6164"/>
<path d="M265.085 220.693C248.827 209.408 226.575 210.748 216.357 219.263C217.742 226.619 225.78 237.473 235.567 229.685C241.198 225.189 252.483 220.125 257.933 221.465C261.18 222.26 263.178 222.146 265.108 220.693H265.085Z" fill="#DCDDDD"/>
<path d="M256.093 267.219C266.402 261.769 277.869 257.66 291.175 255.094C290.403 259.544 267.151 276.62 262.224 275.734C259.545 275.257 256.979 271.806 256.116 267.219H256.093Z" fill="#DCDDDD"/>
<path d="M650.096 278.754C660.768 267.242 679.637 260.816 692.58 260.998C691.172 263.45 689.492 265.539 687.766 267.219C683.793 271.08 680.114 276.143 677.48 280.253C669.601 292.56 651.708 289.767 650.096 278.732V278.754Z" fill="#DCDDDD"/>
<path d="M728.729 254.866C741.104 257.614 754.591 265.062 761.471 273.554C760.245 274.031 758.883 274.076 756.839 273.736C749.096 272.509 742.216 272.328 736.063 272.782C729.932 273.259 724.914 267.014 728.706 254.844L728.729 254.866Z" fill="#DCDDDD"/>
<path d="M745.826 303.39C756.499 304.048 767.057 308.771 777.729 316.787C775.458 317.445 771.962 317.445 770.281 317.264C764.991 316.696 758.678 316.787 754.228 317.536C749.8 318.285 744.691 314.221 745.826 303.367V303.39Z" fill="#DCDDDD"/>
<path d="M582.204 670.758C593.694 672.188 606.818 683.019 612.177 693.305C604.093 690.671 589.425 687.288 582.431 687.288C579.479 687.288 576.3 685.858 576.755 681.702C577.186 677.547 578.844 673.71 582.227 670.758H582.204Z" fill="#DCDDDD"/>
<path d="M637.449 690.444C627.594 675.572 614.924 663.197 599.824 661.357L597.531 665.831C605.183 670.758 609.679 677.093 612.199 684.541C619.647 684.541 628.616 685.971 637.471 690.444H637.449Z" fill="#DCDDDD"/>
<path d="M624.869 660.042C633.52 658.952 648.052 669.669 654.183 679.615C648.393 678.298 639.969 677.094 634.815 677.208C632.408 671.19 629.229 664.855 624.869 660.042Z" fill="#DCDDDD"/>
<path d="M548.076 671.303C560.337 675.14 573.008 687.152 577.503 698.982C567.013 693.623 554.184 689.627 544.806 688.151C539.334 687.288 538.471 684.972 539.447 681.907C540.787 677.683 543.58 673.619 548.099 671.303H548.076Z" fill="#DCDDDD"/>
<path d="M247.533 676.752C257.933 683.746 268.537 693.964 280.276 713.264C271.012 707.587 253.482 698.596 246.216 696.802C241.766 695.712 240.153 693.918 240.312 690.512C240.471 687.106 243.151 680.589 247.556 676.752H247.533Z" fill="#DCDDDD"/>
<path d="M206.934 673.914C210.499 687.947 214.177 719.304 210.635 734.359C206.094 725.412 196.307 711.221 192.197 706.271C188.087 701.321 187.792 696.098 190.926 690.944C196.171 682.293 202.824 674.073 206.957 673.937L206.934 673.914Z" fill="#DCDDDD"/>
<path d="M155.708 675.889C147.193 686.38 143.651 706.543 142.788 728.545C137.248 722.596 130.163 705.271 131.003 696.756C131.843 688.241 144.196 674.481 155.685 675.889H155.708Z" fill="#DCDDDD"/>
<path d="M113.383 675.822C99.5774 677.707 86.7482 693.67 83.978 716.512C97.284 707.225 108.728 699.301 114.632 696.417C120.535 693.533 121.784 690.264 120.921 685.995C120.036 681.726 116.653 677.071 113.383 675.822Z" fill="#DCDDDD"/>
<path d="M417.264 380.433C417.673 382.862 417.446 385.246 417.264 388.811C416.901 396.1 415.47 402.526 413.744 402.435C412.019 402.344 411.36 395.124 411.724 387.812C411.951 383.18 411.86 380.75 412.859 378.457C414.017 379.116 415.765 379.66 417.264 380.433Z" fill="#0E141B"/>
<path d="M543.353 397.349C541.105 408.975 537.994 424.12 536.405 433.748C534.611 444.465 530.546 449.915 522.1 453.185C514.947 455.955 500.96 456.545 490.992 455.206C477.777 453.434 469.262 446.35 461.996 432.045C448.462 405.388 437.972 392.649 428.231 388.199C420.965 384.884 415.22 382.136 406.047 376.459C379.48 359.975 369.603 337.064 373.032 323.803C375.075 315.833 387.904 304.889 405.956 301.165C425.62 297.1 454.003 297.895 486.382 300.756C501.096 302.05 510.724 307.364 517.377 318.671C523.19 328.549 528.162 336.405 535.519 346.896C543.989 358.975 547.145 377.845 543.376 397.372L543.353 397.349ZM539.288 396.6C542.513 379.888 540.219 361.564 531.954 349.802C524.552 339.266 519.375 331.137 513.517 321.192C507.976 311.769 499.053 306.069 485.928 304.979C460.179 302.822 424.598 301.642 406.796 305.297C388.063 309.157 378.64 320.17 377.527 324.552C374.962 334.543 382.364 356.796 408.476 372.985C418.195 379.003 423.781 381.546 429.911 384.339C442.582 390.129 452.958 404.57 465.878 430.024C472.554 443.194 480.456 449.779 491.696 451.277C501.618 452.594 514.561 451.731 520.76 449.325C527.027 446.895 531.001 442.581 532.567 433.158C534.179 423.485 536.995 408.249 539.266 396.6H539.288Z" fill="#0E141B"/>
<path d="M464.016 431.524C445.147 430.048 406.751 416.288 402.187 411.633C399.416 408.817 398.077 403.595 398.168 390.062C398.213 381.479 396.328 371.488 392.514 363.949L398.781 368.422C401.574 374.985 402.618 383.023 402.595 390.266C402.527 400.711 403.458 405.911 405.956 408.386C411.178 413.586 443.944 425.166 462.245 427.527L464.062 431.546L464.016 431.524Z" fill="#0E141B"/>
<path d="M434.453 389.152C434.566 402.572 430.865 416.082 423.849 419.284L419.512 417.535C427.096 416.672 431.069 401.436 430.933 387.449L434.453 389.152Z" fill="#0E141B"/>
<path d="M534.338 438.765C531.772 452.957 528.026 462.652 521.418 467.761C516.014 471.917 493.285 473.597 477.913 472.121C464.402 470.804 455.933 467.058 446.555 461.199C433.204 452.843 414.448 444.169 395.375 437.743C385.679 434.474 377.3 430.886 370.625 426.14C364.062 421.486 365.061 419.487 372.01 423.552C379.276 427.798 386.792 431.09 396.306 434.133C415.629 440.309 435.769 449.369 448.621 457.407C457.886 463.197 465.197 466.513 478.276 467.807C491.446 469.101 513.448 468.533 518.716 464.446C522.962 461.131 526.05 455.409 528.548 446.758L534.316 438.811L534.338 438.765Z" fill="#0E141B"/>
<path d="M503.004 470.124C507.409 490.083 494.489 500.823 472.35 500.391C437.904 499.71 403.413 474.12 387.973 433.498L392.491 434.656C407.591 471.6 439.017 495.964 472.463 496.622C496.237 497.144 502.686 485.064 499.03 470.305L503.004 470.124Z" fill="#0E141B"/>
<path d="M407.614 463.062C419.807 472.894 444.489 489.696 472.577 490.582C491.219 491.127 494.012 481.363 489.175 470.668H493.399C497.668 481.204 495.011 494.987 472.509 494.26C449.643 493.534 429.185 482.839 415.47 473.393L407.636 463.039L407.614 463.062Z" fill="#0E141B"/>
<path d="M515.061 468.444C514.47 500.029 488.449 513.584 456.978 508.544C444.989 506.614 430.048 503.162 412.995 492.922C388.086 477.981 342.923 439.266 331.683 414.766C328.118 407 328.64 373.781 335.362 361.701C342.741 348.463 362.042 329.072 377.755 317.037L375.189 324.462C364.471 332.886 345.829 352.595 339.494 363.971C334.294 373.258 332.432 404.73 336.293 413.131C346.238 434.838 391.265 475.006 415.311 489.447C432 499.461 445.897 502.595 457.659 504.479C492.377 510.02 510.383 493.126 510.837 469.148L515.106 468.467L515.061 468.444Z" fill="#0E141B"/>
<path d="M337.564 418.989C338.631 425.46 341.061 431.977 344.081 440.378C348.577 452.821 355.23 479.433 358.204 495.169C362.314 516.922 376.915 530.932 399.462 534.042C410.27 535.541 425.37 538.379 435.407 541.24C450.665 545.6 458.181 546.032 467.173 535.973C474.848 527.344 483.34 514.878 486.542 504.887L491.446 503.23C488.676 513.766 479.185 528.752 470.306 538.72C460.293 549.937 450.188 549.96 434.294 545.418C424.371 542.58 407.478 539.492 398.622 538.379C375.348 535.473 358.704 521.168 353.958 495.964C351.007 480.342 343.854 451.686 340.017 441.718C335.407 429.729 333.454 420.646 332.478 411.723L337.542 419.011L337.564 418.989Z" fill="#0E141B"/>
<path d="M464.175 543.239C457.659 549.846 446.124 553.252 433.544 552.866C414.925 552.299 383.045 548.439 366.606 545.782C351.551 543.352 345.352 537.403 340.334 528.548C329.095 508.68 315.584 471.85 307.047 444.307C301.983 428.003 302.619 420.465 308.227 410.224C313.677 400.256 323.69 389.947 332.342 384.611L332.137 389.97C324.303 395.238 317.174 403.299 312.224 412.313C307.001 421.873 307.092 428.117 311.656 442.876C320.148 470.283 333.477 506.386 344.603 526.073C349.076 533.975 353.958 539.061 367.673 541.263C384.044 543.897 415.198 548.03 433.703 548.598C442.786 548.893 448.621 547.939 453.344 545.6L464.13 543.193L464.175 543.239Z" fill="#0E141B"/>
<path d="M490.084 303.367C494.284 291.469 492.059 260.588 486.927 243.445C481.637 225.825 472.713 213.495 459.793 205.48C450.325 199.599 440.947 193.899 430.297 187.564C418.876 180.752 406.16 179.072 391.242 182.705C363.858 189.381 335.203 205.729 328.05 218.99C323.1 228.186 323.077 232.682 325.53 239.744L319.967 235.725C318.967 230.298 320.08 224.485 324.326 216.606C331.887 202.55 361.633 184.907 390.107 177.959C405.729 174.145 420.624 176.12 432.636 183.295C443.285 189.653 453.14 195.602 462.631 201.483C476.255 209.93 485.906 223.259 491.628 242.378C497.372 261.496 498.712 292.309 494.489 304.412L490.084 303.345V303.367Z" fill="#0E141B"/>
<path d="M409.271 178.891C391.605 185.339 370.057 201.597 358.613 213.813C353.481 219.285 352.005 224.394 354.003 232.296C357.546 246.261 369.648 273.531 378.118 286.86C384.203 296.419 391.515 301.233 413.54 301.665L400.938 304.685C385.52 302.959 379.548 297.35 374.575 289.494C365.992 276.006 353.481 247.669 349.894 233.5C347.691 224.78 348.508 218.355 355.434 210.975C366.219 199.485 383.545 185.839 400.393 178.346L409.271 178.891Z" fill="#0E141B"/>
<path d="M327.891 227.687C331.797 225.349 335.907 223.668 340.652 222.51C345.08 221.42 345.693 223.464 341.379 224.985C336.52 226.688 333.409 228.164 329.345 230.526C324.735 233.205 322.919 230.662 327.891 227.687Z" fill="#0E141B"/>
<path d="M363.995 318.309C366.719 321.033 371.238 322.078 374.485 321.76L370.125 325.938C367.514 325.643 365.312 324.825 363.313 323.281L363.995 318.309Z" fill="#0E141B"/>
<path d="M265.857 217.65C276.506 219.353 286.247 220.421 298.645 221.601C311.656 222.827 321.647 230.275 330.048 243.49C343.059 263.972 357.319 296.533 362.927 309.498C366.061 316.764 366.174 325.143 362.927 333.635L355.775 339.63C361.179 328.685 362.269 319.398 358.84 311.428C353.277 298.508 338.904 266.56 325.984 246.238C316.788 231.751 306.615 226.96 298.168 226.165C285.748 224.985 275.371 223.781 265.267 222.01L265.88 217.673L265.857 217.65Z" fill="#0E141B"/>
<path d="M341.788 279.593C347.056 290.537 351.642 309.634 351.075 314.47C348.713 334.974 301.734 371.827 278.664 375.346C267.174 377.095 236.838 369.783 226.053 360.882C222.011 357.544 223.487 355.523 227.824 358.475C239.54 366.513 267.583 372.758 277.914 371.191C298.759 368.012 344.513 332.317 346.624 313.925C347.101 309.815 343.627 291.764 339.154 280.796C339.154 280.796 328.822 253.844 322.442 240.061C322.442 240.061 322.01 235.52 324.576 239.493L341.788 279.593Z" fill="#0E141B"/>
<path d="M218.469 228.891C210.771 219.921 210.976 202.551 217.606 198.464C231.752 189.745 253.164 195.103 266.266 216.039C269.468 221.148 267.651 224.19 260.862 223.441C251.507 222.396 247.147 223.713 236.248 232.001C230.208 236.588 224.1 235.43 218.469 228.891ZM219.786 201.87C216.13 203.982 215.562 218.945 221.625 226.03C226.144 231.297 230.026 231.888 234.182 228.732C242.651 222.306 249.668 218.65 261.18 220.126C264.177 220.512 264.79 220.126 263.314 217.878C250.621 198.532 231.661 194.99 219.786 201.87Z" fill="#0E141B"/>
<path d="M238.155 228.141C239.336 232.364 239.132 235.52 236.248 240.788C233.977 244.921 232.615 258.204 233.659 269.921C235.567 291.174 231.275 301.596 218.628 308.908C213.178 312.041 211.566 310.156 217.106 306.319C227.46 299.121 230.98 289.017 229.277 270.102C228.073 256.705 229.913 243.377 232.365 238.926C234.113 235.725 234.84 233.658 234.34 230.843L238.155 228.163V228.141Z" fill="#0E141B"/>
<path d="M257.183 254.048C255.412 251.029 252.551 250.552 247.737 252.595C243.809 254.276 236.997 254.548 231.638 252.277L232.115 247.691C236.611 250.075 242.969 250.188 246.466 248.69C252.801 246.01 258.75 247.94 260.771 252.595L257.183 254.048Z" fill="#0E141B"/>
<path d="M250.893 283.749C260.862 281.478 261.883 278.822 261.815 275.756L265.743 274.553C266.765 280.911 263.541 285.656 250.053 288.313L250.871 283.726L250.893 283.749Z" fill="#0E141B"/>
<path d="M262.247 277.959C257.887 277.846 254.708 272.487 253.482 267.378C252.12 261.701 253.073 254.73 256.457 252.187C261.475 248.418 291.924 249.281 292.9 254.889C293.877 260.543 266.447 278.073 262.247 277.959ZM258.977 255.298C256.979 256.819 256.57 262.042 257.592 266.265C258.659 270.693 260.862 273.668 262.451 273.69C266.402 273.69 289.903 258.114 289.404 255.48C289.108 253.89 264.336 251.234 258.954 255.298H258.977Z" fill="#0E141B"/>
<path d="M219.876 199.554C215.335 195.603 206.139 198.259 197.442 211.452C196.716 212.564 196.012 212.95 194.65 213.223C187.27 214.653 181.82 221.534 180.64 231.07C179.8 237.814 176.394 247.101 171.375 256.025C164.336 268.491 162.974 277.846 165.563 293.581C167.674 306.456 170.967 323.508 177.461 327.8C184.681 332.568 197.352 334.09 210.703 330.525C216.743 328.912 219.581 326.415 220.035 319.921C220.467 313.586 221.125 308.295 222.351 303.822L227.347 299.78C225.848 305.911 225.031 312.518 224.463 320.488C223.918 328.14 219.876 333.045 211.77 335.202C200.281 338.268 184.522 337.995 174.918 331.66C168.106 327.164 164.405 314.653 161.044 294.353C158.342 277.959 160.022 266.924 167.402 253.868C172.284 245.239 175.576 236.815 176.371 230.389C177.915 217.878 184.863 210.407 194.014 209.113C204.799 192.265 218.378 191.039 223.896 198.01L219.922 199.599L219.876 199.554Z" fill="#0E141B"/>
<path d="M216.13 331.184C216.061 336.542 216.97 342.219 218.9 348.849C221.784 358.84 221.988 366.515 220.239 378.118C217.674 395.216 190.085 420.942 170.172 421.533C147.352 422.237 120.354 389.676 111.93 367.877C105.685 351.71 124.532 309.794 133.523 299.622C138.11 294.422 153.482 285.067 162.224 282.592L162.474 287.02C154.254 289.563 141.153 297.782 136.929 302.551C129.345 311.111 111.021 351.71 116.652 366.265C124.327 386.133 150.258 417.241 170.035 416.515C189.994 415.902 213.836 390.198 215.494 377.46C216.924 366.47 217.22 359.476 214.427 349.848C212.542 343.354 211.679 338.155 211.656 332.864L216.13 331.161V331.184Z" fill="#0E141B"/>
<path d="M218.787 370.238C225.394 394.33 270.285 417.241 281.706 417.4C292.242 417.559 305.412 411.7 314.881 402.413L310.725 411.11C301.733 417.922 290.721 422.395 281.661 422.327C270.308 422.236 228.619 401.687 217.424 378.345L218.764 370.261L218.787 370.238Z" fill="#0E141B"/>
<path d="M306.366 421.349C305.276 418.874 303.05 416.399 300.326 414.901L304.617 412.426C306.139 413.357 307.524 414.696 308.409 416.354L306.343 421.349H306.366Z" fill="#0E141B"/>
<path d="M297.828 416.378C293.582 427.686 291.22 437.995 289.994 447.304C289.108 454.026 286.611 453.867 287.019 447.055C287.542 437.904 289.676 427.958 293.014 418.058L297.828 416.355V416.378Z" fill="#0E141B"/>
<path d="M237.951 398.031C222.102 404.775 208.682 422.645 205.344 432.795C202.097 442.717 202.12 472.667 211.543 493.262L206.298 491.65C197.533 470.555 197.488 441.355 200.758 431.432C204.89 418.83 218.764 401.982 233.864 394.988L237.928 398.008L237.951 398.031Z" fill="#0E141B"/>
<path d="M271.692 574.642C287.383 581.454 304.004 573.302 318.354 551.186C324.212 542.171 324.394 532.68 318.422 520.964C312.655 509.61 301.824 484.633 297.442 472.985C292.968 461.087 287.473 457.499 276.711 453.548C265.607 449.484 229.004 441.854 213.246 440.31C207.388 439.743 204.527 442.013 201.484 450.778L201.03 441.99C203.278 437.495 206.661 435.292 213.632 435.973C229.526 437.517 267.038 445.533 278.255 449.665C291.152 454.388 296.806 459.316 301.324 471.35C305.684 482.953 316.288 507.658 322.033 518.943C328.935 532.544 328.731 542.694 321.783 553.389C310.112 571.349 296.806 580.818 283.477 580.818L271.692 574.642Z" fill="#0E141B"/>
<path d="M333.136 543.829C327.165 543.875 327.119 541.604 333.091 541.037C337.382 540.628 339.858 540.219 342.877 538.97C346.942 537.29 348.077 539.947 344.058 541.741C341.106 543.057 337.383 543.807 333.136 543.829Z" fill="#0E141B"/>
<path d="M352.028 537.926C352.982 542.944 350.484 547.168 344.49 553.298C336.202 561.768 324.258 570.692 313.087 576.436C295.262 585.61 277.551 585.042 264.518 573.643C255.503 565.764 248.169 556.704 242.197 549.12L241.493 541.128C247.42 548.939 257.456 561.064 267.878 570.192C279.799 580.614 293.832 581.205 311.406 572.168C322.351 566.536 333.295 558.498 341.402 550.21C348.6 542.831 349.167 539.447 345.875 532.658L352.028 537.903V537.926Z" fill="#0E141B"/>
<path d="M179.254 416.945C187.315 420.578 192.038 426.8 194.15 435.678C198.305 453.185 198.782 477.027 192.265 488.789L188.087 488.13C194.627 477.708 194.127 454.434 189.881 436.7C187.724 427.617 182.865 422.259 173.487 419.42L179.232 416.945H179.254Z" fill="#0E141B"/>
<path d="M151.098 491.037C138.951 472.577 131.911 443.944 132.207 437.563C132.547 430.638 139.268 418.626 145.785 409.135L149.623 411.814C143.333 420.942 137.384 432.068 137.111 437.768C136.816 443.808 143.446 471.941 155.39 489.675L151.098 491.037Z" fill="#0E141B"/>
<path d="M331.615 595.373C320.761 600.504 302.21 600.55 291.515 597.212C288.019 596.122 280.367 594.056 269.831 593.079C261.089 592.262 251.552 588.311 246.693 582.589L246.375 575.891C252.733 584.042 261.861 587.539 270.194 588.311C280.003 589.219 288.246 591.331 292.764 592.739C301.665 595.486 315.471 596.236 325.439 593.125L331.615 595.35V595.373Z" fill="#0E141B"/>
<path d="M459.589 544.352C465.334 557.113 458.703 572.031 444.126 582.453C428.458 593.693 385.952 601.436 356.706 601.436C336.77 601.436 309.113 593.329 300.235 579.297L304.663 577.662C314.585 589.628 338.336 596.531 356.933 596.531C385.793 596.531 426.279 589.56 441.56 578.616C452.8 570.555 460.656 558.361 455.842 546.509L459.612 544.352H459.589Z" fill="#0E141B"/>
<path d="M450.075 574.528C435.293 576.254 426.642 575.436 417.446 573.506C399.076 569.646 367.628 568.534 358.727 572.167C349.667 575.845 340.789 582.43 337.791 587.97C336.02 591.263 336.474 594.215 338.995 597.008L333.704 596.031C332.047 593.102 332.296 589.038 334.067 585.745C336.86 580.591 347.215 572.189 357.069 568.148C367.832 563.765 398.577 565.332 418.263 569.465C428.004 571.508 437.178 572.303 453.277 570.169L450.052 574.528H450.075Z" fill="#0E141B"/>
<path d="M445.284 577.889C455.206 575.482 466.219 570.373 474.189 563.402L479.616 564.81C470.533 574.96 452.482 582.181 438.835 584.111L445.261 577.912L445.284 577.889Z" fill="#0E141B"/>
<path d="M537.926 414.697C557.522 421.918 559.815 484.111 559.316 490.696C558.476 502.163 520.874 542.626 501.936 559.928C491.469 569.487 468.921 570.6 459.362 555.432L459.612 547.28C465.379 562.766 486.383 567.512 498.712 556.227C520.351 536.427 554.025 499.438 554.729 489.924C555.683 477.095 552.685 426.028 537.063 419.102L537.904 414.697H537.926Z" fill="#0E141B"/>
<path d="M477.05 564.356C472.1 559.701 472.372 549.801 481.251 540.923C494.806 527.39 523.076 490.81 539.152 463.812C543.921 455.819 551.118 455.41 555.819 461.178L555.773 468.058C551.641 459.407 546.191 460.156 542.535 466.287C527.776 491.082 499.484 528.775 484.316 543.943C475.687 552.571 475.892 561.699 484.611 564.606L477.027 564.333L477.05 564.356Z" fill="#0E141B"/>
<path d="M559.179 576.663C560.133 573.302 560.587 571.554 561.019 567.83C561.518 563.402 564.493 563.72 564.107 568.148C563.766 572.031 563.085 574.801 561.972 577.571C559.724 583.134 557.522 582.567 559.202 576.686L559.179 576.663Z" fill="#0E141B"/>
<path d="M599.279 400.824C601.845 403.526 603.412 409.135 602.413 418.354C600.414 436.451 589.424 466.196 579.184 481.046C572.349 490.969 564.402 492.377 556.931 492.104L556.818 487.359C565.832 487.699 570.237 485.474 575.483 477.845C585.519 463.267 595.896 435.77 597.848 418.013C598.711 410.157 597.939 404.707 595.169 402.187L599.279 400.824Z" fill="#0E141B"/>
<path d="M597.235 401.141C586.427 402.685 577.708 414.56 571.691 435.246C565.719 455.75 563.63 472.144 566.059 479.66C567.649 484.587 570.078 483.792 568.693 478.661C566.741 471.463 570.078 456.227 575.823 436.495C581.954 415.446 590.378 405.977 599.461 405.273L597.258 401.163L597.235 401.141Z" fill="#0E141B"/>
<path d="M583.112 367.196C607.204 372.759 620.419 363.154 619.556 346.237C617.013 297.26 594.92 229.163 576.05 216.742C560.701 206.638 528.662 215.675 519.057 241.788C511.678 261.815 517.309 295.352 524.552 320.261C524.552 320.261 529.275 335.111 536.178 342.831C536.178 342.831 550.165 359.771 583.112 367.196ZM535.338 334.158C522.009 308.045 515.243 264.948 523.144 243.468C531.478 220.784 559.089 211.361 573.575 220.534C589.515 230.639 612.699 300.666 615.083 346.306C615.764 359.453 604.774 367.672 584.157 362.927C584.157 362.927 547.667 355.048 535.338 334.135V334.158Z" fill="#0E141B"/>
<path d="M619.556 346.191C622.576 380.342 609.02 401.459 596.532 404.206C587.699 406.159 565.038 394.125 542.672 376.641L542.218 371.169C565.083 388.811 588.698 401.414 595.714 399.847C602.526 398.303 616.082 383.93 615.514 354.252L619.556 346.191Z" fill="#0E141B"/>
<path d="M484.339 229.821C498.144 208.704 552.958 198.396 576.05 216.72L568.057 216.674C545.533 203.482 495.964 215.403 486.45 234.976L484.316 229.799L484.339 229.821Z" fill="#0E141B"/>
<path d="M397.282 141.629C398.599 135.771 402.209 131.003 407.772 127.006C415.742 121.284 431.909 112.542 443.671 111.066C456.069 109.522 481.909 113.859 504.593 121.352C520.101 126.484 527.64 131.866 535.542 143.855C542.899 154.981 550.732 165.993 559.474 177.233C569.806 190.562 571.94 201.007 569.511 214.903L565.287 213.2C567.376 200.326 564.674 191.243 555.887 180.003C547.077 168.718 539.061 157.819 531.682 146.647C524.62 135.975 517.536 130.798 502.867 125.962C480.501 118.56 456.251 114.177 444.194 115.676C434.157 116.925 417.945 124.985 410.27 130.503C404.253 134.817 401.165 140.585 400.62 147.079L397.259 141.607L397.282 141.629Z" fill="#0E141B"/>
<path d="M567.444 197.487C563.176 206.842 546.555 209.113 529.684 201.937C515.833 196.034 448.372 166.515 417.014 140.335C412.654 136.702 410.338 132.387 410.679 127.506L414.789 125.371C413.812 129.345 415.175 133.25 419.58 136.974C450.029 162.723 517.74 192.083 531.228 197.827C549.824 205.752 563.743 200.779 565.537 191.969L567.422 197.487H567.444Z" fill="#0E141B"/>
<path d="M198.101 200.917C197.056 191.13 205.162 173.464 222.51 148.01C231.161 135.318 239.336 128.301 251.643 123.147C272.896 114.246 288.268 108.637 305.502 102.325C321.669 96.3986 330.684 96.3532 345.625 104.528C354.844 109.568 362.155 113.042 373.372 117.334C392.287 124.532 408.726 146.625 410.225 178.687L405.729 178.483C404.207 151.984 391.174 128.982 372.01 121.694C360.679 117.379 352.845 113.883 343.513 108.774C332.001 102.461 322.782 101.235 307.069 107.003C289.88 113.292 275.348 118.628 253.391 127.506C241.515 132.298 234.363 138.474 226.189 150.826C209.227 176.416 200.576 193.446 202.733 202.415L198.123 200.962L198.101 200.917Z" fill="#0E141B"/>
<path d="M437.631 114.654C421.056 96.9658 403.504 89.7906 374.258 90.1539C362.155 90.2901 351.12 94.0821 343.854 100.985L341.129 97.5108C348.872 90.2447 361.497 85.7034 374.19 85.5445C406.206 85.1585 424.643 93.1966 442.718 113.61L437.631 114.677V114.654Z" fill="#0E141B"/>
<path d="M345.829 102.665C355.911 106.594 364.675 107.524 376.937 106.435C377.641 106.366 378.118 106.344 378.935 106.389C392.491 106.934 402.255 108.138 410.225 110.431C414.88 111.771 418.853 112.247 424.484 111.816C428.958 111.475 433.113 112.316 436.996 114.836L432.068 116.721C429.548 115.676 427.504 115.404 424.484 115.79C419.239 116.471 414.13 116.244 408.976 114.609C401.278 112.157 392.218 110.93 379.208 110.385C378.209 110.34 377.664 110.363 376.733 110.454C365.765 111.498 356.933 110.772 347.736 107.502L345.829 102.643V102.665Z" fill="#0E141B"/>
<path d="M216.924 131.57C220.467 124.031 226.189 116.356 231.547 111.974C243.241 102.369 280.571 90.0168 306.433 85.0441C328.141 80.8661 340.834 89.3129 352.596 110.543L345.988 107.819C336.474 93.0141 326.415 85.7253 307.319 89.4037C279.231 94.8079 243.763 107.819 234.454 115.493C229.481 119.581 224.508 125.87 221.239 132.455L216.947 131.57H216.924Z" fill="#0E141B"/>
<path d="M94.9455 254.139C92.97 238.472 92.3115 228.208 94.3097 221.578C103.96 189.743 163.451 135.271 193.446 130.389C214.904 126.892 230.049 129.639 233.069 138.54L229.981 141.901C226.416 131.569 206.525 132.796 194.173 134.816C166.244 139.358 108.456 191.991 98.8737 222.691C97.4886 227.118 97.2161 237.336 98.4423 249.234L94.9228 254.116L94.9455 254.139Z" fill="#0E141B"/>
<path d="M195.921 131.91C202.324 133.25 206.57 139.085 200.871 147.396C195.262 155.57 187.247 167.151 182.002 180.434C178.959 188.086 175.962 194.012 169.718 199.348L161.203 200.734C169.808 195.034 174.509 187.927 178.096 178.913C183.455 165.357 191.652 153.3 197.329 145.035C201.507 138.949 198.964 134.453 187.542 134.567L195.921 131.933V131.91Z" fill="#0E141B"/>
<path d="M84.7729 331.251C69.7412 311.655 78.5286 266.674 103.733 238.223C135.59 202.278 177.256 187.315 203.709 200.939L200.599 204.345C175.576 192.083 137.861 207.16 107.389 241.538C82.8883 269.172 74.2144 310.225 88.2924 328.572L84.7729 331.251Z" fill="#0E141B"/>
<path d="M143.878 294.92C127.461 301.573 114.11 307.295 97.2613 315.719C93.2877 317.717 90.4721 318.24 88.0652 317.944C82.7973 317.309 83.0698 314.993 88.2468 314.993C90.4721 314.993 92.0615 314.584 95.8989 312.586C112.679 303.889 136.453 293.558 155.14 286.428L143.855 294.897L143.878 294.92Z" fill="#0E141B"/>
<path d="M67.3571 353.457C61.0674 347.327 59.0465 334.066 60.4089 318.58C61.8394 302.459 70.8993 269.194 75.6677 259.929C80.6858 250.211 87.4977 244.353 95.8083 240.447L96.1262 245.579C88.4287 249.416 84.0463 254.503 80.209 261.95C75.5314 271.033 66.4034 303.163 65.0183 319.034C63.7013 334.021 65.1091 343.308 68.8557 348.576L67.3571 353.457Z" fill="#0E141B"/>
<path d="M134.705 437.267C98.7375 426.164 67.8112 405.887 64.9275 389.493C63.5651 381.682 62.2255 356.023 67.3117 345.533C74.0555 331.659 111.907 310.088 134.001 302.754L130.595 308.317C110.227 316.06 77.6886 335.133 71.6941 347.486C66.9257 357.318 68.2654 381.773 69.5142 388.812C71.7849 401.686 97.1707 421.168 135.567 433.044L134.682 437.267H134.705Z" fill="#0E141B"/>
<path d="M102.529 417.15C98.3739 415.97 98.8962 414.13 103.21 414.357C105.617 414.471 106.639 413.04 106.049 409.18C104.641 399.825 103.982 387.45 104.278 379.594C102.12 370.443 99.6001 359.226 97.3975 351.529C95.7854 345.875 93.0152 342.582 87.9062 340.516C83.5239 338.745 84.1596 336.86 88.7236 338.064C94.65 339.653 98.6237 343.581 100.486 350.121C102.643 357.659 106.071 369.171 108.251 378.254C108.478 379.185 108.501 379.548 108.456 380.593C108.183 388.881 108.297 400.438 109.568 408.703C110.726 416.424 105.912 418.104 102.552 417.15H102.529Z" fill="#0E141B"/>
<path d="M122.988 520.1C115.358 518.147 110.022 514.106 103.801 505.795C93.4239 491.967 79.6411 467.33 77.5294 454.115C75.6447 442.376 76.4849 429.933 79.6865 419.51C81.0716 414.969 82.4567 412.699 86.453 411.949L91.4484 415.56C86.7936 414.992 85.2496 416.354 83.9553 420.555C80.8672 430.591 80.3904 442.081 82.2296 453.434C83.9553 464.265 97.6246 489.991 107.229 502.775C113.269 510.813 117.72 514.356 125.077 516.104L122.988 520.032V520.1Z" fill="#0E141B"/>
<path d="M105.141 422.871C110.227 429.365 113.519 435.564 116.312 443.988C120.467 456.431 124.623 465.627 129.55 473.256C135.726 482.839 137.111 491.581 135.658 501.64L130.844 505.886C133.569 494.26 132.275 485.177 125.849 475.232C120.808 467.421 116.789 458.089 112.27 445.259C108.774 435.337 104.55 427.344 97.4658 419.465L105.163 422.871H105.141Z" fill="#0E141B"/>
<path d="M385.815 127.437C386.383 132.91 383.976 137.86 375.098 141.947C356.751 150.394 330.707 165.494 312.837 176.779C305.843 181.206 300.348 184.522 291.879 188.087C277.256 194.24 265.539 199.531 251.393 203.095L247.465 199.962C263.178 196.079 275.235 190.811 290.448 184.158C298.486 180.639 303.845 177.414 310.748 173.055C328.686 161.724 354.935 146.466 373.395 137.973C381.955 134.022 382.659 129.685 381.138 123.918L385.861 127.437H385.815Z" fill="#0E141B"/>
<path d="M323.804 223.055C316.22 210.067 310.452 198.577 306.501 189.063C303.913 182.887 306.115 181.752 309.135 187.724C314.517 198.441 318.967 207.024 325.802 218.377L323.804 223.055Z" fill="#0E141B"/>
<path d="M601.186 267.969C606.886 264.994 613.243 264.381 620.055 265.766L617.739 269.944C612.244 269.059 607.976 269.944 602.912 272.669L601.164 267.946L601.186 267.969Z" fill="#0E141B"/>
<path d="M660.927 343.648C654.251 355.456 651.39 371.668 640.4 378.071C632.862 382.454 622.349 385.337 612.312 385.337L614.22 380.274C623.325 380.069 631.295 377.821 638.062 373.825C646.667 368.716 650.278 353.026 657.544 340.787L660.904 343.671L660.927 343.648Z" fill="#0E141B"/>
<path d="M649.914 284.361C645.85 277.845 644.419 266.242 651.186 257.068C657.771 248.167 673.438 246.237 689.287 254.843C695.441 258.181 695.577 262.041 691.308 266.31C685.972 271.623 682.407 275.915 678.116 282.568C671.576 292.672 655.387 293.194 649.914 284.384V284.361ZM654.297 259.657C649.256 266.673 650.051 276.482 653.547 282.091C657.521 288.449 670.146 287.472 675.05 280.206C679.796 273.19 683.316 269.262 688.947 263.926C691.944 261.087 691.308 259.77 687.766 257.863C675.959 251.46 660.541 250.96 654.274 259.657H654.297Z" fill="#0E141B"/>
<path d="M736.313 274.735C728.751 274.917 725.459 271.079 725.096 263.836C724.551 252.505 730.386 243.082 739.174 243.082C748.279 243.241 762.38 258.863 763.651 269.967C764.242 275.075 761.858 276.506 757.589 275.825C751.39 274.826 742.398 274.576 736.313 274.735ZM739.446 247.169C733.02 247.101 728.956 255.048 729.365 263.768C729.592 268.65 731.953 270.852 736.358 270.829C742.807 270.784 751.685 271.465 758.134 272.419C760.086 272.714 760.495 272.169 760.268 270.262C759.269 261.565 746.553 247.237 739.446 247.169Z" fill="#0E141B"/>
<path d="M773.824 319.375C767.489 318.716 761.313 318.898 755.159 319.375C749.255 319.852 746.917 318.512 744.896 314.22C742.035 308.09 742.784 290.492 751.662 290.492C758.179 290.492 770.463 300.528 778.274 311.064C781.589 315.537 780.159 320.011 773.801 319.375H773.824ZM774.21 316.037C776.844 316.332 777.162 315.197 775.731 313.312C767.92 303.026 755.954 294.534 752.003 294.534C748.052 294.534 746.099 306.636 748.711 312.2C750.073 315.129 751.049 315.901 754.909 315.606C759.859 315.22 767.035 315.242 774.21 316.037Z" fill="#0E141B"/>
<path d="M752.412 317.787C750.89 323.373 746.213 326.87 738.924 325.78C734.201 325.076 731.726 326.234 729.592 330.661C725.028 340.039 704.955 347.283 680.568 349.621C666.967 350.916 663.448 349.531 655.387 342.083C650.119 337.201 646.372 334.476 640.173 332.115C627.685 327.369 616.99 309.681 613.857 297.873C610.996 287.088 611.654 274.122 616.309 266.72C619.125 262.247 622.644 260.203 626.55 259.477C633.248 258.228 640.877 254.322 645.192 250.825C650.073 246.852 658.974 247.102 665.173 251.688L660.019 253.21C655.75 251.211 650.777 251.711 647.417 254.459C642.853 258.16 634.497 262.565 627.367 263.904C624.233 264.495 622.462 265.653 620.192 269.24C617.036 274.236 615.491 285.907 618.398 296.897C621.032 306.774 630.251 323.418 641.695 327.778C648.166 330.23 652.798 333.068 658.271 338.132C665.968 345.262 669.669 346.193 680.296 345.171C705.682 342.764 721.69 335.816 725.573 328.05C728.206 322.782 732.839 320.444 739.128 321.397C744.419 322.192 747.666 320.648 748.71 316.039L752.434 317.832L752.412 317.787Z" fill="#0E141B"/>
<path d="M715.309 278.775C715.695 281.795 716.808 284.929 718.602 286.723C726.004 288.04 733.77 287.29 737.085 285.61C744.714 281.727 753.025 284.384 754.546 293.149L750.527 293.035C749.346 288.176 744.646 286.359 738.379 289.516C733.951 291.741 725.209 292.308 718.125 291.173C716.286 290.878 716.059 290.833 715.082 289.652C713.47 287.699 712.335 284.838 711.767 282.227L715.287 278.775H715.309Z" fill="#0E141B"/>
<path d="M735.472 272.964C733.838 278.64 728.047 279.98 722.552 278.686C719.237 277.914 714.719 280.502 712.221 285.248C709.632 290.175 707.702 289.108 709.701 283.727C712.039 277.414 718.533 273.577 723.12 274.689C727.73 275.779 730.182 274.758 731.522 271.896L735.45 272.986L735.472 272.964Z" fill="#0E141B"/>
<path d="M656.204 249.621C670.645 244.24 689.991 241.969 702.548 241.311C712.493 240.789 716.603 239.449 720.009 237.542C727.253 233.477 738.356 236.52 743.238 245.875L738.016 245.307C734.451 240.198 726.821 238.314 721.621 241.402C717.194 244.013 711.79 245.33 702.707 245.807C691.195 246.397 675.981 248.123 662.448 252.346L656.204 249.621Z" fill="#0E141B"/>
<path d="M680.568 276.098C683.952 282.274 681.613 290.017 676.141 294.581C672.916 297.283 670.941 300.848 669.647 305.48C668.057 311.156 665.242 315.766 660.382 318.899C656 321.715 654.592 320.398 658.566 316.493C662.994 312.133 663.879 309.84 665.514 303.959C666.831 299.19 669.488 294.308 673.257 291.197C677.39 287.746 678.888 284.113 677.662 279.799L680.568 276.12V276.098Z" fill="#0E141B"/>
<path d="M92.561 677.139C97.3521 671.644 102.257 667.353 108.138 662.834C117.061 655.977 119.559 647.303 117.901 636.654C111.43 595.464 109.931 559.27 113.814 537.767C116.085 525.165 128.051 503.548 139.223 494.329C151.666 484.066 187.52 482.113 211.657 490.969C229.209 497.395 235.635 509.406 240.448 527.844C246.488 551.027 250.666 584.678 248.872 594.147C247.192 602.957 237.792 623.847 225.962 642.035C221.625 648.711 219.581 646.985 223.555 640.128C233.727 622.485 242.606 601.776 244.24 593.193C245.943 584.179 241.379 551.3 235.521 528.843C230.299 508.839 223.191 500.119 210.34 495.396C186.702 486.745 152.96 488.902 141.948 497.962C132.388 505.841 120.558 526.663 118.401 538.698C114.564 559.928 115.949 595.214 122.375 636.131C124.418 649.165 119.922 659.405 110.567 666.467C106.389 669.623 104.051 671.44 100.872 674.142L92.561 677.162V677.139Z" fill="#0E141B"/>
<path d="M208.137 601.095C210.272 595.918 211.43 592.103 213.019 585.404C214.222 580.295 217.083 581.067 216.107 586.222C214.79 593.102 213.201 597.121 210.748 602.389C207.933 608.474 205.412 607.725 208.137 601.117V601.095Z" fill="#0E141B"/>
<path d="M80.6629 715.286C78.9826 700.277 82.2069 686.972 88.4512 679.433C93.5829 673.211 101.689 670.214 109.977 671.122C114.064 671.577 119.355 676.708 121.898 682.793C124.623 689.31 123.851 693.261 117.879 696.803C107.184 703.139 97.9652 709.178 86.3168 717.534C81.9572 720.645 81.1852 720.009 80.6629 715.264V715.286ZM91.2668 682.385C85.7719 689.106 83.1833 701.867 84.2505 714.537C96.2623 705.909 105.072 700.028 115.994 693.534C119.582 691.399 120.127 689.31 118.06 684.338C116.153 679.774 111.952 675.482 109.273 675.21C101.916 674.483 96.5574 675.913 91.2895 682.385H91.2668Z" fill="#0E141B"/>
<path d="M139.609 728.592C134.205 720.418 130.186 709.496 129.096 699.255C128.051 689.492 141.652 674.006 153.074 674.006C162.179 674.142 169.377 681.953 173.328 691.558C175.122 695.918 174.668 697.984 172.079 701.64C165.585 710.768 154.754 722.711 145.603 729.501C142.493 731.794 141.584 731.59 139.609 728.615V728.592ZM153.074 678.138C145.376 678.07 132.229 690.854 133.092 698.847C134.182 709.042 137.588 718.828 142.924 726.798C151.961 720.373 162.542 708.361 168.832 699.505C170.603 697.03 170.694 695.895 169.627 693.352C166.425 685.541 160.476 678.184 153.051 678.138H153.074Z" fill="#0E141B"/>
<path d="M129.186 700.118C127.007 688.083 132.842 675.844 145.104 667.579C149.94 664.31 151.257 666.33 146.716 669.986C137.542 677.411 133.024 684.223 132.57 692.942L129.186 700.118Z" fill="#0E141B"/>
<path d="M130.481 694.667C127.03 693.782 122.783 693.464 119.241 693.827L121.308 689.536C124.191 689.331 127.915 689.581 131.071 690.285L130.504 694.69L130.481 694.667Z" fill="#0E141B"/>
<path d="M207.569 671.599C214.972 671.781 225.644 682.544 226.37 695.328C227.12 708.543 221.375 726.208 213.746 734.224C210.839 737.289 209.908 737.221 207.706 733.247C202.256 723.415 195.217 713.152 189.836 706.794C186.634 703.002 186.361 701.027 187.202 696.259C188.905 686.722 200.167 671.418 207.569 671.599ZM207.706 675.755C203.868 675.641 192.719 688.538 191.198 696.962C190.585 700.368 190.767 701.935 192.969 704.546C198.578 711.177 205.934 722.28 211.066 731.726C218.105 723.96 223.078 708.338 222.351 695.6C221.715 684.565 212.36 675.868 207.706 675.732V675.755Z" fill="#0E141B"/>
<path d="M190.676 705.704C185.635 701.049 177.415 699.982 169.718 702.593L171.943 697.62C178.119 696.19 184.273 696.871 189.109 699.641L190.676 705.704Z" fill="#0E141B"/>
<path d="M182.57 699.641C181.003 694.055 180.912 688.151 182.138 683.042C183.364 678.001 185.794 678.455 184.908 683.564C183.955 689.105 184.522 694.781 186.566 700.64L182.547 699.641H182.57Z" fill="#0E141B"/>
<path d="M276.869 714.129C264.971 706.318 254.027 701.05 244.921 698.779C239.472 697.417 238.246 695.328 238.564 690.264C239.336 678.252 252.846 668.852 259.567 668.738C268.264 668.738 280.389 693.874 282.41 711.812C282.955 716.604 281.729 717.33 276.847 714.151L276.869 714.129ZM259.658 672.894C253.573 672.962 243.173 682.226 242.628 690.537C242.446 693.352 243.059 694.419 245.898 695.123C257.728 698.075 269.535 704.819 278.709 710.904C276.552 695.237 264.653 672.871 259.658 672.916V672.894Z" fill="#0E141B"/>
<path d="M243.786 698.005C237.746 696.984 230.208 697.12 224.486 698.142L224.213 693.805C229.186 692.942 235.771 692.783 240.812 693.373L243.786 697.983V698.005Z" fill="#0E141B"/>
<path d="M229.913 632.951C227.687 646.076 231.729 651.525 243.15 660.199C251.847 660.926 259.885 665.353 265.221 672.642L258.409 671.189C254.458 667.442 249.395 665.331 243.4 664.74C241.924 664.604 241.402 664.491 240.335 663.696C230.458 656.135 224.622 650.322 225.167 640.104L229.913 632.951Z" fill="#0E141B"/>
<path d="M431.478 642.238C435.452 642.375 441.764 653.864 442.468 661.175C443.013 666.761 440.515 668.283 435.27 666.897C430.615 665.671 422.94 664.468 413.154 663.787C409.203 663.514 408.726 662.561 411.269 659.132C416.287 652.365 426.573 642.079 431.478 642.261V642.238ZM431.046 646.303C428.185 646.121 419.602 653.932 414.584 660.449C423.122 660.789 429.525 661.607 436.042 663.106C438.244 663.605 438.63 663.037 438.449 661.198C437.927 655.703 432.545 646.394 431.024 646.303H431.046Z" fill="#0E141B"/>
<path d="M427.391 644.896C437.564 628.093 446.26 606.431 446.26 601.322C446.26 596.213 444.33 588.538 441.106 581.136L444.83 578.684C448.826 587.062 450.938 595.895 450.938 601.526C450.938 607.158 442.514 628.57 433.022 644.737L427.391 644.873V644.896Z" fill="#0E141B"/>
<path d="M575.119 699.891C567.445 695.94 555.228 692.08 544.17 690.195C537.608 689.083 536.473 686.63 537.563 682.293C540.447 670.736 551.187 663.879 563.812 667.148C573.121 669.555 581.318 685.45 580.274 697.53C579.91 701.48 579.161 701.98 575.119 699.914V699.891ZM541.582 683.065C541.105 684.95 541.468 685.858 544.988 686.471C556.568 688.447 568.83 692.398 576.709 696.576C577.617 686.948 569.216 672.689 562.812 671.031C551.8 668.17 543.512 675.413 541.605 683.065H541.582Z" fill="#0E141B"/>
<path d="M609.474 694.76C598.961 691.218 590.378 689.469 582.294 689.242C576.186 689.06 574.302 686.199 574.302 682.862C574.302 673.302 582.726 662.267 596.827 663.924C603.434 664.696 616.672 681.181 614.492 692.648C613.925 695.691 612.857 695.918 609.451 694.782L609.474 694.76ZM578.434 682.93C578.434 684.247 578.798 685.359 582.59 685.473C591.15 685.723 600.233 687.516 611.109 691.422C612.585 683.883 601.141 668.556 596.214 667.966C585.996 666.763 578.434 674.46 578.434 682.907V682.93Z" fill="#0E141B"/>
<path d="M612.699 686.29C619.329 686.699 628.048 688.402 635.201 692.308C639.015 694.374 640.423 693.806 639.924 689.855C638.13 675.823 627.685 656 617.263 652.367C605.205 648.166 596.895 656.613 595.328 665.378L599.552 666.945C600.414 660.905 606.818 653.003 615.946 656.204C623.189 658.725 633.77 676.413 635.973 688.448C628.025 684.133 618.693 682.476 611.382 682.408L612.653 686.268L612.699 686.29Z" fill="#0E141B"/>
<path d="M618.171 654.863C620.714 650.322 628.525 647.234 633.929 648.051C644.579 649.709 655.114 665.853 656.931 678.432C657.453 682.179 656.091 682.61 652.821 681.725C647.394 680.272 641.74 679.386 635.087 678.955L633.498 674.981C640.968 675.39 647.19 676.139 653.116 678.001C651.686 668.578 642.081 653.478 633.498 652.138C629.638 651.525 622.826 654.432 621.577 657.452L618.216 654.863H618.171Z" fill="#0E141B"/>
<path d="M563.244 669.374C560.269 666.672 558.044 664.901 554.661 662.743C549.62 659.542 550.914 657.339 556.159 660.223C560.95 662.834 565.991 666.535 570.442 671.168L563.244 669.374Z" fill="#0E141B"/>
<path d="M595.169 666.104C591.241 662.743 586.132 659.201 580.637 655.977C574.87 652.594 576.278 650.255 582.113 653.525C588.13 656.885 595.283 661.268 599.529 664.923L595.169 666.104Z" fill="#0E141B"/>
<path d="M614.515 654.228C611.7 652.366 609.542 651.345 606.046 650.868C600.732 650.141 595.305 648.211 592.149 645.759C586.813 641.604 588.085 639.605 593.761 643.307C597.031 645.441 601.572 646.871 606.477 647.553C611.949 648.325 617.626 650.89 621.577 654.705L614.538 654.228H614.515Z" fill="#0E141B"/>
<path d="M577.231 613.197C578.911 620.576 582.408 627.025 586.45 630.408C591.377 634.518 601.005 638.242 611.495 640.263C623.938 642.647 631.885 645.372 640.264 650.685L631.545 650.322C625.482 647.529 620.555 646.28 610.655 644.531C599.551 642.579 588.834 638.128 583.521 633.7C578.82 629.795 575.8 624.504 573.666 616.285L577.254 613.174L577.231 613.197Z" fill="#0E141B"/>
<path d="M557.59 487.312C579.025 514.968 599.869 564.582 596.872 585.177C595.192 596.666 586.404 608.996 572.099 619.736C566.264 624.118 564.334 621.711 570.283 616.83C583.18 606.271 590.741 593.851 592.104 584.427C594.488 568.056 578.253 523.279 556.273 493.102L557.567 487.289L557.59 487.312Z" fill="#0E141B"/>
<path d="M543.285 689.309C521.85 687.47 486.587 681.066 459.362 672.188C452.096 669.827 444.421 667.579 437.019 667.034L440.538 662.742C447.35 663.582 454.503 665.649 461.065 667.783C486.678 676.139 519.875 682.724 539.357 684.586L543.262 689.309H543.285Z" fill="#0E141B"/>
<path d="M406.16 374.803C404.162 375.916 402.391 378.164 401.892 381.002C401.074 376.392 398.304 370.466 396.737 367.105C400.03 369.966 402.686 372.237 406.16 374.803Z" fill="#0E141B"/>
<path d="M442.513 486.291C444.012 481.636 443.558 465.287 440.947 464.584C438.721 463.97 430.025 475.801 428.753 479.207C427.096 483.612 428.867 487.267 432.727 489.129C436.837 491.105 441.401 489.765 442.513 486.291Z" fill="white"/>
<path d="M494.807 472.962C493.081 473.052 488.063 483.861 488.176 487.812C488.267 491.036 490.628 493.216 493.762 493.011C496.85 492.83 499.529 490.037 499.825 487.244C500.233 483.089 496.509 472.871 494.807 472.962Z" fill="white"/>
<path d="M246.67 287.996C251.03 288.178 252.211 285.521 249.509 281.752C240.971 269.854 223.214 258.614 208.455 259.045C194.241 259.454 181.071 269.445 180.549 276.166C179.981 283.546 188.496 292.81 193.605 296.216C198.714 299.622 207.638 298.782 213.473 295.466C224.917 288.95 232.206 287.428 246.67 287.996Z" fill="white"/>
<path d="M494.943 473.576C493.808 480.093 493.172 488.04 493.626 493.058C490.629 493.058 487.541 489.63 488.154 486.269C488.767 482.909 491.514 475.779 494.943 473.576Z" fill="#DCDDDD"/>
<path d="M441.151 464.424C437.359 473.234 434.543 482.771 433.998 489.469C428.435 488.493 426.71 482.907 429.843 476.867C432.454 471.849 438.426 464.606 441.128 464.447L441.151 464.424Z" fill="#DCDDDD"/>
<path d="M186.725 289.404C204.777 271.261 228.687 272.669 250.667 286.543C249.236 287.882 246.352 288.132 243.877 287.882C236.044 287.11 222.76 289.04 215.017 294.467C204.482 301.87 195.058 300.167 186.725 289.404Z" fill="#DCDDDD"/>
<path d="M432.069 490.696C427.187 488.334 425.188 483.861 427.141 478.639C428.526 474.937 438.018 461.995 441.265 462.858C445.397 463.97 445.602 482.204 444.103 486.904C442.672 491.377 436.791 492.966 432.069 490.696ZM440.515 466.286C439.335 465.991 431.524 476.618 430.32 479.819C429.139 482.953 430.32 486.132 433.544 487.698C437.087 489.401 440.129 488.016 440.856 485.746C442.332 481.159 441.696 466.604 440.515 466.286Z" fill="#0E141B"/>
<path d="M493.807 494.647C488.698 494.806 486.541 491.468 486.428 487.881C486.314 484.316 491.468 471.373 494.761 471.305C497.985 471.237 502.004 483.18 501.573 487.449C501.278 490.378 499.007 494.488 493.807 494.647ZM493.694 491.332C495.805 491.264 497.872 489.652 498.121 487.154C498.462 483.703 495.419 474.893 494.852 474.893C494.216 474.893 489.811 484.634 489.902 487.767C489.97 490.197 491.4 491.423 493.694 491.355V491.332Z" fill="#0E141B"/>
<path d="M246.602 289.675C232.706 289.175 225.667 290.719 214.382 297.168C206.003 301.936 196.988 301.119 192.311 298.008C187.225 294.625 177.756 284.929 178.414 276.142C179.028 268.24 193.128 257.522 208.319 257.091C224.509 256.705 242.469 268.989 250.825 280.638C254.731 286.087 252.506 289.902 246.557 289.675H246.602ZM246.716 286.269C249.781 286.405 249.894 285.202 248.123 282.749C239.926 271.328 221.602 260.61 208.455 260.974C194.15 261.405 182.774 271.759 182.434 276.391C182.002 282.068 189.132 290.674 194.581 294.307C198.873 297.168 206.094 297.372 212.361 293.807C223.351 287.54 232.047 285.61 246.693 286.246L246.716 286.269Z" fill="#0E141B"/>
<path d="M172.556 334.112C172.556 334.112 172.556 334.384 172.488 334.906C172.442 335.429 172.397 336.178 172.261 337.132C172.034 339.062 171.739 341.809 171.125 345.056C170.626 348.326 169.718 352.095 168.809 356.137C168.333 358.158 167.719 360.201 167.106 362.29C166.471 364.379 165.948 366.514 165.199 368.603C164.45 370.692 163.7 372.781 162.974 374.824C162.202 376.868 161.498 378.889 160.612 380.773C159.75 382.658 158.909 384.497 158.137 386.223C157.32 387.949 156.639 389.606 155.753 391.037C154.096 393.921 152.62 396.282 151.643 397.94C150.622 399.574 150.031 400.505 150.031 400.505C149.804 400.891 149.305 401.005 148.919 400.755C148.578 400.551 148.464 400.119 148.601 399.779V399.711C148.601 399.711 149.055 398.689 149.781 396.918C150.553 395.169 151.598 392.649 152.938 389.697C153.687 388.244 154.141 386.518 154.845 384.793C155.503 383.044 156.207 381.205 156.934 379.32C157.729 377.458 158.342 375.437 159 373.394C159.681 371.373 160.385 369.329 161.089 367.263C161.793 365.197 162.361 363.108 163.019 361.064C163.655 359.021 164.268 357 164.881 355.07C165.948 351.141 167.152 347.508 167.969 344.352C168.401 342.786 168.832 341.332 169.218 340.061C169.581 338.789 169.877 337.677 170.126 336.746C170.649 334.906 170.944 333.839 170.944 333.839C171.057 333.408 171.511 333.158 171.943 333.271C172.329 333.385 172.556 333.726 172.533 334.112H172.556Z" fill="#0E141B"/>
<path d="M457.591 423.416C457.591 423.416 455.933 426.118 449.916 425.164L460.611 428.184C460.611 428.184 458.817 425.21 457.591 423.416Z" fill="#0E141B"/>
</g>
<defs>
<clipPath id="clip0_42_65235">
<rect width="720" height="652.403" fill="white" transform="translate(60 84)"/>
</clipPath>
</defs>
</svg>
