<svg width="800" height="800" viewBox="0 0 800 800" fill="none" xmlns="http://www.w3.org/2000/svg">
<g clip-path="url(#clip0_42_65406)">
<path d="M404.153 660.803C398.076 666.881 387.788 681.252 395.907 685.984C404.739 691.128 429.129 689.815 429.794 683.072C430.475 676.33 430.855 667.007 430.855 667.007L404.153 660.803Z" fill="#837AA1"/>
<path d="M419.744 664.428C420.408 672.437 418.62 682.139 414.663 689.119C422.245 689.119 429.446 686.571 429.794 683.073C430.475 676.33 430.855 667.008 430.855 667.008L419.76 664.428H419.744Z" fill="#675F80"/>
<path d="M450.591 530.857L424.223 559.632C422.197 565.029 421.69 575.096 423.036 587.251C424.381 599.391 420.946 624.24 418.256 631.663C415.549 639.087 405.024 650.419 403.204 656.481C402.064 660.248 404.153 668.225 416.974 668.906C429.794 669.586 433.846 666.88 435.872 660.137C437.898 653.395 436.505 633.246 441.902 619.08C447.299 604.915 454.089 584.576 460.832 573.766L450.591 530.857Z" fill="#FAF2AC"/>
<path d="M460.832 573.75L450.592 530.842L424.223 559.616C422.197 565.014 421.691 575.08 423.036 587.236C423.653 592.744 423.273 600.863 422.435 608.777C431.314 610.391 435.935 627.596 437.835 639.625C438.452 632.708 439.512 625.301 441.887 619.049C447.284 604.883 454.074 584.545 460.816 573.735L460.832 573.75Z" fill="#D4CE93"/>
<path d="M454.359 560.282C454.359 560.282 458.6 569.257 454.612 570.792C463.301 572.565 454.643 573.736 459.265 575.936C463.412 577.914 467.495 577.439 468.762 579.339C470.028 581.254 471.864 583.707 477.593 582.852C483.307 581.998 488.673 581.871 486.773 576.996C484.874 572.121 451.826 543.109 454.359 560.267V560.282Z" fill="#EA5506"/>
<path d="M320.963 692.347L346.668 691.967C349.358 697.364 353.742 711.182 350.371 715.233C347 719.285 329.241 732.327 323.844 730.301C318.447 728.275 311.704 726.249 313.73 718.826L320.963 692.347Z" fill="#837AA1"/>
<path d="M346.683 691.967L335.604 692.125C335.192 705.5 331.932 718.763 325.079 730.507C331.362 730.729 347.221 719.001 350.371 715.218C353.742 711.166 349.374 697.348 346.667 691.951L346.683 691.967Z" fill="#675F80"/>
<path d="M283.516 563.668C284.196 565.694 307.669 606.83 310.375 623.686C313.066 640.558 317.292 687.63 322.689 695.053C328.513 703.062 349.248 694.182 350.989 687.345C353.458 677.611 346.145 672.958 344.12 658.792C342.094 644.626 339.403 627.073 337.377 620.331L283.531 563.684L283.516 563.668Z" fill="#FAF2AC"/>
<path d="M344.104 658.776C342.078 644.611 339.387 627.058 337.361 620.315L304.677 584.656C304.677 584.656 289.451 575.951 284.101 567.451C285.288 569.43 307.114 607.954 309.821 624.826C310.866 631.347 312.148 640.97 312.971 652.129C325.902 663.92 346.905 684.75 340.701 695.734C345.417 694.151 350.245 691.191 351.163 687.535C353.632 677.801 346.114 672.942 344.088 658.776H344.104Z" fill="#D4CE93"/>
<path d="M491.87 448.254C501.066 442.287 509.138 429.34 508.062 415.191C506.812 398.603 507.381 390.895 514.14 385.498C512.794 390.895 513.396 402.386 518.112 398.35C522.829 394.298 518.856 390.23 521.547 381.462C524.254 372.694 530.316 371.348 530.316 371.348C530.316 371.348 527.625 376.065 527.625 379.452C527.625 382.839 531.882 381.399 531.202 385.451C530.411 390.199 538.166 392.225 541.791 383.504C545.162 375.4 551.24 374.055 563.379 374.735C575.519 375.416 583.069 379.167 594.417 394.979C602.616 406.406 611.954 411.17 622.084 405.093C632.198 399.015 622.163 389.249 636.107 385.071C633.907 389.249 632.878 395.644 638.94 397.669C645.002 399.695 648.389 394.963 649.735 389.566C651.08 384.169 646.364 382.143 647.709 377.426C649.054 372.709 656.873 370.668 659.643 368.562C656.746 376.207 658.741 381.794 661.606 379.088C665.198 375.701 667.984 371.712 675.36 375.416C669.377 376.508 662.539 383.52 665.246 387.556C667.937 391.607 665.847 395.612 667.794 400.218C670.39 406.39 678.24 400.186 677.56 393.443C676.879 386.701 679.617 380.591 688.924 379.642C685.489 383.994 684.144 390.927 685.489 397.669C686.835 404.412 684.698 410.426 676.04 411.835C666.591 413.37 655.797 419.939 657.823 427.362C659.849 434.785 661.748 438.473 670.991 435.83C668.491 438.331 667.794 445.975 657.807 446.64C647.915 447.305 641.963 441.623 636.835 446.118C631.438 450.834 631.517 458.4 625.439 461.091C619.362 463.781 607.38 463.845 608.741 467.216C609.754 469.733 618.333 471.331 627.339 466.425C620.485 474.465 627.418 478.406 615.326 480.654C602.996 482.949 596.427 468.514 589.004 474.576C581.581 480.654 581.581 488.077 576.865 488.741C572.148 489.422 562.699 481.318 561.353 484.69C560.008 488.061 560.673 492.793 567.431 494.803C563.379 498.175 553.93 497.494 551.904 491.432C549.878 485.354 547.599 479.482 539.496 484.199C533.465 487.729 523.051 491.622 510.088 482.743L491.854 448.239L491.87 448.254Z" fill="#FFE100"/>
<path d="M688.892 380.101C679.586 381.051 676.911 386.669 677.591 393.412C678.272 400.154 670.406 406.375 667.826 400.186C665.895 395.58 667.984 391.56 665.278 387.524C662.571 383.472 669.409 376.461 675.391 375.384C668.016 371.681 665.23 375.669 661.637 379.056C658.772 381.763 656.762 377.363 659.532 368.404C657.031 370.778 649.07 372.678 647.725 377.41C646.379 382.127 651.096 384.153 649.751 389.55C648.405 394.947 645.034 399.664 638.956 397.654C632.878 395.644 633.923 389.233 636.123 385.055C623.778 388.759 630.204 396.831 624.854 402.845C612.16 418.689 635.189 426.887 619.488 427.742C609.232 428.312 613.331 423.5 608.361 423.643C603.376 423.785 600.891 430.765 595.826 430.354C590.413 429.91 579.492 416.362 584.747 411.978C580.948 405.568 572.892 420.43 566.703 412.832C560.293 404.95 569.869 395.058 557.903 395.928C562.272 401.183 544.782 404.681 548.866 414.589C552.949 424.513 563.743 427.125 560.815 435.007C557.887 442.889 557.602 447.542 546.523 445.801C543.785 445.374 531.36 436.764 525.52 439.09C536.9 451.04 517.068 447.257 520.566 452.211C524.064 457.165 521.341 464.573 516.799 467.137C512.62 469.511 509.281 470.382 505.814 474.212C507.002 476.143 508.236 480.749 510.072 481.999C522.892 490.767 530.094 489.201 538.182 484.484C546.396 479.688 549.182 483.265 551.904 491.448C553.93 497.526 563.379 498.191 567.431 494.819C560.689 492.793 560.008 488.077 561.353 484.706C562.699 481.334 572.148 489.422 576.865 488.757C581.581 488.077 581.581 480.654 589.004 474.592C596.427 468.514 602.743 483.36 615.072 481.065C627.165 478.818 620.216 477.377 626.816 466.298C619.393 470.35 610.609 470.54 609.264 467.169C607.918 463.797 619.377 463.797 625.455 461.091C631.533 458.384 631.85 450.961 637.247 446.244C641.837 442.224 649.292 446.909 657.854 446.244C666.401 445.58 669.567 438.457 670.754 436.083C663.426 438.71 659.295 432.633 657.854 427.346C655.828 419.923 666.623 413.355 676.072 411.819C684.73 410.411 686.866 404.396 685.521 397.654C684.176 390.911 684.967 383.061 688.892 380.117V380.101Z" fill="#EA5506"/>
<path d="M349.596 494.137L312.021 475.936L266.39 381.35L308.46 370.191C307.115 372.217 305.421 376.507 309.03 381.445C312.955 386.826 315.851 379.181 323.385 383.012C320.267 385.465 319.159 390.894 314.427 391.574C309.71 392.255 303.221 386.858 303.221 390.229C303.221 393.6 311.736 397.652 313.762 398.333C315.788 399.013 312.417 401.039 313.082 405.075C313.762 409.127 315.107 409.57 322.531 409.57C329.954 409.57 324.557 413.844 322.531 418.576C320.505 423.293 328.102 420.349 327.516 425.92C327.026 430.621 335.842 431.967 336.506 422.692C337.124 413.891 333.436 410.045 343.233 406.785C341.587 412.53 340.764 415.189 343.455 420.586C346.161 425.984 335.351 425.303 340.083 432.726C344.8 440.149 348.124 443.267 349.533 436.778C350.941 430.225 352.334 423.958 358.982 423.958C353.584 428.01 360.58 430.447 359.029 436.477C357.826 441.178 369.776 447.573 371.802 439.485C365.059 432.742 373.147 427.345 376.519 423.293C379.89 419.241 380.127 416.455 380.127 416.455C380.127 416.455 382.644 425.24 380.618 427.93C378.592 430.621 387.313 430.7 387.313 430.7C387.313 430.7 381.235 438.123 386.632 438.123C390.304 438.123 400.608 432.188 390.653 425.398C396.572 422.707 398.282 428.405 405.024 428.405C411.767 428.405 410.231 422.739 410.057 415.727C409.851 408.146 417.702 408.558 421.627 408.953C429.13 409.713 425.093 398.982 425.093 398.982C425.093 398.982 434.543 404.379 430.491 408.431C426.439 412.483 422.957 420.713 427.009 420.713C431.06 420.713 430.491 413.828 436.568 410.457C442.646 407.086 449.136 405.962 451.415 413.163C454.881 424.116 459.867 414.968 465.881 412.15C469.427 410.488 473.004 412.483 473.004 412.483C470.994 413.86 463.444 419.257 469.632 424.623C472.861 427.424 477.055 421.932 477.055 417.88C477.055 413.828 483.133 413.828 487.85 415.854C480.506 417.595 478.338 421.774 483.133 425.968C491.854 433.613 503.25 441.843 467.511 455.344L349.627 494.106L349.596 494.137Z" fill="#EA5506"/>
<path d="M204.425 380.861L193.536 354.508C181.396 345.739 171.662 342.938 171.947 346.895C172.928 360.68 177.408 376.112 192.46 391.94L204.441 380.861H204.425Z" fill="#FAF2AC"/>
<path d="M202.652 376.585C199.566 369.131 193.52 354.506 193.52 354.506C181.728 345.991 172.248 343.126 171.947 346.576C184.197 354.316 193.045 365.553 202.636 376.585H202.652Z" fill="#D4CE93"/>
<path d="M253.57 454.664C256.941 461.407 261.784 476.586 263.81 492.113C265.836 507.639 269.16 531.824 271.914 542.049C275.238 554.442 287.298 579.275 310.913 587.379C334.528 595.483 380.555 581.19 396.066 572.422C411.577 563.653 443.976 551.498 466.91 544.075C489.86 536.651 511.449 516.408 512.794 499.536C514.139 482.663 521.737 476.269 499.356 452.29C480.458 432.047 459.803 429.419 439.908 435.434C410.896 444.202 369.633 465.427 348.282 462.088C326.234 458.637 316.358 452.528 302.255 426.665C290.116 404.396 282.692 363.244 255.706 359.873C228.72 356.502 201.054 376.065 196.321 384.168C191.605 392.272 185.337 405.156 188.708 416.631C190.766 423.642 192 423.231 192.57 427.378C193.235 432.237 192.95 441.559 191.858 449.631C189.895 464.034 190.734 472.518 197.493 479.276C204.235 486.019 210.978 490.039 213.463 488.472C216.691 486.446 232.725 482.141 233.959 478.802C238.787 465.744 253.57 454.664 253.57 454.664Z" fill="#FAF2AC"/>
<path d="M433.672 541.716C417.544 558.857 325.744 614.476 269.556 534.198C270.252 537.316 271.281 539.928 271.898 542.048C275.792 555.565 283.5 577.977 310.897 587.379C334.512 595.482 379.637 579.37 396.05 572.422C410.121 566.47 440.019 552.985 462.557 545.499C460.231 537.775 441.396 520.254 441.396 520.254C440.747 528.405 440.003 535.005 433.672 541.732V541.716Z" fill="#D4CE93"/>
<path d="M250.926 448.333C233.975 462.134 236.682 463.369 226.742 474.749C216.755 486.192 207.701 485.955 207.163 486.604C209.949 488.472 212.18 489.279 213.462 488.472C217.071 486.208 231.142 483.612 233.848 478.215C236.555 472.818 240.623 466.028 244.595 461.802C248.552 457.576 253.57 454.411 253.57 454.411C256.878 461.042 261.531 475.889 263.683 491.273C265.852 479.481 270.458 478.089 274.367 468.418C278.276 458.747 280.35 447.921 280.587 420.967C268.384 435.94 262.275 439.121 250.926 448.349V448.333Z" fill="#D4CE93"/>
<path d="M494.925 672.975C492.234 677.027 485.761 685.384 483.735 690.1C481.709 694.817 481.266 702.398 488.673 703.744C497.916 705.421 517.97 704.899 522.228 697.223C525.599 691.145 525.219 681.047 523.193 673.624L494.909 672.959L494.925 672.975Z" fill="#837AA1"/>
<path d="M523.193 673.622L506.242 673.227C513.269 682.09 510.183 692.774 506.258 702.982C513.554 702.159 520.487 700.371 522.228 697.221C525.599 691.143 525.219 681.045 523.193 673.622Z" fill="#675F80"/>
<path d="M441.19 519.366C444.752 546.463 441.586 554.662 465.549 570.394C487.138 584.56 503.789 597.143 503.108 605.231C502.427 613.335 502.348 638.801 499.547 643.613C492.567 655.578 490.794 676.503 497.932 674.302C507.951 671.216 514.836 679.241 520.914 675.869C526.485 672.783 528.416 666.531 523.684 651.337C519.442 637.741 536.583 599.644 537.739 588.612C539.084 575.792 522.212 556.229 516.815 541.382C511.417 526.536 523.177 491.81 515.754 474.273C508.331 456.736 484.036 436.335 471.215 434.309L441.159 519.382L441.19 519.366Z" fill="#FAF2AC"/>
<path d="M506.495 517.167C509.439 533.121 511.275 533.058 516.498 540.291C511.971 524.97 522.94 492.587 515.691 475.461C512.874 468.798 507.619 461.549 501.509 454.996C507.761 475.081 503.567 501.213 506.495 517.167Z" fill="#D4CE93"/>
<path d="M530.853 590.655C515.738 631.3 519.932 649.027 518.255 660.787C516.577 672.547 512.43 672.926 509.043 674.683C512.905 675.918 516.545 677.437 520.138 676.044C526.279 673.67 527.276 670.568 523.905 650.325C520.534 630.081 536.425 601.401 537.77 588.597C538.356 583.026 532.8 585.479 530.869 590.655H530.853Z" fill="#D4CE93"/>
<path d="M288.09 709.377C284.038 715.455 279.986 726.249 281.347 732.311C282.693 738.389 287.425 751.874 296.874 749.183C306.323 746.493 317.118 737.708 318.463 732.311C319.808 726.914 318.02 718.256 318.02 718.256L288.106 709.377H288.09Z" fill="#837AA1"/>
<path d="M318.004 718.256L307.13 715.027C307.035 725.806 306.339 737.503 301.464 747.442C309.52 743.739 317.323 736.854 318.447 732.311C319.792 726.914 318.004 718.256 318.004 718.256Z" fill="#675F80"/>
<path d="M305.152 530.479C302.461 538.582 305.643 594.675 306.988 604.805C308.333 614.919 304.282 639.214 300.91 650.689C297.539 662.164 295.513 686.444 292.142 691.176C288.77 695.893 280.002 707.368 291.461 716.136C302.936 724.905 319.128 722.214 321.818 712.084C324.509 701.955 322.499 681.046 325.87 668.907C329.242 656.767 337.345 635.843 338.01 628.42C338.691 620.997 365.677 580.51 369.048 560.947L305.136 530.479H305.152Z" fill="#FAF2AC"/>
<path d="M321.834 712.067C324.541 701.953 322.515 681.029 325.886 668.89C328.45 659.63 333.752 645.306 336.443 635.715C320.631 656.591 314.569 680.111 316.674 700.687C317.798 711.751 316.247 714.552 313.509 720.298C317.624 718.857 320.789 716.056 321.85 712.067H321.834Z" fill="#D4CE93"/>
<path d="M294.167 372.678C317.26 368.483 334.132 373.453 346.889 352.925C339.545 356.597 330.761 357.642 323.148 356.549C386.68 340.627 392.52 281.289 380.649 260.935C379.177 268.975 376.487 274.151 376.487 274.151C376.487 274.151 375.173 258.909 369.064 251.217C369.902 268.944 366.468 275.544 354.217 282.935C355.879 278.551 356.465 268.77 351.748 266.063C353.094 270.78 345.987 281.59 335.082 286.085C324.683 290.374 306.45 283.046 285.7 281.036C264.222 278.947 245.434 290.659 238.85 303.179C237.505 296.436 241.461 285.768 243.487 282.397C207.986 302.198 191.557 339.661 192.966 361.883C194.976 393.729 215.473 404.776 224.336 406.723C224.336 406.723 222.12 398.952 224.273 388.854C231.015 386.828 247.967 383.187 268.21 352.149L294.183 372.678H294.167Z" fill="#FFE100"/>
<path d="M369.238 304.887C365.645 311.598 359.092 306.612 362.527 296.926C349.406 301.136 356.592 317.85 339.419 324.403C322.246 330.955 319.128 325.495 328.482 319.1C311.309 320.81 314.427 331.478 307.241 332.222C302.018 332.76 299.723 322.503 294.595 322.693C289.562 322.883 295.418 328.945 290.385 330.655C286.634 331.937 280.081 332.681 279.923 327.22C276.077 328.455 275.871 336.748 279.923 340.341C276.979 342.114 269.777 337.682 266.501 334.564C263.225 331.446 259.473 343 261.357 347.527C263.225 352.054 252.921 349.553 251.67 347.052C247.539 355.298 260.407 359.857 244.311 379.166C251.275 373.911 259.426 365.602 268.194 352.164L294.167 372.693C316.437 368.641 335.288 373.136 347.158 352.513C338.785 356.691 331.394 357.704 323.322 356.549C377.025 342.035 384.147 303.779 385.208 289.281C382.216 294.821 372.831 298.192 369.238 304.903V304.887Z" fill="#EA5506"/>
<path d="M257.21 367.787L267.704 353.495C271.914 351.39 312.67 339.693 312.211 343.745C310.502 358.829 287.71 392.731 281.917 397.733L257.194 367.771L257.21 367.787Z" fill="#FAF2AC"/>
<path d="M260.993 368.657C256.799 374.529 271.233 368.198 282.708 397.479C290.163 392.082 308.903 359.794 311.246 348.968C313.208 339.883 265.219 362.738 260.993 368.642V368.657Z" fill="#D4CE93"/>
<path d="M267.704 368.514C280.524 358.748 297.998 350.201 304.076 350.201C305.12 357.498 286.792 379.419 280.334 387.475C275.776 368.973 267.688 368.514 267.688 368.514H267.704Z" fill="#EC6D82"/>
<path d="M296.494 366.488C301.606 358.97 304.345 352.496 304.091 350.818C293.629 350.818 275.016 362.088 267.466 367.849C267.466 367.849 268.922 368.593 270.695 369.78C278.561 366.329 287.773 365.855 296.478 366.504L296.494 366.488Z" fill="#CC5E71"/>
<path d="M242.237 421.125C242.237 424.18 240.702 426.649 238.818 426.649C236.935 426.649 235.399 424.18 235.399 421.125C235.399 418.071 236.935 415.602 238.818 415.602C240.702 415.602 242.237 418.071 242.237 421.125Z" fill="white"/>
<path d="M365.123 564.618C371.121 563.272 371.849 566.406 374.904 563.352C379.573 558.682 383.483 553.887 386.902 555.438C391.697 557.622 390.273 560.867 393.628 560.582C396.746 560.313 403.267 552.731 409.582 554.251C406.686 556.229 403.489 558.223 403.726 562.877C403.885 566.153 411.276 568.369 413.682 564.016C416.088 559.648 414.489 551.94 429.699 550.23C424.508 554.108 423.368 560.265 428.829 562.228C434.289 564.19 433.846 567.467 427.958 568.78C421.58 570.189 422.07 573.18 422.529 574.842C423.843 579.67 428.259 578.451 430.443 579.322C425.964 582.107 426.233 590.417 420.282 591.192C413.524 592.063 412.257 587.758 409.852 590.812C407.446 593.867 406.354 599.312 399.817 599.106C389.386 598.758 385.271 594.279 382.581 602.81C388.832 601.085 391.191 603.934 393.058 606.735C394.372 608.698 399.057 609.394 401.431 609.252C397.601 614.269 389.782 611.309 388.263 615.678C386.743 620.046 384.021 620.078 372.546 616.374C369.365 615.345 372.166 624.557 368.462 624.557C364.759 624.557 358.918 622.895 357.715 625.712C355.626 630.666 361.704 634.592 361.704 634.592C361.704 634.592 353.727 636.38 350.387 629.305C348.425 625.158 343.534 627.675 342.014 631.822C340.495 635.969 338.675 636.776 335.889 634.924C335.889 634.924 369.175 587.884 365.139 564.634L365.123 564.618Z" fill="#FFE100"/>
<path d="M422.134 574.827C421.928 574.099 417.924 579.37 413.128 577.597C410.58 576.663 405.42 570.902 402.761 572.659C408.3 575.571 401.463 579.813 399.105 580.889C396.177 582.203 391.555 579.417 389.355 577.629C379.273 569.367 381.868 579.307 373.654 578.468C365.439 577.629 372.245 569.288 372.008 564.587C369.602 565.315 369.903 563.495 363.587 565.252C365.344 566.803 363.793 573.102 362.147 579.512C360.485 585.923 353.569 587.996 352.018 592.428C350.466 596.875 351.084 602.763 348.915 605.343C346.747 607.923 341.35 611.547 338.786 615.584C333.942 623.197 333.942 634.561 333.942 634.561C337.567 636.634 340.574 636.951 342.109 632.804C343.629 628.657 348.377 624.748 350.34 628.895C353.679 635.969 361.72 634.592 361.72 634.592C361.72 634.592 355.642 630.667 357.731 625.713C358.918 622.896 363.698 624.368 367.402 624.384C368.557 622.263 368.953 611.737 363.698 616.407C358.444 621.076 354.677 611.69 357.842 610.107C362.59 606.942 372.451 612.608 372.087 599.028C373.242 595.546 376.819 606.768 383.942 600.262C387.297 596.147 394.214 598.901 399.849 599.091C406.385 599.313 407.477 593.852 409.883 590.798C412.289 587.743 412.938 591.668 419.696 590.798C426.455 589.927 425.584 580.541 430.823 579.022C428.639 578.151 423.479 579.655 422.165 574.827H422.134Z" fill="#EA5506"/>
<path d="M527.055 581.079C529.112 577.217 519.806 574.432 515.817 571.282C511.829 568.132 528.273 562.577 516.656 554.964C511.591 551.64 521.61 546.987 516.656 544.327C511.702 541.668 507.729 536.778 509.375 531.998C511.021 527.218 519.473 524.86 519.964 519.415C521.942 524.86 526.881 521.884 526.39 525.35C525.82 529.339 531.724 532.789 532.816 527.329C533.797 522.39 537.264 514.477 540.239 512.989C543.199 511.501 550.448 510.631 554.262 506.689C553.582 513.543 544.418 515.727 545.114 518.766C546.396 524.464 554.88 519.082 552.854 524.131C549.435 532.678 554.595 533.581 558.552 532.109C562.509 530.637 565.959 519.415 570.913 518.908C575.867 518.402 578.827 518.418 577.83 524.844C576.848 531.27 580.014 532.615 584.461 525.698C588.909 518.782 590.618 522.375 594.575 524.353C598.532 526.332 603.122 525.952 605.528 521.283C608.235 516.012 612.081 509.744 622.337 510.504C620.358 512.973 613.236 515.141 614.075 524.701C615.072 536.097 605.465 535.132 604.958 539.073C604.594 542.001 609.58 545.325 616.322 545.451C612.365 548.411 607.997 547.572 603.534 553.998C599.086 560.424 601.049 569.05 594.132 572.516C587.215 575.983 581.28 569.826 577.83 573.276C574.363 576.742 576.279 581.19 578.32 582.678C581.28 584.815 587.405 582.298 589.874 582.203C588.102 584.878 583.069 589.531 578.621 590.038C574.174 590.528 567.083 588.613 564.535 585.622C561.97 582.63 553.851 583.627 552.015 585.764C550.163 587.901 554.436 592.459 557.428 592.887C545.003 597.033 543.5 589.927 538.071 592.887C532.626 595.846 532.389 597.746 529.872 593.156C528.543 590.734 525.029 584.941 527.086 581.063L527.055 581.079Z" fill="#FFE100"/>
<path d="M516.45 554.789C516.45 554.789 516.577 554.899 516.656 554.963C528.258 562.576 511.829 568.147 515.817 571.281C519.806 574.431 529.112 577.201 527.055 581.078C524.997 584.956 528.511 590.749 529.84 593.171C532.373 597.776 532.61 595.877 538.039 592.902C543.484 589.942 544.244 597.302 556.668 593.155C553.993 591.509 550.131 587.916 551.983 585.779C553.835 583.642 561.955 582.645 564.503 585.637C567.067 588.628 574.142 590.543 578.589 590.053C583.037 589.562 587.928 584.766 589.463 582.345C586.155 582.598 580.884 584.576 578.289 582.693C576.247 581.205 573.92 576.9 577.371 573.434C580.837 569.967 587.184 575.982 594.1 572.531C601.017 569.065 599.055 560.439 603.502 554.013C607.95 547.587 612.065 548.553 616.022 545.593C610.435 545.213 605.275 543.076 604.911 539.863C601.619 547.555 597.187 541.351 595.208 543.187C591.41 546.685 589.368 552.525 584.129 555.723C578.874 558.936 578.589 552.32 579.46 551.639C593.167 541.145 576.548 539.689 570.422 544.643C564.297 549.597 562.888 556.419 560.799 556.894C556.209 557.954 550.59 557.764 552.933 548.727C547.931 550.294 548.564 560.107 541.553 562.433C534.557 564.76 536.836 554.789 534.256 555.438C530.489 556.387 529.239 559.046 525.504 558.651C520.85 558.144 521.072 555.343 516.419 554.789H516.45Z" fill="#EA5506"/>
<path d="M188.107 413.527C188.107 413.527 185.701 426.11 193.219 433.818C193.219 433.818 193.409 425.366 192.665 423.831C191.921 422.296 188.407 416.06 188.107 413.527Z" fill="#0E141B"/>
<path d="M347.68 691.461L345.67 692.458C351.163 704.471 351.368 711.989 347.95 715.392C330.539 732.724 321.47 729.479 319.238 725.997C319.238 726.788 319.824 729.131 319.824 729.938C322.435 733.911 335.762 733.452 350.371 716.864C354.233 712.48 354.344 704.788 347.68 691.461Z" fill="#0E141B"/>
<path d="M390.447 682.171C391.032 684.941 394.815 688.043 400.497 689.61C410.437 692.364 423.321 690.623 429.399 687.584C432.564 686.001 433.482 680.73 430.855 666.596L428.813 667.435C428.813 667.53 431.599 680.746 427.99 684.687C425.552 687.362 411.355 689.657 401.099 686.887C396.762 685.716 394.293 682.772 393.992 681.332C392.948 676.378 399.421 667.562 404.47 662.513L403.378 659.98C398.266 665.093 389.386 677.074 390.463 682.155L390.447 682.171Z" fill="#0E141B"/>
<path d="M459.234 574.891C452.459 586.033 440.842 618.67 440.842 618.67C437.392 627.707 436.679 638.913 436.109 647.903C435.777 653 435.508 657.4 434.78 659.806C431.725 669.999 411.751 669.397 405.388 661.594C404.154 659.283 404.897 656.023 406.749 652.588C408.696 648.964 417.449 637.79 419.538 632.044C422.229 624.653 425.331 600.753 424.255 588.186C424.144 589.325 422.735 590.386 421.643 590.845C422.134 603.57 418.762 624.526 416.309 631.284C414.315 636.777 406.306 647.318 404.454 650.752C401.7 655.849 400.545 659.964 402.349 663.335C410.358 672.848 433.862 673.212 437.423 661.357C438.215 658.714 438.23 653.506 438.579 648.046C439.148 639.198 440.304 628.182 443.628 619.461C443.628 619.461 456.559 586.065 462.557 576.901L459.234 574.891Z" fill="#0E141B"/>
<path d="M481.012 581.079C480.933 581.111 472.877 583.453 470.155 580.114C466.53 575.698 455.657 575.144 460.389 573.893C463.776 572.991 459.534 570.997 457.002 570.823C451.494 570.427 452.744 570.728 456.131 572.01C459.914 573.434 455.53 575.144 455.989 576.473C456.464 577.819 459.93 577.027 462.526 578.214C465.122 579.401 466.926 579.338 469.427 583.089C471.152 585.685 479.256 583.991 482.975 582.804L480.997 581.095L481.012 581.079Z" fill="#0E141B"/>
<path d="M289.767 573.213C287.979 571.044 283.943 568.987 282.012 566.977C288.818 578.99 303.3 606.641 307.304 619.857V611.848C302.508 599.74 294.848 582.82 289.767 573.213Z" fill="#0E141B"/>
<path d="M345.212 658.618C343.803 648.821 342.569 640.844 341.492 634.576C341.033 635.368 339.878 635.795 339.087 636.412C340.099 642.411 341.081 649.881 342.331 658.951C343.914 670.473 351.005 681.996 349.105 687.535C347.618 691.872 336.807 696.32 331.537 697.348C327.881 698.061 325.538 695.987 323.053 693.93C323.053 694.784 323.021 695.956 323.021 696.779C326.488 699.359 328.64 700.197 331.964 699.548C337.804 698.425 351.369 694.009 352.477 687.583C353.838 679.717 346.715 668.89 345.243 658.634L345.212 658.618Z" fill="#0E141B"/>
<path d="M684.919 379.736C677.67 381.809 676.072 384.927 676.926 393.474C677.322 397.415 674.505 401.277 671.83 401.958C670.326 402.338 669.171 401.641 668.443 399.932C667.604 397.954 668.015 395.279 668 393.427C667.936 387.586 664.027 386.969 666.148 383.25C667.461 380.955 669.772 378.027 673.27 376.919C676.831 375.795 677.512 375.193 674.283 373.785C667.699 370.92 666.353 372.788 662.254 377.536C660.529 379.546 657.981 379.942 659.152 373.674C660.592 366.029 662.254 365.238 656.271 368.53C651.903 370.936 646.3 373.896 645.477 376.776C644.591 379.91 649.038 385.94 648.69 388.599C648.357 391.258 646.632 394.677 644.401 395.896C641.409 397.542 636.661 396.656 635.521 393.838C634.445 391.148 635.141 388.726 636.598 386.352C638.798 382.759 637.547 382.648 633.464 384.104C628.826 385.75 627.133 388.647 626.595 393.11C626.183 396.513 625.123 401.895 620.802 404.475C611.685 409.935 603.28 404.269 594.623 392.208C581.423 373.801 575.566 373.12 563.949 372.471C551.999 371.806 545.351 372.993 541.759 381.588C538.83 388.631 532.642 389.517 532.531 386.605C532.404 383.44 532.594 382.458 531.217 381.461C530.109 380.654 528.305 380.638 528.305 379.419C528.305 377.663 529.002 376.048 529.856 374.307C532.658 368.657 533.053 367.454 528.701 369.986C521.262 374.291 519.505 381.445 519.869 389.375C520.186 396.276 517.701 398.476 515.785 397.289C513.997 396.181 513.411 390.958 514.994 386.209C516.925 380.401 516.118 381.129 513.396 383.313C506.131 389.122 505.244 398.602 506.811 413.781C507.967 424.892 502.411 438.061 492.566 446.228C492.962 446.576 494.387 447.288 494.577 447.826C500.654 443.79 511.006 432.236 508.441 405.646C507.666 397.51 509.423 391.385 513.126 387.381C512.193 391.559 511.813 397.906 514.44 399.536C515.137 399.964 517.194 400.676 518.793 399.299C521.088 397.336 521.293 394.313 521.293 392.145C521.293 381.794 523.035 375.716 528.875 372.645C528.052 374.37 526.928 377.14 526.928 379.435C526.928 381.335 528.321 382.348 529.54 383.234C530.853 384.184 529.92 389.85 533.781 390.309C536.472 390.625 540.192 389.043 542.392 383.74C545.684 375.827 551.762 374.734 563.332 375.383C574.759 376.016 582.246 379.166 593.863 395.342C602.996 408.067 612.508 412.024 622.337 406.136C627.228 403.208 627.782 398.856 628.193 395.437C628.652 391.654 629.127 388.362 634.936 386.178C633.4 389.913 633.29 391.955 634.255 394.329C635.759 398.08 640.475 400.897 645.619 398.08C648.326 396.592 650.652 389.976 650.652 387.65C650.652 384.342 647.424 380.844 648.357 377.599C649.022 375.273 652.362 373.532 655.306 371.98C656.398 371.411 657.395 370.857 658.297 370.303C657.569 372.17 657.142 373.88 657.221 375.32C657.807 385.481 663.156 378.486 663.156 378.486C665.926 375.763 668.411 373.468 673.413 375.32C669.646 376.65 665.958 379.768 664.517 382.996C662.492 387.539 665.705 387.428 666.148 394.218C666.274 396.181 666.322 399.251 667.256 401.467C668.237 403.81 669.931 404.443 672.099 403.889C677.1 402.623 678.414 397.336 678.145 391.448C677.876 385.671 681.168 382.189 687.103 381.065C685.109 383.614 684.223 387.539 684.223 391.591C684.223 393.696 684.524 395.817 684.824 397.779C685.647 402.923 684.634 405.44 683.558 406.991C682.039 409.175 679.475 410.584 675.929 411.154C668.49 412.357 659.991 416.155 657.664 420.967C655.448 425.557 657.142 439.659 669.297 436.921C664.407 447.795 654.641 446.038 648.516 444.93C644.1 444.138 639.7 442.287 636.249 445.326C633.78 447.478 632.657 451.071 631.343 453.493C629.728 456.484 628.351 459.048 625.154 460.473C622.859 461.486 619.662 462.134 616.845 462.704C612.761 463.527 607.902 463.527 607.174 465.189C606.161 467.516 609.754 468.956 610.973 469.384C614.281 470.571 620.248 469.922 625.407 468.038C623.967 469.874 623.382 471.71 622.938 473.404C622.147 476.427 621.514 478.817 615.167 479.988C609.374 481.064 604.847 478.247 600.875 475.762C596.68 473.135 592.708 470.666 588.561 474.053C584.825 477.107 582.926 480.479 581.407 483.185C579.903 485.844 578.827 487.775 576.738 488.076C574.759 488.361 571.42 487.126 568.808 485.449C558.726 478.975 560.055 486.541 560.055 487.569C560.055 488.662 560.293 489.722 560.752 490.687C561.638 492.539 563.347 493.932 565.737 494.913C561.559 497.161 553.93 495.578 552.49 491.226C551.318 487.712 550.163 482.805 547.077 481.65C544.718 480.764 542.518 481.302 538.593 483.581C533.354 486.636 523.256 488.25 518.144 485.765C518.619 486.43 518.017 488.203 518.191 488.867C525.646 492.001 535.016 487.68 540.255 484.641C542.961 483.059 544.845 483.233 546.428 483.818C548.723 484.689 549.783 488.978 551.097 492.887C552.949 498.459 560.356 498.601 565.041 497.161C570.929 495.341 569.425 495.119 565.864 493.41C563.759 492.397 562.651 491.495 561.97 490.102C560.973 488.028 561.132 481.887 568.206 486.667C571.071 488.598 575.44 490.45 577.83 490.118C580.568 489.722 581.454 487.807 583.069 484.91C584.541 482.299 585.854 478.453 589.4 475.556C592.803 472.771 596.506 475.224 600.621 477.788C604.816 480.4 609.817 483.533 616.117 482.346C623.302 481.017 623.619 477.171 624.458 473.974C624.869 472.407 626.009 470.286 626.99 468.576C629.586 464.065 628.668 464.936 624.236 466.582C618.269 468.798 614.233 469.146 611.416 468.133C610.83 467.927 610.086 467.548 609.833 466.93C609.738 466.677 609.77 466.535 609.833 466.424C610.387 465.395 613.948 464.667 617.082 464.034C619.979 463.448 624.347 463.496 626.769 462.419C630.377 460.821 631.295 457.655 632.941 454.585C637.436 446.228 638.022 444.867 648.231 446.718C656.018 448.127 664.248 449.757 670.073 439.517C672.59 435.085 673.587 434.769 668.918 435.386C656.445 437.048 658.471 424.164 659.927 421.568C662.381 417.232 668.759 414.968 675.85 413.829C679.775 413.196 684.761 411.138 686.486 408.637C688.275 406.057 687.816 401.657 687.008 397.542C685.79 391.433 686.549 386.668 688.069 383.044C689.857 378.818 692.279 377.631 684.84 379.752L684.919 379.736Z" fill="#0E141B"/>
<path d="M308.476 381.842C310.755 384.975 313.034 384.327 315.424 383.646C317.307 383.108 319.46 382.601 322.198 383.551C320.932 384.406 320.03 385.704 319.127 386.954C315.582 391.955 314.585 391.671 307.922 388.98C304.724 387.698 302.493 388.901 302.493 390.214C302.493 392.731 306.26 395.501 310.897 397.638C314.316 399.22 313.398 399.853 313.002 400.787C312.227 402.639 312.148 403.668 312.401 405.171C313.034 408.954 315.06 410.331 322.515 410.236C323.781 410.22 324.556 410.426 324.936 410.854C326.282 412.341 323.512 415.317 321.897 418.308C319.982 421.822 323.164 422.186 324.176 422.534C326.171 423.231 327.025 424.07 326.836 425.842C326.646 427.678 328.244 430.385 330.65 430.701C332.913 431.002 336.111 428.85 336.997 423.531C338.295 415.792 334.354 411.55 342.489 408.02C341.619 409.524 341.112 411.455 341.112 413.608C341.112 415.998 341.666 418.562 342.837 420.888C343.502 422.234 343.265 423.262 341.096 424.956C339.798 425.969 338.184 427.235 338.184 429.388C338.184 430.401 338.5 431.999 339.403 433.503C345.259 443.11 348.472 442.477 350.118 437.064C352.065 430.638 351.732 426.934 356.971 425.003C355.737 426.729 356.433 428.802 357.272 430.48C358.127 432.205 358.807 434.548 358.348 436.32C358.048 437.523 358.554 439.454 360.2 441.068C362.242 443.063 366.721 444.788 369.618 443.965C370.915 443.601 373.796 440.673 372.229 439.027C370.662 437.381 369.807 435.703 369.839 434.168C369.95 428.675 378.655 423.721 379.89 418.736C380.539 420.667 381.504 423.737 380 426.95C377.864 431.524 384.005 431.018 386.031 431.271C384.116 433.914 383.166 435.909 383.926 437.523C385.651 441.148 395.591 437.317 395.591 431.936C395.591 430.575 395.132 427.568 392.093 426.001C390.589 425.225 393.865 424.639 397.078 426.903C400.371 429.214 406.844 430.084 409.598 427.52C413.428 423.959 408.538 414.731 412.273 411.265C414.489 409.208 418.62 409.366 421.516 409.651C426.834 410.189 427.657 406.058 426.233 400.581C430.475 403.573 431.915 406.058 429.968 407.989C422.767 415.19 423.463 421.806 426.866 421.806C429.272 421.806 430.506 418.783 431.598 416.836C432.706 414.89 433.957 412.674 436.837 411.059C439.813 409.413 443.928 408.337 447.03 409.572C448.692 410.236 450.038 411.075 450.718 413.37C453.52 422.946 459.123 417.802 461.528 415.887C465.39 412.816 467.78 411.328 471.611 412.658C462.905 418.862 467.543 423.769 469.126 425.146C472.813 428.359 477.657 421.87 477.657 417.897C477.657 415.349 481.392 414.51 486.093 416.029C474.602 420.224 481.25 425.304 482.706 426.555C492.361 434.848 492.44 438.742 489.432 442.097C487.755 443.965 488.942 444.646 490.43 443.395C495.352 439.264 495.099 433.962 484.684 425.969C480.648 422.867 479.05 419.654 487.375 416.678C490.873 415.428 489.575 415.349 486.979 414.304C481.503 412.12 476.09 414.478 476.09 417.881C476.09 423.531 471.389 424.782 470.107 423.658C467.416 421.331 466.641 416.947 472.608 413.608C475.077 412.231 475.647 411.439 473.13 410.6C467.654 408.78 463.76 411.487 460.737 414.288C458.743 416.14 456.543 418.103 455.023 417.644C453.884 417.295 452.855 415.713 451.984 412.943C451.13 410.252 449.879 407.989 447.806 407.166C444.957 406.042 440.794 406.39 436.173 408.97C432.944 410.759 431.535 414.146 430.411 416.156C429.272 418.182 427.831 420.271 426.454 419.179C425.077 418.087 427.705 411.724 430.965 409.049C434.337 406.295 432.311 402.386 427.499 399.252C423.716 396.783 423.067 396.245 424.207 400.17C425.79 405.694 423.669 408.479 421.627 408.274C418.462 407.957 412.51 407.308 409.962 409.793C405.942 413.718 411.529 423.167 408.506 426.285C406.258 428.596 401.209 427.441 397.965 425.114C394.894 422.898 385.319 423.009 391.096 426.713C393.438 428.216 394.071 431.619 393.549 433.012C391.934 437.238 385.952 438.679 385.113 436.906C384.59 435.798 386.521 432.015 388.405 430.511C390.288 429.008 389.244 428.834 387.424 429.166C385.603 429.499 381.71 429.593 381.314 428.739C380.554 426.95 383.483 424.165 381.409 417.153C380.428 413.829 380.317 413.307 378.703 416.916C375.379 424.386 367.228 428.675 368.019 435.07C368.225 436.763 369.665 438.504 370.615 439.343C372.292 440.831 369.253 442.05 367.671 442.208C365.217 442.461 362.827 441.765 361.102 440.087C359.899 438.916 359.789 437.064 360.042 436.051C360.802 433.06 359.472 432.458 358.206 429.878C357.446 428.327 358.048 426.46 358.823 424.766C360.501 421.11 360.58 420.508 355.879 422.93C348.361 426.808 350.862 431.414 348.852 436.51C347.68 439.486 344.737 439.945 340.59 432.379C338.564 428.675 339.893 427.583 341.888 426.016C343.47 424.766 346.303 423.769 344.847 420.841C343.138 417.422 342.299 411.993 343.502 408.812C345.18 404.348 344.531 404.76 341.207 406.264C332.217 410.331 336.949 414.842 335.652 422.677C334.955 426.887 332.676 429.214 330.634 428.945C328.434 428.644 328.307 425.779 328.482 424.212C328.83 420.841 327.611 421.442 325.87 421.157C323.686 420.793 323.702 420.113 324.271 418.783C325.553 415.792 329.162 410.458 328.054 408.622C327.548 407.783 325.459 407.451 323.1 407.451C315.519 407.451 314.712 408.337 314.142 404.95C313.825 403.082 314.712 401.832 315.82 400.059C316.801 398.476 315.82 397.748 314.363 397.147C311.641 396.023 303.616 392.383 304.25 390.547C304.582 389.597 305.911 390.135 307.874 390.99C313.73 393.57 316.817 395.184 320.631 389.122C321.138 388.315 323.116 385.292 324.097 384.469C327.5 381.652 328.83 382.206 322.325 380.86C319.571 380.29 316.579 381.398 314.759 381.921C312.417 382.585 311.245 383.393 309.52 381.019C306.545 376.935 307.732 373.358 309.694 370.414L307.304 370.762C304.202 375.416 305.753 378.138 308.428 381.81L308.476 381.842Z" fill="#0E141B"/>
<path d="M171.14 342.778C167.23 345.848 173.245 375.351 191.399 392.935L193.251 391.163C179.433 379.229 171.488 350.533 174.02 346.418C174.638 345.437 184.324 349.235 192.871 355.408L194.185 353.588C182.805 345.373 173.007 341.306 171.14 342.762V342.778Z" fill="#0E141B"/>
<path d="M446.508 549.836C441.697 552.036 434.258 554.537 425.537 557.528C425.774 558.146 426.36 559.665 426.819 560.282C435.065 557.813 443.548 554.062 447.727 552.384C447.363 551.72 446.635 550.596 446.524 549.82L446.508 549.836Z" fill="#0E141B"/>
<path d="M305.722 583.928C291.651 576.727 278.34 561.184 272.943 541.59C266.058 516.629 271.724 496.386 254.757 453.81C254.219 452.464 251.259 454.142 251.861 455.598C266.913 492.302 264 526.253 268.938 542.903C276.425 568.101 291.604 580.225 306.371 587.426C306.118 586.16 305.88 585.321 305.722 583.928Z" fill="#0E141B"/>
<path d="M273.196 439.296C276.045 435.877 278.087 430.417 280.081 423.911C282.202 416.995 281.173 415.459 278.372 422.724C276.551 427.441 274.177 432.537 271.518 435.671C253.57 456.69 244.833 453.351 232.899 477.219C230.905 481.207 223.386 482.537 217.514 485.861C211.231 489.406 206.847 486.525 198.395 478.073C192.143 471.821 190.924 464.905 192.982 449.789C193.741 444.187 195.324 425.811 192.744 421.775C185.748 410.679 188.882 399.996 198.062 383.44C197.777 382.665 197.097 380.955 196.796 380.18C183.548 404.206 184.34 410.6 190.291 421.711C191.826 424.592 191.763 424.465 192.064 429.024C192.633 437.618 190.544 444.788 189.943 449.425C187.901 465.49 188.677 473.088 194.612 479.023C198.68 483.091 202.241 485.813 204.757 487.586C209.553 490.957 213.447 490.182 219.619 487.301C229.448 482.695 233.548 482.679 235.495 478.801C247.967 453.873 257.875 457.703 273.18 439.327L273.196 439.296Z" fill="#0E141B"/>
<path d="M481.645 696.636C481.487 700.83 481.487 704.439 491.047 705.531C499.515 706.497 520.328 705.927 524.142 699.073C527.72 692.632 526.327 681.521 524.285 674.003L522.117 674.588C523.984 681.442 524.934 692.489 521.246 697.348C517.59 702.176 500.005 704.107 491.443 702.872C485.476 702.002 484.431 700.261 484.526 696.13C484.668 689.704 491.443 680.175 495.827 673.575L493.848 672.736C489.163 678.719 481.914 689.181 481.63 696.62L481.645 696.636Z" fill="#0E141B"/>
<path d="M517.843 475.477C511.322 456.579 486.9 437.127 473.098 432.916C451.636 426.38 426.439 438.25 408.997 445.468C328.355 478.832 313.271 453.065 288.042 390.768C287.694 391.701 286.871 392.667 286.285 393.316C310.707 455.043 329.811 483.866 410.057 447.779C436.837 435.734 457.476 430.542 475.172 436.636C488.958 441.986 508.125 459.57 514.662 475.888C519.41 487.775 514.503 522.469 514.313 527.233C515.247 526.489 516.039 525.619 516.688 524.685C516.941 520.744 522.291 488.345 517.843 475.477Z" fill="#0E141B"/>
<path d="M539.432 592.76C538.53 593.013 536.409 593.63 535.507 594.073C536.63 589.832 522.686 630.588 521.927 643.804C521.531 650.531 523.952 653.997 524.76 661.847C525.329 667.434 523.952 672.61 522.908 673.275C517.621 676.694 514.804 675.443 510.99 674.145C507.523 672.958 503.202 671.486 497.631 673.211C496.381 673.591 495.969 673.211 495.843 673.069C493.658 670.916 493.563 659.093 499.578 646.969C503.867 638.312 504.69 606.118 504.69 606.118C505.434 597.192 495.304 589.499 466.277 568.591C447.173 554.821 446.761 553.634 442.409 523.688C441.253 515.743 439.306 515.553 440.224 523.941C443.548 554.346 443.691 558.541 464.52 572.216C487.866 587.537 501.683 598.474 501.113 605.248C501.113 605.248 501.24 638.169 496.713 646.178C490.794 656.656 490.572 668.732 492.266 674.905C492.867 677.058 496.207 675.997 498.296 675.348C503.361 673.781 504.532 674.304 510.277 676.266C514.503 677.707 518.619 678.624 523.715 675.681C525.931 674.399 527.878 667.165 527.419 662.069C526.896 656.181 524.427 650.91 524.791 644.595C525.82 626.837 537.596 599.645 539.448 592.76H539.432Z" fill="#0E141B"/>
<path d="M319.033 717.261L316.912 718.479C316.928 718.558 318.637 726.963 317.371 732.043C315.677 738.786 297.57 749.391 292.87 748.219C288.596 747.159 284.449 741.144 282.439 732.059C281.347 727.137 283.895 718.448 288.644 711.578C288.264 710.993 287.377 710.328 286.792 709.727C281.695 716.991 279.005 725.649 279.29 731.553C279.638 738.992 286.08 750.404 292.11 751.733C298.299 753.11 318.13 742.126 320.663 732.028C322.056 726.441 319.096 717.593 319.017 717.229L319.033 717.261Z" fill="#0E141B"/>
<path d="M323.591 671.439C321.771 677.992 321.866 684.94 321.613 693.518C321.375 701.005 321.549 707.146 320.299 711.799C318.716 717.719 306.592 720.948 301.274 719.65C294.674 718.035 288.311 710.66 288.375 706.703C288.454 701.511 291.271 695.829 293.487 691.034C297.824 681.632 301.812 657.273 303.332 651.006C307.13 635.384 309.995 615.536 308.539 604.662C307.067 593.583 305.69 537.205 306.197 530.842C306.703 524.48 305.199 527.503 304.661 530.209C301.148 547.683 304.123 595.261 305.421 604.963C306.735 614.824 303.601 635.653 300.055 650.151C298.172 657.875 294.722 683.547 291.145 689.514C288.09 694.611 284.877 700.403 284.734 705.547C284.513 713.319 295.291 720.789 300.499 722.214C308.254 724.335 322.182 719.46 323.844 713.192C325.158 708.301 324.446 700.277 324.683 692.664C324.936 684.228 325.221 675.507 326.962 669.207C328.244 664.601 336.158 640.559 337.504 635.447H334.908C333.578 640.227 324.889 666.786 323.591 671.455V671.439Z" fill="#0E141B"/>
<path d="M380.824 314.146C387.598 300.202 388.864 279.547 383.087 264.226C380.65 257.784 379.937 257.816 378.956 264.495C378.465 267.866 377.943 269.671 376.867 271.301C376.503 265.904 375.047 259.873 373.036 255.521C368.731 246.214 368.051 247.021 368.051 257.103C368.051 267.186 365.186 275.242 355.563 281.288C357.098 275.4 356.164 269.576 353.838 266.473C351.305 263.086 351.242 263.498 350.783 267.296C350.071 273.105 345.623 281.225 335.319 284.913C322.451 289.518 298.457 279.816 285.795 278.582C264.997 276.571 247.223 288.695 239.626 300.408C239.626 300.265 238.723 294.282 243.408 284.533C245.672 279.832 245.165 278.439 238.344 282.744C210.028 300.614 190.18 337.808 191.62 361.93C192.982 384.785 204.061 400.612 221.297 407.181C226.14 409.033 225.729 407.766 224.874 403.857C224.004 399.916 223.592 393.632 225.064 389.96C232.424 389.406 257.289 374.655 268.954 352.639C270.553 349.616 269.983 348.714 268.052 351.357C258.729 364.114 240.955 383.249 225.492 387.76C227.011 382.775 230.351 377.852 230.208 376.887C230.066 375.921 225.143 380.717 223.418 386.035C220.49 395.057 221.503 400.786 223.086 405.614C210.218 402.211 192.174 382.347 194.77 356.548C197.271 331.746 211.342 304.839 240.939 284.596C238.708 287.888 237.441 292.082 237.251 301.5C237.141 307.625 238.043 306.343 239.61 303.605C245.007 294.282 264.222 279.879 285.589 281.937C299.612 283.298 324.667 291.497 336.902 286.464C346.478 282.523 352.002 273.912 352.492 268.199C353.869 270.035 354.629 272.741 354.629 275.638C354.629 278.217 354.36 280.956 353.015 285.324C352.271 287.73 352.619 288.078 355.104 283.235C364.173 278.202 370.029 271.696 369.744 256.534C369.681 253.305 369.618 252.814 371.28 256.565C372.957 260.332 374.888 266.901 375.885 274.625C376.708 280.924 377.025 278.265 377.342 273.817C379.146 270.652 380.143 268.309 380.539 263.134C385.509 275.353 386.965 294.583 377.99 312.753C368.842 331.287 352.492 346.909 327.026 354.396C320.204 356.406 319.666 357.324 326.63 357.767C332.534 358.131 338.374 357.72 345.845 353.984C332.312 370.904 320.805 367.675 300.783 370.777C300.34 371.458 299.77 372.629 299.327 373.294C319.001 371.395 334.433 372.55 345.971 356.058C349.453 351.088 349.564 350.914 344.024 353.035C338.849 355.013 331.79 356.279 326.915 356.01C352.73 350.407 371.675 332.965 380.808 314.146H380.824Z" fill="#0E141B"/>
<path d="M306.656 341.179C290.242 343.221 271.075 350.882 268.084 352.369L266.311 355.329C275.222 350.866 300.182 345.2 306.244 344.377C310.043 343.854 311.135 345.073 309.821 349.188C305.389 363.021 291.414 384.041 285.003 392.587C282.091 396.465 280.651 400.201 286.127 394.344C291.366 388.741 308.998 364.367 313.351 349.394C315.297 342.683 312.718 340.625 306.687 341.164L306.656 341.179Z" fill="#0E141B"/>
<path d="M301.432 349.601C284.687 354.761 273.212 362.279 266.691 367.66C263.446 370.335 265.045 370.873 268.052 369.021C272.927 371.047 277.881 379.151 279.575 387.223C279.575 387.223 277.881 391.053 280.967 387.983C283.721 385.229 298.932 367.027 304.709 354.096C306.719 349.601 305.643 348.319 301.432 349.617V349.601ZM299.929 352.007C302.999 350.835 303.759 351.437 302.335 354.476C299.565 360.411 287.852 377.109 280.698 385.751C279.4 376.571 274.51 370.193 269.271 367.977C278.34 361.646 290.037 355.141 299.945 351.991L299.929 352.007Z" fill="#0E141B"/>
<path d="M214.048 477.708C214.048 479.829 214.998 479.132 215.694 477.122C217.229 472.754 218.765 472.754 219.35 471.804C219.936 470.855 217.467 470.158 216.28 471.456C215.093 472.754 214.032 475.587 214.032 477.708H214.048Z" fill="#0E141B"/>
<path d="M427.752 549.692C415.882 551.148 414.774 556.83 413.302 561.499C411.814 566.248 405.309 566.612 404.755 562.781C404.407 560.36 406.053 557.716 408.49 555.801C411.846 553.174 412.51 552.145 407.351 552.652C399.421 553.427 395.575 560.914 392.425 559.457C391.381 558.983 390.589 555.105 388.088 553.965C383.862 552.05 378.465 557.527 374.239 562.275C372.292 564.459 370.631 563.193 367.243 563.588C360.912 564.348 359.725 566.422 364.948 565.345C369.317 564.443 371.928 567.213 374.208 564.934C380.159 558.983 385.556 554.519 387.74 557.131C390.194 560.091 391.491 561.531 394.625 561.278C397.759 561.024 401.574 555.374 407.224 554.931C405.04 556.403 403.22 558.381 403.03 562.449C402.808 567.355 411.941 571.202 414.98 562.401C416.42 558.223 418.018 553.047 427.483 551.275C422.371 556.64 423.526 561.024 428.575 562.845C433.181 564.506 431.345 567.102 427.784 568.099C416.04 571.391 421.041 579.432 428.56 579.511C427.198 580.682 426.312 582.439 425.489 584.18C424.128 587.013 422.862 589.926 419.554 590.353C416.467 590.749 414.742 589.878 413.476 589.403C412.067 588.865 410.833 588.406 409.297 590.385L407.667 592.917C404.217 598.884 401.558 598.662 394.926 597.507C388.611 596.415 383.055 595.845 381.9 602.588C381.298 606.133 383.166 603.442 383.166 603.442C389.339 601.749 391.476 605.627 392.457 607.099C393.676 608.919 397.474 609.963 399.959 609.742C398.107 612.781 389.291 610.549 387.582 615.456C387.186 616.579 386.363 617.371 385.097 617.861C382.311 618.922 378.212 617.228 373.923 615.962C369.333 614.617 370.045 617.418 369.855 619.017C369.507 622.119 369 623.702 367.338 623.702L364.395 623.512C361.308 623.211 357.462 623.1 356.528 625.474C355.594 627.849 356.924 630.618 359.836 634.021C357.43 634.005 353.078 633.262 350.878 628.608C348.757 624.129 342.79 627.611 341.318 631.584C340.289 634.354 340.384 635.762 335.873 634.623C331.362 633.483 333.309 635.936 338.754 637.139C341.998 637.867 342.125 634.844 343.17 632.027C344.879 627.39 348.567 627.105 349.437 629.906C350.64 633.721 354.407 635.936 358.507 636.206C364.189 636.57 363.841 635.652 361.15 632.85C357.32 628.877 355.12 624.572 364.268 624.841L368.146 625.474C371.232 625.474 371.232 623.623 371.454 619.951C371.881 612.796 379.383 622.689 386.268 620.647C387.93 620.156 388.769 617.83 389.291 616.342C390.352 613.398 397.284 613.73 400.323 611.625C404.153 608.966 404.407 608.855 399.405 608.333C397.015 608.08 394.261 607.257 393.343 605.294C392.156 602.793 389.814 600.942 383.688 601.955C385.841 597.507 388.975 599.296 394.784 599.929C400.497 600.562 404.644 601.67 408.095 595.703L410.342 591.651C411.276 590.464 411.64 590.59 413.001 591.097C414.315 591.588 417.227 592.917 420.646 592.474C424.682 591.952 425.537 587.868 426.929 584.972C427.483 583.832 429.493 581.679 430.411 580.872C433.292 578.324 432.263 578.846 428.306 578.102C419.87 576.52 424.065 570.189 428.829 569.128C435.191 567.719 435.84 563.937 429.351 561.61C425.663 560.281 425.014 555.121 429.082 551.844C432.374 549.217 431.345 549.217 427.705 549.676L427.752 549.692Z" fill="#0E141B"/>
<path d="M552.3 507.401C548.834 510.297 541.047 510.835 538.467 512.323C535.317 514.159 533.133 521.155 532.151 526.109C531.946 527.106 531.423 529.322 530.015 529.069C528.495 528.8 526.833 527.074 527.071 525.428C527.387 523.244 526.501 522.817 525.266 522.516C523.826 522.152 522.038 520.269 521.531 517.784C521.104 515.631 520.439 515.425 519.379 517.784C518.318 520.142 513.839 526.584 511.117 529.037C508.996 530.952 512.24 529.559 514.25 527.739C516.656 525.571 519.204 523.782 520.17 521.155C521.404 523.038 523.082 523.545 524.301 523.846C525.456 524.131 525.71 525.587 525.71 525.745C525.71 528.008 527.482 530.921 529.492 531.269C530.949 531.522 532.99 530.003 533.513 527.439C534.541 522.263 538.182 515.156 540.572 513.574C542.914 512.022 551.271 511.168 553.218 508.176C552.854 509.68 550.939 511.374 548.343 513.431C546.064 515.22 544.639 516.47 544.481 518.955C544.323 521.44 548.09 522.231 550.211 522.279C551.968 522.31 552.569 522.817 552.015 524.194C551.239 526.141 551.081 527.502 551.081 528.879C551.081 532.883 554.706 534.276 558.805 532.725C560.784 531.981 562.493 529.306 564.313 526.473C566.307 523.355 568.587 519.81 570.992 519.572C576.769 518.987 577.846 520.459 577.181 524.732C576.31 530.414 579.492 534.688 585.047 526.046C587.548 522.168 589.162 521.994 593.373 524.273C598.485 527.043 603.233 527.264 606.161 521.567C608.773 516.47 612.271 511.104 620.707 511.089C620.438 511.294 614.043 514.776 613.363 523.165C613.315 523.672 613.505 525.777 613.505 526.251C613.505 531.949 610.34 533.817 607.76 535.337C603.249 537.996 603.138 540.623 606.351 543.377C608.076 544.865 611.02 545.988 614.407 545.941C613.933 546.131 613.489 546.337 612.999 546.527C609.723 547.824 606.003 549.281 603.027 553.602C601.144 556.308 600.384 559.331 599.656 562.243C598.611 566.39 597.709 569.967 593.879 571.898C590.492 573.592 587.311 572.816 584.509 572.136C581.834 571.487 578.669 570.743 576.738 572.658C573.366 576.029 575.361 581.252 577.956 583.199C581.011 585.478 588.418 582.819 588.418 582.819C582.483 591.873 568.951 589.688 565.057 585.162C562.477 582.155 554.136 582.693 551.509 585.304C548.881 587.916 553.487 591.746 555.244 592.743C549.752 594.152 546.713 593.186 544.307 592.3C542.186 591.524 540.35 590.86 537.739 592.268C528.432 597.349 529.033 599.074 538.055 594.152C540.129 593.028 541.885 592.854 543.785 593.914C546.08 595.165 549.657 595.861 554.991 594.88C558.773 594.184 558.536 593.44 555.45 591.445C553.028 589.878 552.522 588.264 553.408 586.84C554.801 584.592 562.097 584.719 564.012 586.95C568.191 591.809 581.613 594.437 589.463 584.687C593.721 579.401 590.555 581.205 586.124 582.25C583.686 582.819 580.552 583.468 578.716 582.139C576.5 580.524 575.408 576.916 577.972 574.352C579.349 572.975 581.66 573.307 584.161 573.924C587.042 574.621 591.521 576.14 595.351 574.225C597.978 572.911 599.482 569.857 600.812 564.586C601.524 561.784 602.363 556.894 604.104 554.393C605.829 551.892 610.435 549.866 613.759 548.22C619.267 545.498 619.108 544.596 613.885 543.899C611.685 543.599 608.44 542.965 607.301 542C605.481 540.449 605.449 538.28 608.409 536.524C613.315 533.627 615.69 532.867 615.025 525.239C614.708 521.709 616.639 515.615 620.248 513.099C625.851 509.205 624.648 509.284 618.459 509.585C610.862 509.949 608.377 513.795 604.927 520.522C602.204 525.84 596.095 523.656 593.436 521.82C588.545 518.417 587.342 519.952 583.892 525.333C580.71 530.272 577.925 528.816 578.495 524.954C579.428 518.559 578.447 516.628 571.23 517.356C568.175 517.657 565.548 521.836 563.284 525.381C561.67 527.898 559.581 530.841 558.03 531.427C553.329 533.2 552.316 529.607 554.009 523.814C555.038 520.284 551.698 520.965 550.242 520.933C545.352 520.838 545.795 517.42 548.755 515.093C550.78 513.51 553.534 511.199 554.452 509.158C556.431 504.71 555.086 505.106 552.332 507.401H552.3Z" fill="#0E141B"/>
<path d="M187.49 407.339C186.603 427.298 190.623 433.091 193.045 435.607C193.552 436.145 193.836 434.341 193.409 433.739C190.544 429.688 188.392 420.808 188.566 409.729C188.566 408.985 187.521 406.595 187.474 407.339H187.49Z" fill="#0E141B"/>
<path d="M257.447 405.123C254.598 403.603 239.309 403.429 231.316 431.681C232.962 433.327 242.538 438.408 251.449 434.245C263.889 428.437 261.863 407.481 257.431 405.123H257.447Z" fill="#0E141B"/>
<path d="M243.598 422.215C243.852 425.603 242.348 428.483 240.243 428.641C238.169 428.8 235.605 426.077 235.7 421.962C235.748 419.984 238.597 415.837 238.818 415.821C241.382 415.631 243.408 419.556 243.598 422.215Z" fill="white"/>
<path d="M260.534 408.573C258.999 403.461 254.994 401.91 247.524 405.518C239.103 409.57 233.659 417.357 230.667 430.589C229.464 435.907 229.907 437.205 231.965 433.296C237.71 438.107 248.916 437.522 254.963 432.52C260.629 427.835 263.668 419.035 260.518 408.573H260.534ZM254.013 431.586C247.872 436.699 240.322 435.907 232.519 431.697C236.444 414.698 244.627 407.861 255.137 405.882C257.527 405.439 258.54 406.278 259.094 408.874C261.658 420.665 257.337 428.801 254.013 431.586Z" fill="#0E141B"/>
</g>
<defs>
<clipPath id="clip0_42_65406">
<rect width="520" height="502.89" fill="white" transform="translate(170 249)"/>
</clipPath>
</defs>
</svg>
