<svg width="800" height="800" viewBox="0 0 800 800" fill="none" xmlns="http://www.w3.org/2000/svg">
<g clip-path="url(#clip0_42_65563)">
<path d="M698.304 669.006C695.367 661.401 680.733 644.715 667.801 634.651C666.732 618.26 661.292 602.657 652.675 589.078C662.276 576.932 660.083 556.479 647.053 546.119C633.108 535.028 612.093 537.446 605.823 549.507C594.423 544.826 582.011 542.296 569.134 542.507C547.177 501.966 469.568 472.193 417.037 481.808C352.023 493.701 307.673 534.817 291.817 580.025C255.662 601.462 221.377 639.458 224.104 652.784C228.462 674.123 277.071 675.936 308.868 670.552C323.459 682.894 349.915 690.71 372.771 691.385C368.02 699.749 366.249 707.143 368.892 711.29C378.886 726.991 450.099 725.375 487.111 705.892C498.455 710.32 512.231 713.665 525.051 715.282L662.628 697.486C673.592 696.727 689.617 691.947 692.386 689.571C699.303 683.639 700.877 675.711 698.29 669.006H698.304Z" fill="#F4B3C2"/>
<path d="M694.312 688.771C701.51 686.325 708.791 680.814 708.791 677.483C708.791 674.151 703.267 669.962 698.769 667.418C700.47 673.294 700.343 682.094 694.312 688.771Z" fill="white"/>
<path d="M634.71 633.218C614.482 623.94 602.196 625.234 587.029 634.849C577.442 640.921 541.217 661.726 528.819 665.001C500.452 672.493 498.666 694.914 516.434 709.646C547.964 735.792 628.118 733.262 648.5 700.734C659.802 702.336 673.03 693.72 673.03 678.257C673.03 661.965 656.204 643.072 634.71 633.204V633.218Z" fill="#FFF2AD"/>
<path d="M644.185 699.82C645.112 703.574 647.193 707.692 648.641 707.734C650.089 707.763 653.617 704.319 654.657 700.495C651.536 700.861 648.008 701.156 644.185 699.82Z" fill="white"/>
<path d="M578.328 704.317C579.79 707.227 582.264 709.673 583.824 709.701C585.623 709.729 589.925 706.608 591.288 702.588C586.945 703.431 582.404 703.98 578.342 704.317H578.328Z" fill="white"/>
<path d="M567.616 646.289C576.992 628.831 570.329 606.311 555.19 598.903C536.958 589.991 515.985 599.564 507.832 616.995C497.851 638.319 507.41 660.487 525.853 665.829C534.343 663.734 554.009 654.119 567.616 646.275V646.289Z" fill="white"/>
<path d="M638.562 635.157C634.921 620.355 637.339 600.534 647.221 599.424C654.123 598.651 660.421 605.623 664.455 615.336C667.267 626.216 668.377 639.275 667.281 648.539C666.409 651.435 665.228 653.895 663.795 655.736C657.23 647.794 646.687 638.868 638.548 635.157H638.562Z" fill="white"/>
<path d="M148.913 664.086C149.672 662.948 150.516 661.837 151.457 660.769C151.64 657.803 152.174 654.766 153.13 651.674L148.913 664.086Z" fill="#F4B3C2"/>
<path d="M232.791 632.403C192.11 637.308 163.841 646.474 151.457 660.77C151.64 657.804 152.174 654.767 153.13 651.675L148.913 664.087C149.672 662.948 150.515 661.838 151.457 660.77C150.515 676.471 159.962 690.191 174.047 701.043C158.542 704.29 149.686 721.791 162.829 735.384C126.646 726.051 93.2609 704.529 91.9818 669.485C90.7026 634.483 108.091 606.144 156.644 587.603C205.717 568.865 257.433 551.111 323.333 530.18C308.882 546.064 297.917 562.975 291.845 580.265C267.681 593.732 247.874 613.411 232.791 632.403Z" fill="#F4B3C2"/>
<path d="M162.815 735.384C188.483 742.005 215.571 742.497 233.593 737.31C243.7 734.4 244.712 728.004 231.133 725.474C211.706 721.876 189.917 713.287 174.033 701.043C158.528 704.29 149.672 721.791 162.815 735.384Z" fill="white"/>
<path d="M153.608 648.244C156.757 635.846 167.665 623.377 182.987 616.292C224.582 597.076 264.195 581.628 295.317 571.689L291.929 580.039C275.061 588.825 244.838 613.945 232.538 632.571C197.747 635.03 158.865 649.889 151.71 660.685C151.879 657.873 152.47 652.7 153.594 648.244H153.608Z" fill="#D39BA9"/>
<path d="M92.4457 657.297C87.2024 697.88 119.182 724.588 161.072 735.201C159.203 732.066 157.909 728.819 157.136 725.909C124.496 714.593 95.5242 692.566 92.4457 657.297Z" fill="#D39BA9"/>
<path d="M229.39 738.533C237.374 737.381 241.155 733.965 241.689 731.153C223.19 737.774 188.484 736.776 157.15 725.91C157.924 728.82 159.203 732.067 161.086 735.202C182.481 740.614 206.463 741.837 229.39 738.533Z" fill="#DCDDDD"/>
<path d="M655.88 557.928C656.513 568.105 654.25 577.875 647.755 582.556L652.464 589.022C659.521 582.331 660.379 566.559 655.88 557.928Z" fill="#D39BA9"/>
<path d="M290.186 649.115C275.553 652.672 254.903 654.555 240.003 653.684C240.607 659.026 240.157 665.014 237.486 666.349C253.174 674.98 290.608 674.01 308.235 670.609C329.026 684.736 353.654 690.949 373.109 691.568C376.215 685.565 383.455 675.838 388.839 671.283C363.733 673.94 329.883 669.273 304.482 651.786C298.719 647.822 296.54 647.569 290.172 649.101L290.186 649.115Z" fill="#D39BA9"/>
<path d="M380.967 708.843C403.121 711.107 442.972 705.596 470.58 693.606C476.962 690.836 478.059 691.005 483.878 692.734C491.736 695.068 499.833 696.206 506.271 696.22C509.167 702.729 514.748 709.279 522.957 714.508C512.513 713.314 497.865 710.095 486.985 705.695C456.06 723.027 403.697 724.911 385.071 719.513C385.535 717.995 384.369 713.778 380.967 708.858V708.843Z" fill="#D39BA9"/>
<path d="M672.299 672.971C681.717 675.093 690.208 676.977 699.359 679.226C697.939 683.148 694.397 687.773 692.091 689.628C688.549 692.454 671.47 697.093 662.656 697.641C672.791 691.076 673.381 682.178 672.299 672.971Z" fill="#D39BA9"/>
<path d="M699.71 677.849C702.775 677.624 705.909 677.511 708.819 677.539C707.301 681.883 701.032 686.648 694.678 688.349C696.941 685.397 698.951 681.012 699.71 677.835V677.849Z" fill="#DCDDDD"/>
<path d="M527.624 689.164C547.655 705.091 585.609 699.946 614.89 691.863C625.672 688.883 630.283 688.658 637.62 691.624C652.619 697.711 668.194 695.377 672.651 677.328C671.807 702.378 650.623 704.5 635.99 696.657C632.194 694.618 627.977 694.534 622.987 695.715C602.253 700.635 579.41 705.442 567.813 704.852C547.768 703.84 533.219 698.47 527.638 689.15L527.624 689.164Z" fill="#DDD196"/>
<path d="M591.302 702.448C607.243 699.665 621.75 694.998 627.724 694.914C632.518 694.844 637.41 697.304 644.48 700.045L645.619 704.037C628.09 730.619 548.485 736.944 517.208 709.885C504.205 698.639 518.613 685.819 527.315 688.644C535.58 701.872 558.072 705.878 578.651 704.135C580.352 707.565 582.587 709.66 583.683 709.702C585.497 709.758 589.208 707.2 591.288 702.448H591.302Z" fill="#DDD196"/>
<path d="M609.577 677.693C607.187 675.894 605.5 678.1 607.679 679.647C609.633 681.038 611.095 682.543 612.571 684.51C613.386 685.607 614.3 685.087 613.991 683.976C613.274 681.32 611.685 679.267 609.577 677.693Z" fill="#0E141B"/>
<path d="M641.374 676.007C642.175 673.899 644.635 675.15 643.721 677.104C642.765 679.142 641.177 681.448 639.096 683.022C637.887 683.936 637.367 683.05 638.084 682.094C639.616 680.028 640.333 678.72 641.36 676.021L641.374 676.007Z" fill="#0E141B"/>
<path d="M646.279 705.498C627.822 732.207 549.103 738.659 515.492 710.798C496.628 695.152 498.694 671.396 528.439 663.538C540.922 660.235 577.048 639.346 586.326 633.456C602.52 623.194 615.41 622.534 635.315 631.657C658.242 642.171 674.534 661.865 674.534 678.256C674.534 692.959 664.16 702.026 650.201 702.153C643.552 702.209 634.823 696.53 627.555 696.46C620.105 696.389 589.896 706.229 571.285 706.215C551.029 706.201 533.317 700.044 527.919 691.132C525.993 687.941 527.033 687.309 529.268 690.289C534.877 697.739 551.282 703.601 571.355 703.446C590.149 703.291 620.245 693.929 627.611 693.845C635.357 693.761 644.283 699.777 650.257 699.637C664.047 699.313 671.399 689.164 671.399 678.185C671.399 663.412 656.161 644.941 634.007 634.763C614.974 626.034 603.475 626.399 587.788 636.183C577.076 642.874 543.1 662.554 529.156 666.335C501.66 673.8 501.126 695.026 517.348 708.478C550.888 736.283 628.722 728.538 645.098 702.125L646.293 705.47L646.279 705.498Z" fill="#0E141B"/>
<path d="M592.89 702.209C590.529 707.326 585.932 710.967 583.753 710.967C581.392 710.967 578.102 706.651 576.964 704.557L579.578 704.248C581.04 707.059 582.868 708.746 583.767 708.746C584.948 708.746 587.774 706.904 590.065 702.701L592.876 702.195L592.89 702.209Z" fill="#0E141B"/>
<path d="M656.147 700.353C654.039 704.852 650.876 708.872 648.571 708.858C646.153 708.83 643.58 703.01 643.032 699.285L645.801 700.1C646.322 703.53 647.966 706.595 648.683 706.637C649.513 706.679 651.396 704.88 653.491 700.649L656.147 700.368V700.353Z" fill="#0E141B"/>
<path d="M523.871 666.546C506.89 661.275 496.122 638.221 506.328 616.405C514.762 598.37 536.775 588.487 555.696 597.751C570.582 605.033 577.822 627.018 569.922 645.011L565.943 646.22C575.348 628.705 568.108 606.663 554.585 600.056C535.918 590.919 516.421 601.996 509.153 617.543C499.355 638.474 509.743 661.148 528.2 665.112L523.857 666.56L523.871 666.546Z" fill="#0E141B"/>
<path d="M569.95 544.138C528.327 544.25 485.228 574.937 465.871 614.845C463.749 619.231 462.104 618.471 463.988 613.987C481.714 571.591 527.736 540.947 569.95 540.834C634.457 540.652 680.508 604.864 667.084 660.277L664.554 656.749C675.898 605.792 631.562 543.969 569.964 544.138H569.95Z" fill="#0E141B"/>
<path d="M604.277 548.986C610.49 536.574 632.588 532.68 647.952 544.896C660.828 555.129 664.82 576.946 653.322 590.75L651.649 587.91C660.463 576.721 658.453 557.322 645.97 547.398C632.166 536.419 612.599 539.47 607.158 550.181L604.263 548.986H604.277Z" fill="#0E141B"/>
<path d="M667.787 632.613C692.639 651.492 703.126 669.597 700.582 679.648C697.728 690.88 685.513 698.035 660.66 699.286L664.807 695.772C686.103 693.775 695.226 688.645 697.573 678.959C699.443 671.242 693.834 657.283 667.927 636.816L667.787 632.613Z" fill="#0E141B"/>
<path d="M696.168 664.467C703.969 668.164 710.028 673.927 710.014 677.512C709.986 681.954 700.033 688.701 691.979 690.908L695.24 687.155C701.945 684.625 707.512 680.028 707.568 677.47C707.61 675.178 702.999 671.144 698.459 668.684L696.182 664.467H696.168Z" fill="#0E141B"/>
<path d="M528.734 717.602C514.284 715.915 495.447 711.206 484.483 705.977C478.495 703.123 479.029 701.731 485.228 704.065C496.249 708.212 509.097 711.501 521.101 713.047L528.748 717.588L528.734 717.602Z" fill="#0E141B"/>
<path d="M489.037 706.791C451.013 727.103 378.113 728.846 367.5 712.147C357.59 696.572 401.054 643.998 439.739 644.237C444.406 644.265 444.378 645.98 439.711 646.191C402.277 647.864 362.144 697.612 370.297 710.418C379.744 725.262 448.904 723.688 485.045 705.118L489.037 706.791Z" fill="#0E141B"/>
<path d="M371.647 693.395C347.469 692.524 316.079 683.415 302.992 666.406C299.154 661.415 300.391 660.221 304.721 664.817C319.003 680.013 348.959 689.024 373.713 689.614L371.647 693.395Z" fill="#0E141B"/>
<path d="M310.653 672.239C281.134 677.37 227.337 676.386 222.586 653.107C219.592 638.403 256.899 598.13 292.239 577.705L290.847 582.738C255.17 604.189 223.162 640.737 225.58 652.545C229.333 670.96 271.898 674.867 307.224 668.992L310.667 672.225L310.653 672.239Z" fill="#0E141B"/>
<path d="M567.012 542.549C545.954 504.497 470.889 474.007 417.318 483.819C353.429 495.514 304.398 538.922 289.483 591.664C288.12 596.486 286.152 596.233 287.29 591.285C300.378 534.354 351.545 491.803 416.714 479.883C472.309 469.706 550.227 502.191 570.948 542.479L567.012 542.549Z" fill="#0E141B"/>
<path d="M320.395 533.299C254.116 554.371 207.053 570.522 157.207 589.499C111.423 606.93 92.4037 634.623 93.6688 669.47C95.7633 726.949 189.889 748.288 233.185 735.819C241.661 733.387 242.491 729.184 230.795 727.005C187.345 718.937 139.945 689.543 151.963 651.407C154.072 644.716 156.054 645.193 154.17 651.955C144.274 687.491 188.835 716.027 231.47 723.941C247.425 726.907 245.204 735.636 233.958 738.87C191.295 751.17 92.3474 732.474 90.0702 669.54C88.5942 629 112.182 602.376 155.956 585.662C204.227 567.233 255.072 550.126 325.259 527.719L320.395 533.299Z" fill="#0E141B"/>
<path d="M231.245 634.468C189.664 639.726 162.141 650.156 151.429 663.609V658.042C163.898 644.421 192.363 635.27 234.057 630.561L231.245 634.468Z" fill="#0E141B"/>
<path d="M637.395 634.104C631.773 616.293 636.805 599.341 647.151 598.174C651.86 597.654 657.005 600.493 661.292 606.397C663.049 611.163 665.397 619.273 666.297 626.766C662.825 609.49 654.573 599.973 647.39 600.662C638.857 601.477 634.781 618.641 641.359 636.212L637.381 634.104H637.395Z" fill="#0E141B"/>
<path d="M523.35 563.17C524.194 547.314 513.018 534.494 496.473 533.482C477.595 532.315 464.367 541.551 459.222 555.622C452.826 573.095 460.051 587.798 469.934 591.819C480.125 595.966 495.039 593.815 499.622 583.216L523.336 563.184L523.35 563.17Z" fill="#F4B3C2"/>
<path d="M385.071 719.5C386.337 718.417 383.778 712.12 379.097 706.384C374.458 700.705 371.295 698.948 368.639 699.623C363.213 700.972 357.224 709.589 358.124 711.543C361.399 718.684 380.967 723.028 385.071 719.514V719.5Z" fill="white"/>
<path d="M230.809 635.494C226.62 635.986 220.463 648.272 220.941 653.066C221.602 659.658 232.862 668.079 237.29 666.462C239.342 665.717 241.071 660.263 239.103 649.312C237.992 643.141 234.169 635.101 230.809 635.494Z" fill="white"/>
<path d="M457.381 564.254C460.319 589.514 492.72 593.97 501.773 572.927C501.52 588.615 490.668 594.111 479.703 593.717C462.216 593.113 455.132 579.267 457.381 564.254Z" fill="#D39BA9"/>
<path d="M220.407 653.178C226.311 653.74 233.452 652.39 239.117 649.551C240.481 658.393 240.256 665.534 237.079 666.56C233.902 667.586 221.208 660.543 220.407 653.178Z" fill="#DCDDDD"/>
<path d="M358.068 710.7C363.916 711.937 376.23 710.883 380.166 707.805C382.991 711.375 386.449 717.659 384.903 719.247C380.236 724.111 358.152 717.335 358.068 710.686V710.7Z" fill="#DCDDDD"/>
<path d="M469.287 593.197C458.182 588.685 451.027 572.969 457.578 555.075C463.383 539.218 477.496 530.784 496.53 531.979C513.398 533.019 525.29 545.952 524.152 563.214C523.913 566.883 522.493 566.812 522.563 563.129C522.83 548.763 512.611 535.985 496.403 534.987C479.928 533.989 465.942 542.128 460.797 556.157C455.357 571.015 460.178 586.239 470.44 590.414C480.603 594.547 494.379 592.059 498.385 582.795C502.335 573.658 501.07 563.649 493.732 560.402C487.224 557.521 481.938 560.571 479.436 564.423C477.735 567.023 476.667 566.489 478.031 563.678C480.491 558.603 487.617 555.131 494.632 558.223C502.912 561.878 505.526 572.744 500.775 583.695C495.841 595.095 480.111 597.583 469.287 593.183V593.197Z" fill="#0E141B"/>
<path d="M356.957 711.937C355.2 708.113 364.688 697.992 369.173 698.273C372.617 698.484 376.173 700.958 380.025 705.681C384.382 711.009 388.22 718.558 386.083 720.371C382.555 723.393 361.202 721.186 356.957 711.937ZM359.305 711.051C362.271 717.531 381.501 720.736 383.975 718.6C384.467 717.841 382.963 713.005 378.155 707.115C374.472 702.603 371.478 700.888 369.088 700.649C366.516 700.382 358.335 708.915 359.319 711.037L359.305 711.051Z" fill="#0E141B"/>
<path d="M219.31 653.149C218.79 647.878 225.833 635.255 230.697 634.678C234.661 634.229 239.271 641.342 240.621 648.904C242.954 661.949 240.537 666.18 237.81 667.178C232.637 669.062 220.041 660.529 219.31 653.135V653.149ZM231.034 637.279C228.096 637.63 221.855 648.426 222.305 653.009C222.811 658.069 232.875 666.166 236.896 664.69C238.034 664.269 240.002 660.895 237.964 649.509C236.601 641.918 232.861 637.012 231.034 637.279Z" fill="#0E141B"/>
<path d="M653.631 614.298C654.587 614.087 655.557 614.888 655.81 615.956C656.119 617.235 655.641 618.332 654.854 618.529C653.969 618.74 653.027 618.009 652.718 616.954C652.324 615.591 652.9 614.466 653.631 614.298Z" fill="#0E141B"/>
<path d="M538.35 615.9C539.91 615.9 540.627 617.461 540.627 618.599C540.627 619.893 539.713 621.34 538.35 621.298C537.07 621.27 536.143 620.272 536.072 618.599C536.016 617.166 537.183 615.9 538.35 615.9Z" fill="#0E141B"/>
</g>
<defs>
<clipPath id="clip0_42_65563">
<rect width="620" height="264.455" fill="white" transform="translate(90 478)"/>
</clipPath>
</defs>
</svg>
