<svg width="800" height="800" viewBox="0 0 800 800" fill="none" xmlns="http://www.w3.org/2000/svg">
<g clip-path="url(#clip0_42_58927)">
<path d="M168.55 172.639C168.637 174.602 168.571 176.653 168.615 178.747C147.782 189.698 161.482 246.548 172.062 263.694C151.338 250.082 149.222 270.675 159.038 290.33C171.473 315.199 193.026 343.711 208.362 341.748C214.012 341.028 217.611 336.119 219.051 327.197C220.796 316.464 222.432 307.825 223.872 300.19C227.144 282.935 229.304 271.547 228.628 256.015C229.457 190.876 213.27 149.82 197.978 129.947C187.681 116.596 165.386 105.929 168.528 172.617L168.55 172.639Z" fill="#0E141B"/>
<path d="M179.151 265.483C170.862 262.516 161.154 215.571 164.339 196.766C165.67 188.957 168.244 183.219 171.407 181.016L172.192 180.471V179.511C171.407 142.644 176.752 132.151 181.376 129.838C184.103 128.486 187.768 129.577 192.262 133.089C211.132 147.901 222.17 189.327 225.072 256.168C225.726 271.286 223.588 282.521 220.36 299.514C218.92 307.149 217.262 315.832 215.517 326.608C214.361 333.807 211.786 337.69 207.903 338.192C195.709 339.741 173.719 313.039 165.539 294.453C158.994 279.597 157.227 270.086 160.216 267.228C161.656 265.854 174.221 268.886 178.759 270.435C183.296 271.984 187.441 268.428 179.151 265.461V265.483Z" fill="#AFCFE5"/>
<path d="M206.115 282.237C185.739 254.838 199.09 213.368 189.252 195.087C179.413 176.806 178.279 139.546 185.87 150.105C193.462 160.663 185.129 147.901 185.87 150.105C186.656 149.043 186.656 149.043 185.87 150.105C203.3 165.571 224.744 307.281 206.115 282.237Z" fill="#93AFC2"/>
<path d="M188.401 155.34C193.964 166.64 208.427 221.047 204.61 256.605L209.3 250.933C213.292 213.869 196.691 162.059 191.193 153.115C185.674 144.149 182.86 144.062 188.423 155.362L188.401 155.34Z" fill="#0E141B"/>
<path d="M147.52 351.739C141.194 358.065 137.507 367.009 137.529 376.28C137.616 394.714 149.92 416.158 173.48 439.325C204.326 469.648 253.933 504.355 283.012 498.793C287.855 497.855 294.05 493.644 296.101 478.788C300.442 447.353 283.492 387.384 263.095 377.175C247.716 369.496 167.961 331.32 147.52 351.761V351.739Z" fill="#0E141B"/>
<path d="M179.239 438.039C156.355 415.547 143.724 393.558 143.659 376.084C143.615 367.795 146.451 360.749 152.079 355.12C167.59 339.61 228.169 363.672 261.503 380.36C280.438 389.828 296.668 448.553 292.567 478.287C291.585 485.333 289.033 493.994 282.336 495.281C256.398 500.255 211.852 470.106 179.239 438.039Z" fill="#8AA3D4"/>
<path d="M189.884 448.052C221.014 476.062 259.103 499.731 282.314 495.281C289.011 493.994 291.563 485.334 292.545 478.287C295.381 457.781 288.531 423.467 277.798 401.041C254.304 425.386 239.229 467.118 189.884 448.052Z" fill="#778EB8"/>
<path d="M127.996 352.59C126.011 354.291 126.098 355.666 126.512 356.517C129.021 361.534 150.901 368.318 153.083 368.318C155.504 368.318 159.125 360.967 160.391 357.018C161.765 352.743 163.51 348.423 161.787 347.18C154.566 342.031 133.166 348.161 127.996 352.59Z" fill="#0E141B"/>
<path d="M130.112 355.71C130.112 355.71 130.068 355.557 130.068 355.47C130.068 354.924 130.81 354.226 131.159 353.921C135.892 349.885 152.537 345.566 158.798 350.038C159.278 350.387 159.518 351.107 159.518 352.176C159.518 352.612 159.474 353.092 159.387 353.637C158.536 359.091 154.217 366.094 153.039 366.53C150.748 366.464 132.118 359.724 130.112 355.71Z" fill="white"/>
<path d="M124.418 365.439C122.847 366.311 122.127 368.296 124.701 371.438C125.661 372.616 140.037 388.846 142.393 387.406C150.377 382.563 153.541 367.707 151.665 363.955C151.272 363.17 150.639 362.712 149.81 362.581C144.466 361.817 129.544 362.581 124.418 365.439Z" fill="#0E141B"/>
<path d="M127.32 368.275C127.254 365.439 144.815 363.672 149.549 364.348C149.723 364.37 149.898 364.436 150.051 364.741C150.247 365.112 150.334 365.679 150.334 366.355C150.334 370.064 145.23 383.96 142.655 383.96C140.081 383.96 127.385 371.111 127.32 368.253V368.275Z" fill="white"/>
<path d="M127.603 369.169C129.414 373.139 140.299 383.959 142.655 383.959C143.637 383.959 145.011 381.887 146.32 379.138C140.299 376.368 133.777 372.856 127.603 369.169Z" fill="#DCDDDD"/>
<path d="M134.06 352.089C133.34 352.569 133.122 353.158 133.079 353.572C132.511 357.499 144.095 375.714 151.229 380.273C154.61 382.433 169.771 368.581 166.848 358.96C166.521 357.913 165.43 356.386 164.056 356.037C164.056 356.037 138.598 349.035 134.06 352.089Z" fill="#0E141B"/>
<path d="M137.769 355.993C136.394 353.747 164.121 357.259 164.623 360.029C165.757 366.312 156.399 377.481 152.232 377.307C148.065 377.132 139.143 358.24 137.769 355.993Z" fill="white"/>
<path d="M152.232 377.306C154.086 377.393 156.988 375.19 159.518 372.179C154.086 368.471 146.429 362.865 138.554 357.433C141.194 362.45 148.567 377.131 152.232 377.284V377.306Z" fill="#DCDDDD"/>
<path d="M271.494 558.369C264.491 563.823 226.948 596.698 224.984 622.243C224.984 622.396 224.984 622.548 224.984 622.723C225.552 637.688 231.42 648.094 241.28 662.513C240.582 664.237 235.368 670.956 234.125 673.464C230.307 681.23 229.74 684.437 229.74 687.906C229.74 688.844 229.936 689.629 230.329 690.283C230.94 691.265 231.987 691.81 233.274 691.81C238.444 691.81 251.751 688.516 255.569 688.058C257.096 691.614 259.67 703.721 265.887 703.089C271.254 702.543 288.204 693.076 293.09 690.894C295.185 694.974 299.897 708.521 308.186 705.554C308.535 705.423 347.497 689.913 348.566 685.353C350.093 678.852 346.384 655.881 346.406 659.546C347.082 655.903 371.013 638.713 380.655 631.82C381.179 631.449 378.714 627.784 378.714 626.213C378.714 626.039 378.714 625.864 378.692 625.668C377.47 614.651 332.532 572.789 300.747 559.416C287.571 553.875 277.733 553.526 271.494 558.391V558.369Z" fill="#0E141B"/>
<path d="M317.85 572.615C349.133 592.423 375.18 621 375.18 626.061C375.18 626.105 375.18 626.149 375.18 626.192C370.686 629.465 341.629 653.003 341.629 659.264C341.629 661.14 345.446 681.231 343.526 682.998C341.607 684.765 318.374 695.607 308.623 699.076C301.86 701.497 297.41 690.895 295.599 687.819C293.789 684.743 271.625 694.429 267.545 696.523C263.466 698.618 259.517 688.735 258.405 685.463C257.292 682.191 237.593 688.212 235.368 685.725C233.143 683.216 239.819 673.443 244.16 665.699C249.09 670.367 257.51 674.49 254.849 670.629C252.166 666.768 251.664 666.768 244.967 658.042C238.292 649.294 232.86 637.471 232.292 622.571C232.292 622.44 232.292 622.331 232.292 622.2C232.292 607.061 265.975 567.249 273.741 561.184C281.289 555.294 296.974 559.352 317.894 572.615H317.85Z" fill="#8AA3D4"/>
<path d="M317.85 572.615C299.7 561.118 285.52 556.559 277.144 559.373C290.56 578.265 332.51 644.691 317.436 664.041C306.07 678.635 314.185 681.34 308.601 699.097C311.48 699.752 341.585 684.787 343.504 683.02C345.402 681.253 341.606 661.161 341.606 659.285C341.606 653.024 370.664 629.464 375.158 626.214C375.158 626.17 375.158 626.126 375.158 626.083C375.158 621.044 349.133 592.466 317.828 572.636L317.85 572.615Z" fill="#778EB8"/>
<path d="M576.422 238.433C550.113 243.276 522.277 262.342 506.593 287.015C494.245 306.43 484.167 340.614 496.1 386.272C506.44 425.866 509.93 473.117 512.744 511.097C516.213 557.89 518.634 584.591 528.233 588.889C544.507 596.197 578.254 615.525 640.187 579.705C694.462 548.313 725.81 447.332 660.169 415.046C661.02 411.534 673.171 380.382 650.331 352.503C663.267 348.358 688.179 331.975 674.196 288.258C661.151 247.443 613.747 231.583 576.444 238.477L576.422 238.433Z" fill="#0E141B"/>
<path d="M516.3 510.813C513.486 472.703 509.974 425.277 499.546 385.356C487.941 340.941 499.786 309.2 511.763 290.374C526.946 266.53 552.12 248.795 577.491 244.126C613.289 237.538 657.704 253.987 670.073 292.97C674.807 307.891 674.371 320.849 668.786 331.43C663.267 341.879 653.516 347.922 646.862 349.929L646.055 352.83C667.106 376.215 656.155 416.071 656.046 416.464L657.006 417.598C657.224 417.664 680.195 426.259 688.986 462.559C696.513 493.688 676.028 550.56 637.176 575.45C585.366 608.631 545.445 592.706 529.694 585.638C521.579 581.995 519.136 549.011 516.322 510.835L516.3 510.813Z" fill="#AFCFE5"/>
<path d="M593.132 570.368C570.161 576.04 552.884 576.542 537.308 565.438C539.315 579.77 525.462 583.741 529.695 585.639C545.445 592.707 585.388 608.61 637.176 575.451C656.919 562.798 671.906 541.878 680.893 520.281C678.908 522.157 643.917 556.341 593.11 570.39L593.132 570.368Z" fill="#93AFC2"/>
<path d="M625.658 485.334C592.608 499.513 575.767 455.818 585.017 445.718C585.955 447.965 584.537 445.412 585.366 447.07C587.155 454.204 596.753 468.318 607.464 471.896C625.309 477.262 634.1 465.831 633.162 448.99C646.731 459.33 640.339 479.029 625.658 485.334Z" fill="#93AFC2"/>
<path d="M590.165 323.729C588.376 334.44 592.194 365.722 608.577 375.626C624.96 385.53 643.939 384.81 657.268 375.648C655.479 367.555 652.097 359.505 646.055 352.808C646.055 352.808 602.469 362.319 590.165 323.707V323.729Z" fill="#93AFC2"/>
<path d="M596.47 297.922C589.489 305.208 586.609 315.003 587.831 324.71C589.096 334.701 594.136 342.773 602.883 348.183C614.162 355.164 627.229 360.138 648.018 353.31C655.762 350.757 655.086 347.201 646.709 349.994C634.777 353.964 618.917 352.742 606.788 345.26C598.935 340.417 593.59 332.171 592.456 323.227C591.365 314.61 595.968 304.313 600.44 301.041C610.191 293.864 624.851 295.587 630.479 305.404C636.107 315.221 634.995 309.025 632.77 303.048C631.199 298.816 625.898 293.231 617.259 291.748C612.765 290.985 603.32 290.788 596.448 297.943L596.47 297.922Z" fill="#0E141B"/>
<path d="M600.418 418.034C569.877 444.496 589.358 471.044 603.996 474.84C615.95 477.938 625.047 474.557 630.435 469.081C636.173 463.235 637.285 455.578 635.431 450.124C633.991 445.892 630.479 442.62 626.269 441.442C624.109 440.831 623.411 441.442 626.596 444.081C629.781 446.743 630.283 448.357 630.872 450.058C632.442 454.661 631.679 461.729 627.207 466.267C622.757 470.804 615.907 471.262 607.028 468.972C594.703 465.765 581.418 439.871 603.647 421.132C616.779 410.072 647.56 412.711 657.486 417.925C667.412 423.161 669.375 419.976 659.013 414.697C641.866 405.971 614.511 405.862 600.462 418.034H600.418Z" fill="#0E141B"/>
<path d="M617.717 353.157C624.458 361.752 623.564 377 621.949 387.057C620.335 397.114 620.684 395.761 623.629 387.428C627.948 375.233 628.952 359.265 619.659 351.324L617.717 353.157Z" fill="#0E141B"/>
<path d="M599.109 343.515C602.971 355.099 595.51 399.689 573.717 430.753C562.46 446.787 565.318 443.842 575.789 432.455C599.022 407.193 606.308 356.648 601.662 342.687L599.109 343.537V343.515Z" fill="#0E141B"/>
<path d="M546.361 560.922L546.95 563.54C597.997 550.451 619.026 504.073 619.986 493.558C620.946 483.065 618.284 487.362 617.368 492.947C616.452 498.532 592.303 550.582 546.361 560.922Z" fill="#0E141B"/>
<path d="M546.382 571.917L545.728 574.513C558.272 577.654 583.49 580.01 611.5 564.565C619.986 559.897 621.055 557.17 610.016 562.34C590.165 571.611 558.533 574.971 546.382 571.917Z" fill="#0E141B"/>
<path d="M412.897 342.948C418.787 364.61 435.41 375.081 451.488 385.204C464.773 393.58 478.516 402.241 487.002 417.293C493.896 429.531 495.554 448.27 497.299 468.1C499.459 492.511 501.706 517.772 514.38 532.148C523.804 543.012 534.406 553.418 546.819 563.889L548.673 565.46L549.611 563.235C561.631 535.006 563.463 494.932 553.363 455.687C534.188 381.277 482.465 347.726 414.795 340.701L412.199 340.439L412.875 342.948H412.897Z" fill="#0E141B"/>
<path d="M517.085 529.792C505.174 516.288 502.993 491.638 500.877 467.794C499.088 447.55 497.386 428.44 490.122 415.547C481.2 399.688 467.064 390.788 453.408 382.192C437.941 372.463 423.412 363.126 417.304 344.671C482.029 352.502 531.025 396.35 548.63 462.58C553.385 480.447 555.763 497.244 555.763 512.863C555.763 529.857 552.862 545.389 547.233 559.482C535.824 549.687 525.899 539.958 517.107 529.814L517.085 529.792Z" fill="#875B16"/>
<path d="M548.586 462.58C550.855 488.343 546.448 521.873 529.498 543.121C534.974 548.618 540.842 554.028 547.19 559.482C552.818 545.389 555.72 529.857 555.72 512.863C555.72 497.244 553.342 480.446 548.586 462.58Z" fill="#6A4606"/>
<path d="M495.249 377.154C473.63 359.549 447.125 348.271 417.282 344.649C421.362 356.975 429.237 365.243 438.595 372.267C457.967 368.253 476.88 370.914 495.249 377.154Z" fill="#6A4606"/>
<path d="M359.43 341.966C318.658 352.437 286.372 372.267 266.106 399.295C242.895 430.272 229.958 469.736 246.429 523.247C259.365 569.124 289.36 607.933 331.812 624.599C365.232 651.344 414.076 653.395 447.998 640.022C506.68 626.344 532.269 603.788 548.543 565.59L549.066 564.368L544.856 560.813C534.036 551.694 522.823 542.248 513.901 531.93C501.553 517.925 497.845 494.714 494.267 472.288C491.409 454.422 488.464 435.944 481.047 422.637C472.365 407.061 459.451 396.394 446.973 386.097C431.419 373.27 416.737 361.141 411.174 340.679L410.847 339.501L409.626 339.37C391.955 337.537 377.405 337.319 359.451 341.944L359.43 341.966Z" fill="#0E141B"/>
<path d="M326.183 617.117C287.135 592.641 259.343 554.683 249.919 512.995C231.311 430.6 272.584 367.97 360.324 345.435C377.361 341.05 391.366 341.181 408.12 342.861C414.228 363.651 428.997 375.932 444.66 388.89C456.898 398.991 469.529 409.418 477.906 424.427C485.017 437.167 487.788 454.531 490.711 472.899C494.376 495.849 498.172 519.561 511.195 534.33C520.314 544.845 532.116 554.814 542.543 563.584C542.543 563.584 543.765 564.609 544.703 565.416C528.669 601.825 493.22 625.974 436.37 639.216C401.641 647.309 361.48 639.238 326.162 617.117H326.183Z" fill="#FFF2AD"/>
<path d="M542.565 563.584C532.137 554.792 520.336 544.845 511.217 534.33C498.194 519.561 494.398 495.827 490.733 472.899C487.81 454.531 485.017 437.167 477.928 424.427C469.573 409.418 456.92 398.991 444.682 388.89C428.997 375.954 414.228 363.651 408.142 342.861C391.388 341.181 377.383 341.05 360.346 345.435C305.219 359.593 268.44 389.588 253.344 430.382C307.379 478.637 385.913 447.747 410.411 436.338C458.054 414.174 435.869 487.886 462.657 525.386C481.178 537.733 480.044 563.104 474.677 573.815C459.145 605.861 428.233 641.856 398.631 641.834C411.589 642.837 424.329 642.03 436.392 639.216C493.263 625.974 528.691 601.803 544.725 565.416C543.765 564.609 542.565 563.584 542.565 563.584Z" fill="#DDD196"/>
<path d="M307.009 462.755C301.249 460.312 285.368 447.659 276.708 440.744L270.796 436.076L269.182 438.213L272.476 442.991C282.118 450.692 300.835 463.41 306.594 465.504L307.139 465.7L307.663 465.438C343.134 447.528 361.742 425.735 376.663 410.181L374.722 408.327C360.106 423.576 322.344 454.466 306.987 462.733L307.009 462.755Z" fill="#0E141B"/>
<path d="M322.148 549.447C327.536 572.026 344.399 595.433 364.12 611.467L366.999 610.245C347.737 592.03 334.692 570.041 326.009 549.84C320.795 537.711 317.174 526.258 314.731 516.638C307.488 488.104 307.816 466.115 308.077 464.522L305.438 464.086C305.351 464.609 299.613 506.712 322.148 549.469V549.447Z" fill="#0E141B"/>
<path d="M364.905 609.852C345.359 620.52 336.96 623.094 325.66 618.469C314.36 613.844 334.669 624.534 334.669 624.534C335.127 624.49 344.791 627.108 365.69 612.47C401.903 627.108 441.082 624.512 441.518 624.555L441.671 621.872C441.235 621.85 397.649 619.342 365.93 609.765L365.385 609.612L364.883 609.874L364.905 609.852Z" fill="#0E141B"/>
<path d="M253.082 532.54L255.678 533.827C262.615 540.372 287.68 556.82 328.54 550.69L328.191 548.029C297.017 551.999 266.825 536.532 256.9 531.45L254.129 530.075L253.082 532.54Z" fill="#0E141B"/>
<path d="M518.634 398.707C520.728 409.135 516.322 445.587 494.18 464.043L495.903 466.093C517.652 458.109 523.259 411.84 521.012 400.605L518.656 398.729L518.634 398.707Z" fill="#0E141B"/>
<path d="M521.732 531.93L522.823 534.373C546.099 529.465 554.214 486.555 554.738 480.076L553.56 476.563C553.036 482.803 543.743 522.2 521.732 531.93Z" fill="#0E141B"/>
<path d="M413.334 333.131C408.186 337.603 406.048 346.657 407.008 352.503L407.378 355.426C408.491 365.243 407.182 388.825 436.414 404.946L444.18 406.451C463.355 416.791 483.316 425.626 483.512 482.039C483.774 553.309 512.635 564.892 531.287 576.65C542.478 583.697 549.306 580.184 551.4 576.999C554.912 571.655 558.643 559.613 552.36 555.73C535.955 545.63 531.919 536.075 527.12 528.287L524.699 524.426C515.209 509.788 510.126 483.414 506.483 458.436C504.302 443.471 503.146 426.455 500.157 417.533C494.376 400.147 473.259 387.93 459.887 377.939C455.153 374.405 451.052 371.329 448.914 369.148C443.46 363.585 442.108 355.077 440.232 348.925C437.657 340.461 435.89 331.67 424.765 328.158C421.013 326.958 416.213 330.623 413.268 333.175L413.334 333.131Z" fill="#0E141B"/>
<path d="M533.228 573.618C513.704 561.315 490.798 539.762 487.112 481.8C483.403 423.532 466.017 414.152 445.925 403.31L442.108 401.237C414.49 386.01 412.112 365.09 410.978 355.033L410.585 351.914C409.778 347.115 411.698 339.327 415.712 335.836C417.719 334.091 419.965 333.633 422.54 334.462C431.876 337.407 433.84 343.886 436.327 352.067C438.225 358.327 440.384 365.417 446.449 371.613C448.783 373.99 452.775 376.979 457.836 380.775C470.86 390.504 490.515 405.208 495.968 421.525C498.848 430.164 500.877 444.125 503.015 458.938C506.701 484.286 510.868 512.995 520.794 528.287L523.172 532.083C528.167 540.176 533.337 548.553 549.807 559.919C550.789 560.638 551.051 566.943 547.648 571.982C545.335 575.407 540.951 578.483 533.206 573.618H533.228Z" fill="#EFEFEF"/>
<path d="M446.427 371.613C440.363 365.417 438.203 358.327 436.305 352.067C433.818 343.886 431.855 337.407 422.518 334.462C419.922 333.655 417.697 334.091 415.69 335.836C411.676 339.327 409.756 347.115 410.564 351.914L410.956 355.033C411.894 363.214 413.64 378.593 429.128 392.25C431.549 383.218 437.09 375.714 447.169 372.333C446.907 372.093 446.667 371.853 446.449 371.635L446.427 371.613Z" fill="#C9CACA"/>
<path d="M549.808 559.919C534.254 549.186 528.778 541.114 524.001 533.436C529.695 549.208 525.288 562.449 517.042 561.01C522.387 566.245 527.928 570.281 533.229 573.597C540.951 578.461 545.336 575.407 547.67 571.961C551.073 566.921 550.811 560.617 549.83 559.897L549.808 559.919Z" fill="#C9CACA"/>
<path d="M345.402 517.488C334.037 524.774 322.977 538.321 326.511 544.822C326.511 544.822 345.904 536.794 347.322 535.944L347.78 535.66L346.667 516.659L345.38 517.488H345.402Z" fill="#0E141B"/>
<path d="M329.521 541.529L329.216 541.354C329.107 541.158 329.042 540.896 329.042 540.547C329.042 537.079 335.237 526.739 345.075 519.889C345.228 522.441 345.883 533.741 345.948 534.657C340.734 537.755 332.052 542.14 329.543 541.507L329.521 541.529Z" fill="white"/>
<path d="M352.078 547.855C350.332 548.444 347.518 548.574 344.791 548.727C340.101 548.967 334.451 549.12 333.317 551.454C332.75 552.588 332.466 554.072 333.622 555.73C339.927 564.848 362.331 570.956 373.434 567.03C375.332 566.353 376.314 565.328 376.358 563.997C376.554 558.347 356.724 549.578 352.732 547.855L352.427 547.724L352.099 547.833L352.078 547.855Z" fill="#0E141B"/>
<path d="M336.873 554.683C336.458 554.094 336.044 553.33 336.044 552.741C336.044 552.589 336.066 552.458 336.131 552.327C336.807 550.931 341.279 550.691 344.879 550.516C347.562 550.385 350.267 550.211 352.231 549.644C361.589 553.679 374.547 560.704 374.547 563.932V563.976C374.547 564.652 373.587 565.11 372.824 565.394C362.549 569.037 342.719 563.125 336.895 554.705L336.873 554.683Z" fill="white"/>
<path d="M365.276 556.122C361.764 557.562 358.71 558.762 357.444 559.111C353.016 560.376 348.718 560.921 343.941 560.66C352.471 565.546 365.232 568.055 372.824 565.393C373.609 565.132 374.525 564.652 374.547 563.975V563.932C374.547 562.121 370.49 559.133 365.276 556.122Z" fill="#DCDDDD"/>
<path d="M344.268 529.377L339.709 532.824C332.772 537.95 321.777 545.346 321.232 550.298C321.079 551.628 321.45 552.719 322.344 553.548C325.529 556.515 338.313 556.013 354.739 553.09C360.651 552.043 361.458 547.462 361.873 545.106C362.833 539.761 357.859 532.889 352.623 529.814C349.264 527.85 346.297 527.676 344.246 529.355L344.268 529.377Z" fill="#0E141B"/>
<path d="M351.729 531.363C356.354 534.068 360.935 540.263 360.128 544.801C359.67 547.397 357.423 549.076 353.496 549.774C341.672 551.89 328.802 553.919 325.922 551.214C325.529 550.843 325.333 550.385 325.333 549.796C325.333 549.687 325.333 549.556 325.333 549.447C325.791 545.281 334.779 538.649 340.734 534.242L345.359 530.73C347.279 529.159 350.158 530.446 351.707 531.341L351.729 531.363Z" fill="white"/>
<path d="M325.856 551.127C325.856 551.127 325.9 551.192 325.922 551.214C328.801 553.919 341.672 551.89 353.496 549.774C357.423 549.076 359.648 547.396 360.128 544.8C360.258 544.124 360.237 543.382 360.128 542.641C350.049 547.614 336.873 550.014 325.856 551.105V551.127Z" fill="#DCDDDD"/>
<path d="M410.345 425.495C392.719 455.534 362.156 501.607 353.845 508.413C342.785 517.466 334.997 525.516 334.495 533.958C334.037 541.31 337.571 548.313 345.119 556.188C360.04 571.764 396.515 578.199 431.724 559.351C474.634 536.38 504.258 495.084 497.801 454.4C491.758 416.311 470.925 397.899 454.171 398.772C432.924 399.863 419.573 409.81 410.367 425.495H410.345Z" fill="#0E141B"/>
<path d="M349.765 554.617C342.937 547.484 339.796 540.961 340.188 534.657C340.647 527.261 345.839 519.583 356.091 511.206C365.428 503.57 396.449 459.766 413.246 432.018C427.797 407.956 443.918 403.593 457.334 405.229C470.75 406.887 486.304 419.692 491.998 455.687C498.193 494.757 464.01 535.137 428.691 554.748C395.358 573.269 363.748 569.233 349.765 554.617Z" fill="#8AA3D4"/>
<path d="M491.998 455.687C490.318 445.151 487.81 436.599 484.734 429.728C493.7 505.229 425.812 553.745 357.357 560.529C373.456 569.932 400.441 570.433 428.691 554.748C464.01 535.137 498.194 494.758 491.998 455.687Z" fill="#778EB8"/>
<path d="M191.695 364.283C186.765 400.103 190.277 410.574 215.255 424.121C257.881 447.201 316.999 457.083 358.513 434.767C408.207 408.065 435.672 364.305 431.92 316.967C428.692 276.26 408.884 245.632 406.397 242.316C393.897 225.65 352.732 196.789 298.719 200.955C244.225 205.144 196.865 241.749 186.241 289.153C179.108 321.09 183.929 333.895 187.419 344.802C189.317 350.736 192.567 357.891 191.673 364.283H191.695Z" fill="#0E141B"/>
<path d="M220.883 422.616C195.883 409.636 190.931 395.5 194.967 366.704L195.229 364.785C196.232 357.586 194.531 352.307 192.568 346.199C189.208 335.706 185.02 322.638 191.957 291.64C202.231 245.741 246.363 210.837 299.308 206.78C351.772 202.744 386.196 228.9 398.26 244.978C400.681 248.206 421.994 277.634 425.157 317.337C428.8 363.192 403.146 404.422 354.761 430.404C308.644 455.186 248.915 437.166 220.883 422.616Z" fill="#8AA3D4"/>
<path d="M425.158 317.337C422.016 277.656 400.681 248.206 398.26 244.977C390.101 234.113 371.755 218.668 344.552 211.033C401.336 262.102 422.976 353.179 374.656 413.148C370.075 418.558 364.992 423.379 359.56 427.742C404.826 401.651 428.67 361.665 425.158 317.359V317.337Z" fill="#778EB8"/>
<path d="M229.674 387.188C219.552 386.185 210.237 375.844 207.991 369.06C204.74 359.112 202.362 343.624 202.362 333.895C202.362 327.263 205.94 320.042 206.725 316.813C211.786 323.053 227.82 342.337 233.994 348.074C235.477 353.135 236.721 362.407 236.721 369.518C236.721 372.485 235.935 376.848 235.063 380.535C234.474 383.065 230.787 387.297 229.674 387.188Z" fill="white"/>
<path d="M314.36 340.962C322.344 334.2 344.181 315.243 350.158 313.148C353.758 315.352 357.161 324.361 357.161 335.225C357.161 356.625 355.437 369.343 345.991 380.033C340.56 388.213 321.93 385.77 315.036 377.219C310.346 372.528 308.623 356.058 308.623 347.223C308.623 346.7 311.895 343.013 314.338 340.962H314.36Z" fill="white"/>
<path d="M243.636 347.18C244.509 349.144 245.905 347.682 245.294 345.61C244.487 342.904 244.138 341.225 243.614 339.065C243.069 336.905 239.928 337.473 240.8 339.763C241.651 342.054 242.502 344.606 243.658 347.18H243.636Z" fill="#0E141B"/>
<path d="M291.084 339.697C291.171 342.926 292 346.613 294.007 348.838C295.73 350.758 295.818 349.798 295.534 347.922C295.272 346.046 293.789 341.901 293.549 339.196C293.309 336.491 290.996 336.469 291.062 339.697H291.084Z" fill="#0E141B"/>
<path d="M214.84 407.65C220.599 416.9 226.751 422.288 227.951 422.484C230.22 422.855 234.757 416.594 235.935 414.216L234.648 413.431L234.059 412.973C230.176 410.072 217.764 406.298 217.24 406.145L214.971 405.469L214.84 407.672V407.65Z" fill="#0E141B"/>
<path d="M219.029 408.589C222.585 409.745 229.216 412.057 232.292 413.999C230.678 416.791 228.54 420.042 227.667 420.216C226.664 419.474 222.454 413.955 219.029 408.589Z" fill="white"/>
<path d="M352.754 408.24L344.748 409.788C339.905 410.814 333.884 412.057 331.812 412.057H331.223L328.343 413.039C327.383 415.264 339.752 426.739 343.744 426.739C347.736 426.739 354.172 413.911 355.153 409.919C355.393 408.894 353.975 409.112 353.561 408.589L353.234 408.152L352.732 408.24H352.754Z" fill="#0E141B"/>
<path d="M345.141 411.556C345.141 411.556 350.791 410.465 352.143 410.203C351.816 412.974 345.01 423.096 343.243 424.034C341.541 423.968 334.124 416.464 332.924 413.781C335.629 413.541 340.56 412.515 345.119 411.556H345.141Z" fill="white"/>
<path d="M243.353 405.666C243.636 407.084 245.076 409.375 246.494 410.225C247.912 411.076 249.352 411.076 248.479 409.091C247.629 407.084 246.472 406.255 245.622 404.401C244.771 402.546 243.069 404.248 243.353 405.666Z" fill="#0E141B"/>
<path d="M267.632 411.359C267.305 412.777 268.178 413.628 269.879 412.21C271.581 410.792 272.17 409.352 273.588 407.934C275.006 406.516 275.791 403.68 272.257 405.534C268.723 407.367 267.938 409.941 267.632 411.359Z" fill="#0E141B"/>
<path d="M350.158 313.171C340.909 318.21 333.295 325.038 327.711 329.794L324.7 331.43C321.974 337.429 321.69 343.93 321.69 349.427C321.69 367.533 330.241 383.785 339.971 383.785C349.7 383.785 360.957 364.305 360.957 342.883C360.957 330.012 358.95 319.802 354.412 311.251L350.747 312.822L350.137 313.149L350.158 313.171Z" fill="#0E141B"/>
<path d="M350.158 313.171C353.256 317.076 355.808 330.056 355.808 342.883C355.808 359.069 348.02 381.19 340.8 381.19C333.579 381.19 325.595 366.203 325.595 347.442C325.595 342.185 326.947 335.706 328.082 330.928C333.448 326.391 341.389 317.992 350.158 313.171Z" fill="#BB5400"/>
<path d="M217.546 330.339C209.431 346.918 218.266 388.781 230.351 387.297C235.128 386.708 238.51 377.83 238.553 367.337C238.553 352.437 236.197 348.62 236.197 348.62L234.932 347.856C231.136 342.97 226.991 338.629 223.348 334.811L219.269 330.492L217.546 330.383V330.339Z" fill="#0E141B"/>
<path d="M218.44 358.196C217.982 354.487 217.764 350.932 217.764 347.659C217.764 341.9 218.484 337.079 219.836 333.654C220.774 334.658 222.061 336.032 222.061 336.032C225.639 339.784 229.675 344.038 233.383 348.794C233.47 349.208 233.863 351.259 233.863 351.259L234.801 356.189C235.281 360.028 235.499 363.628 235.499 366.922C235.499 377.873 233.1 385.181 230.133 385.552C226.271 386.032 220.512 374.928 218.44 358.218V358.196Z" fill="#BB5400"/>
<path d="M228.169 342.424C224.221 343.035 223.196 352.023 224.221 360.574C225.137 368.144 227.428 374.296 230.046 376.237C231.005 376.957 231.878 377.001 232.423 376.914C236.372 376.281 237.397 367.315 236.372 358.764C235.456 351.194 233.165 345.042 230.547 343.101C229.587 342.381 228.715 342.337 228.169 342.424Z" fill="#0E141B"/>
<path d="M332.837 348.053C332.837 358.371 335.782 369.344 341.214 369.344C346.646 369.344 349.591 358.371 349.591 348.053C349.591 337.735 346.668 326.762 341.214 326.762C335.76 326.762 332.837 337.735 332.837 348.053Z" fill="#0E141B"/>
<path d="M412.963 193.255C383.535 229.991 365.8 288.28 389.294 313.847C398.195 323.533 408.055 330.841 418.875 329.99C431.004 329.052 441.803 321.177 447.278 314.589C456.157 303.943 455.699 284.615 454.979 283.219C474.59 266.596 507.073 224.035 494.398 201.479C496.645 195.262 501.139 181.256 504.106 164.241C511.872 119.651 449.22 147.989 412.942 193.255H412.963Z" fill="#0E141B"/>
<path d="M391.934 311.447C370.053 287.626 387.571 230.427 417.239 197.116C449.088 161.383 484.363 145.72 495.663 150.236C503.058 153.181 496.907 185.008 490.755 201.13L490.362 202.133L491.082 202.94C492.5 204.533 493.089 207.434 492.784 211.274C491.235 230.274 473.914 263.738 454.978 279.096C454.978 279.096 454.978 273.773 453.211 267.839C451.444 261.928 448.478 263.695 449.067 270.217C449.656 276.718 451.532 297.835 443.613 309.724C439.468 315.919 430.066 322.987 419.18 323.838C409.342 324.602 400.18 320.435 391.934 311.447Z" fill="#AFCFE5"/>
<path d="M391.934 311.447C370.053 287.626 387.571 230.427 417.239 197.116C449.088 161.383 484.363 145.72 495.663 150.236C503.058 153.181 496.907 185.008 490.755 201.13L490.362 202.133L491.082 202.94C492.5 204.533 493.089 207.434 492.784 211.274C491.235 230.274 473.914 263.738 454.978 279.096C454.978 279.096 454.978 273.773 453.211 267.839C451.444 261.928 448.478 263.695 449.067 270.217C449.656 276.718 451.532 297.835 443.613 309.724C439.468 315.919 430.066 322.987 419.18 323.838C409.342 324.602 400.18 320.435 391.934 311.447Z" fill="#AFCFE5"/>
<path d="M430.284 214.764C412.439 237.975 398.347 282.913 409.211 289.261C420.794 296.024 443.656 235.859 447.867 218.276C452.077 200.715 487.221 165.571 474.568 164.873C458.709 177.329 441.628 197.77 430.306 214.764H430.284Z" fill="#93AFC2"/>
<path d="M403.757 279.052C403.757 279.052 406.157 295.086 407.313 278.79C410.585 232.914 465.646 173.643 470.685 169.542C475.724 165.44 479.651 159.289 468.809 166.509C457.967 173.73 400.528 235.095 403.757 279.052Z" fill="#0E141B"/>
<path d="M446.34 596.742C435.847 616.702 434.472 637.819 444.245 649.076C451.27 657.169 457.683 663.168 462.984 668.796C475.593 682.212 484.865 689.019 486.086 698.835C486.61 703.046 485.301 705.423 484.559 711.772C483.818 718.12 483.883 721.785 486.675 724.773C488.573 726.802 491.322 727.413 495.816 727.413C508.926 727.413 519.354 725.45 522.124 724.904C527.316 728.831 548.171 744.603 554.759 738.669C559.995 733.957 569.397 721.959 572.255 718.992C583.86 724.708 596.644 728.591 600.156 729.747C605.544 731.558 607.355 728.896 607.137 724.708C606.744 716.942 605.479 716.702 601.749 705.271L597.255 694.494C596.884 693.164 597.102 687.317 596.818 683.478C595.793 669.211 596.033 645.847 578.996 615.699C559.231 580.73 531.265 555.555 509.581 553.112C486.108 550.472 458.49 573.553 446.318 596.742H446.34Z" fill="#0E141B"/>
<path d="M490.842 721.173C489.097 719.319 490.21 702.958 489.621 698.399C488.246 687.426 481.026 679.725 467.893 665.764C462.614 660.135 456.636 653.766 449.634 645.738C440.864 635.637 441.453 618.491 451.226 599.883C462.854 577.741 487.025 555.555 508.927 558.02C531.898 560.616 561.566 597.789 572.43 618.971C584.886 643.229 591.605 669.232 593.525 692.509C594.048 698.748 603.778 722.242 601.749 724.446C599.72 726.649 574.131 716.178 574.131 716.178C574.131 716.178 574.611 711.64 570.488 715.654C566.365 719.668 558.294 728.438 552.338 733.804C548.935 736.858 530.305 726.256 525.659 722.373C521.012 718.49 512.373 723.006 497.561 723.006C494.18 723.006 491.955 722.417 490.82 721.173H490.842Z" fill="#8AA3D4"/>
<path d="M549.764 725.646C545.946 725.646 528.669 717.837 524.851 716.2C521.034 714.564 509.581 716.746 503.582 716.2C497.583 715.655 498.674 703.112 497.038 689.477C495.532 676.868 467.457 643.317 443.831 621.938C442.588 631.537 444.507 639.848 449.634 645.76C456.636 653.81 462.614 660.158 467.893 665.786C481.004 679.748 488.246 687.448 489.62 698.421C490.188 702.981 489.097 719.342 490.842 721.196C491.998 722.439 494.202 723.028 497.583 723.028C512.395 723.028 521.034 718.535 525.68 722.396C530.327 726.279 548.957 736.881 552.36 733.827C558.315 728.46 566.409 719.691 570.51 715.677C574.633 711.663 574.153 716.2 574.153 716.2C574.153 716.2 599.742 726.672 601.771 724.468C602.076 724.141 602.12 723.334 601.945 722.178C590.885 720.563 574.48 711.837 571.732 711.837C568.459 711.837 553.56 725.646 549.742 725.646H549.764Z" fill="#778EB8"/>
<path d="M347.606 408.851C338.16 410.836 281.768 417.097 276.249 417.358C270.73 417.642 261.83 423.445 259.299 423.379C256.768 423.336 253.191 419.867 250.399 417.882C247.628 415.897 231.071 410.29 223.086 407.629C219.661 406.495 215.386 405.273 212.681 401.892C209.976 398.51 207.554 399.034 209.19 402.611C210.826 406.189 213.139 408.283 221.472 410.181C229.434 412.014 247.344 418.471 249.635 420.478C251.904 422.463 258.47 429.313 261.895 427.895C265.32 426.477 274.722 421.329 278.431 420.761C282.139 420.194 339.927 414.108 348.325 412.341C357.248 410.465 365.712 407.651 371.973 397.856C374.198 394.365 371.755 392.664 368.591 396.721C365.428 400.801 356.397 406.974 347.606 408.829V408.851Z" fill="#0E141B"/>
<path d="M216.76 388.541C216.324 390.941 212.07 392.162 207.227 391.312C202.384 390.439 198.807 387.821 199.243 385.422C199.679 383.022 203.933 381.8 208.776 382.651C213.619 383.524 217.197 386.141 216.782 388.541H216.76Z" fill="#3171B9"/>
<path d="M380.371 379.313C381.244 382.214 375.616 386.425 367.828 388.759C360.04 391.093 353.016 390.635 352.165 387.734C351.292 384.854 356.921 380.622 364.708 378.288C372.496 375.954 379.521 376.412 380.371 379.313Z" fill="#3171B9"/>
<path d="M351.991 335.356C351.991 340.853 348.086 345.326 343.287 345.326C338.487 345.326 334.583 340.853 334.583 335.356C334.583 329.859 338.487 325.387 343.287 325.387C348.086 325.387 351.991 329.859 351.991 335.356Z" fill="white"/>
<path d="M223.021 355.688C225.877 355.688 228.191 352.885 228.191 349.427C228.191 345.969 225.877 343.166 223.021 343.166C220.166 343.166 217.851 345.969 217.851 349.427C217.851 352.885 220.166 355.688 223.021 355.688Z" fill="white"/>
<path d="M277.82 443.864C277.82 443.864 303.998 464.217 306.899 464.217C309.801 464.217 340.712 440.94 340.712 440.94C340.712 440.94 318.898 444.933 305.438 444.933C291.978 444.933 277.798 443.842 277.798 443.842L277.82 443.864Z" fill="#0E141B"/>
<path d="M236.633 351.325C240.167 353.681 240.8 352.176 237.266 348.053C233.841 344.061 205.438 312.015 203.278 309.703C199.897 306.081 199.265 308.764 200.726 311.164C202.733 314.436 204.26 317.229 204.26 317.229C199.614 321.832 197.999 347.333 206.987 370.261C207.99 372.878 210.085 373.271 209.147 369.257C202.537 340.418 204.173 326.238 207.423 320.326C212.484 326.565 223.261 338.433 236.612 351.347L236.633 351.325Z" fill="#0E141B"/>
<path d="M310.259 347.049C311.349 345.718 355.437 312.058 358.011 309.527C361.153 306.451 360.76 304.357 355.721 307.237C350.005 310.509 326.751 327.372 311.786 340.046C309.321 342.14 305.35 345.216 302.667 347.441C300.42 349.318 301.249 350.212 306.419 348.663C305.067 357.127 307.772 369.562 313.793 376.935C315.014 378.68 316.607 378.309 315.821 376.717C312.266 369.191 309.168 355.927 310.259 347.027V347.049Z" fill="#0E141B"/>
</g>
<defs>
<clipPath id="clip0_42_58927">
<rect width="574.102" height="620" fill="white" transform="translate(123 120)"/>
</clipPath>
</defs>
</svg>
