<svg width="800" height="800" viewBox="0 0 800 800" fill="none" xmlns="http://www.w3.org/2000/svg">
<g clip-path="url(#clip0_42_65769)">
<path d="M294.785 448.387C280.837 402.869 256.992 389.15 217.528 403.328C199.947 409.655 143.383 432.644 142.088 433.103C140.793 433.563 140 435.003 140 436.381C140 438.052 140.94 471.397 140.96 472.441C141.002 474.07 141.503 474.3 142.652 475.093C143.925 475.991 155.827 482.38 156.662 482.756C157.477 483.132 158.166 482.756 159.001 482.464C159.836 482.151 227.906 457.888 229.827 457.199C237.009 454.631 244.234 455.883 246.238 461.458C249.788 471.335 246.28 480.397 232.228 487.705C228.866 489.459 208.905 496.997 202.954 499.126C197.003 501.256 147.287 515.684 145.93 515.977C144.594 516.269 144.176 517.146 144.427 518.336C144.677 519.526 147.162 554.709 147.35 555.732C147.538 556.756 147.788 558.468 148.624 559.261C149.459 560.055 161.903 570.453 162.446 570.975C162.989 571.497 164.012 571.768 165.328 571.393C181.531 566.653 202.996 560.932 222.435 553.958C241.874 546.963 264.237 538.903 281.254 532.034C305.872 522.095 304.16 478.768 294.827 448.346L294.785 448.387Z" fill="#0E141B"/>
<path d="M163.511 429.387L166.434 462.44C159.147 465.071 152.069 467.597 145.638 469.915L144.552 436.695C144.552 436.695 152.612 433.584 163.511 429.387Z" fill="#E60021"/>
<path d="M158.855 479.438L147.141 472.484C150.315 471.336 158.27 468.475 167.416 465.197L174.87 473.549C165.578 476.974 158.855 479.438 158.855 479.438Z" fill="#C7001A"/>
<path d="M227.446 454.485C223.98 455.738 198.527 464.925 178.754 472.191C177.334 470.584 173.325 466.094 171.32 463.881C186.062 458.577 203.288 452.334 206.629 451.123C227.425 443.648 239.348 445.486 245.445 455.613C241.457 452.877 234.399 451.979 227.446 454.485Z" fill="#898885"/>
<path d="M204.269 503.387C248.493 487.497 255.614 476.723 249.746 458.703C244.004 441.038 226.256 440.955 205.501 448.409C195.04 452.167 181.823 456.991 170.151 461.188C169.587 454.924 167.624 431.788 167.27 427.905C185.769 420.785 210.763 411.284 218.739 408.403C259.685 393.682 281.547 411.43 288.5 450.998C293.908 481.796 287.873 503.595 272.276 511.258C266.513 514.077 213.269 533.078 178.628 545.23C177.73 538.215 175.141 517.689 174.452 512.282C187.544 508.481 201.388 504.431 204.29 503.387H204.269Z" fill="#B5B5B0"/>
<path d="M169.462 513.723L173.68 546.964C164.221 550.263 156.6 552.915 152.424 554.335L149.146 519.569C149.146 519.569 158.458 516.896 169.462 513.723Z" fill="#00A5E3"/>
<path d="M165.056 567.635L155.075 558.844C159.272 557.404 166.643 554.835 175.789 551.641L185.352 561.266C174.118 564.816 165.056 567.635 165.056 567.635Z" fill="#0090C6"/>
<path d="M279.229 527.253C250.059 539.405 222.038 549.49 190.718 559.575L190.801 559.492C190.801 559.492 184.6 553.269 181.134 549.761C215.586 537.672 268.309 518.901 274.531 515.831C293.741 506.414 299.232 482.444 291.026 444.525C305.789 487.246 296.455 520.049 279.229 527.232V527.253Z" fill="#898885"/>
<path d="M432.928 534.874C492.395 513.514 524.592 451.646 503.232 392.2C481.871 332.733 416.871 303.668 357.425 325.029C297.959 346.389 267.494 408.257 288.876 467.703C310.236 527.17 373.482 556.235 432.949 534.874H432.928Z" fill="#0E141B"/>
<path d="M431.968 530.572C487.718 510.548 516.658 449.119 496.633 393.369C476.609 337.639 415.18 308.679 359.43 328.703C303.701 348.727 274.74 410.156 294.764 465.886C314.788 521.615 376.217 550.576 431.968 530.551V530.572Z" fill="#BCE2E8"/>
<path d="M387.806 322.689C378.347 323.399 368.805 325.362 359.451 328.745C303.721 348.769 274.761 410.198 294.785 465.927C297.123 472.463 300.047 478.623 303.45 484.386C300.255 472.943 285.577 438.992 309.192 388.901C325.813 353.655 354.586 329.517 387.597 324.318" fill="#E0F1F4"/>
<path d="M374.046 339.728C384.089 336.115 391.69 329.475 394.905 322.418C383.129 322.501 371.144 324.527 359.43 328.745C353.437 330.895 347.758 333.568 342.412 336.616C348.99 342.672 361.518 344.217 374.046 339.728Z" fill="#A2C4CA"/>
<path d="M413.823 519.84C390.854 528.088 367.051 529.09 344.876 524.079C370.726 537.985 402.151 541.284 431.968 530.572C487.718 510.548 516.658 449.119 496.633 393.369C496.028 391.677 495.381 390.007 494.692 388.357C501.666 444.462 469.26 499.899 413.823 519.819V519.84Z" fill="#A2C4CA"/>
<path d="M414.324 496.683C443.681 486.139 461.242 454.985 450.697 425.607C440.361 396.834 407.538 381.592 377.783 392.282C348.405 402.848 332.557 434.189 343.853 465.613C353.625 492.82 386.052 506.831 414.324 496.662V496.683Z" fill="#0E141B"/>
<path d="M414.115 492.34C440.57 482.84 454.288 453.691 444.788 427.236C435.288 400.781 406.139 387.062 379.684 396.563C353.228 406.063 339.51 435.212 349.011 461.667C358.511 488.122 387.66 501.841 414.115 492.34Z" fill="white"/>
<path d="M397.014 445.861C398.643 445.276 399.499 443.48 398.914 441.852C398.33 440.223 396.534 439.367 394.884 439.952C393.256 440.536 392.4 442.332 392.984 443.981C393.569 445.61 395.365 446.466 397.014 445.882V445.861Z" fill="#0E141B"/>
<path d="M367.155 559.053C382.419 553.562 389.769 538.027 384.298 522.784C378.807 507.521 362.938 500.86 347.674 506.352C332.411 511.843 324.79 528.15 330.281 543.414C335.773 558.677 351.913 564.565 367.176 559.074L367.155 559.053Z" fill="#0E141B"/>
<path d="M365.485 555.149C377.804 550.722 384.215 537.129 379.788 524.81C375.361 512.49 361.768 506.08 349.449 510.507C337.13 514.933 330.72 528.526 335.146 540.846C339.573 553.165 353.166 559.575 365.485 555.149Z" fill="#DCDDDD"/>
<path d="M492.792 509.984C507.449 504.722 514.758 490.19 509.496 475.532C504.777 462.419 488.762 454.526 474.876 459.517C458.882 465.259 453.767 483.216 457.817 494.491C463.121 509.274 481.015 514.202 492.792 509.984Z" fill="#0E141B"/>
<path d="M491.309 506.351C503.148 502.091 509.308 489.041 505.048 477.202C500.789 465.363 487.739 459.203 475.899 463.463C464.06 467.722 457.901 480.773 462.16 492.612C466.42 504.451 479.47 510.61 491.309 506.351Z" fill="#DCDDDD"/>
<path d="M485.024 465.448L479.199 467.744C477.737 468.517 476.526 470.459 476.526 472.338C476.526 472.797 476.589 473.257 476.756 473.674C476.756 473.674 479.178 480.419 479.219 480.523C479.219 480.523 479.219 480.523 479.219 480.544C479.219 481.003 478.635 482.006 478.155 482.256L473.018 484.448C471.953 484.824 471.034 485.722 470.471 486.912C470.137 487.601 469.99 488.311 469.99 488.979C469.99 489.397 470.053 489.815 470.178 490.17C470.596 491.318 473.373 496.977 473.874 497.791C474.876 499.461 477.215 500.15 479.303 499.399L485.087 497.311C485.149 497.311 485.233 497.29 485.316 497.269C485.671 497.895 487.592 501.341 487.592 501.341L488.24 502.51C489.158 504.139 491.1 504.744 493.105 504.034C493.627 503.846 498.199 502.155 499.536 500.234C500.914 498.25 500.747 493.051 500.455 491.694C500.308 491.047 500.726 489.439 501.185 488.812C501.666 488.165 503.169 486.871 504.338 485.931C505.925 484.678 506.739 482.131 506.217 479.98C505.842 478.414 504.714 475.157 504.046 473.988C503.044 472.213 500.601 471.586 498.095 472.484L494.984 473.988C494.984 473.988 494.253 474.363 494.044 474.468C493.836 474.468 493.522 474.342 493.439 474.238L492.624 472.025C491.977 470.125 491.518 468.83 490.954 467.974C489.722 466.116 487.217 464.591 485.003 465.385L485.024 465.448Z" fill="#0E141B"/>
<path d="M486.277 469.351C486.527 469.393 487.196 469.769 487.551 470.311C487.843 470.771 488.386 472.337 488.741 473.381L489.785 476.137C490.912 478.371 493.752 478.977 495.297 478.413L496.905 477.62L499.452 476.367C499.974 476.179 500.35 476.179 500.538 476.221C500.977 477.118 501.895 479.645 502.188 480.939C502.209 481.065 502.229 481.211 502.229 481.336C502.229 481.963 501.937 482.568 501.749 482.714C500.872 483.403 498.763 485.136 497.824 486.368C496.968 487.517 496.258 489.605 496.258 491.4C496.258 491.818 496.299 492.215 496.383 492.591C496.466 492.946 496.508 493.572 496.508 494.282C496.508 495.681 496.362 497.372 496.091 497.915C495.589 498.458 493.23 499.627 491.664 500.191C491.664 500.191 491.622 500.191 491.581 500.191C491.393 499.857 488.741 495.117 488.741 495.117C487.718 493.196 485.4 492.82 483.625 493.447L477.841 495.535C477.528 495.639 477.319 495.576 477.236 495.535C476.756 494.679 474.417 489.897 474.02 488.895C474.041 488.686 474.229 488.331 474.375 488.227C474.688 488.101 479.867 485.888 479.867 485.888C481.642 485.011 483.228 482.652 483.228 480.48C483.228 480.021 483.166 479.582 482.999 479.165C482.999 479.165 480.556 472.399 480.535 472.295C480.535 472.024 480.827 471.46 481.036 471.335C481.036 471.335 485.985 469.414 486.214 469.33L486.277 469.351Z" fill="#898989"/>
<path d="M341.118 518.607C339.74 519.192 338.675 520.361 338.069 521.948C337.673 523.013 337.485 524.162 337.485 525.247C337.485 526.542 337.735 527.753 338.132 528.588L339.99 533.704C339.99 533.704 340.178 534.247 340.345 534.727C339.969 534.998 339.364 535.312 338.946 535.52C336.67 536.627 334.937 538.715 334.937 541.075C334.937 541.743 335.084 542.432 335.376 543.121C337.61 548.236 340.742 548.403 347.34 546.817C347.716 546.733 349.073 547.944 349.762 549.301C352.226 554.145 357.655 555.628 361.497 554.25C362.249 553.978 363.272 553.331 363.877 551.786C364.859 549.343 364.358 545.459 363.585 543.977V543.998C363.585 543.977 363.585 543.956 363.585 543.914C363.585 543.705 363.731 543.33 363.877 543.163C364.044 543.079 364.775 542.682 364.775 542.682C366.55 541.764 368.095 540.928 368.993 540.156C370.288 539.049 370.893 536.982 370.893 534.977C370.893 533.954 370.747 532.973 370.434 532.138C368.93 527.941 365.861 527.544 362.75 527.732C361.81 527.795 356.653 528.212 355.045 528.776C354.669 528.901 353.583 528.588 353.312 528.254L352.435 526.27L350.952 522.888C349.24 519.589 344.793 516.979 341.118 518.545V518.607Z" fill="#0E141B"/>
<path d="M339.113 541.493C338.591 540.282 340.554 539.301 340.575 539.301C342.266 538.466 345.461 536.92 344.396 533.955L343.874 532.431L341.849 526.877C341.556 526.272 341.452 524.622 341.89 523.432C342.099 522.889 342.371 522.534 342.726 522.388C344.166 521.782 346.484 523.244 347.298 524.852L348.593 527.838L349.971 530.719C351.245 532.494 354.314 533.454 356.402 532.703C357.112 532.452 360.829 532.014 362.979 531.888C365.736 531.721 366.07 532.202 366.55 533.58C366.717 534.018 366.759 534.519 366.759 534.999C366.759 535.939 366.529 536.816 366.279 537.087C365.673 537.589 363.836 538.57 362.833 539.092L361.601 539.76C360.369 540.512 359.451 542.224 359.451 543.936C359.451 544.583 359.597 545.252 359.889 545.857C360.119 546.358 360.265 547.528 360.265 548.572C360.265 549.386 360.161 550.117 359.931 550.43C357.822 551.119 354.753 550.221 353.354 547.465C352.372 545.523 349.637 542.057 346.317 542.83C340.283 544.27 340.032 543.727 339.051 541.472L339.113 541.493Z" fill="#898989"/>
<path d="M325.729 278.717C324.33 280.846 322.242 285.691 322.681 286.881C323.119 288.092 328.068 289.031 329.237 289.971C330.385 290.911 331.179 293.082 330.072 294.565C328.966 296.047 325.896 299.597 326.564 300.724C327.233 301.852 332.077 304.733 333.163 305.422C334.227 306.132 336.128 307.615 334.415 310.413C332.703 313.211 331.701 315.737 332.056 316.698C332.411 317.658 335.856 319.684 337.485 320.456C339.134 321.229 341.014 322.732 339.594 324.047C338.174 325.384 336.712 328.892 337.631 329.915C338.55 330.938 343.728 334.801 343.728 334.801C343.728 334.801 349.512 339.52 362.04 335.03C374.568 330.52 382.377 321.187 380.122 314.923C380.122 314.923 381.333 311.498 380.477 309.076C379.621 306.675 373.065 303.585 373.065 303.585C373.065 303.585 376.969 297.008 376.03 295.17C375.09 293.333 368.346 291.955 368.346 291.955C368.346 291.955 368.346 288.154 366.947 287.298C366.947 287.298 370.371 280.909 369.578 278.737C368.805 276.566 362.833 275.125 362.833 275.125C362.833 275.125 366.174 271.534 365.381 269.362C364.608 267.191 357.279 265.75 357.279 265.75L325.75 278.717H325.729Z" fill="#DCDDDD"/>
<path d="M342.559 331.585C342.559 331.585 343.582 335.156 345.294 335.782C347.006 336.387 355.129 337.014 361.518 334.717C367.907 332.42 376.907 325.655 378.765 322.523C380.644 319.391 379.015 316.029 379.015 316.029C379.015 316.029 375.946 318.076 371.833 321.061C367.74 324.026 358.929 327.2 356.611 328.307C354.293 329.413 342.559 331.585 342.559 331.585Z" fill="#B5B6B6"/>
<path d="M353.855 269.152C351.391 271.387 343.227 278.966 339.74 280.219C336.253 281.472 327.546 283.372 325.917 279.613L335.021 275.396L353.876 269.173L353.855 269.152Z" fill="#B5B6B6"/>
<path d="M343.916 294.856C340.429 296.108 334.645 294.835 330.239 292.747L330.281 289.051L341.765 286.963C341.765 286.963 352.331 281.931 352.706 281.805C353.061 281.68 359.534 277.713 359.534 277.713L359.367 280.636L350.911 289.656L343.937 294.835L343.916 294.856Z" fill="#B5B6B6"/>
<path d="M349.553 309.43C345.461 310.892 335.522 308.261 333.872 307.092L335.125 303.375L347.8 300.034L359.785 293.269L366.905 287.318L368.805 291.077L364.692 298.176L355.985 304.983L349.553 309.43Z" fill="#B5B6B6"/>
<path d="M355.191 321.687C349.888 323.587 342.496 323.441 338.57 322L339.072 319.244L348.739 315.507L364.775 308.24L369.452 305.338L370.475 307.823L364.462 315.298L355.191 321.708V321.687Z" fill="#B5B6B6"/>
<path d="M300.798 258.17C300.798 258.17 293.386 271.345 294.952 275.688C296.518 280.031 311.781 284.145 335.397 275.667C359.012 267.19 382.711 250.862 378.848 240.109C374.986 229.355 345.398 229.815 338.487 232.299C331.576 234.784 329.905 239.19 329.905 239.19C329.905 239.19 320.175 240.881 317.753 241.737C315.352 242.614 302.907 253.43 300.798 258.17Z" fill="#DCDDDD"/>
<path d="M382.899 307.531C382.127 305.401 379.412 303.606 375.549 302.687C378.828 299.492 379.057 296.987 378.118 294.398C377.136 291.662 373.42 290.493 370.455 290.785C370.413 290.389 370.329 290.013 370.204 289.637C369.995 289.073 369.557 288.405 369.035 287.799C371.874 284.563 373.232 281.285 372.188 278.382C371.624 276.796 368.638 275.209 365.819 274.916C368.22 272.599 369.452 270.448 368.889 268.903C368.367 267.42 362.645 265.395 359.576 265.708C359.701 265.541 359.827 265.374 359.931 265.207L355.024 267.107C352.853 269.884 342.663 277.276 339.969 278.236C338.758 278.675 338.445 280.825 340.617 280.053C345.023 278.466 352.957 273.1 357.571 268.13C360.244 268.005 363.146 268.569 363.669 270.009C364.587 272.578 355.149 280.283 342.83 284.709C337.109 286.755 331.388 287.361 328.715 287.549C326.731 287.131 324.372 286.839 324.163 286.526C323.871 286.087 328.84 278.32 328.84 278.32L324.163 279.322C323.265 280.596 320.885 284.438 320.279 285.523C319.57 286.797 320.008 288.301 321.198 288.864C322.514 289.491 328.339 291.6 328.444 292.477C328.548 293.416 326.544 297.488 325.395 299.263C324.685 300.348 324.706 301.894 325.75 302.562C326.815 303.272 331.764 305.756 332.286 306.111C332.828 306.466 333.518 306.884 333.058 307.865C332.599 308.847 330.72 313.252 330.177 314.568C329.362 316.593 329.822 318.744 331.993 319.621C334.436 320.623 337.902 320.936 338.257 322.043C338.466 322.711 334.687 327.263 335.647 330.833C336.232 332.984 339.99 334.55 341.389 334.487C341.389 334.487 344.876 342.15 362.395 336.179C378.243 330.771 382.168 321.542 381.751 316.071C383.609 314.108 383.922 310.454 382.899 307.615V307.531ZM328.611 299.952C328.402 299.346 332.181 293.938 332.661 293.061C333.142 292.184 333.142 290.743 332.223 289.741C334.916 289.449 340.137 288.739 343.832 287.424C348.906 285.607 353.834 283.206 357.968 280.721C353.604 285.92 348.155 290.723 343.31 292.79C341.181 293.688 341.285 295.838 343.916 294.878C352.205 291.892 360.39 284.667 363.648 277.547C365.109 277.547 366.801 278.299 367.197 279.426C369.327 285.377 357.676 294.815 346.192 298.949C341.306 300.703 335.814 301.789 333.288 301.643C331.68 301.246 328.778 300.474 328.59 299.952H328.611ZM333.476 315.758C333.267 315.152 335.96 310.329 336.837 308.847C337.339 307.991 337.735 306.07 337.234 305.026C337.088 304.712 336.837 304.316 336.524 303.898C339.907 303.501 344.605 302.228 346.943 301.392C354.627 298.636 362.123 294.377 367.009 289.825C367.072 290.054 367.093 290.326 367.009 290.639C365.986 295.358 359.284 302.812 348.864 307.51C347.236 308.241 347.633 310.12 349.553 309.431C358.908 306.07 368.095 299.263 370.079 293.5C371.582 293.708 373.378 294.314 373.816 295.546C375.153 299.283 361.956 310.141 351.328 313.962C348.113 315.111 340.345 317.24 337.777 317.616C335.564 317.011 333.643 316.238 333.455 315.737L333.476 315.758ZM339.072 328.704C338.383 326.783 341.41 323.504 342.204 322.669C342.747 322.106 342.475 320.414 341.348 319.203C344.793 318.619 349.721 317.24 352.164 316.363C357.321 314.505 362.896 311.77 367.698 308.721C364.274 312.835 359.764 316.698 354.502 319.475C352.101 320.748 352.122 323.045 355.17 321.688C364.316 317.595 370.434 312.689 373.294 306.257C375.842 306.111 377.616 307.301 378.431 309.515C379.663 312.918 373.232 319.683 358.991 325.467C356.152 326.616 342.872 330.792 340.826 330.499C339.99 329.956 339.28 329.33 339.051 328.683L339.072 328.704ZM361.915 332.462C351.349 336.262 345.92 334.32 344.292 332.295C347.048 331.877 351.913 330.75 359.868 327.91C367.615 325.133 373.983 322.085 378.326 318.932C377.721 324.11 371.937 328.871 361.915 332.483V332.462Z" fill="#0E141B"/>
<path d="M301.613 256.728C301.613 256.728 304.786 260.487 306.206 259.422C307.647 258.357 313.097 251.863 315.769 250.193C318.421 248.501 320.092 247.562 320.781 249.483C321.47 251.404 322.409 259.067 323.474 260.487C324.539 261.927 328.945 261.593 330.887 260.904C332.808 260.215 336.942 258.545 336.65 255.747C336.378 252.949 333.852 244.952 334.645 243.595C335.418 242.237 338.445 239.502 341.076 239.293C343.707 239.064 358.95 239.586 358.95 239.586L362.541 238.103L363.564 233.739L362.374 230.899C362.374 230.899 340.721 230.691 338.529 231.672C336.336 232.633 329.947 238.562 329.947 238.562C329.947 238.562 321.136 240.275 318.463 241.423C315.79 242.571 301.654 256.707 301.654 256.707L301.613 256.728Z" fill="#898989"/>
<path d="M359.68 238.105C359.054 238.188 342.35 238.188 340.283 238.272C336.817 238.439 334.248 240.485 333.768 244.536C333.768 244.703 334.29 252.199 334.729 255.414C334.562 255.748 332.599 257.398 330.448 258.212C328.089 259.11 326.272 259.173 325.541 259.027C324.727 256.458 323.954 253.598 323.244 251.238C322.347 248.232 318.108 247.167 315.581 249.505C312.094 252.721 307.563 257.147 306.791 257.941C306.248 257.69 304.306 256.187 303.889 255.748L300.151 259.235C301.383 260.551 305.538 263.787 308.378 261.386L312.282 257.377C313.765 255.811 315.999 253.472 317.335 252.136C318.63 250.862 319.173 250.737 319.59 252.47C320.363 255.519 320.53 256.646 321.052 258.651C321.804 261.532 323.599 263.411 327.922 262.827C332.724 262.18 338.925 257.92 338.445 253.264C338.445 253.264 337.422 245.663 337.464 244.849C337.714 242.719 339.176 242.093 340.805 242.009C343.498 241.884 359.994 242.218 361.727 241.759C363.167 241.383 364.274 239.525 365.464 232.321L360.349 232.07C360.349 232.07 359.743 236.81 359.659 238.146L359.68 238.105Z" fill="#0E141B"/>
<path d="M319.235 239.336C324.852 237.311 328.569 237.06 328.569 237.06C328.569 237.06 331.325 232.613 336.942 230.608C346.735 227.079 377.742 228.979 381.751 240.109C385.676 251.029 368.283 265.624 336.169 277.171C311.698 285.961 296.476 284.625 293.365 275.96C288.813 263.265 305.997 244.097 319.235 239.336ZM297.395 274.937C299.232 280.073 314.287 281.201 333.935 274.143C359.701 264.893 380.394 248.983 377.324 240.422C374.944 233.782 349.992 230.003 338.508 233.865C332.891 235.765 331.429 240.422 330.887 240.631C330.302 240.86 325.228 240.463 320.614 242.113C307.438 246.832 294.472 266.793 297.395 274.937Z" fill="#0E141B"/>
<path d="M659.749 401.157C659.04 398.422 648.119 359.898 647.514 358.228C646.908 356.536 646.261 356.223 644.486 356.599C642.711 356.954 579.883 375.871 575.226 377.291C555.119 383.346 547.978 379.713 542.34 365.807C537.955 353.613 544.491 341.294 558.334 336.324C563.638 334.424 629.264 312.771 630.956 312.166C633.733 311.164 634.568 309.326 633.712 306.946C633.273 305.735 618.845 263.202 618.49 262.241C617.759 260.195 615.985 259.464 613.583 260.007C611.579 260.466 575.874 270.009 563.45 274.059C483.458 300.139 474.96 344.426 495.339 386.98C512.335 427.696 542.925 442.249 580.509 431.183C622.332 418.864 655.845 406.127 657.766 405.438C659.687 404.749 660.48 403.913 659.77 401.178L659.749 401.157Z" fill="#0E141B"/>
<path d="M645.217 366.621C639.809 368.146 630.496 370.672 620.369 373.386C620.223 371.841 620.014 369.482 619.889 368.104C633.19 364.137 643.567 361.025 643.567 361.025L645.217 366.621Z" fill="#F29B87"/>
<path d="M571.99 382.135C582.326 379.233 599.782 374.075 614.878 369.586L615.358 374.722C597.13 379.588 578.045 384.62 575.54 385.204C566.916 387.209 560.777 386.666 555.891 383.513C560.297 384.244 565.58 383.931 571.969 382.114L571.99 382.135Z" fill="#DDDCD6"/>
<path d="M629.244 308.24C629.244 308.24 619.179 311.581 606.401 315.819L594.019 280.699C601.41 278.59 609.24 276.502 617.509 274.477L629.223 308.24H629.244Z" fill="#00A5E3"/>
<path d="M615.985 270.551C607.737 272.598 599.907 274.665 592.494 276.794C591.951 275.187 591.075 272.034 590.49 270.259C602.767 266.897 613.876 263.953 613.876 263.953L615.985 270.551Z" fill="#A0D2F2"/>
<path d="M562.928 278.193C568.085 276.544 576.772 274.08 585.541 271.637L587.588 278.235C537.225 293.185 506.907 309.305 494.149 329.976C502.73 307.551 525.845 289.99 562.928 278.172V278.193Z" fill="#DDDCD6"/>
<path d="M578.693 426.527C535.763 439.577 507.449 410.825 497.845 383.932C491.33 365.661 489.952 351.066 495.548 338.267C505.236 316.154 535.22 298.072 589.091 282.141C591.659 289.428 599.155 310.684 601.535 317.449C581.825 324.005 558.146 331.898 554.179 333.318C540.774 338.141 532.506 352.528 537.788 367.227C544.324 385.414 553.49 393.745 575.143 388.63C581.804 387.064 599.74 382.052 615.985 377.438L627.197 411.41C609.825 416.88 589.028 423.395 578.713 426.548L578.693 426.527Z" fill="#B5B5B0"/>
<path d="M632.062 409.865C629.974 403.517 622.645 381.342 620.912 376.039C632.918 372.615 643.171 369.67 645.885 368.877L655.72 402.39C655.72 402.39 645.426 405.647 632.062 409.865Z" fill="#E60021"/>
</g>
<defs>
<clipPath id="clip0_42_65769">
<rect width="520" height="342.623" fill="white" transform="translate(140 229)"/>
</clipPath>
</defs>
</svg>
