<svg width="800" height="800" viewBox="0 0 800 800" fill="none" xmlns="http://www.w3.org/2000/svg">
<g clip-path="url(#clip0_42_65814)">
<path d="M592.139 612.742C609.208 628.883 596.295 663.003 564.922 651.017L592.139 612.742Z" fill="#DCDDDD"/>
<path d="M590.783 640.227C583.631 650.839 571.842 655.298 564.422 650.161C557.003 645.024 556.789 632.272 563.941 621.66C571.093 611.048 582.882 606.607 590.302 611.725C597.722 616.862 597.936 629.614 590.801 640.227H590.783Z" fill="#B5B6B6"/>
<path d="M535.903 471.074C586.235 503.036 601.146 569.741 569.185 620.073C537.223 670.405 470.518 685.315 420.186 653.354C369.854 621.393 354.962 554.688 386.905 504.356C418.866 454.024 485.571 439.113 535.903 471.074Z" fill="#BCE2E8"/>
<path d="M535.903 471.076C500.642 448.692 457.356 449.334 423.593 469.007C547.14 475.16 551.616 570.42 528.644 615.258C505.672 660.079 463.081 662.879 433.599 660.579C481.808 682.445 540.006 666.054 569.185 620.074C601.128 569.742 586.235 503.037 535.903 471.076Z" fill="#A2C4CA"/>
<path d="M403.118 595.086C398.07 588.915 390.668 598.992 379.807 606.929C387.066 622.909 398.284 637.249 413.088 648.396C403.118 624.782 405.365 601.81 403.118 595.086Z" fill="#A2C4CA"/>
<path d="M426.09 655.852V706.112L460.762 706.273C460.762 706.273 460.602 672.1 460.994 669.96C438.646 667.427 426.108 655.834 426.108 655.834L426.09 655.852Z" fill="#B5B5B0"/>
<path d="M461.404 669.692C440.144 667.819 426.09 655.852 426.09 655.852V664.413C436.399 672.563 448.349 677.433 460.709 681.463C460.709 681.463 461.101 672.332 461.404 669.674V669.692Z" fill="#898885"/>
<path d="M425.697 680.25L426.09 706.112L460.762 706.29L460.976 682.176L425.697 680.25Z" fill="#00A5E3"/>
<path d="M514.697 664.734C506.011 667.623 496.522 669.282 496.522 669.282L497.289 707.967H533.264C533.264 707.967 533.549 657.243 533.085 655.852C533.085 655.852 523.383 661.844 514.697 664.734Z" fill="#B5B5B0"/>
<path d="M533.085 655.852C533.085 655.852 527.093 661.006 515.535 665.34C503.96 669.674 497.361 669.478 497.361 669.478V681.66C509.542 682.07 521.011 681.588 533.299 681.874C533.335 666.963 533.371 656.708 533.085 655.852Z" fill="#898885"/>
<path d="M497.343 682.604L497.289 707.949H533.264C533.264 707.949 533.335 694.911 533.353 681.873C521.385 682.908 497.361 682.586 497.361 682.586L497.343 682.604Z" fill="#E60021"/>
<path d="M533.335 692.182C533.335 688.918 533.335 685.404 533.353 681.891C521.385 682.925 497.361 682.604 497.361 682.604V687.759C505.315 691.647 521.403 692.663 533.335 692.182Z" fill="#C7001A"/>
<path d="M153.063 433.994C137.171 449.03 148.711 483.809 179.923 471.877L153.063 433.994Z" fill="#DCDDDD"/>
<path d="M154.615 461.229C161.767 471.841 173.556 476.282 180.976 471.163C188.395 466.026 188.609 453.274 181.457 442.662C174.305 432.05 162.516 427.609 155.096 432.727C147.677 437.864 147.463 450.616 154.615 461.229Z" fill="#B5B6B6"/>
<path d="M169.454 434.887C169.454 434.887 167.385 436.242 165.476 437.58C161.178 437.099 160.607 439.596 160.197 441.343C159.359 444.911 161.463 456.843 173.574 459.322C180.958 453.793 182.26 452.526 182.26 452.526L169.472 434.869L169.454 434.887Z" fill="#DCDDDD"/>
<path d="M161.535 439.346C160.857 439.988 160.358 440.666 160.197 441.343C159.127 445.891 162.979 457.146 173.574 459.322C180.958 453.793 182.26 452.526 182.26 452.526L180.191 449.655C171.986 448.388 164.513 445.374 161.553 439.346H161.535Z" fill="#B5B6B6"/>
<path d="M222.764 484.825C219.197 488 217.86 498.256 218.644 512.934C219.429 527.613 225.386 582.743 225.386 582.743L258.703 591.464L271.794 579.176C268.62 539.902 267.032 523.653 268.62 517.696C269.137 515.788 278.536 510.562 282.103 515.717C285.67 520.871 288.453 527.613 288.845 540.704C289.237 553.796 292.805 597.421 292.805 597.421L325.729 605.751L340.8 587.112C340.8 587.112 338.428 504.605 334.058 492.316C329.689 480.028 324.802 478.387 324.802 478.387L222.747 484.843L222.764 484.825Z" fill="#B5B5B0"/>
<path d="M340.818 587.095C340.818 587.095 338.446 504.587 334.076 492.299C329.706 480.01 324.819 478.369 324.819 478.369L222.764 484.826C221.141 486.27 219.982 489.213 219.269 493.369C225.208 499.986 239.013 515.449 253.406 519.997C253.549 530.11 255.885 560.234 255.885 560.234L258.703 591.482L271.794 579.194C268.62 539.92 267.032 523.671 268.62 517.714C269.137 515.806 278.536 510.58 282.103 515.735C283.102 517.179 286.491 524.742 287.329 526.525C300.581 530.699 311.015 532.25 321.609 533.392C322.358 539.831 324.07 570.472 324.07 570.472L325.729 605.769L340.8 587.13L340.818 587.095Z" fill="#898885"/>
<path d="M255.778 559.076L222.372 551.799L225.386 582.744L258.703 591.466L271.794 579.177C270.671 565.337 268.834 548.785 268.834 548.785L255.76 559.076H255.778Z" fill="#E60021"/>
<path d="M269.297 548.373L255.921 559.075C256.634 571.435 257.276 581.387 258.739 591.767L271.794 579.158C270.671 565.317 269.297 548.355 269.297 548.355V548.373Z" fill="#C7001A"/>
<path d="M323.5 570.937L289.933 563.839L292.822 597.423L325.747 605.752L340.818 587.096L339.409 553.512L323.5 570.937Z" fill="#00A5E3"/>
<path d="M340.818 587.096L339.409 553.512L323.5 570.937L325.747 605.752L340.818 587.096Z" fill="#0090C6"/>
<path d="M160.144 389.906C157.343 389.906 148.087 386.713 138.242 378.67C128.521 370.733 88.2663 332.208 88.2663 332.208L93.3138 301.727L113.397 296.234C113.397 296.234 160.786 333.617 164.085 335.418C166.172 336.56 169.704 334.865 169.704 334.865C169.704 334.865 170.827 327 159.038 316.887C147.249 306.774 100.038 270.853 100.038 270.853L106.78 239.998L132.213 237.162C132.213 237.162 194.959 278.701 203.377 287.69C206.373 290.883 209.548 295.556 209.548 295.556L160.126 389.906H160.144Z" fill="#B5B5B0"/>
<path d="M192.979 310.377C197.527 305.829 209.566 295.556 209.566 295.556C209.566 295.556 206.391 290.901 203.395 287.69C194.976 278.701 132.231 237.162 132.231 237.162L106.708 239.481C106.708 239.481 170.274 284.391 175.946 289.331C181.635 294.254 192.23 301.299 192.979 310.377Z" fill="#898885"/>
<path d="M166.083 347.67L171.327 335.06C171.327 335.06 166.154 336.576 164.068 335.435C160.768 333.651 113.379 296.25 113.379 296.25L92.6182 301.868C113.95 318.544 134.55 336.023 150.084 348.597C158.574 354.554 164.317 349.115 166.065 347.67H166.083Z" fill="#898885"/>
<path d="M134.032 258.973C134.032 258.973 148.622 255.353 158.128 254.586C144.056 244.99 132.213 237.143 132.213 237.143L106.78 239.978L100.038 270.834L127.826 292.504L134.032 258.955V258.973Z" fill="#00A5E3"/>
<path d="M132.213 237.16L107.119 239.319C107.119 239.319 127.291 254.176 133.908 258.563C138.473 257.743 151.743 255.299 158.307 254.247C144.234 244.651 132.213 237.143 132.213 237.143V237.16Z" fill="#0090C6"/>
<path d="M118.319 322.45L138.42 315.887L113.379 296.25L93.2959 301.726L88.2663 332.207L112.986 356.481L118.319 322.45Z" fill="#E60021"/>
<path d="M113.379 296.25L92.9749 301.637C101.554 308.628 109.312 315.816 118.658 322.79L138.402 315.263L113.397 296.232L113.379 296.25Z" fill="#C7001A"/>
<path d="M375.187 387.373C375.187 446.997 326.853 495.331 267.228 495.331C207.604 495.331 159.27 446.997 159.27 387.373C159.27 327.748 207.604 279.414 267.228 279.414C326.853 279.414 375.187 327.748 375.187 387.373Z" fill="#BCE2E8"/>
<path d="M267.246 279.414C265.873 279.414 264.5 279.468 263.126 279.521C325.8 332.279 334.754 439.31 264.678 480.261C259.737 485.201 254.779 490.124 248.448 493.655C254.547 494.725 260.825 495.314 267.246 495.314C326.871 495.314 375.205 446.979 375.205 387.355C375.205 327.731 326.871 279.396 267.246 279.396V279.414Z" fill="#A2C4CA"/>
<path d="M256.973 401.303C270.189 419.459 267.621 443.876 251.194 455.826C234.786 467.776 210.743 462.746 197.527 444.59C184.293 426.433 186.879 402.016 203.306 390.066C219.715 378.117 243.739 383.146 256.973 401.303Z" fill="white"/>
<path d="M573.965 361.386C573.965 423.311 523.757 473.536 461.814 473.536C399.872 473.536 349.664 423.329 349.664 361.386C349.664 299.443 399.872 249.236 461.814 249.236C523.757 249.236 573.965 299.443 573.965 361.386Z" fill="#BCE2E8"/>
<path d="M373.992 386.641C370.532 383.181 360.277 386.141 353.16 389.191C358.315 409.417 362.881 419.012 377.345 433.156C367.874 407.918 386.869 396.736 373.992 386.641Z" fill="#A2C4CA"/>
<path d="M461.814 249.236C432.083 249.236 405.062 260.829 384.997 279.717C421.47 280.359 443.265 278.023 465.863 266.162C574.571 321.631 525.826 441.539 487.159 442.11C479.811 442.217 475.191 465.742 470.661 473.144C528.448 468.632 573.947 420.333 573.947 361.386C573.947 299.443 523.74 249.236 461.797 249.236H461.814Z" fill="#A2C4CA"/>
<path d="M479.4 574.147C501.82 572.72 521.046 587.987 522.33 608.249C523.615 628.51 506.492 646.096 484.073 647.54C461.654 648.967 442.427 633.7 441.143 613.439C439.859 593.178 456.981 575.592 479.4 574.165V574.147Z" fill="white"/>
<path d="M318.63 132.806L286.723 153.067C286.723 153.067 322.18 240.907 326.728 251.145C337.055 274.367 362.435 285.121 378.344 282.107C403.314 277.381 421.56 267.482 440.965 252.571C457.926 239.534 459.21 216.722 451.898 201.241C436.577 168.798 409.307 111.777 409.307 111.777L384.586 91.6055L350.966 113.062C350.966 113.062 387.101 192.376 392.113 205.967C397.125 219.558 396.608 226.817 388.029 233.238C380.93 232.631 376.364 225.016 373.618 219.29C368.891 209.392 338.66 143.097 338.66 143.097L318.63 132.788V132.806Z" fill="#B5B5B0"/>
<path d="M373.618 219.291C368.891 209.392 338.66 143.097 338.66 143.097L317.953 132.717C321.074 140.333 346.846 198.37 360.705 225.266C364.254 231.472 367.643 235.289 369.515 236.538C375.829 240.8 385.318 236.805 387.083 233.095C380.52 231.918 376.222 224.766 373.618 219.291Z" fill="#898885"/>
<path d="M451.898 201.224C436.577 168.781 409.307 111.76 409.307 111.76L384.89 91.0176C389.83 101.237 408.343 141.831 417.19 160.541C442.088 214.565 446.993 225.088 441.625 242.281C440.144 246.99 434.651 253.999 431.119 258.69C433.313 257.12 438.735 254.231 440.947 252.536C457.908 239.499 459.193 216.687 451.88 201.206L451.898 201.224Z" fill="#898885"/>
<path d="M402.244 129.203L426.482 146.735L409.324 111.76L384.604 91.5879L350.966 113.062L367.179 149.429L402.244 129.203Z" fill="#E60021"/>
<path d="M425.822 146.146L409.324 111.759L385.425 91.623C390.847 103.823 396.786 117.271 402.672 128.989L425.822 146.146Z" fill="#C7001A"/>
<path d="M332.417 167.013L353.553 175.574L338.66 143.096L318.63 132.805L286.74 153.048L300.26 186.668L332.417 167.013Z" fill="#00A5E3"/>
<path d="M338.66 143.096L318.185 132.947C323.232 145.628 326.746 152.941 332.988 167.245L353.784 175.699L338.66 143.096Z" fill="#0090C6"/>
<path d="M659.629 205.682C648.892 210.693 573.572 251.162 560.392 258.528C541.522 269.069 531.623 289.42 531.748 308.95C531.873 326.214 544.25 367.432 554.738 373.889C565.225 381.951 578.958 389.887 591.854 390.422C601.538 390.833 612.436 389.21 630.575 380.738C648.713 372.266 711.245 338.788 711.245 338.788L700.633 299.729L682.601 287.565C682.601 287.565 606.907 324.092 601.913 326.25C591.889 323.379 591.889 314.086 595.474 307.648C599.041 301.209 614.077 292.63 622.656 288.332C631.235 284.033 687.755 256.138 687.755 256.138L676.947 220.61L659.593 205.682H659.629Z" fill="#B5B5B0"/>
<path d="M601.77 278.451C578.388 291.56 570.915 305.471 579.832 324.181C586.182 331.868 595.724 330.923 601.948 326.25C591.925 323.378 591.925 314.086 595.51 307.647C599.077 301.209 614.112 292.63 622.691 288.331C631.27 284.033 687.791 256.138 687.791 256.138L669.866 242.637C656.918 249.45 627.204 264.307 601.77 278.451Z" fill="#898885"/>
<path d="M607.585 372.391C588.501 381.202 569.506 382.468 554.756 373.889C565.243 381.951 578.976 389.888 591.871 390.423C601.556 390.833 612.454 389.21 630.592 380.738C648.731 372.266 709.657 339.377 709.657 339.377L692.696 328.533C692.696 328.533 627.275 363.295 607.585 372.391Z" fill="#898885"/>
<path d="M635.908 259.599L655.509 272.083L687.791 256.138L676.983 220.61L659.629 205.682C655.313 207.697 624.725 224.106 624.725 224.106L635.908 259.616V259.599Z" fill="#E60021"/>
<path d="M687.773 256.139L676.983 220.592L659.932 205.932L669.884 242.084L636.407 259.902L655.509 272.084L687.773 256.139Z" fill="#C7001A"/>
<path d="M676.769 357.854L711.263 338.788L700.651 299.728L682.619 287.564L645.111 305.65L656.793 347.171L676.769 357.854Z" fill="#00A5E3"/>
<path d="M651.959 420.689C642.881 424.667 574.089 457.805 563.21 464.262C550.297 471.931 538.597 488.054 539.488 506.924C540.22 522.37 543.68 547.411 558.483 557.114C573.287 566.816 582.472 568.653 592.032 569.117C609.19 569.937 684.598 529.29 684.598 529.29L678.303 494.493L663.249 485.236C663.249 485.236 599.755 516.11 595.528 517.804C587.395 515.503 588.09 502.59 593.459 499.755C607.174 492.495 672.756 464.012 672.756 464.012L665.889 431.694L651.959 420.689Z" fill="#B5B5B0"/>
<path d="M580.403 522.263C585.879 522.905 591.033 520.872 596.259 517.911C586.788 513.738 588.447 502.412 593.477 499.755C607.192 492.496 672.827 463.031 672.827 463.031L656.971 453.275C656.971 453.275 606.372 474.607 586.681 486.717C566.973 498.845 574.196 521.514 580.403 522.263Z" fill="#898885"/>
<path d="M585.861 558.683C569.577 562.09 558.198 556.918 558.501 557.114C573.305 566.816 582.49 568.654 592.05 569.117C609.208 569.938 685.544 528.434 685.544 528.434L668.101 521.211C668.101 521.211 602.145 555.277 585.861 558.701V558.683Z" fill="#898885"/>
<path d="M678.32 494.493L663.267 485.219L630.753 500.754L636.567 536.3L655.223 544.469L684.616 529.273L678.32 494.493Z" fill="#E60021"/>
<path d="M678.32 494.492L663.553 485.45L662.108 485.414L668.297 521.406L637.548 536.549L655.758 544.646L684.616 529.272L678.32 494.492Z" fill="#C7001A"/>
<path d="M626.223 466.777L643.47 476.8L672.649 463.655L665.907 431.694L651.977 420.689C648.428 422.241 621.015 435.368 621.015 435.368L626.223 466.777Z" fill="#00A5E3"/>
<path d="M700.651 299.729L681.335 287.922C684.492 298.588 692.393 329.015 692.393 329.015L656.775 347.189L677.143 357.748L711.263 338.807L700.651 299.747V299.729Z" fill="#0090C6"/>
<path d="M672.559 463.459L666.46 432.461L651.389 420.689L657.239 453.097L626.49 467.044L643.809 476.622L672.559 463.459Z" fill="#0090C6"/>
<path d="M457.373 457.877C457.373 457.877 460.869 453.953 461.172 450.6C456.91 446.943 464.954 443.251 464.954 443.251L466.844 437.687C466.844 437.687 480.72 431.105 488.247 442.699C487.944 444.767 488.033 446.319 487.694 448.156C488.925 451.17 489.87 455.487 486.392 456.075C486.231 459.303 486.231 465.778 486.231 465.778L457.356 457.894L457.373 457.877Z" fill="#DCDDDD"/>
<path d="M487.712 449.279C488.051 447.442 488.3 444.785 488.603 442.698C485.482 437.9 481.755 436.491 478.009 436.01C477.01 437.793 477.153 441.396 477.153 441.396C477.153 441.396 482.165 446.087 481.202 446.836C480.256 447.585 474.674 448.209 474.674 448.209L474.335 454.398C474.335 454.398 479.49 458.179 469.805 460.873L485.696 464.761C485.696 464.761 486.374 459.196 486.41 456.075C489.87 455.486 488.71 451.955 487.712 449.279Z" fill="#B5B6B6"/>
<path d="M443.551 470.755C441.928 480.725 447.956 490.231 457.284 494.619C459.264 493.174 468.806 494.298 471.981 496.777C478.687 495.635 491.065 488.251 492.706 478.156C494.56 453.579 446.547 450.065 443.533 470.755H443.551Z" fill="#DCDDDD"/>
<path d="M485.179 463.494C481.665 479.76 465.917 491.888 450.364 489.837C452.237 491.639 454.395 493.173 456.803 494.368C459.728 492.53 464.846 494.546 468.003 494.546C468.824 495.366 469.662 496.205 470.483 497.025C481.077 496.169 491.261 487.947 492.955 477.602C493.437 471.128 489.513 466.972 485.179 463.512V463.494Z" fill="#B5B6B6"/>
<path d="M487.944 479.599C481.933 483.898 471.999 483.505 471.999 483.505L473.229 469.023L461.083 467.578C461.083 467.578 459.3 476.496 458.854 482.738C446.476 478.101 443.622 470.575 443.569 470.771C442.927 474.73 443.194 477.887 444.692 481.401C448.884 485.307 457.623 490.087 457.623 490.087L457.837 494.207C460.887 493.172 469.002 494.171 470.322 495.99C470.679 496.222 469.341 492.673 470.536 491.638C475.78 492.744 486.196 488.802 486.196 488.802C486.196 488.802 488.104 483.202 487.926 479.599H487.944Z" fill="#898989"/>
<path d="M373.939 603.325C373.939 603.325 375.562 600.186 376.471 598.67C374.349 594.71 381.323 592.766 381.323 592.766L384.836 588.236C384.836 588.236 398.32 584.812 403.653 596.922C402.85 599.437 402.297 600.988 401.512 603.093C401.94 605.893 401.245 608.247 399.122 609.246C398.998 609.924 396.501 615.132 396.501 615.132L373.939 603.325Z" fill="#DCDDDD"/>
<path d="M401.245 603.877C402.03 601.773 402.85 599.436 403.671 596.922C401.976 593.087 399.479 590.822 396.857 589.502C395.573 591.945 394.378 594.621 394.378 594.621C394.378 594.621 396.929 598.134 396.625 599.169C396.322 600.203 393.094 599.757 391.31 599.757C390.437 601.505 388.796 605.215 388.796 605.215L390.561 610.227L396.501 615.114C396.501 615.114 398.998 609.906 399.122 609.228C403.813 607.034 400.496 605.875 401.245 603.86V603.877Z" fill="#B5B6B6"/>
<path d="M356.638 612.85C353.66 621.696 357.138 631.238 364.575 636.928C368.463 635.358 372.458 637.552 373.957 641.333C385.3 643.955 396.804 638.105 400.353 627.528C401.851 605.626 364.129 594.782 356.638 612.85Z" fill="#DCDDDD"/>
<path d="M392.987 611.316C394.86 628.849 377.577 637.713 361.293 633.896C362.292 635.02 363.451 636.037 364.682 636.964C368.624 635.02 371.638 637.588 374.777 641.494C385.853 643.652 396.875 637.856 400.353 627.529C400.799 620.965 397.713 615.419 392.987 611.316Z" fill="#B5B6B6"/>
<path d="M379.646 630.025L383.927 617.629L373.439 613.206C373.439 613.206 369.605 621.678 367.821 625.905C362.203 623.105 358.814 617.79 356.834 612.457C356.763 612.6 355.925 619.859 355.871 620.001C354.641 623.676 365.609 633.146 365.609 633.146L364.236 636.696C364.236 636.696 367.393 636.071 370.033 637.284C373.172 638.711 373.564 641.279 374.545 641.476C374.367 639.656 376.239 637.427 376.239 637.427C376.239 637.427 385.567 638.747 390.722 638.996C390.954 638.872 391.186 638.765 391.4 638.622C393.041 635.697 393.647 634.769 394.681 630.346C382.714 631.969 379.628 630.043 379.628 630.043L379.646 630.025Z" fill="#898989"/>
<path d="M358.618 412.985C358.618 412.985 363.326 411.326 365.823 409.614C367.714 414.59 372.209 405.654 372.209 405.654L377.292 402.872C377.292 402.872 381.501 388.675 369.266 382.236C367.322 382.718 363.647 383.467 361.917 383.966C359.688 382.789 356.674 382.54 355.14 386.499C349.968 388.158 347.934 388.657 347.934 388.657L358.6 413.021L358.618 412.985Z" fill="#DCDDDD"/>
<path d="M374.581 388.104C373.225 389.103 369.016 390.048 369.016 390.048C369.016 390.048 369.569 394.792 369.569 395.613C369.569 396.433 363.719 391.707 363.719 391.707L357.869 393.651C357.869 393.651 359.724 398.502 359.206 399.982C358.689 401.463 354.427 398.68 352.268 398.448L358.618 412.967C358.618 412.967 363.326 411.308 365.823 409.596C367.518 414.09 370.978 408.097 372.209 405.636L376.917 403.121C376.917 403.121 379.646 394.917 374.563 388.086L374.581 388.104Z" fill="#B5B6B6"/>
<path d="M335.36 382.324C325.105 384.982 316.865 395.094 318.399 407.579C321.342 409.506 323.928 416.604 322.18 420.029C327.299 429.178 337.857 433.405 347.899 430.819C367.268 424.345 358.279 382.378 335.36 382.342V382.324Z" fill="#DCDDDD"/>
<path d="M322.751 414.197C323.214 416.124 322.875 418.353 322.465 419.637C327.513 429.019 337.465 433.424 347.631 430.784C354.337 428.537 357.494 421.795 358.065 414.536C346.276 419.049 334.486 418.977 322.751 414.197Z" fill="#B5B6B6"/>
<path d="M345.223 400.749C345.223 400.749 335.182 403.692 331.115 404.815C329.278 400.553 330.438 393.722 332.221 388.371C329.653 388.621 325.354 390.137 323.642 391.243C320.789 398.716 323 407.366 323 407.366L319.308 408.097C319.308 408.097 321.27 411.129 322.162 413.537C323.357 416.765 322.34 419.994 322.34 419.994L326.942 419.726C326.942 419.726 331.918 427.092 336.341 430.231C339.855 431.64 341.995 430.998 345.848 430.445C341.407 428.109 336.216 422.419 334.04 417.514C338.285 415.767 348.238 412.806 348.238 412.806L345.188 400.731L345.223 400.749Z" fill="#898989"/>
<path d="M269.85 475.819C269.85 475.819 273.346 473.09 275.29 471.628C273.275 467.436 280.48 467.311 280.48 467.311L285.938 463.191C285.938 463.191 299.707 463.744 301.437 477.46C299.921 479.671 298.387 482.596 296.8 484.558C295.658 485.967 297.62 488.75 292.751 490.587C288.845 495.028 286.437 495.848 286.437 495.848L269.85 475.819Z" fill="#DCDDDD"/>
<path d="M290.486 465.082C289.416 466.045 287.543 468.685 287.543 468.685C287.543 468.685 291.36 472.074 289.648 473.126C287.936 474.178 283.477 473.911 283.477 473.911C283.477 473.911 279.927 476.675 279.018 477.817C277.698 479.457 276.895 480.545 274.398 481.33L286.437 495.866C286.437 495.866 288.827 495.028 292.751 490.605C297.62 488.785 295.658 486.003 296.8 484.576C298.387 482.632 299.921 479.35 301.437 477.157C300.403 468.917 294.838 466.58 290.486 465.1V465.082Z" fill="#B5B6B6"/>
<path d="M249.696 480.206C245.808 485.735 244.773 498.755 250.356 506.531C256.812 505.051 260.968 512.47 260.629 515.484C271.402 520.086 282.192 517.643 289.041 507.922C297.067 486.466 262.556 464.35 249.678 480.206H249.696Z" fill="#DCDDDD"/>
<path d="M286.74 489.855C271.224 509.564 257.562 507.62 247.591 501.609C248.341 503.41 249.321 505.141 250.516 506.764C255.617 505.676 259.63 509.582 260.326 514.79C271.134 519.819 282.264 517.572 289.059 507.923C291.413 501.627 290.094 495.295 286.758 489.855H286.74Z" fill="#B5B6B6"/>
<path d="M283.28 509.582C280.445 509.421 270.742 508.351 268.227 504.463C271.01 500.289 276.146 492.87 276.146 492.87L266.782 485.843L257.651 496.883C257.651 496.883 250.178 488.964 250.962 479.832C249.161 482.454 247.449 485.325 246.949 488.304C249.5 496.919 253.406 502.893 253.406 502.893C253.406 502.893 252.746 504.071 250.962 505.908C252.478 508.137 253.584 504.374 257.651 509.029C261.557 513.488 258.542 511.597 260.665 515.164C261.36 513.595 263.162 510.688 263.162 510.688C263.162 510.688 269.297 514.861 276.806 516.252C278.09 515.985 281.372 511.49 283.28 509.582Z" fill="#898989"/>
<path d="M485.447 233.898C485.447 233.898 483.021 232.846 482.147 235.361C481.434 237.412 483.431 241.425 482.45 244.278C476.511 243.922 476.957 252.447 477.1 254.98C476.654 256.3 476.6 258.565 476.208 259.742C476.671 269.498 495.238 283.178 508.704 274.367C508.508 274.171 510.274 269.837 512.378 264.932C519.887 265.628 517.693 259.153 516.802 254.784C517.872 252.358 518.603 250.717 518.603 250.717L485.464 233.916L485.447 233.898Z" fill="#B5B6B6"/>
<path d="M472.908 215.794C471.428 210.407 492.884 184.689 520.725 194.427C519.013 202.096 534.066 208.553 538.828 203.255C543.466 206.965 554.149 226.014 547.657 245.044C526.772 258.974 481.719 247.826 472.908 215.794Z" fill="#DCDDDD"/>
<path d="M538.828 203.256C538.472 203.648 538.044 203.969 537.58 204.237C536.652 225.693 517.301 240.372 497.236 244.046C514.09 252.732 535.172 253.356 547.657 245.045C554.149 226.014 543.483 206.966 538.828 203.256Z" fill="#B5B6B6"/>
<path d="M538.828 203.255C534.048 208.553 518.995 202.096 520.725 194.427C503.621 188.434 488.942 195.836 480.488 203.666C480.488 204.254 479.489 208.731 480.167 207.714C486.891 201.989 504.067 195.943 512.467 201.989C507.081 206.359 499.109 218.933 496.54 223.41C501.035 227.226 510.452 230.579 510.452 230.579C510.452 230.579 521.671 214.367 527.021 207.233C534.155 216.15 538.757 223.588 540.541 234.289C544.108 232.648 546.034 231.168 549.476 229.242C547.889 217.702 541.914 205.699 538.828 203.22V203.255Z" fill="#898989"/>
<path d="M209.727 348.597C199.828 357.034 189.804 356.98 187.325 348.49C184.846 339.983 190.856 326.249 200.755 317.813C210.654 309.377 220.678 309.43 223.157 317.938C225.636 326.446 219.625 340.179 209.727 348.615V348.597Z" fill="#E0F1F4"/>
<path d="M392.773 331.387C382.874 339.823 372.851 339.769 370.371 331.262C367.892 322.754 373.903 309.021 383.802 300.585C393.7 292.148 403.724 292.202 406.203 300.709C408.682 309.217 402.672 322.95 392.773 331.387Z" fill="#E0F1F4"/>
<path d="M427.41 543.898C418.117 555.099 404.83 558.22 397.767 550.872C390.686 543.524 392.488 528.488 401.78 517.305C411.072 506.105 424.36 502.983 431.423 510.332C438.503 517.68 436.702 532.715 427.392 543.916L427.41 543.898Z" fill="#E0F1F4"/>
<path d="M472.338 344.71C489.567 369.002 486.196 401.677 464.811 417.675C443.426 433.674 412.125 426.95 394.895 402.64C377.666 378.33 381.037 345.673 402.422 329.674C423.807 313.676 455.108 320.418 472.338 344.71Z" fill="white"/>
<path d="M428.123 657.67C428.123 657.67 427.873 701.028 427.873 704.345C430.888 704.345 455.911 704.47 458.961 704.488C458.961 701.224 458.889 667.39 458.889 667.39L463.651 668.692C463.651 668.692 463.509 704.97 463.509 706.129C463.509 707.288 463.116 708.251 461.172 708.251C459.228 708.251 429.104 708.465 426.964 708.073C424.823 707.681 424.823 706.718 424.823 705.344C424.823 703.971 423.593 655.922 423.593 655.922L428.105 657.67H428.123Z" fill="#0E141B"/>
<path d="M535.743 703.471C535.618 707.484 536.991 710.231 532.247 709.981C527.485 709.732 498.52 710.017 496.951 709.821C495.381 709.625 494.81 707.877 495.006 706.717C495.203 705.558 494.703 668.442 494.703 668.442L499.376 666.944C499.376 666.944 499.126 702.901 499.091 706.2H531.498C531.552 697.621 531.587 687.437 531.587 678.448C531.587 666.855 531.534 657.366 531.373 656.243L535.511 654.441C535.886 655.547 535.868 700.207 535.761 703.489L535.743 703.471Z" fill="#0E141B"/>
<path d="M460.209 680.463L460.12 682.907L426.464 681.534L426.536 679.072L460.209 680.463Z" fill="#0E141B"/>
<path d="M532.176 683.032L498.52 683.495L498.484 681.034L532.158 680.57L532.176 683.032Z" fill="#0E141B"/>
<path d="M597.258 644.275C590.712 654.691 579.173 658.259 565.154 652.908L565.439 649.697C578.085 654.531 589.071 651.945 594.85 642.759C600.575 633.646 598.988 621.196 591.158 613.777L592.05 611.119C602.555 620.625 603.696 634.02 597.258 644.258V644.275Z" fill="#0E141B"/>
<path d="M591.8 610.87C588.697 608.712 584.149 607.677 579.957 608.48C578.976 608.658 577.995 608.961 577.014 609.3C576.051 610.781 575.106 612.261 574.161 613.759C576.23 612.546 578.37 611.69 580.492 611.28C583.917 610.638 587.038 611.191 589.499 612.903C596.259 617.576 596.313 629.49 589.624 639.442C585.629 645.382 579.886 649.555 574.25 650.625C570.826 651.267 567.704 650.715 565.243 649.002C560.998 646.077 559.393 640.299 560.445 633.949C559.446 635.215 558.412 636.446 557.342 637.677C557.36 643.438 559.607 649.323 563.78 652.195C566.884 654.353 571.343 654.745 575.534 653.943C581.901 652.748 587.573 647.611 591.978 641.048C595.617 635.643 597.418 629.686 597.418 624.336C597.418 618.539 595.991 613.777 591.8 610.888V610.87Z" fill="#0E141B"/>
<path d="M580.528 615.882C585.486 615.061 587.466 619.074 586.218 623.069C587.27 624.96 585.023 638.408 572.77 639.407C570.219 639.621 568.774 638.158 568.257 637.409C567.758 636.66 559.018 632.058 558.965 632.041L559.767 629.865C559.981 629.936 564.886 631.773 572.038 637.07C582.847 634.609 584.167 626.262 584.167 622.427C584.773 619.395 583.524 617.897 580.528 618.379C577.532 616.88 572.484 611.548 572.484 611.548L573.947 609.746C573.947 609.746 577.781 613.616 580.546 615.882H580.528Z" fill="#0E141B"/>
<path d="M585.29 623.889C584.238 626.547 570.897 635.518 561.997 633.538L562.389 631.791C570.059 633.485 584.077 623.283 584.88 621.268L585.29 623.889Z" fill="#0E141B"/>
<path d="M581.17 617.701L579.369 616.506C578.887 617.701 573.786 621.767 568.097 624.532C567.936 625.495 567.472 626.351 566.866 627.1C573.786 624.229 580.475 619.449 581.17 617.701Z" fill="#0E141B"/>
<path d="M148.533 464.903C155.078 475.319 166.618 478.886 180.637 473.517L180.351 470.307C167.706 475.14 156.719 472.554 150.941 463.369C145.215 454.255 146.803 441.806 154.632 434.386L153.741 431.729C143.236 441.235 142.094 454.629 148.533 464.867V464.903Z" fill="#0E141B"/>
<path d="M153.99 431.497C157.094 429.339 161.642 428.304 165.833 429.107C166.814 429.285 167.795 429.588 168.776 429.927C169.739 431.408 170.684 432.888 171.63 434.386C169.561 433.173 167.421 432.317 165.298 431.907C161.874 431.265 158.753 431.818 156.291 433.53C149.532 438.203 149.478 450.117 156.166 460.069C160.162 466.009 165.905 470.182 171.523 471.234C174.947 471.877 178.068 471.324 180.53 469.611C184.775 466.686 186.38 460.908 185.327 454.558C186.326 455.825 187.361 457.055 188.431 458.268C188.413 464.029 186.166 469.915 181.992 472.786C178.889 474.926 174.43 475.319 170.239 474.534C163.871 473.339 157.682 468.131 153.259 461.585C149.621 456.181 148.354 450.296 148.354 444.945C148.354 439.148 149.781 434.386 153.973 431.497H153.99Z" fill="#0E141B"/>
<path d="M165.262 436.509C160.304 435.689 158.324 439.702 159.573 443.697C158.521 445.588 160.768 459.036 173.021 460.034C175.571 460.249 176.766 459.125 177.462 458.554C178.675 457.555 186.772 452.686 183.009 453.685L181.386 451.777C181.76 452.258 180.922 452.401 173.752 457.698C162.944 455.237 161.624 446.89 161.624 443.055C161.018 440.023 162.266 438.525 165.262 439.024C168.259 437.526 171.701 433.602 171.701 433.602L170.239 431.801C170.239 431.801 168.009 434.28 165.245 436.527L165.262 436.509Z" fill="#0E141B"/>
<path d="M160.5 444.516C161.553 447.174 174.894 456.127 183.794 454.165L183.401 452.418C175.732 454.13 161.713 443.91 160.911 441.895L160.5 444.516Z" fill="#0E141B"/>
<path d="M164.62 438.328L166.422 437.133C166.903 438.328 172.004 442.376 177.694 445.159C177.854 446.122 178.318 446.978 178.924 447.727C172.004 444.856 165.316 440.076 164.62 438.328Z" fill="#0E141B"/>
<path d="M266.212 524.956C266.212 532.697 267.264 545.538 269.012 567.048C269.012 567.048 269.815 576.964 269.939 578.445C268.869 579.444 259.416 588.326 258.186 589.485C256.456 589.039 229.167 581.887 227.009 581.316C226.171 573.415 221.123 526.133 220.41 512.828C220.267 510.206 220.196 507.709 220.196 505.39C220.196 495.278 221.516 488.286 223.924 486.146L221.551 483.488C217.556 487.038 215.969 496.972 216.843 513.024C217.628 527.578 222.871 579.158 223.282 581.762C223.692 584.366 224.28 584.366 225.689 584.776C227.098 585.187 257.776 593.676 259.185 593.445C260.594 593.213 273.203 580.799 273.614 579.89C274.024 578.962 272.543 566.78 272.543 566.78C270.813 545.556 269.369 532.483 269.743 524.92C270.011 519.587 271.045 519.837 271.42 518.375C271.58 518.125 270.938 517.643 271.562 517.233C269.993 517.483 268.388 517.643 266.765 517.697C266.372 519.409 266.176 521.728 266.176 524.974L266.212 524.956Z" fill="#0E141B"/>
<path d="M342.477 584.776C342.673 582.368 340.657 503.303 336.252 490.889C331.722 478.137 327.209 476.442 326.621 476.246L322.608 479.653C322.608 479.653 328.476 481.882 332.382 492.905C336.413 504.248 338.767 578.961 338.999 586.506C338.25 587.433 326.318 602.183 325.051 603.753C323.072 603.253 296.693 596.583 294.481 596.012C293.91 588.985 290.985 552.35 290.629 540.65C290.183 526.132 286.812 519.39 283.566 514.7C283.227 514.218 282.835 513.79 282.407 513.433C281.176 514.182 279.856 514.824 278.465 515.377C279.41 515.556 280.124 516.002 280.641 516.733C283.584 520.996 286.651 527.167 287.062 540.757C287.454 553.742 290.861 596.779 290.896 597.225C290.896 597.225 290.896 599.026 292.698 599.436C294.339 599.793 319.54 606.767 325.283 607.694C326.443 607.873 326.639 607.676 327.334 606.963C330.705 603.503 340.943 590.269 341.638 589.217C342.441 588.022 342.245 587.219 342.441 584.811L342.477 584.776Z" fill="#0E141B"/>
<path d="M257.365 509.51C251.854 515.074 255.671 544.36 257.954 571.381L259.595 591.393L257.811 591.536L255.76 570.311C252.853 535.728 250.356 513.023 255.76 507.887L257.365 509.51Z" fill="#0E141B"/>
<path d="M322.501 521.924C324.463 549.372 326.211 602.772 326.246 603.307L324.623 604.823C324.588 604.288 321.663 549.141 319.701 521.71C317.739 494.35 312.477 490.693 307.376 487.162L309.713 485.949C314.903 489.552 320.485 493.69 322.501 521.924Z" fill="#0E141B"/>
<path d="M269.601 549.355L255.76 560.717L222.14 552.637L222.533 550.301C222.533 550.301 254.494 557.97 255.314 558.166C255.956 557.667 268.477 547.322 268.477 547.322L269.618 549.338L269.601 549.355Z" fill="#0E141B"/>
<path d="M340.711 553.208L324.106 571.846L290.343 564.765L290.7 562.25C290.7 562.25 322.465 568.903 323.446 569.117C324.106 568.386 339.373 551.264 339.373 551.264L340.729 553.226L340.711 553.208Z" fill="#0E141B"/>
<path d="M134.639 236.305C135.352 236.715 196.225 277.434 204.697 286.459C207.747 289.723 210.672 293.664 210.672 295.483C210.672 297.303 207.069 297.891 207.069 297.891C207.033 297.838 204.964 291.97 202.093 288.902C194.245 280.537 137.082 242.512 131.785 238.998C130.626 239.123 110.507 241.37 108.278 241.62C107.796 243.832 102.481 268.142 102.053 270.103C108.438 274.973 149.371 306.256 160.197 315.531C170.578 324.431 171.523 331.904 171.523 334.312C171.523 334.775 171.487 335.061 171.487 335.114L171.344 336.059L170.488 336.47C170.042 336.684 166.065 338.521 163.247 336.987C160.019 335.239 120.049 303.741 113.004 298.195C111.506 298.605 96.7739 302.636 94.9012 303.135C94.5623 305.168 90.478 329.87 90.1926 331.565C95.3827 336.523 130.483 370.036 139.383 377.277C149.389 385.446 158.075 387.408 159.983 387.408L160.376 392.455C156.844 392.455 148.604 390.28 138.866 382.343C129.199 374.459 90.5136 336.808 89.1225 335.203C87.7313 333.598 86.7147 332.795 87.1249 330.388C87.4816 328.265 90.5136 307.077 91.6194 301.565C91.8156 300.549 92.2972 300.032 93.4565 299.657C97.6657 298.284 109.277 295.608 111.417 295.287C114.021 294.895 114.431 294.681 117.428 297.089C120.442 299.496 162.641 332.599 164.959 333.848C165.601 334.205 166.85 333.973 167.92 333.616C167.706 331.351 166.297 325.447 157.879 318.242C146.268 308.272 101.161 274.206 100.359 273.421C99.5563 272.636 98.3613 271.816 98.7537 270.014C99.1104 268.427 103.979 245.419 105.121 239.658C105.317 238.642 105.745 238.142 106.976 237.946C112.023 237.108 127.362 235.681 129.859 235.52C132.606 235.342 133.462 235.609 134.675 236.323L134.639 236.305Z" fill="#0E141B"/>
<path d="M100.056 306.327C113.86 317.706 150.512 347.919 152.724 349.257C153.812 349.917 157.468 350.488 161.374 348.954C164.121 347.866 167.742 345.369 169.382 339.679L171.095 340.161C169.258 346.564 165.084 350.22 161.963 351.451C157.986 353.02 153.883 352.574 151.975 351.451C149.906 350.202 122.618 327.765 99.0925 308.36L93.296 303.58L94.2234 301.547L100.038 306.345L100.056 306.327Z" fill="#0E141B"/>
<path d="M122.404 249.61C144.341 265.323 181.083 291.612 185.649 296.178C192.836 303.366 193.621 307.201 193.621 308.503H191.838C191.838 307.896 191.481 304.507 184.4 297.427C179.941 292.968 141.844 265.697 121.369 251.036C113.415 245.347 108.171 241.584 107.404 240.977L108.51 239.586C109.241 240.175 114.77 244.116 122.404 249.592V249.61Z" fill="#0E141B"/>
<path d="M158.61 254.873C158.61 254.873 135.941 259.26 134.817 259.474C134.585 260.634 129.003 292.363 129.003 292.363L127.255 292.024L133.301 257.941L158.289 253.125L158.61 254.873Z" fill="#0E141B"/>
<path d="M138.438 316.351C138.438 316.351 120.317 323.039 119.318 323.36C119.158 324.43 113.967 356.677 113.967 356.677L112.202 355.197L117.142 321.255L136.833 314.924L138.438 316.351Z" fill="#0E141B"/>
<path d="M267.942 276.613C206.677 276.613 156.844 326.446 156.844 387.711C156.844 441.039 195.03 486.056 246.789 497.293C246.432 495.438 245.433 493.119 245.986 491.282C198.383 480.938 161.357 438.025 161.357 387.372C161.357 328.979 208.87 281.465 267.264 281.465C303.506 281.465 335.557 299.782 354.658 327.641C355.408 325.75 356.371 323.895 357.566 322.13C337.322 294.556 304.719 276.631 267.978 276.631L267.942 276.613Z" fill="#0E141B"/>
<path d="M288.595 491.104C289.683 492.87 290.557 494.6 291.235 496.348C326.585 488.768 356.103 463.53 370.211 431.087C368.499 428.965 368.392 426.522 366.305 424.756C353.606 458.287 324.374 483.756 288.595 491.104Z" fill="#0E141B"/>
<path d="M259.185 400.054C245.54 381.327 219.518 376.618 202.539 388.978C186.505 400.661 181.368 426.219 195.868 446.124C210.279 465.921 235.392 468.989 251.997 456.896C269.012 444.5 272.633 418.514 259.185 400.036V400.054ZM225.315 460.535C214.899 458.894 205.178 452.794 198.615 443.805C192.069 434.816 189.251 423.669 190.874 413.27C192.301 404.174 196.992 396.327 204.09 391.154C219.875 379.65 243.115 384.573 255.885 402.105C262.431 411.094 265.249 422.242 263.608 432.64C262.181 441.736 257.49 449.584 250.392 454.756C243.293 459.928 234.393 461.979 225.279 460.552L225.315 460.535Z" fill="#0E141B"/>
<path d="M223.282 426.576C224.512 427.913 224.762 429.697 223.834 430.535C222.907 431.373 221.159 430.981 219.929 429.626C218.698 428.288 218.448 426.504 219.376 425.666C220.303 424.828 222.051 425.22 223.282 426.576Z" fill="#0E141B"/>
<path d="M541.058 277.684C534.066 271.12 526.237 265.431 517.782 260.758C517.426 262.559 516.445 263.843 514.804 264.967C523.401 269.711 531.32 275.561 538.329 282.339C539.096 280.734 540.006 279.164 541.058 277.684Z" fill="#0E141B"/>
<path d="M363.772 411.326C362.328 412.218 360.901 413.145 359.492 414.091C375.633 445.642 405.864 468.828 441.856 475.249C441.946 473.412 442.106 471.575 442.302 469.738C407.987 463.567 379.164 441.433 363.772 411.326Z" fill="#0E141B"/>
<path d="M574.642 387.176C572.734 386.588 570.95 385.803 569.434 384.572C560.588 425.665 529.964 458.019 489.317 468.025C490.119 469.737 491.493 471.449 492.117 473.233C534.066 462.71 565.065 429.482 574.642 387.176Z" fill="#0E141B"/>
<path d="M351.733 361.386C351.733 329.764 365.164 301.227 386.584 281.126C384.355 281.162 382.125 281.126 379.86 281.055C359.456 301.869 346.829 330.334 346.829 361.725C346.829 370.5 347.845 379.025 349.7 387.23C351.305 386.837 352.911 386.463 354.516 386.035C352.697 378.098 351.698 369.858 351.698 361.386H351.733Z" fill="#0E141B"/>
<path d="M477.92 247.489C472.765 246.775 467.522 246.383 462.171 246.383C456.821 246.383 452.094 246.757 447.189 247.382C445.495 249.433 443.694 251.395 441.696 253.16C448.224 251.948 454.948 251.288 461.814 251.288C467.005 251.288 472.106 251.68 477.1 252.376C476.422 250.788 476.368 249.379 477.92 247.489Z" fill="#0E141B"/>
<path d="M401.619 328.604C379.7 344.994 375.49 378.918 393.094 403.763C412.107 430.587 445.441 433.833 465.613 418.745C489.388 400.962 491.546 367.86 474.478 343.782C456.999 319.115 424.36 311.588 401.619 328.586V328.604ZM431.209 424.452C417.457 422.294 404.616 414.054 395.983 401.854C379.2 378.169 382.446 346.279 403.225 330.744C412.481 323.824 424.128 321.023 436.006 322.896C449.758 325.054 462.599 333.294 471.232 345.494C488.015 369.179 484.769 401.069 464.008 416.604C454.752 423.542 443.105 426.325 431.209 424.452Z" fill="#0E141B"/>
<path d="M432.136 377.456C433.402 378.847 433.67 380.702 432.707 381.576C431.744 382.45 429.942 382.039 428.658 380.63C427.374 379.239 427.124 377.384 428.087 376.51C429.051 375.636 430.87 376.064 432.136 377.456Z" fill="#0E141B"/>
<path d="M384.248 503.714C364.807 534.338 362.274 570.972 374.17 602.559C375.455 600.846 376.846 599.223 378.362 597.725C367.821 568.065 370.496 534.017 388.635 505.444C398.248 490.284 411.126 478.423 425.751 470.147C424.592 469.184 423.45 468.168 422.237 467.24C407.291 475.89 394.128 488.144 384.248 503.714Z" fill="#0E141B"/>
<path d="M537.58 469.452C531.23 465.421 524.631 462.139 517.854 459.535C516.641 460.659 515.303 461.658 513.859 462.549C521.046 465.136 528.074 468.524 534.798 472.805C538.65 475.248 542.253 477.924 545.677 480.759C546.533 479.582 547.496 478.477 548.584 477.46C545.124 474.606 541.468 471.931 537.58 469.452Z" fill="#0E141B"/>
<path d="M583.756 567.707C582.864 585.346 577.585 603.004 567.455 618.966C552.294 642.848 528.734 659.4 501.124 665.553C473.515 671.724 445.156 666.766 421.274 651.606C412.802 646.219 405.383 639.816 399.015 632.664C398.052 634.59 396.019 635.803 394.842 637.391C401.37 644.578 409.913 651.588 418.492 657.045C443.551 672.955 473.301 678.145 502.266 671.688C531.231 665.214 555.933 647.86 571.842 622.801C582.294 606.339 587.858 588.129 588.929 569.919C587.109 569.294 585.433 568.51 583.774 567.707H583.756Z" fill="#0E141B"/>
<path d="M479.739 571.578C456.036 573.094 438.486 592.695 439.805 613.509C441.197 635.394 461.725 650.893 484.198 649.466C507.313 647.986 525.006 629.133 523.668 608.159C522.58 591.001 507.688 569.795 479.739 571.578ZM454.074 636.339C447.154 630.257 443.034 622.088 442.481 613.331C441.928 604.574 444.96 595.959 451.042 589.039C457.998 581.12 468.36 576.18 479.472 575.466C490.583 574.753 501.481 578.338 509.4 585.311C516.32 591.393 520.422 599.562 520.993 608.319C522.241 627.814 505.636 644.793 483.984 646.184C472.873 646.898 461.975 643.313 454.056 636.339H454.074Z" fill="#0E141B"/>
<path d="M482.664 616.131C484.466 615.81 486.089 616.559 486.303 617.79C486.517 619.02 485.25 620.287 483.449 620.59C481.648 620.911 480.025 620.162 479.811 618.931C479.597 617.701 480.881 616.434 482.664 616.131Z" fill="#0E141B"/>
<path d="M453.521 200.473C453.521 200.473 415.745 120.266 411.197 111.42C410.769 110.582 410.912 110.76 410.038 110.011C406.257 106.729 389.152 91.9079 387.369 90.8377C385.407 89.6606 384.23 89.8568 382.642 90.6415C381.073 91.4263 352.179 110.1 350.217 111.277C348.255 112.454 349.022 114.238 349.611 116.004C350.2 117.769 385.514 193.196 390.437 206.573C392.488 212.12 393.54 216.418 393.54 219.949C393.54 224.711 391.56 228.1 387.565 231.275C383.071 230.562 379.022 226.442 375.223 218.523C370.55 208.749 341.086 144.309 340.105 142.561C339.302 141.134 338.767 140.67 337.197 140.028C335.949 139.529 324.124 133.643 320.878 131.86C318.738 130.7 317.043 131.449 316.098 131.984C309.463 135.694 288.488 149.499 286.313 150.801C284.154 152.085 284.351 152.37 285.135 154.921C285.92 157.471 320.61 241.691 325.123 251.839C335.45 275.079 361.168 287.154 378.701 283.836C401.798 279.467 420.525 271.28 442.445 254.426C460.138 240.817 462.314 219.432 453.539 200.455L453.521 200.473ZM337.304 144.398C339.837 149.963 367.518 210.675 372.012 220.056C376.311 229.063 379.343 233.005 384.801 233.843C382.018 235.413 378.166 236.84 374.385 236.394C370.657 235.948 367.536 233.754 365.146 229.848C357.066 216.668 325.604 149.356 320.432 135.712C324.962 138.048 336.448 143.952 337.287 144.38L337.304 144.398ZM439.877 251.144C418.456 267.624 400.532 276.078 378.023 280.341C363.969 282.998 338.892 274.08 328.369 250.395C324.195 240.995 293.429 164.873 288.952 153.762C291.021 152.46 312.977 138.512 317.846 135.409C322.091 147.894 355.283 218.826 362.988 231.418C365.77 235.966 369.89 239.14 374.367 239.676C386.798 241.138 397.125 230.972 397.125 219.949C397.125 215.669 395.823 210.871 393.79 205.342C389.117 192.679 358.243 124.743 353.232 113.721C355.568 112.24 382.518 95.0291 384.462 93.7806C386.281 95.2609 407.291 112.401 407.88 112.882C408.219 113.596 450.293 201.989 450.293 201.989C452.915 207.536 454.377 213.992 454.377 220.556C454.377 231.757 450.097 243.296 439.877 251.144Z" fill="#0E141B"/>
<path d="M441 212.102L441.803 214.92C445.174 226.406 450.828 245.651 422.933 266.268L421.524 264.378C448.099 244.741 442.748 226.495 439.538 215.58L438.717 212.708C435.882 202.114 387.94 100.897 383.927 92.8711L386.78 92.9781C390.793 101.022 438.04 200.99 441 212.084V212.102Z" fill="#0E141B"/>
<path d="M332.15 165.517L351.965 174.203L353.713 176.379C333.416 169.173 334.058 168.781 332.703 168.299C331.775 168.87 300.848 187.365 300.848 187.365L300.313 185.582L331.633 165.303L332.168 165.499L332.15 165.517Z" fill="#0E141B"/>
<path d="M402.404 127.329L424.324 144.308L425.305 147.055C403.171 130.539 403.813 130.86 402.779 130.093C401.495 130.843 368.57 149.837 368.57 149.837L367.375 147.804L401.762 126.865L402.386 127.329H402.404Z" fill="#0E141B"/>
<path d="M657.542 204.878C655.384 206.055 572.199 249.877 559.536 256.958C541.165 267.231 529.393 286.708 529.536 308.503C529.643 324.84 541.397 368.27 552.936 375.351C562.532 382.735 577.692 391.617 591.8 392.205C600.593 392.58 611.473 391.634 631.359 382.36C649.355 373.959 709.265 342.319 710.835 341.142C712.404 339.965 713.046 339.608 712.404 337.004C712.083 335.72 703.165 300.62 701.792 298.854C700.419 297.088 686.222 287.903 684.277 286.743C682.333 285.584 681.584 285.566 679.426 286.547C677.268 287.528 610.617 320.328 601.877 324.305C598.863 323.324 596.794 321.63 595.795 319.24C595.349 318.152 595.117 316.903 595.117 315.584C595.117 313.301 595.777 310.804 597.062 308.503C600.111 303.01 617.18 293.771 622.87 291.024C628.095 288.491 685.062 259.544 687.577 257.993C689.057 257.083 689.325 256.048 688.933 254.693C688.54 253.337 679.373 222.589 678.731 221.091C678.088 219.593 661.501 204.753 660.788 204.325C660.092 203.897 659.7 203.701 657.524 204.878H657.542ZM675.431 221.608C675.716 222.535 686.007 253.997 685.651 255.192C685.276 256.387 629.825 282.73 620.783 287.849C611.74 292.968 598.399 298.765 593.958 306.773C592.371 309.627 591.55 312.694 591.55 315.548C591.55 317.331 591.871 319.044 592.513 320.595C593.548 323.075 595.92 326.356 601.467 327.944L602.073 328.122L602.662 327.872C607.424 325.839 673.63 293.896 682.512 289.597C684.01 290.614 698.154 300.156 699.152 300.816C699.473 302.011 708.534 335.363 709.212 337.86C700.597 342.462 646.413 371.373 629.879 379.096C610.706 388.049 600.325 388.959 591.978 388.602C578.798 388.05 565.065 379.506 555.719 372.319C545.909 366.29 533.692 325.411 533.567 308.877C533.567 308.753 533.567 308.628 533.567 308.503C533.567 288.456 544.429 269.461 561.301 260.026C573.661 253.123 645.931 214.26 659.397 207.75C660.966 209.087 674.753 220.966 675.467 221.572L675.431 221.608Z" fill="#0E141B"/>
<path d="M671.257 242.049L671.543 242.994L670.669 243.44C670.062 243.744 610.242 273.725 595.456 283.588C580.885 293.309 575.07 305.383 578.512 316.37C580.136 321.56 582.294 325.466 586.342 327.125C590.766 328.944 596.116 328.284 601.806 325.252L603.661 327.392C594.618 331.923 589.035 332.297 583.935 330.21C579.226 328.284 576.408 323.718 574.553 317.832C573.875 315.692 573.554 313.498 573.554 311.287C573.554 301.121 581.402 290.116 594.119 281.644C608.048 272.352 660.645 245.955 668.047 242.228C667.512 240.444 658.487 207.234 658.487 207.234L660.752 206.574L671.24 242.067L671.257 242.049Z" fill="#0E141B"/>
<path d="M693.837 328.391L694.087 329.301L693.249 329.746C689.985 331.494 612.828 373.39 596.366 378.116C566.438 386.678 554.577 376.03 548.156 367.754L550.011 366.309C556.022 374.032 567.312 383.36 595.867 375.191C611.223 370.804 682.262 332.885 690.627 328.409C690.145 326.661 680.265 288.689 680.265 288.689L682.53 288.047L693.82 328.391H693.837Z" fill="#0E141B"/>
<path d="M636.674 258.938C637.37 259.402 655.17 271.155 655.17 271.155L652.78 272.154L634.017 260.65L623.69 223.552L625.955 222.91C625.955 222.91 636.442 258.135 636.674 258.938Z" fill="#0E141B"/>
<path d="M646.502 305.668C646.502 308.147 653.012 331.833 657.346 346.547C658.184 346.993 676.929 356.499 676.929 356.499L675.823 358.568L654.813 348.17L654.67 347.706C653.565 343.925 644.308 310.163 644.308 306.524L646.484 305.668H646.502Z" fill="#0E141B"/>
<path d="M689.022 256.228L686.614 257.208L668.208 243.101L669.688 240.871L689.022 256.228Z" fill="#0E141B"/>
<path d="M711.102 338.984L709.818 340.946L690.645 329.603L692.5 326.82L711.102 338.984Z" fill="#0E141B"/>
<path d="M648.107 420.671C645.111 422.169 573.305 456.182 562.318 462.709C549.405 470.379 537.312 486.306 538.24 506.264C539.096 524.438 542.699 548.873 557.52 558.594C572.074 568.153 581.491 570.383 591.961 570.882C609.404 571.72 680.621 533.035 683.136 531.537C685.954 529.843 686.346 528.933 686.025 526.543C685.776 524.706 681.406 501.93 680.175 496.026C679.89 494.706 679.605 494.243 678.481 493.387C675.574 491.157 667.405 486.199 664.872 484.754C663.677 484.077 662.643 484.023 659.861 485.254C657.613 486.252 602.912 512.596 595.563 515.842C592.246 514.575 591.443 511.115 591.283 509.599C591.247 509.189 591.211 508.797 591.211 508.386C591.211 505.265 592.46 502.304 594.297 501.323C607.799 494.171 668.6 467.472 671.115 466.223C673.612 464.975 673.861 463.476 673.612 461.461C673.362 459.463 668.636 434.244 667.744 432.496C666.852 430.748 656.097 422.669 654.1 420.671C652.102 418.673 651.103 419.173 648.089 420.671H648.107ZM664.302 432.692C664.551 433.852 670.187 460.391 670.722 462.941C661.18 467.097 605.355 491.443 592.638 498.167C589.624 499.772 587.644 503.91 587.644 508.369C587.644 508.904 587.68 509.439 587.734 509.974C588.251 514.789 590.213 518.374 594.297 519.534L595.653 519.676L596.223 519.444C600.254 517.821 655.598 490.925 663.178 487.251C664.587 488.125 675.556 494.867 676.733 495.58C677.001 497.025 682.244 525.99 682.654 528.309C673.255 533.321 607.513 568.064 592.157 567.315C582.276 566.834 573.376 564.711 559.5 555.597C545.214 546.233 541.967 521.014 541.308 506.817C541.272 506.175 541.254 505.533 541.254 504.891C541.254 487.269 552.58 472.644 564.155 465.759C574.803 459.446 639.903 428.055 651.745 422.74C653.19 423.881 663.446 431.979 664.319 432.674L664.302 432.692Z" fill="#0E141B"/>
<path d="M658.255 452.883L658.398 453.632L657.703 453.935C657.15 454.185 601.77 478.602 589.125 486.45C575.962 494.618 574.428 502.787 576.247 513.31C576.961 517.484 578.12 519.767 580.011 520.712C582.9 522.174 588.179 520.872 596.651 516.645L598.025 518.536C586.021 524.546 581.241 524.19 577.674 522.388C574.5 520.783 573.447 516.842 572.877 513.595C572.466 511.259 572.234 509.012 572.234 506.818C572.234 498.738 576.444 491.551 587.484 484.702C599.701 477.122 649.552 455.469 655.812 452.705C655.544 451.278 650.212 421.011 650.212 421.011L652.084 420.654L658.238 452.865L658.255 452.883Z" fill="#0E141B"/>
<path d="M669.51 520.532L669.635 521.228L669.545 521.923C666.852 523.297 602.769 555.864 588.839 559.146C568.81 563.89 555.79 557.47 551.973 552.333L553.507 551.191C557.039 555.918 569.22 561.286 588.358 556.756C601.431 553.653 660.645 523.689 666.763 520.568C666.513 519.23 661.519 487.394 661.519 487.394L663.392 487.055L669.51 520.514V520.532Z" fill="#0E141B"/>
<path d="M627.186 466.188C627.792 466.563 627.418 465.546 644.397 475.926L643.398 477.549L624.956 467.187L619.962 436.171L621.835 435.832C621.835 435.832 627.025 465.368 627.168 466.188H627.186Z" fill="#0E141B"/>
<path d="M632.091 501.252C632.091 501.252 635.783 523.618 637.887 535.514C638.761 535.907 656.365 544.289 656.365 544.289L654.795 544.967L635.765 537.066L635.515 536.62C634.962 533.517 630.111 505.23 630.289 502.358L632.091 501.234V501.252Z" fill="#0E141B"/>
<path d="M672.203 461.479L671.168 463.084L656.062 453.827L657.845 452.258L672.203 461.479Z" fill="#0E141B"/>
<path d="M685.455 527.525L684.652 529.255L667.423 521.978L668.975 519.838L685.455 527.525Z" fill="#0E141B"/>
<path d="M404.723 596.46C404.723 596.46 402.333 602.363 402.333 603.112C403.332 610.122 399.836 609.872 399.836 609.872C399.836 609.872 397.571 615.579 397.535 615.651L395.466 614.616C396.518 612.512 397.624 609.515 398.855 606.376C400.121 606.608 400.817 606.59 400.46 602.649C401.263 600.597 401.762 599.028 402.404 597.03C397.874 587.399 387.69 588.826 385.514 589.272C385.335 589.522 383.195 592.411 382.785 593.053C379.004 593.998 376.792 597.066 379.539 597.137C377.149 600.544 375.579 603.362 375.579 603.362L373.332 603.112C373.332 603.112 374.634 601.347 375.883 598.921C375.062 595.728 375.044 593.57 380.609 592.411C381.108 592.161 384.283 588.166 384.854 587.096C385.425 586.026 399.087 583.6 404.758 596.46H404.723Z" fill="#0E141B"/>
<path d="M396.429 594.854C399.818 597.119 401.798 599.883 401.994 602.648C401.994 602.648 401.584 606.375 400.638 603.326C399.693 600.276 398.284 598.296 395.413 596.37C391.061 593.48 383.677 593.427 379.949 593.98C376.222 594.55 376.596 593.248 380.894 591.982C385.211 590.716 391.56 591.608 396.429 594.854Z" fill="#0E141B"/>
<path d="M394.021 599.867C397.731 602.346 399.515 605.432 399.711 608.285L398.338 610.622C398.177 608.339 395.787 603.577 392.541 601.419C388.082 598.44 380.609 597.245 377.327 598.369L378.594 596.496C382.428 595.194 389.045 596.567 394.021 599.885V599.867Z" fill="#0E141B"/>
<path d="M391.186 605.021C394.788 607.375 397.392 611.477 397.589 614.26L395.145 613.404C395.002 611.246 393.165 608.838 390.115 606.805C385.585 603.79 377.024 601.864 376.186 603.541L371.138 602.809C374.813 599.759 382.696 599.456 391.186 605.021Z" fill="#0E141B"/>
<path d="M379.824 603.255C368.392 600.579 358.796 604.129 355.372 612.422C353.499 617.987 353.963 624.033 356.656 629.455C358.065 632.273 360.045 634.788 362.417 636.893C365.556 639.425 365.556 635.751 365.039 635.591C362.524 633.593 360.455 631.114 359.046 628.278C356.674 623.498 356.264 618.183 357.869 613.385C361.347 604.967 371.549 604.093 379.2 605.894C388.938 608.177 399.033 615.472 399.033 626.263C399.033 626.601 399.033 626.922 398.998 627.261C395.484 637.445 384.034 642.867 373.047 639.728C372.958 640.781 373.011 641.762 373.404 642.618C385.478 645.543 397.892 639.693 401.691 628.403L401.744 628.242V628.064C402.654 615.062 390.936 605.894 379.789 603.29L379.824 603.255Z" fill="#0E141B"/>
<path d="M372.601 613.1C372.084 614.152 370.033 617.88 367.678 624.835C362.024 621.286 358.761 615.097 358.725 615.026L357.708 612.814L355.051 619.396C356.781 626.762 362.631 631.47 364.397 632.772C364.218 633.628 363.326 635.965 363.326 635.965C363.326 635.965 363.576 637.766 364.379 637.713C365.181 637.659 365.378 637.213 366.894 637.267C367.839 637.303 369.605 638.069 369.605 638.069C369.605 638.069 371.46 638.979 372.119 639.728C372.779 640.477 372.672 642.243 373.421 642.582C374.171 642.939 376.186 641.119 376.186 641.119C376.186 641.119 376.721 638.712 377.078 638.141C385.032 640.691 391.578 638.355 391.863 638.248L392.363 637.802C393.576 635.341 395.627 631.114 395.752 630.329C395.752 630.329 395.859 628.813 394.574 629.312C390.651 630.828 383.338 630.365 380.877 629.651C381.287 628.403 384.283 620.983 384.997 618.022C385.175 617.273 385.086 616.756 384.176 616.364C381.537 615.186 374.278 612.565 374.278 612.565C374.278 612.565 373.118 612.047 372.601 613.1ZM382.821 617.897C382.357 619.324 379.111 627.582 378.701 629.045C378.273 630.507 379.432 631.096 379.432 631.096C381.447 631.809 386.655 633.075 393.362 631.452C392.773 632.772 391.846 634.716 390.9 636.643C389.687 637.035 382.482 637.962 376.989 636.232C375.687 635.822 375.294 636.607 375.134 637.231C374.973 637.855 374.67 638.498 374.527 639.318C373.742 638.801 372.708 637.534 370.96 636.553C368.517 635.18 366.947 635.198 365.716 635.323C365.984 634.984 366.091 634.734 366.43 633.735C366.787 632.737 365.895 631.577 365.895 631.577C365.823 631.524 357.673 624.514 357.245 620.626C356.727 619.057 357.173 617.559 357.673 616.631C359.135 618.985 362.72 624.265 367.696 626.994C367.696 626.994 368.802 627.6 368.998 626.476C369.212 625.353 373.368 616.078 374.295 614.509C375.437 614.955 381.537 617.38 382.785 617.862L382.821 617.897Z" fill="#0E141B"/>
<path d="M489.513 441.824C489.513 441.824 488.55 448.637 488.746 449.422C491.636 456.521 487.89 457.163 487.89 457.163C487.89 457.163 487.444 464.475 487.426 464.565L484.537 463.28C485.09 460.801 485.464 457.359 485.946 453.738C487.319 453.649 488.051 453.471 486.659 449.422C486.98 447.05 487.087 445.284 487.248 443.019C479.953 434.101 469.609 438.257 467.45 439.292C467.326 439.595 465.827 443.198 465.56 443.964C461.832 445.944 460.298 449.743 463.206 449.119C461.565 453.31 460.673 456.699 460.673 456.699L458.229 457.02C458.229 457.02 459.139 454.826 459.799 451.955C458.105 448.816 457.516 446.551 463.063 443.893C463.527 443.501 464.49 438.917 465.667 437.579C467.022 436.028 480.203 429.821 489.531 441.842L489.513 441.824Z" fill="#0E141B"/>
<path d="M480.363 442.306C484.537 443.787 487.337 446.177 488.265 449.03C488.265 449.03 488.817 453.043 487.016 450.1C485.233 447.158 483.217 445.428 479.703 444.179C474.371 442.289 467.379 443.591 463.616 445.16C459.835 446.73 459.086 445.838 463.295 443.359C467.486 440.897 474.424 440.184 480.381 442.306H480.363Z" fill="#0E141B"/>
<path d="M479.151 448.192C483.717 449.815 486.392 452.597 487.355 455.54L486.517 458.358C485.75 456.004 481.969 451.634 477.991 450.207C472.516 448.263 464.329 448.941 461.172 450.974L462.028 448.673C465.72 446.301 473.051 446.016 479.151 448.192Z" fill="#0E141B"/>
<path d="M477.51 454.326C481.915 455.86 485.75 459.481 486.677 462.352L483.877 462.085C483.146 459.855 480.595 457.822 476.85 456.484C471.285 454.505 461.779 454.736 461.333 456.698L455.822 457.251C458.889 453.096 467.094 450.706 477.51 454.326Z" fill="#0E141B"/>
<path d="M494.703 475.729C492.242 461.853 477.528 455.307 465.096 455.468C452.344 455.646 443.194 461.889 441.767 471.484C441.268 477.816 443.319 484.04 447.564 489.016C449.972 491.834 452.13 493.975 457.463 495.972C458.604 495.188 458.729 494.385 459.977 494.064C456.018 492.655 452.451 490.283 449.758 487.144C446.012 482.756 444.193 477.281 444.621 471.823C446.083 462.085 456.571 458.5 465.114 458.375C475.958 458.232 488.514 463.244 491.332 474.552C491.421 474.908 491.493 475.265 491.564 475.622C490.601 486.448 479.846 494.777 468.556 495.509C469.947 496.168 468.949 497.346 471.82 498.059C482.896 495.901 493.811 487.215 494.703 476.103V475.925V475.747V475.729Z" fill="#0E141B"/>
<path d="M460.067 467.65C459.781 468.898 458.622 473.321 457.962 481.24C451.077 478.993 446.012 473.357 445.959 473.286L444.692 471.859L443.23 478.833C446.993 486.11 454.377 489.534 456.571 490.408C456.606 491.353 456.321 495.277 456.321 495.277C456.321 495.277 456.981 495.866 457.605 495.919C458.229 495.973 459.086 494.849 459.656 494.795C460.227 494.742 469.02 496.08 469.02 496.08C469.02 496.08 470.215 498.345 471.82 498.077C472.855 497.899 472.337 496.633 471.892 495.759C471.339 494.635 471.089 493.44 471.339 492.744C480.363 493.333 486.659 489.177 486.927 488.981L487.337 488.375C487.961 485.485 489.014 480.491 488.942 479.653C488.942 479.653 488.657 478.03 487.444 478.886C483.716 481.508 475.887 482.935 473.104 482.81C473.229 481.08 474.995 468.72 474.174 468.256C473.354 467.81 461.672 466.597 461.672 466.597C461.672 466.597 460.334 466.366 460.049 467.596L460.067 467.65ZM472.088 470.022C471.963 471.645 470.732 481.151 470.661 482.792C470.607 484.451 471.963 484.754 471.963 484.754C474.264 484.968 480.078 484.95 486.731 481.49C486.463 483.024 485.982 485.325 485.5 487.572C484.305 488.303 476.975 491.157 470.75 490.782C469.27 490.693 469.198 491.425 468.984 491.728C468.788 492.031 469.145 493.226 469.234 494.118C468.271 493.779 467.379 493.636 465.06 493.315C462.742 492.994 460.263 492.53 459.014 492.976C458.961 491.639 458.854 490.979 458.854 490.265C458.854 489.552 457.926 488.803 457.926 488.803C457.837 488.767 447.421 483.541 445.959 479.582C444.995 478.066 445.085 476.389 445.352 475.283C447.51 477.37 452.665 481.972 458.622 483.541C458.622 483.541 459.942 483.88 459.852 482.649C459.781 481.419 461.725 470.593 462.278 468.72C463.598 468.898 470.643 469.826 472.088 470.022Z" fill="#0E141B"/>
<path d="M301.936 478.654C300.902 481.49 298.155 484.415 297.941 485.182C296.96 492.602 293.572 490.319 293.572 490.319C293.572 490.319 289.755 495.42 289.701 495.491L287.953 493.814C289.576 491.995 291.503 489.284 293.589 486.466C294.749 487.073 295.444 487.287 296.193 483.184C297.567 481.347 298.494 479.903 299.689 478.083C300.331 468.434 288.488 464.618 285.332 465.099C285.082 465.295 282.175 467.578 281.586 468.096C277.627 467.917 274.595 470.361 277.252 471.27C273.952 473.999 271.616 476.389 271.616 476.389L269.476 475.444C269.476 475.444 271.241 474.053 273.15 471.966C273.239 468.47 273.828 466.276 279.606 466.794C280.159 466.687 283.227 463.958 285.26 462.691C289.095 460.212 305.753 468.238 301.936 478.672V478.654Z" fill="#0E141B"/>
<path d="M294.445 474.054C297.139 477.371 298.298 480.778 297.709 483.631C297.709 483.631 296.265 487.287 296.193 483.917C296.122 480.546 295.302 478.102 293.036 475.284C289.594 471.039 283.28 468.667 279.481 468.114C275.665 467.544 275.468 466.42 280.052 466.438C284.636 466.438 290.611 469.309 294.463 474.054H294.445Z" fill="#0E141B"/>
<path d="M290.682 478.404C293.625 482.042 294.499 485.716 293.893 488.677L291.895 490.621C292.377 488.267 291.36 482.702 288.792 479.527C285.26 475.158 278.269 471.68 274.737 471.822L276.521 470.306C280.641 470.146 286.741 473.535 290.682 478.404Z" fill="#0E141B"/>
<path d="M286.473 482.757C289.327 486.235 290.736 491.193 290.147 494.065L287.989 492.46C288.453 490.23 287.329 487.234 284.921 484.255C281.336 479.832 273.471 475.284 272.187 476.729L267.442 474.464C271.901 472.484 279.695 474.553 286.473 482.775V482.757Z" fill="#0E141B"/>
<path d="M275.825 477.548C265.373 471.359 254.975 472.072 249.286 479.439C245.897 484.522 244.631 490.782 245.754 497.096C246.379 500.609 247.752 503.962 249.696 506.977C250.73 506.923 251.676 506.78 252.692 506.477C250.57 503.552 249.072 500.163 248.448 496.614C247.467 491.05 248.555 485.538 251.48 481.151C257.258 473.678 267.496 475.854 274.487 480.009C283.37 485.271 291.235 495.74 288.203 506.673C288.114 507.012 288.007 507.351 287.882 507.69C281.657 516.84 269.155 518.944 259.327 512.702V515.966C270.189 522.012 283.494 519.711 290.218 509.652L290.325 509.509L290.379 509.331C295.533 494.902 286.009 483.576 275.825 477.548Z" fill="#0E141B"/>
<path d="M265.98 485.324C265.177 486.234 262.127 489.391 257.865 495.74C253.317 490.425 251.854 483.166 251.836 483.095L251.48 481.258L247.003 486.412C246.628 494.403 251.034 500.966 252.407 502.803C251.979 503.624 249.179 506.388 249.714 506.923C250.249 507.458 250.927 507.833 251.355 507.833C251.783 507.833 252.568 507.244 253.21 507.458C253.852 507.672 256.491 509.42 257.187 510.169C257.883 510.918 258.453 511.864 258.56 512.292C258.667 512.72 258.614 515.573 259.416 516.002C260.219 516.43 262.199 514.325 262.199 514.325C262.199 514.325 262.805 512.577 263.322 512.113C270.403 517.107 277.484 516.715 277.787 516.697L278.393 516.394C280.266 514.271 283.477 510.597 283.815 509.848C283.815 509.848 284.351 508.332 282.959 508.457C278.697 508.814 271.652 506.121 269.44 504.64C270.367 503.231 277.627 493.689 277.163 492.922C276.699 492.138 267.763 485.306 267.763 485.306C267.763 485.306 266.782 484.433 265.962 485.342L265.98 485.324ZM274.648 493.297C273.774 494.617 268.299 502.001 267.478 503.356C266.658 504.712 267.603 505.657 267.603 505.657C269.369 506.977 274.113 509.848 281.158 510.241C280.213 511.4 278.75 513.094 277.288 514.753C275.986 514.771 268.673 513.54 263.768 510.134C262.609 509.313 262.377 509.634 261.682 510.579C260.968 511.525 261.325 511.4 260.968 512.185C260.825 512.006 260.166 510.33 259.702 509.83C258.168 508.172 255.742 506.584 255.296 506.228C254.708 505.746 253.816 505.8 253.013 505.817C253.495 505.122 254.191 504.212 254.351 503.891C254.512 503.57 254.244 502.072 254.244 502.072C254.191 502.001 248.18 492.405 248.858 488.339C248.786 486.573 249.66 485.217 250.392 484.415C251.159 487.233 253.192 493.689 257.312 497.97C257.312 497.97 258.221 498.915 258.739 497.827C259.256 496.757 265.944 488.588 267.282 487.286C268.263 488.089 273.578 492.387 274.666 493.261L274.648 493.297Z" fill="#0E141B"/>
<path d="M369.658 381.201C369.658 381.201 363.202 382.985 362.399 382.913C354.962 381.094 354.872 384.893 354.872 384.893C354.872 384.893 348.505 386.73 348.416 386.766L349.308 389.12C351.68 388.211 355.033 387.337 358.547 386.338C358.44 384.964 358.511 384.198 362.72 385C365.021 384.34 366.751 383.984 368.98 383.502C378.879 389.423 376.257 400.25 375.562 402.55C375.276 402.729 371.941 404.708 371.21 405.101C369.801 409.078 366.252 411.129 366.466 408.169C362.56 410.398 359.349 411.789 359.349 411.789L359.385 414.25C359.385 414.25 361.418 413.038 364.165 411.95C367.518 413.18 370.407 413.912 372.226 408.026C372.548 407.509 377.863 404.138 377.863 404.138C377.916 403.995 383.891 388.389 369.694 381.201H369.658Z" fill="#0E141B"/>
<path d="M370.657 390.173C368.588 386.267 365.806 383.841 362.863 383.342C362.863 383.342 358.814 383.377 361.989 384.733C365.164 386.071 367.161 387.801 368.927 391.118C371.584 396.112 371.299 403.228 370.3 407.188C369.301 411.147 370.3 411.772 372.119 407.259C373.939 402.747 373.636 395.791 370.675 390.191L370.657 390.173Z" fill="#0E141B"/>
<path d="M365.003 392.242C362.738 387.962 359.599 385.714 356.549 385.197L353.891 386.428C356.335 386.838 361.204 389.942 363.184 393.669C365.913 398.806 366.412 406.992 364.878 410.417L367.036 409.24C368.838 405.244 368.053 397.95 365.021 392.224L365.003 392.242Z" fill="#0E141B"/>
<path d="M359.171 394.757C357.013 390.619 352.875 387.355 349.914 386.855L350.574 389.584C352.875 389.977 355.265 392.206 357.138 395.72C359.902 400.928 361.061 410.381 359.171 411.094L359.421 416.623C363.095 412.985 364.254 404.513 359.171 394.739V394.757Z" fill="#0E141B"/>
<path d="M359.866 407.206C358.226 394.9 349.611 381.273 335.521 380.863H335.343L335.164 380.899C323.072 383.681 315.599 395.613 316.74 408.401C316.99 409.24 318.666 409.382 319.736 409.418C318.167 397.647 325.141 386.553 336.092 383.931C336.466 383.931 336.823 383.967 337.18 384.002C348.773 385.162 355.568 396.844 357.013 407.599C358.136 416.071 356.121 426.968 346.686 429.822C341.353 431.053 335.664 430.036 330.777 426.968C327.245 424.757 324.374 421.546 322.412 417.801C321.948 418.764 320.271 419.584 320.824 420.851C322.965 424.311 325.818 427.289 329.243 429.43C334.79 432.907 341.246 434.049 347.435 432.622C356.727 429.804 361.561 419.852 359.884 407.206H359.866Z" fill="#0E141B"/>
<path d="M349.272 412.182C349.272 412.182 346.383 400.803 345.812 400.054C345.241 399.323 333.274 402.854 331.579 403.246C331.062 400.518 331.329 392.563 333.381 388.496C334.058 387.159 332.4 387.123 332.4 387.123C331.543 387.177 326.781 388.942 323.999 389.977L323.464 390.458C323.321 390.762 320.129 397.575 322.019 406.439C321.377 406.778 319.487 406.707 319.487 406.707L318.078 408.972C318.078 408.972 319.326 409.489 321.163 413.698C322.84 417.533 321.163 419.298 321.11 419.388L322.608 421.118C322.608 421.118 325.551 420.797 326.496 420.69C327.691 422.741 332.15 429.554 339.891 432.211L346.579 429.75L344.974 428.716C344.974 428.716 338.606 424.489 335.36 417.996C343.101 416.195 347.328 414.394 348.505 413.93C349.682 413.466 349.254 412.182 349.254 412.182H349.272ZM347.15 411.932C345.366 412.753 334.95 416.249 333.719 416.356C332.489 416.463 333.024 417.711 333.024 417.711C335.432 423.383 340.747 427.806 343.119 429.643C342.066 430.071 340.426 430.41 338.785 429.679C334.647 428.805 327.959 419.263 327.923 419.191C327.923 419.191 327.352 418.371 325.979 418.46C324.605 418.549 324.124 418.692 323.714 418.674C323.963 417.372 324.213 415.696 322.982 412.913C322.126 410.934 321.484 409.649 321.003 408.758C321.894 408.704 322.34 408.722 322.822 408.651C324.035 408.472 324.391 408.205 324.088 406.76C322.804 400.642 324.57 392.973 325.123 391.689C327.281 390.886 329.475 390.084 330.955 389.584C328.511 396.665 329.332 402.408 329.867 404.673C329.867 404.673 330.366 405.975 332.007 405.672C333.63 405.369 342.851 402.765 344.439 402.408C344.831 403.817 346.793 410.666 347.15 411.932Z" fill="#0E141B"/>
<path d="M482.201 248.558C483.057 246.025 483.931 243.457 484.644 241.334C484.038 239.426 483.61 237.357 483.092 235.234L479.008 247.059C479.436 246.881 479.935 246.738 480.488 246.613C481.327 245.775 481.772 246.917 482.201 248.558Z" fill="#0E141B"/>
<path d="M507.955 272.279C508.205 277.041 493.455 274.794 489.816 272.939C483.645 269.782 478.83 264.11 478.437 259.616C478.491 259.473 478.83 258.474 479.329 256.994C478.366 255.567 477.528 254.087 477.064 252.678L474.817 259.17V259.509C475.102 265.323 480.72 272.297 488.193 276.114C497.896 281.072 505.779 278.022 509.667 275.846C512.468 274.277 511.879 272.44 511.469 272.029C511.986 270.531 512.949 268.373 514.733 264.092C513.502 264.556 512.022 264.735 510.47 264.699C508.526 269.229 508.365 270.834 507.955 272.279Z" fill="#0E141B"/>
<path d="M520.208 251.429L516.944 249.967C515.874 252.375 514.911 254.533 514.037 256.495C515.428 257.119 516.962 257.279 517.604 257.315C518.442 255.371 519.316 253.391 520.19 251.429H520.208Z" fill="#0E141B"/>
<path d="M481.166 245.668C479.632 246.203 478.509 249.004 478.402 252.268C478.259 256.156 481.398 266.839 504.156 276.453L501.695 277.22C479.775 270.959 474.71 255.852 474.87 251.483C475.013 247.095 478.081 244.277 480.417 243.475L481.166 245.668Z" fill="#0E141B"/>
<path d="M482.539 244.063C482.04 245.062 482.218 247.737 483.841 251.233C485.429 254.693 491.992 266.322 509.489 270.549L509.061 272.332C490.779 267.891 483.877 255.638 482.2 252C480.488 248.308 480.025 245.026 480.934 243.225L482.575 244.045L482.539 244.063Z" fill="#0E141B"/>
<path d="M483.538 234.647C482.932 235.361 483.538 237.554 484.947 240.979C488.603 249.95 499.537 262.738 512.022 263.844C514.019 264.022 515.339 263.63 515.928 262.667C516.998 260.955 515.892 257.637 515.107 256.3L517.087 255.105C517.889 256.442 519.762 260.919 517.889 263.897C516.801 265.645 514.197 267.268 511.255 267.001C497.86 265.824 486.873 253.232 482.022 241.621C480.399 237.733 480.346 234.79 481.772 233.113L483.538 234.629V234.647Z" fill="#0E141B"/>
<path d="M514.982 255.283L515.321 257.084C507.17 258.618 495.916 251.876 492.813 241.906L494.507 241.229C497.254 248.113 508.294 256.531 514.965 255.283H514.982Z" fill="#0E141B"/>
<path d="M477.813 203.114C473.604 207.055 471.035 211.639 471.035 215.188C471.035 215.563 471.071 215.92 471.178 216.258C475.155 230.723 486.856 242.53 503.229 248.648C519.673 254.783 537.063 254.587 548.192 247.15L549.316 245.616C556.04 225.907 545.178 206.074 539.916 201.847C539.613 201.526 538.454 200.938 537.473 202.043C536.189 203.488 531.427 203.827 527.431 201.758C524.72 200.349 522.42 198.78 522.616 196.211C522.794 193.821 522.527 193.358 521.278 192.715C499.84 185.207 482.254 198.904 477.777 203.078L477.813 203.114ZM518.835 195.765C518.888 199.261 521.421 202.65 525.826 204.933C529.804 206.984 535.19 207.894 538.721 205.646C542.181 209.427 547.925 220.093 547.925 232.489C547.925 236.181 547.354 240.015 546.123 243.85C535.868 250.342 519.637 250.966 504.495 245.313C489.192 239.605 478.312 228.672 474.62 215.313C474.62 215.26 474.62 215.206 474.62 215.135C474.62 213.922 476.582 209.624 482.04 204.665C487.141 200.028 500.821 190.165 518.835 195.765Z" fill="#0E141B"/>
<path d="M513.377 200.171C513.377 200.171 515.036 201.259 513.841 202.293C512.628 203.31 500.981 218.221 498.681 223.75C500.892 225.39 506.493 228.244 509.453 229.457C513.573 222.127 523.633 208.821 525.006 207.448C526.379 206.075 527.949 205.878 529.322 207.644C530.695 209.41 540.273 224.659 541.361 232.239C543.162 232.097 547.568 228.637 549.565 226.318L550.154 229.849C549.03 231.134 545.035 233.791 541.896 234.968C538.757 236.145 538.864 233.524 538.864 233.524C538.454 227.37 531.623 214.422 527.075 209.57C523.454 213.03 512.985 230.456 512.2 231.829C511.415 233.202 509.596 232.382 509.596 232.382C506.653 231.401 498.145 227.174 496.077 225.087L495.756 223.714C497.557 218.31 506.047 207.252 510.47 202.044C496.13 197.157 481.273 208.358 481.13 208.482C481.13 208.482 477.991 211.176 478.384 209C478.776 206.824 481.648 203.239 481.648 203.239V204.862C486.784 201.544 500.232 194.374 513.359 200.171H513.377Z" fill="#0E141B"/>
</g>
<defs>
<clipPath id="clip0_42_65814">
<rect width="625.636" height="620" fill="white" transform="translate(87 90)"/>
</clipPath>
</defs>
</svg>
