<svg width="800" height="800" viewBox="0 0 800 800" fill="none" xmlns="http://www.w3.org/2000/svg">
<g clip-path="url(#clip0_42_65998)">
<path d="M387.713 639.904C387.317 642.264 385.749 651.631 383.464 653.595C381.179 655.559 375.042 659.185 372.134 660.827C369.225 662.47 365.6 665.398 365.675 667.116C365.751 668.834 370.717 672.158 376.93 673.952C383.143 675.746 394.153 679.372 396.513 680.788C398.874 682.205 410.752 690.854 413.83 693.29C416.909 695.726 426.181 702.109 428.692 701.467C431.204 700.825 433.262 689.513 433.262 689.513C440.268 690.608 454.035 692.27 454.828 691.08C455.621 689.891 451.203 681.959 447.596 678.107C451.051 676.464 459.795 671.894 459.549 671.101C459.304 670.307 448.068 665.284 438.777 662.848C429.486 660.412 413.434 656.862 411.243 655.842C409.053 654.822 402.821 648.76 402.821 648.76L404.237 637.033L387.713 639.866V639.904Z" fill="#FFCC4E"/>
<path d="M417.532 658.165C413.434 658.316 395.664 666.191 393.605 679.41C385.9 676.577 376.76 674.065 372.983 672.479C369.207 670.893 365.279 668.853 365.675 667.135C366.072 665.416 368.432 662.414 370.944 661.318C373.456 660.223 381.481 656.748 383.445 653.614C385.409 650.479 387.449 643.227 387.694 639.922L404.218 637.09C403.519 641.49 402.802 648.817 402.802 648.817C402.802 648.817 409.487 655.03 410.431 655.653C411.375 656.276 417.513 658.165 417.513 658.165H417.532Z" fill="#D2AA41"/>
<path d="M401.008 654.142C401.216 649.346 401.782 642.245 402.877 636.58C403.331 634.163 406.522 634.654 406.088 636.825C404.992 642.528 403.557 649.572 403.368 654.142C403.161 659.09 400.8 659.222 401.008 654.142Z" fill="#061922"/>
<path d="M446.085 676.936C446.746 676.577 457.321 671.969 457.434 671.1C457.529 670.42 433.697 663.282 431.638 662.772C429.976 662.376 412.867 658.316 410.695 657.22C409.487 656.616 404.898 653.066 402.443 650.762C401.99 650.346 403.179 646.872 403.765 647.533C405.295 649.289 410.828 654.255 411.81 654.746C413.641 655.672 430.524 659.165 432.11 659.562C450.258 663.981 461.608 669.571 461.645 670.817C461.702 672.498 448.275 679.372 447.633 679.73C447.388 679.863 445.31 677.351 446.085 676.917V676.936Z" fill="#061922"/>
<path d="M432.639 691.023C431.771 690.872 431.978 687.756 432.866 687.813C436.001 688.039 452.883 690.627 453.337 689.909C453.733 689.286 451.92 684.848 444.385 676.161C441.213 672.516 442.667 671.251 445.915 674.745C454.526 684.017 457.661 690.91 455.999 692.439C454.564 693.761 438.229 691.967 432.639 691.004V691.023Z" fill="#061922"/>
<path d="M409.827 693.573C404.766 689.72 399.252 684.829 395.04 682.714C391.018 680.694 385.579 678.824 380.556 677.2C371.152 674.16 364.202 671.761 364.145 667.267C364.089 663.037 369.244 660.752 374.098 658.221C377.308 656.559 381.085 654.69 382.426 652.801C385.183 648.911 385.693 642.547 386.561 637.581C386.769 636.391 386.958 635.277 387.166 634.257C387.335 633.388 388.185 632.841 389.054 632.992C389.923 633.162 390.489 634.012 390.319 634.88C390.111 635.881 389.923 636.976 389.715 638.128C388.79 643.416 387.638 649.988 384.465 654.463C382.671 656.994 379.007 658.901 375.476 660.733C371.661 662.716 367.337 664.963 367.356 667.229C367.375 669.42 375.835 672.158 382.01 674.16C387.147 675.822 392.434 677.54 396.683 679.674C401.159 681.94 406.522 686 411.696 689.947C418.06 694.8 425.973 700.843 428.541 699.937C429.75 699.2 432.715 685.471 433.055 684.187C434.037 680.505 435.906 681.468 435.113 684.489C434.773 685.792 433.017 702.845 430.279 703.808C427.578 704.733 421.044 702.127 409.827 693.573Z" fill="#061922"/>
<path d="M332.155 626.212C331.211 628.252 320.976 652.65 317.917 653.198C314.857 653.746 307.53 653.67 303.678 654.369C299.825 655.068 292.819 657.9 292.272 661.526C291.724 665.152 294.085 672.706 297.389 677.03C300.694 681.355 306.832 688.285 307.927 691.118C309.022 693.95 313.668 707.094 314.857 710.795C316.047 714.497 320.523 728.018 323.355 727.942C326.188 727.867 333.194 715.195 334.44 710.153C339.86 712.74 361.351 723.844 362.918 722.9C364.486 721.956 365.996 715.195 364.882 709.757C363.768 704.318 362.994 701.58 362.994 701.58C368.413 703.789 387.392 707.944 388.242 706.055C389.092 704.167 384.314 693.781 375.967 686.548C367.62 679.315 357.404 671.912 350.719 667.663C344.034 663.414 338.444 659.317 338.444 659.317C341.503 651.064 348.037 633.275 348.037 633.275L332.137 626.193L332.155 626.212Z" fill="#FFCC4E"/>
<path d="M359.16 673.593C350.813 669.193 313.913 673.272 304.471 685.075C299.523 678.937 291.139 669.609 292.442 663.131C293.745 656.654 300.581 654.161 303.413 654.048C306.246 653.934 315.915 654.765 317.936 653.217C319.956 651.668 325.603 643.189 327.491 638.94C329.379 634.691 332.571 626.307 332.571 626.307C335.63 628.082 347.792 632.916 347.792 632.916C344.487 639.752 339.539 655.351 338.463 659.354C344.827 663.244 359.16 673.593 359.16 673.593Z" fill="#D2AA41"/>
<path d="M276.919 554.319C276.919 554.319 277.598 539.325 260.13 527.503C222.645 502.123 207.726 502.311 206.744 502.953C204.025 504.729 210.899 534.32 236.959 556.661C247.1 565.347 261.906 567.16 261.906 567.16L276.937 554.319H276.919Z" fill="#C49B8C"/>
<path d="M206.329 507.41C206.555 516.305 216.092 539.438 238.13 558.322C248.271 567.009 262.321 567.991 262.321 567.991L266.117 564.743C242.001 549.182 221.247 528.901 206.31 507.41H206.329Z" fill="#9C7062"/>
<path d="M261.207 573.75C260.584 573.58 253.88 574.052 242.587 564.686C205.913 534.244 202.892 502.953 205.196 501.31C207.896 499.402 237.564 508.75 269.988 530.939C283.528 540.212 283.868 554.828 283.849 555.47L283.717 558.284L281.564 560.116L267.08 572.428L264.493 574.638L261.207 573.769V573.75ZM277.353 555.149C277.353 555.149 279.241 542.912 267.552 534.093C247.289 518.816 208.878 502.613 207.613 504.256C205.328 507.183 219.321 546.16 247.516 561.815C255.258 566.121 262.34 567.991 262.34 567.991L277.372 555.149H277.353Z" fill="#061922"/>
<path d="M402.065 527.163C403.085 576.263 371.926 614.976 327.321 622.057C363.579 646.834 412.206 644.36 445.348 617.582C476.356 592.522 480.813 565.499 478.679 520.648C474.43 514.983 463.666 500.782 460.645 496.042C457.076 491.547 450.466 485.41 445.632 481.388C440.797 477.365 433.942 473.135 428.994 470.888C424.047 468.641 421.913 465.94 420.383 464.751C418.854 463.561 408.354 466.998 402.915 476.194C397.476 485.391 393.246 500.744 396.192 508.997C399.138 517.249 402.065 523.651 402.084 527.182L402.065 527.163Z" fill="#FFFAC2"/>
<path d="M479 533.074C478.925 529.731 479.095 524.311 478.925 520.704C474.676 515.039 463.685 500.744 460.645 496.023C457.075 491.528 450.466 485.391 445.632 481.368C442.383 478.668 438.21 475.873 434.32 473.645C441.288 482.01 448.162 490.546 450.579 494.115C460.021 508.033 463.326 524.33 478.981 533.074H479Z" fill="#D5CFA3"/>
<path d="M402.273 527.768C402.859 566.575 383.03 593.731 364.844 608.121C348.037 621.434 312.44 624.173 298.749 627.005C288.589 629.101 278.92 633.615 266.173 634.313C259.564 634.672 249.65 624.871 241.397 618.507C235.732 622.039 228.178 623.927 224.401 623.228C220.624 622.53 205.989 616.619 202.93 614.504C199.87 612.389 198.681 608.14 201.513 603.419C207.405 593.599 229.594 575.564 242.813 566.367C259.337 526.238 315.046 500.272 349.265 496.967C359.179 489.187 370.982 486.354 379.008 485.41L380.178 483.994C362.484 470.548 354.93 446.697 354.458 421.675C353.986 396.654 372.398 365.268 403.331 355.901C399.403 348.82 392 333.712 390.735 329.935C388.903 324.44 389.526 322.986 392.302 319.549C394.342 317.037 401.895 312.788 404.426 311.844C406.938 310.9 410.563 310.277 412.924 311.693C412.603 309.332 410.526 296.963 411.961 293.904C417.702 281.704 431.94 272.583 438.078 270.072C442.78 268.145 444.555 283.215 444.876 286.671C445.405 292.544 445.972 308.709 444.725 321.758C446.141 316.716 450.863 301.93 452.128 298.776C453.393 295.622 454.488 294.206 457.793 293.583C462.665 292.657 474.94 293.432 479.038 294.678C483.136 295.924 485.024 299.55 482.815 302.855C475.375 314.016 461.419 339.056 455.584 360.773C471.314 365.022 493.673 381.697 497.28 405.001C497.809 407.984 497.507 420.202 497.507 420.202C495.203 419.655 491.672 417.917 489.727 416.501C478.868 408.475 470.974 410.628 464.006 420.165C454.715 432.836 446.935 439.861 427.068 453.571C422.782 456.517 420.251 460.407 420.704 463.636C421.346 468.207 443.535 477.875 447.407 483.729C441.25 481.992 432.394 481.142 428.182 482.37C432.79 485.561 435.019 488.035 437.153 492.039C429.372 490.868 420.874 491.812 415.681 493.682C422.649 497.817 427.408 501.689 429.372 504.54C422.291 503.237 413.981 504.162 407.901 505.711C413.793 508.43 422.517 514.19 423.764 517.665C412.282 514.7 402.198 520.988 402.311 527.806L402.273 527.768Z" fill="#C49B8C"/>
<path d="M447.388 483.654C445.688 481.086 440.439 477.781 435.038 474.477C437.285 477.177 439.475 479.859 441.515 482.389C443.573 482.71 445.594 483.144 447.388 483.654Z" fill="#9C7062"/>
<path d="M507.232 390.195L496.827 405.378C496.827 405.378 497.413 420.108 497.488 420.146C505.212 422.941 515.088 420.033 523.265 417.143C517.883 413.461 509.329 402.3 507.232 390.195Z" fill="#FFFAC2"/>
<path d="M528.402 462.105C523.794 465.259 511.311 465.524 502.511 464.995C504.211 469.735 509.215 485.107 510.273 490.885C515.39 487.071 526.834 478.403 531.952 474.324C530.252 470.245 529.327 467.091 528.402 462.105Z" fill="#FFFAC2"/>
<path d="M529.742 466.959C525.135 470.113 516.051 475.929 506.93 478.139C508.63 482.879 509.215 485.107 510.273 490.885C515.39 487.071 526.834 478.403 531.952 474.324C531.159 472.775 530.215 469.168 529.742 466.959Z" fill="#D5CFA3"/>
<path d="M349.793 634.313C347.943 637.014 343.807 647.136 340.427 658.787C344.619 661.582 363.711 673.574 370.377 679.409C386.07 693.138 391.264 704.28 389.885 706.867C388.846 708.831 378.139 708.283 364.882 703.808C368.98 718.915 365.675 723.24 364.334 724.316C363.352 725.109 360.765 725.657 356.781 723.334C351.682 720.369 341.465 715.346 335.007 713.023C332.76 721.521 325.697 729.944 323.676 730.019C316.481 730.265 310.476 698.482 305.434 690.91C298.579 680.58 285.662 667.795 291.97 658.825C298.126 650.063 315.632 651.781 316.916 651.366C321.429 649.855 328.964 631.764 330.682 625.154M333.968 627.232C333.968 627.232 324.772 653.273 318.257 655.445C314.706 656.616 299.58 653.009 293.99 661.148C289.892 667.096 306.341 685.339 308.777 688.814C312.912 694.705 320.013 725.374 323.412 725.374C326.207 725.374 331.834 716.951 334.856 704.639C335.536 701.881 336.895 702.165 336.669 705.111C336.574 706.244 336.423 707.528 336.159 708.604C340.804 710.568 354.005 716.932 359.689 720.256C368.376 725.317 360.784 698.331 360.595 697.198C360.406 696.065 361.2 690.551 362.635 692.383C363.031 692.893 362.729 694.687 363.088 696.141C363.56 698.105 363.749 699.804 364.221 699.974C378.441 705.205 386.089 705.961 386.939 704.997C387.77 704.053 381.878 691.816 368.923 682.223C354.987 671.912 344.43 665.302 339.464 662.715C339.464 662.715 336.782 670.741 335.366 669.948C333.949 669.155 335.215 662.545 336.99 656.049C338.652 649.968 343.429 637.203 346.224 632.406" fill="#061922"/>
<path d="M507.232 390.195L497.79 403.924C498.149 406.644 498.262 412.422 498.262 412.422C501.567 410.779 510.537 400.506 510.537 400.506C509.48 397.787 507.232 390.195 507.232 390.195Z" fill="#C49B8C"/>
<path d="M496.582 402.583L507.025 387.967L507.912 392.272L497.885 407.286L496.582 402.583Z" fill="#061922"/>
<path d="M509.838 488.961L531.48 472.701L532.235 475.949L510.801 493.059L509.838 488.961Z" fill="#061922"/>
<path d="M537.504 413.008L539.128 414.632L539.374 416.917L544.435 464.694L541.432 468.603" fill="#9C7062"/>
<path d="M577.161 443.354L569.079 399.221C556.804 321.248 517.354 230.924 512.312 218.177C505.117 199.972 465.139 215.155 473.92 235.173L485.251 257.041C468.425 250.809 465.007 251.3 463.383 251.847C460.796 252.716 459.814 260.836 462.76 268.22C464.157 271.714 477.338 278.078 481.021 281.76C484.552 285.292 507.629 304.478 508.724 306.159C517.524 320.889 528.572 346.232 542.433 407.738C558.258 478.044 560.335 509.808 557.616 531.185C557.144 534.924 556.011 541.477 551.535 547.709C544.378 557.68 562.941 564.931 569.626 562.665C577.048 560.135 583.658 553.148 586.887 544.876C590.588 535.415 587.397 506.522 577.18 443.373L577.161 443.354Z" fill="#061922"/>
<path d="M566.189 400.241C560.297 362.736 547.815 322.664 536.409 291.108C524.058 256.871 508.384 220.518 508.384 220.518C502.322 206.374 472.749 220.197 478.641 235.003C478.641 235.003 509.952 294.016 508.365 295.093C506.911 296.075 490.01 263.896 486.988 261.29C483.967 258.684 466.933 254.284 465.573 254.737C463.402 255.454 464.119 261.611 465.573 265.236C467.028 268.862 478.604 273.564 486.573 281.515C493.862 288.804 507.667 298.983 511.179 303.553C511.5 303.968 511.765 304.365 511.897 304.686C517.694 318.434 527.911 328.556 545.19 405.302C563.281 485.655 562.337 513.944 561.109 528.371C560.316 537.776 557.635 546.123 554.179 551.467C551.176 556.094 565.34 560.947 569.91 559.021C574.782 556.981 581.335 550.107 584.394 542.346C588.53 531.789 578.483 478.422 566.189 400.241Z" fill="url(#paint0_linear_42_65998)"/>
<path d="M551.856 436.745C563.017 493.455 562.186 516.003 561.128 528.372C560.335 537.777 557.654 546.124 554.198 551.468C551.195 556.095 565.359 560.948 569.929 559.022C574.801 556.982 581.354 550.108 584.413 542.347C587.963 533.245 581.014 492.322 571.137 431.137L551.875 436.745H551.856Z" fill="url(#paint1_linear_42_65998)"/>
<path d="M600.446 412.515C605.45 383.263 595.932 354.125 587.378 349.876C585.81 334.768 582.26 321.171 574.631 311.635C567.341 302.514 559.92 301.286 549.76 309.595C519.111 334.674 506.647 360.111 505.703 382.3C505.061 397.219 510.499 410.627 521.282 418.029C520.603 421.202 516.901 426.867 517.751 432.363C519.734 445.261 523.379 450.983 525.852 453.985C525.286 456.214 529.629 481.594 535.993 483.483C542.905 485.522 589.077 463.824 594.289 455.628C600.106 446.507 605.696 423.071 600.427 412.515H600.446Z" fill="#061922"/>
<path d="M592.25 452.362C598.047 440.049 600.937 417.614 595.876 413.271C595.876 413.271 600.125 394.16 595.876 376.352C592.25 361.15 589.36 354.635 583.563 353.181C583.563 353.181 580.315 326.044 571.609 315.186C562.922 304.327 558.22 309.029 552.423 312.655C546.625 316.281 522.906 335.751 514.786 358.62C506.817 381.054 508.63 391.195 512.614 400.958C514.106 404.641 518.771 411.005 521.452 413.762C521.83 414.159 543.83 381.526 560.316 365.456C569.041 356.939 575.311 356.58 575.688 357.789C576.066 358.997 569.966 359.583 561.865 368.383C546.417 385.152 525.607 413.668 524.568 416.33C523.53 418.993 522.397 420.862 523.473 426.282C524.795 432.892 526.419 441.749 528.288 446.885C528.515 447.489 555.841 424.016 573.781 414.706C581.165 410.873 589.719 414.121 589.795 415.065C589.87 416.009 581.845 413.365 574.782 417.69C557.427 428.322 532.519 449.85 530.876 452.702C529.818 454.552 529.252 455.232 530.687 462.465C532.141 469.697 535.03 482.01 540.091 479.838C545.152 477.667 586.415 464.636 592.212 452.324L592.25 452.362Z" fill="#C49B8C"/>
<path d="M532.311 469.414C533.973 475.533 536.484 481.424 540.129 479.876C545.19 477.704 586.452 464.674 592.25 452.361C594.252 448.112 595.894 442.655 596.99 437.141C578.804 454.099 551.762 466.26 544.737 468.847C539.732 470.698 535.672 470.679 532.311 469.414Z" fill="#9C7062"/>
<path d="M482.815 480.896C482.739 481.35 482.607 481.727 482.494 482.048C482.626 481.69 482.739 481.331 482.815 480.896Z" fill="#061922"/>
<path d="M199.531 610.405C199.852 614.862 221.946 625.475 229.576 623.303C234.637 621.849 241.492 617.09 245.571 614.484C232.691 613.748 212.504 607.573 202.628 602.568C200.89 605.099 199.417 609.046 199.531 610.405Z" fill="#9C7062"/>
<path d="M259.791 608.932C251.141 613.011 242.02 618.298 242.322 618.563C247.95 623.548 258.582 633.425 264.852 633.916C274.256 634.633 278.297 632.329 296.37 627.873C310.25 624.436 347.471 622.151 366.412 606.646C331.872 611.783 274.332 613.936 259.791 608.932Z" fill="#9C7062"/>
<path d="M368.621 605.514C358.442 614.333 345.035 619.866 327.548 622.737C379.706 655.312 429.788 635.408 459.493 604.098C426.445 615.655 390.527 611.614 368.621 605.514Z" fill="#D5CFA3"/>
<path d="M397.307 517.702C391.471 509.771 378.687 506.73 364.863 508.675C360.916 509.223 360.86 510.79 365.109 510.469C377.025 509.563 390.055 512.509 395.645 518.967C398.647 522.423 399.535 520.742 397.288 517.702H397.307Z" fill="#061922"/>
<path d="M404.558 369.044C401.65 369.044 400.668 370.686 403.727 372.235C413.944 377.353 458.095 401.468 466.706 408.776C468.331 410.155 470.842 409.437 470.955 406.057C471.314 400.033 468.557 378.712 463.76 369.119C462.457 366.532 460.021 365.116 460.135 368.76C460.248 372.197 460.833 382.206 459.436 387.569C451.75 383.207 419.987 369.044 404.558 369.044Z" fill="#061922"/>
<path d="M407.636 371.009C405.276 370.933 405.37 371.141 407.051 371.877C418.419 376.825 460.55 400.638 467.556 406.776C468.387 407.512 469.067 407.72 468.973 405.208C468.501 392.14 465.592 377.599 463.081 371.216C462.137 368.818 461.759 368.667 462.061 371.915C462.533 377.108 462.722 385.927 461.23 391.347C446.67 383.397 414.265 371.235 407.655 371.009H407.636Z" fill="#382225"/>
<path d="M411.715 392.367C401.631 395.388 405.54 446.621 417.607 449.964C421.309 450.984 429.958 448.623 435.774 445.639C445.348 440.729 449.125 436.14 449.069 432.194C448.955 423.903 445.443 415.5 437.511 407.568C427.352 397.409 417.513 390.648 411.696 392.385L411.715 392.367Z" fill="white"/>
<path d="M411.111 440.105C412.754 443.712 415.228 446.318 417.135 447.64C422.97 451.682 447.199 440.672 447.596 432.533C448.502 413.611 419.005 391.006 412.527 394.405C409.166 396.162 406.768 403.168 406.711 412.836C406.673 419.918 405.2 419.597 404.879 413.139C404.35 402.223 406.711 393.31 411.036 391.44C420.61 387.305 450.806 411.288 450.806 431.551C450.806 442.598 423.216 455.912 415.284 450.624C412.716 448.906 410.771 445.185 409.298 440.766C407.58 435.63 408.996 435.46 411.13 440.124L411.111 440.105Z" fill="#061922"/>
<path d="M425.18 443.789C427.805 443.147 428.39 434.404 425.576 423.035C422.026 408.607 418.06 402.697 414.775 403.509C412.357 404.113 410.79 409.023 414.888 425.66C417.796 437.501 422.46 444.45 425.161 443.77L425.18 443.789Z" fill="#061922"/>
<path d="M418.079 415.764C418.816 415.575 419.741 413.592 418.929 410.25C418.079 406.813 416.493 405.566 415.624 405.774C414.567 406.038 413.925 408.418 414.642 411.307C415.322 414.083 417.022 416.009 418.079 415.745V415.764Z" fill="white"/>
<path d="M488.688 399.466C487.612 393.744 484.345 389.778 480.587 390.534C474.09 391.837 475.658 408.096 476.13 411.571L478.169 411.382C477.754 405.377 478.641 395.5 481.266 394.971C483.627 394.499 485.497 397.332 486.403 400.24C487.083 402.393 489.254 402.601 488.669 399.485L488.688 399.466Z" fill="#061922"/>
<path d="M465.932 484.428C455.905 473.343 440.306 468.849 438.153 467.432C434.849 465.242 434.924 465.468 437.757 466.734C444.008 469.491 447.86 471.247 453.657 470.831C467.821 469.812 468.123 466.035 483.325 464.94C499.641 463.769 517.128 466.583 525.267 463.769C547.966 455.875 569.853 414.235 564.849 409.873C561.279 406.757 543.66 407.663 534.709 412.233C523.152 418.163 508.233 422.299 500.793 421.052C489.575 419.164 484.307 409.495 473.335 412.082C467.028 413.574 458.548 429.966 446.972 439.389C435.396 448.793 421.006 455.988 421.006 462.843C421.006 469.698 447.671 474.268 463.723 498.573C482.758 527.371 494.429 542.875 504.003 540.194C515.523 536.965 517.033 498.61 502.19 465.449C498.659 465.336 492.125 464.751 492.125 464.751C503.021 477.932 514.484 527.711 503.134 531.073C498.055 532.583 495.052 529.109 491.332 523.764C488.65 519.912 472.542 491.812 465.913 484.504L465.932 484.428Z" fill="#FFCC4E"/>
<path d="M421.025 463.07C421.743 469.453 447.879 474.57 463.723 498.516C482.758 527.314 494.429 542.818 504.003 540.137C515.523 536.908 517.033 498.553 502.19 465.393C498.659 465.279 492.125 464.694 492.125 464.694C503.021 477.875 514.484 527.654 503.134 531.016C498.055 532.526 495.052 529.052 491.332 523.707C488.65 519.855 472.542 491.755 465.913 484.447C455.886 473.362 440.287 468.867 438.134 467.451C436.51 466.374 435.698 465.883 435.642 465.808C430.354 464.165 425.199 462.975 421.006 463.07H421.025Z" fill="#D2AA41"/>
<path d="M481.04 465.222C489.972 475.457 496.336 504.596 493.164 507.032C490.916 508.75 484.722 507.239 477.811 502.518C481.663 508.033 487.97 518.967 491.03 523.291C493.333 526.539 496.431 529.825 498.508 530.448C500.151 530.939 502.455 531.26 503.456 530.92C511.425 528.277 504.74 479.631 492.049 464.75C490.161 464.636 484.552 464.844 481.04 465.222Z" fill="#8D3103"/>
<path d="M447.671 470.737C463.005 477.932 475.507 497.439 478.755 503.312C487.8 509.488 491.577 508.26 493.164 507.033C496.317 504.597 489.878 475.231 480.964 464.996C472.334 465.978 457.472 471.983 447.69 470.737H447.671Z" fill="#F3859B"/>
<path d="M488.178 478.272C486.12 472.946 483.665 468.093 480.964 464.996C472.334 465.978 457.472 471.983 447.69 470.737C453.676 473.551 459.209 478.234 463.949 483.238C471.541 479.631 480.662 478.31 488.197 478.272H488.178Z" fill="#C96F81"/>
<path d="M482.89 465.392C491.672 475.59 499.339 505.862 493.39 508.43C489.915 509.922 482.928 507.221 478.698 503.841C478.037 503.312 475.922 498.931 476.81 499.837C480.454 503.501 489.273 508.638 492.691 506.504C495.883 504.502 489.406 475.307 480.001 465.846C479.227 465.071 481.739 464.052 482.89 465.392Z" fill="#061922"/>
<path d="M457.057 359.677C463.043 341.888 467.896 331.086 476.923 315.733C481.587 307.821 488.631 299.719 483.929 295.017C478.018 289.106 455.678 291.032 453.148 292.921C451.845 293.903 450.164 296.849 447.161 309.294C447.954 285.292 445.915 271.43 443.177 269.013C435.604 262.309 413.207 281.685 409.109 294.904C408.599 296.566 409.43 303.477 410.696 308.897C405.068 306.65 384.673 317.301 387.827 327.857C389.432 333.22 396.249 346.817 401.197 355.088C344.015 373.066 338.425 450.813 377.742 484.333C369.301 485.22 355.893 490.546 348.358 495.777C303.923 502.613 255.919 529.712 241.737 562.967C222.758 577.905 206.216 592.559 199.379 602.001C188.37 617.203 218.245 629.384 230.633 625.852C233.522 625.021 238.734 622.736 240.698 621.83C246.949 628.288 257.147 635.899 266.457 636.616C276.39 637.391 320.277 627.741 340.257 621.622C361.672 615.05 374.041 605.363 385.9 588.14C400.253 567.292 404.464 542.195 403.047 527.559C402.405 520.855 400.328 520.987 400.932 527.88C401.48 534.225 400.649 555.735 383.049 584.477C372.285 602.662 355.062 612.104 338.52 617.335C319.937 623.209 275.578 632.783 266.155 632.046C259.885 631.574 250.235 624.436 244.589 619.451C243.965 618.884 278.902 600.453 303.413 591.351C328.756 581.946 347.584 580.039 346.923 577.905C346.281 575.828 325.621 579.132 299.032 588.612C267.552 599.83 241.454 615.164 241.454 615.164C241.454 615.164 234.92 619.186 229.84 620.64C218.339 623.926 202.137 613.842 201.797 609.291C201.419 603.946 214.865 588.763 241.662 568.935C249.461 563.156 279.657 544.159 284.624 540.722C289.118 537.625 288.268 535.963 283.283 538.285C273.878 542.686 253.143 556.131 247.648 559.851C264.87 527.71 308.342 505.068 350.436 498.685C358.027 492.359 374.702 487.732 378.8 486.863C384.031 485.749 383.408 485.447 379.82 482.067C337.028 441.598 356.781 371.31 404.256 357.147C405.389 356.807 405.276 356.448 404.501 354.937C401.688 349.404 393.492 333.088 391.698 327.12C389.526 319.888 403.822 314.732 408.165 313.278C410.318 312.561 411.602 313.373 412.357 317.15C412.848 319.586 416.984 343.191 419.59 353.672C421.271 360.433 422.045 360.376 421.327 353.445C419.93 339.981 413.679 304.459 413.679 297.434C413.679 286.991 435.207 271.053 439.06 271.449C442.61 271.808 445.688 297.396 440.627 351.33C439.872 359.318 441.572 359.073 442.761 351.595C444.442 341 447.18 317.98 447.52 316.847C451.505 304.025 453.129 299.851 454.035 297.566C455.489 293.941 476.772 294.243 481.172 298.662C483.344 300.833 472.75 311.956 464.799 330.066C458.586 344.173 455.017 355.636 453.752 360.017C453.299 361.584 453.412 361.943 454.791 362.378C478.642 369.95 499.924 395.029 496.223 419.446L498.697 420.504C503.059 408.625 497.752 374.596 457 359.715L457.057 359.677Z" fill="#061922"/>
<path d="M329.663 621.812C342.882 630.31 384.352 649.628 428.636 625.362C481.474 596.412 476.413 557.322 477.131 526.181C477.169 524.538 477.301 520.818 477.32 519.27L480.851 522.574C480.681 526.351 480.454 532.753 480.511 534.698C481.871 582.589 467.67 609.084 429.523 629.989C390.3 651.479 343.297 637.788 325.603 622.907L329.644 621.812H329.663Z" fill="#061922"/>
<path d="M498.489 411.005C503.059 407.077 506.232 402.979 508.762 399.466C509.272 398.749 510.877 402.148 510.537 402.601C507.912 406.17 504.287 409.89 499.603 413.781C499.301 414.026 498.244 411.231 498.489 411.024V411.005Z" fill="#061922"/>
<path d="M525.38 464.958C520.886 466.525 514.673 466.657 504.287 466.185C520.357 509.374 514.427 537.832 505.344 541.099C492.163 545.82 479.151 523.877 461.759 497.986C454.451 487.109 445.16 481.406 430.845 473.361C423.292 469.112 418.873 468.187 418.873 462.521C418.873 455.383 436.869 445.979 447.105 437.556C457.113 429.304 466.291 413.082 472.75 411.175C484.307 407.757 491.747 418.143 500.963 419.427C508.158 420.447 521.962 417.879 533.425 411.288C542.414 406.114 560.675 404.358 565.019 408.644C573.309 416.821 547.23 457.347 525.399 464.995L525.38 464.958ZM464.95 485.258C454.923 474.173 438.135 468.697 436.001 467.261C432.696 465.071 434.263 464.372 437.096 465.619C443.347 468.376 447.841 469.584 453.62 469.15C467.783 468.13 467.934 464.75 483.117 463.636C499.433 462.465 516.391 465.411 524.549 462.578C547.249 454.684 568.267 414.668 563.262 410.287C559.693 407.171 543.755 409.249 534.823 413.819C523.265 419.748 507.572 423.563 500.132 422.317C488.915 420.428 484.326 410.759 473.335 413.347C467.028 414.838 460.022 430.38 448.427 439.785C436.85 449.189 422.347 455.95 422.347 462.805C422.347 469.66 449.163 473.172 465.215 497.458C484.25 526.256 494.183 541.364 503.758 538.682C515.277 535.453 516.014 499.365 501.171 466.223C497.639 466.109 494.448 465.996 494.448 465.996C505.344 479.177 514.862 528.806 503.531 532.167C498.451 533.678 494.108 529.41 490.388 524.066C487.706 520.213 471.56 492.548 464.95 485.239V485.258ZM481.323 466.336C490.255 476.571 496.317 504.596 493.164 507.032C490.916 508.75 487.158 508.732 480.247 504.029C484.099 509.544 489.179 518.797 492.219 523.121C494.523 526.37 496.903 529.127 498.98 529.731C500.623 530.222 501.907 530.26 502.908 529.92C510.877 527.276 504.06 481.009 491.37 466.128C489.481 466.015 484.817 465.958 481.304 466.317L481.323 466.336ZM451.864 472.039C467.198 479.234 476.3 496.721 479.548 502.613C488.594 508.788 491.577 508.259 493.164 507.032C496.317 504.596 490.255 476.553 481.323 466.336C472.693 467.318 461.646 473.286 451.864 472.039Z" fill="#061922"/>
</g>
<defs>
<linearGradient id="paint0_linear_42_65998" x1="513.256" y1="345.986" x2="484.968" y2="281.118" gradientUnits="userSpaceOnUse">
<stop stop-color="white"/>
<stop offset="0.79" stop-color="#218A3D"/>
</linearGradient>
<linearGradient id="paint1_linear_42_65998" x1="562.715" y1="493.436" x2="574.725" y2="556.17" gradientUnits="userSpaceOnUse">
<stop stop-color="white"/>
<stop offset="0.67" stop-color="white"/>
<stop offset="0.89" stop-color="#D1AE94"/>
<stop offset="1" stop-color="#D1AE94"/>
</linearGradient>
<clipPath id="clip0_42_65998">
<rect width="405.561" height="520" fill="white" transform="translate(197 210)"/>
</clipPath>
</defs>
</svg>
