<svg width="800" height="800" viewBox="0 0 800 800" fill="none" xmlns="http://www.w3.org/2000/svg">
<g clip-path="url(#clip0_42_66432)">
<path d="M655.861 654.654C640.382 651.313 628.215 644.979 619.222 632.715C627.115 620.103 618.47 602.576 584.393 595.338C567.409 591.732 553.029 583.978 548.644 575.556C555.577 568.081 552.751 551.557 536.185 538.569C525.021 529.827 516.821 514.751 513.856 494.83C525.953 485.865 525.661 468.478 518.506 447.556C513.661 433.412 513.856 420.563 517.754 407.172C521.666 393.766 520.176 373.664 514.399 359.897C511.824 353.758 510.488 349.108 510.307 341.842C509.374 305.244 486.447 293.161 472.888 299.968C466.331 303.254 463.115 309.476 462.405 316.339C443.863 299.314 403.785 306.817 404.022 333.67C404.147 347.911 416.509 358.936 430.137 357.864C428.342 364.407 424.43 368.333 420.031 370.699C416.481 372.606 413.46 374.862 410.941 377.312C392.788 362.918 368.385 358.129 340.544 358.588C293.255 359.382 260.235 386.861 251.201 422.373C243.043 454.391 263.743 466.502 290.708 471.945C274.532 494.747 220.561 503.712 190.52 490.626C174.706 483.735 159.324 484.877 147.032 490.236C79.475 489.568 53.7913 525.999 63.9534 552.545C69.814 567.858 89.7067 567.399 96.7088 553.172C99.9662 546.56 104.212 545.571 106.022 546.963C109.739 549.845 106.272 556.29 98.3236 562.972C84.3472 574.735 86.0455 590.66 93.6045 597.217C103.029 605.402 118.564 604.887 129.088 586.289C131.302 582.377 135.172 581.347 140.378 581.695C150.373 582.377 154.605 583.63 157.375 586.164C163.848 592.066 174.289 590.953 179.829 582.558C182.836 578.006 185.217 574.749 187.681 571.756C196.645 568.053 207.406 569.668 214.52 572.452C226.436 577.102 239.995 573.566 253.971 560.174C258.718 555.622 262.351 557.752 261.224 563.334C258.732 575.793 250.672 593.361 234.05 613.713C221.466 629.109 217.025 648.181 222.997 661.934C220.436 669.577 215.967 676.3 211.958 680.477C192.595 700.578 218.139 736.354 304.531 725.635C342.339 720.944 361.592 724.313 386.426 734.572C413.474 745.737 463.115 741.519 491.653 731.844C507.119 726.596 528.376 721.167 551.456 719.441C587.135 716.754 640.549 708.777 662.39 695.622C681.322 684.221 685.805 661.141 655.82 654.668L655.861 654.654Z" fill="#8D93C8"/>
<path d="M285.738 424.293C291.515 408.284 290.249 389.059 283.483 386.498C278.68 384.688 272.458 389.296 266.054 401.059C263.354 406.029 261.711 409.328 260.041 414.91C255.739 429.332 263.479 438.923 273.53 437.782C277.929 437.281 282.885 432.2 285.738 424.293Z" fill="white"/>
<path d="M394.347 407.352C394.166 394.42 388.375 384.285 379.647 382.907C368.761 381.181 356.149 389.367 351.235 404.248C348.047 413.923 349.648 424.321 354.812 430.043C360.255 436.084 372.046 437.226 380.329 431.964C390.073 425.769 394.5 417.403 394.361 407.366L394.347 407.352Z" fill="white"/>
<path d="M301.093 538.623C305.241 533.598 307.009 529.102 309.041 522.865C316.238 500.648 332.498 490.11 348.256 494.202C352.725 495.358 356.344 495.845 359.796 495.469C375.012 487.145 386.858 485.391 394.876 489.887C396.589 474.853 396.895 459.206 394.918 447.693C391.201 449.6 386.789 450.853 381.888 451.452C374.26 452.385 365.379 455.6 358.07 459.637C335.533 472.096 316.976 475.841 296.68 472.932C299.381 487.326 297.585 499.297 290.75 514.638C278.75 541.519 280.114 561.467 294.856 571.323C288.272 561.927 291.752 549.941 301.121 538.609L301.093 538.623Z" fill="#0E141B"/>
<path d="M388.027 523.854C390.965 514.917 393.429 502.625 394.876 489.888C386.858 485.391 375.012 487.145 359.796 495.47C356.344 495.846 352.724 495.359 348.256 494.203C332.498 490.111 316.238 500.649 309.041 522.866C307.023 529.102 305.255 533.599 301.093 538.624C291.724 549.956 288.244 561.927 294.828 571.338C298.657 573.899 303.39 575.792 309.041 576.934C344.929 584.201 374.148 566.02 388.013 523.854H388.027Z" fill="#CFA7CD"/>
<path d="M402.352 393.319C398.092 390.925 393.596 389.408 388.904 388.781C393.484 394.6 394.514 402.897 394.138 408.799C407.823 416.289 419.558 421.133 430.833 420.98C430.458 419.184 430.36 417.319 430.263 415.537C411.734 420.966 400.222 407.867 402.366 393.333L402.352 393.319Z" fill="#7A7FAE"/>
<path d="M349.481 417.528C337.983 425.115 317.951 430.572 301.093 432.172C297.278 432.534 296.972 432.228 300.856 430.92C312.271 427.091 330.117 418.28 340.182 409.329C344.651 405.347 349.049 401.951 353.337 399.139C350.734 403.649 349.161 411.667 349.481 417.528Z" fill="#7A7FAE"/>
<path d="M427.186 518.689C424.861 522.921 423.08 529.13 423.191 535.77C423.455 551.375 415.91 567.704 401.976 580.692C393.999 588.126 388.723 594.014 383.768 601.072C385.382 596.2 385.563 585.815 386.218 582.39C389.433 577.936 394.222 573.467 398.496 570.516C406.973 564.669 414.63 550.289 417.859 536.396C419.613 528.824 423.135 518.634 426.407 513.344C426.407 514.945 426.755 516.991 427.186 518.703V518.689Z" fill="#7A7FAE"/>
<path d="M314.261 604.441C299.464 607.963 286.197 603.174 269.562 593.388C263.326 589.727 256.296 588.405 249.92 591.147C252.37 587.347 253.818 584.117 255.21 580.971C260.291 578.827 265.386 578.841 270.606 582.14C274.337 584.493 277.984 586.678 282.397 588.419C290.541 596.395 299.645 601.755 314.261 604.455V604.441Z" fill="#7A7FAE"/>
<path d="M555.549 583.225C552.403 580.803 550.022 578.214 548.644 575.555C552.5 571.407 553.321 564.446 550.454 556.846C546.862 571.797 530.756 585.411 517.253 586.775C504.474 588.07 495.926 595.295 486.975 607.253C473.444 625.308 459.552 634.175 444.977 632.004C428.606 629.567 422.954 632.56 405.887 643.725C389.725 654.304 338.177 655.154 320.832 645.465C316.711 643.154 314.206 642.277 309.166 640.746C303.835 639.131 297.626 636.402 291.612 630.695C270.216 610.399 251.034 603.536 235.999 611.317C232.38 614.811 227.577 622.83 225.364 627.632C238.63 617.234 259.553 625.099 270.453 637.14C274.044 641.108 279.891 645.576 283.984 648.054C288.076 650.532 291.181 652.898 293.909 655.878C298.294 660.652 311.547 663.409 323.435 660.972C331.871 659.232 344.455 658.717 356.316 660.471C378.784 663.798 394.626 661.014 402.477 655.014C413.516 646.578 419.042 642.486 427.423 642.361C434.188 642.249 440.578 641.971 446.619 640.356C454.22 642.945 468.878 639.242 476.131 630.236C484.929 627.897 489.815 622.732 493.184 618.041C496.664 613.197 503.806 607.809 512.297 604.51C522.849 600.417 534.515 595.072 541.21 589.74C543.897 587.597 546.18 586.761 549.159 586.887C551.888 586.998 554.352 585.481 555.563 583.212L555.549 583.225Z" fill="#7A7FAE"/>
<path d="M591.088 658.621C595.056 654.779 599.775 651.674 605.232 650.185C610.327 648.793 618.109 642.445 621.45 635.554C620.684 634.649 619.932 633.717 619.208 632.728C625.292 623.026 621.547 610.4 603.979 601.811C610.703 613.601 603.45 629.415 593.065 634.817C586.857 638.046 580.773 642.389 576.931 647.596C573.089 652.802 567.006 653.679 560.059 652.064C553.113 650.449 544.273 653.234 529.531 660.751C517.364 666.959 508.929 667.948 499.755 665.219C487.184 661.489 470.368 662.922 458.341 669.284C455.167 670.969 455.445 671.511 458.842 670.76C469.38 668.379 478.86 669.577 488.716 673.53C504.961 680.059 518.019 679.725 530.158 672.166C537.73 667.447 548.115 665.929 559.071 667.447C572.477 669.312 583.251 666.222 591.088 658.635V658.621Z" fill="#7A7FAE"/>
<path d="M268.699 553.936C262.574 541.255 259.748 531.928 261.015 521.752C262.323 511.311 259.65 498.031 248.472 493.855C254.207 493.047 257.729 492.003 262.852 489.971C269.743 492.88 273.599 500.286 272.444 509.334C271.567 516.239 273.195 522.657 276.439 528.503C273.376 534.364 269.367 543.955 268.699 553.936Z" fill="#7A7FAE"/>
<path d="M211.958 571.532C216.538 573.606 221.703 574.469 225.642 574.358C241.79 565.644 240.983 550.93 232.366 539.988C227.285 533.529 226.158 528.573 227.647 520.387C229.345 511.019 228.12 501.149 218.195 496.5C212.293 496.193 206.571 495.4 201.253 494.119C202.924 498.824 205.833 502.499 211.388 505.116C218.209 508.346 219.726 513.928 216.845 522.991C214.241 531.176 215.105 535.895 220.687 542.967C231.002 556.024 224.626 569.569 211.945 571.532H211.958Z" fill="#7A7FAE"/>
<path d="M188.405 571.491C191.773 570.21 195.365 569.653 198.901 569.598C209.397 556.081 205.012 537.134 193.026 524.968C187.542 519.413 185.941 516.086 187.444 508.708C189.031 500.913 187.611 493.229 182.293 487.702C172.813 485.141 163.668 485.322 155.44 487.368C168.985 487.632 178.479 495.038 178.256 505.855C178.131 511.813 178.939 516.727 183.212 522.114C194.377 536.132 202.548 555.204 190.98 567.899L188.391 571.477L188.405 571.491Z" fill="#7A7FAE"/>
<path d="M70.8579 517.018C90.1102 506.8 106.063 528.043 98.5323 550.149C99.5624 548.757 100.634 547.797 101.65 547.212C114.068 529.324 106.3 498.128 80.2405 507.984C76.5515 510.796 73.4332 513.83 70.8718 517.018H70.8579Z" fill="#7A7FAE"/>
<path d="M435.385 444.853C442.123 438.645 445.422 438.547 449.376 441.832C453.719 445.424 460.206 445.674 465.635 438.603C469.728 433.271 475.324 432.519 481.644 435.248C494.117 440.635 511.74 429.165 519.035 401.407C521.123 388.836 519.494 372.786 514.831 360.953C517.169 406.46 493.49 426.631 474.586 420.478C465.551 417.541 455.264 419.142 451.13 423.582C446.522 428.538 440.299 429.526 433.088 425.865C437.07 430.055 440.327 434.538 435.399 444.839L435.385 444.853Z" fill="#7A7FAE"/>
<path d="M435.107 483.539C439.325 484.528 441.316 485.892 443.919 489.372C447.761 494.481 452.703 495.08 457.199 491.238C460.68 488.258 464.522 488.509 467.375 490.124C471.092 492.24 477.802 490.249 483.008 484.542C487.7 479.405 496.4 477.025 502.985 480.936C508.817 484.416 512.284 484.862 515.513 479.321C519.439 472.584 520.817 465.22 519.954 452.134C517.49 445.063 515.569 438.395 515.151 432.492C511.295 462.756 504.516 467.712 494.423 466.667C487.226 465.93 481.895 467.043 474.197 472.876C465.844 479.21 456.517 479.697 451.868 473.739C449.64 470.885 447.274 470.148 442.318 472.25C434.495 475.577 426.282 471.247 428.161 457.201C425.057 463.563 423.873 469.688 424.388 474.825C426.421 479.976 430.096 482.356 435.121 483.539H435.107Z" fill="#7A7FAE"/>
<path d="M483.746 535.157C477.064 538.582 468.183 537.886 463.143 528.948C459.246 522.03 456.587 520.596 451.478 520.763C444.49 520.986 435.232 514.875 431.488 492.059C431.265 494.884 430.541 497.502 429.525 499.826C428.954 505.52 429.539 510.156 432.24 514.443C435.594 519.775 436.959 525.607 437.571 532.554C438.546 543.454 444.434 547.908 452.703 546.447C457.673 545.584 462.308 546.878 465.858 550.038C470.452 554.131 482.98 555.996 495.147 555.495C508.734 554.938 513.69 547.755 514.873 537.621C515.666 530.87 517.476 522.823 520.204 517.311C518.492 513.483 517.031 509.334 515.875 504.866C515.736 509.849 514.915 514.61 513.509 517.52C512.325 519.97 511.031 523.478 510.655 526.457C509.847 532.902 503.416 535.756 497.124 533.654C493.031 532.289 488.312 532.791 483.718 535.143L483.746 535.157Z" fill="#7A7FAE"/>
<path d="M412.514 438.297C404.106 442.194 391.508 445.201 379.508 445.201C363.722 445.201 346.836 449.684 331.788 457.201C313.454 466.375 295.232 470.843 277.525 468.24C308.15 479.752 334.878 472.458 358.07 459.637C365.392 455.586 374.26 452.384 381.888 451.452C386.788 450.853 391.215 449.628 394.932 447.721C395.322 450.519 395.726 454.445 395.99 458.523C404.203 455.21 410.718 452.106 416.565 448.347C422.481 444.547 428.662 443.559 434.982 445.675C437 441.721 437.919 438.199 437.933 435.304C429.511 432.659 423.233 433.313 412.528 438.283L412.514 438.297Z" fill="#7A7FAE"/>
<path d="M406.319 681.074C400.611 683.551 388.208 683.19 378.77 681.951C371.823 680.962 363.875 682.452 355.188 684.93C326.052 693.254 264.161 686.99 239.368 677.037C231.043 674.197 225.781 668.851 223.025 661.877C220.492 668.726 216.218 675.784 212.571 679.821C210.469 690.484 222.176 697.277 234.802 695.593C244.115 694.354 253.163 697.584 260.611 702.539C268.059 707.495 283.357 709.889 296.095 704.892C305.895 701.05 314.957 700.423 323.393 702.539C333.569 705.087 345.82 703.681 356.65 699.184C368.315 694.34 378.505 691.612 386.552 692.113C390.519 692.363 395.739 691.612 399.957 690.373C404.175 689.134 408.143 688.758 411.497 688.883C416.091 689.05 420.309 688.382 425.265 686.531C422.035 683.05 411.985 678.582 406.277 681.074H406.319Z" fill="#7A7FAE"/>
<path d="M274.755 531.83C263.66 565.546 287.158 598.566 324.953 598.566C331.997 598.566 342.576 600.014 348.465 604.468C360.284 613.419 378.951 613.238 381.415 588.682C382.362 579.286 385.647 570.363 390.575 564.947C397.327 557.556 404.691 547.978 407.809 543.537C405.484 550.331 399.777 558.781 394.055 566.493C388.334 574.191 386.106 579.996 385.689 588.446C385.146 599.457 381.568 612.501 372.019 617.526C360.868 623.4 353.769 619.739 346.753 613.141C341.198 607.921 335.157 604.775 324.382 604.858C285.237 605.164 255.447 571.546 274.755 531.83Z" fill="#7A7FAE"/>
<path d="M420.574 370.03C431.822 387.779 477.398 397.663 485.932 362.304C487.686 355.052 484.192 346.281 476.438 339.781C468.698 333.28 463.965 315.03 469.324 302.779C463.408 307.944 461.543 313.526 462.294 321.35C455.223 340.894 440.884 350.764 428.05 350.388C414.727 349.998 405.609 336.927 405.609 325.373C398.579 339.432 409.8 358.434 429.539 357.683C429.414 362.429 426.393 367.441 420.574 370.016V370.03Z" fill="#7A7FAE"/>
<path d="M404.217 389.854C403.66 409.022 437.153 417.027 452.605 391.343C448.318 410.136 433.993 417.027 419.474 416.846C404.955 416.665 398.259 399.904 404.217 389.854Z" fill="#7A7FAE"/>
<path d="M656.766 654.861C700.018 693.06 590.963 708.247 551.025 711.964C530.965 713.829 513.035 716.683 497.903 722.405C456.28 738.107 399.623 731.578 372.074 722.655C344.107 713.579 324.925 714.846 301.343 717.936C255.976 723.88 217.262 705.463 216.065 690.791C213.128 687.951 211.75 684.137 212.599 679.835C194.752 695.482 208.603 737.536 304.573 725.634C342.381 720.943 361.634 724.312 386.468 734.571C413.516 745.736 463.157 741.518 491.695 731.843C507.161 726.595 528.418 721.166 551.498 719.439C587.177 716.753 640.591 708.776 662.432 695.621C681.169 684.331 685.721 661.627 656.766 654.889V654.861Z" fill="#7A7FAE"/>
<path d="M216.065 690.777C215.912 688.911 216.329 687.101 217.457 685.417C220.436 680.949 223.916 675.241 226.561 668.295C225.03 666.165 223.888 664.007 223.053 661.863C220.52 668.712 216.246 675.77 212.599 679.807C211.75 684.109 213.128 687.937 216.065 690.763V690.777Z" fill="#646890"/>
<path d="M346.822 613.322C341.922 607.782 331.844 603.759 320.763 604.886C330.438 601.211 341.727 604.97 354.437 610.636C365.434 615.536 379.55 610.845 385.299 594.738C378.812 624.932 357.416 625.322 346.822 613.336V613.322Z" fill="#646890"/>
<path d="M263.938 579.647C266.472 573.467 267.766 567.982 268.602 562.316C270.272 550.832 262.101 543.69 251.855 552.265C247.178 556.177 242.222 559.504 237.378 561.871C235.763 566.437 232.185 570.683 226.144 574.065C236.18 573.481 246.523 568.205 254.208 559.978C258.259 555.634 262.226 556.678 261.126 562.929C260.124 568.608 258.022 574.789 255.21 580.97C258.105 579.745 261.015 579.258 263.938 579.647Z" fill="#7A7FAE"/>
<path d="M226.561 668.308C221.132 654.262 226.171 638.852 236.25 623.094C232.352 623.651 228.635 625.084 225.392 627.618C217.457 643.543 218.445 656.211 226.561 668.308Z" fill="#7A7FAE"/>
<path d="M246.844 608.282C252.05 601.183 255.989 595.155 258.996 589.782C255.934 589.489 252.885 589.879 249.962 591.132C246.663 596.826 242.918 602.31 238.992 607.169C237.879 608.547 236.835 609.897 235.818 611.234C235.874 611.261 235.93 611.289 235.985 611.317C239.396 609.549 243.029 608.547 246.844 608.282Z" fill="#7A7FAE"/>
<path d="M222.594 565.602C221.438 565.532 220.311 565.351 219.253 565.045C213.67 563.43 207.893 562.664 202.882 562.539C201.963 564.933 200.682 567.244 199.026 569.416C203.327 569.277 207.74 569.889 212.07 571.518C216.51 570.794 220.157 568.65 222.58 565.602H222.594Z" fill="#7A7FAE"/>
<path d="M258.996 589.781C261.043 586.134 262.643 582.793 263.938 579.647C261.015 579.257 258.105 579.745 255.21 580.97C253.651 584.38 251.897 587.791 249.976 591.132C252.899 589.879 255.948 589.489 259.01 589.781H258.996Z" fill="#646890"/>
<path d="M246.844 608.283C243.029 608.562 239.396 609.564 235.985 611.318C235.93 611.29 235.874 611.262 235.818 611.234C231.392 617.095 227.925 622.524 225.378 627.619C228.635 625.085 232.338 623.638 236.236 623.095C238.449 619.629 240.913 616.148 243.572 612.654C244.714 611.151 245.8 609.703 246.83 608.283H246.844Z" fill="#646890"/>
<path d="M237.363 561.885C232.129 564.446 227.034 565.866 222.594 565.602C220.171 568.65 216.524 570.794 212.083 571.518C212.501 571.671 212.933 571.838 213.35 572.005C217.373 573.703 221.717 574.33 226.116 574.079C232.157 570.697 235.735 566.451 237.35 561.885H237.363Z" fill="#646890"/>
<path d="M195.894 562.818C194.892 563.57 194.001 564.294 193.193 565.045C192.553 566.034 191.829 566.994 190.994 567.913L188.613 571.198C191.954 570.168 195.462 569.528 199.054 569.403C200.71 567.231 201.977 564.92 202.91 562.526C200.321 562.456 197.926 562.554 195.908 562.804L195.894 562.818Z" fill="#646890"/>
<path d="M195.253 562.819C189.671 564.308 182.599 570.517 178.256 576.712C173.328 583.756 166.897 584.744 160.271 580.554C155.649 577.63 145.877 577.088 138.053 576.893C130.703 576.712 126.944 579.371 123.729 583.964C111.952 600.739 87.34 593.013 93.2702 568.638C85.5721 575.835 85.4468 594.071 97.7388 599.778C108.193 604.637 120.137 601.379 129.13 586.498C131.455 582.656 134.155 581.166 139 581.528C143.844 581.904 148.869 582.266 151.654 583.018C154.438 583.756 156.401 584.786 158.447 586.832C163.444 591.83 174.943 591.885 180.776 581.528C182.822 577.895 189.56 568.248 195.267 562.791L195.253 562.819Z" fill="#7A7FAE"/>
<path d="M66.9463 524.606C61.1135 552.391 86.7972 563.194 97.0985 549.914C94.7459 561.704 81.215 566.785 72.1526 562.192C61.1414 556.609 59.1925 538.443 66.9463 524.592V524.606Z" fill="#7A7FAE"/>
<path d="M128.003 505.492C116.588 535.143 146.865 546.322 169.57 527.696C157.904 544.206 140.169 550.651 127.752 539.862C118.787 532.067 116.81 516.322 128.003 505.492Z" fill="#7A7FAE"/>
<path d="M123.882 535.812C114.569 535.311 106.955 540.378 102.89 546.141C109.321 545.974 109.669 552.74 101.024 560.702C116.087 569.166 153.338 566.967 167.551 530.912C151.807 546.823 134.378 550.039 123.868 535.826L123.882 535.812Z" fill="#7A7FAE"/>
<path d="M337.676 522.504C354.451 518.564 383.489 537.496 354.52 570.029C382.626 553.088 391.368 517.91 394.542 489.804C387.846 485.433 374.998 486.268 360.673 495.011C357.04 496.319 352.237 495.386 348.674 494.175C335.713 489.762 315.139 498.296 307.385 527.627C312.633 518.62 324.521 515.724 333.973 522.114C335.17 522.921 335.797 522.935 337.69 522.49L337.676 522.504Z" fill="#B491B2"/>
<path d="M278.875 410.345C278.388 412.253 277.664 413.171 277.079 413.018C276.592 412.893 276.216 411.612 276.689 409.761C277.121 408.062 277.998 406.949 278.624 407.102C279.139 407.227 279.32 408.564 278.875 410.332V410.345Z" fill="#0E141B"/>
<path d="M366.186 407.838C366.186 409.578 365.615 410.608 364.891 410.608C364.209 410.608 363.485 409.662 363.485 407.838C363.485 406.014 364.251 405.11 364.947 405.137C365.546 405.165 366.186 405.945 366.186 407.838Z" fill="#0E141B"/>
<path d="M284.917 423.082C288.452 411.542 288.87 401.254 287.367 394.781C286.865 392.624 286.156 390.897 285.279 389.672C284.638 388.795 283.914 388.183 283.121 387.89C278.861 386.276 273.46 390.41 267.265 401.213C264.384 406.224 263.075 405.166 265.734 400.029C271.748 388.392 278.443 383.116 283.914 385.19C284.833 385.538 285.64 386.109 286.364 386.888C287.798 388.433 288.842 390.758 289.524 393.64C291.306 401.254 290.387 412.725 286.504 423.611C284.694 428.678 283.302 428.302 284.903 423.068L284.917 423.082Z" fill="#0E141B"/>
<path d="M261.864 434.553C257.632 429.778 256.714 422.706 259.261 415.022C260.792 410.401 261.934 410.735 260.89 415.482C259.136 423.458 259.874 428.358 263.646 432.715C266.486 436.015 269.242 436.947 272.917 436.752C276.926 436.544 277.177 437.922 273.196 438.66C269.145 439.397 265.052 438.117 261.878 434.553H261.864Z" fill="#0E141B"/>
<path d="M353.671 429.861C348.326 424.196 346.627 414.228 350.052 403.843C354.117 391.551 363.43 382.921 373.522 381.445C375.61 381.139 377.712 381.139 379.828 381.473C388.765 382.879 395.224 392.707 395.224 406.461C395.224 412.6 393.373 412.6 393.22 406.461C392.955 396.02 387.54 385.593 379.508 384.327C376.111 383.798 372.645 384.271 369.36 385.58C361.94 388.503 355.37 395.588 352.404 404.567C349.342 413.825 350.553 422.901 355.008 428.553C357.917 432.242 356.734 433.133 353.657 429.861H353.671Z" fill="#0E141B"/>
<path d="M350.065 403.831C353.74 392.68 362.107 384.063 371.086 381.53C371.086 381.53 379.02 378.926 387.707 380.903C387.707 380.903 391.396 381.599 391.299 382.699C391.243 383.395 388.988 382.602 386.357 382.643C372.589 382.615 367.049 386.611 367.049 386.611C360.603 389.993 355.063 396.508 352.418 404.527L350.065 403.803V403.831Z" fill="#0E141B"/>
<path d="M370.863 433.954C376.877 433.147 382.194 430.001 386.482 425.63C389.377 422.665 390.421 423.611 387.874 426.882C383.823 432.089 377.559 435.388 371.044 435.903C366.408 436.279 366.366 434.553 370.863 433.954Z" fill="#0E141B"/>
<path d="M409.785 378.424C393.415 365.645 371.1 360.062 340.53 360.591C294.564 361.357 261.558 388.057 252.76 422.636C246.523 447.136 256.755 461.878 285.877 469.117C311.185 475.409 332.484 471.999 357.346 458.259C366.227 453.345 374.9 450.756 381.819 449.92C391.995 448.682 397.744 445.73 402.129 440.454C405.581 436.306 406.584 437.044 403.688 441.596C400.069 447.303 392.816 451.591 382 452.913C375.318 453.735 366.367 456.909 358.891 461.043C329.198 477.442 309.347 478.555 284.986 472.5C252.37 464.384 242.765 448.542 249.544 421.898C259.915 381.124 297.069 357.445 340.544 356.721C371.615 356.22 395.294 362.429 412.124 376.071L409.799 378.438L409.785 378.424Z" fill="#0E141B"/>
<path d="M396.115 447.124C400.375 469.508 395.851 504.936 389.433 524.425C372.297 576.489 335.56 584.145 308.526 578.66C282.3 573.343 272.652 551.571 289.399 514.026C296.29 498.588 297.835 487.159 295.357 472.752L297.96 473.072C300.619 487.466 298.99 499.646 292.03 515.224C275.158 553.032 287.325 570.725 309.292 575.18C345.332 582.474 373.188 563.18 386.301 523.353C392.607 504.198 397.02 469.244 393.665 448.251L396.115 447.096V447.124Z" fill="#0E141B"/>
<path d="M394.821 491.307C386.552 486.407 373.828 488.536 357.694 497.794C352.112 500.995 350.943 499.506 356.72 496.026C373.105 486.156 386.176 483.72 395.057 488.564L394.821 491.307Z" fill="#0E141B"/>
<path d="M292.448 570.002C287.729 561.427 289.594 550.569 300.188 537.748C304.614 532.388 305.756 528.894 307.802 522.546C315.083 500.078 331.565 488.594 348.562 493.007C353.239 494.218 357.68 494.886 362.037 494.078L357.666 496.807C354.283 496.807 351.792 496.445 347.866 495.429C331.328 491.127 316.447 503.809 310.141 523.284C307.983 529.938 306.535 534.031 302.095 539.418C288.703 555.622 292.128 566.522 297.278 572.605L292.434 570.002H292.448Z" fill="#0E141B"/>
<path d="M290.833 471.931C295.691 487.661 288.216 510.477 278.694 528.003C251.159 578.716 299.297 604.957 323.56 603.634C334.975 603.008 341.769 605.416 348.548 612.363C361.828 625.935 382.473 616.316 383.628 589.561C384.088 579.009 386.217 574.638 392.008 566.87C397.813 559.088 403.173 551.863 407.043 544.207C409.075 540.184 410.634 541.019 408.811 545.14C405.414 552.796 400.848 559.965 394.709 568.568C389.21 576.266 387.651 581.027 387.262 589.922C385.967 619.755 362.051 631.211 346.502 615.328C340.432 609.133 333.569 605.764 323.63 606.321C294.174 607.922 247.164 578.688 275.757 525.985C285.279 508.431 292.698 485.768 287.77 471.332L290.819 471.917L290.833 471.931Z" fill="#0E141B"/>
<path d="M432.754 487.562C433.45 492.991 432.643 497.794 430.082 502.638C427.687 507.162 426.922 511.756 428.161 518.34C429.093 523.31 427.562 523.616 426.114 518.842C424.124 512.327 424.527 505.979 427.103 501.093C429.692 496.193 430.917 491.042 429.956 485.961L432.754 487.576V487.562Z" fill="#0E141B"/>
<path d="M431.738 415.119C431.335 419.755 433.005 424.209 436.875 427.912C440.662 431.532 440.982 440.524 433.27 451.633C422.913 466.542 424.152 482.593 433.506 486.588C437.237 488.189 436.346 489.706 432.783 488.732C421.702 485.711 417.72 468.324 430.681 449.67C437.404 439.995 437.641 432.938 434.495 429.931C430.221 425.838 428.523 421.912 428.871 415.857L431.738 415.119Z" fill="#0E141B"/>
<path d="M432.072 357.766C430.179 364.99 425.752 369 420.226 371.979C406.11 379.579 400.528 393.959 405.832 405.973C412.736 421.634 444.086 417.792 451.798 391.189C453.204 386.359 455.334 387.027 454.15 391.913C447.371 419.908 411.414 427.968 402.171 407.031C396.143 393.347 402.184 378.173 419.237 369C424.165 366.341 427.019 362.93 428.425 357.835L432.086 357.78L432.072 357.766Z" fill="#0E141B"/>
<path d="M462.28 318.232C442.805 300.497 405.359 309.546 405.568 333.754C405.735 352.742 431.989 365.883 448.931 345.754C452.23 341.828 453.775 343.234 450.643 347.285C432.184 371.075 402.129 356.723 401.934 333.837C401.684 305.3 443.668 296.655 462.768 314.529L462.28 318.232Z" fill="#0E141B"/>
<path d="M547.6 575.041C553.559 568.428 551.025 552.252 535.114 539.779C523.685 530.828 515.304 517.423 512.409 495.943C512.242 494.663 512.451 493.953 513.648 492.867C523.225 484.18 524.409 469.939 516.891 448C512.451 435.012 511.56 422.261 516.084 406.767C519.467 395.171 518.701 374.248 512.896 360.397C510.349 354.314 508.915 349.4 508.678 341.855C507.509 305.146 485.709 295.081 473.459 301.234C458.494 308.738 463.895 333.934 473.445 341.883C478.261 345.892 480.447 348.384 482.605 352.003C484.929 355.901 483.537 357.098 480.934 353.381C478.596 350.054 475.756 347.437 471.566 344.277C459.427 335.103 453.817 307.137 472.053 297.977C486.447 290.752 510.836 302.64 511.838 341.758C512.033 349.038 513.383 353.326 515.847 359.228C522.613 375.362 523.699 392.304 519.258 407.533C515.207 421.426 515.43 433.676 519.982 446.998C528.543 472.027 527.081 487.229 515.555 495.54C518.033 513.873 525.87 528.504 537.063 537.274C553.67 550.29 558.598 568.567 549.076 576.739C545.749 579.579 544.538 578.451 547.628 575.013L547.6 575.041Z" fill="#0E141B"/>
<path d="M508.511 600.056C519.787 595.072 533.29 589.56 541.642 581.653C545.387 578.103 546.584 579.509 542.965 583.184C534.585 591.703 521.791 597.091 509.583 602.492C496.887 608.102 488.437 616.287 478.957 628.802C469.171 641.72 457.046 643.85 444.1 641.4C437.613 640.175 431.321 639.674 424.04 639.744C416.509 639.813 416.495 638.115 423.943 637.767C430.945 637.447 437.822 637.795 444.448 639.048C451.826 640.454 466.819 640.454 476.8 627.271C488.604 611.68 495.69 605.708 508.497 600.056H508.511Z" fill="#0E141B"/>
<path d="M549.577 574.4C553.92 583.129 567.535 590.145 584.671 593.792C620.823 601.476 629.802 620.311 619.751 634.218C617.009 638.018 615.255 636.849 617.76 632.686C624.665 621.23 618.345 604.246 584.086 596.98C566.477 593.249 551.86 585.078 547.572 576.502L549.577 574.414V574.4Z" fill="#0E141B"/>
<path d="M223.972 663.756C221.257 671.371 216.9 677.802 213.128 681.728C195.643 699.881 219.851 734.334 304.322 723.866C345.639 718.743 362.942 723.337 387.053 732.803C413.92 743.341 461.626 739.666 491.235 730.172C510.432 724.019 529.782 719.787 551.498 717.866C593.176 714.177 641.064 706.034 661.221 693.895C678.274 683.621 683.313 662.392 655.499 656.392C638.767 652.787 626.057 645.339 618.22 633.869L619.96 631.377C628.284 642.889 639.338 649.112 656.14 652.731C688.157 659.636 685.164 684.29 663.518 697.333C642.303 710.112 594.652 717.685 551.651 720.984C529.893 722.655 511.281 726.748 492.098 733.388C461.779 743.898 415.131 748.186 385.716 736.144C364.056 727.277 345.277 722.209 304.809 727.221C213.155 738.58 190.562 699.936 210.524 679.195C214.422 675.144 219.42 667.919 221.953 659.9L223.93 663.756H223.972Z" fill="#0E141B"/>
<path d="M189.101 569.793C196.66 567.19 206.738 567.649 215.174 570.948C226.686 575.445 240.343 571.227 253.317 558.81C258.036 554.285 264.384 555.288 262.713 563.654C261.001 572.201 255.14 590.298 235.331 614.548C221.661 631.281 218.292 652.134 226.338 665.609C228.983 670.036 227.466 671.066 224.501 667.071C213.991 652.9 218.097 630.265 232.853 612.209C252.44 588.252 258.147 571.575 259.832 563.181C260.681 558.907 258.969 557.515 254.945 561.371C241.164 574.582 227.285 579.203 213.935 573.997C205.416 570.67 194.14 569.904 186.205 573.872L189.101 569.807V569.793Z" fill="#0E141B"/>
<path d="M238.964 678.18C234.036 676.036 234.621 674.198 239.716 675.897C269.882 685.933 323.296 691.655 354.965 683.288C365.378 680.532 372.158 679.405 378.951 680.685C385.062 681.855 384.714 683.957 378.561 683.191C372.269 682.398 365.601 683.79 355.481 686.685C326.4 694.982 264.523 689.26 238.964 678.166V678.18Z" fill="#0E141B"/>
<path d="M144.262 491.67C79.7814 492.31 56.4782 527.836 65.6101 551.668C71.0114 565.784 88.8159 565.324 95.3447 552.072C98.5465 545.571 104.143 543.664 106.996 545.933C109.85 548.216 111.033 554.299 99.4513 564.03C86.0318 575.306 88.2452 589.992 94.6209 595.518C104.56 604.135 118.899 601.184 127.85 585.384C130.272 581.11 134.448 579.691 140.712 580.122C151.25 580.846 155.176 581.96 158.294 584.813C164.336 590.34 173.746 589.031 178.744 581.612C184.535 573.036 187.681 569.069 192.706 564.42C196.59 560.828 197.996 562.053 194.293 565.839C189.657 570.572 186.971 574.317 181.041 583.463C175.124 592.553 163.473 594.085 156.248 587.486C153.561 585.036 149.775 583.686 140.323 583.045C134.963 582.683 132.054 583.978 130.286 587.096C117.715 609.272 100.301 605.653 92.2543 598.664C85.2801 592.609 80.6862 575.654 97.2519 561.719C107.498 553.102 106.941 549.149 105.047 548.104C103.614 547.311 100.676 548.299 97.9757 553.77C89.9853 569.988 68.7701 570.211 62.1717 552.991C51.8426 526.012 77.7351 485.879 149.663 488.788L144.262 491.656V491.67Z" fill="#0E141B"/>
<path d="M290.165 474.923C274.156 495.553 222.858 506.453 189.824 492.059C145.751 473.628 109.154 515.237 126.388 536.772C134.698 547.157 151.737 546.726 168.623 527.585C171.992 523.771 173.551 525.121 170.53 529.214C156.095 548.828 134.921 552.586 123.492 538.526C102.695 512.954 146.016 469.508 191.203 489.205C220.116 501.804 273.404 492.56 289.232 471.484L290.179 474.937L290.165 474.923Z" fill="#0E141B"/>
<path d="M285.278 389.672C286.156 390.883 286.865 392.623 287.367 394.781L289.524 393.653C288.856 390.772 287.798 388.433 286.364 386.902C285.39 385.551 281.325 382.67 274.42 385.565C274.42 385.565 273.474 385.941 273.502 386.373C273.571 387.333 275.242 386.317 277.135 386.526C279.028 386.749 283.037 386.582 285.265 389.672H285.278Z" fill="#0E141B"/>
</g>
<defs>
<clipPath id="clip0_42_66432">
<rect width="620" height="447.425" fill="white" transform="translate(60 296)"/>
</clipPath>
</defs>
</svg>
