<svg width="800" height="800" viewBox="0 0 800 800" fill="none" xmlns="http://www.w3.org/2000/svg">
<g clip-path="url(#clip0_42_66529)">
<path d="M739.18 294.199C759.063 281.772 761.023 266.86 755.342 257.628C747.062 244.178 731.383 242.417 715.036 251.777C696.488 262.4 685.594 266.604 664.461 267.158C664.504 251.564 655.741 240.699 643.13 240.06C624.042 239.094 612.95 251.138 608.874 272.37C606.203 286.217 605.124 304.325 604.613 321.723C604.442 327.759 603.335 332.744 599.642 337.701C585.014 357.342 561.566 384.057 534.198 412.93C512.909 404.565 488.509 399.665 460.814 399.481C404.957 399.097 351.869 428.851 310.27 479.014C300.385 490.929 292.602 494.792 279.139 499.848C245.181 512.588 221.023 530.511 206.948 572.039C205.841 575.319 204.875 578.217 203.98 580.858C194.038 586.823 177.237 591.084 162.964 590.857C145.878 590.573 116.693 599.818 106.453 611.777C101.993 616.989 100.871 622.457 102.604 626.902C92.847 633.79 78.6163 640.366 66.1608 644.371C34.3051 654.625 38.3527 676 54.3445 683.569C78.7157 695.102 110.003 701.905 136.832 704.291C147.924 705.271 161.16 708.026 177.834 717.243C198.825 728.861 220.753 733.178 262.153 725.807C263.686 726.517 265.263 727.043 266.896 727.369C271.91 728.363 276.554 728.193 280.8 726.886C294.96 740.62 314.9 739.924 329.088 733.462C344.526 726.432 358.743 726.205 373.385 733.462C391.195 742.296 407.499 741.572 414.998 731.019C446.584 740.776 473.142 735.11 506.049 719.175C529.483 707.827 564.065 694.69 588.763 693.213C616.216 691.565 636.469 684.123 655.343 672.69C668.197 664.908 688.208 658.119 707.693 657.409C732.49 656.5 742.475 648.447 742.872 630.822C743.171 617.699 733.158 607.672 719.211 606.323C707.707 605.201 696.544 602.446 687.583 597.603C698.334 586.795 696.488 572.451 685.751 565.477C679.573 561.458 672.599 551.815 668.438 543.762C672.557 544.557 676.334 543.89 678.649 541.333C682.03 537.612 677.897 527.387 666.407 515.244C638.528 485.76 624.198 423.61 664.334 364.685C665.612 365.708 666.677 367.17 667.472 368.96C671.378 377.836 680.624 375.408 690.267 356.902C707.849 364.018 723.273 358.521 727.647 348.196C731.624 338.837 730.119 328.256 723.316 321.013C722.052 311.639 728.457 300.931 739.18 294.227V294.199Z" fill="#767CBB"/>
<path d="M599.344 458.079C596.276 454.671 593.066 451.376 589.715 448.18C571.521 445.951 547.122 458.378 518.22 476.4C501.888 486.583 477.034 491.071 455.489 487.052C433.944 483.033 396.862 483.303 364.125 492.492C337.056 500.09 314.588 500.36 296.508 491.682C291.523 494.92 283.754 498.244 276.682 500.772C301.592 516.65 334.3 515.911 361.981 505.742C385.897 496.965 412.157 493.912 445.533 502.192C490.029 513.241 513.832 504.521 535.774 483.374C553.186 466.601 570.059 454.813 599.315 458.065L599.344 458.079Z" fill="#666BA3"/>
<path d="M613.489 475.96C610.62 471.827 607.581 467.793 604.357 463.888C584.516 463.575 572.018 468.986 558.228 487.293C529.965 524.83 518.646 538.535 494.786 536.76C488.395 536.291 481.535 536.291 475.144 536.76C468.753 537.228 460.985 536.987 452.662 535.581C429.314 531.633 380.997 535.964 355.376 542.441C335.735 547.411 321.646 547.468 311.349 536.291C298.212 522.018 277.037 509.278 252.623 512.36C247.822 515.257 243.306 518.481 239.074 522.074C259.852 520.37 274.381 528.579 290.756 543.634C314.957 565.874 339.583 563.957 365.318 550.735C382.829 541.745 413.847 540.083 438.701 544.344C490.043 553.149 532.337 550.607 557.532 509.307C570.967 487.279 593.208 471.315 613.518 475.96H613.489Z" fill="#666BA3"/>
<path d="M400.341 475.774C402.045 481.767 403.934 489.664 409.743 493.967C421.332 490.275 443.573 482.676 453.827 477.777C458.471 475.561 458.84 473.473 454.721 472.28C439.582 467.892 414.444 470.576 400.341 475.774Z" fill="white"/>
<path d="M592.953 457.794C595.58 458.107 596.66 460.18 595.154 463.688C593.649 467.182 592.754 468.787 590.95 471.684C581.662 467.892 571.649 465.336 559.762 464.285C554.067 463.787 553.271 460.791 556.368 460.081C565.968 457.879 581.151 456.388 592.953 457.78V457.794Z" fill="white"/>
<path d="M203.113 583.626C219.219 567.72 246.075 569.566 261.144 589.549C270.375 601.791 284.876 617.925 299.675 622.583C302.558 620.41 308.097 618.124 311.647 617.485C300.655 610.838 289.733 600.754 285.458 593.852C275.247 588.342 264.766 579.891 255.918 570.603C241.076 555.023 224.033 552.935 209.916 562.777C207.559 569.296 205.684 575.233 203.085 583.626H203.113Z" fill="#666BA3"/>
<path d="M215.654 623.336C208.823 628.208 207.601 633.647 209.803 640.692C211.18 641.771 212.359 642.637 214.12 644.739C210.371 628.96 235.907 621.433 260.207 626.887C266.654 628.335 274.125 629.756 280.388 629.869C267.137 622.541 254.568 615.284 246.359 615.17C233.89 614.985 223.011 618.067 215.654 623.336Z" fill="#666BA3"/>
<path d="M307.387 618.834C303.084 621.789 300.243 623.933 295.883 627.952C286.836 636.289 272.961 642.283 259.497 646.415C235.878 653.659 229.416 674.039 239.315 688.085C233.62 685.926 230.169 683.469 226.718 680.7C220.923 653.289 242.411 630.651 264.638 633.449C274.225 634.656 282.419 632.27 289.961 628.307C297.218 624.501 301.848 620.084 307.373 618.82L307.387 618.834Z" fill="#666BA3"/>
<path d="M206.366 638.533C190.388 632.298 181.682 621.775 181.228 610.313C180.915 602.246 184.707 593.711 192.945 585.871C189.65 587.021 186.099 588.001 182.463 588.783C172.862 594.208 167.948 601.792 168.318 610.015C168.928 623.805 184.381 639.4 217.458 649.568C214.745 645.336 210.925 641.345 206.366 638.533Z" fill="#666BA3"/>
<path d="M732.334 610.84C728.656 608.397 724.182 606.792 719.211 606.323C713.956 605.812 708.787 604.946 703.858 603.71C690.21 603.454 676.462 607.673 660.016 617.841C647.83 625.369 638.116 631.035 627.322 635.58C623.615 637.995 619.255 641.275 613.887 643.903C628.146 640.949 638.258 636.887 648.668 630.808C660.2 624.062 669.901 620.242 679.203 618.197C684.884 616.961 693.462 614.22 699.441 611.621C705.903 608.823 721.824 607.971 732.348 610.84H732.334Z" fill="#666BA3"/>
<path d="M685.14 565.036C681.689 562.607 678.039 558.546 674.772 554.029C675.994 571.2 651.438 581.624 633.898 581.795C623.417 581.894 617.565 582.86 613.844 587.831C626.087 585.7 634.977 586.595 647.22 588.356C665.597 591.012 687.696 583.03 685.14 565.022V565.036Z" fill="#666BA3"/>
<path d="M643.868 408.64C645.245 403.47 646.978 398.258 649.08 393.018C644.251 396.426 639.664 400.374 635.716 403.797C618.801 418.425 596.233 422.786 565.201 419.69C567.317 418.454 569.547 416.579 570.286 415.471C565.812 416.096 555.884 415.968 551.041 414.605C546.937 413.44 542.989 412.915 535.916 413.611C548.116 418.553 559.279 424.66 569.405 431.69C577.344 429.787 586.718 429.503 596.105 429.503C615.037 429.503 634.281 422.672 643.854 408.654L643.868 408.64Z" fill="#666BA3"/>
<path d="M639.678 434.687C640.09 427.302 641.155 419.732 643.001 412.049C635.119 428.282 625.362 443.379 619.34 450.466C613.645 457.17 608.234 459.74 600.423 459.286C603.135 462.353 605.749 465.506 608.22 468.73C617.721 467.764 627.592 459.896 631.881 449.103C634.636 442.172 637.093 437.968 639.692 434.687H639.678Z" fill="#666BA3"/>
<path d="M569.348 663.004C561.097 667.549 551.141 668.515 539.225 668.373C526.372 668.217 510.878 670.887 500.197 674.395C490.369 677.619 478.028 680.445 464.138 682.873C451.058 688.966 430.123 689.648 405.681 681.851C418.08 692.446 441.386 697.772 454.338 692.446C459.863 690.173 466.211 689.35 472.389 689.35C483.78 689.35 514.996 685.444 522.154 683.655C529.312 681.865 537.28 680.729 547.52 680.402C566.352 679.806 589.729 667.421 603.746 648.873C594.416 656.216 582.755 661.556 569.348 663.004Z" fill="#666BA3"/>
<path d="M95.3604 631.291C101.737 640.863 110.06 642.383 123.552 642.994C137.697 643.647 145.992 649.016 156.402 659.909C169.553 673.671 186.525 679.891 205.031 676.923C190.502 674.764 174.836 665.987 159.413 647.496C149.613 635.736 140.339 633.691 128.097 635.68C114.306 637.924 105.302 633.606 102.66 627.002C100.175 628.536 97.7747 629.928 95.3746 631.277L95.3604 631.291Z" fill="#666BA3"/>
<path d="M433.83 595.586C431.756 586.781 431.699 581.853 432.41 572.664C433.191 562.538 432.623 555.749 430.364 547.54C427.964 538.806 423.334 537.414 418.477 544.259C412.356 552.866 398.949 552.156 394.248 542.129C389.888 532.826 382.46 531.704 375.529 534.63C383.866 553.477 385.3 577.493 381.409 590.729C373.598 617.359 377.092 639.131 389.689 654.284C397.699 663.928 419.031 662.65 426.501 652.268C435.207 640.153 437.75 612.118 433.844 595.572L433.83 595.586Z" fill="#0E141B"/>
<path d="M426.487 652.281C435.193 640.167 437.735 612.131 433.83 595.586C432.196 588.683 431.813 584.153 432.069 578.074C413.762 582.903 395.626 590.629 378.824 601.465C374.748 623.238 378.824 641.232 389.675 654.298C397.685 663.941 419.017 662.663 426.487 652.281Z" fill="#CFA7CD"/>
<path d="M595.736 600.088C577.642 584.977 584.914 549.67 610.294 511.877C598.42 510.5 586.917 512.488 569.987 521.62C533.005 541.56 514.797 546.162 480.683 542.029C465.473 540.197 457.704 541.915 451.214 546.815C441.102 554.442 441.414 577.563 443.942 585.871C447.493 597.588 449.083 608.837 447.663 627.413C445.405 656.94 456.909 664.822 482.459 652.622C498.436 644.996 519.2 640.735 542.463 640.195C569.32 639.585 591.774 628.578 599.457 612.671C601.943 607.53 601.076 604.533 595.736 600.074V600.088Z" fill="#0E141B"/>
<path d="M582.372 629.927C565.4 583.272 504.188 563.119 442.507 575.631C442.664 579.793 443.217 583.457 443.942 585.871C447.492 597.588 449.083 608.836 447.663 627.413C445.405 656.939 456.908 664.822 482.458 652.622C498.436 644.995 519.2 640.735 542.463 640.195C557.873 639.84 571.819 636.062 582.357 629.912L582.372 629.927Z" fill="#CFA7CD"/>
<path d="M688.264 568.004C693.065 578.329 689.088 594.236 677.016 604.887C692.695 598.07 701.544 579.621 688.264 568.004Z" fill="#666BA3"/>
<path d="M624.169 529.333C630.162 530.284 635.048 529.489 637.647 526.18C641.013 521.905 647.049 520.414 652.474 527.756C660.513 538.621 677.641 542.811 677.314 531.775C685.651 548.449 661.748 547.568 651.054 531.378C647.333 525.739 643.74 524.064 640.331 528.466C636.369 533.565 631.426 534.857 624.169 529.333Z" fill="#666BA3"/>
<path d="M628.685 358.421C632.136 357.739 635.375 356.958 638.101 356.163C646.779 353.621 655.258 354.047 661.564 356.944C664.787 356.461 667.344 357.441 668.949 360.054C672.102 365.196 678.379 363.946 682.753 353.081C664.532 339.916 652.19 339.703 640.956 346.335C631.725 351.775 613.659 354.899 607.936 351.419C604.03 349.048 602.738 342.202 604.144 336.748C605.024 333.326 605.081 328.866 604.414 324.762C603.959 329.477 602.695 333.596 599.642 337.7C598.534 339.191 597.355 340.739 596.148 342.302C595.764 345.881 594.912 349.076 593.606 351.902C592.072 355.211 593.719 360.594 605.564 360.892C611.458 361.034 619.326 360.154 626.555 358.833C626.64 356.845 626.91 354.643 627.407 352.201C627.648 354.615 628.089 356.674 628.699 358.421H628.685Z" fill="#666BA3"/>
<path d="M435.577 615.796C435.761 608.439 435.179 601.324 433.83 595.586C432.225 588.812 431.827 584.324 432.054 578.43C414.231 583.187 396.208 590.743 378.824 601.466C374.748 623.238 378.824 641.232 389.675 654.298C398.835 638.932 415.338 625.723 435.562 615.796H435.577Z" fill="#B491B2"/>
<path d="M563.44 601.394C537.592 576.696 491.406 565.874 442.521 575.972C442.692 580.006 443.232 583.528 443.942 585.885C446.242 593.498 447.72 600.911 448.089 610.256C483.708 596.111 527.536 591.495 563.44 601.394Z" fill="#B491B2"/>
<path d="M59.2443 647.311C45.5107 660.561 48.1239 670.375 68.2344 679.024C88.5863 687.787 115.102 694.178 139.246 696.777C151.517 698.098 168.602 704.12 178.302 710.738C188.002 717.37 229.431 722.341 250.975 715.95C252.637 718.677 257.125 723.051 261.158 725.423C239.145 731.928 201.722 732.311 177.123 716.902C169.199 711.931 152.738 705.781 138.181 704.233C109.648 701.222 76.699 695.357 54.8558 683.881C34.4471 673.145 41.5767 653.432 59.2301 647.311H59.2443Z" fill="#666BA3"/>
<path d="M111.75 606.877C106.311 617.742 114.463 630.368 128.253 628.422C142.029 626.476 154.258 630.751 164.554 643.561C174.837 656.372 197.021 668.345 220.313 664.268C220.213 667.052 221.079 673.088 223.565 676.056C198.015 681.879 173.701 665.987 158.902 646.956C151.829 637.866 142.527 633.805 129.673 635.353C96.4542 639.372 96.6105 618.75 111.75 606.877Z" fill="#666BA3"/>
<path d="M242.639 683.696C248.135 711.035 276.724 732.339 302.814 702.684C297.843 715.821 286.481 728.959 270.859 727.709C255.236 726.459 244.059 712.626 242.639 683.682V683.696Z" fill="#666BA3"/>
<path d="M388.979 686.013C371.183 692.489 344.597 690.799 328.974 684.592C322.384 681.979 322.484 678.216 331.573 677.136C359.509 673.827 372.76 649.726 364.764 630.453C375.231 638.79 378.199 655.961 370.033 665.419C373.228 672.989 380.798 681.993 388.965 686.013H388.979Z" fill="#666BA3"/>
<path d="M294.292 717.371C303.41 728.137 320.325 730.395 335.479 724.714C350.633 719.033 358.671 718.564 371.936 725.424C392.785 736.218 417.27 721.646 412.654 701.99C426.36 716.264 417.441 755.576 370.644 732.17C362.137 727.909 345.932 726.234 336.033 730.75C306.18 744.384 288.469 735.252 280.829 727.029C286.041 724.955 290.77 722.001 294.321 717.386L294.292 717.371Z" fill="#666BA3"/>
<path d="M418.804 714.529C443.899 725.423 485.256 721.73 506.389 710.51C533.132 696.308 560.571 687.275 586.164 685.656C608.987 684.208 636.411 674.01 652.673 663.174C664.617 655.206 685.679 649.469 701.998 649.866C728.684 650.52 745.996 635.309 735.969 614.275C743.894 619.133 754.688 656.769 707.835 657.252C690.735 657.422 668.977 663.912 657.53 671.454C636.965 684.989 611.018 692.104 586.874 693.283C571.209 694.05 531.371 706.306 510.181 716.887C468.98 737.495 443.572 740.094 415.381 730.55C418.449 726.246 419.684 720.352 418.818 714.515L418.804 714.529Z" fill="#666BA3"/>
<path d="M627.407 352.187C629.041 368.477 639.422 369.145 653.54 360.282C660.598 355.851 666.18 355.539 668.949 360.055C672.13 365.225 678.465 363.932 682.853 352.854C686.588 350.17 689.571 350.923 692.227 352.116C682.356 375.209 671.179 378.703 666.407 367.44C664.546 363.066 660.172 360.211 654.207 364.657C637.008 377.467 622.777 374.996 627.407 352.187Z" fill="#666BA3"/>
<path d="M247.794 716.774C237.653 712.997 225.354 709.332 213.154 706.435C226.135 708.381 238.562 708.807 247.552 708.367C246.388 705.455 245.394 702.174 244.556 698.581C239.642 696.905 234.515 697.062 227.456 698.155C218.992 699.462 199.407 698.95 186.965 692.787C167.934 683.356 140.453 677.505 117.516 681.24C136.703 682.547 152.638 687.915 165.491 696.849C178.316 705.768 193.541 713.252 208.965 718.124C222.215 719.402 236.901 719.288 247.794 716.789V716.774Z" fill="#666BA3"/>
<path d="M257.821 723.15C256.372 722.014 255.009 720.651 253.716 719.088C251.842 718.321 249.867 717.54 247.794 716.773C236.901 719.273 222.216 719.387 208.965 718.108C226.022 723.505 243.32 725.707 257.821 723.136V723.15Z" fill="#535787"/>
<path d="M668.949 360.055C667.344 357.442 664.802 356.462 661.564 356.945C664.262 358.18 666.563 359.856 668.282 361.958C674.616 369.656 681.49 368.122 689.457 356.419C687.185 355.823 685.055 354.757 683.08 353.323C682.967 353.238 682.867 353.167 682.754 353.096C678.38 363.946 672.116 365.196 668.949 360.069V360.055Z" fill="#535787"/>
<path d="M627.407 352.188C626.91 354.63 626.64 356.832 626.555 358.82C627.279 358.692 627.99 358.55 628.7 358.408C628.089 356.661 627.649 354.602 627.407 352.188Z" fill="#535787"/>
<path d="M679.885 350.951C704.696 358.166 725.829 348.494 726.284 325.742C740.017 350.128 713.147 373.916 679.885 350.951Z" fill="#666BA3"/>
<path d="M717.89 345.667C714.084 347.115 709.965 347.3 706.4 346.093C697.78 343.181 689.84 345.099 682.058 351.532C696.672 355.239 709.809 353.009 717.89 345.667Z" fill="#666BA3"/>
<path d="M727.647 348.168C729.749 343.226 730.303 337.942 729.366 333C727.662 339.405 723.074 343.709 717.89 345.668C709.809 353.025 696.672 355.241 682.058 351.534C681.802 351.747 681.547 351.946 681.291 352.173C702.594 366.077 722.89 359.374 727.633 348.168H727.647Z" fill="#535787"/>
<path d="M716.825 315.644C717.706 301.314 724.466 292.338 736.51 286.643C751.706 279.457 756.478 266.405 750.996 252.955C759.943 259.673 763.835 279.613 740.642 293.034C727.889 300.419 722.549 311.767 723.216 321.126C720.717 318.726 718.714 316.993 716.825 315.63V315.644Z" fill="#666BA3"/>
<path d="M718.132 294.284C706.756 294.398 693.761 275.864 704.796 257.344C699.967 259.787 695.507 261.69 690.934 263.167C680.112 282.78 689.883 301.811 718.714 299.354C719.708 299.269 720.674 299.241 721.625 299.255C722.648 297.593 723.813 296.059 725.148 294.639C723.131 294.369 720.844 294.256 718.132 294.284Z" fill="#666BA3"/>
<path d="M734.379 297.721C731.61 296.116 728.826 295.122 725.134 294.639C723.798 296.059 722.634 297.593 721.611 299.254C725.02 299.311 728.059 300.064 730.36 301.669C731.567 300.291 732.902 298.97 734.379 297.721Z" fill="#535787"/>
<path d="M652.9 244.547C661.379 257.57 659.888 274.017 653.497 288.219C651.906 291.77 654.931 295.405 658.255 292.082C667.77 270.139 665.555 251.634 652.9 244.547Z" fill="#666BA3"/>
<path d="M441.783 473.617C441.485 474.98 440.107 475.747 439.113 475.534C438.105 475.321 437.352 473.986 437.636 472.623C437.934 471.245 439.071 470.251 440.335 470.521C441.329 470.734 442.138 471.955 441.769 473.617H441.783Z" fill="#0E141B"/>
<path d="M572.388 460.92C571.379 462.61 570.002 462.894 569.277 462.468C568.567 462.056 568.297 460.536 569.277 458.889C570.115 457.468 571.564 456.801 572.345 457.27C573.084 457.71 573.325 459.315 572.388 460.905V460.92Z" fill="#0E141B"/>
<path d="M472.034 470.308C473.312 468.575 474.278 466.729 475.073 464.542C476.295 461.176 478.127 462.028 477.09 465.451C476.38 467.78 475.244 469.598 473.483 471.558C470.855 474.484 469.591 473.631 472.034 470.308Z" fill="#0E141B"/>
<path d="M390.57 478.53C407.286 470.037 436.585 465.606 457.576 471.954C462.007 473.289 461.652 474.88 457.15 473.729C436.315 468.361 407.556 473.601 391.365 480.447C386.82 482.364 385.897 480.916 390.57 478.544V478.53Z" fill="#0E141B"/>
<path d="M408.294 494.791C406.107 492.775 404.246 489.934 403.181 487.108C401.662 483.074 403.252 482.165 405.127 486.043C406.363 488.585 408.01 490.715 410.211 492.547C420.366 489.437 440.746 482.094 451.867 477.464C456.255 475.632 457.036 477.422 452.69 479.353C442.38 483.941 423.476 491.397 411.262 495.26C409.672 495.757 409.331 495.743 408.28 494.777L408.294 494.791Z" fill="#0E141B"/>
<path d="M557.007 459.058C568.88 456.417 579.943 455.437 589.828 456.53C596.02 457.212 595.736 459.087 589.544 458.561C579.759 457.737 569.192 458.59 557.362 460.805C552.504 461.714 551.823 460.209 557.007 459.058Z" fill="#0E141B"/>
<path d="M589.416 472.481C581.889 469.441 571.862 466.942 562.474 465.791C556.779 465.095 556.878 463.391 562.588 463.846C572.657 464.641 582.471 466.899 590.24 470.109C591.489 468.376 592.2 467.183 593.307 464.911C595.097 461.247 596.517 462.013 595.083 465.848C594.358 467.751 593.222 470.095 592.171 471.714C591.333 473.006 590.779 473.049 589.43 472.495L589.416 472.481Z" fill="#0E141B"/>
<path d="M243.249 691.367C227.328 686.296 218.935 677.619 218.665 662.99C218.48 653.006 215.697 646.814 206.735 640.764C190.26 629.643 186.142 617.784 193.612 602.46C198.484 592.49 200.557 585.559 205.5 571.414C221.846 524.646 249.726 509.151 278.514 498.343C292.602 493.06 300.129 488.742 309.105 477.92C353.019 424.96 406.505 397.294 460.871 397.606C530.69 398.075 584.417 427.829 618.247 480.249C631.995 501.539 631.427 514.86 617.423 525.782C597.156 541.603 590.51 574.013 601.417 588.982C626.385 599.918 630.248 617.855 618.133 636.361C606.104 654.739 577.003 671.27 538.87 663.005C532.678 661.655 533.019 659.908 539.254 660.974C576.165 667.251 603.59 652.225 615.335 634.288C626.271 617.571 622.948 602.432 600.338 591.624C599.5 591.226 599.372 591.084 598.847 590.402C585.724 573.246 595.111 538.962 615.463 523.069C628.558 512.844 627.138 499.877 615.548 481.925C582.372 430.513 526.656 401.725 460.772 401.285C408.039 400.901 352.834 429.86 311.378 479.866C301.777 491.441 293.71 495.843 279.607 501.141C247.581 513.156 222.258 531.619 208.34 572.508C203.568 586.525 201.452 593.57 196.453 603.696C190.36 616.009 193.357 627.939 208.383 638.08C217.671 644.343 221.321 650.876 221.548 662.919C221.747 673.798 226.647 682.76 242.781 687.518L243.249 691.338V691.367Z" fill="#0E141B"/>
<path d="M266.64 729.102C252.296 726.261 242.624 710.511 241.232 683.541C240.806 675.389 242.724 675.289 243.434 683.413C245.649 708.736 255.208 723.222 267.109 725.58C282.405 728.619 293.852 719.828 301.919 702.373C304.419 696.976 305.924 697.715 303.836 703.282C295.897 724.358 282.93 732.326 266.64 729.116V729.102Z" fill="#0E141B"/>
<path d="M282.547 726.076C296.678 739.583 316.704 737.381 328.548 731.984C345.165 724.415 358.657 724.514 373.91 732.084C394.234 742.167 411.163 738.39 415.736 724.656C420.196 711.292 411.064 697.359 395.782 691.224C381.551 685.5 372.32 674.777 369.153 667.066L371.084 664.523C374.692 672.874 382.829 682.489 397.287 688.298C416.063 695.854 424.527 711.959 419.841 726.034C414.628 741.67 396.222 746.513 372.689 734.839C359.041 728.065 344.611 727.994 329.557 734.853C314.942 741.514 293.71 742.807 278.712 727.539L282.547 726.076Z" fill="#0E141B"/>
<path d="M342.964 678.697C368.727 673.698 377.901 657.479 369.536 640.422C353.317 607.302 311.378 616.108 299.647 624.331C296.295 626.674 293.895 627.881 290.472 629.316C284.464 631.844 283.683 630.154 289.52 627.256C293.185 625.439 294.889 624.487 298.368 621.987C313.991 610.753 357.209 605.953 373.328 638.888C382.361 657.337 372.59 677.32 343.234 680.899C336.544 681.722 335.948 680.061 342.95 678.711L342.964 678.697Z" fill="#0E141B"/>
<path d="M310.468 618.096C300.683 612.756 290.074 602.97 284.549 594.847C279.905 588.03 281.198 587.177 286.282 593.682C292.588 601.763 304.063 611.676 314.232 616.889L310.468 618.096Z" fill="#0E141B"/>
<path d="M224.403 677.617C209.49 681.196 184.736 680.302 158.191 648.446C148.747 637.112 138.45 635.493 128.253 637.155C103.697 641.16 92.236 625.396 104.933 610.597C114.903 598.965 145.069 588.995 163.006 589.379C177.365 589.577 194.933 585.444 204.534 578.982L203.326 582.874C193.072 588.683 176.853 592.673 162.978 592.418C146.191 592.134 117.672 601.436 107.859 612.898C97.6044 624.856 107.177 637.567 127.855 634.201C140.495 632.142 149.485 633.264 160.45 646.429C184.693 675.515 208.042 678.285 222.883 674.834L224.417 677.632L224.403 677.617Z" fill="#0E141B"/>
<path d="M264.524 727.098C222.059 734.824 199.818 731.43 176.967 718.79C160.137 709.473 145.693 706.718 136.618 705.908C106.325 703.21 75.7187 695.867 53.4211 685.315C36.1937 677.148 31.0098 653.771 65.706 642.594C79.0704 638.291 92.2644 632.028 102.178 625.48L103.257 628.321C93.9828 634.797 79.8799 641.671 66.5582 645.96C37.5145 655.305 40.7384 675.018 54.9975 681.764C77.5366 692.43 107.347 699.972 136.902 702.599C149.571 703.721 162.083 706.561 178.629 715.708C197.29 726.033 219.375 731.643 260.32 724.499L264.51 727.084L264.524 727.098Z" fill="#0E141B"/>
<path d="M415.864 729.414C449.566 739.753 477.318 731.288 505.324 717.711C531.102 705.227 562.744 693.098 588.706 691.536C612.183 690.13 634.665 683.086 654.363 671.156C667.316 663.316 684.87 656.499 707.679 655.675C729.621 654.88 740.401 648.503 740.813 630.764C741.069 619.772 733.172 609.347 718.885 607.97C706.287 606.748 694.101 603.553 686.56 598.838L688.79 596.494C697.751 601.167 704.98 603.226 719.396 604.618C735.885 606.209 745.074 617.769 744.775 630.935C744.349 649.923 733.626 658.175 707.679 659.126C687.838 659.851 665.64 668.699 656.196 674.422C634.935 687.304 616.202 693.325 588.82 694.973C566.238 696.336 528.29 710.269 506.617 720.764C470.642 738.191 444.326 742.224 413.776 732.694L415.864 729.414Z" fill="#0E141B"/>
<path d="M670.014 544.031C674.474 552.24 680.311 560.108 686.617 564.199C700.961 573.515 699.782 593.952 680.851 604.008C674.928 607.146 674.005 605.925 679.942 602.204C695.522 592.447 697.737 575.134 684.671 566.627C678.536 562.636 671.023 552.496 666.989 543.662L670.029 544.017L670.014 544.031Z" fill="#0E141B"/>
<path d="M665.313 365.651C642.945 398.913 640.118 429.448 641.496 449.842C643.214 475.137 652.304 498.301 667.372 514.235C680.595 528.211 683.947 538.365 679.97 542.754C674.431 548.889 658.61 545.85 650.259 532.727C646.595 526.975 642.987 526.492 641.127 529.744C637.917 535.369 631.782 535.482 626.157 531.96C621.826 529.247 622.408 528.097 627.095 530.142C632.25 532.4 636.269 532.585 638.783 528.196C641.695 523.098 647.56 523.211 652.659 531.207C658.666 540.638 672.13 545.509 677.087 540.013C679.175 537.698 677.343 529.049 665.114 516.11C649.79 499.92 639.777 475.719 638.031 450.055C636.624 429.363 639.877 397.762 663.14 363.805L665.313 365.623V365.651Z" fill="#0E141B"/>
<path d="M691.644 357.427C681.007 378.119 670.54 379.611 666.151 369.626C663.865 364.428 658.965 362.625 653.61 366.914C635.701 381.301 621.485 373.674 625.646 354.686C626.725 349.772 628.33 350.07 627.606 355.041C625.39 370.294 635.716 377.764 651.977 364.698C658.879 359.159 665.441 360.963 668.665 368.277C671.69 375.137 679.317 374.327 688.775 356.22L691.658 357.413L691.644 357.427Z" fill="#0E141B"/>
<path d="M682.498 354.33C677.044 350.751 677.882 349.132 683.606 352.271C704.44 363.704 721.554 357.455 725.829 347.385C729.962 337.657 728.13 326.266 719.395 319.023C714.836 315.245 715.916 313.896 720.816 317.219C730.303 323.682 734.521 336.847 729.422 348.848C723.883 361.914 701.983 367.084 682.484 354.316L682.498 354.33Z" fill="#0E141B"/>
<path d="M664.702 265.609C685.381 265.055 695.678 260.95 714.141 250.37C733.285 239.406 749.206 244.064 756.975 256.704C762.968 266.433 761.363 282.836 739.975 295.633C728.755 302.35 723.216 313.499 725.062 322.617L721.54 319.365C720.901 310.786 727.15 299.751 738.256 292.806C755.839 281.828 759.148 267.739 753.424 258.508C745.244 245.314 729.664 245.172 715.689 253.168C696.885 263.933 685.594 268.08 664.433 268.62L664.702 265.595V265.609Z" fill="#0E141B"/>
<path d="M532.309 412.163C561.139 381.771 584.218 355.766 598.321 336.834C601.389 332.716 602.937 328.128 603.093 321.709C603.604 300.533 604.57 284.953 607.055 272.015C611.6 248.383 624.567 237.134 643.385 238.072C661.408 238.981 673.508 261.193 660.939 288.106C658.084 294.228 656.763 293.29 659.078 286.928C668.622 260.753 658.439 242.787 643.072 242.02C625.575 241.139 614.483 252.373 610.578 272.711C608.319 284.428 606.814 300.803 606.075 321.737C605.806 329.421 604.343 333.909 600.735 338.766C586.661 357.669 564.619 383.446 535.916 413.726L532.294 412.178L532.309 412.163Z" fill="#0E141B"/>
<path d="M606.871 645.749C620.107 638.378 629.893 632.612 642.916 624.119C647.93 620.852 649.08 622.23 644.308 625.851C631.341 635.679 614.909 645.521 598.705 653.461L606.871 645.749Z" fill="#0E141B"/>
<path d="M403.324 682.262C395.555 679.521 396.109 677.717 403.991 680.132C428.959 687.787 451.824 688.099 466.041 680.018C475.386 674.707 481.479 672.207 489.716 670.204C495.113 668.898 495.482 670.758 490.185 672.377C482.019 674.877 476.323 677.902 467.376 682.986C452.094 691.664 427.283 690.712 403.338 682.248L403.324 682.262Z" fill="#0E141B"/>
<path d="M376.751 534.175C384.477 550.025 386.749 577.009 382.645 591.027C375.203 616.421 378.654 638.519 390.839 653.176C398.594 662.493 418.506 660.448 425.181 651.174C433.134 640.11 436.315 612.501 432.381 595.842C430.379 587.334 430.251 582.378 431.004 572.607C431.742 563.006 431.16 556.359 428.831 547.866C426.672 540.012 423.32 539.757 419.528 545.082C412.328 555.209 397.728 553.078 392.828 542.668C389.036 534.587 382.815 532.201 374.336 536.277C369.721 538.493 369.011 536.945 373.498 534.459C382.318 529.545 390.967 531.945 395.441 541.489C399.659 550.465 411.703 551.289 417.327 543.392C422.624 535.95 428.816 536.447 431.771 547.227C434 555.365 434.554 562.338 433.745 572.763C433.035 581.966 433.148 586.866 435.165 595.415C439.355 613.154 436.386 641.317 427.865 653.148C419.798 664.382 396.776 665.66 388.098 655.221C374.961 639.414 372.021 617.33 379.946 590.331C383.966 576.612 382.105 550.238 374.422 535.098L376.751 534.161V534.175Z" fill="#0E141B"/>
<path d="M612.041 512.133C585.553 550.493 580.128 584.948 596.674 598.781C602.44 603.596 603.846 607.501 600.963 613.481C593.095 629.785 570.882 641.076 542.506 641.729C519.257 642.254 499.345 646.515 483.013 654.128C459.139 665.248 443.445 661.953 446.087 627.356C447.564 608.098 445.817 597.048 442.536 586.226C439.937 577.648 439.27 553.717 450.12 545.523C456.028 541.063 464.947 538.649 480.826 540.58C514.002 544.585 531.925 540.495 569.306 520.342C588.621 509.917 600.977 508.937 613.021 511.224C618.332 512.232 618.006 513.922 612.637 513.212C601.062 511.678 589.544 512.63 570.612 522.841C532.082 543.619 514.641 547.667 480.541 543.548C465.302 541.702 457.477 543.946 452.165 547.951C443.161 554.74 442.735 577.506 445.235 585.53C448.913 597.333 450.717 607.998 449.225 627.512C447.223 653.716 456.114 663.288 481.976 650.918C497.968 643.277 519.03 639.371 542.506 638.832C566.849 638.278 590.126 628.052 597.924 611.904C600.068 607.459 599.017 605.144 594.43 601.323C576.024 585.942 582.358 549.883 609.087 511.792L612.012 512.133H612.041Z" fill="#0E141B"/>
<path d="M442.55 574.083C471.58 568.246 501.376 569.368 527.026 578.202C555.459 587.987 574.958 605.712 583.508 629.259L581.136 630.679C572.516 607.87 553.598 590.629 526.017 581.128C500.524 572.351 471.31 571.371 442.636 577.293L442.565 574.083H442.55Z" fill="#0E141B"/>
<path d="M432.026 579.808C413.265 584.821 394.973 592.788 378.37 603.44L379.038 599.719C395.214 589.224 413.322 581.427 432.012 576.541V579.822L432.026 579.808Z" fill="#0E141B"/>
</g>
<defs>
<clipPath id="clip0_42_66529">
<rect width="720" height="503.301" fill="white" transform="translate(40 238)"/>
</clipPath>
</defs>
</svg>
