<svg width="800" height="800" viewBox="0 0 800 800" fill="none" xmlns="http://www.w3.org/2000/svg">
<g clip-path="url(#clip0_42_59021)">
<path d="M134.529 364.29C132.838 435.292 151.914 491.706 191.214 531.966C234.103 575.899 300.368 599.128 382.807 599.128C522.245 599.128 635.678 492.833 635.678 362.182C635.678 298.296 610.549 238.251 564.926 193.108C518.697 147.38 466.186 119.079 388.108 119.684C250.737 120.728 137.722 230.8 134.529 364.29Z" fill="#0E141B"/>
<path d="M194.344 528.877C155.9 489.514 137.262 434.165 138.911 364.394C142.042 233.284 254.41 126.613 389.423 126.613C455.187 126.613 516.422 151.345 561.795 196.238C606.583 240.547 631.253 299.486 631.253 362.182C631.253 490.391 519.803 594.703 382.807 594.703C301.578 594.703 236.419 571.933 194.365 528.877H194.344Z" fill="#6F4F26"/>
<path d="M284.61 334.382C281.208 279.846 312.723 148.653 375.043 127.01C292.687 131.664 220.14 175.91 177.877 240.401C219.848 278.385 245.415 296.898 284.61 334.382Z" fill="#4B321D"/>
<path d="M268.665 303.89C268.665 354.794 329.065 396.222 403.323 396.222C477.581 396.222 537.982 354.815 537.982 303.89C537.982 252.965 477.581 211.558 403.323 211.558C329.065 211.558 268.665 252.965 268.665 303.89Z" fill="#0E141B"/>
<path d="M270.293 303.89C270.293 253.883 329.963 213.206 403.302 213.206C476.642 213.206 536.333 253.883 536.333 303.89C536.333 353.896 476.663 394.573 403.302 394.573C329.942 394.573 270.293 353.896 270.293 303.89Z" fill="#0E141B"/>
<path d="M223.354 115.907C180.862 135.484 123.926 183.403 127.599 222.411C129.665 244.492 183.909 293.246 186.225 295.312L187.457 296.418L333.072 205.505L332.321 203.752C331.027 200.809 300.66 131.289 281.375 111.42C271.9 101.652 250.758 103.28 223.375 115.886L223.354 115.907Z" fill="#6F4F26"/>
<path d="M131.982 222.014C131.878 220.97 131.836 219.885 131.836 218.821C131.836 185.26 179.087 141.161 225.212 119.914C250.403 108.31 270.23 106.285 278.203 114.509C295.358 132.207 322.783 193.15 327.499 203.794C324.369 205.756 190.692 289.218 187.937 290.929C180.089 283.771 133.735 240.735 131.982 222.014Z" fill="#0E141B"/>
<path d="M172.492 120.895C124.364 152.786 114.597 202.542 111.028 220.553C107.814 236.749 145.381 280.181 174.684 301.156C182.385 306.666 194.302 302.93 199.082 297.963C200.877 296.084 204.279 290.721 196.849 281.412C192.967 276.549 186.455 269.599 179.547 262.253C164.687 246.412 146.174 226.668 144.547 217.84C142.48 206.507 164.958 177.872 193.635 155.332C225.546 130.245 255.182 119.852 272.902 127.553C289.974 134.962 306.191 177.81 313.975 198.409L317.357 207.154C319.318 211.808 323.639 215.21 328.376 215.774C332.3 216.254 335.911 214.709 338.227 211.579C341.17 207.613 344.572 197.491 334.157 174.199C323.284 149.864 302.705 111.754 291.999 99.4608C276.325 81.4702 211.208 95.1823 172.43 120.874L172.492 120.895Z" fill="#0E141B"/>
<path d="M179.463 292.348C145.757 268.076 114.931 232.825 117.227 221.158C120.629 203.877 133.506 160.382 179.484 129.744C215.09 106.035 273.674 90.0271 287.094 105.534C297.404 117.43 317.878 152.452 328.439 176.223C338.123 198.012 334.804 206.256 332.926 208.803C331.569 210.618 329.587 211.474 327.291 211.203C324.181 210.827 321.322 208.531 319.986 205.359L316.709 196.844C308.236 174.303 293.251 131.372 274.759 123.274C247.439 111.336 207.159 139.887 191.443 152.306C164.833 173.343 136.261 205.317 138.89 219.906C140.706 229.924 161.264 247.622 177.084 264.569C183.804 271.77 190.149 278.574 193.864 283.27C197.496 287.84 198.393 291.701 196.327 293.872C193.488 296.836 185.683 296.815 179.463 292.328V292.348Z" fill="#6F4F26"/>
<path d="M198.936 170.651C186.998 182.13 180.528 197.073 180.715 212.726C180.903 227.357 187.018 240.881 197.934 250.857C221.184 272.083 259.44 270.747 283.254 247.893C295.212 236.415 301.682 221.471 301.474 205.797C301.286 191.167 295.171 177.622 284.255 167.666C261.005 146.441 222.749 147.776 198.936 170.63V170.651Z" fill="#0E141B"/>
<path d="M202.588 247.143C192.967 238.126 187.582 225.875 187.415 212.664C187.227 198.409 192.988 184.781 203.632 174.304C224.857 153.37 258.918 152.076 279.58 171.444C289.202 180.46 294.587 192.712 294.753 205.944C294.941 220.198 289.181 233.827 278.537 244.304C257.311 265.237 223.25 266.531 202.588 247.163V247.143Z" fill="#DDDCD6"/>
<path d="M294.732 205.922C294.565 192.69 289.181 180.439 279.559 171.423C258.918 152.055 224.836 153.349 203.611 174.282C199.416 178.414 196.014 183.048 193.405 187.994C218.491 207.821 246.437 228.191 264.992 254.175C269.854 251.608 274.425 248.311 278.516 244.283C289.139 233.785 294.899 220.156 294.732 205.922Z" fill="#B5B5B0"/>
<path d="M211.124 175.054C193.238 188.767 189.606 213.164 203.026 229.444C209.267 237.02 218.346 241.799 228.572 242.926C239.696 244.158 250.779 241.006 259.795 234.098C277.681 220.386 281.313 195.988 267.893 179.709C261.652 172.133 252.574 167.353 242.347 166.226C231.223 164.995 220.14 168.146 211.124 175.054Z" fill="#0E141B"/>
<path d="M228.155 238.314C219.222 237.291 211.312 232.971 205.865 226.125C194.135 211.37 197.37 189.184 213.086 176.703C221.038 170.379 230.784 167.52 240.552 168.626C249.485 169.649 257.395 173.969 262.821 180.815C267.58 186.805 269.875 194.005 269.875 201.289C269.875 211.975 264.95 222.807 255.6 230.237C247.648 236.561 237.901 239.42 228.134 238.314H228.155Z" fill="#DDDCD6"/>
<path d="M269.875 201.268C269.875 193.984 267.579 186.783 262.821 180.793C257.394 173.969 249.484 169.628 240.552 168.605C230.784 167.499 221.017 170.358 213.086 176.682C207.618 181.023 212.188 217.651 255.62 230.215C264.95 222.785 269.896 211.933 269.896 201.268H269.875Z" fill="#B5B5B0"/>
<path d="M129.519 49.8715C96.3975 69.1978 82.3723 111.67 99.9664 143.435C113.908 168.626 164.227 202.416 175.247 208.448C193.092 218.236 218.805 226.313 239.842 209.136C257.541 194.694 253.951 174.115 250.445 154.204L249.234 147.129C247.251 134.899 232.287 91.7591 221.622 72.4745C213.42 57.6563 199.77 46.9705 183.178 42.3998C165.25 37.4951 146.195 40.1457 129.519 49.8715Z" fill="#0E141B"/>
<path d="M177.793 203.814C167.442 198.137 119.188 163.805 105.998 139.949C89.7814 110.689 101.532 72.3281 132.17 54.4627C147.614 45.4466 165.229 43.0047 181.759 47.5545C196.953 51.7287 209.454 61.5171 216.968 75.0831C227.424 93.9711 242.075 136.088 243.996 148.006L245.227 155.143C246.646 163.22 248.024 171.089 248.024 178.456C248.024 188.641 245.373 197.803 236.482 205.045C217.719 220.344 194.198 212.83 177.793 203.814Z" fill="#DDDCD6"/>
<path d="M248.024 178.435C248.024 171.089 246.646 163.2 245.227 155.123L243.996 147.985C242.514 138.864 233.602 112.087 224.816 91.5293C231.766 124.797 218.993 152.91 183.199 163.993C193.426 177.621 208.766 204.878 218.408 213.248C224.649 212.204 230.785 209.679 236.482 205.025C245.373 197.782 248.024 188.62 248.024 178.435Z" fill="#B5B5B0"/>
<path d="M139.016 67.0062C115.745 80.5722 106.875 109.77 119.23 132.081C124.991 142.496 134.591 149.988 146.237 153.203C158.822 156.667 172.221 154.81 183.93 147.964C207.201 134.398 216.071 105.2 203.715 82.8889C197.955 72.4744 188.354 64.9818 176.708 61.7677C164.123 58.3031 150.724 60.1606 138.995 67.0062H139.016Z" fill="#0E141B"/>
<path d="M147.259 149.634C136.574 146.691 127.787 139.825 122.507 130.308C111.111 109.75 119.376 82.8058 140.894 70.2415C151.747 63.9177 164.102 62.1854 175.727 65.3787C186.413 68.3214 195.2 75.1879 200.459 84.705C211.854 105.263 203.59 132.207 182.072 144.771C171.219 151.095 158.864 152.827 147.239 149.634H147.259Z" fill="#0E141B"/>
<path d="M533.119 125.028C512.916 143.561 479.46 209.867 478.062 212.664L477.185 214.417L619.378 308.586L620.63 307.584C623.03 305.664 679.548 260.479 682.574 239.086C687.959 201.018 634.676 154.581 595.105 133.772C566.22 118.579 543.617 115.385 533.119 125.007V125.028Z" fill="#6F4F26"/>
<path d="M536.103 128.283C545.015 120.102 566.303 123.629 593.06 137.696C635.469 160.007 678.525 202.103 678.525 233.868C678.525 235.434 678.421 236.957 678.212 238.481C675.645 256.597 627.225 296.564 619.127 303.138C616.518 301.406 486.055 215.001 482.883 212.914C488.184 202.541 518.175 144.729 536.103 128.283Z" fill="#0E141B"/>
<path d="M520.074 115.134C508.992 126.53 490.897 161.238 479.147 184.196C473.011 196.175 470.986 204.607 470.986 210.535C470.986 214.813 472.051 217.777 473.386 219.801C475.515 223.057 479.001 224.768 482.966 224.497C487.704 224.184 492.149 221.095 494.32 216.629L498.035 208.364C506.592 188.892 524.416 148.36 541.571 141.911C560.501 134.794 590.993 147.359 623.093 175.513C648.242 197.574 666.796 223.662 664.458 233.659C662.497 242.049 642.586 261.063 628.06 274.921C620.943 281.704 614.222 288.111 610.194 292.64C602.577 301.176 605.519 306.498 607.126 308.398C611.53 313.574 621.715 317.309 629.709 312.217C659.554 293.204 701.588 254.447 699.104 238.71C696.349 221.241 685.246 170.108 639.08 137.529C601.909 111.315 536.333 98.4376 520.116 115.092L520.074 115.134Z" fill="#0E141B"/>
<path d="M477.06 217.38C475.369 214.813 472.594 206.652 483.071 186.199C494.675 163.533 516.714 130.37 527.546 119.225C541.697 104.678 599.822 122.585 634.53 147.066C679.319 178.665 690.359 221.387 693.031 238.313C694.805 249.479 661.766 283.06 627.58 304.849C620.985 309.044 613.096 308.69 610.445 305.58C608.608 303.43 609.715 299.799 613.45 295.604C617.374 291.2 624.032 284.855 631.065 278.135C647.658 262.294 666.462 244.366 668.716 234.682C671.889 221.074 649.619 192.961 625.973 172.216C613.471 161.258 570.352 126.383 539.985 137.8C521.097 144.896 502.773 186.575 493.965 206.611L490.313 214.729C488.831 217.797 485.826 219.905 482.632 220.114C481.276 220.197 478.73 219.968 477.039 217.38H477.06Z" fill="#6F4F26"/>
<path d="M531.929 180.689C521.911 190.457 516.422 203.585 516.505 217.631C516.589 232.678 522.934 246.912 534.329 257.744C557.016 279.283 592.851 279.888 614.222 259.08C624.24 249.312 629.729 236.206 629.646 222.139C629.541 207.091 623.218 192.836 611.822 182.025C589.136 160.486 553.301 159.881 531.929 180.689Z" fill="#0E141B"/>
<path d="M537.314 254.572C526.795 244.575 520.93 231.426 520.847 217.589C520.763 204.733 525.772 192.732 534.955 183.799C554.678 164.598 587.8 165.224 608.817 185.177C619.336 195.174 625.18 208.323 625.284 222.181C625.368 235.037 620.359 247.038 611.175 255.971C591.453 275.172 558.331 274.545 537.314 254.593V254.572Z" fill="#DDDCD6"/>
<path d="M608.817 185.177C600.135 176.912 589.345 172.028 578.325 170.421C580.871 200.788 582.854 238.731 572.418 269.808C586.569 270.663 600.74 266.113 611.175 255.97C620.338 247.038 625.347 235.037 625.284 222.18C625.201 208.322 619.357 195.194 608.817 185.177Z" fill="#B5B5B0"/>
<path d="M572.356 175.806C562.776 177.121 554.344 182.088 548.626 189.789C536.333 206.34 540.194 230.717 557.225 244.137C565.802 250.899 576.259 253.841 586.673 252.401C596.253 251.087 604.685 246.119 610.403 238.418C622.696 221.867 618.835 197.49 601.805 184.07C593.206 177.308 582.749 174.366 572.356 175.806Z" fill="#0E141B"/>
<path d="M559.333 240.505C543.846 228.651 540.278 207.154 551.402 192.586C556.557 185.845 564.154 181.483 572.836 180.335C582.311 179.062 591.849 181.671 599.676 187.681C615.162 199.536 618.731 221.033 607.607 235.58C602.452 242.321 594.834 246.683 586.172 247.831C576.697 249.083 567.159 246.495 559.333 240.484V240.505Z" fill="#DDDCD6"/>
<path d="M599.697 187.681C591.87 181.691 564.926 237.249 576.363 247.747C579.598 248.227 582.896 248.29 586.193 247.851C594.855 246.703 602.472 242.341 607.627 235.6C618.752 221.032 615.204 199.556 599.697 187.702V187.681Z" fill="#B5B5B0"/>
<path d="M626.286 56.6337C610.257 61.3714 597.171 71.9946 589.47 86.5624C579.452 105.492 565.698 147.693 563.986 159.61L562.943 166.497C561.774 174.011 560.584 181.629 560.584 188.934C560.584 200.496 563.548 211.286 574.255 219.697C595.021 235.997 619.857 227.691 637.034 217.84C647.616 211.766 694.888 179.291 707.974 154.559C724.483 123.358 711.104 81.0316 678.567 62.8741C662.163 53.7327 643.608 51.4995 626.286 56.6128V56.6337Z" fill="#0E141B"/>
<path d="M594.019 88.9835C601.074 75.668 613.054 65.9422 627.747 61.6011C643.734 56.8843 660.889 58.9296 676.062 67.4032C706.179 84.2041 718.305 121.271 703.09 150.01C690.693 173.427 644.443 207.676 634.488 213.394C618.689 222.452 595.981 230.195 577.469 215.669C562.379 203.815 565.134 186.095 568.056 167.332L569.121 160.362C570.769 148.757 584.231 107.538 594.04 89.0044L594.019 88.9835Z" fill="#DDDCD6"/>
<path d="M588.593 221.743C604.497 227.127 621.736 220.699 634.467 213.394C642.732 208.657 675.917 184.3 694.095 162.762C674.831 181.024 648.409 184.446 623.698 174.22C610.069 193.817 593.018 218.528 588.593 221.743Z" fill="#B5B5B0"/>
<path d="M632.902 75.3338C621.632 78.6731 612.449 86.124 607.043 96.3507C603.641 102.8 602.013 109.791 602.013 116.762C602.013 133.522 611.322 150.218 627.455 159.234C638.975 165.663 652.02 167.228 664.187 163.638C675.457 160.299 684.641 152.848 690.046 142.621C701.65 120.707 692.488 92.4896 669.635 79.7375C658.114 73.3093 645.07 71.744 632.881 75.3547L632.902 75.3338Z" fill="#0E141B"/>
<path d="M629.228 156.083C608.065 144.27 599.55 118.245 610.236 98.0625C615.182 88.7124 623.593 81.8668 633.924 78.8196C645.153 75.5012 657.216 76.9413 667.881 82.8894C689.023 94.7023 697.559 120.728 686.873 140.931C681.927 150.281 673.516 157.127 663.185 160.174C651.957 163.492 639.893 162.052 629.249 156.083H629.228Z" fill="#0E141B"/>
<path d="M323.221 181.128C310.052 191.104 305.585 193.462 294.67 202.625C272.777 220.949 245.958 244.763 234.479 245.597C190.045 248.77 152.853 259.769 130.48 294.456C115.244 318.061 115.286 361.368 143.211 418.157C155.441 443.035 154.711 445.039 153.437 454.597L151.267 471.315C150.975 473.632 146.321 518.942 185.871 550.102C205.322 565.421 224.127 567.634 238.799 556.301C253.388 545.051 262.905 520.549 262.905 487.615C262.905 460.608 256.456 427.904 241.241 392.173C258.084 385.139 259.941 368.464 262.007 347.509C264.553 321.776 267.705 289.781 298.427 257.41C337.476 216.274 420.876 239.9 456.481 249.98C466.437 252.798 471.32 254.154 473.741 254.05C489.207 253.424 514.836 268.054 534.705 288.821C544.535 299.089 544.013 307.897 543.324 319.021C542.448 333.422 541.363 351.35 561.628 378.753C579.118 402.42 557.057 452.281 539.317 492.353C525.021 524.681 513.709 550.227 523.017 559.577C528.506 565.108 539.797 563.856 558.518 555.695C591.119 541.462 628.268 507.484 625.242 455.495C625.18 454.597 625.2 453.7 625.18 452.782C646.447 441.157 680.8 422.122 688.355 352.226C690.15 335.697 683.138 313.261 674.81 298.317C650.851 255.344 621.193 259.33 595.126 260.541C580.474 261.23 567.618 263.901 555.263 257.306C536.333 247.205 520.304 230.404 492.963 203.605L471.216 182.401C437.948 150.239 358.305 154.497 323.117 181.149L323.221 181.128Z" fill="#0E141B"/>
<path d="M467.626 186.199L489.332 207.383C517.006 234.515 532.263 249.48 551.881 259.936C565.531 267.22 580.746 266.51 595.46 265.821C621.193 264.632 647.783 263.38 670.156 303.493C682.804 326.159 685.392 351.767 677.67 377.522C667.339 411.875 641.25 438.631 621.36 448.942L619.858 449.714L619.92 451.404C621.819 497.675 589.428 536.453 556.452 550.833C536.52 559.536 529.341 558.367 526.836 555.842C520.095 549.059 532.346 521.321 544.222 494.502C563.465 451.029 585.254 401.753 565.948 375.602C546.831 349.743 547.812 333.589 548.667 319.334C549.356 307.897 550.024 297.107 538.566 285.148C517.403 263.025 490.667 248.06 473.553 248.749C471.884 248.812 465.122 246.912 457.963 244.888C421.418 234.536 335.869 210.326 294.607 253.779C262.633 287.444 259.231 321.859 256.748 346.988C254.598 368.693 253.179 383.032 237.025 388.291L234.249 389.189L235.418 391.86C268.122 467.037 261.193 532.362 235.585 552.106C223.021 561.79 206.533 559.619 189.168 545.928C151.935 516.584 157.966 464.511 158.259 462.299L158.53 460.191C159.866 450.11 160.909 442.138 147.99 415.82C123.717 366.439 119.689 326.973 136.031 298.526C157.173 261.71 207.054 252.882 234.896 250.878C248.066 249.939 266.661 234.39 290.183 214.688C301.056 205.588 313.391 195.257 326.456 185.365C359.349 160.445 436.633 156.229 467.647 186.199H467.626Z" fill="#EFEFEF"/>
<path d="M255.954 354.481C208.432 364.081 134.758 376.374 131.585 307.793C120.754 335.322 126.201 371.553 147.948 415.778C160.888 442.096 159.824 450.069 158.488 460.15L158.217 462.258C157.945 464.47 151.893 516.542 189.126 545.887C206.491 559.557 222.958 561.749 235.543 552.065C261.151 532.321 268.08 466.974 235.376 391.819L234.207 389.147L236.983 388.25C251.196 383.637 254.013 371.991 255.934 354.481H255.954Z" fill="#C9CACA"/>
<path d="M489.331 207.362L467.626 186.178C436.612 156.187 359.327 160.424 326.435 185.343C313.37 195.236 301.035 205.567 290.162 214.667C284.714 219.237 279.538 223.558 274.613 227.544C287.636 228.671 300.409 233.409 311.7 240.588C356.197 216.023 425.926 235.746 457.963 244.825C465.121 246.85 471.883 248.77 473.553 248.686C485.971 248.185 503.44 255.949 520.178 268.68C528.172 263.317 536.645 259.205 545.474 256.2C528.714 245.931 513.938 231.447 489.331 207.32V207.362Z" fill="#C9CACA"/>
<path d="M670.135 303.472C657.842 281.412 644.255 271.874 630.23 267.95C682.991 293.955 644.172 409.204 566.929 338.222C560.417 332.629 554.323 326.639 548.584 320.273C547.749 334.298 547.206 350.285 565.906 375.602C585.233 401.753 563.423 451.029 544.18 494.502C532.304 521.321 520.053 549.059 526.794 555.842C529.299 558.367 536.479 559.536 556.41 550.833C589.386 536.432 621.777 497.654 619.878 451.404L619.816 449.714L621.318 448.942C641.208 438.631 667.296 411.875 677.628 377.522C685.371 351.767 682.762 326.18 670.114 303.493L670.135 303.472Z" fill="#C9CACA"/>
<path d="M115.87 632.855C116.767 676.663 149.889 719.657 189.627 725.98C224.878 731.595 265.576 715.503 282.836 702.793C301.661 688.914 320.988 659.57 304.458 597.521C303.039 592.157 291.33 585.249 274.801 578.925C235.584 563.919 163.81 548.266 138.16 565.046C130.542 570.034 115.202 599.128 115.891 632.834L115.87 632.855Z" fill="#0E141B"/>
<path d="M190.337 721.64C171.198 718.593 155.691 708.929 144.296 692.942C119.793 658.589 121.567 624.507 124.823 607.268C128.267 588.985 135.78 575.69 141.415 571.996C164.937 556.615 234.04 568.073 273.235 583.079C290.078 589.528 296.882 594.871 297.654 597.73C313.537 657.379 295.755 685.45 278.015 698.515C262.007 710.307 224.043 727.024 190.378 721.661L190.337 721.64Z" fill="#3597CE"/>
<path d="M297.612 597.709C296.84 594.85 290.036 589.507 273.193 583.058C242.743 571.412 194.26 561.895 163.1 565.443C199.707 597.709 227.486 669.359 205.363 697.764C197.746 707.552 207.931 713.813 199.707 722.579C230.784 723.957 263.426 709.222 277.952 698.494C295.692 685.429 313.474 657.358 297.591 597.709H297.612Z" fill="#2A80AF"/>
<path d="M214.025 460.985C190.712 461.924 161.744 485.862 144.713 518.525C111.007 583.141 136.135 646.129 205.009 643.479C240.572 642.101 276.533 622.524 290.328 596.77C302.287 574.438 280.957 533.657 263.426 505.69C250.256 484.673 229.407 460.358 214.025 460.985Z" fill="#0E141B"/>
<path d="M259.69 508.027C277.931 537.121 291.706 575.148 281.354 594.474C268.289 618.872 237.88 635.464 203.84 636.779C178.148 637.76 157.215 629.578 147.802 614.885C131.731 589.715 133.109 553.63 151.538 518.316C167.608 487.532 192.779 466.244 214.213 465.388C225.149 464.95 243.432 482.085 259.69 508.027Z" fill="#3597CE"/>
<path d="M259.69 508.027C246.521 487.01 232.015 471.775 221.183 466.995C230.721 497.863 230.93 537.747 222.102 569.492C211.875 606.328 171.678 626.323 138.702 592.658C140.518 600.693 143.523 608.186 147.802 614.885C157.194 629.578 178.148 637.781 203.84 636.779C237.859 635.464 268.289 618.851 281.354 594.474C291.706 575.148 277.931 537.121 259.69 508.027Z" fill="#2A80AF"/>
<path d="M315.666 703.67C308.716 709.639 270.626 711.83 262.487 711.601L258.751 711.496L260.087 708.011C261.986 703.044 277.785 664.767 292.958 658.109C303.185 653.601 327.124 693.819 315.666 703.67Z" fill="#0E141B"/>
<path d="M290.162 666.353C280.436 674.659 271.775 693.088 266.432 706.362C279.267 706.612 290.266 705.047 302.455 702.271C311.137 700.289 313.892 697.596 311.659 688.851C309.071 677.226 305.23 671.32 299.762 666.708C295.943 663.66 293.292 663.681 290.162 666.353Z" fill="white"/>
<path d="M275.323 686.974C271.837 693.569 268.811 700.477 266.432 706.383C279.267 706.634 290.266 705.069 302.455 702.293C305.001 701.708 307.025 701.061 308.591 700.227C301.077 695.677 284.38 688.372 275.343 686.974H275.323Z" fill="#DCDDDD"/>
<path d="M144.233 686.806C135.53 696.928 152.728 754.49 182.114 759.896C194.365 762.15 251.822 725.667 256.497 710.745C264.95 683.842 163.414 664.495 144.233 686.827V686.806Z" fill="#0E141B"/>
<path d="M154.147 686.807C175.456 676.559 256.309 693.443 251.425 709.159C247.564 721.431 193.258 752.716 183.449 750.901C158.154 746.247 141.395 695.071 154.126 686.807H154.147Z" fill="white"/>
<path d="M209.579 687.579C233.122 692.4 253.972 700.936 251.425 709.138C247.564 721.41 193.258 752.695 183.449 750.88C203.777 723.768 211.228 691.94 209.579 687.558V687.579Z" fill="#DCDDDD"/>
<path d="M499.161 561.998C487.348 566.214 472.572 573.477 469.233 584.1C452.912 635.922 453.517 670.63 478.332 688.913C492.545 699.39 538.67 710.16 578.491 703.377C605.957 698.702 630.105 687.264 643.211 668.042C659.344 644.375 655.191 588.921 620.254 562.457C595.522 546.282 535.915 548.87 499.161 561.998Z" fill="#0E141B"/>
<path d="M484.468 684.719C461.364 667.709 457.754 635.213 473.428 585.415C475.619 578.486 485.282 571.641 500.643 566.152C536.437 553.358 594.144 550.645 617.833 566.152C625.367 571.077 638.808 592.741 643.608 616.805C646.259 630.1 647.219 649.113 636.846 664.349C624.261 682.819 604.371 694.486 577.74 699.015C539.108 705.589 498.076 694.737 484.468 684.719Z" fill="#3597CE"/>
<path d="M643.629 616.805C638.829 592.721 625.388 571.078 617.853 566.152C594.165 550.645 536.436 553.379 500.664 566.152C489.895 569.992 481.943 574.5 477.393 579.259C540.339 608.374 578.199 656.46 567.617 700.351C570.998 700.038 574.4 699.6 577.781 699.036C604.413 694.486 624.302 682.841 636.888 664.37C647.26 649.134 646.3 630.121 643.65 616.826L643.629 616.805Z" fill="#2A80AF"/>
<path d="M516.777 612.255C504.442 600.025 490.897 588.901 477.373 579.259C475.432 581.283 474.096 583.349 473.428 585.416C461.866 622.169 460.822 649.468 470.36 668.106C478.082 643.436 493.234 621.96 516.777 612.255Z" fill="#2A80AF"/>
<path d="M500.748 516.563C479.23 550.916 461.49 598.021 473.407 620.311C484.239 640.535 507.677 652.891 537.71 654.205C573.294 655.771 611.404 642.33 624.929 621.689C648.575 585.561 637.326 548.558 627.83 530.15C610.904 497.278 575.444 472.901 548.458 471.795C530.676 471.085 507.447 505.877 500.727 516.563H500.748Z" fill="#0E141B"/>
<path d="M537.918 647.152C509.471 645.899 487.369 637.029 477.31 618.225C466.707 598.418 482.966 553.254 504.504 518.901C521.013 492.541 538.211 475.782 548.312 476.199C573.399 477.222 604.371 501.39 620.358 532.446C625.471 542.359 631.461 557.699 631.67 575.335C632.213 619.79 601.261 649.948 537.939 647.172L537.918 647.152Z" fill="#3597CE"/>
<path d="M631.649 575.335C631.44 557.699 625.45 542.359 620.337 532.446C604.35 501.411 573.378 477.222 548.291 476.199C546.183 476.116 543.741 476.825 541.091 478.161C541.237 497.842 535.476 527.207 546.162 539.333C573.524 570.347 572.814 614.05 560.062 646.713C608.462 642.226 632.108 614.259 631.628 575.335H631.649Z" fill="#2A80AF"/>
<path d="M495.864 684.301C496.74 686.18 499.412 691.877 495.822 694.277C489.707 698.431 446.129 696.114 438.323 689.853C435.798 687.828 439.054 660.717 456.982 653.496C471.904 649.197 491.105 674.095 495.864 684.28V684.301Z" fill="#0E141B"/>
<path d="M474.931 665.851C468.315 660.007 462.471 657.44 458.443 658.609C452.662 660.279 446.609 670.297 445.023 678.144C444.292 681.838 444.626 684.76 445.899 685.783C451.931 690.604 486.597 692.19 492.253 690.103C491.982 686.889 485.22 674.972 474.91 665.872L474.931 665.851Z" fill="white"/>
<path d="M482.256 673.386C474.972 678.27 455.5 683.153 445.92 685.783C451.952 690.604 486.618 692.19 492.274 690.103C492.065 687.724 488.329 680.628 482.256 673.407V673.386Z" fill="#DCDDDD"/>
<path d="M563.068 660.258C535.143 661.239 500.414 681.901 504.672 694.527C509.576 709.054 565.364 747.477 577.949 744.868C594.687 741.424 631.775 691.48 622.591 676.328C613.617 665.788 588.551 659.36 563.068 660.237V660.258Z" fill="#0E141B"/>
<path d="M509.701 692.837C509.159 691.209 513.333 686.034 524.624 678.812C565.384 652.724 619.982 671.925 618.834 682.214C616.977 698.911 589.49 734.015 576.488 736.687C567.931 738.44 514.001 705.569 509.701 692.837Z" fill="white"/>
<path d="M569.016 665.747C577.552 679.96 584.127 694.089 577.114 736.499C590.45 732.909 617.019 698.639 618.855 682.193C619.607 675.472 596.503 664.933 569.037 665.747H569.016Z" fill="#DCDDDD"/>
<path d="M274.926 521.948C252.281 537.413 245.332 557.658 254.786 580.449C270.669 618.746 319.235 650.616 373.562 655.103C438.344 660.467 495.885 628.076 529.842 573.666C541.383 555.195 539.943 538.206 525.709 524.557C483.133 483.713 333.135 482.147 274.926 521.948Z" fill="#0E141B"/>
<path d="M372.518 647.59C319.798 643.228 274.133 615.574 258.856 578.758C250.173 557.825 256.414 539.938 277.41 525.579C334.429 486.593 481.129 487.887 522.662 527.729C535.393 539.938 536.541 554.61 526.106 571.328C493.026 624.298 435.61 652.807 372.497 647.569L372.518 647.59Z" fill="#EFE4B7"/>
<path d="M483.321 523.2C479 545.386 429.098 637.822 403.177 647.444C453.893 642.727 498.494 615.574 526.106 571.349C536.541 554.632 496.052 535.41 483.321 523.2Z" fill="#C9C09B"/>
<path d="M488.705 312.197C468.043 337.868 444.626 366.983 387.962 360.262C333.948 353.855 316.208 328.351 303.268 309.734C294.816 297.587 287.093 286.505 273.632 288.968C254.139 292.536 255.099 312.719 255.015 330.834C254.952 343.336 254.89 356.276 248.775 364.749C236.691 381.509 220.39 395.951 206.011 408.682C186.225 426.214 166.064 441.95 166.502 457.457C167.024 475.469 179.964 519.256 210.811 556.99C238.778 591.197 293.793 630.831 385.353 633.815C461.865 636.32 524.749 610.377 560.25 559.161C588.947 517.732 588.864 472.463 591.118 454.953C591.765 449.881 587.841 441.262 582.394 429.365C574.192 411.458 562.984 386.935 561.335 361.055C556.827 289.948 548.5 280.578 533.41 280.557C514.293 280.557 502.438 295.083 488.705 312.155V312.197Z" fill="#0E141B"/>
<path d="M492.149 314.972C505.172 298.798 516.401 284.814 533.369 285.023C545.808 285.169 553.739 310.861 556.953 361.389C558.643 388.083 570.06 413.044 578.408 431.243C583.166 441.637 587.257 450.612 586.777 454.431C571.521 572.747 501.917 633.252 385.541 629.453C295.63 626.51 244.1 585.959 216.717 552.482C186.559 515.603 174.517 474.196 174.016 456.768C173.619 443.328 190.003 428.822 208.974 412.021C223.521 399.123 240.03 384.535 252.386 367.358C259.315 357.737 259.377 344.087 259.44 330.876C259.523 313.073 259.607 297.712 275.49 294.811C286.155 292.849 291.539 300.572 299.658 312.28C312.326 330.5 331.465 358.05 387.461 364.666C446.546 371.657 471.842 340.226 492.17 314.972H492.149Z" fill="#EFE4B7"/>
<path d="M578.408 431.244C570.081 413.023 558.643 388.083 556.953 361.389C554.782 327.182 550.441 304.37 543.992 293.162C537.543 289.03 521.953 296.251 515.983 300.739C501.186 311.821 481.463 349.43 456.21 362.37C493.798 509.655 460.53 592.867 430.935 627.366C520.032 615.47 573.587 556.447 586.756 454.431C587.257 450.612 583.146 441.637 578.387 431.244H578.408Z" fill="#C9C09B"/>
<path d="M239.091 383.365C229.386 393.842 218.742 403.339 208.933 412C189.961 428.78 173.598 443.285 173.974 456.747C174.475 474.174 186.517 515.582 216.676 552.46C217.636 553.65 218.658 554.839 219.681 556.05C183.992 484.38 218.053 435.751 239.07 383.365H239.091Z" fill="#C9C09B"/>
<path d="M193.801 446.688C217.907 517.272 279.622 566.361 358.847 578.006C400.046 584.059 442.226 579.384 480.816 564.44C521.785 548.579 556.702 521.676 581.768 486.655L579.973 485.361C555.158 520.048 519.552 545.26 478.98 560.955C440.744 575.752 399.566 580.156 358.743 574.145C280.352 562.625 219.744 515.728 195.888 445.957L193.801 446.667V446.688Z" fill="#0E141B"/>
<path d="M200.125 476.094C220.683 535.993 283.379 577.526 370.806 588.024C456.627 598.334 535.623 562.437 581.789 494.982L579.973 493.73C534.287 560.517 455.959 593.826 370.827 584.727C292.165 576.316 226.109 534.011 202.191 475.28L200.146 476.115L200.125 476.094Z" fill="#0E141B"/>
<path d="M220.6 342.897C246.959 410.059 315.061 455.328 393.347 461.359C465.706 466.953 529.779 434.499 564.738 374.537L562.839 373.431C528.318 432.62 462.909 462.904 391.406 457.394C313.955 451.425 248.713 408.473 222.645 342.083L220.6 342.897Z" fill="#0E141B"/>
<path d="M487.077 330.729L483.78 335.425C463.013 361.91 429.829 375.622 392.741 373.034C351.125 370.133 313.099 347.405 293.543 313.74C289.16 306.185 278.244 292.89 268.373 296.584L261.861 300.571C274.446 292.181 287.094 309.17 291.226 316.307C311.053 350.452 349.247 373.159 391.406 376.102C429.036 378.732 464.996 364.915 486.096 337.992L489.457 333.213C498.807 319.501 523.852 286.337 546.956 293.6L542.427 289.321C518.926 283.978 496.594 316.746 487.036 330.729H487.077Z" fill="#0E141B"/>
<path d="M221.101 357.716C253.429 424.482 323.263 468.915 402.426 471.566C473.282 473.945 533.995 440.782 565.802 385.036L563.882 383.95C532.493 438.987 471.967 470.418 401.946 468.06C324.787 465.472 254.577 421.768 223.083 356.756L221.101 357.716Z" fill="#0E141B"/>
<path d="M131.648 333.985C123.258 354.292 122.277 383.407 130.187 401.544C136.574 416.174 148.971 422.728 163.121 428.008C195.283 440.009 236.127 431.806 251.926 392.924C262.049 368.025 265.576 344.233 256.602 323.8C249.756 308.21 234.896 295.395 220.015 289.843C187.206 277.613 147.343 295.938 131.627 333.985H131.648Z" fill="#0E141B"/>
<path d="M164.561 424.147C151.455 419.263 140.998 409.078 135.071 395.491C127.599 378.356 127.892 357.486 135.843 338.222C150.703 302.22 187.832 282.246 218.596 293.705C232.433 298.86 243.557 309.733 249.965 324.28C258.48 343.69 257.833 367.504 248.128 391.38C233.31 427.82 194.887 435.459 164.561 424.147Z" fill="#3597CE"/>
<path d="M222.186 375.059C196.577 384.201 140.936 394.386 131.502 352.101C128.204 367.17 129.373 382.406 135.071 395.492C140.998 409.079 151.475 419.264 164.561 424.147C194.866 435.459 233.31 427.821 248.128 391.38C256.748 370.176 258.209 349.013 252.448 330.938C252.177 331.147 251.947 331.398 251.655 331.585C250.319 351.35 235.439 370.656 222.206 375.059H222.186Z" fill="#2A80AF"/>
<path d="M142.543 370.301C135.28 387.874 136.636 414.234 144.713 432.788C151.538 448.462 163.33 459.043 176.687 464.031C204.863 474.55 230.179 456.81 245.582 419.535C254.64 397.6 257.666 375.372 250.069 357.966C245.143 346.675 234.729 337.346 223.96 333.339C192.904 321.755 156.359 336.887 142.543 370.322V370.301Z" fill="#0E141B"/>
<path d="M178.315 458.124C165.897 453.491 155.107 442.388 148.658 427.632C140.977 410.017 140.518 390.378 147.385 373.723C160.429 342.166 193.488 325.95 222.645 336.823C232.433 340.476 239.988 347.864 244.476 358.195C251.676 374.683 250.779 397.077 242.096 418.094C227.57 453.241 204.32 467.829 178.294 458.124H178.315Z" fill="#3597CE"/>
<path d="M244.497 358.195C243.203 355.19 241.596 352.477 239.801 349.993C244.163 364.081 246.792 391.317 219.994 406.24C178.712 425.566 150.599 411.52 143.9 385.327C141.124 399.081 142.71 413.962 148.658 427.632C155.086 442.388 165.897 453.512 178.315 458.125C204.341 467.83 227.591 453.241 242.117 418.095C250.8 397.078 251.676 374.704 244.497 358.195Z" fill="#2A80AF"/>
<path d="M200.689 390.086C184.43 399.039 171.845 414.15 168.694 429.156C158.905 475.719 184.326 482.523 207.054 490.954L208.974 491.664C233.185 500.701 262.299 485.257 273.883 457.248C280.06 442.284 279.664 423.98 272.818 408.285C267.413 395.909 258.772 386.955 248.483 383.115C235.752 378.356 216.989 381.091 200.71 390.065L200.689 390.086Z" fill="#0E141B"/>
<path d="M210.519 487.531L208.599 486.822C185.704 478.327 165.918 470.981 174.913 428.133C178.816 409.6 194.073 398.747 202.818 393.926C217.803 385.682 235.522 382.99 246.938 387.247C256.101 390.67 263.865 398.768 268.769 410.038C275.135 424.669 275.531 441.678 269.792 455.557C259.106 481.395 232.517 495.734 210.498 487.531H210.519Z" fill="#3597CE"/>
<path d="M268.769 410.059C264.24 399.687 257.311 392.048 249.088 388.229C256.247 412.459 254.243 437.88 222.186 458.083C213.357 462.487 186.601 469.938 173.411 455.578C176.75 474.967 191.84 480.603 208.62 486.822L210.54 487.532C232.558 495.755 259.148 481.396 269.834 455.558C275.552 441.679 275.177 424.669 268.811 410.038L268.769 410.059Z" fill="#2A80AF"/>
<path d="M296.924 265.383C296.924 308.231 344.175 345.819 398.022 345.819C451.868 345.819 498.306 312.28 498.306 271.06C498.306 229.84 453.538 199.16 396.394 199.16C339.25 199.16 296.903 225.77 296.903 265.383H296.924Z" fill="#0E141B"/>
<path d="M300.472 265.383C300.472 222.076 348.663 202.688 396.415 202.688C451.597 202.688 494.8 232.721 494.8 271.06C494.8 309.4 451.389 342.292 398.022 342.292C344.655 342.292 300.451 306.353 300.451 265.383H300.472Z" fill="#EFE4B7"/>
<path d="M393.806 334.799C365.046 334.799 338.979 325.428 319.965 310.276C338.102 329.414 366.925 342.291 398.043 342.291C450.074 342.291 492.629 311.904 494.716 273.981C481.63 309.17 441.412 334.799 393.806 334.799Z" fill="#C9C09B"/>
<path d="M326.957 162.24C320.32 162.24 285.988 166.602 285.174 173.134C285.174 173.259 285.153 173.426 285.153 173.614C285.153 179.375 292.917 210.702 294.733 218.006C294.19 220.511 287.386 239.274 288.826 249.918C289.765 256.868 301.015 263.296 315.895 272.354C319.694 274.671 323.305 276.862 325.621 278.573C329.315 281.266 331.256 286.588 333.657 291.618C335.117 294.686 336.683 299.068 338.206 301.197C345.615 311.507 355.007 309.379 368.406 306.958C376.233 305.538 385.666 302.888 397.542 303.222C404.45 303.43 410.732 305.622 416.827 307.688C428.973 311.8 440.911 317.956 456.857 305.998C459.069 304.349 461.824 299.423 464.516 295.604C470.193 287.59 477.978 276.611 490.918 273.168C500.685 270.559 512.185 268.743 511.705 251.233C511.622 248.102 511.538 244.324 510.995 241.716C507.698 226.021 503.482 219.759 502.564 217.61C508.032 207.947 518.676 188.078 518.676 179.688C518.676 178.498 518.467 177.559 518.008 176.891C514.251 171.527 483.237 169.962 472.635 169.586C468.503 164.932 442.665 130.829 396.54 154.1C395.705 153.599 373.081 127.218 326.936 162.24H326.957Z" fill="#0E141B"/>
<path d="M328.522 165.454C365.526 138.822 388.651 153.432 392.262 155.623C396.415 158.128 397.751 158.337 402.405 156.375C439.096 140.847 469.525 171.297 470.485 172.445C471.445 173.593 513.229 176.16 515.17 178.936C516.735 181.357 501.562 214.229 499.809 215.46C495.781 213.352 497.325 215.23 499.099 218.403C500.873 221.596 501.812 223.62 505.819 242.655C510.056 262.795 494.841 268.513 490.062 269.787C475.891 273.564 467.668 285.147 461.678 293.6C459.257 297.023 457.149 299.987 455.396 301.301C440.932 312.154 430.309 308.544 417.995 304.369C411.671 302.241 405.139 300.028 397.73 299.736C387.691 299.34 378.633 300.988 370.639 302.449C357.407 304.849 347.828 306.603 341.713 298.108C340.377 296.251 339.041 293.475 337.664 290.553C335.076 285.127 332.154 278.991 327.75 275.756C325.308 273.982 321.823 271.853 317.774 269.39C307.985 263.421 293.188 254.405 293.188 248.811C293.188 242.3 296.423 223.14 298.406 217.985C300.388 212.809 297.926 215.147 297.926 215.147C293.188 196.28 288.722 177.413 288.722 173.906C288.722 173.906 288.722 173.885 288.722 173.864C291.331 170.88 328.564 165.516 328.564 165.516L328.522 165.454Z" fill="#3597CE"/>
<path d="M502.292 227.106C500.936 221.847 500.163 220.344 499.078 218.382C497.304 215.21 495.76 213.332 499.788 215.44C501.311 214.375 513.124 189.08 515.003 181.128C515.274 180.001 478.98 181.462 477.665 184.864C476.016 189.142 494.007 210.264 502.271 227.106H502.292Z" fill="#2A80AF"/>
<path d="M489.457 266.97C482.841 267.658 473.449 273.231 466.854 281.224C460.238 289.218 450.846 300.697 438.323 302.784C425.801 304.871 417.807 296.877 396.227 296.877C374.647 296.877 359.014 301.406 352.398 299.653C345.782 297.921 336.39 282.957 332.926 276.695C329.44 270.434 316.229 263.129 306.837 258.266C298.948 254.176 294.544 248.875 293.313 245.64C293.209 246.85 293.167 247.915 293.167 248.77C293.167 254.385 307.964 263.38 317.753 269.349C321.802 271.812 325.287 273.94 327.729 275.714C332.133 278.949 335.055 285.085 337.643 290.512C339.041 293.434 340.356 296.21 341.692 298.067C347.807 306.561 357.386 304.829 370.618 302.408C378.612 300.947 387.691 299.298 397.709 299.695C405.118 299.987 411.65 302.199 417.974 304.328C430.288 308.502 440.911 312.092 455.375 301.26C457.149 299.945 459.236 296.982 461.657 293.559C467.647 285.106 475.849 273.523 490.041 269.745C493.589 268.806 502.877 265.383 505.694 255.449C502.668 260.75 495.071 266.343 489.457 266.949V266.97Z" fill="#2A80AF"/>
<path d="M328.021 182.254C327.207 180.209 305.627 175.388 288.763 175.096C289.431 180.606 293.543 197.824 297.863 215.084C297.863 215.084 300.326 212.767 298.343 217.923C297.884 219.112 297.362 221.032 296.84 223.37C307.15 207.738 328.814 184.279 328 182.234L328.021 182.254Z" fill="#2A80AF"/>
<path d="M296.277 178.519C294.19 179.354 303.79 206.507 306.879 202.917C309.968 199.327 322.073 184.593 318.734 182.151C315.395 179.709 298.364 177.685 296.277 178.519Z" fill="#0E141B"/>
<path d="M397.626 169.378C397.793 175.222 398.46 190.207 396.498 195.592C395.559 198.18 396.54 199.787 398.439 196.656C404.304 186.972 399.817 171.402 399.775 168.94C399.754 166.477 397.438 163.555 397.626 169.399V169.378Z" fill="#0E141B"/>
<path d="M375.231 232.344C373.895 235.37 375.356 236.101 376.838 233.158C380.887 225.144 382.118 215.293 381.116 209.72C380.115 204.169 378.382 205.066 378.946 210.096C379.363 213.936 377.506 227.147 375.231 232.323V232.344Z" fill="#0E141B"/>
<path d="M332.425 207.717C339.437 212.246 356.781 229.422 363.856 242.3C364.148 242.947 331.298 232.449 323.722 230.028C324.118 225.687 328.626 211.035 332.425 207.717Z" fill="white"/>
<path d="M363.251 242.217C363.648 242.3 363.877 242.342 363.857 242.279C356.802 229.402 339.438 212.225 332.425 207.696C331.277 208.698 330.067 210.743 328.919 213.227C339.918 220.72 352.795 231.76 363.251 242.217Z" fill="#DCDDDD"/>
<path d="M340.21 213.937C338.269 221.429 338.728 229.047 341.483 235.83C341.775 236.54 356.531 241.215 356.739 240.943C357.887 239.441 359.056 237.395 359.933 234.703L360.079 234.223L359.807 233.806C354.172 225.603 346.721 218.257 341.629 213.457L340.585 212.476L340.21 213.937Z" fill="#0E141B"/>
<path d="M343.591 236.706C340.523 230.278 341.149 218.111 341.587 216.023C346.45 220.657 352.941 227.21 358.055 234.557C357.428 236.393 356.385 238.126 354.82 239.879C353.985 240.818 343.988 237.562 343.57 236.686L343.591 236.706Z" fill="#B7A690"/>
<path d="M341.608 216.023C341.42 216.858 341.232 219.363 341.232 222.452C346.638 226.814 352.106 231.593 357.24 236.414C357.553 235.809 357.846 235.183 358.054 234.557C352.941 227.21 346.471 220.657 341.587 216.023H341.608Z" fill="#918371"/>
<path d="M484.719 187.577C481.38 190.019 493.485 204.753 496.573 208.343C499.662 211.933 509.263 184.801 507.176 183.945C505.089 183.11 488.079 185.135 484.719 187.577Z" fill="#0E141B"/>
<path d="M472.322 230.111C463.973 232.052 429.432 247.893 428.326 246.015C427.742 245.034 434.963 234.473 443.457 225.562C451.117 217.505 459.904 211.077 463.619 209.22C467.647 212.413 472.03 226.104 472.322 230.111Z" fill="white"/>
<path d="M472.322 230.111C463.973 232.052 429.432 247.893 428.326 246.015C427.742 245.034 434.963 234.473 443.457 225.562C451.117 217.505 459.904 211.077 463.619 209.22C467.647 212.413 472.03 226.104 472.322 230.111Z" fill="white"/>
<path d="M463.619 209.22C459.904 211.077 451.138 217.505 443.458 225.562C434.963 234.473 427.763 245.034 428.326 246.015C428.347 246.057 428.41 246.098 428.493 246.119C439.617 235.83 456.21 221.659 466.875 213.728C465.81 211.724 464.704 210.075 463.619 209.22Z" fill="#DCDDDD"/>
<path d="M453.893 236.039C457.044 227.732 455.625 218.57 454.811 215.21L433.606 236.916C434.525 239.65 435.84 241.57 437.113 242.926C437.697 243.552 453.371 237.458 453.893 236.06V236.039Z" fill="#0E141B"/>
<path d="M448.3 237.959C447.82 238.147 441.684 240.568 440.724 240.944C439.012 240.839 437.28 238.251 436.32 235.663C442.101 229.152 447.402 222.181 452.849 217.172C453.309 219.342 453.559 233.368 448.321 237.959H448.3Z" fill="#B7A690"/>
<path d="M448.3 237.959C447.82 238.147 441.684 240.568 440.724 240.944C439.012 240.839 437.28 238.251 436.32 235.663C442.101 229.152 447.402 222.181 452.849 217.172C453.309 219.342 453.559 233.368 448.321 237.959H448.3Z" fill="#B7A690"/>
<path d="M452.828 217.172C447.381 222.202 442.08 229.152 436.299 235.663C436.612 236.498 436.988 237.312 437.447 238.064C442.414 233.681 447.778 229.089 452.891 224.831C453.183 221.221 453.037 218.09 452.828 217.172Z" fill="#918371"/>
<path d="M356.719 275.798C360.288 278.073 368.448 284.835 369.429 286.671C370.41 288.508 370.452 289.009 371.621 288.738C377.297 287.444 405.577 285.189 418.142 290.073C420.73 291.075 421.251 290.95 422.044 290.282C425.592 287.277 433.127 278.97 437.781 276.528C442.435 274.086 441.204 272.792 434.859 273.231C428.514 273.669 423.255 284.334 421.356 288.07C400.777 280.681 385.521 282.622 372.247 285.711C367.551 274.086 363.836 272.563 359.495 272.062C355.154 271.54 353.108 273.523 356.698 275.798H356.719Z" fill="#0E141B"/>
<path d="M412.485 210.931C411.567 218.82 413.237 227.565 416.952 232.887C419.101 235.955 419.644 234.139 418.538 231.864C415.574 225.749 414.113 218.361 414.531 211.703C414.906 205.692 413.091 205.505 412.464 210.931H412.485Z" fill="#0E141B"/>
<path d="M379.343 242.885C375.69 245.16 377.443 245.723 380.261 244.888C383.078 244.054 400.526 241.528 411.838 246.057C415.762 247.643 417.807 247.142 414.426 244.951C399.65 235.413 382.995 240.61 379.363 242.864L379.343 242.885Z" fill="#0E141B"/>
<path d="M201.023 471.461C198.998 474.154 196.16 482.836 209.684 492.29C220.683 499.971 256.602 506.962 262.925 504.625C264.032 504.207 264.616 501.578 264.699 501.098C265.493 496.402 257.958 482.251 244.977 473.444C232.204 464.803 207.43 462.988 201.044 471.482L201.023 471.461Z" fill="#0E141B"/>
<path d="M210.435 488.763C205.614 484.735 201.837 478.975 205.28 474.425C210.519 467.454 231.077 466.703 243.724 475.26C255.266 483.086 259.127 494.19 259.127 498.698C259.127 498.969 259.106 499.199 259.085 499.407C256.059 501.474 218.387 495.379 210.435 488.742V488.763Z" fill="white"/>
<path d="M205.698 473.986C205.573 474.132 205.406 474.279 205.28 474.425C201.837 478.974 205.614 484.735 210.435 488.763C214.756 492.373 227.821 495.796 239.342 497.862C226.047 492.394 214.109 484.797 205.698 473.986Z" fill="#DCDDDD"/>
<path d="M272.63 415.611C266.557 416.362 259.398 428.697 259.544 445.06C259.649 459.314 290.704 483.775 296.152 481.437C300.033 479.768 301.787 456.873 292.061 434.186C288.596 426.13 279.371 414.755 272.63 415.611Z" fill="#0E141B"/>
<path d="M282.544 471.252C271.9 462.967 262.967 451.968 263.009 445.56C263.113 429.949 268.895 421.851 273.716 421.246C278.85 420.599 284.735 428.572 288.033 436.273C293.647 449.359 297.634 471.503 295.38 477.117C295.192 477.618 294.941 477.931 294.712 478.035C293.981 478.348 290.037 477.096 282.523 471.252H282.544Z" fill="white"/>
<path d="M263.009 445.561C262.967 451.947 271.9 462.967 282.544 471.253C285.904 473.862 288.492 475.51 290.454 476.575C279.059 464.219 272.171 448.149 264.679 432.746C263.677 436.232 263.03 440.51 263.009 445.582V445.561Z" fill="#DCDDDD"/>
<path d="M268.059 451.279C259.982 446.917 245.415 446.165 236.065 455.453C232.704 458.792 230.367 466.368 235.251 475.51C248.086 499.574 286.843 503.706 290.12 499.574C293.981 494.794 288.513 462.298 268.059 451.258V451.279Z" fill="#0E141B"/>
<path d="M277.451 496.547C266.557 494.857 246.083 488.157 238.444 473.819C235.084 467.516 235.459 462.069 239.508 458.041C245.936 451.654 259.962 450.465 266.536 453.992C275.865 459.022 283.754 477.492 286.384 489.013C287.595 494.293 287.261 496.255 287.031 496.568C286.614 496.965 283.713 497.507 277.472 496.547H277.451Z" fill="white"/>
<path d="M238.214 459.564C235.418 463.405 235.501 468.288 238.444 473.84C246.104 488.178 266.557 494.878 277.451 496.568C278.224 496.694 278.933 496.777 279.601 496.861C263.092 489.326 250.549 473.652 238.214 459.564Z" fill="#DCDDDD"/>
<path d="M588.697 293.413C573.817 298.964 562.692 312.572 555.847 328.163C546.872 348.595 547.519 373.556 557.642 398.455C572.877 435.96 600.99 450.257 634.759 437.671C648.346 432.6 661.849 421.81 670.135 402.942C679.569 381.446 682.261 353.312 676.271 338.598C660.889 300.843 621.736 281.099 588.697 293.434V293.413Z" fill="#0E141B"/>
<path d="M561.461 396.89C551.756 373.035 551.109 349.2 559.624 329.811C566.011 315.244 577.156 304.391 590.993 299.236C621.882 287.715 656.131 305.914 670.636 341.541C676.229 355.295 673.933 378.336 664.917 398.894C657.091 416.717 645.883 429.115 633.34 433.79C601.95 445.498 575.757 432.037 561.482 396.89H561.461Z" fill="#3597CE"/>
<path d="M670.636 341.541C665.022 327.745 656.444 316.558 646.238 308.711C669.759 347.405 651.31 384.284 571.959 416.07C586.965 436.565 608.525 443.056 633.34 433.789C645.883 429.114 657.091 416.717 664.917 398.894C673.934 378.336 676.229 355.294 670.636 341.541Z" fill="#2A80AF"/>
<path d="M578.283 332.337C567.534 336.344 559.457 346.78 554.553 358.05C546.976 375.456 547.853 398.936 556.89 420.871C572.293 458.146 599.383 474.008 628.31 465.764C650.516 459.44 662.371 442.326 669.342 424.92C675.686 409.058 673.662 387.415 665.147 369.863C649.306 337.242 609.672 320.628 578.283 332.337Z" fill="#0E141B"/>
<path d="M553.154 384.638C553.154 375.518 554.761 366.94 557.975 359.531C562.484 349.2 570.039 341.812 579.806 338.159C608.942 327.286 646.029 343.794 660.806 374.203C668.966 391.004 670.052 407.158 664.02 422.227C656.256 441.616 638.349 454.18 624.157 459.46C598.131 469.165 574.881 454.576 560.355 419.43C555.575 407.847 553.154 395.846 553.154 384.638Z" fill="#3597CE"/>
<path d="M660.806 374.224C657.3 367.003 652.52 360.554 646.885 355.086C646.885 394.469 588.489 429.97 557.475 411.52C558.309 414.171 559.27 416.822 560.355 419.451C574.881 454.598 598.131 469.207 624.157 459.482C638.349 454.201 656.256 441.637 664.02 422.248C670.052 407.179 668.966 391.025 660.806 374.224Z" fill="#2A80AF"/>
<path d="M563.548 460.587C540.173 463.133 534.162 476.804 537.459 478.536C546.016 483.065 578.93 487.155 588.301 485.173C604.642 481.708 594.311 472.17 591.515 468.977C586.464 463.217 575.569 458.124 563.548 460.587Z" fill="#0E141B"/>
<path d="M589.866 470.439C592.12 473.027 593.018 475.636 592.329 477.618C591.661 479.538 589.532 480.874 586.151 481.5C575.758 483.441 546.872 479.121 541.321 475.823C539.484 474.738 549.21 465.764 563.986 462.737C575.152 460.463 585.212 465.138 589.845 470.418L589.866 470.439Z" fill="#DCDDDD"/>
<path d="M526.419 410.894C519.698 420.975 509.639 442.639 510.953 449.797C512.268 456.956 526.335 449.275 530.405 447.147C538.503 442.931 550.044 433.351 550.232 425.796C550.566 411.541 548.145 403.506 543.011 401.878C537.313 400.083 530.635 404.508 526.398 410.894H526.419Z" fill="#0E141B"/>
<path d="M515.691 448.754C515.691 448.754 515.462 448.566 515.336 447.961C514.314 442.848 523.413 423.313 530.217 413.107C534.204 407.117 548.438 408.515 548.041 425.755C547.916 430.972 538.086 438.799 529.007 443.829C521.118 448.211 516.464 449.192 515.712 448.754H515.691Z" fill="white"/>
<path d="M532.555 410.999C537.668 425.191 530.468 437.087 521.16 447.564C523.226 446.771 525.835 445.581 528.965 443.849C538.044 438.798 547.874 430.993 547.999 425.775C548.354 411.061 538.044 407.91 532.534 411.019L532.555 410.999Z" fill="#DCDDDD"/>
<path d="M552.361 429.323C540.736 431.327 524.52 448.128 518.446 458.646C515.149 464.365 510.745 469.896 527.295 471.461C548.083 473.444 567.743 473.882 580.578 461.756C588.113 454.639 560.584 427.904 552.361 429.323Z" fill="#0E141B"/>
<path d="M577.072 443.933C579.618 449.046 578.241 454.326 573.044 459.231C561.231 470.397 537.292 469.645 526.419 467.767C520.199 466.703 519.97 462.988 522.787 458.375C528.944 448.295 542.281 433.309 552.737 431.494C560.083 430.221 573.002 435.835 577.072 443.933Z" fill="white"/>
<path d="M577.072 443.932C575.236 440.238 571.541 437.087 567.388 434.854C558.372 453.408 540.256 461.568 521.285 464.573C521.827 466.118 523.434 467.266 526.419 467.767C537.293 469.624 561.231 470.396 573.044 459.231C578.241 454.326 579.618 449.046 577.072 443.932Z" fill="#DCDDDD"/>
<path d="M556.035 377.501C545.411 381.466 538.19 390.587 533.87 400.521C528.569 412.668 529.111 427.695 535.373 442.868C546.998 471.044 585.629 489.556 610.236 480.373C632.526 472.066 648.346 463.718 641.104 428.843C637.848 413.232 623.844 396.744 605.373 386.538C588.238 377.083 567.952 373.055 556.035 377.501Z" fill="#0E141B"/>
<path d="M537.919 402.274C541.759 393.467 548.792 386.955 558.268 383.407C569.037 379.4 586.36 382.53 602.43 391.401C619.774 400.98 631.42 414.713 634.404 429.072C640.958 460.629 627.287 468.288 605.665 476.345C583.48 484.63 550.066 466.869 539.442 441.177C533.64 427.131 533.098 413.315 537.898 402.274H537.919Z" fill="#3597CE"/>
<path d="M634.404 429.072C632.359 419.18 626.181 409.579 616.852 401.439C620.108 441.824 587.174 467.746 548.646 455.891C563.381 473.068 588.071 482.919 605.665 476.345C627.288 468.289 640.958 460.65 634.404 429.072Z" fill="#2A80AF"/>
<path d="M344.947 221.889C343.257 221.889 341.879 223.245 341.879 224.915C341.879 226.585 343.257 227.941 344.947 227.941C346.638 227.941 347.995 226.585 347.995 224.915C347.995 223.245 346.617 221.889 344.947 221.889Z" fill="white"/>
<path d="M449.051 230.655C450.745 230.655 452.119 229.244 452.119 227.503C452.119 225.763 450.745 224.352 449.051 224.352C447.357 224.352 445.983 225.763 445.983 227.503C445.983 229.244 447.357 230.655 449.051 230.655Z" fill="white"/>
<path d="M363.669 238.376C355.613 223.746 340.273 209.971 332.175 203.939C327.729 200.642 322.887 200.934 330.171 207.153C325.079 213.227 322.616 224.309 322.532 228.546C317.169 227.544 317.92 229.903 323.179 231.322C328.439 232.762 358.242 241.987 362.479 244.408C366.695 246.829 367.091 244.596 363.669 238.376ZM325.099 229.339C325.475 225.394 329.566 212.079 333.01 209.053C339.375 213.164 355.153 228.776 361.561 240.484C361.811 241.068 331.966 231.531 325.079 229.339H325.099Z" fill="#0E141B"/>
<path d="M472.948 229.277C473.01 225.437 469.817 214.96 465.455 209.512C473.532 204.107 468.315 203.668 463.41 206.507C451.2 213.582 434.796 230.696 427.575 244.241C426.26 246.704 427.074 248.812 430.225 247.414C434.859 245.368 466.436 232.888 472.155 231.761C477.873 230.654 478.792 228.526 472.969 229.256L472.948 229.277ZM430.225 244.993C439.012 231.907 455.312 214.667 462.325 211.14C465.935 213.999 469.88 226.292 470.151 229.903C462.659 231.656 438.156 241.653 430.225 244.993Z" fill="#0E141B"/>
<path d="M143.377 691.272C144.609 680.502 138.702 645.586 120.44 642.622C111.069 641.098 82.372 673.657 87.9445 685.971C91.9725 694.882 142.542 698.723 143.398 691.272H143.377Z" fill="white"/>
<path d="M143.378 691.273C143.962 686.18 142.459 678.166 139.308 668.189C121.964 669.609 94.1434 680.107 90.2614 686.618C85.2524 695.029 142.543 698.703 143.378 691.252V691.273Z" fill="#DCDDDD"/>
<path d="M648.241 642.999C662.1 642.205 682.616 665.142 679.255 680.441C677.314 689.269 649.64 689.436 625.033 677.561C626.557 668.064 637.243 645.524 648.241 642.999Z" fill="white"/>
<path d="M648.241 642.999C662.1 642.205 682.616 665.142 679.255 680.441C677.314 689.269 649.64 689.436 625.033 677.561C626.557 668.064 637.243 645.524 648.241 642.999Z" fill="white"/>
<path d="M633.235 658.108C646.113 659.841 676.751 682.298 674.622 683.153C665.314 686.931 641.98 685.741 625.012 677.56C625.617 673.741 630.209 663.994 633.214 658.108H633.235Z" fill="#DCDDDD"/>
<path d="M140.059 696.365C115.891 700.017 86.5671 695.78 84.2296 685.741C81.6834 674.826 99.7366 648.863 113.449 641.37C118.312 638.72 122.882 638.699 127.349 642.977C139.349 654.435 144.943 671.236 146.278 688.622C146.591 692.733 143.377 695.864 140.038 696.365H140.059ZM120.67 644.522C109.817 644.522 88.0281 674.325 90.0525 683.028C91.7222 690.166 124.427 694.883 140.56 691.502C139.913 670.548 128.037 644.751 120.67 644.522Z" fill="#0E141B"/>
<path d="M623.51 679.209C622.737 678.75 621.861 677.769 622.049 676.892C625.138 663.117 632.672 650.825 640.165 644.876C646.154 640.118 649.264 639.805 656.089 642.08C676 648.737 684.828 674.763 681.614 682.235C678.108 690.396 641.688 689.957 623.51 679.209ZM677.085 679.501C678.796 675.222 673.349 654.122 652.812 646.588C652.437 646.463 652.04 646.358 651.623 646.337C644.589 645.795 633.006 657.9 627.726 675.41C641.354 683.571 674.956 684.781 677.064 679.501H677.085Z" fill="#0E141B"/>
<path d="M350.457 225.312C349.309 225.312 347.327 226.543 347.327 229.945C347.327 232.491 348.141 234.349 350.332 234.349C352.523 234.349 353.504 231.635 353.504 230.07C353.504 227.127 351.939 225.332 350.436 225.332L350.457 225.312Z" fill="#0E141B"/>
<path d="M443.228 227.044C444.376 227.044 446.358 228.275 446.358 231.677C446.358 234.223 445.544 236.081 443.353 236.081C441.162 236.081 440.181 233.368 440.181 231.802C440.181 228.86 441.746 227.065 443.249 227.065L443.228 227.044Z" fill="#0E141B"/>
</g>
<defs>
<clipPath id="clip0_42_59021">
<rect width="631.07" height="720" fill="white" transform="translate(84 40)"/>
</clipPath>
</defs>
</svg>
