<svg width="800" height="800" viewBox="0 0 800 800" fill="none" xmlns="http://www.w3.org/2000/svg">
<g clip-path="url(#clip0_42_66636)">
<path d="M534.546 449.065C531.466 446.601 528.165 444.136 524.688 441.672C531.642 437.425 543.942 433.684 552.722 433.002C547.573 437.623 541.28 443.278 534.546 449.065Z" fill="#5F6DB3"/>
<path d="M289.043 538.007C285.148 560.804 273.112 578.474 260.019 574.799C249.391 571.828 246.068 548.085 250.139 528.501C251.283 523 254.166 515.123 256.938 509.489C267.28 506.761 278.085 505.023 289.131 504.318C290.737 513.164 290.869 527.423 289.043 538.029V538.007Z" fill="white"/>
<path d="M248.576 511.931C251.326 511.029 254.121 510.214 256.937 509.488C254.165 515.122 251.282 522.999 250.138 528.5C246.067 548.084 249.412 571.827 260.018 574.798C273.111 578.472 285.147 560.825 289.042 538.006C290.846 527.4 290.714 513.163 289.13 504.295C323.985 502.029 361.547 509.884 396.754 528.83C379.062 534.573 364.892 553.541 364.187 573.675C363.219 601.709 383.309 621.425 406.48 621.579C429.475 621.733 451.083 602.677 452.425 578.054C452.491 576.756 452.667 573.587 452.755 571.167C460.083 578.649 467.124 586.724 473.792 595.504C478.897 602.237 485.674 607.782 495.752 606.814C493.992 609.653 492.496 612.778 491.197 616.1C455.462 659.317 367.18 659.779 323.743 636.916C325.679 629.017 328.1 621.095 331.423 613.35C335.736 603.338 300.484 578.847 277.094 588.771C273.221 590.421 267.191 594.052 260.128 599.179C253.703 593.436 248.972 584.458 245.913 574.204C244.307 568.791 243.185 563.025 242.524 557.172C240.676 540.581 242.634 523.351 248.554 511.953L248.576 511.931Z" fill="#061922"/>
<path d="M482.55 381.994C494.543 379.595 543.481 398.365 553.075 412.47C555.319 415.749 556.112 423.582 556.662 429.502C555.451 430.58 554.131 431.768 552.723 433.022C543.943 433.705 531.643 437.445 524.689 441.692C506.359 428.776 484.421 415.573 457.113 407.805C460.414 402.876 476.983 383.138 482.528 382.016L482.55 381.994Z" fill="#5F6DB3"/>
<path d="M456.013 407.411C444.46 404.11 432.094 400.699 419.331 399.335C420.739 393.46 422.126 390.203 427.033 387.232C432.358 383.998 453.966 386.418 470.404 391.193C464.242 397.354 458.499 403.692 456.013 407.389V407.411Z" fill="#5F6DB3"/>
<path d="M222.214 395.968C216.977 381.775 232.997 374.557 241.446 381.797C244.967 384.811 268.534 412.823 284.377 425.894C268.93 433.287 254.473 442.221 241.644 452.695C241.864 433.309 226.527 407.586 222.214 395.968Z" fill="#5F6DB3"/>
<path d="M204.633 597.486C211.499 595.417 235.814 585.559 245.914 574.205C248.95 584.481 253.703 593.437 260.129 599.18C252.977 604.351 244.769 611.063 236.562 618.764C234.823 617.29 231.941 616.058 231.259 615.221C226.66 614.869 218.914 614.957 212.093 618.06C210.42 617.796 203.929 598.718 204.633 597.486Z" fill="#5F6DB3"/>
<path d="M568.236 517.873C568.06 517.873 567.884 517.851 567.686 517.829C567.818 517.147 567.95 516.487 568.06 515.805C568.126 516.487 568.192 517.191 568.236 517.873Z" fill="#5F6DB3"/>
<path d="M406.48 621.579C383.331 621.425 363.241 601.709 364.187 573.675C364.87 553.541 379.062 534.595 396.754 528.83C416.448 539.414 435.416 553.453 452.734 571.145C452.668 573.565 452.469 576.734 452.403 578.032C451.083 602.677 429.453 621.711 406.458 621.557L406.48 621.579Z" fill="white"/>
<path d="M491.198 616.1C479.096 647.391 486.533 696.659 486.049 704.184C485.543 712.084 457.179 721.282 451.414 716.045C444.307 709.619 414.821 677.119 396.403 678.769C373.694 680.793 340.489 680.133 318.177 666.644C319.651 657.051 321.279 646.994 323.766 636.894C367.203 659.757 455.485 659.295 491.22 616.078L491.198 616.1Z" fill="#4F5B97"/>
<path d="M195.59 589.651C215.922 582.191 235.792 569.164 242.525 557.172C243.185 563.025 244.308 568.79 245.914 574.203C235.836 585.58 211.521 595.438 204.634 597.484C203.929 598.716 210.421 617.794 212.093 618.058C218.915 614.956 226.66 614.868 231.259 615.22C231.963 616.056 234.846 617.288 236.562 618.763C233.988 621.183 231.391 623.714 228.861 626.332C221.379 623.493 213.699 627.146 209.343 628.444C202.147 630.557 189.23 592.005 195.59 589.673V589.651Z" fill="#5F6DB3"/>
<path d="M554.394 603.383C560.49 614.341 580.646 650.825 583.991 659.868C587.951 670.541 576.949 679.232 568.389 675.14C560.842 671.531 528.473 651.463 521.058 646.842C535.03 634.013 546.297 619.798 554.372 603.405L554.394 603.383Z" fill="#5F6DB3"/>
<path d="M568.235 517.873C577.653 518.798 584.519 517.829 589.646 516.465C594.157 515.277 597.325 513.803 599.68 513.077C601.55 512.504 607.139 518.336 607.205 519.282C607.579 525.157 598.205 542.232 568.565 547.624C569.16 538.294 569.05 528.392 568.235 517.873Z" fill="#5F6DB3"/>
<path d="M512.674 600.323C531.796 587.934 561.194 552.287 567.708 517.828C567.884 517.828 568.082 517.85 568.258 517.872C569.072 528.39 569.182 538.292 568.588 547.622C567.246 568.857 562.383 587.186 554.395 603.382C546.319 619.797 535.053 634.012 521.08 646.819C513.533 653.75 505.193 660.263 496.127 666.513C494.851 642.33 498.041 622.878 512.674 600.323Z" fill="#5F6DB3"/>
<path d="M318.154 666.644C340.445 680.133 373.671 680.793 396.38 678.769C414.798 677.119 444.306 709.619 451.391 716.044C457.157 721.26 485.52 712.084 486.026 704.184C486.511 696.659 479.073 647.39 491.176 616.1C492.452 612.777 493.97 609.653 495.73 606.814C499.757 606.44 504.268 605.054 509.439 602.237C510.473 601.687 511.53 601.027 512.63 600.301C497.997 622.855 494.806 642.329 496.083 666.49C496.677 677.581 498.173 689.683 499.977 703.524C501.078 712.062 499.713 715.736 494.212 720.027C489.305 723.856 474.936 730.083 460.985 732.658C448.355 734.99 445.23 732.702 435.152 720.555C425.118 708.475 407.866 690.057 392.111 691.399C375.388 692.852 337.342 695.272 315.602 682.532C316.504 677.449 317.318 672.123 318.154 666.644Z" fill="#5F6DB3"/>
<path d="M606.744 464.996C607.712 466.295 607.734 467.813 607.844 468.671C608.966 477.517 606.48 479.431 602.321 480.554C597.546 481.83 580.757 485.637 568.06 494.24C567.224 489.729 565.816 485.351 563.703 481.17C570.194 476.483 591.957 463.874 606.722 465.018L606.744 464.996Z" fill="#5F6DB3"/>
<path d="M568.984 507.025C573.935 511.69 583.045 514.925 589.668 516.443C584.541 517.808 577.654 518.776 568.258 517.852C568.214 517.169 568.874 509.908 568.984 507.025Z" fill="#5F6DB3"/>
<path d="M563.725 481.147C562.801 479.298 561.81 477.494 560.622 475.733C560.512 475.579 560.402 475.425 560.292 475.271C569.292 463.103 578.27 451.572 582.847 445.037C588.634 449.438 603.421 459.098 607.866 464.995C589.536 466.47 570.238 476.46 563.747 481.147H563.725Z" fill="#5F6DB3"/>
<path d="M194.357 515.716C204.083 490.828 218.012 470.32 238.916 453.267C251.745 442.793 266.026 432.781 281.451 425.387C314.744 409.456 355.43 398.96 391.825 398.057C401.023 397.837 410.023 398.256 418.759 399.202C431.499 400.566 443.712 403.031 455.286 406.309C482.572 414.099 506.359 428.754 524.689 441.67C528.165 444.135 531.466 446.599 534.547 449.064C541.258 443.277 562.206 424.573 563.769 423.363C575.211 414.473 592.374 429.458 585.047 441.67C584.519 442.551 583.749 443.695 582.802 445.037C578.226 451.572 569.27 463.103 560.248 475.271C560.358 475.425 560.468 475.579 560.578 475.733C569.182 488.43 570.7 501.677 567.663 517.806C561.15 552.287 531.752 587.912 512.63 600.301C511.53 601.005 510.452 601.665 509.439 602.237C504.268 605.032 499.735 606.418 495.731 606.814C485.653 607.782 478.875 602.237 473.77 595.504C467.103 586.724 460.061 578.626 452.734 571.167C435.394 553.475 416.448 539.436 396.754 528.852C347.31 502.271 293.245 497.496 248.554 511.953C234.405 516.53 221.18 522.977 209.386 531.339C204.259 534.97 189.494 528.148 194.335 515.738L194.357 515.716Z" fill="#5F6DB3"/>
<path d="M198.978 667.283C205.645 652.892 216.846 638.677 228.86 626.333C237.31 617.663 262.747 594.844 277.094 588.771C300.485 578.869 335.736 603.338 331.423 613.35C328.1 621.096 325.68 629.017 323.744 636.917C321.279 647.017 316.504 677.471 315.624 682.554C313.467 694.833 310.783 705.725 305.656 714.065C287.392 743.815 246.53 744.211 219.09 729.248C192.927 714.967 186.281 694.635 198.978 667.283Z" fill="#F3859B"/>
<path d="M277.93 420.196C280.174 422.286 282.331 424.223 284.377 425.917C268.93 433.31 254.473 442.244 241.644 452.718C241.798 439.406 234.603 423.1 228.684 410.426C242.59 420.922 260.15 422.946 277.93 420.196Z" fill="#4F5B97"/>
<path d="M204.633 597.486C211.499 595.417 235.814 585.559 245.914 574.205C248.95 584.481 253.703 593.437 260.129 599.18C252.977 604.351 244.769 611.063 236.562 618.764C234.823 617.29 231.941 616.058 231.259 615.221C226.66 614.869 218.914 614.957 212.093 618.06C210.42 617.796 203.929 598.718 204.633 597.486Z" fill="#4F5B97"/>
<path d="M491.197 616.102C479.095 647.392 486.532 696.661 486.048 704.186C485.542 712.086 457.178 721.284 451.413 716.047C444.306 709.621 414.82 677.121 396.402 678.771C373.693 680.795 340.488 680.135 318.176 666.646C319.65 657.052 321.278 646.996 323.765 636.896C367.202 659.759 455.484 659.297 491.219 616.08L491.197 616.102Z" fill="#4F5B97"/>
<path d="M554.394 603.383C556.881 607.85 561.7 616.564 566.761 625.915C558.289 638.744 557.123 655.798 561.634 671.421C549.311 664.335 527.065 650.538 521.058 646.82C535.03 633.991 546.297 619.776 554.372 603.383H554.394Z" fill="#4F5B97"/>
<path d="M568.235 517.874C569.556 518.006 570.832 518.094 572.064 518.138C579.304 527.027 590.02 530.614 601.462 531.23C595.785 537.656 585.509 544.543 568.587 547.602C569.182 538.272 569.072 528.37 568.257 517.852L568.235 517.874Z" fill="#4F5B97"/>
<path d="M521.057 646.82C513.51 653.751 505.17 660.265 496.104 666.514C495.268 650.473 496.412 636.5 501.517 622.329C520.309 620.217 538.221 614.979 553.58 604.857C545.548 620.635 534.59 634.387 521.035 646.82H521.057Z" fill="#4F5B97"/>
<path d="M604.939 464.865C605.907 466.163 606.567 467.285 606.677 468.143C607.8 476.989 606.501 479.432 602.343 480.554C597.568 481.83 580.778 485.637 568.082 494.241C567.245 489.73 565.837 485.351 563.725 481.17C570.216 476.483 590.152 463.742 604.917 464.865H604.939Z" fill="#4F5B97"/>
<path d="M311.113 701.744C309.638 706.255 307.9 710.414 305.655 714.067C287.392 743.817 246.529 744.213 219.09 729.25C207.207 722.78 199.396 715.035 195.545 705.969C229.124 729.36 277.468 733.849 311.091 701.744H311.113Z" fill="#C96F81"/>
<path d="M458.169 545.07C474.408 558.757 486.357 576.317 499.867 589.321C512.212 588.947 536.967 570.64 553.999 553.168C541.984 574.248 525.151 592.226 512.674 600.302C511.574 601.006 510.496 601.666 509.483 602.238C504.312 605.033 499.779 606.419 495.775 606.815C485.697 607.783 478.919 602.238 473.814 595.505C467.147 586.725 460.105 578.627 452.778 571.168C435.438 553.476 416.492 539.437 396.798 528.853C347.354 502.272 293.289 497.497 248.598 511.954C234.449 516.53 221.224 522.978 209.43 531.339C204.699 534.684 191.848 529.139 193.609 518.555C289.724 454.148 387.446 485.438 458.191 545.092L458.169 545.07Z" fill="#4F5B97"/>
<path d="M251.326 510.81C238.498 532.066 242.15 581.202 261.778 598.146C262.35 598.63 258.104 601.49 257.091 600.522C238.189 582.544 235.065 537.149 245.869 513.208C246.551 511.668 251.876 509.93 251.326 510.81Z" fill="#061922"/>
<path d="M488.667 621.711C450.511 660.703 365.838 662.574 322.951 640.503C322.093 640.063 323.831 634.892 324.359 635.156C368.874 658.767 460.897 657.227 493.266 610.313C493.86 609.455 491.505 618.829 488.689 621.711H488.667Z" fill="#061922"/>
<path d="M190.815 515.761C221.819 436.413 314.216 397.355 391.43 395.462C449.83 394.032 502.75 420.151 535.339 446.755C535.031 448.317 534.327 449.549 533.249 450.628C503.301 426.753 452.976 399.225 392.024 400.699C318.419 402.526 225.714 440.572 196.096 516.399C192.245 526.257 204.259 532.683 208.33 529.8C276.5 481.61 397.943 492.59 475.289 594.383C481.362 602.393 490.648 610.314 508.604 600.61C526.449 590.95 556.529 556.337 564.957 521.9C569.116 504.935 566.233 490.346 558.906 478.463C559.632 477.209 562.119 474.591 562.207 474.701C571.052 487.771 573.209 506.519 568.61 525.355C559.94 560.782 528.87 596.474 510.408 606.464C488.8 618.148 478.545 608.972 470.888 598.3C399.615 499.39 276.368 486.891 209.628 534.091C205.029 537.347 185.908 528.348 190.837 515.761H190.815Z" fill="#061922"/>
<path d="M569.49 507.487C578.556 580.806 558.84 629.282 496.567 669.88C495.709 670.452 495.951 664.357 496.655 663.873C549.092 627.213 570.436 584.458 566.739 522.714C566.541 519.325 569.358 506.452 569.49 507.487Z" fill="#061922"/>
<path d="M276.741 586.065C261.492 592.534 213.897 629.326 196.667 666.469C183.64 694.547 191.408 717.872 218.297 732.527C247.497 748.458 289.24 747.424 307.79 717.234C314.963 705.549 317.406 689.662 320.222 671.266C322.885 653.993 325.327 632.208 333.139 614.077C334.657 610.556 332.787 605.869 327.836 600.918C317.758 590.796 294.807 578.407 276.719 586.065H276.741ZM219.97 727.598C194.775 713.845 188.459 694.371 200.672 668.054C217.505 631.768 262.945 596.781 277.82 590.466C293.597 583.776 315.469 593.766 325.195 603.558C328.804 607.189 330.542 610.666 329.706 612.602C321.719 631.174 318.682 651 315.997 668.494C313.225 686.493 310.848 702.051 304.071 713.075C286.687 741.395 247.673 742.693 219.992 727.598H219.97Z" fill="#061922"/>
<path d="M305.281 589.255C285.653 598.981 257.025 630.909 247.498 653.728C244.263 661.495 242.965 657.117 246.199 649.349C255.485 627.124 280.306 599.377 300.352 587.67C301.475 587.01 306.206 588.793 305.281 589.255Z" fill="#061922"/>
<path d="M514.655 602.569C493.134 636.456 497.359 658.725 503.102 703.306C504.269 712.35 502.464 717.961 496.391 722.692C490.956 726.939 475.531 732.814 461.888 735.322C448.487 737.809 444.13 734.288 433.722 721.746C417.241 701.897 402.718 692.92 391.694 693.888C356.486 696.924 331.203 694.922 315.514 686.186C314.59 685.68 315.976 680.597 316.504 680.905C331.401 689.685 356.773 692.59 391.958 689.531C404.434 688.453 419.045 698.201 436.605 719.347C446.463 731.229 448.905 732.99 460.656 730.811C474.761 728.215 488.778 721.9 493.068 718.555C498.107 714.616 499.142 711.579 498.151 703.768C492.782 662.245 489.394 635.906 508.053 604.197C509.66 601.469 515.579 601.117 514.655 602.569Z" fill="#061922"/>
<path d="M242.987 560.033C235 572.136 216.12 583.578 199.374 590.223C195.744 591.676 194.753 591.852 195.282 595.46C196.294 602.304 203.269 624.638 208.814 626.641C210.795 625.959 221.731 621.382 229.917 624.726C230.401 624.924 228.09 627.653 227.1 627.389C222.127 625.387 213.853 629.127 209.364 630.624C202.961 632.516 192.135 609.477 190.287 596.781C189.274 589.805 190.793 589.453 198.978 586.241C222.171 577.109 237.838 564.368 241.975 552.024C242.305 551.033 244 558.515 242.987 560.033Z" fill="#061922"/>
<path d="M498.327 608.356C482.462 634.563 487.545 675.425 488.601 704.449C488.799 709.73 480.173 713.889 475.398 715.826C460.699 721.789 451.457 720.403 446.418 714.351C436.186 704.251 411.387 679.298 396.534 680.64C375.256 682.555 343.195 684.557 317.714 669.616C316.834 669.088 318.198 664.555 318.616 664.819C341.985 679.276 377.126 678.638 396.204 676.922C412.795 675.425 437.682 700.07 449.191 711.425C452.315 714.989 457.068 718.686 473.33 712.085C480.613 709.136 484.266 705.858 484.156 704.075C483.1 683.919 477.665 638.81 493.464 608.004C494.234 606.485 498.789 607.585 498.327 608.356Z" fill="#061922"/>
<path d="M245.275 570.574C239.004 580.3 216.339 591.962 206.283 595.549C203.291 596.605 202.587 597.045 203.181 600.082C204.347 605.957 208.088 615.947 208.484 616.783C210.42 620.876 211.916 620.172 215.811 618.896C221.29 617.091 226.77 615.573 230.158 615.793C232.029 616.431 234.075 619.226 234.823 619.754C235.263 620.062 237.816 617.619 237.178 616.959C235.439 615.155 232.029 612.976 231.368 612.8C229.256 612.272 223.227 612.602 215.899 614.737C213.215 615.507 212.379 615.485 211.3 612.866C209.892 609.5 208.198 604.571 207.252 601.226C206.701 599.268 207.296 598.564 209.232 597.837C217.968 594.581 236.451 586.593 246.133 576.735C246.948 575.899 245.869 569.672 245.297 570.552L245.275 570.574Z" fill="#061922"/>
<path d="M242.657 380.631C247.476 384.79 275.685 417.621 287.172 423.144C288.096 423.584 282.793 427.501 282.001 426.819C270.602 416.961 246.881 390.071 240.28 383.382C233.437 376.45 219.222 384.658 223.843 394.802C227.87 403.648 243.713 433.97 243.339 451.64C243.339 452.674 238.586 454.654 238.608 453.62C239.004 435.291 226.351 409.875 220.498 396.651C214.337 382.744 231.258 370.773 242.679 380.653L242.657 380.631Z" fill="#061922"/>
<path d="M556.155 410.491C558.356 413.725 558.026 420.965 558.598 426.73C558.708 427.808 554.879 430.471 554.879 430.471C554.373 424.925 553.581 416.564 551.512 413.527C542.227 399.884 493.795 381.665 482.902 383.843C477.907 384.833 462.9 401.469 457.751 408.62C457.135 409.478 453.636 407.982 454.099 407.344C458.852 400.544 474.629 380.938 481.56 379.552C495.027 376.868 546.473 396.254 556.155 410.513V410.491Z" fill="#061922"/>
<path d="M471.614 389.608C472.604 389.894 469.457 392.864 468.907 392.71C452.624 388.155 432.336 387.275 427.869 389.982C423.754 392.49 422.257 396.033 421.003 400.962C420.805 401.71 416.118 400.742 416.272 400.126C417.703 394.317 420.189 388.332 425.58 385.053C431.631 381.378 454.604 384.503 471.614 389.608Z" fill="#061922"/>
<path d="M549.686 435.245C542.138 436.345 533.006 439.272 527.109 442.463C526.119 442.991 522.136 440.812 522.554 440.548C531.686 434.893 544.515 431.218 553.536 430.69C554.571 430.624 551.028 435.069 549.686 435.267V435.245Z" fill="#061922"/>
<path d="M583.859 443.476C588.15 446.733 601.903 454.038 608.416 461.058C610.594 463.39 610.11 475.625 609.362 477.935C608.152 481.698 606.281 481.39 603.025 482.314C599.02 483.458 578.644 487.309 568.544 496.111C567.774 496.793 567.532 492.304 568.302 491.82C579.876 484.405 595.499 480.752 601.837 478.749C603.465 478.243 605.005 477.891 605.137 475.669C605.423 471.114 605.687 465.789 603.509 463.346C599.394 458.747 589.756 452.652 581.702 446.557C581.174 446.161 583.155 442.97 583.837 443.476H583.859Z" fill="#061922"/>
<path d="M563.636 478.308C569.357 474.347 588.985 464.929 605.731 463.697C606.897 463.609 608.613 466.866 607.579 466.932C593.342 467.79 573.56 476.196 564.142 483.171C563.306 483.787 562.668 478.99 563.636 478.308Z" fill="#061922"/>
<path d="M603.377 512.196C604.565 513.054 608.636 517.675 608.768 519.721C609.098 525.156 601 545.026 568.984 550.88C568.214 551.012 568.192 545.797 569.138 545.599C596.885 540.252 605.269 524.43 605.357 519.677C604.895 518.907 603.289 517.257 601.902 516.113C600.45 514.946 599.966 514.462 597.37 515.871C590.878 519.391 577.103 520.756 566.981 519.611C565.947 519.501 566.365 515.782 567.399 515.893C582.23 517.565 591.296 514.946 596.071 512.988C598.932 511.8 600.758 510.259 603.399 512.174L603.377 512.196Z" fill="#061922"/>
<path d="M605.842 523.199C598.492 526.719 582.187 532.814 569.93 532.726C569.27 532.726 569.16 528.348 569.666 528.348C582.121 528.502 601.001 522.758 606.832 519.37C607.734 518.842 606.436 522.89 605.842 523.176V523.199Z" fill="#061922"/>
<path d="M569.115 503.988C572.438 509.929 583.924 513.648 591.12 514.968C592.132 515.144 587.203 517.829 585.443 517.367C580.778 516.134 573.912 513.758 568.917 509.533C567.971 508.741 568.609 503.086 569.115 503.988Z" fill="#061922"/>
<path d="M493.134 511.998C502.2 521.812 510.1 524.453 522.026 524.563C527.131 524.607 525.745 526.631 520.662 527.159C507.679 528.502 498.768 523.969 492.012 516.663C486.071 510.238 487.171 505.573 493.112 511.998H493.134Z" fill="#061922"/>
<path d="M447.893 534.926C456.761 540.911 470.117 554.488 481.978 567.515C489.591 575.898 497.469 584.612 501.98 585.536C506.491 586.461 520.2 579.947 527.571 574.864C534.018 570.441 534.744 572.4 528.803 577.483C523.808 581.774 508.625 592.138 500.021 591.324C496.853 591.037 492.54 585.184 479.249 570.551C468.181 558.361 453.284 542.936 446.088 536.928C438.761 530.811 438.937 528.853 447.871 534.882L447.893 534.926Z" fill="#061922"/>
<path d="M528.825 453.378C487.368 455.292 433.281 477.847 408.152 506.298C404.367 510.567 405.006 505.198 408.746 500.907C433.281 472.72 490.801 448.449 534.106 448.229C535.14 448.229 530.233 453.334 528.825 453.4V453.378Z" fill="#061922"/>
<path d="M453.592 406.574C455.748 406.574 465.1 410.381 464.088 410.359C402.145 407.961 333.799 443.058 308.208 476.923C304.071 482.402 303.103 478.683 307.24 473.204C334.767 436.786 393.916 406.684 453.614 406.574H453.592Z" fill="#061922"/>
<path d="M277.292 430.383C252.713 445.28 232.601 471.751 226.175 493.998C223.601 502.91 221.29 498.377 224.239 488.761C228.31 475.536 240.962 454.852 258.5 439.625C266.026 433.089 279.492 429.063 277.27 430.383H277.292Z" fill="#061922"/>
<path d="M226.395 507.684C226.813 508.609 229.938 514.77 231.897 517.41C233.767 519.919 229.388 520.029 228.42 518.335C226.219 514.484 224.899 510.831 224.063 507.706C223.029 503.922 224.723 503.988 226.417 507.706L226.395 507.684Z" fill="#061922"/>
<path d="M396.006 527.488C376.708 533.033 363.043 552.375 362.317 573.61C361.327 602.546 382.033 624.132 406.546 624.308C432.292 624.484 454.956 602.854 455.77 575.084C455.77 575.084 426.769 549.361 426.306 549.009C425.844 548.657 396.556 527.356 395.984 527.51L396.006 527.488ZM426.262 548.018C425.8 547.666 449.741 569.869 449.741 569.297C454.142 580.849 442.876 619.709 406.502 619.709C384.652 619.709 365.178 600.015 366.08 573.742C366.762 554.048 380.691 535.344 398.515 530.217C397.943 530.371 426.747 548.371 426.284 548.018H426.262Z" fill="#061922"/>
<path d="M273.507 506.189C272.781 506.079 256.277 508.477 255.881 509.093C252.338 514.748 249.72 521.328 248.29 528.127C243.999 548.811 247.343 574.733 259.38 578.099C274.497 582.346 286.974 561.288 290.868 538.315C293.091 525.289 293.047 513.626 290.78 505.462C290.582 504.758 274.211 506.277 273.485 506.167L273.507 506.189ZM260.524 572.994C251.92 570.596 247.762 549.141 251.964 528.875C253.285 522.516 255.727 516.355 259.05 511.074C261.954 508.609 274.607 506.321 273.881 506.211C273.155 506.101 281.032 504.736 287.194 506.475C289.284 514 289.284 525.377 287.194 537.699C284.509 553.476 277.974 566.349 270.14 571.322C266.949 573.346 263.715 573.896 260.524 573.016V572.994Z" fill="#061922"/>
<path d="M402.454 571.389C400.913 571.389 399.659 572.643 399.659 574.183C399.659 575.724 400.913 576.978 402.454 576.978C403.994 576.978 405.248 575.724 405.248 574.183C405.248 572.643 403.994 571.389 402.454 571.389Z" fill="#061922"/>
<path d="M267.302 533.232C266.026 533.232 264.97 534.267 264.97 535.565C264.97 536.863 266.004 537.897 267.302 537.897C268.6 537.897 269.635 536.863 269.635 535.565C269.635 534.267 268.6 533.232 267.302 533.232Z" fill="#061922"/>
<path d="M557.586 601.139C564.077 612.823 582.099 650.231 585.751 659.208C590.262 670.277 579.018 681.675 567.466 676.834C559.874 673.665 529.486 656.238 520.068 650.385C518.462 649.394 521.762 645.06 523.699 646.27C533.381 652.277 562.251 670.145 569.204 673.445C577.676 677.472 584.717 667.24 582.231 660.529C579.15 652.189 561.194 619.534 553.977 606.552C552.173 603.295 556.419 599.114 557.564 601.183L557.586 601.139Z" fill="#061922"/>
<path d="M587.291 442.639C585.134 446.072 579.963 453.047 573.34 461.827C559.587 480.024 539.145 506.87 537.429 518.73C536.35 526.278 533.006 525.068 532.808 517.41C532.566 508.564 549.201 486.758 569.731 459.582C576.047 451.221 581.482 444.003 583.462 440.724C589.293 431.042 574.616 417.29 564.934 424.859C562.734 426.576 558.597 430.272 553.36 434.981C524.094 461.255 496.522 482.841 483.672 481.125C477.378 480.289 478.105 477.516 484.442 477.296C499.383 476.746 534.898 446.336 551.688 431.284C556.969 426.532 561.15 422.791 563.46 421.008C576.773 410.688 595.609 429.414 587.313 442.661L587.291 442.639Z" fill="#061922"/>
<path d="M305.435 487.331C305.898 491.732 306.932 496.221 308.384 503.526C308.582 504.538 305.171 504.692 304.885 503.702C303.411 498.531 303.235 493.052 303.125 489.157C302.927 482.05 305.105 484.096 305.435 487.331Z" fill="#061922"/>
<path d="M404.082 517.762C403.84 520.887 404.632 530.415 404.632 530.415C404.764 534.53 401.112 533.429 400.957 529.315C400.957 529.315 400.781 523.439 401.332 517.586C401.926 511.051 404.456 513.185 404.082 517.762Z" fill="#061922"/>
</g>
<defs>
<clipPath id="clip0_42_66636">
<rect width="420" height="365.759" fill="white" transform="translate(190 377)"/>
</clipPath>
</defs>
</svg>
