<svg width="800" height="800" viewBox="0 0 800 800" fill="none" xmlns="http://www.w3.org/2000/svg">
<g clip-path="url(#clip0_42_66702)">
<path d="M382.053 310.481C381.415 310.044 380.844 309.406 380.324 308.617C369.478 300.827 347.617 294.094 326.529 295.202C372.214 299.618 370.502 367.953 373.961 381.771C378.276 399.014 382.607 408.987 397.231 420.774C402.57 407.09 413.467 396.697 418.722 379.538C426.194 355.226 401.227 323.846 382.053 310.498V310.481Z" fill="#A5ABC9"/>
<path d="M405.089 467.869C401.983 490.771 377.386 489.142 366.758 516.106C357.422 539.797 374.112 560.751 368.672 578.028C385.865 565.637 416.909 554.471 420.989 524.384C424.867 495.757 414.122 481.754 405.089 467.869Z" fill="#8F94AE"/>
<path d="M292.58 205.997C271.66 191.776 201.915 148.71 185.662 141.121C169.141 133.414 159.033 145.536 168.704 159.472C186.619 185.295 228.157 244.882 236.686 255.409C231.599 242.481 240.447 241.81 263.92 258.801C266.724 260.833 270.938 263.972 273.91 266.105C288.819 265.668 296.072 251.649 304.064 236.655C303.493 220.805 299.783 210.866 292.58 205.98V205.997Z" fill="#A59ACA"/>
<path d="M344.578 315.4C338.584 311.286 266.707 260.849 263.92 258.818C240.464 241.826 231.599 242.498 236.686 255.426C238.382 259.708 241.606 265.349 246.341 272.132C247.549 273.862 310.545 364.947 316.254 372.687C331.717 373.963 348.171 379.436 360.512 386.606C357.003 364.393 363.131 334.154 344.578 315.383V315.4Z" fill="#A5ABC9"/>
<path d="M389.239 207.508C384.152 203.411 378.746 200.154 373.642 197.652C319.444 193.605 323.339 265.836 295.602 281.4C302.939 286.554 310.209 291.625 316.909 296.292C320.065 295.722 323.272 295.369 326.512 295.201C347.6 294.093 369.478 300.826 380.307 308.616C370.989 294.362 378.762 226.044 389.223 207.508H389.239Z" fill="#8F85AF"/>
<path d="M353.544 191.003C326.244 188.669 315.75 214.811 304.064 236.672C296.055 251.648 289.373 265.685 274.464 266.121C281.885 271.427 287.862 275.926 295.619 281.383C323.356 265.819 319.461 193.606 373.658 197.635C365.112 193.438 357.422 191.322 353.544 190.986V191.003Z" fill="#A59ACA"/>
<path d="M292.647 339.225C290.582 336.254 288.483 333.198 286.334 330.092C283.765 338.487 277.268 354.101 265.38 362.748C249.497 374.3 221.492 388.353 213.55 398.93C203.073 412.9 195.921 431.251 197.969 440.653C200.017 450.039 215.598 482.376 209.436 493.844C203.275 505.294 191.807 518.81 191.219 526.164C190.632 533.484 194.745 552.608 199.749 556.722C203.023 559.425 227.855 573.881 226.78 582.863C221.34 628.549 237.157 631.672 248.439 627.944C233.245 618.626 241.639 588.169 237.408 575.409C232.993 562.128 213.483 561.658 207.976 546.429C201.092 527.373 212.811 509.022 219.51 496.547C216.992 487.665 215.615 478.111 215.615 467.987C215.615 462.917 216.018 457.98 216.774 453.178C207.556 440.636 215.397 416.677 226.21 403.044C232.875 394.632 288.987 369.464 292.647 339.225Z" fill="#A5ABC9"/>
<path d="M292.647 339.225C288.987 369.463 232.875 394.631 226.21 403.043C215.397 416.676 207.556 440.636 216.774 453.178C224.212 405.746 266.656 372.418 309.588 372.418C311.771 372.418 314.004 372.519 316.254 372.704C310.545 364.963 302.133 352.925 292.647 339.225Z" fill="#8F94AE"/>
<path d="M394.243 440.351C393.722 432.762 394.998 426.466 397.215 420.757C382.591 408.987 378.242 398.997 373.944 381.754C370.485 367.936 372.198 299.601 326.512 295.186C323.272 295.353 320.065 295.706 316.909 296.277C328.577 304.386 338.584 311.287 344.561 315.401C363.114 334.172 356.969 364.41 360.495 386.623C361.654 393.944 363.853 400.391 368.336 405.277C385.663 424.065 391.64 435.65 390.364 459.307C389.39 477.406 375.891 487.161 364.743 500.559C363.333 502.893 361.738 505.026 359.924 506.889C345.703 527.675 352.117 531.973 354.602 552.171C355.357 558.266 354.921 566.46 351.026 579.623C348.238 589.076 303.258 599.133 291.086 603.381C282.053 606.537 274.917 631.034 273.154 647.202C272.785 650.627 276.378 652.39 281.364 652.088C281.28 652.021 281.18 651.971 281.096 651.903C279.047 650.443 286.922 629.271 294.612 617.518C300.119 609.123 336.368 602.44 353.477 600.275C355.055 593.575 357.943 586.742 365.431 580.496C366.439 579.657 367.513 578.834 368.655 578.011C374.095 560.734 357.389 539.781 366.741 516.09C377.369 489.142 401.966 490.771 405.072 467.853C399.733 459.642 394.998 451.466 394.226 440.334L394.243 440.351Z" fill="#A5ABC9"/>
<path d="M579.351 479.135C581.836 463.655 576.262 423.494 573.391 410.465C567.481 413.672 559.606 417.349 555.09 419.75C557.34 432.661 558.313 449.333 554.67 461.506C551.53 463.118 548.458 464.411 545.469 465.536C546.191 474.216 545.419 486.741 544.479 496.177C556.114 501.046 569.68 506.671 582.726 512.111C586.319 502.003 589.123 490.888 579.368 479.135H579.351Z" fill="#A59ACA"/>
<path d="M528.679 552.523C527.672 562.379 521.107 566.577 520.587 572.285C520.1 577.675 522.652 583.047 522.685 587.245C523.004 587.614 523.206 588.017 523.239 588.437C523.239 588.571 523.239 588.739 523.239 588.907C529.821 589.797 537.83 592.433 542.497 595.304C543.706 587.95 551.53 567.752 556.853 557.09C547.047 555.495 537.376 553.917 528.696 552.523H528.679Z" fill="#8F85AF"/>
<path d="M546.006 598.46C545.419 597.419 544.16 596.362 542.481 595.321C537.813 592.433 529.821 589.797 523.223 588.924C522.954 594.683 510.597 616.375 500.237 627.205C503.914 630.311 512.343 637.077 518.824 637.547C526.765 638.135 548.34 602.557 545.99 598.46H546.006Z" fill="#A59ACA"/>
<path d="M551.648 357.643C547.282 358.163 536.302 366.323 530.274 370.94C533.313 380.662 536.419 390.299 537.057 391.592C542.145 397.099 548.877 400.641 550.573 402.757C552.084 406.098 553.814 412.294 555.107 419.765C559.623 417.381 567.497 413.687 573.408 410.48C577.756 408.13 581.03 406.048 581.148 404.923C582.323 393.741 566.54 363.099 551.648 357.659V357.643Z" fill="#A59ACA"/>
<path d="M702.068 221.057C688.234 222.568 561.436 241.726 533.515 250.255C523.676 253.26 516.775 269.463 514.425 282.206C506.382 285.665 494.764 289.946 483.951 292.733C465.197 274.919 471.846 264.694 469.092 238.502C467.682 225.053 440.062 210.161 418.823 204.016C417.53 203.646 416.288 203.327 415.079 203.059C399.901 209.237 386.922 285.967 396.325 298.946C413.249 322.3 440.717 341.239 439.038 376.179C437.745 403.043 408.162 415.736 410.378 436.018C412.376 454.218 451.211 477.859 440.398 532.023C431.315 577.456 370.552 585.885 368.118 601.634C365.23 620.22 362.09 637.413 356.214 640.939C350.337 644.465 312.778 656.788 307.271 664.26C299.481 674.854 288.282 697.101 288.584 704.925C288.802 710.617 289.356 715.721 292.53 717.383C293.151 717.719 293.873 717.92 294.729 717.954C308.245 718.542 354.887 711.305 365.549 698.427C373.071 689.327 389.407 679.858 401.143 678.263C414.961 687.682 432.221 709.609 460.714 736.607C472.517 747.79 496.812 732.88 491.12 721.497C487.695 714.646 463.954 677.507 456.634 653.749C462.964 646.966 477.923 634.995 483.716 631.604C485.798 632.493 488.014 633.131 490.348 633.417C492.9 633.719 496.443 631.201 500.254 627.205C510.613 616.375 522.971 594.683 523.239 588.924C523.021 588.89 522.786 588.873 522.568 588.84C522.668 588.336 522.702 587.799 522.702 587.261C522.685 583.064 520.116 577.674 520.603 572.302C521.124 566.61 527.672 562.396 528.696 552.54C537.36 553.934 547.047 555.529 556.853 557.107C585.312 561.741 614.711 566.492 622.736 567.181C640.382 568.709 644.328 540.367 634.338 534.189C631.668 532.543 608.247 522.738 582.759 512.11C569.714 506.687 556.148 501.045 544.512 496.176C545.469 486.74 546.241 474.198 545.503 465.535C548.491 464.41 551.564 463.1 554.704 461.505C558.364 449.316 557.373 432.643 555.123 419.749C553.814 412.294 552.101 406.082 550.59 402.741C548.894 400.625 542.162 397.082 537.074 391.575C536.436 390.299 533.33 380.662 530.291 370.924C527.303 361.37 524.364 351.716 523.844 349.853C523.038 346.914 518.354 343.976 511.335 342.012C518.068 333.264 525.691 328.16 532.39 325.608C541.205 332.895 550.993 338.637 560.563 335.161C585.815 326.028 667.968 280.242 710.85 250.943C725.675 240.819 717.045 219.429 702.085 221.057H702.068Z" fill="#A59ACA"/>
<path d="M167.327 620.086C159.235 627.003 143.284 644.213 140.027 647.47C132.069 655.412 140.883 673.881 152.233 670.859C155.423 670.002 186.921 652.188 195.064 646.899C194.829 645.791 194.577 644.7 194.309 643.676C191.874 634.609 178.795 629.018 167.327 620.086Z" fill="#A59ACA"/>
<path d="M195.014 332.072C182.338 346.176 180.39 366.727 182.405 372.183C183.479 375.088 190.111 380.41 194.107 384.222C198.221 371.176 194.326 349.769 195.014 332.072Z" fill="#8F85AF"/>
<path d="M188.567 392.902C189.188 392.416 189.759 391.861 190.279 391.274C175.101 387.446 125.168 376.751 117.747 376.012C103.056 374.551 97.4647 392.466 106.867 402.758C115.027 411.674 140.581 429.488 146.76 434.692C156.129 418.658 170.115 407.375 188.55 392.919L188.567 392.902Z" fill="#A59ACA"/>
<path d="M208.261 635.75C201.512 623.326 174.715 613.47 167.562 593.104C160.41 572.721 172.784 561.019 173.875 544.38C175.823 514.981 149.429 509.373 152.787 478.043C158.261 426.951 196.458 410.346 203.258 399.534C213.903 382.576 205.306 358.986 208.547 336.353C212.979 305.359 241.337 299.986 263.92 297.569C259.101 290.567 254.417 283.784 250.051 277.521C223.12 284.573 197.448 298.139 195.165 329.016C195.098 330.023 195.031 331.048 194.997 332.089C194.309 349.785 198.221 371.175 194.091 384.238C193.217 387.008 191.975 389.392 190.262 391.29C189.725 391.877 189.171 392.431 188.55 392.918C170.115 407.374 156.145 418.657 146.76 434.692C139.406 447.267 134.873 462.764 133.261 485.028C131.162 514.007 165.178 522.922 160.326 543.205C155.474 563.487 142.982 573.779 150.991 598.678C154.013 608.064 160.343 614.696 167.277 620.102C178.728 629.034 191.807 634.625 194.258 643.692C194.527 644.716 194.779 645.808 195.014 646.916C198.087 661.523 198.154 682.477 212.71 691.829C219.661 696.295 228.476 696.328 234.269 695.069C212.156 681.486 214.792 647.889 208.194 635.75H208.261Z" fill="#A59ACA"/>
<path d="M294.645 617.533C286.955 629.269 279.081 650.441 281.129 651.919C281.213 651.986 281.314 652.036 281.398 652.103C282.372 652.775 283.648 653.447 284.974 654.068C285.864 654.471 286.771 654.857 287.644 655.176C288.399 653.9 289.138 652.641 289.944 651.331C294.427 644.061 324.581 637.899 337.829 631.351C352.066 624.333 350.606 612.53 353.494 600.307C336.402 602.473 300.135 609.155 294.628 617.55L294.645 617.533Z" fill="#8F94AE"/>
<path d="M410.395 436.002C408.162 415.72 437.762 403.027 439.055 376.163C440.734 341.24 413.266 322.284 396.341 298.93C386.939 285.934 399.901 209.205 415.096 203.043C404.753 200.726 397.5 201.935 393.672 202.942C392.178 203.345 390.683 204.957 389.256 207.509C378.796 226.045 371.022 294.363 380.341 308.617C380.861 309.423 381.432 310.045 382.07 310.481C401.227 323.829 426.211 355.209 418.739 379.521C413.467 396.664 402.587 407.073 397.248 420.757C395.015 426.466 393.756 432.762 394.276 440.351C395.049 451.483 399.783 459.659 405.123 467.869C414.155 481.755 424.901 495.757 421.023 524.384C416.943 554.472 385.898 565.62 368.705 578.028C367.564 578.851 366.489 579.673 365.482 580.513C357.993 586.759 355.105 593.592 353.527 600.291C350.639 612.514 352.083 624.318 337.862 631.336C324.598 637.884 294.444 644.046 289.978 651.316C289.172 652.625 288.433 653.885 287.677 655.161C270.585 684.106 266.069 703.986 270.568 710.5C273.943 715.403 282.17 719.046 292.546 717.384C289.39 715.722 288.819 710.618 288.601 704.926C288.299 697.102 299.514 674.838 307.288 664.261C312.795 656.772 350.354 644.465 356.23 640.94C362.107 637.414 365.247 620.238 368.134 601.634C370.586 585.869 431.348 577.44 440.415 532.024C451.244 477.859 412.393 454.219 410.395 436.019V436.002Z" fill="#A59ACA"/>
<path d="M273.188 647.202C274.279 637.262 277.385 624.166 281.734 614.831C272.617 617.551 259.84 622.471 252.704 626.148C251.411 626.819 249.95 627.44 248.423 627.944C237.14 631.671 221.34 628.532 226.764 582.863C227.838 573.881 203.006 559.408 199.732 556.721C194.745 552.608 190.632 533.484 191.203 526.164C191.79 518.827 203.241 505.311 209.42 493.843C215.582 482.376 200.017 450.055 197.952 440.653C195.904 431.251 203.056 412.899 213.533 398.93C221.458 388.352 249.48 374.299 265.364 362.748C277.251 354.101 283.748 338.486 286.317 330.092C278.997 319.48 271.307 308.281 263.92 297.553C241.337 299.97 212.962 305.36 208.547 336.337C205.306 358.97 213.903 382.56 203.258 399.518C196.475 410.33 158.261 426.936 152.787 478.027C149.429 509.374 175.823 514.965 173.875 544.364C172.767 561.003 160.41 572.705 167.562 593.088C174.715 613.454 201.512 623.327 208.261 635.735C214.86 647.874 212.224 681.47 234.336 695.053C237.257 694.432 239.406 693.475 240.145 692.585C246.173 685.365 254.601 666.813 284.991 654.036C283.665 653.414 282.405 652.726 281.415 652.071C276.428 652.373 272.835 650.61 273.204 647.185L273.188 647.202Z" fill="#8F85AF"/>
<path d="M354.635 552.172C341.22 559.509 325.874 563.706 309.588 563.706C267.11 563.706 231.045 537.346 219.494 496.547C212.811 509.022 201.092 527.373 207.959 546.43C213.466 561.675 232.976 562.128 237.392 575.409C241.623 588.169 233.228 618.609 248.423 627.944C249.95 627.441 251.394 626.82 252.704 626.148C259.84 622.471 272.617 617.552 281.734 614.832C284.454 608.989 287.644 604.607 291.119 603.398C303.275 599.133 348.272 589.076 351.059 579.64C354.938 566.477 355.374 558.266 354.635 552.189V552.172Z" fill="#8F94AE"/>
<path d="M389.256 459.844C390.532 436.203 384.555 424.618 367.228 405.814C362.728 400.945 360.545 393.523 359.387 386.22C347.046 379.034 330.575 373.56 315.129 372.301C312.879 372.116 310.663 372.016 308.463 372.016C265.531 372.016 223.087 406.284 215.649 453.715C214.893 458.517 214.49 463.453 214.49 468.524C214.49 478.648 215.867 488.202 218.385 497.083C229.937 537.866 266.002 564.243 308.48 564.243C324.783 564.243 340.935 558.971 354.333 551.634C353.527 545.086 343.101 525.928 358.85 507.426C374.599 488.924 388.299 477.926 389.273 459.844H389.256Z" fill="#384269"/>
<path d="M402.436 329.756C394.578 341.878 383.615 351.969 370.938 358.634C372.382 369.027 372.953 377.725 373.961 381.754C378.276 398.997 382.607 408.971 397.231 420.757C402.57 407.073 413.467 396.68 418.722 379.521C423.608 363.621 414.609 344.682 402.436 329.756Z" fill="#8F94AE"/>
<path d="M245.249 247.501C249.85 249.432 256.062 253.126 263.903 258.818C266.707 260.849 271.173 264.157 274.145 266.272C289.054 265.836 296.055 251.648 304.047 236.672C303.561 222.988 300.723 213.737 295.317 208.297C274.161 205.678 247.969 225.607 245.232 247.501H245.249Z" fill="#8F85AF"/>
<path d="M228.291 487.983C219.376 474.736 222.885 446.999 233.211 436.74C235.645 452.523 250.051 478.211 258.916 487.647C256.549 497.251 240.112 505.562 228.291 488V487.983Z" fill="#0E141B"/>
<path d="M360.512 386.622C357.003 364.409 363.131 334.17 344.578 315.399C342.681 314.106 334.202 308.163 323.406 300.607C310.629 315.013 285.461 309.321 269.292 304.906C269.175 304.872 269.057 304.822 268.94 304.788C288.013 332.324 312.761 367.985 316.237 372.703C331.7 373.979 348.154 379.453 360.495 386.622H360.512Z" fill="#8F94AE"/>
<path d="M350.992 523.879C337.711 530.679 296.559 539.93 262.895 532.072C298.775 563.402 342.06 549.534 350.891 532.022C350.539 529.655 350.488 527.052 350.992 523.879Z" fill="white"/>
<path d="M365.733 458.467C351.68 470.102 316.354 488.269 301.579 491.257C311.166 508.232 335.361 515.133 352.184 506.385C364.273 500.106 372.584 474.602 365.733 458.467Z" fill="white"/>
<path d="M233.211 436.724C222.885 446.982 219.376 474.736 228.291 487.967C240.112 505.529 256.566 497.218 258.916 487.614C250.051 478.178 235.645 452.49 233.211 436.707V436.724Z" fill="white"/>
<path d="M573.408 410.465C567.497 413.672 559.623 417.349 555.107 419.75C559.237 430.176 556.517 460.902 556.517 460.902L545.587 467.383V488.89C550.288 488.722 575.641 484.659 579.385 477.624C584.841 467.383 574.717 416.392 573.408 410.465Z" fill="#8F85AF"/>
<path d="M466.96 678.179C462.678 669.599 458.867 661.037 456.617 653.716C462.947 646.933 477.907 634.962 483.699 631.57C485.781 632.46 473.692 627.087 468.253 619.465C464.055 621.983 456.919 621.983 453.561 621.983C448.524 637.934 436.738 645.187 428.578 649.049C420.368 652.927 410.73 645.439 402.016 637.967C346.946 667.316 305.458 666.644 304.971 667.316C297.18 677.91 288.282 697.068 288.584 704.909C288.802 710.6 289.356 715.704 292.53 717.367C293.151 717.702 293.873 717.904 294.729 717.937C308.245 718.525 354.887 711.289 365.549 698.411C373.071 689.311 389.407 679.841 401.143 678.246C413.988 686.994 429.804 706.571 454.854 730.95C454.72 712.867 459.136 694.415 466.976 678.179H466.96Z" fill="#8F85AF"/>
<path d="M532.373 325.607C541.188 332.894 550.976 338.636 560.546 335.161C568.102 332.424 580.761 326.397 595.906 318.539C578.73 316.994 562.058 313.032 546.309 304.906C533.935 299.281 522.333 286.873 517.01 272.232C515.869 275.59 514.996 279.016 514.408 282.206C511.688 283.364 508.565 284.623 505.207 285.899C510.58 303.764 511.083 322.787 512.376 340.718C518.84 332.794 525.993 328.059 532.356 325.624L532.373 325.607Z" fill="#8F85AF"/>
<path d="M194.309 643.677C192.26 636.037 182.657 630.866 172.851 624.1C169.628 642.72 156.011 655.833 138.986 663.438C141.639 668.593 146.626 672.354 152.25 670.859C155.44 670.003 186.938 652.189 195.081 646.9C194.846 645.792 194.594 644.701 194.326 643.677H194.309Z" fill="#8F85AF"/>
<path d="M111.988 407.61C122.717 417.029 141.589 430.293 146.793 434.676C153.845 422.604 163.516 413.235 175.722 403.178C155.172 407.358 133.311 409.256 111.988 407.61Z" fill="#8F85AF"/>
<path d="M259.823 403.529C261.938 406.702 271.844 406.501 280.726 402.387C292.748 396.83 296.912 390.248 295.199 386.991C293.386 383.549 282.959 383.499 272.919 388.133C263.063 392.7 257.069 399.382 259.823 403.529Z" fill="#9693AA"/>
<path d="M485.311 523.426C503.797 528.446 636.168 561.102 638.519 554.067C638.519 554.067 635.58 565.82 628.865 567.499C622.149 569.178 492.447 548.191 492.447 548.191C492.447 548.191 485.731 535.179 485.311 523.426Z" fill="#8F85AF"/>
<path d="M534.321 383.399C534.321 383.399 544.898 389.88 574.6 382.039C574.6 382.039 584.506 400.81 581.433 405.595C578.361 410.38 555.107 419.749 555.107 419.749C555.107 419.749 553.444 405.259 551.396 403.211C549.348 401.163 536.369 391.257 536.369 391.257L534.321 383.399Z" fill="#8F85AF"/>
<path d="M556.5 501.18C556.5 501.18 578.344 506.99 586.89 500.156L583.481 511.758L556.517 501.18H556.5Z" fill="#8F85AF"/>
<path d="M521.174 594.732C521.174 594.732 528.629 610.549 539.979 617.416C539.979 617.416 523.558 639.209 518.488 639.494C513.417 639.796 500.875 628.161 500.875 628.161C500.875 628.161 520.57 601.599 521.174 594.732Z" fill="#8F85AF"/>
<path d="M422.769 650.19C411.049 647.151 444.025 605.26 454.25 614.092C458.145 617.45 437.796 654.085 422.769 650.19Z" fill="#8F85AF"/>
<path d="M495.805 383.668C487.981 382.107 482.339 430.176 499.247 433.4C508.951 428.715 503.478 385.196 495.805 383.668Z" fill="#8F85AF"/>
<path d="M309.571 562.263C256.818 562.263 217.025 521.732 217.025 467.971C217.025 414.209 264.877 373.846 309.571 373.846C325.79 373.846 344.662 378.85 359.018 387.665C359.001 385.834 358.967 384.793 358.917 384.76C344.041 375.744 326.966 370.992 309.571 370.992C261.67 370.992 212.761 409.508 212.761 468.793C212.761 528.078 255.004 565.621 309.588 565.621C325.421 565.621 341.036 561.154 354.921 553.649V550.375C341.12 558.149 325.455 562.279 309.571 562.279V562.263Z" fill="#0E141B"/>
<path d="M264.742 257.659C234.991 236.118 224.581 245.403 243.99 273.19C243.99 273.19 302.486 359.238 311.989 372.25C313.349 372.401 316.858 372.653 318.218 372.972C309.101 360.682 247.499 271.309 247.499 271.309C231.851 248.895 233.933 239.812 263.063 260.916C293.923 283.264 340.884 315.584 350.438 322.132C348.591 320.134 342.312 313.351 341.069 310.749C325.169 299.802 290.968 276.649 264.742 257.659Z" fill="#0E141B"/>
<path d="M290.699 337.411C289.155 358.919 259.89 379.336 240.464 391.341C232.724 396.126 227.099 399.081 225.085 401.666C212.056 418.423 204.416 441.643 215.363 455.142C215.867 455.747 217.277 450.995 217.009 450.575C209.487 439.209 217.227 417.869 228.275 403.916C230.004 401.75 235.024 398.04 241.958 393.758C261.888 381.451 291.992 362.848 293.655 339.88C293.705 339.09 290.767 336.622 290.716 337.411H290.699Z" fill="#0E141B"/>
<path d="M284.202 327.756C277.217 353.747 263.617 362.78 244.376 374.634C231.247 382.71 216.236 389.157 210.998 396.158C199.866 410.984 192.798 431.686 194.913 441.29C196.995 450.826 213.802 481.871 207.724 493.137C205.491 497.284 202.536 501.733 199.665 506.048C194.561 513.738 188.382 521.881 187.979 526.901C187.408 534.037 191.186 553.345 196.794 557.963C199.379 559.709 225.79 574.719 224.816 582.929C221.928 607.224 224.682 624.45 232.993 630.243C239.91 635.045 248.372 631.939 252.805 629.655C260.108 625.894 271.106 620.219 280.239 617.835C280.626 617.734 281.465 614.108 280.71 614.293C270.955 616.727 259.974 620.773 252.066 624.853C248.204 626.835 240.867 629.588 235.192 625.643C230.105 622.117 224.782 611.858 228.208 583.013C229.282 573.946 203.325 557.476 200.672 555.595C196.206 551.918 192.093 533.483 192.663 526.246C192.999 521.965 197.835 514.678 202.519 507.643C205.424 503.278 208.412 498.761 210.712 494.497C217.244 482.358 200.723 446.394 199.396 440.333C197.482 431.585 204.215 413.771 214.708 399.768C219.628 393.203 232.976 384.993 245.871 377.052C266.237 364.526 279.836 358.213 287.14 331.047C287.342 330.292 284.403 327.001 284.202 327.756Z" fill="#0E141B"/>
<path d="M251.713 626.399C240.75 621.597 239.658 606.15 239.977 593.256C240.431 574.753 240.128 570.203 224.346 560.734C218.251 557.073 212.442 553.296 209.772 545.925C203.711 529.135 212.274 512.647 218.889 500.609L217.445 495.236C209.336 510.011 199.027 527.842 205.911 546.865C208.916 555.176 216.371 559.273 222.885 563.185C237.425 571.932 237.19 577.037 236.77 594.078C236.451 607.326 235.847 621.966 247.046 628.078C247.516 628.33 252.435 626.718 251.713 626.399Z" fill="#0E141B"/>
<path d="M379.384 306.015C367.228 296.965 338.567 288.503 313.383 293.675C314.457 294.162 316.69 296.63 317.345 297.671C343.151 293.087 371.123 302.724 381.113 311.573C381.701 312.093 380.609 306.955 379.384 306.032V306.015Z" fill="#0E141B"/>
<path d="M338.752 312.226C356.348 325.204 356.516 346.074 357.154 366.272C357.641 381.954 356.919 396.377 365.65 405.846C381.986 423.56 388.349 435.245 387.057 459.238C386.318 472.838 379.988 481.72 371.274 491.139C350.975 513.066 343.991 522.066 350.169 542.701C352.318 549.853 355.273 558.735 349.212 579.252C346.711 587.731 294.83 599.283 289.021 601.314C279.114 604.773 272.869 631.099 271.106 647.201C270.552 652.255 276.999 654.286 283.396 653.329C284.168 653.212 281.297 650.693 280.525 650.71C276.965 650.76 274.38 649.501 274.615 647.369C276.579 629.336 284.034 607.392 291.589 604.756C300.085 601.784 349.38 590.367 352.419 580.041C358.715 558.718 356.146 550.172 353.897 542.633C348.356 524.114 357.439 510.263 373.356 493.07C382.439 483.264 391.002 474.013 391.791 459.389C393.135 434.372 386.301 422.67 369.394 404.318C361.385 395.638 360.948 381.333 360.461 366.189C359.84 346.293 359.975 323.525 341.271 309.724C333.396 303.915 330.861 306.433 338.735 312.243L338.752 312.226Z" fill="#0E141B"/>
<path d="M374.8 369.749C370.804 327.925 361.402 295.806 325.874 294.161C325.085 294.127 319.696 295.94 320.485 295.957C363.014 296.511 369.729 345.051 370.989 370.034C371.811 386.471 376.261 405.847 396.593 422.167C396.996 421.378 397.853 418.943 398.558 418.171C379.803 405.293 376.126 383.701 374.783 369.765L374.8 369.749Z" fill="#0E141B"/>
<path d="M387.443 489.663C359.538 510.314 358.782 523.662 365.666 553.263C367.883 562.783 369.813 571.161 366.942 578.733C367.799 577.541 368.823 576.534 370.535 576.668C372.282 569.129 371.375 561.053 369.41 552.625C362.762 523.981 367.161 508.82 390.583 491.493C398.222 485.835 405.039 481.772 407.171 470.69C406.315 469.095 404.619 466.526 403.914 465.049C403.158 478.011 395.855 483.451 387.443 489.68V489.663Z" fill="#0E141B"/>
<path d="M293.084 615.502C287.325 624.283 276.26 650.173 280.307 653.061C281.834 654.152 284.286 655.378 286.603 656.284C287.241 655.546 287.896 654.79 288.517 653.95C286.301 653.178 283.799 651.969 282.237 650.912C282.237 650.811 282.204 650.744 282.204 650.609C282.204 646.764 288.584 629.37 295.837 618.306C300.421 611.304 331.734 604.504 353.242 601.768V598.896C337.829 600.861 299.111 606.301 293.084 615.518V615.502Z" fill="#0E141B"/>
<path d="M472.332 256.502C472.282 251.297 473.642 244.933 472.887 237.865C471.006 220.051 436.973 205.729 419.276 200.608C409.908 197.888 399.767 197.2 392.178 199.214C384.891 201.145 379.871 225.541 377.587 238.486C372.92 264.93 370.132 303.849 379.552 310.397C399.179 324.064 422.92 355.411 415.935 378.144C413.014 387.647 408.8 395.992 404.283 403.144C385.613 432.627 387.544 445.203 404.686 471.295C413.282 484.374 422.181 497.906 418.622 524.183C415.515 547.151 396.694 557.309 379.82 567.45C357.977 580.597 353.964 583.686 350.152 606.906C348.625 616.191 347.835 624.788 337.191 630.043C327.369 634.878 292.395 642.283 287.476 650.275C266.875 683.737 263.685 704.086 268.335 710.836C270.703 714.278 282.254 724.016 296.307 721.078C295.334 720.49 292.58 717.082 291.925 716.024C280.743 717.669 275.202 711.726 273.255 708.922C268.906 702.609 272.65 682.142 291.153 652.071C294.796 646.161 324.817 639.831 338.467 633.099C350.421 627.205 351.915 617.618 353.494 607.981C356.952 586.893 363.87 582.141 381.952 571.261C398.507 561.305 420.099 549.082 423.39 524.77C427.101 497.436 416.489 482.644 408.01 469.75C392.094 445.556 391.405 430.31 407.624 404.689C412.258 397.369 417.513 389.813 420.552 379.941C428.259 354.823 402.436 322.939 382.859 309.306C376.378 304.789 375.807 271.915 381.617 238.939C385.613 216.239 390.734 205.192 394.024 204.319C401.11 202.438 409.555 202.791 418.42 205.36C441.204 211.958 466.422 226.901 467.665 238.637C468.387 245.571 468.454 251.397 468.504 256.535C468.655 270.336 468.756 279.89 482.188 293.02C483.38 292.969 486.94 292.801 488.048 292.398C471.359 279.017 472.467 271.008 472.316 256.502H472.332Z" fill="#0E141B"/>
<path d="M421.912 455.076C409.169 436.573 408.195 429.756 424.011 410.079C431.399 400.878 440.734 390.451 441.422 376.247C442.715 349.484 426.362 331.972 411.469 315.031C406.65 309.558 401.681 303.899 397.483 298.107C390.7 288.755 396.493 239.443 406.852 216.004C409.924 209.053 414.491 204.117 417.329 203.798C418.118 203.714 414.223 202.556 413.736 202.724C410.277 203.966 406.919 206.283 403.779 213.419C393.588 236.505 385.982 288.604 394.075 299.769C398.356 305.662 403.376 311.388 408.229 316.912C422.752 333.416 437.443 350.491 436.217 376.096C435.579 389.377 428.158 398.981 420.687 408.282C402.52 430.881 405.039 437.228 418.454 456.687C429.72 473.024 446.275 495.422 439.021 531.721C433.464 559.509 406.6 572.789 387.779 582.88C375.959 589.227 367.732 593.794 366.707 600.392C364.693 613.404 361.335 636.188 355.508 639.68C353.712 640.755 348.423 642.854 342.295 645.271C324.699 652.222 308.262 658.351 304.585 663.337C296.895 673.797 285.78 696.682 286.116 705.228C286.317 710.5 287.828 721.279 294.796 721.565C308.547 722.169 355.441 713.841 366.674 700.258C374.615 690.671 394.125 680.043 405.039 681.168C403.863 680.463 400.354 678.129 399.364 677.055C387.04 679.355 371.476 689.026 364.457 697.488C354.148 709.946 307.372 717.048 294.796 716.511C291.17 716.36 290.297 712.112 290.028 704.842C289.759 697.773 300.354 676.098 308.446 665.067C311.939 660.332 331.297 654.288 343.806 649.334C350.304 646.766 355.441 645.691 357.439 644.482C363.887 640.621 366.472 621.564 369.545 601.802C370.351 596.614 379.568 591.661 390.247 585.919C409.555 575.543 438.484 561.439 444.293 532.343C451.782 494.851 433.481 471.798 421.912 455.042V455.076Z" fill="#0E141B"/>
<path d="M552.034 400.088C548.978 397.654 541.121 393.825 538.25 390.753C536.856 387.563 527.806 352.203 526.614 347.855C525.707 344.514 520.553 342.532 513.753 339.561C513.602 340.534 512.074 342.751 511.486 343.54C518.32 345.538 521.913 348.258 522.45 350.222C523.323 353.412 534.371 389.393 535.765 392.214C535.832 392.331 535.899 392.449 536 392.549C539.089 395.907 548.726 402.825 549.348 403.547C555.896 418.439 557.004 448.023 553.461 460.498C544.042 465.199 524.465 470.169 524.465 470.169C518.975 471.579 521.745 474.048 527.37 472.637C527.37 472.637 546.006 469.262 555.912 464.209C560.647 461.808 559.707 406.233 552.034 400.088Z" fill="#0E141B"/>
<path d="M549.717 401.599C546.611 404.571 535.429 412.261 527.135 415.4C522.501 417.163 525.489 418.473 530.123 416.727C539.139 413.302 544.495 410.313 551.883 404.84C552.521 404.37 550.271 401.045 549.717 401.599Z" fill="#0E141B"/>
<path d="M552.051 353.682C548.004 354.152 535.446 365.334 530.341 369.38C529.72 369.867 530.325 373.326 530.946 372.839C530.946 372.839 547.652 359.844 551.497 359.155C567.447 365.921 580.98 396.613 579.737 404.639C578.696 406.435 556.836 417.248 554.989 418.222C555.19 419.196 555.426 421.278 555.711 422.184C557.642 421.16 584.22 410.566 584.707 406.301C586.252 392.819 565.499 356.586 552.051 353.715V353.682Z" fill="#0E141B"/>
<path d="M547.585 464.729C546.56 465.283 544.965 466.105 544.109 466.559C544.68 474.635 544.042 485.985 543.102 495.555C544.042 496.042 545.923 496.747 546.779 497.234C548.642 486.841 548.357 473.392 547.585 464.745V464.729Z" fill="#0E141B"/>
<path d="M580.829 478.749C584.069 468.709 580.661 429.387 576.077 409.055C575.154 409.474 572.904 410.599 572.064 411.086C574.902 424.199 580.392 463.605 577.941 478.917C577.874 479.32 577.991 479.74 578.26 480.059C587.276 490.905 585.076 501.097 581.567 511.104C582.457 511.154 584.254 512.43 585.144 512.934C591.927 498.243 590.735 489.495 580.829 478.749Z" fill="#0E141B"/>
<path d="M578.512 477.977C572.132 482.628 558.7 484.945 552.958 485.952C548.542 486.725 552.219 489.193 556.635 488.42C562.561 487.396 573.273 485.314 580.191 480.277C580.829 479.807 579.15 477.507 578.512 477.977Z" fill="#0E141B"/>
<path d="M457.759 292.096C454.183 287.915 452.588 290.199 456.231 294.329C464.76 303.983 505.308 287.563 514.441 283.752C514.441 282.711 515.197 279.168 515.197 278.127C503.159 286.236 463.971 299.349 457.776 292.096H457.759Z" fill="#0E141B"/>
<path d="M451.211 299.5C449.851 310.095 455.089 321.948 468.672 333.08C473.743 337.227 476.698 337.227 472.03 332.677C458.699 319.699 453.377 309.02 454.787 298.073C455.425 293.07 451.849 294.497 451.211 299.5Z" fill="#0E141B"/>
<path d="M530.845 324.668C521.56 328.513 513.988 334.96 507.574 345.101C504.418 350.104 505.862 352.774 509.018 347.787C517.732 333.986 530.358 328.647 535.664 327.959C536.453 327.858 531.416 324.433 530.845 324.668Z" fill="#0E141B"/>
<path d="M701.917 218.689C690.114 219.982 560.698 238.182 532.474 246.795C518.992 250.909 511.738 279.334 512.108 291.725C512.225 296.023 515.096 295.939 514.962 291.641C514.609 279.737 522.182 255.207 533.935 251.614C561 243.354 686.958 224.146 702.22 222.484C709.204 221.728 714.241 226.53 716.122 231.651C718.019 236.789 717.565 244.613 710.027 249.767C668.455 278.176 585.765 324.516 560.06 333.834C548.911 337.864 537.225 328.361 527.135 319.143C523.709 316.02 523.592 320.453 527.017 323.576C537.729 333.364 548.592 343.589 561.218 339.006C587.075 329.637 670.201 281.87 711.907 253.377C720.806 247.299 721.058 236.772 718.808 230.66C716.071 223.273 709.288 217.883 701.917 218.689Z" fill="#0E141B"/>
<path d="M466.137 379.167C470.234 385.144 485.596 385.346 491.792 385.598C497.987 385.849 500.892 394.345 502.017 406.786C503.595 424.214 499.918 430.981 496.46 431.619C493.37 432.206 475.12 435.38 471.208 446.293C469.646 450.642 471.157 451.817 473.357 447.771C478.326 438.57 490.701 437.243 497.87 436.169C505.039 435.077 506.752 416.793 505.811 406.518C504.636 393.556 500.858 381.316 493.857 381.064C486.856 380.829 470.989 381.753 467.698 376.951C465.247 373.358 463.686 375.557 466.137 379.15V379.167Z" fill="#0E141B"/>
<path d="M490.314 498.847C484.169 505.63 479.921 515.99 484.874 529.27C487.443 536.154 493.337 541.258 489.022 530.614C485.311 521.446 485.58 507.998 493.958 499.284C499.096 493.944 493.958 494.851 490.314 498.847Z" fill="#0E141B"/>
<path d="M513.77 484.994C518.421 487.395 630.594 533.567 633.549 535.397C638.082 538.184 639.627 546.932 636.991 554.857C635.816 558.399 632.088 566.543 622.82 565.737C614.207 564.998 505.963 547.352 498.726 546.462C488.518 545.203 486.604 550.004 496.812 551.23C503.998 552.12 613.854 569.246 622.568 570.001C631.736 570.79 637.075 565.518 640.332 555.663C644.378 543.423 640.131 535.145 635.026 531.989C631.87 530.041 522.853 484.071 518.303 481.72C510.244 477.573 505.677 480.813 513.753 484.96L513.77 484.994Z" fill="#0E141B"/>
<path d="M500.086 579.958C502.84 581.889 506.953 583.098 511.486 584.323C515.298 585.347 521.678 587.06 521.812 588.554C522.215 593.138 508.699 617.08 497.87 627.557C493.622 631.671 491.423 632.09 490.499 631.973C481.735 630.915 474.582 624.468 468.739 618.306C465.264 614.629 464.508 618.306 467.984 621.983C474.179 628.514 480.929 636.557 490.6 637.715C493.488 638.068 495.503 637.363 500.372 632.661C511.419 621.983 526.614 593.239 526.11 587.446C525.791 583.87 524.515 584.374 512.225 581.083C507.927 579.924 503.595 579.034 501.127 577.557C496.073 574.535 495.989 577.087 500.069 579.941L500.086 579.958Z" fill="#0E141B"/>
<path d="M549.146 596.799C546.561 592.265 531.802 587.749 522.568 586.641C522.568 587.715 522.82 589.428 522.736 590.284C531.634 591.409 542.833 595.858 544.747 599.132C544.764 599.216 544.781 599.334 544.781 599.451C544.781 605.882 525.069 636.557 518.941 636.104C514.677 635.785 508.615 632.343 500.959 625.895C500.825 627.121 499.448 628.632 498.441 628.985C502.067 632.057 511.957 641.577 519.126 642.114C527.403 642.736 552.336 602.406 549.129 596.799H549.146Z" fill="#0E141B"/>
<path d="M524.952 565.871C527.084 562.463 530.375 558.181 530.862 551.936C529.955 552.07 528.26 552.305 527.286 552.087C526.799 557.493 523.945 561.052 521.913 564.276C517.229 571.764 518.454 573.729 520.318 581.654C520.771 583.601 522.517 585.028 522.551 586.623C522.971 587.043 523.978 587.446 525.271 588.739C525.976 586.153 524.767 584.105 524.029 580.982C522.215 573.309 520.922 572.268 524.935 565.854L524.952 565.871Z" fill="#0E141B"/>
<path d="M555.224 557.123C550.355 567.063 542.044 585.733 540.331 594.027C541.171 594.313 543.505 596.21 544.395 596.73C545.687 589.494 552.84 568.305 558.078 557.795C557.054 557.627 556.03 557.593 555.224 557.123Z" fill="#0E141B"/>
<path d="M452.571 642.214C452.571 659.172 474.448 695.673 484.723 713.202L489.811 722.117C494.781 732.074 472.047 745.388 461.671 735.566C449.448 723.981 439.424 713.47 430.576 704.186C410.646 683.265 399.884 670.673 387.443 671.949C381.801 672.52 380.811 675.357 386.452 674.77C397.5 673.628 408.951 688.101 427.621 707.678C436.486 716.98 445.922 727.742 458.212 739.36C471.644 752.087 501.211 733.988 494.982 721.513L489.357 711.372C479.199 694.061 457.541 659.541 456.281 643.406C455.627 635.112 452.571 635.196 452.571 642.214Z" fill="#0E141B"/>
<path d="M482.171 630.865C475.707 634.928 461.973 645.993 455.778 652.558C455.862 653.716 457.389 656.722 457.406 656.688C462.997 649.989 479.099 635.852 484.623 632.695C483.884 632.007 483.229 631.235 482.171 630.865Z" fill="#0E141B"/>
<path d="M435.731 581.587C433.178 593.071 439.525 598.544 445.099 604.354C447.802 607.157 450.354 609.81 452.033 612.933C455.324 619.011 441.976 647.017 424.397 648.142C417.933 648.545 409.723 641.51 407.02 639.193C402.168 635.045 397.147 636.775 389.777 641.677C385.865 644.28 385.546 646.647 389.642 644.347C396.828 640.301 401.681 639.193 404.216 641.358C409.286 645.707 417.513 653.195 424.347 652.759C442.866 651.583 460.781 619.968 455.979 611.103C454.099 607.644 451.295 604.74 448.592 601.919C443.017 596.127 437.04 590.619 438.534 581.133C439.777 573.275 437.208 574.938 435.731 581.62V581.587Z" fill="#0E141B"/>
<path d="M424.162 584.022C412.393 586.389 403.528 593.407 399.565 600.795C397.198 605.194 397.534 611.49 400.254 605.143C404.216 595.892 416.691 588.152 425.959 586.305C430.442 585.398 428.645 583.132 424.162 584.022Z" fill="#0E141B"/>
<path d="M450.875 383.165C445.989 390.922 444.142 404.236 446.929 413.605C448.592 419.179 450.472 420.287 449.448 414.562C447.668 404.639 450.556 389.159 454.199 383.098C456.852 378.682 453.629 378.799 450.892 383.165H450.875Z" fill="#0E141B"/>
<path d="M352.755 187.846C323.02 189.341 314.726 210.496 305.508 229.804C296.895 247.854 290.733 262.645 273.07 265.248C272.298 265.365 274.313 268.22 275.085 268.069C293.974 264.526 299.632 249.852 308.127 232.071C317.11 213.25 326.395 193.807 353.645 192.447C359.672 192.145 375.27 198.088 388.232 208.515C388.786 207.608 389.357 206.349 389.911 205.728C373.608 192.632 361.15 187.444 352.772 187.863L352.755 187.846Z" fill="#0E141B"/>
<path d="M371.711 196.243C343.504 195.252 330.005 212.059 316.707 245.252C310.78 260.061 305.105 274.282 295.065 280.041C296.089 280.595 297.449 281.149 298.188 281.787C308.295 275.222 313.651 261.421 319.796 246.847C330.324 221.881 342.177 195.605 375.539 198.677C376.328 198.744 372.836 196.293 371.694 196.259L371.711 196.243Z" fill="#0E141B"/>
<path d="M284.101 229.268C296.072 229.268 301.697 239.023 302.15 239.779C302.503 240.366 303.712 236.773 303.577 236.085C303.426 235.313 298.188 226.951 285.646 226.951C281.667 226.951 280.139 229.268 284.101 229.268Z" fill="#0E141B"/>
<path d="M266.035 244.126C264.558 249.65 267.546 259.623 269.393 262.73C269.796 263.401 274.799 264.862 274.329 264.241C271.643 260.664 267.462 250.507 268.856 243.203C269.578 239.408 267.026 240.399 266.035 244.126Z" fill="#0E141B"/>
<path d="M166.673 161.117C176.696 175.657 230.726 252.689 238.651 262.058C239.155 262.663 236.183 250.255 234.94 248.593C221.643 230.98 178.728 172.132 169.879 158.649C162.677 147.669 168.133 134.875 185.058 142.397C200.874 149.448 269.292 192.179 291.304 207.155C301.848 214.325 301.563 226.85 302.066 240.416C302.1 241.205 304.786 234.758 304.769 233.969C304.45 220.889 303.846 209.153 294.83 203.042C274.967 189.543 202.956 146.325 186.266 138.401C167.562 129.519 157.052 147.148 166.689 161.134L166.673 161.117Z" fill="#0E141B"/>
<path d="M283.933 652.943C258.832 663.622 248.607 678.246 242.445 687.043L239.037 691.694C237.291 693.776 223.406 696.966 213.533 690.62C202.385 683.45 200.084 668.826 198.07 655.915C197.365 651.365 196.693 647.084 195.669 643.306C193.805 636.388 186.653 631.637 178.375 626.113C168.234 619.347 156.716 611.69 152.384 598.208C146.995 581.485 151.108 571.68 155.86 560.33C163.13 542.936 167.949 537.211 150.067 517.667C142.008 508.852 133.664 499.736 134.721 485.128C138.415 434.07 157.64 419.01 189.456 394.026C198.725 386.756 197.851 370.067 196.928 352.421C195.585 327.018 192.462 294.16 250.353 278.915C249.665 278.092 248.288 276.262 247.751 275.439C190.246 291.004 191.69 318.052 193.469 351.833C194.359 368.724 195.803 384.96 187.71 391.306C156.38 415.887 133.16 432.878 129.366 485.195C128.224 501.028 137.374 511.052 145.45 519.883C161.753 537.697 159.99 543.121 153.241 559.239C148.489 570.622 141.84 582.023 147.549 599.753C152.2 614.192 166.27 621.479 176.814 628.497C184.621 633.685 190.884 638.185 192.462 644.045C193.436 647.671 194.09 651.885 194.796 656.352C196.911 669.851 197.868 686.271 210.108 694.129C220.854 701.029 238.449 699.888 241.253 696.53L244.813 691.694C250.874 683.047 261.519 666.694 286.62 656.301C287.342 655.999 284.303 652.792 283.95 652.943H283.933Z" fill="#0E141B"/>
<path d="M214.725 652.272C211.485 635.398 210.796 631.671 194.326 619.196C167.176 598.628 163.298 586.389 171.961 561.791C173.875 556.368 175.84 550.76 176.26 544.481C177.233 529.739 170.316 520.69 164.524 511.959C158.362 502.641 153.963 493.826 155.642 478.195C159.688 440.401 180.793 421.982 194.242 410.699C206.649 400.289 212.492 394.732 210.662 362.831C210.175 354.352 210.158 346.058 211.384 337.512C215.531 308.466 239.692 301.632 264.188 298.979C263.852 298.106 263.55 297.166 263.164 296.209C243.587 298.274 211.569 302.186 206.884 335.061C205.625 343.892 206.381 353.916 206.884 362.529C208.597 392.533 205.843 396.797 192.428 408.046C178.644 419.615 154.836 438.554 150.655 477.489C148.875 494.145 155.994 504.202 162.156 513.537C167.932 522.268 173.372 530.512 172.465 544.296C172.079 550.19 169.644 556.519 167.714 561.993C158.244 588.907 162.609 599.955 191.656 621.95C207.506 633.954 208.362 636.741 211.451 652.809C214.289 667.584 216.639 685.969 231.247 695.741C232.052 695.12 236.132 695.036 237.492 694.7C221.727 686.104 217.647 667.349 214.742 652.272H214.725Z" fill="#0E141B"/>
<path d="M183.748 371.697C182.052 367.08 183.63 347.402 195.484 333.668C195.954 333.114 195.45 328.547 194.896 329.118C180.826 343.809 176.36 366.173 178.61 372.251C179.433 374.467 190.934 383.886 193.184 385.968C193.637 385.028 194.376 383.315 194.695 382.392C191.622 379.554 184.285 373.174 183.748 371.697Z" fill="#0E141B"/>
<path d="M118.469 373.929C111.837 373.275 105.121 376.498 102.233 382.257C98.8415 389.04 99.1437 397.939 104.416 403.715C110.846 410.75 143.284 435.532 144.661 436.808C145.232 437.345 148.707 433.97 148.12 433.433C146.525 431.938 113.415 407.761 107.942 401.784C103.526 396.965 102.435 389.662 105.255 384.02C107.623 379.285 112.139 376.884 117.613 377.439C124.631 378.144 172.432 388.318 188.902 392.398C189.641 391.643 191.992 389.225 192.613 388.369C177.536 384.524 125.756 374.668 118.452 373.929H118.469Z" fill="#0E141B"/>
<path d="M193.99 645.304C190.178 648.342 154.97 668.658 151.881 669.481C146.894 670.807 142.797 667.265 140.632 663.504C138.063 659.038 137.089 652.439 141.034 648.494C141.034 648.494 162.257 626.297 168.352 621.109C167.781 620.27 165.346 618.44 164.473 618.07C159.184 623.729 138.079 646.009 138.079 646.009C133.059 651.012 134.621 659.659 137.71 665.048C142.008 672.503 147.381 674.803 153.375 673.208C157.371 672.151 191.538 652.439 195.635 650.273C196.34 649.904 194.611 644.833 193.99 645.337V645.304Z" fill="#0E141B"/>
<path d="M351.563 522.234V521.932C340.532 528.329 290.968 540.636 252.435 527.439C247.734 525.827 249.816 529.37 254.467 531.116C290.783 544.85 336.704 532.627 351.563 525.172V522.251V522.234Z" fill="#0E141B"/>
<path d="M327.654 547.284C306.969 553.48 284.034 547.67 265.649 532.559C264.726 531.804 260.411 531.804 260.998 532.324C280.542 549.887 305.961 557.224 328.645 550.441C338.215 547.57 346.845 540.753 351.277 533.903C350.774 532.946 350.958 530.948 350.32 529.789C347.735 536.874 335.209 545.034 327.654 547.301V547.284Z" fill="#0E141B"/>
<path d="M366.59 455.361C353.779 467.114 316.909 485.7 301.344 488.924C293.453 490.569 295.585 494.699 303.544 492.836C320.099 488.957 355.005 470.052 367.026 459.004C370.737 455.596 370.3 451.952 366.59 455.361Z" fill="#0E141B"/>
<path d="M231.851 435.481C232.388 450.894 248.137 478.195 257.976 488.369C261.787 492.315 264.239 489.343 260.377 485.23C250.773 474.937 235.494 449.098 234.336 433.231C233.966 428.228 231.666 430.495 231.834 435.498L231.851 435.481Z" fill="#0E141B"/>
<path d="M232.355 434.625C224.111 442.063 216.018 472.419 227.049 488.806C232.539 496.966 240.615 501.264 248.674 499.534C254.299 498.326 258.58 493.137 259.924 488.369C260.041 487.949 257.388 486.741 257.254 487.563C256.566 491.643 252.872 495.068 248.053 496.126C241.253 497.604 234.336 494.246 229.551 487.143C221.055 474.534 225.185 444.984 234.185 436.858C234.806 436.304 232.976 434.071 232.371 434.625H232.355Z" fill="#0E141B"/>
<path d="M364.692 459.474C372.248 483.081 357.96 508.769 334.001 508.954C321.442 509.055 309.185 501.768 303.225 490.586C302.855 489.898 300.337 491.224 300.706 491.929C306.986 503.732 319.931 512.127 333.295 512.497C365.7 513.403 374.884 475.509 366.724 456.973C366.405 456.251 364.457 458.719 364.692 459.474Z" fill="#0E141B"/>
<path d="M305.273 534.475C305.391 537.195 307.439 550.526 307.54 551.08C307.674 551.852 310.78 551.936 310.629 551.164C309.974 547.47 308.111 537.833 307.657 534.357C307.557 533.568 305.24 533.702 305.273 534.491V534.475Z" fill="#0E141B"/>
<path d="M331.449 530.932C331.768 532.192 333.48 541.073 334.521 546.295C334.672 547.067 337.459 546.597 337.342 545.825C336.653 541.678 334.286 533.518 333.967 529.807C333.9 529.018 331.264 530.16 331.465 530.932H331.449Z" fill="#0E141B"/>
<path d="M247.717 480.343C247.432 483.013 247.751 485.968 249.145 486.119C250.538 486.27 251.495 483.449 251.781 480.78C252.066 478.11 251.747 475.155 250.353 475.004C248.96 474.853 248.02 477.673 247.717 480.343Z" fill="#0E141B"/>
<path d="M345.77 476.079C346.14 479.051 347.298 482.14 349.028 481.939C350.74 481.737 351.126 478.446 350.774 475.474C350.404 472.503 349.246 469.413 347.516 469.615C345.804 469.833 345.418 473.107 345.77 476.079Z" fill="#0E141B"/>
</g>
<defs>
<clipPath id="clip0_42_66702">
<rect width="620" height="607.71" fill="white" transform="translate(100 136)"/>
</clipPath>
</defs>
</svg>
