<svg width="800" height="800" viewBox="0 0 800 800" fill="none" xmlns="http://www.w3.org/2000/svg">
<g clip-path="url(#clip0_42_66855)">
<path d="M686.996 321.636C685.676 319.414 610.277 320.855 594.458 316.531C594.458 316.531 683.367 202.269 680.866 199.022C678.661 196.157 560.231 228.716 513.867 242.417C460.348 211.542 392.294 219.791 357.721 237.468L358.016 237.208C312.224 204.457 230.835 151.598 226.684 154.377C222.916 156.895 258.914 276.748 267.266 306.703C251.169 306.129 192.996 288 191.034 291.664C189.298 294.929 245.005 373.141 259.47 393.354C248.946 398.442 213.73 400.005 212.706 403.599C211.768 406.864 280.412 453.697 333.236 500.67C375.12 551.636 453.107 584.977 497.266 605.971C511.991 612.969 528.575 624.1 531.319 626.74C528.87 623.058 526.37 614.775 522.688 606.683C530.989 610.364 554.952 626.392 572.804 638.374C587.303 648.116 587.512 645.737 578.517 633.616C566.379 617.241 552.139 596.194 549.517 591.992C550.802 592.843 564.677 599.754 573.776 603.887C577.753 605.693 576.641 601.769 574.922 599.216C567.698 588.415 562.298 574.384 561.308 572.404L607.898 451.804L607.238 448.8C622.051 440.83 662.199 414.105 661.869 411.761C661.504 409.156 610.694 402.766 600.9 399.953C618.89 382.101 688.298 323.824 686.996 321.636Z" fill="#7B59A3"/>
<path d="M345.704 514.926C385.209 560.075 463.908 589.786 501.208 607.499C517.427 615.191 528.627 626.756 531.266 625.732C532.343 625.315 527.186 616.841 523.331 609.339C522.653 608.002 524.147 606.804 525.953 607.829C538.247 614.792 563.322 632.053 578.708 642.315C585.237 646.674 586.053 643.635 582.285 638.634C572.369 625.454 558.703 606.37 552.035 596.732C550.299 594.232 551.375 592.877 554.709 594.388C559.901 596.75 567.282 600.014 572.838 602.532C576.554 604.217 577.301 602.584 575.86 600.535C568.184 589.595 562.367 574.453 561.325 572.387C561.325 572.387 543.422 546.513 524.043 541.737C469.708 561.117 407.819 553.98 345.704 514.926Z" fill="#6B4C8E"/>
<path d="M266.416 473.683C260.893 473.683 251.204 474.916 246.185 475.524C230.852 477.364 212.619 468.734 209.406 470.627C198.987 476.756 178.132 486.568 175.076 493.305C172.019 500.043 165.073 524.562 165.073 524.562C169.866 525.934 180.615 522.965 188.481 515.428C197.685 514.23 205.482 511.764 213.695 514.768C232.085 521.506 246.81 528.869 262.126 528.869C268.534 528.869 283.207 514.803 283.589 511.087C285.43 493.305 271.938 473.683 266.416 473.683Z" fill="#7B59A3"/>
<path d="M403.651 387.032C415.876 389.533 450.467 388.474 474.761 381.753C489.087 377.777 492.872 371.734 495.79 358.571C499.089 343.637 499.436 319.187 496.207 298.158C457.17 320.802 405.006 370.622 403.651 387.032Z" fill="white"/>
<path d="M301.198 299.686C296.005 316.373 296.613 350.391 302.587 364.092C308.213 376.995 334.035 384.149 350.705 383.576C349.785 376.804 314.048 309.288 301.198 299.686Z" fill="white"/>
<path d="M323.946 414.85C322.695 418.584 321.393 426.919 320.698 427.075C320.004 427.214 311.408 416.482 309.758 409.745C309.758 409.745 298.159 404.622 294.911 402.538C306.164 424.279 319.448 445.795 341.068 459.2L343.221 457.169C343.533 455.936 347.006 448.833 347.006 448.833C347.006 448.833 357.304 463.767 357.929 465.018C358.554 462.222 363.625 451.577 363.625 451.577L375.659 470.505L384.567 453.852L397.4 473.335L407.558 455.45C407.558 455.45 419.905 471.269 420.842 472.207C423.326 466.928 427.893 456.214 427.893 456.214L440.638 467.813L440.708 467.622C469.534 458.245 495.547 437.338 513.311 399.777C505.879 404.24 476.428 413.044 476.428 413.044C474.917 421.987 468.961 434.733 467.988 434.629C467.033 434.542 460.469 421.987 457.743 416.778C452.672 418.15 415.963 422.821 415.963 422.821C415.199 429.871 408.617 446.75 407.02 446.75C405.422 446.75 396.445 426.884 394.187 423.515C390.558 423.481 368.643 423.255 368.643 423.255C368.018 425.113 363.59 442.53 362.531 442.634C361.471 442.756 352.008 429.645 349.316 419.99C347.927 420.146 323.963 414.885 323.963 414.885L323.946 414.85Z" fill="#EE869A"/>
<path d="M240.055 476.741C229.011 468.163 194.073 426.313 192.84 424.472C191.607 422.631 154.828 412.977 150.539 412.977C146.25 412.977 113.76 441.993 111.919 449.148C109.696 457.709 111.033 469.777 114.177 481.794L113.135 481.464C101.882 481.586 92.8871 481.516 91.6889 482.871C90.5949 484.104 72.379 507.703 73.2993 515.517C74.2197 523.331 86.6357 552.296 114.68 567.942C105.946 543.11 108.238 523.331 108.238 523.331C128.016 518.278 146.857 547.243 168.008 548.163C179.538 548.667 186.38 542.641 192.145 542.485C197.911 542.328 205.499 546.461 212.15 544.933C221.336 542.832 233.648 525.953 243.876 525.623L240.038 476.723L240.055 476.741ZM162.799 472.191C162.069 473.893 152.553 478.286 147.743 478.634C149.323 477.175 161.27 462.623 162.677 464.308C163.285 465.037 163.528 470.489 162.799 472.191Z" fill="#7B59A3"/>
<path d="M497.491 308.508C497.179 305.504 496.658 301.076 496.206 298.158C460.591 318.823 405.648 370.345 403.859 387.032C404.884 387.241 406.846 387.501 408.166 387.657C425.305 356.487 472.086 322.174 497.509 308.508H497.491Z" fill="#DCDDDD"/>
<path d="M350.705 383.576C349.785 376.804 314.048 309.288 301.198 299.686C300.19 302.915 298.627 310.747 298.054 314.984C314.985 331.776 339.036 364.7 346.746 383.559C348.1 383.611 349.437 383.611 350.705 383.559V383.576Z" fill="#DCDDDD"/>
<path d="M668.572 566.153C659.889 560.179 639.173 544.481 639.242 532.204C639.138 531.666 649.088 519.059 651.432 514.145C662.39 491.31 636.724 456.51 628.754 452.221C621.512 448.314 595.031 449.772 591.349 453.454C587.668 457.135 579.854 475.091 573.568 482.262C564.989 492.074 522.688 508.015 517.774 508.015C512.86 508.015 504.056 504.576 499.384 509.248C492.647 515.985 472.243 528.627 469.343 539.289C466.321 550.385 480.717 587.216 492.404 606.752C496.259 613.177 498.724 614.375 498.395 606.926C497.509 586.088 505.879 576.172 512.86 568.115C514.943 565.701 523.452 565.076 529.738 560.648C537.605 572.595 554.171 572.144 562.089 572.144C562.628 581.104 583.726 586.001 601.959 581.66C616.876 578.117 626.444 585.272 631.792 591.419C633.286 604.46 626.982 619.185 620.384 626.757C615.782 632.036 617.883 631.74 623.926 631.046C647.855 628.267 667.634 616.286 669.787 609.808C672.236 602.446 670.378 572.925 668.537 566.17L668.572 566.153Z" fill="#7B59A3"/>
<path d="M593.086 500.287C582.424 524.719 555.803 545.557 537.153 544.099C536.945 553.597 534.601 558.407 530.885 560.404C535.799 570.754 553.824 573.741 559.38 572.508C573.602 587.997 597.236 582.197 606.492 581.572C612.917 580.235 625.263 581.138 633.025 591.192C633.894 590.724 632.105 614.948 615.66 632.313C623.058 630.246 644.452 633.233 668.676 612.656C652.526 616.788 639.416 612.517 638.582 604.876C636.203 582.857 609.218 557.261 600.136 558.268C605.936 536.354 604.842 514.595 593.086 500.252V500.287Z" fill="#6B4C8E"/>
<path d="M601.508 513.051C601.508 513.051 614.757 553.72 649.036 521.733C649.036 521.733 617.97 558.738 599.685 560.11C599.685 560.11 608.367 535.886 601.508 513.051Z" fill="#6B4C8E"/>
<path d="M468.075 546.877C470.819 562.419 485.718 604.911 498.238 616.337C497.144 609.634 501.156 574.609 513.78 566.986C513.78 566.986 484.537 586.174 468.093 546.877H468.075Z" fill="#6B4C8E"/>
<path d="M173.357 495.686C173.357 495.686 169.015 513.919 191.885 503.5C214.755 493.081 277.842 526.37 283.051 497.717C283.051 497.717 287.097 509.3 281.315 515.377C275.532 521.455 269.159 528.106 263.655 528.974C258.15 529.843 231.529 523.765 221.979 517.982C212.428 512.2 203.954 511.904 187.058 515.534C187.058 515.534 176.413 529.165 165.178 525.032L173.339 495.72L173.357 495.686Z" fill="#6B4C8E"/>
<path d="M208.521 513.241C202.53 513.241 189.332 514.891 187.058 515.516C178.809 524.181 166.654 524.65 165.178 525.015C169.71 511.609 171.985 496.328 175.701 491.795C178.896 487.888 190.305 480.491 196.469 477.712C196.886 477.66 197.164 477.521 197.32 477.348C197.963 477.087 198.553 476.861 199.022 476.74C198.466 475.472 197.511 474.43 196.348 473.614C192.493 466.06 179.347 450.189 163.493 450.866C159.708 450.293 152.432 457.413 143.419 464.393C135.397 470.593 115.844 474.222 109.679 449.98C112.11 482.974 119.751 501.867 125.985 512.078C125.742 512.269 125.499 512.46 125.273 512.685C121.869 511.817 113.447 509.838 110.252 510.758C107.404 511.574 88.3375 532.464 71.4761 513.936C71.4761 513.936 81.8951 551.271 114.316 567.194C114.316 567.194 104.209 534.253 108.255 523.365C108.255 523.365 114.663 521.507 122.72 524.858C122.72 524.91 122.72 524.98 122.703 525.015C123.137 525.119 123.606 525.292 124.092 525.483C124.318 525.588 124.544 525.692 124.769 525.796V525.744C135.292 530.346 155.627 550.038 169.97 549.36C177.976 548.978 188.481 541.511 193.847 542.553C199.213 543.595 203.381 546.061 212.897 545.036C218.679 544.411 237.659 527.289 239.934 525.64C229.411 520.066 214.546 513.259 208.573 513.259L208.521 513.241ZM148.472 478.563C138.366 486.412 134.65 520.448 134.858 522.722C133.851 522.149 132.792 521.108 131.785 519.875C133.66 521.906 134.858 522.722 134.858 522.722C133.695 517.93 139.495 492.195 142.968 484.676C146.441 477.157 159.899 464.359 162.278 463.543C165.108 465.383 167.921 467.016 170.648 468.492C166.984 467.016 163.979 465.505 163.337 464.932C165.612 475.038 151.789 478.338 148.472 478.546V478.563Z" fill="#6B4C8E"/>
<path d="M288.4 397.712C288.4 397.712 374.495 434.596 508.501 398.442C514.492 396.827 521.82 395.837 520.431 396.41C520.431 396.41 496.12 407.906 476.376 412.247L475.508 418.533L460.747 422.874L457.726 416.71L416.032 422.006L414.296 428.952L397.365 429.386L394.17 423.447L368.626 423.187L366.976 428.952L351.348 427.216L349.177 420.704L324.293 414.921L323.286 420.426L310.992 414.209L309.55 408.704C309.55 408.704 289.876 401.758 288.417 397.712H288.4Z" fill="#6B4C8E"/>
<path d="M323.946 414.852C322.696 418.585 321.393 426.921 320.699 427.077C320.004 427.216 311.408 416.484 309.759 409.747C309.759 409.747 298.159 404.624 294.912 402.54C301.198 414.696 312.277 435.065 327.471 448.957C332.941 443.383 343.291 439.18 356.193 436.437C358.051 436.037 360.395 443.904 362.357 443.574C363.903 443.313 365.031 434.839 366.612 434.613C376.319 433.241 386.963 432.564 397.73 432.634C400.908 436.124 403.877 446.595 407.003 446.734C409.208 446.838 411.5 433.103 413.706 433.276C438.485 435.117 461.893 440.969 474.205 451.145C491.136 438.989 504.75 417.821 513.294 399.762C505.862 404.225 476.411 413.029 476.411 413.029C474.9 421.972 468.944 434.717 467.971 434.613C467.016 434.526 460.452 421.972 457.726 416.762C452.655 418.134 415.946 422.805 415.946 422.805C415.182 429.855 408.6 446.734 407.003 446.734C405.405 446.734 396.427 426.868 394.17 423.5C390.541 423.465 368.626 423.239 368.626 423.239C368.001 425.097 363.573 442.514 362.514 442.619C361.454 442.74 351.99 429.63 349.299 419.975C347.91 420.131 323.946 414.869 323.946 414.869V414.852Z" fill="#CF7487"/>
<path d="M672.01 211.229C667.148 205.759 605.953 252.714 587.13 324.918C620.557 281.192 676.125 215.865 672.01 211.229Z" fill="#6B4C8E"/>
<path d="M676.125 332.108C675.205 326.586 605.641 355.55 599.476 402.071C617.987 383.56 676.629 335.199 676.125 332.108Z" fill="#6B4C8E"/>
<path d="M656.885 415.459C656.885 415.459 619.828 417.925 596.976 450.05L607.672 449.79C607.672 449.79 659.264 418.22 656.902 415.459H656.885Z" fill="#6B4C8E"/>
<path d="M228.126 169.223C231.043 165.056 294.043 270.6 269.576 313.544C269.576 313.544 224.635 174.207 228.126 169.223Z" fill="#6B4C8E"/>
<path d="M195.167 301.058C197.286 299.252 275.55 355.306 262.092 396.948C262.092 396.948 191.677 304.062 195.167 301.058Z" fill="#6B4C8E"/>
<path d="M217.846 410.301C264.245 423.151 295.589 442.166 331.934 499.036L217.846 410.301Z" fill="#6B4C8E"/>
<path d="M251.69 162.556C222.604 144.757 218.644 142.725 227.032 177.403C235.072 210.639 263.429 302.031 266.867 311.304C270.34 320.664 272.528 317.295 270.548 309.985C269.124 304.723 240.437 210.431 231.633 172.28C227.501 154.411 228.247 156.096 240.976 163.129C265.044 176.43 317.816 210.327 356.297 237.798C356.592 238.007 362.322 235.402 361.663 234.933C337.751 218.037 273.24 175.753 251.707 162.573L251.69 162.556Z" fill="#0E141B"/>
<path d="M201.019 289.232C183.255 285.273 183.567 289.058 191.381 301.596C198.362 312.796 213.886 336.187 258.497 395.905C264.262 403.98 267.075 401.427 261.015 392.953C229.515 347.249 206.819 315.992 197.338 300.745C192.857 293.521 193.274 292.427 203.415 294.841C221.544 299.165 257.108 308.438 268.881 309.115C269.698 309.167 268.812 305.208 267.996 305.173C260.477 304.93 206.923 290.552 201.019 289.232Z" fill="#0E141B"/>
<path d="M258.011 391.46C252.992 393.978 222.482 397.92 218.888 398.424C201.679 400.82 205.291 403.79 216.752 412.507C227.9 420.981 306.702 479.24 336.709 505.93C337.317 506.469 332.819 498.272 332.507 497.977C302.222 470.089 227.119 414.4 221.544 409.919C214.234 404.067 213.921 403.772 222.777 402.487C233.926 400.855 253.166 398.215 260.32 394.621C260.841 394.36 258.74 391.113 258.011 391.478V391.46Z" fill="#0E141B"/>
<path d="M341.78 247.035C335.389 253.443 337.751 255.405 344.402 249.397C371.891 224.512 449.668 207.217 512.877 243.84C513.589 244.256 517.6 241.704 516.888 241.287C448.314 201.556 370.345 218.452 341.78 247.035Z" fill="#0E141B"/>
<path d="M668.954 196.417C638.721 203.154 532.378 233.178 502.545 245.525C494.904 248.685 495.512 252.054 503.309 249.606C533.125 240.281 629.865 211.003 666.366 202.772C678.539 200.029 679.008 199.299 671.749 209.892C654.037 235.766 604.877 296.561 587.234 321.167C581.955 328.547 585.011 330.11 590.811 322.938C605.38 304.983 664.717 230.365 678.331 209.197C689.288 192.18 687.17 192.353 668.954 196.417Z" fill="#0E141B"/>
<path d="M594.058 317.954C607.968 322.955 655.635 321.41 673.416 321.966C684.044 322.296 685.555 322.243 674.632 331.829C663.553 341.553 608.524 388.283 597.427 401.063C592.426 406.828 592.6 412.42 598.122 405.179C602.654 399.24 673.972 339.105 679.824 333.722C697.675 317.294 689.913 317.555 672.896 317.103C654.645 316.617 608.767 319.083 594.823 315.106C594.041 314.881 593.399 317.729 594.041 317.954H594.058Z" fill="#0E141B"/>
<path d="M648.966 425.843C671.072 410.944 667.842 408.565 645.615 404.987C631.185 402.66 605.363 399.101 601.959 398.232C601.352 399.014 600.709 400.368 599.945 401.219C607.586 403.112 637.523 407.905 652.04 410.596C658.951 411.881 658.812 413.288 652.752 417.716C637.905 428.552 606.526 448.66 602.098 449.546C601.716 449.615 606.613 450.293 608.072 450.536C620.141 444.58 638.513 432.876 648.966 425.843Z" fill="#0E141B"/>
<path d="M469.603 590.168C424.732 569.347 368.886 543.456 322.765 485.04C318.476 479.622 317.069 482.661 321.098 488.27C365.57 550.228 423.36 575.703 468.371 594.335C475.646 597.34 482.801 600.309 489.313 603.452C489.035 602.202 488.271 599.927 487.837 598.746C481.985 595.933 475.924 593.12 469.621 590.185L469.603 590.168Z" fill="#0E141B"/>
<path d="M579.541 631.185C570.095 618.682 558.877 604.06 552.695 595.083C554.275 595.795 564.694 601.803 570.737 604.529C580.93 609.114 582.528 609.148 573.932 594.874C569.174 586.973 565.441 578.239 563.67 574.106L558.686 572.699C560.422 577.527 566.465 588.241 571.71 596.802C574.523 601.577 574.384 602.081 569.713 600.084C563.687 597.514 554.935 592.356 552.886 591.419C547.346 588.866 546.634 591.019 550.663 596.906C556.532 605.467 570.025 624.794 580.409 638.599C583.726 643.01 583.24 643.548 578.464 640.353C575.2 638.165 571.571 635.734 567.872 633.234C552.261 622.728 534.184 610.538 525.275 605.884C520.83 603.557 519.667 603.574 522.428 609.704C523.417 611.909 524.72 614.653 526.248 618.248C527.776 621.842 527.55 622.502 523.695 619.498C515.829 613.403 507.129 608.35 498.447 603.939C498.099 604.946 497.804 606.874 497.613 607.759C506.035 612.031 513.849 617.136 521.004 622.155C533.836 631.167 534.548 629.24 528.523 616.893C526.647 613.038 524.564 608.732 524.564 608.732C531.787 612.743 558.095 631.81 572.178 641.239C594.336 656.069 594.284 650.72 579.541 631.185Z" fill="#0E141B"/>
<path d="M590.464 451.648C588.64 453.471 585.133 459.705 582.181 465.123C578.812 471.305 574.992 477.817 571.675 481.585C563.131 491.344 521.872 506.538 517.791 506.538C516.558 506.538 514.961 506.278 513.259 506.017C508.362 505.236 500.183 502.77 496.797 507.163C493.185 511.817 469.169 527.706 466.46 540.053C463.595 553.129 479.918 593.78 491.952 610.885C499.749 621.964 499.575 620.87 500.044 609.304C500.93 587.129 506.973 577.179 514.006 569.052C514.683 568.271 518.555 567.594 520.986 566.83C530.068 563.964 538.56 558.651 538.16 546.287C537.883 537.153 536.372 539.931 535.33 546.235C533.889 554.969 528.749 560.735 518.521 563.964C512.547 565.84 510.758 566.882 508.327 569.695C501.885 577.144 496.884 584.299 496.884 603.973C496.884 612.013 495.095 608.558 492.352 603.8C481.95 585.775 470.402 555.907 470.402 543.04C470.402 541.737 470.524 540.591 470.767 539.671C472.694 532.586 483.669 523.938 491.674 517.617C495.286 514.769 498.395 512.321 500.426 510.289C503.274 507.441 508.327 508.24 512.79 508.935C514.596 509.23 516.315 509.49 517.774 509.49C527.846 509.49 563.479 496.033 574.679 483.235C578.204 479.206 582.111 472.069 585.549 465.748C588.276 460.747 590.863 456.024 592.391 454.495C595.222 451.665 620.818 449.633 628.042 453.523C634.814 457.17 652.613 481.203 652.613 501.589C652.613 505.792 651.849 509.838 650.095 513.502C643.08 528.123 618.56 553.215 602.081 556.984C610.295 530.919 605.78 513.849 596.576 502.579C591.714 496.606 587.199 496.328 592.409 502.006C601.143 511.54 605.398 533.767 599.598 553.007C596.42 563.582 595.691 564.208 607.013 559.936C624.308 553.407 647.022 529.339 653.898 515.03C665.151 491.604 639.485 454.166 630.525 449.338C623.197 445.396 594.84 447.254 590.464 451.648Z" fill="#0E141B"/>
<path d="M529.356 561.429C538.039 578.082 561.985 576.762 576.728 570.441C583.744 567.437 584.924 564.346 577.909 567.35C566.083 572.421 539.011 573.515 531.979 560.057C531.597 559.328 528.992 560.7 529.356 561.429Z" fill="#0E141B"/>
<path d="M561.308 575.044C567.316 584.056 589.3 587.234 600.206 583.639C615.192 578.708 632.018 587.946 636.551 599.893C638.426 604.807 640.023 603.557 638.113 597.115C634.415 584.594 620.418 576.068 599.632 580.739C590.047 582.893 568.688 580.826 563.739 573.411C563.288 572.734 560.822 574.366 561.273 575.044H561.308Z" fill="#0E141B"/>
<path d="M638.339 532.725C639.086 547.364 651.311 555.682 659.49 561.256C663.188 563.774 666.696 566.153 667.165 567.872C668.328 572.144 669.527 585.793 669.527 596.594C669.527 602.151 669.214 606.943 668.415 609.322C666.627 614.705 647.734 626.288 624.725 629.518C619.22 630.282 619.081 630.16 622.589 625.888C630.039 616.789 635.734 601.334 633.234 591.054C633.043 590.256 630.542 588.832 630.699 589.63C633.581 605.502 623.839 618.838 618.074 626.062C611.753 633.963 611.684 635.213 621.321 634.311C649.435 631.671 669.301 617.241 671.089 611.892C673.677 604.148 673.26 573.932 671.333 566.865C670.586 564.086 665.845 561.03 661.139 557.818C652.735 552.105 641.256 544.03 641.256 530.086C641.256 529.27 638.304 532.256 638.322 532.708L638.339 532.725Z" fill="#0E141B"/>
<path d="M208.017 467.501L199.491 473.648C188.308 479.726 176.291 487.054 173.739 492.697C171.221 498.237 165.369 515.81 163.181 522.201C162 525.656 159.794 526.941 167.018 527.341C174.364 527.74 180.355 524.996 189.159 516.817C190.965 516.574 192.753 516.314 194.472 516.019C201.262 514.907 207.114 513.935 213.209 516.157L224.444 520.447C238.041 525.76 250.145 531.091 262.491 531.091C269.593 531.091 285.257 516.279 285.708 511.764C287.184 497.542 279.96 482.383 274.403 476.235C272.615 474.256 269.333 471.703 266.919 471.703C261.779 471.703 246.012 474.047 246.012 474.047C237.19 475.107 227.223 471.564 219.947 469.706C213.556 468.074 209.771 466.476 208 467.501H208.017ZM176.413 493.913C178.566 489.172 191.85 481.948 201.54 476.687L210.136 471.894C211.056 471.46 215.571 472.623 219.2 473.561C226.702 475.489 236.982 478.111 246.342 476.999L247.696 476.843C252.836 476.218 261.432 475.176 266.398 475.176C267.145 475.176 268.795 476.062 271.035 478.528C277.303 485.474 283.312 499.209 282.096 510.948C281.818 513.587 267.839 527.41 262.109 527.41C250.318 527.41 238.805 522.912 225.486 517.72L214.182 512.424C207.357 509.923 200.845 511.99 193.951 513.119C192.701 513.327 187.891 513.935 187.787 514.039C180.615 514.925 174.85 517.477 180.58 517.477C181.761 517.477 182.82 517.338 183.949 517.269C177.819 521.714 170.96 523.659 166.949 523.347C168.546 517.807 173.86 499.522 176.395 493.948L176.413 493.913Z" fill="#0E141B"/>
<path d="M109.175 448.486C103.949 468.647 118.865 507.77 130.812 521.61C134.928 526.386 135.744 526.698 136.317 520.134C138.053 500.043 144.739 483.911 146.788 481.341C148.299 479.448 153.682 473.857 161.913 465.626C167.609 468.786 179.33 475.524 184.54 473.787C189.801 472.033 189.801 469.637 184.54 471.391C181.119 472.537 172.905 466.598 167.695 463.941C165.421 462.778 163.181 461.701 162.017 461.493C159.777 461.093 144.913 477.972 142.829 480.577C140.589 483.373 136.178 496.396 134.025 513.918C133.174 520.916 133.782 521.68 129.215 514.439C120.758 501.05 112.249 476.513 112.249 458.94C112.249 455.484 112.579 452.307 113.291 449.546C114.958 443.086 146.267 415.024 150.521 414.486C154.654 414.486 189.141 423.724 191.711 425.512C193.708 428.239 223.003 463.264 236.131 475.385C237.242 476.409 242.903 476.218 242.226 475.767C226.25 465.035 200.654 428.586 194.993 423.689C189.35 418.792 157.797 409.814 150.469 410.544C143.141 411.273 110.895 441.54 109.089 448.504L109.175 448.486Z" fill="#0E141B"/>
<path d="M109.783 480.022C96.4122 480.144 93.3559 479.102 90.0913 480.908C86.8441 482.714 69.0102 506.868 70.0348 515.673C71.1461 525.136 84.8297 553.632 112.145 568.862C115.948 570.98 116.868 569.73 116.069 567.455C108.29 545.349 109.662 525.189 110.617 517.548C111.398 511.331 108.776 512.634 107.265 518.711C104.07 531.544 105.147 545.558 112.18 564.694C82.7286 546.409 74.7233 517.704 74.7233 514.839C74.7233 507.615 90.3692 486.604 92.7134 483.912C94.0332 483.113 102.403 483.026 109.783 482.957C111.12 482.957 112.475 482.94 113.864 482.922C113.378 481.95 112.892 480.96 112.492 479.987C111.554 479.987 110.651 480.005 109.749 480.022H109.783Z" fill="#0E141B"/>
<path d="M161.6 464.584C162.642 467.171 162.573 469.307 161.357 471.113C159.291 474.204 154.307 476.201 147.934 477.504C146.892 478.615 145.92 479.761 145.138 480.994C153.838 479.57 160.906 477.104 163.823 472.746C164.795 471.287 164.813 468.161 164.813 466.407C164.813 465.001 161.305 463.82 161.6 464.584Z" fill="#0E141B"/>
<path d="M107.873 521.906C107.092 522.114 107.821 524.962 108.602 524.771C118.605 522.201 128.555 530.05 139.078 537.291C148.264 543.629 156.79 550.228 166.966 550.68C174.277 550.992 180.754 547.78 185.165 546.009C191.156 543.63 192.892 543.525 199.699 545.227C203.711 546.217 208.937 548.092 213.209 547.207C223.038 545.14 235.558 527.393 243.945 527.115C244.761 527.081 241.427 524.441 240.194 524.841C235.193 526.456 230.071 530.693 225.087 534.825C220.225 538.854 215.64 542.64 211.837 543.508C208.278 544.324 204.284 543.334 200.429 542.362C193.309 540.591 191.329 540.382 184.088 543.265C179.712 545.001 174.763 546.964 168.095 546.686C158.77 546.286 149.619 539.965 140.78 533.87C130.17 526.56 119.212 519.006 107.89 521.889L107.873 521.906Z" fill="#0E141B"/>
<path d="M497.335 295.292C456.996 317.207 417.317 355.011 402.366 383.333C397.695 392.189 400.56 394.169 405.665 385.07C419.61 360.255 462.935 317.624 502.371 296.213C509.682 292.254 504.646 291.316 497.335 295.292Z" fill="#0E141B"/>
<path d="M494.748 298.383C497.839 318.561 497.683 343.185 494.349 358.258C491.605 370.691 488.219 376.508 474.361 380.346C449.998 387.101 416.432 388.021 404.919 385.677C404.12 385.521 402.262 388.091 403.061 388.247C415.129 390.713 450.571 391.442 475.733 384.462C490.962 380.242 495.842 372.566 498.794 359.178C502.25 343.55 501.329 318.058 498.134 297.22C498.013 296.421 494.626 297.567 494.748 298.383Z" fill="#0E141B"/>
<path d="M296.37 296.56C309.845 312.397 340.026 360.463 348.674 380.954C352.32 389.567 355.255 388.247 351.834 379.53C342.961 357.025 318.076 315.644 300.746 296.351C295.936 290.986 291.439 290.743 296.37 296.542V296.56Z" fill="#0E141B"/>
<path d="M299.791 299.252C294.425 316.513 293.488 351.26 299.548 365.187C305.643 379.201 334.868 385.365 351.226 384.792C352.042 384.757 351.469 382.066 350.653 382.1C334.764 382.656 309.324 375.849 303.941 363.503C298.193 350.323 297.499 316.565 302.604 300.138C302.847 299.356 300.034 298.488 299.791 299.269V299.252Z" fill="#0E141B"/>
<path d="M518.885 395.594C506.799 401.081 493.255 405.371 478.876 409.312C474.83 410.424 475.108 411.136 474.5 414.331C472.972 422.458 469.534 429.439 467.936 432.234C466.026 429.3 461.963 421.642 459.966 417.821C458.455 414.956 459.202 414.053 455.121 414.869C442.931 417.266 430.393 419.054 417.804 420.131C414.244 420.443 414.817 421.225 413.983 424.49C412.681 429.647 410.389 436.367 408.6 440.761C406.655 445.553 406.898 444.685 404.867 440.899C403.287 437.982 397.869 427.251 396.844 425.323C395.056 422.006 395.003 421.294 391.739 421.312C384.498 421.346 377.326 421.138 370.276 420.634C367.671 420.461 367.636 421.937 366.907 424.229C366.56 425.323 364.962 431.071 363.608 435.534C361.888 441.264 361.75 439.788 359.944 437.166C357.391 433.45 353.935 427.771 351.678 422.562C350.358 419.488 350.497 418.481 347.111 417.908C339.852 416.693 332.837 415.026 326.047 413.202C323.199 412.438 322.904 413.932 322.366 415.876C322.14 416.71 321.341 419.749 320.751 421.989C320.004 424.872 320.195 424.75 318.476 422.631C316.305 419.923 313.996 415.876 312.242 412.265C310.158 407.993 310.731 408.062 308.786 407.177C303.195 404.659 297.256 401.932 292.272 398.876C283.242 393.337 283.381 396.966 292.411 402.505C297.464 405.596 302.847 408.375 308.526 410.788C310.297 416.449 319.761 432.269 321.48 430.064C322.939 428.188 325.179 416.71 325.179 416.71C332.594 418.915 340.321 420.687 348.309 422.024C351.747 430.515 360.03 445.71 362.809 445.397C364.146 445.241 364.493 443.834 369.373 426.122L369.807 424.594C377.638 425.184 385.609 425.427 393.632 425.358C394.951 427.91 404.328 449.565 406.985 449.495C410.146 449.426 415.008 432.46 417.022 424.246C430.428 423.118 443.816 421.173 456.806 418.499C464.429 432.807 466.808 437.409 467.867 437.513C470.715 437.774 476.115 423.013 478.026 413.411C492.456 409.434 506.574 405.527 518.364 398.998C525.033 395.316 524.199 393.18 518.92 395.577L518.885 395.594Z" fill="#0E141B"/>
<path d="M511.106 400.455C493.324 438.033 468.909 455.919 443.868 464.897C441.802 465.643 440.708 465.834 439.492 464.636C437.131 462.309 432.321 457.603 430.671 456.231C427.389 453.47 427.424 453.002 425.635 457.082C424.559 459.513 422.753 463.907 421.468 466.946C420.478 469.29 420.686 469.776 419.037 467.606C416.744 464.601 413.462 460.104 410.649 456.509C407.419 452.359 407.246 452.463 404.78 456.787C403.165 459.635 400.56 464.497 398.772 467.762C397.556 470.002 397.487 470.835 395.854 468.248C393.493 464.549 389.481 458.124 387.311 454.825C384.532 450.605 384.307 450.518 382.119 454.929C380.781 457.603 378.559 462.361 376.979 465.695C375.607 468.595 375.746 468.647 374.183 465.973C371.977 462.222 368.435 456.093 366.421 452.793C363.451 447.914 363.225 448.139 361.454 452.498C360.812 454.061 359.909 456.544 359.058 458.888C357.738 462.57 357.929 462.535 355.863 459.27C353.657 455.797 350.983 451.543 349.386 449.164C346.746 445.239 346.555 445.882 345.114 448.938C344.367 450.866 343.586 453.279 342.822 455.52C341.849 458.315 341.537 457.603 339.366 456.11C319.917 442.774 307.015 422.37 297.03 403.303C296.787 402.817 293.001 401.636 293.366 402.365C303.646 422.248 315.611 445.101 338.22 459.566C341.641 461.754 343.221 461.684 344.801 458.159C345.409 456.822 345.93 455.259 346.416 453.905C347.076 452.064 347.389 451.994 348.917 454.269C350.879 457.204 352.598 459.809 354.369 462.431C358.068 467.866 358.502 467.658 360.36 463.716C361.228 461.875 362.131 459.427 363.034 457.082C363.816 455.051 364.181 455.259 365.292 456.978C367.15 459.861 369.894 463.924 372.377 467.901C376.006 473.683 375.693 473.666 378.107 468.856C379.375 466.321 381.407 462.57 383.108 459.6C384.966 456.37 384.914 456.996 386.668 459.67C389.117 463.403 392.867 469.082 394.83 472.086C397.4 475.993 397.712 475.767 399.727 472.207C401.29 469.464 404.276 464.202 406.221 460.764C408.079 457.499 408.062 458.489 409.416 460.208C412.125 463.664 415.841 468.387 418.029 471.113C421.346 475.246 421.277 474.083 423.256 470.349C424.819 467.397 426.451 463.386 427.545 460.712C428.396 458.628 428.657 458.888 430.254 460.451C432.251 462.413 435.308 465.418 437.6 467.484C439.961 469.603 441.142 470.176 443.278 469.429C469.621 460.347 497.509 440.134 514.631 400.386C514.961 399.639 511.453 399.743 511.106 400.49V400.455Z" fill="#0E141B"/>
<path d="M435.742 387.814C434.578 387.953 433.102 385.54 432.407 378.298C431.504 368.852 432.373 366.178 433.397 365.952C434.839 365.639 436.332 369.842 436.974 377.76C437.357 382.622 437.079 387.641 435.759 387.814H435.742Z" fill="#0E141B"/>
<path d="M332.993 362.773C331.882 362.773 331.482 366.715 332.055 373.435C332.594 379.617 333.67 382.361 334.955 382.222C335.441 382.17 336.258 379.999 335.754 372.88C335.355 367.132 334.365 362.756 332.993 362.756V362.773Z" fill="#0E141B"/>
</g>
<defs>
<clipPath id="clip0_42_66855">
<rect width="620" height="499.747" fill="white" transform="translate(70 150)"/>
</clipPath>
</defs>
</svg>
