<svg width="800" height="800" viewBox="0 0 800 800" fill="none" xmlns="http://www.w3.org/2000/svg">
<g clip-path="url(#clip0_42_66953)">
<path d="M748.796 405.657C740.22 408.876 720.429 418.059 716.814 428.694C713.647 438.061 709.848 452.153 716.075 459.805C717.817 461.943 725.707 466.508 729.111 466.693C737.45 467.141 748.691 460.333 752.966 456.137C756.343 452.812 759.642 446.004 761.7 440.252C761.7 440.252 764.946 427.823 765.474 419.933C765.764 415.684 761.911 411.884 757.293 408.428C754.813 406.58 751.119 404.76 748.77 405.63L748.796 405.657Z" fill="#0E141B"/>
<path d="M728.161 461.23C725.47 461.072 723.438 460.201 722.145 458.618C716.735 451.995 716.999 439.381 720.06 430.356C723.042 421.516 747.504 408.401 747.504 408.401C750.881 406.95 752.887 408.217 755.842 410.433C758.903 412.703 762.07 416.582 761.806 420.593C761.278 428.404 761.225 428.562 759.669 432.388C759.669 432.388 753.467 449.461 750.512 452.39C746.633 456.217 735.761 461.705 728.188 461.283L728.161 461.23Z" fill="#9FA0A0"/>
<path d="M718.133 447.351C718.582 451.705 719.796 455.742 722.144 458.618C723.437 460.202 725.469 461.099 728.161 461.231C735.734 461.653 746.633 456.164 750.485 452.338C753.467 449.409 759.642 432.336 759.642 432.336C761.199 428.51 761.278 428.351 761.779 420.54C761.779 420.382 761.779 420.25 761.779 420.092C757.61 444.263 738.954 444.686 718.107 447.351H718.133Z" fill="#7D7D7D"/>
<path d="M740.933 415.13C739.323 415.921 725.813 421.648 720.218 425.104L721.485 427.189C726.129 424.339 737.45 418.613 741.091 417.056C746.158 428.245 752.306 440.7 752.306 442.336C752.016 443.708 748.111 452.39 746.237 456.322L749.456 455.055C749.958 454.026 753.494 443.391 753.942 441.175C754.391 438.958 748.876 427.321 744.627 418.059C744.627 418.059 742.543 414.364 740.933 415.156V415.13Z" fill="#0E141B"/>
<path d="M700.744 448.405C698.448 451.545 687.787 461.441 676.229 472.366C661.425 486.404 645.777 500.733 643.64 504.348C642.004 507.145 645.777 532.267 651.504 538.521C652.717 539.84 659.209 542.663 664.513 546.305L668.075 548.786C672.297 551.873 687.787 559.341 692.959 555.119C699.899 549.445 727.95 514.428 732.409 507.013L733.016 503.715L735.127 470.413C735.127 470.413 729.507 448.062 724.704 446.294C721.96 445.291 703.383 444.816 700.744 448.405Z" fill="#0E141B"/>
<path d="M669.527 546.832L665.885 544.299C662.323 541.871 656.385 537.781 655.251 536.567C649.894 530.709 646.859 510.733 647.651 508.648C649.577 505.376 664.75 491.021 678.129 478.328C690.268 466.823 701.747 455.951 704.174 452.653C705.837 450.383 719.849 449.724 722.197 450.594C724.651 451.492 729.454 463.155 731.486 469.647C731.433 470.148 728.267 503.819 728.214 504.373C723.596 511.868 697.34 544.906 690.796 550.262C686.969 553.376 673.617 549.84 669.474 546.832H669.527Z" fill="#9FA0A0"/>
<path d="M659.499 539.867C661.61 541.371 664.064 543.06 665.911 544.326L669.553 546.86C673.669 549.868 687.048 553.404 690.875 550.29C697.419 544.933 723.675 511.922 728.293 504.401C728.346 503.873 731.064 474.82 731.512 470.281C711.853 497.461 693.434 535.856 659.525 539.893L659.499 539.867Z" fill="#7D7D7D"/>
<path d="M710.481 449.593C711.167 451.308 714.888 473.79 717.474 488.621L717.711 490.309L721.01 489.966C722.778 489.069 730.035 477.3 733.834 472.471L732.753 468.46C728.108 474.397 722.303 486.457 719.585 485.982C714.914 466.692 714.492 449.909 713.7 448.695L710.507 449.619L710.481 449.593Z" fill="#0E141B"/>
<path d="M707.816 502.633C698.58 514.692 685.966 529.232 685.702 529.575C685.069 529.813 657.045 537.307 657.045 537.307L658.971 542.453L687.233 531.581L709.399 504.559L719.664 489.175L717.738 487.697C717.738 487.697 713.647 495.007 707.816 502.607V502.633Z" fill="#0E141B"/>
<path d="M685.861 531.634C687.075 532.637 689.819 543.694 690.4 551.742L691.534 549.842C691.033 542.849 691.798 528.863 689.001 527.465L685.861 531.634Z" fill="#0E141B"/>
<path d="M630.762 531.554C624.588 535.987 617.753 550.738 617.516 558.127V558.522L629.839 592.748L634.272 592.563C644.616 592.167 658.813 591.613 667.521 587.919C673.775 585.254 680.214 576.229 682.061 569.79C683.328 565.41 677.707 545.434 675.781 541.317C673.617 536.699 668.577 532.741 664.117 529.232L658.444 524.482L657.942 524.271C653.483 522.846 638.943 525.643 630.789 531.527L630.762 531.554Z" fill="#0E141B"/>
<path d="M633.955 535.722C640.843 530.761 653.694 528.228 657.098 529.046C657.995 529.785 662.217 533.321 662.217 533.321C666.307 536.54 670.925 540.182 672.667 543.902C674.699 548.257 678.05 563.456 678.05 567.81C678.05 568.206 678.05 568.496 677.971 568.681C676.467 573.959 670.714 582.007 665.859 584.092C657.863 587.496 643.561 588.023 634.114 588.393C634.114 588.393 633.454 588.419 632.768 588.446C631.818 585.833 622.081 558.838 621.791 557.967C622.186 551.687 628.889 539.417 633.982 535.749L633.955 535.722Z" fill="#9FA0A0"/>
<path d="M675.596 553.535C667.97 569.236 644.563 565.779 624.852 566.439C627.886 574.857 632.161 586.731 632.768 588.42C633.428 588.42 634.114 588.367 634.114 588.367C643.561 587.998 657.863 587.47 665.859 584.066C670.714 582.008 676.467 573.96 677.971 568.656C678.024 568.444 678.05 568.154 678.05 567.785C678.05 565.278 676.915 559.129 675.596 553.535Z" fill="#7D7D7D"/>
<path d="M651.503 552.057C648.416 554.274 641.133 580.319 639.127 585.676L640.975 586.388C646.754 571.11 653.878 554.168 655.673 552.875C658.47 550.896 668.761 544.827 673.881 543.112L673.247 541.238C667.838 543.033 654.433 549.973 651.503 552.057Z" fill="#0E141B"/>
<path d="M580.335 564.249L579.648 565.041L589.57 611.853L590.019 612.302C599.862 623.411 626.435 613.331 630.947 610.191L631.818 609.61C637.227 605.89 645.434 600.243 646.49 593.514C647.044 589.846 645.434 581.745 643.27 571.532C642.373 567.284 641.423 562.877 641.397 561.584C641.317 556.808 606.591 545.593 606.248 545.54C598.569 544.326 580.546 564.065 580.361 564.249H580.335Z" fill="#0E141B"/>
<path d="M605.561 549.709C611.499 550.633 633.849 560.555 637.253 562.718C637.465 564.566 638.098 567.627 639.101 572.403C640.499 578.947 642.346 587.682 642.346 591.693C642.346 592.141 642.346 592.537 642.267 592.854C641.502 597.788 633.929 602.987 629.39 606.127L628.519 606.734C624.719 609.373 599.73 614.703 593.37 609.584C593.053 608.106 584.636 568.286 584.213 566.307C590.019 559.921 602.236 549.208 605.561 549.735V549.709Z" fill="#9FA0A0"/>
<path d="M639.101 572.403C639.022 572.086 638.969 571.77 638.89 571.453C627.094 589.582 625.273 599.768 589.623 591.957C591.523 600.902 593.212 608.898 593.344 609.558C599.703 614.677 624.693 609.346 628.493 606.708L629.364 606.101C633.902 602.987 641.476 597.762 642.241 592.828C642.294 592.511 642.32 592.115 642.32 591.666C642.32 587.655 640.473 578.921 639.074 572.377L639.101 572.403Z" fill="#7D7D7D"/>
<path d="M601.023 551.293C601.313 551.742 604.532 555.278 607.356 559.79C609.361 562.983 610.733 566.783 612.739 569.765C615.536 574.7 618.149 576.679 618.149 576.679C618.175 576.837 618.201 577.101 618.201 577.497C618.201 582.933 614.665 610.561 604.928 613.437L605.482 615.337C609.44 614.176 612.765 609.875 615.404 602.592C619.072 592.459 620.787 577.127 619.785 575.597L614.533 568.63L609.757 558.576L603.318 549.341C603.318 549.341 598.225 549.182 601.023 551.32V551.293Z" fill="#0E141B"/>
<path d="M569.437 548.866L563.895 549.473L560.94 549.526C556.955 549.578 552.838 549.631 548.88 550.845L548.748 550.898L502.279 572.747L502.569 574.33C503.651 580.373 502.965 592.565 502.384 603.331C501.989 610.482 501.619 617.264 501.804 621.512V622.33L507.398 627.951C525.105 646.106 525.58 648.587 530.356 648.587C546.453 648.587 554.422 645.658 560.359 646.264C564.265 646.66 567.088 646.951 569.806 646.027C577.67 643.362 589.017 637.029 595.271 629.429C597.936 626.183 599.176 617.238 600.733 603.938C601.445 597.816 602.712 591.799 603.53 588.923C605.219 583.038 599.888 571.507 598.094 567.865C595.614 562.852 586.958 550.053 582.525 548.628C578.936 547.494 573.896 548.206 569.41 548.84L569.437 548.866Z" fill="#0E141B"/>
<path d="M560.992 553.774L564.027 553.722L570.017 553.062C574.028 552.481 578.593 551.848 581.232 552.692C583.449 553.405 591.26 563.617 594.294 569.766C596.827 574.911 599.915 584.385 598.886 588.026C597.962 591.245 597.302 596.919 596.511 603.49C595.482 612.25 594.057 624.231 591.972 626.79C586.483 633.44 575.981 639.509 568.434 642.069C566.587 642.702 564.265 642.465 560.755 642.122C554.686 641.515 545.503 640.618 529.406 643.177C526.82 641.884 515.367 630.142 510.406 625.049C510.406 625.049 506.976 621.592 506 620.589C506 620.088 505.973 619.586 505.973 619.006C505.973 614.968 506.29 609.427 506.606 603.595C506.976 596.972 507.372 589.794 507.372 583.725C507.372 580.453 507.213 577.656 506.923 575.254C509.456 574.067 549.857 555.067 550.226 554.883C553.577 553.853 557.351 553.801 560.992 553.748V553.774Z" fill="#9FA0A0"/>
<path d="M546.347 607.817C546.321 608.344 506.633 603.067 506.606 603.568C506.29 609.374 505.973 614.942 505.973 618.979C505.973 619.559 505.973 620.034 506 620.562C506.976 621.565 510.406 625.022 510.406 625.022C515.367 630.115 526.82 641.857 529.406 643.15C545.503 640.564 554.686 641.488 560.755 642.095C564.265 642.438 566.587 642.675 568.434 642.042C575.981 639.482 586.51 633.413 591.972 626.763C594.057 624.23 595.482 612.224 596.511 603.463C596.616 602.618 590.521 627.159 590.626 626.341C576.139 629.561 560.834 629.561 546.321 607.817H546.347Z" fill="#7D7D7D"/>
<path d="M577.854 562.719C570.123 565.173 555.847 579.476 548.168 587.155L543.972 591.271C543.022 592.116 542.679 593.804 542.916 596.602C543.682 606.207 551.73 628.716 556.137 631.539C558.459 633.017 561.626 632.199 566.032 631.091C571.917 629.613 580.81 627.344 593.502 629.085L593.766 627.133C580.704 625.365 571.574 627.66 565.557 629.191C561.626 630.194 559.013 628.716 557.43 627.713C554.105 625.602 545.714 606.787 544.895 596.47C544.658 593.435 545.239 592.828 545.291 592.775L549.566 588.58C556.585 581.56 571.178 567.68 578.435 565.358C585.296 563.168 589.201 566.361 593.318 570.53L596.827 573.881L598.094 572.377L594.716 569.132C590.547 564.936 585.85 560.16 577.828 562.719H577.854Z" fill="#0E141B"/>
<path d="M511.779 513.61H511.435L448.79 535.591L449.186 537.412C449.819 540.341 450.294 551.24 450.743 561.768C451.455 578.287 450.558 590.347 451.614 593.276C454.49 601.166 484.731 623.121 490.985 625.258C499.904 628.319 513.863 621.511 526.952 617.21C532.704 615.31 538.14 613.542 541.914 612.882C546.796 612.011 569.78 581.348 572.788 572.377C575.295 564.856 567.22 547.044 560.385 526.963L559.04 523.004L557.799 522.793C552.311 521.817 546.769 520.313 541.412 518.835C531.913 516.249 522.096 513.557 511.805 513.61H511.779Z" fill="#0E141B"/>
<path d="M512.174 517.832C521.753 517.832 531.174 520.418 540.304 522.899C545.344 524.271 550.569 525.643 555.82 526.672C556.084 527.464 556.375 528.334 556.375 528.334C560.491 540.394 567.035 559.631 567.035 568.735C567.035 570.001 566.903 571.083 566.639 571.901C563.473 581.348 544.13 606.839 540.911 608.792C536.874 609.531 531.438 611.325 525.659 613.225C513.81 617.131 499.033 621.96 491.46 619.374C485.522 617.342 459.293 596.97 457.05 590.822C456.126 588.288 455.493 573.511 454.991 561.61C454.543 551.398 454.147 542.716 453.593 538.415C456.627 537.359 511.541 518.07 512.201 517.858L512.174 517.832Z" fill="#9FA0A0"/>
<path d="M522.202 585.281C519.827 578.895 515.869 576.045 510.591 568.339C510.116 566.334 511.172 565.912 510.802 563.985C509.588 557.494 508.929 552.111 508.506 552.269C509.061 556.57 454.516 551.398 454.965 561.61C455.466 573.485 456.1 588.289 457.023 590.822C459.266 596.971 485.496 617.342 491.433 619.374C499.033 621.96 513.784 617.105 525.632 613.226C531.411 611.326 536.847 609.558 540.885 608.792C544.13 606.84 563.473 581.349 566.613 571.902C566.877 571.084 567.009 570.002 567.009 568.735C567.009 565.833 532.625 593.355 522.175 585.307L522.202 585.281Z" fill="#7D7D7D"/>
<path d="M461.958 555.937C461.958 557.23 462.802 558.971 463.778 560.977C465.045 563.563 466.47 566.492 466.259 568.735C465.837 572.93 461.113 587.418 457.815 592.801L459.609 598.184C463.119 592.484 467.789 573.379 468.238 568.92C468.528 566.122 466.945 562.929 465.573 560.079C464.781 558.443 463.937 556.755 463.937 555.91H461.958V555.937Z" fill="#0E141B"/>
<path d="M502.173 559.552L504.812 562.797C509.615 568.656 518.534 580.636 519.906 584.04C521.41 587.813 518.455 612.513 516.687 616.101L518.455 616.999C520.249 613.41 524.603 588.077 522.783 583.512C521.41 580.108 513.599 570.397 506.343 561.557L503.704 558.338L502.147 559.578L502.173 559.552Z" fill="#0E141B"/>
<path d="M538.958 563.14C536.056 564.117 518.508 563.932 511.33 563.378L507.662 563.114V565.093L511.172 565.357C524.339 566.386 538.167 567.309 541.069 566.333C545.687 564.803 558.75 539.021 559.752 536.04L557.879 535.406C556.348 539.971 542.178 562.032 538.958 563.114V563.14Z" fill="#0E141B"/>
<path d="M547.93 439.776H429.447L429.5 441.94C429.658 447.614 423.193 459.409 419.657 471.495C416.464 482.393 415.884 494.585 415.514 499.862C415.013 507.33 430.714 553.984 431.954 555.726C433.432 557.837 439.343 558.154 458.395 562.481L471.932 566.782L477.764 566.862C482.54 568.392 488.794 571.559 493.439 571.717C506.606 572.139 518.059 565.832 527.743 560.344L537.665 555.198C549.302 549.393 564.291 545.408 565.663 538.151L566.824 523.216C571.732 502.316 576.64 484.953 575.506 478.224C574.503 472.234 570.122 461.81 566.903 457.325C560.728 448.748 554.738 445.423 549.381 440.331L548.774 439.75H547.93V439.776Z" fill="#0E141B"/>
<path d="M547.033 443.998C552.522 449.381 557.509 456.242 561.916 462.391C564.634 466.19 568.381 471.838 569.225 477.01C569.305 477.564 569.357 478.223 569.357 478.989C569.357 487.459 564.317 508.992 561.203 522.292L558.591 533.902C557.615 539.101 545.529 545.117 535.792 549.946L525.659 555.198C516.475 560.396 504.363 566.307 492.251 565.911C488.187 565.779 483.543 564.302 479.031 562.85L474.334 561.399L461.14 558.232C452.643 556.306 438.525 553.087 436.493 551.556C434.672 547.862 419.684 507.198 419.684 500.363C419.684 500.284 419.684 500.205 419.684 500.126C420 495.323 423.088 484.741 426.096 474.529C429.527 462.839 433.01 450.859 433.564 443.945H546.98L547.033 443.998Z" fill="#9FA0A0"/>
<path d="M517.373 497.488C515.473 495.192 549.091 445.978 547.033 443.973H433.617C433.063 450.886 429.579 462.867 426.149 474.556C423.167 484.769 420.053 495.324 419.737 500.153C419.737 500.232 419.737 500.311 419.737 500.39C419.737 507.225 434.725 547.863 436.546 551.583C438.578 553.114 452.695 556.307 461.192 558.26L474.386 561.426L479.083 562.878C483.596 564.303 488.24 565.78 492.304 565.939C498.98 566.15 505.63 564.461 511.831 562.007C512.807 561.637 499.376 554.433 499.429 546.807C499.429 544.432 504.812 513.875 517.399 497.514L517.373 497.488Z" fill="#7D7D7D"/>
<path d="M554.026 477.274L546.347 480.969C524.392 491.287 509.087 499.361 508.163 502.158C508.031 502.554 496.79 541.503 497.291 546.359C497.74 550.765 504.944 556.465 510.617 561.664L511.725 562.693L514.549 562.191L511.937 560.212C506.791 555.489 500.405 549.604 500.036 545.963C499.666 542.189 510.987 510.444 513.124 504.111C514.232 501.446 538.008 487.091 547.191 482.763L554.976 479.016C557.905 477.38 565.399 475.295 568.829 476.799C569.647 477.142 570.122 477.67 570.307 478.383L572.233 477.908C571.89 476.588 570.993 475.586 569.621 474.979C565.399 473.158 557.219 475.506 554.026 477.274Z" fill="#0E141B"/>
<path d="M451.798 466.613C452.827 468.328 465.15 503.319 465.15 506.565C465.15 509.81 453.197 541.951 451.429 544.141C450.03 545.883 439.264 550.633 434.303 549.789L433.986 551.741C439.58 552.665 451.059 547.73 452.986 545.355C454.648 543.271 468.686 511.737 468.686 507.779C468.686 503.82 454.49 467.194 453.513 465.584L451.824 466.613H451.798Z" fill="#0E141B"/>
<path d="M567.853 346.311L429.764 362.355L423.325 373.57C416.913 384.468 408.654 395.366 406.12 408.138C404.036 418.509 428.92 465.532 432.535 466.72L439.633 469.596C449.529 473.739 464.86 481.84 472.539 483.16C476.128 483.793 546.769 475.349 554.949 465.928C559.435 460.756 565.663 443.129 566.507 439.223C568.196 431.386 574.002 427.164 579.57 421.016L585.718 413.627C592.341 405.869 582.367 383.729 573.632 358.238L569.621 346.1L567.88 346.232L567.853 346.311Z" fill="#0E141B"/>
<path d="M566.639 350.691C567.431 353.093 569.595 359.663 569.595 359.663C573.711 371.644 581.364 394.021 581.364 405.79C581.364 408.719 580.889 410.988 579.781 412.308L575.902 416.662C570.202 422.942 564.317 429.407 562.365 438.353C561.652 441.678 554.316 457.141 550.463 461.601C544.157 468.857 480.245 478.463 474.466 477.829C467.288 476.589 451.007 469.781 441.269 465.717C441.269 465.717 435.517 463.395 434.488 462.973C431.585 459.041 411.794 421.2 411.794 410.54C411.794 410.117 411.82 409.722 411.899 409.379C414.327 397.293 420.476 386.817 426.967 375.734C426.967 375.734 431.453 367.896 432.35 366.313C434.409 366.076 563.315 351.087 566.613 350.691H566.639Z" fill="#9FA0A0"/>
<path d="M569.595 359.689C569.595 359.689 567.431 353.118 566.639 350.717C564.95 350.902 530.356 354.939 496.711 358.844C517.637 371.616 539.987 402.728 536.689 422.624C535.897 427.453 514.153 445.186 499.64 457.246C472.249 475.77 451.825 459.436 431.374 457.721C432.825 460.359 433.933 462.259 434.488 462.972C435.543 463.394 441.269 465.716 441.269 465.716C451.007 469.78 467.288 476.588 474.466 477.828C480.245 478.488 544.183 468.856 550.463 461.6C554.316 457.166 561.652 441.677 562.364 438.352C564.317 429.406 570.202 422.941 575.902 416.661L579.781 412.307C580.889 411.014 581.364 408.718 581.364 405.789C581.364 393.993 573.711 371.643 569.595 359.662V359.689Z" fill="#7D7D7D"/>
<path d="M550.648 399.536C552.522 405.896 538.879 422.494 530.804 427.428C525.632 430.595 507.029 448.908 493.412 462.261C486.657 468.884 480.852 474.61 479.559 475.613C476.761 477.777 473.489 478.806 470.085 477.619C468.528 477.091 465.309 477.328 464.781 475.296C463.779 471.259 457.762 462.551 451.376 453.341C444.99 444.079 437.733 431.387 438.71 429.038C440.082 425.766 441.824 411.068 444.436 399.193C445.887 392.596 447.26 386.368 447.55 385.63L445.703 384.891C445.36 385.735 443.143 387.398 441.322 395.683C438.868 406.846 436.704 425.185 435.385 428.299C434.065 431.492 438.578 440.49 448.341 454.634C454.332 463.316 460.533 472.262 461.43 475.956C462.116 478.674 466.602 479.941 468.819 480.706C473.199 482.21 479.638 479.756 482.699 477.381C484.071 476.299 489.375 471.101 496.737 463.87C509.509 451.31 528.456 432.073 533.417 429.038C541.096 424.341 556.137 408.165 553.736 400.037C551.677 393.045 555.451 370.615 555.477 370.404L553.525 370.061C553.366 371.011 548.432 392.068 550.622 399.51L550.648 399.536Z" fill="#0E141B"/>
<path d="M551.704 404.733C551.994 406.185 554.131 409.694 555.873 414.418C558.828 422.44 564.555 436.03 563.499 438.431L565.32 439.223C566.56 436.32 562.866 425.791 557.931 412.359C556.295 407.9 553.947 402.543 553.683 401.25L551.704 404.76V404.733Z" fill="#0E141B"/>
<path d="M518.851 233.712L418.813 253.16L420.053 253.873C418.523 262.897 407.097 339.581 407.704 345.571C408.548 354.042 436.704 389.85 445.835 396.606C451.719 400.96 497.291 399.878 512.333 396.87C517.478 395.841 538.378 392.041 553.129 388.135L569.991 383.834C578.25 381.723 592.658 334.224 592.843 333.749C598.173 319.658 593.687 283.981 589.069 271.632C587.592 267.674 581.047 259.757 573.078 251.339C569.384 247.434 564.713 247.091 563.526 245.27C560.148 240.203 547.983 238.145 532.44 235.955C527.268 235.242 522.36 234.556 519.88 233.791L519.378 233.633L518.877 233.738L518.851 233.712Z" fill="#0E141B"/>
<path d="M519.194 237.961C522.044 238.753 526.556 239.386 531.833 240.125C542.019 241.55 557.404 243.714 559.99 247.593C561.388 249.704 564.819 253.345 568.803 257.541C574.292 263.346 581.839 271.316 583.132 274.799C586.483 283.771 589.412 301.847 589.412 316.228C589.412 322.72 588.805 328.472 587.381 332.272C581.1 348.817 567.801 376.34 563.842 377.712L553.419 380.457C539.618 384.125 516.502 390.22 511.488 391.223C494.705 394.574 455.334 394.179 451.587 391.408C442.219 384.494 415.831 353.251 415.224 347.129C415.224 346.97 415.224 346.733 415.224 346.443C415.224 337.55 422.085 269.495 424.012 256.01C426.862 255.483 518.323 238.119 519.194 237.961Z" fill="#9FA0A0"/>
<path d="M583.132 274.771C581.839 271.288 574.292 263.345 568.803 257.514C564.819 253.318 561.388 249.676 559.989 247.565C557.403 243.686 542.019 241.522 531.833 240.097C526.582 239.359 522.043 238.725 519.193 237.934C518.323 238.092 426.861 255.455 424.011 255.983C422.745 264.691 419.13 317.731 429.342 343.803C433.801 346.626 437.443 345.887 447.734 348.79C470.903 349.74 479.347 353.698 490.694 353.355C493.65 353.355 500.616 349.028 504.548 347.418C519.668 372.434 524.075 380.535 519.668 386.631C518.771 387.845 517.953 389.665 519.088 389.375C528.429 387.027 543.391 383.068 553.445 380.403L563.869 377.659C567.8 376.26 581.126 348.764 587.407 332.218C588.832 328.418 589.439 322.666 589.439 316.174C589.439 301.793 586.51 283.717 583.158 274.745L583.132 274.771Z" fill="#7D7D7D"/>
<path d="M433.802 346.652C433.802 348.341 438.288 379.426 440.187 382.778L443.09 384.73C441.612 382.144 438.683 350.188 438.683 347.338L433.775 346.652H433.802Z" fill="#0E141B"/>
<path d="M528.72 274.034C528.825 274.245 539.908 294.669 541.993 299.736C543.867 304.196 529.96 328.868 527.743 330.346C522.36 333.935 491.856 352.486 488.689 352.196C487.897 351.483 482.356 350.85 463.779 349.161C450.426 347.921 433.036 343.619 431.321 342.379C428.55 340.294 423.906 325.544 425.674 315.885L423.721 315.542C421.98 325.042 425.305 343.619 429.263 346.601C431.242 348.079 444.146 349.372 463.594 351.14C474.307 352.116 487.845 354.623 489.138 355.309C492.278 357.843 528.456 332.272 528.825 332.009C531.675 330.109 548.748 303.272 546.321 297.493C544.183 292.347 530.884 273.981 530.435 273.137L528.693 274.087L528.72 274.034Z" fill="#0E141B"/>
<path d="M434.408 145.655L358.49 213.578L377.225 284.668L377.384 284.931C381.579 291.74 437.39 341.085 454.701 340.505C471.114 339.951 518.349 321.743 526.133 317.31C534.182 312.718 568.829 264.903 569.964 259.203C570.729 255.403 565.637 228.698 560.016 193.497L558.406 183.232C557.667 178.06 539.407 170.856 471.906 152.912C456.944 148.927 442.114 147.106 436.467 145.206L435.306 144.811L434.382 145.629L434.408 145.655Z" fill="#0E141B"/>
<path d="M436.335 149.613C442.536 151.592 454.78 154.838 468.924 158.612C497.001 166.079 549.144 179.933 552.785 184.868C552.865 185.396 554.369 194.922 554.369 194.922C556.77 209.884 562.918 248.358 562.918 255.72C562.918 256.142 562.918 256.459 562.866 256.644C561.968 261.05 531.253 309.525 524.049 313.642C516.686 317.838 470.956 333.037 455.44 333.539C440.741 334.04 386.012 290.262 381.131 282.9C380.92 282.134 363.873 217.378 363.24 215.003C365.087 213.341 434.619 151.17 436.335 149.613Z" fill="#9FA0A0"/>
<path d="M543.945 234.979C535.844 232.34 529.722 215.293 522.334 211.599C500.458 200.674 480.429 180.646 465.177 157.609C452.642 154.284 441.982 151.408 436.308 149.613C434.567 151.17 365.06 213.341 363.213 215.003C363.846 217.404 380.893 282.134 381.104 282.9C385.986 290.288 440.741 334.04 455.413 333.539C470.929 333.011 516.66 317.838 524.022 313.642C527.796 311.478 538.034 297.123 547.059 283.322C538.589 266.433 542.283 255.456 543.919 234.979H543.945Z" fill="#7D7D7D"/>
<path d="M493.386 260.207L497.529 262.133C502.595 264.376 514.47 269.627 515.314 272.134C516.423 275.512 519.404 302.507 520.513 312.666L519.272 318.34L526.028 315.252L522.334 307.864C520.434 290.474 518.243 274.641 517.188 271.475C516.159 268.387 508.321 262.186 498.98 258.043L494.415 258.465L493.412 260.154L493.386 260.207Z" fill="#0E141B"/>
<path d="M509.43 231.654L509.614 236.272C511.963 235.744 540.805 235.111 543.365 236.219C546.822 237.697 562.945 248.279 563.974 249.994L565.399 246.405C563.868 243.872 546.795 235.533 544.156 234.399C540.779 232.947 510.987 231.258 509.43 231.654Z" fill="#0E141B"/>
<path d="M360.601 82.2431C344.214 86.7291 322.839 91.5318 315.53 92.6928C302.995 94.7247 299.301 111.296 292.15 123.118C289.247 127.921 286.74 132.038 284.497 134.518C279.642 139.875 277.663 150.536 278.586 166.184C281.252 210.885 307.033 287.015 320.781 298.995C337.142 313.245 398.943 331.11 408.865 328.655H418.18C453.038 319.974 471.616 312.11 475.679 307.281C478.16 304.352 483.992 296.33 490.773 287.015C500.194 274.058 512.649 259.862 519.431 251.84C530.857 238.355 541.966 215.477 540.119 205.106C538.483 195.791 513.124 127.367 506.897 120.005C500.959 112.985 424.143 69.9727 412.691 69.9727C406.859 69.9727 382.186 76.3058 360.574 82.2167L360.601 82.2431Z" fill="#0E141B"/>
<path d="M323.578 295.828C311.756 285.537 285.553 211.755 282.835 165.946C281.991 151.67 283.653 141.774 287.638 137.367C290.145 134.597 292.757 130.295 295.765 125.308C302.494 114.225 310.833 100.424 321.467 98.7087C328.988 97.4948 345.296 93.0352 362.554 88.3117C382.002 82.9813 404.036 76.9648 409.313 76.9648C419.183 76.9648 497.08 117.365 502.252 123.487C507.477 129.688 530.91 196.371 532.599 205.871C534.05 214.13 527.084 233.526 515.552 247.168C508.665 255.322 496.869 271.498 487.422 284.507C480.693 293.743 474.888 301.739 472.539 304.536C470.613 306.832 460.797 312.294 416.86 323.219L415.752 323.509C408.39 325.356 340.176 310.236 323.631 295.802L323.578 295.828Z" fill="#9FA0A0"/>
<path d="M511.567 227.115C506.184 229.358 489.692 241.575 469.9 251.788C468.924 252.896 464.359 261.973 463.383 263.135C445.676 250.257 433.801 216.744 431.163 203.55C417.467 193.074 401.37 168.929 377.173 150.906C350.996 141.38 316.269 153.307 282.598 157.688C282.571 160.247 282.598 162.965 282.782 165.921C285.5 211.73 311.73 285.512 323.526 295.803C340.071 310.211 408.284 325.331 415.646 323.511L416.755 323.22C460.691 312.296 470.507 306.807 472.434 304.537C474.809 301.74 480.614 293.771 487.317 284.509C496.764 271.5 508.559 255.324 515.446 247.17C519.405 242.499 522.782 237.169 525.527 231.812C530.54 224.74 523.627 222.813 511.541 227.088L511.567 227.115Z" fill="#7D7D7D"/>
<path d="M471.932 248.251C469.003 248.62 463.594 257.355 462.09 264.427L460.269 268.543L457.815 272.845C439.792 312.717 434.171 317.652 430.82 319.05L431.585 320.871C439.633 317.52 452.775 291.501 462.38 270.285L463.039 268.834L468.291 261.155C468.95 257.988 470.824 252.156 472.592 251.919C479.479 251.048 533.654 213.234 534.129 212.838L532.889 211.281C529.67 213.841 477.527 247.512 471.985 248.225L471.932 248.251Z" fill="#0E141B"/>
<path d="M417.309 147.421L418.074 150.429C421.214 162.489 430.74 199.195 428.471 210.594C426.993 217.983 427.732 230.966 428.339 241.416C428.788 249.068 429.184 256.299 428.524 258.172C426.993 262.368 385.538 293.691 380.313 294.984L380.709 299.443C386.461 298.018 428.709 263.476 430.397 258.858C431.189 256.721 430.872 250.81 430.345 241.337C429.764 231.019 429.025 218.168 430.45 211.017C432.825 199.142 425.938 161.433 422.771 149.242L419.262 146.973L417.335 147.448L417.309 147.421Z" fill="#0E141B"/>
<path d="M315.081 128.317L316.031 131.958L317.588 133.198L318.987 131.351C344.953 96.7037 353.397 90.8719 356.168 90.608C358.199 91.7955 375.273 108.314 389.074 121.64C402.347 134.465 413.799 145.548 415.963 147.131C420.871 150.694 453.065 156.789 459.24 155.919C465.678 154.995 506.501 136.893 508.797 134.571V130.164C506.606 132.301 464.755 153.121 458.949 153.94C453.25 154.758 422.402 147.052 417.81 143.701C415.752 142.197 403.112 132.46 390.446 120.242C361.604 92.3496 357.461 88.6289 356.379 88.6289C351.127 88.6289 336.06 100.372 315.108 128.343L315.081 128.317Z" fill="#0E141B"/>
<path d="M257.608 141.38C257.186 142.225 221.14 235.718 228.449 248.543C234.571 259.283 314.527 327.944 337.934 323.933C359.625 320.239 397.914 300.474 406.464 287.914C415.013 275.379 419.895 216.56 417.256 208.09C414.908 200.569 390.604 146.5 383.77 141.512C379.257 138.24 355.455 134.599 319.963 127.078C302.31 123.331 265.34 125.943 257.608 141.38Z" fill="#0E141B"/>
<path d="M319.092 132.699C366.591 142.78 375.959 146.949 377.78 148.268C382.899 151.989 408.258 200.596 411.002 209.331C413.272 216.587 407.836 272.134 400.13 283.455C392.9 294.063 359.097 316.018 337.247 319.738C317.14 323.169 238.477 257.489 232.144 246.406C231.748 245.693 231.563 244.532 231.563 242.975C231.563 224.266 258.558 149.403 261.434 143.228C267.82 130.43 302.415 129.137 319.119 132.673L319.092 132.699Z" fill="#9FA0A0"/>
<path d="M411.002 209.329C408.284 200.595 382.899 151.988 377.78 148.267C376.724 147.502 373.135 145.787 361.155 142.541C382.054 163.308 378.782 181.569 373.214 183.443C338.593 168.137 282.703 186.161 245.733 187.427C238.503 209.54 231.537 233.501 231.537 243.001C231.537 244.557 231.721 245.719 232.117 246.431C238.45 257.488 317.113 323.194 337.221 319.764C359.044 316.043 392.847 294.088 400.104 283.48C407.836 272.159 413.272 216.612 410.976 209.356L411.002 209.329Z" fill="#7D7D7D"/>
<path d="M345.032 174.392C354.057 175.896 368.254 185.079 372.37 187.85C372.581 188.352 372.687 190.014 372.687 192.336C372.687 195.951 372.449 201.15 372.106 205.979L374.085 206.111C375.484 186.504 380.762 191.043 373.637 186.293C368.042 182.52 354.479 173.917 345.322 172.387L345.006 174.339L345.032 174.392Z" fill="#0E141B"/>
<path d="M371.183 185.713L373.135 186.847C374.877 186.847 393.533 177.559 396.093 174.999L394.272 171.199C391.976 173.495 372.74 185.502 371.183 185.713Z" fill="#0E141B"/>
<path d="M250.457 120.849C238.899 123.356 164.616 145.733 158.125 151.618C151.871 157.317 104.979 239.675 103.422 247.037C102.499 251.338 106.061 259.07 110.943 265.799C116.062 272.871 122.738 279.257 124.11 288.176C126.195 301.713 187.97 368.581 202.668 368.581C211.191 368.581 354.901 347.681 361.208 331.901L370.444 311.609C381.421 286.962 386.963 268.279 385.274 262.817C384.693 260.97 383.875 255.719 382.925 249.649C380.392 233.632 380.497 211.888 374.56 203.549C370.338 197.638 325.98 142.329 314.237 139.242L301.755 135.151C280.434 127.789 259.376 118.949 250.457 120.875V120.849Z" fill="#0E141B"/>
<path d="M128.28 287.516C126.749 277.594 120.047 268.332 114.637 260.917C110.89 255.745 108.647 249.069 109.175 246.588C110.6 239.912 156.409 162.331 162.136 157.159C167.176 152.594 238.345 130.48 252.515 127.393C261.012 125.546 285.632 134.043 300.357 139.109L314.026 145.337C322.76 147.633 357.117 189.458 367.198 203.575C372.555 211.096 376.434 235.637 378.756 250.309C379.811 257.038 379.706 263.107 380.365 265.245C381.711 269.625 370.391 295.802 363.846 310.5L357.408 325.33C352.975 336.44 217.841 364.358 202.668 364.358C191.558 364.358 130.364 301.185 128.28 287.542V287.516Z" fill="#9FA0A0"/>
<path d="M380.365 265.219C379.706 263.082 379.811 257.039 378.756 250.283C376.434 235.611 372.581 211.071 367.198 203.55C362.844 197.428 353.924 186.134 344.504 175.104C349.043 197.903 313.946 188.852 270.116 213.208C246.208 226.244 156.884 278.967 128.755 289.259C134.877 305.804 191.954 364.333 202.641 364.333C217.815 364.333 352.922 336.388 357.381 325.305L363.82 310.475C370.364 295.776 381.685 269.599 380.339 265.219H380.365Z" fill="#7D7D7D"/>
<path d="M383.268 263.424C380.867 266.247 340.889 298.494 339.174 298.916Z" fill="#0E141B"/>
<path d="M338.857 297.966L339.437 299.866C356.537 293.718 382.292 266.142 384.033 264.058L382.529 262.791C380.154 265.588 341.39 296.858 338.857 297.993V297.966Z" fill="#0E141B"/>
<path d="M341.971 186.08C341.337 186.212 338.54 189.088 332.181 191.463C319.039 196.372 291.701 206.557 288.192 205.977L287.822 210.595C291.543 211.228 312.126 201.069 332.867 193.337C337.696 191.543 341.839 189.986 342.393 189.88C344.741 189.405 349.702 182.887 351.154 180.908L349.57 179.721C346.773 183.521 343.026 185.869 341.971 186.107V186.08Z" fill="#0E141B"/>
<path d="M158.072 158.716L156.911 163.941C159.259 162.78 179.103 161.513 181.425 162.674C182.455 163.202 192.113 171.065 201.48 178.692C220.48 194.155 233.093 204.341 234.888 204.869L235.442 202.969C233.568 202.283 218.791 187.347 205.782 176.739C193.485 166.738 183.431 161.46 182.296 160.906C179.42 159.481 160.922 157.264 158.046 158.716H158.072Z" fill="#0E141B"/>
<path d="M132.951 246.141C125.272 250.311 110.547 278.256 92.1281 314.355C83.7103 330.847 73.762 345.282 71.3607 347.313C66.4525 351.456 70.5691 363.516 73.6828 375.206C75.8203 383.175 77.8258 392.516 77.1661 397.926L76.1369 405.658C74.1578 420.092 71.3607 429.75 74.8439 433.26L81.2562 440.833C93.9753 454.555 133.689 491.709 150.551 496.512C170.844 502.317 329.331 428.642 340.757 421.939C343.238 420.488 345.058 416.714 346.457 410.117C352.658 380.721 350.969 304.222 336.72 284.431C324.634 267.674 288.746 249.44 268.955 239.149C261.593 235.322 255.207 231.997 253.439 230.493C244.942 223.289 144.535 239.887 132.951 246.168V246.141Z" fill="#0E141B"/>
<path d="M151.739 492.449C141.289 489.467 118.965 469.57 85.3201 433.313L81.9952 429.777C79.7258 427.507 81.4146 415.316 82.6285 406.397L83.6576 398.586C84.3965 392.358 82.1007 383.73 79.8577 375.338C77.5884 366.788 74.7384 356.154 77.6147 353.726C80.5174 351.272 87.0089 338.738 98.1975 316.809C111.682 290.421 130.153 254.243 137.278 250.39C151 242.949 244.309 229.227 250.721 233.687C252.858 235.481 258.796 238.569 267.002 242.843C286.477 252.976 319.066 269.918 330.545 285.882C344.003 304.539 348.251 381.144 342.314 409.221C340.783 416.504 339.095 417.981 338.62 418.272C321.52 428.299 168.944 497.357 151.713 492.422L151.739 492.449Z" fill="#9FA0A0"/>
<path d="M330.571 285.909C325.927 279.497 317.852 272.899 308.616 266.672C320.069 295.382 319.119 313.696 305.951 322.456C255.814 356.761 208.315 380.51 147.622 396.343C131.789 398.982 116.854 419.776 101.021 425.053C95.6905 412.598 92.3128 397.61 82.9978 388.348C83.6839 392.121 84.0269 395.657 83.6839 398.612L82.6547 406.423C81.4409 415.343 79.752 427.534 82.0214 429.803L85.3463 433.339C118.965 469.597 141.316 489.493 151.765 492.475C168.997 497.41 321.573 428.352 338.672 418.324C339.147 418.034 340.836 416.556 342.367 409.273C348.278 381.223 344.056 304.618 330.598 285.935L330.571 285.909Z" fill="#7D7D7D"/>
<path d="M127.647 277.781C129.124 281.634 133.294 302.823 135.774 315.49L137.938 326.256L144.667 320.108L140.603 314.118C137.938 300.58 131.051 281.106 129.494 277.095C127.541 272.002 135.114 252.95 138.307 249.783L136.909 248.385C133.135 252.158 125.351 271.844 127.647 277.808V277.781Z" fill="#0E141B"/>
<path d="M195.306 294.114C182.534 298.521 143.189 319.79 140.471 321.743C136.988 324.223 122.316 369.532 120.258 383.94L123.556 384.599C125.773 369.109 139.785 326.308 142.397 324.118C145.089 322.191 186.175 301.028 198.842 296.674C210.901 292.505 254.468 294.22 265.788 298.574C277.452 303.06 321.52 323.907 324.766 327.152L326.164 325.754C322.47 322.059 277.109 300.817 266.501 296.727C254.969 292.294 207.629 289.892 195.332 294.141L195.306 294.114Z" fill="#0E141B"/>
<path d="M82.1271 389.613C86.5339 398.427 106.246 408.771 107.064 409.14L107.908 404.39C107.697 404.311 85.7686 393.044 81.6785 384.863L82.1271 389.587V389.613Z" fill="#0E141B"/>
<path d="M502.173 347.683C505.736 352.037 516.502 370.72 519.695 376.34C521.226 379.032 518.27 388.796 517.426 392.173L521.938 388.98C522.862 385.312 523.31 378.663 521.41 375.364C518.191 369.717 509.404 350.533 505.736 346.047L502.147 347.683H502.173Z" fill="#0E141B"/>
<path d="M121.393 560.925C114.901 565.121 113.054 572.826 113.054 580.98C113.054 587.419 114.215 594.121 115.165 599.583C115.719 602.882 116.405 606.814 116.405 608.846C116.405 609.321 116.379 609.69 116.273 609.928C114.796 613.384 109.755 623.412 109.755 632.991C109.755 635.999 110.336 642.886 113.239 648.718C116.141 654.55 137.7 694 140.55 697.563C142.582 700.122 146.725 701.204 151.501 702.471C155.961 703.658 161.027 704.978 162.716 707.353L190.635 750.55C195.358 757.173 212.009 762.768 224.253 766.858C236.814 771.053 253.623 781.477 260.484 786.042C269.06 791.768 285.659 790.765 291.332 786.042L298.958 775.355C306.294 768.151 319.91 754.772 324.634 753.717C333.184 751.817 345.032 743.795 346.035 737.725C346.932 732.289 356.036 697.246 358.173 694.37C358.2 694.37 360.416 692.47 360.416 692.47C366.38 687.535 378.756 677.27 380.286 667.427L381.5 660.804C382.925 653.494 384.72 644.285 384.72 632.595C384.72 627.634 384.403 622.251 383.585 616.366C383.057 612.54 382.846 608.898 382.846 605.415C382.846 599.267 383.479 593.673 384.06 588.5C384.535 584.331 384.957 580.505 384.957 577.048C384.957 572.219 384.113 568.102 381.342 564.725C375.589 557.706 290.065 555.806 253.571 555.304C241.168 555.146 132.212 553.879 121.393 560.872V560.925Z" fill="#0E141B"/>
<path d="M263.677 779.498C255.602 774.115 237.975 765.882 225.942 761.871C213.038 757.57 200.214 750.392 196.731 745.511L167.044 704.266C159.233 687.114 158.072 692.338 155.75 699.331C152.53 698.487 145.643 695.452 144.693 694.265C142.74 691.837 132.396 672.02 117.012 641.251C114.4 636.053 118.252 618.742 121.129 612.013C122.158 609.585 121.577 605.785 120.363 598.687C118.463 587.657 115.587 570.979 124.269 565.359C136.46 557.469 365.087 560.081 377.331 568.235C379.073 570.452 379.679 573.381 379.679 577.075C379.679 580.163 379.284 583.804 378.809 587.921C378.228 593.014 377.568 598.898 377.568 605.442C377.568 609.137 377.779 613.016 378.334 617.106C379.099 622.7 379.416 627.846 379.416 632.569C379.416 643.837 377.674 652.756 376.302 659.828L375.062 666.636C373.848 674.5 362.079 684.264 357.038 688.433L354.347 690.755C350.996 694.106 341.074 729.44 340.414 733.425C339.807 737.146 329.911 747.173 323.473 748.598C317.747 749.865 307.297 759.787 295.237 771.608L288.535 777.994C284.313 781.504 269.878 783.641 263.651 779.472L263.677 779.498Z" fill="#9FA0A0"/>
<path d="M213.012 756.619C217.049 758.571 221.483 760.392 225.916 761.87C232.856 764.192 241.643 767.913 249.401 771.66C245.812 762.213 241.3 760.339 238.688 749.916C228.528 753.98 221.219 750.154 212.986 756.619H213.012Z" fill="#7D7D7D"/>
<path d="M377.568 605.468C377.568 598.95 378.228 593.039 378.809 587.946C379.284 583.803 379.679 580.188 379.679 577.101C379.679 573.406 379.073 570.477 377.331 568.261C365.087 560.107 136.46 557.494 124.269 565.384C115.587 571.005 118.463 587.682 120.363 598.712C121.577 605.811 122.184 609.611 121.129 612.038C118.252 618.767 114.4 636.078 117.012 641.276C124.216 655.684 130.312 667.638 134.956 676.584C133.003 654.048 136.011 639.931 147.622 647.003C174.01 636.447 195.121 657.558 213.593 681.307C242.62 712.973 303.312 681.307 342.894 665.474C332.339 697.14 323.526 735.086 289.221 745.642C290.963 758.836 288.852 766.752 281.964 780.817C284.814 780.131 287.215 779.154 288.561 778.046L295.264 771.66C307.323 759.812 317.773 749.916 323.499 748.65C329.911 747.225 339.807 737.197 340.44 733.477C341.1 729.492 351.022 694.158 354.373 690.807L357.065 688.485C362.105 684.315 373.874 674.552 375.088 666.688L376.328 659.88C377.7 652.808 379.442 643.889 379.442 632.621C379.442 627.898 379.125 622.752 378.36 617.158C377.806 613.094 377.595 609.188 377.595 605.494L377.568 605.468Z" fill="#7D7D7D"/>
<path d="M166.807 582.563C163.218 583.566 161.635 588.184 161.635 596.443C161.635 607.843 164.643 626.235 169.604 651.753C171.24 660.223 172.665 667.506 172.665 669.538C172.665 674.842 183.062 688.485 198.921 708.672C206.626 718.488 213.909 727.777 215.783 731.498C217.208 734.374 219.108 736.089 221.43 736.591C225.652 737.514 229.874 734.189 233.595 731.234L237.685 728.252C242.488 725.508 292.625 725.93 303.101 727.671C307.429 728.384 308.537 730.231 309.593 731.999C310.622 733.688 312.152 736.248 316.401 735.034C324.449 732.738 348.119 668.351 348.331 667.691C349.597 663.865 351.919 648.665 354.611 631.091C357.223 613.939 359.941 596.206 361.577 590.057C361.788 589.292 361.894 587.814 360.443 586.363C348.594 574.673 197.654 573.855 166.833 582.537L166.807 582.563Z" fill="#0E141B"/>
<path d="M222.353 732.501C221.351 732.29 220.427 731.314 219.583 729.625C217.524 725.509 210.452 716.484 202.272 706.06C192.192 693.209 176.94 673.788 176.94 669.539C176.94 667.217 175.805 661.28 173.799 650.962C165.725 609.454 163.772 587.815 167.994 586.628C182.032 582.67 224.913 580.374 272.253 581.06C330.598 581.904 354.954 586.443 357.434 589.346C355.719 595.969 353.054 613.491 350.468 630.485C348.04 646.423 345.533 662.889 344.372 666.399C340.757 677.271 320.201 728.015 315.187 731.024C314.184 731.314 314.131 731.261 313.261 729.836C311.994 727.725 310.094 724.559 303.84 723.529C294.499 721.973 242.356 720.785 235.653 724.611L231.035 727.936C228.185 730.179 224.649 732.976 222.406 732.475L222.353 732.501Z" fill="#0E141B"/>
<path d="M123.451 611.986C126.644 621.961 129.256 622.172 129.256 622.172C135.616 633.096 143.4 649.14 145.485 655.051C147.57 660.962 152.874 665.211 149.654 654.365C146.409 643.493 139.785 631.882 132.898 620.061C132.898 620.061 131.183 617.237 127.172 610.007C123.161 602.776 120.258 602.038 123.451 612.012V611.986Z" fill="#0E141B"/>
<path d="M357.645 685.872L355.35 693.525L361.63 688.696L361.867 686.268C362.58 678.932 362.765 676.689 365.456 666.477C368.148 656.265 364.823 656.054 361.841 664.313C358.859 672.573 358.463 677.718 357.672 685.872H357.645Z" fill="#0E141B"/>
<path d="M185.516 322.166L157.808 329.766C136.249 335.149 118.279 367.052 102.974 420.593C101.522 425.686 61.3332 466.535 61.3332 466.535C49.9335 479.254 56.4514 490.232 61.3332 511.21C61.3332 511.21 81.9423 588.026 85.9797 593.198C93.817 603.278 118.991 607.896 136.513 610.298L140.814 610.878C161.159 613.649 163.165 614.071 167.783 620.008C169.577 622.331 172.242 626.896 175.066 631.751C183.035 645.473 189.104 655.342 194.593 657.163C199.924 658.931 206.468 655.923 212.801 652.994C216.706 651.199 220.744 649.326 223.726 649.035C230.877 648.323 272.781 664.077 279.062 667.665C283.495 670.199 293.206 665.739 314.686 654.128C320.491 650.988 325.98 648.006 328.223 647.267C331.31 646.238 337.828 650.645 342.156 653.548C347.222 656.952 350.31 661.702 353.054 660.33L355.957 658.588C368.755 652.624 381.21 643.995 382.741 637.082C384.931 627.265 389.575 608.714 393.243 601.405C395.037 597.842 401.08 591.114 406.912 584.648C414.222 576.547 421.531 574.331 423.457 569.554C426.782 561.269 431.506 520.631 430.609 512.53C430.398 510.709 431.189 505.59 432.034 500.18C434.461 484.347 438.894 462.26 431.031 453.737C426.835 449.198 420.528 445.161 415.04 440.49C407.545 434.131 399.814 427.534 394.668 420.541C390.235 414.498 384.086 396.052 378.677 379.797C372.924 362.566 367.99 347.683 364.058 342.907C355.693 332.695 290.857 307.283 269.034 305.673C252.119 304.433 216.047 313.484 185.568 322.139L185.516 322.166Z" fill="#0E141B"/>
<path d="M159.55 335.624L187.416 327.971C215.994 319.87 251.592 309.764 267.556 310.951C289.195 312.561 352.13 338.025 358.886 346.285C362.184 350.322 367.462 366.155 372.581 381.487C378.387 398.929 384.403 416.979 389.338 423.681C394.853 431.175 402.822 437.984 410.554 444.528C415.937 449.093 421.003 453.394 424.988 457.722C427.6 460.572 428.498 466.192 428.498 472.737C428.498 481.498 426.888 491.895 425.753 499.389C424.909 504.957 424.249 509.179 424.249 511.87C424.249 512.345 424.249 512.741 424.302 513.111C424.355 513.559 424.381 514.166 424.381 514.879C424.381 524.352 420.08 554.619 417.045 562.14C415.488 566.045 408.284 574.041 401.925 581.113C395.565 588.158 389.575 594.835 387.464 599.057C382.661 608.636 377.146 633.177 376.539 635.947C376.091 637.926 372.291 642.676 351.814 652.229C351.814 652.229 350.864 652.677 350.336 652.915C349.228 652.677 346.246 650.672 344.029 649.194C337.934 645.078 331.02 640.433 325.478 642.28C322.813 643.178 317.641 645.948 311.123 649.511C302.336 654.261 284.049 664.156 280.539 663.074C275.077 660.013 231.405 642.887 222.142 643.811C218.29 644.207 214.041 646.159 209.529 648.218C204.383 650.593 198.551 653.284 195.2 652.176C191.189 650.83 183.589 637.768 178.549 629.113C175.515 623.888 172.902 619.376 170.87 616.79C164.801 608.979 160.605 608.424 140.445 605.654L136.144 605.073C113.08 601.88 96.878 596.233 91.6796 589.583C88.038 584.913 81.309 556.968 76.4008 536.57L69.8566 510.498C64.104 489.968 61.1749 477.988 67.7191 469.992L78.1161 458.25C93.4476 441.282 105.322 427.851 106.958 422.045C121.709 370.43 139.864 340.532 159.497 335.65L159.55 335.624Z" fill="#9FA0A0"/>
<path d="M358.912 346.284C352.157 338.025 289.195 312.56 267.583 310.951C262.991 310.607 256.737 311.214 249.533 312.428C260.062 349.794 275.473 384.811 298.061 417.4C313.894 393.651 364.137 368.582 370.18 374.176C365.878 361.405 361.709 349.662 358.938 346.258L358.912 346.284Z" fill="#7D7D7D"/>
<path d="M389.417 569.211C386.725 571.982 378.677 593.989 377.146 601.325C371.552 628.61 367.673 640.591 344.399 649.457C346.563 650.908 349.254 652.703 350.31 652.94C350.837 652.703 351.787 652.254 351.787 652.254C372.265 642.702 376.064 637.952 376.513 635.973C377.12 633.202 382.661 608.661 387.438 599.082C389.549 594.86 395.539 588.21 401.898 581.138C408.258 574.093 415.462 566.071 417.019 562.165C418.813 557.679 421.083 545.092 422.613 533.666C410.87 545.25 398.31 560.054 389.39 569.211H389.417Z" fill="#7D7D7D"/>
<path d="M139.706 467.564C150.261 507.146 163.455 546.728 213.593 544.089C237.342 544.089 255.814 588.949 266.369 620.615C266.369 578.394 261.091 536.173 239.981 499.23C224.148 467.564 168.733 478.119 142.345 454.37C141.685 453.71 141.105 452.998 140.524 452.285C138.994 457.378 138.413 462.471 139.706 467.564Z" fill="#7D7D7D"/>
<path d="M174.011 610.06C154.826 600.85 138.334 590.084 124.322 577.761C119.73 573.723 113.344 575.122 109.281 570.768C103.37 564.435 100.097 552.138 95.2684 545.092C80.9924 524.272 71.308 500.364 65.6609 473.369C62.0458 481.286 64.9221 492.685 69.9094 510.497L76.4537 536.569C81.3619 556.967 88.0908 584.912 91.7324 589.582C96.9309 596.259 113.133 601.906 136.196 605.072L140.498 605.653C160.658 608.397 164.854 608.978 170.923 616.789C172.929 619.375 175.567 623.887 178.602 629.112C183.616 637.767 191.216 650.829 195.253 652.175C198.552 653.283 204.251 650.671 209.344 648.322C192.984 636.105 182.666 614.334 174.063 610.033L174.011 610.06Z" fill="#7D7D7D"/>
<path d="M390.393 515.062C403.587 504.507 403.877 491.946 409.445 483.819C413.483 480.599 420.106 482.13 426.703 493.028C427.627 486.59 428.497 479.227 428.497 472.762C428.497 466.297 427.6 460.597 424.988 457.747C421.003 453.446 415.937 449.118 410.554 444.553C402.822 437.983 394.853 431.201 389.337 423.707C386.408 419.696 383.057 411.621 379.627 402.068C379.284 411.436 379.02 420.54 374.56 427.982C371.921 433.259 358.727 430.62 356.088 433.259C337.617 454.37 324.423 472.841 311.229 493.952C303.312 504.507 316.506 520.34 327.061 533.534C314.554 531.027 309.988 517.991 302.468 510.26C305.898 558.629 292.783 590.638 296.9 631.803C340.124 630.51 316.876 577.945 337.986 543.641C348.541 530.447 379.811 522.979 390.367 515.062H390.393Z" fill="#7D7D7D"/>
<path d="M106.853 574.807C111.629 578.606 123.477 579.081 138.861 584.122C150.631 587.974 167.493 594.123 170.237 596.181C173.456 598.609 177.071 609.85 179.974 618.901C182.56 626.923 181.848 630.512 187.125 637.003C192.403 643.495 196.176 641.146 190.503 634.47C184.83 627.794 185.357 618.532 183.088 611.486C179.526 600.377 177.071 596.049 172.744 592.803C169.445 590.323 158.046 586.602 144.878 582.274C130.549 577.577 114.294 572.273 110.125 568.922C102.868 563.117 79.0396 491.763 78.6966 481.208C78.3535 470.653 75.5564 469.201 74.6328 480.126C73.6828 491.024 97.9863 567.734 106.853 574.833V574.807Z" fill="#0E141B"/>
<path d="M247.845 533.351C248.267 541.637 260.273 602.54 260.273 617.634C260.273 618.558 262.595 631.013 261.434 632.755C260.273 634.496 248.135 630.617 241.195 628.163C233.305 625.392 238.477 626.026 225.916 623.677C213.355 621.329 219.293 625.736 225.916 627.899C232.539 630.063 234.149 630.142 239.796 632.148C256.368 637.98 264.469 640.355 267.134 637.003C271.779 631.198 254.785 547.759 251.803 531.873C248.821 515.987 247.422 525.038 247.845 533.324V533.351Z" fill="#0E141B"/>
<path d="M303.708 533.666C304.13 543.984 302.23 548.734 300.542 563.089C293.549 622.093 293.074 632.78 295.264 634.944C300.542 640.221 315.213 630.906 324.238 627.027C333.236 623.148 330.096 619.612 322.074 623.412C314.052 627.212 305.951 629.508 303.022 629.508C300.093 629.508 300.7 625.048 300.7 623.676C300.7 612.725 302.257 584.674 304.737 563.59C306.532 548.523 308.247 543.166 307.93 533.693C307.64 524.219 303.286 523.375 303.708 533.693V533.666Z" fill="#0E141B"/>
<path d="M405.276 550.344C395.803 560.978 387.2 566.467 384.456 573.064C381.975 579.001 376.909 597.763 374.296 608.503C372.555 615.681 371.103 618.32 369.916 625.075C368.729 631.83 372.608 633.519 373.874 626.553C375.141 619.613 376.539 617.106 378.387 609.48C380.841 599.426 383.875 586.891 386.197 581.271C388.678 575.333 399.629 563.036 408.416 553.141C413.799 547.098 417.204 544.67 420.608 538.786C424.012 532.901 426.439 524.589 423.378 527.544C420.344 530.474 410.316 544.67 405.25 550.344H405.276Z" fill="#0E141B"/>
<path d="M123.345 410.54C125.483 417.691 134.402 446.454 133.109 457.352C131.71 469.253 122.554 494.507 122.554 498.571C122.554 502.635 111.497 529.418 113.239 531.16C114.98 532.902 118.331 530.817 120.733 525.751C123.134 520.684 125.456 507.886 125.456 507.886C130.101 490.786 135.853 470.045 137.278 457.827C138.65 446.085 132.555 417.163 127.251 408.983C121.947 400.803 121.181 403.362 123.319 410.514L123.345 410.54Z" fill="#0E141B"/>
<path d="M379.046 402.624C380.023 413.311 378.307 419.591 378.307 419.591C378.835 426.241 379.152 432.258 377.067 437.984C374.692 444.555 371.79 453.342 378.175 445.188C384.588 437.034 384.72 431.545 383.954 421.702C383.954 421.702 385.168 413.76 382.846 406.213C380.524 398.639 378.044 391.963 379.046 402.65V402.624Z" fill="#0E141B"/>
<path d="M162.664 463.129C161.027 463.393 159.708 464.713 158.653 467.14C155.143 475.242 151.501 498.912 156.304 506.142C156.542 506.512 180.476 544.379 190.714 543.217C191.189 543.165 241.406 536.066 244.915 527.886C246.551 524.06 251.592 511.024 247.211 504.453C243.49 498.859 168.39 462.179 162.637 463.129H162.664Z" fill="#0E141B"/>
<path d="M162.294 504.453C160.684 502.026 160.394 495.508 159.814 488.436C158.943 477.88 163.138 467.615 163.402 467.352C170.29 468.011 240.033 502.237 243.754 506.828C244.467 507.884 243.121 521.447 241.063 526.223C238.899 530.182 206.257 536.805 194.118 538.151C189.078 538.705 170.21 516.302 162.294 504.453Z" fill="white"/>
<path d="M243.464 514.745C243.939 510.786 244.071 507.33 243.728 506.828C240.007 502.263 170.263 468.011 163.376 467.352C163.138 467.589 159.233 477.115 159.708 487.222C188.84 490.283 216.997 498.621 243.438 514.745H243.464Z" fill="#DCDDDD"/>
<path d="M303.471 499.071C300.647 501.499 301.465 514.086 303.391 518.836L303.708 519.601C305.423 523.928 321.414 535.038 331.495 538.152C335.611 539.445 342.288 539.814 343.95 538.706C347.011 536.648 376.434 517.938 377.436 507.964C378.255 499.81 377.753 477.934 374.375 470.888C372.898 467.827 370.971 464.37 367.567 463.658C348.489 459.621 303.919 498.675 303.471 499.071Z" fill="#0E141B"/>
<path d="M366.169 469.331C368.28 469.779 369.652 470.861 370.549 472.735C372.924 477.722 372.37 493.449 371.183 505.43C370.496 512.291 347.697 531.158 341.601 535.222C332.471 538.072 309.698 521.843 307.614 517.99L307.323 517.252C306.294 514.718 308.141 499.677 309.382 498.595C309.382 498.595 351.84 466.323 366.195 469.331H366.169Z" fill="white"/>
<path d="M371.763 477.721C371.499 475.61 371.103 473.869 370.549 472.734C369.652 470.861 368.253 469.779 366.169 469.33C351.84 466.295 309.355 498.595 309.355 498.595C308.458 499.36 307.244 507.355 307.033 512.739C333.342 487.67 371.763 477.748 371.763 477.748V477.721Z" fill="#DCDDDD"/>
<path d="M231.457 515.72C231.457 518.227 229.61 520.259 227.341 520.259C225.072 520.259 223.224 518.227 223.224 515.72C223.224 513.214 225.072 511.182 227.341 511.182C229.61 511.182 231.457 513.214 231.457 515.72Z" fill="#0E141B"/>
<path d="M324.634 514.902C324.634 517.409 322.787 519.441 320.517 519.441C318.248 519.441 316.401 517.409 316.401 514.902C316.401 512.395 318.248 510.363 320.517 510.363C322.787 510.363 324.634 512.395 324.634 514.902Z" fill="#0E141B"/>
<path d="M286.081 273.373C284.577 273.373 283.679 279.786 283.257 281.395C278.666 298.178 287.347 389.719 294.736 402.279C295.422 403.467 296.214 404.153 297.164 404.39C303.655 406 308.141 399.218 313.445 382.198L315.187 373.463C317.192 367.473 306.584 311.794 303.814 302.77C301.307 294.616 291.57 273.294 286.107 273.373H286.081Z" fill="#0E141B"/>
<path d="M286.107 298.362C286.107 291.897 286.424 286.778 287.136 283.506C290.145 285.749 297.243 295.75 299.776 304.009C303.233 315.251 310.622 363.013 310.622 372.962C310.622 373.674 310.595 374.202 310.49 374.492L309.777 376.735C303.286 397.555 299.75 400.168 298.483 400.3C293.944 394.811 286.081 330.899 286.081 298.389L286.107 298.362Z" fill="#7D7D7D"/>
<path d="M235.785 85.0679C234.36 85.9651 232.803 89.897 232.539 91.2164C230.587 100.954 208.289 320.529 207.603 336.257C206.758 355.837 267.108 422.73 274.127 423.918C277.584 424.498 301.148 424.129 304.975 419.036C308.854 413.89 303.655 341.666 303.576 340.98C303.128 337.47 301.016 332.14 298.747 326.493C296.557 321.031 294.076 314.829 293.681 311.32C293.39 308.628 292.361 283.559 291.147 254.532C287.954 177.083 287.242 146.473 285.289 136.762C285.184 136.235 261.804 84.5402 255.787 83.0361C252.462 82.218 240.746 81.8486 235.759 85.0152L235.785 85.0679Z" fill="#0E141B"/>
<path d="M255.312 87.3372C259.402 91.7176 278.613 133.332 280.328 138.451C281.305 142.594 284.075 210.095 285.896 254.77C286.978 281 287.664 304.934 288.456 311.927C288.931 316.149 291.438 322.429 293.865 328.472C295.897 333.565 298.008 338.816 298.351 341.64C298.932 346.284 299.671 372.197 299.671 392.384C299.671 404.232 299.407 414.022 298.747 416.476C296.187 418.35 280.935 419.59 275.262 418.746C268.348 415.315 212.906 354.016 212.906 336.837C212.906 336.731 212.906 336.626 212.906 336.52C213.593 320.925 236.234 101.613 238.371 89.7649C240.033 87.8914 251.644 86.7567 255.312 87.3636V87.3372Z" fill="#9FA0A0"/>
<path d="M298.351 341.641C298.008 338.817 295.897 333.566 293.865 328.473C291.438 322.404 288.931 316.15 288.456 311.928C287.691 304.935 286.978 281.001 285.896 254.771C284.049 210.096 281.278 142.595 280.328 138.452C278.613 133.333 259.429 91.6922 255.312 87.3382C251.618 86.7313 240.034 87.866 238.371 89.7395C238.239 90.4784 261.091 124.941 263.123 137.08C273.678 216.244 254.494 271.554 272.966 348.079C278.033 366.683 274.233 398.19 271.752 416.029C273.335 417.454 274.549 418.43 275.262 418.773C280.935 419.617 296.188 418.351 298.747 416.504C299.433 414.05 299.671 404.26 299.671 392.411C299.671 372.224 298.958 346.338 298.351 341.667V341.641Z" fill="#7D7D7D"/>
<path d="M239.532 96.4417C244.335 103.171 256.315 125.363 259.271 133.596C262.226 141.829 263.493 133.491 263.493 133.491C263.493 129.005 246.208 98.2361 240.825 92.6682C235.468 87.1267 239.532 96.4417 239.532 96.4417Z" fill="#0E141B"/>
<path d="M263.414 308.627C263.414 308.627 268.876 322.323 267.583 308.02C266.29 293.718 267.319 160.564 265.947 149.454C264.575 138.345 262.226 144.731 262.226 144.731C261.091 152.594 262.754 304.089 263.414 308.601V308.627Z" fill="#0E141B"/>
<path d="M263.651 324.197C265.709 332.139 268.401 337.681 269.905 343.961L271.752 351.06C273.177 355.335 273.414 410.512 272.491 416.027C272.491 416.027 278.481 428.298 278.587 417.056C278.719 405.815 277.61 355.361 275.737 349.714L273.995 342.985C272.438 336.467 271.172 328.788 267.319 322.138C265.683 319.341 261.566 316.254 263.624 324.197H263.651Z" fill="#0E141B"/>
<path d="M206.547 279.839C205.439 284.8 192.852 329.316 192.852 333.934C192.852 339.054 225.969 397.371 230.824 401.409C231.748 402.174 251.565 405.868 251.961 401.725C252.621 394.363 248.742 371.669 246.182 356.681L244.52 346.785C243.886 342.669 243.622 334.752 243.332 326.387C242.883 312.718 242.382 298.574 240.297 292.769C239.427 290.394 229.98 265.246 218.026 264.059L215.704 266.381C211.007 265.906 208.632 270.55 206.573 279.839H206.547Z" fill="#0E141B"/>
<path d="M233.146 396.738C228.502 392.885 200.61 337.233 200.003 332.958C200.003 329.95 206.547 299.313 210.69 280.762C211.904 275.274 215.202 269.495 219.187 269.89C219.187 269.89 232.566 283.902 236.313 294.22C238.186 299.392 238.688 313.8 239.11 326.519C239.4 335.016 239.664 343.038 240.35 347.419L242.013 357.367C244.388 371.247 248.9 391.672 248.293 398.48C248.135 400.116 237.078 400.01 233.173 396.738H233.146Z" fill="#9FA0A0"/>
<path d="M241.986 357.367L240.324 347.419C239.638 343.038 239.374 335.016 239.083 326.519C238.661 313.8 238.16 299.366 236.286 294.22C232.539 283.902 219.16 269.89 219.16 269.89C217.313 269.706 215.651 270.867 214.226 272.687C220.796 280.314 226.707 293.033 226.707 299.287C228.66 330.425 225.282 338.104 230.56 368.186C233.12 372.619 232.143 395.946 233.12 396.764C237.052 400.037 248.108 400.169 248.24 398.506C248.847 391.698 244.335 371.274 241.96 357.393L241.986 357.367Z" fill="#7D7D7D"/>
<path d="M136.803 379.692C140.603 384.521 143.664 412.043 144.271 426.715L144.641 434.632L144.852 440.332C145.168 452.655 143.638 469.834 162.03 470.625C175.858 471.232 215.255 491.419 233.595 501.737C242.224 506.592 245.021 507.225 246.024 507.463C247.158 507.753 248.293 507.516 249.269 506.83C251.011 505.589 255.312 496.538 254.415 489.123C253.518 481.708 250.589 477.618 250.008 482.869C249.428 488.12 250.008 496.248 247.686 499.151C245.364 502.053 241.353 500.312 236.366 497.515C216.311 486.22 173.931 463.87 159.207 461.891C150.472 460.73 149.443 454.951 149.047 440.2L148.836 434.368L148.467 426.531C147.807 410.381 148.467 385.497 140.155 377.132C131.842 368.767 132.977 374.836 136.777 379.665L136.803 379.692Z" fill="#0E141B"/>
<path d="M369.098 454.184C367.567 460.148 359.756 461.731 343.132 470.044C336.456 473.395 323.288 484.478 312.865 492.764C308.616 496.141 306.452 499.73 303.55 498.569C300.647 497.408 298.378 492.157 296.583 485.19C294.789 478.224 292.361 480.757 292.414 485.876C292.467 490.996 296.187 501.604 300.357 504.322C300.357 504.322 302.732 509.679 315.477 496.062C323.394 487.618 338.963 479.57 344.583 475.981C359.387 466.534 372.053 462.76 373.294 454.158C374.534 445.582 370.602 448.194 369.071 454.158L369.098 454.184Z" fill="#0E141B"/>
</g>
<defs>
<clipPath id="clip0_42_66953">
<rect width="710.5" height="720" fill="white" transform="translate(55 70)"/>
</clipPath>
</defs>
</svg>
