<svg width="800" height="800" viewBox="0 0 800 800" fill="none" xmlns="http://www.w3.org/2000/svg">
<g clip-path="url(#clip0_42_67089)">
<path d="M524.678 287.205C520.178 279.076 514.885 271.374 508.752 264.354C499.989 254.307 489.562 245.623 477.407 238.936C475.997 238.159 474.555 237.414 473.081 236.685C447.552 224.119 414.273 220.189 379.442 230.774C352.835 212.138 327.131 209.064 312.932 216.94C309.509 218.826 322.789 242.897 331.996 254.465C318.526 264.053 305.262 276.192 292.537 291.214C252.159 338.898 222.225 403.553 209.325 463.201C209.69 466.972 211.528 470.839 216.995 472.123C227.026 474.5 235.488 459.968 249.275 465.514C265.154 471.901 256.295 494.15 275.629 501.17C295.96 508.57 309.303 490.172 328.446 496.796C353.278 505.401 346.401 530.217 368.064 537.095C395.288 545.731 402.261 520.123 426.174 524.417C446.775 528.11 448.312 548.251 462.099 550.834C479.008 554.003 485.394 532.468 498.024 532.563C502.493 532.594 507.025 535.938 508.435 542.435C509.402 535.209 509.687 527.793 509.228 520.234C506.882 482.28 493.222 451.141 473.968 419.701C471.243 415.248 468.39 410.779 465.459 406.279C469.484 405.993 473.493 405.423 477.486 404.536C478.516 408.133 479.435 412.11 480.212 416.548C480.355 417.372 480.576 418.148 480.862 418.861C482.763 423.584 489.958 425.723 497.596 424.091C500.718 423.425 502.429 430.524 513.348 429.447C519.259 428.861 521.557 423.076 524.124 423.267C526.897 423.457 528.894 422.062 530.431 419.337C534.266 412.522 536.833 404.916 539.067 396.786C548.163 363.587 543.663 321.498 524.694 287.221L524.678 287.205Z" fill="#FFEC40"/>
<path d="M517.294 227.828C505.63 222.9 480.751 229.683 473.097 236.671C474.57 237.4 476.013 238.145 477.423 238.921C489.577 245.609 500.005 254.293 508.768 264.34C516.327 252.344 520.273 233.755 517.294 227.828Z" fill="#FFEC40"/>
<path d="M491.352 680.59C527.118 645.79 539.305 600.548 508.657 546.795C498.245 607.441 446.695 646.821 391.247 658.31C402.879 665.964 417.838 679.529 419.296 686.359C412.434 690.59 410.026 700.621 425.873 707.482C438.471 712.934 461.718 717.545 486.249 718.559C486.154 718.48 486.075 718.401 486.043 718.306C482.874 707.023 504.584 692.349 512.983 693.949C512.999 693.949 513.03 693.949 513.046 693.949C510.178 690.986 501.526 683.047 491.336 680.59H491.352Z" fill="#763B01"/>
<path d="M498.008 532.563C485.394 532.468 478.991 554.004 462.083 550.834C448.296 548.251 446.759 528.126 426.158 524.418C402.261 520.123 395.272 545.732 368.047 537.095C346.385 530.234 353.262 505.401 328.43 496.797C309.287 490.173 295.944 508.571 275.612 501.17C256.295 494.15 265.138 471.901 249.259 465.515C235.456 459.968 227.01 474.5 216.979 472.123C211.512 470.824 209.674 466.973 209.309 463.201C203.05 492.169 200.371 519.933 202.907 544.004C180.246 601.307 186.252 634.459 205.918 664.409C211.86 673.474 208.279 679.099 204.412 683.521C192.305 697.355 189.912 707.227 200.894 712.045C200.53 711.474 200.276 710.967 200.213 710.571C199.199 704.74 210.608 696.452 232.889 698.48C256.39 700.619 266.802 715.927 264.615 720.539C282.712 707.861 270.224 700.984 273.093 694.788C278.243 683.695 299.7 676.199 318.336 655.06C342.423 662.618 367.477 664.108 391.231 659.196C448.581 647.31 499.545 602.384 509.085 546.794C509.338 545.351 509.56 543.909 509.75 542.451C508.34 535.97 502.461 532.611 497.992 532.579L498.008 532.563Z" fill="#763B01"/>
<path d="M650.503 272.737C644.465 263.277 632.152 261.613 629.157 258.903C626.811 256.779 627.144 254.846 627.303 253.277C633.546 249.411 643.546 247.192 641.961 244.672C640.947 241.662 632.691 235.513 622.786 235.339C615.021 235.212 605.735 239.633 602.677 239.617C588.573 239.506 580.998 244.498 567.211 257.604C556.705 267.603 540.969 281.643 524.678 287.221C543.631 321.514 548.147 363.588 539.051 396.787C557.069 383.666 572.678 364.316 588.89 336.553C601.837 314.367 615.845 289.947 624.783 282.515C636.763 277.143 653.482 277.428 650.487 272.753L650.503 272.737Z" fill="#FFEC40"/>
<path d="M477.47 404.537C473.477 405.425 469.467 405.995 465.442 406.28C468.39 410.765 471.226 415.234 473.952 419.703C476.297 419.449 478.579 419.18 480.846 418.863C480.56 418.15 480.338 417.373 480.196 416.549C479.419 412.128 478.516 408.134 477.47 404.537Z" fill="#FFEC40"/>
<path d="M513.062 693.949C513.062 693.949 513.015 693.949 512.999 693.949C504.616 692.348 482.89 707.022 486.059 718.305C486.091 718.4 486.154 718.48 486.265 718.559C489.102 720.793 520.273 719.415 525.883 713.155C532.586 705.675 516.39 694.678 513.062 693.949Z" fill="#FFEC40"/>
<path d="M232.905 698.465C210.624 696.436 199.215 704.724 200.229 710.556C200.292 710.952 200.546 711.459 200.91 712.03C203.667 716.261 214.222 724.501 224.982 726.403C241.446 729.319 262.158 723.994 264.44 720.936C264.535 720.809 264.567 720.651 264.63 720.508C266.817 715.896 256.39 700.588 232.905 698.449V698.465Z" fill="#FFEC40"/>
<path d="M378.697 251.407C360.282 254.18 353.231 263.482 350.774 262.104C337.304 254.576 320.887 223.818 325.023 222.693C340.87 218.335 374.148 238.936 378.697 251.407Z" fill="#A4611D"/>
<path d="M441.466 496.354C437.948 481.886 421.245 476.086 413.671 473.012C397.808 457.688 379.837 438.719 370.979 422.745C357.509 398.452 350.109 377.201 334.531 371.766C325.752 368.708 299.589 357.314 287.197 363.193C270.953 370.91 258.862 397.977 258.862 397.977C275.47 459.685 300.064 480.777 354.926 500.379C360.314 502.297 366.019 505.53 369.188 511.472C372.358 517.415 374.925 525.734 376.113 530.488C377.936 537.762 389.663 528.191 394.068 509.998C400.454 511.028 408.774 520.869 412.466 525.037C417.379 530.599 420.627 529.696 422.688 522.708C424.019 518.207 423.654 509.444 421.515 501.869C428.171 501.504 442.211 499.508 441.45 496.338L441.466 496.354Z" fill="#FFEC40"/>
<path d="M455.522 341.435C455.855 320.913 440.214 311.674 425.524 315.779C421.816 316.809 422.798 318.108 424.938 319.962C432.18 326.222 442.037 334.969 451.893 344.43C454.112 346.553 455.792 344.715 455.522 341.451V341.435Z" fill="white"/>
<path d="M509.117 546.334C499.577 601.925 448.597 646.851 391.263 658.736C402.895 666.39 417.854 679.512 419.312 686.342C408.917 692.744 412.387 702.379 427.236 708.812C428.741 709.462 448.708 714.612 450.467 715.23C446.616 701.095 490.639 684.646 505.725 687.213C502.667 685.407 495.013 681.445 491.368 680.573C531.255 641.764 540.287 600.99 509.117 546.318V546.334Z" fill="#542500"/>
<path d="M338.461 610.403C339.84 633.397 315.61 658.182 318.367 655.044C342.455 662.603 368.412 663.649 392.15 658.736C435.682 649.719 474.76 622.162 495.25 585.096C444.524 626.44 366.494 620.957 338.461 610.403Z" fill="#542500"/>
<path d="M274.313 703.709C273.537 700.318 271.857 697.482 273.109 694.772C277.578 685.137 294.328 678.212 310.872 662.745C266.754 659.037 220.687 636.566 188.265 607.852C188.249 631.353 196.458 648.879 206.362 663.965C211.924 672.459 207.519 679.971 204.413 683.52C202.986 685.153 201.655 686.88 200.451 688.655C223.064 682.237 259.512 691.745 274.313 703.709Z" fill="#542500"/>
<path d="M539.051 396.771C555.611 384.711 570.127 367.391 584.944 343.129C573.138 352.732 558.606 358.833 543.552 361.21C543.568 373.634 542.094 385.694 539.051 396.771Z" fill="#DECC38"/>
<path d="M477.47 404.537C473.477 405.425 469.467 405.995 465.442 406.28C468.39 410.765 471.226 415.234 473.952 419.703C476.297 419.449 478.579 419.18 480.846 418.863C480.56 418.15 480.338 417.373 480.196 416.549C479.419 412.128 478.516 408.134 477.47 404.537Z" fill="#DECC38"/>
<path d="M485.774 716.529C485.806 717.132 485.885 717.718 486.059 718.288C486.091 718.384 486.154 718.463 486.265 718.542C489.102 720.776 520.273 719.398 525.882 713.138C528.164 710.587 527.784 707.623 526.168 704.803C515.851 714.453 499.529 719.588 485.79 716.514L485.774 716.529Z" fill="#DECC38"/>
<path d="M260.241 710.35C254.187 725.69 228.642 721.221 214.871 719.7C212.32 719.414 209.879 718.971 207.502 718.4C212.161 721.855 218.516 725.262 224.966 726.403C241.431 729.319 262.143 723.994 264.424 720.936C264.52 720.809 264.551 720.65 264.615 720.508C265.565 718.495 264.123 714.438 260.225 710.334L260.241 710.35Z" fill="#DECC38"/>
<path d="M325.007 222.677C323.217 223.168 325.292 229.222 329.302 236.543C346.068 237.779 362.945 242.866 377.445 251.613C377.857 251.534 378.253 251.455 378.697 251.391C374.148 238.92 340.87 218.319 325.023 222.677H325.007Z" fill="#824B0F"/>
<path d="M465.443 406.28C452.195 409.148 416.539 402.144 393.561 381.543C403.465 403.982 445.872 435.391 469.103 434.234C477.027 433.838 481.781 430.668 479.007 427.103C476.234 423.537 465.443 406.28 465.443 406.28Z" fill="#DECC38"/>
<path d="M261.493 405.312C261.493 405.312 275.058 433.457 302.346 456.355C338.747 486.924 366.827 493.849 372.025 500.394C377.857 507.715 379.695 522.595 377.017 533.308C372.025 517.413 369.68 507.683 364.498 505.544C347.066 498.413 326.069 489.301 310.222 480.981C294.375 472.662 268.688 442.331 261.493 405.312Z" fill="#DECC38"/>
<path d="M395.922 500.41C395.922 500.41 411.722 511.329 414.891 527.413C414.891 527.413 403.117 513.626 393.625 509.887L395.922 500.41Z" fill="#DECC38"/>
<path d="M417.474 492.93C417.474 492.93 432.703 494.087 438.741 498.682C438.741 498.682 427.537 502.422 421.499 502.137L417.474 492.946V492.93Z" fill="#DECC38"/>
<path d="M501.193 255.386C501.193 255.386 511.858 252.343 517.943 239.396C517.943 239.396 515.281 256.147 509.18 263.769L501.193 255.386Z" fill="#DECC38"/>
<path d="M590.871 259.125C592.772 257.445 618.935 245.132 633.277 249.981C630.535 251.899 620.647 255.528 632.247 261.327C625.94 263.704 626.32 275.954 639.362 278.331C629.347 281.627 623.594 282.372 622.343 284.48C617.145 293.148 610.964 295.62 606.353 294.606C600.22 293.259 598.002 283.545 602.803 277.745C609.522 276.477 620.98 269.077 621.297 263.895C621.297 263.895 609.253 250.9 590.871 259.141V259.125Z" fill="#DECC38"/>
<path d="M288.908 290.818C231.875 358.167 192.686 461.093 201.006 546.349C201.703 544.971 203.525 542.039 204.349 540.66C197.852 466.117 235.346 360.798 293.551 292.086C305.991 277.396 319.017 265.463 332.265 255.971C331.521 254.957 331.029 253.816 330.776 252.611C316.577 262.516 302.172 275.146 288.892 290.818H288.908Z" fill="#0E141B"/>
<path d="M540.525 318.155C530.288 282.182 507.706 252.771 478.722 236.829C451.466 221.838 415.43 217.511 378.031 228.889C379.077 229.571 380.091 230.839 381.026 231.774C416.682 221.235 450.879 225.878 476.757 240.109C505.107 255.702 526.247 283.72 536.278 318.979C546.357 354.413 543.489 392.604 528.799 418.656C527.784 420.447 527.499 421.239 524.393 421.017C522.698 420.89 521.398 422.221 520.004 423.632C515.392 428.323 508.847 429.463 501.494 424.392C499.941 423.315 498.579 422.396 496.883 422.76C489.467 424.345 482.494 421.968 481.511 416.311C477.106 391.177 468.675 378.532 453.098 374.491C434.589 369.689 415.446 367.28 411.088 352.368C409.725 347.709 407.57 349.785 408.869 354.46C413.56 371.337 430.152 372.557 452.179 377.565C466.251 380.766 474.206 393.269 478.405 417.198C479.673 424.456 487.613 426.96 497.438 425.803C497.992 425.739 498.753 426.199 499.957 427.023C509.133 433.33 516.026 431.904 521.921 425.93C522.729 425.106 523.743 424.028 524.187 424.107C527.911 424.884 529.274 424.995 531.318 421.366C546.357 394.711 550.778 354.222 540.509 318.123L540.525 318.155Z" fill="#0E141B"/>
<path d="M393.846 379.547C389.884 375.522 389.187 378.58 393.149 382.605C411.214 400.94 444.43 414.426 477.93 407.168C477.819 406.28 477.169 404.157 477.011 403.254C445.079 410.29 410.47 396.424 393.846 379.547Z" fill="#0E141B"/>
<path d="M519.465 224.913C516.501 221.141 485.505 224.041 472.399 235.483C473.065 236.021 473.873 236.56 474.681 237.099C482.478 230.855 505.266 224.754 516.248 228.922C518.181 233.803 515.693 250.616 507.817 263.357C508.721 263.437 510.163 264.815 510.844 265.449C518.403 252.898 523.474 229.968 519.481 224.897L519.465 224.913Z" fill="#0E141B"/>
<path d="M602.692 238.254C587.638 237.446 580.982 241.788 566.641 255.432C563.788 258.174 538.75 283.925 524.06 283.767C523.315 283.767 524.694 289.107 525.407 288.901C545.152 283.354 565.104 261.486 568.146 258.554C581.917 245.449 589.207 240.536 602.677 240.932C605.466 241.012 616.558 236.432 622.77 236.654C634.022 237.066 640.028 243.626 640.709 245.116C640.17 245.877 637.08 247.192 634.751 248.174C629.616 250.33 625.449 251.787 623.135 255.512C621.217 258.602 622.501 261.486 624.26 257.904C625.75 254.878 631.312 252.532 635.781 250.647C644.306 247.065 645.843 246.384 644.449 243.991C643.023 240.441 632.833 232.819 622.453 232.597C614.784 232.438 604.356 238.318 602.677 238.223L602.692 238.254ZM643.118 244.023C643.118 244.023 643.213 244.165 643.229 244.229C643.197 244.133 643.15 244.038 643.086 243.943C643.086 243.975 643.086 243.991 643.118 244.023Z" fill="#0E141B"/>
<path d="M473.397 418.403C473.667 419.354 475.156 421.398 475.568 422.222C478.12 422.016 480.576 421.731 483.017 421.414C482.002 420.352 481.258 419.005 480.608 417.674C478.262 417.959 475.87 418.213 473.413 418.403H473.397Z" fill="#0E141B"/>
<path d="M652.975 272.008C648.617 265.178 640.282 262.056 635.306 260.075C629.696 257.825 628.539 257.128 628.539 253.277C628.539 252.897 625.813 254.259 625.813 254.814C625.813 258.934 628.697 260.662 633.784 262.69C642.817 266.303 647.84 270.265 649.473 273.751C649.061 274.734 644.006 275.827 640.313 276.604C633.055 278.157 625.243 280.359 623.912 281.453C615.243 288.663 597.606 319.675 589.667 332.511C577.623 352.003 563.472 376.281 540.018 394.14C540.113 396.39 539.733 398.514 539.067 400.558C565.246 382.302 580.396 355.965 593.264 334.001C603.865 315.904 617.208 291.563 625.512 284.559C630.393 282.404 637.096 280.708 641.771 279.694C647.872 278.394 651.39 277 653.561 275.78C654.306 275.368 654.243 274.005 652.959 271.992L652.975 272.008Z" fill="#0E141B"/>
<path d="M620.013 260.045C613.357 255.751 599.888 252.898 590.712 257.858C586.655 260.045 587.21 262.803 591.251 260.616C601.124 255.275 615.861 260.727 619.062 264.134C616.955 268.761 604.119 276.97 594.975 277.857C590.427 278.301 592.107 280.488 596.702 280.028C604.42 279.268 616.337 273.531 621.376 267.937C625.354 263.532 625.021 263.262 620.013 260.029V260.045Z" fill="#0E141B"/>
<path d="M600.522 277.428C600.949 279.33 599.904 282.103 598.049 283.624C596.005 285.32 597.669 286.651 600.807 284.132C602.376 282.864 604.594 279.267 604.055 276.842C603.897 276.113 600.363 276.699 600.522 277.428Z" fill="#0E141B"/>
<path d="M512.381 519.601C509.719 476.656 491.447 442.252 466.679 405.741C465.649 405.599 464.048 405.789 462.875 405.979C487.707 443.679 505.202 477.306 507.865 520.314C510.353 560.423 491.495 599.232 456.14 626.805C416.872 657.437 364.751 667.801 319.73 654.046C319.001 654.68 318.352 656.344 317.718 657.152C366.209 672.476 419.075 661.241 458.914 630.165C496.392 600.927 515.123 563.909 512.365 519.585L512.381 519.601Z" fill="#0E141B"/>
<path d="M507.643 549.329C536.215 600.324 526.802 647.041 486.012 683.758C482.225 687.165 485.774 687.656 489.562 684.233C532.871 645.012 542.268 601.164 509.64 543.988C509.275 543.339 507.294 548.679 507.643 549.329Z" fill="#0E141B"/>
<path d="M386.763 659.465C394.417 662.318 415.541 678.782 417.712 685.882C404.559 693.663 413.639 704.391 426.095 709.779C440.705 716.118 464.888 719.636 488.23 720.349C488.975 720.365 486.376 716.974 485.631 716.942C462.622 716.229 442.068 712.425 427.759 706.229C420.437 703.06 416.222 698.924 415.905 694.598C415.715 691.84 417.236 689.194 420.009 687.498C420.501 687.197 420.738 686.627 420.612 686.072C418.932 678.244 406.143 666.739 394.718 658.578C394.116 658.15 386.335 659.323 386.747 659.481L386.763 659.465Z" fill="#0E141B"/>
<path d="M490.845 681.841C500.401 684.06 508.641 691.556 511.351 694.012L514.98 693.948C510.384 688.988 500.654 681.176 493.381 678.498C493.032 678.371 490.116 681.667 490.845 681.826V681.841Z" fill="#0E141B"/>
<path d="M513.696 693.062C504.521 691.303 488.12 701.175 484.253 712.126C482.05 718.353 482.668 720.382 489.704 720.921C499.561 721.665 522.935 720.461 528.006 714.788C535.85 706.025 518.038 693.886 513.696 693.046V693.062ZM524.869 712.252C519.972 717.735 491.02 719.273 487.311 717.577C486.757 715.089 487.486 711.016 492.018 706.072C497.945 699.607 507.992 694.583 512.746 695.264C515.978 695.724 523.87 701.524 525.788 707.229C526.437 709.178 526.136 710.826 524.869 712.252Z" fill="#0E141B"/>
<path d="M501.447 698.084C508.435 700.873 518.593 709.398 518.593 717.1C518.593 717.845 521.271 716.244 521.223 715.832C520.526 708.606 513.078 700.73 504.093 697.038C503.031 696.768 501.193 696.768 501.447 698.099V698.084Z" fill="#0E141B"/>
<path d="M206.552 532.69C171.308 601.196 186.077 638.342 202.97 664.077C208.834 673.015 208.216 676.105 202.495 682.65C195.538 690.605 190.99 698.813 191.941 704.835C192.511 708.432 196.663 712.759 201.021 714.533C201.703 714.819 200.451 710.255 200.07 709.954C198.137 708.448 196.964 706.515 196.616 704.217C195.792 698.988 199.009 691.777 205.442 684.424C208.184 681.287 213.889 672.951 207.518 663.237C191.022 638.104 178.392 602.892 209.8 532.247C212.241 526.748 209.341 527.334 206.583 532.69H206.552Z" fill="#0E141B"/>
<path d="M317.179 547.206C339.888 575.207 341.361 614.666 329.73 635.584C317.734 657.136 302.283 667.927 289.51 676.976C281.175 682.871 273.695 688.433 271.001 694.217C269.86 696.674 271.54 699.114 272.285 701.491C273.711 705.992 275.311 711.047 264.9 718.701C264.393 719.065 264.139 722.362 264.821 722.06C279.875 715.294 277.34 707.973 275.739 702.917C275.058 700.778 273.6 696.832 274.329 695.343C276.5 690.905 283.045 685.739 291.047 680.066C303.36 671.35 322.06 659.481 334.357 637.39C346.416 615.712 344.055 575.809 320.649 546.936C316.719 542.087 313.233 542.341 317.179 547.19V547.206Z" fill="#0E141B"/>
<path d="M200.546 704.803C198.707 706.8 197.44 709.034 197.788 711.079C198.945 717.718 216.028 727.559 224.522 729.065C241.668 732.107 261.715 727.448 265.977 721.791C266.928 720.523 267.023 718.051 265.835 715.405C262.412 707.719 250.384 697.846 233.032 696.262C216.028 694.709 204.777 700.224 200.546 704.819V704.803ZM225.219 725.087C213.493 723.011 202.004 712.933 201.544 710.334C201.338 709.129 201.908 707.719 203.176 706.356C206.805 702.426 216.725 698.354 232.778 699.811C251.509 701.507 260.685 711.459 262.919 716.467C264.044 718.97 263.838 719.493 263.363 720.143C261.524 722.599 241.605 727.987 225.219 725.087Z" fill="#0E141B"/>
<path d="M232.398 698.274C220.513 708.907 220.085 718.589 222.541 725.419C222.779 726.101 226.503 726.164 226.043 725.578C222.874 721.569 226.772 706.403 235.092 699.541C235.662 699.066 232.968 697.767 232.414 698.274H232.398Z" fill="#0E141B"/>
<path d="M314.057 212.584C307.845 214.977 308.432 217.1 310.111 221.696C317.29 241.33 328.288 254.404 343.009 266.178C348.191 269.997 349.729 267.778 344.547 263.959C328.383 249.84 319.287 234.849 314.564 221.965C313.281 218.495 314.089 217.607 317.543 216.339C333.676 210.508 362.01 215.832 391.216 241.774C395.082 245.212 396.303 242.566 392.483 239.08C363.103 212.283 332.17 205.595 314.057 212.584Z" fill="#0E141B"/>
<path d="M323.312 220.49C322.884 220.601 321.885 221.045 321.695 222.566C320.935 228.889 340.553 258.666 349.808 263.848C351.408 264.735 353.468 263.087 356.384 261.296C360.552 258.745 367.525 254.45 378.887 252.739C379.933 252.58 380.773 252.026 380.376 250.932C375.828 238.493 340.252 215.816 323.296 220.475L323.312 220.49ZM376.732 250.394C365.892 252.343 359.11 256.463 354.99 258.983C353.548 259.87 351.915 260.868 351.377 260.884C339.412 254.149 325.673 229.19 325.673 224.199C325.673 224.088 325.705 224.024 325.705 223.945C340.712 220.189 370.615 238.857 376.716 250.409L376.732 250.394Z" fill="#0E141B"/>
<path d="M333.422 373.413C345.497 380.021 354.055 395.409 364.339 414.33L369.791 424.297C379.648 442.094 396.968 458.384 412.435 473.106C415.255 475.784 417.141 473.803 414.289 471.157C394.544 452.854 381.232 436.927 371.55 419.464L366.114 409.512C355.624 390.211 349.015 378.563 336.243 371.575C328.89 367.55 326.069 369.372 333.422 373.413Z" fill="#0E141B"/>
<path d="M414.621 474.865C422.418 477.971 436.902 483.74 440.103 496.56C439.168 498.113 429.026 500.252 420.833 500.585C420.105 500.617 420.2 503.311 420.944 503.279C423.638 503.168 433.21 502.819 438.978 500.918C443.827 499.317 445.475 498.731 442.845 492.55C437.821 480.745 423.195 475.372 415.636 472.362C401.183 466.625 407.189 471.902 414.637 474.865H414.621Z" fill="#0E141B"/>
<path d="M414.669 491.567C421.071 497.589 423.544 515.163 421.404 522.342C419.661 528.221 418.045 529.631 412.799 523.387C409.186 519.093 400.724 509.648 394.195 508.65C393.942 508.602 392.547 511.661 393.292 511.708C398.838 512.041 407.697 522.579 409.868 525.162C419.075 536.081 421.816 532.991 424.621 523.514C427.093 515.163 424.78 497.985 417.173 490.838C413.227 487.13 410.708 487.859 414.653 491.567H414.669Z" fill="#0E141B"/>
<path d="M257.61 399.972C272.538 465.673 301.649 483.691 354.467 502.565C361.075 504.926 365.052 507.446 367.54 512.121C370.504 517.683 372.611 526.668 373.911 531.818C375.052 536.35 378.871 541.12 387.397 529.314C391.58 523.53 395.463 514.307 396.588 503.294C397.412 495.244 394.94 493.897 394.1 501.947C392.895 513.689 388.363 522.849 384.227 527.714C379.885 532.832 378.015 532.563 377.429 530.154C376.098 524.861 373.467 516.621 370.377 510.821C367.556 505.528 362.644 501.693 355.386 499.094C303.44 480.522 277.356 461.474 260.162 397.611C258.545 391.605 256.248 393.887 257.626 399.94L257.61 399.972Z" fill="#0E141B"/>
<path d="M411.785 524.07C407.3 525.528 403.338 527.873 399.456 530.187C390.74 535.385 382.5 540.282 368.475 535.829C358.508 532.675 354.879 525.417 351.012 517.731C346.876 509.491 342.534 499.714 329.238 495.118C319.429 491.727 310.698 495.039 302.568 497.844C294.058 500.775 286.008 503.548 276.072 499.935C266.548 496.465 264.377 489.255 262.095 481.616C260.035 474.707 258.118 467.101 249.988 463.836C241.621 460.477 234.886 464.423 229.149 467.497C224.871 469.779 221.163 471.76 217.28 470.841C212.035 469.589 210.212 464.264 210.228 460.92C210.228 458.369 206.092 463.583 208.913 468.448C210.387 470.999 213.287 473.218 216.567 473.994C221.448 475.151 225.837 472.298 230.401 469.858C236.011 466.863 242.841 465.31 248.736 467.687C255.661 470.476 257.436 475.499 259.48 482.377C261.746 489.952 263.727 499.111 274.519 503.041C285.358 506.987 294.819 503.342 303.408 500.379C311.442 497.606 319.033 495.894 327.955 498.985C340.22 503.232 344.451 510.775 348.556 518.936C352.486 526.78 356.178 535.718 367.223 539.22C383.054 544.243 391.216 538.206 400.787 532.501C404.971 530.013 409.027 528.048 413.655 526.748C413.037 525.924 412.419 524.672 411.737 524.07H411.785Z" fill="#0E141B"/>
<path d="M508.578 537.635C506.771 533.72 503.538 530.551 498.547 530.503C492.414 530.456 487.359 535.543 482.541 540.154C476.916 545.558 471.1 551.152 462.352 549.52C456.663 548.458 453.177 544.068 449.168 538.982C444.065 532.532 438.281 525.226 426.427 523.103C425.397 522.913 424.415 522.802 423.448 522.723C423.1 523.594 422.656 525.353 422.228 526.225C423.417 526.288 424.668 526.415 425.952 526.653C436.807 528.602 442.021 534.291 447.06 540.661C451.228 545.938 455.427 551.96 462.115 553.228C472.225 555.13 478.595 547.713 484.427 542.103C488.833 537.872 492.984 534.323 498.024 534.37C501.764 534.402 508.308 537.333 507.5 548.569C507.453 549.314 509.925 540.487 508.609 537.635H508.578Z" fill="#0E141B"/>
<path d="M337.606 356.155C342.629 361.606 347.922 370.766 352.011 383.031C353.421 387.263 353.991 383.412 353.072 379.054C351.361 370.893 346.765 361.02 339.381 354.57C335.878 351.512 334.436 352.716 337.606 356.155Z" fill="#0E141B"/>
<path d="M483.936 343.383C479.895 345.317 479.039 348.454 483.08 346.521C500.527 338.154 528.862 336.601 541.587 340.848C542.3 341.086 543.092 338.09 542.379 337.853C527.705 332.956 500.353 335.523 483.936 343.399V343.383Z" fill="#0E141B"/>
<path d="M542.569 370.465C535.882 372.177 505.583 374.237 491.162 372.478C485.806 371.828 487.232 374.823 492.588 375.473C509.307 377.501 535.169 375.647 543.029 373.619C543.758 373.429 543.282 370.275 542.569 370.465Z" fill="#0E141B"/>
<path d="M539.559 394.917C524.441 404.187 503.253 405.122 488.072 397.183C483.793 394.948 484.76 397.912 489.039 400.162C504.41 408.196 523.363 407.468 539.099 398.768C539.733 398.419 540.208 394.536 539.574 394.933L539.559 394.917Z" fill="#0E141B"/>
<path d="M454.255 320.627C460.34 326.665 461.877 336.648 459.31 344.588C457.757 349.405 459.865 348.327 461.877 343.684C464.508 337.615 464.444 327.314 456.553 320.199C453.209 317.172 450.911 317.315 454.239 320.627H454.255Z" fill="#0E141B"/>
<path d="M419.328 311.659C415.541 312.34 411.88 313.465 411.5 316.064C411.214 317.982 413.671 320.628 416.84 322.783C420.485 325.24 423.131 325.493 419.883 323.005C415.065 319.329 414.098 317.38 414.97 315.716C415.667 314.369 417.933 313.624 420.2 312.942C424.225 311.754 423.369 310.93 419.328 311.675V311.659Z" fill="#0E141B"/>
<path d="M425.381 314.986C420.184 316.174 420.659 317.965 423.464 320.485C430.31 326.649 440.087 335.301 450.356 344.366C454.587 348.106 456.283 347.488 456.711 343.399C457.741 333.606 454.619 323.86 446.125 318.171C440.087 314.114 432.1 313.449 425.381 314.97V314.986ZM427.473 316.967C433.764 315.826 439.85 317.014 444.097 319.835C451.972 325.064 453.969 331.879 454.254 341.513C454.35 344.445 453.858 344.461 452.274 342.94C442.227 333.336 432.465 324.684 425.904 319.027C424.462 317.775 425.461 317.347 427.489 316.982L427.473 316.967Z" fill="#0E141B"/>
<path d="M449.516 330.373C448.629 331.403 448.391 332.654 448.993 333.177C449.595 333.7 450.8 333.288 451.703 332.258C452.591 331.228 452.828 329.976 452.242 329.453C451.64 328.93 450.435 329.342 449.532 330.373H449.516Z" fill="#0E141B"/>
</g>
<defs>
<clipPath id="clip0_42_67089">
<rect width="469.068" height="520" fill="white" transform="translate(185 210)"/>
</clipPath>
</defs>
</svg>
