<svg width="800" height="800" viewBox="0 0 800 800" fill="none" xmlns="http://www.w3.org/2000/svg">
<g clip-path="url(#clip0_42_67151)">
<path d="M468.811 275.788C473.065 253.358 487.532 159.835 481.633 158.035C475.781 156.265 419.264 210.47 411.207 230.478C397.423 226.349 373.565 225.123 358.664 231.984C342.707 206.31 288.083 161.574 282.045 164.29C277.31 166.417 288.254 236.035 305.81 278.272C304.909 283.596 303.962 289.138 303.14 294.865C300.035 316.271 298.623 340.346 308.2 365.105C315.263 383.359 337.025 402.064 361.613 407.807C368.024 421.203 378.657 433.901 387.474 434.32C395.421 434.692 406.473 422.166 413.458 408.319C437.456 403.647 458.815 384.166 468.144 362.932C477.116 342.488 475.843 315.06 470.566 285.102C470.022 282.013 469.448 278.908 468.827 275.773L468.811 275.788Z" fill="#FFEC40"/>
<path d="M177.873 314.361C171.648 310.403 161.077 303.837 156.39 304.691C149.482 305.948 140.743 308.82 138.601 312.514C137.7 314.067 135.729 318.444 133.649 323.954C128.868 336.729 123.637 355.651 130.343 360.168C131.491 360.945 132.904 361.239 134.425 361.208C141.597 361.022 151.857 353.013 155.381 347.518C155.939 346.648 156.948 344.537 157.942 342.1C159.541 343.156 161.947 344.91 163.018 346.012C163.949 344.956 164.818 344.149 165.61 343.668C172.393 339.57 192.945 336.667 203.33 338.949C195.305 332.88 180.589 316.1 177.842 314.361H177.873Z" fill="#FFEC40"/>
<path d="M130.343 360.183C123.637 355.666 128.869 336.728 133.65 323.969C128.993 324.838 117.553 328.02 113.688 333.437C109.791 338.886 107.448 346.678 106.376 354.61C105.43 361.626 105.492 368.736 106.423 374.401C107.401 380.378 111.716 383.311 117.863 381.588C123.156 380.114 126.556 377.18 130.467 373.268C131.989 371.747 133.494 365.647 134.41 361.207C132.873 361.254 131.476 360.943 130.328 360.167L130.343 360.183Z" fill="#FFEC40"/>
<path d="M106.454 374.403C105.522 368.721 105.46 361.612 106.407 354.611C104.746 354.953 102.573 354.596 100.617 358.476C98.4752 362.745 89.2393 383.654 91.9402 390.065C93.1665 392.967 96.3796 394.318 100.183 394.256C106.749 394.132 115.038 389.739 117.909 381.605C111.762 383.328 107.447 380.394 106.469 374.418L106.454 374.403Z" fill="#FFEC40"/>
<path d="M581.178 708.137C577.484 702.968 571.756 702.098 563.328 695.688C557.32 689.494 552.322 679.544 550.848 674.763C563.871 655.096 575.839 641.312 580.961 624.222C583.755 614.908 581.411 592.09 578.229 582.87C574.38 571.771 539.05 534.222 519.818 513.345C512.445 497.356 495.758 453.319 492.141 436.275C490.17 438.681 485.824 443.866 485.141 444.549C484.008 443.788 480.95 441.817 479.289 440.311C477.286 441.103 475.61 441.662 475.253 441.662C476.122 444.409 478.14 449.951 477.705 450.323C476.697 451.193 473.514 450.618 470.922 450.028C471.931 453.63 473.235 459.125 473.235 459.994C473.235 460.863 465.287 457.681 464.713 457.402C464.853 460.428 465.148 463.176 465.427 465.628C464.278 465.628 458.349 462.167 456.626 461.018C456.052 463.331 456.191 468.081 456.191 468.811C453.878 467.802 452.295 466.063 450.417 465.349C450.277 466.653 450.013 469.168 449.408 470.968C448.399 471.108 444.937 468.376 443.059 467.072C442.485 469.525 441.911 473.716 441.616 476.743C440.032 476.168 432.519 471.263 432.1 470.829C430.657 473.281 427.475 483.526 426.9 484.69C424.153 482.952 419.543 478.481 418.378 476.323C417.509 476.898 415.057 480.934 414.482 481.943C412.464 480.359 408.134 474.011 407.839 473.281C405.246 476.743 402.934 478.621 402.359 479.335C399.612 477.457 396.585 473.56 396.305 472.986C394.722 476.308 392.658 482.61 392.27 483.666C388.373 480.064 386.93 477.022 385.052 474.135C382.164 477.022 375.955 483.805 375.381 484.814C373.363 483.371 369.902 473.266 369.746 472.396C367.868 473.405 366.285 474.274 364.702 474.989C363.832 473.405 362.389 471.667 361.675 470.378C359.936 471.682 353.587 476.587 352.284 477.301C350.7 477.006 351.57 467.926 349.536 466.048C348.232 466.482 343.901 470.813 342.613 470.813C341.604 470.518 340.595 464.169 340.595 463.3C339.012 463.44 330.49 468.64 328.907 468.78C327.448 465.861 332.508 456.082 332.508 454.918C329.916 453.179 326.734 452.9 325.864 452.326C324.172 453.723 324.56 453.226 322.806 455.679C323.117 464.526 324.622 486.025 318.615 500.042C313.959 510.908 273.119 555.783 269.331 561.076C265.559 566.354 260.903 586.052 260.654 590.321C260.437 594.077 276.58 630.757 289.976 641.731C288.812 643.485 283.286 656.835 281.035 657.859C278.691 658.93 266.692 663.634 263.992 666.49C261.182 669.454 258.792 679.544 262.424 684.247C264.907 687.461 275.447 690.037 288.222 687.43C295.052 690.286 306.647 689.479 316.489 688.221C325.352 690.581 340.688 688.159 348.791 687.01C351.771 686.576 360.479 678.675 364.376 669.936C368.272 661.197 375.909 643.687 375.909 640.691C375.909 633.427 374.17 626.938 371.423 625.107C365.369 621.071 353.619 610.997 354.596 595.847C375.195 583.242 422.15 572.392 436.586 579.191C451.752 586.347 471.838 601.078 487.686 614.21C482.455 652.209 466.39 658.154 464.527 669.222C462.897 678.97 471.124 719.095 483.154 725.103C493.166 730.116 515.875 728.688 521.991 727.136C522.69 726.95 523.311 726.624 523.869 726.174C532.329 726.965 544.235 727.276 548.985 726.189C549.637 726.034 550.242 725.77 550.816 725.413C555.768 726.655 569.801 727.276 575.28 726.655C581.613 725.956 584.671 713.042 581.147 708.106L581.178 708.137Z" fill="#FFEC40"/>
<path d="M124.864 378.049C122.365 379.818 120.021 380.998 117.894 381.588C115.038 389.722 106.733 394.115 100.167 394.239C99.6707 401.767 99.4689 414.201 102.573 415.831C108.332 418.842 120.517 412.664 123.513 405.834C124.74 403.04 125.516 398.492 125.873 393.789C126.338 387.58 126.012 381.107 124.864 378.049Z" fill="#FFEC40"/>
<path d="M315.93 447.157C315.495 448.305 311.894 453.366 310.451 453.505C309.147 450.758 307.563 446.862 306.554 445.573C305.84 446.288 304.102 447.731 301.354 448.6C300.78 447.591 300.485 440.948 299.197 438.79C297.458 439.659 289.092 444.564 286.344 444.999C285.909 443.85 288.362 433.745 289.092 430.129C287.943 430.268 282.308 430.843 279.716 430.998C279.856 430.424 281.734 425.084 282.308 423.64C279.995 423.78 278.272 424.789 276.099 424.649C276.674 422.197 277.403 417.866 278.412 415.848C278.335 415.848 278.226 415.848 278.086 415.848C272.451 420.334 260.437 429.88 257.69 431.526C245.861 419.092 223.105 385.346 219.582 378.671C215.453 370.848 215.173 346.804 208.204 340.967C207.133 340.067 205.456 339.415 203.376 338.949C192.976 336.652 172.44 339.57 165.657 343.668C164.865 344.149 163.98 344.957 163.064 346.012C161.993 344.91 159.587 343.14 157.989 342.1C156.98 344.537 155.986 346.649 155.427 347.518C151.904 353.028 141.643 361.022 134.472 361.209C133.556 365.648 132.035 371.748 130.529 373.27C128.589 375.21 126.711 376.778 124.895 378.051C126.043 381.124 126.354 387.581 125.903 393.79C127.813 393.263 130.902 392.812 134.581 394.396C139.656 396.569 143.63 405.789 148.877 409.98C154.139 414.156 162.676 414.684 163.965 416.671C172.704 430.268 239.233 492.436 255.547 492.808C268.617 493.119 307.672 470.037 319.749 457.417C318.615 454.328 316.504 448.15 315.946 447.157H315.93Z" fill="#FFEC40"/>
<path d="M540.991 235.445C540.401 230.431 538.305 224.75 535.139 222.22C534.673 221.847 534.176 221.521 533.664 221.288C532.112 220.621 527.719 220.466 522.923 220.776C522.814 220.776 522.721 220.776 522.612 220.791C515.456 221.18 509.573 218.215 507.183 215.747C505.056 213.542 499.779 205.502 495.401 197.197C495.293 208.715 488.152 217.035 486.491 221.521C484.598 226.612 488.23 236.485 491.614 239.884C494.998 243.268 515.736 252.209 517.862 252.256C519.104 252.287 520.377 252.178 521.665 251.961C530.575 250.471 539.966 243.904 540.479 242.663C541.193 240.971 541.317 238.316 540.975 235.46L540.991 235.445Z" fill="#FFEC40"/>
<path d="M592.293 222.156C588.35 225.447 582.327 223.01 580.713 219.58C580.589 219.719 580.465 219.875 580.34 220.014C579.083 221.349 573.821 221.52 568.838 220.837C563.374 225.432 552.229 233.891 547.51 235.816C564.492 270.276 591.703 303.898 621.273 328.237C614.909 291.294 599.557 234.047 597.105 217.158C595.195 219.362 593.457 221.163 592.293 222.141V222.156Z" fill="#FFEC40"/>
<path d="M559.385 217.453C557.6 218.959 553.129 220.992 550.304 220.884C546.02 220.697 542.357 219.409 539.733 218.105C542 224.019 544.607 229.933 547.51 235.832C552.229 233.907 563.374 225.447 568.838 220.853C564.631 220.278 560.627 219.083 559.385 217.453Z" fill="#DECC38"/>
<path d="M604.105 179.905C602.941 177.903 596.422 173.681 592.712 171.43C591.765 164.491 589.064 159.183 584.749 155.426C583.367 154.231 569.94 153.439 569.242 152.585C568.528 151.732 560.565 143.381 555.722 141.207C550.879 139.034 536.8 142.201 535.806 141.347C534.813 140.493 528.309 134.533 524.848 132.949C521.386 131.366 511.327 132.949 508.487 135.076C505.646 137.203 488.137 169.505 488.711 179.47C488.944 183.63 491.893 190.507 495.417 197.197C499.794 205.502 505.072 213.542 507.198 215.747C509.589 218.215 515.472 221.179 522.628 220.791C522.721 220.791 522.83 220.791 522.938 220.776C526.229 220.559 529.784 219.596 533.369 217.578C534.27 217.066 535.185 216.507 536.086 215.855C536.769 216.398 538.026 217.237 539.749 218.09C542.372 219.394 546.051 220.698 550.32 220.869C553.145 220.993 557.615 218.944 559.401 217.439C560.642 219.068 564.647 220.248 568.854 220.838C573.837 221.521 579.083 221.35 580.356 220.015C580.48 219.876 580.604 219.72 580.729 219.581C582.343 223.011 588.35 225.448 592.308 222.157C593.488 221.179 595.211 219.379 597.12 217.175C601.094 212.595 605.828 206.262 607.955 201.807C611.106 195.21 605.611 182.451 604.121 179.89L604.105 179.905Z" fill="#FFEC40"/>
<path d="M514.463 400.589C515.317 400.589 525.453 399.983 528.014 399.409C525.344 395.994 520.439 389.8 518.949 386.603C520.004 386.603 523.186 385.066 525.453 384.259C523.637 382.132 520.004 379.354 518.157 376.963C518.871 376.684 521.929 374.79 524.49 373.378C523.637 371.453 517.769 368.472 517.878 366.765C518.312 366.486 521.401 364.592 522.255 363.459C521.82 362.605 515.674 358.197 514.245 356.21C514.556 355.697 516.093 353.245 517.443 350.885C517.955 349.985 518.452 349.085 518.84 348.309C517.847 348.448 513.469 348.666 510.629 348.805C510.582 348.588 510.303 348.014 509.93 347.3C511.498 345.297 514.354 341.556 513.935 340.082C513.299 337.847 508.347 339.011 506.577 337.847C507.757 336.558 509.775 334.866 510.489 333.578C509.915 332.864 509.061 331.296 507.493 330.023C507.928 329.309 510.489 325.755 510.768 324.901C510.194 324.901 500.384 325.18 497.962 325.041C498.102 324.047 505.227 316.643 506.934 313.228C505.506 311.8 496.55 312.234 492.561 311.66C494.858 308.633 495.075 307.159 489.503 305.824C490.574 305.187 492.483 301.974 492.7 301.12C490.636 301.043 486.01 300.406 484.303 298.994C484.939 297.504 486.864 291.884 486.941 288.749C485.87 289.168 478.621 290.674 476.479 290.875C476.06 290.022 479.568 284.666 478.916 282.959C477.209 283.145 473.53 284.93 470.86 286.265C476.138 316.224 477.116 342.503 468.128 362.946C458.799 384.181 437.44 403.662 413.442 408.334C406.473 422.18 395.405 434.707 387.458 434.334C378.641 433.915 368.008 421.218 361.597 407.822C337.009 402.079 315.247 383.374 308.184 365.12C298.607 340.361 300.019 316.286 303.124 294.88C300.889 293.204 297.365 292.816 296.682 291.884C295.968 293.763 296.403 299.894 296.403 301.182C293.81 301.477 291.637 301.477 289.48 301.322C289.34 303.2 290.783 307.531 291.218 308.4C288.766 308.695 287.601 308.54 286.887 308.54C287.027 309.984 288.471 312.731 288.626 313.585C285.304 313.585 282.137 313.802 280.834 314.237C281.703 316.55 283.472 320.244 283.333 321.548C280.694 323.302 274.966 326.282 274.966 326.282C274.966 326.282 280.725 333.702 281.454 334.711C280.445 335.58 276.41 335.798 275.106 336.962C276.549 339.414 279.871 342.084 280.29 342.938C278.847 344.382 275.385 346.477 274.516 347.781C277.263 351.103 279.7 350.87 279.995 351.305C277.403 354.626 274.516 356.287 272.933 358.6C275.432 360.649 279.685 362.621 282.075 363.723C282.106 364.576 282.168 365.306 282.168 365.725C278.133 365.29 271.924 367.029 268.742 368.038C270.899 370.785 274.516 375.97 274.795 376.56C272.638 378.438 269.021 382.474 268.586 383.343C270.03 385.361 272.048 386.51 273.926 387.534C271.473 389.692 269.89 391.43 268.447 393.308C269.456 395.187 272.203 395.901 273.786 396.335C272.638 397.779 270.899 399.657 270.325 400.371C271.629 401.815 273.072 402.249 274.656 403.258C272.451 405.323 268.307 410.911 266.568 413.938C268.85 415.009 276.146 415.832 278.071 415.832C278.21 415.832 278.334 415.832 278.397 415.832C277.388 417.85 276.658 422.18 276.084 424.633C278.241 424.773 279.98 423.764 282.293 423.624C281.718 425.068 279.84 430.407 279.7 430.982C282.293 430.842 287.927 430.252 289.076 430.112C288.362 433.714 285.894 443.819 286.329 444.983C289.076 444.548 297.443 439.643 299.181 438.774C300.485 440.932 300.764 447.575 301.339 448.584C304.086 447.715 305.809 446.271 306.539 445.557C307.548 446.861 309.131 450.757 310.435 453.489C311.879 453.35 315.48 448.289 315.914 447.141C316.473 448.15 319.143 455.988 320.261 459.077C321.658 457.603 323.365 454.684 325.864 452.341C326.734 452.915 329.9 453.21 332.508 454.933C332.508 456.082 327.448 465.876 328.907 468.794C330.49 468.655 339.012 463.455 340.595 463.315C340.595 464.184 341.604 470.533 342.613 470.828C343.917 470.828 348.232 466.497 349.536 466.062C351.554 467.941 350.685 477.021 352.284 477.316C353.588 476.602 359.936 471.682 361.675 470.393C362.389 471.697 363.832 473.42 364.702 475.003C366.285 474.289 367.868 473.42 369.746 472.411C369.886 473.28 373.348 483.386 375.381 484.829C375.955 483.82 382.164 477.037 385.052 474.15C386.93 477.037 388.373 480.064 392.27 483.681C392.673 482.625 394.722 476.323 396.305 473.001C396.6 473.575 399.627 477.472 402.359 479.35C402.934 478.636 405.246 476.757 407.839 473.296C408.134 474.01 412.464 480.359 414.482 481.958C415.057 480.949 417.509 476.913 418.378 476.338C419.527 478.496 424.153 482.982 426.9 484.705C427.475 483.541 430.657 473.296 432.1 470.843C432.535 471.278 440.032 476.183 441.616 476.757C441.911 473.731 442.485 469.54 443.059 467.087C444.937 468.391 448.399 471.123 449.408 470.983C450.013 469.167 450.277 466.652 450.417 465.364C452.295 466.078 453.878 467.817 456.191 468.825C456.191 468.111 456.052 463.346 456.626 461.033C458.364 462.182 464.279 465.643 465.427 465.643C465.132 463.191 464.853 460.443 464.713 457.416C465.287 457.711 473.235 460.878 473.235 460.009C473.235 459.139 471.931 453.66 470.922 450.043C473.514 450.618 476.697 451.192 477.706 450.338C478.14 449.966 476.122 444.424 475.253 441.677C475.61 441.677 477.286 441.118 479.289 440.326C480.965 441.832 484.008 443.819 485.141 444.564C485.824 443.881 490.186 438.696 492.141 436.29C492.219 436.197 492.297 436.104 492.359 436.026C494.237 437.237 497.512 437.874 499.654 438.308C499.235 437.454 498.521 430.407 498.661 429.414C499.375 429.848 509.48 430.345 509.76 429.771C508.813 428.684 506.05 421.73 505.553 419.479C505.522 419.371 505.506 419.262 505.491 419.169C505.817 419.169 507.943 418.703 510.163 418.16C511.933 417.632 513.749 417.073 515.58 416.484C514.804 416.127 511.265 412.836 510.722 409.887C511.855 409.607 515.658 409.561 517.226 409.561C517.226 408.986 514.168 402.156 514.447 400.589H514.463Z" fill="white"/>
<path d="M655.454 351.445C644.014 345.344 632.48 337.474 621.289 328.254C591.718 303.915 564.492 270.293 547.526 235.833C544.623 229.934 542.015 224.005 539.749 218.106C538.026 217.253 536.769 216.414 536.086 215.871C535.185 216.523 534.269 217.097 533.369 217.594C533.943 219.131 534.533 220.683 535.154 222.235C538.321 224.75 540.416 230.431 541.006 235.461C558.997 272.513 589.964 309.953 622.422 335.239C632.403 343.016 642.508 349.613 652.427 354.72C652.427 354.658 652.411 354.596 652.411 354.534C652.411 352.842 653.777 351.476 655.454 351.445Z" fill="white"/>
<path d="M622.406 335.224C589.949 309.938 558.981 272.498 540.991 235.445C541.332 238.301 541.192 240.94 540.494 242.648C539.982 243.89 530.591 250.456 521.681 251.946C526.803 260.25 548.457 303.279 559.059 321.611C559.571 322.511 560.239 323.893 560.906 325.429C553.843 336.295 525.297 347.658 517.443 350.855C516.093 353.215 514.556 355.667 514.245 356.179C515.673 358.166 521.82 362.575 522.255 363.428C521.401 364.562 518.312 366.455 517.878 366.735C517.769 368.442 523.637 371.438 524.49 373.347C521.929 374.775 518.871 376.654 518.157 376.933C520.004 379.323 523.637 382.086 525.453 384.229C523.186 385.036 520.004 386.572 518.949 386.572C520.439 389.77 525.344 395.964 528.014 399.379C525.453 399.953 515.316 400.558 514.463 400.558C514.183 402.126 517.241 408.956 517.241 409.53C515.673 409.53 511.87 409.561 510.737 409.856C511.296 412.805 514.835 416.081 515.596 416.453C558.717 402.545 618.821 371.624 623.322 358.663C624.641 354.844 624.083 346.323 622.422 335.208L622.406 335.224Z" fill="#FFEC40"/>
<path d="M459.172 264.255C463.658 251.231 474.725 187.775 472.956 176.801C466.374 181.194 431.417 224.564 428.08 238.363C437.099 242.368 452.342 253.373 459.172 264.255Z" fill="#A4611D"/>
<path d="M341.93 241.871C339.804 231.797 304.738 188.023 292.134 183.537C291.327 195.552 306.399 251.464 314.036 265.543C316.877 259.954 334.449 244.013 341.915 241.871H341.93Z" fill="#A4611D"/>
<path d="M677.279 349.613C670.433 349.613 664.115 351.864 658.962 355.621C659.769 356.459 660.669 357.452 661.632 358.57C666.056 355.434 671.458 353.587 677.279 353.587C692.273 353.587 704.474 365.788 704.474 380.782C704.474 395.777 692.273 407.978 677.279 407.978C662.284 407.978 650.083 395.777 650.083 380.782C650.083 372.99 653.389 365.974 658.667 361.007C657.751 359.936 656.851 358.942 655.982 358.089C649.928 363.77 646.109 371.826 646.109 380.782C646.109 397.966 660.08 411.936 677.263 411.936C694.446 411.936 708.417 397.966 708.417 380.782C708.417 363.599 694.446 349.629 677.263 349.629L677.279 349.613Z" fill="#CBD4CD"/>
<path d="M677.278 367.168C684.776 367.168 690.876 373.268 690.876 380.75C690.876 388.232 684.776 394.332 677.278 394.332C669.781 394.332 663.681 388.232 663.681 380.75C663.681 377.63 664.752 374.758 666.521 372.461C664.659 368.844 661.616 364.451 658.667 360.974C653.405 365.942 650.083 372.958 650.083 380.75C650.083 395.745 662.284 407.946 677.278 407.946C692.273 407.946 704.474 395.745 704.474 380.75C704.474 365.755 692.273 353.555 677.278 353.555C671.457 353.555 666.056 355.417 661.632 358.537C664.41 361.782 667.561 365.926 669.564 369.558C671.752 368.037 674.407 367.152 677.278 367.152V367.168Z" fill="#CBD4CD"/>
<path d="M677.278 394.348C684.776 394.348 690.876 388.248 690.876 380.766C690.876 373.284 684.776 367.184 677.278 367.184C674.422 367.184 671.768 368.084 669.564 369.59C670.169 370.676 670.666 371.716 671.007 372.679C672.746 371.328 674.903 370.521 677.263 370.521C682.913 370.521 687.508 375.116 687.508 380.766C687.508 386.416 682.913 391.011 677.263 391.011C671.613 391.011 667.018 386.416 667.018 380.766C667.018 378.95 667.499 377.242 668.337 375.768C668.027 375.519 667.748 375.162 667.53 374.634C667.251 373.967 666.909 373.237 666.521 372.477C664.752 374.774 663.681 377.646 663.681 380.766C663.681 388.263 669.781 394.348 677.278 394.348Z" fill="#CBD4CD"/>
<path d="M671.55 372.214C670.743 368.985 664.364 359.92 659.396 355.838C659.055 356.086 656.711 358.027 656.416 358.306C660.188 362 665.481 370.786 667.049 374.62C667.266 375.148 668.384 376.328 668.694 376.56C670.153 377.694 672.342 375.443 671.535 372.214H671.55Z" fill="white"/>
<path d="M655.19 351.738C655.19 351.738 655.159 351.738 655.143 351.738C653.452 351.754 652.101 353.135 652.101 354.827C652.101 354.889 652.101 354.951 652.117 355.014C652.21 356.628 653.545 357.932 655.19 357.932C655.19 357.932 655.19 357.932 655.206 357.932C655.702 357.932 656.168 357.792 656.587 357.59C656.929 357.28 657.286 356.985 657.643 356.705C657.907 356.348 658.108 355.929 658.217 355.479C658.264 355.277 658.279 355.06 658.279 354.843C658.279 353.135 656.898 351.754 655.19 351.754V351.738Z" fill="white"/>
<path d="M415.134 355.807C426 347.471 435.376 343.497 446.241 341.355C449.097 340.796 450.634 336.465 448.461 334.975C435.764 326.221 418.797 332.523 411.486 351.678C410.617 353.959 414.265 356.458 415.119 355.807H415.134Z" fill="white"/>
<path d="M335.83 328.781C331.732 329.2 328.084 330.97 325.554 333.19C321.348 336.853 324.25 341.882 327.945 342.193C332.322 342.565 349.614 349.193 357.049 354.921C358.338 355.915 361.97 353.71 360.635 350.156C357.313 341.308 341.046 328.269 335.83 328.797V328.781Z" fill="white"/>
<path d="M315.231 377.537C325.321 391.15 342.411 403.211 361.225 407.728C358.508 403.165 356.63 398.058 356.071 392.827C341.511 389.536 327.603 384.383 315.216 377.553L315.231 377.537Z" fill="#DECC38"/>
<path d="M452.171 386.293C441.631 390.67 430.331 393.651 418.705 395.374C417.618 399.425 417.137 404.128 415.522 407.9C429.337 404.703 442.144 396.646 452.187 386.308L452.171 386.293Z" fill="#DECC38"/>
<path d="M177.873 314.361C171.648 310.403 161.077 303.837 156.39 304.691C149.482 305.948 140.743 308.82 138.601 312.514C137.7 314.067 135.729 318.444 133.649 323.954C128.868 336.729 123.637 355.651 130.343 360.168C131.491 360.945 132.904 361.239 134.425 361.208C141.597 361.022 151.857 353.013 155.381 347.518C155.939 346.648 156.948 344.537 157.942 342.1C159.541 343.156 161.947 344.91 163.018 346.012C163.949 344.956 164.818 344.149 165.61 343.668C172.393 339.57 192.945 336.667 203.33 338.949C195.305 332.88 180.589 316.1 177.842 314.361H177.873Z" fill="#FFEC40"/>
<path d="M130.343 360.183C123.637 355.666 128.869 336.728 133.65 323.969C128.993 324.838 117.553 328.02 113.688 333.437C109.791 338.886 107.448 346.678 106.376 354.61C105.43 361.626 105.492 368.736 106.423 374.401C107.401 380.378 111.716 383.311 117.863 381.588C123.156 380.114 126.556 377.18 130.467 373.268C131.989 371.747 133.494 365.647 134.41 361.207C132.873 361.254 131.476 360.943 130.328 360.167L130.343 360.183Z" fill="#FFEC40"/>
<path d="M106.454 374.403C105.522 368.721 105.46 361.612 106.407 354.611C104.746 354.953 102.573 354.596 100.617 358.476C98.4752 362.745 89.2393 383.654 91.9402 390.065C93.1665 392.967 96.3796 394.318 100.183 394.256C106.749 394.132 115.038 389.739 117.909 381.605C111.762 383.328 107.447 380.394 106.469 374.418L106.454 374.403Z" fill="#FFEC40"/>
<path d="M260.872 589.342C260.841 589.559 260.825 589.761 260.81 589.932C260.592 593.688 276.736 630.368 290.132 641.342C289.138 642.832 285.04 652.612 282.433 656.197C310.435 655.995 338.189 660.544 364.174 670.323C364.298 670.059 364.438 669.81 364.547 669.547C368.443 660.807 376.08 643.298 376.08 640.302C376.08 633.038 374.341 626.549 371.594 624.718C366.937 621.613 358.912 614.923 355.916 605.097C325.166 612.455 289.526 605.904 260.887 589.342H260.872Z" fill="#DECC38"/>
<path d="M561.543 693.156C556.42 687.009 552.307 678.642 550.987 674.389C564.011 654.722 575.979 640.938 581.101 623.848C582.591 618.912 582.607 610.172 581.846 601.682C559.789 628.256 517.862 632.509 487.345 617.22C481.664 652.223 466.498 658.137 464.682 668.879C463.922 673.396 465.288 684.463 468.175 695.608C498.971 687.583 530.886 687.055 561.527 693.156H561.543Z" fill="#DECC38"/>
<path d="M124.864 378.049C122.365 379.818 120.021 380.998 117.894 381.588C115.038 389.722 106.733 394.115 100.167 394.239C99.6707 401.767 99.4689 414.201 102.573 415.831C108.332 418.842 120.517 412.664 123.513 405.834C124.74 403.04 125.516 398.492 125.873 393.789C126.338 387.58 126.012 381.107 124.864 378.049Z" fill="#FFEC40"/>
<path d="M315.93 447.156C315.495 448.304 311.894 453.365 310.45 453.504C309.147 450.757 307.563 446.861 306.554 445.572C305.84 446.286 304.102 447.73 301.354 448.599C301.215 448.351 301.075 447.73 300.951 446.923C271.722 466.077 232.496 464.51 199.34 452.992C221.118 472.721 246.311 492.605 255.516 492.823C268.586 493.133 307.641 470.051 319.717 457.431C318.584 454.342 316.473 448.165 315.914 447.171L315.93 447.156Z" fill="#DECC38"/>
<path d="M540.991 235.445C540.308 234.032 539.671 232.604 539.02 231.191C524.847 243.423 507.897 244.603 491.691 239.946C495.277 243.377 515.736 252.209 517.862 252.255C519.104 252.286 520.377 252.178 521.665 251.961C530.575 250.47 539.966 243.904 540.479 242.663C541.193 240.971 541.317 238.316 540.975 235.46L540.991 235.445Z" fill="#DECC38"/>
<path d="M559.385 217.453C557.6 218.959 553.129 220.992 550.304 220.884C546.02 220.697 542.357 219.409 539.733 218.105C542 224.019 544.607 229.933 547.51 235.832C552.229 233.907 563.374 225.447 568.838 220.853C564.631 220.278 560.627 219.083 559.385 217.453Z" fill="#DECC38"/>
<path d="M524.91 347.781C521.743 349.132 519.12 350.187 517.428 350.87C516.077 353.23 514.541 355.682 514.23 356.194C515.658 358.181 521.805 362.59 522.24 363.443C521.386 364.577 518.297 366.47 517.863 366.75C517.754 368.457 523.621 371.453 524.475 373.362C521.914 374.79 518.856 376.669 518.142 376.948C519.989 379.338 523.621 382.101 525.437 384.244C523.171 385.051 519.989 386.588 518.934 386.588C520.424 389.785 525.329 395.979 527.999 399.394C525.438 399.968 515.301 400.573 514.448 400.573C514.168 402.141 517.226 408.971 517.226 409.545C515.658 409.545 511.855 409.576 510.722 409.871C511.281 412.821 514.82 416.096 515.581 416.468C530.964 411.517 548.488 404.392 564.896 396.677C545.151 386.603 529.768 370.537 524.91 347.781Z" fill="#DECC38"/>
<path d="M472.971 176.801C467.507 180.448 442.516 210.919 432.256 229.065C446.645 218.432 460.429 216.399 466.98 228.072C470.752 206.65 473.965 183.087 472.956 176.785L472.971 176.801Z" fill="#824B0F"/>
<path d="M326.889 217.981C315.139 202.847 299.647 186.207 292.134 183.521C291.529 192.587 299.973 226.69 307.439 248.918C308.712 232.231 314.394 219.658 326.889 217.981Z" fill="#824B0F"/>
<path d="M428.468 455.257C426.823 454.962 425.007 454.497 423.563 453.705C423.532 454.248 423.532 454.823 423.532 455.397C425.178 455.397 426.839 455.413 428.484 455.257H428.468Z" fill="white"/>
<path d="M482.037 418.066C482.037 418.237 481.99 418.346 481.975 418.486C482.363 418.47 482.751 418.454 483.139 418.439C482.704 418.33 482.425 418.206 482.052 418.066H482.037Z" fill="white"/>
<path d="M514.463 400.588C515.317 400.588 525.453 399.983 528.014 399.408C525.344 395.993 520.439 389.8 518.949 386.602C520.005 386.602 523.187 385.065 525.453 384.258C523.637 382.132 520.005 379.353 518.158 376.963C518.872 376.683 521.93 374.789 524.491 373.377C523.637 371.452 517.769 368.472 517.878 366.764C518.313 366.485 521.402 364.591 522.256 363.458C521.821 362.604 515.674 358.196 514.246 356.209C514.556 355.697 516.093 353.244 517.444 350.885C517.956 349.985 518.452 349.084 518.841 348.308C517.847 348.448 513.47 348.665 510.629 348.805C510.583 348.588 510.303 348.013 509.931 347.299C511.498 345.297 514.355 341.556 513.935 340.081C513.299 337.846 508.347 339.01 506.578 337.846C507.757 336.558 509.775 334.866 510.489 333.577C509.915 332.863 509.061 331.295 507.494 330.023C507.928 329.309 510.489 325.754 510.769 324.9C510.195 324.9 500.384 325.18 497.963 325.04C498.102 324.046 505.227 316.642 506.935 313.227C505.507 311.799 496.55 312.234 492.561 311.659C494.113 311.877 494.253 307.856 493.027 307.08C491.04 305.839 487.066 312.11 487.144 312.684C487.314 313.786 493.741 316.301 495.991 317.465C497.171 318.07 498.18 318.8 499.531 318.955C498.91 321.252 494.222 323.084 494.532 325.412C494.625 326.111 495.852 326.763 496.286 327.12C497.497 328.067 498.677 329.107 499.686 330.178C498.087 330.907 496.752 332.227 495.029 333.049C496.923 334.431 499.298 334.648 501.362 335.58C500.741 336.17 500.555 336.728 500.105 337.442C499.127 338.979 497.683 340.485 496.876 342.053C498.506 343.108 501.145 343.03 503.07 343.186C502.821 344.381 501.781 345.343 501.968 346.647C502.852 346.694 504.575 346.989 505.32 346.507C505.491 346.399 506.873 343.9 507.09 344.117C507.664 344.676 508.829 346.119 509.139 346.787C509.387 347.827 508.906 348.991 509.139 349.969C509.418 351.133 510.567 352.002 511.048 353.105C509.682 353.648 504.234 355.029 503.644 356.256C502.852 357.917 506.252 358.475 507.571 359.64C506.981 360.866 505.46 361.859 504.467 362.775C503.256 363.908 499.67 366.206 499.344 367.882C503.954 370.412 508.798 371.235 512.523 375.007C509.465 377.506 504.032 377.335 500.974 380.284C504.979 382.054 509.543 382.287 513.547 383.948C513.283 383.839 509.9 386.478 509.434 386.773C507.913 387.766 500.819 392.609 498.506 393.898C500.214 396.583 503.908 396.831 506.05 399.051C503.023 401.038 498.413 400.153 495.091 401.333C496.007 403.211 498.149 404.36 499.003 406.192C496.007 406.999 484.893 407.169 482.797 407.992C483.635 409.979 486.383 412.044 488.277 413.052C485.017 414.108 470.954 418.315 469.929 417.538C473.22 419.991 480.283 418.811 480.298 418.656C480.671 418.796 482.72 418.315 483.139 418.408C482.766 418.423 476.914 429.491 476.076 429.475C475.921 431.416 476.123 433.387 476.262 435.343C473.732 435.483 470.829 434.179 468.641 433.092C468.517 435.094 468.967 437.485 469.914 439.239C468.082 438.649 460.786 436.88 459.902 436.119C460.29 441.04 460.926 445.634 460.942 447.637C458.396 446.597 452.901 443.678 450.464 442.281C448.679 444.687 449.176 450.12 449.16 453.07C446.707 451.641 442.827 449.204 439.847 448.025C439.847 451.129 440.188 455.243 439.583 456.686C437.177 455.91 433.249 453.442 430.921 452.806C430.657 456.717 428.872 459.341 428.717 461.995C425.442 459.946 420.319 456.329 417.199 454.234C416.594 456.733 415.911 459.542 415.833 462.119C413.07 460.66 406.861 453.582 405.169 453.706C404.486 456.733 402.189 462.243 400.901 465.612C398.091 464.323 390.33 454.963 388.995 452.418C386.977 455.041 385.999 462.212 384.338 465.099C382.398 462.507 379.138 457.028 377.741 454.234C376.422 459.123 374.217 460.489 372.432 462.259C369.561 459.046 367.667 453.566 366.223 449.577C363.584 451.517 360.154 456.112 358.338 458.89C357.096 458.301 355.497 450.229 355.528 449.189C354.317 448.754 350.577 452.154 349.412 452.681C348.947 452.247 347.131 445.51 347.534 445.308C346.323 445.883 345.439 447 344.399 447.838C343.203 446.581 343.048 442.685 343.141 440.853C341.356 440.977 339.587 441.35 337.739 441.21C337.569 438.292 339.431 435.808 339.773 433.123C337.817 432.657 335.737 432.58 333.843 431.974C334.619 431.369 339.897 427.349 339.804 426.604C337.165 426.153 330.18 427.535 324.809 429.382C324.266 428.047 323.661 431.912 323.335 431.416C322.822 432.518 317.079 433.449 315.791 433.263C315.046 431.043 315.278 425.238 315.744 422.164C313.897 424.011 305.561 428.482 303.497 429.134C304.537 425.377 305.561 421.248 305.934 417.352C304.133 417.88 297.924 418.268 296.31 418.641C296.869 415.303 296.682 412.168 297.598 408.085C295.984 409.296 281.889 408.349 285.382 408.644C287.307 406.75 294.09 400.138 294.044 400.153C292.522 400.526 287.338 399.579 285.568 399.765C286.5 397.918 287.012 395.388 287.058 393.665C285.553 393.634 284.094 393.727 282.619 393.851C283.535 390.669 285.429 388.341 287.276 385.717C285.413 384.274 281.61 385.019 279.297 384.367C280.741 381.775 285.755 374.696 286.329 375.147C286.065 374.945 280.648 370.195 280.772 370.148C282.743 369.512 288.254 367.215 290.023 366.268C289.325 365.973 288.067 364.467 287.617 363.862C287.493 363.706 286.112 361.983 285.599 362.232C286.826 361.611 288.161 361.269 289.371 360.695C289.123 359.189 285.444 357.948 284.233 357.016C285.118 355.355 287.338 354.502 288.207 352.965C287.183 351.847 285.646 351.475 284.497 350.528C285.304 349.457 286.375 348.355 287.291 347.408C286.158 346.57 282.076 342.984 280.772 342.58C279.654 342.239 281.3 344.831 280.244 344.536C278.242 343.946 275.68 345.995 274.501 347.765C277.248 351.087 279.685 350.854 279.98 351.288C277.388 354.61 274.501 356.271 272.917 358.584C275.417 360.633 279.67 362.604 282.06 363.706C282.091 364.56 282.153 365.29 282.153 365.709C278.117 365.274 271.908 367.013 268.726 368.022C270.884 370.769 274.501 375.954 274.78 376.544C272.623 378.422 269.006 382.458 268.571 383.327C270.015 385.345 272.033 386.493 273.911 387.518C271.458 389.676 269.875 391.414 268.431 393.292C269.44 395.171 272.188 395.885 273.771 396.319C272.623 397.763 270.884 399.641 270.31 400.355C271.614 401.799 273.057 402.233 274.64 403.242C272.436 405.307 268.292 410.895 266.553 413.922C268.835 414.993 276.131 415.815 278.055 415.815C278.195 415.815 278.319 415.815 278.381 415.815C277.372 417.833 276.643 422.164 276.069 424.617C278.226 424.756 279.965 423.747 282.278 423.608C281.703 425.051 279.825 430.391 279.685 430.965C282.278 430.826 287.912 430.236 289.061 430.096C288.347 433.697 285.879 443.803 286.313 444.967C289.061 444.532 297.427 439.627 299.166 438.758C300.47 440.915 300.749 447.559 301.324 448.568C304.071 447.699 305.794 446.255 306.524 445.541C307.533 446.845 309.116 450.741 310.42 453.473C311.863 453.333 315.465 448.273 315.899 447.124C316.458 448.133 319.128 455.972 320.246 459.061C321.643 457.587 323.35 454.917 325.849 452.324C326.718 452.899 329.885 453.194 332.493 454.917C332.493 456.065 327.432 465.86 328.892 468.778C330.475 468.639 338.997 463.439 340.58 463.299C340.58 464.168 341.589 470.517 342.598 470.812C343.902 470.812 348.217 466.481 349.521 466.046C351.539 467.925 350.67 477.005 352.269 477.3C353.572 476.586 359.921 471.665 361.66 470.377C362.374 471.681 363.817 473.404 364.687 474.987C366.27 474.273 367.853 473.404 369.731 472.395C369.871 473.264 373.333 483.369 375.366 484.813C375.94 483.804 382.149 477.021 385.037 474.134C386.915 477.021 388.358 480.048 392.254 483.664C392.658 482.609 394.707 476.307 396.29 472.985C396.585 473.559 399.612 477.455 402.344 479.334C402.918 478.62 405.231 476.741 407.824 473.28C408.118 473.994 412.449 480.343 414.467 481.941C415.042 480.932 417.494 476.897 418.363 476.322C419.512 478.48 424.138 482.966 426.885 484.689C427.46 483.525 430.642 473.28 432.085 470.827C432.52 471.262 440.017 476.167 441.601 476.741C441.895 473.714 442.47 469.523 443.044 467.071C444.922 468.375 448.384 471.107 449.393 470.967C449.998 469.151 450.262 466.636 450.402 465.348C452.28 466.062 453.863 467.8 456.176 468.809C456.176 468.095 456.036 463.33 456.611 461.017C458.349 462.166 464.263 465.627 465.412 465.627C465.117 463.175 464.838 460.427 464.698 457.4C465.272 457.695 473.22 460.862 473.22 459.993C473.22 459.123 471.916 453.644 470.907 450.027C473.499 450.601 476.681 451.176 477.69 450.322C478.125 449.949 476.107 444.408 475.238 441.66C475.595 441.66 477.271 441.102 479.274 440.31C480.95 441.816 483.993 443.803 485.126 444.548C485.809 443.865 490.17 438.68 492.126 436.274C492.204 436.181 492.282 436.088 492.344 436.01C494.222 437.221 497.497 437.857 499.639 438.292C499.22 437.438 498.506 430.391 498.646 429.398C499.36 429.832 509.465 430.329 509.744 429.755C508.797 428.668 506.035 421.714 505.538 419.463C505.507 419.355 505.491 419.246 505.476 419.153C505.802 419.153 507.928 418.687 510.148 418.144C511.918 417.616 513.734 417.057 515.565 416.467C514.789 416.11 511.25 412.82 510.707 409.87C511.84 409.591 515.643 409.544 517.211 409.544C517.211 408.97 514.153 402.14 514.432 400.572L514.463 400.588Z" fill="#DCDDDD"/>
<path d="M178.137 396.863C174.52 395.171 173.061 388.652 172.099 379.478C166.061 385.268 151.811 385.765 146.983 376.575C146.409 374.852 157.865 354.083 162.599 345.608C161.404 344.521 159.37 343.031 157.958 342.115C156.949 344.552 155.955 346.663 155.397 347.533C151.873 353.043 141.613 361.037 134.441 361.223C133.525 365.663 132.004 371.763 130.498 373.284C128.558 375.225 126.68 376.793 124.864 378.065C126.012 381.139 126.323 387.596 125.873 393.805C127.782 393.277 130.871 392.827 134.55 394.411C139.626 396.584 143.599 405.804 148.846 409.995C149.017 410.119 149.188 410.244 149.358 410.368C163.748 413.053 181.816 403.802 178.137 396.879V396.863Z" fill="#DECC38"/>
<path d="M584.407 212.315C582.653 216.072 566.634 215.823 560.875 208.186C559.121 210.437 539.33 214.318 530.079 204.43C528.588 206.991 508.549 212.067 499.313 204.15C502.573 209.645 505.693 214.178 507.198 215.761C509.589 218.229 515.472 221.194 522.628 220.806C522.721 220.806 522.83 220.806 522.938 220.791C526.229 220.573 529.784 219.611 533.369 217.593C534.27 217.081 535.186 216.522 536.086 215.87C536.769 216.413 538.026 217.251 539.749 218.105C542.372 219.409 546.051 220.713 550.32 220.884C553.145 221.008 557.616 218.959 559.401 217.453C560.642 219.083 564.647 220.263 568.854 220.853C573.837 221.536 579.083 221.365 580.356 220.03C580.48 219.89 580.604 219.735 580.729 219.595C582.343 223.026 588.35 225.463 592.308 222.172C593.488 221.194 595.211 219.393 597.12 217.189C597.679 216.553 598.253 215.87 598.828 215.156C591.346 219.052 587.589 216.087 584.423 212.331L584.407 212.315Z" fill="#DECC38"/>
<path d="M411.083 413.549C396.678 424.71 379.277 425.889 365.028 414.325C365.168 417.693 379.2 435.653 387.799 434.768C394.629 434.054 405.945 424.197 411.083 413.549Z" fill="#DECC38"/>
<path d="M652.986 401.133C672.125 398.804 699.74 388.389 708.712 378.02C710.155 382.676 709.565 402.452 687.989 410.725C677.325 414.823 663.324 412.262 652.986 401.133Z" fill="#A7AEA9"/>
<path d="M677.279 348.728C670.231 348.728 663.727 350.591 658.403 354.425C658.652 355.201 658.791 355.248 659.397 355.962C664.302 352.392 670.759 350.482 677.279 350.482C693.732 350.482 707.998 364.313 707.998 380.751C707.998 398.4 693.686 411.47 677.279 411.47C660.871 411.47 646.777 397.205 646.777 380.751C646.777 371.903 650.89 363.304 657.022 357.84C656.603 356.955 655.842 357.747 654.74 357.685C648.236 363.63 644.79 371.267 644.79 380.736C644.79 399.052 658.884 413.364 677.403 413.364C694.384 413.364 710 400.185 710 380.689C710 362.776 695.192 348.697 677.279 348.697V348.728Z" fill="#0E141B"/>
<path d="M677.279 352.701C671.333 352.701 665.838 354.564 661.259 357.684C661.259 358.631 661.896 358.351 662.346 359.205C666.615 356.101 671.613 354.455 677.279 354.455C691.544 354.455 703.589 366.501 703.589 380.766C703.589 395.031 691.544 406.859 677.279 406.859C663.013 406.859 650.968 395.031 650.968 380.766C650.968 373.237 653.824 366.392 658.993 361.658C658.155 361.145 658.186 360.742 657.658 360.136C652.194 365.336 649.214 372.648 649.214 380.766C649.214 396.49 661.601 408.52 677.31 408.52C693.018 408.52 705.328 396.444 705.328 380.735C705.328 365.026 693.003 352.701 677.279 352.701Z" fill="#0E141B"/>
<path d="M677.278 366.516C674.407 366.516 671.737 367.338 669.471 368.751C669.548 369.465 670.231 369.077 670.759 369.946C672.653 368.751 674.888 368.052 677.278 368.052C683.736 368.052 689.991 372.957 689.991 380.765C689.991 386.71 685.552 393.478 677.278 393.478C670.511 393.478 664.566 387.533 664.566 380.765C664.566 378.064 665.45 375.581 666.94 373.547C666.521 372.818 666.63 372.569 665.823 371.98C663.805 374.51 663.029 377.273 663.029 380.75C663.029 388.868 669.766 394.968 677.294 394.968C684.822 394.968 691.699 389.241 691.699 380.719C691.699 373.346 685.707 366.516 677.294 366.516H677.278Z" fill="#0E141B"/>
<path d="M414.436 230.182C398.789 223.725 374.341 222.933 356.956 232.34C354.084 233.892 351.43 238.518 356.646 235.584C372.758 226.503 402.546 227.838 414.762 233.178C421.499 236.127 418.161 231.734 414.436 230.182Z" fill="#0E141B"/>
<path d="M473.468 160.456C455.648 172.579 418.332 210.951 408.662 229.95C408.336 230.602 412.62 231.673 412.868 230.99C419 214.738 459.622 174.364 475.471 162.598C480.267 159.044 481.757 158.361 481.757 165.221C481.757 185.649 469.789 264.084 467.492 276.021C471.419 295.797 473.375 312.251 473.375 326.174C473.375 362.419 455.478 395.762 414.079 406.845C413.582 406.985 412.325 409.887 413.039 409.748C458.598 400.946 477.225 362.016 477.225 326.174C477.225 312.127 474.726 297.52 470.814 277.713C474.694 256.758 483.915 192.2 484.318 165.951C484.458 156.358 482.58 154.232 473.484 160.425L473.468 160.456Z" fill="#0E141B"/>
<path d="M291.389 166.182C281.144 160.392 279.965 162.565 279.67 170.746C279.064 187.463 288.486 239.852 303.9 279.822C298.824 309.952 294.059 336.06 305.452 365.522C313.54 386.431 336.28 403.459 361.815 409.233C362.529 409.389 361.52 406.455 361.085 406.346C338.252 400.727 316.66 383.357 309.426 364.637C297.722 334.353 301.867 309.563 306.803 280.288C306.803 280.288 307.144 278.348 307.129 278.27C295.363 247.613 282.371 194.061 282.169 169.768C282.138 165.127 283.69 164.925 289.433 168.526C305.67 178.678 344.274 211.927 357.096 233.472C357.468 234.093 360.961 232.308 360.557 231.703C344.259 207.565 309.271 176.303 291.389 166.182Z" fill="#0E141B"/>
<path d="M472.242 175.698C466.312 179.657 435.546 216.228 427.832 233.52C425.659 238.394 425.581 238.565 428.98 240.225C436.835 244.091 449.594 253.078 456.641 262.857C459.467 266.769 460.491 268.352 462.183 261.817C467.088 243.004 475.905 186.812 474.26 176.599C474.058 175.357 473.685 174.736 472.226 175.714L472.242 175.698ZM471.838 179.486C471.838 179.703 471.838 179.889 471.838 180.122C471.838 195.722 463.145 245.612 458.69 261.32C451.193 250.967 437.766 241.545 429.694 237.68C433.885 224.144 462.695 188.07 471.822 179.486H471.838Z" fill="#0E141B"/>
<path d="M290.815 183.444C290.023 195.35 305.018 253.606 312.81 267.995C313.633 269.501 314.937 266.644 316.303 264.89C319.873 260.296 335.132 245.177 342.272 243.143C342.939 242.957 343.343 242.274 343.203 241.607C341.046 231.362 306.058 187.107 292.569 182.295C290.908 181.705 290.846 182.87 290.815 183.444ZM293.485 185.664C306.57 192.773 336.622 230.71 340.27 241.079C332.695 244.168 319.035 256.4 314.223 262.888C306.71 247.024 294.09 199.913 293.5 185.679L293.485 185.664Z" fill="#0E141B"/>
<path d="M366.378 353.881C362.156 359.22 353.308 376.776 353.572 387.766C354.007 405.384 373.425 434.986 387.396 435.653C400.186 436.259 420.288 406.968 422.12 388.542C423.253 377.149 412.309 359.205 407.87 354.051C404.113 349.69 402.484 350.994 406.085 355.774C410.555 361.704 419.558 378.437 418.58 388.294C416.733 406.781 398.153 433.527 387.504 433.03C374.9 432.425 357.608 404.034 357.204 387.751C356.941 377.49 364.702 360.788 368.21 355.526C371.78 350.186 369.731 349.628 366.363 353.881H366.378Z" fill="#0E141B"/>
<path d="M479.103 281.143C475.952 281.95 473.468 283.378 470.907 285.055C470.301 285.458 471.078 287.368 471.683 286.964C473.111 286.017 475.641 285.039 477.38 284.651C477.069 285.567 475.098 289.898 475.098 290.705C475.098 291.636 475.253 292.335 476.588 292.195C478.094 292.04 482.595 291.186 485.358 290.534C484.862 293.437 483.62 297.193 483.076 298.466C482.782 299.149 482.782 299.444 483.449 300.003C485.063 301.338 488.308 301.99 490.636 302.269C490.015 303.294 489.348 304.039 488.804 304.691C488.277 305.343 487.066 306.6 489.177 307.112C492.39 307.873 492.716 308.509 492.732 308.587C492.732 308.602 492.561 309.441 491.49 310.869C490.729 311.862 490.232 312.84 492.359 312.98C492.359 312.98 503.318 313.554 504.979 313.88C503.784 315.681 498.025 322.557 497.512 323.24C496.209 324.979 495.603 326.236 497.869 326.36C499.67 326.469 505.103 326.36 508.409 326.267C507.99 326.888 506.345 329.34 506.345 329.34C505.941 329.946 505.833 330.38 506.64 331.048C507.633 331.855 508.316 332.833 508.828 333.563C508.332 334.183 505.584 336.962 505.584 336.962C504.746 337.816 504.684 338.204 505.833 338.949C506.841 339.616 508.238 339.709 509.729 339.818C510.644 339.88 512.538 340.02 512.662 340.455C512.662 340.47 512.662 340.501 512.662 340.532C512.662 341.029 512.073 342.302 509.449 345.515L511.172 348.682C513.175 346.229 515.255 342.178 515.72 340.315C516.434 337.412 514.711 337.536 509.915 337.195C509.667 337.179 508.533 337.148 508.27 337.117C509.061 336.341 510.738 335.534 511.281 334.773C511.886 333.92 512.15 333.532 511.079 332.15C510.644 331.591 509.341 330.706 508.533 329.868C508.658 329.697 512.259 325.77 512.476 325.118C512.833 324.047 513.113 323.349 511.219 323.38C511.219 323.38 502.573 323.861 499.794 323.861C500.306 323.24 507.074 315.882 508.114 313.818C508.704 312.623 508.595 312.297 506.671 311.598C505.01 310.993 495.805 311.257 494.222 311.164C494.905 310.093 496.503 308.54 496.131 307.531C495.743 306.429 493.166 305.824 491.226 305.156C492.235 303.79 493.803 302.129 493.973 301.478C494.268 300.344 494.423 299.894 492.747 299.832C490.776 299.77 487.609 299.056 485.933 298.249C487.547 293.949 488.742 288.361 488.742 288.346C488.742 287.073 488.463 286.731 486.926 287.119C486.181 287.305 481.012 288.997 478.094 289.51C478.218 289.23 480.484 284.682 480.857 283.487C481.602 281.065 481.555 280.538 479.118 281.159L479.103 281.143Z" fill="#0E141B"/>
<path d="M506.174 342.799C506.174 342.799 501.796 348.216 500.741 350.746C499.592 353.447 501.346 353.633 503.131 351.274C503.131 351.274 506.422 346.897 507.385 345.593C508.161 346.788 509.123 348.635 509.325 349.101C509.666 349.877 510.349 350.141 510.924 350.094C511.498 350.063 514.991 349.893 516.512 349.799C515.41 351.74 513.78 354.425 513.469 354.922C512.709 356.086 512.988 356.505 513.935 357.825C514.835 359.082 519.818 362.962 520.361 363.444C519.787 363.909 518.39 364.794 517.428 365.493C516.17 366.393 516.139 367.2 517.303 368.644C518.002 369.513 521.883 372.493 522.472 373.037C521.526 373.58 517.661 375.769 517.661 375.769C516.357 376.498 516.714 377.29 517.102 377.802C518.188 379.199 522.193 382.94 523.062 383.794C522.783 383.902 519.368 385.144 518.918 385.299C517.505 385.781 517.335 386.324 517.723 387.178C519.058 390.034 522.721 394.815 525.546 398.447C521.758 398.882 515.146 399.285 514.432 399.285C513.485 399.285 513.035 399.627 513.097 400.837C513.159 402.11 515.301 408.117 515.363 408.273C513.469 408.304 511.296 408.381 510.38 408.614C509.294 408.894 509.232 409.235 509.403 410.135C509.806 412.293 511.514 414.559 513.004 416.049C510.427 416.779 506.112 417.788 505.413 417.85C503.706 418.005 504.125 419.433 504.435 420.458C505.041 422.553 506.469 426.31 507.633 428.7C504.963 428.731 499.996 428.452 499.158 428.204C497.885 427.816 497.31 428.328 497.31 429.74C497.31 431.153 497.59 434.335 497.947 436.601C496.193 436.213 494.253 435.685 493.057 434.925C492.483 434.568 491.738 434.676 491.319 435.204C489.642 437.269 486.383 441.149 484.908 442.841C483.79 442.096 482.083 440.948 480.826 439.923C480.36 439.535 476.557 440.637 477.038 441.165C478.435 442.671 483.154 445.915 483.806 446.303C485.42 447.281 485.715 446.862 486.709 445.853C487.407 445.154 490.589 440.218 492.7 437.672C494.734 438.635 497.962 439.845 499.841 440.218C501.905 440.637 501.657 439.923 501.424 438.402C501.269 437.455 500.136 433.124 499.996 430.951C503.147 431.324 508.89 431.339 509.93 431.137C511.327 430.858 511.498 430.346 510.737 428.902C510.194 427.878 507.943 422.895 507.105 420.209C508.751 419.868 514.261 418.471 515.13 418.176C517.443 417.384 518.297 416.484 516.155 415.304C515.58 414.978 512.911 412.433 511.902 410.446C513.05 410.368 515.301 410.896 517.21 410.896C518.949 410.896 519.089 410.57 517.661 406.891C517.21 405.696 516.295 403.321 515.922 401.862C519.042 401.691 526.369 401.614 528.542 401.132C530.467 400.713 529.442 399.394 528.79 398.369C528.076 397.252 522.053 390.282 520.237 387.224C520.936 386.976 526.462 385.346 526.462 385.346C527.517 384.927 528.03 384.244 527.021 383.25C527.021 383.25 521.091 378.237 520.237 377.321C521.029 376.886 525.111 374.542 525.111 374.542C526.369 373.828 525.856 372.726 524.878 371.624C524.102 370.755 519.725 367.852 519.12 367.247C520.594 366.284 523.357 364.81 524.242 364.111C524.739 363.723 524.506 362.885 524.149 362.497C523.699 362 516.838 357.11 515.844 356.07C516.822 354.472 518.84 351.196 519.973 348.899C520.687 347.44 520.998 346.664 518.607 347.005C517.769 347.13 514.013 347.75 511.405 347.89C510.582 346.074 508.828 342.193 507.276 342.193C506.857 342.193 506.407 342.488 506.158 342.83L506.174 342.799Z" fill="#0E141B"/>
<path d="M560.084 320.291C554.433 310.527 524.708 254.32 522.876 251.387C521.883 251.48 519.228 252.846 519.368 252.923C519.368 252.923 551.36 311.847 557.041 321.673C558.702 324.544 561.729 332.073 561.729 334.618C561.729 339.322 564.477 337.257 564.477 332.554C564.477 329.201 561.714 323.132 560.068 320.291H560.084Z" fill="#0E141B"/>
<path d="M559.277 325.072C556.871 331.188 543.133 338.437 518.204 348.34L516.931 352.562C533.525 345.981 558.128 335.27 561.745 326.05C562.009 325.367 559.556 324.405 559.292 325.088L559.277 325.072Z" fill="#0E141B"/>
<path d="M534.192 220.093C530.544 218.526 516.465 218.65 510.365 221.258C506.158 223.058 505.879 226.24 510.07 224.44C515.689 222.034 530.389 221.335 533.152 222.515C538.367 224.75 541.161 237.618 539.283 242.135C538.476 243.268 527.253 251.138 517.909 250.921C515.922 250.75 495.758 242.12 492.56 238.922C489.503 235.88 486.041 226.52 487.733 221.956C488.152 220.838 488.975 219.379 489.953 217.687C492.359 213.481 495.649 207.691 496.519 200.488C495.681 199.216 494.423 194.792 493.694 193.41C494.377 203.748 490.341 211.696 487.671 216.383C486.646 218.184 485.094 220.342 484.597 221.661C482.052 228.491 485.808 238.162 489.968 242.322C493.445 245.799 515.099 254.662 517.8 254.724C527.983 254.941 540.898 245.147 541.72 243.144C544.111 237.401 541.487 223.213 534.192 220.078V220.093Z" fill="#0E141B"/>
<path d="M605.238 179.237C603.733 176.66 595.723 170.87 592.448 168.914C592.774 170.063 593.115 172.112 593.317 173.338C597.182 175.759 602.118 179.128 602.957 180.556C604.54 183.288 609.538 195.395 606.744 201.232C603.702 207.565 595.056 218.12 591.439 221.132C589.918 222.405 587.807 222.731 585.665 222.017C583.926 221.442 582.467 220.247 581.877 218.99C580.93 219.207 580.309 219.906 579.75 220.604C580.744 222.327 582.715 224.19 584.966 224.935C587.993 225.944 591.02 225.447 593.255 223.569C597.136 220.34 607.148 209.242 610.376 202.505C613.915 195.132 606.511 181.41 605.238 179.221V179.237Z" fill="#0E141B"/>
<path d="M587.543 199.85C586.239 206.711 583.15 215.109 579.378 219.114C578.664 219.874 573.65 220.356 567.736 219.347C562.49 218.446 560.596 217.096 560.347 216.506C560.053 215.839 558.128 217.95 558.236 218.12C559.727 220.247 563.716 222.327 567.1 222.917C570.98 223.584 579.362 224.003 581.567 221.675C585.82 217.173 588.536 207.581 589.902 200.363C590.927 194.899 588.567 194.402 587.527 199.866L587.543 199.85Z" fill="#0E141B"/>
<path d="M506.81 133.135C503.442 135.666 486.243 169.846 486.817 180.06C487.361 189.684 501.269 212.704 505.258 216.833C509.806 221.552 524.615 226.177 537.452 216.507C538.026 216.072 535.31 214.815 535.03 215.001C522.892 223.492 511.141 217.904 508.161 214.815C504.435 210.95 490.543 188.287 490.03 179.377C489.472 169.644 507.276 137.653 509.278 136.116C511.746 134.269 521.293 132.747 524.304 134.129C527.16 135.433 535.434 142.728 535.434 142.728C536.21 143.396 552.493 141.176 555.194 142.387C559.587 144.358 567.395 152.135 568.233 153.408C569.18 154.851 583.165 156 583.957 156.45C590.057 161.743 592.634 170.514 591.548 182.466C591.16 186.766 593.721 185.602 594.109 181.286C594.652 175.357 596.003 161.464 585.711 153.734C583.507 152.088 570.779 151.762 570.064 151.499C566.851 147.882 562.629 141.564 556.234 138.693C552.881 137.187 539.283 139.267 536.458 140.136C536.288 139.981 528.868 132.173 525.655 130.714C521.712 128.913 510.008 130.745 506.826 133.135H506.81Z" fill="#0E141B"/>
<path d="M533.214 149.076C526.772 161.898 525.127 167.657 525.856 175.247C526.338 180.323 528.713 181.363 528.433 176.272C528.092 170.032 530.358 161.23 536.07 148.58C537.793 144.761 535.092 145.335 533.214 149.092V149.076Z" fill="#0E141B"/>
<path d="M564.663 157.91C564.865 166.634 564.042 176.708 563.607 181.644C563.204 186.363 565.346 185.013 566.199 180.356C567.131 175.28 568.14 164.399 567.24 158.733C566.727 155.473 564.585 154.619 564.663 157.926V157.91Z" fill="#0E141B"/>
<path d="M526.369 190.29C526.369 196.266 532.252 215.328 534.456 217.128C536.101 218.463 539.997 222.763 550.304 223.182C553.906 223.337 560.922 219.627 561.884 217.392C562.412 216.166 565.221 199.246 565.082 193.565C564.973 189.296 563.173 187.697 562.691 192.09C561.667 201.156 559.742 213.977 558.935 216.073C558.33 217.004 553.316 219.674 550.398 219.55C543.987 219.286 538.709 216.274 536.8 214.722C534.797 212.471 529.442 197.772 528.806 190.274C528.356 184.95 526.384 185.726 526.384 190.274L526.369 190.29Z" fill="#0E141B"/>
<path d="M567.379 220.357C561.512 225.231 551.251 232.884 547.06 234.591C547.293 235.476 548.038 237.199 548.519 237.913C553.874 235.616 565.33 226.753 570.018 221.584C569.133 221.133 568.264 220.59 567.379 220.342V220.357Z" fill="#0E141B"/>
<path d="M620.901 334.307C622.701 345.685 623.369 354.47 622.05 358.242C617.874 370.303 557.833 401.845 514.292 415.707C514.432 416.638 504.125 418.702 506.453 421.993C549.715 410.553 620.979 373.47 625.728 359.763C627.001 356.1 626.939 348.37 625.356 338.28C623.897 337.023 622.453 335.626 620.885 334.291L620.901 334.307Z" fill="#0E141B"/>
<path d="M607.753 259.07C603.128 239.667 599.526 222.421 598.828 215.809C598.75 215.079 595.63 216.973 595.708 217.687C596.422 224.47 600.427 241.312 605.068 260.793C610.082 281.826 616.151 307.33 619.721 327.245C621.072 328.161 622.546 328.782 623.881 329.573C620.032 309.006 613.248 282.074 607.769 259.086L607.753 259.07Z" fill="#0E141B"/>
<path d="M657.425 351.228C610.609 326.997 562.412 272.498 541.736 219.923C540.587 219.457 539.113 218.277 537.964 217.703C558.112 271.038 606.263 326.392 653.87 351.662C654.367 351.926 658.093 351.569 657.441 351.228H657.425Z" fill="#0E141B"/>
<path d="M541.658 234.404C541.364 236.22 541.596 238.052 541.395 240.023C565.92 288.655 613.947 336.651 652.38 356.194V353.664C609.957 331.56 564.647 282.105 541.674 234.42L541.658 234.404Z" fill="#0E141B"/>
<path d="M534.068 216.492C533.431 217.377 532.112 218.215 531.382 218.696C531.662 219.441 531.957 220.202 532.252 220.947C533.975 221.816 535.651 222.763 537.001 224.005C535.961 221.49 534.968 218.991 534.068 216.492Z" fill="#0E141B"/>
<path d="M677.278 370.055C674.966 370.055 672.249 371.002 671.023 372.197C671.054 373.299 671.163 373.283 671.457 374.044C673.025 372.678 675.043 371.84 677.278 371.84C682.199 371.84 686.204 375.845 686.204 380.765C686.204 385.686 682.199 389.691 677.278 389.691C672.358 389.691 668.353 385.686 668.353 380.765C668.353 379.12 668.803 377.599 669.579 376.264C669.083 375.751 668.384 376.093 668.26 375.488C667.189 377.211 666.785 378.577 666.785 380.765C666.785 387.067 672.171 391.476 677.278 391.476C682.929 391.476 687.772 386.726 687.772 380.765C687.772 374.805 683.27 370.055 677.278 370.055Z" fill="#0E141B"/>
<path d="M470.472 408.381C468.78 408.769 466.561 409.608 464.465 410.601C462.37 411.579 462.09 413.255 464.853 412.355C464.853 412.355 468.641 411.067 469.65 410.88C468.967 413.286 467.725 417.772 467.725 418.58C467.725 419.62 468.144 419.899 469.044 419.899C469.044 419.899 478.047 419.868 480.019 420.194C478.948 422.771 476.386 426.605 475.641 427.598C474.834 428.669 475.238 428.855 475.812 429.368C477.364 430.78 483.837 435.437 484.784 436.275C481.912 437.998 476.06 440.063 475.176 440.358C473.701 440.839 473.903 441.77 474.384 443.198C474.989 445.045 476.138 448.569 476.34 449.438C475.672 449.5 474.306 449.438 471.233 448.755C469.914 448.46 469.308 449.035 469.681 450.401C470.472 453.241 471.295 456.625 471.683 458.55C469.619 457.945 465.94 456.517 465.334 456.222C463.518 455.337 463.348 456.501 463.425 457.463C463.425 457.463 463.767 461.313 463.968 463.672C462.028 462.726 458.955 460.956 457.387 459.916C456.611 459.404 455.757 459.155 455.369 460.692C454.996 462.182 454.919 464.433 454.903 466.466C454.593 466.249 452.016 464.526 450.93 464.107C449.331 463.502 449.207 464.868 449.113 465.395C448.974 466.187 448.834 467.848 448.539 469.229C447.53 468.64 443.836 465.985 443.836 465.985C442.625 465.116 442.159 465.271 441.802 466.761C441.306 468.841 440.855 471.992 440.545 474.678C437.984 473.203 433.498 470.254 433.017 469.85C431.992 468.997 431.635 469.059 430.983 470.161C430.052 471.729 426.668 481.523 426.28 482.594C423.703 480.592 420.925 477.581 419.574 475.687C418.643 474.383 418.472 474.445 417.68 475.206C416.904 475.951 415.228 478.217 414.25 479.816C412.247 477.596 409.422 473.358 409.096 472.769C408.118 470.937 407.575 471.496 406.83 472.489C405.045 474.864 402.313 477.534 402.298 477.55C400.031 475.702 397.781 472.877 397.501 472.381C396.678 470.937 395.871 470.875 395.142 472.427C393.962 474.88 392.612 478.76 391.742 481.244C389.709 479.086 386.185 473.436 386.185 473.436C385.487 472.318 384.788 472.582 384.152 473.219C382.041 475.33 377.524 480.188 375.397 482.734C373.767 480.064 371.454 473.265 371.097 472.194C370.57 470.658 369.995 470.844 368.831 471.449C368.226 471.76 366.425 472.675 365.199 473.312C364.686 472.536 362.87 469.757 362.87 469.757C362.156 468.686 361.892 468.609 360.93 469.338C360.93 469.338 354.519 474.212 352.827 475.407C352.672 474.569 352.563 473.389 352.486 472.489C351.958 466.746 350.732 463.641 348.916 464.79C348.248 465.225 343.964 468.671 343.203 469.167C342.645 467.708 342.07 464.123 341.977 463.315C341.853 462.322 341.636 461.903 340.533 461.996C339.571 462.074 331.22 466.451 330.056 466.994C330.227 464.681 331.934 460.397 332.757 458.333C334.464 454.126 334.092 454.173 332.167 453.179C330.801 452.465 329.435 452.077 328.317 451.767C329.078 451.022 329.792 450.416 329.978 450.261C331.189 449.314 331.546 448.833 329.761 447.948C328.348 447.25 326.936 446.349 325.834 445.527C327.246 443.4 329.295 441.273 330.599 440.311C332.058 439.24 332.105 438.805 331.236 437.765C330.102 436.415 325.011 430.858 324.592 430.377C327.557 429.709 332.881 428.855 334.573 428.855C336.11 428.855 335.97 427.753 335.753 426.418C335.427 424.463 334.092 419.231 334.045 419.061C335.489 419.604 336.994 420.38 337.646 421.032C340.239 423.655 340.533 421.7 339.012 419.682C337.134 417.198 333.843 415.785 332.12 415.987C330.568 416.158 330.816 416.888 330.956 417.493C330.956 417.493 333.424 424.959 333.766 426.775C330.335 427.117 322.279 427.878 320.727 428.576C319.392 429.181 319.64 430.113 320.432 430.796C320.727 431.044 327.836 437.533 329.031 438.774C327.013 440.482 323.117 443.555 322.186 445.309C321.813 446.023 321.938 446.505 322.543 446.97C323.428 447.653 326.47 448.647 327.96 449.516C327.293 450.152 325.508 450.835 324.933 451.472C324.157 452.341 323.769 452.931 325.182 453.443C325.182 453.443 330.304 454.809 331.561 455.477C331.282 456.222 327.883 464.045 327.339 466.513C326.796 468.966 326.998 470.751 329.497 470.006C330.413 469.726 338.702 465.023 339.866 464.48C340.161 466.823 340.254 468.686 340.611 470.782C340.968 472.862 342.055 472.924 344.305 471.589C345.097 471.108 348.729 467.522 349.257 467.134C349.645 468.376 349.692 471.325 349.816 472.753C349.971 474.43 350.095 475.827 350.406 476.836C350.903 478.45 351.508 479.304 352.951 478.496C353.976 477.938 361.442 471.806 361.675 471.635C361.97 472.07 363.507 476.106 363.507 476.106C364.128 477.068 364.423 477.084 365.214 476.68C365.214 476.68 368.101 474.259 369.405 473.591C370.29 476.323 371.703 483.153 373.519 485.637C374.31 486.723 375.071 488.074 376.406 486.444C377.213 485.466 381.994 478.822 385.145 475.547C385.207 475.64 388.141 481.647 391.401 484.659C392.301 485.497 393.155 484.985 393.993 482.827C394.443 481.663 395.468 476.96 396.477 474.461C397.517 475.718 398.991 479.257 400.466 480.468C402.096 481.818 402.204 482.02 404.098 480.173C404.61 479.676 406.52 476.51 407.917 474.849C409.453 477.177 412.077 481.71 413.691 482.982C414.622 483.712 415.166 483.293 415.662 482.594C416.47 481.461 417.556 478.916 418.379 477.767C420.335 480.297 424.029 485.109 426.342 486.568C427.196 487.111 427.848 487.111 428.22 486.04C428.22 486.04 431.433 474.119 432.349 471.992C434.802 473.653 439.831 477.487 441.181 477.969C442.082 478.295 442.827 478.093 442.951 476.851C443.153 474.662 443.261 470.859 443.696 468.469C445.404 469.695 446.723 471.309 447.965 472.318C449.967 473.948 450.34 473.731 450.743 471.822C451.131 469.975 451.054 468.065 451.224 466.777C451.519 466.963 454.391 469.447 455.679 470.006C457.449 470.782 457.511 469.385 457.527 468.391C457.542 467.398 457.325 463.688 457.433 462.415C459.234 463.517 462.277 465.908 464.108 466.606C466.84 467.646 466.887 467.041 466.7 464.914C466.607 463.797 465.924 460.506 465.769 458.736C467.446 459.419 471.031 461.406 472.739 461.701C474.369 461.98 475.471 462.663 475.471 460.552C475.471 459.574 473.173 454.374 472.366 451.27C474.167 451.596 476.309 452.155 477.426 452.093C478.746 452.015 479.087 451.611 479.087 450.152C479.087 449.143 476.588 442.826 476.433 442.344C479.444 441.382 486.383 438.961 488.292 437.284C489.068 436.617 489.115 436.384 488.494 435.53C487.563 434.242 479.149 429.15 477.877 428.095C479.041 426.387 482.145 423.205 483.03 420.644C483.868 418.191 483.822 417.881 481.028 417.571C477.69 417.198 470.985 417.415 470.302 417.415C470.86 415.165 472.351 410.911 472.583 410.197C473.344 407.9 472.133 408.009 470.441 408.397L470.472 408.381Z" fill="#0E141B"/>
<path d="M280.849 359.795C280.741 360.54 281.439 364.002 281.47 364.654C277.341 364.654 271.334 365.849 268.338 366.796C266.817 367.277 267.205 368.193 267.702 368.876C269.704 371.639 272.747 374.79 273.849 376.42C271.66 378.5 267.376 381.76 266.879 382.769C266.631 383.265 266.584 383.7 266.988 384.119C268.416 385.64 271.101 386.991 272.685 387.938C271.039 389.49 268.68 390.856 267.407 392.517C266.553 393.619 266.398 393.898 268.711 395.264C270.061 396.056 271.474 396.49 272.56 396.878C272.079 397.437 269.301 399.579 269.301 399.579C268.431 400.604 268.68 400.93 270.17 401.892C271.194 402.56 272.514 403.165 273.336 403.6C270.946 406.239 266.289 410.787 264.768 413.441C264.302 414.248 264.427 414.854 265.358 415.288C267.469 416.282 273.492 416.871 276.534 417.089C276.037 418.657 274.827 424.338 274.827 424.338C274.687 425.021 274.687 425.875 276.022 425.952C277.434 426.045 280.849 424.835 280.974 424.803C280.213 426.93 278.552 430.205 278.443 430.671C278.179 431.711 278.195 432.394 279.794 432.301C281.688 432.192 285.584 431.758 287.834 431.525C287.633 432.441 284.466 443.788 284.466 445.216C284.466 445.976 284.544 447.218 286.034 446.985C288.223 446.644 298.514 440.093 298.824 439.938C299.088 442.39 299.88 448.646 300.221 449.251C300.532 449.795 301.168 450.043 301.758 449.857C303.761 449.22 305.453 447.948 306.446 447.187C307.02 448.274 309.256 454.063 309.256 454.063C310.125 455.957 311.056 454.979 312.407 453.877C313.571 452.915 315.108 450.571 316.023 449.251C316.536 450.633 319.05 459.419 319.283 459.807C319.888 460.816 320.603 461.157 321.487 459.884C321.487 459.884 326.718 452.449 328.86 449.997C329.155 449.655 327.355 447.73 327.075 448.025C325.12 450.214 322.558 453.784 320.742 456.345C320.447 455.507 317.498 447.249 317.079 446.504C316.303 445.107 315.728 445.153 314.766 446.752C314.285 447.544 312.313 450.307 311.01 451.564C310.746 451.005 308.402 445.79 307.579 444.734C307.067 444.067 306.461 443.756 305.608 444.61C305.173 445.045 304.04 446.007 302.27 446.799C302.193 446.287 302.1 445.681 302.022 445.153C301.65 442.561 301.23 439.627 300.315 438.091C299.958 437.485 299.212 437.253 298.592 437.594L296.574 438.681C294.369 439.891 290.303 442.127 287.757 443.151C288.098 440.838 290.396 430.376 290.396 430.376C290.613 429.321 290.334 428.638 288.937 428.808C287.99 428.932 284.342 429.305 281.594 429.522C282.215 427.722 283.147 425.098 283.535 424.105C284.078 422.723 283.597 422.04 282.231 422.304C282.231 422.304 278.242 423.018 277.791 423.112C277.807 423.034 279.173 417.896 279.592 416.421C279.887 415.412 280.461 414.279 278.257 414.528C277.403 414.621 271.707 414.031 268.602 413.239C270.527 410.243 273.74 405.944 275.556 404.252C276.41 403.46 276.72 402.948 275.37 402.172C275.37 402.172 272.7 400.635 272.188 400.262C272.312 400.123 274.827 397.173 274.827 397.173C275.82 395.994 275.696 395.497 274.066 395.062C272.917 394.752 271.179 394.24 270.185 393.324C271.505 391.694 272.917 390.204 274.811 388.543C275.96 387.534 275.603 387.286 274.563 386.618C272.809 385.501 271.784 384.585 270.31 383.234C271.412 381.853 273.926 379.09 275.665 377.584C276.224 377.103 276.27 376.56 275.975 376.001C275.665 375.38 273.026 371.592 270.946 368.798C273.321 367.774 278.816 366.749 282.014 367.091C283.162 367.215 283.473 366.734 283.473 365.833C283.473 365.818 283.348 362.155 283.348 362.155C285.071 363.241 287.415 365.042 289.635 367.06C291.451 368.69 292.46 367.743 290.908 365.865C288.455 362.884 284.901 359.671 282.619 358.786C281.222 358.243 281.005 358.693 280.834 359.826L280.849 359.795ZM282.293 364.436C282.293 364.436 282.184 364.436 282.122 364.436C282.184 364.436 282.231 364.436 282.293 364.436ZM278.568 417.151C278.568 417.151 278.459 417.151 278.397 417.151C278.443 417.151 278.521 417.151 278.568 417.151Z" fill="#0E141B"/>
<path d="M294.99 291.775C294.773 292.831 295.3 300.375 295.3 300.375C293.515 300.515 291.249 300.002 289.324 300.033C288.145 300.049 287.943 300.623 288.145 301.601C288.486 303.169 289.666 305.513 290.225 307.158C289.278 307.205 287.011 307.05 286.406 307.05C285.211 307.05 284.962 307.469 285.226 308.478C285.506 309.564 286.903 311.753 287.399 312.964C285.366 313.01 282.51 312.405 280.088 312.638C278.738 312.762 279.033 313.755 279.266 314.361C279.266 314.361 281.811 319.452 282.37 321.082C279.297 322.634 273.74 324.901 273.678 324.932C272.886 325.351 272.715 326.018 273.243 326.918C273.243 326.918 278.179 332.382 279.638 334.292C279.312 334.385 275.137 335.176 274.19 336.015C273.507 336.62 273.507 336.961 273.926 337.676C274.888 339.305 278.816 342.503 279.126 342.829C278.412 343.403 273.895 345.794 273.088 346.57C272.125 347.486 272.42 348.277 273.181 348.867C275.292 350.482 277.605 350.947 278.614 351.63C277.729 352.577 272.172 356.799 271.318 358.041C270.79 358.817 270.837 359.205 271.567 359.811C274.097 361.875 279.731 364.204 281.827 365.026L281.19 362.62C279.25 361.58 276.86 359.749 274.842 358.398C275.416 357.762 279.607 353.959 281.004 352.158C281.485 351.537 281.827 351.056 281.066 350.606C281.066 350.606 277.698 349.147 276.316 347.796C276.922 347.268 281.19 343.9 281.19 343.9C281.889 343.326 281.765 343.046 281.439 342.379C281.19 341.867 277.884 338.483 277.093 337.474C278.133 337.148 281.299 336.061 281.718 335.828C282.619 335.316 283.146 334.835 282.494 333.981C282.494 333.981 278.319 328.564 276.937 326.748C278.816 325.739 282.153 323.923 284.047 322.665C285.04 321.998 284.73 321.129 284.528 320.446C284.326 319.763 282.727 315.463 282.634 315.246C284.078 315.044 286.22 314.92 288.61 314.92C289.355 314.92 290.318 314.516 289.914 313.383C289.914 313.383 288.781 310.34 288.595 309.828C289.774 309.782 291.358 309.719 291.358 309.719C292.693 309.657 292.91 309.3 292.382 307.81C292.134 307.096 291.203 304.519 290.908 302.703C292.848 302.765 294.354 302.672 296.263 302.579C297.846 302.502 297.737 301.291 297.675 299.832C297.644 298.916 297.598 294.554 297.66 293.902C297.986 294.026 301.711 295.299 302.72 296.246C303.248 296.743 303.776 293.685 303.357 293.436C302.115 292.66 298.079 290.953 297.706 290.782C295.657 289.82 295.316 290.115 294.974 291.791L294.99 291.775Z" fill="#0E141B"/>
<path d="M292.212 333.22C286.841 333.763 286.965 335.114 292.351 335.238C294.4 335.285 297.458 335.921 299.554 337.504C299.585 336.604 299.833 335.517 300.221 334.555C297.893 333.608 294.385 333.003 292.196 333.22H292.212Z" fill="#0E141B"/>
<path d="M321.347 385.205C318.259 386.152 315.713 387.704 314.036 389.241C310.963 392.082 312.22 393.184 315.604 390.747C317.7 389.241 320.121 388.216 323.35 387.378C322.651 386.68 321.968 385.981 321.347 385.205Z" fill="#0E141B"/>
<path d="M326.02 390.809C320.711 394.1 312.003 402.684 308.293 410.43C306.089 415.024 307.75 416.173 310.171 411.687C313.928 404.717 325.306 394.395 329.264 392.812C329.947 392.548 326.734 390.375 326.02 390.809Z" fill="#0E141B"/>
<path d="M424.06 421.497C426.777 424.555 430.486 431.602 431.62 434.008C433.265 437.516 434.646 435.405 433.172 431.819C431.216 427.085 429.291 423.794 426.125 421.047C424.091 419.277 422.275 419.494 424.06 421.512V421.497Z" fill="#0E141B"/>
<path d="M429.741 403.926C431.79 404.749 440.126 410.43 442.718 413.566C445.279 416.67 446.273 414.792 443.603 411.237C440.716 407.388 434.398 402.777 432.163 401.877C431.48 401.613 429.074 403.647 429.741 403.926Z" fill="#0E141B"/>
<path d="M492.886 346.182C488.54 343.683 480.577 342.596 473.685 343.155C473.499 344.071 473.359 345.049 473.111 345.934C479.46 345.204 489.472 346.648 493.554 348.992C497.466 351.242 496.798 348.433 492.886 346.167V346.182Z" fill="#0E141B"/>
<path d="M487.035 335.332C484.365 334.866 478.979 334.649 474.26 335.238C474.353 336.139 474.291 337.179 474.26 338.033C478.528 337.474 485.746 337.784 488.354 337.924C493.585 338.188 492.173 336.216 487.019 335.332H487.035Z" fill="#0E141B"/>
<path d="M486.088 372.678C487.438 374.246 490.279 376.047 494.842 377.645C498.366 378.887 501.129 378.033 497.714 376.528C494.066 374.929 489.472 372.694 487.423 370.955C484.334 368.332 483.449 369.605 486.072 372.678H486.088Z" fill="#0E141B"/>
<path d="M651.061 354.782C651.061 357.188 653.017 359.144 655.423 359.144C657.829 359.144 659.785 357.188 659.785 354.782C659.785 352.376 657.829 350.42 655.423 350.42C653.017 350.42 651.061 352.376 651.061 354.782ZM652.97 354.906C652.97 353.618 654.01 352.578 655.299 352.578C656.587 352.578 657.627 353.618 657.627 354.906C657.627 356.194 656.587 357.234 655.299 357.234C654.01 357.234 652.97 356.194 652.97 354.906Z" fill="#0E141B"/>
<path d="M658.295 355.93C663.076 359.655 668.881 367.913 670.682 372.958C671.629 375.597 669.223 376.808 668.431 374.883C666.444 370.024 661.477 362.418 657.115 358.041C656.696 357.622 653.622 357.684 654.166 358.165C658.403 361.953 664.302 370.195 666.32 375.131C667.22 377.336 669.083 377.786 670.433 377.258C671.986 376.668 673.258 374.355 672.405 371.949C670.092 365.461 662.486 356.349 658.962 353.633C658.388 353.183 657.798 355.557 658.295 355.93Z" fill="#0E141B"/>
<path d="M274.423 415.816C265.094 423.842 258.388 429.15 257.146 429.895C257.597 430.609 258.218 431.696 258.869 432.348C260.934 431.028 265.761 427.474 278.102 417.772L274.423 415.832V415.816Z" fill="#0E141B"/>
<path d="M319.547 455.693C308.96 467.676 268.664 491.798 255.547 491.488C239.792 491.131 173.402 428.979 165.036 415.955C164.213 414.667 162.149 414.046 159.292 413.192C150.32 410.507 148.566 408.706 143.475 401.721C140.774 398.027 138.213 394.534 135.062 393.184C131.398 391.616 128.263 391.88 126.152 392.377V395.093C127.89 394.596 130.669 394.208 134.022 395.621C137.545 397.096 139.02 401.287 141.286 404.593C145.819 411.19 149.048 414.17 157.461 415.971C159.805 416.483 162.785 417.213 163.67 418.423C172.393 432.006 236.657 495.446 254.523 495.865C268.074 496.176 309.069 472.178 321.72 459.201C321.347 458.254 319.842 456.593 319.547 455.693Z" fill="#0E141B"/>
<path d="M164.741 341.883C158.128 345.887 146.952 368.581 145.679 374.884C144.639 380.053 156.824 386.65 164.322 385.253C173.014 383.623 180.139 374.216 181.738 371.996C184.082 368.737 183.29 365.415 180.931 368.675C176.771 374.433 169.801 381.543 163.825 382.66C160.006 383.374 148.349 379.727 149.28 375.675C150.708 369.482 160.907 348.076 166.309 344.816C174.52 339.865 201.653 337.257 207.319 341.991C211.107 345.158 212.876 355.046 214.428 363.754C215.546 370.025 216.617 375.955 218.371 379.307C221.957 386.091 249.494 427.008 260.033 435.639C266.786 441.165 267.376 437.408 260.623 431.882C250.736 423.779 225.015 385.423 221.103 377.352C219.147 373.3 219.085 369.001 217.999 362.931C216.276 353.323 214.506 343.388 209.973 339.601C202.988 333.749 173.076 336.838 164.694 341.898L164.741 341.883Z" fill="#0E141B"/>
<path d="M171.571 380.006C170.763 387.534 173.076 396.382 178.556 401.861C181.163 404.469 183.833 403.677 181.226 401.07C175.824 395.668 173.651 384.057 175.312 377.274C175.482 376.56 171.664 379.043 171.555 380.006H171.571Z" fill="#0E141B"/>
<path d="M157.399 343.31C159.059 344.412 161.621 346.306 162.335 347.206C162.785 347.78 164.073 345.173 163.84 344.955C162.521 343.667 159.96 341.804 158.33 340.764C157.756 340.392 156.762 342.891 157.414 343.31H157.399Z" fill="#0E141B"/>
<path d="M156.08 302.083C148.97 303.371 138.601 307.05 136.195 311.241C134.348 314.439 118.453 354.316 129.567 361.798C136.071 366.191 149.964 359.175 156.437 349.039C157.663 347.114 160.705 339.368 161.466 334.804C162.211 330.365 160.224 328.642 159.479 333.081C158.796 337.195 155.35 345.111 154.263 346.819C149.032 355.015 135.838 362.31 131.073 359.097C122.861 353.556 136.366 319.034 139.734 313.182C141.566 310.015 149.762 307.236 156.607 305.995C160.985 305.203 172.735 312.669 177.144 315.479C178.137 316.115 181.505 319.592 185.076 323.287C190.043 328.425 195.848 334.416 200.427 338.312C202.538 340.098 207.878 339.896 207.242 339.461C202.74 336.403 192.852 327.524 186.985 321.455C182.421 316.736 179.767 313.585 178.572 312.809C169.724 307.174 160.814 301.214 156.08 302.083Z" fill="#0E141B"/>
<path d="M133.106 361.13C131.631 368.208 130.296 371.592 129.551 372.337C123.094 378.795 116.652 381.821 112.337 380.44C109.232 379.447 108.13 376.497 107.742 374.2C105.755 362.154 107.851 343.9 114.774 334.198C118.127 329.495 128.108 326.468 133.028 325.428C133.634 324.512 134.782 322.743 134.72 321.656C131.103 322.231 116.326 325.785 111.731 332.212C104.141 342.844 102.682 362.775 104.731 375.178C105.429 379.447 107.696 382.411 111.11 383.498C116.466 385.221 124.118 381.464 131.398 374.184C133.152 372.43 134.689 366.439 135.76 361.208C134.829 361.565 133.866 361.735 133.09 361.114L133.106 361.13Z" fill="#0E141B"/>
<path d="M106.376 352.096C104.762 352.313 100.834 352.98 98.8787 356.908C98.7545 357.156 87.3144 383.467 90.6052 391.243C92.0177 394.612 95.9915 396.475 100.834 396.226C108.037 395.869 116.652 390.188 119.384 381.34C119.601 380.642 116.559 381.48 116.373 381.914C113.578 388.76 106.5 392.625 100.602 392.92C96.9073 393.106 94.1288 391.849 93.1509 389.552C90.869 384.165 98.801 365.041 101.797 359.065C103.132 356.395 104.358 356.225 105.786 356.038L106.376 352.096Z" fill="#0E141B"/>
<path d="M123.854 379.168C125.453 384.601 125.003 399.145 122.318 405.308C119.524 411.703 107.649 416.981 103.194 414.652C101.704 413.876 100.664 406.518 101.487 394.318C100.54 394.318 99.0805 394.442 98.3199 394.442C97.6525 404.159 98.0871 415.863 101.75 417.788C108.146 421.125 121.091 415.956 125.003 407.046C128.387 399.316 128.061 381.9 125.872 377.072C125.189 377.724 124.537 378.469 123.854 379.183V379.168Z" fill="#0E141B"/>
<path d="M319.826 458.674C321.487 467.134 322.372 486.972 316.986 499.529C313.772 507.042 290.364 532.142 277.31 547.214C271.582 553.827 267.64 558.297 266.506 559.881C262.486 565.515 257.953 586.455 257.69 590.724C257.441 595.008 279.344 642.01 294.447 645.379C299.181 646.434 300.392 644.432 295.642 643.392C282.541 640.474 261.834 594.868 262.005 590.414C262.269 585.974 266.988 566.68 270.449 561.852C271.52 560.362 275.835 555.379 281.299 549.062C295.316 532.887 316.473 508.455 319.857 500.569C325.476 487.468 324.716 465.116 324.281 454.855L319.811 458.674H319.826Z" fill="#0E141B"/>
<path d="M526.074 520.965C518.111 508.066 498.382 455.46 495.541 437.128C494.734 437.252 491.878 436.724 490.962 437.081C494.641 454.094 509.698 494.732 516.667 509.556C517.707 511.775 526.446 521.57 526.058 520.949L526.074 520.965Z" fill="#0E141B"/>
<path d="M508.642 502.68C510.598 505.35 515.814 510.954 524.537 520.391C544.08 541.533 573.604 573.478 577.003 583.304C580.015 591.981 582.514 614.52 579.72 623.849C575.932 636.453 568.218 647.459 559.277 660.187C555.411 665.698 552.897 669.019 548.768 675.446C545.989 679.777 546.719 683.595 549.482 679.264C553.58 672.869 558.299 666.97 562.148 661.476C571.213 648.545 579.828 637.043 583.74 624.035C586.72 614.085 584.392 591.516 581.225 582.326C577.64 571.988 548.1 541.455 527.238 518.886C518.577 509.51 510.971 501.842 509.092 499.281C506.283 495.447 505.833 498.862 508.642 502.696V502.68Z" fill="#0E141B"/>
<path d="M347.301 600.177C344.538 603.825 344.864 606.945 347.627 603.312C358.772 588.644 419.916 572.826 436.043 580.417C453.211 588.504 476.806 606.479 493.182 620.573C495.805 622.824 495.107 618.711 492.499 616.444C475.998 602.226 454.407 585.073 437.006 576.862C419.776 568.744 359.207 584.53 347.317 600.177H347.301Z" fill="#0E141B"/>
<path d="M484.893 612.066C483.123 637.182 475.129 648.575 469.308 656.57C466.235 660.792 463.503 664.921 462.804 669.034C461.252 678.317 467.507 720.212 480.64 726.778C491.148 732.024 516.496 730.379 522.333 728.873C524.723 728.268 527.378 725.878 528.604 722.68C530.218 718.473 530.327 711.969 528.915 709.858C526.897 706.847 522.085 705.155 516.108 703.603C512.197 702.594 510.738 704.674 514.649 705.667C521.091 707.328 524.817 710.107 526.074 711.969C526.757 712.994 526.943 717.682 525.422 721.655C524.786 723.316 523.621 725.396 521.697 725.877C515.208 727.538 493.042 728.578 483.775 723.953C472.676 718.396 464.232 679.155 465.862 669.469C466.452 665.961 468.718 662.841 471.59 658.898C477.085 651.338 485.327 639.991 488.882 615.481C488.975 614.845 484.955 611.352 484.893 612.066Z" fill="#0E141B"/>
<path d="M545.089 703.308C550.18 705 554.201 708.228 555.085 711.317C556.358 715.757 552.478 724.077 548.737 724.93C544.484 725.893 533.416 725.707 524.785 724.946C523.808 724.853 520.936 727.166 521.65 727.29C529.892 728.625 544.965 729.572 550.46 727.895C555.085 726.483 560.146 715.819 558.314 709.392C556.948 704.596 551.531 702.547 546.657 701.383C541.845 700.234 540.463 701.755 545.104 703.308H545.089Z" fill="#0E141B"/>
<path d="M549.885 676.05C551.748 681.421 556.684 690.719 562.396 696.617C562.443 696.664 562.489 696.71 562.552 696.741C566.215 699.535 569.335 701.258 572.067 702.78C575.621 704.751 578.183 706.179 580.123 708.896C581.862 711.317 581.753 716.657 579.906 720.801C578.695 723.502 576.987 725.163 575.187 725.365C569.894 725.955 557.429 725.318 552.26 724.402C551.174 724.216 549.047 726.219 549.59 726.405C554.557 728.112 569.63 729.292 575.653 728.516C578.431 728.159 581.411 725.349 583.026 721.733C585.168 716.936 585.758 710.029 583.29 706.598C581.008 703.401 577.05 702.547 573.34 700.482C570.701 699.008 567.705 697.347 564.228 694.708C558.019 688.282 553.238 676.81 552.369 672.542C552.229 671.828 549.683 675.46 549.885 676.05Z" fill="#0E141B"/>
<path d="M529.256 606.542C528.666 608.389 524.227 618.323 527.657 623.337C529.628 626.224 536.614 633.877 536.614 640.909C536.614 644.525 538.926 642.802 538.787 639.201C538.414 630.415 531.631 622.763 530.901 621.785C529.008 619.177 530.373 610.547 531.522 606.495C532.842 601.854 530.746 601.963 529.256 606.557V606.542Z" fill="#0E141B"/>
<path d="M502.231 665.821C503.054 667.653 505.553 671.363 510.707 674.095C513.407 675.538 515.115 674.592 512.6 672.837C509.542 670.711 506.05 667.218 504.032 664.548C502.418 662.422 500.431 661.723 502.247 665.821H502.231Z" fill="#0E141B"/>
<path d="M493.43 703.246C490.45 704.239 490.295 705.543 493.43 705.139C497.45 704.643 500.462 704.301 503.644 704.441C508.052 704.643 507.602 703.153 504.28 702.501C500.834 701.833 497.031 702.035 493.43 703.23V703.246Z" fill="#0E141B"/>
<path d="M527.967 702.439C529.737 702.175 533.074 701.756 535.698 701.771C538.321 701.787 539.05 700.514 535.93 699.94C532.764 699.365 529.333 700.017 528.417 700.157C523.047 700.949 522.597 703.215 527.967 702.423V702.439Z" fill="#0E141B"/>
<path d="M329.823 624.671C327.448 628.598 321.317 636.918 315.185 641.342C311.056 644.322 315.077 644.431 319.206 641.451C325.973 636.561 331.049 629.436 332.415 625.168C333.859 620.635 332.632 620.014 329.823 624.686V624.671Z" fill="#0E141B"/>
<path d="M353.168 596.794C351.756 613.589 365.478 622.732 370.709 626.224C372.649 627.513 374.605 632.899 374.605 640.707C374.605 642.212 371.609 650.548 363.196 669.408C359.346 678.023 351.042 685.21 348.636 685.722C346.23 686.219 314.548 690.627 311.397 683.301C308.852 677.355 309.302 671.798 312.577 668.787C314.611 666.909 325.973 662.888 325.973 662.888C329.761 661.522 327.013 659.846 323.241 661.212C323.241 661.212 312.174 664.006 309.737 666.257C305.623 670.044 305.483 677.79 308.479 684.791C313.353 696.169 345.951 690.006 349.754 689.541C353.215 689.106 361.923 680.274 366.316 670.386C371.625 658.48 377.756 643.423 377.756 640.381C377.756 634.249 375.893 626.535 372.153 624.036C364.345 618.836 353.898 610.376 358.431 593.006C358.617 592.292 353.168 596.452 353.137 596.809L353.168 596.794Z" fill="#0E141B"/>
<path d="M295.347 661.833C292.879 662.966 284.45 665.651 282.184 669.423C278.319 675.849 280.057 684.837 284.559 687.988C291.529 692.862 307.129 690.798 317.839 689.385C318.569 689.292 315.449 687.041 314.098 687.196C306.43 688.097 292.522 689.199 286.623 685.07C283.177 682.664 282.479 676.191 285.583 670.774C287.089 668.135 293.515 665.139 296.449 663.788C301.261 661.569 300.159 659.613 295.347 661.833Z" fill="#0E141B"/>
<path d="M287.85 639.821C286.36 642.987 281.765 655.917 280.492 656.678C280.492 656.678 262.999 663.151 260.841 665.371C257.038 669.298 256.37 681.436 259.413 685.364C262.502 689.368 276.829 692.504 289.573 688.515C290.272 688.297 287.493 686.248 286.764 686.388C274.501 688.592 265.327 685.814 263.495 683.439C260.313 679.325 262.595 669.919 264.97 667.404C267.019 665.246 281.595 659.068 281.595 659.068C283.302 658.292 286.996 651.4 290.737 643.468C291.544 641.745 289.263 639.712 287.835 639.821H287.85Z" fill="#0E141B"/>
<path d="M454.282 542.665C450.743 547.4 449.144 550.613 447.297 556.403C446.49 558.933 446.924 563.186 448.772 558.669C450.06 555.534 456.704 543.224 456.704 543.224C458.458 540.259 457.821 537.931 454.298 542.665H454.282Z" fill="#0E141B"/>
<path d="M446.847 333.111C432.706 324.527 419.232 333.67 412.046 348.37C409.624 353.337 410.478 355.107 413.318 349.922C421.732 334.617 434.677 328.827 445.962 334.601C450.091 336.712 450.914 335.579 446.847 333.111Z" fill="#0E141B"/>
<path d="M445.651 340.981C435.034 342.859 425.379 347.004 416.485 353.539C413.691 355.588 412.883 358.428 415.677 356.488C423.641 350.946 436.664 345.094 445.155 342.751C448.896 341.726 449.47 340.298 445.651 340.981Z" fill="#0E141B"/>
<path d="M431.759 356.691C427.025 358.57 421.778 359.579 416.888 360.013C413.287 360.324 414.622 361.131 418.208 361.581C421.887 362.031 428.732 360.199 431.744 358.43C435.065 356.474 435.329 355.279 431.744 356.691H431.759Z" fill="#0E141B"/>
<path d="M360.2 347.968C346.835 326.081 333.874 324.684 325.026 333.19C322.263 335.845 322.651 337.024 325.694 334.696C333.346 328.844 344.988 328.844 358.881 349.303C361.861 353.695 362.622 351.926 360.2 347.968Z" fill="#0E141B"/>
<path d="M328.457 343.28C337.988 345.887 347.239 350.078 355.637 355.263C358.757 357.188 359.906 356.458 356.739 353.975C349.117 347.998 338.671 343.357 329.078 341.37C322.589 340.035 322.124 341.557 328.457 343.28Z" fill="#0E141B"/>
<path d="M340.502 358.351C343.778 360.26 350.235 361.548 353.572 361.331C357.313 361.083 359.44 360.027 355.668 359.841C351.508 359.639 344.104 358.149 341.325 356.876C337.181 354.982 336.575 356.069 340.502 358.351Z" fill="#0E141B"/>
<path d="M347.441 339.989C347.518 342.364 348.155 344.848 349.164 344.817C350.173 344.786 350.623 342.255 350.545 339.881C350.468 337.521 349.831 335.022 348.822 335.053C347.813 335.084 347.363 337.63 347.441 339.989Z" fill="#0E141B"/>
<path d="M423.175 339.103C423.098 341.463 423.563 343.977 424.588 343.993C425.612 344.024 426.249 341.54 426.326 339.181C426.404 336.837 425.938 334.322 424.914 334.291C423.889 334.26 423.253 336.744 423.175 339.103Z" fill="#0E141B"/>
</g>
<defs>
<clipPath id="clip0_42_67151">
<rect width="620" height="600.364" fill="white" transform="translate(90 130)"/>
</clipPath>
</defs>
</svg>
