<svg width="800" height="800" viewBox="0 0 800 800" fill="none" xmlns="http://www.w3.org/2000/svg">
<g clip-path="url(#clip0_42_67271)">
<path d="M238.785 437.521C228.624 439.04 219.475 437.282 211.981 432.857C203.667 427.94 197.394 419.745 194.056 409.018C187.024 411.372 183.671 429.177 184.282 430.13C189.363 438.147 195.233 461.226 196.604 468.855C197.409 473.34 224.765 483.725 244.313 486.258C261.001 488.433 279.357 474.353 284.706 461.286C257.782 474.219 239.471 445.015 238.785 437.521Z" fill="#F08437"/>
<path d="M321.449 471.551C317.739 479.194 319.407 479.209 312.33 487.523C315.653 490.697 319.556 494.243 323.743 497.685C325.159 494.645 329.927 489.237 331.7 487.225C330.329 486.018 329.554 484.335 329.211 482.472C322.447 476.87 327.274 468.809 332.832 470.463C333.86 469.659 335.007 469.182 336.17 468.973C333.383 465.904 324.116 466.053 321.449 471.551Z" fill="#FBD8B5"/>
<path d="M237.861 393.565C232.035 378.293 207.153 360.324 200.701 360.711C191.806 361.248 182.509 364.809 174.284 369.577C186.427 369.338 201.58 372.601 204.605 377.727C207.734 383.001 215.75 401.581 218.298 418.984C219.55 427.611 215.944 432.617 211.98 432.856C219.475 437.281 228.623 439.024 238.785 437.519C236.252 424.467 240.782 401.238 237.861 393.565Z" fill="#0E141B"/>
<path d="M252.791 547.539C250.541 545.93 248.753 542.459 248.783 538.838C240.663 543.859 235.239 538.525 229.845 541.922C225.569 544.604 221.174 549.953 222.455 555.093C235.626 550.758 242.048 557.656 246.384 558.953C251.718 560.532 258.646 557.522 260.881 549.089C257.812 549.64 254.817 548.999 252.806 547.554L252.791 547.539Z" fill="#FBD8B5"/>
<path d="M284.796 488.982C278.448 500.455 258.796 523.46 251.837 529.539C244.388 536.036 250.258 545.735 252.791 547.553C258.066 551.338 267.274 551.07 271.207 544.201C271.52 543.649 276.958 533.16 279.894 528.556C286.405 518.365 291.59 506.653 296.537 502.228C292.692 497.58 286.33 489.906 284.796 488.982Z" fill="#FBD8B5"/>
<path d="M650.658 607.257C647.663 606.512 643.193 606.139 639.245 607.048C638.976 611.22 636.19 613.991 633.866 614.736C631.065 615.63 627.295 616.137 624.047 615.466C624.315 618.908 625.522 624.436 630.722 624.63C642.329 625.062 642.225 614.662 658.361 618.178C658.137 614.126 654.264 608.151 650.658 607.257Z" fill="#FBD8B5"/>
<path d="M637.993 600.671C624.494 580.914 607.463 550.593 604.722 547.077C602.293 543.948 597.853 544.38 594.977 545.2C595.991 546.168 596.84 547.375 597.466 548.716C604.722 550.146 602.815 560.8 597.019 560.085C596.169 561.887 595.186 562.364 594.143 563.318C594.694 565.985 599.239 569.129 601.98 573.241C604.305 576.742 615.599 597.855 617.878 608.881C618.564 612.204 622.482 614.811 625.328 615.392C628.159 615.973 631.437 615.541 633.866 614.752C635.892 614.096 639.006 610.684 639.245 607.063C639.394 604.873 640.004 603.651 637.993 600.686V600.671Z" fill="#FBD8B5"/>
<path d="M597.511 547.404C597.987 548.432 598.3 550.831 598.464 551.964C598.807 554.213 597.302 558.102 596.274 560.322C601.921 561.023 605.765 551.993 597.511 547.404Z" fill="#FBD8B5"/>
<path d="M329.211 482.473C328.362 477.899 329.927 472.729 332.832 470.464C327.259 468.81 322.447 476.856 329.211 482.473Z" fill="#FBD8B5"/>
<path d="M354.198 484.722C348.611 479.925 345.139 472.549 343.62 470.94C340.058 467.156 332.057 469.063 330.016 474.457C327.915 479.984 329.256 485.065 331.7 487.226C332.4 487.851 333.249 488.358 334.292 488.671C338.688 490.027 348.209 499.131 351.278 502.453C350.697 496.24 351.934 489.595 354.198 484.722Z" fill="#FBD8B5"/>
<path d="M538.314 542.444C535.155 519.886 507.486 505.329 501.467 488.612C496.967 476.111 498.144 457.158 501.467 438.519C503.031 429.713 496.312 428.7 492.661 433.244C479.371 449.813 465.082 472.162 452.357 473.041C445.429 464.742 449.914 434.153 449.929 429.475C449.959 421.488 443.462 420.684 439.812 427.985C437.949 431.695 431.662 447.518 423.616 459.304C416.047 467.633 404.708 470.836 393.369 472.535C399.895 483.605 397.705 506.849 392.356 510.306C380.988 508.682 369.306 499.295 368.099 488.79C367.548 484.023 368.651 479.121 370.841 475.127C366.386 475.768 362.512 476.632 359.622 478.107C357.536 479.165 355.658 481.579 354.198 484.723C351.933 489.595 350.712 496.24 351.278 502.454C351.516 504.957 352.038 507.385 352.917 509.605C353.408 509.874 353.915 510.276 354.571 510.708C357.819 505.582 362.989 501.783 367.891 501.113C366.505 505.374 365.82 511.557 366.222 517.04C374.372 522.032 386.232 539.986 387.842 551.757C406.392 536.574 436.415 535.441 461.402 544.098C463.487 539.941 464.918 535.307 465.275 530.51C470.505 533.952 473.664 541.655 474.081 549.581C488.906 557.404 500.349 569.1 503.806 583.478C508.768 568.981 521.954 571.558 524.338 583.284C529.836 577.697 534.172 567.193 536.422 559.102C538.105 553.023 538.955 547.033 538.299 542.444H538.314ZM484.451 521.466C474.871 528.901 443.581 529.869 427.937 519.111C426 503.839 446.993 480.715 469.984 486.645C486.671 490.951 490.903 512.854 484.451 521.451V521.466Z" fill="#F08437"/>
<path d="M540.758 626.76C543.499 626.403 546.628 626.984 548.521 628.042C549.504 628.593 550.383 629.636 551.068 630.932C552.335 622.469 542.546 619.504 540.758 626.76Z" fill="#FBD8B5"/>
<path d="M528.987 662.133C515.875 648.887 501.527 653.208 497.399 655.428C500.156 657.589 508.395 663.951 512.612 670.06C519.868 672.712 523.37 681.175 521.85 690.86C522.461 693.274 524.159 702.213 522.044 708.769C539.536 702.869 541.026 674.306 528.987 662.133Z" fill="#FBD8B5"/>
<path d="M548.535 628.042C544.721 625.926 538.135 625.538 535.528 628.667C535.215 629.04 534.947 629.472 534.783 629.964C531.416 639.499 527.393 645.668 517.052 654.28C522.252 655.502 532.801 663.533 535.155 672.189C537.45 661.223 546.196 647.277 551.903 641.571C555.881 637.592 551.366 629.606 548.55 628.042H548.535Z" fill="#FBD8B5"/>
<path d="M508.902 726.604C500.394 734.203 491.142 735.082 481.934 732.996C479.818 749.296 467.004 757.193 460.404 760.441C453.445 763.868 445.936 762.363 440.066 759.92C436.206 758.311 433.048 756.284 431.26 754.958C430.276 755.748 432.556 776.444 434.627 776.652C440.304 777.233 462.296 788.602 470.476 788.602C478.656 788.602 495.001 774.134 505.073 768.472C514.549 763.138 519.853 736.751 519.675 712.732C516.799 718.096 512.687 723.222 508.887 726.604H508.902Z" fill="#F08437"/>
<path d="M551.53 618C546.539 613.247 534.947 601.492 528.406 591.181C526.811 588.648 524.472 583.522 524.353 583.299C522.639 580.274 517.246 578.024 511.897 582.032C506.578 586.026 507.77 592.447 509.945 593.893C520.196 600.732 527.929 609.269 531.713 618.015C534.112 623.558 534.41 627.089 536.377 628.847C537.375 627.655 538.984 627.015 540.772 626.776C542.56 619.52 552.349 622.5 551.083 630.948C551.381 631.5 551.634 632.081 551.858 632.692C556.283 629.682 556.745 622.977 551.545 618.015L551.53 618Z" fill="#FBD8B5"/>
<path d="M586.723 581.496C574.789 583.061 565.595 580.707 558.757 579.738C555.136 579.217 539.968 574.121 536.392 573.525C534.47 573.212 532.622 573.257 530.656 573.927C528.644 577.846 524.577 583.746 524.666 583.985C525.485 586.22 526.797 588.663 528.391 591.181C533.591 593.669 546.062 591.509 556.581 593.61C575.25 597.35 582.313 603.756 586.723 600.404C586.53 598.363 585.799 597.096 586.753 595.279C583.267 588.589 589.301 585.281 593.592 588.112C594.426 587.531 595.231 587.113 595.976 586.92C593.667 582.211 590.493 581.005 586.723 581.496Z" fill="#FBD8B5"/>
<path d="M468.419 728.168C462.847 725.605 453.713 726.604 444.014 728.049C449.214 728.734 453.594 730.15 453.758 731.893C454.443 739.402 448.931 755.241 440.08 759.919C445.951 762.363 453.46 763.853 460.418 760.441C467.019 757.193 479.833 749.311 481.948 732.996C477.404 731.967 472.859 730.209 468.434 728.168H468.419Z" fill="#CF712F"/>
<path d="M598.464 551.964C597.898 548.298 593.115 542.934 589.852 542.77C585.487 542.562 562.675 553.915 554.853 557.238C547.567 560.337 541.488 560.054 537.241 558.788C536.556 561.276 535.632 564.241 534.693 566.67C536.75 567.683 536.645 570.946 536.407 573.509C539.983 574.104 543.872 575.982 549.399 577.651C560.068 570.573 577.903 563.332 592.221 564.286C594.888 564.464 599.105 556.046 598.479 551.964H598.464Z" fill="#FBD8B5"/>
<path d="M621.723 641.735C619.965 638.218 607.732 609.477 607.285 600.671C606.898 592.849 599.82 586.978 597.079 586.785C593.92 586.561 591.372 589.213 588.273 593.624C585.219 597.989 585.8 603.591 589.614 609.462C594.307 616.703 600.893 645.638 600.118 654.042C599.388 661.879 604.216 664.919 610.056 665.649C609.803 664.77 609.624 663.846 609.505 662.848C608.82 656.918 620.71 652.284 626.372 656.59C626.908 656.992 627.459 657.29 628.011 657.514C628.86 653.982 623.362 645.028 621.708 641.735H621.723Z" fill="#FBD8B5"/>
<path d="M586.768 595.278C586.932 594.965 588.094 593.908 588.288 593.624C589.882 591.345 591.804 589.348 593.607 588.112C589.316 585.281 583.281 588.588 586.768 595.278Z" fill="#FBD8B5"/>
<path d="M511.673 669.479C515.547 675.096 519.421 682.724 521.835 692.35C523.608 681.1 520.881 672.95 511.673 669.479Z" fill="#0E141B"/>
<path d="M508.053 592.625C504.387 592.193 503.21 587.664 503.836 583.477C500.379 569.099 488.936 557.417 474.111 549.58C473.709 541.653 470.535 533.95 465.305 530.508C464.933 535.321 463.503 539.94 461.432 544.097C436.43 535.44 406.422 536.573 387.872 551.755C386.262 539.985 374.417 522.031 366.252 517.039C365.85 511.541 366.535 505.358 367.921 501.111C363.019 501.767 357.849 505.581 354.601 510.707C350.98 508.308 347.151 510.006 344.856 514.506C339.954 524.116 345.407 533.146 347.866 536.081C348.551 536.9 350.473 537.377 353.319 538.763C362.289 546.526 361.738 558.505 375.356 574.254C383.372 583.551 394.442 594.16 413.857 596.544C413.484 595.68 413.276 594.86 413.276 594.071C413.276 586.71 430.157 578.709 454.578 580.78C475.586 582.568 487.223 590.942 487.491 597.512C487.566 599.181 487.134 600.731 486.314 602.146C494.598 602.176 507.546 596.902 508.083 592.625H508.053Z" fill="#FBD8B5"/>
<path d="M508.589 592.061C508.693 592.329 508.812 592.567 508.946 592.791C509.185 592.552 509.438 592.314 509.677 592.061C509.304 592.09 508.932 592.09 508.589 592.061Z" fill="#F08437"/>
<path d="M322.179 507.429C321.866 506.475 320.346 504.419 319.616 503.45C314.907 497.193 308.307 487.701 306.728 483.47C306.4 482.606 306.161 481.712 305.968 480.803C305.446 478.449 304.999 476.02 303.986 473.785C299.248 482.233 291.798 486.077 284.78 488.983C286.315 489.907 288.043 490.905 289.489 492.648C290.397 493.751 303.897 513.433 305.968 517.367C306.295 517.993 306.877 518.112 307.607 518.559C313.388 522.045 325.144 516.383 322.179 507.444V507.429Z" fill="#FBD8B5"/>
<path d="M502.406 659.153C501.72 658.617 501.125 658.214 500.692 657.961C487.283 650.586 443.06 638.204 424.629 643.464C416.42 645.803 341.251 692.38 333.831 718.186C331.417 726.559 334.382 758.564 339.269 765.209C344.156 771.855 358.43 786.531 375.252 792.789C377.993 783.596 382.493 750.742 391.09 746.048C396.469 743.113 427.833 730.448 444.029 728.035C453.729 726.589 462.862 725.591 468.435 728.154C472.86 730.195 477.389 731.953 481.949 732.981C491.157 735.067 500.409 734.188 508.917 726.589C515.339 720.868 522.282 710.349 523.206 702.616C524.741 690.01 514.355 668.48 502.421 659.138L502.406 659.153Z" fill="#F08437"/>
<path d="M640.392 658.93C636.861 657.872 631.095 659.541 627.087 657.962C626.446 657.708 625.805 657.366 625.195 656.904C618.668 651.957 609.311 656.859 610.101 663.683C610.235 664.83 610.444 665.888 610.727 666.901C612.396 672.846 616.731 676.333 624.047 675.379C629.515 674.664 637.785 668.883 649.481 676.974C649.928 670.224 647.797 661.18 640.377 658.93H640.392Z" fill="#FBD8B5"/>
<path d="M301.647 367.492C298.101 358.611 255.175 321.735 210.789 308.712C198.139 305.002 158.401 320.692 150.445 329.229C140.387 340.002 138.182 386.37 149.074 394.55C150.385 388.247 160.919 377.325 174.284 369.593C182.509 364.825 191.806 361.264 200.702 360.727C207.153 360.34 232.036 378.309 237.861 393.581C240.782 401.254 236.252 424.483 238.785 437.535C238.964 438.444 239.173 439.308 239.426 440.113C244.402 456.026 265.53 472.207 284.721 461.285C290.115 458.216 295.359 452.42 297.46 448.546C306.162 432.499 311.943 393.179 301.662 367.492H301.647Z" fill="#F08437"/>
<path d="M484.451 521.464C490.903 512.852 486.657 490.95 469.984 486.658C446.994 480.728 426 503.853 427.937 519.125C443.582 529.882 474.871 528.899 484.451 521.479V521.464Z" fill="white"/>
<path d="M393.37 472.534C391.805 469.867 389.734 467.9 387.067 467.095C380.273 465.024 374.238 468.988 370.841 475.141C368.636 479.134 367.548 484.036 368.1 488.804C369.292 499.294 380.973 508.695 392.356 510.319C397.72 506.848 399.911 483.604 393.37 472.549V472.534Z" fill="white"/>
<path d="M344.841 514.507C327.93 511.259 324.28 504.331 319.884 504.107C326.083 507.668 320.376 519.842 313.626 520.095C316.875 524.49 324.98 523.566 327.99 523.105C330.284 522.747 342.592 529.124 343.515 530.286C342.592 526.353 342.755 517.055 344.841 514.507Z" fill="#D9BC9E"/>
<path d="M507.576 591.94C500.156 585.444 505.52 577.83 508.038 576.176C514.758 571.78 521.135 572.645 522.64 580.109C513.596 578.262 508.5 583.358 507.576 591.925V591.94Z" fill="#D9BC9E"/>
<path d="M253.58 458.379C236.595 468.064 212.874 465.278 193.773 456.666C195.099 461.747 196.112 466.232 196.589 468.869C197.394 473.354 224.749 483.739 244.298 486.272C260.986 488.447 279.342 474.367 284.691 461.3C272.145 467.334 261.462 464.205 253.566 458.379H253.58Z" fill="#CF712F"/>
<path d="M300.038 445.879C298.995 447.801 291.604 456.219 290.576 457.277C291.202 464.131 285.347 468.422 279.208 470.285C275.066 475.365 269.583 479.88 263.667 483.411C272.578 493.32 286.598 491.353 296.372 482.845C308.054 472.669 311.54 459.274 300.038 445.879Z" fill="#D9BC9E"/>
<path d="M279.327 470.374C284.453 468.825 291.977 462.627 291.456 456.92C289.027 459.393 286.509 461.33 283.961 462.776C282.873 465.413 281.279 467.961 279.327 470.374Z" fill="#0E141B"/>
<path d="M323.743 497.684C325.159 494.645 329.927 489.236 331.7 487.224C330.329 486.018 329.554 484.334 329.211 482.471C329.167 482.442 329.137 482.397 329.092 482.367C324.444 485.451 318.841 487.195 312.822 487.984C316.04 491.039 319.75 494.391 323.728 497.669L323.743 497.684Z" fill="#D9BC9E"/>
<path d="M252.791 547.539C252.344 547.226 251.927 546.824 251.539 546.377C245.952 550.936 239.008 552.739 231.559 553.35C238.547 554.557 243.27 557.298 247.606 558.58C252.94 560.159 258.616 557.507 260.866 549.059C257.797 549.61 254.802 548.97 252.791 547.524V547.539Z" fill="#D9BC9E"/>
<path d="M285.004 531.105C282.814 532.118 280.191 532.103 278.403 529.854C275.468 534.458 274.574 537.467 272.95 540.194C282.62 541.222 282.501 546.794 288.431 547.39C292.782 547.823 297.281 544.187 296.045 537.974C291.783 539.091 285.511 536.454 285.004 531.09V531.105Z" fill="#D9BC9E"/>
<path d="M299.516 506.684C294.122 512.658 285.227 523.982 284.497 528.407C283.618 533.712 291.485 541.191 298.741 536.841C303.226 534.144 306.146 524.072 309.827 519.84C304.612 516.86 302.124 510.081 299.516 506.684Z" fill="#D9BC9E"/>
<path d="M297.609 501.842C293.765 497.193 286.33 489.893 284.796 488.969C282.62 492.902 278.91 498.534 274.708 504.45C277.942 512.227 278.94 521.554 278.419 529.272C284.825 519.319 292.856 506.089 297.624 501.842H297.609Z" fill="#D9BC9E"/>
<path d="M533.964 566.521C532.965 569.114 531.848 571.617 530.656 573.912C532.623 573.241 534.47 573.182 536.392 573.509C536.645 570.962 536.02 567.535 533.964 566.521Z" fill="#D9BC9E"/>
<path d="M624.032 615.482C624.3 618.924 625.507 624.452 630.707 624.646C638.336 624.929 640.079 621.144 645.19 619.192C640.288 618.626 636.846 617.494 632.257 615.199C629.709 615.795 626.714 616.048 624.047 615.497L624.032 615.482Z" fill="#D9BC9E"/>
<path d="M353.96 485.289C346.078 486.659 337.54 486.108 329.524 483.635C330.001 485.155 330.776 486.406 331.7 487.226C332.4 487.851 333.249 488.358 334.292 488.671C338.688 490.027 348.209 499.13 351.278 502.453C350.727 496.463 351.859 490.101 353.96 485.289Z" fill="#D9BC9E"/>
<path d="M498.323 570.187C502.45 575.313 502.331 577.265 503.836 583.493C507.367 573.167 519.302 568.772 524.368 583.299C529.866 577.712 534.202 567.207 536.452 559.117C537.509 555.332 537.837 544.307 538.076 540.895C530.134 561.262 514.43 568.802 498.338 570.202L498.323 570.187Z" fill="#CF712F"/>
<path d="M508.902 726.604C506.325 728.899 495.82 732.519 493.123 733.681C505.535 760.709 467.421 781.092 432.765 771.78C433.346 774.566 434.001 776.578 434.642 776.652C440.319 777.233 462.311 788.602 470.491 788.602C478.671 788.602 495.016 774.134 505.088 768.472C514.564 763.138 519.868 736.751 519.69 712.732C516.814 718.096 512.702 723.222 508.902 726.604Z" fill="#CF712F"/>
<path d="M541.89 608.167C537.152 603.011 532.012 596.888 528.391 591.181C526.797 588.648 524.457 583.522 524.338 583.299C522.625 580.274 517.231 578.024 511.882 582.032C506.563 586.026 507.755 592.447 509.93 593.893C515.994 597.93 521.165 602.579 525.173 607.496C531.043 605.976 536.571 606.498 541.89 608.167Z" fill="#D9BC9E"/>
<path d="M554.465 578.695C548.52 577.026 539.119 573.972 536.392 573.525C534.47 573.212 532.622 573.257 530.656 573.927C528.644 577.846 524.577 583.746 524.666 583.985C525.485 586.22 526.797 588.663 528.391 591.181C533.591 593.669 546.062 591.509 556.581 593.61C570.736 596.441 578.052 601.313 582.879 601.462C570.497 598.75 560.306 590.675 554.465 578.695Z" fill="#D9BC9E"/>
<path d="M468.419 728.168C462.847 725.605 453.713 726.604 444.014 728.049C449.214 728.734 453.594 730.15 453.758 731.893C454.443 739.402 448.931 755.241 440.08 759.919C445.951 762.363 453.46 763.853 460.418 760.441C467.019 757.193 479.833 749.311 481.948 732.996C477.404 731.967 472.859 730.209 468.434 728.168H468.419Z" fill="#0E141B"/>
<path d="M555.94 556.777C555.553 556.941 555.195 557.104 554.853 557.238C547.567 560.338 541.488 560.055 537.241 558.788C536.556 561.276 535.632 564.241 534.693 566.67C536.75 567.683 536.645 570.946 536.407 573.509C539.983 574.105 543.872 575.982 549.399 577.651C550.532 576.906 551.754 576.146 553.035 575.401C552.841 574.924 552.648 574.463 552.469 573.986C552.648 574.477 552.841 574.924 553.035 575.401C560.455 571.095 570.155 567.057 579.646 565.225C570.885 564.599 562.422 562.051 555.94 556.762V556.777Z" fill="#D9BC9E"/>
<path d="M503.821 583.492C502.51 578.023 500.037 572.958 496.67 568.339C459.45 581.272 407.599 579.051 365.537 559.727C367.817 564.137 370.767 568.994 375.326 574.269C383.342 583.566 394.413 594.175 413.827 596.559C413.455 595.694 413.246 594.875 413.246 594.085C413.246 586.725 430.127 578.724 454.548 580.795C475.557 582.583 487.193 590.956 487.461 597.527C487.536 599.196 487.104 600.745 486.284 602.161C494.569 602.191 507.516 596.916 508.053 592.64C504.388 592.208 503.21 587.678 503.836 583.492H503.821Z" fill="#D9BC9E"/>
<path d="M508.589 592.061C508.693 592.329 508.812 592.567 508.946 592.791C509.185 592.552 509.438 592.314 509.677 592.061C509.304 592.09 508.932 592.09 508.589 592.061Z" fill="#F08437"/>
<path d="M305.551 480.803C305.759 481.712 306.892 482.978 307.22 483.842C308.814 488.074 314.923 497.207 319.631 503.465C323.073 502.914 323.982 505.745 326.962 507.801C332.117 511.347 339.403 513.165 344.841 514.521C345.288 513.627 345.84 512.822 346.495 512.092C332.519 506.818 311.6 487.031 305.551 480.803Z" fill="#D9BC9E"/>
<path d="M375.326 574.27C361.723 558.521 362.259 546.541 353.289 538.778C350.443 537.408 348.477 535.247 347.836 536.096C344.901 540.045 343.768 572.526 378.485 577.696C377.427 576.609 376.369 575.476 375.326 574.27Z" fill="#D9BC9E"/>
<path d="M311.689 491.785C309.767 488.314 308.218 485.125 307.487 483.188C307.16 482.324 305.759 481.713 305.55 480.804C305.074 478.629 304.791 476.379 304.046 474.293C300.008 480.372 295.285 485.587 284.78 488.984C286.315 489.908 288.043 490.906 289.489 492.649C289.772 492.992 291.351 494.944 293.497 497.626C297.505 491.636 304.895 490.459 311.674 491.785H311.689Z" fill="#D9BC9E"/>
<path d="M454.548 580.795C430.127 578.709 413.246 586.725 413.246 594.086C413.246 594.86 413.455 595.695 413.827 596.559C416.956 603.696 432.541 612.978 452.522 613.261C466.781 613.47 481.978 609.522 486.27 602.161C487.089 600.746 487.521 599.196 487.447 597.527C487.178 590.957 475.542 582.583 454.533 580.795H454.548Z" fill="#D9BC9E"/>
<path d="M504.879 661.299C511.733 701.781 490.024 705.327 463.875 704.448C378.47 701.558 355.912 764.256 333.696 741.385C334.724 751.591 336.721 761.797 339.254 765.224C344.141 771.87 358.415 786.546 375.237 792.804C377.978 783.611 382.478 750.757 391.075 746.063C396.454 743.128 427.818 730.463 444.014 728.05C453.713 726.604 462.847 725.606 468.419 728.169C472.845 730.21 477.374 731.968 481.934 732.996C491.142 735.082 500.394 734.203 508.902 726.604C515.324 720.883 522.267 710.364 523.191 702.631C524.621 690.905 515.726 671.475 504.879 661.299Z" fill="#CF712F"/>
<path d="M613.796 656.457C611.352 658.141 609.758 660.763 610.101 663.683C610.235 664.831 610.444 665.889 610.727 666.902C612.395 672.847 616.731 676.333 624.047 675.38C626.222 675.097 628.934 674.083 632.123 673.458C623.287 670.344 616.135 665.144 613.796 656.457Z" fill="#D9BC9E"/>
<path d="M645.398 674.782C645.398 674.782 645.398 674.663 645.398 674.603C645.279 674.603 645.16 674.573 645.026 674.559C645.145 674.633 645.264 674.708 645.383 674.782H645.398Z" fill="#D9BC9E"/>
<path d="M242.54 441.379C241.557 441.201 240.603 441.007 239.649 440.783C244.998 456.473 265.784 472.043 284.706 461.285C290.1 458.216 295.345 452.42 297.445 448.546C301.602 440.888 305.089 427.925 306.475 413.666C294.823 434.66 268.272 444.732 242.54 441.379Z" fill="#CF712F"/>
<path d="M370.901 473.457C365.671 474.128 361.037 475.021 357.759 476.69C350.771 480.251 347.374 497.431 351.337 509.216C351.605 510.006 354.883 510.811 354.571 510.14C349.698 499.651 353.84 482.546 360.218 479.298C362.572 478.091 365.656 477.316 369.217 476.72C369.321 475.334 369.694 474.351 370.886 473.457H370.901Z" fill="#0E141B"/>
<path d="M425.478 456.367C418.118 466.052 404.946 469.017 392.312 470.984C392.669 471.833 392.997 472.861 393.399 473.874C402.22 472.548 411.189 470.313 418.446 465.471C421.426 463.474 425.925 455.786 425.478 456.367Z" fill="#0E141B"/>
<path d="M438.62 427.373C436.758 431.56 425.792 457.814 414.125 467.99C409.849 471.73 414.527 471.909 418.64 467.99C429.74 457.411 439.35 432.231 440.989 428.565C444.565 421.414 448.603 423.485 448.573 429.459C448.171 435.598 444.446 463.386 450.54 472.877C451.315 474.069 455.278 473.667 454.637 473.309C446.308 468.616 451.076 431.247 451.225 429.474C451.255 420.579 442.896 418.776 438.59 427.373H438.62Z" fill="#0E141B"/>
<path d="M491.619 432.409L484.005 442.228C472.398 457.426 460.389 473.145 450.227 471.655C443.746 470.701 444.267 473.428 450.763 474.381C462.475 476.11 474.037 459.661 486.121 443.837L493.704 434.078C496.625 430.442 501.348 431.59 500.156 438.294C496.163 460.748 496.178 477.838 500.216 489.073C502.868 496.433 509.409 503.242 516.337 510.439C525.635 520.094 535.23 530.092 537.003 542.637C538.553 553.737 530.76 574.359 523.876 581.868C523.176 582.628 524.562 585.936 525.217 585.28C532.861 577.532 542.903 554.602 541.145 542.071C539.268 528.661 527.706 518.097 518.557 508.591C511.837 501.603 505.55 494.556 503.106 487.732C499.277 477.093 499.039 459.422 502.898 437.728C504.075 431.098 496.267 426.628 491.633 432.394L491.619 432.409Z" fill="#0E141B"/>
<path d="M507.591 592.253C500.216 599.152 492.259 600.671 487.268 600.82C486.702 600.835 484.869 603.473 485.614 603.487C494.405 603.711 503.523 600.82 510.184 594.458C510.616 594.041 508.113 591.776 507.606 592.253H507.591Z" fill="#0E141B"/>
<path d="M349.803 538.704C356.031 542.072 358.832 547.987 361.529 554.111C363.987 559.728 366.684 567.61 373.955 576.028C386.158 590.153 398.823 596.649 414.557 598.169C415.287 598.244 413.723 594.936 412.993 594.862C399.27 593.535 387.499 586.309 376.339 573.391C369.336 565.286 366.476 558.789 363.973 553.053C361.782 548.047 359.95 543.89 356.031 540.284C355.003 539.345 349.162 538.362 349.818 538.704H349.803Z" fill="#0E141B"/>
<path d="M388.766 549.46C386.084 537.213 374.388 518.737 366.014 514.372C365.448 514.074 365.269 517.977 366.208 518.633C373.762 523.848 384.981 540.714 386.516 551.949C386.695 553.305 387.112 554.079 388.676 552.798C405.319 539.18 433.897 535.797 460.329 544.752C460.702 543.441 461.432 542.905 462.236 542.04C435.685 532.907 406.392 536.334 388.751 549.46H388.766Z" fill="#0E141B"/>
<path d="M505.147 579.56C501.08 565.971 489.577 554.483 473.232 546.557C473.024 547.927 473.649 549.09 474.111 550.684C489.801 559.147 500.275 571.022 502.912 584.625C503.047 585.341 505.535 580.826 505.162 579.56H505.147Z" fill="#0E141B"/>
<path d="M350.503 508.071C346.629 509.233 343.918 512.124 342.636 516.4C340.684 522.941 341.385 532.104 345.721 537.289C346.361 538.049 348.164 538.66 349.684 539.301C353.081 540.716 359.696 542.817 367.459 552.234C370.231 555.601 370.722 552.517 367.936 549.149C359.756 539.211 354.616 537.811 351.025 536.306C350.071 535.904 349.088 535.501 348.864 535.233C345.11 530.748 343.5 522.807 345.184 517.145C345.884 514.791 347.523 511.736 351.263 510.604C351.8 510.44 352.038 510.559 353.126 511.319L354.645 509.129C353.498 508.324 352.306 507.49 350.488 508.041L350.503 508.071Z" fill="#0E141B"/>
<path d="M345.512 534.488C342.412 554.871 351.68 575.224 379.647 578.874C380.064 578.934 377.933 576.282 376.592 576.028C357.193 572.214 345.765 555.69 347.821 537.14C348.015 535.322 345.69 533.341 345.512 534.488Z" fill="#0E141B"/>
<path d="M411.786 594.071C411.786 602.146 429.01 615.154 452.626 615.497C464.963 615.675 479.192 612.591 486.15 605.439C494.226 597.125 486.374 582.911 454.682 579.32C437.845 577.413 411.786 583.075 411.786 594.071ZM452.551 611.787C430.321 611.459 414.721 600.105 414.721 594.071C414.721 592.73 415.555 591.255 417.105 589.824C422.439 584.922 436.042 580.676 454.429 582.24C475.616 584.043 485.793 592.462 486.001 597.572C486.001 597.662 486.001 597.766 486.001 597.855C486.001 599.807 485.167 601.64 483.528 603.338C478.417 608.583 465.976 611.98 452.551 611.787Z" fill="#0E141B"/>
<path d="M508.813 573.896C499.605 579.231 500.052 591.627 507.651 592.879C508.306 592.983 508.664 590.778 508.172 590.644C506.503 590.197 505.729 588.707 505.386 587.708C504.194 584.177 505.669 578.769 510.124 576.191C516.278 572.63 522.148 577.666 521.269 580.959C521.075 581.659 523.28 582.3 523.519 581.6C525.411 576.057 516.576 569.382 508.783 573.882L508.813 573.896Z" fill="#0E141B"/>
<path d="M506.816 589.839C506.876 592.148 507.755 594.026 509.2 594.994C519.257 601.699 526.826 610.073 530.492 618.536L532.414 624.391C533.248 626.909 533.904 628.861 535.319 630.172C535.692 630.515 537.345 627.923 537.092 627.669C536.302 626.835 535.811 625.434 535.051 623.14L532.95 617.463C529.091 608.523 521.179 599.762 510.69 592.759C509.99 592.297 509.528 591.135 509.483 589.75C509.364 585.548 513.759 579.662 519.853 581.465C521.552 581.972 522.952 583.134 523.429 584.43C528.078 597.08 546.896 615.407 550.621 618.968C555.076 623.214 554.719 628.712 551.575 631.26C551.247 631.528 552.826 634.881 553.139 634.642C558.026 631.171 559.099 623.363 552.454 617.046C550.219 614.915 530.477 595.873 525.932 583.521C525.172 581.436 523.131 579.677 520.613 578.932C512.374 576.489 506.682 584.55 506.831 589.839H506.816Z" fill="#0E141B"/>
<path d="M549.176 626.879C542.858 623.363 534.544 625.613 533.099 629.68C530.208 637.89 523.414 646.607 515.16 653.729C516.188 654.22 517.633 654.474 518.661 655.099C526.841 647.471 532.533 639.231 535.602 630.56C536.481 628.101 543.663 626.85 547.879 629.204C551.187 631.036 553.154 638.278 551.038 640.393C546.196 645.236 537.643 658.839 533.591 669.82C534.514 671.429 535.021 673.217 535.483 674.916C538.463 662.877 548.595 647.217 553.661 642.152C557.043 638.769 554.137 629.651 549.161 626.894L549.176 626.879Z" fill="#0E141B"/>
<path d="M543.41 622.052C541.205 622.842 539.685 624.481 539.253 627.327C539.148 628.057 541.622 626.91 541.741 626.552C543.097 622.514 549.906 623.11 550.293 628.951C550.353 629.815 551.977 633.108 552.156 632.408C554.167 624.556 548.222 620.339 543.41 622.052Z" fill="#0E141B"/>
<path d="M496.088 654.713C495.388 655.086 498.785 657.008 499.575 656.621C507.01 652.896 521.611 654.982 528.167 663.147C541.353 679.536 533.471 700.709 523.518 704.732C522.818 705.015 521.179 709.559 522.043 709.38C534.5 706.818 546.643 681.101 529.821 660.912C521.969 651.48 506.19 649.29 496.088 654.728V654.713Z" fill="#0E141B"/>
<path d="M424.674 640.916C406.839 646.012 338.598 693.929 331.729 717.814C329.137 726.828 331.476 759.518 336.557 766.417C340.192 771.363 353.587 784.207 369.202 791.657C376.086 794.935 376.309 795.113 378.738 784.311C381.539 771.84 386.635 751.278 392.312 748.179C406.958 740.193 454.443 722.82 467.54 729.435C480.22 735.827 496.312 740.521 510.869 727.528C517.931 721.226 526.126 707.607 524.696 697.923C522.014 679.775 511.718 664.741 501.318 656.382C495.835 651.972 442.658 635.791 424.674 640.931V640.916ZM340.327 764.42C336.855 759.697 334.292 740.268 334.292 727.692C334.292 723.759 334.545 720.481 335.097 718.559C342.174 693.959 416.39 647.204 424.987 644.745C443.239 639.531 494.717 655.19 500.051 659.124C505.386 663.072 516.918 673.8 521.03 698.846C522.297 706.609 515.681 718.782 508.023 725.606C495.433 736.841 481.218 732.594 468.986 726.962C453.46 719.81 398.748 740.357 390.449 744.886C383.402 748.731 379.304 768.145 376.294 782.315C375.564 785.741 374.924 788.751 374.358 790.956C357.566 784.207 344.156 769.635 340.327 764.435V764.42Z" fill="#0E141B"/>
<path d="M512.821 671.446C517.544 673.502 521.82 678.151 520.852 689.132C520.733 690.548 522.118 693.542 522.312 692.827C526.32 678.389 520.539 670.835 511.644 668.034C510.943 667.811 512.135 671.148 512.821 671.446Z" fill="#0E141B"/>
<path d="M448.752 727.752C446.1 726.903 439.559 729.183 440.289 729.168C446.532 728.989 452.507 731.268 452.834 732.446C453.162 736.23 450.167 753.544 439.112 758.922C438.754 759.101 441.719 761.47 442.554 760.964C451.777 755.257 455.978 739.15 455.308 731.73C455.129 729.749 452.194 728.87 448.737 727.767L448.752 727.752Z" fill="#0E141B"/>
<path d="M518.333 716.726C517.931 738.912 512.97 762.513 504.432 767.325C501.005 769.247 496.952 772.123 492.661 775.163C484.63 780.839 475.512 787.276 470.505 787.276C466.006 787.276 456.38 783.358 448.647 780.199C442.881 777.845 437.935 775.848 435.253 775.431C434.061 773.717 432.466 762.036 432.377 757.313C437.383 760.576 450.167 767.325 461.476 761.768C470.565 757.298 482.276 748.775 484.377 733.578C484.452 733.026 480.697 732.743 480.622 733.309C478.611 747.241 468.33 755.078 459.867 759.235C448.126 765.001 434.686 755.793 432.109 753.886C431.617 753.528 430.425 753.066 429.963 753.454C427.892 755.108 430.827 771.736 431.677 774.611C432.228 776.474 432.839 777.725 434.061 777.86C436.236 778.083 442.047 780.378 447.679 782.657C456.053 786.069 465.529 789.928 470.55 789.928C476.421 789.928 486.403 784.192 495.164 777.994C499.396 774.999 504.313 771.87 507.621 770.007C517.976 764.182 522.341 733.592 522.103 709.738C522.103 709.187 518.438 714.655 518.393 716.726H518.333Z" fill="#0E141B"/>
<path d="M463.964 530.42C463.22 540.06 458.69 547.912 451.285 555.511C448.126 558.744 448.26 560.86 451.821 558.103C459.375 552.248 464.844 542.623 466.289 533.042C470.446 537.005 472.8 544.217 472.8 551.339C472.8 555.883 471.846 560.398 469.79 564.019C467.511 568.027 469.671 569.01 472.174 564.585C478.566 553.291 475.363 535.56 466.006 529.392C464.084 528.125 464.024 529.481 463.95 530.405L463.964 530.42Z" fill="#0E141B"/>
<path d="M449.899 561.828C449.512 566.536 452.984 568.533 455.919 568.235C458.273 567.996 459.048 566.298 456.679 566.298C454.041 566.298 451.747 563.303 451.747 561.366C451.747 559.25 450.063 559.727 449.884 561.828H449.899Z" fill="#0E141B"/>
<path d="M366.55 499.979C358.624 502.02 351.561 509.47 350.161 518.514C348.224 530.955 357.789 532.669 361.797 530.374C364.584 528.78 364.762 527.513 361.604 528.601C355.778 530.598 351.397 527.871 352.798 518.916C353.901 511.839 359.816 504.94 366.044 502.944C364.301 510.096 364.42 516.935 365.641 522.135C366.55 525.994 367.891 524.057 367.355 520.123C366.535 514.163 367.31 507.235 369.188 501.513C369.575 500.336 368.8 499.383 366.58 499.949L366.55 499.979Z" fill="#0E141B"/>
<path d="M529.36 592.565C532.459 593.534 536.795 593.221 541.756 593.295C547.612 593.37 561.513 594.994 573.18 599.702C579.512 602.265 583.684 603.323 586.798 601.565C587.483 601.177 587.17 597.646 586.694 598.212C584.623 600.671 581.792 599.017 573.79 596.707C559.651 592.64 553.08 591.358 541.92 590.643C536.05 590.271 530.447 590.762 528.182 589.153C527.78 588.855 527.184 591.895 529.36 592.58V592.565Z" fill="#0E141B"/>
<path d="M531.505 572.288C530.924 572.422 530.015 575.566 530.7 575.313C534.544 573.838 537.852 575.03 542.858 576.848C547.209 578.427 554.808 580.483 562.526 581.69C567.92 582.524 576.964 584.119 586.917 582.822C589.539 582.48 592.474 582.808 594.754 587.397C594.993 587.888 598.092 587.084 597.898 586.577C596.155 581.735 592.206 579.664 587.349 580.289C577.798 581.541 567.398 580.126 562.973 579.485C556.566 578.546 547.626 575.745 543.782 574.344C539.253 572.706 535.572 571.365 531.52 572.288H531.505Z" fill="#0E141B"/>
<path d="M587.2 592.863C582.939 598.942 584.205 603.561 588.511 610.192C593.115 617.284 599.552 645.891 598.807 653.937C597.943 663.235 604.633 666.781 610.816 667.511C611.278 667.57 610.622 664.397 610.131 664.322C605.527 663.726 600.789 661.298 601.444 654.176C602.249 645.593 595.633 616.301 590.731 608.746C588.616 605.483 586.276 598.793 589.361 594.398C592.206 590.33 595.469 588.006 596.974 588.125C598.956 588.274 605.586 593.564 605.944 600.745C606.391 609.774 619.384 639.619 620.516 642.345C621.648 645.072 627.429 653.758 626.625 657.439C626.476 658.154 629.947 658.273 630.037 657.737C630.946 653.401 624.345 645.549 622.468 641.153C620.59 636.758 609.028 609.566 608.596 601.028C608.194 592.893 600.744 585.652 597.332 585.399C593.95 585.16 589.673 589.302 587.17 592.863H587.2Z" fill="#0E141B"/>
<path d="M586.262 598.138C586.709 598.913 587.945 594.383 587.707 593.817C586.56 591.105 587.826 586.501 592.206 588.691C592.579 588.885 595.976 588.364 595.261 587.827C587.632 582.18 581.568 590.077 586.262 598.123V598.138Z" fill="#0E141B"/>
<path d="M533.531 568.027C534.172 568.34 535.513 571.096 534.947 573.793C534.798 574.508 537.152 574.389 537.301 573.674C537.912 570.798 537.137 566.865 534.723 565.658C534.068 565.33 532.876 567.714 533.531 568.042V568.027Z" fill="#0E141B"/>
<path d="M563.092 552.471L554.331 556.449C547.835 559.22 541.741 558.043 537.673 557.03C537.167 556.911 536.094 560.442 536.705 560.591C541.026 561.664 547.895 561.664 555.374 558.49L564.21 554.482C572.703 550.563 586.917 543.993 589.793 544.127C593.13 544.291 596.497 547.986 597.138 552.188C597.555 554.899 595.037 562.781 592.266 562.975C577.336 561.992 558.771 569.605 547.835 577.085C547.224 577.502 550.845 579.067 551.456 578.634C561.304 571.632 574.282 564.167 592.206 566.432C595.484 566.849 600.669 557.686 599.775 551.77C598.926 546.213 594.754 541.236 590.076 541.013C586.798 540.864 576.293 546.377 563.092 552.485V552.471Z" fill="#0E141B"/>
<path d="M594.158 544.694C593.622 544.828 595.454 546.407 596.378 546.229C598.553 545.782 601.861 545.588 603.664 547.897C604.573 549.074 607.21 553.842 610.548 559.892C616.776 571.186 627.459 588.261 636.175 601.03C640.302 607.079 637.099 612.324 633.449 613.486C627.31 615.453 620.173 613.277 619.413 609.597C617.074 598.243 604.186 574.955 601.817 571.379C600.431 569.293 594.769 563.572 595.022 562.454C595.186 561.739 592.474 563.721 592.817 564.391C594.456 567.654 598.837 571.081 600.029 572.869C602.278 576.237 614.586 599.316 616.821 610.148C617.759 614.693 626.52 618.09 634.268 615.617C639.885 613.814 643.67 606.692 638.798 599.555C630.141 586.89 617.923 568.504 612.008 557.105C606.212 545.945 604.916 541.997 594.173 544.739L594.158 544.694Z" fill="#0E141B"/>
<path d="M639.692 606.065C639.304 606.14 639.319 608.598 639.692 608.509C643.581 607.63 647.321 607.481 649.898 608.136C652.223 608.717 655.798 613.351 657.05 616.912C649.347 615.75 645.339 617.911 641.495 620.041C638.485 621.71 635.639 623.304 630.752 623.111C627.012 622.976 625.895 618.939 625.582 615.854C625.492 615.005 623.496 614.394 623.511 614.826C623.854 621.695 625.135 624.66 630.067 625.524C635.714 626.508 639.409 623.2 642.657 621.382C646.009 619.52 649.079 618.045 655.009 618.7C659.866 619.237 660.849 619.058 659.3 615.854C657.035 611.206 654.472 607.183 649.779 606.006C647.067 605.32 643.476 605.35 639.662 606.065H639.692Z" fill="#0E141B"/>
<path d="M598.434 549.864C601.608 552.084 603.083 557.954 597.526 559.236C597.079 559.34 596.214 561.977 596.661 561.948C604.662 561.366 607.27 550.222 597.272 546.467C596.438 546.154 597.719 549.357 598.434 549.849V549.864Z" fill="#0E141B"/>
<path d="M614.228 655.056C610.592 657.128 608.566 661.165 608.968 664.786C609.892 673.085 616.463 677.272 623.406 676.363L628.278 675.126C632.897 673.86 639.111 672.623 646.262 676.333C651.969 679.283 652.55 678.36 650.628 670.969C649.034 664.86 646.069 659.601 640.005 658.096C636.369 657.187 630.081 658.781 626.118 656.114C622.155 653.447 618.355 652.702 614.228 655.056ZM615.673 672.146C613.468 670.418 612.068 667.438 611.621 663.519C611.293 660.674 613.319 658.454 615.331 657.306C617.655 655.98 621.499 655.295 624.703 657.723C627.831 660.107 631.318 659.839 634.372 659.616C636.131 659.482 637.784 659.362 639.125 659.765C644.907 661.508 647.886 668.839 648.333 674.709C639.602 669.807 632.376 671.685 627.474 673.04L623.853 673.89C620.456 674.337 617.715 673.756 615.688 672.176L615.673 672.146Z" fill="#0E141B"/>
<path d="M492.348 518.426C487.714 520.467 487.804 522.463 492.989 520.646C497.325 519.111 502.867 517.636 504.387 517.889C506.458 518.232 509.245 519.111 511.48 520.139C515.756 522.091 516.069 521.093 511.196 517.874C508.961 516.399 506.965 515.669 504.67 515.297C502.227 514.894 496.431 516.638 492.333 518.441L492.348 518.426Z" fill="#0E141B"/>
<path d="M319.616 502.333C318.96 502.273 320.778 505.551 321.449 505.819C323.475 506.609 325.248 508.203 326.202 508.874C331.58 512.569 339.12 514.446 344.618 515.817L345.258 513.239C339.954 511.913 332.519 511.064 327.706 506.684C326.261 505.655 323.311 502.646 319.616 502.333Z" fill="#0E141B"/>
<path d="M311.6 518.723C314.505 523.505 316.308 524.608 326.544 524.295C328.839 524.221 338.464 527.215 344.29 532.445C344.841 532.937 343.605 528.05 343.202 527.841C335.723 523.893 330.09 521.956 326.47 522.06C318.558 522.299 316.681 521.479 314.967 519.05C314.61 518.559 311.227 518.097 311.615 518.723H311.6Z" fill="#0E141B"/>
<path d="M305.864 483.023C314.878 492.156 331.506 507.622 345.512 513.135C345.81 513.254 348.656 510.781 347.955 510.543C331.938 505.149 312.196 485.869 304.523 477.808C304.016 477.272 304.627 481.756 305.864 483.008V483.023Z" fill="#0E141B"/>
<path d="M335.827 467.676C329.569 468.913 325.651 479.596 328.645 485.75C329.703 487.91 331.625 488.819 333.89 489.519C338.405 490.905 349.997 502.72 351.084 504.27C351.502 504.866 351.8 501.052 350.101 499.368C345.899 495.196 338.643 488.625 334.68 487.404C333.1 486.927 331.938 485.914 331.208 484.409C328.69 479.253 331.521 471.237 336.349 470.284C338.867 469.777 341.578 470.701 342.651 471.848C343.024 472.251 343.679 473.294 344.439 474.515C346.302 477.495 349.013 481.816 352.708 485.198C353.2 485.645 354.377 483.142 353.677 482.442C350.637 479.417 347.896 476.139 346.272 473.517C345.363 472.072 344.737 470.641 344.186 470.045C342.621 468.377 339.403 466.946 335.827 467.661V467.676Z" fill="#0E141B"/>
<path d="M328.854 483.753C329.45 484.185 329.301 480.848 328.824 480.297C326.127 477.138 326.872 471.64 331.268 471.55C331.774 471.55 334.561 470.522 333.875 470.254C326.053 467.051 319.884 477.287 328.854 483.753Z" fill="#0E141B"/>
<path d="M320.167 470.597L318.335 476.378C317.158 479.417 316.934 481.086 311.958 486.882C311.481 487.433 312.658 489.177 313.135 488.61C318.409 482.472 319.154 480.535 320.391 477.331L322.641 472.116C324.637 468.019 331.014 467.319 334.352 469.181C334.784 469.42 338.181 468.883 337.749 468.302C334.039 463.192 322.462 465.099 320.167 470.597Z" fill="#0E141B"/>
<path d="M330.687 486.361C327.781 489.654 324.444 493.588 322.909 496.389C322.566 497.015 324.101 499.533 324.295 498.817C324.772 497.164 327.871 493.558 332.683 488.119L330.687 486.361Z" fill="#0E141B"/>
<path d="M302.735 476.258C305.566 484.93 313.552 498.653 320.51 506.341C322.76 508.829 320.376 515.132 317.619 516.949C315.31 518.469 308.128 518.484 306.758 515.892C301.736 506.371 288.848 488.58 287.269 487.627C285.347 486.48 281.562 488.402 283.752 489.43C285.525 490.264 299.546 507.905 304.403 517.128C307.011 522.075 315.534 521.702 319.169 519.125C323.713 515.892 325.04 507.384 322.492 504.568C315.101 496.388 307.219 481.622 304.597 472.34C304.12 470.641 302.198 474.56 302.75 476.258H302.735Z" fill="#0E141B"/>
<path d="M322.313 511.9C323.207 512.868 323.624 513.911 323.549 514.939C323.356 517.502 320.838 518.366 319.035 517.577C318.722 517.442 315.846 517.77 316.427 518.232C319.229 520.452 323.594 520.184 325.174 517.338C326.589 514.79 325.531 511.93 322.745 509.441C322.283 509.024 321.836 511.408 322.313 511.915V511.9Z" fill="#0E141B"/>
<path d="M299.367 447.563C307.011 456.994 308.62 470.046 295.314 481.638C284.199 491.323 270.581 487.747 264.889 481.549C264.353 480.968 261.388 483.516 262.043 484.127C269.851 491.472 285.391 494.094 297.415 483.62C312.822 470.21 309.499 452.882 300.574 443.376C299.978 442.735 298.92 447.011 299.367 447.563Z" fill="#0E141B"/>
<path d="M298.756 505.253C291.455 514.535 283.439 523.088 282.62 527.96C281.949 531.968 284.736 536.259 289.086 538.122C296.924 541.504 303.152 536.378 306.31 529.122C307.89 525.517 309.216 521.494 310.795 519.408C311.048 519.065 308.814 518.186 308.545 518.603C306.951 521.017 305.387 524.593 303.882 528.064C299.695 537.645 293.392 537.704 290.144 535.782C287.626 534.292 285.6 531.968 285.6 528.78C285.6 524.041 294.614 514.267 300.053 507.741C300.425 507.294 298.95 505 298.756 505.238V505.253Z" fill="#0E141B"/>
<path d="M283.067 488.58C273.978 504.568 258.676 520.197 249.706 529.763C244.283 535.544 246.652 544.365 252.031 548.194C259.555 553.573 268.495 551.263 272.16 544.841C277.554 535.38 288.669 511.943 298.22 503.092C298.563 502.78 296.894 500.709 296.536 501.021C287.939 508.888 272.294 539.254 269.851 543.515C266.528 549.326 258.318 549.833 253.58 546.451C249.796 543.754 248.336 536.066 251.807 531.983C259.823 522.507 279.208 501.737 285.838 489.862C286.106 489.385 283.335 488.118 283.082 488.58H283.067Z" fill="#0E141B"/>
<path d="M295.508 538.898C295.643 541.297 295.017 543.234 293.691 544.5C290.77 547.301 286.718 546.005 282.993 543.159C280.549 541.297 277.599 539.077 273.129 538.913C272.906 539.553 273.397 540.194 273.397 541.148C276.794 541.371 279.163 542.772 281.652 544.753C291.798 552.874 297.863 546.735 297.445 539.091C297.401 538.361 295.479 538.168 295.523 538.898H295.508Z" fill="#0E141B"/>
<path d="M283.618 530.196C282.083 530.345 280.251 530.047 279.148 529.078C278.314 529.704 277.867 529.957 277.658 530.777C279.506 532.207 282.218 532.758 284.87 532.222C284.333 531.537 283.886 531.179 283.618 530.21V530.196Z" fill="#0E141B"/>
<path d="M248.947 537.095C244.462 540.253 240.945 540.775 237.548 540.417C234.792 540.134 231.38 539.33 228.534 541.118C225.062 543.293 222.619 546.675 221.516 550.758C219.684 557.522 221.784 556.42 226.388 555.466C233.868 553.931 238.666 555.734 242.286 557.686C243.642 558.416 245.862 559.385 247.01 559.727C254.445 561.932 260.166 557.984 262.252 549.327C262.431 548.582 259.391 549.208 259.257 549.61C257.141 556.181 252.15 559.206 246.756 557.597C245.892 557.343 244.834 556.762 243.598 556.107C239.485 553.902 233.302 550.713 223.617 553.35C223.617 553.32 223.617 553.276 223.617 553.246C223.617 549.447 226.895 545.409 230.575 543.099C232.602 541.818 234.658 542.041 237.25 542.31C240.335 542.622 244.074 543.01 248.5 540.641C249.17 540.283 249.557 536.648 248.932 537.095H248.947Z" fill="#0E141B"/>
<path d="M193.624 407.273C187.366 409.359 181.019 427.477 183.149 430.845C187.992 438.488 193.311 461.627 194.741 469.599C195.799 475.484 225.196 486.093 244.03 488.551C258.885 490.488 281.309 476.661 287.194 459.676C287.433 458.975 283.231 461.449 282.784 462.357C276.139 475.827 256.247 486.48 244.492 484.945C223.423 482.204 198.63 471.774 197.915 468.615C196.589 461.195 190.793 438.16 185.548 429.653C185.548 429.623 185.548 429.593 185.548 429.548C185.548 427.194 188.364 414.246 193.4 410.953C200.388 431.202 217.359 441.826 238.383 438.935C238.934 438.861 238.711 435.27 238.204 435.329C217.97 438.131 201.551 428.595 195.337 408.614C194.935 407.318 194.756 406.901 193.639 407.273H193.624Z" fill="#0E141B"/>
<path d="M175.7 368.31C174.97 368.37 172.035 371.067 172.765 371.022C184.967 370.069 200.478 373.346 203.473 378.397C206.855 384.119 214.558 402.535 216.987 419.178C218.298 428.177 214.275 431.798 211.37 431.545C210.982 431.515 213.739 434.54 215.348 433.854C218.477 432.528 221.263 428.043 219.937 418.955C217.449 401.954 209.224 382.927 205.753 377.057C202.236 371.112 189.035 367.282 175.685 368.325L175.7 368.31Z" fill="#0E141B"/>
<path d="M304.001 366.3C299.949 356.153 255.026 319.455 211.161 306.582C197.707 302.648 157.284 319.634 149.149 328.365C142.19 335.8 138.883 359.103 140.343 375.612C140.745 380.201 141.818 385.401 143.755 389.543C146.765 396.01 148.121 397.291 152.173 390.75C158.714 380.231 180.84 363.23 200.791 362.024C206.259 361.696 230.039 378.413 235.85 393.671C237.221 397.276 237.578 405.412 237.146 413.636C236.61 423.53 235.224 433.751 237.325 440.485C240.573 450.885 252.016 462.865 265.992 465.621C273.71 467.141 286.107 465.904 296.76 453.076C307.846 439.726 314.118 391.51 304.016 366.285L304.001 366.3ZM293.735 451.779C283.917 463.595 273.502 464.429 266.484 463.029C255.235 460.809 244.149 450.781 240.693 439.711C238.726 433.423 239.292 422.993 239.784 413.8C240.26 404.905 240.678 397.232 239.098 393.089C232.989 377.042 207.69 358.537 200.612 358.954C177.89 360.325 153.365 381.021 148.508 392.076C146.035 388.947 144.247 382.824 143.531 374.718C143.293 371.977 143.174 369.161 143.174 366.33C143.174 350.998 146.556 335.323 151.413 330.123C159.578 321.392 198.809 306.582 210.401 309.979C255.399 323.18 297.282 360.191 300.411 367.983C311.302 395.22 303.957 439.472 293.735 451.779Z" fill="#0E141B"/>
<path d="M289.787 458.647C289.206 462.923 285.66 466.365 280.415 468.838C278.984 469.509 277.658 472.474 278.225 472.369C286.092 470.939 293.482 461.507 293.065 456.278C293.005 455.562 289.906 457.842 289.787 458.647Z" fill="#0E141B"/>
<path d="M426.82 515.43C426.328 520.004 426.268 520.242 430.053 522.239C447.441 531.447 476.302 529.957 485.361 522.924C490.143 519.244 494.092 490.95 471.012 485.005C450.168 479.626 428.652 498.235 426.835 515.415L426.82 515.43ZM469.641 487.94C489.115 492.961 487.506 514.923 483.468 520.511C474.499 527.23 444.416 529.033 428.786 518.752C428.965 500.888 451.047 483.142 469.641 487.94Z" fill="#0E141B"/>
<path d="M366.803 488.312C367.235 502.497 390.956 513.463 393.489 510.587C401.803 501.171 401.132 469.986 387.454 465.829C375.132 462.089 366.401 474.903 366.803 488.312ZM369.411 488.655C369.321 487.88 369.277 487.106 369.277 486.331C369.277 480.296 371.869 474.232 376.086 470.716C378.321 468.853 381.956 466.946 386.665 468.377C395.485 471.059 396.052 487.627 396.052 491.203C396.052 499.472 394.219 506.818 391.939 508.874C380.705 507.012 370.454 497.893 369.396 488.655H369.411Z" fill="#0E141B"/>
<path d="M387.797 489.698C387.097 489.593 386.382 490.502 386.218 491.724C386.039 492.931 386.486 494.004 387.186 494.108C387.886 494.212 388.602 493.303 388.766 492.082C388.929 490.875 388.497 489.802 387.797 489.698Z" fill="#0E141B"/>
<path d="M470.61 506.819C469.686 506.759 468.866 507.906 468.777 509.366C468.687 510.827 469.373 512.048 470.297 512.108C471.22 512.168 472.04 511.02 472.129 509.56C472.219 508.1 471.533 506.878 470.61 506.819Z" fill="#0E141B"/>
</g>
<defs>
<clipPath id="clip0_42_67271">
<rect width="520" height="487.638" fill="white" transform="translate(140 306)"/>
</clipPath>
</defs>
</svg>
